<svg xmlns="http://www.w3.org/2000/svg" width="520" height="520" viewBox="0 0 520 520">
  <rect width="100%" height="100%" fill="#ffffff" />
  <g>
    <polyline points="-227.02,1297.94 -222.33,1283.52 -197.48,1207.11 -194.56,1198.10 -191.59,1188.65 -129.12,989.41 -124.10,973.39 -135.60,945.05" fill="none" stroke="#bcbcbc" stroke-width="8" stroke-linecap="round" stroke-linejoin="round" /><polyline points="-658.55,1120.73 -659.56,1109.29 -639.13,994.89 -636.27,980.58 -634.13,973.08 -628.51,944.07 -622.19,908.56 -615.31,877.29 -608.48,846.08 -604.18,837.29 -601.37,831.89" fill="none" stroke="#bcbcbc" stroke-width="8" stroke-linecap="round" stroke-linejoin="round" /><polyline points="-540.00,313.76 -544.85,298.95 -595.04,145.86 -597.49,139.44" fill="none" stroke="#bcbcbc" stroke-width="8" stroke-linecap="round" stroke-linejoin="round" /><polyline points="-797.54,1661.13 -796.04,1646.52 -795.44,1639.82 -789.97,1579.37 -783.99,1526.15 -782.59,1513.72 -781.30,1498.81 -781.15,1497.56 -777.76,1467.92 -774.84,1437.79 -771.62,1408.71 -769.45,1386.07 -768.54,1372.10 -767.74,1359.20 -766.32,1344.66" fill="none" stroke="#bcbcbc" stroke-width="8" stroke-linecap="round" stroke-linejoin="round" /><polyline points="-104.01,1333.46 -100.43,1322.22 -75.24,1243.04 -72.38,1234.04 -68.32,1221.23 -65.40,1212.04 -43.11,1115.89" fill="none" stroke="#bcbcbc" stroke-width="8" stroke-linecap="round" stroke-linejoin="round" /><polyline points="-201.91,-232.76 -192.61,-231.34 63.69,-191.95" fill="none" stroke="#bcbcbc" stroke-width="8" stroke-linecap="round" stroke-linejoin="round" /><polyline points="-859.89,1314.80 -886.57,1313.56 -902.84,1312.80 -911.67,1312.39 -919.43,1312.03 -979.84,1309.22 -1063.86,1305.31 -1103.91,1299.63 -1117.32,1297.73 -1128.95,1295.68 -1207.72,1281.78 -1218.73,1279.83 -1221.17,1279.41 -1234.77,1277.08 -1245.22,1275.29 -1311.97,1269.39 -1324.68,1268.27 -1329.35,1267.85 -1343.78,1266.85 -1372.03,1264.90" fill="none" stroke="#bcbcbc" stroke-width="8" stroke-linecap="round" stroke-linejoin="round" /><polyline points="-472.32,1237.40 -467.15,1222.69 -420.59,1093.61 -364.57,930.79 -360.99,920.58 -358.48,913.44 -356.46,907.59" fill="none" stroke="#bcbcbc" stroke-width="8" stroke-linecap="round" stroke-linejoin="round" /><polyline points="-1329.35,1267.85 -1330.54,1259.55 -1330.82,1250.54 -1329.05,1232.39 -1324.99,1199.24 -1322.29,1188.12 -1317.90,1147.90 -1317.10,1138.94 -1315.82,1127.42 -1314.86,1118.87 -1313.06,1109.17 -1309.73,1083.08 -1307.41,1063.12 -1304.01,1054.96" fill="none" stroke="#bcbcbc" stroke-width="8" stroke-linecap="round" stroke-linejoin="round" /><polyline points="-1377.00,1044.76 -1314.90,1053.44 -1304.01,1054.96 -1297.27,1056.03 -1269.43,1060.47 -1205.28,1070.69 -1194.27,1072.53" fill="none" stroke="#bcbcbc" stroke-width="8" stroke-linecap="round" stroke-linejoin="round" /><polyline points="-233.99,229.95 -233.58,235.60 -232.75,241.31 -230.73,245.69 -226.96,250.57 -219.97,256.93 -203.42,267.00 -75.72,347.12 2.93,452.57 62.33,599.19 66.21,608.87" fill="none" stroke="#bcbcbc" stroke-width="8" stroke-linecap="round" stroke-linejoin="round" /><polyline points="-254.44,657.75 -251.79,662.13 -251.10,663.27 -248.91,674.33 -233.93,746.78 -229.17,769.78 -225.77,786.16 -220.47,819.35 -217.99,834.66 -216.28,844.00 -214.41,852.44 -212.17,857.36 -208.89,863.06 -207.14,865.75 -173.96,913.25 -156.01,941.52 -151.33,948.27" fill="none" stroke="#bcbcbc" stroke-width="8" stroke-linecap="round" stroke-linejoin="round" /><polyline points="-1206.96,1564.95 -1205.20,1554.07 -1203.55,1546.21 -1203.12,1545.17 -1181.03,1492.65 -1166.96,1458.52 -1162.68,1447.71 -1158.15,1436.25 -1153.24,1426.41 -1152.44,1424.48 -1145.71,1408.21 -1140.50,1393.80 -1136.03,1380.59 -1133.20,1371.25 -1130.02,1359.71 -1126.36,1344.24 -1123.58,1331.69 -1120.25,1314.17 -1119.56,1310.26 -1117.32,1297.73" fill="none" stroke="#bcbcbc" stroke-width="8" stroke-linecap="round" stroke-linejoin="round" /><polyline points="-136.99,98.45 -66.57,147.66 -57.09,149.68 -50.14,157.62" fill="none" stroke="#bcbcbc" stroke-width="8" stroke-linecap="round" stroke-linejoin="round" /><polyline points="-432.67,552.90 -423.37,556.48 -382.96,569.70 -289.24,605.65 -283.98,610.89 -281.51,614.80" fill="none" stroke="#bcbcbc" stroke-width="8" stroke-linecap="round" stroke-linejoin="round" /><polyline points="-258.03,1476.54 -251.64,1459.91 -220.14,1374.42 -197.86,1309.83 -193.24,1307.70" fill="none" stroke="#bcbcbc" stroke-width="8" stroke-linecap="round" stroke-linejoin="round" /><polyline points="-703.40,1368.14 -698.43,1357.15 -697.93,1356.07 -689.43,1327.53 -675.49,1280.56 -671.93,1268.54 -669.15,1259.20 -668.78,1253.76 -669.35,1241.72" fill="none" stroke="#bcbcbc" stroke-width="8" stroke-linecap="round" stroke-linejoin="round" /><polyline points="-124.28,661.50 -132.27,663.15 -150.37,659.93 -153.17,652.46 -184.54,640.50 -191.95,642.44 -220.25,632.05 -224.47,635.00" fill="none" stroke="#bcbcbc" stroke-width="8" stroke-linecap="round" stroke-linejoin="round" /><polyline points="-170.85,-308.74 -156.64,-305.26 -148.77,-303.90 38.19,-271.48" fill="none" stroke="#bcbcbc" stroke-width="8" stroke-linecap="round" stroke-linejoin="round" /><polyline points="-316.16,1424.48 -308.39,1402.55 -293.27,1359.94 -283.51,1341.78 -269.45,1302.43 -263.84,1286.72" fill="none" stroke="#bcbcbc" stroke-width="8" stroke-linecap="round" stroke-linejoin="round" /><polyline points="-1340.58,573.40 -1354.12,572.78 -1357.51,576.91 -1381.11,605.57 -1463.58,700.84 -1475.17,714.24" fill="none" stroke="#bcbcbc" stroke-width="8" stroke-linecap="round" stroke-linejoin="round" /><polyline points="-617.23,655.00 -623.20,668.23 -623.93,669.84 -644.70,724.00 -665.63,783.62 -671.21,799.52 -674.38,807.73" fill="none" stroke="#bcbcbc" stroke-width="8" stroke-linecap="round" stroke-linejoin="round" /><polyline points="-312.58,46.43 -305.98,55.38 -301.27,67.69 -293.94,85.36 -282.17,113.15 -271.75,138.10 -259.79,165.49 -250.92,186.60 -249.60,189.63 -249.52,189.82 -242.38,206.51 -240.25,211.26 -238.22,215.78 -236.07,220.01 -234.46,224.31 -233.99,229.95" fill="none" stroke="#bcbcbc" stroke-width="8" stroke-linecap="round" stroke-linejoin="round" /><polyline points="-817.68,921.99 -814.23,920.10 -809.40,916.26 -806.98,911.28 -774.89,789.60 -773.92,782.74 -770.01,770.20" fill="none" stroke="#bcbcbc" stroke-width="8" stroke-linecap="round" stroke-linejoin="round" /><polyline points="304.30,731.58 308.85,746.03 312.06,761.20 305.82,819.04 298.61,862.54 294.67,877.38 294.32,878.72 290.87,886.73 286.17,895.22 275.19,909.11 280.50,936.25 263.31,994.53 253.81,1026.71 234.39,1079.39 205.94,1143.53 171.21,1204.99 160.36,1224.97 140.75,1257.79 62.39,1369.01 45.22,1392.14 -21.26,1479.02 -59.42,1522.45 -112.81,1576.71 -117.75,1577.22 -129.81,1587.08" fill="none" stroke="#bcbcbc" stroke-width="8" stroke-linecap="round" stroke-linejoin="round" /><polyline points="-662.54,1682.91 -640.67,1615.07 -637.09,1603.86 -632.23,1596.81 -621.78,1565.45 -618.38,1554.80 -575.23,1419.69 -570.89,1406.10 -567.32,1394.16 -516.39,1233.88" fill="none" stroke="#bcbcbc" stroke-width="8" stroke-linecap="round" stroke-linejoin="round" /><polyline points="-150.15,421.26 -131.24,400.59 -125.66,393.87 -87.46,339.76" fill="none" stroke="#bcbcbc" stroke-width="8" stroke-linecap="round" stroke-linejoin="round" /><polyline points="-528.08,429.44 -476.01,447.57 -473.13,452.24 -458.34,457.20 -449.57,460.20 -407.60,474.38" fill="none" stroke="#bcbcbc" stroke-width="8" stroke-linecap="round" stroke-linejoin="round" /><polyline points="-74.22,69.09 -50.14,157.62 -22.26,261.91 -18.03,270.60 -17.36,280.53 1.54,315.83 52.57,410.98 63.72,427.43 66.95,432.25 143.18,574.78 178.21,606.63 183.13,612.98 190.06,618.90 256.58,675.79 261.09,679.64 273.04,685.99" fill="none" stroke="#bcbcbc" stroke-width="8" stroke-linecap="round" stroke-linejoin="round" /><polyline points="-332.93,1697.31 -167.04,1600.93 -137.51,1585.83 -129.81,1587.08" fill="none" stroke="#bcbcbc" stroke-width="8" stroke-linecap="round" stroke-linejoin="round" /><polyline points="-153.07,1559.44 -142.77,1547.20 -50.36,1362.80 -44.24,1350.71 -39.13,1338.74 -9.28,1264.93 -0.39,1242.69 25.33,1164.82 42.02,1064.71 43.99,1050.14" fill="none" stroke="#bcbcbc" stroke-width="8" stroke-linecap="round" stroke-linejoin="round" /><polyline points="-224.38,475.01 -226.00,476.67 -228.22,484.43 -228.44,485.20 -238.47,523.82 -235.84,533.90 -238.03,542.94 -240.89,554.77 -248.23,563.27 -256.56,597.01 -266.37,604.42 -276.84,611.60 -281.51,614.80" fill="none" stroke="#bcbcbc" stroke-width="8" stroke-linecap="round" stroke-linejoin="round" /><polyline points="-617.23,655.00 -612.96,644.07 -587.33,578.34 -581.74,564.01 -577.13,552.21 -544.37,468.28 -529.62,433.19 -528.08,429.44 -516.61,401.73 -490.90,337.87 -481.48,310.69 -479.38,304.45 -476.57,297.38" fill="none" stroke="#bcbcbc" stroke-width="8" stroke-linecap="round" stroke-linejoin="round" /><polyline points="-330.36,256.59 -325.40,271.35 -162.70,410.33 -73.92,487.57 58.68,602.85 70.25,612.11 75.44,615.35 98.45,636.24 129.18,662.45 198.88,721.89 221.39,741.25 236.33,759.11" fill="none" stroke="#bcbcbc" stroke-width="8" stroke-linecap="round" stroke-linejoin="round" /><polyline points="-61.35,17.12 -53.10,11.83 -4.21,-8.49 5.83,-19.06" fill="none" stroke="#bcbcbc" stroke-width="8" stroke-linecap="round" stroke-linejoin="round" /><polyline points="-4.89,1253.93 -72.38,1234.04 -194.56,1198.10" fill="none" stroke="#bcbcbc" stroke-width="8" stroke-linecap="round" stroke-linejoin="round" /><polyline points="-222.76,-181.81 -213.54,-175.45 86.88,-108.60" fill="none" stroke="#bcbcbc" stroke-width="8" stroke-linecap="round" stroke-linejoin="round" /><polyline points="148.33,807.37 132.80,772.82 98.35,690.64 95.78,684.11 89.88,669.11 67.67,612.59 66.27,608.93" fill="none" stroke="#bcbcbc" stroke-width="8" stroke-linecap="round" stroke-linejoin="round" /><polyline points="-312.58,46.43 -329.26,41.68 -341.51,38.03 -366.43,30.64 -379.08,27.03 -386.33,25.01 -395.80,22.30" fill="none" stroke="#bcbcbc" stroke-width="8" stroke-linecap="round" stroke-linejoin="round" /><polyline points="-747.46,498.44 -748.30,495.68 -749.08,493.75 -752.52,485.20 -765.83,454.16 -778.49,422.61 -781.22,415.17 -784.37,406.59 -786.62,399.57 -790.34,389.05 -790.73,387.95 -802.84,358.10 -825.07,302.01 -830.07,299.16 -833.61,290.06 -840.71,265.43 -852.85,234.90 -855.47,227.96" fill="none" stroke="#bcbcbc" stroke-width="8" stroke-linecap="round" stroke-linejoin="round" /><polyline points="-640.67,1615.07 -628.05,1618.93 -587.20,1631.38 -574.41,1635.28" fill="none" stroke="#bcbcbc" stroke-width="8" stroke-linecap="round" stroke-linejoin="round" /><polyline points="122.09,31.81 124.46,22.18 123.50,18.53 122.33,14.12 114.87,-13.20 98.25,-70.96 89.48,-100.49 86.88,-108.60 63.69,-191.95 51.18,-236.91 38.19,-271.48 26.46,-302.66 14.78,-324.10 3.43,-335.43 -83.69,-441.90 -90.14,-449.48 -94.41,-456.48" fill="none" stroke="#bcbcbc" stroke-width="8" stroke-linecap="round" stroke-linejoin="round" /><polyline points="-233.99,229.95 -238.48,231.67 -246.79,233.96 -247.62,234.19 -282.32,243.07 -322.21,254.30 -330.36,256.59 -333.98,257.75 -343.57,260.83 -351.76,263.11 -387.54,273.06 -446.37,289.78 -468.31,295.32 -476.57,297.38 -515.78,307.01 -540.00,313.76 -591.29,328.09 -641.99,342.38 -647.85,344.01 -690.23,355.77 -709.77,361.20 -719.64,365.86 -738.32,375.12 -775.43,393.95 -778.01,395.26 -786.62,399.57 -791.88,402.20 -799.21,406.05 -825.28,419.72 -872.78,446.37 -912.45,467.15 -918.13,470.13 -925.71,470.60 -930.26,473.02 -931.17,473.50 -974.22,497.09 -983.23,497.05 -993.58,502.47 -997.19,504.36 -1000.24,505.95 -1007.43,509.72 -1013.10,522.65 -1037.46,535.70 -1045.21,539.85 -1053.59,544.41 -1087.48,562.85 -1105.00,572.39 -1113.84,574.93" fill="none" stroke="#bcbcbc" stroke-width="8" stroke-linecap="round" stroke-linejoin="round" /><polyline points="253.81,1026.71 235.73,1028.37 179.23,1033.55 176.68,1033.78 173.08,1034.11 167.25,1034.65 112.47,1039.67 93.42,1037.91 71.23,1043.47 53.46,1047.82 43.99,1050.14 20.47,1051.04 0.12,1050.00 -10.26,1048.90 -19.09,1046.23 -25.60,1042.63 -49.82,1025.50 -108.67,985.08 -114.22,981.31 -119.87,977.48 -124.10,973.39" fill="none" stroke="#bcbcbc" stroke-width="8" stroke-linecap="round" stroke-linejoin="round" /><polyline points="-1079.18,344.21 -1057.83,386.02 -1054.60,397.97 -1036.61,432.30 -1029.18,442.11 -999.11,500.62 -997.19,504.36" fill="none" stroke="#bcbcbc" stroke-width="8" stroke-linecap="round" stroke-linejoin="round" /><polyline points="-424.74,716.04 -427.94,724.83 -428.84,727.56 -433.00,740.20 -459.43,813.92 -472.54,850.53 -472.99,851.78 -478.26,863.16 -481.28,869.92" fill="none" stroke="#bcbcbc" stroke-width="8" stroke-linecap="round" stroke-linejoin="round" /><polyline points="-74.23,69.09 -77.15,62.82 -84.85,61.81 -109.76,67.52 -114.82,66.86 -118.78,61.55 -125.83,29.14 -87.66,23.23 -69.99,18.02 -61.35,17.12 -52.05,50.21" fill="none" stroke="#bcbcbc" stroke-width="8" stroke-linecap="round" stroke-linejoin="round" /><polyline points="63.72,427.43 73.55,421.91 122.93,392.16 136.13,384.30 159.23,370.52 197.23,345.95 206.10,339.57 272.77,298.21" fill="none" stroke="#bcbcbc" stroke-width="8" stroke-linecap="round" stroke-linejoin="round" /><polyline points="296.74,622.78 279.89,617.75 270.09,609.72 232.64,577.32 231.37,576.18 222.32,568.10 217.00,558.66 122.93,392.16" fill="none" stroke="#bcbcbc" stroke-width="8" stroke-linecap="round" stroke-linejoin="round" /><polyline points="-764.81,609.58 -617.23,655.00 -605.18,658.82 -495.05,693.73 -492.75,694.46 -476.25,699.69 -468.14,702.27 -457.60,705.15 -435.86,712.51 -424.74,716.04 -414.73,719.21 -332.77,745.21 -246.25,772.40 -239.09,774.64 -229.17,769.78" fill="none" stroke="#bcbcbc" stroke-width="8" stroke-linecap="round" stroke-linejoin="round" /><polyline points="-330.87,-119.08 -266.93,-177.83 -256.11,-187.77" fill="none" stroke="#bcbcbc" stroke-width="8" stroke-linecap="round" stroke-linejoin="round" /><polyline points="-1401.39,828.83 -1166.81,853.98" fill="none" stroke="#bcbcbc" stroke-width="8" stroke-linecap="round" stroke-linejoin="round" /><polyline points="-693.73,174.04 -644.43,156.41 -593.57,138.02 -561.97,125.74 -465.49,90.65 -437.49,80.96 -431.65,78.94 -424.63,76.53 -416.76,73.82 -415.80,73.49 -399.90,67.10 -392.99,64.32" fill="none" stroke="#bcbcbc" stroke-width="8" stroke-linecap="round" stroke-linejoin="round" /><polyline points="-362.58,1367.21 -316.16,1424.48 -287.75,1453.10 -275.44,1461.95 -258.03,1476.54 -241.67,1490.28 -227.61,1503.99 -227.27,1510.96" fill="none" stroke="#bcbcbc" stroke-width="8" stroke-linecap="round" stroke-linejoin="round" /><polyline points="-312.58,46.43 -294.39,0.83 -264.94,-74.25 -222.76,-181.81 -201.91,-232.76 -170.85,-308.74 -145.38,-370.98 -140.82,-379.24 -118.42,-415.86 -116.97,-418.23 -108.78,-434.35 -94.41,-456.48 -86.38,-468.84 -75.03,-486.31" fill="none" stroke="#bcbcbc" stroke-width="8" stroke-linecap="round" stroke-linejoin="round" /><polyline points="-741.75,1265.65 -744.73,1268.04 -746.70,1270.88 -750.71,1282.71 -753.48,1291.25 -766.30,1329.58 -768.07,1335.11 -769.16,1338.54 -780.93,1335.17 -809.57,1325.56 -837.96,1316.04 -859.89,1314.80" fill="none" stroke="#bcbcbc" stroke-width="8" stroke-linecap="round" stroke-linejoin="round" /><polyline points="-1302.69,1532.36 -1255.92,1411.55 -1250.71,1398.40 -1246.04,1385.74 -1240.40,1370.43 -1233.48,1346.35 -1226.27,1316.43 -1223.32,1294.99 -1221.17,1279.41 -1218.14,1267.92 -1207.13,1181.53 -1194.27,1072.53 -1187.62,1020.56 -1180.19,959.51 -1166.81,853.98 -1164.69,836.04 -1151.16,725.67 -1151.15,719.53 -1148.16,686.78 -1139.54,617.61 -1137.37,605.55 -1135.12,598.78 -1131.59,591.33 -1128.16,585.54 -1120.59,577.35 -1113.82,575.02" fill="none" stroke="#bcbcbc" stroke-width="8" stroke-linecap="round" stroke-linejoin="round" /><polyline points="-281.51,614.80 -278.95,618.86 -270.37,632.25 -257.53,652.84 -254.44,657.75 -249.31,653.86 -224.47,635.00" fill="none" stroke="#bcbcbc" stroke-width="8" stroke-linecap="round" stroke-linejoin="round" /><polyline points="-264.94,-74.25 -12.20,-28.55 14.34,-14.58 113.36,34.51 122.09,31.81" fill="none" stroke="#bcbcbc" stroke-width="8" stroke-linecap="round" stroke-linejoin="round" /><polyline points="-747.46,498.44 -751.94,504.98 -792.26,524.66 -821.88,562.30 -853.83,582.09 -875.69,598.59 -896.54,615.60 -907.23,625.35 -926.11,649.30 -947.23,679.57 -950.71,685.18" fill="none" stroke="#bcbcbc" stroke-width="8" stroke-linecap="round" stroke-linejoin="round" /><polyline points="-704.83,525.44 -706.58,529.33 -710.40,534.92 -717.62,543.81 -760.22,597.61 -782.75,658.31 -896.49,615.56" fill="none" stroke="#bcbcbc" stroke-width="8" stroke-linecap="round" stroke-linejoin="round" /><polyline points="-875.69,598.59 -880.09,585.26 -899.13,527.63 -906.51,516.24 -918.88,479.14 -919.95,475.93 -918.13,470.13 -921.09,460.67 -980.56,270.77" fill="none" stroke="#bcbcbc" stroke-width="8" stroke-linecap="round" stroke-linejoin="round" /><polyline points="-178.83,-437.57 -131.83,-436.33 -129.63,-436.27 -120.63,-436.02 -108.78,-434.35" fill="none" stroke="#bcbcbc" stroke-width="8" stroke-linecap="round" stroke-linejoin="round" /><polyline points="-420.59,1093.61 -436.64,1093.41 -572.53,1111.65 -582.32,1112.69 -593.52,1113.87 -658.55,1120.73 -746.16,1129.99 -792.60,1134.88 -818.30,1137.59 -839.16,1140.13 -849.87,1141.43 -861.93,1142.90 -920.22,1149.98 -934.19,1151.68 -977.23,1156.39 -1207.13,1181.53" fill="none" stroke="#bcbcbc" stroke-width="8" stroke-linecap="round" stroke-linejoin="round" /><polyline points="-621.78,1565.45 -633.82,1561.58 -690.05,1543.48 -701.41,1539.82 -711.28,1536.65 -770.85,1517.50 -782.59,1513.72 -798.13,1508.72 -892.96,1478.20 -903.63,1474.77" fill="none" stroke="#bcbcbc" stroke-width="8" stroke-linecap="round" stroke-linejoin="round" /><polyline points="-386.67,426.99 -353.97,437.18 -234.37,474.11 -233.25,474.46 -224.38,475.01" fill="none" stroke="#bcbcbc" stroke-width="8" stroke-linecap="round" stroke-linejoin="round" /><polyline points="-50.14,157.62 112.55,160.48" fill="none" stroke="#bcbcbc" stroke-width="8" stroke-linecap="round" stroke-linejoin="round" /><polyline points="-129.81,1587.08 -153.07,1559.44 -162.82,1548.08 -171.21,1540.25 -182.37,1531.91 -205.19,1518.22 -227.27,1510.96 -272.19,1497.09 -308.93,1485.43 -287.75,1453.10" fill="none" stroke="#bcbcbc" stroke-width="8" stroke-linecap="round" stroke-linejoin="round" /><polyline points="-362.58,1367.21 -394.97,1327.24 -401.13,1319.63 -433.75,1274.69 -441.13,1260.97 -439.36,1244.63 -429.52,1244.54 -405.26,1249.21 -368.35,1256.31" fill="none" stroke="#bcbcbc" stroke-width="8" stroke-linecap="round" stroke-linejoin="round" /><polyline points="-786.23,1046.92 -780.26,1059.77 -746.16,1129.99 -695.44,1234.39 -688.97,1247.71" fill="none" stroke="#bcbcbc" stroke-width="8" stroke-linecap="round" stroke-linejoin="round" /><polyline points="-1332.52,1364.96 -1320.32,1369.94 -1263.18,1393.30 -1250.71,1398.40 -1237.59,1403.77 -1170.32,1431.28 -1158.15,1436.25" fill="none" stroke="#bcbcbc" stroke-width="8" stroke-linecap="round" stroke-linejoin="round" /><polyline points="-758.16,942.81 -639.13,994.89" fill="none" stroke="#bcbcbc" stroke-width="8" stroke-linecap="round" stroke-linejoin="round" /><polyline points="-224.38,475.01 -206.25,475.97 -205.09,476.99 -196.96,484.21 -185.00,494.88 -182.79,499.18 -141.58,535.27 -138.54,541.03 -109.56,566.60 -102.26,568.83 -79.72,588.57 -74.67,590.88 -40.68,619.72 -33.11,626.43 -28.93,633.07" fill="none" stroke="#bcbcbc" stroke-width="8" stroke-linecap="round" stroke-linejoin="round" /><polyline points="-1366.11,942.93 -1180.19,959.51" fill="none" stroke="#bcbcbc" stroke-width="8" stroke-linecap="round" stroke-linejoin="round" /><polyline points="-950.99,1635.27 -945.23,1623.00 -943.75,1617.55 -935.68,1587.78 -906.43,1484.65 -903.63,1474.77 -900.67,1463.94 -887.42,1415.49 -865.05,1333.66 -859.89,1314.80" fill="none" stroke="#bcbcbc" stroke-width="8" stroke-linecap="round" stroke-linejoin="round" /><polyline points="-786.23,1046.92 -758.16,942.81 -817.68,921.99 -833.26,931.19 -840.37,936.59 -845.63,943.71 -849.33,953.10 -863.02,1003.70 -851.97,1009.32 -840.82,1012.03 -816.15,1018.45 -797.69,1024.33 -786.23,1046.92" fill="none" stroke="#bcbcbc" stroke-width="8" stroke-linecap="round" stroke-linejoin="round" /><polyline points="-863.02,1003.70 -876.05,1001.88 -1180.19,959.51" fill="none" stroke="#bcbcbc" stroke-width="8" stroke-linecap="round" stroke-linejoin="round" /><polyline points="-368.35,1256.31 -340.14,1262.47 -263.84,1286.72 -242.51,1293.47 -191.87,1308.10 -140.87,1322.81 -103.10,1333.72 -42.71,1351.16 -30.23,1354.76 0.25,1364.98 50.42,1378.35 54.85,1379.17" fill="none" stroke="#bcbcbc" stroke-width="8" stroke-linecap="round" stroke-linejoin="round" /><polyline points="-332.56,1697.09 -342.86,1699.67 -353.99,1730.69 -371.24,1725.79 -449.71,1699.05 -459.16,1697.03 -480.17,1695.53 -575.20,1695.91 -596.15,1693.24 -643.46,1686.00 -662.54,1682.91 -797.89,1661.08 -850.30,1652.71 -950.25,1635.40 -966.39,1632.20 -1191.96,1569.14 -1206.20,1565.16 -1302.69,1532.36 -1326.43,1523.94 -1385.73,1499.36 -1419.53,1486.58" fill="none" stroke="#bcbcbc" stroke-width="8" stroke-linecap="round" stroke-linejoin="round" /><polyline points="-125.83,29.14 -135.60,27.13 -265.97,42.54 -312.58,46.43" fill="none" stroke="#bcbcbc" stroke-width="8" stroke-linecap="round" stroke-linejoin="round" /><polyline points="-368.35,1256.31 -363.78,1248.66 -336.42,1178.40 -305.85,1072.15 -298.05,1049.26 -293.88,1043.03 -264.37,948.29 -262.90,936.98 -261.79,929.59" fill="none" stroke="#bcbcbc" stroke-width="8" stroke-linecap="round" stroke-linejoin="round" /><polyline points="-233.99,229.95 -230.87,228.76 -226.65,225.41 -220.24,217.90 -136.99,98.45 -114.82,66.86" fill="none" stroke="#bcbcbc" stroke-width="8" stroke-linecap="round" stroke-linejoin="round" /><polyline points="136.51,668.75 138.22,663.85 180.06,614.61 183.13,612.98 190.40,603.03 214.74,575.07 222.32,568.10" fill="none" stroke="#bcbcbc" stroke-width="8" stroke-linecap="round" stroke-linejoin="round" /><polyline points="173.08,1034.11 172.50,1027.52 172.05,1022.43 169.85,1012.68 167.21,1006.32 163.92,989.63 163.63,983.58 161.40,970.06 151.44,964.86 143.48,967.90 129.23,971.32 117.95,973.08 107.14,975.69 92.20,979.09 85.39,980.65" fill="none" stroke="#bcbcbc" stroke-width="8" stroke-linecap="round" stroke-linejoin="round" /><polyline points="-926.30,792.32 -895.87,720.98 -894.18,716.34" fill="none" stroke="#bcbcbc" stroke-width="8" stroke-linecap="round" stroke-linejoin="round" /><polyline points="-124.28,661.50 -109.61,655.82 -101.94,652.85 -96.01,646.84 -71.56,640.82 -63.35,642.91 -45.65,638.35 -32.15,634.87 -28.93,633.07 -15.84,629.87 51.10,613.46 66.27,608.93" fill="none" stroke="#bcbcbc" stroke-width="8" stroke-linecap="round" stroke-linejoin="round" /><polyline points="-741.75,1265.65 -710.17,1254.19 -699.61,1250.96 -688.97,1247.71 -669.35,1241.72 -654.08,1239.52 -601.94,1233.81 -591.46,1233.24 -544.81,1233.64 -516.39,1233.88 -505.70,1233.34 -488.59,1235.07 -483.23,1235.84 -472.32,1237.40 -439.36,1244.63" fill="none" stroke="#bcbcbc" stroke-width="8" stroke-linecap="round" stroke-linejoin="round" /><polyline points="-591.29,328.09 -596.52,310.40 -615.95,244.70 -639.55,169.78 -644.43,156.41 -649.37,143.88 -655.63,125.81" fill="none" stroke="#bcbcbc" stroke-width="8" stroke-linecap="round" stroke-linejoin="round" /><polyline points="-647.80,1387.45 -643.66,1374.34 -601.67,1241.96 -601.94,1233.81" fill="none" stroke="#bcbcbc" stroke-width="8" stroke-linecap="round" stroke-linejoin="round" /><polyline points="-591.46,1233.24 -583.15,1121.78 -582.32,1112.69 -581.05,1102.11 -581.03,1101.63 -580.48,1088.70 -577.71,1053.62 -576.14,1037.27 -574.01,1018.71 -572.06,1005.35 -570.31,996.95 -568.11,990.61 -563.79,976.31 -554.87,946.56 -543.53,908.14 -531.03,868.85 -528.48,860.84 -526.44,855.03" fill="none" stroke="#bcbcbc" stroke-width="8" stroke-linecap="round" stroke-linejoin="round" /><polyline points="-863.02,1003.70 -865.23,1013.57 -864.85,1016.73 -851.30,1129.49 -849.87,1141.43 -850.49,1153.72 -854.04,1223.85 -855.52,1253.15 -856.29,1268.27 -857.65,1295.20 -858.36,1309.23 -859.89,1314.80" fill="none" stroke="#bcbcbc" stroke-width="8" stroke-linecap="round" stroke-linejoin="round" /><polyline points="-926.30,792.32 -975.55,777.69 -981.80,773.67 -1012.45,764.74 -1021.06,764.83 -1059.57,753.23 -1065.79,748.64 -1100.83,738.02 -1143.82,726.30 -1144.03,726.28 -1151.16,725.67" fill="none" stroke="#bcbcbc" stroke-width="8" stroke-linecap="round" stroke-linejoin="round" /><polyline points="-28.93,633.07 -27.22,635.32 -20.08,645.96 -6.88,665.64 5.54,678.09 29.43,704.90 25.39,729.68 23.34,738.98 20.49,742.91 26.48,751.77 35.74,770.83 54.26,806.56 63.38,824.15 69.05,839.96 71.61,847.30" fill="none" stroke="#bcbcbc" stroke-width="8" stroke-linecap="round" stroke-linejoin="round" /><polyline points="95.78,684.11 88.91,686.25 43.69,700.32 37.21,702.40 29.43,704.90" fill="none" stroke="#bcbcbc" stroke-width="8" stroke-linecap="round" stroke-linejoin="round" /><polyline points="-229.17,769.78 -215.03,765.19 -112.39,712.78 -98.65,706.07 -50.28,692.09 -3.37,678.90 5.54,678.09" fill="none" stroke="#bcbcbc" stroke-width="8" stroke-linecap="round" stroke-linejoin="round" /><polyline points="-217.99,834.66 -99.66,779.60 -94.68,776.30 -83.11,772.93 -4.26,749.99 7.70,745.41 20.49,742.91" fill="none" stroke="#bcbcbc" stroke-width="8" stroke-linecap="round" stroke-linejoin="round" /><polyline points="-242.13,-319.82 -194.23,-313.90 -189.42,-313.30 -170.85,-308.74" fill="none" stroke="#bcbcbc" stroke-width="8" stroke-linecap="round" stroke-linejoin="round" /><polyline points="167.20,167.20 175.69,165.43 207.44,180.98 211.62,185.12 271.20,285.98 272.77,298.21 280.51,304.67 279.28,309.13 279.09,316.40 280.17,326.56 295.95,391.42 297.34,436.34 299.55,508.07 303.27,604.61 288.15,646.68 278.42,672.32 264.21,708.46 260.09,718.92 257.42,721.84 253.12,749.80" fill="none" stroke="#bcbcbc" stroke-width="8" stroke-linecap="round" stroke-linejoin="round" /><polyline points="277.36,920.18 262.86,913.87 226.65,888.60 178.88,855.03 152.60,833.78 134.88,814.79" fill="none" stroke="#bcbcbc" stroke-width="8" stroke-linecap="round" stroke-linejoin="round" /><polyline points="-308.93,1485.43 -323.16,1480.91 -346.25,1473.59 -357.27,1470.10 -370.22,1465.99 -386.57,1460.81 -401.36,1456.12 -415.98,1451.48 -481.16,1430.80 -492.58,1427.17 -506.76,1422.68 -509.89,1421.69 -547.17,1411.84 -557.70,1409.29 -570.89,1406.10 -584.70,1402.75 -634.46,1390.69 -647.80,1387.45 -662.14,1382.47 -692.10,1372.06 -703.40,1368.14 -713.50,1364.86 -760.41,1348.18 -766.32,1344.66 -769.16,1338.54" fill="none" stroke="#bcbcbc" stroke-width="8" stroke-linecap="round" stroke-linejoin="round" /><polyline points="-94.68,776.30 -98.13,763.91 -108.43,726.98 -112.39,712.78 -118.12,702.16 -118.65,700.19 -122.02,687.69 -118.09,682.16 -122.81,666.40 -124.28,661.50" fill="none" stroke="#bcbcbc" stroke-width="8" stroke-linecap="round" stroke-linejoin="round" /><polyline points="-111.90,324.37 -102.11,319.76 -48.61,290.27 -18.03,270.60 3.53,255.89 8.30,252.34 25.65,240.28 43.64,226.99 55.03,218.70 68.61,208.77 115.80,187.47 121.92,187.80 130.87,183.57 167.20,167.20" fill="none" stroke="#bcbcbc" stroke-width="8" stroke-linecap="round" stroke-linejoin="round" /><polyline points="-704.83,525.44 -697.11,528.57 -692.01,530.14 -596.35,559.52 -581.74,564.01" fill="none" stroke="#bcbcbc" stroke-width="8" stroke-linecap="round" stroke-linejoin="round" /><polyline points="-1388.13,740.58 -1456.48,719.90" fill="none" stroke="#bcbcbc" stroke-width="8" stroke-linecap="round" stroke-linejoin="round" /><polyline points="-284.14,-223.28 -267.20,-201.81 -264.67,-198.61 -256.11,-187.77 -246.36,-186.63 -226.32,-184.27 -222.76,-181.81" fill="none" stroke="#bcbcbc" stroke-width="8" stroke-linecap="round" stroke-linejoin="round" /><polyline points="304.30,731.58 277.45,736.59 249.91,751.55 224.39,765.76 200.25,777.83 171.08,793.67 149.96,806.50 108.22,828.88 -54.72,910.86 -96.96,929.46 -124.87,941.54 -138.70,946.06 -150.14,948.20 -168.87,949.33 -195.53,945.56 -262.04,929.59 -356.46,907.59 -480.67,870.12 -526.44,855.03 -601.37,831.89 -673.03,808.26 -778.14,767.01 -830.69,744.38 -894.05,716.22 -999.16,658.63 -1023.80,642.29 -1086.16,603.06 -1112.31,576.91 -1151.54,526.11 -1216.16,459.48 -1241.56,437.10" fill="none" stroke="#bcbcbc" stroke-width="8" stroke-linecap="round" stroke-linejoin="round" /><polyline points="-205.19,1518.22 -204.09,1512.08 -200.11,1502.05 -162.84,1414.83 -148.76,1382.13 -132.16,1341.39 -128.12,1326.48" fill="none" stroke="#bcbcbc" stroke-width="8" stroke-linecap="round" stroke-linejoin="round" /><polyline points="-920.22,1149.98 -962.56,1129.49 -1058.90,1082.86 -1177.07,1025.66 -1187.62,1020.56" fill="none" stroke="#bcbcbc" stroke-width="8" stroke-linecap="round" stroke-linejoin="round" /><polyline points="-224.38,475.01 -213.69,464.07 -185.26,434.96 -162.70,410.33" fill="none" stroke="#bcbcbc" stroke-width="8" stroke-linecap="round" stroke-linejoin="round" /><polyline points="-1045.21,539.85 -1056.95,524.30 -1111.99,451.42 -1190.55,387.84" fill="none" stroke="#bcbcbc" stroke-width="8" stroke-linecap="round" stroke-linejoin="round" /><polyline points="-1386.15,1499.18 -1375.41,1473.70 -1341.25,1388.54 -1337.11,1377.36 -1332.52,1364.96 -1330.77,1360.48 -1330.31,1353.47 -1325.94,1287.26 -1324.68,1268.27" fill="none" stroke="#bcbcbc" stroke-width="8" stroke-linecap="round" stroke-linejoin="round" /><polyline points="-1409.46,814.55 -1388.13,740.58 -1360.00,643.02 -1356.51,630.94 -1352.64,617.23 -1343.97,586.51 -1343.06,583.28 -1340.58,573.40 -1336.62,562.24 -1335.66,559.54 -1330.66,547.14 -1320.84,525.48 -1317.90,519.26" fill="none" stroke="#bcbcbc" stroke-width="8" stroke-linecap="round" stroke-linejoin="round" /><polyline points="-1356.51,630.94 -1313.36,641.98 -1221.96,665.48 -1169.89,681.69 -1148.16,686.78" fill="none" stroke="#bcbcbc" stroke-width="8" stroke-linecap="round" stroke-linejoin="round" /><polyline points="-468.31,295.32 -466.84,286.34 -465.37,277.02 -459.04,245.83 -443.22,173.23 -430.23,108.29 -427.86,94.82 -424.63,76.53 -424.63,76.51" fill="none" stroke="#bcbcbc" stroke-width="8" stroke-linecap="round" stroke-linejoin="round" /><polyline points="-596.07,1693.25 -576.80,1644.11 -574.41,1635.28 -497.95,1441.18 -492.58,1427.17 -488.23,1415.30 -442.54,1282.37 -433.75,1274.69" fill="none" stroke="#bcbcbc" stroke-width="8" stroke-linecap="round" stroke-linejoin="round" /><polyline points="-333.98,257.75 -333.99,257.73 -336.70,243.51 -337.12,241.79 -343.73,214.92 -343.72,214.84 -348.22,196.63 -367.30,131.23 -369.71,124.23 -382.59,89.20 -386.78,78.74 -389.48,72.00 -392.99,64.33 -392.99,64.32 -393.00,64.29 -395.55,36.13 -395.80,22.30" fill="none" stroke="#bcbcbc" stroke-width="8" stroke-linecap="round" stroke-linejoin="round" /><polyline points="-362.58,1367.21 -367.49,1372.52 -374.80,1381.22 -395.40,1439.30 -401.36,1456.12" fill="none" stroke="#bcbcbc" stroke-width="8" stroke-linecap="round" stroke-linejoin="round" /><polyline points="-704.83,525.44 -702.01,517.82 -701.38,516.04 -688.00,478.68 -682.98,462.94 -641.99,342.38" fill="none" stroke="#bcbcbc" stroke-width="8" stroke-linecap="round" stroke-linejoin="round" /><polyline points="-492.75,694.46 -488.57,683.35 -477.24,653.25 -472.45,640.53 -469.21,631.92 -460.12,607.77 -454.11,591.81 -453.30,589.67 -438.75,551.02 -432.67,552.90 -429.38,543.93 -423.55,528.06 -424.66,520.85 -409.18,478.71 -407.60,474.38 -404.66,471.68 -402.19,469.42 -386.67,426.99 -384.43,415.37 -362.16,353.49 -356.89,349.37 -346.18,319.06 -348.08,314.41 -338.70,286.10 -343.57,260.83" fill="none" stroke="#bcbcbc" stroke-width="8" stroke-linecap="round" stroke-linejoin="round" /><polyline points="-94.41,-456.48 -100.65,-466.72 -133.43,-520.51" fill="none" stroke="#bcbcbc" stroke-width="8" stroke-linecap="round" stroke-linejoin="round" /><polyline points="8.30,252.34 158.76,349.11 158.81,349.17 158.81,349.19 186.64,352.80" fill="none" stroke="#bcbcbc" stroke-width="8" stroke-linecap="round" stroke-linejoin="round" /><polyline points="-52.05,50.21 108.05,130.57 112.88,134.17 112.55,160.48 115.80,187.47" fill="none" stroke="#bcbcbc" stroke-width="8" stroke-linecap="round" stroke-linejoin="round" /><polyline points="-357.27,1470.10 -363.03,1487.67 -386.36,1558.81 -426.03,1678.63 -428.85,1687.13 -431.70,1695.74 -432.50,1704.91" fill="none" stroke="#bcbcbc" stroke-width="8" stroke-linecap="round" stroke-linejoin="round" /><polyline points="93.42,1037.91 94.38,1028.98 94.58,1020.65 94.51,1020.36 88.84,995.84 86.51,985.59 85.39,980.65 84.25,975.60 78.02,948.16 65.85,893.33 57.01,860.37 55.76,855.27" fill="none" stroke="#bcbcbc" stroke-width="8" stroke-linecap="round" stroke-linejoin="round" /><polyline points="-701.41,1539.82 -697.45,1528.54 -652.87,1401.83 -647.80,1387.45" fill="none" stroke="#bcbcbc" stroke-width="8" stroke-linecap="round" stroke-linejoin="round" /><polyline points="299.56,508.07 286.44,504.37 197.37,367.68 186.64,352.80" fill="none" stroke="#bcbcbc" stroke-width="8" stroke-linecap="round" stroke-linejoin="round" /><polyline points="-1164.69,836.04 -840.06,913.81 -817.68,921.99" fill="none" stroke="#bcbcbc" stroke-width="8" stroke-linecap="round" stroke-linejoin="round" /><polyline points="-140.82,-379.24 -14.37,-332.39 3.43,-335.43" fill="none" stroke="#bcbcbc" stroke-width="8" stroke-linecap="round" stroke-linejoin="round" />
    <polyline points="167.20,167.20 170.21,183.19 189.60,318.88 186.64,352.80" fill="none" stroke="#ffffff" stroke-width="16" stroke-linecap="round" stroke-linejoin="round" />
    <polyline points="167.20,167.20 170.21,183.19 189.60,318.88 186.64,352.80" fill="none" stroke="#111111" stroke-width="9" stroke-linecap="round" stroke-linejoin="round" />
    
            <g transform="translate(167.20,167.20)">
              <circle r="19" fill="#ffffff" stroke="#111111" stroke-width="4" />
              <text text-anchor="middle" dominant-baseline="central" font-family="Helvetica, Arial, sans-serif"
                font-size="18" font-weight="700" fill="#111111">1</text>
            </g>
            
            <g transform="translate(186.64,352.80)">
              <circle r="19" fill="#ffffff" stroke="#111111" stroke-width="4" />
              <text text-anchor="middle" dominant-baseline="central" font-family="Helvetica, Arial, sans-serif"
                font-size="18" font-weight="700" fill="#111111">2</text>
            </g>
            
  </g>
</svg>
