<svg xmlns="http://www.w3.org/2000/svg" width="520" height="520" viewBox="0 0 520 520">
  <rect width="100%" height="100%" fill="#ffffff" />
  <g>
    <polyline points="374.56,-241.90 376.14,-233.49 386.35,-162.13 384.79,-144.29" fill="none" stroke="#bcbcbc" stroke-width="8" stroke-linecap="round" stroke-linejoin="round" /><polyline points="-59.79,259.60 -60.32,253.58 -49.58,193.41 -48.07,185.89 -46.94,181.95 -43.99,166.69 -40.66,148.01 -37.04,131.56 -33.45,115.15 -31.19,110.52 -29.71,107.69" fill="none" stroke="#bcbcbc" stroke-width="8" stroke-linecap="round" stroke-linejoin="round" /><polyline points="2.57,-164.82 0.02,-172.61 -26.38,-253.13 -27.67,-256.50" fill="none" stroke="#bcbcbc" stroke-width="8" stroke-linecap="round" stroke-linejoin="round" /><polyline points="-132.90,543.82 -132.11,536.13 -131.79,532.61 -128.92,500.82 -125.77,472.83 -125.04,466.29 -124.35,458.45 -124.28,457.79 -122.49,442.20 -120.96,426.35 -119.26,411.06 -118.12,399.15 -117.65,391.80 -117.23,385.02 -116.48,377.37" fill="none" stroke="#bcbcbc" stroke-width="8" stroke-linecap="round" stroke-linejoin="round" /><polyline points="231.90,371.48 233.79,365.57 247.03,323.93 248.54,319.19 250.68,312.45 252.21,307.62 263.94,257.05" fill="none" stroke="#bcbcbc" stroke-width="8" stroke-linecap="round" stroke-linejoin="round" /><polyline points="180.41,-452.26 185.30,-451.51 320.12,-430.80" fill="none" stroke="#bcbcbc" stroke-width="8" stroke-linecap="round" stroke-linejoin="round" /><polyline points="-165.70,361.67 -179.73,361.02 -188.29,360.62 -192.93,360.40 -197.01,360.21 -228.79,358.73 -272.99,356.68 -294.05,353.69 -301.10,352.69 -307.22,351.61 -348.66,344.30 -354.45,343.28 -355.73,343.06 -362.89,341.83 -368.38,340.89 -403.49,337.79 -410.18,337.19 -412.63,336.98 -420.22,336.45 -435.09,335.42" fill="none" stroke="#bcbcbc" stroke-width="8" stroke-linecap="round" stroke-linejoin="round" /><polyline points="38.17,320.96 40.89,313.22 65.38,245.33 94.84,159.70 96.73,154.33 98.05,150.58 99.11,147.50" fill="none" stroke="#bcbcbc" stroke-width="8" stroke-linecap="round" stroke-linejoin="round" /><polyline points="-412.63,336.98 -413.26,332.61 -413.41,327.87 -412.48,318.32 -410.34,300.89 -408.92,295.04 -406.61,273.89 -406.19,269.17 -405.52,263.12 -405.02,258.62 -404.07,253.52 -402.31,239.80 -401.10,229.30 -399.31,225.01" fill="none" stroke="#bcbcbc" stroke-width="8" stroke-linecap="round" stroke-linejoin="round" /><polyline points="-437.70,219.64 -405.03,224.21 -399.31,225.01 -395.76,225.57 -381.12,227.91 -347.37,233.28 -341.58,234.25" fill="none" stroke="#bcbcbc" stroke-width="8" stroke-linecap="round" stroke-linejoin="round" /><polyline points="163.53,-208.90 163.75,-205.93 164.18,-202.92 165.25,-200.62 167.23,-198.05 170.91,-194.71 179.61,-189.41 246.78,-147.27 288.15,-91.81 319.40,-14.70 321.44,-9.61" fill="none" stroke="#bcbcbc" stroke-width="8" stroke-linecap="round" stroke-linejoin="round" /><polyline points="152.78,16.10 154.17,18.40 154.53,19.00 155.68,24.82 163.57,62.92 166.07,75.02 167.86,83.63 170.65,101.09 171.95,109.14 172.85,114.06 173.83,118.49 175.01,121.08 176.73,124.08 177.66,125.49 195.11,150.48 204.55,165.34 207.01,168.90" fill="none" stroke="#bcbcbc" stroke-width="8" stroke-linecap="round" stroke-linejoin="round" /><polyline points="-348.26,493.23 -347.33,487.51 -346.47,483.38 -346.24,482.83 -334.62,455.21 -327.22,437.26 -324.97,431.57 -322.59,425.55 -320.00,420.37 -319.58,419.35 -316.04,410.79 -313.30,403.22 -310.95,396.27 -309.46,391.36 -307.79,385.29 -305.86,377.15 -304.40,370.55 -302.65,361.34 -302.28,359.28 -301.10,352.69" fill="none" stroke="#bcbcbc" stroke-width="8" stroke-linecap="round" stroke-linejoin="round" /><polyline points="214.56,-278.06 251.60,-252.18 256.59,-251.12 260.24,-246.94" fill="none" stroke="#bcbcbc" stroke-width="8" stroke-linecap="round" stroke-linejoin="round" /><polyline points="59.03,-39.04 63.92,-37.16 85.17,-30.21 134.47,-11.30 137.24,-8.55 138.54,-6.49" fill="none" stroke="#bcbcbc" stroke-width="8" stroke-linecap="round" stroke-linejoin="round" /><polyline points="150.89,446.73 154.25,437.99 170.82,393.02 182.54,359.05 184.97,357.94" fill="none" stroke="#bcbcbc" stroke-width="8" stroke-linecap="round" stroke-linejoin="round" /><polyline points="-83.38,389.72 -80.76,383.94 -80.51,383.37 -76.03,368.36 -68.70,343.66 -66.82,337.34 -65.37,332.43 -65.17,329.56 -65.47,323.23" fill="none" stroke="#bcbcbc" stroke-width="8" stroke-linecap="round" stroke-linejoin="round" /><polyline points="221.24,18.07 217.04,18.94 207.52,17.24 206.04,13.32 189.55,7.03 185.64,8.05 170.76,2.58 168.54,4.13" fill="none" stroke="#bcbcbc" stroke-width="8" stroke-linecap="round" stroke-linejoin="round" /><polyline points="196.75,-492.22 204.22,-490.39 208.36,-489.67 306.70,-472.62" fill="none" stroke="#bcbcbc" stroke-width="8" stroke-linecap="round" stroke-linejoin="round" /><polyline points="120.31,419.35 124.40,407.82 132.35,385.41 137.49,375.86 144.88,355.16 147.83,346.90" fill="none" stroke="#bcbcbc" stroke-width="8" stroke-linecap="round" stroke-linejoin="round" /><polyline points="-418.54,-28.26 -425.67,-28.59 -427.45,-26.42 -439.86,-11.34 -483.24,38.76 -489.34,45.81" fill="none" stroke="#bcbcbc" stroke-width="8" stroke-linecap="round" stroke-linejoin="round" /><polyline points="-38.05,14.65 -41.20,21.61 -41.58,22.45 -52.50,50.94 -63.51,82.30 -66.45,90.66 -68.11,94.98" fill="none" stroke="#bcbcbc" stroke-width="8" stroke-linecap="round" stroke-linejoin="round" /><polyline points="122.19,-305.42 125.66,-300.71 128.14,-294.24 132.00,-284.95 138.19,-270.33 143.67,-257.21 149.96,-242.80 154.63,-231.70 155.32,-230.11 155.36,-230.01 159.12,-221.23 160.24,-218.73 161.31,-216.35 162.44,-214.13 163.29,-211.87 163.53,-208.90" fill="none" stroke="#bcbcbc" stroke-width="8" stroke-linecap="round" stroke-linejoin="round" /><polyline points="-143.49,155.07 -141.68,154.08 -139.14,152.06 -137.86,149.44 -120.99,85.44 -120.48,81.84 -118.42,75.24" fill="none" stroke="#bcbcbc" stroke-width="8" stroke-linecap="round" stroke-linejoin="round" /><polyline points="446.68,54.93 449.07,62.53 450.76,70.51 447.48,100.92 443.69,123.80 441.61,131.61 441.43,132.32 439.61,136.53 437.14,140.99 431.37,148.30 434.16,162.58 425.12,193.22 420.12,210.15 409.90,237.86 394.94,271.59 376.67,303.92 370.96,314.42 360.65,331.68 319.43,390.18 310.40,402.35 275.43,448.04 255.36,470.88 227.28,499.42 224.68,499.69 218.33,504.87" fill="none" stroke="#bcbcbc" stroke-width="8" stroke-linecap="round" stroke-linejoin="round" /><polyline points="-61.89,555.27 -50.38,519.59 -48.50,513.70 -45.94,509.99 -40.45,493.50 -38.66,487.89 -15.96,416.83 -13.68,409.69 -11.80,403.41 14.99,319.11" fill="none" stroke="#bcbcbc" stroke-width="8" stroke-linecap="round" stroke-linejoin="round" /><polyline points="207.63,-108.28 217.58,-119.15 220.51,-122.69 240.61,-151.15" fill="none" stroke="#bcbcbc" stroke-width="8" stroke-linecap="round" stroke-linejoin="round" /><polyline points="8.84,-103.98 36.23,-94.44 37.74,-91.99 45.52,-89.38 50.14,-87.80 72.21,-80.34" fill="none" stroke="#bcbcbc" stroke-width="8" stroke-linecap="round" stroke-linejoin="round" /><polyline points="247.57,-293.50 260.24,-246.94 274.90,-192.09 277.13,-187.52 277.48,-182.30 287.43,-163.73 314.26,-113.69 320.13,-105.03 321.83,-102.50 361.93,-27.54 380.36,-10.79 382.94,-7.45 386.59,-4.33 421.58,25.58 423.95,27.61 430.23,30.95" fill="none" stroke="#bcbcbc" stroke-width="8" stroke-linecap="round" stroke-linejoin="round" /><polyline points="111.49,562.84 198.75,512.16 214.28,504.21 218.33,504.87" fill="none" stroke="#bcbcbc" stroke-width="8" stroke-linecap="round" stroke-linejoin="round" /><polyline points="206.10,490.33 211.51,483.90 260.12,386.92 263.34,380.56 266.03,374.26 281.73,335.44 286.41,323.74 299.94,282.79 308.71,230.14 309.75,222.47" fill="none" stroke="#bcbcbc" stroke-width="8" stroke-linecap="round" stroke-linejoin="round" /><polyline points="168.59,-80.01 167.74,-79.14 166.57,-75.06 166.45,-74.65 161.17,-54.34 162.56,-49.04 161.41,-44.29 159.90,-38.06 156.04,-33.59 151.66,-15.85 146.50,-11.95 140.99,-8.17 138.54,-6.49" fill="none" stroke="#bcbcbc" stroke-width="8" stroke-linecap="round" stroke-linejoin="round" /><polyline points="-38.05,14.65 -35.81,8.90 -22.32,-25.67 -19.38,-33.20 -16.96,-39.41 0.27,-83.55 8.03,-102.01 8.84,-103.98 14.87,-118.55 28.40,-152.14 33.35,-166.44 34.45,-169.71 35.94,-173.43" fill="none" stroke="#bcbcbc" stroke-width="8" stroke-linecap="round" stroke-linejoin="round" /><polyline points="112.84,-194.89 115.45,-187.13 201.03,-114.03 247.73,-73.41 317.48,-12.77 323.57,-7.91 326.29,-6.20 338.40,4.79 354.56,18.57 391.22,49.83 403.07,60.01 410.92,69.41" fill="none" stroke="#bcbcbc" stroke-width="8" stroke-linecap="round" stroke-linejoin="round" /><polyline points="254.34,-320.84 258.68,-323.62 284.40,-334.31 289.68,-339.87" fill="none" stroke="#bcbcbc" stroke-width="8" stroke-linecap="round" stroke-linejoin="round" /><polyline points="284.04,329.66 248.54,319.19 184.28,300.29" fill="none" stroke="#bcbcbc" stroke-width="8" stroke-linecap="round" stroke-linejoin="round" /><polyline points="169.44,-425.46 174.29,-422.12 332.31,-386.96" fill="none" stroke="#bcbcbc" stroke-width="8" stroke-linecap="round" stroke-linejoin="round" /><polyline points="364.63,94.79 356.47,76.62 338.34,33.40 336.99,29.96 333.89,22.07 322.21,-7.65 321.47,-9.58" fill="none" stroke="#bcbcbc" stroke-width="8" stroke-linecap="round" stroke-linejoin="round" /><polyline points="122.19,-305.42 113.42,-307.92 106.97,-309.84 93.87,-313.73 87.21,-315.63 83.40,-316.69 78.42,-318.11" fill="none" stroke="#bcbcbc" stroke-width="8" stroke-linecap="round" stroke-linejoin="round" /><polyline points="-106.56,-67.69 -107.00,-69.14 -107.41,-70.16 -109.22,-74.65 -116.22,-90.98 -122.88,-107.57 -124.32,-111.49 -125.97,-116.00 -127.16,-119.69 -129.11,-125.22 -129.32,-125.80 -135.69,-141.50 -147.38,-171.00 -150.01,-172.50 -151.87,-177.28 -155.61,-190.24 -161.99,-206.30 -163.37,-209.95" fill="none" stroke="#bcbcbc" stroke-width="8" stroke-linecap="round" stroke-linejoin="round" /><polyline points="-50.38,519.59 -43.74,521.62 -22.26,528.17 -15.53,530.22" fill="none" stroke="#bcbcbc" stroke-width="8" stroke-linecap="round" stroke-linejoin="round" /><polyline points="350.83,-313.11 352.08,-318.17 351.57,-320.10 350.96,-322.42 347.04,-336.78 338.29,-367.16 333.68,-382.69 332.31,-386.96 320.12,-430.80 313.53,-454.44 306.70,-472.62 300.53,-489.02 294.39,-500.30 288.42,-506.26 242.59,-562.25 239.20,-566.24 236.95,-569.92" fill="none" stroke="#bcbcbc" stroke-width="8" stroke-linecap="round" stroke-linejoin="round" /><polyline points="163.53,-208.90 161.17,-208.00 156.80,-206.79 156.36,-206.67 138.11,-202.00 117.13,-196.09 112.84,-194.89 110.93,-194.28 105.89,-192.66 101.58,-191.46 82.77,-186.23 51.82,-177.43 40.28,-174.52 35.94,-173.43 15.31,-168.37 2.57,-164.82 -24.41,-157.28 -51.08,-149.77 -54.16,-148.91 -76.45,-142.73 -86.73,-139.87 -91.92,-137.42 -101.75,-132.55 -121.27,-122.64 -122.63,-121.95 -127.16,-119.69 -129.92,-118.30 -133.78,-116.28 -147.49,-109.09 -172.47,-95.08 -193.34,-84.14 -196.33,-82.58 -200.32,-82.33 -202.71,-81.06 -203.19,-80.80 -225.83,-68.40 -230.57,-68.42 -236.02,-65.57 -237.92,-64.58 -239.52,-63.74 -243.30,-61.76 -246.29,-54.96 -259.10,-48.09 -263.17,-45.91 -267.58,-43.51 -285.41,-33.81 -294.63,-28.80 -299.27,-27.46" fill="none" stroke="#bcbcbc" stroke-width="8" stroke-linecap="round" stroke-linejoin="round" /><polyline points="420.12,210.15 410.61,211.02 380.89,213.74 379.55,213.87 377.66,214.04 374.59,214.32 345.77,216.97 335.75,216.04 324.08,218.96 314.73,221.25 309.75,222.47 297.38,222.94 286.68,222.40 281.22,221.82 276.57,220.41 273.15,218.52 260.41,209.51 229.45,188.25 226.53,186.27 223.56,184.26 221.34,182.11" fill="none" stroke="#bcbcbc" stroke-width="8" stroke-linecap="round" stroke-linejoin="round" /><polyline points="-281.05,-148.81 -269.81,-126.82 -268.11,-120.53 -258.65,-102.48 -254.74,-97.31 -238.93,-66.54 -237.92,-64.58" fill="none" stroke="#bcbcbc" stroke-width="8" stroke-linecap="round" stroke-linejoin="round" /><polyline points="63.20,46.75 61.52,51.38 61.04,52.81 58.85,59.46 44.95,98.24 38.05,117.49 37.82,118.15 35.05,124.13 33.46,127.69" fill="none" stroke="#bcbcbc" stroke-width="8" stroke-linecap="round" stroke-linejoin="round" /><polyline points="247.57,-293.50 246.03,-296.80 241.98,-297.33 228.88,-294.33 226.22,-294.67 224.13,-297.47 220.43,-314.51 240.50,-317.62 249.80,-320.36 254.34,-320.84 259.24,-303.43" fill="none" stroke="#bcbcbc" stroke-width="8" stroke-linecap="round" stroke-linejoin="round" /><polyline points="320.13,-105.03 325.30,-107.94 351.28,-123.59 358.22,-127.72 370.37,-134.97 390.36,-147.89 395.03,-151.25 430.09,-173.00" fill="none" stroke="#bcbcbc" stroke-width="8" stroke-linecap="round" stroke-linejoin="round" /><polyline points="442.70,-2.30 433.84,-4.94 428.68,-9.16 408.99,-26.21 408.32,-26.80 403.55,-31.05 400.76,-36.02 351.28,-123.59" fill="none" stroke="#bcbcbc" stroke-width="8" stroke-linecap="round" stroke-linejoin="round" /><polyline points="-115.68,-9.24 -38.05,14.65 -31.72,16.66 26.21,35.02 27.42,35.40 36.10,38.16 40.37,39.51 45.91,41.03 57.35,44.90 63.20,46.75 68.46,48.42 111.57,62.10 157.09,76.40 160.85,77.58 166.07,75.02" fill="none" stroke="#bcbcbc" stroke-width="8" stroke-linecap="round" stroke-linejoin="round" /><polyline points="112.58,-392.47 146.20,-423.37 151.90,-428.60" fill="none" stroke="#bcbcbc" stroke-width="8" stroke-linecap="round" stroke-linejoin="round" /><polyline points="-450.53,106.08 -327.14,119.30" fill="none" stroke="#bcbcbc" stroke-width="8" stroke-linecap="round" stroke-linejoin="round" /><polyline points="-78.30,-238.30 -52.36,-247.58 -25.61,-257.25 -8.99,-263.71 41.76,-282.16 56.49,-287.26 59.56,-288.32 63.25,-289.59 67.39,-291.01 67.90,-291.19 76.26,-294.55 79.90,-296.01" fill="none" stroke="#bcbcbc" stroke-width="8" stroke-linecap="round" stroke-linejoin="round" /><polyline points="95.89,389.23 120.31,419.35 135.26,434.40 141.73,439.06 150.89,446.73 159.49,453.96 166.89,461.17 167.07,464.84" fill="none" stroke="#bcbcbc" stroke-width="8" stroke-linecap="round" stroke-linejoin="round" /><polyline points="122.19,-305.42 131.76,-329.40 147.25,-368.89 169.44,-425.46 180.41,-452.26 196.75,-492.22 210.14,-524.95 212.54,-529.30 224.32,-548.56 225.08,-549.80 229.40,-558.28 236.95,-569.92 241.18,-576.42 247.15,-585.61" fill="none" stroke="#bcbcbc" stroke-width="8" stroke-linecap="round" stroke-linejoin="round" /><polyline points="-103.55,335.82 -105.12,337.07 -106.16,338.57 -108.27,344.79 -109.73,349.28 -116.47,369.44 -117.40,372.35 -117.97,374.15 -124.16,372.38 -139.23,367.33 -154.16,362.32 -165.70,361.67" fill="none" stroke="#bcbcbc" stroke-width="8" stroke-linecap="round" stroke-linejoin="round" /><polyline points="-398.61,476.09 -374.01,412.55 -371.27,405.64 -368.81,398.98 -365.85,390.93 -362.21,378.26 -358.41,362.53 -356.86,351.25 -355.73,343.06 -354.14,337.01 -348.35,291.58 -341.58,234.25 -338.08,206.91 -334.18,174.80 -327.14,119.30 -326.02,109.87 -318.91,51.82 -318.90,48.59 -317.33,31.37 -312.79,-5.01 -311.66,-11.36 -310.47,-14.92 -308.61,-18.84 -306.81,-21.88 -302.83,-26.19 -299.27,-27.41" fill="none" stroke="#bcbcbc" stroke-width="8" stroke-linecap="round" stroke-linejoin="round" /><polyline points="138.54,-6.49 139.88,-4.36 144.39,2.69 151.15,13.52 152.78,16.10 155.47,14.05 168.54,4.13" fill="none" stroke="#bcbcbc" stroke-width="8" stroke-linecap="round" stroke-linejoin="round" /><polyline points="147.25,-368.89 280.19,-344.86 294.16,-337.51 346.24,-311.69 350.83,-313.11" fill="none" stroke="#bcbcbc" stroke-width="8" stroke-linecap="round" stroke-linejoin="round" /><polyline points="-106.56,-67.69 -108.91,-64.25 -130.12,-53.90 -145.70,-34.10 -162.51,-23.70 -174.01,-15.01 -184.97,-6.07 -190.60,-0.94 -200.53,11.65 -211.64,27.57 -213.47,30.52" fill="none" stroke="#bcbcbc" stroke-width="8" stroke-linecap="round" stroke-linejoin="round" /><polyline points="-84.13,-53.49 -85.05,-51.44 -87.06,-48.51 -90.86,-43.83 -113.27,-15.53 -125.12,16.39 -184.95,-6.09" fill="none" stroke="#bcbcbc" stroke-width="8" stroke-linecap="round" stroke-linejoin="round" /><polyline points="-174.01,-15.01 -176.32,-22.03 -186.33,-52.34 -190.22,-58.33 -196.73,-77.84 -197.29,-79.53 -196.33,-82.58 -197.89,-87.55 -229.17,-187.43" fill="none" stroke="#bcbcbc" stroke-width="8" stroke-linecap="round" stroke-linejoin="round" /><polyline points="192.55,-559.98 217.27,-559.33 218.42,-559.29 223.16,-559.16 229.40,-558.28" fill="none" stroke="#bcbcbc" stroke-width="8" stroke-linecap="round" stroke-linejoin="round" /><polyline points="65.38,245.33 56.94,245.23 -14.54,254.83 -19.69,255.37 -25.58,255.99 -59.79,259.60 -105.87,264.47 -130.30,267.04 -143.82,268.47 -154.79,269.80 -160.42,270.49 -166.77,271.26 -197.43,274.98 -204.78,275.88 -227.42,278.35 -348.35,291.58" fill="none" stroke="#bcbcbc" stroke-width="8" stroke-linecap="round" stroke-linejoin="round" /><polyline points="-40.45,493.50 -46.78,491.46 -76.36,481.94 -82.34,480.01 -87.53,478.35 -118.86,468.28 -125.04,466.29 -133.21,463.66 -183.09,447.61 -188.70,445.80" fill="none" stroke="#bcbcbc" stroke-width="8" stroke-linecap="round" stroke-linejoin="round" /><polyline points="83.22,-105.27 100.42,-99.91 163.34,-80.48 163.92,-80.30 168.59,-80.01" fill="none" stroke="#bcbcbc" stroke-width="8" stroke-linecap="round" stroke-linejoin="round" /><polyline points="260.24,-246.94 345.82,-245.44" fill="none" stroke="#bcbcbc" stroke-width="8" stroke-linecap="round" stroke-linejoin="round" /><polyline points="218.33,504.87 206.10,490.33 200.97,484.36 196.56,480.24 190.68,475.86 178.68,468.66 167.07,464.84 143.44,457.54 124.12,451.41 135.26,434.40" fill="none" stroke="#bcbcbc" stroke-width="8" stroke-linecap="round" stroke-linejoin="round" /><polyline points="95.89,389.23 78.86,368.21 75.62,364.21 58.46,340.57 54.58,333.36 55.51,324.77 60.68,324.71 73.44,327.17 92.86,330.91" fill="none" stroke="#bcbcbc" stroke-width="8" stroke-linecap="round" stroke-linejoin="round" /><polyline points="-126.95,220.78 -123.81,227.54 -105.87,264.47 -79.19,319.38 -75.79,326.38" fill="none" stroke="#bcbcbc" stroke-width="8" stroke-linecap="round" stroke-linejoin="round" /><polyline points="-414.30,388.05 -407.88,390.67 -377.83,402.96 -371.27,405.64 -364.37,408.46 -328.99,422.93 -322.59,425.55" fill="none" stroke="#bcbcbc" stroke-width="8" stroke-linecap="round" stroke-linejoin="round" /><polyline points="-112.19,166.02 -49.58,193.41" fill="none" stroke="#bcbcbc" stroke-width="8" stroke-linecap="round" stroke-linejoin="round" /><polyline points="168.59,-80.01 178.12,-79.51 178.73,-78.97 183.01,-75.17 189.30,-69.56 190.46,-67.30 212.14,-48.32 213.74,-45.29 228.99,-31.84 232.82,-30.67 244.68,-20.29 247.34,-19.07 265.22,-3.91 269.20,-0.38 271.39,3.12" fill="none" stroke="#bcbcbc" stroke-width="8" stroke-linecap="round" stroke-linejoin="round" /><polyline points="-431.97,166.08 -334.18,174.80" fill="none" stroke="#bcbcbc" stroke-width="8" stroke-linecap="round" stroke-linejoin="round" /><polyline points="-213.62,530.22 -210.59,523.77 -209.81,520.90 -205.56,505.24 -190.18,451.00 -188.70,445.80 -187.15,440.11 -180.18,414.62 -168.41,371.59 -165.70,361.67" fill="none" stroke="#bcbcbc" stroke-width="8" stroke-linecap="round" stroke-linejoin="round" /><polyline points="-126.95,220.78 -112.19,166.02 -143.49,155.07 -151.69,159.91 -155.43,162.75 -158.19,166.49 -160.14,171.43 -167.34,198.05 -161.53,201.00 -155.66,202.43 -142.69,205.80 -132.98,208.90 -126.95,220.78" fill="none" stroke="#bcbcbc" stroke-width="8" stroke-linecap="round" stroke-linejoin="round" /><polyline points="-167.34,198.05 -174.20,197.09 -334.18,174.80" fill="none" stroke="#bcbcbc" stroke-width="8" stroke-linecap="round" stroke-linejoin="round" /><polyline points="92.86,330.91 107.70,334.15 147.83,346.90 159.05,350.45 185.69,358.14 212.52,365.88 232.38,371.62 264.15,380.79 270.71,382.69 286.74,388.06 313.14,395.09 315.46,395.52" fill="none" stroke="#bcbcbc" stroke-width="8" stroke-linecap="round" stroke-linejoin="round" /><polyline points="111.68,562.73 106.27,564.09 100.41,580.40 91.34,577.82 50.06,563.76 45.09,562.70 34.04,561.91 -15.95,562.11 -26.97,560.70 -51.85,556.90 -61.89,555.27 -133.08,543.79 -160.65,539.39 -213.23,530.28 -221.71,528.60 -340.37,495.44 -347.86,493.34 -398.61,476.09 -411.10,471.66 -442.29,458.74 -460.07,452.01" fill="none" stroke="#bcbcbc" stroke-width="8" stroke-linecap="round" stroke-linejoin="round" /><polyline points="220.43,-314.51 215.29,-315.57 146.71,-307.46 122.19,-305.42" fill="none" stroke="#bcbcbc" stroke-width="8" stroke-linecap="round" stroke-linejoin="round" /><polyline points="92.86,330.90 95.26,326.88 109.65,289.93 125.73,234.05 129.84,222.01 132.03,218.73 147.55,168.91 148.32,162.96 148.91,159.07" fill="none" stroke="#bcbcbc" stroke-width="8" stroke-linecap="round" stroke-linejoin="round" /><polyline points="163.53,-208.90 165.17,-209.53 167.39,-211.29 170.77,-215.23 214.56,-278.06 226.22,-294.67" fill="none" stroke="#bcbcbc" stroke-width="8" stroke-linecap="round" stroke-linejoin="round" /><polyline points="358.42,21.88 359.32,19.30 381.33,-6.59 382.94,-7.45 386.77,-12.68 399.57,-27.39 403.55,-31.05" fill="none" stroke="#bcbcbc" stroke-width="8" stroke-linecap="round" stroke-linejoin="round" /><polyline points="377.66,214.04 377.35,210.58 377.11,207.90 375.96,202.77 374.57,199.43 372.84,190.65 372.68,187.47 371.51,180.36 366.27,177.62 362.08,179.22 354.59,181.02 348.66,181.94 342.97,183.32 335.11,185.11 331.53,185.92" fill="none" stroke="#bcbcbc" stroke-width="8" stroke-linecap="round" stroke-linejoin="round" /><polyline points="-200.63,86.88 -184.62,49.35 -183.73,46.92" fill="none" stroke="#bcbcbc" stroke-width="8" stroke-linecap="round" stroke-linejoin="round" /><polyline points="221.24,18.07 228.96,15.08 232.99,13.52 236.11,10.36 248.97,7.19 253.29,8.29 262.60,5.89 269.70,4.06 271.39,3.12 278.28,1.43 313.49,-7.19 321.47,-9.58" fill="none" stroke="#bcbcbc" stroke-width="8" stroke-linecap="round" stroke-linejoin="round" /><polyline points="-103.55,335.82 -86.94,329.79 -81.39,328.09 -75.79,326.38 -65.47,323.23 -57.44,322.07 -30.01,319.07 -24.50,318.77 0.04,318.98 14.99,319.11 20.61,318.82 29.61,319.73 32.43,320.14 38.17,320.96 55.51,324.77" fill="none" stroke="#bcbcbc" stroke-width="8" stroke-linecap="round" stroke-linejoin="round" /><polyline points="-24.41,-157.28 -27.16,-166.59 -37.38,-201.14 -49.80,-240.54 -52.36,-247.58 -54.96,-254.17 -58.25,-263.67" fill="none" stroke="#bcbcbc" stroke-width="8" stroke-linecap="round" stroke-linejoin="round" /><polyline points="-54.14,399.88 -51.95,392.98 -29.87,323.36 -30.01,319.07" fill="none" stroke="#bcbcbc" stroke-width="8" stroke-linecap="round" stroke-linejoin="round" /><polyline points="-24.50,318.77 -20.13,260.15 -19.69,255.37 -19.02,249.81 -19.01,249.55 -18.72,242.75 -17.27,224.30 -16.44,215.71 -15.32,205.94 -14.29,198.91 -13.37,194.50 -12.22,191.16 -9.95,183.64 -5.26,167.99 0.71,147.79 7.29,127.12 8.63,122.91 9.70,119.86" fill="none" stroke="#bcbcbc" stroke-width="8" stroke-linecap="round" stroke-linejoin="round" /><polyline points="-167.34,198.05 -168.50,203.24 -168.30,204.90 -161.18,264.21 -160.42,270.49 -160.75,276.95 -162.62,313.83 -163.40,329.24 -163.80,337.19 -164.52,351.36 -164.89,358.74 -165.70,361.67" fill="none" stroke="#bcbcbc" stroke-width="8" stroke-linecap="round" stroke-linejoin="round" /><polyline points="-200.63,86.88 -226.53,79.18 -229.82,77.07 -245.94,72.37 -250.47,72.42 -270.73,66.32 -274.00,63.90 -292.43,58.32 -315.04,52.15 -315.15,52.14 -318.91,51.82" fill="none" stroke="#bcbcbc" stroke-width="8" stroke-linecap="round" stroke-linejoin="round" /><polyline points="271.39,3.12 272.29,4.30 276.05,9.90 282.99,20.25 289.53,26.79 302.09,40.90 299.97,53.93 298.89,58.82 297.39,60.89 300.54,65.55 305.42,75.57 315.16,94.36 319.95,103.61 322.93,111.93 324.28,115.79" fill="none" stroke="#bcbcbc" stroke-width="8" stroke-linecap="round" stroke-linejoin="round" /><polyline points="336.99,29.96 333.38,31.09 309.60,38.49 306.19,39.58 302.09,40.90" fill="none" stroke="#bcbcbc" stroke-width="8" stroke-linecap="round" stroke-linejoin="round" /><polyline points="166.07,75.02 173.51,72.61 227.49,45.04 234.72,41.51 260.17,34.16 284.84,27.22 289.53,26.79" fill="none" stroke="#bcbcbc" stroke-width="8" stroke-linecap="round" stroke-linejoin="round" /><polyline points="171.95,109.14 234.19,80.18 236.81,78.45 242.90,76.68 284.37,64.61 290.67,62.20 297.39,60.89" fill="none" stroke="#bcbcbc" stroke-width="8" stroke-linecap="round" stroke-linejoin="round" /><polyline points="159.25,-498.04 184.44,-494.93 186.98,-494.62 196.75,-492.22" fill="none" stroke="#bcbcbc" stroke-width="8" stroke-linecap="round" stroke-linejoin="round" /><polyline points="374.56,-241.90 379.03,-242.84 395.73,-234.65 397.93,-232.48 429.27,-179.43 430.09,-173.00 434.17,-169.60 433.52,-167.26 433.42,-163.43 433.98,-158.09 442.28,-123.98 443.02,-100.35 444.18,-62.63 446.13,-11.85 438.19,10.27 433.06,23.76 425.59,42.77 423.42,48.27 422.02,49.80 419.76,64.51" fill="none" stroke="#bcbcbc" stroke-width="8" stroke-linecap="round" stroke-linejoin="round" /><polyline points="432.51,154.12 424.88,150.80 405.84,137.51 380.71,119.86 366.88,108.68 357.56,98.69" fill="none" stroke="#bcbcbc" stroke-width="8" stroke-linecap="round" stroke-linejoin="round" /><polyline points="124.12,451.41 116.63,449.03 104.48,445.18 98.69,443.35 91.88,441.19 83.27,438.46 75.49,435.99 67.81,433.55 33.52,422.67 27.51,420.77 20.05,418.41 18.41,417.89 -1.20,412.71 -6.74,411.37 -13.68,409.69 -20.94,407.93 -47.12,401.58 -54.14,399.88 -61.68,397.26 -77.44,391.79 -83.38,389.72 -88.69,388.00 -113.37,379.22 -116.48,377.37 -117.97,374.15" fill="none" stroke="#bcbcbc" stroke-width="8" stroke-linecap="round" stroke-linejoin="round" /><polyline points="236.81,78.45 235.00,71.93 229.58,52.51 227.49,45.04 224.48,39.46 224.20,38.42 222.43,31.85 224.50,28.93 222.01,20.65 221.24,18.07" fill="none" stroke="#bcbcbc" stroke-width="8" stroke-linecap="round" stroke-linejoin="round" /><polyline points="227.76,-159.24 232.91,-161.66 261.04,-177.17 277.13,-187.52 288.47,-195.26 290.98,-197.12 300.11,-203.47 309.57,-210.46 315.56,-214.82 322.70,-220.04 347.53,-231.24 350.74,-231.07 355.45,-233.29 374.56,-241.90" fill="none" stroke="#bcbcbc" stroke-width="8" stroke-linecap="round" stroke-linejoin="round" /><polyline points="-84.13,-53.49 -80.07,-51.84 -77.39,-51.02 -27.07,-35.56 -19.38,-33.20" fill="none" stroke="#bcbcbc" stroke-width="8" stroke-linecap="round" stroke-linejoin="round" /><polyline points="-443.56,59.66 -479.51,48.78" fill="none" stroke="#bcbcbc" stroke-width="8" stroke-linecap="round" stroke-linejoin="round" /><polyline points="137.15,-447.27 146.07,-435.98 147.40,-434.30 151.90,-428.60 157.02,-427.99 167.57,-426.76 169.44,-425.46" fill="none" stroke="#bcbcbc" stroke-width="8" stroke-linecap="round" stroke-linejoin="round" /><polyline points="446.68,54.93 432.55,57.56 418.07,65.43 404.65,72.90 391.95,79.25 376.61,87.58 365.50,94.33 343.54,106.10 257.83,149.22 235.61,159.00 220.93,165.35 213.66,167.73 207.64,168.86 197.78,169.45 183.76,167.47 148.78,159.07 99.11,147.50 33.78,127.79 9.70,119.86 -29.71,107.69 -67.41,95.26 -122.69,73.56 -150.34,61.66 -183.67,46.85 -238.95,16.56 -251.92,7.97 -284.72,-12.67 -298.47,-26.42 -319.11,-53.14 -353.10,-88.18 -366.46,-99.95" fill="none" stroke="#bcbcbc" stroke-width="8" stroke-linecap="round" stroke-linejoin="round" /><polyline points="178.68,468.66 179.26,465.43 181.35,460.15 200.96,414.28 208.36,397.08 217.09,375.65 219.22,367.81" fill="none" stroke="#bcbcbc" stroke-width="8" stroke-linecap="round" stroke-linejoin="round" /><polyline points="-197.43,274.98 -219.70,264.21 -270.38,239.68 -332.54,209.60 -338.08,206.91" fill="none" stroke="#bcbcbc" stroke-width="8" stroke-linecap="round" stroke-linejoin="round" /><polyline points="168.59,-80.01 174.21,-85.77 189.16,-101.07 201.03,-114.03" fill="none" stroke="#bcbcbc" stroke-width="8" stroke-linecap="round" stroke-linejoin="round" /><polyline points="-263.17,-45.91 -269.35,-54.09 -298.30,-92.42 -339.63,-125.86" fill="none" stroke="#bcbcbc" stroke-width="8" stroke-linecap="round" stroke-linejoin="round" /><polyline points="-442.51,458.64 -436.86,445.24 -418.90,400.45 -416.72,394.57 -414.30,388.05 -413.38,385.69 -413.14,382.01 -410.84,347.18 -410.18,337.19" fill="none" stroke="#bcbcbc" stroke-width="8" stroke-linecap="round" stroke-linejoin="round" /><polyline points="-454.77,98.57 -443.56,59.66 -428.76,8.35 -426.92,2.00 -424.89,-5.21 -420.33,-21.37 -419.85,-23.07 -418.54,-28.26 -416.46,-34.13 -415.95,-35.56 -413.32,-42.08 -408.16,-53.47 -406.61,-56.74" fill="none" stroke="#bcbcbc" stroke-width="8" stroke-linecap="round" stroke-linejoin="round" /><polyline points="-426.92,2.00 -404.23,7.80 -356.15,20.16 -328.76,28.69 -317.33,31.37" fill="none" stroke="#bcbcbc" stroke-width="8" stroke-linecap="round" stroke-linejoin="round" /><polyline points="40.28,-174.52 41.05,-179.24 41.83,-184.14 45.16,-200.55 53.48,-238.73 60.31,-272.88 61.56,-279.97 63.25,-289.59 63.26,-289.60" fill="none" stroke="#bcbcbc" stroke-width="8" stroke-linecap="round" stroke-linejoin="round" /><polyline points="-26.92,560.71 -16.79,534.86 -15.53,530.22 24.69,428.13 27.51,420.77 29.80,414.52 53.83,344.61 58.46,340.57" fill="none" stroke="#bcbcbc" stroke-width="8" stroke-linecap="round" stroke-linejoin="round" /><polyline points="110.93,-194.28 110.93,-194.29 109.51,-201.77 109.28,-202.67 105.81,-216.80 105.81,-216.85 103.44,-226.43 93.41,-260.82 92.14,-264.50 85.37,-282.93 83.16,-288.43 81.74,-291.97 79.90,-296.00 79.90,-296.01 79.89,-296.03 78.55,-310.84 78.42,-318.11" fill="none" stroke="#bcbcbc" stroke-width="8" stroke-linecap="round" stroke-linejoin="round" /><polyline points="95.89,389.23 93.31,392.02 89.47,396.60 78.63,427.15 75.49,435.99" fill="none" stroke="#bcbcbc" stroke-width="8" stroke-linecap="round" stroke-linejoin="round" /><polyline points="-84.13,-53.49 -82.65,-57.50 -82.32,-58.43 -75.28,-78.08 -72.64,-86.36 -51.08,-149.77" fill="none" stroke="#bcbcbc" stroke-width="8" stroke-linecap="round" stroke-linejoin="round" /><polyline points="27.42,35.40 29.62,29.56 35.58,13.73 38.10,7.04 39.81,2.51 44.59,-10.19 47.75,-18.58 48.17,-19.71 55.83,-40.04 59.03,-39.04 60.76,-43.76 63.82,-52.11 63.24,-55.90 71.38,-78.07 72.21,-80.34 73.76,-81.76 75.06,-82.95 83.22,-105.27 84.40,-111.38 96.11,-143.92 98.89,-146.09 104.52,-162.03 103.52,-164.48 108.45,-179.37 105.89,-192.66" fill="none" stroke="#bcbcbc" stroke-width="8" stroke-linecap="round" stroke-linejoin="round" /><polyline points="236.95,-569.92 233.67,-575.31 216.43,-603.60" fill="none" stroke="#bcbcbc" stroke-width="8" stroke-linecap="round" stroke-linejoin="round" /><polyline points="290.98,-197.12 370.12,-146.23 370.15,-146.20 370.15,-146.19 384.79,-144.29" fill="none" stroke="#bcbcbc" stroke-width="8" stroke-linecap="round" stroke-linejoin="round" /><polyline points="259.24,-303.43 343.45,-261.17 345.99,-259.27 345.82,-245.44 347.53,-231.24" fill="none" stroke="#bcbcbc" stroke-width="8" stroke-linecap="round" stroke-linejoin="round" /><polyline points="98.69,443.35 95.66,452.58 83.39,490.00 62.52,553.02 61.04,557.49 59.54,562.02 59.12,566.85" fill="none" stroke="#bcbcbc" stroke-width="8" stroke-linecap="round" stroke-linejoin="round" /><polyline points="335.75,216.04 336.26,211.34 336.36,206.96 336.33,206.81 333.34,193.91 332.12,188.52 331.53,185.92 330.93,183.27 327.65,168.84 321.25,140.00 316.60,122.66 315.94,119.98" fill="none" stroke="#bcbcbc" stroke-width="8" stroke-linecap="round" stroke-linejoin="round" /><polyline points="-82.34,480.01 -80.25,474.08 -56.80,407.44 -54.14,399.88" fill="none" stroke="#bcbcbc" stroke-width="8" stroke-linecap="round" stroke-linejoin="round" /><polyline points="444.18,-62.63 437.28,-64.57 390.43,-136.46 384.79,-144.29" fill="none" stroke="#bcbcbc" stroke-width="8" stroke-linecap="round" stroke-linejoin="round" /><polyline points="-326.02,109.87 -155.27,150.77 -143.49,155.07" fill="none" stroke="#bcbcbc" stroke-width="8" stroke-linecap="round" stroke-linejoin="round" /><polyline points="212.54,-529.30 279.05,-504.66 288.42,-506.26" fill="none" stroke="#bcbcbc" stroke-width="8" stroke-linecap="round" stroke-linejoin="round" />
    <polyline points="167.20,352.80 169.67,345.22 182.74,305.03 184.28,300.29 185.83,295.32 218.69,190.53 221.34,182.11 215.29,167.20" fill="none" stroke="#ffffff" stroke-width="16" stroke-linecap="round" stroke-linejoin="round" />
    <polyline points="167.20,352.80 169.67,345.22 182.74,305.03 184.28,300.29 185.83,295.32 218.69,190.53 221.34,182.11 215.29,167.20" fill="none" stroke="#111111" stroke-width="9" stroke-linecap="round" stroke-linejoin="round" />
    
            <g transform="translate(167.20,352.80)">
              <circle r="19" fill="#ffffff" stroke="#111111" stroke-width="4" />
              <text text-anchor="middle" dominant-baseline="central" font-family="Helvetica, Arial, sans-serif"
                font-size="18" font-weight="700" fill="#111111">1</text>
            </g>
            
            <g transform="translate(215.29,167.20)">
              <circle r="19" fill="#ffffff" stroke="#111111" stroke-width="4" />
              <text text-anchor="middle" dominant-baseline="central" font-family="Helvetica, Arial, sans-serif"
                font-size="18" font-weight="700" fill="#111111">2</text>
            </g>
            
  </g>
</svg>
