<svg xmlns="http://www.w3.org/2000/svg" width="520" height="520" viewBox="0 0 520 520">
  <rect width="100%" height="100%" fill="#ffffff" />
  <g>
    <polyline points="698.51,-259.92 700.44,-249.64 712.90,-162.45 711.00,-140.65" fill="none" stroke="#bcbcbc" stroke-width="8" stroke-linecap="round" stroke-linejoin="round" /><polyline points="445.17,466.67 448.18,457.41 464.15,408.30 466.03,402.52 467.93,396.44 508.08,268.42 511.31,258.12 503.92,239.91" fill="none" stroke="#bcbcbc" stroke-width="8" stroke-linecap="round" stroke-linejoin="round" /><polyline points="244.04,-165.74 240.92,-175.26 208.66,-273.63 207.09,-277.75" fill="none" stroke="#bcbcbc" stroke-width="8" stroke-linecap="round" stroke-linejoin="round" /><polyline points="78.53,700.05 79.49,690.66 79.88,686.35 83.39,647.51 87.23,613.31 88.13,605.33 88.97,595.75 89.06,594.94 91.24,575.89 93.12,556.53 95.19,537.85 96.58,523.30 97.16,514.32 97.68,506.03 98.59,496.69" fill="none" stroke="#bcbcbc" stroke-width="8" stroke-linecap="round" stroke-linejoin="round" /><polyline points="524.22,489.49 526.52,482.27 542.70,431.39 544.54,425.61 547.16,417.38 549.03,411.47 563.35,349.69" fill="none" stroke="#bcbcbc" stroke-width="8" stroke-linecap="round" stroke-linejoin="round" /><polyline points="461.30,-516.92 467.28,-516.01 631.99,-490.70" fill="none" stroke="#bcbcbc" stroke-width="8" stroke-linecap="round" stroke-linejoin="round" /><polyline points="38.46,477.51 21.31,476.71 10.86,476.22 5.18,475.96 0.20,475.72 -38.63,473.92 -92.62,471.41 -118.36,467.76 -126.97,466.54 -134.45,465.22 -185.07,456.28 -192.15,455.03 -193.72,454.77 -202.46,453.27 -209.17,452.12 -252.07,448.33 -260.24,447.60 -263.23,447.34 -272.51,446.70 -290.67,445.44" fill="none" stroke="#bcbcbc" stroke-width="8" stroke-linecap="round" stroke-linejoin="round" /><polyline points="287.53,427.77 290.85,418.32 320.77,335.37 356.77,230.75 359.08,224.19 360.68,219.60 361.99,215.84" fill="none" stroke="#bcbcbc" stroke-width="8" stroke-linecap="round" stroke-linejoin="round" /><polyline points="-263.23,447.34 -264.00,442.00 -264.18,436.21 -263.04,424.55 -260.44,403.25 -258.70,396.10 -255.88,370.26 -255.36,364.50 -254.54,357.10 -253.93,351.60 -252.77,345.37 -250.63,328.61 -249.14,315.78 -246.95,310.54" fill="none" stroke="#bcbcbc" stroke-width="8" stroke-linecap="round" stroke-linejoin="round" /><polyline points="-293.86,303.98 -253.95,309.56 -246.95,310.54 -242.62,311.23 -224.73,314.08 -183.50,320.65 -176.43,321.83" fill="none" stroke="#bcbcbc" stroke-width="8" stroke-linecap="round" stroke-linejoin="round" /><polyline points="440.69,-219.59 440.95,-215.97 441.48,-212.29 442.78,-209.48 445.21,-206.34 449.70,-202.26 460.33,-195.78 542.40,-144.30 592.94,-76.54 631.11,17.67 633.61,23.89" fill="none" stroke="#bcbcbc" stroke-width="8" stroke-linecap="round" stroke-linejoin="round" /><polyline points="427.55,55.30 429.25,58.11 429.69,58.84 431.10,65.95 440.73,112.51 443.78,127.29 445.97,137.81 449.38,159.14 450.97,168.98 452.07,174.98 453.27,180.40 454.71,183.57 456.81,187.23 457.94,188.95 479.27,219.48 490.80,237.64 493.81,241.98" fill="none" stroke="#bcbcbc" stroke-width="8" stroke-linecap="round" stroke-linejoin="round" /><polyline points="-184.58,638.24 -183.45,631.26 -182.39,626.20 -182.11,625.53 -167.92,591.79 -158.88,569.86 -156.13,562.91 -153.22,555.55 -150.06,549.22 -149.55,547.98 -145.22,537.52 -141.87,528.27 -139.00,519.78 -137.18,513.78 -135.14,506.36 -132.79,496.42 -131.00,488.36 -128.86,477.10 -128.41,474.59 -126.97,466.54" fill="none" stroke="#bcbcbc" stroke-width="8" stroke-linecap="round" stroke-linejoin="round" /><polyline points="503.02,-304.09 548.28,-272.47 554.37,-271.18 558.83,-266.07" fill="none" stroke="#bcbcbc" stroke-width="8" stroke-linecap="round" stroke-linejoin="round" /><polyline points="313.01,-12.07 318.99,-9.77 344.95,-1.28 405.18,21.82 408.56,25.19 410.15,27.70" fill="none" stroke="#bcbcbc" stroke-width="8" stroke-linecap="round" stroke-linejoin="round" /><polyline points="425.24,581.44 429.34,570.75 449.59,515.81 463.91,474.31 466.88,472.94" fill="none" stroke="#bcbcbc" stroke-width="8" stroke-linecap="round" stroke-linejoin="round" /><polyline points="139.03,511.78 142.22,504.72 142.54,504.02 148.00,485.68 156.96,455.50 159.25,447.78 161.03,441.78 161.27,438.28 160.91,430.54" fill="none" stroke="#bcbcbc" stroke-width="8" stroke-linecap="round" stroke-linejoin="round" /><polyline points="511.19,57.71 506.06,58.77 494.43,56.70 492.62,51.90 472.47,44.22 467.70,45.46 449.52,38.79 446.80,40.68" fill="none" stroke="#bcbcbc" stroke-width="8" stroke-linecap="round" stroke-linejoin="round" /><polyline points="481.26,-565.75 490.40,-563.51 495.45,-562.63 615.60,-541.80" fill="none" stroke="#bcbcbc" stroke-width="8" stroke-linecap="round" stroke-linejoin="round" /><polyline points="387.88,547.98 392.88,533.89 402.59,506.51 408.87,494.84 417.90,469.56 421.50,459.46" fill="none" stroke="#bcbcbc" stroke-width="8" stroke-linecap="round" stroke-linejoin="round" /><polyline points="-270.45,1.10 -279.15,0.70 -281.34,3.35 -296.50,21.77 -349.49,82.99 -356.95,91.60" fill="none" stroke="#bcbcbc" stroke-width="8" stroke-linecap="round" stroke-linejoin="round" /><polyline points="194.40,53.53 190.56,62.04 190.10,63.07 176.75,97.87 163.30,136.18 159.71,146.40 157.68,151.67" fill="none" stroke="#bcbcbc" stroke-width="8" stroke-linecap="round" stroke-linejoin="round" /><polyline points="390.18,-337.52 394.42,-331.77 397.45,-323.86 402.16,-312.51 409.72,-294.65 416.42,-278.62 424.11,-261.02 429.81,-247.45 430.65,-245.50 430.70,-245.38 435.29,-234.65 436.67,-231.61 437.97,-228.70 439.35,-225.98 440.39,-223.22 440.69,-219.59" fill="none" stroke="#bcbcbc" stroke-width="8" stroke-linecap="round" stroke-linejoin="round" /><polyline points="65.58,225.09 67.80,223.88 70.91,221.41 72.46,218.21 93.08,140.02 93.70,135.61 96.22,127.56" fill="none" stroke="#bcbcbc" stroke-width="8" stroke-linecap="round" stroke-linejoin="round" /><polyline points="786.61,102.74 789.54,112.02 791.60,121.78 787.59,158.94 782.96,186.89 780.43,196.43 780.20,197.29 777.98,202.44 774.96,207.89 767.91,216.81 771.32,234.26 760.27,271.71 754.17,292.39 741.69,326.24 723.41,367.45 701.08,406.95 694.11,419.78 681.51,440.87 631.15,512.34 620.12,527.20 577.40,583.03 552.87,610.94 518.56,645.80 515.39,646.13 507.64,652.47" fill="none" stroke="#bcbcbc" stroke-width="8" stroke-linecap="round" stroke-linejoin="round" /><polyline points="165.28,714.04 179.34,670.45 181.64,663.25 184.76,658.71 191.47,638.57 193.66,631.72 221.39,544.90 224.18,536.17 226.48,528.50 259.20,425.51" fill="none" stroke="#bcbcbc" stroke-width="8" stroke-linecap="round" stroke-linejoin="round" /><polyline points="494.57,-96.67 506.72,-109.94 510.30,-114.26 534.86,-149.04" fill="none" stroke="#bcbcbc" stroke-width="8" stroke-linecap="round" stroke-linejoin="round" /><polyline points="251.70,-91.41 285.16,-79.76 287.01,-76.75 296.51,-73.57 302.15,-71.64 329.12,-62.53" fill="none" stroke="#bcbcbc" stroke-width="8" stroke-linecap="round" stroke-linejoin="round" /><polyline points="543.36,-322.96 558.83,-266.07 576.75,-199.06 579.47,-193.47 579.90,-187.10 592.05,-164.41 624.84,-103.27 632.01,-92.70 634.08,-89.60 683.07,1.99 705.59,22.45 708.75,26.53 713.20,30.34 755.95,66.89 758.85,69.37 766.53,73.44" fill="none" stroke="#bcbcbc" stroke-width="8" stroke-linecap="round" stroke-linejoin="round" /><polyline points="377.10,723.29 483.71,661.37 502.69,651.66 507.64,652.47" fill="none" stroke="#bcbcbc" stroke-width="8" stroke-linecap="round" stroke-linejoin="round" /><polyline points="492.69,634.70 499.31,626.84 558.69,508.35 562.63,500.58 565.91,492.89 585.09,445.46 590.81,431.17 607.34,381.13 618.06,316.81 619.33,307.44" fill="none" stroke="#bcbcbc" stroke-width="8" stroke-linecap="round" stroke-linejoin="round" /><polyline points="446.86,-62.12 445.82,-61.06 444.39,-56.07 444.25,-55.58 437.81,-30.76 439.50,-24.28 438.09,-18.48 436.25,-10.87 431.54,-5.41 426.18,16.27 419.88,21.03 413.15,25.65 410.15,27.70" fill="none" stroke="#bcbcbc" stroke-width="8" stroke-linecap="round" stroke-linejoin="round" /><polyline points="194.40,53.53 197.14,46.51 213.62,4.27 217.21,-4.93 220.17,-12.52 241.22,-66.45 250.70,-89.00 251.70,-91.41 259.06,-109.21 275.59,-150.25 281.64,-167.71 282.99,-171.72 284.80,-176.26" fill="none" stroke="#bcbcbc" stroke-width="8" stroke-linecap="round" stroke-linejoin="round" /><polyline points="378.76,-202.47 381.94,-192.99 486.50,-103.69 543.55,-54.05 628.77,20.02 636.21,25.97 639.54,28.06 654.33,41.48 674.07,58.32 718.86,96.51 733.33,108.95 742.93,120.43" fill="none" stroke="#bcbcbc" stroke-width="8" stroke-linecap="round" stroke-linejoin="round" /><polyline points="551.63,-356.36 556.94,-359.76 588.35,-372.81 594.81,-379.60" fill="none" stroke="#bcbcbc" stroke-width="8" stroke-linecap="round" stroke-linejoin="round" /><polyline points="587.92,438.39 544.54,425.61 466.03,402.52" fill="none" stroke="#bcbcbc" stroke-width="8" stroke-linecap="round" stroke-linejoin="round" /><polyline points="447.90,-484.18 453.83,-480.10 646.89,-437.14" fill="none" stroke="#bcbcbc" stroke-width="8" stroke-linecap="round" stroke-linejoin="round" /><polyline points="686.38,151.44 676.40,129.24 654.26,76.44 652.61,72.24 648.82,62.60 634.55,26.28 633.65,23.93" fill="none" stroke="#bcbcbc" stroke-width="8" stroke-linecap="round" stroke-linejoin="round" /><polyline points="390.18,-337.52 379.46,-340.57 371.59,-342.92 355.58,-347.67 347.45,-349.99 342.79,-351.28 336.70,-353.03" fill="none" stroke="#bcbcbc" stroke-width="8" stroke-linecap="round" stroke-linejoin="round" /><polyline points="110.71,-47.07 110.17,-48.84 109.67,-50.09 107.46,-55.58 98.90,-75.53 90.77,-95.79 89.01,-100.58 86.99,-106.09 85.54,-110.60 83.15,-117.36 82.90,-118.07 75.12,-137.25 60.83,-173.29 57.62,-175.12 55.34,-180.97 50.79,-196.80 42.98,-216.42 41.30,-220.88" fill="none" stroke="#bcbcbc" stroke-width="8" stroke-linecap="round" stroke-linejoin="round" /><polyline points="179.34,670.45 187.45,672.93 213.70,680.93 221.92,683.44" fill="none" stroke="#bcbcbc" stroke-width="8" stroke-linecap="round" stroke-linejoin="round" /><polyline points="669.52,-346.92 671.04,-353.10 670.42,-355.45 669.67,-358.28 664.88,-375.84 654.20,-412.96 648.56,-431.93 646.89,-437.14 631.99,-490.70 623.95,-519.59 615.60,-541.80 608.06,-561.84 600.56,-575.62 593.26,-582.90 537.28,-651.31 533.13,-656.18 530.39,-660.68" fill="none" stroke="#bcbcbc" stroke-width="8" stroke-linecap="round" stroke-linejoin="round" /><polyline points="440.69,-219.59 437.80,-218.49 432.46,-217.02 431.93,-216.87 409.63,-211.17 383.99,-203.95 378.76,-202.47 376.43,-201.73 370.27,-199.75 365.00,-198.29 342.01,-191.89 304.20,-181.15 290.10,-177.59 284.80,-176.26 259.60,-170.08 244.04,-165.74 211.07,-156.53 178.49,-147.35 174.72,-146.30 147.49,-138.75 134.93,-135.26 128.59,-132.26 116.58,-126.31 92.74,-114.21 91.08,-113.37 85.54,-110.60 82.17,-108.91 77.45,-106.44 60.70,-97.66 30.18,-80.53 4.68,-67.17 1.03,-65.26 -3.84,-64.96 -6.77,-63.40 -7.35,-63.09 -35.01,-47.93 -40.80,-47.96 -47.45,-44.48 -49.78,-43.27 -51.73,-42.24 -56.36,-39.82 -60.00,-31.51 -75.66,-23.13 -80.63,-20.46 -86.02,-17.53 -107.80,-5.68 -119.06,0.45 -124.74,2.08" fill="none" stroke="#bcbcbc" stroke-width="8" stroke-linecap="round" stroke-linejoin="round" /><polyline points="754.17,292.39 742.55,293.45 706.24,296.78 704.60,296.93 702.29,297.14 698.54,297.48 663.34,300.72 651.09,299.58 636.84,303.15 625.41,305.95 619.33,307.44 604.22,308.02 591.13,307.35 584.47,306.64 578.79,304.93 574.61,302.61 559.04,291.61 521.22,265.63 517.66,263.21 514.03,260.75 511.31,258.12" fill="none" stroke="#bcbcbc" stroke-width="8" stroke-linecap="round" stroke-linejoin="round" /><polyline points="-102.47,-146.17 -88.74,-119.31 -86.67,-111.63 -75.11,-89.57 -70.33,-83.26 -51.01,-45.67 -49.78,-43.27" fill="none" stroke="#bcbcbc" stroke-width="8" stroke-linecap="round" stroke-linejoin="round" /><polyline points="318.10,92.75 316.05,98.40 315.47,100.16 312.79,108.28 295.81,155.65 287.38,179.18 287.10,179.98 283.71,187.29 281.77,191.63" fill="none" stroke="#bcbcbc" stroke-width="8" stroke-linecap="round" stroke-linejoin="round" /><polyline points="543.36,-322.96 541.48,-326.99 536.53,-327.64 520.52,-323.97 517.27,-324.39 514.72,-327.81 510.20,-348.63 534.72,-352.43 546.08,-355.78 551.63,-356.36 557.61,-335.09" fill="none" stroke="#bcbcbc" stroke-width="8" stroke-linecap="round" stroke-linejoin="round" /><polyline points="632.01,-92.70 638.33,-96.24 670.06,-115.36 678.54,-120.41 693.39,-129.27 717.81,-145.06 723.51,-149.16 766.35,-175.73" fill="none" stroke="#bcbcbc" stroke-width="8" stroke-linecap="round" stroke-linejoin="round" /><polyline points="781.76,32.83 770.93,29.60 764.63,24.44 740.57,3.61 739.75,2.88 733.93,-2.31 730.51,-8.37 670.06,-115.36" fill="none" stroke="#bcbcbc" stroke-width="8" stroke-linecap="round" stroke-linejoin="round" /><polyline points="99.56,24.35 194.40,53.53 202.14,55.98 272.92,78.42 274.40,78.89 285.00,82.25 290.21,83.90 296.99,85.75 310.96,90.49 318.10,92.75 324.53,94.79 377.21,111.50 432.81,128.97 437.41,130.41 443.78,127.29" fill="none" stroke="#bcbcbc" stroke-width="8" stroke-linecap="round" stroke-linejoin="round" /><polyline points="378.43,-443.87 419.52,-481.62 426.47,-488.01" fill="none" stroke="#bcbcbc" stroke-width="8" stroke-linecap="round" stroke-linejoin="round" /><polyline points="-309.53,165.23 -158.78,181.39" fill="none" stroke="#bcbcbc" stroke-width="8" stroke-linecap="round" stroke-linejoin="round" /><polyline points="145.24,-255.52 176.92,-266.85 209.61,-278.67 229.91,-286.56 291.91,-309.11 309.91,-315.33 313.67,-316.63 318.17,-318.18 323.23,-319.92 323.85,-320.13 334.06,-324.24 338.50,-326.02" fill="none" stroke="#bcbcbc" stroke-width="8" stroke-linecap="round" stroke-linejoin="round" /><polyline points="358.05,511.18 387.88,547.98 406.14,566.37 414.05,572.06 425.24,581.43 435.75,590.26 444.78,599.07 445.01,603.55" fill="none" stroke="#bcbcbc" stroke-width="8" stroke-linecap="round" stroke-linejoin="round" /><polyline points="390.18,-337.52 401.87,-366.82 420.80,-415.07 447.90,-484.18 461.30,-516.92 481.26,-565.75 497.63,-605.74 500.56,-611.04 514.96,-634.58 515.89,-636.10 521.15,-646.46 530.39,-660.68 535.55,-668.62 542.84,-679.85" fill="none" stroke="#bcbcbc" stroke-width="8" stroke-linecap="round" stroke-linejoin="round" /><polyline points="114.38,445.92 112.46,447.46 111.20,449.28 108.62,456.88 106.84,462.37 98.60,487.00 97.47,490.55 96.77,492.76 89.20,490.59 70.79,484.42 52.55,478.30 38.46,477.50" fill="none" stroke="#bcbcbc" stroke-width="8" stroke-linecap="round" stroke-linejoin="round" /><polyline points="-246.10,617.30 -216.04,539.68 -212.70,531.23 -209.70,523.09 -206.07,513.25 -201.63,497.78 -196.99,478.55 -195.09,464.77 -193.72,454.77 -191.77,447.38 -184.69,391.87 -176.43,321.83 -172.15,288.43 -167.38,249.20 -158.78,181.39 -157.42,169.86 -148.72,98.94 -148.72,95.00 -146.80,73.95 -141.25,29.51 -139.86,21.75 -138.42,17.41 -136.15,12.62 -133.94,8.90 -129.08,3.63 -124.73,2.14" fill="none" stroke="#bcbcbc" stroke-width="8" stroke-linecap="round" stroke-linejoin="round" /><polyline points="410.15,27.70 411.79,30.31 417.31,38.91 425.56,52.14 427.55,55.30 430.84,52.80 446.80,40.68" fill="none" stroke="#bcbcbc" stroke-width="8" stroke-linecap="round" stroke-linejoin="round" /><polyline points="420.80,-415.07 583.22,-385.70 600.28,-376.73 663.91,-345.18 669.52,-346.92" fill="none" stroke="#bcbcbc" stroke-width="8" stroke-linecap="round" stroke-linejoin="round" /><polyline points="110.71,-47.07 107.83,-42.87 81.92,-30.22 62.89,-6.03 42.35,6.68 28.30,17.29 14.91,28.22 8.03,34.48 -4.10,49.87 -17.67,69.32 -19.91,72.92" fill="none" stroke="#bcbcbc" stroke-width="8" stroke-linecap="round" stroke-linejoin="round" /><polyline points="138.11,-29.72 136.98,-27.22 134.53,-23.63 129.88,-17.92 102.51,16.66 88.03,55.66 14.94,28.19" fill="none" stroke="#bcbcbc" stroke-width="8" stroke-linecap="round" stroke-linejoin="round" /><polyline points="28.30,17.29 25.47,8.72 13.24,-28.31 8.50,-35.63 0.55,-59.47 -0.14,-61.53 1.03,-65.26 -0.87,-71.34 -39.09,-193.37" fill="none" stroke="#bcbcbc" stroke-width="8" stroke-linecap="round" stroke-linejoin="round" /><polyline points="476.14,-648.53 506.34,-647.73 507.75,-647.69 513.54,-647.53 521.15,-646.46" fill="none" stroke="#bcbcbc" stroke-width="8" stroke-linecap="round" stroke-linejoin="round" /><polyline points="320.77,335.37 310.46,335.24 223.13,346.97 216.84,347.63 209.64,348.39 167.85,352.80 111.55,358.75 81.70,361.89 65.19,363.64 51.78,365.27 44.90,366.10 37.14,367.05 -0.31,371.60 -9.29,372.69 -36.95,375.71 -184.69,391.87" fill="none" stroke="#bcbcbc" stroke-width="8" stroke-linecap="round" stroke-linejoin="round" /><polyline points="191.47,638.57 183.74,636.08 147.61,624.45 140.30,622.10 133.96,620.06 95.68,607.75 88.13,605.33 78.15,602.11 17.21,582.50 10.35,580.30" fill="none" stroke="#bcbcbc" stroke-width="8" stroke-linecap="round" stroke-linejoin="round" /><polyline points="342.57,-92.98 363.59,-86.44 440.45,-62.70 441.16,-62.48 446.86,-62.12" fill="none" stroke="#bcbcbc" stroke-width="8" stroke-linecap="round" stroke-linejoin="round" /><polyline points="558.83,-266.07 663.39,-264.23" fill="none" stroke="#bcbcbc" stroke-width="8" stroke-linecap="round" stroke-linejoin="round" /><polyline points="507.64,652.47 492.69,634.70 486.42,627.41 481.03,622.37 473.86,617.02 459.20,608.22 445.01,603.55 416.14,594.64 392.53,587.14 406.14,566.37" fill="none" stroke="#bcbcbc" stroke-width="8" stroke-linecap="round" stroke-linejoin="round" /><polyline points="358.05,511.18 337.24,485.50 333.28,480.61 312.31,451.73 307.57,442.92 308.71,432.42 315.03,432.36 330.62,435.36 354.34,439.92" fill="none" stroke="#bcbcbc" stroke-width="8" stroke-linecap="round" stroke-linejoin="round" /><polyline points="85.79,305.37 89.63,313.63 111.55,358.75 144.14,425.84 148.30,434.39" fill="none" stroke="#bcbcbc" stroke-width="8" stroke-linecap="round" stroke-linejoin="round" /><polyline points="-265.27,509.73 -257.43,512.94 -220.71,527.95 -212.70,531.23 -204.27,534.67 -161.04,552.35 -153.22,555.55" fill="none" stroke="#bcbcbc" stroke-width="8" stroke-linecap="round" stroke-linejoin="round" /><polyline points="103.83,238.47 180.33,271.94" fill="none" stroke="#bcbcbc" stroke-width="8" stroke-linecap="round" stroke-linejoin="round" /><polyline points="446.86,-62.12 458.51,-61.51 459.26,-60.85 464.49,-56.21 472.17,-49.35 473.59,-46.60 500.07,-23.40 502.03,-19.70 520.65,-3.27 525.34,-1.84 539.83,10.85 543.07,12.33 564.92,30.86 569.78,35.17 572.47,39.44" fill="none" stroke="#bcbcbc" stroke-width="8" stroke-linecap="round" stroke-linejoin="round" /><polyline points="-286.86,238.55 -167.38,249.20" fill="none" stroke="#bcbcbc" stroke-width="8" stroke-linecap="round" stroke-linejoin="round" /><polyline points="-20.09,683.43 -16.39,675.55 -15.43,672.04 -10.25,652.91 8.55,586.64 10.35,580.30 12.25,573.34 20.76,542.20 35.14,489.62 38.46,477.51" fill="none" stroke="#bcbcbc" stroke-width="8" stroke-linecap="round" stroke-linejoin="round" /><polyline points="85.79,305.37 103.83,238.47 65.58,225.09 55.57,231.00 51.00,234.48 47.62,239.05 45.25,245.08 36.45,277.60 43.54,281.21 50.71,282.95 66.57,287.07 78.43,290.85 85.79,305.37" fill="none" stroke="#bcbcbc" stroke-width="8" stroke-linecap="round" stroke-linejoin="round" /><polyline points="36.45,277.60 28.07,276.43 -167.38,249.20" fill="none" stroke="#bcbcbc" stroke-width="8" stroke-linecap="round" stroke-linejoin="round" /><polyline points="354.34,439.92 372.47,443.88 421.50,459.46 435.21,463.80 467.75,473.20 500.53,482.65 524.80,489.66 563.61,500.87 571.63,503.18 591.22,509.75 623.46,518.34 626.31,518.87" fill="none" stroke="#bcbcbc" stroke-width="8" stroke-linecap="round" stroke-linejoin="round" /><polyline points="377.34,723.15 370.73,724.81 363.57,744.75 352.48,741.60 302.05,724.41 295.98,723.12 282.48,722.15 221.41,722.39 207.95,720.68 177.55,716.03 165.28,714.04 78.30,700.01 44.62,694.64 -19.61,683.51 -29.98,681.46 -174.95,640.94 -184.09,638.38 -246.10,617.30 -261.36,611.89 -299.47,596.10 -321.19,587.88" fill="none" stroke="#bcbcbc" stroke-width="8" stroke-linecap="round" stroke-linejoin="round" /><polyline points="510.20,-348.63 503.92,-349.92 420.14,-340.02 390.18,-337.52" fill="none" stroke="#bcbcbc" stroke-width="8" stroke-linecap="round" stroke-linejoin="round" /><polyline points="354.34,439.92 357.28,435.01 374.86,389.85 394.51,321.58 399.52,306.88 402.20,302.87 421.16,242.00 422.11,234.73 422.82,229.98" fill="none" stroke="#bcbcbc" stroke-width="8" stroke-linecap="round" stroke-linejoin="round" /><polyline points="440.69,-219.59 442.69,-220.36 445.40,-222.51 449.53,-227.34 503.02,-304.09 517.27,-324.39" fill="none" stroke="#bcbcbc" stroke-width="8" stroke-linecap="round" stroke-linejoin="round" /><polyline points="678.79,62.37 679.88,59.22 706.77,27.58 708.75,26.53 713.42,20.14 729.06,2.17 733.93,-2.31" fill="none" stroke="#bcbcbc" stroke-width="8" stroke-linecap="round" stroke-linejoin="round" /><polyline points="702.29,297.14 701.91,292.91 701.63,289.63 700.21,283.37 698.52,279.28 696.40,268.56 696.21,264.67 694.78,255.99 688.38,252.64 683.26,254.60 674.11,256.79 666.86,257.92 659.91,259.60 650.31,261.79 645.94,262.79" fill="none" stroke="#bcbcbc" stroke-width="8" stroke-linecap="round" stroke-linejoin="round" /><polyline points="-4.22,141.77 15.34,95.93 16.42,92.95" fill="none" stroke="#bcbcbc" stroke-width="8" stroke-linecap="round" stroke-linejoin="round" /><polyline points="511.19,57.71 520.62,54.06 525.55,52.15 529.36,48.29 545.07,44.42 550.35,45.76 561.72,42.83 570.40,40.60 572.47,39.44 580.88,37.38 623.90,26.84 633.65,23.93" fill="none" stroke="#bcbcbc" stroke-width="8" stroke-linecap="round" stroke-linejoin="round" /><polyline points="114.38,445.92 134.67,438.56 141.46,436.48 148.30,434.39 160.91,430.54 170.72,429.13 204.23,425.46 210.96,425.10 240.94,425.35 259.20,425.51 266.07,425.16 277.07,426.27 280.51,426.76 287.53,427.77 308.71,432.42" fill="none" stroke="#bcbcbc" stroke-width="8" stroke-linecap="round" stroke-linejoin="round" /><polyline points="211.07,-156.53 207.71,-167.90 195.22,-210.12 180.06,-258.26 176.92,-266.85 173.74,-274.90 169.72,-286.51" fill="none" stroke="#bcbcbc" stroke-width="8" stroke-linecap="round" stroke-linejoin="round" /><polyline points="174.75,524.19 177.42,515.76 204.40,430.70 204.23,425.46" fill="none" stroke="#bcbcbc" stroke-width="8" stroke-linecap="round" stroke-linejoin="round" /><polyline points="210.96,425.10 216.30,353.47 216.84,347.63 217.65,340.84 217.67,340.53 218.02,332.22 219.80,309.67 220.81,299.17 222.18,287.24 223.43,278.66 224.56,273.26 225.97,269.19 228.74,260.00 234.47,240.88 241.76,216.19 249.80,190.95 251.43,185.80 252.75,182.07" fill="none" stroke="#bcbcbc" stroke-width="8" stroke-linecap="round" stroke-linejoin="round" /><polyline points="36.45,277.60 35.03,283.94 35.27,285.97 43.98,358.43 44.90,366.10 44.50,374.00 42.22,419.06 41.27,437.89 40.77,447.60 39.90,464.91 39.44,473.93 38.46,477.51" fill="none" stroke="#bcbcbc" stroke-width="8" stroke-linecap="round" stroke-linejoin="round" /><polyline points="-4.22,141.77 -35.87,132.37 -39.89,129.79 -59.58,124.05 -65.12,124.11 -89.86,116.65 -93.86,113.70 -116.38,106.88 -144.01,99.35 -144.14,99.34 -148.72,98.94" fill="none" stroke="#bcbcbc" stroke-width="8" stroke-linecap="round" stroke-linejoin="round" /><polyline points="572.47,39.44 573.56,40.89 578.15,47.72 586.64,60.37 594.62,68.37 609.97,85.60 607.38,101.52 606.06,107.49 604.23,110.02 608.08,115.71 614.03,127.96 625.93,150.92 631.79,162.22 635.43,172.38 637.08,177.10" fill="none" stroke="#bcbcbc" stroke-width="8" stroke-linecap="round" stroke-linejoin="round" /><polyline points="652.61,72.24 648.20,73.61 619.14,82.65 614.97,83.99 609.97,85.60" fill="none" stroke="#bcbcbc" stroke-width="8" stroke-linecap="round" stroke-linejoin="round" /><polyline points="443.78,127.29 452.87,124.34 518.83,90.66 527.66,86.35 558.75,77.37 588.89,68.89 594.62,68.37" fill="none" stroke="#bcbcbc" stroke-width="8" stroke-linecap="round" stroke-linejoin="round" /><polyline points="450.97,168.98 527.01,133.59 530.22,131.48 537.65,129.31 588.32,114.57 596.01,111.63 604.23,110.02" fill="none" stroke="#bcbcbc" stroke-width="8" stroke-linecap="round" stroke-linejoin="round" /><polyline points="435.45,-572.86 466.24,-569.06 469.33,-568.68 481.26,-565.75" fill="none" stroke="#bcbcbc" stroke-width="8" stroke-linecap="round" stroke-linejoin="round" /><polyline points="698.51,-259.92 703.97,-261.06 724.37,-251.06 727.05,-248.40 765.34,-183.59 766.35,-175.73 771.33,-171.58 770.54,-168.72 770.42,-164.05 771.11,-157.51 781.25,-115.84 782.14,-86.97 783.57,-40.88 785.95,21.15 776.24,48.18 769.98,64.66 760.85,87.89 758.20,94.60 756.49,96.48 753.73,114.45" fill="none" stroke="#bcbcbc" stroke-width="8" stroke-linecap="round" stroke-linejoin="round" /><polyline points="769.30,223.93 759.99,219.88 736.72,203.64 706.01,182.07 689.13,168.41 677.74,156.21" fill="none" stroke="#bcbcbc" stroke-width="8" stroke-linecap="round" stroke-linejoin="round" /><polyline points="392.53,587.14 383.38,584.25 368.54,579.54 361.46,577.30 353.14,574.66 342.63,571.33 333.13,568.31 323.74,565.33 281.84,552.04 274.51,549.71 265.39,546.83 263.38,546.19 239.43,539.86 232.66,538.22 224.18,536.17 215.31,534.02 183.33,526.27 174.75,524.19 165.54,520.99 146.28,514.30 139.03,511.78 132.54,509.67 102.39,498.95 98.59,496.69 96.77,492.76" fill="none" stroke="#bcbcbc" stroke-width="8" stroke-linecap="round" stroke-linejoin="round" /><polyline points="530.22,131.48 528.00,123.52 521.38,99.79 518.83,90.66 515.15,83.84 514.81,82.57 512.64,74.54 515.17,70.98 512.13,60.86 511.19,57.71" fill="none" stroke="#bcbcbc" stroke-width="8" stroke-linecap="round" stroke-linejoin="round" /><polyline points="519.15,-158.92 525.44,-161.88 559.82,-180.83 579.47,-193.47 593.33,-202.93 596.39,-205.21 607.54,-212.96 619.10,-221.50 626.42,-226.82 635.15,-233.20 665.48,-246.89 669.41,-246.68 675.16,-249.40 698.51,-259.92" fill="none" stroke="#bcbcbc" stroke-width="8" stroke-linecap="round" stroke-linejoin="round" /><polyline points="138.11,-29.72 143.07,-27.71 146.35,-26.70 207.82,-7.82 217.21,-4.93" fill="none" stroke="#bcbcbc" stroke-width="8" stroke-linecap="round" stroke-linejoin="round" /><polyline points="-301.01,108.53 -344.93,95.23" fill="none" stroke="#bcbcbc" stroke-width="8" stroke-linecap="round" stroke-linejoin="round" /><polyline points="408.46,-510.83 419.35,-497.03 420.97,-494.98 426.47,-488.01 432.74,-487.28 445.61,-485.77 447.90,-484.18" fill="none" stroke="#bcbcbc" stroke-width="8" stroke-linecap="round" stroke-linejoin="round" /><polyline points="786.61,102.74 769.36,105.96 751.66,115.57 735.26,124.70 719.75,132.46 701.00,142.64 687.43,150.88 660.61,165.26 555.90,217.94 528.75,229.90 510.81,237.65 501.92,240.56 494.57,241.94 482.53,242.66 465.40,240.24 422.66,229.98 361.99,215.84 282.16,191.76 252.75,182.07 204.60,167.20 158.54,152.01 91.00,125.51 57.22,110.97 16.50,92.87 -51.04,55.87 -66.88,45.36 -106.95,20.16 -123.76,3.35 -148.97,-29.29 -190.50,-72.11 -206.82,-86.49" fill="none" stroke="#bcbcbc" stroke-width="8" stroke-linecap="round" stroke-linejoin="round" /><polyline points="459.20,608.22 459.90,604.27 462.46,597.82 486.41,541.78 495.46,520.77 506.13,494.59 508.72,485.01" fill="none" stroke="#bcbcbc" stroke-width="8" stroke-linecap="round" stroke-linejoin="round" /><polyline points="-0.31,371.60 -27.52,358.43 -89.43,328.46 -165.38,291.71 -172.15,288.43" fill="none" stroke="#bcbcbc" stroke-width="8" stroke-linecap="round" stroke-linejoin="round" /><polyline points="446.86,-62.12 453.73,-69.16 472.00,-87.86 486.50,-103.69" fill="none" stroke="#bcbcbc" stroke-width="8" stroke-linecap="round" stroke-linejoin="round" /><polyline points="-80.63,-20.46 -88.18,-30.45 -123.55,-77.28 -174.04,-118.14" fill="none" stroke="#bcbcbc" stroke-width="8" stroke-linecap="round" stroke-linejoin="round" /><polyline points="-299.74,595.99 -292.84,579.61 -270.88,524.88 -268.22,517.70 -265.27,509.73 -264.15,506.86 -263.85,502.35 -261.04,459.81 -260.24,447.60" fill="none" stroke="#bcbcbc" stroke-width="8" stroke-linecap="round" stroke-linejoin="round" /><polyline points="-314.72,156.06 -301.01,108.53 -282.93,45.84 -280.69,38.07 -278.20,29.26 -272.63,9.52 -272.05,7.45 -270.45,1.10 -267.91,-6.07 -267.29,-7.81 -264.08,-15.78 -257.77,-29.70 -255.88,-33.69" fill="none" stroke="#bcbcbc" stroke-width="8" stroke-linecap="round" stroke-linejoin="round" /><polyline points="-280.69,38.08 -252.96,45.17 -194.22,60.26 -160.76,70.68 -146.80,73.95" fill="none" stroke="#bcbcbc" stroke-width="8" stroke-linecap="round" stroke-linejoin="round" /><polyline points="290.10,-177.59 291.05,-183.36 292.00,-189.35 296.06,-209.39 306.23,-256.04 314.57,-297.77 316.10,-306.43 318.17,-318.18 318.18,-318.19" fill="none" stroke="#bcbcbc" stroke-width="8" stroke-linecap="round" stroke-linejoin="round" /><polyline points="208.00,720.69 220.38,689.11 221.92,683.44 271.06,558.71 274.51,549.71 277.30,542.08 306.66,456.67 312.31,451.73" fill="none" stroke="#bcbcbc" stroke-width="8" stroke-linecap="round" stroke-linejoin="round" /><polyline points="376.43,-201.73 376.42,-201.75 374.68,-210.88 374.41,-211.99 370.17,-229.25 370.17,-229.31 367.28,-241.01 355.01,-283.03 353.47,-287.53 345.19,-310.04 342.50,-316.76 340.76,-321.09 338.51,-326.02 338.50,-326.02 338.50,-326.04 336.86,-344.14 336.70,-353.03" fill="none" stroke="#bcbcbc" stroke-width="8" stroke-linecap="round" stroke-linejoin="round" /><polyline points="358.05,511.18 354.90,514.59 350.20,520.18 336.96,557.51 333.13,568.31" fill="none" stroke="#bcbcbc" stroke-width="8" stroke-linecap="round" stroke-linejoin="round" /><polyline points="138.11,-29.72 139.92,-34.62 140.32,-35.76 148.92,-59.77 152.14,-69.88 178.49,-147.35" fill="none" stroke="#bcbcbc" stroke-width="8" stroke-linecap="round" stroke-linejoin="round" /><polyline points="274.40,78.89 277.09,71.75 284.37,52.41 287.44,44.23 289.53,38.70 295.37,23.18 299.23,12.93 299.75,11.55 309.10,-13.28 313.01,-12.07 315.12,-17.84 318.87,-28.04 318.15,-32.67 328.10,-59.75 329.12,-62.53 331.01,-64.26 332.59,-65.72 342.57,-92.98 344.01,-100.45 358.32,-140.21 361.71,-142.86 368.59,-162.33 367.37,-165.32 373.40,-183.51 370.27,-199.75" fill="none" stroke="#bcbcbc" stroke-width="8" stroke-linecap="round" stroke-linejoin="round" /><polyline points="530.39,-660.68 526.38,-667.26 505.31,-701.83" fill="none" stroke="#bcbcbc" stroke-width="8" stroke-linecap="round" stroke-linejoin="round" /><polyline points="596.39,-205.21 693.09,-143.03 693.11,-142.99 693.11,-142.98 711.00,-140.65" fill="none" stroke="#bcbcbc" stroke-width="8" stroke-linecap="round" stroke-linejoin="round" /><polyline points="557.61,-335.09 660.50,-283.45 663.60,-281.14 663.39,-264.23 665.48,-246.89" fill="none" stroke="#bcbcbc" stroke-width="8" stroke-linecap="round" stroke-linejoin="round" /><polyline points="361.46,577.30 357.76,588.58 342.77,634.30 317.27,711.29 315.46,716.75 313.63,722.29 313.12,728.18" fill="none" stroke="#bcbcbc" stroke-width="8" stroke-linecap="round" stroke-linejoin="round" /><polyline points="651.09,299.58 651.71,293.84 651.84,288.49 651.80,288.31 648.15,272.55 646.66,265.96 645.94,262.79 645.20,259.54 641.20,241.91 633.38,206.68 627.70,185.50 626.89,182.22" fill="none" stroke="#bcbcbc" stroke-width="8" stroke-linecap="round" stroke-linejoin="round" /><polyline points="140.30,622.10 142.85,614.85 171.50,533.43 174.75,524.19" fill="none" stroke="#bcbcbc" stroke-width="8" stroke-linecap="round" stroke-linejoin="round" /><polyline points="783.57,-40.88 775.14,-43.26 717.90,-131.09 711.00,-140.65" fill="none" stroke="#bcbcbc" stroke-width="8" stroke-linecap="round" stroke-linejoin="round" /><polyline points="-157.42,169.86 51.20,219.84 65.58,225.09" fill="none" stroke="#bcbcbc" stroke-width="8" stroke-linecap="round" stroke-linejoin="round" /><polyline points="500.56,-611.04 581.82,-580.94 593.26,-582.90" fill="none" stroke="#bcbcbc" stroke-width="8" stroke-linecap="round" stroke-linejoin="round" />
    <polyline points="167.85,352.80 167.20,345.45 180.33,271.94 182.17,262.74 183.54,257.93 187.15,239.28 191.21,216.46 195.64,196.37 200.03,176.32 202.79,170.67 204.60,167.20" fill="none" stroke="#ffffff" stroke-width="16" stroke-linecap="round" stroke-linejoin="round" />
    <polyline points="167.85,352.80 167.20,345.45 180.33,271.94 182.17,262.74 183.54,257.93 187.15,239.28 191.21,216.46 195.64,196.37 200.03,176.32 202.79,170.67 204.60,167.20" fill="none" stroke="#111111" stroke-width="9" stroke-linecap="round" stroke-linejoin="round" />
    
            <g transform="translate(167.85,352.80)">
              <circle r="19" fill="#ffffff" stroke="#111111" stroke-width="4" />
              <text text-anchor="middle" dominant-baseline="central" font-family="Helvetica, Arial, sans-serif"
                font-size="18" font-weight="700" fill="#111111">1</text>
            </g>
            
            <g transform="translate(204.60,167.20)">
              <circle r="19" fill="#ffffff" stroke="#111111" stroke-width="4" />
              <text text-anchor="middle" dominant-baseline="central" font-family="Helvetica, Arial, sans-serif"
                font-size="18" font-weight="700" fill="#111111">2</text>
            </g>
            
  </g>
</svg>
