<svg xmlns="http://www.w3.org/2000/svg" width="520" height="520" viewBox="0 0 520 520">
  <rect width="100%" height="100%" fill="#ffffff" />
  <g>
    <polyline points="981.38,196.75 984.58,213.78 1005.23,358.25 1002.08,394.37" fill="none" stroke="#bcbcbc" stroke-width="8" stroke-linecap="round" stroke-linejoin="round" /><polyline points="561.65,1400.68 566.64,1385.33 593.10,1303.97 596.21,1294.38 599.37,1284.31 665.88,1072.18 671.23,1055.12 658.98,1024.95" fill="none" stroke="#bcbcbc" stroke-width="8" stroke-linecap="round" stroke-linejoin="round" /><polyline points="102.19,1212.00 101.12,1199.82 122.87,1078.01 125.92,1062.78 128.19,1054.80 134.18,1023.90 140.91,986.10 148.23,952.80 155.50,919.58 160.08,910.21 163.07,904.47" fill="none" stroke="#bcbcbc" stroke-width="8" stroke-linecap="round" stroke-linejoin="round" /><polyline points="-45.79,1787.38 -44.20,1771.82 -43.55,1764.68 -37.74,1700.33 -31.37,1643.66 -29.88,1630.43 -28.50,1614.55 -28.35,1613.22 -24.73,1581.65 -21.62,1549.57 -18.19,1518.61 -15.88,1494.51 -14.92,1479.64 -14.07,1465.90 -12.55,1450.42" fill="none" stroke="#bcbcbc" stroke-width="8" stroke-linecap="round" stroke-linejoin="round" /><polyline points="692.62,1438.50 696.43,1426.53 723.25,1342.22 726.29,1332.64 730.62,1319.00 733.73,1309.22 757.46,1206.84" fill="none" stroke="#bcbcbc" stroke-width="8" stroke-linecap="round" stroke-linejoin="round" /><polyline points="588.38,-229.10 598.28,-227.58 871.17,-185.64" fill="none" stroke="#bcbcbc" stroke-width="8" stroke-linecap="round" stroke-linejoin="round" /><polyline points="-112.18,1418.63 -140.59,1417.31 -157.91,1416.50 -167.31,1416.06 -175.57,1415.68 -239.89,1412.69 -329.35,1408.53 -371.99,1402.48 -386.26,1400.46 -398.65,1398.27 -482.52,1383.47 -494.24,1381.40 -496.84,1380.95 -511.32,1378.47 -522.45,1376.56 -593.52,1370.28 -607.05,1369.09 -612.02,1368.65 -627.38,1367.58 -657.47,1365.50" fill="none" stroke="#bcbcbc" stroke-width="8" stroke-linecap="round" stroke-linejoin="round" /><polyline points="300.47,1336.22 305.98,1320.56 355.55,1183.12 415.19,1009.76 419.01,998.89 421.68,991.30 423.84,985.06" fill="none" stroke="#bcbcbc" stroke-width="8" stroke-linecap="round" stroke-linejoin="round" /><polyline points="-612.02,1368.65 -613.28,1359.81 -613.58,1350.21 -611.70,1330.88 -607.38,1295.59 -604.50,1283.75 -599.83,1240.92 -598.98,1231.38 -597.61,1219.12 -596.60,1210.01 -594.68,1199.69 -591.13,1171.91 -588.66,1150.66 -585.04,1141.97" fill="none" stroke="#bcbcbc" stroke-width="8" stroke-linecap="round" stroke-linejoin="round" /><polyline points="-662.76,1131.11 -596.63,1140.35 -585.04,1141.97 -577.86,1143.12 -548.22,1147.84 -479.92,1158.72 -468.20,1160.68" fill="none" stroke="#bcbcbc" stroke-width="8" stroke-linecap="round" stroke-linejoin="round" /><polyline points="554.23,263.57 554.66,269.58 555.55,275.67 557.70,280.33 561.72,285.53 569.15,292.30 586.78,303.02 722.74,388.32 806.48,500.60 869.72,656.70 873.85,667.01" fill="none" stroke="#bcbcbc" stroke-width="8" stroke-linecap="round" stroke-linejoin="round" /><polyline points="532.46,719.05 535.28,723.72 536.01,724.93 538.34,736.70 554.29,813.85 559.36,838.33 562.98,855.77 568.63,891.12 571.27,907.42 573.09,917.36 575.08,926.34 577.46,931.59 580.95,937.65 582.82,940.51 618.14,991.09 637.25,1021.19 642.24,1028.38" fill="none" stroke="#bcbcbc" stroke-width="8" stroke-linecap="round" stroke-linejoin="round" /><polyline points="-481.71,1684.96 -479.83,1673.39 -478.08,1665.02 -477.62,1663.91 -454.10,1607.99 -439.12,1571.66 -434.57,1560.14 -429.75,1547.94 -424.51,1537.46 -423.66,1535.41 -416.49,1518.08 -410.95,1502.75 -406.19,1488.68 -403.18,1478.73 -399.79,1466.45 -395.89,1449.98 -392.93,1436.61 -389.39,1417.96 -388.65,1413.80 -386.26,1400.46" fill="none" stroke="#bcbcbc" stroke-width="8" stroke-linecap="round" stroke-linejoin="round" /><polyline points="657.51,123.56 732.48,175.95 742.58,178.10 749.97,186.55" fill="none" stroke="#bcbcbc" stroke-width="8" stroke-linecap="round" stroke-linejoin="round" /><polyline points="342.69,607.42 352.60,611.23 395.62,625.31 495.40,663.58 501.00,669.16 503.63,673.33" fill="none" stroke="#bcbcbc" stroke-width="8" stroke-linecap="round" stroke-linejoin="round" /><polyline points="528.64,1590.84 535.43,1573.13 568.98,1482.11 592.70,1413.34 597.62,1411.07" fill="none" stroke="#bcbcbc" stroke-width="8" stroke-linecap="round" stroke-linejoin="round" /><polyline points="54.44,1475.43 59.73,1463.72 60.26,1462.57 69.32,1432.18 84.15,1382.17 87.95,1369.37 90.90,1359.43 91.30,1353.64 90.70,1340.81" fill="none" stroke="#bcbcbc" stroke-width="8" stroke-linecap="round" stroke-linejoin="round" /><polyline points="671.04,723.05 662.53,724.80 643.26,721.37 640.28,713.42 606.88,700.69 598.98,702.75 568.86,691.69 564.36,694.83" fill="none" stroke="#bcbcbc" stroke-width="8" stroke-linecap="round" stroke-linejoin="round" /><polyline points="621.45,-309.99 636.59,-306.29 644.96,-304.83 844.02,-270.31" fill="none" stroke="#bcbcbc" stroke-width="8" stroke-linecap="round" stroke-linejoin="round" /><polyline points="466.74,1535.41 475.01,1512.06 491.11,1466.69 501.51,1447.36 516.47,1405.46 522.44,1388.74" fill="none" stroke="#bcbcbc" stroke-width="8" stroke-linecap="round" stroke-linejoin="round" /><polyline points="-623.98,629.25 -638.39,628.59 -642.01,632.98 -667.13,663.50 -754.93,764.93 -767.28,779.20" fill="none" stroke="#bcbcbc" stroke-width="8" stroke-linecap="round" stroke-linejoin="round" /><polyline points="146.19,716.12 139.83,730.21 139.06,731.92 116.94,789.59 94.65,853.07 88.71,870.00 85.34,878.74" fill="none" stroke="#bcbcbc" stroke-width="8" stroke-linecap="round" stroke-linejoin="round" /><polyline points="470.55,68.17 477.58,77.70 482.60,90.81 490.40,109.62 502.93,139.21 514.02,165.77 526.76,194.93 536.20,217.41 537.60,220.64 537.69,220.83 545.29,238.61 547.56,243.66 549.73,248.47 552.01,252.98 553.73,257.56 554.23,263.57" fill="none" stroke="#bcbcbc" stroke-width="8" stroke-linecap="round" stroke-linejoin="round" /><polyline points="-67.24,1000.39 -63.56,998.38 -58.42,994.29 -55.84,988.99 -21.68,859.44 -20.65,852.13 -16.48,838.79" fill="none" stroke="#bcbcbc" stroke-width="8" stroke-linecap="round" stroke-linejoin="round" /><polyline points="1127.35,797.66 1132.20,813.04 1135.61,829.20 1128.97,890.78 1121.30,937.10 1117.11,952.90 1116.72,954.33 1113.05,962.85 1108.05,971.89 1096.36,986.68 1102.02,1015.58 1083.71,1077.63 1073.60,1111.90 1052.92,1167.98 1022.63,1236.27 985.65,1301.72 974.10,1322.99 953.22,1357.93 869.79,1476.35 851.51,1500.98 780.73,1593.48 740.09,1639.72 683.25,1697.49 677.99,1698.04 665.15,1708.53" fill="none" stroke="#bcbcbc" stroke-width="8" stroke-linecap="round" stroke-linejoin="round" /><polyline points="97.94,1810.56 121.23,1738.33 125.04,1726.40 130.22,1718.89 141.34,1685.50 144.96,1674.16 190.90,1530.31 195.52,1515.84 199.33,1503.13 253.55,1332.48" fill="none" stroke="#bcbcbc" stroke-width="8" stroke-linecap="round" stroke-linejoin="round" /><polyline points="643.50,467.25 663.63,445.25 669.57,438.10 710.24,380.48" fill="none" stroke="#bcbcbc" stroke-width="8" stroke-linecap="round" stroke-linejoin="round" /><polyline points="241.11,475.97 296.55,495.27 299.61,500.25 315.35,505.53 324.70,508.72 369.39,523.82" fill="none" stroke="#bcbcbc" stroke-width="8" stroke-linecap="round" stroke-linejoin="round" /><polyline points="724.33,92.29 749.97,186.55 779.66,297.59 784.16,306.85 784.87,317.42 805.00,355.00 859.33,456.31 871.20,473.83 874.64,478.96 955.81,630.72 993.11,664.63 998.34,671.38 1005.72,677.69 1076.55,738.26 1081.35,742.37 1094.07,749.12" fill="none" stroke="#bcbcbc" stroke-width="8" stroke-linecap="round" stroke-linejoin="round" /><polyline points="448.88,1825.89 625.51,1723.28 656.95,1707.20 665.15,1708.53" fill="none" stroke="#bcbcbc" stroke-width="8" stroke-linecap="round" stroke-linejoin="round" /><polyline points="640.39,1679.10 651.35,1666.07 749.74,1469.74 756.26,1456.87 761.70,1444.12 793.48,1365.53 802.94,1341.85 830.34,1258.94 848.10,1152.36 850.20,1136.84" fill="none" stroke="#bcbcbc" stroke-width="8" stroke-linecap="round" stroke-linejoin="round" /><polyline points="564.46,524.49 562.74,526.26 560.37,534.52 560.13,535.34 549.45,576.45 552.26,587.19 549.93,596.81 546.88,609.41 539.07,618.46 530.20,654.38 519.75,662.27 508.60,669.92 503.63,673.33" fill="none" stroke="#bcbcbc" stroke-width="8" stroke-linecap="round" stroke-linejoin="round" /><polyline points="146.19,716.12 150.73,704.49 178.03,634.51 183.98,619.25 188.88,606.68 223.76,517.32 239.46,479.96 241.11,475.97 253.31,446.46 280.70,378.47 290.72,349.53 292.95,342.89 295.95,335.36" fill="none" stroke="#bcbcbc" stroke-width="8" stroke-linecap="round" stroke-linejoin="round" /><polyline points="451.62,291.93 456.90,307.64 630.13,455.62 724.65,537.86 865.84,660.60 878.16,670.46 883.68,673.91 908.18,696.15 940.90,724.06 1015.11,787.34 1039.08,807.95 1054.98,826.98" fill="none" stroke="#bcbcbc" stroke-width="8" stroke-linecap="round" stroke-linejoin="round" /><polyline points="738.04,36.96 746.83,31.32 798.88,9.69 809.57,-1.56" fill="none" stroke="#bcbcbc" stroke-width="8" stroke-linecap="round" stroke-linejoin="round" /><polyline points="798.16,1353.82 726.29,1332.65 596.21,1294.38" fill="none" stroke="#bcbcbc" stroke-width="8" stroke-linecap="round" stroke-linejoin="round" /><polyline points="566.18,-174.85 576.00,-168.08 895.86,-96.90" fill="none" stroke="#bcbcbc" stroke-width="8" stroke-linecap="round" stroke-linejoin="round" /><polyline points="961.29,878.36 944.76,841.58 908.07,754.08 905.34,747.12 899.06,731.15 875.41,670.97 873.92,667.07" fill="none" stroke="#bcbcbc" stroke-width="8" stroke-linecap="round" stroke-linejoin="round" /><polyline points="470.55,68.17 452.79,63.11 439.74,59.23 413.22,51.35 399.75,47.51 392.03,45.36 381.95,42.47" fill="none" stroke="#bcbcbc" stroke-width="8" stroke-linecap="round" stroke-linejoin="round" /><polyline points="7.53,549.43 6.63,546.49 5.80,544.43 2.14,535.34 -12.03,502.28 -25.51,468.70 -28.42,460.77 -31.77,451.64 -34.17,444.17 -38.13,432.97 -38.55,431.79 -51.44,400.01 -75.11,340.29 -80.42,337.26 -84.20,327.57 -91.75,301.34 -104.68,268.83 -107.47,261.44" fill="none" stroke="#bcbcbc" stroke-width="8" stroke-linecap="round" stroke-linejoin="round" /><polyline points="121.23,1738.33 134.67,1742.45 178.16,1755.70 191.78,1759.85" fill="none" stroke="#bcbcbc" stroke-width="8" stroke-linecap="round" stroke-linejoin="round" /><polyline points="933.35,52.60 935.88,42.35 934.85,38.46 933.61,33.76 925.67,4.67 907.97,-56.82 898.63,-88.26 895.86,-96.90 871.17,-185.64 857.85,-233.51 844.02,-270.31 831.53,-303.52 819.10,-326.35 807.02,-338.41 714.25,-451.77 707.39,-459.84 702.84,-467.30" fill="none" stroke="#bcbcbc" stroke-width="8" stroke-linecap="round" stroke-linejoin="round" /><polyline points="554.23,263.57 549.45,265.40 540.60,267.84 539.72,268.08 502.77,277.53 460.30,289.49 451.62,291.93 447.76,293.16 437.56,296.44 428.83,298.87 390.74,309.47 328.10,327.26 304.74,333.17 295.95,335.36 254.21,345.62 228.42,352.80 173.81,368.06 119.83,383.27 113.58,385.01 68.47,397.53 47.66,403.31 37.15,408.27 17.26,418.13 -22.25,438.18 -25.00,439.58 -34.17,444.17 -39.77,446.97 -47.57,451.06 -75.33,465.61 -125.90,493.99 -168.14,516.12 -174.18,519.29 -182.26,519.79 -187.11,522.37 -188.07,522.88 -233.90,548.00 -243.50,547.96 -254.52,553.72 -258.36,555.73 -261.61,557.43 -269.27,561.44 -275.30,575.21 -301.24,589.10 -309.49,593.52 -318.41,598.38 -354.50,618.02 -373.16,628.17 -382.56,630.88" fill="none" stroke="#bcbcbc" stroke-width="8" stroke-linecap="round" stroke-linejoin="round" /><polyline points="1073.60,1111.90 1054.34,1113.66 994.19,1119.17 991.48,1119.42 987.64,1119.77 981.43,1120.34 923.11,1125.70 902.82,1123.82 879.20,1129.74 860.28,1134.37 850.20,1136.84 825.16,1137.80 803.49,1136.69 792.44,1135.52 783.03,1132.67 776.11,1128.85 750.32,1110.61 687.66,1067.56 681.75,1063.56 675.73,1059.48 671.23,1055.12" fill="none" stroke="#bcbcbc" stroke-width="8" stroke-linecap="round" stroke-linejoin="round" /><polyline points="-345.66,385.22 -322.93,429.74 -319.48,442.46 -300.33,479.01 -292.42,489.46 -260.41,551.76 -258.36,555.73" fill="none" stroke="#bcbcbc" stroke-width="8" stroke-linecap="round" stroke-linejoin="round" /><polyline points="351.13,781.11 347.73,790.47 346.77,793.38 342.33,806.85 314.20,885.33 300.24,924.31 299.76,925.64 294.15,937.76 290.94,944.95" fill="none" stroke="#bcbcbc" stroke-width="8" stroke-linecap="round" stroke-linejoin="round" /><polyline points="724.33,92.29 721.21,85.62 713.02,84.54 686.50,90.62 681.11,89.92 676.89,84.26 669.39,49.76 710.03,43.47 728.84,37.91 738.04,36.96 747.95,72.19" fill="none" stroke="#bcbcbc" stroke-width="8" stroke-linecap="round" stroke-linejoin="round" /><polyline points="871.20,473.83 881.67,467.95 934.25,436.27 948.30,427.90 972.90,413.24 1013.36,387.07 1022.80,380.28 1093.78,336.25" fill="none" stroke="#bcbcbc" stroke-width="8" stroke-linecap="round" stroke-linejoin="round" /><polyline points="1119.30,681.82 1101.36,676.47 1090.93,667.92 1051.06,633.41 1049.70,632.20 1040.06,623.60 1034.40,613.55 934.25,436.27" fill="none" stroke="#bcbcbc" stroke-width="8" stroke-linecap="round" stroke-linejoin="round" /><polyline points="-10.95,667.77 146.19,716.12 159.01,720.19 276.27,757.36 278.72,758.14 296.29,763.71 304.93,766.45 316.15,769.52 339.30,777.36 351.13,781.11 361.79,784.49 449.05,812.17 541.18,841.12 548.80,843.51 559.36,838.33" fill="none" stroke="#bcbcbc" stroke-width="8" stroke-linecap="round" stroke-linejoin="round" /><polyline points="451.08,-108.05 519.15,-170.60 530.67,-181.19" fill="none" stroke="#bcbcbc" stroke-width="8" stroke-linecap="round" stroke-linejoin="round" /><polyline points="-688.72,901.21 -438.96,927.98" fill="none" stroke="#bcbcbc" stroke-width="8" stroke-linecap="round" stroke-linejoin="round" /><polyline points="64.73,204.04 117.23,185.27 171.38,165.69 205.02,152.61 307.74,115.25 337.55,104.93 343.78,102.78 351.25,100.21 359.63,97.33 360.66,96.98 377.58,90.18 384.93,87.22" fill="none" stroke="#bcbcbc" stroke-width="8" stroke-linecap="round" stroke-linejoin="round" /><polyline points="417.31,1474.44 466.74,1535.41 496.99,1565.88 510.09,1575.31 528.64,1590.84 546.05,1605.46 561.02,1620.06 561.39,1627.49" fill="none" stroke="#bcbcbc" stroke-width="8" stroke-linecap="round" stroke-linejoin="round" /><polyline points="470.55,68.17 489.92,19.62 521.27,-60.32 566.18,-174.85 588.38,-229.10 621.45,-309.99 648.57,-376.26 653.43,-385.05 677.28,-424.05 678.82,-426.57 687.54,-443.72 702.84,-467.30 711.39,-480.45 723.48,-499.06" fill="none" stroke="#bcbcbc" stroke-width="8" stroke-linecap="round" stroke-linejoin="round" /><polyline points="13.61,1366.30 10.43,1368.84 8.34,1371.86 4.06,1384.46 1.11,1393.56 -12.53,1434.36 -14.41,1440.25 -15.58,1443.90 -28.11,1440.31 -58.60,1430.09 -88.83,1419.95 -112.18,1418.63" fill="none" stroke="#bcbcbc" stroke-width="8" stroke-linecap="round" stroke-linejoin="round" /><polyline points="-583.64,1650.27 -533.83,1521.65 -528.29,1507.64 -523.32,1494.16 -517.31,1477.86 -509.95,1452.22 -502.27,1420.37 -499.12,1397.54 -496.84,1380.95 -493.62,1368.71 -481.89,1276.74 -468.20,1160.68 -461.12,1105.34 -453.21,1040.34 -438.96,927.98 -436.70,908.88 -422.30,791.37 -422.29,784.83 -419.11,749.96 -409.92,676.32 -407.62,663.47 -405.22,656.27 -401.46,648.33 -397.81,642.17 -389.75,633.45 -382.54,630.97" fill="none" stroke="#bcbcbc" stroke-width="8" stroke-linecap="round" stroke-linejoin="round" /><polyline points="503.63,673.33 506.35,677.65 515.49,691.91 529.16,713.83 532.46,719.05 537.91,714.91 564.36,694.83" fill="none" stroke="#bcbcbc" stroke-width="8" stroke-linecap="round" stroke-linejoin="round" /><polyline points="521.27,-60.32 790.37,-11.67 818.63,3.21 924.06,55.47 933.35,52.60" fill="none" stroke="#bcbcbc" stroke-width="8" stroke-linecap="round" stroke-linejoin="round" /><polyline points="7.53,549.43 2.76,556.40 -40.17,577.35 -71.71,617.43 -105.73,638.50 -129.00,656.07 -151.20,674.18 -162.58,684.55 -182.69,710.06 -205.17,742.29 -208.87,748.26" fill="none" stroke="#bcbcbc" stroke-width="8" stroke-linecap="round" stroke-linejoin="round" /><polyline points="52.92,578.18 51.06,582.32 46.99,588.27 39.29,597.74 -6.05,655.03 -30.05,719.65 -151.15,674.13" fill="none" stroke="#bcbcbc" stroke-width="8" stroke-linecap="round" stroke-linejoin="round" /><polyline points="-129.00,656.07 -133.69,641.87 -153.95,580.51 -161.82,568.39 -174.99,528.88 -176.13,525.47 -174.18,519.29 -177.34,509.22 -240.66,307.03" fill="none" stroke="#bcbcbc" stroke-width="8" stroke-linecap="round" stroke-linejoin="round" /><polyline points="612.96,-447.16 663.00,-445.84 665.34,-445.77 674.93,-445.50 687.54,-443.72" fill="none" stroke="#bcbcbc" stroke-width="8" stroke-linecap="round" stroke-linejoin="round" /><polyline points="355.55,1183.12 338.47,1182.91 193.78,1202.34 183.35,1203.44 171.43,1204.69 102.19,1212.00 8.92,1221.85 -40.54,1227.07 -67.89,1229.95 -90.10,1232.65 -101.51,1234.04 -114.35,1235.60 -176.41,1243.15 -191.28,1244.95 -237.11,1249.96 -481.89,1276.74" fill="none" stroke="#bcbcbc" stroke-width="8" stroke-linecap="round" stroke-linejoin="round" /><polyline points="141.34,1685.50 128.52,1681.38 68.65,1662.11 56.55,1658.21 46.05,1654.83 -17.38,1634.45 -29.88,1630.43 -46.42,1625.10 -147.39,1592.61 -158.75,1588.95" fill="none" stroke="#bcbcbc" stroke-width="8" stroke-linecap="round" stroke-linejoin="round" /><polyline points="391.66,473.36 426.49,484.21 553.83,523.53 555.02,523.90 564.46,524.49" fill="none" stroke="#bcbcbc" stroke-width="8" stroke-linecap="round" stroke-linejoin="round" /><polyline points="749.97,186.55 923.20,189.60" fill="none" stroke="#bcbcbc" stroke-width="8" stroke-linecap="round" stroke-linejoin="round" /><polyline points="665.15,1708.53 640.39,1679.10 630.00,1667.01 621.07,1658.67 609.19,1649.79 584.89,1635.22 561.39,1627.49 513.56,1612.71 474.44,1600.30 496.99,1565.88" fill="none" stroke="#bcbcbc" stroke-width="8" stroke-linecap="round" stroke-linejoin="round" /><polyline points="417.31,1474.44 382.83,1431.87 376.27,1423.78 341.54,1375.93 333.68,1361.32 335.57,1343.92 346.04,1343.82 371.87,1348.79 411.18,1356.35" fill="none" stroke="#bcbcbc" stroke-width="8" stroke-linecap="round" stroke-linejoin="round" /><polyline points="-33.76,1133.41 -27.40,1147.09 8.92,1221.85 62.91,1333.02 69.80,1347.20" fill="none" stroke="#bcbcbc" stroke-width="8" stroke-linecap="round" stroke-linejoin="round" /><polyline points="-615.39,1472.03 -602.40,1477.34 -541.57,1502.21 -528.29,1507.64 -514.32,1513.36 -442.70,1542.65 -429.75,1547.94" fill="none" stroke="#bcbcbc" stroke-width="8" stroke-linecap="round" stroke-linejoin="round" /><polyline points="-3.87,1022.56 122.87,1078.01" fill="none" stroke="#bcbcbc" stroke-width="8" stroke-linecap="round" stroke-linejoin="round" /><polyline points="564.46,524.49 583.76,525.50 585.00,526.60 593.66,534.28 606.39,545.65 608.74,550.22 652.62,588.64 655.86,594.78 686.71,622.01 694.48,624.38 718.48,645.40 723.86,647.85 760.05,678.56 768.11,685.70 772.56,692.78" fill="none" stroke="#bcbcbc" stroke-width="8" stroke-linecap="round" stroke-linejoin="round" /><polyline points="-651.16,1022.69 -453.21,1040.34" fill="none" stroke="#bcbcbc" stroke-width="8" stroke-linecap="round" stroke-linejoin="round" /><polyline points="-209.18,1759.84 -203.04,1746.78 -201.47,1740.97 -192.87,1709.28 -161.73,1599.47 -158.75,1588.95 -155.60,1577.42 -141.49,1525.83 -117.67,1438.71 -112.18,1418.63" fill="none" stroke="#bcbcbc" stroke-width="8" stroke-linecap="round" stroke-linejoin="round" /><polyline points="-33.76,1133.41 -3.87,1022.56 -67.24,1000.39 -83.83,1010.19 -91.39,1015.94 -96.99,1023.52 -100.93,1033.52 -115.51,1087.39 -103.75,1093.38 -91.87,1096.26 -65.61,1103.10 -45.95,1109.36 -33.76,1133.41" fill="none" stroke="#bcbcbc" stroke-width="8" stroke-linecap="round" stroke-linejoin="round" /><polyline points="-115.51,1087.39 -129.39,1085.46 -453.21,1040.34" fill="none" stroke="#bcbcbc" stroke-width="8" stroke-linecap="round" stroke-linejoin="round" /><polyline points="411.18,1356.35 441.21,1362.92 522.44,1388.74 545.16,1395.92 599.07,1411.49 653.38,1427.15 693.58,1438.77 757.89,1457.34 771.17,1461.18 803.62,1472.06 857.05,1486.29 861.76,1487.17" fill="none" stroke="#bcbcbc" stroke-width="8" stroke-linecap="round" stroke-linejoin="round" /><polyline points="449.28,1825.66 438.32,1828.41 426.47,1861.44 408.09,1856.22 324.54,1827.74 314.49,1825.60 292.12,1824.00 190.93,1824.40 168.63,1821.56 118.26,1813.86 97.94,1810.56 -46.16,1787.32 -101.96,1778.41 -208.39,1759.98 -225.57,1756.57 -465.74,1689.44 -480.90,1685.19 -583.64,1650.27 -608.91,1641.30 -672.05,1615.14 -708.04,1601.52" fill="none" stroke="#bcbcbc" stroke-width="8" stroke-linecap="round" stroke-linejoin="round" /><polyline points="669.39,49.76 658.99,47.62 520.18,64.03 470.55,68.17" fill="none" stroke="#bcbcbc" stroke-width="8" stroke-linecap="round" stroke-linejoin="round" /><polyline points="411.18,1356.35 416.04,1348.21 445.17,1273.40 477.72,1160.27 486.02,1135.90 490.46,1129.27 521.88,1028.40 523.44,1016.36 524.63,1008.49" fill="none" stroke="#bcbcbc" stroke-width="8" stroke-linecap="round" stroke-linejoin="round" /><polyline points="554.23,263.57 557.55,262.30 562.04,258.73 568.87,250.74 657.51,123.56 681.11,89.92" fill="none" stroke="#bcbcbc" stroke-width="8" stroke-linecap="round" stroke-linejoin="round" /><polyline points="948.71,730.77 950.52,725.55 995.07,673.13 998.34,671.38 1006.08,660.79 1032.00,631.02 1040.06,623.60" fill="none" stroke="#bcbcbc" stroke-width="8" stroke-linecap="round" stroke-linejoin="round" /><polyline points="987.64,1119.77 987.03,1112.76 986.55,1107.33 984.20,1096.96 981.39,1090.19 977.89,1072.41 977.58,1065.97 975.20,1051.58 964.60,1046.04 956.12,1049.28 940.95,1052.92 928.95,1054.79 917.43,1057.57 901.53,1061.20 894.28,1062.85" fill="none" stroke="#bcbcbc" stroke-width="8" stroke-linecap="round" stroke-linejoin="round" /><polyline points="-182.89,862.34 -150.49,786.38 -148.69,781.44" fill="none" stroke="#bcbcbc" stroke-width="8" stroke-linecap="round" stroke-linejoin="round" /><polyline points="671.04,723.05 686.66,717.00 694.82,713.84 701.14,707.44 727.17,701.02 735.91,703.25 754.76,698.39 769.13,694.69 772.56,692.78 786.50,689.37 857.77,671.90 873.92,667.07" fill="none" stroke="#bcbcbc" stroke-width="8" stroke-linecap="round" stroke-linejoin="round" /><polyline points="13.61,1366.30 47.23,1354.09 58.48,1350.65 69.80,1347.20 90.70,1340.81 106.95,1338.48 162.47,1332.40 173.62,1331.79 223.29,1332.22 253.55,1332.48 264.93,1331.89 283.16,1333.74 288.86,1334.56 300.47,1336.22 335.57,1343.92" fill="none" stroke="#bcbcbc" stroke-width="8" stroke-linecap="round" stroke-linejoin="round" /><polyline points="173.81,368.06 168.24,349.23 147.55,279.27 122.42,199.51 117.23,185.27 111.96,171.92 105.30,152.69" fill="none" stroke="#bcbcbc" stroke-width="8" stroke-linecap="round" stroke-linejoin="round" /><polyline points="113.63,1495.98 118.05,1482.02 162.75,1341.07 162.47,1332.40" fill="none" stroke="#bcbcbc" stroke-width="8" stroke-linecap="round" stroke-linejoin="round" /><polyline points="173.62,1331.79 182.47,1213.11 183.35,1203.44 184.71,1192.17 184.73,1191.67 185.31,1177.90 188.27,1140.54 189.93,1123.14 192.21,1103.38 194.28,1089.15 196.14,1080.21 198.49,1073.46 203.08,1058.24 212.58,1026.55 224.65,985.65 237.96,943.82 240.68,935.29 242.86,929.10" fill="none" stroke="#bcbcbc" stroke-width="8" stroke-linecap="round" stroke-linejoin="round" /><polyline points="-115.51,1087.39 -117.86,1097.91 -117.46,1101.27 -103.04,1221.33 -101.51,1234.04 -102.17,1247.12 -105.95,1321.80 -107.53,1352.99 -108.34,1369.08 -109.79,1397.76 -110.55,1412.70 -112.18,1418.63" fill="none" stroke="#bcbcbc" stroke-width="8" stroke-linecap="round" stroke-linejoin="round" /><polyline points="-182.89,862.34 -235.32,846.75 -241.98,842.48 -274.61,832.97 -283.78,833.07 -324.78,820.72 -331.40,815.83 -368.71,804.52 -414.48,792.04 -414.71,792.02 -422.30,791.37" fill="none" stroke="#bcbcbc" stroke-width="8" stroke-linecap="round" stroke-linejoin="round" /><polyline points="772.56,692.78 774.38,695.17 781.98,706.50 796.03,727.45 809.26,740.71 834.69,769.26 830.40,795.64 828.21,805.54 825.18,809.72 831.56,819.16 841.42,839.46 861.13,877.49 870.84,896.22 876.88,913.05 879.60,920.87" fill="none" stroke="#bcbcbc" stroke-width="8" stroke-linecap="round" stroke-linejoin="round" /><polyline points="905.34,747.12 898.03,749.40 849.88,764.38 842.98,766.60 834.69,769.26" fill="none" stroke="#bcbcbc" stroke-width="8" stroke-linecap="round" stroke-linejoin="round" /><polyline points="559.36,838.33 574.41,833.45 683.70,777.64 698.32,770.50 749.83,755.62 799.77,741.58 809.26,740.71" fill="none" stroke="#bcbcbc" stroke-width="8" stroke-linecap="round" stroke-linejoin="round" /><polyline points="571.27,907.42 697.25,848.78 702.56,845.28 714.88,841.69 798.83,817.26 811.56,812.39 825.18,809.72" fill="none" stroke="#bcbcbc" stroke-width="8" stroke-linecap="round" stroke-linejoin="round" /><polyline points="545.56,-321.78 596.56,-315.48 601.68,-314.85 621.45,-309.99" fill="none" stroke="#bcbcbc" stroke-width="8" stroke-linecap="round" stroke-linejoin="round" /><polyline points="981.38,196.75 990.43,194.87 1024.22,211.43 1028.67,215.84 1092.11,323.23 1093.78,336.25 1102.03,343.12 1100.72,347.87 1100.52,355.61 1101.66,366.43 1118.46,435.49 1119.95,483.32 1122.30,559.69 1126.25,662.47 1110.16,707.26 1099.80,734.57 1084.67,773.05 1080.29,784.18 1077.44,787.29 1072.87,817.07" fill="none" stroke="#bcbcbc" stroke-width="8" stroke-linecap="round" stroke-linejoin="round" /><polyline points="1098.67,998.47 1083.24,991.75 1044.68,964.85 993.82,929.10 965.84,906.48 946.97,886.26" fill="none" stroke="#bcbcbc" stroke-width="8" stroke-linecap="round" stroke-linejoin="round" /><polyline points="474.44,1600.30 459.29,1595.49 434.70,1587.70 422.97,1583.98 409.19,1579.61 391.77,1574.09 376.03,1569.10 360.46,1564.16 291.06,1542.13 278.90,1538.28 263.81,1533.49 260.48,1532.44 220.78,1521.95 209.57,1519.24 195.52,1515.84 180.82,1512.27 127.84,1499.43 113.63,1495.98 98.37,1490.68 66.47,1479.60 54.44,1475.43 43.69,1471.93 -6.26,1454.17 -12.55,1450.42 -15.58,1443.90" fill="none" stroke="#bcbcbc" stroke-width="8" stroke-linecap="round" stroke-linejoin="round" /><polyline points="702.56,845.28 698.88,832.09 687.91,792.77 683.70,777.64 677.60,766.34 677.03,764.25 673.44,750.93 677.63,745.04 672.60,728.26 671.04,723.05" fill="none" stroke="#bcbcbc" stroke-width="8" stroke-linecap="round" stroke-linejoin="round" /><polyline points="684.22,364.10 694.65,359.19 751.60,327.79 784.16,306.85 807.12,291.18 812.19,287.41 830.67,274.56 849.83,260.41 861.95,251.59 876.41,241.02 926.66,218.34 933.17,218.69 942.70,214.18 981.38,196.75" fill="none" stroke="#bcbcbc" stroke-width="8" stroke-linecap="round" stroke-linejoin="round" /><polyline points="52.92,578.18 61.14,581.52 66.57,583.18 168.42,614.47 183.98,619.25" fill="none" stroke="#bcbcbc" stroke-width="8" stroke-linecap="round" stroke-linejoin="round" /><polyline points="-674.61,807.25 -747.38,785.22" fill="none" stroke="#bcbcbc" stroke-width="8" stroke-linecap="round" stroke-linejoin="round" /><polyline points="500.83,-219.00 518.87,-196.14 521.57,-192.73 530.67,-181.19 541.05,-179.97 562.39,-177.47 566.18,-174.85" fill="none" stroke="#bcbcbc" stroke-width="8" stroke-linecap="round" stroke-linejoin="round" /><polyline points="1127.35,797.66 1098.76,802.99 1069.45,818.92 1042.27,834.05 1016.57,846.90 985.52,863.77 963.03,877.43 918.59,901.26 745.10,988.54 700.13,1008.35 670.41,1021.21 655.68,1026.03 643.50,1028.30 623.56,1029.51 595.18,1025.49 524.37,1008.49 423.84,985.06 291.58,945.17 242.86,929.10 163.07,904.47 86.77,879.30 -25.13,835.39 -81.09,811.29 -148.55,781.31 -260.46,719.99 -286.70,702.59 -353.09,660.82 -380.94,632.98 -422.70,578.90 -491.51,507.95 -518.55,484.12" fill="none" stroke="#bcbcbc" stroke-width="8" stroke-linecap="round" stroke-linejoin="round" /><polyline points="584.89,1635.22 586.07,1628.68 590.30,1617.99 629.98,1525.13 644.97,1490.32 662.64,1446.94 666.95,1431.07" fill="none" stroke="#bcbcbc" stroke-width="8" stroke-linecap="round" stroke-linejoin="round" /><polyline points="-176.41,1243.15 -221.49,1221.33 -324.07,1171.68 -449.89,1110.78 -461.12,1105.34" fill="none" stroke="#bcbcbc" stroke-width="8" stroke-linecap="round" stroke-linejoin="round" /><polyline points="564.46,524.49 575.84,512.83 606.11,481.85 630.13,455.62" fill="none" stroke="#bcbcbc" stroke-width="8" stroke-linecap="round" stroke-linejoin="round" /><polyline points="-309.49,593.52 -321.99,576.96 -380.59,499.37 -464.24,431.68" fill="none" stroke="#bcbcbc" stroke-width="8" stroke-linecap="round" stroke-linejoin="round" /><polyline points="-672.50,1614.95 -661.06,1587.82 -624.69,1497.14 -620.28,1485.23 -615.39,1472.03 -613.54,1467.27 -613.04,1459.81 -608.39,1389.31 -607.05,1369.09" fill="none" stroke="#bcbcbc" stroke-width="8" stroke-linecap="round" stroke-linejoin="round" /><polyline points="-697.31,886.00 -674.61,807.25 -644.65,703.37 -640.94,690.51 -636.82,675.91 -627.59,643.20 -626.62,639.77 -623.98,629.25 -619.76,617.36 -618.74,614.48 -613.41,601.28 -602.96,578.22 -599.83,571.60" fill="none" stroke="#bcbcbc" stroke-width="8" stroke-linecap="round" stroke-linejoin="round" /><polyline points="-640.94,690.51 -595.00,702.26 -497.68,727.28 -442.24,744.54 -419.11,749.96" fill="none" stroke="#bcbcbc" stroke-width="8" stroke-linecap="round" stroke-linejoin="round" /><polyline points="304.74,333.17 306.31,323.61 307.88,313.68 314.62,280.47 331.46,203.18 345.29,134.04 347.81,119.69 351.25,100.21 351.25,100.20" fill="none" stroke="#bcbcbc" stroke-width="8" stroke-linecap="round" stroke-linejoin="round" /><polyline points="168.72,1821.57 189.23,1769.25 191.78,1759.85 273.19,1553.19 278.90,1538.28 283.53,1525.63 332.18,1384.10 341.54,1375.93" fill="none" stroke="#bcbcbc" stroke-width="8" stroke-linecap="round" stroke-linejoin="round" /><polyline points="447.76,293.16 447.76,293.14 444.87,278.01 444.42,276.17 437.39,247.57 437.40,247.48 432.60,228.08 412.29,158.46 409.73,151.00 396.01,113.71 391.55,102.57 388.67,95.39 384.94,87.23 384.93,87.22 384.93,87.18 382.21,57.20 381.95,42.47" fill="none" stroke="#bcbcbc" stroke-width="8" stroke-linecap="round" stroke-linejoin="round" /><polyline points="417.31,1474.44 412.09,1480.08 404.31,1489.34 382.37,1551.19 376.03,1569.10" fill="none" stroke="#bcbcbc" stroke-width="8" stroke-linecap="round" stroke-linejoin="round" /><polyline points="52.92,578.18 55.92,570.06 56.59,568.18 70.83,528.39 76.18,511.63 119.83,383.27" fill="none" stroke="#bcbcbc" stroke-width="8" stroke-linecap="round" stroke-linejoin="round" /><polyline points="278.72,758.14 283.17,746.31 295.24,714.26 300.34,700.72 303.79,691.55 313.47,665.84 319.86,648.85 320.72,646.56 336.21,605.42 342.69,607.42 346.20,597.87 352.40,580.97 351.22,573.29 367.70,528.43 369.39,523.82 372.51,520.95 375.14,518.53 391.66,473.36 394.05,460.99 417.76,395.11 423.37,390.72 434.78,358.45 432.75,353.49 442.74,323.35 437.56,296.44" fill="none" stroke="#bcbcbc" stroke-width="8" stroke-linecap="round" stroke-linejoin="round" /><polyline points="702.84,-467.30 696.20,-478.19 661.29,-535.47" fill="none" stroke="#bcbcbc" stroke-width="8" stroke-linecap="round" stroke-linejoin="round" /><polyline points="812.19,287.41 972.40,390.43 972.44,390.50 972.44,390.52 1002.08,394.37" fill="none" stroke="#bcbcbc" stroke-width="8" stroke-linecap="round" stroke-linejoin="round" /><polyline points="747.95,72.19 918.40,157.75 923.55,161.59 923.20,189.60 926.66,218.34" fill="none" stroke="#bcbcbc" stroke-width="8" stroke-linecap="round" stroke-linejoin="round" /><polyline points="422.97,1583.98 416.84,1602.68 392.00,1678.43 349.76,1806.01 346.76,1815.06 343.72,1824.23 342.87,1833.99" fill="none" stroke="#bcbcbc" stroke-width="8" stroke-linecap="round" stroke-linejoin="round" /><polyline points="902.82,1123.82 903.84,1114.31 904.06,1105.44 903.99,1105.13 897.95,1079.03 895.47,1068.11 894.28,1062.85 893.06,1057.47 886.43,1028.26 873.48,969.88 864.06,934.78 862.73,929.36" fill="none" stroke="#bcbcbc" stroke-width="8" stroke-linecap="round" stroke-linejoin="round" /><polyline points="56.55,1658.21 60.78,1646.20 108.24,1511.30 113.63,1495.98" fill="none" stroke="#bcbcbc" stroke-width="8" stroke-linecap="round" stroke-linejoin="round" /><polyline points="1122.30,559.68 1108.34,555.75 1013.50,410.21 1002.08,394.37" fill="none" stroke="#bcbcbc" stroke-width="8" stroke-linecap="round" stroke-linejoin="round" /><polyline points="-436.70,908.88 -91.07,991.69 -67.24,1000.39" fill="none" stroke="#bcbcbc" stroke-width="8" stroke-linecap="round" stroke-linejoin="round" /><polyline points="653.43,-385.05 788.06,-335.17 807.02,-338.41" fill="none" stroke="#bcbcbc" stroke-width="8" stroke-linecap="round" stroke-linejoin="round" />
    <polyline points="228.42,352.80 223.25,337.03 169.81,174.04 167.20,167.20" fill="none" stroke="#ffffff" stroke-width="16" stroke-linecap="round" stroke-linejoin="round" />
    <polyline points="228.42,352.80 223.25,337.03 169.81,174.04 167.20,167.20" fill="none" stroke="#111111" stroke-width="9" stroke-linecap="round" stroke-linejoin="round" />
    
            <g transform="translate(228.42,352.80)">
              <circle r="19" fill="#ffffff" stroke="#111111" stroke-width="4" />
              <text text-anchor="middle" dominant-baseline="central" font-family="Helvetica, Arial, sans-serif"
                font-size="18" font-weight="700" fill="#111111">1</text>
            </g>
            
            <g transform="translate(167.20,167.20)">
              <circle r="19" fill="#ffffff" stroke="#111111" stroke-width="4" />
              <text text-anchor="middle" dominant-baseline="central" font-family="Helvetica, Arial, sans-serif"
                font-size="18" font-weight="700" fill="#111111">2</text>
            </g>
            
  </g>
</svg>
