<svg xmlns="http://www.w3.org/2000/svg" width="520" height="520" viewBox="0 0 520 520">
  <rect width="100%" height="100%" fill="#ffffff" />
  <g>
    <polyline points="733.09,-523.34 734.85,-513.96 746.23,-434.39 744.49,-414.49" fill="none" stroke="#bcbcbc" stroke-width="8" stroke-linecap="round" stroke-linejoin="round" /><polyline points="501.85,139.80 504.60,131.34 519.18,86.53 520.89,81.25 522.63,75.70 559.28,-41.14 562.22,-50.54 555.48,-67.16" fill="none" stroke="#bcbcbc" stroke-width="8" stroke-linecap="round" stroke-linejoin="round" /><polyline points="248.73,35.87 248.14,29.16 260.12,-37.93 261.80,-46.32 263.05,-50.72 266.35,-67.73 270.06,-88.56 274.09,-106.90 278.10,-125.20 280.62,-130.36 282.27,-133.52" fill="none" stroke="#bcbcbc" stroke-width="8" stroke-linecap="round" stroke-linejoin="round" /><polyline points="318.27,-437.39 315.42,-446.07 285.98,-535.86 284.54,-539.62" fill="none" stroke="#bcbcbc" stroke-width="8" stroke-linecap="round" stroke-linejoin="round" /><polyline points="574.01,160.63 576.10,154.04 590.88,107.60 592.56,102.33 594.94,94.81 596.65,89.42 609.73,33.03" fill="none" stroke="#bcbcbc" stroke-width="8" stroke-linecap="round" stroke-linejoin="round" /><polyline points="516.58,-757.91 522.03,-757.07 672.38,-733.97" fill="none" stroke="#bcbcbc" stroke-width="8" stroke-linecap="round" stroke-linejoin="round" /><polyline points="130.63,149.69 114.98,148.96 105.44,148.52 100.25,148.28 95.71,148.06 60.27,146.42 10.98,144.12 -12.51,140.79 -20.37,139.68 -27.19,138.47 -73.40,130.32 -79.86,129.18 -81.29,128.94 -89.27,127.57 -95.40,126.52 -134.55,123.06 -142.01,122.40 -144.74,122.16 -153.21,121.57 -169.78,120.42" fill="none" stroke="#bcbcbc" stroke-width="8" stroke-linecap="round" stroke-linejoin="round" /><polyline points="357.97,104.29 361.00,95.67 388.31,19.97 421.17,-75.52 423.27,-81.51 424.74,-85.69 425.93,-89.13" fill="none" stroke="#bcbcbc" stroke-width="8" stroke-linecap="round" stroke-linejoin="round" /><polyline points="-144.74,122.16 -145.44,117.29 -145.60,112.00 -144.57,101.36 -142.19,81.92 -140.60,75.39 -138.03,51.80 -137.56,46.55 -136.81,39.79 -136.25,34.78 -135.19,29.09 -133.23,13.79 -131.88,2.09 -129.88,-2.70" fill="none" stroke="#bcbcbc" stroke-width="8" stroke-linecap="round" stroke-linejoin="round" /><polyline points="-172.70,-8.68 -136.27,-3.59 -129.88,-2.70 -125.92,-2.07 -109.59,0.53 -71.97,6.53 -65.51,7.60" fill="none" stroke="#bcbcbc" stroke-width="8" stroke-linecap="round" stroke-linejoin="round" /><polyline points="497.77,-486.54 498.00,-483.23 498.49,-479.88 499.67,-477.31 501.89,-474.45 505.99,-470.72 515.70,-464.81 590.60,-417.82 636.73,-355.98 671.58,-270.00 673.85,-264.32" fill="none" stroke="#bcbcbc" stroke-width="8" stroke-linecap="round" stroke-linejoin="round" /><polyline points="485.77,-235.65 487.32,-233.08 487.73,-232.42 489.01,-225.93 497.80,-183.44 500.59,-169.95 502.59,-160.34 505.70,-140.88 507.15,-131.90 508.15,-126.42 509.25,-121.47 510.56,-118.58 512.48,-115.24 513.51,-113.67 532.98,-85.81 543.50,-69.23 546.25,-65.27" fill="none" stroke="#bcbcbc" stroke-width="8" stroke-linecap="round" stroke-linejoin="round" /><polyline points="-72.95,296.39 -71.92,290.01 -70.96,285.40 -70.70,284.79 -57.74,253.99 -49.49,233.98 -46.98,227.63 -44.33,220.92 -41.44,215.14 -40.97,214.01 -37.02,204.47 -33.97,196.02 -31.35,188.27 -29.69,182.79 -27.82,176.03 -25.68,166.95 -24.04,159.59 -22.09,149.32 -21.68,147.03 -20.37,139.68" fill="none" stroke="#bcbcbc" stroke-width="8" stroke-linecap="round" stroke-linejoin="round" /><polyline points="554.66,-563.66 595.97,-534.80 601.53,-533.62 605.60,-528.96" fill="none" stroke="#bcbcbc" stroke-width="8" stroke-linecap="round" stroke-linejoin="round" /><polyline points="381.22,-297.14 386.68,-295.04 410.38,-287.29 465.36,-266.21 468.44,-263.13 469.89,-260.84" fill="none" stroke="#bcbcbc" stroke-width="8" stroke-linecap="round" stroke-linejoin="round" /><polyline points="483.67,244.54 487.41,234.79 505.89,184.65 518.96,146.77 521.67,145.53" fill="none" stroke="#bcbcbc" stroke-width="8" stroke-linecap="round" stroke-linejoin="round" /><polyline points="222.42,180.97 225.34,174.53 225.63,173.89 230.62,157.15 238.79,129.61 240.88,122.56 242.51,117.08 242.73,113.89 242.40,106.83" fill="none" stroke="#bcbcbc" stroke-width="8" stroke-linecap="round" stroke-linejoin="round" /><polyline points="562.12,-233.45 557.43,-232.48 546.81,-234.37 545.17,-238.75 526.77,-245.77 522.42,-244.63 505.82,-250.72 503.35,-248.99" fill="none" stroke="#bcbcbc" stroke-width="8" stroke-linecap="round" stroke-linejoin="round" /><polyline points="534.80,-802.47 543.14,-800.43 547.75,-799.63 657.42,-780.61" fill="none" stroke="#bcbcbc" stroke-width="8" stroke-linecap="round" stroke-linejoin="round" /><polyline points="449.56,214.01 454.12,201.15 462.99,176.16 468.72,165.51 476.96,142.43 480.25,133.22" fill="none" stroke="#bcbcbc" stroke-width="8" stroke-linecap="round" stroke-linejoin="round" /><polyline points="-151.33,-285.12 -159.27,-285.48 -161.26,-283.06 -175.10,-266.25 -223.48,-210.38 -230.28,-202.52" fill="none" stroke="#bcbcbc" stroke-width="8" stroke-linecap="round" stroke-linejoin="round" /><polyline points="272.97,-237.26 269.46,-229.50 269.04,-228.56 256.86,-196.80 244.58,-161.83 241.30,-152.51 239.44,-147.69" fill="none" stroke="#bcbcbc" stroke-width="8" stroke-linecap="round" stroke-linejoin="round" /><polyline points="451.67,-594.17 455.54,-588.92 458.30,-581.70 462.60,-571.34 469.50,-555.04 475.61,-540.41 482.63,-524.35 487.83,-511.97 488.60,-510.19 488.65,-510.08 492.84,-500.29 494.09,-497.50 495.28,-494.85 496.54,-492.37 497.49,-489.85 497.77,-486.54" fill="none" stroke="#bcbcbc" stroke-width="8" stroke-linecap="round" stroke-linejoin="round" /><polyline points="155.39,-80.68 157.41,-81.79 160.25,-84.04 161.66,-86.96 180.49,-158.32 181.05,-162.35 183.35,-169.70" fill="none" stroke="#bcbcbc" stroke-width="8" stroke-linecap="round" stroke-linejoin="round" /><polyline points="813.51,-192.35 816.18,-183.88 818.06,-174.98 814.40,-141.06 810.17,-115.55 807.86,-106.85 807.65,-106.06 805.63,-101.36 802.87,-96.38 796.43,-88.24 799.55,-72.32 789.47,-38.14 783.90,-19.27 772.50,11.63 755.82,49.24 735.44,85.29 729.08,97.01 717.57,116.25 671.61,181.48 661.54,195.05 622.55,246.00 600.16,271.47 568.85,303.29 565.95,303.59 558.87,309.37" fill="none" stroke="#bcbcbc" stroke-width="8" stroke-linecap="round" stroke-linejoin="round" /><polyline points="246.39,365.57 259.22,325.78 261.32,319.21 264.17,315.08 270.29,296.69 272.29,290.44 297.60,211.20 300.15,203.23 302.24,196.23 332.11,102.23" fill="none" stroke="#bcbcbc" stroke-width="8" stroke-linecap="round" stroke-linejoin="round" /><polyline points="546.94,-374.35 558.04,-386.46 561.31,-390.41 583.72,-422.14" fill="none" stroke="#bcbcbc" stroke-width="8" stroke-linecap="round" stroke-linejoin="round" /><polyline points="325.26,-369.55 355.80,-358.91 357.49,-356.17 366.16,-353.26 371.31,-351.50 395.93,-343.19" fill="none" stroke="#bcbcbc" stroke-width="8" stroke-linecap="round" stroke-linejoin="round" /><polyline points="591.48,-580.88 605.60,-528.96 621.96,-467.80 624.44,-462.70 624.83,-456.88 635.92,-436.18 665.85,-380.37 672.39,-370.72 674.29,-367.90 719.00,-284.31 739.55,-265.63 742.44,-261.91 746.50,-258.43 785.52,-225.07 788.17,-222.81 795.17,-219.09" fill="none" stroke="#bcbcbc" stroke-width="8" stroke-linecap="round" stroke-linejoin="round" /><polyline points="439.73,374.02 537.04,317.50 554.36,308.64 558.87,309.37" fill="none" stroke="#bcbcbc" stroke-width="8" stroke-linecap="round" stroke-linejoin="round" /><polyline points="545.23,293.16 551.27,285.98 605.47,177.84 609.06,170.75 612.06,163.73 629.57,120.44 634.79,107.40 649.88,61.73 659.66,3.02 660.82,-5.52" fill="none" stroke="#bcbcbc" stroke-width="8" stroke-linecap="round" stroke-linejoin="round" /><polyline points="503.40,-342.82 502.45,-341.85 501.15,-337.30 501.02,-336.84 495.13,-314.20 496.68,-308.28 495.39,-302.98 493.72,-296.05 489.41,-291.06 484.53,-271.27 478.77,-266.93 472.63,-262.72 469.89,-260.84" fill="none" stroke="#bcbcbc" stroke-width="8" stroke-linecap="round" stroke-linejoin="round" /><polyline points="272.97,-237.26 275.47,-243.67 290.51,-282.22 293.79,-290.63 296.49,-297.55 315.70,-346.77 324.35,-367.35 325.26,-369.55 331.99,-385.80 347.07,-423.25 352.59,-439.19 353.82,-442.85 355.48,-446.99" fill="none" stroke="#bcbcbc" stroke-width="8" stroke-linecap="round" stroke-linejoin="round" /><polyline points="441.24,-470.92 444.15,-462.26 539.58,-380.75 591.66,-335.45 669.44,-267.85 676.22,-262.42 679.27,-260.51 692.76,-248.26 710.79,-232.89 751.67,-198.04 764.88,-186.68 773.64,-176.20" fill="none" stroke="#bcbcbc" stroke-width="8" stroke-linecap="round" stroke-linejoin="round" /><polyline points="599.03,-611.36 603.87,-614.46 632.54,-626.38 638.44,-632.58" fill="none" stroke="#bcbcbc" stroke-width="8" stroke-linecap="round" stroke-linejoin="round" /><polyline points="632.15,113.99 592.56,102.33 520.89,81.25" fill="none" stroke="#bcbcbc" stroke-width="8" stroke-linecap="round" stroke-linejoin="round" /><polyline points="504.35,-728.03 509.76,-724.30 685.98,-685.09" fill="none" stroke="#bcbcbc" stroke-width="8" stroke-linecap="round" stroke-linejoin="round" /><polyline points="722.02,-147.90 712.91,-168.16 692.70,-216.36 691.20,-220.19 687.74,-228.99 674.71,-262.14 673.89,-264.28" fill="none" stroke="#bcbcbc" stroke-width="8" stroke-linecap="round" stroke-linejoin="round" /><polyline points="451.67,-594.17 441.88,-596.95 434.69,-599.09 420.08,-603.43 412.66,-605.55 408.40,-606.73 402.85,-608.32" fill="none" stroke="#bcbcbc" stroke-width="8" stroke-linecap="round" stroke-linejoin="round" /><polyline points="196.58,-329.08 196.08,-330.70 195.63,-331.83 193.61,-336.84 185.80,-355.05 178.38,-373.55 176.77,-377.92 174.93,-382.95 173.60,-387.06 171.42,-393.23 171.19,-393.88 164.09,-411.38 151.05,-444.28 148.12,-445.95 146.04,-451.29 141.88,-465.73 134.76,-483.64 133.22,-487.71" fill="none" stroke="#bcbcbc" stroke-width="8" stroke-linecap="round" stroke-linejoin="round" /><polyline points="259.22,325.78 266.62,328.05 290.58,335.35 298.08,337.64" fill="none" stroke="#bcbcbc" stroke-width="8" stroke-linecap="round" stroke-linejoin="round" /><polyline points="706.63,-602.75 708.02,-608.39 707.46,-610.53 706.77,-613.12 702.40,-629.14 692.65,-663.02 687.50,-680.33 685.98,-685.09 672.38,-733.97 665.03,-760.34 657.42,-780.61 650.54,-798.90 643.69,-811.48 637.03,-818.12 585.93,-880.56 582.14,-885.00 579.64,-889.11" fill="none" stroke="#bcbcbc" stroke-width="8" stroke-linecap="round" stroke-linejoin="round" /><polyline points="497.77,-486.54 495.13,-485.53 490.26,-484.19 489.77,-484.05 469.42,-478.85 446.01,-472.26 441.24,-470.92 439.11,-470.24 433.49,-468.43 428.68,-467.10 407.70,-461.26 373.18,-451.45 360.32,-448.20 355.48,-446.99 332.48,-441.35 318.27,-437.39 288.18,-428.98 258.44,-420.60 255.00,-419.65 230.15,-412.75 218.68,-409.57 212.90,-406.84 201.94,-401.40 180.17,-390.36 178.66,-389.59 173.60,-387.06 170.52,-385.52 166.22,-383.27 150.93,-375.25 123.07,-359.62 99.80,-347.43 96.47,-345.68 92.02,-345.41 89.35,-343.99 88.82,-343.71 63.57,-329.87 58.28,-329.89 52.21,-326.72 50.09,-325.61 48.30,-324.67 44.08,-322.47 40.76,-314.88 26.47,-307.23 21.93,-304.80 17.01,-302.12 -2.87,-291.30 -13.15,-285.71 -18.33,-284.22" fill="none" stroke="#bcbcbc" stroke-width="8" stroke-linecap="round" stroke-linejoin="round" /><polyline points="783.90,-19.27 773.29,-18.29 740.15,-15.26 738.65,-15.12 736.54,-14.93 733.12,-14.61 700.99,-11.66 689.81,-12.70 676.80,-9.44 666.37,-6.88 660.82,-5.52 647.03,-5.00 635.08,-5.61 629.00,-6.25 623.82,-7.82 620.00,-9.93 605.79,-19.98 571.27,-43.68 568.02,-45.89 564.70,-48.14 562.22,-50.54" fill="none" stroke="#bcbcbc" stroke-width="8" stroke-linecap="round" stroke-linejoin="round" /><polyline points="2.00,-419.53 14.52,-395.01 16.42,-388.00 26.97,-367.87 31.33,-362.11 48.97,-327.80 50.09,-325.61" fill="none" stroke="#bcbcbc" stroke-width="8" stroke-linecap="round" stroke-linejoin="round" /><polyline points="385.88,-201.47 384.00,-196.31 383.47,-194.71 381.03,-187.29 365.53,-144.06 357.84,-122.59 357.57,-121.86 354.48,-115.19 352.71,-111.22" fill="none" stroke="#bcbcbc" stroke-width="8" stroke-linecap="round" stroke-linejoin="round" /><polyline points="591.48,-580.88 589.76,-584.56 585.24,-585.15 570.63,-581.80 567.67,-582.19 565.34,-585.30 561.21,-604.31 583.60,-607.78 593.96,-610.83 599.03,-611.36 604.49,-591.96" fill="none" stroke="#bcbcbc" stroke-width="8" stroke-linecap="round" stroke-linejoin="round" /><polyline points="672.39,-370.72 678.16,-373.96 707.12,-391.41 714.87,-396.02 728.42,-404.10 750.71,-418.51 755.91,-422.25 795.01,-446.51" fill="none" stroke="#bcbcbc" stroke-width="8" stroke-linecap="round" stroke-linejoin="round" /><polyline points="809.08,-256.16 799.19,-259.11 793.44,-263.82 771.48,-282.82 770.73,-283.49 765.42,-288.23 762.30,-293.76 707.12,-391.41" fill="none" stroke="#bcbcbc" stroke-width="8" stroke-linecap="round" stroke-linejoin="round" /><polyline points="186.40,-263.90 272.97,-237.26 280.03,-235.03 344.63,-214.55 345.98,-214.12 355.66,-211.05 360.42,-209.54 366.60,-207.85 379.35,-203.54 385.88,-201.47 391.75,-199.61 439.82,-184.36 490.57,-168.41 494.77,-167.10 500.59,-169.95" fill="none" stroke="#bcbcbc" stroke-width="8" stroke-linecap="round" stroke-linejoin="round" /><polyline points="440.94,-691.24 478.44,-725.69 484.79,-731.52" fill="none" stroke="#bcbcbc" stroke-width="8" stroke-linecap="round" stroke-linejoin="round" /><polyline points="-187.00,-135.32 -49.40,-120.57" fill="none" stroke="#bcbcbc" stroke-width="8" stroke-linecap="round" stroke-linejoin="round" /><polyline points="228.09,-519.33 257.01,-529.67 286.84,-540.45 305.38,-547.66 361.97,-568.24 378.39,-573.92 381.82,-575.10 385.94,-576.52 390.56,-578.11 391.12,-578.30 400.44,-582.05 404.50,-583.68" fill="none" stroke="#bcbcbc" stroke-width="8" stroke-linecap="round" stroke-linejoin="round" /><polyline points="422.33,180.43 449.56,214.01 466.23,230.79 473.45,235.99 483.67,244.54 493.26,252.60 501.50,260.64 501.71,264.73" fill="none" stroke="#bcbcbc" stroke-width="8" stroke-linecap="round" stroke-linejoin="round" /><polyline points="451.67,-594.17 462.34,-620.91 479.61,-664.94 504.35,-728.03 516.58,-757.91 534.80,-802.47 549.74,-838.97 552.41,-843.81 565.55,-865.29 566.40,-866.68 571.21,-876.13 579.64,-889.11 584.35,-896.36 591.01,-906.61" fill="none" stroke="#bcbcbc" stroke-width="8" stroke-linecap="round" stroke-linejoin="round" /><polyline points="199.93,120.87 198.18,122.26 197.02,123.93 194.67,130.87 193.04,135.88 185.53,158.35 184.49,161.60 183.85,163.61 176.95,161.63 160.14,156.00 143.49,150.42 130.63,149.69" fill="none" stroke="#bcbcbc" stroke-width="8" stroke-linecap="round" stroke-linejoin="round" /><polyline points="-129.11,277.28 -101.67,206.43 -98.62,198.72 -95.88,191.29 -92.57,182.31 -88.51,168.19 -84.28,150.64 -82.55,138.07 -81.29,128.94 -79.51,122.19 -73.05,71.53 -65.51,7.60 -61.61,-22.88 -57.25,-58.68 -49.40,-120.57 -48.16,-131.09 -40.22,-195.82 -40.22,-199.42 -38.47,-218.63 -33.41,-259.19 -32.14,-266.27 -30.81,-270.24 -28.74,-274.61 -26.73,-278.00 -22.29,-282.81 -18.32,-284.17" fill="none" stroke="#bcbcbc" stroke-width="8" stroke-linecap="round" stroke-linejoin="round" /><polyline points="469.89,-260.84 471.39,-258.46 476.42,-250.60 483.96,-238.53 485.77,-235.65 488.78,-237.93 503.35,-248.99" fill="none" stroke="#bcbcbc" stroke-width="8" stroke-linecap="round" stroke-linejoin="round" /><polyline points="479.61,-664.94 627.86,-638.15 643.43,-629.95 701.51,-601.16 706.63,-602.75" fill="none" stroke="#bcbcbc" stroke-width="8" stroke-linecap="round" stroke-linejoin="round" /><polyline points="196.58,-329.08 193.95,-325.25 170.30,-313.70 152.93,-291.63 134.18,-280.02 121.36,-270.34 109.13,-260.37 102.86,-254.65 91.78,-240.61 79.40,-222.85 77.36,-219.56" fill="none" stroke="#bcbcbc" stroke-width="8" stroke-linecap="round" stroke-linejoin="round" /><polyline points="221.58,-313.25 220.56,-310.97 218.31,-307.69 214.08,-302.47 189.09,-270.92 175.88,-235.32 109.16,-260.40" fill="none" stroke="#bcbcbc" stroke-width="8" stroke-linecap="round" stroke-linejoin="round" /><polyline points="121.36,-270.34 118.78,-278.16 107.61,-311.96 103.28,-318.64 96.02,-340.40 95.40,-342.28 96.47,-345.68 94.73,-351.23 59.85,-462.60" fill="none" stroke="#bcbcbc" stroke-width="8" stroke-linecap="round" stroke-linejoin="round" /><polyline points="530.12,-878.02 557.69,-877.30 558.98,-877.26 564.26,-877.11 571.21,-876.13" fill="none" stroke="#bcbcbc" stroke-width="8" stroke-linecap="round" stroke-linejoin="round" /><polyline points="388.31,19.97 378.90,19.85 299.19,30.55 293.44,31.16 286.87,31.85 248.73,35.87 197.34,41.30 170.10,44.17 155.03,45.76 142.79,47.25 136.51,48.01 129.43,48.87 95.24,53.03 87.05,54.02 61.80,56.78 -73.05,71.53" fill="none" stroke="#bcbcbc" stroke-width="8" stroke-linecap="round" stroke-linejoin="round" /><polyline points="270.29,296.69 263.23,294.42 230.25,283.80 223.59,281.65 217.80,279.79 182.86,268.56 175.97,266.35 166.85,263.42 111.23,245.52 104.97,243.51" fill="none" stroke="#bcbcbc" stroke-width="8" stroke-linecap="round" stroke-linejoin="round" /><polyline points="408.20,-370.99 427.39,-365.01 497.54,-343.35 498.20,-343.15 503.40,-342.82" fill="none" stroke="#bcbcbc" stroke-width="8" stroke-linecap="round" stroke-linejoin="round" /><polyline points="605.60,-528.96 701.04,-527.28" fill="none" stroke="#bcbcbc" stroke-width="8" stroke-linecap="round" stroke-linejoin="round" /><polyline points="558.87,309.37 545.23,293.16 539.51,286.50 534.59,281.91 528.04,277.02 514.66,268.99 501.71,264.73 475.36,256.59 453.81,249.75 466.23,230.79" fill="none" stroke="#bcbcbc" stroke-width="8" stroke-linecap="round" stroke-linejoin="round" /><polyline points="422.33,180.43 403.34,156.98 399.73,152.52 380.59,126.17 376.26,118.12 377.30,108.54 383.07,108.48 397.30,111.22 418.95,115.39" fill="none" stroke="#bcbcbc" stroke-width="8" stroke-linecap="round" stroke-linejoin="round" /><polyline points="173.83,-7.42 177.33,0.12 197.34,41.30 227.09,102.53 230.88,110.34" fill="none" stroke="#bcbcbc" stroke-width="8" stroke-linecap="round" stroke-linejoin="round" /><polyline points="-146.60,179.10 -139.45,182.03 -105.93,195.73 -98.62,198.72 -90.92,201.87 -51.46,218.00 -44.33,220.92" fill="none" stroke="#bcbcbc" stroke-width="8" stroke-linecap="round" stroke-linejoin="round" /><polyline points="190.30,-68.47 260.12,-37.93" fill="none" stroke="#bcbcbc" stroke-width="8" stroke-linecap="round" stroke-linejoin="round" /><polyline points="503.40,-342.82 514.04,-342.26 514.71,-341.66 519.49,-337.43 526.50,-331.17 527.79,-328.65 551.97,-307.48 553.75,-304.11 570.75,-289.11 575.03,-287.80 588.25,-276.22 591.22,-274.87 611.16,-257.96 615.60,-254.02 618.04,-250.12" fill="none" stroke="#bcbcbc" stroke-width="8" stroke-linecap="round" stroke-linejoin="round" /><polyline points="-166.31,-68.40 -57.25,-58.68" fill="none" stroke="#bcbcbc" stroke-width="8" stroke-linecap="round" stroke-linejoin="round" /><polyline points="77.19,337.63 80.57,330.44 81.44,327.24 86.17,309.78 103.33,249.30 104.97,243.51 106.71,237.15 114.48,208.74 127.60,160.75 130.63,149.69" fill="none" stroke="#bcbcbc" stroke-width="8" stroke-linecap="round" stroke-linejoin="round" /><polyline points="173.83,-7.42 190.30,-68.47 155.39,-80.68 146.25,-75.29 142.08,-72.12 138.99,-67.95 136.82,-62.44 128.79,-32.76 135.27,-29.47 141.82,-27.88 156.28,-24.11 167.11,-20.67 173.83,-7.42" fill="none" stroke="#bcbcbc" stroke-width="8" stroke-linecap="round" stroke-linejoin="round" /><polyline points="128.79,-32.76 121.15,-33.83 -57.25,-58.68" fill="none" stroke="#bcbcbc" stroke-width="8" stroke-linecap="round" stroke-linejoin="round" /><polyline points="418.95,115.39 435.50,119.00 480.25,133.22 492.77,137.18 522.47,145.76 552.39,154.38 574.54,160.78 609.96,171.01 617.28,173.12 635.16,179.12 664.59,186.96 667.19,187.44" fill="none" stroke="#bcbcbc" stroke-width="8" stroke-linecap="round" stroke-linejoin="round" /><polyline points="439.95,373.89 433.91,375.40 427.38,393.60 417.26,390.72 371.23,375.04 365.69,373.85 353.36,372.97 297.62,373.19 285.33,371.63 257.58,367.39 246.39,365.57 167.00,352.77 136.26,347.86 77.63,337.71 68.16,335.83 -64.16,298.85 -72.51,296.52 -129.11,277.28 -143.03,272.34 -177.82,257.93 -197.64,250.43" fill="none" stroke="#bcbcbc" stroke-width="8" stroke-linecap="round" stroke-linejoin="round" /><polyline points="561.21,-604.31 555.48,-605.49 479.01,-596.45 451.67,-594.17" fill="none" stroke="#bcbcbc" stroke-width="8" stroke-linecap="round" stroke-linejoin="round" /><polyline points="418.95,115.38 421.63,110.90 437.68,69.69 455.61,7.38 460.19,-6.04 462.63,-9.69 479.94,-65.26 480.80,-71.89 481.46,-76.23" fill="none" stroke="#bcbcbc" stroke-width="8" stroke-linecap="round" stroke-linejoin="round" /><polyline points="497.77,-486.54 499.59,-487.24 502.07,-489.21 505.83,-493.61 554.66,-563.66 567.67,-582.19" fill="none" stroke="#bcbcbc" stroke-width="8" stroke-linecap="round" stroke-linejoin="round" /><polyline points="715.09,-229.20 716.09,-232.07 740.63,-260.95 742.44,-261.91 746.70,-267.74 760.98,-284.14 765.42,-288.23" fill="none" stroke="#bcbcbc" stroke-width="8" stroke-linecap="round" stroke-linejoin="round" /><polyline points="736.54,-14.93 736.20,-18.79 735.94,-21.78 734.64,-27.49 733.10,-31.22 731.17,-41.01 730.99,-44.56 729.69,-52.49 723.85,-55.54 719.18,-53.75 710.82,-51.75 704.20,-50.72 697.86,-49.19 689.10,-47.19 685.10,-46.28" fill="none" stroke="#bcbcbc" stroke-width="8" stroke-linecap="round" stroke-linejoin="round" /><polyline points="91.67,-156.73 109.52,-198.57 110.51,-201.29" fill="none" stroke="#bcbcbc" stroke-width="8" stroke-linecap="round" stroke-linejoin="round" /><polyline points="562.12,-233.45 570.72,-236.78 575.22,-238.52 578.70,-242.05 593.04,-245.58 597.86,-244.36 608.24,-247.03 616.16,-249.07 618.04,-250.12 625.72,-252.00 664.99,-261.62 673.89,-264.28" fill="none" stroke="#bcbcbc" stroke-width="8" stroke-linecap="round" stroke-linejoin="round" /><polyline points="199.93,120.87 218.45,114.14 224.65,112.25 230.88,110.34 242.40,106.83 251.35,105.54 281.93,102.19 288.08,101.86 315.45,102.09 332.11,102.23 338.38,101.91 348.43,102.93 351.57,103.38 357.97,104.29 377.30,108.54" fill="none" stroke="#bcbcbc" stroke-width="8" stroke-linecap="round" stroke-linejoin="round" /><polyline points="288.18,-428.98 285.11,-439.36 273.72,-477.89 259.87,-521.83 257.01,-529.67 254.11,-537.02 250.44,-547.61" fill="none" stroke="#bcbcbc" stroke-width="8" stroke-linecap="round" stroke-linejoin="round" /><polyline points="255.03,192.29 257.46,184.61 282.09,106.97 281.93,102.19" fill="none" stroke="#bcbcbc" stroke-width="8" stroke-linecap="round" stroke-linejoin="round" /><polyline points="288.08,101.86 292.96,36.49 293.44,31.16 294.19,24.95 294.20,24.67 294.52,17.09 296.15,-3.49 297.07,-13.07 298.32,-23.96 299.46,-31.80 300.49,-36.72 301.78,-40.44 304.31,-48.82 309.54,-66.28 316.19,-88.81 323.53,-111.85 325.02,-116.55 326.22,-119.95" fill="none" stroke="#bcbcbc" stroke-width="8" stroke-linecap="round" stroke-linejoin="round" /><polyline points="128.79,-32.76 127.50,-26.97 127.72,-25.12 135.66,41.01 136.51,48.01 136.14,55.22 134.06,96.35 133.19,113.53 132.74,122.40 131.94,138.20 131.53,146.42 130.63,149.69" fill="none" stroke="#bcbcbc" stroke-width="8" stroke-linecap="round" stroke-linejoin="round" /><polyline points="91.67,-156.73 62.79,-165.31 59.12,-167.67 41.14,-172.90 36.09,-172.85 13.50,-179.65 9.85,-182.34 -10.70,-188.57 -35.92,-195.45 -36.04,-195.46 -40.22,-195.82" fill="none" stroke="#bcbcbc" stroke-width="8" stroke-linecap="round" stroke-linejoin="round" /><polyline points="618.04,-250.12 619.05,-248.81 623.24,-242.56 630.98,-231.02 638.27,-223.72 652.28,-208.00 649.91,-193.46 648.71,-188.01 647.04,-185.71 650.55,-180.51 655.98,-169.33 666.84,-148.38 672.19,-138.06 675.52,-128.79 677.02,-124.49" fill="none" stroke="#bcbcbc" stroke-width="8" stroke-linecap="round" stroke-linejoin="round" /><polyline points="691.20,-220.19 687.17,-218.94 660.65,-210.68 656.84,-209.46 652.28,-208.00" fill="none" stroke="#bcbcbc" stroke-width="8" stroke-linecap="round" stroke-linejoin="round" /><polyline points="500.59,-169.95 508.88,-172.64 569.09,-203.38 577.15,-207.31 605.53,-215.51 633.04,-223.24 638.27,-223.72" fill="none" stroke="#bcbcbc" stroke-width="8" stroke-linecap="round" stroke-linejoin="round" /><polyline points="507.15,-131.90 576.56,-164.19 579.48,-166.13 586.27,-168.10 632.52,-181.56 639.53,-184.24 647.04,-185.71" fill="none" stroke="#bcbcbc" stroke-width="8" stroke-linecap="round" stroke-linejoin="round" /><polyline points="492.99,-808.96 521.08,-805.49 523.91,-805.14 534.80,-802.47" fill="none" stroke="#bcbcbc" stroke-width="8" stroke-linecap="round" stroke-linejoin="round" /><polyline points="733.09,-523.34 738.07,-524.38 756.69,-515.26 759.14,-512.83 794.09,-453.68 795.01,-446.51 799.56,-442.72 798.84,-440.11 798.72,-435.84 799.36,-429.88 808.61,-391.84 809.43,-365.50 810.73,-323.43 812.90,-266.82 804.04,-242.14 798.33,-227.10 789.99,-205.91 787.58,-199.78 786.01,-198.07 783.49,-181.66" fill="none" stroke="#bcbcbc" stroke-width="8" stroke-linecap="round" stroke-linejoin="round" /><polyline points="797.71,-81.74 789.20,-85.44 767.97,-100.26 739.94,-119.95 724.53,-132.41 714.13,-143.55" fill="none" stroke="#bcbcbc" stroke-width="8" stroke-linecap="round" stroke-linejoin="round" /><polyline points="453.81,249.75 445.46,247.11 431.91,242.81 425.45,240.77 417.86,238.36 408.26,235.32 399.59,232.57 391.02,229.85 352.78,217.72 346.08,215.59 337.77,212.96 335.93,212.38 314.06,206.60 307.89,205.11 300.15,203.23 292.05,201.27 262.86,194.19 255.03,192.29 246.62,189.37 229.05,183.27 222.42,180.97 216.50,179.05 188.98,169.27 185.51,167.20 183.85,163.61" fill="none" stroke="#bcbcbc" stroke-width="8" stroke-linecap="round" stroke-linejoin="round" /><polyline points="579.48,-166.13 577.45,-173.39 571.41,-195.05 569.09,-203.38 565.73,-209.60 565.42,-210.76 563.44,-218.09 565.75,-221.34 562.98,-230.58 562.12,-233.45" fill="none" stroke="#bcbcbc" stroke-width="8" stroke-linecap="round" stroke-linejoin="round" /><polyline points="569.38,-431.16 575.12,-433.87 606.50,-451.17 624.44,-462.70 637.09,-471.33 639.88,-473.41 650.06,-480.49 660.61,-488.28 667.30,-493.14 675.26,-498.96 702.94,-511.45 706.53,-511.26 711.78,-513.74 733.09,-523.34" fill="none" stroke="#bcbcbc" stroke-width="8" stroke-linecap="round" stroke-linejoin="round" /><polyline points="221.58,-313.25 226.11,-311.41 229.10,-310.49 285.22,-293.26 293.79,-290.63" fill="none" stroke="#bcbcbc" stroke-width="8" stroke-linecap="round" stroke-linejoin="round" /><polyline points="-179.22,-187.07 -219.32,-199.20" fill="none" stroke="#bcbcbc" stroke-width="8" stroke-linecap="round" stroke-linejoin="round" /><polyline points="468.35,-752.35 478.29,-739.76 479.77,-737.88 484.79,-731.52 490.51,-730.85 502.26,-729.47 504.35,-728.03" fill="none" stroke="#bcbcbc" stroke-width="8" stroke-linecap="round" stroke-linejoin="round" /><polyline points="813.51,-192.35 797.76,-189.41 781.61,-180.64 766.64,-172.31 752.48,-165.23 735.37,-155.94 722.98,-148.42 698.50,-135.29 602.92,-87.21 578.14,-76.30 561.77,-69.22 553.66,-66.56 546.95,-65.31 535.96,-64.65 520.32,-66.86 481.31,-76.23 425.93,-89.13 353.07,-111.10 326.22,-119.95 282.27,-133.52 240.23,-147.38 178.58,-171.57 147.76,-184.84 110.59,-201.36 48.94,-235.13 34.48,-244.72 -2.10,-267.72 -17.44,-283.06 -40.45,-312.85 -78.35,-351.93 -93.25,-365.06" fill="none" stroke="#bcbcbc" stroke-width="8" stroke-linecap="round" stroke-linejoin="round" /><polyline points="514.66,268.99 515.30,265.39 517.64,259.50 539.50,208.35 547.76,189.18 557.49,165.28 559.86,156.54" fill="none" stroke="#bcbcbc" stroke-width="8" stroke-linecap="round" stroke-linejoin="round" /><polyline points="95.24,53.03 70.41,41.01 13.89,13.66 -55.42,-19.88 -61.61,-22.88" fill="none" stroke="#bcbcbc" stroke-width="8" stroke-linecap="round" stroke-linejoin="round" /><polyline points="503.40,-342.82 509.67,-349.24 526.35,-366.31 539.58,-380.75" fill="none" stroke="#bcbcbc" stroke-width="8" stroke-linecap="round" stroke-linejoin="round" /><polyline points="21.93,-304.80 15.04,-313.92 -17.25,-356.66 -63.33,-393.94" fill="none" stroke="#bcbcbc" stroke-width="8" stroke-linecap="round" stroke-linejoin="round" /><polyline points="-178.06,257.82 -171.76,242.88 -151.72,192.93 -149.30,186.38 -146.60,179.10 -145.58,176.48 -145.31,172.37 -142.74,133.54 -142.01,122.40" fill="none" stroke="#bcbcbc" stroke-width="8" stroke-linecap="round" stroke-linejoin="round" /><polyline points="-191.73,-143.69 -179.22,-187.07 -162.72,-244.29 -160.68,-251.37 -158.41,-259.42 -153.32,-277.43 -152.79,-279.32 -151.33,-285.12 -149.01,-291.66 -148.44,-293.25 -145.51,-300.52 -139.75,-313.22 -138.03,-316.87" fill="none" stroke="#bcbcbc" stroke-width="8" stroke-linecap="round" stroke-linejoin="round" /><polyline points="-160.68,-251.37 -135.37,-244.90 -81.75,-231.12 -51.21,-221.61 -38.47,-218.63" fill="none" stroke="#bcbcbc" stroke-width="8" stroke-linecap="round" stroke-linejoin="round" /><polyline points="360.32,-448.20 361.18,-453.47 362.04,-458.94 365.76,-477.23 375.04,-519.80 382.65,-557.89 384.05,-565.79 385.94,-576.52 385.94,-576.53" fill="none" stroke="#bcbcbc" stroke-width="8" stroke-linecap="round" stroke-linejoin="round" /><polyline points="285.38,371.64 296.68,342.82 298.08,337.64 342.93,223.80 346.08,215.59 348.63,208.63 375.43,130.67 380.59,126.17" fill="none" stroke="#bcbcbc" stroke-width="8" stroke-linecap="round" stroke-linejoin="round" /><polyline points="439.11,-470.24 439.11,-470.25 437.52,-478.59 437.27,-479.60 433.40,-495.35 433.40,-495.40 430.76,-506.09 419.57,-544.44 418.15,-548.54 410.60,-569.09 408.14,-575.22 406.56,-579.18 404.50,-583.67 404.50,-583.68 404.49,-583.70 403.00,-600.21 402.85,-608.32" fill="none" stroke="#bcbcbc" stroke-width="8" stroke-linecap="round" stroke-linejoin="round" /><polyline points="422.33,180.43 419.46,183.54 415.17,188.64 403.09,222.70 399.59,232.57" fill="none" stroke="#bcbcbc" stroke-width="8" stroke-linecap="round" stroke-linejoin="round" /><polyline points="221.58,-313.25 223.23,-317.72 223.61,-318.76 231.45,-340.67 234.40,-349.90 258.44,-420.60" fill="none" stroke="#bcbcbc" stroke-width="8" stroke-linecap="round" stroke-linejoin="round" /><polyline points="345.98,-214.12 348.44,-220.64 355.08,-238.29 357.89,-245.75 359.79,-250.80 365.12,-264.96 368.65,-274.32 369.12,-275.58 377.66,-298.24 381.22,-297.14 383.16,-302.40 386.58,-311.71 385.92,-315.94 395.00,-340.65 395.93,-343.19 397.65,-344.77 399.10,-346.10 408.20,-370.99 409.52,-377.80 422.58,-414.09 425.67,-416.50 431.96,-434.28 430.84,-437.01 436.34,-453.61 433.49,-468.43" fill="none" stroke="#bcbcbc" stroke-width="8" stroke-linecap="round" stroke-linejoin="round" /><polyline points="579.64,-889.11 575.98,-895.12 556.75,-926.66" fill="none" stroke="#bcbcbc" stroke-width="8" stroke-linecap="round" stroke-linejoin="round" /><polyline points="639.88,-473.41 728.14,-416.66 728.17,-416.62 728.17,-416.61 744.49,-414.49" fill="none" stroke="#bcbcbc" stroke-width="8" stroke-linecap="round" stroke-linejoin="round" /><polyline points="604.49,-591.96 698.39,-544.82 701.23,-542.71 701.04,-527.28 702.94,-511.45" fill="none" stroke="#bcbcbc" stroke-width="8" stroke-linecap="round" stroke-linejoin="round" /><polyline points="425.45,240.77 422.07,251.07 408.39,292.79 385.12,363.06 383.47,368.05 381.79,373.10 381.33,378.48" fill="none" stroke="#bcbcbc" stroke-width="8" stroke-linecap="round" stroke-linejoin="round" /><polyline points="689.81,-12.70 690.37,-17.94 690.49,-22.82 690.46,-22.99 687.13,-37.37 685.76,-43.38 685.10,-46.28 684.43,-49.24 680.78,-65.34 673.64,-97.49 668.46,-116.82 667.72,-119.81" fill="none" stroke="#bcbcbc" stroke-width="8" stroke-linecap="round" stroke-linejoin="round" /><polyline points="223.59,281.65 225.91,275.04 252.06,200.73 255.03,192.29" fill="none" stroke="#bcbcbc" stroke-width="8" stroke-linecap="round" stroke-linejoin="round" /><polyline points="810.73,-323.43 803.03,-325.60 750.79,-405.77 744.49,-414.49" fill="none" stroke="#bcbcbc" stroke-width="8" stroke-linecap="round" stroke-linejoin="round" /><polyline points="-48.16,-131.09 142.26,-85.48 155.39,-80.68" fill="none" stroke="#bcbcbc" stroke-width="8" stroke-linecap="round" stroke-linejoin="round" /><polyline points="552.41,-843.81 626.59,-816.34 637.03,-818.12" fill="none" stroke="#bcbcbc" stroke-width="8" stroke-linecap="round" stroke-linejoin="round" />
    <polyline points="167.20,352.80 168.08,344.23 168.43,340.30 171.64,304.85 175.15,273.64 175.97,266.35 176.73,257.61 176.81,256.87 178.80,239.49 180.52,221.81 182.41,204.76 183.68,191.49 184.21,183.29 184.68,175.73 185.51,167.20" fill="none" stroke="#ffffff" stroke-width="16" stroke-linecap="round" stroke-linejoin="round" />
    <polyline points="167.20,352.80 168.08,344.23 168.43,340.30 171.64,304.85 175.15,273.64 175.97,266.35 176.73,257.61 176.81,256.87 178.80,239.49 180.52,221.81 182.41,204.76 183.68,191.49 184.21,183.29 184.68,175.73 185.51,167.20" fill="none" stroke="#111111" stroke-width="9" stroke-linecap="round" stroke-linejoin="round" />
    
            <g transform="translate(167.20,352.80)">
              <circle r="19" fill="#ffffff" stroke="#111111" stroke-width="4" />
              <text text-anchor="middle" dominant-baseline="central" font-family="Helvetica, Arial, sans-serif"
                font-size="18" font-weight="700" fill="#111111">1</text>
            </g>
            
            <g transform="translate(185.51,167.20)">
              <circle r="19" fill="#ffffff" stroke="#111111" stroke-width="4" />
              <text text-anchor="middle" dominant-baseline="central" font-family="Helvetica, Arial, sans-serif"
                font-size="18" font-weight="700" fill="#111111">2</text>
            </g>
            
  </g>
</svg>
