<svg xmlns="http://www.w3.org/2000/svg" width="520" height="520" viewBox="0 0 520 520">
  <rect width="100%" height="100%" fill="#ffffff" />
  <g>
    <polyline points="398.59,-642.08 401.15,-628.44 417.70,-512.69 415.17,-483.75" fill="none" stroke="#bcbcbc" stroke-width="8" stroke-linecap="round" stroke-linejoin="round" /><polyline points="62.25,322.50 66.25,310.20 87.45,245.02 89.95,237.33 92.47,229.27 145.77,59.31 150.06,45.64 140.25,21.47" fill="none" stroke="#bcbcbc" stroke-width="8" stroke-linecap="round" stroke-linejoin="round" /><polyline points="-305.92,171.33 -306.78,161.57 -289.35,63.98 -286.91,51.77 -285.08,45.38 -280.29,20.63 -274.90,-9.66 -269.03,-36.34 -263.20,-62.96 -259.53,-70.46 -257.13,-75.06" fill="none" stroke="#bcbcbc" stroke-width="8" stroke-linecap="round" stroke-linejoin="round" /><polyline points="-204.77,-517.06 -208.91,-529.69 -251.74,-660.28 -253.83,-665.76" fill="none" stroke="#bcbcbc" stroke-width="8" stroke-linecap="round" stroke-linejoin="round" /><polyline points="-424.50,632.32 -423.23,619.86 -422.71,614.14 -418.05,562.58 -412.94,517.18 -411.75,506.57 -410.64,493.86 -410.52,492.79 -407.63,467.50 -405.13,441.80 -402.39,416.99 -400.53,397.68 -399.76,385.76 -399.08,374.76 -397.87,362.36" fill="none" stroke="#bcbcbc" stroke-width="8" stroke-linecap="round" stroke-linejoin="round" /><polyline points="83.67,-983.27 91.61,-982.05 310.28,-948.45" fill="none" stroke="#bcbcbc" stroke-width="8" stroke-linecap="round" stroke-linejoin="round" /><polyline points="-477.70,336.88 -500.46,335.82 -514.34,335.18 -521.88,334.83 -528.49,334.52 -580.03,332.12 -651.72,328.79 -685.89,323.95 -697.33,322.32 -707.25,320.57 -774.46,308.71 -783.85,307.05 -785.93,306.70 -797.54,304.71 -806.45,303.18 -863.40,298.15 -874.25,297.19 -878.23,296.84 -890.54,295.98 -914.64,294.31" fill="none" stroke="#bcbcbc" stroke-width="8" stroke-linecap="round" stroke-linejoin="round" /><polyline points="-147.03,270.86 -142.62,258.31 -102.90,148.19 -55.11,9.30 -52.05,0.59 -49.91,-5.49 -48.18,-10.49" fill="none" stroke="#bcbcbc" stroke-width="8" stroke-linecap="round" stroke-linejoin="round" /><polyline points="-878.23,296.84 -879.24,289.76 -879.48,282.07 -877.97,266.58 -874.51,238.31 -872.20,228.81 -868.46,194.50 -867.78,186.86 -866.68,177.04 -865.87,169.74 -864.33,161.47 -861.49,139.21 -859.51,122.19 -856.61,115.23" fill="none" stroke="#bcbcbc" stroke-width="8" stroke-linecap="round" stroke-linejoin="round" /><polyline points="-918.89,106.53 -865.90,113.93 -856.61,115.23 -850.86,116.14 -827.10,119.93 -772.38,128.65 -762.99,130.21" fill="none" stroke="#bcbcbc" stroke-width="8" stroke-linecap="round" stroke-linejoin="round" /><polyline points="56.30,-588.55 56.65,-583.73 57.36,-578.86 59.08,-575.12 62.30,-570.96 68.26,-565.53 82.38,-556.94 191.33,-488.60 258.43,-398.64 309.12,-273.57 312.42,-265.31" fill="none" stroke="#bcbcbc" stroke-width="8" stroke-linecap="round" stroke-linejoin="round" /><polyline points="38.86,-223.62 41.12,-219.88 41.70,-218.91 43.57,-209.47 56.36,-147.67 60.41,-128.05 63.32,-114.08 67.84,-85.76 69.96,-72.70 71.41,-64.73 73.01,-57.53 74.92,-53.33 77.71,-48.47 79.21,-46.18 107.52,-5.66 122.83,18.45 126.82,24.22" fill="none" stroke="#bcbcbc" stroke-width="8" stroke-linecap="round" stroke-linejoin="round" /><polyline points="-773.81,550.27 -772.30,540.99 -770.90,534.29 -770.53,533.40 -751.69,488.60 -739.68,459.49 -736.03,450.26 -732.17,440.49 -727.97,432.09 -727.29,430.45 -721.55,416.56 -717.11,404.28 -713.30,393.00 -710.88,385.04 -708.17,375.19 -705.04,362.00 -702.67,351.29 -699.83,336.34 -699.24,333.01 -697.33,322.32" fill="none" stroke="#bcbcbc" stroke-width="8" stroke-linecap="round" stroke-linejoin="round" /><polyline points="139.06,-700.72 199.14,-658.75 207.23,-657.03 213.16,-650.25" fill="none" stroke="#bcbcbc" stroke-width="8" stroke-linecap="round" stroke-linejoin="round" /><polyline points="-113.21,-313.05 -105.27,-310.00 -70.79,-298.72 9.17,-268.06 13.65,-263.59 15.76,-260.25" fill="none" stroke="#bcbcbc" stroke-width="8" stroke-linecap="round" stroke-linejoin="round" /><polyline points="35.80,474.86 41.24,460.67 68.12,387.74 87.13,332.64 91.07,330.83" fill="none" stroke="#bcbcbc" stroke-width="8" stroke-linecap="round" stroke-linejoin="round" /><polyline points="-344.18,382.39 -339.94,373.01 -339.52,372.08 -332.26,347.74 -320.38,307.67 -317.33,297.42 -314.97,289.45 -314.65,284.81 -315.13,274.54" fill="none" stroke="#bcbcbc" stroke-width="8" stroke-linecap="round" stroke-linejoin="round" /><polyline points="149.91,-220.41 143.09,-219.01 127.65,-221.76 125.25,-228.13 98.50,-238.33 92.17,-236.67 68.02,-245.54 64.42,-243.02" fill="none" stroke="#bcbcbc" stroke-width="8" stroke-linecap="round" stroke-linejoin="round" /><polyline points="110.17,-1048.08 122.30,-1045.11 129.01,-1043.95 288.52,-1016.29" fill="none" stroke="#bcbcbc" stroke-width="8" stroke-linecap="round" stroke-linejoin="round" /><polyline points="-13.81,430.45 -7.17,411.74 5.72,375.39 14.06,359.90 26.05,326.33 30.83,312.93" fill="none" stroke="#bcbcbc" stroke-width="8" stroke-linecap="round" stroke-linejoin="round" /><polyline points="-887.81,-295.57 -899.36,-296.10 -902.26,-292.58 -922.39,-268.12 -992.75,-186.86 -1002.64,-175.43" fill="none" stroke="#bcbcbc" stroke-width="8" stroke-linecap="round" stroke-linejoin="round" /><polyline points="-270.66,-225.96 -275.76,-214.67 -276.38,-213.30 -294.10,-167.10 -311.96,-116.24 -316.72,-102.68 -319.42,-95.68" fill="none" stroke="#bcbcbc" stroke-width="8" stroke-linecap="round" stroke-linejoin="round" /><polyline points="-10.75,-745.10 -5.12,-737.47 -1.10,-726.96 5.16,-711.89 15.19,-688.19 24.09,-666.91 34.29,-643.54 41.86,-625.53 42.98,-622.94 43.05,-622.79 49.14,-608.54 50.96,-604.49 52.70,-600.64 54.53,-597.03 55.91,-593.36 56.31,-588.55" fill="none" stroke="#bcbcbc" stroke-width="8" stroke-linecap="round" stroke-linejoin="round" /><polyline points="-441.69,1.79 -438.74,0.18 -434.62,-3.09 -432.56,-7.34 -405.18,-111.14 -404.35,-116.99 -401.01,-127.69" fill="none" stroke="#bcbcbc" stroke-width="8" stroke-linecap="round" stroke-linejoin="round" /><polyline points="515.56,-160.64 519.44,-148.31 522.18,-135.36 516.85,-86.03 510.70,-48.92 507.34,-36.26 507.04,-35.12 504.10,-28.28 500.09,-21.04 490.72,-9.19 495.26,13.96 480.58,63.67 472.48,91.13 455.91,136.07 431.64,190.78 402.01,243.21 392.75,260.26 376.02,288.25 309.17,383.12 294.52,402.86 237.80,476.98 205.24,514.02 159.69,560.31 155.48,560.74 145.19,569.15" fill="none" stroke="#bcbcbc" stroke-width="8" stroke-linecap="round" stroke-linejoin="round" /><polyline points="-309.32,650.90 -290.67,593.03 -287.61,583.47 -283.46,577.45 -274.55,550.70 -271.65,541.62 -234.84,426.36 -231.13,414.77 -228.08,404.58 -184.63,267.86" fill="none" stroke="#bcbcbc" stroke-width="8" stroke-linecap="round" stroke-linejoin="round" /><polyline points="127.83,-425.36 143.97,-442.98 148.73,-448.72 181.32,-494.88" fill="none" stroke="#bcbcbc" stroke-width="8" stroke-linecap="round" stroke-linejoin="round" /><polyline points="-194.60,-418.37 -150.18,-402.91 -147.72,-398.92 -135.11,-394.69 -127.62,-392.13 -91.81,-380.04" fill="none" stroke="#bcbcbc" stroke-width="8" stroke-linecap="round" stroke-linejoin="round" /><polyline points="192.61,-725.77 213.16,-650.25 236.94,-561.29 240.55,-553.87 241.12,-545.41 257.25,-515.29 300.79,-434.12 310.30,-420.09 313.06,-415.97 378.09,-294.39 407.98,-267.22 412.18,-261.81 418.09,-256.75 474.84,-208.23 478.70,-204.94 488.89,-199.53" fill="none" stroke="#bcbcbc" stroke-width="8" stroke-linecap="round" stroke-linejoin="round" /><polyline points="-28.11,663.18 113.43,580.97 138.62,568.09 145.19,569.15" fill="none" stroke="#bcbcbc" stroke-width="8" stroke-linecap="round" stroke-linejoin="round" /><polyline points="125.35,545.57 134.13,535.13 212.97,377.83 218.19,367.52 222.55,357.31 248.02,294.34 255.60,275.37 277.55,208.94 291.78,123.55 293.47,111.12" fill="none" stroke="#bcbcbc" stroke-width="8" stroke-linecap="round" stroke-linejoin="round" /><polyline points="64.50,-379.50 63.12,-378.08 61.22,-371.47 61.03,-370.81 52.48,-337.86 54.72,-329.26 52.86,-321.56 50.41,-311.46 44.15,-304.21 37.05,-275.43 28.68,-269.11 19.74,-262.98 15.76,-260.25" fill="none" stroke="#bcbcbc" stroke-width="8" stroke-linecap="round" stroke-linejoin="round" /><polyline points="-270.66,-225.96 -267.03,-235.29 -245.15,-291.35 -240.38,-303.58 -236.45,-313.65 -208.51,-385.24 -195.92,-415.18 -194.60,-418.37 -184.82,-442.01 -162.88,-496.49 -154.85,-519.68 -153.06,-524.99 -150.66,-531.02" fill="none" stroke="#bcbcbc" stroke-width="8" stroke-linecap="round" stroke-linejoin="round" /><polyline points="-25.91,-565.82 -21.69,-553.23 117.12,-434.68 192.87,-368.78 306.00,-270.44 315.88,-262.55 320.30,-259.78 339.93,-241.96 366.15,-219.60 425.61,-168.90 444.82,-152.39 457.56,-137.15" fill="none" stroke="#bcbcbc" stroke-width="8" stroke-linecap="round" stroke-linejoin="round" /><polyline points="203.59,-770.11 210.64,-774.62 252.34,-791.95 260.91,-800.97" fill="none" stroke="#bcbcbc" stroke-width="8" stroke-linecap="round" stroke-linejoin="round" /><polyline points="251.77,284.96 194.18,267.99 89.95,237.34" fill="none" stroke="#bcbcbc" stroke-width="8" stroke-linecap="round" stroke-linejoin="round" /><polyline points="65.88,-939.80 73.75,-934.38 330.06,-877.35" fill="none" stroke="#bcbcbc" stroke-width="8" stroke-linecap="round" stroke-linejoin="round" /><polyline points="382.49,-95.98 369.24,-125.45 339.84,-195.55 337.65,-201.13 332.62,-213.92 313.67,-262.14 312.48,-265.26" fill="none" stroke="#bcbcbc" stroke-width="8" stroke-linecap="round" stroke-linejoin="round" /><polyline points="-10.75,-745.10 -24.98,-749.15 -35.43,-752.26 -56.69,-758.58 -67.48,-761.65 -73.67,-763.37 -81.75,-765.69" fill="none" stroke="#bcbcbc" stroke-width="8" stroke-linecap="round" stroke-linejoin="round" /><polyline points="-381.77,-359.52 -382.49,-361.87 -383.16,-363.52 -386.09,-370.81 -397.45,-397.29 -408.25,-424.20 -410.58,-430.55 -413.27,-437.87 -415.19,-443.85 -418.36,-452.83 -418.70,-453.77 -429.03,-479.23 -447.99,-527.08 -452.25,-529.51 -455.28,-537.27 -461.33,-558.28 -471.69,-584.33 -473.93,-590.25" fill="none" stroke="#bcbcbc" stroke-width="8" stroke-linecap="round" stroke-linejoin="round" /><polyline points="-290.67,593.03 -279.90,596.32 -245.05,606.94 -234.13,610.27" fill="none" stroke="#bcbcbc" stroke-width="8" stroke-linecap="round" stroke-linejoin="round" /><polyline points="360.10,-757.58 362.13,-765.79 361.30,-768.90 360.31,-772.67 353.94,-795.97 339.76,-845.25 332.27,-870.43 330.06,-877.35 310.28,-948.45 299.60,-986.80 288.52,-1016.29 278.51,-1042.90 268.55,-1061.19 258.87,-1070.85 184.53,-1161.67 179.04,-1168.14 175.39,-1174.11" fill="none" stroke="#bcbcbc" stroke-width="8" stroke-linecap="round" stroke-linejoin="round" /><polyline points="56.31,-588.55 52.47,-587.08 45.39,-585.13 44.68,-584.93 15.07,-577.36 -18.97,-567.78 -25.91,-565.82 -29.01,-564.84 -37.19,-562.21 -44.18,-560.27 -74.70,-551.77 -124.90,-537.51 -143.61,-532.79 -150.66,-531.02 -184.11,-522.81 -204.77,-517.06 -248.54,-504.83 -291.79,-492.64 -296.79,-491.25 -332.94,-481.22 -349.62,-476.59 -358.04,-472.61 -373.98,-464.71 -405.64,-448.65 -407.84,-447.53 -415.19,-443.85 -419.67,-441.61 -425.93,-438.33 -448.17,-426.67 -488.69,-403.93 -522.54,-386.20 -527.38,-383.67 -533.85,-383.26 -537.74,-381.20 -538.51,-380.79 -575.24,-360.66 -582.93,-360.70 -591.75,-356.08 -594.84,-354.47 -597.44,-353.11 -603.58,-349.89 -608.41,-338.86 -629.20,-327.73 -635.81,-324.19 -642.96,-320.30 -671.87,-304.56 -686.82,-296.43 -694.36,-294.26" fill="none" stroke="#bcbcbc" stroke-width="8" stroke-linecap="round" stroke-linejoin="round" /><polyline points="472.48,91.13 457.05,92.54 408.85,96.96 406.68,97.16 403.60,97.44 398.63,97.90 351.89,102.19 335.64,100.68 316.71,105.42 301.55,109.14 293.47,111.12 273.41,111.88 256.04,111.00 247.18,110.06 239.65,107.78 234.10,104.71 213.43,90.10 163.22,55.61 158.49,52.40 153.67,49.13 150.06,45.64" fill="none" stroke="#bcbcbc" stroke-width="8" stroke-linecap="round" stroke-linejoin="round" /><polyline points="-664.79,-491.08 -646.57,-455.41 -643.82,-445.22 -628.47,-415.94 -622.13,-407.56 -596.48,-357.65 -594.84,-354.47" fill="none" stroke="#bcbcbc" stroke-width="8" stroke-linecap="round" stroke-linejoin="round" /><polyline points="-106.44,-173.89 -109.17,-166.39 -109.93,-164.06 -113.49,-153.28 -136.03,-90.39 -147.22,-59.16 -147.60,-58.10 -152.10,-48.39 -154.68,-42.62" fill="none" stroke="#bcbcbc" stroke-width="8" stroke-linecap="round" stroke-linejoin="round" /><polyline points="192.61,-725.77 190.11,-731.12 183.54,-731.98 162.29,-727.11 157.98,-727.67 154.59,-732.21 148.58,-759.85 181.15,-764.89 196.22,-769.34 203.59,-770.11 211.53,-741.88" fill="none" stroke="#bcbcbc" stroke-width="8" stroke-linecap="round" stroke-linejoin="round" /><polyline points="310.30,-420.09 318.69,-424.79 360.82,-450.18 372.08,-456.88 391.79,-468.63 424.21,-489.60 431.78,-495.04 488.65,-530.32" fill="none" stroke="#bcbcbc" stroke-width="8" stroke-linecap="round" stroke-linejoin="round" /><polyline points="509.11,-253.45 494.73,-257.73 486.37,-264.59 454.42,-292.23 453.34,-293.20 445.61,-300.09 441.07,-308.14 360.82,-450.18" fill="none" stroke="#bcbcbc" stroke-width="8" stroke-linecap="round" stroke-linejoin="round" /><polyline points="-396.58,-264.70 -270.66,-225.96 -260.39,-222.71 -166.43,-192.92 -164.46,-192.30 -150.39,-187.84 -143.47,-185.64 -134.47,-183.18 -115.92,-176.90 -106.44,-173.89 -97.90,-171.19 -27.97,-149.01 45.85,-125.82 51.95,-123.90 60.41,-128.05" fill="none" stroke="#bcbcbc" stroke-width="8" stroke-linecap="round" stroke-linejoin="round" /><polyline points="-26.35,-886.29 28.20,-936.40 37.43,-944.89" fill="none" stroke="#bcbcbc" stroke-width="8" stroke-linecap="round" stroke-linejoin="round" /><polyline points="-939.69,-77.67 -739.55,-56.22" fill="none" stroke="#bcbcbc" stroke-width="8" stroke-linecap="round" stroke-linejoin="round" /><polyline points="-335.94,-636.24 -293.87,-651.28 -250.48,-666.97 -223.52,-677.45 -141.21,-707.38 -117.32,-715.64 -112.33,-717.37 -106.35,-719.43 -99.63,-721.74 -98.81,-722.02 -85.25,-727.47 -79.35,-729.84" fill="none" stroke="#bcbcbc" stroke-width="8" stroke-linecap="round" stroke-linejoin="round" /><polyline points="-53.41,381.60 -13.81,430.45 10.44,454.86 20.94,462.41 35.80,474.86 49.75,486.57 61.74,498.27 62.04,504.22" fill="none" stroke="#bcbcbc" stroke-width="8" stroke-linecap="round" stroke-linejoin="round" /><polyline points="-10.75,-745.10 4.77,-784.00 29.90,-848.05 65.88,-939.80 83.67,-983.27 110.17,-1048.08 131.90,-1101.17 135.79,-1108.22 154.90,-1139.46 156.14,-1141.48 163.13,-1155.23 175.39,-1174.11 182.24,-1184.65 191.93,-1199.56" fill="none" stroke="#bcbcbc" stroke-width="8" stroke-linecap="round" stroke-linejoin="round" /><polyline points="-376.91,294.96 -379.45,296.99 -381.13,299.41 -384.55,309.51 -386.91,316.79 -397.85,349.49 -399.36,354.21 -400.29,357.13 -410.33,354.26 -434.77,346.06 -458.98,337.94 -477.70,336.88" fill="none" stroke="#bcbcbc" stroke-width="8" stroke-linecap="round" stroke-linejoin="round" /><polyline points="-855.48,522.47 -815.58,419.42 -811.13,408.20 -807.15,397.39 -802.34,384.34 -796.44,363.80 -790.28,338.27 -787.76,319.98 -785.93,306.70 -783.35,296.89 -773.96,223.20 -762.99,130.21 -757.31,85.88 -750.97,33.80 -739.55,-56.22 -737.74,-71.53 -726.20,-165.67 -726.20,-170.92 -723.65,-198.85 -716.29,-257.86 -714.44,-268.15 -712.52,-273.92 -709.51,-280.28 -706.58,-285.21 -700.12,-292.20 -694.35,-294.19" fill="none" stroke="#bcbcbc" stroke-width="8" stroke-linecap="round" stroke-linejoin="round" /><polyline points="15.76,-260.25 17.94,-256.79 25.26,-245.37 36.22,-227.80 38.86,-223.62 43.23,-226.93 64.42,-243.02" fill="none" stroke="#bcbcbc" stroke-width="8" stroke-linecap="round" stroke-linejoin="round" /><polyline points="29.89,-848.05 245.53,-809.07 268.17,-797.15 352.66,-755.27 360.10,-757.58" fill="none" stroke="#bcbcbc" stroke-width="8" stroke-linecap="round" stroke-linejoin="round" /><polyline points="-381.77,-359.52 -385.60,-353.94 -420.00,-337.15 -445.27,-305.04 -472.53,-288.16 -491.18,-274.08 -508.97,-259.57 -518.09,-251.26 -534.20,-230.82 -552.21,-205.00 -555.18,-200.22" fill="none" stroke="#bcbcbc" stroke-width="8" stroke-linecap="round" stroke-linejoin="round" /><polyline points="-345.40,-336.48 -346.89,-333.16 -350.16,-328.40 -356.32,-320.81 -392.66,-274.91 -411.88,-223.14 -508.92,-259.61" fill="none" stroke="#bcbcbc" stroke-width="8" stroke-linecap="round" stroke-linejoin="round" /><polyline points="-491.18,-274.08 -494.94,-285.45 -511.17,-334.61 -517.48,-344.33 -528.03,-375.98 -528.94,-378.71 -527.38,-383.67 -529.91,-391.73 -580.65,-553.73" fill="none" stroke="#bcbcbc" stroke-width="8" stroke-linecap="round" stroke-linejoin="round" /><polyline points="103.36,-1157.98 143.46,-1156.92 145.34,-1156.87 153.02,-1156.65 163.13,-1155.23" fill="none" stroke="#bcbcbc" stroke-width="8" stroke-linecap="round" stroke-linejoin="round" /><polyline points="-102.90,148.19 -116.59,148.03 -232.53,163.59 -240.88,164.47 -250.44,165.48 -305.92,171.33 -380.66,179.23 -420.29,183.41 -442.21,185.72 -460.01,187.88 -469.15,188.99 -479.44,190.24 -529.17,196.29 -541.09,197.73 -577.81,201.75 -773.96,223.20" fill="none" stroke="#bcbcbc" stroke-width="8" stroke-linecap="round" stroke-linejoin="round" /><polyline points="-274.55,550.70 -284.82,547.40 -332.79,531.96 -342.49,528.84 -350.91,526.13 -401.73,509.80 -411.75,506.57 -425.01,502.31 -505.91,476.28 -515.02,473.35" fill="none" stroke="#bcbcbc" stroke-width="8" stroke-linecap="round" stroke-linejoin="round" /><polyline points="-73.96,-420.47 -46.06,-411.77 55.98,-380.27 56.94,-379.97 64.50,-379.50" fill="none" stroke="#bcbcbc" stroke-width="8" stroke-linecap="round" stroke-linejoin="round" /><polyline points="213.16,-650.25 351.97,-647.81" fill="none" stroke="#bcbcbc" stroke-width="8" stroke-linecap="round" stroke-linejoin="round" /><polyline points="145.19,569.15 125.35,545.57 117.02,535.89 109.87,529.20 100.34,522.09 80.88,510.41 62.04,504.22 23.71,492.38 -7.63,482.44 10.44,454.86" fill="none" stroke="#bcbcbc" stroke-width="8" stroke-linecap="round" stroke-linejoin="round" /><polyline points="-53.41,381.60 -81.04,347.49 -86.29,341.01 -114.12,302.67 -120.42,290.96 -118.91,277.03 -110.52,276.95 -89.82,280.93 -58.33,286.99" fill="none" stroke="#bcbcbc" stroke-width="8" stroke-linecap="round" stroke-linejoin="round" /><polyline points="-414.86,108.37 -409.76,119.33 -380.66,179.23 -337.39,268.29 -331.88,279.65" fill="none" stroke="#bcbcbc" stroke-width="8" stroke-linecap="round" stroke-linejoin="round" /><polyline points="-880.93,379.67 -870.52,383.92 -821.78,403.85 -811.13,408.20 -799.94,412.78 -742.55,436.24 -732.17,440.49" fill="none" stroke="#bcbcbc" stroke-width="8" stroke-linecap="round" stroke-linejoin="round" /><polyline points="-390.91,19.56 -289.35,63.98" fill="none" stroke="#bcbcbc" stroke-width="8" stroke-linecap="round" stroke-linejoin="round" /><polyline points="64.50,-379.50 79.97,-378.69 80.96,-377.81 87.90,-371.65 98.10,-362.55 99.98,-358.89 135.14,-328.10 137.74,-323.19 162.47,-301.37 168.69,-299.47 187.92,-282.63 192.23,-280.66 221.23,-256.06 227.69,-250.33 231.25,-244.66" fill="none" stroke="#bcbcbc" stroke-width="8" stroke-linecap="round" stroke-linejoin="round" /><polyline points="-909.59,19.66 -750.97,33.80" fill="none" stroke="#bcbcbc" stroke-width="8" stroke-linecap="round" stroke-linejoin="round" /><polyline points="-555.43,610.26 -550.51,599.80 -549.25,595.14 -542.36,569.75 -517.41,481.77 -515.02,473.35 -512.49,464.11 -501.19,422.77 -482.10,352.97 -477.70,336.88" fill="none" stroke="#bcbcbc" stroke-width="8" stroke-linecap="round" stroke-linejoin="round" /><polyline points="-414.86,108.37 -390.91,19.56 -441.69,1.79 -454.98,9.64 -461.04,14.25 -465.53,20.32 -468.69,28.33 -480.37,71.50 -470.94,76.29 -461.43,78.60 -440.38,84.08 -424.63,89.09 -414.86,108.37" fill="none" stroke="#bcbcbc" stroke-width="8" stroke-linecap="round" stroke-linejoin="round" /><polyline points="-480.37,71.50 -491.49,69.95 -750.97,33.80" fill="none" stroke="#bcbcbc" stroke-width="8" stroke-linecap="round" stroke-linejoin="round" /><polyline points="-58.33,286.99 -34.26,292.25 30.83,312.93 49.03,318.69 92.24,331.17 135.75,343.71 167.97,353.02 219.50,367.90 230.14,370.97 256.15,379.69 298.96,391.09 302.73,391.80" fill="none" stroke="#bcbcbc" stroke-width="8" stroke-linecap="round" stroke-linejoin="round" /><polyline points="-27.79,663.00 -36.58,665.20 -46.07,691.66 -60.80,687.48 -127.75,664.66 -135.81,662.94 -153.73,661.66 -234.81,661.99 -252.68,659.71 -293.04,653.54 -309.32,650.90 -424.80,632.27 -469.51,625.14 -554.79,610.37 -568.56,607.64 -761.01,553.85 -773.16,550.45 -855.48,522.47 -875.74,515.29 -926.33,494.32 -955.17,483.42" fill="none" stroke="#bcbcbc" stroke-width="8" stroke-linecap="round" stroke-linejoin="round" /><polyline points="148.58,-759.85 140.25,-761.57 29.02,-748.42 -10.75,-745.10" fill="none" stroke="#bcbcbc" stroke-width="8" stroke-linecap="round" stroke-linejoin="round" /><polyline points="-58.33,286.99 -54.43,280.47 -31.09,220.52 -5.01,129.89 1.65,110.37 5.20,105.05 30.38,24.24 31.64,14.58 32.59,8.28" fill="none" stroke="#bcbcbc" stroke-width="8" stroke-linecap="round" stroke-linejoin="round" /><polyline points="56.31,-588.55 58.96,-589.56 62.57,-592.43 68.04,-598.83 139.06,-700.72 157.98,-727.67" fill="none" stroke="#bcbcbc" stroke-width="8" stroke-linecap="round" stroke-linejoin="round" /><polyline points="372.41,-214.23 373.86,-218.41 409.56,-260.41 412.18,-261.81 418.38,-270.29 439.15,-294.15 445.61,-300.09" fill="none" stroke="#bcbcbc" stroke-width="8" stroke-linecap="round" stroke-linejoin="round" /><polyline points="403.60,97.44 403.11,91.82 402.73,87.47 400.85,79.16 398.60,73.74 395.79,59.49 395.54,54.34 393.64,42.81 385.14,38.37 378.35,40.96 366.19,43.87 356.57,45.38 347.34,47.60 334.60,50.51 328.79,51.83" fill="none" stroke="#bcbcbc" stroke-width="8" stroke-linecap="round" stroke-linejoin="round" /><polyline points="-534.36,-108.82 -508.40,-169.68 -506.95,-173.63" fill="none" stroke="#bcbcbc" stroke-width="8" stroke-linecap="round" stroke-linejoin="round" /><polyline points="149.91,-220.41 162.42,-225.26 168.96,-227.80 174.02,-232.92 194.89,-238.06 201.89,-236.28 216.99,-240.17 228.51,-243.13 231.25,-244.66 242.42,-247.40 299.54,-261.39 312.48,-265.26" fill="none" stroke="#bcbcbc" stroke-width="8" stroke-linecap="round" stroke-linejoin="round" /><polyline points="-376.90,294.96 -349.96,285.18 -340.95,282.42 -331.88,279.65 -315.13,274.54 -302.11,272.66 -257.62,267.80 -248.68,267.31 -208.88,267.65 -184.63,267.86 -175.52,267.39 -160.91,268.87 -156.34,269.52 -147.03,270.86 -118.91,277.03" fill="none" stroke="#bcbcbc" stroke-width="8" stroke-linecap="round" stroke-linejoin="round" /><polyline points="-248.54,-504.83 -253.00,-519.92 -269.58,-575.97 -289.71,-639.87 -293.87,-651.28 -298.09,-661.97 -303.43,-677.38" fill="none" stroke="#bcbcbc" stroke-width="8" stroke-linecap="round" stroke-linejoin="round" /><polyline points="-296.75,398.86 -293.21,387.67 -257.40,274.74 -257.62,267.80" fill="none" stroke="#bcbcbc" stroke-width="8" stroke-linecap="round" stroke-linejoin="round" /><polyline points="-248.68,267.31 -241.59,172.22 -240.88,164.47 -239.80,155.45 -239.78,155.04 -239.31,144.01 -236.95,114.08 -235.61,100.14 -233.79,84.30 -232.13,72.90 -230.63,65.74 -228.76,60.33 -225.07,48.14 -217.47,22.75 -207.79,-10.02 -197.13,-43.54 -194.95,-50.37 -193.20,-55.32" fill="none" stroke="#bcbcbc" stroke-width="8" stroke-linecap="round" stroke-linejoin="round" /><polyline points="-480.37,71.50 -482.25,79.92 -481.93,82.61 -470.37,178.81 -469.15,188.99 -469.68,199.47 -472.71,259.30 -473.97,284.29 -474.62,297.19 -475.79,320.17 -476.39,332.13 -477.70,336.88" fill="none" stroke="#bcbcbc" stroke-width="8" stroke-linecap="round" stroke-linejoin="round" /><polyline points="-534.36,-108.82 -576.37,-121.30 -581.71,-124.73 -607.86,-132.34 -615.20,-132.27 -648.06,-142.16 -653.36,-146.08 -683.26,-155.14 -719.94,-165.14 -720.12,-165.15 -726.20,-165.67" fill="none" stroke="#bcbcbc" stroke-width="8" stroke-linecap="round" stroke-linejoin="round" /><polyline points="231.25,-244.66 232.71,-242.75 238.80,-233.67 250.06,-216.89 260.67,-206.27 281.04,-183.39 277.60,-162.25 275.85,-154.32 273.42,-150.97 278.53,-143.41 286.43,-127.15 302.23,-96.68 310.01,-81.67 314.85,-68.18 317.03,-61.92" fill="none" stroke="#bcbcbc" stroke-width="8" stroke-linecap="round" stroke-linejoin="round" /><polyline points="337.65,-201.13 331.79,-199.30 293.22,-187.30 287.68,-185.52 281.04,-183.39" fill="none" stroke="#bcbcbc" stroke-width="8" stroke-linecap="round" stroke-linejoin="round" /><polyline points="60.41,-128.05 72.48,-131.96 160.05,-176.67 171.77,-182.40 213.04,-194.32 253.06,-205.57 260.67,-206.27" fill="none" stroke="#bcbcbc" stroke-width="8" stroke-linecap="round" stroke-linejoin="round" /><polyline points="69.96,-72.70 170.91,-119.67 175.16,-122.49 185.03,-125.36 252.31,-144.93 262.51,-148.84 273.42,-150.97" fill="none" stroke="#bcbcbc" stroke-width="8" stroke-linecap="round" stroke-linejoin="round" /><polyline points="49.36,-1057.53 90.22,-1052.48 94.33,-1051.97 110.17,-1048.08" fill="none" stroke="#bcbcbc" stroke-width="8" stroke-linecap="round" stroke-linejoin="round" /><polyline points="398.59,-642.08 405.83,-643.59 432.92,-630.32 436.48,-626.79 487.31,-540.75 488.65,-530.32 495.26,-524.81 494.21,-521.01 494.05,-514.80 494.97,-506.13 508.43,-450.81 509.62,-412.49 511.51,-351.30 514.68,-268.95 501.78,-233.06 493.48,-211.18 481.35,-180.35 477.84,-171.44 475.56,-168.94 471.90,-145.09" fill="none" stroke="#bcbcbc" stroke-width="8" stroke-linecap="round" stroke-linejoin="round" /><polyline points="492.57,0.25 480.21,-5.13 449.31,-26.69 408.55,-55.32 386.13,-73.45 371.01,-89.65" fill="none" stroke="#bcbcbc" stroke-width="8" stroke-linecap="round" stroke-linejoin="round" /><polyline points="-7.63,482.44 -19.77,478.59 -39.47,472.34 -48.88,469.36 -59.92,465.86 -73.88,461.44 -86.49,457.44 -98.96,453.48 -154.58,435.83 -164.32,432.74 -176.42,428.91 -179.09,428.07 -210.89,419.66 -219.87,417.49 -231.13,414.77 -242.91,411.91 -285.37,401.62 -296.75,398.86 -308.99,394.61 -334.55,385.73 -344.18,382.39 -352.80,379.59 -392.82,365.36 -397.87,362.36 -400.29,357.13" fill="none" stroke="#bcbcbc" stroke-width="8" stroke-linecap="round" stroke-linejoin="round" /><polyline points="175.16,-122.49 172.21,-133.05 163.43,-164.56 160.05,-176.67 155.16,-185.73 154.71,-187.41 151.83,-198.07 155.18,-202.80 151.16,-216.24 149.91,-220.41" fill="none" stroke="#bcbcbc" stroke-width="8" stroke-linecap="round" stroke-linejoin="round" /><polyline points="160.47,-508.00 168.82,-511.93 214.46,-537.09 240.55,-553.87 258.95,-566.42 263.01,-569.45 277.82,-579.74 293.17,-591.08 302.89,-598.15 314.47,-606.62 354.73,-624.78 359.96,-624.51 367.59,-628.12 398.59,-642.08" fill="none" stroke="#bcbcbc" stroke-width="8" stroke-linecap="round" stroke-linejoin="round" /><polyline points="-345.40,-336.48 -338.82,-333.81 -334.47,-332.47 -252.85,-307.41 -240.38,-303.58" fill="none" stroke="#bcbcbc" stroke-width="8" stroke-linecap="round" stroke-linejoin="round" /><polyline points="-928.38,-152.95 -986.69,-170.60" fill="none" stroke="#bcbcbc" stroke-width="8" stroke-linecap="round" stroke-linejoin="round" /><polyline points="13.52,-975.18 27.97,-956.86 30.13,-954.13 37.43,-944.89 45.75,-943.91 62.85,-941.90 65.88,-939.80" fill="none" stroke="#bcbcbc" stroke-width="8" stroke-linecap="round" stroke-linejoin="round" /><polyline points="515.56,-160.64 492.65,-156.36 469.16,-143.60 447.38,-131.48 426.79,-121.18 401.90,-107.67 383.88,-96.73 348.27,-77.63 209.25,-7.70 173.21,8.17 149.40,18.47 137.60,22.33 127.84,24.15 111.86,25.12 89.12,21.90 32.37,8.28 -48.18,-10.49 -154.16,-42.45 -193.20,-55.32 -257.13,-75.06 -318.27,-95.22 -407.95,-130.41 -452.79,-149.71 -506.85,-173.74 -596.52,-222.86 -617.54,-236.80 -670.75,-270.27 -693.06,-292.58 -726.53,-335.91 -781.66,-392.75 -803.33,-411.84" fill="none" stroke="#bcbcbc" stroke-width="8" stroke-linecap="round" stroke-linejoin="round" /><polyline points="80.88,510.41 81.82,505.17 85.21,496.61 117.01,422.21 129.02,394.32 143.18,359.57 146.63,346.85" fill="none" stroke="#bcbcbc" stroke-width="8" stroke-linecap="round" stroke-linejoin="round" /><polyline points="-529.17,196.29 -565.29,178.80 -647.49,139.02 -748.31,90.24 -757.31,85.88" fill="none" stroke="#bcbcbc" stroke-width="8" stroke-linecap="round" stroke-linejoin="round" /><polyline points="64.50,-379.50 73.62,-388.84 97.88,-413.66 117.12,-434.68" fill="none" stroke="#bcbcbc" stroke-width="8" stroke-linecap="round" stroke-linejoin="round" /><polyline points="-635.81,-324.19 -645.83,-337.46 -692.78,-399.62 -759.81,-453.86" fill="none" stroke="#bcbcbc" stroke-width="8" stroke-linecap="round" stroke-linejoin="round" /><polyline points="-926.69,494.17 -917.53,472.44 -888.38,399.78 -884.85,390.25 -880.93,379.67 -879.44,375.85 -879.05,369.87 -875.32,313.39 -874.25,297.19" fill="none" stroke="#bcbcbc" stroke-width="8" stroke-linecap="round" stroke-linejoin="round" /><polyline points="-946.58,-89.86 -928.38,-152.95 -904.38,-236.18 -901.40,-246.48 -898.10,-258.18 -890.70,-284.39 -889.93,-287.14 -887.81,-295.57 -884.43,-305.09 -883.61,-307.40 -879.34,-317.97 -870.97,-336.45 -868.46,-341.75" fill="none" stroke="#bcbcbc" stroke-width="8" stroke-linecap="round" stroke-linejoin="round" /><polyline points="-901.40,-246.48 -864.59,-237.07 -786.61,-217.02 -742.18,-203.19 -723.65,-198.85" fill="none" stroke="#bcbcbc" stroke-width="8" stroke-linecap="round" stroke-linejoin="round" /><polyline points="-143.61,-532.79 -142.36,-540.45 -141.10,-548.40 -135.70,-575.00 -122.21,-636.93 -111.12,-692.33 -109.10,-703.82 -106.35,-719.43 -106.34,-719.44" fill="none" stroke="#bcbcbc" stroke-width="8" stroke-linecap="round" stroke-linejoin="round" /><polyline points="-252.61,659.72 -236.17,617.80 -234.13,610.27 -168.90,444.69 -164.32,432.74 -160.61,422.61 -121.63,309.22 -114.12,302.67" fill="none" stroke="#bcbcbc" stroke-width="8" stroke-linecap="round" stroke-linejoin="round" /><polyline points="-29.01,-564.84 -29.01,-564.85 -31.32,-576.98 -31.69,-578.45 -37.32,-601.37 -37.32,-601.44 -41.16,-616.98 -57.44,-672.76 -59.49,-678.74 -70.48,-708.62 -74.05,-717.54 -76.36,-723.29 -79.35,-729.83 -79.35,-729.84 -79.36,-729.87 -81.54,-753.89 -81.75,-765.69" fill="none" stroke="#bcbcbc" stroke-width="8" stroke-linecap="round" stroke-linejoin="round" /><polyline points="-53.41,381.60 -57.59,386.12 -63.83,393.54 -81.41,443.09 -86.49,457.44" fill="none" stroke="#bcbcbc" stroke-width="8" stroke-linecap="round" stroke-linejoin="round" /><polyline points="-345.40,-336.48 -343.00,-342.99 -342.46,-344.50 -331.05,-376.37 -326.77,-389.80 -291.79,-492.64" fill="none" stroke="#bcbcbc" stroke-width="8" stroke-linecap="round" stroke-linejoin="round" /><polyline points="-164.46,-192.30 -160.90,-201.78 -151.23,-227.45 -147.14,-238.31 -144.38,-245.65 -136.62,-266.25 -131.50,-279.86 -130.81,-281.69 -118.40,-314.66 -113.21,-313.05 -110.39,-320.71 -105.42,-334.25 -106.37,-340.40 -93.17,-376.34 -91.81,-380.04 -89.31,-382.34 -87.20,-384.27 -73.96,-420.47 -72.05,-430.38 -53.05,-483.16 -48.55,-486.67 -39.41,-512.53 -41.04,-516.50 -33.03,-540.65 -37.19,-562.21" fill="none" stroke="#bcbcbc" stroke-width="8" stroke-linecap="round" stroke-linejoin="round" /><polyline points="175.39,-1174.11 170.07,-1182.85 142.09,-1228.73" fill="none" stroke="#bcbcbc" stroke-width="8" stroke-linecap="round" stroke-linejoin="round" /><polyline points="263.01,-569.45 391.39,-486.90 391.43,-486.85 391.43,-486.83 415.17,-483.75" fill="none" stroke="#bcbcbc" stroke-width="8" stroke-linecap="round" stroke-linejoin="round" /><polyline points="211.53,-741.88 348.12,-673.33 352.24,-670.25 351.97,-647.81 354.73,-624.78" fill="none" stroke="#bcbcbc" stroke-width="8" stroke-linecap="round" stroke-linejoin="round" /><polyline points="-48.88,469.36 -53.79,484.35 -73.69,545.04 -107.54,647.25 -109.94,654.50 -112.38,661.85 -113.06,669.67" fill="none" stroke="#bcbcbc" stroke-width="8" stroke-linecap="round" stroke-linejoin="round" /><polyline points="335.64,100.68 336.46,93.07 336.63,85.96 336.57,85.71 331.73,64.79 329.75,56.05 328.79,51.83 327.81,47.52 322.50,24.12 312.12,-22.65 304.58,-50.77 303.51,-55.12" fill="none" stroke="#bcbcbc" stroke-width="8" stroke-linecap="round" stroke-linejoin="round" /><polyline points="-342.49,528.84 -339.10,519.21 -301.07,411.13 -296.75,398.86" fill="none" stroke="#bcbcbc" stroke-width="8" stroke-linecap="round" stroke-linejoin="round" /><polyline points="511.51,-351.30 500.32,-354.46 424.33,-471.06 415.17,-483.75" fill="none" stroke="#bcbcbc" stroke-width="8" stroke-linecap="round" stroke-linejoin="round" /><polyline points="-737.74,-71.53 -460.78,-5.18 -441.69,1.79" fill="none" stroke="#bcbcbc" stroke-width="8" stroke-linecap="round" stroke-linejoin="round" /><polyline points="135.79,-1108.22 243.68,-1068.26 258.87,-1070.85" fill="none" stroke="#bcbcbc" stroke-width="8" stroke-linecap="round" stroke-linejoin="round" />
    <polyline points="167.20,352.80 170.25,343.21 191.74,275.67 194.18,267.99 197.65,257.06 200.14,249.22 219.16,167.20" fill="none" stroke="#ffffff" stroke-width="16" stroke-linecap="round" stroke-linejoin="round" />
    <polyline points="167.20,352.80 170.25,343.21 191.74,275.67 194.18,267.99 197.65,257.06 200.14,249.22 219.16,167.20" fill="none" stroke="#111111" stroke-width="9" stroke-linecap="round" stroke-linejoin="round" />
    
            <g transform="translate(167.20,352.80)">
              <circle r="19" fill="#ffffff" stroke="#111111" stroke-width="4" />
              <text text-anchor="middle" dominant-baseline="central" font-family="Helvetica, Arial, sans-serif"
                font-size="18" font-weight="700" fill="#111111">1</text>
            </g>
            
            <g transform="translate(219.16,167.20)">
              <circle r="19" fill="#ffffff" stroke="#111111" stroke-width="4" />
              <text text-anchor="middle" dominant-baseline="central" font-family="Helvetica, Arial, sans-serif"
                font-size="18" font-weight="700" fill="#111111">2</text>
            </g>
            
  </g>
</svg>
