<svg xmlns="http://www.w3.org/2000/svg" width="520" height="520" viewBox="0 0 520 520">
  <rect width="100%" height="100%" fill="#ffffff" />
  <g>
    <polyline points="425.13,603.79 427.23,614.96 440.78,709.78 438.71,733.49" fill="none" stroke="#bcbcbc" stroke-width="8" stroke-linecap="round" stroke-linejoin="round" /><polyline points="149.66,1393.98 152.93,1383.91 170.29,1330.51 172.34,1324.22 174.41,1317.61 218.07,1178.38 221.58,1167.18 213.54,1147.37" fill="none" stroke="#bcbcbc" stroke-width="8" stroke-linecap="round" stroke-linejoin="round" /><polyline points="-151.89,1270.15 -152.60,1262.15 -138.32,1182.20 -136.32,1172.20 -134.83,1166.96 -130.90,1146.69 -126.48,1121.87 -121.67,1100.02 -116.90,1078.21 -113.90,1072.07 -111.93,1068.30" fill="none" stroke="#bcbcbc" stroke-width="8" stroke-linecap="round" stroke-linejoin="round" /><polyline points="-69.05,706.21 -72.44,695.86 -107.51,588.88 -109.23,584.39" fill="none" stroke="#bcbcbc" stroke-width="8" stroke-linecap="round" stroke-linejoin="round" /><polyline points="-249.02,1647.79 -247.97,1637.59 -247.55,1632.90 -243.73,1590.66 -239.55,1553.47 -238.57,1544.78 -237.66,1534.36 -237.56,1533.49 -235.19,1512.77 -233.15,1491.71 -230.90,1471.39 -229.38,1455.57 -228.75,1445.81 -228.19,1436.79 -227.20,1426.63" fill="none" stroke="#bcbcbc" stroke-width="8" stroke-linecap="round" stroke-linejoin="round" /><polyline points="235.61,1418.81 238.11,1410.95 255.71,1355.62 257.71,1349.33 260.55,1340.37 262.59,1333.96 278.17,1266.76" fill="none" stroke="#bcbcbc" stroke-width="8" stroke-linecap="round" stroke-linejoin="round" /><polyline points="-292.59,1405.77 -311.23,1404.90 -322.60,1404.37 -328.77,1404.08 -334.19,1403.83 -376.40,1401.87 -435.12,1399.14 -463.10,1395.17 -472.47,1393.84 -480.60,1392.41 -535.64,1382.69 -543.34,1381.33 -545.04,1381.04 -554.54,1379.41 -561.85,1378.16 -608.49,1374.03 -617.37,1373.25 -620.63,1372.96 -630.72,1372.26 -650.46,1370.89" fill="none" stroke="#bcbcbc" stroke-width="8" stroke-linecap="round" stroke-linejoin="round" /><polyline points="-21.76,1351.68 -18.14,1341.40 14.39,1251.19 53.53,1137.41 56.04,1130.27 57.79,1125.29 59.21,1121.19" fill="none" stroke="#bcbcbc" stroke-width="8" stroke-linecap="round" stroke-linejoin="round" /><polyline points="-620.63,1372.96 -621.46,1367.16 -621.66,1360.86 -620.43,1348.18 -617.59,1325.01 -615.70,1317.24 -612.64,1289.13 -612.08,1282.87 -611.18,1274.82 -610.51,1268.84 -609.25,1262.07 -606.92,1243.83 -605.31,1229.89 -602.93,1224.18" fill="none" stroke="#bcbcbc" stroke-width="8" stroke-linecap="round" stroke-linejoin="round" /><polyline points="-653.94,1217.06 -610.53,1223.12 -602.93,1224.18 -598.22,1224.93 -578.76,1228.03 -533.94,1235.18 -526.25,1236.46" fill="none" stroke="#bcbcbc" stroke-width="8" stroke-linecap="round" stroke-linejoin="round" /><polyline points="144.79,647.64 145.07,651.58 145.65,655.58 147.06,658.64 149.70,662.05 154.58,666.50 166.15,673.53 255.38,729.52 310.34,803.22 351.85,905.67 354.56,912.44" fill="none" stroke="#bcbcbc" stroke-width="8" stroke-linecap="round" stroke-linejoin="round" /><polyline points="130.50,946.60 132.35,949.66 132.83,950.45 134.36,958.18 144.83,1008.82 148.15,1024.89 150.53,1036.33 154.24,1059.53 155.97,1070.23 157.16,1076.76 158.47,1082.66 160.03,1086.10 162.32,1090.08 163.55,1091.96 186.73,1125.15 199.27,1144.90 202.55,1149.63" fill="none" stroke="#bcbcbc" stroke-width="8" stroke-linecap="round" stroke-linejoin="round" /><polyline points="-535.11,1580.58 -533.88,1572.98 -532.73,1567.48 -532.43,1566.76 -516.99,1530.06 -507.16,1506.21 -504.17,1498.65 -501.01,1490.64 -497.57,1483.76 -497.01,1482.42 -492.31,1471.04 -488.67,1460.98 -485.55,1451.74 -483.57,1445.22 -481.35,1437.15 -478.79,1426.34 -476.85,1417.57 -474.52,1405.33 -474.03,1402.60 -472.47,1393.84" fill="none" stroke="#bcbcbc" stroke-width="8" stroke-linecap="round" stroke-linejoin="round" /><polyline points="212.57,555.75 261.77,590.13 268.40,591.54 273.25,597.09" fill="none" stroke="#bcbcbc" stroke-width="8" stroke-linecap="round" stroke-linejoin="round" /><polyline points="5.95,873.33 12.45,875.83 40.69,885.07 106.18,910.19 109.85,913.85 111.58,916.59" fill="none" stroke="#bcbcbc" stroke-width="8" stroke-linecap="round" stroke-linejoin="round" /><polyline points="127.99,1518.80 132.45,1507.17 154.47,1447.43 170.03,1402.29 173.26,1400.81" fill="none" stroke="#bcbcbc" stroke-width="8" stroke-linecap="round" stroke-linejoin="round" /><polyline points="-183.23,1443.05 -179.76,1435.36 -179.41,1434.60 -173.47,1414.66 -163.73,1381.84 -161.24,1373.44 -159.30,1366.91 -159.04,1363.11 -159.44,1354.69" fill="none" stroke="#bcbcbc" stroke-width="8" stroke-linecap="round" stroke-linejoin="round" /><polyline points="221.45,949.22 215.87,950.37 203.22,948.12 201.26,942.90 179.34,934.55 174.16,935.90 154.39,928.64 151.44,930.70" fill="none" stroke="#bcbcbc" stroke-width="8" stroke-linecap="round" stroke-linejoin="round" /><polyline points="188.91,271.18 198.84,273.62 204.33,274.57 334.98,297.23" fill="none" stroke="#bcbcbc" stroke-width="8" stroke-linecap="round" stroke-linejoin="round" /><polyline points="87.36,1482.42 92.80,1467.09 103.36,1437.31 110.18,1424.62 120.00,1397.12 123.93,1386.15" fill="none" stroke="#bcbcbc" stroke-width="8" stroke-linecap="round" stroke-linejoin="round" /><polyline points="-628.48,887.66 -637.95,887.22 -640.32,890.10 -656.80,910.14 -714.43,976.71 -722.53,986.08" fill="none" stroke="#bcbcbc" stroke-width="8" stroke-linecap="round" stroke-linejoin="round" /><polyline points="-123.01,944.68 -127.19,953.92 -127.70,955.05 -142.21,992.89 -156.84,1034.56 -160.74,1045.67 -162.95,1051.41" fill="none" stroke="#bcbcbc" stroke-width="8" stroke-linecap="round" stroke-linejoin="round" /><polyline points="89.87,519.39 94.48,525.64 97.77,534.25 102.89,546.59 111.11,566.02 118.40,583.45 126.75,602.59 132.96,617.34 133.87,619.46 133.93,619.59 138.92,631.26 140.41,634.58 141.83,637.73 143.33,640.69 144.46,643.70 144.79,647.64" fill="none" stroke="#bcbcbc" stroke-width="8" stroke-linecap="round" stroke-linejoin="round" /><polyline points="-263.09,1131.26 -260.68,1129.94 -257.30,1127.25 -255.61,1123.77 -233.19,1038.74 -232.51,1033.95 -229.78,1025.19" fill="none" stroke="#bcbcbc" stroke-width="8" stroke-linecap="round" stroke-linejoin="round" /><polyline points="520.93,998.19 524.11,1008.29 526.35,1018.90 522.00,1059.31 516.96,1089.71 514.21,1100.08 513.96,1101.02 511.55,1106.62 508.26,1112.55 500.59,1122.26 504.31,1141.23 492.29,1181.95 485.65,1204.44 472.08,1241.26 452.20,1286.08 427.93,1329.03 420.35,1342.99 406.65,1365.93 351.89,1443.65 339.90,1459.82 293.44,1520.53 266.77,1550.88 229.46,1588.80 226.01,1589.16 217.59,1596.05" fill="none" stroke="#bcbcbc" stroke-width="8" stroke-linecap="round" stroke-linejoin="round" /><polyline points="-154.68,1663.01 -139.40,1615.60 -136.90,1607.77 -133.50,1602.84 -126.20,1580.93 -123.82,1573.49 -93.67,1479.07 -90.64,1469.57 -88.14,1461.23 -52.55,1349.22" fill="none" stroke="#bcbcbc" stroke-width="8" stroke-linecap="round" stroke-linejoin="round" /><polyline points="203.37,781.33 216.59,766.89 220.48,762.19 247.18,724.37" fill="none" stroke="#bcbcbc" stroke-width="8" stroke-linecap="round" stroke-linejoin="round" /><polyline points="-60.72,787.05 -24.33,799.72 -22.32,802.99 -11.99,806.45 -5.86,808.55 23.47,818.46" fill="none" stroke="#bcbcbc" stroke-width="8" stroke-linecap="round" stroke-linejoin="round" /><polyline points="256.43,535.22 273.25,597.09 292.74,669.97 295.69,676.05 296.16,682.98 309.37,707.65 345.03,774.15 352.82,785.65 355.08,789.02 408.35,888.62 432.83,910.88 436.26,915.31 441.10,919.45 487.59,959.20 490.74,961.90 499.09,966.33" fill="none" stroke="#bcbcbc" stroke-width="8" stroke-linecap="round" stroke-linejoin="round" /><polyline points="75.64,1673.08 191.57,1605.73 212.21,1595.17 217.59,1596.05" fill="none" stroke="#bcbcbc" stroke-width="8" stroke-linecap="round" stroke-linejoin="round" /><polyline points="201.33,1576.73 208.53,1568.17 273.10,1439.31 277.38,1430.86 280.95,1422.50 301.81,1370.91 308.02,1355.37 326.00,1300.96 337.65,1231.00 339.04,1220.82" fill="none" stroke="#bcbcbc" stroke-width="8" stroke-linecap="round" stroke-linejoin="round" /><polyline points="151.50,818.90 150.37,820.06 148.82,825.48 148.66,826.02 141.65,853.00 143.49,860.05 141.96,866.36 139.96,874.63 134.83,880.57 129.01,904.15 122.16,909.33 114.84,914.35 111.58,916.59" fill="none" stroke="#bcbcbc" stroke-width="8" stroke-linecap="round" stroke-linejoin="round" /><polyline points="-123.01,944.68 -120.04,937.04 -102.12,891.11 -98.21,881.09 -94.99,872.84 -72.11,814.19 -61.80,789.67 -60.72,787.05 -52.71,767.68 -34.74,723.06 -28.16,704.06 -26.69,699.70 -24.72,694.76" fill="none" stroke="#bcbcbc" stroke-width="8" stroke-linecap="round" stroke-linejoin="round" /><polyline points="77.45,666.26 80.91,676.57 194.60,773.69 256.64,827.67 349.30,908.24 357.39,914.71 361.01,916.97 377.09,931.57 398.56,949.89 447.26,991.42 463.00,1004.95 473.43,1017.44" fill="none" stroke="#bcbcbc" stroke-width="8" stroke-linecap="round" stroke-linejoin="round" /><polyline points="265.42,498.90 271.19,495.21 305.35,481.01 312.37,473.62" fill="none" stroke="#bcbcbc" stroke-width="8" stroke-linecap="round" stroke-linejoin="round" /><polyline points="304.88,1363.23 257.71,1349.33 172.34,1324.22" fill="none" stroke="#bcbcbc" stroke-width="8" stroke-linecap="round" stroke-linejoin="round" /><polyline points="152.63,359.89 159.07,364.33 369.00,411.05" fill="none" stroke="#bcbcbc" stroke-width="8" stroke-linecap="round" stroke-linejoin="round" /><polyline points="411.94,1051.16 401.09,1027.02 377.02,969.59 375.22,965.02 371.10,954.54 355.58,915.04 354.61,912.48" fill="none" stroke="#bcbcbc" stroke-width="8" stroke-linecap="round" stroke-linejoin="round" /><polyline points="89.87,519.39 78.21,516.07 69.65,513.52 52.24,508.35 43.40,505.83 38.33,504.42 31.72,502.53" fill="none" stroke="#bcbcbc" stroke-width="8" stroke-linecap="round" stroke-linejoin="round" /><polyline points="-214.02,835.27 -214.61,833.34 -215.15,831.99 -217.55,826.02 -226.86,804.32 -235.70,782.28 -237.61,777.08 -239.81,771.08 -241.39,766.18 -243.99,758.83 -244.26,758.05 -252.72,737.20 -268.25,698.00 -271.74,696.01 -274.22,689.65 -279.18,672.43 -287.67,651.10 -289.49,646.25" fill="none" stroke="#bcbcbc" stroke-width="8" stroke-linecap="round" stroke-linejoin="round" /><polyline points="-139.40,1615.60 -130.58,1618.31 -102.03,1627.00 -93.09,1629.73" fill="none" stroke="#bcbcbc" stroke-width="8" stroke-linecap="round" stroke-linejoin="round" /><polyline points="393.60,509.17 395.27,502.44 394.59,499.89 393.78,496.81 388.57,477.71 376.95,437.35 370.82,416.72 369.00,411.05 352.80,352.80 344.06,321.38 334.98,297.23 326.78,275.43 318.62,260.45 310.69,252.53 249.81,178.13 245.31,172.83 242.32,167.94" fill="none" stroke="#bcbcbc" stroke-width="8" stroke-linecap="round" stroke-linejoin="round" /><polyline points="144.79,647.64 141.65,648.84 135.84,650.44 135.26,650.60 111.01,656.80 83.14,664.65 77.45,666.26 74.91,667.06 68.21,669.22 62.49,670.81 37.49,677.77 -3.63,689.45 -18.95,693.32 -24.72,694.76 -52.12,701.49 -69.05,706.21 -104.89,716.22 -140.32,726.21 -144.42,727.35 -174.03,735.57 -187.68,739.36 -194.58,742.62 -207.63,749.09 -233.56,762.25 -235.37,763.17 -241.39,766.18 -245.06,768.02 -250.18,770.70 -268.40,780.25 -301.59,798.88 -329.31,813.40 -333.28,815.48 -338.58,815.81 -341.76,817.50 -342.39,817.84 -372.47,834.33 -378.77,834.30 -386.00,838.08 -388.53,839.40 -390.66,840.52 -395.68,843.15 -399.65,852.19 -416.67,861.31 -422.08,864.20 -427.94,867.39 -451.62,880.28 -463.87,886.95 -470.04,888.73" fill="none" stroke="#bcbcbc" stroke-width="8" stroke-linecap="round" stroke-linejoin="round" /><polyline points="485.65,1204.44 473.01,1205.60 433.54,1209.22 431.76,1209.38 429.24,1209.61 425.16,1209.99 386.89,1213.50 373.57,1212.27 358.07,1216.15 345.65,1219.20 339.04,1220.82 322.60,1221.44 308.38,1220.72 301.12,1219.95 294.95,1218.08 290.41,1215.57 273.48,1203.60 232.35,1175.35 228.48,1172.72 224.53,1170.04 221.58,1167.18" fill="none" stroke="#bcbcbc" stroke-width="8" stroke-linecap="round" stroke-linejoin="round" /><polyline points="-445.82,727.49 -430.90,756.71 -428.64,765.06 -416.07,789.04 -410.88,795.91 -389.87,836.79 -388.53,839.40" fill="none" stroke="#bcbcbc" stroke-width="8" stroke-linecap="round" stroke-linejoin="round" /><polyline points="11.49,987.33 9.26,993.48 8.63,995.38 5.72,1004.22 -12.75,1055.74 -21.91,1081.32 -22.22,1082.19 -25.90,1090.14 -28.02,1094.87" fill="none" stroke="#bcbcbc" stroke-width="8" stroke-linecap="round" stroke-linejoin="round" /><polyline points="256.43,535.22 254.38,530.84 249.00,530.14 231.60,534.13 228.06,533.67 225.29,529.95 220.37,507.31 247.04,503.18 259.38,499.53 265.42,498.90 271.92,522.03" fill="none" stroke="#bcbcbc" stroke-width="8" stroke-linecap="round" stroke-linejoin="round" /><polyline points="352.82,785.65 359.69,781.79 394.20,760.99 403.42,755.50 419.56,745.88 446.12,728.70 452.31,724.24 498.90,695.34" fill="none" stroke="#bcbcbc" stroke-width="8" stroke-linecap="round" stroke-linejoin="round" /><polyline points="515.65,922.16 503.87,918.65 497.03,913.03 470.86,890.39 469.97,889.59 463.64,883.95 459.93,877.35 394.20,760.99" fill="none" stroke="#bcbcbc" stroke-width="8" stroke-linecap="round" stroke-linejoin="round" /><polyline points="-226.14,912.94 -123.01,944.68 -114.60,947.34 -37.64,971.74 -36.03,972.25 -24.50,975.91 -18.83,977.71 -11.47,979.72 3.72,984.87 11.49,987.33 18.48,989.55 75.76,1007.72 136.22,1026.72 141.22,1028.29 148.15,1024.89" fill="none" stroke="#bcbcbc" stroke-width="8" stroke-linecap="round" stroke-linejoin="round" /><polyline points="77.09,403.72 121.76,362.67 129.33,355.72" fill="none" stroke="#bcbcbc" stroke-width="8" stroke-linecap="round" stroke-linejoin="round" /><polyline points="-670.98,1066.16 -507.06,1083.73" fill="none" stroke="#bcbcbc" stroke-width="8" stroke-linecap="round" stroke-linejoin="round" /><polyline points="-176.48,608.57 -142.02,596.25 -106.48,583.40 -84.40,574.81 -16.99,550.29 2.58,543.52 6.67,542.11 11.57,540.42 17.07,538.53 17.74,538.30 28.85,533.83 33.68,531.89" fill="none" stroke="#bcbcbc" stroke-width="8" stroke-linecap="round" stroke-linejoin="round" /><polyline points="54.93,1442.40 87.36,1482.42 107.22,1502.41 115.82,1508.60 127.99,1518.80 139.42,1528.40 149.24,1537.98 149.48,1542.85" fill="none" stroke="#bcbcbc" stroke-width="8" stroke-linecap="round" stroke-linejoin="round" /><polyline points="89.87,519.39 102.58,487.52 123.16,435.06 152.63,359.89 167.20,324.28 188.91,271.18 206.71,227.69 209.89,221.92 225.54,196.32 226.55,194.67 232.28,183.41 242.32,167.94 247.93,159.30 255.87,147.09" fill="none" stroke="#bcbcbc" stroke-width="8" stroke-linecap="round" stroke-linejoin="round" /><polyline points="-210.03,1371.42 -212.11,1373.09 -213.49,1375.07 -216.29,1383.34 -218.23,1389.31 -227.19,1416.09 -228.42,1419.96 -229.18,1422.36 -237.41,1420.00 -257.42,1413.29 -277.26,1406.63 -292.59,1405.77" fill="none" stroke="#bcbcbc" stroke-width="8" stroke-linecap="round" stroke-linejoin="round" /><polyline points="-602.01,1557.81 -569.32,1473.38 -565.68,1464.19 -562.42,1455.34 -558.48,1444.64 -553.65,1427.82 -548.61,1406.91 -546.54,1391.92 -545.04,1381.04 -542.92,1373.00 -535.23,1312.64 -526.25,1236.46 -521.60,1200.14 -516.41,1157.48 -507.06,1083.73 -505.57,1071.19 -496.12,994.07 -496.11,989.77 -494.03,966.89 -488.00,918.55 -486.49,910.12 -484.91,905.39 -482.44,900.18 -480.05,896.14 -474.76,890.41 -470.03,888.79" fill="none" stroke="#bcbcbc" stroke-width="8" stroke-linecap="round" stroke-linejoin="round" /><polyline points="111.58,916.59 113.37,919.42 119.36,928.78 128.33,943.17 130.50,946.60 134.08,943.88 151.44,930.70" fill="none" stroke="#bcbcbc" stroke-width="8" stroke-linecap="round" stroke-linejoin="round" /><polyline points="123.16,435.06 299.77,466.99 318.32,476.75 387.51,511.06 393.60,509.17" fill="none" stroke="#bcbcbc" stroke-width="8" stroke-linecap="round" stroke-linejoin="round" /><polyline points="-214.02,835.27 -217.15,839.84 -245.33,853.59 -266.02,879.90 -288.35,893.73 -303.63,905.26 -318.20,917.15 -325.67,923.96 -338.86,940.70 -353.62,961.85 -356.05,965.77" fill="none" stroke="#bcbcbc" stroke-width="8" stroke-linecap="round" stroke-linejoin="round" /><polyline points="-184.23,854.14 -185.45,856.85 -188.12,860.76 -193.17,866.97 -222.93,904.57 -238.68,946.99 -318.16,917.11" fill="none" stroke="#bcbcbc" stroke-width="8" stroke-linecap="round" stroke-linejoin="round" /><polyline points="-303.63,905.26 -306.70,895.94 -320.00,855.67 -325.16,847.71 -333.81,821.78 -334.55,819.54 -333.28,815.48 -335.35,808.87 -376.91,676.16" fill="none" stroke="#bcbcbc" stroke-width="8" stroke-linecap="round" stroke-linejoin="round" /><polyline points="183.33,181.15 216.17,182.02 217.71,182.06 224.00,182.24 232.28,183.41" fill="none" stroke="#bcbcbc" stroke-width="8" stroke-linecap="round" stroke-linejoin="round" /><polyline points="14.39,1251.19 3.18,1251.05 -91.78,1263.80 -98.62,1264.52 -106.45,1265.35 -151.89,1270.15 -213.11,1276.61 -245.56,1280.04 -263.52,1281.93 -278.10,1283.70 -285.58,1284.61 -294.01,1285.64 -334.74,1290.59 -344.50,1291.77 -374.58,1295.06 -535.23,1312.64" fill="none" stroke="#bcbcbc" stroke-width="8" stroke-linecap="round" stroke-linejoin="round" /><polyline points="-126.20,1580.93 -134.61,1578.22 -173.90,1565.57 -181.84,1563.02 -188.74,1560.80 -230.36,1547.42 -238.57,1544.78 -249.43,1541.29 -315.69,1519.96 -323.15,1517.56" fill="none" stroke="#bcbcbc" stroke-width="8" stroke-linecap="round" stroke-linejoin="round" /><polyline points="38.09,785.33 60.95,792.46 144.52,818.27 145.30,818.51 151.50,818.90" fill="none" stroke="#bcbcbc" stroke-width="8" stroke-linecap="round" stroke-linejoin="round" /><polyline points="273.25,597.09 386.94,599.09" fill="none" stroke="#bcbcbc" stroke-width="8" stroke-linecap="round" stroke-linejoin="round" /><polyline points="217.59,1596.05 201.33,1576.73 194.52,1568.79 188.66,1563.32 180.86,1557.49 164.91,1547.93 149.48,1542.85 118.09,1533.16 92.42,1525.01 107.22,1502.41" fill="none" stroke="#bcbcbc" stroke-width="8" stroke-linecap="round" stroke-linejoin="round" /><polyline points="54.93,1442.40 32.30,1414.46 27.99,1409.15 5.20,1377.74 0.04,1368.15 1.28,1356.73 8.15,1356.67 25.10,1359.93 50.90,1364.89" fill="none" stroke="#bcbcbc" stroke-width="8" stroke-linecap="round" stroke-linejoin="round" /><polyline points="-241.11,1218.56 -236.94,1227.54 -213.11,1276.61 -177.67,1349.58 -173.15,1358.88" fill="none" stroke="#bcbcbc" stroke-width="8" stroke-linecap="round" stroke-linejoin="round" /><polyline points="-622.85,1440.82 -614.32,1444.30 -574.40,1460.63 -565.68,1464.19 -556.51,1467.94 -509.51,1487.17 -501.01,1490.64" fill="none" stroke="#bcbcbc" stroke-width="8" stroke-linecap="round" stroke-linejoin="round" /><polyline points="-221.50,1145.81 -138.32,1182.20" fill="none" stroke="#bcbcbc" stroke-width="8" stroke-linecap="round" stroke-linejoin="round" /><polyline points="151.50,818.90 164.17,819.56 164.98,820.28 170.66,825.32 179.02,832.78 180.56,835.78 209.36,861.00 211.49,865.03 231.74,882.90 236.83,884.46 252.59,898.25 256.11,899.87 279.87,920.02 285.16,924.71 288.08,929.36" fill="none" stroke="#bcbcbc" stroke-width="8" stroke-linecap="round" stroke-linejoin="round" /><polyline points="-646.33,1145.89 -516.41,1157.48" fill="none" stroke="#bcbcbc" stroke-width="8" stroke-linecap="round" stroke-linejoin="round" /><polyline points="-356.25,1629.72 -352.22,1621.15 -351.19,1617.34 -345.54,1596.53 -325.11,1524.46 -323.15,1517.56 -321.08,1509.99 -311.82,1476.13 -296.19,1418.95 -292.59,1405.77" fill="none" stroke="#bcbcbc" stroke-width="8" stroke-linecap="round" stroke-linejoin="round" /><polyline points="-241.11,1218.56 -221.50,1145.81 -263.09,1131.26 -273.98,1137.69 -278.94,1141.46 -282.62,1146.44 -285.20,1153.00 -294.77,1188.36 -287.05,1192.29 -279.26,1194.18 -262.02,1198.67 -249.12,1202.78 -241.11,1218.56" fill="none" stroke="#bcbcbc" stroke-width="8" stroke-linecap="round" stroke-linejoin="round" /><polyline points="-294.77,1188.36 -303.88,1187.09 -516.41,1157.48" fill="none" stroke="#bcbcbc" stroke-width="8" stroke-linecap="round" stroke-linejoin="round" /><polyline points="50.90,1364.89 70.61,1369.20 123.93,1386.15 138.83,1390.86 174.22,1401.08 209.86,1411.36 236.25,1418.99 278.45,1431.17 287.17,1433.69 308.47,1440.84 343.53,1450.18 346.62,1450.75" fill="none" stroke="#bcbcbc" stroke-width="8" stroke-linecap="round" stroke-linejoin="round" /><polyline points="75.91,1672.92 68.71,1674.73 60.93,1696.41 48.88,1692.98 -5.96,1674.29 -12.56,1672.88 -27.24,1671.83 -93.65,1672.10 -108.29,1670.23 -141.35,1665.18 -154.68,1663.01 -249.26,1647.76 -285.88,1641.91 -355.73,1629.81 -367.00,1627.58 -524.63,1583.51 -534.58,1580.73 -602.01,1557.81 -618.60,1551.92 -660.03,1534.75 -683.65,1525.81" fill="none" stroke="#bcbcbc" stroke-width="8" stroke-linecap="round" stroke-linejoin="round" /><polyline points="220.37,507.31 213.54,505.90 122.44,516.67 89.87,519.39" fill="none" stroke="#bcbcbc" stroke-width="8" stroke-linecap="round" stroke-linejoin="round" /><polyline points="50.90,1364.89 54.09,1359.55 73.21,1310.44 94.57,1236.19 100.02,1220.20 102.93,1215.85 123.56,1149.64 124.58,1141.74 125.36,1136.57" fill="none" stroke="#bcbcbc" stroke-width="8" stroke-linecap="round" stroke-linejoin="round" /><polyline points="144.79,647.64 146.96,646.81 149.91,644.46 154.40,639.22 212.57,555.75 228.06,533.67" fill="none" stroke="#bcbcbc" stroke-width="8" stroke-linecap="round" stroke-linejoin="round" /><polyline points="403.69,954.29 404.88,950.86 434.12,916.45 436.26,915.31 441.34,908.36 458.35,888.82 463.64,883.95" fill="none" stroke="#bcbcbc" stroke-width="8" stroke-linecap="round" stroke-linejoin="round" /><polyline points="429.24,1209.61 428.83,1205.01 428.52,1201.45 426.98,1194.64 425.14,1190.19 422.84,1178.53 422.63,1174.30 421.07,1164.86 414.12,1161.22 408.55,1163.35 398.60,1165.73 390.72,1166.96 383.16,1168.79 372.72,1171.16 367.96,1172.25" fill="none" stroke="#bcbcbc" stroke-width="8" stroke-linecap="round" stroke-linejoin="round" /><polyline points="-338.99,1040.64 -317.73,990.79 -316.55,987.55" fill="none" stroke="#bcbcbc" stroke-width="8" stroke-linecap="round" stroke-linejoin="round" /><polyline points="221.45,949.22 231.70,945.25 237.06,943.17 241.20,938.98 258.29,934.77 264.03,936.23 276.39,933.04 285.83,930.61 288.08,929.36 297.22,927.11 344.00,915.65 354.61,912.48" fill="none" stroke="#bcbcbc" stroke-width="8" stroke-linecap="round" stroke-linejoin="round" /><polyline points="-210.03,1371.42 -187.96,1363.41 -180.58,1361.15 -173.15,1358.88 -159.44,1354.69 -148.77,1353.16 -112.33,1349.17 -105.01,1348.77 -72.41,1349.05 -52.55,1349.22 -45.08,1348.84 -33.12,1350.05 -29.38,1350.59 -21.76,1351.68 1.28,1356.73" fill="none" stroke="#bcbcbc" stroke-width="8" stroke-linecap="round" stroke-linejoin="round" /><polyline points="-104.89,716.22 -108.55,703.86 -122.12,657.95 -138.62,605.59 -142.02,596.25 -145.48,587.49 -149.85,574.86" fill="none" stroke="#bcbcbc" stroke-width="8" stroke-linecap="round" stroke-linejoin="round" /><polyline points="-144.38,1456.54 -141.48,1447.38 -112.15,1354.86 -112.33,1349.17" fill="none" stroke="#bcbcbc" stroke-width="8" stroke-linecap="round" stroke-linejoin="round" /><polyline points="-105.01,1348.77 -99.20,1270.88 -98.62,1264.52 -97.73,1257.13 -97.72,1256.80 -97.34,1247.76 -95.40,1223.24 -94.31,1211.82 -92.81,1198.85 -91.45,1189.51 -90.23,1183.64 -88.69,1179.21 -85.68,1169.22 -79.44,1148.43 -71.52,1121.58 -62.78,1094.12 -61.00,1088.52 -59.57,1084.46" fill="none" stroke="#bcbcbc" stroke-width="8" stroke-linecap="round" stroke-linejoin="round" /><polyline points="-294.77,1188.36 -296.31,1195.26 -296.05,1197.47 -286.58,1276.27 -285.58,1284.61 -286.02,1293.20 -288.50,1342.21 -289.53,1362.69 -290.07,1373.25 -291.02,1392.07 -291.51,1401.88 -292.59,1405.77" fill="none" stroke="#bcbcbc" stroke-width="8" stroke-linecap="round" stroke-linejoin="round" /><polyline points="-338.99,1040.64 -373.40,1030.41 -377.78,1027.61 -399.19,1021.37 -405.21,1021.43 -432.12,1013.33 -436.46,1010.12 -460.95,1002.70 -490.99,994.51 -491.14,994.49 -496.12,994.07" fill="none" stroke="#bcbcbc" stroke-width="8" stroke-linecap="round" stroke-linejoin="round" /><polyline points="288.08,929.36 289.27,930.92 294.26,938.36 303.48,952.11 312.17,960.81 328.86,979.55 326.04,996.87 324.60,1003.36 322.61,1006.11 326.80,1012.30 333.27,1025.63 346.21,1050.59 352.58,1062.88 356.54,1073.93 358.33,1079.06" fill="none" stroke="#bcbcbc" stroke-width="8" stroke-linecap="round" stroke-linejoin="round" /><polyline points="375.22,965.02 370.42,966.52 338.83,976.35 334.29,977.80 328.86,979.55" fill="none" stroke="#bcbcbc" stroke-width="8" stroke-linecap="round" stroke-linejoin="round" /><polyline points="148.15,1024.89 158.03,1021.68 229.76,985.06 239.36,980.36 273.16,970.60 305.94,961.38 312.17,960.81" fill="none" stroke="#bcbcbc" stroke-width="8" stroke-linecap="round" stroke-linejoin="round" /><polyline points="155.97,1070.23 238.65,1031.75 242.13,1029.45 250.22,1027.09 305.32,1011.06 313.68,1007.86 322.61,1006.11" fill="none" stroke="#bcbcbc" stroke-width="8" stroke-linecap="round" stroke-linejoin="round" /><polyline points="139.09,263.44 172.57,267.58 175.93,268.00 188.91,271.18" fill="none" stroke="#bcbcbc" stroke-width="8" stroke-linecap="round" stroke-linejoin="round" /><polyline points="425.13,603.79 431.07,602.55 453.25,613.42 456.17,616.31 497.80,686.80 498.90,695.34 504.31,699.85 503.45,702.97 503.32,708.05 504.07,715.15 515.10,760.48 516.07,791.87 517.62,842.00 520.21,909.46 509.65,938.86 502.85,956.78 492.92,982.04 490.04,989.34 488.17,991.39 485.17,1010.93" fill="none" stroke="#bcbcbc" stroke-width="8" stroke-linecap="round" stroke-linejoin="round" /><polyline points="502.11,1129.99 491.98,1125.59 466.68,1107.93 433.29,1084.46 414.93,1069.61 402.54,1056.35" fill="none" stroke="#bcbcbc" stroke-width="8" stroke-linecap="round" stroke-linejoin="round" /><polyline points="92.42,1525.01 82.48,1521.85 66.34,1516.74 58.64,1514.29 49.59,1511.43 38.16,1507.80 27.83,1504.53 17.62,1501.28 -27.93,1486.83 -35.91,1484.30 -45.82,1481.16 -48.01,1480.47 -74.06,1473.58 -81.42,1471.80 -90.64,1469.57 -100.29,1467.23 -135.06,1458.80 -144.38,1456.54 -154.40,1453.06 -175.34,1445.79 -183.23,1443.05 -190.29,1440.75 -223.07,1429.10 -227.20,1426.63 -229.18,1422.36" fill="none" stroke="#bcbcbc" stroke-width="8" stroke-linecap="round" stroke-linejoin="round" /><polyline points="242.13,1029.45 239.72,1020.79 232.52,994.98 229.76,985.06 225.76,977.64 225.38,976.26 223.03,967.52 225.77,963.65 222.47,952.64 221.45,949.22" fill="none" stroke="#bcbcbc" stroke-width="8" stroke-linecap="round" stroke-linejoin="round" /><polyline points="230.10,713.63 236.94,710.40 274.32,689.79 295.69,676.05 310.76,665.77 314.09,663.29 326.22,654.86 338.79,645.57 346.75,639.78 356.24,632.84 389.21,617.96 393.49,618.18 399.74,615.22 425.13,603.79" fill="none" stroke="#bcbcbc" stroke-width="8" stroke-linecap="round" stroke-linejoin="round" /><polyline points="-184.23,854.14 -178.84,856.33 -175.27,857.42 -108.42,877.96 -98.21,881.09" fill="none" stroke="#bcbcbc" stroke-width="8" stroke-linecap="round" stroke-linejoin="round" /><polyline points="-661.71,1004.49 -709.47,990.03" fill="none" stroke="#bcbcbc" stroke-width="8" stroke-linecap="round" stroke-linejoin="round" /><polyline points="109.74,330.91 121.58,345.91 123.35,348.15 129.33,355.72 136.14,356.52 150.14,358.17 152.63,359.89" fill="none" stroke="#bcbcbc" stroke-width="8" stroke-linecap="round" stroke-linejoin="round" /><polyline points="520.93,998.19 502.17,1001.69 482.93,1012.15 465.09,1022.08 448.23,1030.51 427.84,1041.59 413.09,1050.55 383.92,1066.19 270.06,1123.48 240.54,1136.48 221.04,1144.92 211.37,1148.08 203.38,1149.58 190.29,1150.37 171.66,1147.73 125.19,1136.57 59.21,1121.19 -27.59,1095.01 -59.57,1084.46 -111.93,1068.30 -162.01,1051.78 -235.46,1022.96 -272.18,1007.14 -316.46,987.46 -389.90,947.22 -407.12,935.79 -450.70,908.38 -468.97,890.10 -496.38,854.61 -541.54,808.04 -559.29,792.40" fill="none" stroke="#bcbcbc" stroke-width="8" stroke-linecap="round" stroke-linejoin="round" /><polyline points="164.91,1547.93 165.68,1543.63 168.46,1536.62 194.50,1475.67 204.34,1452.82 215.94,1424.35 218.76,1413.93" fill="none" stroke="#bcbcbc" stroke-width="8" stroke-linecap="round" stroke-linejoin="round" /><polyline points="-334.74,1290.59 -364.33,1276.27 -431.65,1243.68 -514.23,1203.71 -521.60,1200.14" fill="none" stroke="#bcbcbc" stroke-width="8" stroke-linecap="round" stroke-linejoin="round" /><polyline points="151.50,818.90 158.97,811.25 178.83,790.91 194.60,773.69" fill="none" stroke="#bcbcbc" stroke-width="8" stroke-linecap="round" stroke-linejoin="round" /><polyline points="-422.08,864.20 -430.29,853.34 -468.75,802.41 -523.65,757.98" fill="none" stroke="#bcbcbc" stroke-width="8" stroke-linecap="round" stroke-linejoin="round" /><polyline points="-660.33,1534.62 -652.82,1516.81 -628.95,1457.30 -626.06,1449.48 -622.85,1440.82 -621.63,1437.69 -621.31,1432.79 -618.25,1386.52 -617.37,1373.25" fill="none" stroke="#bcbcbc" stroke-width="8" stroke-linecap="round" stroke-linejoin="round" /><polyline points="-676.61,1056.18 -661.71,1004.49 -642.05,936.31 -639.62,927.87 -636.91,918.28 -630.85,896.81 -630.22,894.56 -628.48,887.66 -625.71,879.85 -625.04,877.96 -621.55,869.30 -614.69,854.16 -612.64,849.82" fill="none" stroke="#bcbcbc" stroke-width="8" stroke-linecap="round" stroke-linejoin="round" /><polyline points="-639.62,927.87 -609.47,935.58 -545.59,952.00 -509.21,963.33 -494.03,966.89" fill="none" stroke="#bcbcbc" stroke-width="8" stroke-linecap="round" stroke-linejoin="round" /><polyline points="-18.95,693.32 -17.93,687.05 -16.90,680.53 -12.47,658.74 -1.42,608.00 7.65,562.62 9.31,553.21 11.57,540.42 11.57,540.41" fill="none" stroke="#bcbcbc" stroke-width="8" stroke-linecap="round" stroke-linejoin="round" /><polyline points="-108.23,1670.24 -94.77,1635.90 -93.09,1629.73 -39.67,1494.08 -35.91,1484.30 -32.88,1476.00 -0.95,1383.10 5.20,1377.74" fill="none" stroke="#bcbcbc" stroke-width="8" stroke-linecap="round" stroke-linejoin="round" /><polyline points="74.91,667.06 74.91,667.05 73.02,657.12 72.72,655.91 68.10,637.14 68.11,637.08 64.96,624.35 51.63,578.65 49.95,573.76 40.94,549.28 38.02,541.97 36.13,537.26 33.68,531.90 33.68,531.89 33.67,531.87 31.89,512.19 31.72,502.53" fill="none" stroke="#bcbcbc" stroke-width="8" stroke-linecap="round" stroke-linejoin="round" /><polyline points="54.93,1442.40 51.50,1446.10 46.39,1452.18 32.00,1492.77 27.83,1504.53" fill="none" stroke="#bcbcbc" stroke-width="8" stroke-linecap="round" stroke-linejoin="round" /><polyline points="-184.23,854.14 -182.26,848.81 -181.82,847.57 -172.47,821.46 -168.97,810.46 -140.32,726.21" fill="none" stroke="#bcbcbc" stroke-width="8" stroke-linecap="round" stroke-linejoin="round" /><polyline points="-36.03,972.25 -33.11,964.49 -25.19,943.46 -21.85,934.56 -19.58,928.55 -13.23,911.67 -9.03,900.52 -8.47,899.02 1.70,872.01 5.95,873.33 8.25,867.06 12.33,855.97 11.55,850.93 22.36,821.48 23.47,818.46 25.52,816.57 27.25,814.99 38.09,785.33 39.66,777.22 55.22,733.98 58.90,731.10 66.39,709.91 65.06,706.66 71.61,686.88 68.21,669.22" fill="none" stroke="#bcbcbc" stroke-width="8" stroke-linecap="round" stroke-linejoin="round" /><polyline points="242.32,167.94 237.96,160.78 215.05,123.19" fill="none" stroke="#bcbcbc" stroke-width="8" stroke-linecap="round" stroke-linejoin="round" /><polyline points="314.09,663.29 419.24,730.91 419.26,730.95 419.26,730.97 438.71,733.49" fill="none" stroke="#bcbcbc" stroke-width="8" stroke-linecap="round" stroke-linejoin="round" /><polyline points="271.92,522.03 383.80,578.19 387.17,580.71 386.95,599.09 389.21,617.96" fill="none" stroke="#bcbcbc" stroke-width="8" stroke-linecap="round" stroke-linejoin="round" /><polyline points="58.64,1514.29 54.61,1526.57 38.31,1576.29 10.59,1660.02 8.62,1665.96 6.63,1671.98 6.07,1678.39" fill="none" stroke="#bcbcbc" stroke-width="8" stroke-linecap="round" stroke-linejoin="round" /><polyline points="373.57,1212.27 374.24,1206.03 374.39,1200.21 374.34,1200.00 370.37,1182.87 368.75,1175.71 367.96,1172.25 367.16,1168.72 362.81,1149.55 354.31,1111.23 348.13,1088.19 347.26,1084.63" fill="none" stroke="#bcbcbc" stroke-width="8" stroke-linecap="round" stroke-linejoin="round" /><polyline points="-181.84,1563.02 -179.07,1555.14 -147.92,1466.59 -144.38,1456.54" fill="none" stroke="#bcbcbc" stroke-width="8" stroke-linecap="round" stroke-linejoin="round" /><polyline points="517.62,842.00 508.45,839.41 446.21,743.89 438.71,733.49" fill="none" stroke="#bcbcbc" stroke-width="8" stroke-linecap="round" stroke-linejoin="round" /><polyline points="-505.57,1071.19 -278.73,1125.54 -263.09,1131.26" fill="none" stroke="#bcbcbc" stroke-width="8" stroke-linecap="round" stroke-linejoin="round" /><polyline points="209.89,221.92 298.25,254.66 310.69,252.53" fill="none" stroke="#bcbcbc" stroke-width="8" stroke-linecap="round" stroke-linejoin="round" />
    <polyline points="167.20,324.28 173.70,325.28 352.80,352.80" fill="none" stroke="#ffffff" stroke-width="16" stroke-linecap="round" stroke-linejoin="round" />
    <polyline points="167.20,324.28 173.70,325.28 352.80,352.80" fill="none" stroke="#111111" stroke-width="9" stroke-linecap="round" stroke-linejoin="round" />
    
            <g transform="translate(167.20,324.28)">
              <circle r="19" fill="#ffffff" stroke="#111111" stroke-width="4" />
              <text text-anchor="middle" dominant-baseline="central" font-family="Helvetica, Arial, sans-serif"
                font-size="18" font-weight="700" fill="#111111">1</text>
            </g>
            
            <g transform="translate(352.80,352.80)">
              <circle r="19" fill="#ffffff" stroke="#111111" stroke-width="4" />
              <text text-anchor="middle" dominant-baseline="central" font-family="Helvetica, Arial, sans-serif"
                font-size="18" font-weight="700" fill="#111111">2</text>
            </g>
            
  </g>
</svg>
