<svg xmlns="http://www.w3.org/2000/svg" width="520" height="520" viewBox="0 0 520 520">
  <rect width="100%" height="100%" fill="#ffffff" />
  <g>
    <polyline points="725.02,-63.03 726.11,-57.24 733.14,-8.07 732.06,4.22" fill="none" stroke="#bcbcbc" stroke-width="8" stroke-linecap="round" stroke-linejoin="round" /><polyline points="582.15,346.69 583.85,341.47 592.86,313.78 593.92,310.51 594.99,307.09 617.63,234.90 619.45,229.09 615.28,218.82" fill="none" stroke="#bcbcbc" stroke-width="8" stroke-linecap="round" stroke-linejoin="round" /><polyline points="425.77,282.48 425.40,278.33 432.80,236.88 433.84,231.70 434.62,228.98 436.65,218.47 438.94,205.60 441.44,194.27 443.91,182.96 445.47,179.77 446.49,177.82" fill="none" stroke="#bcbcbc" stroke-width="8" stroke-linecap="round" stroke-linejoin="round" /><polyline points="468.73,-9.92 466.97,-15.29 448.78,-70.76 447.89,-73.09" fill="none" stroke="#bcbcbc" stroke-width="8" stroke-linecap="round" stroke-linejoin="round" /><polyline points="375.40,478.29 375.94,473.00 376.16,470.57 378.14,448.67 380.31,429.38 380.81,424.88 381.28,419.48 381.34,419.02 382.56,408.28 383.62,397.36 384.79,386.83 385.58,378.62 385.91,373.56 386.20,368.89 386.71,363.62" fill="none" stroke="#bcbcbc" stroke-width="8" stroke-linecap="round" stroke-linejoin="round" /><polyline points="626.73,359.56 628.03,355.49 637.16,326.80 638.19,323.54 639.67,318.89 640.72,315.56 648.80,280.72" fill="none" stroke="#bcbcbc" stroke-width="8" stroke-linecap="round" stroke-linejoin="round" /><polyline points="591.25,-207.96 594.62,-207.44 687.51,-193.17" fill="none" stroke="#bcbcbc" stroke-width="8" stroke-linecap="round" stroke-linejoin="round" /><polyline points="493.26,324.75 495.13,319.42 512.00,272.65 532.30,213.65 533.60,209.95 534.51,207.37 535.25,205.25" fill="none" stroke="#bcbcbc" stroke-width="8" stroke-linecap="round" stroke-linejoin="round" /><polyline points="182.67,335.79 182.24,332.78 182.14,329.52 182.78,322.94 184.25,310.93 185.23,306.90 186.82,292.32 187.11,289.08 187.57,284.90 187.92,281.80 188.57,278.29 189.78,268.84 190.62,261.61 191.85,258.65" fill="none" stroke="#bcbcbc" stroke-width="8" stroke-linecap="round" stroke-linejoin="round" /><polyline points="165.40,254.95 187.91,258.10 191.85,258.65 194.30,259.04 204.38,260.64 227.63,264.35 231.62,265.01" fill="none" stroke="#bcbcbc" stroke-width="8" stroke-linecap="round" stroke-linejoin="round" /><polyline points="579.63,-40.29 579.77,-38.25 580.08,-36.17 580.81,-34.59 582.18,-32.82 584.71,-30.51 590.71,-26.87 636.98,2.16 665.49,40.37 687.01,93.50 688.42,97.01" fill="none" stroke="#bcbcbc" stroke-width="8" stroke-linecap="round" stroke-linejoin="round" /><polyline points="572.22,114.72 573.18,116.31 573.43,116.72 574.22,120.73 579.65,146.98 581.37,155.31 582.61,161.25 584.53,173.28 585.43,178.82 586.05,182.21 586.72,185.26 587.53,187.05 588.72,189.11 589.36,190.09 601.38,207.30 607.89,217.54 609.58,219.99" fill="none" stroke="#bcbcbc" stroke-width="8" stroke-linecap="round" stroke-linejoin="round" /><polyline points="227.02,443.44 227.66,439.50 228.26,436.65 228.42,436.27 236.42,417.24 241.52,404.88 243.07,400.96 244.71,396.81 246.49,393.24 246.78,392.54 249.22,386.64 251.11,381.43 252.73,376.64 253.75,373.25 254.91,369.07 256.23,363.47 257.24,358.92 258.45,352.57 258.70,351.15 259.51,346.62" fill="none" stroke="#bcbcbc" stroke-width="8" stroke-linecap="round" stroke-linejoin="round" /><polyline points="614.78,-87.94 640.30,-70.11 643.74,-69.38 646.25,-66.50" fill="none" stroke="#bcbcbc" stroke-width="8" stroke-linecap="round" stroke-linejoin="round" /><polyline points="507.63,76.73 511.00,78.03 525.64,82.82 559.61,95.84 561.51,97.74 562.41,99.16" fill="none" stroke="#bcbcbc" stroke-width="8" stroke-linecap="round" stroke-linejoin="round" /><polyline points="570.92,411.41 573.23,405.38 584.65,374.40 592.72,351.00 594.40,350.23" fill="none" stroke="#bcbcbc" stroke-width="8" stroke-linecap="round" stroke-linejoin="round" /><polyline points="409.51,372.13 411.32,368.15 411.49,367.75 414.58,357.41 419.63,340.39 420.92,336.04 421.92,332.65 422.06,330.68 421.85,326.32" fill="none" stroke="#bcbcbc" stroke-width="8" stroke-linecap="round" stroke-linejoin="round" /><polyline points="619.39,116.08 616.49,116.68 609.93,115.51 608.92,112.80 597.55,108.47 594.86,109.17 584.61,105.41 583.08,106.48" fill="none" stroke="#bcbcbc" stroke-width="8" stroke-linecap="round" stroke-linejoin="round" /><polyline points="602.51,-235.49 607.66,-234.22 610.51,-233.73 678.27,-221.98" fill="none" stroke="#bcbcbc" stroke-width="8" stroke-linecap="round" stroke-linejoin="round" /><polyline points="549.85,392.54 552.67,384.60 558.14,369.15 561.68,362.58 566.78,348.32 568.81,342.63" fill="none" stroke="#bcbcbc" stroke-width="8" stroke-linecap="round" stroke-linejoin="round" /><polyline points="178.60,84.16 173.69,83.93 172.46,85.43 163.91,95.81 134.02,130.33 129.82,135.19" fill="none" stroke="#bcbcbc" stroke-width="8" stroke-linecap="round" stroke-linejoin="round" /><polyline points="440.74,113.72 438.58,118.52 438.31,119.10 430.79,138.72 423.20,160.33 421.18,166.09 420.03,169.06" fill="none" stroke="#bcbcbc" stroke-width="8" stroke-linecap="round" stroke-linejoin="round" /><polyline points="551.15,-106.79 553.54,-103.55 555.25,-99.09 557.90,-92.68 562.17,-82.61 565.94,-73.58 570.28,-63.65 573.49,-56.00 573.97,-54.90 574.00,-54.83 576.59,-48.78 577.36,-47.07 578.10,-45.43 578.87,-43.89 579.46,-42.34 579.63,-40.29" fill="none" stroke="#bcbcbc" stroke-width="8" stroke-linecap="round" stroke-linejoin="round" /><polyline points="368.10,210.46 369.35,209.78 371.10,208.39 371.98,206.58 383.60,162.50 383.96,160.01 385.37,155.47" fill="none" stroke="#bcbcbc" stroke-width="8" stroke-linecap="round" stroke-linejoin="round" /><polyline points="774.70,141.47 776.35,146.71 777.52,152.21 775.26,173.16 772.64,188.92 771.22,194.30 771.09,194.79 769.84,197.69 768.13,200.77 764.16,205.80 766.08,215.63 759.85,236.75 756.41,248.41 749.37,267.50 739.06,290.74 726.47,313.01 722.54,320.25 715.43,332.14 687.04,372.44 680.82,380.82 656.72,412.31 642.89,428.04 623.54,447.70 621.75,447.89 617.38,451.46" fill="none" stroke="#bcbcbc" stroke-width="8" stroke-linecap="round" stroke-linejoin="round" /><polyline points="424.32,486.18 432.25,461.60 433.54,457.54 435.31,454.98 439.09,443.62 440.32,439.76 455.96,390.81 457.53,385.88 458.83,381.56 477.29,323.48" fill="none" stroke="#bcbcbc" stroke-width="8" stroke-linecap="round" stroke-linejoin="round" /><polyline points="610.01,29.03 616.87,21.54 618.89,19.10 632.73,-0.50" fill="none" stroke="#bcbcbc" stroke-width="8" stroke-linecap="round" stroke-linejoin="round" /><polyline points="473.05,31.99 491.92,38.56 492.96,40.26 498.32,42.05 501.50,43.14 516.71,48.28" fill="none" stroke="#bcbcbc" stroke-width="8" stroke-linecap="round" stroke-linejoin="round" /><polyline points="637.53,-98.58 646.25,-66.50 656.36,-28.71 657.89,-25.56 658.13,-21.97 664.99,-9.18 683.48,25.30 687.52,31.27 688.69,33.01 716.31,84.66 729.01,96.20 730.79,98.50 733.30,100.64 757.41,121.25 759.05,122.65 763.38,124.95" fill="none" stroke="#bcbcbc" stroke-width="8" stroke-linecap="round" stroke-linejoin="round" /><polyline points="543.77,491.40 603.89,456.48 614.59,451.01 617.38,451.46" fill="none" stroke="#bcbcbc" stroke-width="8" stroke-linecap="round" stroke-linejoin="round" /><polyline points="608.96,441.44 612.69,437.01 646.17,370.19 648.39,365.81 650.25,361.48 661.06,334.73 664.28,326.67 673.61,298.46 679.65,262.18 680.37,256.90" fill="none" stroke="#bcbcbc" stroke-width="8" stroke-linecap="round" stroke-linejoin="round" /><polyline points="583.11,48.51 582.52,49.11 581.72,51.92 581.64,52.20 578.00,66.19 578.96,69.84 578.16,73.12 577.13,77.40 574.47,80.49 571.45,92.71 567.89,95.40 564.10,98.00 562.41,99.16" fill="none" stroke="#bcbcbc" stroke-width="8" stroke-linecap="round" stroke-linejoin="round" /><polyline points="440.74,113.72 442.29,109.76 451.58,85.95 453.60,80.75 455.27,76.48 467.14,46.06 472.49,33.35 473.05,31.99 477.21,21.95 486.53,-1.19 489.94,-11.04 490.70,-13.30 491.72,-15.86" fill="none" stroke="#bcbcbc" stroke-width="8" stroke-linecap="round" stroke-linejoin="round" /><polyline points="544.70,-30.64 546.50,-25.29 605.46,25.07 637.64,53.06 685.69,94.83 689.89,98.18 691.77,99.36 700.10,106.93 711.24,116.42 736.50,137.96 744.66,144.97 750.07,151.45" fill="none" stroke="#bcbcbc" stroke-width="8" stroke-linecap="round" stroke-linejoin="round" /><polyline points="642.19,-117.41 645.18,-119.33 662.90,-126.69 666.54,-130.52" fill="none" stroke="#bcbcbc" stroke-width="8" stroke-linecap="round" stroke-linejoin="round" /><polyline points="662.65,330.74 638.19,323.54 593.92,310.51" fill="none" stroke="#bcbcbc" stroke-width="8" stroke-linecap="round" stroke-linejoin="round" /><polyline points="583.70,-189.49 587.04,-187.19 695.91,-162.97" fill="none" stroke="#bcbcbc" stroke-width="8" stroke-linecap="round" stroke-linejoin="round" /><polyline points="718.18,168.93 712.55,156.42 700.07,126.64 699.14,124.27 697.00,118.84 688.95,98.36 688.44,97.03" fill="none" stroke="#bcbcbc" stroke-width="8" stroke-linecap="round" stroke-linejoin="round" /><polyline points="551.15,-106.79 545.10,-108.51 540.66,-109.83 531.63,-112.51 527.05,-113.82 524.42,-114.55 520.99,-115.53" fill="none" stroke="#bcbcbc" stroke-width="8" stroke-linecap="round" stroke-linejoin="round" /><polyline points="393.55,56.99 393.24,55.99 392.96,55.29 391.71,52.20 386.89,40.95 382.30,29.52 381.31,26.82 380.17,23.71 379.35,21.17 378.01,17.36 377.86,16.96 373.48,6.14 365.42,-14.18 363.61,-15.21 362.32,-18.51 359.75,-27.44 355.35,-38.50 354.40,-41.01" fill="none" stroke="#bcbcbc" stroke-width="8" stroke-linecap="round" stroke-linejoin="round" /><polyline points="432.25,461.60 436.82,463.00 451.62,467.51 456.26,468.92" fill="none" stroke="#bcbcbc" stroke-width="8" stroke-linecap="round" stroke-linejoin="round" /><polyline points="708.67,-112.09 709.53,-115.58 709.18,-116.90 708.76,-118.50 706.06,-128.40 700.03,-149.33 696.85,-160.03 695.91,-162.97 687.51,-193.17 682.97,-209.46 678.27,-221.98 674.02,-233.28 669.78,-241.05 665.67,-245.16 634.10,-283.74 631.76,-286.48 630.21,-289.02" fill="none" stroke="#bcbcbc" stroke-width="8" stroke-linecap="round" stroke-linejoin="round" /><polyline points="579.63,-40.29 578.00,-39.67 574.99,-38.84 574.69,-38.76 562.11,-35.54 547.66,-31.47 544.70,-30.64 543.39,-30.22 539.92,-29.10 536.95,-28.28 523.98,-24.67 502.66,-18.61 494.71,-16.61 491.72,-15.86 477.51,-12.37 468.73,-9.92 450.14,-4.73 431.77,0.45 429.64,1.04 414.29,5.30 407.20,7.26 403.63,8.95 396.86,12.31 383.41,19.13 382.47,19.61 379.35,21.17 377.45,22.12 374.79,23.52 365.34,28.47 348.13,38.13 333.75,45.66 331.70,46.74 328.95,46.91 327.30,47.78 326.97,47.96 311.37,56.51 308.10,56.49 304.35,58.45 303.04,59.14 301.94,59.72 299.33,61.08 297.28,65.77 288.45,70.49 285.64,72.00 282.60,73.65 270.32,80.33 263.97,83.79 260.77,84.71" fill="none" stroke="#bcbcbc" stroke-width="8" stroke-linecap="round" stroke-linejoin="round" /><polyline points="756.41,248.41 749.85,249.01 729.38,250.89 728.46,250.97 727.15,251.09 725.04,251.29 705.19,253.11 698.28,252.47 690.24,254.48 683.80,256.06 680.37,256.90 671.85,257.23 664.47,256.85 660.71,256.45 657.51,255.48 655.15,254.18 646.37,247.97 625.04,233.32 623.03,231.96 620.98,230.57 619.45,229.09" fill="none" stroke="#bcbcbc" stroke-width="8" stroke-linecap="round" stroke-linejoin="round" /><polyline points="273.33,1.11 281.07,16.26 282.24,20.59 288.76,33.03 291.45,36.58 302.35,57.78 303.04,59.14" fill="none" stroke="#bcbcbc" stroke-width="8" stroke-linecap="round" stroke-linejoin="round" /><polyline points="510.50,135.84 509.34,139.02 509.02,140.01 507.51,144.60 497.93,171.31 493.18,184.57 493.02,185.03 491.11,189.15 490.01,191.60" fill="none" stroke="#bcbcbc" stroke-width="8" stroke-linecap="round" stroke-linejoin="round" /><polyline points="637.53,-98.58 636.47,-100.85 633.68,-101.22 624.65,-99.15 622.82,-99.39 621.38,-101.31 618.83,-113.06 632.66,-115.20 639.06,-117.09 642.19,-117.41 645.56,-105.42" fill="none" stroke="#bcbcbc" stroke-width="8" stroke-linecap="round" stroke-linejoin="round" /><polyline points="687.52,31.27 691.08,29.27 708.98,18.48 713.76,15.63 722.13,10.64 735.90,1.74 739.12,-0.57 763.28,-15.56" fill="none" stroke="#bcbcbc" stroke-width="8" stroke-linecap="round" stroke-linejoin="round" /><polyline points="771.97,102.05 765.86,100.23 762.31,97.32 748.74,85.57 748.27,85.16 744.99,82.23 743.07,78.82 708.98,18.48" fill="none" stroke="#bcbcbc" stroke-width="8" stroke-linecap="round" stroke-linejoin="round" /><polyline points="387.26,97.27 440.74,113.72 445.11,115.11 485.02,127.76 485.85,128.02 491.83,129.92 494.77,130.85 498.59,131.89 506.47,134.56 510.50,135.84 514.13,136.99 543.83,146.41 575.19,156.26 577.78,157.08 581.37,155.31" fill="none" stroke="#bcbcbc" stroke-width="8" stroke-linecap="round" stroke-linejoin="round" /><polyline points="544.52,-166.76 567.69,-188.05 571.61,-191.65" fill="none" stroke="#bcbcbc" stroke-width="8" stroke-linecap="round" stroke-linejoin="round" /><polyline points="156.56,176.71 241.57,185.82" fill="none" stroke="#bcbcbc" stroke-width="8" stroke-linecap="round" stroke-linejoin="round" /><polyline points="413.02,-60.55 430.89,-66.94 449.32,-73.60 460.77,-78.05 495.73,-90.77 505.88,-94.28 508.00,-95.01 510.54,-95.88 513.39,-96.87 513.74,-96.99 519.50,-99.30 522.00,-100.31" fill="none" stroke="#bcbcbc" stroke-width="8" stroke-linecap="round" stroke-linejoin="round" /><polyline points="533.03,371.79 549.85,392.54 560.15,402.91 564.60,406.12 570.92,411.41 576.85,416.38 581.94,421.35 582.06,423.88" fill="none" stroke="#bcbcbc" stroke-width="8" stroke-linecap="round" stroke-linejoin="round" /><polyline points="551.15,-106.79 557.74,-123.31 568.41,-150.52 583.70,-189.49 591.25,-207.96 602.51,-235.49 611.74,-258.04 613.39,-261.03 621.51,-274.30 622.04,-275.16 625.00,-281.00 630.21,-289.02 633.12,-293.50 637.24,-299.83" fill="none" stroke="#bcbcbc" stroke-width="8" stroke-linecap="round" stroke-linejoin="round" /><polyline points="395.61,334.99 394.54,335.86 393.82,336.88 392.37,341.17 391.36,344.27 386.72,358.15 386.08,360.16 385.68,361.40 381.42,360.18 371.04,356.70 360.75,353.25 352.80,352.80" fill="none" stroke="#bcbcbc" stroke-width="8" stroke-linecap="round" stroke-linejoin="round" /><polyline points="192.33,431.63 209.28,387.86 211.17,383.09 212.86,378.50 214.90,372.96 217.41,364.23 220.02,353.39 221.10,345.62 221.87,339.98 222.97,335.81 226.96,304.51 231.62,265.01 234.03,246.18 236.72,224.06 241.57,185.82 242.34,179.32 247.24,139.33 247.25,137.10 248.33,125.24 251.46,100.17 252.24,95.80 253.06,93.35 254.34,90.65 255.58,88.56 258.32,85.59 260.78,84.74" fill="none" stroke="#bcbcbc" stroke-width="8" stroke-linecap="round" stroke-linejoin="round" /><polyline points="562.41,99.16 563.33,100.63 566.44,105.48 571.10,112.94 572.22,114.72 574.07,113.31 583.08,106.48" fill="none" stroke="#bcbcbc" stroke-width="8" stroke-linecap="round" stroke-linejoin="round" /><polyline points="568.41,-150.52 660.00,-133.96 669.62,-128.90 705.51,-111.11 708.67,-112.09" fill="none" stroke="#bcbcbc" stroke-width="8" stroke-linecap="round" stroke-linejoin="round" /><polyline points="393.55,56.99 391.92,59.36 377.31,66.49 366.58,80.13 355.00,87.30 347.08,93.28 339.52,99.45 335.64,102.98 328.80,111.66 321.15,122.63 319.89,124.66" fill="none" stroke="#bcbcbc" stroke-width="8" stroke-linecap="round" stroke-linejoin="round" /><polyline points="409.00,66.78 408.36,68.19 406.98,70.21 404.36,73.43 388.92,92.93 380.76,114.92 339.54,99.43" fill="none" stroke="#bcbcbc" stroke-width="8" stroke-linecap="round" stroke-linejoin="round" /><polyline points="347.07,93.28 345.48,88.45 338.58,67.57 335.90,63.45 331.42,50.00 331.04,48.84 331.70,46.74 330.62,43.31 309.07,-25.50" fill="none" stroke="#bcbcbc" stroke-width="8" stroke-linecap="round" stroke-linejoin="round" /><polyline points="599.62,-282.17 616.65,-281.72 617.45,-281.70 620.71,-281.60 625.00,-281.00" fill="none" stroke="#bcbcbc" stroke-width="8" stroke-linecap="round" stroke-linejoin="round" /><polyline points="512.00,272.65 506.19,272.58 456.94,279.19 453.39,279.56 449.33,279.99 425.77,282.48 394.02,285.83 377.19,287.61 367.87,288.59 360.32,289.51 356.43,289.98 352.06,290.51 330.94,293.08 325.88,293.69 310.28,295.40 226.96,304.51" fill="none" stroke="#bcbcbc" stroke-width="8" stroke-linecap="round" stroke-linejoin="round" /><polyline points="439.09,443.62 434.73,442.22 414.35,435.66 410.23,434.33 406.66,433.18 385.07,426.25 380.81,424.88 375.18,423.07 340.82,412.01 336.95,410.76" fill="none" stroke="#bcbcbc" stroke-width="8" stroke-linecap="round" stroke-linejoin="round" /><polyline points="524.30,31.10 536.15,34.80 579.49,48.18 579.90,48.30 583.11,48.51" fill="none" stroke="#bcbcbc" stroke-width="8" stroke-linecap="round" stroke-linejoin="round" /><polyline points="646.25,-66.50 705.22,-65.46" fill="none" stroke="#bcbcbc" stroke-width="8" stroke-linecap="round" stroke-linejoin="round" /><polyline points="617.38,451.46 608.96,441.44 605.42,437.33 602.38,434.49 598.33,431.47 590.07,426.51 582.06,423.88 565.79,418.85 552.47,414.63 560.15,402.91" fill="none" stroke="#bcbcbc" stroke-width="8" stroke-linecap="round" stroke-linejoin="round" /><polyline points="533.03,371.79 521.29,357.31 519.06,354.55 507.24,338.27 504.56,333.29 505.20,327.38 508.77,327.34 517.56,329.03 530.94,331.61" fill="none" stroke="#bcbcbc" stroke-width="8" stroke-linecap="round" stroke-linejoin="round" /><polyline points="379.49,255.73 381.66,260.39 394.02,285.83 412.40,323.66 414.74,328.49" fill="none" stroke="#bcbcbc" stroke-width="8" stroke-linecap="round" stroke-linejoin="round" /><polyline points="181.52,370.97 185.94,372.78 206.65,381.24 211.17,383.09 215.92,385.04 240.30,395.00 244.71,396.81" fill="none" stroke="#bcbcbc" stroke-width="8" stroke-linecap="round" stroke-linejoin="round" /><polyline points="389.67,218.01 432.80,236.88" fill="none" stroke="#bcbcbc" stroke-width="8" stroke-linecap="round" stroke-linejoin="round" /><polyline points="583.11,48.51 589.68,48.85 590.10,49.22 593.05,51.84 597.38,55.71 598.18,57.26 613.12,70.34 614.22,72.43 624.72,81.69 627.37,82.50 635.53,89.65 637.36,90.49 649.68,100.94 652.43,103.37 653.94,105.78" fill="none" stroke="#bcbcbc" stroke-width="8" stroke-linecap="round" stroke-linejoin="round" /><polyline points="169.34,218.05 236.72,224.06" fill="none" stroke="#bcbcbc" stroke-width="8" stroke-linecap="round" stroke-linejoin="round" /><polyline points="319.79,468.92 321.87,464.48 322.41,462.50 325.34,451.71 335.93,414.34 336.95,410.76 338.02,406.84 342.82,389.28 350.93,359.63 352.80,352.80" fill="none" stroke="#bcbcbc" stroke-width="8" stroke-linecap="round" stroke-linejoin="round" /><polyline points="379.49,255.73 389.67,218.01 368.10,210.46 362.45,213.80 359.88,215.76 357.97,218.34 356.63,221.74 351.67,240.07 355.67,242.11 359.71,243.09 368.65,245.42 375.34,247.55 379.49,255.73" fill="none" stroke="#bcbcbc" stroke-width="8" stroke-linecap="round" stroke-linejoin="round" /><polyline points="351.67,240.07 346.94,239.41 236.72,224.06" fill="none" stroke="#bcbcbc" stroke-width="8" stroke-linecap="round" stroke-linejoin="round" /><polyline points="530.94,331.61 541.16,333.84 568.81,342.63 576.54,345.07 594.89,350.37 613.38,355.70 627.06,359.65 648.95,365.97 653.47,367.28 664.52,370.98 682.70,375.83 684.30,376.13" fill="none" stroke="#bcbcbc" stroke-width="8" stroke-linecap="round" stroke-linejoin="round" /><polyline points="543.91,491.32 540.18,492.26 536.14,503.50 529.89,501.72 501.45,492.03 498.03,491.30 490.41,490.75 455.97,490.89 448.38,489.93 431.24,487.30 424.32,486.18 375.27,478.27 356.28,475.24 320.05,468.97 314.21,467.81 232.46,444.96 227.30,443.52 192.33,431.63 183.73,428.58 162.24,419.67 149.99,415.04" fill="none" stroke="#bcbcbc" stroke-width="8" stroke-linecap="round" stroke-linejoin="round" /><polyline points="618.83,-113.06 615.29,-113.78 568.04,-108.20 551.15,-106.79" fill="none" stroke="#bcbcbc" stroke-width="8" stroke-linecap="round" stroke-linejoin="round" /><polyline points="530.94,331.61 532.59,328.84 542.51,303.37 553.59,264.87 556.41,256.58 557.92,254.33 568.62,220.00 569.15,215.90 569.55,213.22" fill="none" stroke="#bcbcbc" stroke-width="8" stroke-linecap="round" stroke-linejoin="round" /><polyline points="579.63,-40.29 580.76,-40.72 582.29,-41.94 584.61,-44.66 614.78,-87.94 622.82,-99.39" fill="none" stroke="#bcbcbc" stroke-width="8" stroke-linecap="round" stroke-linejoin="round" /><polyline points="713.90,118.71 714.52,116.93 729.68,99.09 730.79,98.50 733.43,94.89 742.25,84.76 744.99,82.23" fill="none" stroke="#bcbcbc" stroke-width="8" stroke-linecap="round" stroke-linejoin="round" /><polyline points="727.15,251.09 726.94,248.71 726.78,246.86 725.98,243.33 725.02,241.02 723.83,234.97 723.72,232.78 722.92,227.89 719.31,226.00 716.42,227.10 711.26,228.34 707.17,228.98 703.25,229.92 697.84,231.16 695.37,231.72" fill="none" stroke="#bcbcbc" stroke-width="8" stroke-linecap="round" stroke-linejoin="round" /><polyline points="328.73,163.48 339.76,137.63 340.37,135.95" fill="none" stroke="#bcbcbc" stroke-width="8" stroke-linecap="round" stroke-linejoin="round" /><polyline points="619.39,116.08 624.70,114.02 627.48,112.94 629.63,110.77 638.49,108.58 641.47,109.34 647.88,107.69 652.78,106.43 653.94,105.78 658.69,104.62 682.95,98.67 688.44,97.03" fill="none" stroke="#bcbcbc" stroke-width="8" stroke-linecap="round" stroke-linejoin="round" /><polyline points="395.61,334.99 407.06,330.84 410.89,329.67 414.74,328.49 421.85,326.32 427.39,325.52 446.28,323.45 450.08,323.25 466.99,323.39 477.29,323.48 481.16,323.28 487.36,323.91 489.30,324.19 493.26,324.75 505.20,327.38" fill="none" stroke="#bcbcbc" stroke-width="8" stroke-linecap="round" stroke-linejoin="round" /><polyline points="450.14,-4.73 448.25,-11.14 441.20,-34.95 432.65,-62.09 430.89,-66.94 429.09,-71.48 426.83,-78.03" fill="none" stroke="#bcbcbc" stroke-width="8" stroke-linecap="round" stroke-linejoin="round" /><polyline points="429.66,379.12 431.16,374.37 446.38,326.40 446.28,323.45" fill="none" stroke="#bcbcbc" stroke-width="8" stroke-linecap="round" stroke-linejoin="round" /><polyline points="450.08,323.25 453.09,282.86 453.39,279.56 453.85,275.73 453.86,275.56 454.06,270.87 455.06,258.16 455.63,252.24 456.41,245.51 457.11,240.67 457.75,237.63 458.54,235.33 460.11,230.15 463.34,219.37 467.45,205.45 471.98,191.21 472.90,188.31 473.65,186.20" fill="none" stroke="#bcbcbc" stroke-width="8" stroke-linecap="round" stroke-linejoin="round" /><polyline points="351.67,240.07 350.87,243.65 351.00,244.79 355.91,285.65 356.43,289.98 356.21,294.43 354.92,319.84 354.38,330.46 354.11,335.94 353.61,345.70 353.36,350.78 352.80,352.80" fill="none" stroke="#bcbcbc" stroke-width="8" stroke-linecap="round" stroke-linejoin="round" /><polyline points="328.73,163.48 310.89,158.18 308.62,156.72 297.51,153.49 294.39,153.52 280.44,149.32 278.18,147.65 265.49,143.81 249.91,139.56 249.83,139.55 247.24,139.33" fill="none" stroke="#bcbcbc" stroke-width="8" stroke-linecap="round" stroke-linejoin="round" /><polyline points="653.94,105.78 654.56,106.59 657.15,110.45 661.93,117.58 666.43,122.09 675.09,131.80 673.63,140.78 672.89,144.15 671.85,145.58 674.02,148.79 677.38,155.70 684.09,168.64 687.39,175.01 689.45,180.74 690.38,183.40" fill="none" stroke="#bcbcbc" stroke-width="8" stroke-linecap="round" stroke-linejoin="round" /><polyline points="699.14,124.27 696.65,125.05 680.26,130.14 677.91,130.90 675.09,131.80" fill="none" stroke="#bcbcbc" stroke-width="8" stroke-linecap="round" stroke-linejoin="round" /><polyline points="581.37,155.31 586.50,153.65 623.70,134.66 628.67,132.23 646.21,127.16 663.20,122.38 666.43,122.09" fill="none" stroke="#bcbcbc" stroke-width="8" stroke-linecap="round" stroke-linejoin="round" /><polyline points="585.43,178.82 628.31,158.87 630.12,157.68 634.31,156.46 662.88,148.14 667.22,146.48 671.85,145.58" fill="none" stroke="#bcbcbc" stroke-width="8" stroke-linecap="round" stroke-linejoin="round" /><polyline points="576.68,-239.50 594.04,-237.35 595.78,-237.14 602.51,-235.49" fill="none" stroke="#bcbcbc" stroke-width="8" stroke-linecap="round" stroke-linejoin="round" /><polyline points="725.02,-63.03 728.10,-63.67 739.60,-58.03 741.12,-56.54 762.71,-19.99 763.28,-15.56 766.08,-13.22 765.64,-11.60 765.57,-8.97 765.96,-5.29 771.68,18.22 772.18,34.49 772.99,60.48 774.33,95.46 768.85,110.71 765.33,120.00 760.18,133.10 758.68,136.88 757.72,137.94 756.16,148.08" fill="none" stroke="#bcbcbc" stroke-width="8" stroke-linecap="round" stroke-linejoin="round" /><polyline points="764.94,209.81 759.69,207.52 746.57,198.37 729.25,186.20 719.73,178.50 713.31,171.62" fill="none" stroke="#bcbcbc" stroke-width="8" stroke-linecap="round" stroke-linejoin="round" /><polyline points="552.47,414.63 547.31,412.99 538.94,410.34 534.95,409.07 530.26,407.58 524.33,405.71 518.97,404.01 513.68,402.33 490.05,394.83 485.92,393.52 480.78,391.89 479.64,391.53 466.13,387.96 462.32,387.04 457.53,385.88 452.53,384.67 434.50,380.30 429.66,379.12 424.46,377.32 413.61,373.55 409.51,372.13 405.85,370.94 388.85,364.90 386.71,363.62 385.68,361.40" fill="none" stroke="#bcbcbc" stroke-width="8" stroke-linecap="round" stroke-linejoin="round" /><polyline points="630.12,157.68 628.86,153.19 625.13,139.81 623.70,134.66 621.62,130.81 621.43,130.10 620.21,125.57 621.63,123.56 619.92,117.85 619.39,116.08" fill="none" stroke="#bcbcbc" stroke-width="8" stroke-linecap="round" stroke-linejoin="round" /><polyline points="623.87,-6.08 627.42,-7.75 646.81,-18.44 657.89,-25.56 665.71,-30.89 667.43,-32.18 673.72,-36.55 680.24,-41.37 684.37,-44.37 689.29,-47.97 706.39,-55.68 708.61,-55.57 711.85,-57.10 725.02,-63.03" fill="none" stroke="#bcbcbc" stroke-width="8" stroke-linecap="round" stroke-linejoin="round" /><polyline points="409.00,66.78 411.79,67.91 413.64,68.48 448.31,79.13 453.60,80.75" fill="none" stroke="#bcbcbc" stroke-width="8" stroke-linecap="round" stroke-linejoin="round" /><polyline points="161.37,144.73 136.60,137.24" fill="none" stroke="#bcbcbc" stroke-width="8" stroke-linecap="round" stroke-linejoin="round" /><polyline points="561.45,-204.52 567.59,-196.74 568.51,-195.58 571.61,-191.65 575.14,-191.24 582.41,-190.38 583.70,-189.49" fill="none" stroke="#bcbcbc" stroke-width="8" stroke-linecap="round" stroke-linejoin="round" /><polyline points="774.70,141.47 764.97,143.29 755.00,148.71 745.75,153.86 737.00,158.23 726.43,163.97 718.77,168.62 703.65,176.73 644.60,206.43 629.29,213.17 619.17,217.55 614.16,219.19 610.01,219.96 603.23,220.37 593.57,219.01 569.46,213.22 535.25,205.25 490.23,191.67 473.65,186.20 446.49,177.82 420.52,169.25 382.43,154.31 363.38,146.11 340.42,135.91 302.33,115.04 293.40,109.12 270.80,94.90 261.32,85.43 247.11,67.02 223.69,42.88 214.48,34.77" fill="none" stroke="#bcbcbc" stroke-width="8" stroke-linecap="round" stroke-linejoin="round" /><polyline points="590.07,426.51 590.46,424.28 591.91,420.65 605.41,389.04 610.52,377.20 616.53,362.43 618.00,357.03" fill="none" stroke="#bcbcbc" stroke-width="8" stroke-linecap="round" stroke-linejoin="round" /><polyline points="330.94,293.08 315.59,285.65 280.68,268.76 237.85,248.03 234.03,246.18" fill="none" stroke="#bcbcbc" stroke-width="8" stroke-linecap="round" stroke-linejoin="round" /><polyline points="583.11,48.51 586.99,44.54 597.29,33.99 605.46,25.07" fill="none" stroke="#bcbcbc" stroke-width="8" stroke-linecap="round" stroke-linejoin="round" /><polyline points="285.64,72.00 281.39,66.36 261.44,39.96 232.97,16.92" fill="none" stroke="#bcbcbc" stroke-width="8" stroke-linecap="round" stroke-linejoin="round" /><polyline points="162.08,419.61 165.98,410.38 178.36,379.52 179.86,375.47 181.52,370.97 182.15,369.35 182.32,366.81 183.90,342.82 184.36,335.94" fill="none" stroke="#bcbcbc" stroke-width="8" stroke-linecap="round" stroke-linejoin="round" /><polyline points="153.64,171.54 161.37,144.73 171.56,109.38 172.82,105.01 174.23,100.04 177.37,88.91 177.70,87.74 178.60,84.16 180.03,80.11 180.38,79.13 182.19,74.64 185.75,66.79 186.82,64.54" fill="none" stroke="#bcbcbc" stroke-width="8" stroke-linecap="round" stroke-linejoin="round" /><polyline points="172.82,105.01 188.46,109.01 221.59,117.52 240.46,123.39 248.33,125.24" fill="none" stroke="#bcbcbc" stroke-width="8" stroke-linecap="round" stroke-linejoin="round" /><polyline points="494.71,-16.61 495.24,-19.86 495.78,-23.24 498.07,-34.54 503.80,-60.84 508.51,-84.37 509.37,-89.26 510.54,-95.88 510.54,-95.89" fill="none" stroke="#bcbcbc" stroke-width="8" stroke-linecap="round" stroke-linejoin="round" /><polyline points="448.41,489.93 455.39,472.12 456.26,468.92 483.97,398.59 485.92,393.52 487.49,389.21 504.05,341.05 507.24,338.27" fill="none" stroke="#bcbcbc" stroke-width="8" stroke-linecap="round" stroke-linejoin="round" /><polyline points="543.39,-30.22 543.39,-30.23 542.41,-35.38 542.25,-36.00 539.86,-45.74 539.86,-45.77 538.23,-52.37 531.31,-76.06 530.44,-78.60 525.77,-91.29 524.26,-95.08 523.28,-97.53 522.01,-100.30 522.00,-100.31 522.00,-100.32 521.08,-110.52 520.99,-115.53" fill="none" stroke="#bcbcbc" stroke-width="8" stroke-linecap="round" stroke-linejoin="round" /><polyline points="533.03,371.79 531.25,373.71 528.60,376.87 521.13,397.91 518.97,404.01" fill="none" stroke="#bcbcbc" stroke-width="8" stroke-linecap="round" stroke-linejoin="round" /><polyline points="409.00,66.78 410.02,64.01 410.25,63.37 415.09,49.83 416.91,44.13 431.77,0.45" fill="none" stroke="#bcbcbc" stroke-width="8" stroke-linecap="round" stroke-linejoin="round" /><polyline points="485.85,128.02 487.37,123.99 491.47,113.09 493.21,108.48 494.39,105.36 497.68,96.61 499.86,90.83 500.15,90.05 505.42,76.05 507.63,76.73 508.82,73.48 510.93,67.73 510.53,65.11 516.14,49.85 516.71,48.28 517.78,47.30 518.67,46.48 524.30,31.10 525.11,26.89 533.18,4.47 535.09,2.98 538.97,-8.00 538.28,-9.69 541.68,-19.95 539.92,-29.10" fill="none" stroke="#bcbcbc" stroke-width="8" stroke-linecap="round" stroke-linejoin="round" /><polyline points="630.21,-289.02 627.95,-292.73 616.07,-312.22" fill="none" stroke="#bcbcbc" stroke-width="8" stroke-linecap="round" stroke-linejoin="round" /><polyline points="667.43,-32.18 721.96,2.88 721.98,2.91 721.98,2.91 732.06,4.22" fill="none" stroke="#bcbcbc" stroke-width="8" stroke-linecap="round" stroke-linejoin="round" /><polyline points="645.56,-105.42 703.58,-76.30 705.33,-75.00 705.22,-65.46 706.39,-55.68" fill="none" stroke="#bcbcbc" stroke-width="8" stroke-linecap="round" stroke-linejoin="round" /><polyline points="534.95,409.07 532.86,415.44 524.41,441.22 510.03,484.63 509.01,487.71 507.98,490.83 507.69,494.16" fill="none" stroke="#bcbcbc" stroke-width="8" stroke-linecap="round" stroke-linejoin="round" /><polyline points="698.28,252.47 698.63,249.23 698.70,246.22 698.68,246.11 696.62,237.23 695.78,233.51 695.37,231.72 694.96,229.89 692.70,219.95 688.29,200.08 685.09,188.14 684.63,186.29" fill="none" stroke="#bcbcbc" stroke-width="8" stroke-linecap="round" stroke-linejoin="round" /><polyline points="410.23,434.33 411.67,430.25 427.83,384.34 429.66,379.12" fill="none" stroke="#bcbcbc" stroke-width="8" stroke-linecap="round" stroke-linejoin="round" /><polyline points="772.99,60.48 768.23,59.14 735.95,9.61 732.06,4.22" fill="none" stroke="#bcbcbc" stroke-width="8" stroke-linecap="round" stroke-linejoin="round" /><polyline points="242.34,179.32 359.99,207.50 368.10,210.46" fill="none" stroke="#bcbcbc" stroke-width="8" stroke-linecap="round" stroke-linejoin="round" /><polyline points="613.39,-261.03 659.22,-244.06 665.67,-245.16" fill="none" stroke="#bcbcbc" stroke-width="8" stroke-linecap="round" stroke-linejoin="round" />
    <polyline points="352.80,352.80 343.13,352.35 337.24,352.08 334.03,351.93 331.22,351.80 309.33,350.78 278.88,349.36 264.37,347.30 259.51,346.62 255.29,345.87 226.75,340.83 222.76,340.13 221.87,339.98 216.94,339.13 213.16,338.48 188.97,336.35 184.36,335.94 182.67,335.79 177.44,335.43 167.20,334.72" fill="none" stroke="#ffffff" stroke-width="16" stroke-linecap="round" stroke-linejoin="round" />
    <polyline points="352.80,352.80 343.13,352.35 337.24,352.08 334.03,351.93 331.22,351.80 309.33,350.78 278.88,349.36 264.37,347.30 259.51,346.62 255.29,345.87 226.75,340.83 222.76,340.13 221.87,339.98 216.94,339.13 213.16,338.48 188.97,336.35 184.36,335.94 182.67,335.79 177.44,335.43 167.20,334.72" fill="none" stroke="#111111" stroke-width="9" stroke-linecap="round" stroke-linejoin="round" />
    
            <g transform="translate(352.80,352.80)">
              <circle r="19" fill="#ffffff" stroke="#111111" stroke-width="4" />
              <text text-anchor="middle" dominant-baseline="central" font-family="Helvetica, Arial, sans-serif"
                font-size="18" font-weight="700" fill="#111111">1</text>
            </g>
            
            <g transform="translate(167.20,334.72)">
              <circle r="19" fill="#ffffff" stroke="#111111" stroke-width="4" />
              <text text-anchor="middle" dominant-baseline="central" font-family="Helvetica, Arial, sans-serif"
                font-size="18" font-weight="700" fill="#111111">2</text>
            </g>
            
  </g>
</svg>
