<svg xmlns="http://www.w3.org/2000/svg" width="520" height="520" viewBox="0 0 520 520">
  <rect width="100%" height="100%" fill="#ffffff" />
  <g>
    <polyline points="527.13,-249.45 528.82,-240.45 539.74,-164.09 538.07,-145.00" fill="none" stroke="#bcbcbc" stroke-width="8" stroke-linecap="round" stroke-linejoin="round" /><polyline points="305.26,386.87 307.90,378.76 321.88,335.75 323.53,330.69 325.20,325.37 360.36,213.25 363.18,204.23 356.71,188.28" fill="none" stroke="#bcbcbc" stroke-width="8" stroke-linecap="round" stroke-linejoin="round" /><polyline points="62.39,287.15 61.82,280.71 73.32,216.33 74.93,208.28 76.13,204.06 79.30,187.73 82.85,167.75 86.73,150.15 90.57,132.59 92.99,127.64 94.57,124.60" fill="none" stroke="#bcbcbc" stroke-width="8" stroke-linecap="round" stroke-linejoin="round" /><polyline points="129.11,-166.97 126.38,-175.31 98.13,-261.46 96.75,-265.07" fill="none" stroke="#bcbcbc" stroke-width="8" stroke-linecap="round" stroke-linejoin="round" /><polyline points="-15.84,591.25 -14.99,583.03 -14.65,579.26 -11.58,545.25 -8.21,515.29 -7.42,508.30 -6.69,499.91 -6.61,499.20 -4.70,482.52 -3.06,465.57 -1.25,449.20 -0.03,436.46 0.48,428.60 0.93,421.34 1.74,413.16" fill="none" stroke="#bcbcbc" stroke-width="8" stroke-linecap="round" stroke-linejoin="round" /><polyline points="374.49,406.86 376.50,400.53 390.68,355.97 392.29,350.91 394.58,343.70 396.22,338.53 408.76,284.42" fill="none" stroke="#bcbcbc" stroke-width="8" stroke-linecap="round" stroke-linejoin="round" /><polyline points="319.39,-474.53 324.62,-473.72 468.87,-451.56" fill="none" stroke="#bcbcbc" stroke-width="8" stroke-linecap="round" stroke-linejoin="round" /><polyline points="-50.93,396.36 -65.94,395.66 -75.10,395.23 -80.07,395.00 -84.44,394.80 -118.44,393.22 -165.73,391.02 -188.27,387.82 -195.81,386.75 -202.36,385.60 -246.69,377.77 -252.89,376.68 -254.26,376.44 -261.91,375.13 -267.80,374.12 -305.36,370.80 -312.52,370.17 -315.14,369.94 -323.26,369.38 -339.17,368.27" fill="none" stroke="#bcbcbc" stroke-width="8" stroke-linecap="round" stroke-linejoin="round" /><polyline points="-315.14,369.94 -315.81,365.27 -315.97,360.20 -314.98,349.98 -312.69,331.33 -311.17,325.07 -308.70,302.43 -308.25,297.39 -307.53,290.91 -306.99,286.10 -305.98,280.64 -304.10,265.96 -302.80,254.73 -300.88,250.13" fill="none" stroke="#bcbcbc" stroke-width="8" stroke-linecap="round" stroke-linejoin="round" /><polyline points="-341.96,244.39 -307.01,249.28 -300.88,250.13 -297.09,250.74 -281.42,253.23 -245.32,258.99 -239.12,260.02" fill="none" stroke="#bcbcbc" stroke-width="8" stroke-linecap="round" stroke-linejoin="round" /><polyline points="301.34,-214.14 301.56,-210.96 302.03,-207.74 303.17,-205.28 305.29,-202.53 309.22,-198.95 318.54,-193.29 390.41,-148.20 434.67,-88.86 468.11,-6.35 470.29,-0.90" fill="none" stroke="#bcbcbc" stroke-width="8" stroke-linecap="round" stroke-linejoin="round" /><polyline points="289.83,26.60 291.32,29.07 291.70,29.71 292.94,35.93 301.37,76.71 304.05,89.65 305.96,98.86 308.95,117.55 310.34,126.16 311.30,131.42 312.36,136.17 313.61,138.94 315.46,142.14 316.45,143.66 335.12,170.39 345.22,186.29 347.86,190.10" fill="none" stroke="#bcbcbc" stroke-width="8" stroke-linecap="round" stroke-linejoin="round" /><polyline points="-246.26,537.13 -245.27,531.01 -244.35,526.58 -244.10,526.00 -231.67,496.44 -223.75,477.24 -221.34,471.15 -218.79,464.71 -216.02,459.16 -215.58,458.08 -211.79,448.92 -208.86,440.82 -206.34,433.38 -204.75,428.12 -202.96,421.63 -200.90,412.93 -199.33,405.86 -197.46,396.00 -197.07,393.80 -195.81,386.75" fill="none" stroke="#bcbcbc" stroke-width="8" stroke-linecap="round" stroke-linejoin="round" /><polyline points="355.93,-288.14 395.56,-260.44 400.90,-259.31 404.81,-254.84" fill="none" stroke="#bcbcbc" stroke-width="8" stroke-linecap="round" stroke-linejoin="round" /><polyline points="189.52,-32.40 194.75,-30.38 217.49,-22.94 270.24,-2.72 273.20,0.23 274.59,2.44" fill="none" stroke="#bcbcbc" stroke-width="8" stroke-linecap="round" stroke-linejoin="round" /><polyline points="287.81,487.38 291.40,478.02 309.13,429.91 321.67,393.56 324.27,392.36" fill="none" stroke="#bcbcbc" stroke-width="8" stroke-linecap="round" stroke-linejoin="round" /><polyline points="37.15,426.38 39.95,420.19 40.22,419.58 45.01,403.52 52.85,377.09 54.86,370.32 56.42,365.07 56.63,362.01 56.31,355.23" fill="none" stroke="#bcbcbc" stroke-width="8" stroke-linecap="round" stroke-linejoin="round" /><polyline points="363.08,28.72 358.59,29.64 348.40,27.83 346.82,23.63 329.17,16.90 324.99,17.99 309.07,12.14 306.69,13.80" fill="none" stroke="#bcbcbc" stroke-width="8" stroke-linecap="round" stroke-linejoin="round" /><polyline points="336.87,-517.29 344.87,-515.33 349.30,-514.56 454.52,-496.31" fill="none" stroke="#bcbcbc" stroke-width="8" stroke-linecap="round" stroke-linejoin="round" /><polyline points="255.09,458.08 259.46,445.74 267.97,421.76 273.47,411.54 281.38,389.40 284.53,380.56" fill="none" stroke="#bcbcbc" stroke-width="8" stroke-linecap="round" stroke-linejoin="round" /><polyline points="-321.46,-20.86 -329.09,-21.21 -331.00,-18.89 -344.27,-2.76 -390.69,50.85 -397.21,58.39" fill="none" stroke="#bcbcbc" stroke-width="8" stroke-linecap="round" stroke-linejoin="round" /><polyline points="85.65,25.06 82.28,32.50 81.88,33.41 70.19,63.89 58.40,97.44 55.26,106.39 53.48,111.00" fill="none" stroke="#bcbcbc" stroke-width="8" stroke-linecap="round" stroke-linejoin="round" /><polyline points="257.10,-317.41 260.82,-312.38 263.47,-305.45 267.60,-295.51 274.22,-279.87 280.08,-265.83 286.81,-250.41 291.81,-238.53 292.55,-236.83 292.59,-236.72 296.61,-227.33 297.81,-224.66 298.96,-222.11 300.16,-219.73 301.07,-217.31 301.34,-214.14" fill="none" stroke="#bcbcbc" stroke-width="8" stroke-linecap="round" stroke-linejoin="round" /><polyline points="-27.17,175.30 -25.23,174.24 -22.51,172.08 -21.15,169.28 -3.09,100.80 -2.54,96.94 -0.34,89.89" fill="none" stroke="#bcbcbc" stroke-width="8" stroke-linecap="round" stroke-linejoin="round" /><polyline points="604.29,68.15 606.85,76.28 608.66,84.82 605.14,117.37 601.09,141.85 598.87,150.20 598.67,150.96 596.73,155.46 594.08,160.24 587.91,168.05 590.90,183.33 581.22,216.13 575.87,234.24 564.94,263.88 548.93,299.98 529.38,334.56 523.28,345.81 512.24,364.28 468.14,426.86 458.48,439.88 421.06,488.77 399.58,513.21 369.54,543.75 366.76,544.03 359.97,549.58" fill="none" stroke="#bcbcbc" stroke-width="8" stroke-linecap="round" stroke-linejoin="round" /><polyline points="60.14,603.51 72.45,565.33 74.47,559.03 77.20,555.06 83.08,537.41 84.99,531.42 109.28,455.38 111.72,447.74 113.74,441.02 142.40,350.82" fill="none" stroke="#bcbcbc" stroke-width="8" stroke-linecap="round" stroke-linejoin="round" /><polyline points="348.52,-106.48 359.16,-118.11 362.30,-121.89 383.80,-152.34" fill="none" stroke="#bcbcbc" stroke-width="8" stroke-linecap="round" stroke-linejoin="round" /><polyline points="135.82,-101.87 165.13,-91.67 166.75,-89.04 175.07,-86.25 180.01,-84.56 203.63,-76.58" fill="none" stroke="#bcbcbc" stroke-width="8" stroke-linecap="round" stroke-linejoin="round" /><polyline points="391.25,-304.66 404.81,-254.84 420.50,-196.15 422.88,-191.26 423.25,-185.68 433.90,-165.81 462.61,-112.26 468.89,-103.00 470.71,-100.29 513.61,-20.09 533.33,-2.16 536.09,1.41 539.99,4.74 577.43,36.75 579.97,38.93 586.70,42.50" fill="none" stroke="#bcbcbc" stroke-width="8" stroke-linecap="round" stroke-linejoin="round" /><polyline points="245.65,611.61 339.02,557.38 355.64,548.88 359.97,549.58" fill="none" stroke="#bcbcbc" stroke-width="8" stroke-linecap="round" stroke-linejoin="round" /><polyline points="346.88,534.03 352.67,527.14 404.68,423.37 408.13,416.57 411.00,409.83 427.80,368.29 432.81,355.78 447.29,311.96 456.67,255.62 457.79,247.42" fill="none" stroke="#bcbcbc" stroke-width="8" stroke-linecap="round" stroke-linejoin="round" /><polyline points="306.74,-76.23 305.83,-75.30 304.58,-70.93 304.46,-70.50 298.81,-48.76 300.29,-43.09 299.06,-38.01 297.45,-31.35 293.32,-26.56 288.63,-7.58 283.11,-3.41 277.22,0.63 274.59,2.44" fill="none" stroke="#bcbcbc" stroke-width="8" stroke-linecap="round" stroke-linejoin="round" /><polyline points="85.65,25.06 88.05,18.91 102.47,-18.08 105.62,-26.15 108.21,-32.79 126.65,-80.02 134.95,-99.77 135.82,-101.87 142.27,-117.47 156.75,-153.40 162.05,-168.70 163.23,-172.21 164.81,-176.19" fill="none" stroke="#bcbcbc" stroke-width="8" stroke-linecap="round" stroke-linejoin="round" /><polyline points="247.10,-199.14 249.89,-190.84 341.46,-112.63 391.42,-69.16 466.05,-4.29 472.57,0.92 475.48,2.75 488.43,14.50 505.73,29.25 544.96,62.70 557.63,73.59 566.03,83.65" fill="none" stroke="#bcbcbc" stroke-width="8" stroke-linecap="round" stroke-linejoin="round" /><polyline points="398.50,-333.91 403.14,-336.89 430.66,-348.32 436.31,-354.27" fill="none" stroke="#bcbcbc" stroke-width="8" stroke-linecap="round" stroke-linejoin="round" /><polyline points="430.28,362.11 392.29,350.91 323.53,330.69" fill="none" stroke="#bcbcbc" stroke-width="8" stroke-linecap="round" stroke-linejoin="round" /><polyline points="307.66,-445.85 312.84,-442.28 481.92,-404.66" fill="none" stroke="#bcbcbc" stroke-width="8" stroke-linecap="round" stroke-linejoin="round" /><polyline points="516.51,110.80 507.77,91.36 488.38,45.12 486.93,41.44 483.61,33.00 471.11,1.19 470.33,-0.87" fill="none" stroke="#bcbcbc" stroke-width="8" stroke-linecap="round" stroke-linejoin="round" /><polyline points="257.10,-317.41 247.72,-320.08 240.82,-322.14 226.80,-326.30 219.68,-328.33 215.60,-329.47 210.27,-330.99" fill="none" stroke="#bcbcbc" stroke-width="8" stroke-linecap="round" stroke-linejoin="round" /><polyline points="12.35,-63.05 11.88,-64.60 11.44,-65.69 9.50,-70.50 2.01,-87.97 -5.11,-105.72 -6.65,-109.91 -8.42,-114.73 -9.69,-118.68 -11.79,-124.60 -12.01,-125.23 -18.82,-142.02 -31.33,-173.59 -34.14,-175.19 -36.14,-180.31 -40.13,-194.17 -46.97,-211.35 -48.44,-215.26" fill="none" stroke="#bcbcbc" stroke-width="8" stroke-linecap="round" stroke-linejoin="round" /><polyline points="72.45,565.33 79.56,567.51 102.54,574.51 109.74,576.71" fill="none" stroke="#bcbcbc" stroke-width="8" stroke-linecap="round" stroke-linejoin="round" /><polyline points="501.74,-325.64 503.08,-331.06 502.53,-333.12 501.88,-335.60 497.68,-350.97 488.32,-383.48 483.38,-400.09 481.92,-404.66 468.87,-451.56 461.83,-476.86 454.52,-496.31 447.92,-513.86 441.35,-525.93 434.96,-532.30 385.92,-592.22 382.30,-596.48 379.89,-600.43" fill="none" stroke="#bcbcbc" stroke-width="8" stroke-linecap="round" stroke-linejoin="round" /><polyline points="301.34,-214.14 298.81,-213.17 294.13,-211.88 293.66,-211.75 274.14,-206.76 251.68,-200.44 247.10,-199.14 245.06,-198.50 239.66,-196.76 235.05,-195.48 214.92,-189.88 181.80,-180.47 169.46,-177.35 164.81,-176.19 142.74,-170.77 129.11,-166.97 100.24,-158.91 71.71,-150.87 68.41,-149.95 44.56,-143.33 33.56,-140.28 28.01,-137.66 17.49,-132.44 -3.39,-121.85 -4.84,-121.11 -9.69,-118.68 -12.65,-117.20 -16.78,-115.04 -31.45,-107.35 -58.18,-92.35 -80.51,-80.65 -83.70,-78.98 -87.97,-78.71 -90.53,-77.35 -91.05,-77.08 -115.27,-63.80 -120.34,-63.83 -126.17,-60.78 -128.20,-59.72 -129.92,-58.82 -133.97,-56.70 -137.16,-49.42 -150.87,-42.08 -155.23,-39.74 -159.94,-37.18 -179.02,-26.80 -188.88,-21.43 -193.85,-20.00" fill="none" stroke="#bcbcbc" stroke-width="8" stroke-linecap="round" stroke-linejoin="round" /><polyline points="575.87,234.24 565.70,235.17 533.90,238.08 532.47,238.21 530.44,238.40 527.16,238.70 496.33,241.53 485.60,240.54 473.12,243.67 463.11,246.12 457.79,247.42 444.55,247.93 433.09,247.34 427.25,246.72 422.28,245.22 418.62,243.20 404.99,233.56 371.86,210.81 368.74,208.69 365.56,206.53 363.18,204.23" fill="none" stroke="#bcbcbc" stroke-width="8" stroke-linecap="round" stroke-linejoin="round" /><polyline points="-174.35,-149.84 -162.33,-126.31 -160.51,-119.59 -150.39,-100.27 -146.20,-94.74 -129.28,-61.82 -128.20,-59.72" fill="none" stroke="#bcbcbc" stroke-width="8" stroke-linecap="round" stroke-linejoin="round" /><polyline points="193.98,59.41 192.18,64.35 191.67,65.89 189.33,73.01 174.46,114.49 167.08,135.09 166.82,135.79 163.86,142.20 162.16,146.00" fill="none" stroke="#bcbcbc" stroke-width="8" stroke-linecap="round" stroke-linejoin="round" /><polyline points="391.25,-304.66 389.60,-308.19 385.27,-308.76 371.25,-305.55 368.41,-305.91 366.17,-308.91 362.21,-327.14 383.69,-330.47 393.63,-333.40 398.50,-333.91 403.73,-315.29" fill="none" stroke="#bcbcbc" stroke-width="8" stroke-linecap="round" stroke-linejoin="round" /><polyline points="468.89,-103.00 474.42,-106.11 502.21,-122.86 509.64,-127.28 522.64,-135.03 544.03,-148.86 549.02,-152.45 586.54,-175.72" fill="none" stroke="#bcbcbc" stroke-width="8" stroke-linecap="round" stroke-linejoin="round" /><polyline points="600.03,6.92 590.55,4.10 585.04,-0.42 563.96,-18.66 563.24,-19.30 558.15,-23.85 555.15,-29.16 502.21,-122.86" fill="none" stroke="#bcbcbc" stroke-width="8" stroke-linecap="round" stroke-linejoin="round" /><polyline points="2.58,-0.50 85.65,25.06 92.42,27.20 154.41,46.85 155.70,47.26 164.99,50.21 169.55,51.66 175.49,53.28 187.72,57.42 193.98,59.41 199.61,61.19 245.74,75.82 294.44,91.12 298.46,92.39 304.05,89.65" fill="none" stroke="#bcbcbc" stroke-width="8" stroke-linecap="round" stroke-linejoin="round" /><polyline points="246.81,-410.55 282.79,-443.61 288.88,-449.21" fill="none" stroke="#bcbcbc" stroke-width="8" stroke-linecap="round" stroke-linejoin="round" /><polyline points="-355.69,122.88 -223.67,137.03" fill="none" stroke="#bcbcbc" stroke-width="8" stroke-linecap="round" stroke-linejoin="round" /><polyline points="42.59,-245.60 70.34,-255.52 98.96,-265.87 116.74,-272.78 171.04,-292.53 186.80,-297.98 190.09,-299.12 194.04,-300.48 198.47,-302.00 199.01,-302.19 207.96,-305.78 211.85,-307.34" fill="none" stroke="#bcbcbc" stroke-width="8" stroke-linecap="round" stroke-linejoin="round" /><polyline points="228.96,425.85 255.09,458.08 271.08,474.18 278.00,479.17 287.81,487.38 297.01,495.11 304.92,502.82 305.12,506.75" fill="none" stroke="#bcbcbc" stroke-width="8" stroke-linecap="round" stroke-linejoin="round" /><polyline points="257.10,-317.41 267.34,-343.07 283.91,-385.32 307.66,-445.85 319.39,-474.53 336.87,-517.29 351.21,-552.31 353.77,-556.96 366.38,-577.57 367.19,-578.90 371.81,-587.97 379.89,-600.43 384.41,-607.38 390.80,-617.21" fill="none" stroke="#bcbcbc" stroke-width="8" stroke-linecap="round" stroke-linejoin="round" /><polyline points="15.56,368.70 13.89,370.04 12.78,371.64 10.52,378.30 8.96,383.10 1.75,404.67 0.75,407.79 0.14,409.72 -6.49,407.82 -22.61,402.41 -38.58,397.06 -50.93,396.36" fill="none" stroke="#bcbcbc" stroke-width="8" stroke-linecap="round" stroke-linejoin="round" /><polyline points="-300.14,518.79 -273.81,450.81 -270.88,443.40 -268.26,436.28 -265.08,427.66 -261.19,414.11 -257.13,397.28 -255.47,385.21 -254.26,376.44 -252.56,369.97 -246.36,321.36 -239.12,260.02 -235.38,230.77 -231.20,196.42 -223.67,137.03 -222.47,126.93 -214.86,64.83 -214.85,61.37 -213.17,42.94 -208.32,4.02 -207.10,-2.77 -205.83,-6.58 -203.84,-10.77 -201.91,-14.03 -197.65,-18.64 -193.84,-19.95" fill="none" stroke="#bcbcbc" stroke-width="8" stroke-linecap="round" stroke-linejoin="round" /><polyline points="274.59,2.44 276.03,4.72 280.86,12.26 288.09,23.84 289.83,26.60 292.71,24.42 306.69,13.80" fill="none" stroke="#bcbcbc" stroke-width="8" stroke-linecap="round" stroke-linejoin="round" /><polyline points="283.91,-385.32 426.16,-359.61 441.10,-351.75 496.83,-324.12 501.74,-325.64" fill="none" stroke="#bcbcbc" stroke-width="8" stroke-linecap="round" stroke-linejoin="round" /><polyline points="12.35,-63.05 9.83,-59.37 -12.87,-48.29 -29.53,-27.11 -47.52,-15.97 -59.82,-6.68 -71.55,2.89 -77.57,8.37 -88.20,21.85 -100.08,38.88 -102.04,42.04" fill="none" stroke="#bcbcbc" stroke-width="8" stroke-linecap="round" stroke-linejoin="round" /><polyline points="36.34,-47.85 35.36,-45.66 33.21,-42.52 29.14,-37.52 5.17,-7.24 -7.51,26.92 -71.53,2.86" fill="none" stroke="#bcbcbc" stroke-width="8" stroke-linecap="round" stroke-linejoin="round" /><polyline points="-59.82,-6.68 -62.30,-14.19 -73.01,-46.62 -77.17,-53.03 -84.13,-73.91 -84.73,-75.71 -83.70,-78.98 -85.37,-84.30 -118.84,-191.17" fill="none" stroke="#bcbcbc" stroke-width="8" stroke-linecap="round" stroke-linejoin="round" /><polyline points="332.38,-589.78 358.83,-589.09 360.07,-589.05 365.14,-588.91 371.81,-587.97" fill="none" stroke="#bcbcbc" stroke-width="8" stroke-linecap="round" stroke-linejoin="round" /><polyline points="196.32,271.88 187.28,271.77 110.80,282.04 105.29,282.62 98.99,283.28 62.39,287.15 13.08,292.35 -13.06,295.11 -27.52,296.64 -39.26,298.06 -45.29,298.80 -52.08,299.62 -84.88,303.61 -92.74,304.56 -116.97,307.21 -246.36,321.36" fill="none" stroke="#bcbcbc" stroke-width="8" stroke-linecap="round" stroke-linejoin="round" /><polyline points="83.08,537.41 76.31,535.23 44.66,525.05 38.26,522.99 32.71,521.20 -0.81,510.43 -7.42,508.30 -16.17,505.49 -69.54,488.31 -75.55,486.38" fill="none" stroke="#bcbcbc" stroke-width="8" stroke-linecap="round" stroke-linejoin="round" /><polyline points="215.40,-103.26 233.81,-97.52 301.12,-76.74 301.75,-76.54 306.74,-76.23" fill="none" stroke="#bcbcbc" stroke-width="8" stroke-linecap="round" stroke-linejoin="round" /><polyline points="404.81,-254.84 496.37,-253.23" fill="none" stroke="#bcbcbc" stroke-width="8" stroke-linecap="round" stroke-linejoin="round" /><polyline points="359.97,549.58 346.88,534.03 341.39,527.64 336.67,523.23 330.39,518.54 317.54,510.83 305.12,506.75 279.84,498.94 259.16,492.38 271.08,474.18" fill="none" stroke="#bcbcbc" stroke-width="8" stroke-linecap="round" stroke-linejoin="round" /><polyline points="228.96,425.85 210.74,403.36 207.27,399.08 188.91,373.79 184.75,366.07 185.75,356.87 191.29,356.82 204.94,359.45 225.72,363.44" fill="none" stroke="#bcbcbc" stroke-width="8" stroke-linecap="round" stroke-linejoin="round" /><polyline points="-9.47,245.61 -6.11,252.84 13.08,292.35 41.63,351.11 45.27,358.60" fill="none" stroke="#bcbcbc" stroke-width="8" stroke-linecap="round" stroke-linejoin="round" /><polyline points="-316.93,424.58 -310.06,427.39 -277.90,440.54 -270.88,443.40 -263.50,446.42 -225.64,461.90 -218.79,464.71" fill="none" stroke="#bcbcbc" stroke-width="8" stroke-linecap="round" stroke-linejoin="round" /><polyline points="6.32,187.02 73.32,216.33" fill="none" stroke="#bcbcbc" stroke-width="8" stroke-linecap="round" stroke-linejoin="round" /><polyline points="306.74,-76.23 316.95,-75.69 317.60,-75.12 322.18,-71.05 328.91,-65.05 330.15,-62.63 353.34,-42.32 355.06,-39.08 371.37,-24.69 375.47,-23.44 388.16,-12.33 391.00,-11.03 410.13,5.20 414.39,8.98 416.74,12.72" fill="none" stroke="#bcbcbc" stroke-width="8" stroke-linecap="round" stroke-linejoin="round" /><polyline points="-335.84,187.09 -231.20,196.42" fill="none" stroke="#bcbcbc" stroke-width="8" stroke-linecap="round" stroke-linejoin="round" /><polyline points="-102.20,576.70 -98.96,569.80 -98.13,566.73 -93.58,549.98 -77.12,491.94 -75.55,486.38 -73.88,480.29 -66.42,453.02 -53.83,406.97 -50.93,396.36" fill="none" stroke="#bcbcbc" stroke-width="8" stroke-linecap="round" stroke-linejoin="round" /><polyline points="-9.47,245.61 6.32,187.02 -27.17,175.30 -35.94,180.48 -39.94,183.52 -42.90,187.53 -44.98,192.81 -52.69,221.28 -46.47,224.45 -40.19,225.97 -26.31,229.59 -15.92,232.89 -9.47,245.61" fill="none" stroke="#bcbcbc" stroke-width="8" stroke-linecap="round" stroke-linejoin="round" /><polyline points="-52.69,221.28 -60.02,220.26 -231.20,196.42" fill="none" stroke="#bcbcbc" stroke-width="8" stroke-linecap="round" stroke-linejoin="round" /><polyline points="225.72,363.44 241.59,366.91 284.53,380.56 296.54,384.35 325.04,392.59 353.75,400.86 375.00,407.00 408.99,416.82 416.01,418.85 433.17,424.60 461.41,432.12 463.90,432.58" fill="none" stroke="#bcbcbc" stroke-width="8" stroke-linecap="round" stroke-linejoin="round" /><polyline points="245.86,611.49 240.06,612.94 233.80,630.40 224.09,627.64 179.92,612.59 174.61,611.46 162.78,610.61 109.30,610.82 97.51,609.32 70.88,605.25 60.14,603.51 -16.03,591.22 -45.53,586.52 -101.78,576.77 -110.87,574.97 -237.82,539.49 -245.83,537.25 -300.14,518.79 -313.50,514.05 -346.88,500.22 -365.90,493.02" fill="none" stroke="#bcbcbc" stroke-width="8" stroke-linecap="round" stroke-linejoin="round" /><polyline points="362.21,-327.14 356.71,-328.27 283.34,-319.60 257.10,-317.41" fill="none" stroke="#bcbcbc" stroke-width="8" stroke-linecap="round" stroke-linejoin="round" /><polyline points="225.72,363.44 228.29,359.14 243.69,319.60 260.89,259.80 265.28,246.93 267.63,243.42 284.24,190.11 285.06,183.74 285.69,179.58" fill="none" stroke="#bcbcbc" stroke-width="8" stroke-linecap="round" stroke-linejoin="round" /><polyline points="301.34,-214.14 303.09,-214.81 305.47,-216.69 309.08,-220.92 355.93,-288.14 368.41,-305.92" fill="none" stroke="#bcbcbc" stroke-width="8" stroke-linecap="round" stroke-linejoin="round" /><polyline points="509.86,32.80 510.82,30.04 534.37,2.33 536.09,1.41 540.19,-4.19 553.89,-19.92 558.15,-23.85" fill="none" stroke="#bcbcbc" stroke-width="8" stroke-linecap="round" stroke-linejoin="round" /><polyline points="530.44,238.40 530.11,234.69 529.86,231.83 528.62,226.34 527.14,222.76 525.29,213.37 525.12,209.97 523.86,202.36 518.26,199.43 513.78,201.14 505.76,203.06 499.41,204.06 493.32,205.52 484.92,207.44 481.09,208.31" fill="none" stroke="#bcbcbc" stroke-width="8" stroke-linecap="round" stroke-linejoin="round" /><polyline points="-88.31,102.34 -71.18,62.19 -70.23,59.58" fill="none" stroke="#bcbcbc" stroke-width="8" stroke-linecap="round" stroke-linejoin="round" /><polyline points="363.08,28.72 371.34,25.52 375.65,23.85 378.99,20.47 392.75,17.08 397.37,18.25 407.33,15.69 414.93,13.73 416.74,12.72 424.11,10.91 461.79,1.68 470.33,-0.87" fill="none" stroke="#bcbcbc" stroke-width="8" stroke-linecap="round" stroke-linejoin="round" /><polyline points="15.56,368.70 33.34,362.25 39.28,360.43 45.27,358.60 56.31,355.23 64.90,353.99 94.25,350.78 100.15,350.46 126.40,350.69 142.40,350.82 148.41,350.51 158.05,351.49 161.06,351.92 167.20,352.80 185.75,356.87" fill="none" stroke="#bcbcbc" stroke-width="8" stroke-linecap="round" stroke-linejoin="round" /><polyline points="100.24,-158.91 97.30,-168.86 86.36,-205.84 73.08,-248.00 70.34,-255.52 67.55,-262.58 64.03,-272.74" fill="none" stroke="#bcbcbc" stroke-width="8" stroke-linecap="round" stroke-linejoin="round" /><polyline points="68.44,437.24 70.77,429.86 94.40,355.36 94.25,350.78" fill="none" stroke="#bcbcbc" stroke-width="8" stroke-linecap="round" stroke-linejoin="round" /><polyline points="100.15,350.46 104.82,287.73 105.29,282.62 106.01,276.67 106.02,276.40 106.33,269.12 107.89,249.38 108.77,240.18 109.97,229.73 111.07,222.21 112.05,217.49 113.29,213.92 115.72,205.88 120.74,189.13 127.12,167.51 134.16,145.40 135.59,140.89 136.74,137.62" fill="none" stroke="#bcbcbc" stroke-width="8" stroke-linecap="round" stroke-linejoin="round" /><polyline points="-52.69,221.28 -53.93,226.84 -53.72,228.62 -46.09,292.08 -45.29,298.80 -45.64,305.71 -47.63,345.18 -48.47,361.67 -48.90,370.17 -49.67,385.33 -50.07,393.22 -50.93,396.36" fill="none" stroke="#bcbcbc" stroke-width="8" stroke-linecap="round" stroke-linejoin="round" /><polyline points="-88.31,102.34 -116.02,94.10 -119.54,91.84 -136.79,86.81 -141.64,86.87 -163.31,80.34 -166.81,77.75 -186.53,71.78 -210.73,65.18 -210.84,65.17 -214.86,64.83" fill="none" stroke="#bcbcbc" stroke-width="8" stroke-linecap="round" stroke-linejoin="round" /><polyline points="416.74,12.72 417.71,13.98 421.72,19.97 429.15,31.04 436.15,38.05 449.59,53.14 447.32,67.09 446.16,72.32 444.56,74.53 447.93,79.51 453.14,90.24 463.57,110.34 468.70,120.24 471.89,129.14 473.33,133.27" fill="none" stroke="#bcbcbc" stroke-width="8" stroke-linecap="round" stroke-linejoin="round" /><polyline points="486.93,41.44 483.07,42.64 457.62,50.56 453.97,51.73 449.59,53.14" fill="none" stroke="#bcbcbc" stroke-width="8" stroke-linecap="round" stroke-linejoin="round" /><polyline points="304.05,89.65 312.01,87.07 369.77,57.57 377.50,53.79 404.73,45.93 431.13,38.51 436.15,38.05" fill="none" stroke="#bcbcbc" stroke-width="8" stroke-linecap="round" stroke-linejoin="round" /><polyline points="310.34,126.16 376.94,95.17 379.74,93.32 386.25,91.42 430.63,78.51 437.36,75.93 444.56,74.53" fill="none" stroke="#bcbcbc" stroke-width="8" stroke-linecap="round" stroke-linejoin="round" /><polyline points="296.75,-523.52 323.71,-520.19 326.42,-519.85 336.87,-517.29" fill="none" stroke="#bcbcbc" stroke-width="8" stroke-linecap="round" stroke-linejoin="round" /><polyline points="527.13,-249.45 531.91,-250.45 549.77,-241.69 552.13,-239.36 585.66,-182.60 586.54,-175.72 590.90,-172.09 590.21,-169.58 590.10,-165.49 590.71,-159.77 599.59,-123.27 600.37,-97.99 601.62,-57.63 603.71,-3.30 595.20,20.37 589.72,34.81 581.72,55.14 579.41,61.03 577.91,62.67 575.49,78.41" fill="none" stroke="#bcbcbc" stroke-width="8" stroke-linecap="round" stroke-linejoin="round" /><polyline points="589.13,174.29 580.97,170.74 560.59,156.52 533.70,137.62 518.91,125.67 508.94,114.98" fill="none" stroke="#bcbcbc" stroke-width="8" stroke-linecap="round" stroke-linejoin="round" /><polyline points="259.16,492.38 251.15,489.84 238.15,485.72 231.95,483.75 224.67,481.44 215.46,478.52 207.14,475.88 198.91,473.27 162.22,461.63 155.80,459.60 147.82,457.07 146.06,456.51 125.07,450.97 119.15,449.53 111.72,447.74 103.95,445.85 75.95,439.06 68.44,437.24 60.37,434.44 43.50,428.58 37.15,426.38 31.46,424.53 5.06,415.14 1.74,413.16 0.14,409.72" fill="none" stroke="#bcbcbc" stroke-width="8" stroke-linecap="round" stroke-linejoin="round" /><polyline points="379.74,93.32 377.80,86.35 372.00,65.56 369.77,57.57 366.55,51.60 366.25,50.49 364.35,43.46 366.56,40.34 363.91,31.47 363.08,28.72" fill="none" stroke="#bcbcbc" stroke-width="8" stroke-linecap="round" stroke-linejoin="round" /><polyline points="370.05,-161.00 375.56,-163.59 405.67,-180.19 422.88,-191.26 435.01,-199.54 437.70,-201.54 447.46,-208.33 457.59,-215.80 464.00,-220.47 471.64,-226.06 498.20,-238.04 501.64,-237.86 506.68,-240.24 527.13,-249.45" fill="none" stroke="#bcbcbc" stroke-width="8" stroke-linecap="round" stroke-linejoin="round" /><polyline points="36.34,-47.85 40.69,-46.09 43.56,-45.21 97.40,-28.67 105.62,-26.15" fill="none" stroke="#bcbcbc" stroke-width="8" stroke-linecap="round" stroke-linejoin="round" /><polyline points="-348.23,73.22 -386.69,61.58" fill="none" stroke="#bcbcbc" stroke-width="8" stroke-linecap="round" stroke-linejoin="round" /><polyline points="273.11,-469.19 282.65,-457.11 284.07,-455.31 288.88,-449.21 294.37,-448.56 305.65,-447.24 307.66,-445.85" fill="none" stroke="#bcbcbc" stroke-width="8" stroke-linecap="round" stroke-linejoin="round" /><polyline points="604.29,68.15 589.18,70.97 573.68,79.39 559.32,87.39 545.73,94.18 529.31,103.09 517.43,110.31 493.94,122.91 402.23,169.04 378.46,179.51 362.75,186.30 354.96,188.85 348.53,190.05 337.98,190.69 322.98,188.57 285.55,179.58 232.41,167.20 162.50,146.11 136.74,137.62 94.57,124.60 54.24,111.30 -4.92,88.09 -34.49,75.36 -70.16,59.51 -129.31,27.10 -143.18,17.90 -178.28,-4.17 -192.99,-18.89 -215.07,-47.47 -251.44,-84.97 -265.73,-97.57" fill="none" stroke="#bcbcbc" stroke-width="8" stroke-linecap="round" stroke-linejoin="round" /><polyline points="317.54,510.83 318.16,507.38 320.40,501.73 341.38,452.65 349.30,434.25 358.64,411.32 360.92,402.93" fill="none" stroke="#bcbcbc" stroke-width="8" stroke-linecap="round" stroke-linejoin="round" /><polyline points="-84.88,303.61 -108.71,292.08 -162.93,265.83 -229.44,233.65 -235.38,230.77" fill="none" stroke="#bcbcbc" stroke-width="8" stroke-linecap="round" stroke-linejoin="round" /><polyline points="306.74,-76.23 312.76,-82.39 328.76,-98.77 341.46,-112.63" fill="none" stroke="#bcbcbc" stroke-width="8" stroke-linecap="round" stroke-linejoin="round" /><polyline points="-155.23,-39.74 -161.84,-48.50 -192.81,-89.51 -237.03,-125.29" fill="none" stroke="#bcbcbc" stroke-width="8" stroke-linecap="round" stroke-linejoin="round" /><polyline points="-347.11,500.12 -341.07,485.78 -321.84,437.85 -319.51,431.56 -316.93,424.58 -315.94,422.06 -315.68,418.12 -313.22,380.86 -312.52,370.17" fill="none" stroke="#bcbcbc" stroke-width="8" stroke-linecap="round" stroke-linejoin="round" /><polyline points="-360.23,114.84 -348.23,73.22 -332.39,18.32 -330.43,11.52 -328.25,3.80 -323.37,-13.49 -322.86,-15.30 -321.46,-20.86 -319.23,-27.14 -318.69,-28.66 -315.88,-35.64 -310.35,-47.83 -308.70,-51.33" fill="none" stroke="#bcbcbc" stroke-width="8" stroke-linecap="round" stroke-linejoin="round" /><polyline points="-330.43,11.52 -306.15,17.73 -254.71,30.95 -225.40,40.08 -213.17,42.94" fill="none" stroke="#bcbcbc" stroke-width="8" stroke-linecap="round" stroke-linejoin="round" /><polyline points="169.46,-177.35 170.28,-182.40 171.11,-187.65 174.68,-205.20 183.58,-246.06 190.89,-282.60 192.22,-290.18 194.04,-300.48 194.04,-300.48" fill="none" stroke="#bcbcbc" stroke-width="8" stroke-linecap="round" stroke-linejoin="round" /><polyline points="97.55,609.33 108.40,581.67 109.74,576.71 152.78,467.48 155.80,459.60 158.25,452.91 183.96,378.11 188.91,373.79" fill="none" stroke="#bcbcbc" stroke-width="8" stroke-linecap="round" stroke-linejoin="round" /><polyline points="245.06,-198.50 245.06,-198.51 243.53,-206.51 243.29,-207.48 239.57,-222.59 239.58,-222.64 237.04,-232.89 226.30,-269.69 224.95,-273.63 217.70,-293.34 215.34,-299.23 213.82,-303.02 211.85,-307.34 211.85,-307.34 211.84,-307.36 210.41,-323.21 210.27,-330.99" fill="none" stroke="#bcbcbc" stroke-width="8" stroke-linecap="round" stroke-linejoin="round" /><polyline points="228.96,425.85 226.20,428.84 222.09,433.73 210.49,466.42 207.14,475.88" fill="none" stroke="#bcbcbc" stroke-width="8" stroke-linecap="round" stroke-linejoin="round" /><polyline points="36.34,-47.85 37.93,-52.14 38.28,-53.14 45.81,-74.17 48.64,-83.02 71.71,-150.87" fill="none" stroke="#bcbcbc" stroke-width="8" stroke-linecap="round" stroke-linejoin="round" /><polyline points="155.70,47.26 158.06,41.01 164.43,24.07 167.13,16.91 168.95,12.07 174.07,-1.52 177.45,-10.50 177.90,-11.71 186.09,-33.46 189.52,-32.40 191.37,-37.45 194.65,-46.38 194.02,-50.44 202.73,-74.15 203.63,-76.58 205.28,-78.10 206.67,-79.38 215.40,-103.26 216.67,-109.79 229.20,-144.61 232.16,-146.93 238.19,-163.99 237.12,-166.61 242.40,-182.54 239.66,-196.76" fill="none" stroke="#bcbcbc" stroke-width="8" stroke-linecap="round" stroke-linejoin="round" /><polyline points="379.89,-600.43 376.38,-606.19 357.93,-636.46" fill="none" stroke="#bcbcbc" stroke-width="8" stroke-linecap="round" stroke-linejoin="round" /><polyline points="437.70,-201.54 522.38,-147.08 522.40,-147.05 522.40,-147.04 538.07,-145.00" fill="none" stroke="#bcbcbc" stroke-width="8" stroke-linecap="round" stroke-linejoin="round" /><polyline points="403.73,-315.29 493.84,-270.06 496.56,-268.04 496.37,-253.23 498.20,-238.04" fill="none" stroke="#bcbcbc" stroke-width="8" stroke-linecap="round" stroke-linejoin="round" /><polyline points="231.95,483.75 228.71,493.64 215.58,533.67 193.25,601.10 191.67,605.88 190.06,610.73 189.61,615.89" fill="none" stroke="#bcbcbc" stroke-width="8" stroke-linecap="round" stroke-linejoin="round" /><polyline points="485.60,240.54 486.14,235.51 486.26,230.83 486.22,230.66 483.03,216.86 481.72,211.10 481.09,208.31 480.44,205.47 476.94,190.03 470.09,159.18 465.11,140.63 464.41,137.76" fill="none" stroke="#bcbcbc" stroke-width="8" stroke-linecap="round" stroke-linejoin="round" /><polyline points="38.26,522.99 40.50,516.64 65.59,445.34 68.44,437.24" fill="none" stroke="#bcbcbc" stroke-width="8" stroke-linecap="round" stroke-linejoin="round" /><polyline points="601.62,-57.63 594.24,-59.71 544.11,-136.63 538.07,-145.00" fill="none" stroke="#bcbcbc" stroke-width="8" stroke-linecap="round" stroke-linejoin="round" /><polyline points="-222.47,126.93 -39.77,170.70 -27.17,175.30" fill="none" stroke="#bcbcbc" stroke-width="8" stroke-linecap="round" stroke-linejoin="round" /><polyline points="353.77,-556.96 424.94,-530.59 434.96,-532.30" fill="none" stroke="#bcbcbc" stroke-width="8" stroke-linecap="round" stroke-linejoin="round" />
    <polyline points="167.20,352.80 170.11,344.52 196.32,271.88 227.84,180.26 229.86,174.51 231.27,170.50 232.41,167.20" fill="none" stroke="#ffffff" stroke-width="16" stroke-linecap="round" stroke-linejoin="round" />
    <polyline points="167.20,352.80 170.11,344.52 196.32,271.88 227.84,180.26 229.86,174.51 231.27,170.50 232.41,167.20" fill="none" stroke="#111111" stroke-width="9" stroke-linecap="round" stroke-linejoin="round" />
    
            <g transform="translate(167.20,352.80)">
              <circle r="19" fill="#ffffff" stroke="#111111" stroke-width="4" />
              <text text-anchor="middle" dominant-baseline="central" font-family="Helvetica, Arial, sans-serif"
                font-size="18" font-weight="700" fill="#111111">1</text>
            </g>
            
            <g transform="translate(232.41,167.20)">
              <circle r="19" fill="#ffffff" stroke="#111111" stroke-width="4" />
              <text text-anchor="middle" dominant-baseline="central" font-family="Helvetica, Arial, sans-serif"
                font-size="18" font-weight="700" fill="#111111">2</text>
            </g>
            
  </g>
</svg>
