<svg xmlns="http://www.w3.org/2000/svg" width="520" height="520" viewBox="0 0 520 520">
  <rect width="100%" height="100%" fill="#ffffff" />
  <g>
    <polyline points="1473.33,-606.74 1475.95,-592.80 1492.86,-474.51 1490.28,-444.94" fill="none" stroke="#bcbcbc" stroke-width="8" stroke-linecap="round" stroke-linejoin="round" /><polyline points="1129.61,379.03 1133.70,366.46 1155.36,299.84 1157.91,291.99 1160.50,283.75 1214.97,110.06 1219.35,96.09 1209.32,71.38" fill="none" stroke="#bcbcbc" stroke-width="8" stroke-linecap="round" stroke-linejoin="round" /><polyline points="753.36,224.54 752.47,214.56 770.28,114.83 772.78,102.35 774.65,95.82 779.55,70.53 785.06,39.57 791.06,12.31 797.01,-14.90 800.76,-22.57 803.21,-27.27" fill="none" stroke="#bcbcbc" stroke-width="8" stroke-linecap="round" stroke-linejoin="round" /><polyline points="856.72,-478.97 852.49,-491.88 808.73,-625.34 806.59,-630.94" fill="none" stroke="#bcbcbc" stroke-width="8" stroke-linecap="round" stroke-linejoin="round" /><polyline points="632.17,695.66 633.47,682.92 634.00,677.08 638.77,624.38 643.98,577.98 645.20,567.15 646.33,554.15 646.46,553.05 649.41,527.21 651.96,500.94 654.77,475.59 656.66,455.86 657.45,443.68 658.15,432.43 659.39,419.76" fill="none" stroke="#bcbcbc" stroke-width="8" stroke-linecap="round" stroke-linejoin="round" /><polyline points="1236.86,409.99 1239.98,400.20 1261.94,331.17 1264.44,323.32 1267.98,312.15 1270.52,304.14 1289.96,220.32" fill="none" stroke="#bcbcbc" stroke-width="8" stroke-linecap="round" stroke-linejoin="round" /><polyline points="1151.50,-955.43 1159.61,-954.18 1383.08,-919.85" fill="none" stroke="#bcbcbc" stroke-width="8" stroke-linecap="round" stroke-linejoin="round" /><polyline points="577.80,393.73 554.54,392.65 540.36,391.99 532.65,391.63 525.89,391.31 473.22,388.86 399.96,385.46 365.04,380.51 353.35,378.85 343.21,377.06 274.53,364.94 264.93,363.24 262.80,362.88 250.94,360.85 241.83,359.28 183.63,354.14 172.55,353.16 168.48,352.80 155.90,351.93 131.26,350.22" fill="none" stroke="#bcbcbc" stroke-width="8" stroke-linecap="round" stroke-linejoin="round" /><polyline points="915.73,326.25 920.24,313.43 960.83,200.89 1009.67,58.95 1012.80,50.05 1014.98,43.83 1016.75,38.72" fill="none" stroke="#bcbcbc" stroke-width="8" stroke-linecap="round" stroke-linejoin="round" /><polyline points="126.93,158.31 181.08,165.87 190.57,167.20 196.45,168.14 220.73,172.00 276.65,180.92 286.25,182.51" fill="none" stroke="#bcbcbc" stroke-width="8" stroke-linecap="round" stroke-linejoin="round" /><polyline points="1123.53,-552.04 1123.88,-547.11 1124.61,-542.13 1126.37,-538.31 1129.66,-534.06 1135.75,-528.51 1150.18,-519.73 1261.53,-449.89 1330.10,-357.96 1381.89,-230.14 1385.27,-221.70" fill="none" stroke="#bcbcbc" stroke-width="8" stroke-linecap="round" stroke-linejoin="round" /><polyline points="1105.70,-179.09 1108.01,-175.27 1108.61,-174.27 1110.52,-164.63 1123.58,-101.47 1127.73,-81.42 1130.70,-67.14 1135.32,-38.20 1137.48,-24.85 1138.97,-16.71 1140.60,-9.35 1142.55,-5.06 1145.41,-0.10 1146.94,2.25 1175.87,43.66 1191.52,68.30 1195.60,74.19" fill="none" stroke="#bcbcbc" stroke-width="8" stroke-linecap="round" stroke-linejoin="round" /><polyline points="275.19,611.80 276.73,602.32 278.16,595.47 278.54,594.56 297.80,548.78 310.07,519.02 313.80,509.60 317.75,499.61 322.03,491.02 322.73,489.35 328.60,475.16 333.14,462.60 337.03,451.08 339.50,442.94 342.27,432.88 345.47,419.39 347.89,408.45 350.79,393.18 351.40,389.77 353.35,378.85" fill="none" stroke="#bcbcbc" stroke-width="8" stroke-linecap="round" stroke-linejoin="round" /><polyline points="1208.11,-666.67 1269.50,-623.78 1277.77,-622.02 1283.83,-615.09" fill="none" stroke="#bcbcbc" stroke-width="8" stroke-linecap="round" stroke-linejoin="round" /><polyline points="950.30,-270.49 958.41,-267.37 993.64,-255.84 1075.36,-224.51 1079.94,-219.94 1082.10,-216.52" fill="none" stroke="#bcbcbc" stroke-width="8" stroke-linecap="round" stroke-linejoin="round" /><polyline points="1102.57,534.73 1108.14,520.23 1135.61,445.70 1155.03,389.39 1159.06,387.54" fill="none" stroke="#bcbcbc" stroke-width="8" stroke-linecap="round" stroke-linejoin="round" /><polyline points="714.25,440.23 718.58,430.65 719.01,429.70 726.43,404.82 738.58,363.88 741.69,353.40 744.11,345.26 744.43,340.51 743.94,330.01" fill="none" stroke="#bcbcbc" stroke-width="8" stroke-linecap="round" stroke-linejoin="round" /><polyline points="1219.19,-175.81 1212.22,-174.38 1196.44,-177.19 1194.00,-183.70 1166.65,-194.12 1160.18,-192.43 1135.51,-201.49 1131.83,-198.92" fill="none" stroke="#bcbcbc" stroke-width="8" stroke-linecap="round" stroke-linejoin="round" /><polyline points="1178.58,-1021.67 1190.97,-1018.63 1197.83,-1017.44 1360.85,-989.18" fill="none" stroke="#bcbcbc" stroke-width="8" stroke-linecap="round" stroke-linejoin="round" /><polyline points="1051.88,489.35 1058.66,470.23 1071.84,433.08 1080.36,417.25 1092.61,382.94 1097.50,369.25" fill="none" stroke="#bcbcbc" stroke-width="8" stroke-linecap="round" stroke-linejoin="round" /><polyline points="158.69,-252.62 146.88,-253.16 143.92,-249.56 123.35,-224.57 51.45,-141.52 41.33,-129.84" fill="none" stroke="#bcbcbc" stroke-width="8" stroke-linecap="round" stroke-linejoin="round" /><polyline points="789.38,-181.48 784.17,-169.95 783.54,-168.55 765.43,-121.33 747.18,-69.35 742.31,-55.49 739.55,-48.33" fill="none" stroke="#bcbcbc" stroke-width="8" stroke-linecap="round" stroke-linejoin="round" /><polyline points="1055.01,-712.03 1060.76,-704.22 1064.87,-693.49 1071.26,-678.09 1081.52,-653.86 1090.61,-632.11 1101.03,-608.23 1108.77,-589.83 1109.92,-587.19 1109.99,-587.03 1116.21,-572.47 1118.07,-568.33 1119.84,-564.39 1121.71,-560.70 1123.12,-556.95 1123.53,-552.04" fill="none" stroke="#bcbcbc" stroke-width="8" stroke-linecap="round" stroke-linejoin="round" /><polyline points="614.61,51.27 617.62,49.63 621.83,46.28 623.94,41.94 651.91,-64.14 652.76,-70.12 656.17,-81.05" fill="none" stroke="#bcbcbc" stroke-width="8" stroke-linecap="round" stroke-linejoin="round" /><polyline points="1592.87,-114.72 1596.84,-102.13 1599.63,-88.90 1594.19,-38.48 1587.91,-0.55 1584.48,12.39 1584.16,13.56 1581.16,20.54 1577.06,27.94 1567.49,40.05 1572.12,63.71 1557.13,114.52 1548.85,142.57 1531.91,188.50 1507.11,244.41 1476.82,298.00 1467.37,315.42 1450.27,344.03 1381.95,440.98 1366.98,461.15 1309.01,536.90 1275.74,574.75 1229.19,622.06 1224.88,622.50 1214.37,631.10" fill="none" stroke="#bcbcbc" stroke-width="8" stroke-linecap="round" stroke-linejoin="round" /><polyline points="749.87,714.64 768.94,655.50 772.06,645.73 776.30,639.58 785.41,612.24 788.38,602.96 826.00,485.17 829.78,473.32 832.90,462.91 877.30,323.19" fill="none" stroke="#bcbcbc" stroke-width="8" stroke-linecap="round" stroke-linejoin="round" /><polyline points="1196.63,-385.26 1213.12,-403.27 1217.98,-409.13 1251.29,-456.31" fill="none" stroke="#bcbcbc" stroke-width="8" stroke-linecap="round" stroke-linejoin="round" /><polyline points="867.12,-378.12 912.52,-362.32 915.02,-358.24 927.91,-353.92 935.57,-351.30 972.16,-338.94" fill="none" stroke="#bcbcbc" stroke-width="8" stroke-linecap="round" stroke-linejoin="round" /><polyline points="1262.83,-692.27 1283.83,-615.09 1308.14,-524.17 1311.82,-516.60 1312.41,-507.95 1328.89,-477.17 1373.38,-394.22 1383.10,-379.87 1385.92,-375.67 1452.39,-251.42 1482.93,-223.65 1487.22,-218.12 1493.26,-212.95 1551.26,-163.36 1555.20,-160.00 1565.61,-154.47" fill="none" stroke="#bcbcbc" stroke-width="8" stroke-linecap="round" stroke-linejoin="round" /><polyline points="1037.26,727.19 1181.91,643.18 1207.65,630.01 1214.37,631.10" fill="none" stroke="#bcbcbc" stroke-width="8" stroke-linecap="round" stroke-linejoin="round" /><polyline points="1194.09,607.00 1203.06,596.33 1283.64,435.58 1288.97,425.04 1293.43,414.60 1319.46,350.25 1327.21,330.86 1349.64,262.98 1364.18,175.70 1365.91,163.00" fill="none" stroke="#bcbcbc" stroke-width="8" stroke-linecap="round" stroke-linejoin="round" /><polyline points="1131.91,-338.39 1130.50,-336.95 1128.56,-330.18 1128.37,-329.51 1119.62,-295.84 1121.92,-287.06 1120.01,-279.18 1117.51,-268.86 1111.11,-261.45 1103.85,-232.04 1095.30,-225.58 1086.17,-219.32 1082.10,-216.52" fill="none" stroke="#bcbcbc" stroke-width="8" stroke-linecap="round" stroke-linejoin="round" /><polyline points="789.38,-181.48 793.10,-191.01 815.46,-248.31 820.33,-260.80 824.35,-271.09 852.91,-344.26 865.76,-374.86 867.12,-378.12 877.11,-402.28 899.53,-457.95 907.74,-481.65 909.57,-487.08 912.03,-493.25" fill="none" stroke="#bcbcbc" stroke-width="8" stroke-linecap="round" stroke-linejoin="round" /><polyline points="1039.51,-528.81 1043.83,-515.95 1185.69,-394.78 1263.09,-327.44 1378.71,-226.94 1388.80,-218.87 1393.32,-216.05 1413.39,-197.84 1440.18,-174.98 1500.95,-123.17 1520.58,-106.29 1533.60,-90.72" fill="none" stroke="#bcbcbc" stroke-width="8" stroke-linecap="round" stroke-linejoin="round" /><polyline points="1274.05,-737.58 1281.25,-742.20 1323.87,-759.91 1332.63,-769.12" fill="none" stroke="#bcbcbc" stroke-width="8" stroke-linecap="round" stroke-linejoin="round" /><polyline points="1323.29,340.66 1264.44,323.32 1157.91,291.99" fill="none" stroke="#bcbcbc" stroke-width="8" stroke-linecap="round" stroke-linejoin="round" /><polyline points="1133.32,-911.01 1141.36,-905.46 1403.30,-847.19" fill="none" stroke="#bcbcbc" stroke-width="8" stroke-linecap="round" stroke-linejoin="round" /><polyline points="1456.88,-48.64 1443.34,-78.76 1413.30,-150.41 1411.06,-156.10 1405.92,-169.18 1386.55,-218.45 1385.33,-221.65" fill="none" stroke="#bcbcbc" stroke-width="8" stroke-linecap="round" stroke-linejoin="round" /><polyline points="1055.01,-712.03 1040.46,-716.17 1029.78,-719.35 1008.06,-725.80 997.02,-728.95 990.70,-730.70 982.45,-733.07" fill="none" stroke="#bcbcbc" stroke-width="8" stroke-linecap="round" stroke-linejoin="round" /><polyline points="675.83,-317.97 675.10,-320.38 674.42,-322.06 671.42,-329.51 659.81,-356.58 648.78,-384.07 646.40,-390.57 643.65,-398.04 641.69,-404.16 638.44,-413.33 638.10,-414.30 627.54,-440.31 608.16,-489.22 603.81,-491.70 600.71,-499.63 594.53,-521.11 583.94,-547.72 581.66,-553.78" fill="none" stroke="#bcbcbc" stroke-width="8" stroke-linecap="round" stroke-linejoin="round" /><polyline points="768.94,655.50 779.95,658.87 815.56,669.72 826.72,673.12" fill="none" stroke="#bcbcbc" stroke-width="8" stroke-linecap="round" stroke-linejoin="round" /><polyline points="1433.99,-724.78 1436.07,-733.17 1435.23,-736.35 1434.21,-740.20 1427.71,-764.02 1413.21,-814.37 1405.56,-840.11 1403.30,-847.19 1383.08,-919.85 1372.17,-959.04 1360.85,-989.18 1350.62,-1016.36 1340.44,-1035.06 1330.54,-1044.93 1254.58,-1137.75 1248.96,-1144.36 1245.23,-1150.46" fill="none" stroke="#bcbcbc" stroke-width="8" stroke-linecap="round" stroke-linejoin="round" /><polyline points="1123.53,-552.04 1119.62,-550.54 1112.37,-548.54 1111.65,-548.34 1081.39,-540.60 1046.61,-530.81 1039.51,-528.81 1036.34,-527.81 1027.99,-525.12 1020.84,-523.13 989.65,-514.45 938.35,-499.88 919.23,-495.05 912.03,-493.25 877.84,-484.85 856.72,-478.97 812.00,-466.48 767.79,-454.02 762.68,-452.60 725.74,-442.35 708.69,-437.62 700.09,-433.55 683.80,-425.48 651.45,-409.06 649.20,-407.92 641.69,-404.16 637.10,-401.87 630.71,-398.52 607.98,-386.60 566.57,-363.37 531.98,-345.24 527.03,-342.65 520.42,-342.24 516.45,-340.13 515.65,-339.71 478.12,-319.14 470.26,-319.18 461.24,-314.46 458.09,-312.81 455.43,-311.42 449.16,-308.14 444.22,-296.86 422.98,-285.49 416.22,-281.87 408.92,-277.89 379.36,-261.81 364.09,-253.50 356.39,-251.28" fill="none" stroke="#bcbcbc" stroke-width="8" stroke-linecap="round" stroke-linejoin="round" /><polyline points="1548.85,142.57 1533.08,144.02 1483.82,148.53 1481.60,148.74 1478.46,149.02 1473.37,149.49 1425.61,153.87 1409.00,152.33 1389.66,157.18 1374.16,160.98 1365.91,163.00 1345.40,163.78 1327.65,162.88 1318.60,161.92 1310.90,159.59 1305.23,156.45 1284.11,141.52 1232.80,106.28 1227.96,103.00 1223.03,99.65 1219.35,96.09" fill="none" stroke="#bcbcbc" stroke-width="8" stroke-linecap="round" stroke-linejoin="round" /><polyline points="386.60,-452.43 405.22,-415.98 408.04,-405.56 423.72,-375.63 430.20,-367.07 456.42,-316.07 458.09,-312.81" fill="none" stroke="#bcbcbc" stroke-width="8" stroke-linecap="round" stroke-linejoin="round" /><polyline points="957.22,-128.27 954.43,-120.61 953.64,-118.23 950.01,-107.20 926.97,-42.93 915.54,-11.02 915.15,-9.93 910.55,-0.01 907.92,5.88" fill="none" stroke="#bcbcbc" stroke-width="8" stroke-linecap="round" stroke-linejoin="round" /><polyline points="1262.83,-692.27 1260.28,-697.74 1253.56,-698.62 1231.85,-693.64 1227.44,-694.22 1223.98,-698.85 1217.84,-727.10 1251.11,-732.25 1266.52,-736.80 1274.05,-737.58 1282.17,-708.74" fill="none" stroke="#bcbcbc" stroke-width="8" stroke-linecap="round" stroke-linejoin="round" /><polyline points="1383.10,-379.87 1391.68,-384.68 1434.73,-410.63 1446.24,-417.48 1466.38,-429.49 1499.52,-450.91 1507.25,-456.47 1565.37,-492.53" fill="none" stroke="#bcbcbc" stroke-width="8" stroke-linecap="round" stroke-linejoin="round" /><polyline points="1586.28,-209.57 1571.58,-213.95 1563.04,-220.96 1530.39,-249.21 1529.28,-250.20 1521.39,-257.24 1516.75,-265.47 1434.73,-410.63" fill="none" stroke="#bcbcbc" stroke-width="8" stroke-linecap="round" stroke-linejoin="round" /><polyline points="660.70,-221.08 789.38,-181.48 799.88,-178.16 895.91,-147.72 897.92,-147.08 912.30,-142.52 919.37,-140.28 928.57,-137.76 947.52,-131.35 957.22,-128.27 965.94,-125.50 1037.40,-102.84 1112.84,-79.14 1119.08,-77.18 1127.73,-81.42" fill="none" stroke="#bcbcbc" stroke-width="8" stroke-linecap="round" stroke-linejoin="round" /><polyline points="1039.06,-856.32 1094.81,-907.53 1104.24,-916.20" fill="none" stroke="#bcbcbc" stroke-width="8" stroke-linecap="round" stroke-linejoin="round" /><polyline points="105.66,-29.94 310.20,-8.01" fill="none" stroke="#bcbcbc" stroke-width="8" stroke-linecap="round" stroke-linejoin="round" /><polyline points="722.68,-600.78 765.67,-616.15 810.01,-632.18 837.56,-642.89 921.68,-673.48 946.09,-681.92 951.19,-683.69 957.31,-685.79 964.17,-688.15 965.01,-688.44 978.87,-694.01 984.89,-696.43" fill="none" stroke="#bcbcbc" stroke-width="8" stroke-linecap="round" stroke-linejoin="round" /><polyline points="1011.41,439.42 1051.88,489.35 1076.66,514.29 1087.39,522.01 1102.57,534.73 1116.84,546.71 1129.09,558.66 1129.39,564.74" fill="none" stroke="#bcbcbc" stroke-width="8" stroke-linecap="round" stroke-linejoin="round" /><polyline points="1055.01,-712.03 1070.87,-751.78 1096.54,-817.23 1133.32,-911.01 1151.50,-955.43 1178.58,-1021.67 1200.79,-1075.92 1204.77,-1083.12 1224.30,-1115.05 1225.56,-1117.11 1232.70,-1131.17 1245.23,-1150.46 1252.23,-1161.23 1262.13,-1176.47" fill="none" stroke="#bcbcbc" stroke-width="8" stroke-linecap="round" stroke-linejoin="round" /><polyline points="680.81,350.88 678.21,352.96 676.50,355.43 673.00,365.75 670.58,373.20 659.41,406.61 657.87,411.43 656.91,414.42 646.65,411.48 621.68,403.11 596.93,394.81 577.80,393.73" fill="none" stroke="#bcbcbc" stroke-width="8" stroke-linecap="round" stroke-linejoin="round" /><polyline points="191.72,583.40 232.51,478.08 237.05,466.61 241.12,455.57 246.03,442.22 252.06,421.23 258.35,395.15 260.93,376.46 262.80,362.88 265.44,352.85 275.04,277.55 286.25,182.51 292.06,137.21 298.53,83.99 310.20,-8.01 312.05,-23.66 323.84,-119.87 323.85,-125.23 326.46,-153.78 333.98,-214.08 335.86,-224.60 337.83,-230.49 340.91,-236.99 343.90,-242.03 350.50,-249.18 356.40,-251.21" fill="none" stroke="#bcbcbc" stroke-width="8" stroke-linecap="round" stroke-linejoin="round" /><polyline points="1082.10,-216.52 1084.33,-212.99 1091.81,-201.31 1103.00,-183.37 1105.70,-179.09 1110.17,-182.48 1131.83,-198.92" fill="none" stroke="#bcbcbc" stroke-width="8" stroke-linecap="round" stroke-linejoin="round" /><polyline points="1096.54,-817.23 1316.91,-777.40 1340.05,-765.22 1426.39,-722.42 1433.99,-724.78" fill="none" stroke="#bcbcbc" stroke-width="8" stroke-linecap="round" stroke-linejoin="round" /><polyline points="675.83,-317.97 671.93,-312.27 636.77,-295.11 610.95,-262.29 583.08,-245.04 564.03,-230.66 545.85,-215.83 536.53,-207.33 520.06,-186.45 501.65,-160.06 498.62,-155.17" fill="none" stroke="#bcbcbc" stroke-width="8" stroke-linecap="round" stroke-linejoin="round" /><polyline points="713.00,-294.43 711.48,-291.04 708.15,-286.17 701.85,-278.42 664.71,-231.51 645.06,-178.60 545.89,-215.87" fill="none" stroke="#bcbcbc" stroke-width="8" stroke-linecap="round" stroke-linejoin="round" /><polyline points="564.03,-230.66 560.19,-242.28 543.59,-292.52 537.15,-302.45 526.37,-334.80 525.44,-337.59 527.03,-342.65 524.44,-350.90 472.59,-516.45" fill="none" stroke="#bcbcbc" stroke-width="8" stroke-linecap="round" stroke-linejoin="round" /><polyline points="1171.62,-1133.98 1212.61,-1132.90 1214.52,-1132.84 1222.37,-1132.62 1232.70,-1131.17" fill="none" stroke="#bcbcbc" stroke-width="8" stroke-linecap="round" stroke-linejoin="round" /><polyline points="960.83,200.89 946.84,200.72 828.36,216.63 819.82,217.53 810.05,218.56 753.36,224.54 676.97,232.61 636.47,236.88 614.07,239.24 595.88,241.45 586.54,242.59 576.02,243.87 525.20,250.04 513.02,251.52 475.49,255.62 275.04,277.55" fill="none" stroke="#bcbcbc" stroke-width="8" stroke-linecap="round" stroke-linejoin="round" /><polyline points="785.41,612.24 774.91,608.87 725.89,593.09 715.98,589.90 707.38,587.13 655.44,570.44 645.20,567.15 631.65,562.79 548.97,536.18 539.66,533.19" fill="none" stroke="#bcbcbc" stroke-width="8" stroke-linecap="round" stroke-linejoin="round" /><polyline points="990.41,-380.26 1018.92,-371.38 1123.20,-339.18 1124.18,-338.88 1131.91,-338.39" fill="none" stroke="#bcbcbc" stroke-width="8" stroke-linecap="round" stroke-linejoin="round" /><polyline points="1283.83,-615.09 1425.68,-612.60" fill="none" stroke="#bcbcbc" stroke-width="8" stroke-linecap="round" stroke-linejoin="round" /><polyline points="1214.37,631.10 1194.09,607.00 1185.58,597.10 1178.27,590.27 1168.54,583.00 1148.64,571.07 1129.39,564.74 1090.23,552.64 1058.19,542.48 1076.66,514.29" fill="none" stroke="#bcbcbc" stroke-width="8" stroke-linecap="round" stroke-linejoin="round" /><polyline points="1011.41,439.42 983.17,404.57 977.80,397.94 949.36,358.76 942.92,346.80 944.47,332.56 953.04,332.47 974.20,336.54 1006.38,342.74" fill="none" stroke="#bcbcbc" stroke-width="8" stroke-linecap="round" stroke-linejoin="round" /><polyline points="642.02,160.19 647.23,171.39 676.97,232.61 721.19,323.63 726.83,335.24" fill="none" stroke="#bcbcbc" stroke-width="8" stroke-linecap="round" stroke-linejoin="round" /><polyline points="165.72,437.45 176.36,441.80 226.17,462.17 237.05,466.61 248.49,471.29 307.14,495.27 317.75,499.61" fill="none" stroke="#bcbcbc" stroke-width="8" stroke-linecap="round" stroke-linejoin="round" /><polyline points="666.50,69.43 770.28,114.83" fill="none" stroke="#bcbcbc" stroke-width="8" stroke-linecap="round" stroke-linejoin="round" /><polyline points="1131.91,-338.39 1147.72,-337.56 1148.73,-336.67 1155.82,-330.37 1166.24,-321.07 1168.17,-317.33 1204.10,-285.86 1206.76,-280.84 1232.02,-258.55 1238.38,-256.61 1258.04,-239.40 1262.44,-237.38 1292.08,-212.24 1298.68,-206.39 1302.32,-200.60" fill="none" stroke="#bcbcbc" stroke-width="8" stroke-linecap="round" stroke-linejoin="round" /><polyline points="136.42,69.53 298.53,83.99" fill="none" stroke="#bcbcbc" stroke-width="8" stroke-linecap="round" stroke-linejoin="round" /><polyline points="498.37,673.11 503.39,662.42 504.68,657.66 511.72,631.71 537.22,541.80 539.66,533.19 542.25,523.75 553.80,481.51 573.31,410.17 577.80,393.73" fill="none" stroke="#bcbcbc" stroke-width="8" stroke-linecap="round" stroke-linejoin="round" /><polyline points="642.02,160.19 666.50,69.43 614.61,51.27 601.02,59.30 594.83,64.01 590.24,70.21 587.01,78.40 575.08,122.51 584.71,127.41 594.43,129.77 615.94,135.37 632.04,140.49 642.02,160.19" fill="none" stroke="#bcbcbc" stroke-width="8" stroke-linecap="round" stroke-linejoin="round" /><polyline points="575.08,122.51 563.71,120.92 298.53,83.99" fill="none" stroke="#bcbcbc" stroke-width="8" stroke-linecap="round" stroke-linejoin="round" /><polyline points="1006.38,342.74 1030.98,348.11 1097.50,369.25 1116.10,375.13 1160.25,387.88 1204.73,400.71 1237.65,410.22 1290.31,425.42 1301.19,428.57 1327.76,437.47 1371.51,449.13 1375.37,449.85" fill="none" stroke="#bcbcbc" stroke-width="8" stroke-linecap="round" stroke-linejoin="round" /><polyline points="1037.59,727.00 1028.61,729.26 1018.91,756.30 1003.86,752.03 935.44,728.71 927.20,726.95 908.88,725.64 826.03,725.97 807.76,723.65 766.51,717.34 749.87,714.64 631.86,695.61 586.17,688.32 499.02,673.22 484.95,670.43 288.27,615.46 275.86,611.99 191.72,583.40 171.02,576.05 119.32,554.63 89.85,543.48" fill="none" stroke="#bcbcbc" stroke-width="8" stroke-linecap="round" stroke-linejoin="round" /><polyline points="1217.84,-727.10 1209.32,-728.86 1095.65,-715.42 1055.01,-712.03" fill="none" stroke="#bcbcbc" stroke-width="8" stroke-linecap="round" stroke-linejoin="round" /><polyline points="1006.38,342.73 1010.37,336.07 1034.22,274.81 1060.87,182.18 1067.67,162.23 1071.31,156.80 1097.04,74.21 1098.32,64.35 1099.30,57.90" fill="none" stroke="#bcbcbc" stroke-width="8" stroke-linecap="round" stroke-linejoin="round" /><polyline points="1123.53,-552.04 1126.25,-553.07 1129.93,-556.00 1135.52,-562.54 1208.11,-666.67 1227.44,-694.22" fill="none" stroke="#bcbcbc" stroke-width="8" stroke-linecap="round" stroke-linejoin="round" /><polyline points="1446.57,-169.50 1448.06,-173.77 1484.54,-216.69 1487.22,-218.12 1493.56,-226.79 1514.78,-251.17 1521.39,-257.24" fill="none" stroke="#bcbcbc" stroke-width="8" stroke-linecap="round" stroke-linejoin="round" /><polyline points="1478.46,149.02 1477.95,143.28 1477.56,138.84 1475.64,130.34 1473.34,124.80 1470.47,110.24 1470.21,104.97 1468.27,93.19 1459.59,88.65 1452.65,91.31 1440.22,94.28 1430.39,95.82 1420.96,98.09 1407.94,101.06 1402.00,102.42" fill="none" stroke="#bcbcbc" stroke-width="8" stroke-linecap="round" stroke-linejoin="round" /><polyline points="519.90,-61.76 546.43,-123.96 547.91,-128.00" fill="none" stroke="#bcbcbc" stroke-width="8" stroke-linecap="round" stroke-linejoin="round" /><polyline points="1219.19,-175.81 1231.98,-180.77 1238.66,-183.36 1243.84,-188.59 1265.16,-193.85 1272.31,-192.02 1287.74,-196.00 1299.52,-199.03 1302.32,-200.60 1313.74,-203.39 1372.10,-217.69 1385.33,-221.65" fill="none" stroke="#bcbcbc" stroke-width="8" stroke-linecap="round" stroke-linejoin="round" /><polyline points="680.81,350.88 708.35,340.88 717.56,338.07 726.83,335.24 743.94,330.01 757.25,328.10 802.71,323.12 811.85,322.63 852.52,322.97 877.30,323.19 886.62,322.71 901.55,324.22 906.21,324.89 915.73,326.25 944.47,332.56" fill="none" stroke="#bcbcbc" stroke-width="8" stroke-linecap="round" stroke-linejoin="round" /><polyline points="812.00,-466.48 807.44,-481.90 790.50,-539.18 769.92,-604.49 765.67,-616.15 761.35,-627.08 755.90,-642.82" fill="none" stroke="#bcbcbc" stroke-width="8" stroke-linecap="round" stroke-linejoin="round" /><polyline points="762.72,457.06 766.34,445.63 802.94,330.22 802.71,323.12" fill="none" stroke="#bcbcbc" stroke-width="8" stroke-linecap="round" stroke-linejoin="round" /><polyline points="811.85,322.63 819.09,225.45 819.82,217.53 820.93,208.31 820.95,207.89 821.42,196.62 823.84,166.03 825.20,151.78 827.07,135.60 828.77,123.95 830.29,116.63 832.21,111.10 835.97,98.64 843.75,72.69 853.64,39.20 864.54,4.95 866.76,-2.03 868.55,-7.10" fill="none" stroke="#bcbcbc" stroke-width="8" stroke-linecap="round" stroke-linejoin="round" /><polyline points="575.08,122.51 573.15,131.12 573.48,133.87 585.29,232.18 586.54,242.59 586.00,253.30 582.91,314.44 581.61,339.98 580.95,353.16 579.76,376.64 579.14,388.87 577.80,393.73" fill="none" stroke="#bcbcbc" stroke-width="8" stroke-linecap="round" stroke-linejoin="round" /><polyline points="519.90,-61.76 476.96,-74.52 471.51,-78.02 444.79,-85.81 437.28,-85.73 403.70,-95.84 398.28,-99.84 367.73,-109.10 330.24,-119.32 330.06,-119.34 323.84,-119.87" fill="none" stroke="#bcbcbc" stroke-width="8" stroke-linecap="round" stroke-linejoin="round" /><polyline points="1302.32,-200.60 1303.81,-198.64 1310.04,-189.36 1321.55,-172.21 1332.38,-161.36 1353.21,-137.98 1349.69,-116.37 1347.90,-108.27 1345.42,-104.85 1350.64,-97.12 1358.71,-80.50 1374.86,-49.36 1382.81,-34.02 1387.75,-20.24 1389.98,-13.84" fill="none" stroke="#bcbcbc" stroke-width="8" stroke-linecap="round" stroke-linejoin="round" /><polyline points="1411.06,-156.10 1405.07,-154.24 1365.65,-141.97 1359.99,-140.16 1353.21,-137.98" fill="none" stroke="#bcbcbc" stroke-width="8" stroke-linecap="round" stroke-linejoin="round" /><polyline points="1127.73,-81.42 1140.06,-85.42 1229.55,-131.11 1241.53,-136.96 1283.71,-149.14 1324.61,-160.64 1332.38,-161.36" fill="none" stroke="#bcbcbc" stroke-width="8" stroke-linecap="round" stroke-linejoin="round" /><polyline points="1137.48,-24.85 1240.66,-72.86 1245.00,-75.73 1255.09,-78.67 1323.84,-98.67 1334.26,-102.66 1345.42,-104.85" fill="none" stroke="#bcbcbc" stroke-width="8" stroke-linecap="round" stroke-linejoin="round" /><polyline points="1116.43,-1031.32 1158.19,-1026.16 1162.39,-1025.64 1178.58,-1021.67" fill="none" stroke="#bcbcbc" stroke-width="8" stroke-linecap="round" stroke-linejoin="round" /><polyline points="1473.33,-606.74 1480.74,-608.29 1508.41,-594.72 1512.06,-591.12 1564.01,-503.19 1565.37,-492.53 1572.13,-486.90 1571.06,-483.01 1570.89,-476.67 1571.83,-467.81 1585.59,-411.27 1586.80,-372.11 1588.73,-309.57 1591.97,-225.41 1578.79,-188.74 1570.30,-166.38 1557.91,-134.87 1554.32,-125.76 1551.99,-123.21 1548.25,-98.83" fill="none" stroke="#bcbcbc" stroke-width="8" stroke-linecap="round" stroke-linejoin="round" /><polyline points="1569.38,49.70 1556.74,44.20 1525.17,22.17 1483.51,-7.10 1460.60,-25.62 1445.15,-42.17" fill="none" stroke="#bcbcbc" stroke-width="8" stroke-linecap="round" stroke-linejoin="round" /><polyline points="1058.19,542.48 1045.78,538.54 1025.65,532.16 1016.04,529.11 1004.75,525.54 990.49,521.02 977.60,516.93 964.86,512.88 908.02,494.85 898.06,491.69 885.70,487.78 882.97,486.91 850.47,478.33 841.29,476.11 829.78,473.32 817.74,470.40 774.36,459.88 762.72,457.06 750.22,452.72 724.10,443.65 714.25,440.23 705.45,437.37 664.54,422.83 659.39,419.76 656.91,414.42" fill="none" stroke="#bcbcbc" stroke-width="8" stroke-linecap="round" stroke-linejoin="round" /><polyline points="1245.00,-75.73 1241.99,-86.53 1233.01,-118.73 1229.55,-131.11 1224.56,-140.36 1224.10,-142.08 1221.16,-152.98 1224.58,-157.81 1220.47,-171.55 1219.19,-175.81" fill="none" stroke="#bcbcbc" stroke-width="8" stroke-linecap="round" stroke-linejoin="round" /><polyline points="1229.98,-469.72 1238.52,-473.74 1285.16,-499.45 1311.82,-516.60 1330.63,-529.42 1334.78,-532.52 1349.91,-543.03 1365.60,-554.62 1375.53,-561.84 1387.37,-570.50 1428.52,-589.07 1433.85,-588.78 1441.65,-592.47 1473.33,-606.74" fill="none" stroke="#bcbcbc" stroke-width="8" stroke-linecap="round" stroke-linejoin="round" /><polyline points="713.00,-294.43 719.73,-291.70 724.18,-290.33 807.59,-264.72 820.33,-260.80" fill="none" stroke="#bcbcbc" stroke-width="8" stroke-linecap="round" stroke-linejoin="round" /><polyline points="117.23,-106.87 57.63,-124.91" fill="none" stroke="#bcbcbc" stroke-width="8" stroke-linecap="round" stroke-linejoin="round" /><polyline points="1079.80,-947.16 1094.58,-928.44 1096.78,-925.65 1104.24,-916.20 1112.74,-915.20 1130.22,-913.15 1133.32,-911.01" fill="none" stroke="#bcbcbc" stroke-width="8" stroke-linecap="round" stroke-linejoin="round" /><polyline points="1592.87,-114.72 1569.46,-110.35 1545.45,-97.31 1523.20,-84.92 1502.15,-74.40 1476.72,-60.59 1458.30,-49.41 1421.91,-29.90 1279.84,41.57 1243.01,57.79 1218.67,68.32 1206.61,72.26 1196.64,74.13 1180.30,75.11 1157.06,71.83 1099.08,57.90 1016.75,38.72 908.45,6.06 868.55,-7.10 803.21,-27.27 740.73,-47.87 649.08,-83.83 603.26,-103.56 548.02,-128.11 456.37,-178.31 434.89,-192.56 380.52,-226.76 357.71,-249.56 323.51,-293.85 267.17,-351.94 245.02,-371.45" fill="none" stroke="#bcbcbc" stroke-width="8" stroke-linecap="round" stroke-linejoin="round" /><polyline points="1148.64,571.07 1149.60,565.71 1153.07,556.97 1185.57,480.93 1197.84,452.43 1212.31,416.91 1215.84,403.91" fill="none" stroke="#bcbcbc" stroke-width="8" stroke-linecap="round" stroke-linejoin="round" /><polyline points="525.20,250.04 488.29,232.17 404.29,191.52 301.25,141.66 292.06,137.21" fill="none" stroke="#bcbcbc" stroke-width="8" stroke-linecap="round" stroke-linejoin="round" /><polyline points="1131.91,-338.39 1141.23,-347.94 1166.02,-373.31 1185.69,-394.78" fill="none" stroke="#bcbcbc" stroke-width="8" stroke-linecap="round" stroke-linejoin="round" /><polyline points="416.22,-281.87 405.98,-295.43 358.00,-358.96 289.50,-414.39" fill="none" stroke="#bcbcbc" stroke-width="8" stroke-linecap="round" stroke-linejoin="round" /><polyline points="118.95,554.47 128.32,532.26 158.10,458.01 161.71,448.26 165.72,437.45 167.24,433.55 167.64,427.44 171.45,369.72 172.55,353.16" fill="none" stroke="#bcbcbc" stroke-width="8" stroke-linecap="round" stroke-linejoin="round" /><polyline points="98.63,-42.39 117.23,-106.87 141.76,-191.92 144.79,-202.45 148.17,-214.41 155.73,-241.19 156.52,-244.01 158.69,-252.62 162.14,-262.35 162.98,-264.71 167.34,-275.51 175.90,-294.40 178.46,-299.82" fill="none" stroke="#bcbcbc" stroke-width="8" stroke-linecap="round" stroke-linejoin="round" /><polyline points="144.79,-202.45 182.42,-192.83 262.11,-172.35 307.51,-158.21 326.46,-153.78" fill="none" stroke="#bcbcbc" stroke-width="8" stroke-linecap="round" stroke-linejoin="round" /><polyline points="919.23,-495.05 920.51,-502.88 921.79,-511.00 927.31,-538.19 941.10,-601.48 952.43,-658.10 954.50,-669.84 957.31,-685.79 957.31,-685.80" fill="none" stroke="#bcbcbc" stroke-width="8" stroke-linecap="round" stroke-linejoin="round" /><polyline points="807.83,723.66 824.63,680.81 826.72,673.12 893.38,503.90 898.06,491.69 901.86,481.34 941.69,365.45 949.36,358.76" fill="none" stroke="#bcbcbc" stroke-width="8" stroke-linecap="round" stroke-linejoin="round" /><polyline points="1036.34,-527.81 1036.34,-527.82 1033.98,-540.21 1033.61,-541.72 1027.85,-565.14 1027.86,-565.21 1023.93,-581.09 1007.29,-638.10 1005.20,-644.20 993.96,-674.74 990.31,-683.86 987.95,-689.74 984.90,-696.42 984.89,-696.43 984.89,-696.46 982.66,-721.01 982.45,-733.07" fill="none" stroke="#bcbcbc" stroke-width="8" stroke-linecap="round" stroke-linejoin="round" /><polyline points="1011.41,439.42 1007.13,444.04 1000.76,451.63 982.80,502.27 977.60,516.93" fill="none" stroke="#bcbcbc" stroke-width="8" stroke-linecap="round" stroke-linejoin="round" /><polyline points="713.00,-294.43 715.46,-301.08 716.01,-302.62 727.68,-335.20 732.05,-348.92 767.79,-454.02" fill="none" stroke="#bcbcbc" stroke-width="8" stroke-linecap="round" stroke-linejoin="round" /><polyline points="897.92,-147.08 901.56,-156.77 911.44,-183.01 915.62,-194.10 918.44,-201.61 926.37,-222.66 931.61,-236.57 932.31,-238.44 945.00,-272.13 950.30,-270.49 953.17,-278.31 958.25,-292.15 957.28,-298.43 970.78,-335.17 972.16,-338.94 974.72,-341.30 976.87,-343.27 990.41,-380.26 992.36,-390.39 1011.78,-444.33 1016.37,-447.92 1025.71,-474.35 1024.05,-478.41 1032.23,-503.08 1027.99,-525.12" fill="none" stroke="#bcbcbc" stroke-width="8" stroke-linecap="round" stroke-linejoin="round" /><polyline points="1245.23,-1150.46 1239.79,-1159.39 1211.21,-1206.29" fill="none" stroke="#bcbcbc" stroke-width="8" stroke-linecap="round" stroke-linejoin="round" /><polyline points="1334.78,-532.52 1465.98,-448.16 1466.01,-448.10 1466.01,-448.09 1490.28,-444.94" fill="none" stroke="#bcbcbc" stroke-width="8" stroke-linecap="round" stroke-linejoin="round" /><polyline points="1282.17,-708.74 1421.76,-638.68 1425.97,-635.53 1425.69,-612.60 1428.51,-589.07" fill="none" stroke="#bcbcbc" stroke-width="8" stroke-linecap="round" stroke-linejoin="round" /><polyline points="1016.04,529.11 1011.02,544.43 990.68,606.45 956.09,710.91 953.63,718.32 951.15,725.83 950.45,733.83" fill="none" stroke="#bcbcbc" stroke-width="8" stroke-linecap="round" stroke-linejoin="round" /><polyline points="1409.00,152.33 1409.83,144.55 1410.01,137.29 1409.96,137.04 1405.01,115.66 1402.98,106.73 1402.00,102.42 1401.00,98.01 1395.57,74.09 1384.97,26.29 1377.26,-2.45 1376.16,-6.89" fill="none" stroke="#bcbcbc" stroke-width="8" stroke-linecap="round" stroke-linejoin="round" /><polyline points="715.98,589.90 719.44,580.06 758.31,469.60 762.72,457.06" fill="none" stroke="#bcbcbc" stroke-width="8" stroke-linecap="round" stroke-linejoin="round" /><polyline points="1588.73,-309.58 1577.30,-312.80 1499.63,-431.97 1490.28,-444.94" fill="none" stroke="#bcbcbc" stroke-width="8" stroke-linecap="round" stroke-linejoin="round" /><polyline points="312.05,-23.66 595.09,44.15 614.61,51.27" fill="none" stroke="#bcbcbc" stroke-width="8" stroke-linecap="round" stroke-linejoin="round" /><polyline points="1204.77,-1083.12 1315.02,-1042.28 1330.54,-1044.93" fill="none" stroke="#bcbcbc" stroke-width="8" stroke-linecap="round" stroke-linejoin="round" />
    <polyline points="168.48,352.80 167.45,345.56 167.20,337.71 168.74,321.88 172.28,292.99 174.63,283.28 178.46,248.22 179.16,240.41 180.28,230.37 181.11,222.91 182.68,214.46 185.59,191.72 187.61,174.32 190.57,167.20" fill="none" stroke="#ffffff" stroke-width="16" stroke-linecap="round" stroke-linejoin="round" />
    <polyline points="168.48,352.80 167.45,345.56 167.20,337.71 168.74,321.88 172.28,292.99 174.63,283.28 178.46,248.22 179.16,240.41 180.28,230.37 181.11,222.91 182.68,214.46 185.59,191.72 187.61,174.32 190.57,167.20" fill="none" stroke="#111111" stroke-width="9" stroke-linecap="round" stroke-linejoin="round" />
    
            <g transform="translate(168.48,352.80)">
              <circle r="19" fill="#ffffff" stroke="#111111" stroke-width="4" />
              <text text-anchor="middle" dominant-baseline="central" font-family="Helvetica, Arial, sans-serif"
                font-size="18" font-weight="700" fill="#111111">1</text>
            </g>
            
            <g transform="translate(190.57,167.20)">
              <circle r="19" fill="#ffffff" stroke="#111111" stroke-width="4" />
              <text text-anchor="middle" dominant-baseline="central" font-family="Helvetica, Arial, sans-serif"
                font-size="18" font-weight="700" fill="#111111">2</text>
            </g>
            
  </g>
</svg>
