<svg xmlns="http://www.w3.org/2000/svg" width="520" height="520" viewBox="0 0 520 520">
  <rect width="100%" height="100%" fill="#ffffff" />
  <g>
    <polyline points="1735.66,-566.64 1738.71,-550.40 1758.41,-412.60 1755.40,-378.15" fill="none" stroke="#bcbcbc" stroke-width="8" stroke-linecap="round" stroke-linejoin="round" /><polyline points="1335.25,581.73 1340.01,567.08 1365.25,489.48 1368.22,480.33 1371.23,470.73 1434.68,268.39 1439.79,252.12 1428.10,223.33" fill="none" stroke="#bcbcbc" stroke-width="8" stroke-linecap="round" stroke-linejoin="round" /><polyline points="896.94,401.76 895.92,390.14 916.66,273.95 919.57,259.42 921.74,251.81 927.45,222.34 933.87,186.28 940.86,154.52 947.80,122.83 952.16,113.89 955.02,108.42" fill="none" stroke="#bcbcbc" stroke-width="8" stroke-linecap="round" stroke-linejoin="round" /><polyline points="1017.36,-417.80 1012.42,-432.83 961.44,-588.31 958.96,-594.83" fill="none" stroke="#bcbcbc" stroke-width="8" stroke-linecap="round" stroke-linejoin="round" /><polyline points="755.76,950.58 757.29,935.74 757.90,928.94 763.45,867.55 769.53,813.50 770.95,800.87 772.27,785.73 772.41,784.46 775.86,754.35 778.83,723.75 782.10,694.22 784.30,671.23 785.22,657.04 786.03,643.94 787.48,629.18" fill="none" stroke="#bcbcbc" stroke-width="8" stroke-linecap="round" stroke-linejoin="round" /><polyline points="1460.19,617.80 1463.82,606.39 1489.41,525.97 1492.31,516.83 1496.44,503.82 1499.40,494.49 1522.05,396.84" fill="none" stroke="#bcbcbc" stroke-width="8" stroke-linecap="round" stroke-linejoin="round" /><polyline points="1360.75,-972.84 1370.20,-971.39 1630.53,-931.39" fill="none" stroke="#bcbcbc" stroke-width="8" stroke-linecap="round" stroke-linejoin="round" /><polyline points="692.43,598.85 665.34,597.59 648.81,596.82 639.84,596.40 631.96,596.04 570.60,593.18 485.26,589.22 444.58,583.45 430.97,581.52 419.15,579.43 339.14,565.31 327.96,563.34 325.48,562.91 311.67,560.54 301.05,558.73 233.26,552.73 220.34,551.59 215.61,551.17 200.95,550.16 172.25,548.17" fill="none" stroke="#bcbcbc" stroke-width="8" stroke-linecap="round" stroke-linejoin="round" /><polyline points="1086.09,520.24 1091.34,505.30 1138.64,374.21 1195.53,208.85 1199.18,198.48 1201.72,191.24 1203.78,185.29" fill="none" stroke="#bcbcbc" stroke-width="8" stroke-linecap="round" stroke-linejoin="round" /><polyline points="215.61,551.17 214.40,542.74 214.11,533.59 215.91,515.15 220.03,481.49 222.77,470.19 227.23,429.34 228.04,420.24 229.35,408.55 230.32,399.86 232.15,390.01 235.53,363.52 237.89,343.25 241.34,334.96" fill="none" stroke="#bcbcbc" stroke-width="8" stroke-linecap="round" stroke-linejoin="round" /><polyline points="1328.17,-502.91 1328.58,-497.18 1329.43,-491.37 1331.48,-486.92 1335.31,-481.97 1342.41,-475.51 1359.22,-465.28 1488.92,-383.91 1568.81,-276.82 1629.14,-127.92 1633.08,-118.08" fill="none" stroke="#bcbcbc" stroke-width="8" stroke-linecap="round" stroke-linejoin="round" /><polyline points="1307.40,-68.44 1310.09,-64.00 1310.79,-62.84 1313.01,-51.61 1328.23,21.97 1333.06,45.33 1336.52,61.96 1341.90,95.68 1344.42,111.23 1346.16,120.72 1348.06,129.28 1350.33,134.28 1353.66,140.07 1355.44,142.80 1389.14,191.04 1407.37,219.75 1412.12,226.61" fill="none" stroke="#bcbcbc" stroke-width="8" stroke-linecap="round" stroke-linejoin="round" /><polyline points="339.92,852.89 341.71,841.85 343.37,833.87 343.82,832.81 366.25,779.48 380.54,744.81 384.89,733.83 389.49,722.20 394.48,712.20 395.29,710.24 402.13,693.71 407.42,679.08 411.95,665.66 414.83,656.18 418.06,644.46 421.78,628.75 424.61,616.00 427.98,598.21 428.69,594.24 430.97,581.52" fill="none" stroke="#bcbcbc" stroke-width="8" stroke-linecap="round" stroke-linejoin="round" /><polyline points="1426.69,-636.46 1498.22,-586.48 1507.85,-584.44 1514.90,-576.37" fill="none" stroke="#bcbcbc" stroke-width="8" stroke-linecap="round" stroke-linejoin="round" /><polyline points="1126.37,-174.92 1135.82,-171.29 1176.86,-157.86 1272.05,-121.36 1277.39,-116.03 1279.90,-112.06" fill="none" stroke="#bcbcbc" stroke-width="8" stroke-linecap="round" stroke-linejoin="round" /><polyline points="1303.75,763.11 1310.24,746.22 1342.24,659.40 1364.87,593.80 1369.56,591.64" fill="none" stroke="#bcbcbc" stroke-width="8" stroke-linecap="round" stroke-linejoin="round" /><polyline points="851.39,653.03 856.44,641.86 856.94,640.76 865.58,611.78 879.73,564.07 883.35,551.87 886.17,542.38 886.55,536.86 885.97,524.63" fill="none" stroke="#bcbcbc" stroke-width="8" stroke-linecap="round" stroke-linejoin="round" /><polyline points="1439.60,-64.63 1431.49,-62.96 1413.10,-66.23 1410.26,-73.81 1378.40,-85.96 1370.86,-83.99 1342.12,-94.54 1337.84,-91.55" fill="none" stroke="#bcbcbc" stroke-width="8" stroke-linecap="round" stroke-linejoin="round" /><polyline points="1392.30,-1050.00 1406.74,-1046.47 1414.72,-1045.08 1604.62,-1012.16" fill="none" stroke="#bcbcbc" stroke-width="8" stroke-linecap="round" stroke-linejoin="round" /><polyline points="1244.70,710.24 1252.60,687.97 1267.95,644.69 1277.87,626.25 1292.15,586.29 1297.85,570.34" fill="none" stroke="#bcbcbc" stroke-width="8" stroke-linecap="round" stroke-linejoin="round" /><polyline points="204.20,-154.10 190.44,-154.73 187.00,-150.55 163.03,-121.43 79.27,-24.68 67.49,-11.07" fill="none" stroke="#bcbcbc" stroke-width="8" stroke-linecap="round" stroke-linejoin="round" /><polyline points="938.91,-71.24 932.84,-57.80 932.11,-56.17 911.01,-1.16 889.75,59.39 884.08,75.54 880.86,83.87" fill="none" stroke="#bcbcbc" stroke-width="8" stroke-linecap="round" stroke-linejoin="round" /><polyline points="1248.34,-689.29 1255.04,-680.20 1259.83,-667.70 1267.28,-649.76 1279.23,-621.53 1289.81,-596.20 1301.96,-568.38 1310.97,-546.94 1312.31,-543.86 1312.39,-543.67 1319.64,-526.71 1321.81,-521.90 1323.87,-517.31 1326.05,-513.01 1327.69,-508.64 1328.17,-502.91" fill="none" stroke="#bcbcbc" stroke-width="8" stroke-linecap="round" stroke-linejoin="round" /><polyline points="735.31,199.91 738.82,198.00 743.72,194.10 746.18,189.04 778.77,65.47 779.75,58.50 783.73,45.76" fill="none" stroke="#bcbcbc" stroke-width="8" stroke-linecap="round" stroke-linejoin="round" /><polyline points="1874.91,6.54 1879.54,21.21 1882.79,36.62 1876.46,95.36 1869.13,139.54 1865.14,154.61 1864.77,155.97 1861.27,164.11 1856.50,172.73 1845.35,186.83 1850.74,214.40 1833.28,273.59 1823.63,306.27 1803.90,359.77 1775.01,424.91 1739.73,487.33 1728.71,507.62 1708.79,540.95 1629.21,653.90 1611.77,677.40 1544.24,765.63 1505.48,809.74 1451.25,864.85 1446.23,865.36 1433.99,875.37" fill="none" stroke="#bcbcbc" stroke-width="8" stroke-linecap="round" stroke-linejoin="round" /><polyline points="892.89,972.69 915.10,903.80 918.74,892.42 923.67,885.25 934.28,853.41 937.74,842.59 981.57,705.38 985.97,691.57 989.61,679.45 1041.33,516.67" fill="none" stroke="#bcbcbc" stroke-width="8" stroke-linecap="round" stroke-linejoin="round" /><polyline points="1413.33,-308.62 1432.53,-329.61 1438.20,-336.43 1477.00,-391.39" fill="none" stroke="#bcbcbc" stroke-width="8" stroke-linecap="round" stroke-linejoin="round" /><polyline points="1029.46,-300.31 1082.35,-281.90 1085.27,-277.15 1100.29,-272.12 1109.21,-269.07 1151.83,-254.67" fill="none" stroke="#bcbcbc" stroke-width="8" stroke-linecap="round" stroke-linejoin="round" /><polyline points="1490.44,-666.28 1514.90,-576.37 1543.22,-470.45 1547.52,-461.63 1548.20,-451.55 1567.40,-415.70 1619.23,-319.06 1630.55,-302.35 1633.83,-297.45 1711.26,-152.71 1746.85,-120.36 1751.84,-113.91 1758.88,-107.90 1826.44,-50.13 1831.03,-46.21 1843.16,-39.76" fill="none" stroke="#bcbcbc" stroke-width="8" stroke-linecap="round" stroke-linejoin="round" /><polyline points="1227.67,987.32 1396.17,889.44 1426.17,874.11 1433.99,875.37" fill="none" stroke="#bcbcbc" stroke-width="8" stroke-linecap="round" stroke-linejoin="round" /><polyline points="1410.36,847.30 1420.82,834.87 1514.68,647.60 1520.90,635.32 1526.09,623.17 1556.41,548.20 1565.43,525.61 1591.57,446.53 1608.51,344.87 1610.52,330.07" fill="none" stroke="#bcbcbc" stroke-width="8" stroke-linecap="round" stroke-linejoin="round" /><polyline points="1337.93,-254.03 1336.29,-252.34 1334.03,-244.47 1333.80,-243.68 1323.61,-204.46 1326.29,-194.22 1324.06,-185.05 1321.16,-173.03 1313.70,-164.39 1305.24,-130.13 1295.28,-122.60 1284.64,-115.31 1279.90,-112.06" fill="none" stroke="#bcbcbc" stroke-width="8" stroke-linecap="round" stroke-linejoin="round" /><polyline points="938.91,-71.24 943.24,-82.34 969.28,-149.09 974.96,-163.64 979.64,-175.63 1012.91,-260.87 1027.89,-296.51 1029.46,-300.31 1041.11,-328.45 1067.23,-393.31 1076.79,-420.92 1078.92,-427.25 1081.78,-434.43" fill="none" stroke="#bcbcbc" stroke-width="8" stroke-linecap="round" stroke-linejoin="round" /><polyline points="1230.29,-475.85 1235.32,-460.87 1400.57,-319.72 1490.75,-241.27 1625.44,-124.20 1637.19,-114.79 1642.46,-111.50 1665.83,-90.29 1697.04,-63.67 1767.83,-3.31 1790.70,16.35 1805.87,34.50" fill="none" stroke="#bcbcbc" stroke-width="8" stroke-linecap="round" stroke-linejoin="round" /><polyline points="1503.52,-719.06 1511.90,-724.44 1561.55,-745.07 1571.76,-755.81" fill="none" stroke="#bcbcbc" stroke-width="8" stroke-linecap="round" stroke-linejoin="round" /><polyline points="1560.87,537.04 1492.31,516.83 1368.22,480.33" fill="none" stroke="#bcbcbc" stroke-width="8" stroke-linecap="round" stroke-linejoin="round" /><polyline points="1339.57,-921.09 1348.94,-914.64 1654.08,-846.74" fill="none" stroke="#bcbcbc" stroke-width="8" stroke-linecap="round" stroke-linejoin="round" /><polyline points="1716.49,83.51 1700.72,48.43 1665.72,-35.04 1663.11,-41.67 1657.13,-56.90 1634.57,-114.31 1633.15,-118.03" fill="none" stroke="#bcbcbc" stroke-width="8" stroke-linecap="round" stroke-linejoin="round" /><polyline points="1248.34,-689.29 1231.40,-694.11 1218.95,-697.82 1193.65,-705.33 1180.80,-709.00 1173.43,-711.05 1163.82,-713.80" fill="none" stroke="#bcbcbc" stroke-width="8" stroke-linecap="round" stroke-linejoin="round" /><polyline points="806.63,-230.24 805.78,-233.04 804.99,-235.00 801.50,-243.68 787.97,-275.21 775.12,-307.24 772.34,-314.81 769.14,-323.52 766.85,-330.64 763.08,-341.33 762.68,-342.45 750.38,-372.76 727.80,-429.73 722.73,-432.62 719.12,-441.86 711.92,-466.88 699.59,-497.89 696.93,-504.94" fill="none" stroke="#bcbcbc" stroke-width="8" stroke-linecap="round" stroke-linejoin="round" /><polyline points="915.10,903.80 927.92,907.72 969.41,920.37 982.40,924.32" fill="none" stroke="#bcbcbc" stroke-width="8" stroke-linecap="round" stroke-linejoin="round" /><polyline points="1689.84,-704.14 1692.25,-713.92 1691.27,-717.63 1690.09,-722.11 1682.51,-749.86 1665.62,-808.52 1656.71,-838.51 1654.08,-846.74 1630.53,-931.39 1617.81,-977.05 1604.62,-1012.16 1592.71,-1043.83 1580.85,-1065.60 1569.32,-1077.11 1480.83,-1185.24 1474.28,-1192.93 1469.94,-1200.05" fill="none" stroke="#bcbcbc" stroke-width="8" stroke-linecap="round" stroke-linejoin="round" /><polyline points="1328.17,-502.91 1323.61,-501.17 1315.17,-498.84 1314.33,-498.60 1279.08,-489.59 1238.56,-478.18 1230.29,-475.85 1226.60,-474.68 1216.87,-471.55 1208.55,-469.24 1172.21,-459.13 1112.45,-442.15 1090.17,-436.52 1081.78,-434.43 1041.96,-424.65 1017.36,-417.80 965.26,-403.24 913.76,-388.73 907.80,-387.08 864.77,-375.13 844.92,-369.62 834.89,-364.88 815.92,-355.48 778.23,-336.35 775.60,-335.02 766.85,-330.64 761.52,-327.97 754.07,-324.07 727.59,-310.19 679.35,-283.12 639.05,-262.01 633.28,-258.99 625.58,-258.51 620.96,-256.05 620.04,-255.56 576.32,-231.60 567.16,-231.64 556.65,-226.15 552.98,-224.23 549.88,-222.61 542.58,-218.78 536.82,-205.65 512.07,-192.40 504.21,-188.18 495.69,-183.55 461.27,-164.82 443.47,-155.13 434.50,-152.55" fill="none" stroke="#bcbcbc" stroke-width="8" stroke-linecap="round" stroke-linejoin="round" /><polyline points="1823.63,306.27 1805.26,307.95 1747.88,313.21 1745.29,313.45 1741.63,313.78 1735.71,314.33 1680.07,319.44 1660.72,317.64 1638.18,323.29 1620.13,327.71 1610.52,330.07 1586.63,330.98 1565.95,329.92 1555.41,328.80 1546.44,326.09 1539.84,322.44 1515.23,305.04 1455.45,263.99 1449.82,260.16 1444.08,256.27 1439.79,252.12" fill="none" stroke="#bcbcbc" stroke-width="8" stroke-linecap="round" stroke-linejoin="round" /><polyline points="469.70,-386.87 491.39,-344.41 494.67,-332.27 512.94,-297.41 520.49,-287.44 551.03,-228.02 552.98,-224.23" fill="none" stroke="#bcbcbc" stroke-width="8" stroke-linecap="round" stroke-linejoin="round" /><polyline points="1134.42,-9.25 1131.17,-0.32 1130.26,2.45 1126.03,15.30 1099.19,90.16 1085.87,127.34 1085.42,128.61 1080.07,140.17 1077.00,147.03" fill="none" stroke="#bcbcbc" stroke-width="8" stroke-linecap="round" stroke-linejoin="round" /><polyline points="1490.44,-666.28 1487.47,-672.65 1479.65,-673.68 1454.35,-667.88 1449.21,-668.54 1445.18,-673.94 1438.03,-706.85 1476.79,-712.85 1494.74,-718.15 1503.52,-719.06 1512.97,-685.46" fill="none" stroke="#bcbcbc" stroke-width="8" stroke-linecap="round" stroke-linejoin="round" /><polyline points="1630.55,-302.35 1640.54,-307.96 1690.70,-338.18 1704.10,-346.16 1727.56,-360.15 1766.17,-385.11 1775.17,-391.58 1842.88,-433.58" fill="none" stroke="#bcbcbc" stroke-width="8" stroke-linecap="round" stroke-linejoin="round" /><polyline points="1867.23,-103.96 1850.12,-109.06 1840.16,-117.22 1802.13,-150.13 1800.84,-151.29 1791.64,-159.49 1786.24,-169.07 1690.70,-338.18" fill="none" stroke="#bcbcbc" stroke-width="8" stroke-linecap="round" stroke-linejoin="round" /><polyline points="789.01,-117.36 938.91,-71.24 951.14,-67.36 1063.01,-31.90 1065.34,-31.16 1082.10,-25.85 1090.34,-23.23 1101.05,-20.31 1123.13,-12.83 1134.42,-9.25 1144.59,-6.02 1227.84,20.38 1315.72,47.99 1322.99,50.27 1333.06,45.33" fill="none" stroke="#bcbcbc" stroke-width="8" stroke-linecap="round" stroke-linejoin="round" /><polyline points="1229.77,-857.38 1294.71,-917.04 1305.70,-927.14" fill="none" stroke="#bcbcbc" stroke-width="8" stroke-linecap="round" stroke-linejoin="round" /><polyline points="142.43,105.31 380.70,130.84" fill="none" stroke="#bcbcbc" stroke-width="8" stroke-linecap="round" stroke-linejoin="round" /><polyline points="861.21,-559.69 911.28,-577.60 962.94,-596.27 995.04,-608.75 1093.03,-644.39 1121.47,-654.22 1127.41,-656.28 1134.53,-658.73 1142.53,-661.48 1143.51,-661.81 1159.65,-668.30 1166.67,-671.12" fill="none" stroke="#bcbcbc" stroke-width="8" stroke-linecap="round" stroke-linejoin="round" /><polyline points="1197.56,652.08 1244.70,710.24 1273.57,739.30 1286.06,748.30 1303.76,763.11 1320.37,777.06 1334.64,790.99 1335.00,798.07" fill="none" stroke="#bcbcbc" stroke-width="8" stroke-linecap="round" stroke-linejoin="round" /><polyline points="1248.34,-689.29 1266.82,-735.60 1296.73,-811.85 1339.57,-921.09 1360.75,-972.84 1392.30,-1050.00 1418.17,-1113.21 1422.80,-1121.60 1445.55,-1158.79 1447.02,-1161.20 1455.35,-1177.56 1469.94,-1200.05 1478.10,-1212.59 1489.63,-1230.34" fill="none" stroke="#bcbcbc" stroke-width="8" stroke-linecap="round" stroke-linejoin="round" /><polyline points="812.43,548.94 809.41,551.36 807.41,554.24 803.33,566.26 800.51,574.93 787.50,613.86 785.70,619.47 784.59,622.96 772.64,619.53 743.54,609.78 714.71,600.11 692.43,598.85" fill="none" stroke="#bcbcbc" stroke-width="8" stroke-linecap="round" stroke-linejoin="round" /><polyline points="242.68,819.80 290.19,697.11 295.48,683.76 300.22,670.89 305.95,655.35 312.97,630.89 320.30,600.51 323.30,578.73 325.48,562.91 328.56,551.24 339.74,463.51 352.80,352.80 359.56,300.02 367.10,238.02 380.70,130.84 382.85,112.62 396.59,0.54 396.60,-5.70 399.63,-38.96 408.40,-109.21 410.59,-121.46 412.88,-128.33 416.47,-135.90 419.95,-141.78 427.64,-150.10 434.52,-152.46" fill="none" stroke="#bcbcbc" stroke-width="8" stroke-linecap="round" stroke-linejoin="round" /><polyline points="1279.90,-112.06 1282.50,-107.94 1291.21,-94.34 1304.26,-73.43 1307.40,-68.44 1312.60,-72.39 1337.84,-91.55" fill="none" stroke="#bcbcbc" stroke-width="8" stroke-linecap="round" stroke-linejoin="round" /><polyline points="1296.73,-811.85 1553.44,-765.45 1580.40,-751.26 1680.98,-701.40 1689.84,-704.14" fill="none" stroke="#bcbcbc" stroke-width="8" stroke-linecap="round" stroke-linejoin="round" /><polyline points="806.64,-230.24 802.08,-223.59 761.13,-203.61 731.05,-165.38 698.59,-145.28 676.39,-128.52 655.21,-111.25 644.35,-101.35 625.17,-77.02 603.73,-46.28 600.19,-40.59" fill="none" stroke="#bcbcbc" stroke-width="8" stroke-linecap="round" stroke-linejoin="round" /><polyline points="849.93,-202.81 848.16,-198.87 844.27,-193.19 836.94,-184.16 793.68,-129.52 770.79,-67.87 655.26,-111.29" fill="none" stroke="#bcbcbc" stroke-width="8" stroke-linecap="round" stroke-linejoin="round" /><polyline points="676.39,-128.52 671.91,-142.06 652.58,-200.59 645.08,-212.15 632.52,-249.84 631.43,-253.09 633.28,-258.99 630.28,-268.60 569.87,-461.46" fill="none" stroke="#bcbcbc" stroke-width="8" stroke-linecap="round" stroke-linejoin="round" /><polyline points="1384.19,-1180.84 1431.93,-1179.58 1434.16,-1179.52 1443.31,-1179.26 1455.35,-1177.56" fill="none" stroke="#bcbcbc" stroke-width="8" stroke-linecap="round" stroke-linejoin="round" /><polyline points="1138.64,374.21 1122.34,374.01 984.31,392.54 974.37,393.59 962.99,394.79 896.94,401.76 807.96,411.15 760.78,416.13 734.68,418.88 713.50,421.46 702.62,422.78 690.36,424.27 631.16,431.46 616.97,433.19 573.25,437.97 339.74,463.51" fill="none" stroke="#bcbcbc" stroke-width="8" stroke-linecap="round" stroke-linejoin="round" /><polyline points="934.28,853.41 922.06,849.47 864.95,831.09 853.40,827.38 843.38,824.15 782.88,804.71 770.95,800.87 755.16,795.80 658.85,764.80 648.01,761.31" fill="none" stroke="#bcbcbc" stroke-width="8" stroke-linecap="round" stroke-linejoin="round" /><polyline points="1173.09,-302.80 1206.31,-292.45 1327.79,-254.94 1328.92,-254.59 1337.93,-254.03" fill="none" stroke="#bcbcbc" stroke-width="8" stroke-linecap="round" stroke-linejoin="round" /><polyline points="1514.90,-576.37 1680.16,-573.46" fill="none" stroke="#bcbcbc" stroke-width="8" stroke-linecap="round" stroke-linejoin="round" /><polyline points="1433.99,875.37 1410.36,847.30 1400.45,835.77 1391.94,827.81 1380.60,819.35 1357.42,805.44 1335.00,798.07 1289.37,783.98 1252.05,772.14 1273.57,739.30" fill="none" stroke="#bcbcbc" stroke-width="8" stroke-linecap="round" stroke-linejoin="round" /><polyline points="1197.56,652.08 1164.66,611.48 1158.41,603.76 1125.27,558.12 1117.77,544.18 1119.57,527.59 1129.56,527.49 1154.20,532.23 1191.70,539.45" fill="none" stroke="#bcbcbc" stroke-width="8" stroke-linecap="round" stroke-linejoin="round" /><polyline points="767.25,326.79 773.31,339.84 807.96,411.15 859.47,517.19 866.04,530.71" fill="none" stroke="#bcbcbc" stroke-width="8" stroke-linecap="round" stroke-linejoin="round" /><polyline points="212.39,649.79 224.78,654.85 282.81,678.58 295.48,683.76 308.81,689.21 377.13,717.14 389.49,722.20" fill="none" stroke="#bcbcbc" stroke-width="8" stroke-linecap="round" stroke-linejoin="round" /><polyline points="795.76,221.06 916.66,273.95" fill="none" stroke="#bcbcbc" stroke-width="8" stroke-linecap="round" stroke-linejoin="round" /><polyline points="1337.93,-254.03 1356.34,-253.06 1357.52,-252.02 1365.78,-244.69 1377.93,-233.85 1380.17,-229.49 1422.03,-192.83 1425.12,-186.99 1454.56,-161.01 1461.96,-158.75 1484.86,-138.70 1489.99,-136.36 1524.52,-107.07 1532.20,-100.25 1536.45,-93.50" fill="none" stroke="#bcbcbc" stroke-width="8" stroke-linecap="round" stroke-linejoin="round" /><polyline points="178.26,221.18 367.10,238.02" fill="none" stroke="#bcbcbc" stroke-width="8" stroke-linecap="round" stroke-linejoin="round" /><polyline points="599.90,924.31 605.75,911.86 607.26,906.32 615.46,876.08 645.16,771.34 648.01,761.31 651.01,750.32 664.47,701.11 687.20,618.00 692.43,598.85" fill="none" stroke="#bcbcbc" stroke-width="8" stroke-linecap="round" stroke-linejoin="round" /><polyline points="767.25,326.79 795.76,221.06 735.31,199.91 719.48,209.26 712.27,214.75 706.92,221.97 703.16,231.51 689.26,282.90 700.48,288.61 711.81,291.36 736.86,297.88 755.62,303.85 767.25,326.79" fill="none" stroke="#bcbcbc" stroke-width="8" stroke-linecap="round" stroke-linejoin="round" /><polyline points="689.26,282.90 676.02,281.05 367.10,238.02" fill="none" stroke="#bcbcbc" stroke-width="8" stroke-linecap="round" stroke-linejoin="round" /><polyline points="1191.70,539.45 1220.35,545.71 1297.85,570.34 1319.51,577.19 1370.95,592.04 1422.76,606.98 1461.11,618.06 1522.45,635.77 1535.13,639.44 1566.08,649.81 1617.05,663.39 1621.54,664.23" fill="none" stroke="#bcbcbc" stroke-width="8" stroke-linecap="round" stroke-linejoin="round" /><polyline points="1228.05,987.10 1217.59,989.72 1206.29,1021.23 1188.76,1016.25 1109.06,989.09 1099.46,987.04 1078.12,985.51 981.60,985.90 960.32,983.19 912.27,975.84 892.89,972.69 755.41,950.52 702.18,942.03 600.66,924.45 584.27,921.20 355.15,857.16 340.69,853.11 242.68,819.80 218.57,811.25 158.34,786.29 124.00,773.30" fill="none" stroke="#bcbcbc" stroke-width="8" stroke-linecap="round" stroke-linejoin="round" /><polyline points="1438.03,-706.85 1428.11,-708.89 1295.69,-693.24 1248.34,-689.29" fill="none" stroke="#bcbcbc" stroke-width="8" stroke-linecap="round" stroke-linejoin="round" /><polyline points="1191.70,539.45 1196.34,531.68 1224.13,460.32 1255.18,352.41 1263.10,329.17 1267.33,322.85 1297.31,226.63 1298.80,215.14 1299.94,207.64" fill="none" stroke="#bcbcbc" stroke-width="8" stroke-linecap="round" stroke-linejoin="round" /><polyline points="1328.17,-502.91 1331.33,-504.12 1335.62,-507.53 1342.14,-515.15 1426.69,-636.46 1449.21,-668.54" fill="none" stroke="#bcbcbc" stroke-width="8" stroke-linecap="round" stroke-linejoin="round" /><polyline points="1704.49,-57.27 1706.22,-62.25 1748.72,-112.25 1751.84,-113.91 1759.22,-124.02 1783.95,-152.42 1791.64,-159.49" fill="none" stroke="#bcbcbc" stroke-width="8" stroke-linecap="round" stroke-linejoin="round" /><polyline points="1741.63,313.78 1741.04,307.09 1740.59,301.92 1738.35,292.02 1735.67,285.57 1732.33,268.61 1732.03,262.47 1729.77,248.74 1719.65,243.46 1711.56,246.55 1697.09,250.01 1685.64,251.80 1674.65,254.45 1659.48,257.91 1652.57,259.49" fill="none" stroke="#bcbcbc" stroke-width="8" stroke-linecap="round" stroke-linejoin="round" /><polyline points="624.98,68.23 655.89,-4.23 657.61,-8.94" fill="none" stroke="#bcbcbc" stroke-width="8" stroke-linecap="round" stroke-linejoin="round" /><polyline points="1439.60,-64.63 1454.50,-70.40 1462.29,-73.42 1468.32,-79.52 1493.15,-85.64 1501.49,-83.52 1519.47,-88.15 1533.18,-91.68 1536.45,-93.50 1549.74,-96.76 1617.74,-113.42 1633.15,-118.03" fill="none" stroke="#bcbcbc" stroke-width="8" stroke-linecap="round" stroke-linejoin="round" /><polyline points="812.43,548.94 844.51,537.29 855.24,534.01 866.04,530.71 885.97,524.63 901.48,522.40 954.44,516.60 965.08,516.02 1012.47,516.43 1041.33,516.67 1052.19,516.12 1069.57,517.88 1075.01,518.66 1086.09,520.24 1119.57,527.59" fill="none" stroke="#bcbcbc" stroke-width="8" stroke-linecap="round" stroke-linejoin="round" /><polyline points="965.26,-403.24 959.94,-421.21 940.21,-487.93 916.23,-564.02 911.28,-577.60 906.26,-590.33 899.91,-608.67" fill="none" stroke="#bcbcbc" stroke-width="8" stroke-linecap="round" stroke-linejoin="round" /><polyline points="907.85,672.63 912.07,659.32 954.71,524.87 954.44,516.60" fill="none" stroke="#bcbcbc" stroke-width="8" stroke-linecap="round" stroke-linejoin="round" /><polyline points="965.08,516.02 973.52,402.82 974.37,393.59 975.66,382.85 975.68,382.36 976.23,369.23 979.05,333.60 980.64,317.00 982.81,298.15 984.79,284.57 986.57,276.05 988.80,269.61 993.19,255.09 1002.24,224.87 1013.76,185.85 1026.46,145.95 1029.05,137.81 1031.13,131.91" fill="none" stroke="#bcbcbc" stroke-width="8" stroke-linecap="round" stroke-linejoin="round" /><polyline points="689.26,282.90 687.02,292.93 687.40,296.13 701.16,410.65 702.62,422.78 701.98,435.26 698.38,506.48 696.87,536.24 696.10,551.59 694.71,578.95 693.99,593.20 692.43,598.85" fill="none" stroke="#bcbcbc" stroke-width="8" stroke-linecap="round" stroke-linejoin="round" /><polyline points="624.98,68.23 574.96,53.36 568.61,49.29 537.48,40.22 528.73,40.31 489.62,28.53 483.30,23.87 447.72,13.08 404.05,1.18 403.84,1.16 396.59,0.54" fill="none" stroke="#bcbcbc" stroke-width="8" stroke-linecap="round" stroke-linejoin="round" /><polyline points="1536.45,-93.50 1538.18,-91.22 1545.43,-80.42 1558.84,-60.43 1571.46,-47.79 1595.72,-20.56 1591.62,4.61 1589.54,14.05 1586.65,18.04 1592.73,27.04 1602.14,46.40 1620.95,82.68 1630.21,100.55 1635.97,116.60 1638.56,124.06" fill="none" stroke="#bcbcbc" stroke-width="8" stroke-linecap="round" stroke-linejoin="round" /><polyline points="1663.12,-41.67 1656.14,-39.50 1610.21,-25.21 1603.63,-23.09 1595.72,-20.56" fill="none" stroke="#bcbcbc" stroke-width="8" stroke-linecap="round" stroke-linejoin="round" /><polyline points="1333.06,45.33 1347.43,40.67 1451.68,-12.56 1465.63,-19.37 1514.77,-33.56 1562.41,-46.96 1571.46,-47.79" fill="none" stroke="#bcbcbc" stroke-width="8" stroke-linecap="round" stroke-linejoin="round" /><polyline points="1344.42,111.23 1464.61,55.30 1469.67,51.95 1481.42,48.54 1561.51,25.23 1573.66,20.58 1586.65,18.04" fill="none" stroke="#bcbcbc" stroke-width="8" stroke-linecap="round" stroke-linejoin="round" /><polyline points="1319.90,-1061.25 1368.55,-1055.24 1373.44,-1054.63 1392.30,-1050.00" fill="none" stroke="#bcbcbc" stroke-width="8" stroke-linecap="round" stroke-linejoin="round" /><polyline points="1735.66,-566.64 1744.29,-568.44 1776.53,-552.64 1780.77,-548.44 1841.29,-446.00 1842.88,-433.58 1850.75,-427.03 1849.50,-422.50 1849.31,-415.12 1850.40,-404.79 1866.43,-338.92 1867.85,-293.30 1870.09,-220.46 1873.86,-122.41 1858.51,-79.69 1848.63,-53.64 1834.19,-16.94 1830.01,-6.32 1827.30,-3.36 1822.93,25.05" fill="none" stroke="#bcbcbc" stroke-width="8" stroke-linecap="round" stroke-linejoin="round" /><polyline points="1847.55,198.08 1832.83,191.67 1796.05,166.01 1747.52,131.91 1720.83,110.33 1702.83,91.05" fill="none" stroke="#bcbcbc" stroke-width="8" stroke-linecap="round" stroke-linejoin="round" /><polyline points="1252.05,772.14 1237.60,767.55 1214.14,760.12 1202.95,756.57 1189.80,752.40 1173.19,747.13 1158.17,742.37 1143.32,737.66 1077.11,716.65 1065.52,712.97 1051.11,708.41 1047.94,707.41 1010.07,697.40 999.38,694.82 985.97,691.57 971.95,688.17 921.41,675.92 907.85,672.63 893.29,667.57 862.86,657.01 851.39,653.03 841.13,649.69 793.48,632.75 787.48,629.18 784.59,622.96" fill="none" stroke="#bcbcbc" stroke-width="8" stroke-linecap="round" stroke-linejoin="round" /><polyline points="1469.67,51.95 1466.16,39.37 1455.70,1.87 1451.68,-12.56 1445.86,-23.34 1445.32,-25.34 1441.89,-38.03 1445.89,-43.66 1441.09,-59.66 1439.60,-64.63" fill="none" stroke="#bcbcbc" stroke-width="8" stroke-linecap="round" stroke-linejoin="round" /><polyline points="1452.18,-407.02 1462.12,-411.70 1516.46,-441.65 1547.52,-461.63 1569.42,-476.57 1574.26,-480.17 1591.89,-492.42 1610.16,-505.92 1621.73,-514.34 1635.52,-524.42 1683.45,-546.05 1689.67,-545.72 1698.76,-550.02 1735.66,-566.64" fill="none" stroke="#bcbcbc" stroke-width="8" stroke-linecap="round" stroke-linejoin="round" /><polyline points="849.93,-202.81 857.77,-199.63 862.95,-198.04 960.12,-168.20 974.96,-163.64" fill="none" stroke="#bcbcbc" stroke-width="8" stroke-linecap="round" stroke-linejoin="round" /><polyline points="155.90,15.68 86.48,-5.33" fill="none" stroke="#bcbcbc" stroke-width="8" stroke-linecap="round" stroke-linejoin="round" /><polyline points="1277.23,-963.21 1294.44,-941.40 1297.01,-938.15 1305.70,-927.14 1315.60,-925.98 1335.96,-923.59 1339.57,-921.09" fill="none" stroke="#bcbcbc" stroke-width="8" stroke-linecap="round" stroke-linejoin="round" /><polyline points="1874.91,6.54 1847.64,11.62 1819.67,26.82 1793.75,41.25 1769.23,53.51 1739.60,69.60 1718.15,82.62 1675.76,105.35 1510.26,188.61 1467.35,207.51 1439.00,219.77 1424.95,224.36 1413.33,226.54 1394.31,227.68 1367.23,223.85 1299.68,207.64 1203.78,185.29 1077.61,147.23 1031.13,131.91 955.02,108.42 882.23,84.41 775.47,42.52 722.10,19.54 657.74,-9.06 550.98,-67.55 525.95,-84.15 462.61,-123.99 436.05,-150.55 396.21,-202.13 330.57,-269.81 304.77,-292.54" fill="none" stroke="#bcbcbc" stroke-width="8" stroke-linecap="round" stroke-linejoin="round" /><polyline points="1357.42,805.44 1358.54,799.20 1362.58,789.01 1400.44,700.44 1414.74,667.23 1431.59,625.86 1435.70,610.71" fill="none" stroke="#bcbcbc" stroke-width="8" stroke-linecap="round" stroke-linejoin="round" /><polyline points="631.16,431.46 588.16,410.65 490.30,363.29 370.27,305.21 359.56,300.02" fill="none" stroke="#bcbcbc" stroke-width="8" stroke-linecap="round" stroke-linejoin="round" /><polyline points="1337.93,-254.03 1348.79,-265.15 1377.66,-294.70 1400.57,-319.72" fill="none" stroke="#bcbcbc" stroke-width="8" stroke-linecap="round" stroke-linejoin="round" /><polyline points="504.21,-188.18 492.28,-203.98 436.38,-277.99 356.58,-342.56" fill="none" stroke="#bcbcbc" stroke-width="8" stroke-linecap="round" stroke-linejoin="round" /><polyline points="157.91,786.11 168.82,760.23 203.52,673.73 207.72,662.38 212.39,649.79 214.16,645.24 214.63,638.13 219.07,570.88 220.34,551.59" fill="none" stroke="#bcbcbc" stroke-width="8" stroke-linecap="round" stroke-linejoin="round" /><polyline points="134.24,90.80 155.90,15.68 184.47,-83.40 188.01,-95.67 191.94,-109.60 200.75,-140.79 201.68,-144.07 204.20,-154.10 208.22,-165.44 209.20,-168.19 214.27,-180.78 224.25,-202.78 227.23,-209.09" fill="none" stroke="#bcbcbc" stroke-width="8" stroke-linecap="round" stroke-linejoin="round" /><polyline points="188.01,-95.67 231.84,-84.46 324.68,-60.60 377.57,-44.13 399.63,-38.96" fill="none" stroke="#bcbcbc" stroke-width="8" stroke-linecap="round" stroke-linejoin="round" /><polyline points="1090.17,-436.52 1091.66,-445.64 1093.16,-455.11 1099.59,-486.79 1115.65,-560.51 1128.84,-626.46 1131.26,-640.15 1134.53,-658.73 1134.54,-658.74" fill="none" stroke="#bcbcbc" stroke-width="8" stroke-linecap="round" stroke-linejoin="round" /><polyline points="960.40,983.20 979.97,933.29 982.40,924.32 1060.06,727.20 1065.52,712.97 1069.93,700.91 1116.34,565.91 1125.27,558.12" fill="none" stroke="#bcbcbc" stroke-width="8" stroke-linecap="round" stroke-linejoin="round" /><polyline points="1226.60,-474.68 1226.60,-474.70 1223.85,-489.14 1223.42,-490.89 1216.71,-518.17 1216.71,-518.26 1212.14,-536.76 1192.76,-603.17 1190.32,-610.28 1177.23,-645.86 1172.98,-656.48 1170.23,-663.33 1166.67,-671.11 1166.67,-671.12 1166.66,-671.15 1164.07,-699.76 1163.82,-713.80" fill="none" stroke="#bcbcbc" stroke-width="8" stroke-linecap="round" stroke-linejoin="round" /><polyline points="1197.56,652.08 1192.57,657.47 1185.15,666.30 1164.23,725.29 1158.17,742.37" fill="none" stroke="#bcbcbc" stroke-width="8" stroke-linecap="round" stroke-linejoin="round" /><polyline points="849.93,-202.81 852.79,-210.56 853.44,-212.36 867.03,-250.31 872.12,-266.29 913.76,-388.73" fill="none" stroke="#bcbcbc" stroke-width="8" stroke-linecap="round" stroke-linejoin="round" /><polyline points="1065.34,-31.16 1069.59,-42.45 1081.10,-73.01 1085.96,-85.93 1089.26,-94.68 1098.49,-119.21 1104.59,-135.41 1105.41,-137.59 1120.19,-176.84 1126.37,-174.92 1129.71,-184.04 1135.63,-200.16 1134.50,-207.48 1150.22,-250.27 1151.84,-254.67 1154.82,-257.41 1157.32,-259.71 1173.09,-302.80 1175.37,-314.60 1197.99,-377.44 1203.34,-381.63 1214.22,-412.41 1212.28,-417.14 1221.81,-445.88 1216.87,-471.55" fill="none" stroke="#bcbcbc" stroke-width="8" stroke-linecap="round" stroke-linejoin="round" /><polyline points="1469.94,-1200.05 1463.61,-1210.44 1430.30,-1265.07" fill="none" stroke="#bcbcbc" stroke-width="8" stroke-linecap="round" stroke-linejoin="round" /><polyline points="1574.26,-480.17 1727.09,-381.90 1727.13,-381.83 1727.13,-381.81 1755.40,-378.15" fill="none" stroke="#bcbcbc" stroke-width="8" stroke-linecap="round" stroke-linejoin="round" /><polyline points="1512.97,-685.46 1675.58,-603.84 1680.49,-600.18 1680.16,-573.46 1683.45,-546.05" fill="none" stroke="#bcbcbc" stroke-width="8" stroke-linecap="round" stroke-linejoin="round" /><polyline points="1202.95,756.57 1197.10,774.41 1173.41,846.67 1133.11,968.35 1130.25,976.98 1127.35,985.73 1126.54,995.05" fill="none" stroke="#bcbcbc" stroke-width="8" stroke-linecap="round" stroke-linejoin="round" /><polyline points="1660.72,317.64 1661.69,308.58 1661.90,300.12 1661.83,299.82 1656.07,274.92 1653.71,264.51 1652.57,259.49 1651.40,254.36 1645.08,226.49 1632.72,170.81 1623.74,137.33 1622.47,132.16" fill="none" stroke="#bcbcbc" stroke-width="8" stroke-linecap="round" stroke-linejoin="round" /><polyline points="853.40,827.38 857.43,815.92 902.71,687.24 907.85,672.63" fill="none" stroke="#bcbcbc" stroke-width="8" stroke-linecap="round" stroke-linejoin="round" /><polyline points="1870.09,-220.46 1856.77,-224.22 1766.30,-363.03 1755.40,-378.15" fill="none" stroke="#bcbcbc" stroke-width="8" stroke-linecap="round" stroke-linejoin="round" /><polyline points="382.85,112.62 712.57,191.61 735.31,199.91" fill="none" stroke="#bcbcbc" stroke-width="8" stroke-linecap="round" stroke-linejoin="round" /><polyline points="1422.80,-1121.60 1551.24,-1074.02 1569.32,-1077.11" fill="none" stroke="#bcbcbc" stroke-width="8" stroke-linecap="round" stroke-linejoin="round" />
    <polyline points="167.20,324.60 230.28,333.41 241.34,334.96 248.19,336.05 276.47,340.56 341.62,350.94 352.80,352.80" fill="none" stroke="#ffffff" stroke-width="16" stroke-linecap="round" stroke-linejoin="round" />
    <polyline points="167.20,324.60 230.28,333.41 241.34,334.96 248.19,336.05 276.47,340.56 341.62,350.94 352.80,352.80" fill="none" stroke="#111111" stroke-width="9" stroke-linecap="round" stroke-linejoin="round" />
    
            <g transform="translate(167.20,324.60)">
              <circle r="19" fill="#ffffff" stroke="#111111" stroke-width="4" />
              <text text-anchor="middle" dominant-baseline="central" font-family="Helvetica, Arial, sans-serif"
                font-size="18" font-weight="700" fill="#111111">1</text>
            </g>
            
            <g transform="translate(352.80,352.80)">
              <circle r="19" fill="#ffffff" stroke="#111111" stroke-width="4" />
              <text text-anchor="middle" dominant-baseline="central" font-family="Helvetica, Arial, sans-serif"
                font-size="18" font-weight="700" fill="#111111">2</text>
            </g>
            
  </g>
</svg>
