<svg xmlns="http://www.w3.org/2000/svg" width="520" height="520" viewBox="0 0 520 520">
  <rect width="100%" height="100%" fill="#ffffff" />
  <g>
    <polyline points="363.71,136.46 365.18,144.30 374.68,210.76 373.23,227.37" fill="none" stroke="#bcbcbc" stroke-width="8" stroke-linecap="round" stroke-linejoin="round" /><polyline points="170.61,690.31 172.91,683.25 185.08,645.82 186.51,641.41 187.97,636.78 218.57,539.19 221.03,531.35 215.39,517.46" fill="none" stroke="#bcbcbc" stroke-width="8" stroke-linecap="round" stroke-linejoin="round" /><polyline points="-40.76,603.51 -41.25,597.91 -31.25,541.87 -29.84,534.87 -28.80,531.19 -26.04,516.98 -22.95,499.59 -19.58,484.27 -16.23,468.99 -14.13,464.68 -12.75,462.04" fill="none" stroke="#bcbcbc" stroke-width="8" stroke-linecap="round" stroke-linejoin="round" /><polyline points="17.31,208.25 14.93,201.00 -9.65,126.01 -10.85,122.87" fill="none" stroke="#bcbcbc" stroke-width="8" stroke-linecap="round" stroke-linejoin="round" /><polyline points="-108.84,868.21 -108.10,861.05 -107.81,857.77 -105.13,828.16 -102.20,802.09 -101.52,796.01 -100.88,788.70 -100.81,788.09 -99.15,773.57 -97.72,758.81 -96.14,744.57 -95.08,733.48 -94.63,726.64 -94.24,720.32 -93.54,713.20" fill="none" stroke="#bcbcbc" stroke-width="8" stroke-linecap="round" stroke-linejoin="round" /><polyline points="230.87,707.71 232.62,702.21 244.96,663.42 246.36,659.01 248.35,652.74 249.78,648.24 260.70,601.14" fill="none" stroke="#bcbcbc" stroke-width="8" stroke-linecap="round" stroke-linejoin="round" /><polyline points="182.91,-59.44 187.47,-58.74 313.01,-39.45" fill="none" stroke="#bcbcbc" stroke-width="8" stroke-linecap="round" stroke-linejoin="round" /><polyline points="-139.38,698.57 -152.45,697.96 -160.41,697.59 -164.74,697.39 -168.54,697.21 -198.13,695.84 -239.29,693.92 -258.90,691.14 -265.47,690.21 -271.17,689.21 -309.75,682.40 -315.14,681.44 -316.34,681.24 -323.00,680.10 -328.12,679.22 -360.81,676.33 -367.04,675.78 -369.33,675.58 -376.39,675.09 -390.23,674.13" fill="none" stroke="#bcbcbc" stroke-width="8" stroke-linecap="round" stroke-linejoin="round" /><polyline points="50.46,660.66 52.99,653.45 75.80,590.23 103.24,510.48 104.99,505.48 106.22,501.98 107.21,499.11" fill="none" stroke="#bcbcbc" stroke-width="8" stroke-linecap="round" stroke-linejoin="round" /><polyline points="-369.33,675.58 -369.91,671.51 -370.05,667.10 -369.18,658.20 -367.19,641.97 -365.87,636.52 -363.72,616.82 -363.33,612.43 -362.70,606.79 -362.23,602.60 -361.35,597.85 -359.72,585.07 -358.58,575.30 -356.91,571.30" fill="none" stroke="#bcbcbc" stroke-width="8" stroke-linecap="round" stroke-linejoin="round" /><polyline points="-392.67,566.30 -362.25,570.55 -356.91,571.30 -353.61,571.82 -339.98,574.00 -308.56,579.00 -303.16,579.90" fill="none" stroke="#bcbcbc" stroke-width="8" stroke-linecap="round" stroke-linejoin="round" /><polyline points="157.18,376.74 158.48,378.89 158.82,379.44 159.89,384.86 167.23,420.35 169.56,431.61 171.22,439.64 173.82,455.90 175.04,463.39 175.87,467.97 176.79,472.10 177.89,474.51 179.49,477.30 180.35,478.62 196.60,501.89 205.39,515.73 207.69,519.04" fill="none" stroke="#bcbcbc" stroke-width="8" stroke-linecap="round" stroke-linejoin="round" /><polyline points="-309.38,821.10 -308.51,815.77 -307.71,811.92 -307.50,811.41 -296.68,785.69 -289.79,768.97 -287.69,763.67 -285.47,758.06 -283.06,753.24 -282.67,752.29 -279.38,744.32 -276.83,737.27 -274.64,730.80 -273.25,726.22 -271.69,720.57 -269.90,712.99 -268.54,706.84 -266.91,698.26 -266.57,696.35 -265.47,690.21" fill="none" stroke="#bcbcbc" stroke-width="8" stroke-linecap="round" stroke-linejoin="round" /><polyline points="214.71,102.79 249.20,126.89 253.85,127.88 257.25,131.77" fill="none" stroke="#bcbcbc" stroke-width="8" stroke-linecap="round" stroke-linejoin="round" /><polyline points="69.88,325.39 74.44,327.14 94.23,333.61 140.14,351.22 142.71,353.79 143.92,355.70" fill="none" stroke="#bcbcbc" stroke-width="8" stroke-linecap="round" stroke-linejoin="round" /><polyline points="155.43,777.79 158.55,769.65 173.99,727.77 184.90,696.14 187.16,695.10" fill="none" stroke="#bcbcbc" stroke-width="8" stroke-linecap="round" stroke-linejoin="round" /><polyline points="-62.72,724.70 -60.29,719.32 -60.05,718.78 -55.88,704.81 -49.06,681.80 -47.31,675.91 -45.95,671.34 -45.77,668.67 -46.05,662.77" fill="none" stroke="#bcbcbc" stroke-width="8" stroke-linecap="round" stroke-linejoin="round" /><polyline points="220.94,378.58 217.02,379.39 208.16,377.81 206.78,374.15 191.42,368.29 187.79,369.24 173.93,364.15 171.86,365.60" fill="none" stroke="#bcbcbc" stroke-width="8" stroke-linecap="round" stroke-linejoin="round" /><polyline points="198.13,-96.66 205.09,-94.95 208.94,-94.29 300.52,-78.41" fill="none" stroke="#bcbcbc" stroke-width="8" stroke-linecap="round" stroke-linejoin="round" /><polyline points="126.95,752.29 130.76,741.55 138.16,720.68 142.94,711.79 149.83,692.51 152.58,684.82" fill="none" stroke="#bcbcbc" stroke-width="8" stroke-linecap="round" stroke-linejoin="round" /><polyline points="-374.83,335.43 -381.46,335.12 -383.12,337.14 -394.68,351.18 -435.07,397.85 -440.75,404.41" fill="none" stroke="#bcbcbc" stroke-width="8" stroke-linecap="round" stroke-linejoin="round" /><polyline points="-20.52,375.39 -23.44,381.87 -23.80,382.66 -33.97,409.19 -44.23,438.39 -46.96,446.18 -48.51,450.20" fill="none" stroke="#bcbcbc" stroke-width="8" stroke-linecap="round" stroke-linejoin="round" /><polyline points="128.70,77.31 131.94,81.69 134.24,87.72 137.83,96.38 143.60,109.99 148.70,122.21 154.56,135.63 158.91,145.96 159.55,147.45 159.59,147.54 163.09,155.72 164.13,158.04 165.13,160.26 166.18,162.33 166.97,164.44 167.20,167.20" fill="none" stroke="#bcbcbc" stroke-width="8" stroke-linecap="round" stroke-linejoin="round" /><polyline points="-118.70,506.17 -117.01,505.24 -114.65,503.36 -113.46,500.92 -97.74,441.32 -97.27,437.96 -95.35,431.82" fill="none" stroke="#bcbcbc" stroke-width="8" stroke-linecap="round" stroke-linejoin="round" /><polyline points="430.86,412.90 433.09,419.98 434.66,427.41 431.61,455.74 428.08,477.05 426.15,484.32 425.97,484.97 424.28,488.90 421.98,493.06 416.60,499.86 419.21,513.16 410.78,541.70 406.13,557.46 396.62,583.26 382.68,614.68 365.67,644.79 360.36,654.57 350.75,670.65 312.37,725.12 303.96,736.45 271.40,779.01 252.71,800.28 226.56,826.86 224.14,827.11 218.23,831.94" fill="none" stroke="#bcbcbc" stroke-width="8" stroke-linecap="round" stroke-linejoin="round" /><polyline points="-42.71,878.87 -32.00,845.64 -30.25,840.16 -27.87,836.70 -22.75,821.34 -21.08,816.13 0.05,749.95 2.18,743.29 3.93,737.44 28.87,658.94" fill="none" stroke="#bcbcbc" stroke-width="8" stroke-linecap="round" stroke-linejoin="round" /><polyline points="208.27,260.90 217.53,250.78 220.26,247.49 238.97,220.98" fill="none" stroke="#bcbcbc" stroke-width="8" stroke-linecap="round" stroke-linejoin="round" /><polyline points="23.15,264.91 48.66,273.79 50.07,276.08 57.31,278.51 61.61,279.98 82.16,286.93" fill="none" stroke="#bcbcbc" stroke-width="8" stroke-linecap="round" stroke-linejoin="round" /><polyline points="245.45,88.41 257.25,131.77 270.91,182.85 272.98,187.11 273.31,191.97 282.57,209.26 307.56,255.87 313.02,263.93 314.60,266.29 351.94,336.10 369.10,351.70 371.51,354.81 374.91,357.71 407.49,385.57 409.70,387.46 415.55,390.57" fill="none" stroke="#bcbcbc" stroke-width="8" stroke-linecap="round" stroke-linejoin="round" /><polyline points="118.73,885.93 199.99,838.72 214.46,831.33 218.23,831.94" fill="none" stroke="#bcbcbc" stroke-width="8" stroke-linecap="round" stroke-linejoin="round" /><polyline points="206.84,818.40 211.88,812.40 257.14,722.08 260.14,716.16 262.64,710.30 277.26,674.14 281.62,663.25 294.22,625.11 302.39,576.08 303.36,568.94" fill="none" stroke="#bcbcbc" stroke-width="8" stroke-linecap="round" stroke-linejoin="round" /><polyline points="171.91,287.23 171.11,288.05 170.02,291.85 169.92,292.22 165.00,311.14 166.29,316.08 165.22,320.50 163.82,326.30 160.22,330.46 156.14,346.99 151.34,350.62 146.21,354.14 143.92,355.70" fill="none" stroke="#bcbcbc" stroke-width="8" stroke-linecap="round" stroke-linejoin="round" /><polyline points="-20.52,375.39 -18.43,370.04 -5.87,337.85 -3.13,330.83 -0.88,325.04 15.17,283.93 22.39,266.75 23.15,264.91 28.77,251.34 41.36,220.06 45.97,206.75 47.00,203.69 48.38,200.23" fill="none" stroke="#bcbcbc" stroke-width="8" stroke-linecap="round" stroke-linejoin="round" /><polyline points="120.00,180.25 122.42,187.48 202.12,255.55 245.60,293.39 310.55,349.85 316.22,354.39 318.76,355.97 330.03,366.21 345.08,379.04 379.22,408.15 390.25,417.64 397.57,426.39" fill="none" stroke="#bcbcbc" stroke-width="8" stroke-linecap="round" stroke-linejoin="round" /><polyline points="251.76,62.95 255.80,60.36 279.75,50.41 284.67,45.23" fill="none" stroke="#bcbcbc" stroke-width="8" stroke-linecap="round" stroke-linejoin="round" /><polyline points="279.42,668.76 246.36,659.02 186.51,641.41" fill="none" stroke="#bcbcbc" stroke-width="8" stroke-linecap="round" stroke-linejoin="round" /><polyline points="172.70,-34.49 177.21,-31.37 324.37,1.37" fill="none" stroke="#bcbcbc" stroke-width="8" stroke-linecap="round" stroke-linejoin="round" /><polyline points="354.46,450.03 346.86,433.11 329.98,392.85 328.72,389.65 325.84,382.31 314.96,354.62 314.27,352.83" fill="none" stroke="#bcbcbc" stroke-width="8" stroke-linecap="round" stroke-linejoin="round" /><polyline points="128.70,77.31 120.53,74.98 114.53,73.20 102.33,69.57 96.13,67.80 92.58,66.82 87.94,65.49" fill="none" stroke="#bcbcbc" stroke-width="8" stroke-linecap="round" stroke-linejoin="round" /><polyline points="-84.31,298.71 -84.72,297.36 -85.10,296.41 -86.78,292.22 -93.31,277.02 -99.51,261.57 -100.84,257.92 -102.39,253.72 -103.49,250.28 -105.31,245.13 -105.50,244.59 -111.43,229.97 -122.32,202.49 -124.77,201.10 -126.51,196.64 -129.98,184.58 -135.93,169.62 -137.21,166.22" fill="none" stroke="#bcbcbc" stroke-width="8" stroke-linecap="round" stroke-linejoin="round" /><polyline points="-32.00,845.64 -25.82,847.54 -5.81,853.64 0.46,855.54" fill="none" stroke="#bcbcbc" stroke-width="8" stroke-linecap="round" stroke-linejoin="round" /><polyline points="341.61,70.15 342.78,65.43 342.30,63.64 341.73,61.48 338.08,48.10 329.93,19.81 325.64,5.35 324.37,1.37 313.01,-39.45 306.88,-61.47 300.52,-78.41 294.77,-93.68 289.05,-104.18 283.49,-109.73 240.82,-161.88 237.66,-165.59 235.57,-169.02" fill="none" stroke="#bcbcbc" stroke-width="8" stroke-linecap="round" stroke-linejoin="round" /><polyline points="167.20,167.20 165.00,168.04 160.93,169.16 160.52,169.28 143.53,173.62 123.99,179.13 120.00,180.25 118.22,180.81 113.53,182.32 109.51,183.44 91.99,188.32 63.17,196.50 52.43,199.22 48.38,200.23 29.18,204.95 17.31,208.25 -7.81,215.27 -32.65,222.27 -35.52,223.07 -56.27,228.83 -65.85,231.48 -70.68,233.77 -79.83,238.31 -98.01,247.53 -99.27,248.17 -103.49,250.28 -106.06,251.57 -109.66,253.45 -122.42,260.15 -145.69,273.20 -165.12,283.38 -167.90,284.84 -171.62,285.07 -173.85,286.26 -174.29,286.49 -195.38,298.05 -199.79,298.03 -204.86,300.68 -206.63,301.61 -208.12,302.39 -211.65,304.23 -214.42,310.57 -226.36,316.96 -230.15,318.99 -234.25,321.22 -250.86,330.26 -259.44,334.93 -263.76,336.18" fill="none" stroke="#bcbcbc" stroke-width="8" stroke-linecap="round" stroke-linejoin="round" /><polyline points="406.13,557.46 397.27,558.27 369.60,560.81 368.35,560.92 366.59,561.09 363.73,561.35 336.90,563.81 327.57,562.95 316.70,565.67 308.00,567.80 303.36,568.94 291.84,569.38 281.87,568.87 276.79,568.33 272.46,567.02 269.27,565.26 257.41,556.87 228.58,537.07 225.86,535.23 223.10,533.35 221.03,531.35" fill="none" stroke="#bcbcbc" stroke-width="8" stroke-linecap="round" stroke-linejoin="round" /><polyline points="-246.79,223.17 -236.33,243.64 -234.75,249.50 -225.94,266.31 -222.30,271.12 -207.57,299.78 -206.63,301.61" fill="none" stroke="#bcbcbc" stroke-width="8" stroke-linecap="round" stroke-linejoin="round" /><polyline points="73.77,405.29 72.20,409.60 71.76,410.93 69.72,417.13 56.78,453.24 50.35,471.17 50.13,471.78 47.55,477.35 46.07,480.66" fill="none" stroke="#bcbcbc" stroke-width="8" stroke-linecap="round" stroke-linejoin="round" /><polyline points="245.45,88.41 244.02,85.34 240.25,84.84 228.05,87.64 225.57,87.32 223.63,84.71 220.18,68.84 238.87,65.95 247.53,63.39 251.76,62.95 256.32,79.16" fill="none" stroke="#bcbcbc" stroke-width="8" stroke-linecap="round" stroke-linejoin="round" /><polyline points="313.02,263.93 317.84,261.23 342.03,246.65 348.49,242.80 359.80,236.05 378.42,224.02 382.76,220.89 415.42,200.64" fill="none" stroke="#bcbcbc" stroke-width="8" stroke-linecap="round" stroke-linejoin="round" /><polyline points="427.16,359.61 418.90,357.15 414.11,353.22 395.76,337.34 395.14,336.79 390.71,332.83 388.10,328.21 342.03,246.65" fill="none" stroke="#bcbcbc" stroke-width="8" stroke-linecap="round" stroke-linejoin="round" /><polyline points="-92.81,353.15 -20.52,375.39 -14.62,377.26 39.33,394.36 40.45,394.72 48.54,397.28 52.51,398.54 57.67,399.96 68.32,403.56 73.77,405.29 78.67,406.84 118.81,419.58 161.20,432.90 164.70,434.00 169.56,431.61" fill="none" stroke="#bcbcbc" stroke-width="8" stroke-linecap="round" stroke-linejoin="round" /><polyline points="119.75,-3.76 151.06,-32.53 156.36,-37.40" fill="none" stroke="#bcbcbc" stroke-width="8" stroke-linecap="round" stroke-linejoin="round" /><polyline points="-404.61,460.54 -289.71,472.86" fill="none" stroke="#bcbcbc" stroke-width="8" stroke-linecap="round" stroke-linejoin="round" /><polyline points="-57.99,139.82 -33.84,131.18 -8.93,122.17 6.55,116.16 53.80,98.97 67.52,94.22 70.38,93.23 73.82,92.05 77.68,90.73 78.15,90.56 85.93,87.43 89.32,86.07" fill="none" stroke="#bcbcbc" stroke-width="8" stroke-linecap="round" stroke-linejoin="round" /><polyline points="104.21,724.24 126.95,752.29 140.87,766.31 146.89,770.65 155.43,777.79 163.44,784.52 170.32,791.24 170.49,794.65" fill="none" stroke="#bcbcbc" stroke-width="8" stroke-linecap="round" stroke-linejoin="round" /><polyline points="128.70,77.31 137.61,54.97 152.04,18.20 172.70,-34.49 182.91,-59.44 198.13,-96.66 210.60,-127.14 212.84,-131.19 223.81,-149.13 224.52,-150.29 228.53,-158.18 235.57,-169.02 239.50,-175.07 245.06,-183.63" fill="none" stroke="#bcbcbc" stroke-width="8" stroke-linecap="round" stroke-linejoin="round" /><polyline points="-81.51,674.50 -82.97,675.67 -83.93,677.06 -85.90,682.85 -87.26,687.04 -93.54,705.81 -94.40,708.52 -94.94,710.20 -100.70,708.55 -114.73,703.84 -128.63,699.18 -139.38,698.57" fill="none" stroke="#bcbcbc" stroke-width="8" stroke-linecap="round" stroke-linejoin="round" /><polyline points="-356.27,805.13 -333.36,745.96 -330.81,739.52 -328.52,733.32 -325.76,725.82 -322.37,714.03 -318.84,699.37 -317.39,688.87 -316.34,681.24 -314.86,675.61 -309.46,633.30 -303.16,579.90 -299.90,554.45 -296.27,524.54 -289.71,472.86 -288.67,464.07 -282.05,410.01 -282.04,407.00 -280.58,390.96 -276.35,357.08 -275.29,351.17 -274.19,347.86 -272.46,344.21 -270.78,341.37 -267.07,337.36 -263.76,336.22" fill="none" stroke="#bcbcbc" stroke-width="8" stroke-linecap="round" stroke-linejoin="round" /><polyline points="143.92,355.70 145.18,357.69 149.38,364.25 155.67,374.34 157.18,376.74 159.69,374.83 171.86,365.60" fill="none" stroke="#bcbcbc" stroke-width="8" stroke-linecap="round" stroke-linejoin="round" /><polyline points="152.04,18.20 275.83,40.58 288.84,47.42 337.34,71.47 341.61,70.15" fill="none" stroke="#bcbcbc" stroke-width="8" stroke-linecap="round" stroke-linejoin="round" /><polyline points="-84.31,298.71 -86.50,301.91 -106.25,311.55 -120.76,329.99 -136.41,339.68 -147.12,347.77 -157.33,356.10 -162.57,360.87 -171.82,372.60 -182.16,387.43 -183.86,390.18" fill="none" stroke="#bcbcbc" stroke-width="8" stroke-linecap="round" stroke-linejoin="round" /><polyline points="-63.43,311.93 -64.28,313.84 -66.15,316.58 -69.69,320.93 -90.56,347.29 -101.59,377.02 -157.30,356.07" fill="none" stroke="#bcbcbc" stroke-width="8" stroke-linecap="round" stroke-linejoin="round" /><polyline points="-147.12,347.77 -149.27,341.23 -158.60,313.01 -162.21,307.43 -168.27,289.25 -168.80,287.69 -167.90,284.84 -169.35,280.21 -198.48,187.19" fill="none" stroke="#bcbcbc" stroke-width="8" stroke-linecap="round" stroke-linejoin="round" /><polyline points="194.22,-159.76 217.24,-159.15 218.31,-159.12 222.73,-159.00 228.53,-158.18" fill="none" stroke="#bcbcbc" stroke-width="8" stroke-linecap="round" stroke-linejoin="round" /><polyline points="75.80,590.23 67.94,590.13 1.38,599.07 -3.42,599.57 -8.91,600.15 -40.76,603.51 -83.67,608.05 -106.42,610.45 -119.00,611.77 -129.22,613.02 -134.47,613.65 -140.38,614.37 -168.93,617.84 -175.77,618.67 -196.85,620.98 -309.46,633.30" fill="none" stroke="#bcbcbc" stroke-width="8" stroke-linecap="round" stroke-linejoin="round" /><polyline points="-22.75,821.34 -28.65,819.45 -56.19,810.58 -61.75,808.79 -66.59,807.23 -95.76,797.86 -101.52,796.01 -109.13,793.56 -155.58,778.61 -160.80,776.93" fill="none" stroke="#bcbcbc" stroke-width="8" stroke-linecap="round" stroke-linejoin="round" /><polyline points="92.41,263.71 108.43,268.70 167.02,286.79 167.56,286.96 171.91,287.23" fill="none" stroke="#bcbcbc" stroke-width="8" stroke-linecap="round" stroke-linejoin="round" /><polyline points="257.25,131.77 336.94,133.17" fill="none" stroke="#bcbcbc" stroke-width="8" stroke-linecap="round" stroke-linejoin="round" /><polyline points="218.23,831.94 206.84,818.40 202.06,812.84 197.95,809.00 192.48,804.92 181.31,798.21 170.49,794.65 148.49,787.86 130.49,782.15 140.87,766.31" fill="none" stroke="#bcbcbc" stroke-width="8" stroke-linecap="round" stroke-linejoin="round" /><polyline points="104.21,724.24 88.35,704.66 85.33,700.94 69.35,678.93 65.74,672.21 66.61,664.20 71.42,664.16 83.31,666.44 101.39,669.92" fill="none" stroke="#bcbcbc" stroke-width="8" stroke-linecap="round" stroke-linejoin="round" /><polyline points="-103.30,567.36 -100.38,573.65 -83.67,608.05 -58.83,659.19 -55.66,665.71" fill="none" stroke="#bcbcbc" stroke-width="8" stroke-linecap="round" stroke-linejoin="round" /><polyline points="-370.88,723.14 -364.90,725.58 -336.92,737.02 -330.81,739.52 -324.38,742.15 -291.43,755.62 -285.47,758.06" fill="none" stroke="#bcbcbc" stroke-width="8" stroke-linecap="round" stroke-linejoin="round" /><polyline points="-89.55,516.37 -31.25,541.87" fill="none" stroke="#bcbcbc" stroke-width="8" stroke-linecap="round" stroke-linejoin="round" /><polyline points="171.91,287.23 180.79,287.70 181.35,288.20 185.34,291.74 191.19,296.97 192.28,299.07 212.46,316.75 213.95,319.57 228.15,332.10 231.72,333.19 242.76,342.86 245.24,343.99 261.89,358.11 265.59,361.40 267.64,364.65" fill="none" stroke="#bcbcbc" stroke-width="8" stroke-linecap="round" stroke-linejoin="round" /><polyline points="-387.33,516.42 -296.27,524.54" fill="none" stroke="#bcbcbc" stroke-width="8" stroke-linecap="round" stroke-linejoin="round" /><polyline points="-184.00,855.54 -181.18,849.53 -180.45,846.86 -176.50,832.28 -162.17,781.76 -160.80,776.93 -159.35,771.62 -152.86,747.89 -141.90,707.81 -139.38,698.57" fill="none" stroke="#bcbcbc" stroke-width="8" stroke-linecap="round" stroke-linejoin="round" /><polyline points="-103.30,567.36 -89.55,516.37 -118.70,506.17 -126.34,510.67 -129.82,513.32 -132.39,516.81 -134.20,521.41 -140.91,546.19 -135.50,548.94 -130.04,550.27 -117.95,553.41 -108.91,556.29 -103.30,567.36" fill="none" stroke="#bcbcbc" stroke-width="8" stroke-linecap="round" stroke-linejoin="round" /><polyline points="-140.91,546.19 -147.29,545.30 -296.27,524.54" fill="none" stroke="#bcbcbc" stroke-width="8" stroke-linecap="round" stroke-linejoin="round" /><polyline points="101.39,669.92 115.21,672.94 152.58,684.82 163.03,688.12 187.83,695.29 212.81,702.49 231.31,707.84 260.89,716.38 267.00,718.15 281.93,723.15 306.51,729.70 308.68,730.10" fill="none" stroke="#bcbcbc" stroke-width="8" stroke-linecap="round" stroke-linejoin="round" /><polyline points="118.92,885.82 113.87,887.09 108.42,902.28 99.97,899.88 61.53,886.78 56.91,885.79 46.62,885.05 0.07,885.24 -10.19,883.93 -33.37,880.39 -42.71,878.87 -109.01,868.18 -134.68,864.08 -183.64,855.60 -191.54,854.04 -302.03,823.15 -309.00,821.20 -356.27,805.14 -367.90,801.01 -396.94,788.97 -413.50,782.71" fill="none" stroke="#bcbcbc" stroke-width="8" stroke-linecap="round" stroke-linejoin="round" /><polyline points="220.18,68.84 215.39,67.86 151.54,75.41 128.70,77.31" fill="none" stroke="#bcbcbc" stroke-width="8" stroke-linecap="round" stroke-linejoin="round" /><polyline points="101.39,669.92 103.63,666.18 117.03,631.76 132.00,579.72 135.82,568.51 137.86,565.46 152.32,519.05 153.04,513.51 153.58,509.89" fill="none" stroke="#bcbcbc" stroke-width="8" stroke-linecap="round" stroke-linejoin="round" /><polyline points="167.20,167.20 168.73,166.62 170.79,164.97 173.94,161.30 214.71,102.79 225.57,87.32" fill="none" stroke="#bcbcbc" stroke-width="8" stroke-linecap="round" stroke-linejoin="round" /><polyline points="348.68,382.13 349.51,379.73 370.01,355.61 371.51,354.81 375.07,349.94 387.00,336.24 390.71,332.83" fill="none" stroke="#bcbcbc" stroke-width="8" stroke-linecap="round" stroke-linejoin="round" /><polyline points="366.59,561.09 366.30,557.86 366.09,555.36 365.01,550.59 363.71,547.48 362.10,539.30 361.96,536.34 360.87,529.72 355.99,527.17 352.09,528.66 345.11,530.33 339.59,531.19 334.29,532.47 326.97,534.14 323.64,534.90" fill="none" stroke="#bcbcbc" stroke-width="8" stroke-linecap="round" stroke-linejoin="round" /><polyline points="-171.91,442.66 -157.00,407.71 -156.17,405.44" fill="none" stroke="#bcbcbc" stroke-width="8" stroke-linecap="round" stroke-linejoin="round" /><polyline points="220.94,378.58 228.12,375.79 231.88,374.34 234.78,371.40 246.76,368.45 250.78,369.47 259.45,367.24 266.06,365.53 267.64,364.65 274.05,363.08 306.84,355.05 314.27,352.83" fill="none" stroke="#bcbcbc" stroke-width="8" stroke-linecap="round" stroke-linejoin="round" /><polyline points="-81.51,674.50 -66.04,668.88 -60.87,667.30 -55.66,665.71 -46.05,662.77 -38.57,661.70 -13.03,658.90 -7.90,658.62 14.95,658.82 28.87,658.94 34.11,658.67 42.49,659.52 45.12,659.89 50.46,660.66 66.61,664.20" fill="none" stroke="#bcbcbc" stroke-width="8" stroke-linecap="round" stroke-linejoin="round" /><polyline points="-7.81,215.27 -10.37,206.61 -19.89,174.42 -31.45,137.73 -33.84,131.18 -36.26,125.04 -39.33,116.19" fill="none" stroke="#bcbcbc" stroke-width="8" stroke-linecap="round" stroke-linejoin="round" /><polyline points="-35.49,734.15 -33.46,727.73 -12.90,662.89 -13.03,658.90" fill="none" stroke="#bcbcbc" stroke-width="8" stroke-linecap="round" stroke-linejoin="round" /><polyline points="-7.90,658.62 -3.83,604.03 -3.42,599.57 -2.80,594.39 -2.79,594.16 -2.52,587.83 -1.16,570.64 -0.39,562.64 0.65,553.54 1.61,547.00 2.46,542.89 3.54,539.78 5.66,532.78 10.02,518.20 15.58,499.38 21.70,480.14 22.95,476.22 23.95,473.37" fill="none" stroke="#bcbcbc" stroke-width="8" stroke-linecap="round" stroke-linejoin="round" /><polyline points="-140.91,546.19 -141.99,551.03 -141.81,552.57 -135.17,607.80 -134.47,613.65 -134.77,619.67 -136.51,654.02 -137.24,668.38 -137.61,675.78 -138.28,688.97 -138.63,695.84 -139.38,698.57" fill="none" stroke="#bcbcbc" stroke-width="8" stroke-linecap="round" stroke-linejoin="round" /><polyline points="-171.91,442.66 -196.03,435.49 -199.09,433.52 -214.10,429.15 -218.32,429.19 -237.18,423.51 -240.23,421.26 -257.39,416.06 -278.45,410.32 -278.55,410.31 -282.05,410.01" fill="none" stroke="#bcbcbc" stroke-width="8" stroke-linecap="round" stroke-linejoin="round" /><polyline points="267.64,364.65 268.48,365.75 271.97,370.97 278.44,380.60 284.53,386.70 296.23,399.84 294.25,411.97 293.24,416.53 291.85,418.45 294.78,422.79 299.32,432.13 308.39,449.63 312.86,458.24 315.63,465.99 316.89,469.58" fill="none" stroke="#bcbcbc" stroke-width="8" stroke-linecap="round" stroke-linejoin="round" /><polyline points="328.72,389.65 325.36,390.70 303.21,397.59 300.04,398.61 296.23,399.84" fill="none" stroke="#bcbcbc" stroke-width="8" stroke-linecap="round" stroke-linejoin="round" /><polyline points="169.56,431.61 176.49,429.37 226.76,403.69 233.49,400.41 257.19,393.56 280.16,387.10 284.53,386.70" fill="none" stroke="#bcbcbc" stroke-width="8" stroke-linecap="round" stroke-linejoin="round" /><polyline points="175.04,463.39 233.00,436.42 235.44,434.81 241.10,433.16 279.73,421.92 285.58,419.68 291.85,418.45" fill="none" stroke="#bcbcbc" stroke-width="8" stroke-linecap="round" stroke-linejoin="round" /><polyline points="163.21,-102.08 186.67,-99.18 189.03,-98.89 198.13,-96.66" fill="none" stroke="#bcbcbc" stroke-width="8" stroke-linecap="round" stroke-linejoin="round" /><polyline points="363.71,136.46 367.87,135.60 383.42,143.22 385.46,145.24 414.65,194.65 415.42,200.64 419.21,203.80 418.61,205.98 418.52,209.54 419.04,214.52 426.77,246.29 427.46,268.29 428.54,303.43 430.36,350.71 422.95,371.32 418.19,383.88 411.22,401.58 409.21,406.70 407.90,408.13 405.80,421.83" fill="none" stroke="#bcbcbc" stroke-width="8" stroke-linecap="round" stroke-linejoin="round" /><polyline points="417.67,505.28 410.57,502.19 392.83,489.81 369.43,473.37 356.56,462.96 347.88,453.66" fill="none" stroke="#bcbcbc" stroke-width="8" stroke-linecap="round" stroke-linejoin="round" /><polyline points="130.49,782.15 123.52,779.94 112.21,776.35 106.81,774.64 100.47,772.63 92.46,770.09 85.22,767.79 78.06,765.52 46.13,755.39 40.54,753.61 33.59,751.41 32.06,750.93 13.80,746.10 8.64,744.86 2.18,743.29 -4.59,741.65 -28.96,735.74 -35.49,734.15 -42.52,731.72 -57.19,726.62 -62.72,724.70 -67.67,723.09 -90.65,714.92 -93.54,713.20 -94.94,710.20" fill="none" stroke="#bcbcbc" stroke-width="8" stroke-linecap="round" stroke-linejoin="round" /><polyline points="235.44,434.81 233.74,428.74 228.70,410.65 226.76,403.69 223.96,398.50 223.70,397.53 222.04,391.41 223.97,388.69 221.65,380.98 220.94,378.58" fill="none" stroke="#bcbcbc" stroke-width="8" stroke-linecap="round" stroke-linejoin="round" /><polyline points="227.00,213.45 231.80,211.19 258.00,196.75 272.98,187.11 283.54,179.90 285.87,178.17 294.38,172.26 303.19,165.75 308.77,161.69 315.42,156.83 338.53,146.39 341.53,146.55 345.91,144.48 363.71,136.46" fill="none" stroke="#bcbcbc" stroke-width="8" stroke-linecap="round" stroke-linejoin="round" /><polyline points="-63.43,311.93 -59.65,313.47 -57.15,314.24 -10.29,328.63 -3.13,330.83" fill="none" stroke="#bcbcbc" stroke-width="8" stroke-linecap="round" stroke-linejoin="round" /><polyline points="-398.12,417.31 -431.60,407.18" fill="none" stroke="#bcbcbc" stroke-width="8" stroke-linecap="round" stroke-linejoin="round" /><polyline points="142.63,-54.80 150.93,-44.28 152.17,-42.71 156.36,-37.40 161.14,-36.84 170.95,-35.69 172.70,-34.49" fill="none" stroke="#bcbcbc" stroke-width="8" stroke-linecap="round" stroke-linejoin="round" /><polyline points="430.86,412.90 417.71,415.36 404.22,422.68 391.72,429.64 379.90,435.56 365.61,443.32 355.27,449.60 334.82,460.56 255.01,500.71 234.32,509.83 220.65,515.74 213.87,517.96 208.27,519.01 199.09,519.56 186.04,517.71 153.46,509.89 107.21,499.11 46.37,480.76 23.95,473.37 -12.75,462.04 -47.85,450.46 -99.33,430.26 -125.07,419.17 -156.11,405.38 -207.59,377.17 -219.66,369.17 -250.21,349.95 -263.02,337.14 -282.23,312.26 -313.89,279.62 -326.33,268.66" fill="none" stroke="#bcbcbc" stroke-width="8" stroke-linecap="round" stroke-linejoin="round" /><polyline points="181.31,798.21 181.85,795.20 183.79,790.29 202.05,747.56 208.95,731.55 217.08,711.60 219.06,704.29" fill="none" stroke="#bcbcbc" stroke-width="8" stroke-linecap="round" stroke-linejoin="round" /><polyline points="-168.93,617.84 -189.67,607.80 -236.86,584.96 -294.74,556.95 -299.90,554.45" fill="none" stroke="#bcbcbc" stroke-width="8" stroke-linecap="round" stroke-linejoin="round" /><polyline points="171.91,287.23 177.14,281.87 191.07,267.62 202.12,255.55" fill="none" stroke="#bcbcbc" stroke-width="8" stroke-linecap="round" stroke-linejoin="round" /><polyline points="-230.15,318.99 -235.90,311.37 -262.86,275.68 -301.34,244.54" fill="none" stroke="#bcbcbc" stroke-width="8" stroke-linecap="round" stroke-linejoin="round" /><polyline points="-397.15,788.88 -391.89,776.40 -375.16,734.69 -373.13,729.21 -370.88,723.14 -370.02,720.95 -369.80,717.51 -367.66,685.08 -367.04,675.78" fill="none" stroke="#bcbcbc" stroke-width="8" stroke-linecap="round" stroke-linejoin="round" /><polyline points="-408.57,453.54 -398.12,417.31 -384.34,369.53 -382.63,363.61 -380.74,356.89 -376.49,341.85 -376.04,340.27 -374.83,335.43 -372.89,329.96 -372.42,328.63 -369.97,322.56 -365.16,311.95 -363.72,308.91" fill="none" stroke="#bcbcbc" stroke-width="8" stroke-linecap="round" stroke-linejoin="round" /><polyline points="-382.63,363.61 -361.50,369.02 -316.73,380.53 -291.22,388.47 -280.58,390.96" fill="none" stroke="#bcbcbc" stroke-width="8" stroke-linecap="round" stroke-linejoin="round" /><polyline points="52.43,199.22 53.14,194.82 53.87,190.25 56.97,174.98 64.71,139.42 71.08,107.61 72.24,101.01 73.82,92.05 73.82,92.04" fill="none" stroke="#bcbcbc" stroke-width="8" stroke-linecap="round" stroke-linejoin="round" /><polyline points="-10.15,883.94 -0.72,859.87 0.46,855.54 37.91,760.47 40.54,753.61 42.67,747.79 65.05,682.69 69.35,678.93" fill="none" stroke="#bcbcbc" stroke-width="8" stroke-linecap="round" stroke-linejoin="round" /><polyline points="118.22,180.81 118.22,180.81 116.89,173.84 116.68,173.00 113.45,159.84 113.45,159.80 111.24,150.88 101.90,118.85 100.72,115.42 94.41,98.26 92.36,93.14 91.04,89.83 89.32,86.08 89.32,86.07 89.31,86.06 88.06,72.26 87.94,65.49" fill="none" stroke="#bcbcbc" stroke-width="8" stroke-linecap="round" stroke-linejoin="round" /><polyline points="104.21,724.24 101.81,726.84 98.23,731.10 88.14,759.55 85.22,767.79" fill="none" stroke="#bcbcbc" stroke-width="8" stroke-linecap="round" stroke-linejoin="round" /><polyline points="-63.43,311.93 -62.05,308.20 -61.74,307.33 -55.18,289.03 -52.73,281.32 -32.65,222.27" fill="none" stroke="#bcbcbc" stroke-width="8" stroke-linecap="round" stroke-linejoin="round" /><polyline points="40.45,394.72 42.50,389.28 48.05,374.54 50.40,368.30 51.99,364.09 56.44,352.26 59.38,344.44 59.78,343.39 66.90,324.46 69.88,325.39 71.50,320.99 74.35,313.22 73.80,309.68 81.39,289.04 82.16,286.93 83.60,285.60 84.81,284.49 92.41,263.71 93.51,258.02 104.42,227.71 107.00,225.70 112.25,210.85 111.31,208.57 115.91,194.70 113.53,182.32" fill="none" stroke="#bcbcbc" stroke-width="8" stroke-linecap="round" stroke-linejoin="round" /><polyline points="235.57,-169.02 232.51,-174.04 216.45,-200.39" fill="none" stroke="#bcbcbc" stroke-width="8" stroke-linecap="round" stroke-linejoin="round" /><polyline points="285.87,178.17 359.58,225.56 359.60,225.60 359.60,225.60 373.23,227.37" fill="none" stroke="#bcbcbc" stroke-width="8" stroke-linecap="round" stroke-linejoin="round" /><polyline points="256.32,79.16 334.74,118.52 337.10,120.29 336.94,133.17 338.53,146.39" fill="none" stroke="#bcbcbc" stroke-width="8" stroke-linecap="round" stroke-linejoin="round" /><polyline points="106.81,774.64 103.99,783.24 92.57,818.09 73.13,876.78 71.75,880.94 70.36,885.16 69.97,889.65" fill="none" stroke="#bcbcbc" stroke-width="8" stroke-linecap="round" stroke-linejoin="round" /><polyline points="327.57,562.95 328.04,558.57 328.14,554.49 328.11,554.35 325.33,542.34 324.19,537.32 323.64,534.90 323.08,532.43 320.03,518.99 314.07,492.13 309.74,475.98 309.12,473.49" fill="none" stroke="#bcbcbc" stroke-width="8" stroke-linecap="round" stroke-linejoin="round" /><polyline points="-61.75,808.79 -59.81,803.26 -37.97,741.20 -35.49,734.15" fill="none" stroke="#bcbcbc" stroke-width="8" stroke-linecap="round" stroke-linejoin="round" /><polyline points="428.54,303.42 422.11,301.61 378.49,234.66 373.23,227.37" fill="none" stroke="#bcbcbc" stroke-width="8" stroke-linecap="round" stroke-linejoin="round" /><polyline points="-288.67,464.07 -129.67,502.16 -118.70,506.17" fill="none" stroke="#bcbcbc" stroke-width="8" stroke-linecap="round" stroke-linejoin="round" /><polyline points="212.84,-131.19 274.77,-108.24 283.49,-109.73" fill="none" stroke="#bcbcbc" stroke-width="8" stroke-linecap="round" stroke-linejoin="round" />
    <polyline points="167.20,167.20 167.40,169.97 167.81,172.77 168.79,174.91 170.64,177.30 174.07,180.42 182.17,185.35 244.72,224.59 283.24,276.24 312.34,348.06 314.24,352.80" fill="none" stroke="#ffffff" stroke-width="16" stroke-linecap="round" stroke-linejoin="round" />
    <polyline points="167.20,167.20 167.40,169.97 167.81,172.77 168.79,174.91 170.64,177.30 174.07,180.42 182.17,185.35 244.72,224.59 283.24,276.24 312.34,348.06 314.24,352.80" fill="none" stroke="#111111" stroke-width="9" stroke-linecap="round" stroke-linejoin="round" />
    
            <g transform="translate(167.20,167.20)">
              <circle r="19" fill="#ffffff" stroke="#111111" stroke-width="4" />
              <text text-anchor="middle" dominant-baseline="central" font-family="Helvetica, Arial, sans-serif"
                font-size="18" font-weight="700" fill="#111111">1</text>
            </g>
            
            <g transform="translate(314.24,352.80)">
              <circle r="19" fill="#ffffff" stroke="#111111" stroke-width="4" />
              <text text-anchor="middle" dominant-baseline="central" font-family="Helvetica, Arial, sans-serif"
                font-size="18" font-weight="700" fill="#111111">2</text>
            </g>
            
  </g>
</svg>
