<svg xmlns="http://www.w3.org/2000/svg" width="520" height="520" viewBox="0 0 520 520">
  <rect width="100%" height="100%" fill="#ffffff" />
  <g>
    <polyline points="436.58,-146.19 438.50,-135.97 450.89,-49.29 449.00,-27.62" fill="none" stroke="#bcbcbc" stroke-width="8" stroke-linecap="round" stroke-linejoin="round" /><polyline points="184.72,576.18 187.71,566.97 203.59,518.16 205.46,512.40 207.35,506.36 247.26,379.08 250.47,368.85 243.12,350.74" fill="none" stroke="#bcbcbc" stroke-width="8" stroke-linecap="round" stroke-linejoin="round" /><polyline points="-90.99,462.97 -91.63,455.67 -78.58,382.58 -76.75,373.44 -75.38,368.65 -71.79,350.12 -67.76,327.43 -63.36,307.45 -59.00,287.52 -56.25,281.90 -54.45,278.45" fill="none" stroke="#bcbcbc" stroke-width="8" stroke-linecap="round" stroke-linejoin="round" /><polyline points="-15.24,-52.56 -18.34,-62.02 -50.41,-159.82 -51.98,-163.92" fill="none" stroke="#bcbcbc" stroke-width="8" stroke-linecap="round" stroke-linejoin="round" /><polyline points="-179.79,808.21 -178.83,798.88 -178.44,794.59 -174.95,755.98 -171.13,721.98 -170.24,714.04 -169.41,704.51 -169.32,703.71 -167.15,684.77 -165.28,665.52 -163.23,646.95 -161.84,632.49 -161.26,623.56 -160.75,615.32 -159.84,606.03" fill="none" stroke="#bcbcbc" stroke-width="8" stroke-linecap="round" stroke-linejoin="round" /><polyline points="263.31,598.88 265.59,591.70 281.69,541.11 283.51,535.36 286.11,527.18 287.97,521.31 302.22,459.88" fill="none" stroke="#bcbcbc" stroke-width="8" stroke-linecap="round" stroke-linejoin="round" /><polyline points="200.76,-401.70 206.70,-400.79 370.45,-375.63" fill="none" stroke="#bcbcbc" stroke-width="8" stroke-linecap="round" stroke-linejoin="round" /><polyline points="-219.63,586.96 -236.67,586.16 -247.06,585.68 -252.71,585.42 -257.66,585.19 -296.26,583.39 -349.94,580.89 -375.53,577.27 -384.09,576.05 -391.52,574.74 -441.85,565.86 -448.89,564.62 -450.44,564.35 -459.13,562.86 -465.81,561.72 -508.46,557.95 -516.58,557.23 -519.56,556.96 -528.78,556.33 -546.83,555.07" fill="none" stroke="#bcbcbc" stroke-width="8" stroke-linecap="round" stroke-linejoin="round" /><polyline points="27.99,537.51 31.30,528.11 61.05,445.65 96.83,341.63 99.13,335.11 100.72,330.55 102.02,326.81" fill="none" stroke="#bcbcbc" stroke-width="8" stroke-linecap="round" stroke-linejoin="round" /><polyline points="-519.56,556.96 -520.32,551.66 -520.50,545.90 -519.37,534.31 -516.78,513.13 -515.05,506.02 -512.25,480.33 -511.74,474.60 -510.91,467.25 -510.30,461.78 -509.16,455.59 -507.02,438.92 -505.54,426.17 -503.37,420.96" fill="none" stroke="#bcbcbc" stroke-width="8" stroke-linecap="round" stroke-linejoin="round" /><polyline points="-550.01,414.44 -510.33,419.99 -503.37,420.96 -499.06,421.64 -481.28,424.48 -440.29,431.01 -433.26,432.18" fill="none" stroke="#bcbcbc" stroke-width="8" stroke-linecap="round" stroke-linejoin="round" /><polyline points="180.26,-106.10 180.52,-102.49 181.06,-98.84 182.34,-96.04 184.76,-92.92 189.22,-88.86 199.79,-82.43 281.38,-31.24 331.63,36.12 369.58,129.79 372.06,135.98" fill="none" stroke="#bcbcbc" stroke-width="8" stroke-linecap="round" stroke-linejoin="round" /><polyline points="-441.37,746.76 -440.24,739.81 -439.19,734.79 -438.91,734.12 -424.80,700.58 -415.81,678.77 -413.08,671.86 -410.18,664.55 -407.04,658.26 -406.53,657.03 -402.23,646.63 -398.91,637.43 -396.05,628.98 -394.24,623.02 -392.21,615.65 -389.87,605.76 -388.09,597.74 -385.97,586.55 -385.52,584.06 -384.09,576.05" fill="none" stroke="#bcbcbc" stroke-width="8" stroke-linecap="round" stroke-linejoin="round" /><polyline points="242.24,-190.10 287.23,-158.67 293.29,-157.38 297.72,-152.31" fill="none" stroke="#bcbcbc" stroke-width="8" stroke-linecap="round" stroke-linejoin="round" /><polyline points="53.33,100.22 59.27,102.51 85.09,110.95 144.97,133.92 148.32,137.26 149.90,139.76" fill="none" stroke="#bcbcbc" stroke-width="8" stroke-linecap="round" stroke-linejoin="round" /><polyline points="164.91,690.28 168.98,679.66 189.11,625.04 203.35,583.78 206.30,582.42" fill="none" stroke="#bcbcbc" stroke-width="8" stroke-linecap="round" stroke-linejoin="round" /><polyline points="-119.64,621.03 -116.46,614.01 -116.15,613.32 -110.72,595.09 -101.81,565.08 -99.53,557.40 -97.76,551.44 -97.52,547.96 -97.89,540.27" fill="none" stroke="#bcbcbc" stroke-width="8" stroke-linecap="round" stroke-linejoin="round" /><polyline points="250.36,169.60 245.25,170.65 233.69,168.59 231.90,163.82 211.86,156.18 207.12,157.42 189.04,150.78 186.34,152.67" fill="none" stroke="#bcbcbc" stroke-width="8" stroke-linecap="round" stroke-linejoin="round" /><polyline points="220.60,-450.24 229.68,-448.02 234.71,-447.15 354.16,-426.43" fill="none" stroke="#bcbcbc" stroke-width="8" stroke-linecap="round" stroke-linejoin="round" /><polyline points="127.76,657.02 132.73,643.02 142.39,615.79 148.63,604.19 157.61,579.05 161.19,569.02" fill="none" stroke="#bcbcbc" stroke-width="8" stroke-linecap="round" stroke-linejoin="round" /><polyline points="-526.73,113.32 -535.39,112.92 -537.56,115.55 -552.63,133.87 -605.32,194.73 -612.73,203.29" fill="none" stroke="#bcbcbc" stroke-width="8" stroke-linecap="round" stroke-linejoin="round" /><polyline points="-64.59,165.44 -68.40,173.90 -68.87,174.92 -82.14,209.52 -95.51,247.61 -99.08,257.77 -101.10,263.01" fill="none" stroke="#bcbcbc" stroke-width="8" stroke-linecap="round" stroke-linejoin="round" /><polyline points="130.05,-223.34 134.27,-217.62 137.28,-209.76 141.96,-198.47 149.48,-180.72 156.14,-164.78 163.78,-147.28 169.45,-133.79 170.29,-131.86 170.34,-131.74 174.90,-121.07 176.26,-118.04 177.56,-115.15 178.93,-112.45 179.97,-109.70 180.26,-106.10" fill="none" stroke="#bcbcbc" stroke-width="8" stroke-linecap="round" stroke-linejoin="round" /><polyline points="-192.66,336.01 -190.45,334.80 -187.36,332.35 -185.82,329.17 -165.32,251.43 -164.70,247.05 -162.20,239.04" fill="none" stroke="#bcbcbc" stroke-width="8" stroke-linecap="round" stroke-linejoin="round" /><polyline points="524.18,214.37 527.08,223.60 529.13,233.29 525.15,270.24 520.54,298.03 518.03,307.51 517.80,308.37 515.59,313.48 512.59,318.91 505.58,327.78 508.97,345.12 497.99,382.35 491.92,402.91 479.51,436.56 461.33,477.54 439.14,516.81 432.21,529.57 419.68,550.54 369.62,621.59 358.65,636.37 316.18,691.87 291.79,719.61 257.69,754.28 254.53,754.60 246.83,760.90" fill="none" stroke="#bcbcbc" stroke-width="8" stroke-linecap="round" stroke-linejoin="round" /><polyline points="-93.54,822.12 -79.56,778.78 -77.28,771.62 -74.17,767.11 -67.50,747.08 -65.32,740.28 -37.76,653.96 -34.98,645.28 -32.70,637.66 -0.16,535.26" fill="none" stroke="#bcbcbc" stroke-width="8" stroke-linecap="round" stroke-linejoin="round" /><polyline points="233.83,16.12 245.91,2.92 249.47,-1.38 273.88,-35.95" fill="none" stroke="#bcbcbc" stroke-width="8" stroke-linecap="round" stroke-linejoin="round" /><polyline points="-7.63,21.35 25.64,32.93 27.48,35.91 36.92,39.08 42.53,41.00 69.35,50.06" fill="none" stroke="#bcbcbc" stroke-width="8" stroke-linecap="round" stroke-linejoin="round" /><polyline points="282.34,-208.86 297.72,-152.31 315.54,-85.68 318.24,-80.13 318.67,-73.79 330.75,-51.24 363.34,9.55 370.47,20.06 372.53,23.14 421.24,114.20 443.62,134.54 446.76,138.60 451.19,142.38 493.69,178.72 496.57,181.19 504.20,185.24" fill="none" stroke="#bcbcbc" stroke-width="8" stroke-linecap="round" stroke-linejoin="round" /><polyline points="117.05,831.32 223.04,769.75 241.91,760.10 246.83,760.90" fill="none" stroke="#bcbcbc" stroke-width="8" stroke-linecap="round" stroke-linejoin="round" /><polyline points="231.97,743.24 238.54,735.42 297.58,617.62 301.49,609.90 304.76,602.25 323.83,555.09 329.51,540.89 345.95,491.14 356.60,427.19 357.87,417.88" fill="none" stroke="#bcbcbc" stroke-width="8" stroke-linecap="round" stroke-linejoin="round" /><polyline points="186.40,50.46 185.37,51.52 183.95,56.47 183.81,56.97 177.40,81.64 179.08,88.08 177.68,93.85 175.85,101.41 171.17,106.84 165.84,128.39 159.58,133.13 152.89,137.72 149.90,139.76" fill="none" stroke="#bcbcbc" stroke-width="8" stroke-linecap="round" stroke-linejoin="round" /><polyline points="-64.59,165.44 -61.86,158.46 -45.48,116.47 -41.91,107.32 -38.97,99.78 -18.04,46.16 -8.62,23.74 -7.63,21.35 -0.30,3.64 16.13,-37.15 22.14,-54.52 23.48,-58.50 25.28,-63.02" fill="none" stroke="#bcbcbc" stroke-width="8" stroke-linecap="round" stroke-linejoin="round" /><polyline points="118.69,-89.08 121.86,-79.65 225.81,9.14 282.53,58.48 367.25,132.13 374.64,138.04 377.96,140.12 392.66,153.46 412.29,170.21 456.82,208.17 471.20,220.54 480.75,231.96" fill="none" stroke="#bcbcbc" stroke-width="8" stroke-linecap="round" stroke-linejoin="round" /><polyline points="290.56,-242.07 295.83,-245.45 327.07,-258.43 333.49,-265.18" fill="none" stroke="#bcbcbc" stroke-width="8" stroke-linecap="round" stroke-linejoin="round" /><polyline points="326.64,548.07 283.51,535.36 205.46,512.40" fill="none" stroke="#bcbcbc" stroke-width="8" stroke-linecap="round" stroke-linejoin="round" /><polyline points="187.44,-369.15 193.33,-365.09 385.27,-322.38" fill="none" stroke="#bcbcbc" stroke-width="8" stroke-linecap="round" stroke-linejoin="round" /><polyline points="424.53,262.79 414.61,240.72 392.59,188.22 390.95,184.04 387.19,174.46 373.00,138.35 372.10,136.01" fill="none" stroke="#bcbcbc" stroke-width="8" stroke-linecap="round" stroke-linejoin="round" /><polyline points="130.05,-223.34 119.40,-226.37 111.57,-228.70 95.65,-233.43 87.56,-235.74 82.93,-237.02 76.88,-238.76" fill="none" stroke="#bcbcbc" stroke-width="8" stroke-linecap="round" stroke-linejoin="round" /><polyline points="-147.79,65.42 -148.33,63.66 -148.83,62.43 -151.02,56.97 -159.53,37.13 -167.62,16.98 -169.36,12.23 -171.37,6.75 -172.81,2.27 -175.19,-4.46 -175.44,-5.16 -183.18,-24.23 -197.38,-60.06 -200.57,-61.88 -202.84,-67.69 -207.37,-83.43 -215.13,-102.94 -216.80,-107.37" fill="none" stroke="#bcbcbc" stroke-width="8" stroke-linecap="round" stroke-linejoin="round" /><polyline points="-79.56,778.78 -71.50,781.25 -45.40,789.20 -37.23,791.69" fill="none" stroke="#bcbcbc" stroke-width="8" stroke-linecap="round" stroke-linejoin="round" /><polyline points="407.76,-232.68 409.28,-238.83 408.66,-241.17 407.92,-243.98 403.15,-261.44 392.53,-298.34 386.92,-317.20 385.27,-322.38 370.45,-375.63 362.46,-404.35 354.16,-426.43 346.67,-446.36 339.20,-460.05 331.95,-467.29 276.29,-535.31 272.17,-540.15 269.44,-544.62" fill="none" stroke="#bcbcbc" stroke-width="8" stroke-linecap="round" stroke-linejoin="round" /><polyline points="180.26,-106.10 177.39,-105.00 172.09,-103.54 171.56,-103.39 149.39,-97.72 123.90,-90.54 118.69,-89.08 116.38,-88.34 110.25,-86.37 105.02,-84.92 82.16,-78.56 44.57,-67.88 30.56,-64.34 25.28,-63.02 0.23,-56.87 -15.24,-52.56 -48.01,-43.40 -80.41,-34.27 -84.15,-33.23 -111.22,-25.72 -123.71,-22.25 -130.02,-19.27 -141.95,-13.36 -165.66,-1.33 -167.31,-0.49 -172.81,2.27 -176.17,3.95 -180.85,6.40 -197.51,15.13 -227.86,32.16 -253.20,45.44 -256.83,47.34 -261.67,47.64 -264.58,49.19 -265.17,49.50 -292.67,64.57 -298.42,64.54 -305.03,68.00 -307.34,69.21 -309.29,70.23 -313.89,72.63 -317.51,80.89 -333.07,89.23 -338.02,91.88 -343.38,94.79 -365.03,106.58 -376.23,112.67 -381.87,114.29" fill="none" stroke="#bcbcbc" stroke-width="8" stroke-linecap="round" stroke-linejoin="round" /><polyline points="491.92,402.91 480.36,403.97 444.27,407.28 442.64,407.43 440.34,407.64 436.61,407.98 401.62,411.19 389.44,410.06 375.27,413.62 363.91,416.40 357.87,417.88 342.84,418.45 329.83,417.79 323.20,417.09 317.56,415.38 313.41,413.08 297.93,402.14 260.33,376.31 256.78,373.91 253.17,371.46 250.47,368.85" fill="none" stroke="#bcbcbc" stroke-width="8" stroke-linecap="round" stroke-linejoin="round" /><polyline points="-359.73,-33.10 -346.09,-6.39 -344.02,1.24 -332.53,23.17 -327.78,29.44 -308.57,66.82 -307.34,69.21" fill="none" stroke="#bcbcbc" stroke-width="8" stroke-linecap="round" stroke-linejoin="round" /><polyline points="58.39,204.44 56.35,210.05 55.78,211.80 53.11,219.88 36.23,266.97 27.85,290.36 27.57,291.16 24.20,298.42 22.27,302.74" fill="none" stroke="#bcbcbc" stroke-width="8" stroke-linecap="round" stroke-linejoin="round" /><polyline points="282.34,-208.86 280.47,-212.87 275.55,-213.52 259.63,-209.87 256.40,-210.29 253.87,-213.68 249.37,-234.39 273.75,-238.16 285.04,-241.49 290.56,-242.07 296.51,-220.93" fill="none" stroke="#bcbcbc" stroke-width="8" stroke-linecap="round" stroke-linejoin="round" /><polyline points="370.47,20.06 376.75,16.54 408.30,-2.47 416.73,-7.49 431.49,-16.29 455.77,-32.00 461.44,-36.07 504.03,-62.49" fill="none" stroke="#bcbcbc" stroke-width="8" stroke-linecap="round" stroke-linejoin="round" /><polyline points="519.35,144.86 508.58,141.65 502.32,136.52 478.40,115.81 477.58,115.09 471.80,109.93 468.40,103.90 408.30,-2.47" fill="none" stroke="#bcbcbc" stroke-width="8" stroke-linecap="round" stroke-linejoin="round" /><polyline points="-158.88,136.43 -64.59,165.44 -56.89,167.88 13.47,190.19 14.94,190.65 25.48,193.99 30.67,195.64 37.40,197.48 51.29,202.18 58.39,204.44 64.79,206.46 117.15,223.07 172.43,240.44 177.00,241.88 183.34,238.77" fill="none" stroke="#bcbcbc" stroke-width="8" stroke-linecap="round" stroke-linejoin="round" /><polyline points="118.37,-329.08 159.22,-366.61 166.13,-372.96" fill="none" stroke="#bcbcbc" stroke-width="8" stroke-linecap="round" stroke-linejoin="round" /><polyline points="-565.59,276.50 -415.71,292.56" fill="none" stroke="#bcbcbc" stroke-width="8" stroke-linecap="round" stroke-linejoin="round" /><polyline points="-113.46,-141.81 -81.96,-153.08 -49.47,-164.83 -29.28,-172.67 32.36,-195.09 50.25,-201.28 53.98,-202.57 58.46,-204.11 63.49,-205.84 64.11,-206.05 74.26,-210.13 78.68,-211.91" fill="none" stroke="#bcbcbc" stroke-width="8" stroke-linecap="round" stroke-linejoin="round" /><polyline points="98.11,620.44 127.76,657.02 145.92,675.31 153.78,680.96 164.91,690.28 175.36,699.06 184.34,707.82 184.56,712.27" fill="none" stroke="#bcbcbc" stroke-width="8" stroke-linecap="round" stroke-linejoin="round" /><polyline points="130.05,-223.34 141.67,-252.47 160.49,-300.43 187.44,-369.15 200.76,-401.70 220.60,-450.24 236.88,-490.00 239.79,-495.28 254.10,-518.67 255.03,-520.19 260.26,-530.48 269.44,-544.62 274.57,-552.52 281.83,-563.68" fill="none" stroke="#bcbcbc" stroke-width="8" stroke-linecap="round" stroke-linejoin="round" /><polyline points="-144.14,555.56 -146.05,557.08 -147.31,558.89 -149.87,566.45 -151.64,571.91 -159.83,596.40 -160.96,599.93 -161.66,602.12 -169.17,599.97 -187.48,593.83 -205.61,587.75 -219.63,586.96" fill="none" stroke="#bcbcbc" stroke-width="8" stroke-linecap="round" stroke-linejoin="round" /><polyline points="-502.53,725.94 -472.64,648.77 -469.32,640.36 -466.33,632.27 -462.73,622.49 -458.31,607.11 -453.70,588.00 -451.82,574.30 -450.44,564.35 -448.51,557.00 -441.48,501.82 -433.26,432.18 -429.01,398.98 -424.26,359.98 -415.71,292.56 -414.36,281.10 -405.72,210.59 -405.71,206.67 -403.80,185.75 -398.29,141.56 -396.91,133.85 -395.47,129.53 -393.21,124.77 -391.02,121.07 -386.18,115.83 -381.86,114.35" fill="none" stroke="#bcbcbc" stroke-width="8" stroke-linecap="round" stroke-linejoin="round" /><polyline points="149.90,139.76 151.54,142.36 157.02,150.91 165.22,164.06 167.20,167.20 170.47,164.72 186.34,152.67" fill="none" stroke="#bcbcbc" stroke-width="8" stroke-linecap="round" stroke-linejoin="round" /><polyline points="160.49,-300.43 321.96,-271.24 338.92,-262.32 402.19,-230.96 407.76,-232.68" fill="none" stroke="#bcbcbc" stroke-width="8" stroke-linecap="round" stroke-linejoin="round" /><polyline points="-147.79,65.42 -150.66,69.60 -176.42,82.18 -195.34,106.22 -215.75,118.86 -229.72,129.41 -243.04,140.28 -249.87,146.50 -261.93,161.80 -275.42,181.14 -277.65,184.72" fill="none" stroke="#bcbcbc" stroke-width="8" stroke-linecap="round" stroke-linejoin="round" /><polyline points="-120.55,82.68 -121.67,85.16 -124.11,88.73 -128.73,94.41 -155.94,128.78 -170.34,167.56 -243.01,140.24" fill="none" stroke="#bcbcbc" stroke-width="8" stroke-linecap="round" stroke-linejoin="round" /><polyline points="-229.72,129.41 -232.53,120.89 -244.69,84.07 -249.41,76.80 -257.31,53.09 -258.00,51.05 -256.83,47.34 -258.72,41.30 -296.72,-80.02" fill="none" stroke="#bcbcbc" stroke-width="8" stroke-linecap="round" stroke-linejoin="round" /><polyline points="215.50,-532.54 245.53,-531.75 246.94,-531.71 252.69,-531.55 260.26,-530.48" fill="none" stroke="#bcbcbc" stroke-width="8" stroke-linecap="round" stroke-linejoin="round" /><polyline points="61.05,445.65 50.79,445.52 -36.03,457.18 -42.28,457.84 -49.44,458.59 -90.99,462.97 -146.96,468.89 -176.63,472.02 -193.05,473.75 -206.38,475.37 -213.22,476.20 -220.93,477.14 -258.17,481.66 -267.09,482.75 -294.59,485.75 -441.48,501.82" fill="none" stroke="#bcbcbc" stroke-width="8" stroke-linecap="round" stroke-linejoin="round" /><polyline points="-67.50,747.08 -75.19,744.61 -111.11,733.05 -118.37,730.71 -124.68,728.68 -162.74,716.45 -170.24,714.04 -180.17,710.84 -240.75,691.35 -247.57,689.15" fill="none" stroke="#bcbcbc" stroke-width="8" stroke-linecap="round" stroke-linejoin="round" /><polyline points="82.71,19.78 103.61,26.29 180.02,49.88 180.74,50.10 186.40,50.46" fill="none" stroke="#bcbcbc" stroke-width="8" stroke-linecap="round" stroke-linejoin="round" /><polyline points="297.72,-152.31 401.67,-150.48" fill="none" stroke="#bcbcbc" stroke-width="8" stroke-linecap="round" stroke-linejoin="round" /><polyline points="246.83,760.90 231.97,743.24 225.73,735.99 220.37,730.98 213.24,725.66 198.66,716.91 184.56,712.27 155.86,703.41 132.39,695.96 145.92,675.31" fill="none" stroke="#bcbcbc" stroke-width="8" stroke-linecap="round" stroke-linejoin="round" /><polyline points="98.11,620.44 77.41,594.90 73.48,590.04 52.64,561.33 47.92,552.57 49.05,542.13 55.34,542.07 70.84,545.05 94.42,549.59" fill="none" stroke="#bcbcbc" stroke-width="8" stroke-linecap="round" stroke-linejoin="round" /><polyline points="-172.56,415.82 -168.75,424.03 -146.96,468.89 -114.56,535.59 -110.42,544.09" fill="none" stroke="#bcbcbc" stroke-width="8" stroke-linecap="round" stroke-linejoin="round" /><polyline points="-521.58,619.00 -513.79,622.18 -477.29,637.11 -469.32,640.36 -460.93,643.79 -417.96,661.37 -410.18,664.55" fill="none" stroke="#bcbcbc" stroke-width="8" stroke-linecap="round" stroke-linejoin="round" /><polyline points="-154.63,349.31 -78.58,382.58" fill="none" stroke="#bcbcbc" stroke-width="8" stroke-linecap="round" stroke-linejoin="round" /><polyline points="186.40,50.46 197.99,51.07 198.73,51.72 203.92,56.34 211.56,63.15 212.97,65.90 239.30,88.95 241.25,92.63 259.76,108.97 264.42,110.39 278.83,123.00 282.05,124.48 303.77,142.90 308.61,147.19 311.27,151.44" fill="none" stroke="#bcbcbc" stroke-width="8" stroke-linecap="round" stroke-linejoin="round" /><polyline points="-543.05,349.39 -424.26,359.98" fill="none" stroke="#bcbcbc" stroke-width="8" stroke-linecap="round" stroke-linejoin="round" /><polyline points="-277.83,791.69 -274.15,783.85 -273.20,780.37 -268.04,761.35 -249.36,695.46 -247.57,689.15 -245.68,682.23 -237.21,651.28 -222.92,599.00 -219.63,586.96" fill="none" stroke="#bcbcbc" stroke-width="8" stroke-linecap="round" stroke-linejoin="round" /><polyline points="-172.56,415.82 -154.63,349.31 -192.66,336.01 -202.61,341.89 -207.15,345.34 -210.51,349.88 -212.88,355.88 -221.62,388.21 -214.57,391.80 -207.44,393.53 -191.68,397.63 -179.88,401.39 -172.56,415.82" fill="none" stroke="#bcbcbc" stroke-width="8" stroke-linecap="round" stroke-linejoin="round" /><polyline points="-221.62,388.21 -229.95,387.05 -424.26,359.98" fill="none" stroke="#bcbcbc" stroke-width="8" stroke-linecap="round" stroke-linejoin="round" /><polyline points="94.42,549.59 112.45,553.53 161.19,569.02 174.82,573.33 207.17,582.67 239.76,592.07 263.89,599.04 302.47,610.18 310.44,612.49 329.92,619.01 361.97,627.55 364.80,628.08" fill="none" stroke="#bcbcbc" stroke-width="8" stroke-linecap="round" stroke-linejoin="round" /><polyline points="117.29,831.18 110.71,832.83 103.60,852.65 92.57,849.52 42.44,832.43 36.40,831.14 22.98,830.18 -37.74,830.42 -51.12,828.72 -81.35,824.10 -93.54,822.12 -180.01,808.17 -213.49,802.83 -277.35,791.77 -287.66,789.72 -431.79,749.44 -440.88,746.90 -502.53,725.94 -517.70,720.56 -555.58,704.86 -577.18,696.69" fill="none" stroke="#bcbcbc" stroke-width="8" stroke-linecap="round" stroke-linejoin="round" /><polyline points="249.37,-234.39 243.13,-235.67 159.83,-225.82 130.05,-223.34" fill="none" stroke="#bcbcbc" stroke-width="8" stroke-linecap="round" stroke-linejoin="round" /><polyline points="94.42,549.59 97.34,544.71 114.82,499.81 134.35,431.94 139.33,417.32 142.00,413.34 160.85,352.81 161.79,345.59 162.50,340.87" fill="none" stroke="#bcbcbc" stroke-width="8" stroke-linecap="round" stroke-linejoin="round" /><polyline points="180.26,-106.10 182.26,-106.86 184.95,-109.00 189.05,-113.79 242.24,-190.10 256.40,-210.29" fill="none" stroke="#bcbcbc" stroke-width="8" stroke-linecap="round" stroke-linejoin="round" /><polyline points="416.98,174.23 418.06,171.10 444.80,139.64 446.76,138.60 451.41,132.24 466.96,114.38 471.80,109.93" fill="none" stroke="#bcbcbc" stroke-width="8" stroke-linecap="round" stroke-linejoin="round" /><polyline points="440.34,407.64 439.97,403.43 439.68,400.17 438.27,393.95 436.59,389.89 434.49,379.22 434.30,375.36 432.88,366.72 426.51,363.40 421.43,365.34 412.32,367.52 405.12,368.65 398.21,370.32 388.67,372.49 384.32,373.48" fill="none" stroke="#bcbcbc" stroke-width="8" stroke-linecap="round" stroke-linejoin="round" /><polyline points="-262.06,253.17 -242.61,207.60 -241.53,204.63" fill="none" stroke="#bcbcbc" stroke-width="8" stroke-linecap="round" stroke-linejoin="round" /><polyline points="250.36,169.60 259.73,165.97 264.63,164.07 268.42,160.23 284.04,156.38 289.28,157.72 300.59,154.80 309.22,152.58 311.27,151.44 319.64,149.39 362.41,138.91 372.10,136.01" fill="none" stroke="#bcbcbc" stroke-width="8" stroke-linecap="round" stroke-linejoin="round" /><polyline points="-144.14,555.56 -123.97,548.23 -117.22,546.17 -110.42,544.09 -97.89,540.27 -88.13,538.86 -54.82,535.22 -48.13,534.85 -18.32,535.11 -0.16,535.26 6.67,534.91 17.60,536.02 21.02,536.51 27.99,537.51 49.05,542.13" fill="none" stroke="#bcbcbc" stroke-width="8" stroke-linecap="round" stroke-linejoin="round" /><polyline points="-48.01,-43.40 -51.36,-54.70 -63.77,-96.67 -78.85,-144.54 -81.96,-153.08 -85.13,-161.09 -89.12,-172.63" fill="none" stroke="#bcbcbc" stroke-width="8" stroke-linecap="round" stroke-linejoin="round" /><polyline points="-84.12,633.37 -81.47,624.99 -54.65,540.42 -54.82,535.22" fill="none" stroke="#bcbcbc" stroke-width="8" stroke-linecap="round" stroke-linejoin="round" /><polyline points="-48.13,534.85 -42.82,463.64 -42.28,457.84 -41.47,451.08 -41.46,450.77 -41.11,442.51 -39.34,420.10 -38.34,409.66 -36.97,397.80 -35.73,389.26 -34.61,383.90 -33.20,379.85 -30.45,370.71 -24.75,351.70 -17.50,327.16 -9.52,302.06 -7.89,296.94 -6.58,293.23" fill="none" stroke="#bcbcbc" stroke-width="8" stroke-linecap="round" stroke-linejoin="round" /><polyline points="-221.62,388.21 -223.03,394.52 -222.79,396.53 -214.14,468.57 -213.22,476.20 -213.62,484.05 -215.88,528.85 -216.83,547.57 -217.32,557.23 -218.19,574.44 -218.64,583.40 -219.63,586.96" fill="none" stroke="#bcbcbc" stroke-width="8" stroke-linecap="round" stroke-linejoin="round" /><polyline points="-262.06,253.17 -293.52,243.82 -297.51,241.26 -317.09,235.55 -322.60,235.61 -347.20,228.20 -351.17,225.27 -373.56,218.48 -401.03,211.00 -401.16,210.98 -405.72,210.59" fill="none" stroke="#bcbcbc" stroke-width="8" stroke-linecap="round" stroke-linejoin="round" /><polyline points="311.27,151.44 312.37,152.87 316.93,159.67 325.36,172.24 333.30,180.19 348.56,197.32 345.98,213.16 344.67,219.09 342.85,221.60 346.68,227.26 352.60,239.44 364.43,262.26 370.25,273.50 373.87,283.60 375.51,288.29" fill="none" stroke="#bcbcbc" stroke-width="8" stroke-linecap="round" stroke-linejoin="round" /><polyline points="390.95,184.04 386.57,185.41 357.68,194.40 353.53,195.73 348.56,197.32" fill="none" stroke="#bcbcbc" stroke-width="8" stroke-linecap="round" stroke-linejoin="round" /><polyline points="183.34,238.77 192.38,235.84 257.95,202.36 266.73,198.07 297.64,189.14 327.61,180.72 333.30,180.19" fill="none" stroke="#bcbcbc" stroke-width="8" stroke-linecap="round" stroke-linejoin="round" /><polyline points="190.49,280.22 266.09,245.04 269.27,242.94 276.66,240.78 327.04,226.13 334.68,223.20 342.85,221.60" fill="none" stroke="#bcbcbc" stroke-width="8" stroke-linecap="round" stroke-linejoin="round" /><polyline points="175.06,-457.32 205.66,-453.53 208.74,-453.15 220.60,-450.24" fill="none" stroke="#bcbcbc" stroke-width="8" stroke-linecap="round" stroke-linejoin="round" /><polyline points="436.58,-146.19 442.01,-147.32 462.29,-137.38 464.96,-134.74 503.03,-70.30 504.03,-62.49 508.98,-58.36 508.19,-55.52 508.07,-50.87 508.76,-44.38 518.84,-2.94 519.73,25.75 521.14,71.58 523.52,133.25 513.86,160.13 507.64,176.51 498.56,199.60 495.93,206.28 494.22,208.14 491.48,226.01" fill="none" stroke="#bcbcbc" stroke-width="8" stroke-linecap="round" stroke-linejoin="round" /><polyline points="506.96,334.85 497.70,330.82 474.57,314.68 444.04,293.23 427.26,279.66 415.93,267.53" fill="none" stroke="#bcbcbc" stroke-width="8" stroke-linecap="round" stroke-linejoin="round" /><polyline points="132.39,695.96 123.29,693.08 108.54,688.40 101.50,686.17 93.23,683.55 82.78,680.23 73.33,677.24 63.99,674.27 22.35,661.06 15.05,658.74 5.99,655.88 3.99,655.24 -19.83,648.95 -26.55,647.32 -34.98,645.28 -43.81,643.14 -75.60,635.43 -84.12,633.37 -93.28,630.19 -112.43,623.54 -119.64,621.03 -126.09,618.94 -156.07,608.28 -159.84,606.03 -161.66,602.12" fill="none" stroke="#bcbcbc" stroke-width="8" stroke-linecap="round" stroke-linejoin="round" /><polyline points="269.27,242.94 267.06,235.02 260.48,211.43 257.95,202.36 254.30,195.57 253.96,194.32 251.80,186.33 254.31,182.79 251.29,172.72 250.36,169.60" fill="none" stroke="#bcbcbc" stroke-width="8" stroke-linecap="round" stroke-linejoin="round" /><polyline points="258.27,-45.78 264.52,-48.72 298.70,-67.56 318.24,-80.13 332.02,-89.53 335.06,-91.79 346.15,-99.50 357.64,-107.99 364.92,-113.29 373.59,-119.63 403.74,-133.23 407.65,-133.03 413.37,-135.73 436.58,-146.19" fill="none" stroke="#bcbcbc" stroke-width="8" stroke-linecap="round" stroke-linejoin="round" /><polyline points="-120.55,82.68 -115.62,84.68 -112.36,85.68 -51.25,104.45 -41.91,107.32" fill="none" stroke="#bcbcbc" stroke-width="8" stroke-linecap="round" stroke-linejoin="round" /><polyline points="-557.12,220.12 -600.78,206.90" fill="none" stroke="#bcbcbc" stroke-width="8" stroke-linecap="round" stroke-linejoin="round" /><polyline points="148.22,-395.64 159.05,-381.93 160.66,-379.88 166.13,-372.96 172.36,-372.23 185.16,-370.72 187.44,-369.15" fill="none" stroke="#bcbcbc" stroke-width="8" stroke-linecap="round" stroke-linejoin="round" /><polyline points="524.18,214.37 507.02,217.57 489.43,227.12 473.12,236.20 457.70,243.91 439.06,254.03 425.57,262.23 398.90,276.52 294.80,328.90 267.81,340.78 249.98,348.50 241.14,351.39 233.83,352.75 221.87,353.48 204.84,351.07 162.34,340.87 102.02,326.81 22.66,302.87 -6.58,293.23 -54.45,278.45 -100.24,263.35 -167.39,237.00 -200.97,222.55 -241.45,204.55 -308.60,167.76 -324.35,157.32 -364.19,132.26 -380.90,115.55 -405.96,83.10 -447.24,40.53 -463.47,26.24" fill="none" stroke="#bcbcbc" stroke-width="8" stroke-linecap="round" stroke-linejoin="round" /><polyline points="198.66,716.91 199.37,712.99 201.91,706.58 225.72,650.86 234.72,629.97 245.32,603.94 247.90,594.42" fill="none" stroke="#bcbcbc" stroke-width="8" stroke-linecap="round" stroke-linejoin="round" /><polyline points="-258.17,481.66 -285.22,468.57 -346.77,438.78 -422.27,402.24 -429.01,398.98" fill="none" stroke="#bcbcbc" stroke-width="8" stroke-linecap="round" stroke-linejoin="round" /><polyline points="186.40,50.46 193.23,43.47 211.39,24.87 225.81,9.14" fill="none" stroke="#bcbcbc" stroke-width="8" stroke-linecap="round" stroke-linejoin="round" /><polyline points="-338.02,91.88 -345.53,81.94 -380.69,35.39 -430.88,-5.23" fill="none" stroke="#bcbcbc" stroke-width="8" stroke-linecap="round" stroke-linejoin="round" /><polyline points="-555.85,704.75 -548.99,688.47 -527.16,634.06 -524.52,626.92 -521.58,619.00 -520.47,616.14 -520.17,611.66 -517.38,569.36 -516.58,557.23" fill="none" stroke="#bcbcbc" stroke-width="8" stroke-linecap="round" stroke-linejoin="round" /><polyline points="-570.74,267.37 -557.12,220.12 -539.14,157.79 -536.92,150.08 -534.44,141.31 -528.90,121.69 -528.32,119.63 -526.73,113.32 -524.20,106.18 -523.59,104.46 -520.40,96.54 -514.12,82.70 -512.25,78.73" fill="none" stroke="#bcbcbc" stroke-width="8" stroke-linecap="round" stroke-linejoin="round" /><polyline points="-536.92,150.08 -509.35,157.13 -450.95,172.14 -417.68,182.50 -403.80,185.75" fill="none" stroke="#bcbcbc" stroke-width="8" stroke-linecap="round" stroke-linejoin="round" /><polyline points="30.56,-64.34 31.49,-70.07 32.44,-76.03 36.48,-95.95 46.59,-142.33 54.88,-183.82 56.40,-192.43 58.46,-204.11 58.46,-204.12" fill="none" stroke="#bcbcbc" stroke-width="8" stroke-linecap="round" stroke-linejoin="round" /><polyline points="-51.07,828.73 -38.76,797.33 -37.23,791.69 11.62,667.69 15.05,658.74 17.83,651.16 47.02,566.24 52.64,561.33" fill="none" stroke="#bcbcbc" stroke-width="8" stroke-linecap="round" stroke-linejoin="round" /><polyline points="116.38,-88.34 116.37,-88.35 114.64,-97.43 114.37,-98.54 110.15,-115.70 110.16,-115.75 107.28,-127.39 95.09,-169.16 93.55,-173.64 85.32,-196.02 82.64,-202.70 80.92,-207.01 78.68,-211.90 78.68,-211.91 78.67,-211.93 77.04,-229.92 76.88,-238.76" fill="none" stroke="#bcbcbc" stroke-width="8" stroke-linecap="round" stroke-linejoin="round" /><polyline points="98.11,620.44 94.97,623.83 90.30,629.39 77.14,666.49 73.33,677.24" fill="none" stroke="#bcbcbc" stroke-width="8" stroke-linecap="round" stroke-linejoin="round" /><polyline points="-120.55,82.68 -118.76,77.80 -118.35,76.67 -109.80,52.80 -106.60,42.75 -80.41,-34.27" fill="none" stroke="#bcbcbc" stroke-width="8" stroke-linecap="round" stroke-linejoin="round" /><polyline points="14.94,190.65 17.61,183.55 24.85,164.33 27.91,156.20 29.98,150.70 35.79,135.27 39.63,125.08 40.15,123.71 49.44,99.02 53.33,100.22 55.43,94.49 59.16,84.35 58.44,79.74 68.33,52.82 69.35,50.06 71.22,48.33 72.80,46.89 82.71,19.78 84.15,12.36 98.38,-27.17 101.74,-29.80 108.59,-49.17 107.37,-52.14 113.36,-70.23 110.25,-86.37" fill="none" stroke="#bcbcbc" stroke-width="8" stroke-linecap="round" stroke-linejoin="round" /><polyline points="269.44,-544.62 265.46,-551.16 244.51,-585.53" fill="none" stroke="#bcbcbc" stroke-width="8" stroke-linecap="round" stroke-linejoin="round" /><polyline points="335.06,-91.79 431.19,-29.98 431.22,-29.93 431.22,-29.92 449.00,-27.62" fill="none" stroke="#bcbcbc" stroke-width="8" stroke-linecap="round" stroke-linejoin="round" /><polyline points="296.51,-220.93 398.79,-169.59 401.88,-167.28 401.67,-150.48 403.74,-133.23" fill="none" stroke="#bcbcbc" stroke-width="8" stroke-linecap="round" stroke-linejoin="round" /><polyline points="101.50,686.17 97.82,697.39 82.92,742.84 57.57,819.39 55.77,824.82 53.95,830.32 53.44,836.18" fill="none" stroke="#bcbcbc" stroke-width="8" stroke-linecap="round" stroke-linejoin="round" /><polyline points="389.44,410.06 390.06,404.36 390.19,399.04 390.14,398.85 386.52,383.19 385.03,376.64 384.32,373.48 383.58,370.26 379.60,352.73 371.83,317.70 366.18,296.64 365.38,293.39" fill="none" stroke="#bcbcbc" stroke-width="8" stroke-linecap="round" stroke-linejoin="round" /><polyline points="-118.37,730.71 -115.84,723.50 -87.36,642.56 -84.12,633.37" fill="none" stroke="#bcbcbc" stroke-width="8" stroke-linecap="round" stroke-linejoin="round" /><polyline points="521.14,71.58 512.76,69.21 455.86,-18.11 449.00,-27.62" fill="none" stroke="#bcbcbc" stroke-width="8" stroke-linecap="round" stroke-linejoin="round" /><polyline points="-414.36,281.10 -206.96,330.79 -192.66,336.01" fill="none" stroke="#bcbcbc" stroke-width="8" stroke-linecap="round" stroke-linejoin="round" /><polyline points="239.79,-495.28 320.58,-465.35 331.95,-467.29" fill="none" stroke="#bcbcbc" stroke-width="8" stroke-linecap="round" stroke-linejoin="round" />
    <polyline points="167.20,167.20 168.89,170.00 169.33,170.72 170.73,177.79 180.30,224.08 183.34,238.77 185.51,249.23 188.90,270.44 190.49,280.22 191.58,286.19 192.77,291.58 194.20,294.72 196.30,298.36 197.42,300.08 218.62,330.43 230.08,348.48 233.07,352.80" fill="none" stroke="#ffffff" stroke-width="16" stroke-linecap="round" stroke-linejoin="round" />
    <polyline points="167.20,167.20 168.89,170.00 169.33,170.72 170.73,177.79 180.30,224.08 183.34,238.77 185.51,249.23 188.90,270.44 190.49,280.22 191.58,286.19 192.77,291.58 194.20,294.72 196.30,298.36 197.42,300.08 218.62,330.43 230.08,348.48 233.07,352.80" fill="none" stroke="#111111" stroke-width="9" stroke-linecap="round" stroke-linejoin="round" />
    
            <g transform="translate(167.20,167.20)">
              <circle r="19" fill="#ffffff" stroke="#111111" stroke-width="4" />
              <text text-anchor="middle" dominant-baseline="central" font-family="Helvetica, Arial, sans-serif"
                font-size="18" font-weight="700" fill="#111111">1</text>
            </g>
            
            <g transform="translate(233.07,352.80)">
              <circle r="19" fill="#ffffff" stroke="#111111" stroke-width="4" />
              <text text-anchor="middle" dominant-baseline="central" font-family="Helvetica, Arial, sans-serif"
                font-size="18" font-weight="700" fill="#111111">2</text>
            </g>
            
  </g>
</svg>
