<svg xmlns="http://www.w3.org/2000/svg" width="520" height="520" viewBox="0 0 520 520">
  <rect width="100%" height="100%" fill="#ffffff" />
  <g>
    <polyline points="1121.82,-618.04 1123.91,-606.94 1137.38,-512.69 1135.32,-489.13" fill="none" stroke="#bcbcbc" stroke-width="8" stroke-linecap="round" stroke-linejoin="round" /><polyline points="847.96,167.34 851.22,157.33 868.48,104.25 870.51,98.00 872.57,91.43 915.97,-46.95 919.46,-58.08 911.47,-77.77" fill="none" stroke="#bcbcbc" stroke-width="8" stroke-linecap="round" stroke-linejoin="round" /><polyline points="548.18,44.26 547.48,36.31 561.67,-43.15 563.66,-53.09 565.14,-58.29 569.05,-78.45 573.44,-103.11 578.22,-124.83 582.96,-146.50 585.95,-152.62 587.90,-156.36" fill="none" stroke="#bcbcbc" stroke-width="8" stroke-linecap="round" stroke-linejoin="round" /><polyline points="630.54,-516.25 627.16,-526.53 592.30,-632.86 590.59,-637.32" fill="none" stroke="#bcbcbc" stroke-width="8" stroke-linecap="round" stroke-linejoin="round" /><polyline points="451.62,419.61 452.66,409.46 453.08,404.81 456.88,362.82 461.03,325.85 462.00,317.22 462.91,306.87 463.01,305.99 465.36,285.41 467.39,264.48 469.63,244.28 471.14,228.56 471.77,218.85 472.32,209.89 473.31,199.79" fill="none" stroke="#bcbcbc" stroke-width="8" stroke-linecap="round" stroke-linejoin="round" /><polyline points="933.42,192.01 935.90,184.21 953.40,129.21 955.38,122.96 958.21,114.06 960.23,107.68 975.72,40.89" fill="none" stroke="#bcbcbc" stroke-width="8" stroke-linecap="round" stroke-linejoin="round" /><polyline points="865.40,-895.85 871.86,-894.86 1049.92,-867.50" fill="none" stroke="#bcbcbc" stroke-width="8" stroke-linecap="round" stroke-linejoin="round" /><polyline points="408.31,179.06 389.77,178.19 378.47,177.67 372.33,177.38 366.95,177.13 324.98,175.18 266.61,172.47 238.79,168.52 229.47,167.20 221.39,165.77 166.67,156.12 159.02,154.77 157.33,154.48 147.88,152.86 140.62,151.61 94.25,147.51 85.42,146.73 82.18,146.45 72.15,145.75 52.52,144.39" fill="none" stroke="#bcbcbc" stroke-width="8" stroke-linecap="round" stroke-linejoin="round" /><polyline points="677.55,125.29 681.14,115.08 713.49,25.42 752.40,-87.67 754.89,-94.76 756.63,-99.72 758.04,-103.79" fill="none" stroke="#bcbcbc" stroke-width="8" stroke-linecap="round" stroke-linejoin="round" /><polyline points="82.18,146.45 81.35,140.68 81.16,134.42 82.38,121.81 85.20,98.79 87.08,91.06 90.13,63.13 90.68,56.90 91.58,48.90 92.24,42.96 93.49,36.23 95.81,18.11 97.42,4.25 99.78,-1.42" fill="none" stroke="#bcbcbc" stroke-width="8" stroke-linecap="round" stroke-linejoin="round" /><polyline points="49.07,-8.51 92.22,-2.48 99.78,-1.42 104.46,-0.68 123.81,2.40 168.37,9.50 176.01,10.78" fill="none" stroke="#bcbcbc" stroke-width="8" stroke-linecap="round" stroke-linejoin="round" /><polyline points="843.12,-574.46 843.40,-570.54 843.98,-566.56 845.38,-563.52 848.00,-560.13 852.86,-555.72 864.35,-548.72 953.07,-493.07 1007.70,-419.83 1048.97,-317.99 1051.66,-311.27" fill="none" stroke="#bcbcbc" stroke-width="8" stroke-linecap="round" stroke-linejoin="round" /><polyline points="828.91,-277.32 830.75,-274.28 831.23,-273.49 832.75,-265.80 843.16,-215.48 846.46,-199.51 848.83,-188.13 852.51,-165.07 854.23,-154.44 855.42,-147.95 856.72,-142.09 858.27,-138.67 860.55,-134.71 861.77,-132.85 884.82,-99.85 897.29,-80.22 900.54,-75.53" fill="none" stroke="#bcbcbc" stroke-width="8" stroke-linecap="round" stroke-linejoin="round" /><polyline points="910.50,-665.79 959.42,-631.61 966.01,-630.21 970.84,-624.70" fill="none" stroke="#bcbcbc" stroke-width="8" stroke-linecap="round" stroke-linejoin="round" /><polyline points="705.09,-350.14 711.56,-347.65 739.63,-338.47 804.74,-313.51 808.39,-309.87 810.10,-307.15" fill="none" stroke="#bcbcbc" stroke-width="8" stroke-linecap="round" stroke-linejoin="round" /><polyline points="826.42,291.40 830.85,279.84 852.74,220.46 868.22,175.60 871.43,174.13" fill="none" stroke="#bcbcbc" stroke-width="8" stroke-linecap="round" stroke-linejoin="round" /><polyline points="517.02,216.11 520.48,208.47 520.82,207.72 526.73,187.90 536.41,155.27 538.89,146.92 540.81,140.44 541.07,136.66 540.68,128.29" fill="none" stroke="#bcbcbc" stroke-width="8" stroke-linecap="round" stroke-linejoin="round" /><polyline points="919.33,-274.71 913.78,-273.57 901.21,-275.80 899.26,-280.99 877.47,-289.30 872.32,-287.95 852.66,-295.17 849.73,-293.12" fill="none" stroke="#bcbcbc" stroke-width="8" stroke-linecap="round" stroke-linejoin="round" /><polyline points="886.98,-948.62 896.85,-946.20 902.32,-945.26 1032.20,-922.74" fill="none" stroke="#bcbcbc" stroke-width="8" stroke-linecap="round" stroke-linejoin="round" /><polyline points="786.03,255.24 791.43,240.01 801.93,210.41 808.72,197.80 818.48,170.46 822.38,159.55" fill="none" stroke="#bcbcbc" stroke-width="8" stroke-linecap="round" stroke-linejoin="round" /><polyline points="74.38,-335.90 64.97,-336.33 62.61,-333.47 46.22,-313.56 -11.07,-247.39 -19.13,-238.08" fill="none" stroke="#bcbcbc" stroke-width="8" stroke-linecap="round" stroke-linejoin="round" /><polyline points="576.89,-279.23 572.73,-270.04 572.23,-268.92 557.80,-231.30 543.26,-189.89 539.38,-178.85 537.18,-173.15" fill="none" stroke="#bcbcbc" stroke-width="8" stroke-linecap="round" stroke-linejoin="round" /><polyline points="788.52,-701.93 793.10,-695.71 796.38,-687.16 801.47,-674.89 809.64,-655.58 816.88,-638.26 825.19,-619.23 831.36,-604.57 832.27,-602.46 832.33,-602.33 837.29,-590.74 838.77,-587.44 840.18,-584.30 841.67,-581.36 842.79,-578.38 843.12,-574.46" fill="none" stroke="#bcbcbc" stroke-width="8" stroke-linecap="round" stroke-linejoin="round" /><polyline points="437.63,-93.79 440.03,-95.10 443.39,-97.76 445.07,-101.22 467.36,-185.74 468.03,-190.50 470.75,-199.21" fill="none" stroke="#bcbcbc" stroke-width="8" stroke-linecap="round" stroke-linejoin="round" /><polyline points="1217.06,-226.04 1220.23,-216.00 1222.45,-205.46 1218.12,-165.29 1213.11,-135.08 1210.38,-124.77 1210.13,-123.84 1207.73,-118.27 1204.47,-112.38 1196.84,-102.73 1200.53,-83.87 1188.59,-43.40 1181.99,-21.05 1168.50,15.54 1148.74,60.09 1124.61,102.79 1117.07,116.66 1103.45,139.46 1049.01,216.71 1037.09,232.77 990.90,293.12 964.39,323.28 927.30,360.97 923.87,361.33 915.49,368.17" fill="none" stroke="#bcbcbc" stroke-width="8" stroke-linecap="round" stroke-linejoin="round" /><polyline points="545.41,434.73 560.60,387.61 563.09,379.83 566.46,374.93 573.72,353.15 576.08,345.75 606.06,251.91 609.07,242.47 611.56,234.18 646.93,122.85" fill="none" stroke="#bcbcbc" stroke-width="8" stroke-linecap="round" stroke-linejoin="round" /><polyline points="901.36,-441.58 914.50,-455.93 918.37,-460.60 944.91,-498.19" fill="none" stroke="#bcbcbc" stroke-width="8" stroke-linecap="round" stroke-linejoin="round" /><polyline points="638.82,-435.89 674.99,-423.30 676.99,-420.06 687.26,-416.61 693.36,-414.53 722.51,-404.68" fill="none" stroke="#bcbcbc" stroke-width="8" stroke-linecap="round" stroke-linejoin="round" /><polyline points="954.11,-686.19 970.84,-624.70 990.20,-552.26 993.14,-546.22 993.61,-539.33 1006.74,-514.81 1042.19,-448.72 1049.93,-437.29 1052.18,-433.94 1105.14,-334.95 1129.47,-312.82 1132.89,-308.42 1137.70,-304.30 1183.91,-264.79 1187.05,-262.11 1195.35,-257.70" fill="none" stroke="#bcbcbc" stroke-width="8" stroke-linecap="round" stroke-linejoin="round" /><polyline points="774.38,444.74 889.63,377.80 910.14,367.31 915.49,368.17" fill="none" stroke="#bcbcbc" stroke-width="8" stroke-linecap="round" stroke-linejoin="round" /><polyline points="899.34,348.97 906.49,340.47 970.68,212.40 974.93,204.00 978.49,195.69 999.22,144.41 1005.40,128.97 1023.27,74.88 1034.86,5.35 1036.23,-4.77" fill="none" stroke="#bcbcbc" stroke-width="8" stroke-linecap="round" stroke-linejoin="round" /><polyline points="849.79,-404.24 848.67,-403.09 847.12,-397.70 846.97,-397.17 840.00,-370.34 841.83,-363.34 840.31,-357.06 838.32,-348.85 833.22,-342.94 827.44,-319.51 820.62,-314.36 813.35,-309.37 810.10,-307.15" fill="none" stroke="#bcbcbc" stroke-width="8" stroke-linecap="round" stroke-linejoin="round" /><polyline points="576.89,-279.23 579.85,-286.82 597.66,-332.47 601.54,-342.43 604.74,-350.62 627.50,-408.92 637.74,-433.29 638.82,-435.89 646.78,-455.14 664.65,-499.50 671.19,-518.38 672.64,-522.71 674.60,-527.62" fill="none" stroke="#bcbcbc" stroke-width="8" stroke-linecap="round" stroke-linejoin="round" /><polyline points="776.17,-555.95 779.62,-545.70 892.64,-449.17 954.32,-395.52 1046.43,-315.45 1054.47,-309.02 1058.08,-306.77 1074.06,-292.26 1095.41,-274.05 1143.83,-232.77 1159.47,-219.32 1169.84,-206.91" fill="none" stroke="#bcbcbc" stroke-width="8" stroke-linecap="round" stroke-linejoin="round" /><polyline points="963.05,-722.29 968.78,-725.96 1002.74,-740.07 1009.72,-747.42" fill="none" stroke="#bcbcbc" stroke-width="8" stroke-linecap="round" stroke-linejoin="round" /><polyline points="1002.27,136.78 955.38,122.96 870.51,98.00" fill="none" stroke="#bcbcbc" stroke-width="8" stroke-linecap="round" stroke-linejoin="round" /><polyline points="850.92,-860.46 857.32,-856.04 1066.02,-809.61" fill="none" stroke="#bcbcbc" stroke-width="8" stroke-linecap="round" stroke-linejoin="round" /><polyline points="1108.71,-173.39 1097.93,-197.39 1073.99,-254.47 1072.20,-259.01 1068.11,-269.43 1052.68,-308.68 1051.71,-311.23" fill="none" stroke="#bcbcbc" stroke-width="8" stroke-linecap="round" stroke-linejoin="round" /><polyline points="788.52,-701.93 776.93,-705.22 768.42,-707.76 751.11,-712.90 742.32,-715.41 737.29,-716.80 730.71,-718.69" fill="none" stroke="#bcbcbc" stroke-width="8" stroke-linecap="round" stroke-linejoin="round" /><polyline points="486.41,-387.97 485.83,-389.89 485.29,-391.23 482.90,-397.17 473.65,-418.73 464.86,-440.64 462.96,-445.81 460.77,-451.77 459.21,-456.64 456.62,-463.95 456.35,-464.72 447.94,-485.45 432.50,-524.41 429.03,-526.39 426.56,-532.70 421.63,-549.82 413.20,-571.02 411.38,-575.84" fill="none" stroke="#bcbcbc" stroke-width="8" stroke-linecap="round" stroke-linejoin="round" /><polyline points="560.60,387.61 569.37,390.30 597.74,398.94 606.63,401.65" fill="none" stroke="#bcbcbc" stroke-width="8" stroke-linecap="round" stroke-linejoin="round" /><polyline points="1090.48,-712.08 1092.13,-718.77 1091.46,-721.31 1090.65,-724.37 1085.47,-743.35 1073.92,-783.47 1067.83,-803.98 1066.02,-809.61 1049.92,-867.50 1041.22,-898.73 1032.20,-922.74 1024.05,-944.40 1015.94,-959.29 1008.05,-967.16 947.53,-1041.11 943.05,-1046.38 940.08,-1051.24" fill="none" stroke="#bcbcbc" stroke-width="8" stroke-linecap="round" stroke-linejoin="round" /><polyline points="843.12,-574.46 840.00,-573.26 834.23,-571.67 833.65,-571.51 809.54,-565.35 781.83,-557.55 776.17,-555.95 773.65,-555.15 766.99,-553.01 761.30,-551.43 736.45,-544.51 695.57,-532.90 680.34,-529.05 674.60,-527.62 647.36,-520.93 630.54,-516.25 594.90,-506.29 559.68,-496.37 555.61,-495.24 526.17,-487.07 512.60,-483.30 505.74,-480.06 492.76,-473.63 466.98,-460.55 465.19,-459.63 459.21,-456.64 455.55,-454.81 450.46,-452.14 432.35,-442.65 399.36,-424.14 371.79,-409.70 367.85,-407.64 362.58,-407.31 359.42,-405.63 358.79,-405.29 328.89,-388.91 322.62,-388.93 315.44,-385.17 312.93,-383.86 310.81,-382.75 305.81,-380.14 301.87,-371.16 284.95,-362.09 279.57,-359.21 273.75,-356.04 250.20,-343.23 238.03,-336.61 231.89,-334.84" fill="none" stroke="#bcbcbc" stroke-width="8" stroke-linecap="round" stroke-linejoin="round" /><polyline points="1181.99,-21.05 1169.43,-19.89 1130.18,-16.30 1128.41,-16.14 1125.91,-15.91 1121.86,-15.53 1083.80,-12.04 1070.57,-13.27 1055.15,-9.41 1042.81,-6.38 1036.23,-4.77 1019.89,-4.15 1005.75,-4.87 998.54,-5.63 992.41,-7.49 987.89,-9.99 971.06,-21.88 930.17,-49.96 926.32,-52.58 922.40,-55.24 919.46,-58.08" fill="none" stroke="#bcbcbc" stroke-width="8" stroke-linecap="round" stroke-linejoin="round" /><polyline points="255.97,-495.10 270.80,-466.05 273.05,-457.76 285.54,-433.91 290.71,-427.09 311.59,-386.46 312.93,-383.86" fill="none" stroke="#bcbcbc" stroke-width="8" stroke-linecap="round" stroke-linejoin="round" /><polyline points="710.61,-236.83 708.38,-230.73 707.76,-228.83 704.86,-220.05 686.51,-168.84 677.40,-143.42 677.09,-142.55 673.43,-134.65 671.33,-129.95" fill="none" stroke="#bcbcbc" stroke-width="8" stroke-linecap="round" stroke-linejoin="round" /><polyline points="954.11,-686.19 952.07,-690.54 946.72,-691.25 929.42,-687.28 925.91,-687.74 923.15,-691.43 918.26,-713.94 944.77,-718.04 957.05,-721.66 963.05,-722.29 969.51,-699.30" fill="none" stroke="#bcbcbc" stroke-width="8" stroke-linecap="round" stroke-linejoin="round" /><polyline points="1049.93,-437.29 1056.76,-441.12 1091.07,-461.79 1100.24,-467.25 1116.29,-476.82 1142.69,-493.89 1148.85,-498.32 1195.16,-527.04" fill="none" stroke="#bcbcbc" stroke-width="8" stroke-linecap="round" stroke-linejoin="round" /><polyline points="1211.81,-301.61 1200.11,-305.10 1193.30,-310.68 1167.29,-333.19 1166.40,-333.98 1160.11,-339.59 1156.42,-346.14 1091.07,-461.79" fill="none" stroke="#bcbcbc" stroke-width="8" stroke-linecap="round" stroke-linejoin="round" /><polyline points="474.36,-310.77 576.89,-279.23 585.25,-276.58 661.76,-252.33 663.36,-251.82 674.82,-248.19 680.46,-246.40 687.78,-244.40 702.88,-239.28 710.61,-236.83 717.56,-234.63 774.50,-216.57 834.60,-197.69 839.57,-196.13 846.46,-199.51" fill="none" stroke="#bcbcbc" stroke-width="8" stroke-linecap="round" stroke-linejoin="round" /><polyline points="775.82,-816.89 820.23,-857.69 827.75,-864.60" fill="none" stroke="#bcbcbc" stroke-width="8" stroke-linecap="round" stroke-linejoin="round" /><polyline points="32.13,-158.49 195.09,-141.02" fill="none" stroke="#bcbcbc" stroke-width="8" stroke-linecap="round" stroke-linejoin="round" /><polyline points="523.74,-613.29 557.99,-625.54 593.32,-638.31 615.27,-646.84 682.29,-671.21 701.74,-677.94 705.81,-679.35 710.68,-681.02 716.15,-682.90 716.82,-683.13 727.86,-687.57 732.66,-689.50" fill="none" stroke="#bcbcbc" stroke-width="8" stroke-linecap="round" stroke-linejoin="round" /><polyline points="753.78,215.46 786.03,255.24 805.77,275.11 814.32,281.26 826.42,291.40 837.78,300.94 847.55,310.46 847.79,315.30" fill="none" stroke="#bcbcbc" stroke-width="8" stroke-linecap="round" stroke-linejoin="round" /><polyline points="788.52,-701.93 801.16,-733.60 821.61,-785.75 850.92,-860.46 865.40,-895.85 886.98,-948.62 904.68,-991.85 907.84,-997.59 923.40,-1023.03 924.41,-1024.67 930.10,-1035.86 940.08,-1051.24 945.66,-1059.82 953.55,-1071.96" fill="none" stroke="#bcbcbc" stroke-width="8" stroke-linecap="round" stroke-linejoin="round" /><polyline points="490.38,144.92 488.31,146.57 486.94,148.55 484.15,156.76 482.23,162.70 473.32,189.32 472.10,193.16 471.34,195.54 463.16,193.20 443.26,186.53 423.54,179.92 408.31,179.06" fill="none" stroke="#bcbcbc" stroke-width="8" stroke-linecap="round" stroke-linejoin="round" /><polyline points="100.70,330.17 133.19,246.26 136.81,237.12 140.05,228.32 143.97,217.69 148.77,200.97 153.78,180.19 155.84,165.29 157.33,154.48 159.43,146.49 167.08,86.49 176.01,10.78 180.64,-25.32 185.79,-67.72 195.09,-141.02 196.57,-153.48 205.96,-230.14 205.97,-234.41 208.04,-257.15 214.04,-305.20 215.54,-313.58 217.11,-318.28 219.56,-323.45 221.94,-327.47 227.20,-333.16 231.90,-334.78" fill="none" stroke="#bcbcbc" stroke-width="8" stroke-linecap="round" stroke-linejoin="round" /><polyline points="810.10,-307.15 811.88,-304.33 817.84,-295.03 826.76,-280.73 828.91,-277.32 832.47,-280.02 849.73,-293.12" fill="none" stroke="#bcbcbc" stroke-width="8" stroke-linecap="round" stroke-linejoin="round" /><polyline points="821.61,-785.75 997.19,-754.01 1015.63,-744.31 1084.42,-710.21 1090.48,-712.08" fill="none" stroke="#bcbcbc" stroke-width="8" stroke-linecap="round" stroke-linejoin="round" /><polyline points="486.41,-387.97 483.30,-383.43 455.29,-369.76 434.72,-343.61 412.51,-329.87 397.33,-318.41 382.85,-306.59 375.42,-299.82 362.30,-283.19 347.63,-262.16 345.22,-258.27" fill="none" stroke="#bcbcbc" stroke-width="8" stroke-linecap="round" stroke-linejoin="round" /><polyline points="516.03,-369.22 514.81,-366.52 512.16,-362.64 507.14,-356.46 477.55,-319.09 461.90,-276.93 382.88,-306.63" fill="none" stroke="#bcbcbc" stroke-width="8" stroke-linecap="round" stroke-linejoin="round" /><polyline points="397.33,-318.41 394.27,-327.67 381.05,-367.70 375.92,-375.60 367.33,-401.38 366.58,-403.60 367.85,-407.64 365.79,-414.21 324.48,-546.11" fill="none" stroke="#bcbcbc" stroke-width="8" stroke-linecap="round" stroke-linejoin="round" /><polyline points="881.44,-1038.10 914.09,-1037.24 915.61,-1037.20 921.87,-1037.02 930.10,-1035.86" fill="none" stroke="#bcbcbc" stroke-width="8" stroke-linecap="round" stroke-linejoin="round" /><polyline points="713.49,25.42 702.34,25.28 607.94,37.95 601.13,38.67 593.35,39.49 548.18,44.26 487.32,50.69 455.05,54.09 437.20,55.97 422.71,57.73 415.27,58.64 406.89,59.66 366.40,64.58 356.69,65.76 326.79,69.02 167.08,86.49" fill="none" stroke="#bcbcbc" stroke-width="8" stroke-linecap="round" stroke-linejoin="round" /><polyline points="573.72,353.15 565.36,350.46 526.30,337.89 518.40,335.35 511.54,333.14 470.16,319.84 462.00,317.22 451.21,313.75 385.33,292.55 377.92,290.17" fill="none" stroke="#bcbcbc" stroke-width="8" stroke-linecap="round" stroke-linejoin="round" /><polyline points="737.05,-437.60 759.77,-430.52 842.86,-404.87 843.63,-404.63 849.79,-404.24" fill="none" stroke="#bcbcbc" stroke-width="8" stroke-linecap="round" stroke-linejoin="round" /><polyline points="970.84,-624.70 1083.86,-622.71" fill="none" stroke="#bcbcbc" stroke-width="8" stroke-linecap="round" stroke-linejoin="round" /><polyline points="915.49,368.17 899.34,348.97 892.56,341.09 886.73,335.65 878.98,329.86 863.13,320.35 847.79,315.30 816.58,305.67 791.06,297.57 805.77,275.11" fill="none" stroke="#bcbcbc" stroke-width="8" stroke-linecap="round" stroke-linejoin="round" /><polyline points="753.78,215.46 731.29,187.69 727.01,182.41 704.35,151.20 699.22,141.67 700.45,130.32 707.28,130.25 724.13,133.50 749.78,138.43" fill="none" stroke="#bcbcbc" stroke-width="8" stroke-linecap="round" stroke-linejoin="round" /><polyline points="459.48,-7.01 463.62,1.91 487.32,50.69 522.55,123.21 527.04,132.45" fill="none" stroke="#bcbcbc" stroke-width="8" stroke-linecap="round" stroke-linejoin="round" /><polyline points="79.98,213.89 88.45,217.36 128.14,233.58 136.81,237.12 145.92,240.85 192.65,259.96 201.10,263.41" fill="none" stroke="#bcbcbc" stroke-width="8" stroke-linecap="round" stroke-linejoin="round" /><polyline points="478.98,-79.32 561.67,-43.15" fill="none" stroke="#bcbcbc" stroke-width="8" stroke-linecap="round" stroke-linejoin="round" /><polyline points="849.79,-404.24 862.39,-403.58 863.19,-402.87 868.84,-397.85 877.15,-390.44 878.68,-387.46 907.31,-362.39 909.43,-358.39 929.56,-340.63 934.63,-339.08 950.29,-325.37 953.79,-323.77 977.41,-303.73 982.67,-299.07 985.57,-294.46" fill="none" stroke="#bcbcbc" stroke-width="8" stroke-linecap="round" stroke-linejoin="round" /><polyline points="56.64,-79.24 185.79,-67.72" fill="none" stroke="#bcbcbc" stroke-width="8" stroke-linecap="round" stroke-linejoin="round" /><polyline points="345.02,401.65 349.02,393.13 350.05,389.34 355.66,368.66 375.98,297.03 377.92,290.17 379.98,282.65 389.18,248.99 404.72,192.15 408.31,179.06" fill="none" stroke="#bcbcbc" stroke-width="8" stroke-linecap="round" stroke-linejoin="round" /><polyline points="459.48,-7.01 478.98,-79.32 437.63,-93.79 426.80,-87.39 421.87,-83.64 418.22,-78.70 415.65,-72.17 406.14,-37.03 413.81,-33.13 421.56,-31.25 438.69,-26.79 451.52,-22.70 459.48,-7.01" fill="none" stroke="#bcbcbc" stroke-width="8" stroke-linecap="round" stroke-linejoin="round" /><polyline points="406.14,-37.03 397.08,-38.29 185.79,-67.72" fill="none" stroke="#bcbcbc" stroke-width="8" stroke-linecap="round" stroke-linejoin="round" /><polyline points="749.78,138.43 769.38,142.71 822.38,159.55 837.20,164.24 872.38,174.40 907.81,184.62 934.04,192.20 976.00,204.31 984.67,206.81 1005.84,213.91 1040.70,223.19 1043.77,223.77" fill="none" stroke="#bcbcbc" stroke-width="8" stroke-linecap="round" stroke-linejoin="round" /><polyline points="774.64,444.58 767.49,446.38 759.76,467.92 747.77,464.52 693.26,445.94 686.69,444.54 672.10,443.50 606.08,443.76 591.53,441.91 558.66,436.88 545.41,434.73 451.38,419.57 414.97,413.76 345.53,401.74 334.32,399.51 177.62,355.72 167.73,352.95 100.70,330.17 84.20,324.32 43.01,307.25 19.53,298.37" fill="none" stroke="#bcbcbc" stroke-width="8" stroke-linecap="round" stroke-linejoin="round" /><polyline points="918.26,-713.94 911.47,-715.33 820.90,-704.63 788.52,-701.93" fill="none" stroke="#bcbcbc" stroke-width="8" stroke-linecap="round" stroke-linejoin="round" /><polyline points="749.78,138.43 752.96,133.12 771.96,84.31 793.20,10.51 798.61,-5.38 801.51,-9.71 822.01,-75.51 823.03,-83.37 823.81,-88.50" fill="none" stroke="#bcbcbc" stroke-width="8" stroke-linecap="round" stroke-linejoin="round" /><polyline points="843.12,-574.46 845.28,-575.28 848.22,-577.61 852.67,-582.82 910.50,-665.79 925.91,-687.74" fill="none" stroke="#bcbcbc" stroke-width="8" stroke-linecap="round" stroke-linejoin="round" /><polyline points="1100.50,-269.68 1101.69,-273.08 1130.76,-307.28 1132.89,-308.42 1137.94,-315.33 1154.85,-334.75 1160.11,-339.59" fill="none" stroke="#bcbcbc" stroke-width="8" stroke-linecap="round" stroke-linejoin="round" /><polyline points="1125.91,-15.91 1125.50,-20.48 1125.19,-24.02 1123.66,-30.79 1121.83,-35.21 1119.55,-46.80 1119.34,-51.00 1117.79,-60.39 1110.87,-64.01 1105.34,-61.89 1095.44,-59.52 1087.61,-58.30 1080.10,-56.48 1069.72,-54.12 1064.99,-53.04" fill="none" stroke="#bcbcbc" stroke-width="8" stroke-linecap="round" stroke-linejoin="round" /><polyline points="362.17,-183.85 383.31,-233.40 384.49,-236.62" fill="none" stroke="#bcbcbc" stroke-width="8" stroke-linecap="round" stroke-linejoin="round" /><polyline points="919.33,-274.71 929.52,-278.66 934.85,-280.72 938.97,-284.89 955.96,-289.08 961.66,-287.63 973.96,-290.80 983.34,-293.21 985.57,-294.46 994.66,-296.68 1041.17,-308.08 1051.71,-311.23" fill="none" stroke="#bcbcbc" stroke-width="8" stroke-linecap="round" stroke-linejoin="round" /><polyline points="490.38,144.92 512.32,136.95 519.66,134.71 527.04,132.45 540.68,128.29 551.28,126.77 587.50,122.80 594.78,122.41 627.19,122.68 646.93,122.85 654.36,122.47 666.25,123.68 669.97,124.21 677.55,125.29 700.45,130.32" fill="none" stroke="#bcbcbc" stroke-width="8" stroke-linecap="round" stroke-linejoin="round" /><polyline points="594.90,-506.29 591.27,-518.58 577.77,-564.21 561.37,-616.25 557.99,-625.54 554.55,-634.24 550.21,-646.79" fill="none" stroke="#bcbcbc" stroke-width="8" stroke-linecap="round" stroke-linejoin="round" /><polyline points="555.64,229.51 558.52,220.41 587.69,128.46 587.50,122.80" fill="none" stroke="#bcbcbc" stroke-width="8" stroke-linecap="round" stroke-linejoin="round" /><polyline points="594.78,122.41 600.56,44.98 601.13,38.67 602.02,31.33 602.03,30.99 602.41,22.01 604.34,-2.36 605.43,-13.71 606.91,-26.60 608.26,-35.89 609.48,-41.72 611.01,-46.12 614.01,-56.05 620.20,-76.72 628.08,-103.41 636.76,-130.69 638.53,-136.26 639.96,-140.29" fill="none" stroke="#bcbcbc" stroke-width="8" stroke-linecap="round" stroke-linejoin="round" /><polyline points="406.14,-37.03 404.60,-30.17 404.86,-27.98 414.27,50.34 415.27,58.64 414.84,67.17 412.37,115.88 411.34,136.24 410.81,146.73 409.87,165.44 409.37,175.19 408.31,179.06" fill="none" stroke="#bcbcbc" stroke-width="8" stroke-linecap="round" stroke-linejoin="round" /><polyline points="362.17,-183.85 327.96,-194.01 323.61,-196.80 302.32,-203.00 296.34,-202.94 269.59,-211.00 265.27,-214.19 240.93,-221.56 211.06,-229.70 210.92,-229.72 205.96,-230.14" fill="none" stroke="#bcbcbc" stroke-width="8" stroke-linecap="round" stroke-linejoin="round" /><polyline points="985.57,-294.46 986.76,-292.90 991.72,-285.51 1000.89,-271.84 1009.52,-263.19 1026.11,-244.57 1023.31,-227.35 1021.89,-220.90 1019.90,-218.17 1024.06,-212.02 1030.50,-198.77 1043.36,-173.96 1049.70,-161.74 1053.64,-150.76 1055.41,-145.66" fill="none" stroke="#bcbcbc" stroke-width="8" stroke-linecap="round" stroke-linejoin="round" /><polyline points="1072.21,-259.01 1067.44,-257.52 1036.02,-247.75 1031.52,-246.30 1026.11,-244.57" fill="none" stroke="#bcbcbc" stroke-width="8" stroke-linecap="round" stroke-linejoin="round" /><polyline points="846.46,-199.51 856.29,-202.69 927.59,-239.10 937.14,-243.76 970.74,-253.46 1003.33,-262.62 1009.52,-263.19" fill="none" stroke="#bcbcbc" stroke-width="8" stroke-linecap="round" stroke-linejoin="round" /><polyline points="854.23,-154.44 936.44,-192.69 939.90,-194.98 947.94,-197.31 1002.71,-213.25 1011.02,-216.43 1019.90,-218.17" fill="none" stroke="#bcbcbc" stroke-width="8" stroke-linecap="round" stroke-linejoin="round" /><polyline points="837.46,-956.31 870.74,-952.20 874.08,-951.79 886.98,-948.62" fill="none" stroke="#bcbcbc" stroke-width="8" stroke-linecap="round" stroke-linejoin="round" /><polyline points="1121.82,-618.04 1127.72,-619.27 1149.77,-608.47 1152.68,-605.59 1194.07,-535.54 1195.16,-527.04 1200.54,-522.56 1199.69,-519.46 1199.55,-514.41 1200.30,-507.35 1211.26,-462.30 1212.23,-431.10 1213.77,-381.28 1216.35,-314.23 1205.85,-285.01 1199.09,-267.20 1189.21,-242.09 1186.35,-234.83 1184.50,-232.80 1181.51,-213.38" fill="none" stroke="#bcbcbc" stroke-width="8" stroke-linecap="round" stroke-linejoin="round" /><polyline points="1198.35,-95.04 1188.28,-99.42 1163.12,-116.97 1129.94,-140.29 1111.68,-155.05 1099.37,-168.24" fill="none" stroke="#bcbcbc" stroke-width="8" stroke-linecap="round" stroke-linejoin="round" /><polyline points="791.06,297.57 781.17,294.43 765.13,289.35 757.47,286.92 748.48,284.07 737.12,280.47 726.85,277.21 716.69,273.99 671.41,259.62 663.48,257.11 653.63,253.99 651.45,253.30 625.55,246.46 618.24,244.69 609.07,242.47 599.48,240.14 564.91,231.76 555.64,229.51 545.68,226.06 524.87,218.83 517.02,216.11 510.01,213.83 477.42,202.24 473.31,199.79 471.34,195.54" fill="none" stroke="#bcbcbc" stroke-width="8" stroke-linecap="round" stroke-linejoin="round" /><polyline points="939.90,-194.98 937.50,-203.58 930.34,-229.23 927.59,-239.10 923.61,-246.47 923.25,-247.84 920.90,-256.52 923.63,-260.37 920.35,-271.31 919.33,-274.71" fill="none" stroke="#bcbcbc" stroke-width="8" stroke-linecap="round" stroke-linejoin="round" /><polyline points="927.94,-508.87 934.74,-512.08 971.90,-532.56 993.14,-546.22 1008.12,-556.44 1011.43,-558.91 1023.49,-567.29 1035.99,-576.51 1043.90,-582.27 1053.33,-589.17 1086.12,-603.96 1090.37,-603.74 1096.58,-606.67 1121.82,-618.04" fill="none" stroke="#bcbcbc" stroke-width="8" stroke-linecap="round" stroke-linejoin="round" /><polyline points="516.03,-369.22 521.39,-367.04 524.93,-365.95 591.39,-345.54 601.54,-342.43" fill="none" stroke="#bcbcbc" stroke-width="8" stroke-linecap="round" stroke-linejoin="round" /><polyline points="41.34,-219.78 -6.14,-234.15" fill="none" stroke="#bcbcbc" stroke-width="8" stroke-linecap="round" stroke-linejoin="round" /><polyline points="808.28,-889.26 820.05,-874.35 821.81,-872.12 827.75,-864.60 834.52,-863.80 848.44,-862.17 850.92,-860.46" fill="none" stroke="#bcbcbc" stroke-width="8" stroke-linecap="round" stroke-linejoin="round" /><polyline points="1217.06,-226.04 1198.41,-222.56 1179.28,-212.17 1161.55,-202.30 1144.78,-193.91 1124.52,-182.91 1109.85,-174.00 1080.85,-158.46 967.66,-101.52 938.31,-88.59 918.92,-80.21 909.31,-77.06 901.37,-75.58 888.35,-74.79 869.84,-77.41 823.63,-88.50 758.04,-103.79 671.75,-129.81 639.96,-140.29 587.90,-156.36 538.12,-172.78 465.10,-201.43 428.59,-217.14 384.57,-236.71 311.56,-276.70 294.44,-288.06 251.12,-315.30 232.95,-333.47 205.70,-368.75 160.81,-415.03 143.16,-430.58" fill="none" stroke="#bcbcbc" stroke-width="8" stroke-linecap="round" stroke-linejoin="round" /><polyline points="863.13,320.35 863.89,316.08 866.65,309.11 892.54,248.53 902.33,225.82 913.86,197.52 916.66,187.17" fill="none" stroke="#bcbcbc" stroke-width="8" stroke-linecap="round" stroke-linejoin="round" /><polyline points="366.40,64.58 336.98,50.34 270.06,17.95 187.96,-21.77 180.64,-25.32" fill="none" stroke="#bcbcbc" stroke-width="8" stroke-linecap="round" stroke-linejoin="round" /><polyline points="849.79,-404.24 857.22,-411.85 876.97,-432.06 892.64,-449.17" fill="none" stroke="#bcbcbc" stroke-width="8" stroke-linecap="round" stroke-linejoin="round" /><polyline points="279.57,-359.21 271.41,-370.01 233.18,-420.63 178.60,-464.79" fill="none" stroke="#bcbcbc" stroke-width="8" stroke-linecap="round" stroke-linejoin="round" /><polyline points="42.71,307.12 50.18,289.43 73.91,230.27 76.79,222.50 79.98,213.89 81.19,210.78 81.51,205.92 84.55,159.93 85.42,146.73" fill="none" stroke="#bcbcbc" stroke-width="8" stroke-linecap="round" stroke-linejoin="round" /><polyline points="26.52,-168.41 41.34,-219.78 60.88,-287.55 63.30,-295.94 65.99,-305.46 72.02,-326.80 72.65,-329.04 74.38,-335.90 77.13,-343.66 77.79,-345.54 81.27,-354.15 88.09,-369.19 90.13,-373.51" fill="none" stroke="#bcbcbc" stroke-width="8" stroke-linecap="round" stroke-linejoin="round" /><polyline points="63.30,-295.94 93.28,-288.27 156.78,-271.95 192.95,-260.69 208.04,-257.15" fill="none" stroke="#bcbcbc" stroke-width="8" stroke-linecap="round" stroke-linejoin="round" /><polyline points="680.34,-529.05 681.36,-535.29 682.38,-541.77 686.78,-563.43 697.77,-613.85 706.79,-658.96 708.44,-668.32 710.68,-681.02 710.68,-681.03" fill="none" stroke="#bcbcbc" stroke-width="8" stroke-linecap="round" stroke-linejoin="round" /><polyline points="591.58,441.92 604.97,407.78 606.63,401.65 659.75,266.83 663.48,257.11 666.50,248.86 698.24,156.53 704.35,151.20" fill="none" stroke="#bcbcbc" stroke-width="8" stroke-linecap="round" stroke-linejoin="round" /><polyline points="773.65,-555.15 773.65,-555.16 771.77,-565.04 771.47,-566.24 766.88,-584.90 766.89,-584.95 763.76,-597.60 750.50,-643.02 748.83,-647.89 739.88,-672.22 736.97,-679.48 735.10,-684.17 732.66,-689.49 732.66,-689.50 732.66,-689.52 730.88,-709.08 730.71,-718.69" fill="none" stroke="#bcbcbc" stroke-width="8" stroke-linecap="round" stroke-linejoin="round" /><polyline points="753.78,215.46 750.38,219.14 745.30,225.19 730.99,265.53 726.85,277.21" fill="none" stroke="#bcbcbc" stroke-width="8" stroke-linecap="round" stroke-linejoin="round" /><polyline points="516.03,-369.22 517.98,-374.51 518.43,-375.74 527.72,-401.70 531.20,-412.63 559.68,-496.37" fill="none" stroke="#bcbcbc" stroke-width="8" stroke-linecap="round" stroke-linejoin="round" /><polyline points="663.36,-251.82 666.26,-259.54 674.13,-280.44 677.46,-289.28 679.71,-295.26 686.03,-312.04 690.20,-323.12 690.76,-324.61 700.87,-351.45 705.09,-350.14 707.38,-356.37 711.43,-367.40 710.66,-372.41 721.41,-401.67 722.51,-404.68 724.55,-406.56 726.27,-408.13 737.05,-437.60 738.61,-445.67 754.08,-488.65 757.74,-491.51 765.18,-512.56 763.86,-515.79 770.38,-535.46 766.99,-553.01" fill="none" stroke="#bcbcbc" stroke-width="8" stroke-linecap="round" stroke-linejoin="round" /><polyline points="940.08,-1051.24 935.75,-1058.35 912.97,-1095.71" fill="none" stroke="#bcbcbc" stroke-width="8" stroke-linecap="round" stroke-linejoin="round" /><polyline points="1011.43,-558.91 1115.96,-491.70 1115.99,-491.65 1115.99,-491.64 1135.32,-489.13" fill="none" stroke="#bcbcbc" stroke-width="8" stroke-linecap="round" stroke-linejoin="round" /><polyline points="969.51,-699.30 1080.73,-643.49 1084.09,-640.98 1083.86,-622.71 1086.12,-603.96" fill="none" stroke="#bcbcbc" stroke-width="8" stroke-linecap="round" stroke-linejoin="round" /><polyline points="757.47,286.92 753.47,299.12 737.27,348.54 709.71,431.76 707.75,437.67 705.77,443.65 705.22,450.02" fill="none" stroke="#bcbcbc" stroke-width="8" stroke-linecap="round" stroke-linejoin="round" /><polyline points="1070.57,-13.27 1071.23,-19.47 1071.37,-25.25 1071.33,-25.46 1067.39,-42.49 1065.77,-49.61 1064.99,-53.04 1064.19,-56.55 1059.87,-75.61 1051.42,-113.69 1045.28,-136.59 1044.40,-140.12" fill="none" stroke="#bcbcbc" stroke-width="8" stroke-linecap="round" stroke-linejoin="round" /><polyline points="518.40,335.35 521.16,327.51 552.13,239.51 555.64,229.51" fill="none" stroke="#bcbcbc" stroke-width="8" stroke-linecap="round" stroke-linejoin="round" /><polyline points="1213.77,-381.28 1204.66,-383.85 1142.78,-478.79 1135.32,-489.13" fill="none" stroke="#bcbcbc" stroke-width="8" stroke-linecap="round" stroke-linejoin="round" /><polyline points="196.57,-153.48 422.08,-99.46 437.63,-93.79" fill="none" stroke="#bcbcbc" stroke-width="8" stroke-linecap="round" stroke-linejoin="round" /><polyline points="907.84,-997.59 995.69,-965.05 1008.05,-967.16" fill="none" stroke="#bcbcbc" stroke-width="8" stroke-linecap="round" stroke-linejoin="round" />
    <polyline points="167.20,352.80 168.43,345.25 169.57,339.79 169.87,339.06 185.21,302.59 194.99,278.88 197.96,271.37 201.10,263.41 204.52,256.57 205.08,255.24 209.75,243.93 213.37,233.93 216.47,224.75 218.44,218.26 220.65,210.25 223.19,199.50 225.13,190.78 227.43,178.62 227.92,175.90 229.47,167.20" fill="none" stroke="#ffffff" stroke-width="16" stroke-linecap="round" stroke-linejoin="round" />
    <polyline points="167.20,352.80 168.43,345.25 169.57,339.79 169.87,339.06 185.21,302.59 194.99,278.88 197.96,271.37 201.10,263.41 204.52,256.57 205.08,255.24 209.75,243.93 213.37,233.93 216.47,224.75 218.44,218.26 220.65,210.25 223.19,199.50 225.13,190.78 227.43,178.62 227.92,175.90 229.47,167.20" fill="none" stroke="#111111" stroke-width="9" stroke-linecap="round" stroke-linejoin="round" />
    
            <g transform="translate(167.20,352.80)">
              <circle r="19" fill="#ffffff" stroke="#111111" stroke-width="4" />
              <text text-anchor="middle" dominant-baseline="central" font-family="Helvetica, Arial, sans-serif"
                font-size="18" font-weight="700" fill="#111111">1</text>
            </g>
            
            <g transform="translate(229.47,167.20)">
              <circle r="19" fill="#ffffff" stroke="#111111" stroke-width="4" />
              <text text-anchor="middle" dominant-baseline="central" font-family="Helvetica, Arial, sans-serif"
                font-size="18" font-weight="700" fill="#111111">2</text>
            </g>
            
  </g>
</svg>
