<svg xmlns="http://www.w3.org/2000/svg" width="520" height="520" viewBox="0 0 520 520">
  <rect width="100%" height="100%" fill="#ffffff" />
  <g>
    <polyline points="817.29,373.28 823.71,407.45 865.16,697.43 858.82,769.93" fill="none" stroke="#bcbcbc" stroke-width="8" stroke-linecap="round" stroke-linejoin="round" /><polyline points="-25.20,2789.84 -15.18,2759.03 37.91,2595.72 44.17,2576.47 50.50,2556.27 184.02,2130.47 194.75,2096.23 170.16,2035.66" fill="none" stroke="#bcbcbc" stroke-width="8" stroke-linecap="round" stroke-linejoin="round" /><polyline points="-947.43,2411.12 -949.59,2386.66 -905.94,2142.17 -899.82,2111.59 -895.24,2095.57 -883.23,2033.56 -869.73,1957.68 -855.02,1890.84 -840.43,1824.16 -831.24,1805.35 -825.23,1793.83" fill="none" stroke="#bcbcbc" stroke-width="8" stroke-linecap="round" stroke-linejoin="round" /><polyline points="-694.07,686.50 -704.45,654.85 -811.72,327.67 -816.95,313.95" fill="none" stroke="#bcbcbc" stroke-width="8" stroke-linecap="round" stroke-linejoin="round" /><polyline points="-1244.48,3566.04 -1241.28,3534.81 -1239.98,3520.49 -1228.30,3391.31 -1215.52,3277.56 -1212.53,3251.00 -1209.76,3219.14 -1209.45,3216.46 -1202.20,3153.10 -1195.96,3088.71 -1189.07,3026.57 -1184.44,2978.19 -1182.50,2948.33 -1180.79,2920.76 -1177.75,2889.69" fill="none" stroke="#bcbcbc" stroke-width="8" stroke-linecap="round" stroke-linejoin="round" /><polyline points="237.68,2865.75 245.32,2841.73 299.15,2672.51 305.27,2653.28 313.96,2625.89 320.19,2606.26 367.83,2400.76" fill="none" stroke="#bcbcbc" stroke-width="8" stroke-linecap="round" stroke-linejoin="round" /><polyline points="28.45,-481.51 48.33,-478.46 596.08,-394.29" fill="none" stroke="#bcbcbc" stroke-width="8" stroke-linecap="round" stroke-linejoin="round" /><polyline points="-1377.73,2825.88 -1434.74,2823.22 -1469.51,2821.60 -1488.39,2820.72 -1504.96,2819.95 -1634.07,2813.95 -1813.64,2805.60 -1899.23,2793.46 -1927.87,2789.40 -1952.73,2785.01 -2121.08,2755.29 -2144.61,2751.14 -2149.82,2750.25 -2178.89,2745.26 -2201.22,2741.44 -2343.87,2728.83 -2371.04,2726.43 -2381.01,2725.54 -2411.85,2723.40 -2472.23,2719.22" fill="none" stroke="#bcbcbc" stroke-width="8" stroke-linecap="round" stroke-linejoin="round" /><polyline points="-549.44,2660.45 -538.40,2629.02 -438.89,2353.15 -319.18,2005.18 -311.51,1983.36 -306.16,1968.11 -301.83,1955.60" fill="none" stroke="#bcbcbc" stroke-width="8" stroke-linecap="round" stroke-linejoin="round" /><polyline points="-2381.01,2725.54 -2383.55,2707.80 -2384.15,2688.54 -2380.37,2649.75 -2371.71,2578.91 -2365.93,2555.13 -2356.55,2469.17 -2354.84,2450.02 -2352.09,2425.41 -2350.05,2407.13 -2346.21,2386.41 -2339.08,2330.65 -2334.13,2288.00 -2326.86,2270.55" fill="none" stroke="#bcbcbc" stroke-width="8" stroke-linecap="round" stroke-linejoin="round" /><polyline points="-2482.86,2248.76 -2350.12,2267.30 -2326.86,2270.55 -2312.45,2272.85 -2252.95,2282.33 -2115.87,2304.18 -2092.34,2308.10" fill="none" stroke="#bcbcbc" stroke-width="8" stroke-linecap="round" stroke-linejoin="round" /><polyline points="-40.10,507.38 -39.24,519.45 -37.45,531.67 -33.14,541.03 -25.07,551.46 -10.14,565.05 25.23,586.57 298.14,757.80 466.21,983.16 593.17,1296.50 601.45,1317.20" fill="none" stroke="#bcbcbc" stroke-width="8" stroke-linecap="round" stroke-linejoin="round" /><polyline points="-83.80,1421.65 -78.14,1431.01 -76.67,1433.45 -71.99,1457.08 -39.97,1611.93 -29.81,1661.07 -22.54,1696.08 -11.20,1767.02 -5.90,1799.75 -2.25,1819.71 1.75,1837.74 6.52,1848.26 13.53,1860.43 17.28,1866.18 88.19,1967.70 126.54,2028.11 136.55,2042.55" fill="none" stroke="#bcbcbc" stroke-width="8" stroke-linecap="round" stroke-linejoin="round" /><polyline points="-2119.45,3360.47 -2115.68,3337.23 -2112.17,3320.43 -2111.24,3318.20 -2064.04,3205.97 -2033.97,3133.03 -2024.83,3109.92 -2015.15,3085.44 -2004.64,3064.39 -2002.94,3060.28 -1988.55,3025.49 -1977.42,2994.71 -1967.88,2966.47 -1961.82,2946.51 -1955.03,2921.85 -1947.20,2888.79 -1941.26,2861.97 -1934.15,2824.52 -1932.66,2816.17 -1927.87,2789.40" fill="none" stroke="#bcbcbc" stroke-width="8" stroke-linecap="round" stroke-linejoin="round" /><polyline points="-464.71,1197.59 -444.82,1205.24 -358.47,1233.49 -158.17,1310.30 -146.94,1321.51 -141.66,1329.87" fill="none" stroke="#bcbcbc" stroke-width="8" stroke-linecap="round" stroke-linejoin="round" /><polyline points="-91.47,3171.54 -77.83,3135.99 -10.49,2953.29 37.12,2815.25 46.99,2810.71" fill="none" stroke="#bcbcbc" stroke-width="8" stroke-linecap="round" stroke-linejoin="round" /><polyline points="-1043.28,2939.88 -1032.66,2916.39 -1031.61,2914.06 -1013.43,2853.08 -983.65,2752.69 -976.02,2727.00 -970.10,2707.05 -969.30,2695.42 -970.51,2669.68" fill="none" stroke="#bcbcbc" stroke-width="8" stroke-linecap="round" stroke-linejoin="round" /><polyline points="194.36,1429.67 177.29,1433.20 138.60,1426.31 132.61,1410.35 65.58,1384.80 49.73,1388.94 -10.74,1366.73 -19.76,1373.03" fill="none" stroke="#bcbcbc" stroke-width="8" stroke-linecap="round" stroke-linejoin="round" /><polyline points="94.83,-643.89 125.21,-636.45 142.01,-633.53 541.58,-564.24" fill="none" stroke="#bcbcbc" stroke-width="8" stroke-linecap="round" stroke-linejoin="round" /><polyline points="-215.72,3060.28 -199.10,3013.42 -166.80,2922.34 -145.93,2883.54 -115.89,2799.44 -103.90,2765.87" fill="none" stroke="#bcbcbc" stroke-width="8" stroke-linecap="round" stroke-linejoin="round" /><polyline points="-2405.01,1241.39 -2433.95,1240.07 -2441.21,1248.88 -2491.62,1310.15 -2667.87,1513.75 -2692.65,1542.38" fill="none" stroke="#bcbcbc" stroke-width="8" stroke-linecap="round" stroke-linejoin="round" /><polyline points="-859.12,1415.77 -871.89,1444.06 -873.44,1447.49 -917.83,1563.24 -962.57,1690.66 -974.50,1724.64 -981.26,1742.18" fill="none" stroke="#bcbcbc" stroke-width="8" stroke-linecap="round" stroke-linejoin="round" /><polyline points="-208.06,115.17 -193.96,134.30 -183.88,160.61 -168.22,198.37 -143.08,257.76 -120.80,311.08 -95.24,369.62 -76.28,414.73 -73.47,421.21 -73.30,421.61 -58.04,457.29 -53.48,467.43 -49.14,477.09 -44.55,486.13 -41.10,495.33 -40.10,507.39" fill="none" stroke="#bcbcbc" stroke-width="8" stroke-linecap="round" stroke-linejoin="round" /><polyline points="-1287.52,1986.37 -1280.14,1982.34 -1269.81,1974.13 -1264.65,1963.48 -1196.07,1703.44 -1194.00,1688.78 -1185.64,1661.99" fill="none" stroke="#bcbcbc" stroke-width="8" stroke-linecap="round" stroke-linejoin="round" /><polyline points="1110.28,1579.44 1120.01,1610.31 1126.86,1642.75 1113.53,1766.35 1098.13,1859.32 1089.71,1891.03 1088.95,1893.90 1081.58,1911.02 1071.54,1929.16 1048.07,1958.84 1059.43,2016.86 1022.68,2141.40 1002.39,2210.18 960.88,2322.77 900.08,2459.84 825.85,2591.20 802.67,2633.90 760.76,2704.04 593.30,2941.72 556.61,2991.16 414.53,3176.85 332.97,3269.65 218.88,3385.62 208.32,3386.71 182.55,3407.78" fill="none" stroke="#bcbcbc" stroke-width="8" stroke-linecap="round" stroke-linejoin="round" /><polyline points="-955.97,3612.57 -909.22,3467.59 -901.58,3443.65 -891.19,3428.56 -868.86,3361.55 -861.60,3338.79 -769.38,3050.04 -760.10,3021.00 -752.46,2995.48 -643.63,2652.94" fill="none" stroke="#bcbcbc" stroke-width="8" stroke-linecap="round" stroke-linejoin="round" /><polyline points="139.08,916.23 179.49,872.07 191.41,857.71 273.05,742.05" fill="none" stroke="#bcbcbc" stroke-width="8" stroke-linecap="round" stroke-linejoin="round" /><polyline points="-668.60,933.73 -557.32,972.47 -551.17,982.46 -519.57,993.06 -500.82,999.47 -411.12,1029.77" fill="none" stroke="#bcbcbc" stroke-width="8" stroke-linecap="round" stroke-linejoin="round" /><polyline points="301.33,163.60 352.80,352.80 412.39,575.69 421.42,594.26 422.86,615.47 463.26,690.91 572.30,894.27 596.13,929.44 603.04,939.74 765.95,1244.34 840.83,1312.41 851.33,1325.97 866.14,1338.63 1008.30,1460.20 1017.95,1468.45 1043.48,1482.00" fill="none" stroke="#bcbcbc" stroke-width="8" stroke-linecap="round" stroke-linejoin="round" /><polyline points="-251.56,3643.35 102.98,3437.38 166.09,3405.11 182.55,3407.78" fill="none" stroke="#bcbcbc" stroke-width="8" stroke-linecap="round" stroke-linejoin="round" /><polyline points="132.84,3348.70 154.84,3322.54 352.33,2928.47 365.41,2902.62 376.34,2877.04 440.13,2719.28 459.12,2671.75 514.10,2505.34 549.75,2291.40 553.98,2260.26" fill="none" stroke="#bcbcbc" stroke-width="8" stroke-linecap="round" stroke-linejoin="round" /><polyline points="-19.56,1031.12 -23.02,1034.66 -27.78,1051.24 -28.25,1052.89 -49.68,1135.42 -44.06,1156.97 -48.74,1176.28 -54.85,1201.57 -70.54,1219.74 -88.34,1291.84 -109.30,1307.68 -131.68,1323.03 -141.66,1329.87" fill="none" stroke="#bcbcbc" stroke-width="8" stroke-linecap="round" stroke-linejoin="round" /><polyline points="-859.12,1415.77 -850.01,1392.41 -795.22,1251.95 -783.28,1221.32 -773.43,1196.10 -703.43,1016.72 -671.91,941.73 -668.60,933.73 -644.10,874.50 -589.14,738.03 -569.01,679.93 -564.53,666.61 -558.52,651.50" fill="none" stroke="#bcbcbc" stroke-width="8" stroke-linecap="round" stroke-linejoin="round" /><polyline points="-246.05,564.32 -235.46,595.86 112.25,892.88 301.98,1057.96 585.37,1304.33 610.10,1324.12 621.18,1331.05 670.36,1375.69 736.03,1431.71 884.98,1558.72 933.09,1600.10 965.02,1638.29" fill="none" stroke="#bcbcbc" stroke-width="8" stroke-linecap="round" stroke-linejoin="round" /><polyline points="328.84,52.52 346.48,41.22 450.96,-2.20 472.43,-24.79" fill="none" stroke="#bcbcbc" stroke-width="8" stroke-linecap="round" stroke-linejoin="round" /><polyline points="449.51,2695.79 305.27,2653.28 44.17,2576.47" fill="none" stroke="#bcbcbc" stroke-width="8" stroke-linecap="round" stroke-linejoin="round" /><polyline points="-16.10,-372.61 3.60,-359.03 645.63,-216.16" fill="none" stroke="#bcbcbc" stroke-width="8" stroke-linecap="round" stroke-linejoin="round" /><polyline points="776.95,1741.42 743.77,1667.59 670.14,1491.96 664.65,1478.00 652.05,1445.94 604.59,1325.14 601.60,1317.32" fill="none" stroke="#bcbcbc" stroke-width="8" stroke-linecap="round" stroke-linejoin="round" /><polyline points="-208.06,115.17 -243.70,105.03 -269.90,97.23 -323.13,81.42 -350.18,73.70 -365.68,69.39 -385.91,63.60" fill="none" stroke="#bcbcbc" stroke-width="8" stroke-linecap="round" stroke-linejoin="round" /><polyline points="-1137.44,1081.18 -1139.24,1075.28 -1140.91,1071.15 -1148.25,1052.89 -1176.71,986.54 -1203.76,919.13 -1209.60,903.22 -1216.33,884.89 -1221.14,869.89 -1229.09,847.41 -1229.93,845.04 -1255.81,781.26 -1303.31,661.38 -1313.98,655.30 -1321.57,635.85 -1336.73,583.20 -1362.68,517.95 -1368.27,503.12" fill="none" stroke="#bcbcbc" stroke-width="8" stroke-linecap="round" stroke-linejoin="round" /><polyline points="-909.22,3467.59 -882.25,3475.85 -794.96,3502.45 -767.62,3510.78" fill="none" stroke="#bcbcbc" stroke-width="8" stroke-linecap="round" stroke-linejoin="round" /><polyline points="720.87,83.92 725.95,63.35 723.89,55.54 721.40,46.11 705.46,-12.28 669.93,-135.72 651.18,-198.82 645.63,-216.16 596.08,-394.29 569.33,-490.36 541.58,-564.24 516.51,-630.89 491.55,-676.72 467.30,-700.93 281.10,-928.47 267.33,-944.66 258.20,-959.63" fill="none" stroke="#bcbcbc" stroke-width="8" stroke-linecap="round" stroke-linejoin="round" /><polyline points="-40.10,507.39 -49.70,511.06 -67.45,515.96 -69.23,516.45 -143.38,535.41 -228.65,559.42 -246.05,564.32 -253.80,566.78 -274.29,573.37 -291.80,578.24 -368.25,599.51 -493.99,635.24 -540.87,647.09 -558.52,651.50 -642.31,672.08 -694.07,686.50 -803.69,717.12 -912.04,747.66 -924.58,751.14 -1015.13,776.28 -1056.90,787.87 -1077.99,797.84 -1117.92,817.64 -1197.21,857.88 -1202.74,860.68 -1221.14,869.89 -1232.38,875.52 -1248.04,883.73 -1303.75,912.94 -1405.26,969.90 -1490.05,1014.32 -1502.18,1020.68 -1518.39,1021.69 -1528.12,1026.86 -1530.06,1027.89 -1622.05,1078.31 -1641.31,1078.22 -1663.43,1089.79 -1671.15,1093.83 -1677.66,1097.24 -1693.04,1105.29 -1705.15,1132.92 -1757.22,1160.81 -1773.77,1169.68 -1791.68,1179.43 -1864.12,1218.85 -1901.56,1239.23 -1920.43,1244.67" fill="none" stroke="#bcbcbc" stroke-width="8" stroke-linecap="round" stroke-linejoin="round" /><polyline points="1002.39,2210.18 963.73,2213.73 842.99,2224.79 837.55,2225.29 829.85,2225.99 817.39,2227.14 700.32,2237.89 659.60,2234.11 612.19,2245.99 574.21,2255.30 553.98,2260.26 503.72,2262.17 460.21,2259.96 438.04,2257.60 419.16,2251.89 405.26,2244.21 353.49,2207.60 227.71,2121.20 215.86,2113.16 203.78,2104.97 194.75,2096.23" fill="none" stroke="#bcbcbc" stroke-width="8" stroke-linecap="round" stroke-linejoin="round" /><polyline points="-1846.38,751.57 -1800.74,840.93 -1793.83,866.46 -1755.39,939.83 -1739.51,960.81 -1675.25,1085.85 -1671.15,1093.83" fill="none" stroke="#bcbcbc" stroke-width="8" stroke-linecap="round" stroke-linejoin="round" /><polyline points="-447.75,1546.22 -454.59,1565.01 -456.51,1570.84 -465.42,1597.87 -521.89,1755.42 -549.91,1833.66 -550.87,1836.33 -562.13,1860.64 -568.58,1875.09" fill="none" stroke="#bcbcbc" stroke-width="8" stroke-linecap="round" stroke-linejoin="round" /><polyline points="301.33,163.60 295.07,150.19 278.62,148.04 225.40,160.24 214.58,158.84 206.11,147.48 191.05,78.22 272.62,65.59 310.38,54.44 328.84,52.52 348.73,123.24" fill="none" stroke="#bcbcbc" stroke-width="8" stroke-linecap="round" stroke-linejoin="round" /><polyline points="596.13,929.44 617.15,917.64 722.68,854.04 750.88,837.25 800.25,807.81 881.47,755.28 900.43,741.65 1042.89,653.27" fill="none" stroke="#bcbcbc" stroke-width="8" stroke-linecap="round" stroke-linejoin="round" /><polyline points="1094.13,1346.91 1058.11,1336.18 1037.17,1319.01 957.15,1249.75 954.43,1247.32 935.08,1230.05 923.71,1209.89 722.68,854.04" fill="none" stroke="#bcbcbc" stroke-width="8" stroke-linecap="round" stroke-linejoin="round" /><polyline points="-1174.53,1318.71 -859.12,1415.77 -833.39,1423.93 -598.02,1498.55 -593.10,1500.11 -557.84,1511.29 -540.51,1516.79 -517.98,1522.95 -471.51,1538.68 -447.75,1546.22 -426.37,1553.00 -251.21,1608.57 -66.30,1666.67 -51.01,1671.48 -29.81,1661.07" fill="none" stroke="#bcbcbc" stroke-width="8" stroke-linecap="round" stroke-linejoin="round" /><polyline points="-247.14,-238.55 -110.51,-364.10 -87.38,-385.35" fill="none" stroke="#bcbcbc" stroke-width="8" stroke-linecap="round" stroke-linejoin="round" /><polyline points="-2534.98,1787.29 -2033.65,1841.03" fill="none" stroke="#bcbcbc" stroke-width="8" stroke-linecap="round" stroke-linejoin="round" /><polyline points="-1022.62,387.90 -917.25,350.22 -808.56,310.92 -741.04,284.67 -534.85,209.67 -475.01,188.97 -462.52,184.65 -447.53,179.50 -430.70,173.71 -428.64,173.00 -394.68,159.35 -379.91,153.41" fill="none" stroke="#bcbcbc" stroke-width="8" stroke-linecap="round" stroke-linejoin="round" /><polyline points="-314.92,2937.89 -215.72,3060.28 -154.99,3121.43 -128.70,3140.36 -91.47,3171.54 -56.51,3200.89 -26.48,3230.20 -25.73,3245.10" fill="none" stroke="#bcbcbc" stroke-width="8" stroke-linecap="round" stroke-linejoin="round" /><polyline points="-208.06,115.17 -169.18,17.72 -106.25,-142.74 -16.10,-372.61 28.45,-481.51 94.83,-643.89 149.27,-776.90 159.01,-794.55 206.88,-872.82 209.98,-877.88 227.49,-912.32 258.20,-959.63 275.35,-986.03 299.62,-1023.38" fill="none" stroke="#bcbcbc" stroke-width="8" stroke-linecap="round" stroke-linejoin="round" /><polyline points="-1125.25,2720.84 -1131.61,2725.93 -1135.82,2732.00 -1144.40,2757.29 -1150.32,2775.54 -1177.71,2857.45 -1181.48,2869.27 -1183.82,2876.61 -1208.97,2869.40 -1270.19,2848.87 -1330.85,2828.53 -1377.73,2825.87" fill="none" stroke="#bcbcbc" stroke-width="8" stroke-linecap="round" stroke-linejoin="round" /><polyline points="-2324.04,3290.83 -2224.08,3032.65 -2212.95,3004.54 -2202.97,2977.47 -2190.92,2944.76 -2176.14,2893.30 -2160.72,2829.36 -2154.41,2783.53 -2149.82,2750.25 -2143.35,2725.68 -2119.82,2541.06 -2092.34,2308.10 -2078.12,2197.03 -2062.25,2066.56 -2033.65,1841.03 -2029.11,1802.68 -2000.20,1566.82 -2000.19,1553.68 -1993.80,1483.70 -1975.36,1335.87 -1970.74,1310.09 -1965.92,1295.63 -1958.38,1279.70 -1951.05,1267.34 -1934.87,1249.82 -1920.40,1244.85" fill="none" stroke="#bcbcbc" stroke-width="8" stroke-linecap="round" stroke-linejoin="round" /><polyline points="-141.66,1329.87 -136.19,1338.54 -117.86,1367.16 -90.41,1411.16 -83.80,1421.65 -72.85,1413.34 -19.76,1373.03" fill="none" stroke="#bcbcbc" stroke-width="8" stroke-linecap="round" stroke-linejoin="round" /><polyline points="-106.25,-142.74 433.88,-45.08 490.61,-15.22 702.23,89.69 720.87,83.92" fill="none" stroke="#bcbcbc" stroke-width="8" stroke-linecap="round" stroke-linejoin="round" /><polyline points="-1137.44,1081.18 -1147.03,1095.16 -1233.20,1137.22 -1296.49,1217.67 -1364.78,1259.96 -1411.49,1295.23 -1456.05,1331.58 -1478.90,1352.41 -1519.25,1403.60 -1564.38,1468.29 -1571.81,1480.27" fill="none" stroke="#bcbcbc" stroke-width="8" stroke-linecap="round" stroke-linejoin="round" /><polyline points="-1046.34,1138.89 -1050.07,1147.20 -1058.25,1159.14 -1073.69,1178.14 -1164.71,1293.14 -1212.87,1422.85 -1455.94,1331.48" fill="none" stroke="#bcbcbc" stroke-width="8" stroke-linecap="round" stroke-linejoin="round" /><polyline points="-1411.49,1295.23 -1420.90,1266.73 -1461.58,1143.57 -1477.36,1119.24 -1503.80,1039.93 -1506.08,1033.09 -1502.18,1020.68 -1508.51,1000.46 -1635.61,594.62" fill="none" stroke="#bcbcbc" stroke-width="8" stroke-linecap="round" stroke-linejoin="round" /><polyline points="77.78,-919.22 178.23,-916.57 182.92,-916.44 202.17,-915.89 227.49,-912.32" fill="none" stroke="#bcbcbc" stroke-width="8" stroke-linecap="round" stroke-linejoin="round" /><polyline points="-438.89,2353.15 -473.18,2352.73 -763.59,2391.72 -784.53,2393.93 -808.46,2396.45 -947.43,2411.12 -1134.66,2430.90 -1233.92,2441.36 -1288.83,2447.16 -1333.41,2452.58 -1356.30,2455.36 -1382.09,2458.50 -1506.66,2473.63 -1536.51,2477.26 -1628.50,2487.32 -2119.82,2541.06" fill="none" stroke="#bcbcbc" stroke-width="8" stroke-linecap="round" stroke-linejoin="round" /><polyline points="-868.86,3361.55 -894.59,3353.27 -1014.75,3314.59 -1039.04,3306.77 -1060.13,3299.99 -1187.44,3259.07 -1212.53,3251.00 -1245.74,3240.31 -1448.40,3175.09 -1471.21,3167.75" fill="none" stroke="#bcbcbc" stroke-width="8" stroke-linecap="round" stroke-linejoin="round" /><polyline points="-366.40,928.48 -296.51,950.26 -40.90,1029.19 -38.52,1029.93 -19.56,1031.12" fill="none" stroke="#bcbcbc" stroke-width="8" stroke-linecap="round" stroke-linejoin="round" /><polyline points="352.80,352.80 700.50,358.92" fill="none" stroke="#bcbcbc" stroke-width="8" stroke-linecap="round" stroke-linejoin="round" /><polyline points="182.55,3407.78 132.84,3348.70 111.99,3324.44 94.07,3307.69 70.21,3289.88 21.45,3260.62 -25.73,3245.10 -121.74,3215.45 -200.25,3190.53 -154.99,3121.43" fill="none" stroke="#bcbcbc" stroke-width="8" stroke-linecap="round" stroke-linejoin="round" /><polyline points="-314.92,2937.89 -384.13,2852.46 -397.30,2836.20 -467.01,2740.16 -482.79,2710.83 -479.00,2675.92 -457.98,2675.71 -406.13,2685.69 -327.24,2700.87" fill="none" stroke="#bcbcbc" stroke-width="8" stroke-linecap="round" stroke-linejoin="round" /><polyline points="-1220.31,2253.37 -1207.55,2280.83 -1134.66,2430.90 -1026.28,2654.03 -1012.45,2682.49" fill="none" stroke="#bcbcbc" stroke-width="8" stroke-linecap="round" stroke-linejoin="round" /><polyline points="-2387.78,2933.06 -2361.71,2943.72 -2239.61,2993.65 -2212.95,3004.54 -2184.91,3016.01 -2041.15,3074.80 -2015.15,3085.44" fill="none" stroke="#bcbcbc" stroke-width="8" stroke-linecap="round" stroke-linejoin="round" /><polyline points="-1160.33,2030.87 -905.94,2142.17" fill="none" stroke="#bcbcbc" stroke-width="8" stroke-linecap="round" stroke-linejoin="round" /><polyline points="-19.56,1031.12 19.18,1033.15 21.65,1035.35 39.04,1050.77 64.59,1073.59 69.31,1082.76 157.38,1159.89 163.90,1172.20 225.83,1226.86 241.41,1231.61 289.59,1273.81 300.38,1278.74 373.03,1340.37 389.20,1354.71 398.13,1368.92" fill="none" stroke="#bcbcbc" stroke-width="8" stroke-linecap="round" stroke-linejoin="round" /><polyline points="-2459.58,2031.12 -2062.25,2066.56" fill="none" stroke="#bcbcbc" stroke-width="8" stroke-linecap="round" stroke-linejoin="round" /><polyline points="-1572.42,3510.76 -1560.11,3484.55 -1556.95,3472.89 -1539.69,3409.27 -1477.19,3188.86 -1471.21,3167.75 -1464.88,3144.61 -1436.57,3041.06 -1388.75,2866.18 -1377.73,2825.88" fill="none" stroke="#bcbcbc" stroke-width="8" stroke-linecap="round" stroke-linejoin="round" /><polyline points="-1220.31,2253.37 -1160.33,2030.87 -1287.52,1986.37 -1320.82,2006.04 -1336.00,2017.58 -1347.24,2032.79 -1355.15,2052.86 -1384.41,2160.99 -1360.81,2173.01 -1336.96,2178.80 -1284.25,2192.52 -1244.79,2205.09 -1220.31,2253.37" fill="none" stroke="#bcbcbc" stroke-width="8" stroke-linecap="round" stroke-linejoin="round" /><polyline points="-1384.41,2160.99 -1412.26,2157.11 -2062.25,2066.56" fill="none" stroke="#bcbcbc" stroke-width="8" stroke-linecap="round" stroke-linejoin="round" /><polyline points="-327.24,2700.87 -266.95,2714.04 -103.90,2765.87 -58.31,2780.29 49.90,2811.55 158.92,2842.98 239.62,2866.31 368.69,2903.57 395.35,2911.28 460.49,2933.12 567.72,2961.68 577.18,2963.45" fill="none" stroke="#bcbcbc" stroke-width="8" stroke-linecap="round" stroke-linejoin="round" /><polyline points="-250.76,3642.88 -272.76,3648.41 -296.55,3714.70 -333.43,3704.22 -501.13,3647.06 -521.32,3642.76 -566.22,3639.54 -769.31,3640.35 -814.08,3634.65 -915.18,3619.19 -955.96,3612.57 -1245.22,3565.92 -1357.22,3548.04 -1570.83,3511.04 -1605.32,3504.20 -2087.40,3369.45 -2117.82,3360.93 -2324.04,3290.83 -2374.78,3272.83 -2501.51,3220.31 -2573.74,3192.98" fill="none" stroke="#bcbcbc" stroke-width="8" stroke-linecap="round" stroke-linejoin="round" /><polyline points="191.05,78.22 170.18,73.92 -108.44,106.86 -208.06,115.17" fill="none" stroke="#bcbcbc" stroke-width="8" stroke-linecap="round" stroke-linejoin="round" /><polyline points="-327.24,2700.87 -317.47,2684.53 -259.00,2534.36 -193.68,2307.28 -177.01,2258.38 -168.10,2245.06 -105.03,2042.59 -101.89,2018.41 -99.51,2002.62" fill="none" stroke="#bcbcbc" stroke-width="8" stroke-linecap="round" stroke-linejoin="round" /><polyline points="-40.10,507.39 -33.44,504.84 -24.41,497.67 -10.71,481.64 167.20,226.35 214.58,158.84" fill="none" stroke="#bcbcbc" stroke-width="8" stroke-linecap="round" stroke-linejoin="round" /><polyline points="751.70,1445.16 755.34,1434.69 844.77,1329.47 851.33,1325.97 866.87,1304.71 918.89,1244.95 935.08,1230.05" fill="none" stroke="#bcbcbc" stroke-width="8" stroke-linecap="round" stroke-linejoin="round" /><polyline points="829.85,2225.99 828.61,2211.92 827.66,2201.02 822.95,2180.20 817.31,2166.61 810.29,2130.93 809.65,2118.01 804.88,2089.12 783.60,2078.00 766.59,2084.50 736.14,2091.80 712.04,2095.57 688.92,2101.14 657.01,2108.42 642.46,2111.74" fill="none" stroke="#bcbcbc" stroke-width="8" stroke-linecap="round" stroke-linejoin="round" /><polyline points="-1519.66,1709.26 -1454.62,1556.79 -1451.01,1546.88" fill="none" stroke="#bcbcbc" stroke-width="8" stroke-linecap="round" stroke-linejoin="round" /><polyline points="194.36,1429.67 225.71,1417.53 242.10,1411.18 254.78,1398.35 307.04,1385.46 324.57,1389.93 362.40,1380.19 391.26,1372.75 398.13,1368.92 426.11,1362.06 569.17,1327.01 601.60,1317.32" fill="none" stroke="#bcbcbc" stroke-width="8" stroke-linecap="round" stroke-linejoin="round" /><polyline points="-1125.25,2720.84 -1057.76,2696.33 -1035.18,2689.43 -1012.45,2682.49 -970.51,2669.68 -937.88,2664.98 -826.45,2652.79 -804.06,2651.57 -704.36,2652.42 -643.63,2652.94 -620.79,2651.77 -584.20,2655.48 -572.76,2657.12 -549.44,2660.45 -479.00,2675.92" fill="none" stroke="#bcbcbc" stroke-width="8" stroke-linecap="round" stroke-linejoin="round" /><polyline points="-803.69,717.12 -814.87,679.32 -856.40,538.91 -906.84,378.80 -917.25,350.22 -927.83,323.43 -941.20,284.83" fill="none" stroke="#bcbcbc" stroke-width="8" stroke-linecap="round" stroke-linejoin="round" /><polyline points="-924.47,2981.13 -915.61,2953.12 -825.89,2670.19 -826.45,2652.79" fill="none" stroke="#bcbcbc" stroke-width="8" stroke-linecap="round" stroke-linejoin="round" /><polyline points="-804.06,2651.57 -786.30,2413.35 -784.53,2393.93 -781.81,2371.32 -781.76,2370.30 -780.59,2342.67 -774.67,2267.68 -771.32,2232.76 -766.75,2193.09 -762.59,2164.52 -758.85,2146.58 -754.15,2133.03 -744.93,2102.48 -725.87,2038.88 -701.64,1956.77 -674.92,1872.81 -669.47,1855.69 -665.09,1843.27" fill="none" stroke="#bcbcbc" stroke-width="8" stroke-linecap="round" stroke-linejoin="round" /><polyline points="-1384.41,2160.99 -1389.13,2182.11 -1388.32,2188.85 -1359.37,2429.84 -1356.30,2455.36 -1357.64,2481.62 -1365.22,2631.50 -1368.39,2694.12 -1370.02,2726.42 -1372.93,2783.99 -1374.45,2813.97 -1377.73,2825.88" fill="none" stroke="#bcbcbc" stroke-width="8" stroke-linecap="round" stroke-linejoin="round" /><polyline points="-1519.66,1709.26 -1624.89,1677.98 -1638.27,1669.40 -1703.76,1650.32 -1722.17,1650.51 -1804.46,1625.72 -1817.75,1615.91 -1892.63,1593.21 -1984.51,1568.16 -1984.96,1568.12 -2000.20,1566.82" fill="none" stroke="#bcbcbc" stroke-width="8" stroke-linecap="round" stroke-linejoin="round" /><polyline points="398.13,1368.92 401.78,1373.72 417.04,1396.46 445.25,1438.51 471.81,1465.12 522.85,1522.43 514.23,1575.39 509.85,1595.25 503.76,1603.65 516.55,1622.58 536.35,1663.33 575.92,1739.68 595.41,1777.27 607.52,1811.06 612.99,1826.75" fill="none" stroke="#bcbcbc" stroke-width="8" stroke-linecap="round" stroke-linejoin="round" /><polyline points="664.65,1478.00 649.98,1482.56 553.34,1512.63 539.48,1517.08 522.85,1522.43" fill="none" stroke="#bcbcbc" stroke-width="8" stroke-linecap="round" stroke-linejoin="round" /><polyline points="-29.81,1661.07 0.42,1651.28 219.77,1539.26 249.13,1524.91 352.52,1495.05 452.76,1466.87 471.81,1465.12" fill="none" stroke="#bcbcbc" stroke-width="8" stroke-linecap="round" stroke-linejoin="round" /><polyline points="-5.90,1799.75 246.98,1682.06 257.63,1675.01 282.35,1667.82 450.86,1618.78 476.42,1608.99 503.76,1603.65" fill="none" stroke="#bcbcbc" stroke-width="8" stroke-linecap="round" stroke-linejoin="round" /><polyline points="-57.51,-667.55 44.86,-654.90 55.14,-653.63 94.83,-643.89" fill="none" stroke="#bcbcbc" stroke-width="8" stroke-linecap="round" stroke-linejoin="round" /><polyline points="817.29,373.28 835.44,369.48 903.27,402.74 912.21,411.58 1039.54,627.13 1042.89,653.27 1059.45,667.07 1056.82,676.60 1056.42,692.14 1058.72,713.86 1092.44,852.47 1095.42,948.47 1100.15,1101.76 1108.08,1308.09 1075.78,1397.99 1054.97,1452.80 1024.60,1530.04 1015.81,1552.38 1010.10,1558.62 1000.92,1618.39" fill="none" stroke="#bcbcbc" stroke-width="8" stroke-linecap="round" stroke-linejoin="round" /><polyline points="1052.70,1982.51 1021.73,1969.03 944.35,1915.02 842.25,1843.27 786.09,1797.86 748.21,1757.28" fill="none" stroke="#bcbcbc" stroke-width="8" stroke-linecap="round" stroke-linejoin="round" /><polyline points="-200.25,3190.53 -230.67,3180.88 -280.02,3165.24 -303.57,3157.77 -331.23,3149.00 -366.19,3137.91 -397.79,3127.89 -429.03,3117.98 -568.34,3073.77 -592.74,3066.03 -623.04,3056.43 -629.73,3054.32 -709.40,3033.26 -731.90,3027.82 -760.10,3021.00 -789.61,3013.84 -895.95,2988.05 -924.47,2981.13 -955.12,2970.49 -1019.15,2948.26 -1043.28,2939.88 -1064.86,2932.87 -1165.12,2897.21 -1177.75,2889.69 -1183.82,2876.61" fill="none" stroke="#bcbcbc" stroke-width="8" stroke-linecap="round" stroke-linejoin="round" /><polyline points="257.63,1675.01 250.24,1648.54 228.23,1569.61 219.77,1539.26 207.53,1516.58 206.40,1512.37 199.19,1485.65 207.58,1473.81 197.49,1440.13 194.36,1429.67" fill="none" stroke="#bcbcbc" stroke-width="8" stroke-linecap="round" stroke-linejoin="round" /><polyline points="220.83,709.18 241.75,699.33 356.07,636.30 421.42,594.26 467.51,562.82 477.69,555.24 514.78,529.45 553.23,501.05 577.57,483.34 606.58,462.12 707.44,416.60 720.52,417.30 739.64,408.25 817.29,373.27" fill="none" stroke="#bcbcbc" stroke-width="8" stroke-linecap="round" stroke-linejoin="round" /><polyline points="-1046.34,1138.89 -1029.84,1145.58 -1018.94,1148.93 -814.50,1211.73 -783.28,1221.32" fill="none" stroke="#bcbcbc" stroke-width="8" stroke-linecap="round" stroke-linejoin="round" /><polyline points="-2506.64,1598.68 -2652.71,1554.47" fill="none" stroke="#bcbcbc" stroke-width="8" stroke-linecap="round" stroke-linejoin="round" /><polyline points="-147.28,-461.24 -111.07,-415.36 -105.66,-408.51 -87.38,-385.35 -66.55,-382.90 -23.72,-377.88 -16.10,-372.61" fill="none" stroke="#bcbcbc" stroke-width="8" stroke-linecap="round" stroke-linejoin="round" /><polyline points="1110.28,1579.44 1052.90,1590.14 994.06,1622.12 939.51,1652.48 887.92,1678.28 825.59,1712.14 780.45,1739.55 691.24,1787.38 343.02,1962.58 252.75,2002.35 193.10,2028.15 163.54,2037.82 139.09,2042.39 99.06,2044.81 42.09,2036.75 -100.04,2002.62 -301.83,1955.60 -567.29,1875.52 -665.09,1843.27 -825.23,1793.83 -978.38,1743.31 -1203.01,1655.17 -1315.32,1606.80 -1450.74,1546.61 -1675.36,1423.54 -1728.02,1388.61 -1861.29,1304.77 -1917.18,1248.88 -2001.01,1140.33 -2139.12,997.92 -2193.39,950.09" fill="none" stroke="#bcbcbc" stroke-width="8" stroke-linecap="round" stroke-linejoin="round" /><polyline points="21.45,3260.62 23.80,3247.49 32.30,3226.04 111.95,3039.64 142.04,2969.77 177.51,2882.70 186.15,2850.84" fill="none" stroke="#bcbcbc" stroke-width="8" stroke-linecap="round" stroke-linejoin="round" /><polyline points="-1506.66,2473.63 -1597.14,2429.84 -1803.03,2330.18 -2055.58,2207.94 -2078.12,2197.03" fill="none" stroke="#bcbcbc" stroke-width="8" stroke-linecap="round" stroke-linejoin="round" /><polyline points="-19.56,1031.12 3.28,1007.72 64.03,945.53 112.24,892.88" fill="none" stroke="#bcbcbc" stroke-width="8" stroke-linecap="round" stroke-linejoin="round" /><polyline points="-1773.77,1169.68 -1798.87,1136.44 -1916.49,980.70 -2084.39,844.82" fill="none" stroke="#bcbcbc" stroke-width="8" stroke-linecap="round" stroke-linejoin="round" /><polyline points="-2502.41,3219.93 -2479.45,3165.48 -2406.45,2983.46 -2397.60,2959.56 -2387.78,2933.06 -2384.06,2923.50 -2383.07,2908.52 -2373.72,2767.02 -2371.04,2726.43" fill="none" stroke="#bcbcbc" stroke-width="8" stroke-linecap="round" stroke-linejoin="round" /><polyline points="-2552.22,1756.76 -2506.64,1598.68 -2446.51,1390.18 -2439.07,1364.37 -2430.79,1335.05 -2412.26,1269.40 -2410.32,1262.51 -2405.01,1241.39 -2396.55,1217.54 -2394.50,1211.76 -2383.81,1185.26 -2362.83,1138.97 -2356.55,1125.68" fill="none" stroke="#bcbcbc" stroke-width="8" stroke-linecap="round" stroke-linejoin="round" /><polyline points="-2439.07,1364.37 -2346.85,1387.95 -2151.51,1438.17 -2040.22,1472.82 -1993.80,1483.70" fill="none" stroke="#bcbcbc" stroke-width="8" stroke-linecap="round" stroke-linejoin="round" /><polyline points="-540.87,647.09 -537.73,627.90 -534.58,607.97 -521.05,541.32 -487.25,386.17 -459.49,247.38 -454.42,218.59 -447.53,179.50 -447.52,179.46" fill="none" stroke="#bcbcbc" stroke-width="8" stroke-linecap="round" stroke-linejoin="round" /><polyline points="-813.90,3634.68 -772.73,3529.65 -767.62,3510.78 -604.21,3095.96 -592.74,3066.03 -583.45,3040.65 -485.81,2756.56 -467.01,2740.16" fill="none" stroke="#bcbcbc" stroke-width="8" stroke-linecap="round" stroke-linejoin="round" /><polyline points="-253.80,566.78 -253.81,566.75 -259.60,536.37 -260.51,532.68 -274.62,475.27 -274.61,475.09 -284.24,436.16 -325.01,296.41 -330.15,281.44 -357.69,206.58 -366.64,184.23 -372.41,169.81 -379.90,153.44 -379.91,153.41 -379.92,153.34 -385.38,93.15 -385.91,63.60" fill="none" stroke="#bcbcbc" stroke-width="8" stroke-linecap="round" stroke-linejoin="round" /><polyline points="-314.92,2937.89 -325.41,2949.22 -341.03,2967.81 -385.05,3091.95 -397.79,3127.89" fill="none" stroke="#bcbcbc" stroke-width="8" stroke-linecap="round" stroke-linejoin="round" /><polyline points="-1046.34,1138.89 -1040.32,1122.60 -1038.96,1118.81 -1010.38,1038.95 -999.66,1005.31 -912.04,747.66" fill="none" stroke="#bcbcbc" stroke-width="8" stroke-linecap="round" stroke-linejoin="round" /><polyline points="-593.10,1500.11 -584.16,1476.36 -559.95,1412.04 -549.72,1384.85 -542.79,1366.44 -523.36,1314.83 -510.53,1280.74 -508.80,1276.15 -477.71,1193.56 -464.71,1197.59 -457.66,1178.41 -445.21,1144.49 -447.59,1129.08 -414.51,1039.02 -411.12,1029.77 -404.84,1024.00 -399.58,1019.16 -366.40,928.48 -361.61,903.65 -314.02,771.42 -302.76,762.61 -279.86,697.83 -283.93,687.89 -263.88,627.39 -274.29,573.37" fill="none" stroke="#bcbcbc" stroke-width="8" stroke-linecap="round" stroke-linejoin="round" /><polyline points="258.20,-959.63 244.87,-981.51 174.80,-1096.47" fill="none" stroke="#bcbcbc" stroke-width="8" stroke-linecap="round" stroke-linejoin="round" /><polyline points="477.69,555.24 799.26,762.04 799.35,762.18 799.35,762.21 858.82,769.93" fill="none" stroke="#bcbcbc" stroke-width="8" stroke-linecap="round" stroke-linejoin="round" /><polyline points="348.73,123.24 690.88,294.99 701.20,302.69 700.50,358.92 707.44,416.60" fill="none" stroke="#bcbcbc" stroke-width="8" stroke-linecap="round" stroke-linejoin="round" /><polyline points="-303.57,3157.77 -315.88,3195.31 -365.73,3347.36 -450.52,3603.43 -456.54,3621.59 -462.63,3640.00 -464.33,3659.61" fill="none" stroke="#bcbcbc" stroke-width="8" stroke-linecap="round" stroke-linejoin="round" /><polyline points="659.60,2234.11 661.65,2215.03 662.09,2197.23 661.95,2196.61 649.82,2144.20 644.85,2122.30 642.46,2111.74 640.00,2100.94 626.70,2042.30 600.70,1925.13 581.80,1854.68 579.13,1843.79" fill="none" stroke="#bcbcbc" stroke-width="8" stroke-linecap="round" stroke-linejoin="round" /><polyline points="-1039.04,3306.77 -1030.56,3282.67 -935.29,3011.87 -924.47,2981.13" fill="none" stroke="#bcbcbc" stroke-width="8" stroke-linecap="round" stroke-linejoin="round" /><polyline points="1100.15,1101.76 1072.11,1093.86 881.76,801.73 858.82,769.93" fill="none" stroke="#bcbcbc" stroke-width="8" stroke-linecap="round" stroke-linejoin="round" /><polyline points="-2029.11,1802.68 -1335.35,1968.90 -1287.52,1986.37" fill="none" stroke="#bcbcbc" stroke-width="8" stroke-linecap="round" stroke-linejoin="round" /><polyline points="159.01,-794.55 429.25,-694.43 467.30,-700.93" fill="none" stroke="#bcbcbc" stroke-width="8" stroke-linecap="round" stroke-linejoin="round" />
    <polyline points="167.20,226.35 317.69,331.52 337.96,335.82 352.80,352.80" fill="none" stroke="#ffffff" stroke-width="16" stroke-linecap="round" stroke-linejoin="round" />
    <polyline points="167.20,226.35 317.69,331.52 337.96,335.82 352.80,352.80" fill="none" stroke="#111111" stroke-width="9" stroke-linecap="round" stroke-linejoin="round" />
    
            <g transform="translate(167.20,226.35)">
              <circle r="19" fill="#ffffff" stroke="#111111" stroke-width="4" />
              <text text-anchor="middle" dominant-baseline="central" font-family="Helvetica, Arial, sans-serif"
                font-size="18" font-weight="700" fill="#111111">1</text>
            </g>
            
            <g transform="translate(352.80,352.80)">
              <circle r="19" fill="#ffffff" stroke="#111111" stroke-width="4" />
              <text text-anchor="middle" dominant-baseline="central" font-family="Helvetica, Arial, sans-serif"
                font-size="18" font-weight="700" fill="#111111">2</text>
            </g>
            
  </g>
</svg>
