<svg xmlns="http://www.w3.org/2000/svg" width="520" height="520" viewBox="0 0 520 520">
  <rect width="100%" height="100%" fill="#ffffff" />
  <g>
    <polyline points="903.75,-196.76 907.44,-177.13 931.26,-10.54 927.62,31.11" fill="none" stroke="#bcbcbc" stroke-width="8" stroke-linecap="round" stroke-linejoin="round" /><polyline points="419.71,1191.55 425.47,1173.85 455.97,1080.03 459.57,1068.97 463.21,1057.36 539.91,812.74 546.08,793.07 531.96,758.27" fill="none" stroke="#bcbcbc" stroke-width="8" stroke-linecap="round" stroke-linejoin="round" /><polyline points="-110.14,973.97 -111.38,959.93 -86.30,819.46 -82.79,801.89 -80.16,792.69 -73.26,757.07 -65.50,713.47 -57.05,675.08 -48.67,636.76 -43.39,625.96 -39.93,619.34" fill="none" stroke="#bcbcbc" stroke-width="8" stroke-linecap="round" stroke-linejoin="round" /><polyline points="35.42,-16.82 29.46,-35.00 -32.17,-222.96 -35.18,-230.84" fill="none" stroke="#bcbcbc" stroke-width="8" stroke-linecap="round" stroke-linejoin="round" /><polyline points="-280.81,1637.47 -278.97,1619.54 -278.22,1611.31 -271.51,1537.09 -264.17,1471.74 -262.45,1456.49 -260.86,1438.18 -260.68,1436.64 -256.52,1400.24 -252.93,1363.25 -248.97,1327.55 -246.31,1299.75 -245.20,1282.60 -244.22,1266.76 -242.47,1248.91" fill="none" stroke="#bcbcbc" stroke-width="8" stroke-linecap="round" stroke-linejoin="round" /><polyline points="570.75,1235.16 575.14,1221.36 606.07,1124.14 609.58,1113.10 614.57,1097.36 618.15,1086.08 645.52,968.03" fill="none" stroke="#bcbcbc" stroke-width="8" stroke-linecap="round" stroke-linejoin="round" /><polyline points="450.54,-687.84 461.96,-686.08 776.66,-637.73" fill="none" stroke="#bcbcbc" stroke-width="8" stroke-linecap="round" stroke-linejoin="round" /><polyline points="-357.37,1212.25 -390.12,1210.73 -410.09,1209.80 -420.94,1209.29 -430.46,1208.85 -504.64,1205.40 -607.81,1200.60 -656.98,1193.63 -673.44,1191.29 -687.72,1188.77 -784.44,1171.70 -797.96,1169.32 -800.96,1168.80 -817.66,1165.94 -830.49,1163.74 -912.45,1156.50 -928.06,1155.12 -933.78,1154.61 -951.50,1153.38 -986.20,1150.98" fill="none" stroke="#bcbcbc" stroke-width="8" stroke-linecap="round" stroke-linejoin="round" /><polyline points="118.52,1117.22 124.86,1099.16 182.04,940.67 250.81,740.76 255.22,728.23 258.29,719.47 260.78,712.28" fill="none" stroke="#bcbcbc" stroke-width="8" stroke-linecap="round" stroke-linejoin="round" /><polyline points="-933.78,1154.61 -935.24,1144.42 -935.59,1133.35 -933.42,1111.06 -928.44,1070.37 -925.12,1056.71 -919.73,1007.33 -918.75,996.32 -917.17,982.18 -916.00,971.68 -913.79,959.78 -909.70,927.75 -906.85,903.24 -902.67,893.22" fill="none" stroke="#bcbcbc" stroke-width="8" stroke-linecap="round" stroke-linejoin="round" /><polyline points="-992.30,880.70 -916.04,891.35 -902.67,893.22 -894.39,894.54 -860.21,899.99 -781.45,912.54 -767.93,914.79" fill="none" stroke="#bcbcbc" stroke-width="8" stroke-linecap="round" stroke-linejoin="round" /><polyline points="411.15,-119.72 411.65,-112.79 412.67,-105.77 415.15,-100.39 419.79,-94.40 428.36,-86.59 448.69,-74.23 605.48,24.14 702.05,153.62 774.99,333.63 779.74,345.52" fill="none" stroke="#bcbcbc" stroke-width="8" stroke-linecap="round" stroke-linejoin="round" /><polyline points="386.04,405.53 389.29,410.91 390.14,412.30 392.83,425.88 411.23,514.84 417.07,543.08 421.24,563.18 427.76,603.94 430.80,622.74 432.90,634.21 435.19,644.57 437.94,650.61 441.96,657.61 444.12,660.91 484.86,719.23 506.89,753.94 512.64,762.23" fill="none" stroke="#bcbcbc" stroke-width="8" stroke-linecap="round" stroke-linejoin="round" /><polyline points="-783.51,1519.38 -781.34,1506.03 -779.33,1496.37 -778.79,1495.09 -751.67,1430.62 -734.40,1388.71 -729.15,1375.43 -723.59,1361.37 -717.54,1349.28 -716.57,1346.92 -708.30,1326.93 -701.91,1309.25 -696.43,1293.03 -692.94,1281.56 -689.04,1267.39 -684.55,1248.40 -681.13,1232.98 -677.05,1211.47 -676.19,1206.68 -673.44,1191.29" fill="none" stroke="#bcbcbc" stroke-width="8" stroke-linecap="round" stroke-linejoin="round" /><polyline points="530.25,-281.17 616.71,-220.75 628.36,-218.28 636.89,-208.53" fill="none" stroke="#bcbcbc" stroke-width="8" stroke-linecap="round" stroke-linejoin="round" /><polyline points="381.64,1410.83 389.48,1390.41 428.16,1285.45 455.52,1206.15 461.19,1203.54" fill="none" stroke="#bcbcbc" stroke-width="8" stroke-linecap="round" stroke-linejoin="round" /><polyline points="-165.21,1277.74 -159.11,1264.25 -158.50,1262.91 -148.06,1227.88 -130.95,1170.21 -126.57,1155.45 -123.16,1143.99 -122.71,1137.31 -123.40,1122.52" fill="none" stroke="#bcbcbc" stroke-width="8" stroke-linecap="round" stroke-linejoin="round" /><polyline points="545.86,410.14 536.05,412.16 513.82,408.20 510.38,399.04 471.87,384.35 462.76,386.73 428.02,373.98 422.84,377.60" fill="none" stroke="#bcbcbc" stroke-width="8" stroke-linecap="round" stroke-linejoin="round" /><polyline points="488.68,-781.12 506.13,-776.85 515.78,-775.17 745.35,-735.37" fill="none" stroke="#bcbcbc" stroke-width="8" stroke-linecap="round" stroke-linejoin="round" /><polyline points="310.25,1346.91 319.80,1319.99 338.36,1267.67 350.35,1245.38 367.61,1197.06 374.50,1177.78" fill="none" stroke="#bcbcbc" stroke-width="8" stroke-linecap="round" stroke-linejoin="round" /><polyline points="-947.57,301.97 -964.20,301.21 -968.37,306.27 -997.34,341.47 -1098.60,458.44 -1112.84,474.89" fill="none" stroke="#bcbcbc" stroke-width="8" stroke-linecap="round" stroke-linejoin="round" /><polyline points="-59.41,402.15 -66.74,418.40 -67.63,420.37 -93.13,486.87 -118.84,560.07 -125.69,579.59 -129.58,589.67" fill="none" stroke="#bcbcbc" stroke-width="8" stroke-linecap="round" stroke-linejoin="round" /><polyline points="314.65,-345.04 322.75,-334.05 328.54,-318.94 337.54,-297.25 351.99,-263.13 364.78,-232.50 379.47,-198.86 390.37,-172.95 391.98,-169.22 392.08,-169.00 400.85,-148.49 403.46,-142.67 405.96,-137.12 408.59,-131.93 410.58,-126.64 411.15,-119.72" fill="none" stroke="#bcbcbc" stroke-width="8" stroke-linecap="round" stroke-linejoin="round" /><polyline points="-305.53,729.96 -301.29,727.64 -295.36,722.93 -292.39,716.81 -253.00,567.42 -251.81,558.99 -247.00,543.60" fill="none" stroke="#bcbcbc" stroke-width="8" stroke-linecap="round" stroke-linejoin="round" /><polyline points="1072.09,496.17 1077.68,513.91 1081.61,532.55 1073.95,603.55 1065.10,656.97 1060.27,675.19 1059.83,676.83 1055.60,686.67 1049.83,697.09 1036.35,714.14 1042.87,747.48 1021.76,819.02 1010.10,858.54 986.25,923.22 951.32,1001.96 908.67,1077.43 895.35,1101.96 871.27,1142.25 775.06,1278.80 753.98,1307.21 672.36,1413.88 625.49,1467.20 559.94,1533.82 553.88,1534.45 539.07,1546.55" fill="none" stroke="#bcbcbc" stroke-width="8" stroke-linecap="round" stroke-linejoin="round" /><polyline points="-115.05,1664.21 -88.19,1580.91 -83.80,1567.16 -77.83,1558.49 -65.00,1520.00 -60.83,1506.92 -7.84,1341.03 -2.51,1324.35 1.88,1309.69 64.40,1112.90" fill="none" stroke="#bcbcbc" stroke-width="8" stroke-linecap="round" stroke-linejoin="round" /><polyline points="514.10,115.16 537.31,89.80 544.16,81.54 591.07,15.10" fill="none" stroke="#bcbcbc" stroke-width="8" stroke-linecap="round" stroke-linejoin="round" /><polyline points="50.06,125.22 113.99,147.47 117.53,153.21 135.68,159.30 146.45,162.98 197.99,180.39" fill="none" stroke="#bcbcbc" stroke-width="8" stroke-linecap="round" stroke-linejoin="round" /><polyline points="607.32,-317.22 636.89,-208.53 671.12,-80.48 676.31,-69.81 677.14,-57.62 700.35,-14.28 763.00,102.55 776.69,122.75 780.66,128.67 874.26,303.66 917.28,342.77 923.31,350.56 931.82,357.83 1013.50,427.67 1019.04,432.41 1033.71,440.20" fill="none" stroke="#bcbcbc" stroke-width="8" stroke-linecap="round" stroke-linejoin="round" /><polyline points="289.66,1681.89 493.36,1563.56 529.62,1545.02 539.07,1546.55" fill="none" stroke="#bcbcbc" stroke-width="8" stroke-linecap="round" stroke-linejoin="round" /><polyline points="510.51,1512.61 523.15,1497.59 636.62,1271.19 644.13,1256.34 650.41,1241.65 687.06,1151.01 697.97,1123.71 729.56,1028.11 750.04,905.20 752.47,887.31" fill="none" stroke="#bcbcbc" stroke-width="8" stroke-linecap="round" stroke-linejoin="round" /><polyline points="422.95,181.17 420.96,183.20 418.23,192.73 417.96,193.68 405.65,241.09 408.88,253.47 406.19,264.56 402.67,279.09 393.67,289.53 383.44,330.95 371.39,340.05 358.54,348.87 352.80,352.80" fill="none" stroke="#bcbcbc" stroke-width="8" stroke-linecap="round" stroke-linejoin="round" /><polyline points="-59.41,402.15 -54.17,388.73 -22.69,308.03 -15.83,290.44 -10.17,275.95 30.05,172.90 48.16,129.81 50.06,125.22 64.13,91.19 95.71,12.79 107.27,-20.59 109.85,-28.24 113.30,-36.92" fill="none" stroke="#bcbcbc" stroke-width="8" stroke-linecap="round" stroke-linejoin="round" /><polyline points="292.83,-87.01 298.91,-68.89 498.68,101.75 607.69,196.59 770.51,338.13 784.72,349.49 791.08,353.48 819.33,379.12 857.06,411.30 942.64,484.27 970.29,508.04 988.63,529.98" fill="none" stroke="#bcbcbc" stroke-width="8" stroke-linecap="round" stroke-linejoin="round" /><polyline points="623.12,-381.03 633.26,-387.53 693.28,-412.48 705.62,-425.45" fill="none" stroke="#bcbcbc" stroke-width="8" stroke-linecap="round" stroke-linejoin="round" /><polyline points="692.45,1137.52 609.58,1113.10 459.57,1068.97" fill="none" stroke="#bcbcbc" stroke-width="8" stroke-linecap="round" stroke-linejoin="round" /><polyline points="424.94,-625.28 436.26,-617.47 805.13,-535.39" fill="none" stroke="#bcbcbc" stroke-width="8" stroke-linecap="round" stroke-linejoin="round" /><polyline points="880.58,589.24 861.51,546.82 819.21,445.92 816.05,437.90 808.82,419.48 781.55,350.08 779.83,345.59" fill="none" stroke="#bcbcbc" stroke-width="8" stroke-linecap="round" stroke-linejoin="round" /><polyline points="314.65,-345.04 294.17,-350.87 279.13,-355.35 248.54,-364.44 233.00,-368.87 224.10,-371.34 212.47,-374.67" fill="none" stroke="#bcbcbc" stroke-width="8" stroke-linecap="round" stroke-linejoin="round" /><polyline points="-219.31,209.93 -220.35,206.54 -221.30,204.17 -225.52,193.68 -241.87,155.56 -257.41,116.83 -260.77,107.69 -264.63,97.16 -267.40,88.54 -271.97,75.63 -272.45,74.27 -287.31,37.62 -314.61,-31.25 -320.74,-34.74 -325.10,-45.91 -333.81,-76.16 -348.72,-113.65 -351.93,-122.17" fill="none" stroke="#bcbcbc" stroke-width="8" stroke-linecap="round" stroke-linejoin="round" /><polyline points="-88.19,1580.91 -72.69,1585.66 -22.54,1600.94 -6.83,1605.73" fill="none" stroke="#bcbcbc" stroke-width="8" stroke-linecap="round" stroke-linejoin="round" /><polyline points="848.36,-363.00 851.28,-374.81 850.09,-379.30 848.66,-384.72 839.50,-418.26 819.09,-489.18 808.32,-525.43 805.13,-535.39 776.66,-637.73 761.29,-692.92 745.35,-735.37 730.95,-773.66 716.61,-799.98 702.67,-813.89 595.70,-944.61 587.78,-953.92 582.54,-962.52" fill="none" stroke="#bcbcbc" stroke-width="8" stroke-linecap="round" stroke-linejoin="round" /><polyline points="411.15,-119.72 405.64,-117.61 395.44,-114.79 394.42,-114.51 351.81,-103.62 302.83,-89.82 292.83,-87.01 288.37,-85.59 276.60,-81.81 266.54,-79.01 222.62,-66.79 150.37,-46.26 123.44,-39.46 113.30,-36.92 65.16,-25.10 35.42,-16.82 -27.56,0.78 -89.81,18.32 -97.01,20.32 -149.04,34.76 -173.04,41.42 -185.15,47.15 -208.09,58.52 -253.65,81.64 -256.82,83.25 -267.40,88.54 -273.85,91.77 -282.85,96.49 -314.86,113.27 -373.18,146.00 -421.90,171.52 -428.87,175.17 -438.18,175.75 -443.77,178.72 -444.88,179.31 -497.74,208.28 -508.80,208.23 -521.51,214.87 -525.94,217.20 -529.69,219.15 -538.52,223.78 -545.48,239.65 -575.39,255.67 -584.90,260.77 -595.19,266.37 -636.81,289.02 -658.32,300.73 -669.17,303.85" fill="none" stroke="#bcbcbc" stroke-width="8" stroke-linecap="round" stroke-linejoin="round" /><polyline points="1010.10,858.54 987.89,860.57 918.52,866.93 915.39,867.21 910.97,867.62 903.81,868.28 836.55,874.45 813.16,872.28 785.92,879.11 764.10,884.46 752.47,887.31 723.59,888.40 698.60,887.13 685.86,885.78 675.01,882.50 667.03,878.08 637.28,857.05 565.02,807.42 558.21,802.80 551.27,798.09 546.08,793.07" fill="none" stroke="#bcbcbc" stroke-width="8" stroke-linecap="round" stroke-linejoin="round" /><polyline points="-626.62,20.57 -600.40,71.90 -596.43,86.57 -574.34,128.72 -565.22,140.77 -528.30,212.61 -525.94,217.20" fill="none" stroke="#bcbcbc" stroke-width="8" stroke-linecap="round" stroke-linejoin="round" /><polyline points="176.94,477.09 173.01,487.89 171.91,491.24 166.79,506.77 134.35,597.28 118.25,642.22 117.70,643.76 111.23,657.73 107.52,666.03" fill="none" stroke="#bcbcbc" stroke-width="8" stroke-linecap="round" stroke-linejoin="round" /><polyline points="607.32,-317.22 603.72,-324.92 594.27,-326.16 563.69,-319.15 557.47,-319.96 552.61,-326.48 543.95,-366.27 590.82,-373.53 612.51,-379.93 623.12,-381.03 634.55,-340.41" fill="none" stroke="#bcbcbc" stroke-width="8" stroke-linecap="round" stroke-linejoin="round" /><polyline points="776.69,122.75 788.76,115.97 849.40,79.44 865.60,69.79 893.97,52.87 940.63,22.70 951.52,14.87 1033.37,-35.91" fill="none" stroke="#bcbcbc" stroke-width="8" stroke-linecap="round" stroke-linejoin="round" /><polyline points="1062.81,362.59 1042.11,356.42 1030.08,346.56 984.11,306.77 982.54,305.37 971.43,295.45 964.89,283.87 849.40,79.44" fill="none" stroke="#bcbcbc" stroke-width="8" stroke-linecap="round" stroke-linejoin="round" /><polyline points="-240.62,346.39 -59.41,402.15 -44.62,406.84 90.61,449.70 93.43,450.60 113.69,457.02 123.65,460.18 136.59,463.72 163.29,472.76 176.94,477.09 189.23,480.99 289.86,512.91 396.10,546.29 404.89,549.05 417.07,543.08" fill="none" stroke="#bcbcbc" stroke-width="8" stroke-linecap="round" stroke-linejoin="round" /><polyline points="292.20,-548.26 370.70,-620.38 383.99,-632.59" fill="none" stroke="#bcbcbc" stroke-width="8" stroke-linecap="round" stroke-linejoin="round" /><polyline points="-1022.24,615.58 -734.21,646.46" fill="none" stroke="#bcbcbc" stroke-width="8" stroke-linecap="round" stroke-linejoin="round" /><polyline points="-153.34,-188.36 -92.80,-210.01 -30.36,-232.59 8.44,-247.67 126.90,-290.75 161.28,-302.65 168.46,-305.13 177.07,-308.09 186.74,-311.41 187.92,-311.82 207.43,-319.67 215.92,-323.08" fill="none" stroke="#bcbcbc" stroke-width="8" stroke-linecap="round" stroke-linejoin="round" /><polyline points="253.26,1276.60 310.25,1346.91 345.14,1382.05 360.25,1392.92 381.64,1410.83 401.72,1427.70 418.98,1444.53 419.40,1453.10" fill="none" stroke="#bcbcbc" stroke-width="8" stroke-linecap="round" stroke-linejoin="round" /><polyline points="314.65,-345.04 336.99,-401.03 373.14,-493.21 424.94,-625.28 450.54,-687.84 488.68,-781.12 519.95,-857.54 525.55,-867.68 553.05,-912.64 554.83,-915.55 564.89,-935.34 582.54,-962.52 592.39,-977.68 606.33,-999.14" fill="none" stroke="#bcbcbc" stroke-width="8" stroke-linecap="round" stroke-linejoin="round" /><polyline points="-212.30,1151.91 -215.96,1154.83 -218.38,1158.32 -223.31,1172.85 -226.71,1183.34 -242.45,1230.39 -244.61,1237.18 -245.96,1241.40 -260.41,1237.25 -295.58,1225.46 -330.43,1213.77 -357.36,1212.25" fill="none" stroke="#bcbcbc" stroke-width="8" stroke-linecap="round" stroke-linejoin="round" /><polyline points="-901.06,1479.37 -843.62,1331.04 -837.23,1314.90 -831.50,1299.34 -824.57,1280.55 -816.08,1250.99 -807.22,1214.25 -803.59,1187.93 -800.96,1168.80 -797.24,1154.69 -783.72,1048.63 -767.93,914.79 -759.76,850.98 -750.65,776.02 -734.21,646.46 -731.60,624.43 -715.00,488.92 -714.99,481.38 -711.32,441.17 -700.73,356.25 -698.07,341.43 -695.30,333.13 -690.97,323.98 -686.76,316.87 -677.46,306.81 -669.15,303.96" fill="none" stroke="#bcbcbc" stroke-width="8" stroke-linecap="round" stroke-linejoin="round" /><polyline points="352.80,352.80 355.94,357.78 366.48,374.22 382.25,399.50 386.04,405.53 392.33,400.75 422.84,377.60" fill="none" stroke="#bcbcbc" stroke-width="8" stroke-linecap="round" stroke-linejoin="round" /><polyline points="373.14,-493.21 683.47,-437.11 716.06,-419.96 837.65,-359.68 848.36,-363.00" fill="none" stroke="#bcbcbc" stroke-width="8" stroke-linecap="round" stroke-linejoin="round" /><polyline points="-219.31,209.93 -224.82,217.96 -274.33,242.12 -310.69,288.34 -349.93,312.63 -376.76,332.90 -402.36,353.78 -415.49,365.75 -438.67,395.16 -464.60,432.32 -468.87,439.21" fill="none" stroke="#bcbcbc" stroke-width="8" stroke-linecap="round" stroke-linejoin="round" /><polyline points="-166.97,243.08 -169.11,247.86 -173.81,254.72 -182.68,265.63 -234.98,331.70 -262.65,406.22 -402.30,353.72" fill="none" stroke="#bcbcbc" stroke-width="8" stroke-linecap="round" stroke-linejoin="round" /><polyline points="-376.76,332.90 -382.17,316.53 -405.54,245.77 -414.61,231.79 -429.79,186.23 -431.11,182.30 -428.87,175.17 -432.51,163.56 -505.53,-69.60" fill="none" stroke="#bcbcbc" stroke-width="8" stroke-linecap="round" stroke-linejoin="round" /><polyline points="478.88,-939.30 536.59,-937.78 539.28,-937.70 550.34,-937.39 564.89,-935.34" fill="none" stroke="#bcbcbc" stroke-width="8" stroke-linecap="round" stroke-linejoin="round" /><polyline points="182.04,940.67 162.33,940.43 -4.52,962.83 -16.55,964.10 -30.30,965.55 -110.14,973.97 -217.71,985.34 -274.74,991.35 -306.29,994.68 -331.90,997.79 -345.06,999.39 -359.87,1001.19 -431.44,1009.89 -448.59,1011.97 -501.44,1017.75 -783.72,1048.63" fill="none" stroke="#bcbcbc" stroke-width="8" stroke-linecap="round" stroke-linejoin="round" /><polyline points="-65.00,1520.00 -79.78,1515.24 -148.82,1493.02 -162.78,1488.53 -174.89,1484.63 -248.03,1461.12 -262.45,1456.49 -281.53,1450.35 -397.97,1412.88 -411.07,1408.66" fill="none" stroke="#bcbcbc" stroke-width="8" stroke-linecap="round" stroke-linejoin="round" /><polyline points="223.68,122.20 263.84,134.71 410.69,180.06 412.06,180.48 422.95,181.17" fill="none" stroke="#bcbcbc" stroke-width="8" stroke-linecap="round" stroke-linejoin="round" /><polyline points="636.89,-208.53 836.65,-205.01" fill="none" stroke="#bcbcbc" stroke-width="8" stroke-linecap="round" stroke-linejoin="round" /><polyline points="539.07,1546.55 510.51,1512.61 498.53,1498.67 488.24,1489.05 474.53,1478.82 446.51,1462.01 419.40,1453.10 364.25,1436.06 319.14,1421.74 345.14,1382.05" fill="none" stroke="#bcbcbc" stroke-width="8" stroke-linecap="round" stroke-linejoin="round" /><polyline points="253.26,1276.60 213.49,1227.52 205.93,1218.18 165.88,1163.01 156.81,1146.16 158.99,1126.10 171.06,1125.98 200.85,1131.72 246.18,1140.44" fill="none" stroke="#bcbcbc" stroke-width="8" stroke-linecap="round" stroke-linejoin="round" /><polyline points="-266.92,883.35 -259.59,899.12 -217.71,985.34 -155.44,1113.53 -147.50,1129.88" fill="none" stroke="#bcbcbc" stroke-width="8" stroke-linecap="round" stroke-linejoin="round" /><polyline points="-937.68,1273.83 -922.70,1279.95 -852.54,1308.64 -837.23,1314.90 -821.12,1321.49 -738.53,1355.26 -723.59,1361.37" fill="none" stroke="#bcbcbc" stroke-width="8" stroke-linecap="round" stroke-linejoin="round" /><polyline points="-232.46,755.52 -86.30,819.46" fill="none" stroke="#bcbcbc" stroke-width="8" stroke-linecap="round" stroke-linejoin="round" /><polyline points="422.95,181.17 445.21,182.34 446.63,183.60 456.62,192.46 471.30,205.56 474.01,210.84 524.61,255.15 528.35,262.22 563.94,293.62 572.89,296.35 600.57,320.59 606.77,323.42 648.51,358.83 657.80,367.07 662.93,375.23" fill="none" stroke="#bcbcbc" stroke-width="8" stroke-linecap="round" stroke-linejoin="round" /><polyline points="-978.93,755.67 -750.65,776.02" fill="none" stroke="#bcbcbc" stroke-width="8" stroke-linecap="round" stroke-linejoin="round" /><polyline points="-469.22,1605.72 -462.15,1590.66 -460.33,1583.96 -450.42,1547.41 -414.51,1420.78 -411.07,1408.66 -407.43,1395.36 -391.17,1335.87 -363.70,1235.41 -357.37,1212.25" fill="none" stroke="#bcbcbc" stroke-width="8" stroke-linecap="round" stroke-linejoin="round" /><polyline points="-266.92,883.35 -232.46,755.52 -305.53,729.96 -324.67,741.25 -333.39,747.89 -339.85,756.62 -344.39,768.16 -361.20,830.28 -347.64,837.18 -333.94,840.51 -303.66,848.39 -280.99,855.61 -266.92,883.35" fill="none" stroke="#bcbcbc" stroke-width="8" stroke-linecap="round" stroke-linejoin="round" /><polyline points="-361.20,830.28 -377.21,828.05 -750.65,776.02" fill="none" stroke="#bcbcbc" stroke-width="8" stroke-linecap="round" stroke-linejoin="round" /><polyline points="246.18,1140.44 280.82,1148.00 374.50,1177.78 400.69,1186.06 462.86,1204.02 525.49,1222.08 571.86,1235.48 646.02,1256.89 661.33,1261.32 698.76,1273.86 760.37,1290.27 765.80,1291.29" fill="none" stroke="#bcbcbc" stroke-width="8" stroke-linecap="round" stroke-linejoin="round" /><polyline points="290.12,1681.62 277.48,1684.79 263.81,1722.88 242.63,1716.86 146.27,1684.02 134.68,1681.55 108.88,1679.70 -7.81,1680.17 -33.53,1676.89 -91.62,1668.01 -115.05,1664.21 -281.23,1637.40 -345.58,1627.14 -468.31,1605.88 -488.12,1601.95 -765.10,1524.53 -782.57,1519.64 -901.05,1479.37 -930.20,1469.03 -1003.02,1438.85 -1044.52,1423.15" fill="none" stroke="#bcbcbc" stroke-width="8" stroke-linecap="round" stroke-linejoin="round" /><polyline points="543.95,-366.27 531.96,-368.74 371.89,-349.82 314.65,-345.04" fill="none" stroke="#bcbcbc" stroke-width="8" stroke-linecap="round" stroke-linejoin="round" /><polyline points="246.18,1140.43 251.79,1131.05 285.38,1044.77 322.92,914.32 332.49,886.22 337.61,878.58 373.85,762.26 375.65,748.37 377.02,739.29" fill="none" stroke="#bcbcbc" stroke-width="8" stroke-linecap="round" stroke-linejoin="round" /><polyline points="411.15,-119.72 414.98,-121.18 420.16,-125.30 428.04,-134.51 530.25,-281.17 557.47,-319.96" fill="none" stroke="#bcbcbc" stroke-width="8" stroke-linecap="round" stroke-linejoin="round" /><polyline points="866.07,419.03 868.16,413.02 919.54,352.57 923.31,350.56 932.24,338.34 962.13,304.01 971.43,295.45" fill="none" stroke="#bcbcbc" stroke-width="8" stroke-linecap="round" stroke-linejoin="round" /><polyline points="910.97,867.62 910.26,859.53 909.71,853.27 907.00,841.31 903.77,833.51 899.73,813.01 899.36,805.58 896.63,788.99 884.40,782.60 874.62,786.33 857.13,790.52 843.28,792.69 830.00,795.89 811.67,800.07 803.30,801.98" fill="none" stroke="#bcbcbc" stroke-width="8" stroke-linecap="round" stroke-linejoin="round" /><polyline points="-438.91,570.76 -401.54,483.16 -399.46,477.47" fill="none" stroke="#bcbcbc" stroke-width="8" stroke-linecap="round" stroke-linejoin="round" /><polyline points="545.86,410.14 563.87,403.16 573.29,399.51 580.57,392.14 610.59,384.74 620.67,387.30 642.40,381.71 658.98,377.44 662.93,375.23 679.00,371.29 761.20,351.16 779.83,345.59" fill="none" stroke="#bcbcbc" stroke-width="8" stroke-linecap="round" stroke-linejoin="round" /><polyline points="-212.30,1151.91 -173.53,1137.83 -160.56,1133.86 -147.50,1129.88 -123.40,1122.52 -104.66,1119.82 -40.64,1112.82 -27.77,1112.11 29.51,1112.60 64.40,1112.90 77.53,1112.23 98.55,1114.36 105.12,1115.30 118.52,1117.22 158.99,1126.10" fill="none" stroke="#bcbcbc" stroke-width="8" stroke-linecap="round" stroke-linejoin="round" /><polyline points="-27.56,0.78 -33.98,-20.94 -57.84,-101.61 -86.82,-193.59 -92.80,-210.01 -98.88,-225.40 -106.56,-247.58" fill="none" stroke="#bcbcbc" stroke-width="8" stroke-linecap="round" stroke-linejoin="round" /><polyline points="-96.95,1301.45 -91.86,1285.35 -40.31,1122.81 -40.64,1112.82" fill="none" stroke="#bcbcbc" stroke-width="8" stroke-linecap="round" stroke-linejoin="round" /><polyline points="-27.77,1112.11 -17.57,975.26 -16.55,964.10 -14.99,951.11 -14.96,950.52 -14.29,934.65 -10.88,891.57 -8.96,871.51 -6.34,848.71 -3.94,832.30 -1.80,822.00 0.90,814.21 6.20,796.66 17.15,760.12 31.08,712.95 46.43,664.72 49.56,654.88 52.07,647.75" fill="none" stroke="#bcbcbc" stroke-width="8" stroke-linecap="round" stroke-linejoin="round" /><polyline points="-361.20,830.28 -363.91,842.41 -363.45,846.28 -346.82,984.73 -345.06,999.39 -345.82,1014.48 -350.18,1100.58 -352.00,1136.56 -352.94,1155.11 -354.61,1188.19 -355.48,1205.41 -357.37,1212.25" fill="none" stroke="#bcbcbc" stroke-width="8" stroke-linecap="round" stroke-linejoin="round" /><polyline points="-438.91,570.76 -499.37,552.79 -507.05,547.86 -544.68,536.89 -555.26,537.01 -602.53,522.76 -610.17,517.13 -653.19,504.09 -705.98,489.70 -706.24,489.67 -715.00,488.92" fill="none" stroke="#bcbcbc" stroke-width="8" stroke-linecap="round" stroke-linejoin="round" /><polyline points="662.93,375.23 665.03,377.99 673.80,391.06 690.00,415.21 705.26,430.50 734.59,463.42 729.63,493.85 727.12,505.26 723.62,510.08 730.97,520.96 742.34,544.37 765.08,588.23 776.27,609.83 783.23,629.24 786.38,638.25" fill="none" stroke="#bcbcbc" stroke-width="8" stroke-linecap="round" stroke-linejoin="round" /><polyline points="816.05,437.90 807.63,440.52 752.11,457.80 744.14,460.35 734.59,463.42" fill="none" stroke="#bcbcbc" stroke-width="8" stroke-linecap="round" stroke-linejoin="round" /><polyline points="417.07,543.08 434.43,537.45 560.45,473.09 577.32,464.85 636.72,447.70 694.32,431.50 705.26,430.50" fill="none" stroke="#bcbcbc" stroke-width="8" stroke-linecap="round" stroke-linejoin="round" /><polyline points="430.80,622.74 576.09,555.13 582.21,551.08 596.41,546.95 693.23,518.78 707.91,513.15 723.62,510.08" fill="none" stroke="#bcbcbc" stroke-width="8" stroke-linecap="round" stroke-linejoin="round" /><polyline points="401.15,-794.72 459.96,-787.45 465.87,-786.72 488.68,-781.12" fill="none" stroke="#bcbcbc" stroke-width="8" stroke-linecap="round" stroke-linejoin="round" /><polyline points="903.75,-196.76 914.18,-198.94 953.15,-179.84 958.29,-174.76 1031.44,-50.92 1033.37,-35.91 1042.88,-27.98 1041.37,-22.51 1041.14,-13.58 1042.46,-1.10 1061.83,78.53 1063.55,133.69 1066.26,221.75 1070.82,340.28 1052.27,391.93 1040.31,423.42 1022.86,467.80 1017.81,480.63 1014.53,484.22 1009.25,518.55" fill="none" stroke="#bcbcbc" stroke-width="8" stroke-linecap="round" stroke-linejoin="round" /><polyline points="1039.01,727.74 1021.21,720.00 976.75,688.97 918.09,647.75 885.83,621.66 864.06,598.35" fill="none" stroke="#bcbcbc" stroke-width="8" stroke-linecap="round" stroke-linejoin="round" /><polyline points="319.14,1421.74 301.67,1416.20 273.31,1407.21 259.78,1402.92 243.89,1397.88 223.80,1391.52 205.64,1385.76 187.70,1380.07 107.66,1354.67 93.64,1350.22 76.23,1344.71 72.39,1343.49 26.61,1331.40 13.69,1328.27 -2.51,1324.35 -19.47,1320.24 -80.57,1305.42 -96.95,1301.45 -114.56,1295.33 -151.35,1282.56 -165.21,1277.74 -177.61,1273.72 -235.21,1253.24 -242.47,1248.91 -245.96,1241.40" fill="none" stroke="#bcbcbc" stroke-width="8" stroke-linecap="round" stroke-linejoin="round" /><polyline points="582.21,551.08 577.96,535.87 565.32,490.53 560.45,473.09 553.43,460.06 552.77,457.64 548.63,442.29 553.45,435.49 547.66,416.14 545.86,410.14" fill="none" stroke="#bcbcbc" stroke-width="8" stroke-linecap="round" stroke-linejoin="round" /><polyline points="561.06,-3.79 573.08,-9.45 638.76,-45.66 676.31,-69.81 702.79,-87.87 708.64,-92.23 729.95,-107.04 752.04,-123.35 766.02,-133.53 782.69,-145.72 840.64,-171.87 848.15,-171.47 859.14,-176.67 903.75,-196.76" fill="none" stroke="#bcbcbc" stroke-width="8" stroke-linecap="round" stroke-linejoin="round" /><polyline points="-166.97,243.08 -157.49,246.93 -151.23,248.85 -33.77,284.93 -15.83,290.44" fill="none" stroke="#bcbcbc" stroke-width="8" stroke-linecap="round" stroke-linejoin="round" /><polyline points="-1005.96,507.23 -1089.88,481.83" fill="none" stroke="#bcbcbc" stroke-width="8" stroke-linecap="round" stroke-linejoin="round" /><polyline points="349.57,-676.19 370.38,-649.83 373.48,-645.90 383.99,-632.59 395.96,-631.19 420.56,-628.30 424.94,-625.28" fill="none" stroke="#bcbcbc" stroke-width="8" stroke-linecap="round" stroke-linejoin="round" /><polyline points="1072.09,496.17 1039.12,502.33 1005.31,520.70 973.97,538.14 944.33,552.96 908.52,572.41 882.59,588.16 831.33,615.64 631.27,716.29 579.40,739.14 545.13,753.96 528.15,759.52 514.10,762.14 491.10,763.53 458.37,758.90 376.71,739.29 260.78,712.28 108.26,666.27 52.07,647.75 -39.93,619.34 -127.93,590.32 -256.98,539.68 -321.51,511.90 -399.31,477.32 -528.36,406.61 -558.62,386.55 -635.19,338.38 -667.30,306.27 -715.46,243.91 -794.81,162.09 -825.99,134.61" fill="none" stroke="#bcbcbc" stroke-width="8" stroke-linecap="round" stroke-linejoin="round" /><polyline points="446.51,1462.01 447.87,1454.47 452.75,1442.15 498.51,1335.06 515.80,1294.92 536.18,1244.90 541.14,1226.59" fill="none" stroke="#bcbcbc" stroke-width="8" stroke-linecap="round" stroke-linejoin="round" /><polyline points="-431.44,1009.89 -483.42,984.73 -601.71,927.47 -746.81,857.25 -759.76,850.98" fill="none" stroke="#bcbcbc" stroke-width="8" stroke-linecap="round" stroke-linejoin="round" /><polyline points="422.95,181.17 436.08,167.73 470.98,132.00 498.68,101.75" fill="none" stroke="#bcbcbc" stroke-width="8" stroke-linecap="round" stroke-linejoin="round" /><polyline points="-584.90,260.77 -599.32,241.68 -666.90,152.20 -763.37,74.14" fill="none" stroke="#bcbcbc" stroke-width="8" stroke-linecap="round" stroke-linejoin="round" /><polyline points="-1003.53,1438.64 -990.34,1407.35 -948.40,1302.78 -943.31,1289.06 -937.68,1273.83 -935.53,1268.34 -934.97,1259.73 -929.60,1178.44 -928.06,1155.12" fill="none" stroke="#bcbcbc" stroke-width="8" stroke-linecap="round" stroke-linejoin="round" /><polyline points="-1032.15,598.05 -1005.96,507.23 -971.42,387.45 -967.14,372.62 -962.39,355.78 -951.74,318.06 -950.62,314.10 -947.57,301.97 -942.71,288.26 -941.53,284.94 -935.39,269.72 -923.34,243.13 -919.73,235.49" fill="none" stroke="#bcbcbc" stroke-width="8" stroke-linecap="round" stroke-linejoin="round" /><polyline points="-967.14,372.62 -914.16,386.17 -801.93,415.02 -737.99,434.92 -711.32,441.17" fill="none" stroke="#bcbcbc" stroke-width="8" stroke-linecap="round" stroke-linejoin="round" /><polyline points="123.44,-39.46 125.24,-50.48 127.05,-61.93 134.83,-100.22 154.25,-189.36 170.20,-269.09 173.11,-285.63 177.07,-308.09 177.08,-308.11" fill="none" stroke="#bcbcbc" stroke-width="8" stroke-linecap="round" stroke-linejoin="round" /><polyline points="-33.43,1676.91 -9.77,1616.57 -6.83,1605.73 87.05,1367.41 93.64,1350.22 98.98,1335.64 155.08,1172.43 165.88,1163.01" fill="none" stroke="#bcbcbc" stroke-width="8" stroke-linecap="round" stroke-linejoin="round" /><polyline points="288.37,-85.59 288.37,-85.61 285.04,-103.07 284.52,-105.19 276.41,-138.17 276.42,-138.27 270.89,-160.64 247.46,-240.92 244.51,-249.52 228.69,-292.53 223.54,-305.37 220.23,-313.65 215.92,-323.06 215.92,-323.08 215.91,-323.12 212.77,-357.70 212.47,-374.67" fill="none" stroke="#bcbcbc" stroke-width="8" stroke-linecap="round" stroke-linejoin="round" /><polyline points="253.26,1276.60 247.23,1283.11 238.26,1293.79 212.97,1365.11 205.64,1385.76" fill="none" stroke="#bcbcbc" stroke-width="8" stroke-linecap="round" stroke-linejoin="round" /><polyline points="-166.97,243.08 -163.51,233.72 -162.73,231.54 -146.31,185.67 -140.15,166.34 -89.81,18.32" fill="none" stroke="#bcbcbc" stroke-width="8" stroke-linecap="round" stroke-linejoin="round" /><polyline points="93.43,450.60 98.57,436.95 112.48,400.01 118.36,384.38 122.34,373.81 133.50,344.16 140.88,324.57 141.87,321.94 159.73,274.49 167.20,276.80 171.25,265.78 178.40,246.30 177.03,237.44 196.04,185.71 197.99,180.39 201.59,177.08 204.62,174.30 223.68,122.20 226.43,107.94 253.78,31.97 260.24,26.91 273.40,-10.31 271.06,-16.02 282.58,-50.78 276.60,-81.81" fill="none" stroke="#bcbcbc" stroke-width="8" stroke-linecap="round" stroke-linejoin="round" /><polyline points="582.54,-962.52 574.88,-975.09 534.62,-1041.13" fill="none" stroke="#bcbcbc" stroke-width="8" stroke-linecap="round" stroke-linejoin="round" /><polyline points="708.64,-92.23 893.39,26.58 893.44,26.66 893.44,26.68 927.62,31.11" fill="none" stroke="#bcbcbc" stroke-width="8" stroke-linecap="round" stroke-linejoin="round" /><polyline points="634.55,-340.41 831.12,-241.74 837.05,-237.31 836.66,-205.01 840.64,-171.87" fill="none" stroke="#bcbcbc" stroke-width="8" stroke-linecap="round" stroke-linejoin="round" /><polyline points="259.78,1402.92 252.71,1424.49 224.07,1511.84 175.35,1658.95 171.89,1669.39 168.39,1679.97 167.41,1691.23" fill="none" stroke="#bcbcbc" stroke-width="8" stroke-linecap="round" stroke-linejoin="round" /><polyline points="813.16,872.28 814.33,861.32 814.59,851.10 814.50,850.74 807.54,820.63 804.68,808.05 803.30,801.98 801.90,795.78 794.25,762.09 779.31,694.77 768.46,654.30 766.92,648.05" fill="none" stroke="#bcbcbc" stroke-width="8" stroke-linecap="round" stroke-linejoin="round" /><polyline points="-162.78,1488.53 -157.90,1474.68 -103.17,1319.11 -96.95,1301.45" fill="none" stroke="#bcbcbc" stroke-width="8" stroke-linecap="round" stroke-linejoin="round" /><polyline points="1066.26,221.75 1050.16,217.21 940.79,49.38 927.62,31.11" fill="none" stroke="#bcbcbc" stroke-width="8" stroke-linecap="round" stroke-linejoin="round" /><polyline points="-731.60,624.43 -333.02,719.92 -305.53,729.96" fill="none" stroke="#bcbcbc" stroke-width="8" stroke-linecap="round" stroke-linejoin="round" /><polyline points="525.55,-867.68 680.81,-810.16 702.67,-813.89" fill="none" stroke="#bcbcbc" stroke-width="8" stroke-linecap="round" stroke-linejoin="round" />
    <polyline points="167.20,276.80 178.63,281.20 228.24,297.43 343.31,341.56 349.77,347.99 352.80,352.80" fill="none" stroke="#ffffff" stroke-width="16" stroke-linecap="round" stroke-linejoin="round" />
    <polyline points="167.20,276.80 178.63,281.20 228.24,297.43 343.31,341.56 349.77,347.99 352.80,352.80" fill="none" stroke="#111111" stroke-width="9" stroke-linecap="round" stroke-linejoin="round" />
    
            <g transform="translate(167.20,276.80)">
              <circle r="19" fill="#ffffff" stroke="#111111" stroke-width="4" />
              <text text-anchor="middle" dominant-baseline="central" font-family="Helvetica, Arial, sans-serif"
                font-size="18" font-weight="700" fill="#111111">1</text>
            </g>
            
            <g transform="translate(352.80,352.80)">
              <circle r="19" fill="#ffffff" stroke="#111111" stroke-width="4" />
              <text text-anchor="middle" dominant-baseline="central" font-family="Helvetica, Arial, sans-serif"
                font-size="18" font-weight="700" fill="#111111">2</text>
            </g>
            
  </g>
</svg>
