<svg xmlns="http://www.w3.org/2000/svg" width="520" height="520" viewBox="0 0 520 520">
  <rect width="100%" height="100%" fill="#ffffff" />
  <g>
    <polyline points="634.72,-1086.54 638.03,-1068.96 659.35,-919.80 656.09,-882.51" fill="none" stroke="#bcbcbc" stroke-width="8" stroke-linecap="round" stroke-linejoin="round" /><polyline points="201.29,156.47 206.45,140.62 233.76,56.62 236.98,46.72 240.24,36.32 308.93,-182.69 314.45,-200.31 301.80,-231.46" fill="none" stroke="#bcbcbc" stroke-width="8" stroke-linecap="round" stroke-linejoin="round" /><polyline points="-273.16,-38.34 -274.27,-50.91 -251.82,-176.67 -248.67,-192.41 -246.31,-200.64 -240.13,-232.54 -233.19,-271.57 -225.62,-305.95 -218.11,-340.25 -213.39,-349.92 -210.29,-355.85" fill="none" stroke="#bcbcbc" stroke-width="8" stroke-linecap="round" stroke-linejoin="round" /><polyline points="-142.82,-925.43 -148.15,-941.71 -203.34,-1110.00 -206.03,-1117.05" fill="none" stroke="#bcbcbc" stroke-width="8" stroke-linecap="round" stroke-linejoin="round" /><polyline points="-425.98,555.72 -424.33,539.66 -423.67,532.29 -417.66,465.84 -411.08,407.34 -409.55,393.67 -408.12,377.28 -407.96,375.90 -404.23,343.32 -401.02,310.20 -397.48,278.23 -395.09,253.35 -394.09,237.99 -393.22,223.81 -391.65,207.83" fill="none" stroke="#bcbcbc" stroke-width="8" stroke-linecap="round" stroke-linejoin="round" /><polyline points="336.54,195.51 340.47,183.16 368.16,96.11 371.31,86.22 375.78,72.14 378.98,62.04 403.49,-43.66" fill="none" stroke="#bcbcbc" stroke-width="8" stroke-linecap="round" stroke-linejoin="round" /><polyline points="228.89,-1526.22 239.12,-1524.65 520.92,-1481.35" fill="none" stroke="#bcbcbc" stroke-width="8" stroke-linecap="round" stroke-linejoin="round" /><polyline points="-494.53,175.00 -523.86,173.64 -541.75,172.80 -551.47,172.35 -559.99,171.96 -626.41,168.87 -718.79,164.57 -762.83,158.33 -777.56,156.24 -790.35,153.98 -876.96,138.70 -889.06,136.56 -891.75,136.10 -906.70,133.54 -918.19,131.57 -991.58,125.08 -1005.55,123.85 -1010.68,123.39 -1026.55,122.29 -1057.61,120.14" fill="none" stroke="#bcbcbc" stroke-width="8" stroke-linecap="round" stroke-linejoin="round" /><polyline points="-68.41,89.91 -62.73,73.75 -11.53,-68.15 50.05,-247.14 54.00,-258.36 56.75,-266.21 58.98,-272.64" fill="none" stroke="#bcbcbc" stroke-width="8" stroke-linecap="round" stroke-linejoin="round" /><polyline points="-1010.68,123.39 -1011.99,114.27 -1012.30,104.36 -1010.36,84.41 -1005.90,47.97 -1002.92,35.74 -998.10,-8.48 -997.22,-18.33 -995.81,-30.99 -994.76,-40.39 -992.78,-51.05 -989.11,-79.73 -986.57,-101.66 -982.82,-110.64" fill="none" stroke="#bcbcbc" stroke-width="8" stroke-linecap="round" stroke-linejoin="round" /><polyline points="-1063.08,-121.85 -994.79,-112.31 -982.82,-110.64 -975.41,-109.46 -944.80,-104.58 -874.28,-93.34 -862.17,-91.33" fill="none" stroke="#bcbcbc" stroke-width="8" stroke-linecap="round" stroke-linejoin="round" /><polyline points="193.63,-1017.56 194.07,-1011.35 194.99,-1005.07 197.21,-1000.25 201.36,-994.89 209.04,-987.90 227.24,-976.83 367.64,-888.75 454.11,-772.83 519.42,-611.66 523.68,-601.02" fill="none" stroke="#bcbcbc" stroke-width="8" stroke-linecap="round" stroke-linejoin="round" /><polyline points="171.15,-547.29 174.06,-542.47 174.81,-541.22 177.22,-529.06 193.70,-449.42 198.92,-424.14 202.66,-406.13 208.50,-369.64 211.22,-352.81 213.10,-342.54 215.16,-333.27 217.61,-327.85 221.22,-321.59 223.15,-318.64 259.63,-266.42 279.36,-235.35 284.51,-227.92" fill="none" stroke="#bcbcbc" stroke-width="8" stroke-linecap="round" stroke-linejoin="round" /><polyline points="-876.12,449.98 -874.18,438.03 -872.38,429.39 -871.90,428.24 -847.61,370.51 -832.14,332.99 -827.44,321.11 -822.46,308.51 -817.05,297.69 -816.18,295.57 -808.78,277.68 -803.05,261.85 -798.14,247.32 -795.03,237.06 -791.53,224.37 -787.50,207.36 -784.45,193.57 -780.79,174.31 -780.02,170.01 -777.56,156.24" fill="none" stroke="#bcbcbc" stroke-width="8" stroke-linecap="round" stroke-linejoin="round" /><polyline points="300.28,-1162.11 377.70,-1108.02 388.13,-1105.80 395.76,-1097.07" fill="none" stroke="#bcbcbc" stroke-width="8" stroke-linecap="round" stroke-linejoin="round" /><polyline points="-24.82,-662.54 -14.59,-658.61 29.84,-644.07 132.88,-604.56 138.66,-598.80 141.38,-594.50" fill="none" stroke="#bcbcbc" stroke-width="8" stroke-linecap="round" stroke-linejoin="round" /><polyline points="-322.47,233.64 -317.01,221.56 -316.47,220.36 -307.11,188.99 -291.79,137.36 -287.87,124.15 -284.82,113.88 -284.41,107.90 -285.03,94.66" fill="none" stroke="#bcbcbc" stroke-width="8" stroke-linecap="round" stroke-linejoin="round" /><polyline points="314.25,-543.16 305.47,-541.35 285.56,-544.89 282.48,-553.10 248.00,-566.25 239.84,-564.11 208.73,-575.54 204.09,-572.30" fill="none" stroke="#bcbcbc" stroke-width="8" stroke-linecap="round" stroke-linejoin="round" /><polyline points="263.05,-1609.74 278.67,-1605.91 287.32,-1604.41 492.88,-1568.77" fill="none" stroke="#bcbcbc" stroke-width="8" stroke-linecap="round" stroke-linejoin="round" /><polyline points="103.28,295.57 111.83,271.47 128.45,224.62 139.18,204.66 154.64,161.40 160.81,144.14" fill="none" stroke="#bcbcbc" stroke-width="8" stroke-linecap="round" stroke-linejoin="round" /><polyline points="-1023.03,-640.01 -1037.92,-640.69 -1041.65,-636.16 -1067.59,-604.64 -1158.26,-499.92 -1171.01,-485.19" fill="none" stroke="#bcbcbc" stroke-width="8" stroke-linecap="round" stroke-linejoin="round" /><polyline points="-227.73,-550.31 -234.30,-535.76 -235.10,-534.00 -257.93,-474.46 -280.95,-408.92 -287.09,-391.44 -290.56,-382.42" fill="none" stroke="#bcbcbc" stroke-width="8" stroke-linecap="round" stroke-linejoin="round" /><polyline points="107.22,-1219.30 114.47,-1209.46 119.66,-1195.93 127.71,-1176.51 140.65,-1145.96 152.11,-1118.53 165.26,-1088.42 175.01,-1065.22 176.46,-1061.88 176.55,-1061.68 184.40,-1043.32 186.74,-1038.11 188.98,-1033.14 191.34,-1028.49 193.11,-1023.76 193.63,-1017.56" fill="none" stroke="#bcbcbc" stroke-width="8" stroke-linecap="round" stroke-linejoin="round" /><polyline points="-448.12,-256.81 -444.33,-258.89 -439.01,-263.11 -436.36,-268.59 -401.08,-402.34 -400.01,-409.89 -395.71,-423.67" fill="none" stroke="#bcbcbc" stroke-width="8" stroke-linecap="round" stroke-linejoin="round" /><polyline points="785.46,-466.13 790.46,-450.25 793.99,-433.56 787.13,-369.99 779.20,-322.17 774.87,-305.85 774.48,-304.38 770.69,-295.57 765.52,-286.24 753.45,-270.97 759.30,-241.13 740.39,-177.07 729.95,-141.69 708.59,-83.78 677.32,-13.28 639.13,54.29 627.20,76.25 605.64,112.33 519.49,234.59 500.61,260.02 427.52,355.53 385.56,403.27 326.86,462.92 321.43,463.48 308.17,474.31" fill="none" stroke="#bcbcbc" stroke-width="8" stroke-linecap="round" stroke-linejoin="round" /><polyline points="-277.55,579.65 -253.50,505.08 -249.57,492.76 -244.23,485.01 -232.74,450.54 -229.00,438.83 -181.56,290.30 -176.79,275.37 -172.85,262.24 -116.86,86.05" fill="none" stroke="#bcbcbc" stroke-width="8" stroke-linecap="round" stroke-linejoin="round" /><polyline points="285.81,-807.26 306.60,-829.97 312.73,-837.36 354.73,-896.85" fill="none" stroke="#bcbcbc" stroke-width="8" stroke-linecap="round" stroke-linejoin="round" /><polyline points="-129.71,-798.26 -72.46,-778.33 -69.30,-773.20 -53.04,-767.74 -43.39,-764.45 2.75,-748.86" fill="none" stroke="#bcbcbc" stroke-width="8" stroke-linecap="round" stroke-linejoin="round" /><polyline points="369.28,-1194.39 395.76,-1097.07 426.42,-982.43 431.06,-972.87 431.80,-961.96 452.59,-923.16 508.69,-818.56 520.95,-800.47 524.50,-795.17 608.31,-638.49 646.83,-603.48 652.24,-596.50 659.85,-589.99 732.99,-527.46 737.95,-523.22 751.09,-516.24" fill="none" stroke="#bcbcbc" stroke-width="8" stroke-linecap="round" stroke-linejoin="round" /><polyline points="84.84,595.49 267.24,489.54 299.71,472.94 308.17,474.31" fill="none" stroke="#bcbcbc" stroke-width="8" stroke-linecap="round" stroke-linejoin="round" /><polyline points="282.60,443.93 293.92,430.47 395.52,227.77 402.25,214.48 407.87,201.32 440.69,120.17 450.46,95.73 478.75,10.13 497.09,-99.91 499.26,-115.93" fill="none" stroke="#bcbcbc" stroke-width="8" stroke-linecap="round" stroke-linejoin="round" /><polyline points="204.19,-748.17 202.41,-746.34 199.97,-737.82 199.72,-736.97 188.70,-694.51 191.59,-683.43 189.18,-673.50 186.04,-660.49 177.97,-651.14 168.81,-614.06 158.03,-605.91 146.51,-598.02 141.38,-594.50" fill="none" stroke="#bcbcbc" stroke-width="8" stroke-linecap="round" stroke-linejoin="round" /><polyline points="-227.73,-550.31 -223.04,-562.33 -194.85,-634.58 -188.71,-650.33 -183.64,-663.31 -147.63,-755.57 -131.41,-794.15 -129.71,-798.26 -117.11,-828.73 -88.83,-898.92 -78.48,-928.81 -76.17,-935.66 -73.08,-943.43" fill="none" stroke="#bcbcbc" stroke-width="8" stroke-linecap="round" stroke-linejoin="round" /><polyline points="87.67,-988.27 93.12,-972.05 272.00,-819.27 369.62,-734.36 515.41,-607.63 528.13,-597.46 533.83,-593.89 559.13,-570.93 592.92,-542.12 669.55,-476.78 694.30,-455.50 710.72,-435.86" fill="none" stroke="#bcbcbc" stroke-width="8" stroke-linecap="round" stroke-linejoin="round" /><polyline points="383.43,-1251.52 392.51,-1257.34 446.26,-1279.68 457.30,-1291.30" fill="none" stroke="#bcbcbc" stroke-width="8" stroke-linecap="round" stroke-linejoin="round" /><polyline points="445.52,108.09 371.31,86.22 236.98,46.72" fill="none" stroke="#bcbcbc" stroke-width="8" stroke-linecap="round" stroke-linejoin="round" /><polyline points="205.97,-1470.20 216.11,-1463.22 546.41,-1389.73" fill="none" stroke="#bcbcbc" stroke-width="8" stroke-linecap="round" stroke-linejoin="round" /><polyline points="613.97,-382.81 596.90,-420.79 559.02,-511.13 556.19,-518.31 549.71,-534.80 525.30,-596.93 523.76,-600.95" fill="none" stroke="#bcbcbc" stroke-width="8" stroke-linecap="round" stroke-linejoin="round" /><polyline points="107.22,-1219.30 88.88,-1224.52 75.41,-1228.53 48.02,-1236.66 34.10,-1240.63 26.13,-1242.85 15.72,-1245.83" fill="none" stroke="#bcbcbc" stroke-width="8" stroke-linecap="round" stroke-linejoin="round" /><polyline points="-370.91,-722.42 -371.84,-725.45 -372.70,-727.57 -376.48,-736.97 -391.12,-771.09 -405.03,-805.77 -408.04,-813.95 -411.50,-823.38 -413.98,-831.10 -418.07,-842.66 -418.49,-843.88 -431.81,-876.68 -456.25,-938.35 -461.74,-941.48 -465.64,-951.48 -473.44,-978.56 -486.79,-1012.12 -489.67,-1019.75" fill="none" stroke="#bcbcbc" stroke-width="8" stroke-linecap="round" stroke-linejoin="round" /><polyline points="-253.50,505.08 -239.63,509.33 -194.72,523.01 -180.65,527.30" fill="none" stroke="#bcbcbc" stroke-width="8" stroke-linecap="round" stroke-linejoin="round" /><polyline points="585.12,-1235.38 587.73,-1245.96 586.67,-1249.98 585.39,-1254.82 577.19,-1284.86 558.91,-1348.35 549.27,-1380.81 546.41,-1389.73 520.92,-1481.35 507.16,-1530.77 492.88,-1568.77 479.98,-1603.05 467.14,-1626.62 454.66,-1639.08 358.88,-1756.12 351.79,-1764.45 347.09,-1772.15" fill="none" stroke="#bcbcbc" stroke-width="8" stroke-linecap="round" stroke-linejoin="round" /><polyline points="193.63,-1017.56 188.69,-1015.67 179.56,-1013.15 178.64,-1012.90 140.49,-1003.14 96.63,-990.79 87.67,-988.27 83.69,-987.01 73.15,-983.62 64.14,-981.11 24.81,-970.17 -39.88,-951.79 -64.00,-945.70 -73.08,-943.43 -116.19,-932.85 -142.82,-925.43 -199.21,-909.68 -254.95,-893.97 -261.40,-892.18 -307.99,-879.25 -329.48,-873.28 -340.33,-868.16 -360.87,-857.98 -401.66,-837.28 -404.51,-835.83 -413.98,-831.10 -419.75,-828.20 -427.81,-823.98 -456.47,-808.95 -508.70,-779.65 -552.32,-756.81 -558.56,-753.54 -566.89,-753.02 -571.90,-750.36 -572.90,-749.83 -620.23,-723.89 -630.14,-723.94 -641.51,-717.99 -645.49,-715.91 -648.84,-714.15 -656.75,-710.02 -662.98,-695.80 -689.77,-681.46 -698.28,-676.89 -707.50,-671.88 -744.76,-651.60 -764.02,-641.12 -773.73,-638.32" fill="none" stroke="#bcbcbc" stroke-width="8" stroke-linecap="round" stroke-linejoin="round" /><polyline points="729.95,-141.69 710.06,-139.87 647.95,-134.18 645.15,-133.92 641.19,-133.56 634.77,-132.97 574.55,-127.44 553.60,-129.38 529.21,-123.27 509.67,-118.48 499.26,-115.93 473.40,-114.95 451.02,-116.09 439.61,-117.30 429.90,-120.24 422.75,-124.19 396.12,-143.02 331.41,-187.46 325.31,-191.60 319.10,-195.81 314.45,-200.31" fill="none" stroke="#bcbcbc" stroke-width="8" stroke-linecap="round" stroke-linejoin="round" /><polyline points="-735.64,-891.96 -712.16,-845.99 -708.60,-832.86 -688.82,-795.12 -680.65,-784.33 -647.60,-720.02 -645.49,-715.91" fill="none" stroke="#bcbcbc" stroke-width="8" stroke-linecap="round" stroke-linejoin="round" /><polyline points="-16.10,-483.21 -19.61,-473.55 -20.60,-470.55 -25.18,-456.64 -54.23,-375.61 -68.65,-335.37 -69.14,-333.99 -74.94,-321.48 -78.26,-314.05" fill="none" stroke="#bcbcbc" stroke-width="8" stroke-linecap="round" stroke-linejoin="round" /><polyline points="369.28,-1194.39 366.06,-1201.29 357.60,-1202.40 330.22,-1196.12 324.65,-1196.84 320.29,-1202.68 312.54,-1238.31 354.51,-1244.80 373.94,-1250.54 383.43,-1251.52 393.67,-1215.15" fill="none" stroke="#bcbcbc" stroke-width="8" stroke-linecap="round" stroke-linejoin="round" /><polyline points="520.95,-800.47 531.76,-806.54 586.05,-839.25 600.56,-847.89 625.96,-863.03 667.74,-890.05 677.49,-897.06 750.79,-942.52" fill="none" stroke="#bcbcbc" stroke-width="8" stroke-linecap="round" stroke-linejoin="round" /><polyline points="777.15,-585.73 758.62,-591.25 747.84,-600.08 706.68,-635.71 705.27,-636.96 695.32,-645.84 689.47,-656.21 586.05,-839.25" fill="none" stroke="#bcbcbc" stroke-width="8" stroke-linecap="round" stroke-linejoin="round" /><polyline points="-389.99,-600.24 -227.73,-550.31 -214.49,-546.11 -93.40,-507.74 -90.87,-506.93 -72.73,-501.18 -63.81,-498.35 -52.22,-495.18 -28.32,-487.09 -16.10,-483.21 -5.09,-479.72 85.02,-451.14 180.15,-421.26 188.02,-418.79 198.92,-424.14" fill="none" stroke="#bcbcbc" stroke-width="8" stroke-linecap="round" stroke-linejoin="round" /><polyline points="87.12,-1401.25 157.41,-1465.82 169.30,-1476.76" fill="none" stroke="#bcbcbc" stroke-width="8" stroke-linecap="round" stroke-linejoin="round" /><polyline points="-1089.89,-359.22 -831.98,-331.57" fill="none" stroke="#bcbcbc" stroke-width="8" stroke-linecap="round" stroke-linejoin="round" /><polyline points="-311.84,-1079.02 -257.64,-1098.40 -201.72,-1118.61 -166.98,-1132.12 -60.91,-1170.69 -30.12,-1181.34 -23.69,-1183.56 -15.98,-1186.21 -7.32,-1189.19 -6.26,-1189.56 11.21,-1196.58 18.81,-1199.63" fill="none" stroke="#bcbcbc" stroke-width="8" stroke-linecap="round" stroke-linejoin="round" /><polyline points="52.24,232.62 103.28,295.57 134.52,327.03 148.05,336.76 167.20,352.80 185.18,367.90 200.64,382.97 201.02,390.64" fill="none" stroke="#bcbcbc" stroke-width="8" stroke-linecap="round" stroke-linejoin="round" /><polyline points="107.22,-1219.30 127.22,-1269.43 159.59,-1351.96 205.97,-1470.20 228.89,-1526.22 263.05,-1609.74 291.05,-1678.16 296.06,-1687.23 320.69,-1727.49 322.28,-1730.10 331.29,-1747.81 347.09,-1772.15 355.92,-1785.73 368.40,-1804.94" fill="none" stroke="#bcbcbc" stroke-width="8" stroke-linecap="round" stroke-linejoin="round" /><polyline points="-364.64,120.98 -367.92,123.60 -370.08,126.71 -374.49,139.72 -377.54,149.11 -391.63,191.25 -393.57,197.33 -394.77,201.10 -407.71,197.39 -439.21,186.83 -470.41,176.37 -494.53,175.00" fill="none" stroke="#bcbcbc" stroke-width="8" stroke-linecap="round" stroke-linejoin="round" /><polyline points="-981.38,414.16 -929.95,281.36 -924.22,266.90 -919.09,252.98 -912.89,236.15 -905.28,209.69 -897.35,176.79 -894.10,153.22 -891.75,136.10 -888.42,123.46 -876.31,28.50 -862.17,-91.33 -854.86,-148.46 -846.69,-215.57 -831.98,-331.57 -829.64,-351.30 -814.77,-472.62 -814.76,-479.38 -811.48,-515.37 -801.99,-591.41 -799.62,-604.67 -797.14,-612.11 -793.26,-620.30 -789.49,-626.66 -781.16,-635.67 -773.72,-638.23" fill="none" stroke="#bcbcbc" stroke-width="8" stroke-linecap="round" stroke-linejoin="round" /><polyline points="141.38,-594.50 144.19,-590.04 153.62,-575.32 167.74,-552.68 171.15,-547.29 176.78,-551.56 204.09,-572.30" fill="none" stroke="#bcbcbc" stroke-width="8" stroke-linecap="round" stroke-linejoin="round" /><polyline points="159.59,-1351.96 437.47,-1301.73 466.66,-1286.37 575.53,-1232.41 585.12,-1235.38" fill="none" stroke="#bcbcbc" stroke-width="8" stroke-linecap="round" stroke-linejoin="round" /><polyline points="-370.91,-722.42 -375.84,-715.22 -420.18,-693.59 -452.74,-652.21 -487.87,-630.46 -511.90,-612.32 -534.83,-593.62 -546.58,-582.91 -567.34,-556.57 -590.56,-523.30 -594.38,-517.13" fill="none" stroke="#bcbcbc" stroke-width="8" stroke-linecap="round" stroke-linejoin="round" /><polyline points="-324.04,-692.73 -325.97,-688.46 -330.17,-682.31 -338.11,-672.54 -384.94,-613.39 -409.72,-546.67 -534.77,-593.67" fill="none" stroke="#bcbcbc" stroke-width="8" stroke-linecap="round" stroke-linejoin="round" /><polyline points="-511.90,-612.32 -516.74,-626.97 -537.67,-690.32 -545.79,-702.84 -559.39,-743.63 -560.56,-747.15 -558.56,-753.54 -561.82,-763.93 -627.20,-972.69" fill="none" stroke="#bcbcbc" stroke-width="8" stroke-linecap="round" stroke-linejoin="round" /><polyline points="254.27,-1751.36 305.95,-1750.00 308.36,-1749.93 318.26,-1749.65 331.29,-1747.81" fill="none" stroke="#bcbcbc" stroke-width="8" stroke-linecap="round" stroke-linejoin="round" /><polyline points="-11.53,-68.15 -29.18,-68.37 -178.58,-48.31 -189.35,-47.18 -201.67,-45.88 -273.16,-38.34 -369.48,-28.16 -420.55,-22.78 -448.80,-19.80 -471.73,-17.01 -483.51,-15.58 -496.78,-13.97 -560.86,-6.18 -576.22,-4.31 -623.54,0.86 -876.31,28.50" fill="none" stroke="#bcbcbc" stroke-width="8" stroke-linecap="round" stroke-linejoin="round" /><polyline points="-232.74,450.54 -245.98,446.28 -307.79,426.38 -320.29,422.36 -331.14,418.87 -396.63,397.82 -409.55,393.67 -426.63,388.18 -530.89,354.63 -542.62,350.85" fill="none" stroke="#bcbcbc" stroke-width="8" stroke-linecap="round" stroke-linejoin="round" /><polyline points="25.76,-800.96 61.72,-789.76 193.21,-749.16 194.44,-748.78 204.19,-748.17" fill="none" stroke="#bcbcbc" stroke-width="8" stroke-linecap="round" stroke-linejoin="round" /><polyline points="395.76,-1097.07 574.64,-1093.93" fill="none" stroke="#bcbcbc" stroke-width="8" stroke-linecap="round" stroke-linejoin="round" /><polyline points="308.17,474.31 282.60,443.93 271.87,431.45 262.65,422.83 250.38,413.67 225.29,398.62 201.02,390.64 151.63,375.39 111.24,362.57 134.52,327.03" fill="none" stroke="#bcbcbc" stroke-width="8" stroke-linecap="round" stroke-linejoin="round" /><polyline points="52.24,232.62 16.64,188.67 9.86,180.31 -26.00,130.91 -34.12,115.83 -32.17,97.87 -21.36,97.76 5.32,102.90 45.91,110.70" fill="none" stroke="#bcbcbc" stroke-width="8" stroke-linecap="round" stroke-linejoin="round" /><polyline points="-413.55,-119.48 -406.98,-105.35 -369.48,-28.16 -313.72,86.61 -306.61,101.25" fill="none" stroke="#bcbcbc" stroke-width="8" stroke-linecap="round" stroke-linejoin="round" /><polyline points="-1014.17,230.14 -1000.75,235.62 -937.94,261.30 -924.22,266.90 -909.80,272.80 -835.84,303.04 -822.46,308.51" fill="none" stroke="#bcbcbc" stroke-width="8" stroke-linecap="round" stroke-linejoin="round" /><polyline points="-382.69,-233.92 -251.82,-176.67" fill="none" stroke="#bcbcbc" stroke-width="8" stroke-linecap="round" stroke-linejoin="round" /><polyline points="204.19,-748.17 224.13,-747.12 225.40,-745.99 234.34,-738.06 247.49,-726.32 249.91,-721.60 295.23,-681.93 298.58,-675.60 330.44,-647.48 338.45,-645.04 363.24,-623.34 368.79,-620.80 406.17,-589.09 414.49,-581.72 419.08,-574.41" fill="none" stroke="#bcbcbc" stroke-width="8" stroke-linecap="round" stroke-linejoin="round" /><polyline points="-1051.11,-233.79 -846.69,-215.57" fill="none" stroke="#bcbcbc" stroke-width="8" stroke-linecap="round" stroke-linejoin="round" /><polyline points="-594.70,527.29 -588.36,513.81 -586.73,507.81 -577.86,475.08 -545.70,361.71 -542.62,350.85 -539.37,338.95 -524.80,285.68 -500.20,195.73 -494.53,175.00" fill="none" stroke="#bcbcbc" stroke-width="8" stroke-linecap="round" stroke-linejoin="round" /><polyline points="-413.55,-119.48 -382.69,-233.92 -448.12,-256.81 -465.26,-246.70 -473.07,-240.76 -478.85,-232.94 -482.92,-222.61 -497.97,-166.99 -485.83,-160.81 -473.56,-157.83 -446.44,-150.78 -426.14,-144.31 -413.55,-119.48" fill="none" stroke="#bcbcbc" stroke-width="8" stroke-linecap="round" stroke-linejoin="round" /><polyline points="-497.97,-166.99 -512.30,-168.99 -846.69,-215.57" fill="none" stroke="#bcbcbc" stroke-width="8" stroke-linecap="round" stroke-linejoin="round" /><polyline points="45.91,110.70 76.92,117.48 160.81,144.14 184.26,151.55 239.93,167.63 296.01,183.80 337.53,195.80 403.93,214.97 417.65,218.93 451.16,230.16 506.33,244.86 511.19,245.77" fill="none" stroke="#bcbcbc" stroke-width="8" stroke-linecap="round" stroke-linejoin="round" /><polyline points="85.25,595.25 73.93,598.09 61.70,632.19 42.72,626.80 -43.55,597.40 -53.94,595.18 -77.04,593.53 -181.52,593.95 -204.56,591.01 -256.57,583.06 -277.55,579.65 -426.36,555.66 -483.98,546.46 -593.88,527.43 -611.62,523.91 -859.63,454.60 -875.28,450.22 -981.38,414.16 -1007.48,404.90 -1072.68,377.89 -1109.84,363.83" fill="none" stroke="#bcbcbc" stroke-width="8" stroke-linecap="round" stroke-linejoin="round" /><polyline points="312.54,-1238.31 301.81,-1240.52 158.47,-1223.57 107.22,-1219.30" fill="none" stroke="#bcbcbc" stroke-width="8" stroke-linecap="round" stroke-linejoin="round" /><polyline points="45.91,110.70 50.93,102.30 81.01,25.05 114.62,-91.75 123.19,-116.90 127.78,-123.75 160.23,-227.89 161.84,-240.33 163.07,-248.46" fill="none" stroke="#bcbcbc" stroke-width="8" stroke-linecap="round" stroke-linejoin="round" /><polyline points="193.63,-1017.56 197.05,-1018.87 201.70,-1022.56 208.75,-1030.80 300.28,-1162.11 324.65,-1196.84" fill="none" stroke="#bcbcbc" stroke-width="8" stroke-linecap="round" stroke-linejoin="round" /><polyline points="600.98,-535.19 602.85,-540.58 648.86,-594.71 652.24,-596.50 660.23,-607.44 686.99,-638.18 695.32,-645.84" fill="none" stroke="#bcbcbc" stroke-width="8" stroke-linecap="round" stroke-linejoin="round" /><polyline points="641.19,-133.56 640.55,-140.80 640.06,-146.40 637.63,-157.11 634.73,-164.10 631.12,-182.46 630.79,-189.10 628.34,-203.96 617.39,-209.68 608.64,-206.34 592.97,-202.59 580.57,-200.65 568.68,-197.78 552.26,-194.04 544.78,-192.33" fill="none" stroke="#bcbcbc" stroke-width="8" stroke-linecap="round" stroke-linejoin="round" /><polyline points="-567.55,-399.35 -534.09,-477.78 -532.23,-482.87" fill="none" stroke="#bcbcbc" stroke-width="8" stroke-linecap="round" stroke-linejoin="round" /><polyline points="314.25,-543.16 330.38,-549.41 338.81,-552.67 345.33,-559.27 372.22,-565.90 381.24,-563.60 400.70,-568.62 415.54,-572.44 419.08,-574.41 433.47,-577.94 507.08,-595.97 523.76,-600.95" fill="none" stroke="#bcbcbc" stroke-width="8" stroke-linecap="round" stroke-linejoin="round" /><polyline points="-364.64,120.98 -329.92,108.37 -318.30,104.82 -306.61,101.25 -285.03,94.66 -268.25,92.24 -210.92,85.97 -199.40,85.34 -148.11,85.78 -116.86,86.05 -105.11,85.45 -86.29,87.35 -80.41,88.20 -68.41,89.91 -32.17,97.87" fill="none" stroke="#bcbcbc" stroke-width="8" stroke-linecap="round" stroke-linejoin="round" /><polyline points="-199.21,-909.68 -204.96,-929.12 -226.33,-1001.34 -252.28,-1083.70 -257.64,-1098.40 -263.08,-1112.18 -269.95,-1132.04" fill="none" stroke="#bcbcbc" stroke-width="8" stroke-linecap="round" stroke-linejoin="round" /><polyline points="-261.35,254.86 -256.79,240.45 -210.63,94.92 -210.92,85.97" fill="none" stroke="#bcbcbc" stroke-width="8" stroke-linecap="round" stroke-linejoin="round" /><polyline points="-199.40,85.34 -190.26,-37.19 -189.35,-47.18 -187.95,-58.81 -187.93,-59.33 -187.33,-73.54 -184.28,-112.11 -182.56,-130.08 -180.21,-150.49 -178.07,-165.18 -176.14,-174.41 -173.72,-181.38 -168.98,-197.09 -159.18,-229.81 -146.71,-272.04 -132.96,-315.23 -130.16,-324.03 -127.91,-330.42" fill="none" stroke="#bcbcbc" stroke-width="8" stroke-linecap="round" stroke-linejoin="round" /><polyline points="-497.97,-166.99 -500.40,-156.13 -499.98,-152.66 -485.09,-28.71 -483.51,-15.58 -484.20,-2.07 -488.10,75.02 -489.73,107.23 -490.57,123.85 -492.07,153.46 -492.85,168.88 -494.53,175.00" fill="none" stroke="#bcbcbc" stroke-width="8" stroke-linecap="round" stroke-linejoin="round" /><polyline points="-567.55,-399.35 -621.69,-415.44 -628.57,-419.85 -662.26,-429.67 -671.73,-429.57 -714.07,-442.32 -720.91,-447.37 -759.43,-459.04 -806.70,-471.93 -806.93,-471.95 -814.77,-472.62" fill="none" stroke="#bcbcbc" stroke-width="8" stroke-linecap="round" stroke-linejoin="round" /><polyline points="419.08,-574.41 420.96,-571.94 428.81,-560.24 443.32,-538.61 456.98,-524.93 483.25,-495.45 478.81,-468.21 476.56,-457.99 473.42,-453.67 480.00,-443.93 490.19,-422.97 510.55,-383.71 520.57,-364.37 526.81,-346.99 529.62,-338.92" fill="none" stroke="#bcbcbc" stroke-width="8" stroke-linecap="round" stroke-linejoin="round" /><polyline points="556.19,-518.31 548.65,-515.96 498.93,-500.49 491.80,-498.20 483.25,-495.45" fill="none" stroke="#bcbcbc" stroke-width="8" stroke-linecap="round" stroke-linejoin="round" /><polyline points="198.92,-424.14 214.47,-429.18 327.32,-486.79 342.42,-494.17 395.61,-509.53 447.18,-524.03 456.98,-524.93" fill="none" stroke="#bcbcbc" stroke-width="8" stroke-linecap="round" stroke-linejoin="round" /><polyline points="211.22,-352.81 341.32,-413.34 346.80,-416.97 359.52,-420.67 446.21,-445.89 459.36,-450.92 473.42,-453.67" fill="none" stroke="#bcbcbc" stroke-width="8" stroke-linecap="round" stroke-linejoin="round" /><polyline points="184.67,-1621.91 237.34,-1615.40 242.63,-1614.75 263.05,-1609.74" fill="none" stroke="#bcbcbc" stroke-width="8" stroke-linecap="round" stroke-linejoin="round" /><polyline points="634.72,-1086.54 644.06,-1088.49 678.96,-1071.39 683.56,-1066.84 749.06,-955.96 750.79,-942.52 759.31,-935.42 757.95,-930.52 757.74,-922.53 758.93,-911.36 776.28,-840.06 777.81,-790.68 780.24,-711.83 784.32,-605.70 767.71,-559.46 757.00,-531.27 741.38,-491.54 736.85,-480.05 733.91,-476.84 729.19,-446.09" fill="none" stroke="#bcbcbc" stroke-width="8" stroke-linecap="round" stroke-linejoin="round" /><polyline points="755.84,-258.80 739.90,-265.73 700.09,-293.51 647.56,-330.42 618.67,-353.78 599.18,-374.65" fill="none" stroke="#bcbcbc" stroke-width="8" stroke-linecap="round" stroke-linejoin="round" /><polyline points="111.24,362.57 95.59,357.61 70.20,349.56 58.08,345.72 43.85,341.21 25.87,335.51 9.61,330.35 -6.46,325.25 -78.13,302.51 -90.68,298.53 -106.27,293.59 -109.71,292.51 -150.70,281.68 -162.28,278.88 -176.79,275.37 -191.97,271.69 -246.68,258.42 -261.35,254.86 -277.11,249.39 -310.05,237.95 -322.47,233.64 -333.58,230.04 -385.15,211.70 -391.65,207.83 -394.77,201.10" fill="none" stroke="#bcbcbc" stroke-width="8" stroke-linecap="round" stroke-linejoin="round" /><polyline points="346.80,-416.97 343.00,-430.58 331.68,-471.18 327.32,-486.79 321.03,-498.46 320.44,-500.63 316.73,-514.37 321.05,-520.46 315.86,-537.78 314.25,-543.16" fill="none" stroke="#bcbcbc" stroke-width="8" stroke-linecap="round" stroke-linejoin="round" /><polyline points="327.86,-913.76 338.63,-918.83 397.44,-951.25 431.06,-972.87 454.77,-989.05 460.01,-992.95 479.09,-1006.21 498.87,-1020.81 511.39,-1029.93 526.32,-1040.84 578.21,-1064.25 584.94,-1063.90 594.77,-1068.55 634.72,-1086.54" fill="none" stroke="#bcbcbc" stroke-width="8" stroke-linecap="round" stroke-linejoin="round" /><polyline points="-324.04,-692.73 -315.56,-689.29 -309.95,-687.57 -204.77,-655.26 -188.71,-650.33" fill="none" stroke="#bcbcbc" stroke-width="8" stroke-linecap="round" stroke-linejoin="round" /><polyline points="-1075.32,-456.23 -1150.46,-478.97" fill="none" stroke="#bcbcbc" stroke-width="8" stroke-linecap="round" stroke-linejoin="round" /><polyline points="138.49,-1515.79 157.12,-1492.19 159.90,-1488.67 169.30,-1476.76 180.02,-1475.50 202.06,-1472.91 205.97,-1470.20" fill="none" stroke="#bcbcbc" stroke-width="8" stroke-linecap="round" stroke-linejoin="round" /><polyline points="785.46,-466.13 755.94,-460.62 725.66,-444.17 697.60,-428.56 671.06,-415.29 638.99,-397.87 615.77,-383.77 569.88,-359.17 390.73,-269.05 344.29,-248.59 313.60,-235.32 298.39,-230.35 285.81,-228.00 265.22,-226.75 235.91,-230.90 162.79,-248.46 58.98,-272.64 -77.59,-313.83 -127.91,-330.42 -210.29,-355.85 -289.08,-381.84 -404.65,-427.17 -462.43,-452.05 -532.09,-483.01 -647.65,-546.32 -674.75,-564.28 -743.31,-607.41 -772.06,-636.15 -815.19,-691.99 -886.24,-765.24 -914.16,-789.85" fill="none" stroke="#bcbcbc" stroke-width="8" stroke-linecap="round" stroke-linejoin="round" /><polyline points="225.29,398.62 226.50,391.87 230.87,380.84 271.85,284.96 287.33,249.02 305.58,204.23 310.03,187.84" fill="none" stroke="#bcbcbc" stroke-width="8" stroke-linecap="round" stroke-linejoin="round" /><polyline points="-560.86,-6.18 -607.41,-28.71 -713.33,-79.97 -843.26,-142.84 -854.86,-148.46" fill="none" stroke="#bcbcbc" stroke-width="8" stroke-linecap="round" stroke-linejoin="round" /><polyline points="204.19,-748.17 215.95,-760.20 247.20,-792.19 272.00,-819.27" fill="none" stroke="#bcbcbc" stroke-width="8" stroke-linecap="round" stroke-linejoin="round" /><polyline points="-698.28,-676.89 -711.19,-693.99 -771.71,-774.10 -858.08,-843.99" fill="none" stroke="#bcbcbc" stroke-width="8" stroke-linecap="round" stroke-linejoin="round" /><polyline points="-1073.14,377.69 -1061.33,349.68 -1023.77,256.06 -1019.22,243.77 -1014.17,230.14 -1012.25,225.22 -1011.74,217.51 -1006.93,144.73 -1005.55,123.85" fill="none" stroke="#bcbcbc" stroke-width="8" stroke-linecap="round" stroke-linejoin="round" /><polyline points="-1098.76,-374.92 -1075.32,-456.23 -1044.38,-563.48 -1040.55,-576.75 -1036.29,-591.83 -1026.76,-625.60 -1025.76,-629.15 -1023.03,-640.01 -1018.68,-652.28 -1017.62,-655.25 -1012.12,-668.88 -1001.33,-692.69 -998.10,-699.53" fill="none" stroke="#bcbcbc" stroke-width="8" stroke-linecap="round" stroke-linejoin="round" /><polyline points="-1040.55,-576.75 -993.11,-564.62 -892.62,-538.79 -835.36,-520.97 -811.48,-515.37" fill="none" stroke="#bcbcbc" stroke-width="8" stroke-linecap="round" stroke-linejoin="round" /><polyline points="-64.00,-945.70 -62.39,-955.57 -60.76,-965.82 -53.80,-1000.11 -36.42,-1079.91 -22.13,-1151.30 -19.52,-1166.11 -15.98,-1186.21 -15.97,-1186.23" fill="none" stroke="#bcbcbc" stroke-width="8" stroke-linecap="round" stroke-linejoin="round" /><polyline points="-204.47,591.03 -183.28,537.00 -180.65,527.30 -96.59,313.92 -90.68,298.53 -85.90,285.47 -35.67,139.35 -26.00,130.91" fill="none" stroke="#bcbcbc" stroke-width="8" stroke-linecap="round" stroke-linejoin="round" /><polyline points="83.69,-987.01 83.68,-987.03 80.70,-1002.65 80.24,-1004.55 72.98,-1034.08 72.98,-1034.17 68.03,-1054.19 47.05,-1126.08 44.41,-1133.78 30.24,-1172.29 25.64,-1183.78 22.67,-1191.20 18.81,-1199.62 18.81,-1199.63 18.80,-1199.67 15.99,-1230.63 15.72,-1245.83" fill="none" stroke="#bcbcbc" stroke-width="8" stroke-linecap="round" stroke-linejoin="round" /><polyline points="52.24,232.62 46.85,238.45 38.81,248.01 16.16,311.86 9.61,330.35" fill="none" stroke="#bcbcbc" stroke-width="8" stroke-linecap="round" stroke-linejoin="round" /><polyline points="-324.04,-692.73 -320.95,-701.11 -320.25,-703.06 -305.54,-744.14 -300.03,-761.44 -254.95,-893.97" fill="none" stroke="#bcbcbc" stroke-width="8" stroke-linecap="round" stroke-linejoin="round" /><polyline points="-90.87,-506.93 -86.27,-519.15 -73.82,-552.23 -68.55,-566.22 -64.99,-575.68 -54.99,-602.23 -48.39,-619.77 -47.50,-622.13 -31.50,-664.61 -24.82,-662.54 -21.19,-672.41 -14.78,-689.85 -16.01,-697.78 1.01,-744.10 2.75,-748.86 5.98,-751.83 8.69,-754.32 25.76,-800.96 28.22,-813.73 52.71,-881.75 58.50,-886.28 70.28,-919.60 68.18,-924.71 78.50,-955.83 73.15,-983.62" fill="none" stroke="#bcbcbc" stroke-width="8" stroke-linecap="round" stroke-linejoin="round" /><polyline points="347.09,-1772.15 340.23,-1783.40 304.18,-1842.53" fill="none" stroke="#bcbcbc" stroke-width="8" stroke-linecap="round" stroke-linejoin="round" /><polyline points="460.01,-992.95 625.45,-886.57 625.49,-886.50 625.49,-886.48 656.09,-882.51" fill="none" stroke="#bcbcbc" stroke-width="8" stroke-linecap="round" stroke-linejoin="round" /><polyline points="393.67,-1215.15 569.69,-1126.81 575.00,-1122.85 574.64,-1093.93 578.21,-1064.25" fill="none" stroke="#bcbcbc" stroke-width="8" stroke-linecap="round" stroke-linejoin="round" /><polyline points="58.08,345.72 51.75,365.03 26.10,443.24 -17.52,574.95 -20.61,584.30 -23.75,593.76 -24.62,603.85" fill="none" stroke="#bcbcbc" stroke-width="8" stroke-linecap="round" stroke-linejoin="round" /><polyline points="553.60,-129.38 554.65,-139.20 554.88,-148.35 554.81,-148.67 548.57,-175.63 546.01,-186.89 544.78,-192.33 543.52,-197.88 536.67,-228.04 523.29,-288.32 513.57,-324.55 512.20,-330.15" fill="none" stroke="#bcbcbc" stroke-width="8" stroke-linecap="round" stroke-linejoin="round" /><polyline points="-320.29,422.36 -315.93,409.96 -266.91,270.67 -261.35,254.86" fill="none" stroke="#bcbcbc" stroke-width="8" stroke-linecap="round" stroke-linejoin="round" /><polyline points="780.24,-711.83 765.82,-715.90 667.89,-866.16 656.09,-882.51" fill="none" stroke="#bcbcbc" stroke-width="8" stroke-linecap="round" stroke-linejoin="round" /><polyline points="-829.64,-351.30 -472.73,-265.80 -448.12,-256.81" fill="none" stroke="#bcbcbc" stroke-width="8" stroke-linecap="round" stroke-linejoin="round" /><polyline points="296.06,-1687.23 435.09,-1635.74 454.66,-1639.08" fill="none" stroke="#bcbcbc" stroke-width="8" stroke-linecap="round" stroke-linejoin="round" />
    <polyline points="167.20,352.80 174.22,334.51 208.86,240.54 233.35,169.54 238.43,167.20" fill="none" stroke="#ffffff" stroke-width="16" stroke-linecap="round" stroke-linejoin="round" />
    <polyline points="167.20,352.80 174.22,334.51 208.86,240.54 233.35,169.54 238.43,167.20" fill="none" stroke="#111111" stroke-width="9" stroke-linecap="round" stroke-linejoin="round" />
    
            <g transform="translate(167.20,352.80)">
              <circle r="19" fill="#ffffff" stroke="#111111" stroke-width="4" />
              <text text-anchor="middle" dominant-baseline="central" font-family="Helvetica, Arial, sans-serif"
                font-size="18" font-weight="700" fill="#111111">1</text>
            </g>
            
            <g transform="translate(238.43,167.20)">
              <circle r="19" fill="#ffffff" stroke="#111111" stroke-width="4" />
              <text text-anchor="middle" dominant-baseline="central" font-family="Helvetica, Arial, sans-serif"
                font-size="18" font-weight="700" fill="#111111">2</text>
            </g>
            
  </g>
</svg>
