<svg xmlns="http://www.w3.org/2000/svg" width="520" height="520" viewBox="0 0 520 520">
  <rect width="100%" height="100%" fill="#ffffff" />
  <g>
    <polyline points="1445.45,-1410.22 1449.87,-1386.74 1478.34,-1187.55 1473.99,-1137.75" fill="none" stroke="#bcbcbc" stroke-width="8" stroke-linecap="round" stroke-linejoin="round" /><polyline points="866.64,249.74 873.53,228.57 910.01,116.39 914.30,103.18 918.66,89.30 1010.38,-203.19 1017.76,-226.71 1000.86,-268.32" fill="none" stroke="#bcbcbc" stroke-width="8" stroke-linecap="round" stroke-linejoin="round" /><polyline points="233.05,-10.41 231.57,-27.21 261.56,-195.15 265.76,-216.16 268.90,-227.16 277.16,-269.75 286.43,-321.88 296.54,-367.79 306.56,-413.60 312.88,-426.51 317.01,-434.43" fill="none" stroke="#bcbcbc" stroke-width="8" stroke-linecap="round" stroke-linejoin="round" /><polyline points="407.11,-1195.06 399.99,-1216.80 326.29,-1441.54 322.69,-1450.97" fill="none" stroke="#bcbcbc" stroke-width="8" stroke-linecap="round" stroke-linejoin="round" /><polyline points="28.97,782.91 31.17,761.47 32.06,751.63 40.09,662.89 48.87,584.76 50.92,566.51 52.83,544.63 53.04,542.78 58.02,499.27 62.31,455.04 67.04,412.35 70.22,379.12 71.55,358.61 72.73,339.67 74.82,318.33" fill="none" stroke="#bcbcbc" stroke-width="8" stroke-linecap="round" stroke-linejoin="round" /><polyline points="1047.25,301.88 1052.50,285.38 1089.48,169.14 1093.68,155.94 1099.66,137.12 1103.94,123.64 1136.67,-17.52" fill="none" stroke="#bcbcbc" stroke-width="8" stroke-linecap="round" stroke-linejoin="round" /><polyline points="903.50,-1997.37 917.16,-1995.28 1293.48,-1937.46" fill="none" stroke="#bcbcbc" stroke-width="8" stroke-linecap="round" stroke-linejoin="round" /><polyline points="-62.57,274.49 -101.74,272.67 -125.63,271.56 -138.60,270.95 -149.99,270.42 -238.68,266.30 -362.05,260.56 -420.86,252.23 -440.54,249.43 -457.61,246.42 -573.27,226.01 -589.44,223.16 -593.02,222.54 -612.99,219.12 -628.33,216.49 -726.33,207.83 -745.00,206.18 -751.85,205.57 -773.04,204.10 -814.52,201.23" fill="none" stroke="#bcbcbc" stroke-width="8" stroke-linecap="round" stroke-linejoin="round" /><polyline points="506.48,160.86 514.07,139.27 582.43,-50.23 664.68,-289.25 669.95,-304.24 673.62,-314.71 676.60,-323.31" fill="none" stroke="#bcbcbc" stroke-width="8" stroke-linecap="round" stroke-linejoin="round" /><polyline points="-751.85,205.57 -753.59,193.39 -754.01,180.16 -751.41,153.51 -745.46,104.85 -741.49,88.51 -735.04,29.47 -733.87,16.32 -731.98,-0.59 -730.58,-13.15 -727.94,-27.38 -723.04,-65.68 -719.64,-94.98 -714.65,-106.96" fill="none" stroke="#bcbcbc" stroke-width="8" stroke-linecap="round" stroke-linejoin="round" /><polyline points="-821.82,-121.93 -730.63,-109.20 -714.65,-106.96 -704.75,-105.38 -663.87,-98.87 -569.69,-83.87 -553.53,-81.17" fill="none" stroke="#bcbcbc" stroke-width="8" stroke-linecap="round" stroke-linejoin="round" /><polyline points="856.41,-1318.10 857.00,-1309.81 858.23,-1301.41 861.19,-1294.99 866.73,-1287.82 876.99,-1278.48 901.29,-1263.70 1088.78,-1146.08 1204.26,-991.28 1291.48,-776.05 1297.17,-761.83" fill="none" stroke="#bcbcbc" stroke-width="8" stroke-linecap="round" stroke-linejoin="round" /><polyline points="826.39,-690.08 830.27,-683.65 831.28,-681.98 834.50,-665.74 856.50,-559.38 863.48,-525.62 868.47,-501.57 876.26,-452.84 879.90,-430.36 882.41,-416.65 885.16,-404.27 888.44,-397.04 893.25,-388.68 895.83,-384.73 944.55,-314.99 970.90,-273.50 977.77,-263.58" fill="none" stroke="#bcbcbc" stroke-width="8" stroke-linecap="round" stroke-linejoin="round" /><polyline points="-572.15,641.71 -569.56,625.75 -567.15,614.20 -566.51,612.67 -534.09,535.58 -513.42,485.48 -507.15,469.60 -500.50,452.79 -493.27,438.33 -492.10,435.51 -482.22,411.61 -474.58,390.47 -468.02,371.07 -463.86,357.36 -459.19,340.42 -453.81,317.71 -449.73,299.28 -444.85,273.56 -443.82,267.83 -440.54,249.43" fill="none" stroke="#bcbcbc" stroke-width="8" stroke-linecap="round" stroke-linejoin="round" /><polyline points="998.83,-1511.14 1102.22,-1438.90 1116.14,-1435.94 1126.34,-1424.28" fill="none" stroke="#bcbcbc" stroke-width="8" stroke-linecap="round" stroke-linejoin="round" /><polyline points="564.69,-843.99 578.36,-838.74 637.68,-819.33 775.29,-766.56 783.01,-758.87 786.63,-753.12" fill="none" stroke="#bcbcbc" stroke-width="8" stroke-linecap="round" stroke-linejoin="round" /><polyline points="821.12,511.93 830.49,487.51 876.75,362.01 909.46,267.20 916.24,264.07" fill="none" stroke="#bcbcbc" stroke-width="8" stroke-linecap="round" stroke-linejoin="round" /><polyline points="1017.49,-684.57 1005.76,-682.15 979.18,-686.88 975.07,-697.84 929.02,-715.40 918.13,-712.55 876.58,-727.80 870.38,-723.47" fill="none" stroke="#bcbcbc" stroke-width="8" stroke-linecap="round" stroke-linejoin="round" /><polyline points="949.11,-2108.91 969.98,-2103.80 981.52,-2101.80 1256.04,-2054.21" fill="none" stroke="#bcbcbc" stroke-width="8" stroke-linecap="round" stroke-linejoin="round" /><polyline points="735.75,435.50 747.17,403.32 769.36,340.75 783.70,314.10 804.34,256.33 812.58,233.27" fill="none" stroke="#bcbcbc" stroke-width="8" stroke-linecap="round" stroke-linejoin="round" /><polyline points="-768.34,-813.90 -788.22,-814.81 -793.21,-808.76 -827.84,-766.67 -948.93,-626.82 -965.96,-607.15" fill="none" stroke="#bcbcbc" stroke-width="8" stroke-linecap="round" stroke-linejoin="round" /><polyline points="293.72,-694.12 284.95,-674.69 283.88,-672.33 253.39,-592.82 222.65,-505.30 214.46,-481.96 209.81,-469.91" fill="none" stroke="#bcbcbc" stroke-width="8" stroke-linecap="round" stroke-linejoin="round" /><polyline points="741.02,-1587.51 750.70,-1574.37 757.63,-1556.30 768.39,-1530.36 785.66,-1489.56 800.96,-1452.94 818.52,-1412.73 831.55,-1381.74 833.48,-1377.29 833.60,-1377.01 844.09,-1352.50 847.22,-1345.54 850.20,-1338.90 853.35,-1332.69 855.72,-1326.38 856.41,-1318.09" fill="none" stroke="#bcbcbc" stroke-width="8" stroke-linecap="round" stroke-linejoin="round" /><polyline points="-0.60,-302.17 4.47,-304.94 11.57,-310.58 15.12,-317.89 62.23,-496.51 63.65,-506.59 69.40,-524.99" fill="none" stroke="#bcbcbc" stroke-width="8" stroke-linecap="round" stroke-linejoin="round" /><polyline points="1646.75,-581.69 1653.43,-560.49 1658.14,-538.21 1648.98,-453.31 1638.40,-389.44 1632.62,-367.66 1632.09,-365.69 1627.03,-353.93 1620.13,-341.46 1604.01,-321.08 1611.81,-281.22 1586.56,-195.68 1572.62,-148.43 1544.10,-71.10 1502.33,23.06 1451.34,113.29 1435.41,142.62 1406.61,190.80 1291.57,354.07 1266.36,388.03 1168.75,515.58 1112.72,579.33 1034.33,658.99 1027.08,659.73 1009.37,674.20" fill="none" stroke="#bcbcbc" stroke-width="8" stroke-linecap="round" stroke-linejoin="round" /><polyline points="227.19,814.88 259.30,715.29 264.56,698.84 271.69,688.48 287.03,642.45 292.02,626.82 355.38,428.47 361.75,408.52 367.00,390.99 441.77,155.70" fill="none" stroke="#bcbcbc" stroke-width="8" stroke-linecap="round" stroke-linejoin="round" /><polyline points="979.51,-1037.26 1007.27,-1067.59 1015.46,-1077.46 1071.55,-1156.90" fill="none" stroke="#bcbcbc" stroke-width="8" stroke-linecap="round" stroke-linejoin="round" /><polyline points="424.62,-1025.24 501.07,-998.63 505.29,-991.76 527.00,-984.48 539.89,-980.08 601.51,-959.26" fill="none" stroke="#bcbcbc" stroke-width="8" stroke-linecap="round" stroke-linejoin="round" /><polyline points="1090.98,-1554.25 1126.34,-1424.28 1167.28,-1271.18 1173.48,-1258.42 1174.47,-1243.85 1202.23,-1192.03 1277.14,-1052.34 1293.52,-1028.18 1298.26,-1021.11 1410.19,-811.88 1461.63,-765.12 1468.84,-755.80 1479.02,-747.10 1576.69,-663.60 1583.31,-657.93 1600.85,-648.62" fill="none" stroke="#bcbcbc" stroke-width="8" stroke-linecap="round" stroke-linejoin="round" /><polyline points="711.13,836.02 954.71,694.54 998.07,672.37 1009.37,674.20" fill="none" stroke="#bcbcbc" stroke-width="8" stroke-linecap="round" stroke-linejoin="round" /><polyline points="975.22,633.62 990.34,615.66 1126.02,344.96 1135.00,327.21 1142.51,309.64 1186.33,201.27 1199.39,168.63 1237.16,54.32 1261.65,-92.64 1264.56,-114.03" fill="none" stroke="#bcbcbc" stroke-width="8" stroke-linecap="round" stroke-linejoin="round" /><polyline points="870.52,-958.34 868.14,-955.90 864.88,-944.52 864.55,-943.38 849.82,-886.69 853.69,-871.89 850.48,-858.62 846.27,-841.25 835.50,-828.77 823.27,-779.25 808.87,-768.37 793.49,-757.82 786.63,-753.12" fill="none" stroke="#bcbcbc" stroke-width="8" stroke-linecap="round" stroke-linejoin="round" /><polyline points="293.72,-694.12 299.98,-710.16 337.62,-806.65 345.83,-827.69 352.59,-845.01 400.69,-968.23 422.34,-1019.74 424.62,-1025.24 441.45,-1065.92 479.21,-1159.66 493.03,-1199.57 496.11,-1208.72 500.25,-1219.10" fill="none" stroke="#bcbcbc" stroke-width="8" stroke-linecap="round" stroke-linejoin="round" /><polyline points="714.92,-1278.99 722.19,-1257.32 961.07,-1053.30 1091.43,-939.90 1286.12,-770.67 1303.11,-757.07 1310.72,-752.32 1344.51,-721.65 1389.62,-683.17 1491.96,-595.92 1525.01,-567.50 1546.95,-541.27" fill="none" stroke="#bcbcbc" stroke-width="8" stroke-linecap="round" stroke-linejoin="round" /><polyline points="1109.88,-1630.54 1122.00,-1638.31 1193.78,-1668.14 1208.53,-1683.65" fill="none" stroke="#bcbcbc" stroke-width="8" stroke-linecap="round" stroke-linejoin="round" /><polyline points="1192.78,185.14 1093.68,155.94 914.30,103.18" fill="none" stroke="#bcbcbc" stroke-width="8" stroke-linecap="round" stroke-linejoin="round" /><polyline points="872.89,-1922.57 886.43,-1913.24 1327.52,-1815.10" fill="none" stroke="#bcbcbc" stroke-width="8" stroke-linecap="round" stroke-linejoin="round" /><polyline points="1417.74,-470.43 1394.95,-521.14 1344.36,-641.79 1340.59,-651.38 1331.93,-673.40 1299.32,-756.37 1297.27,-761.75" fill="none" stroke="#bcbcbc" stroke-width="8" stroke-linecap="round" stroke-linejoin="round" /><polyline points="741.02,-1587.51 716.53,-1594.48 698.53,-1599.84 661.96,-1610.70 643.38,-1616.00 632.73,-1618.95 618.83,-1622.93" fill="none" stroke="#bcbcbc" stroke-width="8" stroke-linecap="round" stroke-linejoin="round" /><polyline points="102.51,-923.95 101.27,-928.00 100.13,-930.84 95.08,-943.38 75.53,-988.96 56.95,-1035.26 52.93,-1046.19 48.31,-1058.79 45.00,-1069.09 39.54,-1084.53 38.97,-1086.15 21.19,-1129.97 -11.45,-1212.31 -18.78,-1216.49 -23.99,-1229.85 -34.40,-1266.01 -52.23,-1310.84 -56.08,-1321.02" fill="none" stroke="#bcbcbc" stroke-width="8" stroke-linecap="round" stroke-linejoin="round" /><polyline points="259.30,715.29 277.83,720.97 337.81,739.24 356.59,744.96" fill="none" stroke="#bcbcbc" stroke-width="8" stroke-linecap="round" stroke-linejoin="round" /><polyline points="1379.21,-1608.98 1382.71,-1623.10 1381.29,-1628.47 1379.57,-1634.95 1368.62,-1675.05 1344.21,-1759.85 1331.33,-1803.19 1327.52,-1815.10 1293.48,-1937.46 1275.10,-2003.46 1256.04,-2054.21 1238.81,-2099.99 1221.67,-2131.46 1205.00,-2148.09 1077.08,-2304.39 1067.62,-2315.52 1061.35,-2325.80" fill="none" stroke="#bcbcbc" stroke-width="8" stroke-linecap="round" stroke-linejoin="round" /><polyline points="856.41,-1318.09 849.81,-1315.57 837.62,-1312.21 836.40,-1311.87 785.45,-1298.84 726.87,-1282.35 714.92,-1278.98 709.59,-1277.29 695.52,-1272.77 683.49,-1269.42 630.96,-1254.81 544.57,-1230.27 512.37,-1222.13 500.25,-1219.10 442.68,-1204.97 407.11,-1195.06 331.80,-1174.02 257.36,-1153.05 248.75,-1150.66 186.54,-1133.39 157.84,-1125.43 143.35,-1118.58 115.92,-1104.98 61.44,-1077.34 57.65,-1075.41 45.00,-1069.09 37.29,-1065.22 26.52,-1059.58 -11.75,-1039.52 -81.49,-1000.39 -139.74,-969.88 -148.08,-965.51 -159.21,-964.82 -165.89,-961.26 -167.23,-960.56 -230.43,-925.92 -243.66,-925.98 -258.85,-918.03 -264.16,-915.26 -268.63,-912.92 -279.20,-907.39 -287.52,-888.41 -323.29,-869.25 -334.66,-863.16 -346.97,-856.46 -396.73,-829.38 -422.46,-815.39 -435.42,-811.65" fill="none" stroke="#bcbcbc" stroke-width="8" stroke-linecap="round" stroke-linejoin="round" /><polyline points="1572.62,-148.43 1546.07,-146.00 1463.11,-138.40 1459.38,-138.06 1454.09,-137.57 1445.52,-136.78 1365.10,-129.40 1337.12,-132.00 1304.55,-123.83 1278.46,-117.44 1264.56,-114.03 1230.02,-112.72 1200.13,-114.24 1184.90,-115.86 1171.93,-119.78 1162.38,-125.06 1126.82,-150.21 1040.40,-209.55 1032.26,-215.08 1023.96,-220.70 1017.76,-226.71" fill="none" stroke="#bcbcbc" stroke-width="8" stroke-linecap="round" stroke-linejoin="round" /><polyline points="-384.55,-1150.36 -353.19,-1088.98 -348.45,-1071.44 -322.03,-1021.05 -311.12,-1006.63 -266.98,-920.75 -264.16,-915.26" fill="none" stroke="#bcbcbc" stroke-width="8" stroke-linecap="round" stroke-linejoin="round" /><polyline points="576.34,-604.51 571.64,-591.60 570.32,-587.60 564.20,-569.03 525.41,-460.81 506.15,-407.07 505.50,-405.24 497.76,-388.53 493.33,-378.61" fill="none" stroke="#bcbcbc" stroke-width="8" stroke-linecap="round" stroke-linejoin="round" /><polyline points="1090.98,-1554.25 1086.68,-1563.45 1075.38,-1564.93 1038.81,-1556.55 1031.38,-1557.51 1025.56,-1565.32 1015.21,-1612.89 1071.25,-1621.57 1097.19,-1629.22 1109.88,-1630.54 1123.55,-1581.97" fill="none" stroke="#bcbcbc" stroke-width="8" stroke-linecap="round" stroke-linejoin="round" /><polyline points="1293.52,-1028.18 1307.95,-1036.29 1380.46,-1079.97 1399.83,-1091.51 1433.75,-1111.73 1489.55,-1147.81 1502.57,-1157.17 1600.45,-1217.89" fill="none" stroke="#bcbcbc" stroke-width="8" stroke-linecap="round" stroke-linejoin="round" /><polyline points="1635.65,-741.42 1610.91,-748.79 1596.52,-760.58 1541.54,-808.16 1539.67,-809.83 1526.38,-821.69 1518.57,-835.54 1380.46,-1079.97" fill="none" stroke="#bcbcbc" stroke-width="8" stroke-linecap="round" stroke-linejoin="round" /><polyline points="77.03,-760.79 293.72,-694.12 311.40,-688.51 473.10,-637.26 476.48,-636.19 500.71,-628.51 512.62,-624.73 528.09,-620.50 560.02,-609.69 576.34,-604.51 591.03,-599.85 711.37,-561.68 838.41,-521.77 848.92,-518.47 863.48,-525.62" fill="none" stroke="#bcbcbc" stroke-width="8" stroke-linecap="round" stroke-linejoin="round" /><polyline points="714.17,-1830.48 808.04,-1916.72 823.93,-1931.32" fill="none" stroke="#bcbcbc" stroke-width="8" stroke-linecap="round" stroke-linejoin="round" /><polyline points="-857.63,-438.92 -513.20,-402.01" fill="none" stroke="#bcbcbc" stroke-width="8" stroke-linecap="round" stroke-linejoin="round" /><polyline points="181.39,-1400.17 253.78,-1426.05 328.46,-1453.05 374.85,-1471.08 516.50,-1522.60 557.61,-1536.82 566.20,-1539.78 576.50,-1543.32 588.06,-1547.30 589.47,-1547.79 612.81,-1557.17 622.95,-1561.24" fill="none" stroke="#bcbcbc" stroke-width="8" stroke-linecap="round" stroke-linejoin="round" /><polyline points="667.60,351.44 735.75,435.50 777.48,477.51 795.54,490.51 821.12,511.93 845.13,532.09 865.77,552.22 866.28,562.46" fill="none" stroke="#bcbcbc" stroke-width="8" stroke-linecap="round" stroke-linejoin="round" /><polyline points="741.02,-1587.51 767.73,-1654.45 810.96,-1764.67 872.89,-1922.57 903.50,-1997.37 949.11,-2108.91 986.51,-2200.28 993.20,-2212.40 1026.09,-2266.17 1028.22,-2269.64 1040.25,-2293.30 1061.35,-2325.80 1073.13,-2343.93 1089.81,-2369.59" fill="none" stroke="#bcbcbc" stroke-width="8" stroke-linecap="round" stroke-linejoin="round" /><polyline points="110.89,202.34 106.51,205.84 103.62,210.01 97.73,227.38 93.66,239.92 74.84,296.18 72.25,304.30 70.65,309.34 53.37,304.39 11.31,290.29 -30.37,276.31 -62.57,274.49" fill="none" stroke="#bcbcbc" stroke-width="8" stroke-linecap="round" stroke-linejoin="round" /><polyline points="-712.71,593.88 -644.03,416.53 -636.39,397.22 -629.54,378.62 -621.25,356.16 -611.10,320.81 -600.51,276.88 -596.17,245.41 -593.02,222.54 -588.57,205.66 -572.41,78.85 -553.53,-81.17 -543.76,-157.46 -532.86,-247.09 -513.20,-402.01 -510.09,-428.35 -490.23,-590.36 -490.22,-599.39 -485.83,-647.46 -473.16,-749.00 -469.99,-766.71 -466.67,-776.65 -461.49,-787.59 -456.46,-796.08 -445.34,-808.11 -435.40,-811.52" fill="none" stroke="#bcbcbc" stroke-width="8" stroke-linecap="round" stroke-linejoin="round" /><polyline points="786.63,-753.12 790.39,-747.17 802.99,-727.51 821.84,-697.28 826.39,-690.08 833.91,-695.79 870.38,-723.47" fill="none" stroke="#bcbcbc" stroke-width="8" stroke-linecap="round" stroke-linejoin="round" /><polyline points="810.96,-1764.67 1182.05,-1697.59 1221.02,-1677.08 1366.41,-1605.01 1379.21,-1608.98" fill="none" stroke="#bcbcbc" stroke-width="8" stroke-linecap="round" stroke-linejoin="round" /><polyline points="102.51,-923.95 95.93,-914.35 36.72,-885.46 -6.76,-830.20 -53.68,-801.15 -85.77,-776.92 -116.38,-751.95 -132.08,-737.64 -159.80,-702.48 -190.80,-658.04 -195.91,-649.81" fill="none" stroke="#bcbcbc" stroke-width="8" stroke-linecap="round" stroke-linejoin="round" /><polyline points="165.10,-884.31 162.53,-878.60 156.92,-870.40 146.31,-857.35 83.78,-778.36 50.69,-689.25 -116.31,-752.02" fill="none" stroke="#bcbcbc" stroke-width="8" stroke-linecap="round" stroke-linejoin="round" /><polyline points="-85.77,-776.92 -92.24,-796.49 -120.18,-881.09 -131.02,-897.81 -149.19,-952.28 -150.75,-956.99 -148.08,-965.51 -152.43,-979.40 -239.75,-1258.17" fill="none" stroke="#bcbcbc" stroke-width="8" stroke-linecap="round" stroke-linejoin="round" /><polyline points="937.40,-2298.04 1006.41,-2296.22 1009.63,-2296.13 1022.85,-2295.75 1040.25,-2293.30" fill="none" stroke="#bcbcbc" stroke-width="8" stroke-linecap="round" stroke-linejoin="round" /><polyline points="582.43,-50.23 558.87,-50.51 359.35,-23.73 344.97,-22.22 328.53,-20.48 233.05,-10.41 104.42,3.18 36.23,10.37 -1.50,14.35 -32.13,18.07 -47.85,19.98 -65.57,22.14 -151.15,32.53 -171.66,35.03 -234.86,41.94 -572.41,78.85" fill="none" stroke="#bcbcbc" stroke-width="8" stroke-linecap="round" stroke-linejoin="round" /><polyline points="287.03,642.45 269.35,636.77 186.80,610.20 170.11,604.82 155.62,600.17 68.16,572.06 50.92,566.51 28.11,559.17 -111.12,514.37 -126.79,509.33" fill="none" stroke="#bcbcbc" stroke-width="8" stroke-linecap="round" stroke-linejoin="round" /><polyline points="632.23,-1028.84 680.25,-1013.88 855.86,-959.66 857.50,-959.15 870.52,-958.34" fill="none" stroke="#bcbcbc" stroke-width="8" stroke-linecap="round" stroke-linejoin="round" /><polyline points="1126.34,-1424.28 1365.22,-1420.08" fill="none" stroke="#bcbcbc" stroke-width="8" stroke-linecap="round" stroke-linejoin="round" /><polyline points="1009.37,674.20 975.22,633.62 960.90,616.96 948.59,605.46 932.20,593.22 898.69,573.12 866.28,562.46 800.32,542.09 746.38,524.97 777.48,477.51" fill="none" stroke="#bcbcbc" stroke-width="8" stroke-linecap="round" stroke-linejoin="round" /><polyline points="667.60,351.44 620.05,292.75 611.01,281.59 563.11,215.61 552.27,195.47 554.87,171.49 569.31,171.35 604.93,178.20 659.14,188.62" fill="none" stroke="#bcbcbc" stroke-width="8" stroke-linecap="round" stroke-linejoin="round" /><polyline points="45.57,-118.77 54.34,-99.90 104.42,3.18 178.88,156.45 188.38,176.00" fill="none" stroke="#bcbcbc" stroke-width="8" stroke-linecap="round" stroke-linejoin="round" /><polyline points="-756.50,348.12 -738.59,355.44 -654.70,389.73 -636.39,397.22 -617.12,405.10 -518.36,445.48 -500.50,452.79" fill="none" stroke="#bcbcbc" stroke-width="8" stroke-linecap="round" stroke-linejoin="round" /><polyline points="86.79,-271.60 261.56,-195.15" fill="none" stroke="#bcbcbc" stroke-width="8" stroke-linecap="round" stroke-linejoin="round" /><polyline points="870.52,-958.34 897.14,-956.94 898.83,-955.43 910.78,-944.84 928.34,-929.17 931.58,-922.86 992.08,-869.88 996.56,-861.43 1039.11,-823.88 1049.81,-820.62 1082.91,-791.64 1090.32,-788.25 1140.24,-745.91 1151.35,-736.06 1157.48,-726.30" fill="none" stroke="#bcbcbc" stroke-width="8" stroke-linecap="round" stroke-linejoin="round" /><polyline points="-805.83,-271.43 -532.86,-247.09" fill="none" stroke="#bcbcbc" stroke-width="8" stroke-linecap="round" stroke-linejoin="round" /><polyline points="-196.33,744.95 -187.87,726.94 -185.70,718.93 -173.84,675.23 -130.90,523.83 -126.79,509.33 -122.45,493.43 -103.00,422.30 -70.14,302.18 -62.57,274.49" fill="none" stroke="#bcbcbc" stroke-width="8" stroke-linecap="round" stroke-linejoin="round" /><polyline points="45.57,-118.77 86.79,-271.60 -0.60,-302.17 -23.48,-288.66 -33.91,-280.73 -41.63,-270.28 -47.06,-256.49 -67.16,-182.22 -50.95,-173.96 -34.57,-169.99 1.65,-160.56 28.76,-151.93 45.57,-118.77" fill="none" stroke="#bcbcbc" stroke-width="8" stroke-linecap="round" stroke-linejoin="round" /><polyline points="-67.16,-182.22 -86.30,-184.89 -532.86,-247.09" fill="none" stroke="#bcbcbc" stroke-width="8" stroke-linecap="round" stroke-linejoin="round" /><polyline points="659.14,188.62 700.56,197.67 812.58,233.27 843.90,243.18 918.24,264.65 993.14,286.24 1048.58,302.26 1137.26,327.86 1155.57,333.16 1200.32,348.16 1274.00,367.78 1280.49,368.99" fill="none" stroke="#bcbcbc" stroke-width="8" stroke-linecap="round" stroke-linejoin="round" /><polyline points="711.68,835.70 696.57,839.49 680.22,885.03 654.89,877.84 539.67,838.57 525.80,835.61 494.95,833.41 355.42,833.96 324.67,830.05 255.21,819.43 227.19,814.88 28.47,782.83 -48.49,770.55 -195.24,745.14 -218.94,740.44 -550.14,647.87 -571.03,642.02 -712.71,593.88 -747.57,581.51 -834.64,545.43 -884.26,526.66" fill="none" stroke="#bcbcbc" stroke-width="8" stroke-linecap="round" stroke-linejoin="round" /><polyline points="1015.21,-1612.89 1000.87,-1615.84 809.46,-1593.22 741.02,-1587.51" fill="none" stroke="#bcbcbc" stroke-width="8" stroke-linecap="round" stroke-linejoin="round" /><polyline points="659.14,188.62 665.85,177.40 706.02,74.25 750.90,-81.73 762.35,-115.33 768.47,-124.47 811.80,-263.55 813.96,-280.16 815.60,-291.01" fill="none" stroke="#bcbcbc" stroke-width="8" stroke-linecap="round" stroke-linejoin="round" /><polyline points="856.41,-1318.09 860.98,-1319.84 867.19,-1324.77 876.60,-1335.78 998.83,-1511.14 1031.38,-1557.52" fill="none" stroke="#bcbcbc" stroke-width="8" stroke-linecap="round" stroke-linejoin="round" /><polyline points="1400.40,-673.93 1402.90,-681.12 1464.34,-753.40 1468.84,-755.80 1479.52,-770.41 1515.26,-811.46 1526.38,-821.69" fill="none" stroke="#bcbcbc" stroke-width="8" stroke-linecap="round" stroke-linejoin="round" /><polyline points="1454.09,-137.57 1453.24,-147.24 1452.58,-154.72 1449.34,-169.03 1445.47,-178.36 1440.64,-202.87 1440.21,-211.75 1436.93,-231.59 1422.31,-239.23 1410.62,-234.76 1389.70,-229.75 1373.14,-227.16 1357.26,-223.33 1335.34,-218.34 1325.34,-216.05" fill="none" stroke="#bcbcbc" stroke-width="8" stroke-linecap="round" stroke-linejoin="round" /><polyline points="-160.08,-492.52 -115.40,-597.25 -112.92,-604.06" fill="none" stroke="#bcbcbc" stroke-width="8" stroke-linecap="round" stroke-linejoin="round" /><polyline points="1017.49,-684.57 1039.03,-692.91 1050.29,-697.27 1059.00,-706.09 1094.90,-714.94 1106.95,-711.87 1132.94,-718.56 1152.76,-723.67 1157.48,-726.30 1176.70,-731.01 1274.99,-755.09 1297.27,-761.75" fill="none" stroke="#bcbcbc" stroke-width="8" stroke-linecap="round" stroke-linejoin="round" /><polyline points="110.89,202.34 157.26,185.51 172.77,180.77 188.38,176.00 217.20,167.20 239.61,163.98 316.17,155.60 331.55,154.76 400.05,155.35 441.77,155.70 457.46,154.90 482.60,157.44 490.46,158.57 506.48,160.86 554.87,171.49" fill="none" stroke="#bcbcbc" stroke-width="8" stroke-linecap="round" stroke-linejoin="round" /><polyline points="331.80,-1174.02 324.12,-1199.99 295.59,-1296.44 260.94,-1406.42 253.78,-1426.05 246.52,-1444.46 237.34,-1470.97" fill="none" stroke="#bcbcbc" stroke-width="8" stroke-linecap="round" stroke-linejoin="round" /><polyline points="248.83,381.14 254.92,361.90 316.55,167.55 316.17,155.60" fill="none" stroke="#bcbcbc" stroke-width="8" stroke-linecap="round" stroke-linejoin="round" /><polyline points="331.55,154.76 343.75,-8.88 344.97,-22.22 346.84,-37.74 346.87,-38.45 347.67,-57.42 351.74,-108.93 354.04,-132.92 357.18,-160.18 360.04,-179.80 362.61,-192.12 365.84,-201.43 372.18,-222.42 385.27,-266.10 401.92,-322.50 420.28,-380.18 424.02,-391.94 427.02,-400.46" fill="none" stroke="#bcbcbc" stroke-width="8" stroke-linecap="round" stroke-linejoin="round" /><polyline points="-67.16,-182.22 -70.41,-167.72 -69.85,-163.08 -49.96,2.45 -47.85,19.98 -48.77,38.02 -53.98,140.98 -56.16,183.99 -57.28,206.18 -59.28,245.72 -60.32,266.32 -62.57,274.49" fill="none" stroke="#bcbcbc" stroke-width="8" stroke-linecap="round" stroke-linejoin="round" /><polyline points="-160.08,-492.52 -232.38,-514.01 -241.57,-519.90 -286.57,-533.01 -299.21,-532.87 -355.74,-549.91 -364.88,-556.64 -416.32,-572.24 -479.45,-589.44 -479.76,-589.47 -490.23,-590.36" fill="none" stroke="#bcbcbc" stroke-width="8" stroke-linecap="round" stroke-linejoin="round" /><polyline points="1157.48,-726.30 1159.99,-723.01 1170.48,-707.38 1189.86,-678.50 1208.10,-660.22 1243.17,-620.86 1237.24,-584.48 1234.23,-570.83 1230.05,-565.06 1238.84,-552.06 1252.44,-524.07 1279.63,-471.63 1293.02,-445.80 1301.34,-422.59 1305.10,-411.82" fill="none" stroke="#bcbcbc" stroke-width="8" stroke-linecap="round" stroke-linejoin="round" /><polyline points="1340.59,-651.37 1330.51,-648.24 1264.12,-627.58 1254.60,-624.53 1243.17,-620.86" fill="none" stroke="#bcbcbc" stroke-width="8" stroke-linecap="round" stroke-linejoin="round" /><polyline points="863.48,-525.62 884.24,-532.35 1034.94,-609.29 1055.11,-619.15 1126.14,-639.66 1195.01,-659.02 1208.10,-660.22" fill="none" stroke="#bcbcbc" stroke-width="8" stroke-linecap="round" stroke-linejoin="round" /><polyline points="879.90,-430.36 1053.64,-511.20 1060.95,-516.04 1077.94,-520.99 1193.71,-554.67 1211.27,-561.39 1230.05,-565.06" fill="none" stroke="#bcbcbc" stroke-width="8" stroke-linecap="round" stroke-linejoin="round" /><polyline points="844.45,-2125.17 914.78,-2116.48 921.84,-2115.61 949.11,-2108.91" fill="none" stroke="#bcbcbc" stroke-width="8" stroke-linecap="round" stroke-linejoin="round" /><polyline points="1445.45,-1410.22 1457.93,-1412.82 1504.53,-1389.98 1510.67,-1383.90 1598.15,-1235.84 1600.45,-1217.89 1611.83,-1208.41 1610.02,-1201.86 1609.74,-1191.19 1611.32,-1176.27 1634.49,-1081.05 1636.54,-1015.11 1639.78,-909.81 1645.23,-768.09 1623.04,-706.33 1608.75,-668.68 1587.88,-615.63 1581.84,-600.28 1577.92,-595.99 1571.61,-554.94" fill="none" stroke="#bcbcbc" stroke-width="8" stroke-linecap="round" stroke-linejoin="round" /><polyline points="1607.19,-304.82 1585.91,-314.08 1532.75,-351.18 1462.60,-400.46 1424.02,-431.66 1397.99,-459.53" fill="none" stroke="#bcbcbc" stroke-width="8" stroke-linecap="round" stroke-linejoin="round" /><polyline points="746.38,524.97 725.49,518.35 691.58,507.60 675.40,502.47 656.39,496.45 632.38,488.83 610.67,481.95 589.21,475.14 493.50,444.77 476.73,439.46 455.91,432.86 451.32,431.41 396.58,416.95 381.13,413.21 361.75,408.52 341.48,403.61 268.42,385.89 248.83,381.14 227.77,373.83 183.78,358.56 167.20,352.80 152.37,347.99 83.49,323.50 74.82,318.33 70.65,309.34" fill="none" stroke="#bcbcbc" stroke-width="8" stroke-linecap="round" stroke-linejoin="round" /><polyline points="1060.95,-516.04 1055.88,-534.23 1040.76,-588.44 1034.94,-609.29 1026.54,-624.87 1025.76,-627.77 1020.80,-646.12 1026.57,-654.25 1019.64,-677.38 1017.49,-684.57" fill="none" stroke="#bcbcbc" stroke-width="8" stroke-linecap="round" stroke-linejoin="round" /><polyline points="1035.67,-1179.48 1050.05,-1186.25 1128.58,-1229.55 1173.48,-1258.42 1205.15,-1280.02 1212.14,-1285.23 1237.63,-1302.94 1264.04,-1322.44 1280.76,-1334.61 1300.70,-1349.19 1369.99,-1380.45 1378.97,-1379.98 1392.11,-1386.19 1445.45,-1410.22" fill="none" stroke="#bcbcbc" stroke-width="8" stroke-linecap="round" stroke-linejoin="round" /><polyline points="165.10,-884.31 176.43,-879.71 183.92,-877.41 324.38,-834.27 345.83,-827.69" fill="none" stroke="#bcbcbc" stroke-width="8" stroke-linecap="round" stroke-linejoin="round" /><polyline points="-838.16,-568.47 -938.51,-598.84" fill="none" stroke="#bcbcbc" stroke-width="8" stroke-linecap="round" stroke-linejoin="round" /><polyline points="782.77,-1983.45 807.65,-1951.93 811.37,-1947.23 823.93,-1931.32 838.24,-1929.64 867.66,-1926.19 872.89,-1922.57" fill="none" stroke="#bcbcbc" stroke-width="8" stroke-linecap="round" stroke-linejoin="round" /><polyline points="1646.75,-581.69 1607.32,-574.34 1566.90,-552.38 1529.42,-531.52 1493.98,-513.80 1451.16,-490.54 1420.14,-471.71 1358.86,-438.86 1119.62,-318.51 1057.60,-291.19 1016.62,-273.47 996.31,-266.83 979.52,-263.69 952.01,-262.03 912.88,-267.56 815.23,-291.01 676.60,-323.31 494.22,-378.32 427.02,-400.46 317.01,-434.43 211.79,-469.13 57.46,-529.67 -19.70,-562.90 -112.73,-604.24 -267.05,-688.78 -303.23,-712.77 -394.79,-770.36 -433.19,-808.75 -490.78,-883.32 -585.66,-981.15 -622.95,-1014.00" fill="none" stroke="#bcbcbc" stroke-width="8" stroke-linecap="round" stroke-linejoin="round" /><polyline points="898.69,573.12 900.31,564.10 906.15,549.37 960.87,421.33 981.55,373.34 1005.91,313.53 1011.85,291.64" fill="none" stroke="#bcbcbc" stroke-width="8" stroke-linecap="round" stroke-linejoin="round" /><polyline points="-151.15,32.53 -213.31,2.45 -354.76,-66.01 -528.27,-149.97 -543.76,-157.46" fill="none" stroke="#bcbcbc" stroke-width="8" stroke-linecap="round" stroke-linejoin="round" /><polyline points="870.52,-958.34 886.21,-974.41 927.95,-1017.13 961.07,-1053.30" fill="none" stroke="#bcbcbc" stroke-width="8" stroke-linecap="round" stroke-linejoin="round" /><polyline points="-334.66,-863.16 -351.91,-885.99 -432.71,-992.97 -548.07,-1086.31" fill="none" stroke="#bcbcbc" stroke-width="8" stroke-linecap="round" stroke-linejoin="round" /><polyline points="-835.26,545.17 -819.48,507.77 -769.33,382.74 -763.25,366.32 -756.50,348.12 -753.94,341.55 -753.26,331.26 -746.84,234.06 -745.00,206.18" fill="none" stroke="#bcbcbc" stroke-width="8" stroke-linecap="round" stroke-linejoin="round" /><polyline points="-869.47,-459.89 -838.16,-568.47 -796.85,-711.70 -791.74,-729.43 -786.05,-749.57 -773.32,-794.66 -771.98,-799.40 -768.34,-813.90 -762.52,-830.29 -761.12,-834.26 -753.77,-852.46 -739.36,-884.25 -735.05,-893.38" fill="none" stroke="#bcbcbc" stroke-width="8" stroke-linecap="round" stroke-linejoin="round" /><polyline points="-791.74,-729.43 -728.38,-713.23 -594.18,-678.73 -517.72,-654.93 -485.83,-647.46" fill="none" stroke="#bcbcbc" stroke-width="8" stroke-linecap="round" stroke-linejoin="round" /><polyline points="512.37,-1222.13 514.52,-1235.31 516.69,-1249.00 525.98,-1294.79 549.20,-1401.36 568.28,-1496.69 571.76,-1516.47 576.50,-1543.32 576.50,-1543.35" fill="none" stroke="#bcbcbc" stroke-width="8" stroke-linecap="round" stroke-linejoin="round" /><polyline points="324.79,830.07 353.08,757.92 356.59,744.96 468.85,460.01 476.73,439.46 483.12,422.02 550.20,226.88 563.11,215.61" fill="none" stroke="#bcbcbc" stroke-width="8" stroke-linecap="round" stroke-linejoin="round" /><polyline points="709.59,-1277.29 709.58,-1277.32 705.61,-1298.19 704.98,-1300.72 695.29,-1340.16 695.29,-1340.28 688.68,-1367.02 660.67,-1463.02 657.14,-1473.30 638.22,-1524.72 632.07,-1540.07 628.10,-1549.98 622.96,-1561.22 622.95,-1561.24 622.94,-1561.29 619.19,-1602.64 618.83,-1622.93" fill="none" stroke="#bcbcbc" stroke-width="8" stroke-linecap="round" stroke-linejoin="round" /><polyline points="667.60,351.44 660.40,359.22 649.66,371.99 619.42,457.26 610.67,481.95" fill="none" stroke="#bcbcbc" stroke-width="8" stroke-linecap="round" stroke-linejoin="round" /><polyline points="165.10,-884.31 169.23,-895.50 170.17,-898.10 189.81,-952.96 197.17,-976.07 257.36,-1153.05" fill="none" stroke="#bcbcbc" stroke-width="8" stroke-linecap="round" stroke-linejoin="round" /><polyline points="476.48,-636.19 482.62,-652.50 499.26,-696.68 506.29,-715.36 511.05,-728.00 524.40,-763.45 533.22,-786.87 534.40,-790.02 555.76,-846.76 564.69,-843.99 569.53,-857.17 578.09,-880.47 576.45,-891.05 599.18,-952.91 601.51,-959.26 605.82,-963.23 609.44,-966.55 632.23,-1028.84 635.52,-1045.89 668.22,-1136.73 675.96,-1142.78 691.69,-1187.28 688.89,-1194.11 702.67,-1235.67 695.52,-1272.77" fill="none" stroke="#bcbcbc" stroke-width="8" stroke-linecap="round" stroke-linejoin="round" /><polyline points="1061.35,-2325.80 1052.19,-2340.83 1004.05,-2419.80" fill="none" stroke="#bcbcbc" stroke-width="8" stroke-linecap="round" stroke-linejoin="round" /><polyline points="1212.14,-1285.23 1433.07,-1143.17 1433.13,-1143.08 1433.13,-1143.05 1473.99,-1137.75" fill="none" stroke="#bcbcbc" stroke-width="8" stroke-linecap="round" stroke-linejoin="round" /><polyline points="1123.55,-1581.97 1358.61,-1463.99 1365.70,-1458.70 1365.22,-1420.08 1369.99,-1380.45" fill="none" stroke="#bcbcbc" stroke-width="8" stroke-linecap="round" stroke-linejoin="round" /><polyline points="675.40,502.47 666.94,528.26 632.69,632.71 574.44,808.60 570.31,821.08 566.12,833.72 564.95,847.19" fill="none" stroke="#bcbcbc" stroke-width="8" stroke-linecap="round" stroke-linejoin="round" /><polyline points="1337.12,-132.00 1338.53,-145.10 1338.83,-157.33 1338.73,-157.75 1330.40,-193.75 1326.99,-208.80 1325.34,-216.05 1323.66,-223.47 1314.51,-263.75 1296.65,-344.24 1283.67,-392.63 1281.83,-400.11" fill="none" stroke="#bcbcbc" stroke-width="8" stroke-linecap="round" stroke-linejoin="round" /><polyline points="170.11,604.82 175.94,588.27 241.39,402.26 248.83,381.14" fill="none" stroke="#bcbcbc" stroke-width="8" stroke-linecap="round" stroke-linejoin="round" /><polyline points="1639.78,-909.81 1620.53,-915.24 1489.75,-1115.91 1473.99,-1137.75" fill="none" stroke="#bcbcbc" stroke-width="8" stroke-linecap="round" stroke-linejoin="round" /><polyline points="-510.09,-428.35 -33.46,-314.17 -0.60,-302.17" fill="none" stroke="#bcbcbc" stroke-width="8" stroke-linecap="round" stroke-linejoin="round" /><polyline points="993.20,-2212.40 1178.86,-2143.63 1205.00,-2148.09" fill="none" stroke="#bcbcbc" stroke-width="8" stroke-linecap="round" stroke-linejoin="round" />
    <polyline points="167.20,352.80 174.50,336.67 175.22,335.07 187.71,293.18 208.17,224.22 213.41,206.58 217.48,192.87 218.03,184.88 217.20,167.20" fill="none" stroke="#ffffff" stroke-width="16" stroke-linecap="round" stroke-linejoin="round" />
    <polyline points="167.20,352.80 174.50,336.67 175.22,335.07 187.71,293.18 208.17,224.22 213.41,206.58 217.48,192.87 218.03,184.88 217.20,167.20" fill="none" stroke="#111111" stroke-width="9" stroke-linecap="round" stroke-linejoin="round" />
    
            <g transform="translate(167.20,352.80)">
              <circle r="19" fill="#ffffff" stroke="#111111" stroke-width="4" />
              <text text-anchor="middle" dominant-baseline="central" font-family="Helvetica, Arial, sans-serif"
                font-size="18" font-weight="700" fill="#111111">1</text>
            </g>
            
            <g transform="translate(217.20,167.20)">
              <circle r="19" fill="#ffffff" stroke="#111111" stroke-width="4" />
              <text text-anchor="middle" dominant-baseline="central" font-family="Helvetica, Arial, sans-serif"
                font-size="18" font-weight="700" fill="#111111">2</text>
            </g>
            
  </g>
</svg>
