<svg xmlns="http://www.w3.org/2000/svg" width="520" height="520" viewBox="0 0 520 520">
  <rect width="100%" height="100%" fill="#ffffff" />
  <g>
    <polyline points="892.74,-565.85 898.31,-536.24 934.24,-284.90 928.74,-222.06" fill="none" stroke="#bcbcbc" stroke-width="8" stroke-linecap="round" stroke-linejoin="round" /><polyline points="162.48,1528.63 171.17,1501.92 217.19,1360.38 222.62,1343.70 228.11,1326.19 343.83,957.14 353.14,927.46 331.82,874.96" fill="none" stroke="#bcbcbc" stroke-width="8" stroke-linecap="round" stroke-linejoin="round" /><polyline points="-636.89,1200.38 -638.76,1179.19 -600.92,967.28 -595.62,940.78 -591.65,926.89 -581.24,873.15 -569.54,807.38 -556.79,749.45 -544.14,691.65 -536.18,675.35 -530.97,665.37" fill="none" stroke="#bcbcbc" stroke-width="8" stroke-linecap="round" stroke-linejoin="round" /><polyline points="-417.28,-294.38 -426.27,-321.81 -519.25,-605.38 -523.79,-617.27" fill="none" stroke="#bcbcbc" stroke-width="8" stroke-linecap="round" stroke-linejoin="round" /><polyline points="-894.36,2201.37 -891.59,2174.31 -890.46,2161.89 -880.34,2049.93 -869.26,1951.35 -866.67,1928.32 -864.27,1900.71 -864.00,1898.38 -857.72,1843.47 -852.30,1787.67 -846.34,1733.80 -842.32,1691.87 -840.64,1665.99 -839.16,1642.10 -836.52,1615.17" fill="none" stroke="#bcbcbc" stroke-width="8" stroke-linecap="round" stroke-linejoin="round" /><polyline points="390.35,1594.42 396.97,1573.60 443.63,1426.93 448.93,1410.27 456.46,1386.53 461.86,1369.51 503.16,1191.41" fill="none" stroke="#bcbcbc" stroke-width="8" stroke-linecap="round" stroke-linejoin="round" /><polyline points="208.99,-1306.71 226.22,-1304.06 701.00,-1231.11" fill="none" stroke="#bcbcbc" stroke-width="8" stroke-linecap="round" stroke-linejoin="round" /><polyline points="-1009.86,1559.86 -1059.28,1557.56 -1089.41,1556.16 -1105.78,1555.40 -1120.15,1554.73 -1232.05,1549.52 -1387.70,1542.28 -1461.89,1531.77 -1486.72,1528.24 -1508.27,1524.44 -1654.18,1498.69 -1674.58,1495.09 -1679.10,1494.31 -1704.29,1489.99 -1723.65,1486.68 -1847.30,1475.75 -1870.85,1473.67 -1879.48,1472.90 -1906.22,1471.05 -1958.56,1467.42" fill="none" stroke="#bcbcbc" stroke-width="8" stroke-linecap="round" stroke-linejoin="round" /><polyline points="-291.92,1416.49 -282.34,1389.24 -196.09,1150.14 -92.33,848.55 -85.68,829.64 -81.05,816.42 -77.29,805.57" fill="none" stroke="#bcbcbc" stroke-width="8" stroke-linecap="round" stroke-linejoin="round" /><polyline points="-1879.48,1472.90 -1881.69,1457.53 -1882.21,1440.83 -1878.94,1407.21 -1871.42,1345.81 -1866.41,1325.20 -1858.28,1250.70 -1856.80,1234.10 -1854.42,1212.77 -1852.66,1196.93 -1849.32,1178.96 -1843.15,1130.64 -1838.85,1093.68 -1832.55,1078.55" fill="none" stroke="#bcbcbc" stroke-width="8" stroke-linecap="round" stroke-linejoin="round" /><polyline points="-1967.77,1059.66 -1852.72,1075.74 -1832.55,1078.55 -1820.06,1080.54 -1768.49,1088.76 -1649.67,1107.69 -1629.28,1111.09" fill="none" stroke="#bcbcbc" stroke-width="8" stroke-linecap="round" stroke-linejoin="round" /><polyline points="149.57,-449.62 150.32,-439.16 151.87,-428.57 155.60,-420.46 162.60,-411.42 175.54,-399.64 206.20,-380.99 442.75,-232.58 588.44,-37.25 698.48,234.32 705.66,252.26" fill="none" stroke="#bcbcbc" stroke-width="8" stroke-linecap="round" stroke-linejoin="round" /><polyline points="111.69,342.80 116.60,350.91 117.87,353.02 121.93,373.50 149.68,507.71 158.49,550.31 164.79,580.64 174.62,642.13 179.21,670.50 182.38,687.80 185.84,703.42 189.99,712.54 196.06,723.10 199.31,728.08 260.77,816.07 294.02,868.42 302.69,880.93" fill="none" stroke="#bcbcbc" stroke-width="8" stroke-linecap="round" stroke-linejoin="round" /><polyline points="-1652.77,2023.20 -1649.51,2003.06 -1646.47,1988.50 -1645.65,1986.57 -1604.74,1889.30 -1578.68,1826.08 -1570.76,1806.05 -1562.37,1784.83 -1553.25,1766.59 -1551.78,1763.02 -1539.31,1732.87 -1529.67,1706.20 -1521.39,1681.72 -1516.14,1664.42 -1510.25,1643.05 -1503.47,1614.39 -1498.32,1591.14 -1492.16,1558.69 -1490.87,1551.45 -1486.72,1528.24" fill="none" stroke="#bcbcbc" stroke-width="8" stroke-linecap="round" stroke-linejoin="round" /><polyline points="329.26,-693.19 459.70,-602.04 477.27,-598.31 490.13,-583.60" fill="none" stroke="#bcbcbc" stroke-width="8" stroke-linecap="round" stroke-linejoin="round" /><polyline points="-218.47,148.59 -201.23,155.22 -126.39,179.71 47.23,246.29 56.97,256.00 61.54,263.25" fill="none" stroke="#bcbcbc" stroke-width="8" stroke-linecap="round" stroke-linejoin="round" /><polyline points="105.05,1859.45 116.87,1828.64 175.23,1670.29 216.50,1550.65 225.06,1546.71" fill="none" stroke="#bcbcbc" stroke-width="8" stroke-linecap="round" stroke-linejoin="round" /><polyline points="-719.97,1658.67 -710.76,1638.31 -709.85,1636.29 -694.09,1583.44 -668.28,1496.43 -661.67,1474.17 -656.53,1456.87 -655.84,1446.79 -656.89,1424.48" fill="none" stroke="#bcbcbc" stroke-width="8" stroke-linecap="round" stroke-linejoin="round" /><polyline points="266.53,-1447.45 292.86,-1441.00 307.42,-1438.47 653.76,-1378.42" fill="none" stroke="#bcbcbc" stroke-width="8" stroke-linecap="round" stroke-linejoin="round" /><polyline points="-2.65,1763.02 11.75,1722.41 39.75,1643.47 57.84,1609.84 83.88,1536.95 94.27,1507.85" fill="none" stroke="#bcbcbc" stroke-width="8" stroke-linecap="round" stroke-linejoin="round" /><polyline points="-1900.29,186.56 -1925.38,185.41 -1931.66,193.05 -1975.37,246.15 -2128.13,422.61 -2149.62,447.43" fill="none" stroke="#bcbcbc" stroke-width="8" stroke-linecap="round" stroke-linejoin="round" /><polyline points="-560.34,337.70 -571.41,362.21 -572.75,365.19 -611.23,465.51 -650.01,575.94 -660.35,605.40 -666.21,620.60" fill="none" stroke="#bcbcbc" stroke-width="8" stroke-linecap="round" stroke-linejoin="round" /><polyline points="3.99,-789.56 16.21,-772.98 24.94,-750.17 38.52,-717.45 60.31,-665.97 79.62,-619.76 101.77,-569.02 118.21,-529.92 120.64,-524.31 120.79,-523.96 134.02,-493.03 137.97,-484.24 141.74,-475.87 145.71,-468.04 148.71,-460.07 149.57,-449.62" fill="none" stroke="#bcbcbc" stroke-width="8" stroke-linecap="round" stroke-linejoin="round" /><polyline points="-931.67,832.25 -925.27,828.75 -916.32,821.64 -911.84,812.41 -852.40,587.03 -850.61,574.32 -843.36,551.10" fill="none" stroke="#bcbcbc" stroke-width="8" stroke-linecap="round" stroke-linejoin="round" /><polyline points="1146.70,479.55 1155.14,506.31 1161.07,534.42 1149.52,641.55 1136.17,722.13 1128.87,749.62 1128.21,752.10 1121.82,766.94 1113.12,782.66 1092.78,808.39 1102.63,858.68 1070.77,966.61 1053.18,1026.23 1017.20,1123.81 964.50,1242.61 900.16,1356.46 880.07,1393.47 843.74,1454.26 698.59,1660.27 666.79,1703.12 543.64,1864.05 472.94,1944.49 374.05,2045.00 364.89,2045.95 342.56,2064.20" fill="none" stroke="#bcbcbc" stroke-width="8" stroke-linecap="round" stroke-linejoin="round" /><polyline points="-644.28,2241.70 -603.77,2116.04 -597.14,2095.29 -588.14,2082.22 -568.79,2024.14 -562.49,2004.42 -482.55,1754.15 -474.51,1728.98 -467.89,1706.86 -373.56,1409.98" fill="none" stroke="#bcbcbc" stroke-width="8" stroke-linecap="round" stroke-linejoin="round" /><polyline points="304.88,-95.26 339.91,-133.53 350.24,-145.99 421.01,-246.23" fill="none" stroke="#bcbcbc" stroke-width="8" stroke-linecap="round" stroke-linejoin="round" /><polyline points="-395.20,-80.10 -298.74,-46.52 -293.41,-37.86 -266.03,-28.68 -249.77,-23.12 -172.02,3.14" fill="none" stroke="#bcbcbc" stroke-width="8" stroke-linecap="round" stroke-linejoin="round" /><polyline points="445.52,-747.59 490.13,-583.60 541.78,-390.42 549.61,-374.32 550.85,-355.94 585.87,-290.55 680.39,-114.30 701.05,-83.82 707.03,-74.89 848.25,189.11 913.14,248.11 922.25,259.87 935.08,270.84 1058.31,376.20 1066.67,383.35 1088.80,395.10" fill="none" stroke="#bcbcbc" stroke-width="8" stroke-linecap="round" stroke-linejoin="round" /><polyline points="-33.72,2268.38 273.59,2089.86 328.30,2061.89 342.56,2064.20" fill="none" stroke="#bcbcbc" stroke-width="8" stroke-linecap="round" stroke-linejoin="round" /><polyline points="299.48,2013.00 318.54,1990.33 489.72,1648.78 501.06,1626.38 510.53,1604.21 565.82,1467.48 582.29,1426.28 629.95,1282.05 660.85,1096.62 664.51,1069.63" fill="none" stroke="#bcbcbc" stroke-width="8" stroke-linecap="round" stroke-linejoin="round" /><polyline points="167.37,4.31 164.38,7.38 160.25,21.75 159.84,23.19 141.26,94.72 146.14,113.39 142.09,130.13 136.78,152.05 123.19,167.79 107.76,230.28 89.59,244.01 70.19,257.32 61.54,263.25" fill="none" stroke="#bcbcbc" stroke-width="8" stroke-linecap="round" stroke-linejoin="round" /><polyline points="-560.34,337.70 -552.45,317.45 -504.95,195.71 -494.60,169.17 -486.07,147.30 -425.39,-8.16 -398.07,-73.16 -395.20,-80.10 -373.97,-131.43 -326.33,-249.71 -308.88,-300.07 -305.00,-311.62 -299.78,-324.71" fill="none" stroke="#bcbcbc" stroke-width="8" stroke-linecap="round" stroke-linejoin="round" /><polyline points="-28.94,-400.27 -19.76,-372.94 281.62,-115.50 446.08,27.58 691.72,241.11 713.15,258.26 722.76,264.27 765.38,302.96 822.30,351.51 951.42,461.60 993.12,497.46 1020.79,530.56" fill="none" stroke="#bcbcbc" stroke-width="8" stroke-linecap="round" stroke-linejoin="round" /><polyline points="469.36,-843.85 484.66,-853.65 575.21,-891.29 593.82,-910.87" fill="none" stroke="#bcbcbc" stroke-width="8" stroke-linecap="round" stroke-linejoin="round" /><polyline points="573.96,1447.12 448.93,1410.27 222.62,1343.70" fill="none" stroke="#bcbcbc" stroke-width="8" stroke-linecap="round" stroke-linejoin="round" /><polyline points="170.37,-1212.33 187.45,-1200.55 743.95,-1076.73" fill="none" stroke="#bcbcbc" stroke-width="8" stroke-linecap="round" stroke-linejoin="round" /><polyline points="857.78,619.95 829.02,555.95 765.19,403.73 760.43,391.63 749.52,363.84 708.38,259.15 705.78,252.36" fill="none" stroke="#bcbcbc" stroke-width="8" stroke-linecap="round" stroke-linejoin="round" /><polyline points="3.99,-789.56 -26.91,-798.35 -49.61,-805.11 -95.76,-818.81 -119.20,-825.50 -132.63,-829.23 -150.17,-834.25" fill="none" stroke="#bcbcbc" stroke-width="8" stroke-linecap="round" stroke-linejoin="round" /><polyline points="-801.59,47.70 -803.15,42.59 -804.59,39.01 -810.96,23.19 -835.63,-34.32 -859.07,-92.75 -864.13,-106.54 -869.96,-122.43 -874.14,-135.42 -881.03,-154.91 -881.75,-156.96 -904.18,-212.24 -945.36,-316.15 -954.61,-321.42 -961.18,-338.27 -974.32,-383.90 -996.82,-440.46 -1001.67,-453.31" fill="none" stroke="#bcbcbc" stroke-width="8" stroke-linecap="round" stroke-linejoin="round" /><polyline points="-603.77,2116.04 -580.39,2123.21 -504.72,2146.26 -481.03,2153.48" fill="none" stroke="#bcbcbc" stroke-width="8" stroke-linecap="round" stroke-linejoin="round" /><polyline points="809.17,-816.64 813.57,-834.47 811.78,-841.24 809.62,-849.41 795.81,-900.02 765.01,-1007.01 748.76,-1061.70 743.95,-1076.73 701.00,-1231.11 677.82,-1314.38 653.76,-1378.42 632.03,-1436.18 610.40,-1475.90 589.37,-1496.89 427.99,-1694.10 416.05,-1708.13 408.13,-1721.11" fill="none" stroke="#bcbcbc" stroke-width="8" stroke-linecap="round" stroke-linejoin="round" /><polyline points="149.57,-449.62 141.25,-446.44 125.86,-442.19 124.32,-441.76 60.05,-425.32 -13.86,-404.52 -28.94,-400.27 -35.66,-398.14 -53.42,-392.43 -68.59,-388.21 -134.87,-369.77 -243.86,-338.80 -284.49,-328.53 -299.78,-324.71 -372.41,-306.87 -417.28,-294.38 -512.30,-267.83 -606.21,-241.36 -617.08,-238.35 -695.57,-216.56 -731.77,-206.51 -750.05,-197.88 -784.66,-180.72 -853.39,-145.84 -858.18,-143.41 -874.14,-135.42 -883.87,-130.55 -897.45,-123.43 -945.74,-98.11 -1033.73,-48.75 -1107.22,-10.25 -1117.74,-4.74 -1131.78,-3.86 -1140.22,0.62 -1141.90,1.52 -1221.64,45.21 -1238.33,45.14 -1257.50,55.17 -1264.19,58.67 -1269.84,61.62 -1283.17,68.60 -1293.67,92.55 -1338.80,116.72 -1353.14,124.41 -1368.67,132.85 -1431.45,167.02 -1463.91,184.69 -1480.27,189.40" fill="none" stroke="#bcbcbc" stroke-width="8" stroke-linecap="round" stroke-linejoin="round" /><polyline points="1053.18,1026.23 1019.68,1029.30 915.02,1038.89 910.30,1039.32 903.63,1039.93 892.83,1040.93 791.36,1050.24 756.06,1046.97 714.97,1057.27 682.05,1065.34 664.51,1069.63 620.94,1071.29 583.23,1069.37 564.01,1067.33 547.65,1062.38 535.60,1055.72 490.73,1023.99 381.71,949.11 371.43,942.14 360.97,935.04 353.14,927.46" fill="none" stroke="#bcbcbc" stroke-width="8" stroke-linecap="round" stroke-linejoin="round" /><polyline points="-1416.08,-237.98 -1376.52,-160.53 -1370.53,-138.40 -1337.21,-74.81 -1323.45,-56.63 -1267.75,51.75 -1264.19,58.67" fill="none" stroke="#bcbcbc" stroke-width="8" stroke-linecap="round" stroke-linejoin="round" /><polyline points="-203.78,450.76 -209.70,467.05 -211.37,472.10 -219.09,495.53 -268.03,632.08 -292.33,699.89 -293.15,702.20 -302.91,723.28 -308.51,735.80" fill="none" stroke="#bcbcbc" stroke-width="8" stroke-linecap="round" stroke-linejoin="round" /><polyline points="445.52,-747.58 440.09,-759.20 425.83,-761.07 379.70,-750.49 370.32,-751.71 362.98,-761.55 349.93,-821.58 420.63,-832.53 453.36,-842.19 469.36,-843.85 486.60,-782.56" fill="none" stroke="#bcbcbc" stroke-width="8" stroke-linecap="round" stroke-linejoin="round" /><polyline points="701.05,-83.82 719.26,-94.04 810.74,-149.16 835.18,-163.72 877.98,-189.24 948.38,-234.76 964.80,-246.57 1088.29,-323.18" fill="none" stroke="#bcbcbc" stroke-width="8" stroke-linecap="round" stroke-linejoin="round" /><polyline points="1132.70,278.01 1101.48,268.71 1083.33,253.83 1013.97,193.81 1011.61,191.70 994.84,176.73 984.98,159.26 810.74,-149.16" fill="none" stroke="#bcbcbc" stroke-width="8" stroke-linecap="round" stroke-linejoin="round" /><polyline points="-833.73,253.58 -560.34,337.70 -538.04,344.77 -334.02,409.44 -329.76,410.79 -299.20,420.48 -284.17,425.25 -264.65,430.59 -224.37,444.23 -203.78,450.76 -185.24,456.64 -33.41,504.80 126.86,555.16 140.12,559.32 158.49,550.31" fill="none" stroke="#bcbcbc" stroke-width="8" stroke-linecap="round" stroke-linejoin="round" /><polyline points="-29.88,-1096.13 88.54,-1204.95 108.59,-1223.37" fill="none" stroke="#bcbcbc" stroke-width="8" stroke-linecap="round" stroke-linejoin="round" /><polyline points="-2012.94,659.70 -1578.40,706.27" fill="none" stroke="#bcbcbc" stroke-width="8" stroke-linecap="round" stroke-linejoin="round" /><polyline points="-702.06,-553.18 -610.73,-585.84 -516.52,-619.90 -457.99,-642.65 -279.27,-707.65 -227.40,-725.59 -216.57,-729.34 -203.58,-733.80 -189.00,-738.82 -187.21,-739.44 -157.77,-751.27 -144.97,-756.41" fill="none" stroke="#bcbcbc" stroke-width="8" stroke-linecap="round" stroke-linejoin="round" /><polyline points="-88.64,1656.95 -2.65,1763.02 49.99,1816.02 72.78,1832.43 105.05,1859.45 135.35,1884.90 161.38,1910.29 162.02,1923.21" fill="none" stroke="#bcbcbc" stroke-width="8" stroke-linecap="round" stroke-linejoin="round" /><polyline points="3.99,-789.56 37.69,-874.02 92.23,-1013.09 170.37,-1212.33 208.99,-1306.71 266.53,-1447.45 313.71,-1562.73 322.16,-1578.02 363.65,-1645.87 366.33,-1650.25 381.51,-1680.10 408.13,-1721.11 423.00,-1743.99 444.04,-1776.36" fill="none" stroke="#bcbcbc" stroke-width="8" stroke-linecap="round" stroke-linejoin="round" /><polyline points="-791.02,1468.83 -796.53,1473.24 -800.18,1478.50 -807.62,1500.41 -812.75,1516.24 -836.49,1587.23 -839.76,1597.47 -841.79,1603.83 -863.59,1597.58 -916.65,1579.79 -969.23,1562.16 -1009.86,1559.86" fill="none" stroke="#bcbcbc" stroke-width="8" stroke-linecap="round" stroke-linejoin="round" /><polyline points="-1830.11,1962.85 -1743.46,1739.08 -1733.82,1714.72 -1725.17,1691.25 -1714.72,1662.90 -1701.91,1618.30 -1688.55,1562.88 -1683.07,1523.16 -1679.10,1494.31 -1673.49,1473.02 -1653.10,1313.01 -1629.28,1111.09 -1616.95,1014.83 -1603.19,901.74 -1578.40,706.27 -1574.47,673.04 -1549.41,468.61 -1549.40,457.23 -1543.86,396.57 -1527.88,268.45 -1523.87,246.10 -1519.70,233.57 -1513.16,219.76 -1506.81,209.05 -1492.78,193.86 -1480.24,189.56" fill="none" stroke="#bcbcbc" stroke-width="8" stroke-linecap="round" stroke-linejoin="round" /><polyline points="61.54,263.25 66.28,270.76 82.17,295.57 105.96,333.70 111.69,342.80 121.18,335.59 167.20,300.66" fill="none" stroke="#bcbcbc" stroke-width="8" stroke-linecap="round" stroke-linejoin="round" /><polyline points="92.23,-1013.09 560.41,-928.45 609.58,-902.57 793.01,-811.64 809.17,-816.64" fill="none" stroke="#bcbcbc" stroke-width="8" stroke-linecap="round" stroke-linejoin="round" /><polyline points="-801.59,47.70 -809.89,59.82 -884.58,96.27 -939.44,166.00 -998.64,202.65 -1039.13,233.22 -1077.75,264.73 -1097.55,282.78 -1132.53,327.15 -1171.65,383.22 -1178.09,393.60" fill="none" stroke="#bcbcbc" stroke-width="8" stroke-linecap="round" stroke-linejoin="round" /><polyline points="-722.62,97.72 -725.85,104.92 -732.94,115.27 -746.32,131.74 -825.22,231.41 -866.96,343.84 -1077.66,264.64" fill="none" stroke="#bcbcbc" stroke-width="8" stroke-linecap="round" stroke-linejoin="round" /><polyline points="-1039.13,233.22 -1047.28,208.52 -1082.54,101.78 -1096.22,80.69 -1119.14,11.95 -1121.11,6.02 -1117.74,-4.74 -1123.22,-22.26 -1233.39,-374.01" fill="none" stroke="#bcbcbc" stroke-width="8" stroke-linecap="round" stroke-linejoin="round" /><polyline points="251.75,-1686.08 338.81,-1683.79 342.88,-1683.67 359.56,-1683.19 381.51,-1680.10" fill="none" stroke="#bcbcbc" stroke-width="8" stroke-linecap="round" stroke-linejoin="round" /><polyline points="-196.09,1150.14 -225.81,1149.78 -477.54,1183.57 -495.68,1185.48 -516.43,1187.67 -636.89,1200.38 -799.18,1217.52 -885.21,1226.60 -932.81,1231.62 -971.45,1236.32 -991.29,1238.73 -1013.64,1241.45 -1121.61,1254.57 -1147.49,1257.71 -1227.22,1266.43 -1653.10,1313.01" fill="none" stroke="#bcbcbc" stroke-width="8" stroke-linecap="round" stroke-linejoin="round" /><polyline points="-568.79,2024.14 -591.09,2016.97 -695.24,1983.44 -716.29,1976.66 -734.57,1970.79 -844.92,1935.32 -866.67,1928.32 -895.46,1919.06 -1071.12,1862.53 -1090.89,1856.17" fill="none" stroke="#bcbcbc" stroke-width="8" stroke-linecap="round" stroke-linejoin="round" /><polyline points="-133.26,-84.65 -72.68,-65.77 148.87,2.64 150.94,3.28 167.37,4.31" fill="none" stroke="#bcbcbc" stroke-width="8" stroke-linecap="round" stroke-linejoin="round" /><polyline points="490.13,-583.60 791.51,-578.30" fill="none" stroke="#bcbcbc" stroke-width="8" stroke-linecap="round" stroke-linejoin="round" /><polyline points="342.56,2064.20 299.48,2013.00 281.40,1991.97 265.87,1977.46 245.19,1962.02 202.92,1936.66 162.02,1923.21 78.81,1897.51 10.75,1875.91 49.99,1816.02" fill="none" stroke="#bcbcbc" stroke-width="8" stroke-linecap="round" stroke-linejoin="round" /><polyline points="-88.64,1656.95 -148.63,1582.90 -160.04,1568.81 -220.47,1485.57 -234.14,1460.15 -230.86,1429.89 -212.64,1429.71 -167.70,1438.36 -99.31,1451.51" fill="none" stroke="#bcbcbc" stroke-width="8" stroke-linecap="round" stroke-linejoin="round" /><polyline points="-873.42,1063.66 -862.36,1087.46 -799.18,1217.52 -705.23,1410.92 -693.25,1435.58" fill="none" stroke="#bcbcbc" stroke-width="8" stroke-linecap="round" stroke-linejoin="round" /><polyline points="-1885.36,1652.76 -1862.76,1662.00 -1756.92,1705.27 -1733.82,1714.72 -1709.51,1724.66 -1584.91,1775.61 -1562.37,1784.83" fill="none" stroke="#bcbcbc" stroke-width="8" stroke-linecap="round" stroke-linejoin="round" /><polyline points="-821.42,870.81 -600.92,967.28" fill="none" stroke="#bcbcbc" stroke-width="8" stroke-linecap="round" stroke-linejoin="round" /><polyline points="167.37,4.31 200.96,6.08 203.10,7.98 218.17,21.35 240.32,41.12 244.41,49.07 320.75,115.92 326.39,126.59 380.07,173.96 393.58,178.09 435.34,214.65 444.69,218.93 507.67,272.35 521.69,284.78 529.42,297.09" fill="none" stroke="#bcbcbc" stroke-width="8" stroke-linecap="round" stroke-linejoin="round" /><polyline points="-1947.59,871.03 -1603.19,901.74" fill="none" stroke="#bcbcbc" stroke-width="8" stroke-linecap="round" stroke-linejoin="round" /><polyline points="-1178.62,2153.47 -1167.95,2130.75 -1165.20,2120.64 -1150.25,2065.50 -1096.07,1874.46 -1090.89,1856.17 -1085.40,1836.11 -1060.86,1746.36 -1019.41,1594.79 -1009.86,1559.86" fill="none" stroke="#bcbcbc" stroke-width="8" stroke-linecap="round" stroke-linejoin="round" /><polyline points="-873.42,1063.66 -821.42,870.81 -931.67,832.25 -960.53,849.29 -973.69,859.30 -983.44,872.48 -990.29,889.88 -1015.65,983.60 -995.20,994.01 -974.53,999.03 -928.83,1010.92 -894.63,1021.81 -873.42,1063.66" fill="none" stroke="#bcbcbc" stroke-width="8" stroke-linecap="round" stroke-linejoin="round" /><polyline points="-1015.65,983.60 -1039.80,980.23 -1603.19,901.74" fill="none" stroke="#bcbcbc" stroke-width="8" stroke-linecap="round" stroke-linejoin="round" /><polyline points="-99.31,1451.51 -47.06,1462.93 94.27,1507.85 133.79,1520.35 227.59,1547.44 322.08,1574.69 392.02,1594.90 503.90,1627.20 527.01,1633.88 583.47,1652.81 676.42,1677.57 684.62,1679.10" fill="none" stroke="#bcbcbc" stroke-width="8" stroke-linecap="round" stroke-linejoin="round" /><polyline points="-33.02,2267.98 -52.09,2272.76 -72.71,2330.22 -104.68,2321.14 -250.04,2271.60 -267.54,2267.87 -306.46,2265.08 -482.50,2265.78 -521.30,2260.84 -608.94,2247.44 -644.28,2241.70 -895.00,2201.27 -992.09,2185.78 -1177.24,2153.71 -1207.14,2147.78 -1625.00,2030.98 -1651.36,2023.60 -1830.11,1962.85 -1874.09,1947.25 -1983.93,1901.72 -2046.55,1878.04" fill="none" stroke="#bcbcbc" stroke-width="8" stroke-linecap="round" stroke-linejoin="round" /><polyline points="349.93,-821.58 331.84,-825.31 90.33,-796.76 3.99,-789.56" fill="none" stroke="#bcbcbc" stroke-width="8" stroke-linecap="round" stroke-linejoin="round" /><polyline points="-99.31,1451.51 -90.85,1437.35 -40.17,1307.20 16.45,1110.39 30.90,1068.00 38.62,1056.46 93.30,880.98 96.01,860.02 98.08,846.33" fill="none" stroke="#bcbcbc" stroke-width="8" stroke-linecap="round" stroke-linejoin="round" /><polyline points="149.57,-449.62 155.34,-451.82 163.17,-458.04 175.05,-471.93 329.26,-693.19 370.32,-751.71" fill="none" stroke="#bcbcbc" stroke-width="8" stroke-linecap="round" stroke-linejoin="round" /><polyline points="835.89,363.17 839.05,354.09 916.56,262.90 922.25,259.87 935.72,241.44 980.81,189.64 994.84,176.73" fill="none" stroke="#bcbcbc" stroke-width="8" stroke-linecap="round" stroke-linejoin="round" /><polyline points="903.63,1039.93 902.56,1027.73 901.73,1018.29 897.65,1000.24 892.76,988.46 886.67,957.54 886.12,946.34 881.99,921.30 863.54,911.66 848.80,917.30 822.40,923.62 801.51,926.89 781.48,931.72 753.81,938.03 741.20,940.90" fill="none" stroke="#bcbcbc" stroke-width="8" stroke-linecap="round" stroke-linejoin="round" /><polyline points="-1132.89,592.07 -1076.51,459.92 -1073.38,451.33" fill="none" stroke="#bcbcbc" stroke-width="8" stroke-linecap="round" stroke-linejoin="round" /><polyline points="352.80,349.75 379.97,339.22 394.18,333.72 405.17,322.60 450.46,311.43 465.66,315.30 498.45,306.86 523.46,300.41 529.42,297.09 553.67,291.15 677.68,260.77 705.78,252.36" fill="none" stroke="#bcbcbc" stroke-width="8" stroke-linecap="round" stroke-linejoin="round" /><polyline points="-791.01,1468.83 -732.52,1447.58 -712.95,1441.60 -693.25,1435.58 -656.89,1424.48 -628.61,1420.41 -532.03,1409.85 -512.62,1408.79 -426.20,1409.53 -373.56,1409.98 -353.76,1408.96 -322.05,1412.17 -312.13,1413.59 -291.92,1416.49 -230.86,1429.89" fill="none" stroke="#bcbcbc" stroke-width="8" stroke-linecap="round" stroke-linejoin="round" /><polyline points="-512.30,-267.83 -521.99,-300.60 -557.98,-422.30 -601.70,-561.07 -610.73,-585.84 -619.90,-609.06 -631.48,-642.51" fill="none" stroke="#bcbcbc" stroke-width="8" stroke-linecap="round" stroke-linejoin="round" /><polyline points="-616.99,1694.42 -609.30,1670.14 -531.54,1424.93 -532.03,1409.85" fill="none" stroke="#bcbcbc" stroke-width="8" stroke-linecap="round" stroke-linejoin="round" /><polyline points="-512.62,1408.79 -497.22,1202.32 -495.68,1185.48 -493.33,1165.89 -493.29,1165.01 -492.28,1141.06 -487.14,1076.07 -484.24,1045.79 -480.28,1011.41 -476.67,986.65 -473.43,971.10 -469.35,959.36 -461.36,932.88 -444.84,877.76 -423.84,806.59 -400.68,733.82 -395.96,718.98 -392.16,708.22" fill="none" stroke="#bcbcbc" stroke-width="8" stroke-linecap="round" stroke-linejoin="round" /><polyline points="-1015.65,983.60 -1019.74,1001.89 -1019.04,1007.74 -993.95,1216.61 -991.29,1238.73 -992.45,1261.49 -999.02,1391.39 -1001.76,1445.67 -1003.18,1473.66 -1005.70,1523.56 -1007.02,1549.54 -1009.86,1559.86" fill="none" stroke="#bcbcbc" stroke-width="8" stroke-linecap="round" stroke-linejoin="round" /><polyline points="-1132.89,592.07 -1224.10,564.96 -1235.69,557.52 -1292.46,540.98 -1308.41,541.15 -1379.74,519.66 -1391.27,511.16 -1456.17,491.49 -1535.81,469.78 -1536.20,469.74 -1549.41,468.61" fill="none" stroke="#bcbcbc" stroke-width="8" stroke-linecap="round" stroke-linejoin="round" /><polyline points="529.42,297.09 532.59,301.25 545.81,320.96 570.27,357.41 593.28,380.47 637.53,430.14 630.05,476.04 626.26,493.25 620.98,500.53 632.07,516.95 649.23,552.26 683.53,618.43 700.42,651.02 710.92,680.30 715.66,693.90" fill="none" stroke="#bcbcbc" stroke-width="8" stroke-linecap="round" stroke-linejoin="round" /><polyline points="760.44,391.63 747.72,395.59 663.96,421.65 651.94,425.51 637.53,430.14" fill="none" stroke="#bcbcbc" stroke-width="8" stroke-linecap="round" stroke-linejoin="round" /><polyline points="158.49,550.31 184.69,541.81 374.82,444.73 400.27,432.29 489.88,406.41 576.77,381.98 593.28,380.47" fill="none" stroke="#bcbcbc" stroke-width="8" stroke-linecap="round" stroke-linejoin="round" /><polyline points="179.21,670.50 398.41,568.49 407.63,562.39 429.07,556.15 575.13,513.65 597.29,505.17 620.98,500.53" fill="none" stroke="#bcbcbc" stroke-width="8" stroke-linecap="round" stroke-linejoin="round" /><polyline points="134.48,-1467.96 223.21,-1456.99 232.13,-1455.89 266.53,-1447.45" fill="none" stroke="#bcbcbc" stroke-width="8" stroke-linecap="round" stroke-linejoin="round" /><polyline points="892.74,-565.85 908.48,-569.14 967.27,-540.32 975.02,-532.65 1085.38,-345.83 1088.29,-323.18 1102.64,-311.22 1100.36,-302.96 1100.01,-289.49 1102.01,-270.66 1131.23,-150.53 1133.82,-67.32 1137.92,65.54 1144.79,244.37 1116.80,322.29 1098.76,369.79 1072.44,436.74 1064.81,456.10 1059.86,461.51 1051.91,513.31" fill="none" stroke="#bcbcbc" stroke-width="8" stroke-linecap="round" stroke-linejoin="round" /><polyline points="1096.80,828.90 1069.95,817.22 1002.87,770.41 914.37,708.22 865.70,668.86 832.86,633.69" fill="none" stroke="#bcbcbc" stroke-width="8" stroke-linecap="round" stroke-linejoin="round" /><polyline points="10.75,1875.91 -15.61,1867.55 -58.38,1853.99 -78.80,1847.52 -102.78,1839.92 -133.08,1830.31 -160.47,1821.62 -187.54,1813.03 -308.30,1774.72 -329.44,1768.01 -355.71,1759.69 -361.51,1757.85 -430.57,1739.61 -450.07,1734.89 -474.51,1728.98 -500.09,1722.77 -592.26,1700.42 -616.99,1694.42 -643.55,1685.20 -699.05,1665.93 -719.97,1658.67 -738.68,1652.59 -825.58,1621.69 -836.52,1615.17 -841.79,1603.83" fill="none" stroke="#bcbcbc" stroke-width="8" stroke-linecap="round" stroke-linejoin="round" /><polyline points="407.63,562.39 401.24,539.44 382.16,471.04 374.82,444.73 364.22,425.07 363.23,421.42 356.98,398.26 364.26,388.00 355.51,358.81 352.80,349.75" fill="none" stroke="#bcbcbc" stroke-width="8" stroke-linecap="round" stroke-linejoin="round" /><polyline points="375.74,-274.72 393.87,-283.26 492.96,-337.89 549.61,-374.32 589.56,-401.57 598.38,-408.14 630.53,-430.49 663.86,-455.10 684.95,-470.46 710.11,-488.85 797.53,-528.30 808.86,-527.70 825.43,-535.54 892.74,-565.85" fill="none" stroke="#bcbcbc" stroke-width="8" stroke-linecap="round" stroke-linejoin="round" /><polyline points="-722.62,97.72 -708.32,103.52 -698.87,106.42 -521.67,160.85 -494.60,169.17" fill="none" stroke="#bcbcbc" stroke-width="8" stroke-linecap="round" stroke-linejoin="round" /><polyline points="-1988.38,496.23 -2114.99,457.91" fill="none" stroke="#bcbcbc" stroke-width="8" stroke-linecap="round" stroke-linejoin="round" /><polyline points="56.67,-1289.14 88.06,-1249.38 92.74,-1243.44 108.59,-1223.37 126.65,-1221.25 163.77,-1216.89 170.37,-1212.33" fill="none" stroke="#bcbcbc" stroke-width="8" stroke-linecap="round" stroke-linejoin="round" /><polyline points="1146.70,479.55 1096.96,488.83 1045.96,516.54 998.68,542.86 953.97,565.22 899.93,594.56 860.81,618.32 783.49,659.78 481.66,811.63 403.40,846.10 351.70,868.46 326.08,876.84 304.89,880.80 270.19,882.90 220.81,875.91 97.61,846.33 -77.29,805.57 -307.39,736.17 -392.16,708.22 -530.97,665.37 -663.72,621.58 -858.42,545.19 -955.77,503.27 -1073.14,451.10 -1267.85,344.43 -1313.49,314.16 -1429.01,241.49 -1477.45,193.05 -1550.11,98.96 -1669.82,-24.47 -1716.87,-65.92" fill="none" stroke="#bcbcbc" stroke-width="8" stroke-linecap="round" stroke-linejoin="round" /><polyline points="202.92,1936.66 204.96,1925.28 212.32,1906.69 281.37,1745.14 307.45,1684.58 338.19,1609.11 345.68,1581.50" fill="none" stroke="#bcbcbc" stroke-width="8" stroke-linecap="round" stroke-linejoin="round" /><polyline points="-1121.61,1254.57 -1200.04,1216.61 -1378.50,1130.23 -1597.41,1024.29 -1616.95,1014.83" fill="none" stroke="#bcbcbc" stroke-width="8" stroke-linecap="round" stroke-linejoin="round" /><polyline points="167.37,4.31 187.18,-15.97 239.83,-69.87 281.62,-115.50" fill="none" stroke="#bcbcbc" stroke-width="8" stroke-linecap="round" stroke-linejoin="round" /><polyline points="-1353.14,124.41 -1374.90,95.60 -1476.85,-39.39 -1622.38,-157.16" fill="none" stroke="#bcbcbc" stroke-width="8" stroke-linecap="round" stroke-linejoin="round" /><polyline points="-1984.72,1901.40 -1964.81,1854.20 -1901.54,1696.44 -1893.87,1675.73 -1885.36,1652.76 -1882.13,1644.47 -1881.27,1631.49 -1873.17,1508.85 -1870.85,1473.67" fill="none" stroke="#bcbcbc" stroke-width="8" stroke-linecap="round" stroke-linejoin="round" /><polyline points="-2027.89,633.24 -1988.38,496.23 -1936.27,315.52 -1929.81,293.15 -1922.64,267.74 -1906.58,210.84 -1904.89,204.86 -1900.29,186.56 -1892.95,165.88 -1891.18,160.87 -1881.91,137.91 -1863.73,97.79 -1858.29,86.27" fill="none" stroke="#bcbcbc" stroke-width="8" stroke-linecap="round" stroke-linejoin="round" /><polyline points="-1929.81,293.15 -1849.88,313.59 -1680.57,357.11 -1584.10,387.14 -1543.86,396.57" fill="none" stroke="#bcbcbc" stroke-width="8" stroke-linecap="round" stroke-linejoin="round" /><polyline points="-284.49,-328.53 -281.77,-345.17 -279.04,-362.44 -267.31,-420.21 -238.01,-554.68 -213.95,-674.96 -209.55,-699.92 -203.58,-733.80 -203.57,-733.84" fill="none" stroke="#bcbcbc" stroke-width="8" stroke-linecap="round" stroke-linejoin="round" /><polyline points="-521.15,2260.87 -485.46,2169.84 -481.03,2153.48 -339.39,1793.95 -329.44,1768.01 -321.39,1746.01 -236.76,1499.79 -220.46,1485.57" fill="none" stroke="#bcbcbc" stroke-width="8" stroke-linecap="round" stroke-linejoin="round" /><polyline points="-35.66,-398.14 -35.67,-398.17 -40.69,-424.50 -41.47,-427.69 -53.71,-477.45 -53.70,-477.61 -62.04,-511.35 -97.38,-632.47 -101.84,-645.45 -125.71,-710.33 -133.46,-729.70 -138.47,-742.20 -144.96,-756.39 -144.97,-756.41 -144.98,-756.47 -149.71,-808.64 -150.17,-834.25" fill="none" stroke="#bcbcbc" stroke-width="8" stroke-linecap="round" stroke-linejoin="round" /><polyline points="-88.64,1656.95 -97.73,1666.77 -111.27,1682.88 -149.42,1790.47 -160.47,1821.62" fill="none" stroke="#bcbcbc" stroke-width="8" stroke-linecap="round" stroke-linejoin="round" /><polyline points="-722.62,97.72 -717.40,83.60 -716.23,80.32 -691.45,11.10 -682.16,-18.05 -606.21,-241.36" fill="none" stroke="#bcbcbc" stroke-width="8" stroke-linecap="round" stroke-linejoin="round" /><polyline points="-329.76,410.79 -322.01,390.21 -301.03,334.47 -292.16,310.90 -286.15,294.95 -269.31,250.21 -258.19,220.66 -256.69,216.69 -229.74,145.10 -218.47,148.59 -212.37,131.97 -201.57,102.57 -203.64,89.21 -174.96,11.16 -172.02,3.14 -166.58,-1.85 -162.02,-6.05 -133.26,-84.65 -129.11,-106.16 -87.85,-220.78 -78.10,-228.41 -58.25,-284.56 -61.78,-293.17 -44.40,-345.61 -53.42,-392.43" fill="none" stroke="#bcbcbc" stroke-width="8" stroke-linecap="round" stroke-linejoin="round" /><polyline points="408.13,-1721.11 396.58,-1740.07 335.84,-1839.71" fill="none" stroke="#bcbcbc" stroke-width="8" stroke-linecap="round" stroke-linejoin="round" /><polyline points="598.38,-408.14 877.11,-228.91 877.19,-228.79 877.19,-228.75 928.74,-222.06" fill="none" stroke="#bcbcbc" stroke-width="8" stroke-linecap="round" stroke-linejoin="round" /><polyline points="486.60,-782.56 783.17,-633.70 792.12,-627.03 791.51,-578.30 797.53,-528.30" fill="none" stroke="#bcbcbc" stroke-width="8" stroke-linecap="round" stroke-linejoin="round" /><polyline points="-78.80,1847.52 -89.47,1880.06 -132.68,2011.84 -206.17,2233.78 -211.39,2249.53 -216.67,2265.48 -218.15,2282.47" fill="none" stroke="#bcbcbc" stroke-width="8" stroke-linecap="round" stroke-linejoin="round" /><polyline points="756.06,1046.97 757.84,1030.43 758.22,1015.01 758.10,1014.47 747.58,969.04 743.28,950.06 741.20,940.90 739.07,931.55 727.54,880.72 705.00,779.17 688.63,718.11 686.30,708.67" fill="none" stroke="#bcbcbc" stroke-width="8" stroke-linecap="round" stroke-linejoin="round" /><polyline points="-716.29,1976.66 -708.94,1955.77 -626.36,1721.07 -616.99,1694.42" fill="none" stroke="#bcbcbc" stroke-width="8" stroke-linecap="round" stroke-linejoin="round" /><polyline points="1137.92,65.54 1113.62,58.69 948.62,-194.50 928.74,-222.06" fill="none" stroke="#bcbcbc" stroke-width="8" stroke-linecap="round" stroke-linejoin="round" /><polyline points="-1574.47,673.04 -973.13,817.10 -931.67,832.25" fill="none" stroke="#bcbcbc" stroke-width="8" stroke-linecap="round" stroke-linejoin="round" /><polyline points="322.16,-1578.02 556.40,-1491.25 589.37,-1496.89" fill="none" stroke="#bcbcbc" stroke-width="8" stroke-linecap="round" stroke-linejoin="round" />
    <polyline points="352.80,349.75 338.00,352.80 304.47,346.83 299.28,333.00 241.18,310.85 227.44,314.44 175.02,295.20 167.20,300.66" fill="none" stroke="#ffffff" stroke-width="16" stroke-linecap="round" stroke-linejoin="round" />
    <polyline points="352.80,349.75 338.00,352.80 304.47,346.83 299.28,333.00 241.18,310.85 227.44,314.44 175.02,295.20 167.20,300.66" fill="none" stroke="#111111" stroke-width="9" stroke-linecap="round" stroke-linejoin="round" />
    
            <g transform="translate(352.80,349.75)">
              <circle r="19" fill="#ffffff" stroke="#111111" stroke-width="4" />
              <text text-anchor="middle" dominant-baseline="central" font-family="Helvetica, Arial, sans-serif"
                font-size="18" font-weight="700" fill="#111111">1</text>
            </g>
            
            <g transform="translate(167.20,300.66)">
              <circle r="19" fill="#ffffff" stroke="#111111" stroke-width="4" />
              <text text-anchor="middle" dominant-baseline="central" font-family="Helvetica, Arial, sans-serif"
                font-size="18" font-weight="700" fill="#111111">2</text>
            </g>
            
  </g>
</svg>
