<svg xmlns="http://www.w3.org/2000/svg" width="520" height="520" viewBox="0 0 520 520">
  <rect width="100%" height="100%" fill="#ffffff" />
  <g>
    <polyline points="467.34,742.32 470.01,756.51 487.23,876.99 484.60,907.12" fill="none" stroke="#bcbcbc" stroke-width="8" stroke-linecap="round" stroke-linejoin="round" /><polyline points="117.33,1746.34 121.49,1733.53 143.55,1665.68 146.15,1657.69 148.78,1649.29 204.25,1472.39 208.71,1458.16 198.50,1432.99" fill="none" stroke="#bcbcbc" stroke-width="8" stroke-linecap="round" stroke-linejoin="round" /><polyline points="-265.81,1588.99 -266.70,1578.83 -248.57,1477.25 -246.03,1464.54 -244.13,1457.89 -239.14,1432.12 -233.53,1400.59 -227.41,1372.83 -221.35,1345.12 -217.54,1337.31 -215.04,1332.52" fill="none" stroke="#bcbcbc" stroke-width="8" stroke-linecap="round" stroke-linejoin="round" /><polyline points="-160.55,872.45 -164.86,859.30 -209.43,723.37 -211.60,717.67" fill="none" stroke="#bcbcbc" stroke-width="8" stroke-linecap="round" stroke-linejoin="round" /><polyline points="-389.22,2068.83 -387.89,2055.85 -387.35,2049.90 -382.49,1996.23 -377.18,1948.97 -375.94,1937.94 -374.79,1924.70 -374.66,1923.59 -371.65,1897.26 -369.06,1870.51 -366.20,1844.69 -364.27,1824.59 -363.47,1812.19 -362.76,1800.73 -361.49,1787.82" fill="none" stroke="#bcbcbc" stroke-width="8" stroke-linecap="round" stroke-linejoin="round" /><polyline points="226.55,1777.88 229.72,1767.90 252.08,1697.59 254.62,1689.60 258.24,1678.22 260.82,1670.06 280.62,1584.69" fill="none" stroke="#bcbcbc" stroke-width="8" stroke-linecap="round" stroke-linejoin="round" /><polyline points="139.62,387.17 147.88,388.44 375.44,423.41" fill="none" stroke="#bcbcbc" stroke-width="8" stroke-linecap="round" stroke-linejoin="round" /><polyline points="-444.57,1761.31 -468.26,1760.21 -482.70,1759.53 -490.55,1759.17 -497.43,1758.85 -551.07,1756.35 -625.67,1752.88 -661.23,1747.84 -673.13,1746.15 -683.46,1744.33 -753.40,1731.98 -763.17,1730.26 -765.34,1729.89 -777.41,1727.82 -786.69,1726.23 -845.96,1720.99 -857.24,1719.99 -861.38,1719.62 -874.20,1718.73 -899.28,1717.00" fill="none" stroke="#bcbcbc" stroke-width="8" stroke-linecap="round" stroke-linejoin="round" /><polyline points="-100.46,1692.58 -95.87,1679.52 -54.53,1564.90 -4.80,1420.33 -1.61,1411.26 0.61,1404.93 2.41,1399.73" fill="none" stroke="#bcbcbc" stroke-width="8" stroke-linecap="round" stroke-linejoin="round" /><polyline points="-861.38,1719.62 -862.44,1712.25 -862.69,1704.25 -861.12,1688.13 -857.52,1658.70 -855.12,1648.82 -851.22,1613.11 -850.51,1605.15 -849.37,1594.93 -848.52,1587.33 -846.93,1578.72 -843.97,1555.56 -841.91,1537.84 -838.89,1530.59" fill="none" stroke="#bcbcbc" stroke-width="8" stroke-linecap="round" stroke-linejoin="round" /><polyline points="-903.70,1521.53 -848.55,1529.24 -838.89,1530.59 -832.90,1531.54 -808.18,1535.48 -751.23,1544.56 -741.46,1546.19" fill="none" stroke="#bcbcbc" stroke-width="8" stroke-linecap="round" stroke-linejoin="round" /><polyline points="111.14,798.03 111.50,803.05 112.24,808.12 114.03,812.01 117.39,816.35 123.59,821.99 138.28,830.93 251.66,902.08 321.49,995.71 374.23,1125.89 377.67,1134.49" fill="none" stroke="#bcbcbc" stroke-width="8" stroke-linecap="round" stroke-linejoin="round" /><polyline points="92.99,1177.89 95.34,1181.78 95.95,1182.79 97.89,1192.61 111.20,1256.94 115.42,1277.36 118.44,1291.91 123.15,1321.38 125.35,1334.98 126.87,1343.27 128.53,1350.76 130.51,1355.13 133.42,1360.19 134.98,1362.58 164.44,1404.76 180.37,1429.86 184.53,1435.86" fill="none" stroke="#bcbcbc" stroke-width="8" stroke-linecap="round" stroke-linejoin="round" /><polyline points="-752.72,1983.42 -751.16,1973.77 -749.70,1966.78 -749.31,1965.86 -729.70,1919.23 -717.21,1888.92 -713.41,1879.32 -709.39,1869.15 -705.02,1860.41 -704.32,1858.70 -698.34,1844.25 -693.72,1831.46 -689.75,1819.72 -687.23,1811.43 -684.41,1801.19 -681.16,1787.45 -678.69,1776.30 -675.74,1760.75 -675.12,1757.28 -673.13,1746.15" fill="none" stroke="#bcbcbc" stroke-width="8" stroke-linecap="round" stroke-linejoin="round" /><polyline points="197.26,681.27 259.78,724.97 268.21,726.76 274.37,733.81" fill="none" stroke="#bcbcbc" stroke-width="8" stroke-linecap="round" stroke-linejoin="round" /><polyline points="-65.26,1084.80 -57.00,1087.97 -21.12,1099.71 62.09,1131.63 66.76,1136.28 68.95,1139.76" fill="none" stroke="#bcbcbc" stroke-width="8" stroke-linecap="round" stroke-linejoin="round" /><polyline points="89.80,1904.92 95.47,1890.15 123.44,1814.25 143.22,1756.90 147.32,1755.01" fill="none" stroke="#bcbcbc" stroke-width="8" stroke-linecap="round" stroke-linejoin="round" /><polyline points="-305.63,1808.67 -301.21,1798.91 -300.78,1797.95 -293.23,1772.61 -280.85,1730.90 -277.69,1720.23 -275.22,1711.94 -274.89,1707.11 -275.40,1696.41" fill="none" stroke="#bcbcbc" stroke-width="8" stroke-linecap="round" stroke-linejoin="round" /><polyline points="208.55,1181.22 201.46,1182.69 185.38,1179.83 182.90,1173.19 155.05,1162.58 148.46,1164.30 123.34,1155.07 119.59,1157.69" fill="none" stroke="#bcbcbc" stroke-width="8" stroke-linecap="round" stroke-linejoin="round" /><polyline points="38.18,1858.70 45.09,1839.23 58.50,1801.39 67.18,1785.27 79.65,1750.33 84.64,1736.38" fill="none" stroke="#bcbcbc" stroke-width="8" stroke-linecap="round" stroke-linejoin="round" /><polyline points="-871.36,1103.00 -883.38,1102.45 -886.39,1106.11 -907.34,1131.56 -980.56,1216.15 -990.86,1228.05" fill="none" stroke="#bcbcbc" stroke-width="8" stroke-linecap="round" stroke-linejoin="round" /><polyline points="-229.12,1175.45 -234.43,1187.20 -235.07,1188.62 -253.51,1236.71 -272.10,1289.65 -277.05,1303.77 -279.86,1311.06" fill="none" stroke="#bcbcbc" stroke-width="8" stroke-linecap="round" stroke-linejoin="round" /><polyline points="41.36,635.08 47.22,643.03 51.41,653.96 57.91,669.65 68.36,694.32 77.61,716.47 88.23,740.80 96.11,759.54 97.28,762.23 97.35,762.40 103.69,777.22 105.58,781.44 107.39,785.45 109.29,789.21 110.73,793.03 111.14,798.04" fill="none" stroke="#bcbcbc" stroke-width="8" stroke-linecap="round" stroke-linejoin="round" /><polyline points="-407.10,1412.52 -404.03,1410.84 -399.74,1407.43 -397.59,1403.01 -369.10,1294.97 -368.24,1288.87 -364.77,1277.74" fill="none" stroke="#bcbcbc" stroke-width="8" stroke-linecap="round" stroke-linejoin="round" /><polyline points="589.07,1243.45 593.11,1256.27 595.95,1269.75 590.42,1321.10 584.02,1359.73 580.52,1372.91 580.20,1374.10 577.14,1381.21 572.97,1388.75 563.22,1401.08 567.94,1425.18 552.67,1476.93 544.24,1505.50 527.00,1552.28 501.74,1609.23 470.90,1663.81 461.27,1681.55 443.86,1710.69 374.29,1809.44 359.04,1829.98 300.02,1907.13 266.13,1945.69 218.73,1993.87 214.35,1994.32 203.64,2003.07" fill="none" stroke="#bcbcbc" stroke-width="8" stroke-linecap="round" stroke-linejoin="round" /><polyline points="-269.35,2088.16 -249.93,2027.92 -246.76,2017.98 -242.44,2011.71 -233.17,1983.87 -230.15,1974.41 -191.84,1854.44 -187.98,1842.38 -184.81,1831.77 -139.59,1689.46" fill="none" stroke="#bcbcbc" stroke-width="8" stroke-linecap="round" stroke-linejoin="round" /><polyline points="185.58,967.90 202.37,949.55 207.32,943.59 241.24,895.53" fill="none" stroke="#bcbcbc" stroke-width="8" stroke-linecap="round" stroke-linejoin="round" /><polyline points="-149.97,975.17 -103.74,991.27 -101.18,995.42 -88.05,999.82 -80.26,1002.48 -43.00,1015.07" fill="none" stroke="#bcbcbc" stroke-width="8" stroke-linecap="round" stroke-linejoin="round" /><polyline points="252.99,655.20 274.37,733.81 299.13,826.41 302.88,834.13 303.48,842.94 320.26,874.29 365.56,958.78 375.46,973.39 378.33,977.67 446.02,1104.22 477.12,1132.50 481.49,1138.14 487.64,1143.40 546.70,1193.91 550.71,1197.33 561.31,1202.96" fill="none" stroke="#bcbcbc" stroke-width="8" stroke-linecap="round" stroke-linejoin="round" /><polyline points="23.29,2100.95 170.59,2015.37 196.80,2001.97 203.64,2003.07" fill="none" stroke="#bcbcbc" stroke-width="8" stroke-linecap="round" stroke-linejoin="round" /><polyline points="182.99,1978.53 192.13,1967.66 274.18,1803.93 279.61,1793.20 284.15,1782.57 310.65,1717.02 318.54,1697.28 341.38,1628.14 356.20,1539.25 357.95,1526.31" fill="none" stroke="#bcbcbc" stroke-width="8" stroke-linecap="round" stroke-linejoin="round" /><polyline points="119.67,1015.63 118.24,1017.11 116.26,1023.99 116.06,1024.68 107.16,1058.97 109.50,1067.92 107.55,1075.95 105.01,1086.45 98.50,1094.00 91.10,1123.95 82.39,1130.54 73.09,1136.91 68.95,1139.76" fill="none" stroke="#bcbcbc" stroke-width="8" stroke-linecap="round" stroke-linejoin="round" /><polyline points="-229.12,1175.45 -225.33,1165.74 -202.57,1107.38 -197.61,1094.66 -193.52,1084.18 -164.44,1009.65 -151.34,978.49 -149.97,975.17 -139.79,950.56 -116.96,893.86 -108.59,869.72 -106.73,864.19 -104.23,857.91" fill="none" stroke="#bcbcbc" stroke-width="8" stroke-linecap="round" stroke-linejoin="round" /><polyline points="25.58,821.69 29.98,834.79 174.43,958.20 253.26,1026.79 370.99,1129.15 381.27,1137.37 385.87,1140.25 406.30,1158.79 433.58,1182.07 495.46,1234.84 515.45,1252.03 528.72,1267.90" fill="none" stroke="#bcbcbc" stroke-width="8" stroke-linecap="round" stroke-linejoin="round" /><polyline points="264.42,609.05 271.75,604.35 315.15,586.31 324.07,576.93" fill="none" stroke="#bcbcbc" stroke-width="8" stroke-linecap="round" stroke-linejoin="round" /><polyline points="314.55,1707.26 254.62,1689.60 146.15,1657.69" fill="none" stroke="#bcbcbc" stroke-width="8" stroke-linecap="round" stroke-linejoin="round" /><polyline points="121.11,432.42 129.30,438.06 396.03,497.42" fill="none" stroke="#bcbcbc" stroke-width="8" stroke-linecap="round" stroke-linejoin="round" /><polyline points="450.58,1310.75 436.80,1280.07 406.21,1207.10 403.93,1201.30 398.69,1187.98 378.98,1137.79 377.73,1134.54" fill="none" stroke="#bcbcbc" stroke-width="8" stroke-linecap="round" stroke-linejoin="round" /><polyline points="41.36,635.08 26.55,630.86 15.67,627.62 -6.44,621.06 -17.68,617.85 -24.12,616.06 -32.52,613.65" fill="none" stroke="#bcbcbc" stroke-width="8" stroke-linecap="round" stroke-linejoin="round" /><polyline points="-344.75,1036.43 -345.50,1033.98 -346.19,1032.27 -349.24,1024.68 -361.06,997.11 -372.30,969.11 -374.73,962.49 -377.52,954.88 -379.52,948.65 -382.82,939.31 -383.17,938.32 -393.92,911.82 -413.66,862.02 -418.09,859.49 -421.24,851.41 -427.54,829.54 -438.32,802.43 -440.65,796.26" fill="none" stroke="#bcbcbc" stroke-width="8" stroke-linecap="round" stroke-linejoin="round" /><polyline points="-249.93,2027.92 -238.73,2031.36 -202.46,2042.41 -191.10,2045.87" fill="none" stroke="#bcbcbc" stroke-width="8" stroke-linecap="round" stroke-linejoin="round" /><polyline points="427.29,622.10 429.40,613.55 428.54,610.30 427.50,606.39 420.88,582.13 406.12,530.84 398.33,504.62 396.03,497.42 375.44,423.41 364.33,383.50 352.80,352.80 342.39,325.11 332.02,306.07 321.94,296.01 244.59,201.48 238.86,194.75 235.07,188.53" fill="none" stroke="#bcbcbc" stroke-width="8" stroke-linecap="round" stroke-linejoin="round" /><polyline points="111.14,798.04 107.15,799.56 99.78,801.60 99.04,801.80 68.23,809.68 32.81,819.65 25.58,821.69 22.36,822.71 13.85,825.45 6.57,827.47 -25.19,836.31 -77.43,851.16 -96.90,856.08 -104.23,857.91 -139.05,866.46 -160.55,872.45 -206.09,885.18 -251.11,897.86 -256.31,899.31 -293.93,909.75 -311.29,914.57 -320.05,918.71 -336.64,926.94 -369.58,943.66 -371.87,944.82 -379.52,948.65 -384.19,950.98 -390.70,954.40 -413.84,966.53 -456.01,990.20 -491.24,1008.65 -496.28,1011.30 -503.01,1011.72 -507.05,1013.86 -507.86,1014.29 -546.08,1035.24 -554.08,1035.20 -563.27,1040.01 -566.47,1041.69 -569.18,1043.11 -575.57,1046.45 -580.60,1057.93 -602.23,1069.52 -609.11,1073.20 -616.55,1077.25 -646.64,1093.63 -662.20,1102.10 -670.04,1104.36" fill="none" stroke="#bcbcbc" stroke-width="8" stroke-linecap="round" stroke-linejoin="round" /><polyline points="544.24,1505.50 528.18,1506.98 478.02,1511.57 475.76,1511.78 472.56,1512.07 467.38,1512.55 418.75,1517.01 401.83,1515.45 382.13,1520.38 366.36,1524.25 357.95,1526.31 337.07,1527.10 319.00,1526.18 309.78,1525.21 301.94,1522.83 296.17,1519.64 274.66,1504.43 222.40,1468.53 217.48,1465.19 212.46,1461.79 208.71,1458.16" fill="none" stroke="#bcbcbc" stroke-width="8" stroke-linecap="round" stroke-linejoin="round" /><polyline points="-639.27,899.49 -620.31,936.61 -617.44,947.22 -601.47,977.70 -594.87,986.42 -568.18,1038.37 -566.47,1041.69" fill="none" stroke="#bcbcbc" stroke-width="8" stroke-linecap="round" stroke-linejoin="round" /><polyline points="-58.22,1229.65 -61.06,1237.45 -61.86,1239.88 -65.56,1251.11 -89.02,1316.56 -100.66,1349.07 -101.06,1350.18 -105.73,1360.28 -108.42,1366.28" fill="none" stroke="#bcbcbc" stroke-width="8" stroke-linecap="round" stroke-linejoin="round" /><polyline points="252.99,655.20 250.39,649.63 243.55,648.73 221.44,653.81 216.95,653.22 213.43,648.50 207.17,619.73 241.06,614.48 256.75,609.85 264.42,609.05 272.68,638.43" fill="none" stroke="#bcbcbc" stroke-width="8" stroke-linecap="round" stroke-linejoin="round" /><polyline points="375.46,973.39 384.19,968.48 428.04,942.06 439.75,935.08 460.27,922.85 494.01,901.03 501.88,895.37 561.07,858.65" fill="none" stroke="#bcbcbc" stroke-width="8" stroke-linecap="round" stroke-linejoin="round" /><polyline points="582.36,1146.84 567.39,1142.38 558.69,1135.24 525.45,1106.47 524.32,1105.46 516.28,1098.29 511.55,1089.91 428.04,942.06" fill="none" stroke="#bcbcbc" stroke-width="8" stroke-linecap="round" stroke-linejoin="round" /><polyline points="-360.15,1135.12 -229.12,1175.45 -218.43,1178.84 -120.65,1209.84 -118.60,1210.48 -103.95,1215.13 -96.75,1217.42 -87.39,1219.98 -68.09,1226.51 -58.22,1229.65 -49.33,1232.46 23.44,1255.55 100.26,1279.69 106.61,1281.69 115.42,1277.36" fill="none" stroke="#bcbcbc" stroke-width="8" stroke-linecap="round" stroke-linejoin="round" /><polyline points="25.13,488.12 81.89,435.96 91.50,427.13" fill="none" stroke="#bcbcbc" stroke-width="8" stroke-linecap="round" stroke-linejoin="round" /><polyline points="-925.35,1329.80 -717.07,1352.13" fill="none" stroke="#bcbcbc" stroke-width="8" stroke-linecap="round" stroke-linejoin="round" /><polyline points="-297.05,748.39 -253.27,732.74 -208.12,716.41 -180.06,705.50 -94.40,674.34 -69.54,665.74 -64.35,663.95 -58.12,661.81 -51.13,659.40 -50.28,659.11 -36.17,653.43 -30.03,650.97" fill="none" stroke="#bcbcbc" stroke-width="8" stroke-linecap="round" stroke-linejoin="round" /><polyline points="-3.03,1807.85 38.18,1858.70 63.41,1884.10 74.33,1891.97 89.80,1904.92 104.32,1917.12 116.80,1929.29 117.11,1935.49" fill="none" stroke="#bcbcbc" stroke-width="8" stroke-linecap="round" stroke-linejoin="round" /><polyline points="41.36,635.08 57.52,594.59 83.66,527.93 121.11,432.42 139.62,387.17 167.20,319.71 189.82,264.45 193.86,257.12 213.75,224.59 215.04,222.49 222.31,208.18 235.07,188.53 242.20,177.56 252.28,162.04" fill="none" stroke="#bcbcbc" stroke-width="8" stroke-linecap="round" stroke-linejoin="round" /><polyline points="-339.68,1717.67 -342.33,1719.79 -344.07,1722.31 -347.64,1732.81 -350.10,1740.40 -361.48,1774.43 -363.04,1779.34 -364.02,1782.39 -374.46,1779.39 -399.90,1770.86 -425.10,1762.41 -444.57,1761.31" fill="none" stroke="#bcbcbc" stroke-width="8" stroke-linecap="round" stroke-linejoin="round" /><polyline points="-837.72,1954.49 -796.19,1847.22 -791.57,1835.54 -787.42,1824.29 -782.41,1810.70 -776.27,1789.32 -769.87,1762.76 -767.24,1743.72 -765.34,1729.89 -762.65,1719.68 -752.88,1642.98 -741.46,1546.19 -735.55,1500.04 -728.96,1445.83 -717.07,1352.13 -715.19,1336.20 -703.18,1238.20 -703.17,1232.74 -700.52,1203.67 -692.86,1142.25 -690.94,1131.54 -688.94,1125.53 -685.80,1118.91 -682.76,1113.78 -676.04,1106.50 -670.03,1104.43" fill="none" stroke="#bcbcbc" stroke-width="8" stroke-linecap="round" stroke-linejoin="round" /><polyline points="68.95,1139.76 71.22,1143.36 78.84,1155.25 90.24,1173.53 92.99,1177.89 97.53,1174.44 119.59,1157.69" fill="none" stroke="#bcbcbc" stroke-width="8" stroke-linecap="round" stroke-linejoin="round" /><polyline points="83.66,527.93 308.06,568.50 331.62,580.90 419.54,624.49 427.29,622.10" fill="none" stroke="#bcbcbc" stroke-width="8" stroke-linecap="round" stroke-linejoin="round" /><polyline points="-344.75,1036.43 -348.73,1042.24 -384.53,1059.72 -410.82,1093.14 -439.20,1110.71 -458.60,1125.36 -477.11,1140.47 -486.60,1149.12 -503.37,1170.39 -522.12,1197.27 -525.21,1202.25" fill="none" stroke="#bcbcbc" stroke-width="8" stroke-linecap="round" stroke-linejoin="round" /><polyline points="-306.90,1060.41 -308.45,1063.86 -311.85,1068.82 -318.26,1076.72 -356.08,1124.49 -376.08,1178.39 -477.07,1140.43" fill="none" stroke="#bcbcbc" stroke-width="8" stroke-linecap="round" stroke-linejoin="round" /><polyline points="-458.60,1125.36 -462.51,1113.52 -479.41,1062.35 -485.97,1052.24 -496.95,1019.30 -497.90,1016.45 -496.28,1011.30 -498.91,1002.90 -551.71,834.28" fill="none" stroke="#bcbcbc" stroke-width="8" stroke-linecap="round" stroke-linejoin="round" /><polyline points="160.11,205.32 201.85,206.42 203.79,206.47 211.79,206.70 222.31,208.18" fill="none" stroke="#bcbcbc" stroke-width="8" stroke-linecap="round" stroke-linejoin="round" /><polyline points="-54.53,1564.90 -68.78,1564.73 -189.43,1580.93 -198.13,1581.84 -208.07,1582.89 -265.81,1588.99 -343.59,1597.20 -384.83,1601.55 -407.64,1603.96 -426.16,1606.21 -435.67,1607.37 -446.39,1608.67 -498.14,1614.96 -510.54,1616.47 -548.76,1620.65 -752.88,1642.98" fill="none" stroke="#bcbcbc" stroke-width="8" stroke-linecap="round" stroke-linejoin="round" /><polyline points="-233.17,1983.87 -243.85,1980.43 -293.78,1964.36 -303.87,1961.11 -312.63,1958.29 -365.52,1941.29 -375.94,1937.94 -389.74,1933.50 -473.93,1906.40 -483.41,1903.35" fill="none" stroke="#bcbcbc" stroke-width="8" stroke-linecap="round" stroke-linejoin="round" /><polyline points="-24.42,972.99 4.62,982.04 110.81,1014.83 111.80,1015.14 119.67,1015.63" fill="none" stroke="#bcbcbc" stroke-width="8" stroke-linecap="round" stroke-linejoin="round" /><polyline points="274.37,733.81 418.82,736.35" fill="none" stroke="#bcbcbc" stroke-width="8" stroke-linecap="round" stroke-linejoin="round" /><polyline points="203.64,2003.07 182.99,1978.53 174.33,1968.45 166.88,1961.49 156.97,1954.09 136.71,1941.93 117.11,1935.49 77.23,1923.17 44.61,1912.81 63.41,1884.10" fill="none" stroke="#bcbcbc" stroke-width="8" stroke-linecap="round" stroke-linejoin="round" /><polyline points="-3.03,1807.85 -31.79,1772.35 -37.25,1765.60 -66.22,1725.70 -72.77,1713.51 -71.20,1699.01 -62.47,1698.92 -40.93,1703.07 -8.15,1709.37" fill="none" stroke="#bcbcbc" stroke-width="8" stroke-linecap="round" stroke-linejoin="round" /><polyline points="-379.18,1523.45 -373.87,1534.86 -343.59,1597.20 -298.56,1689.91 -292.82,1701.73" fill="none" stroke="#bcbcbc" stroke-width="8" stroke-linecap="round" stroke-linejoin="round" /><polyline points="-864.20,1805.84 -853.37,1810.27 -802.64,1831.01 -791.57,1835.54 -779.91,1840.31 -720.19,1864.73 -709.39,1869.15" fill="none" stroke="#bcbcbc" stroke-width="8" stroke-linecap="round" stroke-linejoin="round" /><polyline points="-354.25,1431.00 -248.57,1477.25" fill="none" stroke="#bcbcbc" stroke-width="8" stroke-linecap="round" stroke-linejoin="round" /><polyline points="119.67,1015.63 135.77,1016.48 136.80,1017.39 144.02,1023.80 154.64,1033.28 156.60,1037.09 193.19,1069.14 195.89,1074.25 221.62,1096.96 228.09,1098.93 248.11,1116.46 252.59,1118.51 282.78,1144.12 289.50,1150.08 293.20,1155.98" fill="none" stroke="#bcbcbc" stroke-width="8" stroke-linecap="round" stroke-linejoin="round" /><polyline points="-894.03,1431.11 -728.96,1445.83" fill="none" stroke="#bcbcbc" stroke-width="8" stroke-linecap="round" stroke-linejoin="round" /><polyline points="-525.46,2045.86 -520.34,2034.97 -519.03,2030.13 -511.86,2003.69 -485.89,1912.12 -483.41,1903.35 -480.78,1893.74 -469.02,1850.71 -449.15,1778.05 -444.57,1761.31" fill="none" stroke="#bcbcbc" stroke-width="8" stroke-linecap="round" stroke-linejoin="round" /><polyline points="-379.18,1523.45 -354.25,1431.00 -407.10,1412.52 -420.93,1420.69 -427.24,1425.48 -431.91,1431.80 -435.19,1440.14 -447.35,1485.07 -437.54,1490.06 -427.64,1492.46 -405.74,1498.17 -389.35,1503.39 -379.18,1523.45" fill="none" stroke="#bcbcbc" stroke-width="8" stroke-linecap="round" stroke-linejoin="round" /><polyline points="-447.35,1485.07 -458.92,1483.45 -728.96,1445.83" fill="none" stroke="#bcbcbc" stroke-width="8" stroke-linecap="round" stroke-linejoin="round" /><polyline points="-8.15,1709.37 16.90,1714.85 84.64,1736.38 103.58,1742.37 148.53,1755.36 193.82,1768.42 227.35,1778.11 280.97,1793.59 292.05,1796.79 319.11,1805.86 363.66,1817.73 367.59,1818.47" fill="none" stroke="#bcbcbc" stroke-width="8" stroke-linecap="round" stroke-linejoin="round" /><polyline points="23.62,2100.76 14.48,2103.05 4.60,2130.59 -10.72,2126.24 -80.39,2102.49 -88.78,2100.70 -107.43,2099.37 -191.81,2099.70 -210.41,2097.34 -252.41,2090.91 -269.35,2088.16 -389.52,2068.78 -436.05,2061.35 -524.80,2045.98 -539.13,2043.14 -739.41,1987.15 -752.04,1983.61 -837.72,1954.49 -858.80,1947.01 -911.45,1925.19 -941.46,1913.83" fill="none" stroke="#bcbcbc" stroke-width="8" stroke-linecap="round" stroke-linejoin="round" /><polyline points="207.17,619.73 198.50,617.94 82.75,631.63 41.36,635.08" fill="none" stroke="#bcbcbc" stroke-width="8" stroke-linecap="round" stroke-linejoin="round" /><polyline points="-8.15,1709.37 -4.09,1702.58 20.20,1640.19 47.34,1545.85 54.26,1525.53 57.96,1520.00 84.17,1435.88 85.47,1425.83 86.46,1419.27" fill="none" stroke="#bcbcbc" stroke-width="8" stroke-linecap="round" stroke-linejoin="round" /><polyline points="111.14,798.04 113.91,796.98 117.66,794.00 123.35,787.34 197.26,681.27 216.95,653.22" fill="none" stroke="#bcbcbc" stroke-width="8" stroke-linecap="round" stroke-linejoin="round" /><polyline points="440.09,1187.66 441.61,1183.31 478.76,1139.59 481.49,1138.14 487.94,1129.30 509.55,1104.47 516.28,1098.29" fill="none" stroke="#bcbcbc" stroke-width="8" stroke-linecap="round" stroke-linejoin="round" /><polyline points="472.56,1512.07 472.05,1506.22 471.65,1501.70 469.69,1493.05 467.35,1487.40 464.43,1472.58 464.17,1467.21 462.19,1455.21 453.35,1450.58 446.28,1453.29 433.63,1456.32 423.62,1457.88 414.01,1460.20 400.75,1463.22 394.71,1464.60" fill="none" stroke="#bcbcbc" stroke-width="8" stroke-linecap="round" stroke-linejoin="round" /><polyline points="-503.54,1297.38 -476.52,1234.04 -475.02,1229.92" fill="none" stroke="#bcbcbc" stroke-width="8" stroke-linecap="round" stroke-linejoin="round" /><polyline points="208.55,1181.22 221.57,1176.18 228.38,1173.54 233.65,1168.21 255.36,1162.85 262.64,1164.71 278.36,1160.66 290.35,1157.57 293.20,1155.98 304.83,1153.13 364.26,1138.57 377.73,1134.54" fill="none" stroke="#bcbcbc" stroke-width="8" stroke-linecap="round" stroke-linejoin="round" /><polyline points="-339.68,1717.67 -311.64,1707.49 -302.26,1704.62 -292.82,1701.73 -275.40,1696.41 -261.84,1694.46 -215.55,1689.40 -206.25,1688.89 -164.82,1689.24 -139.59,1689.46 -130.10,1688.97 -114.90,1690.51 -110.15,1691.19 -100.46,1692.58 -71.20,1699.01" fill="none" stroke="#bcbcbc" stroke-width="8" stroke-linecap="round" stroke-linejoin="round" /><polyline points="-206.09,885.18 -210.74,869.47 -227.99,811.13 -248.94,744.61 -253.27,732.74 -257.66,721.61 -263.22,705.57" fill="none" stroke="#bcbcbc" stroke-width="8" stroke-linecap="round" stroke-linejoin="round" /><polyline points="-256.27,1825.81 -252.59,1814.17 -215.31,1696.63 -215.55,1689.40" fill="none" stroke="#bcbcbc" stroke-width="8" stroke-linecap="round" stroke-linejoin="round" /><polyline points="-206.25,1688.89 -198.87,1589.91 -198.13,1581.84 -197.00,1572.45 -196.98,1572.03 -196.50,1560.55 -194.03,1529.39 -192.64,1514.88 -190.75,1498.40 -189.01,1486.53 -187.46,1479.08 -185.51,1473.45 -181.68,1460.75 -173.76,1434.33 -163.69,1400.22 -152.59,1365.33 -150.33,1358.22 -148.51,1353.06" fill="none" stroke="#bcbcbc" stroke-width="8" stroke-linecap="round" stroke-linejoin="round" /><polyline points="-447.35,1485.07 -449.31,1493.84 -448.97,1496.64 -436.95,1596.77 -435.67,1607.37 -436.23,1618.28 -439.38,1680.55 -440.69,1706.57 -441.37,1719.99 -442.58,1743.91 -443.21,1756.36 -444.57,1761.31" fill="none" stroke="#bcbcbc" stroke-width="8" stroke-linecap="round" stroke-linejoin="round" /><polyline points="-503.54,1297.38 -547.26,1284.39 -552.82,1280.82 -580.02,1272.89 -587.67,1272.97 -621.86,1262.67 -627.38,1258.60 -658.49,1249.17 -696.66,1238.76 -696.85,1238.74 -703.18,1238.20" fill="none" stroke="#bcbcbc" stroke-width="8" stroke-linecap="round" stroke-linejoin="round" /><polyline points="293.20,1155.98 294.72,1157.97 301.06,1167.42 312.78,1184.90 323.81,1195.95 345.02,1219.76 341.44,1241.76 339.62,1250.02 337.09,1253.50 342.40,1261.37 350.63,1278.30 367.07,1310.02 375.16,1325.64 380.20,1339.68 382.47,1346.20" fill="none" stroke="#bcbcbc" stroke-width="8" stroke-linecap="round" stroke-linejoin="round" /><polyline points="403.93,1201.30 397.83,1203.20 357.69,1215.69 351.93,1217.54 345.02,1219.76" fill="none" stroke="#bcbcbc" stroke-width="8" stroke-linecap="round" stroke-linejoin="round" /><polyline points="115.42,1277.36 127.97,1273.29 219.10,1226.75 231.30,1220.79 274.25,1208.39 315.90,1196.68 323.81,1195.95" fill="none" stroke="#bcbcbc" stroke-width="8" stroke-linecap="round" stroke-linejoin="round" /><polyline points="125.35,1334.98 230.41,1286.08 234.83,1283.15 245.10,1280.17 315.11,1259.79 325.73,1255.73 337.09,1253.50" fill="none" stroke="#bcbcbc" stroke-width="8" stroke-linecap="round" stroke-linejoin="round" /><polyline points="103.91,309.88 146.44,315.13 150.71,315.66 167.20,319.71" fill="none" stroke="#bcbcbc" stroke-width="8" stroke-linecap="round" stroke-linejoin="round" /><polyline points="467.34,742.32 474.88,740.74 503.07,754.56 506.78,758.23 559.68,847.79 561.07,858.65 567.95,864.38 566.86,868.34 566.69,874.79 567.64,883.82 581.65,941.41 582.89,981.30 584.85,1044.98 588.15,1130.71 574.73,1168.06 566.09,1190.83 553.47,1222.92 549.82,1232.20 547.44,1234.80 543.63,1259.63" fill="none" stroke="#bcbcbc" stroke-width="8" stroke-linecap="round" stroke-linejoin="round" /><polyline points="565.15,1410.91 552.28,1405.31 520.13,1382.87 477.71,1353.06 454.38,1334.19 438.64,1317.34" fill="none" stroke="#bcbcbc" stroke-width="8" stroke-linecap="round" stroke-linejoin="round" /><polyline points="44.61,1912.81 31.97,1908.81 11.47,1902.30 1.68,1899.20 -9.81,1895.56 -24.33,1890.95 -37.46,1886.79 -50.44,1882.67 -108.31,1864.30 -118.45,1861.09 -131.04,1857.10 -133.82,1856.22 -166.92,1847.47 -176.27,1845.21 -187.98,1842.38 -200.24,1839.40 -244.42,1828.69 -256.27,1825.81 -269.00,1821.39 -295.60,1812.15 -305.63,1808.67 -314.59,1805.76 -356.25,1790.95 -361.49,1787.82 -364.02,1782.39" fill="none" stroke="#bcbcbc" stroke-width="8" stroke-linecap="round" stroke-linejoin="round" /><polyline points="234.83,1283.15 231.76,1272.16 222.62,1239.36 219.10,1226.75 214.02,1217.33 213.55,1215.58 210.55,1204.48 214.04,1199.56 209.85,1185.57 208.55,1181.22" fill="none" stroke="#bcbcbc" stroke-width="8" stroke-linecap="round" stroke-linejoin="round" /><polyline points="219.54,881.88 228.24,877.78 275.73,851.59 302.88,834.13 322.03,821.07 326.26,817.92 341.67,807.20 357.64,795.40 367.75,788.04 379.81,779.23 421.71,760.32 427.14,760.61 435.08,756.85 467.34,742.32" fill="none" stroke="#bcbcbc" stroke-width="8" stroke-linecap="round" stroke-linejoin="round" /><polyline points="-306.90,1060.41 -300.05,1063.19 -295.52,1064.58 -210.58,1090.67 -197.61,1094.66" fill="none" stroke="#bcbcbc" stroke-width="8" stroke-linecap="round" stroke-linejoin="round" /><polyline points="-913.58,1251.44 -974.26,1233.07" fill="none" stroke="#bcbcbc" stroke-width="8" stroke-linecap="round" stroke-linejoin="round" /><polyline points="66.61,395.60 81.66,414.66 83.90,417.50 91.50,427.13 100.15,428.14 117.95,430.23 121.11,432.42" fill="none" stroke="#bcbcbc" stroke-width="8" stroke-linecap="round" stroke-linejoin="round" /><polyline points="589.07,1243.45 565.23,1247.89 540.78,1261.18 518.12,1273.79 496.69,1284.51 470.79,1298.58 452.04,1309.97 414.98,1329.84 270.31,1402.63 232.80,1419.16 208.02,1429.87 195.74,1433.89 185.59,1435.79 168.95,1436.80 145.29,1433.45 86.24,1419.27 2.41,1399.73 -107.88,1366.46 -148.51,1353.06 -215.04,1332.52 -278.67,1311.53 -371.99,1274.91 -418.65,1254.81 -474.91,1229.81 -568.23,1178.67 -590.10,1164.16 -645.47,1129.33 -668.69,1106.11 -703.52,1061.01 -760.89,1001.84 -783.44,981.97" fill="none" stroke="#bcbcbc" stroke-width="8" stroke-linecap="round" stroke-linejoin="round" /><polyline points="136.71,1941.93 137.69,1936.48 141.22,1927.57 174.31,1850.12 186.81,1821.10 201.55,1784.92 205.14,1771.68" fill="none" stroke="#bcbcbc" stroke-width="8" stroke-linecap="round" stroke-linejoin="round" /><polyline points="-498.14,1614.96 -535.73,1596.76 -621.26,1555.36 -726.18,1504.57 -735.55,1500.04" fill="none" stroke="#bcbcbc" stroke-width="8" stroke-linecap="round" stroke-linejoin="round" /><polyline points="119.67,1015.63 129.17,1005.91 154.40,980.07 174.43,958.20" fill="none" stroke="#bcbcbc" stroke-width="8" stroke-linecap="round" stroke-linejoin="round" /><polyline points="-609.11,1073.20 -619.54,1059.39 -668.40,994.69 -738.16,938.23" fill="none" stroke="#bcbcbc" stroke-width="8" stroke-linecap="round" stroke-linejoin="round" /><polyline points="-911.82,1925.03 -902.28,1902.40 -871.95,1826.78 -868.28,1816.85 -864.20,1805.84 -862.65,1801.87 -862.24,1795.65 -858.36,1736.85 -857.24,1719.99" fill="none" stroke="#bcbcbc" stroke-width="8" stroke-linecap="round" stroke-linejoin="round" /><polyline points="-932.51,1317.12 -913.58,1251.44 -888.60,1164.81 -885.51,1154.09 -882.07,1141.91 -874.37,1114.63 -873.56,1111.77 -871.36,1103.00 -867.84,1093.08 -866.99,1090.68 -862.55,1079.68 -853.83,1060.44 -851.22,1054.92" fill="none" stroke="#bcbcbc" stroke-width="8" stroke-linecap="round" stroke-linejoin="round" /><polyline points="-885.51,1154.09 -847.19,1163.89 -766.04,1184.75 -719.81,1199.15 -700.52,1203.67" fill="none" stroke="#bcbcbc" stroke-width="8" stroke-linecap="round" stroke-linejoin="round" /><polyline points="-96.90,856.08 -95.60,848.10 -94.29,839.83 -88.67,812.13 -74.63,747.67 -63.09,690.01 -60.99,678.05 -58.12,661.81 -58.12,661.79" fill="none" stroke="#bcbcbc" stroke-width="8" stroke-linecap="round" stroke-linejoin="round" /><polyline points="-210.33,2097.35 -193.23,2053.71 -191.10,2045.87 -123.22,1873.52 -118.45,1861.09 -114.59,1850.54 -74.03,1732.51 -66.22,1725.69" fill="none" stroke="#bcbcbc" stroke-width="8" stroke-linecap="round" stroke-linejoin="round" /><polyline points="22.36,822.71 22.36,822.70 19.95,810.08 19.57,808.54 13.71,784.69 13.71,784.62 9.72,768.44 -7.22,710.38 -9.36,704.16 -20.80,673.06 -24.52,663.77 -26.92,657.78 -30.03,650.98 -30.03,650.97 -30.04,650.94 -32.31,625.93 -32.52,613.65" fill="none" stroke="#bcbcbc" stroke-width="8" stroke-linecap="round" stroke-linejoin="round" /><polyline points="-3.03,1807.85 -7.39,1812.56 -13.88,1820.28 -32.17,1871.86 -37.46,1886.79" fill="none" stroke="#bcbcbc" stroke-width="8" stroke-linecap="round" stroke-linejoin="round" /><polyline points="-306.90,1060.41 -304.40,1053.64 -303.84,1052.07 -291.96,1018.89 -287.50,1004.91 -251.11,897.86" fill="none" stroke="#bcbcbc" stroke-width="8" stroke-linecap="round" stroke-linejoin="round" /><polyline points="-118.60,1210.48 -114.89,1200.62 -104.83,1173.90 -100.58,1162.60 -97.70,1154.95 -89.63,1133.51 -84.30,1119.34 -83.58,1117.44 -70.66,1083.12 -65.26,1084.80 -62.33,1076.83 -57.16,1062.73 -58.15,1056.33 -44.41,1018.92 -43.00,1015.07 -40.39,1012.68 -38.20,1010.67 -24.42,972.99 -22.43,962.68 -2.66,907.73 2.02,904.07 11.53,877.16 9.84,873.03 18.17,847.89 13.85,825.45" fill="none" stroke="#bcbcbc" stroke-width="8" stroke-linecap="round" stroke-linejoin="round" /><polyline points="235.07,188.53 229.53,179.44 200.42,131.67" fill="none" stroke="#bcbcbc" stroke-width="8" stroke-linecap="round" stroke-linejoin="round" /><polyline points="326.26,817.92 459.85,903.84 459.89,903.89 459.89,903.91 484.60,907.12" fill="none" stroke="#bcbcbc" stroke-width="8" stroke-linecap="round" stroke-linejoin="round" /><polyline points="272.68,638.43 414.82,709.79 419.11,712.99 418.82,736.35 421.71,760.32" fill="none" stroke="#bcbcbc" stroke-width="8" stroke-linecap="round" stroke-linejoin="round" /><polyline points="1.68,1899.20 -3.43,1914.80 -24.14,1977.97 -59.37,2084.36 -61.87,2091.91 -64.40,2099.56 -65.11,2107.70" fill="none" stroke="#bcbcbc" stroke-width="8" stroke-linecap="round" stroke-linejoin="round" /><polyline points="401.83,1515.45 402.68,1507.52 402.87,1500.12 402.81,1499.87 397.77,1478.09 395.70,1468.99 394.71,1464.60 393.69,1460.12 388.16,1435.75 377.36,1387.07 369.51,1357.80 368.40,1353.28" fill="none" stroke="#bcbcbc" stroke-width="8" stroke-linecap="round" stroke-linejoin="round" /><polyline points="-303.87,1961.11 -300.34,1951.09 -260.76,1838.59 -256.27,1825.81" fill="none" stroke="#bcbcbc" stroke-width="8" stroke-linecap="round" stroke-linejoin="round" /><polyline points="584.85,1044.98 573.21,1041.70 494.13,920.33 484.60,907.12" fill="none" stroke="#bcbcbc" stroke-width="8" stroke-linecap="round" stroke-linejoin="round" /><polyline points="-715.19,1336.20 -426.97,1405.26 -407.10,1412.52" fill="none" stroke="#bcbcbc" stroke-width="8" stroke-linecap="round" stroke-linejoin="round" /><polyline points="193.86,257.12 306.13,298.71 321.94,296.01" fill="none" stroke="#bcbcbc" stroke-width="8" stroke-linecap="round" stroke-linejoin="round" />
    <polyline points="167.20,319.71 179.82,322.80 186.80,324.01 352.80,352.80" fill="none" stroke="#ffffff" stroke-width="16" stroke-linecap="round" stroke-linejoin="round" />
    <polyline points="167.20,319.71 179.82,322.80 186.80,324.01 352.80,352.80" fill="none" stroke="#111111" stroke-width="9" stroke-linecap="round" stroke-linejoin="round" />
    
            <g transform="translate(167.20,319.71)">
              <circle r="19" fill="#ffffff" stroke="#111111" stroke-width="4" />
              <text text-anchor="middle" dominant-baseline="central" font-family="Helvetica, Arial, sans-serif"
                font-size="18" font-weight="700" fill="#111111">1</text>
            </g>
            
            <g transform="translate(352.80,352.80)">
              <circle r="19" fill="#ffffff" stroke="#111111" stroke-width="4" />
              <text text-anchor="middle" dominant-baseline="central" font-family="Helvetica, Arial, sans-serif"
                font-size="18" font-weight="700" fill="#111111">2</text>
            </g>
            
  </g>
</svg>
