<svg xmlns="http://www.w3.org/2000/svg" width="520" height="520" viewBox="0 0 520 520">
  <rect width="100%" height="100%" fill="#ffffff" />
  <g>
    <polyline points="818.54,-1341.14 822.59,-1319.60 848.73,-1136.78 844.73,-1091.08" fill="none" stroke="#bcbcbc" stroke-width="8" stroke-linecap="round" stroke-linejoin="round" /><polyline points="287.33,182.31 293.64,162.89 327.12,59.93 331.07,47.80 335.06,35.06 419.25,-233.37 426.02,-254.95 410.51,-293.14" fill="none" stroke="#bcbcbc" stroke-width="8" stroke-linecap="round" stroke-linejoin="round" /><polyline points="-294.17,-56.44 -295.53,-71.86 -268.01,-225.99 -264.15,-245.27 -261.26,-255.37 -253.69,-294.46 -245.17,-342.30 -235.90,-384.43 -226.70,-426.48 -220.91,-438.33 -217.12,-445.60" fill="none" stroke="#bcbcbc" stroke-width="8" stroke-linecap="round" stroke-linejoin="round" /><polyline points="-134.42,-1143.68 -140.96,-1163.63 -208.59,-1369.89 -211.90,-1378.54" fill="none" stroke="#bcbcbc" stroke-width="8" stroke-linecap="round" stroke-linejoin="round" /><polyline points="-481.46,671.64 -479.45,651.96 -478.63,642.93 -471.26,561.49 -463.21,489.78 -461.32,473.04 -459.57,452.95 -459.38,451.26 -454.81,411.32 -450.87,370.73 -446.53,331.55 -443.61,301.05 -442.39,282.23 -441.31,264.85 -439.39,245.26" fill="none" stroke="#bcbcbc" stroke-width="8" stroke-linecap="round" stroke-linejoin="round" /><polyline points="453.08,230.17 457.90,215.02 491.84,108.34 495.70,96.22 501.18,78.95 505.11,66.58 535.15,-62.97" fill="none" stroke="#bcbcbc" stroke-width="8" stroke-linecap="round" stroke-linejoin="round" /><polyline points="321.16,-1880.01 333.69,-1878.09 679.06,-1825.03" fill="none" stroke="#bcbcbc" stroke-width="8" stroke-linecap="round" stroke-linejoin="round" /><polyline points="-565.48,205.03 -601.43,203.36 -623.35,202.34 -635.26,201.78 -645.71,201.30 -727.11,197.51 -840.34,192.24 -894.31,184.59 -912.37,182.03 -928.04,179.27 -1034.19,160.53 -1049.02,157.91 -1052.31,157.35 -1070.64,154.21 -1084.72,151.80 -1174.67,143.85 -1191.80,142.33 -1198.08,141.78 -1217.53,140.43 -1255.60,137.79" fill="none" stroke="#bcbcbc" stroke-width="8" stroke-linecap="round" stroke-linejoin="round" /><polyline points="-43.22,100.74 -36.26,80.93 26.49,-92.99 101.97,-312.35 106.80,-326.11 110.17,-335.72 112.91,-343.61" fill="none" stroke="#bcbcbc" stroke-width="8" stroke-linecap="round" stroke-linejoin="round" /><polyline points="-1198.08,141.78 -1199.68,130.59 -1200.06,118.45 -1197.68,93.99 -1192.22,49.34 -1188.57,34.34 -1182.66,-19.84 -1181.58,-31.92 -1179.85,-47.43 -1178.56,-58.96 -1176.14,-72.02 -1171.65,-107.17 -1168.52,-134.06 -1163.94,-145.06" fill="none" stroke="#bcbcbc" stroke-width="8" stroke-linecap="round" stroke-linejoin="round" /><polyline points="-1262.30,-158.80 -1178.61,-147.11 -1163.94,-145.06 -1154.85,-143.61 -1117.34,-137.63 -1030.90,-123.86 -1016.07,-121.39" fill="none" stroke="#bcbcbc" stroke-width="8" stroke-linecap="round" stroke-linejoin="round" /><polyline points="277.93,-1256.59 278.48,-1248.99 279.60,-1241.29 282.32,-1235.38 287.41,-1228.81 296.82,-1220.24 319.13,-1206.67 491.20,-1098.73 597.18,-956.65 677.23,-759.12 682.45,-746.07" fill="none" stroke="#bcbcbc" stroke-width="8" stroke-linecap="round" stroke-linejoin="round" /><polyline points="250.38,-680.22 253.95,-674.32 254.87,-672.79 257.83,-657.89 278.02,-560.27 284.42,-529.29 289.01,-507.22 296.16,-462.49 299.49,-441.86 301.80,-429.28 304.32,-417.91 307.33,-411.28 311.75,-403.60 314.12,-399.98 358.83,-335.98 383.01,-297.90 389.32,-288.80" fill="none" stroke="#bcbcbc" stroke-width="8" stroke-linecap="round" stroke-linejoin="round" /><polyline points="-1033.16,542.05 -1030.79,527.40 -1028.57,516.81 -1027.98,515.40 -998.22,444.65 -979.26,398.67 -973.50,384.10 -967.40,368.66 -960.77,355.40 -959.70,352.80 -950.62,330.87 -943.61,311.47 -937.59,293.67 -933.77,281.08 -929.49,265.54 -924.55,244.69 -920.80,227.78 -916.32,204.18 -915.38,198.91 -912.37,182.03" fill="none" stroke="#bcbcbc" stroke-width="8" stroke-linecap="round" stroke-linejoin="round" /><polyline points="408.64,-1433.76 503.53,-1367.46 516.31,-1364.75 525.67,-1354.05" fill="none" stroke="#bcbcbc" stroke-width="8" stroke-linecap="round" stroke-linejoin="round" /><polyline points="10.21,-821.48 22.75,-816.65 77.19,-798.85 203.48,-750.42 210.57,-743.36 213.89,-738.08" fill="none" stroke="#bcbcbc" stroke-width="8" stroke-linecap="round" stroke-linejoin="round" /><polyline points="245.54,422.94 254.14,400.53 296.60,285.35 326.62,198.33 332.85,195.47" fill="none" stroke="#bcbcbc" stroke-width="8" stroke-linecap="round" stroke-linejoin="round" /><polyline points="-354.60,276.90 -347.91,262.09 -347.24,260.62 -335.78,222.18 -317.00,158.89 -312.19,142.70 -308.46,130.12 -307.96,122.79 -308.72,106.56" fill="none" stroke="#bcbcbc" stroke-width="8" stroke-linecap="round" stroke-linejoin="round" /><polyline points="425.77,-675.17 415.00,-672.94 390.61,-677.28 386.84,-687.35 344.57,-703.46 334.58,-700.85 296.45,-714.84 290.76,-710.87" fill="none" stroke="#bcbcbc" stroke-width="8" stroke-linecap="round" stroke-linejoin="round" /><polyline points="363.01,-1982.38 382.17,-1977.69 392.76,-1975.85 644.70,-1932.17" fill="none" stroke="#bcbcbc" stroke-width="8" stroke-linecap="round" stroke-linejoin="round" /><polyline points="-1213.22,-793.86 -1231.47,-794.70 -1236.04,-789.14 -1267.83,-750.52 -1378.96,-622.16 -1394.59,-604.11" fill="none" stroke="#bcbcbc" stroke-width="8" stroke-linecap="round" stroke-linejoin="round" /><polyline points="-238.49,-683.93 -246.54,-666.10 -247.51,-663.94 -275.50,-590.96 -303.71,-510.64 -311.23,-489.21 -315.50,-478.15" fill="none" stroke="#bcbcbc" stroke-width="8" stroke-linecap="round" stroke-linejoin="round" /><polyline points="172.03,-1503.85 180.92,-1491.79 187.27,-1475.21 197.15,-1451.40 213.00,-1413.96 227.05,-1380.35 243.16,-1343.44 255.12,-1315.01 256.89,-1310.92 257.00,-1310.67 266.62,-1288.17 269.50,-1281.78 272.23,-1275.69 275.13,-1269.99 277.30,-1264.19 277.94,-1256.59" fill="none" stroke="#bcbcbc" stroke-width="8" stroke-linecap="round" stroke-linejoin="round" /><polyline points="-508.60,-324.21 -503.95,-326.76 -497.44,-331.93 -494.18,-338.64 -450.94,-502.57 -449.64,-511.82 -444.36,-528.71" fill="none" stroke="#bcbcbc" stroke-width="8" stroke-linecap="round" stroke-linejoin="round" /><polyline points="1003.29,-580.75 1009.42,-561.29 1013.74,-540.84 1005.34,-462.92 995.62,-404.31 990.32,-384.31 989.83,-382.51 985.19,-371.72 978.85,-360.28 964.06,-341.57 971.22,-304.99 948.05,-226.48 935.25,-183.12 909.08,-112.14 870.75,-25.73 823.94,57.09 809.33,84.00 782.90,128.22 677.31,278.06 654.18,309.23 564.60,426.29 513.17,484.80 441.23,557.90 434.57,558.59 418.32,571.87" fill="none" stroke="#bcbcbc" stroke-width="8" stroke-linecap="round" stroke-linejoin="round" /><polyline points="-299.55,700.98 -270.08,609.58 -265.25,594.48 -258.70,584.98 -244.63,542.73 -240.05,528.38 -181.90,346.35 -176.05,328.04 -171.23,311.95 -102.61,96.01" fill="none" stroke="#bcbcbc" stroke-width="8" stroke-linecap="round" stroke-linejoin="round" /><polyline points="390.91,-998.85 416.39,-1026.69 423.91,-1035.74 475.39,-1108.65" fill="none" stroke="#bcbcbc" stroke-width="8" stroke-linecap="round" stroke-linejoin="round" /><polyline points="-118.35,-987.82 -48.19,-963.40 -44.31,-957.10 -24.39,-950.42 -12.56,-946.37 43.99,-927.27" fill="none" stroke="#bcbcbc" stroke-width="8" stroke-linecap="round" stroke-linejoin="round" /><polyline points="493.22,-1473.33 525.67,-1354.05 563.24,-1213.54 568.94,-1201.82 569.84,-1188.46 595.32,-1140.90 664.07,-1012.69 679.10,-990.52 683.45,-984.03 786.18,-792.00 833.39,-749.09 840.01,-740.54 849.35,-732.56 938.98,-655.92 945.07,-650.72 961.16,-642.17" fill="none" stroke="#bcbcbc" stroke-width="8" stroke-linecap="round" stroke-linejoin="round" /><polyline points="144.60,720.38 368.15,590.53 407.94,570.19 418.32,571.87" fill="none" stroke="#bcbcbc" stroke-width="8" stroke-linecap="round" stroke-linejoin="round" /><polyline points="386.98,534.63 400.85,518.14 525.37,269.70 533.62,253.41 540.51,237.29 580.73,137.83 592.71,107.87 627.38,2.96 649.86,-131.91 652.52,-151.54" fill="none" stroke="#bcbcbc" stroke-width="8" stroke-linecap="round" stroke-linejoin="round" /><polyline points="290.88,-926.42 288.70,-924.19 285.70,-913.74 285.41,-912.69 271.89,-860.67 275.44,-847.08 272.49,-834.91 268.63,-818.97 258.74,-807.51 247.52,-762.06 234.30,-752.07 220.19,-742.40 213.89,-738.08" fill="none" stroke="#bcbcbc" stroke-width="8" stroke-linecap="round" stroke-linejoin="round" /><polyline points="-238.49,-683.93 -232.74,-698.65 -198.19,-787.20 -190.66,-806.51 -184.45,-822.42 -140.31,-935.50 -120.44,-982.77 -118.35,-987.82 -102.91,-1025.16 -68.25,-1111.19 -55.56,-1147.82 -52.74,-1156.22 -48.94,-1165.74" fill="none" stroke="#bcbcbc" stroke-width="8" stroke-linecap="round" stroke-linejoin="round" /><polyline points="148.08,-1220.70 154.76,-1200.82 373.99,-1013.57 493.63,-909.50 672.31,-754.18 687.91,-741.71 694.89,-737.34 725.90,-709.20 767.31,-673.88 861.23,-593.81 891.56,-567.73 911.69,-543.65" fill="none" stroke="#bcbcbc" stroke-width="8" stroke-linecap="round" stroke-linejoin="round" /><polyline points="510.56,-1543.35 521.69,-1550.48 587.56,-1577.85 601.10,-1592.09" fill="none" stroke="#bcbcbc" stroke-width="8" stroke-linecap="round" stroke-linejoin="round" /><polyline points="586.65,123.02 495.70,96.22 331.07,47.80" fill="none" stroke="#bcbcbc" stroke-width="8" stroke-linecap="round" stroke-linejoin="round" /><polyline points="293.06,-1811.36 305.49,-1802.80 710.31,-1712.73" fill="none" stroke="#bcbcbc" stroke-width="8" stroke-linecap="round" stroke-linejoin="round" /><polyline points="793.11,-478.63 772.19,-525.18 725.76,-635.90 722.30,-644.70 714.36,-664.91 684.43,-741.06 682.54,-746.00" fill="none" stroke="#bcbcbc" stroke-width="8" stroke-linecap="round" stroke-linejoin="round" /><polyline points="172.03,-1503.85 149.55,-1510.25 133.04,-1515.17 99.47,-1525.13 82.42,-1530.00 72.65,-1532.71 59.89,-1536.37" fill="none" stroke="#bcbcbc" stroke-width="8" stroke-linecap="round" stroke-linejoin="round" /><polyline points="-413.98,-894.86 -415.11,-898.58 -416.16,-901.18 -420.79,-912.69 -438.74,-954.52 -455.79,-997.02 -459.47,-1007.05 -463.72,-1018.61 -466.75,-1028.06 -471.76,-1042.24 -472.29,-1043.73 -488.61,-1083.94 -518.56,-1159.51 -525.29,-1163.35 -530.07,-1175.60 -539.63,-1208.80 -555.99,-1249.93 -559.52,-1259.28" fill="none" stroke="#bcbcbc" stroke-width="8" stroke-linecap="round" stroke-linejoin="round" /><polyline points="-270.08,609.58 -253.07,614.79 -198.03,631.56 -180.79,636.81" fill="none" stroke="#bcbcbc" stroke-width="8" stroke-linecap="round" stroke-linejoin="round" /><polyline points="757.75,-1523.55 760.95,-1536.52 759.65,-1541.45 758.08,-1547.39 748.03,-1584.20 725.63,-1662.02 713.81,-1701.80 710.31,-1712.73 679.06,-1825.03 662.20,-1885.60 644.70,-1932.17 628.90,-1974.19 613.16,-2003.08 597.86,-2018.34 480.46,-2161.78 471.78,-2172.00 466.02,-2181.43" fill="none" stroke="#bcbcbc" stroke-width="8" stroke-linecap="round" stroke-linejoin="round" /><polyline points="277.94,-1256.59 271.88,-1254.28 260.69,-1251.19 259.57,-1250.88 212.81,-1238.92 159.05,-1223.79 148.08,-1220.70 143.19,-1219.15 130.27,-1215.00 119.23,-1211.93 71.02,-1198.51 -8.26,-1175.99 -37.82,-1168.52 -48.94,-1165.74 -101.78,-1152.77 -134.42,-1143.68 -203.54,-1124.37 -271.85,-1105.12 -279.76,-1102.93 -336.85,-1087.08 -363.19,-1079.77 -376.49,-1073.49 -401.66,-1061.01 -451.66,-1035.64 -455.15,-1033.87 -466.75,-1028.06 -473.83,-1024.52 -483.71,-1019.34 -518.84,-1000.92 -582.84,-965.02 -636.31,-937.01 -643.96,-933.00 -654.17,-932.37 -660.31,-929.11 -661.53,-928.46 -719.54,-896.67 -731.68,-896.73 -745.62,-889.43 -750.49,-886.89 -754.60,-884.74 -764.30,-879.66 -771.94,-862.24 -804.76,-844.66 -815.20,-839.07 -826.49,-832.93 -872.17,-808.07 -895.78,-795.22 -907.68,-791.80" fill="none" stroke="#bcbcbc" stroke-width="8" stroke-linecap="round" stroke-linejoin="round" /><polyline points="935.25,-183.12 910.88,-180.88 834.75,-173.91 831.32,-173.59 826.47,-173.15 818.61,-172.43 744.79,-165.65 719.12,-168.03 689.22,-160.54 665.28,-154.67 652.52,-151.54 620.83,-150.34 593.40,-151.74 579.41,-153.22 567.51,-156.82 558.75,-161.67 526.11,-184.74 446.80,-239.21 439.32,-244.28 431.71,-249.45 426.02,-254.95" fill="none" stroke="#bcbcbc" stroke-width="8" stroke-linecap="round" stroke-linejoin="round" /><polyline points="-860.98,-1102.65 -832.21,-1046.32 -827.85,-1030.22 -803.61,-983.98 -793.60,-970.75 -753.08,-891.92 -750.49,-886.89" fill="none" stroke="#bcbcbc" stroke-width="8" stroke-linecap="round" stroke-linejoin="round" /><polyline points="20.89,-601.69 16.58,-589.85 15.37,-586.17 9.76,-569.13 -25.85,-469.81 -43.52,-420.49 -44.12,-418.80 -51.22,-403.47 -55.29,-394.37" fill="none" stroke="#bcbcbc" stroke-width="8" stroke-linecap="round" stroke-linejoin="round" /><polyline points="493.22,-1473.33 489.27,-1481.77 478.90,-1483.14 445.34,-1475.44 438.52,-1476.33 433.17,-1483.49 423.68,-1527.15 475.11,-1535.11 498.92,-1542.14 510.56,-1543.35 523.10,-1498.77" fill="none" stroke="#bcbcbc" stroke-width="8" stroke-linecap="round" stroke-linejoin="round" /><polyline points="679.10,-990.52 692.35,-997.96 758.89,-1038.06 776.67,-1048.64 807.80,-1067.20 859.02,-1100.32 870.96,-1108.91 960.80,-1164.62" fill="none" stroke="#bcbcbc" stroke-width="8" stroke-linecap="round" stroke-linejoin="round" /><polyline points="993.10,-727.34 970.39,-734.11 957.19,-744.93 906.73,-788.59 905.01,-790.12 892.81,-801.01 885.64,-813.72 758.89,-1038.06" fill="none" stroke="#bcbcbc" stroke-width="8" stroke-linecap="round" stroke-linejoin="round" /><polyline points="-437.36,-745.12 -238.49,-683.93 -222.26,-678.78 -73.85,-631.75 -70.75,-630.76 -48.52,-623.71 -37.59,-620.24 -23.38,-616.36 5.91,-606.44 20.89,-601.69 34.38,-597.41 144.82,-562.38 261.42,-525.76 271.06,-522.73 284.42,-529.29" fill="none" stroke="#bcbcbc" stroke-width="8" stroke-linecap="round" stroke-linejoin="round" /><polyline points="147.39,-1726.85 233.54,-1805.99 248.12,-1819.39" fill="none" stroke="#bcbcbc" stroke-width="8" stroke-linecap="round" stroke-linejoin="round" /><polyline points="-1295.16,-449.72 -979.06,-415.84" fill="none" stroke="#bcbcbc" stroke-width="8" stroke-linecap="round" stroke-linejoin="round" /><polyline points="-341.58,-1331.92 -275.14,-1355.68 -206.61,-1380.45 -164.03,-1397.00 -34.02,-1444.28 3.71,-1457.33 11.59,-1460.05 21.04,-1463.30 31.65,-1466.95 32.94,-1467.40 54.36,-1476.01 63.67,-1479.75" fill="none" stroke="#bcbcbc" stroke-width="8" stroke-linecap="round" stroke-linejoin="round" /><polyline points="104.65,275.64 167.20,352.80 205.49,391.35 222.07,403.28 245.54,422.94 267.59,441.45 286.52,459.92 286.99,469.32" fill="none" stroke="#bcbcbc" stroke-width="8" stroke-linecap="round" stroke-linejoin="round" /><polyline points="172.03,-1503.85 196.54,-1565.29 236.22,-1666.44 293.06,-1811.36 321.16,-1880.01 363.01,-1982.38 397.34,-2066.23 403.48,-2077.36 433.66,-2126.70 435.61,-2129.89 446.66,-2151.61 466.02,-2181.43 476.84,-2198.07 492.14,-2221.62" fill="none" stroke="#bcbcbc" stroke-width="8" stroke-linecap="round" stroke-linejoin="round" /><polyline points="-406.29,138.81 -410.30,142.02 -412.95,145.85 -418.36,161.79 -422.10,173.30 -439.37,224.94 -441.74,232.39 -443.22,237.01 -459.08,232.46 -497.68,219.52 -535.92,206.70 -565.48,205.03" fill="none" stroke="#bcbcbc" stroke-width="8" stroke-linecap="round" stroke-linejoin="round" /><polyline points="-1162.16,498.15 -1099.13,335.38 -1092.12,317.67 -1085.83,300.60 -1078.23,279.98 -1068.91,247.54 -1059.18,207.22 -1055.20,178.34 -1052.31,157.35 -1048.23,141.86 -1033.40,25.48 -1016.07,-121.39 -1007.10,-191.41 -997.10,-273.66 -979.06,-415.84 -976.20,-440.02 -957.97,-588.71 -957.96,-596.99 -953.93,-641.11 -942.31,-734.30 -939.40,-750.55 -936.36,-759.67 -931.60,-769.71 -926.98,-777.51 -916.78,-788.55 -907.66,-791.68" fill="none" stroke="#bcbcbc" stroke-width="8" stroke-linecap="round" stroke-linejoin="round" /><polyline points="213.89,-738.08 217.34,-732.62 228.90,-714.57 246.21,-686.84 250.38,-680.22 257.28,-685.46 290.76,-710.87" fill="none" stroke="#bcbcbc" stroke-width="8" stroke-linecap="round" stroke-linejoin="round" /><polyline points="236.22,-1666.44 576.79,-1604.88 612.56,-1586.06 746.00,-1519.92 757.75,-1523.56" fill="none" stroke="#bcbcbc" stroke-width="8" stroke-linecap="round" stroke-linejoin="round" /><polyline points="-413.98,-894.86 -420.02,-886.05 -474.35,-859.53 -514.26,-808.82 -557.32,-782.16 -586.77,-759.92 -614.87,-737.00 -629.27,-723.88 -654.72,-691.60 -683.17,-650.82 -687.86,-643.27" fill="none" stroke="#bcbcbc" stroke-width="8" stroke-linecap="round" stroke-linejoin="round" /><polyline points="-356.53,-858.48 -358.89,-853.24 -364.04,-845.71 -373.77,-833.73 -431.17,-761.24 -461.53,-679.46 -614.80,-737.07" fill="none" stroke="#bcbcbc" stroke-width="8" stroke-linecap="round" stroke-linejoin="round" /><polyline points="-586.77,-759.92 -592.71,-777.89 -618.35,-855.53 -628.31,-870.87 -644.97,-920.87 -646.41,-925.18 -643.96,-933.00 -647.95,-945.75 -728.09,-1201.60" fill="none" stroke="#bcbcbc" stroke-width="8" stroke-linecap="round" stroke-linejoin="round" /><polyline points="352.26,-2155.95 415.60,-2154.28 418.55,-2154.20 430.69,-2153.85 446.66,-2151.61" fill="none" stroke="#bcbcbc" stroke-width="8" stroke-linecap="round" stroke-linejoin="round" /><polyline points="26.49,-92.99 4.86,-93.25 -178.25,-68.67 -191.45,-67.28 -206.54,-65.69 -294.17,-56.44 -412.22,-43.97 -474.81,-37.38 -509.43,-33.72 -537.54,-30.31 -551.97,-28.55 -568.23,-26.57 -646.78,-17.03 -665.60,-14.74 -723.60,-8.40 -1033.40,25.48" fill="none" stroke="#bcbcbc" stroke-width="8" stroke-linecap="round" stroke-linejoin="round" /><polyline points="-244.63,542.73 -260.85,537.51 -336.62,513.13 -351.93,508.20 -365.23,503.92 -445.50,478.12 -461.32,473.04 -482.26,466.30 -610.04,425.18 -624.42,420.56" fill="none" stroke="#bcbcbc" stroke-width="8" stroke-linecap="round" stroke-linejoin="round" /><polyline points="72.19,-991.13 116.26,-977.40 277.43,-927.64 278.93,-927.17 290.88,-926.42" fill="none" stroke="#bcbcbc" stroke-width="8" stroke-linecap="round" stroke-linejoin="round" /><polyline points="525.67,-1354.05 744.91,-1350.19" fill="none" stroke="#bcbcbc" stroke-width="8" stroke-linecap="round" stroke-linejoin="round" /><polyline points="418.32,571.87 386.98,534.63 373.83,519.33 362.53,508.78 347.49,497.54 316.74,479.10 286.99,469.32 226.46,450.62 176.95,434.91 205.49,391.35" fill="none" stroke="#bcbcbc" stroke-width="8" stroke-linecap="round" stroke-linejoin="round" /><polyline points="104.65,275.64 61.01,221.79 52.71,211.54 8.75,150.99 -1.19,132.50 1.19,110.49 14.45,110.36 47.14,116.65 96.88,126.22" fill="none" stroke="#bcbcbc" stroke-width="8" stroke-linecap="round" stroke-linejoin="round" /><polyline points="-466.23,-155.89 -458.18,-138.58 -412.22,-43.97 -343.88,96.69 -335.17,114.63" fill="none" stroke="#bcbcbc" stroke-width="8" stroke-linecap="round" stroke-linejoin="round" /><polyline points="-1202.35,272.60 -1185.91,279.32 -1108.93,310.79 -1092.12,317.67 -1074.43,324.90 -983.79,361.96 -967.40,368.66" fill="none" stroke="#bcbcbc" stroke-width="8" stroke-linecap="round" stroke-linejoin="round" /><polyline points="-428.40,-296.16 -268.01,-225.99" fill="none" stroke="#bcbcbc" stroke-width="8" stroke-linecap="round" stroke-linejoin="round" /><polyline points="290.88,-926.42 315.31,-925.14 316.87,-923.75 327.84,-914.03 343.95,-899.65 346.92,-893.87 402.45,-845.24 406.56,-837.48 445.61,-803.02 455.43,-800.03 485.81,-773.43 492.62,-770.32 538.42,-731.46 548.62,-722.42 554.25,-713.47" fill="none" stroke="#bcbcbc" stroke-width="8" stroke-linecap="round" stroke-linejoin="round" /><polyline points="-1247.63,-296.00 -997.10,-273.66" fill="none" stroke="#bcbcbc" stroke-width="8" stroke-linecap="round" stroke-linejoin="round" /><polyline points="-688.24,636.80 -680.48,620.27 -678.49,612.92 -667.60,572.81 -628.20,433.86 -624.42,420.56 -620.43,405.97 -602.58,340.68 -572.43,230.44 -565.48,205.03" fill="none" stroke="#bcbcbc" stroke-width="8" stroke-linecap="round" stroke-linejoin="round" /><polyline points="-466.23,-155.89 -428.40,-296.16 -508.60,-324.21 -529.60,-311.82 -539.17,-304.53 -546.26,-294.95 -551.25,-282.29 -569.69,-214.13 -554.81,-206.55 -539.78,-202.90 -506.54,-194.25 -481.66,-186.33 -466.23,-155.89" fill="none" stroke="#bcbcbc" stroke-width="8" stroke-linecap="round" stroke-linejoin="round" /><polyline points="-569.69,-214.13 -587.26,-216.57 -997.10,-273.66" fill="none" stroke="#bcbcbc" stroke-width="8" stroke-linecap="round" stroke-linejoin="round" /><polyline points="96.88,126.22 134.90,134.53 237.71,167.20 266.45,176.29 334.68,196.00 403.42,215.81 454.30,230.52 535.69,254.01 552.50,258.87 593.57,272.64 661.18,290.64 667.15,291.76" fill="none" stroke="#bcbcbc" stroke-width="8" stroke-linecap="round" stroke-linejoin="round" /><polyline points="145.11,720.09 131.23,723.57 116.24,765.36 92.98,758.76 -12.76,722.72 -25.49,720.01 -53.80,717.98 -181.86,718.49 -210.09,714.90 -273.83,705.15 -299.55,700.98 -481.93,671.57 -552.55,660.30 -687.24,636.97 -708.99,632.66 -1012.96,547.71 -1032.14,542.34 -1162.16,498.15 -1194.15,486.80 -1274.06,453.69 -1319.61,436.46" fill="none" stroke="#bcbcbc" stroke-width="8" stroke-linecap="round" stroke-linejoin="round" /><polyline points="423.68,-1527.15 410.52,-1529.86 234.84,-1509.09 172.03,-1503.85" fill="none" stroke="#bcbcbc" stroke-width="8" stroke-linecap="round" stroke-linejoin="round" /><polyline points="96.88,126.22 103.04,115.92 139.91,21.25 181.10,-121.90 191.61,-152.73 197.23,-161.13 237.00,-288.77 238.97,-304.01 240.48,-313.97" fill="none" stroke="#bcbcbc" stroke-width="8" stroke-linecap="round" stroke-linejoin="round" /><polyline points="277.94,-1256.59 282.13,-1258.20 287.82,-1262.72 296.47,-1272.83 408.64,-1433.76 438.52,-1476.33" fill="none" stroke="#bcbcbc" stroke-width="8" stroke-linecap="round" stroke-linejoin="round" /><polyline points="777.19,-665.40 779.49,-672.00 835.87,-738.34 840.01,-740.54 849.81,-753.94 882.61,-791.62 892.81,-801.01" fill="none" stroke="#bcbcbc" stroke-width="8" stroke-linecap="round" stroke-linejoin="round" /><polyline points="826.47,-173.15 825.69,-182.02 825.08,-188.89 822.11,-202.02 818.56,-210.58 814.13,-233.08 813.73,-241.23 810.72,-259.44 797.30,-266.45 786.58,-262.35 767.38,-257.75 752.18,-255.37 737.61,-251.86 717.48,-247.27 708.31,-245.18" fill="none" stroke="#bcbcbc" stroke-width="8" stroke-linecap="round" stroke-linejoin="round" /><polyline points="-654.98,-498.91 -613.97,-595.03 -611.69,-601.28" fill="none" stroke="#bcbcbc" stroke-width="8" stroke-linecap="round" stroke-linejoin="round" /><polyline points="425.77,-675.17 445.54,-682.82 455.87,-686.82 463.86,-694.91 496.81,-703.04 507.87,-700.22 531.72,-706.36 549.92,-711.05 554.25,-713.47 571.89,-717.79 662.10,-739.89 682.54,-746.00" fill="none" stroke="#bcbcbc" stroke-width="8" stroke-linecap="round" stroke-linejoin="round" /><polyline points="-406.29,138.81 -363.73,123.36 -349.50,119.01 -335.17,114.63 -308.72,106.56 -288.15,103.60 -217.89,95.91 -203.77,95.14 -140.90,95.68 -102.61,96.01 -88.21,95.27 -65.14,97.61 -57.93,98.64 -43.22,100.74 1.19,110.49" fill="none" stroke="#bcbcbc" stroke-width="8" stroke-linecap="round" stroke-linejoin="round" /><polyline points="-203.54,-1124.37 -210.59,-1148.20 -236.77,-1236.72 -268.57,-1337.66 -275.14,-1355.68 -281.81,-1372.56 -290.24,-1396.90" fill="none" stroke="#bcbcbc" stroke-width="8" stroke-linecap="round" stroke-linejoin="round" /><polyline points="-279.69,302.91 -274.10,285.24 -217.53,106.88 -217.89,95.91" fill="none" stroke="#bcbcbc" stroke-width="8" stroke-linecap="round" stroke-linejoin="round" /><polyline points="-203.77,95.14 -192.57,-55.04 -191.45,-67.28 -189.74,-81.53 -189.71,-82.18 -188.97,-99.59 -185.23,-146.87 -183.13,-168.88 -180.24,-193.89 -177.62,-211.90 -175.26,-223.21 -172.30,-231.76 -166.48,-251.02 -154.47,-291.11 -139.19,-342.87 -122.34,-395.80 -118.90,-406.60 -116.14,-414.42" fill="none" stroke="#bcbcbc" stroke-width="8" stroke-linecap="round" stroke-linejoin="round" /><polyline points="-569.69,-214.13 -572.67,-200.82 -572.16,-196.56 -553.91,-44.64 -551.97,-28.55 -552.81,-12.00 -557.60,82.49 -559.59,121.97 -560.62,142.33 -562.46,178.62 -563.42,197.53 -565.48,205.03" fill="none" stroke="#bcbcbc" stroke-width="8" stroke-linecap="round" stroke-linejoin="round" /><polyline points="-654.98,-498.91 -721.33,-518.63 -729.76,-524.04 -771.06,-536.07 -782.66,-535.95 -834.55,-551.58 -842.93,-557.76 -890.15,-572.07 -948.08,-587.86 -948.36,-587.88 -957.97,-588.71" fill="none" stroke="#bcbcbc" stroke-width="8" stroke-linecap="round" stroke-linejoin="round" /><polyline points="554.25,-713.47 556.55,-710.44 566.18,-696.10 583.96,-669.59 600.71,-652.82 632.89,-616.69 627.45,-583.30 624.69,-570.78 620.85,-565.49 628.92,-553.55 641.40,-527.86 666.36,-479.73 678.64,-456.03 686.28,-434.73 689.73,-424.84" fill="none" stroke="#bcbcbc" stroke-width="8" stroke-linecap="round" stroke-linejoin="round" /><polyline points="722.30,-644.70 713.05,-641.82 652.12,-622.87 643.38,-620.06 632.89,-616.69" fill="none" stroke="#bcbcbc" stroke-width="8" stroke-linecap="round" stroke-linejoin="round" /><polyline points="284.42,-529.29 303.48,-535.46 441.79,-606.08 460.30,-615.12 525.49,-633.95 588.69,-651.72 600.71,-652.82" fill="none" stroke="#bcbcbc" stroke-width="8" stroke-linecap="round" stroke-linejoin="round" /><polyline points="299.49,-441.86 458.95,-516.06 465.66,-520.50 481.25,-525.03 587.50,-555.95 603.62,-562.12 620.85,-565.49" fill="none" stroke="#bcbcbc" stroke-width="8" stroke-linecap="round" stroke-linejoin="round" /><polyline points="266.96,-1997.30 331.50,-1989.32 337.99,-1988.52 363.01,-1982.38" fill="none" stroke="#bcbcbc" stroke-width="8" stroke-linecap="round" stroke-linejoin="round" /><polyline points="818.54,-1341.14 829.99,-1343.53 872.76,-1322.57 878.40,-1316.99 958.68,-1181.10 960.80,-1164.62 971.24,-1155.93 969.58,-1149.92 969.32,-1140.12 970.77,-1126.43 992.03,-1039.05 993.91,-978.52 996.89,-881.89 1001.89,-751.82 981.53,-695.14 968.41,-660.59 949.26,-611.89 943.72,-597.81 940.12,-593.87 934.33,-556.19" fill="none" stroke="#bcbcbc" stroke-width="8" stroke-linecap="round" stroke-linejoin="round" /><polyline points="966.98,-326.65 947.45,-335.14 898.66,-369.19 834.28,-414.42 798.87,-443.05 774.99,-468.63" fill="none" stroke="#bcbcbc" stroke-width="8" stroke-linecap="round" stroke-linejoin="round" /><polyline points="176.95,434.91 157.78,428.83 126.66,418.97 111.81,414.26 94.37,408.73 72.33,401.74 52.40,395.43 32.70,389.18 -55.14,361.31 -70.52,356.43 -89.63,350.38 -93.85,349.04 -144.08,335.77 -158.27,332.34 -176.05,328.04 -194.66,323.53 -261.71,307.27 -279.69,302.91 -299.01,296.20 -339.39,282.18 -354.60,276.90 -368.21,272.48 -431.43,250.00 -439.39,245.26 -443.22,237.01" fill="none" stroke="#bcbcbc" stroke-width="8" stroke-linecap="round" stroke-linejoin="round" /><polyline points="465.66,-520.50 461.00,-537.19 447.13,-586.94 441.79,-606.08 434.07,-620.38 433.36,-623.03 428.81,-639.88 434.10,-647.34 427.74,-668.57 425.77,-675.17" fill="none" stroke="#bcbcbc" stroke-width="8" stroke-linecap="round" stroke-linejoin="round" /><polyline points="442.46,-1129.38 455.65,-1135.59 527.73,-1175.33 568.94,-1201.82 598.00,-1221.65 604.42,-1226.43 627.80,-1242.68 652.05,-1260.59 667.39,-1271.75 685.69,-1285.13 749.28,-1313.82 757.53,-1313.39 769.58,-1319.09 818.54,-1341.14" fill="none" stroke="#bcbcbc" stroke-width="8" stroke-linecap="round" stroke-linejoin="round" /><polyline points="-356.53,-858.48 -346.13,-854.26 -339.26,-852.15 -210.35,-812.56 -190.66,-806.51" fill="none" stroke="#bcbcbc" stroke-width="8" stroke-linecap="round" stroke-linejoin="round" /><polyline points="-1277.30,-568.62 -1369.40,-596.49" fill="none" stroke="#bcbcbc" stroke-width="8" stroke-linecap="round" stroke-linejoin="round" /><polyline points="210.35,-1867.23 233.19,-1838.31 236.59,-1833.99 248.12,-1819.39 261.26,-1817.85 288.26,-1814.68 293.06,-1811.36" fill="none" stroke="#bcbcbc" stroke-width="8" stroke-linecap="round" stroke-linejoin="round" /><polyline points="1003.29,-580.75 967.10,-574.00 930.00,-553.84 895.61,-534.70 863.08,-518.44 823.78,-497.09 795.32,-479.81 739.07,-449.66 519.51,-339.21 462.58,-314.14 424.97,-297.87 406.34,-291.77 390.92,-288.89 365.68,-287.37 329.76,-292.45 240.14,-313.97 112.91,-343.61 -54.48,-394.10 -116.14,-414.42 -217.12,-445.60 -313.68,-477.44 -455.32,-533.01 -526.13,-563.50 -611.52,-601.44 -753.15,-679.03 -786.36,-701.05 -870.39,-753.90 -905.62,-789.14 -958.48,-857.58 -1045.56,-947.35 -1079.79,-977.51" fill="none" stroke="#bcbcbc" stroke-width="8" stroke-linecap="round" stroke-linejoin="round" /><polyline points="316.74,479.10 318.23,470.82 323.58,457.30 373.81,339.79 392.78,295.75 415.15,240.85 420.59,220.77" fill="none" stroke="#bcbcbc" stroke-width="8" stroke-linecap="round" stroke-linejoin="round" /><polyline points="-646.78,-17.03 -703.83,-44.64 -833.65,-107.47 -992.89,-184.53 -1007.10,-191.41" fill="none" stroke="#bcbcbc" stroke-width="8" stroke-linecap="round" stroke-linejoin="round" /><polyline points="290.88,-926.42 305.29,-941.17 343.59,-980.38 373.99,-1013.57" fill="none" stroke="#bcbcbc" stroke-width="8" stroke-linecap="round" stroke-linejoin="round" /><polyline points="-815.20,-839.07 -831.03,-860.02 -905.19,-958.21 -1011.06,-1043.87" fill="none" stroke="#bcbcbc" stroke-width="8" stroke-linecap="round" stroke-linejoin="round" /><polyline points="-1274.63,453.45 -1260.15,419.12 -1214.12,304.37 -1208.54,289.31 -1202.35,272.60 -1200.00,266.57 -1199.38,257.13 -1193.49,167.92 -1191.80,142.33" fill="none" stroke="#bcbcbc" stroke-width="8" stroke-linecap="round" stroke-linejoin="round" /><polyline points="-1306.03,-468.96 -1277.30,-568.62 -1239.39,-700.06 -1234.69,-716.33 -1229.47,-734.82 -1217.79,-776.20 -1216.56,-780.55 -1213.22,-793.86 -1207.88,-808.90 -1206.59,-812.55 -1199.85,-829.25 -1186.62,-858.43 -1182.66,-866.81" fill="none" stroke="#bcbcbc" stroke-width="8" stroke-linecap="round" stroke-linejoin="round" /><polyline points="-1234.69,-716.33 -1176.55,-701.47 -1053.38,-669.81 -983.21,-647.96 -953.94,-641.11" fill="none" stroke="#bcbcbc" stroke-width="8" stroke-linecap="round" stroke-linejoin="round" /><polyline points="-37.82,-1168.52 -35.84,-1180.62 -33.85,-1193.18 -25.32,-1235.20 -4.01,-1333.01 13.49,-1420.50 16.69,-1438.66 21.04,-1463.30 21.04,-1463.32" fill="none" stroke="#bcbcbc" stroke-width="8" stroke-linecap="round" stroke-linejoin="round" /><polyline points="-209.97,714.92 -184.01,648.70 -180.79,636.81 -77.76,375.29 -70.52,356.43 -64.66,340.42 -3.10,161.33 8.75,150.99" fill="none" stroke="#bcbcbc" stroke-width="8" stroke-linecap="round" stroke-linejoin="round" /><polyline points="143.19,-1219.15 143.18,-1219.17 139.53,-1238.32 138.96,-1240.65 130.06,-1276.84 130.07,-1276.96 124.00,-1301.50 98.29,-1389.60 95.05,-1399.04 77.68,-1446.23 72.04,-1460.32 68.40,-1469.41 63.68,-1479.73 63.67,-1479.75 63.67,-1479.79 60.22,-1517.74 59.89,-1536.37" fill="none" stroke="#bcbcbc" stroke-width="8" stroke-linecap="round" stroke-linejoin="round" /><polyline points="104.65,275.65 98.04,282.79 88.19,294.51 60.43,372.77 52.40,395.43" fill="none" stroke="#bcbcbc" stroke-width="8" stroke-linecap="round" stroke-linejoin="round" /><polyline points="-356.53,-858.48 -352.74,-868.75 -351.88,-871.14 -333.86,-921.48 -327.10,-942.69 -271.85,-1105.12" fill="none" stroke="#bcbcbc" stroke-width="8" stroke-linecap="round" stroke-linejoin="round" /><polyline points="-70.75,-630.76 -65.12,-645.74 -49.85,-686.28 -43.40,-703.42 -39.03,-715.03 -26.78,-747.56 -18.68,-769.06 -17.60,-771.95 2.01,-824.02 10.21,-821.48 14.65,-833.57 22.50,-854.95 21.00,-864.67 41.85,-921.44 43.99,-927.27 47.95,-930.91 51.27,-933.96 72.19,-991.13 75.21,-1006.78 105.22,-1090.14 112.32,-1095.69 126.76,-1136.53 124.19,-1142.80 136.83,-1180.94 130.27,-1215.00" fill="none" stroke="#bcbcbc" stroke-width="8" stroke-linecap="round" stroke-linejoin="round" /><polyline points="466.02,-2181.43 457.61,-2195.22 413.43,-2267.70" fill="none" stroke="#bcbcbc" stroke-width="8" stroke-linecap="round" stroke-linejoin="round" /><polyline points="604.42,-1226.43 807.18,-1096.06 807.23,-1095.97 807.23,-1095.95 844.73,-1091.08" fill="none" stroke="#bcbcbc" stroke-width="8" stroke-linecap="round" stroke-linejoin="round" /><polyline points="523.10,-1498.77 738.84,-1390.49 745.34,-1385.64 744.91,-1350.19 749.28,-1313.82" fill="none" stroke="#bcbcbc" stroke-width="8" stroke-linecap="round" stroke-linejoin="round" /><polyline points="111.81,414.26 104.05,437.93 72.61,533.78 19.15,695.21 15.36,706.67 11.51,718.27 10.44,730.63" fill="none" stroke="#bcbcbc" stroke-width="8" stroke-linecap="round" stroke-linejoin="round" /><polyline points="719.12,-168.03 720.41,-180.06 720.69,-191.28 720.60,-191.67 712.95,-224.71 709.82,-238.52 708.31,-245.18 706.76,-251.98 698.37,-288.95 681.98,-362.82 670.06,-407.23 668.37,-414.10" fill="none" stroke="#bcbcbc" stroke-width="8" stroke-linecap="round" stroke-linejoin="round" /><polyline points="-351.93,508.20 -346.58,493.00 -286.51,322.29 -279.69,302.91" fill="none" stroke="#bcbcbc" stroke-width="8" stroke-linecap="round" stroke-linejoin="round" /><polyline points="996.89,-881.89 979.22,-886.87 859.19,-1071.03 844.73,-1091.08" fill="none" stroke="#bcbcbc" stroke-width="8" stroke-linecap="round" stroke-linejoin="round" /><polyline points="-976.20,-440.02 -538.76,-335.23 -508.60,-324.21" fill="none" stroke="#bcbcbc" stroke-width="8" stroke-linecap="round" stroke-linejoin="round" /><polyline points="403.48,-2077.36 573.87,-2014.24 597.86,-2018.34" fill="none" stroke="#bcbcbc" stroke-width="8" stroke-linecap="round" stroke-linejoin="round" />
    <polyline points="167.20,352.80 177.68,323.26 198.05,265.84 211.21,241.38 230.15,188.36 237.71,167.20" fill="none" stroke="#ffffff" stroke-width="16" stroke-linecap="round" stroke-linejoin="round" />
    <polyline points="167.20,352.80 177.68,323.26 198.05,265.84 211.21,241.38 230.15,188.36 237.71,167.20" fill="none" stroke="#111111" stroke-width="9" stroke-linecap="round" stroke-linejoin="round" />
    
            <g transform="translate(167.20,352.80)">
              <circle r="19" fill="#ffffff" stroke="#111111" stroke-width="4" />
              <text text-anchor="middle" dominant-baseline="central" font-family="Helvetica, Arial, sans-serif"
                font-size="18" font-weight="700" fill="#111111">1</text>
            </g>
            
            <g transform="translate(237.71,167.20)">
              <circle r="19" fill="#ffffff" stroke="#111111" stroke-width="4" />
              <text text-anchor="middle" dominant-baseline="central" font-family="Helvetica, Arial, sans-serif"
                font-size="18" font-weight="700" fill="#111111">2</text>
            </g>
            
  </g>
</svg>
