<svg xmlns="http://www.w3.org/2000/svg" width="520" height="520" viewBox="0 0 520 520">
  <rect width="100%" height="100%" fill="#ffffff" />
  <g>
    <polyline points="2322.23,-364.96 2326.18,-343.98 2351.63,-165.94 2347.74,-121.43" fill="none" stroke="#bcbcbc" stroke-width="8" stroke-linecap="round" stroke-linejoin="round" /><polyline points="1804.96,1118.66 1811.11,1099.74 1843.71,999.48 1847.56,987.67 1851.44,975.26 1933.42,713.85 1940.01,692.83 1924.91,655.64" fill="none" stroke="#bcbcbc" stroke-width="8" stroke-linecap="round" stroke-linejoin="round" /><polyline points="1238.73,886.15 1237.41,871.14 1264.21,721.03 1267.97,702.26 1270.77,692.43 1278.15,654.36 1286.44,607.77 1295.47,566.73 1304.43,525.79 1310.07,514.25 1313.76,507.17" fill="none" stroke="#bcbcbc" stroke-width="8" stroke-linecap="round" stroke-linejoin="round" /><polyline points="1394.29,-172.66 1387.92,-192.09 1322.06,-392.95 1318.84,-401.38" fill="none" stroke="#bcbcbc" stroke-width="8" stroke-linecap="round" stroke-linejoin="round" /><polyline points="1056.35,1595.20 1058.32,1576.03 1059.11,1567.23 1066.28,1487.92 1074.13,1418.09 1075.96,1401.78 1077.67,1382.22 1077.86,1380.58 1082.31,1341.68 1086.14,1302.15 1090.37,1264.00 1093.22,1234.29 1094.40,1215.96 1095.45,1199.04 1097.32,1179.96" fill="none" stroke="#bcbcbc" stroke-width="8" stroke-linecap="round" stroke-linejoin="round" /><polyline points="1966.37,1165.26 1971.06,1150.52 2004.11,1046.63 2007.86,1034.82 2013.20,1018.01 2017.03,1005.95 2046.28,879.79" fill="none" stroke="#bcbcbc" stroke-width="8" stroke-linecap="round" stroke-linejoin="round" /><polyline points="1837.90,-889.74 1850.11,-887.87 2186.42,-836.19" fill="none" stroke="#bcbcbc" stroke-width="8" stroke-linecap="round" stroke-linejoin="round" /><polyline points="974.54,1140.78 939.53,1139.15 918.19,1138.16 906.59,1137.62 896.42,1137.15 817.15,1133.46 706.90,1128.34 654.35,1120.88 636.76,1118.39 621.50,1115.70 518.14,1097.45 503.69,1094.90 500.49,1094.35 482.64,1091.29 468.93,1088.94 381.35,1081.20 364.66,1079.73 358.55,1079.19 339.61,1077.87 302.53,1075.30" fill="none" stroke="#bcbcbc" stroke-width="8" stroke-linecap="round" stroke-linejoin="round" /><polyline points="1483.09,1039.23 1489.87,1019.93 1550.97,850.56 1624.47,636.93 1629.18,623.53 1632.46,614.17 1635.12,606.49" fill="none" stroke="#bcbcbc" stroke-width="8" stroke-linecap="round" stroke-linejoin="round" /><polyline points="358.55,1079.19 356.99,1068.30 356.62,1056.47 358.93,1032.65 364.26,989.16 367.81,974.56 373.56,921.79 374.61,910.03 376.30,894.92 377.55,883.70 379.91,870.98 384.29,836.75 387.33,810.56 391.79,799.85" fill="none" stroke="#bcbcbc" stroke-width="8" stroke-linecap="round" stroke-linejoin="round" /><polyline points="296.01,786.47 377.51,797.86 391.79,799.85 400.64,801.26 437.17,807.08 521.34,820.49 535.78,822.90" fill="none" stroke="#bcbcbc" stroke-width="8" stroke-linecap="round" stroke-linejoin="round" /><polyline points="1795.82,-282.62 1796.35,-275.21 1797.44,-267.71 1800.09,-261.97 1805.04,-255.56 1814.21,-247.22 1835.93,-234.01 2003.49,-128.88 2106.68,9.48 2184.63,201.84 2189.71,214.55" fill="none" stroke="#bcbcbc" stroke-width="8" stroke-linecap="round" stroke-linejoin="round" /><polyline points="1768.98,278.68 1772.46,284.43 1773.36,285.92 1776.23,300.43 1795.90,395.50 1802.14,425.67 1806.60,447.16 1813.56,490.72 1816.81,510.81 1819.05,523.06 1821.51,534.13 1824.44,540.59 1828.74,548.07 1831.05,551.59 1874.58,613.92 1898.13,651.01 1904.27,659.87" fill="none" stroke="#bcbcbc" stroke-width="8" stroke-linecap="round" stroke-linejoin="round" /><polyline points="519.13,1468.99 521.45,1454.73 523.60,1444.41 524.18,1443.04 553.16,1374.14 571.62,1329.36 577.23,1315.17 583.17,1300.14 589.63,1287.22 590.67,1284.69 599.51,1263.34 606.34,1244.44 612.20,1227.10 615.92,1214.85 620.09,1199.71 624.89,1179.41 628.54,1162.94 632.91,1139.95 633.82,1134.83 636.76,1118.39" fill="none" stroke="#bcbcbc" stroke-width="8" stroke-linecap="round" stroke-linejoin="round" /><polyline points="1923.09,-455.16 2015.49,-390.59 2027.94,-387.95 2037.05,-377.53" fill="none" stroke="#bcbcbc" stroke-width="8" stroke-linecap="round" stroke-linejoin="round" /><polyline points="1535.12,141.12 1547.33,145.81 1600.34,163.16 1723.32,210.32 1730.22,217.20 1733.46,222.33" fill="none" stroke="#bcbcbc" stroke-width="8" stroke-linecap="round" stroke-linejoin="round" /><polyline points="1764.28,1353.00 1772.65,1331.17 1813.99,1219.01 1843.22,1134.26 1849.29,1131.47" fill="none" stroke="#bcbcbc" stroke-width="8" stroke-linecap="round" stroke-linejoin="round" /><polyline points="1179.88,1210.77 1186.40,1196.35 1187.05,1194.93 1198.21,1157.48 1216.50,1095.86 1221.18,1080.08 1224.82,1067.83 1225.30,1060.69 1224.56,1044.89" fill="none" stroke="#bcbcbc" stroke-width="8" stroke-linecap="round" stroke-linejoin="round" /><polyline points="1939.77,283.61 1929.29,285.77 1905.54,281.54 1901.86,271.74 1860.70,256.05 1850.97,258.60 1813.84,244.96 1808.30,248.83" fill="none" stroke="#bcbcbc" stroke-width="8" stroke-linecap="round" stroke-linejoin="round" /><polyline points="1878.66,-989.43 1897.31,-984.86 1907.63,-983.07 2152.96,-940.53" fill="none" stroke="#bcbcbc" stroke-width="8" stroke-linecap="round" stroke-linejoin="round" /><polyline points="1687.99,1284.69 1698.19,1255.92 1718.02,1200.01 1730.84,1176.19 1749.28,1124.55 1756.64,1103.95" fill="none" stroke="#bcbcbc" stroke-width="8" stroke-linecap="round" stroke-linejoin="round" /><polyline points="1292.95,275.07 1285.11,292.44 1284.16,294.54 1256.91,365.60 1229.44,443.83 1222.11,464.69 1217.96,475.47" fill="none" stroke="#bcbcbc" stroke-width="8" stroke-linecap="round" stroke-linejoin="round" /><polyline points="1692.69,-523.42 1701.35,-511.67 1707.53,-495.52 1717.15,-472.34 1732.59,-435.87 1746.26,-403.14 1761.96,-367.20 1773.60,-339.50 1775.33,-335.53 1775.43,-335.28 1784.80,-313.37 1787.60,-307.15 1790.27,-301.22 1793.08,-295.67 1795.20,-290.02 1795.82,-282.62" fill="none" stroke="#bcbcbc" stroke-width="8" stroke-linecap="round" stroke-linejoin="round" /><polyline points="1029.93,625.38 1034.46,622.91 1040.80,617.87 1043.97,611.33 1086.07,451.68 1087.34,442.68 1092.48,426.23" fill="none" stroke="#bcbcbc" stroke-width="8" stroke-linecap="round" stroke-linejoin="round" /><polyline points="2502.13,375.55 2508.10,394.51 2512.31,414.42 2504.12,490.30 2494.66,547.38 2489.50,566.85 2489.03,568.61 2484.50,579.12 2478.34,590.26 2463.93,608.48 2470.91,644.10 2448.34,720.56 2435.88,762.79 2410.39,831.91 2373.07,916.06 2327.49,996.71 2313.26,1022.92 2287.52,1065.98 2184.71,1211.91 2162.18,1242.26 2074.95,1356.26 2024.87,1413.24 1954.82,1484.43 1948.34,1485.10 1932.52,1498.03" fill="none" stroke="#bcbcbc" stroke-width="8" stroke-linecap="round" stroke-linejoin="round" /><polyline points="1233.49,1623.77 1262.19,1534.75 1266.89,1520.06 1273.26,1510.80 1286.97,1469.66 1291.43,1455.68 1348.05,1278.41 1353.75,1260.58 1358.44,1244.91 1425.26,1034.61" fill="none" stroke="#bcbcbc" stroke-width="8" stroke-linecap="round" stroke-linejoin="round" /><polyline points="1905.83,-31.62 1930.64,-58.72 1937.96,-67.54 1988.09,-138.55" fill="none" stroke="#bcbcbc" stroke-width="8" stroke-linecap="round" stroke-linejoin="round" /><polyline points="1409.93,-20.87 1478.25,2.91 1482.03,9.04 1501.43,15.55 1512.95,19.49 1568.02,38.09" fill="none" stroke="#bcbcbc" stroke-width="8" stroke-linecap="round" stroke-linejoin="round" /><polyline points="2005.45,-493.69 2037.05,-377.53 2073.63,-240.69 2079.18,-229.28 2080.06,-216.26 2104.87,-169.95 2171.82,-45.10 2186.45,-23.51 2190.69,-17.19 2290.72,169.82 2336.69,211.61 2343.14,219.94 2352.23,227.71 2439.51,302.35 2445.44,307.41 2461.11,315.73" fill="none" stroke="#bcbcbc" stroke-width="8" stroke-linecap="round" stroke-linejoin="round" /><polyline points="1665.98,1642.66 1883.67,1516.21 1922.41,1496.40 1932.52,1498.03" fill="none" stroke="#bcbcbc" stroke-width="8" stroke-linecap="round" stroke-linejoin="round" /><polyline points="1902.00,1461.76 1915.51,1445.71 2036.76,1203.77 2044.79,1187.90 2051.50,1172.20 2090.66,1075.34 2102.33,1046.16 2136.09,944.00 2157.97,812.65 2160.57,793.53" fill="none" stroke="#bcbcbc" stroke-width="8" stroke-linecap="round" stroke-linejoin="round" /><polyline points="1808.42,38.92 1806.30,41.09 1803.38,51.27 1803.09,52.29 1789.93,102.96 1793.38,116.18 1790.51,128.04 1786.76,143.56 1777.13,154.72 1766.20,198.98 1753.33,208.71 1739.59,218.13 1733.46,222.33" fill="none" stroke="#bcbcbc" stroke-width="8" stroke-linecap="round" stroke-linejoin="round" /><polyline points="1292.95,275.07 1298.55,260.73 1332.19,174.50 1339.52,155.69 1345.57,140.20 1388.55,30.08 1407.90,-15.96 1409.93,-20.87 1424.97,-57.24 1458.72,-141.02 1471.07,-176.69 1473.82,-184.87 1477.52,-194.14" fill="none" stroke="#bcbcbc" stroke-width="8" stroke-linecap="round" stroke-linejoin="round" /><polyline points="1669.37,-247.67 1675.87,-228.30 1889.35,-45.95 2005.85,55.40 2179.84,206.65 2195.03,218.80 2201.83,223.06 2232.02,250.46 2272.34,284.85 2363.80,362.83 2393.34,388.23 2412.94,411.68" fill="none" stroke="#bcbcbc" stroke-width="8" stroke-linecap="round" stroke-linejoin="round" /><polyline points="2022.34,-561.88 2033.17,-568.82 2097.32,-595.48 2110.50,-609.35" fill="none" stroke="#bcbcbc" stroke-width="8" stroke-linecap="round" stroke-linejoin="round" /><polyline points="2096.43,1060.92 2007.86,1034.82 1847.56,987.67" fill="none" stroke="#bcbcbc" stroke-width="8" stroke-linecap="round" stroke-linejoin="round" /><polyline points="1810.55,-822.89 1822.64,-814.54 2216.84,-726.83" fill="none" stroke="#bcbcbc" stroke-width="8" stroke-linecap="round" stroke-linejoin="round" /><polyline points="2297.47,475.00 2277.10,429.67 2231.89,321.84 2228.52,313.27 2220.78,293.59 2191.64,219.43 2189.81,214.62" fill="none" stroke="#bcbcbc" stroke-width="8" stroke-linecap="round" stroke-linejoin="round" /><polyline points="1692.69,-523.42 1670.81,-529.64 1654.73,-534.43 1622.04,-544.14 1605.43,-548.88 1595.92,-551.52 1583.50,-555.08" fill="none" stroke="#bcbcbc" stroke-width="8" stroke-linecap="round" stroke-linejoin="round" /><polyline points="1122.07,69.65 1120.96,66.03 1119.94,63.50 1115.43,52.29 1097.96,11.55 1081.35,-29.83 1077.76,-39.60 1073.63,-50.86 1070.68,-60.06 1065.80,-73.87 1065.28,-75.32 1049.40,-114.48 1020.23,-188.08 1013.68,-191.81 1009.02,-203.75 999.71,-236.07 983.78,-276.13 980.34,-285.24" fill="none" stroke="#bcbcbc" stroke-width="8" stroke-linecap="round" stroke-linejoin="round" /><polyline points="1262.19,1534.75 1278.75,1539.83 1332.35,1556.16 1349.13,1561.27" fill="none" stroke="#bcbcbc" stroke-width="8" stroke-linecap="round" stroke-linejoin="round" /><polyline points="2263.04,-542.60 2266.16,-555.23 2264.89,-560.03 2263.36,-565.81 2253.57,-601.66 2231.76,-677.45 2220.25,-716.19 2216.84,-726.83 2186.42,-836.19 2169.99,-895.18 2152.96,-940.53 2137.56,-981.45 2122.24,-1009.58 2107.35,-1024.45 1993.03,-1164.14 1984.57,-1174.09 1978.97,-1183.28" fill="none" stroke="#bcbcbc" stroke-width="8" stroke-linecap="round" stroke-linejoin="round" /><polyline points="1795.82,-282.62 1789.92,-280.37 1779.02,-277.36 1777.93,-277.06 1732.40,-265.41 1680.05,-250.68 1669.37,-247.67 1664.61,-246.15 1652.03,-242.11 1641.28,-239.12 1594.34,-226.06 1517.13,-204.13 1488.35,-196.85 1477.52,-194.14 1426.07,-181.51 1394.29,-172.66 1326.98,-153.85 1260.46,-135.11 1252.76,-132.97 1197.17,-117.54 1171.52,-110.42 1158.57,-104.30 1134.06,-92.15 1085.37,-67.44 1081.98,-65.72 1070.68,-60.06 1063.78,-56.61 1054.16,-51.57 1019.96,-33.64 957.63,1.33 905.57,28.61 898.13,32.51 888.18,33.13 882.20,36.30 881.01,36.94 824.53,67.89 812.70,67.84 799.13,74.94 794.38,77.42 790.38,79.51 780.94,84.45 773.51,101.42 741.54,118.54 731.38,123.99 720.38,129.97 675.91,154.17 652.92,166.68 641.33,170.02" fill="none" stroke="#bcbcbc" stroke-width="8" stroke-linecap="round" stroke-linejoin="round" /><polyline points="2435.88,762.79 2412.15,764.96 2338.02,771.76 2334.68,772.06 2329.95,772.50 2322.30,773.20 2250.42,779.80 2225.42,777.48 2196.31,784.77 2172.99,790.49 2160.57,793.53 2129.71,794.71 2103.00,793.35 2089.38,791.90 2077.79,788.39 2069.26,783.68 2037.47,761.20 1960.25,708.16 1952.97,703.22 1945.55,698.19 1940.01,692.83" fill="none" stroke="#bcbcbc" stroke-width="8" stroke-linecap="round" stroke-linejoin="round" /><polyline points="686.80,-132.71 714.82,-77.85 719.06,-62.17 742.66,-17.13 752.41,-4.25 791.86,72.52 794.38,77.42" fill="none" stroke="#bcbcbc" stroke-width="8" stroke-linecap="round" stroke-linejoin="round" /><polyline points="1545.52,355.16 1541.33,366.69 1540.15,370.28 1534.68,386.87 1500.01,483.59 1482.80,531.63 1482.21,533.26 1475.30,548.19 1471.34,557.06" fill="none" stroke="#bcbcbc" stroke-width="8" stroke-linecap="round" stroke-linejoin="round" /><polyline points="2005.45,-493.69 2001.60,-501.91 1991.50,-503.24 1958.82,-495.75 1952.18,-496.61 1946.98,-503.58 1937.74,-546.10 1987.82,-553.85 2011.00,-560.70 2022.34,-561.88 2034.55,-518.46" fill="none" stroke="#bcbcbc" stroke-width="8" stroke-linecap="round" stroke-linejoin="round" /><polyline points="2186.45,-23.51 2199.35,-30.75 2264.15,-69.80 2281.46,-80.11 2311.78,-98.18 2361.64,-130.43 2373.28,-138.79 2460.75,-193.06" fill="none" stroke="#bcbcbc" stroke-width="8" stroke-linecap="round" stroke-linejoin="round" /><polyline points="2492.21,232.79 2470.10,226.21 2457.24,215.66 2408.11,173.15 2406.43,171.65 2394.55,161.05 2387.57,148.67 2264.15,-69.80" fill="none" stroke="#bcbcbc" stroke-width="8" stroke-linecap="round" stroke-linejoin="round" /><polyline points="1099.30,215.48 1292.95,275.07 1308.75,280.08 1453.26,325.89 1456.28,326.85 1477.93,333.71 1488.58,337.09 1502.41,340.87 1530.94,350.53 1545.52,355.16 1558.65,359.32 1666.20,393.44 1779.73,429.11 1789.12,432.06 1802.14,425.67" fill="none" stroke="#bcbcbc" stroke-width="8" stroke-linecap="round" stroke-linejoin="round" /><polyline points="1668.70,-740.58 1752.59,-817.66 1766.79,-830.70" fill="none" stroke="#bcbcbc" stroke-width="8" stroke-linecap="round" stroke-linejoin="round" /><polyline points="264.01,503.16 571.82,536.15" fill="none" stroke="#bcbcbc" stroke-width="8" stroke-linecap="round" stroke-linejoin="round" /><polyline points="1192.57,-355.98 1257.26,-379.11 1323.99,-403.24 1365.46,-419.36 1492.05,-465.40 1528.79,-478.11 1536.46,-480.76 1545.66,-483.92 1555.99,-487.48 1557.26,-487.91 1578.11,-496.30 1587.18,-499.94" fill="none" stroke="#bcbcbc" stroke-width="8" stroke-linecap="round" stroke-linejoin="round" /><polyline points="1627.08,1209.55 1687.99,1284.69 1725.28,1322.24 1741.42,1333.86 1764.28,1353.00 1785.74,1371.02 1804.18,1389.01 1804.64,1398.16" fill="none" stroke="#bcbcbc" stroke-width="8" stroke-linecap="round" stroke-linejoin="round" /><polyline points="1692.69,-523.42 1716.56,-583.25 1755.20,-681.75 1810.55,-822.89 1837.90,-889.74 1878.66,-989.43 1912.09,-1071.09 1918.07,-1081.92 1947.46,-1129.98 1949.36,-1133.08 1960.11,-1154.23 1978.97,-1183.28 1989.50,-1199.48 2004.40,-1222.42" fill="none" stroke="#bcbcbc" stroke-width="8" stroke-linecap="round" stroke-linejoin="round" /><polyline points="1129.56,1076.30 1125.65,1079.43 1123.07,1083.15 1117.80,1098.68 1114.16,1109.88 1097.34,1160.17 1095.03,1167.43 1093.59,1171.93 1078.15,1167.50 1040.57,1154.90 1003.32,1142.41 974.54,1140.78" fill="none" stroke="#bcbcbc" stroke-width="8" stroke-linecap="round" stroke-linejoin="round" /><polyline points="393.52,1426.24 454.90,1267.73 461.73,1250.48 467.85,1233.86 475.26,1213.77 484.33,1182.18 493.80,1142.92 497.67,1114.79 500.49,1094.35 504.46,1079.27 518.91,965.93 535.78,822.90 544.51,754.72 554.26,674.61 571.82,536.15 574.60,512.61 592.35,367.80 592.36,359.74 596.28,316.77 607.60,226.02 610.44,210.19 613.40,201.31 618.03,191.53 622.53,183.94 632.46,173.19 641.35,170.14" fill="none" stroke="#bcbcbc" stroke-width="8" stroke-linecap="round" stroke-linejoin="round" /><polyline points="1733.46,222.33 1736.82,227.66 1748.07,245.23 1764.92,272.24 1768.98,278.68 1775.71,273.58 1808.30,248.83" fill="none" stroke="#bcbcbc" stroke-width="8" stroke-linecap="round" stroke-linejoin="round" /><polyline points="1755.20,-681.75 2086.83,-621.80 2121.66,-603.47 2251.59,-539.06 2263.04,-542.60" fill="none" stroke="#bcbcbc" stroke-width="8" stroke-linecap="round" stroke-linejoin="round" /><polyline points="1122.07,69.65 1116.19,78.24 1063.28,104.06 1024.42,153.45 982.49,179.41 953.81,201.06 926.45,223.38 912.42,236.17 887.65,267.60 859.94,307.31 855.37,314.67" fill="none" stroke="#bcbcbc" stroke-width="8" stroke-linecap="round" stroke-linejoin="round" /><polyline points="1178.01,105.08 1175.71,110.18 1170.69,117.52 1161.21,129.18 1105.33,199.78 1075.76,279.42 926.52,223.32" fill="none" stroke="#bcbcbc" stroke-width="8" stroke-linecap="round" stroke-linejoin="round" /><polyline points="953.81,201.07 948.03,183.57 923.06,107.96 913.36,93.02 897.13,44.33 895.73,40.13 898.13,32.51 894.24,20.10 816.20,-229.07" fill="none" stroke="#bcbcbc" stroke-width="8" stroke-linecap="round" stroke-linejoin="round" /><polyline points="1868.19,-1158.46 1929.86,-1156.84 1932.74,-1156.76 1944.56,-1156.42 1960.11,-1154.23" fill="none" stroke="#bcbcbc" stroke-width="8" stroke-linecap="round" stroke-linejoin="round" /><polyline points="1550.97,850.56 1529.91,850.30 1351.60,874.24 1338.75,875.59 1324.06,877.15 1238.73,886.15 1123.78,898.29 1062.83,904.72 1029.12,908.27 1001.75,911.60 987.69,913.31 971.86,915.24 895.38,924.53 877.05,926.76 820.57,932.93 518.91,965.93" fill="none" stroke="#bcbcbc" stroke-width="8" stroke-linecap="round" stroke-linejoin="round" /><polyline points="1286.97,1469.66 1271.18,1464.57 1197.40,1440.83 1182.48,1436.03 1169.54,1431.86 1091.37,1406.74 1075.96,1401.78 1055.58,1395.22 931.15,1355.18 917.14,1350.68" fill="none" stroke="#bcbcbc" stroke-width="8" stroke-linecap="round" stroke-linejoin="round" /><polyline points="1595.47,-24.10 1638.39,-10.72 1795.32,37.74 1796.79,38.19 1808.42,38.92" fill="none" stroke="#bcbcbc" stroke-width="8" stroke-linecap="round" stroke-linejoin="round" /><polyline points="2037.05,-377.53 2250.53,-373.77" fill="none" stroke="#bcbcbc" stroke-width="8" stroke-linecap="round" stroke-linejoin="round" /><polyline points="1932.52,1498.03 1902.00,1461.76 1889.20,1446.87 1878.19,1436.59 1863.54,1425.65 1833.61,1407.69 1804.64,1398.16 1745.69,1379.96 1697.48,1364.66 1725.28,1322.24" fill="none" stroke="#bcbcbc" stroke-width="8" stroke-linecap="round" stroke-linejoin="round" /><polyline points="1627.08,1209.55 1584.59,1157.10 1576.50,1147.12 1533.70,1088.16 1524.02,1070.16 1526.34,1048.72 1539.24,1048.60 1571.08,1054.72 1619.52,1064.04" fill="none" stroke="#bcbcbc" stroke-width="8" stroke-linecap="round" stroke-linejoin="round" /><polyline points="1071.19,789.30 1079.02,806.16 1123.78,898.29 1190.32,1035.28 1198.81,1052.75" fill="none" stroke="#bcbcbc" stroke-width="8" stroke-linecap="round" stroke-linejoin="round" /><polyline points="354.39,1206.59 370.39,1213.14 445.36,1243.79 461.73,1250.48 478.95,1257.52 567.21,1293.61 583.17,1300.14" fill="none" stroke="#bcbcbc" stroke-width="8" stroke-linecap="round" stroke-linejoin="round" /><polyline points="1108.02,652.70 1264.21,721.03" fill="none" stroke="#bcbcbc" stroke-width="8" stroke-linecap="round" stroke-linejoin="round" /><polyline points="1808.42,38.92 1832.21,40.17 1833.73,41.52 1844.41,50.99 1860.09,64.99 1862.99,70.62 1917.07,117.98 1921.06,125.53 1959.09,159.09 1968.66,162.01 1998.24,187.91 2004.86,190.94 2049.47,228.78 2059.40,237.58 2064.88,246.31" fill="none" stroke="#bcbcbc" stroke-width="8" stroke-linecap="round" stroke-linejoin="round" /><polyline points="310.30,652.86 554.26,674.61" fill="none" stroke="#bcbcbc" stroke-width="8" stroke-linecap="round" stroke-linejoin="round" /><polyline points="855.00,1561.26 862.56,1545.17 864.50,1538.01 875.10,1498.95 913.47,1363.63 917.14,1350.68 921.03,1336.47 938.41,1272.89 967.77,1165.53 974.54,1140.78" fill="none" stroke="#bcbcbc" stroke-width="8" stroke-linecap="round" stroke-linejoin="round" /><polyline points="1071.19,789.30 1108.02,652.70 1029.93,625.38 1009.48,637.45 1000.16,644.55 993.26,653.88 988.40,666.21 970.44,732.59 984.93,739.97 999.57,743.52 1031.93,751.94 1056.16,759.66 1071.19,789.30" fill="none" stroke="#bcbcbc" stroke-width="8" stroke-linecap="round" stroke-linejoin="round" /><polyline points="970.44,732.59 953.33,730.21 554.26,674.61" fill="none" stroke="#bcbcbc" stroke-width="8" stroke-linecap="round" stroke-linejoin="round" /><polyline points="1619.52,1064.04 1656.53,1072.13 1756.64,1103.94 1784.63,1112.80 1851.08,1131.99 1918.01,1151.29 1967.56,1165.61 2046.80,1188.48 2063.17,1193.22 2103.17,1206.62 2169.01,1224.16 2174.81,1225.25" fill="none" stroke="#bcbcbc" stroke-width="8" stroke-linecap="round" stroke-linejoin="round" /><polyline points="1666.48,1642.38 1652.97,1645.77 1638.36,1686.47 1615.72,1680.03 1512.75,1644.94 1500.36,1642.30 1472.79,1640.32 1348.09,1640.82 1320.61,1637.32 1258.53,1627.83 1233.49,1623.77 1055.90,1595.12 987.13,1584.15 855.98,1561.43 834.80,1557.23 538.81,1474.50 520.14,1469.27 393.52,1426.24 362.37,1415.19 284.56,1382.94 240.21,1366.17" fill="none" stroke="#bcbcbc" stroke-width="8" stroke-linecap="round" stroke-linejoin="round" /><polyline points="1937.74,-546.10 1924.92,-548.74 1753.85,-528.52 1692.69,-523.42" fill="none" stroke="#bcbcbc" stroke-width="8" stroke-linecap="round" stroke-linejoin="round" /><polyline points="1619.52,1064.04 1625.51,1054.01 1661.41,961.81 1701.52,822.40 1711.75,792.38 1717.23,784.20 1755.95,659.90 1757.88,645.06 1759.34,635.36" fill="none" stroke="#bcbcbc" stroke-width="8" stroke-linecap="round" stroke-linejoin="round" /><polyline points="1795.82,-282.62 1799.90,-284.18 1805.45,-288.58 1813.86,-298.43 1923.09,-455.16 1952.18,-496.61" fill="none" stroke="#bcbcbc" stroke-width="8" stroke-linecap="round" stroke-linejoin="round" /><polyline points="2281.97,293.11 2284.20,286.68 2339.11,222.08 2343.14,219.94 2352.68,206.89 2384.62,170.20 2394.55,161.05" fill="none" stroke="#bcbcbc" stroke-width="8" stroke-linecap="round" stroke-linejoin="round" /><polyline points="2329.95,772.50 2329.19,763.85 2328.60,757.17 2325.71,744.38 2322.25,736.04 2317.94,714.13 2317.54,706.20 2314.62,688.46 2301.55,681.64 2291.11,685.63 2272.41,690.11 2257.61,692.42 2243.42,695.84 2223.83,700.31 2214.89,702.35" fill="none" stroke="#bcbcbc" stroke-width="8" stroke-linecap="round" stroke-linejoin="round" /><polyline points="887.40,455.25 927.33,361.65 929.55,355.56" fill="none" stroke="#bcbcbc" stroke-width="8" stroke-linecap="round" stroke-linejoin="round" /><polyline points="1939.77,283.61 1959.02,276.15 1969.08,272.25 1976.86,264.37 2008.95,256.46 2019.72,259.21 2042.94,253.22 2060.66,248.66 2064.88,246.31 2082.06,242.10 2169.90,220.58 2189.81,214.62" fill="none" stroke="#bcbcbc" stroke-width="8" stroke-linecap="round" stroke-linejoin="round" /><polyline points="1129.56,1076.30 1170.99,1061.25 1184.86,1057.02 1198.81,1052.75 1224.56,1044.89 1244.59,1042.01 1313.01,1034.52 1326.76,1033.77 1387.97,1034.30 1425.26,1034.61 1439.29,1033.90 1461.75,1036.17 1468.77,1037.18 1483.09,1039.23 1526.34,1048.72" fill="none" stroke="#bcbcbc" stroke-width="8" stroke-linecap="round" stroke-linejoin="round" /><polyline points="1326.98,-153.85 1320.12,-177.06 1294.62,-263.27 1263.65,-361.57 1257.26,-379.11 1250.77,-395.56 1242.56,-419.26" fill="none" stroke="#bcbcbc" stroke-width="8" stroke-linecap="round" stroke-linejoin="round" /><polyline points="1252.83,1236.10 1258.27,1218.90 1313.36,1045.21 1313.01,1034.52" fill="none" stroke="#bcbcbc" stroke-width="8" stroke-linecap="round" stroke-linejoin="round" /><polyline points="1326.76,1033.77 1337.66,887.52 1338.75,875.59 1340.42,861.72 1340.45,861.09 1341.17,844.13 1344.81,798.09 1346.86,776.65 1349.66,752.29 1352.22,734.76 1354.52,723.74 1357.40,715.42 1363.07,696.66 1374.77,657.62 1389.65,607.21 1406.05,555.66 1409.39,545.15 1412.08,537.53" fill="none" stroke="#bcbcbc" stroke-width="8" stroke-linecap="round" stroke-linejoin="round" /><polyline points="970.44,732.59 967.54,745.55 968.04,749.69 985.81,897.64 987.69,913.31 986.87,929.43 982.22,1021.45 980.27,1059.90 979.27,1079.73 977.48,1115.07 976.55,1133.48 974.54,1140.78" fill="none" stroke="#bcbcbc" stroke-width="8" stroke-linecap="round" stroke-linejoin="round" /><polyline points="887.40,455.25 822.78,436.05 814.57,430.78 774.36,419.07 763.06,419.18 712.54,403.96 704.37,397.94 658.40,384.01 601.98,368.63 601.71,368.60 592.35,367.80" fill="none" stroke="#bcbcbc" stroke-width="8" stroke-linecap="round" stroke-linejoin="round" /><polyline points="2064.88,246.31 2067.12,249.25 2076.49,263.22 2093.81,289.03 2110.12,305.37 2141.46,340.55 2136.16,373.07 2133.47,385.26 2129.73,390.42 2137.59,402.04 2149.74,427.06 2174.04,473.93 2186.01,497.01 2193.44,517.75 2196.80,527.38" fill="none" stroke="#bcbcbc" stroke-width="8" stroke-linecap="round" stroke-linejoin="round" /><polyline points="2228.52,313.27 2219.51,316.08 2160.18,334.54 2151.67,337.27 2141.46,340.55" fill="none" stroke="#bcbcbc" stroke-width="8" stroke-linecap="round" stroke-linejoin="round" /><polyline points="1802.14,425.67 1820.69,419.66 1955.37,350.89 1973.40,342.08 2036.87,323.74 2098.42,306.44 2110.12,305.37" fill="none" stroke="#bcbcbc" stroke-width="8" stroke-linecap="round" stroke-linejoin="round" /><polyline points="1816.81,510.81 1972.08,438.55 1978.61,434.23 1993.80,429.81 2097.26,399.71 2112.95,393.70 2129.73,390.42" fill="none" stroke="#bcbcbc" stroke-width="8" stroke-linecap="round" stroke-linejoin="round" /><polyline points="1785.13,-1003.96 1847.98,-996.19 1854.29,-995.41 1878.66,-989.43" fill="none" stroke="#bcbcbc" stroke-width="8" stroke-linecap="round" stroke-linejoin="round" /><polyline points="2322.23,-364.96 2333.38,-367.28 2375.03,-346.87 2380.51,-341.44 2458.69,-209.10 2460.75,-193.06 2470.92,-184.59 2469.30,-178.74 2469.05,-169.20 2470.47,-155.86 2491.17,-70.76 2493.00,-11.82 2495.90,82.29 2500.77,208.96 2480.94,264.15 2468.17,297.80 2449.52,345.22 2444.12,358.94 2440.61,362.77 2434.98,399.47" fill="none" stroke="#bcbcbc" stroke-width="8" stroke-linecap="round" stroke-linejoin="round" /><polyline points="2466.78,623.01 2447.76,614.74 2400.25,581.58 2337.56,537.53 2303.08,509.65 2279.82,484.74" fill="none" stroke="#bcbcbc" stroke-width="8" stroke-linecap="round" stroke-linejoin="round" /><polyline points="1697.48,1364.66 1678.81,1358.74 1648.51,1349.13 1634.05,1344.55 1617.07,1339.16 1595.60,1332.36 1576.20,1326.20 1557.02,1320.12 1471.49,1292.98 1456.51,1288.22 1437.90,1282.33 1433.80,1281.03 1384.88,1268.11 1371.06,1264.77 1353.75,1260.58 1335.63,1256.18 1270.34,1240.35 1252.83,1236.10 1234.01,1229.57 1194.70,1215.92 1179.88,1210.77 1166.63,1206.47 1105.07,1184.58 1097.32,1179.96 1093.59,1171.93" fill="none" stroke="#bcbcbc" stroke-width="8" stroke-linecap="round" stroke-linejoin="round" /><polyline points="1978.61,434.23 1974.08,417.98 1960.57,369.52 1955.37,350.89 1947.86,336.96 1947.16,334.37 1942.73,317.97 1947.89,310.70 1941.69,290.03 1939.77,283.61" fill="none" stroke="#bcbcbc" stroke-width="8" stroke-linecap="round" stroke-linejoin="round" /><polyline points="1956.02,-158.73 1968.87,-164.78 2039.05,-203.48 2079.18,-229.28 2107.48,-248.59 2113.73,-253.24 2136.50,-269.07 2160.11,-286.51 2175.05,-297.38 2192.87,-310.41 2254.79,-338.35 2262.82,-337.93 2274.56,-343.48 2322.23,-364.96" fill="none" stroke="#bcbcbc" stroke-width="8" stroke-linecap="round" stroke-linejoin="round" /><polyline points="1178.01,105.08 1188.13,109.19 1194.83,111.25 1320.35,149.80 1339.52,155.69" fill="none" stroke="#bcbcbc" stroke-width="8" stroke-linecap="round" stroke-linejoin="round" /><polyline points="281.41,387.37 191.73,360.22" fill="none" stroke="#bcbcbc" stroke-width="8" stroke-linecap="round" stroke-linejoin="round" /><polyline points="1730.01,-877.30 1752.24,-849.13 1755.56,-844.92 1766.79,-830.70 1779.58,-829.20 1805.87,-826.12 1810.55,-822.89" fill="none" stroke="#bcbcbc" stroke-width="8" stroke-linecap="round" stroke-linejoin="round" /><polyline points="2502.13,375.55 2466.89,382.12 2430.77,401.76 2397.28,420.40 2365.60,436.23 2327.33,457.02 2299.62,473.85 2244.85,503.21 2031.05,610.78 1975.62,635.19 1938.99,651.03 1920.85,656.97 1905.83,659.78 1881.25,661.26 1846.28,656.31 1759.01,635.36 1635.12,606.49 1472.13,557.32 1412.08,537.53 1313.76,507.17 1219.73,476.16 1081.81,422.05 1012.86,392.35 929.71,355.40 791.80,279.84 759.46,258.40 677.64,206.92 643.33,172.61 591.85,105.96 507.06,18.53 473.74,-10.83" fill="none" stroke="#bcbcbc" stroke-width="8" stroke-linecap="round" stroke-linejoin="round" /><polyline points="1833.60,1407.69 1835.05,1399.63 1840.27,1386.46 1889.17,1272.02 1907.65,1229.13 1929.42,1175.67 1934.73,1156.11" fill="none" stroke="#bcbcbc" stroke-width="8" stroke-linecap="round" stroke-linejoin="round" /><polyline points="895.38,924.53 839.82,897.64 713.41,836.46 558.35,761.41 544.51,754.72" fill="none" stroke="#bcbcbc" stroke-width="8" stroke-linecap="round" stroke-linejoin="round" /><polyline points="1808.42,38.92 1822.45,24.55 1859.75,-13.63 1889.35,-45.95" fill="none" stroke="#bcbcbc" stroke-width="8" stroke-linecap="round" stroke-linejoin="round" /><polyline points="731.38,123.99 715.97,103.58 643.75,7.96 540.66,-75.46" fill="none" stroke="#bcbcbc" stroke-width="8" stroke-linecap="round" stroke-linejoin="round" /><polyline points="284.01,1382.71 298.10,1349.28 342.93,1237.53 348.36,1222.86 354.39,1206.59 356.67,1200.72 357.28,1191.52 363.02,1104.65 364.66,1079.73" fill="none" stroke="#bcbcbc" stroke-width="8" stroke-linecap="round" stroke-linejoin="round" /><polyline points="253.43,484.42 281.41,387.37 318.33,259.36 322.90,243.51 327.98,225.51 339.35,185.21 340.55,180.97 343.81,168.01 349.01,153.37 350.26,149.82 356.83,133.55 369.71,105.13 373.56,96.97" fill="none" stroke="#bcbcbc" stroke-width="8" stroke-linecap="round" stroke-linejoin="round" /><polyline points="322.90,243.51 379.52,257.99 499.45,288.82 567.78,310.10 596.28,316.77" fill="none" stroke="#bcbcbc" stroke-width="8" stroke-linecap="round" stroke-linejoin="round" /><polyline points="1488.35,-196.85 1490.28,-208.63 1492.21,-220.87 1500.52,-261.79 1521.27,-357.04 1538.32,-442.25 1541.43,-459.92 1545.66,-483.92 1545.67,-483.95" fill="none" stroke="#bcbcbc" stroke-width="8" stroke-linecap="round" stroke-linejoin="round" /><polyline points="1320.72,1637.34 1346.00,1572.86 1349.13,1561.27 1449.46,1306.60 1456.51,1288.22 1462.21,1272.64 1522.16,1098.23 1533.70,1088.16" fill="none" stroke="#bcbcbc" stroke-width="8" stroke-linecap="round" stroke-linejoin="round" /><polyline points="1664.61,-246.15 1664.60,-246.18 1661.05,-264.83 1660.49,-267.09 1651.82,-302.34 1651.83,-302.45 1645.92,-326.35 1620.89,-412.15 1617.73,-421.34 1600.82,-467.30 1595.33,-481.02 1591.78,-489.87 1587.18,-499.92 1587.18,-499.94 1587.17,-499.98 1583.82,-536.94 1583.50,-555.08" fill="none" stroke="#bcbcbc" stroke-width="8" stroke-linecap="round" stroke-linejoin="round" /><polyline points="1627.08,1209.56 1620.64,1216.51 1611.05,1227.93 1584.02,1304.14 1576.20,1326.20" fill="none" stroke="#bcbcbc" stroke-width="8" stroke-linecap="round" stroke-linejoin="round" /><polyline points="1178.01,105.08 1181.70,95.08 1182.53,92.75 1200.08,43.73 1206.67,23.07 1260.46,-135.11" fill="none" stroke="#bcbcbc" stroke-width="8" stroke-linecap="round" stroke-linejoin="round" /><polyline points="1456.28,326.85 1461.77,312.27 1476.64,272.78 1482.92,256.09 1487.17,244.79 1499.10,213.10 1506.98,192.17 1508.04,189.35 1527.13,138.64 1535.12,141.12 1539.44,129.34 1547.09,108.52 1545.62,99.06 1565.93,43.77 1568.02,38.09 1571.87,34.55 1575.10,31.58 1595.47,-24.10 1598.42,-39.34 1627.64,-120.52 1634.55,-125.93 1648.61,-165.70 1646.11,-171.81 1658.42,-208.95 1652.03,-242.11" fill="none" stroke="#bcbcbc" stroke-width="8" stroke-linecap="round" stroke-linejoin="round" /><polyline points="1978.97,-1183.28 1970.78,-1196.71 1927.76,-1267.29" fill="none" stroke="#bcbcbc" stroke-width="8" stroke-linecap="round" stroke-linejoin="round" /><polyline points="2113.73,-253.24 2311.16,-126.28 2311.22,-126.20 2311.22,-126.17 2347.74,-121.43" fill="none" stroke="#bcbcbc" stroke-width="8" stroke-linecap="round" stroke-linejoin="round" /><polyline points="2034.55,-518.46 2244.62,-413.02 2250.96,-408.29 2250.53,-373.77 2254.79,-338.35" fill="none" stroke="#bcbcbc" stroke-width="8" stroke-linecap="round" stroke-linejoin="round" /><polyline points="1634.05,1344.55 1626.49,1367.60 1595.89,1460.94 1543.82,1618.15 1540.13,1629.31 1536.39,1640.61 1535.34,1652.64" fill="none" stroke="#bcbcbc" stroke-width="8" stroke-linecap="round" stroke-linejoin="round" /><polyline points="2225.42,777.48 2226.68,765.77 2226.95,754.84 2226.86,754.46 2219.41,722.28 2216.36,708.84 2214.89,702.35 2213.38,695.72 2205.21,659.72 2189.25,587.78 2177.65,544.53 2176.01,537.85" fill="none" stroke="#bcbcbc" stroke-width="8" stroke-linecap="round" stroke-linejoin="round" /><polyline points="1182.48,1436.03 1187.69,1421.23 1246.19,1254.98 1252.83,1236.10" fill="none" stroke="#bcbcbc" stroke-width="8" stroke-linecap="round" stroke-linejoin="round" /><polyline points="2495.90,82.29 2478.69,77.43 2361.82,-101.91 2347.74,-121.43" fill="none" stroke="#bcbcbc" stroke-width="8" stroke-linecap="round" stroke-linejoin="round" /><polyline points="574.60,512.61 1000.56,614.66 1029.93,625.38" fill="none" stroke="#bcbcbc" stroke-width="8" stroke-linecap="round" stroke-linejoin="round" /><polyline points="1918.07,-1081.92 2083.99,-1020.46 2107.35,-1024.45" fill="none" stroke="#bcbcbc" stroke-width="8" stroke-linecap="round" stroke-linejoin="round" />
    <polyline points="343.81,168.01 326.04,167.20 321.58,172.61 290.63,210.22 182.42,335.22 167.20,352.80" fill="none" stroke="#ffffff" stroke-width="16" stroke-linecap="round" stroke-linejoin="round" />
    <polyline points="343.81,168.01 326.04,167.20 321.58,172.61 290.63,210.22 182.42,335.22 167.20,352.80" fill="none" stroke="#111111" stroke-width="9" stroke-linecap="round" stroke-linejoin="round" />
    
            <g transform="translate(343.81,168.01)">
              <circle r="19" fill="#ffffff" stroke="#111111" stroke-width="4" />
              <text text-anchor="middle" dominant-baseline="central" font-family="Helvetica, Arial, sans-serif"
                font-size="18" font-weight="700" fill="#111111">1</text>
            </g>
            
            <g transform="translate(167.20,352.80)">
              <circle r="19" fill="#ffffff" stroke="#111111" stroke-width="4" />
              <text text-anchor="middle" dominant-baseline="central" font-family="Helvetica, Arial, sans-serif"
                font-size="18" font-weight="700" fill="#111111">2</text>
            </g>
            
  </g>
</svg>
