<svg xmlns="http://www.w3.org/2000/svg" width="520" height="520" viewBox="0 0 520 520">
  <rect width="100%" height="100%" fill="#ffffff" />
  <g>
    <polyline points="1189.97,-425.58 1193.62,-406.15 1217.19,-241.26 1213.59,-200.03" fill="none" stroke="#bcbcbc" stroke-width="8" stroke-linecap="round" stroke-linejoin="round" /><polyline points="710.87,948.51 716.57,930.99 746.77,838.13 750.32,827.19 753.93,815.70 829.85,573.59 835.95,554.12 821.97,519.67" fill="none" stroke="#bcbcbc" stroke-width="8" stroke-linecap="round" stroke-linejoin="round" /><polyline points="186.44,733.17 185.21,719.26 210.03,580.24 213.51,562.85 216.11,553.74 222.95,518.48 230.62,475.33 238.99,437.33 247.29,399.41 252.51,388.72 255.93,382.17" fill="none" stroke="#bcbcbc" stroke-width="8" stroke-linecap="round" stroke-linejoin="round" /><polyline points="330.51,-247.48 324.61,-265.47 263.61,-451.51 260.64,-459.31" fill="none" stroke="#bcbcbc" stroke-width="8" stroke-linecap="round" stroke-linejoin="round" /><polyline points="17.52,1389.87 19.34,1372.11 20.08,1363.97 26.72,1290.51 33.99,1225.84 35.68,1210.73 37.26,1192.61 37.44,1191.09 41.56,1155.07 45.11,1118.45 49.03,1083.12 51.66,1055.61 52.76,1038.63 53.73,1022.95 55.46,1005.29" fill="none" stroke="#bcbcbc" stroke-width="8" stroke-linecap="round" stroke-linejoin="round" /><polyline points="860.37,991.68 864.71,978.02 895.32,881.79 898.80,870.86 903.74,855.29 907.28,844.13 934.38,727.28" fill="none" stroke="#bcbcbc" stroke-width="8" stroke-linecap="round" stroke-linejoin="round" /><polyline points="741.38,-911.62 752.69,-909.88 1064.17,-862.02" fill="none" stroke="#bcbcbc" stroke-width="8" stroke-linecap="round" stroke-linejoin="round" /><polyline points="-58.26,969.00 -90.68,967.49 -110.45,966.57 -121.19,966.07 -130.61,965.64 -204.03,962.22 -306.14,957.47 -354.81,950.57 -371.10,948.26 -385.24,945.76 -480.97,928.87 -494.35,926.51 -497.32,926.00 -513.84,923.17 -526.55,920.99 -607.66,913.82 -623.11,912.45 -628.78,911.95 -646.32,910.74 -680.66,908.36" fill="none" stroke="#bcbcbc" stroke-width="8" stroke-linecap="round" stroke-linejoin="round" /><polyline points="412.76,874.94 419.04,857.07 475.63,700.20 543.70,502.35 548.06,489.94 551.10,481.27 553.57,474.15" fill="none" stroke="#bcbcbc" stroke-width="8" stroke-linecap="round" stroke-linejoin="round" /><polyline points="-628.78,911.95 -630.23,901.87 -630.57,890.91 -628.42,868.85 -623.49,828.57 -620.21,815.05 -614.87,766.18 -613.90,755.29 -612.34,741.29 -611.18,730.90 -608.99,719.11 -604.94,687.41 -602.13,663.16 -597.99,653.24" fill="none" stroke="#bcbcbc" stroke-width="8" stroke-linecap="round" stroke-linejoin="round" /><polyline points="-686.70,640.85 -611.22,651.39 -597.99,653.24 -589.79,654.55 -555.96,659.94 -478.01,672.36 -464.63,674.59" fill="none" stroke="#bcbcbc" stroke-width="8" stroke-linecap="round" stroke-linejoin="round" /><polyline points="702.40,-349.32 702.89,-342.46 703.91,-335.51 706.36,-330.19 710.95,-324.26 719.44,-316.53 739.55,-304.29 894.74,-206.93 990.32,-78.79 1062.52,99.38 1067.23,111.15" fill="none" stroke="#bcbcbc" stroke-width="8" stroke-linecap="round" stroke-linejoin="round" /><polyline points="677.55,170.54 680.77,175.87 681.60,177.25 684.27,190.69 702.48,278.74 708.26,306.68 712.39,326.59 718.84,366.93 721.85,385.53 723.93,396.88 726.20,407.14 728.92,413.12 732.90,420.04 735.03,423.31 775.36,481.04 797.17,515.38 802.85,523.59" fill="none" stroke="#bcbcbc" stroke-width="8" stroke-linecap="round" stroke-linejoin="round" /><polyline points="-480.05,1272.98 -477.90,1259.77 -475.91,1250.21 -475.37,1248.95 -448.54,1185.13 -431.43,1143.66 -426.24,1130.51 -420.73,1116.59 -414.75,1104.63 -413.79,1102.29 -405.60,1082.51 -399.28,1065.01 -393.85,1048.95 -390.41,1037.60 -386.54,1023.58 -382.09,1004.78 -378.71,989.52 -374.67,968.23 -373.82,963.48 -371.10,948.26" fill="none" stroke="#bcbcbc" stroke-width="8" stroke-linecap="round" stroke-linejoin="round" /><polyline points="820.29,-509.12 905.86,-449.32 917.39,-446.87 925.83,-437.22" fill="none" stroke="#bcbcbc" stroke-width="8" stroke-linecap="round" stroke-linejoin="round" /><polyline points="460.94,43.14 472.25,47.49 521.36,63.55 635.26,107.23 641.65,113.60 644.65,118.36" fill="none" stroke="#bcbcbc" stroke-width="8" stroke-linecap="round" stroke-linejoin="round" /><polyline points="673.19,1165.55 680.95,1145.34 719.24,1041.45 746.31,962.96 751.93,960.38" fill="none" stroke="#bcbcbc" stroke-width="8" stroke-linecap="round" stroke-linejoin="round" /><polyline points="131.93,1033.82 137.97,1020.47 138.57,1019.15 148.91,984.47 165.84,927.39 170.18,912.78 173.55,901.44 174.00,894.82 173.31,880.19" fill="none" stroke="#bcbcbc" stroke-width="8" stroke-linecap="round" stroke-linejoin="round" /><polyline points="835.73,175.10 826.02,177.11 804.02,173.19 800.62,164.12 762.50,149.59 753.49,151.94 719.10,139.32 713.97,142.90" fill="none" stroke="#bcbcbc" stroke-width="8" stroke-linecap="round" stroke-linejoin="round" /><polyline points="779.13,-1003.95 796.41,-999.72 805.96,-998.06 1033.18,-958.66" fill="none" stroke="#bcbcbc" stroke-width="8" stroke-linecap="round" stroke-linejoin="round" /><polyline points="602.53,1102.29 611.98,1075.64 630.35,1023.85 642.22,1001.79 659.30,953.97 666.12,934.88" fill="none" stroke="#bcbcbc" stroke-width="8" stroke-linecap="round" stroke-linejoin="round" /><polyline points="-642.43,68.05 -658.89,67.29 -663.01,72.30 -691.68,107.14 -791.91,222.91 -806.00,239.19" fill="none" stroke="#bcbcbc" stroke-width="8" stroke-linecap="round" stroke-linejoin="round" /><polyline points="606.89,-572.34 614.91,-561.46 620.64,-546.50 629.54,-525.03 643.84,-491.26 656.51,-460.94 671.04,-427.66 681.83,-402.00 683.42,-398.32 683.52,-398.09 692.20,-377.80 694.79,-372.04 697.26,-366.55 699.87,-361.40 701.83,-356.18 702.40,-349.32" fill="none" stroke="#bcbcbc" stroke-width="8" stroke-linecap="round" stroke-linejoin="round" /><polyline points="-6.96,491.65 -2.76,489.36 3.11,484.69 6.05,478.64 45.05,330.77 46.22,322.43 50.98,307.20" fill="none" stroke="#bcbcbc" stroke-width="8" stroke-linecap="round" stroke-linejoin="round" /><polyline points="1356.58,260.26 1362.11,277.82 1366.01,296.26 1358.43,366.54 1349.67,419.41 1344.88,437.44 1344.45,439.07 1340.26,448.80 1334.55,459.12 1321.20,476.00 1327.66,508.99 1306.77,579.80 1295.22,618.91 1271.62,682.93 1237.05,760.87 1194.83,835.56 1181.65,859.84 1157.82,899.72 1062.59,1034.87 1041.73,1062.99 960.94,1168.57 914.55,1221.34 849.67,1287.28 843.67,1287.90 829.01,1299.88" fill="none" stroke="#bcbcbc" stroke-width="8" stroke-linecap="round" stroke-linejoin="round" /><polyline points="181.58,1416.33 208.16,1333.89 212.51,1320.27 218.42,1311.70 231.12,1273.60 235.25,1260.65 287.69,1096.46 292.97,1079.95 297.31,1065.44 359.20,870.67" fill="none" stroke="#bcbcbc" stroke-width="8" stroke-linecap="round" stroke-linejoin="round" /><polyline points="804.29,-116.85 827.27,-141.95 834.05,-150.12 880.48,-215.88" fill="none" stroke="#bcbcbc" stroke-width="8" stroke-linecap="round" stroke-linejoin="round" /><polyline points="345.00,-106.90 408.28,-84.87 411.78,-79.19 429.74,-73.16 440.41,-69.51 491.42,-52.29" fill="none" stroke="#bcbcbc" stroke-width="8" stroke-linecap="round" stroke-linejoin="round" /><polyline points="896.56,-544.80 925.83,-437.22 959.71,-310.48 964.85,-299.92 965.67,-287.86 988.64,-244.97 1050.65,-129.33 1064.20,-109.34 1068.13,-103.48 1160.77,69.72 1203.35,108.43 1209.33,116.14 1217.75,123.34 1298.59,192.46 1304.07,197.15 1318.59,204.86" fill="none" stroke="#bcbcbc" stroke-width="8" stroke-linecap="round" stroke-linejoin="round" /><polyline points="582.15,1433.83 783.77,1316.71 819.66,1298.36 829.01,1299.88" fill="none" stroke="#bcbcbc" stroke-width="8" stroke-linecap="round" stroke-linejoin="round" /><polyline points="800.75,1266.28 813.26,1251.41 925.56,1027.34 933.00,1012.64 939.21,998.10 975.49,908.39 986.29,881.37 1017.56,786.74 1037.83,665.09 1040.23,647.39" fill="none" stroke="#bcbcbc" stroke-width="8" stroke-linecap="round" stroke-linejoin="round" /><polyline points="714.08,-51.52 712.11,-49.50 709.41,-40.08 709.14,-39.14 696.95,7.79 700.15,20.04 697.49,31.02 694.01,45.40 685.09,55.73 674.97,96.73 663.05,105.74 650.32,114.46 644.65,118.36" fill="none" stroke="#bcbcbc" stroke-width="8" stroke-linecap="round" stroke-linejoin="round" /><polyline points="236.66,167.20 241.84,153.92 272.99,74.05 279.79,56.63 285.39,42.29 325.19,-59.70 343.12,-102.35 345.00,-106.90 358.93,-140.57 390.18,-218.17 401.63,-251.21 404.18,-258.78 407.60,-267.38" fill="none" stroke="#bcbcbc" stroke-width="8" stroke-linecap="round" stroke-linejoin="round" /><polyline points="585.29,-316.95 591.31,-299.01 789.03,-130.12 896.93,-36.26 1058.08,103.83 1072.15,115.08 1078.45,119.02 1106.41,144.41 1143.76,176.26 1228.46,248.48 1255.82,272.01 1273.97,293.72" fill="none" stroke="#bcbcbc" stroke-width="8" stroke-linecap="round" stroke-linejoin="round" /><polyline points="912.21,-607.96 922.24,-614.39 981.65,-639.08 993.86,-651.92" fill="none" stroke="#bcbcbc" stroke-width="8" stroke-linecap="round" stroke-linejoin="round" /><polyline points="980.83,895.04 898.80,870.86 750.32,827.19" fill="none" stroke="#bcbcbc" stroke-width="8" stroke-linecap="round" stroke-linejoin="round" /><polyline points="716.05,-849.70 727.25,-841.97 1092.35,-760.74" fill="none" stroke="#bcbcbc" stroke-width="8" stroke-linecap="round" stroke-linejoin="round" /><polyline points="1167.03,352.37 1148.16,310.38 1106.29,210.52 1103.17,202.58 1096.00,184.35 1069.01,115.67 1067.31,111.22" fill="none" stroke="#bcbcbc" stroke-width="8" stroke-linecap="round" stroke-linejoin="round" /><polyline points="606.89,-572.34 586.62,-578.11 571.73,-582.54 541.45,-591.53 526.07,-595.92 517.26,-598.37 505.75,-601.66" fill="none" stroke="#bcbcbc" stroke-width="8" stroke-linecap="round" stroke-linejoin="round" /><polyline points="78.39,-23.05 77.36,-26.41 76.42,-28.76 72.24,-39.14 56.05,-76.87 40.67,-115.19 37.35,-124.24 33.53,-134.67 30.79,-143.19 26.27,-155.98 25.79,-157.32 11.08,-193.59 -15.94,-261.76 -22.01,-265.22 -26.32,-276.27 -34.94,-306.21 -49.70,-343.31 -52.88,-351.75" fill="none" stroke="#bcbcbc" stroke-width="8" stroke-linecap="round" stroke-linejoin="round" /><polyline points="208.16,1333.89 223.51,1338.59 273.14,1353.71 288.69,1358.45" fill="none" stroke="#bcbcbc" stroke-width="8" stroke-linecap="round" stroke-linejoin="round" /><polyline points="1135.14,-590.11 1138.03,-601.80 1136.85,-606.25 1135.43,-611.61 1126.37,-644.81 1106.17,-715.00 1095.51,-750.88 1092.35,-760.74 1064.17,-862.02 1048.96,-916.65 1033.18,-958.66 1018.93,-996.56 1004.73,-1022.62 990.94,-1036.38 885.06,-1165.76 877.23,-1174.97 872.03,-1183.49" fill="none" stroke="#bcbcbc" stroke-width="8" stroke-linecap="round" stroke-linejoin="round" /><polyline points="702.40,-349.32 696.94,-347.23 686.85,-344.45 685.84,-344.17 643.67,-333.38 595.18,-319.73 585.29,-316.95 580.88,-315.55 569.23,-311.80 559.27,-309.03 515.79,-296.93 444.29,-276.62 417.63,-269.88 407.60,-267.38 359.95,-255.67 330.51,-247.48 268.18,-230.06 206.56,-212.70 199.43,-210.72 147.94,-196.43 124.19,-189.83 112.19,-184.16 89.49,-172.91 44.40,-150.02 41.26,-148.43 30.79,-143.19 24.40,-140.00 15.49,-135.33 -16.19,-118.72 -73.91,-86.33 -122.13,-61.07 -129.03,-57.45 -138.24,-56.88 -143.78,-53.94 -144.88,-53.35 -197.19,-24.69 -208.15,-24.74 -220.72,-18.16 -225.11,-15.86 -228.82,-13.92 -237.56,-9.35 -244.45,6.37 -274.06,22.23 -283.47,27.27 -293.66,32.81 -334.85,55.23 -356.14,66.82 -366.87,69.91" fill="none" stroke="#bcbcbc" stroke-width="8" stroke-linecap="round" stroke-linejoin="round" /><polyline points="1295.22,618.91 1273.24,620.93 1204.58,627.22 1201.49,627.50 1197.11,627.90 1190.02,628.55 1123.45,634.67 1100.30,632.52 1073.34,639.27 1051.74,644.57 1040.23,647.39 1011.65,648.47 986.91,647.21 974.30,645.87 963.57,642.63 955.66,638.26 926.22,617.44 854.70,568.32 847.96,563.74 841.09,559.08 835.95,554.12" fill="none" stroke="#bcbcbc" stroke-width="8" stroke-linecap="round" stroke-linejoin="round" /><polyline points="-324.76,-210.47 -298.81,-159.66 -294.88,-145.14 -273.02,-103.43 -263.99,-91.50 -227.45,-20.40 -225.11,-15.86" fill="none" stroke="#bcbcbc" stroke-width="8" stroke-linecap="round" stroke-linejoin="round" /><polyline points="470.58,241.38 466.70,252.06 465.61,255.38 460.54,270.75 428.43,360.33 412.49,404.81 411.95,406.33 405.54,420.16 401.87,428.37" fill="none" stroke="#bcbcbc" stroke-width="8" stroke-linecap="round" stroke-linejoin="round" /><polyline points="896.56,-544.80 893.00,-552.42 883.64,-553.65 853.38,-546.71 847.23,-547.51 842.41,-553.97 833.85,-593.35 880.23,-600.53 901.71,-606.87 912.21,-607.96 923.52,-567.75" fill="none" stroke="#bcbcbc" stroke-width="8" stroke-linecap="round" stroke-linejoin="round" /><polyline points="1064.20,-109.34 1076.15,-116.05 1136.17,-152.21 1152.20,-161.76 1180.28,-178.50 1226.47,-208.36 1237.24,-216.11 1318.26,-266.37" fill="none" stroke="#bcbcbc" stroke-width="8" stroke-linecap="round" stroke-linejoin="round" /><polyline points="1347.39,128.04 1326.91,121.94 1315.01,112.18 1269.50,72.80 1267.95,71.42 1256.95,61.60 1250.48,50.13 1136.17,-152.21" fill="none" stroke="#bcbcbc" stroke-width="8" stroke-linecap="round" stroke-linejoin="round" /><polyline points="57.30,112.01 236.66,167.20 251.29,171.84 385.13,214.27 387.93,215.15 407.98,221.51 417.84,224.64 430.65,228.14 457.07,237.09 470.58,241.38 482.74,245.23 582.35,276.83 687.50,309.86 696.20,312.60 708.26,306.68" fill="none" stroke="#bcbcbc" stroke-width="8" stroke-linecap="round" stroke-linejoin="round" /><polyline points="584.67,-773.47 662.36,-844.86 675.52,-856.94" fill="none" stroke="#bcbcbc" stroke-width="8" stroke-linecap="round" stroke-linejoin="round" /><polyline points="-716.34,378.45 -431.25,409.00" fill="none" stroke="#bcbcbc" stroke-width="8" stroke-linecap="round" stroke-linejoin="round" /><polyline points="143.68,-417.26 203.60,-438.69 265.41,-461.03 303.81,-475.96 421.05,-518.60 455.08,-530.38 462.19,-532.83 470.71,-535.76 480.28,-539.05 481.45,-539.46 500.77,-547.22 509.16,-550.60" fill="none" stroke="#bcbcbc" stroke-width="8" stroke-linecap="round" stroke-linejoin="round" /><polyline points="546.12,1032.70 602.53,1102.29 637.07,1137.06 652.02,1147.82 673.19,1165.55 693.07,1182.24 710.15,1198.90 710.57,1207.38" fill="none" stroke="#bcbcbc" stroke-width="8" stroke-linecap="round" stroke-linejoin="round" /><polyline points="606.89,-572.34 629.00,-627.75 664.78,-718.99 716.05,-849.70 741.38,-911.62 779.13,-1003.95 810.09,-1079.58 815.63,-1089.62 842.85,-1134.12 844.61,-1137.00 854.57,-1156.58 872.03,-1183.49 881.79,-1198.50 895.59,-1219.74" fill="none" stroke="#bcbcbc" stroke-width="8" stroke-linecap="round" stroke-linejoin="round" /><polyline points="85.32,909.28 81.70,912.17 79.31,915.62 74.43,930.00 71.06,940.38 55.49,986.96 53.34,993.68 52.01,997.85 37.71,993.75 2.90,982.08 -31.60,970.51 -58.26,969.00" fill="none" stroke="#bcbcbc" stroke-width="8" stroke-linecap="round" stroke-linejoin="round" /><polyline points="-596.39,1233.38 -539.54,1086.58 -533.21,1070.60 -527.54,1055.20 -520.69,1036.60 -512.28,1007.34 -503.51,970.98 -499.92,944.93 -497.32,926.00 -493.64,912.03 -480.26,807.05 -464.63,674.59 -456.54,611.43 -447.52,537.24 -431.25,409.00 -428.67,387.20 -412.23,253.09 -412.22,245.62 -408.59,205.82 -398.11,121.77 -395.48,107.11 -392.74,98.88 -388.45,89.83 -384.28,82.80 -375.08,72.84 -366.85,70.01" fill="none" stroke="#bcbcbc" stroke-width="8" stroke-linecap="round" stroke-linejoin="round" /><polyline points="644.65,118.36 647.76,123.29 658.18,139.56 673.79,164.58 677.55,170.54 683.78,165.82 713.97,142.90" fill="none" stroke="#bcbcbc" stroke-width="8" stroke-linecap="round" stroke-linejoin="round" /><polyline points="664.78,-718.99 971.94,-663.46 1004.20,-646.48 1124.54,-586.83 1135.14,-590.11" fill="none" stroke="#bcbcbc" stroke-width="8" stroke-linecap="round" stroke-linejoin="round" /><polyline points="78.39,-23.05 72.94,-15.10 23.93,8.81 -12.06,54.56 -50.89,78.60 -77.46,98.66 -102.79,119.33 -115.79,131.17 -138.74,160.28 -164.40,197.06 -168.62,203.88" fill="none" stroke="#bcbcbc" stroke-width="8" stroke-linecap="round" stroke-linejoin="round" /><polyline points="130.19,9.76 128.07,14.49 123.42,21.28 114.64,32.08 62.88,97.47 35.49,171.23 -102.73,119.27" fill="none" stroke="#bcbcbc" stroke-width="8" stroke-linecap="round" stroke-linejoin="round" /><polyline points="-77.46,98.66 -82.81,82.45 -105.94,12.42 -114.91,-1.41 -129.95,-46.51 -131.24,-50.40 -129.03,-57.45 -132.63,-68.95 -204.91,-299.72" fill="none" stroke="#bcbcbc" stroke-width="8" stroke-linecap="round" stroke-linejoin="round" /><polyline points="769.44,-1160.50 826.56,-1159.00 829.22,-1158.92 840.17,-1158.61 854.57,-1156.58" fill="none" stroke="#bcbcbc" stroke-width="8" stroke-linecap="round" stroke-linejoin="round" /><polyline points="475.63,700.20 456.13,699.97 290.98,722.14 279.08,723.39 265.46,724.83 186.44,733.17 79.97,744.41 23.52,750.36 -7.70,753.66 -33.05,756.74 -46.07,758.32 -60.74,760.11 -131.57,768.71 -148.55,770.78 -200.86,776.50 -480.26,807.05" fill="none" stroke="#bcbcbc" stroke-width="8" stroke-linecap="round" stroke-linejoin="round" /><polyline points="231.12,1273.60 216.49,1268.89 148.15,1246.89 134.34,1242.45 122.35,1238.59 49.96,1215.32 35.68,1210.73 16.80,1204.66 -98.44,1167.57 -111.41,1163.40" fill="none" stroke="#bcbcbc" stroke-width="8" stroke-linecap="round" stroke-linejoin="round" /><polyline points="516.85,-109.88 556.59,-97.50 701.94,-52.61 703.30,-52.19 714.08,-51.52" fill="none" stroke="#bcbcbc" stroke-width="8" stroke-linecap="round" stroke-linejoin="round" /><polyline points="925.83,-437.22 1123.55,-433.74" fill="none" stroke="#bcbcbc" stroke-width="8" stroke-linecap="round" stroke-linejoin="round" /><polyline points="829.01,1299.88 800.75,1266.28 788.89,1252.49 778.70,1242.97 765.13,1232.84 737.40,1216.20 710.57,1207.38 655.98,1190.52 611.33,1176.35 637.07,1137.06" fill="none" stroke="#bcbcbc" stroke-width="8" stroke-linecap="round" stroke-linejoin="round" /><polyline points="546.12,1032.70 506.77,984.12 499.28,974.87 459.64,920.26 450.66,903.59 452.82,883.74 464.77,883.62 494.25,889.29 539.12,897.92" fill="none" stroke="#bcbcbc" stroke-width="8" stroke-linecap="round" stroke-linejoin="round" /><polyline points="31.26,643.47 38.52,659.08 79.97,744.41 141.60,871.29 149.46,887.47" fill="none" stroke="#bcbcbc" stroke-width="8" stroke-linecap="round" stroke-linejoin="round" /><polyline points="-632.63,1029.95 -617.81,1036.01 -548.37,1064.40 -533.21,1070.60 -517.27,1077.12 -435.52,1110.55 -420.73,1116.59" fill="none" stroke="#bcbcbc" stroke-width="8" stroke-linecap="round" stroke-linejoin="round" /><polyline points="65.37,516.95 210.03,580.24" fill="none" stroke="#bcbcbc" stroke-width="8" stroke-linecap="round" stroke-linejoin="round" /><polyline points="714.08,-51.52 736.11,-50.36 737.52,-49.11 747.41,-40.34 761.94,-27.37 764.62,-22.15 814.70,21.70 818.41,28.70 853.62,59.78 862.49,62.49 889.88,86.48 896.02,89.28 937.33,124.33 946.53,132.48 951.61,140.56" fill="none" stroke="#bcbcbc" stroke-width="8" stroke-linecap="round" stroke-linejoin="round" /><polyline points="-673.47,517.10 -447.52,537.24" fill="none" stroke="#bcbcbc" stroke-width="8" stroke-linecap="round" stroke-linejoin="round" /><polyline points="-168.97,1358.44 -161.97,1343.53 -160.17,1336.90 -150.36,1300.73 -114.81,1175.40 -111.41,1163.40 -107.82,1150.24 -91.71,1091.36 -64.52,991.92 -58.26,969.00" fill="none" stroke="#bcbcbc" stroke-width="8" stroke-linecap="round" stroke-linejoin="round" /><polyline points="31.26,643.47 65.37,516.95 -6.96,491.65 -25.89,502.83 -34.53,509.40 -40.92,518.04 -45.42,529.46 -62.05,590.94 -48.63,597.78 -35.07,601.07 -5.10,608.87 17.34,616.01 31.26,643.47" fill="none" stroke="#bcbcbc" stroke-width="8" stroke-linecap="round" stroke-linejoin="round" /><polyline points="-62.05,590.94 -77.89,588.74 -447.52,537.24" fill="none" stroke="#bcbcbc" stroke-width="8" stroke-linecap="round" stroke-linejoin="round" /><polyline points="539.12,897.92 573.40,905.41 666.12,934.88 692.05,943.08 753.58,960.86 815.57,978.73 861.47,991.99 934.86,1013.18 950.03,1017.56 987.07,1029.98 1048.05,1046.22 1053.42,1047.23" fill="none" stroke="#bcbcbc" stroke-width="8" stroke-linecap="round" stroke-linejoin="round" /><polyline points="582.61,1433.56 570.10,1436.70 556.57,1474.40 535.60,1468.44 440.23,1435.94 428.75,1433.49 403.22,1431.66 287.73,1432.13 262.27,1428.88 204.78,1420.09 181.58,1416.33 17.10,1389.80 -46.60,1379.64 -168.07,1358.60 -187.68,1354.71 -461.82,1278.08 -479.12,1273.24 -596.39,1233.38 -625.24,1223.15 -697.31,1193.28 -738.38,1177.74" fill="none" stroke="#bcbcbc" stroke-width="8" stroke-linecap="round" stroke-linejoin="round" /><polyline points="833.85,-593.35 821.98,-595.79 663.54,-577.06 606.89,-572.34" fill="none" stroke="#bcbcbc" stroke-width="8" stroke-linecap="round" stroke-linejoin="round" /><polyline points="539.12,897.92 544.67,888.63 577.92,803.24 615.07,674.12 624.54,646.32 629.61,638.75 665.48,523.62 667.26,509.87 668.62,500.89" fill="none" stroke="#bcbcbc" stroke-width="8" stroke-linecap="round" stroke-linejoin="round" /><polyline points="702.40,-349.32 706.19,-350.77 711.32,-354.84 719.12,-363.96 820.29,-509.12 847.23,-547.51" fill="none" stroke="#bcbcbc" stroke-width="8" stroke-linecap="round" stroke-linejoin="round" /><polyline points="1152.67,183.91 1154.74,177.96 1205.59,118.13 1209.33,116.14 1218.16,104.05 1247.75,70.07 1256.95,61.60" fill="none" stroke="#bcbcbc" stroke-width="8" stroke-linecap="round" stroke-linejoin="round" /><polyline points="1197.11,627.90 1196.41,619.90 1195.86,613.70 1193.18,601.86 1189.98,594.14 1185.98,573.85 1185.62,566.50 1182.91,550.07 1170.81,543.75 1161.14,547.45 1143.82,551.60 1130.11,553.74 1116.97,556.91 1098.82,561.05 1090.54,562.93" fill="none" stroke="#bcbcbc" stroke-width="8" stroke-linecap="round" stroke-linejoin="round" /><polyline points="-138.97,334.08 -101.98,247.38 -99.93,241.75" fill="none" stroke="#bcbcbc" stroke-width="8" stroke-linecap="round" stroke-linejoin="round" /><polyline points="835.73,175.10 853.56,168.20 862.88,164.59 870.09,157.29 899.81,149.97 909.78,152.51 931.29,146.97 947.70,142.74 951.61,140.56 967.52,136.66 1048.87,116.73 1067.31,111.22" fill="none" stroke="#bcbcbc" stroke-width="8" stroke-linecap="round" stroke-linejoin="round" /><polyline points="85.32,909.28 123.70,895.34 136.54,891.42 149.46,887.47 173.31,880.19 191.87,877.52 255.23,870.59 267.96,869.89 324.66,870.38 359.20,870.67 372.19,870.01 392.99,872.11 399.50,873.04 412.76,874.94 452.82,883.74" fill="none" stroke="#bcbcbc" stroke-width="8" stroke-linecap="round" stroke-linejoin="round" /><polyline points="268.18,-230.06 261.82,-251.56 238.20,-331.40 209.52,-422.44 203.60,-438.69 197.59,-453.92 189.98,-475.87" fill="none" stroke="#bcbcbc" stroke-width="8" stroke-linecap="round" stroke-linejoin="round" /><polyline points="199.49,1057.28 204.53,1041.35 255.55,880.48 255.23,870.59" fill="none" stroke="#bcbcbc" stroke-width="8" stroke-linecap="round" stroke-linejoin="round" /><polyline points="267.96,869.89 278.07,734.43 279.08,723.39 280.62,710.54 280.65,709.96 281.31,694.25 284.68,651.61 286.58,631.75 289.18,609.19 291.55,592.95 293.67,582.75 296.35,575.04 301.59,557.67 312.43,521.51 326.21,474.82 341.41,427.08 344.50,417.34 346.99,410.28" fill="none" stroke="#bcbcbc" stroke-width="8" stroke-linecap="round" stroke-linejoin="round" /><polyline points="-62.05,590.94 -64.74,602.95 -64.28,606.78 -47.82,743.81 -46.07,758.32 -46.83,773.25 -51.14,858.48 -52.94,894.09 -53.87,912.45 -55.53,945.19 -56.39,962.23 -58.26,969.00" fill="none" stroke="#bcbcbc" stroke-width="8" stroke-linecap="round" stroke-linejoin="round" /><polyline points="-138.97,334.08 -198.81,316.29 -206.42,311.42 -243.66,300.56 -254.12,300.67 -300.92,286.58 -308.48,281.00 -351.06,268.09 -403.31,253.85 -403.57,253.83 -412.23,253.09" fill="none" stroke="#bcbcbc" stroke-width="8" stroke-linecap="round" stroke-linejoin="round" /><polyline points="951.61,140.56 953.68,143.29 962.36,156.22 978.40,180.13 993.50,195.26 1022.53,227.84 1017.63,257.96 1015.14,269.25 1011.67,274.03 1018.95,284.80 1030.21,307.97 1052.71,351.38 1063.79,372.75 1070.68,391.96 1073.79,400.89" fill="none" stroke="#bcbcbc" stroke-width="8" stroke-linecap="round" stroke-linejoin="round" /><polyline points="1103.17,202.58 1094.82,205.18 1039.87,222.28 1031.99,224.81 1022.53,227.84" fill="none" stroke="#bcbcbc" stroke-width="8" stroke-linecap="round" stroke-linejoin="round" /><polyline points="708.26,306.68 725.44,301.11 850.18,237.42 866.87,229.26 925.67,212.28 982.67,196.25 993.50,195.26" fill="none" stroke="#bcbcbc" stroke-width="8" stroke-linecap="round" stroke-linejoin="round" /><polyline points="721.85,385.53 865.65,318.61 871.71,314.61 885.77,310.52 981.59,282.63 996.13,277.07 1011.67,274.03" fill="none" stroke="#bcbcbc" stroke-width="8" stroke-linecap="round" stroke-linejoin="round" /><polyline points="692.50,-1017.41 750.72,-1010.21 756.56,-1009.49 779.13,-1003.95" fill="none" stroke="#bcbcbc" stroke-width="8" stroke-linecap="round" stroke-linejoin="round" /><polyline points="1189.97,-425.58 1200.29,-427.73 1238.86,-408.83 1243.94,-403.80 1316.35,-281.23 1318.26,-266.37 1327.68,-258.52 1326.18,-253.11 1325.95,-244.27 1327.26,-231.92 1346.43,-153.10 1348.13,-98.51 1350.82,-11.35 1355.33,105.97 1336.96,157.09 1325.13,188.25 1307.86,232.17 1302.86,244.88 1299.61,248.42 1294.39,282.41" fill="none" stroke="#bcbcbc" stroke-width="8" stroke-linecap="round" stroke-linejoin="round" /><polyline points="1323.84,489.45 1306.22,481.79 1262.22,451.08 1204.16,410.28 1172.23,384.46 1150.68,361.39" fill="none" stroke="#bcbcbc" stroke-width="8" stroke-linecap="round" stroke-linejoin="round" /><polyline points="611.33,1176.35 594.03,1170.86 565.97,1161.97 552.58,1157.72 536.85,1152.73 516.97,1146.43 499.00,1140.73 481.23,1135.10 402.01,1109.96 388.14,1105.56 370.91,1100.10 367.10,1098.90 321.80,1086.93 309.00,1083.83 292.97,1079.95 276.18,1075.88 215.71,1061.22 199.49,1057.28 182.07,1051.23 145.66,1038.59 131.93,1033.82 119.66,1029.84 62.64,1009.57 55.46,1005.29 52.01,997.85" fill="none" stroke="#bcbcbc" stroke-width="8" stroke-linecap="round" stroke-linejoin="round" /><polyline points="871.71,314.61 867.51,299.55 854.99,254.68 850.18,237.42 843.22,224.52 842.58,222.12 838.48,206.93 843.25,200.20 837.51,181.05 835.73,175.10" fill="none" stroke="#bcbcbc" stroke-width="8" stroke-linecap="round" stroke-linejoin="round" /><polyline points="850.78,-234.58 862.68,-240.18 927.69,-276.02 964.85,-299.92 991.06,-317.80 996.85,-322.11 1017.94,-336.77 1039.80,-352.92 1053.65,-362.99 1070.15,-375.06 1127.50,-400.94 1134.94,-400.55 1145.81,-405.69 1189.97,-425.58" fill="none" stroke="#bcbcbc" stroke-width="8" stroke-linecap="round" stroke-linejoin="round" /><polyline points="130.19,9.76 139.57,13.57 145.77,15.47 262.03,51.18 279.79,56.63" fill="none" stroke="#bcbcbc" stroke-width="8" stroke-linecap="round" stroke-linejoin="round" /><polyline points="-700.23,271.21 -783.29,246.07" fill="none" stroke="#bcbcbc" stroke-width="8" stroke-linecap="round" stroke-linejoin="round" /><polyline points="641.45,-900.09 662.05,-874.00 665.12,-870.11 675.52,-856.94 687.36,-855.55 711.72,-852.69 716.05,-849.70" fill="none" stroke="#bcbcbc" stroke-width="8" stroke-linecap="round" stroke-linejoin="round" /><polyline points="1356.58,260.26 1323.95,266.35 1290.49,284.53 1259.47,301.80 1230.13,316.47 1194.69,335.72 1169.02,351.30 1118.29,378.50 920.27,478.12 868.93,500.74 835.01,515.40 818.20,520.91 804.30,523.50 781.53,524.88 749.14,520.30 668.32,500.89 553.57,474.15 402.61,428.62 346.99,410.28 255.93,382.17 168.84,353.44 41.10,303.32 -22.77,275.82 -99.77,241.60 -227.51,171.62 -257.46,151.76 -333.24,104.08 -365.02,72.30 -412.69,10.58 -491.23,-70.40 -522.09,-97.60" fill="none" stroke="#bcbcbc" stroke-width="8" stroke-linecap="round" stroke-linejoin="round" /><polyline points="737.40,1216.20 738.74,1208.74 743.57,1196.54 788.87,1090.55 805.98,1050.83 826.15,1001.31 831.06,983.20" fill="none" stroke="#bcbcbc" stroke-width="8" stroke-linecap="round" stroke-linejoin="round" /><polyline points="-131.57,768.71 -183.03,743.81 -300.11,687.14 -443.72,617.64 -456.54,611.43" fill="none" stroke="#bcbcbc" stroke-width="8" stroke-linecap="round" stroke-linejoin="round" /><polyline points="714.08,-51.52 727.07,-64.82 761.62,-100.19 789.03,-130.12" fill="none" stroke="#bcbcbc" stroke-width="8" stroke-linecap="round" stroke-linejoin="round" /><polyline points="-283.47,27.27 -297.74,8.37 -364.63,-80.19 -460.11,-157.45" fill="none" stroke="#bcbcbc" stroke-width="8" stroke-linecap="round" stroke-linejoin="round" /><polyline points="-697.82,1193.07 -684.76,1162.10 -643.25,1058.60 -638.22,1045.02 -632.63,1029.95 -630.52,1024.51 -629.95,1016.00 -624.64,935.53 -623.11,912.45" fill="none" stroke="#bcbcbc" stroke-width="8" stroke-linecap="round" stroke-linejoin="round" /><polyline points="-726.14,361.09 -700.23,271.21 -666.03,152.65 -661.80,137.97 -657.09,121.30 -646.56,83.97 -645.45,80.05 -642.43,68.05 -637.62,54.48 -636.45,51.19 -630.37,36.13 -618.44,9.81 -614.87,2.25" fill="none" stroke="#bcbcbc" stroke-width="8" stroke-linecap="round" stroke-linejoin="round" /><polyline points="-661.80,137.97 -609.36,151.38 -498.28,179.94 -434.99,199.64 -408.59,205.82" fill="none" stroke="#bcbcbc" stroke-width="8" stroke-linecap="round" stroke-linejoin="round" /><polyline points="417.63,-269.88 419.42,-280.80 421.21,-292.13 428.90,-330.03 448.12,-418.25 463.91,-497.16 466.79,-513.53 470.71,-535.76 470.72,-535.78" fill="none" stroke="#bcbcbc" stroke-width="8" stroke-linecap="round" stroke-linejoin="round" /><polyline points="262.37,1428.90 285.78,1369.18 288.69,1358.45 381.61,1122.57 388.14,1105.56 393.42,1091.12 448.95,929.59 459.64,920.26" fill="none" stroke="#bcbcbc" stroke-width="8" stroke-linecap="round" stroke-linejoin="round" /><polyline points="580.88,-315.55 580.87,-315.57 577.58,-332.84 577.07,-334.94 569.04,-367.58 569.04,-367.69 563.57,-389.82 540.38,-469.28 537.46,-477.80 521.80,-520.36 516.71,-533.07 513.43,-541.27 509.17,-550.58 509.16,-550.60 509.16,-550.64 506.05,-584.86 505.75,-601.66" fill="none" stroke="#bcbcbc" stroke-width="8" stroke-linecap="round" stroke-linejoin="round" /><polyline points="546.12,1032.70 540.16,1039.14 531.27,1049.71 506.24,1120.30 499.00,1140.73" fill="none" stroke="#bcbcbc" stroke-width="8" stroke-linecap="round" stroke-linejoin="round" /><polyline points="130.19,9.76 133.61,0.50 134.39,-1.66 150.64,-47.06 156.74,-66.19 206.56,-212.70" fill="none" stroke="#bcbcbc" stroke-width="8" stroke-linecap="round" stroke-linejoin="round" /><polyline points="387.93,215.15 393.01,201.65 406.78,165.08 412.60,149.62 416.54,139.15 427.59,109.80 434.89,90.42 435.87,87.81 453.55,40.84 460.94,43.14 464.95,32.23 472.03,12.94 470.68,4.18 489.49,-47.03 491.42,-52.29 494.99,-55.56 497.98,-58.32 516.85,-109.88 519.57,-124.00 546.64,-199.19 553.04,-204.20 566.06,-241.03 563.74,-246.69 575.15,-281.09 569.23,-311.80" fill="none" stroke="#bcbcbc" stroke-width="8" stroke-linecap="round" stroke-linejoin="round" /><polyline points="872.03,-1183.49 864.45,-1195.93 824.61,-1261.30" fill="none" stroke="#bcbcbc" stroke-width="8" stroke-linecap="round" stroke-linejoin="round" /><polyline points="996.85,-322.11 1179.71,-204.52 1179.76,-204.44 1179.76,-204.42 1213.59,-200.03" fill="none" stroke="#bcbcbc" stroke-width="8" stroke-linecap="round" stroke-linejoin="round" /><polyline points="923.52,-567.75 1118.08,-470.09 1123.95,-465.71 1123.56,-433.74 1127.50,-400.94" fill="none" stroke="#bcbcbc" stroke-width="8" stroke-linecap="round" stroke-linejoin="round" /><polyline points="552.58,1157.72 545.58,1179.07 517.23,1265.53 469.01,1411.13 465.59,1421.46 462.12,1431.92 461.16,1443.07" fill="none" stroke="#bcbcbc" stroke-width="8" stroke-linecap="round" stroke-linejoin="round" /><polyline points="1100.30,632.52 1101.46,621.67 1101.71,611.55 1101.63,611.20 1094.73,581.40 1091.91,568.94 1090.54,562.93 1089.15,556.80 1081.58,523.45 1066.80,456.83 1056.06,416.77 1054.53,410.58" fill="none" stroke="#bcbcbc" stroke-width="8" stroke-linecap="round" stroke-linejoin="round" /><polyline points="134.34,1242.45 139.16,1228.74 193.34,1074.76 199.49,1057.28" fill="none" stroke="#bcbcbc" stroke-width="8" stroke-linecap="round" stroke-linejoin="round" /><polyline points="1350.82,-11.35 1334.88,-15.85 1226.63,-181.95 1213.59,-200.03" fill="none" stroke="#bcbcbc" stroke-width="8" stroke-linecap="round" stroke-linejoin="round" /><polyline points="-428.67,387.20 -34.16,481.72 -6.96,491.65" fill="none" stroke="#bcbcbc" stroke-width="8" stroke-linecap="round" stroke-linejoin="round" /><polyline points="815.63,-1089.62 969.30,-1032.69 990.94,-1036.38" fill="none" stroke="#bcbcbc" stroke-width="8" stroke-linecap="round" stroke-linejoin="round" />
    <polyline points="236.66,167.20 229.39,183.28 228.51,185.23 203.27,251.05 177.83,323.50 171.05,342.82 167.20,352.80" fill="none" stroke="#ffffff" stroke-width="16" stroke-linecap="round" stroke-linejoin="round" />
    <polyline points="236.66,167.20 229.39,183.28 228.51,185.23 203.27,251.05 177.83,323.50 171.05,342.82 167.20,352.80" fill="none" stroke="#111111" stroke-width="9" stroke-linecap="round" stroke-linejoin="round" />
    
            <g transform="translate(236.66,167.20)">
              <circle r="19" fill="#ffffff" stroke="#111111" stroke-width="4" />
              <text text-anchor="middle" dominant-baseline="central" font-family="Helvetica, Arial, sans-serif"
                font-size="18" font-weight="700" fill="#111111">1</text>
            </g>
            
            <g transform="translate(167.20,352.80)">
              <circle r="19" fill="#ffffff" stroke="#111111" stroke-width="4" />
              <text text-anchor="middle" dominant-baseline="central" font-family="Helvetica, Arial, sans-serif"
                font-size="18" font-weight="700" fill="#111111">2</text>
            </g>
            
  </g>
</svg>
