<svg xmlns="http://www.w3.org/2000/svg" width="520" height="520" viewBox="0 0 520 520">
  <rect width="100%" height="100%" fill="#ffffff" />
  <g>
    <polyline points="652.41,289.34 655.45,305.51 675.06,442.73 672.06,477.04" fill="none" stroke="#bcbcbc" stroke-width="8" stroke-linecap="round" stroke-linejoin="round" /><polyline points="253.73,1432.88 258.47,1418.30 283.60,1341.02 286.56,1331.91 289.55,1322.35 352.73,1120.86 357.81,1104.66 346.18,1075.99" fill="none" stroke="#bcbcbc" stroke-width="8" stroke-linecap="round" stroke-linejoin="round" /><polyline points="-182.68,1253.67 -183.70,1242.09 -163.05,1126.40 -160.15,1111.93 -157.99,1104.35 -152.30,1075.00 -145.91,1039.09 -138.95,1007.47 -132.05,975.91 -127.70,967.01 -124.85,961.56" fill="none" stroke="#bcbcbc" stroke-width="8" stroke-linecap="round" stroke-linejoin="round" /><polyline points="-62.79,437.56 -67.70,422.58 -118.46,267.76 -120.94,261.27" fill="none" stroke="#bcbcbc" stroke-width="8" stroke-linecap="round" stroke-linejoin="round" /><polyline points="-323.25,1800.19 -321.73,1785.41 -321.12,1778.63 -315.59,1717.50 -309.54,1663.68 -308.13,1651.11 -306.82,1636.03 -306.67,1634.76 -303.24,1604.78 -300.29,1574.31 -297.03,1544.90 -294.83,1522.01 -293.92,1507.88 -293.11,1494.83 -291.67,1480.13" fill="none" stroke="#bcbcbc" stroke-width="8" stroke-linecap="round" stroke-linejoin="round" /><polyline points="378.13,1468.80 381.75,1457.44 407.22,1377.36 410.11,1368.26 414.23,1355.30 417.17,1346.01 439.72,1248.77" fill="none" stroke="#bcbcbc" stroke-width="8" stroke-linecap="round" stroke-linejoin="round" /><polyline points="279.12,-115.16 288.52,-113.71 547.73,-73.88" fill="none" stroke="#bcbcbc" stroke-width="8" stroke-linecap="round" stroke-linejoin="round" /><polyline points="-386.30,1449.93 -413.28,1448.68 -429.73,1447.91 -438.67,1447.50 -446.51,1447.13 -507.60,1444.29 -592.58,1440.34 -633.08,1434.60 -646.64,1432.67 -658.40,1430.60 -738.06,1416.53 -749.20,1414.57 -751.67,1414.15 -765.42,1411.79 -775.99,1409.98 -843.49,1404.01 -856.35,1402.87 -861.07,1402.46 -875.66,1401.44 -904.24,1399.46" fill="none" stroke="#bcbcbc" stroke-width="8" stroke-linecap="round" stroke-linejoin="round" /><polyline points="5.65,1371.65 10.88,1356.78 57.97,1226.24 114.62,1061.57 118.25,1051.25 120.78,1044.03 122.83,1038.11" fill="none" stroke="#bcbcbc" stroke-width="8" stroke-linecap="round" stroke-linejoin="round" /><polyline points="-861.07,1402.46 -862.27,1394.06 -862.55,1384.95 -860.77,1366.59 -856.66,1333.07 -853.93,1321.81 -849.49,1281.14 -848.68,1272.08 -847.38,1260.43 -846.42,1251.78 -844.60,1241.97 -841.23,1215.59 -838.88,1195.41 -835.44,1187.15" fill="none" stroke="#bcbcbc" stroke-width="8" stroke-linecap="round" stroke-linejoin="round" /><polyline points="-909.26,1176.84 -846.45,1185.61 -835.44,1187.15 -828.62,1188.24 -800.47,1192.72 -735.60,1203.06 -724.47,1204.92" fill="none" stroke="#bcbcbc" stroke-width="8" stroke-linecap="round" stroke-linejoin="round" /><polyline points="246.68,352.80 247.09,358.51 247.93,364.29 249.97,368.72 253.79,373.66 260.86,380.09 277.59,390.27 406.74,471.30 486.27,577.94 546.35,726.22 550.27,736.01" fill="none" stroke="#bcbcbc" stroke-width="8" stroke-linecap="round" stroke-linejoin="round" /><polyline points="226.00,785.44 228.68,789.87 229.37,791.02 231.59,802.21 246.74,875.48 251.55,898.74 254.99,915.30 260.36,948.87 262.86,964.36 264.59,973.81 266.48,982.34 268.74,987.32 272.06,993.08 273.83,995.80 307.39,1043.84 325.54,1072.42 330.27,1079.25" fill="none" stroke="#bcbcbc" stroke-width="8" stroke-linecap="round" stroke-linejoin="round" /><polyline points="-737.29,1702.91 -735.51,1691.91 -733.85,1683.96 -733.41,1682.91 -711.07,1629.80 -696.84,1595.28 -692.52,1584.35 -687.94,1572.76 -682.96,1562.80 -682.16,1560.86 -675.35,1544.40 -670.08,1529.83 -665.57,1516.47 -662.70,1507.02 -659.49,1495.35 -655.78,1479.71 -652.97,1467.01 -649.61,1449.29 -648.90,1445.34 -646.64,1432.67" fill="none" stroke="#bcbcbc" stroke-width="8" stroke-linecap="round" stroke-linejoin="round" /><polyline points="344.78,219.81 415.99,269.58 425.58,271.62 432.60,279.65" fill="none" stroke="#bcbcbc" stroke-width="8" stroke-linecap="round" stroke-linejoin="round" /><polyline points="45.75,679.41 55.16,683.03 96.02,696.40 190.81,732.75 196.12,738.05 198.62,742.01" fill="none" stroke="#bcbcbc" stroke-width="8" stroke-linecap="round" stroke-linejoin="round" /><polyline points="222.37,1613.51 228.83,1596.68 260.69,1510.23 283.22,1444.91 287.89,1442.76" fill="none" stroke="#bcbcbc" stroke-width="8" stroke-linecap="round" stroke-linejoin="round" /><polyline points="-228.04,1503.88 -223.01,1492.77 -222.51,1491.67 -213.91,1462.81 -199.82,1415.30 -196.21,1403.15 -193.41,1393.70 -193.03,1388.20 -193.60,1376.02" fill="none" stroke="#bcbcbc" stroke-width="8" stroke-linecap="round" stroke-linejoin="round" /><polyline points="357.63,789.24 349.55,790.90 331.24,787.65 328.41,780.09 296.69,768.00 289.19,769.96 260.57,759.45 256.30,762.43" fill="none" stroke="#bcbcbc" stroke-width="8" stroke-linecap="round" stroke-linejoin="round" /><polyline points="310.53,-192.00 324.91,-188.47 332.86,-187.09 521.94,-154.31" fill="none" stroke="#bcbcbc" stroke-width="8" stroke-linecap="round" stroke-linejoin="round" /><polyline points="163.57,1560.86 171.44,1538.68 186.72,1495.58 196.60,1477.22 210.82,1437.42 216.49,1421.54" fill="none" stroke="#bcbcbc" stroke-width="8" stroke-linecap="round" stroke-linejoin="round" /><polyline points="-872.42,700.14 -886.12,699.51 -889.55,703.68 -913.41,732.68 -996.81,829.02 -1008.54,842.57" fill="none" stroke="#bcbcbc" stroke-width="8" stroke-linecap="round" stroke-linejoin="round" /><polyline points="-140.89,782.66 -146.94,796.04 -147.67,797.67 -168.67,852.44 -189.84,912.74 -195.49,928.82 -198.69,937.12" fill="none" stroke="#bcbcbc" stroke-width="8" stroke-linecap="round" stroke-linejoin="round" /><polyline points="-343.61,1052.67 -340.12,1050.76 -335.24,1046.88 -332.79,1041.84 -300.34,918.79 -299.36,911.85 -295.40,899.17" fill="none" stroke="#bcbcbc" stroke-width="8" stroke-linecap="round" stroke-linejoin="round" /><polyline points="791.06,860.11 795.66,874.72 798.90,890.07 792.59,948.55 785.30,992.55 781.32,1007.56 780.96,1008.91 777.47,1017.01 772.72,1025.60 761.62,1039.64 766.99,1067.10 749.60,1126.03 740.00,1158.58 720.35,1211.86 691.58,1276.72 656.46,1338.88 645.49,1359.09 625.65,1392.28 546.41,1504.75 529.05,1528.15 461.82,1616.02 423.22,1659.93 369.23,1714.81 364.23,1715.33 352.04,1725.30" fill="none" stroke="#bcbcbc" stroke-width="8" stroke-linecap="round" stroke-linejoin="round" /><polyline points="-186.72,1822.21 -164.60,1753.60 -160.98,1742.27 -156.07,1735.13 -145.50,1703.42 -142.06,1692.65 -98.42,1556.01 -94.03,1542.27 -90.42,1530.19 -38.92,1368.10" fill="none" stroke="#bcbcbc" stroke-width="8" stroke-linecap="round" stroke-linejoin="round" /><polyline points="331.47,546.27 350.59,525.38 356.23,518.58 394.87,463.85" fill="none" stroke="#bcbcbc" stroke-width="8" stroke-linecap="round" stroke-linejoin="round" /><polyline points="-50.73,554.55 1.93,572.88 4.84,577.61 19.79,582.63 28.66,585.66 71.11,600.00" fill="none" stroke="#bcbcbc" stroke-width="8" stroke-linecap="round" stroke-linejoin="round" /><polyline points="408.25,190.12 432.60,279.65 460.80,385.12 465.08,393.91 465.76,403.95 484.88,439.65 536.48,535.88 547.75,552.52 551.02,557.39 628.11,701.53 663.54,733.75 668.52,740.16 675.52,746.16 742.80,803.68 747.36,807.58 759.44,814.00" fill="none" stroke="#bcbcbc" stroke-width="8" stroke-linecap="round" stroke-linejoin="round" /><polyline points="146.62,1836.77 314.39,1739.31 344.25,1724.03 352.04,1725.30" fill="none" stroke="#bcbcbc" stroke-width="8" stroke-linecap="round" stroke-linejoin="round" /><polyline points="328.52,1697.34 338.93,1684.96 432.38,1498.48 438.57,1486.25 443.74,1474.15 473.93,1399.49 482.92,1377.00 508.94,1298.26 525.81,1197.02 527.81,1182.28" fill="none" stroke="#bcbcbc" stroke-width="8" stroke-linecap="round" stroke-linejoin="round" /><polyline points="256.40,600.64 254.76,602.31 252.51,610.16 252.29,610.94 242.14,649.99 244.81,660.19 242.59,669.33 239.70,681.30 232.28,689.89 223.85,724.01 213.93,731.51 203.34,738.77 198.62,742.01" fill="none" stroke="#bcbcbc" stroke-width="8" stroke-linecap="round" stroke-linejoin="round" /><polyline points="-140.89,782.66 -136.58,771.61 -110.65,705.14 -105.00,690.64 -100.34,678.71 -67.21,593.82 -52.30,558.34 -50.73,554.55 -39.14,526.52 -13.13,461.94 -3.61,434.45 -1.49,428.15 1.36,421.00" fill="none" stroke="#bcbcbc" stroke-width="8" stroke-linecap="round" stroke-linejoin="round" /><polyline points="149.22,379.74 154.23,394.67 318.77,535.22 408.56,613.34 542.66,729.92 554.36,739.29 559.61,742.57 582.88,763.69 613.95,790.20 684.44,850.30 707.21,869.88 722.31,887.95" fill="none" stroke="#bcbcbc" stroke-width="8" stroke-linecap="round" stroke-linejoin="round" /><polyline points="421.27,137.56 429.62,132.20 479.05,111.66 489.21,100.97" fill="none" stroke="#bcbcbc" stroke-width="8" stroke-linecap="round" stroke-linejoin="round" /><polyline points="478.37,1388.38 410.11,1368.26 286.56,1331.91" fill="none" stroke="#bcbcbc" stroke-width="8" stroke-linecap="round" stroke-linejoin="round" /><polyline points="258.03,-63.63 267.36,-57.20 571.18,10.41" fill="none" stroke="#bcbcbc" stroke-width="8" stroke-linecap="round" stroke-linejoin="round" /><polyline points="633.32,936.76 617.62,901.82 582.77,818.71 580.17,812.10 574.21,796.93 551.75,739.77 550.34,736.07" fill="none" stroke="#bcbcbc" stroke-width="8" stroke-linecap="round" stroke-linejoin="round" /><polyline points="167.20,167.20 150.33,162.40 137.94,158.71 112.74,151.23 99.95,147.58 92.61,145.54 83.04,142.80" fill="none" stroke="#bcbcbc" stroke-width="8" stroke-linecap="round" stroke-linejoin="round" /><polyline points="-272.60,624.33 -273.45,621.54 -274.24,619.58 -277.71,610.94 -291.18,579.54 -303.98,547.64 -306.74,540.11 -309.93,531.44 -312.21,524.34 -315.97,513.70 -316.36,512.58 -328.61,482.40 -351.09,425.67 -356.14,422.79 -359.73,413.59 -366.90,388.68 -379.18,357.80 -381.83,350.78" fill="none" stroke="#bcbcbc" stroke-width="8" stroke-linecap="round" stroke-linejoin="round" /><polyline points="-164.60,1753.60 -151.83,1757.51 -110.53,1770.10 -97.59,1774.04" fill="none" stroke="#bcbcbc" stroke-width="8" stroke-linecap="round" stroke-linejoin="round" /><polyline points="606.78,152.41 609.19,142.68 608.21,138.98 607.03,134.52 599.49,106.89 582.67,48.48 573.80,18.61 571.18,10.41 547.73,-73.88 535.07,-119.35 521.94,-154.31 510.08,-185.85 498.26,-207.53 486.79,-218.99 398.68,-326.66 392.16,-334.33 387.84,-341.41" fill="none" stroke="#bcbcbc" stroke-width="8" stroke-linecap="round" stroke-linejoin="round" /><polyline points="246.68,352.80 242.14,354.54 233.74,356.86 232.90,357.09 197.80,366.06 157.46,377.42 149.22,379.74 145.55,380.91 135.86,384.02 127.57,386.33 91.39,396.40 31.89,413.30 9.71,418.91 1.36,421.00 -38.29,430.73 -62.79,437.56 -114.66,452.05 -165.93,466.50 -171.87,468.15 -214.72,480.04 -234.48,485.53 -244.46,490.25 -263.36,499.61 -300.88,518.66 -303.49,519.98 -312.21,524.34 -317.52,527.00 -324.93,530.89 -351.30,544.71 -399.33,571.67 -439.46,592.69 -445.20,595.70 -452.86,596.17 -457.47,598.62 -458.39,599.11 -501.92,622.97 -511.03,622.93 -521.50,628.40 -525.15,630.31 -528.23,631.93 -535.51,635.73 -541.24,648.81 -565.88,662.01 -573.71,666.20 -582.19,670.82 -616.47,689.47 -634.19,699.12 -643.12,701.69" fill="none" stroke="#bcbcbc" stroke-width="8" stroke-linecap="round" stroke-linejoin="round" /><polyline points="740.00,1158.58 721.71,1160.26 664.57,1165.49 662.00,1165.73 658.35,1166.06 652.45,1166.61 597.06,1171.69 577.79,1169.90 555.35,1175.53 537.38,1179.93 527.81,1182.28 504.02,1183.18 483.43,1182.14 472.94,1181.02 464.01,1178.32 457.43,1174.68 432.93,1157.36 373.41,1116.47 367.80,1112.67 362.09,1108.79 357.81,1104.66" fill="none" stroke="#bcbcbc" stroke-width="8" stroke-linecap="round" stroke-linejoin="round" /><polyline points="-608.07,468.35 -586.48,510.64 -583.21,522.72 -565.02,557.44 -557.50,567.37 -527.09,626.53 -525.15,630.31" fill="none" stroke="#bcbcbc" stroke-width="8" stroke-linecap="round" stroke-linejoin="round" /><polyline points="53.77,844.39 50.54,853.28 49.63,856.04 45.41,868.83 18.69,943.38 5.43,980.41 4.98,981.67 -0.35,993.18 -3.40,1000.01" fill="none" stroke="#bcbcbc" stroke-width="8" stroke-linecap="round" stroke-linejoin="round" /><polyline points="408.25,190.12 405.29,183.77 397.50,182.75 372.32,188.53 367.20,187.86 363.19,182.49 356.06,149.71 394.66,143.74 412.53,138.46 421.27,137.56 430.68,171.02" fill="none" stroke="#bcbcbc" stroke-width="8" stroke-linecap="round" stroke-linejoin="round" /><polyline points="547.75,552.52 557.70,546.94 607.64,516.84 620.98,508.89 644.35,494.96 682.78,470.11 691.75,463.66 759.17,421.83" fill="none" stroke="#bcbcbc" stroke-width="8" stroke-linecap="round" stroke-linejoin="round" /><polyline points="783.41,750.07 766.37,744.99 756.46,736.87 718.59,704.10 717.30,702.95 708.15,694.77 702.76,685.23 607.64,516.84" fill="none" stroke="#bcbcbc" stroke-width="8" stroke-linecap="round" stroke-linejoin="round" /><polyline points="-290.15,736.73 -140.89,782.66 -128.71,786.52 -17.33,821.83 -15.01,822.57 1.68,827.86 9.88,830.46 20.54,833.38 42.53,840.82 53.77,844.39 63.89,847.60 146.78,873.89 234.28,901.39 241.52,903.66 251.55,898.74" fill="none" stroke="#bcbcbc" stroke-width="8" stroke-linecap="round" stroke-linejoin="round" /><polyline points="148.71,-0.18 213.36,-59.60 224.31,-69.65" fill="none" stroke="#bcbcbc" stroke-width="8" stroke-linecap="round" stroke-linejoin="round" /><polyline points="-933.93,958.46 -696.69,983.89" fill="none" stroke="#bcbcbc" stroke-width="8" stroke-linecap="round" stroke-linejoin="round" /><polyline points="-218.26,296.26 -168.40,278.43 -116.97,259.83 -85.01,247.41 12.56,211.92 40.87,202.12 46.79,200.08 53.88,197.64 61.84,194.90 62.82,194.57 78.89,188.10 85.88,185.30" fill="none" stroke="#bcbcbc" stroke-width="8" stroke-linecap="round" stroke-linejoin="round" /><polyline points="116.63,1502.94 163.57,1560.85 192.31,1589.79 204.75,1598.75 222.37,1613.50 238.91,1627.40 253.13,1641.26 253.48,1648.32" fill="none" stroke="#bcbcbc" stroke-width="8" stroke-linecap="round" stroke-linejoin="round" /><polyline points="167.20,167.20 185.60,121.08 215.38,45.16 258.03,-63.63 279.12,-115.16 310.53,-192.00 336.29,-254.94 340.90,-263.29 363.56,-300.33 365.02,-302.72 373.31,-319.02 387.84,-341.41 395.96,-353.90 407.44,-371.58" fill="none" stroke="#bcbcbc" stroke-width="8" stroke-linecap="round" stroke-linejoin="round" /><polyline points="-266.83,1400.23 -269.84,1402.64 -271.83,1405.51 -275.89,1417.48 -278.69,1426.12 -291.65,1464.88 -293.44,1470.47 -294.54,1473.94 -306.45,1470.53 -335.41,1460.82 -364.12,1451.19 -386.30,1449.93" fill="none" stroke="#bcbcbc" stroke-width="8" stroke-linecap="round" stroke-linejoin="round" /><polyline points="-834.11,1669.96 -786.80,1547.78 -781.54,1534.48 -776.82,1521.67 -771.11,1506.19 -764.12,1481.84 -756.82,1451.58 -753.84,1429.90 -751.67,1414.15 -748.60,1402.52 -737.47,1315.16 -724.47,1204.92 -717.74,1152.36 -710.23,1090.62 -696.69,983.89 -694.54,965.75 -680.86,854.13 -680.86,847.92 -677.83,814.80 -669.11,744.85 -666.92,732.65 -664.64,725.80 -661.07,718.27 -657.61,712.42 -649.95,704.13 -643.10,701.78" fill="none" stroke="#bcbcbc" stroke-width="8" stroke-linecap="round" stroke-linejoin="round" /><polyline points="198.62,742.01 201.21,746.11 209.88,759.66 222.87,780.48 226.00,785.44 231.18,781.51 256.30,762.43" fill="none" stroke="#bcbcbc" stroke-width="8" stroke-linecap="round" stroke-linejoin="round" /><polyline points="215.38,45.16 470.97,91.37 497.82,105.50 597.96,155.14 606.78,152.41" fill="none" stroke="#bcbcbc" stroke-width="8" stroke-linecap="round" stroke-linejoin="round" /><polyline points="-272.60,624.33 -277.13,630.94 -317.91,650.85 -347.86,688.91 -380.18,708.92 -402.28,725.62 -423.37,742.82 -434.18,752.67 -453.27,776.90 -474.63,807.51 -478.15,813.18" fill="none" stroke="#bcbcbc" stroke-width="8" stroke-linecap="round" stroke-linejoin="round" /><polyline points="-229.48,651.64 -231.25,655.57 -235.12,661.22 -242.43,670.21 -285.50,724.63 -308.29,786.01 -423.31,742.77" fill="none" stroke="#bcbcbc" stroke-width="8" stroke-linecap="round" stroke-linejoin="round" /><polyline points="-402.28,725.62 -406.73,712.13 -425.98,653.85 -433.45,642.34 -445.96,604.81 -447.04,601.57 -445.20,595.70 -448.19,586.13 -508.34,394.08" fill="none" stroke="#bcbcbc" stroke-width="8" stroke-linecap="round" stroke-linejoin="round" /><polyline points="302.46,-322.28 350.00,-321.03 352.21,-320.97 361.32,-320.71 373.31,-319.02" fill="none" stroke="#bcbcbc" stroke-width="8" stroke-linecap="round" stroke-linejoin="round" /><polyline points="57.97,1226.24 41.74,1226.04 -95.69,1244.49 -105.59,1245.53 -116.92,1246.73 -182.68,1253.67 -271.28,1263.03 -318.25,1267.98 -344.24,1270.72 -365.33,1273.29 -376.16,1274.60 -388.37,1276.09 -447.31,1283.25 -461.44,1284.97 -504.97,1289.73 -737.47,1315.16" fill="none" stroke="#bcbcbc" stroke-width="8" stroke-linecap="round" stroke-linejoin="round" /><polyline points="-145.50,1703.42 -157.68,1699.50 -214.54,1681.20 -226.03,1677.50 -236.01,1674.29 -296.25,1654.93 -308.13,1651.11 -323.84,1646.05 -419.74,1615.19 -430.54,1611.71" fill="none" stroke="#bcbcbc" stroke-width="8" stroke-linecap="round" stroke-linejoin="round" /><polyline points="92.27,552.07 125.34,562.37 246.30,599.73 247.43,600.07 256.40,600.64" fill="none" stroke="#bcbcbc" stroke-width="8" stroke-linecap="round" stroke-linejoin="round" /><polyline points="432.60,279.65 597.14,282.54" fill="none" stroke="#bcbcbc" stroke-width="8" stroke-linecap="round" stroke-linejoin="round" /><polyline points="352.04,1725.30 328.52,1697.34 318.65,1685.86 310.17,1677.94 298.88,1669.50 275.81,1655.66 253.48,1648.32 208.05,1634.28 170.89,1622.49 192.31,1589.79" fill="none" stroke="#bcbcbc" stroke-width="8" stroke-linecap="round" stroke-linejoin="round" /><polyline points="116.63,1502.94 83.88,1462.51 77.65,1454.82 44.66,1409.37 37.20,1395.49 38.99,1378.97 48.93,1378.88 73.47,1383.60 110.80,1390.78" fill="none" stroke="#bcbcbc" stroke-width="8" stroke-linecap="round" stroke-linejoin="round" /><polyline points="-311.81,1179.02 -305.77,1192.01 -271.28,1263.03 -219.99,1368.62 -213.45,1382.08" fill="none" stroke="#bcbcbc" stroke-width="8" stroke-linecap="round" stroke-linejoin="round" /><polyline points="-864.27,1500.66 -851.93,1505.70 -794.15,1529.33 -781.54,1534.48 -768.27,1539.91 -700.24,1567.73 -687.94,1572.76" fill="none" stroke="#bcbcbc" stroke-width="8" stroke-linecap="round" stroke-linejoin="round" /><polyline points="-283.42,1073.73 -163.05,1126.40" fill="none" stroke="#bcbcbc" stroke-width="8" stroke-linecap="round" stroke-linejoin="round" /><polyline points="256.40,600.64 274.73,601.60 275.90,602.64 284.13,609.94 296.22,620.73 298.45,625.07 340.13,661.57 343.21,667.40 372.52,693.26 379.89,695.51 402.69,715.48 407.80,717.81 442.18,746.98 449.83,753.76 454.05,760.49" fill="none" stroke="#bcbcbc" stroke-width="8" stroke-linecap="round" stroke-linejoin="round" /><polyline points="-898.25,1073.85 -710.23,1090.62" fill="none" stroke="#bcbcbc" stroke-width="8" stroke-linecap="round" stroke-linejoin="round" /><polyline points="-478.43,1774.03 -472.61,1761.63 -471.11,1756.11 -462.94,1726.00 -433.37,1621.70 -430.54,1611.71 -427.54,1600.76 -414.15,1551.76 -391.52,1469.01 -386.30,1449.93" fill="none" stroke="#bcbcbc" stroke-width="8" stroke-linecap="round" stroke-linejoin="round" /><polyline points="-311.81,1179.02 -283.42,1073.73 -343.61,1052.67 -359.37,1061.98 -366.56,1067.44 -371.88,1074.64 -375.62,1084.14 -389.46,1135.31 -378.30,1140.99 -367.01,1143.73 -342.07,1150.22 -323.40,1156.17 -311.81,1179.02" fill="none" stroke="#bcbcbc" stroke-width="8" stroke-linecap="round" stroke-linejoin="round" /><polyline points="-389.46,1135.31 -402.64,1133.47 -710.23,1090.62" fill="none" stroke="#bcbcbc" stroke-width="8" stroke-linecap="round" stroke-linejoin="round" /><polyline points="110.80,1390.78 139.33,1397.01 216.49,1421.54 238.06,1428.36 289.27,1443.15 340.86,1458.03 379.04,1469.07 440.12,1486.70 452.74,1490.35 483.56,1500.68 534.31,1514.20 538.78,1515.04" fill="none" stroke="#bcbcbc" stroke-width="8" stroke-linecap="round" stroke-linejoin="round" /><polyline points="146.99,1836.55 136.58,1839.16 125.33,1870.53 107.87,1865.58 28.52,1838.53 18.96,1836.49 -2.29,1834.97 -98.39,1835.35 -119.58,1832.66 -167.42,1825.34 -186.72,1822.21 -323.60,1800.13 -376.60,1791.67 -477.68,1774.16 -494.00,1770.93 -722.13,1707.16 -736.52,1703.13 -834.11,1669.96 -858.12,1661.44 -918.09,1636.58 -952.27,1623.65" fill="none" stroke="#bcbcbc" stroke-width="8" stroke-linecap="round" stroke-linejoin="round" /><polyline points="356.06,149.71 346.18,147.68 214.34,163.27 167.20,167.20" fill="none" stroke="#bcbcbc" stroke-width="8" stroke-linecap="round" stroke-linejoin="round" /><polyline points="110.80,1390.78 115.42,1383.05 143.09,1311.98 174.01,1204.53 181.89,1181.39 186.11,1175.09 215.96,1079.28 217.44,1067.84 218.57,1060.36" fill="none" stroke="#bcbcbc" stroke-width="8" stroke-linecap="round" stroke-linejoin="round" /><polyline points="246.68,352.80 249.83,351.60 254.10,348.20 260.59,340.62 344.78,219.81 367.20,187.86" fill="none" stroke="#bcbcbc" stroke-width="8" stroke-linecap="round" stroke-linejoin="round" /><polyline points="621.37,796.57 623.09,791.61 665.41,741.82 668.52,740.16 675.87,730.10 700.49,701.82 708.15,694.77" fill="none" stroke="#bcbcbc" stroke-width="8" stroke-linecap="round" stroke-linejoin="round" /><polyline points="658.35,1166.06 657.77,1159.40 657.31,1154.25 655.08,1144.39 652.42,1137.96 649.09,1121.08 648.79,1114.96 646.54,1101.29 636.47,1096.03 628.41,1099.11 614.00,1102.56 602.60,1104.34 591.66,1106.98 576.56,1110.43 569.67,1112.00" fill="none" stroke="#bcbcbc" stroke-width="8" stroke-linecap="round" stroke-linejoin="round" /><polyline points="-453.47,921.54 -422.69,849.39 -420.98,844.70" fill="none" stroke="#bcbcbc" stroke-width="8" stroke-linecap="round" stroke-linejoin="round" /><polyline points="357.63,789.24 372.47,783.49 380.22,780.49 386.22,774.41 410.95,768.32 419.25,770.43 437.15,765.82 450.80,762.30 454.05,760.49 467.30,757.24 534.99,740.66 550.34,736.07" fill="none" stroke="#bcbcbc" stroke-width="8" stroke-linecap="round" stroke-linejoin="round" /><polyline points="-266.82,1400.23 -234.89,1388.63 -224.20,1385.37 -213.45,1382.08 -193.60,1376.02 -178.16,1373.80 -125.43,1368.03 -114.84,1367.45 -67.66,1367.85 -38.92,1368.10 -28.11,1367.55 -10.80,1369.30 -5.38,1370.08 5.65,1371.65 38.99,1378.97" fill="none" stroke="#bcbcbc" stroke-width="8" stroke-linecap="round" stroke-linejoin="round" /><polyline points="-114.66,452.05 -119.95,434.16 -139.60,367.72 -163.47,291.95 -168.40,278.43 -173.40,265.75 -179.73,247.48" fill="none" stroke="#bcbcbc" stroke-width="8" stroke-linecap="round" stroke-linejoin="round" /><polyline points="-171.82,1523.40 -167.62,1510.15 -125.16,1376.26 -125.43,1368.03" fill="none" stroke="#bcbcbc" stroke-width="8" stroke-linecap="round" stroke-linejoin="round" /><polyline points="-114.84,1367.45 -106.43,1254.72 -105.59,1245.53 -104.30,1234.84 -104.28,1234.35 -103.73,1221.28 -100.93,1185.79 -99.34,1169.26 -97.18,1150.49 -95.21,1136.97 -93.44,1128.49 -91.22,1122.07 -86.85,1107.61 -77.84,1077.52 -66.37,1038.66 -53.72,998.93 -51.15,990.83 -49.07,984.96" fill="none" stroke="#bcbcbc" stroke-width="8" stroke-linecap="round" stroke-linejoin="round" /><polyline points="-389.46,1135.31 -391.70,1145.30 -391.31,1148.49 -377.62,1262.53 -376.16,1274.60 -376.79,1287.03 -380.38,1357.96 -381.88,1387.59 -382.66,1402.87 -384.03,1430.11 -384.75,1444.30 -386.30,1449.93" fill="none" stroke="#bcbcbc" stroke-width="8" stroke-linecap="round" stroke-linejoin="round" /><polyline points="-453.47,921.54 -503.26,906.74 -509.59,902.68 -540.59,893.65 -549.29,893.74 -588.24,882.01 -594.53,877.36 -629.96,866.62 -673.44,854.77 -673.65,854.75 -680.86,854.13" fill="none" stroke="#bcbcbc" stroke-width="8" stroke-linecap="round" stroke-linejoin="round" /><polyline points="454.05,760.49 455.78,762.76 463.00,773.52 476.35,793.42 488.92,806.01 513.08,833.13 508.99,858.19 506.92,867.59 504.04,871.56 510.09,880.52 519.46,899.81 538.19,935.93 547.41,953.72 553.14,969.71 555.73,977.14" fill="none" stroke="#bcbcbc" stroke-width="8" stroke-linecap="round" stroke-linejoin="round" /><polyline points="580.18,812.10 573.23,814.26 527.50,828.49 520.95,830.60 513.08,833.13" fill="none" stroke="#bcbcbc" stroke-width="8" stroke-linecap="round" stroke-linejoin="round" /><polyline points="251.55,898.74 265.85,894.10 369.65,841.09 383.55,834.31 432.47,820.17 479.91,806.84 488.92,806.01" fill="none" stroke="#bcbcbc" stroke-width="8" stroke-linecap="round" stroke-linejoin="round" /><polyline points="262.86,964.36 382.53,908.67 387.57,905.33 399.27,901.93 479.01,878.72 491.11,874.09 504.04,871.56" fill="none" stroke="#bcbcbc" stroke-width="8" stroke-linecap="round" stroke-linejoin="round" /><polyline points="238.44,-203.19 286.88,-197.21 291.75,-196.61 310.53,-192.00" fill="none" stroke="#bcbcbc" stroke-width="8" stroke-linecap="round" stroke-linejoin="round" /><polyline points="652.41,289.34 661.00,287.54 693.10,303.28 697.32,307.46 757.58,409.47 759.17,421.83 767.00,428.36 765.76,432.87 765.56,440.23 766.65,450.50 782.61,516.10 784.02,561.53 786.26,634.07 790.01,731.70 774.73,774.24 764.88,800.18 750.51,836.73 746.35,847.30 743.65,850.26 739.30,878.54" fill="none" stroke="#bcbcbc" stroke-width="8" stroke-linecap="round" stroke-linejoin="round" /><polyline points="763.81,1050.84 749.15,1044.47 712.53,1018.91 664.22,984.96 637.64,963.47 619.72,944.26" fill="none" stroke="#bcbcbc" stroke-width="8" stroke-linecap="round" stroke-linejoin="round" /><polyline points="170.89,1622.49 156.50,1617.93 133.15,1610.52 122.00,1606.99 108.91,1602.84 92.37,1597.59 77.42,1592.85 62.63,1588.16 -3.29,1567.24 -14.83,1563.58 -29.18,1559.04 -32.34,1558.04 -70.04,1548.07 -80.69,1545.50 -94.03,1542.27 -108.00,1538.88 -158.32,1526.68 -171.82,1523.40 -186.32,1518.37 -216.62,1507.85 -228.04,1503.88 -238.25,1500.56 -285.69,1483.69 -291.67,1480.13 -294.54,1473.94" fill="none" stroke="#bcbcbc" stroke-width="8" stroke-linecap="round" stroke-linejoin="round" /><polyline points="387.57,905.33 384.07,892.81 373.66,855.46 369.65,841.09 363.86,830.36 363.33,828.37 359.91,815.72 363.89,810.12 359.11,794.19 357.63,789.24" fill="none" stroke="#bcbcbc" stroke-width="8" stroke-linecap="round" stroke-linejoin="round" /><polyline points="370.15,448.29 380.05,443.63 434.15,413.80 465.08,393.91 486.89,379.03 491.70,375.44 509.26,363.24 527.45,349.80 538.97,341.42 552.70,331.38 600.42,309.84 606.61,310.17 615.66,305.89 652.41,289.34" fill="none" stroke="#bcbcbc" stroke-width="8" stroke-linecap="round" stroke-linejoin="round" /><polyline points="-229.48,651.64 -221.68,654.80 -216.52,656.39 -119.78,686.10 -105.00,690.64" fill="none" stroke="#bcbcbc" stroke-width="8" stroke-linecap="round" stroke-linejoin="round" /><polyline points="-920.52,869.21 -989.64,848.29" fill="none" stroke="#bcbcbc" stroke-width="8" stroke-linecap="round" stroke-linejoin="round" /><polyline points="195.96,-105.56 213.10,-83.85 215.66,-80.61 224.31,-69.65 234.17,-68.49 254.43,-66.12 258.03,-63.63" fill="none" stroke="#bcbcbc" stroke-width="8" stroke-linecap="round" stroke-linejoin="round" /><polyline points="791.06,860.11 763.90,865.17 736.06,880.30 710.24,894.67 685.83,906.88 656.33,922.90 634.97,935.87 592.76,958.51 427.98,1041.41 385.26,1060.23 357.03,1072.44 343.04,1077.02 331.47,1079.18 312.53,1080.33 285.57,1076.51 218.31,1060.36 122.83,1038.11 -2.79,1000.21 -49.07,984.96 -124.85,961.56 -197.33,937.65 -303.62,895.94 -356.77,873.06 -420.85,844.57 -527.15,786.34 -552.07,769.81 -615.13,730.13 -641.58,703.68 -681.25,652.31 -746.60,584.92 -772.28,562.29" fill="none" stroke="#bcbcbc" stroke-width="8" stroke-linecap="round" stroke-linejoin="round" /><polyline points="275.81,1655.66 276.92,1649.45 280.94,1639.30 318.63,1551.09 332.87,1518.03 349.66,1476.83 353.74,1461.75" fill="none" stroke="#bcbcbc" stroke-width="8" stroke-linecap="round" stroke-linejoin="round" /><polyline points="-447.31,1283.25 -490.13,1262.52 -587.56,1215.36 -707.07,1157.52 -717.74,1152.36" fill="none" stroke="#bcbcbc" stroke-width="8" stroke-linecap="round" stroke-linejoin="round" /><polyline points="256.40,600.64 267.21,589.56 295.96,560.13 318.77,535.22" fill="none" stroke="#bcbcbc" stroke-width="8" stroke-linecap="round" stroke-linejoin="round" /><polyline points="-573.71,666.20 -585.59,650.48 -641.25,576.78 -720.70,512.48" fill="none" stroke="#bcbcbc" stroke-width="8" stroke-linecap="round" stroke-linejoin="round" /><polyline points="-918.52,1636.41 -907.65,1610.64 -873.10,1524.50 -868.92,1513.20 -864.27,1500.66 -862.51,1496.13 -862.04,1489.04 -857.62,1422.08 -856.35,1402.87" fill="none" stroke="#bcbcbc" stroke-width="8" stroke-linecap="round" stroke-linejoin="round" /><polyline points="-942.08,944.02 -920.52,869.21 -892.06,770.55 -888.54,758.33 -884.63,744.46 -875.86,713.39 -874.94,710.13 -872.43,700.14 -868.42,688.85 -867.45,686.12 -862.39,673.58 -852.46,651.67 -849.49,645.38" fill="none" stroke="#bcbcbc" stroke-width="8" stroke-linecap="round" stroke-linejoin="round" /><polyline points="-888.54,758.33 -844.90,769.49 -752.47,793.26 -699.80,809.65 -677.83,814.80" fill="none" stroke="#bcbcbc" stroke-width="8" stroke-linecap="round" stroke-linejoin="round" /><polyline points="9.71,418.91 11.19,409.83 12.69,400.40 19.09,368.86 35.08,295.44 48.22,229.76 50.62,216.14 53.88,197.64 53.88,197.62" fill="none" stroke="#bcbcbc" stroke-width="8" stroke-linecap="round" stroke-linejoin="round" /><polyline points="-119.49,1832.67 -100.01,1782.97 -97.59,1774.04 -20.27,1577.74 -14.83,1563.58 -10.44,1551.57 35.77,1417.13 44.66,1409.37" fill="none" stroke="#bcbcbc" stroke-width="8" stroke-linecap="round" stroke-linejoin="round" /><polyline points="145.55,380.91 145.55,380.89 142.81,366.51 142.38,364.77 135.70,337.60 135.71,337.52 131.15,319.10 111.86,252.96 109.42,245.88 96.39,210.45 92.16,199.88 89.43,193.06 85.88,185.31 85.88,185.30 85.87,185.26 83.29,156.78 83.04,142.80" fill="none" stroke="#bcbcbc" stroke-width="8" stroke-linecap="round" stroke-linejoin="round" /><polyline points="116.63,1502.94 111.67,1508.30 104.28,1517.10 83.45,1575.84 77.42,1592.85" fill="none" stroke="#bcbcbc" stroke-width="8" stroke-linecap="round" stroke-linejoin="round" /><polyline points="-229.48,651.64 -226.64,643.92 -226.00,642.13 -212.47,604.34 -207.39,588.42 -165.93,466.50" fill="none" stroke="#bcbcbc" stroke-width="8" stroke-linecap="round" stroke-linejoin="round" /><polyline points="-15.01,822.57 -10.78,811.33 0.68,780.89 5.52,768.03 8.80,759.32 17.99,734.89 24.07,718.76 24.89,716.59 39.60,677.50 45.75,679.41 49.08,670.33 54.98,654.28 53.85,646.99 69.50,604.38 71.11,600.00 74.08,597.27 76.57,594.98 92.27,552.07 94.54,540.32 117.06,477.74 122.39,473.58 133.22,442.92 131.29,438.21 140.78,409.59 135.86,384.02" fill="none" stroke="#bcbcbc" stroke-width="8" stroke-linecap="round" stroke-linejoin="round" /><polyline points="387.84,-341.41 381.53,-351.76 348.37,-406.16" fill="none" stroke="#bcbcbc" stroke-width="8" stroke-linecap="round" stroke-linejoin="round" /><polyline points="491.70,375.44 643.87,473.30 643.92,473.37 643.92,473.39 672.06,477.04" fill="none" stroke="#bcbcbc" stroke-width="8" stroke-linecap="round" stroke-linejoin="round" /><polyline points="430.68,171.02 592.59,252.29 597.47,255.94 597.14,282.54 600.42,309.84" fill="none" stroke="#bcbcbc" stroke-width="8" stroke-linecap="round" stroke-linejoin="round" /><polyline points="122.00,1606.99 116.18,1624.76 92.59,1696.71 52.46,1817.88 49.62,1826.48 46.73,1835.19 45.93,1844.47" fill="none" stroke="#bcbcbc" stroke-width="8" stroke-linecap="round" stroke-linejoin="round" /><polyline points="577.79,1169.90 578.76,1160.88 578.97,1152.45 578.90,1152.16 573.16,1127.36 570.81,1117.00 569.67,1112.00 568.51,1106.89 562.22,1079.14 549.91,1023.69 540.97,990.35 539.70,985.20" fill="none" stroke="#bcbcbc" stroke-width="8" stroke-linecap="round" stroke-linejoin="round" /><polyline points="-226.03,1677.50 -222.02,1666.09 -176.93,1537.95 -171.82,1523.40" fill="none" stroke="#bcbcbc" stroke-width="8" stroke-linecap="round" stroke-linejoin="round" /><polyline points="786.26,634.07 772.99,630.32 682.91,492.09 672.06,477.04" fill="none" stroke="#bcbcbc" stroke-width="8" stroke-linecap="round" stroke-linejoin="round" /><polyline points="-694.54,965.75 -366.25,1044.40 -343.61,1052.67" fill="none" stroke="#bcbcbc" stroke-width="8" stroke-linecap="round" stroke-linejoin="round" /><polyline points="340.90,-263.29 468.78,-215.91 486.79,-218.99" fill="none" stroke="#bcbcbc" stroke-width="8" stroke-linecap="round" stroke-linejoin="round" />
    <polyline points="167.20,167.20 173.87,176.25 178.64,188.70 186.05,206.57 197.95,234.68 208.49,259.91 220.58,287.61 229.56,308.96 230.89,312.02 230.97,312.21 238.19,329.10 240.35,333.89 242.40,338.46 244.57,342.74 246.21,347.09 246.68,352.80" fill="none" stroke="#ffffff" stroke-width="16" stroke-linecap="round" stroke-linejoin="round" />
    <polyline points="167.20,167.20 173.87,176.25 178.64,188.70 186.05,206.57 197.95,234.68 208.49,259.91 220.58,287.61 229.56,308.96 230.89,312.02 230.97,312.21 238.19,329.10 240.35,333.89 242.40,338.46 244.57,342.74 246.21,347.09 246.68,352.80" fill="none" stroke="#111111" stroke-width="9" stroke-linecap="round" stroke-linejoin="round" />
    
            <g transform="translate(167.20,167.20)">
              <circle r="19" fill="#ffffff" stroke="#111111" stroke-width="4" />
              <text text-anchor="middle" dominant-baseline="central" font-family="Helvetica, Arial, sans-serif"
                font-size="18" font-weight="700" fill="#111111">1</text>
            </g>
            
            <g transform="translate(246.68,352.80)">
              <circle r="19" fill="#ffffff" stroke="#111111" stroke-width="4" />
              <text text-anchor="middle" dominant-baseline="central" font-family="Helvetica, Arial, sans-serif"
                font-size="18" font-weight="700" fill="#111111">2</text>
            </g>
            
  </g>
</svg>
