<svg xmlns="http://www.w3.org/2000/svg" width="520" height="520" viewBox="0 0 520 520">
  <rect width="100%" height="100%" fill="#ffffff" />
  <g>
    <polyline points="1371.62,-570.15 1375.29,-550.60 1399.01,-384.68 1395.39,-343.20" fill="none" stroke="#bcbcbc" stroke-width="8" stroke-linecap="round" stroke-linejoin="round" /><polyline points="889.52,812.52 895.26,794.89 925.64,701.45 929.22,690.44 932.85,678.87 1009.24,435.25 1015.39,415.66 1001.32,381.00" fill="none" stroke="#bcbcbc" stroke-width="8" stroke-linecap="round" stroke-linejoin="round" /><polyline points="361.80,595.82 360.57,581.83 385.55,441.94 389.05,424.45 391.67,415.28 398.54,379.80 406.27,336.38 414.69,298.14 423.03,259.99 428.29,249.23 431.73,242.63" fill="none" stroke="#bcbcbc" stroke-width="8" stroke-linecap="round" stroke-linejoin="round" /><polyline points="506.78,-390.94 500.85,-409.05 439.46,-596.25 436.47,-604.10" fill="none" stroke="#bcbcbc" stroke-width="8" stroke-linecap="round" stroke-linejoin="round" /><polyline points="191.83,1256.63 193.66,1238.76 194.40,1230.57 201.08,1156.65 208.40,1091.57 210.11,1076.38 211.69,1058.14 211.87,1056.61 216.02,1020.36 219.59,983.52 223.53,947.96 226.18,920.28 227.29,903.20 228.27,887.42 230.01,869.65" fill="none" stroke="#bcbcbc" stroke-width="8" stroke-linecap="round" stroke-linejoin="round" /><polyline points="1039.95,855.95 1044.33,842.21 1075.13,745.38 1078.63,734.38 1083.60,718.71 1087.17,707.48 1114.43,589.90" fill="none" stroke="#bcbcbc" stroke-width="8" stroke-linecap="round" stroke-linejoin="round" /><polyline points="920.23,-1059.23 931.60,-1057.48 1245.04,-1009.32" fill="none" stroke="#bcbcbc" stroke-width="8" stroke-linecap="round" stroke-linejoin="round" /><polyline points="115.58,833.13 82.95,831.62 63.06,830.69 52.25,830.19 42.77,829.75 -31.10,826.31 -133.86,821.53 -182.84,814.59 -199.23,812.26 -213.45,809.75 -309.78,792.75 -323.25,790.37 -326.23,789.86 -342.86,787.01 -355.64,784.82 -437.27,777.61 -452.82,776.23 -458.52,775.73 -476.17,774.50 -510.72,772.11" fill="none" stroke="#bcbcbc" stroke-width="8" stroke-linecap="round" stroke-linejoin="round" /><polyline points="589.54,738.49 595.86,720.50 652.81,562.66 721.31,363.56 725.70,351.08 728.75,342.35 731.23,335.19" fill="none" stroke="#bcbcbc" stroke-width="8" stroke-linecap="round" stroke-linejoin="round" /><polyline points="-458.52,775.73 -459.97,765.58 -460.32,754.56 -458.16,732.36 -453.20,691.83 -449.89,678.22 -444.52,629.04 -443.55,618.09 -441.98,604.00 -440.81,593.54 -438.61,581.69 -434.53,549.79 -431.70,525.38 -427.54,515.40" fill="none" stroke="#bcbcbc" stroke-width="8" stroke-linecap="round" stroke-linejoin="round" /><polyline points="-516.80,502.93 -440.85,513.54 -427.54,515.40 -419.29,516.71 -385.24,522.14 -306.80,534.64 -293.34,536.88" fill="none" stroke="#bcbcbc" stroke-width="8" stroke-linecap="round" stroke-linejoin="round" /><polyline points="881.00,-493.42 881.49,-486.52 882.52,-479.53 884.98,-474.17 889.60,-468.20 898.14,-460.43 918.38,-448.11 1074.55,-350.14 1170.73,-221.20 1243.37,-41.92 1248.11,-30.08" fill="none" stroke="#bcbcbc" stroke-width="8" stroke-linecap="round" stroke-linejoin="round" /><polyline points="855.99,29.69 859.23,35.05 860.07,36.44 862.75,49.96 881.08,138.56 886.89,166.68 891.05,186.71 897.54,227.30 900.57,246.02 902.66,257.44 904.95,267.76 907.68,273.78 911.69,280.75 913.84,284.03 954.41,342.12 976.36,376.68 982.08,384.94" fill="none" stroke="#bcbcbc" stroke-width="8" stroke-linecap="round" stroke-linejoin="round" /><polyline points="-308.85,1139.01 -306.70,1125.72 -304.69,1116.10 -304.15,1114.83 -277.15,1050.61 -259.94,1008.88 -254.71,995.65 -249.17,981.65 -243.15,969.61 -242.18,967.25 -233.95,947.35 -227.58,929.74 -222.12,913.58 -218.65,902.16 -214.76,888.05 -210.29,869.13 -206.88,853.78 -202.82,832.36 -201.97,827.58 -199.23,812.26" fill="none" stroke="#bcbcbc" stroke-width="8" stroke-linecap="round" stroke-linejoin="round" /><polyline points="999.62,-654.22 1085.73,-594.04 1097.34,-591.58 1105.83,-581.87" fill="none" stroke="#bcbcbc" stroke-width="8" stroke-linecap="round" stroke-linejoin="round" /><polyline points="638.03,-98.51 649.41,-94.14 698.82,-77.97 813.44,-34.02 819.87,-27.61 822.88,-22.82" fill="none" stroke="#bcbcbc" stroke-width="8" stroke-linecap="round" stroke-linejoin="round" /><polyline points="851.61,1030.91 859.41,1010.57 897.94,906.04 925.19,827.06 930.83,824.46" fill="none" stroke="#bcbcbc" stroke-width="8" stroke-linecap="round" stroke-linejoin="round" /><polyline points="306.96,898.36 313.04,884.92 313.64,883.59 324.04,848.70 341.08,791.26 345.44,776.56 348.83,765.15 349.29,758.49 348.60,743.76" fill="none" stroke="#bcbcbc" stroke-width="8" stroke-linecap="round" stroke-linejoin="round" /><polyline points="1015.17,34.28 1005.40,36.29 983.26,32.36 979.83,23.22 941.48,8.60 932.40,10.97 897.80,-1.73 892.64,1.87" fill="none" stroke="#bcbcbc" stroke-width="8" stroke-linecap="round" stroke-linejoin="round" /><polyline points="958.21,-1152.14 975.59,-1147.88 985.21,-1146.21 1213.85,-1106.57" fill="none" stroke="#bcbcbc" stroke-width="8" stroke-linecap="round" stroke-linejoin="round" /><polyline points="780.51,967.25 790.02,940.44 808.50,888.33 820.44,866.13 837.63,818.01 844.49,798.80" fill="none" stroke="#bcbcbc" stroke-width="8" stroke-linecap="round" stroke-linejoin="round" /><polyline points="-472.26,-73.45 -488.82,-74.21 -492.97,-69.16 -521.82,-34.11 -622.67,82.38 -636.85,98.77" fill="none" stroke="#bcbcbc" stroke-width="8" stroke-linecap="round" stroke-linejoin="round" /><polyline points="412.34,26.33 405.03,42.51 404.14,44.47 378.74,110.70 353.14,183.60 346.32,203.05 342.45,213.08" fill="none" stroke="#bcbcbc" stroke-width="8" stroke-linecap="round" stroke-linejoin="round" /><polyline points="784.89,-717.83 792.96,-706.88 798.72,-691.83 807.69,-670.23 822.07,-636.25 834.82,-605.74 849.45,-572.24 860.30,-546.43 861.90,-542.73 862.00,-542.50 870.74,-522.08 873.34,-516.28 875.83,-510.75 878.45,-505.58 880.43,-500.32 881.00,-493.42" fill="none" stroke="#bcbcbc" stroke-width="8" stroke-linecap="round" stroke-linejoin="round" /><polyline points="1539.28,119.97 1544.84,137.64 1548.76,156.19 1541.14,226.91 1532.32,280.11 1527.51,298.25 1527.07,299.89 1522.85,309.69 1517.10,320.07 1503.68,337.05 1510.18,370.25 1489.15,441.50 1477.54,480.86 1453.78,545.27 1418.99,623.70 1376.52,698.86 1363.25,723.29 1339.27,763.42 1243.45,899.42 1222.45,927.71 1141.15,1033.95 1094.48,1087.05 1029.19,1153.40 1023.15,1154.02 1008.41,1166.08" fill="none" stroke="#bcbcbc" stroke-width="8" stroke-linecap="round" stroke-linejoin="round" /><polyline points="356.92,1283.25 383.67,1200.30 388.04,1186.60 393.99,1177.97 406.76,1139.63 410.92,1126.61 463.69,961.39 469.00,944.78 473.37,930.18 535.65,734.19" fill="none" stroke="#bcbcbc" stroke-width="8" stroke-linecap="round" stroke-linejoin="round" /><polyline points="983.53,-259.49 1006.65,-284.76 1013.47,-292.98 1060.19,-359.15" fill="none" stroke="#bcbcbc" stroke-width="8" stroke-linecap="round" stroke-linejoin="round" /><polyline points="521.36,-249.48 585.04,-227.32 588.56,-221.60 606.64,-215.54 617.37,-211.87 668.69,-194.53" fill="none" stroke="#bcbcbc" stroke-width="8" stroke-linecap="round" stroke-linejoin="round" /><polyline points="1076.38,-690.12 1105.83,-581.87 1139.92,-454.34 1145.09,-443.71 1145.91,-431.58 1169.03,-388.41 1231.43,-272.06 1245.07,-251.94 1249.02,-246.05 1342.24,-71.76 1385.09,-32.81 1391.10,-25.06 1399.57,-17.81 1480.92,51.75 1486.44,56.46 1501.05,64.22" fill="none" stroke="#bcbcbc" stroke-width="8" stroke-linecap="round" stroke-linejoin="round" /><polyline points="760.00,1300.86 962.88,1183.02 998.99,1164.55 1008.41,1166.08" fill="none" stroke="#bcbcbc" stroke-width="8" stroke-linecap="round" stroke-linejoin="round" /><polyline points="979.96,1132.27 992.55,1117.31 1105.56,891.83 1113.04,877.05 1119.30,862.41 1155.80,772.15 1166.67,744.95 1198.13,649.74 1218.53,527.33 1220.95,509.51" fill="none" stroke="#bcbcbc" stroke-width="8" stroke-linecap="round" stroke-linejoin="round" /><polyline points="892.75,-193.76 890.77,-191.73 888.05,-182.25 887.78,-181.30 875.52,-134.08 878.74,-121.75 876.06,-110.70 872.56,-96.23 863.58,-85.84 853.40,-44.59 841.40,-35.52 828.60,-26.74 822.88,-22.82" fill="none" stroke="#bcbcbc" stroke-width="8" stroke-linecap="round" stroke-linejoin="round" /><polyline points="412.34,26.33 417.55,12.96 448.90,-67.41 455.74,-84.93 461.37,-99.37 501.43,-202.00 519.47,-244.90 521.36,-249.48 535.38,-283.37 566.83,-361.45 578.34,-394.70 580.91,-402.32 584.35,-410.96" fill="none" stroke="#bcbcbc" stroke-width="8" stroke-linecap="round" stroke-linejoin="round" /><polyline points="763.15,-460.84 769.21,-442.80 968.18,-272.85 1076.75,-178.40 1238.91,-37.44 1253.06,-26.11 1259.40,-22.15 1287.54,3.39 1325.12,35.44 1410.35,108.12 1437.88,131.79 1456.15,153.64" fill="none" stroke="#bcbcbc" stroke-width="8" stroke-linecap="round" stroke-linejoin="round" /><polyline points="1092.12,-753.67 1102.21,-760.14 1162.00,-784.99 1174.28,-797.91" fill="none" stroke="#bcbcbc" stroke-width="8" stroke-linecap="round" stroke-linejoin="round" /><polyline points="1161.17,758.71 1078.63,734.38 929.22,690.44" fill="none" stroke="#bcbcbc" stroke-width="8" stroke-linecap="round" stroke-linejoin="round" /><polyline points="894.73,-996.92 906.01,-989.15 1273.39,-907.41" fill="none" stroke="#bcbcbc" stroke-width="8" stroke-linecap="round" stroke-linejoin="round" /><polyline points="1348.54,212.65 1329.55,170.40 1287.41,69.91 1284.27,61.93 1277.07,43.58 1249.91,-25.53 1248.20,-30.01" fill="none" stroke="#bcbcbc" stroke-width="8" stroke-linecap="round" stroke-linejoin="round" /><polyline points="784.89,-717.83 764.49,-723.64 749.51,-728.10 719.04,-737.14 703.57,-741.56 694.70,-744.02 683.12,-747.34" fill="none" stroke="#bcbcbc" stroke-width="8" stroke-linecap="round" stroke-linejoin="round" /><polyline points="253.08,-165.12 252.04,-168.49 251.09,-170.85 246.89,-181.30 230.60,-219.26 215.13,-257.83 211.78,-266.94 207.93,-277.43 205.18,-286.01 200.63,-298.87 200.15,-300.22 185.35,-336.72 158.16,-405.31 152.05,-408.79 147.71,-419.91 139.04,-450.04 124.19,-487.37 120.99,-495.86" fill="none" stroke="#bcbcbc" stroke-width="8" stroke-linecap="round" stroke-linejoin="round" /><polyline points="383.67,1200.30 399.10,1205.03 449.05,1220.25 464.70,1225.01" fill="none" stroke="#bcbcbc" stroke-width="8" stroke-linecap="round" stroke-linejoin="round" /><polyline points="1316.45,-735.71 1319.35,-747.48 1318.17,-751.95 1316.75,-757.34 1307.63,-790.75 1287.29,-861.38 1276.57,-897.49 1273.39,-907.41 1245.04,-1009.32 1229.73,-1064.30 1213.85,-1106.57 1199.51,-1144.70 1185.23,-1170.92 1171.35,-1184.77 1064.80,-1314.96 1056.92,-1324.23 1051.70,-1332.79" fill="none" stroke="#bcbcbc" stroke-width="8" stroke-linecap="round" stroke-linejoin="round" /><polyline points="881.00,-493.42 875.51,-491.32 865.35,-488.52 864.33,-488.24 821.90,-477.38 773.11,-463.65 763.15,-460.84 758.71,-459.43 746.99,-455.67 736.97,-452.88 693.22,-440.71 621.27,-420.27 594.45,-413.49 584.35,-410.96 536.40,-399.19 506.78,-390.94 444.05,-373.42 382.06,-355.94 374.88,-353.95 323.07,-339.57 299.16,-332.94 287.10,-327.23 264.25,-315.91 218.87,-292.88 215.71,-291.28 205.18,-286.01 198.75,-282.79 189.79,-278.09 157.91,-261.38 99.82,-228.79 51.30,-203.37 44.36,-199.73 35.09,-199.15 29.52,-196.19 28.41,-195.61 -24.23,-166.76 -35.25,-166.81 -47.90,-160.19 -52.32,-157.88 -56.05,-155.93 -64.85,-151.32 -71.78,-135.51 -101.57,-119.55 -111.05,-114.48 -121.30,-108.90 -162.74,-86.35 -184.17,-74.69 -194.97,-71.57" fill="none" stroke="#bcbcbc" stroke-width="8" stroke-linecap="round" stroke-linejoin="round" /><polyline points="1477.54,480.86 1455.42,482.88 1386.33,489.21 1383.21,489.50 1378.81,489.90 1371.68,490.56 1304.69,496.71 1281.39,494.55 1254.26,501.35 1232.52,506.67 1220.95,509.51 1192.19,510.60 1167.29,509.34 1154.60,507.99 1143.80,504.72 1135.85,500.32 1106.22,479.38 1034.25,429.95 1027.47,425.34 1020.56,420.66 1015.39,415.66" fill="none" stroke="#bcbcbc" stroke-width="8" stroke-linecap="round" stroke-linejoin="round" /><polyline points="-152.60,-353.71 -126.48,-302.58 -122.53,-287.97 -100.53,-245.99 -91.44,-233.99 -54.67,-162.45 -52.32,-157.88" fill="none" stroke="#bcbcbc" stroke-width="8" stroke-linecap="round" stroke-linejoin="round" /><polyline points="647.73,100.96 643.82,111.71 642.72,115.05 637.62,130.52 605.31,220.66 589.27,265.42 588.73,266.95 582.28,280.86 578.59,289.13" fill="none" stroke="#bcbcbc" stroke-width="8" stroke-linecap="round" stroke-linejoin="round" /><polyline points="1076.38,-690.12 1072.79,-697.79 1063.38,-699.03 1032.92,-692.04 1026.73,-692.85 1021.89,-699.35 1013.27,-738.97 1059.95,-746.20 1081.55,-752.58 1092.12,-753.67 1103.50,-713.21" fill="none" stroke="#bcbcbc" stroke-width="8" stroke-linecap="round" stroke-linejoin="round" /><polyline points="1245.07,-251.94 1257.09,-258.69 1317.48,-295.08 1333.62,-304.69 1361.87,-321.53 1408.35,-351.58 1419.19,-359.38 1500.71,-409.95" fill="none" stroke="#bcbcbc" stroke-width="8" stroke-linecap="round" stroke-linejoin="round" /><polyline points="1530.03,-13.07 1509.42,-19.21 1497.44,-29.04 1451.65,-68.66 1450.09,-70.06 1439.02,-79.94 1432.51,-91.47 1317.48,-295.08" fill="none" stroke="#bcbcbc" stroke-width="8" stroke-linecap="round" stroke-linejoin="round" /><polyline points="231.85,-29.21 412.34,26.33 427.06,30.99 561.75,73.69 564.56,74.58 584.74,80.98 594.66,84.12 607.55,87.65 634.14,96.65 647.73,100.96 659.97,104.84 760.20,136.64 866.01,169.88 874.76,172.63 886.89,166.68" fill="none" stroke="#bcbcbc" stroke-width="8" stroke-linecap="round" stroke-linejoin="round" /><polyline points="762.53,-920.22 840.71,-992.05 853.95,-1004.21" fill="none" stroke="#bcbcbc" stroke-width="8" stroke-linecap="round" stroke-linejoin="round" /><polyline points="-546.63,238.89 -259.75,269.64" fill="none" stroke="#bcbcbc" stroke-width="8" stroke-linecap="round" stroke-linejoin="round" /><polyline points="318.78,-561.78 379.07,-583.35 441.27,-605.83 479.91,-620.85 597.89,-663.76 632.13,-675.61 639.28,-678.08 647.86,-681.03 657.49,-684.34 658.67,-684.74 678.10,-692.56 686.55,-695.95" fill="none" stroke="#bcbcbc" stroke-width="8" stroke-linecap="round" stroke-linejoin="round" /><polyline points="723.74,897.22 780.51,967.25 815.26,1002.24 830.30,1013.07 851.61,1030.91 871.61,1047.71 888.80,1064.47 889.22,1073.00" fill="none" stroke="#bcbcbc" stroke-width="8" stroke-linecap="round" stroke-linejoin="round" /><polyline points="784.89,-717.83 807.14,-773.59 843.15,-865.40 894.73,-996.92 920.23,-1059.23 958.21,-1152.14 989.36,-1228.24 994.94,-1238.34 1022.33,-1283.12 1024.10,-1286.02 1034.12,-1305.72 1051.70,-1332.79 1061.51,-1347.90 1075.40,-1369.27" fill="none" stroke="#bcbcbc" stroke-width="8" stroke-linecap="round" stroke-linejoin="round" /><polyline points="260.05,773.04 256.41,775.95 254.00,779.42 249.10,793.89 245.71,804.34 230.03,851.20 227.87,857.97 226.54,862.16 212.14,858.04 177.11,846.29 142.40,834.65 115.58,833.13" fill="none" stroke="#bcbcbc" stroke-width="8" stroke-linecap="round" stroke-linejoin="round" /><polyline points="-425.92,1099.17 -368.72,951.44 -362.35,935.36 -356.65,919.87 -349.75,901.16 -341.29,871.71 -332.47,835.13 -328.86,808.91 -326.23,789.86 -322.53,775.80 -309.06,670.17 -293.34,536.88 -285.20,473.33 -276.12,398.68 -259.75,269.64 -257.16,247.70 -240.62,112.75 -240.61,105.23 -236.95,65.19 -226.40,-19.39 -223.76,-34.14 -221.00,-42.42 -216.68,-51.53 -212.49,-58.60 -203.23,-68.63 -194.95,-71.47" fill="none" stroke="#bcbcbc" stroke-width="8" stroke-linecap="round" stroke-linejoin="round" /><polyline points="822.88,-22.82 826.01,-17.86 836.50,-1.49 852.21,23.69 855.99,29.69 862.26,24.93 892.64,1.87" fill="none" stroke="#bcbcbc" stroke-width="8" stroke-linecap="round" stroke-linejoin="round" /><polyline points="843.15,-865.40 1152.22,-809.52 1184.69,-792.44 1305.78,-732.41 1316.45,-735.71" fill="none" stroke="#bcbcbc" stroke-width="8" stroke-linecap="round" stroke-linejoin="round" /><polyline points="253.08,-165.12 247.59,-157.12 198.28,-133.05 162.07,-87.02 122.99,-62.83 96.26,-42.65 70.76,-21.85 57.69,-9.93 34.60,19.36 8.77,56.37 4.52,63.23" fill="none" stroke="#bcbcbc" stroke-width="8" stroke-linecap="round" stroke-linejoin="round" /><polyline points="305.21,-132.10 303.07,-127.34 298.39,-120.51 289.56,-109.64 237.47,-43.84 209.92,30.38 70.82,-21.90" fill="none" stroke="#bcbcbc" stroke-width="8" stroke-linecap="round" stroke-linejoin="round" /><polyline points="96.26,-42.64 90.87,-58.95 67.60,-129.42 58.57,-143.34 43.44,-188.72 42.13,-192.63 44.36,-199.73 40.74,-211.30 -31.99,-443.51" fill="none" stroke="#bcbcbc" stroke-width="8" stroke-linecap="round" stroke-linejoin="round" /><polyline points="948.45,-1309.67 1005.93,-1308.16 1008.62,-1308.08 1019.63,-1307.77 1034.12,-1305.72" fill="none" stroke="#bcbcbc" stroke-width="8" stroke-linecap="round" stroke-linejoin="round" /><polyline points="652.81,562.66 633.18,562.42 467.00,584.73 455.02,585.99 441.33,587.43 361.80,595.82 254.67,607.14 197.87,613.13 166.45,616.45 140.94,619.55 127.84,621.14 113.08,622.93 41.80,631.59 24.72,633.67 -27.92,639.43 -309.06,670.17" fill="none" stroke="#bcbcbc" stroke-width="8" stroke-linecap="round" stroke-linejoin="round" /><polyline points="406.76,1139.63 392.04,1134.89 323.28,1112.76 309.38,1108.29 297.31,1104.41 224.47,1080.99 210.11,1076.38 191.10,1070.26 75.14,1032.94 62.09,1028.74" fill="none" stroke="#bcbcbc" stroke-width="8" stroke-linecap="round" stroke-linejoin="round" /><polyline points="694.28,-252.49 734.28,-240.02 880.54,-194.86 881.91,-194.44 892.75,-193.76" fill="none" stroke="#bcbcbc" stroke-width="8" stroke-linecap="round" stroke-linejoin="round" /><polyline points="1105.83,-581.87 1304.79,-578.37" fill="none" stroke="#bcbcbc" stroke-width="8" stroke-linecap="round" stroke-linejoin="round" /><polyline points="1008.41,1166.08 979.96,1132.27 968.03,1118.39 957.78,1108.81 944.12,1098.62 916.22,1081.88 889.22,1073.00 834.29,1056.03 789.36,1041.77 815.26,1002.24" fill="none" stroke="#bcbcbc" stroke-width="8" stroke-linecap="round" stroke-linejoin="round" /><polyline points="723.74,897.22 684.14,848.34 676.61,839.04 636.71,784.09 627.69,767.31 629.85,747.33 641.88,747.22 671.55,752.93 716.69,761.61" fill="none" stroke="#bcbcbc" stroke-width="8" stroke-linecap="round" stroke-linejoin="round" /><polyline points="205.66,505.57 212.96,521.28 254.67,607.14 316.69,734.81 324.60,751.09" fill="none" stroke="#bcbcbc" stroke-width="8" stroke-linecap="round" stroke-linejoin="round" /><polyline points="-462.40,894.46 -447.48,900.56 -377.61,929.13 -362.35,935.36 -346.31,941.92 -264.05,975.56 -249.17,981.65" fill="none" stroke="#bcbcbc" stroke-width="8" stroke-linecap="round" stroke-linejoin="round" /><polyline points="239.98,378.26 385.55,441.94" fill="none" stroke="#bcbcbc" stroke-width="8" stroke-linecap="round" stroke-linejoin="round" /><polyline points="892.75,-193.76 914.92,-192.59 916.34,-191.34 926.29,-182.51 940.91,-169.46 943.61,-164.21 994.01,-120.08 997.73,-113.04 1033.17,-81.76 1042.09,-79.04 1069.65,-54.90 1075.83,-52.08 1117.40,-16.81 1126.66,-8.61 1131.76,-0.48" fill="none" stroke="#bcbcbc" stroke-width="8" stroke-linecap="round" stroke-linejoin="round" /><polyline points="-503.48,378.41 -276.12,398.68" fill="none" stroke="#bcbcbc" stroke-width="8" stroke-linecap="round" stroke-linejoin="round" /><polyline points="4.17,1225.00 11.22,1210.01 13.03,1203.33 22.90,1166.93 58.67,1040.82 62.09,1028.74 65.71,1015.50 81.91,956.25 109.27,856.20 115.58,833.13" fill="none" stroke="#bcbcbc" stroke-width="8" stroke-linecap="round" stroke-linejoin="round" /><polyline points="205.66,505.57 239.98,378.26 167.20,352.80 148.14,364.05 139.45,370.66 133.02,379.36 128.50,390.85 111.76,452.71 125.26,459.59 138.90,462.90 169.07,470.75 191.65,477.94 205.66,505.57" fill="none" stroke="#bcbcbc" stroke-width="8" stroke-linecap="round" stroke-linejoin="round" /><polyline points="111.76,452.71 95.82,450.49 -276.12,398.68" fill="none" stroke="#bcbcbc" stroke-width="8" stroke-linecap="round" stroke-linejoin="round" /><polyline points="716.69,761.61 751.19,769.15 844.49,798.80 870.58,807.05 932.50,824.94 994.88,842.92 1041.06,856.27 1114.92,877.59 1130.18,882.00 1167.45,894.49 1228.81,910.84 1234.22,911.85" fill="none" stroke="#bcbcbc" stroke-width="8" stroke-linecap="round" stroke-linejoin="round" /><polyline points="760.46,1300.60 747.87,1303.76 734.26,1341.69 713.15,1335.69 617.19,1302.99 605.64,1300.52 579.94,1298.68 463.73,1299.15 438.11,1295.89 380.26,1287.04 356.92,1283.25 191.41,1256.56 127.31,1246.33 5.08,1225.16 -14.66,1221.25 -290.51,1144.15 -307.92,1139.27 -425.92,1099.17 -454.96,1088.87 -527.47,1058.82 -568.81,1043.18" fill="none" stroke="#bcbcbc" stroke-width="8" stroke-linecap="round" stroke-linejoin="round" /><polyline points="1013.27,-738.97 1001.33,-741.43 841.89,-722.58 784.89,-717.83" fill="none" stroke="#bcbcbc" stroke-width="8" stroke-linecap="round" stroke-linejoin="round" /><polyline points="716.69,761.61 722.28,752.26 755.74,666.34 793.12,536.42 802.66,508.43 807.76,500.82 843.85,384.97 845.64,371.14 847.01,362.10" fill="none" stroke="#bcbcbc" stroke-width="8" stroke-linecap="round" stroke-linejoin="round" /><polyline points="881.00,-493.42 884.81,-494.88 889.98,-498.98 897.82,-508.15 999.62,-654.22 1026.73,-692.85" fill="none" stroke="#bcbcbc" stroke-width="8" stroke-linecap="round" stroke-linejoin="round" /><polyline points="1334.09,43.14 1336.17,37.15 1387.34,-23.06 1391.10,-25.06 1399.99,-37.22 1429.76,-71.41 1439.02,-79.94" fill="none" stroke="#bcbcbc" stroke-width="8" stroke-linecap="round" stroke-linejoin="round" /><polyline points="1378.81,489.90 1378.10,481.85 1377.55,475.62 1374.86,463.70 1371.63,455.93 1367.61,435.51 1367.25,428.12 1364.52,411.59 1352.34,405.23 1342.61,408.95 1325.18,413.12 1311.39,415.28 1298.16,418.47 1279.90,422.63 1271.57,424.53" fill="none" stroke="#bcbcbc" stroke-width="8" stroke-linecap="round" stroke-linejoin="round" /><polyline points="34.36,194.25 71.58,107.01 73.65,101.34" fill="none" stroke="#bcbcbc" stroke-width="8" stroke-linecap="round" stroke-linejoin="round" /><polyline points="1015.17,34.28 1033.11,27.33 1042.48,23.70 1049.74,16.36 1079.64,8.98 1089.68,11.54 1111.32,5.96 1127.83,1.71 1131.76,-0.48 1147.78,-4.40 1229.64,-24.46 1248.20,-30.01" fill="none" stroke="#bcbcbc" stroke-width="8" stroke-linecap="round" stroke-linejoin="round" /><polyline points="260.05,773.04 298.67,759.01 311.59,755.07 324.60,751.09 348.60,743.76 367.27,741.08 431.03,734.10 443.84,733.40 500.89,733.89 535.65,734.19 548.72,733.52 569.65,735.64 576.20,736.58 589.54,738.49 629.85,747.33" fill="none" stroke="#bcbcbc" stroke-width="8" stroke-linecap="round" stroke-linejoin="round" /><polyline points="444.05,-373.42 437.66,-395.05 413.90,-475.38 385.03,-566.99 379.07,-583.35 373.02,-598.67 365.37,-620.76" fill="none" stroke="#bcbcbc" stroke-width="8" stroke-linecap="round" stroke-linejoin="round" /><polyline points="374.94,921.97 380.02,905.94 431.35,744.06 431.03,734.10" fill="none" stroke="#bcbcbc" stroke-width="8" stroke-linecap="round" stroke-linejoin="round" /><polyline points="443.84,733.40 454.01,597.10 455.02,585.99 456.58,573.06 456.60,572.47 457.27,556.66 460.66,513.76 462.58,493.77 465.19,471.08 467.58,454.73 469.71,444.47 472.40,436.71 477.68,419.23 488.59,382.84 502.45,335.86 517.74,287.82 520.86,278.03 523.37,270.93" fill="none" stroke="#bcbcbc" stroke-width="8" stroke-linecap="round" stroke-linejoin="round" /><polyline points="111.76,452.71 109.05,464.79 109.52,468.65 126.08,606.54 127.84,621.14 127.08,636.16 122.74,721.92 120.92,757.75 119.99,776.23 118.32,809.17 117.45,826.32 115.58,833.13" fill="none" stroke="#bcbcbc" stroke-width="8" stroke-linecap="round" stroke-linejoin="round" /><polyline points="34.36,194.25 -25.86,176.35 -33.51,171.44 -70.99,160.52 -81.52,160.63 -128.61,146.45 -136.21,140.84 -179.06,127.85 -231.64,113.52 -231.89,113.49 -240.62,112.75" fill="none" stroke="#bcbcbc" stroke-width="8" stroke-linecap="round" stroke-linejoin="round" /><polyline points="1131.76,-0.48 1133.86,2.26 1142.59,15.28 1158.73,39.34 1173.92,54.56 1203.14,87.35 1198.20,117.65 1195.69,129.02 1192.21,133.82 1199.53,144.66 1210.86,167.97 1233.50,211.65 1244.65,233.16 1251.59,252.49 1254.71,261.47" fill="none" stroke="#bcbcbc" stroke-width="8" stroke-linecap="round" stroke-linejoin="round" /><polyline points="1284.27,61.93 1275.88,64.54 1220.58,81.75 1212.65,84.29 1203.14,87.35" fill="none" stroke="#bcbcbc" stroke-width="8" stroke-linecap="round" stroke-linejoin="round" /><polyline points="886.89,166.68 904.18,161.07 1029.70,96.98 1046.50,88.77 1105.66,71.69 1163.02,55.56 1173.92,54.56" fill="none" stroke="#bcbcbc" stroke-width="8" stroke-linecap="round" stroke-linejoin="round" /><polyline points="900.57,246.02 1045.27,178.68 1051.37,174.65 1065.52,170.54 1161.94,142.48 1176.57,136.88 1192.21,133.82" fill="none" stroke="#bcbcbc" stroke-width="8" stroke-linecap="round" stroke-linejoin="round" /><polyline points="871.04,-1165.68 929.62,-1158.44 935.50,-1157.71 958.21,-1152.14" fill="none" stroke="#bcbcbc" stroke-width="8" stroke-linecap="round" stroke-linejoin="round" /><polyline points="1371.62,-570.15 1382.01,-572.32 1420.82,-553.30 1425.93,-548.24 1498.80,-424.90 1500.71,-409.95 1510.19,-402.06 1508.68,-396.60 1508.45,-387.71 1509.77,-375.28 1529.06,-295.98 1530.77,-241.05 1533.48,-153.34 1538.01,-35.29 1519.53,16.15 1507.63,47.51 1490.25,91.70 1485.22,104.49 1481.95,108.06 1476.70,142.26" fill="none" stroke="#bcbcbc" stroke-width="8" stroke-linecap="round" stroke-linejoin="round" /><polyline points="1506.33,350.59 1488.60,342.88 1444.32,311.98 1385.90,270.93 1353.77,244.94 1332.09,221.72" fill="none" stroke="#bcbcbc" stroke-width="8" stroke-linecap="round" stroke-linejoin="round" /><polyline points="789.36,1041.77 771.95,1036.26 743.71,1027.30 730.24,1023.03 714.41,1018.01 694.41,1011.67 676.32,1005.94 658.45,1000.27 578.73,974.97 564.77,970.54 547.43,965.05 543.60,963.84 498.01,951.79 485.14,948.68 469.00,944.78 452.11,940.68 391.26,925.93 374.94,921.97 357.41,915.88 320.77,903.16 306.96,898.36 294.61,894.35 237.24,873.95 230.01,869.65 226.54,862.16" fill="none" stroke="#bcbcbc" stroke-width="8" stroke-linecap="round" stroke-linejoin="round" /><polyline points="1051.37,174.65 1047.14,159.51 1034.55,114.35 1029.70,96.98 1022.70,84.00 1022.05,81.59 1017.93,66.31 1022.73,59.53 1016.96,40.26 1015.17,34.28" fill="none" stroke="#bcbcbc" stroke-width="8" stroke-linecap="round" stroke-linejoin="round" /><polyline points="1030.31,-377.96 1042.28,-383.60 1107.70,-419.66 1145.09,-443.71 1171.47,-461.70 1177.29,-466.04 1198.52,-480.80 1220.52,-497.04 1234.44,-507.18 1251.05,-519.32 1308.76,-545.36 1316.24,-544.97 1327.18,-550.14 1371.62,-570.15" fill="none" stroke="#bcbcbc" stroke-width="8" stroke-linecap="round" stroke-linejoin="round" /><polyline points="305.21,-132.10 314.65,-128.27 320.88,-126.35 437.87,-90.42 455.74,-84.93" fill="none" stroke="#bcbcbc" stroke-width="8" stroke-linecap="round" stroke-linejoin="round" /><polyline points="-530.41,130.98 -613.99,105.68" fill="none" stroke="#bcbcbc" stroke-width="8" stroke-linecap="round" stroke-linejoin="round" /><polyline points="819.67,-1047.63 840.39,-1021.38 843.48,-1017.46 853.95,-1004.21 865.87,-1002.81 890.38,-999.94 894.73,-996.92" fill="none" stroke="#bcbcbc" stroke-width="8" stroke-linecap="round" stroke-linejoin="round" /><polyline points="1539.28,119.97 1506.44,126.09 1472.77,144.39 1441.56,161.76 1412.04,176.52 1376.37,195.90 1350.54,211.58 1299.49,238.94 1100.23,339.19 1048.57,361.94 1014.44,376.70 997.53,382.24 983.54,384.85 960.63,386.24 928.03,381.63 846.70,362.10 731.23,335.19 579.33,289.37 523.37,270.93 431.73,242.63 344.09,213.73 215.56,163.30 151.29,135.63 73.80,101.19 -54.73,30.77 -84.87,10.79 -161.13,-37.18 -193.11,-69.16 -241.08,-131.28 -320.11,-212.76 -351.16,-240.12" fill="none" stroke="#bcbcbc" stroke-width="8" stroke-linecap="round" stroke-linejoin="round" /><polyline points="916.22,1081.88 917.57,1074.37 922.43,1062.10 968.01,955.44 985.23,915.47 1005.52,865.65 1010.47,847.42" fill="none" stroke="#bcbcbc" stroke-width="8" stroke-linecap="round" stroke-linejoin="round" /><polyline points="41.80,631.59 -9.97,606.54 -127.79,549.51 -272.30,479.58 -285.20,473.33" fill="none" stroke="#bcbcbc" stroke-width="8" stroke-linecap="round" stroke-linejoin="round" /><polyline points="892.75,-193.76 905.83,-207.15 940.59,-242.73 968.18,-272.85" fill="none" stroke="#bcbcbc" stroke-width="8" stroke-linecap="round" stroke-linejoin="round" /><polyline points="-111.05,-114.48 -125.41,-133.50 -192.71,-222.61 -288.79,-300.35" fill="none" stroke="#bcbcbc" stroke-width="8" stroke-linecap="round" stroke-linejoin="round" /><polyline points="-527.99,1058.60 -514.85,1027.44 -473.08,923.30 -468.01,909.63 -462.40,894.46 -460.26,888.99 -459.70,880.42 -454.35,799.46 -452.82,776.23" fill="none" stroke="#bcbcbc" stroke-width="8" stroke-linecap="round" stroke-linejoin="round" /><polyline points="-556.49,221.43 -530.41,130.98 -496.00,11.68 -491.75,-3.09 -487.01,-19.86 -476.41,-57.42 -475.29,-61.37 -472.26,-73.45 -467.41,-87.10 -466.24,-90.41 -460.12,-105.56 -448.12,-132.05 -444.53,-139.65" fill="none" stroke="#bcbcbc" stroke-width="8" stroke-linecap="round" stroke-linejoin="round" /><polyline points="-491.74,-3.09 -438.98,10.41 -327.20,39.14 -263.52,58.97 -236.95,65.19" fill="none" stroke="#bcbcbc" stroke-width="8" stroke-linecap="round" stroke-linejoin="round" /><polyline points="594.45,-413.49 596.24,-424.47 598.05,-435.87 605.79,-474.01 625.13,-562.78 641.01,-642.18 643.92,-658.66 647.86,-681.03 647.87,-681.05" fill="none" stroke="#bcbcbc" stroke-width="8" stroke-linecap="round" stroke-linejoin="round" /><polyline points="438.21,1295.90 461.77,1235.81 464.70,1225.01 558.20,987.67 564.77,970.54 570.08,956.02 625.96,793.48 636.71,784.09" fill="none" stroke="#bcbcbc" stroke-width="8" stroke-linecap="round" stroke-linejoin="round" /><polyline points="758.71,-459.43 758.71,-459.46 755.40,-476.84 754.88,-478.95 746.80,-511.80 746.81,-511.90 741.30,-534.17 717.97,-614.13 715.03,-622.70 699.27,-665.53 694.15,-678.32 690.84,-686.57 686.56,-695.94 686.55,-695.95 686.55,-695.99 683.42,-730.43 683.12,-747.34" fill="none" stroke="#bcbcbc" stroke-width="8" stroke-linecap="round" stroke-linejoin="round" /><polyline points="723.74,897.23 717.74,903.71 708.80,914.35 683.61,985.37 676.32,1005.94" fill="none" stroke="#bcbcbc" stroke-width="8" stroke-linecap="round" stroke-linejoin="round" /><polyline points="305.21,-132.10 308.65,-141.42 309.43,-143.59 325.79,-189.28 331.92,-208.52 382.06,-355.94" fill="none" stroke="#bcbcbc" stroke-width="8" stroke-linecap="round" stroke-linejoin="round" /><polyline points="564.56,74.58 569.67,60.99 583.53,24.19 589.39,8.63 593.35,-1.90 604.47,-31.43 611.81,-50.94 612.80,-53.56 630.59,-100.82 638.03,-98.51 642.06,-109.49 649.19,-128.89 647.82,-137.71 666.75,-189.24 668.70,-194.53 672.29,-197.83 675.30,-200.60 694.28,-252.49 697.03,-266.69 724.26,-342.35 730.70,-347.39 743.80,-384.46 741.47,-390.14 752.95,-424.76 746.99,-455.67" fill="none" stroke="#bcbcbc" stroke-width="8" stroke-linecap="round" stroke-linejoin="round" /><polyline points="1051.70,-1332.79 1044.07,-1345.31 1003.97,-1411.09" fill="none" stroke="#bcbcbc" stroke-width="8" stroke-linecap="round" stroke-linejoin="round" /><polyline points="1177.29,-466.04 1361.30,-347.72 1361.35,-347.64 1361.35,-347.62 1395.39,-343.20" fill="none" stroke="#bcbcbc" stroke-width="8" stroke-linecap="round" stroke-linejoin="round" /><polyline points="1103.50,-713.21 1299.28,-614.94 1305.19,-610.54 1304.79,-578.37 1308.76,-545.36" fill="none" stroke="#bcbcbc" stroke-width="8" stroke-linecap="round" stroke-linejoin="round" /><polyline points="730.24,1023.03 723.19,1044.51 694.67,1131.51 646.15,1278.02 642.71,1288.42 639.22,1298.95 638.24,1310.17" fill="none" stroke="#bcbcbc" stroke-width="8" stroke-linecap="round" stroke-linejoin="round" /><polyline points="1281.39,494.55 1282.56,483.63 1282.81,473.45 1282.73,473.09 1275.79,443.11 1272.95,430.58 1271.57,424.53 1270.17,418.35 1262.56,384.80 1247.68,317.76 1236.87,277.45 1235.34,271.22" fill="none" stroke="#bcbcbc" stroke-width="8" stroke-linecap="round" stroke-linejoin="round" /><polyline points="309.38,1108.29 314.24,1094.49 368.75,939.56 374.94,921.97" fill="none" stroke="#bcbcbc" stroke-width="8" stroke-linecap="round" stroke-linejoin="round" /><polyline points="1533.48,-153.34 1517.44,-157.86 1408.51,-325.01 1395.39,-343.20" fill="none" stroke="#bcbcbc" stroke-width="8" stroke-linecap="round" stroke-linejoin="round" /><polyline points="-257.16,247.70 139.83,342.80 167.20,352.80" fill="none" stroke="#bcbcbc" stroke-width="8" stroke-linecap="round" stroke-linejoin="round" /><polyline points="994.94,-1238.34 1149.57,-1181.06 1171.35,-1184.77" fill="none" stroke="#bcbcbc" stroke-width="8" stroke-linecap="round" stroke-linejoin="round" />
    <polyline points="167.20,352.80 171.42,350.49 177.33,345.80 180.29,339.71 219.53,190.92 220.71,182.53 225.50,167.20" fill="none" stroke="#ffffff" stroke-width="16" stroke-linecap="round" stroke-linejoin="round" />
    <polyline points="167.20,352.80 171.42,350.49 177.33,345.80 180.29,339.71 219.53,190.92 220.71,182.53 225.50,167.20" fill="none" stroke="#111111" stroke-width="9" stroke-linecap="round" stroke-linejoin="round" />
    
            <g transform="translate(167.20,352.80)">
              <circle r="19" fill="#ffffff" stroke="#111111" stroke-width="4" />
              <text text-anchor="middle" dominant-baseline="central" font-family="Helvetica, Arial, sans-serif"
                font-size="18" font-weight="700" fill="#111111">1</text>
            </g>
            
            <g transform="translate(225.50,167.20)">
              <circle r="19" fill="#ffffff" stroke="#111111" stroke-width="4" />
              <text text-anchor="middle" dominant-baseline="central" font-family="Helvetica, Arial, sans-serif"
                font-size="18" font-weight="700" fill="#111111">2</text>
            </g>
            
  </g>
</svg>
