<svg xmlns="http://www.w3.org/2000/svg" width="520" height="520" viewBox="0 0 520 520">
  <rect width="100%" height="100%" fill="#ffffff" />
  <g>
    <polyline points="231.64,44.76 232.30,48.23 236.50,77.67 235.86,85.02" fill="none" stroke="#bcbcbc" stroke-width="8" stroke-linecap="round" stroke-linejoin="round" /><polyline points="146.11,290.07 147.12,286.94 152.52,270.37 153.15,268.41 153.79,266.36 167.35,223.14 168.44,219.66 165.94,213.51" fill="none" stroke="#bcbcbc" stroke-width="8" stroke-linecap="round" stroke-linejoin="round" /><polyline points="52.48,251.63 52.26,249.14 56.69,224.32 57.31,221.22 57.77,219.59 58.99,213.30 60.36,205.60 61.86,198.81 63.34,192.04 64.27,190.13 64.88,188.96" fill="none" stroke="#bcbcbc" stroke-width="8" stroke-linecap="round" stroke-linejoin="round" /><polyline points="78.20,76.55 77.15,73.34 66.25,40.13 65.72,38.74" fill="none" stroke="#bcbcbc" stroke-width="8" stroke-linecap="round" stroke-linejoin="round" /><polyline points="22.32,368.87 22.64,365.70 22.77,364.24 23.96,351.13 25.26,339.58 25.56,336.89 25.84,333.65 25.87,333.38 26.61,326.95 27.24,320.41 27.94,314.10 28.41,309.19 28.61,306.16 28.78,303.36 29.09,300.21" fill="none" stroke="#bcbcbc" stroke-width="8" stroke-linecap="round" stroke-linejoin="round" /><polyline points="172.80,297.78 173.57,295.34 179.04,278.16 179.66,276.21 180.54,273.43 181.17,271.44 186.01,250.58" fill="none" stroke="#bcbcbc" stroke-width="8" stroke-linecap="round" stroke-linejoin="round" /><polyline points="151.55,-42.01 153.57,-41.70 209.18,-33.16" fill="none" stroke="#bcbcbc" stroke-width="8" stroke-linecap="round" stroke-linejoin="round" /><polyline points="8.79,293.73 3.00,293.46 -0.53,293.30 -2.45,293.21 -4.13,293.13 -17.24,292.52 -35.47,291.67 -44.16,290.44 -47.07,290.03 -49.59,289.58 -66.68,286.56 -69.07,286.14 -69.60,286.05 -72.55,285.55 -74.82,285.16 -89.30,283.88 -92.06,283.63 -93.07,283.54 -96.20,283.33 -102.33,282.90" fill="none" stroke="#bcbcbc" stroke-width="8" stroke-linecap="round" stroke-linejoin="round" /><polyline points="92.88,276.94 94.00,273.75 104.11,245.74 116.26,210.42 117.04,208.20 117.58,206.66 118.02,205.38" fill="none" stroke="#bcbcbc" stroke-width="8" stroke-linecap="round" stroke-linejoin="round" /><polyline points="-93.07,283.54 -93.33,281.74 -93.39,279.79 -93.01,275.85 -92.13,268.66 -91.54,266.25 -90.59,257.52 -90.41,255.58 -90.14,253.08 -89.93,251.22 -89.54,249.12 -88.81,243.46 -88.31,239.13 -87.57,237.36" fill="none" stroke="#bcbcbc" stroke-width="8" stroke-linecap="round" stroke-linejoin="round" /><polyline points="-103.41,235.14 -89.94,237.03 -87.57,237.36 -86.11,237.59 -80.07,238.55 -66.15,240.77 -63.76,241.17" fill="none" stroke="#bcbcbc" stroke-width="8" stroke-linecap="round" stroke-linejoin="round" /><polyline points="144.60,58.37 144.68,59.60 144.86,60.84 145.30,61.79 146.12,62.85 147.64,64.23 151.23,66.41 178.94,83.79 196.00,106.67 208.89,138.48 209.73,140.58" fill="none" stroke="#bcbcbc" stroke-width="8" stroke-linecap="round" stroke-linejoin="round" /><polyline points="140.16,151.18 140.73,152.13 140.88,152.38 141.36,154.78 144.61,170.50 145.64,175.49 146.38,179.04 147.53,186.24 148.07,189.56 148.44,191.59 148.84,193.42 149.33,194.49 150.04,195.72 150.42,196.31 157.62,206.61 161.51,212.75 162.53,214.21" fill="none" stroke="#bcbcbc" stroke-width="8" stroke-linecap="round" stroke-linejoin="round" /><polyline points="-66.52,348.00 -66.13,345.64 -65.78,343.93 -65.68,343.71 -60.89,332.31 -57.84,324.91 -56.91,322.56 -55.93,320.08 -54.86,317.94 -54.69,317.52 -53.23,313.99 -52.10,310.87 -51.13,308.00 -50.51,305.98 -49.82,303.47 -49.03,300.12 -48.42,297.39 -47.70,293.59 -47.55,292.74 -47.07,290.03" fill="none" stroke="#bcbcbc" stroke-width="8" stroke-linecap="round" stroke-linejoin="round" /><polyline points="165.64,29.84 180.92,40.52 182.98,40.96 184.49,42.68" fill="none" stroke="#bcbcbc" stroke-width="8" stroke-linecap="round" stroke-linejoin="round" /><polyline points="101.49,128.44 103.51,129.21 112.27,132.08 132.61,139.88 133.75,141.02 134.28,141.87" fill="none" stroke="#bcbcbc" stroke-width="8" stroke-linecap="round" stroke-linejoin="round" /><polyline points="139.38,328.82 140.76,325.21 147.60,306.66 152.43,292.65 153.44,292.19" fill="none" stroke="#bcbcbc" stroke-width="8" stroke-linecap="round" stroke-linejoin="round" /><polyline points="42.74,305.30 43.82,302.92 43.93,302.68 45.78,296.49 48.80,286.30 49.57,283.69 50.18,281.67 50.26,280.49 50.13,277.87" fill="none" stroke="#bcbcbc" stroke-width="8" stroke-linecap="round" stroke-linejoin="round" /><polyline points="168.40,152.00 166.67,152.35 162.74,151.66 162.13,150.04 155.32,147.44 153.72,147.86 147.58,145.61 146.66,146.25" fill="none" stroke="#bcbcbc" stroke-width="8" stroke-linecap="round" stroke-linejoin="round" /><polyline points="158.29,-58.50 161.38,-57.74 163.08,-57.45 203.65,-50.41" fill="none" stroke="#bcbcbc" stroke-width="8" stroke-linecap="round" stroke-linejoin="round" /><polyline points="126.76,317.52 128.45,312.77 131.73,303.52 133.85,299.58 136.90,291.05 138.12,287.64" fill="none" stroke="#bcbcbc" stroke-width="8" stroke-linecap="round" stroke-linejoin="round" /><polyline points="-95.51,132.88 -98.45,132.75 -99.18,133.64 -104.30,139.86 -122.20,160.53 -124.71,163.44" fill="none" stroke="#bcbcbc" stroke-width="8" stroke-linecap="round" stroke-linejoin="round" /><polyline points="61.44,150.59 60.15,153.46 59.99,153.81 55.48,165.56 50.94,178.49 49.73,181.94 49.04,183.72" fill="none" stroke="#bcbcbc" stroke-width="8" stroke-linecap="round" stroke-linejoin="round" /><polyline points="127.54,18.56 128.97,20.50 130.00,23.17 131.59,27.00 134.14,33.03 136.40,38.45 139.00,44.39 140.92,48.97 141.21,49.63 141.22,49.67 142.77,53.29 143.24,54.32 143.68,55.30 144.14,56.22 144.49,57.15 144.60,58.37" fill="none" stroke="#bcbcbc" stroke-width="8" stroke-linecap="round" stroke-linejoin="round" /><polyline points="17.95,208.51 18.70,208.10 19.75,207.27 20.27,206.19 27.23,179.79 27.44,178.30 28.29,175.58" fill="none" stroke="#bcbcbc" stroke-width="8" stroke-linecap="round" stroke-linejoin="round" /><polyline points="51.61,373.59 56.36,358.87 57.13,356.44 58.19,354.91 60.45,348.11 61.19,345.80 70.55,316.49 71.50,313.54 72.27,310.95 83.32,276.17" fill="none" stroke="#bcbcbc" stroke-width="8" stroke-linecap="round" stroke-linejoin="round" /><polyline points="162.79,99.88 166.89,95.39 168.10,93.94 176.39,82.19" fill="none" stroke="#bcbcbc" stroke-width="8" stroke-linecap="round" stroke-linejoin="round" /><polyline points="80.79,101.65 92.08,105.58 92.71,106.60 95.92,107.67 97.82,108.33 106.93,111.40" fill="none" stroke="#bcbcbc" stroke-width="8" stroke-linecap="round" stroke-linejoin="round" /><polyline points="179.26,23.47 184.49,42.68 190.53,65.31 191.45,67.19 191.60,69.34 195.70,77.00 206.77,97.65 209.19,101.22 209.89,102.26 226.43,133.18 234.03,140.09 235.10,141.47 236.60,142.76 251.04,155.10 252.02,155.93 254.61,157.31" fill="none" stroke="#bcbcbc" stroke-width="8" stroke-linecap="round" stroke-linejoin="round" /><polyline points="123.13,376.71 159.12,355.81 165.53,352.53 167.20,352.80" fill="none" stroke="#bcbcbc" stroke-width="8" stroke-linecap="round" stroke-linejoin="round" /><polyline points="162.15,346.80 164.39,344.15 184.44,304.14 185.77,301.52 186.87,298.92 193.35,282.91 195.28,278.08 200.86,261.19 204.48,239.47 204.91,236.31" fill="none" stroke="#bcbcbc" stroke-width="8" stroke-linecap="round" stroke-linejoin="round" /><polyline points="146.68,111.54 146.33,111.90 145.85,113.58 145.80,113.75 143.62,122.13 144.19,124.31 143.72,126.27 143.10,128.84 141.50,130.69 139.70,138.00 137.57,139.61 135.30,141.17 134.28,141.87" fill="none" stroke="#bcbcbc" stroke-width="8" stroke-linecap="round" stroke-linejoin="round" /><polyline points="61.44,150.59 62.37,148.21 67.93,133.96 69.14,130.85 70.14,128.29 77.25,110.08 80.45,102.46 80.79,101.65 83.27,95.64 88.85,81.79 90.90,75.89 91.35,74.54 91.96,73.00" fill="none" stroke="#bcbcbc" stroke-width="8" stroke-linecap="round" stroke-linejoin="round" /><polyline points="123.69,64.15 124.76,67.35 160.06,97.51 179.33,114.26 208.10,139.27 210.61,141.28 211.73,141.99 216.73,146.52 223.39,152.20 238.52,165.10 243.40,169.30 246.64,173.17" fill="none" stroke="#bcbcbc" stroke-width="8" stroke-linecap="round" stroke-linejoin="round" /><polyline points="182.05,12.20 183.84,11.05 194.45,6.64 196.63,4.35" fill="none" stroke="#bcbcbc" stroke-width="8" stroke-linecap="round" stroke-linejoin="round" /><polyline points="194.30,280.52 179.66,276.21 153.15,268.41" fill="none" stroke="#bcbcbc" stroke-width="8" stroke-linecap="round" stroke-linejoin="round" /><polyline points="147.03,-30.96 149.03,-29.58 214.22,-15.08" fill="none" stroke="#bcbcbc" stroke-width="8" stroke-linecap="round" stroke-linejoin="round" /><polyline points="227.55,183.64 224.18,176.15 216.70,158.32 216.15,156.90 214.87,153.65 210.05,141.39 209.74,140.59" fill="none" stroke="#bcbcbc" stroke-width="8" stroke-linecap="round" stroke-linejoin="round" /><polyline points="127.54,18.56 123.92,17.53 121.26,16.74 115.86,15.13 113.11,14.35 111.54,13.91 109.49,13.32" fill="none" stroke="#bcbcbc" stroke-width="8" stroke-linecap="round" stroke-linejoin="round" /><polyline points="33.18,116.62 33.00,116.02 32.83,115.60 32.09,113.75 29.20,107.01 26.45,100.17 25.86,98.56 25.18,96.69 24.69,95.17 23.88,92.89 23.80,92.65 21.17,86.18 16.34,74.01 15.26,73.39 14.49,71.41 12.95,66.07 10.32,59.45 9.75,57.94" fill="none" stroke="#bcbcbc" stroke-width="8" stroke-linecap="round" stroke-linejoin="round" /><polyline points="56.36,358.87 59.09,359.71 67.96,362.41 70.73,363.26" fill="none" stroke="#bcbcbc" stroke-width="8" stroke-linecap="round" stroke-linejoin="round" /><polyline points="221.85,15.39 222.37,13.30 222.16,12.50 221.91,11.55 220.29,5.62 216.68,-6.91 214.78,-13.32 214.22,-15.08 209.18,-33.16 206.47,-42.91 203.65,-50.41 201.11,-57.18 198.57,-61.83 196.11,-64.29 177.21,-87.38 175.81,-89.03 174.88,-90.55" fill="none" stroke="#bcbcbc" stroke-width="8" stroke-linecap="round" stroke-linejoin="round" /><polyline points="144.60,58.37 143.62,58.75 141.82,59.24 141.64,59.29 134.11,61.22 125.45,63.66 123.69,64.15 122.90,64.40 120.82,65.07 119.04,65.57 111.28,67.73 98.51,71.35 93.75,72.55 91.96,73.00 83.45,75.09 78.20,76.55 67.07,79.66 56.07,82.76 54.80,83.12 45.60,85.67 41.36,86.85 39.22,87.86 35.17,89.87 27.12,93.95 26.56,94.24 24.69,95.17 23.55,95.74 21.96,96.58 16.30,99.54 5.99,105.32 -2.61,109.83 -3.85,110.48 -5.49,110.58 -6.48,111.11 -6.68,111.21 -16.02,116.33 -17.97,116.32 -20.22,117.49 -21.00,117.90 -21.66,118.25 -23.22,119.07 -24.45,121.87 -29.74,124.70 -31.42,125.60 -33.24,126.59 -40.59,130.60 -44.39,132.66 -46.31,133.22" fill="none" stroke="#bcbcbc" stroke-width="8" stroke-linecap="round" stroke-linejoin="round" /><polyline points="250.44,231.23 246.51,231.59 234.25,232.71 233.70,232.76 232.92,232.83 231.65,232.95 219.77,234.04 215.63,233.66 210.82,234.86 206.96,235.81 204.91,236.31 199.81,236.51 195.39,236.28 193.14,236.04 191.22,235.46 189.81,234.68 184.56,230.97 171.79,222.20 170.58,221.38 169.36,220.55 168.44,219.66" fill="none" stroke="#bcbcbc" stroke-width="8" stroke-linecap="round" stroke-linejoin="round" /><polyline points="-38.79,83.16 -34.16,92.23 -33.46,94.82 -29.55,102.27 -27.94,104.40 -21.42,117.09 -21.00,117.90" fill="none" stroke="#bcbcbc" stroke-width="8" stroke-linecap="round" stroke-linejoin="round" /><polyline points="103.21,163.83 102.51,165.74 102.32,166.33 101.41,169.07 95.68,185.06 92.84,193.01 92.74,193.28 91.60,195.75 90.94,197.21" fill="none" stroke="#bcbcbc" stroke-width="8" stroke-linecap="round" stroke-linejoin="round" /><polyline points="179.26,23.47 178.62,22.11 176.95,21.89 171.55,23.13 170.45,22.99 169.59,21.84 168.06,14.81 176.34,13.53 180.18,12.39 182.05,12.20 184.07,19.38" fill="none" stroke="#bcbcbc" stroke-width="8" stroke-linecap="round" stroke-linejoin="round" /><polyline points="209.19,101.22 211.32,100.02 222.04,93.56 224.90,91.86 229.91,88.87 238.16,83.54 240.08,82.15 254.55,73.18" fill="none" stroke="#bcbcbc" stroke-width="8" stroke-linecap="round" stroke-linejoin="round" /><polyline points="259.75,143.60 256.09,142.51 253.97,140.76 245.84,133.73 245.57,133.49 243.60,131.73 242.45,129.69 222.04,93.56" fill="none" stroke="#bcbcbc" stroke-width="8" stroke-linecap="round" stroke-linejoin="round" /><polyline points="29.42,140.73 61.44,150.59 64.05,151.41 87.95,158.99 88.45,159.15 92.03,160.28 93.79,160.84 96.08,161.47 100.79,163.06 103.21,163.83 105.38,164.52 123.16,170.16 141.94,176.06 143.49,176.54 145.64,175.49" fill="none" stroke="#bcbcbc" stroke-width="8" stroke-linecap="round" stroke-linejoin="round" /><polyline points="123.58,-17.35 137.45,-30.09 139.79,-32.25" fill="none" stroke="#bcbcbc" stroke-width="8" stroke-linecap="round" stroke-linejoin="round" /><polyline points="-108.70,188.30 -57.80,193.75" fill="none" stroke="#bcbcbc" stroke-width="8" stroke-linecap="round" stroke-linejoin="round" /><polyline points="44.84,46.24 55.54,42.42 66.57,38.43 73.43,35.76 94.36,28.15 100.44,26.05 101.71,25.61 103.23,25.09 104.94,24.50 105.15,24.43 108.60,23.04 110.09,22.44" fill="none" stroke="#bcbcbc" stroke-width="8" stroke-linecap="round" stroke-linejoin="round" /><polyline points="116.69,305.10 126.76,317.52 132.93,323.73 135.60,325.65 139.38,328.82 142.93,331.80 145.98,334.77 146.05,336.29" fill="none" stroke="#bcbcbc" stroke-width="8" stroke-linecap="round" stroke-linejoin="round" /><polyline points="127.54,18.56 131.49,8.67 137.88,-7.62 147.03,-30.96 151.55,-42.01 158.29,-58.50 163.82,-72.00 164.81,-73.79 169.67,-81.74 169.98,-82.25 171.76,-85.75 174.88,-90.55 176.62,-93.23 179.09,-97.02" fill="none" stroke="#bcbcbc" stroke-width="8" stroke-linecap="round" stroke-linejoin="round" /><polyline points="34.42,283.07 33.78,283.58 33.35,284.20 32.48,286.77 31.88,288.62 29.10,296.94 28.71,298.14 28.48,298.88 25.92,298.15 19.71,296.06 13.55,294.00 8.79,293.73" fill="none" stroke="#bcbcbc" stroke-width="8" stroke-linecap="round" stroke-linejoin="round" /><polyline points="-87.29,340.93 -77.14,314.72 -76.01,311.87 -75.00,309.12 -73.77,305.80 -72.27,300.57 -70.71,294.08 -70.06,289.43 -69.60,286.05 -68.94,283.56 -66.55,264.82 -63.76,241.17 -62.32,229.89 -60.71,216.65 -57.80,193.75 -57.34,189.86 -54.41,165.92 -54.41,164.59 -53.76,157.48 -51.89,142.47 -51.42,139.86 -50.93,138.39 -50.16,136.77 -49.42,135.52 -47.78,133.74 -46.31,133.24" fill="none" stroke="#bcbcbc" stroke-width="8" stroke-linecap="round" stroke-linejoin="round" /><polyline points="134.28,141.87 134.84,142.75 136.70,145.65 139.49,150.12 140.16,151.18 141.27,150.34 146.66,146.25" fill="none" stroke="#bcbcbc" stroke-width="8" stroke-linecap="round" stroke-linejoin="round" /><polyline points="137.88,-7.62 192.72,2.29 198.48,5.32 219.96,15.97 221.85,15.39" fill="none" stroke="#bcbcbc" stroke-width="8" stroke-linecap="round" stroke-linejoin="round" /><polyline points="33.18,116.62 32.21,118.04 23.46,122.31 17.04,130.48 10.10,134.77 5.36,138.35 0.84,142.04 -1.48,144.15 -5.58,149.35 -10.16,155.92 -10.92,157.13" fill="none" stroke="#bcbcbc" stroke-width="8" stroke-linecap="round" stroke-linejoin="round" /><polyline points="42.43,122.48 42.06,123.32 41.23,124.53 39.66,126.46 30.42,138.14 25.53,151.30 0.85,142.03" fill="none" stroke="#bcbcbc" stroke-width="8" stroke-linecap="round" stroke-linejoin="round" /><polyline points="5.36,138.35 4.41,135.46 0.28,122.95 -1.33,120.48 -4.01,112.43 -4.24,111.74 -3.85,110.48 -4.49,108.43 -17.39,67.23" fill="none" stroke="#bcbcbc" stroke-width="8" stroke-linecap="round" stroke-linejoin="round" /><polyline points="156.56,-86.45 166.76,-86.18 167.24,-86.16 169.19,-86.11 171.76,-85.75" fill="none" stroke="#bcbcbc" stroke-width="8" stroke-linecap="round" stroke-linejoin="round" /><polyline points="104.11,245.74 100.63,245.70 71.14,249.66 69.02,249.88 66.59,250.14 52.48,251.63 33.47,253.63 23.39,254.70 17.81,255.28 13.29,255.83 10.96,256.12 8.35,256.44 -4.30,257.97 -7.33,258.34 -16.67,259.36 -66.55,264.82" fill="none" stroke="#bcbcbc" stroke-width="8" stroke-linecap="round" stroke-linejoin="round" /><polyline points="60.45,348.11 57.84,347.27 45.64,343.34 43.18,342.55 41.03,341.86 28.11,337.70 25.56,336.89 22.19,335.80 1.61,329.18 -0.70,328.43" fill="none" stroke="#bcbcbc" stroke-width="8" stroke-linecap="round" stroke-linejoin="round" /><polyline points="111.47,101.12 118.56,103.33 144.51,111.34 144.76,111.42 146.68,111.54" fill="none" stroke="#bcbcbc" stroke-width="8" stroke-linecap="round" stroke-linejoin="round" /><polyline points="184.49,42.68 219.79,43.30" fill="none" stroke="#bcbcbc" stroke-width="8" stroke-linecap="round" stroke-linejoin="round" /><polyline points="167.20,352.80 162.15,346.80 160.04,344.34 158.22,342.64 155.79,340.83 150.84,337.86 146.05,336.29 136.31,333.28 128.34,330.75 132.93,323.73" fill="none" stroke="#bcbcbc" stroke-width="8" stroke-linecap="round" stroke-linejoin="round" /><polyline points="116.69,305.10 109.67,296.43 108.33,294.78 101.25,285.03 99.65,282.05 100.03,278.51 102.17,278.49 107.43,279.50 115.44,281.04" fill="none" stroke="#bcbcbc" stroke-width="8" stroke-linecap="round" stroke-linejoin="round" /><polyline points="24.77,235.61 26.07,238.40 33.47,253.63 44.47,276.29 45.87,279.17" fill="none" stroke="#bcbcbc" stroke-width="8" stroke-linecap="round" stroke-linejoin="round" /><polyline points="-93.76,304.61 -91.11,305.69 -78.71,310.76 -76.01,311.87 -73.16,313.03 -58.57,319.00 -55.93,320.08" fill="none" stroke="#bcbcbc" stroke-width="8" stroke-linecap="round" stroke-linejoin="round" /><polyline points="30.86,213.03 56.69,224.32" fill="none" stroke="#bcbcbc" stroke-width="8" stroke-linecap="round" stroke-linejoin="round" /><polyline points="146.68,111.54 150.61,111.75 150.86,111.97 152.63,113.53 155.22,115.85 155.70,116.78 164.65,124.61 165.31,125.86 171.59,131.41 173.18,131.89 178.07,136.17 179.16,136.67 186.54,142.93 188.18,144.39 189.09,145.83" fill="none" stroke="#bcbcbc" stroke-width="8" stroke-linecap="round" stroke-linejoin="round" /><polyline points="-101.05,213.05 -60.71,216.65" fill="none" stroke="#bcbcbc" stroke-width="8" stroke-linecap="round" stroke-linejoin="round" /><polyline points="-10.98,363.25 -9.73,360.59 -9.41,359.41 -7.65,352.95 -1.31,330.58 -0.70,328.43 -0.06,326.09 2.82,315.57 7.67,297.82 8.79,293.73" fill="none" stroke="#bcbcbc" stroke-width="8" stroke-linecap="round" stroke-linejoin="round" /><polyline points="24.77,235.61 30.86,213.03 17.95,208.51 14.57,210.51 13.03,211.68 11.88,213.22 11.08,215.26 8.11,226.24 10.51,227.46 12.93,228.04 18.28,229.44 22.29,230.71 24.77,235.61" fill="none" stroke="#bcbcbc" stroke-width="8" stroke-linecap="round" stroke-linejoin="round" /><polyline points="8.11,226.24 5.28,225.84 -60.71,216.65" fill="none" stroke="#bcbcbc" stroke-width="8" stroke-linecap="round" stroke-linejoin="round" /><polyline points="115.44,281.04 121.56,282.38 138.12,287.64 142.75,289.10 153.73,292.28 164.80,295.47 172.99,297.83 186.10,301.62 188.81,302.40 195.42,304.62 206.31,307.52 207.27,307.70" fill="none" stroke="#bcbcbc" stroke-width="8" stroke-linecap="round" stroke-linejoin="round" /><polyline points="123.21,376.67 120.97,377.23 118.56,383.96 114.81,382.89 97.79,377.09 95.74,376.65 91.18,376.33 70.56,376.41 66.01,375.83 55.75,374.26 51.61,373.59 22.24,368.85 10.87,367.04 -10.82,363.28 -14.32,362.59 -63.26,348.91 -66.35,348.04 -87.29,340.93 -92.44,339.10 -105.30,333.77 -112.64,331.00" fill="none" stroke="#bcbcbc" stroke-width="8" stroke-linecap="round" stroke-linejoin="round" /><polyline points="168.06,14.81 165.94,14.37 137.66,17.71 127.54,18.56" fill="none" stroke="#bcbcbc" stroke-width="8" stroke-linecap="round" stroke-linejoin="round" /><polyline points="115.44,281.04 116.43,279.38 122.37,264.14 129.00,241.09 130.69,236.12 131.60,234.77 138.00,214.22 138.32,211.76 138.56,210.16" fill="none" stroke="#bcbcbc" stroke-width="8" stroke-linecap="round" stroke-linejoin="round" /><polyline points="144.60,58.37 145.27,58.11 146.19,57.39 147.58,55.76 165.64,29.84 170.45,22.99" fill="none" stroke="#bcbcbc" stroke-width="8" stroke-linecap="round" stroke-linejoin="round" /><polyline points="224.98,153.57 225.35,152.51 234.43,141.82 235.10,141.47 236.68,139.31 241.96,133.24 243.60,131.73" fill="none" stroke="#bcbcbc" stroke-width="8" stroke-linecap="round" stroke-linejoin="round" /><polyline points="232.92,232.83 232.79,231.40 232.70,230.30 232.22,228.19 231.65,226.81 230.93,223.18 230.87,221.87 230.38,218.94 228.22,217.81 226.50,218.47 223.40,219.21 220.96,219.59 218.61,220.16 215.37,220.90 213.89,221.24" fill="none" stroke="#bcbcbc" stroke-width="8" stroke-linecap="round" stroke-linejoin="round" /><polyline points="-5.62,180.38 0.98,164.90 1.35,163.90" fill="none" stroke="#bcbcbc" stroke-width="8" stroke-linecap="round" stroke-linejoin="round" /><polyline points="168.40,152.00 171.58,150.76 173.25,150.12 174.53,148.82 179.84,147.51 181.62,147.96 185.46,146.97 188.39,146.22 189.09,145.83 191.93,145.13 206.45,141.58 209.74,140.59" fill="none" stroke="#bcbcbc" stroke-width="8" stroke-linecap="round" stroke-linejoin="round" /><polyline points="34.42,283.07 41.28,280.58 43.57,279.88 45.87,279.17 50.13,277.87 53.45,277.40 64.76,276.16 67.03,276.04 77.15,276.12 83.32,276.17 85.64,276.06 89.35,276.43 90.52,276.60 92.88,276.94 100.03,278.51" fill="none" stroke="#bcbcbc" stroke-width="8" stroke-linecap="round" stroke-linejoin="round" /><polyline points="67.07,79.66 65.93,75.83 61.72,61.57 56.60,45.32 55.54,42.42 54.47,39.70 53.11,35.78" fill="none" stroke="#bcbcbc" stroke-width="8" stroke-linecap="round" stroke-linejoin="round" /><polyline points="54.81,309.49 55.71,306.65 64.82,277.93 64.76,276.16" fill="none" stroke="#bcbcbc" stroke-width="8" stroke-linecap="round" stroke-linejoin="round" /><polyline points="67.03,276.04 68.84,251.85 69.02,249.88 69.29,247.59 69.30,247.48 69.41,244.68 70.02,237.07 70.36,233.52 70.82,229.49 71.24,226.59 71.62,224.77 72.10,223.40 73.04,220.30 74.97,213.84 77.43,205.50 80.14,196.98 80.70,195.24 81.14,193.98" fill="none" stroke="#bcbcbc" stroke-width="8" stroke-linecap="round" stroke-linejoin="round" /><polyline points="8.11,226.24 7.63,228.38 7.71,229.06 10.65,253.53 10.96,256.12 10.83,258.78 10.06,274.00 9.74,280.35 9.57,283.63 9.28,289.48 9.12,292.52 8.79,293.73" fill="none" stroke="#bcbcbc" stroke-width="8" stroke-linecap="round" stroke-linejoin="round" /><polyline points="-5.62,180.38 -16.30,177.20 -17.66,176.33 -24.31,174.40 -26.18,174.41 -34.54,171.90 -35.89,170.90 -43.49,168.60 -52.82,166.06 -52.86,166.05 -54.41,165.92" fill="none" stroke="#bcbcbc" stroke-width="8" stroke-linecap="round" stroke-linejoin="round" /><polyline points="189.09,145.83 189.46,146.32 191.01,148.63 193.87,152.89 196.57,155.60 201.75,161.41 200.87,166.79 200.43,168.81 199.81,169.66 201.11,171.58 203.12,175.72 207.14,183.47 209.12,187.28 210.35,190.71 210.90,192.31" fill="none" stroke="#bcbcbc" stroke-width="8" stroke-linecap="round" stroke-linejoin="round" /><polyline points="216.15,156.90 214.66,157.37 204.85,160.42 203.44,160.87 201.75,161.41" fill="none" stroke="#bcbcbc" stroke-width="8" stroke-linecap="round" stroke-linejoin="round" /><polyline points="145.64,175.49 148.71,174.49 170.98,163.12 173.96,161.67 184.46,158.63 194.63,155.77 196.57,155.60" fill="none" stroke="#bcbcbc" stroke-width="8" stroke-linecap="round" stroke-linejoin="round" /><polyline points="148.07,189.56 173.74,177.62 174.82,176.90 177.33,176.17 194.44,171.19 197.04,170.20 199.81,169.66" fill="none" stroke="#bcbcbc" stroke-width="8" stroke-linecap="round" stroke-linejoin="round" /><polyline points="142.83,-60.90 153.22,-59.61 154.26,-59.49 158.29,-58.50" fill="none" stroke="#bcbcbc" stroke-width="8" stroke-linecap="round" stroke-linejoin="round" /><polyline points="231.64,44.76 233.49,44.37 240.37,47.75 241.28,48.65 254.21,70.53 254.55,73.18 256.23,74.58 255.96,75.55 255.92,77.13 256.15,79.33 259.58,93.40 259.88,103.15 260.36,118.71 261.17,139.65 257.89,148.78 255.77,154.34 252.69,162.19 251.80,164.45 251.22,165.09 250.29,171.15" fill="none" stroke="#bcbcbc" stroke-width="8" stroke-linecap="round" stroke-linejoin="round" /><polyline points="255.54,208.12 252.40,206.75 244.54,201.27 234.18,193.98 228.48,189.37 224.63,185.25" fill="none" stroke="#bcbcbc" stroke-width="8" stroke-linecap="round" stroke-linejoin="round" /><polyline points="128.34,330.75 125.25,329.77 120.24,328.18 117.85,327.42 115.04,326.53 111.49,325.41 108.28,324.39 105.11,323.38 90.96,318.89 88.49,318.11 85.41,317.13 84.73,316.92 76.64,314.78 74.36,314.23 71.50,313.54 68.50,312.81 57.70,310.19 54.81,309.49 51.70,308.41 45.20,306.15 42.74,305.30 40.55,304.59 30.37,300.97 29.09,300.21 28.48,298.88" fill="none" stroke="#bcbcbc" stroke-width="8" stroke-linecap="round" stroke-linejoin="round" /><polyline points="174.82,176.90 174.07,174.21 171.84,166.20 170.98,163.12 169.74,160.82 169.62,160.39 168.89,157.68 169.74,156.48 168.72,153.06 168.40,152.00" fill="none" stroke="#bcbcbc" stroke-width="8" stroke-linecap="round" stroke-linejoin="round" /><polyline points="171.09,78.86 173.21,77.86 184.82,71.46 191.45,67.19 196.13,64.00 197.16,63.23 200.93,60.61 204.83,57.73 207.31,55.93 210.25,53.78 220.49,49.16 221.82,49.23 223.76,48.31 231.64,44.76" fill="none" stroke="#bcbcbc" stroke-width="8" stroke-linecap="round" stroke-linejoin="round" /><polyline points="42.43,122.48 44.11,123.16 45.22,123.50 65.97,129.87 69.14,130.85" fill="none" stroke="#bcbcbc" stroke-width="8" stroke-linecap="round" stroke-linejoin="round" /><polyline points="-105.83,169.15 -120.66,164.67" fill="none" stroke="#bcbcbc" stroke-width="8" stroke-linecap="round" stroke-linejoin="round" /><polyline points="133.71,-39.96 137.39,-35.30 137.94,-34.60 139.79,-32.25 141.91,-32.00 146.26,-31.49 147.03,-30.96" fill="none" stroke="#bcbcbc" stroke-width="8" stroke-linecap="round" stroke-linejoin="round" /><polyline points="261.39,167.20 255.56,168.29 249.59,171.53 244.05,174.62 238.81,177.23 232.49,180.67 227.90,183.45 218.85,188.31 183.49,206.09 174.33,210.13 168.27,212.75 165.27,213.73 162.79,214.20 158.72,214.44 152.94,213.62 138.51,210.16 118.02,205.38 91.07,197.26 81.14,193.98 64.88,188.96 49.33,183.84 26.53,174.89 15.13,169.98 1.38,163.87 -21.43,151.37 -26.78,147.83 -40.31,139.32 -45.98,133.64 -54.49,122.62 -68.51,108.17 -74.02,103.31" fill="none" stroke="#bcbcbc" stroke-width="8" stroke-linecap="round" stroke-linejoin="round" /><polyline points="150.84,337.86 151.08,336.53 151.95,334.35 160.03,315.43 163.09,308.34 166.69,299.50 167.57,296.26" fill="none" stroke="#bcbcbc" stroke-width="8" stroke-linecap="round" stroke-linejoin="round" /><polyline points="-4.30,257.97 -13.49,253.53 -34.39,243.41 -60.03,231.00 -62.32,229.89" fill="none" stroke="#bcbcbc" stroke-width="8" stroke-linecap="round" stroke-linejoin="round" /><polyline points="146.68,111.54 149.00,109.16 155.17,102.85 160.06,97.51" fill="none" stroke="#bcbcbc" stroke-width="8" stroke-linecap="round" stroke-linejoin="round" /><polyline points="-31.42,125.60 -33.97,122.23 -45.91,106.42 -62.96,92.63" fill="none" stroke="#bcbcbc" stroke-width="8" stroke-linecap="round" stroke-linejoin="round" /><polyline points="-105.40,333.73 -103.07,328.20 -95.65,309.73 -94.76,307.30 -93.76,304.61 -93.38,303.64 -93.28,302.12 -92.33,287.75 -92.06,283.63" fill="none" stroke="#bcbcbc" stroke-width="8" stroke-linecap="round" stroke-linejoin="round" /><polyline points="-110.45,185.20 -105.83,169.15 -99.72,147.99 -98.97,145.37 -98.13,142.39 -96.24,135.73 -96.05,135.03 -95.51,132.88 -94.65,130.46 -94.44,129.88 -93.36,127.19 -91.23,122.49 -90.59,121.14" fill="none" stroke="#bcbcbc" stroke-width="8" stroke-linecap="round" stroke-linejoin="round" /><polyline points="-98.97,145.37 -89.60,147.76 -69.77,152.86 -58.47,156.38 -53.76,157.48" fill="none" stroke="#bcbcbc" stroke-width="8" stroke-linecap="round" stroke-linejoin="round" /><polyline points="93.75,72.55 94.07,70.61 94.39,68.58 95.77,61.82 99.20,46.07 102.02,31.98 102.53,29.06 103.23,25.09 103.23,25.08" fill="none" stroke="#bcbcbc" stroke-width="8" stroke-linecap="round" stroke-linejoin="round" /><polyline points="66.03,375.83 70.21,365.17 70.73,363.26 87.32,321.15 88.49,318.11 89.43,315.53 99.34,286.69 101.25,285.03" fill="none" stroke="#bcbcbc" stroke-width="8" stroke-linecap="round" stroke-linejoin="round" /><polyline points="122.90,64.40 122.90,64.40 122.31,61.31 122.22,60.94 120.78,55.11 120.79,55.09 119.81,51.14 115.67,36.96 115.15,35.44 112.35,27.84 111.44,25.57 110.86,24.10 110.10,22.44 110.09,22.44 110.09,22.43 109.54,16.32 109.49,13.32" fill="none" stroke="#bcbcbc" stroke-width="8" stroke-linecap="round" stroke-linejoin="round" /><polyline points="116.69,305.10 115.63,306.25 114.04,308.14 109.57,320.74 108.28,324.39" fill="none" stroke="#bcbcbc" stroke-width="8" stroke-linecap="round" stroke-linejoin="round" /><polyline points="42.43,122.48 43.05,120.82 43.18,120.44 46.09,112.33 47.17,108.92 56.07,82.76" fill="none" stroke="#bcbcbc" stroke-width="8" stroke-linecap="round" stroke-linejoin="round" /><polyline points="88.45,159.15 89.36,156.74 91.82,150.21 92.85,147.45 93.56,145.58 95.53,140.34 96.83,136.88 97.01,136.41 100.17,128.03 101.49,128.44 102.20,126.49 103.47,123.05 103.22,121.48 106.58,112.34 106.93,111.40 107.56,110.82 108.10,110.32 111.47,101.12 111.95,98.60 116.79,85.18 117.93,84.28 120.25,77.71 119.84,76.70 121.88,70.55 120.82,65.07" fill="none" stroke="#bcbcbc" stroke-width="8" stroke-linecap="round" stroke-linejoin="round" /><polyline points="174.88,-90.55 173.53,-92.77 166.41,-104.44" fill="none" stroke="#bcbcbc" stroke-width="8" stroke-linecap="round" stroke-linejoin="round" /><polyline points="197.16,63.23 229.81,84.22 229.82,84.24 229.82,84.24 235.86,85.02" fill="none" stroke="#bcbcbc" stroke-width="8" stroke-linecap="round" stroke-linejoin="round" /><polyline points="184.07,19.38 218.81,36.81 219.86,37.59 219.79,43.30 220.49,49.16" fill="none" stroke="#bcbcbc" stroke-width="8" stroke-linecap="round" stroke-linejoin="round" /><polyline points="117.85,327.42 116.60,331.23 111.53,346.67 102.93,372.66 102.32,374.51 101.70,376.37 101.52,378.36" fill="none" stroke="#bcbcbc" stroke-width="8" stroke-linecap="round" stroke-linejoin="round" /><polyline points="215.63,233.66 215.84,231.72 215.89,229.91 215.87,229.85 214.64,224.53 214.14,222.31 213.89,221.24 213.64,220.14 212.29,214.19 209.65,202.29 207.74,195.14 207.46,194.04" fill="none" stroke="#bcbcbc" stroke-width="8" stroke-linecap="round" stroke-linejoin="round" /><polyline points="43.18,342.55 44.04,340.10 53.71,312.61 54.81,309.49" fill="none" stroke="#bcbcbc" stroke-width="8" stroke-linecap="round" stroke-linejoin="round" /><polyline points="260.36,118.71 257.52,117.91 238.19,88.25 235.86,85.02" fill="none" stroke="#bcbcbc" stroke-width="8" stroke-linecap="round" stroke-linejoin="round" /><polyline points="-57.34,189.86 13.09,206.74 17.95,208.51" fill="none" stroke="#bcbcbc" stroke-width="8" stroke-linecap="round" stroke-linejoin="round" /><polyline points="164.81,-73.79 192.25,-63.63 196.11,-64.29" fill="none" stroke="#bcbcbc" stroke-width="8" stroke-linecap="round" stroke-linejoin="round" />
    <polyline points="261.39,167.20 262.38,170.33 263.07,173.63 261.72,186.17 260.16,195.61 259.30,198.83 259.22,199.12 258.48,200.86 257.46,202.70 255.07,205.71 256.23,211.60 252.50,224.25 250.44,231.23 246.22,242.66 240.05,256.57 232.51,269.91 230.16,274.24 225.90,281.36 208.90,305.49 205.18,310.51 190.75,329.36 182.47,338.78 170.89,350.55 169.82,350.66 167.20,352.80" fill="none" stroke="#ffffff" stroke-width="16" stroke-linecap="round" stroke-linejoin="round" />
    <polyline points="261.39,167.20 262.38,170.33 263.07,173.63 261.72,186.17 260.16,195.61 259.30,198.83 259.22,199.12 258.48,200.86 257.46,202.70 255.07,205.71 256.23,211.60 252.50,224.25 250.44,231.23 246.22,242.66 240.05,256.57 232.51,269.91 230.16,274.24 225.90,281.36 208.90,305.49 205.18,310.51 190.75,329.36 182.47,338.78 170.89,350.55 169.82,350.66 167.20,352.80" fill="none" stroke="#111111" stroke-width="9" stroke-linecap="round" stroke-linejoin="round" />
    
            <g transform="translate(261.39,167.20)">
              <circle r="19" fill="#ffffff" stroke="#111111" stroke-width="4" />
              <text text-anchor="middle" dominant-baseline="central" font-family="Helvetica, Arial, sans-serif"
                font-size="18" font-weight="700" fill="#111111">1</text>
            </g>
            
            <g transform="translate(167.20,352.80)">
              <circle r="19" fill="#ffffff" stroke="#111111" stroke-width="4" />
              <text text-anchor="middle" dominant-baseline="central" font-family="Helvetica, Arial, sans-serif"
                font-size="18" font-weight="700" fill="#111111">2</text>
            </g>
            
  </g>
</svg>
