<svg xmlns="http://www.w3.org/2000/svg" width="520" height="520" viewBox="0 0 520 520">
  <rect width="100%" height="100%" fill="#ffffff" />
  <g>
    <polyline points="510.23,-273.71 511.47,-267.10 519.49,-211.01 518.27,-196.99" fill="none" stroke="#bcbcbc" stroke-width="8" stroke-linecap="round" stroke-linejoin="round" /><polyline points="347.25,193.68 349.19,187.72 359.46,156.13 360.67,152.41 361.90,148.50 387.73,66.15 389.80,59.53 385.05,47.81" fill="none" stroke="#bcbcbc" stroke-width="8" stroke-linecap="round" stroke-linejoin="round" /><polyline points="168.85,120.43 168.43,115.70 176.88,68.41 178.06,62.50 178.95,59.40 181.27,47.41 183.88,32.73 186.73,19.80 189.55,6.91 191.33,3.27 192.49,1.04" fill="none" stroke="#bcbcbc" stroke-width="8" stroke-linecap="round" stroke-linejoin="round" /><polyline points="217.86,-213.13 215.86,-219.25 195.10,-282.53 194.09,-285.18" fill="none" stroke="#bcbcbc" stroke-width="8" stroke-linecap="round" stroke-linejoin="round" /><polyline points="111.39,343.80 112.01,337.76 112.26,334.99 114.52,310.01 116.99,288.01 117.57,282.87 118.10,276.71 118.16,276.19 119.57,263.94 120.77,251.48 122.11,239.46 123.00,230.11 123.38,224.33 123.71,219.00 124.30,212.99" fill="none" stroke="#bcbcbc" stroke-width="8" stroke-linecap="round" stroke-linejoin="round" /><polyline points="398.11,208.36 399.59,203.71 410.00,170.98 411.18,167.27 412.86,161.97 414.07,158.17 423.28,118.43" fill="none" stroke="#bcbcbc" stroke-width="8" stroke-linecap="round" stroke-linejoin="round" /><polyline points="357.63,-439.03 361.48,-438.44 467.44,-422.16" fill="none" stroke="#bcbcbc" stroke-width="8" stroke-linecap="round" stroke-linejoin="round" /><polyline points="85.61,200.65 74.58,200.13 67.86,199.82 64.20,199.65 61.00,199.50 36.02,198.34 1.29,196.72 -15.27,194.38 -20.81,193.59 -25.62,192.74 -58.19,187.00 -62.74,186.19 -63.75,186.02 -69.37,185.06 -73.69,184.32 -101.29,181.88 -106.54,181.41 -108.47,181.24 -114.44,180.83 -126.12,180.02" fill="none" stroke="#bcbcbc" stroke-width="8" stroke-linecap="round" stroke-linejoin="round" /><polyline points="245.84,168.65 247.98,162.57 267.23,109.22 290.38,41.92 291.87,37.70 292.90,34.75 293.74,32.33" fill="none" stroke="#bcbcbc" stroke-width="8" stroke-linecap="round" stroke-linejoin="round" /><polyline points="-108.47,181.24 -108.96,177.81 -109.08,174.08 -108.35,166.58 -106.67,152.88 -105.55,148.28 -103.74,131.66 -103.41,127.95 -102.88,123.19 -102.48,119.66 -101.74,115.65 -100.36,104.87 -99.40,96.62 -98.00,93.24" fill="none" stroke="#bcbcbc" stroke-width="8" stroke-linecap="round" stroke-linejoin="round" /><polyline points="-128.17,89.03 -102.50,92.61 -98.00,93.24 -95.21,93.69 -83.70,95.52 -57.18,99.75 -52.63,100.50" fill="none" stroke="#bcbcbc" stroke-width="8" stroke-linecap="round" stroke-linejoin="round" /><polyline points="344.37,-247.77 344.54,-245.44 344.88,-243.07 345.72,-241.26 347.28,-239.24 350.17,-236.62 357.01,-232.45 409.80,-199.34 442.32,-155.75 466.87,-95.15 468.48,-91.14" fill="none" stroke="#bcbcbc" stroke-width="8" stroke-linecap="round" stroke-linejoin="round" /><polyline points="335.92,-70.94 337.01,-69.13 337.30,-68.66 338.20,-64.09 344.40,-34.14 346.36,-24.64 347.77,-17.87 349.96,-4.14 350.99,2.18 351.69,6.05 352.47,9.53 353.39,11.57 354.75,13.92 355.47,15.03 369.19,34.67 376.61,46.35 378.54,49.14" fill="none" stroke="#bcbcbc" stroke-width="8" stroke-linecap="round" stroke-linejoin="round" /><polyline points="-57.87,304.04 -57.14,299.55 -56.47,296.30 -56.28,295.87 -47.15,274.16 -41.34,260.05 -39.57,255.58 -37.70,250.85 -35.66,246.78 -35.33,245.98 -32.55,239.25 -30.40,233.30 -28.55,227.84 -27.38,223.98 -26.07,219.21 -24.55,212.82 -23.40,207.63 -22.03,200.39 -21.74,198.77 -20.81,193.59" fill="none" stroke="#bcbcbc" stroke-width="8" stroke-linecap="round" stroke-linejoin="round" /><polyline points="384.47,-302.12 413.58,-281.78 417.51,-280.95 420.38,-277.67" fill="none" stroke="#bcbcbc" stroke-width="8" stroke-linecap="round" stroke-linejoin="round" /><polyline points="262.23,-114.28 266.08,-112.80 282.78,-107.33 321.53,-92.48 323.70,-90.31 324.72,-88.69" fill="none" stroke="#bcbcbc" stroke-width="8" stroke-linecap="round" stroke-linejoin="round" /><polyline points="334.43,267.50 337.07,260.63 350.10,225.29 359.31,198.59 361.22,197.71" fill="none" stroke="#bcbcbc" stroke-width="8" stroke-linecap="round" stroke-linejoin="round" /><polyline points="150.31,222.70 152.36,218.15 152.57,217.70 156.08,205.91 161.84,186.49 163.32,181.52 164.47,177.66 164.62,175.42 164.39,170.44" fill="none" stroke="#bcbcbc" stroke-width="8" stroke-linecap="round" stroke-linejoin="round" /><polyline points="389.73,-69.39 386.42,-68.71 378.94,-70.04 377.78,-73.13 364.82,-78.07 361.75,-77.27 350.05,-81.56 348.31,-80.35" fill="none" stroke="#bcbcbc" stroke-width="8" stroke-linecap="round" stroke-linejoin="round" /><polyline points="370.47,-470.44 376.35,-469.00 379.60,-468.43 456.90,-455.03" fill="none" stroke="#bcbcbc" stroke-width="8" stroke-linecap="round" stroke-linejoin="round" /><polyline points="310.40,245.98 313.61,236.92 319.86,219.30 323.90,211.80 329.71,195.53 332.03,189.04" fill="none" stroke="#bcbcbc" stroke-width="8" stroke-linecap="round" stroke-linejoin="round" /><polyline points="-113.11,-105.81 -118.71,-106.06 -120.12,-104.36 -129.87,-92.51 -163.96,-53.13 -168.76,-47.59" fill="none" stroke="#bcbcbc" stroke-width="8" stroke-linecap="round" stroke-linejoin="round" /><polyline points="185.93,-72.08 183.46,-66.61 183.16,-65.95 174.58,-43.56 165.92,-18.91 163.61,-12.34 162.31,-8.95" fill="none" stroke="#bcbcbc" stroke-width="8" stroke-linecap="round" stroke-linejoin="round" /><polyline points="311.88,-323.63 314.61,-319.93 316.56,-314.84 319.59,-307.54 324.45,-296.05 328.76,-285.74 333.70,-274.41 337.37,-265.69 337.92,-264.44 337.95,-264.36 340.90,-257.46 341.78,-255.50 342.62,-253.63 343.51,-251.88 344.18,-250.10 344.37,-247.77" fill="none" stroke="#bcbcbc" stroke-width="8" stroke-linecap="round" stroke-linejoin="round" /><polyline points="103.06,38.28 104.49,37.50 106.49,35.91 107.49,33.85 120.75,-16.44 121.15,-19.28 122.77,-24.46" fill="none" stroke="#bcbcbc" stroke-width="8" stroke-linecap="round" stroke-linejoin="round" /><polyline points="566.91,-40.43 568.79,-34.45 570.12,-28.18 567.54,-4.28 564.56,13.71 562.93,19.84 562.78,20.40 561.36,23.71 559.41,27.22 554.87,32.96 557.07,44.18 549.96,68.26 546.04,81.57 538.01,103.34 526.25,129.85 511.89,155.26 507.40,163.52 499.29,177.08 466.90,223.05 459.80,232.61 432.32,268.53 416.54,286.48 394.47,308.91 392.43,309.12 387.44,313.19" fill="none" stroke="#bcbcbc" stroke-width="8" stroke-linecap="round" stroke-linejoin="round" /><polyline points="379.03,-168.69 386.85,-177.23 389.16,-180.01 404.95,-202.38" fill="none" stroke="#bcbcbc" stroke-width="8" stroke-linecap="round" stroke-linejoin="round" /><polyline points="222.79,-165.31 244.32,-157.82 245.51,-155.89 251.62,-153.84 255.25,-152.60 272.60,-146.74" fill="none" stroke="#bcbcbc" stroke-width="8" stroke-linecap="round" stroke-linejoin="round" /><polyline points="410.42,-314.26 420.38,-277.67 431.90,-234.56 433.65,-230.97 433.93,-226.86 441.74,-212.27 462.84,-172.94 467.45,-166.14 468.78,-164.15 500.30,-105.24 514.78,-92.07 516.82,-89.45 519.68,-87.00 547.18,-63.49 549.05,-61.89 553.99,-59.27" fill="none" stroke="#bcbcbc" stroke-width="8" stroke-linecap="round" stroke-linejoin="round" /><polyline points="303.47,358.75 372.05,318.92 384.26,312.68 387.44,313.19" fill="none" stroke="#bcbcbc" stroke-width="8" stroke-linecap="round" stroke-linejoin="round" /><polyline points="377.83,301.76 382.08,296.71 420.29,220.49 422.82,215.49 424.93,210.54 437.27,180.03 440.94,170.84 451.58,138.65 458.48,97.28 459.29,91.25" fill="none" stroke="#bcbcbc" stroke-width="8" stroke-linecap="round" stroke-linejoin="round" /><polyline points="348.34,-146.47 347.68,-145.79 346.76,-142.58 346.66,-142.26 342.52,-126.30 343.61,-122.13 342.70,-118.40 341.52,-113.51 338.48,-109.99 335.04,-96.05 330.98,-92.98 326.66,-90.02 324.72,-88.69" fill="none" stroke="#bcbcbc" stroke-width="8" stroke-linecap="round" stroke-linejoin="round" /><polyline points="185.93,-72.08 187.70,-76.60 198.30,-103.76 200.61,-109.69 202.51,-114.57 216.05,-149.26 222.15,-163.76 222.79,-165.31 227.53,-176.77 238.16,-203.16 242.05,-214.40 242.92,-216.97 244.09,-219.90" fill="none" stroke="#bcbcbc" stroke-width="8" stroke-linecap="round" stroke-linejoin="round" /><polyline points="304.53,-236.76 306.58,-230.66 373.84,-173.21 410.55,-141.28 465.37,-93.63 470.15,-89.81 472.29,-88.47 481.81,-79.83 494.51,-69.00 523.33,-44.43 532.63,-36.43 538.81,-29.04" fill="none" stroke="#bcbcbc" stroke-width="8" stroke-linecap="round" stroke-linejoin="round" /><polyline points="415.74,-335.74 419.15,-337.93 439.36,-346.33 443.52,-350.70" fill="none" stroke="#bcbcbc" stroke-width="8" stroke-linecap="round" stroke-linejoin="round" /><polyline points="439.09,175.49 411.18,167.27 360.67,152.41" fill="none" stroke="#bcbcbc" stroke-width="8" stroke-linecap="round" stroke-linejoin="round" /><polyline points="349.01,-417.97 352.82,-415.34 477.02,-387.71" fill="none" stroke="#bcbcbc" stroke-width="8" stroke-linecap="round" stroke-linejoin="round" /><polyline points="502.43,-9.10 496.01,-23.38 481.76,-57.34 480.70,-60.04 478.27,-66.25 469.08,-89.61 468.51,-91.12" fill="none" stroke="#bcbcbc" stroke-width="8" stroke-linecap="round" stroke-linejoin="round" /><polyline points="311.88,-323.63 304.98,-325.59 299.92,-327.10 289.62,-330.16 284.39,-331.65 281.39,-332.48 277.48,-333.60" fill="none" stroke="#bcbcbc" stroke-width="8" stroke-linecap="round" stroke-linejoin="round" /><polyline points="132.09,-136.79 131.75,-137.93 131.42,-138.73 130.00,-142.26 124.50,-155.10 119.26,-168.13 118.13,-171.21 116.83,-174.76 115.90,-177.66 114.36,-182.01 114.20,-182.46 109.20,-194.80 100.01,-217.98 97.94,-219.16 96.47,-222.92 93.54,-233.10 88.52,-245.72 87.44,-248.59" fill="none" stroke="#bcbcbc" stroke-width="8" stroke-linecap="round" stroke-linejoin="round" /><polyline points="176.24,324.76 181.46,326.36 198.35,331.50 203.64,333.11" fill="none" stroke="#bcbcbc" stroke-width="8" stroke-linecap="round" stroke-linejoin="round" /><polyline points="491.58,-329.67 492.56,-333.65 492.16,-335.16 491.68,-336.98 488.60,-348.28 481.72,-372.15 478.10,-384.36 477.02,-387.71 467.44,-422.16 462.26,-440.74 456.90,-455.03 452.05,-467.92 447.22,-476.78 442.53,-481.47 406.51,-525.47 403.84,-528.61 402.08,-531.50" fill="none" stroke="#bcbcbc" stroke-width="8" stroke-linecap="round" stroke-linejoin="round" /><polyline points="344.37,-247.77 342.51,-247.06 339.08,-246.11 338.74,-246.02 324.39,-242.35 307.90,-237.71 304.53,-236.76 303.03,-236.28 299.07,-235.01 295.68,-234.07 280.89,-229.95 256.57,-223.04 247.50,-220.75 244.09,-219.90 227.88,-215.92 217.86,-213.13 196.66,-207.20 175.70,-201.30 173.27,-200.62 155.75,-195.76 147.67,-193.52 143.59,-191.59 135.87,-187.76 120.53,-179.98 119.46,-179.44 115.90,-177.66 113.73,-176.57 110.70,-174.98 99.92,-169.33 80.29,-158.31 63.88,-149.72 61.54,-148.49 58.40,-148.30 56.52,-147.30 56.14,-147.10 38.35,-137.35 34.62,-137.36 30.34,-135.13 28.85,-134.35 27.59,-133.69 24.62,-132.13 22.27,-126.78 12.20,-121.39 9.00,-119.68 5.53,-117.79 -8.48,-110.17 -15.72,-106.22 -19.37,-105.17" fill="none" stroke="#bcbcbc" stroke-width="8" stroke-linecap="round" stroke-linejoin="round" /><polyline points="546.04,81.57 538.56,82.25 515.20,84.39 514.15,84.49 512.66,84.62 510.25,84.85 487.60,86.92 479.73,86.19 470.56,88.49 463.21,90.29 459.29,91.25 449.57,91.62 441.16,91.19 436.87,90.74 433.21,89.63 430.52,88.15 420.51,81.07 396.18,64.36 393.89,62.80 391.55,61.22 389.80,59.53" fill="none" stroke="#bcbcbc" stroke-width="8" stroke-linecap="round" stroke-linejoin="round" /><polyline points="-5.05,-200.54 3.78,-183.26 5.12,-178.32 12.55,-164.13 15.63,-160.07 28.06,-135.89 28.85,-134.35" fill="none" stroke="#bcbcbc" stroke-width="8" stroke-linecap="round" stroke-linejoin="round" /><polyline points="265.51,-46.85 264.19,-43.22 263.82,-42.09 262.09,-36.86 251.17,-6.39 245.75,8.74 245.56,9.26 243.39,13.96 242.14,16.76" fill="none" stroke="#bcbcbc" stroke-width="8" stroke-linecap="round" stroke-linejoin="round" /><polyline points="410.42,-314.26 409.21,-316.85 406.03,-317.27 395.73,-314.91 393.64,-315.18 392.00,-317.38 389.09,-330.77 404.87,-333.22 412.17,-335.37 415.74,-335.74 419.59,-322.07" fill="none" stroke="#bcbcbc" stroke-width="8" stroke-linecap="round" stroke-linejoin="round" /><polyline points="467.45,-166.14 471.51,-168.42 491.93,-180.72 497.38,-183.97 506.94,-189.66 522.65,-199.82 526.31,-202.46 553.87,-219.55" fill="none" stroke="#bcbcbc" stroke-width="8" stroke-linecap="round" stroke-linejoin="round" /><polyline points="563.78,-85.40 556.82,-87.47 552.77,-90.79 537.29,-104.19 536.76,-104.66 533.02,-108.00 530.82,-111.90 491.93,-180.72" fill="none" stroke="#bcbcbc" stroke-width="8" stroke-linecap="round" stroke-linejoin="round" /><polyline points="124.92,-90.85 185.93,-72.08 190.91,-70.50 236.44,-56.07 237.39,-55.77 244.22,-53.61 247.57,-52.54 251.93,-51.35 260.92,-48.31 265.51,-46.85 269.65,-45.54 303.53,-34.79 339.30,-23.55 342.26,-22.62 346.36,-24.64" fill="none" stroke="#bcbcbc" stroke-width="8" stroke-linecap="round" stroke-linejoin="round" /><polyline points="304.32,-392.04 330.75,-416.32 335.23,-420.43" fill="none" stroke="#bcbcbc" stroke-width="8" stroke-linecap="round" stroke-linejoin="round" /><polyline points="-138.25,-0.23 -41.27,10.17" fill="none" stroke="#bcbcbc" stroke-width="8" stroke-linecap="round" stroke-linejoin="round" /><polyline points="154.31,-270.88 174.69,-278.17 195.71,-285.77 208.78,-290.84 248.66,-305.35 260.24,-309.35 262.66,-310.19 265.56,-311.19 268.81,-312.31 269.21,-312.44 275.78,-315.08 278.64,-316.23" fill="none" stroke="#bcbcbc" stroke-width="8" stroke-linecap="round" stroke-linejoin="round" /><polyline points="291.21,222.31 310.40,245.98 322.15,257.81 327.23,261.47 334.43,267.50 341.20,273.18 347.01,278.85 347.15,281.73" fill="none" stroke="#bcbcbc" stroke-width="8" stroke-linecap="round" stroke-linejoin="round" /><polyline points="311.88,-323.63 319.40,-342.48 331.57,-373.51 349.01,-417.97 357.63,-439.03 370.47,-470.44 381.00,-496.16 382.89,-499.57 392.15,-514.71 392.75,-515.69 396.14,-522.35 402.08,-531.50 405.39,-536.61 410.09,-543.83" fill="none" stroke="#bcbcbc" stroke-width="8" stroke-linecap="round" stroke-linejoin="round" /><polyline points="134.45,180.33 133.22,181.32 132.41,182.49 130.75,187.38 129.60,190.91 124.30,206.75 123.57,209.04 123.12,210.46 118.26,209.06 106.41,205.09 94.68,201.16 85.61,200.65" fill="none" stroke="#bcbcbc" stroke-width="8" stroke-linecap="round" stroke-linejoin="round" /><polyline points="-97.45,290.57 -78.11,240.64 -75.96,235.20 -74.03,229.97 -71.70,223.64 -68.84,213.69 -65.86,201.32 -64.63,192.46 -63.75,186.02 -62.50,181.27 -57.94,145.56 -52.63,100.50 -49.88,79.02 -46.81,53.79 -41.27,10.17 -40.40,2.75 -34.80,-42.87 -34.80,-45.41 -33.57,-58.94 -30.00,-87.53 -29.11,-92.52 -28.17,-95.32 -26.71,-98.40 -25.30,-100.79 -22.17,-104.18 -19.37,-105.14" fill="none" stroke="#bcbcbc" stroke-width="8" stroke-linecap="round" stroke-linejoin="round" /><polyline points="324.72,-88.69 325.78,-87.02 329.33,-81.48 334.64,-72.97 335.92,-70.94 338.04,-72.55 348.31,-80.35" fill="none" stroke="#bcbcbc" stroke-width="8" stroke-linecap="round" stroke-linejoin="round" /><polyline points="331.57,-373.51 436.06,-354.62 447.04,-348.85 487.97,-328.55 491.58,-329.67" fill="none" stroke="#bcbcbc" stroke-width="8" stroke-linecap="round" stroke-linejoin="round" /><polyline points="132.09,-136.79 130.24,-134.09 113.57,-125.95 101.33,-110.39 88.12,-102.22 79.08,-95.39 70.46,-88.36 66.04,-84.33 58.23,-74.43 49.50,-61.92 48.07,-59.60" fill="none" stroke="#bcbcbc" stroke-width="8" stroke-linecap="round" stroke-linejoin="round" /><polyline points="149.72,-125.63 149.00,-124.02 147.41,-121.71 144.43,-118.04 126.82,-95.80 117.50,-70.71 70.48,-88.38" fill="none" stroke="#bcbcbc" stroke-width="8" stroke-linecap="round" stroke-linejoin="round" /><polyline points="79.08,-95.39 77.26,-100.90 69.39,-124.73 66.34,-129.43 61.22,-144.77 60.78,-146.09 61.54,-148.49 60.31,-152.40 35.72,-230.90" fill="none" stroke="#bcbcbc" stroke-width="8" stroke-linecap="round" stroke-linejoin="round" /><polyline points="367.17,-523.69 386.61,-523.17 387.51,-523.15 391.24,-523.04 396.14,-522.35" fill="none" stroke="#bcbcbc" stroke-width="8" stroke-linecap="round" stroke-linejoin="round" /><polyline points="267.23,109.22 260.59,109.14 204.41,116.68 200.36,117.10 195.73,117.59 168.85,120.43 132.63,124.25 113.43,126.28 102.81,127.40 94.18,128.45 89.76,128.99 84.77,129.59 60.67,132.52 54.90,133.22 37.10,135.17 -57.94,145.56" fill="none" stroke="#bcbcbc" stroke-width="8" stroke-linecap="round" stroke-linejoin="round" /><polyline points="184.05,304.25 179.07,302.65 155.83,295.17 151.13,293.66 147.05,292.34 122.42,284.43 117.57,282.87 111.14,280.80 71.94,268.19 67.53,266.77" fill="none" stroke="#bcbcbc" stroke-width="8" stroke-linecap="round" stroke-linejoin="round" /><polyline points="281.25,-166.33 294.77,-162.11 344.22,-146.85 344.68,-146.70 348.34,-146.47" fill="none" stroke="#bcbcbc" stroke-width="8" stroke-linecap="round" stroke-linejoin="round" /><polyline points="420.38,-277.67 487.64,-276.48" fill="none" stroke="#bcbcbc" stroke-width="8" stroke-linecap="round" stroke-linejoin="round" /><polyline points="387.44,313.19 377.83,301.76 373.79,297.07 370.33,293.83 365.71,290.39 356.28,284.73 347.15,281.73 328.58,275.99 313.39,271.17 322.15,257.81" fill="none" stroke="#bcbcbc" stroke-width="8" stroke-linecap="round" stroke-linejoin="round" /><polyline points="291.21,222.31 277.82,205.79 275.27,202.64 261.79,184.07 258.74,178.40 259.47,171.64 263.53,171.60 273.56,173.53 288.83,176.47" fill="none" stroke="#bcbcbc" stroke-width="8" stroke-linecap="round" stroke-linejoin="round" /><polyline points="116.06,89.92 118.53,95.23 132.63,124.25 153.60,167.41 156.27,172.91" fill="none" stroke="#bcbcbc" stroke-width="8" stroke-linecap="round" stroke-linejoin="round" /><polyline points="-109.78,221.38 -104.74,223.44 -81.12,233.09 -75.96,235.20 -70.53,237.42 -42.73,248.79 -37.70,250.85" fill="none" stroke="#bcbcbc" stroke-width="8" stroke-linecap="round" stroke-linejoin="round" /><polyline points="127.67,46.89 176.88,68.41" fill="none" stroke="#bcbcbc" stroke-width="8" stroke-linecap="round" stroke-linejoin="round" /><polyline points="348.34,-146.47 355.84,-146.08 356.32,-145.66 359.68,-142.67 364.62,-138.26 365.54,-136.49 382.57,-121.57 383.83,-119.19 395.81,-108.62 398.83,-107.70 408.15,-99.54 410.24,-98.58 424.29,-86.66 427.42,-83.89 429.15,-81.14" fill="none" stroke="#bcbcbc" stroke-width="8" stroke-linecap="round" stroke-linejoin="round" /><polyline points="-123.67,46.93 -46.81,53.79" fill="none" stroke="#bcbcbc" stroke-width="8" stroke-linecap="round" stroke-linejoin="round" /><polyline points="47.95,333.11 50.33,328.04 50.94,325.79 54.28,313.48 66.37,270.85 67.53,266.77 68.75,262.29 74.23,242.26 83.48,208.44 85.61,200.65" fill="none" stroke="#bcbcbc" stroke-width="8" stroke-linecap="round" stroke-linejoin="round" /><polyline points="116.06,89.92 127.67,46.89 103.06,38.28 96.62,42.08 93.68,44.32 91.51,47.26 89.98,51.14 84.32,72.05 88.88,74.38 93.50,75.50 103.69,78.15 111.33,80.58 116.06,89.92" fill="none" stroke="#bcbcbc" stroke-width="8" stroke-linecap="round" stroke-linejoin="round" /><polyline points="84.32,72.05 78.93,71.30 -46.81,53.79" fill="none" stroke="#bcbcbc" stroke-width="8" stroke-linecap="round" stroke-linejoin="round" /><polyline points="288.83,176.47 300.49,179.02 332.03,189.04 340.85,191.83 361.78,197.88 382.87,203.96 398.48,208.47 423.45,215.67 428.61,217.16 441.21,221.39 461.95,226.91 463.78,227.25" fill="none" stroke="#bcbcbc" stroke-width="8" stroke-linecap="round" stroke-linejoin="round" /><polyline points="303.62,358.66 299.36,359.73 294.76,372.55 287.63,370.53 255.19,359.47 251.28,358.64 242.60,358.02 203.31,358.17 194.65,357.07 175.09,354.08 167.20,352.80 111.25,343.78 89.58,340.32 48.26,333.16 41.58,331.84 -51.67,305.78 -57.56,304.13 -97.45,290.57 -107.27,287.09 -131.78,276.93 -145.75,271.65" fill="none" stroke="#bcbcbc" stroke-width="8" stroke-linecap="round" stroke-linejoin="round" /><polyline points="389.09,-330.77 385.05,-331.60 331.15,-325.23 311.88,-323.63" fill="none" stroke="#bcbcbc" stroke-width="8" stroke-linecap="round" stroke-linejoin="round" /><polyline points="288.83,176.47 290.71,173.31 302.03,144.26 314.66,100.35 317.89,90.89 319.61,88.31 331.81,49.15 332.42,44.48 332.88,41.42" fill="none" stroke="#bcbcbc" stroke-width="8" stroke-linecap="round" stroke-linejoin="round" /><polyline points="344.37,-247.77 345.66,-248.26 347.41,-249.65 350.06,-252.75 384.47,-302.12 393.64,-315.18" fill="none" stroke="#bcbcbc" stroke-width="8" stroke-linecap="round" stroke-linejoin="round" /><polyline points="497.54,-66.39 498.25,-68.42 515.55,-88.77 516.82,-89.45 519.82,-93.56 529.89,-105.12 533.02,-108.00" fill="none" stroke="#bcbcbc" stroke-width="8" stroke-linecap="round" stroke-linejoin="round" /><polyline points="512.66,84.62 512.42,81.90 512.24,79.80 511.33,75.77 510.24,73.14 508.88,66.24 508.75,63.74 507.83,58.15 503.71,56.00 500.42,57.26 494.53,58.67 489.87,59.40 485.40,60.48 479.22,61.88 476.41,62.53" fill="none" stroke="#bcbcbc" stroke-width="8" stroke-linecap="round" stroke-linejoin="round" /><polyline points="58.15,-15.32 70.74,-44.81 71.44,-46.72" fill="none" stroke="#bcbcbc" stroke-width="8" stroke-linecap="round" stroke-linejoin="round" /><polyline points="389.73,-69.39 395.79,-71.74 398.96,-72.97 401.41,-75.45 411.52,-77.94 414.92,-77.08 422.23,-78.96 427.82,-80.40 429.15,-81.14 434.56,-82.47 462.23,-89.25 468.51,-91.12" fill="none" stroke="#bcbcbc" stroke-width="8" stroke-linecap="round" stroke-linejoin="round" /><polyline points="134.45,180.33 147.51,175.59 151.88,174.26 156.27,172.91 164.39,170.44 170.70,169.53 192.25,167.17 196.58,166.93 215.87,167.10 227.62,167.20 232.04,166.97 239.12,167.69 241.33,168.01 245.84,168.65 259.47,171.64" fill="none" stroke="#bcbcbc" stroke-width="8" stroke-linecap="round" stroke-linejoin="round" /><polyline points="196.66,-207.20 194.49,-214.52 186.46,-241.67 176.70,-272.64 174.69,-278.17 172.64,-283.35 170.06,-290.81" fill="none" stroke="#bcbcbc" stroke-width="8" stroke-linecap="round" stroke-linejoin="round" /><polyline points="173.29,230.67 175.01,225.26 192.36,170.54 192.25,167.17" fill="none" stroke="#bcbcbc" stroke-width="8" stroke-linecap="round" stroke-linejoin="round" /><polyline points="196.58,166.93 200.02,120.86 200.36,117.10 200.89,112.73 200.90,112.53 201.13,107.19 202.27,92.69 202.92,85.93 203.80,78.26 204.61,72.74 205.33,69.27 206.24,66.64 208.02,60.73 211.71,48.43 216.40,32.55 221.57,16.32 222.62,13.00 223.47,10.60" fill="none" stroke="#bcbcbc" stroke-width="8" stroke-linecap="round" stroke-linejoin="round" /><polyline points="84.32,72.05 83.41,76.14 83.56,77.44 89.16,124.05 89.76,128.99 89.50,134.06 88.03,163.05 87.42,175.16 87.10,181.41 86.54,192.55 86.25,198.34 85.61,200.65" fill="none" stroke="#bcbcbc" stroke-width="8" stroke-linecap="round" stroke-linejoin="round" /><polyline points="58.15,-15.32 37.80,-21.37 35.21,-23.03 22.54,-26.72 18.98,-26.68 3.06,-31.47 0.49,-33.37 -14.00,-37.76 -31.77,-42.61 -31.86,-42.61 -34.80,-42.87" fill="none" stroke="#bcbcbc" stroke-width="8" stroke-linecap="round" stroke-linejoin="round" /><polyline points="429.15,-81.14 429.85,-80.21 432.80,-75.81 438.26,-67.68 443.40,-62.54 453.27,-51.45 451.60,-41.21 450.76,-37.37 449.58,-35.74 452.05,-32.08 455.88,-24.20 463.54,-9.43 467.31,-2.16 469.65,4.37 470.71,7.41" fill="none" stroke="#bcbcbc" stroke-width="8" stroke-linecap="round" stroke-linejoin="round" /><polyline points="480.70,-60.04 477.86,-59.16 459.17,-53.35 456.49,-52.48 453.27,-51.45" fill="none" stroke="#bcbcbc" stroke-width="8" stroke-linecap="round" stroke-linejoin="round" /><polyline points="346.36,-24.64 352.21,-26.53 394.64,-48.20 400.32,-50.97 420.32,-56.75 439.71,-62.20 443.40,-62.54" fill="none" stroke="#bcbcbc" stroke-width="8" stroke-linecap="round" stroke-linejoin="round" /><polyline points="350.99,2.18 399.91,-20.58 401.97,-21.94 406.75,-23.33 439.35,-32.82 444.29,-34.71 449.58,-35.74" fill="none" stroke="#bcbcbc" stroke-width="8" stroke-linecap="round" stroke-linejoin="round" /><polyline points="341.00,-475.01 360.81,-472.57 362.80,-472.32 370.47,-470.44" fill="none" stroke="#bcbcbc" stroke-width="8" stroke-linecap="round" stroke-linejoin="round" /><polyline points="510.23,-273.71 513.74,-274.44 526.86,-268.01 528.59,-266.30 553.22,-224.61 553.87,-219.55 557.08,-216.89 556.57,-215.04 556.49,-212.04 556.93,-207.84 563.46,-181.03 564.03,-162.46 564.95,-132.81 566.48,-92.91 560.24,-75.52 556.21,-64.92 550.33,-49.98 548.63,-45.66 547.53,-44.45 545.75,-32.89" fill="none" stroke="#bcbcbc" stroke-width="8" stroke-linecap="round" stroke-linejoin="round" /><polyline points="555.77,37.53 549.78,34.93 534.81,24.48 515.06,10.60 504.20,1.82 496.87,-6.03" fill="none" stroke="#bcbcbc" stroke-width="8" stroke-linecap="round" stroke-linejoin="round" /><polyline points="313.39,271.17 307.51,269.31 297.96,266.28 293.40,264.84 288.05,263.14 281.29,261.00 275.18,259.06 269.13,257.14 242.19,248.59 237.47,247.09 231.60,245.24 230.31,244.83 214.90,240.76 210.54,239.70 205.09,238.38 199.38,237.00 178.81,232.01 173.29,230.67 167.36,228.62 154.98,224.32 150.31,222.70 146.13,221.34 126.74,214.44 124.30,212.99 123.12,210.46" fill="none" stroke="#bcbcbc" stroke-width="8" stroke-linecap="round" stroke-linejoin="round" /><polyline points="401.97,-21.94 400.54,-27.06 396.28,-42.33 394.64,-48.20 392.28,-52.58 392.06,-53.40 390.66,-58.56 392.28,-60.85 390.33,-67.37 389.73,-69.39" fill="none" stroke="#bcbcbc" stroke-width="8" stroke-linecap="round" stroke-linejoin="round" /><polyline points="394.85,-208.74 398.89,-210.65 421.01,-222.84 433.65,-230.97 442.57,-237.05 444.54,-238.51 451.71,-243.50 459.15,-248.99 463.86,-252.42 469.47,-256.52 488.98,-265.33 491.51,-265.19 495.21,-266.94 510.23,-273.71" fill="none" stroke="#bcbcbc" stroke-width="8" stroke-linecap="round" stroke-linejoin="round" /><polyline points="149.72,-125.63 152.91,-124.34 155.02,-123.69 194.57,-111.54 200.61,-109.69" fill="none" stroke="#bcbcbc" stroke-width="8" stroke-linecap="round" stroke-linejoin="round" /><polyline points="-132.77,-36.70 -161.03,-45.25" fill="none" stroke="#bcbcbc" stroke-width="8" stroke-linecap="round" stroke-linejoin="round" /><polyline points="323.64,-435.11 330.64,-426.24 331.69,-424.91 335.23,-420.43 339.26,-419.96 347.54,-418.99 349.01,-417.97" fill="none" stroke="#bcbcbc" stroke-width="8" stroke-linecap="round" stroke-linejoin="round" /><polyline points="566.91,-40.43 555.81,-38.35 544.43,-32.17 533.87,-26.30 523.89,-21.31 511.84,-14.76 503.10,-9.46 485.85,-0.21 418.49,33.68 401.02,41.37 389.48,46.36 383.76,48.23 379.04,49.11 371.29,49.58 360.27,48.02 332.78,41.42 293.74,32.33 242.39,16.84 223.47,10.60 192.49,1.04 162.86,-8.73 119.41,-25.78 97.68,-35.13 71.49,-46.77 28.03,-70.58 17.85,-77.33 -7.93,-93.55 -18.74,-104.36 -34.96,-125.35 -61.68,-152.90 -72.18,-162.15" fill="none" stroke="#bcbcbc" stroke-width="8" stroke-linecap="round" stroke-linejoin="round" /><polyline points="356.28,284.73 356.73,282.19 358.38,278.04 373.79,241.99 379.61,228.48 386.47,211.64 388.14,205.48" fill="none" stroke="#bcbcbc" stroke-width="8" stroke-linecap="round" stroke-linejoin="round" /><polyline points="60.67,132.52 43.17,124.05 3.34,104.77 -45.52,81.13 -49.88,79.02" fill="none" stroke="#bcbcbc" stroke-width="8" stroke-linecap="round" stroke-linejoin="round" /><polyline points="348.34,-146.47 352.76,-151.00 364.52,-163.03 373.84,-173.21" fill="none" stroke="#bcbcbc" stroke-width="8" stroke-linecap="round" stroke-linejoin="round" /><polyline points="9.00,-119.68 4.14,-126.10 -18.61,-156.23 -51.09,-182.51" fill="none" stroke="#bcbcbc" stroke-width="8" stroke-linecap="round" stroke-linejoin="round" /><polyline points="-131.95,276.86 -127.51,266.33 -113.39,231.12 -111.68,226.50 -109.78,221.38 -109.06,219.53 -108.87,216.63 -107.06,189.26 -106.54,181.41" fill="none" stroke="#bcbcbc" stroke-width="8" stroke-linecap="round" stroke-linejoin="round" /><polyline points="-141.59,-6.13 -132.77,-36.70 -121.14,-77.03 -119.70,-82.02 -118.10,-87.69 -114.52,-100.39 -114.14,-101.72 -113.11,-105.81 -111.48,-110.42 -111.08,-111.54 -109.01,-116.66 -104.95,-125.61 -103.74,-128.19" fill="none" stroke="#bcbcbc" stroke-width="8" stroke-linecap="round" stroke-linejoin="round" /><polyline points="-119.70,-82.02 -101.86,-77.46 -64.08,-67.75 -42.55,-61.05 -33.57,-58.94" fill="none" stroke="#bcbcbc" stroke-width="8" stroke-linecap="round" stroke-linejoin="round" /><polyline points="247.50,-220.75 248.11,-224.46 248.72,-228.31 251.33,-241.21 257.87,-271.21 263.24,-298.06 264.22,-303.62 265.56,-311.19 265.56,-311.19" fill="none" stroke="#bcbcbc" stroke-width="8" stroke-linecap="round" stroke-linejoin="round" /><polyline points="194.68,357.08 202.65,336.76 203.64,333.11 235.25,252.88 237.47,247.09 239.26,242.19 258.15,187.24 261.79,184.07" fill="none" stroke="#bcbcbc" stroke-width="8" stroke-linecap="round" stroke-linejoin="round" /><polyline points="303.03,-236.28 303.03,-236.29 301.91,-242.16 301.73,-242.88 299.00,-253.98 299.01,-254.02 297.14,-261.54 289.26,-288.57 288.26,-291.47 282.93,-305.95 281.20,-310.27 280.09,-313.06 278.64,-316.23 278.64,-316.23 278.63,-316.24 277.58,-327.89 277.48,-333.60" fill="none" stroke="#bcbcbc" stroke-width="8" stroke-linecap="round" stroke-linejoin="round" /><polyline points="291.21,222.31 289.18,224.50 286.16,228.10 277.64,252.11 275.18,259.06" fill="none" stroke="#bcbcbc" stroke-width="8" stroke-linecap="round" stroke-linejoin="round" /><polyline points="149.72,-125.63 150.88,-128.78 151.14,-129.51 156.67,-144.96 158.75,-151.47 175.70,-201.30" fill="none" stroke="#bcbcbc" stroke-width="8" stroke-linecap="round" stroke-linejoin="round" /><polyline points="237.39,-55.77 239.12,-60.36 243.81,-72.80 245.79,-78.06 247.13,-81.62 250.89,-91.60 253.37,-98.20 253.70,-99.08 259.72,-115.06 262.23,-114.28 263.59,-117.99 266.00,-124.55 265.54,-127.53 271.94,-144.95 272.60,-146.74 273.81,-147.85 274.83,-148.79 281.25,-166.33 282.18,-171.13 291.38,-196.70 293.56,-198.41 297.99,-210.94 297.20,-212.86 301.08,-224.56 299.07,-235.01" fill="none" stroke="#bcbcbc" stroke-width="8" stroke-linecap="round" stroke-linejoin="round" /><polyline points="402.08,-531.50 399.50,-535.73 385.94,-557.97" fill="none" stroke="#bcbcbc" stroke-width="8" stroke-linecap="round" stroke-linejoin="round" /><polyline points="444.54,-238.51 506.74,-198.52 506.76,-198.49 506.76,-198.48 518.27,-196.99" fill="none" stroke="#bcbcbc" stroke-width="8" stroke-linecap="round" stroke-linejoin="round" /><polyline points="419.59,-322.07 485.78,-288.85 487.77,-287.36 487.64,-276.48 488.98,-265.33" fill="none" stroke="#bcbcbc" stroke-width="8" stroke-linecap="round" stroke-linejoin="round" /><polyline points="293.40,264.84 291.02,272.10 281.38,301.51 264.98,351.03 263.81,354.55 262.63,358.11 262.30,361.90" fill="none" stroke="#bcbcbc" stroke-width="8" stroke-linecap="round" stroke-linejoin="round" /><polyline points="479.73,86.19 480.12,82.50 480.21,79.06 480.18,78.94 477.83,68.81 476.87,64.57 476.41,62.53 475.94,60.44 473.36,49.10 468.33,26.43 464.68,12.81 464.16,10.70" fill="none" stroke="#bcbcbc" stroke-width="8" stroke-linecap="round" stroke-linejoin="round" /><polyline points="151.13,293.66 152.77,288.99 171.20,236.62 173.29,230.67" fill="none" stroke="#bcbcbc" stroke-width="8" stroke-linecap="round" stroke-linejoin="round" /><polyline points="564.95,-132.81 559.53,-134.34 522.70,-190.84 518.27,-196.99" fill="none" stroke="#bcbcbc" stroke-width="8" stroke-linecap="round" stroke-linejoin="round" /><polyline points="-40.40,2.75 93.81,34.90 103.06,38.28" fill="none" stroke="#bcbcbc" stroke-width="8" stroke-linecap="round" stroke-linejoin="round" /><polyline points="382.89,-499.57 435.17,-480.21 442.53,-481.47" fill="none" stroke="#bcbcbc" stroke-width="8" stroke-linecap="round" stroke-linejoin="round" />
    <polyline points="167.20,352.80 176.24,324.76 177.72,320.13 179.73,317.21 184.05,304.25 185.46,299.85 203.30,244.00 205.09,238.38 206.57,233.45 227.62,167.20" fill="none" stroke="#ffffff" stroke-width="16" stroke-linecap="round" stroke-linejoin="round" />
    <polyline points="167.20,352.80 176.24,324.76 177.72,320.13 179.73,317.21 184.05,304.25 185.46,299.85 203.30,244.00 205.09,238.38 206.57,233.45 227.62,167.20" fill="none" stroke="#111111" stroke-width="9" stroke-linecap="round" stroke-linejoin="round" />
    
            <g transform="translate(167.20,352.80)">
              <circle r="19" fill="#ffffff" stroke="#111111" stroke-width="4" />
              <text text-anchor="middle" dominant-baseline="central" font-family="Helvetica, Arial, sans-serif"
                font-size="18" font-weight="700" fill="#111111">1</text>
            </g>
            
            <g transform="translate(227.62,167.20)">
              <circle r="19" fill="#ffffff" stroke="#111111" stroke-width="4" />
              <text text-anchor="middle" dominant-baseline="central" font-family="Helvetica, Arial, sans-serif"
                font-size="18" font-weight="700" fill="#111111">2</text>
            </g>
            
  </g>
</svg>
