<svg xmlns="http://www.w3.org/2000/svg" width="520" height="520" viewBox="0 0 520 520">
  <rect width="100%" height="100%" fill="#ffffff" />
  <g>
    <polyline points="889.91,-225.76 896.76,-189.35 940.93,119.65 934.17,196.90" fill="none" stroke="#bcbcbc" stroke-width="8" stroke-linecap="round" stroke-linejoin="round" /><polyline points="-7.86,2349.27 2.82,2316.44 59.40,2142.42 66.07,2121.91 72.82,2100.38 215.09,1646.66 226.53,1610.18 200.33,1545.63" fill="none" stroke="#bcbcbc" stroke-width="8" stroke-linecap="round" stroke-linejoin="round" /><polyline points="-990.60,1945.71 -992.90,1919.66 -946.39,1659.13 -939.86,1626.54 -934.99,1609.48 -922.19,1543.40 -907.80,1462.54 -892.12,1391.32 -876.58,1320.26 -866.79,1300.23 -860.38,1287.95" fill="none" stroke="#bcbcbc" stroke-width="8" stroke-linecap="round" stroke-linejoin="round" /><polyline points="-720.62,108.00 -731.67,74.28 -845.98,-274.36 -851.56,-288.98" fill="none" stroke="#bcbcbc" stroke-width="8" stroke-linecap="round" stroke-linejoin="round" /><polyline points="-1307.14,3176.37 -1303.73,3143.10 -1302.34,3127.84 -1289.90,2990.18 -1276.28,2868.98 -1273.10,2840.68 -1270.14,2806.72 -1269.81,2803.87 -1262.09,2736.36 -1255.43,2667.74 -1248.10,2601.52 -1243.16,2549.97 -1241.09,2518.16 -1239.27,2488.78 -1236.03,2455.67" fill="none" stroke="#bcbcbc" stroke-width="8" stroke-linecap="round" stroke-linejoin="round" /><polyline points="272.28,2430.16 280.42,2404.57 337.78,2224.25 344.30,2203.76 353.56,2174.57 360.20,2153.65 410.96,1934.68" fill="none" stroke="#bcbcbc" stroke-width="8" stroke-linecap="round" stroke-linejoin="round" /><polyline points="49.31,-1136.60 70.49,-1133.35 654.19,-1043.66" fill="none" stroke="#bcbcbc" stroke-width="8" stroke-linecap="round" stroke-linejoin="round" /><polyline points="-1449.13,2387.67 -1509.89,2384.84 -1546.93,2383.12 -1567.06,2382.18 -1584.71,2381.36 -1722.29,2374.96 -1913.65,2366.06 -2004.85,2353.13 -2035.38,2348.80 -2061.87,2344.13 -2241.26,2312.46 -2266.33,2308.04 -2271.89,2307.09 -2302.86,2301.77 -2326.66,2297.70 -2478.67,2284.26 -2507.62,2281.70 -2518.24,2280.76 -2551.11,2278.48 -2615.45,2274.02" fill="none" stroke="#bcbcbc" stroke-width="8" stroke-linecap="round" stroke-linejoin="round" /><polyline points="-566.50,2211.40 -554.73,2177.91 -448.69,1883.95 -321.12,1513.16 -312.95,1489.91 -307.25,1473.66 -302.63,1460.32" fill="none" stroke="#bcbcbc" stroke-width="8" stroke-linecap="round" stroke-linejoin="round" /><polyline points="-2518.24,2280.76 -2520.95,2261.86 -2521.59,2241.33 -2517.57,2199.99 -2508.33,2124.51 -2502.17,2099.17 -2492.18,2007.58 -2490.36,1987.17 -2487.43,1960.95 -2485.26,1941.47 -2481.16,1919.38 -2473.57,1859.97 -2468.29,1814.53 -2460.54,1795.93" fill="none" stroke="#bcbcbc" stroke-width="8" stroke-linecap="round" stroke-linejoin="round" /><polyline points="-2626.77,1772.71 -2485.33,1792.47 -2460.54,1795.93 -2445.18,1798.38 -2381.78,1808.48 -2235.70,1831.76 -2210.64,1835.94" fill="none" stroke="#bcbcbc" stroke-width="8" stroke-linecap="round" stroke-linejoin="round" /><polyline points="-23.73,-82.86 -22.81,-70.00 -20.91,-56.98 -16.32,-47.01 -7.72,-35.89 8.19,-21.41 45.88,1.52 336.70,183.98 515.80,424.12 651.09,758.00 659.91,780.06" fill="none" stroke="#bcbcbc" stroke-width="8" stroke-linecap="round" stroke-linejoin="round" /><polyline points="-70.30,891.37 -64.27,901.34 -62.71,903.93 -57.72,929.12 -23.59,1094.12 -12.76,1146.49 -5.02,1183.79 7.06,1259.38 12.71,1294.25 16.60,1315.53 20.86,1334.74 25.95,1345.95 33.41,1358.92 37.41,1365.04 112.98,1473.22 153.85,1537.59 164.50,1552.97" fill="none" stroke="#bcbcbc" stroke-width="8" stroke-linecap="round" stroke-linejoin="round" /><polyline points="-2239.52,2957.32 -2235.51,2932.56 -2231.77,2914.66 -2230.77,2912.28 -2180.48,2792.70 -2148.43,2714.97 -2138.69,2690.34 -2128.38,2664.26 -2117.17,2641.83 -2115.36,2637.45 -2100.03,2600.38 -2088.17,2567.58 -2078.00,2537.49 -2071.55,2516.22 -2064.31,2489.94 -2055.97,2454.71 -2049.63,2426.13 -2042.06,2386.23 -2040.47,2377.33 -2035.38,2348.80" fill="none" stroke="#bcbcbc" stroke-width="8" stroke-linecap="round" stroke-linejoin="round" /><polyline points="197.17,-382.32 357.53,-270.26 379.13,-265.67 394.95,-247.58" fill="none" stroke="#bcbcbc" stroke-width="8" stroke-linecap="round" stroke-linejoin="round" /><polyline points="-476.20,652.60 -455.01,660.76 -362.99,690.86 -149.56,772.72 -137.58,784.65 -131.96,793.57" fill="none" stroke="#bcbcbc" stroke-width="8" stroke-linecap="round" stroke-linejoin="round" /><polyline points="-78.47,2756.00 -63.94,2718.12 7.81,2523.44 58.55,2376.35 69.07,2371.51" fill="none" stroke="#bcbcbc" stroke-width="8" stroke-linecap="round" stroke-linejoin="round" /><polyline points="-1092.74,2509.15 -1081.42,2484.12 -1080.30,2481.64 -1060.93,2416.66 -1029.19,2309.69 -1021.07,2282.32 -1014.75,2261.05 -1013.90,2248.66 -1015.19,2221.23" fill="none" stroke="#bcbcbc" stroke-width="8" stroke-linecap="round" stroke-linejoin="round" /><polyline points="226.11,899.91 207.92,903.67 166.70,896.33 160.31,879.32 88.88,852.09 71.99,856.50 7.55,832.85 -2.06,839.56" fill="none" stroke="#bcbcbc" stroke-width="8" stroke-linecap="round" stroke-linejoin="round" /><polyline points="120.05,-1309.63 152.42,-1301.70 170.33,-1298.59 596.11,-1224.76" fill="none" stroke="#bcbcbc" stroke-width="8" stroke-linecap="round" stroke-linejoin="round" /><polyline points="-210.88,2637.44 -193.17,2587.51 -158.75,2490.46 -136.51,2449.12 -104.50,2359.50 -91.72,2323.73" fill="none" stroke="#bcbcbc" stroke-width="8" stroke-linecap="round" stroke-linejoin="round" /><polyline points="-2543.82,699.29 -2574.66,697.87 -2582.39,707.26 -2636.12,772.55 -2823.93,989.50 -2850.34,1020.01" fill="none" stroke="#bcbcbc" stroke-width="8" stroke-linecap="round" stroke-linejoin="round" /><polyline points="-896.50,885.10 -910.11,915.24 -911.76,918.89 -959.05,1042.23 -1006.73,1178.01 -1019.44,1214.22 -1026.65,1232.91" fill="none" stroke="#bcbcbc" stroke-width="8" stroke-linecap="round" stroke-linejoin="round" /><polyline points="-202.71,-500.79 -187.69,-480.41 -176.95,-452.37 -160.26,-412.14 -133.47,-348.85 -109.73,-292.04 -82.50,-229.66 -62.29,-181.59 -59.30,-174.68 -59.11,-174.26 -42.85,-136.23 -37.99,-125.43 -33.37,-115.14 -28.48,-105.50 -24.80,-95.70 -23.73,-82.86" fill="none" stroke="#bcbcbc" stroke-width="8" stroke-linecap="round" stroke-linejoin="round" /><polyline points="-1353.00,1493.11 -1345.14,1488.82 -1334.14,1480.07 -1328.63,1468.73 -1255.56,1191.64 -1253.35,1176.01 -1244.44,1147.46" fill="none" stroke="#bcbcbc" stroke-width="8" stroke-linecap="round" stroke-linejoin="round" /><polyline points="1202.13,1059.50 1212.50,1092.40 1219.80,1126.96 1205.60,1258.66 1189.18,1357.73 1180.21,1391.53 1179.40,1394.58 1171.55,1412.82 1160.84,1432.16 1135.84,1463.78 1147.95,1525.61 1108.78,1658.31 1087.16,1731.61 1042.92,1851.57 978.14,1997.63 899.04,2137.61 874.33,2183.10 829.67,2257.84 651.23,2511.12 612.13,2563.80 460.73,2761.66 373.82,2860.55 252.24,2984.13 240.98,2985.28 213.52,3007.73" fill="none" stroke="#bcbcbc" stroke-width="8" stroke-linecap="round" stroke-linejoin="round" /><polyline points="-999.69,3225.96 -949.89,3071.46 -941.74,3045.95 -930.67,3029.88 -906.88,2958.48 -899.13,2934.23 -800.86,2626.54 -790.98,2595.59 -782.83,2568.40 -666.86,2203.40" fill="none" stroke="#bcbcbc" stroke-width="8" stroke-linecap="round" stroke-linejoin="round" /><polyline points="-693.47,371.44 -574.89,412.72 -568.34,423.37 -534.67,434.66 -514.68,441.50 -419.10,473.79" fill="none" stroke="#bcbcbc" stroke-width="8" stroke-linecap="round" stroke-linejoin="round" /><polyline points="340.10,-449.19 394.95,-247.58 458.44,-10.08 468.07,9.72 469.60,32.32 512.65,112.70 628.85,329.40 654.25,366.87 661.61,377.85 835.21,702.42 915.00,774.96 926.19,789.41 941.97,802.90 1093.46,932.44 1103.74,941.23 1130.94,955.67" fill="none" stroke="#bcbcbc" stroke-width="8" stroke-linecap="round" stroke-linejoin="round" /><polyline points="-249.07,3258.75 128.74,3039.28 195.99,3004.89 213.52,3007.73" fill="none" stroke="#bcbcbc" stroke-width="8" stroke-linecap="round" stroke-linejoin="round" /><polyline points="160.56,2944.78 184.00,2916.91 394.45,2496.99 408.39,2469.45 420.03,2442.20 488.00,2274.09 508.25,2223.44 566.83,2046.12 604.82,1818.15 609.33,1784.97" fill="none" stroke="#bcbcbc" stroke-width="8" stroke-linecap="round" stroke-linejoin="round" /><polyline points="-1.85,475.22 -5.53,479.00 -10.60,496.66 -11.11,498.42 -33.95,586.37 -27.95,609.33 -32.94,629.91 -39.46,656.85 -56.17,676.21 -75.14,753.04 -97.48,769.92 -121.32,786.27 -131.96,793.57" fill="none" stroke="#bcbcbc" stroke-width="8" stroke-linecap="round" stroke-linejoin="round" /><polyline points="-896.50,885.10 -886.79,860.21 -828.40,710.54 -815.67,677.90 -805.18,651.02 -730.59,459.88 -697.00,379.97 -693.47,371.44 -667.37,308.33 -608.80,162.91 -587.35,101.00 -582.58,86.81 -576.17,70.71" fill="none" stroke="#bcbcbc" stroke-width="8" stroke-linecap="round" stroke-linejoin="round" /><polyline points="-243.20,-22.19 -231.91,11.42 138.61,327.92 340.79,503.82 642.77,766.35 669.13,787.44 680.94,794.82 733.34,842.39 803.32,902.08 962.05,1037.42 1013.32,1081.51 1047.33,1122.21" fill="none" stroke="#bcbcbc" stroke-width="8" stroke-linecap="round" stroke-linejoin="round" /><polyline points="369.42,-567.55 388.22,-579.60 499.55,-625.87 522.42,-649.94" fill="none" stroke="#bcbcbc" stroke-width="8" stroke-linecap="round" stroke-linejoin="round" /><polyline points="498.01,2249.06 344.30,2203.76 66.07,2121.92" fill="none" stroke="#bcbcbc" stroke-width="8" stroke-linecap="round" stroke-linejoin="round" /><polyline points="1.84,-1020.57 22.83,-1006.09 706.99,-853.85" fill="none" stroke="#bcbcbc" stroke-width="8" stroke-linecap="round" stroke-linejoin="round" /><polyline points="846.93,1232.10 811.57,1153.43 733.11,966.28 727.26,951.40 713.83,917.24 663.26,788.53 660.07,780.19" fill="none" stroke="#bcbcbc" stroke-width="8" stroke-linecap="round" stroke-linejoin="round" /><polyline points="-202.71,-500.79 -240.70,-511.60 -268.61,-519.91 -325.34,-536.76 -354.16,-544.98 -370.67,-549.57 -392.23,-555.75" fill="none" stroke="#bcbcbc" stroke-width="8" stroke-linecap="round" stroke-linejoin="round" /><polyline points="-1193.08,528.57 -1195.00,522.28 -1196.77,517.88 -1204.60,498.42 -1234.93,427.72 -1263.75,355.89 -1269.97,338.94 -1277.14,319.40 -1282.27,303.42 -1290.74,279.46 -1291.63,276.94 -1319.21,208.98 -1369.83,81.24 -1381.21,74.76 -1389.29,54.04 -1405.44,-2.07 -1433.10,-71.60 -1439.06,-87.40" fill="none" stroke="#bcbcbc" stroke-width="8" stroke-linecap="round" stroke-linejoin="round" /><polyline points="-949.89,3071.46 -921.14,3080.27 -828.12,3108.62 -798.99,3117.49" fill="none" stroke="#bcbcbc" stroke-width="8" stroke-linecap="round" stroke-linejoin="round" /><polyline points="787.17,-534.09 792.59,-556.01 790.38,-564.34 787.73,-574.38 770.75,-636.60 732.88,-768.13 712.90,-835.38 706.99,-853.85 654.19,-1043.66 625.69,-1146.04 596.11,-1224.76 569.40,-1295.78 542.80,-1344.61 516.96,-1370.41 318.55,-1612.87 303.87,-1630.13 294.14,-1646.08" fill="none" stroke="#bcbcbc" stroke-width="8" stroke-linecap="round" stroke-linejoin="round" /><polyline points="-23.73,-82.86 -33.96,-78.95 -52.88,-73.73 -54.77,-73.20 -133.79,-52.99 -224.65,-27.41 -243.20,-22.19 -251.46,-19.56 -273.29,-12.55 -291.95,-7.36 -373.42,15.31 -507.41,53.38 -557.36,66.01 -576.17,70.71 -665.46,92.64 -720.62,108.00 -837.43,140.64 -952.89,173.18 -966.25,176.88 -1062.74,203.67 -1107.25,216.02 -1129.73,226.64 -1172.27,247.74 -1256.77,290.62 -1262.66,293.61 -1282.27,303.42 -1294.24,309.41 -1310.94,318.17 -1370.30,349.29 -1478.47,409.99 -1568.83,457.32 -1581.75,464.10 -1599.02,465.17 -1609.39,470.68 -1611.46,471.78 -1709.49,525.50 -1730.01,525.41 -1753.57,537.74 -1761.80,542.05 -1768.75,545.68 -1785.13,554.25 -1798.04,583.70 -1853.52,613.42 -1871.16,622.87 -1890.25,633.26 -1967.43,675.26 -2007.34,696.98 -2027.45,702.77" fill="none" stroke="#bcbcbc" stroke-width="8" stroke-linecap="round" stroke-linejoin="round" /><polyline points="1087.16,1731.60 1045.97,1735.38 917.31,1747.17 911.51,1747.70 903.30,1748.45 890.02,1749.67 765.27,1761.13 721.88,1757.10 671.36,1769.76 630.89,1779.68 609.33,1784.97 555.77,1787.00 509.41,1784.64 485.78,1782.13 465.66,1776.05 450.85,1767.86 395.69,1728.85 261.65,1636.79 249.02,1628.22 236.15,1619.49 226.53,1610.18" fill="none" stroke="#bcbcbc" stroke-width="8" stroke-linecap="round" stroke-linejoin="round" /><polyline points="-1948.54,177.34 -1899.90,272.56 -1892.54,299.77 -1851.57,377.94 -1834.65,400.30 -1766.18,533.54 -1761.80,542.05" fill="none" stroke="#bcbcbc" stroke-width="8" stroke-linecap="round" stroke-linejoin="round" /><polyline points="-458.14,1024.10 -465.42,1044.12 -467.47,1050.34 -476.96,1079.14 -537.13,1247.02 -567.00,1330.39 -568.02,1333.23 -580.01,1359.14 -586.89,1374.54" fill="none" stroke="#bcbcbc" stroke-width="8" stroke-linecap="round" stroke-linejoin="round" /><polyline points="340.10,-449.19 333.43,-463.47 315.90,-465.77 259.18,-452.77 247.66,-454.26 238.63,-466.37 222.58,-540.17 309.50,-553.62 349.74,-565.50 369.42,-567.55 390.61,-492.19" fill="none" stroke="#bcbcbc" stroke-width="8" stroke-linecap="round" stroke-linejoin="round" /><polyline points="654.25,366.87 676.64,354.30 789.10,286.53 819.15,268.63 871.76,237.27 958.31,181.29 978.51,166.77 1130.32,72.59" fill="none" stroke="#bcbcbc" stroke-width="8" stroke-linecap="round" stroke-linejoin="round" /><polyline points="1184.92,811.72 1146.54,800.29 1124.22,781.99 1038.95,708.19 1036.05,705.60 1015.43,687.20 1003.31,665.72 789.10,286.53" fill="none" stroke="#bcbcbc" stroke-width="8" stroke-linecap="round" stroke-linejoin="round" /><polyline points="-1232.60,781.67 -896.50,885.10 -869.07,893.79 -618.26,973.30 -613.02,974.96 -575.45,986.88 -556.97,992.74 -532.97,999.30 -483.46,1016.07 -458.14,1024.10 -435.35,1031.33 -248.69,1090.54 -51.65,1152.45 -35.35,1157.57 -12.76,1146.49" fill="none" stroke="#bcbcbc" stroke-width="8" stroke-linecap="round" stroke-linejoin="round" /><polyline points="-244.36,-877.71 -98.76,-1011.49 -74.12,-1034.14" fill="none" stroke="#bcbcbc" stroke-width="8" stroke-linecap="round" stroke-linejoin="round" /><polyline points="-2682.31,1280.98 -2148.09,1338.24" fill="none" stroke="#bcbcbc" stroke-width="8" stroke-linecap="round" stroke-linejoin="round" /><polyline points="-1070.73,-210.18 -958.44,-250.33 -842.62,-292.21 -770.66,-320.18 -550.95,-400.09 -487.18,-422.15 -473.87,-426.76 -457.90,-432.25 -439.97,-438.42 -437.77,-439.17 -401.58,-453.72 -385.84,-460.04" fill="none" stroke="#bcbcbc" stroke-width="8" stroke-linecap="round" stroke-linejoin="round" /><polyline points="-316.59,2507.03 -210.88,2637.44 -146.16,2702.61 -118.14,2722.78 -78.47,2756.00 -41.22,2787.28 -9.22,2818.51 -8.43,2834.39" fill="none" stroke="#bcbcbc" stroke-width="8" stroke-linecap="round" stroke-linejoin="round" /><polyline points="-202.71,-500.79 -161.28,-604.64 -94.23,-775.61 1.84,-1020.57 49.31,-1136.60 120.05,-1309.63 178.06,-1451.36 188.44,-1470.17 239.46,-1553.57 242.75,-1558.96 261.41,-1595.66 294.14,-1646.08 312.42,-1674.21 338.28,-1714.01" fill="none" stroke="#bcbcbc" stroke-width="8" stroke-linecap="round" stroke-linejoin="round" /><polyline points="-1180.08,2275.75 -1186.87,2281.18 -1191.35,2287.64 -1200.49,2314.59 -1206.80,2334.04 -1235.99,2421.32 -1240.01,2433.92 -1242.50,2441.73 -1269.30,2434.05 -1334.54,2412.17 -1399.18,2390.50 -1449.13,2387.67" fill="none" stroke="#bcbcbc" stroke-width="8" stroke-linecap="round" stroke-linejoin="round" /><polyline points="-2457.54,2883.12 -2351.01,2608.01 -2339.16,2578.06 -2328.53,2549.21 -2315.68,2514.36 -2299.93,2459.52 -2283.50,2391.38 -2276.77,2342.56 -2271.89,2307.09 -2264.99,2280.90 -2239.92,2084.18 -2210.64,1835.94 -2195.48,1717.59 -2178.57,1578.56 -2148.09,1338.24 -2143.25,1297.38 -2112.45,1046.05 -2112.43,1032.05 -2105.63,957.48 -2085.98,799.96 -2081.06,772.48 -2075.92,757.07 -2067.88,740.10 -2060.07,726.93 -2042.83,708.26 -2027.42,702.97" fill="none" stroke="#bcbcbc" stroke-width="8" stroke-linecap="round" stroke-linejoin="round" /><polyline points="-131.96,793.57 -126.13,802.81 -106.60,833.30 -77.35,880.19 -70.30,891.37 -58.64,882.51 -2.06,839.56" fill="none" stroke="#bcbcbc" stroke-width="8" stroke-linecap="round" stroke-linejoin="round" /><polyline points="-94.23,-775.61 481.35,-671.55 541.80,-639.74 767.31,-527.94 787.17,-534.09" fill="none" stroke="#bcbcbc" stroke-width="8" stroke-linecap="round" stroke-linejoin="round" /><polyline points="-1193.08,528.57 -1203.29,543.46 -1295.12,588.28 -1362.56,674.01 -1435.34,719.07 -1485.11,756.65 -1532.59,795.39 -1556.94,817.58 -1599.94,872.13 -1648.03,941.06 -1655.95,953.83" fill="none" stroke="#bcbcbc" stroke-width="8" stroke-linecap="round" stroke-linejoin="round" /><polyline points="-1096.00,590.06 -1099.98,598.91 -1108.69,611.64 -1125.14,631.89 -1222.14,754.42 -1273.45,892.64 -1532.48,795.28" fill="none" stroke="#bcbcbc" stroke-width="8" stroke-linecap="round" stroke-linejoin="round" /><polyline points="-1485.11,756.65 -1495.14,726.28 -1538.48,595.05 -1555.30,569.12 -1583.47,484.61 -1585.90,477.32 -1581.75,464.10 -1588.50,442.56 -1723.94,10.09" fill="none" stroke="#bcbcbc" stroke-width="8" stroke-linecap="round" stroke-linejoin="round" /><polyline points="101.88,-1603.01 208.92,-1600.19 213.92,-1600.05 234.43,-1599.47 261.41,-1595.66" fill="none" stroke="#bcbcbc" stroke-width="8" stroke-linecap="round" stroke-linejoin="round" /><polyline points="-448.69,1883.95 -485.23,1883.50 -794.70,1925.05 -817.01,1927.40 -842.51,1930.09 -990.60,1945.71 -1190.12,1966.79 -1295.89,1977.95 -1354.40,1984.12 -1401.91,1989.89 -1426.30,1992.86 -1453.78,1996.20 -1586.52,2012.33 -1618.33,2016.20 -1716.35,2026.92 -2239.92,2084.18" fill="none" stroke="#bcbcbc" stroke-width="8" stroke-linecap="round" stroke-linejoin="round" /><polyline points="-906.88,2958.48 -934.29,2949.66 -1062.34,2908.44 -1088.22,2900.11 -1110.70,2892.88 -1246.35,2849.27 -1273.10,2840.68 -1308.48,2829.29 -1524.44,2759.79 -1548.74,2751.97" fill="none" stroke="#bcbcbc" stroke-width="8" stroke-linecap="round" stroke-linejoin="round" /><polyline points="-371.45,365.85 -296.97,389.06 -24.59,473.17 -22.05,473.96 -1.85,475.22" fill="none" stroke="#bcbcbc" stroke-width="8" stroke-linecap="round" stroke-linejoin="round" /><polyline points="394.95,-247.58 765.46,-241.06" fill="none" stroke="#bcbcbc" stroke-width="8" stroke-linecap="round" stroke-linejoin="round" /><polyline points="213.52,3007.73 160.56,2944.78 138.34,2918.93 119.24,2901.08 93.82,2882.10 41.85,2850.92 -8.43,2834.39 -110.73,2802.79 -194.39,2776.24 -146.16,2702.61" fill="none" stroke="#bcbcbc" stroke-width="8" stroke-linecap="round" stroke-linejoin="round" /><polyline points="-316.59,2507.03 -390.34,2415.99 -404.37,2398.68 -478.65,2296.33 -495.47,2265.09 -491.43,2227.88 -469.04,2227.66 -413.79,2238.29 -329.71,2254.47" fill="none" stroke="#bcbcbc" stroke-width="8" stroke-linecap="round" stroke-linejoin="round" /><polyline points="-1281.39,1777.62 -1267.79,1806.88 -1190.12,1966.79 -1074.62,2204.56 -1059.89,2234.88" fill="none" stroke="#bcbcbc" stroke-width="8" stroke-linecap="round" stroke-linejoin="round" /><polyline points="-2525.46,2501.89 -2497.68,2513.25 -2367.56,2566.44 -2339.16,2578.06 -2309.27,2590.28 -2156.09,2652.92 -2128.38,2664.26" fill="none" stroke="#bcbcbc" stroke-width="8" stroke-linecap="round" stroke-linejoin="round" /><polyline points="-1217.46,1540.53 -946.39,1659.13" fill="none" stroke="#bcbcbc" stroke-width="8" stroke-linecap="round" stroke-linejoin="round" /><polyline points="-1.85,475.22 39.44,477.39 42.07,479.73 60.60,496.17 87.83,520.47 92.85,530.25 186.71,612.44 193.65,625.55 259.64,683.80 276.25,688.86 327.59,733.82 339.08,739.08 416.50,804.76 433.74,820.04 443.25,835.17" fill="none" stroke="#bcbcbc" stroke-width="8" stroke-linecap="round" stroke-linejoin="round" /><polyline points="-2601.97,1540.80 -2178.57,1578.56" fill="none" stroke="#bcbcbc" stroke-width="8" stroke-linecap="round" stroke-linejoin="round" /><polyline points="-1656.60,3117.47 -1643.48,3089.54 -1640.11,3077.12 -1621.72,3009.32 -1555.12,2774.46 -1548.74,2751.97 -1542.00,2727.31 -1511.83,2616.96 -1460.88,2430.62 -1449.13,2387.67" fill="none" stroke="#bcbcbc" stroke-width="8" stroke-linecap="round" stroke-linejoin="round" /><polyline points="-1281.39,1777.62 -1217.46,1540.53 -1353.00,1493.11 -1388.49,1514.07 -1404.67,1526.38 -1416.65,1542.58 -1425.07,1563.97 -1456.25,1679.19 -1431.10,1692.00 -1405.69,1698.16 -1349.52,1712.78 -1307.47,1726.17 -1281.39,1777.62" fill="none" stroke="#bcbcbc" stroke-width="8" stroke-linecap="round" stroke-linejoin="round" /><polyline points="-1456.25,1679.19 -1485.93,1675.05 -2178.57,1578.56" fill="none" stroke="#bcbcbc" stroke-width="8" stroke-linecap="round" stroke-linejoin="round" /><polyline points="-329.71,2254.47 -265.47,2268.51 -91.72,2323.73 -43.14,2339.09 72.18,2372.40 188.34,2405.90 274.34,2430.75 411.88,2470.46 440.29,2478.68 509.70,2501.95 623.97,2532.38 634.04,2534.27" fill="none" stroke="#bcbcbc" stroke-width="8" stroke-linecap="round" stroke-linejoin="round" /><polyline points="-248.21,3258.26 -271.66,3264.14 -297.01,3334.78 -336.31,3323.62 -515.01,3262.71 -536.53,3258.12 -584.37,3254.70 -800.79,3255.56 -848.50,3249.49 -956.24,3233.01 -999.69,3225.96 -1307.92,3176.24 -1427.28,3157.20 -1654.91,3117.77 -1691.66,3110.48 -2205.37,2966.89 -2237.79,2957.81 -2457.54,2883.12 -2511.60,2863.94 -2646.65,2807.97 -2723.63,2778.85" fill="none" stroke="#bcbcbc" stroke-width="8" stroke-linecap="round" stroke-linejoin="round" /><polyline points="222.58,-540.17 200.34,-544.75 -96.56,-509.64 -202.71,-500.79" fill="none" stroke="#bcbcbc" stroke-width="8" stroke-linecap="round" stroke-linejoin="round" /><polyline points="-329.71,2254.47 -319.31,2237.06 -257.00,2077.04 -187.39,1835.07 -169.63,1782.96 -160.13,1768.77 -92.92,1553.03 -89.58,1527.26 -87.04,1510.43" fill="none" stroke="#bcbcbc" stroke-width="8" stroke-linecap="round" stroke-linejoin="round" /><polyline points="-23.73,-82.86 -16.64,-85.57 -7.02,-93.21 7.59,-110.29 197.17,-382.32 247.66,-454.26" fill="none" stroke="#bcbcbc" stroke-width="8" stroke-linecap="round" stroke-linejoin="round" /><polyline points="820.02,916.42 823.90,905.25 919.20,793.13 926.19,789.41 942.75,766.75 998.19,703.07 1015.43,687.20" fill="none" stroke="#bcbcbc" stroke-width="8" stroke-linecap="round" stroke-linejoin="round" /><polyline points="903.30,1748.45 901.98,1733.45 900.96,1721.84 895.94,1699.66 889.94,1685.18 882.45,1647.15 881.77,1633.38 876.70,1602.60 854.02,1590.75 835.89,1597.68 803.44,1605.45 777.76,1609.47 753.12,1615.41 719.12,1623.16 703.61,1626.70" fill="none" stroke="#bcbcbc" stroke-width="8" stroke-linecap="round" stroke-linejoin="round" /><polyline points="-1600.38,1197.83 -1531.07,1035.36 -1527.22,1024.80" fill="none" stroke="#bcbcbc" stroke-width="8" stroke-linecap="round" stroke-linejoin="round" /><polyline points="226.11,899.91 259.52,886.97 276.98,880.21 290.49,866.53 346.18,852.80 364.87,857.56 405.18,847.18 435.93,839.26 443.25,835.17 473.07,827.87 625.52,790.52 660.07,780.19" fill="none" stroke="#bcbcbc" stroke-width="8" stroke-linecap="round" stroke-linejoin="round" /><polyline points="-1180.08,2275.75 -1108.17,2249.63 -1084.11,2242.28 -1059.89,2234.88 -1015.19,2221.23 -980.43,2216.23 -861.68,2203.24 -837.83,2201.94 -731.58,2202.85 -666.86,2203.40 -642.52,2202.15 -603.54,2206.10 -591.35,2207.85 -566.50,2211.40 -491.43,2227.88" fill="none" stroke="#bcbcbc" stroke-width="8" stroke-linecap="round" stroke-linejoin="round" /><polyline points="-837.43,140.64 -849.34,100.35 -893.59,-49.27 -947.34,-219.88 -958.44,-250.33 -969.71,-278.88 -983.96,-320.01" fill="none" stroke="#bcbcbc" stroke-width="8" stroke-linecap="round" stroke-linejoin="round" /><polyline points="-966.13,2553.11 -956.69,2523.26 -861.08,2221.78 -861.68,2203.24" fill="none" stroke="#bcbcbc" stroke-width="8" stroke-linecap="round" stroke-linejoin="round" /><polyline points="-837.83,2201.94 -818.90,1948.09 -817.01,1927.40 -814.11,1903.31 -814.06,1902.22 -812.82,1872.78 -806.50,1792.88 -802.94,1755.66 -798.07,1713.39 -793.63,1682.95 -789.65,1663.83 -784.64,1649.39 -774.81,1616.83 -754.50,1549.07 -728.68,1461.57 -700.20,1372.11 -694.40,1353.86 -689.74,1340.63" fill="none" stroke="#bcbcbc" stroke-width="8" stroke-linecap="round" stroke-linejoin="round" /><polyline points="-1456.25,1679.19 -1461.28,1701.69 -1460.42,1708.87 -1429.57,1965.67 -1426.30,1992.86 -1427.72,2020.84 -1435.80,2180.55 -1439.18,2247.28 -1440.92,2281.70 -1444.02,2343.04 -1445.64,2374.99 -1449.13,2387.67" fill="none" stroke="#bcbcbc" stroke-width="8" stroke-linecap="round" stroke-linejoin="round" /><polyline points="-1600.38,1197.83 -1712.52,1164.50 -1726.77,1155.36 -1796.56,1135.02 -1816.17,1135.23 -1903.86,1108.81 -1918.03,1098.36 -1997.82,1074.17 -2095.73,1047.48 -2096.21,1047.44 -2112.45,1046.05" fill="none" stroke="#bcbcbc" stroke-width="8" stroke-linecap="round" stroke-linejoin="round" /><polyline points="443.25,835.17 447.14,840.28 463.40,864.52 493.46,909.33 521.76,937.68 576.16,998.75 566.96,1055.18 562.30,1076.35 555.81,1085.30 569.44,1105.47 590.54,1148.89 632.71,1230.24 653.47,1270.30 666.38,1306.31 672.21,1323.03" fill="none" stroke="#bcbcbc" stroke-width="8" stroke-linecap="round" stroke-linejoin="round" /><polyline points="727.26,951.40 711.62,956.27 608.65,988.31 593.88,993.05 576.16,998.75" fill="none" stroke="#bcbcbc" stroke-width="8" stroke-linecap="round" stroke-linejoin="round" /><polyline points="-12.76,1146.49 19.44,1136.05 253.18,1016.69 284.47,1001.40 394.64,969.58 501.46,939.54 521.76,937.68" fill="none" stroke="#bcbcbc" stroke-width="8" stroke-linecap="round" stroke-linejoin="round" /><polyline points="12.71,1294.25 282.18,1168.85 293.53,1161.34 319.88,1153.67 499.45,1101.42 526.68,1090.99 555.81,1085.30" fill="none" stroke="#bcbcbc" stroke-width="8" stroke-linecap="round" stroke-linejoin="round" /><polyline points="-42.28,-1334.84 66.80,-1321.37 77.76,-1320.01 120.05,-1309.63" fill="none" stroke="#bcbcbc" stroke-width="8" stroke-linecap="round" stroke-linejoin="round" /><polyline points="889.91,-225.76 909.26,-229.80 981.54,-194.37 991.06,-184.95 1126.75,44.74 1130.32,72.59 1147.97,87.30 1145.16,97.45 1144.73,114.01 1147.18,137.15 1183.11,284.86 1186.29,387.16 1191.33,550.50 1199.78,770.35 1165.37,866.15 1143.20,924.55 1110.83,1006.86 1101.46,1030.66 1095.37,1037.31 1085.59,1101.00" fill="none" stroke="#bcbcbc" stroke-width="8" stroke-linecap="round" stroke-linejoin="round" /><polyline points="1140.78,1489.00 1107.77,1474.64 1025.31,1417.09 916.51,1340.63 856.67,1292.24 816.30,1249.00" fill="none" stroke="#bcbcbc" stroke-width="8" stroke-linecap="round" stroke-linejoin="round" /><polyline points="-194.40,2776.24 -226.80,2765.96 -279.39,2749.29 -304.49,2741.33 -333.97,2731.98 -371.22,2720.17 -404.90,2709.50 -438.18,2698.93 -586.63,2651.83 -612.63,2643.58 -644.93,2633.35 -652.05,2631.09 -736.95,2608.66 -760.93,2602.86 -790.98,2595.59 -822.43,2587.96 -935.74,2560.48 -966.13,2553.11 -998.79,2541.77 -1067.02,2518.08 -1092.74,2509.15 -1115.74,2501.68 -1222.58,2463.69 -1236.03,2455.67 -1242.50,2441.73" fill="none" stroke="#bcbcbc" stroke-width="8" stroke-linecap="round" stroke-linejoin="round" /><polyline points="293.53,1161.34 285.66,1133.13 262.21,1049.03 253.18,1016.69 240.15,992.51 238.94,988.03 231.25,959.56 240.20,946.95 229.45,911.06 226.11,899.91" fill="none" stroke="#bcbcbc" stroke-width="8" stroke-linecap="round" stroke-linejoin="round" /><polyline points="254.31,132.17 276.61,121.67 398.43,54.51 468.07,9.72 517.18,-23.79 528.03,-31.87 567.56,-59.34 608.52,-89.60 634.46,-108.48 665.38,-131.09 772.86,-179.59 786.79,-178.85 807.17,-188.49 889.91,-225.76" fill="none" stroke="#bcbcbc" stroke-width="8" stroke-linecap="round" stroke-linejoin="round" /><polyline points="-1096.00,590.06 -1078.42,597.19 -1066.80,600.76 -848.95,667.68 -815.67,677.90" fill="none" stroke="#bcbcbc" stroke-width="8" stroke-linecap="round" stroke-linejoin="round" /><polyline points="-2652.12,1080.00 -2807.77,1032.89" fill="none" stroke="#bcbcbc" stroke-width="8" stroke-linecap="round" stroke-linejoin="round" /><polyline points="-137.95,-1115.00 -99.36,-1066.11 -93.60,-1058.82 -74.12,-1034.14 -51.91,-1031.53 -6.27,-1026.17 1.84,-1020.57" fill="none" stroke="#bcbcbc" stroke-width="8" stroke-linecap="round" stroke-linejoin="round" /><polyline points="1202.13,1059.50 1140.98,1070.90 1078.28,1104.98 1020.16,1137.33 965.18,1164.82 898.76,1200.90 850.66,1230.11 755.60,1281.07 384.53,1467.77 288.33,1510.14 224.76,1537.63 193.27,1547.94 167.21,1552.81 124.55,1555.39 63.85,1546.80 -87.61,1510.43 -302.63,1460.32 -585.52,1374.99 -689.74,1340.63 -860.38,1287.95 -1023.58,1234.12 -1262.95,1140.20 -1382.63,1088.66 -1526.93,1024.52 -1766.30,893.38 -1822.41,856.16 -1964.43,766.82 -2023.98,707.27 -2113.31,591.59 -2260.48,439.84 -2318.32,388.87" fill="none" stroke="#bcbcbc" stroke-width="8" stroke-linecap="round" stroke-linejoin="round" /><polyline points="41.85,2850.92 44.36,2836.93 53.41,2814.08 138.30,2615.46 170.36,2541.01 208.16,2448.23 217.36,2414.27" fill="none" stroke="#bcbcbc" stroke-width="8" stroke-linecap="round" stroke-linejoin="round" /><polyline points="-1586.52,2012.33 -1682.94,1965.66 -1902.34,1859.47 -2171.46,1729.22 -2195.48,1717.59" fill="none" stroke="#bcbcbc" stroke-width="8" stroke-linecap="round" stroke-linejoin="round" /><polyline points="-1.85,475.22 22.50,450.29 87.23,384.02 138.61,327.92" fill="none" stroke="#bcbcbc" stroke-width="8" stroke-linecap="round" stroke-linejoin="round" /><polyline points="-1871.16,622.87 -1897.91,587.45 -2023.24,421.50 -2202.16,276.70" fill="none" stroke="#bcbcbc" stroke-width="8" stroke-linecap="round" stroke-linejoin="round" /><polyline points="-2647.61,2807.57 -2623.14,2749.54 -2545.35,2555.59 -2535.92,2530.13 -2525.46,2501.89 -2521.49,2491.70 -2520.44,2475.74 -2510.48,2324.95 -2507.62,2281.70" fill="none" stroke="#bcbcbc" stroke-width="8" stroke-linecap="round" stroke-linejoin="round" /><polyline points="-2700.68,1248.45 -2652.12,1080.00 -2588.05,857.83 -2580.11,830.32 -2571.29,799.08 -2551.55,729.13 -2549.47,721.78 -2543.82,699.29 -2534.80,673.86 -2532.62,667.70 -2521.23,639.47 -2498.87,590.15 -2492.18,575.98" fill="none" stroke="#bcbcbc" stroke-width="8" stroke-linecap="round" stroke-linejoin="round" /><polyline points="-2580.11,830.32 -2481.85,855.46 -2273.69,908.96 -2155.10,945.89 -2105.63,957.48" fill="none" stroke="#bcbcbc" stroke-width="8" stroke-linecap="round" stroke-linejoin="round" /><polyline points="-557.36,66.01 -554.02,45.56 -550.66,24.33 -536.24,-46.70 -500.23,-212.03 -470.65,-359.91 -465.24,-390.59 -457.90,-432.25 -457.89,-432.29" fill="none" stroke="#bcbcbc" stroke-width="8" stroke-linecap="round" stroke-linejoin="round" /><polyline points="-848.31,3249.52 -804.44,3137.60 -798.99,3117.49 -624.86,2675.47 -612.63,2643.58 -602.73,2616.53 -498.69,2313.81 -478.65,2296.33" fill="none" stroke="#bcbcbc" stroke-width="8" stroke-linecap="round" stroke-linejoin="round" /><polyline points="-251.46,-19.56 -251.47,-19.60 -257.63,-51.98 -258.60,-55.91 -273.64,-117.08 -273.63,-117.28 -283.89,-158.75 -327.34,-307.67 -332.82,-323.62 -362.16,-403.39 -371.70,-427.21 -377.85,-442.57 -385.83,-460.02 -385.84,-460.04 -385.85,-460.12 -391.67,-524.26 -392.23,-555.75" fill="none" stroke="#bcbcbc" stroke-width="8" stroke-linecap="round" stroke-linejoin="round" /><polyline points="-316.59,2507.03 -327.76,2519.11 -344.41,2538.92 -391.32,2671.20 -404.90,2709.50" fill="none" stroke="#bcbcbc" stroke-width="8" stroke-linecap="round" stroke-linejoin="round" /><polyline points="-1096.00,590.06 -1089.59,572.70 -1088.14,568.66 -1057.68,483.57 -1046.25,447.72 -952.89,173.18" fill="none" stroke="#bcbcbc" stroke-width="8" stroke-linecap="round" stroke-linejoin="round" /><polyline points="-613.02,974.96 -603.50,949.66 -577.70,881.12 -566.79,852.15 -559.41,832.54 -538.70,777.54 -525.03,741.21 -523.19,736.32 -490.05,648.31 -476.20,652.60 -468.70,632.17 -455.42,596.02 -457.96,579.60 -422.71,483.64 -419.10,473.79 -412.41,467.64 -406.80,462.48 -371.45,365.85 -366.34,339.40 -315.62,198.49 -303.63,189.10 -279.23,120.08 -283.57,109.48 -262.20,45.01 -273.29,-12.55" fill="none" stroke="#bcbcbc" stroke-width="8" stroke-linecap="round" stroke-linejoin="round" /><polyline points="294.14,-1646.08 279.93,-1669.39 205.26,-1791.89" fill="none" stroke="#bcbcbc" stroke-width="8" stroke-linecap="round" stroke-linejoin="round" /><polyline points="528.03,-31.87 870.70,188.49 870.79,188.64 870.80,188.68 934.17,196.90" fill="none" stroke="#bcbcbc" stroke-width="8" stroke-linecap="round" stroke-linejoin="round" /><polyline points="390.61,-492.19 755.21,-309.18 766.20,-300.97 765.47,-241.06 772.86,-179.59" fill="none" stroke="#bcbcbc" stroke-width="8" stroke-linecap="round" stroke-linejoin="round" /><polyline points="-304.49,2741.33 -317.61,2781.34 -370.73,2943.36 -461.09,3216.22 -467.50,3235.57 -473.99,3255.19 -475.80,3276.08" fill="none" stroke="#bcbcbc" stroke-width="8" stroke-linecap="round" stroke-linejoin="round" /><polyline points="721.88,1757.10 724.06,1736.77 724.53,1717.81 724.38,1717.14 711.46,1661.30 706.16,1637.96 703.61,1626.70 700.99,1615.20 686.81,1552.72 659.11,1427.86 638.98,1352.79 636.12,1341.19" fill="none" stroke="#bcbcbc" stroke-width="8" stroke-linecap="round" stroke-linejoin="round" /><polyline points="-1088.22,2900.11 -1079.18,2874.42 -977.66,2585.87 -966.13,2553.11" fill="none" stroke="#bcbcbc" stroke-width="8" stroke-linecap="round" stroke-linejoin="round" /><polyline points="1191.33,550.50 1161.46,542.07 958.61,230.79 934.17,196.90" fill="none" stroke="#bcbcbc" stroke-width="8" stroke-linecap="round" stroke-linejoin="round" /><polyline points="-2143.25,1297.38 -1403.98,1474.50 -1353.00,1493.11" fill="none" stroke="#bcbcbc" stroke-width="8" stroke-linecap="round" stroke-linejoin="round" /><polyline points="188.44,-1470.17 476.41,-1363.49 516.96,-1370.41" fill="none" stroke="#bcbcbc" stroke-width="8" stroke-linecap="round" stroke-linejoin="round" />
    <polyline points="167.20,352.80 210.26,305.75 222.96,290.44 309.97,167.20" fill="none" stroke="#ffffff" stroke-width="16" stroke-linecap="round" stroke-linejoin="round" />
    <polyline points="167.20,352.80 210.26,305.75 222.96,290.44 309.97,167.20" fill="none" stroke="#111111" stroke-width="9" stroke-linecap="round" stroke-linejoin="round" />
    
            <g transform="translate(167.20,352.80)">
              <circle r="19" fill="#ffffff" stroke="#111111" stroke-width="4" />
              <text text-anchor="middle" dominant-baseline="central" font-family="Helvetica, Arial, sans-serif"
                font-size="18" font-weight="700" fill="#111111">1</text>
            </g>
            
            <g transform="translate(309.97,167.20)">
              <circle r="19" fill="#ffffff" stroke="#111111" stroke-width="4" />
              <text text-anchor="middle" dominant-baseline="central" font-family="Helvetica, Arial, sans-serif"
                font-size="18" font-weight="700" fill="#111111">2</text>
            </g>
            
  </g>
</svg>
