<svg xmlns="http://www.w3.org/2000/svg" width="520" height="520" viewBox="0 0 520 520">
  <rect width="100%" height="100%" fill="#ffffff" />
  <g>
    <polyline points="1238.28,-120.41 1242.91,-95.77 1272.79,113.25 1268.22,165.51" fill="none" stroke="#bcbcbc" stroke-width="8" stroke-linecap="round" stroke-linejoin="round" /><polyline points="630.98,1621.47 638.20,1599.26 676.48,1481.54 680.99,1467.67 685.56,1453.11 781.80,1146.19 789.54,1121.51 771.81,1077.85" fill="none" stroke="#bcbcbc" stroke-width="8" stroke-linecap="round" stroke-linejoin="round" /><polyline points="-33.79,1348.48 -35.35,1330.86 -3.89,1154.62 0.53,1132.58 3.82,1121.04 12.48,1076.34 22.22,1021.64 32.82,973.46 43.34,925.40 49.96,911.84 54.29,903.54" fill="none" stroke="#bcbcbc" stroke-width="8" stroke-linecap="round" stroke-linejoin="round" /><polyline points="148.84,105.37 141.36,82.56 64.03,-153.28 60.26,-163.17" fill="none" stroke="#bcbcbc" stroke-width="8" stroke-linecap="round" stroke-linejoin="round" /><polyline points="-247.92,2180.95 -245.61,2158.45 -244.67,2148.12 -236.26,2055.01 -227.04,1973.02 -224.89,1953.87 -222.89,1930.90 -222.67,1928.97 -217.44,1883.31 -212.94,1836.89 -207.98,1792.10 -204.64,1757.23 -203.24,1735.71 -202.01,1715.83 -199.82,1693.44" fill="none" stroke="#bcbcbc" stroke-width="8" stroke-linecap="round" stroke-linejoin="round" /><polyline points="820.48,1676.18 825.99,1658.87 864.79,1536.89 869.20,1523.03 875.47,1503.29 879.96,1489.14 914.30,1341.02" fill="none" stroke="#bcbcbc" stroke-width="8" stroke-linecap="round" stroke-linejoin="round" /><polyline points="669.66,-736.54 683.99,-734.34 1078.83,-673.67" fill="none" stroke="#bcbcbc" stroke-width="8" stroke-linecap="round" stroke-linejoin="round" /><polyline points="-343.97,1647.44 -385.07,1645.53 -410.13,1644.36 -423.74,1643.73 -435.68,1643.17 -528.75,1638.84 -658.19,1632.82 -719.89,1624.08 -740.54,1621.15 -758.45,1617.98 -879.80,1596.57 -896.76,1593.57 -900.52,1592.93 -921.47,1589.34 -937.58,1586.58 -1040.40,1577.49 -1059.99,1575.76 -1067.17,1575.12 -1089.40,1573.58 -1132.93,1570.56" fill="none" stroke="#bcbcbc" stroke-width="8" stroke-linecap="round" stroke-linejoin="round" /><polyline points="253.09,1528.20 261.05,1505.55 332.79,1306.70 419.08,1055.88 424.61,1040.15 428.46,1029.16 431.58,1020.14" fill="none" stroke="#bcbcbc" stroke-width="8" stroke-linecap="round" stroke-linejoin="round" /><polyline points="-1067.17,1575.12 -1069.00,1562.34 -1069.44,1548.45 -1066.71,1520.49 -1060.47,1469.43 -1056.30,1452.29 -1049.54,1390.33 -1048.31,1376.52 -1046.33,1358.78 -1044.86,1345.61 -1042.09,1330.67 -1036.95,1290.48 -1033.38,1259.74 -1028.14,1247.16" fill="none" stroke="#bcbcbc" stroke-width="8" stroke-linecap="round" stroke-linejoin="round" /><polyline points="-1140.59,1231.45 -1044.91,1244.82 -1028.14,1247.16 -1017.75,1248.82 -974.86,1255.65 -876.05,1271.40 -859.09,1274.22" fill="none" stroke="#bcbcbc" stroke-width="8" stroke-linecap="round" stroke-linejoin="round" /><polyline points="620.25,-23.74 620.87,-15.04 622.15,-6.23 625.26,0.51 631.08,8.03 641.84,17.83 667.34,33.34 864.06,156.76 985.22,319.20 1076.73,545.06 1082.70,559.98" fill="none" stroke="#bcbcbc" stroke-width="8" stroke-linecap="round" stroke-linejoin="round" /><polyline points="588.74,635.27 592.82,642.02 593.88,643.77 597.26,660.81 620.34,772.42 627.67,807.85 632.91,833.08 641.08,884.22 644.89,907.80 647.53,922.19 650.41,935.19 653.85,942.77 658.90,951.55 661.61,955.69 712.72,1028.87 740.37,1072.41 747.58,1082.81" fill="none" stroke="#bcbcbc" stroke-width="8" stroke-linecap="round" stroke-linejoin="round" /><polyline points="-878.63,2032.78 -875.91,2016.03 -873.39,2003.92 -872.71,2002.31 -838.69,1921.42 -817.01,1868.84 -810.42,1852.18 -803.45,1834.54 -795.87,1819.37 -794.64,1816.40 -784.27,1791.33 -776.25,1769.14 -769.37,1748.79 -765.00,1734.40 -760.11,1716.62 -754.47,1692.79 -750.18,1673.46 -745.06,1646.47 -743.98,1640.45 -740.54,1621.15" fill="none" stroke="#bcbcbc" stroke-width="8" stroke-linecap="round" stroke-linejoin="round" /><polyline points="769.67,-226.31 878.15,-150.50 892.77,-147.40 903.46,-135.16" fill="none" stroke="#bcbcbc" stroke-width="8" stroke-linecap="round" stroke-linejoin="round" /><polyline points="314.17,473.76 328.51,479.28 390.75,499.64 535.13,555.01 543.23,563.08 547.03,569.11" fill="none" stroke="#bcbcbc" stroke-width="8" stroke-linecap="round" stroke-linejoin="round" /><polyline points="583.22,1896.60 593.05,1870.97 641.59,1739.28 675.91,1639.78 683.02,1636.51" fill="none" stroke="#bcbcbc" stroke-width="8" stroke-linecap="round" stroke-linejoin="round" /><polyline points="-102.89,1729.61 -95.23,1712.68 -94.47,1711.01 -81.37,1667.05 -59.90,1594.69 -54.40,1576.17 -50.13,1561.79 -49.56,1553.41 -50.43,1534.85" fill="none" stroke="#bcbcbc" stroke-width="8" stroke-linecap="round" stroke-linejoin="round" /><polyline points="789.25,641.05 776.95,643.59 749.06,638.63 744.74,627.12 696.43,608.70 685.00,611.69 641.41,595.68 634.91,600.23" fill="none" stroke="#bcbcbc" stroke-width="8" stroke-linecap="round" stroke-linejoin="round" /><polyline points="717.51,-853.58 739.41,-848.22 751.52,-846.12 1039.54,-796.18" fill="none" stroke="#bcbcbc" stroke-width="8" stroke-linecap="round" stroke-linejoin="round" /><polyline points="493.65,1816.40 505.63,1782.62 528.91,1716.97 543.96,1689.01 565.61,1628.39 574.26,1604.19" fill="none" stroke="#bcbcbc" stroke-width="8" stroke-linecap="round" stroke-linejoin="round" /><polyline points="-1084.47,505.34 -1105.34,504.38 -1110.56,510.74 -1146.91,554.90 -1273.95,701.65 -1291.82,722.29" fill="none" stroke="#bcbcbc" stroke-width="8" stroke-linecap="round" stroke-linejoin="round" /><polyline points="29.86,631.03 20.66,651.42 19.54,653.89 -12.45,737.32 -44.71,829.17 -53.31,853.66 -58.18,866.31" fill="none" stroke="#bcbcbc" stroke-width="8" stroke-linecap="round" stroke-linejoin="round" /><polyline points="499.17,-306.45 509.34,-292.66 516.60,-273.70 527.89,-246.48 546.01,-203.67 562.07,-165.24 580.49,-123.04 594.17,-90.52 596.19,-85.85 596.31,-85.57 607.32,-59.84 610.60,-52.54 613.73,-45.58 617.03,-39.06 619.53,-32.43 620.25,-23.74" fill="none" stroke="#bcbcbc" stroke-width="8" stroke-linecap="round" stroke-linejoin="round" /><polyline points="-278.94,1042.32 -273.62,1039.41 -266.18,1033.50 -262.45,1025.83 -213.02,838.39 -211.53,827.82 -205.50,808.50" fill="none" stroke="#bcbcbc" stroke-width="8" stroke-linecap="round" stroke-linejoin="round" /><polyline points="1449.49,749.00 1456.50,771.26 1461.44,794.64 1451.83,883.73 1440.72,950.74 1434.66,973.60 1434.11,975.67 1428.80,988.01 1421.55,1001.09 1404.64,1022.48 1412.83,1064.30 1386.34,1154.07 1371.71,1203.65 1341.79,1284.80 1297.96,1383.60 1244.45,1478.29 1227.74,1509.06 1197.53,1559.62 1076.82,1730.94 1050.38,1766.58 947.96,1900.42 889.17,1967.32 806.93,2050.91 799.31,2051.69 780.74,2066.88" fill="none" stroke="#bcbcbc" stroke-width="8" stroke-linecap="round" stroke-linejoin="round" /><polyline points="-39.95,2214.49 -6.25,2109.99 -0.74,2092.73 6.75,2081.86 22.84,2033.56 28.08,2017.16 94.55,1809.02 101.24,1788.09 106.75,1769.69 185.20,1522.79" fill="none" stroke="#bcbcbc" stroke-width="8" stroke-linecap="round" stroke-linejoin="round" /><polyline points="749.40,270.96 778.53,239.13 787.12,228.78 845.98,145.41" fill="none" stroke="#bcbcbc" stroke-width="8" stroke-linecap="round" stroke-linejoin="round" /><polyline points="866.36,-271.54 903.46,-135.16 946.41,25.49 952.93,38.88 953.96,54.17 983.09,108.55 1061.69,255.13 1078.87,280.48 1083.84,287.90 1201.28,507.46 1255.25,556.53 1262.82,566.30 1273.50,575.43 1375.97,663.06 1382.93,669.00 1401.33,678.77" fill="none" stroke="#bcbcbc" stroke-width="8" stroke-linecap="round" stroke-linejoin="round" /><polyline points="467.82,2236.68 723.38,2088.22 768.88,2064.96 780.74,2066.88" fill="none" stroke="#bcbcbc" stroke-width="8" stroke-linecap="round" stroke-linejoin="round" /><polyline points="744.91,2024.29 760.77,2005.44 903.12,1721.39 912.55,1702.76 920.43,1684.32 966.41,1570.61 980.10,1536.35 1019.74,1416.40 1045.43,1262.19 1048.48,1239.74" fill="none" stroke="#bcbcbc" stroke-width="8" stroke-linecap="round" stroke-linejoin="round" /><polyline points="635.05,353.77 632.56,356.33 629.13,368.28 628.79,369.47 613.34,428.96 617.39,444.49 614.02,458.41 609.61,476.63 598.31,489.73 585.47,541.70 570.36,553.12 554.23,564.18 547.03,569.11" fill="none" stroke="#bcbcbc" stroke-width="8" stroke-linecap="round" stroke-linejoin="round" /><polyline points="29.86,631.03 36.43,614.20 75.92,512.95 84.54,490.87 91.63,472.69 142.09,343.40 164.81,289.34 167.20,283.57 184.86,240.88 224.48,142.51 238.98,100.63 242.21,91.03 246.55,80.14" fill="none" stroke="#bcbcbc" stroke-width="8" stroke-linecap="round" stroke-linejoin="round" /><polyline points="471.79,17.30 479.43,40.03 730.06,254.13 866.83,373.12 1071.11,550.71 1088.93,564.97 1096.92,569.96 1132.37,602.14 1179.71,642.52 1287.08,734.07 1321.76,763.89 1344.77,791.42" fill="none" stroke="#bcbcbc" stroke-width="8" stroke-linecap="round" stroke-linejoin="round" /><polyline points="886.19,-351.60 898.91,-359.75 974.22,-391.05 989.69,-407.34" fill="none" stroke="#bcbcbc" stroke-width="8" stroke-linecap="round" stroke-linejoin="round" /><polyline points="973.18,1553.68 869.20,1523.03 680.99,1467.67" fill="none" stroke="#bcbcbc" stroke-width="8" stroke-linecap="round" stroke-linejoin="round" /><polyline points="637.54,-658.05 651.74,-648.25 1114.55,-545.27" fill="none" stroke="#bcbcbc" stroke-width="8" stroke-linecap="round" stroke-linejoin="round" /><polyline points="1209.21,865.76 1185.29,812.54 1132.21,685.94 1128.25,675.88 1119.17,652.77 1084.96,565.71 1082.81,560.06" fill="none" stroke="#bcbcbc" stroke-width="8" stroke-linecap="round" stroke-linejoin="round" /><polyline points="499.17,-306.45 473.48,-313.76 454.60,-319.38 416.22,-330.78 396.73,-336.34 385.56,-339.44 370.97,-343.62" fill="none" stroke="#bcbcbc" stroke-width="8" stroke-linecap="round" stroke-linejoin="round" /><polyline points="-170.76,389.86 -172.06,385.60 -173.26,382.63 -178.55,369.47 -199.07,321.64 -218.57,273.05 -222.78,261.58 -227.63,248.37 -231.10,237.56 -236.83,221.35 -237.43,219.65 -256.08,173.67 -290.33,87.26 -298.02,82.88 -303.49,68.86 -314.41,30.91 -333.12,-16.12 -337.15,-26.81" fill="none" stroke="#bcbcbc" stroke-width="8" stroke-linecap="round" stroke-linejoin="round" /><polyline points="-6.25,2109.99 13.19,2115.95 76.12,2135.12 95.82,2141.13" fill="none" stroke="#bcbcbc" stroke-width="8" stroke-linecap="round" stroke-linejoin="round" /><polyline points="1168.78,-328.97 1172.45,-343.80 1170.96,-349.43 1169.16,-356.23 1157.67,-398.31 1132.06,-487.29 1118.55,-532.78 1114.55,-545.27 1078.83,-673.67 1059.55,-742.92 1039.54,-796.18 1021.47,-844.22 1003.48,-877.24 986.00,-894.70 851.78,-1058.71 841.85,-1070.38 835.27,-1081.17" fill="none" stroke="#bcbcbc" stroke-width="8" stroke-linecap="round" stroke-linejoin="round" /><polyline points="620.25,-23.74 613.33,-21.09 600.53,-17.56 599.25,-17.21 545.79,-3.54 484.33,13.77 471.79,17.30 466.20,19.08 451.43,23.82 438.81,27.33 383.70,42.67 293.06,68.42 259.27,76.96 246.55,80.14 186.15,94.97 148.84,105.37 69.82,127.44 -8.28,149.45 -17.32,151.96 -82.59,170.08 -112.70,178.44 -127.91,185.62 -156.69,199.89 -213.85,228.90 -217.83,230.92 -231.10,237.56 -239.19,241.61 -250.49,247.53 -290.64,268.59 -363.82,309.64 -424.94,341.66 -433.68,346.25 -445.36,346.97 -452.38,350.70 -453.78,351.45 -520.09,387.79 -533.97,387.72 -549.91,396.06 -555.48,398.98 -560.17,401.43 -571.26,407.23 -579.99,427.15 -617.52,447.25 -629.45,453.65 -642.36,460.67 -694.58,489.09 -721.57,503.78 -735.17,507.70" fill="none" stroke="#bcbcbc" stroke-width="8" stroke-linecap="round" stroke-linejoin="round" /><polyline points="1371.71,1203.65 1343.85,1206.20 1256.81,1214.17 1252.89,1214.53 1247.34,1215.04 1238.36,1215.87 1153.97,1223.62 1124.62,1220.89 1090.44,1229.46 1063.06,1236.17 1048.48,1239.74 1012.25,1241.12 980.89,1239.52 964.90,1237.83 951.30,1233.71 941.28,1228.17 903.96,1201.78 813.30,1139.51 804.75,1133.71 796.05,1127.81 789.54,1121.51" fill="none" stroke="#bcbcbc" stroke-width="8" stroke-linecap="round" stroke-linejoin="round" /><polyline points="-681.79,152.27 -648.89,216.68 -643.91,235.09 -616.20,287.97 -604.75,303.09 -558.44,393.22 -555.48,398.98" fill="none" stroke="#bcbcbc" stroke-width="8" stroke-linecap="round" stroke-linejoin="round" /><polyline points="326.39,725.06 321.46,738.60 320.08,742.81 313.66,762.29 272.96,875.85 252.75,932.24 252.06,934.17 243.95,951.70 239.29,962.11" fill="none" stroke="#bcbcbc" stroke-width="8" stroke-linecap="round" stroke-linejoin="round" /><polyline points="866.36,-271.54 861.85,-281.20 849.99,-282.76 811.62,-273.96 803.83,-274.97 797.72,-283.16 786.87,-333.08 845.66,-342.19 872.88,-350.22 886.19,-351.60 900.53,-300.63" fill="none" stroke="#bcbcbc" stroke-width="8" stroke-linecap="round" stroke-linejoin="round" /><polyline points="1078.87,280.48 1094.01,271.97 1170.09,226.13 1190.42,214.03 1226.00,192.81 1284.55,154.95 1298.21,145.12 1400.91,81.42" fill="none" stroke="#bcbcbc" stroke-width="8" stroke-linecap="round" stroke-linejoin="round" /><polyline points="1437.84,581.40 1411.88,573.66 1396.78,561.28 1339.10,511.36 1337.14,509.61 1323.19,497.16 1314.99,482.63 1170.09,226.13" fill="none" stroke="#bcbcbc" stroke-width="8" stroke-linecap="round" stroke-linejoin="round" /><polyline points="-197.49,561.07 29.86,631.03 48.41,636.91 218.07,690.70 221.62,691.82 247.04,699.88 259.53,703.85 275.77,708.28 309.26,719.63 326.39,725.06 341.81,729.95 468.07,770.00 601.36,811.88 612.38,815.34 627.67,807.85" fill="none" stroke="#bcbcbc" stroke-width="8" stroke-linecap="round" stroke-linejoin="round" /><polyline points="471.00,-561.41 569.49,-651.91 586.16,-667.23" fill="none" stroke="#bcbcbc" stroke-width="8" stroke-linecap="round" stroke-linejoin="round" /><polyline points="-1178.16,898.82 -816.78,937.56" fill="none" stroke="#bcbcbc" stroke-width="8" stroke-linecap="round" stroke-linejoin="round" /><polyline points="-88.00,-109.86 -12.04,-137.03 66.31,-165.35 114.98,-184.28 263.61,-238.33 306.74,-253.25 315.75,-256.37 326.55,-260.08 338.68,-264.26 340.17,-264.77 364.65,-274.61 375.29,-278.89" fill="none" stroke="#bcbcbc" stroke-width="8" stroke-linecap="round" stroke-linejoin="round" /><polyline points="422.14,1728.18 493.65,1816.40 537.43,1860.48 556.38,1874.12 583.22,1896.60 608.41,1917.76 630.07,1938.88 630.60,1949.62" fill="none" stroke="#bcbcbc" stroke-width="8" stroke-linecap="round" stroke-linejoin="round" /><polyline points="499.17,-306.45 527.20,-376.69 572.56,-492.35 637.54,-658.05 669.66,-736.54 717.51,-853.58 756.75,-949.46 763.77,-962.18 798.28,-1018.60 800.51,-1022.24 813.13,-1047.07 835.27,-1081.17 847.64,-1100.20 865.13,-1127.13" fill="none" stroke="#bcbcbc" stroke-width="8" stroke-linecap="round" stroke-linejoin="round" /><polyline points="-161.97,1571.73 -166.56,1575.40 -169.59,1579.77 -175.78,1598.00 -180.04,1611.16 -199.79,1670.20 -202.51,1678.72 -204.19,1684.01 -222.32,1678.81 -266.45,1664.02 -310.18,1649.35 -343.97,1647.44" fill="none" stroke="#bcbcbc" stroke-width="8" stroke-linecap="round" stroke-linejoin="round" /><polyline points="-1026.11,1982.59 -954.05,1796.49 -946.03,1776.23 -938.84,1756.71 -930.15,1733.14 -919.49,1696.04 -908.38,1649.95 -903.83,1616.92 -900.52,1592.93 -895.86,1575.22 -878.90,1442.15 -859.09,1274.22 -848.84,1194.17 -837.40,1100.12 -816.78,937.56 -813.51,909.92 -792.67,739.90 -792.66,730.44 -788.06,679.99 -774.77,573.44 -771.44,554.85 -767.96,544.43 -762.52,532.95 -757.24,524.04 -745.58,511.41 -735.15,507.83" fill="none" stroke="#bcbcbc" stroke-width="8" stroke-linecap="round" stroke-linejoin="round" /><polyline points="547.03,569.11 550.98,575.36 564.19,595.99 583.98,627.71 588.74,635.27 596.64,629.28 634.91,600.23" fill="none" stroke="#bcbcbc" stroke-width="8" stroke-linecap="round" stroke-linejoin="round" /><polyline points="572.56,-492.35 961.91,-421.96 1002.80,-400.44 1155.35,-324.82 1168.78,-328.97" fill="none" stroke="#bcbcbc" stroke-width="8" stroke-linecap="round" stroke-linejoin="round" /><polyline points="-170.76,389.86 -177.67,399.93 -239.79,430.25 -285.41,488.24 -334.64,518.72 -368.31,544.14 -400.43,570.35 -416.90,585.36 -445.99,622.26 -478.51,668.89 -483.87,677.52" fill="none" stroke="#bcbcbc" stroke-width="8" stroke-linecap="round" stroke-linejoin="round" /><polyline points="-105.09,431.45 -107.78,437.44 -113.67,446.05 -124.80,459.75 -190.42,542.64 -225.13,636.14 -400.35,570.27" fill="none" stroke="#bcbcbc" stroke-width="8" stroke-linecap="round" stroke-linejoin="round" /><polyline points="-368.31,544.14 -375.09,523.60 -404.41,434.83 -415.79,417.29 -434.84,360.12 -436.49,355.19 -433.68,346.25 -438.24,331.68 -529.86,39.14" fill="none" stroke="#bcbcbc" stroke-width="8" stroke-linecap="round" stroke-linejoin="round" /><polyline points="705.22,-1052.04 777.62,-1050.13 781.00,-1050.04 794.88,-1049.64 813.13,-1047.07" fill="none" stroke="#bcbcbc" stroke-width="8" stroke-linecap="round" stroke-linejoin="round" /><polyline points="332.79,1306.70 308.07,1306.40 98.72,1334.50 83.63,1336.09 66.38,1337.91 -33.79,1348.48 -168.76,1362.74 -240.31,1370.28 -279.89,1374.46 -312.02,1378.37 -328.53,1380.37 -347.11,1382.63 -436.90,1393.54 -458.42,1396.16 -524.73,1403.41 -878.90,1442.15" fill="none" stroke="#bcbcbc" stroke-width="8" stroke-linecap="round" stroke-linejoin="round" /><polyline points="22.84,2033.56 4.30,2027.59 -82.32,1999.71 -99.83,1994.07 -115.03,1989.19 -206.80,1959.69 -224.89,1953.87 -248.83,1946.17 -394.91,1899.16 -411.35,1893.87" fill="none" stroke="#bcbcbc" stroke-width="8" stroke-linecap="round" stroke-linejoin="round" /><polyline points="385.03,279.79 435.42,295.49 619.67,352.38 621.39,352.92 635.05,353.77" fill="none" stroke="#bcbcbc" stroke-width="8" stroke-linecap="round" stroke-linejoin="round" /><polyline points="903.46,-135.16 1154.10,-130.76" fill="none" stroke="#bcbcbc" stroke-width="8" stroke-linecap="round" stroke-linejoin="round" /><polyline points="780.74,2066.88 744.91,2024.29 729.88,2006.81 716.96,1994.74 699.76,1981.89 664.61,1960.80 630.60,1949.62 561.40,1928.25 504.80,1910.28 537.43,1860.48" fill="none" stroke="#bcbcbc" stroke-width="8" stroke-linecap="round" stroke-linejoin="round" /><polyline points="422.14,1728.18 372.25,1666.60 362.76,1654.89 312.51,1585.66 301.14,1564.52 303.87,1539.35 319.02,1539.20 356.39,1546.40 413.27,1557.34" fill="none" stroke="#bcbcbc" stroke-width="8" stroke-linecap="round" stroke-linejoin="round" /><polyline points="-230.50,1234.78 -221.30,1254.57 -168.76,1362.74 -90.63,1523.58 -80.66,1544.09" fill="none" stroke="#bcbcbc" stroke-width="8" stroke-linecap="round" stroke-linejoin="round" /><polyline points="-1072.05,1724.70 -1053.26,1732.39 -965.24,1768.37 -946.03,1776.23 -925.81,1784.49 -822.19,1826.87 -803.45,1834.54" fill="none" stroke="#bcbcbc" stroke-width="8" stroke-linecap="round" stroke-linejoin="round" /><polyline points="-187.26,1074.40 -3.89,1154.62" fill="none" stroke="#bcbcbc" stroke-width="8" stroke-linecap="round" stroke-linejoin="round" /><polyline points="635.05,353.77 662.98,355.24 664.76,356.82 677.29,367.94 695.71,384.38 699.11,391.00 762.60,446.59 767.29,455.46 811.93,494.86 823.17,498.29 857.90,528.70 865.67,532.26 918.04,576.68 929.70,587.02 936.14,597.26" fill="none" stroke="#bcbcbc" stroke-width="8" stroke-linecap="round" stroke-linejoin="round" /><polyline points="-1123.81,1074.58 -837.40,1100.12" fill="none" stroke="#bcbcbc" stroke-width="8" stroke-linecap="round" stroke-linejoin="round" /><polyline points="-484.31,2141.11 -475.44,2122.22 -473.16,2113.81 -460.72,2067.95 -415.66,1909.08 -411.35,1893.87 -406.79,1877.19 -386.38,1802.54 -351.91,1676.49 -343.97,1647.44" fill="none" stroke="#bcbcbc" stroke-width="8" stroke-linecap="round" stroke-linejoin="round" /><polyline points="-230.50,1234.78 -187.26,1074.40 -278.94,1042.32 -302.95,1056.50 -313.89,1064.82 -321.99,1075.78 -327.69,1090.25 -348.78,1168.19 -331.77,1176.85 -314.58,1181.02 -276.58,1190.92 -248.14,1199.97 -230.50,1234.78" fill="none" stroke="#bcbcbc" stroke-width="8" stroke-linecap="round" stroke-linejoin="round" /><polyline points="-348.78,1168.19 -368.86,1165.39 -837.40,1100.12" fill="none" stroke="#bcbcbc" stroke-width="8" stroke-linecap="round" stroke-linejoin="round" /><polyline points="413.27,1557.34 456.72,1566.83 574.26,1604.19 607.12,1614.58 685.12,1637.11 763.70,1659.77 821.88,1676.58 914.92,1703.44 934.13,1709.00 981.09,1724.74 1058.39,1745.33 1065.20,1746.61" fill="none" stroke="#bcbcbc" stroke-width="8" stroke-linecap="round" stroke-linejoin="round" /><polyline points="468.39,2236.35 452.53,2240.33 435.39,2288.11 408.80,2280.56 287.92,2239.36 273.37,2236.25 241.00,2233.94 94.60,2234.52 62.33,2230.41 -10.55,2219.27 -39.95,2214.50 -248.45,2180.87 -329.19,2167.98 -483.17,2141.31 -508.03,2136.38 -855.53,2039.25 -877.46,2033.11 -1026.11,1982.59 -1062.68,1969.61 -1154.03,1931.75 -1206.10,1912.05" fill="none" stroke="#bcbcbc" stroke-width="8" stroke-linecap="round" stroke-linejoin="round" /><polyline points="786.87,-333.08 771.82,-336.18 570.98,-312.44 499.17,-306.45" fill="none" stroke="#bcbcbc" stroke-width="8" stroke-linecap="round" stroke-linejoin="round" /><polyline points="413.27,1557.34 420.30,1545.56 462.45,1437.31 509.54,1273.64 521.55,1238.38 527.98,1228.79 573.44,1082.85 575.70,1065.42 577.42,1054.03" fill="none" stroke="#bcbcbc" stroke-width="8" stroke-linecap="round" stroke-linejoin="round" /><polyline points="620.25,-23.74 625.05,-25.57 631.55,-30.74 641.43,-42.30 769.67,-226.31 803.83,-274.98" fill="none" stroke="#bcbcbc" stroke-width="8" stroke-linecap="round" stroke-linejoin="round" /><polyline points="1191.01,652.22 1193.63,644.67 1258.09,568.82 1262.82,566.30 1274.02,550.98 1311.53,507.90 1323.19,497.16" fill="none" stroke="#bcbcbc" stroke-width="8" stroke-linecap="round" stroke-linejoin="round" /><polyline points="1247.34,1215.04 1246.45,1204.90 1245.76,1197.04 1242.36,1182.03 1238.30,1172.24 1233.24,1146.52 1232.78,1137.21 1229.34,1116.38 1214.00,1108.37 1201.74,1113.06 1179.79,1118.31 1162.42,1121.03 1145.75,1125.05 1122.75,1130.29 1112.26,1132.69" fill="none" stroke="#bcbcbc" stroke-width="8" stroke-linecap="round" stroke-linejoin="round" /><polyline points="-446.28,842.58 -399.40,732.68 -396.79,725.54" fill="none" stroke="#bcbcbc" stroke-width="8" stroke-linecap="round" stroke-linejoin="round" /><polyline points="789.25,641.05 811.85,632.30 823.67,627.72 832.80,618.47 870.47,609.19 883.12,612.41 910.38,605.38 931.18,600.02 936.14,597.26 956.31,592.32 1059.43,567.05 1082.81,560.06" fill="none" stroke="#bcbcbc" stroke-width="8" stroke-linecap="round" stroke-linejoin="round" /><polyline points="-161.97,1571.73 -113.32,1554.06 -97.05,1549.09 -80.66,1544.09 -50.43,1534.85 -26.91,1531.47 53.41,1522.68 69.55,1521.80 141.42,1522.42 185.20,1522.79 201.66,1521.95 228.03,1524.62 236.28,1525.80 253.09,1528.20 303.87,1539.35" fill="none" stroke="#bcbcbc" stroke-width="8" stroke-linecap="round" stroke-linejoin="round" /><polyline points="69.82,127.44 61.76,100.19 31.83,-1.02 -4.53,-116.43 -12.04,-137.03 -19.66,-156.34 -29.30,-184.16" fill="none" stroke="#bcbcbc" stroke-width="8" stroke-linecap="round" stroke-linejoin="round" /><polyline points="-17.24,1759.35 -10.85,1739.16 53.82,1535.22 53.41,1522.68" fill="none" stroke="#bcbcbc" stroke-width="8" stroke-linecap="round" stroke-linejoin="round" /><polyline points="69.55,1521.80 82.35,1350.09 83.63,1336.09 85.59,1319.80 85.63,1319.06 86.47,1299.15 90.74,1245.09 93.15,1219.92 96.44,1191.32 99.45,1170.73 102.14,1157.80 105.53,1148.03 112.18,1126.01 125.92,1080.17 143.38,1020.98 162.65,960.47 166.57,948.12 169.73,939.18" fill="none" stroke="#bcbcbc" stroke-width="8" stroke-linecap="round" stroke-linejoin="round" /><polyline points="-348.78,1168.19 -352.19,1183.41 -351.60,1188.27 -330.74,1361.98 -328.53,1380.37 -329.49,1399.30 -334.95,1507.34 -337.24,1552.47 -338.41,1575.75 -340.51,1617.25 -341.61,1638.86 -343.97,1647.44" fill="none" stroke="#bcbcbc" stroke-width="8" stroke-linecap="round" stroke-linejoin="round" /><polyline points="-446.28,842.58 -522.14,820.03 -531.78,813.85 -578.99,800.09 -592.25,800.23 -651.57,782.36 -661.15,775.29 -715.13,758.93 -781.36,740.88 -781.69,740.85 -792.67,739.90" fill="none" stroke="#bcbcbc" stroke-width="8" stroke-linecap="round" stroke-linejoin="round" /><polyline points="936.14,597.26 938.77,600.72 949.77,617.11 970.11,647.42 989.25,666.60 1026.04,707.91 1019.82,746.08 1016.67,760.40 1012.28,766.45 1021.50,780.10 1035.77,809.47 1064.30,864.50 1078.34,891.60 1087.08,915.96 1091.02,927.27" fill="none" stroke="#bcbcbc" stroke-width="8" stroke-linecap="round" stroke-linejoin="round" /><polyline points="1128.25,675.88 1117.68,679.17 1048.02,700.85 1038.03,704.06 1026.04,707.91" fill="none" stroke="#bcbcbc" stroke-width="8" stroke-linecap="round" stroke-linejoin="round" /><polyline points="627.67,807.85 649.45,800.78 807.57,720.04 828.73,709.70 903.26,688.18 975.51,667.86 989.25,666.60" fill="none" stroke="#bcbcbc" stroke-width="8" stroke-linecap="round" stroke-linejoin="round" /><polyline points="644.89,907.80 827.18,822.97 834.86,817.89 852.68,812.71 974.15,777.36 992.58,770.31 1012.28,766.45" fill="none" stroke="#bcbcbc" stroke-width="8" stroke-linecap="round" stroke-linejoin="round" /><polyline points="607.70,-870.64 681.49,-861.52 688.90,-860.61 717.51,-853.58" fill="none" stroke="#bcbcbc" stroke-width="8" stroke-linecap="round" stroke-linejoin="round" /><polyline points="1238.28,-120.41 1251.37,-123.14 1300.27,-99.17 1306.71,-92.80 1398.49,62.58 1400.91,81.42 1412.84,91.36 1410.95,98.23 1410.66,109.43 1412.31,125.09 1436.62,225.00 1438.77,294.20 1442.18,404.69 1447.89,553.41 1424.61,618.21 1409.62,657.72 1387.72,713.40 1381.38,729.50 1377.27,734.00 1370.65,777.08" fill="none" stroke="#bcbcbc" stroke-width="8" stroke-linecap="round" stroke-linejoin="round" /><polyline points="1407.98,1039.54 1385.65,1029.82 1329.87,990.89 1256.27,939.18 1215.80,906.44 1188.49,877.19" fill="none" stroke="#bcbcbc" stroke-width="8" stroke-linecap="round" stroke-linejoin="round" /><polyline points="504.80,1910.28 482.88,1903.33 447.30,1892.05 430.33,1886.67 410.39,1880.35 385.19,1872.36 362.41,1865.14 339.89,1857.99 239.47,1826.13 221.88,1820.55 200.04,1813.63 195.22,1812.10 137.79,1796.93 121.57,1793.00 101.24,1788.09 79.97,1782.93 3.31,1764.34 -17.24,1759.35 -39.33,1751.68 -85.49,1735.65 -102.89,1729.61 -118.44,1724.56 -190.71,1698.86 -199.82,1693.44 -204.19,1684.01" fill="none" stroke="#bcbcbc" stroke-width="8" stroke-linecap="round" stroke-linejoin="round" /><polyline points="834.86,817.89 829.53,798.81 813.67,741.92 807.57,720.04 798.75,703.69 797.93,700.66 792.73,681.40 798.78,672.87 791.51,648.59 789.25,641.05" fill="none" stroke="#bcbcbc" stroke-width="8" stroke-linecap="round" stroke-linejoin="round" /><polyline points="808.33,121.72 823.41,114.62 905.82,69.18 952.93,38.88 986.15,16.22 993.49,10.75 1020.23,-7.83 1047.94,-28.30 1065.48,-41.07 1086.40,-56.37 1159.10,-89.17 1168.53,-88.67 1182.31,-95.19 1238.28,-120.41" fill="none" stroke="#bcbcbc" stroke-width="8" stroke-linecap="round" stroke-linejoin="round" /><polyline points="-105.09,431.45 -93.20,436.28 -85.34,438.69 62.03,483.96 84.54,490.87" fill="none" stroke="#bcbcbc" stroke-width="8" stroke-linecap="round" stroke-linejoin="round" /><polyline points="-1157.73,762.87 -1263.02,731.01" fill="none" stroke="#bcbcbc" stroke-width="8" stroke-linecap="round" stroke-linejoin="round" /><polyline points="542.98,-721.93 569.09,-688.86 572.99,-683.92 586.16,-667.23 601.18,-665.46 632.06,-661.84 637.54,-658.05" fill="none" stroke="#bcbcbc" stroke-width="8" stroke-linecap="round" stroke-linejoin="round" /><polyline points="1449.49,749.00 1408.12,756.72 1365.70,779.77 1326.39,801.65 1289.20,820.25 1244.27,844.65 1211.73,864.41 1147.43,898.89 896.42,1025.17 831.34,1053.84 788.34,1072.44 767.04,1079.41 749.41,1082.70 720.55,1084.45 679.49,1078.64 577.04,1054.03 431.58,1020.14 240.23,962.42 169.73,939.18 54.29,903.54 -56.11,867.12 -218.02,803.59 -298.98,768.73 -396.60,725.34 -558.51,636.63 -596.48,611.45 -692.54,551.02 -732.83,510.74 -793.26,432.49 -892.81,329.84 -931.93,295.36" fill="none" stroke="#bcbcbc" stroke-width="8" stroke-linecap="round" stroke-linejoin="round" /><polyline points="664.61,1960.80 666.31,1951.34 672.43,1935.88 729.85,1801.53 751.54,1751.16 777.11,1688.40 783.34,1665.44" fill="none" stroke="#bcbcbc" stroke-width="8" stroke-linecap="round" stroke-linejoin="round" /><polyline points="-436.90,1393.54 -502.13,1361.97 -650.54,1290.14 -832.59,1202.03 -848.84,1194.17" fill="none" stroke="#bcbcbc" stroke-width="8" stroke-linecap="round" stroke-linejoin="round" /><polyline points="635.05,353.77 651.52,336.91 695.31,292.08 730.06,254.13" fill="none" stroke="#bcbcbc" stroke-width="8" stroke-linecap="round" stroke-linejoin="round" /><polyline points="-629.45,453.65 -647.54,429.69 -732.33,317.43 -853.36,219.49" fill="none" stroke="#bcbcbc" stroke-width="8" stroke-linecap="round" stroke-linejoin="round" /><polyline points="-1154.68,1931.48 -1138.13,1892.23 -1085.51,1761.03 -1079.13,1743.81 -1072.05,1724.70 -1069.37,1717.81 -1068.66,1707.01 -1061.92,1605.02 -1059.99,1575.76" fill="none" stroke="#bcbcbc" stroke-width="8" stroke-linecap="round" stroke-linejoin="round" /><polyline points="-1190.58,876.82 -1157.73,762.87 -1114.39,612.58 -1109.02,593.98 -1103.06,572.85 -1089.70,525.53 -1088.30,520.56 -1084.47,505.34 -1078.37,488.14 -1076.89,483.97 -1069.19,464.88 -1054.07,431.51 -1049.54,421.93" fill="none" stroke="#bcbcbc" stroke-width="8" stroke-linecap="round" stroke-linejoin="round" /><polyline points="-1109.02,593.98 -1042.55,610.98 -901.74,647.18 -821.52,672.15 -788.06,679.99" fill="none" stroke="#bcbcbc" stroke-width="8" stroke-linecap="round" stroke-linejoin="round" /><polyline points="259.27,76.96 261.53,63.13 263.80,48.76 273.56,0.72 297.92,-111.11 317.93,-211.15 321.59,-231.90 326.55,-260.08 326.56,-260.11" fill="none" stroke="#bcbcbc" stroke-width="8" stroke-linecap="round" stroke-linejoin="round" /><polyline points="62.46,2230.43 92.14,2154.73 95.82,2141.13 213.61,1842.12 221.88,1820.55 228.58,1802.25 298.96,1597.48 312.51,1585.65" fill="none" stroke="#bcbcbc" stroke-width="8" stroke-linecap="round" stroke-linejoin="round" /><polyline points="466.20,19.08 466.19,19.05 462.02,-2.85 461.37,-5.51 451.19,-46.89 451.20,-47.02 444.26,-75.08 414.87,-175.81 411.17,-186.60 391.32,-240.56 384.86,-256.67 380.70,-267.06 375.30,-278.87 375.29,-278.89 375.29,-278.94 371.35,-322.32 370.97,-343.62" fill="none" stroke="#bcbcbc" stroke-width="8" stroke-linecap="round" stroke-linejoin="round" /><polyline points="422.14,1728.18 414.59,1736.35 403.32,1749.75 371.59,1839.23 362.41,1865.14" fill="none" stroke="#bcbcbc" stroke-width="8" stroke-linecap="round" stroke-linejoin="round" /><polyline points="-105.09,431.45 -100.75,419.71 -99.78,416.98 -79.17,359.42 -71.44,335.17 -8.28,149.45" fill="none" stroke="#bcbcbc" stroke-width="8" stroke-linecap="round" stroke-linejoin="round" /><polyline points="221.62,691.82 228.06,674.70 245.51,628.34 252.89,608.74 257.89,595.48 271.89,558.27 281.14,533.70 282.39,530.39 304.80,470.86 314.17,473.76 319.25,459.94 328.23,435.49 326.51,424.38 350.35,359.47 352.80,352.80 357.32,348.64 361.12,345.15 385.03,279.79 388.49,261.89 422.80,166.58 430.91,160.23 447.41,113.53 444.48,106.37 458.93,62.76 451.43,23.82" fill="none" stroke="#bcbcbc" stroke-width="8" stroke-linecap="round" stroke-linejoin="round" /><polyline points="835.27,-1081.17 825.66,-1096.94 775.15,-1179.81" fill="none" stroke="#bcbcbc" stroke-width="8" stroke-linecap="round" stroke-linejoin="round" /><polyline points="993.49,10.75 1225.29,159.81 1225.35,159.92 1225.35,159.94 1268.22,165.51" fill="none" stroke="#bcbcbc" stroke-width="8" stroke-linecap="round" stroke-linejoin="round" /><polyline points="900.53,-300.63 1147.16,-176.83 1154.60,-171.28 1154.10,-130.76 1159.10,-89.17" fill="none" stroke="#bcbcbc" stroke-width="8" stroke-linecap="round" stroke-linejoin="round" /><polyline points="430.33,1886.67 421.45,1913.73 385.52,2023.33 324.40,2207.91 320.06,2221.00 315.67,2234.27 314.44,2248.40" fill="none" stroke="#bcbcbc" stroke-width="8" stroke-linecap="round" stroke-linejoin="round" /><polyline points="1124.62,1220.89 1126.10,1207.14 1126.41,1194.31 1126.31,1193.87 1117.57,1156.09 1113.99,1140.30 1112.26,1132.69 1110.49,1124.90 1100.90,1082.64 1082.16,998.18 1068.54,947.40 1066.61,939.55" fill="none" stroke="#bcbcbc" stroke-width="8" stroke-linecap="round" stroke-linejoin="round" /><polyline points="-99.83,1994.07 -93.72,1976.70 -25.04,1781.51 -17.24,1759.35" fill="none" stroke="#bcbcbc" stroke-width="8" stroke-linecap="round" stroke-linejoin="round" /><polyline points="1442.18,404.69 1421.97,398.99 1284.76,188.43 1268.22,165.51" fill="none" stroke="#bcbcbc" stroke-width="8" stroke-linecap="round" stroke-linejoin="round" /><polyline points="-813.51,909.92 -313.42,1029.73 -278.94,1042.32" fill="none" stroke="#bcbcbc" stroke-width="8" stroke-linecap="round" stroke-linejoin="round" /><polyline points="763.77,-962.18 958.57,-890.01 986.00,-894.70" fill="none" stroke="#bcbcbc" stroke-width="8" stroke-linecap="round" stroke-linejoin="round" />
    <polyline points="167.20,283.57 247.42,311.50 251.85,318.70 274.62,326.34 288.14,330.96 352.80,352.80" fill="none" stroke="#ffffff" stroke-width="16" stroke-linecap="round" stroke-linejoin="round" />
    <polyline points="167.20,283.57 247.42,311.50 251.85,318.70 274.62,326.34 288.14,330.96 352.80,352.80" fill="none" stroke="#111111" stroke-width="9" stroke-linecap="round" stroke-linejoin="round" />
    
            <g transform="translate(167.20,283.57)">
              <circle r="19" fill="#ffffff" stroke="#111111" stroke-width="4" />
              <text text-anchor="middle" dominant-baseline="central" font-family="Helvetica, Arial, sans-serif"
                font-size="18" font-weight="700" fill="#111111">1</text>
            </g>
            
            <g transform="translate(352.80,352.80)">
              <circle r="19" fill="#ffffff" stroke="#111111" stroke-width="4" />
              <text text-anchor="middle" dominant-baseline="central" font-family="Helvetica, Arial, sans-serif"
                font-size="18" font-weight="700" fill="#111111">2</text>
            </g>
            
  </g>
</svg>
