<svg xmlns="http://www.w3.org/2000/svg" width="520" height="520" viewBox="0 0 520 520">
  <rect width="100%" height="100%" fill="#ffffff" />
  <g>
    <polyline points="239.84,196.72 240.74,201.53 246.58,242.35 245.68,252.56" fill="none" stroke="#bcbcbc" stroke-width="8" stroke-linecap="round" stroke-linejoin="round" /><polyline points="121.23,536.91 122.64,532.57 130.12,509.58 131.00,506.87 131.89,504.03 150.68,444.09 152.20,439.27 148.73,430.74" fill="none" stroke="#bcbcbc" stroke-width="8" stroke-linecap="round" stroke-linejoin="round" /><polyline points="-8.60,483.60 -8.91,480.15 -2.76,445.74 -1.90,441.43 -1.26,439.18 0.43,430.45 2.34,419.76 4.41,410.35 6.46,400.97 7.75,398.32 8.60,396.70" fill="none" stroke="#bcbcbc" stroke-width="8" stroke-linecap="round" stroke-linejoin="round" /><polyline points="27.06,240.81 25.60,236.36 10.50,190.30 9.77,188.37" fill="none" stroke="#bcbcbc" stroke-width="8" stroke-linecap="round" stroke-linejoin="round" /><polyline points="-50.42,646.18 -49.97,641.79 -49.79,639.77 -48.15,621.58 -46.35,605.57 -45.93,601.83 -45.53,597.35 -45.49,596.97 -44.47,588.05 -43.59,578.99 -42.62,570.24 -41.97,563.43 -41.70,559.22 -41.46,555.34 -41.03,550.97" fill="none" stroke="#bcbcbc" stroke-width="8" stroke-linecap="round" stroke-linejoin="round" /><polyline points="158.24,547.60 159.31,544.22 166.89,520.39 167.75,517.69 168.98,513.83 169.85,511.07 176.56,482.14" fill="none" stroke="#bcbcbc" stroke-width="8" stroke-linecap="round" stroke-linejoin="round" /><polyline points="128.78,76.38 131.58,76.81 208.69,88.66" fill="none" stroke="#bcbcbc" stroke-width="8" stroke-linecap="round" stroke-linejoin="round" /><polyline points="-69.18,541.98 -77.21,541.61 -82.10,541.38 -84.76,541.26 -87.09,541.15 -105.27,540.31 -130.55,539.13 -142.60,537.42 -146.63,536.85 -150.13,536.23 -173.83,532.05 -177.14,531.46 -177.88,531.34 -181.97,530.64 -185.12,530.10 -205.20,528.32 -209.02,527.98 -210.43,527.86 -214.77,527.56 -223.27,526.97" fill="none" stroke="#bcbcbc" stroke-width="8" stroke-linecap="round" stroke-linejoin="round" /><polyline points="47.43,518.70 48.98,514.27 62.99,475.44 79.84,426.45 80.92,423.38 81.68,421.23 82.29,419.47" fill="none" stroke="#bcbcbc" stroke-width="8" stroke-linecap="round" stroke-linejoin="round" /><polyline points="-210.43,527.86 -210.78,525.36 -210.87,522.65 -210.34,517.19 -209.12,507.22 -208.30,503.87 -206.98,491.77 -206.74,489.07 -206.35,485.61 -206.07,483.04 -205.53,480.12 -204.52,472.27 -203.83,466.26 -202.80,463.81" fill="none" stroke="#bcbcbc" stroke-width="8" stroke-linecap="round" stroke-linejoin="round" /><polyline points="-224.76,460.74 -206.08,463.35 -202.80,463.81 -200.77,464.13 -192.40,465.47 -173.10,468.54 -169.79,469.09" fill="none" stroke="#bcbcbc" stroke-width="8" stroke-linecap="round" stroke-linejoin="round" /><polyline points="119.13,215.60 119.25,217.30 119.50,219.02 120.11,220.33 121.25,221.80 123.35,223.72 128.33,226.74 166.75,250.85 190.41,282.58 208.28,326.69 209.45,329.60" fill="none" stroke="#bcbcbc" stroke-width="8" stroke-linecap="round" stroke-linejoin="round" /><polyline points="112.98,344.30 113.78,345.62 113.98,345.96 114.64,349.29 119.15,371.09 120.58,378.01 121.60,382.94 123.20,392.92 123.95,397.53 124.46,400.34 125.02,402.88 125.70,404.36 126.68,406.07 127.21,406.88 137.19,421.17 142.59,429.68 144.00,431.71" fill="none" stroke="#bcbcbc" stroke-width="8" stroke-linecap="round" stroke-linejoin="round" /><polyline points="-173.60,617.24 -173.07,613.97 -172.58,611.61 -172.45,611.29 -165.80,595.49 -161.57,585.22 -160.28,581.97 -158.92,578.52 -157.44,575.56 -157.20,574.98 -155.17,570.09 -153.61,565.75 -152.26,561.78 -151.41,558.97 -150.46,555.50 -149.35,550.84 -148.52,547.07 -147.52,541.79 -147.31,540.62 -146.63,536.85" fill="none" stroke="#bcbcbc" stroke-width="8" stroke-linecap="round" stroke-linejoin="round" /><polyline points="148.32,176.03 169.50,190.84 172.36,191.45 174.45,193.84" fill="none" stroke="#bcbcbc" stroke-width="8" stroke-linecap="round" stroke-linejoin="round" /><polyline points="59.36,312.76 62.15,313.84 74.31,317.81 102.51,328.63 104.09,330.21 104.83,331.38" fill="none" stroke="#bcbcbc" stroke-width="8" stroke-linecap="round" stroke-linejoin="round" /><polyline points="111.90,590.65 113.82,585.64 123.30,559.92 130.00,540.49 131.39,539.85" fill="none" stroke="#bcbcbc" stroke-width="8" stroke-linecap="round" stroke-linejoin="round" /><polyline points="-22.10,558.03 -20.60,554.73 -20.45,554.40 -17.89,545.81 -13.70,531.68 -12.63,528.07 -11.79,525.26 -11.68,523.62 -11.85,520.00" fill="none" stroke="#bcbcbc" stroke-width="8" stroke-linecap="round" stroke-linejoin="round" /><polyline points="152.14,345.43 149.74,345.93 144.29,344.96 143.45,342.71 134.01,339.12 131.78,339.70 123.27,336.57 122.00,337.46" fill="none" stroke="#bcbcbc" stroke-width="8" stroke-linecap="round" stroke-linejoin="round" /><polyline points="138.13,53.53 142.40,54.57 144.77,54.98 201.02,64.74" fill="none" stroke="#bcbcbc" stroke-width="8" stroke-linecap="round" stroke-linejoin="round" /><polyline points="94.41,574.98 96.75,568.39 101.30,555.56 104.23,550.10 108.46,538.26 110.15,533.54" fill="none" stroke="#bcbcbc" stroke-width="8" stroke-linecap="round" stroke-linejoin="round" /><polyline points="-213.80,318.93 -217.88,318.74 -218.90,319.98 -226.00,328.61 -250.81,357.27 -254.30,361.30" fill="none" stroke="#bcbcbc" stroke-width="8" stroke-linecap="round" stroke-linejoin="round" /><polyline points="3.83,343.48 2.03,347.46 1.81,347.94 -4.44,364.24 -10.73,382.17 -12.41,386.96 -13.37,389.43" fill="none" stroke="#bcbcbc" stroke-width="8" stroke-linecap="round" stroke-linejoin="round" /><polyline points="95.49,160.38 97.47,163.08 98.89,166.78 101.10,172.10 104.63,180.46 107.77,187.96 111.37,196.20 114.04,202.55 114.43,203.47 114.46,203.52 116.61,208.55 117.25,209.97 117.86,211.33 118.51,212.61 118.99,213.90 119.13,215.60" fill="none" stroke="#bcbcbc" stroke-width="8" stroke-linecap="round" stroke-linejoin="round" /><polyline points="-56.48,423.80 -55.44,423.23 -53.99,422.08 -53.26,420.58 -43.61,383.97 -43.32,381.91 -42.14,378.14" fill="none" stroke="#bcbcbc" stroke-width="8" stroke-linecap="round" stroke-linejoin="round" /><polyline points="281.09,366.52 282.46,370.86 283.42,375.43 281.54,392.83 279.37,405.92 278.19,410.38 278.08,410.79 277.04,413.19 275.63,415.75 272.33,419.93 273.93,428.10 268.75,445.63 265.90,455.31 260.05,471.16 251.49,490.46 241.04,508.95 237.78,514.96 231.88,524.83 208.30,558.29 203.14,565.25 183.14,591.39 171.65,604.46 155.59,620.78 154.10,620.94 150.48,623.90" fill="none" stroke="#bcbcbc" stroke-width="8" stroke-linecap="round" stroke-linejoin="round" /><polyline points="-9.81,652.73 -3.23,632.32 -2.15,628.95 -0.69,626.83 2.46,617.40 3.48,614.19 16.46,573.54 17.77,569.45 18.85,565.86 34.17,517.64" fill="none" stroke="#bcbcbc" stroke-width="8" stroke-linecap="round" stroke-linejoin="round" /><polyline points="144.36,273.15 150.05,266.94 151.72,264.91 163.22,248.63" fill="none" stroke="#bcbcbc" stroke-width="8" stroke-linecap="round" stroke-linejoin="round" /><polyline points="30.65,275.62 46.32,281.07 47.18,282.48 51.63,283.97 54.27,284.87 66.90,289.14" fill="none" stroke="#bcbcbc" stroke-width="8" stroke-linecap="round" stroke-linejoin="round" /><polyline points="89.36,657.06 139.28,628.07 148.16,623.53 150.48,623.90" fill="none" stroke="#bcbcbc" stroke-width="8" stroke-linecap="round" stroke-linejoin="round" /><polyline points="143.48,615.59 146.58,611.90 174.38,556.43 176.22,552.79 177.76,549.19 186.74,526.98 189.41,520.29 197.15,496.86 202.17,466.74 202.77,462.36" fill="none" stroke="#bcbcbc" stroke-width="8" stroke-linecap="round" stroke-linejoin="round" /><polyline points="122.02,289.33 121.54,289.83 120.87,292.16 120.80,292.39 117.78,304.01 118.57,307.04 117.92,309.76 117.06,313.32 114.85,315.88 112.34,326.03 109.39,328.26 106.24,330.42 104.83,331.38" fill="none" stroke="#bcbcbc" stroke-width="8" stroke-linecap="round" stroke-linejoin="round" /><polyline points="3.83,343.48 5.11,340.19 12.82,320.41 14.51,316.10 15.89,312.55 25.75,287.30 30.18,276.74 30.65,275.62 34.10,267.28 41.84,248.07 44.67,239.89 45.30,238.01 46.15,235.88" fill="none" stroke="#bcbcbc" stroke-width="8" stroke-linecap="round" stroke-linejoin="round" /><polyline points="90.14,223.61 91.63,228.05 140.58,269.87 167.29,293.10 207.19,327.79 210.67,330.57 212.23,331.55 219.15,337.83 228.40,345.72 249.37,363.60 256.14,369.42 260.63,374.80" fill="none" stroke="#bcbcbc" stroke-width="8" stroke-linecap="round" stroke-linejoin="round" /><polyline points="171.07,151.56 173.56,149.97 188.26,143.86 191.29,140.68" fill="none" stroke="#bcbcbc" stroke-width="8" stroke-linecap="round" stroke-linejoin="round" /><polyline points="188.06,523.67 167.75,517.69 131.00,506.87" fill="none" stroke="#bcbcbc" stroke-width="8" stroke-linecap="round" stroke-linejoin="round" /><polyline points="122.51,91.71 125.28,93.63 215.67,113.74" fill="none" stroke="#bcbcbc" stroke-width="8" stroke-linecap="round" stroke-linejoin="round" /><polyline points="234.16,389.32 229.49,378.93 219.12,354.20 218.35,352.24 216.57,347.72 209.89,330.72 209.47,329.62" fill="none" stroke="#bcbcbc" stroke-width="8" stroke-linecap="round" stroke-linejoin="round" /><polyline points="95.49,160.38 90.47,158.95 86.78,157.86 79.29,155.63 75.48,154.54 73.30,153.94 70.45,153.12" fill="none" stroke="#bcbcbc" stroke-width="8" stroke-linecap="round" stroke-linejoin="round" /><polyline points="-35.35,296.37 -35.61,295.54 -35.84,294.96 -36.88,292.39 -40.88,283.05 -44.69,273.56 -45.51,271.32 -46.46,268.74 -47.14,266.63 -48.26,263.46 -48.37,263.13 -52.02,254.15 -58.71,237.28 -60.21,236.42 -61.28,233.68 -63.41,226.27 -67.06,217.08 -67.85,215.00" fill="none" stroke="#bcbcbc" stroke-width="8" stroke-linecap="round" stroke-linejoin="round" /><polyline points="-3.23,632.32 0.57,633.49 12.86,637.23 16.71,638.40" fill="none" stroke="#bcbcbc" stroke-width="8" stroke-linecap="round" stroke-linejoin="round" /><polyline points="226.26,155.98 226.98,153.09 226.69,151.99 226.34,150.66 224.09,142.44 219.09,125.06 216.45,116.18 215.67,113.74 208.69,88.66 204.93,75.14 201.02,64.74 197.49,55.36 193.98,48.90 190.56,45.50 164.35,13.46 162.41,11.18 161.13,9.08" fill="none" stroke="#bcbcbc" stroke-width="8" stroke-linecap="round" stroke-linejoin="round" /><polyline points="119.13,215.60 117.78,216.11 115.28,216.80 115.03,216.87 104.59,219.54 92.59,222.92 90.14,223.61 89.05,223.96 86.16,224.89 83.70,225.57 72.93,228.57 55.23,233.60 48.63,235.26 46.15,235.88 34.35,238.78 27.06,240.81 11.63,245.12 -3.62,249.42 -5.39,249.91 -18.13,253.45 -24.01,255.08 -26.98,256.49 -32.61,259.27 -43.77,264.94 -44.55,265.33 -47.14,266.63 -48.72,267.42 -50.92,268.58 -58.77,272.69 -73.06,280.71 -85.00,286.96 -86.70,287.86 -88.98,288.00 -90.35,288.73 -90.63,288.87 -103.58,295.97 -106.29,295.96 -109.40,297.59 -110.49,298.15 -111.41,298.63 -113.57,299.77 -115.28,303.66 -122.61,307.58 -124.94,308.83 -127.46,310.20 -137.66,315.75 -142.93,318.62 -145.59,319.39" fill="none" stroke="#bcbcbc" stroke-width="8" stroke-linecap="round" stroke-linejoin="round" /><polyline points="265.90,455.31 260.45,455.81 243.46,457.37 242.69,457.44 241.61,457.54 239.85,457.70 223.37,459.21 217.64,458.68 210.96,460.35 205.62,461.66 202.77,462.36 195.69,462.63 189.57,462.32 186.45,461.99 183.79,461.18 181.83,460.10 174.54,454.95 156.84,442.78 155.17,441.65 153.47,440.50 152.20,439.27" fill="none" stroke="#bcbcbc" stroke-width="8" stroke-linecap="round" stroke-linejoin="round" /><polyline points="-135.16,249.97 -128.73,262.55 -127.76,266.15 -122.35,276.47 -120.11,279.43 -111.07,297.03 -110.49,298.15" fill="none" stroke="#bcbcbc" stroke-width="8" stroke-linecap="round" stroke-linejoin="round" /><polyline points="61.74,361.84 60.78,364.49 60.51,365.31 59.25,369.11 51.31,391.29 47.36,402.30 47.23,402.68 45.64,406.10 44.73,408.14" fill="none" stroke="#bcbcbc" stroke-width="8" stroke-linecap="round" stroke-linejoin="round" /><polyline points="167.20,167.20 166.32,165.31 164.00,165.01 156.51,166.73 154.99,166.53 153.79,164.93 151.67,155.18 163.16,153.40 168.47,151.83 171.07,151.56 173.87,161.52" fill="none" stroke="#bcbcbc" stroke-width="8" stroke-linecap="round" stroke-linejoin="round" /><polyline points="208.70,275.01 211.66,273.35 226.52,264.40 230.49,262.03 237.44,257.89 248.87,250.49 251.54,248.58 271.60,236.13" fill="none" stroke="#bcbcbc" stroke-width="8" stroke-linecap="round" stroke-linejoin="round" /><polyline points="278.81,333.78 273.74,332.27 270.79,329.85 259.53,320.10 259.14,319.76 256.42,317.33 254.82,314.49 226.52,264.40" fill="none" stroke="#bcbcbc" stroke-width="8" stroke-linecap="round" stroke-linejoin="round" /><polyline points="-40.57,329.81 3.83,343.48 7.45,344.62 40.59,355.13 41.28,355.35 46.24,356.92 48.68,357.70 51.86,358.56 58.40,360.78 61.74,361.84 64.75,362.80 89.41,370.62 115.44,378.80 117.60,379.47 120.58,378.01" fill="none" stroke="#bcbcbc" stroke-width="8" stroke-linecap="round" stroke-linejoin="round" /><polyline points="89.99,110.59 109.22,92.91 112.48,89.92" fill="none" stroke="#bcbcbc" stroke-width="8" stroke-linecap="round" stroke-linejoin="round" /><polyline points="-232.10,395.78 -161.52,403.34" fill="none" stroke="#bcbcbc" stroke-width="8" stroke-linecap="round" stroke-linejoin="round" /><polyline points="-19.19,198.78 -4.36,193.47 10.95,187.94 20.45,184.24 49.48,173.69 57.90,170.77 59.66,170.16 61.77,169.44 64.14,168.62 64.43,168.52 69.21,166.60 71.29,165.77" fill="none" stroke="#bcbcbc" stroke-width="8" stroke-linecap="round" stroke-linejoin="round" /><polyline points="80.44,557.75 94.41,574.98 102.96,583.59 106.66,586.26 111.90,590.65 116.82,594.78 121.05,598.90 121.15,601.00" fill="none" stroke="#bcbcbc" stroke-width="8" stroke-linecap="round" stroke-linejoin="round" /><polyline points="95.49,160.38 100.96,146.66 109.82,124.08 122.51,91.71 128.78,76.38 138.13,53.53 145.79,34.80 147.16,32.32 153.90,21.30 154.34,20.59 156.80,15.74 161.13,9.08 163.54,5.36 166.96,0.10" fill="none" stroke="#bcbcbc" stroke-width="8" stroke-linecap="round" stroke-linejoin="round" /><polyline points="-33.64,527.20 -34.53,527.92 -35.13,528.77 -36.33,532.33 -37.17,534.90 -41.02,546.43 -41.55,548.09 -41.88,549.13 -45.42,548.11 -54.04,545.22 -62.58,542.36 -69.18,541.98" fill="none" stroke="#bcbcbc" stroke-width="8" stroke-linecap="round" stroke-linejoin="round" /><polyline points="-202.41,607.44 -188.33,571.09 -186.77,567.14 -185.36,563.33 -183.66,558.72 -181.58,551.48 -179.41,542.47 -178.52,536.02 -177.88,531.34 -176.97,527.88 -173.66,501.89 -169.79,469.09 -167.78,453.46 -165.55,435.09 -161.52,403.34 -160.88,397.94 -156.82,364.74 -156.81,362.89 -155.91,353.04 -153.32,332.23 -152.67,328.60 -151.99,326.56 -150.93,324.32 -149.90,322.58 -147.62,320.11 -145.58,319.41" fill="none" stroke="#bcbcbc" stroke-width="8" stroke-linecap="round" stroke-linejoin="round" /><polyline points="104.83,331.38 105.60,332.60 108.19,336.63 112.05,342.83 112.98,344.30 114.52,343.13 122.00,337.46" fill="none" stroke="#bcbcbc" stroke-width="8" stroke-linecap="round" stroke-linejoin="round" /><polyline points="109.82,124.08 185.86,137.82 193.85,142.03 223.64,156.80 226.26,155.98" fill="none" stroke="#bcbcbc" stroke-width="8" stroke-linecap="round" stroke-linejoin="round" /><polyline points="-35.35,296.37 -36.70,298.34 -48.83,304.26 -57.74,315.59 -67.36,321.54 -73.94,326.51 -80.21,331.62 -83.42,334.56 -89.11,341.76 -95.46,350.87 -96.51,352.56" fill="none" stroke="#bcbcbc" stroke-width="8" stroke-linecap="round" stroke-linejoin="round" /><polyline points="-22.53,304.50 -23.05,305.67 -24.20,307.35 -26.38,310.02 -39.19,326.21 -45.97,344.47 -80.19,331.61" fill="none" stroke="#bcbcbc" stroke-width="8" stroke-linecap="round" stroke-linejoin="round" /><polyline points="-73.94,326.51 -75.26,322.49 -80.99,305.16 -83.21,301.73 -86.93,290.57 -87.25,289.60 -86.70,287.86 -87.59,285.01 -105.49,227.88" fill="none" stroke="#bcbcbc" stroke-width="8" stroke-linecap="round" stroke-linejoin="round" /><polyline points="135.73,14.77 149.87,15.14 150.53,15.16 153.24,15.23 156.80,15.74" fill="none" stroke="#bcbcbc" stroke-width="8" stroke-linecap="round" stroke-linejoin="round" /><polyline points="62.99,475.44 58.16,475.38 17.28,480.87 14.33,481.18 10.96,481.53 -8.60,483.60 -34.96,486.38 -48.94,487.85 -56.67,488.67 -62.94,489.43 -66.17,489.83 -69.80,490.27 -87.33,492.40 -91.53,492.91 -104.49,494.32 -173.66,501.89" fill="none" stroke="#bcbcbc" stroke-width="8" stroke-linecap="round" stroke-linejoin="round" /><polyline points="2.46,617.40 -1.16,616.23 -18.08,610.78 -21.50,609.68 -24.47,608.73 -42.39,602.97 -45.93,601.83 -50.60,600.33 -79.13,591.15 -82.34,590.11" fill="none" stroke="#bcbcbc" stroke-width="8" stroke-linecap="round" stroke-linejoin="round" /><polyline points="73.19,274.88 83.03,277.94 119.02,289.06 119.36,289.16 122.02,289.33" fill="none" stroke="#bcbcbc" stroke-width="8" stroke-linecap="round" stroke-linejoin="round" /><polyline points="174.45,193.84 223.40,194.70" fill="none" stroke="#bcbcbc" stroke-width="8" stroke-linecap="round" stroke-linejoin="round" /><polyline points="150.48,623.90 143.48,615.59 140.54,612.17 138.02,609.81 134.66,607.30 127.80,603.19 121.15,601.00 107.64,596.83 96.59,593.32 102.96,583.59" fill="none" stroke="#bcbcbc" stroke-width="8" stroke-linecap="round" stroke-linejoin="round" /><polyline points="80.44,557.75 70.70,545.73 68.85,543.44 59.03,529.92 56.81,525.79 57.34,520.87 60.30,520.85 67.60,522.25 78.71,524.39" fill="none" stroke="#bcbcbc" stroke-width="8" stroke-linecap="round" stroke-linejoin="round" /><polyline points="-47.02,461.39 -45.22,465.26 -34.96,486.38 -19.70,517.79 -17.76,521.80" fill="none" stroke="#bcbcbc" stroke-width="8" stroke-linecap="round" stroke-linejoin="round" /><polyline points="-211.38,557.07 -207.71,558.57 -190.52,565.60 -186.77,567.14 -182.82,568.75 -162.58,577.03 -158.92,578.52" fill="none" stroke="#bcbcbc" stroke-width="8" stroke-linecap="round" stroke-linejoin="round" /><polyline points="-38.58,430.07 -2.76,445.74" fill="none" stroke="#bcbcbc" stroke-width="8" stroke-linecap="round" stroke-linejoin="round" /><polyline points="122.02,289.33 127.48,289.61 127.83,289.92 130.27,292.09 133.87,295.30 134.54,296.60 146.93,307.45 147.85,309.19 156.57,316.88 158.76,317.55 165.55,323.49 167.07,324.18 177.29,332.86 179.57,334.88 180.83,336.88" fill="none" stroke="#bcbcbc" stroke-width="8" stroke-linecap="round" stroke-linejoin="round" /><polyline points="-221.49,430.10 -165.55,435.09" fill="none" stroke="#bcbcbc" stroke-width="8" stroke-linecap="round" stroke-linejoin="round" /><polyline points="-96.59,638.40 -94.86,634.71 -94.41,633.07 -91.98,624.11 -83.18,593.08 -82.34,590.11 -81.45,586.85 -77.47,572.28 -70.73,547.66 -69.18,541.98" fill="none" stroke="#bcbcbc" stroke-width="8" stroke-linecap="round" stroke-linejoin="round" /><polyline points="-47.02,461.39 -38.58,430.07 -56.48,423.80 -61.17,426.57 -63.31,428.20 -64.89,430.34 -66.00,433.16 -70.12,448.39 -66.80,450.08 -63.44,450.89 -56.02,452.82 -50.47,454.59 -47.02,461.39" fill="none" stroke="#bcbcbc" stroke-width="8" stroke-linecap="round" stroke-linejoin="round" /><polyline points="-70.12,448.39 -74.04,447.84 -165.55,435.09" fill="none" stroke="#bcbcbc" stroke-width="8" stroke-linecap="round" stroke-linejoin="round" /><polyline points="78.71,524.39 87.20,526.24 110.15,533.54 116.57,535.57 131.80,539.97 147.15,544.39 158.51,547.68 176.68,552.92 180.44,554.01 189.61,557.08 204.70,561.10 206.03,561.35" fill="none" stroke="#bcbcbc" stroke-width="8" stroke-linecap="round" stroke-linejoin="round" /><polyline points="89.48,657.00 86.38,657.78 83.03,667.11 77.84,665.63 54.23,657.59 51.39,656.98 45.06,656.53 16.47,656.64 10.17,655.84 -4.06,653.66 -9.81,652.73 -50.53,646.16 -66.30,643.65 -96.37,638.44 -101.22,637.48 -169.09,618.51 -173.37,617.31 -202.41,607.44 -209.55,604.91 -227.39,597.51 -237.56,593.66" fill="none" stroke="#bcbcbc" stroke-width="8" stroke-linecap="round" stroke-linejoin="round" /><polyline points="151.67,155.18 148.74,154.58 109.51,159.21 95.49,160.38" fill="none" stroke="#bcbcbc" stroke-width="8" stroke-linecap="round" stroke-linejoin="round" /><polyline points="78.71,524.39 80.08,522.09 88.31,500.95 97.51,468.98 99.86,462.09 101.11,460.22 109.99,431.72 110.43,428.31 110.77,426.09" fill="none" stroke="#bcbcbc" stroke-width="8" stroke-linecap="round" stroke-linejoin="round" /><polyline points="119.13,215.60 120.07,215.24 121.34,214.23 123.27,211.97 148.32,176.03 154.99,166.53" fill="none" stroke="#bcbcbc" stroke-width="8" stroke-linecap="round" stroke-linejoin="round" /><polyline points="230.60,347.61 231.12,346.14 243.71,331.33 244.63,330.83 246.82,327.84 254.14,319.43 256.42,317.33" fill="none" stroke="#bcbcbc" stroke-width="8" stroke-linecap="round" stroke-linejoin="round" /><polyline points="241.61,457.54 241.43,455.55 241.30,454.02 240.63,451.09 239.84,449.18 238.85,444.15 238.76,442.33 238.09,438.27 235.09,436.70 232.70,437.62 228.41,438.64 225.02,439.17 221.77,439.96 217.27,440.98 215.22,441.45" fill="none" stroke="#bcbcbc" stroke-width="8" stroke-linecap="round" stroke-linejoin="round" /><polyline points="-89.16,384.79 -80.01,363.33 -79.50,361.93" fill="none" stroke="#bcbcbc" stroke-width="8" stroke-linecap="round" stroke-linejoin="round" /><polyline points="152.14,345.43 156.55,343.72 158.86,342.83 160.65,341.02 168.00,339.21 170.47,339.84 175.80,338.47 179.86,337.42 180.83,336.88 184.77,335.92 204.91,330.98 209.47,329.62" fill="none" stroke="#bcbcbc" stroke-width="8" stroke-linecap="round" stroke-linejoin="round" /><polyline points="-33.64,527.20 -24.14,523.75 -20.96,522.78 -17.76,521.80 -11.85,520.00 -7.26,519.34 8.43,517.62 11.58,517.45 25.62,517.57 34.17,517.64 37.38,517.48 42.53,518.00 44.14,518.23 47.43,518.70 57.34,520.87" fill="none" stroke="#bcbcbc" stroke-width="8" stroke-linecap="round" stroke-linejoin="round" /><polyline points="11.63,245.12 10.06,239.80 4.21,220.03 -2.89,197.50 -4.36,193.47 -5.84,189.70 -7.73,184.27" fill="none" stroke="#bcbcbc" stroke-width="8" stroke-linecap="round" stroke-linejoin="round" /><polyline points="-5.37,563.84 -4.12,559.90 8.51,520.07 8.43,517.62" fill="none" stroke="#bcbcbc" stroke-width="8" stroke-linecap="round" stroke-linejoin="round" /><polyline points="11.58,517.45 14.08,483.91 14.33,481.18 14.71,477.99 14.72,477.85 14.88,473.96 15.72,463.40 16.19,458.49 16.83,452.90 17.42,448.88 17.94,446.36 18.61,444.45 19.91,440.15 22.59,431.19 26.00,419.64 29.76,407.82 30.53,405.41 31.14,403.66" fill="none" stroke="#bcbcbc" stroke-width="8" stroke-linecap="round" stroke-linejoin="round" /><polyline points="-70.12,448.39 -70.79,451.36 -70.67,452.31 -66.60,486.23 -66.17,489.83 -66.35,493.52 -67.42,514.62 -67.87,523.44 -68.10,527.98 -68.51,536.09 -68.72,540.31 -69.18,541.98" fill="none" stroke="#bcbcbc" stroke-width="8" stroke-linecap="round" stroke-linejoin="round" /><polyline points="-89.16,384.79 -103.98,380.39 -105.86,379.18 -115.08,376.49 -117.67,376.52 -129.26,373.03 -131.13,371.65 -141.67,368.45 -154.61,364.93 -154.67,364.92 -156.82,364.74" fill="none" stroke="#bcbcbc" stroke-width="8" stroke-linecap="round" stroke-linejoin="round" /><polyline points="180.83,336.88 181.34,337.56 183.49,340.76 187.46,346.68 191.20,350.42 198.39,358.49 197.17,365.95 196.55,368.74 195.70,369.92 197.50,372.59 200.29,378.33 205.86,389.07 208.60,394.37 210.31,399.12 211.08,401.33" fill="none" stroke="#bcbcbc" stroke-width="8" stroke-linecap="round" stroke-linejoin="round" /><polyline points="218.35,352.24 216.28,352.88 202.68,357.11 200.73,357.74 198.39,358.49" fill="none" stroke="#bcbcbc" stroke-width="8" stroke-linecap="round" stroke-linejoin="round" /><polyline points="120.58,378.01 124.84,376.63 155.72,360.86 159.85,358.84 174.41,354.64 188.52,350.67 191.20,350.42" fill="none" stroke="#bcbcbc" stroke-width="8" stroke-linecap="round" stroke-linejoin="round" /><polyline points="123.95,397.53 159.55,380.96 161.05,379.97 164.53,378.96 188.25,372.05 191.85,370.68 195.70,369.92" fill="none" stroke="#bcbcbc" stroke-width="8" stroke-linecap="round" stroke-linejoin="round" /><polyline points="116.68,50.19 131.09,51.97 132.54,52.15 138.13,53.53" fill="none" stroke="#bcbcbc" stroke-width="8" stroke-linecap="round" stroke-linejoin="round" /><polyline points="239.84,196.72 242.39,196.18 251.94,200.86 253.20,202.11 271.13,232.45 271.60,236.13 273.93,238.08 273.56,239.42 273.50,241.61 273.83,244.66 278.57,264.18 278.99,277.69 279.66,299.27 280.77,328.32 276.23,340.97 273.30,348.69 269.02,359.56 267.79,362.71 266.98,363.59 265.69,372.00" fill="none" stroke="#bcbcbc" stroke-width="8" stroke-linecap="round" stroke-linejoin="round" /><polyline points="272.98,423.26 268.62,421.36 257.72,413.76 243.35,403.66 235.45,397.26 230.11,391.55" fill="none" stroke="#bcbcbc" stroke-width="8" stroke-linecap="round" stroke-linejoin="round" /><polyline points="96.59,593.32 92.30,591.96 85.36,589.76 82.04,588.71 78.15,587.47 73.22,585.91 68.78,584.50 64.38,583.11 44.77,576.88 41.33,575.79 37.06,574.44 36.12,574.14 24.91,571.18 21.74,570.41 17.77,569.45 13.61,568.45 -1.36,564.81 -5.37,563.84 -9.69,562.34 -18.70,559.21 -22.10,558.03 -25.14,557.05 -39.25,552.03 -41.03,550.97 -41.88,549.13" fill="none" stroke="#bcbcbc" stroke-width="8" stroke-linecap="round" stroke-linejoin="round" /><polyline points="161.05,379.97 160.01,376.24 156.91,365.13 155.72,360.86 153.99,357.67 153.83,357.07 152.82,353.31 154.00,351.65 152.58,346.91 152.14,345.43" fill="none" stroke="#bcbcbc" stroke-width="8" stroke-linecap="round" stroke-linejoin="round" /><polyline points="155.87,244.01 158.81,242.62 174.91,233.74 184.11,227.83 190.59,223.40 192.03,222.33 197.25,218.70 202.66,214.71 206.09,212.21 210.17,209.22 224.37,202.82 226.21,202.91 228.91,201.64 239.84,196.72" fill="none" stroke="#bcbcbc" stroke-width="8" stroke-linecap="round" stroke-linejoin="round" /><polyline points="-22.53,304.50 -20.21,305.44 -18.67,305.91 10.11,314.75 14.51,316.10" fill="none" stroke="#bcbcbc" stroke-width="8" stroke-linecap="round" stroke-linejoin="round" /><polyline points="-228.11,369.23 -248.68,363.00" fill="none" stroke="#bcbcbc" stroke-width="8" stroke-linecap="round" stroke-linejoin="round" /><polyline points="104.04,79.24 109.14,85.70 109.90,86.66 112.48,89.92 115.41,90.27 121.44,90.97 122.51,91.71" fill="none" stroke="#bcbcbc" stroke-width="8" stroke-linecap="round" stroke-linejoin="round" /><polyline points="281.09,366.52 273.01,368.02 264.72,372.52 257.04,376.80 249.78,380.43 241.01,385.20 234.65,389.06 222.09,395.79 173.07,420.45 160.36,426.05 151.96,429.68 147.80,431.05 144.36,431.69 138.72,432.03 130.70,430.89 110.69,426.09 82.29,419.47 44.91,408.20 31.14,403.66 8.60,396.70 -12.96,389.59 -44.58,377.18 -60.40,370.37 -79.46,361.90 -111.08,344.57 -118.50,339.65 -137.26,327.85 -145.13,319.98 -156.93,304.70 -176.37,284.65 -184.01,277.92" fill="none" stroke="#bcbcbc" stroke-width="8" stroke-linecap="round" stroke-linejoin="round" /><polyline points="127.80,603.19 128.13,601.34 129.32,598.32 140.54,572.08 144.77,562.24 149.77,549.98 150.98,545.50" fill="none" stroke="#bcbcbc" stroke-width="8" stroke-linecap="round" stroke-linejoin="round" /><polyline points="-87.33,492.40 -100.07,486.23 -129.06,472.20 -164.61,454.99 -167.78,453.46" fill="none" stroke="#bcbcbc" stroke-width="8" stroke-linecap="round" stroke-linejoin="round" /><polyline points="122.02,289.33 125.24,286.03 133.79,277.28 140.58,269.87" fill="none" stroke="#bcbcbc" stroke-width="8" stroke-linecap="round" stroke-linejoin="round" /><polyline points="-124.94,308.83 -128.47,304.15 -145.03,282.23 -168.67,263.10" fill="none" stroke="#bcbcbc" stroke-width="8" stroke-linecap="round" stroke-linejoin="round" /><polyline points="-227.52,597.46 -224.28,589.79 -214.01,564.17 -212.76,560.80 -211.38,557.07 -210.85,555.73 -210.72,553.62 -209.40,533.70 -209.02,527.98" fill="none" stroke="#bcbcbc" stroke-width="8" stroke-linecap="round" stroke-linejoin="round" /><polyline points="-234.53,391.48 -228.11,369.23 -219.65,339.87 -218.60,336.24 -217.43,332.11 -214.83,322.87 -214.55,321.90 -213.81,318.93 -212.61,315.57 -212.32,314.76 -210.82,311.03 -207.87,304.51 -206.98,302.64" fill="none" stroke="#bcbcbc" stroke-width="8" stroke-linecap="round" stroke-linejoin="round" /><polyline points="-218.60,336.24 -205.62,339.56 -178.12,346.63 -162.45,351.51 -155.91,353.04" fill="none" stroke="#bcbcbc" stroke-width="8" stroke-linecap="round" stroke-linejoin="round" /><polyline points="48.63,235.26 49.07,232.56 49.52,229.76 51.42,220.37 56.18,198.53 60.09,179.00 60.80,174.94 61.77,169.44 61.77,169.43" fill="none" stroke="#bcbcbc" stroke-width="8" stroke-linecap="round" stroke-linejoin="round" /><polyline points="10.19,655.84 15.99,641.06 16.71,638.40 39.72,580.01 41.33,575.79 42.64,572.22 56.38,532.23 59.03,529.92" fill="none" stroke="#bcbcbc" stroke-width="8" stroke-linecap="round" stroke-linejoin="round" /><polyline points="89.05,223.96 89.05,223.95 88.23,219.68 88.10,219.16 86.12,211.08 86.12,211.05 84.76,205.57 79.02,185.90 78.30,183.79 74.42,173.25 73.16,170.10 72.35,168.08 71.29,165.77 71.29,165.77 71.29,165.76 70.52,157.28 70.45,153.12" fill="none" stroke="#bcbcbc" stroke-width="8" stroke-linecap="round" stroke-linejoin="round" /><polyline points="80.44,557.75 78.97,559.35 76.77,561.97 70.57,579.44 68.78,584.50" fill="none" stroke="#bcbcbc" stroke-width="8" stroke-linecap="round" stroke-linejoin="round" /><polyline points="-22.53,304.50 -21.68,302.20 -21.49,301.67 -17.47,290.43 -15.96,285.69 -3.62,249.42" fill="none" stroke="#bcbcbc" stroke-width="8" stroke-linecap="round" stroke-linejoin="round" /><polyline points="41.28,355.35 42.54,352.00 45.95,342.95 47.39,339.12 48.36,336.53 51.10,329.27 52.90,324.47 53.15,323.82 57.53,312.19 59.36,312.76 60.35,310.06 62.10,305.29 61.76,303.12 66.42,290.44 66.90,289.14 67.78,288.32 68.52,287.64 73.19,274.88 73.87,271.38 80.57,252.77 82.15,251.53 85.38,242.41 84.80,241.01 87.63,232.49 86.16,224.89" fill="none" stroke="#bcbcbc" stroke-width="8" stroke-linecap="round" stroke-linejoin="round" /><polyline points="161.13,9.08 159.25,6.00 149.39,-10.19" fill="none" stroke="#bcbcbc" stroke-width="8" stroke-linecap="round" stroke-linejoin="round" /><polyline points="192.03,222.33 237.30,251.45 237.31,251.47 237.31,251.47 245.68,252.56" fill="none" stroke="#bcbcbc" stroke-width="8" stroke-linecap="round" stroke-linejoin="round" /><polyline points="173.87,161.52 222.04,185.70 223.49,186.78 223.40,194.70 224.37,202.82" fill="none" stroke="#bcbcbc" stroke-width="8" stroke-linecap="round" stroke-linejoin="round" /><polyline points="82.04,588.71 80.31,593.99 73.29,615.40 61.35,651.45 60.51,654.00 59.65,656.59 59.41,659.35" fill="none" stroke="#bcbcbc" stroke-width="8" stroke-linecap="round" stroke-linejoin="round" /><polyline points="217.64,458.68 217.93,455.99 217.99,453.49 217.97,453.40 216.26,446.02 215.56,442.94 215.22,441.45 214.88,439.93 213.00,431.68 209.34,415.18 206.69,405.26 206.31,403.73" fill="none" stroke="#bcbcbc" stroke-width="8" stroke-linecap="round" stroke-linejoin="round" /><polyline points="-21.50,609.68 -20.31,606.29 -6.89,568.17 -5.37,563.84" fill="none" stroke="#bcbcbc" stroke-width="8" stroke-linecap="round" stroke-linejoin="round" /><polyline points="279.66,299.27 275.71,298.16 248.91,257.03 245.68,252.56" fill="none" stroke="#bcbcbc" stroke-width="8" stroke-linecap="round" stroke-linejoin="round" /><polyline points="-160.88,397.94 -63.22,421.34 -56.48,423.80" fill="none" stroke="#bcbcbc" stroke-width="8" stroke-linecap="round" stroke-linejoin="round" /><polyline points="147.16,32.32 185.21,46.41 190.56,45.50" fill="none" stroke="#bcbcbc" stroke-width="8" stroke-linecap="round" stroke-linejoin="round" />
    <polyline points="167.20,167.20 174.45,193.84 182.83,225.21 184.11,227.83 184.31,230.81 190.00,241.43 205.35,270.06 208.70,275.01 209.67,276.46 232.61,319.34 243.15,328.93 244.63,330.83 246.71,332.62 266.73,349.73 268.09,350.89 271.68,352.80" fill="none" stroke="#ffffff" stroke-width="16" stroke-linecap="round" stroke-linejoin="round" />
    <polyline points="167.20,167.20 174.45,193.84 182.83,225.21 184.11,227.83 184.31,230.81 190.00,241.43 205.35,270.06 208.70,275.01 209.67,276.46 232.61,319.34 243.15,328.93 244.63,330.83 246.71,332.62 266.73,349.73 268.09,350.89 271.68,352.80" fill="none" stroke="#111111" stroke-width="9" stroke-linecap="round" stroke-linejoin="round" />
    
            <g transform="translate(167.20,167.20)">
              <circle r="19" fill="#ffffff" stroke="#111111" stroke-width="4" />
              <text text-anchor="middle" dominant-baseline="central" font-family="Helvetica, Arial, sans-serif"
                font-size="18" font-weight="700" fill="#111111">1</text>
            </g>
            
            <g transform="translate(271.68,352.80)">
              <circle r="19" fill="#ffffff" stroke="#111111" stroke-width="4" />
              <text text-anchor="middle" dominant-baseline="central" font-family="Helvetica, Arial, sans-serif"
                font-size="18" font-weight="700" fill="#111111">2</text>
            </g>
            
  </g>
</svg>
