<svg xmlns="http://www.w3.org/2000/svg" width="520" height="520" viewBox="0 0 520 520">
  <rect width="100%" height="100%" fill="#ffffff" />
  <g>
    <polyline points="624.18,-1045.00 626.93,-1030.39 644.65,-906.44 641.94,-875.45" fill="none" stroke="#bcbcbc" stroke-width="8" stroke-linecap="round" stroke-linejoin="round" /><polyline points="263.98,-12.04 268.26,-25.21 290.96,-95.01 293.64,-103.24 296.34,-111.88 353.43,-293.88 358.02,-308.52 347.50,-334.41" fill="none" stroke="#bcbcbc" stroke-width="8" stroke-linecap="round" stroke-linejoin="round" /><polyline points="-130.32,-173.92 -131.24,-184.37 -112.58,-288.88 -109.96,-301.95 -108.01,-308.80 -102.87,-335.31 -97.10,-367.75 -90.81,-396.31 -84.57,-424.82 -80.64,-432.86 -78.07,-437.78" fill="none" stroke="#bcbcbc" stroke-width="8" stroke-linecap="round" stroke-linejoin="round" /><polyline points="-22.00,-911.11 -26.43,-924.64 -72.29,-1064.49 -74.53,-1070.36" fill="none" stroke="#bcbcbc" stroke-width="8" stroke-linecap="round" stroke-linejoin="round" /><polyline points="-257.32,319.75 -255.95,306.41 -255.39,300.28 -250.40,245.06 -244.94,196.44 -243.66,185.09 -242.47,171.47 -242.34,170.32 -239.24,143.24 -236.57,115.72 -233.63,89.15 -231.65,68.47 -230.82,55.71 -230.09,43.93 -228.79,30.65" fill="none" stroke="#bcbcbc" stroke-width="8" stroke-linecap="round" stroke-linejoin="round" /><polyline points="376.37,20.41 379.64,10.15 402.65,-62.19 405.27,-70.41 408.98,-82.12 411.65,-90.51 432.02,-178.35" fill="none" stroke="#bcbcbc" stroke-width="8" stroke-linecap="round" stroke-linejoin="round" /><polyline points="286.92,-1410.38 295.41,-1409.08 529.60,-1373.10" fill="none" stroke="#bcbcbc" stroke-width="8" stroke-linecap="round" stroke-linejoin="round" /><polyline points="-314.29,3.37 -338.66,2.23 -353.53,1.54 -361.60,1.17 -368.69,0.84 -423.88,-1.73 -500.66,-5.30 -537.25,-10.49 -549.50,-12.22 -560.13,-14.10 -632.10,-26.80 -642.16,-28.58 -644.39,-28.96 -656.82,-31.09 -666.37,-32.72 -727.36,-38.11 -738.97,-39.14 -743.23,-39.52 -756.42,-40.43 -782.24,-42.22" fill="none" stroke="#bcbcbc" stroke-width="8" stroke-linecap="round" stroke-linejoin="round" /><polyline points="39.84,-67.34 44.56,-80.78 87.11,-198.70 138.29,-347.44 141.57,-356.77 143.85,-363.28 145.71,-368.63" fill="none" stroke="#bcbcbc" stroke-width="8" stroke-linecap="round" stroke-linejoin="round" /><polyline points="-743.23,-39.52 -744.32,-47.10 -744.58,-55.34 -742.96,-71.92 -739.26,-102.20 -736.79,-112.36 -732.78,-149.11 -732.05,-157.29 -730.87,-167.81 -730.00,-175.63 -728.36,-184.48 -725.31,-208.32 -723.19,-226.55 -720.08,-234.00" fill="none" stroke="#bcbcbc" stroke-width="8" stroke-linecap="round" stroke-linejoin="round" /><polyline points="-786.78,-243.32 -730.03,-235.39 -720.08,-234.00 -713.92,-233.02 -688.48,-228.97 -629.88,-219.63 -619.82,-217.96" fill="none" stroke="#bcbcbc" stroke-width="8" stroke-linecap="round" stroke-linejoin="round" /><polyline points="257.61,-987.68 257.98,-982.52 258.74,-977.30 260.58,-973.30 264.03,-968.84 270.42,-963.03 285.54,-953.83 402.22,-880.64 474.08,-784.30 528.36,-650.37 531.90,-641.52" fill="none" stroke="#bcbcbc" stroke-width="8" stroke-linecap="round" stroke-linejoin="round" /><polyline points="238.92,-596.87 241.34,-592.87 241.97,-591.83 243.97,-581.73 257.66,-515.54 262.01,-494.53 265.12,-479.57 269.96,-449.24 272.23,-435.25 273.79,-426.72 275.50,-419.01 277.54,-414.52 280.54,-409.31 282.14,-406.86 312.46,-363.46 328.86,-337.64 333.13,-331.47" fill="none" stroke="#bcbcbc" stroke-width="8" stroke-linecap="round" stroke-linejoin="round" /><polyline points="-631.41,231.88 -629.80,221.95 -628.30,214.77 -627.90,213.82 -607.72,165.84 -594.86,134.66 -590.95,124.78 -586.81,114.32 -582.32,105.32 -581.59,103.57 -575.44,88.70 -570.68,75.54 -566.60,63.47 -564.01,54.94 -561.11,44.40 -557.76,30.26 -555.22,18.80 -552.18,2.79 -551.55,-0.78 -549.50,-12.22" fill="none" stroke="#bcbcbc" stroke-width="8" stroke-linecap="round" stroke-linejoin="round" /><polyline points="346.24,-1107.80 410.58,-1062.85 419.25,-1061.01 425.59,-1053.75" fill="none" stroke="#bcbcbc" stroke-width="8" stroke-linecap="round" stroke-linejoin="round" /><polyline points="76.07,-692.65 84.57,-689.38 121.49,-677.30 207.13,-644.47 211.93,-639.68 214.18,-636.10" fill="none" stroke="#bcbcbc" stroke-width="8" stroke-linecap="round" stroke-linejoin="round" /><polyline points="235.64,151.12 241.48,135.93 270.27,57.83 290.62,-1.17 294.84,-3.11" fill="none" stroke="#bcbcbc" stroke-width="8" stroke-linecap="round" stroke-linejoin="round" /><polyline points="-171.30,52.10 -166.76,42.06 -166.31,41.06 -158.53,15.00 -145.80,-27.91 -142.54,-38.89 -140.01,-47.42 -139.67,-52.39 -140.18,-63.40" fill="none" stroke="#bcbcbc" stroke-width="8" stroke-linecap="round" stroke-linejoin="round" /><polyline points="357.85,-593.44 350.55,-591.94 334.01,-594.88 331.45,-601.70 302.79,-612.62 296.01,-610.85 270.16,-620.34 266.30,-617.65" fill="none" stroke="#bcbcbc" stroke-width="8" stroke-linecap="round" stroke-linejoin="round" /><polyline points="315.30,-1479.79 328.28,-1476.61 335.47,-1475.36 506.30,-1445.75" fill="none" stroke="#bcbcbc" stroke-width="8" stroke-linecap="round" stroke-linejoin="round" /><polyline points="182.52,103.56 189.63,83.53 203.44,44.60 212.36,28.02 225.20,-7.93 230.33,-22.28" fill="none" stroke="#bcbcbc" stroke-width="8" stroke-linecap="round" stroke-linejoin="round" /><polyline points="-753.50,-673.92 -765.87,-674.49 -768.97,-670.72 -790.53,-644.53 -865.88,-557.50 -876.48,-545.26" fill="none" stroke="#bcbcbc" stroke-width="8" stroke-linecap="round" stroke-linejoin="round" /><polyline points="-92.56,-599.38 -98.02,-587.29 -98.68,-585.83 -117.66,-536.35 -136.79,-481.88 -141.89,-467.36 -144.78,-459.86" fill="none" stroke="#bcbcbc" stroke-width="8" stroke-linecap="round" stroke-linejoin="round" /><polyline points="185.80,-1155.33 191.83,-1147.15 196.13,-1135.91 202.83,-1119.77 213.58,-1094.38 223.10,-1071.59 234.03,-1046.56 242.14,-1027.28 243.34,-1024.51 243.41,-1024.34 249.94,-1009.09 251.89,-1004.75 253.74,-1000.63 255.70,-996.76 257.18,-992.83 257.61,-987.68" fill="none" stroke="#bcbcbc" stroke-width="8" stroke-linecap="round" stroke-linejoin="round" /><polyline points="-275.72,-355.48 -272.56,-357.20 -268.15,-360.71 -265.94,-365.26 -236.62,-476.42 -235.74,-482.69 -232.16,-494.14" fill="none" stroke="#bcbcbc" stroke-width="8" stroke-linecap="round" stroke-linejoin="round" /><polyline points="749.45,-529.42 753.61,-516.23 756.54,-502.36 750.84,-449.53 744.25,-409.79 740.65,-396.23 740.33,-395.01 737.18,-387.69 732.88,-379.93 722.85,-367.25 727.71,-342.45 711.99,-289.21 703.32,-259.81 685.57,-211.69 659.58,-153.09 627.84,-96.94 617.93,-78.69 600.01,-48.71 528.41,52.89 512.73,74.02 451.98,153.39 417.11,193.06 368.33,242.63 363.82,243.10 352.80,252.10" fill="none" stroke="#bcbcbc" stroke-width="8" stroke-linecap="round" stroke-linejoin="round" /><polyline points="-133.97,339.64 -113.98,277.67 -110.71,267.44 -106.27,260.99 -96.73,232.35 -93.62,222.62 -54.19,99.19 -50.22,86.77 -46.96,75.87 -0.43,-70.55" fill="none" stroke="#bcbcbc" stroke-width="8" stroke-linecap="round" stroke-linejoin="round" /><polyline points="334.21,-812.91 351.49,-831.79 356.59,-837.93 391.49,-887.37" fill="none" stroke="#bcbcbc" stroke-width="8" stroke-linecap="round" stroke-linejoin="round" /><polyline points="-11.10,-805.43 36.47,-788.88 39.10,-784.60 52.61,-780.07 60.63,-777.33 98.98,-764.38" fill="none" stroke="#bcbcbc" stroke-width="8" stroke-linecap="round" stroke-linejoin="round" /><polyline points="403.59,-1134.63 425.59,-1053.75 451.07,-958.48 454.93,-950.54 455.54,-941.47 472.82,-909.23 519.44,-822.30 529.63,-807.27 532.58,-802.87 602.23,-672.66 634.24,-643.57 638.73,-637.77 645.07,-632.36 705.85,-580.39 709.97,-576.87 720.89,-571.07" fill="none" stroke="#bcbcbc" stroke-width="8" stroke-linecap="round" stroke-linejoin="round" /><polyline points="331.55,226.85 340.95,215.67 425.39,47.22 430.98,36.18 435.65,25.24 462.93,-42.19 471.05,-62.51 494.55,-133.64 509.80,-225.09 511.60,-238.40" fill="none" stroke="#bcbcbc" stroke-width="8" stroke-linecap="round" stroke-linejoin="round" /><polyline points="266.39,-763.81 264.91,-762.29 262.88,-755.20 262.67,-754.50 253.51,-719.22 255.92,-710.01 253.92,-701.75 251.30,-690.94 244.59,-683.18 236.98,-652.36 228.02,-645.59 218.45,-639.03 214.18,-636.10" fill="none" stroke="#bcbcbc" stroke-width="8" stroke-linecap="round" stroke-linejoin="round" /><polyline points="-92.56,-599.38 -88.67,-609.37 -65.24,-669.41 -60.13,-682.50 -55.92,-693.28 -25.99,-769.96 -12.52,-802.01 -11.10,-805.43 -0.63,-830.75 22.87,-889.09 31.47,-913.92 33.39,-919.62 35.96,-926.07" fill="none" stroke="#bcbcbc" stroke-width="8" stroke-linecap="round" stroke-linejoin="round" /><polyline points="169.55,-963.34 174.08,-949.86 322.74,-822.90 403.86,-752.33 525.02,-647.02 535.60,-638.56 540.34,-635.60 561.36,-616.52 589.44,-592.57 653.12,-538.28 673.69,-520.59 687.34,-504.27" fill="none" stroke="#bcbcbc" stroke-width="8" stroke-linecap="round" stroke-linejoin="round" /><polyline points="415.35,-1182.11 422.89,-1186.94 467.56,-1205.50 476.74,-1215.16" fill="none" stroke="#bcbcbc" stroke-width="8" stroke-linecap="round" stroke-linejoin="round" /><polyline points="466.94,-52.24 405.27,-70.41 293.64,-103.24" fill="none" stroke="#bcbcbc" stroke-width="8" stroke-linecap="round" stroke-linejoin="round" /><polyline points="267.87,-1363.83 276.29,-1358.03 550.79,-1296.96" fill="none" stroke="#bcbcbc" stroke-width="8" stroke-linecap="round" stroke-linejoin="round" /><polyline points="606.93,-460.18 592.75,-491.74 561.27,-566.82 558.92,-572.79 553.53,-586.49 533.24,-638.12 531.96,-641.47" fill="none" stroke="#bcbcbc" stroke-width="8" stroke-linecap="round" stroke-linejoin="round" /><polyline points="185.80,-1155.33 170.56,-1159.67 159.36,-1163.00 136.60,-1169.76 125.03,-1173.06 118.41,-1174.90 109.76,-1177.37" fill="none" stroke="#bcbcbc" stroke-width="8" stroke-linecap="round" stroke-linejoin="round" /><polyline points="-211.56,-742.41 -212.33,-744.93 -213.04,-746.69 -216.18,-754.50 -228.35,-782.86 -239.91,-811.67 -242.41,-818.48 -245.28,-826.31 -247.34,-832.72 -250.74,-842.33 -251.10,-843.34 -262.16,-870.61 -282.47,-921.85 -287.04,-924.45 -290.28,-932.76 -296.76,-955.27 -307.85,-983.16 -310.25,-989.50" fill="none" stroke="#bcbcbc" stroke-width="8" stroke-linecap="round" stroke-linejoin="round" /><polyline points="-113.98,277.67 -102.45,281.20 -65.13,292.57 -53.44,296.13" fill="none" stroke="#bcbcbc" stroke-width="8" stroke-linecap="round" stroke-linejoin="round" /><polyline points="582.96,-1168.69 585.13,-1177.48 584.25,-1180.82 583.18,-1184.85 576.37,-1209.81 561.18,-1262.57 553.16,-1289.55 550.79,-1296.96 529.60,-1373.10 518.17,-1414.17 506.30,-1445.75 495.58,-1474.24 484.91,-1493.82 474.54,-1504.17 394.94,-1601.43 389.05,-1608.36 385.14,-1614.76" fill="none" stroke="#bcbcbc" stroke-width="8" stroke-linecap="round" stroke-linejoin="round" /><polyline points="257.61,-987.68 253.50,-986.11 245.91,-984.01 245.15,-983.80 213.45,-975.70 177.00,-965.43 169.55,-963.34 166.24,-962.29 157.48,-959.47 150.00,-957.39 117.31,-948.30 63.55,-933.02 43.51,-927.96 35.96,-926.07 0.14,-917.28 -22.00,-911.11 -68.86,-898.02 -115.19,-884.97 -120.55,-883.48 -159.26,-872.74 -177.12,-867.78 -186.14,-863.52 -203.21,-855.06 -237.11,-837.86 -239.47,-836.66 -247.34,-832.72 -252.14,-830.32 -258.84,-826.81 -282.66,-814.32 -326.06,-789.97 -362.31,-770.98 -367.50,-768.27 -374.43,-767.84 -378.59,-765.62 -379.42,-765.18 -418.75,-743.63 -426.98,-743.67 -436.44,-738.72 -439.74,-737.00 -442.52,-735.54 -449.10,-732.10 -454.28,-720.29 -476.54,-708.37 -483.61,-704.58 -491.27,-700.41 -522.24,-683.56 -538.25,-674.85 -546.32,-672.52" fill="none" stroke="#bcbcbc" stroke-width="8" stroke-linecap="round" stroke-linejoin="round" /><polyline points="703.32,-259.81 686.79,-258.30 635.17,-253.57 632.84,-253.35 629.55,-253.05 624.22,-252.56 574.17,-247.97 556.76,-249.58 536.49,-244.50 520.25,-240.52 511.60,-238.40 490.11,-237.59 471.51,-238.53 462.03,-239.54 453.96,-241.98 448.02,-245.27 425.89,-260.91 372.11,-297.85 367.04,-301.28 361.88,-304.79 358.02,-308.52" fill="none" stroke="#bcbcbc" stroke-width="8" stroke-linecap="round" stroke-linejoin="round" /><polyline points="-514.66,-883.30 -495.14,-845.10 -492.19,-834.19 -475.75,-802.83 -468.97,-793.86 -441.49,-740.41 -439.74,-737.00" fill="none" stroke="#bcbcbc" stroke-width="8" stroke-linecap="round" stroke-linejoin="round" /><polyline points="83.32,-543.62 80.39,-535.59 79.57,-533.10 75.76,-521.54 51.62,-454.20 39.64,-420.76 39.23,-419.62 34.42,-409.22 31.66,-403.05" fill="none" stroke="#bcbcbc" stroke-width="8" stroke-linecap="round" stroke-linejoin="round" /><polyline points="403.59,-1134.63 400.91,-1140.36 393.87,-1141.28 371.12,-1136.06 366.49,-1136.66 362.87,-1141.52 356.43,-1171.12 391.31,-1176.52 407.45,-1181.29 415.35,-1182.11 423.85,-1151.88" fill="none" stroke="#bcbcbc" stroke-width="8" stroke-linecap="round" stroke-linejoin="round" /><polyline points="529.63,-807.27 538.61,-812.31 583.73,-839.50 595.79,-846.68 616.90,-859.26 651.62,-881.71 659.72,-887.54 720.64,-925.32" fill="none" stroke="#bcbcbc" stroke-width="8" stroke-linecap="round" stroke-linejoin="round" /><polyline points="742.54,-628.82 727.14,-633.41 718.19,-640.75 683.98,-670.35 682.81,-671.39 674.54,-678.77 669.68,-687.39 583.73,-839.50" fill="none" stroke="#bcbcbc" stroke-width="8" stroke-linecap="round" stroke-linejoin="round" /><polyline points="-227.41,-640.87 -92.56,-599.38 -81.56,-595.90 19.07,-564.00 21.17,-563.34 36.25,-558.55 43.66,-556.20 53.29,-553.57 73.16,-546.84 83.32,-543.62 92.46,-540.72 167.35,-516.97 246.41,-492.14 252.94,-490.08 262.01,-494.53" fill="none" stroke="#bcbcbc" stroke-width="8" stroke-linecap="round" stroke-linejoin="round" /><polyline points="169.09,-1306.53 227.51,-1360.19 237.39,-1369.28" fill="none" stroke="#bcbcbc" stroke-width="8" stroke-linecap="round" stroke-linejoin="round" /><polyline points="-809.06,-440.58 -594.72,-417.61" fill="none" stroke="#bcbcbc" stroke-width="8" stroke-linecap="round" stroke-linejoin="round" /><polyline points="-162.47,-1038.75 -117.41,-1054.86 -70.95,-1071.66 -42.07,-1082.88 46.08,-1114.93 71.66,-1123.78 77.01,-1125.63 83.41,-1127.83 90.61,-1130.31 91.49,-1130.61 106.01,-1136.45 112.32,-1138.98" fill="none" stroke="#bcbcbc" stroke-width="8" stroke-linecap="round" stroke-linejoin="round" /><polyline points="140.11,51.25 182.52,103.56 208.49,129.71 219.73,137.80 235.64,151.12 250.59,163.67 263.43,176.20 263.75,182.57" fill="none" stroke="#bcbcbc" stroke-width="8" stroke-linecap="round" stroke-linejoin="round" /><polyline points="185.80,-1155.33 202.42,-1196.99 229.32,-1265.57 267.87,-1363.83 286.92,-1410.38 315.30,-1479.79 338.57,-1536.65 342.74,-1544.19 363.20,-1577.65 364.53,-1579.81 372.01,-1594.53 385.14,-1614.76 392.48,-1626.04 402.85,-1642.01" fill="none" stroke="#bcbcbc" stroke-width="8" stroke-linecap="round" stroke-linejoin="round" /><polyline points="-206.34,-41.53 -209.06,-39.35 -210.86,-36.76 -214.53,-25.95 -217.06,-18.15 -228.77,16.87 -230.38,21.92 -231.38,25.05 -242.14,21.97 -268.31,13.20 -294.25,4.50 -314.29,3.37" fill="none" stroke="#bcbcbc" stroke-width="8" stroke-linecap="round" stroke-linejoin="round" /><polyline points="-718.88,202.12 -676.14,91.76 -671.38,79.74 -667.12,68.17 -661.96,54.19 -655.64,32.19 -649.05,4.86 -646.35,-14.73 -644.39,-28.96 -641.63,-39.46 -631.57,-118.38 -619.82,-217.96 -613.74,-265.43 -606.95,-321.20 -594.72,-417.61 -592.78,-434.00 -580.42,-534.82 -580.42,-540.43 -577.69,-570.35 -569.80,-633.54 -567.83,-644.56 -565.77,-650.74 -562.54,-657.55 -559.41,-662.83 -552.49,-670.32 -546.31,-672.44" fill="none" stroke="#bcbcbc" stroke-width="8" stroke-linecap="round" stroke-linejoin="round" /><polyline points="214.18,-636.10 216.52,-632.40 224.36,-620.16 236.10,-601.35 238.92,-596.87 243.60,-600.42 266.30,-617.65" fill="none" stroke="#bcbcbc" stroke-width="8" stroke-linecap="round" stroke-linejoin="round" /><polyline points="229.32,-1265.57 460.26,-1223.83 484.51,-1211.07 574.99,-1166.22 582.96,-1168.69" fill="none" stroke="#bcbcbc" stroke-width="8" stroke-linecap="round" stroke-linejoin="round" /><polyline points="-211.56,-742.41 -215.65,-736.43 -252.49,-718.45 -279.55,-684.06 -308.75,-665.99 -328.72,-650.91 -347.77,-635.37 -357.54,-626.47 -374.80,-604.59 -394.09,-576.94 -397.27,-571.81" fill="none" stroke="#bcbcbc" stroke-width="8" stroke-linecap="round" stroke-linejoin="round" /><polyline points="-172.60,-717.74 -174.20,-714.19 -177.70,-709.08 -184.30,-700.96 -223.21,-651.80 -243.80,-596.36 -347.73,-635.41" fill="none" stroke="#bcbcbc" stroke-width="8" stroke-linecap="round" stroke-linejoin="round" /><polyline points="-328.72,-650.91 -332.75,-663.09 -350.14,-715.74 -356.89,-726.14 -368.19,-760.04 -369.16,-762.96 -367.50,-768.27 -370.21,-776.91 -424.55,-950.39" fill="none" stroke="#bcbcbc" stroke-width="8" stroke-linecap="round" stroke-linejoin="round" /><polyline points="308.01,-1597.48 350.95,-1596.35 352.96,-1596.29 361.19,-1596.06 372.01,-1594.53" fill="none" stroke="#bcbcbc" stroke-width="8" stroke-linecap="round" stroke-linejoin="round" /><polyline points="87.11,-198.70 72.45,-198.88 -51.72,-182.21 -60.67,-181.27 -70.90,-180.19 -130.32,-173.92 -210.37,-165.47 -252.80,-160.99 -276.28,-158.52 -295.34,-156.20 -305.13,-155.01 -316.15,-153.67 -369.41,-147.20 -382.17,-145.65 -421.50,-141.35 -631.57,-118.38" fill="none" stroke="#bcbcbc" stroke-width="8" stroke-linecap="round" stroke-linejoin="round" /><polyline points="-96.73,232.35 -107.73,228.81 -159.10,212.27 -169.49,208.93 -178.50,206.03 -232.93,188.54 -243.66,185.09 -257.86,180.52 -344.50,152.64 -354.25,149.51" fill="none" stroke="#bcbcbc" stroke-width="8" stroke-linecap="round" stroke-linejoin="round" /><polyline points="118.10,-807.68 147.98,-798.37 257.26,-764.63 258.28,-764.31 266.39,-763.81" fill="none" stroke="#bcbcbc" stroke-width="8" stroke-linecap="round" stroke-linejoin="round" /><polyline points="425.59,-1053.75 574.25,-1051.14" fill="none" stroke="#bcbcbc" stroke-width="8" stroke-linecap="round" stroke-linejoin="round" /><polyline points="352.80,252.10 331.55,226.85 322.63,216.48 314.97,209.32 304.77,201.71 283.92,189.20 263.75,182.57 222.70,169.89 189.14,159.24 208.49,129.71" fill="none" stroke="#bcbcbc" stroke-width="8" stroke-linecap="round" stroke-linejoin="round" /><polyline points="140.11,51.25 110.52,14.73 104.89,7.78 75.09,-33.27 68.34,-45.81 69.96,-60.73 78.94,-60.82 101.11,-56.55 134.84,-50.07" fill="none" stroke="#bcbcbc" stroke-width="8" stroke-linecap="round" stroke-linejoin="round" /><polyline points="-246.99,-241.35 -241.53,-229.61 -210.37,-165.47 -164.03,-70.09 -158.12,-57.92" fill="none" stroke="#bcbcbc" stroke-width="8" stroke-linecap="round" stroke-linejoin="round" /><polyline points="-746.13,49.19 -734.98,53.74 -682.78,75.08 -671.38,79.74 -659.39,84.64 -597.93,109.77 -586.81,114.32" fill="none" stroke="#bcbcbc" stroke-width="8" stroke-linecap="round" stroke-linejoin="round" /><polyline points="-221.34,-336.46 -112.58,-288.88" fill="none" stroke="#bcbcbc" stroke-width="8" stroke-linecap="round" stroke-linejoin="round" /><polyline points="266.39,-763.81 282.95,-762.93 284.01,-762.00 291.45,-755.40 302.37,-745.65 304.39,-741.73 342.04,-708.76 344.82,-703.50 371.30,-680.14 377.97,-678.10 398.56,-660.07 403.18,-657.96 434.24,-631.61 441.15,-625.48 444.97,-619.41" fill="none" stroke="#bcbcbc" stroke-width="8" stroke-linecap="round" stroke-linejoin="round" /><polyline points="-776.83,-336.35 -606.95,-321.20" fill="none" stroke="#bcbcbc" stroke-width="8" stroke-linecap="round" stroke-linejoin="round" /><polyline points="-397.53,296.13 -392.26,284.92 -390.91,279.94 -383.53,252.74 -356.81,158.53 -354.25,149.51 -351.55,139.61 -339.44,95.35 -319.00,20.60 -314.29,3.37" fill="none" stroke="#bcbcbc" stroke-width="8" stroke-linecap="round" stroke-linejoin="round" /><polyline points="-246.99,-241.35 -221.34,-336.46 -275.72,-355.48 -289.96,-347.07 -296.45,-342.14 -301.25,-335.64 -304.64,-327.06 -317.14,-280.84 -307.05,-275.70 -296.86,-273.23 -274.32,-267.36 -257.45,-261.99 -246.99,-241.35" fill="none" stroke="#bcbcbc" stroke-width="8" stroke-linecap="round" stroke-linejoin="round" /><polyline points="-317.14,-280.84 -329.05,-282.50 -606.95,-321.20" fill="none" stroke="#bcbcbc" stroke-width="8" stroke-linecap="round" stroke-linejoin="round" /><polyline points="134.84,-50.07 160.62,-44.43 230.33,-22.28 249.82,-16.12 296.09,-2.76 342.70,10.68 377.20,20.65 432.38,36.58 443.78,39.88 471.63,49.21 517.48,61.42 521.52,62.18" fill="none" stroke="#bcbcbc" stroke-width="8" stroke-linecap="round" stroke-linejoin="round" /><polyline points="167.54,352.60 158.13,354.96 147.97,383.30 132.20,378.82 60.50,354.39 51.87,352.55 32.67,351.17 -54.16,351.52 -73.30,349.08 -116.53,342.47 -133.97,339.64 -257.63,319.70 -305.52,312.06 -396.85,296.24 -411.59,293.32 -617.71,235.72 -630.71,232.08 -718.88,202.12 -740.57,194.42 -794.75,171.97 -825.64,160.29" fill="none" stroke="#bcbcbc" stroke-width="8" stroke-linecap="round" stroke-linejoin="round" /><polyline points="356.43,-1171.12 347.51,-1172.96 228.39,-1158.88 185.80,-1155.33" fill="none" stroke="#bcbcbc" stroke-width="8" stroke-linecap="round" stroke-linejoin="round" /><polyline points="134.84,-50.07 139.02,-57.05 164.02,-121.24 191.95,-218.30 199.07,-239.21 202.88,-244.90 229.85,-331.45 231.19,-341.78 232.21,-348.53" fill="none" stroke="#bcbcbc" stroke-width="8" stroke-linecap="round" stroke-linejoin="round" /><polyline points="257.61,-987.68 260.46,-988.76 264.31,-991.83 270.17,-998.68 346.24,-1107.80 366.49,-1136.66" fill="none" stroke="#bcbcbc" stroke-width="8" stroke-linecap="round" stroke-linejoin="round" /><polyline points="596.14,-586.82 597.69,-591.30 635.93,-636.28 638.73,-637.77 645.38,-646.86 667.62,-672.40 674.54,-678.77" fill="none" stroke="#bcbcbc" stroke-width="8" stroke-linecap="round" stroke-linejoin="round" /><polyline points="629.55,-253.05 629.02,-259.07 628.61,-263.73 626.60,-272.63 624.19,-278.44 621.19,-293.69 620.91,-299.21 618.88,-311.56 609.78,-316.31 602.50,-313.53 589.48,-310.42 579.18,-308.80 569.30,-306.42 555.65,-303.31 549.43,-301.89" fill="none" stroke="#bcbcbc" stroke-width="8" stroke-linecap="round" stroke-linejoin="round" /><polyline points="-374.97,-473.93 -347.16,-539.11 -345.62,-543.34" fill="none" stroke="#bcbcbc" stroke-width="8" stroke-linecap="round" stroke-linejoin="round" /><polyline points="357.85,-593.44 371.25,-598.63 378.26,-601.35 383.68,-606.83 406.02,-612.34 413.52,-610.43 429.69,-614.59 442.03,-617.77 444.97,-619.41 456.93,-622.34 518.10,-637.32 531.96,-641.47" fill="none" stroke="#bcbcbc" stroke-width="8" stroke-linecap="round" stroke-linejoin="round" /><polyline points="-206.34,-41.53 -177.49,-52.01 -167.83,-54.95 -158.12,-57.92 -140.18,-63.40 -126.24,-65.40 -78.59,-70.62 -69.02,-71.14 -26.39,-70.77 -0.43,-70.55 9.34,-71.05 24.98,-69.47 29.87,-68.77 39.84,-67.34 69.96,-60.73" fill="none" stroke="#bcbcbc" stroke-width="8" stroke-linecap="round" stroke-linejoin="round" /><polyline points="-68.86,-898.02 -73.64,-914.18 -91.40,-974.20 -112.96,-1042.64 -117.41,-1054.86 -121.94,-1066.31 -127.65,-1082.81" fill="none" stroke="#bcbcbc" stroke-width="8" stroke-linecap="round" stroke-linejoin="round" /><polyline points="-120.50,69.73 -116.71,57.76 -78.35,-63.18 -78.59,-70.62" fill="none" stroke="#bcbcbc" stroke-width="8" stroke-linecap="round" stroke-linejoin="round" /><polyline points="-69.02,-71.14 -61.43,-172.97 -60.67,-181.27 -59.51,-190.93 -59.49,-191.37 -58.99,-203.18 -56.45,-235.23 -55.02,-250.16 -53.07,-267.12 -51.29,-279.33 -49.69,-287.00 -47.68,-292.79 -43.74,-305.85 -35.59,-333.04 -25.23,-368.13 -13.80,-404.02 -11.48,-411.34 -9.60,-416.65" fill="none" stroke="#bcbcbc" stroke-width="8" stroke-linecap="round" stroke-linejoin="round" /><polyline points="-317.14,-280.84 -319.16,-271.81 -318.82,-268.93 -306.44,-165.92 -305.13,-155.01 -305.70,-143.79 -308.94,-79.72 -310.29,-52.95 -310.99,-39.14 -312.24,-14.53 -312.89,-1.72 -314.29,3.37" fill="none" stroke="#bcbcbc" stroke-width="8" stroke-linecap="round" stroke-linejoin="round" /><polyline points="-374.97,-473.93 -419.96,-487.30 -425.68,-490.97 -453.68,-499.13 -461.55,-499.04 -496.73,-509.64 -502.42,-513.84 -534.43,-523.54 -573.72,-534.24 -573.91,-534.26 -580.42,-534.82" fill="none" stroke="#bcbcbc" stroke-width="8" stroke-linecap="round" stroke-linejoin="round" /><polyline points="444.97,-619.41 446.53,-617.36 453.06,-607.64 465.12,-589.66 476.47,-578.29 498.29,-553.79 494.61,-531.16 492.73,-522.67 490.13,-519.08 495.60,-510.98 504.07,-493.56 520.98,-460.93 529.32,-444.86 534.50,-430.42 536.83,-423.71" fill="none" stroke="#bcbcbc" stroke-width="8" stroke-linecap="round" stroke-linejoin="round" /><polyline points="558.92,-572.79 552.65,-570.83 511.33,-557.98 505.40,-556.08 498.30,-553.79" fill="none" stroke="#bcbcbc" stroke-width="8" stroke-linecap="round" stroke-linejoin="round" /><polyline points="262.01,-494.53 274.93,-498.72 368.71,-546.60 381.27,-552.73 425.47,-565.50 468.33,-577.54 476.47,-578.29" fill="none" stroke="#bcbcbc" stroke-width="8" stroke-linecap="round" stroke-linejoin="round" /><polyline points="272.23,-435.25 380.35,-485.56 384.90,-488.57 395.47,-491.65 467.52,-512.61 478.44,-516.79 490.13,-519.08" fill="none" stroke="#bcbcbc" stroke-width="8" stroke-linecap="round" stroke-linejoin="round" /><polyline points="250.17,-1489.91 293.93,-1484.50 298.33,-1483.96 315.30,-1479.79" fill="none" stroke="#bcbcbc" stroke-width="8" stroke-linecap="round" stroke-linejoin="round" /><polyline points="624.18,-1045.00 631.94,-1046.62 660.94,-1032.41 664.76,-1028.63 719.20,-936.49 720.64,-925.32 727.72,-919.42 726.59,-915.35 726.42,-908.70 727.40,-899.42 741.82,-840.17 743.09,-799.13 745.11,-733.61 748.50,-645.41 734.70,-606.98 725.80,-583.56 712.82,-550.54 709.06,-540.99 706.61,-538.32 702.69,-512.77" fill="none" stroke="#bcbcbc" stroke-width="8" stroke-linecap="round" stroke-linejoin="round" /><polyline points="724.83,-357.13 711.59,-362.89 678.50,-385.98 634.85,-416.65 610.84,-436.06 594.64,-453.40" fill="none" stroke="#bcbcbc" stroke-width="8" stroke-linecap="round" stroke-linejoin="round" /><polyline points="189.14,159.24 176.13,155.12 155.03,148.43 144.96,145.24 133.14,141.49 118.19,136.75 104.68,132.47 91.32,128.23 31.76,109.33 21.33,106.02 8.37,101.92 5.52,101.02 -28.55,92.02 -38.17,89.69 -50.22,86.77 -62.84,83.71 -108.31,72.69 -120.50,69.73 -133.60,65.19 -160.98,55.68 -171.30,52.10 -180.52,49.10 -223.39,33.86 -228.79,30.65 -231.38,25.05" fill="none" stroke="#bcbcbc" stroke-width="8" stroke-linecap="round" stroke-linejoin="round" /><polyline points="384.90,-488.57 381.74,-499.89 372.33,-533.62 368.71,-546.60 363.48,-556.29 363.00,-558.09 359.91,-569.51 363.50,-574.57 359.19,-588.97 357.85,-593.44" fill="none" stroke="#bcbcbc" stroke-width="8" stroke-linecap="round" stroke-linejoin="round" /><polyline points="369.16,-901.42 378.11,-905.63 426.99,-932.57 454.93,-950.54 474.63,-963.98 478.99,-967.22 494.84,-978.24 511.28,-990.38 521.69,-997.95 534.09,-1007.03 577.21,-1026.48 582.81,-1026.18 590.98,-1030.05 624.18,-1045.00" fill="none" stroke="#bcbcbc" stroke-width="8" stroke-linecap="round" stroke-linejoin="round" /><polyline points="-172.60,-717.74 -165.55,-714.88 -160.89,-713.45 -73.48,-686.60 -60.13,-682.50" fill="none" stroke="#bcbcbc" stroke-width="8" stroke-linecap="round" stroke-linejoin="round" /><polyline points="-796.95,-521.20 -859.40,-540.10" fill="none" stroke="#bcbcbc" stroke-width="8" stroke-linecap="round" stroke-linejoin="round" /><polyline points="211.78,-1401.72 227.27,-1382.11 229.58,-1379.18 237.39,-1369.28 246.30,-1368.23 264.61,-1366.08 267.87,-1363.83" fill="none" stroke="#bcbcbc" stroke-width="8" stroke-linecap="round" stroke-linejoin="round" /><polyline points="749.45,-529.42 724.91,-524.85 699.76,-511.18 676.44,-498.20 654.38,-487.17 627.73,-472.70 608.43,-460.98 570.29,-440.54 421.41,-365.65 382.81,-348.65 357.31,-337.62 344.67,-333.49 334.22,-331.53 317.10,-330.50 292.75,-333.94 231.98,-348.53 145.71,-368.63 32.21,-402.86 -9.60,-416.65 -78.07,-437.78 -143.55,-459.38 -239.59,-497.05 -287.61,-517.73 -345.50,-543.46 -441.54,-596.06 -464.06,-610.99 -521.03,-646.83 -544.93,-670.72 -580.77,-717.12 -639.82,-778.00 -663.02,-798.44" fill="none" stroke="#bcbcbc" stroke-width="8" stroke-linecap="round" stroke-linejoin="round" /><polyline points="283.92,189.20 284.93,183.59 288.56,174.42 322.62,94.74 335.48,64.88 350.65,27.66 354.34,14.04" fill="none" stroke="#bcbcbc" stroke-width="8" stroke-linecap="round" stroke-linejoin="round" /><polyline points="-369.41,-147.20 -408.10,-165.92 -496.12,-208.52 -604.10,-260.77 -613.74,-265.43" fill="none" stroke="#bcbcbc" stroke-width="8" stroke-linecap="round" stroke-linejoin="round" /><polyline points="266.39,-763.81 276.16,-773.81 302.13,-800.39 322.74,-822.89" fill="none" stroke="#bcbcbc" stroke-width="8" stroke-linecap="round" stroke-linejoin="round" /><polyline points="-483.61,-704.58 -494.34,-718.78 -544.63,-785.36 -616.42,-843.44" fill="none" stroke="#bcbcbc" stroke-width="8" stroke-linecap="round" stroke-linejoin="round" /><polyline points="-795.14,171.81 -785.32,148.53 -754.11,70.73 -750.33,60.51 -746.13,49.19 -744.54,45.10 -744.12,38.70 -740.12,-21.79 -738.97,-39.14" fill="none" stroke="#bcbcbc" stroke-width="8" stroke-linecap="round" stroke-linejoin="round" /><polyline points="-816.43,-453.63 -796.95,-521.20 -771.24,-610.32 -768.06,-621.36 -764.52,-633.89 -756.60,-661.95 -755.77,-664.90 -753.50,-673.92 -749.88,-684.12 -749.00,-686.59 -744.43,-697.92 -735.46,-717.70 -732.78,-723.38" fill="none" stroke="#bcbcbc" stroke-width="8" stroke-linecap="round" stroke-linejoin="round" /><polyline points="-768.06,-621.36 -728.63,-611.27 -645.12,-589.81 -597.54,-575.00 -577.69,-570.35" fill="none" stroke="#bcbcbc" stroke-width="8" stroke-linecap="round" stroke-linejoin="round" /><polyline points="43.51,-927.96 44.85,-936.16 46.20,-944.68 51.98,-973.17 66.43,-1039.49 78.30,-1098.81 80.47,-1111.12 83.41,-1127.83 83.42,-1127.85" fill="none" stroke="#bcbcbc" stroke-width="8" stroke-linecap="round" stroke-linejoin="round" /><polyline points="-73.23,349.10 -55.62,304.20 -53.44,296.13 16.42,118.82 21.33,106.02 25.30,95.17 67.05,-26.26 75.09,-33.27" fill="none" stroke="#bcbcbc" stroke-width="8" stroke-linecap="round" stroke-linejoin="round" /><polyline points="166.24,-962.29 166.24,-962.30 163.76,-975.29 163.37,-976.86 157.34,-1001.40 157.34,-1001.48 153.23,-1018.12 135.80,-1077.86 133.60,-1084.26 121.82,-1116.26 118.00,-1125.81 115.53,-1131.97 112.33,-1138.97 112.32,-1138.98 112.32,-1139.01 109.98,-1164.74 109.76,-1177.37" fill="none" stroke="#bcbcbc" stroke-width="8" stroke-linecap="round" stroke-linejoin="round" /><polyline points="140.11,51.25 135.63,56.09 128.95,64.04 110.13,117.10 104.68,132.47" fill="none" stroke="#bcbcbc" stroke-width="8" stroke-linecap="round" stroke-linejoin="round" /><polyline points="-172.60,-717.74 -170.03,-724.70 -169.45,-726.32 -157.23,-760.46 -152.65,-774.84 -115.19,-884.97" fill="none" stroke="#bcbcbc" stroke-width="8" stroke-linecap="round" stroke-linejoin="round" /><polyline points="21.17,-563.34 25.00,-573.49 35.35,-600.98 39.72,-612.60 42.69,-620.47 50.99,-642.53 56.48,-657.10 57.22,-659.07 70.51,-694.37 76.07,-692.65 79.08,-700.85 84.41,-715.35 83.39,-721.93 97.53,-760.43 98.98,-764.38 101.66,-766.85 103.92,-768.92 118.10,-807.68 120.15,-818.29 140.50,-874.82 145.31,-878.58 155.10,-906.27 153.36,-910.52 161.93,-936.38 157.48,-959.47" fill="none" stroke="#bcbcbc" stroke-width="8" stroke-linecap="round" stroke-linejoin="round" /><polyline points="385.14,-1614.76 379.44,-1624.11 349.49,-1673.25" fill="none" stroke="#bcbcbc" stroke-width="8" stroke-linecap="round" stroke-linejoin="round" /><polyline points="478.99,-967.22 616.47,-878.82 616.51,-878.77 616.51,-878.75 641.94,-875.45" fill="none" stroke="#bcbcbc" stroke-width="8" stroke-linecap="round" stroke-linejoin="round" /><polyline points="423.85,-1151.88 570.13,-1078.46 574.55,-1075.17 574.25,-1051.14 577.21,-1026.48" fill="none" stroke="#bcbcbc" stroke-width="8" stroke-linecap="round" stroke-linejoin="round" /><polyline points="144.96,145.24 139.70,161.29 118.39,226.28 82.13,335.74 79.56,343.50 76.96,351.37 76.23,359.75" fill="none" stroke="#bcbcbc" stroke-width="8" stroke-linecap="round" stroke-linejoin="round" /><polyline points="556.76,-249.58 557.64,-257.74 557.83,-265.35 557.76,-265.61 552.58,-288.01 550.46,-297.38 549.43,-301.89 548.38,-306.51 542.69,-331.57 531.58,-381.66 523.50,-411.77 522.35,-416.43" fill="none" stroke="#bcbcbc" stroke-width="8" stroke-linecap="round" stroke-linejoin="round" /><polyline points="-169.49,208.93 -165.86,198.63 -125.13,82.87 -120.50,69.73" fill="none" stroke="#bcbcbc" stroke-width="8" stroke-linecap="round" stroke-linejoin="round" /><polyline points="745.11,-733.61 733.13,-736.99 651.74,-861.86 641.94,-875.45" fill="none" stroke="#bcbcbc" stroke-width="8" stroke-linecap="round" stroke-linejoin="round" /><polyline points="-592.78,-434.00 -296.17,-362.95 -275.72,-355.48" fill="none" stroke="#bcbcbc" stroke-width="8" stroke-linecap="round" stroke-linejoin="round" /><polyline points="342.74,-1544.19 458.28,-1501.40 474.54,-1504.17" fill="none" stroke="#bcbcbc" stroke-width="8" stroke-linecap="round" stroke-linejoin="round" />
    <polyline points="167.20,352.80 318.78,264.76 345.76,250.96 352.80,252.10" fill="none" stroke="#ffffff" stroke-width="16" stroke-linecap="round" stroke-linejoin="round" />
    <polyline points="167.20,352.80 318.78,264.76 345.76,250.96 352.80,252.10" fill="none" stroke="#111111" stroke-width="9" stroke-linecap="round" stroke-linejoin="round" />
    
            <g transform="translate(167.20,352.80)">
              <circle r="19" fill="#ffffff" stroke="#111111" stroke-width="4" />
              <text text-anchor="middle" dominant-baseline="central" font-family="Helvetica, Arial, sans-serif"
                font-size="18" font-weight="700" fill="#111111">1</text>
            </g>
            
            <g transform="translate(352.80,252.10)">
              <circle r="19" fill="#ffffff" stroke="#111111" stroke-width="4" />
              <text text-anchor="middle" dominant-baseline="central" font-family="Helvetica, Arial, sans-serif"
                font-size="18" font-weight="700" fill="#111111">2</text>
            </g>
            
  </g>
</svg>
