<svg xmlns="http://www.w3.org/2000/svg" width="520" height="520" viewBox="0 0 520 520">
  <rect width="100%" height="100%" fill="#ffffff" />
  <g>
    <polyline points="283.93,-154.57 285.03,-148.74 292.10,-99.29 291.02,-86.93" fill="none" stroke="#bcbcbc" stroke-width="8" stroke-linecap="round" stroke-linejoin="round" /><polyline points="140.25,257.50 141.95,252.25 151.01,224.40 152.08,221.12 153.16,217.67 175.93,145.07 177.76,139.23 173.57,128.90" fill="none" stroke="#bcbcbc" stroke-width="8" stroke-linecap="round" stroke-linejoin="round" /><polyline points="-17.04,192.92 -17.41,188.75 -9.96,147.06 -8.92,141.85 -8.14,139.12 -6.09,128.54 -3.79,115.60 -1.28,104.21 1.21,92.83 2.78,89.63 3.80,87.66" fill="none" stroke="#bcbcbc" stroke-width="8" stroke-linecap="round" stroke-linejoin="round" /><polyline points="26.17,-101.16 24.40,-106.56 6.11,-162.35 5.21,-164.69" fill="none" stroke="#bcbcbc" stroke-width="8" stroke-linecap="round" stroke-linejoin="round" /><polyline points="-67.70,389.86 -67.15,384.54 -66.93,382.09 -64.94,360.07 -62.76,340.67 -62.25,336.14 -61.78,330.71 -61.73,330.25 -60.49,319.45 -59.43,308.47 -58.25,297.87 -57.46,289.62 -57.13,284.53 -56.84,279.83 -56.32,274.53" fill="none" stroke="#bcbcbc" stroke-width="8" stroke-linecap="round" stroke-linejoin="round" /><polyline points="185.08,270.45 186.38,266.35 195.56,237.50 196.61,234.22 198.09,229.55 199.15,226.20 207.28,191.16" fill="none" stroke="#bcbcbc" stroke-width="8" stroke-linecap="round" stroke-linejoin="round" /><polyline points="149.40,-300.33 152.79,-299.81 246.20,-285.45" fill="none" stroke="#bcbcbc" stroke-width="8" stroke-linecap="round" stroke-linejoin="round" /><polyline points="-90.43,263.65 -100.15,263.20 -106.08,262.92 -109.30,262.77 -112.13,262.64 -134.14,261.61 -164.77,260.19 -179.37,258.12 -184.25,257.43 -188.49,256.68 -217.20,251.61 -221.22,250.90 -222.11,250.75 -227.06,249.90 -230.87,249.25 -255.20,247.10 -259.83,246.69 -261.53,246.54 -266.79,246.17 -277.09,245.46" fill="none" stroke="#bcbcbc" stroke-width="8" stroke-linecap="round" stroke-linejoin="round" /><polyline points="50.84,235.44 52.72,230.08 69.69,183.04 90.11,123.70 91.42,119.98 92.33,117.38 93.07,115.25" fill="none" stroke="#bcbcbc" stroke-width="8" stroke-linecap="round" stroke-linejoin="round" /><polyline points="-261.53,246.54 -261.97,243.51 -262.07,240.23 -261.43,233.61 -259.95,221.54 -258.96,217.48 -257.36,202.82 -257.07,199.56 -256.60,195.36 -256.26,192.24 -255.60,188.71 -254.38,179.20 -253.54,171.93 -252.30,168.95" fill="none" stroke="#bcbcbc" stroke-width="8" stroke-linecap="round" stroke-linejoin="round" /><polyline points="-278.90,165.24 -256.27,168.40 -252.30,168.95 -249.84,169.35 -239.69,170.96 -216.31,174.69 -212.30,175.36" fill="none" stroke="#bcbcbc" stroke-width="8" stroke-linecap="round" stroke-linejoin="round" /><polyline points="137.71,-131.70 137.85,-129.64 138.16,-127.56 138.89,-125.96 140.27,-124.19 142.81,-121.87 148.85,-118.20 195.39,-89.00 224.06,-50.57 245.71,2.86 247.12,6.39" fill="none" stroke="#bcbcbc" stroke-width="8" stroke-linecap="round" stroke-linejoin="round" /><polyline points="130.25,24.20 131.22,25.80 131.47,26.21 132.27,30.24 137.73,56.65 139.46,65.03 140.70,71.00 142.63,83.09 143.54,88.67 144.16,92.08 144.84,95.15 145.66,96.95 146.85,99.02 147.49,100.00 159.58,117.31 166.13,127.61 167.83,130.07" fill="none" stroke="#bcbcbc" stroke-width="8" stroke-linecap="round" stroke-linejoin="round" /><polyline points="-216.93,354.81 -216.28,350.85 -215.69,347.98 -215.53,347.60 -207.48,328.46 -202.35,316.03 -200.79,312.08 -199.14,307.91 -197.34,304.32 -197.05,303.62 -194.60,297.69 -192.70,292.44 -191.08,287.62 -190.04,284.22 -188.88,280.01 -187.55,274.38 -186.54,269.80 -185.32,263.42 -185.07,261.99 -184.25,257.43" fill="none" stroke="#bcbcbc" stroke-width="8" stroke-linecap="round" stroke-linejoin="round" /><polyline points="173.06,-179.62 198.73,-161.69 202.18,-160.96 204.71,-158.06" fill="none" stroke="#bcbcbc" stroke-width="8" stroke-linecap="round" stroke-linejoin="round" /><polyline points="65.29,-14.01 68.68,-12.70 83.41,-7.89 117.57,5.21 119.48,7.12 120.38,8.55" fill="none" stroke="#bcbcbc" stroke-width="8" stroke-linecap="round" stroke-linejoin="round" /><polyline points="128.94,322.59 131.27,316.53 142.75,285.37 150.87,261.84 152.56,261.06" fill="none" stroke="#bcbcbc" stroke-width="8" stroke-linecap="round" stroke-linejoin="round" /><polyline points="-33.39,283.09 -31.57,279.08 -31.40,278.69 -28.29,268.29 -23.22,251.17 -21.92,246.79 -20.91,243.39 -20.77,241.40 -20.98,237.01" fill="none" stroke="#bcbcbc" stroke-width="8" stroke-linecap="round" stroke-linejoin="round" /><polyline points="177.69,25.57 174.78,26.17 168.18,24.99 167.16,22.27 155.73,17.92 153.03,18.62 142.71,14.84 141.17,15.91" fill="none" stroke="#bcbcbc" stroke-width="8" stroke-linecap="round" stroke-linejoin="round" /><polyline points="160.72,-328.02 165.90,-326.75 168.76,-326.25 236.91,-314.44" fill="none" stroke="#bcbcbc" stroke-width="8" stroke-linecap="round" stroke-linejoin="round" /><polyline points="107.75,303.62 110.59,295.63 116.10,280.10 119.66,273.48 124.78,259.14 126.82,253.42" fill="none" stroke="#bcbcbc" stroke-width="8" stroke-linecap="round" stroke-linejoin="round" /><polyline points="-265.63,-6.54 -270.56,-6.76 -271.80,-5.26 -280.40,5.19 -310.46,39.90 -314.69,44.79" fill="none" stroke="#bcbcbc" stroke-width="8" stroke-linecap="round" stroke-linejoin="round" /><polyline points="-1.98,23.20 -4.16,28.02 -4.42,28.61 -11.99,48.34 -19.62,70.07 -21.66,75.87 -22.81,78.86" fill="none" stroke="#bcbcbc" stroke-width="8" stroke-linecap="round" stroke-linejoin="round" /><polyline points="109.06,-198.58 111.46,-195.32 113.18,-190.83 115.85,-184.39 120.14,-174.27 123.94,-165.18 128.30,-155.19 131.53,-147.50 132.01,-146.40 132.04,-146.33 134.65,-140.24 135.42,-138.51 136.16,-136.87 136.95,-135.32 137.53,-133.76 137.71,-131.70" fill="none" stroke="#bcbcbc" stroke-width="8" stroke-linecap="round" stroke-linejoin="round" /><polyline points="-75.04,120.50 -73.78,119.81 -72.02,118.41 -71.14,116.59 -59.44,72.25 -59.09,69.75 -57.67,65.18" fill="none" stroke="#bcbcbc" stroke-width="8" stroke-linecap="round" stroke-linejoin="round" /><polyline points="333.90,51.11 335.56,56.37 336.73,61.90 334.46,82.98 331.83,98.83 330.39,104.24 330.26,104.73 329.01,107.65 327.29,110.74 323.29,115.80 325.23,125.70 318.96,146.93 315.50,158.66 308.42,177.86 298.05,201.23 285.39,223.63 281.44,230.91 274.29,242.87 245.73,283.40 239.47,291.83 215.24,323.50 201.33,339.32 181.87,359.10 180.07,359.28 175.68,362.87" fill="none" stroke="#bcbcbc" stroke-width="8" stroke-linecap="round" stroke-linejoin="round" /><polyline points="-18.50,397.80 -10.52,373.07 -9.22,368.99 -7.45,366.42 -3.64,354.99 -2.40,351.11 13.33,301.87 14.91,296.92 16.21,292.57 34.77,234.16" fill="none" stroke="#bcbcbc" stroke-width="8" stroke-linecap="round" stroke-linejoin="round" /><polyline points="168.26,-61.98 175.16,-69.51 177.19,-71.96 191.11,-91.69" fill="none" stroke="#bcbcbc" stroke-width="8" stroke-linecap="round" stroke-linejoin="round" /><polyline points="30.52,-59.00 49.49,-52.40 50.54,-50.69 55.93,-48.88 59.13,-47.79 74.43,-42.62" fill="none" stroke="#bcbcbc" stroke-width="8" stroke-linecap="round" stroke-linejoin="round" /><polyline points="195.94,-190.32 204.71,-158.06 214.88,-120.05 216.42,-116.89 216.66,-113.27 223.55,-100.41 242.15,-65.73 246.21,-59.73 247.39,-57.98 275.18,-6.04 287.95,5.57 289.74,7.88 292.26,10.04 316.51,30.77 318.15,32.18 322.51,34.49" fill="none" stroke="#bcbcbc" stroke-width="8" stroke-linecap="round" stroke-linejoin="round" /><polyline points="101.64,403.04 162.11,367.92 172.87,362.42 175.68,362.87" fill="none" stroke="#bcbcbc" stroke-width="8" stroke-linecap="round" stroke-linejoin="round" /><polyline points="141.21,-42.39 140.62,-41.79 139.81,-38.96 139.73,-38.68 136.07,-24.61 137.03,-20.93 136.23,-17.64 135.19,-13.33 132.51,-10.23 129.48,2.06 125.90,4.77 122.09,7.38 120.38,8.55" fill="none" stroke="#bcbcbc" stroke-width="8" stroke-linecap="round" stroke-linejoin="round" /><polyline points="-1.98,23.20 -0.42,19.21 8.92,-4.74 10.96,-9.96 12.64,-14.26 24.58,-44.85 29.95,-57.64 30.52,-59.00 34.69,-69.10 44.07,-92.37 47.50,-102.28 48.26,-104.55 49.29,-107.13" fill="none" stroke="#bcbcbc" stroke-width="8" stroke-linecap="round" stroke-linejoin="round" /><polyline points="102.58,-121.99 104.39,-116.61 163.69,-65.97 196.05,-37.82 244.38,4.19 248.60,7.57 250.49,8.75 258.87,16.36 270.07,25.91 295.48,47.57 303.68,54.63 309.13,61.14" fill="none" stroke="#bcbcbc" stroke-width="8" stroke-linecap="round" stroke-linejoin="round" /><polyline points="200.63,-209.26 203.64,-211.19 221.45,-218.60 225.12,-222.45" fill="none" stroke="#bcbcbc" stroke-width="8" stroke-linecap="round" stroke-linejoin="round" /><polyline points="221.21,241.47 196.61,234.22 152.08,221.12" fill="none" stroke="#bcbcbc" stroke-width="8" stroke-linecap="round" stroke-linejoin="round" /><polyline points="141.80,-281.76 145.16,-279.44 254.66,-255.08" fill="none" stroke="#bcbcbc" stroke-width="8" stroke-linecap="round" stroke-linejoin="round" /><polyline points="277.05,78.73 271.39,66.14 258.84,36.19 257.90,33.81 255.75,28.34 247.66,7.74 247.15,6.41" fill="none" stroke="#bcbcbc" stroke-width="8" stroke-linecap="round" stroke-linejoin="round" /><polyline points="109.06,-198.58 102.98,-200.31 98.51,-201.64 89.43,-204.34 84.82,-205.65 82.18,-206.39 78.73,-207.38" fill="none" stroke="#bcbcbc" stroke-width="8" stroke-linecap="round" stroke-linejoin="round" /><polyline points="-49.45,-33.86 -49.75,-34.86 -50.04,-35.57 -51.29,-38.68 -56.14,-50.00 -60.76,-61.49 -61.75,-64.20 -62.90,-67.33 -63.72,-69.89 -65.08,-73.72 -65.22,-74.12 -69.63,-85.00 -77.73,-105.44 -79.55,-106.48 -80.85,-109.79 -83.43,-118.77 -87.86,-129.90 -88.81,-132.43" fill="none" stroke="#bcbcbc" stroke-width="8" stroke-linecap="round" stroke-linejoin="round" /><polyline points="-10.52,373.07 -5.92,374.48 8.96,379.02 13.63,380.44" fill="none" stroke="#bcbcbc" stroke-width="8" stroke-linecap="round" stroke-linejoin="round" /><polyline points="267.49,-203.91 268.35,-207.42 268.00,-208.75 267.58,-210.36 264.86,-220.31 258.80,-241.36 255.60,-252.12 254.66,-255.08 246.20,-285.45 241.64,-301.84 236.91,-314.44 232.63,-325.80 228.38,-333.61 224.24,-337.74 192.49,-376.54 190.14,-379.31 188.58,-381.86" fill="none" stroke="#bcbcbc" stroke-width="8" stroke-linecap="round" stroke-linejoin="round" /><polyline points="137.71,-131.70 136.07,-131.08 133.04,-130.24 132.74,-130.16 120.09,-126.92 105.55,-122.83 102.58,-121.99 101.26,-121.57 97.76,-120.45 94.78,-119.62 81.74,-115.99 60.29,-109.90 52.30,-107.88 49.29,-107.13 35.00,-103.62 26.17,-101.16 7.47,-95.94 -11.00,-90.73 -13.14,-90.14 -28.59,-85.85 -35.71,-83.87 -39.31,-82.17 -46.12,-78.80 -59.64,-71.93 -60.58,-71.46 -63.72,-69.89 -65.64,-68.93 -68.31,-67.53 -77.81,-62.55 -95.12,-52.83 -109.58,-45.26 -111.65,-44.17 -114.42,-44.00 -116.08,-43.12 -116.41,-42.94 -132.10,-34.35 -135.38,-34.36 -139.15,-32.39 -140.47,-31.70 -141.58,-31.12 -144.20,-29.75 -146.27,-25.03 -155.15,-20.28 -157.97,-18.77 -161.03,-17.10 -173.38,-10.38 -179.77,-6.91 -182.98,-5.98" fill="none" stroke="#bcbcbc" stroke-width="8" stroke-linecap="round" stroke-linejoin="round" /><polyline points="315.50,158.66 308.91,159.26 288.32,161.15 287.39,161.24 286.07,161.36 283.95,161.55 263.98,163.38 257.04,162.74 248.95,164.77 242.48,166.35 239.02,167.20 230.45,167.53 223.03,167.15 219.25,166.75 216.03,165.77 213.66,164.46 204.83,158.22 183.38,143.49 181.36,142.12 179.30,140.72 177.76,139.23" fill="none" stroke="#bcbcbc" stroke-width="8" stroke-linecap="round" stroke-linejoin="round" /><polyline points="-170.35,-90.06 -162.57,-74.83 -161.39,-70.47 -154.84,-57.96 -152.13,-54.38 -141.17,-33.06 -140.47,-31.70" fill="none" stroke="#bcbcbc" stroke-width="8" stroke-linecap="round" stroke-linejoin="round" /><polyline points="68.18,45.44 67.01,48.65 66.69,49.64 65.17,54.25 55.54,81.11 50.76,94.45 50.59,94.91 48.67,99.06 47.57,101.52" fill="none" stroke="#bcbcbc" stroke-width="8" stroke-linecap="round" stroke-linejoin="round" /><polyline points="195.94,-190.32 194.87,-192.61 192.06,-192.98 182.98,-190.90 181.14,-191.14 179.69,-193.07 177.13,-204.88 191.04,-207.04 197.48,-208.94 200.63,-209.26 204.02,-197.21" fill="none" stroke="#bcbcbc" stroke-width="8" stroke-linecap="round" stroke-linejoin="round" /><polyline points="246.21,-59.73 249.80,-61.74 267.80,-72.59 272.61,-75.45 281.03,-80.47 294.88,-89.43 298.11,-91.75 322.41,-106.82" fill="none" stroke="#bcbcbc" stroke-width="8" stroke-linecap="round" stroke-linejoin="round" /><polyline points="331.15,11.45 325.00,9.63 321.43,6.70 307.78,-5.11 307.32,-5.53 304.02,-8.47 302.08,-11.91 267.80,-72.59" fill="none" stroke="#bcbcbc" stroke-width="8" stroke-linecap="round" stroke-linejoin="round" /><polyline points="-55.77,6.65 -1.98,23.20 2.41,24.59 42.55,37.31 43.39,37.58 49.40,39.48 52.36,40.42 56.20,41.47 64.13,44.16 68.18,45.44 71.83,46.60 101.70,56.07 133.24,65.98 135.84,66.80 139.46,65.03" fill="none" stroke="#bcbcbc" stroke-width="8" stroke-linecap="round" stroke-linejoin="round" /><polyline points="102.39,-258.90 125.70,-280.31 129.64,-283.93" fill="none" stroke="#bcbcbc" stroke-width="8" stroke-linecap="round" stroke-linejoin="round" /><polyline points="-287.79,86.55 -202.29,95.71" fill="none" stroke="#bcbcbc" stroke-width="8" stroke-linecap="round" stroke-linejoin="round" /><polyline points="-29.86,-152.08 -11.89,-158.50 6.64,-165.20 18.16,-169.68 53.32,-182.47 63.53,-186.00 65.66,-186.73 68.22,-187.61 71.09,-188.60 71.44,-188.72 77.23,-191.05 79.75,-192.06" fill="none" stroke="#bcbcbc" stroke-width="8" stroke-linecap="round" stroke-linejoin="round" /><polyline points="90.83,282.75 107.75,303.62 118.11,314.05 122.59,317.27 128.94,322.59 134.91,327.60 140.03,332.59 140.15,335.13" fill="none" stroke="#bcbcbc" stroke-width="8" stroke-linecap="round" stroke-linejoin="round" /><polyline points="109.06,-198.58 115.69,-215.20 126.42,-242.56 141.80,-281.76 149.40,-300.33 160.72,-328.02 170.00,-350.70 171.66,-353.71 179.83,-367.05 180.36,-367.92 183.34,-373.79 188.58,-381.86 191.51,-386.36 195.64,-392.73" fill="none" stroke="#bcbcbc" stroke-width="8" stroke-linecap="round" stroke-linejoin="round" /><polyline points="-47.37,245.74 -48.45,246.61 -49.17,247.64 -50.63,251.95 -51.64,255.07 -56.31,269.03 -56.96,271.05 -57.36,272.30 -61.65,271.07 -72.09,267.57 -82.43,264.10 -90.43,263.65" fill="none" stroke="#bcbcbc" stroke-width="8" stroke-linecap="round" stroke-linejoin="round" /><polyline points="-251.82,342.93 -234.77,298.91 -232.87,294.12 -231.17,289.50 -229.12,283.92 -226.59,275.15 -223.96,264.24 -222.89,256.43 -222.11,250.75 -221.00,246.56 -216.99,215.08 -212.30,175.36 -209.88,156.42 -207.17,134.17 -202.29,95.71 -201.52,89.17 -196.59,48.95 -196.59,46.71 -195.50,34.78 -192.35,9.57 -191.56,5.18 -190.74,2.71 -189.46,-0.01 -188.21,-2.11 -185.45,-5.10 -182.98,-5.95" fill="none" stroke="#bcbcbc" stroke-width="8" stroke-linecap="round" stroke-linejoin="round" /><polyline points="120.38,8.55 121.32,10.03 124.44,14.91 129.12,22.41 130.25,24.20 132.12,22.78 141.17,15.91" fill="none" stroke="#bcbcbc" stroke-width="8" stroke-linecap="round" stroke-linejoin="round" /><polyline points="126.42,-242.56 218.54,-225.91 228.22,-220.82 264.31,-202.93 267.49,-203.91" fill="none" stroke="#bcbcbc" stroke-width="8" stroke-linecap="round" stroke-linejoin="round" /><polyline points="-49.45,-33.86 -51.08,-31.47 -65.78,-24.30 -76.57,-10.58 -88.22,-3.37 -96.18,2.64 -103.78,8.84 -107.68,12.39 -114.56,21.12 -122.26,32.15 -123.53,34.20" fill="none" stroke="#bcbcbc" stroke-width="8" stroke-linecap="round" stroke-linejoin="round" /><polyline points="-33.91,-24.02 -34.54,-22.60 -35.94,-20.56 -38.57,-17.32 -54.10,2.29 -62.31,24.40 -103.77,8.82" fill="none" stroke="#bcbcbc" stroke-width="8" stroke-linecap="round" stroke-linejoin="round" /><polyline points="-96.18,2.64 -97.79,-2.22 -104.73,-23.22 -107.42,-27.37 -111.93,-40.89 -112.32,-42.06 -111.65,-44.17 -112.73,-47.62 -134.41,-116.83" fill="none" stroke="#bcbcbc" stroke-width="8" stroke-linecap="round" stroke-linejoin="round" /><polyline points="157.81,-374.97 174.94,-374.51 175.74,-374.49 179.02,-374.40 183.34,-373.79" fill="none" stroke="#bcbcbc" stroke-width="8" stroke-linecap="round" stroke-linejoin="round" /><polyline points="69.69,183.04 63.84,182.97 14.31,189.62 10.74,189.99 6.66,190.42 -17.04,192.92 -48.97,196.30 -65.90,198.08 -75.27,199.07 -82.87,199.99 -86.77,200.47 -91.17,201.00 -112.41,203.58 -117.51,204.20 -133.19,205.92 -216.99,215.08" fill="none" stroke="#bcbcbc" stroke-width="8" stroke-linecap="round" stroke-linejoin="round" /><polyline points="-3.64,354.99 -8.03,353.58 -28.52,346.98 -32.66,345.65 -36.26,344.49 -57.97,337.52 -62.25,336.14 -67.92,334.32 -102.48,323.20 -106.37,321.95" fill="none" stroke="#bcbcbc" stroke-width="8" stroke-linecap="round" stroke-linejoin="round" /><polyline points="82.05,-59.90 93.97,-56.18 137.57,-42.72 137.97,-42.60 141.21,-42.39" fill="none" stroke="#bcbcbc" stroke-width="8" stroke-linecap="round" stroke-linejoin="round" /><polyline points="204.71,-158.06 264.01,-157.02" fill="none" stroke="#bcbcbc" stroke-width="8" stroke-linecap="round" stroke-linejoin="round" /><polyline points="175.68,362.87 167.20,352.80 163.64,348.66 160.59,345.81 156.52,342.77 148.20,337.78 140.15,335.13 123.78,330.08 110.39,325.83 118.11,314.05" fill="none" stroke="#bcbcbc" stroke-width="8" stroke-linecap="round" stroke-linejoin="round" /><polyline points="90.83,282.75 79.03,268.18 76.79,265.41 64.90,249.03 62.21,244.03 62.85,238.08 66.44,238.04 75.28,239.74 88.73,242.33" fill="none" stroke="#bcbcbc" stroke-width="8" stroke-linecap="round" stroke-linejoin="round" /><polyline points="-63.58,166.02 -61.40,170.71 -48.97,196.30 -30.49,234.35 -28.13,239.20" fill="none" stroke="#bcbcbc" stroke-width="8" stroke-linecap="round" stroke-linejoin="round" /><polyline points="-262.69,281.93 -258.24,283.74 -237.42,292.26 -232.87,294.12 -228.09,296.07 -203.57,306.10 -199.14,307.91" fill="none" stroke="#bcbcbc" stroke-width="8" stroke-linecap="round" stroke-linejoin="round" /><polyline points="-53.35,128.08 -9.96,147.06" fill="none" stroke="#bcbcbc" stroke-width="8" stroke-linecap="round" stroke-linejoin="round" /><polyline points="141.21,-42.39 147.82,-42.05 148.24,-41.67 151.20,-39.04 155.56,-35.15 156.36,-33.59 171.39,-20.44 172.50,-18.34 183.06,-9.02 185.72,-8.21 193.93,-1.01 195.77,-0.17 208.16,10.34 210.92,12.79 212.44,15.21" fill="none" stroke="#bcbcbc" stroke-width="8" stroke-linecap="round" stroke-linejoin="round" /><polyline points="-274.94,128.13 -207.17,134.17" fill="none" stroke="#bcbcbc" stroke-width="8" stroke-linecap="round" stroke-linejoin="round" /><polyline points="-123.63,380.44 -121.53,375.97 -120.99,373.98 -118.05,363.13 -107.39,325.54 -106.37,321.95 -105.29,318.00 -100.46,300.34 -92.31,270.52 -90.43,263.65" fill="none" stroke="#bcbcbc" stroke-width="8" stroke-linecap="round" stroke-linejoin="round" /><polyline points="-63.58,166.02 -53.35,128.08 -75.04,120.50 -80.72,123.85 -83.31,125.82 -85.23,128.41 -86.58,131.83 -91.57,150.27 -87.54,152.32 -83.47,153.31 -74.48,155.65 -67.75,157.79 -63.58,166.02" fill="none" stroke="#bcbcbc" stroke-width="8" stroke-linecap="round" stroke-linejoin="round" /><polyline points="-91.57,150.27 -96.32,149.61 -207.17,134.17" fill="none" stroke="#bcbcbc" stroke-width="8" stroke-linecap="round" stroke-linejoin="round" /><polyline points="88.73,242.33 99.02,244.58 126.82,253.42 134.60,255.87 153.05,261.21 171.65,266.57 185.41,270.54 207.42,276.90 211.97,278.21 223.08,281.94 241.37,286.81 242.98,287.11" fill="none" stroke="#bcbcbc" stroke-width="8" stroke-linecap="round" stroke-linejoin="round" /><polyline points="101.78,402.97 98.02,403.91 93.97,415.21 87.68,413.42 59.08,403.68 55.63,402.94 47.98,402.40 13.34,402.53 5.70,401.56 -11.54,398.92 -18.49,397.80 -67.83,389.84 -86.93,386.79 -123.36,380.48 -129.24,379.32 -211.46,356.34 -216.65,354.89 -251.82,342.93 -260.47,339.86 -282.09,330.91 -294.41,326.25" fill="none" stroke="#bcbcbc" stroke-width="8" stroke-linecap="round" stroke-linejoin="round" /><polyline points="177.13,-204.88 173.57,-205.62 126.05,-200.00 109.06,-198.58" fill="none" stroke="#bcbcbc" stroke-width="8" stroke-linecap="round" stroke-linejoin="round" /><polyline points="88.73,242.33 90.40,239.55 100.37,213.94 111.51,175.22 114.35,166.88 115.87,164.61 126.63,130.08 127.17,125.96 127.57,123.27" fill="none" stroke="#bcbcbc" stroke-width="8" stroke-linecap="round" stroke-linejoin="round" /><polyline points="137.71,-131.70 138.84,-132.14 140.38,-133.36 142.72,-136.09 173.06,-179.62 181.14,-191.14" fill="none" stroke="#bcbcbc" stroke-width="8" stroke-linecap="round" stroke-linejoin="round" /><polyline points="272.75,28.21 273.37,26.42 288.62,8.48 289.74,7.88 292.39,4.26 301.26,-5.93 304.02,-8.47" fill="none" stroke="#bcbcbc" stroke-width="8" stroke-linecap="round" stroke-linejoin="round" /><polyline points="286.07,161.36 285.86,158.96 285.70,157.10 284.90,153.55 283.94,151.23 282.74,145.15 282.63,142.94 281.82,138.02 278.19,136.12 275.28,137.23 270.09,138.47 265.98,139.12 262.04,140.07 256.60,141.31 254.11,141.87" fill="none" stroke="#bcbcbc" stroke-width="8" stroke-linecap="round" stroke-linejoin="round" /><polyline points="-114.63,73.24 -103.54,47.24 -102.92,45.55" fill="none" stroke="#bcbcbc" stroke-width="8" stroke-linecap="round" stroke-linejoin="round" /><polyline points="177.69,25.57 183.04,23.50 185.83,22.41 188.00,20.23 196.91,18.03 199.90,18.79 206.35,17.13 211.27,15.86 212.44,15.21 217.22,14.04 241.62,8.06 247.15,6.41" fill="none" stroke="#bcbcbc" stroke-width="8" stroke-linecap="round" stroke-linejoin="round" /><polyline points="-47.37,245.74 -35.86,241.56 -32.01,240.38 -28.13,239.20 -20.98,237.01 -15.41,236.21 3.59,234.13 7.41,233.93 24.42,234.07 34.77,234.16 38.67,233.96 44.91,234.59 46.86,234.87 50.84,235.44 62.85,238.08" fill="none" stroke="#bcbcbc" stroke-width="8" stroke-linecap="round" stroke-linejoin="round" /><polyline points="7.47,-95.94 5.57,-102.38 -1.51,-126.33 -10.12,-153.63 -11.89,-158.50 -13.70,-163.07 -15.98,-169.65" fill="none" stroke="#bcbcbc" stroke-width="8" stroke-linecap="round" stroke-linejoin="round" /><polyline points="-13.12,290.12 -11.61,285.35 3.69,237.10 3.59,234.13" fill="none" stroke="#bcbcbc" stroke-width="8" stroke-linecap="round" stroke-linejoin="round" /><polyline points="7.41,233.93 10.44,193.30 10.74,189.99 11.21,186.14 11.21,185.96 11.41,181.25 12.43,168.47 13.00,162.51 13.77,155.74 14.49,150.87 15.12,147.82 15.92,145.50 17.50,140.29 20.75,129.45 24.88,115.45 29.44,101.13 30.37,98.21 31.11,96.09" fill="none" stroke="#bcbcbc" stroke-width="8" stroke-linecap="round" stroke-linejoin="round" /><polyline points="-91.57,150.27 -92.37,153.87 -92.23,155.02 -87.30,196.12 -86.77,200.47 -87.00,204.95 -88.29,230.50 -88.83,241.18 -89.11,246.69 -89.61,256.51 -89.87,261.62 -90.43,263.65" fill="none" stroke="#bcbcbc" stroke-width="8" stroke-linecap="round" stroke-linejoin="round" /><polyline points="-114.63,73.24 -132.58,67.91 -134.86,66.45 -146.03,63.19 -149.17,63.22 -163.20,59.00 -165.47,57.32 -178.24,53.45 -193.91,49.18 -193.99,49.18 -196.59,48.95" fill="none" stroke="#bcbcbc" stroke-width="8" stroke-linecap="round" stroke-linejoin="round" /><polyline points="212.44,15.21 213.07,16.03 215.67,19.90 220.48,27.08 225.01,31.61 233.72,41.38 232.24,50.42 231.50,53.80 230.46,55.23 232.64,58.46 236.02,65.41 242.77,78.43 246.09,84.84 248.16,90.60 249.09,93.28" fill="none" stroke="#bcbcbc" stroke-width="8" stroke-linecap="round" stroke-linejoin="round" /><polyline points="257.90,33.81 255.40,34.59 238.92,39.71 236.55,40.47 233.72,41.38" fill="none" stroke="#bcbcbc" stroke-width="8" stroke-linecap="round" stroke-linejoin="round" /><polyline points="139.46,65.03 144.61,63.36 182.02,44.25 187.03,41.81 204.66,36.72 221.76,31.91 225.01,31.61" fill="none" stroke="#bcbcbc" stroke-width="8" stroke-linecap="round" stroke-linejoin="round" /><polyline points="143.54,88.67 186.67,68.60 188.48,67.40 192.70,66.18 221.44,57.81 225.80,56.15 230.46,55.23" fill="none" stroke="#bcbcbc" stroke-width="8" stroke-linecap="round" stroke-linejoin="round" /><polyline points="134.74,-332.05 152.19,-329.90 153.95,-329.68 160.72,-328.02" fill="none" stroke="#bcbcbc" stroke-width="8" stroke-linecap="round" stroke-linejoin="round" /><polyline points="283.93,-154.57 287.03,-155.22 298.60,-149.55 300.12,-148.04 321.84,-111.28 322.41,-106.82 325.23,-104.47 324.78,-102.85 324.71,-100.20 325.11,-96.49 330.86,-72.86 331.37,-56.49 332.17,-30.35 333.52,4.83 328.02,20.17 324.47,29.51 319.29,42.68 317.79,46.49 316.81,47.56 315.25,57.75" fill="none" stroke="#bcbcbc" stroke-width="8" stroke-linecap="round" stroke-linejoin="round" /><polyline points="324.08,119.84 318.80,117.54 305.60,108.33 288.19,96.09 278.61,88.35 272.15,81.43" fill="none" stroke="#bcbcbc" stroke-width="8" stroke-linecap="round" stroke-linejoin="round" /><polyline points="110.39,325.83 105.20,324.18 96.79,321.52 92.77,320.24 88.05,318.75 82.09,316.86 76.70,315.15 71.37,313.46 47.61,305.92 43.45,304.60 38.28,302.96 37.14,302.60 23.56,299.01 19.72,298.08 14.91,296.92 9.88,295.70 -8.26,291.30 -13.12,290.12 -18.35,288.31 -29.27,284.52 -33.39,283.09 -37.07,281.89 -54.17,275.81 -56.32,274.53 -57.36,272.30" fill="none" stroke="#bcbcbc" stroke-width="8" stroke-linecap="round" stroke-linejoin="round" /><polyline points="188.48,67.40 187.22,62.89 183.47,49.43 182.02,44.25 179.94,40.39 179.74,39.67 178.51,35.11 179.95,33.09 178.23,27.35 177.69,25.57" fill="none" stroke="#bcbcbc" stroke-width="8" stroke-linecap="round" stroke-linejoin="round" /><polyline points="182.21,-97.29 185.77,-98.97 205.27,-109.72 216.42,-116.89 224.28,-122.25 226.01,-123.54 232.34,-127.94 238.90,-132.78 243.05,-135.80 248.00,-139.42 265.20,-147.18 267.43,-147.06 270.69,-148.61 283.93,-154.57" fill="none" stroke="#bcbcbc" stroke-width="8" stroke-linecap="round" stroke-linejoin="round" /><polyline points="-33.91,-24.02 -31.10,-22.88 -29.24,-22.30 5.63,-11.60 10.96,-9.96" fill="none" stroke="#bcbcbc" stroke-width="8" stroke-linecap="round" stroke-linejoin="round" /><polyline points="-282.96,54.39 -307.87,46.85" fill="none" stroke="#bcbcbc" stroke-width="8" stroke-linecap="round" stroke-linejoin="round" /><polyline points="119.43,-296.87 125.60,-289.05 126.52,-287.88 129.64,-283.93 133.19,-283.51 140.50,-282.66 141.80,-281.76" fill="none" stroke="#bcbcbc" stroke-width="8" stroke-linecap="round" stroke-linejoin="round" /><polyline points="333.90,51.11 324.11,52.93 314.08,58.38 304.78,63.56 295.98,67.96 285.35,73.73 277.65,78.41 262.43,86.56 203.05,116.44 187.65,123.22 177.48,127.62 172.44,129.27 168.27,130.05 161.44,130.46 151.72,129.09 127.48,123.27 93.07,115.25 47.79,101.59 31.11,96.09 3.80,87.66 -22.32,79.05 -60.63,64.02 -79.78,55.77 -102.88,45.51 -141.19,24.52 -150.17,18.57 -172.90,4.27 -182.43,-5.26 -196.73,-23.77 -220.28,-48.06 -229.54,-56.21" fill="none" stroke="#bcbcbc" stroke-width="8" stroke-linecap="round" stroke-linejoin="round" /><polyline points="148.20,337.78 148.60,335.54 150.05,331.89 163.64,300.10 168.77,288.19 174.82,273.34 176.29,267.91" fill="none" stroke="#bcbcbc" stroke-width="8" stroke-linecap="round" stroke-linejoin="round" /><polyline points="-112.41,203.58 -127.85,196.12 -162.96,179.12 -206.03,158.28 -209.88,156.42" fill="none" stroke="#bcbcbc" stroke-width="8" stroke-linecap="round" stroke-linejoin="round" /><polyline points="141.21,-42.39 145.10,-46.38 155.46,-56.99 163.69,-65.97" fill="none" stroke="#bcbcbc" stroke-width="8" stroke-linecap="round" stroke-linejoin="round" /><polyline points="-157.97,-18.77 -162.25,-24.43 -182.31,-50.99 -210.95,-74.16" fill="none" stroke="#bcbcbc" stroke-width="8" stroke-linecap="round" stroke-linejoin="round" /><polyline points="-282.24,330.84 -278.32,321.56 -265.87,290.52 -264.36,286.45 -262.69,281.93 -262.05,280.30 -261.89,277.74 -260.29,253.61 -259.83,246.69" fill="none" stroke="#bcbcbc" stroke-width="8" stroke-linecap="round" stroke-linejoin="round" /><polyline points="-290.73,81.34 -282.96,54.39 -272.71,18.83 -271.44,14.43 -270.03,9.43 -266.87,-1.76 -266.53,-2.94 -265.63,-6.54 -264.18,-10.61 -263.83,-11.59 -262.01,-16.11 -258.43,-24.00 -257.36,-26.27" fill="none" stroke="#bcbcbc" stroke-width="8" stroke-linecap="round" stroke-linejoin="round" /><polyline points="-271.44,14.43 -255.71,18.45 -222.39,27.02 -203.41,32.93 -195.50,34.78" fill="none" stroke="#bcbcbc" stroke-width="8" stroke-linecap="round" stroke-linejoin="round" /><polyline points="52.30,-107.88 52.83,-111.15 53.37,-114.55 55.68,-125.92 61.44,-152.37 66.18,-176.04 67.04,-180.95 68.22,-187.61 68.22,-187.62" fill="none" stroke="#bcbcbc" stroke-width="8" stroke-linecap="round" stroke-linejoin="round" /><polyline points="5.73,401.57 12.76,383.66 13.63,380.44 41.50,309.70 43.45,304.60 45.04,300.27 61.69,251.83 64.90,249.03" fill="none" stroke="#bcbcbc" stroke-width="8" stroke-linecap="round" stroke-linejoin="round" /><polyline points="101.26,-121.57 101.26,-121.58 100.27,-126.76 100.11,-127.39 97.71,-137.18 97.71,-137.21 96.07,-143.85 89.11,-167.68 88.24,-170.23 83.54,-183.00 82.01,-186.81 81.03,-189.26 79.75,-192.06 79.75,-192.06 79.75,-192.07 78.82,-202.34 78.73,-207.38" fill="none" stroke="#bcbcbc" stroke-width="8" stroke-linecap="round" stroke-linejoin="round" /><polyline points="90.83,282.75 89.05,284.68 86.38,287.85 78.87,309.02 76.70,315.15" fill="none" stroke="#bcbcbc" stroke-width="8" stroke-linecap="round" stroke-linejoin="round" /><polyline points="-33.91,-24.02 -32.88,-26.80 -32.65,-27.44 -27.77,-41.06 -25.95,-46.79 -11.00,-90.73" fill="none" stroke="#bcbcbc" stroke-width="8" stroke-linecap="round" stroke-linejoin="round" /><polyline points="43.39,37.58 44.92,33.53 49.04,22.56 50.79,17.92 51.97,14.79 55.29,5.99 57.47,0.17 57.77,-0.61 63.07,-14.70 65.29,-14.01 66.49,-17.28 68.61,-23.06 68.21,-25.69 73.85,-41.05 74.43,-42.62 75.50,-43.61 76.40,-44.43 82.05,-59.90 82.87,-64.13 90.99,-86.68 92.91,-88.18 96.81,-99.23 96.12,-100.92 99.54,-111.24 97.76,-120.45" fill="none" stroke="#bcbcbc" stroke-width="8" stroke-linecap="round" stroke-linejoin="round" /><polyline points="188.58,-381.86 186.31,-385.59 174.36,-405.19" fill="none" stroke="#bcbcbc" stroke-width="8" stroke-linecap="round" stroke-linejoin="round" /><polyline points="226.01,-123.54 280.86,-88.28 280.87,-88.25 280.87,-88.25 291.02,-86.93" fill="none" stroke="#bcbcbc" stroke-width="8" stroke-linecap="round" stroke-linejoin="round" /><polyline points="204.02,-197.21 262.37,-167.92 264.13,-166.61 264.01,-157.02 265.20,-147.18" fill="none" stroke="#bcbcbc" stroke-width="8" stroke-linecap="round" stroke-linejoin="round" /><polyline points="92.77,320.24 90.67,326.64 82.17,352.57 67.71,396.24 66.68,399.33 65.64,402.47 65.35,405.82" fill="none" stroke="#bcbcbc" stroke-width="8" stroke-linecap="round" stroke-linejoin="round" /><polyline points="257.04,162.74 257.39,159.49 257.46,156.45 257.44,156.35 255.37,147.41 254.52,143.68 254.11,141.87 253.70,140.03 251.43,130.03 246.99,110.05 243.77,98.04 243.31,96.18" fill="none" stroke="#bcbcbc" stroke-width="8" stroke-linecap="round" stroke-linejoin="round" /><polyline points="-32.66,345.65 -31.22,341.54 -14.97,295.37 -13.12,290.12" fill="none" stroke="#bcbcbc" stroke-width="8" stroke-linecap="round" stroke-linejoin="round" /><polyline points="332.17,-30.35 327.39,-31.70 294.93,-81.51 291.02,-86.93" fill="none" stroke="#bcbcbc" stroke-width="8" stroke-linecap="round" stroke-linejoin="round" /><polyline points="-201.52,89.17 -83.20,117.52 -75.04,120.50" fill="none" stroke="#bcbcbc" stroke-width="8" stroke-linecap="round" stroke-linejoin="round" /><polyline points="171.66,-353.71 217.75,-336.64 224.24,-337.74" fill="none" stroke="#bcbcbc" stroke-width="8" stroke-linecap="round" stroke-linejoin="round" />
    <polyline points="167.20,352.80 170.95,348.34 204.63,281.14 206.86,276.74 208.73,272.37 219.61,245.47 222.85,237.37 232.22,208.99 238.30,172.51 239.02,167.20" fill="none" stroke="#ffffff" stroke-width="16" stroke-linecap="round" stroke-linejoin="round" />
    <polyline points="167.20,352.80 170.95,348.34 204.63,281.14 206.86,276.74 208.73,272.37 219.61,245.47 222.85,237.37 232.22,208.99 238.30,172.51 239.02,167.20" fill="none" stroke="#111111" stroke-width="9" stroke-linecap="round" stroke-linejoin="round" />
    
            <g transform="translate(167.20,352.80)">
              <circle r="19" fill="#ffffff" stroke="#111111" stroke-width="4" />
              <text text-anchor="middle" dominant-baseline="central" font-family="Helvetica, Arial, sans-serif"
                font-size="18" font-weight="700" fill="#111111">1</text>
            </g>
            
            <g transform="translate(239.02,167.20)">
              <circle r="19" fill="#ffffff" stroke="#111111" stroke-width="4" />
              <text text-anchor="middle" dominant-baseline="central" font-family="Helvetica, Arial, sans-serif"
                font-size="18" font-weight="700" fill="#111111">2</text>
            </g>
            
  </g>
</svg>
