<svg xmlns="http://www.w3.org/2000/svg" width="520" height="520" viewBox="0 0 520 520">
  <rect width="100%" height="100%" fill="#ffffff" />
  <g>
    <polyline points="762.98,-241.48 766.97,-220.25 792.72,-40.10 788.79,4.94" fill="none" stroke="#bcbcbc" stroke-width="8" stroke-linecap="round" stroke-linejoin="round" /><polyline points="239.55,1259.80 245.78,1240.66 278.77,1139.20 282.66,1127.25 286.59,1114.69 369.54,850.17 376.21,828.90 360.93,791.27" fill="none" stroke="#bcbcbc" stroke-width="8" stroke-linecap="round" stroke-linejoin="round" /><polyline points="-333.41,1024.52 -334.75,1009.33 -307.63,857.44 -303.83,838.44 -300.99,828.49 -293.52,789.97 -285.14,742.82 -276.00,701.30 -266.93,659.87 -261.22,648.19 -257.49,641.03" fill="none" stroke="#bcbcbc" stroke-width="8" stroke-linecap="round" stroke-linejoin="round" /><polyline points="-176.00,-46.90 -182.45,-66.55 -249.09,-269.81 -252.34,-278.34" fill="none" stroke="#bcbcbc" stroke-width="8" stroke-linecap="round" stroke-linejoin="round" /><polyline points="-517.96,1742.01 -515.97,1722.61 -515.17,1713.71 -507.91,1633.46 -499.97,1562.79 -498.11,1546.29 -496.39,1526.50 -496.20,1524.83 -491.70,1485.47 -487.81,1445.47 -483.54,1406.86 -480.66,1376.81 -479.45,1358.26 -478.39,1341.13 -476.50,1321.83" fill="none" stroke="#bcbcbc" stroke-width="8" stroke-linecap="round" stroke-linejoin="round" /><polyline points="402.88,1306.96 407.63,1292.04 441.07,1186.91 444.87,1174.96 450.27,1157.95 454.14,1145.75 483.74,1018.09" fill="none" stroke="#bcbcbc" stroke-width="8" stroke-linecap="round" stroke-linejoin="round" /><polyline points="272.89,-772.51 285.24,-770.62 625.55,-718.33" fill="none" stroke="#bcbcbc" stroke-width="8" stroke-linecap="round" stroke-linejoin="round" /><polyline points="-600.75,1282.19 -636.17,1280.54 -657.77,1279.53 -669.50,1278.99 -679.79,1278.51 -760.00,1274.78 -871.57,1269.59 -924.75,1262.05 -942.54,1259.52 -957.99,1256.80 -1062.58,1238.34 -1077.19,1235.76 -1080.43,1235.20 -1098.49,1232.11 -1112.37,1229.73 -1200.99,1221.90 -1217.87,1220.40 -1224.06,1219.85 -1243.23,1218.53 -1280.74,1215.93" fill="none" stroke="#bcbcbc" stroke-width="8" stroke-linecap="round" stroke-linejoin="round" /><polyline points="-86.15,1179.42 -79.28,1159.89 -17.46,988.51 56.91,772.33 61.68,758.78 65.00,749.30 67.69,741.53" fill="none" stroke="#bcbcbc" stroke-width="8" stroke-linecap="round" stroke-linejoin="round" /><polyline points="-1224.06,1219.85 -1225.64,1208.83 -1226.02,1196.87 -1223.67,1172.77 -1218.29,1128.76 -1214.70,1113.99 -1208.87,1060.58 -1207.81,1048.69 -1206.10,1033.40 -1204.83,1022.04 -1202.45,1009.17 -1198.02,974.53 -1194.94,948.03 -1190.42,937.19" fill="none" stroke="#bcbcbc" stroke-width="8" stroke-linecap="round" stroke-linejoin="round" /><polyline points="-1287.34,923.66 -1204.88,935.17 -1190.42,937.19 -1181.47,938.62 -1144.51,944.51 -1059.34,958.08 -1044.72,960.52" fill="none" stroke="#bcbcbc" stroke-width="8" stroke-linecap="round" stroke-linejoin="round" /><polyline points="230.30,-158.17 230.84,-150.67 231.94,-143.08 234.62,-137.27 239.64,-130.79 248.91,-122.34 270.89,-108.97 440.44,-2.60 544.86,137.41 623.74,332.07 628.88,344.93" fill="none" stroke="#bcbcbc" stroke-width="8" stroke-linecap="round" stroke-linejoin="round" /><polyline points="203.15,409.82 206.66,415.63 207.58,417.14 210.49,431.83 230.38,528.02 236.69,558.56 241.21,580.30 248.25,624.38 251.54,644.71 253.81,657.11 256.30,668.31 259.27,674.85 263.62,682.41 265.95,685.98 310.00,749.05 333.83,786.58 340.05,795.55" fill="none" stroke="#bcbcbc" stroke-width="8" stroke-linecap="round" stroke-linejoin="round" /><polyline points="-1061.57,1614.30 -1059.22,1599.87 -1057.04,1589.43 -1056.46,1588.04 -1027.14,1518.32 -1008.46,1473.01 -1002.78,1458.65 -996.77,1443.44 -990.23,1430.36 -989.18,1427.81 -980.24,1406.20 -973.33,1387.08 -967.40,1369.53 -963.63,1357.13 -959.41,1341.81 -954.55,1321.27 -950.86,1304.61 -946.44,1281.35 -945.51,1276.16 -942.54,1259.52" fill="none" stroke="#bcbcbc" stroke-width="8" stroke-linecap="round" stroke-linejoin="round" /><polyline points="359.09,-332.76 452.59,-267.42 465.18,-264.75 474.40,-254.20" fill="none" stroke="#bcbcbc" stroke-width="8" stroke-linecap="round" stroke-linejoin="round" /><polyline points="-33.50,270.62 -21.15,275.37 32.50,292.92 156.94,340.64 163.92,347.60 167.20,352.80" fill="none" stroke="#bcbcbc" stroke-width="8" stroke-linecap="round" stroke-linejoin="round" /><polyline points="198.38,1496.93 206.86,1474.84 248.69,1361.34 278.27,1275.59 284.41,1272.76" fill="none" stroke="#bcbcbc" stroke-width="8" stroke-linecap="round" stroke-linejoin="round" /><polyline points="-392.96,1353.01 -386.36,1338.42 -385.71,1336.97 -374.41,1299.08 -355.91,1236.72 -351.17,1220.76 -347.49,1208.36 -347.00,1201.14 -347.75,1185.15" fill="none" stroke="#bcbcbc" stroke-width="8" stroke-linecap="round" stroke-linejoin="round" /><polyline points="375.97,414.80 365.36,416.99 341.33,412.71 337.60,402.80 295.96,386.92 286.11,389.49 248.54,375.70 242.93,379.61" fill="none" stroke="#bcbcbc" stroke-width="8" stroke-linecap="round" stroke-linejoin="round" /><polyline points="314.13,-873.39 333.00,-868.77 343.44,-866.96 591.69,-823.91" fill="none" stroke="#bcbcbc" stroke-width="8" stroke-linecap="round" stroke-linejoin="round" /><polyline points="121.19,1427.81 131.52,1398.70 151.58,1342.11 164.55,1318.01 183.21,1265.76 190.66,1244.91" fill="none" stroke="#bcbcbc" stroke-width="8" stroke-linecap="round" stroke-linejoin="round" /><polyline points="-1238.98,297.83 -1256.96,297.01 -1261.47,302.48 -1292.79,340.55 -1402.29,467.03 -1417.69,484.82" fill="none" stroke="#bcbcbc" stroke-width="8" stroke-linecap="round" stroke-linejoin="round" /><polyline points="-278.55,406.17 -286.48,423.74 -287.44,425.87 -315.02,497.78 -342.81,576.94 -350.23,598.05 -354.43,608.95" fill="none" stroke="#bcbcbc" stroke-width="8" stroke-linecap="round" stroke-linejoin="round" /><polyline points="125.95,-401.83 134.71,-389.94 140.97,-373.60 150.70,-350.14 166.32,-313.24 180.16,-280.12 196.04,-243.75 207.82,-215.73 209.57,-211.70 209.67,-211.45 219.16,-189.29 221.99,-182.99 224.68,-176.99 227.53,-171.37 229.68,-165.66 230.30,-158.17" fill="none" stroke="#bcbcbc" stroke-width="8" stroke-linecap="round" stroke-linejoin="round" /><polyline points="-544.70,760.65 -540.11,758.14 -533.70,753.04 -530.49,746.43 -487.89,584.88 -486.60,575.77 -481.40,559.12" fill="none" stroke="#bcbcbc" stroke-width="8" stroke-linecap="round" stroke-linejoin="round" /><polyline points="945.01,507.84 951.06,527.02 955.31,547.17 947.03,623.96 937.46,681.72 932.23,701.42 931.76,703.20 927.18,713.83 920.94,725.11 906.36,743.54 913.42,779.59 890.59,856.96 877.98,899.69 852.19,969.63 814.42,1054.79 768.30,1136.40 753.90,1162.92 727.86,1206.49 623.82,1354.15 601.03,1384.87 512.76,1500.22 462.08,1557.88 391.20,1629.93 384.64,1630.60 368.63,1643.69" fill="none" stroke="#bcbcbc" stroke-width="8" stroke-linecap="round" stroke-linejoin="round" /><polyline points="-338.71,1770.92 -309.67,1680.85 -304.92,1665.97 -298.47,1656.60 -284.60,1614.97 -280.08,1600.83 -222.79,1421.45 -217.02,1403.40 -212.28,1387.55 -144.66,1174.75" fill="none" stroke="#bcbcbc" stroke-width="8" stroke-linecap="round" stroke-linejoin="round" /><polyline points="341.62,95.83 366.73,68.40 374.13,59.47 424.86,-12.38" fill="none" stroke="#bcbcbc" stroke-width="8" stroke-linecap="round" stroke-linejoin="round" /><polyline points="-160.18,106.70 -91.04,130.76 -87.22,136.97 -67.59,143.56 -55.94,147.54 -0.21,166.36" fill="none" stroke="#bcbcbc" stroke-width="8" stroke-linecap="round" stroke-linejoin="round" /><polyline points="442.43,-371.74 474.40,-254.20 511.42,-115.74 517.03,-104.19 517.93,-91.02 543.03,-44.15 610.77,82.18 625.58,104.03 629.87,110.43 731.09,299.66 777.60,341.95 784.13,350.38 793.33,358.24 881.65,433.77 887.65,438.89 903.51,447.31" fill="none" stroke="#bcbcbc" stroke-width="8" stroke-linecap="round" stroke-linejoin="round" /><polyline points="98.92,1790.04 319.19,1662.08 358.40,1642.03 368.63,1643.69" fill="none" stroke="#bcbcbc" stroke-width="8" stroke-linecap="round" stroke-linejoin="round" /><polyline points="337.75,1606.99 351.41,1590.74 474.11,1345.92 482.24,1329.87 489.02,1313.97 528.66,1215.97 540.46,1186.44 574.62,1083.06 596.77,950.15 599.39,930.80" fill="none" stroke="#bcbcbc" stroke-width="8" stroke-linecap="round" stroke-linejoin="round" /><polyline points="-278.55,406.17 -272.88,391.65 -238.84,304.39 -231.42,285.36 -225.31,269.69 -181.81,158.26 -162.23,111.67 -160.18,106.70 -144.96,69.90 -110.81,-14.88 -98.31,-50.97 -95.52,-59.25 -91.78,-68.64" fill="none" stroke="#bcbcbc" stroke-width="8" stroke-linecap="round" stroke-linejoin="round" /><polyline points="102.35,-122.80 108.93,-103.20 324.95,81.32 442.83,183.88 618.89,336.93 634.26,349.23 641.14,353.53 671.69,381.26 712.49,416.06 805.04,494.97 834.93,520.68 854.76,544.40" fill="none" stroke="#bcbcbc" stroke-width="8" stroke-linecap="round" stroke-linejoin="round" /><polyline points="459.52,-440.75 470.48,-447.77 535.39,-474.75 548.72,-488.78" fill="none" stroke="#bcbcbc" stroke-width="8" stroke-linecap="round" stroke-linejoin="round" /><polyline points="534.49,1201.37 444.87,1174.96 282.66,1127.25" fill="none" stroke="#bcbcbc" stroke-width="8" stroke-linecap="round" stroke-linejoin="round" /><polyline points="245.21,-704.86 257.45,-696.42 656.33,-607.67" fill="none" stroke="#bcbcbc" stroke-width="8" stroke-linecap="round" stroke-linejoin="round" /><polyline points="737.92,608.47 717.31,562.60 671.56,453.49 668.15,444.82 660.32,424.90 630.83,349.86 628.98,345.00" fill="none" stroke="#bcbcbc" stroke-width="8" stroke-linecap="round" stroke-linejoin="round" /><polyline points="125.95,-401.83 103.80,-408.13 87.53,-412.98 54.46,-422.80 37.65,-427.59 28.02,-430.27 15.46,-433.87" fill="none" stroke="#bcbcbc" stroke-width="8" stroke-linecap="round" stroke-linejoin="round" /><polyline points="-451.46,198.30 -452.58,194.64 -453.61,192.07 -458.18,180.73 -475.86,139.51 -492.66,97.63 -496.29,87.74 -500.47,76.36 -503.46,67.04 -508.40,53.07 -508.92,51.60 -525.00,11.98 -554.51,-62.50 -561.14,-66.28 -565.86,-78.36 -575.27,-111.06 -591.40,-151.60 -594.87,-160.82" fill="none" stroke="#bcbcbc" stroke-width="8" stroke-linecap="round" stroke-linejoin="round" /><polyline points="-309.67,1680.85 -292.91,1685.98 -238.68,1702.51 -221.69,1707.68" fill="none" stroke="#bcbcbc" stroke-width="8" stroke-linecap="round" stroke-linejoin="round" /><polyline points="703.08,-421.24 706.24,-434.02 704.95,-438.88 703.40,-444.73 693.50,-481.00 671.43,-557.69 659.78,-596.90 656.33,-607.67 625.55,-718.33 608.93,-778.01 591.69,-823.91 576.11,-865.32 560.61,-893.79 545.54,-908.83 429.86,-1050.18 421.30,-1060.25 415.63,-1069.55" fill="none" stroke="#bcbcbc" stroke-width="8" stroke-linecap="round" stroke-linejoin="round" /><polyline points="230.30,-158.17 224.34,-155.89 213.31,-152.84 212.20,-152.54 166.13,-140.75 113.16,-125.84 102.35,-122.80 97.53,-121.27 84.80,-117.18 73.92,-114.15 26.42,-100.93 -51.70,-78.74 -80.82,-71.38 -91.78,-68.64 -143.84,-55.85 -176.00,-46.90 -244.11,-27.87 -311.42,-8.90 -319.21,-6.73 -375.47,8.88 -401.42,16.08 -414.52,22.28 -439.33,34.57 -488.60,59.58 -492.03,61.32 -503.46,67.04 -510.44,70.53 -520.17,75.64 -554.79,93.78 -617.85,129.17 -670.53,156.77 -678.07,160.72 -688.13,161.34 -694.18,164.56 -695.39,165.20 -752.54,196.52 -764.51,196.46 -778.24,203.65 -783.04,206.16 -787.09,208.28 -796.64,213.28 -804.17,230.45 -836.52,247.77 -846.80,253.28 -857.93,259.34 -902.93,283.83 -926.19,296.49 -937.92,299.87" fill="none" stroke="#bcbcbc" stroke-width="8" stroke-linecap="round" stroke-linejoin="round" /><polyline points="877.98,899.69 853.96,901.89 778.95,908.76 775.57,909.07 770.79,909.51 763.04,910.22 690.31,916.90 665.01,914.55 635.56,921.94 611.96,927.72 599.39,930.80 568.16,931.99 541.13,930.61 527.36,929.15 515.63,925.60 506.99,920.83 474.83,898.08 396.69,844.41 389.32,839.41 381.82,834.32 376.21,828.90" fill="none" stroke="#bcbcbc" stroke-width="8" stroke-linecap="round" stroke-linejoin="round" /><polyline points="-891.91,-6.47 -863.56,49.05 -859.26,64.91 -835.38,110.48 -825.51,123.52 -785.59,201.20 -783.04,206.16" fill="none" stroke="#bcbcbc" stroke-width="8" stroke-linecap="round" stroke-linejoin="round" /><polyline points="-22.97,487.21 -27.22,498.88 -28.41,502.50 -33.94,519.30 -69.03,617.17 -86.44,665.77 -87.03,667.43 -94.03,682.54 -98.04,691.51" fill="none" stroke="#bcbcbc" stroke-width="8" stroke-linecap="round" stroke-linejoin="round" /><polyline points="442.43,-371.74 438.54,-380.07 428.31,-381.41 395.25,-373.83 388.53,-374.70 383.26,-381.76 373.91,-424.78 424.59,-432.63 448.05,-439.55 459.52,-440.75 471.87,-396.81" fill="none" stroke="#bcbcbc" stroke-width="8" stroke-linecap="round" stroke-linejoin="round" /><polyline points="625.58,104.03 638.64,96.70 704.20,57.19 721.72,46.76 752.40,28.47 802.86,-4.16 814.63,-12.63 903.14,-67.54" fill="none" stroke="#bcbcbc" stroke-width="8" stroke-linecap="round" stroke-linejoin="round" /><polyline points="934.98,363.38 912.60,356.72 899.59,346.05 849.87,303.03 848.18,301.52 836.16,290.79 829.10,278.26 704.20,57.19" fill="none" stroke="#bcbcbc" stroke-width="8" stroke-linecap="round" stroke-linejoin="round" /><polyline points="-474.50,345.87 -278.55,406.17 -262.56,411.23 -116.33,457.59 -113.27,458.56 -91.37,465.50 -80.59,468.92 -66.60,472.75 -37.73,482.52 -22.97,487.21 -9.68,491.42 99.14,525.94 214.02,562.04 223.52,565.02 236.69,558.56" fill="none" stroke="#bcbcbc" stroke-width="8" stroke-linecap="round" stroke-linejoin="round" /><polyline points="101.67,-621.58 186.56,-699.57 200.93,-712.78" fill="none" stroke="#bcbcbc" stroke-width="8" stroke-linecap="round" stroke-linejoin="round" /><polyline points="-1319.72,636.97 -1008.26,670.35" fill="none" stroke="#bcbcbc" stroke-width="8" stroke-linecap="round" stroke-linejoin="round" /><polyline points="-380.13,-232.40 -314.66,-255.81 -247.13,-280.22 -205.18,-296.53 -77.08,-343.12 -39.90,-355.98 -32.14,-358.67 -22.83,-361.87 -12.38,-365.46 -11.10,-365.90 10.01,-374.39 19.18,-378.07" fill="none" stroke="#bcbcbc" stroke-width="8" stroke-linecap="round" stroke-linejoin="round" /><polyline points="59.56,1351.77 121.19,1427.81 158.92,1465.80 175.26,1477.56 198.38,1496.93 220.10,1515.16 238.76,1533.37 239.22,1542.63" fill="none" stroke="#bcbcbc" stroke-width="8" stroke-linecap="round" stroke-linejoin="round" /><polyline points="125.95,-401.83 150.10,-462.37 189.20,-562.05 245.21,-704.86 272.89,-772.51 314.13,-873.39 347.95,-956.02 354.00,-966.99 383.75,-1015.61 385.67,-1018.76 396.55,-1040.15 415.63,-1069.55 426.29,-1085.95 441.36,-1109.15" fill="none" stroke="#bcbcbc" stroke-width="8" stroke-linecap="round" stroke-linejoin="round" /><polyline points="-443.88,1216.93 -447.84,1220.10 -450.45,1223.87 -455.78,1239.58 -459.46,1250.92 -476.48,1301.80 -478.82,1309.15 -480.27,1313.70 -495.90,1309.22 -533.93,1296.47 -571.62,1283.83 -600.75,1282.19" fill="none" stroke="#bcbcbc" stroke-width="8" stroke-linecap="round" stroke-linejoin="round" /><polyline points="-1188.68,1571.04 -1126.57,1410.64 -1119.66,1393.18 -1113.46,1376.36 -1105.97,1356.04 -1096.78,1324.08 -1087.21,1284.35 -1083.28,1255.88 -1080.43,1235.20 -1076.41,1219.94 -1061.80,1105.25 -1044.72,960.52 -1035.89,891.52 -1026.03,810.46 -1008.26,670.35 -1005.44,646.53 -987.48,500.00 -987.47,491.84 -983.50,448.36 -972.05,356.53 -969.17,340.51 -966.18,331.52 -961.50,321.63 -956.94,313.95 -946.89,303.07 -937.90,299.98" fill="none" stroke="#bcbcbc" stroke-width="8" stroke-linecap="round" stroke-linejoin="round" /><polyline points="167.20,352.80 170.60,358.19 181.99,375.97 199.04,403.30 203.15,409.82 209.95,404.65 242.93,379.61" fill="none" stroke="#bcbcbc" stroke-width="8" stroke-linecap="round" stroke-linejoin="round" /><polyline points="189.20,-562.05 524.78,-501.38 560.02,-482.84 691.50,-417.66 703.08,-421.24" fill="none" stroke="#bcbcbc" stroke-width="8" stroke-linecap="round" stroke-linejoin="round" /><polyline points="-451.46,198.30 -457.41,206.99 -510.95,233.12 -550.27,283.09 -592.70,309.37 -621.72,331.28 -649.41,353.86 -663.60,366.80 -688.67,398.60 -716.71,438.79 -721.33,446.24" fill="none" stroke="#bcbcbc" stroke-width="8" stroke-linecap="round" stroke-linejoin="round" /><polyline points="-394.86,234.15 -397.18,239.32 -402.26,246.73 -411.85,258.54 -468.40,329.98 -498.32,410.56 -649.34,353.80" fill="none" stroke="#bcbcbc" stroke-width="8" stroke-linecap="round" stroke-linejoin="round" /><polyline points="-621.72,331.28 -627.57,313.57 -652.84,237.06 -662.65,221.94 -679.07,172.68 -680.49,168.42 -678.07,160.72 -682.00,148.16 -760.97,-103.97" fill="none" stroke="#bcbcbc" stroke-width="8" stroke-linecap="round" stroke-linejoin="round" /><polyline points="303.54,-1044.44 365.94,-1042.79 368.86,-1042.71 380.81,-1042.37 396.55,-1040.15" fill="none" stroke="#bcbcbc" stroke-width="8" stroke-linecap="round" stroke-linejoin="round" /><polyline points="-17.46,988.51 -38.77,988.25 -219.19,1012.47 -232.20,1013.84 -247.07,1015.41 -333.41,1024.52 -449.73,1036.81 -511.40,1043.31 -545.52,1046.91 -573.21,1050.28 -587.44,1052.01 -603.46,1053.95 -680.85,1063.36 -699.39,1065.61 -756.54,1071.86 -1061.80,1105.25" fill="none" stroke="#bcbcbc" stroke-width="8" stroke-linecap="round" stroke-linejoin="round" /><polyline points="-284.60,1614.97 -300.58,1609.83 -375.24,1585.80 -390.33,1580.94 -403.43,1576.73 -482.52,1551.31 -498.11,1546.29 -518.74,1539.65 -644.65,1499.14 -658.82,1494.58" fill="none" stroke="#bcbcbc" stroke-width="8" stroke-linecap="round" stroke-linejoin="round" /><polyline points="27.57,103.44 71.00,116.97 229.80,166.00 231.28,166.46 243.06,167.20" fill="none" stroke="#bcbcbc" stroke-width="8" stroke-linecap="round" stroke-linejoin="round" /><polyline points="474.40,-254.20 690.42,-250.40" fill="none" stroke="#bcbcbc" stroke-width="8" stroke-linecap="round" stroke-linejoin="round" /><polyline points="368.63,1643.69 337.75,1606.99 324.79,1591.92 313.66,1581.51 298.83,1570.44 268.54,1552.27 239.22,1542.63 179.58,1524.21 130.80,1508.72 158.92,1465.80" fill="none" stroke="#bcbcbc" stroke-width="8" stroke-linecap="round" stroke-linejoin="round" /><polyline points="59.56,1351.77 16.56,1298.70 8.38,1288.60 -34.93,1228.93 -44.73,1210.72 -42.38,1189.03 -29.32,1188.90 2.89,1195.10 51.91,1204.53" fill="none" stroke="#bcbcbc" stroke-width="8" stroke-linecap="round" stroke-linejoin="round" /><polyline points="-502.95,926.52 -495.02,943.58 -449.73,1036.81 -382.39,1175.43 -373.81,1193.11" fill="none" stroke="#bcbcbc" stroke-width="8" stroke-linecap="round" stroke-linejoin="round" /><polyline points="-1228.27,1348.78 -1212.08,1355.40 -1136.22,1386.41 -1119.66,1393.18 -1102.23,1400.31 -1012.92,1436.83 -996.77,1443.44" fill="none" stroke="#bcbcbc" stroke-width="8" stroke-linecap="round" stroke-linejoin="round" /><polyline points="-465.68,788.29 -307.63,857.44" fill="none" stroke="#bcbcbc" stroke-width="8" stroke-linecap="round" stroke-linejoin="round" /><polyline points="243.06,167.20 267.13,168.46 268.67,169.83 279.47,179.41 295.34,193.58 298.27,199.28 352.99,247.20 357.04,254.85 395.51,288.80 405.20,291.76 435.13,317.97 441.83,321.03 486.97,359.32 497.02,368.23 502.56,377.06" fill="none" stroke="#bcbcbc" stroke-width="8" stroke-linecap="round" stroke-linejoin="round" /><polyline points="-1272.88,788.45 -1026.03,810.46" fill="none" stroke="#bcbcbc" stroke-width="8" stroke-linecap="round" stroke-linejoin="round" /><polyline points="-721.71,1707.67 -714.06,1691.39 -712.09,1684.14 -701.37,1644.62 -662.54,1507.69 -658.82,1494.58 -654.89,1480.20 -637.30,1415.87 -607.59,1307.23 -600.75,1282.19" fill="none" stroke="#bcbcbc" stroke-width="8" stroke-linecap="round" stroke-linejoin="round" /><polyline points="-502.95,926.52 -465.68,788.29 -544.70,760.65 -565.39,772.86 -574.82,780.04 -581.81,789.48 -586.72,801.96 -604.89,869.13 -590.23,876.60 -575.42,880.19 -542.67,888.72 -518.16,896.52 -502.95,926.52" fill="none" stroke="#bcbcbc" stroke-width="8" stroke-linecap="round" stroke-linejoin="round" /><polyline points="-604.89,869.13 -622.20,866.72 -1026.03,810.46" fill="none" stroke="#bcbcbc" stroke-width="8" stroke-linecap="round" stroke-linejoin="round" /><polyline points="51.91,1204.53 89.36,1212.71 190.66,1244.91 218.99,1253.86 286.22,1273.28 353.94,1292.81 404.08,1307.30 484.27,1330.45 500.84,1335.24 541.31,1348.81 607.93,1366.56 613.80,1367.65" fill="none" stroke="#bcbcbc" stroke-width="8" stroke-linecap="round" stroke-linejoin="round" /><polyline points="99.42,1789.75 85.75,1793.18 70.97,1834.36 48.06,1827.86 -56.13,1792.35 -68.67,1789.67 -96.57,1787.67 -222.75,1788.18 -250.56,1784.64 -313.38,1775.03 -338.71,1770.92 -518.42,1741.93 -588.01,1730.83 -720.72,1707.84 -742.15,1703.59 -1041.66,1619.88 -1060.55,1614.59 -1188.67,1571.04 -1220.20,1559.86 -1298.93,1527.23 -1343.81,1510.25" fill="none" stroke="#bcbcbc" stroke-width="8" stroke-linecap="round" stroke-linejoin="round" /><polyline points="373.91,-424.78 360.94,-427.45 187.84,-406.99 125.95,-401.83" fill="none" stroke="#bcbcbc" stroke-width="8" stroke-linecap="round" stroke-linejoin="round" /><polyline points="51.91,1204.53 57.97,1194.38 94.30,1101.08 134.88,960.01 145.24,929.63 150.78,921.36 189.96,795.58 191.91,780.55 193.39,770.74" fill="none" stroke="#bcbcbc" stroke-width="8" stroke-linecap="round" stroke-linejoin="round" /><polyline points="230.30,-158.17 234.44,-159.75 240.04,-164.20 248.56,-174.16 359.09,-332.76 388.53,-374.70" fill="none" stroke="#bcbcbc" stroke-width="8" stroke-linecap="round" stroke-linejoin="round" /><polyline points="722.23,424.42 724.49,417.92 780.06,352.55 784.13,350.38 793.78,337.17 826.11,300.04 836.16,290.79" fill="none" stroke="#bcbcbc" stroke-width="8" stroke-linecap="round" stroke-linejoin="round" /><polyline points="770.79,909.51 770.02,900.77 769.42,894.00 766.50,881.06 762.99,872.62 758.63,850.45 758.23,842.42 755.27,824.48 742.05,817.57 731.48,821.61 712.56,826.14 697.59,828.48 683.23,831.95 663.40,836.47 654.36,838.53" fill="none" stroke="#bcbcbc" stroke-width="8" stroke-linecap="round" stroke-linejoin="round" /><polyline points="-688.93,588.49 -648.52,493.77 -646.27,487.62" fill="none" stroke="#bcbcbc" stroke-width="8" stroke-linecap="round" stroke-linejoin="round" /><polyline points="375.97,414.80 395.45,407.26 405.63,403.31 413.50,395.34 445.97,387.34 456.87,390.11 480.37,384.06 498.29,379.44 502.56,377.06 519.95,372.80 608.83,351.02 628.98,345.00" fill="none" stroke="#bcbcbc" stroke-width="8" stroke-linecap="round" stroke-linejoin="round" /><polyline points="-443.88,1216.93 -401.95,1201.71 -387.93,1197.42 -373.81,1193.11 -347.75,1185.15 -327.48,1182.23 -258.25,1174.66 -244.34,1173.90 -182.39,1174.43 -144.66,1174.75 -130.47,1174.02 -107.74,1176.33 -100.63,1177.34 -86.15,1179.42 -42.38,1189.03" fill="none" stroke="#bcbcbc" stroke-width="8" stroke-linecap="round" stroke-linejoin="round" /><polyline points="-244.11,-27.87 -251.05,-51.35 -276.85,-138.58 -308.19,-238.05 -314.66,-255.81 -321.23,-272.45 -329.54,-296.43" fill="none" stroke="#bcbcbc" stroke-width="8" stroke-linecap="round" stroke-linejoin="round" /><polyline points="-319.15,1378.64 -313.64,1361.23 -257.90,1185.47 -258.25,1174.66" fill="none" stroke="#bcbcbc" stroke-width="8" stroke-linecap="round" stroke-linejoin="round" /><polyline points="-244.34,1173.90 -233.30,1025.91 -232.20,1013.84 -230.51,999.80 -230.48,999.16 -229.76,982.00 -226.07,935.41 -224.00,913.71 -221.16,889.07 -218.57,871.32 -216.25,860.18 -213.33,851.76 -207.60,832.78 -195.76,793.27 -180.70,742.26 -164.10,690.10 -160.72,679.46 -158.00,671.75" fill="none" stroke="#bcbcbc" stroke-width="8" stroke-linecap="round" stroke-linejoin="round" /><polyline points="-604.89,869.13 -607.83,882.25 -607.33,886.44 -589.34,1036.15 -587.44,1052.01 -588.26,1068.32 -592.97,1161.43 -594.94,1200.34 -595.96,1220.40 -597.77,1256.17 -598.71,1274.79 -600.75,1282.19" fill="none" stroke="#bcbcbc" stroke-width="8" stroke-linecap="round" stroke-linejoin="round" /><polyline points="-688.93,588.49 -754.31,569.06 -762.62,563.73 -803.31,551.87 -814.74,551.99 -865.86,536.59 -874.13,530.50 -920.65,516.40 -977.73,500.84 -978.01,500.81 -987.48,500.00" fill="none" stroke="#bcbcbc" stroke-width="8" stroke-linecap="round" stroke-linejoin="round" /><polyline points="502.56,377.06 504.83,380.04 514.31,394.17 531.84,420.29 548.34,436.82 580.05,472.42 574.69,505.33 571.97,517.66 568.19,522.88 576.14,534.65 588.44,559.96 613.02,607.39 625.13,630.74 632.66,651.73 636.05,661.48" fill="none" stroke="#bcbcbc" stroke-width="8" stroke-linecap="round" stroke-linejoin="round" /><polyline points="668.15,444.82 659.03,447.66 598.99,466.34 590.38,469.10 580.05,472.42" fill="none" stroke="#bcbcbc" stroke-width="8" stroke-linecap="round" stroke-linejoin="round" /><polyline points="236.69,558.56 255.47,552.47 391.75,482.88 409.99,473.97 474.22,455.42 536.50,437.91 548.34,436.82" fill="none" stroke="#bcbcbc" stroke-width="8" stroke-linecap="round" stroke-linejoin="round" /><polyline points="251.54,644.71 408.66,571.59 415.27,567.22 430.63,562.75 535.33,532.28 551.21,526.20 568.19,522.88" fill="none" stroke="#bcbcbc" stroke-width="8" stroke-linecap="round" stroke-linejoin="round" /><polyline points="219.49,-888.09 283.08,-880.23 289.47,-879.44 314.13,-873.39" fill="none" stroke="#bcbcbc" stroke-width="8" stroke-linecap="round" stroke-linejoin="round" /><polyline points="762.98,-241.48 774.26,-243.84 816.40,-223.18 821.95,-217.69 901.06,-83.77 903.14,-67.54 913.43,-58.97 911.80,-53.05 911.55,-43.39 912.97,-29.90 933.92,56.22 935.78,115.86 938.71,211.09 943.64,339.27 923.58,395.12 910.65,429.17 891.78,477.15 886.32,491.03 882.77,494.91 877.07,532.04" fill="none" stroke="#bcbcbc" stroke-width="8" stroke-linecap="round" stroke-linejoin="round" /><polyline points="909.24,758.25 890.00,749.87 841.92,716.32 778.49,671.75 743.60,643.53 720.06,618.33" fill="none" stroke="#bcbcbc" stroke-width="8" stroke-linecap="round" stroke-linejoin="round" /><polyline points="130.80,1508.72 111.90,1502.73 81.24,1493.01 66.61,1488.37 49.42,1482.92 27.71,1476.04 8.07,1469.81 -11.33,1463.66 -97.89,1436.19 -113.04,1431.38 -131.87,1425.42 -136.03,1424.10 -185.53,1411.02 -199.50,1407.64 -217.02,1403.40 -235.36,1398.96 -301.43,1382.94 -319.15,1378.64 -338.18,1372.03 -377.96,1358.21 -392.96,1353.01 -406.37,1348.65 -468.66,1326.51 -476.50,1321.83 -480.27,1313.70" fill="none" stroke="#bcbcbc" stroke-width="8" stroke-linecap="round" stroke-linejoin="round" /><polyline points="415.27,567.22 410.68,550.77 397.01,501.74 391.75,482.88 384.15,468.79 383.44,466.17 378.96,449.58 384.18,442.22 377.91,421.30 375.97,414.80" fill="none" stroke="#bcbcbc" stroke-width="8" stroke-linecap="round" stroke-linejoin="round" /><polyline points="392.41,-32.80 405.41,-38.92 476.43,-78.08 517.03,-104.19 545.67,-123.73 551.99,-128.44 575.04,-144.46 598.92,-162.10 614.05,-173.11 632.07,-186.29 694.73,-214.56 702.86,-214.13 714.74,-219.75 762.98,-241.48" fill="none" stroke="#bcbcbc" stroke-width="8" stroke-linecap="round" stroke-linejoin="round" /><polyline points="-394.86,234.15 -384.61,238.31 -377.84,240.39 -250.82,279.41 -231.42,285.36" fill="none" stroke="#bcbcbc" stroke-width="8" stroke-linecap="round" stroke-linejoin="round" /><polyline points="-1302.12,519.80 -1392.87,492.33" fill="none" stroke="#bcbcbc" stroke-width="8" stroke-linecap="round" stroke-linejoin="round" /><polyline points="163.71,-759.92 186.21,-731.42 189.57,-727.16 200.93,-712.78 213.87,-711.26 240.48,-708.13 245.21,-704.86" fill="none" stroke="#bcbcbc" stroke-width="8" stroke-linecap="round" stroke-linejoin="round" /><polyline points="945.01,507.84 909.36,514.49 872.80,534.36 838.92,553.22 806.86,569.25 768.14,590.28 740.09,607.31 684.67,637.02 468.33,745.87 412.24,770.57 375.18,786.60 356.82,792.61 341.63,795.45 316.75,796.95 281.36,791.94 193.06,770.74 67.69,741.53 -97.24,691.78 -158.00,671.75 -257.49,641.03 -352.64,609.65 -492.20,554.89 -561.97,524.84 -646.11,487.45 -785.66,410.99 -818.38,389.29 -901.18,337.21 -935.90,302.49 -987.98,235.04 -1073.78,146.57 -1107.50,116.86" fill="none" stroke="#bcbcbc" stroke-width="8" stroke-linecap="round" stroke-linejoin="round" /><polyline points="268.54,1552.27 270.00,1544.11 275.28,1530.79 324.77,1414.99 343.46,1371.58 365.50,1317.49 370.87,1297.70" fill="none" stroke="#bcbcbc" stroke-width="8" stroke-linecap="round" stroke-linejoin="round" /><polyline points="-680.85,1063.36 -737.06,1036.15 -864.98,974.24 -1021.88,898.30 -1035.89,891.52" fill="none" stroke="#bcbcbc" stroke-width="8" stroke-linecap="round" stroke-linejoin="round" /><polyline points="243.06,167.20 257.25,152.67 294.99,114.03 324.95,81.32" fill="none" stroke="#bcbcbc" stroke-width="8" stroke-linecap="round" stroke-linejoin="round" /><polyline points="-846.80,253.28 -862.39,232.63 -935.47,135.88 -1039.78,51.46" fill="none" stroke="#bcbcbc" stroke-width="8" stroke-linecap="round" stroke-linejoin="round" /><polyline points="-1299.49,1526.99 -1285.23,1493.16 -1239.87,1380.08 -1234.37,1365.24 -1228.27,1348.78 -1225.96,1342.83 -1225.35,1333.53 -1219.54,1245.62 -1217.87,1220.40" fill="none" stroke="#bcbcbc" stroke-width="8" stroke-linecap="round" stroke-linejoin="round" /><polyline points="-1330.43,618.00 -1302.12,519.80 -1264.76,390.26 -1260.14,374.23 -1255.00,356.02 -1243.48,315.23 -1242.28,310.95 -1238.98,297.83 -1233.72,283.01 -1232.45,279.42 -1225.81,262.96 -1212.77,234.20 -1208.87,225.95" fill="none" stroke="#bcbcbc" stroke-width="8" stroke-linecap="round" stroke-linejoin="round" /><polyline points="-1260.14,374.23 -1202.85,388.88 -1081.49,420.08 -1012.34,441.61 -983.50,448.36" fill="none" stroke="#bcbcbc" stroke-width="8" stroke-linecap="round" stroke-linejoin="round" /><polyline points="-80.82,-71.38 -78.87,-83.30 -76.91,-95.68 -68.51,-137.09 -47.51,-233.47 -30.26,-319.69 -27.11,-337.58 -22.83,-361.87 -22.82,-361.89" fill="none" stroke="#bcbcbc" stroke-width="8" stroke-linecap="round" stroke-linejoin="round" /><polyline points="-250.45,1784.65 -224.87,1719.41 -221.69,1707.68 -120.17,1449.97 -113.04,1431.38 -107.27,1415.61 -46.61,1239.13 -34.93,1228.93" fill="none" stroke="#bcbcbc" stroke-width="8" stroke-linecap="round" stroke-linejoin="round" /><polyline points="97.53,-121.27 97.52,-121.29 93.93,-140.16 93.36,-142.45 84.60,-178.12 84.60,-178.23 78.62,-202.41 53.29,-289.24 50.10,-298.54 32.99,-345.04 27.43,-358.93 23.84,-367.88 19.19,-378.06 19.18,-378.07 19.18,-378.12 15.78,-415.51 15.46,-433.87" fill="none" stroke="#bcbcbc" stroke-width="8" stroke-linecap="round" stroke-linejoin="round" /><polyline points="59.56,1351.78 53.04,1358.81 43.34,1370.36 15.99,1447.48 8.07,1469.81" fill="none" stroke="#bcbcbc" stroke-width="8" stroke-linecap="round" stroke-linejoin="round" /><polyline points="-394.86,234.15 -391.12,224.03 -390.28,221.68 -372.52,172.07 -365.86,151.17 -311.42,-8.90" fill="none" stroke="#bcbcbc" stroke-width="8" stroke-linecap="round" stroke-linejoin="round" /><polyline points="-113.27,458.56 -107.72,443.80 -92.68,403.85 -86.32,386.95 -82.01,375.52 -69.94,343.46 -61.97,322.28 -60.89,319.43 -41.58,268.11 -33.50,270.62 -29.13,258.70 -21.39,237.63 -22.87,228.06 -2.32,172.11 -0.21,166.36 3.69,162.78 6.96,159.77 27.57,103.44 30.55,88.01 60.12,5.86 67.11,0.39 81.34,-39.85 78.81,-46.03 91.27,-83.62 84.80,-117.18" fill="none" stroke="#bcbcbc" stroke-width="8" stroke-linecap="round" stroke-linejoin="round" /><polyline points="415.63,-1069.55 407.34,-1083.14 363.81,-1154.56" fill="none" stroke="#bcbcbc" stroke-width="8" stroke-linecap="round" stroke-linejoin="round" /><polyline points="551.99,-128.44 751.78,0.03 751.83,0.12 751.83,0.14 788.79,4.94" fill="none" stroke="#bcbcbc" stroke-width="8" stroke-linecap="round" stroke-linejoin="round" /><polyline points="471.87,-396.81 684.44,-290.12 690.85,-285.33 690.42,-250.40 694.73,-214.56" fill="none" stroke="#bcbcbc" stroke-width="8" stroke-linecap="round" stroke-linejoin="round" /><polyline points="66.61,1488.37 58.96,1511.70 27.99,1606.16 -24.69,1765.24 -28.43,1776.52 -32.21,1787.96 -33.27,1800.14" fill="none" stroke="#bcbcbc" stroke-width="8" stroke-linecap="round" stroke-linejoin="round" /><polyline points="665.01,914.55 666.29,902.70 666.56,891.65 666.47,891.26 658.94,858.70 655.85,845.09 654.36,838.53 652.84,831.82 644.57,795.40 628.41,722.60 616.68,678.83 615.01,672.07" fill="none" stroke="#bcbcbc" stroke-width="8" stroke-linecap="round" stroke-linejoin="round" /><polyline points="-390.33,1580.94 -385.06,1565.97 -325.87,1397.74 -319.15,1378.64" fill="none" stroke="#bcbcbc" stroke-width="8" stroke-linecap="round" stroke-linejoin="round" /><polyline points="938.71,211.09 921.30,206.18 803.03,24.69 788.79,4.94" fill="none" stroke="#bcbcbc" stroke-width="8" stroke-linecap="round" stroke-linejoin="round" /><polyline points="-1005.44,646.53 -574.42,749.79 -544.70,760.65" fill="none" stroke="#bcbcbc" stroke-width="8" stroke-linecap="round" stroke-linejoin="round" /><polyline points="354.00,-966.99 521.90,-904.79 545.54,-908.83" fill="none" stroke="#bcbcbc" stroke-width="8" stroke-linecap="round" stroke-linejoin="round" />
    <polyline points="243.06,167.20 240.91,169.40 237.96,179.70 237.66,180.73 224.35,232.00 227.84,245.39 224.93,257.38 221.13,273.09 211.39,284.38 200.33,329.17 187.31,339.01 173.40,348.55 167.20,352.80" fill="none" stroke="#ffffff" stroke-width="16" stroke-linecap="round" stroke-linejoin="round" />
    <polyline points="243.06,167.20 240.91,169.40 237.96,179.70 237.66,180.73 224.35,232.00 227.84,245.39 224.93,257.38 221.13,273.09 211.39,284.38 200.33,329.17 187.31,339.01 173.40,348.55 167.20,352.80" fill="none" stroke="#111111" stroke-width="9" stroke-linecap="round" stroke-linejoin="round" />
    
            <g transform="translate(243.06,167.20)">
              <circle r="19" fill="#ffffff" stroke="#111111" stroke-width="4" />
              <text text-anchor="middle" dominant-baseline="central" font-family="Helvetica, Arial, sans-serif"
                font-size="18" font-weight="700" fill="#111111">1</text>
            </g>
            
            <g transform="translate(167.20,352.80)">
              <circle r="19" fill="#ffffff" stroke="#111111" stroke-width="4" />
              <text text-anchor="middle" dominant-baseline="central" font-family="Helvetica, Arial, sans-serif"
                font-size="18" font-weight="700" fill="#111111">2</text>
            </g>
            
  </g>
</svg>
