<svg xmlns="http://www.w3.org/2000/svg" width="520" height="520" viewBox="0 0 520 520">
  <rect width="100%" height="100%" fill="#ffffff" />
  <g>
    <polyline points="574.33,99.63 575.89,107.93 585.95,178.35 584.41,195.96" fill="none" stroke="#bcbcbc" stroke-width="8" stroke-linecap="round" stroke-linejoin="round" /><polyline points="369.72,686.49 372.16,679.00 385.05,639.34 386.57,634.67 388.11,629.76 420.53,526.36 423.14,518.05 417.17,503.34" fill="none" stroke="#bcbcbc" stroke-width="8" stroke-linecap="round" stroke-linejoin="round" /><polyline points="145.75,594.51 145.23,588.58 155.83,529.20 157.32,521.78 158.43,517.89 161.34,502.83 164.62,484.40 168.20,468.17 171.74,451.97 173.97,447.41 175.43,444.61" fill="none" stroke="#bcbcbc" stroke-width="8" stroke-linecap="round" stroke-linejoin="round" /><polyline points="207.28,175.70 204.76,168.01 178.71,88.56 177.44,85.23" fill="none" stroke="#bcbcbc" stroke-width="8" stroke-linecap="round" stroke-linejoin="round" /><polyline points="73.61,874.98 74.39,867.40 74.71,863.92 77.54,832.55 80.65,804.93 81.37,798.48 82.05,790.74 82.12,790.09 83.88,774.70 85.40,759.07 87.07,743.97 88.20,732.22 88.67,724.97 89.08,718.28 89.82,710.73" fill="none" stroke="#bcbcbc" stroke-width="8" stroke-linecap="round" stroke-linejoin="round" /><polyline points="433.57,704.92 435.42,699.09 448.50,657.99 449.98,653.32 452.09,646.67 453.60,641.90 465.17,592.00" fill="none" stroke="#bcbcbc" stroke-width="8" stroke-linecap="round" stroke-linejoin="round" /><polyline points="382.75,-107.95 387.58,-107.20 520.60,-86.76" fill="none" stroke="#bcbcbc" stroke-width="8" stroke-linecap="round" stroke-linejoin="round" /><polyline points="41.25,695.24 27.41,694.59 18.96,694.20 14.38,693.99 10.35,693.80 -21.00,692.34 -64.61,690.31 -85.40,687.36 -92.35,686.38 -98.39,685.31 -139.27,678.10 -144.99,677.09 -146.25,676.87 -153.31,675.66 -158.74,674.73 -193.38,671.67 -199.98,671.09 -202.40,670.87 -209.89,670.35 -224.55,669.34" fill="none" stroke="#bcbcbc" stroke-width="8" stroke-linecap="round" stroke-linejoin="round" /><polyline points="242.41,655.06 245.09,647.43 269.26,580.44 298.33,495.94 300.19,490.64 301.49,486.93 302.54,483.89" fill="none" stroke="#bcbcbc" stroke-width="8" stroke-linecap="round" stroke-linejoin="round" /><polyline points="-202.40,670.87 -203.02,666.56 -203.16,661.89 -202.25,652.46 -200.14,635.26 -198.74,629.49 -196.46,608.61 -196.04,603.96 -195.38,597.99 -194.88,593.55 -193.95,588.51 -192.22,574.97 -191.02,564.62 -189.25,560.38" fill="none" stroke="#bcbcbc" stroke-width="8" stroke-linecap="round" stroke-linejoin="round" /><polyline points="-227.13,555.09 -194.90,559.59 -189.25,560.38 -185.75,560.94 -171.30,563.24 -138.01,568.54 -132.30,569.50" fill="none" stroke="#bcbcbc" stroke-width="8" stroke-linecap="round" stroke-linejoin="round" /><polyline points="366.11,132.20 366.31,135.13 366.75,138.10 367.80,140.37 369.75,142.91 373.38,146.21 381.97,151.43 448.25,193.01 489.07,247.74 519.90,323.83 521.91,328.86" fill="none" stroke="#bcbcbc" stroke-width="8" stroke-linecap="round" stroke-linejoin="round" /><polyline points="355.49,354.23 356.87,356.50 357.22,357.09 358.36,362.83 366.14,400.43 368.60,412.37 370.37,420.87 373.12,438.10 374.41,446.05 375.30,450.89 376.27,455.27 377.43,457.83 379.13,460.78 380.04,462.18 397.26,486.83 406.58,501.50 409.00,505.01" fill="none" stroke="#bcbcbc" stroke-width="8" stroke-linecap="round" stroke-linejoin="round" /><polyline points="-138.88,825.06 -137.96,819.42 -137.11,815.34 -136.88,814.80 -125.42,787.54 -118.12,769.83 -115.90,764.22 -113.55,758.27 -111.00,753.16 -110.58,752.16 -107.09,743.71 -104.39,736.24 -102.07,729.38 -100.60,724.53 -98.95,718.54 -97.05,710.52 -95.60,704.00 -93.88,694.91 -93.52,692.88 -92.35,686.38" fill="none" stroke="#bcbcbc" stroke-width="8" stroke-linecap="round" stroke-linejoin="round" /><polyline points="416.45,63.96 453.00,89.49 457.92,90.54 461.52,94.66" fill="none" stroke="#bcbcbc" stroke-width="8" stroke-linecap="round" stroke-linejoin="round" /><polyline points="262.99,299.81 267.82,301.67 288.79,308.53 337.43,327.19 340.16,329.91 341.44,331.94" fill="none" stroke="#bcbcbc" stroke-width="8" stroke-linecap="round" stroke-linejoin="round" /><polyline points="353.63,779.18 356.94,770.55 373.29,726.18 384.86,692.66 387.26,691.55" fill="none" stroke="#bcbcbc" stroke-width="8" stroke-linecap="round" stroke-linejoin="round" /><polyline points="122.48,722.92 125.06,717.22 125.31,716.65 129.73,701.84 136.96,677.46 138.81,671.23 140.25,666.38 140.44,663.56 140.15,657.31" fill="none" stroke="#bcbcbc" stroke-width="8" stroke-linecap="round" stroke-linejoin="round" /><polyline points="423.05,356.18 418.90,357.03 409.50,355.36 408.05,351.48 391.77,345.28 387.92,346.28 373.23,340.89 371.04,342.42" fill="none" stroke="#bcbcbc" stroke-width="8" stroke-linecap="round" stroke-linejoin="round" /><polyline points="398.87,-147.38 406.25,-145.57 410.33,-144.86 507.37,-128.04" fill="none" stroke="#bcbcbc" stroke-width="8" stroke-linecap="round" stroke-linejoin="round" /><polyline points="323.45,752.16 327.49,740.78 335.34,718.66 340.40,709.24 347.70,688.82 350.61,680.66" fill="none" stroke="#bcbcbc" stroke-width="8" stroke-linecap="round" stroke-linejoin="round" /><polyline points="-208.23,310.45 -215.26,310.13 -217.02,312.27 -229.26,327.15 -272.07,376.59 -278.09,383.55" fill="none" stroke="#bcbcbc" stroke-width="8" stroke-linecap="round" stroke-linejoin="round" /><polyline points="167.20,352.80 164.10,359.67 163.72,360.50 152.94,388.61 142.08,419.55 139.18,427.81 137.54,432.07" fill="none" stroke="#bcbcbc" stroke-width="8" stroke-linecap="round" stroke-linejoin="round" /><polyline points="325.32,36.96 328.74,41.60 331.19,47.99 334.99,57.16 341.10,71.58 346.51,84.53 352.71,98.75 357.32,109.70 358.00,111.28 358.04,111.37 361.75,120.04 362.86,122.50 363.91,124.85 365.02,127.04 365.86,129.27 366.11,132.20" fill="none" stroke="#bcbcbc" stroke-width="8" stroke-linecap="round" stroke-linejoin="round" /><polyline points="63.16,491.37 64.95,490.39 67.46,488.39 68.72,485.81 85.37,422.66 85.87,419.10 87.90,412.59" fill="none" stroke="#bcbcbc" stroke-width="8" stroke-linecap="round" stroke-linejoin="round" /><polyline points="645.48,392.55 647.85,400.04 649.51,407.92 646.27,437.94 642.53,460.51 640.49,468.21 640.30,468.91 638.51,473.07 636.07,477.47 630.37,484.68 633.13,498.77 624.21,529.02 619.28,545.72 609.20,573.06 594.43,606.35 576.41,638.25 570.78,648.62 560.60,665.65 519.93,723.37 511.02,735.38 476.52,780.47 456.71,803.01 429.00,831.17 426.43,831.43 420.18,836.55" fill="none" stroke="#bcbcbc" stroke-width="8" stroke-linecap="round" stroke-linejoin="round" /><polyline points="143.68,886.28 155.03,851.07 156.89,845.26 159.41,841.60 164.83,825.32 166.60,819.80 189.00,749.67 191.25,742.62 193.10,736.42 219.53,653.24" fill="none" stroke="#bcbcbc" stroke-width="8" stroke-linecap="round" stroke-linejoin="round" /><polyline points="409.62,231.49 419.43,220.77 422.33,217.28 442.16,189.19" fill="none" stroke="#bcbcbc" stroke-width="8" stroke-linecap="round" stroke-linejoin="round" /><polyline points="213.47,235.74 240.50,245.15 241.99,247.57 249.66,250.15 254.22,251.70 276.00,259.06" fill="none" stroke="#bcbcbc" stroke-width="8" stroke-linecap="round" stroke-linejoin="round" /><polyline points="449.02,48.72 461.52,94.66 475.99,148.79 478.19,153.30 478.54,158.45 488.35,176.77 514.83,226.16 520.62,234.70 522.30,237.20 561.86,311.17 580.04,327.70 582.60,330.99 586.19,334.07 620.72,363.59 623.06,365.59 629.26,368.88" fill="none" stroke="#bcbcbc" stroke-width="8" stroke-linecap="round" stroke-linejoin="round" /><polyline points="314.75,893.76 400.85,843.74 416.18,835.90 420.18,836.55" fill="none" stroke="#bcbcbc" stroke-width="8" stroke-linecap="round" stroke-linejoin="round" /><polyline points="408.11,822.20 413.45,815.85 461.41,720.15 464.59,713.87 467.24,707.66 482.73,669.35 487.34,657.81 500.70,617.40 509.35,565.44 510.38,557.88" fill="none" stroke="#bcbcbc" stroke-width="8" stroke-linecap="round" stroke-linejoin="round" /><polyline points="371.09,259.39 370.25,260.25 369.10,264.28 368.98,264.68 363.78,284.72 365.14,289.95 364.01,294.64 362.52,300.78 358.71,305.19 354.39,322.70 349.30,326.55 343.86,330.28 341.44,331.94" fill="none" stroke="#bcbcbc" stroke-width="8" stroke-linecap="round" stroke-linejoin="round" /><polyline points="316.09,146.03 318.66,153.69 403.10,225.82 449.18,265.91 518.00,325.74 524.01,330.54 526.70,332.23 538.64,343.07 554.59,356.67 590.77,387.51 602.45,397.56 610.20,406.84" fill="none" stroke="#bcbcbc" stroke-width="8" stroke-linecap="round" stroke-linejoin="round" /><polyline points="455.70,21.74 459.99,19.00 485.36,8.45 490.58,2.97" fill="none" stroke="#bcbcbc" stroke-width="8" stroke-linecap="round" stroke-linejoin="round" /><polyline points="485.01,663.65 449.98,653.32 386.57,634.67" fill="none" stroke="#bcbcbc" stroke-width="8" stroke-linecap="round" stroke-linejoin="round" /><polyline points="371.93,-81.50 376.72,-78.20 532.64,-43.51" fill="none" stroke="#bcbcbc" stroke-width="8" stroke-linecap="round" stroke-linejoin="round" /><polyline points="564.53,431.88 556.47,413.95 538.59,371.30 537.26,367.91 534.20,360.13 522.67,330.79 521.95,328.89" fill="none" stroke="#bcbcbc" stroke-width="8" stroke-linecap="round" stroke-linejoin="round" /><polyline points="325.32,36.96 316.66,34.49 310.30,32.60 297.37,28.76 290.80,26.88 287.04,25.84 282.12,24.43" fill="none" stroke="#bcbcbc" stroke-width="8" stroke-linecap="round" stroke-linejoin="round" /><polyline points="99.61,271.55 99.17,270.11 98.77,269.11 96.98,264.68 90.07,248.56 83.50,232.19 82.08,228.33 80.45,223.88 79.28,220.24 77.35,214.78 77.15,214.20 70.86,198.71 59.33,169.60 56.73,168.12 54.89,163.40 51.21,150.61 44.91,134.77 43.55,131.17" fill="none" stroke="#bcbcbc" stroke-width="8" stroke-linecap="round" stroke-linejoin="round" /><polyline points="155.03,851.07 161.58,853.08 182.78,859.54 189.42,861.56" fill="none" stroke="#bcbcbc" stroke-width="8" stroke-linecap="round" stroke-linejoin="round" /><polyline points="550.91,29.37 552.15,24.37 551.64,22.47 551.04,20.18 547.17,6.01 538.54,-23.97 533.99,-39.30 532.64,-43.51 520.60,-86.76 514.11,-110.10 507.37,-128.04 501.28,-144.22 495.22,-155.35 489.33,-161.23 444.11,-216.49 440.77,-220.42 438.55,-224.06" fill="none" stroke="#bcbcbc" stroke-width="8" stroke-linecap="round" stroke-linejoin="round" /><polyline points="366.11,132.20 363.77,133.09 359.46,134.28 359.03,134.40 341.02,139.01 320.32,144.84 316.09,146.03 314.21,146.63 309.23,148.23 304.98,149.41 286.41,154.58 255.87,163.25 244.49,166.13 240.20,167.20 219.85,172.20 207.28,175.70 180.66,183.14 154.35,190.55 151.30,191.40 129.31,197.50 119.17,200.32 114.05,202.74 104.35,207.55 85.09,217.32 83.75,218.00 79.28,220.24 76.55,221.60 72.75,223.60 59.22,230.69 34.57,244.52 13.97,255.31 11.03,256.85 7.09,257.10 4.73,258.35 4.26,258.61 -18.08,270.85 -22.76,270.83 -28.13,273.64 -30.01,274.62 -31.59,275.45 -35.32,277.40 -38.26,284.11 -50.91,290.88 -54.93,293.04 -59.28,295.40 -76.87,304.98 -85.96,309.93 -90.55,311.25" fill="none" stroke="#bcbcbc" stroke-width="8" stroke-linecap="round" stroke-linejoin="round" /><polyline points="619.28,545.72 609.89,546.58 580.57,549.27 579.25,549.39 577.38,549.56 574.35,549.84 545.92,552.45 536.03,551.53 524.52,554.41 515.29,556.68 510.38,557.88 498.17,558.34 487.61,557.81 482.22,557.23 477.64,555.85 474.26,553.98 461.69,545.09 431.15,524.11 428.27,522.16 425.33,520.17 423.14,518.05" fill="none" stroke="#bcbcbc" stroke-width="8" stroke-linecap="round" stroke-linejoin="round" /><polyline points="-72.56,191.50 -61.48,213.20 -59.80,219.40 -50.46,237.22 -46.61,242.31 -31.00,272.68 -30.01,274.62" fill="none" stroke="#bcbcbc" stroke-width="8" stroke-linecap="round" stroke-linejoin="round" /><polyline points="267.10,384.48 265.44,389.04 264.98,390.46 262.81,397.02 249.10,435.28 242.29,454.28 242.06,454.93 239.33,460.83 237.76,464.34" fill="none" stroke="#bcbcbc" stroke-width="8" stroke-linecap="round" stroke-linejoin="round" /><polyline points="449.02,48.72 447.50,45.46 443.51,44.94 430.58,47.90 427.96,47.56 425.90,44.80 422.24,27.98 442.05,24.92 451.22,22.21 455.70,21.74 460.54,38.92" fill="none" stroke="#bcbcbc" stroke-width="8" stroke-linecap="round" stroke-linejoin="round" /><polyline points="520.62,234.70 525.72,231.83 551.35,216.39 558.20,212.31 570.19,205.16 589.92,192.40 594.52,189.09 629.12,167.63" fill="none" stroke="#bcbcbc" stroke-width="8" stroke-linecap="round" stroke-linejoin="round" /><polyline points="641.56,336.08 632.81,333.47 627.73,329.30 608.29,312.48 607.63,311.89 602.93,307.70 600.17,302.80 551.35,216.39" fill="none" stroke="#bcbcbc" stroke-width="8" stroke-linecap="round" stroke-linejoin="round" /><polyline points="90.60,329.23 167.20,352.80 173.45,354.78 230.61,372.90 231.80,373.28 240.37,376.00 244.58,377.33 250.05,378.83 261.33,382.65 267.10,384.48 272.30,386.13 314.84,399.62 359.74,413.73 363.46,414.90 368.60,412.37" fill="none" stroke="#bcbcbc" stroke-width="8" stroke-linecap="round" stroke-linejoin="round" /><polyline points="315.82,-48.94 349.01,-79.43 354.62,-84.59" fill="none" stroke="#bcbcbc" stroke-width="8" stroke-linecap="round" stroke-linejoin="round" /><polyline points="-239.79,443.02 -118.04,456.07" fill="none" stroke="#bcbcbc" stroke-width="8" stroke-linecap="round" stroke-linejoin="round" /><polyline points="127.49,103.19 153.08,94.04 179.48,84.49 195.88,78.12 245.95,59.90 260.48,54.88 263.52,53.83 267.16,52.58 271.24,51.17 271.74,51.00 279.99,47.68 283.58,46.24" fill="none" stroke="#bcbcbc" stroke-width="8" stroke-linecap="round" stroke-linejoin="round" /><polyline points="299.36,722.44 323.45,752.16 338.20,767.01 344.59,771.61 353.63,779.18 362.12,786.31 369.41,793.42 369.59,797.04" fill="none" stroke="#bcbcbc" stroke-width="8" stroke-linecap="round" stroke-linejoin="round" /><polyline points="325.32,36.96 334.76,13.29 350.04,-25.68 371.93,-81.50 382.75,-107.95 398.87,-147.38 412.09,-179.68 414.46,-183.97 426.09,-202.97 426.84,-204.20 431.09,-212.57 438.55,-224.06 442.71,-230.47 448.61,-239.54" fill="none" stroke="#bcbcbc" stroke-width="8" stroke-linecap="round" stroke-linejoin="round" /><polyline points="102.57,669.73 101.02,670.97 100.00,672.44 97.92,678.58 96.48,683.01 89.83,702.91 88.91,705.78 88.34,707.56 82.24,705.81 67.37,700.82 52.64,695.88 41.25,695.24" fill="none" stroke="#bcbcbc" stroke-width="8" stroke-linecap="round" stroke-linejoin="round" /><polyline points="-188.57,808.15 -164.29,745.45 -161.59,738.63 -159.16,732.05 -156.24,724.11 -152.65,711.61 -148.90,696.08 -147.37,684.95 -146.25,676.87 -144.68,670.90 -138.97,626.07 -132.30,569.50 -128.84,542.53 -124.99,510.84 -118.04,456.07 -116.94,446.76 -109.92,389.48 -109.91,386.29 -108.36,369.29 -103.89,333.40 -102.76,327.13 -101.59,323.62 -99.76,319.76 -97.98,316.75 -94.05,312.50 -90.54,311.29" fill="none" stroke="#bcbcbc" stroke-width="8" stroke-linecap="round" stroke-linejoin="round" /><polyline points="341.44,331.94 342.77,334.05 347.22,341.00 353.89,351.68 355.49,354.23 358.15,352.21 371.04,342.42" fill="none" stroke="#bcbcbc" stroke-width="8" stroke-linecap="round" stroke-linejoin="round" /><polyline points="350.04,-25.68 481.21,-1.96 494.99,5.29 546.39,30.77 550.91,29.37" fill="none" stroke="#bcbcbc" stroke-width="8" stroke-linecap="round" stroke-linejoin="round" /><polyline points="99.61,271.55 97.28,274.94 76.35,285.16 60.98,304.69 44.40,314.96 33.05,323.53 22.23,332.35 16.68,337.41 6.88,349.84 -4.08,365.55 -5.88,368.46" fill="none" stroke="#bcbcbc" stroke-width="8" stroke-linecap="round" stroke-linejoin="round" /><polyline points="121.73,285.56 120.83,287.58 118.84,290.48 115.09,295.09 92.99,323.02 81.29,354.52 22.26,332.33" fill="none" stroke="#bcbcbc" stroke-width="8" stroke-linecap="round" stroke-linejoin="round" /><polyline points="33.05,323.53 30.77,316.61 20.89,286.70 17.06,280.79 10.64,261.53 10.08,259.87 11.03,256.85 9.49,251.94 -21.38,153.39" fill="none" stroke="#bcbcbc" stroke-width="8" stroke-linecap="round" stroke-linejoin="round" /><polyline points="394.73,-214.24 419.13,-213.60 420.27,-213.57 424.94,-213.43 431.09,-212.57" fill="none" stroke="#bcbcbc" stroke-width="8" stroke-linecap="round" stroke-linejoin="round" /><polyline points="269.26,580.44 260.93,580.34 190.40,589.80 185.32,590.34 179.50,590.95 145.75,594.51 100.28,599.32 76.18,601.86 62.84,603.27 52.02,604.58 46.46,605.26 40.19,606.02 9.94,609.70 2.69,610.58 -19.65,613.02 -138.97,626.07" fill="none" stroke="#bcbcbc" stroke-width="8" stroke-linecap="round" stroke-linejoin="round" /><polyline points="164.83,825.32 158.59,823.31 129.40,813.92 123.51,812.02 118.38,810.37 87.47,800.44 81.37,798.48 73.31,795.88 24.09,780.04 18.55,778.26" fill="none" stroke="#bcbcbc" stroke-width="8" stroke-linecap="round" stroke-linejoin="round" /><polyline points="286.86,234.46 303.83,239.75 365.91,258.92 366.49,259.10 371.09,259.39" fill="none" stroke="#bcbcbc" stroke-width="8" stroke-linecap="round" stroke-linejoin="round" /><polyline points="461.52,94.66 545.97,96.15" fill="none" stroke="#bcbcbc" stroke-width="8" stroke-linecap="round" stroke-linejoin="round" /><polyline points="420.18,836.55 408.11,822.20 403.04,816.31 398.69,812.24 392.89,807.92 381.05,800.81 369.59,797.04 346.28,789.84 327.21,783.79 338.20,767.01" fill="none" stroke="#bcbcbc" stroke-width="8" stroke-linecap="round" stroke-linejoin="round" /><polyline points="299.36,722.44 282.55,701.69 279.36,697.74 262.43,674.42 258.60,667.30 259.52,658.82 264.62,658.77 277.21,661.19 296.37,664.88" fill="none" stroke="#bcbcbc" stroke-width="8" stroke-linecap="round" stroke-linejoin="round" /><polyline points="79.48,556.21 82.58,562.87 100.28,599.32 126.61,653.51 129.96,660.42" fill="none" stroke="#bcbcbc" stroke-width="8" stroke-linecap="round" stroke-linejoin="round" /><polyline points="-204.04,721.27 -197.71,723.86 -168.06,735.98 -161.59,738.63 -154.78,741.41 -119.86,755.69 -113.55,758.27" fill="none" stroke="#bcbcbc" stroke-width="8" stroke-linecap="round" stroke-linejoin="round" /><polyline points="94.05,502.17 155.83,529.20" fill="none" stroke="#bcbcbc" stroke-width="8" stroke-linecap="round" stroke-linejoin="round" /><polyline points="371.09,259.39 380.50,259.88 381.10,260.42 385.33,264.16 391.53,269.70 392.68,271.93 414.07,290.66 415.65,293.65 430.69,306.92 434.47,308.08 446.17,318.32 448.79,319.52 466.44,334.49 470.36,337.97 472.53,341.42" fill="none" stroke="#bcbcbc" stroke-width="8" stroke-linecap="round" stroke-linejoin="round" /><polyline points="-221.48,502.23 -124.99,510.84" fill="none" stroke="#bcbcbc" stroke-width="8" stroke-linecap="round" stroke-linejoin="round" /><polyline points="-6.03,861.56 -3.04,855.19 -2.27,852.36 1.92,836.91 17.10,783.39 18.55,778.26 20.09,772.64 26.96,747.49 38.58,705.02 41.25,695.24" fill="none" stroke="#bcbcbc" stroke-width="8" stroke-linecap="round" stroke-linejoin="round" /><polyline points="79.48,556.21 94.05,502.17 63.16,491.37 55.07,496.14 51.39,498.95 48.66,502.64 46.74,507.51 39.63,533.77 45.36,536.69 51.15,538.10 63.96,541.43 73.54,544.48 79.48,556.21" fill="none" stroke="#bcbcbc" stroke-width="8" stroke-linecap="round" stroke-linejoin="round" /><polyline points="39.63,533.77 32.87,532.83 -124.99,510.84" fill="none" stroke="#bcbcbc" stroke-width="8" stroke-linecap="round" stroke-linejoin="round" /><polyline points="296.37,664.88 311.01,668.08 350.61,680.66 361.68,684.17 387.96,691.76 414.44,699.39 434.04,705.05 465.38,714.10 471.86,715.98 487.68,721.28 513.72,728.22 516.01,728.65" fill="none" stroke="#bcbcbc" stroke-width="8" stroke-linecap="round" stroke-linejoin="round" /><polyline points="314.95,893.64 309.60,894.98 303.83,911.08 294.87,908.54 254.14,894.66 249.24,893.61 238.33,892.83 189.01,893.03 178.14,891.64 153.59,887.89 143.68,886.28 73.43,874.95 46.23,870.61 -5.64,861.63 -14.02,859.96 -131.10,827.24 -138.48,825.17 -188.57,808.15 -200.89,803.78 -231.66,791.02 -249.21,784.39" fill="none" stroke="#bcbcbc" stroke-width="8" stroke-linecap="round" stroke-linejoin="round" /><polyline points="422.24,27.98 417.17,26.94 349.51,34.94 325.32,36.96" fill="none" stroke="#bcbcbc" stroke-width="8" stroke-linecap="round" stroke-linejoin="round" /><polyline points="296.37,664.88 298.74,660.91 312.94,624.44 328.81,569.30 332.85,557.42 335.02,554.19 350.34,505.02 351.10,499.15 351.68,495.31" fill="none" stroke="#bcbcbc" stroke-width="8" stroke-linecap="round" stroke-linejoin="round" /><polyline points="366.11,132.20 367.72,131.58 369.91,129.84 373.24,125.95 416.45,63.96 427.96,47.56" fill="none" stroke="#bcbcbc" stroke-width="8" stroke-linecap="round" stroke-linejoin="round" /><polyline points="558.40,359.94 559.28,357.39 581.00,331.84 582.60,330.99 586.37,325.83 599.00,311.32 602.93,307.70" fill="none" stroke="#bcbcbc" stroke-width="8" stroke-linecap="round" stroke-linejoin="round" /><polyline points="577.38,549.56 577.08,546.14 576.85,543.49 575.70,538.44 574.33,535.14 572.63,526.47 572.47,523.33 571.31,516.32 566.15,513.62 562.01,515.20 554.62,516.97 548.77,517.88 543.15,519.24 535.40,521.01 531.87,521.81" fill="none" stroke="#bcbcbc" stroke-width="8" stroke-linecap="round" stroke-linejoin="round" /><polyline points="6.78,424.07 22.58,387.05 23.46,384.64" fill="none" stroke="#bcbcbc" stroke-width="8" stroke-linecap="round" stroke-linejoin="round" /><polyline points="423.05,356.18 430.66,353.23 434.64,351.69 437.72,348.57 450.41,345.44 454.67,346.52 463.85,344.16 470.86,342.35 472.53,341.42 479.33,339.76 514.07,331.24 521.95,328.89" fill="none" stroke="#bcbcbc" stroke-width="8" stroke-linecap="round" stroke-linejoin="round" /><polyline points="102.57,669.73 118.96,663.78 124.44,662.10 129.96,660.42 140.15,657.31 148.07,656.17 175.13,653.20 180.57,652.91 204.78,653.11 219.53,653.24 225.08,652.96 233.97,653.86 236.74,654.25 242.41,655.06 259.52,658.82" fill="none" stroke="#bcbcbc" stroke-width="8" stroke-linecap="round" stroke-linejoin="round" /><polyline points="180.66,183.14 177.95,173.96 167.86,139.86 155.61,100.98 153.08,94.04 150.51,87.53 147.27,78.16" fill="none" stroke="#bcbcbc" stroke-width="8" stroke-linecap="round" stroke-linejoin="round" /><polyline points="151.33,732.94 153.48,726.14 175.27,657.43 175.13,653.20" fill="none" stroke="#bcbcbc" stroke-width="8" stroke-linecap="round" stroke-linejoin="round" /><polyline points="180.57,652.91 184.89,595.06 185.32,590.34 185.98,584.85 185.99,584.60 186.27,577.89 187.71,559.68 188.52,551.20 189.63,541.57 190.64,534.63 191.55,530.27 192.69,526.98 194.93,519.56 199.56,504.12 205.45,484.18 211.94,463.79 213.26,459.63 214.32,456.62" fill="none" stroke="#bcbcbc" stroke-width="8" stroke-linecap="round" stroke-linejoin="round" /><polyline points="39.63,533.77 38.48,538.90 38.68,540.54 45.71,599.06 46.46,605.26 46.13,611.64 44.29,648.03 43.52,663.24 43.12,671.08 42.42,685.07 42.05,692.35 41.25,695.24" fill="none" stroke="#bcbcbc" stroke-width="8" stroke-linecap="round" stroke-linejoin="round" /><polyline points="6.78,424.07 -18.77,416.48 -22.02,414.39 -37.93,409.76 -42.40,409.80 -62.38,403.78 -65.61,401.40 -83.79,395.89 -106.11,389.81 -106.22,389.80 -109.92,389.48" fill="none" stroke="#bcbcbc" stroke-width="8" stroke-linecap="round" stroke-linejoin="round" /><polyline points="472.53,341.42 473.42,342.59 477.12,348.11 483.98,358.32 490.42,364.78 502.82,378.70 500.73,391.56 499.66,396.39 498.18,398.42 501.29,403.02 506.10,412.92 515.71,431.46 520.44,440.59 523.38,448.79 524.71,452.60" fill="none" stroke="#bcbcbc" stroke-width="8" stroke-linecap="round" stroke-linejoin="round" /><polyline points="537.26,367.91 533.69,369.02 510.23,376.32 506.86,377.40 502.82,378.70" fill="none" stroke="#bcbcbc" stroke-width="8" stroke-linecap="round" stroke-linejoin="round" /><polyline points="368.60,412.37 375.94,409.99 429.22,382.79 436.35,379.30 461.45,372.05 485.80,365.21 490.42,364.78" fill="none" stroke="#bcbcbc" stroke-width="8" stroke-linecap="round" stroke-linejoin="round" /><polyline points="374.41,446.05 435.82,417.47 438.41,415.76 444.42,414.01 485.34,402.10 491.55,399.72 498.18,398.42" fill="none" stroke="#bcbcbc" stroke-width="8" stroke-linecap="round" stroke-linejoin="round" /><polyline points="361.88,-153.13 386.74,-150.05 389.24,-149.74 398.87,-147.38" fill="none" stroke="#bcbcbc" stroke-width="8" stroke-linecap="round" stroke-linejoin="round" /><polyline points="574.33,99.63 578.74,98.71 595.21,106.79 597.38,108.94 628.30,161.28 629.12,167.63 633.14,170.98 632.50,173.29 632.40,177.07 632.96,182.34 641.15,216.00 641.87,239.32 643.02,276.54 644.95,326.65 637.10,348.48 632.05,361.79 624.67,380.55 622.54,385.97 621.15,387.49 618.92,402.00" fill="none" stroke="#bcbcbc" stroke-width="8" stroke-linecap="round" stroke-linejoin="round" /><polyline points="631.50,490.43 623.98,487.16 605.18,474.04 580.39,456.62 566.75,445.59 557.55,435.73" fill="none" stroke="#bcbcbc" stroke-width="8" stroke-linecap="round" stroke-linejoin="round" /><polyline points="327.21,783.79 319.82,781.45 307.84,777.65 302.12,775.84 295.40,773.71 286.91,771.01 279.24,768.58 271.65,766.17 237.82,755.44 231.89,753.56 224.53,751.23 222.91,750.71 203.56,745.60 198.10,744.28 191.25,742.62 184.08,740.88 158.26,734.62 151.33,732.94 143.89,730.36 128.34,724.96 122.48,722.92 117.23,721.22 92.89,712.56 89.82,710.73 88.34,707.56" fill="none" stroke="#bcbcbc" stroke-width="8" stroke-linecap="round" stroke-linejoin="round" /><polyline points="438.41,415.76 436.62,409.33 431.27,390.16 429.22,382.79 426.24,377.28 425.97,376.26 424.22,369.77 426.26,366.90 423.81,358.72 423.05,356.18" fill="none" stroke="#bcbcbc" stroke-width="8" stroke-linecap="round" stroke-linejoin="round" /><polyline points="429.47,181.21 434.55,178.82 462.32,163.51 478.19,153.30 489.38,145.66 491.85,143.82 500.86,137.56 510.20,130.67 516.11,126.36 523.16,121.21 547.65,110.16 550.83,110.33 555.47,108.13 574.33,99.63" fill="none" stroke="#bcbcbc" stroke-width="8" stroke-linecap="round" stroke-linejoin="round" /><polyline points="121.73,285.56 125.74,287.19 128.39,288.00 178.04,303.25 185.62,305.58" fill="none" stroke="#bcbcbc" stroke-width="8" stroke-linecap="round" stroke-linejoin="round" /><polyline points="-232.91,397.22 -268.38,386.48" fill="none" stroke="#bcbcbc" stroke-width="8" stroke-linecap="round" stroke-linejoin="round" /><polyline points="340.08,-103.02 348.87,-91.88 350.18,-90.22 354.62,-84.59 359.68,-84.00 370.08,-82.78 371.93,-81.50" fill="none" stroke="#bcbcbc" stroke-width="8" stroke-linecap="round" stroke-linejoin="round" /><polyline points="645.48,392.55 631.55,395.15 617.26,402.91 604.01,410.28 591.48,416.55 576.34,424.77 565.38,431.43 543.72,443.04 459.15,485.59 437.22,495.25 422.74,501.51 415.56,503.86 409.62,504.97 399.90,505.56 386.07,503.60 351.55,495.31 302.54,483.89 238.07,464.45 214.32,456.62 175.43,444.61 138.24,432.34 83.69,410.94 56.41,399.19 23.52,384.57 -31.03,354.69 -43.82,346.20 -76.18,325.84 -89.76,312.27 -110.12,285.91 -143.65,251.33 -156.84,239.71" fill="none" stroke="#bcbcbc" stroke-width="8" stroke-linecap="round" stroke-linejoin="round" /><polyline points="381.05,800.81 381.62,797.62 383.69,792.42 403.03,747.15 410.34,730.18 418.95,709.04 421.05,701.30" fill="none" stroke="#bcbcbc" stroke-width="8" stroke-linecap="round" stroke-linejoin="round" /><polyline points="9.94,609.70 -12.03,599.06 -62.03,574.86 -123.37,545.17 -128.84,542.53" fill="none" stroke="#bcbcbc" stroke-width="8" stroke-linecap="round" stroke-linejoin="round" /><polyline points="371.09,259.39 376.64,253.71 391.39,238.60 403.10,225.82" fill="none" stroke="#bcbcbc" stroke-width="8" stroke-linecap="round" stroke-linejoin="round" /><polyline points="-54.93,293.04 -61.02,284.97 -89.59,247.14 -130.36,214.15" fill="none" stroke="#bcbcbc" stroke-width="8" stroke-linecap="round" stroke-linejoin="round" /><polyline points="-231.88,790.93 -226.31,777.71 -208.58,733.50 -206.43,727.70 -204.04,721.27 -203.14,718.94 -202.90,715.31 -200.63,680.94 -199.98,671.09" fill="none" stroke="#bcbcbc" stroke-width="8" stroke-linecap="round" stroke-linejoin="round" /><polyline points="-243.98,435.61 -232.91,397.22 -218.31,346.58 -216.50,340.32 -214.49,333.20 -209.99,317.25 -209.52,315.58 -208.23,310.45 -206.17,304.66 -205.68,303.26 -203.08,296.82 -197.98,285.58 -196.46,282.35" fill="none" stroke="#bcbcbc" stroke-width="8" stroke-linecap="round" stroke-linejoin="round" /><polyline points="-216.50,340.32 -194.10,346.04 -146.67,358.24 -119.64,366.65 -108.36,369.30" fill="none" stroke="#bcbcbc" stroke-width="8" stroke-linecap="round" stroke-linejoin="round" /><polyline points="244.49,166.13 245.25,161.47 246.02,156.63 249.30,140.44 257.51,102.77 264.25,69.06 265.48,62.07 267.16,52.58 267.16,52.57" fill="none" stroke="#bcbcbc" stroke-width="8" stroke-linecap="round" stroke-linejoin="round" /><polyline points="178.18,891.65 188.18,866.15 189.42,861.56 229.11,760.82 231.89,753.56 234.15,747.39 257.86,678.40 262.43,674.42" fill="none" stroke="#bcbcbc" stroke-width="8" stroke-linecap="round" stroke-linejoin="round" /><polyline points="314.21,146.63 314.20,146.62 312.80,139.24 312.58,138.34 309.15,124.40 309.15,124.36 306.82,114.91 296.91,80.97 295.66,77.33 288.98,59.15 286.80,53.73 285.40,50.22 283.58,46.25 283.58,46.24 283.58,46.22 282.25,31.61 282.12,24.43" fill="none" stroke="#bcbcbc" stroke-width="8" stroke-linecap="round" stroke-linejoin="round" /><polyline points="299.36,722.44 296.82,725.19 293.02,729.71 282.33,759.85 279.24,768.58" fill="none" stroke="#bcbcbc" stroke-width="8" stroke-linecap="round" stroke-linejoin="round" /><polyline points="121.73,285.56 123.19,281.60 123.52,280.68 130.47,261.29 133.07,253.12 154.35,190.55" fill="none" stroke="#bcbcbc" stroke-width="8" stroke-linecap="round" stroke-linejoin="round" /><polyline points="231.80,373.28 233.98,367.51 239.85,351.89 242.34,345.29 244.02,340.82 248.74,328.29 251.86,320.01 252.28,318.89 259.83,298.84 262.99,299.81 264.70,295.16 267.72,286.92 267.14,283.18 275.18,261.31 276.00,259.06 277.53,257.66 278.80,256.49 286.86,234.46 288.02,228.43 299.58,196.32 302.32,194.18 307.88,178.45 306.89,176.04 311.76,161.34 309.23,148.23" fill="none" stroke="#bcbcbc" stroke-width="8" stroke-linecap="round" stroke-linejoin="round" /><polyline points="438.55,-224.06 435.31,-229.37 418.29,-257.29" fill="none" stroke="#bcbcbc" stroke-width="8" stroke-linecap="round" stroke-linejoin="round" /><polyline points="491.85,143.82 569.95,194.04 569.97,194.08 569.97,194.09 584.41,195.96" fill="none" stroke="#bcbcbc" stroke-width="8" stroke-linecap="round" stroke-linejoin="round" /><polyline points="460.54,38.92 543.63,80.62 546.13,82.49 545.97,96.15 547.65,110.16" fill="none" stroke="#bcbcbc" stroke-width="8" stroke-linecap="round" stroke-linejoin="round" /><polyline points="302.12,775.84 299.13,784.95 287.02,821.88 266.43,884.06 264.97,888.47 263.49,892.94 263.08,897.70" fill="none" stroke="#bcbcbc" stroke-width="8" stroke-linecap="round" stroke-linejoin="round" /><polyline points="536.03,551.53 536.53,546.90 536.64,542.57 536.60,542.42 533.66,529.70 532.45,524.38 531.87,521.81 531.27,519.19 528.04,504.95 521.73,476.49 517.14,459.39 516.49,456.74" fill="none" stroke="#bcbcbc" stroke-width="8" stroke-linecap="round" stroke-linejoin="round" /><polyline points="123.51,812.02 125.57,806.17 148.70,740.41 151.33,732.94" fill="none" stroke="#bcbcbc" stroke-width="8" stroke-linecap="round" stroke-linejoin="round" /><polyline points="643.02,276.54 636.21,274.62 589.98,203.68 584.41,195.96" fill="none" stroke="#bcbcbc" stroke-width="8" stroke-linecap="round" stroke-linejoin="round" /><polyline points="-116.94,446.76 51.54,487.12 63.16,491.37" fill="none" stroke="#bcbcbc" stroke-width="8" stroke-linecap="round" stroke-linejoin="round" /><polyline points="414.46,-183.97 480.09,-159.65 489.33,-161.23" fill="none" stroke="#bcbcbc" stroke-width="8" stroke-linecap="round" stroke-linejoin="round" />
    <polyline points="167.20,352.80 169.41,347.13 182.72,313.02 185.62,305.58 188.01,299.45 205.01,255.89 212.67,237.68 213.47,235.74 219.42,221.35 232.77,188.21 237.65,174.10 238.74,170.87 240.20,167.20" fill="none" stroke="#ffffff" stroke-width="16" stroke-linecap="round" stroke-linejoin="round" />
    <polyline points="167.20,352.80 169.41,347.13 182.72,313.02 185.62,305.58 188.01,299.45 205.01,255.89 212.67,237.68 213.47,235.74 219.42,221.35 232.77,188.21 237.65,174.10 238.74,170.87 240.20,167.20" fill="none" stroke="#111111" stroke-width="9" stroke-linecap="round" stroke-linejoin="round" />
    
            <g transform="translate(167.20,352.80)">
              <circle r="19" fill="#ffffff" stroke="#111111" stroke-width="4" />
              <text text-anchor="middle" dominant-baseline="central" font-family="Helvetica, Arial, sans-serif"
                font-size="18" font-weight="700" fill="#111111">1</text>
            </g>
            
            <g transform="translate(240.20,167.20)">
              <circle r="19" fill="#ffffff" stroke="#111111" stroke-width="4" />
              <text text-anchor="middle" dominant-baseline="central" font-family="Helvetica, Arial, sans-serif"
                font-size="18" font-weight="700" fill="#111111">2</text>
            </g>
            
  </g>
</svg>
