<svg xmlns="http://www.w3.org/2000/svg" width="520" height="520" viewBox="0 0 520 520">
  <rect width="100%" height="100%" fill="#ffffff" />
  <g>
    <polyline points="330.16,158.94 331.14,164.18 337.50,208.62 336.53,219.73" fill="none" stroke="#bcbcbc" stroke-width="8" stroke-linecap="round" stroke-linejoin="round" /><polyline points="201.05,529.27 202.58,524.55 210.72,499.52 211.68,496.57 212.65,493.47 233.11,428.22 234.75,422.98 230.99,413.69" fill="none" stroke="#bcbcbc" stroke-width="8" stroke-linecap="round" stroke-linejoin="round" /><polyline points="59.71,471.23 59.38,467.48 66.07,430.02 67.01,425.33 67.71,422.88 69.55,413.37 71.62,401.74 73.87,391.50 76.11,381.28 77.52,378.40 78.44,376.64" fill="none" stroke="#bcbcbc" stroke-width="8" stroke-linecap="round" stroke-linejoin="round" /><polyline points="98.54,206.94 96.95,202.09 80.51,151.96 79.71,149.85" fill="none" stroke="#bcbcbc" stroke-width="8" stroke-linecap="round" stroke-linejoin="round" /><polyline points="14.19,648.22 14.68,643.43 14.88,641.24 16.67,621.44 18.63,604.01 19.08,599.94 19.51,595.06 19.56,594.64 20.67,584.94 21.62,575.07 22.68,565.55 23.39,558.13 23.69,553.56 23.95,549.33 24.41,544.57" fill="none" stroke="#bcbcbc" stroke-width="8" stroke-linecap="round" stroke-linejoin="round" /><polyline points="241.33,540.90 242.50,537.22 250.75,511.29 251.69,508.34 253.02,504.14 253.98,501.14 261.28,469.64" fill="none" stroke="#bcbcbc" stroke-width="8" stroke-linecap="round" stroke-linejoin="round" /><polyline points="209.27,27.95 212.31,28.42 296.26,41.32" fill="none" stroke="#bcbcbc" stroke-width="8" stroke-linecap="round" stroke-linejoin="round" /><polyline points="-6.23,534.79 -14.97,534.38 -20.30,534.14 -23.19,534.00 -25.73,533.88 -45.52,532.96 -73.04,531.68 -86.16,529.82 -90.55,529.20 -94.35,528.53 -120.15,523.97 -123.76,523.34 -124.56,523.20 -129.01,522.44 -132.44,521.85 -154.30,519.92 -158.46,519.55 -159.99,519.42 -164.72,519.09 -173.97,518.45" fill="none" stroke="#bcbcbc" stroke-width="8" stroke-linecap="round" stroke-linejoin="round" /><polyline points="120.70,509.44 122.40,504.62 137.65,462.35 155.99,409.02 157.17,405.68 157.99,403.34 158.65,401.43" fill="none" stroke="#bcbcbc" stroke-width="8" stroke-linecap="round" stroke-linejoin="round" /><polyline points="-159.99,519.42 -160.38,516.70 -160.47,513.74 -159.89,507.80 -158.56,496.94 -157.68,493.30 -156.24,480.13 -155.98,477.19 -155.56,473.42 -155.25,470.62 -154.66,467.44 -153.56,458.90 -152.81,452.36 -151.69,449.69" fill="none" stroke="#bcbcbc" stroke-width="8" stroke-linecap="round" stroke-linejoin="round" /><polyline points="-175.60,446.35 -155.26,449.19 -151.69,449.69 -149.48,450.04 -140.36,451.50 -119.36,454.84 -115.75,455.44" fill="none" stroke="#bcbcbc" stroke-width="8" stroke-linecap="round" stroke-linejoin="round" /><polyline points="198.76,179.50 198.89,181.35 199.17,183.22 199.83,184.65 201.07,186.25 203.35,188.33 208.77,191.63 250.60,217.87 276.36,252.41 295.81,300.42 297.08,303.60" fill="none" stroke="#bcbcbc" stroke-width="8" stroke-linecap="round" stroke-linejoin="round" /><polyline points="192.07,319.60 192.93,321.04 193.16,321.41 193.88,325.03 198.78,348.76 200.34,356.29 201.45,361.66 203.19,372.53 204.00,377.54 204.56,380.60 205.18,383.36 205.91,384.98 206.98,386.84 207.56,387.72 218.42,403.28 224.30,412.54 225.83,414.75" fill="none" stroke="#bcbcbc" stroke-width="8" stroke-linecap="round" stroke-linejoin="round" /><polyline points="-119.91,616.71 -119.33,613.15 -118.79,610.58 -118.65,610.24 -111.41,593.04 -106.80,581.86 -105.40,578.32 -103.92,574.57 -102.31,571.34 -102.05,570.71 -99.84,565.38 -98.14,560.66 -96.68,556.34 -95.75,553.28 -94.71,549.50 -93.51,544.43 -92.60,540.32 -91.51,534.58 -91.28,533.30 -90.55,529.20" fill="none" stroke="#bcbcbc" stroke-width="8" stroke-linecap="round" stroke-linejoin="round" /><polyline points="230.53,136.43 253.59,152.55 256.70,153.21 258.98,155.81" fill="none" stroke="#bcbcbc" stroke-width="8" stroke-linecap="round" stroke-linejoin="round" /><polyline points="133.69,285.27 136.74,286.44 149.97,290.77 180.67,302.54 182.39,304.26 183.20,305.54" fill="none" stroke="#bcbcbc" stroke-width="8" stroke-linecap="round" stroke-linejoin="round" /><polyline points="190.89,587.76 192.98,582.31 203.30,554.32 210.60,533.16 212.11,532.47" fill="none" stroke="#bcbcbc" stroke-width="8" stroke-linecap="round" stroke-linejoin="round" /><polyline points="45.02,552.26 46.65,548.66 46.81,548.30 49.60,538.96 54.16,523.58 55.33,519.64 56.24,516.58 56.36,514.80 56.17,510.85" fill="none" stroke="#bcbcbc" stroke-width="8" stroke-linecap="round" stroke-linejoin="round" /><polyline points="234.69,320.83 232.08,321.37 226.15,320.32 225.23,317.87 214.96,313.95 212.53,314.59 203.26,311.19 201.88,312.15" fill="none" stroke="#bcbcbc" stroke-width="8" stroke-linecap="round" stroke-linejoin="round" /><polyline points="219.44,3.07 224.10,4.21 226.67,4.66 287.91,15.28" fill="none" stroke="#bcbcbc" stroke-width="8" stroke-linecap="round" stroke-linejoin="round" /><polyline points="171.85,570.71 174.40,563.53 179.35,549.57 182.54,543.63 187.15,530.74 188.99,525.60" fill="none" stroke="#bcbcbc" stroke-width="8" stroke-linecap="round" stroke-linejoin="round" /><polyline points="-163.67,291.98 -168.10,291.78 -169.21,293.13 -176.94,302.51 -203.95,333.71 -207.75,338.10" fill="none" stroke="#bcbcbc" stroke-width="8" stroke-linecap="round" stroke-linejoin="round" /><polyline points="73.24,318.70 71.29,323.04 71.05,323.56 64.25,341.30 57.39,360.83 55.56,366.03 54.53,368.72" fill="none" stroke="#bcbcbc" stroke-width="8" stroke-linecap="round" stroke-linejoin="round" /><polyline points="173.02,119.39 175.18,122.32 176.73,126.36 179.13,132.14 182.98,141.24 186.39,149.41 190.31,158.38 193.22,165.30 193.65,166.29 193.67,166.35 196.01,171.82 196.71,173.37 197.38,174.85 198.08,176.24 198.61,177.65 198.76,179.50" fill="none" stroke="#bcbcbc" stroke-width="8" stroke-linecap="round" stroke-linejoin="round" /><polyline points="7.59,406.14 8.72,405.52 10.30,404.27 11.10,402.63 21.61,362.79 21.92,360.54 23.20,356.43" fill="none" stroke="#bcbcbc" stroke-width="8" stroke-linecap="round" stroke-linejoin="round" /><polyline points="375.06,343.78 376.55,348.51 377.60,353.48 375.56,372.42 373.20,386.67 371.91,391.53 371.79,391.97 370.66,394.59 369.12,397.38 365.53,401.92 367.27,410.81 361.64,429.90 358.53,440.44 352.17,457.69 342.85,478.70 331.47,498.83 327.92,505.37 321.50,516.12 295.83,552.54 290.21,560.12 268.44,588.57 255.94,602.80 238.45,620.57 236.83,620.74 232.88,623.96" fill="none" stroke="#bcbcbc" stroke-width="8" stroke-linecap="round" stroke-linejoin="round" /><polyline points="58.40,655.35 65.57,633.13 66.74,629.46 68.33,627.15 71.75,616.88 72.87,613.39 87.00,569.14 88.42,564.69 89.59,560.78 106.27,508.29" fill="none" stroke="#bcbcbc" stroke-width="8" stroke-linecap="round" stroke-linejoin="round" /><polyline points="226.22,242.15 232.42,235.38 234.24,233.18 246.75,215.46" fill="none" stroke="#bcbcbc" stroke-width="8" stroke-linecap="round" stroke-linejoin="round" /><polyline points="102.44,244.83 119.50,250.77 120.44,252.30 125.28,253.92 128.16,254.91 141.90,259.55" fill="none" stroke="#bcbcbc" stroke-width="8" stroke-linecap="round" stroke-linejoin="round" /><polyline points="251.09,126.81 258.98,155.81 268.11,189.96 269.49,192.81 269.71,196.06 275.90,207.62 292.62,238.78 296.27,244.17 297.33,245.75 322.29,292.43 333.77,302.86 335.38,304.94 337.65,306.88 359.43,325.51 360.91,326.77 364.82,328.85" fill="none" stroke="#bcbcbc" stroke-width="8" stroke-linecap="round" stroke-linejoin="round" /><polyline points="166.36,660.06 220.69,628.50 230.36,623.55 232.88,623.96" fill="none" stroke="#bcbcbc" stroke-width="8" stroke-linecap="round" stroke-linejoin="round" /><polyline points="225.27,614.91 228.64,610.90 258.90,550.51 260.91,546.55 262.58,542.63 272.36,518.46 275.27,511.17 283.70,485.67 289.16,452.89 289.81,448.11" fill="none" stroke="#bcbcbc" stroke-width="8" stroke-linecap="round" stroke-linejoin="round" /><polyline points="201.91,259.76 201.38,260.30 200.65,262.84 200.58,263.09 197.29,275.74 198.16,279.04 197.44,282.00 196.50,285.88 194.10,288.66 191.37,299.71 188.16,302.14 184.73,304.49 183.20,305.54" fill="none" stroke="#bcbcbc" stroke-width="8" stroke-linecap="round" stroke-linejoin="round" /><polyline points="73.24,318.70 74.64,315.12 83.04,293.60 84.87,288.90 86.38,285.04 97.11,257.55 101.94,246.06 102.44,244.83 106.20,235.75 114.62,214.84 117.70,205.94 118.39,203.90 119.31,201.58" fill="none" stroke="#bcbcbc" stroke-width="8" stroke-linecap="round" stroke-linejoin="round" /><polyline points="255.30,109.79 258.01,108.06 274.02,101.40 277.31,97.94" fill="none" stroke="#bcbcbc" stroke-width="8" stroke-linecap="round" stroke-linejoin="round" /><polyline points="273.80,514.86 251.69,508.34 211.68,496.57" fill="none" stroke="#bcbcbc" stroke-width="8" stroke-linecap="round" stroke-linejoin="round" /><polyline points="202.44,44.64 205.46,46.72 303.85,68.62" fill="none" stroke="#bcbcbc" stroke-width="8" stroke-linecap="round" stroke-linejoin="round" /><polyline points="323.98,368.60 318.89,357.29 307.61,330.38 306.77,328.24 304.84,323.32 297.56,304.81 297.10,303.61" fill="none" stroke="#bcbcbc" stroke-width="8" stroke-linecap="round" stroke-linejoin="round" /><polyline points="173.02,119.39 167.56,117.84 163.55,116.64 155.39,114.22 151.24,113.04 148.87,112.38 145.77,111.49" fill="none" stroke="#bcbcbc" stroke-width="8" stroke-linecap="round" stroke-linejoin="round" /><polyline points="30.59,267.43 30.31,266.52 30.06,265.89 28.93,263.09 24.57,252.92 20.43,242.59 19.53,240.16 18.50,237.35 17.76,235.05 16.55,231.60 16.42,231.24 12.45,221.47 5.17,203.10 3.54,202.16 2.37,199.18 0.05,191.12 -3.93,181.12 -4.78,178.84" fill="none" stroke="#bcbcbc" stroke-width="8" stroke-linecap="round" stroke-linejoin="round" /><polyline points="65.57,633.13 69.70,634.40 83.08,638.47 87.27,639.75" fill="none" stroke="#bcbcbc" stroke-width="8" stroke-linecap="round" stroke-linejoin="round" /><polyline points="315.38,114.60 316.16,111.45 315.85,110.25 315.46,108.81 313.02,99.86 307.58,80.94 304.70,71.27 303.85,68.62 296.26,41.32 292.16,26.60 287.91,15.28 284.07,5.06 280.24,-1.96 276.52,-5.67 247.99,-40.54 245.88,-43.02 244.48,-45.32" fill="none" stroke="#bcbcbc" stroke-width="8" stroke-linecap="round" stroke-linejoin="round" /><polyline points="198.76,179.50 197.29,180.06 194.57,180.81 194.30,180.88 182.93,183.79 169.87,187.47 167.20,188.22 166.01,188.60 162.87,189.61 160.19,190.35 148.47,193.61 129.20,199.09 122.02,200.90 119.31,201.58 106.47,204.73 98.54,206.94 81.74,211.64 65.13,216.32 63.21,216.85 49.34,220.70 42.93,222.48 39.70,224.01 33.58,227.04 21.43,233.21 20.58,233.64 17.76,235.05 16.04,235.91 13.64,237.17 5.10,241.65 -10.45,250.37 -23.45,257.18 -25.31,258.16 -27.79,258.31 -29.28,259.10 -29.58,259.26 -43.68,266.99 -46.63,266.97 -50.02,268.75 -51.20,269.37 -52.20,269.89 -54.56,271.12 -56.41,275.36 -64.39,279.63 -66.93,280.99 -69.67,282.48 -80.77,288.52 -86.51,291.65 -89.41,292.48" fill="none" stroke="#bcbcbc" stroke-width="8" stroke-linecap="round" stroke-linejoin="round" /><polyline points="358.53,440.44 352.60,440.98 334.10,442.68 333.27,442.75 332.09,442.86 330.18,443.04 312.23,444.69 305.99,444.11 298.73,445.93 292.91,447.35 289.81,448.11 282.10,448.41 275.44,448.07 272.04,447.71 269.15,446.83 267.02,445.65 259.08,440.04 239.81,426.80 237.99,425.57 236.14,424.32 234.75,422.98" fill="none" stroke="#bcbcbc" stroke-width="8" stroke-linecap="round" stroke-linejoin="round" /><polyline points="-78.06,216.92 -71.06,230.61 -70.00,234.52 -64.11,245.77 -61.68,248.98 -51.83,268.14 -51.20,269.37" fill="none" stroke="#bcbcbc" stroke-width="8" stroke-linecap="round" stroke-linejoin="round" /><polyline points="136.29,338.69 135.24,341.57 134.95,342.46 133.58,346.61 124.93,370.75 120.63,382.74 120.49,383.15 118.76,386.87 117.77,389.09" fill="none" stroke="#bcbcbc" stroke-width="8" stroke-linecap="round" stroke-linejoin="round" /><polyline points="251.09,126.81 250.13,124.76 247.61,124.43 239.45,126.30 237.79,126.08 236.49,124.34 234.19,113.73 246.69,111.79 252.47,110.09 255.30,109.79 258.35,120.63" fill="none" stroke="#bcbcbc" stroke-width="8" stroke-linecap="round" stroke-linejoin="round" /><polyline points="296.27,244.17 299.49,242.36 315.66,232.62 319.98,230.05 327.55,225.53 340.00,217.48 342.90,215.40 364.73,201.85" fill="none" stroke="#bcbcbc" stroke-width="8" stroke-linecap="round" stroke-linejoin="round" /><polyline points="372.59,308.15 367.07,306.50 363.86,303.87 351.59,293.26 351.18,292.89 348.21,290.24 346.47,287.15 315.66,232.62" fill="none" stroke="#bcbcbc" stroke-width="8" stroke-linecap="round" stroke-linejoin="round" /><polyline points="24.91,303.83 73.24,318.70 77.19,319.95 113.26,331.39 114.01,331.62 119.42,333.34 122.07,334.18 125.53,335.13 132.65,337.54 136.29,338.69 139.57,339.73 166.41,348.25 194.75,357.15 197.09,357.89 200.34,356.29" fill="none" stroke="#bcbcbc" stroke-width="8" stroke-linecap="round" stroke-linejoin="round" /><polyline points="167.03,65.19 187.97,45.95 191.52,42.69" fill="none" stroke="#bcbcbc" stroke-width="8" stroke-linecap="round" stroke-linejoin="round" /><polyline points="-183.59,375.63 -106.76,383.87" fill="none" stroke="#bcbcbc" stroke-width="8" stroke-linecap="round" stroke-linejoin="round" /><polyline points="48.19,161.19 64.34,155.41 80.99,149.39 91.34,145.37 122.94,133.87 132.11,130.70 134.03,130.04 136.32,129.25 138.90,128.36 139.22,128.25 144.42,126.16 146.69,125.25" fill="none" stroke="#bcbcbc" stroke-width="8" stroke-linecap="round" stroke-linejoin="round" /><polyline points="156.65,551.96 171.85,570.71 181.16,580.08 185.18,582.98 190.89,587.76 196.25,592.26 200.85,596.75 200.96,599.03" fill="none" stroke="#bcbcbc" stroke-width="8" stroke-linecap="round" stroke-linejoin="round" /><polyline points="173.02,119.39 178.98,104.46 188.62,79.87 202.44,44.64 209.27,27.95 219.44,3.07 227.78,-17.31 229.28,-20.02 236.61,-32.01 237.09,-32.79 239.77,-38.07 244.48,-45.32 247.11,-49.36 250.83,-55.08" fill="none" stroke="#bcbcbc" stroke-width="8" stroke-linecap="round" stroke-linejoin="round" /><polyline points="32.46,518.69 31.48,519.48 30.84,520.40 29.53,524.28 28.62,527.08 24.42,539.63 23.84,541.44 23.48,542.56 19.63,541.46 10.25,538.31 0.95,535.20 -6.23,534.79" fill="none" stroke="#bcbcbc" stroke-width="8" stroke-linecap="round" stroke-linejoin="round" /><polyline points="-151.26,606.04 -135.94,566.48 -134.23,562.17 -132.71,558.02 -130.86,553.01 -128.59,545.12 -126.23,535.32 -125.26,528.30 -124.56,523.20 -123.57,519.44 -119.96,491.14 -115.75,455.44 -113.57,438.42 -111.14,418.43 -106.76,383.87 -106.06,377.99 -101.63,341.85 -101.63,339.83 -100.65,329.11 -97.82,306.46 -97.11,302.51 -96.38,300.29 -95.22,297.85 -94.10,295.95 -91.62,293.27 -89.40,292.51" fill="none" stroke="#bcbcbc" stroke-width="8" stroke-linecap="round" stroke-linejoin="round" /><polyline points="183.20,305.54 184.04,306.87 186.85,311.25 191.05,317.99 192.07,319.60 193.74,318.33 201.88,312.15" fill="none" stroke="#bcbcbc" stroke-width="8" stroke-linecap="round" stroke-linejoin="round" /><polyline points="188.62,79.87 271.40,94.83 280.10,99.41 312.53,115.49 315.38,114.60" fill="none" stroke="#bcbcbc" stroke-width="8" stroke-linecap="round" stroke-linejoin="round" /><polyline points="30.59,267.43 29.12,269.57 15.92,276.01 6.22,288.34 -4.25,294.82 -11.41,300.23 -18.24,305.80 -21.74,308.99 -27.92,316.84 -34.84,326.75 -35.98,328.59" fill="none" stroke="#bcbcbc" stroke-width="8" stroke-linecap="round" stroke-linejoin="round" /><polyline points="44.55,276.27 43.98,277.54 42.73,279.37 40.36,282.29 26.41,299.91 19.03,319.79 -18.22,305.78" fill="none" stroke="#bcbcbc" stroke-width="8" stroke-linecap="round" stroke-linejoin="round" /><polyline points="-11.41,300.23 -12.85,295.86 -19.08,276.99 -21.50,273.26 -25.55,261.11 -25.90,260.06 -25.31,258.16 -26.28,255.06 -45.76,192.86" fill="none" stroke="#bcbcbc" stroke-width="8" stroke-linecap="round" stroke-linejoin="round" /><polyline points="216.83,-39.12 232.22,-38.72 232.94,-38.70 235.89,-38.61 239.77,-38.07" fill="none" stroke="#bcbcbc" stroke-width="8" stroke-linecap="round" stroke-linejoin="round" /><polyline points="137.65,462.35 132.39,462.28 87.88,468.26 84.68,468.60 81.01,468.98 59.71,471.23 31.02,474.26 15.81,475.87 7.39,476.75 0.56,477.58 -2.95,478.01 -6.90,478.49 -25.99,480.81 -30.57,481.37 -44.66,482.91 -119.96,491.14" fill="none" stroke="#bcbcbc" stroke-width="8" stroke-linecap="round" stroke-linejoin="round" /><polyline points="71.75,616.88 67.81,615.61 49.39,609.68 45.67,608.49 42.44,607.45 22.93,601.18 19.08,599.94 13.99,598.30 -17.06,588.31 -20.56,587.18" fill="none" stroke="#bcbcbc" stroke-width="8" stroke-linecap="round" stroke-linejoin="round" /><polyline points="148.76,244.03 159.47,247.36 198.64,259.46 199.01,259.57 201.91,259.76" fill="none" stroke="#bcbcbc" stroke-width="8" stroke-linecap="round" stroke-linejoin="round" /><polyline points="258.98,155.81 312.26,156.74" fill="none" stroke="#bcbcbc" stroke-width="8" stroke-linecap="round" stroke-linejoin="round" /><polyline points="232.88,623.96 225.27,614.91 222.07,611.19 219.32,608.63 215.67,605.90 208.20,601.41 200.96,599.03 186.25,594.49 174.22,590.67 181.16,580.08" fill="none" stroke="#bcbcbc" stroke-width="8" stroke-linecap="round" stroke-linejoin="round" /><polyline points="156.65,551.96 146.04,538.86 144.02,536.37 133.34,521.66 130.92,517.16 131.50,511.81 134.72,511.78 142.67,513.31 154.76,515.63" fill="none" stroke="#bcbcbc" stroke-width="8" stroke-linecap="round" stroke-linejoin="round" /><polyline points="17.89,447.06 19.85,451.27 31.02,474.26 47.63,508.46 49.75,512.82" fill="none" stroke="#bcbcbc" stroke-width="8" stroke-linecap="round" stroke-linejoin="round" /><polyline points="-161.03,551.22 -157.03,552.85 -138.32,560.50 -134.23,562.17 -129.94,563.93 -107.91,572.94 -103.92,574.57" fill="none" stroke="#bcbcbc" stroke-width="8" stroke-linecap="round" stroke-linejoin="round" /><polyline points="27.08,412.96 66.07,430.02" fill="none" stroke="#bcbcbc" stroke-width="8" stroke-linecap="round" stroke-linejoin="round" /><polyline points="201.91,259.76 207.85,260.07 208.23,260.40 210.89,262.77 214.81,266.26 215.53,267.67 229.03,279.49 230.03,281.37 239.52,289.75 241.91,290.48 249.29,296.95 250.94,297.70 262.08,307.15 264.55,309.34 265.92,311.52" fill="none" stroke="#bcbcbc" stroke-width="8" stroke-linecap="round" stroke-linejoin="round" /><polyline points="-172.03,413.00 -111.14,418.43" fill="none" stroke="#bcbcbc" stroke-width="8" stroke-linecap="round" stroke-linejoin="round" /><polyline points="-36.07,639.75 -34.18,635.73 -33.70,633.94 -31.05,624.19 -21.48,590.42 -20.56,587.18 -19.59,583.63 -15.25,567.77 -7.92,540.97 -6.23,534.79" fill="none" stroke="#bcbcbc" stroke-width="8" stroke-linecap="round" stroke-linejoin="round" /><polyline points="17.89,447.06 27.08,412.96 7.59,406.14 2.49,409.16 0.16,410.93 -1.56,413.25 -2.77,416.33 -7.26,432.90 -3.64,434.74 0.01,435.63 8.09,437.73 14.14,439.66 17.89,447.06" fill="none" stroke="#bcbcbc" stroke-width="8" stroke-linecap="round" stroke-linejoin="round" /><polyline points="-7.26,432.90 -11.53,432.31 -111.14,418.43" fill="none" stroke="#bcbcbc" stroke-width="8" stroke-linecap="round" stroke-linejoin="round" /><polyline points="154.76,515.63 164.00,517.65 188.99,525.60 195.97,527.80 212.56,532.59 229.26,537.41 241.63,540.99 261.41,546.70 265.50,547.88 275.48,551.22 291.91,555.60 293.36,555.87" fill="none" stroke="#bcbcbc" stroke-width="8" stroke-linecap="round" stroke-linejoin="round" /><polyline points="166.48,659.99 163.11,660.84 159.46,671.00 153.81,669.39 128.11,660.63 125.01,659.97 118.13,659.48 87.01,659.60 80.15,658.73 64.65,656.36 58.40,655.35 14.07,648.20 -3.09,645.46 -35.83,639.79 -41.11,638.74 -114.99,618.09 -119.66,616.78 -151.26,606.04 -159.03,603.28 -178.46,595.24 -189.53,591.05" fill="none" stroke="#bcbcbc" stroke-width="8" stroke-linecap="round" stroke-linejoin="round" /><polyline points="234.19,113.73 230.99,113.07 188.29,118.12 173.02,119.39" fill="none" stroke="#bcbcbc" stroke-width="8" stroke-linecap="round" stroke-linejoin="round" /><polyline points="154.76,515.63 156.25,513.13 165.21,490.12 175.23,455.32 177.78,447.82 179.15,445.78 188.81,414.76 189.29,411.05 189.66,408.63" fill="none" stroke="#bcbcbc" stroke-width="8" stroke-linecap="round" stroke-linejoin="round" /><polyline points="198.76,179.50 199.78,179.11 201.17,178.01 203.27,175.55 230.53,136.43 237.79,126.08" fill="none" stroke="#bcbcbc" stroke-width="8" stroke-linecap="round" stroke-linejoin="round" /><polyline points="320.11,323.20 320.67,321.60 334.37,305.48 335.38,304.94 337.76,301.68 345.73,292.52 348.21,290.24" fill="none" stroke="#bcbcbc" stroke-width="8" stroke-linecap="round" stroke-linejoin="round" /><polyline points="332.09,442.86 331.90,440.71 331.75,439.04 331.03,435.84 330.16,433.76 329.09,428.29 328.99,426.31 328.26,421.89 325.00,420.18 322.39,421.18 317.72,422.30 314.03,422.88 310.49,423.73 305.60,424.84 303.37,425.35" fill="none" stroke="#bcbcbc" stroke-width="8" stroke-linecap="round" stroke-linejoin="round" /><polyline points="-27.99,363.68 -18.02,340.31 -17.46,338.79" fill="none" stroke="#bcbcbc" stroke-width="8" stroke-linecap="round" stroke-linejoin="round" /><polyline points="234.69,320.83 239.50,318.97 242.01,318.00 243.95,316.03 251.96,314.06 254.65,314.74 260.45,313.25 264.87,312.11 265.92,311.52 270.21,310.47 292.14,305.10 297.10,303.61" fill="none" stroke="#bcbcbc" stroke-width="8" stroke-linecap="round" stroke-linejoin="round" /><polyline points="32.46,518.69 42.80,514.94 46.26,513.88 49.75,512.82 56.17,510.85 61.17,510.14 78.25,508.27 81.68,508.08 96.96,508.21 106.27,508.29 109.77,508.11 115.38,508.68 117.13,508.93 120.70,509.44 131.50,511.81" fill="none" stroke="#bcbcbc" stroke-width="8" stroke-linecap="round" stroke-linejoin="round" /><polyline points="81.74,211.64 80.03,205.84 73.66,184.33 65.93,159.79 64.34,155.41 62.72,151.31 60.67,145.39" fill="none" stroke="#bcbcbc" stroke-width="8" stroke-linecap="round" stroke-linejoin="round" /><polyline points="63.23,558.58 64.59,554.29 78.34,510.93 78.25,508.27" fill="none" stroke="#bcbcbc" stroke-width="8" stroke-linecap="round" stroke-linejoin="round" /><polyline points="81.68,508.08 84.40,471.57 84.68,468.60 85.09,465.13 85.10,464.98 85.28,460.74 86.19,449.25 86.70,443.90 87.40,437.82 88.04,433.44 88.61,430.69 89.33,428.62 90.75,423.93 93.67,414.19 97.38,401.61 101.47,388.74 102.31,386.12 102.98,384.21" fill="none" stroke="#bcbcbc" stroke-width="8" stroke-linecap="round" stroke-linejoin="round" /><polyline points="-7.26,432.90 -7.98,436.14 -7.86,437.17 -3.42,474.10 -2.95,478.01 -3.15,482.04 -4.32,505.00 -4.80,514.60 -5.05,519.55 -5.50,528.37 -5.73,532.97 -6.23,534.79" fill="none" stroke="#bcbcbc" stroke-width="8" stroke-linecap="round" stroke-linejoin="round" /><polyline points="-27.99,363.68 -44.11,358.88 -46.16,357.57 -56.20,354.64 -59.02,354.67 -71.63,350.87 -73.67,349.37 -85.14,345.89 -99.23,342.05 -99.29,342.05 -101.63,341.85" fill="none" stroke="#bcbcbc" stroke-width="8" stroke-linecap="round" stroke-linejoin="round" /><polyline points="265.92,311.52 266.48,312.26 268.82,315.74 273.14,322.19 277.21,326.26 285.04,335.05 283.71,343.16 283.04,346.20 282.11,347.49 284.07,350.39 287.11,356.64 293.17,368.34 296.16,374.10 298.01,379.28 298.85,381.68" fill="none" stroke="#bcbcbc" stroke-width="8" stroke-linecap="round" stroke-linejoin="round" /><polyline points="306.77,328.24 304.52,328.94 289.71,333.54 287.59,334.23 285.04,335.05" fill="none" stroke="#bcbcbc" stroke-width="8" stroke-linecap="round" stroke-linejoin="round" /><polyline points="200.34,356.29 204.97,354.79 238.59,337.62 243.09,335.43 258.93,330.85 274.29,326.53 277.21,326.26" fill="none" stroke="#bcbcbc" stroke-width="8" stroke-linecap="round" stroke-linejoin="round" /><polyline points="204.00,377.54 242.76,359.51 244.39,358.43 248.18,357.33 274.00,349.81 277.92,348.31 282.11,347.49" fill="none" stroke="#bcbcbc" stroke-width="8" stroke-linecap="round" stroke-linejoin="round" /><polyline points="196.10,-0.56 211.78,1.38 213.36,1.58 219.44,3.07" fill="none" stroke="#bcbcbc" stroke-width="8" stroke-linecap="round" stroke-linejoin="round" /><polyline points="330.16,158.94 332.94,158.36 343.34,163.46 344.71,164.81 364.22,197.85 364.73,201.85 367.27,203.97 366.87,205.43 366.81,207.81 367.16,211.14 372.33,232.38 372.78,247.09 373.51,270.58 374.72,302.20 369.78,315.98 366.59,324.38 361.93,336.21 360.58,339.64 359.71,340.59 358.30,349.75" fill="none" stroke="#bcbcbc" stroke-width="8" stroke-linecap="round" stroke-linejoin="round" /><polyline points="366.24,405.55 361.49,403.48 349.63,395.21 333.99,384.21 325.38,377.25 319.57,371.04" fill="none" stroke="#bcbcbc" stroke-width="8" stroke-linecap="round" stroke-linejoin="round" /><polyline points="174.22,590.67 169.56,589.19 161.99,586.80 158.39,585.65 154.15,584.31 148.79,582.61 143.94,581.07 139.16,579.55 117.81,572.78 114.07,571.59 109.42,570.12 108.40,569.80 96.19,566.57 92.74,565.74 88.42,564.69 83.90,563.60 67.60,559.64 63.23,558.58 58.53,556.95 48.72,553.54 45.02,552.26 41.71,551.19 26.35,545.72 24.41,544.57 23.48,542.56" fill="none" stroke="#bcbcbc" stroke-width="8" stroke-linecap="round" stroke-linejoin="round" /><polyline points="244.39,358.43 243.26,354.37 239.89,342.28 238.59,337.62 236.71,334.15 236.54,333.50 235.43,329.41 236.72,327.60 235.17,322.43 234.69,320.83" fill="none" stroke="#bcbcbc" stroke-width="8" stroke-linecap="round" stroke-linejoin="round" /><polyline points="238.75,210.42 241.96,208.91 259.48,199.25 269.49,192.81 276.56,187.99 278.12,186.83 283.80,182.88 289.69,178.53 293.42,175.81 297.87,172.56 313.33,165.58 315.33,165.69 318.26,164.30 330.16,158.94" fill="none" stroke="#bcbcbc" stroke-width="8" stroke-linecap="round" stroke-linejoin="round" /><polyline points="44.55,276.27 47.08,277.30 48.75,277.81 80.08,287.43 84.87,288.90" fill="none" stroke="#bcbcbc" stroke-width="8" stroke-linecap="round" stroke-linejoin="round" /><polyline points="-179.24,346.73 -201.63,339.96" fill="none" stroke="#bcbcbc" stroke-width="8" stroke-linecap="round" stroke-linejoin="round" /><polyline points="182.34,31.06 187.89,38.09 188.72,39.14 191.52,42.69 194.71,43.06 201.27,43.84 202.44,44.64" fill="none" stroke="#bcbcbc" stroke-width="8" stroke-linecap="round" stroke-linejoin="round" /><polyline points="375.06,343.78 366.27,345.42 357.25,350.32 348.89,354.98 340.99,358.93 331.43,364.12 324.51,368.32 310.84,375.65 257.48,402.50 243.64,408.59 234.50,412.54 229.97,414.03 226.22,414.73 220.09,415.10 211.36,413.86 189.58,408.63 158.65,401.43 117.97,389.15 102.98,384.21 78.44,376.64 54.97,368.89 20.54,355.39 3.33,347.98 -17.42,338.75 -51.85,319.89 -59.92,314.54 -80.34,301.69 -88.91,293.13 -101.75,276.49 -122.92,254.67 -131.24,247.34" fill="none" stroke="#bcbcbc" stroke-width="8" stroke-linecap="round" stroke-linejoin="round" /><polyline points="208.20,601.41 208.56,599.40 209.86,596.11 222.07,567.55 226.68,556.84 232.11,543.50 233.44,538.62" fill="none" stroke="#bcbcbc" stroke-width="8" stroke-linecap="round" stroke-linejoin="round" /><polyline points="-25.99,480.81 -39.86,474.10 -71.41,458.83 -110.12,440.10 -113.57,438.42" fill="none" stroke="#bcbcbc" stroke-width="8" stroke-linecap="round" stroke-linejoin="round" /><polyline points="201.91,259.76 205.41,256.17 214.72,246.64 222.11,238.57" fill="none" stroke="#bcbcbc" stroke-width="8" stroke-linecap="round" stroke-linejoin="round" /><polyline points="-66.93,280.99 -70.77,275.90 -88.80,252.03 -114.53,231.21" fill="none" stroke="#bcbcbc" stroke-width="8" stroke-linecap="round" stroke-linejoin="round" /><polyline points="-178.59,595.18 -175.08,586.83 -163.89,558.94 -162.53,555.28 -161.03,551.22 -160.46,549.75 -160.31,547.46 -158.87,525.77 -158.46,519.55" fill="none" stroke="#bcbcbc" stroke-width="8" stroke-linecap="round" stroke-linejoin="round" /><polyline points="-186.23,370.96 -179.24,346.73 -170.03,314.78 -168.89,310.82 -167.62,306.33 -164.78,296.27 -164.48,295.21 -163.67,291.98 -162.37,288.32 -162.06,287.44 -160.42,283.38 -157.20,276.28 -156.24,274.25" fill="none" stroke="#bcbcbc" stroke-width="8" stroke-linecap="round" stroke-linejoin="round" /><polyline points="-168.89,310.82 -154.75,314.44 -124.82,322.13 -107.76,327.44 -100.65,329.11" fill="none" stroke="#bcbcbc" stroke-width="8" stroke-linecap="round" stroke-linejoin="round" /><polyline points="122.02,200.90 122.50,197.96 122.98,194.91 125.05,184.70 130.24,160.92 134.49,139.65 135.27,135.24 136.32,129.25 136.32,129.24" fill="none" stroke="#bcbcbc" stroke-width="8" stroke-linecap="round" stroke-linejoin="round" /><polyline points="80.17,658.74 86.48,642.64 87.27,639.75 112.31,576.18 114.07,571.59 115.49,567.70 130.46,524.17 133.34,521.65" fill="none" stroke="#bcbcbc" stroke-width="8" stroke-linecap="round" stroke-linejoin="round" /><polyline points="166.01,188.60 166.01,188.59 165.12,183.94 164.98,183.37 162.82,174.57 162.82,174.55 161.35,168.58 155.10,147.17 154.31,144.87 150.09,133.40 148.72,129.97 147.83,127.77 146.69,125.26 146.69,125.25 146.68,125.24 145.85,116.02 145.77,111.49" fill="none" stroke="#bcbcbc" stroke-width="8" stroke-linecap="round" stroke-linejoin="round" /><polyline points="156.65,551.96 155.04,553.69 152.64,556.54 145.90,575.57 143.94,581.07" fill="none" stroke="#bcbcbc" stroke-width="8" stroke-linecap="round" stroke-linejoin="round" /><polyline points="44.55,276.27 45.48,273.77 45.68,273.19 50.06,260.96 51.71,255.80 65.13,216.32" fill="none" stroke="#bcbcbc" stroke-width="8" stroke-linecap="round" stroke-linejoin="round" /><polyline points="114.01,331.62 115.38,327.99 119.09,318.13 120.66,313.96 121.72,311.14 124.70,303.23 126.67,298.01 126.93,297.30 131.70,284.65 133.69,285.27 134.77,282.33 136.68,277.13 136.31,274.77 141.38,260.97 141.90,259.55 142.86,258.66 143.67,257.92 148.76,244.03 149.49,240.22 156.78,219.96 158.51,218.61 162.02,208.68 161.39,207.16 164.47,197.89 162.87,189.61" fill="none" stroke="#bcbcbc" stroke-width="8" stroke-linecap="round" stroke-linejoin="round" /><polyline points="244.48,-45.32 242.43,-48.67 231.70,-66.29" fill="none" stroke="#bcbcbc" stroke-width="8" stroke-linecap="round" stroke-linejoin="round" /><polyline points="278.12,186.83 327.40,218.52 327.41,218.54 327.41,218.55 336.53,219.73" fill="none" stroke="#bcbcbc" stroke-width="8" stroke-linecap="round" stroke-linejoin="round" /><polyline points="258.35,120.63 310.79,146.95 312.37,148.13 312.26,156.74 313.33,165.58" fill="none" stroke="#bcbcbc" stroke-width="8" stroke-linecap="round" stroke-linejoin="round" /><polyline points="158.39,585.65 156.50,591.40 148.86,614.71 135.86,653.95 134.94,656.73 134.01,659.55 133.75,662.55" fill="none" stroke="#bcbcbc" stroke-width="8" stroke-linecap="round" stroke-linejoin="round" /><polyline points="305.99,444.11 306.31,441.18 306.38,438.46 306.35,438.36 304.50,430.33 303.73,426.97 303.37,425.35 302.99,423.70 300.95,414.71 296.97,396.76 294.07,385.96 293.66,384.29" fill="none" stroke="#bcbcbc" stroke-width="8" stroke-linecap="round" stroke-linejoin="round" /><polyline points="45.67,608.49 46.97,604.79 61.57,563.29 63.23,558.58" fill="none" stroke="#bcbcbc" stroke-width="8" stroke-linecap="round" stroke-linejoin="round" /><polyline points="373.51,270.58 369.21,269.37 340.04,224.60 336.53,219.73" fill="none" stroke="#bcbcbc" stroke-width="8" stroke-linecap="round" stroke-linejoin="round" /><polyline points="-106.06,377.99 0.26,403.46 7.59,406.14" fill="none" stroke="#bcbcbc" stroke-width="8" stroke-linecap="round" stroke-linejoin="round" /><polyline points="229.28,-20.02 270.69,-4.67 276.52,-5.67" fill="none" stroke="#bcbcbc" stroke-width="8" stroke-linecap="round" stroke-linejoin="round" />
    <polyline points="167.20,188.22 168.82,193.05 222.11,238.57 251.19,263.87 294.62,301.62 298.41,304.66 300.11,305.72 307.64,312.56 317.71,321.14 340.53,340.61 347.91,346.95 352.80,352.80" fill="none" stroke="#ffffff" stroke-width="16" stroke-linecap="round" stroke-linejoin="round" />
    <polyline points="167.20,188.22 168.82,193.05 222.11,238.57 251.19,263.87 294.62,301.62 298.41,304.66 300.11,305.72 307.64,312.56 317.71,321.14 340.53,340.61 347.91,346.95 352.80,352.80" fill="none" stroke="#111111" stroke-width="9" stroke-linecap="round" stroke-linejoin="round" />
    
            <g transform="translate(167.20,188.22)">
              <circle r="19" fill="#ffffff" stroke="#111111" stroke-width="4" />
              <text text-anchor="middle" dominant-baseline="central" font-family="Helvetica, Arial, sans-serif"
                font-size="18" font-weight="700" fill="#111111">1</text>
            </g>
            
            <g transform="translate(352.80,352.80)">
              <circle r="19" fill="#ffffff" stroke="#111111" stroke-width="4" />
              <text text-anchor="middle" dominant-baseline="central" font-family="Helvetica, Arial, sans-serif"
                font-size="18" font-weight="700" fill="#111111">2</text>
            </g>
            
  </g>
</svg>
