<svg xmlns="http://www.w3.org/2000/svg" width="520" height="520" viewBox="0 0 520 520">
  <rect width="100%" height="100%" fill="#ffffff" />
  <g>
    <polyline points="740.33,712.54 747.73,751.93 795.52,1086.24 788.21,1169.82" fill="none" stroke="#bcbcbc" stroke-width="8" stroke-linecap="round" stroke-linejoin="round" /><polyline points="-230.92,3498.46 -219.37,3462.94 -158.15,3274.67 -150.94,3252.48 -143.64,3229.19 10.28,2738.31 22.65,2698.84 -5.69,2629.01" fill="none" stroke="#bcbcbc" stroke-width="8" stroke-linecap="round" stroke-linejoin="round" /><polyline points="-1294.08,3061.85 -1296.57,3033.66 -1246.25,2751.80 -1239.19,2716.54 -1233.92,2698.08 -1220.07,2626.59 -1204.50,2539.11 -1187.54,2462.06 -1170.72,2385.18 -1160.13,2363.50 -1153.20,2350.21" fill="none" stroke="#bcbcbc" stroke-width="8" stroke-linecap="round" stroke-linejoin="round" /><polyline points="-1002.00,1073.63 -1013.96,1037.15 -1137.62,659.97 -1143.66,644.15" fill="none" stroke="#bcbcbc" stroke-width="8" stroke-linecap="round" stroke-linejoin="round" /><polyline points="-1636.52,4393.29 -1632.83,4357.30 -1631.34,4340.79 -1617.87,4191.86 -1603.14,4060.73 -1599.70,4030.11 -1596.50,3993.37 -1596.14,3990.28 -1587.79,3917.25 -1580.58,3843.01 -1572.65,3771.37 -1567.30,3715.60 -1565.07,3681.18 -1563.10,3649.39 -1559.60,3613.57" fill="none" stroke="#bcbcbc" stroke-width="8" stroke-linecap="round" stroke-linejoin="round" /><polyline points="72.15,3585.97 80.96,3558.28 143.01,3363.19 150.06,3341.03 160.08,3309.45 167.26,3286.82 222.18,3049.92" fill="none" stroke="#bcbcbc" stroke-width="8" stroke-linecap="round" stroke-linejoin="round" /><polyline points="-169.06,-272.89 -146.15,-269.38 485.31,-172.34" fill="none" stroke="#bcbcbc" stroke-width="8" stroke-linecap="round" stroke-linejoin="round" /><polyline points="-1790.14,3540.01 -1855.86,3536.94 -1895.94,3535.08 -1917.71,3534.07 -1936.81,3533.18 -2085.65,3526.25 -2292.66,3516.63 -2391.33,3502.64 -2424.35,3497.95 -2453.01,3492.89 -2647.08,3458.64 -2674.21,3453.85 -2680.22,3452.82 -2713.73,3447.07 -2739.48,3442.66 -2903.92,3428.12 -2935.25,3425.36 -2946.73,3424.34 -2982.29,3421.87 -3051.90,3417.05" fill="none" stroke="#bcbcbc" stroke-width="8" stroke-linecap="round" stroke-linejoin="round" /><polyline points="-835.27,3349.30 -822.53,3313.06 -707.82,2995.03 -569.81,2593.87 -560.97,2568.72 -554.81,2551.14 -549.81,2536.71" fill="none" stroke="#bcbcbc" stroke-width="8" stroke-linecap="round" stroke-linejoin="round" /><polyline points="-2946.73,3424.34 -2949.66,3403.89 -2950.36,3381.68 -2946.01,3336.96 -2936.01,3255.29 -2929.35,3227.88 -2918.54,3128.78 -2916.57,3106.71 -2913.40,3078.33 -2911.05,3057.26 -2906.62,3033.37 -2898.40,2969.09 -2892.70,2919.92 -2884.31,2899.81" fill="none" stroke="#bcbcbc" stroke-width="8" stroke-linecap="round" stroke-linejoin="round" /><polyline points="-3064.15,2874.68 -2911.13,2896.06 -2884.31,2899.81 -2867.70,2902.45 -2799.11,2913.38 -2641.08,2938.57 -2613.96,2943.09" fill="none" stroke="#bcbcbc" stroke-width="8" stroke-linecap="round" stroke-linejoin="round" /><polyline points="-248.09,867.15 -247.09,881.06 -245.04,895.14 -240.06,905.93 -230.76,917.96 -213.55,933.63 -172.77,958.44 141.84,1155.83 335.60,1415.65 481.96,1776.87 491.50,1800.73" fill="none" stroke="#bcbcbc" stroke-width="8" stroke-linecap="round" stroke-linejoin="round" /><polyline points="-298.47,1921.16 -291.94,1931.95 -290.25,1934.75 -284.85,1962.00 -247.94,2140.51 -236.22,2197.17 -227.84,2237.52 -214.77,2319.31 -208.67,2357.04 -204.45,2380.05 -199.85,2400.84 -194.34,2412.97 -186.26,2427.00 -181.94,2433.63 -100.19,2550.67 -55.98,2620.30 -44.45,2636.95" fill="none" stroke="#bcbcbc" stroke-width="8" stroke-linecap="round" stroke-linejoin="round" /><polyline points="-2645.21,4156.31 -2640.86,4129.52 -2636.82,4110.15 -2635.74,4107.58 -2581.33,3978.20 -2546.66,3894.11 -2536.13,3867.46 -2524.97,3839.24 -2512.85,3814.98 -2510.89,3810.24 -2494.30,3770.14 -2481.47,3734.65 -2470.47,3702.09 -2463.49,3679.08 -2455.66,3650.65 -2446.63,3612.54 -2439.78,3581.61 -2431.59,3538.45 -2429.87,3528.82 -2424.35,3497.95" fill="none" stroke="#bcbcbc" stroke-width="8" stroke-linecap="round" stroke-linejoin="round" /><polyline points="-9.11,543.16 164.38,664.40 187.75,669.36 204.86,688.93" fill="none" stroke="#bcbcbc" stroke-width="8" stroke-linecap="round" stroke-linejoin="round" /><polyline points="-737.58,1662.84 -714.66,1671.66 -615.11,1704.23 -384.21,1792.79 -371.25,1805.70 -365.17,1815.35" fill="none" stroke="#bcbcbc" stroke-width="8" stroke-linecap="round" stroke-linejoin="round" /><polyline points="-307.31,3938.50 -291.58,3897.52 -213.96,3686.89 -159.07,3527.76 -147.69,3522.52" fill="none" stroke="#bcbcbc" stroke-width="8" stroke-linecap="round" stroke-linejoin="round" /><polyline points="-1404.58,3671.43 -1392.33,3644.35 -1391.12,3641.67 -1370.16,3571.36 -1335.83,3455.64 -1327.04,3426.02 -1320.21,3403.02 -1319.29,3389.61 -1320.69,3359.94" fill="none" stroke="#bcbcbc" stroke-width="8" stroke-linecap="round" stroke-linejoin="round" /><polyline points="22.21,1930.40 2.52,1934.46 -42.07,1926.53 -48.98,1908.13 -126.25,1878.66 -144.53,1883.44 -214.24,1857.84 -224.64,1865.11" fill="none" stroke="#bcbcbc" stroke-width="8" stroke-linecap="round" stroke-linejoin="round" /><polyline points="-92.53,-460.09 -57.52,-451.51 -38.14,-448.15 422.49,-368.28" fill="none" stroke="#bcbcbc" stroke-width="8" stroke-linecap="round" stroke-linejoin="round" /><polyline points="-450.55,3810.23 -431.39,3756.21 -394.15,3651.21 -370.09,3606.48 -335.46,3509.53 -321.64,3470.83" fill="none" stroke="#bcbcbc" stroke-width="8" stroke-linecap="round" stroke-linejoin="round" /><polyline points="-2974.41,1713.35 -3007.77,1711.82 -3016.13,1721.98 -3074.26,1792.61 -3277.44,2027.32 -3306.01,2060.34" fill="none" stroke="#bcbcbc" stroke-width="8" stroke-linecap="round" stroke-linejoin="round" /><polyline points="-1192.27,1914.38 -1207.00,1946.99 -1208.78,1950.94 -1259.95,2084.38 -1311.53,2231.27 -1325.28,2270.45 -1333.08,2290.67" fill="none" stroke="#bcbcbc" stroke-width="8" stroke-linecap="round" stroke-linejoin="round" /><polyline points="-441.71,414.99 -425.46,437.04 -413.85,467.37 -395.79,510.90 -366.80,579.37 -341.13,640.83 -311.66,708.32 -289.80,760.33 -286.56,767.80 -286.36,768.26 -268.77,809.40 -263.51,821.09 -258.51,832.22 -253.22,842.65 -249.24,853.25 -248.08,867.15" fill="none" stroke="#bcbcbc" stroke-width="8" stroke-linecap="round" stroke-linejoin="round" /><polyline points="-1686.14,2572.19 -1677.63,2567.54 -1665.73,2558.08 -1659.77,2545.80 -1580.72,2246.02 -1578.33,2229.11 -1568.69,2198.22" fill="none" stroke="#bcbcbc" stroke-width="8" stroke-linecap="round" stroke-linejoin="round" /><polyline points="1078.10,2103.06 1089.32,2138.65 1097.21,2176.05 1081.84,2318.53 1064.08,2425.71 1054.38,2462.28 1053.50,2465.59 1045.01,2485.32 1033.43,2506.24 1006.38,2540.45 1019.48,2607.34 977.11,2750.91 953.71,2830.21 905.86,2960.00 835.77,3118.02 750.20,3269.46 723.47,3318.68 675.15,3399.54 482.11,3673.56 439.81,3730.56 276.02,3944.62 182.00,4051.61 50.47,4185.31 38.29,4186.56 8.59,4210.85" fill="none" stroke="#bcbcbc" stroke-width="8" stroke-linecap="round" stroke-linejoin="round" /><polyline points="-1303.92,4446.94 -1250.03,4279.80 -1241.22,4252.20 -1229.24,4234.81 -1203.50,4157.56 -1195.13,4131.32 -1088.81,3798.43 -1078.12,3764.95 -1069.31,3735.53 -943.85,3340.64" fill="none" stroke="#bcbcbc" stroke-width="8" stroke-linecap="round" stroke-linejoin="round" /><polyline points="-41.53,1338.48 5.06,1287.58 18.80,1271.02 112.92,1137.68" fill="none" stroke="#bcbcbc" stroke-width="8" stroke-linecap="round" stroke-linejoin="round" /><polyline points="-972.63,1358.65 -844.35,1403.32 -837.26,1414.83 -800.83,1427.05 -779.21,1434.44 -675.81,1469.38" fill="none" stroke="#bcbcbc" stroke-width="8" stroke-linecap="round" stroke-linejoin="round" /><polyline points="145.52,470.81 204.86,688.93 273.55,945.89 283.96,967.30 285.62,991.75 332.19,1078.72 457.90,1313.17 485.38,1353.71 493.34,1365.58 681.15,1716.74 767.46,1795.22 779.57,1810.85 796.64,1825.45 960.53,1965.59 971.65,1975.10 1001.08,1990.73" fill="none" stroke="#bcbcbc" stroke-width="8" stroke-linecap="round" stroke-linejoin="round" /><polyline points="-491.86,4482.42 -83.14,4244.98 -10.38,4207.77 8.59,4210.85" fill="none" stroke="#bcbcbc" stroke-width="8" stroke-linecap="round" stroke-linejoin="round" /><polyline points="-48.72,4142.74 -23.35,4112.59 204.31,3658.28 219.39,3628.48 231.99,3598.99 305.53,3417.12 327.43,3362.33 390.81,3170.48 431.91,2923.84 436.78,2887.94" fill="none" stroke="#bcbcbc" stroke-width="8" stroke-linecap="round" stroke-linejoin="round" /><polyline points="-224.41,1470.93 -228.40,1475.02 -233.88,1494.13 -234.43,1496.03 -259.14,1591.18 -252.65,1616.02 -258.04,1638.28 -265.10,1667.43 -283.18,1688.38 -303.70,1771.50 -327.86,1789.76 -353.66,1807.46 -365.17,1815.35" fill="none" stroke="#bcbcbc" stroke-width="8" stroke-linecap="round" stroke-linejoin="round" /><polyline points="-1192.27,1914.38 -1181.77,1887.45 -1118.61,1725.52 -1104.84,1690.21 -1093.49,1661.12 -1012.79,1454.34 -976.45,1367.88 -972.63,1358.65 -944.39,1290.37 -881.03,1133.04 -857.83,1066.07 -852.67,1050.71 -845.73,1033.29" fill="none" stroke="#bcbcbc" stroke-width="8" stroke-linecap="round" stroke-linejoin="round" /><polyline points="-485.51,932.79 -473.30,969.14 -72.46,1311.56 146.27,1501.88 472.96,1785.90 501.48,1808.71 514.25,1816.70 570.94,1868.17 646.65,1932.75 818.36,2079.18 873.83,2126.87 910.63,2170.90" fill="none" stroke="#bcbcbc" stroke-width="8" stroke-linecap="round" stroke-linejoin="round" /><polyline points="316.35,3390.04 150.06,3341.03 -150.94,3252.48" fill="none" stroke="#bcbcbc" stroke-width="8" stroke-linecap="round" stroke-linejoin="round" /><polyline points="-220.43,-147.36 -197.71,-131.69 542.44,33.01" fill="none" stroke="#bcbcbc" stroke-width="8" stroke-linecap="round" stroke-linejoin="round" /><polyline points="693.83,2289.80 655.58,2204.68 570.69,2002.20 564.36,1986.11 549.84,1949.15 495.12,1809.89 491.68,1800.87" fill="none" stroke="#bcbcbc" stroke-width="8" stroke-linecap="round" stroke-linejoin="round" /><polyline points="-441.71,414.99 -482.81,403.29 -513.00,394.30 -574.38,376.07 -605.55,367.18 -623.42,362.21 -646.74,355.53" fill="none" stroke="#bcbcbc" stroke-width="8" stroke-linecap="round" stroke-linejoin="round" /><polyline points="-1513.13,1528.64 -1515.21,1521.84 -1517.12,1517.08 -1525.59,1496.03 -1558.40,1419.54 -1589.58,1341.83 -1596.31,1323.48 -1604.07,1302.35 -1609.62,1285.06 -1618.79,1259.14 -1619.75,1256.42 -1649.58,1182.89 -1704.35,1044.68 -1716.65,1037.67 -1725.39,1015.25 -1742.87,954.56 -1772.79,879.33 -1779.24,862.23" fill="none" stroke="#bcbcbc" stroke-width="8" stroke-linecap="round" stroke-linejoin="round" /><polyline points="-1250.03,4279.80 -1218.93,4289.33 -1118.30,4319.99 -1086.79,4329.60" fill="none" stroke="#bcbcbc" stroke-width="8" stroke-linecap="round" stroke-linejoin="round" /><polyline points="629.18,378.96 635.04,355.25 632.65,346.24 629.78,335.37 611.41,268.06 570.45,125.75 548.83,53.00 542.44,33.01 485.31,-172.34 454.48,-283.10 422.49,-368.28 393.59,-445.11 364.81,-497.94 336.85,-525.85 122.20,-788.17 106.32,-806.84 95.80,-824.10" fill="none" stroke="#bcbcbc" stroke-width="8" stroke-linecap="round" stroke-linejoin="round" /><polyline points="-248.08,867.15 -259.15,871.38 -279.62,877.03 -281.67,877.59 -367.16,899.46 -465.45,927.13 -485.51,932.79 -494.45,935.62 -518.06,943.22 -538.25,948.83 -626.39,973.36 -771.35,1014.54 -825.39,1028.20 -845.73,1033.29 -942.33,1057.01 -1002.00,1073.63 -1128.37,1108.94 -1253.28,1144.15 -1267.73,1148.16 -1372.12,1177.14 -1420.28,1190.51 -1444.59,1202.00 -1490.62,1224.82 -1582.03,1271.21 -1588.40,1274.45 -1609.62,1285.06 -1622.57,1291.54 -1640.63,1301.02 -1704.85,1334.69 -1821.87,1400.36 -1919.62,1451.57 -1933.61,1458.90 -1952.29,1460.06 -1963.51,1466.02 -1965.75,1467.21 -2071.79,1525.33 -2094.00,1525.23 -2119.49,1538.57 -2128.39,1543.23 -2135.91,1547.16 -2153.63,1556.44 -2167.60,1588.30 -2227.62,1620.45 -2246.70,1630.67 -2267.35,1641.91 -2350.85,1687.36 -2394.02,1710.85 -2415.78,1717.12" fill="none" stroke="#bcbcbc" stroke-width="8" stroke-linecap="round" stroke-linejoin="round" /><polyline points="953.71,2830.21 909.15,2834.29 769.96,2847.05 763.69,2847.62 754.81,2848.43 740.45,2849.76 605.49,2862.15 558.55,2857.79 503.89,2871.49 460.10,2882.23 436.78,2887.94 378.84,2890.14 328.68,2887.59 303.12,2884.87 281.36,2878.29 265.33,2869.43 205.65,2827.23 60.65,2727.63 46.99,2718.35 33.07,2708.91 22.65,2698.84" fill="none" stroke="#bcbcbc" stroke-width="8" stroke-linecap="round" stroke-linejoin="round" /><polyline points="-2330.41,1148.66 -2277.79,1251.67 -2269.83,1281.11 -2225.51,1365.68 -2207.20,1389.88 -2133.13,1534.02 -2128.39,1543.23" fill="none" stroke="#bcbcbc" stroke-width="8" stroke-linecap="round" stroke-linejoin="round" /><polyline points="-718.04,2064.76 -725.92,2086.42 -728.14,2093.15 -738.41,2124.31 -803.50,2305.94 -835.81,2396.13 -836.91,2399.21 -849.89,2427.24 -857.33,2443.90" fill="none" stroke="#bcbcbc" stroke-width="8" stroke-linecap="round" stroke-linejoin="round" /><polyline points="145.52,470.81 138.31,455.36 119.34,452.87 57.98,466.94 45.51,465.33 35.74,452.23 18.38,372.39 112.42,357.83 155.95,344.98 177.24,342.76 200.17,424.29" fill="none" stroke="#bcbcbc" stroke-width="8" stroke-linecap="round" stroke-linejoin="round" /><polyline points="485.38,1353.71 509.60,1340.11 631.26,1266.79 663.78,1247.42 720.69,1213.49 814.32,1152.93 836.17,1137.22 1000.41,1035.33" fill="none" stroke="#bcbcbc" stroke-width="8" stroke-linecap="round" stroke-linejoin="round" /><polyline points="1059.47,1834.99 1017.95,1822.62 993.81,1802.82 901.56,1722.98 898.42,1720.18 876.12,1700.27 863.01,1677.03 631.26,1266.79" fill="none" stroke="#bcbcbc" stroke-width="8" stroke-linecap="round" stroke-linejoin="round" /><polyline points="-1555.88,1802.48 -1192.27,1914.38 -1162.61,1923.78 -891.27,2009.80 -885.60,2011.60 -844.95,2024.49 -824.97,2030.84 -799.00,2037.93 -745.43,2056.07 -718.04,2064.76 -693.39,2072.58 -491.46,2136.64 -278.29,2203.62 -260.66,2209.16 -236.22,2197.17" fill="none" stroke="#bcbcbc" stroke-width="8" stroke-linecap="round" stroke-linejoin="round" /><polyline points="-486.76,7.20 -329.26,-137.54 -302.59,-162.04" fill="none" stroke="#bcbcbc" stroke-width="8" stroke-linecap="round" stroke-linejoin="round" /><polyline points="-3124.23,2342.68 -2546.29,2404.63" fill="none" stroke="#bcbcbc" stroke-width="8" stroke-linecap="round" stroke-linejoin="round" /><polyline points="-1380.76,729.40 -1259.29,685.96 -1133.99,640.65 -1056.14,610.39 -818.45,523.93 -749.46,500.06 -735.06,495.08 -717.78,489.14 -698.38,482.47 -696.01,481.65 -656.85,465.91 -639.83,459.07" fill="none" stroke="#bcbcbc" stroke-width="8" stroke-linecap="round" stroke-linejoin="round" /><polyline points="-564.91,3669.14 -450.55,3810.23 -380.53,3880.74 -350.22,3902.55 -307.31,3938.50 -267.01,3972.34 -232.38,4006.13 -231.53,4023.31" fill="none" stroke="#bcbcbc" stroke-width="8" stroke-linecap="round" stroke-linejoin="round" /><polyline points="-441.71,414.99 -396.90,302.64 -324.35,117.66 -220.43,-147.36 -169.06,-272.89 -92.53,-460.09 -29.78,-613.43 -18.55,-633.78 36.64,-724.01 40.21,-729.84 60.39,-769.55 95.80,-824.10 115.57,-854.53 143.55,-897.59" fill="none" stroke="#bcbcbc" stroke-width="8" stroke-linecap="round" stroke-linejoin="round" /><polyline points="-1499.07,3418.92 -1506.41,3424.79 -1511.26,3431.78 -1521.15,3460.93 -1527.97,3481.98 -1559.55,3576.41 -1563.90,3590.04 -1566.59,3598.49 -1595.59,3590.18 -1666.16,3566.51 -1736.09,3543.06 -1790.14,3540.00" fill="none" stroke="#bcbcbc" stroke-width="8" stroke-linecap="round" stroke-linejoin="round" /><polyline points="-2881.07,4076.03 -2765.82,3778.39 -2753.00,3745.98 -2741.50,3714.77 -2727.60,3677.06 -2710.56,3617.74 -2692.79,3544.02 -2685.51,3491.19 -2680.22,3452.82 -2672.76,3424.49 -2645.64,3211.66 -2613.96,2943.09 -2597.56,2815.05 -2579.27,2664.63 -2546.29,2404.63 -2541.06,2360.42 -2507.74,2088.51 -2507.72,2073.36 -2500.35,1992.68 -2479.10,1822.26 -2473.77,1792.54 -2468.21,1775.87 -2459.52,1757.50 -2451.07,1743.25 -2432.42,1723.06 -2415.74,1717.33" fill="none" stroke="#bcbcbc" stroke-width="8" stroke-linecap="round" stroke-linejoin="round" /><polyline points="-365.17,1815.35 -358.87,1825.34 -337.73,1858.34 -306.09,1909.06 -298.47,1921.16 -285.85,1911.57 -224.64,1865.11" fill="none" stroke="#bcbcbc" stroke-width="8" stroke-linecap="round" stroke-linejoin="round" /><polyline points="-324.35,117.66 298.33,230.24 363.73,264.66 607.69,385.61 629.18,378.96" fill="none" stroke="#bcbcbc" stroke-width="8" stroke-linecap="round" stroke-linejoin="round" /><polyline points="-1513.13,1528.64 -1524.18,1544.76 -1623.52,1593.25 -1696.48,1685.99 -1775.21,1734.75 -1829.06,1775.41 -1880.43,1817.32 -1906.77,1841.32 -1953.29,1900.34 -2005.31,1974.92 -2013.88,1988.74" fill="none" stroke="#bcbcbc" stroke-width="8" stroke-linecap="round" stroke-linejoin="round" /><polyline points="-1408.10,1595.18 -1412.41,1604.75 -1421.83,1618.52 -1439.63,1640.43 -1544.56,1773.00 -1600.08,1922.54 -1880.30,1817.20" fill="none" stroke="#bcbcbc" stroke-width="8" stroke-linecap="round" stroke-linejoin="round" /><polyline points="-1829.06,1775.41 -1839.91,1742.56 -1886.80,1600.57 -1905.00,1572.52 -1935.47,1481.09 -1938.10,1473.20 -1933.61,1458.90 -1940.91,1435.59 -2087.43,967.71" fill="none" stroke="#bcbcbc" stroke-width="8" stroke-linecap="round" stroke-linejoin="round" /><polyline points="-112.19,-777.50 3.61,-774.45 9.01,-774.30 31.20,-773.67 60.39,-769.55" fill="none" stroke="#bcbcbc" stroke-width="8" stroke-linecap="round" stroke-linejoin="round" /><polyline points="-707.82,2995.03 -747.35,2994.54 -1082.15,3039.49 -1106.28,3042.03 -1133.87,3044.95 -1294.08,3061.85 -1509.92,3084.66 -1624.35,3096.72 -1687.65,3103.40 -1739.05,3109.65 -1765.44,3112.86 -1795.16,3116.47 -1938.76,3133.93 -1973.18,3138.11 -2079.23,3149.70 -2645.64,3211.66" fill="none" stroke="#bcbcbc" stroke-width="8" stroke-linecap="round" stroke-linejoin="round" /><polyline points="-1203.50,4157.56 -1233.16,4148.01 -1371.69,4103.42 -1399.69,4094.41 -1424.00,4086.59 -1570.76,4039.41 -1599.70,4030.11 -1637.98,4017.79 -1871.60,3942.60 -1897.90,3934.14" fill="none" stroke="#bcbcbc" stroke-width="8" stroke-linecap="round" stroke-linejoin="round" /><polyline points="-624.26,1352.60 -543.68,1377.71 -249.02,1468.71 -246.26,1469.56 -224.41,1470.93" fill="none" stroke="#bcbcbc" stroke-width="8" stroke-linecap="round" stroke-linejoin="round" /><polyline points="204.86,688.93 605.69,695.99" fill="none" stroke="#bcbcbc" stroke-width="8" stroke-linecap="round" stroke-linejoin="round" /><polyline points="8.59,4210.85 -48.72,4142.74 -72.75,4114.77 -93.41,4095.46 -120.92,4074.92 -177.13,4041.19 -231.53,4023.31 -342.20,3989.12 -432.72,3960.39 -380.53,3880.74" fill="none" stroke="#bcbcbc" stroke-width="8" stroke-linecap="round" stroke-linejoin="round" /><polyline points="-564.91,3669.14 -644.69,3570.65 -659.87,3551.91 -740.24,3441.19 -758.43,3407.38 -754.06,3367.13 -729.83,3366.89 -670.06,3378.39 -579.11,3395.89" fill="none" stroke="#bcbcbc" stroke-width="8" stroke-linecap="round" stroke-linejoin="round" /><polyline points="-1608.66,2879.99 -1593.95,2911.65 -1509.92,3084.66 -1384.97,3341.90 -1369.04,3374.70" fill="none" stroke="#bcbcbc" stroke-width="8" stroke-linecap="round" stroke-linejoin="round" /><polyline points="-2954.55,3663.58 -2924.49,3675.87 -2783.73,3733.42 -2753.00,3745.98 -2720.67,3759.20 -2554.95,3826.98 -2524.97,3839.24" fill="none" stroke="#bcbcbc" stroke-width="8" stroke-linecap="round" stroke-linejoin="round" /><polyline points="-1539.51,2623.49 -1246.25,2751.80" fill="none" stroke="#bcbcbc" stroke-width="8" stroke-linecap="round" stroke-linejoin="round" /><polyline points="-224.41,1470.93 -179.75,1473.28 -176.90,1475.81 -156.85,1493.59 -127.40,1519.89 -121.96,1530.47 -20.42,1619.39 -12.92,1633.57 58.48,1696.59 76.44,1702.07 131.98,1750.71 144.42,1756.39 228.18,1827.45 246.82,1843.98 257.11,1860.36" fill="none" stroke="#bcbcbc" stroke-width="8" stroke-linecap="round" stroke-linejoin="round" /><polyline points="-3037.32,2623.78 -2579.27,2664.63" fill="none" stroke="#bcbcbc" stroke-width="8" stroke-linecap="round" stroke-linejoin="round" /><polyline points="-2014.58,4329.58 -2000.39,4299.36 -1996.74,4285.91 -1976.85,4212.57 -1904.79,3958.47 -1897.90,3934.14 -1890.60,3907.46 -1857.96,3788.08 -1802.84,3586.47 -1790.14,3540.01" fill="none" stroke="#bcbcbc" stroke-width="8" stroke-linecap="round" stroke-linejoin="round" /><polyline points="-1608.66,2879.99 -1539.51,2623.49 -1686.14,2572.19 -1724.53,2594.86 -1742.03,2608.17 -1754.99,2625.70 -1764.11,2648.84 -1797.83,2773.50 -1770.63,2787.36 -1743.14,2794.03 -1682.37,2809.85 -1636.88,2824.33 -1608.66,2879.99" fill="none" stroke="#bcbcbc" stroke-width="8" stroke-linecap="round" stroke-linejoin="round" /><polyline points="-1797.83,2773.50 -1829.95,2769.03 -2579.27,2664.63" fill="none" stroke="#bcbcbc" stroke-width="8" stroke-linecap="round" stroke-linejoin="round" /><polyline points="-579.11,3395.89 -509.61,3411.08 -321.64,3470.83 -269.08,3487.45 -144.33,3523.49 -18.66,3559.73 74.37,3586.62 223.17,3629.58 253.91,3638.46 329.00,3663.64 452.62,3696.57 463.52,3698.61" fill="none" stroke="#bcbcbc" stroke-width="8" stroke-linecap="round" stroke-linejoin="round" /><polyline points="-490.94,4481.89 -516.30,4488.25 -543.72,4564.68 -586.24,4552.60 -779.57,4486.71 -802.85,4481.74 -854.61,4478.04 -1088.74,4478.97 -1140.35,4472.40 -1256.90,4454.58 -1303.92,4446.94 -1637.37,4393.16 -1766.50,4372.55 -2012.75,4329.89 -2052.51,4322.01 -2608.26,4166.66 -2643.33,4156.84 -2881.07,4076.03 -2939.56,4055.28 -3085.65,3994.73 -3168.93,3963.22" fill="none" stroke="#bcbcbc" stroke-width="8" stroke-linecap="round" stroke-linejoin="round" /><polyline points="18.38,372.39 -5.68,367.43 -326.87,405.41 -441.71,414.99" fill="none" stroke="#bcbcbc" stroke-width="8" stroke-linecap="round" stroke-linejoin="round" /><polyline points="-579.11,3395.89 -567.85,3377.06 -500.45,3203.93 -425.13,2942.15 -405.92,2885.77 -395.65,2870.42 -322.94,2637.00 -319.32,2609.13 -316.57,2590.92" fill="none" stroke="#bcbcbc" stroke-width="8" stroke-linecap="round" stroke-linejoin="round" /><polyline points="-248.08,867.15 -240.41,864.21 -230.01,855.95 -214.21,837.47 -9.11,543.16 45.51,465.32" fill="none" stroke="#bcbcbc" stroke-width="8" stroke-linecap="round" stroke-linejoin="round" /><polyline points="664.72,1948.26 668.92,1936.18 772.01,1814.88 779.57,1810.85 797.48,1786.34 857.46,1717.44 876.12,1700.27" fill="none" stroke="#bcbcbc" stroke-width="8" stroke-linecap="round" stroke-linejoin="round" /><polyline points="754.81,2848.43 753.38,2832.21 752.28,2819.65 746.85,2795.64 740.36,2779.98 732.26,2738.84 731.52,2723.94 726.03,2690.64 701.49,2677.82 681.88,2685.32 646.78,2693.73 618.99,2698.07 592.35,2704.50 555.55,2712.89 538.78,2716.72" fill="none" stroke="#bcbcbc" stroke-width="8" stroke-linecap="round" stroke-linejoin="round" /><polyline points="-1953.76,2252.72 -1878.78,2076.95 -1874.61,2065.52" fill="none" stroke="#bcbcbc" stroke-width="8" stroke-linecap="round" stroke-linejoin="round" /><polyline points="22.21,1930.40 58.35,1916.40 77.24,1909.08 91.85,1894.29 152.10,1879.44 172.32,1884.59 215.92,1873.35 249.19,1864.78 257.11,1860.36 289.37,1852.46 454.29,1812.05 491.68,1800.87" fill="none" stroke="#bcbcbc" stroke-width="8" stroke-linecap="round" stroke-linejoin="round" /><polyline points="-1499.07,3418.92 -1421.26,3390.66 -1395.24,3382.71 -1369.04,3374.70 -1320.69,3359.94 -1283.07,3354.52 -1154.61,3340.47 -1128.80,3339.06 -1013.86,3340.04 -943.85,3340.64 -917.52,3339.29 -875.34,3343.56 -862.15,3345.45 -835.27,3349.30 -754.06,3367.13" fill="none" stroke="#bcbcbc" stroke-width="8" stroke-linecap="round" stroke-linejoin="round" /><polyline points="-1128.37,1108.94 -1141.26,1065.36 -1189.13,903.49 -1247.28,718.91 -1259.29,685.96 -1271.48,655.07 -1286.89,610.57" fill="none" stroke="#bcbcbc" stroke-width="8" stroke-linecap="round" stroke-linejoin="round" /><polyline points="-1267.61,3718.99 -1257.39,3686.69 -1153.96,3360.53 -1154.61,3340.47" fill="none" stroke="#bcbcbc" stroke-width="8" stroke-linecap="round" stroke-linejoin="round" /><polyline points="-1128.80,3339.06 -1108.32,3064.43 -1106.28,3042.03 -1103.14,3015.98 -1103.09,3014.80 -1101.74,2982.95 -1094.91,2896.50 -1091.06,2856.23 -1085.79,2810.50 -1080.99,2777.57 -1076.68,2756.89 -1071.26,2741.26 -1060.63,2706.04 -1038.66,2632.72 -1010.72,2538.06 -979.92,2441.27 -973.64,2421.53 -968.59,2407.22" fill="none" stroke="#bcbcbc" stroke-width="8" stroke-linecap="round" stroke-linejoin="round" /><polyline points="-1797.83,2773.50 -1803.28,2797.84 -1802.34,2805.62 -1768.97,3083.44 -1765.44,3112.86 -1766.97,3143.13 -1775.71,3315.92 -1779.37,3388.11 -1781.25,3425.35 -1784.61,3491.72 -1786.36,3526.28 -1790.14,3540.01" fill="none" stroke="#bcbcbc" stroke-width="8" stroke-linecap="round" stroke-linejoin="round" /><polyline points="-1953.76,2252.72 -2075.07,2216.66 -2090.49,2206.77 -2165.99,2184.77 -2187.21,2184.99 -2282.08,2156.41 -2297.40,2145.10 -2383.73,2118.93 -2489.65,2090.06 -2490.16,2090.01 -2507.74,2088.51" fill="none" stroke="#bcbcbc" stroke-width="8" stroke-linecap="round" stroke-linejoin="round" /><polyline points="257.11,1860.36 261.32,1865.89 278.91,1892.11 311.44,1940.59 342.05,1971.26 400.90,2037.33 390.95,2098.39 385.90,2121.29 378.88,2130.97 393.63,2152.80 416.46,2199.78 462.08,2287.79 484.54,2331.13 498.51,2370.08 504.81,2388.17" fill="none" stroke="#bcbcbc" stroke-width="8" stroke-linecap="round" stroke-linejoin="round" /><polyline points="564.36,1986.11 547.45,1991.38 436.04,2026.04 420.07,2031.17 400.90,2037.33" fill="none" stroke="#bcbcbc" stroke-width="8" stroke-linecap="round" stroke-linejoin="round" /><polyline points="-236.22,2197.17 -201.38,2185.88 51.49,2056.74 85.34,2040.20 204.53,2005.77 320.09,1973.28 342.05,1971.26" fill="none" stroke="#bcbcbc" stroke-width="8" stroke-linecap="round" stroke-linejoin="round" /><polyline points="-208.67,2357.04 82.86,2221.36 95.14,2213.24 123.64,2204.95 317.91,2148.41 347.37,2137.13 378.88,2130.97" fill="none" stroke="#bcbcbc" stroke-width="8" stroke-linecap="round" stroke-linejoin="round" /><polyline points="-268.15,-487.37 -150.14,-472.79 -138.29,-471.32 -92.53,-460.09" fill="none" stroke="#bcbcbc" stroke-width="8" stroke-linecap="round" stroke-linejoin="round" /><polyline points="740.33,712.54 761.25,708.17 839.45,746.50 849.76,756.70 996.54,1005.20 1000.41,1035.33 1019.50,1051.24 1016.46,1062.22 1016.00,1080.14 1018.65,1105.18 1057.52,1264.98 1060.96,1375.65 1066.41,1552.37 1075.55,1790.23 1038.32,1893.88 1014.34,1957.06 979.32,2046.11 969.19,2071.86 962.60,2079.06 952.02,2147.96" fill="none" stroke="#bcbcbc" stroke-width="8" stroke-linecap="round" stroke-linejoin="round" /><polyline points="1011.72,2567.73 976.01,2552.20 886.80,2489.93 769.10,2407.22 704.36,2354.86 660.69,2308.08" fill="none" stroke="#bcbcbc" stroke-width="8" stroke-linecap="round" stroke-linejoin="round" /><polyline points="-432.72,3960.39 -467.78,3949.27 -524.67,3931.23 -551.82,3922.63 -583.71,3912.51 -624.01,3899.74 -660.44,3888.19 -696.45,3876.76 -857.05,3825.79 -885.18,3816.87 -920.12,3805.80 -927.82,3803.36 -1019.68,3779.09 -1045.61,3772.82 -1078.12,3764.95 -1112.14,3756.70 -1234.73,3726.97 -1267.61,3718.99 -1302.94,3706.73 -1376.75,3681.09 -1404.58,3671.43 -1429.46,3663.35 -1545.04,3622.25 -1559.60,3613.57 -1566.59,3598.49" fill="none" stroke="#bcbcbc" stroke-width="8" stroke-linecap="round" stroke-linejoin="round" /><polyline points="95.14,2213.24 86.62,2182.72 61.25,2091.73 51.49,2056.74 37.39,2030.59 36.08,2025.73 27.77,1994.93 37.44,1981.29 25.81,1942.46 22.21,1930.40" fill="none" stroke="#bcbcbc" stroke-width="8" stroke-linecap="round" stroke-linejoin="round" /><polyline points="52.71,1099.79 76.83,1088.43 208.62,1015.76 283.96,967.30 337.10,931.05 348.83,922.31 391.59,892.59 435.91,859.85 463.97,839.43 497.42,814.96 613.69,762.49 628.77,763.29 650.81,752.86 740.33,712.54" fill="none" stroke="#bcbcbc" stroke-width="8" stroke-linecap="round" stroke-linejoin="round" /><polyline points="-1408.10,1595.18 -1389.09,1602.89 -1376.52,1606.75 -1140.83,1679.15 -1104.84,1690.21" fill="none" stroke="#bcbcbc" stroke-width="8" stroke-linecap="round" stroke-linejoin="round" /><polyline points="-3091.57,2125.24 -3259.96,2074.27" fill="none" stroke="#bcbcbc" stroke-width="8" stroke-linecap="round" stroke-linejoin="round" /><polyline points="-371.65,-249.53 -329.90,-196.63 -323.67,-188.74 -302.59,-162.04 -278.57,-159.22 -229.20,-153.42 -220.43,-147.36" fill="none" stroke="#bcbcbc" stroke-width="8" stroke-linecap="round" stroke-linejoin="round" /><polyline points="1078.10,2103.06 1011.94,2115.40 944.11,2152.26 881.23,2187.27 821.76,2217.01 749.89,2256.04 697.86,2287.64 595.02,2342.78 193.59,2544.76 89.51,2590.61 20.74,2620.35 -13.33,2631.51 -41.51,2636.77 -87.67,2639.56 -153.33,2630.27 -317.19,2590.92 -549.81,2536.71 -855.85,2444.39 -968.59,2407.22 -1153.20,2350.21 -1329.76,2291.98 -1588.71,2190.36 -1718.19,2134.60 -1874.30,2065.21 -2133.25,1923.33 -2193.96,1883.06 -2347.60,1786.41 -2412.03,1721.98 -2508.67,1596.83 -2667.88,1432.65 -2730.45,1377.51" fill="none" stroke="#bcbcbc" stroke-width="8" stroke-linecap="round" stroke-linejoin="round" /><polyline points="-177.13,4041.19 -174.42,4026.06 -164.63,4001.34 -72.80,3786.45 -38.11,3705.90 2.78,3605.52 12.74,3568.79" fill="none" stroke="#bcbcbc" stroke-width="8" stroke-linecap="round" stroke-linejoin="round" /><polyline points="-1938.76,3133.93 -2043.08,3083.43 -2280.43,2968.54 -2571.57,2827.63 -2597.56,2815.05" fill="none" stroke="#bcbcbc" stroke-width="8" stroke-linecap="round" stroke-linejoin="round" /><polyline points="-224.41,1470.93 -198.08,1443.96 -128.04,1372.26 -72.46,1311.56" fill="none" stroke="#bcbcbc" stroke-width="8" stroke-linecap="round" stroke-linejoin="round" /><polyline points="-2246.70,1630.67 -2275.63,1592.35 -2411.23,1412.81 -2604.79,1256.16" fill="none" stroke="#bcbcbc" stroke-width="8" stroke-linecap="round" stroke-linejoin="round" /><polyline points="-3086.69,3994.29 -3060.22,3931.51 -2976.06,3721.67 -2965.86,3694.13 -2954.55,3663.58 -2950.25,3652.55 -2949.11,3635.28 -2938.34,3472.15 -2935.25,3425.36" fill="none" stroke="#bcbcbc" stroke-width="8" stroke-linecap="round" stroke-linejoin="round" /><polyline points="-3144.11,2307.48 -3091.57,2125.24 -3022.25,1884.87 -3013.67,1855.12 -3004.13,1821.32 -2982.77,1745.63 -2980.52,1737.68 -2974.41,1713.35 -2964.65,1685.84 -2962.29,1679.18 -2949.97,1648.64 -2925.78,1595.27 -2918.54,1579.95" fill="none" stroke="#bcbcbc" stroke-width="8" stroke-linecap="round" stroke-linejoin="round" /><polyline points="-3013.67,1855.12 -2907.36,1882.30 -2682.17,1940.20 -2553.87,1980.14 -2500.36,1992.68" fill="none" stroke="#bcbcbc" stroke-width="8" stroke-linecap="round" stroke-linejoin="round" /><polyline points="-825.39,1028.20 -821.77,1006.08 -818.14,983.11 -802.54,906.26 -763.57,727.40 -731.57,567.41 -725.72,534.21 -717.78,489.14 -717.77,489.10" fill="none" stroke="#bcbcbc" stroke-width="8" stroke-linecap="round" stroke-linejoin="round" /><polyline points="-1140.15,4472.43 -1092.68,4351.35 -1086.79,4329.60 -898.41,3851.37 -885.18,3816.87 -874.47,3787.60 -761.91,3460.10 -740.24,3441.19" fill="none" stroke="#bcbcbc" stroke-width="8" stroke-linecap="round" stroke-linejoin="round" /><polyline points="-494.45,935.62 -494.46,935.58 -501.13,900.56 -502.18,896.31 -518.45,830.12 -518.44,829.91 -529.53,785.04 -576.54,623.92 -582.46,606.67 -614.21,520.36 -624.53,494.60 -631.18,477.98 -639.82,459.10 -639.83,459.07 -639.84,458.99 -646.14,389.60 -646.74,355.53" fill="none" stroke="#bcbcbc" stroke-width="8" stroke-linecap="round" stroke-linejoin="round" /><polyline points="-564.91,3669.14 -576.99,3682.20 -595.01,3703.64 -645.75,3846.75 -660.44,3888.19" fill="none" stroke="#bcbcbc" stroke-width="8" stroke-linecap="round" stroke-linejoin="round" /><polyline points="-1408.10,1595.18 -1401.16,1576.39 -1399.60,1572.02 -1366.64,1479.96 -1354.29,1441.18 -1253.28,1144.15" fill="none" stroke="#bcbcbc" stroke-width="8" stroke-linecap="round" stroke-linejoin="round" /><polyline points="-885.60,2011.60 -875.30,1984.22 -847.39,1910.08 -835.59,1878.73 -827.60,1857.51 -805.20,1798.01 -790.41,1758.70 -788.41,1753.41 -752.57,1658.19 -737.58,1662.84 -729.46,1640.73 -715.10,1601.63 -717.85,1583.86 -679.72,1480.04 -675.81,1469.38 -668.57,1462.73 -662.50,1457.15 -624.26,1352.60 -618.73,1323.98 -563.86,1171.53 -550.89,1161.38 -524.49,1086.70 -529.19,1075.24 -506.07,1005.49 -518.06,943.22" fill="none" stroke="#bcbcbc" stroke-width="8" stroke-linecap="round" stroke-linejoin="round" /><polyline points="95.80,-824.10 80.43,-849.32 -0.35,-981.85" fill="none" stroke="#bcbcbc" stroke-width="8" stroke-linecap="round" stroke-linejoin="round" /><polyline points="348.83,922.31 719.54,1160.72 719.64,1160.88 719.65,1160.92 788.21,1169.82" fill="none" stroke="#bcbcbc" stroke-width="8" stroke-linecap="round" stroke-linejoin="round" /><polyline points="200.17,424.29 594.60,622.29 606.50,631.17 605.70,695.99 613.69,762.49" fill="none" stroke="#bcbcbc" stroke-width="8" stroke-linecap="round" stroke-linejoin="round" /><polyline points="-551.82,3922.63 -566.01,3965.91 -623.48,4141.20 -721.23,4436.40 -728.17,4457.35 -735.19,4478.57 -737.15,4501.17" fill="none" stroke="#bcbcbc" stroke-width="8" stroke-linecap="round" stroke-linejoin="round" /><polyline points="558.55,2857.79 560.91,2835.80 561.41,2815.28 561.25,2814.56 547.27,2754.15 541.54,2728.90 538.78,2716.72 535.95,2704.27 520.61,2636.67 490.63,2501.58 468.86,2420.36 465.77,2407.82" fill="none" stroke="#bcbcbc" stroke-width="8" stroke-linecap="round" stroke-linejoin="round" /><polyline points="-1399.69,4094.41 -1389.91,4066.61 -1280.08,3754.43 -1267.61,3718.99" fill="none" stroke="#bcbcbc" stroke-width="8" stroke-linecap="round" stroke-linejoin="round" /><polyline points="1066.41,1552.37 1034.10,1543.26 814.65,1206.48 788.21,1169.82" fill="none" stroke="#bcbcbc" stroke-width="8" stroke-linecap="round" stroke-linejoin="round" /><polyline points="-2541.06,2360.42 -1741.28,2552.05 -1686.14,2572.19" fill="none" stroke="#bcbcbc" stroke-width="8" stroke-linecap="round" stroke-linejoin="round" /><polyline points="-18.55,-633.78 292.99,-518.36 336.85,-525.85" fill="none" stroke="#bcbcbc" stroke-width="8" stroke-linecap="round" stroke-linejoin="round" />
    <polyline points="177.24,342.76 197.57,329.73 318.01,279.67 342.76,253.63" fill="none" stroke="#ffffff" stroke-width="16" stroke-linecap="round" stroke-linejoin="round" />
    <polyline points="177.24,342.76 197.57,329.73 318.01,279.67 342.76,253.63" fill="none" stroke="#111111" stroke-width="9" stroke-linecap="round" stroke-linejoin="round" />
    
            <g transform="translate(177.24,342.76)">
              <circle r="19" fill="#ffffff" stroke="#111111" stroke-width="4" />
              <text text-anchor="middle" dominant-baseline="central" font-family="Helvetica, Arial, sans-serif"
                font-size="18" font-weight="700" fill="#111111">1</text>
            </g>
            
            <g transform="translate(342.76,253.63)">
              <circle r="19" fill="#ffffff" stroke="#111111" stroke-width="4" />
              <text text-anchor="middle" dominant-baseline="central" font-family="Helvetica, Arial, sans-serif"
                font-size="18" font-weight="700" fill="#111111">2</text>
            </g>
            
  </g>
</svg>
