<svg xmlns="http://www.w3.org/2000/svg" width="520" height="520" viewBox="0 0 520 520">
  <rect width="100%" height="100%" fill="#ffffff" />
  <g>
    <polyline points="521.20,-710.47 524.14,-694.83 543.12,-562.07 540.22,-528.88" fill="none" stroke="#bcbcbc" stroke-width="8" stroke-linecap="round" stroke-linejoin="round" /><polyline points="135.43,395.86 140.02,381.75 164.34,306.98 167.20,298.17 170.10,288.92 231.23,93.99 236.15,78.31 224.89,50.58" fill="none" stroke="#bcbcbc" stroke-width="8" stroke-linecap="round" stroke-linejoin="round" /><polyline points="-286.84,222.47 -287.83,211.28 -267.84,99.35 -265.04,85.34 -262.94,78.01 -257.44,49.62 -251.26,14.88 -244.52,-15.72 -237.84,-46.25 -233.64,-54.85 -230.89,-60.13" fill="none" stroke="#bcbcbc" stroke-width="8" stroke-linecap="round" stroke-linejoin="round" /><polyline points="-170.83,-567.08 -175.58,-581.57 -224.70,-731.35 -227.09,-737.63" fill="none" stroke="#bcbcbc" stroke-width="8" stroke-linecap="round" stroke-linejoin="round" /><polyline points="-422.85,751.21 -421.39,736.91 -420.79,730.36 -415.44,671.21 -409.59,619.14 -408.22,606.98 -406.95,592.39 -406.81,591.17 -403.49,562.16 -400.63,532.68 -397.48,504.23 -395.36,482.08 -394.47,468.41 -393.69,455.79 -392.30,441.57" fill="none" stroke="#bcbcbc" stroke-width="8" stroke-linecap="round" stroke-linejoin="round" /><polyline points="255.81,430.61 259.31,419.61 283.95,342.14 286.75,333.34 290.73,320.80 293.58,311.81 315.40,217.73" fill="none" stroke="#bcbcbc" stroke-width="8" stroke-linecap="round" stroke-linejoin="round" /><polyline points="160.00,-1101.80 169.10,-1100.41 419.91,-1061.87" fill="none" stroke="#bcbcbc" stroke-width="8" stroke-linecap="round" stroke-linejoin="round" /><polyline points="-483.87,412.35 -509.97,411.14 -525.89,410.40 -534.54,410.00 -542.12,409.64 -601.24,406.89 -683.46,403.07 -722.65,397.51 -735.77,395.65 -747.15,393.64 -824.23,380.04 -835.01,378.14 -837.39,377.73 -850.70,375.45 -860.93,373.70 -926.25,367.92 -938.69,366.83 -943.25,366.42 -957.37,365.44 -985.02,363.53" fill="none" stroke="#bcbcbc" stroke-width="8" stroke-linecap="round" stroke-linejoin="round" /><polyline points="-104.61,336.62 -99.55,322.23 -53.98,195.93 0.83,36.63 4.34,26.64 6.79,19.66 8.77,13.93" fill="none" stroke="#bcbcbc" stroke-width="8" stroke-linecap="round" stroke-linejoin="round" /><polyline points="-943.25,366.42 -944.41,358.30 -944.69,349.48 -942.96,331.72 -938.99,299.29 -936.34,288.40 -932.05,249.05 -931.27,240.28 -930.01,229.02 -929.08,220.65 -927.32,211.16 -924.05,185.64 -921.79,166.11 -918.46,158.12" fill="none" stroke="#bcbcbc" stroke-width="8" stroke-linecap="round" stroke-linejoin="round" /><polyline points="-989.89,148.14 -929.11,156.63 -918.46,158.12 -911.86,159.17 -884.61,163.51 -821.85,173.51 -811.07,175.31" fill="none" stroke="#bcbcbc" stroke-width="8" stroke-linecap="round" stroke-linejoin="round" /><polyline points="128.61,-649.08 129.01,-643.55 129.83,-637.96 131.80,-633.68 135.50,-628.90 142.33,-622.68 158.53,-612.83 283.49,-534.44 360.45,-431.26 418.58,-287.81 422.37,-278.34" fill="none" stroke="#bcbcbc" stroke-width="8" stroke-linecap="round" stroke-linejoin="round" /><polyline points="108.60,-230.52 111.19,-226.23 111.87,-225.12 114.01,-214.30 128.67,-143.41 133.33,-120.91 136.66,-104.88 141.85,-72.40 144.27,-57.42 145.94,-48.28 147.77,-40.03 149.96,-35.21 153.17,-29.64 154.89,-27.01 187.36,19.47 204.92,47.13 209.50,53.74" fill="none" stroke="#bcbcbc" stroke-width="8" stroke-linecap="round" stroke-linejoin="round" /><polyline points="-823.49,657.10 -821.76,646.46 -820.16,638.77 -819.73,637.75 -798.12,586.37 -784.35,552.97 -780.16,542.39 -775.73,531.18 -770.92,521.55 -770.14,519.67 -763.55,503.74 -758.45,489.65 -754.08,476.72 -751.31,467.58 -748.20,456.29 -744.62,441.16 -741.89,428.88 -738.64,411.73 -737.96,407.91 -735.77,395.65" fill="none" stroke="#bcbcbc" stroke-width="8" stroke-linecap="round" stroke-linejoin="round" /><polyline points="223.53,-777.74 292.44,-729.59 301.72,-727.62 308.52,-719.85" fill="none" stroke="#bcbcbc" stroke-width="8" stroke-linecap="round" stroke-linejoin="round" /><polyline points="-65.81,-333.10 -56.70,-329.59 -17.16,-316.66 74.55,-281.49 79.70,-276.36 82.11,-272.53" fill="none" stroke="#bcbcbc" stroke-width="8" stroke-linecap="round" stroke-linejoin="round" /><polyline points="105.09,570.60 111.34,554.33 142.17,470.68 163.97,407.49 168.49,405.41" fill="none" stroke="#bcbcbc" stroke-width="8" stroke-linecap="round" stroke-linejoin="round" /><polyline points="-330.73,464.54 -325.86,453.79 -325.38,452.73 -317.06,424.81 -303.42,378.85 -299.93,367.09 -297.22,357.95 -296.85,352.63 -297.41,340.85" fill="none" stroke="#bcbcbc" stroke-width="8" stroke-linecap="round" stroke-linejoin="round" /><polyline points="235.97,-226.84 228.15,-225.23 210.44,-228.38 207.70,-235.69 177.00,-247.39 169.75,-245.49 142.06,-255.66 137.93,-252.77" fill="none" stroke="#bcbcbc" stroke-width="8" stroke-linecap="round" stroke-linejoin="round" /><polyline points="190.40,-1176.14 204.31,-1172.74 212.00,-1171.40 394.96,-1139.68" fill="none" stroke="#bcbcbc" stroke-width="8" stroke-linecap="round" stroke-linejoin="round" /><polyline points="48.20,519.67 55.81,498.21 70.60,456.51 80.16,438.75 93.91,400.25 99.40,384.88" fill="none" stroke="#bcbcbc" stroke-width="8" stroke-linecap="round" stroke-linejoin="round" /><polyline points="-954.24,-313.04 -967.49,-313.65 -970.81,-309.61 -993.90,-281.56 -1074.60,-188.35 -1085.95,-175.25" fill="none" stroke="#bcbcbc" stroke-width="8" stroke-linecap="round" stroke-linejoin="round" /><polyline points="-246.40,-233.21 -252.25,-220.26 -252.96,-218.69 -273.28,-165.70 -293.77,-107.36 -299.23,-91.81 -302.33,-83.77" fill="none" stroke="#bcbcbc" stroke-width="8" stroke-linecap="round" stroke-linejoin="round" /><polyline points="51.71,-828.64 58.16,-819.88 62.78,-807.83 69.95,-790.55 81.46,-763.36 91.66,-738.95 103.36,-712.15 112.05,-691.50 113.33,-688.53 113.41,-688.35 120.40,-672.01 122.49,-667.37 124.48,-662.95 126.57,-658.81 128.16,-654.60 128.62,-649.08" fill="none" stroke="#bcbcbc" stroke-width="8" stroke-linecap="round" stroke-linejoin="round" /><polyline points="-442.56,28.02 -439.18,26.17 -434.45,22.41 -432.09,17.54 -400.69,-101.51 -399.74,-108.22 -395.91,-120.49" fill="none" stroke="#bcbcbc" stroke-width="8" stroke-linecap="round" stroke-linejoin="round" /><polyline points="655.36,-158.28 659.81,-144.14 662.95,-129.30 656.84,-72.71 649.79,-30.15 645.94,-15.63 645.59,-14.31 642.21,-6.48 637.61,1.83 626.87,15.42 632.07,41.98 615.24,98.99 605.95,130.48 586.94,182.02 559.11,244.78 525.12,304.92 514.50,324.46 495.31,356.57 418.64,465.39 401.84,488.02 336.78,573.03 299.44,615.52 247.19,668.61 242.36,669.11 230.56,678.75" fill="none" stroke="#bcbcbc" stroke-width="8" stroke-linecap="round" stroke-linejoin="round" /><polyline points="-290.75,772.51 -269.34,706.14 -265.84,695.18 -261.09,688.27 -250.86,657.59 -247.54,647.17 -205.31,514.98 -201.06,501.68 -197.56,490.00 -147.73,333.18" fill="none" stroke="#bcbcbc" stroke-width="8" stroke-linecap="round" stroke-linejoin="round" /><polyline points="210.66,-461.90 229.16,-482.12 234.62,-488.70 272.00,-541.64" fill="none" stroke="#bcbcbc" stroke-width="8" stroke-linecap="round" stroke-linejoin="round" /><polyline points="-159.16,-453.89 -108.21,-436.16 -105.40,-431.58 -90.93,-426.73 -82.34,-423.80 -41.27,-409.92" fill="none" stroke="#bcbcbc" stroke-width="8" stroke-linecap="round" stroke-linejoin="round" /><polyline points="284.95,-806.47 308.52,-719.85 335.80,-617.81 339.94,-609.30 340.59,-599.59 359.09,-565.06 409.02,-471.96 419.94,-455.86 423.10,-451.14 497.69,-311.69 531.98,-280.53 536.79,-274.32 543.57,-268.52 608.66,-212.87 613.08,-209.09 624.77,-202.89" fill="none" stroke="#bcbcbc" stroke-width="8" stroke-linecap="round" stroke-linejoin="round" /><polyline points="31.79,786.60 194.13,692.31 223.03,677.53 230.56,678.75" fill="none" stroke="#bcbcbc" stroke-width="8" stroke-linecap="round" stroke-linejoin="round" /><polyline points="207.80,651.71 217.88,639.73 308.30,459.32 314.29,447.49 319.29,435.78 348.50,363.55 357.20,341.80 382.37,265.61 398.70,167.67 400.63,153.41" fill="none" stroke="#bcbcbc" stroke-width="8" stroke-linecap="round" stroke-linejoin="round" /><polyline points="138.02,-409.31 136.43,-407.68 134.26,-400.09 134.04,-399.34 124.23,-361.55 126.80,-351.69 124.66,-342.85 121.86,-331.27 114.68,-322.95 106.53,-289.95 96.93,-282.69 86.68,-275.67 82.11,-272.53" fill="none" stroke="#bcbcbc" stroke-width="8" stroke-linecap="round" stroke-linejoin="round" /><polyline points="-246.40,-233.21 -242.23,-243.90 -217.14,-308.21 -211.67,-322.23 -207.17,-333.78 -175.11,-415.90 -160.68,-450.23 -159.16,-453.89 -147.95,-481.01 -122.78,-543.49 -113.57,-570.08 -111.52,-576.18 -108.76,-583.10" fill="none" stroke="#bcbcbc" stroke-width="8" stroke-linecap="round" stroke-linejoin="round" /><polyline points="34.31,-623.01 39.16,-608.57 198.37,-472.59 285.25,-397.02 415.01,-284.23 426.33,-275.17 431.40,-272.00 453.92,-251.56 483.99,-225.91 552.19,-167.76 574.22,-148.82 588.84,-131.34" fill="none" stroke="#bcbcbc" stroke-width="8" stroke-linecap="round" stroke-linejoin="round" /><polyline points="297.55,-857.32 305.62,-862.49 353.46,-882.37 363.29,-892.72" fill="none" stroke="#bcbcbc" stroke-width="8" stroke-linecap="round" stroke-linejoin="round" /><polyline points="139.60,-1051.95 148.62,-1045.73 442.60,-980.32" fill="none" stroke="#bcbcbc" stroke-width="8" stroke-linecap="round" stroke-linejoin="round" /><polyline points="502.73,-84.12 487.54,-117.92 453.82,-198.33 451.31,-204.72 445.54,-219.40 423.81,-274.70 422.44,-278.28" fill="none" stroke="#bcbcbc" stroke-width="8" stroke-linecap="round" stroke-linejoin="round" /><polyline points="51.71,-828.64 35.39,-833.28 23.39,-836.85 -0.98,-844.09 -13.37,-847.62 -20.46,-849.59 -29.73,-852.25" fill="none" stroke="#bcbcbc" stroke-width="8" stroke-linecap="round" stroke-linejoin="round" /><polyline points="-373.84,-386.39 -374.67,-389.09 -375.43,-390.98 -378.79,-399.34 -391.82,-429.71 -404.21,-460.57 -406.88,-467.86 -409.96,-476.25 -412.17,-483.12 -415.81,-493.41 -416.19,-494.49 -428.04,-523.69 -449.79,-578.58 -454.68,-581.36 -458.15,-590.26 -465.09,-614.37 -476.97,-644.24 -479.54,-651.03" fill="none" stroke="#bcbcbc" stroke-width="8" stroke-linecap="round" stroke-linejoin="round" /><polyline points="-269.34,706.14 -256.99,709.92 -217.02,722.10 -204.50,725.91" fill="none" stroke="#bcbcbc" stroke-width="8" stroke-linecap="round" stroke-linejoin="round" /><polyline points="477.05,-842.94 479.38,-852.36 478.43,-855.94 477.29,-860.25 469.99,-886.98 453.72,-943.50 445.14,-972.39 442.60,-980.32 419.91,-1061.87 407.66,-1105.86 394.96,-1139.68 383.48,-1170.19 372.05,-1191.17 360.94,-1202.26 275.69,-1306.43 269.38,-1313.84 265.20,-1320.69" fill="none" stroke="#bcbcbc" stroke-width="8" stroke-linecap="round" stroke-linejoin="round" /><polyline points="128.62,-649.08 124.22,-647.40 116.09,-645.15 115.28,-644.93 81.32,-636.25 42.28,-625.26 34.31,-623.01 30.76,-621.88 21.38,-618.87 13.37,-616.64 -21.64,-606.90 -79.22,-590.54 -100.68,-585.12 -108.76,-583.10 -147.13,-573.68 -170.83,-567.08 -221.02,-553.06 -270.63,-539.08 -276.37,-537.48 -317.84,-525.98 -336.96,-520.67 -346.62,-516.10 -364.90,-507.04 -401.21,-488.62 -403.74,-487.33 -412.17,-483.12 -417.31,-480.54 -424.48,-476.78 -449.99,-463.41 -496.47,-437.33 -535.30,-417.00 -540.85,-414.09 -548.27,-413.62 -552.73,-411.26 -553.62,-410.78 -595.74,-387.70 -604.56,-387.74 -614.68,-382.44 -618.22,-380.60 -621.20,-379.03 -628.24,-375.35 -633.79,-362.70 -657.63,-349.93 -665.21,-345.87 -673.41,-341.41 -706.57,-323.36 -723.72,-314.03 -732.36,-311.54" fill="none" stroke="#bcbcbc" stroke-width="8" stroke-linecap="round" stroke-linejoin="round" /><polyline points="605.95,130.48 588.25,132.10 532.97,137.17 530.48,137.40 526.95,137.72 521.25,138.25 467.64,143.17 449.00,141.44 427.29,146.88 409.90,151.14 400.63,153.41 377.62,154.28 357.70,153.27 347.54,152.19 338.90,149.58 332.54,146.06 308.83,129.30 251.24,89.75 245.81,86.06 240.28,82.31 236.15,78.31" fill="none" stroke="#bcbcbc" stroke-width="8" stroke-linecap="round" stroke-linejoin="round" /><polyline points="-698.45,-537.29 -677.55,-496.38 -674.39,-484.69 -656.79,-451.10 -649.52,-441.49 -620.10,-384.25 -618.22,-380.60" fill="none" stroke="#bcbcbc" stroke-width="8" stroke-linecap="round" stroke-linejoin="round" /><polyline points="-58.04,-173.49 -61.17,-164.88 -62.05,-162.21 -66.13,-149.84 -91.99,-77.71 -104.82,-41.90 -105.26,-40.67 -110.41,-29.54 -113.37,-22.93" fill="none" stroke="#bcbcbc" stroke-width="8" stroke-linecap="round" stroke-linejoin="round" /><polyline points="284.95,-806.47 282.08,-812.60 274.55,-813.59 250.18,-808.00 245.23,-808.65 241.35,-813.85 234.45,-845.55 271.80,-851.34 289.09,-856.44 297.55,-857.32 306.65,-824.94" fill="none" stroke="#bcbcbc" stroke-width="8" stroke-linecap="round" stroke-linejoin="round" /><polyline points="419.94,-455.86 429.56,-461.26 477.88,-490.37 490.79,-498.06 513.40,-511.54 550.59,-535.59 559.27,-541.83 624.50,-582.29" fill="none" stroke="#bcbcbc" stroke-width="8" stroke-linecap="round" stroke-linejoin="round" /><polyline points="647.96,-264.73 631.47,-269.65 621.88,-277.51 585.24,-309.21 583.99,-310.33 575.13,-318.23 569.93,-327.46 477.88,-490.37" fill="none" stroke="#bcbcbc" stroke-width="8" stroke-linecap="round" stroke-linejoin="round" /><polyline points="-390.82,-277.64 -246.40,-233.21 -234.62,-229.47 -126.85,-195.31 -124.60,-194.60 -108.45,-189.48 -100.51,-186.96 -90.20,-184.14 -68.92,-176.94 -58.04,-173.49 -48.25,-170.38 31.95,-144.94 116.62,-118.34 123.62,-116.14 133.33,-120.91" fill="none" stroke="#bcbcbc" stroke-width="8" stroke-linecap="round" stroke-linejoin="round" /><polyline points="33.82,-990.58 96.38,-1048.05 106.97,-1057.78" fill="none" stroke="#bcbcbc" stroke-width="8" stroke-linecap="round" stroke-linejoin="round" /><polyline points="-1013.75,-63.12 -784.20,-38.52" fill="none" stroke="#bcbcbc" stroke-width="8" stroke-linecap="round" stroke-linejoin="round" /><polyline points="-321.27,-703.78 -273.02,-721.03 -223.25,-739.02 -192.33,-751.04 -97.93,-785.37 -70.53,-794.85 -64.80,-796.83 -57.94,-799.19 -50.24,-801.84 -49.29,-802.16 -33.74,-808.41 -26.98,-811.13" fill="none" stroke="#bcbcbc" stroke-width="8" stroke-linecap="round" stroke-linejoin="round" /><polyline points="2.78,463.63 48.20,519.66 76.01,547.66 88.05,556.33 105.09,570.60 121.10,584.04 134.85,597.46 135.19,604.28" fill="none" stroke="#bcbcbc" stroke-width="8" stroke-linecap="round" stroke-linejoin="round" /><polyline points="51.71,-828.64 69.51,-873.25 98.32,-946.71 139.60,-1051.95 160.00,-1101.80 190.40,-1176.14 215.32,-1237.04 219.78,-1245.12 241.70,-1280.95 243.12,-1283.27 251.14,-1299.04 265.20,-1320.69 273.06,-1332.78 284.17,-1349.88" fill="none" stroke="#bcbcbc" stroke-width="8" stroke-linecap="round" stroke-linejoin="round" /><polyline points="-368.26,364.27 -371.17,366.60 -373.10,369.38 -377.03,380.95 -379.74,389.31 -392.28,426.81 -394.01,432.22 -395.08,435.58 -406.59,432.28 -434.62,422.88 -462.40,413.57 -483.87,412.35" fill="none" stroke="#bcbcbc" stroke-width="8" stroke-linecap="round" stroke-linejoin="round" /><polyline points="-917.17,625.22 -871.39,507.02 -866.30,494.15 -861.73,481.76 -856.21,466.78 -849.44,443.22 -842.38,413.95 -839.49,392.97 -837.39,377.73 -834.43,366.48 -823.66,281.96 -811.07,175.31 -804.56,124.46 -797.30,64.73 -784.20,-38.52 -782.12,-56.08 -768.89,-164.06 -768.88,-170.07 -765.95,-202.11 -757.51,-269.79 -755.40,-281.59 -753.19,-288.21 -749.74,-295.50 -746.38,-301.16 -738.97,-309.18 -732.35,-311.46" fill="none" stroke="#bcbcbc" stroke-width="8" stroke-linecap="round" stroke-linejoin="round" /><polyline points="82.11,-272.53 84.61,-268.56 93.01,-255.46 105.58,-235.32 108.60,-230.52 113.62,-234.32 137.93,-252.77" fill="none" stroke="#bcbcbc" stroke-width="8" stroke-linecap="round" stroke-linejoin="round" /><polyline points="98.32,-946.71 345.64,-902.00 371.62,-888.33 468.52,-840.30 477.05,-842.94" fill="none" stroke="#bcbcbc" stroke-width="8" stroke-linecap="round" stroke-linejoin="round" /><polyline points="-373.84,-386.39 -378.23,-379.99 -417.69,-360.73 -446.66,-323.90 -477.94,-304.54 -499.32,-288.39 -519.73,-271.75 -530.19,-262.22 -548.67,-238.78 -569.33,-209.17 -572.73,-203.68" fill="none" stroke="#bcbcbc" stroke-width="8" stroke-linecap="round" stroke-linejoin="round" /><polyline points="-332.13,-359.97 -333.84,-356.16 -337.58,-350.70 -344.65,-342.00 -386.33,-289.35 -408.38,-229.97 -519.68,-271.80" fill="none" stroke="#bcbcbc" stroke-width="8" stroke-linecap="round" stroke-linejoin="round" /><polyline points="-499.32,-288.39 -503.63,-301.44 -522.26,-357.82 -529.49,-368.96 -541.59,-405.27 -542.63,-408.40 -540.85,-414.09 -543.75,-423.34 -601.95,-609.14" fill="none" stroke="#bcbcbc" stroke-width="8" stroke-linecap="round" stroke-linejoin="round" /><polyline points="182.59,-1302.19 228.58,-1300.98 230.73,-1300.92 239.54,-1300.67 251.14,-1299.04" fill="none" stroke="#bcbcbc" stroke-width="8" stroke-linecap="round" stroke-linejoin="round" /><polyline points="-53.98,195.93 -69.69,195.74 -202.66,213.59 -212.25,214.60 -223.21,215.76 -286.84,222.47 -372.57,231.53 -418.02,236.32 -443.16,238.97 -463.57,241.45 -474.06,242.73 -485.86,244.16 -542.90,251.09 -556.57,252.75 -598.69,257.36 -823.66,281.96" fill="none" stroke="#bcbcbc" stroke-width="8" stroke-linecap="round" stroke-linejoin="round" /><polyline points="-250.86,657.59 -262.64,653.80 -317.66,636.09 -328.79,632.51 -338.44,629.41 -396.73,610.68 -408.22,606.98 -423.43,602.09 -516.22,572.23 -526.67,568.87" fill="none" stroke="#bcbcbc" stroke-width="8" stroke-linecap="round" stroke-linejoin="round" /><polyline points="-20.80,-456.30 11.21,-446.32 128.25,-410.19 129.34,-409.85 138.02,-409.31" fill="none" stroke="#bcbcbc" stroke-width="8" stroke-linecap="round" stroke-linejoin="round" /><polyline points="308.52,-719.85 467.72,-717.05" fill="none" stroke="#bcbcbc" stroke-width="8" stroke-linecap="round" stroke-linejoin="round" /><polyline points="230.56,678.75 207.80,651.71 198.25,640.60 190.05,632.93 179.12,624.78 156.80,611.38 135.19,604.28 91.23,590.70 55.28,579.29 76.01,547.66" fill="none" stroke="#bcbcbc" stroke-width="8" stroke-linecap="round" stroke-linejoin="round" /><polyline points="2.78,463.63 -28.91,424.52 -34.94,417.08 -66.86,373.11 -74.08,359.69 -72.35,343.70 -62.73,343.61 -38.99,348.18 -2.86,355.12" fill="none" stroke="#bcbcbc" stroke-width="8" stroke-linecap="round" stroke-linejoin="round" /><polyline points="-411.79,150.25 -405.94,162.83 -372.57,231.53 -322.94,333.68 -316.61,346.71" fill="none" stroke="#bcbcbc" stroke-width="8" stroke-linecap="round" stroke-linejoin="round" /><polyline points="-946.35,461.43 -934.41,466.31 -878.51,489.16 -866.30,494.15 -853.46,499.40 -787.64,526.32 -775.73,531.18" fill="none" stroke="#bcbcbc" stroke-width="8" stroke-linecap="round" stroke-linejoin="round" /><polyline points="-384.32,48.39 -267.84,99.35" fill="none" stroke="#bcbcbc" stroke-width="8" stroke-linecap="round" stroke-linejoin="round" /><polyline points="138.02,-409.31 155.76,-408.37 156.89,-407.37 164.85,-400.31 176.55,-389.86 178.71,-385.66 219.04,-350.35 222.02,-344.72 250.38,-319.69 257.51,-317.52 279.57,-298.20 284.51,-295.94 317.78,-267.73 325.19,-261.16 329.27,-254.66" fill="none" stroke="#bcbcbc" stroke-width="8" stroke-linecap="round" stroke-linejoin="round" /><polyline points="-979.23,48.51 -797.30,64.73" fill="none" stroke="#bcbcbc" stroke-width="8" stroke-linecap="round" stroke-linejoin="round" /><polyline points="-573.01,725.90 -567.37,713.90 -565.93,708.56 -558.02,679.44 -529.41,578.53 -526.67,568.87 -523.77,558.27 -510.81,510.87 -488.91,430.81 -483.87,412.35" fill="none" stroke="#bcbcbc" stroke-width="8" stroke-linecap="round" stroke-linejoin="round" /><polyline points="-411.79,150.25 -384.32,48.39 -442.56,28.02 -457.81,37.02 -464.76,42.31 -469.91,49.27 -473.53,58.46 -486.92,107.96 -476.12,113.47 -465.20,116.11 -441.06,122.40 -423.00,128.15 -411.79,150.25" fill="none" stroke="#bcbcbc" stroke-width="8" stroke-linecap="round" stroke-linejoin="round" /><polyline points="-486.92,107.96 -499.68,106.19 -797.30,64.73" fill="none" stroke="#bcbcbc" stroke-width="8" stroke-linecap="round" stroke-linejoin="round" /><polyline points="-2.86,355.12 24.74,361.16 99.40,384.88 120.28,391.48 169.83,405.79 219.74,420.19 256.69,430.86 315.79,447.92 328.00,451.45 357.82,461.45 406.93,474.53 411.25,475.34" fill="none" stroke="#bcbcbc" stroke-width="8" stroke-linecap="round" stroke-linejoin="round" /><polyline points="32.16,786.39 22.08,788.92 11.19,819.27 -5.70,814.47 -82.48,788.30 -91.73,786.33 -112.29,784.86 -205.28,785.23 -225.78,782.62 -272.07,775.54 -290.75,772.51 -423.19,751.15 -474.48,742.97 -572.28,726.03 -588.08,722.90 -808.81,661.21 -822.74,657.31 -917.17,625.22 -940.40,616.98 -998.43,592.93 -1031.50,580.42" fill="none" stroke="#bcbcbc" stroke-width="8" stroke-linecap="round" stroke-linejoin="round" /><polyline points="234.45,-845.55 224.90,-847.52 97.32,-832.44 51.71,-828.64" fill="none" stroke="#bcbcbc" stroke-width="8" stroke-linecap="round" stroke-linejoin="round" /><polyline points="-2.86,355.12 1.61,347.64 28.38,278.89 58.29,174.94 65.92,152.55 70.00,146.45 98.89,53.76 100.32,42.69 101.41,35.46" fill="none" stroke="#bcbcbc" stroke-width="8" stroke-linecap="round" stroke-linejoin="round" /><polyline points="128.62,-649.08 131.66,-650.24 135.80,-653.52 142.07,-660.86 223.53,-777.74 245.23,-808.65" fill="none" stroke="#bcbcbc" stroke-width="8" stroke-linecap="round" stroke-linejoin="round" /><polyline points="491.17,-219.75 492.83,-224.55 533.78,-272.72 536.79,-274.32 543.90,-284.05 567.72,-311.41 575.13,-318.23" fill="none" stroke="#bcbcbc" stroke-width="8" stroke-linecap="round" stroke-linejoin="round" /><polyline points="526.95,137.72 526.38,131.28 525.95,126.29 523.79,116.76 521.21,110.54 517.99,94.20 517.70,88.28 515.52,75.06 505.77,69.97 497.98,72.95 484.04,76.28 473.01,78.01 462.42,80.56 447.81,83.89 441.14,85.41" fill="none" stroke="#bcbcbc" stroke-width="8" stroke-linecap="round" stroke-linejoin="round" /><polyline points="-548.85,-98.85 -519.07,-168.65 -517.42,-173.18" fill="none" stroke="#bcbcbc" stroke-width="8" stroke-linecap="round" stroke-linejoin="round" /><polyline points="235.97,-226.84 250.33,-232.40 257.83,-235.31 263.63,-241.18 287.56,-247.08 295.59,-245.04 312.91,-249.50 326.13,-252.90 329.27,-254.66 342.08,-257.80 407.59,-273.84 422.44,-278.28" fill="none" stroke="#bcbcbc" stroke-width="8" stroke-linecap="round" stroke-linejoin="round" /><polyline points="-368.26,364.27 -337.35,353.05 -327.02,349.89 -316.61,346.71 -297.41,340.85 -282.47,338.70 -231.44,333.11 -221.19,332.55 -175.54,332.95 -147.73,333.18 -137.27,332.65 -120.52,334.34 -115.28,335.09 -104.61,336.62 -72.35,343.70" fill="none" stroke="#bcbcbc" stroke-width="8" stroke-linecap="round" stroke-linejoin="round" /><polyline points="-221.02,-553.06 -226.14,-570.36 -245.16,-634.65 -268.25,-707.95 -273.02,-721.03 -277.86,-733.29 -283.98,-750.97" fill="none" stroke="#bcbcbc" stroke-width="8" stroke-linecap="round" stroke-linejoin="round" /><polyline points="-276.33,483.43 -272.27,470.61 -231.19,341.08 -231.44,333.11" fill="none" stroke="#bcbcbc" stroke-width="8" stroke-linecap="round" stroke-linejoin="round" /><polyline points="-221.19,332.55 -213.06,223.49 -212.25,214.60 -211.00,204.25 -210.98,203.79 -210.45,191.14 -207.73,156.81 -206.20,140.82 -204.11,122.66 -202.20,109.58 -200.49,101.37 -198.34,95.16 -194.11,81.17 -185.39,52.06 -174.29,14.47 -162.06,-23.97 -159.56,-31.81 -157.56,-37.49" fill="none" stroke="#bcbcbc" stroke-width="8" stroke-linecap="round" stroke-linejoin="round" /><polyline points="-486.92,107.96 -489.08,117.63 -488.71,120.72 -475.46,231.04 -474.06,242.73 -474.66,254.75 -478.14,323.37 -479.59,352.04 -480.34,366.82 -481.67,393.18 -482.36,406.90 -483.87,412.35" fill="none" stroke="#bcbcbc" stroke-width="8" stroke-linecap="round" stroke-linejoin="round" /><polyline points="-548.85,-98.85 -597.04,-113.17 -603.16,-117.09 -633.15,-125.83 -641.58,-125.74 -679.26,-137.09 -685.34,-141.58 -719.63,-151.98 -761.70,-163.44 -761.91,-163.46 -768.89,-164.06" fill="none" stroke="#bcbcbc" stroke-width="8" stroke-linecap="round" stroke-linejoin="round" /><polyline points="329.27,-254.66 330.94,-252.46 337.93,-242.05 350.85,-222.80 363.01,-210.62 386.38,-184.38 382.43,-160.13 380.43,-151.04 377.64,-147.20 383.50,-138.53 392.56,-119.87 410.68,-84.92 419.60,-67.71 425.15,-52.24 427.65,-45.06" fill="none" stroke="#bcbcbc" stroke-width="8" stroke-linecap="round" stroke-linejoin="round" /><polyline points="451.31,-204.72 444.59,-202.63 400.34,-188.86 394.00,-186.83 386.38,-184.38" fill="none" stroke="#bcbcbc" stroke-width="8" stroke-linecap="round" stroke-linejoin="round" /><polyline points="133.33,-120.91 147.17,-125.39 247.60,-176.67 261.05,-183.24 308.39,-196.91 354.28,-209.82 363.01,-210.62" fill="none" stroke="#bcbcbc" stroke-width="8" stroke-linecap="round" stroke-linejoin="round" /><polyline points="144.27,-57.42 260.06,-111.30 264.94,-114.52 276.26,-117.82 353.42,-140.27 365.12,-144.75 377.64,-147.20" fill="none" stroke="#bcbcbc" stroke-width="8" stroke-linecap="round" stroke-linejoin="round" /><polyline points="120.64,-1186.98 167.52,-1181.19 172.22,-1180.60 190.40,-1176.14" fill="none" stroke="#bcbcbc" stroke-width="8" stroke-linecap="round" stroke-linejoin="round" /><polyline points="521.20,-710.47 529.51,-712.21 560.57,-696.99 564.66,-692.94 622.96,-594.26 624.50,-582.29 632.08,-575.97 630.88,-571.61 630.69,-564.50 631.74,-554.55 647.18,-491.09 648.55,-447.14 650.71,-376.96 654.34,-282.51 639.56,-241.35 630.03,-216.26 616.12,-180.89 612.10,-170.67 609.48,-167.81 605.28,-140.45" fill="none" stroke="#bcbcbc" stroke-width="8" stroke-linecap="round" stroke-linejoin="round" /><polyline points="628.99,26.25 614.81,20.08 579.38,-4.65 532.63,-37.49 506.91,-58.28 489.57,-76.86" fill="none" stroke="#bcbcbc" stroke-width="8" stroke-linecap="round" stroke-linejoin="round" /><polyline points="55.28,579.29 41.36,574.88 18.76,567.72 7.98,564.30 -4.69,560.28 -20.70,555.21 -35.17,550.62 -49.47,546.08 -113.26,525.84 -124.43,522.30 -138.31,517.91 -141.37,516.94 -177.85,507.30 -188.15,504.81 -201.06,501.68 -214.58,498.41 -263.27,486.60 -276.33,483.43 -290.36,478.56 -319.68,468.38 -330.73,464.54 -340.61,461.34 -386.52,445.01 -392.30,441.57 -395.08,435.58" fill="none" stroke="#bcbcbc" stroke-width="8" stroke-linecap="round" stroke-linejoin="round" /><polyline points="264.94,-114.52 261.56,-126.64 251.48,-162.78 247.60,-176.67 242.00,-187.06 241.48,-188.99 238.18,-201.22 242.02,-206.64 237.40,-222.05 235.97,-226.84" fill="none" stroke="#bcbcbc" stroke-width="8" stroke-linecap="round" stroke-linejoin="round" /><polyline points="248.09,-556.69 257.67,-561.20 310.01,-590.06 339.94,-609.30 361.04,-623.70 365.70,-627.17 382.69,-638.98 400.29,-651.98 411.43,-660.09 424.72,-669.80 470.90,-690.64 476.89,-690.32 485.64,-694.46 521.20,-710.47" fill="none" stroke="#bcbcbc" stroke-width="8" stroke-linecap="round" stroke-linejoin="round" /><polyline points="-332.13,-359.97 -324.57,-356.90 -319.58,-355.37 -225.97,-326.62 -211.67,-322.23" fill="none" stroke="#bcbcbc" stroke-width="8" stroke-linecap="round" stroke-linejoin="round" /><polyline points="-1000.78,-149.47 -1067.66,-169.71" fill="none" stroke="#bcbcbc" stroke-width="8" stroke-linecap="round" stroke-linejoin="round" /><polyline points="79.54,-1092.52 96.12,-1071.52 98.59,-1068.39 106.97,-1057.78 116.50,-1056.66 136.12,-1054.36 139.60,-1051.95" fill="none" stroke="#bcbcbc" stroke-width="8" stroke-linecap="round" stroke-linejoin="round" /><polyline points="655.36,-158.28 629.08,-153.38 602.14,-138.74 577.16,-124.84 553.54,-113.03 525.00,-97.53 504.33,-84.98 463.48,-63.08 304.04,17.13 262.70,35.33 235.39,47.15 221.86,51.58 210.66,53.67 192.33,54.77 166.25,51.08 101.17,35.46 8.77,13.93 -112.78,-22.73 -157.56,-37.49 -230.89,-60.13 -301.01,-83.26 -403.86,-123.61 -455.29,-145.75 -517.29,-173.31 -620.15,-229.65 -644.26,-245.64 -705.28,-284.02 -730.87,-309.61 -769.26,-359.31 -832.49,-424.51 -857.34,-446.40" fill="none" stroke="#bcbcbc" stroke-width="8" stroke-linecap="round" stroke-linejoin="round" /><polyline points="156.80,611.38 157.87,605.37 161.76,595.56 198.24,510.22 212.02,478.23 228.26,438.37 232.21,423.78" fill="none" stroke="#bcbcbc" stroke-width="8" stroke-linecap="round" stroke-linejoin="round" /><polyline points="-542.90,251.09 -584.33,231.04 -678.60,185.42 -794.24,129.46 -804.56,124.46" fill="none" stroke="#bcbcbc" stroke-width="8" stroke-linecap="round" stroke-linejoin="round" /><polyline points="138.02,-409.31 148.48,-420.02 176.29,-448.49 198.37,-472.59" fill="none" stroke="#bcbcbc" stroke-width="8" stroke-linecap="round" stroke-linejoin="round" /><polyline points="-665.21,-345.87 -676.70,-361.09 -730.55,-432.39 -807.43,-494.60" fill="none" stroke="#bcbcbc" stroke-width="8" stroke-linecap="round" stroke-linejoin="round" /><polyline points="-998.84,592.76 -988.32,567.83 -954.90,484.50 -950.85,473.56 -946.35,461.43 -944.65,457.05 -944.19,450.19 -939.91,385.41 -938.69,366.83" fill="none" stroke="#bcbcbc" stroke-width="8" stroke-linecap="round" stroke-linejoin="round" /><polyline points="-1021.64,-77.10 -1000.78,-149.47 -973.24,-244.92 -969.84,-256.74 -966.05,-270.16 -957.56,-300.22 -956.67,-303.37 -954.24,-313.04 -950.36,-323.96 -949.43,-326.61 -944.53,-338.74 -934.93,-359.93 -932.05,-366.01" fill="none" stroke="#bcbcbc" stroke-width="8" stroke-linecap="round" stroke-linejoin="round" /><polyline points="-969.83,-256.74 -927.61,-245.94 -838.17,-222.95 -787.21,-207.09 -765.95,-202.11" fill="none" stroke="#bcbcbc" stroke-width="8" stroke-linecap="round" stroke-linejoin="round" /><polyline points="-100.68,-585.12 -99.24,-593.91 -97.80,-603.03 -91.61,-633.54 -76.13,-704.57 -63.42,-768.11 -61.10,-781.29 -57.94,-799.19 -57.94,-799.21" fill="none" stroke="#bcbcbc" stroke-width="8" stroke-linecap="round" stroke-linejoin="round" /><polyline points="-225.70,782.63 -206.85,734.55 -204.50,725.91 -129.68,536.00 -124.43,522.30 -120.18,510.68 -75.47,380.62 -66.86,373.11" fill="none" stroke="#bcbcbc" stroke-width="8" stroke-linecap="round" stroke-linejoin="round" /><polyline points="30.76,-621.88 30.76,-621.90 28.11,-635.81 27.69,-637.50 21.23,-663.78 21.24,-663.86 16.83,-681.68 -1.84,-745.66 -4.20,-752.52 -16.80,-786.79 -20.90,-797.02 -23.55,-803.62 -26.98,-811.12 -26.98,-811.13 -26.98,-811.16 -29.49,-838.72 -29.73,-852.25" fill="none" stroke="#bcbcbc" stroke-width="8" stroke-linecap="round" stroke-linejoin="round" /><polyline points="2.78,463.64 -2.02,468.82 -9.18,477.33 -29.33,534.17 -35.17,550.62" fill="none" stroke="#bcbcbc" stroke-width="8" stroke-linecap="round" stroke-linejoin="round" /><polyline points="-332.13,-359.97 -329.37,-367.43 -328.75,-369.16 -315.66,-405.72 -310.75,-421.12 -270.63,-539.08" fill="none" stroke="#bcbcbc" stroke-width="8" stroke-linecap="round" stroke-linejoin="round" /><polyline points="-124.60,-194.60 -120.50,-205.47 -109.42,-234.92 -104.73,-247.36 -101.56,-255.79 -92.66,-279.42 -86.79,-295.03 -86.00,-297.13 -71.76,-334.94 -65.81,-333.10 -62.58,-341.88 -56.88,-357.41 -57.97,-364.46 -42.82,-405.69 -41.27,-409.92 -38.40,-412.56 -35.98,-414.78 -20.80,-456.30 -18.60,-467.66 3.19,-528.20 8.35,-532.23 18.83,-561.89 16.97,-566.44 26.15,-594.14 21.38,-618.87" fill="none" stroke="#bcbcbc" stroke-width="8" stroke-linecap="round" stroke-linejoin="round" /><polyline points="265.20,-1320.69 259.10,-1330.71 227.01,-1383.34" fill="none" stroke="#bcbcbc" stroke-width="8" stroke-linecap="round" stroke-linejoin="round" /><polyline points="365.70,-627.17 512.94,-532.50 512.98,-532.43 512.98,-532.41 540.22,-528.88" fill="none" stroke="#bcbcbc" stroke-width="8" stroke-linecap="round" stroke-linejoin="round" /><polyline points="306.65,-824.94 463.32,-746.31 468.04,-742.79 467.72,-717.05 470.90,-690.64" fill="none" stroke="#bcbcbc" stroke-width="8" stroke-linecap="round" stroke-linejoin="round" /><polyline points="7.98,564.30 2.34,581.49 -20.49,651.10 -59.31,768.33 -62.07,776.64 -64.86,785.07 -65.64,794.05" fill="none" stroke="#bcbcbc" stroke-width="8" stroke-linecap="round" stroke-linejoin="round" /><polyline points="449.00,141.44 449.94,132.70 450.14,124.55 450.07,124.27 444.52,100.28 442.24,90.25 441.14,85.41 440.02,80.47 433.93,53.63 422.02,-0.02 413.37,-32.27 412.15,-37.26" fill="none" stroke="#bcbcbc" stroke-width="8" stroke-linecap="round" stroke-linejoin="round" /><polyline points="-328.79,632.51 -324.90,621.48 -281.28,497.51 -276.33,483.43" fill="none" stroke="#bcbcbc" stroke-width="8" stroke-linecap="round" stroke-linejoin="round" /><polyline points="650.71,-376.96 637.88,-380.58 550.72,-514.32 540.22,-528.88" fill="none" stroke="#bcbcbc" stroke-width="8" stroke-linecap="round" stroke-linejoin="round" /><polyline points="-782.12,-56.08 -464.46,20.02 -442.56,28.02" fill="none" stroke="#bcbcbc" stroke-width="8" stroke-linecap="round" stroke-linejoin="round" /><polyline points="219.78,-1245.12 343.52,-1199.28 360.94,-1202.26" fill="none" stroke="#bcbcbc" stroke-width="8" stroke-linecap="round" stroke-linejoin="round" />
    <polyline points="352.80,352.80 286.75,333.34 167.20,298.17" fill="none" stroke="#ffffff" stroke-width="16" stroke-linecap="round" stroke-linejoin="round" />
    <polyline points="352.80,352.80 286.75,333.34 167.20,298.17" fill="none" stroke="#111111" stroke-width="9" stroke-linecap="round" stroke-linejoin="round" />
    
            <g transform="translate(352.80,352.80)">
              <circle r="19" fill="#ffffff" stroke="#111111" stroke-width="4" />
              <text text-anchor="middle" dominant-baseline="central" font-family="Helvetica, Arial, sans-serif"
                font-size="18" font-weight="700" fill="#111111">1</text>
            </g>
            
            <g transform="translate(167.20,298.17)">
              <circle r="19" fill="#ffffff" stroke="#111111" stroke-width="4" />
              <text text-anchor="middle" dominant-baseline="central" font-family="Helvetica, Arial, sans-serif"
                font-size="18" font-weight="700" fill="#111111">2</text>
            </g>
            
  </g>
</svg>
