<svg xmlns="http://www.w3.org/2000/svg" width="520" height="520" viewBox="0 0 520 520">
  <rect width="100%" height="100%" fill="#ffffff" />
  <g>
    <polyline points="400.95,518.13 402.75,527.71 414.37,609.05 412.59,629.39" fill="none" stroke="#bcbcbc" stroke-width="8" stroke-linecap="round" stroke-linejoin="round" /><polyline points="164.65,1195.94 167.46,1187.30 182.35,1141.49 184.11,1136.10 185.88,1130.43 223.33,1011.00 226.34,1001.39 219.44,984.40" fill="none" stroke="#bcbcbc" stroke-width="8" stroke-linecap="round" stroke-linejoin="round" /><polyline points="-94.01,1089.72 -94.62,1082.86 -82.38,1014.28 -80.66,1005.70 -79.38,1001.21 -76.01,983.82 -72.22,962.53 -68.09,943.79 -64.00,925.08 -61.43,919.81 -59.74,916.57" fill="none" stroke="#bcbcbc" stroke-width="8" stroke-linecap="round" stroke-linejoin="round" /><polyline points="-22.95,605.98 -25.86,597.11 -55.95,505.34 -57.42,501.49" fill="none" stroke="#bcbcbc" stroke-width="8" stroke-linecap="round" stroke-linejoin="round" /><polyline points="-177.33,1413.65 -176.43,1404.90 -176.07,1400.88 -172.79,1364.65 -169.21,1332.74 -168.37,1325.29 -167.59,1316.35 -167.50,1315.60 -165.47,1297.83 -163.72,1279.77 -161.79,1262.34 -160.49,1248.77 -159.94,1240.40 -159.47,1232.66 -158.61,1223.95" fill="none" stroke="#bcbcbc" stroke-width="8" stroke-linecap="round" stroke-linejoin="round" /><polyline points="238.38,1217.23 240.52,1210.50 255.62,1163.03 257.34,1157.64 259.77,1149.96 261.52,1144.45 274.88,1086.81" fill="none" stroke="#bcbcbc" stroke-width="8" stroke-linecap="round" stroke-linejoin="round" /><polyline points="179.70,278.37 185.27,279.23 338.90,302.84" fill="none" stroke="#bcbcbc" stroke-width="8" stroke-linecap="round" stroke-linejoin="round" /><polyline points="-214.70,1206.05 -230.69,1205.31 -240.44,1204.85 -245.74,1204.61 -250.39,1204.39 -286.60,1202.70 -336.96,1200.36 -360.97,1196.96 -369.00,1195.82 -375.98,1194.59 -423.19,1186.25 -429.79,1185.09 -431.25,1184.84 -439.41,1183.44 -445.67,1182.37 -485.68,1178.83 -493.30,1178.16 -496.09,1177.91 -504.75,1177.31 -521.68,1176.13" fill="none" stroke="#bcbcbc" stroke-width="8" stroke-linecap="round" stroke-linejoin="round" /><polyline points="17.61,1159.65 20.71,1150.83 48.62,1073.46 82.20,975.86 84.35,969.74 85.85,965.46 87.06,961.95" fill="none" stroke="#bcbcbc" stroke-width="8" stroke-linecap="round" stroke-linejoin="round" /><polyline points="-496.09,1177.91 -496.81,1172.93 -496.98,1167.53 -495.92,1156.65 -493.49,1136.78 -491.87,1130.11 -489.23,1106.00 -488.76,1100.63 -487.99,1093.72 -487.41,1088.60 -486.33,1082.78 -484.34,1067.15 -482.95,1055.18 -480.91,1050.29" fill="none" stroke="#bcbcbc" stroke-width="8" stroke-linecap="round" stroke-linejoin="round" /><polyline points="-524.66,1044.18 -487.43,1049.38 -480.91,1050.29 -476.87,1050.93 -460.18,1053.59 -421.73,1059.72 -415.13,1060.82" fill="none" stroke="#bcbcbc" stroke-width="8" stroke-linecap="round" stroke-linejoin="round" /><polyline points="160.47,555.74 160.71,559.13 161.21,562.56 162.42,565.18 164.68,568.11 168.87,571.92 178.79,577.96 255.34,625.98 302.48,689.19 338.09,777.08 340.41,782.89" fill="none" stroke="#bcbcbc" stroke-width="8" stroke-linecap="round" stroke-linejoin="round" /><polyline points="148.21,812.18 149.80,814.81 150.21,815.49 151.53,822.12 160.51,865.55 163.36,879.34 165.40,889.16 168.58,909.06 170.06,918.23 171.09,923.83 172.21,928.89 173.55,931.84 175.51,935.26 176.56,936.87 196.45,965.34 207.21,982.29 210.01,986.34" fill="none" stroke="#bcbcbc" stroke-width="8" stroke-linecap="round" stroke-linejoin="round" /><polyline points="-422.74,1356.00 -421.68,1349.48 -420.69,1344.77 -420.43,1344.14 -407.19,1312.66 -398.76,1292.20 -396.20,1285.72 -393.48,1278.85 -390.53,1272.95 -390.06,1271.80 -386.02,1262.04 -382.90,1253.41 -380.22,1245.49 -378.52,1239.89 -376.62,1232.97 -374.42,1223.70 -372.76,1216.17 -370.76,1205.67 -370.34,1203.33 -369.00,1195.82" fill="none" stroke="#bcbcbc" stroke-width="8" stroke-linecap="round" stroke-linejoin="round" /><polyline points="218.61,476.92 260.82,506.42 266.51,507.62 270.67,512.39" fill="none" stroke="#bcbcbc" stroke-width="8" stroke-linecap="round" stroke-linejoin="round" /><polyline points="41.38,749.34 46.96,751.48 71.18,759.41 127.35,780.95 130.50,784.09 131.98,786.44" fill="none" stroke="#bcbcbc" stroke-width="8" stroke-linecap="round" stroke-linejoin="round" /><polyline points="146.06,1303.00 149.89,1293.03 168.77,1241.79 182.13,1203.07 184.90,1201.80" fill="none" stroke="#bcbcbc" stroke-width="8" stroke-linecap="round" stroke-linejoin="round" /><polyline points="-120.90,1238.03 -117.92,1231.44 -117.62,1230.79 -112.52,1213.68 -104.17,1185.52 -102.03,1178.32 -100.37,1172.72 -100.15,1169.46 -100.49,1162.24" fill="none" stroke="#bcbcbc" stroke-width="8" stroke-linecap="round" stroke-linejoin="round" /><polyline points="226.23,814.43 221.44,815.42 210.59,813.49 208.91,809.01 190.11,801.85 185.67,803.01 168.70,796.78 166.17,798.55" fill="none" stroke="#bcbcbc" stroke-width="8" stroke-linecap="round" stroke-linejoin="round" /><polyline points="198.32,232.83 206.83,234.92 211.55,235.73 323.62,255.17" fill="none" stroke="#bcbcbc" stroke-width="8" stroke-linecap="round" stroke-linejoin="round" /><polyline points="111.21,1271.80 115.87,1258.65 124.93,1233.11 130.79,1222.22 139.21,1198.64 142.58,1189.22" fill="none" stroke="#bcbcbc" stroke-width="8" stroke-linecap="round" stroke-linejoin="round" /><polyline points="-502.83,761.62 -510.95,761.25 -512.98,763.72 -527.12,780.91 -576.55,838.02 -583.50,846.05" fill="none" stroke="#bcbcbc" stroke-width="8" stroke-linecap="round" stroke-linejoin="round" /><polyline points="-69.25,810.54 -72.83,818.47 -73.26,819.43 -85.71,851.90 -98.26,887.64 -101.61,897.17 -103.50,902.09" fill="none" stroke="#bcbcbc" stroke-width="8" stroke-linecap="round" stroke-linejoin="round" /><polyline points="113.36,445.73 117.32,451.10 120.14,458.48 124.54,469.07 131.59,485.73 137.83,500.68 145.00,517.10 150.32,529.76 151.11,531.57 151.16,531.69 155.44,541.70 156.72,544.54 157.93,547.25 159.22,549.78 160.19,552.36 160.47,555.74" fill="none" stroke="#bcbcbc" stroke-width="8" stroke-linecap="round" stroke-linejoin="round" /><polyline points="-189.40,970.58 -187.33,969.45 -184.43,967.15 -182.98,964.16 -163.75,891.22 -163.17,887.11 -160.82,879.59" fill="none" stroke="#bcbcbc" stroke-width="8" stroke-linecap="round" stroke-linejoin="round" /><polyline points="483.12,856.44 485.85,865.10 487.77,874.20 484.03,908.87 479.71,934.94 477.35,943.84 477.14,944.64 475.07,949.44 472.26,954.53 465.67,962.86 468.86,979.13 458.55,1014.06 452.86,1033.36 441.22,1064.93 424.17,1103.38 403.35,1140.23 396.84,1152.20 385.09,1171.88 338.12,1238.54 327.83,1252.41 287.98,1304.49 265.11,1330.52 233.11,1363.05 230.14,1363.36 222.92,1369.27" fill="none" stroke="#bcbcbc" stroke-width="8" stroke-linecap="round" stroke-linejoin="round" /><polyline points="-96.41,1426.71 -83.30,1386.04 -81.15,1379.33 -78.24,1375.10 -71.98,1356.30 -69.94,1349.92 -44.07,1268.92 -41.47,1260.78 -39.33,1253.62 -8.80,1157.54" fill="none" stroke="#bcbcbc" stroke-width="8" stroke-linecap="round" stroke-linejoin="round" /><polyline points="210.72,670.42 222.06,658.04 225.40,654.01 248.30,621.57" fill="none" stroke="#bcbcbc" stroke-width="8" stroke-linecap="round" stroke-linejoin="round" /><polyline points="-15.81,675.33 15.40,686.19 17.13,689.00 25.99,691.97 31.25,693.77 56.41,702.27" fill="none" stroke="#bcbcbc" stroke-width="8" stroke-linecap="round" stroke-linejoin="round" /><polyline points="256.23,459.32 270.67,512.39 287.38,574.90 289.91,580.11 290.32,586.06 301.65,607.22 332.23,664.26 338.92,674.12 340.85,677.01 386.55,762.45 407.55,781.54 410.49,785.35 414.65,788.90 454.52,823.00 457.23,825.31 464.39,829.11" fill="none" stroke="#bcbcbc" stroke-width="8" stroke-linecap="round" stroke-linejoin="round" /><polyline points="101.16,1435.34 200.60,1377.57 218.30,1368.52 222.92,1369.27" fill="none" stroke="#bcbcbc" stroke-width="8" stroke-linecap="round" stroke-linejoin="round" /><polyline points="208.98,1352.69 215.15,1345.36 270.54,1234.83 274.21,1227.58 277.27,1220.40 295.16,1176.15 300.49,1162.82 315.91,1116.15 325.91,1056.14 327.09,1047.40" fill="none" stroke="#bcbcbc" stroke-width="8" stroke-linecap="round" stroke-linejoin="round" /><polyline points="166.23,702.64 165.26,703.64 163.93,708.29 163.79,708.75 157.78,731.90 159.36,737.94 158.05,743.36 156.33,750.45 151.93,755.55 146.94,775.77 141.06,780.22 134.78,784.52 131.98,786.44" fill="none" stroke="#bcbcbc" stroke-width="8" stroke-linecap="round" stroke-linejoin="round" /><polyline points="-69.25,810.54 -66.69,803.98 -51.32,764.59 -47.97,755.99 -45.21,748.92 -25.58,698.61 -16.74,677.57 -15.81,675.33 -8.94,658.72 6.48,620.44 12.12,604.14 13.38,600.40 15.07,596.17" fill="none" stroke="#bcbcbc" stroke-width="8" stroke-linecap="round" stroke-linejoin="round" /><polyline points="102.71,571.71 105.68,580.56 203.20,663.87 256.41,710.17 335.90,779.28 342.83,784.83 345.94,786.77 359.74,799.29 378.15,815.00 419.93,850.63 433.43,862.24 442.38,872.95" fill="none" stroke="#bcbcbc" stroke-width="8" stroke-linecap="round" stroke-linejoin="round" /><polyline points="263.95,428.16 268.90,424.99 298.20,412.81 304.22,406.48" fill="none" stroke="#bcbcbc" stroke-width="8" stroke-linecap="round" stroke-linejoin="round" /><polyline points="297.79,1169.56 257.34,1157.64 184.11,1136.10" fill="none" stroke="#bcbcbc" stroke-width="8" stroke-linecap="round" stroke-linejoin="round" /><polyline points="389.63,901.88 380.33,881.17 359.67,831.90 358.13,827.99 354.60,819.00 341.29,785.11 340.45,782.92" fill="none" stroke="#bcbcbc" stroke-width="8" stroke-linecap="round" stroke-linejoin="round" /><polyline points="113.36,445.73 103.36,442.89 96.02,440.70 81.09,436.27 73.50,434.10 69.15,432.89 63.48,431.27" fill="none" stroke="#bcbcbc" stroke-width="8" stroke-linecap="round" stroke-linejoin="round" /><polyline points="-147.31,716.69 -147.81,715.03 -148.28,713.87 -150.34,708.75 -158.32,690.14 -165.91,671.23 -167.55,666.77 -169.43,661.63 -170.78,657.42 -173.01,651.12 -173.25,650.45 -180.50,632.56 -193.83,598.94 -196.82,597.23 -198.95,591.78 -203.20,577.01 -210.48,558.71 -212.05,554.55" fill="none" stroke="#bcbcbc" stroke-width="8" stroke-linecap="round" stroke-linejoin="round" /><polyline points="-83.30,1386.04 -75.73,1388.36 -51.25,1395.82 -43.58,1398.16" fill="none" stroke="#bcbcbc" stroke-width="8" stroke-linecap="round" stroke-linejoin="round" /><polyline points="373.90,436.97 375.33,431.20 374.75,429.01 374.05,426.36 369.58,409.99 359.61,375.36 354.36,357.66 352.80,352.80 338.90,302.84 331.40,275.89 323.62,255.17 316.59,236.47 309.59,223.62 302.78,216.83 250.56,153.01 246.70,148.46 244.14,144.27" fill="none" stroke="#bcbcbc" stroke-width="8" stroke-linecap="round" stroke-linejoin="round" /><polyline points="160.47,555.74 157.78,556.77 152.80,558.15 152.30,558.29 131.50,563.61 107.59,570.34 102.71,571.71 100.53,572.41 94.79,574.25 89.88,575.62 68.43,581.59 33.16,591.61 20.02,594.93 15.07,596.17 -8.44,601.94 -22.95,605.98 -53.70,614.57 -84.09,623.14 -87.60,624.12 -113.00,631.17 -124.72,634.42 -130.63,637.21 -141.83,642.77 -164.07,654.05 -165.62,654.84 -170.78,657.42 -173.93,659.00 -178.33,661.30 -193.95,669.50 -222.42,685.47 -246.20,697.93 -249.61,699.72 -254.15,700.00 -256.88,701.45 -257.43,701.74 -283.23,715.88 -288.63,715.86 -294.83,719.10 -297.00,720.24 -298.82,721.19 -303.14,723.45 -306.54,731.20 -321.14,739.02 -325.78,741.51 -330.80,744.24 -351.12,755.30 -361.62,761.02 -366.92,762.54" fill="none" stroke="#bcbcbc" stroke-width="8" stroke-linecap="round" stroke-linejoin="round" /><polyline points="452.86,1033.36 442.02,1034.35 408.16,1037.45 406.63,1037.59 404.47,1037.79 400.97,1038.11 368.14,1041.13 356.72,1040.07 343.42,1043.40 332.77,1046.01 327.09,1047.40 313.00,1047.94 300.79,1047.32 294.57,1046.66 289.28,1045.05 285.38,1042.90 270.86,1032.63 235.58,1008.40 232.26,1006.14 228.87,1003.85 226.34,1001.39" fill="none" stroke="#bcbcbc" stroke-width="8" stroke-linecap="round" stroke-linejoin="round" /><polyline points="-346.15,624.24 -333.35,649.30 -331.41,656.46 -320.62,677.04 -316.17,682.92 -298.15,718.00 -297.00,720.24" fill="none" stroke="#bcbcbc" stroke-width="8" stroke-linecap="round" stroke-linejoin="round" /><polyline points="46.13,847.12 44.22,852.39 43.68,854.03 41.18,861.61 25.34,905.80 17.48,927.75 17.21,928.49 14.05,935.32 12.24,939.37" fill="none" stroke="#bcbcbc" stroke-width="8" stroke-linecap="round" stroke-linejoin="round" /><polyline points="256.23,459.32 254.48,455.56 249.86,454.95 234.93,458.38 231.90,457.98 229.52,454.80 225.30,435.37 248.18,431.83 258.77,428.70 263.95,428.16 269.53,448.00" fill="none" stroke="#bcbcbc" stroke-width="8" stroke-linecap="round" stroke-linejoin="round" /><polyline points="338.92,674.12 344.81,670.82 374.41,652.98 382.32,648.27 396.17,640.01 418.95,625.28 424.26,621.45 464.22,596.66" fill="none" stroke="#bcbcbc" stroke-width="8" stroke-linecap="round" stroke-linejoin="round" /><polyline points="478.59,791.22 468.49,788.21 462.62,783.39 440.17,763.97 439.41,763.29 433.98,758.44 430.79,752.79 374.41,652.98" fill="none" stroke="#bcbcbc" stroke-width="8" stroke-linecap="round" stroke-linejoin="round" /><polyline points="-157.71,783.31 -69.25,810.54 -62.03,812.82 3.99,833.75 5.37,834.19 15.26,837.33 20.12,838.87 26.44,840.60 39.47,845.01 46.13,847.12 52.13,849.03 101.26,864.61 153.12,880.91 157.41,882.26 163.36,879.34" fill="none" stroke="#bcbcbc" stroke-width="8" stroke-linecap="round" stroke-linejoin="round" /><polyline points="102.40,346.52 140.72,311.31 147.21,305.34" fill="none" stroke="#bcbcbc" stroke-width="8" stroke-linecap="round" stroke-linejoin="round" /><polyline points="-539.28,914.74 -398.67,929.81" fill="none" stroke="#bcbcbc" stroke-width="8" stroke-linecap="round" stroke-linejoin="round" /><polyline points="-115.10,522.23 -85.55,511.66 -55.06,500.64 -36.12,493.27 21.70,472.24 38.49,466.43 41.99,465.22 46.20,463.78 50.92,462.15 51.49,461.95 61.02,458.12 65.16,456.46" fill="none" stroke="#bcbcbc" stroke-width="8" stroke-linecap="round" stroke-linejoin="round" /><polyline points="83.39,1237.47 111.21,1271.80 128.25,1288.95 135.62,1294.26 146.06,1303.00 155.87,1311.24 164.29,1319.46 164.50,1323.64" fill="none" stroke="#bcbcbc" stroke-width="8" stroke-linecap="round" stroke-linejoin="round" /><polyline points="113.36,445.73 124.27,418.40 141.92,373.39 167.20,308.92 179.70,278.37 198.32,232.83 213.58,195.52 216.32,190.57 229.74,168.62 230.61,167.20 235.52,157.54 244.14,144.27 248.95,136.86 255.75,126.38" fill="none" stroke="#bcbcbc" stroke-width="8" stroke-linecap="round" stroke-linejoin="round" /><polyline points="-143.89,1176.59 -145.67,1178.02 -146.85,1179.72 -149.26,1186.81 -150.92,1191.93 -158.60,1214.91 -159.66,1218.22 -160.31,1220.28 -167.37,1218.26 -184.54,1212.50 -201.55,1206.79 -214.70,1206.05" fill="none" stroke="#bcbcbc" stroke-width="8" stroke-linecap="round" stroke-linejoin="round" /><polyline points="-480.12,1336.46 -452.08,1264.05 -448.96,1256.16 -446.16,1248.57 -442.78,1239.40 -438.63,1224.96 -434.31,1207.03 -432.54,1194.17 -431.25,1184.84 -429.44,1177.95 -422.84,1126.16 -415.13,1060.82 -411.14,1029.67 -406.69,993.07 -398.67,929.81 -397.40,919.06 -389.29,852.90 -389.28,849.22 -387.49,829.59 -382.32,788.12 -381.03,780.89 -379.67,776.84 -377.56,772.37 -375.50,768.90 -370.97,763.99 -366.91,762.59" fill="none" stroke="#bcbcbc" stroke-width="8" stroke-linecap="round" stroke-linejoin="round" /><polyline points="131.98,786.44 133.52,788.87 138.66,796.90 146.36,809.24 148.21,812.18 151.28,809.85 166.17,798.55" fill="none" stroke="#bcbcbc" stroke-width="8" stroke-linecap="round" stroke-linejoin="round" /><polyline points="141.92,373.39 293.41,400.79 309.32,409.16 368.68,438.59 373.90,436.97" fill="none" stroke="#bcbcbc" stroke-width="8" stroke-linecap="round" stroke-linejoin="round" /><polyline points="-147.31,716.69 -149.99,720.61 -174.16,732.41 -191.91,754.97 -211.07,766.83 -224.17,776.72 -236.67,786.92 -243.08,792.76 -254.39,807.12 -267.05,825.27 -269.14,828.63" fill="none" stroke="#bcbcbc" stroke-width="8" stroke-linecap="round" stroke-linejoin="round" /><polyline points="-121.75,732.87 -122.80,735.20 -125.09,738.55 -129.42,743.88 -154.95,776.14 -168.46,812.52 -236.64,786.89" fill="none" stroke="#bcbcbc" stroke-width="8" stroke-linecap="round" stroke-linejoin="round" /><polyline points="-224.17,776.72 -226.81,768.73 -238.22,734.19 -242.65,727.36 -250.06,705.12 -250.70,703.20 -249.61,699.72 -251.38,694.05 -287.03,580.21" fill="none" stroke="#bcbcbc" stroke-width="8" stroke-linecap="round" stroke-linejoin="round" /><polyline points="193.53,155.60 221.71,156.34 223.02,156.38 228.42,156.54 235.52,157.54" fill="none" stroke="#bcbcbc" stroke-width="8" stroke-linecap="round" stroke-linejoin="round" /><polyline points="48.62,1073.46 39.00,1073.34 -42.45,1084.28 -48.32,1084.89 -55.04,1085.60 -94.01,1089.72 -146.53,1095.26 -174.37,1098.20 -189.77,1099.82 -202.27,1101.34 -208.69,1102.13 -215.92,1103.01 -250.86,1107.25 -259.23,1108.27 -285.04,1111.09 -422.84,1126.16" fill="none" stroke="#bcbcbc" stroke-width="8" stroke-linecap="round" stroke-linejoin="round" /><polyline points="-71.98,1356.30 -79.19,1353.98 -112.90,1343.13 -119.71,1340.94 -125.62,1339.03 -161.33,1327.56 -168.37,1325.29 -177.68,1322.29 -234.52,1304.00 -240.92,1301.94" fill="none" stroke="#bcbcbc" stroke-width="8" stroke-linecap="round" stroke-linejoin="round" /><polyline points="68.95,673.86 88.55,679.97 160.24,702.11 160.91,702.31 166.23,702.64" fill="none" stroke="#bcbcbc" stroke-width="8" stroke-linecap="round" stroke-linejoin="round" /><polyline points="270.67,512.39 368.19,514.10" fill="none" stroke="#bcbcbc" stroke-width="8" stroke-linecap="round" stroke-linejoin="round" /><polyline points="222.92,1369.27 208.98,1352.69 203.13,1345.89 198.10,1341.19 191.41,1336.20 177.73,1327.99 164.50,1323.64 137.57,1315.32 115.55,1308.33 128.25,1288.95" fill="none" stroke="#bcbcbc" stroke-width="8" stroke-linecap="round" stroke-linejoin="round" /><polyline points="83.39,1237.47 63.98,1213.51 60.29,1208.95 40.73,1182.01 36.31,1173.78 37.37,1163.99 43.26,1163.93 57.81,1166.73 79.94,1170.99" fill="none" stroke="#bcbcbc" stroke-width="8" stroke-linecap="round" stroke-linejoin="round" /><polyline points="-170.55,1045.47 -166.97,1053.17 -146.53,1095.26 -116.13,1157.85 -112.25,1165.83" fill="none" stroke="#bcbcbc" stroke-width="8" stroke-linecap="round" stroke-linejoin="round" /><polyline points="-498.00,1236.11 -490.68,1239.10 -456.44,1253.11 -448.96,1256.16 -441.09,1259.38 -400.77,1275.87 -393.48,1278.85" fill="none" stroke="#bcbcbc" stroke-width="8" stroke-linecap="round" stroke-linejoin="round" /><polyline points="-153.72,983.06 -82.38,1014.28" fill="none" stroke="#bcbcbc" stroke-width="8" stroke-linecap="round" stroke-linejoin="round" /><polyline points="166.23,702.64 177.10,703.22 177.79,703.83 182.67,708.16 189.83,714.56 191.16,717.13 215.86,738.76 217.69,742.22 235.06,757.55 239.43,758.88 252.94,770.72 255.97,772.10 276.34,789.39 280.88,793.41 283.38,797.39" fill="none" stroke="#bcbcbc" stroke-width="8" stroke-linecap="round" stroke-linejoin="round" /><polyline points="-518.13,983.13 -406.69,993.07" fill="none" stroke="#bcbcbc" stroke-width="8" stroke-linecap="round" stroke-linejoin="round" /><polyline points="-269.31,1398.15 -265.85,1390.80 -264.97,1387.53 -260.13,1369.68 -242.60,1307.86 -240.92,1301.94 -239.14,1295.45 -231.20,1266.41 -217.79,1217.36 -214.70,1206.05" fill="none" stroke="#bcbcbc" stroke-width="8" stroke-linecap="round" stroke-linejoin="round" /><polyline points="-170.55,1045.47 -153.72,983.06 -189.40,970.58 -198.74,976.10 -203.00,979.34 -206.15,983.60 -208.37,989.23 -216.57,1019.56 -209.96,1022.93 -203.27,1024.55 -188.48,1028.40 -177.42,1031.93 -170.55,1045.47" fill="none" stroke="#bcbcbc" stroke-width="8" stroke-linecap="round" stroke-linejoin="round" /><polyline points="-216.57,1019.56 -224.39,1018.47 -406.69,993.07" fill="none" stroke="#bcbcbc" stroke-width="8" stroke-linecap="round" stroke-linejoin="round" /><polyline points="79.94,1170.99 96.84,1174.68 142.58,1189.22 155.36,1193.26 185.71,1202.03 216.29,1210.85 238.92,1217.39 275.12,1227.84 282.60,1230.00 300.87,1236.13 330.95,1244.14 333.60,1244.64" fill="none" stroke="#bcbcbc" stroke-width="8" stroke-linecap="round" stroke-linejoin="round" /><polyline points="101.39,1435.21 95.21,1436.76 88.54,1455.35 78.20,1452.41 31.16,1436.38 25.50,1435.17 12.91,1434.27 -44.06,1434.50 -56.61,1432.90 -84.97,1428.56 -96.41,1426.71 -177.53,1413.62 -208.95,1408.61 -268.86,1398.23 -278.54,1396.31 -413.75,1358.51 -422.28,1356.13 -480.12,1336.46 -494.35,1331.42 -529.89,1316.68 -550.15,1309.02" fill="none" stroke="#bcbcbc" stroke-width="8" stroke-linecap="round" stroke-linejoin="round" /><polyline points="225.30,435.37 219.45,434.16 141.30,443.40 113.36,445.73" fill="none" stroke="#bcbcbc" stroke-width="8" stroke-linecap="round" stroke-linejoin="round" /><polyline points="79.94,1170.99 82.67,1166.40 99.07,1124.28 117.40,1060.59 122.07,1046.87 124.57,1043.14 142.26,986.35 143.14,979.57 143.81,975.14" fill="none" stroke="#bcbcbc" stroke-width="8" stroke-linecap="round" stroke-linejoin="round" /><polyline points="160.47,555.74 162.34,555.03 164.87,553.02 168.71,548.52 218.61,476.92 231.90,457.98" fill="none" stroke="#bcbcbc" stroke-width="8" stroke-linecap="round" stroke-linejoin="round" /><polyline points="382.55,818.78 383.57,815.84 408.65,786.33 410.49,785.35 414.85,779.38 429.44,762.62 433.98,758.44" fill="none" stroke="#bcbcbc" stroke-width="8" stroke-linecap="round" stroke-linejoin="round" /><polyline points="404.47,1037.79 404.12,1033.84 403.85,1030.79 402.53,1024.95 400.95,1021.14 398.98,1011.13 398.80,1007.50 397.47,999.40 391.50,996.28 386.73,998.11 378.18,1000.15 371.43,1001.21 364.94,1002.77 355.99,1004.81 351.91,1005.74" fill="none" stroke="#bcbcbc" stroke-width="8" stroke-linecap="round" stroke-linejoin="round" /><polyline points="-254.51,892.85 -236.27,850.09 -235.25,847.31" fill="none" stroke="#bcbcbc" stroke-width="8" stroke-linecap="round" stroke-linejoin="round" /><polyline points="226.23,814.43 235.02,811.03 239.62,809.25 243.18,805.65 257.83,802.03 262.75,803.29 273.36,800.55 281.45,798.47 283.38,797.39 291.23,795.47 331.36,785.64 340.45,782.92" fill="none" stroke="#bcbcbc" stroke-width="8" stroke-linecap="round" stroke-linejoin="round" /><polyline points="-143.89,1176.59 -124.96,1169.71 -118.63,1167.78 -112.25,1165.83 -100.49,1162.24 -91.34,1160.92 -60.08,1157.50 -53.80,1157.16 -25.84,1157.40 -8.80,1157.54 -2.40,1157.22 7.86,1158.26 11.07,1158.72 17.61,1159.65 37.37,1163.99" fill="none" stroke="#bcbcbc" stroke-width="8" stroke-linecap="round" stroke-linejoin="round" /><polyline points="-53.70,614.57 -56.83,603.97 -68.48,564.59 -82.63,519.68 -85.55,511.66 -88.52,504.15 -92.26,493.32" fill="none" stroke="#bcbcbc" stroke-width="8" stroke-linecap="round" stroke-linejoin="round" /><polyline points="-87.57,1249.60 -85.09,1241.74 -59.92,1162.38 -60.08,1157.50" fill="none" stroke="#bcbcbc" stroke-width="8" stroke-linecap="round" stroke-linejoin="round" /><polyline points="-53.80,1157.16 -48.82,1090.34 -48.32,1084.89 -47.56,1078.55 -47.55,1078.27 -47.22,1070.52 -45.56,1049.49 -44.62,1039.69 -43.34,1028.56 -42.17,1020.55 -41.12,1015.52 -39.80,1011.72 -37.22,1003.15 -31.87,985.31 -25.07,962.28 -17.58,938.73 -16.05,933.93 -14.82,930.44" fill="none" stroke="#bcbcbc" stroke-width="8" stroke-linecap="round" stroke-linejoin="round" /><polyline points="-216.57,1019.56 -217.90,1025.48 -217.67,1027.37 -209.55,1094.97 -208.69,1102.13 -209.07,1109.49 -211.19,1151.53 -212.08,1169.10 -212.54,1178.15 -213.36,1194.30 -213.78,1202.71 -214.70,1206.05" fill="none" stroke="#bcbcbc" stroke-width="8" stroke-linecap="round" stroke-linejoin="round" /><polyline points="-254.51,892.85 -284.02,884.08 -287.78,881.67 -306.15,876.32 -311.31,876.38 -334.39,869.42 -338.12,866.67 -359.12,860.30 -384.89,853.28 -385.01,853.27 -389.29,852.90" fill="none" stroke="#bcbcbc" stroke-width="8" stroke-linecap="round" stroke-linejoin="round" /><polyline points="283.38,797.39 284.41,798.74 288.69,805.12 296.60,816.91 304.05,824.38 318.36,840.45 315.94,855.31 314.72,860.88 313.01,863.23 316.60,868.54 322.15,879.97 333.25,901.39 338.71,911.93 342.11,921.41 343.65,925.81" fill="none" stroke="#bcbcbc" stroke-width="8" stroke-linecap="round" stroke-linejoin="round" /><polyline points="358.13,827.99 354.02,829.27 326.92,837.70 323.03,838.95 318.36,840.45" fill="none" stroke="#bcbcbc" stroke-width="8" stroke-linecap="round" stroke-linejoin="round" /><polyline points="163.36,879.34 171.83,876.59 233.36,845.17 241.59,841.15 270.59,832.77 298.70,824.87 304.05,824.38" fill="none" stroke="#bcbcbc" stroke-width="8" stroke-linecap="round" stroke-linejoin="round" /><polyline points="170.06,918.23 240.99,885.22 243.97,883.25 250.91,881.23 298.17,867.48 305.34,864.73 313.01,863.23" fill="none" stroke="#bcbcbc" stroke-width="8" stroke-linecap="round" stroke-linejoin="round" /><polyline points="155.59,226.19 184.30,229.74 187.18,230.10 198.32,232.83" fill="none" stroke="#bcbcbc" stroke-width="8" stroke-linecap="round" stroke-linejoin="round" /><polyline points="400.95,518.13 406.04,517.07 425.06,526.39 427.57,528.87 463.28,589.33 464.22,596.66 468.87,600.53 468.13,603.21 468.01,607.56 468.66,613.66 478.12,652.54 478.95,679.46 480.28,722.46 482.50,780.33 473.45,805.55 467.61,820.92 459.09,842.59 456.63,848.85 455.02,850.60 452.45,867.37" fill="none" stroke="#bcbcbc" stroke-width="8" stroke-linecap="round" stroke-linejoin="round" /><polyline points="466.97,969.50 458.29,965.72 436.58,950.57 407.95,930.44 392.20,917.70 381.57,906.32" fill="none" stroke="#bcbcbc" stroke-width="8" stroke-linecap="round" stroke-linejoin="round" /><polyline points="115.55,1308.33 107.02,1305.62 93.18,1301.24 86.57,1299.14 78.81,1296.68 69.01,1293.57 60.15,1290.76 51.39,1287.98 12.31,1275.58 5.47,1273.41 -3.03,1270.72 -4.91,1270.12 -27.25,1264.22 -33.56,1262.69 -41.47,1260.78 -49.75,1258.77 -79.57,1251.54 -87.57,1249.60 -96.17,1246.61 -114.13,1240.38 -120.90,1238.03 -126.95,1236.06 -155.07,1226.06 -158.61,1223.95 -160.31,1220.28" fill="none" stroke="#bcbcbc" stroke-width="8" stroke-linecap="round" stroke-linejoin="round" /><polyline points="243.97,883.25 241.90,875.82 235.73,853.69 233.36,845.17 229.92,838.81 229.61,837.63 227.58,830.13 229.94,826.82 227.11,817.37 226.23,814.43" fill="none" stroke="#bcbcbc" stroke-width="8" stroke-linecap="round" stroke-linejoin="round" /><polyline points="233.65,612.35 239.52,609.58 271.58,591.90 289.91,580.11 302.84,571.29 305.70,569.17 316.10,561.93 326.88,553.97 333.71,549.00 341.85,543.05 370.14,530.28 373.80,530.48 379.17,527.94 400.95,518.13" fill="none" stroke="#bcbcbc" stroke-width="8" stroke-linecap="round" stroke-linejoin="round" /><polyline points="-121.75,732.87 -117.13,734.75 -114.07,735.69 -56.73,753.30 -47.97,755.99" fill="none" stroke="#bcbcbc" stroke-width="8" stroke-linecap="round" stroke-linejoin="round" /><polyline points="-531.33,861.84 -572.30,849.44" fill="none" stroke="#bcbcbc" stroke-width="8" stroke-linecap="round" stroke-linejoin="round" /><polyline points="130.41,284.06 140.57,296.93 142.08,298.85 147.21,305.34 153.05,306.03 165.07,307.44 167.20,308.92" fill="none" stroke="#bcbcbc" stroke-width="8" stroke-linecap="round" stroke-linejoin="round" /><polyline points="483.12,856.44 467.03,859.44 450.52,868.41 435.23,876.93 420.76,884.17 403.27,893.66 390.61,901.35 365.59,914.77 267.93,963.91 242.61,975.06 225.88,982.30 217.59,985.01 210.73,986.29 199.50,986.97 183.52,984.71 143.66,975.14 87.06,961.95 12.61,939.49 -14.82,930.44 -59.74,916.57 -102.69,902.41 -165.70,877.68 -197.20,864.12 -235.18,847.23 -298.18,812.71 -312.95,802.92 -350.33,779.40 -366.00,763.72 -389.52,733.28 -428.25,693.33 -443.47,679.92" fill="none" stroke="#bcbcbc" stroke-width="8" stroke-linecap="round" stroke-linejoin="round" /><polyline points="177.73,1327.99 178.39,1324.31 180.78,1318.29 203.12,1266.01 211.56,1246.41 221.50,1221.99 223.93,1213.05" fill="none" stroke="#bcbcbc" stroke-width="8" stroke-linecap="round" stroke-linejoin="round" /><polyline points="-250.86,1107.25 -276.24,1094.97 -333.99,1067.01 -404.82,1032.73 -411.14,1029.67" fill="none" stroke="#bcbcbc" stroke-width="8" stroke-linecap="round" stroke-linejoin="round" /><polyline points="166.23,702.64 172.64,696.08 189.68,678.64 203.20,663.87" fill="none" stroke="#bcbcbc" stroke-width="8" stroke-linecap="round" stroke-linejoin="round" /><polyline points="-325.78,741.51 -332.82,732.19 -365.81,688.50 -412.90,650.39" fill="none" stroke="#bcbcbc" stroke-width="8" stroke-linecap="round" stroke-linejoin="round" /><polyline points="-530.15,1316.58 -523.71,1301.30 -503.23,1250.25 -500.75,1243.55 -498.00,1236.11 -496.95,1233.43 -496.67,1229.23 -494.05,1189.54 -493.30,1178.16" fill="none" stroke="#bcbcbc" stroke-width="8" stroke-linecap="round" stroke-linejoin="round" /><polyline points="-544.11,906.18 -531.33,861.84 -514.47,803.36 -512.38,796.12 -510.06,787.89 -504.86,769.48 -504.32,767.55 -502.83,761.62 -500.45,754.93 -499.88,753.31 -496.88,745.88 -491.00,732.90 -489.24,729.17" fill="none" stroke="#bcbcbc" stroke-width="8" stroke-linecap="round" stroke-linejoin="round" /><polyline points="-512.38,796.12 -486.52,802.73 -431.73,816.82 -400.51,826.54 -387.49,829.59" fill="none" stroke="#bcbcbc" stroke-width="8" stroke-linecap="round" stroke-linejoin="round" /><polyline points="20.02,594.93 20.90,589.55 21.78,583.96 25.57,565.26 35.06,521.74 42.84,482.82 44.26,474.74 46.20,463.78 46.20,463.77" fill="none" stroke="#bcbcbc" stroke-width="8" stroke-linecap="round" stroke-linejoin="round" /><polyline points="-56.56,1432.91 -45.01,1403.45 -43.58,1398.16 2.25,1281.80 5.47,1273.41 8.07,1266.29 35.46,1186.61 40.73,1182.01" fill="none" stroke="#bcbcbc" stroke-width="8" stroke-linecap="round" stroke-linejoin="round" /><polyline points="100.53,572.41 100.53,572.39 98.91,563.87 98.65,562.84 94.69,546.74 94.70,546.69 92.00,535.77 80.56,496.57 79.12,492.37 71.39,471.37 68.88,465.10 67.27,461.06 65.16,456.47 65.16,456.46 65.16,456.44 63.63,439.56 63.48,431.27" fill="none" stroke="#bcbcbc" stroke-width="8" stroke-linecap="round" stroke-linejoin="round" /><polyline points="83.39,1237.47 80.45,1240.65 76.07,1245.86 63.72,1280.68 60.15,1290.76" fill="none" stroke="#bcbcbc" stroke-width="8" stroke-linecap="round" stroke-linejoin="round" /><polyline points="-121.75,732.87 -120.07,728.30 -119.69,727.24 -111.67,704.84 -108.66,695.41 -84.09,623.14" fill="none" stroke="#bcbcbc" stroke-width="8" stroke-linecap="round" stroke-linejoin="round" /><polyline points="5.37,834.19 7.87,827.53 14.66,809.49 17.53,801.86 19.48,796.70 24.93,782.22 28.53,772.66 29.01,771.37 37.73,748.21 41.38,749.34 43.35,743.96 46.85,734.44 46.18,730.12 55.46,704.86 56.41,702.27 58.17,700.65 59.65,699.29 68.95,673.86 70.29,666.89 83.64,629.80 86.80,627.33 93.22,609.16 92.08,606.37 97.70,589.40 94.79,574.25" fill="none" stroke="#bcbcbc" stroke-width="8" stroke-linecap="round" stroke-linejoin="round" /><polyline points="244.14,144.27 240.40,138.13 220.74,105.88" fill="none" stroke="#bcbcbc" stroke-width="8" stroke-linecap="round" stroke-linejoin="round" /><polyline points="305.70,569.17 395.89,627.17 395.91,627.21 395.91,627.22 412.59,629.39" fill="none" stroke="#bcbcbc" stroke-width="8" stroke-linecap="round" stroke-linejoin="round" /><polyline points="269.53,448.00 365.49,496.17 368.38,498.33 368.19,514.10 370.14,530.28" fill="none" stroke="#bcbcbc" stroke-width="8" stroke-linecap="round" stroke-linejoin="round" /><polyline points="86.57,1299.14 83.12,1309.67 69.14,1352.32 45.36,1424.14 43.67,1429.24 41.96,1434.40 41.48,1439.90" fill="none" stroke="#bcbcbc" stroke-width="8" stroke-linecap="round" stroke-linejoin="round" /><polyline points="356.72,1040.07 357.29,1034.72 357.42,1029.72 357.38,1029.55 353.98,1014.85 352.58,1008.71 351.91,1005.74 351.22,1002.72 347.49,986.27 340.20,953.40 334.90,933.64 334.15,930.59" fill="none" stroke="#bcbcbc" stroke-width="8" stroke-linecap="round" stroke-linejoin="round" /><polyline points="-119.71,1340.94 -117.33,1334.17 -90.61,1258.22 -87.57,1249.60" fill="none" stroke="#bcbcbc" stroke-width="8" stroke-linecap="round" stroke-linejoin="round" /><polyline points="480.28,722.46 472.42,720.24 419.03,638.30 412.59,629.39" fill="none" stroke="#bcbcbc" stroke-width="8" stroke-linecap="round" stroke-linejoin="round" /><polyline points="-397.40,919.06 -202.82,965.68 -189.40,970.58" fill="none" stroke="#bcbcbc" stroke-width="8" stroke-linecap="round" stroke-linejoin="round" /><polyline points="216.32,190.57 292.11,218.65 302.78,216.83" fill="none" stroke="#bcbcbc" stroke-width="8" stroke-linecap="round" stroke-linejoin="round" />
    <polyline points="167.20,308.92 172.73,312.73 352.80,352.80" fill="none" stroke="#ffffff" stroke-width="16" stroke-linecap="round" stroke-linejoin="round" />
    <polyline points="167.20,308.92 172.73,312.73 352.80,352.80" fill="none" stroke="#111111" stroke-width="9" stroke-linecap="round" stroke-linejoin="round" />
    
            <g transform="translate(167.20,308.92)">
              <circle r="19" fill="#ffffff" stroke="#111111" stroke-width="4" />
              <text text-anchor="middle" dominant-baseline="central" font-family="Helvetica, Arial, sans-serif"
                font-size="18" font-weight="700" fill="#111111">1</text>
            </g>
            
            <g transform="translate(352.80,352.80)">
              <circle r="19" fill="#ffffff" stroke="#111111" stroke-width="4" />
              <text text-anchor="middle" dominant-baseline="central" font-family="Helvetica, Arial, sans-serif"
                font-size="18" font-weight="700" fill="#111111">2</text>
            </g>
            
  </g>
</svg>
