<svg xmlns="http://www.w3.org/2000/svg" width="520" height="520" viewBox="0 0 520 520">
  <rect width="100%" height="100%" fill="#ffffff" />
  <g>
    <polyline points="261.60,-245.94 264.41,-230.98 282.55,-104.08 279.78,-72.35" fill="none" stroke="#bcbcbc" stroke-width="8" stroke-linecap="round" stroke-linejoin="round" /><polyline points="-107.13,811.61 -102.74,798.13 -79.50,726.66 -76.76,718.24 -73.99,709.40 -15.56,523.06 -10.86,508.07 -21.62,481.56" fill="none" stroke="#bcbcbc" stroke-width="8" stroke-linecap="round" stroke-linejoin="round" /><polyline points="-510.75,645.88 -511.69,635.17 -492.59,528.18 -489.91,514.79 -487.91,507.78 -482.65,480.65 -476.74,447.44 -470.30,418.19 -463.92,389.01 -459.90,380.78 -457.27,375.73" fill="none" stroke="#bcbcbc" stroke-width="8" stroke-linecap="round" stroke-linejoin="round" /><polyline points="-399.86,-108.86 -404.40,-122.71 -451.35,-265.89 -453.64,-271.90" fill="none" stroke="#bcbcbc" stroke-width="8" stroke-linecap="round" stroke-linejoin="round" /><polyline points="-640.75,1151.30 -639.35,1137.63 -638.79,1131.36 -633.67,1074.83 -628.08,1025.05 -626.77,1013.43 -625.56,999.48 -625.43,998.31 -622.25,970.59 -619.52,942.41 -616.51,915.21 -614.48,894.04 -613.63,880.97 -612.88,868.91 -611.55,855.31" fill="none" stroke="#bcbcbc" stroke-width="8" stroke-linecap="round" stroke-linejoin="round" /><polyline points="7.93,844.83 11.27,834.32 34.83,760.27 37.51,751.85 41.31,739.86 44.04,731.27 64.89,641.34" fill="none" stroke="#bcbcbc" stroke-width="8" stroke-linecap="round" stroke-linejoin="round" /><polyline points="-83.64,-620.01 -74.95,-618.68 164.78,-581.84" fill="none" stroke="#bcbcbc" stroke-width="8" stroke-linecap="round" stroke-linejoin="round" /><polyline points="-699.07,827.38 -724.03,826.22 -739.24,825.51 -747.51,825.13 -754.76,824.79 -811.26,822.16 -889.86,818.51 -927.31,813.20 -939.85,811.42 -950.73,809.50 -1024.41,796.50 -1034.71,794.68 -1036.99,794.29 -1049.71,792.11 -1059.49,790.43 -1121.92,784.91 -1133.81,783.86 -1138.17,783.48 -1151.67,782.54 -1178.10,780.71" fill="none" stroke="#bcbcbc" stroke-width="8" stroke-linecap="round" stroke-linejoin="round" /><polyline points="-336.57,754.99 -331.73,741.24 -288.18,620.51 -235.79,468.23 -232.43,458.68 -230.09,452.00 -228.19,446.53" fill="none" stroke="#bcbcbc" stroke-width="8" stroke-linecap="round" stroke-linejoin="round" /><polyline points="-1138.17,783.48 -1139.28,775.71 -1139.54,767.28 -1137.89,750.31 -1134.10,719.31 -1131.57,708.90 -1127.46,671.28 -1126.72,662.90 -1125.51,652.13 -1124.62,644.13 -1122.94,635.06 -1119.82,610.66 -1117.65,592.00 -1114.47,584.36" fill="none" stroke="#bcbcbc" stroke-width="8" stroke-linecap="round" stroke-linejoin="round" /><polyline points="-1182.74,574.82 -1124.65,582.94 -1114.47,584.36 -1108.16,585.37 -1082.12,589.52 -1022.13,599.08 -1011.83,600.79" fill="none" stroke="#bcbcbc" stroke-width="8" stroke-linecap="round" stroke-linejoin="round" /><polyline points="-113.65,-187.25 -113.27,-181.97 -112.49,-176.62 -110.60,-172.52 -107.07,-167.96 -100.54,-162.01 -85.05,-152.59 34.39,-77.66 107.95,20.97 163.51,158.09 167.14,167.15" fill="none" stroke="#bcbcbc" stroke-width="8" stroke-linecap="round" stroke-linejoin="round" /><polyline points="-132.77,212.86 -130.30,216.96 -129.65,218.02 -127.60,228.36 -113.59,296.13 -109.14,317.64 -105.96,332.96 -101.00,364.00 -98.68,378.32 -97.08,387.06 -95.33,394.95 -93.24,399.55 -90.17,404.88 -88.53,407.40 -57.50,451.83 -40.71,478.26 -36.33,484.58" fill="none" stroke="#bcbcbc" stroke-width="8" stroke-linecap="round" stroke-linejoin="round" /><polyline points="-1023.70,1061.34 -1022.05,1051.17 -1020.51,1043.81 -1020.10,1042.84 -999.45,993.72 -986.28,961.80 -982.28,951.69 -978.05,940.98 -973.45,931.77 -972.70,929.97 -966.40,914.74 -961.54,901.27 -957.36,888.91 -954.71,880.18 -951.73,869.39 -948.31,854.92 -945.71,843.18 -942.60,826.79 -941.94,823.14 -939.85,811.42" fill="none" stroke="#bcbcbc" stroke-width="8" stroke-linecap="round" stroke-linejoin="round" /><polyline points="-22.92,-310.23 42.94,-264.21 51.82,-262.33 58.31,-254.90" fill="none" stroke="#bcbcbc" stroke-width="8" stroke-linecap="round" stroke-linejoin="round" /><polyline points="-299.48,114.80 -290.78,118.15 -252.98,130.51 -165.32,164.13 -160.40,169.03 -158.10,172.70" fill="none" stroke="#bcbcbc" stroke-width="8" stroke-linecap="round" stroke-linejoin="round" /><polyline points="-136.13,978.65 -130.16,963.10 -100.69,883.14 -79.85,822.74 -75.53,820.75" fill="none" stroke="#bcbcbc" stroke-width="8" stroke-linecap="round" stroke-linejoin="round" /><polyline points="-552.70,877.27 -548.05,866.99 -547.59,865.98 -539.63,839.29 -526.60,795.36 -523.26,784.12 -520.67,775.38 -520.32,770.29 -520.85,759.03" fill="none" stroke="#bcbcbc" stroke-width="8" stroke-linecap="round" stroke-linejoin="round" /><polyline points="-11.03,216.37 -18.50,217.91 -35.43,214.90 -38.06,207.92 -67.39,196.73 -74.33,198.54 -100.80,188.83 -104.75,191.58" fill="none" stroke="#bcbcbc" stroke-width="8" stroke-linecap="round" stroke-linejoin="round" /><polyline points="-54.59,-691.07 -41.30,-687.82 -33.94,-686.54 140.93,-656.22" fill="none" stroke="#bcbcbc" stroke-width="8" stroke-linecap="round" stroke-linejoin="round" /><polyline points="-190.51,929.96 -183.23,909.46 -169.10,869.60 -159.96,852.62 -146.82,815.82 -141.57,801.12" fill="none" stroke="#bcbcbc" stroke-width="8" stroke-linecap="round" stroke-linejoin="round" /><polyline points="-1148.67,133.97 -1161.34,133.39 -1164.52,137.25 -1186.58,164.06 -1263.72,253.16 -1274.57,265.69" fill="none" stroke="#bcbcbc" stroke-width="8" stroke-linecap="round" stroke-linejoin="round" /><polyline points="-472.10,210.29 -477.69,222.67 -478.37,224.17 -497.79,274.82 -517.37,330.58 -522.60,345.45 -525.56,353.13" fill="none" stroke="#bcbcbc" stroke-width="8" stroke-linecap="round" stroke-linejoin="round" /><polyline points="-187.15,-358.89 -180.98,-350.52 -176.57,-339.00 -169.72,-322.48 -158.72,-296.49 -148.97,-273.16 -137.78,-247.54 -129.48,-227.79 -128.25,-224.96 -128.18,-224.78 -121.50,-209.17 -119.50,-204.73 -117.60,-200.50 -115.60,-196.55 -114.08,-192.52 -113.64,-187.25" fill="none" stroke="#bcbcbc" stroke-width="8" stroke-linecap="round" stroke-linejoin="round" /><polyline points="-659.59,459.99 -656.36,458.23 -651.84,454.64 -649.58,449.98 -619.57,336.18 -618.66,329.76 -615.00,318.04" fill="none" stroke="#bcbcbc" stroke-width="8" stroke-linecap="round" stroke-linejoin="round" /><polyline points="389.83,281.91 394.09,295.42 397.09,309.62 391.25,363.71 384.51,404.39 380.83,418.27 380.49,419.53 377.27,427.02 372.87,434.96 362.60,447.95 367.58,473.34 351.49,527.84 342.61,557.94 324.44,607.21 297.83,667.20 265.35,724.68 255.20,743.37 236.86,774.06 163.57,878.08 147.51,899.72 85.33,980.98 49.63,1021.59 -0.30,1072.34 -4.92,1072.82 -16.20,1082.04" fill="none" stroke="#bcbcbc" stroke-width="8" stroke-linecap="round" stroke-linejoin="round" /><polyline points="-514.48,1171.66 -494.03,1108.21 -490.68,1097.74 -486.13,1091.14 -476.36,1061.81 -473.18,1051.85 -432.82,925.48 -428.76,912.77 -425.42,901.61 -377.79,751.70" fill="none" stroke="#bcbcbc" stroke-width="8" stroke-linecap="round" stroke-linejoin="round" /><polyline points="-35.23,-8.32 -17.54,-27.65 -12.32,-33.94 23.41,-84.55" fill="none" stroke="#bcbcbc" stroke-width="8" stroke-linecap="round" stroke-linejoin="round" /><polyline points="-388.71,-0.67 -340.01,16.29 -337.32,20.66 -323.49,25.30 -315.28,28.10 -276.03,41.36" fill="none" stroke="#bcbcbc" stroke-width="8" stroke-linecap="round" stroke-linejoin="round" /><polyline points="35.79,-337.70 58.31,-254.90 84.39,-157.36 88.34,-149.23 88.97,-139.95 106.65,-106.93 154.38,-17.94 164.81,-2.55 167.83,1.96 239.13,135.26 271.90,165.05 276.50,170.99 282.98,176.53 345.20,229.73 349.42,233.34 360.59,239.27" fill="none" stroke="#bcbcbc" stroke-width="8" stroke-linecap="round" stroke-linejoin="round" /><polyline points="-206.19,1185.13 -51.02,1094.99 -23.40,1080.87 -16.20,1082.04" fill="none" stroke="#bcbcbc" stroke-width="8" stroke-linecap="round" stroke-linejoin="round" /><polyline points="-37.96,1056.18 -28.33,1044.74 58.11,872.28 63.83,860.97 68.61,849.78 96.53,780.74 104.84,759.94 128.91,687.11 144.51,593.48 146.36,579.86" fill="none" stroke="#bcbcbc" stroke-width="8" stroke-linecap="round" stroke-linejoin="round" /><polyline points="-104.66,41.95 -106.17,43.50 -108.25,50.76 -108.46,51.48 -117.84,87.60 -115.38,97.03 -117.43,105.48 -120.10,116.55 -126.97,124.50 -134.76,156.05 -143.93,162.98 -153.73,169.70 -158.10,172.70" fill="none" stroke="#bcbcbc" stroke-width="8" stroke-linecap="round" stroke-linejoin="round" /><polyline points="-472.10,210.29 -468.11,200.07 -444.13,138.59 -438.91,125.19 -434.60,114.15 -403.96,35.65 -390.16,2.83 -388.71,-0.67 -377.99,-26.59 -353.94,-86.31 -345.13,-111.74 -343.17,-117.57 -340.54,-124.18" fill="none" stroke="#bcbcbc" stroke-width="8" stroke-linecap="round" stroke-linejoin="round" /><polyline points="-203.78,-162.33 -199.15,-148.53 -46.97,-18.54 36.07,53.70 160.10,161.52 170.92,170.18 175.77,173.21 197.29,192.75 226.03,217.26 291.23,272.85 312.28,290.95 326.25,307.67" fill="none" stroke="#bcbcbc" stroke-width="8" stroke-linecap="round" stroke-linejoin="round" /><polyline points="47.83,-386.30 55.55,-391.25 101.27,-410.26 110.67,-420.14" fill="none" stroke="#bcbcbc" stroke-width="8" stroke-linecap="round" stroke-linejoin="round" /><polyline points="100.64,770.46 37.51,751.85 -76.76,718.24" fill="none" stroke="#bcbcbc" stroke-width="8" stroke-linecap="round" stroke-linejoin="round" /><polyline points="-103.14,-572.36 -94.52,-566.41 186.47,-503.89" fill="none" stroke="#bcbcbc" stroke-width="8" stroke-linecap="round" stroke-linejoin="round" /><polyline points="-187.15,-358.89 -202.76,-363.33 -214.22,-366.74 -237.52,-373.66 -249.36,-377.04 -256.14,-378.92 -264.99,-381.46" fill="none" stroke="#bcbcbc" stroke-width="8" stroke-linecap="round" stroke-linejoin="round" /><polyline points="-593.91,63.86 -594.70,61.28 -595.43,59.47 -598.64,51.48 -611.10,22.45 -622.93,-7.05 -625.49,-14.02 -628.44,-22.04 -630.54,-28.60 -634.02,-38.44 -634.39,-39.48 -645.71,-67.39 -666.50,-119.85 -671.18,-122.52 -674.50,-131.02 -681.13,-154.07 -692.49,-182.62 -694.94,-189.11" fill="none" stroke="#bcbcbc" stroke-width="8" stroke-linecap="round" stroke-linejoin="round" /><polyline points="-494.03,1108.21 -482.22,1111.83 -444.02,1123.47 -432.05,1127.12" fill="none" stroke="#bcbcbc" stroke-width="8" stroke-linecap="round" stroke-linejoin="round" /><polyline points="219.40,-372.57 221.63,-381.57 220.72,-384.99 219.63,-389.11 212.66,-414.66 197.11,-468.69 188.90,-496.30 186.47,-503.89 164.78,-581.84 153.08,-623.89 140.93,-656.22 129.96,-685.39 119.04,-705.44 108.42,-716.04 26.93,-815.61 20.90,-822.70 16.91,-829.25" fill="none" stroke="#bcbcbc" stroke-width="8" stroke-linecap="round" stroke-linejoin="round" /><polyline points="-113.64,-187.25 -117.85,-185.64 -125.62,-183.50 -126.39,-183.28 -158.85,-174.98 -196.16,-164.48 -203.78,-162.33 -207.18,-161.25 -216.14,-158.37 -223.80,-156.24 -257.27,-146.93 -312.30,-131.29 -332.81,-126.11 -340.54,-124.18 -377.21,-115.17 -399.86,-108.86 -447.84,-95.46 -495.26,-82.09 -500.75,-80.57 -540.38,-69.57 -558.66,-64.50 -567.89,-60.14 -585.36,-51.47 -620.07,-33.86 -622.49,-32.63 -630.54,-28.60 -635.46,-26.14 -642.31,-22.55 -666.70,-9.76 -711.12,15.16 -748.23,34.60 -753.54,37.38 -760.63,37.83 -764.89,40.09 -765.74,40.54 -806.00,62.60 -814.43,62.57 -824.11,67.63 -827.49,69.40 -830.34,70.89 -837.07,74.41 -842.37,86.51 -865.16,98.71 -872.41,102.59 -880.24,106.86 -911.95,124.11 -928.33,133.03 -936.59,135.41" fill="none" stroke="#bcbcbc" stroke-width="8" stroke-linecap="round" stroke-linejoin="round" /><polyline points="342.61,557.94 325.69,559.49 272.85,564.33 270.47,564.55 267.10,564.86 261.64,565.36 210.41,570.07 192.59,568.41 171.84,573.61 155.21,577.69 146.36,579.86 124.36,580.69 105.32,579.72 95.62,578.69 87.35,576.19 81.27,572.83 58.61,556.81 3.57,519.00 -1.62,515.48 -6.91,511.90 -10.86,508.07" fill="none" stroke="#bcbcbc" stroke-width="8" stroke-linecap="round" stroke-linejoin="round" /><polyline points="-904.18,-80.38 -884.21,-41.28 -881.19,-30.10 -864.36,2.00 -857.41,11.18 -829.29,65.90 -827.49,69.40" fill="none" stroke="#bcbcbc" stroke-width="8" stroke-linecap="round" stroke-linejoin="round" /><polyline points="-292.06,267.38 -295.05,275.60 -295.89,278.15 -299.79,289.98 -324.50,358.92 -336.77,393.16 -337.19,394.33 -342.12,404.97 -344.94,411.30" fill="none" stroke="#bcbcbc" stroke-width="8" stroke-linecap="round" stroke-linejoin="round" /><polyline points="35.79,-337.70 33.05,-343.56 25.84,-344.51 2.55,-339.17 -2.18,-339.78 -5.89,-344.75 -12.48,-375.06 23.22,-380.59 39.74,-385.46 47.83,-386.30 56.53,-355.36" fill="none" stroke="#bcbcbc" stroke-width="8" stroke-linecap="round" stroke-linejoin="round" /><polyline points="164.81,-2.55 174.00,-7.71 220.19,-35.54 232.54,-42.89 254.14,-55.77 289.69,-78.76 297.99,-84.72 360.34,-123.40" fill="none" stroke="#bcbcbc" stroke-width="8" stroke-linecap="round" stroke-linejoin="round" /><polyline points="382.76,180.15 367.00,175.46 357.83,167.94 322.81,137.63 321.62,136.57 313.15,129.01 308.17,120.19 220.19,-35.54" fill="none" stroke="#bcbcbc" stroke-width="8" stroke-linecap="round" stroke-linejoin="round" /><polyline points="-610.14,167.81 -472.10,210.29 -460.84,213.86 -357.83,246.51 -355.67,247.19 -340.24,252.09 -332.65,254.50 -322.79,257.19 -302.46,264.08 -292.06,267.38 -282.70,270.34 -206.04,294.66 -125.11,320.09 -118.42,322.19 -109.14,317.64" fill="none" stroke="#bcbcbc" stroke-width="8" stroke-linecap="round" stroke-linejoin="round" /><polyline points="-204.26,-513.69 -144.46,-568.63 -134.34,-577.93" fill="none" stroke="#bcbcbc" stroke-width="8" stroke-linecap="round" stroke-linejoin="round" /><polyline points="-1205.56,372.87 -986.14,396.39" fill="none" stroke="#bcbcbc" stroke-width="8" stroke-linecap="round" stroke-linejoin="round" /><polyline points="-543.66,-239.54 -497.54,-256.03 -449.97,-273.22 -420.42,-284.71 -330.18,-317.53 -303.99,-326.59 -298.52,-328.48 -291.96,-330.74 -284.60,-333.27 -283.70,-333.58 -268.83,-339.56 -262.37,-342.15" fill="none" stroke="#bcbcbc" stroke-width="8" stroke-linecap="round" stroke-linejoin="round" /><polyline points="-233.92,876.40 -190.51,929.96 -163.93,956.73 -152.42,965.01 -136.13,978.65 -120.83,991.50 -107.68,1004.33 -107.36,1010.85" fill="none" stroke="#bcbcbc" stroke-width="8" stroke-linecap="round" stroke-linejoin="round" /><polyline points="-187.15,-358.89 -170.14,-401.54 -142.60,-471.76 -103.14,-572.36 -83.64,-620.01 -54.59,-691.07 -30.77,-749.28 -26.50,-757.00 -5.55,-791.26 -4.20,-793.47 3.47,-808.55 16.91,-829.25 24.42,-840.80 35.04,-857.15" fill="none" stroke="#bcbcbc" stroke-width="8" stroke-linecap="round" stroke-linejoin="round" /><polyline points="-588.57,781.42 -591.36,783.65 -593.20,786.30 -596.95,797.37 -599.55,805.36 -611.53,841.20 -613.18,846.38 -614.21,849.58 -625.22,846.43 -652.01,837.45 -678.56,828.54 -699.07,827.38" fill="none" stroke="#bcbcbc" stroke-width="8" stroke-linecap="round" stroke-linejoin="round" /><polyline points="-1113.24,1030.86 -1069.49,917.87 -1064.62,905.57 -1060.25,893.73 -1054.98,879.41 -1048.51,856.89 -1041.76,828.91 -1039.00,808.85 -1036.99,794.29 -1034.16,783.53 -1023.86,702.74 -1011.83,600.79 -1005.61,552.19 -998.66,495.09 -986.14,396.39 -984.16,379.61 -971.51,276.39 -971.50,270.64 -968.70,240.01 -960.63,175.32 -958.61,164.04 -956.50,157.71 -953.20,150.74 -949.99,145.33 -942.91,137.66 -936.58,135.49" fill="none" stroke="#bcbcbc" stroke-width="8" stroke-linecap="round" stroke-linejoin="round" /><polyline points="-158.10,172.70 -155.70,176.49 -147.68,189.01 -135.67,208.27 -132.77,212.86 -127.98,209.22 -104.75,191.58" fill="none" stroke="#bcbcbc" stroke-width="8" stroke-linecap="round" stroke-linejoin="round" /><polyline points="-142.60,-471.76 93.80,-429.02 118.63,-415.95 211.24,-370.04 219.40,-372.57" fill="none" stroke="#bcbcbc" stroke-width="8" stroke-linecap="round" stroke-linejoin="round" /><polyline points="-593.91,63.86 -598.10,69.98 -635.82,88.39 -663.52,123.59 -693.41,142.10 -713.85,157.53 -733.35,173.44 -743.35,182.56 -761.01,204.96 -780.76,233.27 -784.02,238.51" fill="none" stroke="#bcbcbc" stroke-width="8" stroke-linecap="round" stroke-linejoin="round" /><polyline points="-554.04,89.12 -555.67,92.75 -559.25,97.98 -566.01,106.29 -605.84,156.62 -626.92,213.39 -733.30,173.40" fill="none" stroke="#bcbcbc" stroke-width="8" stroke-linecap="round" stroke-linejoin="round" /><polyline points="-713.85,157.53 -717.97,145.06 -735.77,91.17 -742.68,80.52 -754.25,45.81 -755.25,42.81 -753.54,37.38 -756.31,28.54 -811.94,-149.07" fill="none" stroke="#bcbcbc" stroke-width="8" stroke-linecap="round" stroke-linejoin="round" /><polyline points="-62.05,-811.56 -18.09,-810.41 -16.04,-810.35 -7.62,-810.11 3.47,-808.55" fill="none" stroke="#bcbcbc" stroke-width="8" stroke-linecap="round" stroke-linejoin="round" /><polyline points="-288.18,620.51 -303.19,620.32 -430.29,637.39 -439.45,638.35 -449.93,639.46 -510.75,645.88 -592.69,654.53 -636.13,659.11 -660.17,661.65 -679.68,664.02 -689.70,665.24 -700.98,666.61 -755.50,673.23 -768.56,674.82 -808.83,679.22 -1023.86,702.74" fill="none" stroke="#bcbcbc" stroke-width="8" stroke-linecap="round" stroke-linejoin="round" /><polyline points="-476.36,1061.81 -487.62,1058.19 -540.21,1041.26 -550.84,1037.84 -560.07,1034.87 -615.79,1016.96 -626.77,1013.43 -641.31,1008.75 -730.00,980.21 -739.99,977.00" fill="none" stroke="#bcbcbc" stroke-width="8" stroke-linecap="round" stroke-linejoin="round" /><polyline points="-256.46,-2.96 -225.87,6.57 -114.00,41.11 -112.95,41.43 -104.66,41.95" fill="none" stroke="#bcbcbc" stroke-width="8" stroke-linecap="round" stroke-linejoin="round" /><polyline points="58.31,-254.90 210.49,-252.22" fill="none" stroke="#bcbcbc" stroke-width="8" stroke-linecap="round" stroke-linejoin="round" /><polyline points="-16.20,1082.04 -37.96,1056.18 -47.08,1045.57 -54.93,1038.24 -65.37,1030.44 -86.71,1017.64 -107.36,1010.85 -149.37,997.87 -183.74,986.96 -163.93,956.73" fill="none" stroke="#bcbcbc" stroke-width="8" stroke-linecap="round" stroke-linejoin="round" /><polyline points="-233.92,876.40 -264.21,839.02 -269.98,831.90 -300.49,789.87 -307.39,777.04 -305.74,761.76 -296.54,761.67 -273.85,766.04 -239.31,772.68" fill="none" stroke="#bcbcbc" stroke-width="8" stroke-linecap="round" stroke-linejoin="round" /><polyline points="-630.18,576.84 -624.59,588.86 -592.69,654.53 -545.26,752.18 -539.21,764.63" fill="none" stroke="#bcbcbc" stroke-width="8" stroke-linecap="round" stroke-linejoin="round" /><polyline points="-1141.13,874.29 -1129.72,878.96 -1076.28,900.80 -1064.62,905.57 -1052.34,910.59 -989.43,936.32 -978.05,940.98" fill="none" stroke="#bcbcbc" stroke-width="8" stroke-linecap="round" stroke-linejoin="round" /><polyline points="-603.92,479.47 -492.59,528.18" fill="none" stroke="#bcbcbc" stroke-width="8" stroke-linecap="round" stroke-linejoin="round" /><polyline points="-104.66,41.95 -87.70,42.84 -86.62,43.80 -79.01,50.55 -67.83,60.54 -65.76,64.55 -27.22,98.31 -24.37,103.69 2.74,127.61 9.56,129.69 30.64,148.16 35.37,150.32 67.16,177.29 74.24,183.57 78.15,189.78" fill="none" stroke="#bcbcbc" stroke-width="8" stroke-linecap="round" stroke-linejoin="round" /><polyline points="-1172.56,479.58 -998.66,495.09" fill="none" stroke="#bcbcbc" stroke-width="8" stroke-linecap="round" stroke-linejoin="round" /><polyline points="-784.28,1127.11 -778.89,1115.64 -777.51,1110.53 -769.96,1082.69 -742.60,986.23 -739.99,977.00 -737.22,966.87 -724.82,921.55 -703.90,845.02 -699.07,827.38" fill="none" stroke="#bcbcbc" stroke-width="8" stroke-linecap="round" stroke-linejoin="round" /><polyline points="-630.18,576.84 -603.92,479.47 -659.59,459.99 -674.17,468.60 -680.81,473.66 -685.73,480.31 -689.19,489.09 -702.00,536.42 -691.67,541.67 -681.23,544.21 -658.16,550.21 -640.89,555.71 -630.18,576.84" fill="none" stroke="#bcbcbc" stroke-width="8" stroke-linecap="round" stroke-linejoin="round" /><polyline points="-702.00,536.42 -714.19,534.72 -998.66,495.09" fill="none" stroke="#bcbcbc" stroke-width="8" stroke-linecap="round" stroke-linejoin="round" /><polyline points="-239.31,772.68 -212.93,778.44 -141.57,801.12 -121.62,807.43 -74.25,821.11 -26.54,834.87 8.77,845.08 65.26,861.39 76.93,864.76 105.44,874.32 152.37,886.82 156.51,887.59" fill="none" stroke="#bcbcbc" stroke-width="8" stroke-linecap="round" stroke-linejoin="round" /><polyline points="-205.84,1184.93 -215.47,1187.34 -225.88,1216.36 -242.02,1211.77 -315.42,1186.76 -324.26,1184.87 -343.91,1183.47 -432.79,1183.82 -452.39,1181.33 -496.64,1174.56 -514.48,1171.66 -641.08,1151.25 -690.10,1143.42 -783.59,1127.23 -798.68,1124.24 -1009.67,1065.26 -1022.98,1061.54 -1113.24,1030.86 -1135.44,1022.98 -1190.91,1000.00 -1222.52,988.04" fill="none" stroke="#bcbcbc" stroke-width="8" stroke-linecap="round" stroke-linejoin="round" /><polyline points="-12.48,-375.06 -21.62,-376.94 -143.56,-362.52 -187.15,-358.89" fill="none" stroke="#bcbcbc" stroke-width="8" stroke-linecap="round" stroke-linejoin="round" /><polyline points="-239.31,772.68 -235.04,765.53 -209.45,699.81 -180.86,600.43 -173.57,579.03 -169.67,573.21 -142.06,484.60 -140.69,474.02 -139.65,467.11" fill="none" stroke="#bcbcbc" stroke-width="8" stroke-linecap="round" stroke-linejoin="round" /><polyline points="-113.64,-187.25 -110.73,-188.36 -106.78,-191.50 -100.78,-198.51 -22.92,-310.23 -2.18,-339.78" fill="none" stroke="#bcbcbc" stroke-width="8" stroke-linecap="round" stroke-linejoin="round" /><polyline points="232.89,223.15 234.49,218.56 273.63,172.52 276.50,170.99 283.30,161.68 306.07,135.53 313.15,129.01" fill="none" stroke="#bcbcbc" stroke-width="8" stroke-linecap="round" stroke-linejoin="round" /><polyline points="267.10,564.86 266.56,558.70 266.14,553.93 264.08,544.82 261.61,538.87 258.53,523.26 258.26,517.60 256.17,504.96 246.86,500.09 239.41,502.94 226.08,506.13 215.54,507.78 205.42,510.22 191.45,513.41 185.08,514.86" fill="none" stroke="#bcbcbc" stroke-width="8" stroke-linecap="round" stroke-linejoin="round" /><polyline points="-761.19,338.72 -732.73,272.00 -731.14,267.66" fill="none" stroke="#bcbcbc" stroke-width="8" stroke-linecap="round" stroke-linejoin="round" /><polyline points="-11.03,216.37 2.69,211.06 9.86,208.28 15.41,202.66 38.28,197.02 45.96,198.98 62.51,194.71 75.14,191.46 78.15,189.78 90.40,186.78 153.01,171.44 167.20,167.20" fill="none" stroke="#bcbcbc" stroke-width="8" stroke-linecap="round" stroke-linejoin="round" /><polyline points="-588.57,781.42 -559.03,770.69 -549.15,767.67 -539.21,764.63 -520.85,759.03 -506.57,756.97 -457.80,751.64 -448.00,751.10 -404.37,751.48 -377.79,751.70 -367.79,751.19 -351.78,752.81 -346.77,753.53 -336.57,754.99 -305.74,761.76" fill="none" stroke="#bcbcbc" stroke-width="8" stroke-linecap="round" stroke-linejoin="round" /><polyline points="-447.84,-95.46 -452.73,-112.00 -470.91,-173.45 -492.98,-243.52 -497.54,-256.03 -502.17,-267.75 -508.02,-284.64" fill="none" stroke="#bcbcbc" stroke-width="8" stroke-linecap="round" stroke-linejoin="round" /><polyline points="-500.70,895.33 -496.82,883.07 -457.55,759.25 -457.80,751.64" fill="none" stroke="#bcbcbc" stroke-width="8" stroke-linecap="round" stroke-linejoin="round" /><polyline points="-448.00,751.10 -440.23,646.85 -439.45,638.35 -438.26,628.46 -438.24,628.01 -437.73,615.92 -435.14,583.11 -433.67,567.82 -431.67,550.46 -429.85,537.96 -428.22,530.11 -426.16,524.18 -422.12,510.81 -413.78,482.97 -403.17,447.04 -391.48,410.30 -389.10,402.80 -387.18,397.37" fill="none" stroke="#bcbcbc" stroke-width="8" stroke-linecap="round" stroke-linejoin="round" /><polyline points="-702.00,536.42 -704.06,545.65 -703.71,548.61 -691.04,654.07 -689.70,665.24 -690.28,676.73 -693.60,742.32 -694.99,769.73 -695.70,783.86 -696.97,809.05 -697.64,822.18 -699.07,827.38" fill="none" stroke="#bcbcbc" stroke-width="8" stroke-linecap="round" stroke-linejoin="round" /><polyline points="-761.19,338.72 -807.25,325.04 -813.10,321.28 -841.77,312.93 -849.82,313.01 -885.84,302.16 -891.65,297.87 -924.43,287.94 -964.64,276.98 -964.84,276.96 -971.51,276.39" fill="none" stroke="#bcbcbc" stroke-width="8" stroke-linecap="round" stroke-linejoin="round" /><polyline points="78.15,189.78 79.75,191.88 86.43,201.84 98.77,220.24 110.40,231.88 132.74,256.96 128.96,280.14 127.04,288.83 124.38,292.51 129.98,300.79 138.64,318.63 155.96,352.04 164.49,368.49 169.79,383.27 172.19,390.14" fill="none" stroke="#bcbcbc" stroke-width="8" stroke-linecap="round" stroke-linejoin="round" /><polyline points="194.79,237.52 188.37,239.52 146.08,252.68 140.01,254.62 132.74,256.96" fill="none" stroke="#bcbcbc" stroke-width="8" stroke-linecap="round" stroke-linejoin="round" /><polyline points="-109.14,317.64 -95.91,313.35 0.09,264.33 12.94,258.05 58.19,244.98 102.06,232.65 110.40,231.88" fill="none" stroke="#bcbcbc" stroke-width="8" stroke-linecap="round" stroke-linejoin="round" /><polyline points="-98.68,378.32 12.00,326.82 16.66,323.74 27.48,320.59 101.23,299.13 112.42,294.85 124.38,292.51" fill="none" stroke="#bcbcbc" stroke-width="8" stroke-linecap="round" stroke-linejoin="round" /><polyline points="-121.26,-701.43 -76.46,-695.89 -71.96,-695.34 -54.59,-691.07" fill="none" stroke="#bcbcbc" stroke-width="8" stroke-linecap="round" stroke-linejoin="round" /><polyline points="261.60,-245.94 269.54,-247.60 299.23,-233.04 303.14,-229.17 358.87,-134.84 360.34,-123.40 367.58,-117.37 366.43,-113.20 366.26,-106.40 367.26,-96.89 382.02,-36.23 383.33,5.78 385.39,72.87 388.87,163.16 374.73,202.51 365.63,226.49 352.33,260.29 348.48,270.07 345.98,272.80 341.97,298.96" fill="none" stroke="#bcbcbc" stroke-width="8" stroke-linecap="round" stroke-linejoin="round" /><polyline points="364.63,458.30 351.08,452.41 317.21,428.77 272.52,397.37 247.95,377.50 231.36,359.74" fill="none" stroke="#bcbcbc" stroke-width="8" stroke-linecap="round" stroke-linejoin="round" /><polyline points="-183.74,986.96 -197.05,982.74 -218.65,975.90 -228.96,972.63 -241.06,968.79 -256.36,963.94 -270.19,959.55 -283.86,955.22 -344.83,935.87 -355.51,932.48 -368.78,928.28 -371.70,927.36 -406.57,918.14 -416.42,915.76 -428.76,912.77 -441.68,909.64 -488.22,898.36 -500.70,895.33 -514.11,890.67 -542.14,880.94 -552.70,877.27 -562.14,874.21 -606.02,858.60 -611.55,855.31 -614.21,849.58" fill="none" stroke="#bcbcbc" stroke-width="8" stroke-linecap="round" stroke-linejoin="round" /><polyline points="16.66,323.74 13.43,312.15 3.79,277.61 0.09,264.33 -5.27,254.40 -5.76,252.56 -8.92,240.87 -5.25,235.69 -9.66,220.95 -11.03,216.37" fill="none" stroke="#bcbcbc" stroke-width="8" stroke-linecap="round" stroke-linejoin="round" /><polyline points="0.55,-98.94 9.71,-103.25 59.74,-130.83 88.34,-149.23 108.52,-162.99 112.97,-166.31 129.20,-177.59 146.03,-190.02 156.68,-197.77 169.38,-207.06 213.52,-226.97 219.25,-226.67 227.61,-230.63 261.60,-245.94" fill="none" stroke="#bcbcbc" stroke-width="8" stroke-linecap="round" stroke-linejoin="round" /><polyline points="-554.04,89.12 -546.82,92.05 -542.05,93.51 -452.57,120.99 -438.91,125.19" fill="none" stroke="#bcbcbc" stroke-width="8" stroke-linecap="round" stroke-linejoin="round" /><polyline points="-1193.15,290.33 -1257.08,270.98" fill="none" stroke="#bcbcbc" stroke-width="8" stroke-linecap="round" stroke-linejoin="round" /><polyline points="-160.56,-611.14 -144.71,-591.06 -142.34,-588.07 -134.34,-577.93 -125.22,-576.86 -106.48,-574.66 -103.14,-572.36" fill="none" stroke="#bcbcbc" stroke-width="8" stroke-linecap="round" stroke-linejoin="round" /><polyline points="389.83,281.91 364.72,286.60 338.96,300.59 315.09,313.88 292.51,325.17 265.23,339.98 245.48,351.98 206.43,372.91 54.03,449.58 14.52,466.99 -11.59,478.28 -24.52,482.51 -35.22,484.51 -52.74,485.57 -77.67,482.04 -139.88,467.11 -228.19,446.53 -344.38,411.48 -387.18,397.37 -457.27,375.73 -524.30,353.63 -622.61,315.05 -671.76,293.89 -731.03,267.55 -829.34,213.69 -852.38,198.40 -910.71,161.71 -935.17,137.25 -971.86,89.74 -1032.30,27.42 -1056.06,6.49" fill="none" stroke="#bcbcbc" stroke-width="8" stroke-linecap="round" stroke-linejoin="round" /><polyline points="-86.71,1017.64 -85.68,1011.89 -81.96,1002.51 -47.10,920.93 -33.93,890.36 -18.41,852.25 -14.62,838.31" fill="none" stroke="#bcbcbc" stroke-width="8" stroke-linecap="round" stroke-linejoin="round" /><polyline points="-755.50,673.23 -795.10,654.07 -885.21,610.45 -995.74,556.96 -1005.61,552.19" fill="none" stroke="#bcbcbc" stroke-width="8" stroke-linecap="round" stroke-linejoin="round" /><polyline points="-104.66,41.95 -94.66,31.71 -68.07,4.50 -46.97,-18.54" fill="none" stroke="#bcbcbc" stroke-width="8" stroke-linecap="round" stroke-linejoin="round" /><polyline points="-872.41,102.59 -883.39,88.05 -934.87,19.89 -1008.35,-39.58" fill="none" stroke="#bcbcbc" stroke-width="8" stroke-linecap="round" stroke-linejoin="round" /><polyline points="-1191.30,999.83 -1181.25,976.00 -1149.30,896.35 -1145.43,885.89 -1141.13,874.29 -1139.50,870.11 -1139.07,863.55 -1134.98,801.63 -1133.81,783.86" fill="none" stroke="#bcbcbc" stroke-width="8" stroke-linecap="round" stroke-linejoin="round" /><polyline points="-1213.10,359.51 -1193.15,290.33 -1166.84,199.09 -1163.58,187.79 -1159.96,174.96 -1151.85,146.23 -1151.00,143.21 -1148.68,133.98 -1144.97,123.53 -1144.07,121.00 -1139.40,109.41 -1130.21,89.15 -1127.47,83.34" fill="none" stroke="#bcbcbc" stroke-width="8" stroke-linecap="round" stroke-linejoin="round" /><polyline points="-1163.58,187.79 -1123.22,198.11 -1037.73,220.09 -989.02,235.25 -968.70,240.01" fill="none" stroke="#bcbcbc" stroke-width="8" stroke-linecap="round" stroke-linejoin="round" /><polyline points="-332.81,-126.11 -331.44,-134.51 -330.06,-143.23 -324.14,-172.40 -309.35,-240.29 -297.20,-301.03 -294.98,-313.63 -291.96,-330.74 -291.96,-330.75" fill="none" stroke="#bcbcbc" stroke-width="8" stroke-linecap="round" stroke-linejoin="round" /><polyline points="-452.31,1181.34 -434.29,1135.38 -432.05,1127.12 -360.54,945.58 -355.51,932.48 -351.45,921.37 -308.71,797.05 -300.49,789.87" fill="none" stroke="#bcbcbc" stroke-width="8" stroke-linecap="round" stroke-linejoin="round" /><polyline points="-207.18,-161.25 -207.18,-161.27 -209.71,-174.56 -210.11,-176.18 -216.29,-201.30 -216.28,-201.38 -220.49,-218.42 -238.34,-279.58 -240.59,-286.13 -252.64,-318.89 -256.56,-328.67 -259.09,-334.98 -262.36,-342.14 -262.37,-342.15 -262.37,-342.19 -264.76,-368.53 -264.99,-381.46" fill="none" stroke="#bcbcbc" stroke-width="8" stroke-linecap="round" stroke-linejoin="round" /><polyline points="-233.92,876.40 -238.51,881.36 -245.35,889.50 -264.62,943.83 -270.19,959.55" fill="none" stroke="#bcbcbc" stroke-width="8" stroke-linecap="round" stroke-linejoin="round" /><polyline points="-554.04,89.12 -551.40,81.99 -550.81,80.33 -538.30,45.38 -533.61,30.66 -495.26,-82.09" fill="none" stroke="#bcbcbc" stroke-width="8" stroke-linecap="round" stroke-linejoin="round" /><polyline points="-355.67,247.19 -351.76,236.80 -341.17,208.65 -336.69,196.75 -333.65,188.70 -325.15,166.11 -319.53,151.19 -318.78,149.18 -305.17,113.04 -299.48,114.80 -296.40,106.41 -290.95,91.57 -291.99,84.82 -277.51,45.41 -276.03,41.36 -273.28,38.84 -270.97,36.72 -256.46,-2.96 -254.36,-13.83 -233.53,-71.70 -228.60,-75.55 -218.58,-103.90 -220.36,-108.25 -211.59,-134.73 -216.14,-158.37" fill="none" stroke="#bcbcbc" stroke-width="8" stroke-linecap="round" stroke-linejoin="round" /><polyline points="16.91,-829.25 11.07,-838.83 -19.59,-889.14" fill="none" stroke="#bcbcbc" stroke-width="8" stroke-linecap="round" stroke-linejoin="round" /><polyline points="112.97,-166.31 253.71,-75.80 253.75,-75.74 253.75,-75.73 279.78,-72.35" fill="none" stroke="#bcbcbc" stroke-width="8" stroke-linecap="round" stroke-linejoin="round" /><polyline points="56.53,-355.36 206.27,-280.20 210.79,-276.83 210.49,-252.22 213.52,-226.97" fill="none" stroke="#bcbcbc" stroke-width="8" stroke-linecap="round" stroke-linejoin="round" /><polyline points="-228.96,972.63 -234.34,989.06 -256.16,1055.60 -293.27,1167.66 -295.90,1175.61 -298.57,1183.67 -299.32,1192.25" fill="none" stroke="#bcbcbc" stroke-width="8" stroke-linecap="round" stroke-linejoin="round" /><polyline points="192.59,568.41 193.48,560.06 193.68,552.27 193.61,552.00 188.31,529.07 186.13,519.48 185.08,514.86 184.01,510.13 178.18,484.47 166.81,433.19 158.54,402.36 157.36,397.60" fill="none" stroke="#bcbcbc" stroke-width="8" stroke-linecap="round" stroke-linejoin="round" /><polyline points="-550.84,1037.84 -547.13,1027.29 -505.43,908.78 -500.70,895.33" fill="none" stroke="#bcbcbc" stroke-width="8" stroke-linecap="round" stroke-linejoin="round" /><polyline points="385.39,72.87 373.13,69.41 289.82,-58.43 279.78,-72.35" fill="none" stroke="#bcbcbc" stroke-width="8" stroke-linecap="round" stroke-linejoin="round" /><polyline points="-984.16,379.61 -680.53,452.35 -659.59,459.99" fill="none" stroke="#bcbcbc" stroke-width="8" stroke-linecap="round" stroke-linejoin="round" /><polyline points="-26.50,-757.00 91.77,-713.19 108.42,-716.04" fill="none" stroke="#bcbcbc" stroke-width="8" stroke-linecap="round" stroke-linejoin="round" />
    <polyline points="243.95,352.80 229.42,320.49 197.20,243.63 194.79,237.52 189.28,223.49 168.51,170.63 167.20,167.20" fill="none" stroke="#ffffff" stroke-width="16" stroke-linecap="round" stroke-linejoin="round" />
    <polyline points="243.95,352.80 229.42,320.49 197.20,243.63 194.79,237.52 189.28,223.49 168.51,170.63 167.20,167.20" fill="none" stroke="#111111" stroke-width="9" stroke-linecap="round" stroke-linejoin="round" />
    
            <g transform="translate(243.95,352.80)">
              <circle r="19" fill="#ffffff" stroke="#111111" stroke-width="4" />
              <text text-anchor="middle" dominant-baseline="central" font-family="Helvetica, Arial, sans-serif"
                font-size="18" font-weight="700" fill="#111111">1</text>
            </g>
            
            <g transform="translate(167.20,167.20)">
              <circle r="19" fill="#ffffff" stroke="#111111" stroke-width="4" />
              <text text-anchor="middle" dominant-baseline="central" font-family="Helvetica, Arial, sans-serif"
                font-size="18" font-weight="700" fill="#111111">2</text>
            </g>
            
  </g>
</svg>
