<svg xmlns="http://www.w3.org/2000/svg" width="520" height="520" viewBox="0 0 520 520">
  <rect width="100%" height="100%" fill="#ffffff" />
  <g>
    <polyline points="1422.83,622.16 1429.54,657.82 1472.79,960.44 1466.18,1036.10" fill="none" stroke="#bcbcbc" stroke-width="8" stroke-linecap="round" stroke-linejoin="round" /><polyline points="543.62,3144.07 554.08,3111.92 609.49,2941.49 616.02,2921.40 622.63,2900.32 761.96,2455.96 773.16,2420.22 747.50,2357.01" fill="none" stroke="#bcbcbc" stroke-width="8" stroke-linecap="round" stroke-linejoin="round" /><polyline points="-418.80,2748.84 -421.05,2723.32 -375.50,2468.17 -369.11,2436.25 -364.33,2419.54 -351.80,2354.83 -337.71,2275.63 -322.35,2205.88 -307.13,2136.29 -297.54,2116.67 -291.27,2104.64" fill="none" stroke="#bcbcbc" stroke-width="8" stroke-linecap="round" stroke-linejoin="round" /><polyline points="-154.40,949.03 -165.22,916.01 -277.17,574.57 -282.63,560.25" fill="none" stroke="#bcbcbc" stroke-width="8" stroke-linecap="round" stroke-linejoin="round" /><polyline points="-728.79,3954.11 -725.45,3921.52 -724.09,3906.57 -711.90,3771.76 -698.57,3653.06 -695.45,3625.34 -692.56,3592.08 -692.24,3589.29 -684.67,3523.17 -678.15,3455.97 -670.97,3391.12 -666.13,3340.63 -664.11,3309.47 -662.33,3280.70 -659.15,3248.27" fill="none" stroke="#bcbcbc" stroke-width="8" stroke-linecap="round" stroke-linejoin="round" /><polyline points="817.97,3223.29 825.94,3198.22 882.12,3021.62 888.50,3001.56 897.57,2972.97 904.07,2952.49 953.79,2738.04" fill="none" stroke="#bcbcbc" stroke-width="8" stroke-linecap="round" stroke-linejoin="round" /><polyline points="599.62,-269.89 620.36,-266.71 1191.98,-178.87" fill="none" stroke="#bcbcbc" stroke-width="8" stroke-linecap="round" stroke-linejoin="round" /><polyline points="-867.85,3181.68 -927.34,3178.91 -963.62,3177.22 -983.33,3176.30 -1000.62,3175.50 -1135.35,3169.23 -1322.75,3160.52 -1412.07,3147.85 -1441.97,3143.61 -1467.91,3139.03 -1643.59,3108.02 -1668.14,3103.69 -1673.59,3102.75 -1703.92,3097.55 -1727.23,3093.56 -1876.09,3080.40 -1904.44,3077.90 -1914.84,3076.97 -1947.03,3074.74 -2010.05,3070.37" fill="none" stroke="#bcbcbc" stroke-width="8" stroke-linecap="round" stroke-linejoin="round" /><polyline points="-3.46,3009.04 8.07,2976.24 111.91,2688.34 236.84,2325.21 244.84,2302.43 250.42,2286.52 254.94,2273.46" fill="none" stroke="#bcbcbc" stroke-width="8" stroke-linecap="round" stroke-linejoin="round" /><polyline points="-1914.84,3076.97 -1917.50,3058.46 -1918.12,3038.36 -1914.19,2997.87 -1905.14,2923.95 -1899.11,2899.13 -1889.32,2809.42 -1887.54,2789.44 -1884.67,2763.75 -1882.54,2744.68 -1878.53,2723.05 -1871.09,2664.87 -1865.93,2620.36 -1858.34,2602.15" fill="none" stroke="#bcbcbc" stroke-width="8" stroke-linecap="round" stroke-linejoin="round" /><polyline points="-2021.13,2579.40 -1882.62,2598.76 -1858.34,2602.15 -1843.30,2604.55 -1781.21,2614.44 -1638.15,2637.24 -1613.60,2641.33" fill="none" stroke="#bcbcbc" stroke-width="8" stroke-linecap="round" stroke-linejoin="round" /><polyline points="528.08,762.11 528.98,774.70 530.84,787.45 535.34,797.22 543.76,808.11 559.34,822.29 596.25,844.75 881.05,1023.44 1056.46,1258.63 1188.94,1585.63 1197.59,1607.23" fill="none" stroke="#bcbcbc" stroke-width="8" stroke-linecap="round" stroke-linejoin="round" /><polyline points="482.47,1716.24 488.38,1726.01 489.91,1728.55 494.80,1753.21 528.21,1914.81 538.82,1966.10 546.41,2002.63 558.24,2076.67 563.76,2110.82 567.58,2131.65 571.75,2150.46 576.73,2161.44 584.04,2174.15 587.96,2180.15 661.96,2286.10 701.98,2349.13 712.42,2364.20" fill="none" stroke="#bcbcbc" stroke-width="8" stroke-linecap="round" stroke-linejoin="round" /><polyline points="-1641.89,3739.58 -1637.96,3715.33 -1634.30,3697.79 -1633.32,3695.47 -1584.07,3578.35 -1552.68,3502.23 -1543.15,3478.11 -1533.04,3452.56 -1522.07,3430.60 -1520.30,3426.30 -1505.28,3390.00 -1493.67,3357.88 -1483.71,3328.41 -1477.39,3307.58 -1470.30,3281.84 -1462.13,3247.34 -1455.93,3219.34 -1448.52,3180.27 -1446.96,3171.55 -1441.97,3143.61" fill="none" stroke="#bcbcbc" stroke-width="8" stroke-linecap="round" stroke-linejoin="round" /><polyline points="744.41,468.83 901.46,578.58 922.61,583.07 938.10,600.79" fill="none" stroke="#bcbcbc" stroke-width="8" stroke-linecap="round" stroke-linejoin="round" /><polyline points="84.97,1482.40 105.72,1490.39 195.83,1519.87 404.86,1600.04 416.59,1611.73 422.09,1620.46" fill="none" stroke="#bcbcbc" stroke-width="8" stroke-linecap="round" stroke-linejoin="round" /><polyline points="474.47,3542.41 488.70,3505.31 558.97,3314.65 608.66,3170.59 618.96,3165.85" fill="none" stroke="#bcbcbc" stroke-width="8" stroke-linecap="round" stroke-linejoin="round" /><polyline points="-518.82,3300.65 -507.74,3276.14 -506.64,3273.71 -487.67,3210.07 -456.59,3105.31 -448.63,3078.50 -442.45,3057.67 -441.62,3045.54 -442.88,3018.67" fill="none" stroke="#bcbcbc" stroke-width="8" stroke-linecap="round" stroke-linejoin="round" /><polyline points="772.76,1724.61 754.94,1728.28 714.57,1721.10 708.32,1704.44 638.37,1677.77 621.82,1682.10 558.72,1658.93 549.30,1665.50" fill="none" stroke="#bcbcbc" stroke-width="8" stroke-linecap="round" stroke-linejoin="round" /><polyline points="668.89,-439.35 700.59,-431.59 718.13,-428.55 1135.11,-356.24" fill="none" stroke="#bcbcbc" stroke-width="8" stroke-linecap="round" stroke-linejoin="round" /><polyline points="344.80,3426.30 362.15,3377.40 395.86,3282.35 417.64,3241.86 448.99,3154.09 461.50,3119.06" fill="none" stroke="#bcbcbc" stroke-width="8" stroke-linecap="round" stroke-linejoin="round" /><polyline points="-1939.90,1528.12 -1970.10,1526.74 -1977.67,1535.93 -2030.28,1599.87 -2214.21,1812.35 -2240.08,1842.23" fill="none" stroke="#bcbcbc" stroke-width="8" stroke-linecap="round" stroke-linejoin="round" /><polyline points="-326.64,1710.10 -339.97,1739.62 -341.58,1743.20 -387.90,1863.99 -434.59,1996.97 -447.04,2032.43 -454.10,2050.74" fill="none" stroke="#bcbcbc" stroke-width="8" stroke-linecap="round" stroke-linejoin="round" /><polyline points="352.80,352.80 367.51,372.76 378.03,400.22 394.37,439.63 420.61,501.61 443.86,557.25 470.53,618.34 490.32,665.42 493.25,672.18 493.43,672.60 509.36,709.84 514.12,720.42 518.65,730.50 523.43,739.93 527.04,749.53 528.08,762.11" fill="none" stroke="#bcbcbc" stroke-width="8" stroke-linecap="round" stroke-linejoin="round" /><polyline points="-773.70,2305.57 -766.00,2301.37 -755.23,2292.80 -749.83,2281.69 -678.27,2010.32 -676.11,1995.01 -667.38,1967.05" fill="none" stroke="#bcbcbc" stroke-width="8" stroke-linecap="round" stroke-linejoin="round" /><polyline points="1728.60,1880.90 1738.75,1913.12 1745.90,1946.97 1731.99,2075.96 1715.91,2172.98 1707.13,2206.08 1706.33,2209.08 1698.64,2226.94 1688.16,2245.88 1663.67,2276.85 1675.53,2337.40 1637.18,2467.37 1616.00,2539.15 1572.68,2656.64 1509.23,2799.69 1431.77,2936.77 1407.57,2981.33 1363.83,3054.53 1189.08,3302.58 1150.79,3354.17 1002.53,3547.95 917.41,3644.80 798.34,3765.83 787.32,3766.96 760.43,3788.95" fill="none" stroke="#bcbcbc" stroke-width="8" stroke-linecap="round" stroke-linejoin="round" /><polyline points="-427.70,4002.67 -378.92,3851.37 -370.94,3826.38 -360.10,3810.64 -336.80,3740.71 -329.22,3716.96 -232.98,3415.62 -223.30,3385.31 -215.32,3358.68 -101.75,3001.21" fill="none" stroke="#bcbcbc" stroke-width="8" stroke-linecap="round" stroke-linejoin="round" /><polyline points="715.06,1188.78 757.24,1142.70 769.67,1127.71 854.88,1007.01" fill="none" stroke="#bcbcbc" stroke-width="8" stroke-linecap="round" stroke-linejoin="round" /><polyline points="-127.81,1207.04 -11.68,1247.47 -5.26,1257.90 27.71,1268.96 47.28,1275.65 140.89,1307.27" fill="none" stroke="#bcbcbc" stroke-width="8" stroke-linecap="round" stroke-linejoin="round" /><polyline points="884.39,403.34 938.10,600.79 1000.28,833.39 1009.71,852.78 1011.21,874.91 1053.37,953.64 1167.17,1165.86 1192.04,1202.56 1199.25,1213.31 1369.26,1531.19 1447.39,1602.23 1458.36,1616.38 1473.81,1629.60 1622.17,1756.47 1632.24,1765.07 1658.88,1779.22" fill="none" stroke="#bcbcbc" stroke-width="8" stroke-linecap="round" stroke-linejoin="round" /><polyline points="307.40,4034.79 677.40,3819.84 743.26,3786.16 760.43,3788.95" fill="none" stroke="#bcbcbc" stroke-width="8" stroke-linecap="round" stroke-linejoin="round" /><polyline points="708.56,3727.29 731.52,3700.00 937.61,3288.74 951.26,3261.77 962.66,3235.08 1029.23,3070.44 1049.06,3020.84 1106.43,2847.17 1143.64,2623.91 1148.05,2591.41" fill="none" stroke="#bcbcbc" stroke-width="8" stroke-linecap="round" stroke-linejoin="round" /><polyline points="549.51,1308.68 545.90,1312.38 540.94,1329.68 540.44,1331.40 518.08,1417.53 523.95,1440.02 519.06,1460.17 512.68,1486.56 496.32,1505.52 477.74,1580.76 455.86,1597.30 432.51,1613.31 422.09,1620.46" fill="none" stroke="#bcbcbc" stroke-width="8" stroke-linecap="round" stroke-linejoin="round" /><polyline points="-326.64,1710.10 -317.13,1685.73 -259.95,1539.14 -247.49,1507.17 -237.21,1480.85 -164.16,1293.66 -131.26,1215.39 -127.81,1207.04 -102.25,1145.23 -44.89,1002.81 -23.89,942.18 -19.21,928.28 -12.93,912.51" fill="none" stroke="#bcbcbc" stroke-width="8" stroke-linecap="round" stroke-linejoin="round" /><polyline points="313.15,821.53 324.21,854.44 687.06,1164.41 885.07,1336.69 1180.80,1593.80 1206.61,1614.45 1218.18,1621.68 1269.50,1668.27 1338.03,1726.73 1493.47,1859.28 1543.68,1902.46 1577.00,1942.32" fill="none" stroke="#bcbcbc" stroke-width="8" stroke-linecap="round" stroke-linejoin="round" /><polyline points="913.10,287.42 931.51,275.62 1040.54,230.31 1062.94,206.73" fill="none" stroke="#bcbcbc" stroke-width="8" stroke-linecap="round" stroke-linejoin="round" /><polyline points="1039.03,3045.92 888.50,3001.56 616.02,2921.40" fill="none" stroke="#bcbcbc" stroke-width="8" stroke-linecap="round" stroke-linejoin="round" /><polyline points="553.12,-156.25 573.68,-142.07 1243.69,7.02" fill="none" stroke="#bcbcbc" stroke-width="8" stroke-linecap="round" stroke-linejoin="round" /><polyline points="1380.74,2049.95 1346.11,1972.89 1269.27,1789.61 1263.54,1775.04 1250.39,1741.58 1200.86,1615.52 1197.74,1607.35" fill="none" stroke="#bcbcbc" stroke-width="8" stroke-linecap="round" stroke-linejoin="round" /><polyline points="-617.09,1360.92 -618.97,1354.77 -620.70,1350.46 -628.37,1331.40 -658.07,1262.16 -686.29,1191.81 -692.39,1175.20 -699.41,1156.07 -704.44,1140.42 -712.73,1116.96 -713.60,1114.49 -740.61,1047.93 -790.18,922.82 -801.32,916.47 -809.24,896.18 -825.06,841.24 -852.14,773.14 -857.98,757.66" fill="none" stroke="#bcbcbc" stroke-width="8" stroke-linecap="round" stroke-linejoin="round" /><polyline points="-378.92,3851.37 -350.77,3859.99 -259.68,3887.75 -231.14,3896.45" fill="none" stroke="#bcbcbc" stroke-width="8" stroke-linecap="round" stroke-linejoin="round" /><polyline points="1322.21,320.19 1327.52,298.72 1325.36,290.57 1322.76,280.73 1306.13,219.80 1269.05,90.97 1249.48,25.12 1243.69,7.02 1191.98,-178.87 1164.07,-279.13 1135.11,-356.24 1108.95,-425.79 1082.90,-473.61 1057.59,-498.88 863.28,-736.34 848.90,-753.24 839.38,-768.86" fill="none" stroke="#bcbcbc" stroke-width="8" stroke-linecap="round" stroke-linejoin="round" /><polyline points="528.08,762.11 518.06,765.94 499.54,771.06 497.68,771.57 420.29,791.36 331.32,816.41 313.15,821.53 305.06,824.10 283.69,830.97 265.41,836.06 185.62,858.26 54.40,895.54 5.48,907.91 -12.93,912.51 -100.38,933.99 -154.40,949.03 -268.79,981.00 -381.86,1012.86 -394.94,1016.50 -489.44,1042.73 -533.03,1054.83 -555.04,1065.23 -596.71,1085.89 -679.46,1127.89 -685.23,1130.81 -704.44,1140.42 -716.16,1146.29 -732.51,1154.87 -790.65,1185.35 -896.58,1244.79 -985.06,1291.15 -997.72,1297.78 -1014.63,1298.84 -1024.79,1304.24 -1026.82,1305.31 -1122.81,1357.93 -1142.92,1357.84 -1165.99,1369.91 -1174.05,1374.13 -1180.85,1377.68 -1196.90,1386.08 -1209.54,1414.92 -1263.87,1444.03 -1281.15,1453.28 -1299.84,1463.45 -1375.43,1504.59 -1414.51,1525.86 -1434.20,1531.54" fill="none" stroke="#bcbcbc" stroke-width="8" stroke-linecap="round" stroke-linejoin="round" /><polyline points="1616.00,2539.15 1575.66,2542.84 1449.66,2554.39 1443.98,2554.91 1435.94,2555.64 1422.94,2556.84 1300.77,2568.06 1258.28,2564.12 1208.80,2576.52 1169.16,2586.23 1148.05,2591.41 1095.60,2593.40 1050.19,2591.09 1027.05,2588.63 1007.35,2582.67 992.85,2574.65 938.82,2536.45 807.56,2446.28 795.19,2437.89 782.59,2429.34 773.16,2420.22" fill="none" stroke="#bcbcbc" stroke-width="8" stroke-linecap="round" stroke-linejoin="round" /><polyline points="-1356.92,1016.95 -1309.29,1110.20 -1302.08,1136.84 -1261.96,1213.41 -1245.39,1235.30 -1178.33,1365.79 -1174.05,1374.13" fill="none" stroke="#bcbcbc" stroke-width="8" stroke-linecap="round" stroke-linejoin="round" /><polyline points="102.66,1846.24 95.52,1865.85 93.52,1871.93 84.22,1900.14 25.30,2064.55 -3.95,2146.20 -4.95,2148.99 -16.70,2174.37 -23.44,2189.44" fill="none" stroke="#bcbcbc" stroke-width="8" stroke-linecap="round" stroke-linejoin="round" /><polyline points="884.39,403.34 877.86,389.35 860.69,387.10 805.14,399.83 793.86,398.37 785.01,386.52 769.30,314.24 854.42,301.06 893.83,289.43 913.10,287.42 933.86,361.22" fill="none" stroke="#bcbcbc" stroke-width="8" stroke-linecap="round" stroke-linejoin="round" /><polyline points="1192.04,1202.56 1213.97,1190.25 1324.10,1123.88 1353.53,1106.35 1405.06,1075.63 1489.81,1020.82 1509.59,1006.59 1658.27,914.36" fill="none" stroke="#bcbcbc" stroke-width="8" stroke-linecap="round" stroke-linejoin="round" /><polyline points="1711.74,1638.24 1674.15,1627.04 1652.30,1609.12 1568.79,1536.85 1565.94,1534.31 1545.75,1516.29 1533.89,1495.25 1324.10,1123.88" fill="none" stroke="#bcbcbc" stroke-width="8" stroke-linecap="round" stroke-linejoin="round" /><polyline points="-655.79,1608.81 -326.64,1710.10 -299.78,1718.62 -54.16,1796.48 -49.03,1798.11 -12.23,1809.78 5.86,1815.52 29.37,1821.95 77.86,1838.37 102.66,1846.24 124.97,1853.32 307.77,1911.31 500.74,1971.94 516.70,1976.95 538.82,1966.10" fill="none" stroke="#bcbcbc" stroke-width="8" stroke-linecap="round" stroke-linejoin="round" /><polyline points="312.02,-16.34 454.60,-147.36 478.74,-169.54" fill="none" stroke="#bcbcbc" stroke-width="8" stroke-linecap="round" stroke-linejoin="round" /><polyline points="-2075.53,2097.81 -1552.35,2153.89" fill="none" stroke="#bcbcbc" stroke-width="8" stroke-linecap="round" stroke-linejoin="round" /><polyline points="-497.26,637.42 -387.30,598.09 -273.88,557.08 -203.40,529.68 11.76,451.42 74.21,429.82 87.25,425.31 102.89,419.93 120.45,413.89 122.60,413.15 158.05,398.90 173.46,392.71" fill="none" stroke="#bcbcbc" stroke-width="8" stroke-linecap="round" stroke-linejoin="round" /><polyline points="241.28,3298.58 344.80,3426.30 408.18,3490.12 435.62,3509.87 474.47,3542.41 510.95,3573.05 542.30,3603.63 543.07,3619.18" fill="none" stroke="#bcbcbc" stroke-width="8" stroke-linecap="round" stroke-linejoin="round" /><polyline points="352.80,352.80 393.37,251.10 459.04,83.65 553.12,-156.25 599.62,-269.89 668.89,-439.35 725.70,-578.16 735.87,-596.58 785.82,-678.26 789.05,-683.54 807.33,-719.49 839.38,-768.86 857.28,-796.41 882.61,-835.39" fill="none" stroke="#bcbcbc" stroke-width="8" stroke-linecap="round" stroke-linejoin="round" /><polyline points="-604.36,3072.07 -611.00,3077.38 -615.39,3083.71 -624.35,3110.10 -630.53,3129.15 -659.11,3214.64 -663.05,3226.97 -665.49,3234.62 -691.73,3227.10 -755.62,3205.68 -818.92,3184.44 -867.85,3181.68" fill="none" stroke="#bcbcbc" stroke-width="8" stroke-linecap="round" stroke-linejoin="round" /><polyline points="-1855.40,3666.91 -1751.08,3397.47 -1739.47,3368.14 -1729.05,3339.88 -1716.47,3305.75 -1701.05,3252.05 -1684.96,3185.31 -1678.37,3137.49 -1673.59,3102.75 -1666.83,3077.11 -1642.28,2884.45 -1613.60,2641.33 -1598.76,2525.42 -1582.20,2389.26 -1552.35,2153.89 -1547.61,2113.88 -1517.45,1867.73 -1517.43,1854.02 -1510.76,1780.99 -1491.52,1626.72 -1486.70,1599.81 -1481.67,1584.72 -1473.80,1568.10 -1466.15,1555.19 -1449.27,1536.91 -1434.17,1531.73" fill="none" stroke="#bcbcbc" stroke-width="8" stroke-linecap="round" stroke-linejoin="round" /><polyline points="422.09,1620.46 427.80,1629.51 446.93,1659.37 475.57,1705.29 482.47,1716.24 493.90,1707.56 549.30,1665.50" fill="none" stroke="#bcbcbc" stroke-width="8" stroke-linecap="round" stroke-linejoin="round" /><polyline points="459.04,83.65 1022.72,185.56 1081.92,216.72 1302.76,326.21 1322.21,320.19" fill="none" stroke="#bcbcbc" stroke-width="8" stroke-linecap="round" stroke-linejoin="round" /><polyline points="-617.09,1360.92 -627.09,1375.51 -717.01,1419.41 -783.06,1503.36 -854.33,1547.49 -903.08,1584.30 -949.58,1622.24 -973.42,1643.97 -1015.54,1697.40 -1062.63,1764.91 -1070.39,1777.42" fill="none" stroke="#bcbcbc" stroke-width="8" stroke-linecap="round" stroke-linejoin="round" /><polyline points="-522.01,1421.15 -525.91,1429.82 -534.44,1442.28 -550.55,1462.11 -645.54,1582.12 -695.80,1717.49 -949.47,1622.13" fill="none" stroke="#bcbcbc" stroke-width="8" stroke-linecap="round" stroke-linejoin="round" /><polyline points="-903.08,1584.30 -912.90,1554.56 -955.35,1426.03 -971.82,1400.64 -999.41,1317.88 -1001.79,1310.73 -997.72,1297.78 -1004.33,1276.69 -1136.97,853.15" fill="none" stroke="#bcbcbc" stroke-width="8" stroke-linecap="round" stroke-linejoin="round" /><polyline points="651.10,-726.68 755.92,-723.92 760.81,-723.78 780.90,-723.21 807.33,-719.49" fill="none" stroke="#bcbcbc" stroke-width="8" stroke-linecap="round" stroke-linejoin="round" /><polyline points="111.91,2688.34 76.13,2687.91 -226.95,2728.60 -248.79,2730.90 -273.77,2733.53 -418.80,2748.84 -614.19,2769.48 -717.77,2780.40 -775.07,2786.45 -821.60,2792.11 -845.49,2795.01 -872.40,2798.28 -1002.39,2814.08 -1033.54,2817.87 -1129.54,2828.36 -1642.28,2884.45" fill="none" stroke="#bcbcbc" stroke-width="8" stroke-linecap="round" stroke-linejoin="round" /><polyline points="-336.80,3740.71 -363.65,3732.07 -489.05,3691.70 -514.40,3683.54 -536.41,3676.46 -669.26,3633.76 -695.45,3625.34 -730.11,3614.18 -941.59,3546.12 -965.40,3538.46" fill="none" stroke="#bcbcbc" stroke-width="8" stroke-linecap="round" stroke-linejoin="round" /><polyline points="187.55,1201.57 260.50,1224.29 527.24,1306.67 529.73,1307.44 549.51,1308.68" fill="none" stroke="#bcbcbc" stroke-width="8" stroke-linecap="round" stroke-linejoin="round" /><polyline points="938.10,600.79 1300.96,607.17" fill="none" stroke="#bcbcbc" stroke-width="8" stroke-linecap="round" stroke-linejoin="round" /><polyline points="760.43,3788.95 708.56,3727.29 686.80,3701.98 668.09,3684.50 643.20,3665.91 592.31,3635.37 543.07,3619.18 442.88,3588.24 360.95,3562.23 408.18,3490.12" fill="none" stroke="#bcbcbc" stroke-width="8" stroke-linecap="round" stroke-linejoin="round" /><polyline points="241.28,3298.58 169.05,3209.42 155.32,3192.46 82.56,3092.23 66.10,3061.62 70.05,3025.18 91.98,3024.97 146.09,3035.38 228.43,3051.22" fill="none" stroke="#bcbcbc" stroke-width="8" stroke-linecap="round" stroke-linejoin="round" /><polyline points="-703.57,2584.21 -690.25,2612.87 -614.19,2769.48 -501.08,3002.34 -486.65,3032.04" fill="none" stroke="#bcbcbc" stroke-width="8" stroke-linecap="round" stroke-linejoin="round" /><polyline points="-1921.92,3293.54 -1894.71,3304.66 -1767.28,3356.76 -1739.47,3368.14 -1710.20,3380.11 -1560.18,3441.46 -1533.04,3452.56" fill="none" stroke="#bcbcbc" stroke-width="8" stroke-linecap="round" stroke-linejoin="round" /><polyline points="-640.97,2352.01 -375.50,2468.17" fill="none" stroke="#bcbcbc" stroke-width="8" stroke-linecap="round" stroke-linejoin="round" /><polyline points="549.51,1308.68 589.94,1310.80 592.52,1313.09 610.67,1329.19 637.33,1353.00 642.26,1362.57 734.17,1443.07 740.96,1455.91 805.59,1512.95 821.86,1517.92 872.13,1561.95 883.39,1567.09 959.21,1631.42 976.09,1646.38 985.40,1661.21" fill="none" stroke="#bcbcbc" stroke-width="8" stroke-linecap="round" stroke-linejoin="round" /><polyline points="-1996.85,2352.28 -1582.20,2389.26" fill="none" stroke="#bcbcbc" stroke-width="8" stroke-linecap="round" stroke-linejoin="round" /><polyline points="-1071.02,3896.43 -1058.17,3869.07 -1054.87,3856.90 -1036.86,3790.51 -971.64,3560.49 -965.40,3538.46 -958.79,3514.31 -929.25,3406.24 -879.35,3223.74 -867.85,3181.68" fill="none" stroke="#bcbcbc" stroke-width="8" stroke-linecap="round" stroke-linejoin="round" /><polyline points="-703.57,2584.21 -640.97,2352.01 -773.70,2305.57 -808.46,2326.10 -824.30,2338.15 -836.03,2354.02 -844.28,2374.97 -874.81,2487.81 -850.19,2500.35 -825.30,2506.39 -770.29,2520.71 -729.12,2533.83 -703.57,2584.21" fill="none" stroke="#bcbcbc" stroke-width="8" stroke-linecap="round" stroke-linejoin="round" /><polyline points="-874.81,2487.81 -903.88,2483.76 -1582.20,2389.26" fill="none" stroke="#bcbcbc" stroke-width="8" stroke-linecap="round" stroke-linejoin="round" /><polyline points="228.43,3051.22 291.34,3064.97 461.50,3119.06 509.07,3134.10 622.00,3166.73 735.77,3199.53 819.98,3223.87 954.68,3262.76 982.51,3270.81 1050.48,3293.60 1162.39,3323.41 1172.25,3325.25" fill="none" stroke="#bcbcbc" stroke-width="8" stroke-linecap="round" stroke-linejoin="round" /><polyline points="308.24,4034.31 285.28,4040.07 260.46,4109.25 221.97,4098.32 46.96,4038.67 25.89,4034.17 -20.97,4030.82 -232.91,4031.67 -279.63,4025.72 -385.14,4009.58 -427.70,4002.67 -729.56,3953.98 -846.45,3935.33 -1069.37,3896.71 -1105.36,3889.58 -1608.45,3748.95 -1640.19,3740.06 -1855.40,3666.91 -1908.35,3648.12 -2040.60,3593.31 -2115.98,3564.79" fill="none" stroke="#bcbcbc" stroke-width="8" stroke-linecap="round" stroke-linejoin="round" /><polyline points="769.30,314.24 747.52,309.75 456.76,344.13 352.80,352.80" fill="none" stroke="#bcbcbc" stroke-width="8" stroke-linecap="round" stroke-linejoin="round" /><polyline points="228.43,3051.22 238.62,3034.17 299.63,2877.45 367.81,2640.48 385.20,2589.44 394.50,2575.55 460.32,2364.25 463.59,2339.02 466.08,2322.53" fill="none" stroke="#bcbcbc" stroke-width="8" stroke-linecap="round" stroke-linejoin="round" /><polyline points="528.08,762.11 535.03,759.45 544.45,751.97 558.75,735.24 744.41,468.83 793.86,398.37" fill="none" stroke="#bcbcbc" stroke-width="8" stroke-linecap="round" stroke-linejoin="round" /><polyline points="1354.39,1740.77 1358.19,1729.84 1451.51,1620.03 1458.36,1616.38 1474.57,1594.20 1528.87,1531.83 1545.75,1516.29" fill="none" stroke="#bcbcbc" stroke-width="8" stroke-linecap="round" stroke-linejoin="round" /><polyline points="1435.94,2555.64 1434.65,2540.95 1433.65,2529.59 1428.74,2507.85 1422.86,2493.67 1415.52,2456.44 1414.86,2442.95 1409.89,2412.80 1387.68,2401.20 1369.92,2407.99 1338.14,2415.60 1312.99,2419.53 1288.87,2425.35 1255.57,2432.94 1240.38,2436.41" fill="none" stroke="#bcbcbc" stroke-width="8" stroke-linecap="round" stroke-linejoin="round" /><polyline points="-1015.96,2016.38 -948.09,1857.27 -944.32,1846.93" fill="none" stroke="#bcbcbc" stroke-width="8" stroke-linecap="round" stroke-linejoin="round" /><polyline points="772.76,1724.61 805.48,1711.93 822.58,1705.31 835.81,1691.92 890.34,1678.47 908.64,1683.14 948.12,1672.96 978.23,1665.21 985.40,1661.21 1014.60,1654.05 1163.90,1617.47 1197.74,1607.35" fill="none" stroke="#bcbcbc" stroke-width="8" stroke-linecap="round" stroke-linejoin="round" /><polyline points="-604.36,3072.07 -533.93,3046.49 -510.37,3039.29 -486.65,3032.04 -442.88,3018.67 -408.83,3013.77 -292.54,3001.05 -269.18,2999.78 -165.13,3000.67 -101.75,3001.21 -77.91,2999.99 -39.74,3003.85 -27.80,3005.56 -3.46,3009.04 70.05,3025.18" fill="none" stroke="#bcbcbc" stroke-width="8" stroke-linecap="round" stroke-linejoin="round" /><polyline points="-268.79,981.00 -280.46,941.54 -323.80,795.01 -376.43,627.92 -387.30,598.09 -398.34,570.14 -412.29,529.85" fill="none" stroke="#bcbcbc" stroke-width="8" stroke-linecap="round" stroke-linejoin="round" /><polyline points="-394.83,3343.70 -385.58,3314.47 -291.95,3019.21 -292.54,3001.05" fill="none" stroke="#bcbcbc" stroke-width="8" stroke-linecap="round" stroke-linejoin="round" /><polyline points="-269.18,2999.78 -250.64,2751.17 -248.79,2730.90 -245.95,2707.31 -245.91,2706.24 -244.69,2677.41 -238.50,2599.15 -235.01,2562.70 -230.24,2521.30 -225.90,2491.49 -222.00,2472.77 -217.09,2458.63 -207.47,2426.74 -187.58,2360.37 -162.29,2274.68 -134.40,2187.06 -128.72,2169.19 -124.15,2156.24" fill="none" stroke="#bcbcbc" stroke-width="8" stroke-linecap="round" stroke-linejoin="round" /><polyline points="-874.81,2487.81 -879.74,2509.84 -878.90,2516.88 -848.69,2768.38 -845.49,2795.01 -846.88,2822.41 -854.79,2978.83 -858.10,3044.18 -859.80,3077.89 -862.84,3137.97 -864.42,3169.26 -867.85,3181.68" fill="none" stroke="#bcbcbc" stroke-width="8" stroke-linecap="round" stroke-linejoin="round" /><polyline points="-1015.96,2016.38 -1125.78,1983.74 -1139.74,1974.78 -1208.09,1954.87 -1227.29,1955.07 -1313.17,1929.20 -1327.04,1918.96 -1405.19,1895.27 -1501.07,1869.14 -1501.54,1869.09 -1517.45,1867.73" fill="none" stroke="#bcbcbc" stroke-width="8" stroke-linecap="round" stroke-linejoin="round" /><polyline points="985.40,1661.21 989.22,1666.21 1005.14,1689.95 1034.58,1733.83 1062.29,1761.60 1115.56,1821.41 1106.56,1876.68 1101.99,1897.40 1095.63,1906.17 1108.99,1925.93 1129.65,1968.46 1170.95,2048.13 1191.28,2087.36 1203.92,2122.62 1209.63,2138.99" fill="none" stroke="#bcbcbc" stroke-width="8" stroke-linecap="round" stroke-linejoin="round" /><polyline points="1263.54,1775.04 1248.23,1779.80 1147.38,1811.19 1132.92,1815.83 1115.56,1821.41" fill="none" stroke="#bcbcbc" stroke-width="8" stroke-linecap="round" stroke-linejoin="round" /><polyline points="538.82,1966.10 570.36,1955.87 799.27,1838.97 829.91,1824.00 937.80,1792.84 1042.41,1763.42 1062.29,1761.60" fill="none" stroke="#bcbcbc" stroke-width="8" stroke-linecap="round" stroke-linejoin="round" /><polyline points="563.76,2110.82 827.67,1988.00 838.78,1980.64 864.58,1973.14 1040.44,1921.96 1067.11,1911.75 1095.63,1906.17" fill="none" stroke="#bcbcbc" stroke-width="8" stroke-linecap="round" stroke-linejoin="round" /><polyline points="509.91,-464.05 616.74,-450.85 627.47,-449.52 668.89,-439.35" fill="none" stroke="#bcbcbc" stroke-width="8" stroke-linecap="round" stroke-linejoin="round" /><polyline points="1422.83,622.16 1441.77,618.20 1512.56,652.90 1521.89,662.13 1654.77,887.08 1658.27,914.36 1675.55,928.76 1672.80,938.70 1672.38,954.92 1674.78,977.59 1709.97,1122.24 1713.08,1222.43 1718.01,1382.40 1726.29,1597.72 1692.59,1691.54 1670.88,1748.74 1639.18,1829.35 1630.00,1852.66 1624.04,1859.18 1614.46,1921.55" fill="none" stroke="#bcbcbc" stroke-width="8" stroke-linecap="round" stroke-linejoin="round" /><polyline points="1668.51,2301.54 1636.18,2287.48 1555.43,2231.11 1448.88,2156.24 1390.27,2108.84 1350.74,2066.50" fill="none" stroke="#bcbcbc" stroke-width="8" stroke-linecap="round" stroke-linejoin="round" /><polyline points="360.95,3562.23 329.21,3552.16 277.70,3535.83 253.13,3528.04 224.26,3518.89 187.78,3507.32 154.80,3496.86 122.20,3486.52 -23.18,3440.38 -48.64,3432.30 -80.27,3422.29 -87.25,3420.08 -170.39,3398.11 -193.87,3392.43 -223.30,3385.31 -254.10,3377.84 -365.07,3350.92 -394.83,3343.70 -426.81,3332.60 -493.63,3309.39 -518.82,3300.65 -541.35,3293.34 -645.97,3256.13 -659.15,3248.27 -665.49,3234.62" fill="none" stroke="#bcbcbc" stroke-width="8" stroke-linecap="round" stroke-linejoin="round" /><polyline points="838.78,1980.64 831.07,1953.02 808.10,1870.65 799.27,1838.97 786.50,1815.30 785.32,1810.91 777.79,1783.02 786.55,1770.67 776.03,1735.52 772.76,1724.61" fill="none" stroke="#bcbcbc" stroke-width="8" stroke-linecap="round" stroke-linejoin="round" /><polyline points="800.37,972.71 822.21,962.42 941.51,896.64 1009.71,852.78 1057.81,819.96 1068.43,812.05 1107.14,785.14 1147.26,755.51 1172.66,737.02 1202.94,714.87 1308.20,667.37 1321.84,668.10 1341.80,658.66 1422.83,622.16" fill="none" stroke="#bcbcbc" stroke-width="8" stroke-linecap="round" stroke-linejoin="round" /><polyline points="-522.01,1421.15 -504.80,1428.13 -493.42,1431.63 -280.07,1497.16 -247.49,1507.17" fill="none" stroke="#bcbcbc" stroke-width="8" stroke-linecap="round" stroke-linejoin="round" /><polyline points="-2045.96,1900.99 -2198.39,1854.85" fill="none" stroke="#bcbcbc" stroke-width="8" stroke-linecap="round" stroke-linejoin="round" /><polyline points="416.23,-248.74 454.02,-200.86 459.66,-193.71 478.74,-169.54 500.48,-166.99 545.18,-161.74 553.12,-156.25" fill="none" stroke="#bcbcbc" stroke-width="8" stroke-linecap="round" stroke-linejoin="round" /><polyline points="1728.60,1880.90 1668.71,1892.07 1607.30,1925.45 1550.38,1957.13 1496.55,1984.05 1431.49,2019.39 1384.39,2047.99 1291.29,2097.91 927.90,2280.75 833.69,2322.25 771.44,2349.17 740.59,2359.27 715.08,2364.04 673.30,2366.56 613.85,2358.15 465.52,2322.53 254.94,2273.46 -22.09,2189.89 -124.15,2156.24 -291.27,2104.64 -451.10,2051.92 -685.51,1959.94 -802.72,1909.46 -944.04,1846.65 -1178.45,1718.21 -1233.41,1681.76 -1372.48,1594.26 -1430.81,1535.94 -1518.29,1422.65 -1662.41,1274.03 -1719.06,1224.11" fill="none" stroke="#bcbcbc" stroke-width="8" stroke-linecap="round" stroke-linejoin="round" /><polyline points="592.31,3635.37 594.77,3621.67 603.63,3599.29 686.76,3404.77 718.16,3331.85 755.17,3240.98 764.19,3207.73" fill="none" stroke="#bcbcbc" stroke-width="8" stroke-linecap="round" stroke-linejoin="round" /><polyline points="-1002.39,2814.08 -1096.82,2768.37 -1311.68,2664.37 -1575.23,2536.81 -1598.76,2525.42" fill="none" stroke="#bcbcbc" stroke-width="8" stroke-linecap="round" stroke-linejoin="round" /><polyline points="549.51,1308.68 573.35,1284.26 636.75,1219.36 687.06,1164.41" fill="none" stroke="#bcbcbc" stroke-width="8" stroke-linecap="round" stroke-linejoin="round" /><polyline points="-1281.15,1453.28 -1307.34,1418.60 -1430.09,1256.06 -1605.30,1114.26" fill="none" stroke="#bcbcbc" stroke-width="8" stroke-linecap="round" stroke-linejoin="round" /><polyline points="-2041.54,3592.91 -2017.58,3536.08 -1941.39,3346.13 -1932.16,3321.20 -1921.92,3293.54 -1918.03,3283.56 -1917.00,3267.93 -1907.24,3120.25 -1904.44,3077.90" fill="none" stroke="#bcbcbc" stroke-width="8" stroke-linecap="round" stroke-linejoin="round" /><polyline points="-2093.52,2065.96 -2045.96,1900.99 -1983.21,1683.39 -1975.44,1656.46 -1966.80,1625.86 -1947.46,1557.35 -1945.43,1550.15 -1939.90,1528.12 -1931.06,1503.22 -1928.92,1497.19 -1917.77,1469.54 -1895.87,1421.23 -1889.32,1407.36" fill="none" stroke="#bcbcbc" stroke-width="8" stroke-linecap="round" stroke-linejoin="round" /><polyline points="-1975.44,1656.46 -1879.20,1681.07 -1675.35,1733.48 -1559.21,1769.64 -1510.76,1780.99" fill="none" stroke="#bcbcbc" stroke-width="8" stroke-linecap="round" stroke-linejoin="round" /><polyline points="5.48,907.91 8.76,887.88 12.05,867.08 26.17,797.52 61.44,635.61 90.41,490.78 95.70,460.73 102.89,419.93 102.90,419.89" fill="none" stroke="#bcbcbc" stroke-width="8" stroke-linecap="round" stroke-linejoin="round" /><polyline points="-279.45,4025.75 -236.48,3916.14 -231.14,3896.45 -60.62,3463.54 -48.64,3432.30 -38.95,3405.81 62.95,3109.34 82.56,3092.22" fill="none" stroke="#bcbcbc" stroke-width="8" stroke-linecap="round" stroke-linejoin="round" /><polyline points="305.06,824.10 305.05,824.06 299.01,792.36 298.07,788.51 283.34,728.60 283.35,728.40 273.30,687.78 230.75,541.94 225.39,526.32 196.65,448.19 187.31,424.87 181.29,409.82 173.47,392.73 173.46,392.71 173.45,392.63 167.75,329.82 167.20,298.98" fill="none" stroke="#bcbcbc" stroke-width="8" stroke-linecap="round" stroke-linejoin="round" /><polyline points="241.28,3298.58 230.34,3310.40 214.03,3329.81 168.10,3459.36 154.80,3496.86" fill="none" stroke="#bcbcbc" stroke-width="8" stroke-linecap="round" stroke-linejoin="round" /><polyline points="-522.01,1421.15 -515.73,1404.14 -514.32,1400.19 -484.48,1316.85 -473.30,1281.75 -381.86,1012.86" fill="none" stroke="#bcbcbc" stroke-width="8" stroke-linecap="round" stroke-linejoin="round" /><polyline points="-49.03,1798.11 -39.70,1773.33 -14.43,1706.21 -3.75,1677.83 3.48,1658.62 23.76,1604.76 37.15,1569.18 38.95,1564.39 71.40,1478.20 84.97,1482.40 92.32,1462.39 105.32,1426.99 102.83,1410.91 137.35,1316.92 140.89,1307.27 147.44,1301.25 152.94,1296.20 187.55,1201.57 192.56,1175.66 242.23,1037.65 253.97,1028.46 277.87,960.86 273.62,950.48 294.54,887.34 283.69,830.97" fill="none" stroke="#bcbcbc" stroke-width="8" stroke-linecap="round" stroke-linejoin="round" /><polyline points="839.38,-768.86 825.46,-791.69 752.34,-911.67" fill="none" stroke="#bcbcbc" stroke-width="8" stroke-linecap="round" stroke-linejoin="round" /><polyline points="1068.43,812.05 1404.02,1027.86 1404.11,1028.01 1404.11,1028.05 1466.18,1036.10" fill="none" stroke="#bcbcbc" stroke-width="8" stroke-linecap="round" stroke-linejoin="round" /><polyline points="933.86,361.22 1290.91,540.46 1301.68,548.50 1300.96,607.17 1308.20,667.37" fill="none" stroke="#bcbcbc" stroke-width="8" stroke-linecap="round" stroke-linejoin="round" /><polyline points="253.13,3528.04 240.28,3567.22 188.26,3725.90 99.77,3993.13 93.49,4012.09 87.13,4031.30 85.36,4051.76" fill="none" stroke="#bcbcbc" stroke-width="8" stroke-linecap="round" stroke-linejoin="round" /><polyline points="1258.28,2564.12 1260.41,2544.21 1260.87,2525.63 1260.72,2524.98 1248.07,2470.29 1242.88,2447.43 1240.38,2436.41 1237.82,2425.14 1223.93,2363.95 1196.80,2241.66 1177.08,2168.14 1174.29,2156.78" fill="none" stroke="#bcbcbc" stroke-width="8" stroke-linecap="round" stroke-linejoin="round" /><polyline points="-514.40,3683.54 -505.55,3658.38 -406.12,3375.79 -394.83,3343.70" fill="none" stroke="#bcbcbc" stroke-width="8" stroke-linecap="round" stroke-linejoin="round" /><polyline points="1718.02,1382.40 1688.76,1374.15 1490.11,1069.29 1466.18,1036.10" fill="none" stroke="#bcbcbc" stroke-width="8" stroke-linecap="round" stroke-linejoin="round" /><polyline points="-1547.61,2113.88 -823.62,2287.34 -773.70,2305.57" fill="none" stroke="#bcbcbc" stroke-width="8" stroke-linecap="round" stroke-linejoin="round" /><polyline points="735.87,-596.58 1017.88,-492.10 1057.59,-498.88" fill="none" stroke="#bcbcbc" stroke-width="8" stroke-linecap="round" stroke-linejoin="round" />
    <polyline points="352.80,352.80 315.60,342.21 288.27,334.07 232.71,317.57 204.49,309.52 188.31,305.03 167.20,298.98" fill="none" stroke="#ffffff" stroke-width="16" stroke-linecap="round" stroke-linejoin="round" />
    <polyline points="352.80,352.80 315.60,342.21 288.27,334.07 232.71,317.57 204.49,309.52 188.31,305.03 167.20,298.98" fill="none" stroke="#111111" stroke-width="9" stroke-linecap="round" stroke-linejoin="round" />
    
            <g transform="translate(352.80,352.80)">
              <circle r="19" fill="#ffffff" stroke="#111111" stroke-width="4" />
              <text text-anchor="middle" dominant-baseline="central" font-family="Helvetica, Arial, sans-serif"
                font-size="18" font-weight="700" fill="#111111">1</text>
            </g>
            
            <g transform="translate(167.20,298.98)">
              <circle r="19" fill="#ffffff" stroke="#111111" stroke-width="4" />
              <text text-anchor="middle" dominant-baseline="central" font-family="Helvetica, Arial, sans-serif"
                font-size="18" font-weight="700" fill="#111111">2</text>
            </g>
            
  </g>
</svg>
