<svg xmlns="http://www.w3.org/2000/svg" width="520" height="520" viewBox="0 0 520 520">
  <rect width="100%" height="100%" fill="#ffffff" />
  <g>
    <polyline points="868.95,125.51 871.01,136.48 884.32,229.59 882.29,252.87" fill="none" stroke="#bcbcbc" stroke-width="8" stroke-linecap="round" stroke-linejoin="round" /><polyline points="598.44,901.40 601.66,891.51 618.71,839.08 620.71,832.90 622.75,826.41 665.62,689.70 669.06,678.71 661.17,659.26" fill="none" stroke="#bcbcbc" stroke-width="8" stroke-linecap="round" stroke-linejoin="round" /><polyline points="302.33,779.81 301.63,771.96 315.65,693.46 317.61,683.64 319.08,678.49 322.94,658.58 327.27,634.22 332.00,612.76 336.68,591.35 339.63,585.31 341.56,581.61" fill="none" stroke="#bcbcbc" stroke-width="8" stroke-linecap="round" stroke-linejoin="round" /><polyline points="383.68,226.08 380.34,215.92 345.90,110.87 344.22,106.46" fill="none" stroke="#bcbcbc" stroke-width="8" stroke-linecap="round" stroke-linejoin="round" /><polyline points="206.95,1150.62 207.98,1140.60 208.39,1136.00 212.14,1094.52 216.25,1058.00 217.21,1049.47 218.10,1039.24 218.19,1038.38 220.52,1018.04 222.53,997.36 224.74,977.41 226.23,961.88 226.85,952.29 227.40,943.44 228.37,933.46" fill="none" stroke="#bcbcbc" stroke-width="8" stroke-linecap="round" stroke-linejoin="round" /><polyline points="682.85,925.78 685.30,918.07 702.59,863.73 704.55,857.56 707.34,848.76 709.34,842.46 724.64,776.48" fill="none" stroke="#bcbcbc" stroke-width="8" stroke-linecap="round" stroke-linejoin="round" /><polyline points="615.67,-148.94 622.05,-147.96 797.92,-120.93" fill="none" stroke="#bcbcbc" stroke-width="8" stroke-linecap="round" stroke-linejoin="round" /><polyline points="164.16,912.98 145.86,912.12 134.70,911.60 128.63,911.32 123.31,911.07 81.86,909.15 24.20,906.46 -3.28,902.57 -12.48,901.26 -20.46,899.85 -74.51,890.31 -82.07,888.98 -83.74,888.69 -93.08,887.09 -100.25,885.86 -146.05,881.82 -154.77,881.04 -157.97,880.76 -167.88,880.07 -187.26,878.73" fill="none" stroke="#bcbcbc" stroke-width="8" stroke-linecap="round" stroke-linejoin="round" /><polyline points="430.11,859.86 433.66,849.77 465.61,761.20 504.05,649.47 506.51,642.47 508.23,637.57 509.62,633.55" fill="none" stroke="#bcbcbc" stroke-width="8" stroke-linecap="round" stroke-linejoin="round" /><polyline points="-157.97,880.76 -158.79,875.07 -158.98,868.88 -157.77,856.42 -154.99,833.68 -153.13,826.05 -150.12,798.45 -149.57,792.30 -148.69,784.40 -148.03,778.53 -146.80,771.87 -144.51,753.97 -142.92,740.28 -140.59,734.68" fill="none" stroke="#bcbcbc" stroke-width="8" stroke-linecap="round" stroke-linejoin="round" /><polyline points="-190.68,727.68 -148.06,733.63 -140.59,734.68 -135.96,735.41 -116.86,738.46 -72.84,745.47 -65.29,746.73" fill="none" stroke="#bcbcbc" stroke-width="8" stroke-linecap="round" stroke-linejoin="round" /><polyline points="593.66,168.57 593.93,172.44 594.51,176.37 595.89,179.37 598.48,182.72 603.27,187.08 614.63,193.99 702.26,248.97 756.23,321.33 796.99,421.93 799.65,428.58" fill="none" stroke="#bcbcbc" stroke-width="8" stroke-linecap="round" stroke-linejoin="round" /><polyline points="579.63,462.12 581.44,465.12 581.91,465.90 583.42,473.49 593.70,523.21 596.96,538.99 599.30,550.23 602.94,573.01 604.64,583.51 605.81,589.92 607.09,595.71 608.63,599.09 610.88,603.00 612.08,604.84 634.85,637.44 647.16,656.83 650.38,661.47" fill="none" stroke="#bcbcbc" stroke-width="8" stroke-linecap="round" stroke-linejoin="round" /><polyline points="-73.99,1084.62 -72.78,1077.16 -71.66,1071.76 -71.35,1071.05 -56.20,1035.01 -46.54,1011.60 -43.61,1004.17 -40.50,996.31 -37.13,989.56 -36.58,988.24 -31.96,977.07 -28.39,967.18 -25.32,958.12 -23.38,951.71 -21.20,943.79 -18.68,933.18 -16.78,924.56 -14.49,912.54 -14.02,909.86 -12.48,901.26" fill="none" stroke="#bcbcbc" stroke-width="8" stroke-linecap="round" stroke-linejoin="round" /><polyline points="660.22,78.34 708.54,112.10 715.05,113.49 719.81,118.94" fill="none" stroke="#bcbcbc" stroke-width="8" stroke-linecap="round" stroke-linejoin="round" /><polyline points="457.32,390.17 463.71,392.63 491.43,401.70 555.74,426.37 559.35,429.96 561.05,432.65" fill="none" stroke="#bcbcbc" stroke-width="8" stroke-linecap="round" stroke-linejoin="round" /><polyline points="577.16,1023.96 581.54,1012.54 603.16,953.88 618.45,909.56 621.62,908.11" fill="none" stroke="#bcbcbc" stroke-width="8" stroke-linecap="round" stroke-linejoin="round" /><polyline points="271.55,949.58 274.96,942.04 275.30,941.29 281.14,921.71 290.70,889.48 293.15,881.23 295.05,874.82 295.30,871.09 294.92,862.82" fill="none" stroke="#bcbcbc" stroke-width="8" stroke-linecap="round" stroke-linejoin="round" /><polyline points="668.94,464.69 663.46,465.82 651.04,463.61 649.11,458.49 627.59,450.28 622.50,451.61 603.08,444.48 600.19,446.51" fill="none" stroke="#bcbcbc" stroke-width="8" stroke-linecap="round" stroke-linejoin="round" /><polyline points="636.98,-201.07 646.73,-198.68 652.13,-197.75 780.43,-175.50" fill="none" stroke="#bcbcbc" stroke-width="8" stroke-linecap="round" stroke-linejoin="round" /><polyline points="537.27,988.24 542.60,973.19 552.97,943.95 559.68,931.49 569.32,904.49 573.17,893.71" fill="none" stroke="#bcbcbc" stroke-width="8" stroke-linecap="round" stroke-linejoin="round" /><polyline points="-165.68,404.24 -174.97,403.81 -177.30,406.64 -193.49,426.31 -250.08,491.69 -258.04,500.88" fill="none" stroke="#bcbcbc" stroke-width="8" stroke-linecap="round" stroke-linejoin="round" /><polyline points="330.68,460.23 326.58,469.31 326.08,470.41 311.83,507.58 297.47,548.49 293.64,559.40 291.46,565.03" fill="none" stroke="#bcbcbc" stroke-width="8" stroke-linecap="round" stroke-linejoin="round" /><polyline points="539.73,42.64 544.25,48.78 547.49,57.23 552.52,69.35 560.59,88.42 567.74,105.54 575.95,124.34 582.04,138.82 582.94,140.90 583.00,141.03 587.90,152.49 589.36,155.74 590.75,158.84 592.23,161.75 593.34,164.70 593.66,168.57" fill="none" stroke="#bcbcbc" stroke-width="8" stroke-linecap="round" stroke-linejoin="round" /><polyline points="193.13,643.43 195.50,642.14 198.81,639.50 200.47,636.08 222.49,552.59 223.16,547.88 225.84,539.28" fill="none" stroke="#bcbcbc" stroke-width="8" stroke-linecap="round" stroke-linejoin="round" /><polyline points="963.03,512.78 966.15,522.69 968.35,533.10 964.07,572.79 959.12,602.64 956.42,612.82 956.18,613.74 953.81,619.24 950.59,625.07 943.05,634.59 946.70,653.22 934.90,693.21 928.38,715.29 915.05,751.44 895.53,795.45 871.70,837.63 864.26,851.34 850.80,873.86 797.03,950.17 785.25,966.04 739.63,1025.66 713.44,1055.46 676.81,1092.69 673.42,1093.04 665.15,1099.81" fill="none" stroke="#bcbcbc" stroke-width="8" stroke-linecap="round" stroke-linejoin="round" /><polyline points="299.59,1165.56 314.59,1119.01 317.05,1111.32 320.39,1106.48 327.55,1084.97 329.89,1077.66 359.50,984.95 362.48,975.62 364.93,967.43 399.87,857.45" fill="none" stroke="#bcbcbc" stroke-width="8" stroke-linecap="round" stroke-linejoin="round" /><polyline points="651.19,299.84 664.16,285.66 667.99,281.05 694.21,243.92" fill="none" stroke="#bcbcbc" stroke-width="8" stroke-linecap="round" stroke-linejoin="round" /><polyline points="391.86,305.46 427.59,317.90 429.56,321.10 439.71,324.51 445.73,326.56 474.53,336.29" fill="none" stroke="#bcbcbc" stroke-width="8" stroke-linecap="round" stroke-linejoin="round" /><polyline points="703.29,58.19 719.81,118.94 738.94,190.50 741.84,196.46 742.30,203.27 755.28,227.49 790.29,292.79 797.94,304.08 800.16,307.39 852.47,405.19 876.51,427.04 879.88,431.40 884.64,435.46 930.28,474.49 933.38,477.14 941.58,481.49" fill="none" stroke="#bcbcbc" stroke-width="8" stroke-linecap="round" stroke-linejoin="round" /><polyline points="525.76,1175.44 639.60,1109.31 659.86,1098.95 665.15,1099.81" fill="none" stroke="#bcbcbc" stroke-width="8" stroke-linecap="round" stroke-linejoin="round" /><polyline points="649.19,1080.84 656.25,1072.44 719.66,945.91 723.86,937.62 727.37,929.40 747.85,878.75 753.95,863.49 771.60,810.06 783.05,741.37 784.41,731.37" fill="none" stroke="#bcbcbc" stroke-width="8" stroke-linecap="round" stroke-linejoin="round" /><polyline points="600.25,336.73 599.14,337.86 597.61,343.19 597.46,343.72 590.58,370.22 592.39,377.13 590.88,383.34 588.92,391.45 583.88,397.29 578.17,420.44 571.44,425.52 564.25,430.45 561.05,432.65" fill="none" stroke="#bcbcbc" stroke-width="8" stroke-linecap="round" stroke-linejoin="round" /><polyline points="330.68,460.23 333.61,452.73 351.20,407.63 355.03,397.80 358.20,389.70 380.67,332.10 390.79,308.03 391.86,305.46 399.72,286.44 417.37,242.62 423.83,223.97 425.27,219.69 427.20,214.84" fill="none" stroke="#bcbcbc" stroke-width="8" stroke-linecap="round" stroke-linejoin="round" /><polyline points="527.53,186.85 530.93,196.98 642.57,292.34 703.49,345.34 794.48,424.45 802.43,430.80 805.98,433.03 821.77,447.36 842.86,465.35 890.69,506.13 906.13,519.41 916.38,531.67" fill="none" stroke="#bcbcbc" stroke-width="8" stroke-linecap="round" stroke-linejoin="round" /><polyline points="712.12,22.53 717.78,18.90 751.33,4.95 758.22,-2.30" fill="none" stroke="#bcbcbc" stroke-width="8" stroke-linecap="round" stroke-linejoin="round" /><polyline points="750.86,871.21 704.55,857.56 620.71,832.90" fill="none" stroke="#bcbcbc" stroke-width="8" stroke-linecap="round" stroke-linejoin="round" /><polyline points="601.36,-113.98 607.69,-109.61 813.83,-63.74" fill="none" stroke="#bcbcbc" stroke-width="8" stroke-linecap="round" stroke-linejoin="round" /><polyline points="856.00,564.79 845.35,541.08 821.70,484.69 819.94,480.21 815.90,469.91 800.66,431.13 799.70,428.62" fill="none" stroke="#bcbcbc" stroke-width="8" stroke-linecap="round" stroke-linejoin="round" /><polyline points="539.73,42.64 528.28,39.38 519.87,36.88 502.78,31.80 494.09,29.32 489.12,27.94 482.62,26.08" fill="none" stroke="#bcbcbc" stroke-width="8" stroke-linecap="round" stroke-linejoin="round" /><polyline points="314.59,1119.01 323.26,1121.67 351.28,1130.21 360.06,1132.88" fill="none" stroke="#bcbcbc" stroke-width="8" stroke-linecap="round" stroke-linejoin="round" /><polyline points="837.99,32.61 839.62,26.00 838.96,23.49 838.16,20.47 833.04,1.72 821.64,-37.91 815.62,-58.18 813.83,-63.74 797.92,-120.93 789.34,-151.78 780.43,-175.50 772.38,-196.90 764.36,-211.61 756.57,-219.39 696.79,-292.44 692.37,-297.65 689.44,-302.45" fill="none" stroke="#bcbcbc" stroke-width="8" stroke-linecap="round" stroke-linejoin="round" /><polyline points="593.66,168.57 590.57,169.75 584.87,171.32 584.30,171.48 560.49,177.57 533.12,185.28 527.53,186.85 525.04,187.64 518.46,189.75 512.84,191.32 488.29,198.15 447.92,209.62 432.87,213.42 427.20,214.84 400.30,221.45 383.68,226.08 348.48,235.91 313.69,245.72 309.66,246.83 280.59,254.90 267.18,258.63 260.41,261.83 247.59,268.18 222.12,281.10 220.35,282.00 214.44,284.96 210.83,286.77 205.80,289.40 187.92,298.78 155.32,317.07 128.10,331.33 124.20,333.37 119.00,333.70 115.88,335.36 115.25,335.69 85.72,351.88 79.53,351.85 72.43,355.57 69.95,356.86 67.86,357.96 62.92,360.54 59.03,369.41 42.32,378.37 37.00,381.21 31.25,384.34 7.99,397.00 -4.03,403.55 -10.09,405.29" fill="none" stroke="#bcbcbc" stroke-width="8" stroke-linecap="round" stroke-linejoin="round" /><polyline points="928.38,715.29 915.97,716.43 877.20,719.98 875.46,720.14 872.98,720.37 868.98,720.74 831.39,724.19 818.32,722.97 803.10,726.79 790.90,729.78 784.41,731.37 768.27,731.98 754.30,731.27 747.18,730.52 741.12,728.68 736.65,726.22 720.03,714.46 679.65,686.72 675.84,684.14 671.96,681.51 669.06,678.71" fill="none" stroke="#bcbcbc" stroke-width="8" stroke-linecap="round" stroke-linejoin="round" /><polyline points="13.69,246.97 28.34,275.66 30.56,283.86 42.90,307.41 48.00,314.15 68.63,354.30 69.95,356.86" fill="none" stroke="#bcbcbc" stroke-width="8" stroke-linecap="round" stroke-linejoin="round" /><polyline points="462.76,502.11 460.57,508.14 459.95,510.02 457.09,518.70 438.96,569.28 429.96,594.40 429.66,595.26 426.04,603.06 423.97,607.70" fill="none" stroke="#bcbcbc" stroke-width="8" stroke-linecap="round" stroke-linejoin="round" /><polyline points="703.29,58.19 701.28,53.88 695.99,53.19 678.90,57.11 675.43,56.66 672.71,53.01 667.87,30.78 694.07,26.72 706.19,23.14 712.12,22.53 718.50,45.23" fill="none" stroke="#bcbcbc" stroke-width="8" stroke-linecap="round" stroke-linejoin="round" /><polyline points="797.94,304.08 804.69,300.29 838.57,279.87 847.63,274.48 863.48,265.03 889.56,248.16 895.64,243.79 941.39,215.41" fill="none" stroke="#bcbcbc" stroke-width="8" stroke-linecap="round" stroke-linejoin="round" /><polyline points="957.84,438.12 946.28,434.67 939.55,429.16 913.86,406.92 912.98,406.14 906.77,400.60 903.12,394.13 838.57,279.87" fill="none" stroke="#bcbcbc" stroke-width="8" stroke-linecap="round" stroke-linejoin="round" /><polyline points="229.41,429.07 330.68,460.23 338.94,462.85 414.52,486.81 416.10,487.31 427.42,490.90 432.98,492.66 440.22,494.64 455.14,499.69 462.76,502.11 469.63,504.29 525.87,522.13 585.24,540.79 590.15,542.33 596.96,538.99" fill="none" stroke="#bcbcbc" stroke-width="8" stroke-linecap="round" stroke-linejoin="round" /><polyline points="527.18,-70.93 571.05,-111.24 578.48,-118.06" fill="none" stroke="#bcbcbc" stroke-width="8" stroke-linecap="round" stroke-linejoin="round" /><polyline points="-207.41,579.51 -46.44,596.77" fill="none" stroke="#bcbcbc" stroke-width="8" stroke-linecap="round" stroke-linejoin="round" /><polyline points="278.18,130.21 312.02,118.11 346.91,105.49 368.60,97.06 434.80,72.98 454.01,66.33 458.02,64.95 462.84,63.29 468.24,61.43 468.90,61.21 479.81,56.82 484.55,54.92" fill="none" stroke="#bcbcbc" stroke-width="8" stroke-linecap="round" stroke-linejoin="round" /><polyline points="505.42,948.94 537.27,988.23 556.77,1007.87 565.21,1013.95 577.16,1023.96 588.39,1033.38 598.03,1042.79 598.27,1047.58" fill="none" stroke="#bcbcbc" stroke-width="8" stroke-linecap="round" stroke-linejoin="round" /><polyline points="539.73,42.64 552.21,11.35 572.42,-40.17 601.36,-113.98 615.67,-148.94 636.98,-201.07 654.46,-243.78 657.59,-249.45 672.96,-274.58 673.95,-276.20 679.58,-287.26 689.44,-302.45 694.94,-310.93 702.74,-322.92" fill="none" stroke="#bcbcbc" stroke-width="8" stroke-linecap="round" stroke-linejoin="round" /><polyline points="245.23,879.25 243.19,880.89 241.84,882.83 239.08,890.95 237.18,896.81 228.39,923.11 227.18,926.91 226.42,929.26 218.35,926.95 198.69,920.36 179.22,913.83 164.16,912.97" fill="none" stroke="#bcbcbc" stroke-width="8" stroke-linecap="round" stroke-linejoin="round" /><polyline points="-139.68,1062.26 -107.59,979.37 -104.01,970.34 -100.81,961.65 -96.94,951.15 -92.19,934.62 -87.24,914.09 -85.22,899.38 -83.74,888.69 -81.67,880.80 -74.11,821.53 -65.29,746.73 -60.72,711.07 -55.63,669.18 -46.44,596.77 -44.98,584.45 -35.70,508.72 -35.70,504.51 -33.65,482.04 -27.73,434.57 -26.24,426.30 -24.70,421.65 -22.27,416.54 -19.92,412.57 -14.73,406.95 -10.08,405.35" fill="none" stroke="#bcbcbc" stroke-width="8" stroke-linecap="round" stroke-linejoin="round" /><polyline points="561.05,432.65 562.80,435.43 568.69,444.62 577.50,458.75 579.63,462.12 583.14,459.45 600.19,446.51" fill="none" stroke="#bcbcbc" stroke-width="8" stroke-linecap="round" stroke-linejoin="round" /><polyline points="572.42,-40.17 745.84,-8.81 764.06,0.77 832.01,34.46 837.99,32.61" fill="none" stroke="#bcbcbc" stroke-width="8" stroke-linecap="round" stroke-linejoin="round" /><polyline points="241.32,352.80 238.24,357.29 210.57,370.79 190.25,396.62 168.32,410.20 153.32,421.53 139.02,433.20 131.68,439.88 118.72,456.32 104.23,477.09 101.85,480.94" fill="none" stroke="#bcbcbc" stroke-width="8" stroke-linecap="round" stroke-linejoin="round" /><polyline points="270.57,371.33 269.37,374.00 266.74,377.83 261.79,383.93 232.56,420.85 217.10,462.50 139.05,433.16" fill="none" stroke="#bcbcbc" stroke-width="8" stroke-linecap="round" stroke-linejoin="round" /><polyline points="153.32,421.53 150.30,412.38 137.24,372.83 132.17,365.02 123.69,339.56 122.95,337.36 124.20,333.37 122.17,326.88 81.36,196.58" fill="none" stroke="#bcbcbc" stroke-width="8" stroke-linecap="round" stroke-linejoin="round" /><polyline points="631.51,-289.47 663.76,-288.62 665.26,-288.58 671.44,-288.41 679.58,-287.26" fill="none" stroke="#bcbcbc" stroke-width="8" stroke-linecap="round" stroke-linejoin="round" /><polyline points="465.61,761.20 454.60,761.06 361.35,773.58 354.63,774.29 346.95,775.10 302.33,779.81 242.21,786.16 210.34,789.52 192.71,791.38 178.39,793.12 171.04,794.01 162.76,795.02 122.77,799.88 113.18,801.04 83.65,804.27 -74.11,821.53" fill="none" stroke="#bcbcbc" stroke-width="8" stroke-linecap="round" stroke-linejoin="round" /><polyline points="327.55,1084.97 319.29,1082.31 280.71,1069.89 272.91,1067.38 266.14,1065.20 225.26,1052.06 217.21,1049.47 206.54,1046.04 141.47,1025.10 134.15,1022.74" fill="none" stroke="#bcbcbc" stroke-width="8" stroke-linecap="round" stroke-linejoin="round" /><polyline points="488.89,303.77 511.33,310.76 593.40,336.11 594.16,336.35 600.25,336.73" fill="none" stroke="#bcbcbc" stroke-width="8" stroke-linecap="round" stroke-linejoin="round" /><polyline points="719.81,118.94 831.45,120.90" fill="none" stroke="#bcbcbc" stroke-width="8" stroke-linecap="round" stroke-linejoin="round" /><polyline points="665.15,1099.81 649.19,1080.84 642.49,1073.05 636.74,1067.67 629.08,1061.95 613.42,1052.56 598.27,1047.58 567.44,1038.06 542.23,1030.05 556.77,1007.87" fill="none" stroke="#bcbcbc" stroke-width="8" stroke-linecap="round" stroke-linejoin="round" /><polyline points="505.42,948.94 483.19,921.51 478.97,916.29 456.58,885.45 451.52,876.04 452.73,864.83 459.48,864.76 476.13,867.97 501.46,872.84" fill="none" stroke="#bcbcbc" stroke-width="8" stroke-linecap="round" stroke-linejoin="round" /><polyline points="214.71,729.16 218.81,737.98 242.21,786.16 277.01,857.80 281.45,866.94" fill="none" stroke="#bcbcbc" stroke-width="8" stroke-linecap="round" stroke-linejoin="round" /><polyline points="-160.15,947.39 -151.78,950.81 -112.57,966.84 -104.01,970.34 -95.01,974.02 -48.85,992.90 -40.50,996.31" fill="none" stroke="#bcbcbc" stroke-width="8" stroke-linecap="round" stroke-linejoin="round" /><polyline points="233.97,657.72 315.65,693.46" fill="none" stroke="#bcbcbc" stroke-width="8" stroke-linecap="round" stroke-linejoin="round" /><polyline points="600.25,336.73 612.69,337.38 613.48,338.08 619.07,343.04 627.27,350.36 628.79,353.31 657.07,378.07 659.16,382.02 679.04,399.57 684.05,401.10 699.51,414.65 702.98,416.23 726.31,436.02 731.50,440.62 734.36,445.19" fill="none" stroke="#bcbcbc" stroke-width="8" stroke-linecap="round" stroke-linejoin="round" /><polyline points="-183.20,657.80 -55.63,669.18" fill="none" stroke="#bcbcbc" stroke-width="8" stroke-linecap="round" stroke-linejoin="round" /><polyline points="101.65,1132.87 105.60,1124.46 106.62,1120.71 112.16,1100.29 132.23,1029.52 134.15,1022.74 136.18,1015.31 145.27,982.06 160.63,925.92 164.16,912.98" fill="none" stroke="#bcbcbc" stroke-width="8" stroke-linecap="round" stroke-linejoin="round" /><polyline points="214.71,729.16 233.97,657.72 193.13,643.43 182.44,649.75 177.56,653.45 173.95,658.34 171.41,664.78 162.02,699.50 169.60,703.36 177.25,705.22 194.18,709.62 206.85,713.66 214.71,729.16" fill="none" stroke="#bcbcbc" stroke-width="8" stroke-linecap="round" stroke-linejoin="round" /><polyline points="162.02,699.50 153.08,698.25 -55.63,669.18" fill="none" stroke="#bcbcbc" stroke-width="8" stroke-linecap="round" stroke-linejoin="round" /><polyline points="501.46,872.84 520.82,877.07 573.17,893.71 587.81,898.34 622.56,908.37 657.56,918.47 683.47,925.96 724.91,937.92 733.47,940.40 754.39,947.41 788.82,956.58 791.85,957.15" fill="none" stroke="#bcbcbc" stroke-width="8" stroke-linecap="round" stroke-linejoin="round" /><polyline points="526.02,1175.30 518.95,1177.07 511.32,1198.35 499.47,1194.99 445.63,1176.64 439.14,1175.25 424.73,1174.22 359.52,1174.48 345.14,1172.65 312.68,1167.69 299.59,1165.56 206.71,1150.58 170.75,1144.84 102.16,1132.96 91.09,1130.77 -63.70,1087.50 -73.47,1084.77 -139.68,1062.26 -155.97,1056.48 -196.66,1039.62 -219.86,1030.84" fill="none" stroke="#bcbcbc" stroke-width="8" stroke-linecap="round" stroke-linejoin="round" /><polyline points="667.87,30.78 661.17,29.40 571.71,39.97 539.73,42.64" fill="none" stroke="#bcbcbc" stroke-width="8" stroke-linecap="round" stroke-linejoin="round" /><polyline points="501.46,872.84 504.60,867.59 523.37,819.38 544.35,746.47 549.70,730.77 552.56,726.49 572.81,661.48 573.82,653.72 574.58,648.65" fill="none" stroke="#bcbcbc" stroke-width="8" stroke-linecap="round" stroke-linejoin="round" /><polyline points="593.66,168.57 595.79,167.75 598.69,165.45 603.09,160.30 660.22,78.34 675.43,56.66" fill="none" stroke="#bcbcbc" stroke-width="8" stroke-linecap="round" stroke-linejoin="round" /><polyline points="847.89,469.66 849.06,466.30 877.78,432.52 879.88,431.40 884.87,424.57 901.57,405.38 906.77,400.60" fill="none" stroke="#bcbcbc" stroke-width="8" stroke-linecap="round" stroke-linejoin="round" /><polyline points="872.98,720.37 872.59,715.85 872.28,712.35 870.77,705.67 868.96,701.30 866.70,689.85 866.50,685.70 864.97,676.42 858.13,672.85 852.67,674.94 842.89,677.28 835.16,678.49 827.73,680.28 817.49,682.62 812.81,683.68" fill="none" stroke="#bcbcbc" stroke-width="8" stroke-linecap="round" stroke-linejoin="round" /><polyline points="118.59,554.46 139.48,505.51 140.64,502.32" fill="none" stroke="#bcbcbc" stroke-width="8" stroke-linecap="round" stroke-linejoin="round" /><polyline points="668.94,464.69 679.01,460.79 684.27,458.75 688.34,454.63 705.12,450.50 710.75,451.93 722.89,448.80 732.16,446.42 734.36,445.19 743.35,442.98 789.28,431.73 799.70,428.62" fill="none" stroke="#bcbcbc" stroke-width="8" stroke-linecap="round" stroke-linejoin="round" /><polyline points="245.23,879.25 266.90,871.38 274.15,869.17 281.45,866.94 294.92,862.82 305.39,861.32 341.17,857.40 348.36,857.01 380.37,857.28 399.87,857.45 407.21,857.08 418.95,858.26 422.63,858.79 430.11,859.86 452.73,864.83" fill="none" stroke="#bcbcbc" stroke-width="8" stroke-linecap="round" stroke-linejoin="round" /><polyline points="348.48,235.91 344.89,223.77 331.56,178.69 315.36,127.28 312.02,118.11 308.62,109.51 304.33,97.11" fill="none" stroke="#bcbcbc" stroke-width="8" stroke-linecap="round" stroke-linejoin="round" /><polyline points="309.70,962.82 312.54,953.83 341.35,862.99 341.17,857.40" fill="none" stroke="#bcbcbc" stroke-width="8" stroke-linecap="round" stroke-linejoin="round" /><polyline points="348.36,857.01 354.06,780.52 354.63,774.29 355.51,767.03 355.52,766.70 355.90,757.83 357.80,733.75 358.87,722.54 360.34,709.80 361.68,700.63 362.88,694.87 364.39,690.52 367.35,680.71 373.47,660.29 381.25,633.93 389.83,606.97 391.58,601.47 392.98,597.49" fill="none" stroke="#bcbcbc" stroke-width="8" stroke-linecap="round" stroke-linejoin="round" /><polyline points="162.02,699.50 160.50,706.28 160.76,708.44 170.06,785.82 171.04,794.01 170.62,802.44 168.18,850.57 167.16,870.67 166.64,881.04 165.70,899.53 165.22,909.15 164.16,912.98" fill="none" stroke="#bcbcbc" stroke-width="8" stroke-linecap="round" stroke-linejoin="round" /><polyline points="118.59,554.46 84.80,544.42 80.51,541.66 59.48,535.53 53.57,535.60 27.15,527.64 22.88,524.49 -1.16,517.20 -30.67,509.16 -30.81,509.14 -35.70,508.72" fill="none" stroke="#bcbcbc" stroke-width="8" stroke-linecap="round" stroke-linejoin="round" /><polyline points="734.36,445.19 735.54,446.73 740.44,454.03 749.50,467.53 758.02,476.07 774.41,494.47 771.64,511.48 770.24,517.85 768.28,520.55 772.39,526.63 778.75,539.71 791.45,564.23 797.71,576.30 801.60,587.14 803.35,592.18" fill="none" stroke="#bcbcbc" stroke-width="8" stroke-linecap="round" stroke-linejoin="round" /><polyline points="819.94,480.21 815.23,481.67 784.20,491.33 779.75,492.76 774.41,494.47" fill="none" stroke="#bcbcbc" stroke-width="8" stroke-linecap="round" stroke-linejoin="round" /><polyline points="596.96,538.99 606.67,535.84 677.10,499.88 686.52,495.27 719.72,485.68 751.90,476.63 758.02,476.07" fill="none" stroke="#bcbcbc" stroke-width="8" stroke-linecap="round" stroke-linejoin="round" /><polyline points="604.64,583.51 685.83,545.73 689.25,543.46 697.19,541.15 751.30,525.41 759.50,522.27 768.28,520.55" fill="none" stroke="#bcbcbc" stroke-width="8" stroke-linecap="round" stroke-linejoin="round" /><polyline points="588.07,-208.67 620.94,-204.61 624.24,-204.20 636.98,-201.07" fill="none" stroke="#bcbcbc" stroke-width="8" stroke-linecap="round" stroke-linejoin="round" /><polyline points="868.95,125.51 874.78,124.29 896.56,134.97 899.43,137.81 940.31,207.02 941.39,215.41 946.71,219.84 945.86,222.90 945.73,227.89 946.47,234.86 957.30,279.37 958.25,310.19 959.77,359.41 962.32,425.65 951.95,454.52 945.27,472.12 935.52,496.92 932.69,504.09 930.86,506.09 927.91,525.28" fill="none" stroke="#bcbcbc" stroke-width="8" stroke-linecap="round" stroke-linejoin="round" /><polyline points="944.54,642.19 934.59,637.86 909.75,620.52 876.96,597.49 858.93,582.91 846.77,569.88" fill="none" stroke="#bcbcbc" stroke-width="8" stroke-linecap="round" stroke-linejoin="round" /><polyline points="542.23,1030.05 532.47,1026.96 516.62,1021.93 509.06,1019.54 500.18,1016.72 488.95,1013.16 478.81,1009.95 468.78,1006.76 424.05,992.57 416.21,990.08 406.48,987.00 404.34,986.32 378.75,979.56 371.53,977.81 362.48,975.62 353.00,973.33 318.86,965.05 309.70,962.82 299.86,959.41 279.30,952.27 271.55,949.58 264.62,947.33 232.43,935.88 228.37,933.46 226.42,929.26" fill="none" stroke="#bcbcbc" stroke-width="8" stroke-linecap="round" stroke-linejoin="round" /><polyline points="689.25,543.46 686.88,534.96 679.81,509.62 677.10,499.88 673.17,492.59 672.80,491.24 670.49,482.66 673.18,478.86 669.94,468.05 668.94,464.69" fill="none" stroke="#bcbcbc" stroke-width="8" stroke-linecap="round" stroke-linejoin="round" /><polyline points="677.44,233.36 684.15,230.20 720.86,209.96 741.84,196.46 756.64,186.37 759.91,183.93 771.82,175.65 784.16,166.54 791.98,160.85 801.30,154.04 833.68,139.42 837.88,139.64 844.02,136.74 868.95,125.51" fill="none" stroke="#bcbcbc" stroke-width="8" stroke-linecap="round" stroke-linejoin="round" /><polyline points="270.57,371.33 275.86,373.48 279.36,374.55 345.01,394.72 355.03,397.80" fill="none" stroke="#bcbcbc" stroke-width="8" stroke-linecap="round" stroke-linejoin="round" /><polyline points="-198.31,518.96 -245.21,504.76" fill="none" stroke="#bcbcbc" stroke-width="8" stroke-linecap="round" stroke-linejoin="round" /><polyline points="559.24,-142.43 570.87,-127.70 572.61,-125.50 578.48,-118.06 585.17,-117.28 598.92,-115.67 601.36,-113.98" fill="none" stroke="#bcbcbc" stroke-width="8" stroke-linecap="round" stroke-linejoin="round" /><polyline points="963.03,512.78 944.60,516.21 925.71,526.48 908.19,536.23 891.63,544.51 871.62,555.38 857.12,564.18 828.48,579.54 716.67,635.79 687.68,648.56 668.53,656.85 659.04,659.95 651.19,661.42 638.34,662.20 620.05,659.61 574.41,648.65 509.62,633.55 424.38,607.84 392.98,597.49 341.56,581.61 292.39,565.39 220.26,537.09 184.20,521.56 140.72,502.24 68.60,462.72 51.69,451.51 8.90,424.59 -9.05,406.64 -35.96,371.79 -80.31,326.07 -97.73,310.71" fill="none" stroke="#bcbcbc" stroke-width="8" stroke-linecap="round" stroke-linejoin="round" /><polyline points="613.42,1052.56 614.17,1048.34 616.90,1041.46 642.48,981.61 652.14,959.18 663.53,931.22 666.30,920.99" fill="none" stroke="#bcbcbc" stroke-width="8" stroke-linecap="round" stroke-linejoin="round" /><polyline points="122.77,799.88 93.71,785.82 27.61,753.82 -53.48,714.57 -60.72,711.07" fill="none" stroke="#bcbcbc" stroke-width="8" stroke-linecap="round" stroke-linejoin="round" /><polyline points="600.25,336.73 607.59,329.21 627.09,309.25 642.57,292.34" fill="none" stroke="#bcbcbc" stroke-width="8" stroke-linecap="round" stroke-linejoin="round" /><polyline points="37.00,381.21 28.94,370.54 -8.82,320.54 -62.73,276.91" fill="none" stroke="#bcbcbc" stroke-width="8" stroke-linecap="round" stroke-linejoin="round" /><polyline points="-196.95,1039.50 -189.58,1022.01 -166.14,963.57 -163.30,955.90 -160.15,947.39 -158.95,944.32 -158.64,939.51 -155.63,894.08 -154.77,881.04" fill="none" stroke="#bcbcbc" stroke-width="8" stroke-linecap="round" stroke-linejoin="round" /><polyline points="-212.95,569.71 -198.31,518.96 -179.01,452.01 -176.62,443.72 -173.96,434.31 -168.01,413.23 -167.38,411.02 -165.68,404.24 -162.96,396.58 -162.30,394.72 -158.87,386.22 -152.14,371.35 -150.12,367.09" fill="none" stroke="#bcbcbc" stroke-width="8" stroke-linecap="round" stroke-linejoin="round" /><polyline points="-176.62,443.72 -147.01,451.30 -84.29,467.42 -48.55,478.55 -33.65,482.04" fill="none" stroke="#bcbcbc" stroke-width="8" stroke-linecap="round" stroke-linejoin="round" /><polyline points="432.87,213.42 433.87,207.26 434.89,200.87 439.23,179.46 450.08,129.65 459.00,85.09 460.62,75.84 462.84,63.29 462.84,63.28" fill="none" stroke="#bcbcbc" stroke-width="8" stroke-linecap="round" stroke-linejoin="round" /><polyline points="345.20,1172.66 358.42,1138.94 360.06,1132.88 412.53,999.69 416.21,990.08 419.20,981.93 450.55,890.72 456.58,885.45" fill="none" stroke="#bcbcbc" stroke-width="8" stroke-linecap="round" stroke-linejoin="round" /><polyline points="525.04,187.64 525.04,187.63 523.18,177.87 522.89,176.69 518.36,158.26 518.36,158.20 515.27,145.70 502.18,100.83 500.53,96.02 491.68,71.99 488.81,64.81 486.96,60.18 484.55,54.93 484.55,54.92 484.55,54.89 482.79,35.57 482.62,26.08" fill="none" stroke="#bcbcbc" stroke-width="8" stroke-linecap="round" stroke-linejoin="round" /><polyline points="505.42,948.94 502.05,952.58 497.03,958.55 482.90,998.41 478.81,1009.95" fill="none" stroke="#bcbcbc" stroke-width="8" stroke-linecap="round" stroke-linejoin="round" /><polyline points="270.57,371.33 272.50,366.10 272.94,364.88 282.12,339.24 285.56,328.44 313.69,245.72" fill="none" stroke="#bcbcbc" stroke-width="8" stroke-linecap="round" stroke-linejoin="round" /><polyline points="416.10,487.31 418.97,479.68 426.74,459.03 430.03,450.30 432.25,444.39 438.49,427.82 442.61,416.87 443.16,415.40 453.15,388.88 457.32,390.17 459.58,384.02 463.58,373.13 462.82,368.18 473.44,339.26 474.53,336.29 476.54,334.44 478.23,332.89 488.89,303.77 490.42,295.80 505.71,253.34 509.32,250.52 516.67,229.72 515.36,226.52 521.80,207.10 518.46,189.75" fill="none" stroke="#bcbcbc" stroke-width="8" stroke-linecap="round" stroke-linejoin="round" /><polyline points="689.44,-302.45 685.16,-309.48 662.66,-346.39" fill="none" stroke="#bcbcbc" stroke-width="8" stroke-linecap="round" stroke-linejoin="round" /><polyline points="759.91,183.93 863.16,250.33 863.19,250.38 863.19,250.39 882.29,252.87" fill="none" stroke="#bcbcbc" stroke-width="8" stroke-linecap="round" stroke-linejoin="round" /><polyline points="718.50,45.23 828.36,100.37 831.68,102.85 831.45,120.90 833.68,139.42" fill="none" stroke="#bcbcbc" stroke-width="8" stroke-linecap="round" stroke-linejoin="round" /><polyline points="509.06,1019.54 505.11,1031.59 489.10,1080.41 461.88,1162.63 459.94,1168.46 457.99,1174.37 457.44,1180.66" fill="none" stroke="#bcbcbc" stroke-width="8" stroke-linecap="round" stroke-linejoin="round" /><polyline points="818.32,722.97 818.98,716.85 819.12,711.14 819.07,710.94 815.18,694.11 813.58,687.08 812.81,683.68 812.03,680.22 807.75,661.39 799.41,623.77 793.34,601.15 792.48,597.65" fill="none" stroke="#bcbcbc" stroke-width="8" stroke-linecap="round" stroke-linejoin="round" /><polyline points="272.91,1067.38 275.63,1059.64 306.23,972.69 309.70,962.82" fill="none" stroke="#bcbcbc" stroke-width="8" stroke-linecap="round" stroke-linejoin="round" /><polyline points="959.77,359.41 950.77,356.87 889.65,263.08 882.29,252.87" fill="none" stroke="#bcbcbc" stroke-width="8" stroke-linecap="round" stroke-linejoin="round" /><polyline points="-44.98,584.45 177.77,637.82 193.13,643.43" fill="none" stroke="#bcbcbc" stroke-width="8" stroke-linecap="round" stroke-linejoin="round" /><polyline points="657.59,-249.45 744.36,-217.30 756.57,-219.39" fill="none" stroke="#bcbcbc" stroke-width="8" stroke-linecap="round" stroke-linejoin="round" />
    <polyline points="241.32,352.80 240.74,350.91 240.20,349.58 237.85,343.72 228.71,322.41 220.02,300.77 218.15,295.66 215.99,289.78 214.44,284.96 211.89,277.74 211.62,276.98 203.31,256.50 188.06,218.01 184.63,216.06 182.20,209.82 177.33,192.91 169.00,171.96 167.20,167.20" fill="none" stroke="#ffffff" stroke-width="16" stroke-linecap="round" stroke-linejoin="round" />
    <polyline points="241.32,352.80 240.74,350.91 240.20,349.58 237.85,343.72 228.71,322.41 220.02,300.77 218.15,295.66 215.99,289.78 214.44,284.96 211.89,277.74 211.62,276.98 203.31,256.50 188.06,218.01 184.63,216.06 182.20,209.82 177.33,192.91 169.00,171.96 167.20,167.20" fill="none" stroke="#111111" stroke-width="9" stroke-linecap="round" stroke-linejoin="round" />
    
            <g transform="translate(241.32,352.80)">
              <circle r="19" fill="#ffffff" stroke="#111111" stroke-width="4" />
              <text text-anchor="middle" dominant-baseline="central" font-family="Helvetica, Arial, sans-serif"
                font-size="18" font-weight="700" fill="#111111">1</text>
            </g>
            
            <g transform="translate(167.20,167.20)">
              <circle r="19" fill="#ffffff" stroke="#111111" stroke-width="4" />
              <text text-anchor="middle" dominant-baseline="central" font-family="Helvetica, Arial, sans-serif"
                font-size="18" font-weight="700" fill="#111111">2</text>
            </g>
            
  </g>
</svg>
