<svg xmlns="http://www.w3.org/2000/svg" width="520" height="520" viewBox="0 0 520 520">
  <rect width="100%" height="100%" fill="#ffffff" />
  <g>
    <polyline points="2178.46,-3292.58 2185.90,-3252.99 2233.93,-2917.06 2226.58,-2833.08" fill="none" stroke="#bcbcbc" stroke-width="8" stroke-linecap="round" stroke-linejoin="round" /><polyline points="1202.27,-493.13 1213.88,-528.83 1275.40,-718.01 1282.65,-740.30 1289.99,-763.71 1444.69,-1256.97 1457.13,-1296.64 1428.64,-1366.81" fill="none" stroke="#bcbcbc" stroke-width="8" stroke-linecap="round" stroke-linejoin="round" /><polyline points="133.69,-931.86 131.19,-960.19 181.77,-1243.42 188.86,-1278.85 194.16,-1297.40 208.08,-1369.23 223.72,-1457.14 240.77,-1534.57 257.67,-1611.82 268.32,-1633.60 275.28,-1646.95" fill="none" stroke="#bcbcbc" stroke-width="8" stroke-linecap="round" stroke-linejoin="round" /><polyline points="427.25,-2929.73 415.23,-2966.39 290.94,-3345.41 284.88,-3361.30" fill="none" stroke="#bcbcbc" stroke-width="8" stroke-linecap="round" stroke-linejoin="round" /><polyline points="-210.49,406.05 -206.79,369.88 -205.28,353.28 -191.75,203.64 -176.94,71.87 -173.48,41.10 -170.27,4.18 -169.91,1.08 -161.51,-72.31 -154.27,-146.91 -146.30,-218.90 -140.93,-274.94 -138.68,-309.53 -136.70,-341.47 -133.18,-377.46" fill="none" stroke="#bcbcbc" stroke-width="8" stroke-linecap="round" stroke-linejoin="round" /><polyline points="1506.87,-405.19 1515.73,-433.02 1578.10,-629.05 1585.18,-651.33 1595.26,-683.06 1602.47,-705.80 1657.67,-943.85" fill="none" stroke="#bcbcbc" stroke-width="8" stroke-linecap="round" stroke-linejoin="round" /><polyline points="1264.44,-4282.80 1287.47,-4279.26 1922.14,-4181.76" fill="none" stroke="#bcbcbc" stroke-width="8" stroke-linecap="round" stroke-linejoin="round" /><polyline points="-364.89,-451.39 -430.95,-454.46 -471.23,-456.33 -493.12,-457.35 -512.32,-458.25 -661.91,-465.20 -869.98,-474.88 -969.15,-488.94 -1002.34,-493.64 -1031.15,-498.73 -1226.20,-533.15 -1253.47,-537.96 -1259.51,-539.00 -1293.19,-544.77 -1319.07,-549.20 -1484.35,-563.81 -1515.83,-566.59 -1527.38,-567.62 -1563.12,-570.09 -1633.09,-574.94" fill="none" stroke="#bcbcbc" stroke-width="8" stroke-linecap="round" stroke-linejoin="round" /><polyline points="594.84,-643.02 607.64,-679.43 722.94,-999.01 861.64,-1402.11 870.53,-1427.39 876.72,-1445.05 881.75,-1459.55" fill="none" stroke="#bcbcbc" stroke-width="8" stroke-linecap="round" stroke-linejoin="round" /><polyline points="-1527.38,-567.62 -1530.33,-588.16 -1531.02,-610.48 -1526.65,-655.42 -1516.61,-737.48 -1509.91,-765.03 -1499.04,-864.61 -1497.06,-886.79 -1493.88,-915.30 -1491.52,-936.48 -1487.06,-960.48 -1478.80,-1025.07 -1473.07,-1074.48 -1464.64,-1094.69" fill="none" stroke="#bcbcbc" stroke-width="8" stroke-linecap="round" stroke-linejoin="round" /><polyline points="-1645.40,-1119.94 -1491.60,-1098.46 -1464.64,-1094.69 -1447.94,-1092.03 -1379.00,-1081.05 -1220.17,-1055.74 -1192.91,-1051.20" fill="none" stroke="#bcbcbc" stroke-width="8" stroke-linecap="round" stroke-linejoin="round" /><polyline points="1185.01,-3137.22 1186.01,-3123.25 1188.07,-3109.09 1193.07,-3098.25 1202.42,-3086.16 1219.72,-3070.42 1260.71,-3045.49 1576.92,-2847.13 1771.67,-2586.06 1918.77,-2223.08 1928.37,-2199.10" fill="none" stroke="#bcbcbc" stroke-width="8" stroke-linecap="round" stroke-linejoin="round" /><polyline points="1134.37,-2078.09 1140.93,-2067.25 1142.63,-2064.43 1148.06,-2037.05 1185.16,-1857.68 1196.94,-1800.74 1205.36,-1760.19 1218.50,-1678.00 1224.63,-1640.10 1228.86,-1616.97 1233.50,-1596.08 1239.03,-1583.90 1247.15,-1569.79 1251.50,-1563.14 1333.66,-1445.53 1378.10,-1375.55 1389.69,-1358.83" fill="none" stroke="#bcbcbc" stroke-width="8" stroke-linecap="round" stroke-linejoin="round" /><polyline points="-1224.32,167.91 -1219.95,140.99 -1215.89,121.53 -1214.80,118.95 -1160.12,-11.06 -1125.27,-95.56 -1114.68,-122.34 -1103.47,-150.70 -1091.28,-175.08 -1089.31,-179.84 -1072.64,-220.14 -1059.75,-255.80 -1048.69,-288.51 -1041.67,-311.63 -1033.80,-340.20 -1024.73,-378.50 -1017.85,-409.58 -1009.61,-452.95 -1007.88,-462.63 -1002.34,-493.64" fill="none" stroke="#bcbcbc" stroke-width="8" stroke-linecap="round" stroke-linejoin="round" /><polyline points="1425.21,-3462.78 1599.57,-3340.95 1623.06,-3335.96 1640.26,-3316.30" fill="none" stroke="#bcbcbc" stroke-width="8" stroke-linecap="round" stroke-linejoin="round" /><polyline points="693.02,-2337.66 716.06,-2328.80 816.12,-2296.08 1048.20,-2207.09 1061.22,-2194.11 1067.33,-2184.42" fill="none" stroke="#bcbcbc" stroke-width="8" stroke-linecap="round" stroke-linejoin="round" /><polyline points="1125.49,-50.96 1141.29,-92.14 1219.31,-303.79 1274.48,-463.69 1285.92,-468.96" fill="none" stroke="#bcbcbc" stroke-width="8" stroke-linecap="round" stroke-linejoin="round" /><polyline points="22.63,-319.32 34.94,-346.53 36.16,-349.23 57.22,-419.87 91.73,-536.16 100.56,-565.92 107.43,-589.04 108.35,-602.51 106.95,-632.33" fill="none" stroke="#bcbcbc" stroke-width="8" stroke-linecap="round" stroke-linejoin="round" /><polyline points="1456.68,-2068.80 1436.89,-2064.72 1392.07,-2072.70 1385.13,-2091.19 1307.46,-2120.79 1289.10,-2115.99 1219.03,-2141.72 1208.57,-2134.42" fill="none" stroke="#bcbcbc" stroke-width="8" stroke-linecap="round" stroke-linejoin="round" /><polyline points="1341.36,-4470.91 1376.55,-4462.29 1396.02,-4458.91 1859.00,-4378.64" fill="none" stroke="#bcbcbc" stroke-width="8" stroke-linecap="round" stroke-linejoin="round" /><polyline points="981.52,-179.85 1000.78,-234.13 1038.20,-339.64 1062.39,-384.58 1097.19,-482.01 1111.09,-520.90" fill="none" stroke="#bcbcbc" stroke-width="8" stroke-linecap="round" stroke-linejoin="round" /><polyline points="-1555.20,-2286.91 -1588.73,-2288.45 -1597.13,-2278.24 -1655.55,-2207.27 -1859.77,-1971.41 -1888.49,-1938.24" fill="none" stroke="#bcbcbc" stroke-width="8" stroke-linecap="round" stroke-linejoin="round" /><polyline points="236.01,-2084.91 221.22,-2052.14 219.42,-2048.17 167.99,-1914.08 116.15,-1766.47 102.33,-1727.11 94.49,-1706.78" fill="none" stroke="#bcbcbc" stroke-width="8" stroke-linecap="round" stroke-linejoin="round" /><polyline points="990.40,-3591.58 1006.73,-3569.42 1018.41,-3538.94 1036.56,-3495.20 1065.69,-3426.39 1091.50,-3364.63 1121.11,-3296.82 1143.09,-3244.56 1146.34,-3237.05 1146.54,-3236.59 1164.22,-3195.25 1169.51,-3183.50 1174.54,-3172.32 1179.85,-3161.84 1183.85,-3151.19 1185.01,-3137.22" fill="none" stroke="#bcbcbc" stroke-width="8" stroke-linecap="round" stroke-linejoin="round" /><polyline points="-260.36,-1423.90 -251.81,-1428.58 -239.85,-1438.08 -233.86,-1450.41 -154.41,-1751.66 -152.01,-1768.65 -142.32,-1799.68" fill="none" stroke="#bcbcbc" stroke-width="8" stroke-linecap="round" stroke-linejoin="round" /><polyline points="2517.95,-1895.31 2529.22,-1859.54 2537.16,-1821.97 2521.71,-1678.79 2503.86,-1571.09 2494.11,-1534.35 2493.23,-1531.02 2484.69,-1511.19 2473.05,-1490.17 2445.87,-1455.79 2459.03,-1388.58 2416.45,-1244.31 2392.93,-1164.63 2344.83,-1034.21 2274.39,-875.42 2188.38,-723.24 2161.52,-673.78 2112.95,-592.53 1918.92,-317.18 1876.41,-259.91 1711.79,-44.81 1617.28,62.71 1485.08,197.05 1472.85,198.31 1442.99,222.71" fill="none" stroke="#bcbcbc" stroke-width="8" stroke-linecap="round" stroke-linejoin="round" /><polyline points="123.80,459.95 177.96,292.00 186.82,264.27 198.86,246.79 224.73,169.17 233.15,142.80 340.00,-191.70 350.75,-225.35 359.61,-254.91 485.71,-651.72" fill="none" stroke="#bcbcbc" stroke-width="8" stroke-linecap="round" stroke-linejoin="round" /><polyline points="1392.62,-2663.60 1439.44,-2714.75 1453.25,-2731.39 1547.86,-2865.37" fill="none" stroke="#bcbcbc" stroke-width="8" stroke-linecap="round" stroke-linejoin="round" /><polyline points="456.77,-2643.33 585.71,-2598.45 592.84,-2586.88 629.45,-2574.60 651.18,-2567.17 755.11,-2532.07" fill="none" stroke="#bcbcbc" stroke-width="8" stroke-linecap="round" stroke-linejoin="round" /><polyline points="1580.63,-3535.48 1640.26,-3316.30 1709.30,-3058.10 1719.77,-3036.58 1721.43,-3012.01 1768.25,-2924.62 1894.59,-2689.04 1922.21,-2648.30 1930.21,-2636.37 2118.98,-2283.50 2205.73,-2204.65 2217.90,-2188.94 2235.06,-2174.27 2399.79,-2033.44 2410.96,-2023.89 2440.54,-2008.18" fill="none" stroke="#bcbcbc" stroke-width="8" stroke-linecap="round" stroke-linejoin="round" /><polyline points="939.99,495.61 1350.80,257.01 1423.92,219.62 1442.99,222.71" fill="none" stroke="#bcbcbc" stroke-width="8" stroke-linecap="round" stroke-linejoin="round" /><polyline points="1385.40,154.27 1410.89,123.98 1639.71,-332.54 1654.87,-362.48 1667.53,-392.11 1741.44,-574.87 1763.45,-629.93 1827.16,-822.70 1868.47,-1070.54 1873.37,-1106.61" fill="none" stroke="#bcbcbc" stroke-width="8" stroke-linecap="round" stroke-linejoin="round" /><polyline points="1208.80,-2530.51 1204.80,-2526.40 1199.29,-2507.20 1198.74,-2505.28 1173.90,-2409.67 1180.42,-2384.71 1175.00,-2362.34 1167.91,-2333.05 1149.74,-2312.00 1129.12,-2228.48 1104.83,-2210.12 1078.89,-2192.35 1067.33,-2184.42" fill="none" stroke="#bcbcbc" stroke-width="8" stroke-linecap="round" stroke-linejoin="round" /><polyline points="236.01,-2084.91 246.57,-2111.97 310.06,-2274.68 323.90,-2310.17 335.31,-2339.39 416.42,-2547.18 452.94,-2634.06 456.77,-2643.33 485.16,-2711.94 548.84,-2870.03 572.16,-2937.34 577.35,-2952.77 584.32,-2970.27" fill="none" stroke="#bcbcbc" stroke-width="8" stroke-linecap="round" stroke-linejoin="round" /><polyline points="946.38,-3071.26 958.65,-3034.73 1361.53,-2690.65 1581.37,-2499.41 1909.73,-2214.00 1938.39,-2191.08 1951.23,-2183.06 2008.21,-2131.34 2084.30,-2066.45 2256.89,-1919.31 2312.64,-1871.38 2349.63,-1827.14" fill="none" stroke="#bcbcbc" stroke-width="8" stroke-linecap="round" stroke-linejoin="round" /><polyline points="1612.50,-3664.15 1632.94,-3677.25 1753.99,-3727.55 1778.87,-3753.72" fill="none" stroke="#bcbcbc" stroke-width="8" stroke-linecap="round" stroke-linejoin="round" /><polyline points="1752.32,-602.08 1585.18,-651.33 1282.65,-740.30" fill="none" stroke="#bcbcbc" stroke-width="8" stroke-linecap="round" stroke-linejoin="round" /><polyline points="1212.81,-4156.65 1235.64,-4140.91 1979.56,-3975.41" fill="none" stroke="#bcbcbc" stroke-width="8" stroke-linecap="round" stroke-linejoin="round" /><polyline points="2131.72,-1707.66 2093.28,-1793.19 2007.95,-1996.65 2001.59,-2012.82 1987.00,-2049.96 1932.00,-2189.90 1928.54,-2198.96" fill="none" stroke="#bcbcbc" stroke-width="8" stroke-linecap="round" stroke-linejoin="round" /><polyline points="990.40,-3591.58 949.09,-3603.33 918.75,-3612.37 857.06,-3630.68 825.72,-3639.62 807.77,-3644.61 784.32,-3651.32" fill="none" stroke="#bcbcbc" stroke-width="8" stroke-linecap="round" stroke-linejoin="round" /><polyline points="-86.47,-2472.51 -88.56,-2479.35 -90.49,-2484.13 -99.00,-2505.28 -131.98,-2582.15 -163.32,-2660.23 -170.08,-2678.67 -177.88,-2699.91 -183.46,-2717.28 -192.67,-2743.32 -193.64,-2746.06 -223.62,-2819.95 -278.67,-2958.83 -291.03,-2965.87 -299.82,-2988.40 -317.38,-3049.39 -347.45,-3124.98 -353.94,-3142.16" fill="none" stroke="#bcbcbc" stroke-width="8" stroke-linecap="round" stroke-linejoin="round" /><polyline points="2066.74,-3627.78 2072.63,-3651.61 2070.24,-3660.66 2067.35,-3671.58 2048.88,-3739.22 2007.71,-3882.22 1985.99,-3955.32 1979.56,-3975.41 1922.14,-4181.76 1891.15,-4293.06 1859.00,-4378.64 1829.95,-4455.85 1801.03,-4508.93 1772.93,-4536.98 1557.19,-4800.57 1541.22,-4819.34 1530.65,-4836.68" fill="none" stroke="#bcbcbc" stroke-width="8" stroke-linecap="round" stroke-linejoin="round" /><polyline points="1185.01,-3137.22 1173.89,-3132.97 1153.32,-3127.29 1151.26,-3126.73 1065.33,-3104.75 966.54,-3076.94 946.38,-3071.26 937.39,-3068.41 913.66,-3060.78 893.37,-3055.14 804.78,-3030.49 659.09,-2989.11 604.77,-2975.38 584.32,-2970.27 487.23,-2946.43 427.25,-2929.73 300.24,-2894.25 174.70,-2858.87 160.17,-2854.84 55.25,-2825.73 6.85,-2812.29 -17.59,-2800.75 -63.85,-2777.81 -155.73,-2731.19 -162.13,-2727.95 -183.46,-2717.28 -196.47,-2710.76 -214.62,-2701.25 -279.18,-2667.41 -396.79,-2601.42 -495.04,-2549.96 -509.10,-2542.60 -527.87,-2541.43 -539.15,-2535.44 -541.40,-2534.24 -647.99,-2475.84 -670.31,-2475.94 -695.93,-2462.54 -704.87,-2457.86 -712.42,-2453.91 -730.24,-2444.59 -744.28,-2412.57 -804.60,-2380.26 -823.78,-2369.99 -844.54,-2358.70 -928.47,-2313.03 -971.85,-2289.42 -993.72,-2283.12" fill="none" stroke="#bcbcbc" stroke-width="8" stroke-linecap="round" stroke-linejoin="round" /><polyline points="2392.93,-1164.63 2348.14,-1160.53 2208.24,-1147.71 2201.94,-1147.13 2193.02,-1146.31 2178.58,-1144.99 2042.93,-1132.54 1995.75,-1136.91 1940.81,-1123.15 1896.81,-1112.36 1873.37,-1106.61 1815.13,-1104.40 1764.72,-1106.97 1739.02,-1109.70 1717.15,-1116.31 1701.04,-1125.22 1641.06,-1167.62 1495.32,-1267.71 1481.58,-1277.03 1467.59,-1286.52 1457.13,-1296.64" fill="none" stroke="#bcbcbc" stroke-width="8" stroke-linecap="round" stroke-linejoin="round" /><polyline points="-907.91,-2854.34 -855.03,-2750.83 -847.03,-2721.25 -802.48,-2636.26 -784.08,-2611.95 -709.63,-2467.11 -704.87,-2457.86" fill="none" stroke="#bcbcbc" stroke-width="8" stroke-linecap="round" stroke-linejoin="round" /><polyline points="712.66,-1933.79 704.74,-1912.02 702.52,-1905.27 692.19,-1873.95 626.77,-1691.45 594.29,-1600.81 593.19,-1597.72 580.14,-1569.55 572.66,-1552.81" fill="none" stroke="#bcbcbc" stroke-width="8" stroke-linecap="round" stroke-linejoin="round" /><polyline points="1580.63,-3535.48 1573.37,-3551.01 1554.30,-3553.51 1492.64,-3539.37 1480.11,-3540.99 1470.29,-3554.15 1452.84,-3634.38 1547.35,-3649.01 1591.10,-3661.93 1612.50,-3664.15 1635.55,-3582.23" fill="none" stroke="#bcbcbc" stroke-width="8" stroke-linecap="round" stroke-linejoin="round" /><polyline points="1922.21,-2648.30 1946.55,-2661.97 2068.84,-2735.64 2101.52,-2755.10 2158.72,-2789.20 2252.83,-2850.05 2274.79,-2865.83 2439.86,-2968.22" fill="none" stroke="#bcbcbc" stroke-width="8" stroke-linecap="round" stroke-linejoin="round" /><polyline points="2499.23,-2164.68 2457.50,-2177.11 2433.23,-2197.00 2340.51,-2277.23 2337.36,-2280.05 2314.94,-2300.05 2301.76,-2323.41 2068.84,-2735.64" fill="none" stroke="#bcbcbc" stroke-width="8" stroke-linecap="round" stroke-linejoin="round" /><polyline points="-129.44,-2197.35 236.01,-2084.91 265.83,-2075.45 538.55,-1989.02 544.25,-1987.21 585.10,-1974.26 605.19,-1967.88 631.29,-1960.75 685.13,-1942.52 712.66,-1933.79 737.44,-1925.93 940.40,-1861.56 1154.65,-1794.26 1172.37,-1788.69 1196.94,-1800.74" fill="none" stroke="#bcbcbc" stroke-width="8" stroke-linecap="round" stroke-linejoin="round" /><polyline points="945.12,-4001.34 1103.43,-4146.78 1130.23,-4171.41" fill="none" stroke="#bcbcbc" stroke-width="8" stroke-linecap="round" stroke-linejoin="round" /><polyline points="-1705.79,-1654.53 -1124.90,-1592.28" fill="none" stroke="#bcbcbc" stroke-width="8" stroke-linecap="round" stroke-linejoin="round" /><polyline points="46.57,-3275.64 168.66,-3319.29 294.59,-3364.82 372.84,-3395.23 611.74,-3482.10 681.08,-3506.09 695.56,-3511.09 712.92,-3517.06 732.42,-3523.77 734.81,-3524.59 774.16,-3540.41 791.27,-3547.28" fill="none" stroke="#bcbcbc" stroke-width="8" stroke-linecap="round" stroke-linejoin="round" /><polyline points="866.58,-321.62 981.52,-179.85 1051.89,-109.00 1082.35,-87.08 1125.49,-50.96 1165.99,-16.95 1200.79,17.00 1201.65,34.26" fill="none" stroke="#bcbcbc" stroke-width="8" stroke-linecap="round" stroke-linejoin="round" /><polyline points="990.40,-3591.58 1035.44,-3704.47 1108.36,-3890.35 1212.81,-4156.65 1264.44,-4282.80 1341.36,-4470.91 1404.43,-4624.99 1415.72,-4645.43 1471.19,-4736.11 1474.77,-4741.97 1495.06,-4781.87 1530.65,-4836.68 1550.52,-4867.26 1578.64,-4910.53" fill="none" stroke="#bcbcbc" stroke-width="8" stroke-linecap="round" stroke-linejoin="round" /><polyline points="-72.34,-573.06 -79.72,-567.16 -84.59,-560.14 -94.53,-530.84 -101.40,-509.69 -133.13,-414.80 -137.50,-401.11 -140.21,-392.62 -169.36,-400.97 -240.29,-424.75 -310.57,-448.31 -364.89,-451.39" fill="none" stroke="#bcbcbc" stroke-width="8" stroke-linecap="round" stroke-linejoin="round" /><polyline points="-1461.38,87.24 -1345.55,-211.85 -1332.66,-244.41 -1321.10,-275.77 -1307.13,-313.66 -1290.00,-373.27 -1272.14,-447.35 -1264.82,-500.43 -1259.51,-539.00 -1252.01,-567.46 -1224.75,-781.32 -1192.91,-1051.20 -1176.43,-1179.86 -1158.04,-1331.01 -1124.90,-1592.28 -1119.64,-1636.70 -1086.15,-1909.93 -1086.13,-1925.15 -1078.73,-2006.22 -1057.37,-2177.47 -1052.01,-2207.34 -1046.42,-2224.09 -1037.69,-2242.54 -1029.20,-2256.86 -1010.45,-2277.15 -993.69,-2282.91" fill="none" stroke="#bcbcbc" stroke-width="8" stroke-linecap="round" stroke-linejoin="round" /><polyline points="1067.33,-2184.42 1073.66,-2174.37 1094.91,-2141.22 1126.71,-2090.25 1134.37,-2078.09 1147.06,-2087.72 1208.57,-2134.42" fill="none" stroke="#bcbcbc" stroke-width="8" stroke-linecap="round" stroke-linejoin="round" /><polyline points="1108.36,-3890.35 1734.21,-3777.22 1799.94,-3742.63 2045.14,-3621.10 2066.74,-3627.78" fill="none" stroke="#bcbcbc" stroke-width="8" stroke-linecap="round" stroke-linejoin="round" /><polyline points="-86.47,-2472.51 -97.58,-2456.32 -197.42,-2407.59 -270.76,-2314.40 -349.89,-2265.41 -404.01,-2224.55 -455.64,-2182.44 -482.12,-2158.31 -528.87,-2099.01 -581.16,-2024.07 -589.78,-2010.19" fill="none" stroke="#bcbcbc" stroke-width="8" stroke-linecap="round" stroke-linejoin="round" /><polyline points="19.09,-2405.66 14.76,-2396.03 5.29,-2382.20 -12.60,-2360.19 -118.07,-2226.97 -173.87,-2076.70 -455.52,-2182.56" fill="none" stroke="#bcbcbc" stroke-width="8" stroke-linecap="round" stroke-linejoin="round" /><polyline points="-404.01,-2224.55 -414.92,-2257.56 -462.04,-2400.24 -480.34,-2428.43 -510.97,-2520.30 -513.61,-2528.23 -509.10,-2542.60 -516.43,-2566.02 -663.70,-3036.17" fill="none" stroke="#bcbcbc" stroke-width="8" stroke-linecap="round" stroke-linejoin="round" /><polyline points="1321.60,-4789.86 1437.98,-4786.79 1443.42,-4786.64 1465.72,-4786.00 1495.06,-4781.87" fill="none" stroke="#bcbcbc" stroke-width="8" stroke-linecap="round" stroke-linejoin="round" /><polyline points="722.94,-999.01 683.20,-999.50 346.70,-954.33 322.45,-951.77 294.71,-948.85 133.69,-931.86 -83.25,-908.95 -198.26,-896.82 -261.89,-890.11 -313.54,-883.83 -340.07,-880.60 -369.95,-876.97 -514.28,-859.44 -548.86,-855.23 -655.45,-843.58 -1224.75,-781.32" fill="none" stroke="#bcbcbc" stroke-width="8" stroke-linecap="round" stroke-linejoin="round" /><polyline points="224.73,169.17 194.92,159.58 55.69,114.76 27.54,105.71 3.11,97.85 -144.40,50.45 -173.48,41.10 -211.96,28.72 -446.77,-46.84 -473.20,-55.34" fill="none" stroke="#bcbcbc" stroke-width="8" stroke-linecap="round" stroke-linejoin="round" /><polyline points="806.92,-2649.41 887.91,-2624.18 1184.08,-2532.74 1186.84,-2531.88 1208.80,-2530.51" fill="none" stroke="#bcbcbc" stroke-width="8" stroke-linecap="round" stroke-linejoin="round" /><polyline points="1640.26,-3316.30 2043.14,-3309.21" fill="none" stroke="#bcbcbc" stroke-width="8" stroke-linecap="round" stroke-linejoin="round" /><polyline points="1442.99,222.71 1385.40,154.27 1361.23,126.17 1340.47,106.77 1312.83,86.13 1256.32,52.24 1201.65,34.26 1090.42,-0.09 999.44,-28.96 1051.89,-109.00" fill="none" stroke="#bcbcbc" stroke-width="8" stroke-linecap="round" stroke-linejoin="round" /><polyline points="866.58,-321.62 786.38,-420.59 771.13,-439.42 690.35,-550.68 672.07,-584.66 676.46,-625.10 700.81,-625.34 760.89,-613.78 852.30,-596.20" fill="none" stroke="#bcbcbc" stroke-width="8" stroke-linecap="round" stroke-linejoin="round" /><polyline points="-182.50,-1114.60 -167.71,-1082.79 -83.25,-908.95 42.33,-650.46 58.35,-617.49" fill="none" stroke="#bcbcbc" stroke-width="8" stroke-linecap="round" stroke-linejoin="round" /><polyline points="-1535.23,-327.21 -1505.02,-314.87 -1363.54,-257.03 -1332.66,-244.41 -1300.16,-231.12 -1133.60,-163.02 -1103.47,-150.70" fill="none" stroke="#bcbcbc" stroke-width="8" stroke-linecap="round" stroke-linejoin="round" /><polyline points="-112.99,-1372.35 181.77,-1243.42" fill="none" stroke="#bcbcbc" stroke-width="8" stroke-linecap="round" stroke-linejoin="round" /><polyline points="1208.80,-2530.51 1253.70,-2528.15 1256.56,-2525.60 1276.71,-2507.74 1306.32,-2481.31 1311.78,-2470.68 1413.83,-2381.33 1421.38,-2367.07 1493.13,-2303.75 1511.19,-2298.24 1567.01,-2249.37 1579.52,-2243.66 1663.70,-2172.25 1682.44,-2155.64 1692.78,-2139.18" fill="none" stroke="#bcbcbc" stroke-width="8" stroke-linecap="round" stroke-linejoin="round" /><polyline points="-1618.43,-1372.06 -1158.04,-1331.01" fill="none" stroke="#bcbcbc" stroke-width="8" stroke-linecap="round" stroke-linejoin="round" /><polyline points="-590.48,342.02 -576.21,311.65 -572.55,298.15 -552.55,224.44 -480.13,-30.89 -473.20,-55.34 -465.87,-82.15 -433.07,-202.11 -377.66,-404.69 -364.89,-451.39" fill="none" stroke="#bcbcbc" stroke-width="8" stroke-linecap="round" stroke-linejoin="round" /><polyline points="-182.50,-1114.60 -112.99,-1372.35 -260.36,-1423.90 -298.95,-1401.12 -316.54,-1387.74 -329.57,-1370.13 -338.73,-1346.87 -372.63,-1221.61 -345.29,-1207.69 -317.66,-1200.99 -256.57,-1185.09 -210.86,-1170.53 -182.50,-1114.60" fill="none" stroke="#bcbcbc" stroke-width="8" stroke-linecap="round" stroke-linejoin="round" /><polyline points="-372.63,-1221.61 -404.91,-1226.11 -1158.04,-1331.01" fill="none" stroke="#bcbcbc" stroke-width="8" stroke-linecap="round" stroke-linejoin="round" /><polyline points="852.30,-596.20 922.16,-580.94 1111.08,-520.90 1163.91,-504.20 1289.30,-467.98 1415.61,-431.57 1509.11,-404.55 1658.67,-361.38 1689.56,-352.45 1765.03,-327.15 1889.29,-294.06 1900.24,-292.01" fill="none" stroke="#bcbcbc" stroke-width="8" stroke-linecap="round" stroke-linejoin="round" /><polyline points="940.92,495.07 915.43,501.47 887.87,578.26 845.13,566.13 650.82,499.92 627.43,494.92 575.40,491.20 340.08,492.14 288.20,485.54 171.06,467.63 123.80,459.96 -211.35,405.91 -341.13,385.20 -588.64,342.34 -628.60,334.42 -1187.19,178.31 -1222.43,168.44 -1461.38,87.24 -1520.17,66.39 -1667.01,5.54 -1750.71,-26.11" fill="none" stroke="#bcbcbc" stroke-width="8" stroke-linecap="round" stroke-linejoin="round" /><polyline points="1452.84,-3634.38 1428.65,-3639.36 1105.82,-3601.20 990.40,-3591.58" fill="none" stroke="#bcbcbc" stroke-width="8" stroke-linecap="round" stroke-linejoin="round" /><polyline points="852.31,-596.20 863.62,-615.12 931.37,-789.09 1007.06,-1052.14 1026.37,-1108.80 1036.70,-1124.22 1109.78,-1358.77 1113.41,-1386.78 1116.18,-1405.08" fill="none" stroke="#bcbcbc" stroke-width="8" stroke-linecap="round" stroke-linejoin="round" /><polyline points="1185.01,-3137.22 1192.73,-3140.17 1203.18,-3148.47 1219.06,-3167.05 1425.21,-3462.78 1480.10,-3541.00" fill="none" stroke="#bcbcbc" stroke-width="8" stroke-linecap="round" stroke-linejoin="round" /><polyline points="2102.46,-2050.86 2106.68,-2063.00 2210.30,-2184.89 2217.90,-2188.94 2235.91,-2213.57 2296.19,-2282.80 2314.94,-2300.05" fill="none" stroke="#bcbcbc" stroke-width="8" stroke-linecap="round" stroke-linejoin="round" /><polyline points="2193.02,-1146.31 2191.58,-1162.62 2190.47,-1175.24 2185.01,-1199.36 2178.49,-1215.10 2170.34,-1256.44 2169.61,-1271.41 2164.09,-1304.87 2139.42,-1317.76 2119.71,-1310.22 2084.43,-1301.77 2056.50,-1297.41 2029.72,-1290.95 1992.74,-1282.52 1975.88,-1278.67" fill="none" stroke="#bcbcbc" stroke-width="8" stroke-linecap="round" stroke-linejoin="round" /><polyline points="-529.35,-1744.92 -453.99,-1921.55 -449.80,-1933.03" fill="none" stroke="#bcbcbc" stroke-width="8" stroke-linecap="round" stroke-linejoin="round" /><polyline points="1456.68,-2068.80 1493.01,-2082.87 1511.99,-2090.23 1526.68,-2105.09 1587.23,-2120.02 1607.55,-2114.84 1651.38,-2126.13 1684.82,-2134.74 1692.78,-2139.18 1725.20,-2147.12 1890.97,-2187.73 1928.54,-2198.96" fill="none" stroke="#bcbcbc" stroke-width="8" stroke-linecap="round" stroke-linejoin="round" /><polyline points="-72.34,-573.06 5.86,-601.46 32.02,-609.45 58.35,-617.49 106.95,-632.33 144.75,-637.77 273.87,-651.89 299.81,-653.31 415.33,-652.32 485.71,-651.72 512.17,-653.07 554.56,-648.78 567.82,-646.88 594.84,-643.02 676.46,-625.10" fill="none" stroke="#bcbcbc" stroke-width="8" stroke-linecap="round" stroke-linejoin="round" /><polyline points="300.24,-2894.25 287.28,-2938.04 239.17,-3100.70 180.72,-3286.18 168.66,-3319.29 156.40,-3350.32 140.92,-3395.04" fill="none" stroke="#bcbcbc" stroke-width="8" stroke-linecap="round" stroke-linejoin="round" /><polyline points="160.29,-271.53 170.57,-303.98 274.52,-631.74 273.87,-651.89" fill="none" stroke="#bcbcbc" stroke-width="8" stroke-linecap="round" stroke-linejoin="round" /><polyline points="299.81,-653.31 320.39,-929.27 322.45,-951.77 325.60,-977.96 325.65,-979.14 327.00,-1011.15 333.87,-1098.02 337.74,-1138.48 343.04,-1184.44 347.87,-1217.53 352.19,-1238.31 357.64,-1254.01 368.33,-1289.40 390.41,-1363.08 418.49,-1458.19 449.45,-1555.46 455.76,-1575.29 460.83,-1589.67" fill="none" stroke="#bcbcbc" stroke-width="8" stroke-linecap="round" stroke-linejoin="round" /><polyline points="-372.63,-1221.61 -378.10,-1197.15 -377.16,-1189.34 -343.62,-910.17 -340.07,-880.60 -341.61,-850.19 -350.40,-676.55 -354.07,-604.01 -355.96,-566.60 -359.33,-499.90 -361.09,-465.17 -364.89,-451.39" fill="none" stroke="#bcbcbc" stroke-width="8" stroke-linecap="round" stroke-linejoin="round" /><polyline points="-529.35,-1744.92 -651.28,-1781.16 -666.78,-1791.10 -742.66,-1813.20 -763.99,-1812.98 -859.34,-1841.70 -874.74,-1853.06 -961.51,-1879.36 -1067.97,-1908.37 -1068.49,-1908.42 -1086.15,-1909.93" fill="none" stroke="#bcbcbc" stroke-width="8" stroke-linecap="round" stroke-linejoin="round" /><polyline points="1692.78,-2139.18 1697.01,-2133.63 1714.69,-2107.28 1747.38,-2058.56 1778.15,-2027.74 1837.30,-1961.36 1827.30,-1900.00 1822.23,-1876.99 1815.17,-1867.26 1830.00,-1845.33 1852.94,-1798.12 1898.79,-1709.68 1921.37,-1666.13 1935.40,-1626.99 1941.74,-1608.82" fill="none" stroke="#bcbcbc" stroke-width="8" stroke-linecap="round" stroke-linejoin="round" /><polyline points="2001.59,-2012.82 1984.60,-2007.53 1872.62,-1972.70 1856.57,-1967.54 1837.30,-1961.35" fill="none" stroke="#bcbcbc" stroke-width="8" stroke-linecap="round" stroke-linejoin="round" /><polyline points="1196.94,-1800.74 1231.95,-1812.09 1486.11,-1941.85 1520.13,-1958.47 1639.93,-1993.07 1756.08,-2025.72 1778.15,-2027.74" fill="none" stroke="#bcbcbc" stroke-width="8" stroke-linecap="round" stroke-linejoin="round" /><polyline points="1224.63,-1640.10 1517.65,-1776.43 1529.98,-1784.59 1558.63,-1792.93 1753.88,-1849.73 1783.50,-1861.07 1815.17,-1867.26" fill="none" stroke="#bcbcbc" stroke-width="8" stroke-linecap="round" stroke-linejoin="round" /><polyline points="1164.84,-4498.32 1283.45,-4483.67 1295.37,-4482.19 1341.36,-4470.91" fill="none" stroke="#bcbcbc" stroke-width="8" stroke-linecap="round" stroke-linejoin="round" /><polyline points="2178.46,-3292.58 2199.49,-3296.97 2278.09,-3258.45 2288.44,-3248.21 2435.98,-2998.50 2439.86,-2968.22 2459.05,-2952.24 2456.00,-2941.20 2455.53,-2923.20 2458.20,-2898.04 2497.27,-2737.46 2500.73,-2626.25 2506.20,-2448.67 2515.39,-2209.65 2477.97,-2105.51 2453.86,-2042.01 2418.67,-1952.54 2408.48,-1926.66 2401.86,-1919.43 2391.23,-1850.19" fill="none" stroke="#bcbcbc" stroke-width="8" stroke-linecap="round" stroke-linejoin="round" /><polyline points="2451.23,-1428.38 2415.34,-1443.99 2325.68,-1506.56 2207.38,-1589.67 2142.31,-1642.28 2098.41,-1689.29" fill="none" stroke="#bcbcbc" stroke-width="8" stroke-linecap="round" stroke-linejoin="round" /><polyline points="999.44,-28.96 964.20,-40.13 907.02,-58.26 879.73,-66.91 847.68,-77.07 807.17,-89.91 770.55,-101.51 734.36,-113.00 572.94,-164.21 544.67,-173.18 509.56,-184.30 501.81,-186.75 409.49,-211.14 383.42,-217.44 350.75,-225.35 316.55,-233.64 193.34,-263.52 160.29,-271.53 124.79,-283.85 50.60,-309.61 22.63,-319.32 -2.38,-327.44 -118.55,-368.74 -133.18,-377.46 -140.21,-392.62" fill="none" stroke="#bcbcbc" stroke-width="8" stroke-linecap="round" stroke-linejoin="round" /><polyline points="1529.98,-1784.59 1521.43,-1815.26 1495.92,-1906.69 1486.11,-1941.85 1471.94,-1968.13 1470.62,-1973.01 1462.27,-2003.96 1472.00,-2017.67 1460.31,-2056.69 1456.68,-2068.80" fill="none" stroke="#bcbcbc" stroke-width="8" stroke-linecap="round" stroke-linejoin="round" /><polyline points="1487.34,-2903.45 1511.59,-2914.87 1644.04,-2987.89 1719.77,-3036.58 1773.17,-3073.01 1784.97,-3081.79 1827.95,-3111.66 1872.49,-3144.56 1900.69,-3165.08 1934.32,-3189.66 2051.18,-3242.39 2066.33,-3241.58 2088.48,-3252.06 2178.46,-3292.58" fill="none" stroke="#bcbcbc" stroke-width="8" stroke-linecap="round" stroke-linejoin="round" /><polyline points="19.09,-2405.66 38.20,-2397.91 50.83,-2394.03 287.72,-2321.28 323.90,-2310.17" fill="none" stroke="#bcbcbc" stroke-width="8" stroke-linecap="round" stroke-linejoin="round" /><polyline points="-1672.95,-1873.02 -1842.20,-1924.23" fill="none" stroke="#bcbcbc" stroke-width="8" stroke-linecap="round" stroke-linejoin="round" /><polyline points="1060.82,-4259.32 1102.78,-4206.17 1109.04,-4198.23 1130.23,-4171.41 1154.37,-4168.57 1203.99,-4162.75 1212.81,-4156.65" fill="none" stroke="#bcbcbc" stroke-width="8" stroke-linecap="round" stroke-linejoin="round" /><polyline points="2517.95,-1895.31 2451.46,-1882.91 2383.28,-1845.87 2320.08,-1810.69 2260.30,-1780.81 2188.07,-1741.58 2135.77,-1709.83 2032.41,-1654.42 1628.93,-1451.46 1524.33,-1405.39 1455.21,-1375.51 1420.96,-1364.30 1392.63,-1359.00 1346.25,-1356.20 1280.24,-1365.54 1115.55,-1405.08 881.75,-1459.55 574.16,-1552.32 460.83,-1589.67 275.28,-1646.95 97.83,-1705.47 -162.44,-1807.58 -292.58,-1863.61 -449.49,-1933.34 -709.76,-2075.91 -770.78,-2116.37 -925.19,-2213.49 -989.95,-2278.24 -1087.09,-2404.00 -1247.11,-2568.97 -1310.00,-2624.38" fill="none" stroke="#bcbcbc" stroke-width="8" stroke-linecap="round" stroke-linejoin="round" /><polyline points="1256.32,52.24 1259.05,37.03 1268.90,12.19 1361.19,-203.75 1396.06,-284.69 1437.15,-385.55 1447.16,-422.47" fill="none" stroke="#bcbcbc" stroke-width="8" stroke-linecap="round" stroke-linejoin="round" /><polyline points="-514.28,-859.44 -619.12,-910.17 -857.68,-1025.62 -1150.31,-1167.22 -1176.43,-1179.86" fill="none" stroke="#bcbcbc" stroke-width="8" stroke-linecap="round" stroke-linejoin="round" /><polyline points="1208.80,-2530.51 1235.28,-2557.61 1305.67,-2629.66 1361.53,-2690.65" fill="none" stroke="#bcbcbc" stroke-width="8" stroke-linecap="round" stroke-linejoin="round" /><polyline points="-823.78,-2369.99 -852.86,-2408.49 -989.15,-2588.91 -1183.69,-2746.32" fill="none" stroke="#bcbcbc" stroke-width="8" stroke-linecap="round" stroke-linejoin="round" /><polyline points="-1668.05,5.10 -1641.45,-57.98 -1556.86,-268.84 -1546.60,-296.51 -1535.23,-327.21 -1530.91,-338.29 -1529.77,-355.64 -1518.94,-519.57 -1515.83,-566.59" fill="none" stroke="#bcbcbc" stroke-width="8" stroke-linecap="round" stroke-linejoin="round" /><polyline points="-1725.76,-1689.89 -1672.95,-1873.02 -1603.28,-2114.56 -1594.66,-2144.46 -1585.07,-2178.42 -1563.60,-2254.47 -1561.34,-2262.46 -1555.20,-2286.91 -1545.39,-2314.55 -1543.01,-2321.25 -1530.63,-2351.94 -1506.32,-2405.57 -1499.05,-2420.96" fill="none" stroke="#bcbcbc" stroke-width="8" stroke-linecap="round" stroke-linejoin="round" /><polyline points="-1594.66,-2144.46 -1487.81,-2117.13 -1261.47,-2058.96 -1132.52,-2018.82 -1078.73,-2006.22" fill="none" stroke="#bcbcbc" stroke-width="8" stroke-linecap="round" stroke-linejoin="round" /><polyline points="604.77,-2975.38 608.40,-2997.62 612.06,-3020.70 627.73,-3097.91 666.90,-3277.65 699.06,-3438.42 704.94,-3471.78 712.92,-3517.06 712.94,-3517.10" fill="none" stroke="#bcbcbc" stroke-width="8" stroke-linecap="round" stroke-linejoin="round" /><polyline points="288.41,485.57 336.12,363.90 342.04,342.04 531.38,-138.51 544.67,-173.18 555.44,-202.59 668.57,-531.68 690.35,-550.69" fill="none" stroke="#bcbcbc" stroke-width="8" stroke-linecap="round" stroke-linejoin="round" /><polyline points="937.39,-3068.41 937.38,-3068.46 930.68,-3103.65 929.63,-3107.92 913.27,-3174.43 913.28,-3174.64 902.13,-3219.73 854.88,-3381.63 848.93,-3398.97 817.02,-3485.69 806.65,-3511.58 799.96,-3528.28 791.28,-3547.25 791.27,-3547.28 791.26,-3547.36 784.93,-3617.09 784.32,-3651.32" fill="none" stroke="#bcbcbc" stroke-width="8" stroke-linecap="round" stroke-linejoin="round" /><polyline points="866.58,-321.62 854.43,-308.50 836.32,-286.96 785.32,-143.15 770.55,-101.51" fill="none" stroke="#bcbcbc" stroke-width="8" stroke-linecap="round" stroke-linejoin="round" /><polyline points="19.09,-2405.66 26.06,-2424.54 27.63,-2428.92 60.76,-2521.43 73.18,-2560.40 174.70,-2858.87" fill="none" stroke="#bcbcbc" stroke-width="8" stroke-linecap="round" stroke-linejoin="round" /><polyline points="544.25,-1987.21 554.61,-2014.72 582.66,-2089.23 594.52,-2120.73 602.55,-2142.05 625.06,-2201.84 639.93,-2241.34 641.93,-2246.65 677.96,-2342.33 693.02,-2337.66 701.18,-2359.88 715.61,-2399.18 712.85,-2417.03 751.18,-2521.35 755.11,-2532.07 762.38,-2538.75 768.49,-2544.36 806.92,-2649.41 812.48,-2678.17 867.62,-2831.36 880.67,-2841.56 907.20,-2916.60 902.48,-2928.12 925.72,-2998.21 913.66,-3060.78" fill="none" stroke="#bcbcbc" stroke-width="8" stroke-linecap="round" stroke-linejoin="round" /><polyline points="1530.65,-4836.68 1515.20,-4862.02 1434.01,-4995.20" fill="none" stroke="#bcbcbc" stroke-width="8" stroke-linecap="round" stroke-linejoin="round" /><polyline points="1784.97,-3081.79 2157.57,-2842.22 2157.67,-2842.06 2157.67,-2842.02 2226.58,-2833.08" fill="none" stroke="#bcbcbc" stroke-width="8" stroke-linecap="round" stroke-linejoin="round" /><polyline points="1635.55,-3582.23 2031.98,-3383.27 2043.94,-3374.35 2043.14,-3309.21 2051.18,-3242.39" fill="none" stroke="#bcbcbc" stroke-width="8" stroke-linecap="round" stroke-linejoin="round" /><polyline points="879.73,-66.91 865.47,-23.41 807.71,152.73 709.46,449.37 702.49,470.41 695.42,491.73 693.45,514.44" fill="none" stroke="#bcbcbc" stroke-width="8" stroke-linecap="round" stroke-linejoin="round" /><polyline points="1995.75,-1136.91 1998.12,-1159.01 1998.63,-1179.63 1998.47,-1180.35 1984.42,-1241.06 1978.66,-1266.43 1975.88,-1278.67 1973.04,-1291.18 1957.62,-1359.11 1927.49,-1494.85 1905.60,-1576.46 1902.50,-1589.07" fill="none" stroke="#bcbcbc" stroke-width="8" stroke-linecap="round" stroke-linejoin="round" /><polyline points="27.54,105.71 37.37,77.78 147.76,-235.92 160.29,-271.53" fill="none" stroke="#bcbcbc" stroke-width="8" stroke-linecap="round" stroke-linejoin="round" /><polyline points="2506.20,-2448.67 2473.72,-2457.83 2253.16,-2796.24 2226.58,-2833.08" fill="none" stroke="#bcbcbc" stroke-width="8" stroke-linecap="round" stroke-linejoin="round" /><polyline points="-1119.64,-1636.70 -315.79,-1444.14 -260.36,-1423.90" fill="none" stroke="#bcbcbc" stroke-width="8" stroke-linecap="round" stroke-linejoin="round" /><polyline points="1415.72,-4645.43 1728.84,-4529.46 1772.93,-4536.98" fill="none" stroke="#bcbcbc" stroke-width="8" stroke-linecap="round" stroke-linejoin="round" />
    <polyline points="177.96,292.00 209.22,301.58 310.36,332.39 342.04,342.04" fill="none" stroke="#ffffff" stroke-width="16" stroke-linecap="round" stroke-linejoin="round" />
    <polyline points="177.96,292.00 209.22,301.58 310.36,332.39 342.04,342.04" fill="none" stroke="#111111" stroke-width="9" stroke-linecap="round" stroke-linejoin="round" />
    
            <g transform="translate(177.96,292.00)">
              <circle r="19" fill="#ffffff" stroke="#111111" stroke-width="4" />
              <text text-anchor="middle" dominant-baseline="central" font-family="Helvetica, Arial, sans-serif"
                font-size="18" font-weight="700" fill="#111111">1</text>
            </g>
            
            <g transform="translate(342.04,342.04)">
              <circle r="19" fill="#ffffff" stroke="#111111" stroke-width="4" />
              <text text-anchor="middle" dominant-baseline="central" font-family="Helvetica, Arial, sans-serif"
                font-size="18" font-weight="700" fill="#111111">2</text>
            </g>
            
  </g>
</svg>
