<svg xmlns="http://www.w3.org/2000/svg" width="520" height="520" viewBox="0 0 520 520">
  <rect width="100%" height="100%" fill="#ffffff" />
  <g>
    <polyline points="266.63,404.26 267.77,410.34 275.14,461.92 274.02,474.81" fill="none" stroke="#bcbcbc" stroke-width="8" stroke-linecap="round" stroke-linejoin="round" /><polyline points="116.80,834.06 118.58,828.58 128.02,799.53 129.14,796.11 130.26,792.52 154.01,716.79 155.92,710.70 151.54,699.92" fill="none" stroke="#bcbcbc" stroke-width="8" stroke-linecap="round" stroke-linejoin="round" /><polyline points="-47.22,766.70 -47.60,762.35 -39.84,718.87 -38.75,713.43 -37.94,710.58 -35.80,699.55 -33.40,686.05 -30.78,674.17 -28.19,662.31 -26.55,658.96 -25.48,656.91" fill="none" stroke="#bcbcbc" stroke-width="8" stroke-linecap="round" stroke-linejoin="round" /><polyline points="-2.16,459.97 -4.00,454.34 -23.08,396.15 -24.01,393.71" fill="none" stroke="#bcbcbc" stroke-width="8" stroke-linecap="round" stroke-linejoin="round" /><polyline points="-100.04,972.11 -99.48,966.55 -99.24,964.01 -97.17,941.03 -94.89,920.80 -94.36,916.08 -93.87,910.41 -93.82,909.93 -92.53,898.67 -91.42,887.21 -90.19,876.16 -89.37,867.56 -89.02,862.25 -88.72,857.34 -88.18,851.82" fill="none" stroke="#bcbcbc" stroke-width="8" stroke-linecap="round" stroke-linejoin="round" /><polyline points="163.55,847.56 164.91,843.29 174.48,813.19 175.57,809.77 177.12,804.90 178.22,801.41 186.70,764.86" fill="none" stroke="#bcbcbc" stroke-width="8" stroke-linecap="round" stroke-linejoin="round" /><polyline points="126.34,252.24 129.87,252.78 227.29,267.75" fill="none" stroke="#bcbcbc" stroke-width="8" stroke-linecap="round" stroke-linejoin="round" /><polyline points="-123.74,840.47 -133.88,839.99 -140.06,839.71 -143.42,839.55 -146.37,839.41 -169.33,838.35 -201.27,836.86 -216.49,834.70 -221.58,833.98 -226.00,833.20 -255.94,827.91 -260.13,827.18 -261.06,827.02 -266.22,826.13 -270.20,825.45 -295.57,823.21 -300.40,822.78 -302.17,822.62 -307.66,822.24 -318.40,821.50" fill="none" stroke="#bcbcbc" stroke-width="8" stroke-linecap="round" stroke-linejoin="round" /><polyline points="23.56,811.05 25.53,805.46 43.23,756.39 64.52,694.50 65.88,690.62 66.83,687.91 67.60,685.68" fill="none" stroke="#bcbcbc" stroke-width="8" stroke-linecap="round" stroke-linejoin="round" /><polyline points="-302.17,822.62 -302.62,819.47 -302.73,816.04 -302.06,809.14 -300.52,796.54 -299.49,792.31 -297.82,777.03 -297.52,773.62 -297.03,769.24 -296.67,765.99 -295.98,762.31 -294.71,752.39 -293.83,744.80 -292.54,741.70" fill="none" stroke="#bcbcbc" stroke-width="8" stroke-linecap="round" stroke-linejoin="round" /><polyline points="-320.28,737.82 -296.68,741.12 -292.54,741.70 -289.98,742.11 -279.40,743.80 -255.02,747.68 -250.83,748.38" fill="none" stroke="#bcbcbc" stroke-width="8" stroke-linecap="round" stroke-linejoin="round" /><polyline points="114.15,428.11 114.30,430.26 114.62,432.43 115.39,434.10 116.82,435.95 119.48,438.37 125.77,442.20 174.30,472.65 204.19,512.73 226.77,568.46 228.25,572.14" fill="none" stroke="#bcbcbc" stroke-width="8" stroke-linecap="round" stroke-linejoin="round" /><polyline points="106.38,590.72 107.38,592.39 107.64,592.82 108.48,597.02 114.17,624.56 115.98,633.30 117.27,639.53 119.29,652.15 120.23,657.97 120.88,661.52 121.59,664.72 122.44,666.59 123.69,668.76 124.35,669.78 136.96,687.84 143.79,698.58 145.56,701.15" fill="none" stroke="#bcbcbc" stroke-width="8" stroke-linecap="round" stroke-linejoin="round" /><polyline points="-255.65,935.55 -254.98,931.41 -254.36,928.43 -254.19,928.03 -245.80,908.07 -240.45,895.10 -238.83,890.99 -237.10,886.63 -235.24,882.89 -234.93,882.16 -232.37,875.97 -230.40,870.50 -228.70,865.47 -227.62,861.92 -226.41,857.54 -225.02,851.66 -223.96,846.89 -222.70,840.23 -222.43,838.74 -221.58,833.98" fill="none" stroke="#bcbcbc" stroke-width="8" stroke-linecap="round" stroke-linejoin="round" /><polyline points="151.02,378.13 177.78,396.84 181.38,397.60 184.02,400.62" fill="none" stroke="#bcbcbc" stroke-width="8" stroke-linecap="round" stroke-linejoin="round" /><polyline points="38.63,550.87 42.17,552.23 57.53,557.25 93.15,570.92 95.15,572.91 96.09,574.40" fill="none" stroke="#bcbcbc" stroke-width="8" stroke-linecap="round" stroke-linejoin="round" /><polyline points="105.01,901.94 107.44,895.62 119.41,863.13 127.88,838.58 129.64,837.77" fill="none" stroke="#bcbcbc" stroke-width="8" stroke-linecap="round" stroke-linejoin="round" /><polyline points="-64.26,860.74 -62.37,856.56 -62.19,856.15 -58.95,845.30 -53.66,827.45 -52.30,822.88 -51.25,819.33 -51.11,817.27 -51.32,812.69" fill="none" stroke="#bcbcbc" stroke-width="8" stroke-linecap="round" stroke-linejoin="round" /><polyline points="155.85,592.15 152.81,592.77 145.93,591.55 144.86,588.71 132.94,584.17 130.12,584.90 119.37,580.95 117.77,582.07" fill="none" stroke="#bcbcbc" stroke-width="8" stroke-linecap="round" stroke-linejoin="round" /><polyline points="138.15,223.36 143.55,224.68 146.54,225.20 217.60,237.52" fill="none" stroke="#bcbcbc" stroke-width="8" stroke-linecap="round" stroke-linejoin="round" /><polyline points="82.92,882.16 85.87,873.82 91.62,857.62 95.33,850.72 100.67,835.77 102.80,829.79" fill="none" stroke="#bcbcbc" stroke-width="8" stroke-linecap="round" stroke-linejoin="round" /><polyline points="-306.44,558.66 -311.59,558.43 -312.88,559.99 -321.84,570.89 -353.19,607.10 -357.60,612.19" fill="none" stroke="#bcbcbc" stroke-width="8" stroke-linecap="round" stroke-linejoin="round" /><polyline points="-31.51,589.67 -33.78,594.71 -34.06,595.32 -41.95,615.90 -49.91,638.56 -52.03,644.61 -53.23,647.73" fill="none" stroke="#bcbcbc" stroke-width="8" stroke-linecap="round" stroke-linejoin="round" /><polyline points="84.28,358.36 86.79,361.76 88.58,366.44 91.36,373.16 95.83,383.72 99.80,393.20 104.34,403.61 107.71,411.64 108.21,412.79 108.24,412.86 110.96,419.21 111.77,421.01 112.54,422.73 113.36,424.34 113.97,425.97 114.15,428.11" fill="none" stroke="#bcbcbc" stroke-width="8" stroke-linecap="round" stroke-linejoin="round" /><polyline points="-107.70,691.16 -106.39,690.44 -104.55,688.98 -103.63,687.09 -91.44,640.84 -91.07,638.23 -89.58,633.46" fill="none" stroke="#bcbcbc" stroke-width="8" stroke-linecap="round" stroke-linejoin="round" /><polyline points="318.74,618.78 320.47,624.27 321.69,630.04 319.32,652.03 316.58,668.56 315.08,674.20 314.94,674.71 313.63,677.76 311.85,680.98 307.67,686.26 309.70,696.58 303.16,718.73 299.55,730.96 292.17,750.99 281.36,775.37 268.15,798.73 264.03,806.32 256.58,818.80 226.80,861.07 220.27,869.86 195.00,902.89 180.50,919.39 160.21,940.02 158.33,940.21 153.75,943.96" fill="none" stroke="#bcbcbc" stroke-width="8" stroke-linecap="round" stroke-linejoin="round" /><polyline points="-48.73,980.38 -40.42,954.60 -39.06,950.34 -37.21,947.66 -33.24,935.74 -31.95,931.69 -15.55,880.34 -13.90,875.17 -12.54,870.63 6.81,809.71" fill="none" stroke="#bcbcbc" stroke-width="8" stroke-linecap="round" stroke-linejoin="round" /><polyline points="146.01,500.83 153.20,492.98 155.32,490.42 169.84,469.85" fill="none" stroke="#bcbcbc" stroke-width="8" stroke-linecap="round" stroke-linejoin="round" /><polyline points="2.37,503.94 22.16,510.83 23.26,512.61 28.88,514.49 32.21,515.63 48.16,521.02" fill="none" stroke="#bcbcbc" stroke-width="8" stroke-linecap="round" stroke-linejoin="round" /><polyline points="174.87,366.97 184.02,400.62 194.62,440.26 196.23,443.57 196.48,447.34 203.67,460.76 223.06,496.92 227.30,503.18 228.53,505.01 257.50,559.18 270.82,571.29 272.69,573.70 275.32,575.96 300.60,597.58 302.32,599.04 306.86,601.45" fill="none" stroke="#bcbcbc" stroke-width="8" stroke-linecap="round" stroke-linejoin="round" /><polyline points="76.54,985.86 139.60,949.23 150.82,943.49 153.75,943.96" fill="none" stroke="#bcbcbc" stroke-width="8" stroke-linecap="round" stroke-linejoin="round" /><polyline points="144.91,933.45 148.82,928.80 183.94,858.71 186.27,854.12 188.21,849.57 199.55,821.51 202.93,813.06 212.71,783.46 219.05,745.41 219.80,739.87" fill="none" stroke="#bcbcbc" stroke-width="8" stroke-linecap="round" stroke-linejoin="round" /><polyline points="117.80,521.26 117.19,521.89 116.34,524.84 116.26,525.14 112.44,539.81 113.44,543.65 112.61,547.08 111.52,551.58 108.74,554.81 105.57,567.63 101.84,570.45 97.86,573.18 96.09,574.40" fill="none" stroke="#bcbcbc" stroke-width="8" stroke-linecap="round" stroke-linejoin="round" /><polyline points="-31.51,589.67 -29.89,585.52 -20.15,560.54 -18.02,555.09 -16.27,550.60 -3.82,518.70 1.78,505.36 2.37,503.94 6.73,493.41 16.50,469.14 20.08,458.80 20.88,456.43 21.95,453.75" fill="none" stroke="#bcbcbc" stroke-width="8" stroke-linecap="round" stroke-linejoin="round" /><polyline points="77.52,438.24 79.41,443.85 141.24,496.68 174.99,526.04 225.39,569.85 229.78,573.37 231.75,574.61 240.50,582.55 252.18,592.51 278.67,615.10 287.23,622.46 292.90,629.25" fill="none" stroke="#bcbcbc" stroke-width="8" stroke-linecap="round" stroke-linejoin="round" /><polyline points="179.76,347.22 182.90,345.21 201.48,337.48 205.30,333.46" fill="none" stroke="#bcbcbc" stroke-width="8" stroke-linecap="round" stroke-linejoin="round" /><polyline points="201.22,817.33 175.57,809.77 129.14,796.11" fill="none" stroke="#bcbcbc" stroke-width="8" stroke-linecap="round" stroke-linejoin="round" /><polyline points="118.42,271.60 121.92,274.02 236.10,299.43" fill="none" stroke="#bcbcbc" stroke-width="8" stroke-linecap="round" stroke-linejoin="round" /><polyline points="259.46,647.59 253.56,634.46 240.46,603.22 239.48,600.74 237.24,595.04 228.80,573.56 228.27,572.16" fill="none" stroke="#bcbcbc" stroke-width="8" stroke-linecap="round" stroke-linejoin="round" /><polyline points="84.28,358.36 77.94,356.55 73.28,355.17 63.81,352.35 59.00,350.98 56.25,350.22 52.65,349.19" fill="none" stroke="#bcbcbc" stroke-width="8" stroke-linecap="round" stroke-linejoin="round" /><polyline points="-81.01,530.17 -81.33,529.12 -81.62,528.38 -82.93,525.14 -87.99,513.33 -92.80,501.35 -93.84,498.52 -95.04,495.26 -95.89,492.59 -97.31,488.59 -97.46,488.17 -102.06,476.82 -110.51,455.50 -112.41,454.42 -113.76,450.96 -116.45,441.60 -121.07,429.99 -122.06,427.36" fill="none" stroke="#bcbcbc" stroke-width="8" stroke-linecap="round" stroke-linejoin="round" /><polyline points="-40.42,954.60 -35.62,956.07 -20.10,960.80 -15.24,962.28" fill="none" stroke="#bcbcbc" stroke-width="8" stroke-linecap="round" stroke-linejoin="round" /><polyline points="114.15,428.11 112.44,428.77 109.28,429.64 108.97,429.73 95.78,433.10 80.62,437.37 77.52,438.24 76.14,438.68 72.50,439.85 69.39,440.72 55.79,444.50 33.43,450.85 25.09,452.96 21.95,453.75 7.05,457.41 -2.16,459.97 -21.65,465.42 -40.92,470.85 -43.15,471.47 -59.26,475.94 -66.68,478.00 -70.44,479.77 -77.54,483.29 -91.64,490.45 -92.62,490.95 -95.89,492.59 -97.89,493.59 -100.68,495.05 -110.59,500.24 -128.64,510.37 -143.72,518.28 -145.88,519.41 -148.76,519.59 -150.49,520.51 -150.83,520.69 -167.19,529.66 -170.62,529.64 -174.55,531.70 -175.93,532.42 -177.08,533.02 -179.82,534.45 -181.97,539.37 -191.23,544.33 -194.18,545.91 -197.36,547.64 -210.24,554.65 -216.90,558.28 -220.26,559.24" fill="none" stroke="#bcbcbc" stroke-width="8" stroke-linecap="round" stroke-linejoin="round" /><polyline points="299.55,730.96 292.68,731.59 271.20,733.56 270.23,733.65 268.87,733.78 266.65,733.98 245.83,735.89 238.59,735.22 230.16,737.33 223.40,738.99 219.80,739.87 210.86,740.21 203.13,739.82 199.18,739.40 195.83,738.38 193.35,737.01 184.15,730.50 161.78,715.14 159.67,713.71 157.52,712.25 155.92,710.70" fill="none" stroke="#bcbcbc" stroke-width="8" stroke-linecap="round" stroke-linejoin="round" /><polyline points="-207.09,471.54 -198.97,487.44 -197.74,491.98 -190.91,505.03 -188.08,508.76 -176.66,531.00 -175.93,532.42" fill="none" stroke="#bcbcbc" stroke-width="8" stroke-linecap="round" stroke-linejoin="round" /><polyline points="41.65,612.88 40.43,616.22 40.09,617.26 38.51,622.06 28.47,650.08 23.48,664.00 23.31,664.47 21.31,668.80 20.16,671.37" fill="none" stroke="#bcbcbc" stroke-width="8" stroke-linecap="round" stroke-linejoin="round" /><polyline points="174.87,366.97 173.76,364.59 170.83,364.20 161.37,366.37 159.44,366.12 157.94,364.10 155.26,351.79 169.76,349.54 176.48,347.56 179.76,347.22 183.30,359.79" fill="none" stroke="#bcbcbc" stroke-width="8" stroke-linecap="round" stroke-linejoin="round" /><polyline points="227.30,503.18 231.04,501.08 249.81,489.77 254.82,486.78 263.60,481.55 278.05,472.20 281.42,469.78 306.75,454.06" fill="none" stroke="#bcbcbc" stroke-width="8" stroke-linecap="round" stroke-linejoin="round" /><polyline points="315.87,577.43 309.46,575.52 305.74,572.47 291.50,560.15 291.02,559.72 287.58,556.64 285.56,553.06 249.81,489.77" fill="none" stroke="#bcbcbc" stroke-width="8" stroke-linecap="round" stroke-linejoin="round" /><polyline points="-87.60,572.41 -31.51,589.67 -26.93,591.13 14.93,604.40 15.80,604.67 22.07,606.66 25.15,607.64 29.16,608.74 37.42,611.54 41.65,612.88 45.45,614.08 76.60,623.96 109.49,634.30 112.21,635.15 115.98,633.30" fill="none" stroke="#bcbcbc" stroke-width="8" stroke-linecap="round" stroke-linejoin="round" /><polyline points="77.33,295.45 101.63,273.12 105.74,269.34" fill="none" stroke="#bcbcbc" stroke-width="8" stroke-linecap="round" stroke-linejoin="round" /><polyline points="-329.55,655.75 -240.39,665.31" fill="none" stroke="#bcbcbc" stroke-width="8" stroke-linecap="round" stroke-linejoin="round" /><polyline points="-60.59,406.86 -41.85,400.16 -22.52,393.17 -10.51,388.50 26.16,375.17 36.80,371.48 39.02,370.71 41.69,369.80 44.68,368.77 45.05,368.64 51.09,366.21 53.71,365.16" fill="none" stroke="#bcbcbc" stroke-width="8" stroke-linecap="round" stroke-linejoin="round" /><polyline points="65.27,860.39 82.92,882.16 93.72,893.03 98.39,896.40 105.01,901.94 111.23,907.17 116.57,912.38 116.70,915.03" fill="none" stroke="#bcbcbc" stroke-width="8" stroke-linecap="round" stroke-linejoin="round" /><polyline points="84.28,358.36 91.19,341.03 102.38,312.49 118.42,271.60 126.34,252.24 138.15,223.36 147.83,199.70 149.56,196.56 158.07,182.64 158.62,181.74 161.74,175.61 167.20,167.20 170.25,162.50 174.57,155.86" fill="none" stroke="#bcbcbc" stroke-width="8" stroke-linecap="round" stroke-linejoin="round" /><polyline points="-78.84,821.79 -79.97,822.69 -80.72,823.77 -82.25,828.27 -83.30,831.52 -88.17,846.08 -88.84,848.19 -89.26,849.49 -93.73,848.21 -104.62,844.56 -115.41,840.94 -123.74,840.47" fill="none" stroke="#bcbcbc" stroke-width="8" stroke-linecap="round" stroke-linejoin="round" /><polyline points="-292.04,923.16 -274.26,877.24 -272.28,872.24 -270.51,867.43 -268.36,861.61 -265.74,852.46 -262.99,841.09 -261.87,832.94 -261.06,827.02 -259.90,822.65 -255.72,789.81 -250.83,748.38 -248.30,728.63 -245.48,705.42 -240.39,665.31 -239.59,658.49 -234.45,616.54 -234.44,614.20 -233.31,601.76 -230.03,575.46 -229.21,570.88 -228.35,568.31 -227.01,565.47 -225.71,563.27 -222.83,560.16 -220.25,559.28" fill="none" stroke="#bcbcbc" stroke-width="8" stroke-linecap="round" stroke-linejoin="round" /><polyline points="96.09,574.40 97.06,575.94 100.32,581.03 105.20,588.85 106.38,590.72 108.32,589.24 117.77,582.07" fill="none" stroke="#bcbcbc" stroke-width="8" stroke-linecap="round" stroke-linejoin="round" /><polyline points="102.38,312.49 198.44,329.86 208.53,335.17 246.17,353.83 249.48,352.80" fill="none" stroke="#bcbcbc" stroke-width="8" stroke-linecap="round" stroke-linejoin="round" /><polyline points="-81.01,530.17 -82.71,532.65 -98.04,540.13 -109.29,554.44 -121.44,561.96 -129.75,568.24 -137.67,574.70 -141.74,578.40 -148.91,587.51 -156.94,599.01 -158.26,601.15" fill="none" stroke="#bcbcbc" stroke-width="8" stroke-linecap="round" stroke-linejoin="round" /><polyline points="-64.81,540.43 -65.47,541.91 -66.92,544.03 -69.67,547.41 -85.86,567.86 -94.42,590.93 -137.65,574.68" fill="none" stroke="#bcbcbc" stroke-width="8" stroke-linecap="round" stroke-linejoin="round" /><polyline points="-129.75,568.24 -131.42,563.17 -138.65,541.26 -141.46,536.93 -146.16,522.83 -146.57,521.61 -145.88,519.41 -147.00,515.81 -169.61,443.63" fill="none" stroke="#bcbcbc" stroke-width="8" stroke-linecap="round" stroke-linejoin="round" /><polyline points="135.11,174.39 152.98,174.86 153.81,174.88 157.23,174.98 161.74,175.61" fill="none" stroke="#bcbcbc" stroke-width="8" stroke-linecap="round" stroke-linejoin="round" /><polyline points="43.23,756.39 37.13,756.32 -14.52,763.25 -18.24,763.64 -22.50,764.09 -47.22,766.70 -80.51,770.22 -98.17,772.08 -107.93,773.11 -115.86,774.07 -119.93,774.57 -124.52,775.13 -146.67,777.82 -151.98,778.46 -168.34,780.25 -255.72,789.81" fill="none" stroke="#bcbcbc" stroke-width="8" stroke-linecap="round" stroke-linejoin="round" /><polyline points="-33.24,935.74 -37.82,934.27 -59.19,927.39 -63.51,926.00 -67.26,924.79 -89.90,917.51 -94.36,916.08 -100.27,914.18 -136.31,902.58 -140.37,901.27" fill="none" stroke="#bcbcbc" stroke-width="8" stroke-linecap="round" stroke-linejoin="round" /><polyline points="56.12,503.01 68.55,506.88 114.01,520.92 114.43,521.05 117.80,521.26" fill="none" stroke="#bcbcbc" stroke-width="8" stroke-linecap="round" stroke-linejoin="round" /><polyline points="184.02,400.62 245.86,401.71" fill="none" stroke="#bcbcbc" stroke-width="8" stroke-linecap="round" stroke-linejoin="round" /><polyline points="153.75,943.96 144.91,933.45 141.20,929.14 138.01,926.16 133.77,922.99 125.09,917.79 116.70,915.03 99.63,909.75 85.67,905.32 93.72,893.03" fill="none" stroke="#bcbcbc" stroke-width="8" stroke-linecap="round" stroke-linejoin="round" /><polyline points="65.27,860.39 52.96,845.19 50.62,842.30 38.22,825.22 35.42,820.01 36.09,813.80 39.83,813.76 49.05,815.53 63.08,818.23" fill="none" stroke="#bcbcbc" stroke-width="8" stroke-linecap="round" stroke-linejoin="round" /><polyline points="-95.75,738.64 -93.48,743.53 -80.51,770.22 -61.24,809.90 -58.78,814.96" fill="none" stroke="#bcbcbc" stroke-width="8" stroke-linecap="round" stroke-linejoin="round" /><polyline points="-303.38,859.53 -298.74,861.43 -277.02,870.31 -272.28,872.24 -267.30,874.28 -241.73,884.74 -237.10,886.63" fill="none" stroke="#bcbcbc" stroke-width="8" stroke-linecap="round" stroke-linejoin="round" /><polyline points="-85.08,699.07 -39.84,718.87" fill="none" stroke="#bcbcbc" stroke-width="8" stroke-linecap="round" stroke-linejoin="round" /><polyline points="117.80,521.26 124.69,521.62 125.13,522.02 128.22,524.76 132.77,528.82 133.61,530.45 149.27,544.17 150.43,546.35 161.44,556.08 164.21,556.92 172.78,564.43 174.70,565.30 187.62,576.26 190.50,578.82 192.09,581.34" fill="none" stroke="#bcbcbc" stroke-width="8" stroke-linecap="round" stroke-linejoin="round" /><polyline points="-316.15,699.12 -245.48,705.42" fill="none" stroke="#bcbcbc" stroke-width="8" stroke-linecap="round" stroke-linejoin="round" /><polyline points="-158.37,962.28 -156.18,957.62 -155.62,955.54 -152.55,944.23 -141.43,905.02 -140.37,901.27 -139.24,897.16 -134.21,878.74 -125.70,847.64 -123.74,840.47" fill="none" stroke="#bcbcbc" stroke-width="8" stroke-linecap="round" stroke-linejoin="round" /><polyline points="-95.75,738.64 -85.08,699.07 -107.70,691.16 -113.62,694.66 -116.32,696.71 -118.32,699.41 -119.73,702.98 -124.93,722.22 -120.73,724.35 -116.49,725.38 -107.12,727.82 -100.10,730.06 -95.75,738.64" fill="none" stroke="#bcbcbc" stroke-width="8" stroke-linecap="round" stroke-linejoin="round" /><polyline points="-124.93,722.22 -129.88,721.52 -245.48,705.42" fill="none" stroke="#bcbcbc" stroke-width="8" stroke-linecap="round" stroke-linejoin="round" /><polyline points="63.08,818.23 73.80,820.58 102.80,829.79 110.91,832.36 130.16,837.92 149.54,843.51 163.89,847.66 186.85,854.29 191.59,855.66 203.18,859.54 222.25,864.62 223.93,864.94" fill="none" stroke="#bcbcbc" stroke-width="8" stroke-linecap="round" stroke-linejoin="round" /><polyline points="76.68,985.78 72.77,986.76 68.54,998.55 61.98,996.68 32.16,986.52 28.57,985.75 20.58,985.18 -15.54,985.33 -23.50,984.31 -41.48,981.56 -48.73,980.38 -100.18,972.09 -120.10,968.91 -158.09,962.33 -164.22,961.11 -249.96,937.14 -255.36,935.63 -292.04,923.16 -301.06,919.96 -323.60,910.62 -336.45,905.76" fill="none" stroke="#bcbcbc" stroke-width="8" stroke-linecap="round" stroke-linejoin="round" /><polyline points="155.26,351.79 151.55,351.02 101.99,356.88 84.28,358.36" fill="none" stroke="#bcbcbc" stroke-width="8" stroke-linecap="round" stroke-linejoin="round" /><polyline points="63.08,818.23 64.82,815.33 75.22,788.62 86.84,748.23 89.80,739.54 91.38,737.17 102.60,701.16 103.16,696.86 103.58,694.05" fill="none" stroke="#bcbcbc" stroke-width="8" stroke-linecap="round" stroke-linejoin="round" /><polyline points="114.15,428.11 115.33,427.66 116.94,426.39 119.38,423.54 151.02,378.13 159.44,366.12" fill="none" stroke="#bcbcbc" stroke-width="8" stroke-linecap="round" stroke-linejoin="round" /><polyline points="254.97,594.90 255.61,593.04 271.52,574.32 272.69,573.70 275.45,569.92 284.70,559.29 287.58,556.64" fill="none" stroke="#bcbcbc" stroke-width="8" stroke-linecap="round" stroke-linejoin="round" /><polyline points="268.87,733.78 268.65,731.27 268.47,729.33 267.64,725.63 266.64,723.21 265.39,716.87 265.27,714.57 264.43,709.43 260.64,707.45 257.61,708.61 252.20,709.91 247.91,710.58 243.80,711.57 238.13,712.86 235.54,713.45" fill="none" stroke="#bcbcbc" stroke-width="8" stroke-linecap="round" stroke-linejoin="round" /><polyline points="-148.98,641.87 -137.42,614.76 -136.77,612.99" fill="none" stroke="#bcbcbc" stroke-width="8" stroke-linecap="round" stroke-linejoin="round" /><polyline points="155.85,592.15 161.42,589.99 164.34,588.86 166.59,586.58 175.89,584.28 179.00,585.08 185.73,583.35 190.86,582.02 192.09,581.34 197.06,580.12 222.50,573.89 228.27,572.16" fill="none" stroke="#bcbcbc" stroke-width="8" stroke-linecap="round" stroke-linejoin="round" /><polyline points="-78.84,821.79 -66.84,817.43 -62.82,816.20 -58.78,814.96 -51.32,812.69 -45.52,811.85 -25.70,809.68 -21.72,809.47 -3.99,809.62 6.81,809.71 10.88,809.50 17.38,810.16 19.42,810.45 23.56,811.05 36.09,813.80" fill="none" stroke="#bcbcbc" stroke-width="8" stroke-linecap="round" stroke-linejoin="round" /><polyline points="-21.65,465.42 -23.64,458.69 -31.03,433.72 -40.00,405.24 -41.85,400.16 -43.73,395.40 -46.11,388.53" fill="none" stroke="#bcbcbc" stroke-width="8" stroke-linecap="round" stroke-linejoin="round" /><polyline points="-43.13,868.08 -41.56,863.10 -25.60,812.78 -25.70,809.68" fill="none" stroke="#bcbcbc" stroke-width="8" stroke-linecap="round" stroke-linejoin="round" /><polyline points="-21.72,809.47 -18.56,767.10 -18.24,763.64 -17.76,759.62 -17.75,759.44 -17.54,754.53 -16.49,741.19 -15.90,734.98 -15.08,727.92 -14.34,722.84 -13.68,719.65 -12.84,717.24 -11.20,711.81 -7.81,700.50 -3.50,685.89 1.25,670.96 2.22,667.92 3.00,665.71" fill="none" stroke="#bcbcbc" stroke-width="8" stroke-linecap="round" stroke-linejoin="round" /><polyline points="-124.93,722.22 -125.77,725.97 -125.63,727.17 -120.48,770.03 -119.93,774.57 -120.17,779.24 -121.52,805.90 -122.08,817.03 -122.37,822.78 -122.89,833.02 -123.16,838.35 -123.74,840.47" fill="none" stroke="#bcbcbc" stroke-width="8" stroke-linecap="round" stroke-linejoin="round" /><polyline points="-148.98,641.87 -167.70,636.31 -170.08,634.78 -181.73,631.39 -185.00,631.42 -199.63,627.01 -202.00,625.27 -215.32,621.23 -231.66,616.78 -231.74,616.77 -234.45,616.54" fill="none" stroke="#bcbcbc" stroke-width="8" stroke-linecap="round" stroke-linejoin="round" /><polyline points="192.09,581.34 192.74,582.19 195.45,586.24 200.47,593.72 205.19,598.45 214.27,608.64 212.73,618.06 211.95,621.60 210.87,623.09 213.15,626.46 216.67,633.70 223.71,647.28 227.17,653.97 229.33,659.98 230.30,662.77" fill="none" stroke="#bcbcbc" stroke-width="8" stroke-linecap="round" stroke-linejoin="round" /><polyline points="239.48,600.74 236.88,601.55 219.69,606.90 217.22,607.69 214.27,608.64" fill="none" stroke="#bcbcbc" stroke-width="8" stroke-linecap="round" stroke-linejoin="round" /><polyline points="115.98,633.30 121.35,631.56 160.36,611.64 165.59,609.09 183.97,603.78 201.80,598.76 205.19,598.45" fill="none" stroke="#bcbcbc" stroke-width="8" stroke-linecap="round" stroke-linejoin="round" /><polyline points="120.23,657.97 165.20,637.03 167.10,635.78 171.50,634.50 201.46,625.78 206.01,624.04 210.87,623.09" fill="none" stroke="#bcbcbc" stroke-width="8" stroke-linecap="round" stroke-linejoin="round" /><polyline points="111.05,219.15 129.26,221.40 131.09,221.62 138.15,223.36" fill="none" stroke="#bcbcbc" stroke-width="8" stroke-linecap="round" stroke-linejoin="round" /><polyline points="266.63,404.26 269.86,403.59 281.92,409.50 283.51,411.08 306.16,449.41 306.75,454.06 309.70,456.51 309.23,458.21 309.16,460.97 309.57,464.84 315.56,489.49 316.10,506.56 316.94,533.83 318.35,570.52 312.60,586.51 308.90,596.26 303.50,610.00 301.94,613.97 300.92,615.08 299.29,625.71" fill="none" stroke="#bcbcbc" stroke-width="8" stroke-linecap="round" stroke-linejoin="round" /><polyline points="308.50,690.47 302.99,688.07 289.23,678.47 271.07,665.71 261.08,657.63 254.35,650.41" fill="none" stroke="#bcbcbc" stroke-width="8" stroke-linecap="round" stroke-linejoin="round" /><polyline points="85.67,905.32 80.26,903.61 71.48,900.82 67.29,899.50 62.37,897.94 56.16,895.96 50.53,894.18 44.98,892.42 20.20,884.56 15.86,883.18 10.48,881.47 9.29,881.10 -4.88,877.35 -8.89,876.38 -13.90,875.17 -19.15,873.90 -38.06,869.31 -43.13,868.08 -48.58,866.19 -59.97,862.23 -64.26,860.74 -68.10,859.50 -85.93,853.15 -88.18,851.82 -89.26,849.49" fill="none" stroke="#bcbcbc" stroke-width="8" stroke-linecap="round" stroke-linejoin="round" /><polyline points="167.10,635.78 165.78,631.07 161.87,617.04 160.36,611.64 158.19,607.60 157.99,606.85 156.70,602.10 158.20,600.00 156.40,594.01 155.85,592.15" fill="none" stroke="#bcbcbc" stroke-width="8" stroke-linecap="round" stroke-linejoin="round" /><polyline points="160.55,464.00 164.27,462.25 184.60,451.04 196.23,443.57 204.42,437.97 206.23,436.62 212.83,432.04 219.67,426.99 224.00,423.84 229.16,420.06 247.10,411.97 249.42,412.09 252.82,410.48 266.63,404.26" fill="none" stroke="#bcbcbc" stroke-width="8" stroke-linecap="round" stroke-linejoin="round" /><polyline points="-64.81,540.43 -61.87,541.62 -59.93,542.22 -23.58,553.39 -18.02,555.09" fill="none" stroke="#bcbcbc" stroke-width="8" stroke-linecap="round" stroke-linejoin="round" /><polyline points="-324.51,622.21 -350.49,614.34" fill="none" stroke="#bcbcbc" stroke-width="8" stroke-linecap="round" stroke-linejoin="round" /><polyline points="95.09,255.84 101.53,264.00 102.49,265.22 105.74,269.34 109.45,269.77 117.06,270.67 118.42,271.60" fill="none" stroke="#bcbcbc" stroke-width="8" stroke-linecap="round" stroke-linejoin="round" /><polyline points="318.74,618.78 308.53,620.69 298.07,626.37 288.37,631.77 279.19,636.36 268.11,642.38 260.08,647.26 244.21,655.77 182.29,686.93 166.23,694.00 155.62,698.59 150.36,700.31 146.02,701.12 138.90,701.55 128.77,700.12 103.49,694.05 67.60,685.68 20.39,671.44 3.00,665.71 -25.48,656.91 -52.72,647.93 -92.67,632.25 -112.64,623.65 -136.73,612.95 -176.68,591.06 -186.04,584.84 -209.74,569.93 -219.68,559.99 -234.59,540.69 -259.15,515.36 -268.80,506.85" fill="none" stroke="#bcbcbc" stroke-width="8" stroke-linecap="round" stroke-linejoin="round" /><polyline points="125.09,917.79 125.51,915.45 127.02,911.64 141.19,878.49 146.54,866.06 152.85,850.57 154.39,844.91" fill="none" stroke="#bcbcbc" stroke-width="8" stroke-linecap="round" stroke-linejoin="round" /><polyline points="-146.67,777.82 -162.76,770.03 -199.38,752.31 -244.29,730.57 -248.30,728.63" fill="none" stroke="#bcbcbc" stroke-width="8" stroke-linecap="round" stroke-linejoin="round" /><polyline points="117.80,521.26 121.86,517.10 132.67,506.04 141.24,496.68" fill="none" stroke="#bcbcbc" stroke-width="8" stroke-linecap="round" stroke-linejoin="round" /><polyline points="-194.18,545.91 -198.64,540.00 -219.56,512.30 -249.42,488.13" fill="none" stroke="#bcbcbc" stroke-width="8" stroke-linecap="round" stroke-linejoin="round" /><polyline points="-323.76,910.55 -319.68,900.87 -306.70,868.49 -305.12,864.24 -303.38,859.53 -302.71,857.83 -302.54,855.17 -300.88,830.00 -300.40,822.78" fill="none" stroke="#bcbcbc" stroke-width="8" stroke-linecap="round" stroke-linejoin="round" /><polyline points="-332.62,650.32 -324.51,622.21 -313.82,585.12 -312.50,580.53 -311.03,575.32 -307.73,563.64 -307.38,562.42 -306.44,558.66 -304.93,554.42 -304.57,553.39 -302.67,548.68 -298.94,540.44 -297.82,538.08" fill="none" stroke="#bcbcbc" stroke-width="8" stroke-linecap="round" stroke-linejoin="round" /><polyline points="-312.50,580.53 -296.10,584.73 -261.36,593.66 -241.56,599.82 -233.31,601.76" fill="none" stroke="#bcbcbc" stroke-width="8" stroke-linecap="round" stroke-linejoin="round" /><polyline points="25.09,452.96 25.65,449.55 26.21,446.00 28.61,434.15 34.62,406.56 39.56,381.87 40.46,376.75 41.69,369.80 41.69,369.79" fill="none" stroke="#bcbcbc" stroke-width="8" stroke-linecap="round" stroke-linejoin="round" /><polyline points="-23.47,984.32 -16.15,965.64 -15.24,962.28 13.82,888.50 15.86,883.18 17.52,878.66 34.88,828.14 38.22,825.22" fill="none" stroke="#bcbcbc" stroke-width="8" stroke-linecap="round" stroke-linejoin="round" /><polyline points="76.14,438.68 76.14,438.67 75.11,433.27 74.95,432.61 72.44,422.40 72.44,422.37 70.73,415.45 63.48,390.59 62.56,387.93 57.67,374.61 56.08,370.64 55.05,368.08 53.72,365.16 53.71,365.16 53.71,365.15 52.74,354.44 52.65,349.19" fill="none" stroke="#bcbcbc" stroke-width="8" stroke-linecap="round" stroke-linejoin="round" /><polyline points="65.27,860.39 63.41,862.40 60.63,865.71 52.80,887.79 50.53,894.18" fill="none" stroke="#bcbcbc" stroke-width="8" stroke-linecap="round" stroke-linejoin="round" /><polyline points="-64.81,540.43 -63.74,537.53 -63.49,536.86 -58.41,522.66 -56.50,516.67 -40.92,470.85" fill="none" stroke="#bcbcbc" stroke-width="8" stroke-linecap="round" stroke-linejoin="round" /><polyline points="15.80,604.67 17.39,600.45 21.69,589.01 23.52,584.17 24.75,580.90 28.20,571.72 30.49,565.66 30.79,564.84 36.32,550.15 38.63,550.87 39.89,547.46 42.10,541.43 41.68,538.68 47.56,522.67 48.16,521.02 49.28,520.00 50.22,519.14 56.12,503.01 56.97,498.59 65.43,475.07 67.44,473.51 71.51,461.99 70.78,460.22 74.35,449.46 72.50,439.85" fill="none" stroke="#bcbcbc" stroke-width="8" stroke-linecap="round" stroke-linejoin="round" /><polyline points="167.20,167.20 164.83,163.31 152.37,142.86" fill="none" stroke="#bcbcbc" stroke-width="8" stroke-linecap="round" stroke-linejoin="round" /><polyline points="206.23,436.62 263.42,473.41 263.44,473.43 263.44,473.44 274.02,474.81" fill="none" stroke="#bcbcbc" stroke-width="8" stroke-linecap="round" stroke-linejoin="round" /><polyline points="183.30,359.79 244.15,390.34 245.98,391.71 245.86,401.71 247.10,411.97" fill="none" stroke="#bcbcbc" stroke-width="8" stroke-linecap="round" stroke-linejoin="round" /><polyline points="67.29,899.50 65.10,906.17 56.24,933.22 41.16,978.76 40.09,981.99 39.00,985.26 38.70,988.75" fill="none" stroke="#bcbcbc" stroke-width="8" stroke-linecap="round" stroke-linejoin="round" /><polyline points="238.59,735.22 238.95,731.83 239.03,728.66 239.00,728.55 236.85,719.23 235.96,715.33 235.54,713.45 235.10,711.53 232.73,701.11 228.11,680.27 224.75,667.74 224.27,665.80" fill="none" stroke="#bcbcbc" stroke-width="8" stroke-linecap="round" stroke-linejoin="round" /><polyline points="-63.51,926.00 -62.00,921.71 -45.06,873.55 -43.13,868.08" fill="none" stroke="#bcbcbc" stroke-width="8" stroke-linecap="round" stroke-linejoin="round" /><polyline points="316.94,533.83 311.95,532.42 278.10,480.47 274.02,474.81" fill="none" stroke="#bcbcbc" stroke-width="8" stroke-linecap="round" stroke-linejoin="round" /><polyline points="-239.59,658.49 -116.21,688.05 -107.70,691.16" fill="none" stroke="#bcbcbc" stroke-width="8" stroke-linecap="round" stroke-linejoin="round" /><polyline points="149.56,196.56 197.62,214.37 204.39,213.21" fill="none" stroke="#bcbcbc" stroke-width="8" stroke-linecap="round" stroke-linejoin="round" />
    <polyline points="249.48,352.80 250.39,349.14 250.02,347.75 249.58,346.08 246.74,335.69 240.42,313.74 237.09,302.51 236.10,299.43 227.29,267.75 222.53,250.66 217.60,237.52 213.14,225.67 208.70,217.52 204.39,213.21 171.27,172.74 168.82,169.86 167.20,167.20" fill="none" stroke="#ffffff" stroke-width="16" stroke-linecap="round" stroke-linejoin="round" />
    <polyline points="249.48,352.80 250.39,349.14 250.02,347.75 249.58,346.08 246.74,335.69 240.42,313.74 237.09,302.51 236.10,299.43 227.29,267.75 222.53,250.66 217.60,237.52 213.14,225.67 208.70,217.52 204.39,213.21 171.27,172.74 168.82,169.86 167.20,167.20" fill="none" stroke="#111111" stroke-width="9" stroke-linecap="round" stroke-linejoin="round" />
    
            <g transform="translate(249.48,352.80)">
              <circle r="19" fill="#ffffff" stroke="#111111" stroke-width="4" />
              <text text-anchor="middle" dominant-baseline="central" font-family="Helvetica, Arial, sans-serif"
                font-size="18" font-weight="700" fill="#111111">1</text>
            </g>
            
            <g transform="translate(167.20,167.20)">
              <circle r="19" fill="#ffffff" stroke="#111111" stroke-width="4" />
              <text text-anchor="middle" dominant-baseline="central" font-family="Helvetica, Arial, sans-serif"
                font-size="18" font-weight="700" fill="#111111">2</text>
            </g>
            
  </g>
</svg>
