<svg xmlns="http://www.w3.org/2000/svg" width="520" height="520" viewBox="0 0 520 520">
  <rect width="100%" height="100%" fill="#ffffff" />
  <g>
    <polyline points="437.43,266.79 438.06,270.16 442.15,298.79 441.53,305.94" fill="none" stroke="#bcbcbc" stroke-width="8" stroke-linecap="round" stroke-linejoin="round" /><polyline points="354.27,505.31 355.26,502.27 360.50,486.15 361.12,484.25 361.74,482.26 374.92,440.23 375.98,436.85 373.55,430.87" fill="none" stroke="#bcbcbc" stroke-width="8" stroke-linecap="round" stroke-linejoin="round" /><polyline points="263.24,467.93 263.03,465.52 267.34,441.39 267.94,438.37 268.39,436.79 269.58,430.67 270.91,423.18 272.36,416.58 273.80,410.00 274.71,408.14 275.30,407.00" fill="none" stroke="#bcbcbc" stroke-width="8" stroke-linecap="round" stroke-linejoin="round" /><polyline points="288.25,297.71 287.22,294.58 276.64,262.29 276.12,260.94" fill="none" stroke="#bcbcbc" stroke-width="8" stroke-linecap="round" stroke-linejoin="round" /><polyline points="233.92,581.92 234.24,578.84 234.36,577.43 235.52,564.68 236.78,553.45 237.07,550.83 237.35,547.68 237.38,547.42 238.09,541.17 238.71,534.81 239.39,528.68 239.85,523.90 240.04,520.96 240.21,518.23 240.51,515.17" fill="none" stroke="#bcbcbc" stroke-width="8" stroke-linecap="round" stroke-linejoin="round" /><polyline points="380.22,512.80 380.97,510.43 386.29,493.73 386.89,491.83 387.75,489.13 388.36,487.19 393.06,466.91" fill="none" stroke="#bcbcbc" stroke-width="8" stroke-linecap="round" stroke-linejoin="round" /><polyline points="359.57,182.42 361.53,182.72 415.59,191.03" fill="none" stroke="#bcbcbc" stroke-width="8" stroke-linecap="round" stroke-linejoin="round" /><polyline points="220.77,508.87 215.14,508.61 211.71,508.45 209.84,508.36 208.21,508.28 195.47,507.69 177.74,506.87 169.29,505.67 166.47,505.27 164.01,504.83 147.40,501.90 145.07,501.49 144.56,501.40 141.69,500.91 139.48,500.53 125.40,499.29 122.72,499.05 121.74,498.97 118.69,498.75 112.73,498.34" fill="none" stroke="#bcbcbc" stroke-width="8" stroke-linecap="round" stroke-linejoin="round" /><polyline points="302.52,492.54 303.62,489.44 313.44,462.21 325.25,427.86 326.01,425.71 326.54,424.21 326.97,422.97" fill="none" stroke="#bcbcbc" stroke-width="8" stroke-linecap="round" stroke-linejoin="round" /><polyline points="121.74,498.97 121.49,497.21 121.43,495.31 121.80,491.48 122.66,484.49 123.23,482.15 124.15,473.66 124.32,471.77 124.59,469.34 124.79,467.54 125.17,465.49 125.88,459.99 126.37,455.78 127.08,454.06" fill="none" stroke="#bcbcbc" stroke-width="8" stroke-linecap="round" stroke-linejoin="round" /><polyline points="111.69,451.91 124.79,453.74 127.08,454.06 128.51,454.28 134.38,455.22 147.91,457.38 150.23,457.76" fill="none" stroke="#bcbcbc" stroke-width="8" stroke-linecap="round" stroke-linejoin="round" /><polyline points="352.80,280.03 352.88,281.22 353.06,282.43 353.49,283.35 354.28,284.38 355.76,285.72 359.25,287.84 386.19,304.75 402.78,326.99 415.31,357.92 416.12,359.96" fill="none" stroke="#bcbcbc" stroke-width="8" stroke-linecap="round" stroke-linejoin="round" /><polyline points="348.49,370.27 349.04,371.19 349.19,371.43 349.65,373.77 352.81,389.05 353.82,393.90 354.53,397.36 355.65,404.36 356.18,407.59 356.54,409.56 356.93,411.34 357.40,412.38 358.09,413.58 358.46,414.14 365.46,424.17 369.25,430.13 370.24,431.55" fill="none" stroke="#bcbcbc" stroke-width="8" stroke-linecap="round" stroke-linejoin="round" /><polyline points="147.56,561.63 147.93,559.34 148.27,557.68 148.37,557.46 153.03,546.38 155.99,539.19 156.90,536.90 157.85,534.49 158.89,532.41 159.06,532.00 160.48,528.57 161.58,525.53 162.52,522.75 163.12,520.78 163.79,518.34 164.56,515.08 165.14,512.43 165.85,508.74 165.99,507.91 166.47,505.27" fill="none" stroke="#bcbcbc" stroke-width="8" stroke-linecap="round" stroke-linejoin="round" /><polyline points="373.26,252.29 388.12,262.67 390.12,263.10 391.58,264.77" fill="none" stroke="#bcbcbc" stroke-width="8" stroke-linecap="round" stroke-linejoin="round" /><polyline points="310.89,348.15 312.85,348.91 321.37,351.70 341.15,359.28 342.25,360.38 342.77,361.21" fill="none" stroke="#bcbcbc" stroke-width="8" stroke-linecap="round" stroke-linejoin="round" /><polyline points="347.73,542.99 349.08,539.48 355.72,521.44 360.42,507.82 361.40,507.37" fill="none" stroke="#bcbcbc" stroke-width="8" stroke-linecap="round" stroke-linejoin="round" /><polyline points="253.78,520.12 254.83,517.80 254.93,517.57 256.73,511.55 259.67,501.65 260.42,499.11 261.00,497.14 261.08,495.99 260.96,493.45" fill="none" stroke="#bcbcbc" stroke-width="8" stroke-linecap="round" stroke-linejoin="round" /><polyline points="375.94,371.06 374.26,371.41 370.44,370.73 369.85,369.15 363.23,366.63 361.67,367.04 355.70,364.85 354.81,365.47" fill="none" stroke="#bcbcbc" stroke-width="8" stroke-linecap="round" stroke-linejoin="round" /><polyline points="366.12,166.40 369.12,167.13 370.78,167.42 410.21,174.26" fill="none" stroke="#bcbcbc" stroke-width="8" stroke-linecap="round" stroke-linejoin="round" /><polyline points="335.47,532.00 337.11,527.38 340.29,518.39 342.35,514.56 345.32,506.26 346.50,502.95" fill="none" stroke="#bcbcbc" stroke-width="8" stroke-linecap="round" stroke-linejoin="round" /><polyline points="119.37,352.48 116.51,352.35 115.80,353.22 110.82,359.26 93.42,379.36 90.98,382.18" fill="none" stroke="#bcbcbc" stroke-width="8" stroke-linecap="round" stroke-linejoin="round" /><polyline points="271.96,369.69 270.70,372.48 270.54,372.82 266.16,384.24 261.75,396.82 260.57,400.17 259.90,401.91" fill="none" stroke="#bcbcbc" stroke-width="8" stroke-linecap="round" stroke-linejoin="round" /><polyline points="336.22,241.32 337.61,243.20 338.61,245.80 340.15,249.53 342.64,255.39 344.83,260.65 347.36,266.43 349.23,270.88 349.51,271.52 349.52,271.56 351.03,275.08 351.48,276.09 351.91,277.04 352.36,277.93 352.70,278.84 352.80,280.03" fill="none" stroke="#bcbcbc" stroke-width="8" stroke-linecap="round" stroke-linejoin="round" /><polyline points="229.67,426.01 230.40,425.61 231.42,424.80 231.93,423.75 238.70,398.08 238.90,396.63 239.73,393.99" fill="none" stroke="#bcbcbc" stroke-width="8" stroke-linecap="round" stroke-linejoin="round" /><polyline points="466.35,385.84 467.31,388.89 467.99,392.09 466.67,404.29 465.15,413.47 464.32,416.60 464.24,416.88 463.52,418.57 462.52,420.36 460.21,423.29 461.33,429.02 457.70,441.31 455.70,448.10 451.60,459.21 445.60,472.74 438.27,485.71 435.99,489.92 431.85,496.84 415.32,520.30 411.70,525.18 397.67,543.51 389.62,552.67 378.36,564.12 377.32,564.22 374.78,566.30" fill="none" stroke="#bcbcbc" stroke-width="8" stroke-linecap="round" stroke-linejoin="round" /><polyline points="262.40,586.52 267.01,572.21 267.77,569.84 268.79,568.36 271.00,561.74 271.71,559.49 280.82,530.99 281.73,528.13 282.49,525.61 293.23,491.80" fill="none" stroke="#bcbcbc" stroke-width="8" stroke-linecap="round" stroke-linejoin="round" /><polyline points="370.49,320.38 374.47,316.02 375.65,314.61 383.71,303.19" fill="none" stroke="#bcbcbc" stroke-width="8" stroke-linecap="round" stroke-linejoin="round" /><polyline points="290.76,322.11 301.75,325.93 302.35,326.92 305.47,327.97 307.32,328.60 316.18,331.59" fill="none" stroke="#bcbcbc" stroke-width="8" stroke-linecap="round" stroke-linejoin="round" /><polyline points="386.50,246.10 391.58,264.77 397.46,286.77 398.35,288.60 398.50,290.70 402.48,298.14 413.25,318.22 415.60,321.69 416.28,322.70 432.36,352.77 439.75,359.49 440.79,360.82 442.25,362.07 456.28,374.07 457.24,374.89 459.76,376.23" fill="none" stroke="#bcbcbc" stroke-width="8" stroke-linecap="round" stroke-linejoin="round" /><polyline points="331.93,589.55 366.92,569.23 373.15,566.04 374.78,566.30" fill="none" stroke="#bcbcbc" stroke-width="8" stroke-linecap="round" stroke-linejoin="round" /><polyline points="369.87,560.47 372.04,557.89 391.53,518.99 392.83,516.44 393.90,513.92 400.20,498.35 402.08,493.66 407.50,477.23 411.02,456.11 411.44,453.04" fill="none" stroke="#bcbcbc" stroke-width="8" stroke-linecap="round" stroke-linejoin="round" /><polyline points="354.83,331.72 354.49,332.07 354.02,333.71 353.97,333.87 351.85,342.02 352.41,344.14 351.95,346.05 351.34,348.55 349.80,350.34 348.04,357.46 345.97,359.02 343.76,360.53 342.77,361.21" fill="none" stroke="#bcbcbc" stroke-width="8" stroke-linecap="round" stroke-linejoin="round" /><polyline points="271.96,369.69 272.86,367.38 278.26,353.52 279.44,350.50 280.42,348.01 287.33,330.30 290.44,322.90 290.76,322.11 293.18,316.26 298.61,302.79 300.59,297.06 301.04,295.74 301.63,294.25" fill="none" stroke="#bcbcbc" stroke-width="8" stroke-linecap="round" stroke-linejoin="round" /><polyline points="332.47,285.65 333.52,288.76 367.84,318.08 386.57,334.37 414.54,358.69 416.98,360.64 418.07,361.33 422.93,365.73 429.41,371.26 444.11,383.80 448.86,387.88 452.01,391.65" fill="none" stroke="#bcbcbc" stroke-width="8" stroke-linecap="round" stroke-linejoin="round" /><polyline points="389.22,235.13 390.96,234.02 401.27,229.73 403.39,227.50" fill="none" stroke="#bcbcbc" stroke-width="8" stroke-linecap="round" stroke-linejoin="round" /><polyline points="401.13,496.03 386.89,491.83 361.12,484.25" fill="none" stroke="#bcbcbc" stroke-width="8" stroke-linecap="round" stroke-linejoin="round" /><polyline points="355.17,193.17 357.11,194.51 420.49,208.61" fill="none" stroke="#bcbcbc" stroke-width="8" stroke-linecap="round" stroke-linejoin="round" /><polyline points="433.45,401.83 430.17,394.54 422.90,377.21 422.36,375.83 421.12,372.67 416.43,360.74 416.14,359.97" fill="none" stroke="#bcbcbc" stroke-width="8" stroke-linecap="round" stroke-linejoin="round" /><polyline points="336.22,241.32 332.70,240.32 330.12,239.55 324.86,237.98 322.19,237.22 320.66,236.80 318.67,236.23" fill="none" stroke="#bcbcbc" stroke-width="8" stroke-linecap="round" stroke-linejoin="round" /><polyline points="244.49,336.66 244.31,336.08 244.14,335.67 243.42,333.87 240.61,327.32 237.94,320.67 237.36,319.10 236.70,317.29 236.22,315.81 235.44,313.59 235.36,313.36 232.80,307.06 228.11,295.23 227.06,294.63 226.31,292.71 224.82,287.51 222.25,281.07 221.70,279.61" fill="none" stroke="#bcbcbc" stroke-width="8" stroke-linecap="round" stroke-linejoin="round" /><polyline points="267.01,572.21 269.67,573.02 278.29,575.65 280.99,576.47" fill="none" stroke="#bcbcbc" stroke-width="8" stroke-linecap="round" stroke-linejoin="round" /><polyline points="427.91,238.23 428.41,236.20 428.21,235.43 427.96,234.50 426.39,228.74 422.88,216.55 421.03,210.32 420.49,208.61 415.59,191.03 412.95,181.55 410.21,174.26 407.74,167.68 405.28,163.16 402.88,160.77 384.50,138.31 383.14,136.71 382.24,135.23" fill="none" stroke="#bcbcbc" stroke-width="8" stroke-linecap="round" stroke-linejoin="round" /><polyline points="455.70,448.10 451.88,448.45 439.97,449.54 439.43,449.59 438.67,449.66 437.44,449.77 425.88,450.83 421.86,450.46 417.18,451.63 413.44,452.55 411.44,453.04 406.48,453.23 402.18,453.01 399.99,452.78 398.13,452.22 396.76,451.46 391.65,447.84 379.23,439.32 378.06,438.52 376.87,437.71 375.98,436.85" fill="none" stroke="#bcbcbc" stroke-width="8" stroke-linecap="round" stroke-linejoin="round" /><polyline points="174.51,304.13 179.01,312.95 179.70,315.47 183.49,322.71 185.06,324.78 191.40,337.12 191.81,337.91" fill="none" stroke="#bcbcbc" stroke-width="8" stroke-linecap="round" stroke-linejoin="round" /><polyline points="312.56,382.56 311.89,384.42 311.70,384.99 310.82,387.66 305.24,403.21 302.48,410.93 302.38,411.20 301.27,413.60 300.64,415.02" fill="none" stroke="#bcbcbc" stroke-width="8" stroke-linecap="round" stroke-linejoin="round" /><polyline points="386.50,246.10 385.88,244.77 384.26,244.56 379.01,245.76 377.94,245.63 377.10,244.51 375.62,237.67 383.67,236.42 387.39,235.32 389.22,235.13 391.18,242.11" fill="none" stroke="#bcbcbc" stroke-width="8" stroke-linecap="round" stroke-linejoin="round" /><polyline points="415.60,321.69 417.67,320.52 428.09,314.24 430.87,312.59 435.75,309.68 443.76,304.50 445.63,303.15 459.70,294.43" fill="none" stroke="#bcbcbc" stroke-width="8" stroke-linecap="round" stroke-linejoin="round" /><polyline points="464.75,362.89 461.20,361.83 459.13,360.14 451.23,353.30 450.97,353.06 449.06,351.36 447.93,349.37 428.09,314.24" fill="none" stroke="#bcbcbc" stroke-width="8" stroke-linecap="round" stroke-linejoin="round" /><polyline points="240.83,360.11 271.96,369.69 274.50,370.49 297.73,377.86 298.22,378.01 301.70,379.12 303.41,379.66 305.63,380.27 310.22,381.82 312.56,382.56 314.67,383.23 331.96,388.72 350.21,394.45 351.72,394.93 353.82,393.90" fill="none" stroke="#bcbcbc" stroke-width="8" stroke-linecap="round" stroke-linejoin="round" /><polyline points="332.36,206.40 345.85,194.01 348.13,191.91" fill="none" stroke="#bcbcbc" stroke-width="8" stroke-linecap="round" stroke-linejoin="round" /><polyline points="106.54,406.36 156.03,411.66" fill="none" stroke="#bcbcbc" stroke-width="8" stroke-linecap="round" stroke-linejoin="round" /><polyline points="255.82,268.24 266.22,264.52 276.95,260.64 283.61,258.05 303.96,250.64 309.87,248.60 311.10,248.17 312.58,247.67 314.24,247.09 314.45,247.02 317.80,245.68 319.26,245.09" fill="none" stroke="#bcbcbc" stroke-width="8" stroke-linecap="round" stroke-linejoin="round" /><polyline points="325.67,519.92 335.47,532.00 341.46,538.04 344.05,539.91 347.73,542.99 351.18,545.88 354.14,548.78 354.22,550.25" fill="none" stroke="#bcbcbc" stroke-width="8" stroke-linecap="round" stroke-linejoin="round" /><polyline points="336.22,241.32 340.06,231.70 346.27,215.86 355.17,193.17 359.57,182.42 366.12,166.40 371.49,153.27 372.45,151.53 377.18,143.80 377.48,143.30 379.21,139.90 382.24,135.23 383.94,132.63 386.33,128.94" fill="none" stroke="#bcbcbc" stroke-width="8" stroke-linecap="round" stroke-linejoin="round" /><polyline points="245.69,498.50 245.06,499.00 244.65,499.60 243.80,502.10 243.21,503.90 240.51,511.99 240.14,513.15 239.91,513.88 237.43,513.16 231.38,511.14 225.40,509.13 220.77,508.87" fill="none" stroke="#bcbcbc" stroke-width="8" stroke-linecap="round" stroke-linejoin="round" /><polyline points="127.36,554.76 137.23,529.28 138.33,526.50 139.31,523.83 140.50,520.60 141.96,515.52 143.48,509.21 144.11,504.69 144.56,501.40 145.20,498.98 147.52,480.76 150.23,457.76 151.64,446.80 153.20,433.92 156.03,411.66 156.47,407.88 159.33,384.60 159.33,383.30 159.96,376.39 161.78,361.80 162.23,359.26 162.71,357.83 163.45,356.26 164.18,355.04 165.77,353.31 167.20,352.82" fill="none" stroke="#bcbcbc" stroke-width="8" stroke-linecap="round" stroke-linejoin="round" /><polyline points="342.77,361.21 343.31,362.07 345.12,364.89 347.83,369.23 348.49,370.27 349.57,369.45 354.81,365.47" fill="none" stroke="#bcbcbc" stroke-width="8" stroke-linecap="round" stroke-linejoin="round" /><polyline points="346.27,215.86 399.58,225.50 405.18,228.45 426.07,238.80 427.91,238.23" fill="none" stroke="#bcbcbc" stroke-width="8" stroke-linecap="round" stroke-linejoin="round" /><polyline points="244.49,336.66 243.54,338.04 235.03,342.20 228.79,350.14 222.05,354.31 217.44,357.79 213.04,361.38 210.78,363.43 206.80,368.49 202.34,374.87 201.61,376.05" fill="none" stroke="#bcbcbc" stroke-width="8" stroke-linecap="round" stroke-linejoin="round" /><polyline points="253.48,342.36 253.11,343.18 252.30,344.36 250.78,346.23 241.79,357.58 237.04,370.39 213.05,361.37" fill="none" stroke="#bcbcbc" stroke-width="8" stroke-linecap="round" stroke-linejoin="round" /><polyline points="217.44,357.79 216.51,354.98 212.49,342.82 210.93,340.42 208.32,332.59 208.10,331.92 208.48,330.69 207.86,328.70 195.31,288.64" fill="none" stroke="#bcbcbc" stroke-width="8" stroke-linecap="round" stroke-linejoin="round" /><polyline points="364.44,139.22 374.35,139.48 374.81,139.49 376.71,139.55 379.21,139.90" fill="none" stroke="#bcbcbc" stroke-width="8" stroke-linecap="round" stroke-linejoin="round" /><polyline points="313.44,462.21 310.05,462.17 281.39,466.02 279.32,466.23 276.96,466.48 263.24,467.93 244.76,469.88 234.96,470.92 229.54,471.49 225.14,472.02 222.88,472.30 220.34,472.61 208.04,474.10 205.10,474.46 196.02,475.45 147.52,480.76" fill="none" stroke="#bcbcbc" stroke-width="8" stroke-linecap="round" stroke-linejoin="round" /><polyline points="271.00,561.74 268.46,560.92 256.60,557.11 254.20,556.33 252.12,555.66 239.55,551.63 237.07,550.83 233.80,549.77 213.79,543.34 211.54,542.61" fill="none" stroke="#bcbcbc" stroke-width="8" stroke-linecap="round" stroke-linejoin="round" /><polyline points="320.59,321.59 327.49,323.74 352.72,331.53 352.96,331.61 354.83,331.72" fill="none" stroke="#bcbcbc" stroke-width="8" stroke-linecap="round" stroke-linejoin="round" /><polyline points="391.58,264.77 425.90,265.37" fill="none" stroke="#bcbcbc" stroke-width="8" stroke-linecap="round" stroke-linejoin="round" /><polyline points="374.78,566.30 369.87,560.47 367.81,558.08 366.04,556.42 363.69,554.67 358.87,551.78 354.22,550.25 344.74,547.32 336.99,544.86 341.46,538.04" fill="none" stroke="#bcbcbc" stroke-width="8" stroke-linecap="round" stroke-linejoin="round" /><polyline points="325.67,519.92 318.84,511.49 317.54,509.89 310.66,500.41 309.10,497.51 309.48,494.07 311.55,494.05 316.67,495.03 324.46,496.53" fill="none" stroke="#bcbcbc" stroke-width="8" stroke-linecap="round" stroke-linejoin="round" /><polyline points="236.31,452.36 237.57,455.07 244.76,469.88 255.46,491.91 256.82,494.72" fill="none" stroke="#bcbcbc" stroke-width="8" stroke-linecap="round" stroke-linejoin="round" /><polyline points="121.07,519.45 123.64,520.50 135.70,525.43 138.33,526.50 141.10,527.64 155.28,533.44 157.85,534.49" fill="none" stroke="#bcbcbc" stroke-width="8" stroke-linecap="round" stroke-linejoin="round" /><polyline points="242.23,430.40 267.34,441.39" fill="none" stroke="#bcbcbc" stroke-width="8" stroke-linecap="round" stroke-linejoin="round" /><polyline points="354.83,331.72 358.65,331.92 358.90,332.14 360.61,333.66 363.13,335.91 363.60,336.82 372.29,344.43 372.94,345.65 379.05,351.04 380.59,351.51 385.34,355.68 386.41,356.16 393.58,362.25 395.17,363.66 396.06,365.06" fill="none" stroke="#bcbcbc" stroke-width="8" stroke-linecap="round" stroke-linejoin="round" /><polyline points="113.98,430.42 153.20,433.92" fill="none" stroke="#bcbcbc" stroke-width="8" stroke-linecap="round" stroke-linejoin="round" /><polyline points="201.55,576.47 202.77,573.88 203.08,572.73 204.78,566.45 210.95,544.70 211.54,542.61 212.17,540.33 214.96,530.11 219.68,512.85 220.77,508.87" fill="none" stroke="#bcbcbc" stroke-width="8" stroke-linecap="round" stroke-linejoin="round" /><polyline points="236.31,452.36 242.23,430.40 229.67,426.01 226.39,427.95 224.89,429.09 223.78,430.59 223.00,432.57 220.11,443.24 222.44,444.43 224.79,445.00 230.00,446.36 233.89,447.60 236.31,452.36" fill="none" stroke="#bcbcbc" stroke-width="8" stroke-linecap="round" stroke-linejoin="round" /><polyline points="220.11,443.24 217.36,442.86 153.20,433.92" fill="none" stroke="#bcbcbc" stroke-width="8" stroke-linecap="round" stroke-linejoin="round" /><polyline points="324.46,496.53 330.41,497.83 346.50,502.95 351.00,504.37 361.68,507.45 372.44,510.56 380.41,512.86 393.15,516.54 395.78,517.30 402.21,519.45 412.80,522.27 413.73,522.45" fill="none" stroke="#bcbcbc" stroke-width="8" stroke-linecap="round" stroke-linejoin="round" /><polyline points="332.01,589.51 329.83,590.05 327.49,596.60 323.85,595.56 307.29,589.92 305.30,589.50 300.87,589.18 280.82,589.26 276.40,588.70 266.42,587.17 262.40,586.52 233.85,581.91 222.79,580.15 201.71,576.50 198.30,575.82 150.72,562.52 147.72,561.68 127.36,554.76 122.35,552.98 109.84,547.80 102.71,545.10" fill="none" stroke="#bcbcbc" stroke-width="8" stroke-linecap="round" stroke-linejoin="round" /><polyline points="375.62,237.67 373.56,237.24 346.05,240.50 336.22,241.32" fill="none" stroke="#bcbcbc" stroke-width="8" stroke-linecap="round" stroke-linejoin="round" /><polyline points="324.46,496.53 325.42,494.92 331.19,480.10 337.64,457.68 339.29,452.86 340.17,451.54 346.39,431.56 346.70,429.17 346.94,427.61" fill="none" stroke="#bcbcbc" stroke-width="8" stroke-linecap="round" stroke-linejoin="round" /><polyline points="352.80,280.03 353.46,279.78 354.35,279.07 355.70,277.49 373.26,252.29 377.94,245.63" fill="none" stroke="#bcbcbc" stroke-width="8" stroke-linecap="round" stroke-linejoin="round" /><polyline points="430.96,372.59 431.31,371.56 440.14,361.17 440.79,360.82 442.32,358.73 447.46,352.83 449.06,351.36" fill="none" stroke="#bcbcbc" stroke-width="8" stroke-linecap="round" stroke-linejoin="round" /><polyline points="438.67,449.66 438.55,448.27 438.45,447.19 437.99,445.14 437.43,443.80 436.74,440.28 436.67,439.00 436.20,436.15 434.10,435.05 432.42,435.69 429.42,436.41 427.04,436.79 424.76,437.34 421.61,438.05 420.17,438.38" fill="none" stroke="#bcbcbc" stroke-width="8" stroke-linecap="round" stroke-linejoin="round" /><polyline points="206.76,398.66 213.18,383.61 213.54,382.63" fill="none" stroke="#bcbcbc" stroke-width="8" stroke-linecap="round" stroke-linejoin="round" /><polyline points="375.94,371.06 379.04,369.86 380.65,369.24 381.91,367.97 387.06,366.70 388.80,367.14 392.53,366.18 395.38,365.44 396.06,365.06 398.82,364.39 412.94,360.93 416.14,359.97" fill="none" stroke="#bcbcbc" stroke-width="8" stroke-linecap="round" stroke-linejoin="round" /><polyline points="245.69,498.50 252.35,496.08 254.58,495.40 256.82,494.72 260.96,493.45 264.18,492.99 275.18,491.78 277.39,491.66 287.23,491.75 293.23,491.80 295.48,491.68 299.09,492.05 300.22,492.21 302.52,492.54 309.48,494.07" fill="none" stroke="#bcbcbc" stroke-width="8" stroke-linecap="round" stroke-linejoin="round" /><polyline points="277.43,300.73 276.33,297.00 272.23,283.14 267.25,267.34 266.22,264.52 265.18,261.87 263.86,258.06" fill="none" stroke="#bcbcbc" stroke-width="8" stroke-linecap="round" stroke-linejoin="round" /><polyline points="265.51,524.19 266.38,521.43 275.24,493.50 275.18,491.78" fill="none" stroke="#bcbcbc" stroke-width="8" stroke-linecap="round" stroke-linejoin="round" /><polyline points="277.39,491.66 279.15,468.15 279.32,466.23 279.59,464.00 279.59,463.90 279.71,461.18 280.29,453.77 280.62,450.33 281.07,446.41 281.49,443.59 281.85,441.82 282.32,440.48 283.23,437.47 285.11,431.19 287.50,423.09 290.14,414.80 290.68,413.11 291.11,411.88" fill="none" stroke="#bcbcbc" stroke-width="8" stroke-linecap="round" stroke-linejoin="round" /><polyline points="220.11,443.24 219.64,445.33 219.72,445.99 222.58,469.78 222.88,472.30 222.75,474.89 222.00,489.68 221.69,495.86 221.53,499.05 221.24,504.73 221.09,507.69 220.77,508.87" fill="none" stroke="#bcbcbc" stroke-width="8" stroke-linecap="round" stroke-linejoin="round" /><polyline points="206.76,398.66 196.37,395.57 195.05,394.72 188.59,392.84 186.77,392.86 178.65,390.41 177.34,389.44 169.94,387.20 160.88,384.73 160.83,384.73 159.33,384.60" fill="none" stroke="#bcbcbc" stroke-width="8" stroke-linecap="round" stroke-linejoin="round" /><polyline points="396.06,365.06 396.42,365.54 397.92,367.78 400.71,371.93 403.33,374.56 408.37,380.22 407.51,385.44 407.08,387.40 406.48,388.23 407.74,390.10 409.70,394.12 413.60,401.66 415.53,405.37 416.72,408.70 417.26,410.25" fill="none" stroke="#bcbcbc" stroke-width="8" stroke-linecap="round" stroke-linejoin="round" /><polyline points="422.36,375.83 420.91,376.28 411.38,379.25 410.01,379.69 408.37,380.22" fill="none" stroke="#bcbcbc" stroke-width="8" stroke-linecap="round" stroke-linejoin="round" /><polyline points="353.82,393.90 356.80,392.93 378.45,381.88 381.35,380.46 391.55,377.51 401.45,374.73 403.33,374.56" fill="none" stroke="#bcbcbc" stroke-width="8" stroke-linecap="round" stroke-linejoin="round" /><polyline points="356.18,407.59 381.14,395.97 382.19,395.28 384.63,394.57 401.26,389.73 403.78,388.76 406.48,388.23" fill="none" stroke="#bcbcbc" stroke-width="8" stroke-linecap="round" stroke-linejoin="round" /><polyline points="351.08,164.06 361.19,165.31 362.20,165.43 366.12,166.40" fill="none" stroke="#bcbcbc" stroke-width="8" stroke-linecap="round" stroke-linejoin="round" /><polyline points="437.43,266.79 439.22,266.42 445.92,269.70 446.80,270.57 459.37,291.85 459.70,294.43 461.33,295.79 461.07,296.73 461.03,298.26 461.26,300.41 464.59,314.09 464.88,323.57 465.35,338.70 466.13,359.06 462.94,367.93 460.89,373.34 457.89,380.97 457.02,383.17 456.46,383.79 455.55,389.69" fill="none" stroke="#bcbcbc" stroke-width="8" stroke-linecap="round" stroke-linejoin="round" /><polyline points="460.67,425.63 457.61,424.30 449.97,418.97 439.89,411.88 434.35,407.40 430.61,403.40" fill="none" stroke="#bcbcbc" stroke-width="8" stroke-linecap="round" stroke-linejoin="round" /><polyline points="336.99,544.86 333.99,543.91 329.12,542.36 326.79,541.63 324.06,540.76 320.61,539.67 317.49,538.68 314.41,537.70 300.66,533.34 298.25,532.57 295.26,531.63 294.60,531.42 286.74,529.34 284.51,528.80 281.73,528.13 278.82,527.42 268.32,524.88 265.51,524.19 262.48,523.14 256.16,520.95 253.78,520.12 251.65,519.43 241.75,515.91 240.51,515.17 239.91,513.88" fill="none" stroke="#bcbcbc" stroke-width="8" stroke-linecap="round" stroke-linejoin="round" /><polyline points="382.19,395.28 381.46,392.66 379.29,384.87 378.45,381.88 377.24,379.64 377.13,379.22 376.42,376.59 377.25,375.42 376.25,372.09 375.94,371.06" fill="none" stroke="#bcbcbc" stroke-width="8" stroke-linecap="round" stroke-linejoin="round" /><polyline points="378.55,299.95 380.62,298.97 391.90,292.75 398.35,288.60 402.90,285.50 403.91,284.75 407.57,282.21 411.36,279.40 413.77,277.66 416.63,275.56 426.59,271.07 427.88,271.14 429.76,270.24 437.43,266.79" fill="none" stroke="#bcbcbc" stroke-width="8" stroke-linecap="round" stroke-linejoin="round" /><polyline points="253.48,342.36 255.11,343.02 256.18,343.35 276.36,349.55 279.44,350.50" fill="none" stroke="#bcbcbc" stroke-width="8" stroke-linecap="round" stroke-linejoin="round" /><polyline points="109.34,387.74 94.92,383.38" fill="none" stroke="#bcbcbc" stroke-width="8" stroke-linecap="round" stroke-linejoin="round" /><polyline points="342.22,184.42 345.79,188.95 346.33,189.63 348.13,191.91 350.19,192.16 354.42,192.65 355.17,193.17" fill="none" stroke="#bcbcbc" stroke-width="8" stroke-linecap="round" stroke-linejoin="round" /><polyline points="466.35,385.84 460.68,386.90 454.88,390.06 449.49,393.05 444.40,395.60 438.25,398.94 433.79,401.65 424.99,406.37 390.62,423.66 381.71,427.58 375.82,430.13 372.90,431.09 370.49,431.54 366.54,431.78 360.91,430.98 346.88,427.61 326.97,422.97 300.76,415.07 291.11,411.88 275.30,407.00 260.19,402.02 238.01,393.32 226.93,388.54 213.56,382.60 191.39,370.46 186.19,367.01 173.04,358.73 167.52,353.22 159.25,342.50 145.61,328.45 140.26,323.72" fill="none" stroke="#bcbcbc" stroke-width="8" stroke-linecap="round" stroke-linejoin="round" /><polyline points="358.87,551.78 359.11,550.48 359.95,548.37 367.81,529.97 370.78,523.07 374.28,514.48 375.13,511.33" fill="none" stroke="#bcbcbc" stroke-width="8" stroke-linecap="round" stroke-linejoin="round" /><polyline points="208.04,474.10 199.11,469.78 178.79,459.94 153.86,447.88 151.64,446.80" fill="none" stroke="#bcbcbc" stroke-width="8" stroke-linecap="round" stroke-linejoin="round" /><polyline points="354.83,331.72 357.08,329.41 363.08,323.27 367.84,318.08" fill="none" stroke="#bcbcbc" stroke-width="8" stroke-linecap="round" stroke-linejoin="round" /><polyline points="181.68,345.40 179.20,342.12 167.59,326.75 151.02,313.33" fill="none" stroke="#bcbcbc" stroke-width="8" stroke-linecap="round" stroke-linejoin="round" /><polyline points="109.76,547.76 112.02,542.39 119.23,524.42 120.10,522.06 121.07,519.45 121.44,518.50 121.54,517.03 122.46,503.06 122.72,499.05" fill="none" stroke="#bcbcbc" stroke-width="8" stroke-linecap="round" stroke-linejoin="round" /><polyline points="104.84,403.34 109.34,387.74 115.27,367.16 116.01,364.61 116.82,361.72 118.65,355.24 118.85,354.56 119.37,352.48 120.21,350.12 120.41,349.55 121.46,346.94 123.53,342.37 124.15,341.06" fill="none" stroke="#bcbcbc" stroke-width="8" stroke-linecap="round" stroke-linejoin="round" /><polyline points="116.01,364.61 125.11,366.94 144.39,371.90 155.38,375.32 159.96,376.39" fill="none" stroke="#bcbcbc" stroke-width="8" stroke-linecap="round" stroke-linejoin="round" /><polyline points="303.37,293.82 303.68,291.92 303.99,289.96 305.33,283.38 308.66,268.06 311.40,254.37 311.90,251.52 312.58,247.67 312.59,247.66" fill="none" stroke="#bcbcbc" stroke-width="8" stroke-linecap="round" stroke-linejoin="round" /><polyline points="276.42,588.70 280.49,578.33 280.99,576.47 297.12,535.53 298.25,532.57 299.17,530.07 308.81,502.03 310.66,500.41" fill="none" stroke="#bcbcbc" stroke-width="8" stroke-linecap="round" stroke-linejoin="round" /><polyline points="331.71,285.89 331.71,285.89 331.13,282.89 331.04,282.53 329.65,276.86 329.65,276.84 328.70,273.00 324.68,259.20 324.17,257.73 321.45,250.34 320.57,248.13 320.00,246.71 319.26,245.09 319.26,245.09 319.26,245.08 318.72,239.14 318.67,236.23" fill="none" stroke="#bcbcbc" stroke-width="8" stroke-linecap="round" stroke-linejoin="round" /><polyline points="325.67,519.92 324.64,521.04 323.10,522.88 318.75,535.13 317.49,538.68" fill="none" stroke="#bcbcbc" stroke-width="8" stroke-linecap="round" stroke-linejoin="round" /><polyline points="253.48,342.36 254.07,340.75 254.21,340.38 257.03,332.50 258.09,329.18 266.73,303.74" fill="none" stroke="#bcbcbc" stroke-width="8" stroke-linecap="round" stroke-linejoin="round" /><polyline points="298.22,378.01 299.10,375.67 301.49,369.32 302.50,366.64 303.18,364.82 305.10,359.73 306.37,356.36 306.54,355.91 309.61,347.76 310.89,348.15 311.58,346.26 312.81,342.91 312.58,341.39 315.84,332.50 316.18,331.59 316.80,331.02 317.32,330.54 320.59,321.59 321.07,319.14 325.76,306.09 326.87,305.22 329.13,298.83 328.73,297.84 330.71,291.87 329.68,286.54" fill="none" stroke="#bcbcbc" stroke-width="8" stroke-linecap="round" stroke-linejoin="round" /><polyline points="382.24,135.23 380.93,133.07 374.01,121.72" fill="none" stroke="#bcbcbc" stroke-width="8" stroke-linecap="round" stroke-linejoin="round" /><polyline points="403.91,284.75 435.65,305.16 435.66,305.18 435.66,305.18 441.53,305.94" fill="none" stroke="#bcbcbc" stroke-width="8" stroke-linecap="round" stroke-linejoin="round" /><polyline points="391.18,242.11 424.95,259.06 425.97,259.83 425.90,265.37 426.59,271.07" fill="none" stroke="#bcbcbc" stroke-width="8" stroke-linecap="round" stroke-linejoin="round" /><polyline points="326.79,541.63 325.58,545.33 320.66,560.34 312.29,585.61 311.70,587.41 311.09,589.22 310.93,591.16" fill="none" stroke="#bcbcbc" stroke-width="8" stroke-linecap="round" stroke-linejoin="round" /><polyline points="421.86,450.46 422.07,448.58 422.11,446.82 422.10,446.76 420.90,441.59 420.41,439.42 420.17,438.38 419.93,437.32 418.62,431.53 416.05,419.96 414.19,413.01 413.92,411.93" fill="none" stroke="#bcbcbc" stroke-width="8" stroke-linecap="round" stroke-linejoin="round" /><polyline points="254.20,556.33 255.04,553.95 264.44,527.23 265.51,524.19" fill="none" stroke="#bcbcbc" stroke-width="8" stroke-linecap="round" stroke-linejoin="round" /><polyline points="465.35,338.70 462.58,337.91 443.79,309.08 441.53,305.94" fill="none" stroke="#bcbcbc" stroke-width="8" stroke-linecap="round" stroke-linejoin="round" /><polyline points="156.47,407.88 224.95,424.28 229.67,426.01" fill="none" stroke="#bcbcbc" stroke-width="8" stroke-linecap="round" stroke-linejoin="round" /><polyline points="372.45,151.53 399.13,161.41 402.88,160.77" fill="none" stroke="#bcbcbc" stroke-width="8" stroke-linecap="round" stroke-linejoin="round" />
    <polyline points="352.80,280.03 351.85,280.39 350.10,280.87 349.92,280.92 342.61,282.80 334.19,285.16 332.47,285.65 331.71,285.89 329.68,286.54 327.96,287.02 320.41,289.12 308.00,292.65 303.37,293.82 301.63,294.25 293.36,296.28 288.25,297.71 277.43,300.73 266.73,303.74 265.50,304.09 256.56,306.57 252.44,307.71 250.35,308.70 246.41,310.65 238.59,314.62 238.04,314.90 236.22,315.81 235.12,316.36 233.57,317.17 228.07,320.06 218.05,325.68 209.68,330.06 208.48,330.69 206.88,330.79 205.92,331.30 205.73,331.40 196.65,336.38 194.75,336.37 192.57,337.51 191.81,337.91 191.16,338.25 189.65,339.04 188.45,341.77 183.31,344.52 181.68,345.40 179.91,346.36 172.76,350.25 169.06,352.26 167.20,352.80" fill="none" stroke="#ffffff" stroke-width="16" stroke-linecap="round" stroke-linejoin="round" />
    <polyline points="352.80,280.03 351.85,280.39 350.10,280.87 349.92,280.92 342.61,282.80 334.19,285.16 332.47,285.65 331.71,285.89 329.68,286.54 327.96,287.02 320.41,289.12 308.00,292.65 303.37,293.82 301.63,294.25 293.36,296.28 288.25,297.71 277.43,300.73 266.73,303.74 265.50,304.09 256.56,306.57 252.44,307.71 250.35,308.70 246.41,310.65 238.59,314.62 238.04,314.90 236.22,315.81 235.12,316.36 233.57,317.17 228.07,320.06 218.05,325.68 209.68,330.06 208.48,330.69 206.88,330.79 205.92,331.30 205.73,331.40 196.65,336.38 194.75,336.37 192.57,337.51 191.81,337.91 191.16,338.25 189.65,339.04 188.45,341.77 183.31,344.52 181.68,345.40 179.91,346.36 172.76,350.25 169.06,352.26 167.20,352.80" fill="none" stroke="#111111" stroke-width="9" stroke-linecap="round" stroke-linejoin="round" />
    
            <g transform="translate(352.80,280.03)">
              <circle r="19" fill="#ffffff" stroke="#111111" stroke-width="4" />
              <text text-anchor="middle" dominant-baseline="central" font-family="Helvetica, Arial, sans-serif"
                font-size="18" font-weight="700" fill="#111111">1</text>
            </g>
            
            <g transform="translate(167.20,352.80)">
              <circle r="19" fill="#ffffff" stroke="#111111" stroke-width="4" />
              <text text-anchor="middle" dominant-baseline="central" font-family="Helvetica, Arial, sans-serif"
                font-size="18" font-weight="700" fill="#111111">2</text>
            </g>
            
  </g>
</svg>
