<svg xmlns="http://www.w3.org/2000/svg" width="520" height="520" viewBox="0 0 520 520">
  <rect width="100%" height="100%" fill="#ffffff" />
  <g>
    <polyline points="310.26,-81.22 311.74,-73.37 321.26,-6.74 319.81,9.92" fill="none" stroke="#bcbcbc" stroke-width="8" stroke-linecap="round" stroke-linejoin="round" /><polyline points="116.65,474.05 118.96,466.97 131.16,429.44 132.60,425.02 134.05,420.38 164.73,322.54 167.20,314.67 161.55,300.75" fill="none" stroke="#bcbcbc" stroke-width="8" stroke-linecap="round" stroke-linejoin="round" /><polyline points="-95.28,387.02 -95.78,381.41 -85.75,325.23 -84.34,318.20 -83.29,314.52 -80.53,300.27 -77.43,282.83 -74.04,267.48 -70.69,252.15 -68.58,247.83 -67.20,245.19" fill="none" stroke="#bcbcbc" stroke-width="8" stroke-linecap="round" stroke-linejoin="round" /><polyline points="-37.06,-9.25 -39.44,-16.52 -64.09,-91.70 -65.30,-94.86" fill="none" stroke="#bcbcbc" stroke-width="8" stroke-linecap="round" stroke-linejoin="round" /><polyline points="-163.54,652.40 -162.81,645.22 -162.51,641.93 -159.83,612.25 -156.89,586.11 -156.20,580.01 -155.57,572.69 -155.50,572.07 -153.83,557.52 -152.39,542.72 -150.81,528.44 -149.75,517.32 -149.30,510.46 -148.91,504.13 -148.21,496.99" fill="none" stroke="#bcbcbc" stroke-width="8" stroke-linecap="round" stroke-linejoin="round" /><polyline points="177.07,491.49 178.82,485.97 191.19,447.09 192.60,442.67 194.59,436.37 196.03,431.86 206.97,384.65" fill="none" stroke="#bcbcbc" stroke-width="8" stroke-linecap="round" stroke-linejoin="round" /><polyline points="128.98,-277.63 133.55,-276.93 259.43,-257.59" fill="none" stroke="#bcbcbc" stroke-width="8" stroke-linecap="round" stroke-linejoin="round" /><polyline points="-194.17,482.33 -207.27,481.72 -215.26,481.34 -219.60,481.14 -223.41,480.97 -253.07,479.59 -294.34,477.67 -314.01,474.88 -320.59,473.94 -326.31,472.94 -364.99,466.11 -370.40,465.15 -371.60,464.95 -378.28,463.80 -383.41,462.92 -416.19,460.03 -422.44,459.48 -424.73,459.27 -431.81,458.78 -445.69,457.82" fill="none" stroke="#bcbcbc" stroke-width="8" stroke-linecap="round" stroke-linejoin="round" /><polyline points="-3.82,444.32 -1.28,437.09 21.59,373.70 49.10,293.75 50.86,288.74 52.09,285.23 53.08,282.36" fill="none" stroke="#bcbcbc" stroke-width="8" stroke-linecap="round" stroke-linejoin="round" /><polyline points="-424.73,459.27 -425.31,455.20 -425.45,450.77 -424.58,441.86 -422.59,425.58 -421.26,420.11 -419.11,400.36 -418.71,395.96 -418.08,390.31 -417.61,386.11 -416.73,381.35 -415.09,368.54 -413.95,358.74 -412.28,354.73" fill="none" stroke="#bcbcbc" stroke-width="8" stroke-linecap="round" stroke-linejoin="round" /><polyline points="-448.13,349.72 -417.63,353.98 -412.28,354.73 -408.97,355.25 -395.30,357.43 -363.80,362.45 -358.39,363.35" fill="none" stroke="#bcbcbc" stroke-width="8" stroke-linecap="round" stroke-linejoin="round" /><polyline points="113.23,-50.41 113.43,-47.64 113.84,-44.83 114.83,-42.68 116.68,-40.28 120.11,-37.16 128.24,-32.21 190.96,7.13 229.58,58.91 258.76,130.91 260.66,135.67" fill="none" stroke="#bcbcbc" stroke-width="8" stroke-linecap="round" stroke-linejoin="round" /><polyline points="103.19,159.67 104.49,161.82 104.82,162.38 105.90,167.81 113.26,203.39 115.60,214.68 117.27,222.72 119.87,239.03 121.09,246.55 121.93,251.13 122.85,255.28 123.94,257.69 125.55,260.49 126.42,261.81 142.71,285.14 151.53,299.02 153.82,302.34" fill="none" stroke="#bcbcbc" stroke-width="8" stroke-linecap="round" stroke-linejoin="round" /><polyline points="-364.62,605.16 -363.75,599.83 -362.95,595.96 -362.73,595.45 -351.89,569.66 -344.97,552.90 -342.87,547.59 -340.65,541.97 -338.23,537.13 -337.84,536.19 -334.54,528.19 -331.98,521.12 -329.79,514.63 -328.39,510.05 -326.83,504.38 -325.04,496.78 -323.67,490.62 -322.04,482.02 -321.69,480.10 -320.59,473.94" fill="none" stroke="#bcbcbc" stroke-width="8" stroke-linecap="round" stroke-linejoin="round" /><polyline points="160.87,-114.98 195.45,-90.82 200.11,-89.83 203.52,-85.93" fill="none" stroke="#bcbcbc" stroke-width="8" stroke-linecap="round" stroke-linejoin="round" /><polyline points="15.65,108.18 20.22,109.94 40.07,116.43 86.10,134.08 88.68,136.66 89.89,138.58" fill="none" stroke="#bcbcbc" stroke-width="8" stroke-linecap="round" stroke-linejoin="round" /><polyline points="101.42,561.75 104.56,553.58 120.03,511.60 130.97,479.89 133.24,478.84" fill="none" stroke="#bcbcbc" stroke-width="8" stroke-linecap="round" stroke-linejoin="round" /><polyline points="-117.31,508.52 -114.87,503.12 -114.63,502.59 -110.45,488.58 -103.60,465.51 -101.85,459.61 -100.49,455.02 -100.31,452.35 -100.59,446.44" fill="none" stroke="#bcbcbc" stroke-width="8" stroke-linecap="round" stroke-linejoin="round" /><polyline points="167.11,161.51 163.19,162.32 154.30,160.74 152.92,157.07 137.52,151.20 133.87,152.15 119.98,147.05 117.90,148.50" fill="none" stroke="#bcbcbc" stroke-width="8" stroke-linecap="round" stroke-linejoin="round" /><polyline points="144.24,-314.95 151.22,-313.24 155.08,-312.57 246.90,-296.65" fill="none" stroke="#bcbcbc" stroke-width="8" stroke-linecap="round" stroke-linejoin="round" /><polyline points="72.87,536.19 76.69,525.42 84.11,504.49 88.91,495.58 95.81,476.25 98.57,468.54" fill="none" stroke="#bcbcbc" stroke-width="8" stroke-linecap="round" stroke-linejoin="round" /><polyline points="-430.24,118.25 -436.89,117.94 -438.56,119.97 -450.15,134.05 -490.65,180.83 -496.35,187.41" fill="none" stroke="#bcbcbc" stroke-width="8" stroke-linecap="round" stroke-linejoin="round" /><polyline points="-74.99,158.32 -77.92,164.82 -78.28,165.60 -88.48,192.20 -98.76,221.48 -101.50,229.29 -103.06,233.32" fill="none" stroke="#bcbcbc" stroke-width="8" stroke-linecap="round" stroke-linejoin="round" /><polyline points="74.63,-140.53 77.87,-136.14 80.19,-130.09 83.79,-121.41 89.56,-107.77 94.68,-95.52 100.56,-82.06 104.92,-71.70 105.56,-70.21 105.60,-70.12 109.11,-61.92 110.15,-59.59 111.15,-57.37 112.21,-55.29 113.00,-53.18 113.23,-50.41" fill="none" stroke="#bcbcbc" stroke-width="8" stroke-linecap="round" stroke-linejoin="round" /><polyline points="-173.44,289.43 -171.74,288.50 -169.37,286.62 -168.18,284.17 -152.42,224.42 -151.94,221.05 -150.02,214.89" fill="none" stroke="#bcbcbc" stroke-width="8" stroke-linecap="round" stroke-linejoin="round" /><polyline points="377.60,195.92 379.83,203.02 381.41,210.47 378.34,238.87 374.80,260.23 372.87,267.52 372.69,268.18 371.00,272.11 368.69,276.28 363.30,283.10 365.91,296.43 357.46,325.05 352.80,340.85 343.26,366.72 329.29,398.22 312.23,428.40 306.90,438.21 297.27,454.33 258.79,508.95 250.36,520.31 217.71,562.97 198.96,584.30 172.74,610.94 170.32,611.19 164.40,616.03" fill="none" stroke="#bcbcbc" stroke-width="8" stroke-linecap="round" stroke-linejoin="round" /><polyline points="-97.24,663.09 -86.50,629.78 -84.74,624.28 -82.36,620.81 -77.23,605.41 -75.56,600.18 -54.36,533.83 -52.23,527.16 -50.47,521.30 -25.47,442.59" fill="none" stroke="#bcbcbc" stroke-width="8" stroke-linecap="round" stroke-linejoin="round" /><polyline points="154.41,43.53 163.69,33.39 166.43,30.09 185.19,3.51" fill="none" stroke="#bcbcbc" stroke-width="8" stroke-linecap="round" stroke-linejoin="round" /><polyline points="-31.20,47.55 -5.63,56.46 -4.22,58.75 3.04,61.19 7.35,62.66 27.97,69.62" fill="none" stroke="#bcbcbc" stroke-width="8" stroke-linecap="round" stroke-linejoin="round" /><polyline points="191.69,-129.40 203.52,-85.93 217.21,-34.72 219.29,-30.45 219.62,-25.57 228.90,-8.24 253.96,38.49 259.44,46.57 261.03,48.94 298.47,118.93 315.67,134.57 318.09,137.68 321.49,140.59 354.16,168.53 356.38,170.42 362.24,173.54" fill="none" stroke="#bcbcbc" stroke-width="8" stroke-linecap="round" stroke-linejoin="round" /><polyline points="64.64,670.16 146.11,622.84 160.61,615.42 164.40,616.03" fill="none" stroke="#bcbcbc" stroke-width="8" stroke-linecap="round" stroke-linejoin="round" /><polyline points="152.97,602.46 158.03,596.45 203.41,505.90 206.42,499.96 208.93,494.08 223.59,457.83 227.95,446.91 240.59,408.68 248.78,359.52 249.75,352.36" fill="none" stroke="#bcbcbc" stroke-width="8" stroke-linecap="round" stroke-linejoin="round" /><polyline points="117.95,69.93 117.15,70.75 116.06,74.56 115.95,74.94 111.03,93.90 112.32,98.85 111.24,103.29 109.84,109.10 106.24,113.27 102.14,129.84 97.33,133.48 92.18,137.01 89.89,138.58" fill="none" stroke="#bcbcbc" stroke-width="8" stroke-linecap="round" stroke-linejoin="round" /><polyline points="-74.99,158.32 -72.89,152.95 -60.30,120.68 -57.56,113.64 -55.29,107.84 -39.21,66.63 -31.96,49.39 -31.20,47.55 -25.57,33.95 -12.94,2.59 -8.32,-10.76 -7.29,-13.82 -5.91,-17.30" fill="none" stroke="#bcbcbc" stroke-width="8" stroke-linecap="round" stroke-linejoin="round" /><polyline points="65.90,-37.33 68.34,-30.08 148.24,38.17 191.84,76.10 256.97,132.71 262.65,137.26 265.20,138.85 276.50,149.11 291.59,161.98 325.82,191.16 336.88,200.67 344.21,209.45" fill="none" stroke="#bcbcbc" stroke-width="8" stroke-linecap="round" stroke-linejoin="round" /><polyline points="198.01,-154.93 202.07,-157.52 226.08,-167.50 231.01,-172.69" fill="none" stroke="#bcbcbc" stroke-width="8" stroke-linecap="round" stroke-linejoin="round" /><polyline points="225.75,452.44 192.60,442.67 132.60,425.02" fill="none" stroke="#bcbcbc" stroke-width="8" stroke-linecap="round" stroke-linejoin="round" /><polyline points="118.74,-252.61 123.27,-249.49 270.82,-216.66" fill="none" stroke="#bcbcbc" stroke-width="8" stroke-linecap="round" stroke-linejoin="round" /><polyline points="300.99,233.14 293.37,216.18 276.45,175.82 275.19,172.61 272.29,165.25 261.38,137.49 260.70,135.69" fill="none" stroke="#bcbcbc" stroke-width="8" stroke-linecap="round" stroke-linejoin="round" /><polyline points="74.63,-140.53 66.44,-142.86 60.42,-144.65 48.19,-148.29 41.97,-150.06 38.41,-151.05 33.76,-152.38" fill="none" stroke="#bcbcbc" stroke-width="8" stroke-linecap="round" stroke-linejoin="round" /><polyline points="-138.95,81.44 -139.36,80.08 -139.74,79.13 -141.43,74.94 -147.97,59.69 -154.19,44.20 -155.53,40.54 -157.08,36.33 -158.18,32.89 -160.01,27.72 -160.20,27.18 -166.15,12.52 -177.07,-15.02 -179.52,-16.42 -181.26,-20.89 -184.74,-32.99 -190.71,-47.98 -191.99,-51.39" fill="none" stroke="#bcbcbc" stroke-width="8" stroke-linecap="round" stroke-linejoin="round" /><polyline points="-86.50,629.78 -80.30,631.68 -60.24,637.79 -53.96,639.70" fill="none" stroke="#bcbcbc" stroke-width="8" stroke-linecap="round" stroke-linejoin="round" /><polyline points="288.11,-147.71 289.27,-152.44 288.80,-154.23 288.23,-156.40 284.56,-169.82 276.40,-198.18 272.09,-212.68 270.82,-216.66 259.43,-257.59 253.28,-279.67 246.90,-296.65 241.14,-311.96 235.41,-322.49 229.83,-328.05 187.04,-380.33 183.88,-384.06 181.78,-387.50" fill="none" stroke="#bcbcbc" stroke-width="8" stroke-linecap="round" stroke-linejoin="round" /><polyline points="113.23,-50.41 111.02,-49.57 106.94,-48.44 106.54,-48.33 89.49,-43.97 69.90,-38.45 65.90,-37.33 64.12,-36.76 59.41,-35.25 55.39,-34.13 37.82,-29.24 8.92,-21.03 -1.85,-18.31 -5.91,-17.30 -25.16,-12.57 -37.06,-9.25 -62.25,-2.22 -87.15,4.80 -90.03,5.60 -110.84,11.38 -120.44,14.04 -125.28,16.33 -134.46,20.88 -152.68,30.13 -153.95,30.77 -158.18,32.89 -160.76,34.18 -164.36,36.07 -177.17,42.78 -200.49,55.87 -219.98,66.07 -222.77,67.53 -226.49,67.77 -228.73,68.95 -229.17,69.19 -250.31,80.78 -254.74,80.76 -259.82,83.41 -261.60,84.34 -263.09,85.13 -266.63,86.98 -269.41,93.33 -281.38,99.73 -285.18,101.77 -289.30,104.01 -305.94,113.07 -314.55,117.75 -318.88,119.00" fill="none" stroke="#bcbcbc" stroke-width="8" stroke-linecap="round" stroke-linejoin="round" /><polyline points="-301.87,5.70 -291.38,26.23 -289.79,32.10 -280.95,48.96 -277.31,53.78 -262.54,82.51 -261.60,84.34" fill="none" stroke="#bcbcbc" stroke-width="8" stroke-linecap="round" stroke-linejoin="round" /><polyline points="19.55,188.29 17.98,192.61 17.54,193.95 15.49,200.16 2.51,236.36 -3.93,254.34 -4.15,254.95 -6.74,260.54 -8.22,263.86" fill="none" stroke="#bcbcbc" stroke-width="8" stroke-linecap="round" stroke-linejoin="round" /><polyline points="191.69,-129.40 190.25,-132.48 186.47,-132.98 174.24,-130.17 171.76,-130.50 169.81,-133.11 166.35,-149.02 185.09,-151.92 193.77,-154.48 198.01,-154.93 202.59,-138.68" fill="none" stroke="#bcbcbc" stroke-width="8" stroke-linecap="round" stroke-linejoin="round" /><polyline points="259.44,46.57 264.27,43.86 288.52,29.24 295.00,25.39 306.35,18.62 325.01,6.55 329.37,3.42 362.11,-16.89" fill="none" stroke="#bcbcbc" stroke-width="8" stroke-linecap="round" stroke-linejoin="round" /><polyline points="373.88,142.49 365.61,140.03 360.79,136.08 342.40,120.17 341.78,119.61 337.33,115.64 334.72,111.01 288.52,29.24" fill="none" stroke="#bcbcbc" stroke-width="8" stroke-linecap="round" stroke-linejoin="round" /><polyline points="-147.47,136.02 -74.99,158.32 -69.07,160.19 -14.98,177.34 -13.85,177.69 -5.75,180.26 -1.77,181.53 3.41,182.94 14.09,186.56 19.55,188.29 24.46,189.85 64.72,202.62 107.21,215.97 110.72,217.07 115.60,214.68" fill="none" stroke="#bcbcbc" stroke-width="8" stroke-linecap="round" stroke-linejoin="round" /><polyline points="65.65,-221.81 97.05,-250.66 102.36,-255.54" fill="none" stroke="#bcbcbc" stroke-width="8" stroke-linecap="round" stroke-linejoin="round" /><polyline points="-460.11,243.68 -344.90,256.03" fill="none" stroke="#bcbcbc" stroke-width="8" stroke-linecap="round" stroke-linejoin="round" /><polyline points="-112.56,-77.86 -88.35,-86.52 -63.37,-95.55 -47.85,-101.59 -0.47,-118.82 13.28,-123.57 16.16,-124.57 19.60,-125.75 23.47,-127.08 23.94,-127.24 31.74,-130.38 35.14,-131.74" fill="none" stroke="#bcbcbc" stroke-width="8" stroke-linecap="round" stroke-linejoin="round" /><polyline points="50.07,508.06 72.87,536.19 86.83,550.24 92.87,554.59 101.42,561.75 109.46,568.50 116.36,575.23 116.53,578.65" fill="none" stroke="#bcbcbc" stroke-width="8" stroke-linecap="round" stroke-linejoin="round" /><polyline points="74.63,-140.53 83.57,-162.92 98.03,-199.79 118.74,-252.61 128.98,-277.63 144.24,-314.95 156.75,-345.51 158.99,-349.56 169.99,-367.55 170.70,-368.71 174.72,-376.63 181.78,-387.50 185.72,-393.56 191.30,-402.14" fill="none" stroke="#bcbcbc" stroke-width="8" stroke-linecap="round" stroke-linejoin="round" /><polyline points="-136.14,458.19 -137.61,459.36 -138.57,460.76 -140.55,466.57 -141.91,470.76 -148.20,489.58 -149.07,492.30 -149.61,493.98 -155.39,492.33 -169.45,487.61 -183.39,482.94 -194.17,482.33" fill="none" stroke="#bcbcbc" stroke-width="8" stroke-linecap="round" stroke-linejoin="round" /><polyline points="-411.64,589.16 -388.66,529.84 -386.11,523.38 -383.81,517.16 -381.04,509.64 -377.65,497.82 -374.10,483.13 -372.65,472.60 -371.60,464.95 -370.11,459.30 -364.70,416.88 -358.39,363.35 -355.12,337.83 -351.47,307.85 -344.90,256.03 -343.86,247.22 -337.22,193.02 -337.21,190.01 -335.74,173.92 -331.51,139.96 -330.44,134.03 -329.34,130.71 -327.60,127.05 -325.92,124.21 -322.20,120.19 -318.88,119.04" fill="none" stroke="#bcbcbc" stroke-width="8" stroke-linecap="round" stroke-linejoin="round" /><polyline points="89.89,138.58 91.15,140.57 95.36,147.15 101.67,157.26 103.19,159.67 105.70,157.76 117.90,148.50" fill="none" stroke="#bcbcbc" stroke-width="8" stroke-linecap="round" stroke-linejoin="round" /><polyline points="98.03,-199.79 222.15,-177.35 235.19,-170.49 283.82,-146.39 288.11,-147.71" fill="none" stroke="#bcbcbc" stroke-width="8" stroke-linecap="round" stroke-linejoin="round" /><polyline points="-138.95,81.44 -141.15,84.65 -160.95,94.31 -175.50,112.80 -191.19,122.51 -201.93,130.62 -212.17,138.97 -217.42,143.76 -226.69,155.52 -237.06,170.38 -238.77,173.14" fill="none" stroke="#bcbcbc" stroke-width="8" stroke-linecap="round" stroke-linejoin="round" /><polyline points="-118.01,94.70 -118.87,96.61 -120.75,99.35 -124.30,103.72 -145.21,130.14 -156.28,159.94 -212.14,138.95" fill="none" stroke="#bcbcbc" stroke-width="8" stroke-linecap="round" stroke-linejoin="round" /><polyline points="-201.93,130.62 -204.09,124.07 -213.44,95.77 -217.06,90.18 -223.14,71.96 -223.66,70.39 -222.77,67.53 -224.22,62.89 -253.43,-30.37" fill="none" stroke="#bcbcbc" stroke-width="8" stroke-linecap="round" stroke-linejoin="round" /><polyline points="140.32,-378.21 163.40,-377.60 164.48,-377.57 168.90,-377.44 174.72,-376.63" fill="none" stroke="#bcbcbc" stroke-width="8" stroke-linecap="round" stroke-linejoin="round" /><polyline points="21.59,373.70 13.71,373.61 -53.03,382.57 -57.84,383.07 -63.35,383.65 -95.28,387.02 -138.31,391.57 -161.12,393.97 -173.74,395.31 -183.98,396.55 -189.24,397.19 -195.17,397.91 -223.79,401.39 -230.65,402.22 -251.79,404.53 -364.70,416.88" fill="none" stroke="#bcbcbc" stroke-width="8" stroke-linecap="round" stroke-linejoin="round" /><polyline points="-77.23,605.41 -83.14,603.51 -110.75,594.62 -116.33,592.83 -121.18,591.27 -150.44,581.86 -156.20,580.01 -163.83,577.55 -210.41,562.57 -215.65,560.88" fill="none" stroke="#bcbcbc" stroke-width="8" stroke-linecap="round" stroke-linejoin="round" /><polyline points="38.24,46.35 54.31,51.35 113.04,69.49 113.59,69.66 117.95,69.93" fill="none" stroke="#bcbcbc" stroke-width="8" stroke-linecap="round" stroke-linejoin="round" /><polyline points="203.52,-85.93 283.43,-84.52" fill="none" stroke="#bcbcbc" stroke-width="8" stroke-linecap="round" stroke-linejoin="round" /><polyline points="164.40,616.03 152.97,602.46 148.18,596.88 144.06,593.04 138.58,588.94 127.37,582.22 116.53,578.65 94.47,571.84 76.43,566.11 86.83,550.24" fill="none" stroke="#bcbcbc" stroke-width="8" stroke-linecap="round" stroke-linejoin="round" /><polyline points="50.07,508.06 34.17,488.43 31.14,484.70 15.12,462.63 11.50,455.89 12.37,447.87 17.20,447.82 29.11,450.12 47.24,453.60" fill="none" stroke="#bcbcbc" stroke-width="8" stroke-linecap="round" stroke-linejoin="round" /><polyline points="-157.99,350.78 -155.06,357.09 -138.31,391.57 -113.40,442.84 -110.22,449.38" fill="none" stroke="#bcbcbc" stroke-width="8" stroke-linecap="round" stroke-linejoin="round" /><polyline points="-426.28,506.96 -420.29,509.41 -392.23,520.88 -386.11,523.38 -379.66,526.02 -346.63,539.52 -340.65,541.97" fill="none" stroke="#bcbcbc" stroke-width="8" stroke-linecap="round" stroke-linejoin="round" /><polyline points="-144.21,299.65 -85.75,325.23" fill="none" stroke="#bcbcbc" stroke-width="8" stroke-linecap="round" stroke-linejoin="round" /><polyline points="117.95,69.93 126.85,70.40 127.42,70.90 131.42,74.45 137.29,79.69 138.37,81.80 158.61,99.52 160.11,102.35 174.34,114.91 177.92,116.00 188.99,125.70 191.47,126.83 208.17,140.99 211.89,144.29 213.94,147.55" fill="none" stroke="#bcbcbc" stroke-width="8" stroke-linecap="round" stroke-linejoin="round" /><polyline points="-442.78,299.71 -351.47,307.85" fill="none" stroke="#bcbcbc" stroke-width="8" stroke-linecap="round" stroke-linejoin="round" /><polyline points="-238.91,639.70 -236.08,633.68 -235.35,631.00 -231.39,616.38 -217.02,565.73 -215.65,560.88 -214.19,555.56 -207.69,531.77 -196.70,491.59 -194.17,482.33" fill="none" stroke="#bcbcbc" stroke-width="8" stroke-linecap="round" stroke-linejoin="round" /><polyline points="-157.99,350.78 -144.21,299.65 -173.44,289.43 -181.09,293.95 -184.58,296.60 -187.16,300.09 -188.98,304.71 -195.70,329.55 -190.28,332.31 -184.80,333.64 -172.68,336.80 -163.62,339.68 -157.99,350.78" fill="none" stroke="#bcbcbc" stroke-width="8" stroke-linecap="round" stroke-linejoin="round" /><polyline points="-195.70,329.55 -202.10,328.66 -351.47,307.85" fill="none" stroke="#bcbcbc" stroke-width="8" stroke-linecap="round" stroke-linejoin="round" /><polyline points="47.24,453.60 61.10,456.63 98.57,468.54 109.04,471.85 133.91,479.03 158.96,486.26 177.51,491.62 207.17,500.18 213.30,501.95 228.27,506.97 252.91,513.53 255.08,513.94" fill="none" stroke="#bcbcbc" stroke-width="8" stroke-linecap="round" stroke-linejoin="round" /><polyline points="64.82,670.06 59.76,671.32 54.30,686.56 45.82,684.15 7.28,671.02 2.64,670.03 -7.68,669.29 -54.35,669.47 -64.64,668.17 -87.87,664.61 -97.24,663.09 -163.71,652.37 -189.45,648.26 -238.54,639.76 -246.47,638.19 -357.25,607.23 -364.24,605.27 -411.64,589.16 -423.30,585.03 -452.42,572.96 -469.02,566.68" fill="none" stroke="#bcbcbc" stroke-width="8" stroke-linecap="round" stroke-linejoin="round" /><polyline points="166.35,-149.02 161.55,-150.01 97.52,-142.44 74.63,-140.53" fill="none" stroke="#bcbcbc" stroke-width="8" stroke-linecap="round" stroke-linejoin="round" /><polyline points="47.24,453.60 49.49,449.85 62.92,415.34 77.94,363.17 81.77,351.93 83.81,348.87 98.31,302.35 99.03,296.79 99.58,293.16" fill="none" stroke="#bcbcbc" stroke-width="8" stroke-linecap="round" stroke-linejoin="round" /><polyline points="113.23,-50.41 114.76,-50.99 116.83,-52.64 119.98,-56.33 160.87,-114.98 171.76,-130.50" fill="none" stroke="#bcbcbc" stroke-width="8" stroke-linecap="round" stroke-linejoin="round" /><polyline points="295.19,165.07 296.03,162.66 316.58,138.49 318.09,137.68 321.66,132.80 333.61,119.07 337.33,115.64" fill="none" stroke="#bcbcbc" stroke-width="8" stroke-linecap="round" stroke-linejoin="round" /><polyline points="313.15,344.49 312.87,341.25 312.65,338.75 311.56,333.97 310.27,330.84 308.65,322.64 308.51,319.67 307.41,313.04 302.52,310.48 298.61,311.98 291.61,313.65 286.08,314.52 280.76,315.80 273.43,317.47 270.09,318.23" fill="none" stroke="#bcbcbc" stroke-width="8" stroke-linecap="round" stroke-linejoin="round" /><polyline points="-226.78,225.75 -211.84,190.72 -211.01,188.44" fill="none" stroke="#bcbcbc" stroke-width="8" stroke-linecap="round" stroke-linejoin="round" /><polyline points="167.11,161.51 174.32,158.72 178.08,157.26 180.99,154.31 193.00,151.35 197.03,152.38 205.73,150.14 212.36,148.43 213.94,147.55 220.37,145.98 253.24,137.92 260.70,135.69" fill="none" stroke="#bcbcbc" stroke-width="8" stroke-linecap="round" stroke-linejoin="round" /><polyline points="-136.14,458.19 -120.63,452.56 -115.45,450.97 -110.22,449.38 -100.59,446.44 -93.09,445.36 -67.48,442.56 -62.33,442.28 -39.42,442.47 -25.47,442.59 -20.22,442.32 -11.81,443.17 -9.18,443.55 -3.82,444.32 12.37,447.87" fill="none" stroke="#bcbcbc" stroke-width="8" stroke-linecap="round" stroke-linejoin="round" /><polyline points="-62.25,-2.22 -64.82,-10.90 -74.36,-43.17 -85.95,-79.96 -88.35,-86.52 -90.78,-92.68 -93.85,-101.55" fill="none" stroke="#bcbcbc" stroke-width="8" stroke-linecap="round" stroke-linejoin="round" /><polyline points="-90.00,518.00 -87.97,511.56 -67.35,446.55 -67.48,442.56" fill="none" stroke="#bcbcbc" stroke-width="8" stroke-linecap="round" stroke-linejoin="round" /><polyline points="-62.33,442.28 -58.25,387.54 -57.84,383.07 -57.22,377.88 -57.21,377.65 -56.94,371.30 -55.58,354.07 -54.81,346.04 -53.76,336.93 -52.80,330.36 -51.94,326.24 -50.86,323.13 -48.74,316.11 -44.37,301.49 -38.80,282.63 -32.66,263.33 -31.40,259.40 -30.40,256.55" fill="none" stroke="#bcbcbc" stroke-width="8" stroke-linecap="round" stroke-linejoin="round" /><polyline points="-195.70,329.55 -196.79,334.40 -196.60,335.95 -189.95,391.33 -189.24,397.19 -189.55,403.22 -191.29,437.66 -192.02,452.05 -192.40,459.47 -193.06,472.70 -193.41,479.59 -194.17,482.33" fill="none" stroke="#bcbcbc" stroke-width="8" stroke-linecap="round" stroke-linejoin="round" /><polyline points="-226.78,225.75 -250.97,218.57 -254.04,216.59 -269.09,212.21 -273.32,212.25 -292.23,206.56 -295.29,204.30 -312.49,199.09 -333.61,193.33 -333.71,193.32 -337.22,193.02" fill="none" stroke="#bcbcbc" stroke-width="8" stroke-linecap="round" stroke-linejoin="round" /><polyline points="213.94,147.55 214.78,148.65 218.28,153.88 224.77,163.54 230.87,169.66 242.60,182.82 240.62,194.99 239.61,199.56 238.21,201.49 241.15,205.84 245.70,215.20 254.80,232.74 259.27,241.38 262.06,249.14 263.31,252.75" fill="none" stroke="#bcbcbc" stroke-width="8" stroke-linecap="round" stroke-linejoin="round" /><polyline points="275.19,172.62 271.81,173.66 249.61,180.57 246.42,181.60 242.60,182.82" fill="none" stroke="#bcbcbc" stroke-width="8" stroke-linecap="round" stroke-linejoin="round" /><polyline points="115.60,214.68 122.54,212.43 172.95,186.69 179.70,183.40 203.46,176.53 226.49,170.06 230.87,169.66" fill="none" stroke="#bcbcbc" stroke-width="8" stroke-linecap="round" stroke-linejoin="round" /><polyline points="121.09,246.55 179.20,219.50 181.65,217.88 187.33,216.23 226.06,204.96 231.93,202.72 238.21,201.49" fill="none" stroke="#bcbcbc" stroke-width="8" stroke-linecap="round" stroke-linejoin="round" /><polyline points="109.23,-320.38 132.75,-317.48 135.12,-317.18 144.24,-314.95" fill="none" stroke="#bcbcbc" stroke-width="8" stroke-linecap="round" stroke-linejoin="round" /><polyline points="310.26,-81.22 314.43,-82.10 330.02,-74.46 332.08,-72.42 361.34,-22.89 362.11,-16.89 365.91,-13.72 365.31,-11.53 365.22,-7.96 365.74,-2.97 373.49,28.88 374.18,50.94 375.27,86.17 377.09,133.57 369.67,154.23 364.88,166.83 357.91,184.57 355.88,189.71 354.57,191.14 352.46,204.87" fill="none" stroke="#bcbcbc" stroke-width="8" stroke-linecap="round" stroke-linejoin="round" /><polyline points="364.36,288.54 357.25,285.44 339.46,273.03 316.00,256.55 303.09,246.11 294.39,236.79" fill="none" stroke="#bcbcbc" stroke-width="8" stroke-linecap="round" stroke-linejoin="round" /><polyline points="76.43,566.11 69.44,563.90 58.09,560.30 52.68,558.59 46.33,556.57 38.29,554.03 31.03,551.72 23.85,549.45 -8.16,539.29 -13.77,537.51 -20.73,535.30 -22.27,534.82 -40.58,529.98 -45.75,528.73 -52.23,527.16 -59.01,525.52 -83.45,519.59 -90.00,518.00 -97.05,515.56 -111.76,510.45 -117.31,508.52 -122.27,506.91 -145.31,498.72 -148.21,496.99 -149.61,493.98" fill="none" stroke="#bcbcbc" stroke-width="8" stroke-linecap="round" stroke-linejoin="round" /><polyline points="181.65,217.88 179.95,211.80 174.89,193.67 172.95,186.69 170.14,181.48 169.88,180.51 168.22,174.37 170.15,171.65 167.83,163.91 167.11,161.51" fill="none" stroke="#bcbcbc" stroke-width="8" stroke-linecap="round" stroke-linejoin="round" /><polyline points="173.19,-4.04 178.00,-6.31 204.27,-20.79 219.29,-30.45 229.88,-37.67 232.22,-39.41 240.75,-45.34 249.58,-51.86 255.17,-55.93 261.84,-60.81 285.02,-71.27 288.02,-71.11 292.42,-73.19 310.26,-81.22" fill="none" stroke="#bcbcbc" stroke-width="8" stroke-linecap="round" stroke-linejoin="round" /><polyline points="-118.01,94.70 -114.22,96.23 -111.72,97.00 -64.73,111.43 -57.56,113.64" fill="none" stroke="#bcbcbc" stroke-width="8" stroke-linecap="round" stroke-linejoin="round" /><polyline points="-453.60,200.35 -487.16,190.19" fill="none" stroke="#bcbcbc" stroke-width="8" stroke-linecap="round" stroke-linejoin="round" /><polyline points="88.60,-272.98 96.92,-262.43 98.16,-260.86 102.36,-255.54 107.15,-254.98 116.99,-253.82 118.74,-252.61" fill="none" stroke="#bcbcbc" stroke-width="8" stroke-linecap="round" stroke-linejoin="round" /><polyline points="377.60,195.92 364.41,198.38 350.89,205.73 338.35,212.71 326.50,218.64 312.17,226.42 301.80,232.71 281.30,243.70 201.27,283.96 180.53,293.10 166.82,299.03 160.03,301.25 154.41,302.30 145.21,302.86 132.12,301.00 99.45,293.16 53.08,282.36 -7.92,263.96 -30.40,256.55 -67.20,245.19 -102.39,233.58 -154.01,213.33 -179.82,202.21 -210.94,188.38 -262.56,160.10 -274.67,152.08 -305.29,132.81 -318.14,119.97 -337.40,95.03 -369.14,62.30 -381.61,51.31" fill="none" stroke="#bcbcbc" stroke-width="8" stroke-linecap="round" stroke-linejoin="round" /><polyline points="127.37,582.22 127.91,579.20 129.87,574.28 148.17,531.45 155.09,515.39 163.24,495.38 165.22,488.06" fill="none" stroke="#bcbcbc" stroke-width="8" stroke-linecap="round" stroke-linejoin="round" /><polyline points="-223.79,401.39 -244.59,391.33 -291.90,368.43 -349.94,340.34 -355.12,337.83" fill="none" stroke="#bcbcbc" stroke-width="8" stroke-linecap="round" stroke-linejoin="round" /><polyline points="117.95,69.93 123.20,64.56 137.16,50.27 148.24,38.17" fill="none" stroke="#bcbcbc" stroke-width="8" stroke-linecap="round" stroke-linejoin="round" /><polyline points="-285.18,101.77 -290.95,94.13 -317.98,58.35 -356.56,27.13" fill="none" stroke="#bcbcbc" stroke-width="8" stroke-linecap="round" stroke-linejoin="round" /><polyline points="-452.63,572.87 -447.35,560.36 -430.57,518.53 -428.54,513.05 -426.28,506.96 -425.43,504.76 -425.20,501.32 -423.05,468.80 -422.44,459.48" fill="none" stroke="#bcbcbc" stroke-width="8" stroke-linecap="round" stroke-linejoin="round" /><polyline points="-464.07,236.67 -453.60,200.35 -439.78,152.44 -438.07,146.51 -436.17,139.77 -431.91,124.68 -431.46,123.10 -430.24,118.25 -428.30,112.77 -427.83,111.44 -425.37,105.35 -420.55,94.71 -419.11,91.66" fill="none" stroke="#bcbcbc" stroke-width="8" stroke-linecap="round" stroke-linejoin="round" /><polyline points="-438.07,146.51 -416.88,151.93 -371.99,163.46 -346.41,171.43 -335.74,173.92" fill="none" stroke="#bcbcbc" stroke-width="8" stroke-linecap="round" stroke-linejoin="round" /><polyline points="-1.85,-18.31 -1.13,-22.72 -0.41,-27.30 2.70,-42.61 10.47,-78.26 16.85,-110.15 18.02,-116.77 19.60,-125.75 19.60,-125.76" fill="none" stroke="#bcbcbc" stroke-width="8" stroke-linecap="round" stroke-linejoin="round" /><polyline points="-64.60,668.17 -55.13,644.04 -53.96,639.70 -16.41,544.39 -13.77,537.51 -11.64,531.68 10.80,466.40 15.12,462.63" fill="none" stroke="#bcbcbc" stroke-width="8" stroke-linecap="round" stroke-linejoin="round" /><polyline points="64.12,-36.76 64.12,-36.77 62.79,-43.75 62.58,-44.60 59.34,-57.79 59.34,-57.83 57.13,-66.77 47.75,-98.89 46.57,-102.33 40.25,-119.53 38.19,-124.66 36.86,-127.98 35.14,-131.74 35.14,-131.74 35.14,-131.76 33.88,-145.59 33.76,-152.38" fill="none" stroke="#bcbcbc" stroke-width="8" stroke-linecap="round" stroke-linejoin="round" /><polyline points="50.07,508.07 47.66,510.67 44.07,514.94 33.96,543.46 31.03,551.72" fill="none" stroke="#bcbcbc" stroke-width="8" stroke-linecap="round" stroke-linejoin="round" /><polyline points="-118.01,94.70 -116.63,90.95 -116.32,90.08 -109.75,71.73 -107.28,64.00 -87.15,4.80" fill="none" stroke="#bcbcbc" stroke-width="8" stroke-linecap="round" stroke-linejoin="round" /><polyline points="-13.85,177.69 -11.80,172.24 -6.24,157.46 -3.88,151.21 -2.29,146.98 2.17,135.12 5.12,127.29 5.52,126.24 12.66,107.26 15.65,108.18 17.27,103.78 20.13,95.98 19.58,92.44 27.19,71.75 27.97,69.62 29.41,68.30 30.62,67.19 38.24,46.35 39.34,40.64 50.28,10.26 52.87,8.24 58.13,-6.65 57.19,-8.93 61.80,-22.84 59.41,-35.25" fill="none" stroke="#bcbcbc" stroke-width="8" stroke-linecap="round" stroke-linejoin="round" /><polyline points="181.78,-387.50 178.72,-392.52 162.61,-418.94" fill="none" stroke="#bcbcbc" stroke-width="8" stroke-linecap="round" stroke-linejoin="round" /><polyline points="232.22,-39.41 306.12,8.10 306.14,8.14 306.14,8.14 319.81,9.92" fill="none" stroke="#bcbcbc" stroke-width="8" stroke-linecap="round" stroke-linejoin="round" /><polyline points="202.59,-138.68 281.21,-99.21 283.58,-97.44 283.43,-84.52 285.02,-71.27" fill="none" stroke="#bcbcbc" stroke-width="8" stroke-linecap="round" stroke-linejoin="round" /><polyline points="52.68,558.59 49.85,567.21 38.40,602.15 18.91,660.99 17.53,665.16 16.13,669.39 15.74,673.90" fill="none" stroke="#bcbcbc" stroke-width="8" stroke-linecap="round" stroke-linejoin="round" /><polyline points="274.03,346.35 274.50,341.97 274.60,337.88 274.57,337.74 271.78,325.69 270.64,320.66 270.09,318.23 269.52,315.75 266.46,302.28 260.49,275.36 256.15,259.17 255.53,256.67" fill="none" stroke="#bcbcbc" stroke-width="8" stroke-linecap="round" stroke-linejoin="round" /><polyline points="-116.33,592.83 -114.39,587.29 -92.49,525.06 -90.00,518.00" fill="none" stroke="#bcbcbc" stroke-width="8" stroke-linecap="round" stroke-linejoin="round" /><polyline points="375.27,86.17 368.82,84.35 325.08,17.22 319.81,9.92" fill="none" stroke="#bcbcbc" stroke-width="8" stroke-linecap="round" stroke-linejoin="round" /><polyline points="-343.86,247.22 -184.43,285.41 -173.44,289.43" fill="none" stroke="#bcbcbc" stroke-width="8" stroke-linecap="round" stroke-linejoin="round" /><polyline points="158.99,-349.56 221.09,-326.56 229.83,-328.05" fill="none" stroke="#bcbcbc" stroke-width="8" stroke-linecap="round" stroke-linejoin="round" />
    <polyline points="352.80,340.85 343.92,341.67 316.17,344.21 314.92,344.33 313.15,344.49 310.29,344.75 283.38,347.22 274.03,346.35 263.13,349.08 254.40,351.22 249.75,352.36 238.20,352.80 228.20,352.29 223.11,351.75 218.77,350.44 215.58,348.67 203.68,340.26 174.78,320.41 172.05,318.56 169.28,316.68 167.20,314.67" fill="none" stroke="#ffffff" stroke-width="16" stroke-linecap="round" stroke-linejoin="round" />
    <polyline points="352.80,340.85 343.92,341.67 316.17,344.21 314.92,344.33 313.15,344.49 310.29,344.75 283.38,347.22 274.03,346.35 263.13,349.08 254.40,351.22 249.75,352.36 238.20,352.80 228.20,352.29 223.11,351.75 218.77,350.44 215.58,348.67 203.68,340.26 174.78,320.41 172.05,318.56 169.28,316.68 167.20,314.67" fill="none" stroke="#111111" stroke-width="9" stroke-linecap="round" stroke-linejoin="round" />
    
            <g transform="translate(352.80,340.85)">
              <circle r="19" fill="#ffffff" stroke="#111111" stroke-width="4" />
              <text text-anchor="middle" dominant-baseline="central" font-family="Helvetica, Arial, sans-serif"
                font-size="18" font-weight="700" fill="#111111">1</text>
            </g>
            
            <g transform="translate(167.20,314.67)">
              <circle r="19" fill="#ffffff" stroke="#111111" stroke-width="4" />
              <text text-anchor="middle" dominant-baseline="central" font-family="Helvetica, Arial, sans-serif"
                font-size="18" font-weight="700" fill="#111111">2</text>
            </g>
            
  </g>
</svg>
