<svg xmlns="http://www.w3.org/2000/svg" width="520" height="520" viewBox="0 0 520 520">
  <rect width="100%" height="100%" fill="#ffffff" />
  <g>
    <polyline points="1611.71,-37.94 1615.20,-19.41 1637.67,137.84 1634.24,177.16" fill="none" stroke="#bcbcbc" stroke-width="8" stroke-linecap="round" stroke-linejoin="round" /><polyline points="1154.83,1272.51 1160.26,1255.80 1189.06,1167.24 1192.45,1156.80 1195.88,1145.85 1268.29,914.95 1274.11,896.38 1260.77,863.53" fill="none" stroke="#bcbcbc" stroke-width="8" stroke-linecap="round" stroke-linejoin="round" /><polyline points="654.70,1067.14 653.53,1053.88 677.20,921.29 680.52,904.71 683.00,896.02 689.52,862.40 696.84,821.24 704.82,785.00 712.73,748.84 717.71,738.64 720.97,732.39" fill="none" stroke="#bcbcbc" stroke-width="8" stroke-linecap="round" stroke-linejoin="round" /><polyline points="792.10,131.91 786.47,114.75 728.30,-62.67 725.46,-70.11" fill="none" stroke="#bcbcbc" stroke-width="8" stroke-linecap="round" stroke-linejoin="round" /><polyline points="493.61,1693.42 495.35,1676.49 496.05,1668.72 502.39,1598.67 509.32,1536.99 510.94,1522.59 512.44,1505.31 512.61,1503.85 516.54,1469.50 519.93,1434.58 523.66,1400.88 526.17,1374.65 527.22,1358.45 528.15,1343.50 529.80,1326.65" fill="none" stroke="#bcbcbc" stroke-width="8" stroke-linecap="round" stroke-linejoin="round" /><polyline points="1297.39,1313.67 1301.53,1300.65 1330.73,1208.88 1334.04,1198.46 1338.76,1183.60 1342.13,1172.96 1367.97,1061.52" fill="none" stroke="#bcbcbc" stroke-width="8" stroke-linecap="round" stroke-linejoin="round" /><polyline points="1183.92,-501.47 1194.70,-499.82 1491.75,-454.18" fill="none" stroke="#bcbcbc" stroke-width="8" stroke-linecap="round" stroke-linejoin="round" /><polyline points="421.35,1292.05 390.43,1290.61 371.58,1289.73 361.34,1289.26 352.35,1288.84 282.34,1285.58 184.95,1281.05 138.54,1274.47 123.01,1272.27 109.52,1269.89 18.23,1253.78 5.47,1251.52 2.64,1251.04 -13.12,1248.34 -25.23,1246.26 -102.59,1239.42 -117.32,1238.12 -122.73,1237.64 -139.45,1236.48 -172.20,1234.21" fill="none" stroke="#bcbcbc" stroke-width="8" stroke-linecap="round" stroke-linejoin="round" /><polyline points="870.53,1202.34 876.52,1185.30 930.49,1035.70 995.41,847.01 999.56,835.17 1002.46,826.90 1004.81,820.12" fill="none" stroke="#bcbcbc" stroke-width="8" stroke-linecap="round" stroke-linejoin="round" /><polyline points="-122.73,1237.64 -124.11,1228.02 -124.43,1217.58 -122.39,1196.54 -117.68,1158.13 -114.55,1145.23 -109.46,1098.62 -108.54,1088.23 -107.05,1074.89 -105.94,1064.97 -103.86,1053.74 -99.99,1023.50 -97.31,1000.37 -93.36,990.91" fill="none" stroke="#bcbcbc" stroke-width="8" stroke-linecap="round" stroke-linejoin="round" /><polyline points="-177.96,979.09 -105.98,989.15 -93.36,990.91 -85.55,992.16 -53.28,997.30 21.06,1009.14 33.81,1011.27" fill="none" stroke="#bcbcbc" stroke-width="8" stroke-linecap="round" stroke-linejoin="round" /><polyline points="1146.75,34.78 1147.22,41.32 1148.18,47.95 1150.52,53.03 1154.90,58.68 1162.99,66.05 1182.18,77.72 1330.17,170.58 1421.32,292.79 1490.17,462.70 1494.66,473.93" fill="none" stroke="#bcbcbc" stroke-width="8" stroke-linecap="round" stroke-linejoin="round" /><polyline points="1123.05,530.57 1126.12,535.65 1126.91,536.97 1129.45,549.78 1146.82,633.75 1152.33,660.40 1156.27,679.38 1162.42,717.86 1165.29,735.60 1167.27,746.43 1169.44,756.20 1172.03,761.91 1175.83,768.51 1177.87,771.63 1216.32,826.68 1237.12,859.44 1242.54,867.27" fill="none" stroke="#bcbcbc" stroke-width="8" stroke-linecap="round" stroke-linejoin="round" /><polyline points="19.11,1581.95 21.16,1569.35 23.06,1560.24 23.57,1559.03 49.16,1498.17 65.47,1458.61 70.43,1446.08 75.68,1432.81 81.38,1421.39 82.30,1419.16 90.10,1400.30 96.14,1383.61 101.31,1368.29 104.60,1357.47 108.28,1344.10 112.53,1326.17 115.75,1311.62 119.60,1291.32 120.41,1286.79 123.01,1272.27" fill="none" stroke="#bcbcbc" stroke-width="8" stroke-linecap="round" stroke-linejoin="round" /><polyline points="1259.17,-117.61 1340.78,-60.59 1351.77,-58.25 1359.82,-49.05" fill="none" stroke="#bcbcbc" stroke-width="8" stroke-linecap="round" stroke-linejoin="round" /><polyline points="916.48,409.06 927.27,413.21 974.10,428.53 1082.72,470.19 1088.81,476.26 1091.67,480.80" fill="none" stroke="#bcbcbc" stroke-width="8" stroke-linecap="round" stroke-linejoin="round" /><polyline points="1118.89,1479.49 1126.29,1460.22 1162.80,1361.14 1188.62,1286.29 1193.98,1283.82" fill="none" stroke="#bcbcbc" stroke-width="8" stroke-linecap="round" stroke-linejoin="round" /><polyline points="602.72,1353.87 608.48,1341.13 609.05,1339.87 618.91,1306.80 635.06,1252.36 639.20,1238.43 642.41,1227.61 642.84,1221.31 642.19,1207.35" fill="none" stroke="#bcbcbc" stroke-width="8" stroke-linecap="round" stroke-linejoin="round" /><polyline points="1273.90,534.92 1264.64,536.83 1243.66,533.10 1240.41,524.44 1204.06,510.58 1195.46,512.83 1162.67,500.79 1157.78,504.21" fill="none" stroke="#bcbcbc" stroke-width="8" stroke-linecap="round" stroke-linejoin="round" /><polyline points="1219.92,-589.53 1236.40,-585.49 1245.51,-583.91 1462.19,-546.34" fill="none" stroke="#bcbcbc" stroke-width="8" stroke-linecap="round" stroke-linejoin="round" /><polyline points="1051.51,1419.16 1060.52,1393.75 1078.04,1344.36 1089.36,1323.32 1105.65,1277.71 1112.15,1259.51" fill="none" stroke="#bcbcbc" stroke-width="8" stroke-linecap="round" stroke-linejoin="round" /><polyline points="-135.75,432.82 -151.44,432.10 -155.37,436.88 -182.72,470.10 -278.29,580.51 -291.74,596.04" fill="none" stroke="#bcbcbc" stroke-width="8" stroke-linecap="round" stroke-linejoin="round" /><polyline points="702.59,527.38 695.67,542.72 694.83,544.58 670.76,607.35 646.49,676.44 640.02,694.87 636.36,704.39" fill="none" stroke="#bcbcbc" stroke-width="8" stroke-linecap="round" stroke-linejoin="round" /><polyline points="1055.66,-177.91 1063.31,-167.53 1068.77,-153.27 1077.27,-132.79 1090.90,-100.58 1102.98,-71.67 1116.84,-39.92 1127.13,-15.46 1128.65,-11.95 1128.74,-11.73 1137.02,7.62 1139.49,13.12 1141.85,18.35 1144.33,23.26 1146.21,28.24 1146.75,34.78" fill="none" stroke="#bcbcbc" stroke-width="8" stroke-linecap="round" stroke-linejoin="round" /><polyline points="470.27,836.80 474.27,834.62 479.87,830.17 482.68,824.39 519.86,683.38 520.99,675.43 525.52,660.90" fill="none" stroke="#bcbcbc" stroke-width="8" stroke-linecap="round" stroke-linejoin="round" /><polyline points="1770.60,616.13 1775.88,632.88 1779.59,650.47 1772.37,717.49 1764.01,767.91 1759.45,785.10 1759.03,786.66 1755.04,795.94 1749.59,805.78 1736.87,821.88 1743.03,853.34 1723.10,920.87 1712.09,958.17 1689.58,1019.22 1656.61,1093.56 1616.35,1164.79 1603.78,1187.94 1581.05,1225.98 1490.24,1354.87 1470.35,1381.68 1393.30,1482.37 1349.07,1532.70 1287.19,1595.59 1281.46,1596.18 1267.49,1607.60" fill="none" stroke="#bcbcbc" stroke-width="8" stroke-linecap="round" stroke-linejoin="round" /><polyline points="650.07,1718.66 675.42,1640.04 679.57,1627.05 685.20,1618.87 697.31,1582.54 701.25,1570.19 751.26,1413.61 756.29,1397.86 760.44,1384.02 819.45,1198.27" fill="none" stroke="#bcbcbc" stroke-width="8" stroke-linecap="round" stroke-linejoin="round" /><polyline points="1243.92,256.49 1265.83,232.55 1272.30,224.76 1316.57,162.04" fill="none" stroke="#bcbcbc" stroke-width="8" stroke-linecap="round" stroke-linejoin="round" /><polyline points="805.91,265.98 866.26,286.99 869.60,292.40 886.73,298.15 896.90,301.63 945.54,318.06" fill="none" stroke="#bcbcbc" stroke-width="8" stroke-linecap="round" stroke-linejoin="round" /><polyline points="1331.91,-151.65 1359.82,-49.05 1392.13,71.82 1397.03,81.89 1397.81,93.39 1419.72,134.30 1478.86,244.58 1491.78,263.65 1495.52,269.24 1583.87,434.42 1624.48,471.33 1630.17,478.68 1638.20,485.55 1715.30,551.47 1720.53,555.95 1734.37,563.30" fill="none" stroke="#bcbcbc" stroke-width="8" stroke-linecap="round" stroke-linejoin="round" /><polyline points="1032.07,1735.35 1224.34,1623.66 1258.57,1606.16 1267.49,1607.60" fill="none" stroke="#bcbcbc" stroke-width="8" stroke-linecap="round" stroke-linejoin="round" /><polyline points="1240.54,1575.56 1252.47,1561.38 1359.56,1347.68 1366.66,1333.67 1372.58,1319.80 1407.18,1234.25 1417.48,1208.47 1447.29,1118.23 1466.63,1002.22 1468.92,985.33" fill="none" stroke="#bcbcbc" stroke-width="8" stroke-linecap="round" stroke-linejoin="round" /><polyline points="1157.89,318.79 1156.01,320.71 1153.43,329.70 1153.17,330.60 1141.55,375.35 1144.60,387.04 1142.07,397.51 1138.75,411.22 1130.24,421.08 1120.59,460.17 1109.22,468.77 1097.08,477.09 1091.67,480.80" fill="none" stroke="#bcbcbc" stroke-width="8" stroke-linecap="round" stroke-linejoin="round" /><polyline points="702.59,527.38 707.53,514.71 737.25,438.54 743.72,421.94 749.06,408.26 787.03,310.99 804.12,270.32 805.91,265.98 819.20,233.86 849.00,159.86 859.92,128.35 862.35,121.13 865.61,112.93" fill="none" stroke="#bcbcbc" stroke-width="8" stroke-linecap="round" stroke-linejoin="round" /><polyline points="1035.06,65.66 1040.81,82.76 1229.37,243.83 1332.26,333.35 1485.94,466.95 1499.35,477.68 1505.36,481.44 1532.03,505.65 1567.64,536.02 1648.42,604.90 1674.51,627.34 1691.82,648.05" fill="none" stroke="#bcbcbc" stroke-width="8" stroke-linecap="round" stroke-linejoin="round" /><polyline points="1346.83,-211.88 1356.39,-218.01 1413.05,-241.56 1424.69,-253.81" fill="none" stroke="#bcbcbc" stroke-width="8" stroke-linecap="round" stroke-linejoin="round" /><polyline points="1412.27,1221.51 1334.04,1198.46 1192.45,1156.80" fill="none" stroke="#bcbcbc" stroke-width="8" stroke-linecap="round" stroke-linejoin="round" /><polyline points="1159.76,-442.42 1170.45,-435.05 1518.62,-357.58" fill="none" stroke="#bcbcbc" stroke-width="8" stroke-linecap="round" stroke-linejoin="round" /><polyline points="1589.84,703.97 1571.84,663.94 1531.91,568.69 1528.93,561.12 1522.10,543.74 1496.36,478.24 1494.74,473.99" fill="none" stroke="#bcbcbc" stroke-width="8" stroke-linecap="round" stroke-linejoin="round" /><polyline points="1055.66,-177.91 1036.33,-183.41 1022.13,-187.64 993.26,-196.21 978.59,-200.40 970.19,-202.73 959.22,-205.87" fill="none" stroke="#bcbcbc" stroke-width="8" stroke-linecap="round" stroke-linejoin="round" /><polyline points="551.66,345.94 550.68,342.74 549.78,340.50 545.80,330.60 530.36,294.62 515.69,258.07 512.53,249.44 508.88,239.49 506.27,231.36 501.96,219.17 501.50,217.89 487.47,183.30 461.71,118.29 455.92,114.99 451.81,104.45 443.59,75.90 429.51,40.51 426.48,32.47" fill="none" stroke="#bcbcbc" stroke-width="8" stroke-linecap="round" stroke-linejoin="round" /><polyline points="675.42,1640.04 690.05,1644.52 737.39,1658.94 752.21,1663.46" fill="none" stroke="#bcbcbc" stroke-width="8" stroke-linecap="round" stroke-linejoin="round" /><polyline points="1559.42,-194.85 1562.18,-206.01 1561.06,-210.24 1559.71,-215.36 1551.07,-247.02 1531.80,-313.96 1521.63,-348.18 1518.62,-357.58 1491.75,-454.18 1477.24,-506.28 1462.19,-546.34 1448.60,-582.48 1435.06,-607.33 1421.91,-620.46 1320.94,-743.85 1313.47,-752.63 1308.52,-760.75" fill="none" stroke="#bcbcbc" stroke-width="8" stroke-linecap="round" stroke-linejoin="round" /><polyline points="1146.75,34.78 1141.54,36.77 1131.92,39.43 1130.95,39.70 1090.74,49.98 1044.50,63.00 1035.06,65.66 1030.86,66.99 1019.75,70.56 1010.25,73.21 968.79,84.74 900.60,104.12 875.18,110.54 865.61,112.93 820.17,124.09 792.10,131.91 732.65,148.52 673.89,165.08 667.10,166.97 617.99,180.60 595.34,186.88 583.90,192.29 562.25,203.02 519.24,224.85 516.25,226.37 506.27,231.36 500.18,234.41 491.68,238.87 461.47,254.71 406.42,285.59 360.44,309.68 353.86,313.13 345.07,313.68 339.79,316.48 338.74,317.04 288.85,344.38 278.41,344.34 266.42,350.61 262.23,352.80 258.70,354.65 250.36,359.01 243.79,374.00 215.55,389.12 206.58,393.93 196.86,399.22 157.58,420.59 137.28,431.65 127.04,434.59" fill="none" stroke="#bcbcbc" stroke-width="8" stroke-linecap="round" stroke-linejoin="round" /><polyline points="1712.09,958.17 1691.13,960.09 1625.65,966.09 1622.70,966.36 1618.53,966.75 1611.77,967.37 1548.28,973.20 1526.20,971.15 1500.49,977.59 1479.89,982.64 1468.92,985.33 1441.66,986.36 1418.07,985.16 1406.04,983.89 1395.81,980.79 1388.27,976.62 1360.19,956.77 1291.98,909.92 1285.55,905.56 1279.01,901.12 1274.11,896.38" fill="none" stroke="#bcbcbc" stroke-width="8" stroke-linecap="round" stroke-linejoin="round" /><polyline points="925.68,598.12 921.97,608.31 920.93,611.47 916.10,626.13 885.48,711.56 870.28,753.99 869.76,755.44 863.65,768.62 860.15,776.46" fill="none" stroke="#bcbcbc" stroke-width="8" stroke-linecap="round" stroke-linejoin="round" /><polyline points="1331.91,-151.65 1328.51,-158.91 1319.59,-160.09 1290.73,-153.47 1284.86,-154.23 1280.27,-160.39 1272.10,-197.94 1316.34,-204.79 1336.81,-210.84 1346.83,-211.88 1357.61,-173.53" fill="none" stroke="#bcbcbc" stroke-width="8" stroke-linecap="round" stroke-linejoin="round" /><polyline points="1491.78,263.65 1503.17,257.25 1560.41,222.77 1575.70,213.66 1602.47,197.70 1646.52,169.21 1656.80,161.82 1734.06,113.89" fill="none" stroke="#bcbcbc" stroke-width="8" stroke-linecap="round" stroke-linejoin="round" /><polyline points="1761.84,490.04 1742.31,484.22 1730.95,474.91 1687.56,437.35 1686.08,436.03 1675.59,426.67 1669.42,415.74 1560.41,222.77" fill="none" stroke="#bcbcbc" stroke-width="8" stroke-linecap="round" stroke-linejoin="round" /><polyline points="531.55,474.75 702.59,527.38 716.55,531.81 844.19,572.27 846.85,573.11 865.98,579.18 875.38,582.16 887.59,585.50 912.79,594.03 925.68,598.12 937.27,601.80 1032.26,631.93 1132.54,663.44 1140.83,666.04 1152.33,660.40" fill="none" stroke="#bcbcbc" stroke-width="8" stroke-linecap="round" stroke-linejoin="round" /><polyline points="1034.47,-369.72 1108.57,-437.80 1121.11,-449.33" fill="none" stroke="#bcbcbc" stroke-width="8" stroke-linecap="round" stroke-linejoin="round" /><polyline points="-206.23,728.85 65.64,757.99" fill="none" stroke="#bcbcbc" stroke-width="8" stroke-linecap="round" stroke-linejoin="round" /><polyline points="613.92,-30.01 671.07,-50.45 730.01,-71.76 766.63,-85.99 878.44,-126.66 910.89,-137.89 917.67,-140.23 925.80,-143.02 934.92,-146.16 936.04,-146.55 954.46,-153.95 962.47,-157.17" fill="none" stroke="#bcbcbc" stroke-width="8" stroke-linecap="round" stroke-linejoin="round" /><polyline points="997.71,1352.79 1051.51,1419.16 1084.44,1452.32 1098.70,1462.59 1118.89,1479.49 1137.85,1495.41 1154.14,1511.30 1154.54,1519.39" fill="none" stroke="#bcbcbc" stroke-width="8" stroke-linecap="round" stroke-linejoin="round" /><polyline points="1055.66,-177.91 1076.75,-230.75 1110.87,-317.76 1159.76,-442.42 1183.92,-501.47 1219.92,-589.53 1249.44,-661.66 1254.73,-671.23 1280.69,-713.67 1282.37,-716.42 1291.86,-735.09 1308.52,-760.75 1317.82,-775.07 1330.98,-795.32" fill="none" stroke="#bcbcbc" stroke-width="8" stroke-linecap="round" stroke-linejoin="round" /><polyline points="558.27,1235.09 554.82,1237.85 552.54,1241.14 547.89,1254.86 544.67,1264.76 529.82,1309.17 527.77,1315.58 526.51,1319.56 512.87,1315.65 479.67,1304.52 446.77,1293.49 421.35,1292.05" fill="none" stroke="#bcbcbc" stroke-width="8" stroke-linecap="round" stroke-linejoin="round" /><polyline points="-91.84,1544.19 -37.63,1404.18 -31.59,1388.94 -26.18,1374.26 -19.64,1356.52 -11.63,1328.61 -3.27,1293.94 0.16,1269.09 2.64,1251.04 6.15,1237.71 18.91,1137.60 33.81,1011.27 41.53,951.04 50.13,880.29 65.64,757.99 68.11,737.19 83.78,609.29 83.79,602.17 87.25,564.21 97.25,484.05 99.76,470.07 102.37,462.23 106.46,453.59 110.44,446.89 119.21,437.39 127.06,434.70" fill="none" stroke="#bcbcbc" stroke-width="8" stroke-linecap="round" stroke-linejoin="round" /><polyline points="1091.67,480.80 1094.64,485.50 1104.58,501.02 1119.46,524.88 1123.05,530.57 1128.99,526.06 1157.78,504.21" fill="none" stroke="#bcbcbc" stroke-width="8" stroke-linecap="round" stroke-linejoin="round" /><polyline points="1110.87,-317.76 1403.79,-264.81 1434.55,-248.62 1549.32,-191.72 1559.42,-194.85" fill="none" stroke="#bcbcbc" stroke-width="8" stroke-linecap="round" stroke-linejoin="round" /><polyline points="551.66,345.94 546.46,353.52 499.73,376.33 465.41,419.95 428.37,442.89 403.04,462.01 378.88,481.73 366.49,493.02 344.60,520.78 320.13,555.86 316.10,562.36" fill="none" stroke="#bcbcbc" stroke-width="8" stroke-linecap="round" stroke-linejoin="round" /><polyline points="601.06,377.23 599.04,381.74 594.61,388.22 586.23,398.52 536.87,460.88 510.75,531.22 378.94,481.67" fill="none" stroke="#bcbcbc" stroke-width="8" stroke-linecap="round" stroke-linejoin="round" /><polyline points="403.04,462.01 397.94,446.56 375.88,379.77 367.32,366.58 352.98,323.57 351.75,319.86 353.86,313.13 350.43,302.17 281.50,82.09" fill="none" stroke="#bcbcbc" stroke-width="8" stroke-linecap="round" stroke-linejoin="round" /><polyline points="1210.68,-738.83 1265.15,-737.40 1267.69,-737.33 1278.13,-737.03 1291.86,-735.09" fill="none" stroke="#bcbcbc" stroke-width="8" stroke-linecap="round" stroke-linejoin="round" /><polyline points="930.49,1035.70 911.89,1035.47 754.40,1056.62 743.05,1057.81 730.06,1059.18 654.70,1067.14 553.17,1077.86 499.34,1083.54 469.56,1086.68 445.38,1089.62 432.97,1091.13 418.98,1092.83 351.43,1101.04 335.25,1103.00 285.36,1108.46 18.91,1137.60" fill="none" stroke="#bcbcbc" stroke-width="8" stroke-linecap="round" stroke-linejoin="round" /><polyline points="697.31,1582.54 683.36,1578.05 618.19,1557.07 605.02,1552.83 593.58,1549.15 524.55,1526.96 510.94,1522.59 492.93,1516.79 383.03,1481.42 370.66,1477.44" fill="none" stroke="#bcbcbc" stroke-width="8" stroke-linecap="round" stroke-linejoin="round" /><polyline points="969.79,263.13 1007.70,274.94 1146.31,317.75 1147.61,318.15 1157.89,318.79" fill="none" stroke="#bcbcbc" stroke-width="8" stroke-linecap="round" stroke-linejoin="round" /><polyline points="1359.82,-49.05 1548.38,-45.73" fill="none" stroke="#bcbcbc" stroke-width="8" stroke-linecap="round" stroke-linejoin="round" /><polyline points="1267.49,1607.60 1240.54,1575.56 1229.23,1562.41 1219.51,1553.33 1206.57,1543.67 1180.13,1527.80 1154.54,1519.39 1102.48,1503.31 1059.90,1489.79 1084.44,1452.32" fill="none" stroke="#bcbcbc" stroke-width="8" stroke-linecap="round" stroke-linejoin="round" /><polyline points="997.71,1352.79 960.18,1306.46 953.04,1297.65 915.24,1245.57 906.68,1229.66 908.73,1210.73 920.13,1210.62 948.25,1216.03 991.03,1224.26" fill="none" stroke="#bcbcbc" stroke-width="8" stroke-linecap="round" stroke-linejoin="round" /><polyline points="506.72,981.59 513.64,996.48 553.17,1077.86 611.94,1198.86 619.44,1214.29" fill="none" stroke="#bcbcbc" stroke-width="8" stroke-linecap="round" stroke-linejoin="round" /><polyline points="-126.40,1350.18 -112.26,1355.96 -46.05,1383.03 -31.59,1388.94 -16.38,1395.16 61.57,1427.04 75.68,1432.81" fill="none" stroke="#bcbcbc" stroke-width="8" stroke-linecap="round" stroke-linejoin="round" /><polyline points="539.25,860.94 677.20,921.29" fill="none" stroke="#bcbcbc" stroke-width="8" stroke-linecap="round" stroke-linejoin="round" /><polyline points="1157.89,318.79 1178.90,319.90 1180.24,321.09 1189.67,329.45 1203.52,341.82 1206.08,346.80 1253.84,388.62 1257.38,395.30 1290.96,424.94 1299.41,427.52 1325.54,450.40 1331.39,453.07 1370.79,486.49 1379.56,494.27 1384.40,501.97" fill="none" stroke="#bcbcbc" stroke-width="8" stroke-linecap="round" stroke-linejoin="round" /><polyline points="-165.34,861.07 50.13,880.29" fill="none" stroke="#bcbcbc" stroke-width="8" stroke-linecap="round" stroke-linejoin="round" /><polyline points="315.77,1663.45 322.45,1649.24 324.16,1642.91 333.52,1608.41 367.41,1488.89 370.66,1477.44 374.09,1464.89 389.44,1408.74 415.37,1313.91 421.35,1292.05" fill="none" stroke="#bcbcbc" stroke-width="8" stroke-linecap="round" stroke-linejoin="round" /><polyline points="506.72,981.59 539.25,860.94 470.27,836.80 452.21,847.47 443.98,853.73 437.88,861.98 433.59,872.86 417.73,931.50 430.53,938.02 443.46,941.15 472.05,948.59 493.44,955.41 506.72,981.59" fill="none" stroke="#bcbcbc" stroke-width="8" stroke-linecap="round" stroke-linejoin="round" /><polyline points="417.73,931.50 402.62,929.39 50.13,880.29" fill="none" stroke="#bcbcbc" stroke-width="8" stroke-linecap="round" stroke-linejoin="round" /><polyline points="991.03,1224.26 1023.73,1231.41 1112.15,1259.51 1136.87,1267.33 1195.56,1284.28 1254.68,1301.33 1298.44,1313.97 1368.44,1334.18 1382.89,1338.36 1418.22,1350.20 1476.37,1365.69 1481.50,1366.65" fill="none" stroke="#bcbcbc" stroke-width="8" stroke-linecap="round" stroke-linejoin="round" /><polyline points="1032.51,1735.10 1020.58,1738.09 1007.68,1774.04 987.68,1768.36 896.73,1737.36 885.78,1735.03 861.43,1733.28 751.30,1733.72 727.02,1730.63 672.19,1722.25 650.07,1718.66 493.21,1693.36 432.47,1683.67 316.63,1663.60 297.93,1659.89 36.49,1586.82 20.00,1582.20 -91.84,1544.19 -119.35,1534.42 -188.08,1505.94 -227.25,1491.12" fill="none" stroke="#bcbcbc" stroke-width="8" stroke-linecap="round" stroke-linejoin="round" /><polyline points="1272.10,-197.94 1260.78,-200.28 1109.69,-182.41 1055.66,-177.91" fill="none" stroke="#bcbcbc" stroke-width="8" stroke-linecap="round" stroke-linejoin="round" /><polyline points="991.03,1224.26 996.33,1215.40 1028.04,1133.97 1063.46,1010.83 1072.50,984.31 1077.33,977.09 1111.54,867.29 1113.24,854.18 1114.53,845.62" fill="none" stroke="#bcbcbc" stroke-width="8" stroke-linecap="round" stroke-linejoin="round" /><polyline points="1146.75,34.78 1150.36,33.40 1155.25,29.51 1162.69,20.82 1259.17,-117.61 1284.86,-154.23" fill="none" stroke="#bcbcbc" stroke-width="8" stroke-linecap="round" stroke-linejoin="round" /><polyline points="1576.14,543.32 1578.12,537.64 1626.62,480.58 1630.17,478.68 1638.60,467.16 1666.81,434.75 1675.59,426.67" fill="none" stroke="#bcbcbc" stroke-width="8" stroke-linecap="round" stroke-linejoin="round" /><polyline points="1618.53,966.75 1617.85,959.11 1617.33,953.21 1614.78,941.91 1611.72,934.55 1607.91,915.20 1607.57,908.19 1604.98,892.52 1593.44,886.49 1584.22,890.02 1567.70,893.97 1554.63,896.02 1542.10,899.04 1524.79,902.99 1516.90,904.79" fill="none" stroke="#bcbcbc" stroke-width="8" stroke-linecap="round" stroke-linejoin="round" /><polyline points="344.38,686.53 379.65,603.85 381.61,598.48" fill="none" stroke="#bcbcbc" stroke-width="8" stroke-linecap="round" stroke-linejoin="round" /><polyline points="1273.90,534.92 1290.90,528.33 1299.79,524.89 1306.66,517.93 1335.00,510.95 1344.51,513.37 1365.03,508.08 1380.67,504.05 1384.40,501.97 1399.57,498.26 1477.16,479.25 1494.74,473.99" fill="none" stroke="#bcbcbc" stroke-width="8" stroke-linecap="round" stroke-linejoin="round" /><polyline points="558.27,1235.09 594.87,1221.80 607.11,1218.06 619.44,1214.29 642.19,1207.35 659.88,1204.80 720.31,1198.19 732.45,1197.53 786.52,1197.99 819.45,1198.27 831.84,1197.64 851.68,1199.65 857.89,1200.54 870.53,1202.34 908.73,1210.73" fill="none" stroke="#bcbcbc" stroke-width="8" stroke-linecap="round" stroke-linejoin="round" /><polyline points="732.65,148.52 726.59,128.02 704.07,51.88 676.71,-34.95 671.07,-50.45 665.33,-64.97 658.08,-85.91" fill="none" stroke="#bcbcbc" stroke-width="8" stroke-linecap="round" stroke-linejoin="round" /><polyline points="667.15,1376.24 671.96,1361.05 720.61,1207.63 720.31,1198.19" fill="none" stroke="#bcbcbc" stroke-width="8" stroke-linecap="round" stroke-linejoin="round" /><polyline points="732.45,1197.53 742.08,1068.35 743.05,1057.81 744.52,1045.56 744.54,1045.00 745.18,1030.02 748.39,989.35 750.20,970.41 752.68,948.90 754.94,933.41 756.97,923.68 759.52,916.33 764.52,899.77 774.85,865.28 788.00,820.75 802.49,775.22 805.44,765.94 807.81,759.21" fill="none" stroke="#bcbcbc" stroke-width="8" stroke-linecap="round" stroke-linejoin="round" /><polyline points="417.73,931.50 415.17,942.95 415.61,946.61 431.30,1077.29 432.97,1091.13 432.25,1105.37 428.13,1186.65 426.42,1220.60 425.53,1238.12 423.95,1269.34 423.13,1285.60 421.35,1292.05" fill="none" stroke="#bcbcbc" stroke-width="8" stroke-linecap="round" stroke-linejoin="round" /><polyline points="344.38,686.53 287.31,669.57 280.06,664.92 244.54,654.57 234.56,654.67 189.94,641.23 182.73,635.91 142.12,623.60 92.29,610.02 92.05,610.00 83.78,609.29" fill="none" stroke="#bcbcbc" stroke-width="8" stroke-linecap="round" stroke-linejoin="round" /><polyline points="1384.40,501.97 1386.38,504.58 1394.66,516.91 1409.96,539.71 1424.36,554.14 1452.04,585.22 1447.36,613.94 1444.99,624.71 1441.68,629.26 1448.62,639.53 1459.36,661.63 1480.82,703.03 1491.39,723.41 1497.96,741.74 1500.92,750.24" fill="none" stroke="#bcbcbc" stroke-width="8" stroke-linecap="round" stroke-linejoin="round" /><polyline points="1528.93,561.12 1520.98,563.60 1468.57,579.91 1461.06,582.32 1452.04,585.22" fill="none" stroke="#bcbcbc" stroke-width="8" stroke-linecap="round" stroke-linejoin="round" /><polyline points="1152.33,660.40 1168.72,655.09 1287.67,594.35 1303.60,586.57 1359.66,570.37 1414.03,555.09 1424.36,554.14" fill="none" stroke="#bcbcbc" stroke-width="8" stroke-linecap="round" stroke-linejoin="round" /><polyline points="1165.29,735.60 1302.43,671.78 1308.21,667.96 1321.62,664.06 1413.00,637.47 1426.86,632.16 1441.68,629.26" fill="none" stroke="#bcbcbc" stroke-width="8" stroke-linecap="round" stroke-linejoin="round" /><polyline points="1137.31,-602.36 1192.82,-595.50 1198.40,-594.81 1219.92,-589.53" fill="none" stroke="#bcbcbc" stroke-width="8" stroke-linecap="round" stroke-linejoin="round" /><polyline points="1611.71,-37.94 1621.56,-40.00 1658.34,-21.97 1663.19,-17.17 1732.24,99.72 1734.06,113.89 1743.04,121.37 1741.61,126.54 1741.39,134.97 1742.64,146.75 1760.92,221.91 1762.54,273.98 1765.11,357.10 1769.41,468.99 1751.89,517.74 1740.61,547.46 1724.14,589.35 1719.37,601.46 1716.27,604.84 1711.29,637.26" fill="none" stroke="#bcbcbc" stroke-width="8" stroke-linecap="round" stroke-linejoin="round" /><polyline points="1739.38,834.71 1722.58,827.40 1680.62,798.11 1625.25,759.21 1594.79,734.58 1574.25,712.57" fill="none" stroke="#bcbcbc" stroke-width="8" stroke-linecap="round" stroke-linejoin="round" /><polyline points="1059.90,1489.79 1043.40,1484.56 1016.64,1476.08 1003.87,1472.03 988.87,1467.27 969.91,1461.26 952.77,1455.83 935.83,1450.45 860.28,1426.48 847.05,1422.28 830.62,1417.08 826.99,1415.93 783.78,1404.51 771.58,1401.56 756.29,1397.86 740.29,1393.98 682.62,1379.99 667.15,1376.24 650.53,1370.47 615.81,1358.41 602.72,1353.87 591.02,1350.07 536.65,1330.74 529.80,1326.65 526.51,1319.56" fill="none" stroke="#bcbcbc" stroke-width="8" stroke-linecap="round" stroke-linejoin="round" /><polyline points="1308.21,667.96 1304.20,653.61 1292.27,610.81 1287.67,594.35 1281.04,582.04 1280.42,579.76 1276.51,565.27 1281.07,558.86 1275.60,540.59 1273.90,534.92" fill="none" stroke="#bcbcbc" stroke-width="8" stroke-linecap="round" stroke-linejoin="round" /><polyline points="1288.25,144.21 1299.60,138.87 1361.59,104.69 1397.03,81.89 1422.03,64.84 1427.55,60.73 1447.66,46.75 1468.51,31.35 1481.71,21.74 1497.45,10.23 1552.14,-14.45 1559.23,-14.07 1569.60,-18.97 1611.71,-37.94" fill="none" stroke="#bcbcbc" stroke-width="8" stroke-linecap="round" stroke-linejoin="round" /><polyline points="601.06,377.23 610.01,380.86 615.92,382.68 726.79,416.73 743.72,421.94" fill="none" stroke="#bcbcbc" stroke-width="8" stroke-linecap="round" stroke-linejoin="round" /><polyline points="-190.86,626.57 -270.07,602.59" fill="none" stroke="#bcbcbc" stroke-width="8" stroke-linecap="round" stroke-linejoin="round" /><polyline points="1088.62,-490.48 1108.26,-465.60 1111.19,-461.89 1121.11,-449.33 1132.41,-448.00 1155.63,-445.28 1159.76,-442.42" fill="none" stroke="#bcbcbc" stroke-width="8" stroke-linecap="round" stroke-linejoin="round" /><polyline points="1770.60,616.13 1739.48,621.94 1707.57,639.28 1677.99,655.74 1650.02,669.73 1616.21,688.09 1591.73,702.96 1543.36,728.90 1354.52,823.90 1305.56,845.47 1273.21,859.46 1257.18,864.71 1243.92,867.18 1222.21,868.50 1191.32,864.12 1114.24,845.62 1004.81,820.12 860.85,776.69 807.81,759.21 720.97,732.39 637.92,705.00 516.10,657.20 455.19,630.97 381.76,598.33 259.94,531.59 231.39,512.65 159.11,467.19 128.81,436.88 83.34,378.01 8.45,300.79 -20.99,274.85" fill="none" stroke="#bcbcbc" stroke-width="8" stroke-linecap="round" stroke-linejoin="round" /><polyline points="1180.13,1527.80 1181.40,1520.68 1186.01,1509.05 1229.21,1407.97 1245.53,1370.08 1264.76,1322.87 1269.45,1305.59" fill="none" stroke="#bcbcbc" stroke-width="8" stroke-linecap="round" stroke-linejoin="round" /><polyline points="351.43,1101.04 302.36,1077.29 190.71,1023.24 53.75,956.96 41.53,951.04" fill="none" stroke="#bcbcbc" stroke-width="8" stroke-linecap="round" stroke-linejoin="round" /><polyline points="1157.89,318.79 1170.28,306.10 1203.22,272.38 1229.37,243.83" fill="none" stroke="#bcbcbc" stroke-width="8" stroke-linecap="round" stroke-linejoin="round" /><polyline points="206.58,393.93 192.97,375.91 129.18,291.45 38.13,217.77" fill="none" stroke="#bcbcbc" stroke-width="8" stroke-linecap="round" stroke-linejoin="round" /><polyline points="-188.57,1505.74 -176.11,1476.21 -136.52,1377.50 -131.73,1364.55 -126.40,1350.18 -124.38,1344.99 -123.85,1336.87 -118.78,1260.13 -117.32,1238.12" fill="none" stroke="#bcbcbc" stroke-width="8" stroke-linecap="round" stroke-linejoin="round" /><polyline points="-215.58,712.29 -190.86,626.57 -158.25,513.50 -154.22,499.51 -149.73,483.61 -139.68,448.01 -138.62,444.27 -135.75,432.82 -131.16,419.88 -130.04,416.75 -124.25,402.38 -112.87,377.28 -109.47,370.07" fill="none" stroke="#bcbcbc" stroke-width="8" stroke-linecap="round" stroke-linejoin="round" /><polyline points="-154.22,499.51 -104.21,512.30 1.73,539.53 62.08,558.32 87.25,564.22" fill="none" stroke="#bcbcbc" stroke-width="8" stroke-linecap="round" stroke-linejoin="round" /><polyline points="875.18,110.54 876.88,100.13 878.59,89.33 885.93,53.18 904.26,-30.95 919.31,-106.21 922.06,-121.83 925.80,-143.02 925.81,-143.04" fill="none" stroke="#bcbcbc" stroke-width="8" stroke-linecap="round" stroke-linejoin="round" /><polyline points="727.11,1730.65 749.44,1673.69 752.21,1663.46 840.83,1438.51 847.05,1422.28 852.09,1408.52 905.04,1254.46 915.24,1245.57" fill="none" stroke="#bcbcbc" stroke-width="8" stroke-linecap="round" stroke-linejoin="round" /><polyline points="1030.86,66.99 1030.85,66.97 1027.71,50.50 1027.22,48.50 1019.57,17.37 1019.57,17.27 1014.35,-3.84 992.24,-79.63 989.45,-87.74 974.52,-128.34 969.67,-140.46 966.54,-148.28 962.47,-157.16 962.47,-157.17 962.46,-157.21 959.50,-189.85 959.22,-205.87" fill="none" stroke="#bcbcbc" stroke-width="8" stroke-linecap="round" stroke-linejoin="round" /><polyline points="997.71,1352.79 992.03,1358.94 983.55,1369.02 959.68,1436.34 952.77,1455.83" fill="none" stroke="#bcbcbc" stroke-width="8" stroke-linecap="round" stroke-linejoin="round" /><polyline points="601.06,377.23 604.33,368.40 605.06,366.34 620.57,323.04 626.38,304.80 673.89,165.08" fill="none" stroke="#bcbcbc" stroke-width="8" stroke-linecap="round" stroke-linejoin="round" /><polyline points="846.85,573.11 851.70,560.23 864.83,525.36 870.38,510.61 874.14,500.63 884.68,472.64 891.64,454.15 892.57,451.67 909.43,406.88 916.48,409.06 920.30,398.66 927.06,380.27 925.76,371.91 943.70,323.08 945.54,318.06 948.95,314.93 951.80,312.31 969.79,263.13 972.39,249.67 998.20,177.96 1004.31,173.19 1016.72,138.06 1014.52,132.66 1025.39,99.86 1019.75,70.56" fill="none" stroke="#bcbcbc" stroke-width="8" stroke-linecap="round" stroke-linejoin="round" /><polyline points="1308.52,-760.75 1301.29,-772.61 1263.29,-834.96" fill="none" stroke="#bcbcbc" stroke-width="8" stroke-linecap="round" stroke-linejoin="round" /><polyline points="1427.55,60.73 1601.93,172.87 1601.98,172.95 1601.98,172.97 1634.24,177.16" fill="none" stroke="#bcbcbc" stroke-width="8" stroke-linecap="round" stroke-linejoin="round" /><polyline points="1357.61,-173.53 1543.16,-80.39 1548.76,-76.22 1548.38,-45.73 1552.14,-14.45" fill="none" stroke="#bcbcbc" stroke-width="8" stroke-linecap="round" stroke-linejoin="round" /><polyline points="1003.87,1472.03 997.19,1492.39 970.16,1574.84 924.18,1713.70 920.91,1723.55 917.61,1733.53 916.69,1744.16" fill="none" stroke="#bcbcbc" stroke-width="8" stroke-linecap="round" stroke-linejoin="round" /><polyline points="1526.20,971.15 1527.31,960.80 1527.55,951.15 1527.47,950.81 1520.89,922.39 1518.20,910.52 1516.90,904.79 1515.57,898.93 1508.35,867.14 1494.25,803.59 1484.01,765.39 1482.56,759.49" fill="none" stroke="#bcbcbc" stroke-width="8" stroke-linecap="round" stroke-linejoin="round" /><polyline points="605.02,1552.83 609.62,1539.76 661.29,1392.91 667.15,1376.24" fill="none" stroke="#bcbcbc" stroke-width="8" stroke-linecap="round" stroke-linejoin="round" /><polyline points="1765.11,357.10 1749.90,352.81 1646.67,194.40 1634.24,177.16" fill="none" stroke="#bcbcbc" stroke-width="8" stroke-linecap="round" stroke-linejoin="round" /><polyline points="68.11,737.19 444.33,827.33 470.27,836.80" fill="none" stroke="#bcbcbc" stroke-width="8" stroke-linecap="round" stroke-linejoin="round" /><polyline points="1254.73,-671.23 1401.28,-616.94 1421.91,-620.46" fill="none" stroke="#bcbcbc" stroke-width="8" stroke-linecap="round" stroke-linejoin="round" />
    <polyline points="167.20,167.20 191.95,215.66 195.70,229.50 216.55,269.29 225.16,280.67 260.00,348.47 262.23,352.80" fill="none" stroke="#ffffff" stroke-width="16" stroke-linecap="round" stroke-linejoin="round" />
    <polyline points="167.20,167.20 191.95,215.66 195.70,229.50 216.55,269.29 225.16,280.67 260.00,348.47 262.23,352.80" fill="none" stroke="#111111" stroke-width="9" stroke-linecap="round" stroke-linejoin="round" />
    
            <g transform="translate(167.20,167.20)">
              <circle r="19" fill="#ffffff" stroke="#111111" stroke-width="4" />
              <text text-anchor="middle" dominant-baseline="central" font-family="Helvetica, Arial, sans-serif"
                font-size="18" font-weight="700" fill="#111111">1</text>
            </g>
            
            <g transform="translate(262.23,352.80)">
              <circle r="19" fill="#ffffff" stroke="#111111" stroke-width="4" />
              <text text-anchor="middle" dominant-baseline="central" font-family="Helvetica, Arial, sans-serif"
                font-size="18" font-weight="700" fill="#111111">2</text>
            </g>
            
  </g>
</svg>
