<svg xmlns="http://www.w3.org/2000/svg" width="520" height="520" viewBox="0 0 520 520">
  <rect width="100%" height="100%" fill="#ffffff" />
  <g>
    <polyline points="949.40,-494.76 953.03,-475.48 976.42,-311.82 972.85,-270.91" fill="none" stroke="#bcbcbc" stroke-width="8" stroke-linecap="round" stroke-linejoin="round" /><polyline points="473.89,869.05 479.55,851.66 509.51,759.49 513.05,748.63 516.62,737.23 591.98,496.93 598.04,477.60 584.16,443.42" fill="none" stroke="#bcbcbc" stroke-width="8" stroke-linecap="round" stroke-linejoin="round" /><polyline points="-46.63,655.31 -47.85,641.51 -23.21,503.53 -19.75,486.27 -17.17,477.23 -10.39,442.24 -2.77,399.41 5.53,361.69 13.77,324.05 18.95,313.44 22.34,306.94" fill="none" stroke="#bcbcbc" stroke-width="8" stroke-linecap="round" stroke-linejoin="round" /><polyline points="96.37,-317.99 90.52,-335.85 29.97,-520.50 27.02,-528.24" fill="none" stroke="#bcbcbc" stroke-width="8" stroke-linecap="round" stroke-linejoin="round" /><polyline points="-214.28,1307.10 -212.48,1289.48 -211.75,1281.40 -205.15,1208.49 -197.94,1144.30 -196.25,1129.31 -194.69,1111.32 -194.52,1109.81 -190.42,1074.06 -186.90,1037.72 -183.01,1002.65 -180.40,975.34 -179.30,958.49 -178.34,942.93 -176.62,925.40" fill="none" stroke="#bcbcbc" stroke-width="8" stroke-linecap="round" stroke-linejoin="round" /><polyline points="622.27,911.89 626.58,898.33 656.96,802.83 660.41,791.98 665.32,776.52 668.84,765.44 695.72,649.47" fill="none" stroke="#bcbcbc" stroke-width="8" stroke-linecap="round" stroke-linejoin="round" /><polyline points="504.17,-977.17 515.39,-975.45 824.55,-927.95" fill="none" stroke="#bcbcbc" stroke-width="8" stroke-linecap="round" stroke-linejoin="round" /><polyline points="-289.49,889.38 -321.67,887.89 -341.29,886.97 -351.95,886.48 -361.31,886.04 -434.17,882.65 -535.53,877.94 -583.83,871.09 -600.00,868.80 -614.03,866.32 -709.05,849.55 -722.33,847.21 -725.27,846.70 -741.68,843.89 -754.28,841.73 -834.80,834.61 -850.13,833.26 -855.76,832.76 -873.16,831.55 -907.25,829.19" fill="none" stroke="#bcbcbc" stroke-width="8" stroke-linecap="round" stroke-linejoin="round" /><polyline points="178.00,796.03 184.24,778.29 240.40,622.60 307.97,426.22 312.30,413.90 315.31,405.30 317.76,398.23" fill="none" stroke="#bcbcbc" stroke-width="8" stroke-linecap="round" stroke-linejoin="round" /><polyline points="-855.76,832.76 -857.19,822.75 -857.53,811.88 -855.40,789.98 -850.51,750.01 -847.24,736.59 -841.95,688.08 -840.99,677.27 -839.44,663.38 -838.29,653.06 -836.12,641.37 -832.09,609.90 -829.30,585.83 -825.19,575.98" fill="none" stroke="#bcbcbc" stroke-width="8" stroke-linecap="round" stroke-linejoin="round" /><polyline points="-913.24,563.68 -838.33,574.15 -825.19,575.98 -817.06,577.28 -783.48,582.63 -706.11,594.96 -692.83,597.17" fill="none" stroke="#bcbcbc" stroke-width="8" stroke-linecap="round" stroke-linejoin="round" /><polyline points="465.48,-419.08 465.97,-412.27 466.98,-405.37 469.41,-400.09 473.97,-394.20 482.39,-386.53 502.36,-374.39 656.39,-277.75 751.25,-150.57 822.91,26.27 827.58,37.95" fill="none" stroke="#bcbcbc" stroke-width="8" stroke-linecap="round" stroke-linejoin="round" /><polyline points="440.82,96.90 444.01,102.18 444.84,103.55 447.48,116.89 465.56,204.28 471.29,232.02 475.40,251.77 481.79,291.81 484.78,310.28 486.85,321.55 489.10,331.72 491.80,337.66 495.75,344.53 497.87,347.77 537.89,405.07 559.54,439.16 565.19,447.31" fill="none" stroke="#bcbcbc" stroke-width="8" stroke-linecap="round" stroke-linejoin="round" /><polyline points="-708.13,1191.09 -706.00,1177.97 -704.02,1168.49 -703.49,1167.23 -676.86,1103.90 -659.88,1062.73 -654.72,1049.69 -649.26,1035.87 -643.33,1023.99 -642.37,1021.67 -634.25,1002.04 -627.97,984.67 -622.58,968.73 -619.16,957.47 -615.33,943.55 -610.91,924.89 -607.55,909.75 -603.54,888.62 -602.70,883.91 -600.00,868.80" fill="none" stroke="#bcbcbc" stroke-width="8" stroke-linecap="round" stroke-linejoin="round" /><polyline points="582.49,-577.68 667.42,-518.33 678.87,-515.90 687.24,-506.32" fill="none" stroke="#bcbcbc" stroke-width="8" stroke-linecap="round" stroke-linejoin="round" /><polyline points="225.83,-29.56 237.05,-25.24 285.79,-9.30 398.84,34.06 405.18,40.38 408.16,45.10" fill="none" stroke="#bcbcbc" stroke-width="8" stroke-linecap="round" stroke-linejoin="round" /><polyline points="436.49,1084.46 444.19,1064.40 482.19,961.29 509.07,883.39 514.64,880.82" fill="none" stroke="#bcbcbc" stroke-width="8" stroke-linecap="round" stroke-linejoin="round" /><polyline points="-100.73,953.72 -94.73,940.47 -94.14,939.15 -83.88,904.74 -67.07,848.08 -62.76,833.59 -59.42,822.32 -58.97,815.76 -59.65,801.23" fill="none" stroke="#bcbcbc" stroke-width="8" stroke-linecap="round" stroke-linejoin="round" /><polyline points="597.82,101.42 588.18,103.41 566.35,99.53 562.97,90.52 525.13,76.10 516.19,78.44 482.05,65.90 476.96,69.46" fill="none" stroke="#bcbcbc" stroke-width="8" stroke-linecap="round" stroke-linejoin="round" /><polyline points="541.64,-1068.81 558.79,-1064.61 568.27,-1062.97 793.79,-1023.86" fill="none" stroke="#bcbcbc" stroke-width="8" stroke-linecap="round" stroke-linejoin="round" /><polyline points="366.36,1021.67 375.74,995.23 393.97,943.82 405.75,921.93 422.71,874.47 429.47,855.52" fill="none" stroke="#bcbcbc" stroke-width="8" stroke-linecap="round" stroke-linejoin="round" /><polyline points="-869.30,-4.83 -885.64,-5.58 -889.73,-0.61 -918.19,33.97 -1017.67,148.87 -1031.65,165.03" fill="none" stroke="#bcbcbc" stroke-width="8" stroke-linecap="round" stroke-linejoin="round" /><polyline points="3.22,93.58 -3.99,109.54 -4.87,111.48 -29.92,176.80 -55.17,248.71 -61.90,267.89 -65.72,277.79" fill="none" stroke="#bcbcbc" stroke-width="8" stroke-linecap="round" stroke-linejoin="round" /><polyline points="370.69,-640.43 378.64,-629.63 384.33,-614.78 393.17,-593.47 407.36,-559.95 419.93,-529.87 434.36,-496.83 445.06,-471.37 446.65,-467.71 446.74,-467.49 455.36,-447.35 457.93,-441.62 460.38,-436.17 462.97,-431.07 464.92,-425.88 465.48,-419.08" fill="none" stroke="#bcbcbc" stroke-width="8" stroke-linecap="round" stroke-linejoin="round" /><polyline points="-238.58,415.60 -234.41,413.33 -228.58,408.69 -225.67,402.69 -186.96,255.93 -185.79,247.65 -181.07,232.53" fill="none" stroke="#bcbcbc" stroke-width="8" stroke-linecap="round" stroke-linejoin="round" /><polyline points="1114.78,185.95 1120.27,203.37 1124.13,221.68 1116.61,291.43 1107.91,343.90 1103.16,361.80 1102.73,363.42 1098.57,373.08 1092.90,383.32 1079.66,400.07 1086.07,432.81 1065.33,503.10 1053.88,541.91 1030.45,605.45 996.13,682.81 954.24,756.94 941.15,781.04 917.50,820.62 822.98,954.76 802.28,982.67 722.08,1087.46 676.05,1139.83 611.65,1205.28 605.69,1205.90 591.15,1217.79" fill="none" stroke="#bcbcbc" stroke-width="8" stroke-linecap="round" stroke-linejoin="round" /><polyline points="-51.44,1333.36 -25.06,1251.54 -20.75,1238.03 -14.88,1229.52 -2.28,1191.70 1.82,1178.85 53.87,1015.89 59.10,999.50 63.42,985.10 124.84,791.79" fill="none" stroke="#bcbcbc" stroke-width="8" stroke-linecap="round" stroke-linejoin="round" /><polyline points="566.61,-188.34 589.42,-213.26 596.15,-221.37 642.23,-286.64" fill="none" stroke="#bcbcbc" stroke-width="8" stroke-linecap="round" stroke-linejoin="round" /><polyline points="110.75,-178.47 173.56,-156.60 177.03,-150.96 194.86,-144.98 205.45,-141.36 256.07,-124.26" fill="none" stroke="#bcbcbc" stroke-width="8" stroke-linecap="round" stroke-linejoin="round" /><polyline points="658.19,-613.10 687.24,-506.32 720.87,-380.53 725.97,-370.05 726.78,-358.08 749.59,-315.50 811.13,-200.74 824.58,-180.89 828.48,-175.08 920.43,-3.17 962.69,35.25 968.62,42.90 976.98,50.05 1057.22,118.65 1062.66,123.31 1077.07,130.96" fill="none" stroke="#bcbcbc" stroke-width="8" stroke-linecap="round" stroke-linejoin="round" /><polyline points="346.13,1350.73 546.24,1234.49 581.86,1216.28 591.15,1217.79" fill="none" stroke="#bcbcbc" stroke-width="8" stroke-linecap="round" stroke-linejoin="round" /><polyline points="563.09,1184.44 575.51,1169.68 686.98,947.28 694.36,932.70 700.53,918.26 736.53,829.23 747.25,802.40 778.28,708.49 798.40,587.75 800.79,570.18" fill="none" stroke="#bcbcbc" stroke-width="8" stroke-linecap="round" stroke-linejoin="round" /><polyline points="477.07,-123.50 475.12,-121.50 472.44,-112.15 472.17,-111.21 460.07,-64.64 463.25,-52.48 460.61,-41.58 457.16,-27.31 448.30,-17.05 438.26,23.64 426.43,32.58 413.79,41.24 408.16,45.10" fill="none" stroke="#bcbcbc" stroke-width="8" stroke-linecap="round" stroke-linejoin="round" /><polyline points="3.22,93.58 8.36,80.40 39.28,1.13 46.02,-16.16 51.58,-30.40 91.09,-131.63 108.88,-173.95 110.75,-178.47 124.58,-211.89 155.60,-288.91 166.96,-321.70 169.49,-329.22 172.88,-337.75" fill="none" stroke="#bcbcbc" stroke-width="8" stroke-linecap="round" stroke-linejoin="round" /><polyline points="349.24,-386.95 355.22,-369.15 551.47,-201.52 658.56,-108.35 818.51,30.69 832.47,41.85 838.72,45.76 866.47,70.96 903.54,102.57 987.61,174.25 1014.77,197.61 1032.78,219.16" fill="none" stroke="#bcbcbc" stroke-width="8" stroke-linecap="round" stroke-linejoin="round" /><polyline points="673.72,-675.78 683.68,-682.16 742.64,-706.67 754.76,-719.42" fill="none" stroke="#bcbcbc" stroke-width="8" stroke-linecap="round" stroke-linejoin="round" /><polyline points="741.83,815.97 660.41,791.98 513.05,748.63" fill="none" stroke="#bcbcbc" stroke-width="8" stroke-linecap="round" stroke-linejoin="round" /><polyline points="479.03,-915.71 490.15,-908.05 852.52,-827.42" fill="none" stroke="#bcbcbc" stroke-width="8" stroke-linecap="round" stroke-linejoin="round" /><polyline points="926.64,277.36 907.91,235.69 866.35,136.57 863.25,128.70 856.14,110.60 829.35,42.43 827.67,38.01" fill="none" stroke="#bcbcbc" stroke-width="8" stroke-linecap="round" stroke-linejoin="round" /><polyline points="370.69,-640.43 350.57,-646.15 335.78,-650.55 305.73,-659.48 290.47,-663.83 281.72,-666.26 270.30,-669.53" fill="none" stroke="#bcbcbc" stroke-width="8" stroke-linecap="round" stroke-linejoin="round" /><polyline points="-153.87,-95.25 -154.89,-98.58 -155.83,-100.91 -159.97,-111.21 -176.04,-148.66 -191.30,-186.70 -194.60,-195.68 -198.40,-206.03 -201.11,-214.49 -205.60,-227.18 -206.07,-228.52 -220.68,-264.51 -247.49,-332.17 -253.51,-335.60 -257.80,-346.57 -266.35,-376.29 -281.00,-413.11 -284.16,-421.48" fill="none" stroke="#bcbcbc" stroke-width="8" stroke-linecap="round" stroke-linejoin="round" /><polyline points="-25.06,1251.54 -9.84,1256.21 39.43,1271.22 54.86,1275.92" fill="none" stroke="#bcbcbc" stroke-width="8" stroke-linecap="round" stroke-linejoin="round" /><polyline points="894.99,-658.06 897.85,-669.67 896.69,-674.08 895.28,-679.40 886.29,-712.35 866.23,-782.02 855.65,-817.63 852.52,-827.42 824.55,-927.95 809.45,-982.17 793.79,-1023.86 779.64,-1061.48 765.56,-1087.34 751.87,-1101.00 646.78,-1229.41 639.00,-1238.56 633.85,-1247.00" fill="none" stroke="#bcbcbc" stroke-width="8" stroke-linecap="round" stroke-linejoin="round" /><polyline points="465.48,-419.08 460.07,-417.01 450.05,-414.24 449.04,-413.96 407.19,-403.26 359.07,-389.71 349.24,-386.94 344.87,-385.56 333.31,-381.84 323.42,-379.09 280.27,-367.08 209.30,-346.92 182.84,-340.23 172.88,-337.75 125.59,-326.13 96.37,-317.99 34.50,-300.71 -26.65,-283.47 -33.73,-281.51 -84.84,-267.33 -108.41,-260.78 -120.32,-255.16 -142.85,-243.98 -187.61,-221.27 -190.72,-219.69 -201.11,-214.49 -207.45,-211.32 -216.30,-206.68 -247.74,-190.20 -305.03,-158.05 -352.89,-132.98 -359.74,-129.39 -368.88,-128.83 -374.37,-125.91 -375.47,-125.32 -427.39,-96.87 -438.26,-96.92 -450.74,-90.39 -455.10,-88.11 -458.78,-86.19 -467.46,-81.65 -474.30,-66.05 -503.68,-50.31 -513.02,-45.31 -523.13,-39.80 -564.02,-17.56 -585.15,-6.05 -595.80,-2.99" fill="none" stroke="#bcbcbc" stroke-width="8" stroke-linecap="round" stroke-linejoin="round" /><polyline points="1053.88,541.91 1032.06,543.91 963.91,550.16 960.84,550.44 956.50,550.84 949.46,551.48 883.39,557.55 860.41,555.42 833.64,562.12 812.21,567.38 800.79,570.18 772.42,571.25 747.87,570.00 735.35,568.67 724.70,565.45 716.85,561.11 687.63,540.45 616.64,491.69 609.95,487.16 603.13,482.53 598.04,477.60" fill="none" stroke="#bcbcbc" stroke-width="8" stroke-linecap="round" stroke-linejoin="round" /><polyline points="-554.01,-281.27 -528.25,-230.84 -524.35,-216.43 -502.65,-175.03 -493.69,-163.18 -457.42,-92.62 -455.10,-88.11" fill="none" stroke="#bcbcbc" stroke-width="8" stroke-linecap="round" stroke-linejoin="round" /><polyline points="658.19,-613.10 654.66,-620.66 645.37,-621.88 615.33,-614.99 609.23,-615.78 604.45,-622.19 595.95,-661.28 641.99,-668.41 663.30,-674.70 673.72,-675.78 684.95,-635.87" fill="none" stroke="#bcbcbc" stroke-width="8" stroke-linecap="round" stroke-linejoin="round" /><polyline points="824.58,-180.89 836.44,-187.55 896.01,-223.44 911.93,-232.92 939.79,-249.53 985.63,-279.18 996.33,-286.87 1076.74,-336.75" fill="none" stroke="#bcbcbc" stroke-width="8" stroke-linecap="round" stroke-linejoin="round" /><polyline points="1105.66,54.72 1085.33,48.66 1073.51,38.97 1028.34,-0.11 1026.81,-1.49 1015.89,-11.23 1009.47,-22.61 896.01,-223.44" fill="none" stroke="#bcbcbc" stroke-width="8" stroke-linecap="round" stroke-linejoin="round" /><polyline points="-174.80,38.80 3.22,93.58 17.74,98.18 150.59,140.29 153.36,141.17 173.26,147.49 183.05,150.59 195.76,154.07 221.99,162.95 235.40,167.20 247.47,171.03 346.33,202.39 450.70,235.18 459.33,237.89 471.29,232.02" fill="none" stroke="#bcbcbc" stroke-width="8" stroke-linecap="round" stroke-linejoin="round" /><polyline points="348.63,-840.05 425.74,-910.91 438.80,-922.90" fill="none" stroke="#bcbcbc" stroke-width="8" stroke-linecap="round" stroke-linejoin="round" /><polyline points="-942.66,303.25 -659.70,333.58" fill="none" stroke="#bcbcbc" stroke-width="8" stroke-linecap="round" stroke-linejoin="round" /><polyline points="-89.07,-486.51 -29.59,-507.78 31.75,-529.95 69.87,-544.77 186.24,-587.09 220.01,-598.78 227.06,-601.22 235.52,-604.12 245.02,-607.39 246.18,-607.79 265.35,-615.50 273.69,-618.85" fill="none" stroke="#bcbcbc" stroke-width="8" stroke-linecap="round" stroke-linejoin="round" /><polyline points="310.37,952.60 366.36,1021.67 400.64,1056.18 415.48,1066.87 436.49,1084.46 456.22,1101.03 473.17,1117.57 473.59,1125.98" fill="none" stroke="#bcbcbc" stroke-width="8" stroke-linecap="round" stroke-linejoin="round" /><polyline points="370.69,-640.43 392.63,-695.43 428.15,-785.98 479.03,-915.71 504.17,-977.17 541.64,-1068.81 572.37,-1143.88 577.86,-1153.83 604.88,-1198.01 606.63,-1200.86 616.51,-1220.30 633.85,-1247.00 643.53,-1261.90 657.23,-1282.98" fill="none" stroke="#bcbcbc" stroke-width="8" stroke-linecap="round" stroke-linejoin="round" /><polyline points="-146.99,830.11 -150.58,832.98 -152.96,836.40 -157.80,850.68 -161.14,860.98 -176.60,907.21 -178.73,913.88 -180.05,918.01 -194.24,913.95 -228.80,902.36 -263.03,890.88 -289.49,889.38" fill="none" stroke="#bcbcbc" stroke-width="8" stroke-linecap="round" stroke-linejoin="round" /><polyline points="-823.61,1151.79 -767.18,1006.08 -760.90,990.22 -755.27,974.94 -748.47,956.48 -740.13,927.44 -731.42,891.35 -727.86,865.49 -725.27,846.70 -721.62,832.84 -708.34,728.65 -692.83,597.17 -684.80,534.49 -675.85,460.86 -659.70,333.58 -657.14,311.93 -640.83,178.82 -640.82,171.41 -637.21,131.91 -626.81,48.49 -624.20,33.94 -621.48,25.77 -617.22,16.79 -613.08,9.81 -603.95,-0.08 -595.79,-2.88" fill="none" stroke="#bcbcbc" stroke-width="8" stroke-linecap="round" stroke-linejoin="round" /><polyline points="408.16,45.10 411.25,49.99 421.59,66.15 437.09,90.98 440.82,96.90 447.00,92.21 476.96,69.46" fill="none" stroke="#bcbcbc" stroke-width="8" stroke-linecap="round" stroke-linejoin="round" /><polyline points="428.15,-785.98 733.01,-730.87 765.02,-714.02 884.47,-654.81 894.99,-658.06" fill="none" stroke="#bcbcbc" stroke-width="8" stroke-linecap="round" stroke-linejoin="round" /><polyline points="-153.87,-95.25 -159.28,-87.36 -207.92,-63.62 -243.64,-18.22 -282.19,5.64 -308.55,25.55 -333.70,46.07 -346.59,57.82 -369.37,86.71 -394.84,123.22 -399.04,129.98" fill="none" stroke="#bcbcbc" stroke-width="8" stroke-linecap="round" stroke-linejoin="round" /><polyline points="-102.45,-62.68 -104.56,-57.99 -109.17,-51.25 -117.89,-40.53 -169.26,24.37 -196.44,97.58 -333.64,46.01" fill="none" stroke="#bcbcbc" stroke-width="8" stroke-linecap="round" stroke-linejoin="round" /><polyline points="-308.55,25.55 -313.86,9.47 -336.82,-60.04 -345.73,-73.77 -360.65,-118.53 -361.94,-122.39 -359.74,-129.39 -363.31,-140.80 -435.05,-369.85" fill="none" stroke="#bcbcbc" stroke-width="8" stroke-linecap="round" stroke-linejoin="round" /><polyline points="532.02,-1224.19 588.71,-1222.70 591.36,-1222.62 602.22,-1222.32 616.51,-1220.30" fill="none" stroke="#bcbcbc" stroke-width="8" stroke-linecap="round" stroke-linejoin="round" /><polyline points="240.40,622.60 221.05,622.36 57.13,644.36 45.32,645.61 31.81,647.03 -46.63,655.31 -152.30,666.47 -208.33,672.38 -239.32,675.65 -264.48,678.71 -277.40,680.28 -291.95,682.05 -362.26,690.59 -379.11,692.64 -431.03,698.32 -708.34,728.65" fill="none" stroke="#bcbcbc" stroke-width="8" stroke-linecap="round" stroke-linejoin="round" /><polyline points="-2.28,1191.70 -16.80,1187.03 -84.62,1165.20 -98.33,1160.78 -110.24,1156.96 -182.09,1133.86 -196.25,1129.31 -215.00,1123.28 -329.38,1086.47 -342.25,1082.33" fill="none" stroke="#bcbcbc" stroke-width="8" stroke-linecap="round" stroke-linejoin="round" /><polyline points="281.31,-181.43 320.76,-169.14 465.03,-124.59 466.38,-124.17 477.07,-123.50" fill="none" stroke="#bcbcbc" stroke-width="8" stroke-linecap="round" stroke-linejoin="round" /><polyline points="687.24,-506.32 883.49,-502.87" fill="none" stroke="#bcbcbc" stroke-width="8" stroke-linecap="round" stroke-linejoin="round" /><polyline points="591.15,1217.79 563.09,1184.44 551.32,1170.75 541.21,1161.30 527.74,1151.25 500.22,1134.73 473.59,1125.98 419.41,1109.24 375.09,1095.18 400.64,1056.18" fill="none" stroke="#bcbcbc" stroke-width="8" stroke-linecap="round" stroke-linejoin="round" /><polyline points="310.37,952.60 271.31,904.39 263.88,895.21 224.53,841.01 215.63,824.46 217.76,804.76 229.62,804.64 258.89,810.27 303.42,818.84" fill="none" stroke="#bcbcbc" stroke-width="8" stroke-linecap="round" stroke-linejoin="round" /><polyline points="-200.65,566.29 -193.44,581.78 -152.30,666.47 -91.13,792.40 -83.33,808.46" fill="none" stroke="#bcbcbc" stroke-width="8" stroke-linecap="round" stroke-linejoin="round" /><polyline points="-859.58,949.88 -844.86,955.89 -775.95,984.07 -760.90,990.22 -745.07,996.69 -663.94,1029.87 -649.26,1035.87" fill="none" stroke="#bcbcbc" stroke-width="8" stroke-linecap="round" stroke-linejoin="round" /><polyline points="-166.79,440.72 -23.21,503.53" fill="none" stroke="#bcbcbc" stroke-width="8" stroke-linecap="round" stroke-linejoin="round" /><polyline points="477.07,-123.50 498.94,-122.35 500.34,-121.12 510.15,-112.41 524.57,-99.54 527.24,-94.36 576.95,-50.83 580.62,-43.88 615.57,-13.04 624.37,-10.35 651.56,13.46 657.65,16.24 698.66,51.03 707.79,59.12 712.82,67.14" fill="none" stroke="#bcbcbc" stroke-width="8" stroke-linecap="round" stroke-linejoin="round" /><polyline points="-900.11,440.86 -675.85,460.86" fill="none" stroke="#bcbcbc" stroke-width="8" stroke-linecap="round" stroke-linejoin="round" /><polyline points="-399.38,1275.91 -392.43,1261.12 -390.65,1254.53 -380.91,1218.63 -345.63,1094.24 -342.25,1082.33 -338.68,1069.27 -322.70,1010.82 -295.71,912.13 -289.49,889.38" fill="none" stroke="#bcbcbc" stroke-width="8" stroke-linecap="round" stroke-linejoin="round" /><polyline points="-200.65,566.29 -166.79,440.72 -238.58,415.60 -257.37,426.70 -265.94,433.22 -272.29,441.80 -276.75,453.13 -293.26,514.15 -279.94,520.93 -266.48,524.20 -236.73,531.94 -214.46,539.04 -200.65,566.29" fill="none" stroke="#bcbcbc" stroke-width="8" stroke-linecap="round" stroke-linejoin="round" /><polyline points="-293.26,514.15 -308.98,511.96 -675.85,460.86" fill="none" stroke="#bcbcbc" stroke-width="8" stroke-linecap="round" stroke-linejoin="round" /><polyline points="303.42,818.84 337.45,826.27 429.47,855.52 455.21,863.66 516.28,881.30 577.81,899.04 623.36,912.20 696.21,933.23 711.26,937.58 748.02,949.91 808.55,966.03 813.88,967.03" fill="none" stroke="#bcbcbc" stroke-width="8" stroke-linecap="round" stroke-linejoin="round" /><polyline points="346.58,1350.47 334.17,1353.59 320.74,1391.00 299.93,1385.09 205.27,1352.83 193.88,1350.40 168.53,1348.58 53.91,1349.04 28.64,1345.83 -28.43,1337.10 -51.44,1333.36 -214.70,1307.03 -277.92,1296.95 -398.48,1276.06 -417.95,1272.20 -690.04,1196.15 -707.21,1191.35 -823.60,1151.79 -852.24,1141.63 -923.77,1111.99 -964.54,1096.57" fill="none" stroke="#bcbcbc" stroke-width="8" stroke-linecap="round" stroke-linejoin="round" /><polyline points="595.95,-661.28 584.17,-663.71 426.91,-645.12 370.69,-640.43" fill="none" stroke="#bcbcbc" stroke-width="8" stroke-linecap="round" stroke-linejoin="round" /><polyline points="303.42,818.84 308.93,809.62 341.93,724.86 378.80,596.71 388.21,569.11 393.24,561.60 428.84,447.33 430.61,433.69 431.95,424.77" fill="none" stroke="#bcbcbc" stroke-width="8" stroke-linecap="round" stroke-linejoin="round" /><polyline points="465.48,-419.08 469.24,-420.51 474.34,-424.56 482.07,-433.61 582.49,-577.68 609.23,-615.78" fill="none" stroke="#bcbcbc" stroke-width="8" stroke-linecap="round" stroke-linejoin="round" /><polyline points="912.39,110.17 914.44,104.25 964.92,44.87 968.62,42.90 977.39,30.90 1006.75,-2.83 1015.89,-11.23" fill="none" stroke="#bcbcbc" stroke-width="8" stroke-linecap="round" stroke-linejoin="round" /><polyline points="956.50,550.84 955.80,542.89 955.26,536.74 952.60,524.99 949.42,517.32 945.45,497.19 945.09,489.89 942.40,473.59 930.39,467.31 920.79,470.98 903.60,475.10 890.00,477.23 876.95,480.37 858.94,484.48 850.73,486.35" fill="none" stroke="#bcbcbc" stroke-width="8" stroke-linecap="round" stroke-linejoin="round" /><polyline points="-369.60,259.21 -332.89,173.16 -330.85,167.57" fill="none" stroke="#bcbcbc" stroke-width="8" stroke-linecap="round" stroke-linejoin="round" /><polyline points="597.82,101.42 615.51,94.57 624.76,90.99 631.92,83.75 661.41,76.47 671.31,79.00 692.66,73.50 708.95,69.30 712.82,67.14 728.62,63.27 809.36,43.49 827.67,38.01" fill="none" stroke="#bcbcbc" stroke-width="8" stroke-linecap="round" stroke-linejoin="round" /><polyline points="-146.99,830.11 -108.90,816.27 -96.15,812.38 -83.33,808.46 -59.65,801.23 -41.24,798.58 21.65,791.70 34.29,791.01 90.56,791.50 124.84,791.79 137.74,791.13 158.38,793.22 164.84,794.14 178.00,796.03 217.76,804.76" fill="none" stroke="#bcbcbc" stroke-width="8" stroke-linecap="round" stroke-linejoin="round" /><polyline points="34.50,-300.71 28.19,-322.04 4.75,-401.29 -23.72,-491.65 -29.59,-507.78 -35.56,-522.89 -43.11,-544.68" fill="none" stroke="#bcbcbc" stroke-width="8" stroke-linecap="round" stroke-linejoin="round" /><polyline points="-33.67,977.01 -28.66,961.19 21.97,801.52 21.65,791.70" fill="none" stroke="#bcbcbc" stroke-width="8" stroke-linecap="round" stroke-linejoin="round" /><polyline points="34.29,791.01 44.32,656.57 45.32,645.61 46.85,632.85 46.88,632.28 47.54,616.68 50.88,574.36 52.77,554.65 55.35,532.26 57.70,516.14 59.81,506.02 62.46,498.37 67.67,481.13 78.42,445.23 92.10,398.90 107.18,351.51 110.26,341.85 112.73,334.84" fill="none" stroke="#bcbcbc" stroke-width="8" stroke-linecap="round" stroke-linejoin="round" /><polyline points="-293.26,514.15 -295.93,526.07 -295.47,529.87 -279.13,665.88 -277.40,680.28 -278.15,695.10 -282.43,779.69 -284.22,815.03 -285.14,833.26 -286.79,865.75 -287.64,882.67 -289.49,889.38" fill="none" stroke="#bcbcbc" stroke-width="8" stroke-linecap="round" stroke-linejoin="round" /><polyline points="-369.60,259.21 -429.00,241.56 -436.55,236.72 -473.51,225.95 -483.90,226.06 -530.34,212.06 -537.85,206.53 -580.11,193.72 -631.97,179.58 -632.22,179.56 -640.83,178.82" fill="none" stroke="#bcbcbc" stroke-width="8" stroke-linecap="round" stroke-linejoin="round" /><polyline points="712.82,67.14 714.89,69.84 723.50,82.68 739.42,106.41 754.41,121.43 783.22,153.77 778.35,183.66 775.88,194.87 772.44,199.61 779.67,210.30 790.84,233.29 813.17,276.38 824.17,297.59 831.01,316.66 834.10,325.52" fill="none" stroke="#bcbcbc" stroke-width="8" stroke-linecap="round" stroke-linejoin="round" /><polyline points="863.25,128.70 854.97,131.27 800.43,148.24 792.61,150.76 783.22,153.77" fill="none" stroke="#bcbcbc" stroke-width="8" stroke-linecap="round" stroke-linejoin="round" /><polyline points="471.29,232.02 488.35,226.49 612.16,163.27 628.73,155.17 687.08,138.32 743.66,122.42 754.41,121.43" fill="none" stroke="#bcbcbc" stroke-width="8" stroke-linecap="round" stroke-linejoin="round" /><polyline points="484.78,310.28 627.51,243.86 633.52,239.88 647.48,235.82 742.59,208.15 757.02,202.63 772.44,199.61" fill="none" stroke="#bcbcbc" stroke-width="8" stroke-linecap="round" stroke-linejoin="round" /><polyline points="455.66,-1082.17 513.44,-1075.03 519.24,-1074.31 541.64,-1068.81" fill="none" stroke="#bcbcbc" stroke-width="8" stroke-linecap="round" stroke-linejoin="round" /><polyline points="949.40,-494.76 959.65,-496.90 997.94,-478.14 1002.98,-473.15 1074.85,-351.50 1076.74,-336.75 1086.09,-328.96 1084.60,-323.58 1084.37,-314.81 1085.67,-302.55 1104.70,-224.33 1106.39,-170.15 1109.05,-83.63 1113.53,32.81 1095.30,83.54 1083.56,114.48 1066.41,158.07 1061.45,170.67 1058.23,174.20 1053.05,207.93" fill="none" stroke="#bcbcbc" stroke-width="8" stroke-linecap="round" stroke-linejoin="round" /><polyline points="1082.28,413.42 1064.79,405.82 1021.12,375.33 963.49,334.84 931.80,309.21 910.41,286.31" fill="none" stroke="#bcbcbc" stroke-width="8" stroke-linecap="round" stroke-linejoin="round" /><polyline points="375.09,1095.18 357.93,1089.74 330.07,1080.91 316.78,1076.69 301.16,1071.74 281.43,1065.49 263.60,1059.83 245.97,1054.24 167.34,1029.29 153.57,1024.92 136.46,1019.50 132.69,1018.31 87.72,1006.43 75.02,1003.35 59.10,999.50 42.45,995.46 -17.57,980.91 -33.67,977.01 -50.96,971.00 -87.10,958.45 -100.73,953.72 -112.91,949.77 -169.49,929.65 -176.62,925.40 -180.05,918.01" fill="none" stroke="#bcbcbc" stroke-width="8" stroke-linecap="round" stroke-linejoin="round" /><polyline points="633.52,239.88 629.36,224.94 616.93,180.40 612.16,163.27 605.25,150.47 604.61,148.09 600.54,133.01 605.28,126.34 599.58,107.33 597.82,101.42" fill="none" stroke="#bcbcbc" stroke-width="8" stroke-linecap="round" stroke-linejoin="round" /><polyline points="612.75,-305.19 624.56,-310.75 689.08,-346.33 725.97,-370.05 751.99,-387.79 757.73,-392.07 778.67,-406.62 800.36,-422.65 814.10,-432.65 830.48,-444.62 887.40,-470.31 894.79,-469.92 905.58,-475.02 949.40,-494.76" fill="none" stroke="#bcbcbc" stroke-width="8" stroke-linecap="round" stroke-linejoin="round" /><polyline points="-102.45,-62.68 -93.14,-58.90 -86.99,-57.02 28.40,-21.57 46.02,-16.16" fill="none" stroke="#bcbcbc" stroke-width="8" stroke-linecap="round" stroke-linejoin="round" /><polyline points="-926.67,196.81 -1009.11,171.86" fill="none" stroke="#bcbcbc" stroke-width="8" stroke-linecap="round" stroke-linejoin="round" /><polyline points="404.99,-965.73 425.43,-939.84 428.48,-935.97 438.80,-922.90 450.56,-921.52 474.73,-918.68 479.03,-915.71" fill="none" stroke="#bcbcbc" stroke-width="8" stroke-linecap="round" stroke-linejoin="round" /><polyline points="1114.78,185.95 1082.39,191.99 1049.17,210.03 1018.39,227.17 989.27,241.73 954.09,260.84 928.61,276.31 878.26,303.30 681.72,402.18 630.77,424.62 597.10,439.18 580.42,444.64 566.62,447.22 544.02,448.58 511.87,444.03 431.65,424.77 317.76,398.23 167.93,353.04 112.73,334.84 22.34,306.94 -64.10,278.43 -190.88,228.69 -254.27,201.39 -330.70,167.42 -457.48,97.96 -487.20,78.25 -562.42,30.94 -593.97,-0.61 -641.28,-61.87 -719.23,-142.24 -749.86,-169.24" fill="none" stroke="#bcbcbc" stroke-width="8" stroke-linecap="round" stroke-linejoin="round" /><polyline points="500.22,1134.73 501.55,1127.33 506.35,1115.22 551.30,1010.03 568.29,970.60 588.31,921.46 593.18,903.47" fill="none" stroke="#bcbcbc" stroke-width="8" stroke-linecap="round" stroke-linejoin="round" /><polyline points="-362.26,690.59 -413.33,665.88 -529.54,609.63 -672.08,540.65 -684.80,534.49" fill="none" stroke="#bcbcbc" stroke-width="8" stroke-linecap="round" stroke-linejoin="round" /><polyline points="477.07,-123.50 489.97,-136.71 524.26,-171.81 551.47,-201.52" fill="none" stroke="#bcbcbc" stroke-width="8" stroke-linecap="round" stroke-linejoin="round" /><polyline points="-513.02,-45.31 -527.19,-64.06 -593.58,-151.96 -688.34,-228.64" fill="none" stroke="#bcbcbc" stroke-width="8" stroke-linecap="round" stroke-linejoin="round" /><polyline points="-924.28,1111.77 -911.32,1081.04 -870.11,978.32 -865.12,964.83 -859.58,949.88 -857.48,944.48 -856.92,936.03 -851.64,856.17 -850.13,833.26" fill="none" stroke="#bcbcbc" stroke-width="8" stroke-linecap="round" stroke-linejoin="round" /><polyline points="-952.39,286.02 -926.67,196.81 -892.73,79.14 -888.53,64.57 -883.86,48.02 -873.40,10.97 -872.30,7.08 -869.31,-4.83 -864.53,-18.30 -863.37,-21.56 -857.34,-36.51 -845.50,-62.64 -841.95,-70.14" fill="none" stroke="#bcbcbc" stroke-width="8" stroke-linecap="round" stroke-linejoin="round" /><polyline points="-888.53,64.57 -836.48,77.88 -726.23,106.22 -663.41,125.78 -637.21,131.91" fill="none" stroke="#bcbcbc" stroke-width="8" stroke-linecap="round" stroke-linejoin="round" /><polyline points="182.84,-340.23 184.61,-351.07 186.39,-362.31 194.03,-399.93 213.10,-487.49 228.77,-565.81 231.64,-582.06 235.52,-604.12 235.53,-604.14" fill="none" stroke="#bcbcbc" stroke-width="8" stroke-linecap="round" stroke-linejoin="round" /><polyline points="28.74,1345.84 51.98,1286.57 54.86,1275.92 147.09,1041.81 153.57,1024.92 158.81,1010.59 213.92,850.27 224.53,841.01" fill="none" stroke="#bcbcbc" stroke-width="8" stroke-linecap="round" stroke-linejoin="round" /><polyline points="344.87,-385.56 344.86,-385.58 341.60,-402.72 341.08,-404.80 333.12,-437.20 333.12,-437.31 327.69,-459.27 304.68,-538.14 301.77,-546.59 286.23,-588.84 281.18,-601.45 277.92,-609.59 273.69,-618.83 273.69,-618.85 273.68,-618.89 270.60,-652.86 270.30,-669.53" fill="none" stroke="#bcbcbc" stroke-width="8" stroke-linecap="round" stroke-linejoin="round" /><polyline points="310.37,952.60 304.45,959.00 295.63,969.49 270.79,1039.55 263.60,1059.83" fill="none" stroke="#bcbcbc" stroke-width="8" stroke-linecap="round" stroke-linejoin="round" /><polyline points="-102.45,-62.68 -99.06,-71.88 -98.29,-74.01 -82.15,-119.08 -76.10,-138.07 -26.65,-283.47" fill="none" stroke="#bcbcbc" stroke-width="8" stroke-linecap="round" stroke-linejoin="round" /><polyline points="153.36,141.17 158.41,127.77 172.07,91.47 177.85,76.13 181.76,65.74 192.72,36.61 199.97,17.37 200.94,14.78 218.49,-31.83 225.83,-29.56 229.80,-40.38 236.83,-59.52 235.49,-68.22 254.16,-119.04 256.08,-124.26 259.62,-127.52 262.59,-130.25 281.31,-181.43 284.02,-195.44 310.88,-270.07 317.23,-275.04 330.16,-311.60 327.86,-317.21 339.18,-351.35 333.31,-381.84" fill="none" stroke="#bcbcbc" stroke-width="8" stroke-linecap="round" stroke-linejoin="round" /><polyline points="633.85,-1247.00 626.32,-1259.35 586.77,-1324.23" fill="none" stroke="#bcbcbc" stroke-width="8" stroke-linecap="round" stroke-linejoin="round" /><polyline points="757.73,-392.07 939.23,-275.36 939.28,-275.28 939.28,-275.26 972.85,-270.91" fill="none" stroke="#bcbcbc" stroke-width="8" stroke-linecap="round" stroke-linejoin="round" /><polyline points="684.95,-635.87 878.06,-538.94 883.88,-534.60 883.49,-502.87 887.40,-470.31" fill="none" stroke="#bcbcbc" stroke-width="8" stroke-linecap="round" stroke-linejoin="round" /><polyline points="316.78,1076.69 309.83,1097.88 281.69,1183.69 233.84,1328.20 230.44,1338.46 227.00,1348.84 226.04,1359.91" fill="none" stroke="#bcbcbc" stroke-width="8" stroke-linecap="round" stroke-linejoin="round" /><polyline points="860.41,555.42 861.56,544.65 861.81,534.61 861.73,534.25 854.88,504.68 852.08,492.32 850.73,486.35 849.34,480.26 841.83,447.17 827.16,381.04 816.49,341.28 814.98,335.14" fill="none" stroke="#bcbcbc" stroke-width="8" stroke-linecap="round" stroke-linejoin="round" /><polyline points="-98.33,1160.78 -93.55,1147.18 -39.77,994.36 -33.67,977.01" fill="none" stroke="#bcbcbc" stroke-width="8" stroke-linecap="round" stroke-linejoin="round" /><polyline points="1109.05,-83.63 1093.23,-88.10 985.79,-252.96 972.85,-270.91" fill="none" stroke="#bcbcbc" stroke-width="8" stroke-linecap="round" stroke-linejoin="round" /><polyline points="-657.14,311.93 -265.58,405.74 -238.58,415.60" fill="none" stroke="#bcbcbc" stroke-width="8" stroke-linecap="round" stroke-linejoin="round" /><polyline points="577.86,-1153.83 730.39,-1097.33 751.87,-1101.00" fill="none" stroke="#bcbcbc" stroke-width="8" stroke-linecap="round" stroke-linejoin="round" />
    <polyline points="235.40,167.20 231.54,177.80 230.45,181.10 225.43,196.35 193.56,285.26 177.74,329.42 177.20,330.92 170.84,344.65 167.20,352.80" fill="none" stroke="#ffffff" stroke-width="16" stroke-linecap="round" stroke-linejoin="round" />
    <polyline points="235.40,167.20 231.54,177.80 230.45,181.10 225.43,196.35 193.56,285.26 177.74,329.42 177.20,330.92 170.84,344.65 167.20,352.80" fill="none" stroke="#111111" stroke-width="9" stroke-linecap="round" stroke-linejoin="round" />
    
            <g transform="translate(235.40,167.20)">
              <circle r="19" fill="#ffffff" stroke="#111111" stroke-width="4" />
              <text text-anchor="middle" dominant-baseline="central" font-family="Helvetica, Arial, sans-serif"
                font-size="18" font-weight="700" fill="#111111">1</text>
            </g>
            
            <g transform="translate(167.20,352.80)">
              <circle r="19" fill="#ffffff" stroke="#111111" stroke-width="4" />
              <text text-anchor="middle" dominant-baseline="central" font-family="Helvetica, Arial, sans-serif"
                font-size="18" font-weight="700" fill="#111111">2</text>
            </g>
            
  </g>
</svg>
