<svg xmlns="http://www.w3.org/2000/svg" width="520" height="520" viewBox="0 0 520 520">
  <rect width="100%" height="100%" fill="#ffffff" />
  <g>
    <polyline points="869.70,581.36 876.85,619.42 923.02,942.41 915.96,1023.17" fill="none" stroke="#bcbcbc" stroke-width="8" stroke-linecap="round" stroke-linejoin="round" /><polyline points="-68.68,3272.99 -57.52,3238.67 1.62,3056.77 8.59,3035.34 15.65,3012.83 164.35,2538.57 176.31,2500.43 148.92,2432.96" fill="none" stroke="#bcbcbc" stroke-width="8" stroke-linecap="round" stroke-linejoin="round" /><polyline points="-1095.87,2851.16 -1098.27,2823.93 -1049.65,2551.60 -1042.83,2517.54 -1037.74,2499.70 -1024.36,2430.63 -1009.32,2346.11 -992.94,2271.67 -976.69,2197.39 -966.45,2176.44 -959.76,2163.61" fill="none" stroke="#bcbcbc" stroke-width="8" stroke-linecap="round" stroke-linejoin="round" /><polyline points="-813.67,930.23 -825.23,894.99 -944.71,530.57 -950.54,515.28" fill="none" stroke="#bcbcbc" stroke-width="8" stroke-linecap="round" stroke-linejoin="round" /><polyline points="-1426.72,4137.54 -1423.16,4102.76 -1421.71,4086.81 -1408.70,3942.92 -1394.47,3816.23 -1391.14,3786.65 -1388.05,3751.15 -1387.71,3748.17 -1379.63,3677.60 -1372.68,3605.88 -1365.01,3536.66 -1359.85,3482.78 -1357.69,3449.52 -1355.79,3418.81 -1352.40,3384.21" fill="none" stroke="#bcbcbc" stroke-width="8" stroke-linecap="round" stroke-linejoin="round" /><polyline points="224.13,3357.54 232.64,3330.79 292.59,3142.30 299.41,3120.89 309.09,3090.38 316.02,3068.51 369.09,2839.63" fill="none" stroke="#bcbcbc" stroke-width="8" stroke-linecap="round" stroke-linejoin="round" /><polyline points="-8.92,-370.72 13.22,-367.32 623.31,-273.57" fill="none" stroke="#bcbcbc" stroke-width="8" stroke-linecap="round" stroke-linejoin="round" /><polyline points="-1575.14,3313.13 -1638.64,3310.17 -1677.36,3308.37 -1698.40,3307.39 -1716.85,3306.53 -1860.65,3299.84 -2060.66,3290.54 -2155.99,3277.03 -2187.90,3272.50 -2215.58,3267.61 -2403.09,3234.52 -2429.29,3229.89 -2435.10,3228.89 -2467.48,3223.34 -2492.36,3219.08 -2651.24,3205.04 -2681.50,3202.36 -2692.60,3201.38 -2726.95,3198.99 -2794.21,3194.33" fill="none" stroke="#bcbcbc" stroke-width="8" stroke-linecap="round" stroke-linejoin="round" /><polyline points="-652.58,3128.88 -640.28,3093.87 -529.44,2786.60 -396.11,2399.02 -387.57,2374.71 -381.61,2357.73 -376.79,2343.79" fill="none" stroke="#bcbcbc" stroke-width="8" stroke-linecap="round" stroke-linejoin="round" /><polyline points="-2692.60,3201.38 -2695.43,3181.62 -2696.10,3160.16 -2691.89,3116.95 -2682.24,3038.05 -2675.80,3011.56 -2665.36,2915.82 -2663.45,2894.50 -2660.39,2867.08 -2658.12,2846.72 -2653.84,2823.64 -2645.90,2761.54 -2640.39,2714.03 -2632.29,2694.60" fill="none" stroke="#bcbcbc" stroke-width="8" stroke-linecap="round" stroke-linejoin="round" /><polyline points="-2806.04,2670.32 -2658.20,2690.98 -2632.29,2694.60 -2616.24,2697.16 -2549.97,2707.72 -2397.28,2732.05 -2371.08,2736.42" fill="none" stroke="#bcbcbc" stroke-width="8" stroke-linecap="round" stroke-linejoin="round" /><polyline points="-85.27,730.73 -84.31,744.17 -82.32,757.78 -77.52,768.21 -68.53,779.83 -51.91,794.96 -12.51,818.94 291.46,1009.65 478.67,1260.67 620.07,1609.67 629.29,1632.73" fill="none" stroke="#bcbcbc" stroke-width="8" stroke-linecap="round" stroke-linejoin="round" /><polyline points="-133.94,1749.07 -127.64,1759.50 -126.01,1762.21 -120.79,1788.53 -85.12,1961.00 -73.81,2015.74 -65.71,2054.73 -53.08,2133.75 -47.18,2170.20 -43.11,2192.44 -38.66,2212.52 -33.34,2224.24 -25.54,2237.80 -21.36,2244.20 57.62,2357.28 100.34,2424.56 111.48,2440.64" fill="none" stroke="#bcbcbc" stroke-width="8" stroke-linecap="round" stroke-linejoin="round" /><polyline points="-2401.28,3908.58 -2397.08,3882.70 -2393.17,3863.98 -2392.13,3861.50 -2339.56,3736.49 -2306.06,3655.25 -2295.88,3629.50 -2285.10,3602.24 -2273.39,3578.80 -2271.50,3574.22 -2255.47,3535.47 -2243.08,3501.19 -2232.45,3469.73 -2225.70,3447.50 -2218.14,3420.03 -2209.42,3383.21 -2202.80,3353.33 -2194.89,3311.62 -2193.22,3302.32 -2187.90,3272.50" fill="none" stroke="#bcbcbc" stroke-width="8" stroke-linecap="round" stroke-linejoin="round" /><polyline points="145.62,417.72 313.24,534.85 335.82,539.65 352.35,558.55" fill="none" stroke="#bcbcbc" stroke-width="8" stroke-linecap="round" stroke-linejoin="round" /><polyline points="-558.20,1499.50 -536.05,1508.02 -439.87,1539.49 -216.78,1625.05 -204.27,1637.53 -198.39,1646.84" fill="none" stroke="#bcbcbc" stroke-width="8" stroke-linecap="round" stroke-linejoin="round" /><polyline points="-142.49,3698.14 -127.29,3658.54 -52.30,3455.05 0.73,3301.30 11.73,3296.24" fill="none" stroke="#bcbcbc" stroke-width="8" stroke-linecap="round" stroke-linejoin="round" /><polyline points="-1202.63,3440.11 -1190.79,3413.94 -1189.62,3411.35 -1169.37,3343.43 -1136.20,3231.62 -1127.71,3203.01 -1121.11,3180.78 -1120.22,3167.83 -1121.57,3139.15" fill="none" stroke="#bcbcbc" stroke-width="8" stroke-linecap="round" stroke-linejoin="round" /><polyline points="175.88,1758.00 156.86,1761.93 113.77,1754.26 107.10,1736.48 32.44,1708.02 14.79,1712.63 -52.57,1687.90 -62.62,1694.92" fill="none" stroke="#bcbcbc" stroke-width="8" stroke-linecap="round" stroke-linejoin="round" /><polyline points="65.02,-551.58 98.85,-543.30 117.57,-540.05 562.61,-462.87" fill="none" stroke="#bcbcbc" stroke-width="8" stroke-linecap="round" stroke-linejoin="round" /><polyline points="-280.88,3574.21 -262.37,3522.02 -226.39,3420.57 -203.14,3377.36 -169.69,3283.69 -156.33,3246.29" fill="none" stroke="#bcbcbc" stroke-width="8" stroke-linecap="round" stroke-linejoin="round" /><polyline points="-2719.34,1548.29 -2751.57,1546.82 -2759.65,1556.63 -2815.80,1624.87 -3012.11,1851.65 -3039.72,1883.54" fill="none" stroke="#bcbcbc" stroke-width="8" stroke-linecap="round" stroke-linejoin="round" /><polyline points="-997.51,1742.52 -1011.73,1774.03 -1013.46,1777.84 -1062.89,1906.77 -1112.73,2048.69 -1126.01,2086.54 -1133.55,2106.08" fill="none" stroke="#bcbcbc" stroke-width="8" stroke-linecap="round" stroke-linejoin="round" /><polyline points="-272.34,293.88 -256.64,315.19 -245.42,344.49 -227.97,386.55 -199.97,452.70 -175.16,512.08 -146.69,577.29 -125.57,627.54 -122.44,634.75 -122.25,635.20 -105.25,674.94 -100.17,686.24 -95.34,696.99 -90.23,707.07 -86.38,717.31 -85.27,730.74" fill="none" stroke="#bcbcbc" stroke-width="8" stroke-linecap="round" stroke-linejoin="round" /><polyline points="-1474.66,2378.07 -1466.44,2373.57 -1454.94,2364.43 -1449.18,2352.58 -1372.80,2062.94 -1370.50,2046.60 -1361.18,2016.76" fill="none" stroke="#bcbcbc" stroke-width="8" stroke-linecap="round" stroke-linejoin="round" /><polyline points="1196.04,1924.81 1206.88,1959.21 1214.50,1995.33 1199.66,2133.00 1182.50,2236.55 1173.13,2271.88 1172.28,2275.07 1164.07,2294.14 1152.88,2314.35 1126.75,2347.41 1139.40,2412.03 1098.47,2550.75 1075.86,2627.36 1029.63,2752.75 961.91,2905.43 879.23,3051.74 853.41,3099.30 806.73,3177.42 620.22,3442.16 579.35,3497.23 421.11,3704.05 330.26,3807.42 203.18,3936.59 191.42,3937.80 162.72,3961.27" fill="none" stroke="#bcbcbc" stroke-width="8" stroke-linecap="round" stroke-linejoin="round" /><polyline points="-1105.37,4189.37 -1053.31,4027.88 -1044.79,4001.22 -1033.22,3984.42 -1008.36,3909.78 -1000.26,3884.43 -897.55,3562.81 -887.22,3530.46 -878.70,3502.04 -757.49,3120.51" fill="none" stroke="#bcbcbc" stroke-width="8" stroke-linecap="round" stroke-linejoin="round" /><polyline points="114.30,1186.12 159.31,1136.94 172.59,1120.94 263.52,992.12" fill="none" stroke="#bcbcbc" stroke-width="8" stroke-linecap="round" stroke-linejoin="round" /><polyline points="-785.30,1205.61 -661.35,1248.76 -654.50,1259.89 -619.31,1271.69 -598.42,1278.83 -498.52,1312.58" fill="none" stroke="#bcbcbc" stroke-width="8" stroke-linecap="round" stroke-linejoin="round" /><polyline points="295.02,347.81 352.35,558.55 418.71,806.81 428.77,827.50 430.37,851.12 475.38,935.15 596.83,1161.66 623.37,1200.83 631.07,1212.30 812.52,1551.57 895.92,1627.39 907.62,1642.50 924.11,1656.60 1082.45,1792.01 1093.20,1801.19 1121.63,1816.29" fill="none" stroke="#bcbcbc" stroke-width="8" stroke-linecap="round" stroke-linejoin="round" /><polyline points="-320.79,4223.65 74.10,3994.24 144.39,3958.30 162.72,3961.27" fill="none" stroke="#bcbcbc" stroke-width="8" stroke-linecap="round" stroke-linejoin="round" /><polyline points="107.36,3895.46 131.86,3866.33 351.82,3427.40 366.39,3398.61 378.56,3370.12 449.61,3194.41 470.77,3141.47 532.01,2956.11 571.72,2717.82 576.42,2683.14" fill="none" stroke="#bcbcbc" stroke-width="8" stroke-linecap="round" stroke-linejoin="round" /><polyline points="-62.40,1314.08 -66.25,1318.03 -71.54,1336.50 -72.07,1338.34 -95.94,1430.26 -89.68,1454.26 -94.89,1475.77 -101.70,1503.94 -119.17,1524.18 -139.00,1604.48 -162.35,1622.13 -187.27,1639.22 -198.39,1646.84" fill="none" stroke="#bcbcbc" stroke-width="8" stroke-linecap="round" stroke-linejoin="round" /><polyline points="-997.51,1742.52 -987.36,1716.50 -926.33,1560.05 -913.03,1525.94 -902.06,1497.84 -824.09,1298.05 -788.99,1214.52 -785.30,1205.61 -758.01,1139.64 -696.80,987.63 -674.38,922.92 -669.39,908.08 -662.69,891.25" fill="none" stroke="#bcbcbc" stroke-width="8" stroke-linecap="round" stroke-linejoin="round" /><polyline points="-314.66,794.15 -302.86,829.28 84.41,1160.11 295.74,1343.98 611.38,1618.40 638.93,1640.44 651.27,1648.15 706.05,1697.88 779.19,1760.27 945.10,1901.74 998.68,1947.83 1034.24,1990.36" fill="none" stroke="#bcbcbc" stroke-width="8" stroke-linecap="round" stroke-linejoin="round" /><polyline points="325.66,224.10 345.31,211.51 461.68,163.14 485.59,137.98" fill="none" stroke="#bcbcbc" stroke-width="8" stroke-linecap="round" stroke-linejoin="round" /><polyline points="460.07,3168.24 299.41,3120.89 8.59,3035.34" fill="none" stroke="#bcbcbc" stroke-width="8" stroke-linecap="round" stroke-linejoin="round" /><polyline points="-58.54,-249.43 -36.60,-234.30 678.50,-75.17" fill="none" stroke="#bcbcbc" stroke-width="8" stroke-linecap="round" stroke-linejoin="round" /><polyline points="824.77,2105.24 787.82,2023.00 705.80,1827.38 699.69,1811.83 685.66,1776.12 632.79,1641.58 629.46,1632.86" fill="none" stroke="#bcbcbc" stroke-width="8" stroke-linecap="round" stroke-linejoin="round" /><polyline points="-272.34,293.88 -312.05,282.58 -341.22,273.89 -400.52,256.28 -430.64,247.69 -447.90,242.89 -470.43,236.43" fill="none" stroke="#bcbcbc" stroke-width="8" stroke-linecap="round" stroke-linejoin="round" /><polyline points="-1307.50,1369.84 -1309.51,1363.27 -1311.36,1358.67 -1319.55,1338.34 -1351.24,1264.43 -1381.37,1189.35 -1387.87,1171.63 -1395.37,1151.21 -1400.73,1134.51 -1409.59,1109.46 -1410.52,1106.83 -1439.34,1035.79 -1492.25,902.26 -1504.14,895.49 -1512.59,873.83 -1529.47,815.19 -1558.38,742.51 -1564.61,725.99" fill="none" stroke="#bcbcbc" stroke-width="8" stroke-linecap="round" stroke-linejoin="round" /><polyline points="-1053.31,4027.88 -1023.26,4037.09 -926.04,4066.72 -895.59,4076.00" fill="none" stroke="#bcbcbc" stroke-width="8" stroke-linecap="round" stroke-linejoin="round" /><polyline points="762.31,259.07 767.97,236.16 765.67,227.46 762.89,216.96 745.14,151.92 705.57,14.43 684.68,-55.86 678.50,-75.17 623.31,-273.57 593.52,-380.58 562.61,-462.87 534.69,-537.11 506.89,-588.15 479.87,-615.12 272.49,-868.55 257.15,-886.59 246.98,-903.27" fill="none" stroke="#bcbcbc" stroke-width="8" stroke-linecap="round" stroke-linejoin="round" /><polyline points="-85.27,730.74 -95.96,734.82 -115.73,740.28 -117.71,740.83 -200.31,761.95 -295.27,788.69 -314.66,794.15 -323.30,796.90 -346.11,804.23 -365.61,809.66 -450.77,833.35 -590.82,873.14 -643.03,886.34 -662.69,891.25 -756.02,914.18 -813.67,930.23 -935.77,964.35 -1056.45,998.36 -1070.41,1002.24 -1171.27,1030.23 -1217.79,1043.15 -1241.28,1054.25 -1285.75,1076.30 -1374.08,1121.13 -1380.23,1124.25 -1400.73,1134.51 -1413.24,1140.77 -1430.69,1149.92 -1492.74,1182.45 -1605.80,1245.90 -1700.24,1295.37 -1713.76,1302.46 -1731.80,1303.58 -1742.64,1309.34 -1744.81,1310.49 -1847.27,1366.64 -1868.72,1366.55 -1893.35,1379.44 -1901.95,1383.94 -1909.21,1387.73 -1926.33,1396.70 -1939.83,1427.48 -1997.82,1458.54 -2016.25,1468.42 -2036.20,1479.27 -2116.88,1523.18 -2158.59,1545.88 -2179.61,1551.94" fill="none" stroke="#bcbcbc" stroke-width="8" stroke-linecap="round" stroke-linejoin="round" /><polyline points="1075.86,2627.36 1032.81,2631.30 898.33,2643.62 892.27,2644.18 883.69,2644.97 869.81,2646.24 739.42,2658.21 694.07,2654.01 641.26,2667.24 598.96,2677.61 576.42,2683.14 520.44,2685.26 471.98,2682.79 447.28,2680.17 426.26,2673.81 410.78,2665.25 353.12,2624.48 213.02,2528.25 199.82,2519.29 186.37,2510.16 176.31,2500.43" fill="none" stroke="#bcbcbc" stroke-width="8" stroke-linecap="round" stroke-linejoin="round" /><polyline points="-2097.13,1002.72 -2046.29,1102.24 -2038.60,1130.69 -1995.78,1212.40 -1978.09,1235.77 -1906.52,1375.04 -1901.95,1383.94" fill="none" stroke="#bcbcbc" stroke-width="8" stroke-linecap="round" stroke-linejoin="round" /><polyline points="-539.32,1887.82 -546.93,1908.75 -549.07,1915.24 -559.00,1945.35 -621.89,2120.83 -653.11,2207.97 -654.17,2210.94 -666.71,2238.03 -673.90,2254.12" fill="none" stroke="#bcbcbc" stroke-width="8" stroke-linecap="round" stroke-linejoin="round" /><polyline points="623.37,1200.83 646.78,1187.69 764.33,1116.85 795.74,1098.14 850.73,1065.35 941.19,1006.85 962.30,991.67 1120.98,893.23" fill="none" stroke="#bcbcbc" stroke-width="8" stroke-linecap="round" stroke-linejoin="round" /><polyline points="1178.05,1665.82 1137.93,1653.87 1114.61,1634.74 1025.48,1557.61 1022.44,1554.90 1000.89,1535.66 988.23,1513.21 764.33,1116.85" fill="none" stroke="#bcbcbc" stroke-width="8" stroke-linecap="round" stroke-linejoin="round" /><polyline points="-1348.81,1634.41 -997.51,1742.52 -968.84,1751.61 -706.69,1834.72 -701.21,1836.45 -661.94,1848.91 -642.63,1855.04 -617.54,1861.90 -565.78,1879.42 -539.32,1887.82 -515.50,1895.37 -320.41,1957.27 -114.45,2021.98 -97.42,2027.33 -73.81,2015.74" fill="none" stroke="#bcbcbc" stroke-width="8" stroke-linecap="round" stroke-linejoin="round" /><polyline points="-315.87,-100.11 -163.69,-239.95 -137.93,-263.62" fill="none" stroke="#bcbcbc" stroke-width="8" stroke-linecap="round" stroke-linejoin="round" /><polyline points="-2864.09,2156.32 -2305.71,2216.18" fill="none" stroke="#bcbcbc" stroke-width="8" stroke-linecap="round" stroke-linejoin="round" /><polyline points="-1179.62,597.65 -1062.25,555.68 -941.19,511.91 -865.98,482.66 -636.33,399.14 -569.68,376.08 -555.76,371.26 -539.07,365.52 -520.33,359.08 -518.03,358.29 -480.20,343.08 -463.76,336.47" fill="none" stroke="#bcbcbc" stroke-width="8" stroke-linecap="round" stroke-linejoin="round" /><polyline points="-391.37,3437.89 -280.88,3574.21 -213.23,3642.33 -183.95,3663.41 -142.49,3698.14 -103.55,3730.84 -70.10,3763.47 -69.27,3780.07" fill="none" stroke="#bcbcbc" stroke-width="8" stroke-linecap="round" stroke-linejoin="round" /><polyline points="-272.34,293.88 -229.04,185.33 -158.95,6.61 -58.54,-249.43 -8.92,-370.72 65.02,-551.58 125.65,-699.73 136.50,-719.39 189.82,-806.57 193.27,-812.21 212.77,-850.57 246.98,-903.27 266.09,-932.67 293.12,-974.28" fill="none" stroke="#bcbcbc" stroke-width="8" stroke-linecap="round" stroke-linejoin="round" /><polyline points="-1293.92,3196.14 -1301.01,3201.81 -1305.70,3208.57 -1315.25,3236.73 -1321.85,3257.07 -1352.36,3348.30 -1356.56,3361.47 -1359.16,3369.63 -1387.17,3361.60 -1455.36,3338.74 -1522.92,3316.08 -1575.14,3313.13" fill="none" stroke="#bcbcbc" stroke-width="8" stroke-linecap="round" stroke-linejoin="round" /><polyline points="-2629.15,3831.01 -2517.81,3543.44 -2505.42,3512.14 -2494.30,3481.98 -2480.88,3445.55 -2464.41,3388.23 -2447.24,3317.01 -2440.21,3265.97 -2435.10,3228.89 -2427.89,3201.53 -2401.69,2995.90 -2371.08,2736.42 -2355.24,2612.71 -2337.56,2467.38 -2305.71,2216.18 -2300.65,2173.47 -2268.46,1910.76 -2268.44,1896.13 -2261.32,1818.18 -2240.79,1653.52 -2235.64,1624.81 -2230.27,1608.70 -2221.87,1590.96 -2213.71,1577.19 -2195.69,1557.68 -2179.58,1552.15" fill="none" stroke="#bcbcbc" stroke-width="8" stroke-linecap="round" stroke-linejoin="round" /><polyline points="-198.39,1646.84 -192.30,1656.50 -171.88,1688.38 -141.31,1737.39 -133.94,1749.07 -121.75,1739.81 -62.62,1694.92" fill="none" stroke="#bcbcbc" stroke-width="8" stroke-linecap="round" stroke-linejoin="round" /><polyline points="-158.95,6.61 442.66,115.39 505.84,148.64 741.55,265.50 762.31,259.07" fill="none" stroke="#bcbcbc" stroke-width="8" stroke-linecap="round" stroke-linejoin="round" /><polyline points="-1307.50,1369.84 -1318.18,1385.42 -1414.16,1432.26 -1484.65,1521.87 -1560.72,1568.97 -1612.74,1608.26 -1662.37,1648.75 -1687.82,1671.94 -1732.77,1728.96 -1783.03,1801.01 -1791.31,1814.36" fill="none" stroke="#bcbcbc" stroke-width="8" stroke-linecap="round" stroke-linejoin="round" /><polyline points="-1206.03,1434.12 -1210.19,1443.38 -1219.29,1456.68 -1236.49,1477.84 -1337.87,1605.93 -1391.51,1750.41 -1662.25,1648.63" fill="none" stroke="#bcbcbc" stroke-width="8" stroke-linecap="round" stroke-linejoin="round" /><polyline points="-1612.74,1608.26 -1623.23,1576.52 -1668.53,1439.34 -1686.11,1412.23 -1715.55,1323.90 -1718.10,1316.28 -1713.76,1302.46 -1720.81,1279.94 -1862.37,827.90" fill="none" stroke="#bcbcbc" stroke-width="8" stroke-linecap="round" stroke-linejoin="round" /><polyline points="46.03,-858.25 157.91,-855.30 163.13,-855.15 184.57,-854.54 212.77,-850.57" fill="none" stroke="#bcbcbc" stroke-width="8" stroke-linecap="round" stroke-linejoin="round" /><polyline points="-529.44,2786.60 -567.64,2786.13 -891.11,2829.56 -914.42,2832.01 -941.08,2834.83 -1095.87,2851.16 -1304.41,2873.19 -1414.96,2884.85 -1476.12,2891.30 -1525.78,2897.34 -1551.27,2900.44 -1580.00,2903.93 -1718.74,2920.79 -1751.98,2924.84 -1854.45,2936.04 -2401.69,2995.90" fill="none" stroke="#bcbcbc" stroke-width="8" stroke-linecap="round" stroke-linejoin="round" /><polyline points="-1008.36,3909.78 -1037.01,3900.56 -1170.85,3857.48 -1197.90,3848.77 -1221.39,3841.21 -1363.19,3795.63 -1391.14,3786.65 -1428.13,3774.74 -1653.85,3702.10 -1679.25,3693.92" fill="none" stroke="#bcbcbc" stroke-width="8" stroke-linecap="round" stroke-linejoin="round" /><polyline points="-448.71,1199.76 -370.86,1224.02 -86.17,1311.94 -83.51,1312.76 -62.40,1314.08" fill="none" stroke="#bcbcbc" stroke-width="8" stroke-linecap="round" stroke-linejoin="round" /><polyline points="352.35,558.55 739.62,565.37" fill="none" stroke="#bcbcbc" stroke-width="8" stroke-linecap="round" stroke-linejoin="round" /><polyline points="162.72,3961.27 107.36,3895.46 84.13,3868.44 64.17,3849.79 37.60,3829.95 -16.72,3797.36 -69.27,3780.07 -176.20,3747.05 -263.65,3719.29 -213.23,3642.33" fill="none" stroke="#bcbcbc" stroke-width="8" stroke-linecap="round" stroke-linejoin="round" /><polyline points="-391.37,3437.89 -468.46,3342.74 -483.12,3324.63 -560.77,3217.66 -578.34,3184.99 -574.12,3146.10 -550.71,3145.88 -492.96,3156.99 -405.09,3173.89" fill="none" stroke="#bcbcbc" stroke-width="8" stroke-linecap="round" stroke-linejoin="round" /><polyline points="-1399.81,2675.46 -1385.59,2706.04 -1304.41,2873.19 -1183.68,3121.73 -1168.29,3153.42" fill="none" stroke="#bcbcbc" stroke-width="8" stroke-linecap="round" stroke-linejoin="round" /><polyline points="-2700.14,3432.52 -2671.10,3444.39 -2535.11,3500.00 -2505.42,3512.14 -2474.18,3524.91 -2314.07,3590.39 -2285.10,3602.24" fill="none" stroke="#bcbcbc" stroke-width="8" stroke-linecap="round" stroke-linejoin="round" /><polyline points="-1332.99,2427.63 -1049.65,2551.60" fill="none" stroke="#bcbcbc" stroke-width="8" stroke-linecap="round" stroke-linejoin="round" /><polyline points="-62.40,1314.08 -19.24,1316.35 -16.49,1318.80 2.88,1335.98 31.34,1361.38 36.59,1371.60 134.69,1457.52 141.94,1471.22 210.92,1532.10 228.28,1537.40 281.94,1584.40 293.96,1589.89 374.88,1658.54 392.89,1674.51 402.83,1690.34" fill="none" stroke="#bcbcbc" stroke-width="8" stroke-linecap="round" stroke-linejoin="round" /><polyline points="-2780.12,2427.91 -2337.56,2467.38" fill="none" stroke="#bcbcbc" stroke-width="8" stroke-linecap="round" stroke-linejoin="round" /><polyline points="-1791.99,4075.98 -1778.27,4046.78 -1774.75,4033.79 -1755.53,3962.93 -1685.92,3717.43 -1679.25,3693.92 -1672.21,3668.15 -1640.67,3552.80 -1587.41,3358.02 -1575.14,3313.13" fill="none" stroke="#bcbcbc" stroke-width="8" stroke-linecap="round" stroke-linejoin="round" /><polyline points="-1399.81,2675.46 -1332.99,2427.63 -1474.66,2378.07 -1511.75,2399.97 -1528.66,2412.83 -1541.18,2429.77 -1549.99,2452.13 -1582.57,2572.57 -1556.29,2585.95 -1529.73,2592.40 -1471.02,2607.68 -1427.07,2621.68 -1399.81,2675.46" fill="none" stroke="#bcbcbc" stroke-width="8" stroke-linecap="round" stroke-linejoin="round" /><polyline points="-1582.57,2572.57 -1613.60,2568.24 -2337.56,2467.38" fill="none" stroke="#bcbcbc" stroke-width="8" stroke-linecap="round" stroke-linejoin="round" /><polyline points="-405.09,3173.89 -337.94,3188.57 -156.33,3246.29 -105.55,3262.35 14.98,3297.17 136.40,3332.19 226.28,3358.16 370.04,3399.67 399.74,3408.26 472.29,3432.58 591.73,3464.39 602.26,3466.36" fill="none" stroke="#bcbcbc" stroke-width="8" stroke-linecap="round" stroke-linejoin="round" /><polyline points="-319.90,4223.14 -344.41,4229.29 -370.90,4303.12 -411.98,4291.46 -598.77,4227.79 -621.26,4222.99 -671.27,4219.41 -897.47,4220.32 -947.34,4213.97 -1059.95,4196.75 -1105.37,4189.37 -1427.54,4137.41 -1552.30,4117.50 -1790.22,4076.28 -1828.63,4068.67 -2365.58,3918.57 -2399.46,3909.09 -2629.15,3831.01 -2685.66,3810.96 -2826.82,3752.46 -2907.27,3722.02" fill="none" stroke="#bcbcbc" stroke-width="8" stroke-linecap="round" stroke-linejoin="round" /><polyline points="172.18,252.72 148.94,247.93 -161.39,284.62 -272.34,293.88" fill="none" stroke="#bcbcbc" stroke-width="8" stroke-linecap="round" stroke-linejoin="round" /><polyline points="-405.09,3173.89 -394.21,3155.70 -329.09,2988.43 -256.33,2735.51 -237.77,2681.03 -227.84,2666.21 -157.59,2440.69 -154.09,2413.76 -151.44,2396.17" fill="none" stroke="#bcbcbc" stroke-width="8" stroke-linecap="round" stroke-linejoin="round" /><polyline points="-85.27,730.74 -77.85,727.90 -67.80,719.92 -52.53,702.06 145.62,417.72 198.40,342.51" fill="none" stroke="#bcbcbc" stroke-width="8" stroke-linecap="round" stroke-linejoin="round" /><polyline points="796.65,1775.26 800.70,1763.59 900.31,1646.39 907.62,1642.50 924.92,1618.82 982.87,1552.25 1000.89,1535.66" fill="none" stroke="#bcbcbc" stroke-width="8" stroke-linecap="round" stroke-linejoin="round" /><polyline points="883.69,2644.97 882.31,2629.29 881.25,2617.15 876.00,2593.96 869.73,2578.83 861.90,2539.08 861.19,2524.69 855.88,2492.51 832.18,2480.12 813.23,2487.37 779.31,2495.49 752.47,2499.69 726.72,2505.90 691.18,2514.01 674.97,2517.70" fill="none" stroke="#bcbcbc" stroke-width="8" stroke-linecap="round" stroke-linejoin="round" /><polyline points="-1733.22,2069.41 -1660.78,1899.59 -1656.75,1888.55" fill="none" stroke="#bcbcbc" stroke-width="8" stroke-linecap="round" stroke-linejoin="round" /><polyline points="175.88,1758.00 210.80,1744.48 229.05,1737.41 243.17,1723.11 301.37,1708.76 320.91,1713.74 363.04,1702.88 395.18,1694.61 402.83,1690.34 434.00,1682.70 593.34,1643.66 629.46,1632.86" fill="none" stroke="#bcbcbc" stroke-width="8" stroke-linecap="round" stroke-linejoin="round" /><polyline points="-1293.92,3196.14 -1218.75,3168.84 -1193.60,3161.15 -1168.29,3153.42 -1121.57,3139.15 -1085.23,3133.93 -961.12,3120.35 -936.18,3118.98 -825.13,3119.93 -757.49,3120.51 -732.05,3119.21 -691.30,3123.34 -678.56,3125.16 -652.58,3128.88 -574.12,3146.10" fill="none" stroke="#bcbcbc" stroke-width="8" stroke-linecap="round" stroke-linejoin="round" /><polyline points="-935.77,964.35 -948.22,922.24 -994.47,765.85 -1050.65,587.51 -1062.25,555.68 -1074.03,525.84 -1088.92,482.84" fill="none" stroke="#bcbcbc" stroke-width="8" stroke-linecap="round" stroke-linejoin="round" /><polyline points="-1070.29,3486.06 -1060.42,3454.85 -960.49,3139.73 -961.12,3120.35" fill="none" stroke="#bcbcbc" stroke-width="8" stroke-linecap="round" stroke-linejoin="round" /><polyline points="-936.18,3118.98 -916.40,2853.65 -914.42,2832.01 -911.39,2806.84 -911.34,2805.70 -910.04,2774.92 -903.44,2691.40 -899.72,2652.50 -894.63,2608.31 -889.99,2576.50 -885.83,2556.51 -880.59,2541.42 -870.31,2507.39 -849.09,2436.55 -822.10,2345.10 -792.34,2251.58 -786.27,2232.51 -781.39,2218.68" fill="none" stroke="#bcbcbc" stroke-width="8" stroke-linecap="round" stroke-linejoin="round" /><polyline points="-1582.57,2572.57 -1587.84,2596.08 -1586.93,2603.60 -1554.69,2872.01 -1551.27,2900.44 -1552.76,2929.69 -1561.20,3096.63 -1564.73,3166.38 -1566.55,3202.35 -1569.80,3266.48 -1571.48,3299.87 -1575.14,3313.13" fill="none" stroke="#bcbcbc" stroke-width="8" stroke-linecap="round" stroke-linejoin="round" /><polyline points="-1733.22,2069.41 -1850.43,2034.57 -1865.33,2025.02 -1938.28,2003.76 -1958.77,2003.98 -2050.43,1976.36 -2065.24,1965.44 -2148.64,1940.15 -2250.98,1912.26 -2251.48,1912.21 -2268.46,1910.76" fill="none" stroke="#bcbcbc" stroke-width="8" stroke-linecap="round" stroke-linejoin="round" /><polyline points="402.83,1690.34 406.90,1695.68 423.90,1721.01 455.32,1767.85 484.90,1797.48 541.75,1861.31 532.14,1920.31 527.27,1942.43 520.48,1951.78 534.74,1972.87 556.79,2018.26 600.86,2103.29 622.57,2145.17 636.06,2182.80 642.15,2200.28" fill="none" stroke="#bcbcbc" stroke-width="8" stroke-linecap="round" stroke-linejoin="round" /><polyline points="699.69,1811.83 683.35,1816.91 575.71,1850.41 560.27,1855.37 541.75,1861.32" fill="none" stroke="#bcbcbc" stroke-width="8" stroke-linecap="round" stroke-linejoin="round" /><polyline points="-73.81,2015.74 -40.14,2004.83 204.17,1880.07 236.87,1864.09 352.03,1830.82 463.68,1799.43 484.90,1797.48" fill="none" stroke="#bcbcbc" stroke-width="8" stroke-linecap="round" stroke-linejoin="round" /><polyline points="-47.18,2170.20 234.48,2039.12 246.34,2031.27 273.88,2023.26 461.57,1968.64 490.04,1957.74 520.48,1951.78" fill="none" stroke="#bcbcbc" stroke-width="8" stroke-linecap="round" stroke-linejoin="round" /><polyline points="-104.66,-577.94 9.36,-563.85 20.81,-562.44 65.02,-551.58" fill="none" stroke="#bcbcbc" stroke-width="8" stroke-linecap="round" stroke-linejoin="round" /><polyline points="869.70,581.36 889.92,577.14 965.47,614.17 975.42,624.03 1117.24,864.12 1120.98,893.23 1139.42,908.59 1136.49,919.21 1136.04,936.51 1138.60,960.71 1176.16,1115.10 1179.48,1222.03 1184.75,1392.77 1193.58,1622.58 1157.61,1722.71 1134.44,1783.76 1100.61,1869.79 1090.81,1894.68 1084.45,1901.63 1074.23,1968.20" fill="none" stroke="#bcbcbc" stroke-width="8" stroke-linecap="round" stroke-linejoin="round" /><polyline points="1131.91,2373.76 1097.41,2358.75 1011.22,2298.60 897.50,2218.68 834.95,2168.10 792.75,2122.90" fill="none" stroke="#bcbcbc" stroke-width="8" stroke-linecap="round" stroke-linejoin="round" /><polyline points="-263.65,3719.29 -297.52,3708.55 -352.49,3691.12 -378.72,3682.80 -409.54,3673.03 -448.47,3660.69 -483.67,3649.53 -518.46,3638.49 -673.63,3589.24 -700.80,3580.62 -734.56,3569.93 -742.01,3567.57 -830.75,3544.12 -855.81,3538.06 -887.22,3530.46 -920.09,3522.49 -1038.53,3493.76 -1070.29,3486.06 -1104.43,3474.21 -1175.74,3449.44 -1202.63,3440.11 -1226.66,3432.30 -1338.33,3392.59 -1352.40,3384.21 -1359.16,3369.63" fill="none" stroke="#bcbcbc" stroke-width="8" stroke-linecap="round" stroke-linejoin="round" /><polyline points="246.34,2031.27 238.12,2001.78 213.60,1913.87 204.17,1880.07 190.55,1854.80 189.28,1850.11 181.25,1820.35 190.60,1807.17 179.36,1769.65 175.88,1758.00" fill="none" stroke="#bcbcbc" stroke-width="8" stroke-linecap="round" stroke-linejoin="round" /><polyline points="205.35,955.50 228.66,944.53 355.98,874.32 428.77,827.50 480.11,792.48 491.45,784.03 532.76,755.31 575.58,723.68 602.69,703.95 635.01,680.32 747.35,629.62 761.92,630.39 783.21,620.32 869.70,581.36" fill="none" stroke="#bcbcbc" stroke-width="8" stroke-linecap="round" stroke-linejoin="round" /><polyline points="-1206.03,1434.12 -1187.66,1441.58 -1175.52,1445.31 -947.81,1515.25 -913.03,1525.94" fill="none" stroke="#bcbcbc" stroke-width="8" stroke-linecap="round" stroke-linejoin="round" /><polyline points="-2832.53,1946.25 -2995.22,1897.01" fill="none" stroke="#bcbcbc" stroke-width="8" stroke-linecap="round" stroke-linejoin="round" /><polyline points="-204.65,-348.14 -164.31,-297.04 -158.29,-289.41 -137.93,-263.62 -114.73,-260.89 -67.02,-255.29 -58.54,-249.43" fill="none" stroke="#bcbcbc" stroke-width="8" stroke-linecap="round" stroke-linejoin="round" /><polyline points="1196.04,1924.81 1132.12,1936.74 1066.58,1972.36 1005.83,2006.18 948.37,2034.91 878.94,2072.62 828.67,2103.15 729.31,2156.43 341.46,2351.57 240.90,2395.87 174.47,2424.60 141.55,2435.38 114.31,2440.47 69.72,2443.16 6.28,2434.18 -152.03,2396.17 -376.79,2343.79 -672.46,2254.60 -781.39,2218.68 -959.76,2163.61 -1130.34,2107.34 -1380.53,2009.17 -1505.63,1955.29 -1656.45,1888.25 -1906.64,1751.17 -1965.30,1712.27 -2113.74,1618.89 -2175.98,1556.63 -2269.36,1435.72 -2423.18,1277.10 -2483.63,1223.83" fill="none" stroke="#bcbcbc" stroke-width="8" stroke-linecap="round" stroke-linejoin="round" /><polyline points="-16.72,3797.36 -14.09,3782.73 -4.63,3758.85 84.09,3551.23 117.60,3473.41 157.11,3376.43 166.73,3340.94" fill="none" stroke="#bcbcbc" stroke-width="8" stroke-linecap="round" stroke-linejoin="round" /><polyline points="-1718.74,2920.79 -1819.52,2872.01 -2048.84,2761.01 -2330.13,2624.86 -2355.24,2612.71" fill="none" stroke="#bcbcbc" stroke-width="8" stroke-linecap="round" stroke-linejoin="round" /><polyline points="-62.40,1314.08 -36.95,1288.02 30.71,1218.75 84.41,1160.11" fill="none" stroke="#bcbcbc" stroke-width="8" stroke-linecap="round" stroke-linejoin="round" /><polyline points="-2016.25,1468.42 -2044.21,1431.40 -2175.22,1257.93 -2362.22,1106.58" fill="none" stroke="#bcbcbc" stroke-width="8" stroke-linecap="round" stroke-linejoin="round" /><polyline points="-2827.82,3752.04 -2802.25,3691.39 -2720.93,3488.65 -2711.08,3462.04 -2700.14,3432.52 -2695.99,3421.87 -2694.90,3405.18 -2684.49,3247.57 -2681.50,3202.36" fill="none" stroke="#bcbcbc" stroke-width="8" stroke-linecap="round" stroke-linejoin="round" /><polyline points="-2883.29,2122.32 -2832.53,1946.25 -2765.56,1714.01 -2757.27,1685.27 -2748.05,1652.61 -2727.41,1579.49 -2725.24,1571.81 -2719.34,1548.29 -2709.91,1521.72 -2707.62,1515.28 -2695.72,1485.77 -2672.35,1434.21 -2665.36,1419.41" fill="none" stroke="#bcbcbc" stroke-width="8" stroke-linecap="round" stroke-linejoin="round" /><polyline points="-2757.27,1685.27 -2654.56,1711.53 -2436.99,1767.47 -2313.03,1806.06 -2261.32,1818.18" fill="none" stroke="#bcbcbc" stroke-width="8" stroke-linecap="round" stroke-linejoin="round" /><polyline points="-643.03,886.34 -639.54,864.96 -636.03,842.77 -620.96,768.53 -583.31,595.72 -552.40,441.14 -546.74,409.07 -539.07,365.52 -539.06,365.48" fill="none" stroke="#bcbcbc" stroke-width="8" stroke-linecap="round" stroke-linejoin="round" /><polyline points="-947.14,4214.00 -901.28,4097.02 -895.59,4076.00 -713.59,3613.96 -700.80,3580.62 -690.46,3552.35 -581.70,3235.93 -560.77,3217.65" fill="none" stroke="#bcbcbc" stroke-width="8" stroke-linecap="round" stroke-linejoin="round" /><polyline points="-323.30,796.90 -323.30,796.85 -329.75,763.01 -330.76,758.91 -346.48,694.96 -346.47,694.76 -357.19,651.40 -402.61,495.74 -408.33,479.07 -439.00,395.69 -448.97,370.79 -455.40,354.74 -463.75,336.50 -463.76,336.47 -463.77,336.39 -469.85,269.35 -470.43,236.43" fill="none" stroke="#bcbcbc" stroke-width="8" stroke-linecap="round" stroke-linejoin="round" /><polyline points="-391.37,3437.90 -403.05,3450.52 -420.45,3471.22 -469.48,3609.49 -483.67,3649.53" fill="none" stroke="#bcbcbc" stroke-width="8" stroke-linecap="round" stroke-linejoin="round" /><polyline points="-1206.03,1434.12 -1199.33,1415.97 -1197.82,1411.76 -1165.98,1322.81 -1154.04,1285.34 -1056.45,998.36" fill="none" stroke="#bcbcbc" stroke-width="8" stroke-linecap="round" stroke-linejoin="round" /><polyline points="-701.21,1836.45 -691.26,1810.00 -664.29,1738.37 -652.89,1708.08 -645.17,1687.58 -623.53,1630.09 -609.24,1592.12 -607.31,1587.01 -572.68,1495.01 -558.20,1499.50 -550.36,1478.14 -536.48,1440.35 -539.14,1423.19 -502.30,1322.88 -498.52,1312.58 -491.52,1306.16 -485.66,1300.77 -448.71,1199.76 -443.37,1172.11 -390.36,1024.82 -377.82,1015.01 -352.32,942.86 -356.86,931.78 -334.52,864.40 -346.11,804.23" fill="none" stroke="#bcbcbc" stroke-width="8" stroke-linecap="round" stroke-linejoin="round" /><polyline points="246.98,-903.27 232.13,-927.64 154.08,-1055.68" fill="none" stroke="#bcbcbc" stroke-width="8" stroke-linecap="round" stroke-linejoin="round" /><polyline points="491.45,784.03 849.62,1014.37 849.72,1014.53 849.72,1014.57 915.96,1023.17" fill="none" stroke="#bcbcbc" stroke-width="8" stroke-linecap="round" stroke-linejoin="round" /><polyline points="347.82,302.87 728.90,494.16 740.39,502.74 739.62,565.37 747.35,629.62" fill="none" stroke="#bcbcbc" stroke-width="8" stroke-linecap="round" stroke-linejoin="round" /><polyline points="-378.72,3682.80 -392.43,3724.62 -447.96,3893.98 -542.40,4179.19 -549.10,4199.42 -555.89,4219.92 -557.79,4241.76" fill="none" stroke="#bcbcbc" stroke-width="8" stroke-linecap="round" stroke-linejoin="round" /><polyline points="694.07,2654.01 696.35,2632.76 696.84,2612.93 696.68,2612.24 683.17,2553.87 677.64,2529.47 674.97,2517.70 672.24,2505.68 657.41,2440.37 628.46,2309.85 607.41,2231.38 604.43,2219.26" fill="none" stroke="#bcbcbc" stroke-width="8" stroke-linecap="round" stroke-linejoin="round" /><polyline points="-1197.90,3848.77 -1188.46,3821.92 -1082.34,3520.30 -1070.29,3486.06" fill="none" stroke="#bcbcbc" stroke-width="8" stroke-linecap="round" stroke-linejoin="round" /><polyline points="1184.75,1392.77 1153.53,1383.96 941.51,1058.59 915.96,1023.17" fill="none" stroke="#bcbcbc" stroke-width="8" stroke-linecap="round" stroke-linejoin="round" /><polyline points="-2300.65,2173.47 -1527.94,2358.61 -1474.66,2378.07" fill="none" stroke="#bcbcbc" stroke-width="8" stroke-linecap="round" stroke-linejoin="round" /><polyline points="136.50,-719.39 437.50,-607.88 479.87,-615.12" fill="none" stroke="#bcbcbc" stroke-width="8" stroke-linecap="round" stroke-linejoin="round" />
    <polyline points="295.02,347.82 288.05,332.89 269.72,330.48 210.44,344.08 198.40,342.51 188.96,329.86 172.18,252.72 263.04,238.65 305.10,226.24 325.66,224.10 347.82,302.87" fill="none" stroke="#ffffff" stroke-width="16" stroke-linecap="round" stroke-linejoin="round" />
    <polyline points="295.02,347.82 288.05,332.89 269.72,330.48 210.44,344.08 198.40,342.51 188.96,329.86 172.18,252.72 263.04,238.65 305.10,226.24 325.66,224.10 347.82,302.87" fill="none" stroke="#111111" stroke-width="9" stroke-linecap="round" stroke-linejoin="round" />
    
            <g transform="translate(295.02,347.82)">
              <circle r="19" fill="#ffffff" stroke="#111111" stroke-width="4" />
              <text text-anchor="middle" dominant-baseline="central" font-family="Helvetica, Arial, sans-serif"
                font-size="18" font-weight="700" fill="#111111">1</text>
            </g>
            
            <g transform="translate(347.82,302.87)">
              <circle r="19" fill="#ffffff" stroke="#111111" stroke-width="4" />
              <text text-anchor="middle" dominant-baseline="central" font-family="Helvetica, Arial, sans-serif"
                font-size="18" font-weight="700" fill="#111111">2</text>
            </g>
            
  </g>
</svg>
