<svg xmlns="http://www.w3.org/2000/svg" width="520" height="520" viewBox="0 0 520 520">
  <rect width="100%" height="100%" fill="#ffffff" />
  <g>
    <polyline points="259.08,121.76 261.74,135.95 278.96,256.42 276.33,286.54" fill="none" stroke="#bcbcbc" stroke-width="8" stroke-linecap="round" stroke-linejoin="round" /><polyline points="-90.93,1125.65 -86.76,1112.85 -64.70,1045.01 -62.10,1037.01 -59.47,1028.62 -4.01,851.74 0.45,837.51 -9.76,812.35" fill="none" stroke="#bcbcbc" stroke-width="8" stroke-linecap="round" stroke-linejoin="round" /><polyline points="-474.05,968.32 -474.95,958.16 -456.82,856.60 -454.27,843.89 -452.37,837.24 -447.38,811.48 -441.77,779.95 -435.66,752.19 -429.60,724.49 -425.78,716.67 -423.29,711.89" fill="none" stroke="#bcbcbc" stroke-width="8" stroke-linecap="round" stroke-linejoin="round" /><polyline points="-368.80,251.88 -373.11,238.73 -417.67,102.81 -419.85,97.11" fill="none" stroke="#bcbcbc" stroke-width="8" stroke-linecap="round" stroke-linejoin="round" /><polyline points="-597.46,1448.10 -596.13,1435.13 -595.59,1429.18 -590.74,1375.51 -585.43,1328.26 -584.19,1317.23 -583.03,1303.99 -582.91,1302.88 -579.89,1276.56 -577.30,1249.81 -574.44,1223.99 -572.51,1203.90 -571.71,1191.49 -571.00,1180.04 -569.73,1167.13" fill="none" stroke="#bcbcbc" stroke-width="8" stroke-linecap="round" stroke-linejoin="round" /><polyline points="18.29,1157.19 21.46,1147.21 43.82,1076.91 46.36,1068.92 49.98,1057.54 52.56,1049.39 72.35,964.02" fill="none" stroke="#bcbcbc" stroke-width="8" stroke-linecap="round" stroke-linejoin="round" /><polyline points="-68.64,-233.34 -60.38,-232.07 167.18,-197.10" fill="none" stroke="#bcbcbc" stroke-width="8" stroke-linecap="round" stroke-linejoin="round" /><polyline points="-652.81,1140.62 -676.50,1139.52 -690.94,1138.85 -698.79,1138.48 -705.67,1138.16 -759.30,1135.67 -833.91,1132.20 -869.46,1127.16 -881.36,1125.47 -891.69,1123.64 -961.63,1111.30 -971.40,1109.58 -973.57,1109.20 -985.64,1107.13 -994.92,1105.54 -1054.18,1100.31 -1065.47,1099.31 -1069.61,1098.94 -1082.42,1098.05 -1107.51,1096.31" fill="none" stroke="#bcbcbc" stroke-width="8" stroke-linecap="round" stroke-linejoin="round" /><polyline points="-308.71,1071.90 -304.12,1058.84 -262.78,944.24 -213.05,799.69 -209.87,790.62 -207.65,784.29 -205.85,779.09" fill="none" stroke="#bcbcbc" stroke-width="8" stroke-linecap="round" stroke-linejoin="round" /><polyline points="-1069.61,1098.94 -1070.67,1091.57 -1070.92,1083.57 -1069.35,1067.45 -1065.75,1038.03 -1063.35,1028.15 -1059.45,992.44 -1058.74,984.48 -1057.60,974.26 -1056.75,966.67 -1055.15,958.06 -1052.19,934.90 -1050.14,917.18 -1047.12,909.93" fill="none" stroke="#bcbcbc" stroke-width="8" stroke-linecap="round" stroke-linejoin="round" /><polyline points="-1111.92,900.88 -1056.78,908.58 -1047.12,909.93 -1041.13,910.88 -1016.41,914.82 -959.46,923.90 -949.69,925.53" fill="none" stroke="#bcbcbc" stroke-width="8" stroke-linecap="round" stroke-linejoin="round" /><polyline points="-97.11,177.47 -96.76,182.48 -96.01,187.56 -94.22,191.45 -90.87,195.78 -84.67,201.43 -69.97,210.37 43.40,281.50 113.23,375.12 165.97,505.29 169.41,513.88" fill="none" stroke="#bcbcbc" stroke-width="8" stroke-linecap="round" stroke-linejoin="round" /><polyline points="-115.27,557.28 -112.92,561.17 -112.31,562.18 -110.36,571.99 -97.06,636.32 -92.84,656.74 -89.82,671.28 -85.11,700.75 -82.91,714.35 -81.39,722.64 -79.73,730.13 -77.74,734.50 -74.83,739.56 -73.28,741.94 -43.82,784.12 -27.88,809.21 -23.73,815.21" fill="none" stroke="#bcbcbc" stroke-width="8" stroke-linecap="round" stroke-linejoin="round" /><polyline points="-960.95,1362.70 -959.39,1353.05 -957.93,1346.07 -957.54,1345.14 -937.93,1298.52 -925.44,1268.22 -921.64,1258.62 -917.62,1248.45 -913.25,1239.71 -912.55,1238.00 -906.57,1223.55 -901.95,1210.76 -897.98,1199.03 -895.47,1190.74 -892.64,1180.49 -889.39,1166.76 -886.92,1155.61 -883.97,1140.06 -883.35,1136.59 -881.36,1125.47" fill="none" stroke="#bcbcbc" stroke-width="8" stroke-linecap="round" stroke-linejoin="round" /><polyline points="-10.99,60.72 51.52,104.41 59.95,106.20 66.11,113.25" fill="none" stroke="#bcbcbc" stroke-width="8" stroke-linecap="round" stroke-linejoin="round" /><polyline points="-273.51,464.19 -265.25,467.37 -229.38,479.11 -146.17,511.02 -141.50,515.67 -139.31,519.15" fill="none" stroke="#bcbcbc" stroke-width="8" stroke-linecap="round" stroke-linejoin="round" /><polyline points="-118.45,1284.22 -112.79,1269.45 -84.81,1193.55 -65.04,1136.21 -60.93,1134.32" fill="none" stroke="#bcbcbc" stroke-width="8" stroke-linecap="round" stroke-linejoin="round" /><polyline points="-513.87,1187.98 -509.46,1178.22 -509.02,1177.26 -501.47,1151.92 -489.10,1110.22 -485.93,1099.55 -483.47,1091.26 -483.14,1086.43 -483.64,1075.73" fill="none" stroke="#bcbcbc" stroke-width="8" stroke-linecap="round" stroke-linejoin="round" /><polyline points="0.29,560.61 -6.80,562.07 -22.87,559.21 -25.36,552.58 -53.21,541.97 -59.79,543.69 -84.92,534.46 -88.67,537.08" fill="none" stroke="#bcbcbc" stroke-width="8" stroke-linecap="round" stroke-linejoin="round" /><polyline points="-41.06,-300.79 -28.44,-297.70 -21.46,-296.49 144.54,-267.71" fill="none" stroke="#bcbcbc" stroke-width="8" stroke-linecap="round" stroke-linejoin="round" /><polyline points="-170.07,1238.00 -163.17,1218.53 -149.75,1180.69 -141.08,1164.58 -128.60,1129.64 -123.62,1115.69" fill="none" stroke="#bcbcbc" stroke-width="8" stroke-linecap="round" stroke-linejoin="round" /><polyline points="-1079.58,482.39 -1091.61,481.84 -1094.62,485.50 -1115.56,510.96 -1188.78,595.53 -1199.08,607.43" fill="none" stroke="#bcbcbc" stroke-width="8" stroke-linecap="round" stroke-linejoin="round" /><polyline points="-437.37,554.83 -442.67,566.58 -443.31,568.01 -461.75,616.09 -480.34,669.03 -485.30,683.14 -488.11,690.43" fill="none" stroke="#bcbcbc" stroke-width="8" stroke-linecap="round" stroke-linejoin="round" /><polyline points="-166.89,14.54 -161.03,22.48 -156.85,33.41 -150.34,49.10 -139.89,73.77 -130.64,95.92 -120.02,120.24 -112.14,138.98 -110.98,141.67 -110.91,141.84 -104.57,156.66 -102.67,160.87 -100.87,164.89 -98.96,168.64 -97.53,172.46 -97.11,177.47" fill="none" stroke="#bcbcbc" stroke-width="8" stroke-linecap="round" stroke-linejoin="round" /><polyline points="-615.34,791.87 -612.27,790.20 -607.98,786.79 -605.83,782.37 -577.35,674.34 -576.49,668.25 -573.01,657.12" fill="none" stroke="#bcbcbc" stroke-width="8" stroke-linecap="round" stroke-linejoin="round" /><polyline points="380.80,622.82 384.84,635.65 387.68,649.13 382.15,700.47 375.75,739.09 372.25,752.27 371.93,753.46 368.87,760.57 364.70,768.11 354.95,780.44 359.67,804.54 344.40,856.28 335.97,884.85 318.73,931.62 293.47,988.56 262.63,1043.13 253.00,1060.87 235.59,1090.01 166.02,1188.75 150.78,1209.29 91.76,1286.42 57.87,1324.98 10.47,1373.15 6.09,1373.60 -4.62,1382.36" fill="none" stroke="#bcbcbc" stroke-width="8" stroke-linecap="round" stroke-linejoin="round" /><polyline points="-477.60,1467.43 -458.18,1407.20 -455.00,1397.26 -450.69,1390.99 -441.41,1363.15 -438.39,1353.70 -400.08,1233.74 -396.23,1221.68 -393.05,1211.08 -347.84,1068.78" fill="none" stroke="#bcbcbc" stroke-width="8" stroke-linecap="round" stroke-linejoin="round" /><polyline points="-22.68,347.31 -5.89,328.97 -0.94,323.00 32.98,274.96" fill="none" stroke="#bcbcbc" stroke-width="8" stroke-linecap="round" stroke-linejoin="round" /><polyline points="-358.21,354.58 -311.98,370.68 -309.43,374.83 -296.30,379.23 -288.51,381.89 -251.25,394.48" fill="none" stroke="#bcbcbc" stroke-width="8" stroke-linecap="round" stroke-linejoin="round" /><polyline points="44.73,34.65 66.11,113.25 90.86,205.84 94.62,213.56 95.21,222.37 112.00,253.71 157.30,338.19 167.20,352.80 170.07,357.08 237.75,483.62 268.85,511.90 273.22,517.53 279.37,522.79 338.43,573.29 342.44,576.72 353.04,582.35" fill="none" stroke="#bcbcbc" stroke-width="8" stroke-linecap="round" stroke-linejoin="round" /><polyline points="-184.96,1480.22 -37.67,1394.65 -11.45,1381.25 -4.62,1382.36" fill="none" stroke="#bcbcbc" stroke-width="8" stroke-linecap="round" stroke-linejoin="round" /><polyline points="-25.27,1357.81 -16.13,1346.95 65.92,1183.24 71.35,1172.50 75.89,1161.88 102.39,1096.34 110.28,1076.60 133.12,1007.47 147.93,918.59 149.69,905.65" fill="none" stroke="#bcbcbc" stroke-width="8" stroke-linecap="round" stroke-linejoin="round" /><polyline points="-88.58,395.04 -90.02,396.51 -91.99,403.40 -92.19,404.09 -101.10,438.37 -98.76,447.32 -100.70,455.35 -103.24,465.85 -109.76,473.40 -117.15,503.35 -125.86,509.93 -135.16,516.31 -139.31,519.15" fill="none" stroke="#bcbcbc" stroke-width="8" stroke-linecap="round" stroke-linejoin="round" /><polyline points="-437.37,554.83 -433.58,545.13 -410.82,486.78 -405.86,474.06 -401.77,463.58 -372.68,389.06 -359.59,357.91 -358.21,354.58 -348.04,329.98 -325.21,273.29 -316.84,249.15 -314.98,243.62 -312.48,237.34" fill="none" stroke="#bcbcbc" stroke-width="8" stroke-linecap="round" stroke-linejoin="round" /><polyline points="-182.67,201.12 -178.27,214.22 -33.82,337.61 45.00,406.19 162.73,508.54 173.00,516.76 177.61,519.64 198.04,538.18 225.32,561.45 287.20,614.22 307.18,631.41 320.45,647.27" fill="none" stroke="#bcbcbc" stroke-width="8" stroke-linecap="round" stroke-linejoin="round" /><polyline points="56.16,-11.49 63.49,-16.19 106.89,-34.22 115.81,-43.61" fill="none" stroke="#bcbcbc" stroke-width="8" stroke-linecap="round" stroke-linejoin="round" /><polyline points="106.29,1086.58 46.36,1068.92 -62.11,1037.01" fill="none" stroke="#bcbcbc" stroke-width="8" stroke-linecap="round" stroke-linejoin="round" /><polyline points="-87.15,-188.10 -78.96,-182.46 187.76,-123.11" fill="none" stroke="#bcbcbc" stroke-width="8" stroke-linecap="round" stroke-linejoin="round" /><polyline points="242.32,690.12 228.53,659.44 197.94,586.48 195.66,580.68 190.43,567.36 170.71,517.19 169.47,513.93" fill="none" stroke="#bcbcbc" stroke-width="8" stroke-linecap="round" stroke-linejoin="round" /><polyline points="-166.89,14.54 -181.70,10.32 -192.58,7.08 -214.70,0.51 -225.93,-2.69 -232.37,-4.48 -240.77,-6.89" fill="none" stroke="#bcbcbc" stroke-width="8" stroke-linecap="round" stroke-linejoin="round" /><polyline points="-552.99,415.84 -553.74,413.39 -554.43,411.67 -557.48,404.09 -569.30,376.52 -580.54,348.52 -582.97,341.91 -585.76,334.29 -587.76,328.06 -591.06,318.72 -591.41,317.74 -602.16,291.25 -621.90,241.44 -626.33,238.92 -629.48,230.84 -635.78,208.97 -646.56,181.86 -648.88,175.70" fill="none" stroke="#bcbcbc" stroke-width="8" stroke-linecap="round" stroke-linejoin="round" /><polyline points="-458.18,1407.20 -446.97,1410.64 -410.71,1421.69 -399.35,1425.15" fill="none" stroke="#bcbcbc" stroke-width="8" stroke-linecap="round" stroke-linejoin="round" /><polyline points="219.02,1.55 221.13,-6.99 220.27,-10.24 219.24,-14.15 212.62,-38.41 197.86,-89.69 190.07,-115.90 187.76,-123.11 167.18,-197.10 156.07,-237.02 144.54,-267.71 134.12,-295.39 123.75,-314.43 113.68,-324.49 36.33,-419.01 30.60,-425.74 26.81,-431.96" fill="none" stroke="#bcbcbc" stroke-width="8" stroke-linecap="round" stroke-linejoin="round" /><polyline points="-97.11,177.47 -101.10,179.00 -108.48,181.03 -109.22,181.23 -140.02,189.11 -175.44,199.09 -182.67,201.12 -185.89,202.15 -194.40,204.88 -201.68,206.91 -233.44,215.74 -285.68,230.58 -305.15,235.51 -312.48,237.34 -347.29,245.89 -368.80,251.88 -414.34,264.60 -459.35,277.29 -464.56,278.73 -502.18,289.17 -519.53,293.99 -528.29,298.13 -544.88,306.36 -577.82,323.07 -580.11,324.24 -587.76,328.06 -592.43,330.40 -598.94,333.81 -622.08,345.95 -664.25,369.61 -699.48,388.06 -704.52,390.70 -711.25,391.12 -715.29,393.27 -716.10,393.70 -754.31,414.64 -762.32,414.61 -771.50,419.42 -774.71,421.09 -777.42,422.51 -783.80,425.85 -788.84,437.33 -810.47,448.92 -817.34,452.60 -824.78,456.65 -854.88,473.03 -870.43,481.49 -878.27,483.75" fill="none" stroke="#bcbcbc" stroke-width="8" stroke-linecap="round" stroke-linejoin="round" /><polyline points="335.97,884.85 319.91,886.32 269.75,890.92 267.49,891.12 264.30,891.42 259.12,891.89 210.48,896.36 193.57,894.79 173.87,899.73 158.09,903.59 149.69,905.65 128.81,906.45 110.73,905.53 101.52,904.55 93.68,902.18 87.90,898.98 66.40,883.78 14.15,847.88 9.22,844.54 4.20,841.14 0.45,837.51" fill="none" stroke="#bcbcbc" stroke-width="8" stroke-linecap="round" stroke-linejoin="round" /><polyline points="-847.51,278.91 -828.55,316.03 -825.68,326.64 -809.71,357.12 -803.11,365.83 -776.42,417.78 -774.71,421.09" fill="none" stroke="#bcbcbc" stroke-width="8" stroke-linecap="round" stroke-linejoin="round" /><polyline points="-266.47,609.03 -269.31,616.83 -270.11,619.25 -273.81,630.48 -297.27,695.93 -308.91,728.43 -309.31,729.54 -313.98,739.64 -316.66,745.64" fill="none" stroke="#bcbcbc" stroke-width="8" stroke-linecap="round" stroke-linejoin="round" /><polyline points="44.73,34.65 42.13,29.09 35.29,28.19 13.18,33.26 8.69,32.68 5.17,27.96 -1.09,-0.81 32.80,-6.06 48.49,-10.69 56.16,-11.49 64.42,17.89" fill="none" stroke="#bcbcbc" stroke-width="8" stroke-linecap="round" stroke-linejoin="round" /><polyline points="374.08,526.23 359.12,521.77 350.42,514.64 317.18,485.87 316.05,484.86 308.01,477.68 303.29,469.31 219.77,321.48" fill="none" stroke="#bcbcbc" stroke-width="8" stroke-linecap="round" stroke-linejoin="round" /><polyline points="-568.40,514.51 -437.37,554.83 -426.67,558.22 -328.89,589.22 -326.85,589.87 -312.20,594.51 -305.00,596.80 -295.64,599.36 -276.34,605.89 -266.47,609.03 -257.58,611.84 -184.82,634.93 -108.00,659.06 -101.64,661.06 -92.84,656.74" fill="none" stroke="#bcbcbc" stroke-width="8" stroke-linecap="round" stroke-linejoin="round" /><polyline points="-183.12,-132.41 -126.36,-184.56 -116.76,-193.39" fill="none" stroke="#bcbcbc" stroke-width="8" stroke-linecap="round" stroke-linejoin="round" /><polyline points="-1133.57,709.17 -925.31,731.49" fill="none" stroke="#bcbcbc" stroke-width="8" stroke-linecap="round" stroke-linejoin="round" /><polyline points="-505.29,127.83 -461.52,112.18 -416.36,95.85 -388.31,84.95 -302.65,53.79 -277.79,45.19 -272.60,43.40 -266.37,41.26 -259.38,38.85 -258.53,38.56 -244.42,32.89 -238.28,30.42" fill="none" stroke="#bcbcbc" stroke-width="8" stroke-linecap="round" stroke-linejoin="round" /><polyline points="-211.28,1187.15 -170.07,1238.00 -144.84,1263.40 -133.92,1271.26 -118.45,1284.22 -103.93,1296.41 -91.45,1308.59 -91.15,1314.78" fill="none" stroke="#bcbcbc" stroke-width="8" stroke-linecap="round" stroke-linejoin="round" /><polyline points="-166.89,14.54 -150.74,-25.95 -124.60,-92.60 -87.15,-188.10 -68.64,-233.34 -41.06,-300.79 -18.44,-356.05 -14.40,-363.38 5.49,-395.90 6.78,-398.00 14.05,-412.31 26.81,-431.96 33.94,-442.93 44.02,-458.44" fill="none" stroke="#bcbcbc" stroke-width="8" stroke-linecap="round" stroke-linejoin="round" /><polyline points="-547.92,1096.99 -550.57,1099.10 -552.32,1101.62 -555.88,1112.13 -558.34,1119.71 -569.72,1153.74 -571.29,1158.65 -572.26,1161.70 -582.71,1158.70 -608.14,1150.17 -633.34,1141.72 -652.81,1140.62" fill="none" stroke="#bcbcbc" stroke-width="8" stroke-linecap="round" stroke-linejoin="round" /><polyline points="-1045.95,1333.78 -1004.42,1226.52 -999.79,1214.84 -995.65,1203.60 -990.64,1190.01 -984.50,1168.63 -978.10,1142.07 -975.47,1123.03 -973.57,1109.20 -970.88,1099.00 -961.11,1022.30 -949.69,925.53 -943.78,879.39 -937.19,825.18 -925.31,731.49 -923.42,715.56 -911.41,617.58 -911.40,612.12 -908.75,583.05 -901.09,521.64 -899.17,510.93 -897.17,504.92 -894.04,498.31 -890.99,493.17 -884.27,485.89 -878.26,483.83" fill="none" stroke="#bcbcbc" stroke-width="8" stroke-linecap="round" stroke-linejoin="round" /><polyline points="-139.31,519.15 -137.04,522.75 -129.42,534.64 -118.02,552.92 -115.27,557.28 -110.72,553.82 -88.67,537.08" fill="none" stroke="#bcbcbc" stroke-width="8" stroke-linecap="round" stroke-linejoin="round" /><polyline points="-124.60,-92.60 99.79,-52.04 123.36,-39.63 211.28,3.95 219.02,1.55" fill="none" stroke="#bcbcbc" stroke-width="8" stroke-linecap="round" stroke-linejoin="round" /><polyline points="-552.99,415.84 -556.97,421.65 -592.77,439.12 -619.06,472.54 -647.43,490.11 -666.84,504.76 -685.35,519.86 -694.84,528.51 -711.61,549.78 -730.35,576.65 -733.44,581.63" fill="none" stroke="#bcbcbc" stroke-width="8" stroke-linecap="round" stroke-linejoin="round" /><polyline points="-515.14,439.81 -516.69,443.26 -520.09,448.22 -526.50,456.12 -564.32,503.89 -584.32,557.78 -685.31,519.82" fill="none" stroke="#bcbcbc" stroke-width="8" stroke-linecap="round" stroke-linejoin="round" /><polyline points="-666.84,504.76 -670.75,492.92 -687.65,441.76 -694.20,431.65 -705.19,398.70 -706.13,395.86 -704.52,390.70 -707.15,382.31 -759.95,213.71" fill="none" stroke="#bcbcbc" stroke-width="8" stroke-linecap="round" stroke-linejoin="round" /><polyline points="-48.14,-415.17 -6.41,-414.07 -4.46,-414.02 3.53,-413.79 14.05,-412.31" fill="none" stroke="#bcbcbc" stroke-width="8" stroke-linecap="round" stroke-linejoin="round" /><polyline points="-262.78,944.24 -277.03,944.07 -397.68,960.26 -406.38,961.18 -416.32,962.23 -474.05,968.32 -551.83,976.54 -593.07,980.89 -615.88,983.29 -634.40,985.54 -643.91,986.70 -654.63,988.00 -706.37,994.29 -718.77,995.80 -756.99,999.98 -961.11,1022.30" fill="none" stroke="#bcbcbc" stroke-width="8" stroke-linecap="round" stroke-linejoin="round" /><polyline points="-441.41,1363.15 -452.10,1359.71 -502.02,1343.64 -512.11,1340.40 -520.87,1337.58 -573.76,1320.58 -584.19,1317.23 -597.98,1312.79 -682.17,1285.69 -691.65,1282.64" fill="none" stroke="#bcbcbc" stroke-width="8" stroke-linecap="round" stroke-linejoin="round" /><polyline points="-232.67,352.40 -203.64,361.45 -97.45,394.24 -96.46,394.55 -88.58,395.04" fill="none" stroke="#bcbcbc" stroke-width="8" stroke-linecap="round" stroke-linejoin="round" /><polyline points="66.11,113.25 210.56,115.79" fill="none" stroke="#bcbcbc" stroke-width="8" stroke-linecap="round" stroke-linejoin="round" /><polyline points="-4.62,1382.36 -25.27,1357.81 -33.93,1347.73 -41.38,1340.78 -51.29,1333.38 -71.54,1321.22 -91.15,1314.78 -131.03,1302.46 -163.65,1292.11 -144.84,1263.40" fill="none" stroke="#bcbcbc" stroke-width="8" stroke-linecap="round" stroke-linejoin="round" /><polyline points="-211.28,1187.15 -240.04,1151.66 -245.51,1144.91 -274.47,1105.01 -281.02,1092.83 -279.45,1078.33 -270.72,1078.24 -249.18,1082.39 -216.40,1088.69" fill="none" stroke="#bcbcbc" stroke-width="8" stroke-linecap="round" stroke-linejoin="round" /><polyline points="-587.42,902.79 -582.12,914.20 -551.83,976.54 -506.81,1069.23 -501.06,1081.06" fill="none" stroke="#bcbcbc" stroke-width="8" stroke-linecap="round" stroke-linejoin="round" /><polyline points="-1072.42,1185.15 -1061.59,1189.58 -1010.87,1210.32 -999.79,1214.84 -988.14,1219.61 -928.42,1244.03 -917.62,1248.45" fill="none" stroke="#bcbcbc" stroke-width="8" stroke-linecap="round" stroke-linejoin="round" /><polyline points="-562.50,810.36 -456.82,856.60" fill="none" stroke="#bcbcbc" stroke-width="8" stroke-linecap="round" stroke-linejoin="round" /><polyline points="-88.58,395.04 -72.49,395.89 -71.46,396.80 -64.24,403.21 -53.62,412.68 -51.66,416.49 -15.07,448.54 -12.37,453.65 13.36,476.36 19.84,478.33 39.85,495.86 44.33,497.91 74.51,523.51 81.23,529.47 84.94,535.37" fill="none" stroke="#bcbcbc" stroke-width="8" stroke-linecap="round" stroke-linejoin="round" /><polyline points="-1102.25,810.46 -937.19,825.18" fill="none" stroke="#bcbcbc" stroke-width="8" stroke-linecap="round" stroke-linejoin="round" /><polyline points="-733.70,1425.14 -728.58,1414.25 -727.27,1409.41 -720.10,1382.98 -694.13,1291.41 -691.65,1282.64 -689.02,1273.03 -677.26,1230.01 -657.39,1157.37 -652.81,1140.62" fill="none" stroke="#bcbcbc" stroke-width="8" stroke-linecap="round" stroke-linejoin="round" /><polyline points="-587.42,902.79 -562.50,810.36 -615.34,791.87 -629.17,800.04 -635.48,804.84 -640.15,811.16 -643.43,819.50 -655.59,864.42 -645.78,869.41 -635.88,871.81 -613.98,877.51 -597.59,882.73 -587.42,902.79" fill="none" stroke="#bcbcbc" stroke-width="8" stroke-linecap="round" stroke-linejoin="round" /><polyline points="-655.59,864.42 -667.16,862.80 -937.19,825.18" fill="none" stroke="#bcbcbc" stroke-width="8" stroke-linecap="round" stroke-linejoin="round" /><polyline points="-216.40,1088.69 -191.36,1094.16 -123.62,1115.69 -104.68,1121.68 -59.72,1134.67 -14.44,1147.73 19.09,1157.42 72.71,1172.90 83.79,1176.10 110.85,1185.17 155.40,1197.04 159.32,1197.77" fill="none" stroke="#bcbcbc" stroke-width="8" stroke-linecap="round" stroke-linejoin="round" /><polyline points="-184.63,1480.02 -193.77,1482.32 -203.65,1509.86 -218.97,1505.51 -288.64,1481.76 -297.03,1479.97 -315.68,1478.64 -400.05,1478.97 -418.65,1476.61 -460.66,1470.18 -477.60,1467.43 -597.76,1448.05 -644.29,1440.63 -733.04,1425.25 -747.36,1422.41 -947.64,1366.43 -960.27,1362.89 -1045.95,1333.78 -1067.02,1326.30 -1119.67,1304.48 -1149.68,1293.13" fill="none" stroke="#bcbcbc" stroke-width="8" stroke-linecap="round" stroke-linejoin="round" /><polyline points="-1.09,-0.81 -9.76,-2.60 -125.51,11.09 -166.89,14.54" fill="none" stroke="#bcbcbc" stroke-width="8" stroke-linecap="round" stroke-linejoin="round" /><polyline points="-216.40,1088.69 -212.34,1081.90 -188.05,1019.52 -160.92,925.19 -153.99,904.87 -150.29,899.34 -124.09,815.23 -122.78,805.19 -121.79,798.62" fill="none" stroke="#bcbcbc" stroke-width="8" stroke-linecap="round" stroke-linejoin="round" /><polyline points="-97.11,177.47 -94.35,176.41 -90.60,173.44 -84.90,166.78 -10.99,60.72 8.69,32.68" fill="none" stroke="#bcbcbc" stroke-width="8" stroke-linecap="round" stroke-linejoin="round" /><polyline points="231.83,567.04 233.34,562.69 270.49,518.98 273.22,517.53 279.67,508.70 301.29,483.87 308.01,477.68" fill="none" stroke="#bcbcbc" stroke-width="8" stroke-linecap="round" stroke-linejoin="round" /><polyline points="264.30,891.42 263.78,885.57 263.38,881.04 261.43,872.39 259.09,866.75 256.17,851.93 255.90,846.56 253.92,834.56 245.08,829.94 238.01,832.64 225.36,835.67 215.35,837.24 205.75,839.55 192.49,842.57 186.44,843.95" fill="none" stroke="#bcbcbc" stroke-width="8" stroke-linecap="round" stroke-linejoin="round" /><polyline points="-711.78,676.76 -684.76,613.42 -683.25,609.30" fill="none" stroke="#bcbcbc" stroke-width="8" stroke-linecap="round" stroke-linejoin="round" /><polyline points="0.29,560.61 13.31,555.56 20.12,552.93 25.39,547.60 47.10,542.24 54.38,544.10 70.10,540.05 82.09,536.96 84.94,535.37 96.57,532.52 156.00,517.96 169.47,513.93" fill="none" stroke="#bcbcbc" stroke-width="8" stroke-linecap="round" stroke-linejoin="round" /><polyline points="-547.92,1096.99 -519.89,1086.81 -510.51,1083.94 -501.06,1081.06 -483.64,1075.73 -470.09,1073.78 -423.79,1068.72 -414.49,1068.21 -373.07,1068.57 -347.84,1068.78 -338.35,1068.30 -323.15,1069.83 -318.40,1070.52 -308.71,1071.90 -279.45,1078.33" fill="none" stroke="#bcbcbc" stroke-width="8" stroke-linecap="round" stroke-linejoin="round" /><polyline points="-414.34,264.60 -418.98,248.90 -436.23,190.57 -457.19,124.05 -461.52,112.18 -465.91,101.05 -471.46,85.02" fill="none" stroke="#bcbcbc" stroke-width="8" stroke-linecap="round" stroke-linejoin="round" /><polyline points="-464.51,1205.12 -460.83,1193.48 -423.56,1075.95 -423.79,1068.72" fill="none" stroke="#bcbcbc" stroke-width="8" stroke-linecap="round" stroke-linejoin="round" /><polyline points="-414.49,1068.21 -407.11,969.25 -406.38,961.18 -405.25,951.79 -405.23,951.37 -404.74,939.89 -402.28,908.74 -400.89,894.23 -398.99,877.75 -397.26,865.88 -395.71,858.43 -393.76,852.80 -389.92,840.11 -382.01,813.69 -371.94,779.58 -360.84,744.70 -358.58,737.58 -356.76,732.43" fill="none" stroke="#bcbcbc" stroke-width="8" stroke-linecap="round" stroke-linejoin="round" /><polyline points="-655.59,864.42 -657.55,873.19 -657.21,875.99 -645.19,976.10 -643.91,986.70 -644.47,997.61 -647.62,1059.87 -648.93,1085.89 -649.61,1099.31 -650.82,1123.22 -651.45,1135.68 -652.81,1140.62" fill="none" stroke="#bcbcbc" stroke-width="8" stroke-linecap="round" stroke-linejoin="round" /><polyline points="-711.78,676.76 -755.49,663.76 -761.05,660.20 -788.26,652.27 -795.90,652.35 -830.09,642.05 -835.61,637.97 -866.72,628.55 -904.89,618.14 -905.08,618.12 -911.41,617.58" fill="none" stroke="#bcbcbc" stroke-width="8" stroke-linecap="round" stroke-linejoin="round" /><polyline points="84.94,535.37 86.46,537.36 92.80,546.81 104.52,564.28 115.55,575.33 136.76,599.14 133.17,621.14 131.35,629.39 128.82,632.88 134.14,640.75 142.36,657.68 158.80,689.39 166.90,705.01 171.93,719.04 174.20,725.56" fill="none" stroke="#bcbcbc" stroke-width="8" stroke-linecap="round" stroke-linejoin="round" /><polyline points="195.66,580.68 189.57,582.58 149.42,595.07 143.67,596.92 136.76,599.14" fill="none" stroke="#bcbcbc" stroke-width="8" stroke-linecap="round" stroke-linejoin="round" /><polyline points="-92.84,656.74 -80.28,652.67 10.84,606.13 23.04,600.17 65.99,587.77 107.64,576.06 115.55,575.33" fill="none" stroke="#bcbcbc" stroke-width="8" stroke-linecap="round" stroke-linejoin="round" /><polyline points="-82.91,714.35 22.15,665.45 26.57,662.53 36.84,659.54 106.85,639.17 117.47,635.10 128.82,632.88" fill="none" stroke="#bcbcbc" stroke-width="8" stroke-linecap="round" stroke-linejoin="round" /><polyline points="-104.35,-310.62 -61.82,-305.37 -57.55,-304.84 -41.06,-300.79" fill="none" stroke="#bcbcbc" stroke-width="8" stroke-linecap="round" stroke-linejoin="round" /><polyline points="259.08,121.76 266.62,120.18 294.80,134.00 298.51,137.67 351.41,227.22 352.80,238.07 359.68,243.81 358.59,247.76 358.42,254.22 359.37,263.24 373.38,320.83 374.62,360.71 376.58,424.39 379.88,510.10 366.46,547.45 357.82,570.22 345.20,602.30 341.55,611.58 339.17,614.18 335.36,639.01" fill="none" stroke="#bcbcbc" stroke-width="8" stroke-linecap="round" stroke-linejoin="round" /><polyline points="356.88,790.27 344.01,784.67 311.86,762.23 269.44,732.43 246.12,713.56 230.38,696.70" fill="none" stroke="#bcbcbc" stroke-width="8" stroke-linecap="round" stroke-linejoin="round" /><polyline points="-163.65,1292.11 -176.28,1288.10 -196.78,1281.60 -206.57,1278.50 -218.06,1274.85 -232.58,1270.25 -245.71,1266.09 -258.69,1261.97 -316.56,1243.60 -326.70,1240.39 -339.29,1236.40 -342.07,1235.52 -375.17,1226.77 -384.51,1224.51 -396.23,1221.68 -408.49,1218.71 -452.67,1207.99 -464.51,1205.12 -477.24,1200.70 -503.84,1191.46 -513.87,1187.98 -522.84,1185.07 -564.49,1170.26 -569.73,1167.13 -572.26,1161.70" fill="none" stroke="#bcbcbc" stroke-width="8" stroke-linecap="round" stroke-linejoin="round" /><polyline points="26.57,662.53 23.50,651.53 14.36,618.74 10.84,606.13 5.76,596.71 5.29,594.96 2.29,583.86 5.78,578.95 1.59,564.95 0.29,560.61" fill="none" stroke="#bcbcbc" stroke-width="8" stroke-linecap="round" stroke-linejoin="round" /><polyline points="11.28,261.30 19.98,257.21 67.47,231.02 94.62,213.56 113.77,200.50 117.99,197.35 133.40,186.64 149.38,174.84 159.49,167.48 171.54,158.67 213.44,139.76 218.87,140.05 226.82,136.29 259.08,121.76" fill="none" stroke="#bcbcbc" stroke-width="8" stroke-linecap="round" stroke-linejoin="round" /><polyline points="-515.14,439.81 -508.29,442.59 -503.76,443.98 -418.83,470.07 -405.86,474.06" fill="none" stroke="#bcbcbc" stroke-width="8" stroke-linecap="round" stroke-linejoin="round" /><polyline points="-1121.80,630.82 -1182.48,612.45" fill="none" stroke="#bcbcbc" stroke-width="8" stroke-linecap="round" stroke-linejoin="round" /><polyline points="-141.64,-224.92 -126.60,-205.86 -124.35,-203.01 -116.76,-193.39 -108.10,-192.37 -90.31,-190.29 -87.15,-188.10" fill="none" stroke="#bcbcbc" stroke-width="8" stroke-linecap="round" stroke-linejoin="round" /><polyline points="380.80,622.82 356.96,627.27 332.51,640.56 309.85,653.17 288.42,663.89 262.52,677.95 243.77,689.34 206.71,709.21 62.05,781.99 24.54,798.51 -0.24,809.23 -12.51,813.25 -22.67,815.15 -39.30,816.15 -62.97,812.80 -122.02,798.62 -205.85,779.09 -316.13,745.82 -356.76,732.43 -423.29,711.89 -486.91,690.90 -580.23,654.29 -626.89,634.19 -683.14,609.19 -776.46,558.06 -798.34,543.55 -853.70,508.72 -876.92,485.50 -911.75,440.41 -969.12,381.25 -991.67,361.38" fill="none" stroke="#bcbcbc" stroke-width="8" stroke-linecap="round" stroke-linejoin="round" /><polyline points="-71.54,1321.22 -70.57,1315.77 -67.04,1306.86 -33.95,1229.43 -21.44,1200.40 -6.71,1164.23 -3.12,1150.99" fill="none" stroke="#bcbcbc" stroke-width="8" stroke-linecap="round" stroke-linejoin="round" /><polyline points="-706.37,994.29 -743.96,976.10 -829.50,934.70 -934.41,883.92 -943.78,879.39" fill="none" stroke="#bcbcbc" stroke-width="8" stroke-linecap="round" stroke-linejoin="round" /><polyline points="-88.58,395.04 -79.09,385.32 -53.85,359.49 -33.82,337.61" fill="none" stroke="#bcbcbc" stroke-width="8" stroke-linecap="round" stroke-linejoin="round" /><polyline points="-817.34,452.60 -827.77,438.80 -876.63,374.10 -946.39,317.65" fill="none" stroke="#bcbcbc" stroke-width="8" stroke-linecap="round" stroke-linejoin="round" /><polyline points="-1120.05,1304.32 -1110.51,1281.70 -1080.18,1206.08 -1076.50,1196.16 -1072.42,1185.15 -1070.88,1181.18 -1070.47,1174.95 -1066.58,1116.17 -1065.47,1099.31" fill="none" stroke="#bcbcbc" stroke-width="8" stroke-linecap="round" stroke-linejoin="round" /><polyline points="-1140.74,696.49 -1121.80,630.82 -1096.82,544.20 -1093.73,533.48 -1090.29,521.30 -1082.60,494.03 -1081.79,491.16 -1079.58,482.39 -1076.07,472.48 -1075.21,470.08 -1070.77,459.08 -1062.06,439.85 -1059.45,434.32" fill="none" stroke="#bcbcbc" stroke-width="8" stroke-linecap="round" stroke-linejoin="round" /><polyline points="-1093.73,533.48 -1055.42,543.28 -974.27,564.14 -928.04,578.53 -908.75,583.05" fill="none" stroke="#bcbcbc" stroke-width="8" stroke-linecap="round" stroke-linejoin="round" /><polyline points="-305.15,235.51 -303.85,227.53 -302.54,219.26 -296.92,191.57 -282.88,127.11 -271.35,69.46 -269.24,57.50 -266.37,41.26 -266.37,41.24" fill="none" stroke="#bcbcbc" stroke-width="8" stroke-linecap="round" stroke-linejoin="round" /><polyline points="-418.58,1476.62 -401.47,1432.99 -399.35,1425.15 -331.47,1252.82 -326.70,1240.39 -322.84,1229.84 -282.28,1111.83 -274.47,1105.01" fill="none" stroke="#bcbcbc" stroke-width="8" stroke-linecap="round" stroke-linejoin="round" /><polyline points="-185.89,202.15 -185.90,202.13 -188.30,189.51 -188.68,187.98 -194.54,164.13 -194.54,164.05 -198.54,147.88 -215.48,89.83 -217.61,83.61 -229.05,52.51 -232.77,43.22 -235.17,37.24 -238.28,30.43 -238.28,30.42 -238.29,30.39 -240.56,5.39 -240.77,-6.89" fill="none" stroke="#bcbcbc" stroke-width="8" stroke-linecap="round" stroke-linejoin="round" /><polyline points="-211.28,1187.16 -215.64,1191.86 -222.13,1199.59 -240.42,1251.16 -245.71,1266.09" fill="none" stroke="#bcbcbc" stroke-width="8" stroke-linecap="round" stroke-linejoin="round" /><polyline points="-515.14,439.81 -512.64,433.04 -512.08,431.47 -500.20,398.30 -495.75,384.32 -459.35,277.29" fill="none" stroke="#bcbcbc" stroke-width="8" stroke-linecap="round" stroke-linejoin="round" /><polyline points="-326.85,589.87 -323.14,580.00 -313.08,553.28 -308.83,541.99 -305.95,534.34 -297.88,512.90 -292.55,498.74 -291.83,496.83 -278.91,462.52 -273.51,464.19 -270.58,456.23 -265.41,442.14 -266.40,435.73 -252.66,398.32 -251.25,394.48 -248.64,392.09 -246.45,390.07 -232.67,352.40 -230.68,342.09 -210.91,287.15 -206.23,283.50 -196.72,256.59 -198.41,252.45 -190.08,227.32 -194.40,204.88" fill="none" stroke="#bcbcbc" stroke-width="8" stroke-linecap="round" stroke-linejoin="round" /><polyline points="26.81,-431.96 21.27,-441.05 -7.84,-488.81" fill="none" stroke="#bcbcbc" stroke-width="8" stroke-linecap="round" stroke-linejoin="round" /><polyline points="117.99,197.35 251.59,283.26 251.62,283.32 251.62,283.33 276.33,286.54" fill="none" stroke="#bcbcbc" stroke-width="8" stroke-linecap="round" stroke-linejoin="round" /><polyline points="64.42,17.89 206.56,89.24 210.85,92.44 210.56,115.79 213.44,139.76" fill="none" stroke="#bcbcbc" stroke-width="8" stroke-linecap="round" stroke-linejoin="round" /><polyline points="-206.57,1278.50 -211.68,1294.09 -232.39,1357.26 -267.62,1463.63 -270.12,1471.18 -272.65,1478.83 -273.36,1486.97" fill="none" stroke="#bcbcbc" stroke-width="8" stroke-linecap="round" stroke-linejoin="round" /><polyline points="193.57,894.79 194.42,886.86 194.60,879.47 194.54,879.21 189.50,857.44 187.44,848.34 186.44,843.95 185.42,839.47 179.90,815.11 169.10,766.43 161.25,737.16 160.13,732.64" fill="none" stroke="#bcbcbc" stroke-width="8" stroke-linecap="round" stroke-linejoin="round" /><polyline points="-512.11,1340.40 -508.59,1330.38 -469.01,1217.89 -464.51,1205.12" fill="none" stroke="#bcbcbc" stroke-width="8" stroke-linecap="round" stroke-linejoin="round" /><polyline points="376.58,424.39 364.94,421.10 285.86,299.75 276.33,286.54" fill="none" stroke="#bcbcbc" stroke-width="8" stroke-linecap="round" stroke-linejoin="round" /><polyline points="-923.42,715.56 -635.21,784.62 -615.34,791.87" fill="none" stroke="#bcbcbc" stroke-width="8" stroke-linecap="round" stroke-linejoin="round" /><polyline points="-14.40,-363.38 97.87,-321.79 113.68,-324.49" fill="none" stroke="#bcbcbc" stroke-width="8" stroke-linecap="round" stroke-linejoin="round" />
    <polyline points="167.20,352.80 175.93,347.90 219.77,321.48 231.49,314.50 252.00,302.27 285.74,280.45 293.61,274.79 352.80,238.07" fill="none" stroke="#ffffff" stroke-width="16" stroke-linecap="round" stroke-linejoin="round" />
    <polyline points="167.20,352.80 175.93,347.90 219.77,321.48 231.49,314.50 252.00,302.27 285.74,280.45 293.61,274.79 352.80,238.07" fill="none" stroke="#111111" stroke-width="9" stroke-linecap="round" stroke-linejoin="round" />
    
            <g transform="translate(167.20,352.80)">
              <circle r="19" fill="#ffffff" stroke="#111111" stroke-width="4" />
              <text text-anchor="middle" dominant-baseline="central" font-family="Helvetica, Arial, sans-serif"
                font-size="18" font-weight="700" fill="#111111">1</text>
            </g>
            
            <g transform="translate(352.80,238.07)">
              <circle r="19" fill="#ffffff" stroke="#111111" stroke-width="4" />
              <text text-anchor="middle" dominant-baseline="central" font-family="Helvetica, Arial, sans-serif"
                font-size="18" font-weight="700" fill="#111111">2</text>
            </g>
            
  </g>
</svg>
