<svg xmlns="http://www.w3.org/2000/svg" width="520" height="520" viewBox="0 0 520 520">
  <rect width="100%" height="100%" fill="#ffffff" />
  <g>
    <polyline points="202.83,-13.84 205.25,-0.97 220.86,108.23 218.47,135.53" fill="none" stroke="#bcbcbc" stroke-width="8" stroke-linecap="round" stroke-linejoin="round" /><polyline points="-114.45,896.16 -110.68,884.56 -90.68,823.06 -88.32,815.82 -85.94,808.21 -35.66,647.87 -31.62,634.97 -40.88,612.16" fill="none" stroke="#bcbcbc" stroke-width="8" stroke-linecap="round" stroke-linejoin="round" /><polyline points="-461.75,753.55 -462.57,744.34 -446.13,652.27 -443.82,640.76 -442.10,634.72 -437.58,611.37 -432.49,582.80 -426.95,557.63 -421.46,532.52 -418.00,525.44 -415.73,521.10" fill="none" stroke="#bcbcbc" stroke-width="8" stroke-linecap="round" stroke-linejoin="round" /><polyline points="-366.34,104.11 -370.25,92.19 -410.65,-31.01 -412.62,-36.18" fill="none" stroke="#bcbcbc" stroke-width="8" stroke-linecap="round" stroke-linejoin="round" /><polyline points="-573.62,1188.46 -572.41,1176.70 -571.93,1171.31 -567.53,1122.66 -562.71,1079.83 -561.59,1069.82 -560.55,1057.82 -560.43,1056.82 -557.70,1032.96 -555.35,1008.71 -552.76,985.31 -551.01,967.09 -550.28,955.85 -549.64,945.46 -548.49,933.76" fill="none" stroke="#bcbcbc" stroke-width="8" stroke-linecap="round" stroke-linejoin="round" /><polyline points="-15.45,924.75 -12.57,915.70 7.70,851.98 10.00,844.74 13.28,834.43 15.62,827.03 33.56,749.65" fill="none" stroke="#bcbcbc" stroke-width="8" stroke-linecap="round" stroke-linejoin="round" /><polyline points="-94.24,-335.73 -86.76,-334.58 119.52,-302.88" fill="none" stroke="#bcbcbc" stroke-width="8" stroke-linecap="round" stroke-linejoin="round" /><polyline points="-623.80,909.73 -645.27,908.73 -658.37,908.13 -665.48,907.79 -671.72,907.50 -720.34,905.24 -787.96,902.10 -820.20,897.53 -830.98,896.00 -840.35,894.35 -903.74,883.16 -912.60,881.59 -914.57,881.26 -925.51,879.38 -933.93,877.94 -987.64,873.19 -997.88,872.29 -1001.63,871.95 -1013.24,871.15 -1035.99,869.57" fill="none" stroke="#bcbcbc" stroke-width="8" stroke-linecap="round" stroke-linejoin="round" /><polyline points="-311.87,847.44 -307.71,835.60 -270.24,731.72 -225.16,600.69 -222.27,592.47 -220.26,586.73 -218.62,582.01" fill="none" stroke="#bcbcbc" stroke-width="8" stroke-linecap="round" stroke-linejoin="round" /><polyline points="-1001.63,871.95 -1002.59,865.27 -1002.81,858.02 -1001.39,843.41 -998.13,816.73 -995.95,807.78 -992.42,775.41 -991.78,768.20 -990.74,758.93 -989.97,752.05 -988.53,744.24 -985.84,723.25 -983.98,707.19 -981.24,700.62" fill="none" stroke="#bcbcbc" stroke-width="8" stroke-linecap="round" stroke-linejoin="round" /><polyline points="-1039.99,692.41 -990.00,699.39 -981.24,700.62 -975.81,701.48 -953.40,705.05 -901.78,713.28 -892.92,714.75" fill="none" stroke="#bcbcbc" stroke-width="8" stroke-linecap="round" stroke-linejoin="round" /><polyline points="-120.06,36.66 -119.73,41.20 -119.06,45.80 -117.44,49.33 -114.40,53.26 -108.78,58.37 -95.46,66.48 7.32,130.96 70.62,215.82 118.43,333.82 121.54,341.61" fill="none" stroke="#bcbcbc" stroke-width="8" stroke-linecap="round" stroke-linejoin="round" /><polyline points="-136.52,380.95 -134.39,384.47 -133.83,385.39 -132.07,394.29 -120.01,452.60 -116.18,471.10 -113.45,484.29 -109.18,511.00 -107.18,523.32 -105.81,530.84 -104.30,537.63 -102.50,541.59 -99.86,546.18 -98.45,548.34 -71.75,586.57 -57.30,609.32 -53.54,614.76" fill="none" stroke="#bcbcbc" stroke-width="8" stroke-linecap="round" stroke-linejoin="round" /><polyline points="-903.13,1111.05 -901.71,1102.30 -900.39,1095.97 -900.04,1095.13 -882.26,1052.87 -870.94,1025.40 -867.50,1016.70 -863.85,1007.48 -859.89,999.55 -859.25,998.00 -853.83,984.91 -849.64,973.31 -846.05,962.68 -843.77,955.16 -841.21,945.88 -838.26,933.43 -836.02,923.32 -833.35,909.23 -832.79,906.08 -830.98,896.00" fill="none" stroke="#bcbcbc" stroke-width="8" stroke-linecap="round" stroke-linejoin="round" /><polyline points="-41.99,-69.17 14.68,-29.57 22.32,-27.95 27.90,-21.55" fill="none" stroke="#bcbcbc" stroke-width="8" stroke-linecap="round" stroke-linejoin="round" /><polyline points="-279.96,296.57 -272.47,299.45 -239.96,310.09 -164.53,339.02 -160.29,343.23 -158.31,346.38" fill="none" stroke="#bcbcbc" stroke-width="8" stroke-linecap="round" stroke-linejoin="round" /><polyline points="-139.40,1039.90 -134.27,1026.51 -108.91,957.71 -90.98,905.73 -87.26,904.02" fill="none" stroke="#bcbcbc" stroke-width="8" stroke-linecap="round" stroke-linejoin="round" /><polyline points="-497.85,952.66 -493.85,943.82 -493.45,942.94 -486.61,919.98 -475.39,882.18 -472.52,872.50 -470.29,864.99 -469.99,860.61 -470.45,850.92" fill="none" stroke="#bcbcbc" stroke-width="8" stroke-linecap="round" stroke-linejoin="round" /><polyline points="-31.76,383.97 -38.19,385.29 -52.76,382.70 -55.02,376.69 -80.26,367.07 -86.23,368.63 -109.00,360.27 -112.40,362.64" fill="none" stroke="#bcbcbc" stroke-width="8" stroke-linecap="round" stroke-linejoin="round" /><polyline points="-69.24,-396.88 -57.81,-394.07 -51.48,-392.98 99.00,-366.88" fill="none" stroke="#bcbcbc" stroke-width="8" stroke-linecap="round" stroke-linejoin="round" /><polyline points="-186.20,998.00 -179.94,980.36 -167.77,946.06 -159.91,931.45 -148.60,899.78 -144.09,887.14" fill="none" stroke="#bcbcbc" stroke-width="8" stroke-linecap="round" stroke-linejoin="round" /><polyline points="-1010.67,313.07 -1021.57,312.57 -1024.30,315.88 -1043.29,338.96 -1109.66,415.63 -1118.99,426.41" fill="none" stroke="#bcbcbc" stroke-width="8" stroke-linecap="round" stroke-linejoin="round" /><polyline points="-428.50,378.73 -433.31,389.38 -433.89,390.67 -450.61,434.26 -467.46,482.24 -471.95,495.04 -474.49,501.65" fill="none" stroke="#bcbcbc" stroke-width="8" stroke-linecap="round" stroke-linejoin="round" /><polyline points="-183.31,-111.04 -178.00,-103.83 -174.21,-93.93 -168.31,-79.71 -158.84,-57.34 -150.45,-37.26 -140.83,-15.22 -133.68,1.77 -132.63,4.21 -132.56,4.36 -126.81,17.80 -125.10,21.62 -123.46,25.25 -121.74,28.66 -120.44,32.12 -120.06,36.66" fill="none" stroke="#bcbcbc" stroke-width="8" stroke-linecap="round" stroke-linejoin="round" /><polyline points="-589.83,593.60 -587.05,592.08 -583.16,588.99 -581.22,584.98 -555.39,487.06 -554.61,481.54 -551.46,471.45" fill="none" stroke="#bcbcbc" stroke-width="8" stroke-linecap="round" stroke-linejoin="round" /><polyline points="313.17,440.36 316.83,451.99 319.41,464.20 314.39,510.75 308.59,545.76 305.42,557.70 305.13,558.78 302.36,565.23 298.58,572.06 289.74,583.24 294.02,605.08 280.18,651.98 272.53,677.88 256.90,720.28 234.01,771.90 206.05,821.36 197.32,837.44 181.54,863.85 118.48,953.36 104.66,971.98 51.15,1041.90 20.44,1076.85 -22.53,1120.52 -26.51,1120.93 -36.21,1128.86" fill="none" stroke="#bcbcbc" stroke-width="8" stroke-linecap="round" stroke-linejoin="round" /><polyline points="-464.97,1205.98 -447.37,1151.38 -444.49,1142.37 -440.57,1136.69 -432.17,1111.46 -429.43,1102.88 -394.70,994.15 -391.21,983.21 -388.33,973.60 -347.34,844.61" fill="none" stroke="#bcbcbc" stroke-width="8" stroke-linecap="round" stroke-linejoin="round" /><polyline points="-52.58,190.62 -37.36,173.99 -32.87,168.58 -2.13,125.03" fill="none" stroke="#bcbcbc" stroke-width="8" stroke-linecap="round" stroke-linejoin="round" /><polyline points="-356.75,197.21 -314.84,211.80 -312.52,215.56 -300.63,219.55 -293.56,221.96 -259.78,233.37" fill="none" stroke="#bcbcbc" stroke-width="8" stroke-linecap="round" stroke-linejoin="round" /><polyline points="8.52,-92.80 27.90,-21.55 50.34,62.38 53.75,69.38 54.29,77.36 69.50,105.77 110.57,182.35 119.54,195.59 122.14,199.47 183.50,314.17 211.69,339.81 215.65,344.91 221.23,349.68 274.76,395.46 278.40,398.57 288.01,403.67" fill="none" stroke="#bcbcbc" stroke-width="8" stroke-linecap="round" stroke-linejoin="round" /><polyline points="-199.69,1217.57 -66.18,1140.01 -42.41,1127.86 -36.21,1128.86" fill="none" stroke="#bcbcbc" stroke-width="8" stroke-linecap="round" stroke-linejoin="round" /><polyline points="-54.93,1106.61 -46.64,1096.76 27.73,948.37 32.65,938.64 36.77,929.00 60.79,869.60 67.94,851.70 88.65,789.03 102.08,708.47 103.67,696.74" fill="none" stroke="#bcbcbc" stroke-width="8" stroke-linecap="round" stroke-linejoin="round" /><polyline points="-112.33,233.88 -113.63,235.22 -115.42,241.46 -115.60,242.08 -123.67,273.16 -121.55,281.27 -123.31,288.55 -125.62,298.07 -131.52,304.91 -138.22,332.06 -146.12,338.03 -154.55,343.81 -158.31,346.38" fill="none" stroke="#bcbcbc" stroke-width="8" stroke-linecap="round" stroke-linejoin="round" /><polyline points="-428.50,378.73 -425.07,369.94 -404.43,317.04 -399.93,305.51 -396.23,296.01 -369.86,228.46 -357.99,200.22 -356.75,197.21 -347.52,174.90 -326.82,123.51 -319.24,101.64 -317.56,96.62 -315.29,90.93" fill="none" stroke="#bcbcbc" stroke-width="8" stroke-linecap="round" stroke-linejoin="round" /><polyline points="-197.62,58.10 -193.63,69.98 -62.69,181.83 8.77,243.99 115.49,336.77 124.80,344.22 128.98,346.83 147.49,363.64 172.22,384.73 228.32,432.56 246.44,448.14 258.46,462.52" fill="none" stroke="#bcbcbc" stroke-width="8" stroke-linecap="round" stroke-linejoin="round" /><polyline points="18.88,-134.63 25.53,-138.89 64.87,-155.24 72.96,-163.74" fill="none" stroke="#bcbcbc" stroke-width="8" stroke-linecap="round" stroke-linejoin="round" /><polyline points="64.33,860.75 10.00,844.74 -88.32,815.82" fill="none" stroke="#bcbcbc" stroke-width="8" stroke-linecap="round" stroke-linejoin="round" /><polyline points="-111.02,-294.72 -103.60,-289.61 138.18,-235.81" fill="none" stroke="#bcbcbc" stroke-width="8" stroke-linecap="round" stroke-linejoin="round" /><polyline points="187.64,501.36 175.14,473.56 147.41,407.42 145.34,402.16 140.60,390.09 122.73,344.60 121.60,341.66" fill="none" stroke="#bcbcbc" stroke-width="8" stroke-linecap="round" stroke-linejoin="round" /><polyline points="-183.31,-111.04 -196.74,-114.86 -206.60,-117.79 -226.65,-123.75 -236.83,-126.65 -242.67,-128.27 -250.29,-130.46" fill="none" stroke="#bcbcbc" stroke-width="8" stroke-linecap="round" stroke-linejoin="round" /><polyline points="-533.31,252.73 -533.99,250.51 -534.62,248.96 -537.38,242.08 -548.10,217.10 -558.29,191.71 -560.49,185.72 -563.02,178.82 -564.83,173.17 -567.83,164.70 -568.14,163.81 -577.89,139.79 -595.78,94.65 -599.80,92.36 -602.65,85.04 -608.36,65.21 -618.13,40.64 -620.24,35.05" fill="none" stroke="#bcbcbc" stroke-width="8" stroke-linecap="round" stroke-linejoin="round" /><polyline points="-447.37,1151.38 -437.21,1154.50 -404.33,1164.51 -394.04,1167.65" fill="none" stroke="#bcbcbc" stroke-width="8" stroke-linecap="round" stroke-linejoin="round" /><polyline points="166.52,-122.80 168.43,-130.55 167.65,-133.49 166.71,-137.04 160.71,-159.03 147.33,-205.51 140.27,-229.28 138.18,-235.81 119.52,-302.88 109.45,-339.06 99.00,-366.88 89.56,-391.98 80.16,-409.24 71.02,-418.36 0.90,-504.04 -4.28,-510.14 -7.72,-515.78" fill="none" stroke="#bcbcbc" stroke-width="8" stroke-linecap="round" stroke-linejoin="round" /><polyline points="-120.06,36.66 -123.67,38.04 -130.36,39.89 -131.03,40.07 -158.96,47.21 -191.06,56.25 -197.62,58.10 -200.54,59.03 -208.25,61.51 -214.85,63.34 -243.64,71.35 -290.99,84.81 -308.65,89.27 -315.29,90.93 -346.85,98.68 -366.34,104.11 -407.62,115.64 -448.43,127.14 -453.15,128.45 -487.25,137.92 -502.98,142.28 -510.92,146.04 -525.96,153.49 -555.82,168.65 -557.90,169.70 -564.83,173.17 -569.06,175.29 -574.96,178.38 -595.94,189.38 -634.17,210.83 -666.10,227.56 -670.67,229.95 -676.77,230.33 -680.44,232.28 -681.17,232.67 -715.81,251.65 -723.07,251.62 -731.39,255.98 -734.30,257.50 -736.76,258.78 -742.55,261.81 -747.11,272.22 -766.72,282.72 -772.95,286.06 -779.69,289.73 -806.97,304.58 -821.07,312.25 -828.18,314.30" fill="none" stroke="#bcbcbc" stroke-width="8" stroke-linecap="round" stroke-linejoin="round" /><polyline points="272.53,677.88 257.98,679.22 212.51,683.38 210.46,683.57 207.56,683.84 202.87,684.27 158.78,688.32 143.44,686.89 125.59,691.37 111.29,694.87 103.67,696.74 84.74,697.46 68.35,696.63 60.00,695.74 52.90,693.59 47.66,690.69 28.17,676.91 -19.20,644.37 -23.67,641.35 -28.21,638.26 -31.62,634.97" fill="none" stroke="#bcbcbc" stroke-width="8" stroke-linecap="round" stroke-linejoin="round" /><polyline points="-800.29,128.61 -783.11,162.26 -780.50,171.88 -766.03,199.50 -760.05,207.41 -735.85,254.49 -734.30,257.50" fill="none" stroke="#bcbcbc" stroke-width="8" stroke-linecap="round" stroke-linejoin="round" /><polyline points="-273.58,427.85 -276.15,434.93 -276.88,437.13 -280.23,447.31 -301.50,506.63 -312.05,536.09 -312.41,537.10 -316.65,546.26 -319.08,551.70" fill="none" stroke="#bcbcbc" stroke-width="8" stroke-linecap="round" stroke-linejoin="round" /><polyline points="8.52,-92.80 6.16,-97.85 -0.03,-98.66 -20.08,-94.06 -24.15,-94.59 -27.34,-98.87 -33.01,-124.95 -2.29,-129.71 11.93,-133.90 18.88,-134.63 26.37,-108.00" fill="none" stroke="#bcbcbc" stroke-width="8" stroke-linecap="round" stroke-linejoin="round" /><polyline points="119.54,195.59 127.46,191.15 167.20,167.20 177.82,160.88 196.41,149.79 227.00,130.01 234.14,124.88 287.79,91.60" fill="none" stroke="#bcbcbc" stroke-width="8" stroke-linecap="round" stroke-linejoin="round" /><polyline points="-547.28,342.18 -428.50,378.73 -418.81,381.80 -330.17,409.90 -328.32,410.49 -315.04,414.70 -308.51,416.77 -300.03,419.09 -282.53,425.02 -273.58,427.85 -265.53,430.41 -199.56,451.33 -129.93,473.21 -124.17,475.02 -116.18,471.10" fill="none" stroke="#bcbcbc" stroke-width="8" stroke-linecap="round" stroke-linejoin="round" /><polyline points="-198.03,-244.24 -146.57,-291.52 -137.86,-299.52" fill="none" stroke="#bcbcbc" stroke-width="8" stroke-linecap="round" stroke-linejoin="round" /><polyline points="-1059.61,518.63 -870.82,538.87" fill="none" stroke="#bcbcbc" stroke-width="8" stroke-linecap="round" stroke-linejoin="round" /><polyline points="-490.07,-8.33 -450.39,-22.52 -409.46,-37.32 -384.03,-47.21 -306.38,-75.45 -283.84,-83.25 -279.14,-84.87 -273.49,-86.81 -267.16,-88.99 -266.38,-89.26 -253.59,-94.40 -248.03,-96.64" fill="none" stroke="#bcbcbc" stroke-width="8" stroke-linecap="round" stroke-linejoin="round" /><polyline points="-223.55,951.92 -186.20,998.00 -163.33,1021.03 -153.42,1028.16 -139.40,1039.90 -126.24,1050.96 -114.93,1061.99 -114.65,1067.60" fill="none" stroke="#bcbcbc" stroke-width="8" stroke-linecap="round" stroke-linejoin="round" /><polyline points="-183.31,-111.04 -168.67,-147.74 -144.97,-208.16 -111.02,-294.72 -94.24,-335.73 -69.24,-396.88 -48.74,-446.96 -45.07,-453.61 -27.05,-483.08 -25.88,-484.99 -19.29,-497.96 -7.72,-515.78 -1.26,-525.72 7.88,-539.78" fill="none" stroke="#bcbcbc" stroke-width="8" stroke-linecap="round" stroke-linejoin="round" /><polyline points="-528.72,870.18 -531.12,872.10 -532.70,874.38 -535.93,883.91 -538.16,890.78 -548.48,921.63 -549.90,926.08 -550.78,928.84 -560.25,926.12 -583.30,918.39 -606.15,910.73 -623.80,909.73" fill="none" stroke="#bcbcbc" stroke-width="8" stroke-linecap="round" stroke-linejoin="round" /><polyline points="-980.18,1084.82 -942.53,987.60 -938.34,977.02 -934.58,966.82 -930.04,954.50 -924.48,935.13 -918.67,911.05 -916.29,893.79 -914.57,881.26 -912.13,872.00 -903.27,802.48 -892.92,714.75 -887.56,672.93 -881.59,623.80 -870.82,538.87 -869.11,524.43 -858.22,435.61 -858.22,430.66 -855.81,404.31 -848.87,348.64 -847.13,338.93 -845.31,333.49 -842.47,327.49 -839.71,322.83 -833.62,316.24 -828.17,314.37" fill="none" stroke="#bcbcbc" stroke-width="8" stroke-linecap="round" stroke-linejoin="round" /><polyline points="-158.31,346.38 -156.25,349.65 -149.34,360.43 -139.01,377.00 -136.52,380.95 -132.39,377.82 -112.40,362.64" fill="none" stroke="#bcbcbc" stroke-width="8" stroke-linecap="round" stroke-linejoin="round" /><polyline points="-144.97,-208.16 58.44,-171.38 79.80,-160.14 159.50,-120.63 166.52,-122.80" fill="none" stroke="#bcbcbc" stroke-width="8" stroke-linecap="round" stroke-linejoin="round" /><polyline points="-533.31,252.73 -536.92,258.00 -569.37,273.84 -593.21,304.13 -618.93,320.06 -636.52,333.34 -653.30,347.03 -661.90,354.87 -677.10,374.15 -694.09,398.51 -696.89,403.02" fill="none" stroke="#bcbcbc" stroke-width="8" stroke-linecap="round" stroke-linejoin="round" /><polyline points="-499.00,274.47 -500.41,277.60 -503.49,282.09 -509.30,289.25 -543.58,332.55 -561.72,381.40 -653.26,346.99" fill="none" stroke="#bcbcbc" stroke-width="8" stroke-linecap="round" stroke-linejoin="round" /><polyline points="-636.52,333.34 -640.06,322.61 -655.38,276.23 -661.32,267.07 -671.28,237.20 -672.14,234.62 -670.67,229.95 -673.05,222.34 -720.92,69.51" fill="none" stroke="#bcbcbc" stroke-width="8" stroke-linecap="round" stroke-linejoin="round" /><polyline points="-75.67,-500.56 -37.84,-499.56 -36.07,-499.51 -28.82,-499.30 -19.29,-497.96" fill="none" stroke="#bcbcbc" stroke-width="8" stroke-linecap="round" stroke-linejoin="round" /><polyline points="-270.24,731.72 -283.15,731.56 -392.52,746.24 -400.41,747.07 -409.42,748.03 -461.75,753.55 -532.26,761.00 -569.64,764.94 -590.32,767.12 -607.11,769.16 -615.73,770.21 -625.44,771.39 -672.35,777.09 -683.60,778.46 -718.24,782.24 -903.27,802.48" fill="none" stroke="#bcbcbc" stroke-width="8" stroke-linecap="round" stroke-linejoin="round" /><polyline points="-432.17,1111.46 -441.85,1108.34 -487.11,1093.77 -496.25,1090.83 -504.20,1088.27 -552.14,1072.86 -561.59,1069.82 -574.10,1065.80 -650.42,1041.24 -659.01,1038.48" fill="none" stroke="#bcbcbc" stroke-width="8" stroke-linecap="round" stroke-linejoin="round" /><polyline points="-242.94,195.23 -216.62,203.43 -120.36,233.16 -119.46,233.44 -112.33,233.88" fill="none" stroke="#bcbcbc" stroke-width="8" stroke-linecap="round" stroke-linejoin="round" /><polyline points="27.90,-21.55 158.85,-19.25" fill="none" stroke="#bcbcbc" stroke-width="8" stroke-linecap="round" stroke-linejoin="round" /><polyline points="-36.21,1128.86 -54.93,1106.61 -62.78,1097.48 -69.53,1091.17 -78.52,1084.46 -96.88,1073.45 -114.65,1067.60 -150.80,1056.44 -180.37,1047.05 -163.33,1021.03" fill="none" stroke="#bcbcbc" stroke-width="8" stroke-linecap="round" stroke-linejoin="round" /><polyline points="-223.55,951.92 -249.62,919.74 -254.58,913.62 -280.83,877.46 -286.77,866.41 -285.35,853.27 -277.43,853.19 -257.91,856.94 -228.19,862.66" fill="none" stroke="#bcbcbc" stroke-width="8" stroke-linecap="round" stroke-linejoin="round" /><polyline points="-564.52,694.15 -559.71,704.49 -532.26,761.00 -491.45,845.02 -486.24,855.74" fill="none" stroke="#bcbcbc" stroke-width="8" stroke-linecap="round" stroke-linejoin="round" /><polyline points="-1004.18,950.10 -994.36,954.11 -948.38,972.91 -938.34,977.02 -927.78,981.33 -873.64,1003.47 -863.85,1007.48" fill="none" stroke="#bcbcbc" stroke-width="8" stroke-linecap="round" stroke-linejoin="round" /><polyline points="-541.93,610.36 -446.13,652.27" fill="none" stroke="#bcbcbc" stroke-width="8" stroke-linecap="round" stroke-linejoin="round" /><polyline points="-112.33,233.88 -97.73,234.65 -96.80,235.48 -90.25,241.28 -80.63,249.87 -78.86,253.33 -45.69,282.37 -43.24,287.01 -19.91,307.59 -14.04,309.38 4.10,325.27 8.16,327.13 35.52,350.34 41.61,355.74 44.97,361.09" fill="none" stroke="#bcbcbc" stroke-width="8" stroke-linecap="round" stroke-linejoin="round" /><polyline points="-1031.22,610.45 -881.59,623.80" fill="none" stroke="#bcbcbc" stroke-width="8" stroke-linecap="round" stroke-linejoin="round" /><polyline points="-697.12,1167.64 -692.49,1157.77 -691.29,1153.38 -684.80,1129.42 -661.26,1046.42 -659.01,1038.48 -656.62,1029.76 -645.96,990.77 -627.95,924.91 -623.80,909.73" fill="none" stroke="#bcbcbc" stroke-width="8" stroke-linecap="round" stroke-linejoin="round" /><polyline points="-564.52,694.15 -541.93,610.36 -589.83,593.60 -602.37,601.01 -608.09,605.36 -612.32,611.08 -615.30,618.64 -626.32,659.36 -617.43,663.89 -608.45,666.06 -588.60,671.23 -573.74,675.96 -564.52,694.15" fill="none" stroke="#bcbcbc" stroke-width="8" stroke-linecap="round" stroke-linejoin="round" /><polyline points="-626.32,659.36 -636.81,657.90 -881.59,623.80" fill="none" stroke="#bcbcbc" stroke-width="8" stroke-linecap="round" stroke-linejoin="round" /><polyline points="-228.19,862.66 -205.49,867.62 -144.09,887.14 -126.92,892.57 -86.16,904.34 -45.11,916.18 -14.72,924.96 33.89,938.99 43.93,941.90 68.46,950.12 108.84,960.87 112.40,961.54" fill="none" stroke="#bcbcbc" stroke-width="8" stroke-linecap="round" stroke-linejoin="round" /><polyline points="-199.39,1217.40 -207.68,1219.47 -216.64,1244.44 -230.52,1240.49 -293.68,1218.97 -301.28,1217.35 -318.19,1216.14 -394.68,1216.44 -411.54,1214.30 -449.61,1208.47 -464.97,1205.98 -573.90,1188.41 -616.08,1181.68 -696.52,1167.75 -709.51,1165.17 -891.06,1114.43 -902.52,1111.22 -980.18,1084.82 -999.28,1078.05 -1047.01,1058.27 -1074.21,1047.98" fill="none" stroke="#bcbcbc" stroke-width="8" stroke-linecap="round" stroke-linejoin="round" /><polyline points="-33.01,-124.95 -40.87,-126.57 -145.80,-114.16 -183.31,-111.04" fill="none" stroke="#bcbcbc" stroke-width="8" stroke-linecap="round" stroke-linejoin="round" /><polyline points="-228.19,862.66 -224.52,856.51 -202.50,799.96 -177.90,714.45 -171.62,696.03 -168.26,691.02 -144.51,614.77 -143.33,605.67 -142.43,599.72" fill="none" stroke="#bcbcbc" stroke-width="8" stroke-linecap="round" stroke-linejoin="round" /><polyline points="-120.06,36.66 -117.55,35.70 -114.15,33.00 -108.99,26.96 -41.99,-69.17 -24.15,-94.59" fill="none" stroke="#bcbcbc" stroke-width="8" stroke-linecap="round" stroke-linejoin="round" /><polyline points="178.13,389.80 179.50,385.85 213.18,346.23 215.65,344.91 221.50,336.91 241.09,314.40 247.19,308.80" fill="none" stroke="#bcbcbc" stroke-width="8" stroke-linecap="round" stroke-linejoin="round" /><polyline points="207.56,683.84 207.09,678.54 206.73,674.43 204.96,666.59 202.84,661.48 200.19,648.04 199.95,643.17 198.16,632.29 190.14,628.11 183.73,630.56 172.27,633.30 163.19,634.72 154.49,636.82 142.47,639.56 136.99,640.81" fill="none" stroke="#bcbcbc" stroke-width="8" stroke-linecap="round" stroke-linejoin="round" /><polyline points="-677.25,489.25 -652.76,431.83 -651.40,428.10" fill="none" stroke="#bcbcbc" stroke-width="8" stroke-linecap="round" stroke-linejoin="round" /><polyline points="-31.76,383.97 -19.96,379.39 -13.78,377.00 -9.01,372.17 10.67,367.32 17.27,369.00 31.52,365.33 42.39,362.53 44.97,361.09 55.51,358.51 109.39,345.31 121.60,341.66" fill="none" stroke="#bcbcbc" stroke-width="8" stroke-linecap="round" stroke-linejoin="round" /><polyline points="-528.72,870.18 -503.30,860.95 -494.80,858.35 -486.24,855.74 -470.45,850.92 -458.16,849.15 -416.19,844.56 -407.76,844.10 -370.22,844.42 -347.34,844.61 -338.74,844.17 -324.96,845.57 -320.66,846.18 -311.87,847.44 -285.35,853.27" fill="none" stroke="#bcbcbc" stroke-width="8" stroke-linecap="round" stroke-linejoin="round" /><polyline points="-407.62,115.64 -411.83,101.41 -427.47,48.53 -446.47,-11.76 -450.39,-22.52 -454.37,-32.61 -459.41,-47.15" fill="none" stroke="#bcbcbc" stroke-width="8" stroke-linecap="round" stroke-linejoin="round" /><polyline points="-453.11,968.20 -449.77,957.65 -415.98,851.11 -416.19,844.56" fill="none" stroke="#bcbcbc" stroke-width="8" stroke-linecap="round" stroke-linejoin="round" /><polyline points="-407.76,844.10 -401.07,754.39 -400.41,747.07 -399.38,738.56 -399.36,738.18 -398.92,727.77 -396.69,699.54 -395.43,686.38 -393.71,671.44 -392.14,660.69 -390.74,653.93 -388.97,648.83 -385.49,637.32 -378.32,613.37 -369.19,582.45 -359.13,550.84 -357.08,544.39 -355.43,539.72" fill="none" stroke="#bcbcbc" stroke-width="8" stroke-linecap="round" stroke-linejoin="round" /><polyline points="-626.32,659.36 -628.10,667.31 -627.79,669.85 -616.89,760.60 -615.73,770.21 -616.24,780.10 -619.09,836.54 -620.28,860.12 -620.90,872.28 -622.00,893.96 -622.57,905.25 -623.80,909.73" fill="none" stroke="#bcbcbc" stroke-width="8" stroke-linecap="round" stroke-linejoin="round" /><polyline points="-677.25,489.25 -716.88,477.47 -721.92,474.24 -746.58,467.05 -753.51,467.13 -784.50,457.79 -789.51,454.10 -817.71,445.55 -852.31,436.12 -852.48,436.10 -858.22,435.61" fill="none" stroke="#bcbcbc" stroke-width="8" stroke-linecap="round" stroke-linejoin="round" /><polyline points="44.97,361.09 46.35,362.89 52.10,371.46 62.72,387.30 72.72,397.31 91.95,418.89 88.70,438.84 87.05,446.32 84.75,449.48 89.57,456.61 97.03,471.96 111.93,500.70 119.27,514.86 123.83,527.58 125.89,533.49" fill="none" stroke="#bcbcbc" stroke-width="8" stroke-linecap="round" stroke-linejoin="round" /><polyline points="145.34,402.16 139.82,403.88 103.43,415.21 98.21,416.88 91.95,418.89" fill="none" stroke="#bcbcbc" stroke-width="8" stroke-linecap="round" stroke-linejoin="round" /><polyline points="-116.18,471.10 -104.80,467.42 -22.19,425.23 -11.14,419.83 27.80,408.59 65.55,397.97 72.72,397.31" fill="none" stroke="#bcbcbc" stroke-width="8" stroke-linecap="round" stroke-linejoin="round" /><polyline points="-107.18,523.32 -11.95,479.01 -7.94,476.35 1.37,473.64 64.83,455.18 74.46,451.49 84.75,449.48" fill="none" stroke="#bcbcbc" stroke-width="8" stroke-linecap="round" stroke-linejoin="round" /><polyline points="-126.61,-405.79 -88.06,-401.02 -84.19,-400.54 -69.24,-396.88" fill="none" stroke="#bcbcbc" stroke-width="8" stroke-linecap="round" stroke-linejoin="round" /><polyline points="202.83,-13.84 209.66,-15.27 235.21,-2.75 238.57,0.58 286.53,81.75 287.79,91.60 294.03,96.79 293.03,100.38 292.88,106.23 293.75,114.41 306.45,166.61 307.57,202.76 309.35,260.49 312.34,338.18 300.17,372.04 292.34,392.68 280.90,421.76 277.59,430.17 275.44,432.52 271.98,455.03" fill="none" stroke="#bcbcbc" stroke-width="8" stroke-linecap="round" stroke-linejoin="round" /><polyline points="291.48,592.15 279.82,587.07 250.68,566.73 212.23,539.72 191.08,522.61 176.81,507.33" fill="none" stroke="#bcbcbc" stroke-width="8" stroke-linecap="round" stroke-linejoin="round" /><polyline points="-180.37,1047.05 -191.82,1043.42 -210.41,1037.53 -219.28,1034.72 -229.70,1031.41 -242.86,1027.24 -254.76,1023.47 -266.53,1019.73 -318.99,1003.09 -328.18,1000.17 -339.59,996.56 -342.11,995.76 -372.11,987.83 -380.59,985.78 -391.21,983.21 -402.32,980.52 -442.37,970.80 -453.11,968.20 -464.65,964.19 -488.76,955.82 -497.85,952.66 -505.98,950.02 -543.74,936.60 -548.49,933.76 -550.78,928.84" fill="none" stroke="#bcbcbc" stroke-width="8" stroke-linecap="round" stroke-linejoin="round" /><polyline points="-7.94,476.35 -10.72,466.38 -19.01,436.66 -22.19,425.23 -26.80,416.69 -27.23,415.11 -29.95,405.04 -26.78,400.59 -30.58,387.90 -31.76,383.97" fill="none" stroke="#bcbcbc" stroke-width="8" stroke-linecap="round" stroke-linejoin="round" /><polyline points="-21.80,112.65 -13.92,108.94 29.13,85.20 53.75,69.38 71.10,57.53 74.94,54.68 88.91,44.97 103.38,34.28 112.55,27.60 123.48,19.61 161.46,2.47 166.38,2.74 173.59,-0.67 202.83,-13.84" fill="none" stroke="#bcbcbc" stroke-width="8" stroke-linecap="round" stroke-linejoin="round" /><polyline points="-499.00,274.47 -492.79,276.99 -488.69,278.25 -411.69,301.90 -399.93,305.51" fill="none" stroke="#bcbcbc" stroke-width="8" stroke-linecap="round" stroke-linejoin="round" /><polyline points="-1048.94,447.61 -1103.95,430.96" fill="none" stroke="#bcbcbc" stroke-width="8" stroke-linecap="round" stroke-linejoin="round" /><polyline points="-160.42,-328.10 -146.78,-310.82 -144.75,-308.24 -137.86,-299.52 -130.02,-298.60 -113.89,-296.70 -111.02,-294.72" fill="none" stroke="#bcbcbc" stroke-width="8" stroke-linecap="round" stroke-linejoin="round" /><polyline points="313.17,440.36 291.56,444.39 269.40,456.44 248.86,467.87 229.43,477.58 205.95,490.33 188.95,500.66 155.36,518.67 24.22,584.64 -9.78,599.62 -32.24,609.33 -43.37,612.98 -52.58,614.70 -67.65,615.61 -89.11,612.57 -142.63,599.72 -218.62,582.01 -318.60,551.86 -355.43,539.72 -415.73,521.10 -473.41,502.07 -558.00,468.88 -600.30,450.67 -651.30,428.00 -735.89,381.66 -755.72,368.50 -805.91,336.93 -826.96,315.89 -858.53,275.01 -910.54,221.38 -930.98,203.37" fill="none" stroke="#bcbcbc" stroke-width="8" stroke-linecap="round" stroke-linejoin="round" /><polyline points="-96.88,1073.45 -95.99,1068.50 -92.79,1060.43 -62.80,990.23 -51.46,963.92 -38.11,931.13 -34.85,919.14" fill="none" stroke="#bcbcbc" stroke-width="8" stroke-linecap="round" stroke-linejoin="round" /><polyline points="-672.35,777.09 -706.43,760.60 -783.97,723.07 -879.07,677.04 -887.56,672.93" fill="none" stroke="#bcbcbc" stroke-width="8" stroke-linecap="round" stroke-linejoin="round" /><polyline points="-112.33,233.88 -103.72,225.07 -80.84,201.65 -62.69,181.83" fill="none" stroke="#bcbcbc" stroke-width="8" stroke-linecap="round" stroke-linejoin="round" /><polyline points="-772.95,286.06 -782.40,273.54 -826.70,214.90 -889.93,163.73" fill="none" stroke="#bcbcbc" stroke-width="8" stroke-linecap="round" stroke-linejoin="round" /><polyline points="-1047.35,1058.12 -1038.70,1037.62 -1011.21,969.07 -1007.88,960.08 -1004.18,950.10 -1002.78,946.50 -1002.41,940.86 -998.89,887.57 -997.88,872.29" fill="none" stroke="#bcbcbc" stroke-width="8" stroke-linecap="round" stroke-linejoin="round" /><polyline points="-1066.11,507.14 -1048.94,447.61 -1026.30,369.09 -1023.50,359.37 -1020.38,348.33 -1013.40,323.61 -1012.67,321.02 -1010.67,313.07 -1007.48,304.08 -1006.71,301.90 -1002.69,291.93 -994.78,274.50 -992.42,269.49" fill="none" stroke="#bcbcbc" stroke-width="8" stroke-linecap="round" stroke-linejoin="round" /><polyline points="-1023.50,359.37 -988.77,368.26 -915.20,387.17 -873.29,400.21 -855.81,404.31" fill="none" stroke="#bcbcbc" stroke-width="8" stroke-linecap="round" stroke-linejoin="round" /><polyline points="-308.65,89.27 -307.46,82.04 -306.28,74.54 -301.18,49.44 -288.45,-8.99 -278.00,-61.25 -276.09,-72.09 -273.49,-86.81 -273.49,-86.83" fill="none" stroke="#bcbcbc" stroke-width="8" stroke-linecap="round" stroke-linejoin="round" /><polyline points="-411.47,1214.31 -395.96,1174.76 -394.04,1167.65 -332.50,1011.44 -328.18,1000.17 -324.68,990.61 -287.91,883.63 -280.83,877.46" fill="none" stroke="#bcbcbc" stroke-width="8" stroke-linecap="round" stroke-linejoin="round" /><polyline points="-200.54,59.03 -200.54,59.01 -202.72,47.57 -203.06,46.18 -208.38,24.57 -208.37,24.50 -212.00,9.84 -227.36,-42.79 -229.29,-48.43 -239.66,-76.62 -243.03,-85.03 -245.21,-90.46 -248.03,-96.63 -248.03,-96.64 -248.03,-96.66 -250.09,-119.33 -250.29,-130.46" fill="none" stroke="#bcbcbc" stroke-width="8" stroke-linecap="round" stroke-linejoin="round" /><polyline points="-223.56,951.92 -227.50,956.18 -233.39,963.18 -249.97,1009.93 -254.76,1023.47" fill="none" stroke="#bcbcbc" stroke-width="8" stroke-linecap="round" stroke-linejoin="round" /><polyline points="-499.00,274.47 -496.74,268.33 -496.23,266.90 -485.46,236.83 -481.42,224.16 -448.43,127.14" fill="none" stroke="#bcbcbc" stroke-width="8" stroke-linecap="round" stroke-linejoin="round" /><polyline points="-328.32,410.49 -324.95,401.55 -315.83,377.33 -311.98,367.09 -309.37,360.16 -302.05,340.72 -297.22,327.88 -296.57,326.15 -284.86,295.05 -279.96,296.57 -277.31,289.35 -272.62,276.57 -273.52,270.77 -261.06,236.86 -259.78,233.37 -257.42,231.20 -255.44,229.38 -242.94,195.23 -241.14,185.88 -223.21,136.09 -218.98,132.77 -210.35,108.38 -211.89,104.63 -204.33,81.85 -208.25,61.51" fill="none" stroke="#bcbcbc" stroke-width="8" stroke-linecap="round" stroke-linejoin="round" /><polyline points="-7.72,-515.78 -12.74,-524.01 -39.13,-567.31" fill="none" stroke="#bcbcbc" stroke-width="8" stroke-linecap="round" stroke-linejoin="round" /><polyline points="74.94,54.68 196.04,132.55 196.07,132.61 196.07,132.62 218.47,135.53" fill="none" stroke="#bcbcbc" stroke-width="8" stroke-linecap="round" stroke-linejoin="round" /><polyline points="26.37,-108.00 155.22,-43.32 159.11,-40.42 158.85,-19.25 161.46,2.47" fill="none" stroke="#bcbcbc" stroke-width="8" stroke-linecap="round" stroke-linejoin="round" /><polyline points="-219.28,1034.72 -223.92,1048.85 -242.69,1106.11 -274.62,1202.54 -276.89,1209.38 -279.18,1216.31 -279.82,1223.69" fill="none" stroke="#bcbcbc" stroke-width="8" stroke-linecap="round" stroke-linejoin="round" /><polyline points="143.44,686.89 144.22,679.71 144.38,673.01 144.33,672.77 139.76,653.04 137.89,644.79 136.99,640.81 136.06,636.75 131.05,614.66 121.26,570.54 114.15,544.01 113.14,539.91" fill="none" stroke="#bcbcbc" stroke-width="8" stroke-linecap="round" stroke-linejoin="round" /><polyline points="-496.25,1090.83 -493.06,1081.75 -457.18,979.78 -453.11,968.20" fill="none" stroke="#bcbcbc" stroke-width="8" stroke-linecap="round" stroke-linejoin="round" /><polyline points="309.35,260.48 298.79,257.51 227.11,147.50 218.47,135.53" fill="none" stroke="#bcbcbc" stroke-width="8" stroke-linecap="round" stroke-linejoin="round" /><polyline points="-869.11,524.43 -607.84,587.02 -589.83,593.60" fill="none" stroke="#bcbcbc" stroke-width="8" stroke-linecap="round" stroke-linejoin="round" /><polyline points="-45.07,-453.61 56.70,-415.91 71.02,-418.36" fill="none" stroke="#bcbcbc" stroke-width="8" stroke-linecap="round" stroke-linejoin="round" />
    <polyline points="307.08,352.80 293.52,348.76 285.63,342.29 255.50,316.21 254.47,315.30 247.19,308.80 242.90,301.20 167.20,167.20" fill="none" stroke="#ffffff" stroke-width="16" stroke-linecap="round" stroke-linejoin="round" />
    <polyline points="307.08,352.80 293.52,348.76 285.63,342.29 255.50,316.21 254.47,315.30 247.19,308.80 242.90,301.20 167.20,167.20" fill="none" stroke="#111111" stroke-width="9" stroke-linecap="round" stroke-linejoin="round" />
    
            <g transform="translate(307.08,352.80)">
              <circle r="19" fill="#ffffff" stroke="#111111" stroke-width="4" />
              <text text-anchor="middle" dominant-baseline="central" font-family="Helvetica, Arial, sans-serif"
                font-size="18" font-weight="700" fill="#111111">1</text>
            </g>
            
            <g transform="translate(167.20,167.20)">
              <circle r="19" fill="#ffffff" stroke="#111111" stroke-width="4" />
              <text text-anchor="middle" dominant-baseline="central" font-family="Helvetica, Arial, sans-serif"
                font-size="18" font-weight="700" fill="#111111">2</text>
            </g>
            
  </g>
</svg>
