<svg xmlns="http://www.w3.org/2000/svg" width="520" height="520" viewBox="0 0 520 520">
  <rect width="100%" height="100%" fill="#ffffff" />
  <g>
    <polyline points="490.14,142.33 491.19,147.87 497.91,194.89 496.88,206.64" fill="none" stroke="#bcbcbc" stroke-width="8" stroke-linecap="round" stroke-linejoin="round" /><polyline points="353.55,534.11 355.17,529.12 363.78,502.64 364.79,499.52 365.82,496.24 387.47,427.21 389.21,421.66 385.22,411.84" fill="none" stroke="#bcbcbc" stroke-width="8" stroke-linecap="round" stroke-linejoin="round" /><polyline points="204.02,472.71 203.67,468.75 210.75,429.11 211.74,424.15 212.48,421.56 214.43,411.50 216.62,399.20 219.00,388.36 221.37,377.55 222.86,374.50 223.83,372.64" fill="none" stroke="#bcbcbc" stroke-width="8" stroke-linecap="round" stroke-linejoin="round" /><polyline points="245.10,193.11 243.42,187.98 226.02,134.94 225.18,132.72" fill="none" stroke="#bcbcbc" stroke-width="8" stroke-linecap="round" stroke-linejoin="round" /><polyline points="155.86,659.95 156.38,654.89 156.59,652.57 158.48,631.62 160.55,613.18 161.04,608.88 161.49,603.71 161.54,603.28 162.71,593.00 163.73,582.56 164.84,572.49 165.59,564.65 165.91,559.81 166.18,555.34 166.68,550.30" fill="none" stroke="#bcbcbc" stroke-width="8" stroke-linecap="round" stroke-linejoin="round" /><polyline points="396.17,546.42 397.41,542.52 406.14,515.09 407.13,511.97 408.54,507.53 409.55,504.35 417.27,471.03" fill="none" stroke="#bcbcbc" stroke-width="8" stroke-linecap="round" stroke-linejoin="round" /><polyline points="362.25,3.75 365.47,4.25 454.28,17.89" fill="none" stroke="#bcbcbc" stroke-width="8" stroke-linecap="round" stroke-linejoin="round" /><polyline points="134.25,539.95 125.01,539.52 119.37,539.26 116.31,539.12 113.62,538.99 92.69,538.02 63.58,536.67 49.70,534.70 45.06,534.04 41.03,533.33 13.73,528.51 9.92,527.84 9.07,527.69 4.36,526.88 0.74,526.26 -22.39,524.22 -26.80,523.83 -28.41,523.69 -33.41,523.34 -43.20,522.66" fill="none" stroke="#bcbcbc" stroke-width="8" stroke-linecap="round" stroke-linejoin="round" /><polyline points="268.55,513.13 270.34,508.04 286.47,463.31 305.88,406.90 307.13,403.36 307.99,400.89 308.70,398.86" fill="none" stroke="#bcbcbc" stroke-width="8" stroke-linecap="round" stroke-linejoin="round" /><polyline points="-28.41,523.69 -28.82,520.81 -28.92,517.69 -28.31,511.40 -26.91,499.91 -25.97,496.06 -24.45,482.12 -24.17,479.02 -23.72,475.03 -23.39,472.07 -22.77,468.71 -21.62,459.67 -20.81,452.75 -19.63,449.92" fill="none" stroke="#bcbcbc" stroke-width="8" stroke-linecap="round" stroke-linejoin="round" /><polyline points="-44.93,446.39 -23.41,449.40 -19.63,449.92 -17.30,450.30 -7.65,451.83 14.58,455.37 18.39,456.01" fill="none" stroke="#bcbcbc" stroke-width="8" stroke-linecap="round" stroke-linejoin="round" /><polyline points="351.13,164.08 351.27,166.03 351.56,168.01 352.26,169.53 353.57,171.22 355.99,173.42 361.72,176.91 405.97,204.67 433.22,241.21 453.81,292.01 455.15,295.36" fill="none" stroke="#bcbcbc" stroke-width="8" stroke-linecap="round" stroke-linejoin="round" /><polyline points="344.05,312.30 344.96,313.82 345.20,314.21 345.96,318.04 351.15,343.15 352.80,351.11 353.98,356.79 355.82,368.29 356.68,373.60 357.27,376.83 357.92,379.75 358.69,381.46 359.83,383.43 360.43,384.37 371.93,400.83 378.15,410.62 379.77,412.96" fill="none" stroke="#bcbcbc" stroke-width="8" stroke-linecap="round" stroke-linejoin="round" /><polyline points="13.99,626.62 14.61,622.86 15.17,620.13 15.33,619.77 22.98,601.58 27.85,589.75 29.34,586.00 30.91,582.03 32.61,578.62 32.89,577.96 35.22,572.32 37.02,567.33 38.57,562.75 39.55,559.51 40.65,555.51 41.92,550.15 42.89,545.80 44.04,539.73 44.28,538.38 45.06,534.04" fill="none" stroke="#bcbcbc" stroke-width="8" stroke-linecap="round" stroke-linejoin="round" /><polyline points="384.74,118.51 409.14,135.56 412.43,136.26 414.83,139.01" fill="none" stroke="#bcbcbc" stroke-width="8" stroke-linecap="round" stroke-linejoin="round" /><polyline points="282.29,275.97 285.51,277.21 299.51,281.79 331.99,294.25 333.81,296.06 334.66,297.42" fill="none" stroke="#bcbcbc" stroke-width="8" stroke-linecap="round" stroke-linejoin="round" /><polyline points="342.80,595.99 345.01,590.23 355.93,560.61 363.65,538.23 365.25,537.49" fill="none" stroke="#bcbcbc" stroke-width="8" stroke-linecap="round" stroke-linejoin="round" /><polyline points="188.48,558.44 190.20,554.63 190.37,554.25 193.32,544.36 198.15,528.09 199.39,523.92 200.35,520.69 200.47,518.80 200.28,514.63" fill="none" stroke="#bcbcbc" stroke-width="8" stroke-linecap="round" stroke-linejoin="round" /><polyline points="389.15,313.60 386.38,314.17 380.11,313.05 379.13,310.47 368.27,306.32 365.70,306.99 355.89,303.39 354.43,304.42" fill="none" stroke="#bcbcbc" stroke-width="8" stroke-linecap="round" stroke-linejoin="round" /><polyline points="373.01,-22.57 377.93,-21.37 380.66,-20.89 445.44,-9.66" fill="none" stroke="#bcbcbc" stroke-width="8" stroke-linecap="round" stroke-linejoin="round" /><polyline points="322.66,577.96 325.35,570.36 330.59,555.59 333.97,549.30 338.84,535.67 340.79,530.23" fill="none" stroke="#bcbcbc" stroke-width="8" stroke-linecap="round" stroke-linejoin="round" /><polyline points="-32.30,283.07 -37.00,282.86 -38.17,284.29 -46.35,294.22 -74.92,327.23 -78.94,331.87" fill="none" stroke="#bcbcbc" stroke-width="8" stroke-linecap="round" stroke-linejoin="round" /><polyline points="218.34,311.34 216.27,315.93 216.02,316.49 208.82,335.25 201.57,355.91 199.63,361.42 198.54,364.26" fill="none" stroke="#bcbcbc" stroke-width="8" stroke-linecap="round" stroke-linejoin="round" /><polyline points="323.90,100.49 326.19,103.59 327.82,107.86 330.36,113.98 334.43,123.61 338.05,132.25 342.19,141.74 345.27,149.05 345.72,150.10 345.75,150.17 348.22,155.95 348.96,157.60 349.67,159.16 350.41,160.63 350.97,162.12 351.13,164.08" fill="none" stroke="#bcbcbc" stroke-width="8" stroke-linecap="round" stroke-linejoin="round" /><polyline points="148.88,403.85 150.08,403.20 151.75,401.87 152.59,400.14 163.71,357.98 164.04,355.61 165.40,351.26" fill="none" stroke="#bcbcbc" stroke-width="8" stroke-linecap="round" stroke-linejoin="round" /><polyline points="537.65,337.88 539.23,342.88 540.34,348.14 538.18,368.18 535.68,383.25 534.31,388.39 534.19,388.86 533.00,391.64 531.37,394.58 527.56,399.39 529.40,408.79 523.45,428.99 520.16,440.14 513.42,458.39 503.57,480.61 491.53,501.91 487.77,508.83 480.98,520.20 453.83,558.73 447.88,566.75 424.84,596.85 411.62,611.90 393.12,630.70 391.41,630.88 387.23,634.29" fill="none" stroke="#bcbcbc" stroke-width="8" stroke-linecap="round" stroke-linejoin="round" /><polyline points="202.64,667.49 210.22,643.99 211.46,640.11 213.14,637.66 216.76,626.80 217.94,623.11 232.89,576.30 234.39,571.59 235.63,567.45 253.28,511.92" fill="none" stroke="#bcbcbc" stroke-width="8" stroke-linecap="round" stroke-linejoin="round" /><polyline points="380.18,230.36 386.73,223.20 388.67,220.87 401.90,202.12" fill="none" stroke="#bcbcbc" stroke-width="8" stroke-linecap="round" stroke-linejoin="round" /><polyline points="249.23,233.19 267.27,239.48 268.27,241.10 273.39,242.81 276.43,243.85 290.98,248.77" fill="none" stroke="#bcbcbc" stroke-width="8" stroke-linecap="round" stroke-linejoin="round" /><polyline points="406.49,108.34 414.83,139.01 424.50,175.15 425.96,178.16 426.19,181.60 432.74,193.83 450.42,226.80 454.29,232.50 455.41,234.17 481.82,283.55 493.96,294.59 495.66,296.79 498.06,298.84 521.11,318.55 522.68,319.88 526.82,322.08" fill="none" stroke="#bcbcbc" stroke-width="8" stroke-linecap="round" stroke-linejoin="round" /><polyline points="316.85,672.48 374.33,639.09 384.56,633.86 387.23,634.29" fill="none" stroke="#bcbcbc" stroke-width="8" stroke-linecap="round" stroke-linejoin="round" /><polyline points="379.17,624.71 382.74,620.47 414.76,556.59 416.88,552.40 418.65,548.25 428.99,522.67 432.07,514.97 440.99,487.99 446.77,453.30 447.45,448.26" fill="none" stroke="#bcbcbc" stroke-width="8" stroke-linecap="round" stroke-linejoin="round" /><polyline points="354.46,248.98 353.90,249.56 353.13,252.25 353.05,252.51 349.58,265.89 350.49,269.39 349.73,272.52 348.74,276.62 346.20,279.56 343.31,291.25 339.91,293.82 336.28,296.31 334.66,297.42" fill="none" stroke="#bcbcbc" stroke-width="8" stroke-linecap="round" stroke-linejoin="round" /><polyline points="218.34,311.34 219.82,307.56 228.70,284.79 230.64,279.82 232.23,275.73 243.58,246.65 248.69,234.49 249.23,233.19 253.20,223.59 262.11,201.47 265.38,192.05 266.10,189.89 267.08,187.44" fill="none" stroke="#bcbcbc" stroke-width="8" stroke-linecap="round" stroke-linejoin="round" /><polyline points="317.74,173.31 319.46,178.42 375.83,226.57 406.59,253.34 452.54,293.28 456.55,296.49 458.35,297.61 466.32,304.85 476.97,313.93 501.12,334.52 508.92,341.23 514.10,347.42" fill="none" stroke="#bcbcbc" stroke-width="8" stroke-linecap="round" stroke-linejoin="round" /><polyline points="410.95,90.33 413.81,88.50 430.75,81.46 434.23,77.80" fill="none" stroke="#bcbcbc" stroke-width="8" stroke-linecap="round" stroke-linejoin="round" /><polyline points="430.51,518.86 407.13,511.97 364.79,499.52" fill="none" stroke="#bcbcbc" stroke-width="8" stroke-linecap="round" stroke-linejoin="round" /><polyline points="355.02,21.41 358.22,23.61 462.31,46.77" fill="none" stroke="#bcbcbc" stroke-width="8" stroke-linecap="round" stroke-linejoin="round" /><polyline points="483.60,364.14 478.22,352.17 466.29,323.70 465.40,321.43 463.35,316.23 455.66,296.65 455.17,295.38" fill="none" stroke="#bcbcbc" stroke-width="8" stroke-linecap="round" stroke-linejoin="round" /><polyline points="323.90,100.49 318.12,98.84 313.87,97.58 305.24,95.02 300.86,93.77 298.34,93.07 295.06,92.13" fill="none" stroke="#bcbcbc" stroke-width="8" stroke-linecap="round" stroke-linejoin="round" /><polyline points="173.21,257.10 172.92,256.14 172.65,255.47 171.46,252.51 166.85,241.76 162.46,230.83 161.51,228.25 160.42,225.28 159.64,222.85 158.35,219.20 158.22,218.82 154.02,208.48 146.32,189.04 144.59,188.06 143.36,184.90 140.90,176.37 136.69,165.79 135.79,163.38" fill="none" stroke="#bcbcbc" stroke-width="8" stroke-linecap="round" stroke-linejoin="round" /><polyline points="210.22,643.99 214.59,645.33 228.74,649.64 233.17,650.99" fill="none" stroke="#bcbcbc" stroke-width="8" stroke-linecap="round" stroke-linejoin="round" /><polyline points="474.51,95.42 475.34,92.09 475.00,90.82 474.60,89.29 472.01,79.83 466.25,59.81 463.21,49.58 462.31,46.77 454.28,17.89 449.94,2.32 445.44,-9.66 441.38,-20.46 437.33,-27.89 433.40,-31.82 403.21,-68.71 400.98,-71.33 399.50,-73.76" fill="none" stroke="#bcbcbc" stroke-width="8" stroke-linecap="round" stroke-linejoin="round" /><polyline points="351.13,164.08 349.57,164.67 346.70,165.46 346.41,165.54 334.39,168.62 320.56,172.51 317.74,173.31 316.48,173.71 313.16,174.77 310.32,175.56 297.93,179.01 277.54,184.80 269.94,186.72 267.08,187.44 253.49,190.78 245.10,193.11 227.33,198.08 209.76,203.03 207.73,203.59 193.04,207.67 186.27,209.55 182.85,211.16 176.38,214.37 163.52,220.90 162.63,221.35 159.64,222.85 157.82,223.76 155.28,225.09 146.25,229.82 129.79,239.06 116.04,246.26 114.08,247.29 111.45,247.46 109.87,248.29 109.56,248.46 94.64,256.63 91.52,256.62 87.93,258.50 86.68,259.15 85.62,259.70 83.13,261.01 81.17,265.49 72.73,270.01 70.04,271.45 67.14,273.03 55.39,279.42 49.32,282.72 46.26,283.60" fill="none" stroke="#bcbcbc" stroke-width="8" stroke-linecap="round" stroke-linejoin="round" /><polyline points="520.16,440.14 513.89,440.71 494.31,442.50 493.43,442.59 492.18,442.70 490.16,442.89 471.18,444.63 464.58,444.02 456.89,445.94 450.73,447.45 447.45,448.26 439.30,448.56 432.25,448.21 428.65,447.82 425.59,446.90 423.34,445.65 414.95,439.72 394.55,425.71 392.63,424.41 390.67,423.08 389.21,421.66" fill="none" stroke="#bcbcbc" stroke-width="8" stroke-linecap="round" stroke-linejoin="round" /><polyline points="58.27,203.66 65.67,218.15 66.79,222.29 73.02,234.18 75.60,237.59 86.01,257.86 86.68,259.15" fill="none" stroke="#bcbcbc" stroke-width="8" stroke-linecap="round" stroke-linejoin="round" /><polyline points="285.04,332.49 283.93,335.54 283.62,336.49 282.17,340.87 273.02,366.41 268.47,379.09 268.32,379.53 266.49,383.47 265.45,385.81" fill="none" stroke="#bcbcbc" stroke-width="8" stroke-linecap="round" stroke-linejoin="round" /><polyline points="406.49,108.34 405.47,106.17 402.81,105.82 394.18,107.80 392.42,107.57 391.05,105.73 388.61,94.50 401.83,92.45 407.96,90.64 410.95,90.33 414.17,101.80" fill="none" stroke="#bcbcbc" stroke-width="8" stroke-linecap="round" stroke-linejoin="round" /><polyline points="454.29,232.50 457.69,230.59 474.81,220.28 479.38,217.55 487.38,212.78 500.55,204.26 503.62,202.06 526.72,187.73" fill="none" stroke="#bcbcbc" stroke-width="8" stroke-linecap="round" stroke-linejoin="round" /><polyline points="535.03,300.18 529.19,298.44 525.79,295.66 512.82,284.43 512.38,284.04 509.24,281.24 507.40,277.97 474.81,220.28" fill="none" stroke="#bcbcbc" stroke-width="8" stroke-linecap="round" stroke-linejoin="round" /><polyline points="317.56,43.14 339.72,22.79 343.47,19.34" fill="none" stroke="#bcbcbc" stroke-width="8" stroke-linecap="round" stroke-linejoin="round" /><polyline points="-53.38,371.58 27.91,380.29" fill="none" stroke="#bcbcbc" stroke-width="8" stroke-linecap="round" stroke-linejoin="round" /><polyline points="191.83,144.70 208.91,138.59 226.54,132.22 237.48,127.97 270.91,115.81 280.62,112.45 282.64,111.75 285.07,110.92 287.80,109.98 288.13,109.86 293.64,107.65 296.04,106.69" fill="none" stroke="#bcbcbc" stroke-width="8" stroke-linecap="round" stroke-linejoin="round" /><polyline points="306.57,558.11 322.66,577.95 332.50,587.87 336.77,590.94 342.80,595.99 348.47,600.75 353.34,605.50 353.46,607.92" fill="none" stroke="#bcbcbc" stroke-width="8" stroke-linecap="round" stroke-linejoin="round" /><polyline points="323.90,100.49 330.20,84.69 340.41,58.68 355.02,21.41 362.25,3.75 373.01,-22.57 381.83,-44.14 383.41,-47.00 391.18,-59.69 391.68,-60.51 394.52,-66.09 399.50,-73.76 402.28,-78.04 406.21,-84.10" fill="none" stroke="#bcbcbc" stroke-width="8" stroke-linecap="round" stroke-linejoin="round" /><polyline points="175.19,522.93 174.16,523.75 173.48,524.73 172.09,528.83 171.12,531.79 166.68,545.07 166.07,546.99 165.69,548.18 161.62,547.01 151.69,543.68 141.85,540.38 134.25,539.95" fill="none" stroke="#bcbcbc" stroke-width="8" stroke-linecap="round" stroke-linejoin="round" /><polyline points="-19.18,615.33 -2.97,573.48 -1.17,568.92 0.45,564.53 2.41,559.23 4.80,550.89 7.30,540.52 8.33,533.09 9.07,527.69 10.12,523.71 13.93,493.78 18.39,456.01 20.70,438.00 23.27,416.85 27.91,380.29 28.64,374.07 33.33,335.83 33.33,333.70 34.37,322.36 37.36,298.39 38.11,294.21 38.89,291.87 40.11,289.28 41.30,287.28 43.92,284.44 46.27,283.63" fill="none" stroke="#bcbcbc" stroke-width="8" stroke-linecap="round" stroke-linejoin="round" /><polyline points="334.66,297.42 335.55,298.82 338.52,303.46 342.97,310.60 344.05,312.30 345.82,310.95 354.43,304.42" fill="none" stroke="#bcbcbc" stroke-width="8" stroke-linecap="round" stroke-linejoin="round" /><polyline points="340.41,58.68 427.98,74.51 437.18,79.35 471.49,96.36 474.51,95.42" fill="none" stroke="#bcbcbc" stroke-width="8" stroke-linecap="round" stroke-linejoin="round" /><polyline points="173.21,257.10 171.66,259.37 157.69,266.19 147.43,279.23 136.35,286.08 128.78,291.80 121.56,297.70 117.85,301.07 111.31,309.37 103.99,319.86 102.79,321.80" fill="none" stroke="#bcbcbc" stroke-width="8" stroke-linecap="round" stroke-linejoin="round" /><polyline points="187.98,266.46 187.38,267.80 186.05,269.74 183.55,272.82 168.79,291.46 160.98,312.49 121.57,297.68" fill="none" stroke="#bcbcbc" stroke-width="8" stroke-linecap="round" stroke-linejoin="round" /><polyline points="128.78,291.80 127.25,287.18 120.66,267.22 118.10,263.27 113.81,250.41 113.44,249.30 114.08,247.29 113.05,244.01 92.44,178.22" fill="none" stroke="#bcbcbc" stroke-width="8" stroke-linecap="round" stroke-linejoin="round" /><polyline points="370.24,-67.21 386.53,-66.78 387.29,-66.76 390.41,-66.67 394.52,-66.09" fill="none" stroke="#bcbcbc" stroke-width="8" stroke-linecap="round" stroke-linejoin="round" /><polyline points="286.47,463.31 280.91,463.25 233.83,469.57 230.43,469.92 226.55,470.33 204.02,472.71 173.66,475.92 157.57,477.62 148.67,478.55 141.44,479.43 137.73,479.89 133.55,480.39 113.35,482.85 108.51,483.44 93.60,485.07 13.93,493.78" fill="none" stroke="#bcbcbc" stroke-width="8" stroke-linecap="round" stroke-linejoin="round" /><polyline points="216.76,626.80 212.59,625.46 193.11,619.19 189.17,617.92 185.75,616.82 165.11,610.18 161.04,608.88 155.65,607.14 122.80,596.57 119.10,595.38" fill="none" stroke="#bcbcbc" stroke-width="8" stroke-linecap="round" stroke-linejoin="round" /><polyline points="298.23,232.34 309.56,235.87 351.00,248.67 351.39,248.79 354.46,248.98" fill="none" stroke="#bcbcbc" stroke-width="8" stroke-linecap="round" stroke-linejoin="round" /><polyline points="414.83,139.01 471.21,140.01" fill="none" stroke="#bcbcbc" stroke-width="8" stroke-linecap="round" stroke-linejoin="round" /><polyline points="387.23,634.29 379.17,624.71 375.79,620.78 372.88,618.07 369.02,615.18 361.11,610.43 353.46,607.92 337.89,603.11 325.16,599.07 332.50,587.87" fill="none" stroke="#bcbcbc" stroke-width="8" stroke-linecap="round" stroke-linejoin="round" /><polyline points="306.57,558.11 295.35,544.26 293.22,541.63 281.91,526.06 279.36,521.30 279.97,515.64 283.38,515.61 291.78,517.23 304.58,519.69" fill="none" stroke="#bcbcbc" stroke-width="8" stroke-linecap="round" stroke-linejoin="round" /><polyline points="159.78,447.14 161.85,451.59 173.66,475.92 191.24,512.09 193.48,516.71" fill="none" stroke="#bcbcbc" stroke-width="8" stroke-linecap="round" stroke-linejoin="round" /><polyline points="-29.51,557.33 -25.28,559.06 -5.49,567.15 -1.17,568.92 3.38,570.78 26.69,580.31 30.91,582.03" fill="none" stroke="#bcbcbc" stroke-width="8" stroke-linecap="round" stroke-linejoin="round" /><polyline points="169.50,411.07 210.75,429.11" fill="none" stroke="#bcbcbc" stroke-width="8" stroke-linecap="round" stroke-linejoin="round" /><polyline points="354.46,248.98 360.74,249.31 361.14,249.67 363.96,252.17 368.11,255.87 368.87,257.36 383.15,269.86 384.21,271.86 394.25,280.72 396.77,281.49 404.58,288.33 406.33,289.13 418.11,299.12 420.74,301.45 422.18,303.75" fill="none" stroke="#bcbcbc" stroke-width="8" stroke-linecap="round" stroke-linejoin="round" /><polyline points="-41.15,411.11 23.27,416.85" fill="none" stroke="#bcbcbc" stroke-width="8" stroke-linecap="round" stroke-linejoin="round" /><polyline points="102.69,650.99 104.68,646.74 105.20,644.85 107.99,634.53 118.13,598.80 119.10,595.38 120.12,591.63 124.71,574.84 132.47,546.49 134.25,539.95" fill="none" stroke="#bcbcbc" stroke-width="8" stroke-linecap="round" stroke-linejoin="round" /><polyline points="159.78,447.14 169.50,411.07 148.88,403.85 143.48,407.04 141.02,408.91 139.20,411.38 137.91,414.63 133.17,432.16 137.00,434.11 140.86,435.05 149.41,437.27 155.81,439.31 159.78,447.14" fill="none" stroke="#bcbcbc" stroke-width="8" stroke-linecap="round" stroke-linejoin="round" /><polyline points="133.17,432.16 128.65,431.53 23.27,416.85" fill="none" stroke="#bcbcbc" stroke-width="8" stroke-linecap="round" stroke-linejoin="round" /><polyline points="304.58,519.69 314.35,521.82 340.79,530.23 348.18,532.56 365.72,537.63 383.40,542.73 396.48,546.51 417.41,552.55 421.73,553.80 432.29,557.34 449.68,561.97 451.21,562.26" fill="none" stroke="#bcbcbc" stroke-width="8" stroke-linecap="round" stroke-linejoin="round" /><polyline points="316.98,672.41 313.41,673.30 309.55,684.05 303.57,682.35 276.38,673.09 273.11,672.39 265.83,671.87 232.90,672.00 225.64,671.07 209.25,668.57 202.64,667.49 155.74,659.93 137.58,657.03 102.94,651.03 97.35,649.93 19.19,628.08 14.26,626.70 -19.18,615.33 -27.40,612.42 -47.95,603.90 -59.66,599.47" fill="none" stroke="#bcbcbc" stroke-width="8" stroke-linecap="round" stroke-linejoin="round" /><polyline points="388.61,94.50 385.22,93.80 340.05,99.14 323.90,100.49" fill="none" stroke="#bcbcbc" stroke-width="8" stroke-linecap="round" stroke-linejoin="round" /><polyline points="304.58,519.69 306.16,517.04 315.64,492.69 326.23,455.88 328.93,447.95 330.38,445.79 340.60,412.97 341.11,409.05 341.50,406.49" fill="none" stroke="#bcbcbc" stroke-width="8" stroke-linecap="round" stroke-linejoin="round" /><polyline points="351.13,164.08 352.21,163.66 353.67,162.50 355.90,159.90 384.74,118.51 392.42,107.57" fill="none" stroke="#bcbcbc" stroke-width="8" stroke-linecap="round" stroke-linejoin="round" /><polyline points="479.51,316.11 480.10,314.41 494.60,297.35 495.66,296.79 498.18,293.34 506.62,283.65 509.24,281.24" fill="none" stroke="#bcbcbc" stroke-width="8" stroke-linecap="round" stroke-linejoin="round" /><polyline points="492.18,442.70 491.98,440.42 491.83,438.65 491.06,435.28 490.15,433.07 489.01,427.29 488.91,425.19 488.13,420.51 484.68,418.71 481.92,419.76 476.99,420.94 473.08,421.55 469.33,422.46 464.16,423.64 461.80,424.18" fill="none" stroke="#bcbcbc" stroke-width="8" stroke-linecap="round" stroke-linejoin="round" /><polyline points="111.24,358.93 121.79,334.21 122.37,332.60" fill="none" stroke="#bcbcbc" stroke-width="8" stroke-linecap="round" stroke-linejoin="round" /><polyline points="389.15,313.60 394.23,311.63 396.89,310.60 398.94,308.52 407.41,306.43 410.26,307.16 416.39,305.58 421.07,304.37 422.18,303.75 426.72,302.64 449.92,296.95 455.17,295.38" fill="none" stroke="#bcbcbc" stroke-width="8" stroke-linecap="round" stroke-linejoin="round" /><polyline points="175.19,522.93 186.13,518.95 189.79,517.83 193.48,516.71 200.28,514.63 205.57,513.87 223.64,511.89 227.27,511.69 243.43,511.83 253.28,511.92 256.98,511.73 262.91,512.33 264.77,512.59 268.55,513.13 279.97,515.64" fill="none" stroke="#bcbcbc" stroke-width="8" stroke-linecap="round" stroke-linejoin="round" /><polyline points="227.33,198.08 225.51,191.95 218.78,169.19 210.60,143.23 208.91,138.59 207.20,134.25 205.03,127.99" fill="none" stroke="#bcbcbc" stroke-width="8" stroke-linecap="round" stroke-linejoin="round" /><polyline points="207.74,565.12 209.18,560.58 223.73,514.71 223.64,511.89" fill="none" stroke="#bcbcbc" stroke-width="8" stroke-linecap="round" stroke-linejoin="round" /><polyline points="227.27,511.69 230.15,473.07 230.43,469.92 230.87,466.26 230.88,466.09 231.07,461.62 232.03,449.46 232.57,443.80 233.31,437.36 233.99,432.73 234.60,429.82 235.36,427.63 236.85,422.67 239.94,412.36 243.87,399.05 248.20,385.44 249.09,382.66 249.80,380.65" fill="none" stroke="#bcbcbc" stroke-width="8" stroke-linecap="round" stroke-linejoin="round" /><polyline points="133.17,432.16 132.41,435.58 132.54,436.68 137.23,475.75 137.73,479.89 137.51,484.14 136.28,508.44 135.77,518.59 135.50,523.83 135.03,533.16 134.79,538.02 134.25,539.95" fill="none" stroke="#bcbcbc" stroke-width="8" stroke-linecap="round" stroke-linejoin="round" /><polyline points="111.24,358.93 94.18,353.85 92.01,352.46 81.39,349.37 78.41,349.40 65.07,345.38 62.91,343.79 50.77,340.11 35.87,336.05 35.80,336.04 33.33,335.83" fill="none" stroke="#bcbcbc" stroke-width="8" stroke-linecap="round" stroke-linejoin="round" /><polyline points="422.18,303.75 422.78,304.53 425.25,308.21 429.82,315.03 434.13,319.34 442.41,328.64 441.01,337.22 440.30,340.44 439.31,341.80 441.38,344.87 444.59,351.48 451.01,363.86 454.17,369.95 456.13,375.43 457.02,377.97" fill="none" stroke="#bcbcbc" stroke-width="8" stroke-linecap="round" stroke-linejoin="round" /><polyline points="465.40,321.43 463.02,322.17 447.35,327.05 445.10,327.77 442.41,328.64" fill="none" stroke="#bcbcbc" stroke-width="8" stroke-linecap="round" stroke-linejoin="round" /><polyline points="352.80,351.11 357.70,349.53 393.26,331.36 398.03,329.04 414.79,324.20 431.04,319.63 434.13,319.34" fill="none" stroke="#bcbcbc" stroke-width="8" stroke-linecap="round" stroke-linejoin="round" /><polyline points="356.68,373.60 397.68,354.52 399.40,353.37 403.41,352.21 430.73,344.26 434.88,342.67 439.31,341.80" fill="none" stroke="#bcbcbc" stroke-width="8" stroke-linecap="round" stroke-linejoin="round" /><polyline points="348.31,-26.41 364.91,-24.36 366.57,-24.15 373.01,-22.57" fill="none" stroke="#bcbcbc" stroke-width="8" stroke-linecap="round" stroke-linejoin="round" /><polyline points="490.14,142.33 493.09,141.72 504.09,147.11 505.53,148.54 526.18,183.49 526.72,187.73 529.41,189.96 528.98,191.51 528.92,194.03 529.29,197.55 534.76,220.02 535.24,235.59 536.01,260.44 537.29,293.89 532.05,308.46 528.68,317.35 523.76,329.87 522.33,333.49 521.41,334.50 519.92,344.19" fill="none" stroke="#bcbcbc" stroke-width="8" stroke-linecap="round" stroke-linejoin="round" /><polyline points="528.31,403.22 523.29,401.04 510.74,392.28 494.19,380.65 485.09,373.29 478.94,366.71" fill="none" stroke="#bcbcbc" stroke-width="8" stroke-linecap="round" stroke-linejoin="round" /><polyline points="325.16,599.07 320.23,597.51 312.23,594.97 308.41,593.76 303.93,592.34 298.26,590.54 293.14,588.92 288.07,587.31 265.48,580.14 261.53,578.89 256.62,577.33 255.53,576.99 242.61,573.58 238.97,572.69 234.39,571.59 229.61,570.43 212.37,566.25 207.74,565.12 202.77,563.40 192.39,559.79 188.48,558.44 184.98,557.30 168.72,551.52 166.68,550.30 165.69,548.18" fill="none" stroke="#bcbcbc" stroke-width="8" stroke-linecap="round" stroke-linejoin="round" /><polyline points="399.40,353.37 398.21,349.08 394.64,336.29 393.26,331.36 391.28,327.69 391.10,327.00 389.93,322.67 391.29,320.75 389.65,315.29 389.15,313.60" fill="none" stroke="#bcbcbc" stroke-width="8" stroke-linecap="round" stroke-linejoin="round" /><polyline points="393.44,196.79 396.83,195.19 415.36,184.97 425.96,178.16 433.43,173.06 435.08,171.83 441.10,167.65 447.33,163.05 451.28,160.18 455.98,156.74 472.33,149.36 474.45,149.47 477.55,148.00 490.14,142.33" fill="none" stroke="#bcbcbc" stroke-width="8" stroke-linecap="round" stroke-linejoin="round" /><polyline points="187.98,266.46 190.66,267.54 192.43,268.08 225.57,278.27 230.64,279.82" fill="none" stroke="#bcbcbc" stroke-width="8" stroke-linecap="round" stroke-linejoin="round" /><polyline points="-48.78,341.00 -72.47,333.83" fill="none" stroke="#bcbcbc" stroke-width="8" stroke-linecap="round" stroke-linejoin="round" /><polyline points="333.75,7.04 339.62,14.48 340.50,15.59 343.47,19.34 346.84,19.74 353.79,20.55 355.02,21.41" fill="none" stroke="#bcbcbc" stroke-width="8" stroke-linecap="round" stroke-linejoin="round" /><polyline points="537.65,337.88 528.34,339.61 518.80,344.80 509.96,349.72 501.60,353.90 491.49,359.39 484.17,363.84 469.71,371.59 413.25,399.99 398.61,406.44 388.94,410.62 384.15,412.19 380.18,412.93 373.69,413.33 364.46,412.02 341.41,406.49 308.70,398.86 265.65,385.88 249.80,380.65 223.83,372.64 199.00,364.45 162.58,350.16 144.37,342.31 122.42,332.56 86.00,312.60 77.46,306.94 55.85,293.35 46.79,284.29 33.20,266.69 10.81,243.60 2.01,235.85" fill="none" stroke="#bcbcbc" stroke-width="8" stroke-linecap="round" stroke-linejoin="round" /><polyline points="361.11,610.43 361.49,608.31 362.87,604.83 375.78,574.61 380.66,563.28 386.41,549.17 387.81,544.00" fill="none" stroke="#bcbcbc" stroke-width="8" stroke-linecap="round" stroke-linejoin="round" /><polyline points="113.35,482.85 98.68,475.75 65.30,459.59 24.35,439.77 20.70,438.00" fill="none" stroke="#bcbcbc" stroke-width="8" stroke-linecap="round" stroke-linejoin="round" /><polyline points="354.46,248.98 358.16,245.19 368.01,235.11 375.83,226.57" fill="none" stroke="#bcbcbc" stroke-width="8" stroke-linecap="round" stroke-linejoin="round" /><polyline points="70.04,271.45 65.97,266.06 46.90,240.81 19.68,218.78" fill="none" stroke="#bcbcbc" stroke-width="8" stroke-linecap="round" stroke-linejoin="round" /><polyline points="-48.10,603.84 -44.37,595.01 -32.54,565.50 -31.10,561.63 -29.51,557.33 -28.91,555.78 -28.75,553.35 -27.23,530.41 -26.80,523.83" fill="none" stroke="#bcbcbc" stroke-width="8" stroke-linecap="round" stroke-linejoin="round" /><polyline points="-56.17,366.63 -48.78,341.00 -39.03,307.20 -37.83,303.01 -36.49,298.26 -33.48,287.61 -33.17,286.50 -32.31,283.07 -30.93,279.21 -30.60,278.27 -28.87,273.97 -25.47,266.47 -24.45,264.31" fill="none" stroke="#bcbcbc" stroke-width="8" stroke-linecap="round" stroke-linejoin="round" /><polyline points="-37.83,303.01 -22.88,306.83 8.80,314.98 26.84,320.59 34.37,322.36" fill="none" stroke="#bcbcbc" stroke-width="8" stroke-linecap="round" stroke-linejoin="round" /><polyline points="269.94,186.72 270.45,183.61 270.96,180.38 273.15,169.58 278.63,144.42 283.13,121.92 283.96,117.25 285.07,110.92 285.07,110.91" fill="none" stroke="#bcbcbc" stroke-width="8" stroke-linecap="round" stroke-linejoin="round" /><polyline points="225.67,671.08 232.35,654.05 233.17,650.99 259.67,583.74 261.53,578.89 263.04,574.77 278.87,528.72 281.91,526.06" fill="none" stroke="#bcbcbc" stroke-width="8" stroke-linecap="round" stroke-linejoin="round" /><polyline points="316.48,173.71 316.48,173.70 315.54,168.77 315.40,168.18 313.11,158.87 313.11,158.84 311.55,152.53 304.94,129.87 304.10,127.44 299.64,115.31 298.19,111.68 297.25,109.35 296.04,106.69 296.04,106.69 296.03,106.68 295.15,96.92 295.06,92.13" fill="none" stroke="#bcbcbc" stroke-width="8" stroke-linecap="round" stroke-linejoin="round" /><polyline points="306.57,558.11 304.87,559.95 302.34,562.96 295.20,583.09 293.14,588.92" fill="none" stroke="#bcbcbc" stroke-width="8" stroke-linecap="round" stroke-linejoin="round" /><polyline points="187.98,266.46 188.96,263.81 189.18,263.20 193.81,250.25 195.55,244.80 209.76,203.03" fill="none" stroke="#bcbcbc" stroke-width="8" stroke-linecap="round" stroke-linejoin="round" /><polyline points="261.47,325.02 262.92,321.17 266.84,310.74 268.50,306.33 269.63,303.35 272.78,294.98 274.86,289.45 275.14,288.71 280.18,275.32 282.29,275.97 283.43,272.86 285.45,267.36 285.06,264.86 290.43,250.26 290.98,248.77 291.99,247.83 292.85,247.05 298.23,232.34 299.00,228.32 306.72,206.88 308.54,205.45 312.26,194.95 311.60,193.34 314.85,183.53 313.16,174.77" fill="none" stroke="#bcbcbc" stroke-width="8" stroke-linecap="round" stroke-linejoin="round" /><polyline points="399.50,-73.76 397.33,-77.31 385.97,-95.95" fill="none" stroke="#bcbcbc" stroke-width="8" stroke-linecap="round" stroke-linejoin="round" /><polyline points="435.08,171.83 487.22,205.36 487.24,205.38 487.24,205.39 496.88,206.64" fill="none" stroke="#bcbcbc" stroke-width="8" stroke-linecap="round" stroke-linejoin="round" /><polyline points="414.17,101.80 469.65,129.64 471.32,130.89 471.21,140.01 472.33,149.36" fill="none" stroke="#bcbcbc" stroke-width="8" stroke-linecap="round" stroke-linejoin="round" /><polyline points="308.41,593.76 306.42,599.85 298.34,624.50 284.59,666.01 283.61,668.96 282.62,671.94 282.35,675.12" fill="none" stroke="#bcbcbc" stroke-width="8" stroke-linecap="round" stroke-linejoin="round" /><polyline points="464.58,444.02 464.91,440.92 464.98,438.04 464.96,437.94 462.99,429.44 462.19,425.89 461.80,424.18 461.40,422.43 459.24,412.92 455.03,393.92 451.96,382.50 451.53,380.74" fill="none" stroke="#bcbcbc" stroke-width="8" stroke-linecap="round" stroke-linejoin="round" /><polyline points="189.17,617.92 190.54,614.01 205.99,570.11 207.74,565.12" fill="none" stroke="#bcbcbc" stroke-width="8" stroke-linecap="round" stroke-linejoin="round" /><polyline points="536.01,260.44 531.46,259.15 500.60,211.80 496.88,206.64" fill="none" stroke="#bcbcbc" stroke-width="8" stroke-linecap="round" stroke-linejoin="round" /><polyline points="28.64,374.07 141.12,401.02 148.88,403.85" fill="none" stroke="#bcbcbc" stroke-width="8" stroke-linecap="round" stroke-linejoin="round" /><polyline points="383.41,-47.00 427.23,-30.77 433.40,-31.82" fill="none" stroke="#bcbcbc" stroke-width="8" stroke-linecap="round" stroke-linejoin="round" />
    <polyline points="167.20,295.61 218.34,311.34 222.51,312.67 260.67,324.76 261.47,325.02 267.19,326.83 270.00,327.72 273.65,328.72 281.18,331.27 285.04,332.49 288.50,333.59 316.90,342.60 346.88,352.02 349.36,352.80 352.80,351.11" fill="none" stroke="#ffffff" stroke-width="16" stroke-linecap="round" stroke-linejoin="round" />
    <polyline points="167.20,295.61 218.34,311.34 222.51,312.67 260.67,324.76 261.47,325.02 267.19,326.83 270.00,327.72 273.65,328.72 281.18,331.27 285.04,332.49 288.50,333.59 316.90,342.60 346.88,352.02 349.36,352.80 352.80,351.11" fill="none" stroke="#111111" stroke-width="9" stroke-linecap="round" stroke-linejoin="round" />
    
            <g transform="translate(167.20,295.61)">
              <circle r="19" fill="#ffffff" stroke="#111111" stroke-width="4" />
              <text text-anchor="middle" dominant-baseline="central" font-family="Helvetica, Arial, sans-serif"
                font-size="18" font-weight="700" fill="#111111">1</text>
            </g>
            
            <g transform="translate(352.80,351.11)">
              <circle r="19" fill="#ffffff" stroke="#111111" stroke-width="4" />
              <text text-anchor="middle" dominant-baseline="central" font-family="Helvetica, Arial, sans-serif"
                font-size="18" font-weight="700" fill="#111111">2</text>
            </g>
            
  </g>
</svg>
