<svg xmlns="http://www.w3.org/2000/svg" width="520" height="520" viewBox="0 0 520 520">
  <rect width="100%" height="100%" fill="#ffffff" />
  <g>
    <polyline points="1351.15,1026.63 1358.27,1064.50 1404.20,1385.90 1397.18,1466.25" fill="none" stroke="#bcbcbc" stroke-width="8" stroke-linecap="round" stroke-linejoin="round" /><polyline points="417.44,3704.96 428.54,3670.81 487.39,3489.81 494.32,3468.48 501.34,3446.09 649.31,2974.17 661.21,2936.22 633.96,2869.08" fill="none" stroke="#bcbcbc" stroke-width="8" stroke-linecap="round" stroke-linejoin="round" /><polyline points="-604.65,3285.22 -607.04,3258.12 -558.66,2987.14 -551.88,2953.24 -546.81,2935.49 -533.50,2866.77 -518.53,2782.66 -502.23,2708.58 -486.06,2634.67 -475.88,2613.83 -469.22,2601.06" fill="none" stroke="#bcbcbc" stroke-width="8" stroke-linecap="round" stroke-linejoin="round" /><polyline points="-323.86,1373.78 -335.35,1338.71 -454.24,976.09 -460.04,960.88" fill="none" stroke="#bcbcbc" stroke-width="8" stroke-linecap="round" stroke-linejoin="round" /><polyline points="-933.86,4565.24 -930.31,4530.64 -928.87,4514.76 -915.93,4371.59 -901.76,4245.52 -898.45,4216.08 -895.38,4180.76 -895.04,4177.79 -887.00,4107.58 -880.08,4036.21 -872.45,3967.33 -867.31,3913.71 -865.17,3880.62 -863.28,3850.07 -859.90,3815.63" fill="none" stroke="#bcbcbc" stroke-width="8" stroke-linecap="round" stroke-linejoin="round" /><polyline points="708.79,3789.10 717.26,3762.47 776.91,3574.92 783.69,3553.61 793.32,3523.25 800.23,3501.50 853.03,3273.74" fill="none" stroke="#bcbcbc" stroke-width="8" stroke-linecap="round" stroke-linejoin="round" /><polyline points="476.90,79.25 498.93,82.63 1105.99,175.92" fill="none" stroke="#bcbcbc" stroke-width="8" stroke-linecap="round" stroke-linejoin="round" /><polyline points="-1081.54,3744.90 -1144.72,3741.96 -1183.25,3740.17 -1204.18,3739.19 -1222.55,3738.34 -1365.63,3731.68 -1564.65,3722.43 -1659.50,3708.98 -1691.25,3704.47 -1718.80,3699.61 -1905.37,3666.68 -1931.45,3662.07 -1937.23,3661.08 -1969.44,3655.56 -1994.19,3651.32 -2152.29,3637.34 -2182.40,3634.68 -2193.44,3633.70 -2227.62,3631.33 -2294.55,3626.69" fill="none" stroke="#bcbcbc" stroke-width="8" stroke-linecap="round" stroke-linejoin="round" /><polyline points="-163.57,3561.56 -151.32,3526.72 -41.04,3220.97 91.63,2835.31 100.13,2811.12 106.06,2794.22 110.86,2780.35" fill="none" stroke="#bcbcbc" stroke-width="8" stroke-linecap="round" stroke-linejoin="round" /><polyline points="-2193.44,3633.70 -2196.26,3614.04 -2196.93,3592.69 -2192.74,3549.69 -2183.14,3471.18 -2176.73,3444.83 -2166.34,3349.56 -2164.44,3328.34 -2161.40,3301.06 -2159.14,3280.80 -2154.88,3257.83 -2146.98,3196.04 -2141.49,3148.76 -2133.43,3129.43" fill="none" stroke="#bcbcbc" stroke-width="8" stroke-linecap="round" stroke-linejoin="round" /><polyline points="-2306.32,3105.27 -2159.22,3125.82 -2133.43,3129.43 -2117.46,3131.97 -2051.52,3142.48 -1899.59,3166.69 -1873.52,3171.04" fill="none" stroke="#bcbcbc" stroke-width="8" stroke-linecap="round" stroke-linejoin="round" /><polyline points="400.93,1175.26 401.88,1188.64 403.86,1202.18 408.64,1212.55 417.58,1224.11 434.13,1239.18 473.33,1263.03 775.79,1452.80 962.06,1702.58 1102.76,2049.86 1111.94,2072.80" fill="none" stroke="#bcbcbc" stroke-width="8" stroke-linecap="round" stroke-linejoin="round" /><polyline points="352.50,2188.57 358.76,2198.95 360.39,2201.64 365.58,2227.84 401.07,2399.45 412.33,2453.93 420.39,2492.72 432.96,2571.35 438.82,2607.62 442.87,2629.75 447.30,2649.73 452.60,2661.39 460.36,2674.88 464.52,2681.25 543.11,2793.77 585.61,2860.72 596.70,2876.72" fill="none" stroke="#bcbcbc" stroke-width="8" stroke-linecap="round" stroke-linejoin="round" /><polyline points="-1903.57,4337.41 -1899.39,4311.65 -1895.50,4293.03 -1894.47,4290.56 -1842.16,4166.17 -1808.83,4085.33 -1798.70,4059.72 -1787.97,4032.58 -1776.32,4009.26 -1774.44,4004.70 -1758.49,3966.15 -1746.16,3932.03 -1735.58,3900.73 -1728.87,3878.61 -1721.34,3851.28 -1712.67,3814.63 -1706.08,3784.90 -1698.20,3743.40 -1696.55,3734.15 -1691.25,3704.47" fill="none" stroke="#bcbcbc" stroke-width="8" stroke-linecap="round" stroke-linejoin="round" /><polyline points="630.67,863.79 797.45,980.35 819.92,985.12 836.37,1003.94" fill="none" stroke="#bcbcbc" stroke-width="8" stroke-linecap="round" stroke-linejoin="round" /><polyline points="-69.65,1940.23 -47.61,1948.71 48.09,1980.02 270.07,2065.16 282.52,2077.58 288.37,2086.85" fill="none" stroke="#bcbcbc" stroke-width="8" stroke-linecap="round" stroke-linejoin="round" /><polyline points="343.99,4128.01 359.11,4088.61 433.74,3886.12 486.50,3733.13 497.44,3728.09" fill="none" stroke="#bcbcbc" stroke-width="8" stroke-linecap="round" stroke-linejoin="round" /><polyline points="-710.88,3871.25 -699.10,3845.22 -697.94,3842.64 -677.79,3775.05 -644.78,3663.79 -636.33,3635.32 -629.77,3613.20 -628.88,3600.32 -630.22,3571.79" fill="none" stroke="#bcbcbc" stroke-width="8" stroke-linecap="round" stroke-linejoin="round" /><polyline points="660.78,2197.46 641.85,2201.36 598.98,2193.73 592.34,2176.05 518.05,2147.72 500.49,2152.31 433.46,2127.70 423.47,2134.68" fill="none" stroke="#bcbcbc" stroke-width="8" stroke-linecap="round" stroke-linejoin="round" /><polyline points="550.47,-100.72 584.13,-92.47 602.76,-89.24 1045.59,-12.45" fill="none" stroke="#bcbcbc" stroke-width="8" stroke-linecap="round" stroke-linejoin="round" /><polyline points="206.29,4004.70 224.71,3952.76 260.51,3851.81 283.64,3808.81 316.93,3715.60 330.22,3678.40" fill="none" stroke="#bcbcbc" stroke-width="8" stroke-linecap="round" stroke-linejoin="round" /><polyline points="-2220.05,1988.79 -2252.12,1987.32 -2260.16,1997.08 -2316.04,2064.98 -2511.37,2290.64 -2538.84,2322.37" fill="none" stroke="#bcbcbc" stroke-width="8" stroke-linecap="round" stroke-linejoin="round" /><polyline points="-506.78,2182.05 -520.93,2213.40 -522.65,2217.20 -571.84,2345.49 -621.42,2486.71 -634.64,2524.38 -642.14,2543.82" fill="none" stroke="#bcbcbc" stroke-width="8" stroke-linecap="round" stroke-linejoin="round" /><polyline points="214.78,740.56 230.41,761.77 241.57,790.93 258.93,832.78 286.80,898.60 311.48,957.69 339.81,1022.58 360.83,1072.57 363.94,1079.76 364.13,1080.20 381.05,1119.75 386.10,1130.99 390.91,1141.69 395.99,1151.71 399.82,1161.90 400.93,1175.27" fill="none" stroke="#bcbcbc" stroke-width="8" stroke-linecap="round" stroke-linejoin="round" /><polyline points="-981.56,2814.46 -973.38,2809.99 -961.94,2800.89 -956.21,2789.10 -880.21,2500.89 -877.92,2484.63 -868.65,2454.94" fill="none" stroke="#bcbcbc" stroke-width="8" stroke-linecap="round" stroke-linejoin="round" /><polyline points="1675.87,2363.45 1686.65,2397.67 1694.24,2433.62 1679.47,2570.60 1662.39,2673.64 1653.07,2708.79 1652.22,2711.98 1644.06,2730.95 1632.92,2751.06 1606.92,2783.95 1619.51,2848.26 1578.78,2986.29 1556.29,3062.52 1510.28,3187.29 1442.91,3339.22 1360.64,3484.81 1334.95,3532.13 1288.49,3609.87 1102.91,3873.30 1062.25,3928.10 904.79,4133.89 814.39,4236.75 687.94,4365.28 676.24,4366.49 647.68,4389.84" fill="none" stroke="#bcbcbc" stroke-width="8" stroke-linecap="round" stroke-linejoin="round" /><polyline points="-614.11,4616.82 -562.30,4456.13 -553.83,4429.59 -542.31,4412.88 -517.57,4338.61 -509.52,4313.38 -407.31,3993.35 -397.03,3961.16 -388.56,3932.88 -267.95,3553.24" fill="none" stroke="#bcbcbc" stroke-width="8" stroke-linecap="round" stroke-linejoin="round" /><polyline points="599.50,1628.40 644.29,1579.46 657.50,1563.54 747.99,1435.35" fill="none" stroke="#bcbcbc" stroke-width="8" stroke-linecap="round" stroke-linejoin="round" /><polyline points="-295.62,1647.79 -172.29,1690.73 -165.48,1701.80 -130.46,1713.55 -109.67,1720.65 -10.27,1754.24" fill="none" stroke="#bcbcbc" stroke-width="8" stroke-linecap="round" stroke-linejoin="round" /><polyline points="779.33,794.24 836.37,1003.94 902.41,1250.96 912.42,1271.55 914.01,1295.06 958.79,1378.67 1079.64,1604.06 1106.05,1643.03 1113.70,1654.45 1294.26,1992.05 1377.24,2067.49 1388.88,2082.52 1405.29,2096.56 1562.85,2231.29 1573.54,2240.43 1601.83,2255.46" fill="none" stroke="#bcbcbc" stroke-width="8" stroke-linecap="round" stroke-linejoin="round" /><polyline points="166.57,4650.93 559.50,4422.65 629.44,4386.88 647.68,4389.84" fill="none" stroke="#bcbcbc" stroke-width="8" stroke-linecap="round" stroke-linejoin="round" /><polyline points="592.59,4324.36 616.98,4295.37 835.85,3858.61 850.34,3829.97 862.45,3801.61 933.15,3626.76 954.20,3574.09 1015.14,3389.65 1054.65,3152.53 1059.33,3118.02" fill="none" stroke="#bcbcbc" stroke-width="8" stroke-linecap="round" stroke-linejoin="round" /><polyline points="423.69,1755.73 419.86,1759.66 414.58,1778.03 414.06,1779.87 390.31,1871.34 396.54,1895.22 391.35,1916.62 384.57,1944.65 367.19,1964.79 347.47,2044.69 324.23,2062.25 299.43,2079.26 288.37,2086.85" fill="none" stroke="#bcbcbc" stroke-width="8" stroke-linecap="round" stroke-linejoin="round" /><polyline points="-506.78,2182.05 -496.68,2156.16 -435.96,2000.49 -422.72,1966.54 -411.80,1938.58 -334.22,1739.78 -299.29,1656.66 -295.62,1647.79 -268.47,1582.15 -207.56,1430.89 -185.26,1366.50 -180.29,1351.74 -173.62,1334.99" fill="none" stroke="#bcbcbc" stroke-width="8" stroke-linecap="round" stroke-linejoin="round" /><polyline points="172.68,1238.37 184.42,1273.32 569.77,1602.52 780.05,1785.48 1094.12,2058.54 1121.53,2080.47 1133.81,2088.15 1188.31,2137.63 1261.09,2199.71 1426.17,2340.49 1479.49,2386.34 1514.87,2428.67" fill="none" stroke="#bcbcbc" stroke-width="8" stroke-linecap="round" stroke-linejoin="round" /><polyline points="809.82,671.13 829.37,658.60 945.15,610.47 968.95,585.44" fill="none" stroke="#bcbcbc" stroke-width="8" stroke-linecap="round" stroke-linejoin="round" /><polyline points="943.55,3600.73 783.69,3553.61 494.32,3468.49" fill="none" stroke="#bcbcbc" stroke-width="8" stroke-linecap="round" stroke-linejoin="round" /><polyline points="427.52,199.94 449.36,215.00 1160.91,373.34" fill="none" stroke="#bcbcbc" stroke-width="8" stroke-linecap="round" stroke-linejoin="round" /><polyline points="1306.45,2542.98 1269.67,2461.14 1188.07,2266.49 1181.98,2251.02 1168.02,2215.48 1115.42,2081.61 1112.10,2072.93" fill="none" stroke="#bcbcbc" stroke-width="8" stroke-linecap="round" stroke-linejoin="round" /><polyline points="214.78,740.57 175.28,729.32 146.25,720.68 87.25,703.15 57.27,694.60 40.10,689.83 17.68,683.41" fill="none" stroke="#bcbcbc" stroke-width="8" stroke-linecap="round" stroke-linejoin="round" /><polyline points="-815.23,1811.22 -817.23,1804.68 -819.07,1800.10 -827.21,1779.87 -858.76,1706.33 -888.73,1631.62 -895.20,1613.98 -902.66,1593.66 -908.00,1577.04 -916.81,1552.12 -917.73,1549.50 -946.41,1478.81 -999.06,1345.94 -1010.89,1339.20 -1019.30,1317.65 -1036.09,1259.30 -1064.86,1186.98 -1071.06,1170.54" fill="none" stroke="#bcbcbc" stroke-width="8" stroke-linecap="round" stroke-linejoin="round" /><polyline points="-562.30,4456.13 -532.41,4465.29 -435.66,4494.77 -405.36,4504.00" fill="none" stroke="#bcbcbc" stroke-width="8" stroke-linecap="round" stroke-linejoin="round" /><polyline points="1244.29,705.93 1249.93,683.13 1247.64,674.47 1244.87,664.03 1227.21,599.31 1187.83,462.50 1167.05,392.56 1160.91,373.34 1105.99,175.92 1076.35,69.44 1045.59,-12.45 1017.81,-86.31 990.14,-137.10 963.26,-163.94 756.91,-416.12 741.64,-434.08 731.53,-450.67" fill="none" stroke="#bcbcbc" stroke-width="8" stroke-linecap="round" stroke-linejoin="round" /><polyline points="400.93,1175.27 390.29,1179.33 370.61,1184.76 368.64,1185.31 286.46,1206.33 191.97,1232.94 172.68,1238.37 164.08,1241.10 141.38,1248.40 121.98,1253.80 37.24,1277.37 -102.11,1316.97 -154.07,1330.10 -173.62,1334.99 -266.49,1357.80 -323.86,1373.78 -445.35,1407.72 -565.43,1441.57 -579.32,1445.43 -679.68,1473.28 -725.97,1486.14 -749.34,1497.18 -793.59,1519.12 -881.48,1563.73 -887.60,1566.83 -908.00,1577.04 -920.44,1583.27 -937.81,1592.38 -999.55,1624.75 -1112.05,1687.88 -1206.02,1737.12 -1219.47,1744.16 -1237.42,1745.28 -1248.21,1751.01 -1250.36,1752.16 -1352.31,1808.03 -1373.66,1807.94 -1398.17,1820.76 -1406.72,1825.24 -1413.94,1829.02 -1430.99,1837.94 -1444.41,1868.57 -1502.11,1899.47 -1520.46,1909.30 -1540.31,1920.11 -1620.59,1963.80 -1662.09,1986.39 -1683.00,1992.41" fill="none" stroke="#bcbcbc" stroke-width="8" stroke-linecap="round" stroke-linejoin="round" /><polyline points="1556.29,3062.52 1513.45,3066.44 1379.64,3078.70 1373.61,3079.26 1365.07,3080.04 1351.26,3081.31 1221.52,3093.22 1176.39,3089.04 1123.84,3102.20 1081.75,3112.53 1059.33,3118.02 1003.63,3120.14 955.41,3117.68 930.83,3115.07 909.91,3108.74 894.51,3100.22 837.14,3059.65 697.74,2963.90 684.60,2954.98 671.22,2945.90 661.21,2936.22" fill="none" stroke="#bcbcbc" stroke-width="8" stroke-linecap="round" stroke-linejoin="round" /><polyline points="-1600.93,1445.90 -1550.35,1544.94 -1542.69,1573.24 -1500.08,1654.55 -1482.49,1677.81 -1411.27,1816.39 -1406.72,1825.24" fill="none" stroke="#bcbcbc" stroke-width="8" stroke-linecap="round" stroke-linejoin="round" /><polyline points="-50.87,2326.63 -58.44,2347.46 -60.57,2353.92 -70.44,2383.88 -133.02,2558.49 -164.09,2645.20 -165.15,2648.16 -177.62,2675.11 -184.78,2691.13" fill="none" stroke="#bcbcbc" stroke-width="8" stroke-linecap="round" stroke-linejoin="round" /><polyline points="779.33,794.24 772.39,779.38 754.15,776.99 695.17,790.52 683.18,788.96 673.79,776.37 657.10,699.61 747.50,685.62 789.35,673.26 809.82,671.13 831.86,749.51" fill="none" stroke="#bcbcbc" stroke-width="8" stroke-linecap="round" stroke-linejoin="round" /><polyline points="1106.05,1643.03 1129.34,1629.96 1246.30,1559.47 1277.55,1540.86 1332.27,1508.23 1422.29,1450.01 1443.29,1434.91 1601.18,1336.95" fill="none" stroke="#bcbcbc" stroke-width="8" stroke-linecap="round" stroke-linejoin="round" /><polyline points="1657.96,2105.73 1618.05,2093.84 1594.84,2074.81 1506.15,1998.05 1503.13,1995.35 1481.69,1976.22 1469.09,1953.87 1246.30,1559.47" fill="none" stroke="#bcbcbc" stroke-width="8" stroke-linecap="round" stroke-linejoin="round" /><polyline points="-856.33,2074.48 -506.78,2182.05 -478.25,2191.10 -217.40,2273.79 -211.95,2275.52 -172.88,2287.92 -153.66,2294.01 -128.70,2300.84 -77.20,2318.28 -50.87,2326.63 -27.17,2334.15 166.96,2395.74 371.89,2460.13 388.84,2465.46 412.33,2453.93" fill="none" stroke="#bcbcbc" stroke-width="8" stroke-linecap="round" stroke-linejoin="round" /><polyline points="-2364.08,2593.81 -1808.47,2653.37" fill="none" stroke="#bcbcbc" stroke-width="8" stroke-linecap="round" stroke-linejoin="round" /><polyline points="-687.98,1042.84 -571.20,1001.07 -450.74,957.52 -375.90,928.42 -147.40,845.30 -81.08,822.36 -67.23,817.57 -50.62,811.86 -31.97,805.44 -29.69,804.66 7.96,789.53 24.32,782.95" fill="none" stroke="#bcbcbc" stroke-width="8" stroke-linecap="round" stroke-linejoin="round" /><polyline points="96.35,3869.05 206.29,4004.69 273.60,4072.47 302.74,4093.45 343.99,4128.01 382.74,4160.54 416.03,4193.02 416.85,4209.54" fill="none" stroke="#bcbcbc" stroke-width="8" stroke-linecap="round" stroke-linejoin="round" /><polyline points="214.78,740.56 257.87,632.55 327.61,454.72 427.52,199.94 476.90,79.25 550.47,-100.72 610.80,-248.14 621.60,-267.70 674.65,-354.45 678.08,-360.05 697.49,-398.23 731.53,-450.67 750.54,-479.92 777.43,-521.32" fill="none" stroke="#bcbcbc" stroke-width="8" stroke-linecap="round" stroke-linejoin="round" /><polyline points="-801.72,3628.49 -808.77,3634.14 -813.43,3640.86 -822.94,3668.89 -829.50,3689.12 -859.86,3779.90 -864.04,3793.00 -866.63,3801.13 -894.51,3793.14 -962.35,3770.39 -1029.58,3747.84 -1081.54,3744.90" fill="none" stroke="#bcbcbc" stroke-width="8" stroke-linecap="round" stroke-linejoin="round" /><polyline points="-2130.31,4260.23 -2019.52,3974.08 -2007.19,3942.93 -1996.13,3912.92 -1982.78,3876.67 -1966.39,3819.64 -1949.31,3748.76 -1942.31,3697.98 -1937.23,3661.08 -1930.05,3633.85 -1903.98,3429.24 -1873.52,3171.04 -1857.76,3047.94 -1840.17,2903.33 -1808.47,2653.37 -1803.44,2610.87 -1771.41,2349.46 -1771.39,2334.90 -1764.31,2257.33 -1743.88,2093.49 -1738.76,2064.92 -1733.41,2048.89 -1725.06,2031.24 -1716.94,2017.54 -1699.00,1998.12 -1682.97,1992.62" fill="none" stroke="#bcbcbc" stroke-width="8" stroke-linecap="round" stroke-linejoin="round" /><polyline points="288.37,2086.85 294.43,2096.46 314.75,2128.18 345.17,2176.94 352.50,2188.57 364.63,2179.36 423.47,2134.68" fill="none" stroke="#bcbcbc" stroke-width="8" stroke-linecap="round" stroke-linejoin="round" /><polyline points="327.61,454.72 926.23,562.95 989.10,596.05 1223.64,712.32 1244.29,705.93" fill="none" stroke="#bcbcbc" stroke-width="8" stroke-linecap="round" stroke-linejoin="round" /><polyline points="-815.23,1811.22 -825.85,1826.71 -921.35,1873.33 -991.49,1962.49 -1067.19,2009.36 -1118.95,2048.45 -1168.34,2088.74 -1193.66,2111.82 -1238.38,2168.56 -1288.39,2240.26 -1296.64,2253.54" fill="none" stroke="#bcbcbc" stroke-width="8" stroke-linecap="round" stroke-linejoin="round" /><polyline points="-714.26,1875.18 -718.40,1884.39 -727.46,1897.62 -744.57,1918.68 -845.45,2046.13 -898.82,2189.90 -1168.22,2088.63" fill="none" stroke="#bcbcbc" stroke-width="8" stroke-linecap="round" stroke-linejoin="round" /><polyline points="-1118.95,2048.45 -1129.38,2016.87 -1174.46,1880.37 -1191.96,1853.40 -1221.25,1765.50 -1223.78,1757.91 -1219.47,1744.16 -1226.48,1721.76 -1367.34,1271.95" fill="none" stroke="#bcbcbc" stroke-width="8" stroke-linecap="round" stroke-linejoin="round" /><polyline points="531.57,-405.87 642.89,-402.94 648.09,-402.79 669.42,-402.18 697.49,-398.23" fill="none" stroke="#bcbcbc" stroke-width="8" stroke-linecap="round" stroke-linejoin="round" /><polyline points="-41.04,3220.97 -79.04,3220.50 -400.90,3263.72 -424.10,3266.16 -450.63,3268.96 -604.65,3285.22 -812.15,3307.14 -922.16,3318.74 -983.01,3325.16 -1032.42,3331.17 -1057.79,3334.25 -1086.37,3337.73 -1224.42,3354.51 -1257.50,3358.53 -1359.46,3369.67 -1903.98,3429.24" fill="none" stroke="#bcbcbc" stroke-width="8" stroke-linecap="round" stroke-linejoin="round" /><polyline points="-517.57,4338.61 -546.08,4329.43 -679.26,4286.56 -706.18,4277.89 -729.55,4270.38 -870.64,4225.02 -898.45,4216.08 -935.26,4204.23 -1159.86,4131.95 -1185.13,4123.81" fill="none" stroke="#bcbcbc" stroke-width="8" stroke-linecap="round" stroke-linejoin="round" /><polyline points="39.29,1641.97 116.76,1666.11 400.03,1753.60 402.68,1754.42 423.69,1755.73" fill="none" stroke="#bcbcbc" stroke-width="8" stroke-linecap="round" stroke-linejoin="round" /><polyline points="836.37,1003.94 1221.72,1010.72" fill="none" stroke="#bcbcbc" stroke-width="8" stroke-linecap="round" stroke-linejoin="round" /><polyline points="647.68,4389.84 592.59,4324.36 569.48,4297.47 549.62,4278.91 523.18,4259.17 469.14,4226.74 416.85,4209.54 310.45,4176.68 223.43,4149.05 273.60,4072.47" fill="none" stroke="#bcbcbc" stroke-width="8" stroke-linecap="round" stroke-linejoin="round" /><polyline points="96.35,3869.05 19.65,3774.36 5.06,3756.35 -72.21,3649.90 -89.69,3617.40 -85.50,3578.70 -62.20,3578.48 -4.74,3589.53 82.70,3606.36" fill="none" stroke="#bcbcbc" stroke-width="8" stroke-linecap="round" stroke-linejoin="round" /><polyline points="-907.08,3110.38 -892.93,3140.82 -812.15,3307.14 -692.03,3554.44 -676.71,3585.98" fill="none" stroke="#bcbcbc" stroke-width="8" stroke-linecap="round" stroke-linejoin="round" /><polyline points="-2200.95,3863.70 -2172.06,3875.52 -2036.73,3930.85 -2007.19,3942.93 -1976.11,3955.64 -1816.79,4020.80 -1787.97,4032.58" fill="none" stroke="#bcbcbc" stroke-width="8" stroke-linecap="round" stroke-linejoin="round" /><polyline points="-840.59,2863.78 -558.66,2987.14" fill="none" stroke="#bcbcbc" stroke-width="8" stroke-linecap="round" stroke-linejoin="round" /><polyline points="423.69,1755.73 466.63,1757.99 469.37,1760.42 488.64,1777.52 516.96,1802.80 522.18,1812.97 619.79,1898.45 627.01,1912.09 695.64,1972.67 712.92,1977.95 766.31,2024.71 778.27,2030.17 858.79,2098.49 876.71,2114.38 886.60,2130.12" fill="none" stroke="#bcbcbc" stroke-width="8" stroke-linecap="round" stroke-linejoin="round" /><polyline points="-2280.53,2864.06 -1840.17,2903.33" fill="none" stroke="#bcbcbc" stroke-width="8" stroke-linecap="round" stroke-linejoin="round" /><polyline points="-1297.31,4503.98 -1283.66,4474.93 -1280.16,4462.01 -1261.03,4391.49 -1191.76,4147.20 -1185.13,4123.81 -1178.12,4098.17 -1146.74,3983.39 -1093.75,3789.57 -1081.54,3744.90" fill="none" stroke="#bcbcbc" stroke-width="8" stroke-linecap="round" stroke-linejoin="round" /><polyline points="-907.08,3110.38 -840.59,2863.78 -981.56,2814.46 -1018.47,2836.25 -1035.29,2849.06 -1047.75,2865.91 -1056.51,2888.16 -1088.94,3008.00 -1062.78,3021.32 -1036.36,3027.73 -977.93,3042.94 -934.21,3056.87 -907.08,3110.38" fill="none" stroke="#bcbcbc" stroke-width="8" stroke-linecap="round" stroke-linejoin="round" /><polyline points="-1088.94,3008.00 -1119.81,3003.70 -1840.17,2903.33" fill="none" stroke="#bcbcbc" stroke-width="8" stroke-linecap="round" stroke-linejoin="round" /><polyline points="82.70,3606.36 149.51,3620.96 330.22,3678.40 380.74,3694.38 500.68,3729.02 621.49,3763.87 710.93,3789.71 853.98,3831.01 883.53,3839.56 955.71,3863.76 1074.56,3895.42 1085.04,3897.38" fill="none" stroke="#bcbcbc" stroke-width="8" stroke-linecap="round" stroke-linejoin="round" /><polyline points="167.46,4650.41 143.07,4656.53 116.71,4730.01 75.84,4718.40 -110.02,4655.05 -132.39,4650.27 -182.16,4646.71 -407.24,4647.61 -456.86,4641.29 -568.91,4624.15 -614.10,4616.82 -934.67,4565.11 -1058.81,4545.30 -1295.55,4504.29 -1333.77,4496.71 -1868.05,4347.36 -1901.76,4337.91 -2130.31,4260.23 -2186.54,4240.28 -2326.99,4182.06 -2407.05,4151.78" fill="none" stroke="#bcbcbc" stroke-width="8" stroke-linecap="round" stroke-linejoin="round" /><polyline points="657.10,699.61 633.97,694.85 325.18,731.36 214.78,740.56" fill="none" stroke="#bcbcbc" stroke-width="8" stroke-linecap="round" stroke-linejoin="round" /><polyline points="82.70,3606.35 93.52,3588.25 158.32,3421.81 230.72,3170.14 249.19,3115.93 259.07,3101.18 328.97,2876.77 332.44,2849.98 335.09,2832.47" fill="none" stroke="#bcbcbc" stroke-width="8" stroke-linecap="round" stroke-linejoin="round" /><polyline points="400.93,1175.27 408.31,1172.44 418.31,1164.50 433.50,1146.73 630.67,863.79 683.18,788.96" fill="none" stroke="#bcbcbc" stroke-width="8" stroke-linecap="round" stroke-linejoin="round" /><polyline points="1278.46,2214.63 1282.50,2203.02 1381.61,2086.40 1388.88,2082.52 1406.10,2058.96 1463.76,1992.72 1481.69,1976.22" fill="none" stroke="#bcbcbc" stroke-width="8" stroke-linecap="round" stroke-linejoin="round" /><polyline points="1365.07,3080.04 1363.70,3064.44 1362.64,3052.37 1357.42,3029.29 1351.18,3014.23 1343.39,2974.68 1342.68,2960.35 1337.40,2928.34 1313.81,2916.01 1294.96,2923.22 1261.21,2931.31 1234.50,2935.48 1208.88,2941.66 1173.52,2949.73 1157.39,2953.41" fill="none" stroke="#bcbcbc" stroke-width="8" stroke-linecap="round" stroke-linejoin="round" /><polyline points="-1238.83,2507.33 -1166.75,2338.34 -1162.75,2327.36" fill="none" stroke="#bcbcbc" stroke-width="8" stroke-linecap="round" stroke-linejoin="round" /><polyline points="660.78,2197.46 695.52,2184.00 713.68,2176.96 727.73,2162.74 785.65,2148.46 805.09,2153.41 847.01,2142.61 878.99,2134.37 886.60,2130.12 917.61,2122.53 1076.17,2083.68 1112.10,2072.93" fill="none" stroke="#bcbcbc" stroke-width="8" stroke-linecap="round" stroke-linejoin="round" /><polyline points="-801.72,3628.49 -726.92,3601.33 -701.90,3593.68 -676.71,3585.98 -630.22,3571.79 -594.07,3566.58 -470.57,3553.07 -445.76,3551.72 -335.26,3552.66 -267.95,3553.24 -242.63,3551.94 -202.09,3556.05 -189.41,3557.86 -163.57,3561.56 -85.50,3578.70" fill="none" stroke="#bcbcbc" stroke-width="8" stroke-linecap="round" stroke-linejoin="round" /><polyline points="-445.35,1407.72 -457.74,1365.83 -503.76,1210.20 -559.66,1032.75 -571.20,1001.07 -582.92,971.38 -597.74,928.60" fill="none" stroke="#bcbcbc" stroke-width="8" stroke-linecap="round" stroke-linejoin="round" /><polyline points="-579.20,3916.98 -569.38,3885.93 -469.94,3572.36 -470.57,3553.07" fill="none" stroke="#bcbcbc" stroke-width="8" stroke-linecap="round" stroke-linejoin="round" /><polyline points="-445.76,3551.72 -426.07,3287.69 -424.10,3266.16 -421.09,3241.11 -421.04,3239.98 -419.74,3209.36 -413.18,3126.25 -409.47,3087.54 -404.41,3043.57 -399.79,3011.91 -395.65,2992.03 -390.44,2977.00 -380.22,2943.14 -359.10,2872.66 -332.24,2781.65 -302.63,2688.60 -296.59,2669.62 -291.74,2655.86" fill="none" stroke="#bcbcbc" stroke-width="8" stroke-linecap="round" stroke-linejoin="round" /><polyline points="-1088.94,3008.00 -1094.17,3031.40 -1093.27,3038.87 -1061.19,3305.97 -1057.79,3334.25 -1059.27,3363.35 -1067.67,3529.48 -1071.18,3598.88 -1072.99,3634.67 -1076.22,3698.48 -1077.90,3731.71 -1081.54,3744.90" fill="none" stroke="#bcbcbc" stroke-width="8" stroke-linecap="round" stroke-linejoin="round" /><polyline points="-1238.83,2507.33 -1355.46,2472.66 -1370.29,2463.15 -1442.87,2442.00 -1463.27,2442.22 -1554.47,2414.74 -1569.20,2403.87 -1652.19,2378.71 -1754.02,2350.95 -1754.52,2350.91 -1771.41,2349.46" fill="none" stroke="#bcbcbc" stroke-width="8" stroke-linecap="round" stroke-linejoin="round" /><polyline points="886.60,2130.12 890.65,2135.44 907.57,2160.65 938.83,2207.26 968.26,2236.74 1024.83,2300.26 1015.27,2358.96 1010.42,2380.97 1003.67,2390.28 1017.85,2411.27 1039.79,2456.43 1083.65,2541.04 1105.25,2582.71 1118.67,2620.16 1124.73,2637.55" fill="none" stroke="#bcbcbc" stroke-width="8" stroke-linecap="round" stroke-linejoin="round" /><polyline points="1181.98,2251.02 1165.72,2256.08 1058.62,2289.41 1043.26,2294.34 1024.83,2300.26" fill="none" stroke="#bcbcbc" stroke-width="8" stroke-linecap="round" stroke-linejoin="round" /><polyline points="412.33,2453.93 445.83,2443.07 688.93,2318.92 721.47,2303.02 836.05,2269.92 947.15,2238.68 968.26,2236.74" fill="none" stroke="#bcbcbc" stroke-width="8" stroke-linecap="round" stroke-linejoin="round" /><polyline points="438.82,2607.62 719.09,2477.18 730.89,2469.38 758.29,2461.40 945.05,2407.05 973.38,2396.20 1003.67,2390.28" fill="none" stroke="#bcbcbc" stroke-width="8" stroke-linecap="round" stroke-linejoin="round" /><polyline points="381.64,-126.95 495.09,-112.93 506.48,-111.52 550.47,-100.72" fill="none" stroke="#bcbcbc" stroke-width="8" stroke-linecap="round" stroke-linejoin="round" /><polyline points="1351.15,1026.63 1371.27,1022.43 1446.45,1059.28 1456.35,1069.08 1597.46,1307.99 1601.18,1336.95 1619.53,1352.24 1616.62,1362.81 1616.17,1380.03 1618.72,1404.10 1656.09,1557.73 1659.39,1664.13 1664.63,1834.03 1673.42,2062.70 1637.63,2162.34 1614.57,2223.09 1580.91,2308.70 1571.16,2333.46 1564.83,2340.37 1554.66,2406.62" fill="none" stroke="#bcbcbc" stroke-width="8" stroke-linecap="round" stroke-linejoin="round" /><polyline points="1612.06,2810.18 1577.73,2795.24 1491.97,2735.38 1378.81,2655.86 1316.57,2605.53 1274.59,2560.56" fill="none" stroke="#bcbcbc" stroke-width="8" stroke-linecap="round" stroke-linejoin="round" /><polyline points="223.43,4149.05 189.73,4138.37 135.03,4121.02 108.93,4112.75 78.27,4103.03 39.53,4090.74 4.50,4079.64 -30.11,4068.65 -184.51,4019.65 -211.55,4011.07 -245.13,4000.44 -252.54,3998.09 -340.85,3974.76 -365.78,3968.72 -397.03,3961.16 -429.74,3953.23 -547.59,3924.65 -579.20,3916.98 -613.16,3905.19 -684.13,3880.54 -710.88,3871.25 -734.79,3863.48 -845.91,3823.97 -859.90,3815.63 -866.63,3801.13" fill="none" stroke="#bcbcbc" stroke-width="8" stroke-linecap="round" stroke-linejoin="round" /><polyline points="730.89,2469.38 722.71,2440.03 698.31,2352.56 688.93,2318.92 675.37,2293.78 674.11,2289.11 666.12,2259.50 675.43,2246.38 664.25,2209.05 660.78,2197.46" fill="none" stroke="#bcbcbc" stroke-width="8" stroke-linecap="round" stroke-linejoin="round" /><polyline points="690.10,1398.92 713.29,1388.00 839.99,1318.14 912.42,1271.55 963.50,1236.70 974.78,1228.30 1015.89,1199.72 1058.50,1168.25 1085.47,1148.62 1117.63,1125.09 1229.41,1074.65 1243.90,1075.42 1265.09,1065.40 1351.15,1026.63" fill="none" stroke="#bcbcbc" stroke-width="8" stroke-linecap="round" stroke-linejoin="round" /><polyline points="-714.26,1875.18 -695.98,1882.59 -683.90,1886.31 -457.32,1955.91 -422.72,1966.54" fill="none" stroke="#bcbcbc" stroke-width="8" stroke-linecap="round" stroke-linejoin="round" /><polyline points="-2332.68,2384.78 -2494.56,2335.78" fill="none" stroke="#bcbcbc" stroke-width="8" stroke-linecap="round" stroke-linejoin="round" /><polyline points="282.14,101.72 322.28,152.57 328.27,160.16 348.53,185.82 371.62,188.54 419.08,194.11 427.52,199.94" fill="none" stroke="#bcbcbc" stroke-width="8" stroke-linecap="round" stroke-linejoin="round" /><polyline points="1675.87,2363.45 1612.27,2375.31 1547.06,2410.75 1486.61,2444.40 1429.43,2473.00 1360.35,2510.52 1310.32,2540.90 1211.46,2593.91 825.53,2788.09 725.48,2832.17 659.37,2860.76 626.62,2871.49 599.52,2876.55 555.15,2879.23 492.02,2870.30 334.49,2832.47 110.86,2780.35 -183.35,2691.60 -291.74,2655.86 -469.22,2601.06 -638.95,2545.07 -887.90,2447.38 -1012.37,2393.78 -1162.45,2327.07 -1411.40,2190.66 -1469.76,2151.95 -1617.46,2059.03 -1679.40,1997.08 -1772.31,1876.77 -1925.36,1718.93 -1985.52,1665.92" fill="none" stroke="#bcbcbc" stroke-width="8" stroke-linecap="round" stroke-linejoin="round" /><polyline points="469.14,4226.74 471.75,4212.19 481.16,4188.42 569.44,3981.83 602.79,3904.39 642.10,3807.89 651.68,3772.57" fill="none" stroke="#bcbcbc" stroke-width="8" stroke-linecap="round" stroke-linejoin="round" /><polyline points="-1224.42,3354.51 -1324.70,3305.96 -1552.89,3195.51 -1832.78,3060.04 -1857.76,3047.94" fill="none" stroke="#bcbcbc" stroke-width="8" stroke-linecap="round" stroke-linejoin="round" /><polyline points="423.69,1755.73 449.01,1729.80 516.33,1660.87 569.77,1602.52" fill="none" stroke="#bcbcbc" stroke-width="8" stroke-linecap="round" stroke-linejoin="round" /><polyline points="-1520.46,1909.30 -1548.27,1872.47 -1678.63,1699.85 -1864.71,1549.25" fill="none" stroke="#bcbcbc" stroke-width="8" stroke-linecap="round" stroke-linejoin="round" /><polyline points="-2327.99,4181.64 -2302.54,4121.29 -2221.64,3919.55 -2211.83,3893.07 -2200.95,3863.70 -2196.82,3853.10 -2195.73,3836.50 -2185.37,3679.67 -2182.40,3634.68" fill="none" stroke="#bcbcbc" stroke-width="8" stroke-linecap="round" stroke-linejoin="round" /><polyline points="-2383.19,2559.98 -2332.68,2384.78 -2266.04,2153.69 -2257.79,2125.08 -2248.62,2092.59 -2228.08,2019.83 -2225.93,2012.18 -2220.05,1988.79 -2210.67,1962.34 -2208.39,1955.94 -2196.55,1926.57 -2173.30,1875.27 -2166.34,1860.54" fill="none" stroke="#bcbcbc" stroke-width="8" stroke-linecap="round" stroke-linejoin="round" /><polyline points="-2257.79,2125.08 -2155.59,2151.22 -1939.10,2206.88 -1815.76,2245.28 -1764.31,2257.33" fill="none" stroke="#bcbcbc" stroke-width="8" stroke-linecap="round" stroke-linejoin="round" /><polyline points="-154.07,1330.10 -150.59,1308.83 -147.09,1286.75 -132.10,1212.87 -94.64,1040.92 -63.88,887.10 -58.25,855.19 -50.62,811.86 -50.61,811.82" fill="none" stroke="#bcbcbc" stroke-width="8" stroke-linecap="round" stroke-linejoin="round" /><polyline points="-456.66,4641.32 -411.03,4524.92 -405.36,4504.00 -224.27,4044.24 -211.55,4011.07 -201.25,3982.94 -93.04,3668.08 -72.21,3649.90" fill="none" stroke="#bcbcbc" stroke-width="8" stroke-linecap="round" stroke-linejoin="round" /><polyline points="164.08,1241.10 164.08,1241.06 157.66,1207.38 156.66,1203.30 141.01,1139.67 141.02,1139.47 130.36,1096.33 85.17,941.43 79.47,924.84 48.95,841.87 39.03,817.10 32.63,801.13 24.33,782.98 24.32,782.95 24.31,782.87 18.26,716.16 17.68,683.41" fill="none" stroke="#bcbcbc" stroke-width="8" stroke-linecap="round" stroke-linejoin="round" /><polyline points="96.35,3869.05 84.73,3881.61 67.41,3902.22 18.63,4039.80 4.50,4079.64" fill="none" stroke="#bcbcbc" stroke-width="8" stroke-linecap="round" stroke-linejoin="round" /><polyline points="-714.26,1875.18 -707.59,1857.12 -706.09,1852.92 -674.41,1764.41 -662.53,1727.13 -565.43,1441.57" fill="none" stroke="#bcbcbc" stroke-width="8" stroke-linecap="round" stroke-linejoin="round" /><polyline points="-211.95,2275.52 -202.05,2249.20 -175.22,2177.92 -163.87,2147.78 -156.19,2127.38 -134.66,2070.18 -120.44,2032.39 -118.52,2027.31 -84.06,1935.76 -69.65,1940.23 -61.85,1918.97 -48.04,1881.38 -50.69,1864.30 -14.03,1764.49 -10.26,1754.24 -3.31,1747.85 2.53,1742.48 39.29,1641.97 44.61,1614.46 97.35,1467.90 109.83,1458.14 135.20,1386.34 130.69,1375.32 152.92,1308.27 141.38,1248.40" fill="none" stroke="#bcbcbc" stroke-width="8" stroke-linecap="round" stroke-linejoin="round" /><polyline points="731.53,-450.67 716.75,-474.91 639.09,-602.33" fill="none" stroke="#bcbcbc" stroke-width="8" stroke-linecap="round" stroke-linejoin="round" /><polyline points="974.78,1228.30 1331.17,1457.50 1331.26,1457.66 1331.27,1457.70 1397.18,1466.25" fill="none" stroke="#bcbcbc" stroke-width="8" stroke-linecap="round" stroke-linejoin="round" /><polyline points="831.86,749.51 1211.05,939.86 1222.49,948.40 1221.72,1010.71 1229.41,1074.65" fill="none" stroke="#bcbcbc" stroke-width="8" stroke-linecap="round" stroke-linejoin="round" /><polyline points="108.93,4112.75 95.29,4154.36 40.04,4322.88 -53.93,4606.68 -60.60,4626.82 -67.36,4647.22 -69.24,4668.95" fill="none" stroke="#bcbcbc" stroke-width="8" stroke-linecap="round" stroke-linejoin="round" /><polyline points="1176.39,3089.04 1178.66,3067.89 1179.15,3048.17 1178.99,3047.48 1165.55,2989.39 1160.04,2965.12 1157.39,2953.41 1154.67,2941.44 1139.92,2876.45 1111.10,2746.58 1090.17,2668.50 1087.20,2656.44" fill="none" stroke="#bcbcbc" stroke-width="8" stroke-linecap="round" stroke-linejoin="round" /><polyline points="-706.18,4277.89 -696.78,4251.18 -591.19,3951.05 -579.20,3916.98" fill="none" stroke="#bcbcbc" stroke-width="8" stroke-linecap="round" stroke-linejoin="round" /><polyline points="1664.63,1834.03 1633.57,1825.26 1422.60,1501.50 1397.18,1466.25" fill="none" stroke="#bcbcbc" stroke-width="8" stroke-linecap="round" stroke-linejoin="round" /><polyline points="-1803.44,2610.87 -1034.57,2795.10 -981.56,2814.46" fill="none" stroke="#bcbcbc" stroke-width="8" stroke-linecap="round" stroke-linejoin="round" /><polyline points="621.60,-267.70 921.10,-156.74 963.26,-163.94" fill="none" stroke="#bcbcbc" stroke-width="8" stroke-linecap="round" stroke-linejoin="round" />
    <polyline points="171.47,348.53 322.90,209.38 348.53,185.82" fill="none" stroke="#ffffff" stroke-width="16" stroke-linecap="round" stroke-linejoin="round" />
    <polyline points="171.47,348.53 322.90,209.38 348.53,185.82" fill="none" stroke="#111111" stroke-width="9" stroke-linecap="round" stroke-linejoin="round" />
    
            <g transform="translate(171.47,348.53)">
              <circle r="19" fill="#ffffff" stroke="#111111" stroke-width="4" />
              <text text-anchor="middle" dominant-baseline="central" font-family="Helvetica, Arial, sans-serif"
                font-size="18" font-weight="700" fill="#111111">1</text>
            </g>
            
            <g transform="translate(348.53,185.82)">
              <circle r="19" fill="#ffffff" stroke="#111111" stroke-width="4" />
              <text text-anchor="middle" dominant-baseline="central" font-family="Helvetica, Arial, sans-serif"
                font-size="18" font-weight="700" fill="#111111">2</text>
            </g>
            
  </g>
</svg>
