<svg xmlns="http://www.w3.org/2000/svg" width="520" height="520" viewBox="0 0 520 520">
  <rect width="100%" height="100%" fill="#ffffff" />
  <g>
    <polyline points="1408.26,-190.53 1410.64,-177.88 1425.99,-70.53 1423.64,-43.70" fill="none" stroke="#bcbcbc" stroke-width="8" stroke-linecap="round" stroke-linejoin="round" /><polyline points="1096.36,704.03 1100.07,692.62 1119.73,632.17 1122.04,625.05 1124.39,617.57 1173.82,459.95 1177.79,447.27 1168.69,424.85" fill="none" stroke="#bcbcbc" stroke-width="8" stroke-linecap="round" stroke-linejoin="round" /><polyline points="754.93,563.84 754.14,554.78 770.30,464.28 772.56,452.96 774.26,447.03 778.70,424.07 783.70,395.98 789.15,371.24 794.55,346.56 797.95,339.59 800.18,335.33" fill="none" stroke="#bcbcbc" stroke-width="8" stroke-linecap="round" stroke-linejoin="round" /><polyline points="848.73,-74.58 844.89,-86.30 805.18,-207.41 803.24,-212.49" fill="none" stroke="#bcbcbc" stroke-width="8" stroke-linecap="round" stroke-linejoin="round" /><polyline points="644.96,991.36 646.15,979.80 646.63,974.50 650.95,926.68 655.68,884.57 656.79,874.74 657.82,862.95 657.93,861.95 660.61,838.50 662.93,814.67 665.48,791.66 667.19,773.75 667.91,762.70 668.54,752.49 669.67,740.99" fill="none" stroke="#bcbcbc" stroke-width="8" stroke-linecap="round" stroke-linejoin="round" /><polyline points="1193.68,732.13 1196.51,723.24 1216.44,660.60 1218.71,653.48 1221.92,643.34 1224.23,636.07 1241.87,560.00" fill="none" stroke="#bcbcbc" stroke-width="8" stroke-linecap="round" stroke-linejoin="round" /><polyline points="1116.22,-506.95 1123.58,-505.82 1326.37,-474.66" fill="none" stroke="#bcbcbc" stroke-width="8" stroke-linecap="round" stroke-linejoin="round" /><polyline points="595.63,717.37 574.52,716.39 561.65,715.79 554.66,715.46 548.53,715.18 500.73,712.95 434.25,709.86 402.56,705.37 391.96,703.87 382.76,702.24 320.43,691.24 311.72,689.70 309.79,689.37 299.03,687.53 290.76,686.11 237.95,681.44 227.89,680.56 224.20,680.23 212.78,679.44 190.43,677.89" fill="none" stroke="#bcbcbc" stroke-width="8" stroke-linecap="round" stroke-linejoin="round" /><polyline points="902.28,656.13 906.37,644.50 943.21,542.38 987.53,413.57 990.37,405.49 992.34,399.84 993.95,395.21" fill="none" stroke="#bcbcbc" stroke-width="8" stroke-linecap="round" stroke-linejoin="round" /><polyline points="224.20,680.23 223.26,673.66 223.04,666.53 224.44,652.17 227.65,625.95 229.79,617.15 233.26,585.33 233.89,578.24 234.91,569.13 235.66,562.36 237.09,554.69 239.72,534.05 241.56,518.26 244.25,511.80" fill="none" stroke="#bcbcbc" stroke-width="8" stroke-linecap="round" stroke-linejoin="round" /><polyline points="186.50,503.73 235.64,510.60 244.25,511.80 249.58,512.65 271.61,516.16 322.36,524.25 331.07,525.70" fill="none" stroke="#bcbcbc" stroke-width="8" stroke-linecap="round" stroke-linejoin="round" /><polyline points="1090.84,-140.89 1091.16,-136.42 1091.82,-131.90 1093.42,-128.43 1096.41,-124.57 1101.93,-119.54 1115.03,-111.57 1216.06,-48.19 1278.29,35.24 1325.29,151.23 1328.36,158.89" fill="none" stroke="#bcbcbc" stroke-width="8" stroke-linecap="round" stroke-linejoin="round" /><polyline points="1074.67,197.56 1076.76,201.02 1077.30,201.92 1079.04,210.67 1090.89,267.99 1094.65,286.19 1097.35,299.14 1101.54,325.41 1103.50,337.52 1104.86,344.91 1106.34,351.58 1108.11,355.48 1110.70,359.98 1112.09,362.11 1138.34,399.69 1152.54,422.05 1156.24,427.40" fill="none" stroke="#bcbcbc" stroke-width="8" stroke-linecap="round" stroke-linejoin="round" /><polyline points="321.03,915.27 322.43,906.66 323.73,900.44 324.07,899.62 341.55,858.07 352.68,831.07 356.06,822.52 359.65,813.46 363.54,805.66 364.17,804.14 369.50,791.27 373.62,779.87 377.15,769.42 379.39,762.03 381.91,752.90 384.80,740.66 387.01,730.73 389.64,716.87 390.19,713.78 391.96,703.87" fill="none" stroke="#bcbcbc" stroke-width="8" stroke-linecap="round" stroke-linejoin="round" /><polyline points="1167.59,-244.92 1223.30,-205.99 1230.81,-204.39 1236.30,-198.11" fill="none" stroke="#bcbcbc" stroke-width="8" stroke-linecap="round" stroke-linejoin="round" /><polyline points="933.65,114.61 941.01,117.44 972.98,127.90 1047.13,156.34 1051.29,160.49 1053.24,163.58" fill="none" stroke="#bcbcbc" stroke-width="8" stroke-linecap="round" stroke-linejoin="round" /><polyline points="1071.83,845.33 1076.88,832.17 1101.80,764.54 1119.43,713.44 1123.09,711.76" fill="none" stroke="#bcbcbc" stroke-width="8" stroke-linecap="round" stroke-linejoin="round" /><polyline points="719.45,759.57 723.38,750.88 723.77,750.02 730.50,727.44 741.53,690.28 744.35,680.77 746.54,673.38 746.84,669.08 746.39,659.55" fill="none" stroke="#bcbcbc" stroke-width="8" stroke-linecap="round" stroke-linejoin="round" /><polyline points="1177.65,200.53 1171.32,201.83 1157.00,199.28 1154.79,193.37 1129.97,183.91 1124.10,185.45 1101.71,177.23 1098.37,179.56" fill="none" stroke="#bcbcbc" stroke-width="8" stroke-linecap="round" stroke-linejoin="round" /><polyline points="1140.80,-567.06 1152.04,-564.31 1158.27,-563.23 1306.19,-537.58" fill="none" stroke="#bcbcbc" stroke-width="8" stroke-linecap="round" stroke-linejoin="round" /><polyline points="1025.83,804.14 1031.98,786.79 1043.94,753.08 1051.66,738.72 1062.79,707.58 1067.22,695.16" fill="none" stroke="#bcbcbc" stroke-width="8" stroke-linecap="round" stroke-linejoin="round" /><polyline points="215.32,130.83 204.60,130.34 201.92,133.60 183.25,156.28 118.00,231.65 108.82,242.25" fill="none" stroke="#bcbcbc" stroke-width="8" stroke-linecap="round" stroke-linejoin="round" /><polyline points="787.63,195.38 782.90,205.85 782.33,207.12 765.90,249.97 749.33,297.14 744.91,309.72 742.41,316.21" fill="none" stroke="#bcbcbc" stroke-width="8" stroke-linecap="round" stroke-linejoin="round" /><polyline points="1028.66,-286.07 1033.88,-278.99 1037.61,-269.25 1043.41,-255.28 1052.72,-233.29 1060.97,-213.55 1070.43,-191.88 1077.45,-175.18 1078.49,-172.78 1078.55,-172.64 1084.20,-159.43 1085.89,-155.67 1087.50,-152.10 1089.20,-148.75 1090.47,-145.35 1090.85,-140.89" fill="none" stroke="#bcbcbc" stroke-width="8" stroke-linecap="round" stroke-linejoin="round" /><polyline points="629.03,406.60 631.76,405.11 635.58,402.07 637.50,398.13 662.88,301.87 663.65,296.44 666.75,286.52" fill="none" stroke="#bcbcbc" stroke-width="8" stroke-linecap="round" stroke-linejoin="round" /><polyline points="1516.74,255.97 1520.34,267.40 1522.87,279.40 1517.94,325.16 1512.23,359.57 1509.12,371.31 1508.84,372.37 1506.11,378.71 1502.39,385.43 1493.70,396.41 1497.91,417.89 1484.30,463.99 1476.79,489.45 1461.42,531.13 1438.91,581.87 1411.43,630.50 1402.85,646.30 1387.33,672.27 1325.34,760.25 1311.76,778.56 1259.16,847.29 1228.96,881.65 1186.72,924.58 1182.81,924.98 1173.27,932.78" fill="none" stroke="#bcbcbc" stroke-width="8" stroke-linecap="round" stroke-linejoin="round" /><polyline points="751.78,1008.59 769.08,954.92 771.91,946.06 775.76,940.47 784.02,915.67 786.71,907.24 820.85,800.35 824.29,789.60 827.12,780.15 867.41,653.35" fill="none" stroke="#bcbcbc" stroke-width="8" stroke-linecap="round" stroke-linejoin="round" /><polyline points="1157.18,10.46 1172.14,-5.88 1176.55,-11.20 1206.78,-54.02" fill="none" stroke="#bcbcbc" stroke-width="8" stroke-linecap="round" stroke-linejoin="round" /><polyline points="858.16,16.94 899.36,31.28 901.64,34.98 913.34,38.90 920.28,41.27 953.49,52.49" fill="none" stroke="#bcbcbc" stroke-width="8" stroke-linecap="round" stroke-linejoin="round" /><polyline points="1217.25,-268.15 1236.30,-198.11 1258.36,-115.60 1261.71,-108.72 1262.24,-100.87 1277.20,-72.95 1317.57,2.33 1326.39,15.35 1328.94,19.16 1389.26,131.92 1416.98,157.12 1420.87,162.14 1426.35,166.83 1478.98,211.83 1482.55,214.88 1492.00,219.90" fill="none" stroke="#bcbcbc" stroke-width="8" stroke-linecap="round" stroke-linejoin="round" /><polyline points="1012.56,1019.98 1143.82,943.74 1167.18,931.79 1173.27,932.78" fill="none" stroke="#bcbcbc" stroke-width="8" stroke-linecap="round" stroke-linejoin="round" /><polyline points="1154.87,910.91 1163.02,901.23 1236.13,755.35 1240.97,745.78 1245.02,736.31 1268.63,677.91 1275.66,660.32 1296.02,598.72 1309.22,519.52 1310.78,507.99" fill="none" stroke="#bcbcbc" stroke-width="8" stroke-linecap="round" stroke-linejoin="round" /><polyline points="1098.45,52.99 1097.17,54.30 1095.41,60.44 1095.23,61.05 1087.30,91.60 1089.38,99.58 1087.65,106.73 1085.38,116.09 1079.58,122.81 1072.99,149.50 1065.22,155.37 1056.94,161.05 1053.24,163.58" fill="none" stroke="#bcbcbc" stroke-width="8" stroke-linecap="round" stroke-linejoin="round" /><polyline points="787.63,195.38 791.00,186.73 811.29,134.74 815.71,123.40 819.35,114.06 845.27,47.66 856.94,19.90 858.16,16.94 867.23,-4.99 887.58,-55.51 895.03,-77.01 896.69,-81.94 898.92,-87.54" fill="none" stroke="#bcbcbc" stroke-width="8" stroke-linecap="round" stroke-linejoin="round" /><polyline points="1014.60,-119.81 1018.52,-108.13 1147.24,1.82 1217.49,62.93 1322.40,154.13 1331.56,161.45 1335.66,164.02 1353.87,180.54 1378.18,201.28 1433.32,248.30 1451.14,263.61 1462.95,277.75" fill="none" stroke="#bcbcbc" stroke-width="8" stroke-linecap="round" stroke-linejoin="round" /><polyline points="1227.43,-309.26 1233.96,-313.45 1272.64,-329.52 1280.59,-337.89" fill="none" stroke="#bcbcbc" stroke-width="8" stroke-linecap="round" stroke-linejoin="round" /><polyline points="1272.11,669.22 1218.71,653.48 1122.04,625.05" fill="none" stroke="#bcbcbc" stroke-width="8" stroke-linecap="round" stroke-linejoin="round" /><polyline points="1099.73,-466.64 1107.02,-461.61 1344.71,-408.73" fill="none" stroke="#bcbcbc" stroke-width="8" stroke-linecap="round" stroke-linejoin="round" /><polyline points="1393.33,315.93 1381.05,288.60 1353.79,223.58 1351.75,218.41 1347.09,206.55 1329.52,161.83 1328.41,158.93" fill="none" stroke="#bcbcbc" stroke-width="8" stroke-linecap="round" stroke-linejoin="round" /><polyline points="1028.66,-286.07 1015.47,-289.83 1005.77,-292.72 986.06,-298.57 976.05,-301.43 970.31,-303.02 962.82,-305.17" fill="none" stroke="#bcbcbc" stroke-width="8" stroke-linecap="round" stroke-linejoin="round" /><polyline points="684.59,71.52 683.92,69.34 683.31,67.81 680.59,61.05 670.05,36.49 660.04,11.54 657.88,5.64 655.38,-1.14 653.60,-6.69 650.66,-15.02 650.35,-15.89 640.77,-39.50 623.18,-83.88 619.23,-86.13 616.42,-93.33 610.81,-112.82 601.20,-136.97 599.13,-142.46" fill="none" stroke="#bcbcbc" stroke-width="8" stroke-linecap="round" stroke-linejoin="round" /><polyline points="769.08,954.92 779.07,957.98 811.38,967.82 821.51,970.91" fill="none" stroke="#bcbcbc" stroke-width="8" stroke-linecap="round" stroke-linejoin="round" /><polyline points="1372.57,-297.64 1374.45,-305.26 1373.69,-308.15 1372.76,-311.64 1366.86,-333.25 1353.71,-378.95 1346.77,-402.31 1344.71,-408.73 1326.37,-474.66 1316.47,-510.23 1306.19,-537.58 1296.91,-562.25 1287.67,-579.21 1278.69,-588.18 1209.76,-672.41 1204.66,-678.40 1201.28,-683.94" fill="none" stroke="#bcbcbc" stroke-width="8" stroke-linecap="round" stroke-linejoin="round" /><polyline points="1090.85,-140.89 1087.29,-139.53 1080.72,-137.71 1080.06,-137.53 1052.61,-130.51 1021.04,-121.62 1014.60,-119.81 1011.73,-118.90 1004.14,-116.46 997.66,-114.66 969.36,-106.78 922.81,-93.56 905.45,-89.17 898.92,-87.54 867.90,-79.92 848.73,-74.58 808.15,-63.24 768.04,-51.94 763.40,-50.65 729.87,-41.35 714.41,-37.05 706.60,-33.37 691.82,-26.04 662.46,-11.14 660.42,-10.10 653.60,-6.69 649.44,-4.61 643.64,-1.57 623.02,9.24 585.44,30.33 554.05,46.77 549.56,49.13 543.56,49.50 539.96,51.41 539.24,51.80 505.18,70.46 498.05,70.43 489.86,74.71 487.00,76.20 484.59,77.47 478.90,80.45 474.41,90.68 455.14,101.00 449.01,104.28 442.38,107.89 415.56,122.48 401.70,130.03 394.71,132.04" fill="none" stroke="#bcbcbc" stroke-width="8" stroke-linecap="round" stroke-linejoin="round" /><polyline points="1476.79,489.45 1462.48,490.77 1417.78,494.86 1415.77,495.05 1412.91,495.31 1408.30,495.73 1364.96,499.71 1349.89,498.31 1332.33,502.71 1318.27,506.16 1310.78,507.99 1292.17,508.70 1276.07,507.88 1267.86,507.01 1260.87,504.89 1255.72,502.05 1236.56,488.50 1189.99,456.51 1185.60,453.54 1181.13,450.51 1177.79,447.27" fill="none" stroke="#bcbcbc" stroke-width="8" stroke-linecap="round" stroke-linejoin="round" /><polyline points="422.13,-50.49 439.03,-17.41 441.58,-7.96 455.82,19.20 461.70,26.96 485.48,73.25 487.00,76.20" fill="none" stroke="#bcbcbc" stroke-width="8" stroke-linecap="round" stroke-linejoin="round" /><polyline points="939.92,243.67 937.39,250.63 936.68,252.78 933.38,262.79 912.48,321.11 902.10,350.07 901.75,351.06 897.58,360.06 895.19,365.41" fill="none" stroke="#bcbcbc" stroke-width="8" stroke-linecap="round" stroke-linejoin="round" /><polyline points="1217.25,-268.15 1214.93,-273.11 1208.84,-273.91 1189.13,-269.39 1185.13,-269.91 1181.99,-274.11 1176.42,-299.75 1206.62,-304.43 1220.60,-308.55 1227.43,-309.26 1234.80,-283.09" fill="none" stroke="#bcbcbc" stroke-width="8" stroke-linecap="round" stroke-linejoin="round" /><polyline points="1326.39,15.35 1334.17,10.98 1373.24,-12.56 1383.68,-18.78 1401.96,-29.68 1432.03,-49.12 1439.04,-54.16 1491.79,-86.88" fill="none" stroke="#bcbcbc" stroke-width="8" stroke-linecap="round" stroke-linejoin="round" /><polyline points="1510.75,169.89 1497.42,165.92 1489.67,159.56 1460.04,133.92 1459.03,133.02 1451.87,126.63 1447.66,119.17 1373.24,-12.56" fill="none" stroke="#bcbcbc" stroke-width="8" stroke-linecap="round" stroke-linejoin="round" /><polyline points="670.86,159.45 787.63,195.38 797.16,198.40 884.29,226.02 886.11,226.60 899.17,230.74 905.59,232.78 913.93,235.05 931.13,240.88 939.92,243.67 947.84,246.18 1012.69,266.75 1081.15,288.26 1086.81,290.04 1094.65,286.19" fill="none" stroke="#bcbcbc" stroke-width="8" stroke-linecap="round" stroke-linejoin="round" /><polyline points="1014.20,-417.01 1064.78,-463.49 1073.34,-471.36" fill="none" stroke="#bcbcbc" stroke-width="8" stroke-linecap="round" stroke-linejoin="round" /><polyline points="727.10,-185.12 766.11,-199.07 806.35,-213.61 831.35,-223.33 907.68,-251.09 929.83,-258.76 934.46,-260.36 940.01,-262.26 946.24,-264.41 947.00,-264.67 959.57,-269.72 965.04,-271.92" fill="none" stroke="#bcbcbc" stroke-width="8" stroke-linecap="round" stroke-linejoin="round" /><polyline points="989.10,758.84 1025.83,804.14 1048.31,826.78 1058.04,833.78 1071.83,845.33 1084.77,856.19 1095.89,867.04 1096.16,872.56" fill="none" stroke="#bcbcbc" stroke-width="8" stroke-linecap="round" stroke-linejoin="round" /><polyline points="1028.66,-286.07 1043.06,-322.15 1066.35,-381.55 1099.73,-466.64 1116.22,-506.95 1140.80,-567.06 1160.95,-616.30 1164.56,-622.83 1182.28,-651.81 1183.43,-653.68 1189.91,-666.43 1201.28,-683.94 1207.63,-693.72 1216.62,-707.54" fill="none" stroke="#bcbcbc" stroke-width="8" stroke-linecap="round" stroke-linejoin="round" /><polyline points="689.10,678.49 686.75,680.37 685.19,682.62 682.01,691.98 679.82,698.74 669.68,729.06 668.29,733.44 667.42,736.15 658.11,733.48 635.44,725.88 612.99,718.35 595.63,717.37" fill="none" stroke="#bcbcbc" stroke-width="8" stroke-linecap="round" stroke-linejoin="round" /><polyline points="245.29,889.49 282.30,793.91 286.42,783.51 290.11,773.49 294.58,761.38 300.05,742.33 305.76,718.66 308.09,701.70 309.79,689.37 312.19,680.28 320.90,611.94 331.07,525.70 336.34,484.59 342.21,436.29 352.80,352.80 354.48,338.60 365.18,251.29 365.19,246.43 367.55,220.52 374.38,165.80 376.09,156.26 377.87,150.90 380.67,145.01 383.38,140.43 389.37,133.95 394.72,132.11" fill="none" stroke="#bcbcbc" stroke-width="8" stroke-linecap="round" stroke-linejoin="round" /><polyline points="1053.24,163.58 1055.27,166.79 1062.06,177.39 1072.22,193.67 1074.67,197.56 1078.72,194.48 1098.37,179.56" fill="none" stroke="#bcbcbc" stroke-width="8" stroke-linecap="round" stroke-linejoin="round" /><polyline points="1066.35,-381.55 1266.32,-345.40 1287.32,-334.34 1365.67,-295.51 1372.57,-297.64" fill="none" stroke="#bcbcbc" stroke-width="8" stroke-linecap="round" stroke-linejoin="round" /><polyline points="684.59,71.52 681.04,76.70 649.14,92.27 625.71,122.05 600.43,137.70 583.13,150.76 566.64,164.21 558.18,171.92 543.24,190.87 526.53,214.82 523.78,219.26" fill="none" stroke="#bcbcbc" stroke-width="8" stroke-linecap="round" stroke-linejoin="round" /><polyline points="718.32,92.89 716.94,95.96 713.91,100.38 708.19,107.42 674.49,149.98 656.67,198.00 566.68,164.18" fill="none" stroke="#bcbcbc" stroke-width="8" stroke-linecap="round" stroke-linejoin="round" /><polyline points="583.13,150.76 579.65,140.21 564.59,94.62 558.75,85.61 548.96,56.25 548.11,53.72 549.56,49.13 547.21,41.64 500.16,-108.59" fill="none" stroke="#bcbcbc" stroke-width="8" stroke-linecap="round" stroke-linejoin="round" /><polyline points="1134.49,-668.98 1171.67,-668.00 1173.41,-667.95 1180.53,-667.75 1189.91,-666.43" fill="none" stroke="#bcbcbc" stroke-width="8" stroke-linecap="round" stroke-linejoin="round" /><polyline points="943.21,542.38 930.51,542.22 822.99,556.65 815.25,557.47 806.38,558.41 754.93,563.84 685.62,571.16 648.87,575.03 628.54,577.18 612.04,579.18 603.56,580.21 594.02,581.37 547.90,586.98 536.85,588.32 502.79,592.04 320.90,611.94" fill="none" stroke="#bcbcbc" stroke-width="8" stroke-linecap="round" stroke-linejoin="round" /><polyline points="784.02,915.67 774.50,912.60 730.01,898.28 721.02,895.39 713.21,892.88 666.08,877.73 656.79,874.74 644.50,870.79 569.47,846.64 561.02,843.93" fill="none" stroke="#bcbcbc" stroke-width="8" stroke-linecap="round" stroke-linejoin="round" /><polyline points="970.04,15.00 995.92,23.06 1090.55,52.28 1091.43,52.55 1098.45,52.99" fill="none" stroke="#bcbcbc" stroke-width="8" stroke-linecap="round" stroke-linejoin="round" /><polyline points="1236.30,-198.11 1365.03,-195.84" fill="none" stroke="#bcbcbc" stroke-width="8" stroke-linecap="round" stroke-linejoin="round" /><polyline points="1173.27,932.78 1154.87,910.91 1147.15,901.93 1140.52,895.73 1131.68,889.13 1113.63,878.30 1096.16,872.56 1060.62,861.58 1031.55,852.36 1048.31,826.78" fill="none" stroke="#bcbcbc" stroke-width="8" stroke-linecap="round" stroke-linejoin="round" /><polyline points="989.10,758.84 963.48,727.21 958.60,721.19 932.80,685.64 926.95,674.78 928.36,661.86 936.14,661.78 955.33,665.48 984.54,671.10" fill="none" stroke="#bcbcbc" stroke-width="8" stroke-linecap="round" stroke-linejoin="round" /><polyline points="653.91,505.44 658.63,515.61 685.62,571.16 725.75,653.76 730.86,664.29" fill="none" stroke="#bcbcbc" stroke-width="8" stroke-linecap="round" stroke-linejoin="round" /><polyline points="221.69,757.05 231.35,760.99 276.55,779.48 286.42,783.51 296.80,787.76 350.02,809.52 359.65,813.46" fill="none" stroke="#bcbcbc" stroke-width="8" stroke-linecap="round" stroke-linejoin="round" /><polyline points="676.12,423.08 770.30,464.28" fill="none" stroke="#bcbcbc" stroke-width="8" stroke-linecap="round" stroke-linejoin="round" /><polyline points="1098.45,52.99 1112.79,53.74 1113.71,54.56 1120.14,60.27 1129.60,68.71 1131.35,72.11 1163.96,100.66 1166.37,105.21 1189.29,125.45 1195.06,127.21 1212.90,142.83 1216.89,144.65 1243.79,167.47 1249.78,172.78 1253.08,178.04" fill="none" stroke="#bcbcbc" stroke-width="8" stroke-linecap="round" stroke-linejoin="round" /><polyline points="195.11,423.17 342.21,436.29" fill="none" stroke="#bcbcbc" stroke-width="8" stroke-linecap="round" stroke-linejoin="round" /><polyline points="523.55,970.90 528.11,961.20 529.28,956.88 535.67,933.33 558.81,851.74 561.02,843.93 563.37,835.36 573.85,797.03 591.55,732.29 595.63,717.37" fill="none" stroke="#bcbcbc" stroke-width="8" stroke-linecap="round" stroke-linejoin="round" /><polyline points="653.91,505.44 676.12,423.08 629.03,406.60 616.70,413.88 611.08,418.16 606.92,423.79 603.99,431.22 593.16,471.25 601.90,475.69 610.72,477.84 630.24,482.92 644.85,487.57 653.91,505.44" fill="none" stroke="#bcbcbc" stroke-width="8" stroke-linecap="round" stroke-linejoin="round" /><polyline points="593.16,471.25 582.85,469.81 342.21,436.29" fill="none" stroke="#bcbcbc" stroke-width="8" stroke-linecap="round" stroke-linejoin="round" /><polyline points="984.54,671.10 1006.86,675.97 1067.22,695.16 1084.10,700.49 1124.17,712.07 1164.52,723.70 1194.40,732.34 1242.18,746.13 1252.06,748.98 1276.17,757.07 1315.87,767.64 1319.37,768.30" fill="none" stroke="#bcbcbc" stroke-width="8" stroke-linecap="round" stroke-linejoin="round" /><polyline points="1012.85,1019.81 1004.71,1021.85 995.90,1046.39 982.25,1042.52 920.16,1021.36 912.69,1019.76 896.07,1018.57 820.88,1018.87 804.30,1016.76 766.87,1011.04 751.78,1008.59 644.69,991.32 603.22,984.70 524.14,971.00 511.37,968.47 332.90,918.59 321.64,915.44 245.29,889.49 226.51,882.82 179.59,863.38 152.85,853.27" fill="none" stroke="#bcbcbc" stroke-width="8" stroke-linecap="round" stroke-linejoin="round" /><polyline points="1176.42,-299.75 1168.69,-301.34 1065.54,-289.15 1028.66,-286.07" fill="none" stroke="#bcbcbc" stroke-width="8" stroke-linecap="round" stroke-linejoin="round" /><polyline points="984.54,671.10 988.16,665.05 1009.80,609.46 1033.99,525.40 1040.16,507.29 1043.46,502.37 1066.81,427.42 1067.97,418.47 1068.85,412.62" fill="none" stroke="#bcbcbc" stroke-width="8" stroke-linecap="round" stroke-linejoin="round" /><polyline points="1090.85,-140.89 1093.31,-141.83 1096.65,-144.48 1101.72,-150.42 1167.59,-244.92 1185.13,-269.91" fill="none" stroke="#bcbcbc" stroke-width="8" stroke-linecap="round" stroke-linejoin="round" /><polyline points="1383.98,206.26 1385.33,202.38 1418.44,163.43 1420.87,162.14 1426.62,154.27 1445.88,132.14 1451.87,126.63" fill="none" stroke="#bcbcbc" stroke-width="8" stroke-linecap="round" stroke-linejoin="round" /><polyline points="1412.91,495.31 1412.46,490.10 1412.10,486.06 1410.36,478.35 1408.27,473.33 1405.67,460.12 1405.44,455.33 1403.67,444.64 1395.79,440.52 1389.49,442.93 1378.22,445.63 1369.30,447.03 1360.74,449.09 1348.93,451.78 1343.54,453.01" fill="none" stroke="#bcbcbc" stroke-width="8" stroke-linecap="round" stroke-linejoin="round" /><polyline points="543.09,304.02 567.17,247.58 568.50,243.91" fill="none" stroke="#bcbcbc" stroke-width="8" stroke-linecap="round" stroke-linejoin="round" /><polyline points="1177.65,200.53 1189.25,196.03 1195.32,193.68 1200.01,188.93 1219.36,184.16 1225.85,185.82 1239.86,182.21 1250.54,179.46 1253.08,178.04 1263.44,175.50 1316.41,162.52 1328.41,158.93" fill="none" stroke="#bcbcbc" stroke-width="8" stroke-linecap="round" stroke-linejoin="round" /><polyline points="689.10,678.49 714.09,669.42 722.45,666.86 730.86,664.29 746.39,659.55 758.47,657.81 799.72,653.30 808.01,652.85 844.92,653.16 867.41,653.35 875.86,652.92 889.41,654.29 893.64,654.90 902.28,656.13 928.36,661.86" fill="none" stroke="#bcbcbc" stroke-width="8" stroke-linecap="round" stroke-linejoin="round" /><polyline points="808.15,-63.24 804.01,-77.24 788.64,-129.22 769.96,-188.49 766.11,-199.07 762.19,-208.98 757.24,-223.27" fill="none" stroke="#bcbcbc" stroke-width="8" stroke-linecap="round" stroke-linejoin="round" /><polyline points="763.44,774.84 766.72,764.47 799.93,659.74 799.72,653.30" fill="none" stroke="#bcbcbc" stroke-width="8" stroke-linecap="round" stroke-linejoin="round" /><polyline points="808.01,652.85 814.59,564.66 815.25,557.47 816.25,549.10 816.27,548.73 816.70,538.50 818.90,510.74 820.13,497.81 821.82,483.12 823.37,472.55 824.75,465.91 826.49,460.89 829.91,449.58 836.96,426.04 845.93,395.65 855.82,364.57 857.84,358.23 859.46,353.63" fill="none" stroke="#bcbcbc" stroke-width="8" stroke-linecap="round" stroke-linejoin="round" /><polyline points="593.16,471.25 591.41,479.06 591.71,481.56 602.43,570.77 603.56,580.21 603.07,589.93 600.26,645.42 599.09,668.60 598.49,680.55 597.41,701.87 596.85,712.96 595.63,717.37" fill="none" stroke="#bcbcbc" stroke-width="8" stroke-linecap="round" stroke-linejoin="round" /><polyline points="543.09,304.02 504.13,292.44 499.18,289.27 474.93,282.20 468.12,282.27 437.65,273.10 432.73,269.47 405.01,261.06 370.99,251.79 370.82,251.78 365.18,251.29" fill="none" stroke="#bcbcbc" stroke-width="8" stroke-linecap="round" stroke-linejoin="round" /><polyline points="1253.08,178.04 1254.44,179.81 1260.09,188.23 1270.53,203.80 1280.36,213.65 1299.26,234.86 1296.06,254.47 1294.44,261.82 1292.19,264.93 1296.93,271.94 1304.26,287.02 1318.91,315.28 1326.12,329.20 1330.60,341.71 1332.63,347.51" fill="none" stroke="#bcbcbc" stroke-width="8" stroke-linecap="round" stroke-linejoin="round" /><polyline points="1351.75,218.41 1346.32,220.10 1310.55,231.24 1305.41,232.88 1299.26,234.86" fill="none" stroke="#bcbcbc" stroke-width="8" stroke-linecap="round" stroke-linejoin="round" /><polyline points="1094.65,286.19 1105.84,282.56 1187.05,241.09 1197.92,235.78 1236.20,224.73 1273.31,214.29 1280.36,213.65" fill="none" stroke="#bcbcbc" stroke-width="8" stroke-linecap="round" stroke-linejoin="round" /><polyline points="1103.50,337.52 1197.13,293.95 1201.07,291.35 1210.22,288.68 1272.61,270.53 1282.07,266.91 1292.19,264.93" fill="none" stroke="#bcbcbc" stroke-width="8" stroke-linecap="round" stroke-linejoin="round" /><polyline points="1084.40,-575.82 1122.30,-571.14 1126.10,-570.67 1140.80,-567.06" fill="none" stroke="#bcbcbc" stroke-width="8" stroke-linecap="round" stroke-linejoin="round" /><polyline points="1408.26,-190.53 1414.98,-191.93 1440.10,-179.62 1443.40,-176.35 1490.54,-96.56 1491.79,-86.88 1497.92,-81.77 1496.94,-78.25 1496.79,-72.49 1497.64,-64.45 1510.13,-13.14 1511.23,22.40 1512.98,79.14 1515.92,155.52 1503.96,188.80 1496.26,209.09 1485.01,237.68 1481.76,245.95 1479.64,248.26 1476.25,270.39" fill="none" stroke="#bcbcbc" stroke-width="8" stroke-linecap="round" stroke-linejoin="round" /><polyline points="1495.42,405.17 1483.95,400.18 1455.30,380.19 1417.50,353.63 1396.71,336.82 1382.69,321.80" fill="none" stroke="#bcbcbc" stroke-width="8" stroke-linecap="round" stroke-linejoin="round" /><polyline points="1031.55,852.36 1020.29,848.79 1002.02,842.99 993.30,840.23 983.06,836.98 970.12,832.88 958.42,829.17 946.86,825.50 895.28,809.14 886.25,806.27 875.03,802.72 872.55,801.93 843.06,794.14 834.73,792.13 824.29,789.60 813.36,786.95 773.99,777.40 763.44,774.84 752.09,770.90 728.39,762.67 719.45,759.57 711.46,756.98 674.34,743.78 669.67,740.99 667.42,736.15" fill="none" stroke="#bcbcbc" stroke-width="8" stroke-linecap="round" stroke-linejoin="round" /><polyline points="1201.07,291.35 1198.33,281.55 1190.19,252.33 1187.05,241.09 1182.52,232.70 1182.10,231.14 1179.43,221.25 1182.54,216.87 1178.80,204.40 1177.65,200.53" fill="none" stroke="#bcbcbc" stroke-width="8" stroke-linecap="round" stroke-linejoin="round" /><polyline points="1187.44,-66.18 1195.19,-69.83 1237.51,-93.17 1261.71,-108.72 1278.77,-120.37 1282.54,-123.17 1296.27,-132.72 1310.50,-143.23 1319.51,-149.79 1330.26,-157.64 1367.60,-174.49 1372.44,-174.23 1379.52,-177.58 1408.26,-190.53" fill="none" stroke="#bcbcbc" stroke-width="8" stroke-linecap="round" stroke-linejoin="round" /><polyline points="718.32,92.89 724.42,95.36 728.46,96.60 804.15,119.85 815.71,123.40" fill="none" stroke="#bcbcbc" stroke-width="8" stroke-linecap="round" stroke-linejoin="round" /><polyline points="177.69,263.09 123.61,246.72" fill="none" stroke="#bcbcbc" stroke-width="8" stroke-linecap="round" stroke-linejoin="round" /><polyline points="1051.16,-499.45 1064.57,-482.47 1066.57,-479.93 1073.34,-471.36 1081.05,-470.45 1096.91,-468.59 1099.73,-466.64" fill="none" stroke="#bcbcbc" stroke-width="8" stroke-linecap="round" stroke-linejoin="round" /><polyline points="1516.74,255.97 1495.49,259.93 1473.71,271.77 1453.51,283.01 1434.41,292.56 1411.34,305.09 1394.62,315.24 1361.60,332.94 1232.68,397.80 1199.26,412.52 1177.18,422.07 1166.23,425.65 1157.18,427.34 1142.36,428.24 1121.27,425.25 1068.65,412.62 993.95,395.21 895.67,365.57 859.46,353.63 800.18,335.33 743.48,316.63 660.32,284.00 618.74,266.10 568.60,243.81 485.44,198.26 465.95,185.33 416.61,154.29 395.92,133.60 364.88,93.42 313.75,40.70 293.66,22.99" fill="none" stroke="#bcbcbc" stroke-width="8" stroke-linecap="round" stroke-linejoin="round" /><polyline points="1113.63,878.30 1114.50,873.44 1117.65,865.50 1147.14,796.50 1158.28,770.64 1171.41,738.41 1174.61,726.61" fill="none" stroke="#bcbcbc" stroke-width="8" stroke-linecap="round" stroke-linejoin="round" /><polyline points="547.90,586.98 514.40,570.76 438.18,533.87 344.68,488.63 336.34,484.59" fill="none" stroke="#bcbcbc" stroke-width="8" stroke-linecap="round" stroke-linejoin="round" /><polyline points="1098.45,52.99 1106.91,44.33 1129.40,21.31 1147.24,1.82" fill="none" stroke="#bcbcbc" stroke-width="8" stroke-linecap="round" stroke-linejoin="round" /><polyline points="449.01,104.28 439.72,91.98 396.17,34.33 334.01,-15.97" fill="none" stroke="#bcbcbc" stroke-width="8" stroke-linecap="round" stroke-linejoin="round" /><polyline points="179.26,863.24 187.76,843.08 214.78,775.70 218.06,766.86 221.69,757.05 223.07,753.51 223.44,747.96 226.90,695.58 227.89,680.56" fill="none" stroke="#bcbcbc" stroke-width="8" stroke-linecap="round" stroke-linejoin="round" /><polyline points="160.82,321.61 177.69,263.09 199.95,185.91 202.71,176.35 205.77,165.50 212.63,141.20 213.35,138.64 215.31,130.83 218.45,122.00 219.21,119.86 223.16,110.05 230.93,92.91 233.26,87.99" fill="none" stroke="#bcbcbc" stroke-width="8" stroke-linecap="round" stroke-linejoin="round" /><polyline points="202.71,176.35 236.85,185.08 309.16,203.67 350.37,216.50 367.55,220.52" fill="none" stroke="#bcbcbc" stroke-width="8" stroke-linecap="round" stroke-linejoin="round" /><polyline points="905.45,-89.17 906.61,-96.27 907.78,-103.65 912.79,-128.32 925.30,-185.76 935.58,-237.13 937.46,-247.79 940.01,-262.26 940.01,-262.28" fill="none" stroke="#bcbcbc" stroke-width="8" stroke-linecap="round" stroke-linejoin="round" /><polyline points="804.37,1016.77 819.61,977.89 821.51,970.91 882.00,817.35 886.25,806.27 889.69,796.87 925.84,691.71 932.80,685.64" fill="none" stroke="#bcbcbc" stroke-width="8" stroke-linecap="round" stroke-linejoin="round" /><polyline points="1011.73,-118.90 1011.72,-118.91 1009.58,-130.16 1009.25,-131.52 1004.02,-152.77 1004.02,-152.84 1000.46,-167.25 985.37,-218.98 983.46,-224.53 973.27,-252.24 969.95,-260.51 967.82,-265.85 965.04,-271.91 965.04,-271.92 965.04,-271.95 963.01,-294.23 962.82,-305.17" fill="none" stroke="#bcbcbc" stroke-width="8" stroke-linecap="round" stroke-linejoin="round" /><polyline points="989.10,758.84 985.22,763.03 979.43,769.91 963.14,815.87 958.42,829.17" fill="none" stroke="#bcbcbc" stroke-width="8" stroke-linecap="round" stroke-linejoin="round" /><polyline points="718.32,92.89 720.55,86.85 721.05,85.45 731.63,55.89 735.60,43.44 768.04,-51.94" fill="none" stroke="#bcbcbc" stroke-width="8" stroke-linecap="round" stroke-linejoin="round" /><polyline points="886.11,226.60 889.42,217.81 898.39,194.00 902.18,183.93 904.74,177.12 911.93,158.02 916.68,145.39 917.32,143.70 928.84,113.12 933.65,114.61 936.26,107.51 940.87,94.96 939.98,89.25 952.23,55.91 953.49,52.49 955.81,50.36 957.76,48.56 970.04,15.00 971.82,5.81 989.44,-43.15 993.60,-46.41 1002.08,-70.39 1000.57,-74.07 1008.00,-96.46 1004.14,-116.46" fill="none" stroke="#bcbcbc" stroke-width="8" stroke-linecap="round" stroke-linejoin="round" /><polyline points="1201.28,-683.94 1196.34,-692.04 1170.40,-734.60" fill="none" stroke="#bcbcbc" stroke-width="8" stroke-linecap="round" stroke-linejoin="round" /><polyline points="1282.54,-123.17 1401.59,-46.62 1401.62,-46.57 1401.62,-46.55 1423.64,-43.70" fill="none" stroke="#bcbcbc" stroke-width="8" stroke-linecap="round" stroke-linejoin="round" /><polyline points="1234.80,-283.09 1361.46,-219.51 1365.28,-216.66 1365.03,-195.85 1367.60,-174.49" fill="none" stroke="#bcbcbc" stroke-width="8" stroke-linecap="round" stroke-linejoin="round" /><polyline points="993.30,840.23 988.75,854.13 970.29,910.41 938.90,1005.20 936.67,1011.93 934.42,1018.74 933.79,1026.00" fill="none" stroke="#bcbcbc" stroke-width="8" stroke-linecap="round" stroke-linejoin="round" /><polyline points="1349.89,498.31 1350.64,491.25 1350.81,484.66 1350.75,484.43 1346.26,465.03 1344.42,456.92 1343.54,453.01 1342.63,449.02 1337.70,427.31 1328.08,383.93 1321.08,357.85 1320.09,353.82" fill="none" stroke="#bcbcbc" stroke-width="8" stroke-linecap="round" stroke-linejoin="round" /><polyline points="721.02,895.39 724.16,886.46 759.43,786.22 763.44,774.84" fill="none" stroke="#bcbcbc" stroke-width="8" stroke-linecap="round" stroke-linejoin="round" /><polyline points="1512.98,79.14 1502.60,76.21 1432.13,-31.92 1423.64,-43.70" fill="none" stroke="#bcbcbc" stroke-width="8" stroke-linecap="round" stroke-linejoin="round" /><polyline points="354.48,338.60 611.32,400.14 629.03,406.60" fill="none" stroke="#bcbcbc" stroke-width="8" stroke-linecap="round" stroke-linejoin="round" /><polyline points="1164.56,-622.83 1264.61,-585.77 1278.69,-588.18" fill="none" stroke="#bcbcbc" stroke-width="8" stroke-linecap="round" stroke-linejoin="round" />
    <polyline points="167.20,332.91 352.80,352.80" fill="none" stroke="#ffffff" stroke-width="16" stroke-linecap="round" stroke-linejoin="round" />
    <polyline points="167.20,332.91 352.80,352.80" fill="none" stroke="#111111" stroke-width="9" stroke-linecap="round" stroke-linejoin="round" />
    
            <g transform="translate(167.20,332.91)">
              <circle r="19" fill="#ffffff" stroke="#111111" stroke-width="4" />
              <text text-anchor="middle" dominant-baseline="central" font-family="Helvetica, Arial, sans-serif"
                font-size="18" font-weight="700" fill="#111111">1</text>
            </g>
            
            <g transform="translate(352.80,352.80)">
              <circle r="19" fill="#ffffff" stroke="#111111" stroke-width="4" />
              <text text-anchor="middle" dominant-baseline="central" font-family="Helvetica, Arial, sans-serif"
                font-size="18" font-weight="700" fill="#111111">2</text>
            </g>
            
  </g>
</svg>
