<svg xmlns="http://www.w3.org/2000/svg" width="520" height="520" viewBox="0 0 520 520">
  <rect width="100%" height="100%" fill="#ffffff" />
  <g>
    <polyline points="698.52,348.58 700.38,358.44 712.35,442.19 710.52,463.12" fill="none" stroke="#bcbcbc" stroke-width="8" stroke-linecap="round" stroke-linejoin="round" /><polyline points="455.23,1046.43 458.12,1037.53 473.46,990.37 475.27,984.81 477.09,978.98 515.65,856.02 518.75,846.13 511.65,828.64" fill="none" stroke="#bcbcbc" stroke-width="8" stroke-linecap="round" stroke-linejoin="round" /><polyline points="188.91,937.06 188.29,930.00 200.90,859.39 202.66,850.56 203.98,845.94 207.45,828.03 211.35,806.12 215.60,786.82 219.81,767.56 222.47,762.13 224.20,758.80" fill="none" stroke="#bcbcbc" stroke-width="8" stroke-linecap="round" stroke-linejoin="round" /><polyline points="262.08,439.03 259.08,429.89 228.11,335.41 226.59,331.45" fill="none" stroke="#bcbcbc" stroke-width="8" stroke-linecap="round" stroke-linejoin="round" /><polyline points="103.13,1270.58 104.06,1261.56 104.43,1257.42 107.81,1220.12 111.50,1187.27 112.36,1179.60 113.16,1170.40 113.25,1169.63 115.34,1151.33 117.15,1132.74 119.13,1114.79 120.47,1100.82 121.03,1092.20 121.52,1084.23 122.40,1075.26" fill="none" stroke="#bcbcbc" stroke-width="8" stroke-linecap="round" stroke-linejoin="round" /><polyline points="531.15,1068.35 533.35,1061.41 548.90,1012.54 550.66,1006.99 553.17,999.08 554.97,993.41 568.73,934.07" fill="none" stroke="#bcbcbc" stroke-width="8" stroke-linecap="round" stroke-linejoin="round" /><polyline points="470.73,101.73 476.47,102.61 634.64,126.92" fill="none" stroke="#bcbcbc" stroke-width="8" stroke-linecap="round" stroke-linejoin="round" /><polyline points="64.65,1056.83 48.19,1056.07 38.15,1055.60 32.70,1055.35 27.91,1055.12 -9.37,1053.39 -61.23,1050.98 -85.94,1047.47 -94.22,1046.30 -101.39,1045.03 -150.01,1036.45 -156.80,1035.25 -158.31,1034.99 -166.70,1033.56 -173.15,1032.45 -214.35,1028.81 -222.19,1028.12 -225.07,1027.86 -233.98,1027.24 -251.41,1026.03" fill="none" stroke="#bcbcbc" stroke-width="8" stroke-linecap="round" stroke-linejoin="round" /><polyline points="303.84,1009.06 307.03,999.99 335.77,920.32 370.34,819.84 372.55,813.53 374.10,809.13 375.35,805.52" fill="none" stroke="#bcbcbc" stroke-width="8" stroke-linecap="round" stroke-linejoin="round" /><polyline points="-225.07,1027.86 -225.80,1022.74 -225.98,1017.17 -224.89,1005.97 -222.38,985.52 -220.71,978.65 -218.01,953.83 -217.51,948.30 -216.72,941.19 -216.13,935.91 -215.02,929.92 -212.96,913.82 -211.53,901.51 -209.43,896.47" fill="none" stroke="#bcbcbc" stroke-width="8" stroke-linecap="round" stroke-linejoin="round" /><polyline points="-254.48,890.18 -216.15,895.53 -209.43,896.47 -205.27,897.13 -188.09,899.87 -148.50,906.18 -141.71,907.31" fill="none" stroke="#bcbcbc" stroke-width="8" stroke-linecap="round" stroke-linejoin="round" /><polyline points="450.93,387.30 451.18,390.79 451.69,394.32 452.94,397.02 455.27,400.03 459.58,403.96 469.80,410.17 548.60,459.62 597.14,524.70 633.80,615.18 636.19,621.16" fill="none" stroke="#bcbcbc" stroke-width="8" stroke-linecap="round" stroke-linejoin="round" /><polyline points="438.31,651.33 439.94,654.03 440.37,654.73 441.72,661.56 450.97,706.27 453.90,720.46 456.00,730.57 459.28,751.06 460.80,760.51 461.86,766.28 463.01,771.48 464.39,774.52 466.42,778.04 467.50,779.69 487.98,809.01 499.05,826.46 501.94,830.63" fill="none" stroke="#bcbcbc" stroke-width="8" stroke-linecap="round" stroke-linejoin="round" /><polyline points="-149.54,1211.21 -148.45,1204.50 -147.44,1199.65 -147.17,1199.01 -133.54,1166.60 -124.85,1145.53 -122.21,1138.86 -119.42,1131.79 -116.38,1125.71 -115.89,1124.52 -111.74,1114.48 -108.52,1105.59 -105.77,1097.44 -104.02,1091.67 -102.06,1084.55 -99.80,1075.00 -98.08,1067.26 -96.03,1056.44 -95.60,1054.03 -94.22,1046.30" fill="none" stroke="#bcbcbc" stroke-width="8" stroke-linecap="round" stroke-linejoin="round" /><polyline points="510.79,306.15 554.25,336.52 560.11,337.76 564.39,342.66" fill="none" stroke="#bcbcbc" stroke-width="8" stroke-linecap="round" stroke-linejoin="round" /><polyline points="328.31,586.62 334.06,588.83 358.99,596.99 416.83,619.17 420.08,622.40 421.60,624.82" fill="none" stroke="#bcbcbc" stroke-width="8" stroke-linecap="round" stroke-linejoin="round" /><polyline points="436.10,1156.65 440.03,1146.39 459.48,1093.63 473.23,1053.77 476.08,1052.45" fill="none" stroke="#bcbcbc" stroke-width="8" stroke-linecap="round" stroke-linejoin="round" /><polyline points="161.23,1089.75 164.30,1082.97 164.61,1082.30 169.86,1064.69 178.46,1035.70 180.66,1028.28 182.37,1022.52 182.60,1019.16 182.25,1011.73" fill="none" stroke="#bcbcbc" stroke-width="8" stroke-linecap="round" stroke-linejoin="round" /><polyline points="518.64,653.64 513.71,654.66 502.54,652.67 500.81,648.06 481.45,640.68 476.87,641.88 459.41,635.47 456.80,637.28" fill="none" stroke="#bcbcbc" stroke-width="8" stroke-linecap="round" stroke-linejoin="round" /><polyline points="489.90,54.84 498.67,56.99 503.52,57.83 618.91,77.84" fill="none" stroke="#bcbcbc" stroke-width="8" stroke-linecap="round" stroke-linejoin="round" /><polyline points="400.22,1124.52 405.01,1110.99 414.34,1084.69 420.37,1073.49 429.04,1049.20 432.51,1039.51" fill="none" stroke="#bcbcbc" stroke-width="8" stroke-linecap="round" stroke-linejoin="round" /><polyline points="-232.00,599.27 -240.36,598.89 -242.45,601.43 -257.01,619.12 -307.91,677.92 -315.07,686.19" fill="none" stroke="#bcbcbc" stroke-width="8" stroke-linecap="round" stroke-linejoin="round" /><polyline points="214.42,649.63 210.73,657.79 210.28,658.79 197.46,692.21 184.54,729.01 181.10,738.82 179.14,743.89" fill="none" stroke="#bcbcbc" stroke-width="8" stroke-linecap="round" stroke-linejoin="round" /><polyline points="402.43,274.04 406.50,279.57 409.41,287.16 413.93,298.07 421.19,315.22 427.62,330.61 435.01,347.52 440.48,360.55 441.29,362.42 441.34,362.53 445.75,372.84 447.07,375.77 448.32,378.56 449.64,381.17 450.64,383.82 450.93,387.30" fill="none" stroke="#bcbcbc" stroke-width="8" stroke-linecap="round" stroke-linejoin="round" /><polyline points="90.71,814.40 92.84,813.24 95.82,810.87 97.31,807.79 117.11,732.70 117.71,728.46 120.13,720.73" fill="none" stroke="#bcbcbc" stroke-width="8" stroke-linecap="round" stroke-linejoin="round" /><polyline points="783.13,696.89 785.94,705.81 787.92,715.17 784.07,750.87 779.62,777.71 777.19,786.87 776.97,787.70 774.85,792.64 771.94,797.88 765.17,806.45 768.45,823.21 757.84,859.17 751.98,879.04 739.99,911.55 722.43,951.13 701.00,989.06 694.30,1001.39 682.20,1021.65 633.84,1090.29 623.25,1104.57 582.22,1158.19 558.66,1184.99 525.72,1218.48 522.67,1218.79 515.23,1224.87" fill="none" stroke="#bcbcbc" stroke-width="8" stroke-linecap="round" stroke-linejoin="round" /><polyline points="186.45,1284.01 199.95,1242.15 202.16,1235.23 205.16,1230.88 211.60,1211.53 213.70,1204.95 240.33,1121.57 243.01,1113.18 245.22,1105.81 276.65,1006.89" fill="none" stroke="#bcbcbc" stroke-width="8" stroke-linecap="round" stroke-linejoin="round" /><polyline points="502.67,505.37 514.34,492.62 517.78,488.47 541.36,455.07" fill="none" stroke="#bcbcbc" stroke-width="8" stroke-linecap="round" stroke-linejoin="round" /><polyline points="269.43,510.42 301.57,521.61 303.35,524.50 312.47,527.56 317.89,529.41 343.79,538.16" fill="none" stroke="#bcbcbc" stroke-width="8" stroke-linecap="round" stroke-linejoin="round" /><polyline points="549.53,288.03 564.39,342.66 581.60,407.03 584.21,412.39 584.62,418.52 596.29,440.30 627.78,499.03 634.66,509.18 636.65,512.16 683.70,600.12 705.32,619.78 708.35,623.69 712.63,627.35 753.68,662.46 756.47,664.84 763.84,668.75" fill="none" stroke="#bcbcbc" stroke-width="8" stroke-linecap="round" stroke-linejoin="round" /><polyline points="389.87,1292.90 492.25,1233.42 510.47,1224.10 515.23,1224.87" fill="none" stroke="#bcbcbc" stroke-width="8" stroke-linecap="round" stroke-linejoin="round" /><polyline points="500.87,1207.81 507.22,1200.26 564.25,1086.46 568.03,1079.00 571.19,1071.61 589.61,1026.05 595.09,1012.33 610.97,964.27 621.27,902.49 622.49,893.50" fill="none" stroke="#bcbcbc" stroke-width="8" stroke-linecap="round" stroke-linejoin="round" /><polyline points="456.86,538.55 455.86,539.57 454.49,544.36 454.35,544.84 448.16,568.67 449.79,574.89 448.44,580.47 446.67,587.77 442.14,593.02 437.00,613.84 430.95,618.41 424.48,622.84 421.60,624.82" fill="none" stroke="#bcbcbc" stroke-width="8" stroke-linecap="round" stroke-linejoin="round" /><polyline points="214.42,649.63 217.05,642.88 232.87,602.32 236.32,593.47 239.16,586.19 259.38,534.39 268.48,512.73 269.43,510.42 276.51,493.32 292.38,453.91 298.19,437.13 299.49,433.28 301.22,428.92" fill="none" stroke="#bcbcbc" stroke-width="8" stroke-linecap="round" stroke-linejoin="round" /><polyline points="391.46,403.75 394.52,412.85 494.92,498.63 549.71,546.30 631.55,617.45 638.69,623.16 641.89,625.16 656.09,638.05 675.06,654.23 718.07,690.91 731.97,702.86 741.18,713.88" fill="none" stroke="#bcbcbc" stroke-width="8" stroke-linecap="round" stroke-linejoin="round" /><polyline points="557.47,255.95 562.57,252.69 592.74,240.15 598.94,233.62" fill="none" stroke="#bcbcbc" stroke-width="8" stroke-linecap="round" stroke-linejoin="round" /><polyline points="592.32,1019.27 550.66,1006.99 475.27,984.81" fill="none" stroke="#bcbcbc" stroke-width="8" stroke-linecap="round" stroke-linejoin="round" /><polyline points="457.86,133.18 463.55,137.10 648.95,178.36" fill="none" stroke="#bcbcbc" stroke-width="8" stroke-linecap="round" stroke-linejoin="round" /><polyline points="686.88,743.67 677.29,722.35 656.03,671.63 654.44,667.60 650.81,658.34 637.10,623.46 636.24,621.19" fill="none" stroke="#bcbcbc" stroke-width="8" stroke-linecap="round" stroke-linejoin="round" /><polyline points="402.43,274.04 392.13,271.11 384.57,268.86 369.20,264.29 361.39,262.07 356.91,260.82 351.07,259.15" fill="none" stroke="#bcbcbc" stroke-width="8" stroke-linecap="round" stroke-linejoin="round" /><polyline points="134.04,553.00 133.52,551.30 133.04,550.11 130.92,544.84 122.70,525.67 114.89,506.21 113.21,501.61 111.26,496.32 109.87,491.99 107.58,485.50 107.34,484.81 99.86,466.39 86.14,431.78 83.06,430.02 80.87,424.40 76.49,409.20 69.00,390.36 67.38,386.07" fill="none" stroke="#bcbcbc" stroke-width="8" stroke-linecap="round" stroke-linejoin="round" /><polyline points="199.95,1242.15 207.74,1244.53 232.95,1252.21 240.84,1254.62" fill="none" stroke="#bcbcbc" stroke-width="8" stroke-linecap="round" stroke-linejoin="round" /><polyline points="670.68,265.02 672.15,259.08 671.55,256.82 670.83,254.10 666.23,237.24 655.97,201.59 650.56,183.37 648.95,178.36 634.64,126.92 626.92,99.18 618.91,77.84 611.67,58.59 604.46,45.36 597.45,38.37 543.69,-27.34 539.71,-32.02 537.07,-36.34" fill="none" stroke="#bcbcbc" stroke-width="8" stroke-linecap="round" stroke-linejoin="round" /><polyline points="450.93,387.30 448.16,388.36 443.03,389.78 442.52,389.92 421.10,395.40 396.48,402.33 391.46,403.75 389.22,404.46 383.30,406.36 378.25,407.77 356.17,413.91 319.86,424.23 306.32,427.65 301.22,428.92 277.03,434.86 262.08,439.03 230.42,447.87 199.13,456.69 195.51,457.70 169.36,464.95 157.30,468.30 151.21,471.18 139.68,476.90 116.78,488.52 115.19,489.33 109.87,491.99 106.63,493.61 102.10,495.98 86.02,504.42 56.70,520.87 32.22,533.70 28.71,535.53 24.04,535.82 21.22,537.32 20.66,537.62 -5.90,552.17 -11.46,552.15 -17.85,555.49 -20.08,556.66 -21.96,557.64 -26.40,559.97 -29.90,567.95 -44.93,576.00 -49.71,578.56 -54.89,581.38 -75.80,592.76 -86.62,598.64 -92.07,600.22" fill="none" stroke="#bcbcbc" stroke-width="8" stroke-linecap="round" stroke-linejoin="round" /><polyline points="751.98,879.04 740.81,880.06 705.95,883.25 704.38,883.40 702.15,883.60 698.55,883.93 664.75,887.04 652.99,885.94 639.30,889.38 628.33,892.07 622.49,893.50 607.97,894.05 595.41,893.41 589.00,892.73 583.55,891.08 579.54,888.86 564.59,878.29 528.27,853.34 524.84,851.02 521.36,848.65 518.75,846.13" fill="none" stroke="#bcbcbc" stroke-width="8" stroke-linecap="round" stroke-linejoin="round" /><polyline points="-70.68,457.82 -57.50,483.62 -55.51,491.00 -44.40,512.18 -39.82,518.24 -21.26,554.35 -20.08,556.66" fill="none" stroke="#bcbcbc" stroke-width="8" stroke-linecap="round" stroke-linejoin="round" /><polyline points="333.21,687.30 331.23,692.72 330.68,694.41 328.11,702.21 311.80,747.71 303.71,770.30 303.43,771.07 300.18,778.10 298.32,782.27" fill="none" stroke="#bcbcbc" stroke-width="8" stroke-linecap="round" stroke-linejoin="round" /><polyline points="549.53,288.03 547.72,284.16 542.97,283.53 527.60,287.06 524.48,286.65 522.03,283.37 517.68,263.37 541.24,259.72 552.14,256.50 557.47,255.95 563.22,276.37" fill="none" stroke="#bcbcbc" stroke-width="8" stroke-linecap="round" stroke-linejoin="round" /><polyline points="634.66,509.18 640.73,505.78 671.20,487.41 679.35,482.56 693.60,474.06 717.06,458.89 722.53,454.96 763.67,429.43" fill="none" stroke="#bcbcbc" stroke-width="8" stroke-linecap="round" stroke-linejoin="round" /><polyline points="778.47,629.74 768.07,626.64 762.02,621.68 738.91,601.68 738.13,600.98 732.54,596.00 729.25,590.17 671.20,487.41" fill="none" stroke="#bcbcbc" stroke-width="8" stroke-linecap="round" stroke-linejoin="round" /><polyline points="123.33,621.60 214.42,649.63 221.85,651.98 289.82,673.53 291.24,673.98 301.42,677.21 306.42,678.80 312.93,680.58 326.35,685.12 333.21,687.30 339.38,689.26 389.97,705.30 443.36,722.08 447.78,723.47 453.90,720.46" fill="none" stroke="#bcbcbc" stroke-width="8" stroke-linecap="round" stroke-linejoin="round" /><polyline points="391.14,171.89 430.60,135.64 437.28,129.50" fill="none" stroke="#bcbcbc" stroke-width="8" stroke-linecap="round" stroke-linejoin="round" /><polyline points="-269.53,756.91 -124.76,772.43" fill="none" stroke="#bcbcbc" stroke-width="8" stroke-linecap="round" stroke-linejoin="round" /><polyline points="371.57,1089.18 400.22,1124.52 417.75,1142.18 425.35,1147.65 436.10,1156.65 446.19,1165.13 454.86,1173.59 455.08,1177.90" fill="none" stroke="#bcbcbc" stroke-width="8" stroke-linecap="round" stroke-linejoin="round" /><polyline points="402.43,274.04 413.65,245.90 431.83,199.56 457.86,133.18 470.73,101.73 489.90,54.84 505.62,16.43 508.43,11.33 522.25,-11.27 523.15,-12.73 528.20,-22.68 537.07,-36.34 542.03,-43.96 549.03,-54.75" fill="none" stroke="#bcbcbc" stroke-width="8" stroke-linecap="round" stroke-linejoin="round" /><polyline points="137.56,1026.50 135.73,1027.97 134.51,1029.72 132.03,1037.03 130.32,1042.30 122.41,1065.95 121.33,1069.37 120.65,1071.48 113.39,1069.40 95.71,1063.47 78.19,1057.60 64.65,1056.83" fill="none" stroke="#bcbcbc" stroke-width="8" stroke-linecap="round" stroke-linejoin="round" /><polyline points="-208.62,1191.10 -179.75,1116.55 -176.54,1108.43 -173.66,1100.61 -170.18,1091.17 -165.91,1076.31 -161.46,1057.84 -159.63,1044.61 -158.31,1034.99 -156.44,1027.90 -149.65,974.59 -141.71,907.31 -137.60,875.24 -133.02,837.56 -124.76,772.43 -123.45,761.36 -115.10,693.25 -115.10,689.45 -113.25,669.24 -107.93,626.55 -106.59,619.11 -105.20,614.93 -103.02,610.33 -100.91,606.76 -96.24,601.70 -92.06,600.27" fill="none" stroke="#bcbcbc" stroke-width="8" stroke-linecap="round" stroke-linejoin="round" /><polyline points="421.60,624.82 423.18,627.32 428.47,635.59 436.40,648.30 438.31,651.33 441.47,648.92 456.80,637.28" fill="none" stroke="#bcbcbc" stroke-width="8" stroke-linecap="round" stroke-linejoin="round" /><polyline points="431.83,199.56 587.81,227.76 604.19,236.39 665.30,266.68 670.68,265.02" fill="none" stroke="#bcbcbc" stroke-width="8" stroke-linecap="round" stroke-linejoin="round" /><polyline points="134.04,553.00 131.28,557.04 106.39,569.19 88.12,592.42 68.39,604.63 54.90,614.82 42.04,625.31 35.44,631.33 23.79,646.11 10.75,664.79 8.61,668.25" fill="none" stroke="#bcbcbc" stroke-width="8" stroke-linecap="round" stroke-linejoin="round" /><polyline points="160.35,569.67 159.27,572.07 156.91,575.52 152.45,581.00 126.17,614.21 112.26,651.67 42.07,625.28" fill="none" stroke="#bcbcbc" stroke-width="8" stroke-linecap="round" stroke-linejoin="round" /><polyline points="54.90,614.82 52.19,606.59 40.44,571.02 35.88,563.99 28.25,541.09 27.59,539.12 28.71,535.53 26.89,529.69 -9.82,412.49" fill="none" stroke="#bcbcbc" stroke-width="8" stroke-linecap="round" stroke-linejoin="round" /><polyline points="484.97,-24.67 513.98,-23.90 515.33,-23.86 520.89,-23.71 528.20,-22.68" fill="none" stroke="#bcbcbc" stroke-width="8" stroke-linecap="round" stroke-linejoin="round" /><polyline points="335.77,920.32 325.87,920.20 242.00,931.46 235.96,932.10 229.04,932.83 188.91,937.06 134.85,942.77 106.18,945.80 90.33,947.47 77.45,949.03 70.84,949.84 63.39,950.74 27.42,955.11 18.80,956.16 -7.76,959.07 -149.65,974.59" fill="none" stroke="#bcbcbc" stroke-width="8" stroke-linecap="round" stroke-linejoin="round" /><polyline points="211.60,1211.53 204.17,1209.14 169.47,1197.96 162.46,1195.71 156.37,1193.75 119.61,1181.93 112.36,1179.60 102.77,1176.51 44.25,1157.68 37.66,1155.56" fill="none" stroke="#bcbcbc" stroke-width="8" stroke-linecap="round" stroke-linejoin="round" /><polyline points="356.70,508.91 376.89,515.20 450.70,537.99 451.39,538.20 456.86,538.55" fill="none" stroke="#bcbcbc" stroke-width="8" stroke-linecap="round" stroke-linejoin="round" /><polyline points="564.39,342.66 664.80,344.43" fill="none" stroke="#bcbcbc" stroke-width="8" stroke-linecap="round" stroke-linejoin="round" /><polyline points="515.23,1224.87 500.87,1207.81 494.85,1200.81 489.67,1195.97 482.79,1190.83 468.70,1182.38 455.08,1177.90 427.36,1169.33 404.68,1162.14 417.75,1142.18" fill="none" stroke="#bcbcbc" stroke-width="8" stroke-linecap="round" stroke-linejoin="round" /><polyline points="371.57,1089.18 351.58,1064.51 347.78,1059.82 327.65,1032.08 323.09,1023.61 324.19,1013.53 330.26,1013.47 345.23,1016.35 368.01,1020.73" fill="none" stroke="#bcbcbc" stroke-width="8" stroke-linecap="round" stroke-linejoin="round" /><polyline points="110.11,891.51 113.80,899.44 134.85,942.77 166.15,1007.21 170.14,1015.43" fill="none" stroke="#bcbcbc" stroke-width="8" stroke-linecap="round" stroke-linejoin="round" /><polyline points="-227.03,1087.79 -219.50,1090.87 -184.24,1105.28 -176.54,1108.43 -168.44,1111.74 -126.93,1128.72 -119.42,1131.79" fill="none" stroke="#bcbcbc" stroke-width="8" stroke-linecap="round" stroke-linejoin="round" /><polyline points="127.43,827.25 200.90,859.39" fill="none" stroke="#bcbcbc" stroke-width="8" stroke-linecap="round" stroke-linejoin="round" /><polyline points="456.86,538.55 468.05,539.13 468.76,539.77 473.78,544.22 481.16,550.81 482.52,553.46 507.96,575.73 509.84,579.29 527.72,595.07 532.22,596.45 546.14,608.63 549.25,610.05 570.23,627.85 574.90,631.99 577.48,636.10" fill="none" stroke="#bcbcbc" stroke-width="8" stroke-linecap="round" stroke-linejoin="round" /><polyline points="-247.76,827.33 -133.02,837.56" fill="none" stroke="#bcbcbc" stroke-width="8" stroke-linecap="round" stroke-linejoin="round" /><polyline points="8.43,1254.61 11.99,1247.05 12.90,1243.68 17.88,1225.31 35.93,1161.66 37.66,1155.56 39.49,1148.88 47.66,1118.97 61.47,1068.47 64.65,1056.83" fill="none" stroke="#bcbcbc" stroke-width="8" stroke-linecap="round" stroke-linejoin="round" /><polyline points="110.11,891.51 127.43,827.25 90.71,814.40 81.09,820.08 76.70,823.42 73.46,827.81 71.17,833.61 62.73,864.83 69.54,868.30 76.43,869.97 91.65,873.93 103.04,877.56 110.11,891.51" fill="none" stroke="#bcbcbc" stroke-width="8" stroke-linecap="round" stroke-linejoin="round" /><polyline points="62.73,864.83 54.68,863.71 -133.02,837.56" fill="none" stroke="#bcbcbc" stroke-width="8" stroke-linecap="round" stroke-linejoin="round" /><polyline points="368.01,1020.73 385.42,1024.54 432.51,1039.51 445.67,1043.67 476.92,1052.70 508.40,1061.77 531.71,1068.51 568.98,1079.27 576.68,1081.50 595.49,1087.80 626.45,1096.05 629.18,1096.56" fill="none" stroke="#bcbcbc" stroke-width="8" stroke-linecap="round" stroke-linejoin="round" /><polyline points="390.10,1292.77 383.74,1294.36 376.87,1313.51 366.22,1310.48 317.80,1293.98 311.97,1292.73 299.00,1291.80 240.35,1292.04 227.42,1290.39 198.23,1285.93 186.45,1284.01 102.92,1270.54 70.58,1265.38 8.89,1254.69 -1.07,1252.72 -140.28,1213.81 -149.07,1211.35 -208.62,1191.10 -223.27,1185.91 -259.87,1170.74 -280.73,1162.85" fill="none" stroke="#bcbcbc" stroke-width="8" stroke-linecap="round" stroke-linejoin="round" /><polyline points="517.68,263.37 511.65,262.13 431.19,271.64 402.43,274.04" fill="none" stroke="#bcbcbc" stroke-width="8" stroke-linecap="round" stroke-linejoin="round" /><polyline points="368.01,1020.73 370.83,1016.02 387.72,972.65 406.58,907.08 411.39,892.95 413.97,889.11 432.18,830.64 433.09,823.66 433.78,819.10" fill="none" stroke="#bcbcbc" stroke-width="8" stroke-linecap="round" stroke-linejoin="round" /><polyline points="450.93,387.30 452.85,386.57 455.46,384.50 459.42,379.87 510.79,306.15 524.48,286.65" fill="none" stroke="#bcbcbc" stroke-width="8" stroke-linecap="round" stroke-linejoin="round" /><polyline points="679.58,658.11 680.64,655.09 706.46,624.70 708.35,623.69 712.84,617.55 727.87,600.30 732.54,596.00" fill="none" stroke="#bcbcbc" stroke-width="8" stroke-linecap="round" stroke-linejoin="round" /><polyline points="702.15,883.60 701.79,879.54 701.52,876.39 700.16,870.38 698.53,866.45 696.50,856.15 696.32,852.42 694.94,844.07 688.80,840.86 683.88,842.74 675.09,844.85 668.13,845.94 661.45,847.55 652.24,849.65 648.04,850.61" fill="none" stroke="#bcbcbc" stroke-width="8" stroke-linecap="round" stroke-linejoin="round" /><polyline points="23.67,734.38 42.45,690.35 43.49,687.49" fill="none" stroke="#bcbcbc" stroke-width="8" stroke-linecap="round" stroke-linejoin="round" /><polyline points="518.64,653.64 527.69,650.13 532.42,648.30 536.08,644.59 551.17,640.87 556.24,642.16 567.16,639.35 575.50,637.20 577.48,636.10 585.56,634.12 626.87,623.99 636.24,621.19" fill="none" stroke="#bcbcbc" stroke-width="8" stroke-linecap="round" stroke-linejoin="round" /><polyline points="137.56,1026.50 157.05,1019.42 163.57,1017.43 170.14,1015.43 182.25,1011.73 191.67,1010.37 223.85,1006.85 230.31,1006.50 259.11,1006.74 276.65,1006.89 283.24,1006.56 293.81,1007.63 297.11,1008.10 303.84,1009.06 324.19,1013.53" fill="none" stroke="#bcbcbc" stroke-width="8" stroke-linecap="round" stroke-linejoin="round" /><polyline points="230.42,447.87 227.19,436.96 215.20,396.41 200.64,350.17 197.63,341.92 194.57,334.18 190.71,323.03" fill="none" stroke="#bcbcbc" stroke-width="8" stroke-linecap="round" stroke-linejoin="round" /><polyline points="195.54,1101.67 198.10,1093.58 224.01,1011.88 223.85,1006.85" fill="none" stroke="#bcbcbc" stroke-width="8" stroke-linecap="round" stroke-linejoin="round" /><polyline points="230.31,1006.50 235.44,937.70 235.96,932.10 236.74,925.57 236.76,925.27 237.09,917.30 238.80,895.64 239.77,885.55 241.09,874.10 242.29,865.85 243.37,860.67 244.73,856.75 247.39,847.93 252.90,829.57 259.89,805.85 267.61,781.61 269.18,776.66 270.45,773.08" fill="none" stroke="#bcbcbc" stroke-width="8" stroke-linecap="round" stroke-linejoin="round" /><polyline points="62.73,864.83 61.36,870.93 61.60,872.88 69.95,942.47 70.84,949.84 70.46,957.42 68.27,1000.70 67.35,1018.79 66.88,1028.11 66.04,1044.74 65.60,1053.40 64.65,1056.83" fill="none" stroke="#bcbcbc" stroke-width="8" stroke-linecap="round" stroke-linejoin="round" /><polyline points="23.67,734.38 -6.72,725.35 -10.58,722.87 -29.50,717.36 -34.81,717.41 -58.58,710.25 -62.41,707.42 -84.04,700.87 -110.57,693.63 -110.70,693.62 -115.10,693.25" fill="none" stroke="#bcbcbc" stroke-width="8" stroke-linecap="round" stroke-linejoin="round" /><polyline points="577.48,636.10 578.54,637.48 582.94,644.05 591.09,656.19 598.76,663.88 613.50,680.43 611.01,695.72 609.74,701.46 607.98,703.88 611.68,709.35 617.40,721.12 628.82,743.16 634.45,754.02 637.95,763.78 639.53,768.31" fill="none" stroke="#bcbcbc" stroke-width="8" stroke-linecap="round" stroke-linejoin="round" /><polyline points="654.44,667.60 650.21,668.91 622.30,677.60 618.30,678.88 613.50,680.43" fill="none" stroke="#bcbcbc" stroke-width="8" stroke-linecap="round" stroke-linejoin="round" /><polyline points="453.90,720.46 462.63,717.64 525.97,685.29 534.45,681.14 564.31,672.52 593.26,664.38 598.76,663.88" fill="none" stroke="#bcbcbc" stroke-width="8" stroke-linecap="round" stroke-linejoin="round" /><polyline points="460.80,760.51 533.83,726.52 536.91,724.49 544.05,722.41 592.71,708.25 600.09,705.42 607.98,703.88" fill="none" stroke="#bcbcbc" stroke-width="8" stroke-linecap="round" stroke-linejoin="round" /><polyline points="445.90,48.01 475.46,51.66 478.43,52.03 489.90,54.84" fill="none" stroke="#bcbcbc" stroke-width="8" stroke-linecap="round" stroke-linejoin="round" /><polyline points="698.52,348.58 703.77,347.48 723.35,357.08 725.93,359.64 762.70,421.89 763.67,429.43 768.46,433.42 767.69,436.17 767.58,440.66 768.24,446.93 777.98,486.96 778.84,514.68 780.21,558.95 782.50,618.53 773.17,644.49 767.16,660.32 758.39,682.62 755.85,689.08 754.20,690.88 751.55,708.14" fill="none" stroke="#bcbcbc" stroke-width="8" stroke-linecap="round" stroke-linejoin="round" /><polyline points="766.51,813.29 757.56,809.40 735.22,793.80 705.73,773.08 689.51,759.96 678.57,748.25" fill="none" stroke="#bcbcbc" stroke-width="8" stroke-linecap="round" stroke-linejoin="round" /><polyline points="404.68,1162.14 395.90,1159.35 381.65,1154.83 374.85,1152.68 366.86,1150.14 356.76,1146.94 347.64,1144.05 338.62,1141.19 298.39,1128.42 291.34,1126.19 282.59,1123.41 280.66,1122.80 257.65,1116.72 251.15,1115.15 243.01,1113.18 234.49,1111.11 203.78,1103.67 195.54,1101.67 186.69,1098.60 168.20,1092.17 161.23,1089.75 155.00,1087.73 126.05,1077.44 122.40,1075.26 120.65,1071.48" fill="none" stroke="#bcbcbc" stroke-width="8" stroke-linecap="round" stroke-linejoin="round" /><polyline points="536.91,724.49 534.77,716.85 528.42,694.05 525.97,685.29 522.44,678.74 522.11,677.52 520.03,669.81 522.45,666.39 519.54,656.66 518.64,653.64" fill="none" stroke="#bcbcbc" stroke-width="8" stroke-linecap="round" stroke-linejoin="round" /><polyline points="526.28,445.58 532.32,442.73 565.33,424.53 584.21,412.39 597.52,403.31 600.46,401.12 611.17,393.68 622.27,385.48 629.30,380.36 637.68,374.23 666.80,361.09 670.58,361.29 676.10,358.68 698.52,348.58" fill="none" stroke="#bcbcbc" stroke-width="8" stroke-linecap="round" stroke-linejoin="round" /><polyline points="160.35,569.67 165.11,571.60 168.26,572.57 227.30,590.70 236.32,593.47" fill="none" stroke="#bcbcbc" stroke-width="8" stroke-linecap="round" stroke-linejoin="round" /><polyline points="-261.35,702.45 -303.53,689.68" fill="none" stroke="#bcbcbc" stroke-width="8" stroke-linecap="round" stroke-linejoin="round" /><polyline points="419.98,107.59 430.44,120.84 432.00,122.81 437.28,129.50 443.29,130.21 455.66,131.66 457.86,133.18" fill="none" stroke="#bcbcbc" stroke-width="8" stroke-linecap="round" stroke-linejoin="round" /><polyline points="783.13,696.89 766.56,699.98 749.57,709.22 733.82,717.98 718.92,725.43 700.92,735.21 687.89,743.13 662.13,756.94 561.57,807.53 535.50,819.02 518.27,826.47 509.74,829.26 502.68,830.58 491.11,831.28 474.67,828.95 433.62,819.10 375.35,805.52 298.69,782.39 270.45,773.08 224.20,758.80 179.98,744.21 115.11,718.76 82.68,704.79 43.57,687.41 -21.30,651.87 -36.50,641.78 -74.99,617.57 -91.13,601.43 -115.34,570.08 -155.22,528.96 -170.89,515.15" fill="none" stroke="#bcbcbc" stroke-width="8" stroke-linecap="round" stroke-linejoin="round" /><polyline points="468.70,1182.38 469.38,1178.59 471.84,1172.39 494.84,1118.57 503.53,1098.39 513.77,1073.24 516.27,1064.04" fill="none" stroke="#bcbcbc" stroke-width="8" stroke-linecap="round" stroke-linejoin="round" /><polyline points="27.42,955.11 1.29,942.47 -58.16,913.69 -131.09,878.39 -137.60,875.24" fill="none" stroke="#bcbcbc" stroke-width="8" stroke-linecap="round" stroke-linejoin="round" /><polyline points="456.86,538.55 463.46,531.79 481.00,513.83 494.92,498.63" fill="none" stroke="#bcbcbc" stroke-width="8" stroke-linecap="round" stroke-linejoin="round" /><polyline points="-49.71,578.56 -56.96,568.96 -90.93,523.99 -139.41,484.75" fill="none" stroke="#bcbcbc" stroke-width="8" stroke-linecap="round" stroke-linejoin="round" /><polyline points="-260.13,1170.63 -253.50,1154.90 -232.42,1102.34 -229.86,1095.44 -227.03,1087.79 -225.95,1085.03 -225.66,1080.70 -222.97,1039.84 -222.19,1028.12" fill="none" stroke="#bcbcbc" stroke-width="8" stroke-linecap="round" stroke-linejoin="round" /><polyline points="-274.51,748.10 -261.35,702.45 -243.99,642.24 -241.84,634.78 -239.45,626.32 -234.10,607.36 -233.53,605.37 -232.00,599.27 -229.56,592.38 -228.96,590.71 -225.88,583.06 -219.82,569.69 -218.01,565.85" fill="none" stroke="#bcbcbc" stroke-width="8" stroke-linecap="round" stroke-linejoin="round" /><polyline points="-241.84,634.78 -215.21,641.59 -158.80,656.09 -126.66,666.10 -113.25,669.24" fill="none" stroke="#bcbcbc" stroke-width="8" stroke-linecap="round" stroke-linejoin="round" /><polyline points="306.32,427.65 307.23,422.11 308.14,416.35 312.04,397.10 321.80,352.30 329.82,312.22 331.28,303.91 333.27,292.62 333.28,292.61" fill="none" stroke="#bcbcbc" stroke-width="8" stroke-linecap="round" stroke-linejoin="round" /><polyline points="227.47,1290.40 239.36,1260.07 240.84,1254.62 288.03,1134.83 291.34,1126.19 294.02,1118.85 322.22,1036.82 327.65,1032.08" fill="none" stroke="#bcbcbc" stroke-width="8" stroke-linecap="round" stroke-linejoin="round" /><polyline points="389.22,404.46 389.22,404.45 387.54,395.67 387.28,394.61 383.21,378.03 383.21,377.98 380.43,366.74 368.65,326.38 367.17,322.06 359.22,300.44 356.63,293.98 354.97,289.82 352.80,285.09 352.80,285.08 352.80,285.06 351.22,267.68 351.07,259.15" fill="none" stroke="#bcbcbc" stroke-width="8" stroke-linecap="round" stroke-linejoin="round" /><polyline points="371.57,1089.18 368.54,1092.45 364.03,1097.82 351.32,1133.67 347.64,1144.05" fill="none" stroke="#bcbcbc" stroke-width="8" stroke-linecap="round" stroke-linejoin="round" /><polyline points="160.35,569.67 162.09,564.96 162.48,563.87 170.74,540.81 173.83,531.09 199.13,456.69" fill="none" stroke="#bcbcbc" stroke-width="8" stroke-linecap="round" stroke-linejoin="round" /><polyline points="291.24,673.98 293.82,667.12 300.81,648.55 303.76,640.70 305.77,635.38 311.38,620.48 315.08,610.63 315.58,609.31 324.56,585.46 328.31,586.62 330.35,581.08 333.94,571.29 333.26,566.83 342.81,540.83 343.79,538.16 345.60,536.49 347.12,535.09 356.70,508.91 358.09,501.74 371.83,463.55 375.08,461.01 381.69,442.30 380.52,439.43 386.31,421.96 383.30,406.36" fill="none" stroke="#bcbcbc" stroke-width="8" stroke-linecap="round" stroke-linejoin="round" /><polyline points="537.07,-36.34 533.22,-42.66 512.99,-75.86" fill="none" stroke="#bcbcbc" stroke-width="8" stroke-linecap="round" stroke-linejoin="round" /><polyline points="600.46,401.12 693.32,460.84 693.34,460.88 693.34,460.89 710.52,463.12" fill="none" stroke="#bcbcbc" stroke-width="8" stroke-linecap="round" stroke-linejoin="round" /><polyline points="563.22,276.37 662.02,325.97 665.00,328.19 664.80,344.43 666.80,361.09" fill="none" stroke="#bcbcbc" stroke-width="8" stroke-linecap="round" stroke-linejoin="round" /><polyline points="374.85,1152.68 371.29,1163.52 356.90,1207.43 332.41,1281.37 330.67,1286.62 328.91,1291.94 328.42,1297.60" fill="none" stroke="#bcbcbc" stroke-width="8" stroke-linecap="round" stroke-linejoin="round" /><polyline points="652.99,885.94 653.58,880.44 653.71,875.30 653.67,875.12 650.16,859.98 648.73,853.66 648.04,850.61 647.33,847.49 643.48,830.56 635.98,796.72 630.52,776.37 629.75,773.23" fill="none" stroke="#bcbcbc" stroke-width="8" stroke-linecap="round" stroke-linejoin="round" /><polyline points="162.46,1195.71 164.91,1188.75 192.42,1110.55 195.54,1101.67" fill="none" stroke="#bcbcbc" stroke-width="8" stroke-linecap="round" stroke-linejoin="round" /><polyline points="780.21,558.95 772.11,556.66 717.14,472.30 710.52,463.12" fill="none" stroke="#bcbcbc" stroke-width="8" stroke-linecap="round" stroke-linejoin="round" /><polyline points="-123.45,761.36 76.89,809.36 90.71,814.40" fill="none" stroke="#bcbcbc" stroke-width="8" stroke-linecap="round" stroke-linejoin="round" /><polyline points="508.43,11.33 586.47,40.25 597.45,38.37" fill="none" stroke="#bcbcbc" stroke-width="8" stroke-linecap="round" stroke-linejoin="round" />
    <polyline points="167.20,352.80 197.63,341.92 229.02,330.57 248.52,322.99 308.06,301.33 325.34,295.35 328.95,294.11 333.27,292.62 338.13,290.95 338.73,290.74 348.54,286.80 352.80,285.08" fill="none" stroke="#ffffff" stroke-width="16" stroke-linecap="round" stroke-linejoin="round" />
    <polyline points="167.20,352.80 197.63,341.92 229.02,330.57 248.52,322.99 308.06,301.33 325.34,295.35 328.95,294.11 333.27,292.62 338.13,290.95 338.73,290.74 348.54,286.80 352.80,285.08" fill="none" stroke="#111111" stroke-width="9" stroke-linecap="round" stroke-linejoin="round" />
    
            <g transform="translate(167.20,352.80)">
              <circle r="19" fill="#ffffff" stroke="#111111" stroke-width="4" />
              <text text-anchor="middle" dominant-baseline="central" font-family="Helvetica, Arial, sans-serif"
                font-size="18" font-weight="700" fill="#111111">1</text>
            </g>
            
            <g transform="translate(352.80,285.08)">
              <circle r="19" fill="#ffffff" stroke="#111111" stroke-width="4" />
              <text text-anchor="middle" dominant-baseline="central" font-family="Helvetica, Arial, sans-serif"
                font-size="18" font-weight="700" fill="#111111">2</text>
            </g>
            
  </g>
</svg>
