<svg xmlns="http://www.w3.org/2000/svg" width="520" height="520" viewBox="0 0 520 520">
  <rect width="100%" height="100%" fill="#ffffff" />
  <g>
    <polyline points="851.35,-1382.20 855.23,-1361.56 880.28,-1186.36 876.45,-1142.56" fill="none" stroke="#bcbcbc" stroke-width="8" stroke-linecap="round" stroke-linejoin="round" /><polyline points="342.26,77.76 348.32,59.14 380.40,-39.52 384.19,-51.15 388.01,-63.36 468.69,-320.60 475.18,-341.29 460.32,-377.88" fill="none" stroke="#bcbcbc" stroke-width="8" stroke-linecap="round" stroke-linejoin="round" /><polyline points="-215.00,-151.05 -216.31,-165.82 -189.93,-313.53 -186.23,-332.01 -183.47,-341.68 -176.21,-379.15 -168.05,-424.99 -159.16,-465.37 -150.35,-505.66 -144.79,-517.02 -141.16,-523.98" fill="none" stroke="#bcbcbc" stroke-width="8" stroke-linecap="round" stroke-linejoin="round" /><polyline points="-61.91,-1192.97 -68.18,-1212.09 -133.00,-1409.75 -136.16,-1418.04" fill="none" stroke="#bcbcbc" stroke-width="8" stroke-linecap="round" stroke-linejoin="round" /><polyline points="-394.50,546.69 -392.56,527.83 -391.78,519.18 -384.72,441.13 -377.00,372.41 -375.19,356.37 -373.52,337.11 -373.33,335.49 -368.95,297.22 -365.18,258.32 -361.02,220.77 -358.22,191.55 -357.05,173.51 -356.01,156.85 -354.18,138.08" fill="none" stroke="#bcbcbc" stroke-width="8" stroke-linecap="round" stroke-linejoin="round" /><polyline points="501.12,123.62 505.73,109.10 538.26,6.87 541.96,-4.75 547.21,-21.29 550.97,-33.15 579.76,-157.30" fill="none" stroke="#bcbcbc" stroke-width="8" stroke-linecap="round" stroke-linejoin="round" /><polyline points="374.69,-1898.62 386.70,-1896.77 717.68,-1845.92" fill="none" stroke="#bcbcbc" stroke-width="8" stroke-linecap="round" stroke-linejoin="round" /><polyline points="-475.02,99.53 -509.47,97.92 -530.47,96.95 -541.89,96.42 -551.90,95.95 -629.91,92.32 -738.42,87.28 -790.14,79.94 -807.45,77.49 -822.47,74.84 -924.19,56.89 -938.41,54.38 -941.56,53.84 -959.13,50.83 -972.62,48.51 -1058.82,40.90 -1075.24,39.45 -1081.26,38.91 -1099.90,37.62 -1136.38,35.09" fill="none" stroke="#bcbcbc" stroke-width="8" stroke-linecap="round" stroke-linejoin="round" /><polyline points="25.49,-0.41 32.16,-19.40 92.29,-186.07 164.63,-396.29 169.26,-409.48 172.49,-418.69 175.11,-426.25" fill="none" stroke="#bcbcbc" stroke-width="8" stroke-linecap="round" stroke-linejoin="round" /><polyline points="-1081.26,38.91 -1082.79,28.19 -1083.16,16.56 -1080.88,-6.88 -1075.64,-49.68 -1072.15,-64.04 -1066.48,-115.97 -1065.45,-127.54 -1063.79,-142.41 -1062.55,-153.46 -1060.23,-165.98 -1055.93,-199.66 -1052.93,-225.43 -1048.54,-235.97" fill="none" stroke="#bcbcbc" stroke-width="8" stroke-linecap="round" stroke-linejoin="round" /><polyline points="-1142.80,-249.13 -1062.60,-237.93 -1048.54,-235.97 -1039.83,-234.58 -1003.88,-228.85 -921.04,-215.66 -906.83,-213.29" fill="none" stroke="#bcbcbc" stroke-width="8" stroke-linecap="round" stroke-linejoin="round" /><polyline points="333.26,-1301.18 333.79,-1293.89 334.86,-1286.51 337.47,-1280.86 342.34,-1274.55 351.36,-1266.34 372.74,-1253.34 537.65,-1149.89 639.21,-1013.74 715.92,-824.44 720.93,-811.94" fill="none" stroke="#bcbcbc" stroke-width="8" stroke-linecap="round" stroke-linejoin="round" /><polyline points="306.86,-748.83 310.28,-743.17 311.16,-741.70 313.99,-727.43 333.34,-633.88 339.48,-604.18 343.88,-583.04 350.73,-540.17 353.93,-520.41 356.13,-508.34 358.55,-497.45 361.44,-491.10 365.67,-483.74 367.94,-480.27 410.79,-418.93 433.96,-382.44 440.00,-373.72" fill="none" stroke="#bcbcbc" stroke-width="8" stroke-linecap="round" stroke-linejoin="round" /><polyline points="-923.21,422.50 -920.93,408.46 -918.81,398.31 -918.25,396.96 -889.73,329.16 -871.56,285.10 -866.03,271.13 -860.19,256.34 -853.83,243.63 -852.80,241.14 -844.11,220.13 -837.39,201.53 -831.62,184.47 -827.96,172.41 -823.86,157.51 -819.13,137.54 -815.53,121.33 -811.24,98.71 -810.34,93.66 -807.45,77.49" fill="none" stroke="#bcbcbc" stroke-width="8" stroke-linecap="round" stroke-linejoin="round" /><polyline points="458.53,-1470.96 549.46,-1407.43 561.71,-1404.83 570.68,-1394.57" fill="none" stroke="#bcbcbc" stroke-width="8" stroke-linecap="round" stroke-linejoin="round" /><polyline points="76.69,-884.20 88.71,-879.58 140.88,-862.51 261.92,-816.10 268.71,-809.33 271.89,-804.28" fill="none" stroke="#bcbcbc" stroke-width="8" stroke-linecap="round" stroke-linejoin="round" /><polyline points="302.22,308.36 310.47,286.88 351.15,176.50 379.92,93.11 385.89,90.36" fill="none" stroke="#bcbcbc" stroke-width="8" stroke-linecap="round" stroke-linejoin="round" /><polyline points="-272.92,168.40 -266.50,154.21 -265.87,152.80 -254.88,115.96 -236.89,55.31 -232.28,39.79 -228.70,27.74 -228.22,20.71 -228.95,5.16" fill="none" stroke="#bcbcbc" stroke-width="8" stroke-linecap="round" stroke-linejoin="round" /><polyline points="474.94,-743.98 464.62,-741.86 441.25,-746.01 437.63,-755.66 397.12,-771.10 387.55,-768.59 351.00,-782.01 345.55,-778.20" fill="none" stroke="#bcbcbc" stroke-width="8" stroke-linecap="round" stroke-linejoin="round" /><polyline points="414.80,-1996.72 433.15,-1992.22 443.31,-1990.46 684.75,-1948.60" fill="none" stroke="#bcbcbc" stroke-width="8" stroke-linecap="round" stroke-linejoin="round" /><polyline points="227.14,241.14 237.19,212.83 256.70,157.80 269.32,134.36 287.47,83.56 294.71,63.27" fill="none" stroke="#bcbcbc" stroke-width="8" stroke-linecap="round" stroke-linejoin="round" /><polyline points="-1095.76,-857.73 -1113.25,-858.53 -1117.64,-853.21 -1148.10,-816.20 -1254.60,-693.19 -1269.58,-675.89" fill="none" stroke="#bcbcbc" stroke-width="8" stroke-linecap="round" stroke-linejoin="round" /><polyline points="-161.64,-752.38 -169.36,-735.29 -170.29,-733.22 -197.11,-663.29 -224.15,-586.31 -231.36,-565.78 -235.44,-555.18" fill="none" stroke="#bcbcbc" stroke-width="8" stroke-linecap="round" stroke-linejoin="round" /><polyline points="231.77,-1538.14 240.29,-1526.58 246.38,-1510.68 255.84,-1487.87 271.04,-1451.99 284.50,-1419.78 299.94,-1384.41 311.40,-1357.16 313.10,-1353.24 313.20,-1353.00 322.42,-1331.44 325.18,-1325.32 327.80,-1319.48 330.57,-1314.02 332.66,-1308.46 333.27,-1301.18" fill="none" stroke="#bcbcbc" stroke-width="8" stroke-linecap="round" stroke-linejoin="round" /><polyline points="-420.50,-407.66 -416.05,-410.09 -409.81,-415.05 -406.68,-421.48 -365.25,-578.59 -364.00,-587.45 -358.94,-603.63" fill="none" stroke="#bcbcbc" stroke-width="8" stroke-linecap="round" stroke-linejoin="round" /><polyline points="1028.40,-653.50 1034.28,-634.85 1038.41,-615.25 1030.36,-540.58 1021.05,-484.42 1015.97,-465.25 1015.51,-463.52 1011.05,-453.18 1004.98,-442.22 990.81,-424.29 997.67,-389.23 975.46,-314.00 963.20,-272.44 938.12,-204.43 901.38,-121.61 856.52,-42.25 842.52,-16.46 817.19,25.92 716.00,169.52 693.83,199.39 607.98,311.56 558.70,367.63 489.75,437.70 483.37,438.35 467.80,451.08" fill="none" stroke="#bcbcbc" stroke-width="8" stroke-linecap="round" stroke-linejoin="round" /><polyline points="-220.16,574.81 -191.92,487.21 -187.29,472.75 -181.02,463.64 -167.53,423.16 -163.14,409.40 -107.41,234.95 -101.81,217.41 -97.19,201.99 -31.43,-4.95" fill="none" stroke="#bcbcbc" stroke-width="8" stroke-linecap="round" stroke-linejoin="round" /><polyline points="441.53,-1054.18 465.95,-1080.85 473.16,-1089.53 522.49,-1159.41" fill="none" stroke="#bcbcbc" stroke-width="8" stroke-linecap="round" stroke-linejoin="round" /><polyline points="-46.51,-1043.61 20.73,-1020.20 24.44,-1014.17 43.54,-1007.76 54.87,-1003.89 109.07,-985.58" fill="none" stroke="#bcbcbc" stroke-width="8" stroke-linecap="round" stroke-linejoin="round" /><polyline points="539.58,-1508.88 570.68,-1394.57 606.68,-1259.92 612.14,-1248.69 613.01,-1235.88 637.42,-1190.30 703.32,-1067.45 717.72,-1046.20 721.89,-1039.98 820.33,-855.95 865.57,-814.83 871.92,-806.64 880.87,-798.99 966.77,-725.54 972.60,-720.56 988.03,-712.37" fill="none" stroke="#bcbcbc" stroke-width="8" stroke-linecap="round" stroke-linejoin="round" /><polyline points="205.49,593.40 419.72,468.97 457.86,449.47 467.80,451.08" fill="none" stroke="#bcbcbc" stroke-width="8" stroke-linecap="round" stroke-linejoin="round" /><polyline points="437.77,415.39 451.06,399.59 570.39,161.51 578.30,145.89 584.90,130.44 623.45,35.13 634.92,6.42 668.15,-94.12 689.69,-223.37 692.24,-242.19" fill="none" stroke="#bcbcbc" stroke-width="8" stroke-linecap="round" stroke-linejoin="round" /><polyline points="345.67,-984.77 343.58,-982.63 340.71,-972.61 340.42,-971.61 327.47,-921.75 330.87,-908.74 328.04,-897.07 324.35,-881.79 314.87,-870.81 304.12,-827.26 291.45,-817.68 277.92,-808.41 271.89,-804.28" fill="none" stroke="#bcbcbc" stroke-width="8" stroke-linecap="round" stroke-linejoin="round" /><polyline points="-161.64,-752.38 -156.14,-766.49 -123.03,-851.35 -115.81,-869.86 -109.86,-885.10 -67.56,-993.47 -48.51,-1038.77 -46.51,-1043.61 -31.71,-1079.39 1.50,-1161.84 13.66,-1196.94 16.37,-1204.99 20.00,-1214.11" fill="none" stroke="#bcbcbc" stroke-width="8" stroke-linecap="round" stroke-linejoin="round" /><polyline points="208.82,-1266.78 215.22,-1247.73 425.32,-1068.29 539.97,-968.55 711.21,-819.71 726.16,-807.75 732.85,-803.57 762.57,-776.60 802.25,-742.75 892.26,-666.02 921.33,-641.02 940.62,-617.95" fill="none" stroke="#bcbcbc" stroke-width="8" stroke-linecap="round" stroke-linejoin="round" /><polyline points="556.20,-1575.98 566.86,-1582.81 629.99,-1609.05 642.96,-1622.70" fill="none" stroke="#bcbcbc" stroke-width="8" stroke-linecap="round" stroke-linejoin="round" /><polyline points="629.12,20.94 541.96,-4.75 384.19,-51.15" fill="none" stroke="#bcbcbc" stroke-width="8" stroke-linecap="round" stroke-linejoin="round" /><polyline points="347.76,-1832.83 359.67,-1824.62 747.63,-1738.31" fill="none" stroke="#bcbcbc" stroke-width="8" stroke-linecap="round" stroke-linejoin="round" /><polyline points="826.98,-555.64 806.93,-600.25 762.43,-706.36 759.12,-714.79 751.50,-734.16 722.82,-807.14 721.02,-811.86" fill="none" stroke="#bcbcbc" stroke-width="8" stroke-linecap="round" stroke-linejoin="round" /><polyline points="231.77,-1538.14 210.23,-1544.27 194.41,-1548.98 162.24,-1558.53 145.89,-1563.19 136.53,-1565.79 124.30,-1569.29" fill="none" stroke="#bcbcbc" stroke-width="8" stroke-linecap="round" stroke-linejoin="round" /><polyline points="-329.82,-954.52 -330.91,-958.09 -331.91,-960.58 -336.35,-971.61 -353.55,-1011.70 -369.89,-1052.42 -373.42,-1062.04 -377.49,-1073.11 -380.40,-1082.17 -385.20,-1095.76 -385.71,-1097.19 -401.34,-1135.72 -430.05,-1208.14 -436.50,-1211.82 -441.08,-1223.57 -450.24,-1255.38 -465.92,-1294.80 -469.30,-1303.76" fill="none" stroke="#bcbcbc" stroke-width="8" stroke-linecap="round" stroke-linejoin="round" /><polyline points="-191.92,487.21 -175.61,492.21 -122.87,508.28 -106.35,513.31" fill="none" stroke="#bcbcbc" stroke-width="8" stroke-linecap="round" stroke-linejoin="round" /><polyline points="793.09,-1557.02 796.16,-1569.44 794.91,-1574.16 793.41,-1579.86 783.78,-1615.13 762.31,-1689.71 750.98,-1727.83 747.63,-1738.31 717.68,-1845.92 701.52,-1903.97 684.75,-1948.60 669.60,-1988.87 654.52,-2016.55 639.86,-2031.18 527.36,-2168.65 519.03,-2178.43 513.52,-2187.47" fill="none" stroke="#bcbcbc" stroke-width="8" stroke-linecap="round" stroke-linejoin="round" /><polyline points="333.27,-1301.18 327.46,-1298.96 316.74,-1296.00 315.66,-1295.71 270.85,-1284.25 219.33,-1269.74 208.82,-1266.78 204.13,-1265.30 191.75,-1261.32 181.17,-1258.37 134.97,-1245.52 58.99,-1223.94 30.67,-1216.78 20.00,-1214.11 -30.63,-1201.68 -61.91,-1192.97 -128.15,-1174.47 -193.62,-1156.02 -201.19,-1153.92 -255.91,-1138.73 -281.15,-1131.73 -293.89,-1125.70 -318.02,-1113.74 -365.94,-1089.43 -369.27,-1087.74 -380.40,-1082.17 -387.18,-1078.78 -396.65,-1073.81 -430.32,-1056.17 -491.65,-1021.75 -542.89,-994.92 -550.22,-991.08 -560.01,-990.47 -565.89,-987.34 -567.06,-986.72 -622.65,-956.26 -634.29,-956.31 -647.65,-949.32 -652.32,-946.88 -656.25,-944.82 -665.55,-939.96 -672.87,-923.26 -704.33,-906.42 -714.33,-901.06 -725.15,-895.17 -768.92,-871.35 -791.55,-859.04 -802.95,-855.75" fill="none" stroke="#bcbcbc" stroke-width="8" stroke-linecap="round" stroke-linejoin="round" /><polyline points="963.20,-272.44 939.84,-270.30 866.88,-263.62 863.60,-263.32 858.94,-262.89 851.41,-262.20 780.67,-255.70 756.07,-257.99 727.42,-250.81 704.47,-245.18 692.25,-242.19 661.87,-241.03 635.58,-242.37 622.18,-243.79 610.78,-247.24 602.38,-251.89 571.10,-274.00 495.09,-326.20 487.93,-331.06 480.63,-336.01 475.18,-341.29" fill="none" stroke="#bcbcbc" stroke-width="8" stroke-linecap="round" stroke-linejoin="round" /><polyline points="-758.20,-1153.66 -730.63,-1099.67 -726.45,-1084.25 -703.22,-1039.92 -693.63,-1027.25 -654.80,-951.71 -652.32,-946.88" fill="none" stroke="#bcbcbc" stroke-width="8" stroke-linecap="round" stroke-linejoin="round" /><polyline points="86.93,-673.57 82.80,-662.22 81.64,-658.70 76.26,-642.37 42.14,-547.19 25.20,-499.92 24.63,-498.31 17.82,-483.62 13.92,-474.89" fill="none" stroke="#bcbcbc" stroke-width="8" stroke-linecap="round" stroke-linejoin="round" /><polyline points="539.58,-1508.88 535.80,-1516.98 525.85,-1518.28 493.69,-1510.91 487.16,-1511.76 482.04,-1518.62 472.94,-1560.46 522.23,-1568.09 545.04,-1574.82 556.20,-1575.98 568.22,-1533.26" fill="none" stroke="#bcbcbc" stroke-width="8" stroke-linecap="round" stroke-linejoin="round" /><polyline points="717.72,-1046.20 730.41,-1053.33 794.18,-1091.75 811.23,-1101.90 841.06,-1119.68 890.14,-1151.42 901.59,-1159.65 987.68,-1213.04" fill="none" stroke="#bcbcbc" stroke-width="8" stroke-linecap="round" stroke-linejoin="round" /><polyline points="1018.64,-793.98 996.87,-800.47 984.22,-810.84 935.86,-852.68 934.22,-854.15 922.53,-864.58 915.66,-876.76 794.18,-1091.75" fill="none" stroke="#bcbcbc" stroke-width="8" stroke-linecap="round" stroke-linejoin="round" /><polyline points="-352.23,-811.02 -161.64,-752.38 -146.09,-747.45 -3.87,-702.37 -0.90,-701.43 20.41,-694.68 30.89,-691.35 44.50,-687.63 72.58,-678.13 86.93,-673.57 99.85,-669.47 205.70,-635.90 317.43,-600.80 326.67,-597.90 339.48,-604.18" fill="none" stroke="#bcbcbc" stroke-width="8" stroke-linecap="round" stroke-linejoin="round" /><polyline points="208.16,-1751.84 290.72,-1827.68 304.69,-1840.52" fill="none" stroke="#bcbcbc" stroke-width="8" stroke-linecap="round" stroke-linejoin="round" /><polyline points="-1174.30,-527.93 -871.36,-495.47" fill="none" stroke="#bcbcbc" stroke-width="8" stroke-linecap="round" stroke-linejoin="round" /><polyline points="-260.44,-1373.37 -196.77,-1396.13 -131.09,-1419.88 -90.29,-1435.74 34.30,-1481.04 70.46,-1493.55 78.01,-1496.16 87.07,-1499.27 97.24,-1502.77 98.48,-1503.20 119.00,-1511.45 127.93,-1515.03" fill="none" stroke="#bcbcbc" stroke-width="8" stroke-linecap="round" stroke-linejoin="round" /><polyline points="231.77,-1538.14 255.26,-1597.01 293.29,-1693.95 347.76,-1832.83 374.69,-1898.62 414.80,-1996.72 447.69,-2077.08 453.58,-2087.74 482.51,-2135.03 484.38,-2138.08 494.96,-2158.89 513.52,-2187.47 523.88,-2203.42 538.55,-2225.99" fill="none" stroke="#bcbcbc" stroke-width="8" stroke-linecap="round" stroke-linejoin="round" /><polyline points="-322.45,36.07 -326.30,39.15 -328.84,42.81 -334.02,58.09 -337.60,69.12 -354.15,118.61 -356.43,125.75 -357.84,130.18 -373.04,125.82 -410.03,113.42 -446.69,101.13 -475.02,99.53" fill="none" stroke="#bcbcbc" stroke-width="8" stroke-linecap="round" stroke-linejoin="round" /><polyline points="-1046.84,380.43 -986.43,224.45 -979.71,207.47 -973.68,191.11 -966.40,171.35 -957.46,140.26 -948.15,101.63 -944.33,73.95 -941.56,53.84 -937.65,38.99 -923.44,-72.54 -906.83,-213.29 -898.23,-280.39 -888.65,-359.21 -871.36,-495.47 -868.62,-518.63 -851.15,-661.13 -851.14,-669.06 -847.28,-711.35 -836.14,-800.65 -833.35,-816.23 -830.44,-824.97 -825.88,-834.59 -821.45,-842.06 -811.68,-852.64 -802.93,-855.64" fill="none" stroke="#bcbcbc" stroke-width="8" stroke-linecap="round" stroke-linejoin="round" /><polyline points="271.89,-804.28 275.20,-799.04 286.28,-781.75 302.86,-755.17 306.86,-748.83 313.47,-753.85 345.55,-778.20" fill="none" stroke="#bcbcbc" stroke-width="8" stroke-linecap="round" stroke-linejoin="round" /><polyline points="293.29,-1693.95 619.67,-1634.95 653.95,-1616.91 781.83,-1553.53 793.09,-1557.02" fill="none" stroke="#bcbcbc" stroke-width="8" stroke-linecap="round" stroke-linejoin="round" /><polyline points="-329.82,-954.52 -335.61,-946.08 -387.68,-920.67 -425.92,-872.06 -467.19,-846.52 -495.42,-825.21 -522.34,-803.25 -536.15,-790.66 -560.53,-759.74 -587.80,-720.65 -592.29,-713.41" fill="none" stroke="#bcbcbc" stroke-width="8" stroke-linecap="round" stroke-linejoin="round" /><polyline points="-274.77,-919.66 -277.03,-914.64 -281.96,-907.42 -291.29,-895.94 -346.30,-826.47 -375.40,-748.10 -522.28,-803.31" fill="none" stroke="#bcbcbc" stroke-width="8" stroke-linecap="round" stroke-linejoin="round" /><polyline points="-495.42,-825.21 -501.10,-842.42 -525.68,-916.83 -535.22,-931.53 -551.19,-979.44 -552.57,-983.58 -550.22,-991.08 -554.04,-1003.29 -630.85,-1248.48" fill="none" stroke="#bcbcbc" stroke-width="8" stroke-linecap="round" stroke-linejoin="round" /><polyline points="404.49,-2163.06 465.19,-2161.46 468.02,-2161.38 479.66,-2161.05 494.96,-2158.89" fill="none" stroke="#bcbcbc" stroke-width="8" stroke-linecap="round" stroke-linejoin="round" /><polyline points="92.29,-186.07 71.57,-186.32 -103.92,-162.77 -116.57,-161.43 -131.03,-159.91 -215.00,-151.05 -328.14,-139.10 -388.12,-132.77 -421.30,-129.28 -448.24,-126.00 -462.07,-124.32 -477.65,-122.42 -552.92,-113.28 -570.96,-111.09 -626.55,-105.01 -923.44,-72.54" fill="none" stroke="#bcbcbc" stroke-width="8" stroke-linecap="round" stroke-linejoin="round" /><polyline points="-167.53,423.16 -183.07,418.15 -255.68,394.78 -270.36,390.06 -283.10,385.96 -360.03,361.24 -375.19,356.37 -395.26,349.91 -517.72,310.51 -531.50,306.07" fill="none" stroke="#bcbcbc" stroke-width="8" stroke-linecap="round" stroke-linejoin="round" /><polyline points="136.09,-1046.78 178.33,-1033.62 332.78,-985.93 334.22,-985.49 345.67,-984.77" fill="none" stroke="#bcbcbc" stroke-width="8" stroke-linecap="round" stroke-linejoin="round" /><polyline points="570.68,-1394.57 780.78,-1390.88" fill="none" stroke="#bcbcbc" stroke-width="8" stroke-linecap="round" stroke-linejoin="round" /><polyline points="467.80,451.08 437.77,415.39 425.17,400.73 414.34,390.61 399.92,379.85 370.46,362.17 341.94,352.80 283.93,334.89 236.49,319.83 263.84,278.09" fill="none" stroke="#bcbcbc" stroke-width="8" stroke-linecap="round" stroke-linejoin="round" /><polyline points="167.20,167.20 125.38,115.59 117.42,105.77 75.30,47.74 65.76,30.02 68.05,8.93 80.75,8.81 112.08,14.83 159.76,24.00" fill="none" stroke="#bcbcbc" stroke-width="8" stroke-linecap="round" stroke-linejoin="round" /><polyline points="-379.90,-246.35 -372.18,-229.76 -328.14,-139.10 -262.65,-4.29 -254.29,12.90" fill="none" stroke="#bcbcbc" stroke-width="8" stroke-linecap="round" stroke-linejoin="round" /><polyline points="-1085.35,164.28 -1069.60,170.72 -995.82,200.88 -979.71,207.47 -962.76,214.40 -875.90,249.92 -860.19,256.34" fill="none" stroke="#bcbcbc" stroke-width="8" stroke-linecap="round" stroke-linejoin="round" /><polyline points="-343.65,-380.77 -189.93,-313.53" fill="none" stroke="#bcbcbc" stroke-width="8" stroke-linecap="round" stroke-linejoin="round" /><polyline points="345.67,-984.77 369.08,-983.54 370.58,-982.21 381.09,-972.89 396.53,-959.11 399.38,-953.57 452.60,-906.97 456.53,-899.54 493.95,-866.51 503.37,-863.64 532.48,-838.15 539.00,-835.17 582.90,-797.93 592.68,-789.27 598.07,-780.69" fill="none" stroke="#bcbcbc" stroke-width="8" stroke-linecap="round" stroke-linejoin="round" /><polyline points="-1128.74,-380.62 -888.65,-359.21" fill="none" stroke="#bcbcbc" stroke-width="8" stroke-linecap="round" stroke-linejoin="round" /><polyline points="-592.66,513.30 -585.22,497.47 -583.31,490.42 -572.88,451.98 -535.12,318.82 -531.50,306.07 -527.68,292.09 -510.57,229.53 -481.68,123.88 -475.02,99.53" fill="none" stroke="#bcbcbc" stroke-width="8" stroke-linecap="round" stroke-linejoin="round" /><polyline points="-379.90,-246.35 -343.65,-380.77 -420.50,-407.66 -440.63,-395.78 -449.80,-388.80 -456.59,-379.61 -461.37,-367.48 -479.05,-302.16 -464.79,-294.90 -450.38,-291.40 -418.53,-283.11 -394.69,-275.52 -379.90,-246.35" fill="none" stroke="#bcbcbc" stroke-width="8" stroke-linecap="round" stroke-linejoin="round" /><polyline points="-479.05,-302.16 -495.88,-304.50 -888.65,-359.21" fill="none" stroke="#bcbcbc" stroke-width="8" stroke-linecap="round" stroke-linejoin="round" /><polyline points="159.76,24.00 196.19,31.96 294.71,63.27 322.26,71.98 387.65,90.87 453.52,109.86 502.29,123.95 580.28,146.47 596.39,151.12 635.75,164.32 700.55,181.57 706.26,182.64" fill="none" stroke="#bcbcbc" stroke-width="8" stroke-linecap="round" stroke-linejoin="round" /><polyline points="205.97,593.12 192.68,596.46 178.30,636.51 156.02,630.18 54.68,595.65 42.48,593.04 15.35,591.10 -107.37,591.59 -134.42,588.15 -195.52,578.81 -220.16,574.81 -394.94,546.62 -462.62,535.82 -591.70,513.47 -612.54,509.34 -903.85,427.92 -922.23,422.78 -1046.84,380.43 -1077.50,369.55 -1154.07,337.82 -1197.72,321.31" fill="none" stroke="#bcbcbc" stroke-width="8" stroke-linecap="round" stroke-linejoin="round" /><polyline points="472.94,-1560.46 460.33,-1563.06 291.97,-1543.15 231.77,-1538.14" fill="none" stroke="#bcbcbc" stroke-width="8" stroke-linecap="round" stroke-linejoin="round" /><polyline points="159.76,24.00 165.66,14.13 200.99,-76.59 240.46,-213.78 250.53,-243.33 255.92,-251.37 294.03,-373.69 295.93,-388.30 297.37,-397.84" fill="none" stroke="#bcbcbc" stroke-width="8" stroke-linecap="round" stroke-linejoin="round" /><polyline points="333.27,-1301.18 337.29,-1302.72 342.74,-1307.05 351.02,-1316.74 458.53,-1470.96 487.16,-1511.76" fill="none" stroke="#bcbcbc" stroke-width="8" stroke-linecap="round" stroke-linejoin="round" /><polyline points="811.72,-734.63 813.92,-740.95 867.96,-804.52 871.92,-806.64 881.31,-819.48 912.75,-855.59 922.53,-864.58" fill="none" stroke="#bcbcbc" stroke-width="8" stroke-linecap="round" stroke-linejoin="round" /><polyline points="858.94,-262.89 858.20,-271.39 857.62,-277.98 854.77,-290.56 851.37,-298.76 847.12,-320.32 846.74,-328.13 843.86,-345.58 831.00,-352.30 820.72,-348.37 802.32,-343.96 787.75,-341.69 773.78,-338.32 754.50,-333.92 745.71,-331.92" fill="none" stroke="#bcbcbc" stroke-width="8" stroke-linecap="round" stroke-linejoin="round" /><polyline points="-560.78,-575.07 -521.48,-667.19 -519.29,-673.17" fill="none" stroke="#bcbcbc" stroke-width="8" stroke-linecap="round" stroke-linejoin="round" /><polyline points="474.94,-743.98 493.89,-751.32 503.79,-755.16 511.45,-762.91 543.02,-770.69 553.62,-767.99 576.48,-773.88 593.92,-778.37 598.07,-780.69 614.98,-784.83 701.42,-806.01 721.02,-811.86" fill="none" stroke="#bcbcbc" stroke-width="8" stroke-linecap="round" stroke-linejoin="round" /><polyline points="-322.45,36.07 -281.67,21.26 -268.03,17.09 -254.29,12.90 -228.95,5.16 -209.23,2.33 -141.90,-5.04 -128.37,-5.78 -68.13,-5.26 -31.43,-4.95 -17.62,-5.66 4.48,-3.42 11.40,-2.43 25.49,-0.41 68.05,8.93" fill="none" stroke="#bcbcbc" stroke-width="8" stroke-linecap="round" stroke-linejoin="round" /><polyline points="-128.15,-1174.47 -134.90,-1197.31 -160.00,-1282.14 -190.47,-1378.87 -196.77,-1396.13 -203.16,-1412.32 -211.23,-1435.64" fill="none" stroke="#bcbcbc" stroke-width="8" stroke-linecap="round" stroke-linejoin="round" /><polyline points="-201.13,193.33 -195.77,176.40 -141.56,5.47 -141.90,-5.04" fill="none" stroke="#bcbcbc" stroke-width="8" stroke-linecap="round" stroke-linejoin="round" /><polyline points="-128.37,-5.78 -117.64,-149.70 -116.57,-161.43 -114.92,-175.09 -114.90,-175.71 -114.19,-192.40 -110.61,-237.70 -108.59,-258.80 -105.83,-282.77 -103.31,-300.03 -101.05,-310.87 -98.21,-319.06 -92.64,-337.51 -81.12,-375.93 -66.48,-425.54 -50.33,-476.27 -47.04,-486.61 -44.40,-494.11" fill="none" stroke="#bcbcbc" stroke-width="8" stroke-linecap="round" stroke-linejoin="round" /><polyline points="-479.05,-302.16 -481.90,-289.40 -481.41,-285.33 -463.92,-139.74 -462.07,-124.32 -462.87,-108.46 -467.46,-17.90 -469.37,19.93 -470.36,39.44 -472.12,74.22 -473.03,92.34 -475.02,99.53" fill="none" stroke="#bcbcbc" stroke-width="8" stroke-linecap="round" stroke-linejoin="round" /><polyline points="-560.78,-575.07 -624.37,-593.97 -632.45,-599.15 -672.03,-610.68 -683.15,-610.57 -732.87,-625.55 -740.91,-631.47 -786.15,-645.18 -841.67,-660.32 -841.94,-660.34 -851.15,-661.13" fill="none" stroke="#bcbcbc" stroke-width="8" stroke-linecap="round" stroke-linejoin="round" /><polyline points="598.07,-780.69 600.28,-777.79 609.50,-764.05 626.54,-738.64 642.59,-722.57 673.43,-687.95 668.22,-655.95 665.58,-643.95 661.89,-638.88 669.63,-627.44 681.59,-602.82 705.50,-556.70 717.28,-533.98 724.60,-513.57 727.90,-504.09" fill="none" stroke="#bcbcbc" stroke-width="8" stroke-linecap="round" stroke-linejoin="round" /><polyline points="759.12,-714.79 750.25,-712.03 691.86,-693.86 683.48,-691.17 673.44,-687.95" fill="none" stroke="#bcbcbc" stroke-width="8" stroke-linecap="round" stroke-linejoin="round" /><polyline points="339.48,-604.18 357.75,-610.10 490.29,-677.78 508.03,-686.44 570.51,-704.49 631.08,-721.51 642.59,-722.57" fill="none" stroke="#bcbcbc" stroke-width="8" stroke-linecap="round" stroke-linejoin="round" /><polyline points="353.93,-520.41 506.74,-591.51 513.17,-595.76 528.11,-600.11 629.93,-629.73 645.38,-635.65 661.89,-638.88" fill="none" stroke="#bcbcbc" stroke-width="8" stroke-linecap="round" stroke-linejoin="round" /><polyline points="322.75,-2011.02 384.60,-2003.37 390.82,-2002.61 414.80,-1996.72" fill="none" stroke="#bcbcbc" stroke-width="8" stroke-linecap="round" stroke-linejoin="round" /><polyline points="851.35,-1382.20 862.32,-1384.49 903.31,-1364.40 908.71,-1359.06 985.65,-1228.84 987.68,-1213.04 997.68,-1204.71 996.09,-1198.95 995.85,-1189.56 997.24,-1176.44 1017.61,-1092.70 1019.42,-1034.70 1022.27,-942.09 1027.06,-817.44 1007.55,-763.12 994.98,-730.01 976.62,-683.35 971.31,-669.85 967.86,-666.08 962.31,-629.97" fill="none" stroke="#bcbcbc" stroke-width="8" stroke-linecap="round" stroke-linejoin="round" /><polyline points="993.60,-409.99 974.89,-418.13 928.13,-450.76 866.43,-494.11 832.50,-521.55 809.61,-546.06" fill="none" stroke="#bcbcbc" stroke-width="8" stroke-linecap="round" stroke-linejoin="round" /><polyline points="236.49,319.83 218.11,314.00 188.29,304.55 174.06,300.04 157.34,294.74 136.22,288.04 117.12,281.99 98.25,276.00 14.07,249.29 -0.67,244.62 -18.99,238.82 -23.03,237.54 -71.17,224.82 -84.77,221.53 -101.81,217.41 -119.64,213.09 -183.90,197.50 -201.13,193.33 -219.65,186.90 -258.34,173.46 -272.92,168.40 -285.96,164.17 -346.55,142.63 -354.18,138.08 -357.84,130.18" fill="none" stroke="#bcbcbc" stroke-width="8" stroke-linecap="round" stroke-linejoin="round" /><polyline points="513.17,-595.76 508.71,-611.76 495.41,-659.44 490.29,-677.78 482.90,-691.48 482.21,-694.03 477.86,-710.17 482.93,-717.32 476.83,-737.66 474.94,-743.98" fill="none" stroke="#bcbcbc" stroke-width="8" stroke-linecap="round" stroke-linejoin="round" /><polyline points="490.93,-1179.27 503.58,-1185.22 572.65,-1223.30 612.14,-1248.69 639.99,-1267.69 646.14,-1272.27 668.56,-1287.85 691.79,-1305.01 706.50,-1315.71 724.03,-1328.53 784.97,-1356.03 792.88,-1355.61 804.43,-1361.07 851.35,-1382.20" fill="none" stroke="#bcbcbc" stroke-width="8" stroke-linecap="round" stroke-linejoin="round" /><polyline points="-274.77,-919.66 -264.80,-915.62 -258.21,-913.59 -134.68,-875.65 -115.81,-869.86" fill="none" stroke="#bcbcbc" stroke-width="8" stroke-linecap="round" stroke-linejoin="round" /><polyline points="-1157.18,-641.88 -1245.44,-668.59" fill="none" stroke="#bcbcbc" stroke-width="8" stroke-linecap="round" stroke-linejoin="round" /><polyline points="268.50,-1886.37 290.38,-1858.65 293.65,-1854.52 304.69,-1840.52 317.28,-1839.05 343.16,-1836.01 347.76,-1832.83" fill="none" stroke="#bcbcbc" stroke-width="8" stroke-linecap="round" stroke-linejoin="round" /><polyline points="1028.40,-653.50 993.72,-647.04 958.17,-627.72 925.21,-609.37 894.03,-593.79 856.37,-573.33 829.09,-556.77 775.19,-527.88 564.77,-422.03 510.22,-398.00 474.17,-382.42 456.32,-376.57 441.54,-373.81 417.35,-372.35 382.93,-377.22 297.04,-397.84 175.11,-426.25 14.70,-474.63 -44.40,-494.11 -141.16,-523.98 -233.71,-554.50 -369.44,-607.75 -437.30,-636.97 -519.13,-673.34 -654.86,-747.69 -686.69,-768.79 -767.22,-819.44 -800.99,-853.21 -851.64,-918.79 -935.09,-1004.83 -967.89,-1033.73" fill="none" stroke="#bcbcbc" stroke-width="8" stroke-linecap="round" stroke-linejoin="round" /><polyline points="370.45,362.17 371.88,354.24 377.01,341.29 425.14,228.67 443.33,186.46 464.76,133.86 469.98,114.61" fill="none" stroke="#bcbcbc" stroke-width="8" stroke-linecap="round" stroke-linejoin="round" /><polyline points="-552.92,-113.28 -607.60,-139.74 -732.01,-199.95 -884.61,-273.79 -898.23,-280.39" fill="none" stroke="#bcbcbc" stroke-width="8" stroke-linecap="round" stroke-linejoin="round" /><polyline points="345.67,-984.77 359.48,-998.90 396.19,-1036.48 425.32,-1068.28" fill="none" stroke="#bcbcbc" stroke-width="8" stroke-linecap="round" stroke-linejoin="round" /><polyline points="-714.33,-901.06 -729.49,-921.14 -800.57,-1015.23 -902.02,-1097.32" fill="none" stroke="#bcbcbc" stroke-width="8" stroke-linecap="round" stroke-linejoin="round" /><polyline points="-1154.62,337.59 -1140.74,304.70 -1096.63,194.73 -1091.28,180.29 -1085.35,164.28 -1083.10,158.51 -1082.50,149.46 -1076.86,63.97 -1075.24,39.45" fill="none" stroke="#bcbcbc" stroke-width="8" stroke-linecap="round" stroke-linejoin="round" /><polyline points="-1184.71,-546.37 -1157.18,-641.88 -1120.84,-767.84 -1116.34,-783.44 -1111.34,-801.15 -1100.15,-840.81 -1098.97,-844.98 -1095.76,-857.73 -1090.65,-872.15 -1089.41,-875.64 -1082.95,-891.64 -1070.27,-919.61 -1066.48,-927.64" fill="none" stroke="#bcbcbc" stroke-width="8" stroke-linecap="round" stroke-linejoin="round" /><polyline points="-1116.34,-783.44 -1060.62,-769.19 -942.59,-738.85 -875.34,-717.92 -847.28,-711.35" fill="none" stroke="#bcbcbc" stroke-width="8" stroke-linecap="round" stroke-linejoin="round" /><polyline points="30.67,-1216.78 32.56,-1228.37 34.47,-1240.41 42.64,-1280.68 63.07,-1374.42 79.84,-1458.26 82.91,-1475.66 87.07,-1499.27 87.08,-1499.30" fill="none" stroke="#bcbcbc" stroke-width="8" stroke-linecap="round" stroke-linejoin="round" /><polyline points="-134.32,588.16 -109.44,524.71 -106.35,513.31 -7.61,262.70 -0.67,244.62 4.94,229.28 63.94,57.65 75.30,47.74" fill="none" stroke="#bcbcbc" stroke-width="8" stroke-linecap="round" stroke-linejoin="round" /><polyline points="204.13,-1265.30 204.13,-1265.32 200.63,-1283.67 200.08,-1285.90 191.55,-1320.58 191.56,-1320.69 185.74,-1344.21 161.10,-1428.64 158.00,-1437.69 141.36,-1482.91 135.95,-1496.42 132.46,-1505.12 127.93,-1515.02 127.93,-1515.03 127.92,-1515.08 124.62,-1551.44 124.30,-1569.29" fill="none" stroke="#bcbcbc" stroke-width="8" stroke-linecap="round" stroke-linejoin="round" /><polyline points="167.20,167.20 160.86,174.05 151.42,185.28 124.82,260.28 117.12,281.99" fill="none" stroke="#bcbcbc" stroke-width="8" stroke-linecap="round" stroke-linejoin="round" /><polyline points="-274.77,-919.66 -271.13,-929.50 -270.31,-931.79 -253.04,-980.04 -246.56,-1000.36 -193.62,-1156.02" fill="none" stroke="#bcbcbc" stroke-width="8" stroke-linecap="round" stroke-linejoin="round" /><polyline points="-0.90,-701.43 4.51,-715.78 19.13,-754.64 25.32,-771.06 29.51,-782.18 41.25,-813.36 49.00,-833.96 50.05,-836.73 68.83,-886.63 76.69,-884.20 80.95,-895.79 88.47,-916.28 87.03,-925.59 107.02,-980.00 109.07,-985.58 112.86,-989.07 116.05,-991.99 136.09,-1046.78 138.99,-1061.78 167.75,-1141.67 174.55,-1146.99 188.38,-1186.12 185.92,-1192.13 198.04,-1228.68 191.75,-1261.32" fill="none" stroke="#bcbcbc" stroke-width="8" stroke-linecap="round" stroke-linejoin="round" /><polyline points="513.52,-2187.47 505.46,-2200.69 463.12,-2270.15" fill="none" stroke="#bcbcbc" stroke-width="8" stroke-linecap="round" stroke-linejoin="round" /><polyline points="646.14,-1272.27 840.46,-1147.33 840.51,-1147.25 840.51,-1147.23 876.45,-1142.56" fill="none" stroke="#bcbcbc" stroke-width="8" stroke-linecap="round" stroke-linejoin="round" /><polyline points="568.22,-1533.26 774.96,-1429.50 781.20,-1424.85 780.78,-1390.88 784.97,-1356.03" fill="none" stroke="#bcbcbc" stroke-width="8" stroke-linecap="round" stroke-linejoin="round" /><polyline points="174.06,300.04 166.62,322.72 136.50,414.58 85.26,569.28 81.63,580.26 77.94,591.38 76.91,603.22" fill="none" stroke="#bcbcbc" stroke-width="8" stroke-linecap="round" stroke-linejoin="round" /><polyline points="756.07,-257.99 757.31,-269.51 757.57,-280.26 757.49,-280.64 750.16,-312.30 747.15,-325.53 745.71,-331.92 744.22,-338.44 736.18,-373.87 720.47,-444.66 709.06,-487.22 707.44,-493.80" fill="none" stroke="#bcbcbc" stroke-width="8" stroke-linecap="round" stroke-linejoin="round" /><polyline points="-270.36,390.06 -265.24,375.50 -207.67,211.90 -201.13,193.33" fill="none" stroke="#bcbcbc" stroke-width="8" stroke-linecap="round" stroke-linejoin="round" /><polyline points="1022.27,-942.09 1005.33,-946.87 890.31,-1123.35 876.45,-1142.56" fill="none" stroke="#bcbcbc" stroke-width="8" stroke-linecap="round" stroke-linejoin="round" /><polyline points="-868.62,-518.63 -449.41,-418.21 -420.50,-407.66" fill="none" stroke="#bcbcbc" stroke-width="8" stroke-linecap="round" stroke-linejoin="round" /><polyline points="453.58,-2087.74 616.87,-2027.25 639.86,-2031.18" fill="none" stroke="#bcbcbc" stroke-width="8" stroke-linecap="round" stroke-linejoin="round" />
    <polyline points="167.20,167.20 227.14,241.14 263.84,278.09 279.73,289.52 302.22,308.36 323.35,326.09 341.50,343.80 341.94,352.80" fill="none" stroke="#ffffff" stroke-width="16" stroke-linecap="round" stroke-linejoin="round" />
    <polyline points="167.20,167.20 227.14,241.14 263.84,278.09 279.73,289.52 302.22,308.36 323.35,326.09 341.50,343.80 341.94,352.80" fill="none" stroke="#111111" stroke-width="9" stroke-linecap="round" stroke-linejoin="round" />
    
            <g transform="translate(167.20,167.20)">
              <circle r="19" fill="#ffffff" stroke="#111111" stroke-width="4" />
              <text text-anchor="middle" dominant-baseline="central" font-family="Helvetica, Arial, sans-serif"
                font-size="18" font-weight="700" fill="#111111">1</text>
            </g>
            
            <g transform="translate(341.94,352.80)">
              <circle r="19" fill="#ffffff" stroke="#111111" stroke-width="4" />
              <text text-anchor="middle" dominant-baseline="central" font-family="Helvetica, Arial, sans-serif"
                font-size="18" font-weight="700" fill="#111111">2</text>
            </g>
            
  </g>
</svg>
