<svg xmlns="http://www.w3.org/2000/svg" width="520" height="520" viewBox="0 0 520 520">
  <rect width="100%" height="100%" fill="#ffffff" />
  <g>
    <polyline points="334.33,394.87 335.38,400.44 342.14,447.72 341.11,459.53" fill="none" stroke="#bcbcbc" stroke-width="8" stroke-linecap="round" stroke-linejoin="round" /><polyline points="197.01,788.81 198.64,783.78 207.29,757.16 208.31,754.03 209.35,750.73 231.11,681.32 232.86,675.74 228.85,665.87" fill="none" stroke="#bcbcbc" stroke-width="8" stroke-linecap="round" stroke-linejoin="round" /><polyline points="46.68,727.07 46.33,723.08 53.44,683.23 54.44,678.24 55.19,675.63 57.14,665.52 59.35,653.15 61.74,642.26 64.12,631.39 65.62,628.32 66.60,626.44" fill="none" stroke="#bcbcbc" stroke-width="8" stroke-linecap="round" stroke-linejoin="round" /><polyline points="87.98,445.93 86.29,440.78 68.80,387.44 67.95,385.20" fill="none" stroke="#bcbcbc" stroke-width="8" stroke-linecap="round" stroke-linejoin="round" /><polyline points="-1.74,915.34 -1.22,910.25 -1.01,907.91 0.90,886.85 2.98,868.31 3.47,863.98 3.92,858.79 3.97,858.35 5.15,848.02 6.17,837.53 7.29,827.40 8.05,819.51 8.36,814.64 8.64,810.15 9.14,805.08" fill="none" stroke="#bcbcbc" stroke-width="8" stroke-linecap="round" stroke-linejoin="round" /><polyline points="239.86,801.18 241.10,797.27 249.88,769.68 250.87,766.55 252.29,762.08 253.31,758.88 261.07,725.38" fill="none" stroke="#bcbcbc" stroke-width="8" stroke-linecap="round" stroke-linejoin="round" /><polyline points="205.75,255.53 208.99,256.03 298.28,269.75" fill="none" stroke="#bcbcbc" stroke-width="8" stroke-linecap="round" stroke-linejoin="round" /><polyline points="-23.46,794.68 -32.75,794.25 -38.42,793.99 -41.50,793.84 -44.20,793.72 -65.24,792.74 -94.52,791.38 -108.47,789.40 -113.14,788.74 -117.19,788.02 -144.63,783.18 -148.46,782.50 -149.31,782.35 -154.05,781.54 -157.69,780.92 -180.94,778.86 -185.37,778.47 -187.00,778.33 -192.02,777.98 -201.87,777.30" fill="none" stroke="#bcbcbc" stroke-width="8" stroke-linecap="round" stroke-linejoin="round" /><polyline points="111.55,767.72 113.35,762.59 129.57,717.62 149.09,660.90 150.34,657.34 151.21,654.85 151.92,652.81" fill="none" stroke="#bcbcbc" stroke-width="8" stroke-linecap="round" stroke-linejoin="round" /><polyline points="-187.00,778.33 -187.41,775.43 -187.51,772.29 -186.89,765.97 -185.48,754.42 -184.54,750.55 -183.01,736.53 -182.73,733.41 -182.28,729.40 -181.95,726.42 -181.33,723.04 -180.16,713.95 -179.36,707.00 -178.17,704.16" fill="none" stroke="#bcbcbc" stroke-width="8" stroke-linecap="round" stroke-linejoin="round" /><polyline points="-203.60,700.60 -181.96,703.63 -178.17,704.16 -175.82,704.53 -166.12,706.08 -143.78,709.64 -139.94,710.28" fill="none" stroke="#bcbcbc" stroke-width="8" stroke-linecap="round" stroke-linejoin="round" /><polyline points="194.58,416.74 194.72,418.70 195.01,420.69 195.71,422.22 197.03,423.92 199.46,426.14 205.23,429.64 249.71,457.56 277.11,494.29 297.80,545.37 299.15,548.75" fill="none" stroke="#bcbcbc" stroke-width="8" stroke-linecap="round" stroke-linejoin="round" /><polyline points="187.45,565.77 188.38,567.30 188.62,567.70 189.38,571.55 194.60,596.79 196.26,604.80 197.44,610.51 199.29,622.07 200.15,627.41 200.75,630.66 201.40,633.60 202.18,635.32 203.32,637.30 203.93,638.24 215.49,654.79 221.74,664.63 223.37,666.99" fill="none" stroke="#bcbcbc" stroke-width="8" stroke-linecap="round" stroke-linejoin="round" /><polyline points="-144.36,881.83 -143.75,878.04 -143.18,875.30 -143.02,874.94 -135.33,856.64 -130.43,844.75 -128.94,840.98 -127.36,836.99 -125.65,833.56 -125.37,832.89 -123.03,827.22 -121.21,822.20 -119.66,817.60 -118.67,814.35 -117.56,810.33 -116.29,804.94 -115.32,800.56 -114.16,794.46 -113.92,793.10 -113.14,788.74" fill="none" stroke="#bcbcbc" stroke-width="8" stroke-linecap="round" stroke-linejoin="round" /><polyline points="228.37,370.92 252.90,388.07 256.20,388.77 258.62,391.54" fill="none" stroke="#bcbcbc" stroke-width="8" stroke-linecap="round" stroke-linejoin="round" /><polyline points="125.37,529.25 128.61,530.50 142.68,535.10 175.33,547.62 177.16,549.45 178.02,550.81" fill="none" stroke="#bcbcbc" stroke-width="8" stroke-linecap="round" stroke-linejoin="round" /><polyline points="186.20,851.03 188.43,845.23 199.40,815.45 207.16,792.95 208.77,792.21" fill="none" stroke="#bcbcbc" stroke-width="8" stroke-linecap="round" stroke-linejoin="round" /><polyline points="31.06,813.27 32.79,809.44 32.96,809.06 35.92,799.12 40.78,782.75 42.02,778.56 42.99,775.31 43.11,773.42 42.92,769.22" fill="none" stroke="#bcbcbc" stroke-width="8" stroke-linecap="round" stroke-linejoin="round" /><polyline points="232.80,567.08 230.01,567.66 223.71,566.53 222.73,563.93 211.80,559.77 209.22,560.44 199.36,556.82 197.89,557.85" fill="none" stroke="#bcbcbc" stroke-width="8" stroke-linecap="round" stroke-linejoin="round" /><polyline points="216.57,229.06 221.52,230.28 224.26,230.75 289.39,242.05" fill="none" stroke="#bcbcbc" stroke-width="8" stroke-linecap="round" stroke-linejoin="round" /><polyline points="165.95,832.89 168.66,825.25 173.93,810.41 177.33,804.08 182.22,790.37 184.18,784.90" fill="none" stroke="#bcbcbc" stroke-width="8" stroke-linecap="round" stroke-linejoin="round" /><polyline points="-190.91,536.39 -195.63,536.17 -196.81,537.61 -205.03,547.60 -233.76,580.79 -237.80,585.45" fill="none" stroke="#bcbcbc" stroke-width="8" stroke-linecap="round" stroke-linejoin="round" /><polyline points="61.07,564.82 58.99,569.43 58.74,569.99 51.51,588.85 44.21,609.63 42.27,615.16 41.17,618.02" fill="none" stroke="#bcbcbc" stroke-width="8" stroke-linecap="round" stroke-linejoin="round" /><polyline points="167.20,352.80 169.50,355.92 171.14,360.21 173.69,366.36 177.79,376.04 181.42,384.74 185.59,394.28 188.68,401.63 189.14,402.69 189.17,402.75 191.65,408.57 192.40,410.22 193.10,411.80 193.85,413.27 194.41,414.77 194.58,416.74" fill="none" stroke="#bcbcbc" stroke-width="8" stroke-linecap="round" stroke-linejoin="round" /><polyline points="-8.76,657.83 -7.55,657.17 -5.87,655.84 -5.03,654.10 6.15,611.71 6.49,609.32 7.85,604.95" fill="none" stroke="#bcbcbc" stroke-width="8" stroke-linecap="round" stroke-linejoin="round" /><polyline points="382.09,591.50 383.68,596.53 384.80,601.82 382.62,621.96 380.11,637.12 378.74,642.29 378.62,642.76 377.42,645.55 375.78,648.51 371.95,653.34 373.81,662.80 367.81,683.10 364.51,694.32 357.74,712.67 347.83,735.01 335.73,756.43 331.95,763.39 325.12,774.82 297.82,813.57 291.84,821.63 268.68,851.89 255.39,867.02 236.79,885.93 235.07,886.11 230.87,889.54" fill="none" stroke="#bcbcbc" stroke-width="8" stroke-linecap="round" stroke-linejoin="round" /><polyline points="45.29,922.92 52.91,899.29 54.15,895.39 55.85,892.93 59.49,882.00 60.67,878.29 75.70,831.22 77.22,826.49 78.46,822.33 96.20,766.49" fill="none" stroke="#bcbcbc" stroke-width="8" stroke-linecap="round" stroke-linejoin="round" /><polyline points="223.78,483.38 230.37,476.19 232.31,473.84 245.62,454.99" fill="none" stroke="#bcbcbc" stroke-width="8" stroke-linecap="round" stroke-linejoin="round" /><polyline points="92.13,486.24 110.27,492.55 111.27,494.18 116.42,495.91 119.48,496.95 134.10,501.89" fill="none" stroke="#bcbcbc" stroke-width="8" stroke-linecap="round" stroke-linejoin="round" /><polyline points="250.23,360.69 258.62,391.54 268.33,427.87 269.81,430.90 270.04,434.36 276.63,446.65 294.40,479.80 298.29,485.54 299.41,487.22 325.97,536.87 338.17,547.97 339.88,550.18 342.30,552.24 365.47,572.06 367.04,573.40 371.20,575.61" fill="none" stroke="#bcbcbc" stroke-width="8" stroke-linecap="round" stroke-linejoin="round" /><polyline points="160.11,927.94 217.90,894.37 228.19,889.10 230.87,889.54" fill="none" stroke="#bcbcbc" stroke-width="8" stroke-linecap="round" stroke-linejoin="round" /><polyline points="222.77,879.91 226.35,875.65 258.55,811.41 260.68,807.19 262.46,803.02 272.86,777.31 275.95,769.56 284.91,742.43 290.73,707.56 291.41,702.48" fill="none" stroke="#bcbcbc" stroke-width="8" stroke-linecap="round" stroke-linejoin="round" /><polyline points="197.93,502.11 197.36,502.69 196.59,505.39 196.51,505.66 193.02,519.12 193.93,522.63 193.17,525.78 192.17,529.90 189.62,532.86 186.71,544.61 183.30,547.20 179.65,549.70 178.02,550.81" fill="none" stroke="#bcbcbc" stroke-width="8" stroke-linecap="round" stroke-linejoin="round" /><polyline points="61.07,564.82 62.56,561.01 71.49,538.11 73.44,533.12 75.04,529.01 86.45,499.77 91.59,487.54 92.13,486.24 96.12,476.58 105.08,454.33 108.36,444.86 109.09,442.69 110.07,440.23" fill="none" stroke="#bcbcbc" stroke-width="8" stroke-linecap="round" stroke-linejoin="round" /><polyline points="161.01,426.02 162.73,431.16 219.41,479.58 250.34,506.49 296.53,546.65 300.56,549.88 302.37,551.00 310.38,558.28 321.09,567.41 345.37,588.12 353.21,594.86 358.41,601.09" fill="none" stroke="#bcbcbc" stroke-width="8" stroke-linecap="round" stroke-linejoin="round" /><polyline points="254.72,342.59 257.59,340.74 274.62,333.67 278.12,329.98" fill="none" stroke="#bcbcbc" stroke-width="8" stroke-linecap="round" stroke-linejoin="round" /><polyline points="274.39,773.48 250.87,766.55 208.31,754.03" fill="none" stroke="#bcbcbc" stroke-width="8" stroke-linecap="round" stroke-linejoin="round" /><polyline points="198.49,273.28 201.70,275.50 306.35,298.79" fill="none" stroke="#bcbcbc" stroke-width="8" stroke-linecap="round" stroke-linejoin="round" /><polyline points="327.76,617.90 322.35,605.86 310.35,577.23 309.45,574.96 307.40,569.73 299.66,550.04 299.18,548.77" fill="none" stroke="#bcbcbc" stroke-width="8" stroke-linecap="round" stroke-linejoin="round" /><polyline points="167.20,352.80 161.39,351.15 157.12,349.87 148.44,347.30 144.03,346.04 141.51,345.34 138.21,344.39" fill="none" stroke="#bcbcbc" stroke-width="8" stroke-linecap="round" stroke-linejoin="round" /><polyline points="15.71,510.27 15.41,509.31 15.14,508.64 13.95,505.66 9.31,494.85 4.90,483.86 3.95,481.26 2.85,478.27 2.06,475.83 0.77,472.16 0.63,471.78 -3.59,461.38 -11.33,441.84 -13.07,440.85 -14.31,437.68 -16.78,429.10 -21.01,418.46 -21.92,416.04" fill="none" stroke="#bcbcbc" stroke-width="8" stroke-linecap="round" stroke-linejoin="round" /><polyline points="52.91,899.29 57.30,900.64 71.53,904.97 75.99,906.33" fill="none" stroke="#bcbcbc" stroke-width="8" stroke-linecap="round" stroke-linejoin="round" /><polyline points="318.62,347.71 319.45,344.35 319.11,343.08 318.70,341.54 316.11,332.02 310.31,311.90 307.26,301.61 306.35,298.79 298.28,269.75 293.92,254.09 289.39,242.05 285.31,231.18 281.24,223.71 277.29,219.76 246.94,182.67 244.69,180.03 243.20,177.59" fill="none" stroke="#bcbcbc" stroke-width="8" stroke-linecap="round" stroke-linejoin="round" /><polyline points="194.58,416.74 193.01,417.33 190.12,418.13 189.83,418.21 177.74,421.31 163.84,425.22 161.01,426.02 159.74,426.42 156.40,427.49 153.55,428.29 141.09,431.75 120.59,437.58 112.95,439.51 110.07,440.23 96.42,443.58 87.98,445.93 70.11,450.93 52.45,455.90 50.41,456.47 35.64,460.57 28.84,462.46 25.40,464.08 18.89,467.31 5.96,473.87 5.06,474.33 2.06,475.83 0.23,476.75 -2.32,478.09 -11.40,482.85 -27.95,492.13 -41.77,499.37 -43.75,500.41 -46.39,500.57 -47.97,501.42 -48.29,501.59 -63.29,509.80 -66.43,509.79 -70.03,511.68 -71.29,512.34 -72.35,512.89 -74.86,514.20 -76.83,518.71 -85.32,523.25 -88.02,524.70 -90.94,526.29 -102.74,532.71 -108.85,536.04 -111.92,536.92" fill="none" stroke="#bcbcbc" stroke-width="8" stroke-linecap="round" stroke-linejoin="round" /><polyline points="364.51,694.32 358.21,694.89 338.52,696.70 337.64,696.78 336.38,696.89 334.35,697.08 315.27,698.83 308.63,698.22 300.90,700.15 294.71,701.67 291.41,702.48 283.22,702.79 276.13,702.43 272.52,702.05 269.44,701.11 267.17,699.86 258.73,693.89 238.23,679.81 236.30,678.50 234.33,677.16 232.86,675.74" fill="none" stroke="#bcbcbc" stroke-width="8" stroke-linecap="round" stroke-linejoin="round" /><polyline points="-99.85,456.54 -92.41,471.11 -91.29,475.27 -85.02,487.23 -82.43,490.65 -71.96,511.03 -71.29,512.34" fill="none" stroke="#bcbcbc" stroke-width="8" stroke-linecap="round" stroke-linejoin="round" /><polyline points="128.13,586.08 127.01,589.14 126.70,590.09 125.25,594.50 116.05,620.18 111.48,632.94 111.32,633.37 109.49,637.34 108.43,639.69" fill="none" stroke="#bcbcbc" stroke-width="8" stroke-linecap="round" stroke-linejoin="round" /><polyline points="250.23,360.69 249.21,358.51 246.53,358.16 237.85,360.15 236.09,359.92 234.71,358.07 232.26,346.78 245.55,344.72 251.71,342.90 254.72,342.59 257.96,354.12" fill="none" stroke="#bcbcbc" stroke-width="8" stroke-linecap="round" stroke-linejoin="round" /><polyline points="298.29,485.54 301.71,483.61 318.91,473.25 323.51,470.51 331.56,465.71 344.80,457.15 347.89,454.93 371.11,440.52" fill="none" stroke="#bcbcbc" stroke-width="8" stroke-linecap="round" stroke-linejoin="round" /><polyline points="379.46,553.59 373.59,551.84 370.18,549.04 357.13,537.75 356.69,537.36 353.53,534.54 351.68,531.25 318.91,473.25" fill="none" stroke="#bcbcbc" stroke-width="8" stroke-linecap="round" stroke-linejoin="round" /><polyline points="9.66,548.99 61.07,564.82 65.27,566.15 103.63,578.31 104.44,578.56 110.18,580.39 113.01,581.28 116.68,582.29 124.26,584.85 128.13,586.08 131.61,587.19 160.17,596.24 190.31,605.72 192.80,606.50 196.26,604.80" fill="none" stroke="#bcbcbc" stroke-width="8" stroke-linecap="round" stroke-linejoin="round" /><polyline points="160.83,295.14 183.10,274.67 186.87,271.21" fill="none" stroke="#bcbcbc" stroke-width="8" stroke-linecap="round" stroke-linejoin="round" /><polyline points="-212.10,625.38 -130.38,634.14" fill="none" stroke="#bcbcbc" stroke-width="8" stroke-linecap="round" stroke-linejoin="round" /><polyline points="34.42,397.26 51.60,391.12 69.32,384.71 80.32,380.43 113.93,368.21 123.69,364.83 125.72,364.13 128.17,363.29 130.91,362.34 131.24,362.23 136.78,360.00 139.19,359.03" fill="none" stroke="#bcbcbc" stroke-width="8" stroke-linecap="round" stroke-linejoin="round" /><polyline points="149.78,812.94 165.95,832.89 175.85,842.86 180.14,845.95 186.20,851.03 191.90,855.81 196.80,860.59 196.92,863.02" fill="none" stroke="#bcbcbc" stroke-width="8" stroke-linecap="round" stroke-linejoin="round" /><polyline points="17.70,777.56 16.66,778.39 15.97,779.38 14.57,783.50 13.61,786.48 9.14,799.83 8.53,801.76 8.15,802.95 4.05,801.78 -5.93,798.43 -15.82,795.11 -23.46,794.68" fill="none" stroke="#bcbcbc" stroke-width="8" stroke-linecap="round" stroke-linejoin="round" /><polyline points="-177.71,870.48 -161.42,828.39 -159.60,823.81 -157.98,819.39 -156.01,814.06 -153.60,805.67 -151.09,795.25 -150.06,787.78 -149.31,782.35 -148.26,778.35 -144.42,748.25 -139.94,710.28 -137.63,692.17 -135.04,670.90 -130.38,634.14 -129.64,627.89 -124.93,589.44 -124.92,587.30 -123.88,575.89 -120.88,551.79 -120.12,547.59 -119.34,545.23 -118.11,542.63 -116.91,540.62 -114.28,537.76 -111.92,536.95" fill="none" stroke="#bcbcbc" stroke-width="8" stroke-linecap="round" stroke-linejoin="round" /><polyline points="178.02,550.81 178.91,552.23 181.90,556.89 186.38,564.06 187.45,565.77 189.24,564.42 197.89,557.85" fill="none" stroke="#bcbcbc" stroke-width="8" stroke-linecap="round" stroke-linejoin="round" /><polyline points="183.79,310.76 271.84,326.68 281.09,331.54 315.58,348.65 318.62,347.71" fill="none" stroke="#bcbcbc" stroke-width="8" stroke-linecap="round" stroke-linejoin="round" /><polyline points="15.71,510.27 14.15,512.55 0.10,519.41 -10.22,532.52 -21.35,539.42 -28.96,545.17 -36.23,551.09 -39.95,554.49 -46.53,562.83 -53.88,573.38 -55.10,575.33" fill="none" stroke="#bcbcbc" stroke-width="8" stroke-linecap="round" stroke-linejoin="round" /><polyline points="30.56,519.68 29.95,521.03 28.62,522.98 26.10,526.08 11.26,544.82 3.41,565.97 -36.21,551.07" fill="none" stroke="#bcbcbc" stroke-width="8" stroke-linecap="round" stroke-linejoin="round" /><polyline points="-28.96,545.17 -30.50,540.52 -37.13,520.44 -39.70,516.48 -44.01,503.55 -44.38,502.43 -43.75,500.41 -44.78,497.11 -65.50,430.96" fill="none" stroke="#bcbcbc" stroke-width="8" stroke-linecap="round" stroke-linejoin="round" /><polyline points="213.79,184.18 230.17,184.61 230.93,184.63 234.07,184.72 238.20,185.30" fill="none" stroke="#bcbcbc" stroke-width="8" stroke-linecap="round" stroke-linejoin="round" /><polyline points="129.57,717.62 123.98,717.55 76.65,723.91 73.23,724.27 69.33,724.68 46.68,727.07 16.16,730.29 -0.02,732.00 -8.97,732.95 -16.24,733.83 -19.97,734.28 -24.17,734.79 -44.48,737.26 -49.34,737.85 -64.34,739.49 -144.42,748.25" fill="none" stroke="#bcbcbc" stroke-width="8" stroke-linecap="round" stroke-linejoin="round" /><polyline points="59.49,882.00 55.29,880.65 35.71,874.35 31.75,873.07 28.31,871.97 7.56,865.30 3.47,863.98 -1.95,862.24 -34.98,851.61 -38.70,850.41" fill="none" stroke="#bcbcbc" stroke-width="8" stroke-linecap="round" stroke-linejoin="round" /><polyline points="141.39,485.38 152.78,488.93 194.45,501.80 194.84,501.92 197.93,502.11" fill="none" stroke="#bcbcbc" stroke-width="8" stroke-linecap="round" stroke-linejoin="round" /><polyline points="258.62,391.54 315.30,392.53" fill="none" stroke="#bcbcbc" stroke-width="8" stroke-linecap="round" stroke-linejoin="round" /><polyline points="230.87,889.54 222.77,879.91 219.37,875.95 216.45,873.22 212.56,870.32 204.61,865.55 196.92,863.02 181.27,858.19 168.47,854.12 175.85,842.86" fill="none" stroke="#bcbcbc" stroke-width="8" stroke-linecap="round" stroke-linejoin="round" /><polyline points="149.78,812.94 138.50,799.01 136.35,796.37 124.99,780.71 122.42,775.93 123.04,770.24 126.46,770.20 134.91,771.83 147.77,774.30" fill="none" stroke="#bcbcbc" stroke-width="8" stroke-linecap="round" stroke-linejoin="round" /><polyline points="2.20,701.36 4.28,705.83 16.16,730.29 33.83,766.67 36.08,771.31" fill="none" stroke="#bcbcbc" stroke-width="8" stroke-linecap="round" stroke-linejoin="round" /><polyline points="-188.10,812.15 -183.85,813.89 -163.95,822.03 -159.60,823.81 -155.03,825.68 -131.60,835.26 -127.36,836.99" fill="none" stroke="#bcbcbc" stroke-width="8" stroke-linecap="round" stroke-linejoin="round" /><polyline points="11.98,665.08 53.44,683.23" fill="none" stroke="#bcbcbc" stroke-width="8" stroke-linecap="round" stroke-linejoin="round" /><polyline points="197.93,502.11 204.24,502.44 204.64,502.80 207.48,505.32 211.64,509.03 212.41,510.53 226.77,523.10 227.83,525.11 237.92,534.02 240.46,534.80 248.32,541.67 250.08,542.48 261.92,552.52 264.56,554.86 266.01,557.18" fill="none" stroke="#bcbcbc" stroke-width="8" stroke-linecap="round" stroke-linejoin="round" /><polyline points="-199.81,665.13 -135.04,670.90" fill="none" stroke="#bcbcbc" stroke-width="8" stroke-linecap="round" stroke-linejoin="round" /><polyline points="-55.20,906.33 -53.19,902.06 -52.67,900.15 -49.86,889.78 -39.67,853.85 -38.70,850.41 -37.67,846.64 -33.05,829.76 -25.26,801.25 -23.46,794.68" fill="none" stroke="#bcbcbc" stroke-width="8" stroke-linecap="round" stroke-linejoin="round" /><polyline points="2.20,701.36 11.98,665.08 -8.76,657.83 -14.18,661.04 -16.66,662.92 -18.49,665.40 -19.78,668.67 -24.55,686.30 -20.70,688.26 -16.82,689.20 -8.22,691.44 -1.79,693.48 2.20,701.36" fill="none" stroke="#bcbcbc" stroke-width="8" stroke-linecap="round" stroke-linejoin="round" /><polyline points="-24.55,686.30 -29.09,685.66 -135.04,670.90" fill="none" stroke="#bcbcbc" stroke-width="8" stroke-linecap="round" stroke-linejoin="round" /><polyline points="147.77,774.30 157.60,776.45 184.18,784.90 191.61,787.25 209.25,792.35 227.02,797.47 240.17,801.27 261.21,807.35 265.56,808.60 276.17,812.16 293.65,816.82 295.20,817.11" fill="none" stroke="#bcbcbc" stroke-width="8" stroke-linecap="round" stroke-linejoin="round" /><polyline points="160.24,927.87 156.65,928.77 152.78,939.57 146.76,937.86 119.43,928.55 116.14,927.84 108.82,927.32 75.71,927.45 68.42,926.52 51.94,924.00 45.29,922.92 -1.86,915.32 -20.12,912.40 -54.94,906.37 -60.56,905.26 -139.14,883.29 -144.10,881.90 -177.71,870.48 -185.98,867.54 -206.64,858.98 -218.41,854.53" fill="none" stroke="#bcbcbc" stroke-width="8" stroke-linecap="round" stroke-linejoin="round" /><polyline points="232.26,346.78 228.85,346.08 183.44,351.45 167.20,352.80" fill="none" stroke="#bcbcbc" stroke-width="8" stroke-linecap="round" stroke-linejoin="round" /><polyline points="147.77,774.30 149.37,771.64 158.90,747.16 169.54,710.14 172.26,702.17 173.71,700.00 183.99,667.00 184.51,663.05 184.89,660.48" fill="none" stroke="#bcbcbc" stroke-width="8" stroke-linecap="round" stroke-linejoin="round" /><polyline points="194.58,416.74 195.66,416.32 197.13,415.15 199.37,412.54 228.37,370.92 236.09,359.92" fill="none" stroke="#bcbcbc" stroke-width="8" stroke-linecap="round" stroke-linejoin="round" /><polyline points="323.64,569.61 324.24,567.90 338.81,550.75 339.88,550.18 342.42,546.71 350.90,536.97 353.53,534.54" fill="none" stroke="#bcbcbc" stroke-width="8" stroke-linecap="round" stroke-linejoin="round" /><polyline points="336.38,696.89 336.18,694.60 336.02,692.82 335.26,689.43 334.34,687.21 333.19,681.40 333.09,679.29 332.31,674.58 328.84,672.77 326.07,673.83 321.11,675.02 317.18,675.63 313.41,676.54 308.21,677.73 305.84,678.27" fill="none" stroke="#bcbcbc" stroke-width="8" stroke-linecap="round" stroke-linejoin="round" /><polyline points="-46.60,612.66 -35.99,587.80 -35.40,586.19" fill="none" stroke="#bcbcbc" stroke-width="8" stroke-linecap="round" stroke-linejoin="round" /><polyline points="232.80,567.08 237.91,565.10 240.58,564.07 242.64,561.98 251.16,559.88 254.02,560.60 260.19,559.01 264.89,557.80 266.01,557.18 270.57,556.06 293.89,550.35 299.18,548.77" fill="none" stroke="#bcbcbc" stroke-width="8" stroke-linecap="round" stroke-linejoin="round" /><polyline points="17.70,777.56 28.70,773.56 32.38,772.44 36.08,771.31 42.92,769.22 48.24,768.45 66.40,766.47 70.05,766.27 86.30,766.41 96.20,766.49 99.92,766.30 105.89,766.90 107.75,767.17 111.55,767.72 123.04,770.24" fill="none" stroke="#bcbcbc" stroke-width="8" stroke-linecap="round" stroke-linejoin="round" /><polyline points="70.11,450.93 68.29,444.76 61.52,421.87 53.30,395.77 51.60,391.12 49.88,386.75 47.70,380.46" fill="none" stroke="#bcbcbc" stroke-width="8" stroke-linecap="round" stroke-linejoin="round" /><polyline points="50.42,819.99 51.87,815.42 66.49,769.30 66.40,766.47" fill="none" stroke="#bcbcbc" stroke-width="8" stroke-linecap="round" stroke-linejoin="round" /><polyline points="70.05,766.27 72.94,727.43 73.23,724.27 73.68,720.58 73.68,720.42 73.87,715.91 74.84,703.69 75.39,698.00 76.13,691.53 76.81,686.87 77.42,683.95 78.19,681.74 79.69,676.76 82.79,666.39 86.75,653.01 91.10,639.32 91.99,636.53 92.70,634.50" fill="none" stroke="#bcbcbc" stroke-width="8" stroke-linecap="round" stroke-linejoin="round" /><polyline points="-24.55,686.30 -25.32,689.74 -25.19,690.84 -20.47,730.12 -19.97,734.28 -20.18,738.56 -21.42,763.00 -21.94,773.20 -22.20,778.47 -22.68,787.85 -22.93,792.74 -23.46,794.68" fill="none" stroke="#bcbcbc" stroke-width="8" stroke-linecap="round" stroke-linejoin="round" /><polyline points="-46.60,612.66 -63.75,607.56 -65.93,606.16 -76.60,603.05 -79.60,603.08 -93.02,599.04 -95.19,597.44 -107.39,593.74 -122.37,589.66 -122.44,589.65 -124.93,589.44" fill="none" stroke="#bcbcbc" stroke-width="8" stroke-linecap="round" stroke-linejoin="round" /><polyline points="266.01,557.18 266.61,557.96 269.09,561.67 273.69,568.52 278.02,572.86 286.34,582.20 284.93,590.84 284.22,594.07 283.23,595.44 285.31,598.53 288.54,605.17 294.99,617.62 298.17,623.74 300.14,629.25 301.03,631.81" fill="none" stroke="#bcbcbc" stroke-width="8" stroke-linecap="round" stroke-linejoin="round" /><polyline points="309.45,574.96 307.06,575.70 291.31,580.61 289.05,581.33 286.34,582.20" fill="none" stroke="#bcbcbc" stroke-width="8" stroke-linecap="round" stroke-linejoin="round" /><polyline points="196.26,604.80 201.18,603.21 236.94,584.95 241.72,582.61 258.58,577.74 274.91,573.14 278.02,572.86" fill="none" stroke="#bcbcbc" stroke-width="8" stroke-linecap="round" stroke-linejoin="round" /><polyline points="200.15,627.41 241.37,608.22 243.11,607.08 247.14,605.90 274.61,597.91 278.77,596.31 283.23,595.44" fill="none" stroke="#bcbcbc" stroke-width="8" stroke-linecap="round" stroke-linejoin="round" /><polyline points="191.74,225.21 208.43,227.27 210.10,227.47 216.57,229.06" fill="none" stroke="#bcbcbc" stroke-width="8" stroke-linecap="round" stroke-linejoin="round" /><polyline points="334.33,394.87 337.29,394.26 348.35,399.68 349.81,401.12 370.56,436.26 371.11,440.52 373.81,442.77 373.38,444.32 373.31,446.85 373.69,450.39 379.18,472.99 379.67,488.64 380.44,513.63 381.73,547.26 376.47,561.92 373.08,570.85 368.13,583.44 366.69,587.08 365.76,588.10 364.27,597.85" fill="none" stroke="#bcbcbc" stroke-width="8" stroke-linecap="round" stroke-linejoin="round" /><polyline points="372.71,657.20 367.66,655.00 355.05,646.20 338.40,634.50 329.25,627.10 323.07,620.49" fill="none" stroke="#bcbcbc" stroke-width="8" stroke-linecap="round" stroke-linejoin="round" /><polyline points="168.47,854.12 163.51,852.55 155.47,850.00 151.63,848.78 147.12,847.35 141.42,845.55 136.27,843.91 131.18,842.30 108.47,835.09 104.50,833.83 99.56,832.27 98.47,831.92 85.48,828.49 81.81,827.60 77.22,826.49 72.40,825.32 55.07,821.12 50.42,819.99 45.43,818.26 34.99,814.63 31.06,813.27 27.54,812.12 11.20,806.31 9.14,805.08 8.15,802.95" fill="none" stroke="#bcbcbc" stroke-width="8" stroke-linecap="round" stroke-linejoin="round" /><polyline points="243.11,607.08 241.90,602.76 238.32,589.89 236.94,584.95 234.94,581.25 234.76,580.56 233.58,576.21 234.95,574.28 233.31,568.79 232.80,567.08" fill="none" stroke="#bcbcbc" stroke-width="8" stroke-linecap="round" stroke-linejoin="round" /><polyline points="237.11,449.63 240.52,448.03 259.15,437.75 269.81,430.90 277.32,425.77 278.98,424.54 285.03,420.33 291.29,415.70 295.26,412.82 299.99,409.36 316.43,401.94 318.56,402.05 321.68,400.58 334.33,394.87" fill="none" stroke="#bcbcbc" stroke-width="8" stroke-linecap="round" stroke-linejoin="round" /><polyline points="30.56,519.68 33.25,520.77 35.02,521.32 68.35,531.55 73.44,533.12" fill="none" stroke="#bcbcbc" stroke-width="8" stroke-linecap="round" stroke-linejoin="round" /><polyline points="-207.48,594.63 -231.29,587.43" fill="none" stroke="#bcbcbc" stroke-width="8" stroke-linecap="round" stroke-linejoin="round" /><polyline points="177.11,258.84 183.01,266.32 183.89,267.43 186.87,271.21 190.27,271.61 197.25,272.43 198.49,273.28" fill="none" stroke="#bcbcbc" stroke-width="8" stroke-linecap="round" stroke-linejoin="round" /><polyline points="382.09,591.50 372.74,593.24 363.15,598.45 354.26,603.40 345.85,607.61 335.69,613.13 328.33,617.60 313.79,625.39 257.03,653.95 242.31,660.44 232.59,664.64 227.77,666.22 223.79,666.96 217.26,667.36 207.98,666.04 184.81,660.48 151.92,652.81 108.64,639.76 92.70,634.50 66.60,626.44 41.63,618.21 5.02,603.84 -13.29,595.96 -35.36,586.14 -71.98,566.08 -80.56,560.39 -102.28,546.72 -111.39,537.61 -125.06,519.91 -147.57,496.70 -156.42,488.90" fill="none" stroke="#bcbcbc" stroke-width="8" stroke-linecap="round" stroke-linejoin="round" /><polyline points="204.61,865.55 204.99,863.41 206.38,859.91 219.36,829.53 224.27,818.14 230.05,803.95 231.46,798.75" fill="none" stroke="#bcbcbc" stroke-width="8" stroke-linecap="round" stroke-linejoin="round" /><polyline points="-44.48,737.26 -59.22,730.12 -92.79,713.88 -133.95,693.95 -137.63,692.17" fill="none" stroke="#bcbcbc" stroke-width="8" stroke-linecap="round" stroke-linejoin="round" /><polyline points="197.93,502.11 201.65,498.30 211.55,488.16 219.41,479.58" fill="none" stroke="#bcbcbc" stroke-width="8" stroke-linecap="round" stroke-linejoin="round" /><polyline points="-88.02,524.70 -92.11,519.28 -111.28,493.89 -138.65,471.74" fill="none" stroke="#bcbcbc" stroke-width="8" stroke-linecap="round" stroke-linejoin="round" /><polyline points="-206.79,858.92 -203.04,850.04 -191.14,820.37 -189.70,816.47 -188.10,812.15 -187.49,810.60 -187.33,808.15 -185.81,785.09 -185.37,778.47" fill="none" stroke="#bcbcbc" stroke-width="8" stroke-linecap="round" stroke-linejoin="round" /><polyline points="-214.91,620.40 -207.48,594.63 -197.68,560.64 -196.46,556.44 -195.11,551.66 -192.09,540.96 -191.78,539.83 -190.91,536.39 -189.53,532.50 -189.20,531.56 -187.45,527.24 -184.03,519.69 -183.01,517.53" fill="none" stroke="#bcbcbc" stroke-width="8" stroke-linecap="round" stroke-linejoin="round" /><polyline points="-196.46,556.44 -181.43,560.28 -149.59,568.47 -131.45,574.12 -123.88,575.89" fill="none" stroke="#bcbcbc" stroke-width="8" stroke-linecap="round" stroke-linejoin="round" /><polyline points="112.95,439.51 113.46,436.38 113.98,433.13 116.18,422.27 121.69,396.98 126.22,374.35 127.04,369.66 128.17,363.29 128.17,363.28" fill="none" stroke="#bcbcbc" stroke-width="8" stroke-linecap="round" stroke-linejoin="round" /><polyline points="68.45,926.53 75.16,909.41 75.99,906.33 102.63,838.71 104.50,833.83 106.01,829.69 121.93,783.38 124.99,780.71" fill="none" stroke="#bcbcbc" stroke-width="8" stroke-linecap="round" stroke-linejoin="round" /><polyline points="159.74,426.42 159.74,426.41 158.80,421.46 158.65,420.86 156.35,411.50 156.35,411.47 154.78,405.13 148.14,382.34 147.30,379.90 142.81,367.70 141.35,364.06 140.41,361.71 139.19,359.04 139.19,359.03 139.19,359.02 138.30,349.21 138.21,344.39" fill="none" stroke="#bcbcbc" stroke-width="8" stroke-linecap="round" stroke-linejoin="round" /><polyline points="149.78,812.94 148.07,814.79 145.53,817.82 138.35,838.06 136.27,843.91" fill="none" stroke="#bcbcbc" stroke-width="8" stroke-linecap="round" stroke-linejoin="round" /><polyline points="30.56,519.68 31.54,517.02 31.76,516.41 36.42,503.39 38.17,497.91 52.45,455.90" fill="none" stroke="#bcbcbc" stroke-width="8" stroke-linecap="round" stroke-linejoin="round" /><polyline points="104.44,578.56 105.89,574.69 109.84,564.21 111.51,559.77 112.64,556.77 115.80,548.36 117.90,542.80 118.18,542.06 123.25,528.59 125.37,529.25 126.51,526.12 128.54,520.59 128.16,518.08 133.55,503.40 134.10,501.89 135.12,500.95 135.98,500.16 141.39,485.38 142.17,481.33 149.93,459.78 151.76,458.34 155.50,447.78 154.83,446.16 158.10,436.30 156.40,427.49" fill="none" stroke="#bcbcbc" stroke-width="8" stroke-linecap="round" stroke-linejoin="round" /><polyline points="243.20,177.59 241.03,174.03 229.61,155.29" fill="none" stroke="#bcbcbc" stroke-width="8" stroke-linecap="round" stroke-linejoin="round" /><polyline points="278.98,424.54 331.40,458.25 331.41,458.27 331.41,458.28 341.11,459.53" fill="none" stroke="#bcbcbc" stroke-width="8" stroke-linecap="round" stroke-linejoin="round" /><polyline points="257.96,354.12 313.73,382.11 315.41,383.37 315.30,392.53 316.43,401.94" fill="none" stroke="#bcbcbc" stroke-width="8" stroke-linecap="round" stroke-linejoin="round" /><polyline points="151.63,848.78 149.63,854.90 141.50,879.69 127.68,921.43 126.70,924.39 125.70,927.40 125.43,930.59" fill="none" stroke="#bcbcbc" stroke-width="8" stroke-linecap="round" stroke-linejoin="round" /><polyline points="308.63,698.22 308.97,695.11 309.04,692.20 309.01,692.10 307.04,683.56 306.23,679.99 305.84,678.27 305.44,676.51 303.27,666.95 299.03,647.85 295.95,636.36 295.51,634.59" fill="none" stroke="#bcbcbc" stroke-width="8" stroke-linecap="round" stroke-linejoin="round" /><polyline points="31.75,873.07 33.13,869.14 48.66,825.00 50.42,819.99" fill="none" stroke="#bcbcbc" stroke-width="8" stroke-linecap="round" stroke-linejoin="round" /><polyline points="380.44,513.63 375.87,512.34 344.84,464.72 341.11,459.53" fill="none" stroke="#bcbcbc" stroke-width="8" stroke-linecap="round" stroke-linejoin="round" /><polyline points="-129.64,627.89 -16.55,654.98 -8.76,657.83" fill="none" stroke="#bcbcbc" stroke-width="8" stroke-linecap="round" stroke-linejoin="round" /><polyline points="227.03,204.50 271.08,220.82 277.29,219.76" fill="none" stroke="#bcbcbc" stroke-width="8" stroke-linecap="round" stroke-linejoin="round" />
    <polyline points="167.20,352.80 173.54,336.91 183.79,310.76 198.49,273.28 205.75,255.53 216.57,229.06 225.45,207.38 227.03,204.50 234.84,191.74 235.34,190.92 238.20,185.30 243.20,177.59 246.00,173.29 249.95,167.20" fill="none" stroke="#ffffff" stroke-width="16" stroke-linecap="round" stroke-linejoin="round" />
    <polyline points="167.20,352.80 173.54,336.91 183.79,310.76 198.49,273.28 205.75,255.53 216.57,229.06 225.45,207.38 227.03,204.50 234.84,191.74 235.34,190.92 238.20,185.30 243.20,177.59 246.00,173.29 249.95,167.20" fill="none" stroke="#111111" stroke-width="9" stroke-linecap="round" stroke-linejoin="round" />
    
            <g transform="translate(167.20,352.80)">
              <circle r="19" fill="#ffffff" stroke="#111111" stroke-width="4" />
              <text text-anchor="middle" dominant-baseline="central" font-family="Helvetica, Arial, sans-serif"
                font-size="18" font-weight="700" fill="#111111">1</text>
            </g>
            
            <g transform="translate(249.95,167.20)">
              <circle r="19" fill="#ffffff" stroke="#111111" stroke-width="4" />
              <text text-anchor="middle" dominant-baseline="central" font-family="Helvetica, Arial, sans-serif"
                font-size="18" font-weight="700" fill="#111111">2</text>
            </g>
            
  </g>
</svg>
