<svg xmlns="http://www.w3.org/2000/svg" width="520" height="520" viewBox="0 0 520 520">
  <rect width="100%" height="100%" fill="#ffffff" />
  <g>
    <polyline points="1780.75,-1487.08 1785.48,-1461.97 1815.95,-1248.84 1811.29,-1195.55" fill="none" stroke="#bcbcbc" stroke-width="8" stroke-linecap="round" stroke-linejoin="round" /><polyline points="1161.44,289.03 1168.81,266.38 1207.84,146.35 1212.44,132.21 1217.09,117.36 1315.24,-195.59 1323.13,-220.76 1305.05,-265.28" fill="none" stroke="#bcbcbc" stroke-width="8" stroke-linecap="round" stroke-linejoin="round" /><polyline points="483.51,10.68 481.93,-7.29 514.01,-186.99 518.51,-209.47 521.87,-221.24 530.70,-266.81 540.63,-322.59 551.44,-371.71 562.17,-420.72 568.92,-434.54 573.34,-443.01" fill="none" stroke="#bcbcbc" stroke-width="8" stroke-linecap="round" stroke-linejoin="round" /><polyline points="669.76,-1256.87 662.13,-1280.13 583.28,-1520.60 579.43,-1530.68" fill="none" stroke="#bcbcbc" stroke-width="8" stroke-linecap="round" stroke-linejoin="round" /><polyline points="265.15,859.51 267.51,836.57 268.46,826.04 277.05,731.09 286.44,647.49 288.64,627.97 290.68,604.55 290.90,602.58 296.23,556.02 300.82,508.69 305.88,463.02 309.29,427.46 310.71,405.52 311.97,385.25 314.20,362.42" fill="none" stroke="#bcbcbc" stroke-width="8" stroke-linecap="round" stroke-linejoin="round" /><polyline points="1354.69,344.82 1360.31,327.17 1399.88,202.79 1404.37,188.66 1410.76,168.53 1415.34,154.10 1450.36,3.07" fill="none" stroke="#bcbcbc" stroke-width="8" stroke-linecap="round" stroke-linejoin="round" /><polyline points="1200.88,-2115.33 1215.49,-2113.08 1618.14,-2051.22" fill="none" stroke="#bcbcbc" stroke-width="8" stroke-linecap="round" stroke-linejoin="round" /><polyline points="167.20,315.51 125.29,313.56 99.74,312.37 85.85,311.73 73.67,311.16 -21.23,306.75 -153.24,300.61 -216.15,291.69 -237.21,288.70 -255.48,285.48 -379.23,263.64 -396.53,260.59 -400.36,259.93 -421.73,256.27 -438.15,253.45 -543.01,244.19 -562.98,242.42 -570.31,241.77 -592.98,240.20 -637.37,237.13" fill="none" stroke="#bcbcbc" stroke-width="8" stroke-linecap="round" stroke-linejoin="round" /><polyline points="776.07,193.93 784.19,170.83 857.34,-31.93 945.34,-287.67 950.98,-303.71 954.91,-314.92 958.09,-324.12" fill="none" stroke="#bcbcbc" stroke-width="8" stroke-linecap="round" stroke-linejoin="round" /><polyline points="-570.31,241.77 -572.17,228.74 -572.62,214.58 -569.84,186.06 -563.47,134.00 -559.22,116.52 -552.33,53.35 -551.07,39.27 -549.05,21.18 -547.55,7.75 -544.73,-7.48 -539.49,-48.46 -535.85,-79.81 -530.50,-92.63" fill="none" stroke="#bcbcbc" stroke-width="8" stroke-linecap="round" stroke-linejoin="round" /><polyline points="-645.18,-108.65 -547.60,-95.02 -530.50,-92.63 -519.91,-90.94 -476.17,-83.98 -375.40,-67.92 -358.11,-65.04" fill="none" stroke="#bcbcbc" stroke-width="8" stroke-linecap="round" stroke-linejoin="round" /><polyline points="1150.49,-1388.52 1151.13,-1379.65 1152.44,-1370.67 1155.61,-1363.79 1161.54,-1356.12 1172.51,-1346.13 1198.51,-1330.32 1399.13,-1204.47 1522.68,-1038.83 1616.00,-808.54 1622.09,-793.32" fill="none" stroke="#bcbcbc" stroke-width="8" stroke-linecap="round" stroke-linejoin="round" /><polyline points="1118.37,-716.55 1122.53,-709.67 1123.60,-707.88 1127.05,-690.51 1150.59,-576.71 1158.06,-540.58 1163.40,-514.86 1171.74,-462.71 1175.63,-438.66 1178.31,-423.99 1181.25,-410.74 1184.76,-403.01 1189.91,-394.06 1192.67,-389.84 1244.80,-315.22 1272.99,-270.82 1280.34,-260.21" fill="none" stroke="#bcbcbc" stroke-width="8" stroke-linecap="round" stroke-linejoin="round" /><polyline points="-378.04,708.43 -375.27,691.35 -372.69,679.00 -372.00,677.36 -337.31,594.88 -315.20,541.27 -308.48,524.28 -301.37,506.29 -293.64,490.82 -292.39,487.80 -281.81,462.23 -273.63,439.61 -266.62,418.85 -262.16,404.18 -257.17,386.06 -251.42,361.76 -247.05,342.04 -241.82,314.52 -240.73,308.38 -237.21,288.70" fill="none" stroke="#bcbcbc" stroke-width="8" stroke-linecap="round" stroke-linejoin="round" /><polyline points="1302.88,-1595.07 1413.50,-1517.77 1428.40,-1514.61 1439.31,-1502.13" fill="none" stroke="#bcbcbc" stroke-width="8" stroke-linecap="round" stroke-linejoin="round" /><polyline points="838.36,-881.24 852.98,-875.61 916.46,-854.85 1063.69,-798.39 1071.95,-790.16 1075.83,-784.01" fill="none" stroke="#bcbcbc" stroke-width="8" stroke-linecap="round" stroke-linejoin="round" /><polyline points="1112.73,569.57 1122.76,543.44 1172.25,409.16 1207.25,307.71 1214.51,304.37" fill="none" stroke="#bcbcbc" stroke-width="8" stroke-linecap="round" stroke-linejoin="round" /><polyline points="413.05,399.30 420.86,382.04 421.64,380.33 435.00,335.51 456.89,261.73 462.50,242.85 466.85,228.18 467.44,219.63 466.55,200.71" fill="none" stroke="#bcbcbc" stroke-width="8" stroke-linecap="round" stroke-linejoin="round" /><polyline points="1322.84,-710.66 1310.29,-708.07 1281.86,-713.13 1277.45,-724.86 1228.18,-743.64 1216.53,-740.60 1172.07,-756.92 1165.44,-752.29" fill="none" stroke="#bcbcbc" stroke-width="8" stroke-linecap="round" stroke-linejoin="round" /><polyline points="1249.68,-2234.67 1272.01,-2229.20 1284.36,-2227.06 1578.08,-2176.14" fill="none" stroke="#bcbcbc" stroke-width="8" stroke-linecap="round" stroke-linejoin="round" /><polyline points="1021.39,487.79 1033.61,453.35 1057.35,386.41 1072.70,357.90 1094.78,296.09 1103.59,271.41" fill="none" stroke="#bcbcbc" stroke-width="8" stroke-linecap="round" stroke-linejoin="round" /><polyline points="-587.95,-849.04 -609.23,-850.01 -614.56,-843.54 -651.62,-798.51 -781.18,-648.87 -799.40,-627.82" fill="none" stroke="#bcbcbc" stroke-width="8" stroke-linecap="round" stroke-linejoin="round" /><polyline points="548.43,-720.87 539.04,-700.09 537.90,-697.57 505.27,-612.49 472.38,-518.84 463.62,-493.87 458.64,-480.97" fill="none" stroke="#bcbcbc" stroke-width="8" stroke-linecap="round" stroke-linejoin="round" /><polyline points="1027.02,-1676.78 1037.39,-1662.72 1044.79,-1643.39 1056.31,-1615.63 1074.79,-1571.98 1091.16,-1532.80 1109.95,-1489.77 1123.89,-1456.61 1125.96,-1451.85 1126.08,-1451.56 1137.30,-1425.33 1140.66,-1417.88 1143.85,-1410.78 1147.22,-1404.13 1149.76,-1397.38 1150.49,-1388.52" fill="none" stroke="#bcbcbc" stroke-width="8" stroke-linecap="round" stroke-linejoin="round" /><polyline points="233.52,-301.50 238.94,-304.46 246.53,-310.50 250.33,-318.32 300.74,-509.44 302.26,-520.22 308.41,-539.91" fill="none" stroke="#bcbcbc" stroke-width="8" stroke-linecap="round" stroke-linejoin="round" /><polyline points="1996.14,-600.58 2003.29,-577.89 2008.32,-554.05 1998.52,-463.21 1987.20,-394.88 1981.01,-371.57 1980.45,-369.46 1975.04,-356.88 1967.65,-343.54 1950.40,-321.73 1958.76,-279.09 1931.74,-187.56 1916.82,-137.00 1886.31,-54.26 1841.62,46.49 1787.05,143.04 1770.01,174.42 1739.20,225.97 1616.10,400.66 1589.13,437.00 1484.69,573.47 1424.73,641.68 1340.86,726.91 1333.10,727.71 1314.16,743.20" fill="none" stroke="#bcbcbc" stroke-width="8" stroke-linecap="round" stroke-linejoin="round" /><polyline points="477.24,893.71 511.60,787.16 517.22,769.56 524.86,758.47 541.27,709.23 546.61,692.50 614.40,480.27 621.22,458.92 626.84,440.17 706.84,188.41" fill="none" stroke="#bcbcbc" stroke-width="8" stroke-linecap="round" stroke-linejoin="round" /><polyline points="1282.20,-1088.02 1311.91,-1120.48 1320.67,-1131.04 1380.69,-1216.04" fill="none" stroke="#bcbcbc" stroke-width="8" stroke-linecap="round" stroke-linejoin="round" /><polyline points="688.48,-1075.16 770.28,-1046.69 774.81,-1039.35 798.03,-1031.56 811.82,-1026.85 877.75,-1004.57" fill="none" stroke="#bcbcbc" stroke-width="8" stroke-linecap="round" stroke-linejoin="round" /><polyline points="1401.48,-1641.19 1439.31,-1502.13 1483.11,-1338.32 1489.75,-1324.66 1490.81,-1309.08 1520.51,-1253.63 1600.67,-1104.16 1618.18,-1078.32 1623.26,-1070.75 1743.02,-846.87 1798.06,-796.84 1805.78,-786.88 1816.67,-777.57 1921.17,-688.22 1928.26,-682.16 1947.03,-672.20" fill="none" stroke="#bcbcbc" stroke-width="8" stroke-linecap="round" stroke-linejoin="round" /><polyline points="995.05,916.34 1255.67,764.96 1302.06,741.24 1314.16,743.20" fill="none" stroke="#bcbcbc" stroke-width="8" stroke-linecap="round" stroke-linejoin="round" /><polyline points="1277.62,699.77 1293.79,680.55 1438.97,390.92 1448.58,371.92 1456.61,353.12 1503.50,237.17 1517.47,202.24 1557.88,79.93 1584.09,-77.31 1587.20,-100.20" fill="none" stroke="#bcbcbc" stroke-width="8" stroke-linecap="round" stroke-linejoin="round" /><polyline points="1165.59,-1003.59 1163.05,-1000.98 1159.55,-988.79 1159.20,-987.58 1143.45,-926.92 1147.58,-911.09 1144.14,-896.89 1139.64,-878.31 1128.12,-864.95 1115.03,-811.96 1099.62,-800.32 1083.17,-789.04 1075.83,-784.01" fill="none" stroke="#bcbcbc" stroke-width="8" stroke-linecap="round" stroke-linejoin="round" /><polyline points="548.43,-720.87 555.13,-738.04 595.40,-841.28 604.18,-863.79 611.42,-882.33 662.88,-1014.16 686.05,-1069.28 688.48,-1075.16 706.49,-1118.69 746.89,-1219.00 761.69,-1261.70 764.98,-1271.49 769.40,-1282.59" fill="none" stroke="#bcbcbc" stroke-width="8" stroke-linecap="round" stroke-linejoin="round" /><polyline points="999.10,-1346.67 1006.88,-1323.49 1262.48,-1105.19 1401.95,-983.86 1610.27,-802.78 1628.45,-788.24 1636.60,-783.14 1672.75,-750.33 1721.02,-709.16 1830.52,-615.81 1865.88,-585.40 1889.35,-557.33" fill="none" stroke="#bcbcbc" stroke-width="8" stroke-linecap="round" stroke-linejoin="round" /><polyline points="1421.70,-1722.83 1434.67,-1731.14 1511.47,-1763.05 1527.25,-1779.65" fill="none" stroke="#bcbcbc" stroke-width="8" stroke-linecap="round" stroke-linejoin="round" /><polyline points="1510.40,219.91 1404.37,188.66 1212.44,132.21" fill="none" stroke="#bcbcbc" stroke-width="8" stroke-linecap="round" stroke-linejoin="round" /><polyline points="1168.13,-2035.29 1182.61,-2025.31 1654.57,-1920.30" fill="none" stroke="#bcbcbc" stroke-width="8" stroke-linecap="round" stroke-linejoin="round" /><polyline points="1751.10,-481.53 1726.71,-535.80 1672.58,-664.88 1668.55,-675.14 1659.29,-698.70 1624.40,-787.48 1622.20,-793.24" fill="none" stroke="#bcbcbc" stroke-width="8" stroke-linecap="round" stroke-linejoin="round" /><polyline points="1027.02,-1676.78 1000.82,-1684.24 981.57,-1689.97 942.43,-1701.59 922.55,-1707.26 911.16,-1710.43 896.29,-1714.69" fill="none" stroke="#bcbcbc" stroke-width="8" stroke-linecap="round" stroke-linejoin="round" /><polyline points="343.83,-966.79 342.51,-971.13 341.29,-974.16 335.89,-987.58 314.97,-1036.35 295.09,-1085.89 290.79,-1097.59 285.85,-1111.06 282.31,-1122.08 276.46,-1138.61 275.85,-1140.34 256.83,-1187.22 221.91,-1275.33 214.06,-1279.80 208.48,-1294.09 197.34,-1332.79 178.26,-1380.75 174.15,-1391.65" fill="none" stroke="#bcbcbc" stroke-width="8" stroke-linecap="round" stroke-linejoin="round" /><polyline points="511.60,787.16 531.43,793.23 595.60,812.78 615.69,818.90" fill="none" stroke="#bcbcbc" stroke-width="8" stroke-linecap="round" stroke-linejoin="round" /><polyline points="1709.88,-1699.75 1713.62,-1714.87 1712.10,-1720.61 1710.26,-1727.54 1698.55,-1770.45 1672.43,-1861.18 1658.65,-1907.56 1654.57,-1920.30 1618.14,-2051.22 1598.48,-2121.83 1578.08,-2176.14 1559.66,-2225.12 1541.31,-2258.80 1523.48,-2276.59 1386.61,-2443.83 1376.48,-2455.73 1369.77,-2466.74" fill="none" stroke="#bcbcbc" stroke-width="8" stroke-linecap="round" stroke-linejoin="round" /><polyline points="1150.49,-1388.52 1143.43,-1385.82 1130.39,-1382.22 1129.08,-1381.86 1074.57,-1367.92 1011.89,-1350.27 999.10,-1346.67 993.40,-1344.86 978.34,-1340.02 965.47,-1336.44 909.27,-1320.80 816.83,-1294.54 782.37,-1285.84 769.40,-1282.59 707.81,-1267.47 669.76,-1256.87 589.17,-1234.36 509.53,-1211.92 500.31,-1209.36 433.75,-1190.89 403.04,-1182.36 387.54,-1175.04 358.19,-1160.49 299.90,-1130.91 295.84,-1128.85 282.31,-1122.08 274.05,-1117.95 262.53,-1111.91 221.58,-1090.44 146.96,-1048.58 84.63,-1015.93 75.71,-1011.26 63.80,-1010.52 56.65,-1006.71 55.22,-1005.96 -12.40,-968.90 -26.56,-968.96 -42.81,-960.46 -48.49,-957.49 -53.28,-954.99 -64.58,-949.07 -73.49,-928.76 -111.76,-908.26 -123.93,-901.75 -137.10,-894.58 -190.34,-865.61 -217.87,-850.63 -231.74,-846.63" fill="none" stroke="#bcbcbc" stroke-width="8" stroke-linecap="round" stroke-linejoin="round" /><polyline points="1916.82,-137.00 1888.41,-134.40 1799.65,-126.27 1795.65,-125.90 1789.99,-125.38 1780.83,-124.54 1694.77,-116.64 1664.84,-119.42 1629.99,-110.68 1602.07,-103.84 1587.20,-100.20 1550.25,-98.79 1518.27,-100.42 1501.97,-102.15 1488.09,-106.35 1477.87,-112.00 1439.82,-138.90 1347.36,-202.40 1338.64,-208.31 1329.77,-214.33 1323.13,-220.76" fill="none" stroke="#bcbcbc" stroke-width="8" stroke-linecap="round" stroke-linejoin="round" /><polyline points="-177.30,-1209.04 -143.75,-1143.37 -138.68,-1124.60 -110.41,-1070.68 -98.74,-1055.26 -51.51,-963.36 -48.49,-957.49" fill="none" stroke="#bcbcbc" stroke-width="8" stroke-linecap="round" stroke-linejoin="round" /><polyline points="850.82,-625.00 845.80,-611.19 844.39,-606.90 837.84,-587.03 796.33,-471.24 775.73,-413.74 775.03,-411.78 766.75,-393.91 762.00,-383.29" fill="none" stroke="#bcbcbc" stroke-width="8" stroke-linecap="round" stroke-linejoin="round" /><polyline points="1401.48,-1641.19 1396.88,-1651.04 1384.78,-1652.63 1345.66,-1643.66 1337.71,-1644.69 1331.48,-1653.04 1320.41,-1703.94 1380.37,-1713.22 1408.13,-1721.42 1421.70,-1722.83 1436.32,-1670.85" fill="none" stroke="#bcbcbc" stroke-width="8" stroke-linecap="round" stroke-linejoin="round" /><polyline points="1618.18,-1078.32 1633.63,-1086.99 1711.21,-1133.73 1731.94,-1146.08 1768.23,-1167.71 1827.94,-1206.32 1841.87,-1216.33 1946.60,-1281.29" fill="none" stroke="#bcbcbc" stroke-width="8" stroke-linecap="round" stroke-linejoin="round" /><polyline points="1984.26,-771.49 1957.78,-779.37 1942.39,-791.99 1883.57,-842.89 1881.56,-844.68 1867.34,-857.37 1858.98,-872.19 1711.21,-1133.73" fill="none" stroke="#bcbcbc" stroke-width="8" stroke-linecap="round" stroke-linejoin="round" /><polyline points="316.57,-792.21 548.43,-720.87 567.35,-714.88 740.36,-660.04 743.98,-658.89 769.90,-650.67 782.64,-646.63 799.20,-642.10 833.36,-630.54 850.82,-625.00 866.54,-620.01 995.31,-579.17 1131.23,-536.47 1142.47,-532.94 1158.06,-540.58" fill="none" stroke="#bcbcbc" stroke-width="8" stroke-linecap="round" stroke-linejoin="round" /><polyline points="998.30,-1936.76 1098.73,-2029.03 1115.74,-2044.65" fill="none" stroke="#bcbcbc" stroke-width="8" stroke-linecap="round" stroke-linejoin="round" /><polyline points="-683.49,-447.82 -314.96,-408.32" fill="none" stroke="#bcbcbc" stroke-width="8" stroke-linecap="round" stroke-linejoin="round" /><polyline points="428.24,-1476.33 505.70,-1504.03 585.59,-1532.91 635.23,-1552.21 786.80,-1607.33 830.79,-1622.54 839.97,-1625.72 850.99,-1629.51 863.36,-1633.76 864.87,-1634.28 889.84,-1644.32 900.69,-1648.68" fill="none" stroke="#bcbcbc" stroke-width="8" stroke-linecap="round" stroke-linejoin="round" /><polyline points="948.47,397.84 1021.39,487.79 1066.04,532.74 1085.36,546.65 1112.73,569.57 1138.43,591.14 1160.51,612.68 1161.05,623.63" fill="none" stroke="#bcbcbc" stroke-width="8" stroke-linecap="round" stroke-linejoin="round" /><polyline points="1027.02,-1676.78 1055.60,-1748.41 1101.86,-1866.34 1168.13,-2035.29 1200.88,-2115.33 1249.68,-2234.67 1289.70,-2332.43 1296.86,-2345.40 1332.05,-2402.93 1334.32,-2406.65 1347.20,-2431.96 1369.77,-2466.74 1382.38,-2486.14 1400.22,-2513.59" fill="none" stroke="#bcbcbc" stroke-width="8" stroke-linecap="round" stroke-linejoin="round" /><polyline points="-528.43,657.25 -454.95,467.49 -446.77,446.83 -439.44,426.93 -430.57,402.89 -419.71,365.07 -408.38,318.07 -403.73,284.40 -400.36,259.93 -395.61,241.87 -378.31,106.18 -358.11,-65.04 -347.65,-146.67 -335.99,-242.56 -314.96,-408.32 -311.63,-436.51 -290.38,-609.86 -290.37,-619.52 -285.67,-670.95 -272.12,-779.60 -268.72,-798.55 -265.18,-809.18 -259.63,-820.88 -254.25,-829.97 -242.35,-842.85 -231.72,-846.50" fill="none" stroke="#bcbcbc" stroke-width="8" stroke-linecap="round" stroke-linejoin="round" /><polyline points="1075.83,-784.01 1079.85,-777.64 1093.33,-756.60 1113.51,-724.26 1118.37,-716.55 1126.41,-722.66 1165.44,-752.29" fill="none" stroke="#bcbcbc" stroke-width="8" stroke-linecap="round" stroke-linejoin="round" /><polyline points="1101.86,-1866.34 1498.91,-1794.56 1540.62,-1772.62 1696.18,-1695.51 1709.88,-1699.75" fill="none" stroke="#bcbcbc" stroke-width="8" stroke-linecap="round" stroke-linejoin="round" /><polyline points="343.84,-966.79 336.79,-956.51 273.45,-925.60 226.92,-866.47 176.72,-835.39 142.38,-809.47 109.63,-782.75 92.83,-767.45 63.17,-729.82 30.00,-682.28 24.53,-673.47" fill="none" stroke="#bcbcbc" stroke-width="8" stroke-linecap="round" stroke-linejoin="round" /><polyline points="410.81,-924.37 408.06,-918.27 402.05,-909.49 390.70,-895.53 323.79,-811.01 288.39,-715.67 109.71,-782.83" fill="none" stroke="#bcbcbc" stroke-width="8" stroke-linecap="round" stroke-linejoin="round" /><polyline points="142.38,-809.47 135.46,-830.42 105.57,-920.93 93.96,-938.82 74.53,-997.11 72.85,-1002.14 75.71,-1011.26 71.06,-1026.11 -22.37,-1324.40" fill="none" stroke="#bcbcbc" stroke-width="8" stroke-linecap="round" stroke-linejoin="round" /><polyline points="1237.14,-2437.03 1310.98,-2435.09 1314.43,-2434.99 1328.58,-2434.58 1347.20,-2431.96" fill="none" stroke="#bcbcbc" stroke-width="8" stroke-linecap="round" stroke-linejoin="round" /><polyline points="857.34,-31.93 832.13,-32.23 618.65,-3.58 603.26,-1.96 585.67,-0.10 483.51,10.68 345.88,25.21 272.91,32.91 232.55,37.17 199.78,41.15 182.95,43.20 163.99,45.50 72.43,56.63 50.48,59.29 -17.14,66.69 -378.31,106.18" fill="none" stroke="#bcbcbc" stroke-width="8" stroke-linecap="round" stroke-linejoin="round" /><polyline points="541.27,709.23 522.36,703.14 434.02,674.71 416.17,668.96 400.67,663.98 307.09,633.90 288.64,627.97 264.22,620.12 115.25,572.18 98.49,566.79" fill="none" stroke="#bcbcbc" stroke-width="8" stroke-linecap="round" stroke-linejoin="round" /><polyline points="910.63,-1079.02 962.01,-1063.01 1149.90,-1005.00 1151.65,-1004.46 1165.59,-1003.59" fill="none" stroke="#bcbcbc" stroke-width="8" stroke-linecap="round" stroke-linejoin="round" /><polyline points="1439.31,-1502.13 1694.91,-1497.64" fill="none" stroke="#bcbcbc" stroke-width="8" stroke-linecap="round" stroke-linejoin="round" /><polyline points="1314.16,743.20 1277.62,699.77 1262.29,681.94 1249.12,669.64 1231.58,656.54 1195.73,635.04 1161.05,623.63 1090.48,601.84 1032.76,583.52 1066.04,532.74" fill="none" stroke="#bcbcbc" stroke-width="8" stroke-linecap="round" stroke-linejoin="round" /><polyline points="948.47,397.84 897.59,335.05 887.92,323.10 836.67,252.51 825.07,230.96 827.86,205.30 843.31,205.15 881.42,212.48 939.42,223.64" fill="none" stroke="#bcbcbc" stroke-width="8" stroke-linecap="round" stroke-linejoin="round" /><polyline points="282.92,-105.26 292.30,-85.08 345.88,25.21 425.55,189.21 435.71,210.13" fill="none" stroke="#bcbcbc" stroke-width="8" stroke-linecap="round" stroke-linejoin="round" /><polyline points="-575.29,394.30 -556.12,402.13 -466.36,438.82 -446.77,446.83 -426.15,455.26 -320.48,498.47 -301.37,506.29" fill="none" stroke="#bcbcbc" stroke-width="8" stroke-linecap="round" stroke-linejoin="round" /><polyline points="327.01,-268.79 514.01,-186.99" fill="none" stroke="#bcbcbc" stroke-width="8" stroke-linecap="round" stroke-linejoin="round" /><polyline points="1165.59,-1003.59 1194.07,-1002.09 1195.89,-1000.47 1208.67,-989.14 1227.45,-972.37 1230.92,-965.63 1295.66,-908.94 1300.45,-899.89 1345.97,-859.72 1357.43,-856.23 1392.84,-825.22 1400.77,-821.59 1454.18,-776.29 1466.07,-765.75 1472.63,-755.31" fill="none" stroke="#bcbcbc" stroke-width="8" stroke-linecap="round" stroke-linejoin="round" /><polyline points="-628.07,-268.61 -335.99,-242.56" fill="none" stroke="#bcbcbc" stroke-width="8" stroke-linecap="round" stroke-linejoin="round" /><polyline points="24.08,818.89 33.13,799.63 35.46,791.05 48.14,744.29 94.09,582.30 98.49,566.79 103.14,549.78 123.95,473.67 159.10,345.14 167.20,315.51" fill="none" stroke="#bcbcbc" stroke-width="8" stroke-linecap="round" stroke-linejoin="round" /><polyline points="282.92,-105.26 327.01,-268.79 233.52,-301.50 209.03,-287.05 197.87,-278.56 189.61,-267.38 183.80,-252.63 162.29,-173.16 179.64,-164.32 197.17,-160.07 235.92,-149.99 264.92,-140.75 282.92,-105.26" fill="none" stroke="#bcbcbc" stroke-width="8" stroke-linecap="round" stroke-linejoin="round" /><polyline points="162.29,-173.16 141.82,-176.01 -335.99,-242.56" fill="none" stroke="#bcbcbc" stroke-width="8" stroke-linecap="round" stroke-linejoin="round" /><polyline points="939.42,223.64 983.73,233.32 1103.59,271.41 1137.10,282.01 1216.65,304.98 1296.79,328.09 1356.11,345.23 1450.99,372.62 1470.59,378.28 1518.47,394.33 1597.30,415.33 1604.25,416.63" fill="none" stroke="#bcbcbc" stroke-width="8" stroke-linecap="round" stroke-linejoin="round" /><polyline points="995.64,916.00 979.46,920.05 961.98,968.78 934.87,961.08 811.59,919.07 796.75,915.90 763.74,913.54 614.45,914.14 581.54,909.95 507.22,898.58 477.24,893.71 264.61,859.43 182.28,846.29 25.25,819.09 -0.10,814.07 -354.48,715.03 -376.84,708.76 -528.43,657.25 -565.73,644.02 -658.89,605.41 -711.99,585.33" fill="none" stroke="#bcbcbc" stroke-width="8" stroke-linecap="round" stroke-linejoin="round" /><polyline points="1320.41,-1703.94 1305.06,-1707.10 1100.25,-1682.89 1027.02,-1676.78" fill="none" stroke="#bcbcbc" stroke-width="8" stroke-linecap="round" stroke-linejoin="round" /><polyline points="939.42,223.64 946.59,211.63 989.57,101.26 1037.60,-65.64 1049.85,-101.58 1056.40,-111.37 1102.76,-260.18 1105.07,-277.95 1106.82,-289.56" fill="none" stroke="#bcbcbc" stroke-width="8" stroke-linecap="round" stroke-linejoin="round" /><polyline points="1150.49,-1388.52 1155.39,-1390.39 1162.02,-1395.65 1172.10,-1407.44 1302.88,-1595.07 1337.71,-1644.69" fill="none" stroke="#bcbcbc" stroke-width="8" stroke-linecap="round" stroke-linejoin="round" /><polyline points="1732.54,-699.27 1735.22,-706.97 1800.96,-784.31 1805.78,-786.88 1817.20,-802.50 1855.45,-846.43 1867.34,-857.37" fill="none" stroke="#bcbcbc" stroke-width="8" stroke-linecap="round" stroke-linejoin="round" /><polyline points="1789.99,-125.38 1789.08,-135.73 1788.38,-143.74 1784.91,-159.04 1780.77,-169.03 1775.61,-195.25 1775.14,-204.75 1771.64,-225.98 1755.99,-234.16 1743.49,-229.37 1721.10,-224.01 1703.39,-221.24 1686.39,-217.15 1662.93,-211.80 1652.24,-209.36" fill="none" stroke="#bcbcbc" stroke-width="8" stroke-linecap="round" stroke-linejoin="round" /><polyline points="62.87,-505.17 110.68,-617.23 113.34,-624.51" fill="none" stroke="#bcbcbc" stroke-width="8" stroke-linecap="round" stroke-linejoin="round" /><polyline points="1322.84,-710.66 1345.89,-719.58 1357.94,-724.25 1367.25,-733.68 1405.67,-743.15 1418.56,-739.87 1446.37,-747.03 1467.58,-752.49 1472.63,-755.31 1493.20,-760.35 1598.37,-786.11 1622.20,-793.24" fill="none" stroke="#bcbcbc" stroke-width="8" stroke-linecap="round" stroke-linejoin="round" /><polyline points="352.80,238.32 402.41,220.30 419.01,215.23 435.71,210.13 466.55,200.71 490.53,197.26 572.44,188.30 588.90,187.41 662.19,188.03 706.84,188.41 723.63,187.55 750.52,190.28 758.93,191.48 776.07,193.93 827.86,205.30" fill="none" stroke="#bcbcbc" stroke-width="8" stroke-linecap="round" stroke-linejoin="round" /><polyline points="589.17,-1234.36 580.96,-1262.15 550.43,-1365.35 513.35,-1483.02 505.70,-1504.03 497.92,-1523.72 488.10,-1552.09" fill="none" stroke="#bcbcbc" stroke-width="8" stroke-linecap="round" stroke-linejoin="round" /><polyline points="500.39,429.62 506.91,409.03 572.86,201.09 572.44,188.30" fill="none" stroke="#bcbcbc" stroke-width="8" stroke-linecap="round" stroke-linejoin="round" /><polyline points="588.90,187.41 601.96,12.32 603.26,-1.96 605.26,-18.57 605.29,-19.32 606.15,-39.63 610.51,-94.74 612.97,-120.41 616.33,-149.57 619.39,-170.56 622.14,-183.75 625.59,-193.71 632.37,-216.17 646.38,-262.91 664.20,-323.26 683.84,-384.96 687.84,-397.55 691.06,-406.67" fill="none" stroke="#bcbcbc" stroke-width="8" stroke-linecap="round" stroke-linejoin="round" /><polyline points="162.29,-173.16 158.82,-157.64 159.42,-152.68 180.69,24.44 182.95,43.20 181.97,62.49 176.40,172.66 174.07,218.68 172.87,242.42 170.73,284.73 169.61,306.77 167.20,315.51" fill="none" stroke="#bcbcbc" stroke-width="8" stroke-linecap="round" stroke-linejoin="round" /><polyline points="62.87,-505.17 -14.49,-528.16 -24.32,-534.47 -72.47,-548.49 -85.99,-548.35 -146.49,-566.57 -156.26,-573.78 -211.30,-590.46 -278.85,-608.87 -279.17,-608.90 -290.38,-609.86" fill="none" stroke="#bcbcbc" stroke-width="8" stroke-linecap="round" stroke-linejoin="round" /><polyline points="1472.63,-755.31 1475.32,-751.78 1486.53,-735.07 1507.27,-704.16 1526.79,-684.61 1564.32,-642.49 1557.97,-603.56 1554.76,-588.96 1550.28,-582.79 1559.69,-568.87 1574.24,-538.92 1603.33,-482.81 1617.65,-455.18 1626.56,-430.35 1630.58,-418.82" fill="none" stroke="#bcbcbc" stroke-width="8" stroke-linecap="round" stroke-linejoin="round" /><polyline points="1668.55,-675.14 1657.77,-671.79 1586.73,-649.68 1576.54,-646.41 1564.32,-642.49" fill="none" stroke="#bcbcbc" stroke-width="8" stroke-linecap="round" stroke-linejoin="round" /><polyline points="1158.06,-540.58 1180.27,-547.78 1341.52,-630.11 1363.10,-640.66 1439.10,-662.61 1512.79,-683.32 1526.79,-684.61" fill="none" stroke="#bcbcbc" stroke-width="8" stroke-linecap="round" stroke-linejoin="round" /><polyline points="1175.63,-438.66 1361.52,-525.16 1369.35,-530.34 1387.53,-535.63 1511.40,-571.67 1530.19,-578.86 1550.28,-582.79" fill="none" stroke="#bcbcbc" stroke-width="8" stroke-linecap="round" stroke-linejoin="round" /><polyline points="1137.70,-2252.06 1212.94,-2242.77 1220.50,-2241.83 1249.68,-2234.67" fill="none" stroke="#bcbcbc" stroke-width="8" stroke-linecap="round" stroke-linejoin="round" /><polyline points="1780.75,-1487.08 1794.10,-1489.87 1843.96,-1465.43 1850.53,-1458.93 1944.13,-1300.50 1946.60,-1281.29 1958.77,-1271.15 1956.83,-1264.15 1956.54,-1252.73 1958.23,-1236.76 1983.02,-1134.89 1985.21,-1064.33 1988.68,-951.66 1994.51,-800.02 1970.77,-733.94 1955.48,-693.66 1933.15,-636.89 1926.69,-620.47 1922.49,-615.89 1915.74,-571.95" fill="none" stroke="#bcbcbc" stroke-width="8" stroke-linecap="round" stroke-linejoin="round" /><polyline points="1953.81,-304.34 1931.04,-314.24 1874.16,-353.94 1799.10,-406.67 1757.82,-440.05 1729.97,-469.87" fill="none" stroke="#bcbcbc" stroke-width="8" stroke-linecap="round" stroke-linejoin="round" /><polyline points="1032.76,583.52 1010.41,576.44 974.13,564.94 956.82,559.45 936.48,553.00 910.78,544.86 887.55,537.49 864.59,530.21 762.18,497.71 744.25,492.02 721.97,484.97 717.06,483.41 658.49,467.94 641.95,463.94 621.22,458.92 599.52,453.66 521.36,434.71 500.39,429.62 477.86,421.80 430.80,405.46 413.05,399.30 397.19,394.15 323.49,367.95 314.20,362.42 309.74,352.80" fill="none" stroke="#bcbcbc" stroke-width="8" stroke-linecap="round" stroke-linejoin="round" /><polyline points="1369.35,-530.34 1363.92,-549.80 1347.74,-607.81 1341.52,-630.11 1332.53,-646.79 1331.69,-649.88 1326.39,-669.52 1332.56,-678.22 1325.14,-702.97 1322.84,-710.66" fill="none" stroke="#bcbcbc" stroke-width="8" stroke-linecap="round" stroke-linejoin="round" /><polyline points="1342.30,-1240.20 1357.68,-1247.44 1441.71,-1293.77 1489.75,-1324.66 1523.63,-1347.77 1531.12,-1353.35 1558.38,-1372.30 1586.64,-1393.17 1604.54,-1406.19 1625.87,-1421.79 1700.01,-1455.24 1709.62,-1454.73 1723.67,-1461.37 1780.75,-1487.08" fill="none" stroke="#bcbcbc" stroke-width="8" stroke-linecap="round" stroke-linejoin="round" /><polyline points="410.81,-924.37 422.93,-919.46 430.94,-917.00 581.23,-870.84 604.18,-863.79" fill="none" stroke="#bcbcbc" stroke-width="8" stroke-linecap="round" stroke-linejoin="round" /><polyline points="-662.66,-586.44 -770.03,-618.93" fill="none" stroke="#bcbcbc" stroke-width="8" stroke-linecap="round" stroke-linejoin="round" /><polyline points="1071.70,-2100.43 1098.32,-2066.71 1102.30,-2061.68 1115.74,-2044.65 1131.05,-2042.86 1162.53,-2039.16 1168.13,-2035.29" fill="none" stroke="#bcbcbc" stroke-width="8" stroke-linecap="round" stroke-linejoin="round" /><polyline points="1996.14,-600.58 1953.95,-592.72 1910.70,-569.21 1870.60,-546.90 1832.68,-527.94 1786.86,-503.05 1753.67,-482.91 1688.10,-447.75 1432.12,-318.98 1365.76,-289.75 1321.91,-270.79 1300.19,-263.68 1282.21,-260.32 1252.78,-258.55 1210.91,-264.47 1106.43,-289.56 958.09,-324.12 762.95,-382.97 691.06,-406.67 573.34,-443.01 460.76,-480.14 295.64,-544.92 213.08,-580.47 113.53,-624.71 -51.59,-715.16 -90.30,-740.84 -188.27,-802.46 -229.35,-843.53 -290.97,-923.32 -392.49,-1027.99 -432.39,-1063.14" fill="none" stroke="#bcbcbc" stroke-width="8" stroke-linecap="round" stroke-linejoin="round" /><polyline points="1195.73,635.04 1197.47,625.39 1203.71,609.63 1262.26,472.63 1284.38,421.28 1310.46,357.28 1316.81,333.86" fill="none" stroke="#bcbcbc" stroke-width="8" stroke-linecap="round" stroke-linejoin="round" /><polyline points="72.43,56.63 5.91,24.44 -145.44,-48.81 -331.08,-138.65 -347.65,-146.67" fill="none" stroke="#bcbcbc" stroke-width="8" stroke-linecap="round" stroke-linejoin="round" /><polyline points="1165.59,-1003.59 1182.38,-1020.78 1227.04,-1066.49 1262.48,-1105.19" fill="none" stroke="#bcbcbc" stroke-width="8" stroke-linecap="round" stroke-linejoin="round" /><polyline points="-123.93,-901.75 -142.38,-926.17 -228.84,-1040.64 -352.26,-1140.51" fill="none" stroke="#bcbcbc" stroke-width="8" stroke-linecap="round" stroke-linejoin="round" /><polyline points="-659.55,605.13 -642.67,565.11 -589.01,431.33 -582.50,413.77 -575.29,394.30 -572.55,387.27 -571.82,376.26 -564.95,272.25 -562.98,242.42" fill="none" stroke="#bcbcbc" stroke-width="8" stroke-linecap="round" stroke-linejoin="round" /><polyline points="-696.16,-470.26 -662.66,-586.44 -618.46,-739.69 -612.99,-758.65 -606.90,-780.20 -593.28,-828.45 -591.85,-833.52 -587.95,-849.04 -581.73,-866.57 -580.22,-870.82 -572.37,-890.29 -556.94,-924.32 -552.33,-934.08" fill="none" stroke="#bcbcbc" stroke-width="8" stroke-linecap="round" stroke-linejoin="round" /><polyline points="-612.99,-758.65 -545.20,-741.32 -401.61,-704.41 -319.80,-678.94 -285.67,-670.95" fill="none" stroke="#bcbcbc" stroke-width="8" stroke-linecap="round" stroke-linejoin="round" /><polyline points="782.37,-1285.84 784.68,-1299.94 787.00,-1314.59 796.94,-1363.58 821.79,-1477.61 842.19,-1579.61 845.92,-1600.77 850.99,-1629.51 851.00,-1629.53" fill="none" stroke="#bcbcbc" stroke-width="8" stroke-linecap="round" stroke-linejoin="round" /><polyline points="581.67,909.97 611.94,832.77 615.69,818.90 735.81,514.02 744.25,492.02 751.08,473.37 822.85,264.57 836.67,252.51" fill="none" stroke="#bcbcbc" stroke-width="8" stroke-linecap="round" stroke-linejoin="round" /><polyline points="993.40,-1344.86 993.39,-1344.89 989.14,-1367.22 988.47,-1369.93 978.09,-1412.12 978.10,-1412.25 971.03,-1440.86 941.05,-1543.58 937.27,-1554.58 917.03,-1609.60 910.45,-1626.03 906.21,-1636.62 900.70,-1648.66 900.69,-1648.68 900.69,-1648.73 896.67,-1692.97 896.29,-1714.69" fill="none" stroke="#bcbcbc" stroke-width="8" stroke-linecap="round" stroke-linejoin="round" /><polyline points="948.47,397.84 940.76,406.17 929.28,419.84 896.92,511.07 887.55,537.49" fill="none" stroke="#bcbcbc" stroke-width="8" stroke-linecap="round" stroke-linejoin="round" /><polyline points="410.81,-924.37 415.23,-936.35 416.23,-939.13 437.24,-997.83 445.12,-1022.55 509.53,-1211.92" fill="none" stroke="#bcbcbc" stroke-width="8" stroke-linecap="round" stroke-linejoin="round" /><polyline points="743.98,-658.89 750.55,-676.35 768.35,-723.62 775.87,-743.60 780.96,-757.13 795.25,-795.06 804.68,-820.12 805.95,-823.49 828.81,-884.20 838.36,-881.24 843.54,-895.33 852.70,-920.26 850.94,-931.59 875.26,-997.78 877.76,-1004.57 882.37,-1008.81 886.24,-1012.37 910.63,-1079.02 914.15,-1097.27 949.14,-1194.46 957.41,-1200.93 974.24,-1248.54 971.25,-1255.85 985.99,-1300.32 978.34,-1340.02" fill="none" stroke="#bcbcbc" stroke-width="8" stroke-linecap="round" stroke-linejoin="round" /><polyline points="1369.77,-2466.74 1359.97,-2482.82 1308.46,-2567.31" fill="none" stroke="#bcbcbc" stroke-width="8" stroke-linecap="round" stroke-linejoin="round" /><polyline points="1531.12,-1353.35 1767.50,-1201.35 1767.57,-1201.25 1767.57,-1201.22 1811.29,-1195.55" fill="none" stroke="#bcbcbc" stroke-width="8" stroke-linecap="round" stroke-linejoin="round" /><polyline points="1436.32,-1670.85 1687.83,-1544.62 1695.42,-1538.96 1694.91,-1497.64 1700.01,-1455.24" fill="none" stroke="#bcbcbc" stroke-width="8" stroke-linecap="round" stroke-linejoin="round" /><polyline points="956.82,559.45 947.77,587.04 911.12,698.79 848.79,887.00 844.37,900.35 839.89,913.88 838.64,928.29" fill="none" stroke="#bcbcbc" stroke-width="8" stroke-linecap="round" stroke-linejoin="round" /><polyline points="1664.84,-119.42 1666.35,-133.44 1666.67,-146.52 1666.57,-146.98 1657.65,-185.50 1654.00,-201.59 1652.24,-209.36 1650.43,-217.29 1640.65,-260.39 1621.54,-346.51 1607.65,-398.29 1605.68,-406.29" fill="none" stroke="#bcbcbc" stroke-width="8" stroke-linecap="round" stroke-linejoin="round" /><polyline points="416.17,668.96 422.40,651.24 492.44,452.22 500.39,429.62" fill="none" stroke="#bcbcbc" stroke-width="8" stroke-linecap="round" stroke-linejoin="round" /><polyline points="1988.68,-951.66 1968.08,-957.47 1828.15,-1172.18 1811.29,-1195.55" fill="none" stroke="#bcbcbc" stroke-width="8" stroke-linecap="round" stroke-linejoin="round" /><polyline points="-311.63,-436.51 198.35,-314.34 233.52,-301.50" fill="none" stroke="#bcbcbc" stroke-width="8" stroke-linecap="round" stroke-linejoin="round" /><polyline points="1296.86,-2345.40 1495.51,-2271.82 1523.48,-2276.59" fill="none" stroke="#bcbcbc" stroke-width="8" stroke-linecap="round" stroke-linejoin="round" />
    <polyline points="352.80,238.32 348.12,242.06 345.03,246.52 338.72,265.10 334.37,278.52 314.23,338.72 311.46,347.41 309.74,352.80 291.25,347.50 246.25,332.41 201.66,317.46 167.20,315.51" fill="none" stroke="#ffffff" stroke-width="16" stroke-linecap="round" stroke-linejoin="round" />
    <polyline points="352.80,238.32 348.12,242.06 345.03,246.52 338.72,265.10 334.37,278.52 314.23,338.72 311.46,347.41 309.74,352.80 291.25,347.50 246.25,332.41 201.66,317.46 167.20,315.51" fill="none" stroke="#111111" stroke-width="9" stroke-linecap="round" stroke-linejoin="round" />
    
            <g transform="translate(352.80,238.32)">
              <circle r="19" fill="#ffffff" stroke="#111111" stroke-width="4" />
              <text text-anchor="middle" dominant-baseline="central" font-family="Helvetica, Arial, sans-serif"
                font-size="18" font-weight="700" fill="#111111">1</text>
            </g>
            
            <g transform="translate(167.20,315.51)">
              <circle r="19" fill="#ffffff" stroke="#111111" stroke-width="4" />
              <text text-anchor="middle" dominant-baseline="central" font-family="Helvetica, Arial, sans-serif"
                font-size="18" font-weight="700" fill="#111111">2</text>
            </g>
            
  </g>
</svg>
