<svg xmlns="http://www.w3.org/2000/svg" width="520" height="520" viewBox="0 0 520 520">
  <rect width="100%" height="100%" fill="#ffffff" />
  <g>
    <polyline points="452.20,88.14 452.78,91.24 456.54,117.54 455.97,124.12" fill="none" stroke="#bcbcbc" stroke-width="8" stroke-linecap="round" stroke-linejoin="round" /><polyline points="375.76,307.35 376.67,304.56 381.49,289.74 382.06,288.00 382.63,286.16 394.75,247.54 395.72,244.43 393.49,238.94" fill="none" stroke="#bcbcbc" stroke-width="8" stroke-linecap="round" stroke-linejoin="round" /><polyline points="292.09,273.00 291.90,270.78 295.86,248.60 296.41,245.83 296.83,244.37 297.92,238.75 299.14,231.86 300.48,225.80 301.80,219.75 302.64,218.05 303.18,217.00" fill="none" stroke="#bcbcbc" stroke-width="8" stroke-linecap="round" stroke-linejoin="round" /><polyline points="315.08,116.55 314.14,113.68 304.41,84.00 303.93,82.75" fill="none" stroke="#bcbcbc" stroke-width="8" stroke-linecap="round" stroke-linejoin="round" /><polyline points="265.14,377.76 265.43,374.93 265.55,373.63 266.61,361.91 267.77,351.60 268.04,349.19 268.29,346.30 268.32,346.05 268.98,340.31 269.55,334.46 270.17,328.83 270.59,324.44 270.77,321.73 270.92,319.23 271.20,316.41" fill="none" stroke="#bcbcbc" stroke-width="8" stroke-linecap="round" stroke-linejoin="round" /><polyline points="399.61,314.24 400.31,312.06 405.19,296.71 405.75,294.96 406.53,292.48 407.10,290.70 411.42,272.06" fill="none" stroke="#bcbcbc" stroke-width="8" stroke-linecap="round" stroke-linejoin="round" /><polyline points="380.63,10.59 382.43,10.87 432.13,18.51" fill="none" stroke="#bcbcbc" stroke-width="8" stroke-linecap="round" stroke-linejoin="round" /><polyline points="253.05,310.62 247.88,310.38 244.73,310.23 243.01,310.15 241.51,310.08 229.80,309.54 213.51,308.78 205.74,307.68 203.14,307.31 200.89,306.91 185.61,304.22 183.48,303.84 183.01,303.76 180.37,303.31 178.34,302.96 165.40,301.82 162.94,301.60 162.03,301.52 159.23,301.33 153.76,300.95" fill="none" stroke="#bcbcbc" stroke-width="8" stroke-linecap="round" stroke-linejoin="round" /><polyline points="328.20,295.62 329.20,292.76 338.23,267.74 349.09,236.17 349.79,234.19 350.27,232.81 350.67,231.67" fill="none" stroke="#bcbcbc" stroke-width="8" stroke-linecap="round" stroke-linejoin="round" /><polyline points="162.03,301.52 161.80,299.91 161.75,298.16 162.09,294.64 162.88,288.22 163.40,286.06 164.25,278.26 164.41,276.53 164.66,274.29 164.84,272.64 165.19,270.76 165.84,265.70 166.28,261.83 166.94,260.25" fill="none" stroke="#bcbcbc" stroke-width="8" stroke-linecap="round" stroke-linejoin="round" /><polyline points="152.79,258.27 164.83,259.95 166.94,260.25 168.25,260.45 173.65,261.31 186.09,263.30 188.22,263.65" fill="none" stroke="#bcbcbc" stroke-width="8" stroke-linecap="round" stroke-linejoin="round" /><polyline points="374.41,100.30 374.49,101.40 374.65,102.50 375.04,103.35 375.78,104.30 377.13,105.53 380.34,107.48 405.10,123.02 420.35,143.46 431.87,171.89 432.62,173.76" fill="none" stroke="#bcbcbc" stroke-width="8" stroke-linecap="round" stroke-linejoin="round" /><polyline points="370.45,183.24 370.96,184.09 371.09,184.31 371.52,186.45 374.42,200.50 375.35,204.96 376.01,208.13 377.03,214.57 377.51,217.54 377.85,219.35 378.21,220.98 378.64,221.94 379.28,223.04 379.62,223.56 386.05,232.77 389.53,238.25 390.44,239.56" fill="none" stroke="#bcbcbc" stroke-width="8" stroke-linecap="round" stroke-linejoin="round" /><polyline points="185.76,359.12 186.10,357.01 186.42,355.48 186.51,355.28 190.79,345.10 193.52,338.49 194.35,336.39 195.22,334.17 196.18,332.26 196.33,331.89 197.64,328.73 198.65,325.94 199.51,323.38 200.06,321.57 200.68,319.33 201.39,316.33 201.93,313.90 202.57,310.50 202.71,309.74 203.14,307.31" fill="none" stroke="#bcbcbc" stroke-width="8" stroke-linecap="round" stroke-linejoin="round" /><polyline points="393.22,74.81 406.87,84.35 408.71,84.74 410.06,86.28" fill="none" stroke="#bcbcbc" stroke-width="8" stroke-linecap="round" stroke-linejoin="round" /><polyline points="335.89,162.91 337.69,163.61 345.53,166.17 363.70,173.14 364.72,174.15 365.20,174.91" fill="none" stroke="#bcbcbc" stroke-width="8" stroke-linecap="round" stroke-linejoin="round" /><polyline points="369.75,341.98 370.99,338.75 377.10,322.18 381.42,309.66 382.31,309.25" fill="none" stroke="#bcbcbc" stroke-width="8" stroke-linecap="round" stroke-linejoin="round" /><polyline points="283.40,320.96 284.36,318.83 284.46,318.62 286.11,313.09 288.81,303.98 289.50,301.65 290.04,299.84 290.11,298.79 290.00,296.45" fill="none" stroke="#bcbcbc" stroke-width="8" stroke-linecap="round" stroke-linejoin="round" /><polyline points="395.68,183.97 394.14,184.29 390.63,183.66 390.08,182.21 384.00,179.89 382.56,180.27 377.08,178.26 376.26,178.83" fill="none" stroke="#bcbcbc" stroke-width="8" stroke-linecap="round" stroke-linejoin="round" /><polyline points="386.65,-4.14 389.41,-3.46 390.93,-3.20 427.19,3.09" fill="none" stroke="#bcbcbc" stroke-width="8" stroke-linecap="round" stroke-linejoin="round" /><polyline points="358.48,331.89 359.99,327.63 362.92,319.37 364.81,315.85 367.54,308.22 368.62,305.18" fill="none" stroke="#bcbcbc" stroke-width="8" stroke-linecap="round" stroke-linejoin="round" /><polyline points="159.85,166.89 157.23,166.77 156.57,167.57 152.00,173.12 136.01,191.59 133.76,194.19" fill="none" stroke="#bcbcbc" stroke-width="8" stroke-linecap="round" stroke-linejoin="round" /><polyline points="300.11,182.70 298.95,185.27 298.81,185.58 294.78,196.08 290.72,207.64 289.64,210.72 289.02,212.31" fill="none" stroke="#bcbcbc" stroke-width="8" stroke-linecap="round" stroke-linejoin="round" /><polyline points="359.17,64.72 360.45,66.46 361.37,68.84 362.79,72.27 365.07,77.66 367.09,82.49 369.41,87.80 371.13,91.90 371.38,92.48 371.40,92.52 372.78,95.76 373.20,96.68 373.59,97.55 374.01,98.37 374.32,99.21 374.41,100.30" fill="none" stroke="#bcbcbc" stroke-width="8" stroke-linecap="round" stroke-linejoin="round" /><polyline points="261.24,234.47 261.91,234.10 262.85,233.36 263.31,232.39 269.54,208.80 269.72,207.47 270.48,205.04" fill="none" stroke="#bcbcbc" stroke-width="8" stroke-linecap="round" stroke-linejoin="round" /><polyline points="478.78,197.55 479.66,200.35 480.29,203.29 479.08,214.51 477.68,222.94 476.92,225.82 476.85,226.08 476.18,227.63 475.27,229.28 473.14,231.97 474.17,237.23 470.83,248.53 468.99,254.77 465.23,264.98 459.71,277.42 452.98,289.33 450.87,293.21 447.07,299.57 431.88,321.13 428.55,325.62 415.66,342.46 408.26,350.88 397.91,361.40 396.95,361.50 394.61,363.41" fill="none" stroke="#bcbcbc" stroke-width="8" stroke-linecap="round" stroke-linejoin="round" /><polyline points="291.32,381.99 295.56,368.83 296.25,366.66 297.20,365.29 299.22,359.22 299.88,357.15 308.25,330.96 309.09,328.32 309.78,326.01 319.66,294.93" fill="none" stroke="#bcbcbc" stroke-width="8" stroke-linecap="round" stroke-linejoin="round" /><polyline points="390.67,137.39 394.33,133.38 395.42,132.08 402.82,121.59" fill="none" stroke="#bcbcbc" stroke-width="8" stroke-linecap="round" stroke-linejoin="round" /><polyline points="317.39,138.98 327.49,142.49 328.05,143.40 330.91,144.36 332.61,144.94 340.75,147.69" fill="none" stroke="#bcbcbc" stroke-width="8" stroke-linecap="round" stroke-linejoin="round" /><polyline points="405.39,69.11 410.06,86.28 415.46,106.50 416.28,108.18 416.41,110.11 420.08,116.95 429.97,135.40 432.14,138.59 432.76,139.52 447.54,167.15 454.33,173.33 455.29,174.56 456.63,175.71 469.53,186.74 470.40,187.48 472.72,188.71" fill="none" stroke="#bcbcbc" stroke-width="8" stroke-linecap="round" stroke-linejoin="round" /><polyline points="355.23,384.78 387.39,366.09 393.12,363.17 394.61,363.41" fill="none" stroke="#bcbcbc" stroke-width="8" stroke-linecap="round" stroke-linejoin="round" /><polyline points="390.10,358.05 392.10,355.68 410.02,319.93 411.20,317.58 412.19,315.26 417.98,300.95 419.70,296.64 424.69,281.54 427.93,262.14 428.31,259.31" fill="none" stroke="#bcbcbc" stroke-width="8" stroke-linecap="round" stroke-linejoin="round" /><polyline points="376.28,147.81 375.96,148.13 375.53,149.64 375.49,149.79 373.54,157.27 374.05,159.23 373.63,160.98 373.07,163.27 371.65,164.92 370.04,171.46 368.13,172.90 366.10,174.29 365.20,174.91" fill="none" stroke="#bcbcbc" stroke-width="8" stroke-linecap="round" stroke-linejoin="round" /><polyline points="300.11,182.70 300.93,180.59 305.90,167.84 306.99,165.07 307.88,162.78 314.23,146.51 317.09,139.70 317.39,138.98 319.61,133.60 324.60,121.22 326.43,115.95 326.83,114.74 327.38,113.37" fill="none" stroke="#bcbcbc" stroke-width="8" stroke-linecap="round" stroke-linejoin="round" /><polyline points="355.73,105.47 356.69,108.33 388.23,135.27 405.45,150.25 431.16,172.60 433.40,174.39 434.41,175.02 438.87,179.07 444.83,184.15 458.34,195.67 462.71,199.43 465.60,202.89" fill="none" stroke="#bcbcbc" stroke-width="8" stroke-linecap="round" stroke-linejoin="round" /><polyline points="407.88,59.04 409.49,58.01 418.96,54.07 420.91,52.02" fill="none" stroke="#bcbcbc" stroke-width="8" stroke-linecap="round" stroke-linejoin="round" /><polyline points="418.83,298.82 405.75,294.96 382.06,288.00" fill="none" stroke="#bcbcbc" stroke-width="8" stroke-linecap="round" stroke-linejoin="round" /><polyline points="376.59,20.47 378.38,21.70 436.63,34.67" fill="none" stroke="#bcbcbc" stroke-width="8" stroke-linecap="round" stroke-linejoin="round" /><polyline points="448.54,212.25 445.53,205.55 438.85,189.62 438.35,188.35 437.21,185.44 432.90,174.48 432.63,173.77" fill="none" stroke="#bcbcbc" stroke-width="8" stroke-linecap="round" stroke-linejoin="round" /><polyline points="359.17,64.72 355.94,63.80 353.56,63.09 348.73,61.66 346.28,60.96 344.87,60.57 343.04,60.04" fill="none" stroke="#bcbcbc" stroke-width="8" stroke-linecap="round" stroke-linejoin="round" /><polyline points="274.86,152.35 274.69,151.82 274.54,151.44 273.87,149.79 271.29,143.77 268.84,137.65 268.31,136.21 267.70,134.55 267.26,133.19 266.54,131.15 266.46,130.93 264.12,125.15 259.81,114.27 258.84,113.72 258.15,111.96 256.77,107.18 254.42,101.26 253.91,99.91" fill="none" stroke="#bcbcbc" stroke-width="8" stroke-linecap="round" stroke-linejoin="round" /><polyline points="295.56,368.83 298.01,369.58 305.93,372.00 308.41,372.75" fill="none" stroke="#bcbcbc" stroke-width="8" stroke-linecap="round" stroke-linejoin="round" /><polyline points="443.45,61.89 443.91,60.02 443.73,59.31 443.50,58.46 442.05,53.16 438.83,41.96 437.13,36.24 436.63,34.67 432.13,18.51 429.70,9.79 427.19,3.09 424.91,-2.96 422.65,-7.11 420.45,-9.31 403.55,-29.95 402.30,-31.42 401.48,-32.78" fill="none" stroke="#bcbcbc" stroke-width="8" stroke-linecap="round" stroke-linejoin="round" /><polyline points="374.41,100.30 373.54,100.63 371.93,101.08 371.77,101.12 365.04,102.84 357.31,105.02 355.73,105.47 355.02,105.69 353.17,106.29 351.58,106.73 344.64,108.66 333.23,111.90 328.98,112.97 327.38,113.37 319.78,115.24 315.08,116.55 305.13,119.33 295.30,122.10 294.17,122.41 285.95,124.69 282.16,125.75 280.25,126.65 276.63,128.45 269.43,132.10 268.93,132.35 267.26,133.19 266.24,133.70 264.82,134.44 259.77,137.09 250.56,142.26 242.86,146.29 241.76,146.86 240.29,146.96 239.41,147.43 239.23,147.52 230.89,152.09 229.14,152.08 227.14,153.13 226.43,153.50 225.84,153.81 224.45,154.54 223.35,157.05 218.63,159.58 217.12,160.38 215.50,161.27 208.93,164.84 205.53,166.69 203.82,167.18" fill="none" stroke="#bcbcbc" stroke-width="8" stroke-linecap="round" stroke-linejoin="round" /><polyline points="468.99,254.77 465.49,255.09 454.53,256.09 454.04,256.14 453.34,256.20 452.21,256.31 441.59,257.28 437.89,256.94 433.59,258.02 430.15,258.86 428.31,259.31 423.75,259.49 419.80,259.28 417.79,259.07 416.08,258.55 414.82,257.86 410.12,254.54 398.71,246.70 397.63,245.97 396.54,245.22 395.72,244.43" fill="none" stroke="#bcbcbc" stroke-width="8" stroke-linecap="round" stroke-linejoin="round" /><polyline points="210.54,122.45 214.68,130.56 215.30,132.87 218.79,139.53 220.23,141.43 226.06,152.78 226.43,153.50" fill="none" stroke="#bcbcbc" stroke-width="8" stroke-linecap="round" stroke-linejoin="round" /><polyline points="337.43,194.54 336.81,196.24 336.63,196.77 335.82,199.22 330.70,213.52 328.16,220.61 328.07,220.86 327.05,223.06 326.47,224.37" fill="none" stroke="#bcbcbc" stroke-width="8" stroke-linecap="round" stroke-linejoin="round" /><polyline points="405.39,69.11 404.82,67.90 403.33,67.70 398.50,68.81 397.52,68.68 396.75,67.65 395.38,61.37 402.78,60.22 406.21,59.21 407.88,59.04 409.69,65.45" fill="none" stroke="#bcbcbc" stroke-width="8" stroke-linecap="round" stroke-linejoin="round" /><polyline points="432.14,138.59 434.04,137.52 443.62,131.75 446.17,130.22 450.65,127.55 458.02,122.79 459.74,121.55 472.67,113.54" fill="none" stroke="#bcbcbc" stroke-width="8" stroke-linecap="round" stroke-linejoin="round" /><polyline points="477.32,176.46 474.05,175.48 472.15,173.93 464.89,167.64 464.64,167.42 462.89,165.86 461.85,164.03 443.62,131.75" fill="none" stroke="#bcbcbc" stroke-width="8" stroke-linecap="round" stroke-linejoin="round" /><polyline points="271.49,173.90 300.11,182.70 302.44,183.45 323.79,190.21 324.24,190.36 327.44,191.37 329.01,191.87 331.06,192.43 335.27,193.85 337.43,194.54 339.37,195.15 355.26,200.19 372.04,205.47 373.42,205.90 375.35,204.96" fill="none" stroke="#bcbcbc" stroke-width="8" stroke-linecap="round" stroke-linejoin="round" /><polyline points="355.63,32.63 368.02,21.25 370.12,19.32" fill="none" stroke="#bcbcbc" stroke-width="8" stroke-linecap="round" stroke-linejoin="round" /><polyline points="148.06,216.41 193.55,221.28" fill="none" stroke="#bcbcbc" stroke-width="8" stroke-linecap="round" stroke-linejoin="round" /><polyline points="285.27,89.46 294.83,86.04 304.69,82.48 310.82,80.10 329.53,73.29 334.95,71.42 336.09,71.02 337.45,70.56 338.97,70.03 339.16,69.97 342.24,68.73 343.58,68.19" fill="none" stroke="#bcbcbc" stroke-width="8" stroke-linecap="round" stroke-linejoin="round" /><polyline points="349.48,320.78 358.48,331.89 363.99,337.43 366.37,339.15 369.75,341.98 372.92,344.64 375.65,347.30 375.72,348.65" fill="none" stroke="#bcbcbc" stroke-width="8" stroke-linecap="round" stroke-linejoin="round" /><polyline points="359.17,64.72 362.70,55.88 368.41,41.33 376.59,20.47 380.63,10.59 386.65,-4.14 391.59,-16.20 392.48,-17.80 396.82,-24.90 397.10,-25.36 398.69,-28.49 401.48,-32.78 403.03,-35.17 405.23,-38.56" fill="none" stroke="#bcbcbc" stroke-width="8" stroke-linecap="round" stroke-linejoin="round" /><polyline points="275.96,301.09 275.38,301.56 275.00,302.11 274.22,304.40 273.69,306.06 271.20,313.49 270.86,314.56 270.65,315.22 268.37,314.57 262.81,312.71 257.31,310.86 253.05,310.62" fill="none" stroke="#bcbcbc" stroke-width="8" stroke-linecap="round" stroke-linejoin="round" /><polyline points="365.20,174.91 365.69,175.70 367.36,178.30 369.85,182.29 370.45,183.24 371.44,182.48 376.26,178.83" fill="none" stroke="#bcbcbc" stroke-width="8" stroke-linecap="round" stroke-linejoin="round" /><polyline points="368.41,41.33 417.41,50.18 422.56,52.89 441.76,62.41 443.45,61.89" fill="none" stroke="#bcbcbc" stroke-width="8" stroke-linecap="round" stroke-linejoin="round" /><polyline points="274.86,152.35 273.99,153.62 266.17,157.44 260.43,164.73 254.23,168.57 249.99,171.77 245.95,175.07 243.88,176.96 240.22,181.60 236.12,187.47 235.45,188.56" fill="none" stroke="#bcbcbc" stroke-width="8" stroke-linecap="round" stroke-linejoin="round" /><polyline points="283.12,157.59 282.78,158.34 282.04,159.42 280.64,161.15 272.38,171.58 268.01,183.35 245.96,175.06" fill="none" stroke="#bcbcbc" stroke-width="8" stroke-linecap="round" stroke-linejoin="round" /><polyline points="249.99,171.77 249.14,169.18 245.45,158.01 244.02,155.80 241.62,148.61 241.41,147.99 241.76,146.86 241.19,145.03 229.66,108.21" fill="none" stroke="#bcbcbc" stroke-width="8" stroke-linecap="round" stroke-linejoin="round" /><polyline points="385.11,-29.11 394.22,-28.87 394.65,-28.86 396.39,-28.81 398.69,-28.49" fill="none" stroke="#bcbcbc" stroke-width="8" stroke-linecap="round" stroke-linejoin="round" /><polyline points="338.23,267.74 335.12,267.70 308.77,271.24 306.87,271.44 304.70,271.67 292.09,273.00 275.11,274.79 266.10,275.74 261.12,276.27 257.08,276.76 255.00,277.01 252.66,277.29 241.36,278.67 238.65,279.00 230.30,279.91 185.73,284.78" fill="none" stroke="#bcbcbc" stroke-width="8" stroke-linecap="round" stroke-linejoin="round" /><polyline points="299.22,359.22 296.89,358.46 285.99,354.96 283.78,354.25 281.87,353.63 270.32,349.92 268.04,349.19 265.03,348.22 246.64,342.30 244.57,341.63" fill="none" stroke="#bcbcbc" stroke-width="8" stroke-linecap="round" stroke-linejoin="round" /><polyline points="344.81,138.50 351.15,140.48 374.34,147.64 374.56,147.70 376.28,147.81" fill="none" stroke="#bcbcbc" stroke-width="8" stroke-linecap="round" stroke-linejoin="round" /><polyline points="410.06,86.28 441.60,86.83" fill="none" stroke="#bcbcbc" stroke-width="8" stroke-linecap="round" stroke-linejoin="round" /><polyline points="394.61,363.41 390.10,358.05 388.21,355.85 386.58,354.33 384.42,352.71 380.00,350.06 375.72,348.65 367.01,345.96 359.88,343.70 363.99,337.43" fill="none" stroke="#bcbcbc" stroke-width="8" stroke-linecap="round" stroke-linejoin="round" /><polyline points="349.48,320.78 343.20,313.03 342.01,311.56 335.68,302.85 334.25,300.19 334.59,297.02 336.50,297.00 341.20,297.90 348.36,299.28" fill="none" stroke="#bcbcbc" stroke-width="8" stroke-linecap="round" stroke-linejoin="round" /><polyline points="267.34,258.69 268.49,261.18 275.11,274.79 284.94,295.03 286.19,297.61" fill="none" stroke="#bcbcbc" stroke-width="8" stroke-linecap="round" stroke-linejoin="round" /><polyline points="161.42,320.35 163.78,321.31 174.86,325.84 177.28,326.83 179.82,327.87 192.87,333.20 195.22,334.17" fill="none" stroke="#bcbcbc" stroke-width="8" stroke-linecap="round" stroke-linejoin="round" /><polyline points="272.78,238.50 295.86,248.60" fill="none" stroke="#bcbcbc" stroke-width="8" stroke-linecap="round" stroke-linejoin="round" /><polyline points="376.28,147.81 379.79,148.00 380.01,148.20 381.59,149.59 383.91,151.66 384.34,152.50 392.33,159.49 392.92,160.61 398.54,165.57 399.95,166.00 404.32,169.83 405.30,170.27 411.89,175.87 413.36,177.17 414.17,178.45" fill="none" stroke="#bcbcbc" stroke-width="8" stroke-linecap="round" stroke-linejoin="round" /><polyline points="154.90,238.53 190.95,241.74" fill="none" stroke="#bcbcbc" stroke-width="8" stroke-linecap="round" stroke-linejoin="round" /><polyline points="235.39,372.75 236.51,370.37 236.80,369.32 238.36,363.54 244.03,343.55 244.57,341.63 245.15,339.54 247.72,330.14 252.06,314.28 253.05,310.62" fill="none" stroke="#bcbcbc" stroke-width="8" stroke-linecap="round" stroke-linejoin="round" /><polyline points="267.34,258.69 272.78,238.50 261.24,234.47 258.22,236.25 256.84,237.30 255.82,238.68 255.10,240.50 252.45,250.31 254.59,251.40 256.75,251.92 261.54,253.17 265.12,254.31 267.34,258.69" fill="none" stroke="#bcbcbc" stroke-width="8" stroke-linecap="round" stroke-linejoin="round" /><polyline points="252.45,250.31 249.92,249.96 190.95,241.74" fill="none" stroke="#bcbcbc" stroke-width="8" stroke-linecap="round" stroke-linejoin="round" /><polyline points="348.36,299.28 353.83,300.48 368.62,305.18 372.76,306.49 382.58,309.32 392.47,312.17 399.79,314.29 411.50,317.67 413.92,318.37 419.83,320.35 429.56,322.94 430.42,323.10" fill="none" stroke="#bcbcbc" stroke-width="8" stroke-linecap="round" stroke-linejoin="round" /><polyline points="355.30,384.74 353.30,385.24 351.15,391.25 347.80,390.30 332.59,385.12 330.75,384.72 326.68,384.43 308.25,384.51 304.19,383.99 295.02,382.59 291.32,381.99 265.08,377.75 254.92,376.13 235.54,372.78 232.41,372.16 188.67,359.93 185.91,359.16 167.20,352.80 162.60,351.17 151.10,346.40 144.55,343.92" fill="none" stroke="#bcbcbc" stroke-width="8" stroke-linecap="round" stroke-linejoin="round" /><polyline points="395.38,61.37 393.49,60.98 368.21,63.97 359.17,64.72" fill="none" stroke="#bcbcbc" stroke-width="8" stroke-linecap="round" stroke-linejoin="round" /><polyline points="348.36,299.28 349.25,297.80 354.55,284.18 360.48,263.58 361.99,259.14 362.80,257.93 368.52,239.57 368.81,237.37 369.02,235.94" fill="none" stroke="#bcbcbc" stroke-width="8" stroke-linecap="round" stroke-linejoin="round" /><polyline points="374.41,100.30 375.02,100.07 375.84,99.42 377.08,97.97 393.22,74.81 397.52,68.68" fill="none" stroke="#bcbcbc" stroke-width="8" stroke-linecap="round" stroke-linejoin="round" /><polyline points="446.25,185.37 446.58,184.42 454.69,174.88 455.29,174.56 456.70,172.63 461.42,167.21 462.89,165.86" fill="none" stroke="#bcbcbc" stroke-width="8" stroke-linecap="round" stroke-linejoin="round" /><polyline points="453.34,256.20 453.23,254.93 453.14,253.94 452.71,252.05 452.20,250.82 451.56,247.58 451.51,246.41 451.07,243.79 449.14,242.78 447.60,243.37 444.84,244.03 442.65,244.37 440.55,244.88 437.66,245.54 436.34,245.84" fill="none" stroke="#bcbcbc" stroke-width="8" stroke-linecap="round" stroke-linejoin="round" /><polyline points="240.18,209.33 246.08,195.50 246.41,194.60" fill="none" stroke="#bcbcbc" stroke-width="8" stroke-linecap="round" stroke-linejoin="round" /><polyline points="395.68,183.97 398.53,182.86 400.02,182.29 401.17,181.12 405.91,179.96 407.50,180.36 410.93,179.48 413.55,178.80 414.17,178.45 416.71,177.83 429.69,174.65 432.63,173.77" fill="none" stroke="#bcbcbc" stroke-width="8" stroke-linecap="round" stroke-linejoin="round" /><polyline points="275.96,301.09 282.08,298.87 284.13,298.24 286.19,297.61 290.00,296.45 292.96,296.03 303.07,294.92 305.10,294.81 314.15,294.89 319.66,294.93 321.73,294.83 325.05,295.16 326.09,295.31 328.20,295.62 334.59,297.02" fill="none" stroke="#bcbcbc" stroke-width="8" stroke-linecap="round" stroke-linejoin="round" /><polyline points="305.13,119.33 304.12,115.90 300.35,103.16 295.78,88.64 294.83,86.04 293.87,83.61 292.66,80.11" fill="none" stroke="#bcbcbc" stroke-width="8" stroke-linecap="round" stroke-linejoin="round" /><polyline points="294.18,324.71 294.98,322.16 303.12,296.50 303.07,294.92" fill="none" stroke="#bcbcbc" stroke-width="8" stroke-linecap="round" stroke-linejoin="round" /><polyline points="305.10,294.81 306.71,273.20 306.87,271.44 307.12,269.39 307.12,269.29 307.23,266.79 307.77,259.99 308.07,256.82 308.49,253.22 308.86,250.63 309.20,249.00 309.63,247.77 310.47,245.00 312.20,239.23 314.39,231.78 316.82,224.16 317.31,222.61 317.71,221.49" fill="none" stroke="#bcbcbc" stroke-width="8" stroke-linecap="round" stroke-linejoin="round" /><polyline points="252.45,250.31 252.02,252.22 252.09,252.83 254.72,274.70 255.00,277.01 254.88,279.39 254.19,292.99 253.90,298.67 253.75,301.60 253.49,306.82 253.35,309.54 253.05,310.62" fill="none" stroke="#bcbcbc" stroke-width="8" stroke-linecap="round" stroke-linejoin="round" /><polyline points="240.18,209.33 230.63,206.49 229.42,205.71 223.48,203.98 221.81,204.00 214.34,201.75 213.13,200.86 206.34,198.80 198.00,196.53 197.96,196.53 196.58,196.41" fill="none" stroke="#bcbcbc" stroke-width="8" stroke-linecap="round" stroke-linejoin="round" /><polyline points="414.17,178.45 414.50,178.89 415.89,180.95 418.45,184.77 420.86,187.18 425.49,192.38 424.70,197.18 424.31,198.99 423.75,199.75 424.91,201.47 426.71,205.16 430.30,212.09 432.07,215.50 433.17,218.56 433.66,219.99" fill="none" stroke="#bcbcbc" stroke-width="8" stroke-linecap="round" stroke-linejoin="round" /><polyline points="438.35,188.35 437.02,188.76 428.25,191.49 427.00,191.90 425.49,192.38" fill="none" stroke="#bcbcbc" stroke-width="8" stroke-linecap="round" stroke-linejoin="round" /><polyline points="375.35,204.96 378.09,204.07 397.99,193.91 400.65,192.61 410.03,189.90 419.13,187.34 420.86,187.18" fill="none" stroke="#bcbcbc" stroke-width="8" stroke-linecap="round" stroke-linejoin="round" /><polyline points="377.51,217.54 400.46,206.86 401.42,206.22 403.67,205.57 418.96,201.12 421.27,200.23 423.75,199.75" fill="none" stroke="#bcbcbc" stroke-width="8" stroke-linecap="round" stroke-linejoin="round" /><polyline points="372.83,-6.28 382.12,-5.14 383.05,-5.02 386.65,-4.14" fill="none" stroke="#bcbcbc" stroke-width="8" stroke-linecap="round" stroke-linejoin="round" /><polyline points="452.20,88.14 453.85,87.79 460.00,90.81 460.81,91.61 472.36,111.16 472.67,113.54 474.17,114.79 473.93,115.65 473.89,117.06 474.10,119.03 477.16,131.61 477.43,140.31 477.86,154.22 478.58,172.94 475.65,181.09 473.76,186.06 471.01,193.07 470.21,195.10 469.69,195.66 468.86,201.09" fill="none" stroke="#bcbcbc" stroke-width="8" stroke-linecap="round" stroke-linejoin="round" /><polyline points="473.56,234.12 470.75,232.89 463.73,227.99 454.46,221.49 449.37,217.37 445.93,213.68" fill="none" stroke="#bcbcbc" stroke-width="8" stroke-linecap="round" stroke-linejoin="round" /><polyline points="359.88,343.70 357.12,342.83 352.65,341.41 350.51,340.73 348.00,339.93 344.83,338.93 341.96,338.02 339.13,337.12 326.49,333.11 324.27,332.41 321.52,331.54 320.92,331.34 313.69,329.43 311.65,328.94 309.09,328.32 306.41,327.67 296.76,325.33 294.18,324.71 291.40,323.74 285.59,321.72 283.40,320.96 281.44,320.33 272.34,317.09 271.20,316.41 270.65,315.22" fill="none" stroke="#bcbcbc" stroke-width="8" stroke-linecap="round" stroke-linejoin="round" /><polyline points="401.42,206.22 400.75,203.82 398.76,196.66 397.99,193.91 396.88,191.85 396.78,191.47 396.12,189.04 396.88,187.97 395.97,184.91 395.68,183.97" fill="none" stroke="#bcbcbc" stroke-width="8" stroke-linecap="round" stroke-linejoin="round" /><polyline points="398.08,118.61 399.98,117.71 410.35,112.00 416.28,108.18 420.47,105.33 421.39,104.64 424.75,102.30 428.24,99.73 430.45,98.12 433.08,96.19 442.23,92.07 443.42,92.13 445.15,91.31 452.20,88.14" fill="none" stroke="#bcbcbc" stroke-width="8" stroke-linecap="round" stroke-linejoin="round" /><polyline points="283.12,157.59 284.62,158.19 285.61,158.50 304.15,164.20 306.99,165.07" fill="none" stroke="#bcbcbc" stroke-width="8" stroke-linecap="round" stroke-linejoin="round" /><polyline points="150.63,199.30 137.38,195.29" fill="none" stroke="#bcbcbc" stroke-width="8" stroke-linecap="round" stroke-linejoin="round" /><polyline points="364.69,12.43 367.97,16.59 368.46,17.22 370.12,19.32 372.01,19.54 375.90,19.99 376.59,20.47" fill="none" stroke="#bcbcbc" stroke-width="8" stroke-linecap="round" stroke-linejoin="round" /><polyline points="478.78,197.55 473.58,198.52 468.24,201.42 463.29,204.18 458.61,206.52 452.95,209.59 448.86,212.08 440.76,216.41 409.17,232.31 400.98,235.92 395.57,238.26 392.89,239.13 390.67,239.55 387.04,239.77 381.87,239.04 368.97,235.94 350.67,231.67 326.58,224.41 317.71,221.49 303.18,217.00 289.29,212.42 268.91,204.42 258.72,200.03 246.43,194.57 226.05,183.41 221.27,180.24 209.18,172.64 204.11,167.57 196.51,157.72 183.98,144.80 179.05,140.46" fill="none" stroke="#bcbcbc" stroke-width="8" stroke-linecap="round" stroke-linejoin="round" /><polyline points="380.00,350.06 380.21,348.87 380.98,346.92 388.21,330.01 390.94,323.68 394.16,315.78 394.94,312.89" fill="none" stroke="#bcbcbc" stroke-width="8" stroke-linecap="round" stroke-linejoin="round" /><polyline points="241.36,278.67 233.15,274.70 214.47,265.65 191.56,254.57 189.51,253.58" fill="none" stroke="#bcbcbc" stroke-width="8" stroke-linecap="round" stroke-linejoin="round" /><polyline points="376.28,147.81 378.35,145.69 383.86,140.05 388.23,135.27" fill="none" stroke="#bcbcbc" stroke-width="8" stroke-linecap="round" stroke-linejoin="round" /><polyline points="217.12,160.38 214.85,157.37 204.18,143.24 188.94,130.91" fill="none" stroke="#bcbcbc" stroke-width="8" stroke-linecap="round" stroke-linejoin="round" /><polyline points="151.02,346.37 153.10,341.43 159.72,324.92 160.53,322.75 161.42,320.35 161.76,319.48 161.84,318.12 162.69,305.28 162.94,301.60" fill="none" stroke="#bcbcbc" stroke-width="8" stroke-linecap="round" stroke-linejoin="round" /><polyline points="146.50,213.64 150.63,199.30 156.09,180.38 156.76,178.04 157.52,175.38 159.20,169.43 159.37,168.80 159.85,166.89 160.62,164.72 160.81,164.20 161.78,161.79 163.68,157.60 164.25,156.39" fill="none" stroke="#bcbcbc" stroke-width="8" stroke-linecap="round" stroke-linejoin="round" /><polyline points="156.76,178.04 165.13,180.18 182.85,184.74 192.95,187.88 197.16,188.87" fill="none" stroke="#bcbcbc" stroke-width="8" stroke-linecap="round" stroke-linejoin="round" /><polyline points="328.98,112.97 329.26,111.23 329.55,109.43 330.78,103.38 333.84,89.30 336.36,76.72 336.82,74.10 337.45,70.56 337.45,70.55" fill="none" stroke="#bcbcbc" stroke-width="8" stroke-linecap="round" stroke-linejoin="round" /><polyline points="304.21,383.99 307.94,374.46 308.41,372.75 323.23,335.12 324.27,332.41 325.12,330.10 333.98,304.33 335.68,302.85" fill="none" stroke="#bcbcbc" stroke-width="8" stroke-linecap="round" stroke-linejoin="round" /><polyline points="355.02,105.69 355.02,105.69 354.50,102.93 354.42,102.60 353.14,97.39 353.14,97.37 352.26,93.84 348.56,81.16 348.10,79.80 345.60,73.01 344.79,70.99 344.26,69.68 343.58,68.19 343.58,68.19 343.58,68.18 343.09,62.72 343.04,60.04" fill="none" stroke="#bcbcbc" stroke-width="8" stroke-linecap="round" stroke-linejoin="round" /><polyline points="349.48,320.78 348.53,321.81 347.11,323.50 343.12,334.76 341.96,338.02" fill="none" stroke="#bcbcbc" stroke-width="8" stroke-linecap="round" stroke-linejoin="round" /><polyline points="283.12,157.59 283.67,156.11 283.79,155.77 286.38,148.52 287.36,145.47 295.30,122.10" fill="none" stroke="#bcbcbc" stroke-width="8" stroke-linecap="round" stroke-linejoin="round" /><polyline points="324.24,190.36 325.05,188.20 327.25,182.37 328.18,179.90 328.81,178.23 330.57,173.55 331.73,170.46 331.89,170.04 334.71,162.55 335.89,162.91 336.53,161.17 337.66,158.10 337.44,156.70 340.44,148.53 340.75,147.69 341.32,147.17 341.80,146.73 344.81,138.50 345.24,136.25 349.56,124.25 350.58,123.45 352.66,117.58 352.29,116.68 354.11,111.19 353.17,106.29" fill="none" stroke="#bcbcbc" stroke-width="8" stroke-linecap="round" stroke-linejoin="round" /><polyline points="401.48,-32.78 400.27,-34.76 393.91,-45.19" fill="none" stroke="#bcbcbc" stroke-width="8" stroke-linecap="round" stroke-linejoin="round" /><polyline points="421.39,104.64 450.56,123.40 450.57,123.41 450.57,123.42 455.97,124.12" fill="none" stroke="#bcbcbc" stroke-width="8" stroke-linecap="round" stroke-linejoin="round" /><polyline points="409.69,65.45 440.73,81.03 441.67,81.73 441.60,86.83 442.23,92.07" fill="none" stroke="#bcbcbc" stroke-width="8" stroke-linecap="round" stroke-linejoin="round" /><polyline points="350.51,340.73 349.39,344.13 344.87,357.93 337.18,381.16 336.63,382.80 336.08,384.47 335.92,386.25" fill="none" stroke="#bcbcbc" stroke-width="8" stroke-linecap="round" stroke-linejoin="round" /><polyline points="437.89,256.94 438.08,255.21 438.12,253.59 438.11,253.54 437.01,248.78 436.56,246.80 436.34,245.84 436.12,244.86 434.91,239.54 432.55,228.91 430.83,222.52 430.59,221.53" fill="none" stroke="#bcbcbc" stroke-width="8" stroke-linecap="round" stroke-linejoin="round" /><polyline points="283.78,354.25 284.55,352.06 293.20,327.49 294.18,324.71" fill="none" stroke="#bcbcbc" stroke-width="8" stroke-linecap="round" stroke-linejoin="round" /><polyline points="477.86,154.22 475.32,153.50 458.05,127.00 455.97,124.12" fill="none" stroke="#bcbcbc" stroke-width="8" stroke-linecap="round" stroke-linejoin="round" /><polyline points="193.96,217.80 256.90,232.88 261.24,234.47" fill="none" stroke="#bcbcbc" stroke-width="8" stroke-linecap="round" stroke-linejoin="round" /><polyline points="392.48,-17.80 416.99,-8.72 420.45,-9.31" fill="none" stroke="#bcbcbc" stroke-width="8" stroke-linecap="round" stroke-linejoin="round" />
    <polyline points="167.20,352.80 176.27,329.38 177.28,326.83 178.18,324.37 179.28,321.41 180.62,316.74 182.02,310.94 182.59,306.78 183.01,303.76 183.59,301.53 185.73,284.78 188.22,263.65 189.51,253.58 190.95,241.74 193.55,221.28 193.96,217.80 196.58,196.41 196.58,195.22 197.16,188.87 198.83,175.46 199.25,173.12 199.69,171.81 200.38,170.36 201.04,169.24 202.51,167.65 203.82,167.20" fill="none" stroke="#ffffff" stroke-width="16" stroke-linecap="round" stroke-linejoin="round" />
    <polyline points="167.20,352.80 176.27,329.38 177.28,326.83 178.18,324.37 179.28,321.41 180.62,316.74 182.02,310.94 182.59,306.78 183.01,303.76 183.59,301.53 185.73,284.78 188.22,263.65 189.51,253.58 190.95,241.74 193.55,221.28 193.96,217.80 196.58,196.41 196.58,195.22 197.16,188.87 198.83,175.46 199.25,173.12 199.69,171.81 200.38,170.36 201.04,169.24 202.51,167.65 203.82,167.20" fill="none" stroke="#111111" stroke-width="9" stroke-linecap="round" stroke-linejoin="round" />
    
            <g transform="translate(167.20,352.80)">
              <circle r="19" fill="#ffffff" stroke="#111111" stroke-width="4" />
              <text text-anchor="middle" dominant-baseline="central" font-family="Helvetica, Arial, sans-serif"
                font-size="18" font-weight="700" fill="#111111">1</text>
            </g>
            
            <g transform="translate(203.82,167.20)">
              <circle r="19" fill="#ffffff" stroke="#111111" stroke-width="4" />
              <text text-anchor="middle" dominant-baseline="central" font-family="Helvetica, Arial, sans-serif"
                font-size="18" font-weight="700" fill="#111111">2</text>
            </g>
            
  </g>
</svg>
