<svg xmlns="http://www.w3.org/2000/svg" width="520" height="520" viewBox="0 0 520 520">
  <rect width="100%" height="100%" fill="#ffffff" />
  <g>
    <polyline points="1354.25,-943.13 1362.08,-901.50 1412.59,-548.16 1404.87,-459.82" fill="none" stroke="#bcbcbc" stroke-width="8" stroke-linecap="round" stroke-linejoin="round" /><polyline points="327.64,2001.34 339.85,1963.80 404.55,1764.81 412.18,1741.37 419.89,1716.75 582.58,1197.93 595.67,1156.21 565.70,1082.41" fill="none" stroke="#bcbcbc" stroke-width="8" stroke-linecap="round" stroke-linejoin="round" /><polyline points="-796.14,1539.89 -798.77,1510.09 -745.58,1212.19 -738.12,1174.93 -732.54,1155.41 -717.91,1079.86 -701.45,987.39 -683.53,905.96 -665.75,824.70 -654.55,801.79 -647.23,787.75" fill="none" stroke="#bcbcbc" stroke-width="8" stroke-linecap="round" stroke-linejoin="round" /><polyline points="-487.41,-561.49 -500.05,-600.04 -630.76,-998.70 -637.14,-1015.42" fill="none" stroke="#bcbcbc" stroke-width="8" stroke-linecap="round" stroke-linejoin="round" /><polyline points="-1158.10,2947.11 -1154.20,2909.07 -1152.62,2891.61 -1138.39,2734.21 -1122.81,2595.61 -1119.18,2563.25 -1115.79,2524.42 -1115.42,2521.16 -1106.59,2443.97 -1098.98,2365.51 -1090.59,2289.79 -1084.94,2230.84 -1082.58,2194.46 -1080.50,2160.87 -1076.79,2123.01" fill="none" stroke="#bcbcbc" stroke-width="8" stroke-linecap="round" stroke-linejoin="round" /><polyline points="647.98,2093.84 657.29,2064.57 722.89,1858.38 730.34,1834.95 740.93,1801.58 748.52,1777.66 806.57,1527.27" fill="none" stroke="#bcbcbc" stroke-width="8" stroke-linecap="round" stroke-linejoin="round" /><polyline points="393.02,-1984.65 417.24,-1980.93 1084.70,-1878.37" fill="none" stroke="#bcbcbc" stroke-width="8" stroke-linecap="round" stroke-linejoin="round" /><polyline points="-1320.47,2045.25 -1389.95,2042.02 -1432.31,2040.05 -1455.32,2038.98 -1475.51,2038.04 -1632.83,2030.72 -1851.65,2020.55 -1955.95,2005.76 -1990.85,2000.81 -2021.14,1995.46 -2226.28,1959.25 -2254.95,1954.19 -2261.30,1953.11 -2296.72,1947.03 -2323.94,1942.37 -2497.76,1927.00 -2530.87,1924.08 -2543.01,1923.00 -2580.59,1920.40 -2654.18,1915.30" fill="none" stroke="#bcbcbc" stroke-width="8" stroke-linecap="round" stroke-linejoin="round" /><polyline points="-311.17,1843.69 -297.71,1805.39 -176.45,1469.26 -30.58,1045.28 -21.23,1018.68 -14.72,1000.11 -9.44,984.86" fill="none" stroke="#bcbcbc" stroke-width="8" stroke-linecap="round" stroke-linejoin="round" /><polyline points="-2543.01,1923.00 -2546.11,1901.39 -2546.84,1877.92 -2542.24,1830.65 -2531.68,1744.34 -2524.63,1715.36 -2513.21,1610.63 -2511.12,1587.29 -2507.78,1557.30 -2505.29,1535.03 -2500.61,1509.78 -2491.92,1441.85 -2485.89,1389.88 -2477.03,1368.62" fill="none" stroke="#bcbcbc" stroke-width="8" stroke-linecap="round" stroke-linejoin="round" /><polyline points="-2667.12,1342.06 -2505.38,1364.66 -2477.03,1368.62 -2459.47,1371.42 -2386.97,1382.97 -2219.93,1409.59 -2191.26,1414.36" fill="none" stroke="#bcbcbc" stroke-width="8" stroke-linecap="round" stroke-linejoin="round" /><polyline points="309.49,-779.73 310.54,-765.03 312.71,-750.14 317.97,-738.73 327.80,-726.02 345.99,-709.46 389.10,-683.24 721.64,-474.61 926.46,-200.01 1081.15,181.78 1091.25,207.00" fill="none" stroke="#bcbcbc" stroke-width="8" stroke-linecap="round" stroke-linejoin="round" /><polyline points="256.24,334.27 263.13,345.68 264.92,348.64 270.63,377.44 309.65,566.11 322.03,626.00 330.89,668.64 344.70,755.09 351.16,794.96 355.61,819.29 360.48,841.25 366.30,854.07 374.84,868.91 379.41,875.91 465.82,999.61 512.55,1073.21 524.74,1090.80" fill="none" stroke="#bcbcbc" stroke-width="8" stroke-linecap="round" stroke-linejoin="round" /><polyline points="-2224.30,2696.64 -2219.70,2668.32 -2215.43,2647.85 -2214.29,2645.13 -2156.77,2508.39 -2120.13,2419.51 -2108.99,2391.35 -2097.20,2361.52 -2084.39,2335.88 -2082.32,2330.87 -2064.78,2288.48 -2051.23,2250.98 -2039.59,2216.57 -2032.21,2192.25 -2023.94,2162.20 -2014.40,2121.91 -2007.15,2089.23 -1998.50,2043.61 -1996.68,2033.43 -1990.85,2000.81" fill="none" stroke="#bcbcbc" stroke-width="8" stroke-linecap="round" stroke-linejoin="round" /><polyline points="562.09,-1122.15 745.47,-994.01 770.17,-988.76 788.25,-968.08" fill="none" stroke="#bcbcbc" stroke-width="8" stroke-linecap="round" stroke-linejoin="round" /><polyline points="-207.91,61.25 -183.68,70.58 -78.46,105.00 165.61,198.60 179.30,212.25 185.73,222.44" fill="none" stroke="#bcbcbc" stroke-width="8" stroke-linecap="round" stroke-linejoin="round" /><polyline points="246.89,2466.43 263.51,2423.11 345.56,2200.50 403.58,2032.31 415.61,2026.77" fill="none" stroke="#bcbcbc" stroke-width="8" stroke-linecap="round" stroke-linejoin="round" /><polyline points="-912.93,2184.16 -899.99,2155.54 -898.71,2152.71 -876.55,2078.40 -840.27,1956.08 -830.97,1924.78 -823.75,1900.47 -822.78,1886.30 -824.26,1854.94" fill="none" stroke="#bcbcbc" stroke-width="8" stroke-linecap="round" stroke-linejoin="round" /><polyline points="595.19,344.04 574.39,348.33 527.25,339.95 519.95,320.50 438.27,289.36 418.95,294.41 345.26,267.35 334.27,275.03" fill="none" stroke="#bcbcbc" stroke-width="8" stroke-linecap="round" stroke-linejoin="round" /><polyline points="473.91,-2182.50 510.92,-2173.44 531.40,-2169.88 1018.29,-2085.46" fill="none" stroke="#bcbcbc" stroke-width="8" stroke-linecap="round" stroke-linejoin="round" /><polyline points="95.49,2330.86 115.74,2273.76 155.10,2162.79 180.53,2115.52 217.14,2013.04 231.75,1972.14" fill="none" stroke="#bcbcbc" stroke-width="8" stroke-linecap="round" stroke-linejoin="round" /><polyline points="-2572.26,114.63 -2607.53,113.02 -2616.37,123.75 -2677.80,198.40 -2892.57,446.48 -2922.77,481.37" fill="none" stroke="#bcbcbc" stroke-width="8" stroke-linecap="round" stroke-linejoin="round" /><polyline points="-688.53,327.11 -704.09,361.57 -705.98,365.75 -760.06,506.78 -814.58,662.04 -829.12,703.44 -837.36,724.82" fill="none" stroke="#bcbcbc" stroke-width="8" stroke-linecap="round" stroke-linejoin="round" /><polyline points="104.82,-1257.62 122.00,-1234.31 134.28,-1202.26 153.37,-1156.25 184.01,-1083.88 211.15,-1018.92 242.29,-947.59 265.40,-892.62 268.82,-884.72 269.03,-884.24 287.63,-840.76 293.19,-828.40 298.47,-816.64 304.06,-805.62 308.27,-794.42 309.49,-779.73" fill="none" stroke="#bcbcbc" stroke-width="8" stroke-linecap="round" stroke-linejoin="round" /><polyline points="-1210.54,1022.35 -1201.55,1017.44 -1188.97,1007.44 -1182.68,994.47 -1099.11,677.62 -1096.59,659.75 -1086.40,627.11" fill="none" stroke="#bcbcbc" stroke-width="8" stroke-linecap="round" stroke-linejoin="round" /><polyline points="1711.28,526.52 1723.14,564.15 1731.48,603.67 1715.24,754.27 1696.47,867.55 1686.22,906.19 1685.29,909.69 1676.31,930.54 1664.07,952.65 1635.48,988.81 1649.32,1059.51 1604.54,1211.25 1579.81,1295.06 1529.22,1432.24 1455.14,1599.26 1364.69,1759.31 1336.44,1811.34 1285.37,1896.80 1081.31,2186.41 1036.61,2246.65 863.48,2472.90 764.09,2585.98 625.06,2727.28 612.19,2728.61 580.80,2754.28" fill="none" stroke="#bcbcbc" stroke-width="8" stroke-linecap="round" stroke-linejoin="round" /><polyline points="-806.53,3003.81 -749.58,2827.15 -740.26,2797.98 -727.60,2779.60 -700.40,2697.96 -691.54,2670.22 -579.17,2318.39 -567.87,2283.00 -558.55,2251.91 -425.94,1834.54" fill="none" stroke="#bcbcbc" stroke-width="8" stroke-linecap="round" stroke-linejoin="round" /><polyline points="527.82,-281.56 577.07,-335.37 591.59,-352.87 691.08,-493.79" fill="none" stroke="#bcbcbc" stroke-width="8" stroke-linecap="round" stroke-linejoin="round" /><polyline points="-456.36,-260.24 -320.76,-213.04 -313.27,-200.87 -274.77,-187.95 -251.91,-180.14 -142.62,-143.22" fill="none" stroke="#bcbcbc" stroke-width="8" stroke-linecap="round" stroke-linejoin="round" /><polyline points="725.54,-1198.62 788.25,-968.08 860.86,-696.50 871.87,-673.87 873.62,-648.03 922.85,-556.11 1055.73,-308.32 1084.77,-265.47 1093.18,-252.92 1291.70,118.22 1382.94,201.16 1395.74,217.69 1413.78,233.11 1587.02,381.24 1598.77,391.29 1629.88,407.81" fill="none" stroke="#bcbcbc" stroke-width="8" stroke-linecap="round" stroke-linejoin="round" /><polyline points="51.82,3041.31 483.84,2790.35 560.74,2751.02 580.80,2754.28" fill="none" stroke="#bcbcbc" stroke-width="8" stroke-linecap="round" stroke-linejoin="round" /><polyline points="520.23,2682.29 547.04,2650.42 787.68,2170.26 803.62,2138.77 816.93,2107.60 894.66,1915.38 917.81,1857.46 984.81,1654.70 1028.25,1394.02 1033.40,1356.08" fill="none" stroke="#bcbcbc" stroke-width="8" stroke-linecap="round" stroke-linejoin="round" /><polyline points="334.51,-141.58 330.30,-137.26 324.51,-117.06 323.93,-115.05 297.81,-14.49 304.66,11.77 298.96,35.30 291.51,66.11 272.40,88.25 250.71,176.10 225.16,195.40 197.89,214.10 185.73,222.44" fill="none" stroke="#bcbcbc" stroke-width="8" stroke-linecap="round" stroke-linejoin="round" /><polyline points="-688.53,327.11 -677.43,298.64 -610.66,127.50 -596.11,90.18 -584.11,59.44 -498.81,-159.12 -460.40,-250.50 -456.36,-260.24 -426.51,-332.41 -359.54,-498.70 -335.02,-569.49 -329.56,-585.72 -322.22,-604.13" fill="none" stroke="#bcbcbc" stroke-width="8" stroke-linecap="round" stroke-linejoin="round" /><polyline points="58.53,-710.35 71.44,-671.93 495.13,-310.02 726.33,-108.87 1071.65,191.32 1101.79,215.43 1115.29,223.87 1175.21,278.27 1255.23,346.52 1436.74,501.28 1495.37,551.70 1534.27,598.23" fill="none" stroke="#bcbcbc" stroke-width="8" stroke-linecap="round" stroke-linejoin="round" /><polyline points="759.06,-1333.95 780.56,-1347.73 907.86,-1400.64 934.03,-1428.16" fill="none" stroke="#bcbcbc" stroke-width="8" stroke-linecap="round" stroke-linejoin="round" /><polyline points="906.10,1886.75 730.34,1834.96 412.18,1741.37" fill="none" stroke="#bcbcbc" stroke-width="8" stroke-linecap="round" stroke-linejoin="round" /><polyline points="338.73,-1851.97 362.74,-1835.41 1145.08,-1661.33" fill="none" stroke="#bcbcbc" stroke-width="8" stroke-linecap="round" stroke-linejoin="round" /><polyline points="1305.10,723.90 1264.67,633.93 1174.94,419.93 1168.26,402.92 1152.91,363.86 1095.07,216.68 1091.43,207.14" fill="none" stroke="#bcbcbc" stroke-width="8" stroke-linecap="round" stroke-linejoin="round" /><polyline points="104.82,-1257.62 61.39,-1269.98 29.47,-1279.49 -35.40,-1298.75 -68.36,-1308.15 -87.24,-1313.40 -111.89,-1320.46" fill="none" stroke="#bcbcbc" stroke-width="8" stroke-linecap="round" stroke-linejoin="round" /><polyline points="-1027.67,-80.58 -1029.87,-87.77 -1031.89,-92.80 -1040.85,-115.05 -1075.53,-195.89 -1108.48,-278.03 -1115.60,-297.42 -1123.80,-319.75 -1129.67,-338.02 -1139.35,-365.42 -1140.37,-368.30 -1171.90,-446.02 -1229.79,-592.09 -1242.80,-599.50 -1252.04,-623.19 -1270.51,-687.34 -1302.14,-766.85 -1308.95,-784.92" fill="none" stroke="#bcbcbc" stroke-width="8" stroke-linecap="round" stroke-linejoin="round" /><polyline points="-749.58,2827.15 -716.71,2837.22 -610.34,2869.63 -577.02,2879.78" fill="none" stroke="#bcbcbc" stroke-width="8" stroke-linecap="round" stroke-linejoin="round" /><polyline points="1236.77,-1295.70 1242.96,-1320.76 1240.44,-1330.28 1237.40,-1341.77 1217.99,-1412.91 1174.69,-1563.32 1151.84,-1640.21 1145.08,-1661.33 1084.70,-1878.37 1052.11,-1995.44 1018.29,-2085.46 987.75,-2166.67 957.33,-2222.50 927.78,-2252.00 700.89,-2529.25 684.10,-2548.98 672.98,-2567.22" fill="none" stroke="#bcbcbc" stroke-width="8" stroke-linecap="round" stroke-linejoin="round" /><polyline points="309.49,-779.73 297.79,-775.25 276.16,-769.28 273.99,-768.69 183.63,-745.57 79.74,-716.32 58.53,-710.35 49.08,-707.35 24.12,-699.33 2.78,-693.39 -90.38,-667.47 -243.60,-623.94 -300.72,-609.50 -322.22,-604.13 -424.33,-579.05 -487.41,-561.49 -620.98,-524.17 -753.01,-486.96 -768.29,-482.72 -878.63,-452.09 -929.53,-437.96 -955.23,-425.82 -1003.88,-401.70 -1100.51,-352.66 -1107.24,-349.25 -1129.67,-338.02 -1143.35,-331.17 -1162.44,-321.16 -1230.33,-285.57 -1354.02,-216.17 -1457.34,-162.05 -1472.13,-154.30 -1491.87,-153.07 -1503.73,-146.77 -1506.10,-145.51 -1618.19,-84.08 -1641.66,-84.18 -1668.61,-70.09 -1678.02,-65.17 -1685.96,-61.01 -1704.69,-51.21 -1719.45,-17.53 -1782.90,16.45 -1803.07,27.25 -1824.89,39.13 -1913.16,87.16 -1958.79,111.99 -1981.78,118.62" fill="none" stroke="#bcbcbc" stroke-width="8" stroke-linecap="round" stroke-linejoin="round" /><polyline points="1579.81,1295.06 1532.71,1299.38 1385.58,1312.86 1378.95,1313.46 1369.57,1314.32 1354.38,1315.72 1211.73,1328.82 1162.11,1324.21 1104.33,1338.69 1058.06,1350.04 1033.40,1356.08 972.16,1358.40 919.14,1355.71 892.12,1352.84 869.12,1345.88 852.18,1336.51 789.10,1291.91 635.83,1186.64 621.38,1176.84 606.67,1166.86 595.67,1156.21" fill="none" stroke="#bcbcbc" stroke-width="8" stroke-linecap="round" stroke-linejoin="round" /><polyline points="-1891.55,-482.19 -1835.93,-373.32 -1827.51,-342.20 -1780.67,-252.82 -1761.32,-227.25 -1683.02,-74.89 -1678.02,-65.17" fill="none" stroke="#bcbcbc" stroke-width="8" stroke-linecap="round" stroke-linejoin="round" /><polyline points="-187.26,486.05 -195.59,508.94 -197.93,516.05 -208.78,548.99 -277.59,740.95 -311.74,836.28 -312.91,839.53 -326.63,869.16 -334.49,886.76" fill="none" stroke="#bcbcbc" stroke-width="8" stroke-linecap="round" stroke-linejoin="round" /><polyline points="725.54,-1198.62 717.91,-1214.95 697.86,-1217.58 633.01,-1202.70 619.83,-1204.42 609.50,-1218.26 591.15,-1302.64 690.55,-1318.03 736.56,-1331.61 759.06,-1333.95 783.30,-1247.79" fill="none" stroke="#bcbcbc" stroke-width="8" stroke-linecap="round" stroke-linejoin="round" /><polyline points="1084.77,-265.47 1110.37,-279.85 1238.97,-357.34 1273.34,-377.80 1333.50,-413.67 1432.47,-477.68 1455.56,-494.28 1629.16,-601.97" fill="none" stroke="#bcbcbc" stroke-width="8" stroke-linecap="round" stroke-linejoin="round" /><polyline points="1691.60,243.20 1647.71,230.12 1622.19,209.20 1524.68,124.82 1521.36,121.85 1497.79,100.81 1483.93,76.25 1238.97,-357.34" fill="none" stroke="#bcbcbc" stroke-width="8" stroke-linecap="round" stroke-linejoin="round" /><polyline points="-1072.86,208.84 -688.53,327.11 -657.17,337.05 -370.36,427.96 -364.37,429.86 -321.41,443.49 -300.28,450.19 -272.83,457.69 -216.21,476.87 -187.26,486.05 -161.20,494.32 52.24,562.02 277.57,632.81 296.20,638.67 322.03,626.00" fill="none" stroke="#bcbcbc" stroke-width="8" stroke-linecap="round" stroke-linejoin="round" /><polyline points="57.20,-1688.62 223.69,-1841.59 251.88,-1867.49" fill="none" stroke="#bcbcbc" stroke-width="8" stroke-linecap="round" stroke-linejoin="round" /><polyline points="-2730.63,779.78 -2119.74,845.26" fill="none" stroke="#bcbcbc" stroke-width="8" stroke-linecap="round" stroke-linejoin="round" /><polyline points="-887.76,-925.31 -759.36,-971.23 -626.92,-1019.11 -544.63,-1051.10 -293.39,-1142.48 -220.47,-1167.70 -205.25,-1172.97 -186.98,-1179.24 -166.48,-1186.30 -163.97,-1187.16 -122.58,-1203.80 -104.59,-1211.03" fill="none" stroke="#bcbcbc" stroke-width="8" stroke-linecap="round" stroke-linejoin="round" /><polyline points="-25.39,2181.74 95.49,2330.86 169.49,2405.38 201.53,2428.44 246.89,2466.43 289.49,2502.20 326.09,2537.90 326.99,2556.06" fill="none" stroke="#bcbcbc" stroke-width="8" stroke-linecap="round" stroke-linejoin="round" /><polyline points="104.82,-1257.62 152.20,-1376.37 228.88,-1571.87 338.73,-1851.97 393.02,-1984.65 473.91,-2182.50 540.25,-2344.57 552.12,-2366.07 610.45,-2461.45 614.22,-2467.61 635.56,-2509.58 672.98,-2567.22 693.88,-2599.39 723.46,-2644.90" fill="none" stroke="#bcbcbc" stroke-width="8" stroke-linecap="round" stroke-linejoin="round" /><polyline points="-1012.81,1917.27 -1020.57,1923.48 -1025.70,1930.87 -1036.15,1961.68 -1043.37,1983.93 -1076.74,2083.73 -1081.34,2098.13 -1084.19,2107.07 -1114.84,2098.28 -1189.43,2073.27 -1263.35,2048.48 -1320.47,2045.25" fill="none" stroke="#bcbcbc" stroke-width="8" stroke-linecap="round" stroke-linejoin="round" /><polyline points="-2473.60,2611.79 -2351.79,2297.20 -2338.23,2262.95 -2326.07,2229.97 -2311.38,2190.11 -2293.37,2127.41 -2274.58,2049.50 -2266.89,1993.66 -2261.30,1953.11 -2253.42,1923.17 -2224.75,1698.22 -2191.26,1414.36 -2173.93,1279.04 -2154.59,1120.06 -2119.74,845.26 -2114.21,798.53 -2078.99,511.15 -2078.97,495.14 -2071.18,409.87 -2048.72,229.75 -2043.08,198.33 -2037.21,180.71 -2028.02,161.31 -2019.09,146.24 -1999.38,124.90 -1981.75,118.85" fill="none" stroke="#bcbcbc" stroke-width="8" stroke-linecap="round" stroke-linejoin="round" /><polyline points="228.88,-1571.87 887.06,-1452.88 956.18,-1416.50 1214.05,-1288.67 1236.77,-1295.70" fill="none" stroke="#bcbcbc" stroke-width="8" stroke-linecap="round" stroke-linejoin="round" /><polyline points="-1027.67,-80.58 -1039.35,-63.54 -1144.35,-12.30 -1221.47,85.73 -1304.70,137.25 -1361.61,180.23 -1415.91,224.52 -1443.75,249.90 -1492.93,312.27 -1547.91,391.09 -1556.97,405.70" fill="none" stroke="#bcbcbc" stroke-width="8" stroke-linecap="round" stroke-linejoin="round" /><polyline points="-916.66,-10.26 -921.21,-0.14 -931.17,14.41 -949.98,37.56 -1060.90,177.68 -1119.58,335.73 -1415.78,224.40" fill="none" stroke="#bcbcbc" stroke-width="8" stroke-linecap="round" stroke-linejoin="round" /><polyline points="-1361.61,180.23 -1373.08,145.51 -1422.64,-4.56 -1441.88,-34.21 -1474.09,-130.84 -1476.87,-139.18 -1472.13,-154.30 -1479.84,-178.93 -1634.72,-673.44" fill="none" stroke="#bcbcbc" stroke-width="8" stroke-linecap="round" stroke-linejoin="round" /><polyline points="453.13,-2517.98 575.53,-2514.75 581.24,-2514.59 604.70,-2513.92 635.56,-2509.58" fill="none" stroke="#bcbcbc" stroke-width="8" stroke-linecap="round" stroke-linejoin="round" /><polyline points="-176.45,1469.26 -218.24,1468.75 -572.12,1516.25 -597.63,1518.94 -626.80,1522.02 -796.14,1539.89 -1024.28,1563.99 -1145.24,1576.74 -1212.15,1583.80 -1266.47,1590.41 -1294.37,1593.80 -1325.79,1597.62 -1477.58,1616.06 -1513.95,1620.48 -1626.04,1632.74 -2224.75,1698.22" fill="none" stroke="#bcbcbc" stroke-width="8" stroke-linecap="round" stroke-linejoin="round" /><polyline points="-700.40,2697.96 -731.75,2687.87 -878.17,2640.73 -907.77,2631.21 -933.47,2622.94 -1088.59,2573.08 -1119.18,2563.25 -1159.64,2550.23 -1406.59,2470.76 -1434.38,2461.82" fill="none" stroke="#bcbcbc" stroke-width="8" stroke-linecap="round" stroke-linejoin="round" /><polyline points="-88.13,-266.64 -2.96,-240.10 308.51,-143.92 311.42,-143.02 334.51,-141.58" fill="none" stroke="#bcbcbc" stroke-width="8" stroke-linecap="round" stroke-linejoin="round" /><polyline points="788.25,-968.08 1211.95,-960.63" fill="none" stroke="#bcbcbc" stroke-width="8" stroke-linecap="round" stroke-linejoin="round" /><polyline points="580.80,2754.28 520.23,2682.29 494.82,2652.73 472.98,2632.33 443.91,2610.62 384.49,2574.97 326.99,2556.06 210.01,2519.93 114.34,2489.57 169.49,2405.38" fill="none" stroke="#bcbcbc" stroke-width="8" stroke-linecap="round" stroke-linejoin="round" /><polyline points="-25.39,2181.74 -109.73,2077.64 -125.77,2057.84 -210.72,1940.81 -229.94,1905.08 -225.33,1862.54 -199.72,1862.29 -136.54,1874.45 -40.40,1892.94" fill="none" stroke="#bcbcbc" stroke-width="8" stroke-linecap="round" stroke-linejoin="round" /><polyline points="-1128.66,1347.68 -1113.10,1381.14 -1024.28,1563.99 -892.21,1835.87 -875.37,1870.54" fill="none" stroke="#bcbcbc" stroke-width="8" stroke-linecap="round" stroke-linejoin="round" /><polyline points="-2551.27,2175.86 -2519.50,2188.85 -2370.71,2249.68 -2338.23,2262.95 -2304.05,2276.93 -2128.89,2348.56 -2097.20,2361.52" fill="none" stroke="#bcbcbc" stroke-width="8" stroke-linecap="round" stroke-linejoin="round" /><polyline points="-1055.56,1076.57 -745.58,1212.19" fill="none" stroke="#bcbcbc" stroke-width="8" stroke-linecap="round" stroke-linejoin="round" /><polyline points="334.51,-141.58 381.73,-139.10 384.74,-136.42 405.93,-117.63 437.06,-89.84 442.81,-78.65 550.13,15.33 558.07,30.32 633.53,96.92 652.52,102.72 711.23,154.13 724.38,160.13 812.91,235.23 832.62,252.71 843.49,270.02" fill="none" stroke="#bcbcbc" stroke-width="8" stroke-linecap="round" stroke-linejoin="round" /><polyline points="-2638.76,1076.88 -2154.59,1120.06" fill="none" stroke="#bcbcbc" stroke-width="8" stroke-linecap="round" stroke-linejoin="round" /><polyline points="-1557.72,2879.76 -1542.71,2847.82 -1538.86,2833.62 -1517.83,2756.09 -1441.67,2487.53 -1434.38,2461.82 -1426.67,2433.62 -1392.17,2307.44 -1333.90,2094.36 -1320.47,2045.25" fill="none" stroke="#bcbcbc" stroke-width="8" stroke-linecap="round" stroke-linejoin="round" /><polyline points="-1128.66,1347.68 -1055.56,1076.57 -1210.54,1022.35 -1251.13,1046.31 -1269.63,1060.39 -1283.33,1078.91 -1292.96,1103.37 -1328.61,1235.13 -1299.85,1249.77 -1270.80,1256.82 -1206.56,1273.54 -1158.48,1288.85 -1128.66,1347.68" fill="none" stroke="#bcbcbc" stroke-width="8" stroke-linecap="round" stroke-linejoin="round" /><polyline points="-1328.61,1235.13 -1362.55,1230.40 -2154.59,1120.06" fill="none" stroke="#bcbcbc" stroke-width="8" stroke-linecap="round" stroke-linejoin="round" /><polyline points="-40.40,1892.94 33.06,1908.99 231.75,1972.14 287.30,1989.71 419.16,2027.80 552.00,2066.10 650.34,2094.52 807.62,2139.92 840.11,2149.32 919.48,2175.92 1050.15,2210.73 1061.67,2212.88" fill="none" stroke="#bcbcbc" stroke-width="8" stroke-linecap="round" stroke-linejoin="round" /><polyline points="52.79,3040.74 25.98,3047.47 -3.00,3128.25 -47.94,3115.48 -252.29,3045.84 -276.90,3040.59 -331.61,3036.67 -579.09,3037.66 -633.64,3030.72 -756.84,3011.88 -806.53,3003.81 -1159.00,2946.96 -1295.49,2925.18 -1555.78,2880.10 -1597.81,2871.76 -2185.24,2707.57 -2222.31,2697.19 -2473.60,2611.79 -2535.42,2589.85 -2689.85,2525.86 -2777.87,2492.56" fill="none" stroke="#bcbcbc" stroke-width="8" stroke-linecap="round" stroke-linejoin="round" /><polyline points="591.15,-1302.64 565.72,-1307.88 226.21,-1267.74 104.82,-1257.62" fill="none" stroke="#bcbcbc" stroke-width="8" stroke-linecap="round" stroke-linejoin="round" /><polyline points="-40.40,1892.94 -28.50,1873.03 42.74,1690.05 122.35,1413.37 142.65,1353.78 153.51,1337.56 230.37,1090.86 234.19,1061.40 237.10,1042.15" fill="none" stroke="#bcbcbc" stroke-width="8" stroke-linecap="round" stroke-linejoin="round" /><polyline points="309.49,-779.73 317.60,-782.83 328.60,-791.56 345.30,-811.10 562.09,-1122.15 619.83,-1204.42" fill="none" stroke="#bcbcbc" stroke-width="8" stroke-linecap="round" stroke-linejoin="round" /><polyline points="1274.34,362.92 1278.77,350.15 1387.75,221.95 1395.74,217.69 1414.67,191.78 1478.07,118.96 1497.79,100.81" fill="none" stroke="#bcbcbc" stroke-width="8" stroke-linecap="round" stroke-linejoin="round" /><polyline points="1369.57,1314.32 1368.06,1297.17 1366.89,1283.90 1361.15,1258.53 1354.28,1241.97 1345.72,1198.49 1344.95,1182.75 1339.14,1147.55 1313.21,1134.00 1292.48,1141.93 1255.37,1150.81 1226.00,1155.40 1197.84,1162.20 1158.95,1171.06 1141.21,1175.11" fill="none" stroke="#bcbcbc" stroke-width="8" stroke-linecap="round" stroke-linejoin="round" /><polyline points="-1493.42,684.71 -1414.17,498.93 -1409.76,486.85" fill="none" stroke="#bcbcbc" stroke-width="8" stroke-linecap="round" stroke-linejoin="round" /><polyline points="595.19,344.04 633.39,329.25 653.36,321.51 668.81,305.87 732.49,290.18 753.86,295.62 799.95,283.74 835.12,274.69 843.49,270.02 877.58,261.66 1051.91,218.95 1091.43,207.14" fill="none" stroke="#bcbcbc" stroke-width="8" stroke-linecap="round" stroke-linejoin="round" /><polyline points="-1012.81,1917.27 -930.57,1887.41 -903.06,1879.00 -875.37,1870.54 -824.26,1854.94 -784.50,1849.22 -648.72,1834.36 -621.44,1832.87 -499.94,1833.91 -425.94,1834.54 -398.10,1833.12 -353.53,1837.63 -339.58,1839.63 -311.17,1843.69 -225.33,1862.54" fill="none" stroke="#bcbcbc" stroke-width="8" stroke-linecap="round" stroke-linejoin="round" /><polyline points="-620.98,-524.17 -634.61,-570.23 -685.21,-741.32 -746.67,-936.40 -759.36,-971.23 -772.25,-1003.87 -788.54,-1050.90" fill="none" stroke="#bcbcbc" stroke-width="8" stroke-linecap="round" stroke-linejoin="round" /><polyline points="-768.16,2234.43 -757.36,2200.29 -648.03,1855.56 -648.72,1834.36" fill="none" stroke="#bcbcbc" stroke-width="8" stroke-linecap="round" stroke-linejoin="round" /><polyline points="-621.44,1832.87 -599.79,1542.61 -597.63,1518.94 -594.31,1491.40 -594.26,1490.16 -592.84,1456.49 -585.62,1365.12 -581.54,1322.57 -575.97,1274.23 -570.90,1239.42 -566.34,1217.56 -560.61,1201.05 -549.37,1163.82 -526.15,1086.33 -496.62,986.29 -464.06,883.98 -457.43,863.12 -452.09,848.00" fill="none" stroke="#bcbcbc" stroke-width="8" stroke-linecap="round" stroke-linejoin="round" /><polyline points="-1328.61,1235.13 -1334.36,1260.85 -1333.38,1269.07 -1298.11,1562.70 -1294.37,1593.80 -1295.99,1625.79 -1305.23,1808.42 -1309.09,1884.72 -1311.08,1924.07 -1314.63,1994.22 -1316.48,2030.75 -1320.47,2045.25" fill="none" stroke="#bcbcbc" stroke-width="8" stroke-linecap="round" stroke-linejoin="round" /><polyline points="-1493.42,684.71 -1621.65,646.59 -1637.95,636.14 -1717.76,612.89 -1740.18,613.12 -1840.46,582.91 -1856.66,570.96 -1947.90,543.30 -2059.87,512.79 -2060.41,512.74 -2078.99,511.15" fill="none" stroke="#bcbcbc" stroke-width="8" stroke-linecap="round" stroke-linejoin="round" /><polyline points="843.49,270.02 847.94,275.86 866.54,303.58 900.91,354.81 933.27,387.23 995.47,457.06 984.96,521.59 979.62,545.79 972.20,556.02 987.80,579.10 1011.92,628.75 1060.14,721.77 1083.88,767.58 1098.65,808.74 1105.31,827.86" fill="none" stroke="#bcbcbc" stroke-width="8" stroke-linecap="round" stroke-linejoin="round" /><polyline points="1168.26,402.92 1150.38,408.49 1032.62,445.13 1015.74,450.55 995.47,457.06" fill="none" stroke="#bcbcbc" stroke-width="8" stroke-linecap="round" stroke-linejoin="round" /><polyline points="322.03,626.00 358.86,614.06 626.15,477.57 661.93,460.09 787.91,423.70 910.06,389.36 933.27,387.23" fill="none" stroke="#bcbcbc" stroke-width="8" stroke-linecap="round" stroke-linejoin="round" /><polyline points="351.16,794.96 659.31,651.56 672.28,642.98 702.41,634.21 907.75,574.46 938.90,562.54 972.20,556.02" fill="none" stroke="#bcbcbc" stroke-width="8" stroke-linecap="round" stroke-linejoin="round" /><polyline points="288.28,-2211.34 413.02,-2195.92 425.55,-2194.37 473.91,-2182.50" fill="none" stroke="#bcbcbc" stroke-width="8" stroke-linecap="round" stroke-linejoin="round" /><polyline points="1354.25,-943.13 1376.37,-947.75 1459.03,-907.24 1469.92,-896.46 1625.08,-633.82 1629.16,-601.97 1649.34,-585.16 1646.13,-573.55 1645.64,-554.62 1648.44,-528.15 1689.53,-359.25 1693.17,-242.28 1698.93,-55.50 1708.59,195.90 1669.24,305.44 1643.89,372.22 1606.88,466.33 1596.16,493.55 1589.20,501.16 1578.02,573.99" fill="none" stroke="#bcbcbc" stroke-width="8" stroke-linecap="round" stroke-linejoin="round" /><polyline points="1641.12,1017.65 1603.38,1001.23 1509.08,935.42 1384.67,848.00 1316.24,792.66 1270.08,743.22" fill="none" stroke="#bcbcbc" stroke-width="8" stroke-linecap="round" stroke-linejoin="round" /><polyline points="114.33,2489.57 77.28,2477.82 17.14,2458.75 -11.56,2449.65 -45.27,2438.96 -87.86,2425.46 -126.38,2413.25 -164.44,2401.17 -334.19,2347.31 -363.92,2337.87 -400.85,2326.18 -409.00,2323.60 -506.09,2297.95 -533.50,2291.31 -567.87,2283.00 -603.83,2274.28 -733.40,2242.86 -768.16,2234.43 -805.50,2221.46 -883.52,2194.37 -912.93,2184.16 -939.23,2175.62 -1061.40,2132.18 -1076.79,2123.01 -1084.19,2107.07" fill="none" stroke="#bcbcbc" stroke-width="8" stroke-linecap="round" stroke-linejoin="round" /><polyline points="672.28,642.98 663.28,610.72 636.46,514.55 626.15,477.57 611.24,449.93 609.86,444.80 601.07,412.25 611.30,397.83 599.01,356.79 595.19,344.04" fill="none" stroke="#bcbcbc" stroke-width="8" stroke-linecap="round" stroke-linejoin="round" /><polyline points="627.44,-533.85 652.94,-545.85 792.24,-622.65 871.87,-673.87 928.03,-712.18 940.44,-721.42 985.64,-752.84 1032.48,-787.44 1062.14,-809.02 1097.50,-834.88 1220.40,-890.34 1236.34,-889.49 1259.63,-900.51 1354.25,-943.13" fill="none" stroke="#bcbcbc" stroke-width="8" stroke-linecap="round" stroke-linejoin="round" /><polyline points="-916.66,-10.26 -896.56,-2.11 -883.28,1.97 -634.15,78.49 -596.11,90.18" fill="none" stroke="#bcbcbc" stroke-width="8" stroke-linecap="round" stroke-linejoin="round" /><polyline points="-2696.10,549.97 -2874.09,496.10" fill="none" stroke="#bcbcbc" stroke-width="8" stroke-linecap="round" stroke-linejoin="round" /><polyline points="178.88,-1959.95 223.01,-1904.05 229.60,-1895.71 251.88,-1867.49 277.26,-1864.51 329.45,-1858.38 338.73,-1851.97" fill="none" stroke="#bcbcbc" stroke-width="8" stroke-linecap="round" stroke-linejoin="round" /><polyline points="1711.28,526.52 1641.36,539.57 1569.65,578.53 1503.19,615.53 1440.33,646.96 1364.37,688.21 1309.36,721.61 1200.66,779.89 776.34,993.37 666.33,1041.83 593.65,1073.26 557.63,1085.05 527.84,1090.61 479.06,1093.56 409.64,1083.74 236.45,1042.15 -9.44,984.86 -332.92,887.28 -452.09,848.00 -647.23,787.75 -833.85,726.20 -1107.57,618.80 -1244.42,559.87 -1409.44,486.53 -1683.15,336.57 -1747.32,294.01 -1909.72,191.86 -1977.82,123.76 -2079.97,-8.52 -2248.26,-182.04 -2314.40,-240.31" fill="none" stroke="#bcbcbc" stroke-width="8" stroke-linecap="round" stroke-linejoin="round" /><polyline points="384.49,2574.97 387.36,2558.97 397.71,2532.84 494.77,2305.72 531.44,2220.59 574.66,2114.50 585.19,2075.67" fill="none" stroke="#bcbcbc" stroke-width="8" stroke-linecap="round" stroke-linejoin="round" /><polyline points="-1477.58,1616.06 -1587.83,1562.70 -1838.72,1441.27 -2146.46,1292.33 -2173.93,1279.04" fill="none" stroke="#bcbcbc" stroke-width="8" stroke-linecap="round" stroke-linejoin="round" /><polyline points="334.51,-141.58 362.35,-170.09 436.38,-245.87 495.13,-310.02" fill="none" stroke="#bcbcbc" stroke-width="8" stroke-linecap="round" stroke-linejoin="round" /><polyline points="-1803.07,27.25 -1833.65,-13.24 -1976.98,-203.01 -2181.57,-368.58" fill="none" stroke="#bcbcbc" stroke-width="8" stroke-linecap="round" stroke-linejoin="round" /><polyline points="-2690.95,2525.39 -2662.97,2459.04 -2574.01,2237.26 -2563.23,2208.15 -2551.27,2175.86 -2546.73,2164.20 -2545.52,2145.96 -2534.14,1973.54 -2530.87,1924.08" fill="none" stroke="#bcbcbc" stroke-width="8" stroke-linecap="round" stroke-linejoin="round" /><polyline points="-2751.64,742.59 -2696.10,549.97 -2622.83,295.92 -2613.76,264.47 -2603.68,228.75 -2581.10,148.76 -2578.73,140.36 -2572.26,114.63 -2561.95,85.56 -2559.45,78.52 -2546.43,46.24 -2520.86,-10.17 -2513.21,-26.36" fill="none" stroke="#bcbcbc" stroke-width="8" stroke-linecap="round" stroke-linejoin="round" /><polyline points="-2613.76,264.47 -2501.39,293.21 -2263.37,354.39 -2127.75,396.62 -2071.18,409.87" fill="none" stroke="#bcbcbc" stroke-width="8" stroke-linecap="round" stroke-linejoin="round" /><polyline points="-300.72,-609.50 -296.90,-632.89 -293.06,-657.16 -276.57,-738.38 -235.39,-927.43 -201.56,-1096.53 -195.38,-1131.61 -186.98,-1179.24 -186.97,-1179.29" fill="none" stroke="#bcbcbc" stroke-width="8" stroke-linecap="round" stroke-linejoin="round" /><polyline points="-633.43,3030.75 -583.25,2902.78 -577.02,2879.78 -377.91,2374.34 -363.92,2337.87 -352.61,2306.94 -233.63,1960.80 -210.72,1940.81" fill="none" stroke="#bcbcbc" stroke-width="8" stroke-linecap="round" stroke-linejoin="round" /><polyline points="49.08,-707.35 49.07,-707.40 42.02,-744.41 40.91,-748.91 23.71,-818.86 23.73,-819.08 12.00,-866.51 -37.69,-1036.79 -43.95,-1055.03 -77.51,-1146.25 -88.41,-1173.48 -95.45,-1191.04 -104.58,-1211.00 -104.59,-1211.03 -104.60,-1211.11 -111.25,-1284.45 -111.89,-1320.46" fill="none" stroke="#bcbcbc" stroke-width="8" stroke-linecap="round" stroke-linejoin="round" /><polyline points="-25.39,2181.74 -38.17,2195.55 -57.21,2218.20 -110.85,2369.46 -126.38,2413.25" fill="none" stroke="#bcbcbc" stroke-width="8" stroke-linecap="round" stroke-linejoin="round" /><polyline points="-916.66,-10.26 -909.33,-30.12 -907.67,-34.73 -872.84,-132.03 -859.77,-173.02 -753.01,-486.96" fill="none" stroke="#bcbcbc" stroke-width="8" stroke-linecap="round" stroke-linejoin="round" /><polyline points="-364.37,429.86 -353.48,400.92 -323.98,322.56 -311.50,289.43 -303.06,267.00 -279.39,204.12 -263.75,162.57 -261.64,156.98 -223.75,56.34 -207.91,61.25 -199.33,37.88 -184.15,-3.45 -187.06,-22.22 -146.75,-131.95 -142.61,-143.22 -134.97,-150.25 -128.55,-156.15 -88.13,-266.64 -82.28,-296.89 -24.29,-458.02 -10.57,-468.74 17.33,-547.68 12.37,-559.79 36.80,-633.51 24.12,-699.33" fill="none" stroke="#bcbcbc" stroke-width="8" stroke-linecap="round" stroke-linejoin="round" /><polyline points="672.98,-2567.22 656.73,-2593.88 571.35,-2733.96" fill="none" stroke="#bcbcbc" stroke-width="8" stroke-linecap="round" stroke-linejoin="round" /><polyline points="940.44,-721.42 1332.28,-469.44 1332.39,-469.27 1332.39,-469.23 1404.87,-459.82" fill="none" stroke="#bcbcbc" stroke-width="8" stroke-linecap="round" stroke-linejoin="round" /><polyline points="783.30,-1247.79 1200.21,-1038.52 1212.79,-1029.13 1211.95,-960.63 1220.40,-890.34" fill="none" stroke="#bcbcbc" stroke-width="8" stroke-linecap="round" stroke-linejoin="round" /><polyline points="-11.56,2449.65 -26.56,2495.40 -87.30,2680.66 -190.63,2992.67 -197.96,3014.80 -205.39,3037.23 -207.46,3061.12" fill="none" stroke="#bcbcbc" stroke-width="8" stroke-linecap="round" stroke-linejoin="round" /><polyline points="1162.11,1324.21 1164.61,1300.97 1165.14,1279.28 1164.97,1278.53 1150.19,1214.67 1144.13,1187.98 1141.21,1175.11 1138.22,1161.95 1122.01,1090.51 1090.33,947.73 1067.31,861.89 1064.04,848.63" fill="none" stroke="#bcbcbc" stroke-width="8" stroke-linecap="round" stroke-linejoin="round" /><polyline points="-907.77,2631.21 -897.43,2601.83 -781.34,2271.89 -768.16,2234.43" fill="none" stroke="#bcbcbc" stroke-width="8" stroke-linecap="round" stroke-linejoin="round" /><polyline points="1698.93,-55.50 1664.77,-65.14 1432.81,-421.08 1404.87,-459.82" fill="none" stroke="#bcbcbc" stroke-width="8" stroke-linecap="round" stroke-linejoin="round" /><polyline points="-2114.21,798.53 -1268.84,1001.07 -1210.54,1022.35" fill="none" stroke="#bcbcbc" stroke-width="8" stroke-linecap="round" stroke-linejoin="round" /><polyline points="552.12,-2366.07 881.41,-2244.09 927.78,-2252.00" fill="none" stroke="#bcbcbc" stroke-width="8" stroke-linecap="round" stroke-linejoin="round" />
    <polyline points="185.73,222.44 192.39,233.00 214.73,267.88 248.18,321.49 256.24,334.27 269.58,324.14 334.27,275.03" fill="none" stroke="#ffffff" stroke-width="16" stroke-linecap="round" stroke-linejoin="round" />
    <polyline points="185.73,222.44 192.39,233.00 214.73,267.88 248.18,321.49 256.24,334.27 269.58,324.14 334.27,275.03" fill="none" stroke="#111111" stroke-width="9" stroke-linecap="round" stroke-linejoin="round" />
    
            <g transform="translate(185.73,222.44)">
              <circle r="19" fill="#ffffff" stroke="#111111" stroke-width="4" />
              <text text-anchor="middle" dominant-baseline="central" font-family="Helvetica, Arial, sans-serif"
                font-size="18" font-weight="700" fill="#111111">1</text>
            </g>
            
            <g transform="translate(334.27,275.03)">
              <circle r="19" fill="#ffffff" stroke="#111111" stroke-width="4" />
              <text text-anchor="middle" dominant-baseline="central" font-family="Helvetica, Arial, sans-serif"
                font-size="18" font-weight="700" fill="#111111">2</text>
            </g>
            
  </g>
</svg>
