<svg xmlns="http://www.w3.org/2000/svg" width="520" height="520" viewBox="0 0 520 520">
  <rect width="100%" height="100%" fill="#ffffff" />
  <g>
    <polyline points="374.43,416.44 375.88,424.10 385.18,489.18 383.76,505.44" fill="none" stroke="#bcbcbc" stroke-width="8" stroke-linecap="round" stroke-linejoin="round" /><polyline points="185.39,958.70 187.63,951.79 199.55,915.14 200.95,910.83 202.38,906.29 232.33,810.74 234.74,803.06 229.23,789.47" fill="none" stroke="#bcbcbc" stroke-width="8" stroke-linecap="round" stroke-linejoin="round" /><polyline points="-21.55,873.72 -22.04,868.23 -12.24,813.37 -10.87,806.51 -9.84,802.91 -7.15,789.00 -4.12,771.97 -0.82,756.97 2.46,742.01 4.52,737.79 5.87,735.20" fill="none" stroke="#bcbcbc" stroke-width="8" stroke-linecap="round" stroke-linejoin="round" /><polyline points="35.30,486.72 32.97,479.62 8.90,406.20 7.73,403.12" fill="none" stroke="#bcbcbc" stroke-width="8" stroke-linecap="round" stroke-linejoin="round" /><polyline points="-88.21,1132.88 -87.49,1125.87 -87.20,1122.66 -84.58,1093.67 -81.71,1068.15 -81.04,1062.19 -80.42,1055.04 -80.35,1054.44 -78.72,1040.22 -77.32,1025.77 -75.78,1011.82 -74.74,1000.97 -74.30,994.27 -73.92,988.08 -73.24,981.11" fill="none" stroke="#bcbcbc" stroke-width="8" stroke-linecap="round" stroke-linejoin="round" /><polyline points="244.38,975.74 246.09,970.35 258.17,932.38 259.54,928.06 261.49,921.91 262.89,917.51 273.58,871.40" fill="none" stroke="#bcbcbc" stroke-width="8" stroke-linecap="round" stroke-linejoin="round" /><polyline points="197.43,224.62 201.89,225.31 324.80,244.20" fill="none" stroke="#bcbcbc" stroke-width="8" stroke-linecap="round" stroke-linejoin="round" /><polyline points="-118.11,966.79 -130.90,966.19 -138.70,965.83 -142.94,965.63 -146.66,965.46 -175.63,964.11 -215.92,962.24 -235.13,959.52 -241.56,958.60 -247.14,957.62 -284.91,950.95 -290.19,950.02 -291.36,949.82 -297.88,948.70 -302.89,947.84 -334.90,945.01 -341.00,944.47 -343.24,944.28 -350.16,943.80 -363.71,942.86" fill="none" stroke="#bcbcbc" stroke-width="8" stroke-linecap="round" stroke-linejoin="round" /><polyline points="67.75,929.67 70.23,922.62 92.56,860.71 119.42,782.63 121.14,777.73 122.34,774.31 123.31,771.50" fill="none" stroke="#bcbcbc" stroke-width="8" stroke-linecap="round" stroke-linejoin="round" /><polyline points="-343.24,944.28 -343.81,940.30 -343.94,935.97 -343.09,927.27 -341.15,911.37 -339.85,906.04 -337.75,886.75 -337.36,882.45 -336.75,876.93 -336.29,872.83 -335.43,868.18 -333.83,855.66 -332.72,846.09 -331.09,842.18" fill="none" stroke="#bcbcbc" stroke-width="8" stroke-linecap="round" stroke-linejoin="round" /><polyline points="-366.09,837.29 -336.31,841.45 -331.09,842.18 -327.85,842.69 -314.50,844.82 -283.74,849.72 -278.46,850.60" fill="none" stroke="#bcbcbc" stroke-width="8" stroke-linecap="round" stroke-linejoin="round" /><polyline points="182.04,446.53 182.24,449.24 182.64,451.98 183.61,454.08 185.42,456.42 188.77,459.47 196.70,464.30 257.94,502.72 295.66,553.29 324.14,623.60 326.00,628.25" fill="none" stroke="#bcbcbc" stroke-width="8" stroke-linecap="round" stroke-linejoin="round" /><polyline points="172.24,651.69 173.51,653.79 173.84,654.33 174.89,659.64 182.07,694.38 184.35,705.41 185.99,713.27 188.53,729.19 189.72,736.53 190.54,741.01 191.43,745.06 192.51,747.42 194.08,750.15 194.92,751.44 210.83,774.22 219.44,787.77 221.68,791.01" fill="none" stroke="#bcbcbc" stroke-width="8" stroke-linecap="round" stroke-linejoin="round" /><polyline points="-284.55,1086.75 -283.70,1081.54 -282.91,1077.77 -282.70,1077.27 -272.11,1052.08 -265.36,1035.72 -263.31,1030.53 -261.14,1025.04 -258.78,1020.31 -258.40,1019.39 -255.17,1011.58 -252.68,1004.68 -250.53,998.34 -249.17,993.86 -247.65,988.33 -245.89,980.91 -244.56,974.89 -242.97,966.49 -242.63,964.61 -241.56,958.60" fill="none" stroke="#bcbcbc" stroke-width="8" stroke-linecap="round" stroke-linejoin="round" /><polyline points="228.56,383.47 262.33,407.07 266.88,408.03 270.21,411.84" fill="none" stroke="#bcbcbc" stroke-width="8" stroke-linecap="round" stroke-linejoin="round" /><polyline points="86.77,601.41 91.23,603.12 110.60,609.46 155.55,626.70 158.07,629.22 159.25,631.09" fill="none" stroke="#bcbcbc" stroke-width="8" stroke-linecap="round" stroke-linejoin="round" /><polyline points="170.52,1044.36 173.58,1036.38 188.69,995.38 199.37,964.41 201.59,963.39" fill="none" stroke="#bcbcbc" stroke-width="8" stroke-linecap="round" stroke-linejoin="round" /><polyline points="-43.06,992.37 -40.68,987.10 -40.44,986.58 -36.36,972.89 -29.68,950.37 -27.97,944.60 -26.64,940.13 -26.46,937.52 -26.73,931.74" fill="none" stroke="#bcbcbc" stroke-width="8" stroke-linecap="round" stroke-linejoin="round" /><polyline points="234.66,653.49 230.82,654.28 222.14,652.73 220.80,649.15 205.76,643.42 202.20,644.35 188.63,639.36 186.61,640.78" fill="none" stroke="#bcbcbc" stroke-width="8" stroke-linecap="round" stroke-linejoin="round" /><polyline points="212.32,188.19 219.14,189.86 222.91,190.51 312.57,206.06" fill="none" stroke="#bcbcbc" stroke-width="8" stroke-linecap="round" stroke-linejoin="round" /><polyline points="142.64,1019.39 146.37,1008.87 153.61,988.44 158.30,979.73 165.04,960.86 167.73,953.33" fill="none" stroke="#bcbcbc" stroke-width="8" stroke-linecap="round" stroke-linejoin="round" /><polyline points="-348.62,611.24 -355.12,610.94 -356.74,612.92 -368.06,626.67 -407.61,672.35 -413.17,678.78" fill="none" stroke="#bcbcbc" stroke-width="8" stroke-linecap="round" stroke-linejoin="round" /><polyline points="-1.74,650.37 -4.60,656.72 -4.95,657.48 -14.91,683.46 -24.95,712.05 -27.63,719.68 -29.14,723.61" fill="none" stroke="#bcbcbc" stroke-width="8" stroke-linecap="round" stroke-linejoin="round" /><polyline points="144.36,358.52 147.52,362.81 149.78,368.71 153.29,377.19 158.94,390.51 163.93,402.48 169.67,415.62 173.93,425.74 174.56,427.19 174.59,427.28 178.02,435.29 179.04,437.56 180.02,439.73 181.04,441.76 181.82,443.82 182.04,446.53" fill="none" stroke="#bcbcbc" stroke-width="8" stroke-linecap="round" stroke-linejoin="round" /><polyline points="-97.87,778.41 -96.21,777.50 -93.89,775.66 -92.73,773.27 -77.35,714.92 -76.88,711.63 -75.01,705.62" fill="none" stroke="#bcbcbc" stroke-width="8" stroke-linecap="round" stroke-linejoin="round" /><polyline points="440.18,687.09 442.36,694.02 443.90,701.30 440.91,729.04 437.45,749.90 435.57,757.02 435.39,757.66 433.74,761.50 431.49,765.57 426.22,772.23 428.77,785.25 420.52,813.20 415.97,828.63 406.65,853.89 393.01,884.65 376.36,914.13 371.15,923.71 361.75,939.45 324.17,992.79 315.94,1003.88 284.06,1045.55 265.76,1066.37 240.16,1092.40 237.79,1092.64 232.00,1097.37" fill="none" stroke="#bcbcbc" stroke-width="8" stroke-linecap="round" stroke-linejoin="round" /><polyline points="-23.47,1143.32 -12.98,1110.79 -11.26,1105.42 -8.93,1102.03 -3.92,1087.00 -2.29,1081.89 18.40,1017.09 20.48,1010.58 22.20,1004.85 46.62,927.99" fill="none" stroke="#bcbcbc" stroke-width="8" stroke-linecap="round" stroke-linejoin="round" /><polyline points="222.25,538.27 231.32,528.36 233.99,525.14 252.31,499.19" fill="none" stroke="#bcbcbc" stroke-width="8" stroke-linecap="round" stroke-linejoin="round" /><polyline points="41.01,542.20 65.98,550.89 67.36,553.13 74.45,555.51 78.66,556.95 98.79,563.75" fill="none" stroke="#bcbcbc" stroke-width="8" stroke-linecap="round" stroke-linejoin="round" /><polyline points="258.66,369.38 270.21,411.84 283.58,461.86 285.61,466.02 285.93,470.78 294.99,487.71 319.46,533.34 324.81,541.24 326.36,543.55 362.92,611.90 379.72,627.17 382.07,630.22 385.40,633.06 417.30,660.34 419.46,662.19 425.19,665.23" fill="none" stroke="#bcbcbc" stroke-width="8" stroke-linecap="round" stroke-linejoin="round" /><polyline points="134.59,1150.23 214.15,1104.01 228.31,1096.77 232.00,1097.37" fill="none" stroke="#bcbcbc" stroke-width="8" stroke-linecap="round" stroke-linejoin="round" /><polyline points="220.85,1084.11 225.79,1078.24 270.10,989.81 273.04,984.01 275.49,978.27 289.80,942.87 294.07,932.21 306.40,894.86 314.40,846.86 315.35,839.87" fill="none" stroke="#bcbcbc" stroke-width="8" stroke-linecap="round" stroke-linejoin="round" /><polyline points="186.65,564.05 185.88,564.85 184.81,568.57 184.70,568.94 179.89,587.46 181.16,592.29 180.11,596.63 178.73,602.30 175.21,606.38 171.22,622.56 166.52,626.11 161.49,629.56 159.25,631.09" fill="none" stroke="#bcbcbc" stroke-width="8" stroke-linecap="round" stroke-linejoin="round" /><polyline points="-1.74,650.37 0.31,645.13 12.60,613.61 15.28,606.73 17.49,601.07 33.20,560.82 40.27,543.99 41.01,542.20 46.51,528.91 58.84,498.29 63.36,485.25 64.37,482.26 65.72,478.87" fill="none" stroke="#bcbcbc" stroke-width="8" stroke-linecap="round" stroke-linejoin="round" /><polyline points="135.83,459.31 138.21,466.38 216.23,533.03 258.80,570.08 322.39,625.36 327.94,629.80 330.43,631.36 341.47,641.37 356.20,653.94 389.62,682.45 400.42,691.73 407.58,700.30" fill="none" stroke="#bcbcbc" stroke-width="8" stroke-linecap="round" stroke-linejoin="round" /><polyline points="264.83,344.46 268.79,341.92 292.23,332.18 297.05,327.11" fill="none" stroke="#bcbcbc" stroke-width="8" stroke-linecap="round" stroke-linejoin="round" /><polyline points="291.91,937.60 259.54,928.06 200.95,910.83" fill="none" stroke="#bcbcbc" stroke-width="8" stroke-linecap="round" stroke-linejoin="round" /><polyline points="187.43,249.06 191.85,252.11 335.92,284.17" fill="none" stroke="#bcbcbc" stroke-width="8" stroke-linecap="round" stroke-linejoin="round" /><polyline points="365.38,723.44 357.94,706.87 341.42,667.46 340.18,664.33 337.36,657.14 326.71,630.03 326.04,628.27" fill="none" stroke="#bcbcbc" stroke-width="8" stroke-linecap="round" stroke-linejoin="round" /><polyline points="144.36,358.52 136.36,356.24 130.48,354.49 118.53,350.94 112.46,349.21 108.99,348.25 104.45,346.95" fill="none" stroke="#bcbcbc" stroke-width="8" stroke-linecap="round" stroke-linejoin="round" /><polyline points="-64.19,575.29 -64.59,573.96 -64.97,573.04 -66.62,568.94 -73.00,554.05 -79.07,538.92 -80.38,535.35 -81.89,531.24 -82.97,527.87 -84.76,522.83 -84.94,522.30 -90.75,507.99 -101.41,481.09 -103.81,479.72 -105.51,475.36 -108.91,463.54 -114.73,448.90 -115.99,445.57" fill="none" stroke="#bcbcbc" stroke-width="8" stroke-linecap="round" stroke-linejoin="round" /><polyline points="-12.98,1110.79 -6.93,1112.64 12.66,1118.61 18.80,1120.48" fill="none" stroke="#bcbcbc" stroke-width="8" stroke-linecap="round" stroke-linejoin="round" /><polyline points="352.80,351.51 353.94,346.89 353.48,345.14 352.92,343.02 349.34,329.92 341.37,302.22 337.16,288.06 335.92,284.17 324.80,244.20 318.80,222.64 312.57,206.06 306.94,191.10 301.34,180.82 295.90,175.39 254.12,124.33 251.03,120.69 248.98,117.34" fill="none" stroke="#bcbcbc" stroke-width="8" stroke-linecap="round" stroke-linejoin="round" /><polyline points="182.04,446.53 179.89,447.35 175.91,448.45 175.51,448.56 158.87,452.82 139.74,458.21 135.83,459.31 134.09,459.86 129.49,461.34 125.57,462.43 108.41,467.20 80.19,475.22 69.68,477.88 65.72,478.87 46.91,483.49 35.30,486.72 10.70,493.59 -13.61,500.45 -16.43,501.23 -36.74,506.87 -46.12,509.47 -50.85,511.71 -59.81,516.15 -77.60,525.18 -78.84,525.81 -82.97,527.87 -85.49,529.14 -89.01,530.98 -101.51,537.53 -124.29,550.32 -143.31,560.28 -146.04,561.71 -149.67,561.94 -151.86,563.10 -152.29,563.33 -172.93,574.64 -177.26,574.62 -182.22,577.22 -183.95,578.13 -185.41,578.89 -188.86,580.70 -191.58,586.90 -203.26,593.16 -206.98,595.15 -211.00,597.33 -227.25,606.18 -235.65,610.75 -239.89,611.97" fill="none" stroke="#bcbcbc" stroke-width="8" stroke-linecap="round" stroke-linejoin="round" /><polyline points="415.97,828.63 407.30,829.43 380.20,831.91 378.98,832.02 377.25,832.18 374.46,832.44 348.19,834.85 339.05,834.00 328.41,836.67 319.89,838.76 315.35,839.87 304.07,840.30 294.31,839.80 289.33,839.27 285.10,837.99 281.98,836.27 270.36,828.05 242.14,808.66 239.48,806.86 236.77,805.02 234.74,803.06" fill="none" stroke="#bcbcbc" stroke-width="8" stroke-linecap="round" stroke-linejoin="round" /><polyline points="-223.27,501.32 -213.03,521.38 -211.48,527.11 -202.85,543.57 -199.29,548.28 -184.87,576.33 -183.95,578.13" fill="none" stroke="#bcbcbc" stroke-width="8" stroke-linecap="round" stroke-linejoin="round" /><polyline points="90.57,679.64 89.04,683.86 88.60,685.17 86.61,691.23 73.94,726.58 67.65,744.14 67.43,744.74 64.91,750.20 63.46,753.44" fill="none" stroke="#bcbcbc" stroke-width="8" stroke-linecap="round" stroke-linejoin="round" /><polyline points="258.66,369.38 257.25,366.38 253.56,365.89 241.62,368.63 239.19,368.32 237.29,365.77 233.91,350.23 252.22,347.39 260.69,344.89 264.83,344.46 269.29,360.33" fill="none" stroke="#bcbcbc" stroke-width="8" stroke-linecap="round" stroke-linejoin="round" /><polyline points="324.81,541.24 329.52,538.59 353.21,524.32 359.53,520.55 370.61,513.94 388.84,502.16 393.09,499.10 425.06,479.27" fill="none" stroke="#bcbcbc" stroke-width="8" stroke-linecap="round" stroke-linejoin="round" /><polyline points="436.56,634.92 428.47,632.51 423.78,628.66 405.82,613.11 405.21,612.57 400.87,608.69 398.31,604.17 353.21,524.32" fill="none" stroke="#bcbcbc" stroke-width="8" stroke-linecap="round" stroke-linejoin="round" /><polyline points="-72.51,628.59 -1.74,650.37 4.04,652.20 56.85,668.94 57.95,669.29 65.87,671.80 69.76,673.04 74.81,674.42 85.24,677.95 90.57,679.64 95.37,681.16 134.67,693.63 176.17,706.67 179.60,707.75 184.35,705.41" fill="none" stroke="#bcbcbc" stroke-width="8" stroke-linecap="round" stroke-linejoin="round" /><polyline points="135.59,279.14 166.25,250.97 171.44,246.20" fill="none" stroke="#bcbcbc" stroke-width="8" stroke-linecap="round" stroke-linejoin="round" /><polyline points="-377.79,733.73 -265.29,745.79" fill="none" stroke="#bcbcbc" stroke-width="8" stroke-linecap="round" stroke-linejoin="round" /><polyline points="-38.43,419.72 -14.78,411.26 9.61,402.44 24.76,396.55 71.03,379.72 84.45,375.08 87.26,374.11 90.62,372.95 94.40,371.65 94.86,371.49 102.48,368.43 105.79,367.10" fill="none" stroke="#bcbcbc" stroke-width="8" stroke-linecap="round" stroke-linejoin="round" /><polyline points="120.38,991.93 142.64,1019.39 156.26,1033.11 162.16,1037.36 170.52,1044.36 178.36,1050.94 185.10,1057.52 185.27,1060.86" fill="none" stroke="#bcbcbc" stroke-width="8" stroke-linecap="round" stroke-linejoin="round" /><polyline points="144.36,358.52 153.08,336.65 167.20,300.64 187.43,249.06 197.43,224.62 212.32,188.19 224.54,158.34 226.72,154.38 237.47,136.82 238.16,135.68 242.09,127.95 248.98,117.34 252.83,111.41 258.28,103.03" fill="none" stroke="#bcbcbc" stroke-width="8" stroke-linecap="round" stroke-linejoin="round" /><polyline points="-61.45,943.22 -62.88,944.36 -63.83,945.72 -65.75,951.40 -67.08,955.50 -73.23,973.88 -74.07,976.53 -74.60,978.17 -80.24,976.56 -93.98,971.95 -107.59,967.39 -118.11,966.79" fill="none" stroke="#bcbcbc" stroke-width="8" stroke-linecap="round" stroke-linejoin="round" /><polyline points="-330.45,1071.13 -308.02,1013.19 -305.53,1006.88 -303.29,1000.81 -300.58,993.47 -297.27,981.92 -293.81,967.57 -292.39,957.29 -291.36,949.82 -289.91,944.31 -284.63,902.88 -278.46,850.60 -275.27,825.68 -271.71,796.40 -265.29,745.79 -264.27,737.19 -257.79,684.26 -257.78,681.31 -256.35,665.61 -252.21,632.44 -251.18,626.65 -250.09,623.41 -248.40,619.83 -246.76,617.06 -243.13,613.13 -239.88,612.01" fill="none" stroke="#bcbcbc" stroke-width="8" stroke-linecap="round" stroke-linejoin="round" /><polyline points="159.25,631.09 160.48,633.04 164.60,639.46 170.75,649.33 172.24,651.69 174.69,649.82 186.61,640.78" fill="none" stroke="#bcbcbc" stroke-width="8" stroke-linecap="round" stroke-linejoin="round" /><polyline points="-64.19,575.29 -66.34,578.42 -85.68,587.86 -99.88,605.91 -115.20,615.40 -125.68,623.32 -135.68,631.48 -140.81,636.15 -149.87,647.64 -159.99,662.15 -161.66,664.84" fill="none" stroke="#bcbcbc" stroke-width="8" stroke-linecap="round" stroke-linejoin="round" /><polyline points="-43.75,588.24 -44.59,590.10 -46.42,592.78 -49.88,597.05 -70.31,622.85 -81.12,651.96 -135.66,631.45" fill="none" stroke="#bcbcbc" stroke-width="8" stroke-linecap="round" stroke-linejoin="round" /><polyline points="-125.68,623.32 -127.80,616.92 -136.92,589.29 -140.47,583.83 -146.40,566.03 -146.91,564.50 -146.04,561.71 -147.46,557.17 -175.98,466.10" fill="none" stroke="#bcbcbc" stroke-width="8" stroke-linecap="round" stroke-linejoin="round" /><polyline points="208.50,126.40 231.04,127.00 232.09,127.03 236.41,127.15 242.09,127.95" fill="none" stroke="#bcbcbc" stroke-width="8" stroke-linecap="round" stroke-linejoin="round" /><polyline points="92.56,860.71 84.86,860.62 19.70,869.37 15.00,869.86 9.63,870.43 -21.55,873.72 -63.57,878.16 -85.84,880.51 -98.16,881.81 -108.16,883.02 -113.30,883.65 -119.09,884.35 -147.04,887.75 -153.74,888.56 -174.38,890.82 -284.63,902.88" fill="none" stroke="#bcbcbc" stroke-width="8" stroke-linecap="round" stroke-linejoin="round" /><polyline points="-3.92,1087.00 -9.70,1085.14 -36.66,1076.46 -42.11,1074.70 -46.84,1073.18 -75.41,1064.00 -81.04,1062.19 -88.49,1059.79 -133.97,1045.15 -139.08,1043.51" fill="none" stroke="#bcbcbc" stroke-width="8" stroke-linecap="round" stroke-linejoin="round" /><polyline points="108.82,541.02 124.51,545.91 181.86,563.62 182.40,563.79 186.65,564.05" fill="none" stroke="#bcbcbc" stroke-width="8" stroke-linecap="round" stroke-linejoin="round" /><polyline points="270.21,411.84 348.23,413.21" fill="none" stroke="#bcbcbc" stroke-width="8" stroke-linecap="round" stroke-linejoin="round" /><polyline points="232.00,1097.37 220.85,1084.11 216.17,1078.67 212.15,1074.91 206.80,1070.91 195.86,1064.35 185.27,1060.86 163.73,1054.21 146.11,1048.62 156.26,1033.11" fill="none" stroke="#bcbcbc" stroke-width="8" stroke-linecap="round" stroke-linejoin="round" /><polyline points="120.38,991.93 104.85,972.76 101.89,969.11 86.25,947.56 82.71,940.98 83.56,933.14 88.27,933.09 99.91,935.33 117.61,938.74" fill="none" stroke="#bcbcbc" stroke-width="8" stroke-linecap="round" stroke-linejoin="round" /><polyline points="-82.79,838.32 -79.92,844.48 -63.57,878.16 -39.25,928.23 -36.14,934.61" fill="none" stroke="#bcbcbc" stroke-width="8" stroke-linecap="round" stroke-linejoin="round" /><polyline points="-344.76,990.84 -338.91,993.24 -311.51,1004.44 -305.53,1006.88 -299.23,1009.46 -266.98,1022.65 -261.14,1025.04" fill="none" stroke="#bcbcbc" stroke-width="8" stroke-linecap="round" stroke-linejoin="round" /><polyline points="-69.33,788.39 -12.24,813.37" fill="none" stroke="#bcbcbc" stroke-width="8" stroke-linecap="round" stroke-linejoin="round" /><polyline points="186.65,564.05 195.35,564.51 195.90,565.00 199.80,568.46 205.54,573.58 206.59,575.64 226.36,592.95 227.82,595.71 241.72,607.98 245.21,609.04 256.02,618.51 258.44,619.62 274.75,633.45 278.38,636.67 280.38,639.85" fill="none" stroke="#bcbcbc" stroke-width="8" stroke-linecap="round" stroke-linejoin="round" /><polyline points="-360.87,788.45 -271.71,796.40" fill="none" stroke="#bcbcbc" stroke-width="8" stroke-linecap="round" stroke-linejoin="round" /><polyline points="-161.80,1120.48 -159.03,1114.60 -158.32,1111.98 -154.45,1097.70 -140.43,1048.24 -139.08,1043.51 -137.66,1038.31 -131.31,1015.08 -120.58,975.84 -118.11,966.79" fill="none" stroke="#bcbcbc" stroke-width="8" stroke-linecap="round" stroke-linejoin="round" /><polyline points="-82.79,838.32 -69.33,788.39 -97.87,778.41 -105.34,782.82 -108.75,785.41 -111.27,788.82 -113.04,793.33 -119.61,817.59 -114.31,820.29 -108.96,821.59 -97.13,824.67 -88.28,827.49 -82.79,838.32" fill="none" stroke="#bcbcbc" stroke-width="8" stroke-linecap="round" stroke-linejoin="round" /><polyline points="-119.61,817.59 -125.86,816.72 -271.71,796.40" fill="none" stroke="#bcbcbc" stroke-width="8" stroke-linecap="round" stroke-linejoin="round" /><polyline points="117.61,938.74 131.14,941.70 167.73,953.33 177.96,956.56 202.24,963.58 226.70,970.63 244.81,975.86 273.77,984.23 279.76,985.96 294.37,990.86 318.43,997.27 320.56,997.66" fill="none" stroke="#bcbcbc" stroke-width="8" stroke-linecap="round" stroke-linejoin="round" /><polyline points="134.77,1150.12 129.84,1151.36 124.50,1166.24 116.22,1163.89 78.59,1151.06 74.06,1150.10 63.99,1149.37 18.42,1149.56 8.37,1148.28 -14.32,1144.81 -23.47,1143.32 -88.37,1132.85 -113.51,1128.84 -161.44,1120.54 -169.18,1119.00 -277.35,1088.77 -284.18,1086.85 -330.45,1071.13 -341.84,1067.09 -370.28,1055.30 -386.48,1049.17" fill="none" stroke="#bcbcbc" stroke-width="8" stroke-linecap="round" stroke-linejoin="round" /><polyline points="233.91,350.23 229.23,349.26 166.71,356.65 144.36,358.52" fill="none" stroke="#bcbcbc" stroke-width="8" stroke-linecap="round" stroke-linejoin="round" /><polyline points="117.61,938.74 119.80,935.07 132.92,901.37 147.58,850.42 151.32,839.45 153.32,836.46 167.48,791.03 168.18,785.60 168.71,782.05" fill="none" stroke="#bcbcbc" stroke-width="8" stroke-linecap="round" stroke-linejoin="round" /><polyline points="182.04,446.53 183.54,445.96 185.56,444.35 188.64,440.75 228.56,383.47 239.19,368.32" fill="none" stroke="#bcbcbc" stroke-width="8" stroke-linecap="round" stroke-linejoin="round" /><polyline points="359.72,656.96 360.54,654.61 380.60,631.00 382.07,630.22 385.56,625.45 397.23,612.04 400.87,608.69" fill="none" stroke="#bcbcbc" stroke-width="8" stroke-linecap="round" stroke-linejoin="round" /><polyline points="377.25,832.18 376.98,829.02 376.76,826.58 375.70,821.90 374.44,818.85 372.86,810.85 372.72,807.95 371.65,801.47 366.88,798.97 363.06,800.43 356.23,802.07 350.82,802.91 345.63,804.16 338.47,805.80 335.20,806.54" fill="none" stroke="#bcbcbc" stroke-width="8" stroke-linecap="round" stroke-linejoin="round" /><polyline points="-149.96,716.23 -135.36,682.01 -134.55,679.79" fill="none" stroke="#bcbcbc" stroke-width="8" stroke-linecap="round" stroke-linejoin="round" /><polyline points="234.66,653.49 241.69,650.76 245.37,649.34 248.21,646.46 259.94,643.57 263.87,644.57 272.36,642.38 278.84,640.72 280.38,639.85 286.66,638.32 318.76,630.45 326.04,628.27" fill="none" stroke="#bcbcbc" stroke-width="8" stroke-linecap="round" stroke-linejoin="round" /><polyline points="-61.45,943.22 -46.31,937.72 -41.24,936.17 -36.14,934.61 -26.73,931.74 -19.41,930.69 5.59,927.95 10.62,927.68 32.99,927.87 46.62,927.99 51.74,927.72 59.95,928.55 62.52,928.92 67.75,929.67 83.56,933.14" fill="none" stroke="#bcbcbc" stroke-width="8" stroke-linecap="round" stroke-linejoin="round" /><polyline points="10.70,493.59 8.19,485.11 -1.13,453.60 -12.44,417.67 -14.78,411.26 -17.15,405.25 -20.15,396.59" fill="none" stroke="#bcbcbc" stroke-width="8" stroke-linecap="round" stroke-linejoin="round" /><polyline points="-16.40,1001.63 -14.41,995.34 5.72,931.86 5.59,927.95" fill="none" stroke="#bcbcbc" stroke-width="8" stroke-linecap="round" stroke-linejoin="round" /><polyline points="10.62,927.68 14.60,874.22 15.00,869.86 15.61,864.79 15.62,864.56 15.88,858.36 17.21,841.53 17.96,833.70 18.99,824.79 19.92,818.39 20.76,814.36 21.82,811.32 23.89,804.46 28.16,790.19 33.60,771.77 39.60,752.93 40.82,749.08 41.80,746.30" fill="none" stroke="#bcbcbc" stroke-width="8" stroke-linecap="round" stroke-linejoin="round" /><polyline points="-119.61,817.59 -120.67,822.33 -120.48,823.84 -113.99,877.92 -113.30,883.65 -113.60,889.54 -115.30,923.17 -116.01,937.23 -116.38,944.47 -117.03,957.39 -117.37,964.12 -118.11,966.79" fill="none" stroke="#bcbcbc" stroke-width="8" stroke-linecap="round" stroke-linejoin="round" /><polyline points="-149.96,716.23 -173.57,709.21 -176.57,707.28 -191.27,703.00 -195.40,703.04 -213.86,697.48 -216.85,695.28 -233.65,690.18 -254.27,684.56 -254.37,684.56 -257.79,684.26" fill="none" stroke="#bcbcbc" stroke-width="8" stroke-linecap="round" stroke-linejoin="round" /><polyline points="280.38,639.85 281.20,640.93 284.62,646.03 290.95,655.47 296.91,661.44 308.37,674.30 306.43,686.19 305.45,690.64 304.08,692.53 306.95,696.78 311.40,705.92 320.27,723.05 324.65,731.49 327.37,739.07 328.59,742.59" fill="none" stroke="#bcbcbc" stroke-width="8" stroke-linecap="round" stroke-linejoin="round" /><polyline points="340.18,664.33 336.89,665.36 315.21,672.10 312.10,673.10 308.37,674.30" fill="none" stroke="#bcbcbc" stroke-width="8" stroke-linecap="round" stroke-linejoin="round" /><polyline points="184.35,705.41 191.14,703.21 240.36,678.08 246.94,674.86 270.14,668.16 292.64,661.83 296.91,661.44" fill="none" stroke="#bcbcbc" stroke-width="8" stroke-linecap="round" stroke-linejoin="round" /><polyline points="189.72,736.53 246.46,710.12 248.85,708.54 254.40,706.93 292.21,695.92 297.95,693.73 304.08,692.53" fill="none" stroke="#bcbcbc" stroke-width="8" stroke-linecap="round" stroke-linejoin="round" /><polyline points="178.14,182.88 201.11,185.72 203.42,186.00 212.32,188.19" fill="none" stroke="#bcbcbc" stroke-width="8" stroke-linecap="round" stroke-linejoin="round" /><polyline points="374.43,416.44 378.51,415.58 393.73,423.05 395.73,425.03 424.31,473.40 425.06,479.27 428.77,482.36 428.18,484.50 428.09,487.99 428.61,492.86 436.18,523.97 436.85,545.51 437.91,579.91 439.69,626.20 432.44,646.38 427.77,658.68 420.95,676.01 418.98,681.02 417.70,682.42 415.64,695.84" fill="none" stroke="#bcbcbc" stroke-width="8" stroke-linecap="round" stroke-linejoin="round" /><polyline points="427.26,777.54 420.31,774.52 402.95,762.40 380.04,746.30 367.43,736.11 358.93,727.00" fill="none" stroke="#bcbcbc" stroke-width="8" stroke-linecap="round" stroke-linejoin="round" /><polyline points="146.11,1048.62 139.28,1046.45 128.21,1042.94 122.92,1041.27 116.72,1039.30 108.87,1036.81 101.78,1034.56 94.77,1032.34 63.51,1022.42 58.04,1020.68 51.24,1018.53 49.74,1018.05 31.86,1013.33 26.81,1012.11 20.48,1010.58 13.86,1008.97 -10.00,1003.18 -16.40,1001.63 -23.28,999.24 -37.65,994.25 -43.06,992.37 -47.90,990.80 -70.40,982.80 -73.24,981.11 -74.60,978.17" fill="none" stroke="#bcbcbc" stroke-width="8" stroke-linecap="round" stroke-linejoin="round" /><polyline points="248.85,708.54 247.19,702.60 242.26,684.89 240.36,678.08 237.61,672.99 237.36,672.04 235.74,666.05 237.62,663.39 235.36,655.83 234.66,653.49" fill="none" stroke="#bcbcbc" stroke-width="8" stroke-linecap="round" stroke-linejoin="round" /><polyline points="240.59,491.81 245.29,489.60 270.94,475.46 285.61,466.02 295.95,458.97 298.23,457.27 306.56,451.48 315.18,445.11 320.64,441.13 327.15,436.37 349.79,426.16 352.72,426.31 357.01,424.28 374.44,416.44" fill="none" stroke="#bcbcbc" stroke-width="8" stroke-linecap="round" stroke-linejoin="round" /><polyline points="-43.75,588.24 -40.05,589.74 -37.60,590.49 8.27,604.58 15.28,606.73" fill="none" stroke="#bcbcbc" stroke-width="8" stroke-linecap="round" stroke-linejoin="round" /><polyline points="-371.43,691.41 -404.20,681.49" fill="none" stroke="#bcbcbc" stroke-width="8" stroke-linecap="round" stroke-linejoin="round" /><polyline points="157.99,229.17 166.12,239.47 167.33,241.01 171.44,246.20 176.11,246.75 185.72,247.88 187.43,249.06" fill="none" stroke="#bcbcbc" stroke-width="8" stroke-linecap="round" stroke-linejoin="round" /><polyline points="440.18,687.09 427.30,689.50 414.10,696.67 401.86,703.49 390.29,709.27 376.30,716.87 366.17,723.02 346.15,733.76 268.01,773.07 247.76,781.99 234.37,787.78 227.74,789.95 222.25,790.98 213.27,791.52 200.49,789.71 168.59,782.05 123.31,771.50 63.75,753.53 41.80,746.30 5.87,735.20 -28.50,723.87 -78.90,704.09 -104.10,693.23 -134.49,679.73 -184.90,652.11 -196.71,644.27 -226.62,625.46 -239.16,612.92 -257.97,588.56 -288.96,556.60 -301.14,545.87" fill="none" stroke="#bcbcbc" stroke-width="8" stroke-linecap="round" stroke-linejoin="round" /><polyline points="195.86,1064.35 196.38,1061.40 198.29,1056.59 216.16,1014.76 222.92,999.08 230.87,979.54 232.81,972.39" fill="none" stroke="#bcbcbc" stroke-width="8" stroke-linecap="round" stroke-linejoin="round" /><polyline points="-147.04,887.75 -167.34,877.92 -213.54,855.56 -270.21,828.13 -275.27,825.68" fill="none" stroke="#bcbcbc" stroke-width="8" stroke-linecap="round" stroke-linejoin="round" /><polyline points="186.65,564.05 191.78,558.80 205.41,544.85 216.23,533.03" fill="none" stroke="#bcbcbc" stroke-width="8" stroke-linecap="round" stroke-linejoin="round" /><polyline points="-206.98,595.15 -212.61,587.69 -239.00,552.74 -276.68,522.25" fill="none" stroke="#bcbcbc" stroke-width="8" stroke-linecap="round" stroke-linejoin="round" /><polyline points="-370.48,1055.22 -365.33,1043.00 -348.94,1002.15 -346.96,996.79 -344.76,990.84 -343.92,988.70 -343.70,985.34 -341.60,953.58 -341.00,944.47" fill="none" stroke="#bcbcbc" stroke-width="8" stroke-linecap="round" stroke-linejoin="round" /><polyline points="-381.65,726.89 -371.43,691.41 -357.94,644.63 -356.26,638.83 -354.41,632.25 -350.25,617.52 -349.81,615.98 -348.62,611.24 -346.72,605.88 -346.26,604.59 -343.86,598.64 -339.16,588.26 -337.75,585.27" fill="none" stroke="#bcbcbc" stroke-width="8" stroke-linecap="round" stroke-linejoin="round" /><polyline points="-356.26,638.83 -335.57,644.13 -291.74,655.39 -266.77,663.17 -256.35,665.61" fill="none" stroke="#bcbcbc" stroke-width="8" stroke-linecap="round" stroke-linejoin="round" /><polyline points="69.68,477.88 70.38,473.57 71.09,469.10 74.12,454.14 81.71,419.33 87.94,388.19 89.07,381.72 90.62,372.95 90.62,372.94" fill="none" stroke="#bcbcbc" stroke-width="8" stroke-linecap="round" stroke-linejoin="round" /><polyline points="8.41,1148.28 17.65,1124.72 18.80,1120.48 55.46,1027.40 58.04,1020.68 60.12,1014.98 82.03,951.24 86.25,947.56" fill="none" stroke="#bcbcbc" stroke-width="8" stroke-linecap="round" stroke-linejoin="round" /><polyline points="134.09,459.86 134.09,459.85 132.79,453.03 132.59,452.21 129.42,439.32 129.42,439.28 127.26,430.55 118.11,399.19 116.96,395.83 110.78,379.03 108.77,374.01 107.48,370.78 105.80,367.10 105.79,367.10 105.79,367.08 104.57,353.58 104.45,346.95" fill="none" stroke="#bcbcbc" stroke-width="8" stroke-linecap="round" stroke-linejoin="round" /><polyline points="120.38,991.93 118.02,994.47 114.52,998.64 104.64,1026.50 101.78,1034.56" fill="none" stroke="#bcbcbc" stroke-width="8" stroke-linecap="round" stroke-linejoin="round" /><polyline points="-43.75,588.24 -42.40,584.58 -42.09,583.73 -35.68,565.81 -33.27,558.26 -13.61,500.45" fill="none" stroke="#bcbcbc" stroke-width="8" stroke-linecap="round" stroke-linejoin="round" /><polyline points="57.95,669.29 59.96,663.96 65.39,649.53 67.69,643.43 69.24,639.30 73.60,627.72 76.48,620.07 76.87,619.04 83.85,600.50 86.77,601.41 88.35,597.10 91.14,589.49 90.61,586.03 98.03,565.83 98.79,563.75 100.20,562.46 101.38,561.37 108.82,541.02 109.90,535.45 120.58,505.78 123.11,503.80 128.24,489.26 127.33,487.03 131.83,473.46 129.49,461.34" fill="none" stroke="#bcbcbc" stroke-width="8" stroke-linecap="round" stroke-linejoin="round" /><polyline points="248.98,117.34 245.99,112.43 230.27,86.63" fill="none" stroke="#bcbcbc" stroke-width="8" stroke-linecap="round" stroke-linejoin="round" /><polyline points="298.23,457.27 370.39,503.67 370.41,503.70 370.41,503.71 383.76,505.44" fill="none" stroke="#bcbcbc" stroke-width="8" stroke-linecap="round" stroke-linejoin="round" /><polyline points="269.29,360.33 346.07,398.87 348.39,400.60 348.23,413.21 349.79,426.16" fill="none" stroke="#bcbcbc" stroke-width="8" stroke-linecap="round" stroke-linejoin="round" /><polyline points="122.92,1041.27 120.16,1049.69 108.98,1083.81 89.95,1141.27 88.60,1145.35 87.23,1149.48 86.85,1153.88" fill="none" stroke="#bcbcbc" stroke-width="8" stroke-linecap="round" stroke-linejoin="round" /><polyline points="339.05,834.00 339.51,829.72 339.61,825.73 339.58,825.59 336.86,813.83 335.74,808.91 335.20,806.54 334.65,804.12 331.67,790.96 325.83,764.67 321.59,748.86 320.99,746.41" fill="none" stroke="#bcbcbc" stroke-width="8" stroke-linecap="round" stroke-linejoin="round" /><polyline points="-42.11,1074.70 -40.21,1069.29 -18.83,1008.53 -16.40,1001.63" fill="none" stroke="#bcbcbc" stroke-width="8" stroke-linecap="round" stroke-linejoin="round" /><polyline points="437.91,579.91 431.62,578.13 388.90,512.58 383.76,505.44" fill="none" stroke="#bcbcbc" stroke-width="8" stroke-linecap="round" stroke-linejoin="round" /><polyline points="-264.27,737.19 -108.60,774.49 -97.87,778.41" fill="none" stroke="#bcbcbc" stroke-width="8" stroke-linecap="round" stroke-linejoin="round" /><polyline points="226.72,154.38 287.36,176.85 295.90,175.39" fill="none" stroke="#bcbcbc" stroke-width="8" stroke-linecap="round" stroke-linejoin="round" />
    <polyline points="167.20,300.64 288.40,322.56 301.13,329.26 348.62,352.80 352.80,351.51" fill="none" stroke="#ffffff" stroke-width="16" stroke-linecap="round" stroke-linejoin="round" />
    <polyline points="167.20,300.64 288.40,322.56 301.13,329.26 348.62,352.80 352.80,351.51" fill="none" stroke="#111111" stroke-width="9" stroke-linecap="round" stroke-linejoin="round" />
    
            <g transform="translate(167.20,300.64)">
              <circle r="19" fill="#ffffff" stroke="#111111" stroke-width="4" />
              <text text-anchor="middle" dominant-baseline="central" font-family="Helvetica, Arial, sans-serif"
                font-size="18" font-weight="700" fill="#111111">1</text>
            </g>
            
            <g transform="translate(352.80,351.51)">
              <circle r="19" fill="#ffffff" stroke="#111111" stroke-width="4" />
              <text text-anchor="middle" dominant-baseline="central" font-family="Helvetica, Arial, sans-serif"
                font-size="18" font-weight="700" fill="#111111">2</text>
            </g>
            
  </g>
</svg>
