<svg xmlns="http://www.w3.org/2000/svg" width="520" height="520" viewBox="0 0 520 520">
  <rect width="100%" height="100%" fill="#ffffff" />
  <g>
    <polyline points="1188.02,-120.17 1190.77,-105.57 1208.48,18.33 1205.77,49.30" fill="none" stroke="#bcbcbc" stroke-width="8" stroke-linecap="round" stroke-linejoin="round" /><polyline points="828.04,912.32 832.32,899.15 855.01,829.38 857.68,821.16 860.39,812.52 917.44,630.60 922.03,615.97 911.52,590.09" fill="none" stroke="#bcbcbc" stroke-width="8" stroke-linecap="round" stroke-linejoin="round" /><polyline points="433.99,750.51 433.07,740.06 451.72,635.60 454.33,622.53 456.29,615.69 461.42,589.20 467.19,556.77 473.48,528.22 479.71,499.73 483.63,491.69 486.20,486.77" fill="none" stroke="#bcbcbc" stroke-width="8" stroke-linecap="round" stroke-linejoin="round" /><polyline points="542.24,13.65 537.81,0.13 491.98,-139.66 489.74,-145.52" fill="none" stroke="#bcbcbc" stroke-width="8" stroke-linecap="round" stroke-linejoin="round" /><polyline points="307.07,1243.95 308.43,1230.61 308.99,1224.49 313.98,1169.30 319.44,1120.70 320.71,1109.35 321.90,1095.74 322.03,1094.59 325.13,1067.53 327.80,1040.01 330.74,1013.46 332.72,992.79 333.55,980.04 334.28,968.26 335.58,954.98" fill="none" stroke="#bcbcbc" stroke-width="8" stroke-linecap="round" stroke-linejoin="round" /><polyline points="940.37,944.75 943.63,934.49 966.63,862.19 969.25,853.97 972.96,842.27 975.62,833.88 995.98,746.08" fill="none" stroke="#bcbcbc" stroke-width="8" stroke-linecap="round" stroke-linejoin="round" /><polyline points="850.97,-485.38 859.46,-484.08 1093.51,-448.12" fill="none" stroke="#bcbcbc" stroke-width="8" stroke-linecap="round" stroke-linejoin="round" /><polyline points="250.13,927.72 225.77,926.58 210.91,925.89 202.84,925.52 195.76,925.19 140.60,922.62 63.87,919.05 27.30,913.87 15.06,912.13 4.44,910.26 -67.49,897.56 -77.55,895.79 -79.77,895.40 -92.19,893.27 -101.74,891.64 -162.69,886.25 -174.30,885.23 -178.55,884.85 -191.73,883.93 -217.53,882.15" fill="none" stroke="#bcbcbc" stroke-width="8" stroke-linecap="round" stroke-linejoin="round" /><polyline points="604.04,857.04 608.76,843.61 651.28,725.74 702.43,577.07 705.71,567.75 707.99,561.23 709.85,555.88" fill="none" stroke="#bcbcbc" stroke-width="8" stroke-linecap="round" stroke-linejoin="round" /><polyline points="-178.55,884.85 -179.64,877.27 -179.90,869.04 -178.28,852.46 -174.58,822.20 -172.11,812.04 -168.10,775.31 -167.37,767.13 -166.20,756.61 -165.33,748.80 -163.69,739.95 -160.64,716.13 -158.53,697.91 -155.42,690.45" fill="none" stroke="#bcbcbc" stroke-width="8" stroke-linecap="round" stroke-linejoin="round" /><polyline points="-222.07,681.14 -165.36,689.06 -155.42,690.45 -149.26,691.43 -123.84,695.48 -65.26,704.82 -55.21,706.49" fill="none" stroke="#bcbcbc" stroke-width="8" stroke-linecap="round" stroke-linejoin="round" /><polyline points="821.68,-62.87 822.05,-57.72 822.81,-52.50 824.65,-48.50 828.10,-44.04 834.48,-38.23 849.59,-29.04 966.20,44.12 1038.02,140.41 1092.26,274.28 1095.80,283.12" fill="none" stroke="#bcbcbc" stroke-width="8" stroke-linecap="round" stroke-linejoin="round" /><polyline points="803.00,327.75 805.42,331.75 806.05,332.79 808.05,342.89 821.73,409.05 826.08,430.05 829.18,445.00 834.03,475.32 836.29,489.30 837.85,497.83 839.56,505.53 841.60,510.02 844.59,515.23 846.20,517.68 876.49,561.06 892.88,586.87 897.16,593.03" fill="none" stroke="#bcbcbc" stroke-width="8" stroke-linecap="round" stroke-linejoin="round" /><polyline points="-66.80,1156.13 -65.19,1146.20 -63.69,1139.02 -63.29,1138.07 -43.12,1090.11 -30.27,1058.95 -26.37,1049.08 -22.23,1038.62 -17.74,1029.62 -17.01,1027.87 -10.86,1013.00 -6.11,999.85 -2.03,987.79 0.56,979.26 3.46,968.72 6.80,954.60 9.34,943.14 12.38,927.14 13.02,923.57 15.06,912.13" fill="none" stroke="#bcbcbc" stroke-width="8" stroke-linecap="round" stroke-linejoin="round" /><polyline points="910.25,-182.94 974.55,-138.01 983.22,-136.17 989.56,-128.92" fill="none" stroke="#bcbcbc" stroke-width="8" stroke-linecap="round" stroke-linejoin="round" /><polyline points="640.25,232.02 648.75,235.29 685.64,247.36 771.23,280.18 776.03,284.97 778.28,288.54" fill="none" stroke="#bcbcbc" stroke-width="8" stroke-linecap="round" stroke-linejoin="round" /><polyline points="799.73,1075.40 805.56,1060.21 834.33,982.15 854.67,923.18 858.89,921.24" fill="none" stroke="#bcbcbc" stroke-width="8" stroke-linecap="round" stroke-linejoin="round" /><polyline points="393.03,976.42 397.57,966.39 398.02,965.39 405.79,939.34 418.51,896.45 421.77,885.47 424.30,876.95 424.64,871.98 424.13,860.98" fill="none" stroke="#bcbcbc" stroke-width="8" stroke-linecap="round" stroke-linejoin="round" /><polyline points="921.86,331.18 914.56,332.69 898.03,329.74 895.48,322.93 866.83,312.01 860.06,313.78 834.22,304.29 830.37,306.98" fill="none" stroke="#bcbcbc" stroke-width="8" stroke-linecap="round" stroke-linejoin="round" /><polyline points="879.33,-554.76 892.31,-551.58 899.49,-550.34 1070.22,-520.73" fill="none" stroke="#bcbcbc" stroke-width="8" stroke-linecap="round" stroke-linejoin="round" /><polyline points="746.64,1027.87 753.74,1007.84 767.54,968.93 776.46,952.35 789.29,916.42 794.42,902.08" fill="none" stroke="#bcbcbc" stroke-width="8" stroke-linecap="round" stroke-linejoin="round" /><polyline points="-188.81,250.74 -201.18,250.17 -204.28,253.94 -225.82,280.11 -301.13,367.10 -311.72,379.34" fill="none" stroke="#bcbcbc" stroke-width="8" stroke-linecap="round" stroke-linejoin="round" /><polyline points="471.72,325.24 466.26,337.33 465.60,338.79 446.64,388.25 427.52,442.69 422.42,457.21 419.53,464.70" fill="none" stroke="#bcbcbc" stroke-width="8" stroke-linecap="round" stroke-linejoin="round" /><polyline points="749.91,-230.45 755.94,-222.27 760.24,-211.03 766.93,-194.90 777.68,-169.53 787.19,-146.75 798.11,-121.73 806.22,-102.46 807.42,-99.69 807.49,-99.52 814.01,-84.27 815.96,-79.94 817.82,-75.82 819.77,-71.95 821.25,-68.02 821.68,-62.87" fill="none" stroke="#bcbcbc" stroke-width="8" stroke-linecap="round" stroke-linejoin="round" /><polyline points="288.68,569.03 291.83,567.31 296.24,563.80 298.45,559.25 327.75,448.15 328.63,441.88 332.21,430.44" fill="none" stroke="#bcbcbc" stroke-width="8" stroke-linecap="round" stroke-linejoin="round" /><polyline points="1313.22,395.17 1317.38,408.36 1320.30,422.22 1314.61,475.03 1308.02,514.75 1304.43,528.30 1304.10,529.52 1300.95,536.84 1296.66,544.59 1286.64,557.27 1291.49,582.06 1275.79,635.27 1267.12,664.66 1249.38,712.76 1223.40,771.33 1191.68,827.45 1181.78,845.69 1163.87,875.66 1092.32,977.21 1076.64,998.34 1015.94,1077.67 981.08,1117.32 932.33,1166.87 927.82,1167.34 916.81,1176.34" fill="none" stroke="#bcbcbc" stroke-width="8" stroke-linecap="round" stroke-linejoin="round" /><polyline points="430.34,1263.84 450.31,1201.89 453.58,1191.66 458.02,1185.22 467.56,1156.59 470.67,1146.86 510.07,1023.49 514.03,1011.08 517.30,1000.18 563.80,853.83" fill="none" stroke="#bcbcbc" stroke-width="8" stroke-linecap="round" stroke-linejoin="round" /><polyline points="898.24,111.81 915.50,92.94 920.60,86.81 955.48,37.39" fill="none" stroke="#bcbcbc" stroke-width="8" stroke-linecap="round" stroke-linejoin="round" /><polyline points="553.13,119.29 600.68,135.84 603.31,140.11 616.81,144.63 624.82,147.37 663.15,160.32" fill="none" stroke="#bcbcbc" stroke-width="8" stroke-linecap="round" stroke-linejoin="round" /><polyline points="967.57,-209.76 989.56,-128.92 1015.02,-33.69 1018.88,-25.75 1019.49,-16.69 1036.75,15.54 1083.35,102.43 1093.53,117.45 1096.48,121.85 1166.09,252.00 1198.08,281.08 1202.57,286.87 1208.90,292.28 1269.64,344.22 1273.76,347.75 1284.67,353.54" fill="none" stroke="#bcbcbc" stroke-width="8" stroke-linecap="round" stroke-linejoin="round" /><polyline points="731.32,1276.99 882.81,1188.99 909.78,1175.20 916.81,1176.34" fill="none" stroke="#bcbcbc" stroke-width="8" stroke-linecap="round" stroke-linejoin="round" /><polyline points="895.57,1151.09 904.97,1139.92 989.36,971.55 994.95,960.51 999.61,949.58 1026.87,882.17 1034.99,861.87 1058.48,790.77 1073.71,699.36 1075.52,686.05" fill="none" stroke="#bcbcbc" stroke-width="8" stroke-linecap="round" stroke-linejoin="round" /><polyline points="830.45,160.90 828.98,162.41 826.94,169.49 826.74,170.20 817.58,205.46 819.99,214.67 817.99,222.92 815.37,233.72 808.67,241.49 801.07,272.29 792.11,279.06 782.55,285.62 778.28,288.54" fill="none" stroke="#bcbcbc" stroke-width="8" stroke-linecap="round" stroke-linejoin="round" /><polyline points="471.72,325.24 475.61,315.26 499.03,255.25 504.13,242.16 508.34,231.38 538.25,154.75 551.72,122.70 553.13,119.29 563.60,93.98 587.08,35.67 595.68,10.85 597.59,5.16 600.17,-1.30" fill="none" stroke="#bcbcbc" stroke-width="8" stroke-linecap="round" stroke-linejoin="round" /><polyline points="733.68,-38.55 738.20,-25.07 886.77,101.83 967.84,172.36 1088.93,277.63 1099.50,286.08 1104.23,289.04 1125.24,308.12 1153.30,332.05 1216.95,386.32 1237.51,404.00 1251.15,420.31" fill="none" stroke="#bcbcbc" stroke-width="8" stroke-linecap="round" stroke-linejoin="round" /><polyline points="979.32,-257.21 986.86,-262.05 1031.50,-280.60 1040.67,-290.25" fill="none" stroke="#bcbcbc" stroke-width="8" stroke-linecap="round" stroke-linejoin="round" /><polyline points="1030.88,872.14 969.25,853.97 857.68,821.16" fill="none" stroke="#bcbcbc" stroke-width="8" stroke-linecap="round" stroke-linejoin="round" /><polyline points="831.93,-438.86 840.35,-433.05 1114.68,-372.01" fill="none" stroke="#bcbcbc" stroke-width="8" stroke-linecap="round" stroke-linejoin="round" /><polyline points="1170.79,464.38 1156.61,432.83 1125.15,357.79 1122.80,351.83 1117.42,338.13 1097.14,286.52 1095.86,283.18" fill="none" stroke="#bcbcbc" stroke-width="8" stroke-linecap="round" stroke-linejoin="round" /><polyline points="749.91,-230.45 734.68,-234.78 723.49,-238.11 700.74,-244.87 689.19,-248.17 682.56,-250.01 673.92,-252.48" fill="none" stroke="#bcbcbc" stroke-width="8" stroke-linecap="round" stroke-linejoin="round" /><polyline points="352.80,182.29 352.03,179.76 351.32,178.00 348.18,170.20 336.02,141.85 324.46,113.05 321.97,106.25 319.09,98.42 317.04,92.01 313.64,82.40 313.28,81.39 302.23,54.14 281.93,2.92 277.37,0.32 274.13,-7.98 267.65,-30.48 256.56,-58.36 254.17,-64.69" fill="none" stroke="#bcbcbc" stroke-width="8" stroke-linecap="round" stroke-linejoin="round" /><polyline points="450.31,1201.89 461.84,1205.42 499.14,1216.79 510.82,1220.35" fill="none" stroke="#bcbcbc" stroke-width="8" stroke-linecap="round" stroke-linejoin="round" /><polyline points="1146.83,-243.80 1149.00,-252.59 1148.12,-255.93 1147.05,-259.95 1140.24,-284.90 1125.06,-337.64 1117.05,-364.60 1114.68,-372.01 1093.51,-448.12 1082.08,-489.17 1070.22,-520.73 1059.51,-549.21 1048.84,-568.79 1038.48,-579.13 958.92,-676.35 953.04,-683.27 949.14,-689.66" fill="none" stroke="#bcbcbc" stroke-width="8" stroke-linecap="round" stroke-linejoin="round" /><polyline points="821.68,-62.87 817.58,-61.30 809.99,-59.21 809.23,-59.00 777.55,-50.90 741.11,-40.64 733.68,-38.55 730.37,-37.49 721.61,-34.68 714.13,-32.60 681.46,-23.51 627.74,-8.25 607.71,-3.18 600.17,-1.30 564.36,7.49 542.24,13.65 495.41,26.74 449.11,39.79 443.75,41.27 405.06,52.01 387.21,56.97 378.20,61.23 361.14,69.68 327.26,86.88 324.90,88.08 317.04,92.01 312.24,94.41 305.54,97.92 281.74,110.40 238.37,134.74 202.14,153.72 196.95,156.44 190.03,156.87 185.87,159.08 185.04,159.52 145.73,181.06 137.50,181.02 128.06,185.96 124.76,187.69 121.97,189.15 115.40,192.58 110.23,204.39 87.98,216.31 80.91,220.10 73.25,224.26 42.30,241.11 26.30,249.81 18.24,252.14" fill="none" stroke="#bcbcbc" stroke-width="8" stroke-linecap="round" stroke-linejoin="round" /><polyline points="1267.12,664.66 1250.60,666.17 1199.01,670.90 1196.68,671.11 1193.39,671.41 1188.07,671.90 1138.05,676.49 1120.65,674.88 1100.39,679.96 1084.16,683.94 1075.52,686.05 1054.04,686.87 1035.45,685.92 1025.98,684.92 1017.91,682.48 1011.97,679.19 989.85,663.55 936.11,626.64 931.04,623.20 925.88,619.70 922.03,615.97" fill="none" stroke="#bcbcbc" stroke-width="8" stroke-linecap="round" stroke-linejoin="round" /><polyline points="49.88,41.46 69.38,79.64 72.34,90.55 88.76,121.89 95.55,130.86 123.00,184.28 124.76,187.69" fill="none" stroke="#bcbcbc" stroke-width="8" stroke-linecap="round" stroke-linejoin="round" /><polyline points="647.49,380.98 644.57,389.00 643.75,391.50 639.94,403.05 615.82,470.36 603.84,503.78 603.43,504.93 598.62,515.31 595.86,521.49" fill="none" stroke="#bcbcbc" stroke-width="8" stroke-linecap="round" stroke-linejoin="round" /><polyline points="967.57,-209.76 964.89,-215.48 957.86,-216.41 935.12,-211.19 930.50,-211.79 926.88,-216.64 920.44,-246.24 955.30,-251.63 971.43,-256.39 979.32,-257.21 987.82,-227.00" fill="none" stroke="#bcbcbc" stroke-width="8" stroke-linecap="round" stroke-linejoin="round" /><polyline points="1093.53,117.45 1102.51,112.41 1147.60,85.24 1159.65,78.06 1180.75,65.48 1215.45,43.04 1223.55,37.22 1284.42,-0.54" fill="none" stroke="#bcbcbc" stroke-width="8" stroke-linecap="round" stroke-linejoin="round" /><polyline points="1306.31,295.82 1290.93,291.23 1281.98,283.90 1247.79,254.31 1246.62,253.27 1238.35,245.89 1233.50,237.28 1147.60,85.24" fill="none" stroke="#bcbcbc" stroke-width="8" stroke-linecap="round" stroke-linejoin="round" /><polyline points="336.95,283.77 471.72,325.24 482.72,328.73 583.29,360.61 585.39,361.27 600.45,366.05 607.86,368.40 617.49,371.03 637.34,377.76 647.49,380.98 656.63,383.87 731.47,407.62 810.48,432.44 817.02,434.49 826.08,430.05" fill="none" stroke="#bcbcbc" stroke-width="8" stroke-linecap="round" stroke-linejoin="round" /><polyline points="733.21,-381.58 791.59,-435.22 801.48,-444.30" fill="none" stroke="#bcbcbc" stroke-width="8" stroke-linecap="round" stroke-linejoin="round" /><polyline points="-244.34,483.97 -30.13,506.93" fill="none" stroke="#bcbcbc" stroke-width="8" stroke-linecap="round" stroke-linejoin="round" /><polyline points="401.86,-113.92 446.88,-130.02 493.32,-146.81 522.18,-158.03 610.28,-190.07 635.85,-198.92 641.18,-200.76 647.59,-202.96 654.78,-205.44 655.66,-205.74 670.17,-211.57 676.48,-214.11" fill="none" stroke="#bcbcbc" stroke-width="8" stroke-linecap="round" stroke-linejoin="round" /><polyline points="704.25,975.57 746.64,1027.86 772.59,1053.99 783.82,1062.08 799.73,1075.40 814.66,1087.94 827.50,1100.46 827.81,1106.83" fill="none" stroke="#bcbcbc" stroke-width="8" stroke-linecap="round" stroke-linejoin="round" /><polyline points="749.91,-230.45 766.52,-272.09 793.41,-340.64 831.93,-438.86 850.97,-485.38 879.33,-554.76 902.59,-611.59 906.75,-619.13 927.21,-652.57 928.53,-654.73 936.01,-669.45 949.14,-689.66 956.47,-700.94 966.84,-716.90" fill="none" stroke="#bcbcbc" stroke-width="8" stroke-linecap="round" stroke-linejoin="round" /><polyline points="358.01,882.84 355.29,885.02 353.49,887.61 349.83,898.41 347.30,906.21 335.59,941.21 333.98,946.26 332.98,949.39 322.24,946.31 296.08,937.54 270.16,928.85 250.13,927.72" fill="none" stroke="#bcbcbc" stroke-width="8" stroke-linecap="round" stroke-linejoin="round" /><polyline points="-154.22,1126.37 -111.50,1016.06 -106.75,1004.05 -102.48,992.49 -97.33,978.51 -91.02,956.53 -84.43,929.20 -81.73,909.63 -79.77,895.40 -77.01,884.91 -66.96,806.03 -55.21,706.49 -49.14,659.04 -42.36,603.29 -30.13,506.93 -28.19,490.55 -15.84,389.78 -15.84,384.16 -13.11,354.26 -5.23,291.10 -3.26,280.09 -1.20,273.91 2.03,267.10 5.16,261.82 12.07,254.34 18.25,252.21" fill="none" stroke="#bcbcbc" stroke-width="8" stroke-linecap="round" stroke-linejoin="round" /><polyline points="778.28,288.54 780.62,292.24 788.45,304.47 800.18,323.27 803.00,327.75 807.68,324.20 830.37,306.98" fill="none" stroke="#bcbcbc" stroke-width="8" stroke-linecap="round" stroke-linejoin="round" /><polyline points="793.41,-340.64 1024.20,-298.92 1048.44,-286.16 1138.86,-241.33 1146.83,-243.80" fill="none" stroke="#bcbcbc" stroke-width="8" stroke-linecap="round" stroke-linejoin="round" /><polyline points="391.73,206.94 390.13,210.49 386.64,215.59 380.04,223.71 341.15,272.84 320.57,328.27 216.71,289.23" fill="none" stroke="#bcbcbc" stroke-width="8" stroke-linecap="round" stroke-linejoin="round" /><polyline points="235.70,273.74 231.68,261.56 214.30,208.94 207.56,198.55 196.26,164.66 195.29,161.74 196.95,156.44 194.25,147.80 139.94,-25.60" fill="none" stroke="#bcbcbc" stroke-width="8" stroke-linecap="round" stroke-linejoin="round" /><polyline points="872.05,-672.40 914.97,-671.27 916.97,-671.21 925.19,-670.97 936.01,-669.45" fill="none" stroke="#bcbcbc" stroke-width="8" stroke-linecap="round" stroke-linejoin="round" /><polyline points="651.28,725.74 636.63,725.56 512.54,742.22 503.60,743.16 493.37,744.24 433.99,750.51 353.99,758.96 311.58,763.43 288.11,765.91 269.07,768.22 259.28,769.41 248.27,770.75 195.04,777.22 182.29,778.77 142.98,783.07 -66.96,806.03" fill="none" stroke="#bcbcbc" stroke-width="8" stroke-linecap="round" stroke-linejoin="round" /><polyline points="467.56,1156.59 456.57,1153.05 405.22,1136.52 394.84,1133.18 385.83,1130.28 331.44,1112.80 320.71,1109.35 306.53,1104.79 219.93,1076.92 210.19,1073.79" fill="none" stroke="#bcbcbc" stroke-width="8" stroke-linecap="round" stroke-linejoin="round" /><polyline points="682.25,117.04 712.12,126.35 821.33,160.07 822.35,160.39 830.45,160.90" fill="none" stroke="#bcbcbc" stroke-width="8" stroke-linecap="round" stroke-linejoin="round" /><polyline points="989.56,-128.92 1138.12,-126.31" fill="none" stroke="#bcbcbc" stroke-width="8" stroke-linecap="round" stroke-linejoin="round" /><polyline points="916.81,1176.34 895.57,1151.09 886.66,1140.73 879.01,1133.57 868.81,1125.96 847.98,1113.46 827.81,1106.83 786.80,1094.16 753.25,1083.52 772.59,1053.99" fill="none" stroke="#bcbcbc" stroke-width="8" stroke-linecap="round" stroke-linejoin="round" /><polyline points="704.25,975.57 674.68,939.07 669.05,932.13 639.27,891.09 632.52,878.56 634.14,863.65 643.12,863.56 665.28,867.82 698.99,874.31" fill="none" stroke="#bcbcbc" stroke-width="8" stroke-linecap="round" stroke-linejoin="round" /><polyline points="317.39,683.11 322.84,694.84 353.99,758.96 400.30,854.29 406.21,866.45" fill="none" stroke="#bcbcbc" stroke-width="8" stroke-linecap="round" stroke-linejoin="round" /><polyline points="-181.45,973.51 -170.31,978.07 -118.14,999.40 -106.75,1004.05 -94.76,1008.95 -33.34,1034.07 -22.23,1038.62" fill="none" stroke="#bcbcbc" stroke-width="8" stroke-linecap="round" stroke-linejoin="round" /><polyline points="343.02,588.05 451.72,635.60" fill="none" stroke="#bcbcbc" stroke-width="8" stroke-linecap="round" stroke-linejoin="round" /><polyline points="830.45,160.90 847.01,161.77 848.06,162.70 855.49,169.29 866.41,179.04 868.43,182.96 906.06,215.92 908.84,221.17 935.30,244.53 941.96,246.56 962.55,264.59 967.16,266.69 998.20,293.03 1005.11,299.15 1008.92,305.22" fill="none" stroke="#bcbcbc" stroke-width="8" stroke-linecap="round" stroke-linejoin="round" /><polyline points="-212.13,588.15 -42.36,603.29" fill="none" stroke="#bcbcbc" stroke-width="8" stroke-linecap="round" stroke-linejoin="round" /><polyline points="166.94,1220.34 172.20,1209.14 173.55,1204.16 180.93,1176.97 207.63,1082.80 210.19,1073.79 212.89,1063.90 224.99,1019.65 245.42,944.94 250.13,927.72" fill="none" stroke="#bcbcbc" stroke-width="8" stroke-linecap="round" stroke-linejoin="round" /><polyline points="317.39,683.11 343.02,588.05 288.68,569.03 274.45,577.43 267.96,582.37 263.16,588.87 259.78,597.44 247.28,643.64 257.36,648.78 267.55,651.25 290.07,657.11 306.93,662.48 317.39,683.11" fill="none" stroke="#bcbcbc" stroke-width="8" stroke-linecap="round" stroke-linejoin="round" /><polyline points="247.28,643.64 235.37,641.98 -42.36,603.29" fill="none" stroke="#bcbcbc" stroke-width="8" stroke-linecap="round" stroke-linejoin="round" /><polyline points="698.99,874.31 724.75,879.94 794.42,902.08 813.90,908.24 860.13,921.59 906.71,935.03 941.20,944.99 996.35,960.91 1007.74,964.21 1035.57,973.54 1081.39,985.74 1085.43,986.50" fill="none" stroke="#bcbcbc" stroke-width="8" stroke-linecap="round" stroke-linejoin="round" /><polyline points="731.67,1276.79 722.26,1279.15 712.10,1307.47 696.34,1302.99 624.69,1278.57 616.06,1276.73 596.87,1275.36 510.10,1275.71 490.97,1273.27 447.77,1266.66 430.34,1263.84 306.75,1243.90 258.89,1236.27 167.62,1220.46 152.88,1217.53 -53.10,1159.96 -66.10,1156.32 -154.22,1126.37 -175.89,1118.68 -230.04,1096.24 -260.91,1084.56" fill="none" stroke="#bcbcbc" stroke-width="8" stroke-linecap="round" stroke-linejoin="round" /><polyline points="920.44,-246.24 911.52,-248.07 792.48,-234.00 749.91,-230.45" fill="none" stroke="#bcbcbc" stroke-width="8" stroke-linecap="round" stroke-linejoin="round" /><polyline points="698.99,874.31 703.16,867.33 728.14,803.16 756.06,706.14 763.18,685.25 766.98,679.56 793.94,593.05 795.27,582.72 796.29,575.98" fill="none" stroke="#bcbcbc" stroke-width="8" stroke-linecap="round" stroke-linejoin="round" /><polyline points="821.68,-62.87 824.52,-63.96 828.38,-67.02 834.24,-73.87 910.25,-182.94 930.50,-211.79" fill="none" stroke="#bcbcbc" stroke-width="8" stroke-linecap="round" stroke-linejoin="round" /><polyline points="1160.00,337.80 1161.56,333.32 1199.77,288.37 1202.57,286.87 1209.21,277.79 1231.44,252.26 1238.35,245.89" fill="none" stroke="#bcbcbc" stroke-width="8" stroke-linecap="round" stroke-linejoin="round" /><polyline points="1193.39,671.41 1192.86,665.40 1192.46,660.74 1190.44,651.85 1188.04,646.04 1185.03,630.80 1184.76,625.27 1182.73,612.93 1173.63,608.18 1166.36,610.96 1153.35,614.08 1143.05,615.69 1133.18,618.07 1119.54,621.18 1113.32,622.60" fill="none" stroke="#bcbcbc" stroke-width="8" stroke-linecap="round" stroke-linejoin="round" /><polyline points="189.48,450.64 217.27,385.49 218.82,381.26" fill="none" stroke="#bcbcbc" stroke-width="8" stroke-linecap="round" stroke-linejoin="round" /><polyline points="921.86,331.18 935.26,325.99 942.26,323.28 947.67,317.80 970.00,312.29 977.50,314.20 993.66,310.04 1005.99,306.86 1008.92,305.22 1020.88,302.29 1082.01,287.32 1095.86,283.18" fill="none" stroke="#bcbcbc" stroke-width="8" stroke-linecap="round" stroke-linejoin="round" /><polyline points="358.01,882.84 386.85,872.37 396.49,869.42 406.21,866.45 424.13,860.98 438.07,858.97 485.68,853.77 495.25,853.24 537.85,853.61 563.80,853.83 573.56,853.33 589.19,854.91 594.08,855.61 604.04,857.04 634.14,863.65" fill="none" stroke="#bcbcbc" stroke-width="8" stroke-linecap="round" stroke-linejoin="round" /><polyline points="495.41,26.74 490.63,10.59 472.89,-49.40 451.33,-117.81 446.88,-130.02 442.36,-141.47 436.65,-157.96" fill="none" stroke="#bcbcbc" stroke-width="8" stroke-linecap="round" stroke-linejoin="round" /><polyline points="443.80,994.05 447.59,982.08 485.92,861.20 485.68,853.77" fill="none" stroke="#bcbcbc" stroke-width="8" stroke-linecap="round" stroke-linejoin="round" /><polyline points="495.25,853.24 502.84,751.46 503.60,743.16 504.76,733.51 504.78,733.07 505.28,721.26 507.81,689.23 509.24,674.30 511.19,657.35 512.97,645.15 514.57,637.48 516.57,631.69 520.52,618.64 528.66,591.47 539.01,556.39 550.43,520.51 552.76,513.20 554.63,507.89" fill="none" stroke="#bcbcbc" stroke-width="8" stroke-linecap="round" stroke-linejoin="round" /><polyline points="247.28,643.64 245.26,652.66 245.60,655.54 257.97,758.51 259.28,769.41 258.71,780.63 255.47,844.67 254.12,871.42 253.42,885.22 252.18,909.82 251.53,922.63 250.13,927.72" fill="none" stroke="#bcbcbc" stroke-width="8" stroke-linecap="round" stroke-linejoin="round" /><polyline points="189.48,450.64 144.52,437.27 138.80,433.60 110.82,425.45 102.96,425.53 67.80,414.94 62.11,410.75 30.12,401.05 -9.14,390.35 -9.33,390.33 -15.84,389.78" fill="none" stroke="#bcbcbc" stroke-width="8" stroke-linecap="round" stroke-linejoin="round" /><polyline points="1008.92,305.22 1010.49,307.27 1017.01,316.99 1029.06,334.96 1040.41,346.32 1062.22,370.81 1058.53,393.44 1056.66,401.92 1054.06,405.51 1059.53,413.60 1067.99,431.01 1084.89,463.63 1093.22,479.69 1098.40,494.13 1100.73,500.83" fill="none" stroke="#bcbcbc" stroke-width="8" stroke-linecap="round" stroke-linejoin="round" /><polyline points="1122.80,351.83 1116.54,353.78 1075.25,366.63 1069.32,368.53 1062.22,370.81" fill="none" stroke="#bcbcbc" stroke-width="8" stroke-linecap="round" stroke-linejoin="round" /><polyline points="826.08,430.05 838.99,425.86 932.71,378.00 945.26,371.87 989.44,359.11 1032.27,347.07 1040.41,346.32" fill="none" stroke="#bcbcbc" stroke-width="8" stroke-linecap="round" stroke-linejoin="round" /><polyline points="836.29,489.30 944.34,439.01 948.89,436.00 959.46,432.93 1031.46,411.98 1042.38,407.80 1054.06,405.51" fill="none" stroke="#bcbcbc" stroke-width="8" stroke-linecap="round" stroke-linejoin="round" /><polyline points="814.24,-564.87 857.98,-559.47 862.37,-558.92 879.33,-554.76" fill="none" stroke="#bcbcbc" stroke-width="8" stroke-linecap="round" stroke-linejoin="round" /><polyline points="1188.02,-120.17 1195.78,-121.79 1224.77,-107.58 1228.58,-103.81 1282.99,-11.71 1284.42,-0.54 1291.50,5.35 1290.37,9.42 1290.20,16.06 1291.18,25.34 1305.59,84.57 1306.87,125.58 1308.89,191.08 1312.27,279.23 1298.48,317.64 1289.58,341.06 1276.61,374.06 1272.85,383.61 1270.41,386.27 1266.49,411.81" fill="none" stroke="#bcbcbc" stroke-width="8" stroke-linecap="round" stroke-linejoin="round" /><polyline points="1288.61,567.38 1275.38,561.62 1242.32,538.55 1198.69,507.89 1174.70,488.49 1158.51,471.15" fill="none" stroke="#bcbcbc" stroke-width="8" stroke-linecap="round" stroke-linejoin="round" /><polyline points="753.25,1083.52 740.25,1079.39 719.16,1072.71 709.10,1069.52 697.28,1065.77 682.34,1061.04 668.84,1056.75 655.49,1052.52 595.97,1033.63 585.54,1030.32 572.60,1026.22 569.74,1025.32 535.69,1016.32 526.08,1014.00 514.03,1011.08 501.42,1008.02 455.99,997.01 443.80,994.05 430.71,989.50 403.35,980.00 393.03,976.42 383.81,973.43 340.97,958.20 335.58,954.98 332.98,949.39" fill="none" stroke="#bcbcbc" stroke-width="8" stroke-linecap="round" stroke-linejoin="round" /><polyline points="948.89,436.00 945.74,424.69 936.33,390.97 932.71,378.00 927.49,368.31 927.00,366.51 923.92,355.10 927.51,350.04 923.20,335.65 921.86,331.18" fill="none" stroke="#bcbcbc" stroke-width="8" stroke-linecap="round" stroke-linejoin="round" /><polyline points="933.17,23.35 942.11,19.14 990.95,-7.79 1018.88,-25.75 1038.57,-39.19 1042.92,-42.43 1058.77,-53.44 1075.20,-65.58 1085.60,-73.15 1097.99,-82.21 1141.09,-101.66 1146.68,-101.36 1154.85,-105.23 1188.03,-120.17" fill="none" stroke="#bcbcbc" stroke-width="8" stroke-linecap="round" stroke-linejoin="round" /><polyline points="391.73,206.94 398.77,209.80 403.43,211.23 490.79,238.06 504.13,242.16" fill="none" stroke="#bcbcbc" stroke-width="8" stroke-linecap="round" stroke-linejoin="round" /><polyline points="-232.24,403.39 -294.65,384.50" fill="none" stroke="#bcbcbc" stroke-width="8" stroke-linecap="round" stroke-linejoin="round" /><polyline points="775.88,-476.72 791.35,-457.12 793.66,-454.19 801.48,-444.30 810.38,-443.25 828.68,-441.11 831.93,-438.86" fill="none" stroke="#bcbcbc" stroke-width="8" stroke-linecap="round" stroke-linejoin="round" /><polyline points="1313.22,395.17 1288.70,399.74 1263.56,413.40 1240.25,426.38 1218.21,437.40 1191.57,451.87 1172.28,463.58 1134.17,484.01 985.38,558.87 946.81,575.86 921.32,586.88 908.69,591.02 898.24,592.97 881.14,594.00 856.80,590.56 796.06,575.98 709.85,555.88 596.42,521.67 554.63,507.89 486.20,486.77 420.76,465.18 324.78,427.53 276.80,406.86 218.93,381.14 122.96,328.56 100.45,313.64 43.51,277.82 19.63,253.94 -16.19,207.55 -75.20,146.71 -98.39,126.27" fill="none" stroke="#bcbcbc" stroke-width="8" stroke-linecap="round" stroke-linejoin="round" /><polyline points="847.98,1113.46 848.98,1107.85 852.61,1098.69 886.65,1019.05 899.50,989.20 914.66,952.00 918.35,938.38" fill="none" stroke="#bcbcbc" stroke-width="8" stroke-linecap="round" stroke-linejoin="round" /><polyline points="195.04,777.22 156.38,758.51 68.41,715.93 -39.50,663.70 -49.14,659.04" fill="none" stroke="#bcbcbc" stroke-width="8" stroke-linecap="round" stroke-linejoin="round" /><polyline points="830.45,160.90 840.21,150.90 866.17,124.33 886.77,101.83" fill="none" stroke="#bcbcbc" stroke-width="8" stroke-linecap="round" stroke-linejoin="round" /><polyline points="80.91,220.10 70.18,205.90 19.93,139.35 -51.82,81.30" fill="none" stroke="#bcbcbc" stroke-width="8" stroke-linecap="round" stroke-linejoin="round" /><polyline points="-230.43,1096.08 -220.62,1072.81 -189.42,995.04 -185.64,984.84 -181.45,973.51 -179.86,969.43 -179.44,963.03 -175.44,902.57 -174.30,885.23" fill="none" stroke="#bcbcbc" stroke-width="8" stroke-linecap="round" stroke-linejoin="round" /><polyline points="-251.71,470.93 -232.24,403.39 -206.54,314.31 -203.36,303.28 -199.83,290.75 -191.91,262.70 -191.08,259.76 -188.81,250.74 -185.19,240.54 -184.32,238.07 -179.75,226.76 -170.79,206.98 -168.11,201.30" fill="none" stroke="#bcbcbc" stroke-width="8" stroke-linecap="round" stroke-linejoin="round" /><polyline points="-203.36,303.28 -163.96,313.36 -80.50,334.81 -32.94,349.62 -13.11,354.26" fill="none" stroke="#bcbcbc" stroke-width="8" stroke-linecap="round" stroke-linejoin="round" /><polyline points="607.71,-3.18 609.05,-11.38 610.39,-19.90 616.17,-48.38 630.62,-114.66 642.48,-173.96 644.64,-186.26 647.59,-202.96 647.59,-202.98" fill="none" stroke="#bcbcbc" stroke-width="8" stroke-linecap="round" stroke-linejoin="round" /><polyline points="491.04,1273.28 508.64,1228.41 510.82,1220.35 580.64,1043.11 585.54,1030.32 589.51,1019.48 631.23,898.10 639.27,891.09" fill="none" stroke="#bcbcbc" stroke-width="8" stroke-linecap="round" stroke-linejoin="round" /><polyline points="730.37,-37.49 730.36,-37.51 727.89,-50.49 727.50,-52.07 721.47,-76.59 721.47,-76.67 717.36,-93.30 699.94,-153.01 697.74,-159.41 685.98,-191.39 682.15,-200.94 679.69,-207.10 676.49,-214.10 676.48,-214.11 676.48,-214.14 674.14,-239.86 673.92,-252.48" fill="none" stroke="#bcbcbc" stroke-width="8" stroke-linecap="round" stroke-linejoin="round" /><polyline points="704.25,975.58 699.77,980.42 693.09,988.36 674.29,1041.40 668.84,1056.75" fill="none" stroke="#bcbcbc" stroke-width="8" stroke-linecap="round" stroke-linejoin="round" /><polyline points="391.73,206.94 394.30,199.98 394.88,198.36 407.09,164.24 411.67,149.87 449.11,39.79" fill="none" stroke="#bcbcbc" stroke-width="8" stroke-linecap="round" stroke-linejoin="round" /><polyline points="585.39,361.27 589.21,351.13 599.55,323.65 603.93,312.03 606.89,304.17 615.19,282.11 620.67,267.55 621.41,265.59 634.70,230.30 640.25,232.02 643.26,223.83 648.58,209.33 647.56,202.75 661.70,164.27 663.15,160.32 665.83,157.86 668.08,155.79 682.25,117.04 684.30,106.44 704.64,49.94 709.45,46.17 719.23,18.50 717.49,14.25 726.06,-11.60 721.61,-34.68" fill="none" stroke="#bcbcbc" stroke-width="8" stroke-linecap="round" stroke-linejoin="round" /><polyline points="949.14,-689.66 943.44,-699.01 913.50,-748.13" fill="none" stroke="#bcbcbc" stroke-width="8" stroke-linecap="round" stroke-linejoin="round" /><polyline points="1042.92,-42.43 1180.32,45.93 1180.36,45.99 1180.36,46.00 1205.77,49.30" fill="none" stroke="#bcbcbc" stroke-width="8" stroke-linecap="round" stroke-linejoin="round" /><polyline points="987.82,-227.00 1134.01,-153.62 1138.42,-150.33 1138.13,-126.31 1141.09,-101.66" fill="none" stroke="#bcbcbc" stroke-width="8" stroke-linecap="round" stroke-linejoin="round" /><polyline points="709.10,1069.52 703.84,1085.56 682.54,1150.52 646.31,1259.93 643.74,1267.69 641.14,1275.56 640.41,1283.93" fill="none" stroke="#bcbcbc" stroke-width="8" stroke-linecap="round" stroke-linejoin="round" /><polyline points="1120.65,674.88 1121.52,666.73 1121.71,659.13 1121.65,658.86 1116.47,636.47 1114.35,627.11 1113.32,622.60 1112.27,617.98 1106.59,592.93 1095.48,542.87 1087.41,512.77 1086.26,508.11" fill="none" stroke="#bcbcbc" stroke-width="8" stroke-linecap="round" stroke-linejoin="round" /><polyline points="394.84,1133.18 398.47,1122.88 439.18,1007.19 443.80,994.05" fill="none" stroke="#bcbcbc" stroke-width="8" stroke-linecap="round" stroke-linejoin="round" /><polyline points="1308.89,191.08 1296.91,187.70 1215.57,62.89 1205.77,49.30" fill="none" stroke="#bcbcbc" stroke-width="8" stroke-linecap="round" stroke-linejoin="round" /><polyline points="-28.19,490.55 268.24,561.57 288.68,569.03" fill="none" stroke="#bcbcbc" stroke-width="8" stroke-linecap="round" stroke-linejoin="round" /><polyline points="906.75,-619.13 1022.22,-576.36 1038.48,-579.13" fill="none" stroke="#bcbcbc" stroke-width="8" stroke-linecap="round" stroke-linejoin="round" />
    <polyline points="352.80,182.29 348.71,188.26 311.89,206.23 284.84,240.60 255.66,258.67 235.70,273.74 216.66,289.27 206.90,298.17 189.66,320.04 170.38,347.68 167.20,352.80" fill="none" stroke="#ffffff" stroke-width="16" stroke-linecap="round" stroke-linejoin="round" />
    <polyline points="352.80,182.29 348.71,188.26 311.89,206.23 284.84,240.60 255.66,258.67 235.70,273.74 216.66,289.27 206.90,298.17 189.66,320.04 170.38,347.68 167.20,352.80" fill="none" stroke="#111111" stroke-width="9" stroke-linecap="round" stroke-linejoin="round" />
    
            <g transform="translate(352.80,182.29)">
              <circle r="19" fill="#ffffff" stroke="#111111" stroke-width="4" />
              <text text-anchor="middle" dominant-baseline="central" font-family="Helvetica, Arial, sans-serif"
                font-size="18" font-weight="700" fill="#111111">1</text>
            </g>
            
            <g transform="translate(167.20,352.80)">
              <circle r="19" fill="#ffffff" stroke="#111111" stroke-width="4" />
              <text text-anchor="middle" dominant-baseline="central" font-family="Helvetica, Arial, sans-serif"
                font-size="18" font-weight="700" fill="#111111">2</text>
            </g>
            
  </g>
</svg>
