<svg xmlns="http://www.w3.org/2000/svg" width="520" height="520" viewBox="0 0 520 520">
  <rect width="100%" height="100%" fill="#ffffff" />
  <g>
    <polyline points="1197.24,-122.75 1200.16,-107.27 1218.94,24.12 1216.07,56.97" fill="none" stroke="#bcbcbc" stroke-width="8" stroke-linecap="round" stroke-linejoin="round" /><polyline points="815.50,972.17 820.04,958.21 844.10,884.21 846.93,875.49 849.80,866.34 910.30,673.41 915.16,657.90 904.02,630.45" fill="none" stroke="#bcbcbc" stroke-width="8" stroke-linecap="round" stroke-linejoin="round" /><polyline points="397.62,800.57 396.64,789.49 416.42,678.72 419.19,664.86 421.26,657.60 426.71,629.51 432.82,595.12 439.49,564.84 446.10,534.63 450.26,526.11 452.99,520.88" fill="none" stroke="#bcbcbc" stroke-width="8" stroke-linecap="round" stroke-linejoin="round" /><polyline points="512.42,19.16 507.72,4.82 459.11,-143.42 456.74,-149.63" fill="none" stroke="#bcbcbc" stroke-width="8" stroke-linecap="round" stroke-linejoin="round" /><polyline points="263.02,1323.86 264.47,1309.71 265.06,1303.22 270.35,1244.69 276.14,1193.15 277.49,1181.12 278.75,1166.68 278.89,1165.46 282.17,1136.76 285.00,1107.58 288.12,1079.43 290.22,1057.51 291.10,1043.98 291.88,1031.49 293.25,1017.41" fill="none" stroke="#bcbcbc" stroke-width="8" stroke-linecap="round" stroke-linejoin="round" /><polyline points="934.61,1006.56 938.08,995.68 962.47,919.01 965.24,910.29 969.18,897.88 972.00,888.99 993.59,795.88" fill="none" stroke="#bcbcbc" stroke-width="8" stroke-linecap="round" stroke-linejoin="round" /><polyline points="839.81,-510.05 848.81,-508.67 1097.01,-470.53" fill="none" stroke="#bcbcbc" stroke-width="8" stroke-linecap="round" stroke-linejoin="round" /><polyline points="202.64,988.50 176.81,987.29 161.05,986.56 152.50,986.16 144.99,985.81 86.49,983.09 5.12,979.31 -33.66,973.81 -46.64,971.97 -57.91,969.98 -134.19,956.52 -144.85,954.63 -147.21,954.23 -160.38,951.97 -170.50,950.24 -235.14,944.52 -247.45,943.44 -251.96,943.04 -265.94,942.07 -293.30,940.17" fill="none" stroke="#bcbcbc" stroke-width="8" stroke-linecap="round" stroke-linejoin="round" /><polyline points="577.95,913.54 582.96,899.30 628.05,774.31 682.29,616.65 685.77,606.76 688.19,599.85 690.15,594.18" fill="none" stroke="#bcbcbc" stroke-width="8" stroke-linecap="round" stroke-linejoin="round" /><polyline points="-251.96,943.04 -253.12,935.00 -253.39,926.27 -251.68,908.69 -247.75,876.60 -245.13,865.82 -240.88,826.88 -240.11,818.20 -238.86,807.05 -237.94,798.77 -236.20,789.38 -232.97,764.12 -230.72,744.79 -227.43,736.88" fill="none" stroke="#bcbcbc" stroke-width="8" stroke-linecap="round" stroke-linejoin="round" /><polyline points="-298.12,727.01 -237.97,735.41 -227.43,736.88 -220.90,737.93 -193.94,742.22 -131.82,752.12 -121.17,753.90" fill="none" stroke="#bcbcbc" stroke-width="8" stroke-linecap="round" stroke-linejoin="round" /><polyline points="808.75,-61.99 809.14,-56.52 809.95,-50.99 811.90,-46.75 815.56,-42.02 822.32,-35.86 838.35,-26.11 962.01,51.47 1038.17,153.58 1095.69,295.55 1099.44,304.93" fill="none" stroke="#bcbcbc" stroke-width="8" stroke-linecap="round" stroke-linejoin="round" /><polyline points="788.94,352.26 791.51,356.50 792.17,357.60 794.30,368.31 808.81,438.47 813.41,460.74 816.70,476.60 821.84,508.74 824.24,523.57 825.90,532.61 827.71,540.78 829.87,545.55 833.05,551.06 834.75,553.67 866.88,599.67 884.26,627.04 888.79,633.58" fill="none" stroke="#bcbcbc" stroke-width="8" stroke-linecap="round" stroke-linejoin="round" /><polyline points="-133.45,1230.72 -131.74,1220.19 -130.15,1212.57 -129.73,1211.56 -108.34,1160.72 -94.71,1127.67 -90.57,1117.19 -86.19,1106.10 -81.42,1096.57 -80.65,1094.70 -74.13,1078.94 -69.09,1065.00 -64.77,1052.20 -62.02,1043.16 -58.94,1031.98 -55.40,1017.00 -52.70,1004.85 -49.49,987.88 -48.81,984.10 -46.64,971.97" fill="none" stroke="#bcbcbc" stroke-width="8" stroke-linecap="round" stroke-linejoin="round" /><polyline points="902.68,-189.32 970.87,-141.67 980.05,-139.72 986.78,-132.03" fill="none" stroke="#bcbcbc" stroke-width="8" stroke-linecap="round" stroke-linejoin="round" /><polyline points="616.35,250.73 625.36,254.20 664.49,267.00 755.24,301.80 760.34,306.88 762.73,310.67" fill="none" stroke="#bcbcbc" stroke-width="8" stroke-linecap="round" stroke-linejoin="round" /><polyline points="785.47,1145.11 791.65,1129.01 822.16,1046.23 843.73,983.68 848.21,981.62" fill="none" stroke="#bcbcbc" stroke-width="8" stroke-linecap="round" stroke-linejoin="round" /><polyline points="354.18,1040.15 359.00,1029.51 359.47,1028.45 367.71,1000.82 381.21,955.34 384.66,943.70 387.35,934.66 387.71,929.39 387.16,917.73" fill="none" stroke="#bcbcbc" stroke-width="8" stroke-linecap="round" stroke-linejoin="round" /><polyline points="914.99,355.89 907.25,357.49 889.72,354.37 887.01,347.14 856.63,335.56 849.45,337.43 822.05,327.37 817.96,330.23" fill="none" stroke="#bcbcbc" stroke-width="8" stroke-linecap="round" stroke-linejoin="round" /><polyline points="869.89,-583.62 883.65,-580.25 891.26,-578.93 1072.32,-547.54" fill="none" stroke="#bcbcbc" stroke-width="8" stroke-linecap="round" stroke-linejoin="round" /><polyline points="729.17,1094.70 736.70,1073.47 751.34,1032.20 760.79,1014.62 774.40,976.52 779.84,961.31" fill="none" stroke="#bcbcbc" stroke-width="8" stroke-linecap="round" stroke-linejoin="round" /><polyline points="-262.84,270.58 -275.96,269.98 -279.24,273.97 -302.09,301.73 -381.95,393.98 -393.18,406.96" fill="none" stroke="#bcbcbc" stroke-width="8" stroke-linecap="round" stroke-linejoin="round" /><polyline points="437.63,349.59 431.84,362.41 431.14,363.96 411.03,416.41 390.76,474.14 385.35,489.54 382.29,497.48" fill="none" stroke="#bcbcbc" stroke-width="8" stroke-linecap="round" stroke-linejoin="round" /><polyline points="732.64,-239.70 739.03,-231.03 743.59,-219.11 750.69,-202.00 762.08,-175.09 772.18,-150.94 783.76,-124.41 792.35,-103.97 793.62,-101.04 793.70,-100.85 800.62,-84.69 802.68,-80.09 804.65,-75.72 806.73,-71.62 808.29,-67.45 808.75,-61.99" fill="none" stroke="#bcbcbc" stroke-width="8" stroke-linecap="round" stroke-linejoin="round" /><polyline points="243.52,608.12 246.86,606.30 251.54,602.58 253.88,597.75 284.95,479.93 285.89,473.29 289.68,461.15" fill="none" stroke="#bcbcbc" stroke-width="8" stroke-linecap="round" stroke-linejoin="round" /><polyline points="1330.01,423.75 1334.42,437.74 1337.52,452.43 1331.48,508.43 1324.50,550.56 1320.69,564.93 1320.34,566.23 1317.00,573.98 1312.45,582.20 1301.82,595.65 1306.97,621.94 1290.31,678.37 1281.12,709.53 1262.31,760.54 1234.76,822.65 1201.12,882.17 1190.62,901.51 1171.63,933.29 1095.75,1040.99 1079.13,1063.39 1014.75,1147.52 977.79,1189.57 926.09,1242.11 921.31,1242.61 909.63,1252.15" fill="none" stroke="#bcbcbc" stroke-width="8" stroke-linecap="round" stroke-linejoin="round" /><polyline points="393.75,1344.94 414.93,1279.25 418.39,1268.40 423.10,1261.57 433.22,1231.21 436.51,1220.89 478.30,1090.06 482.50,1076.90 485.96,1065.34 535.28,910.14" fill="none" stroke="#bcbcbc" stroke-width="8" stroke-linecap="round" stroke-linejoin="round" /><polyline points="889.93,123.25 908.25,103.25 913.65,96.74 950.64,44.34" fill="none" stroke="#bcbcbc" stroke-width="8" stroke-linecap="round" stroke-linejoin="round" /><polyline points="523.96,131.18 574.38,148.73 577.17,153.26 591.49,158.06 599.99,160.97 640.63,174.70" fill="none" stroke="#bcbcbc" stroke-width="8" stroke-linecap="round" stroke-linejoin="round" /><polyline points="963.46,-217.76 986.78,-132.03 1013.78,-31.04 1017.87,-22.63 1018.52,-13.02 1036.83,21.16 1086.24,113.30 1097.04,129.24 1100.17,133.90 1173.98,271.92 1207.91,302.76 1212.67,308.90 1219.38,314.64 1283.80,369.72 1288.17,373.46 1299.74,379.60" fill="none" stroke="#bcbcbc" stroke-width="8" stroke-linecap="round" stroke-linejoin="round" /><polyline points="712.93,1358.89 873.58,1265.56 902.18,1250.94 909.63,1252.15" fill="none" stroke="#bcbcbc" stroke-width="8" stroke-linecap="round" stroke-linejoin="round" /><polyline points="887.11,1225.38 897.08,1213.53 986.56,1034.98 992.49,1023.27 997.44,1011.68 1026.35,940.20 1034.95,918.67 1059.87,843.27 1076.02,746.33 1077.94,732.22" fill="none" stroke="#bcbcbc" stroke-width="8" stroke-linecap="round" stroke-linejoin="round" /><polyline points="818.05,175.31 816.49,176.91 814.33,184.43 814.12,185.17 804.40,222.57 806.95,232.33 804.83,241.08 802.06,252.54 794.95,260.77 786.89,293.44 777.39,300.62 767.25,307.57 762.73,310.67" fill="none" stroke="#bcbcbc" stroke-width="8" stroke-linecap="round" stroke-linejoin="round" /><polyline points="437.63,349.59 441.76,339.01 466.59,275.37 472.00,261.49 476.46,250.06 508.18,168.79 522.46,134.81 523.96,131.18 535.06,104.35 559.97,42.51 569.08,16.19 571.11,10.15 573.84,3.31" fill="none" stroke="#bcbcbc" stroke-width="8" stroke-linecap="round" stroke-linejoin="round" /><polyline points="715.43,-36.19 720.23,-21.90 877.78,112.67 963.75,187.47 1092.16,299.10 1103.36,308.06 1108.39,311.20 1130.67,331.43 1160.42,356.81 1227.92,414.36 1249.72,433.11 1264.18,450.41" fill="none" stroke="#bcbcbc" stroke-width="8" stroke-linecap="round" stroke-linejoin="round" /><polyline points="975.92,-268.08 983.91,-273.21 1031.25,-292.88 1040.98,-303.12" fill="none" stroke="#bcbcbc" stroke-width="8" stroke-linecap="round" stroke-linejoin="round" /><polyline points="1030.60,929.56 965.24,910.30 846.93,875.49" fill="none" stroke="#bcbcbc" stroke-width="8" stroke-linecap="round" stroke-linejoin="round" /><polyline points="819.62,-460.71 828.55,-454.55 1119.46,-389.82" fill="none" stroke="#bcbcbc" stroke-width="8" stroke-linecap="round" stroke-linejoin="round" /><polyline points="1178.97,497.14 1163.93,463.69 1130.57,384.11 1128.08,377.78 1122.37,363.26 1100.87,308.53 1099.51,304.98" fill="none" stroke="#bcbcbc" stroke-width="8" stroke-linecap="round" stroke-linejoin="round" /><polyline points="732.64,-239.70 716.49,-244.30 704.62,-247.83 680.50,-254.99 668.24,-258.49 661.22,-260.44 652.05,-263.07" fill="none" stroke="#bcbcbc" stroke-width="8" stroke-linecap="round" stroke-linejoin="round" /><polyline points="311.52,197.99 310.70,195.32 309.95,193.45 306.62,185.17 293.72,155.11 281.47,124.57 278.82,117.36 275.77,109.05 273.59,102.26 269.99,92.07 269.61,91.00 257.89,62.10 236.36,7.78 231.52,5.03 228.09,-3.78 221.22,-27.64 209.46,-57.20 206.92,-63.92" fill="none" stroke="#bcbcbc" stroke-width="8" stroke-linecap="round" stroke-linejoin="round" /><polyline points="414.93,1279.25 427.15,1282.99 466.71,1295.05 479.09,1298.82" fill="none" stroke="#bcbcbc" stroke-width="8" stroke-linecap="round" stroke-linejoin="round" /><polyline points="1153.56,-253.86 1155.86,-263.18 1154.92,-266.72 1153.79,-270.99 1146.57,-297.44 1130.47,-353.38 1121.98,-381.97 1119.46,-389.82 1097.01,-470.53 1084.89,-514.06 1072.32,-547.54 1060.96,-577.73 1049.65,-598.50 1038.66,-609.47 954.29,-712.56 948.05,-719.90 943.91,-726.68" fill="none" stroke="#bcbcbc" stroke-width="8" stroke-linecap="round" stroke-linejoin="round" /><polyline points="808.75,-61.99 804.40,-60.33 796.35,-58.11 795.55,-57.89 761.95,-49.29 723.31,-38.41 715.43,-36.19 711.91,-35.08 702.63,-32.09 694.70,-29.89 660.05,-20.25 603.08,-4.06 581.84,1.31 573.84,3.31 535.87,12.63 512.42,19.16 462.75,33.04 413.65,46.88 407.97,48.45 366.94,59.84 348.01,65.10 338.46,69.61 320.37,78.58 284.43,96.82 281.93,98.09 273.59,102.26 268.50,104.81 261.40,108.53 236.16,121.76 190.16,147.57 151.74,167.70 146.25,170.58 138.91,171.04 134.50,173.38 133.62,173.85 91.93,196.69 83.20,196.65 73.19,201.89 69.69,203.72 66.73,205.27 59.77,208.91 54.28,221.44 30.69,234.07 23.19,238.09 15.07,242.51 -17.75,260.37 -34.72,269.60 -43.27,272.07" fill="none" stroke="#bcbcbc" stroke-width="8" stroke-linecap="round" stroke-linejoin="round" /><polyline points="1281.12,709.53 1263.60,711.14 1208.89,716.15 1206.43,716.38 1202.94,716.70 1197.29,717.21 1144.25,722.08 1125.80,720.37 1104.31,725.76 1087.10,729.98 1077.94,732.22 1055.16,733.09 1035.45,732.08 1025.40,731.02 1016.85,728.43 1010.55,724.95 987.09,708.36 930.10,669.21 924.73,665.57 919.25,661.86 915.16,657.90" fill="none" stroke="#bcbcbc" stroke-width="8" stroke-linecap="round" stroke-linejoin="round" /><polyline points="-9.72,48.65 10.97,89.13 14.10,100.70 31.52,133.94 38.71,143.45 67.83,200.11 69.69,203.72" fill="none" stroke="#bcbcbc" stroke-width="8" stroke-linecap="round" stroke-linejoin="round" /><polyline points="624.03,408.70 620.93,417.21 620.06,419.85 616.03,432.10 590.44,503.48 577.74,538.93 577.31,540.14 572.20,551.16 569.28,557.70" fill="none" stroke="#bcbcbc" stroke-width="8" stroke-linecap="round" stroke-linejoin="round" /><polyline points="963.46,-217.76 960.62,-223.83 953.16,-224.81 929.05,-219.28 924.15,-219.91 920.31,-225.06 913.48,-256.44 950.44,-262.16 967.55,-267.21 975.92,-268.08 984.93,-236.04" fill="none" stroke="#bcbcbc" stroke-width="8" stroke-linecap="round" stroke-linejoin="round" /><polyline points="1097.04,129.24 1106.56,123.89 1154.38,95.08 1167.16,87.47 1189.53,74.13 1226.33,50.33 1234.92,44.15 1299.47,4.11" fill="none" stroke="#bcbcbc" stroke-width="8" stroke-linecap="round" stroke-linejoin="round" /><polyline points="1322.69,318.39 1306.37,313.53 1296.88,305.75 1260.62,274.37 1259.38,273.27 1250.62,265.44 1245.47,256.31 1154.38,95.08" fill="none" stroke="#bcbcbc" stroke-width="8" stroke-linecap="round" stroke-linejoin="round" /><polyline points="294.71,305.61 437.63,349.59 449.29,353.29 555.94,387.10 558.17,387.80 574.15,392.87 582.00,395.36 592.21,398.15 613.26,405.28 624.03,408.70 633.72,411.77 713.09,436.95 796.88,463.27 803.80,465.45 813.41,460.74" fill="none" stroke="#bcbcbc" stroke-width="8" stroke-linecap="round" stroke-linejoin="round" /><polyline points="714.93,-399.97 776.84,-456.85 787.32,-466.48" fill="none" stroke="#bcbcbc" stroke-width="8" stroke-linecap="round" stroke-linejoin="round" /><polyline points="-321.73,517.92 -94.57,542.27" fill="none" stroke="#bcbcbc" stroke-width="8" stroke-linecap="round" stroke-linejoin="round" /><polyline points="363.55,-116.13 411.29,-133.20 460.54,-151.01 491.14,-162.90 584.56,-196.88 611.68,-206.26 617.34,-208.22 624.13,-210.55 631.76,-213.18 632.69,-213.50 648.08,-219.68 654.77,-222.37" fill="none" stroke="#bcbcbc" stroke-width="8" stroke-linecap="round" stroke-linejoin="round" /><polyline points="684.22,1039.25 729.17,1094.70 756.69,1122.41 768.60,1130.99 785.47,1145.11 801.31,1158.41 814.92,1171.69 815.25,1178.44" fill="none" stroke="#bcbcbc" stroke-width="8" stroke-linecap="round" stroke-linejoin="round" /><polyline points="732.64,-239.70 750.26,-283.86 778.77,-356.55 819.62,-460.71 839.81,-510.05 869.89,-583.62 894.55,-643.89 898.97,-651.88 920.66,-687.35 922.06,-689.64 930.00,-705.25 943.91,-726.68 951.68,-738.64 962.68,-755.57" fill="none" stroke="#bcbcbc" stroke-width="8" stroke-linecap="round" stroke-linejoin="round" /><polyline points="317.04,940.91 314.16,943.21 312.25,945.96 308.37,957.42 305.68,965.69 293.27,1002.80 291.56,1008.16 290.50,1011.48 279.11,1008.21 251.37,998.91 223.88,989.70 202.64,988.50" fill="none" stroke="#bcbcbc" stroke-width="8" stroke-linecap="round" stroke-linejoin="round" /><polyline points="-226.15,1199.16 -180.86,1082.18 -175.82,1069.45 -171.29,1057.18 -165.83,1042.36 -159.13,1019.05 -152.15,990.07 -149.29,969.31 -147.21,954.23 -144.28,943.10 -133.62,859.45 -121.17,753.90 -114.72,703.57 -107.53,644.46 -94.57,542.27 -92.51,524.90 -79.42,418.03 -79.41,412.08 -76.51,380.37 -68.16,313.39 -66.07,301.71 -63.88,295.15 -60.46,287.94 -57.14,282.34 -49.81,274.40 -43.26,272.15" fill="none" stroke="#bcbcbc" stroke-width="8" stroke-linecap="round" stroke-linejoin="round" /><polyline points="762.73,310.67 765.20,314.60 773.51,327.57 785.95,347.50 788.94,352.26 793.91,348.49 817.96,330.23" fill="none" stroke="#bcbcbc" stroke-width="8" stroke-linecap="round" stroke-linejoin="round" /><polyline points="778.77,-356.56 1023.52,-312.31 1049.22,-298.78 1145.11,-251.24 1153.56,-253.86" fill="none" stroke="#bcbcbc" stroke-width="8" stroke-linecap="round" stroke-linejoin="round" /><polyline points="311.52,197.99 307.18,204.33 268.13,223.38 239.45,259.83 208.51,278.99 187.34,294.97 167.15,311.45 156.80,320.88 138.51,344.08 118.07,373.39 114.70,378.82" fill="none" stroke="#bcbcbc" stroke-width="8" stroke-linecap="round" stroke-linejoin="round" /><polyline points="187.34,294.97 183.08,282.06 164.65,226.26 157.49,215.23 145.52,179.30 144.48,176.20 146.25,170.58 143.38,161.42 85.79,-22.47" fill="none" stroke="#bcbcbc" stroke-width="8" stroke-linecap="round" stroke-linejoin="round" /><polyline points="862.16,-708.37 907.67,-707.17 909.80,-707.11 918.52,-706.86 930.00,-705.25" fill="none" stroke="#bcbcbc" stroke-width="8" stroke-linecap="round" stroke-linejoin="round" /><polyline points="628.05,774.31 612.51,774.12 480.92,791.78 471.43,792.78 460.59,793.93 397.62,800.57 312.78,809.53 267.80,814.28 242.92,816.90 222.72,819.36 212.35,820.62 200.66,822.04 144.22,828.90 130.70,830.54 89.01,835.10 -133.62,859.45" fill="none" stroke="#bcbcbc" stroke-width="8" stroke-linecap="round" stroke-linejoin="round" /><polyline points="433.22,1231.21 421.56,1227.46 367.11,1209.93 356.11,1206.39 346.55,1203.31 288.87,1184.77 277.49,1181.12 262.45,1176.27 170.62,1146.72 160.28,1143.40" fill="none" stroke="#bcbcbc" stroke-width="8" stroke-linecap="round" stroke-linejoin="round" /><polyline points="660.89,128.80 692.56,138.67 808.38,174.44 809.46,174.77 818.05,175.31" fill="none" stroke="#bcbcbc" stroke-width="8" stroke-linecap="round" stroke-linejoin="round" /><polyline points="986.78,-132.03 1144.33,-129.26" fill="none" stroke="#bcbcbc" stroke-width="8" stroke-linecap="round" stroke-linejoin="round" /><polyline points="909.63,1252.15 887.11,1225.38 877.66,1214.39 869.54,1206.80 858.73,1198.73 836.63,1185.47 815.25,1178.44 771.76,1165.01 736.18,1153.72 756.69,1122.41" fill="none" stroke="#bcbcbc" stroke-width="8" stroke-linecap="round" stroke-linejoin="round" /><polyline points="684.22,1039.25 652.86,1000.54 646.89,993.18 615.31,949.66 608.16,936.37 609.87,920.55 619.40,920.46 642.89,924.98 678.64,931.86" fill="none" stroke="#bcbcbc" stroke-width="8" stroke-linecap="round" stroke-linejoin="round" /><polyline points="273.97,729.10 279.75,741.54 312.78,809.53 361.89,910.64 368.15,923.53" fill="none" stroke="#bcbcbc" stroke-width="8" stroke-linecap="round" stroke-linejoin="round" /><polyline points="-255.03,1037.06 -243.22,1041.89 -187.89,1064.51 -175.82,1069.45 -163.11,1074.65 -97.97,1101.28 -86.19,1106.10" fill="none" stroke="#bcbcbc" stroke-width="8" stroke-linecap="round" stroke-linejoin="round" /><polyline points="301.15,628.29 416.42,678.72" fill="none" stroke="#bcbcbc" stroke-width="8" stroke-linecap="round" stroke-linejoin="round" /><polyline points="818.05,175.31 835.61,176.23 836.73,177.23 844.61,184.21 856.18,194.55 858.32,198.71 898.23,233.65 901.18,239.23 929.24,264.00 936.30,266.15 958.13,285.27 963.02,287.50 995.94,315.43 1003.27,321.93 1007.32,328.36" fill="none" stroke="#bcbcbc" stroke-width="8" stroke-linecap="round" stroke-linejoin="round" /><polyline points="-287.57,628.40 -107.53,644.46" fill="none" stroke="#bcbcbc" stroke-width="8" stroke-linecap="round" stroke-linejoin="round" /><polyline points="114.42,1298.81 120.00,1286.94 121.43,1281.65 129.25,1252.83 157.57,1152.96 160.28,1143.40 163.15,1132.91 175.98,1085.99 197.65,1006.76 202.64,988.50" fill="none" stroke="#bcbcbc" stroke-width="8" stroke-linecap="round" stroke-linejoin="round" /><polyline points="273.97,729.10 301.15,628.29 243.52,608.12 228.43,617.03 221.55,622.27 216.45,629.16 212.87,638.25 199.61,687.24 210.31,692.69 221.11,695.31 245.00,701.53 262.88,707.22 273.97,729.10" fill="none" stroke="#bcbcbc" stroke-width="8" stroke-linecap="round" stroke-linejoin="round" /><polyline points="199.61,687.24 186.99,685.49 -107.53,644.46" fill="none" stroke="#bcbcbc" stroke-width="8" stroke-linecap="round" stroke-linejoin="round" /><polyline points="678.64,931.86 705.96,937.83 779.84,961.31 800.49,967.84 849.53,982.00 898.92,996.25 935.49,1006.81 993.98,1023.70 1006.06,1027.19 1035.57,1037.09 1084.16,1050.03 1088.45,1050.83" fill="none" stroke="#bcbcbc" stroke-width="8" stroke-linecap="round" stroke-linejoin="round" /><polyline points="713.29,1358.68 703.32,1361.18 692.55,1391.21 675.83,1386.47 599.85,1360.57 590.70,1358.62 570.35,1357.16 478.33,1357.53 458.04,1354.95 412.23,1347.94 393.75,1344.94 262.68,1323.80 211.93,1315.70 115.14,1298.94 99.51,1295.84 -118.93,1234.78 -132.71,1230.92 -226.15,1199.17 -249.14,1191.01 -306.57,1167.21 -339.30,1154.83" fill="none" stroke="#bcbcbc" stroke-width="8" stroke-linecap="round" stroke-linejoin="round" /><polyline points="913.48,-256.44 904.03,-258.39 777.78,-243.46 732.64,-239.70" fill="none" stroke="#bcbcbc" stroke-width="8" stroke-linecap="round" stroke-linejoin="round" /><polyline points="678.64,931.86 683.06,924.45 709.56,856.41 739.16,753.53 746.71,731.37 750.75,725.34 779.33,633.60 780.75,622.64 781.83,615.49" fill="none" stroke="#bcbcbc" stroke-width="8" stroke-linecap="round" stroke-linejoin="round" /><polyline points="808.75,-61.99 811.76,-63.14 815.85,-66.39 822.06,-73.66 902.68,-189.32 924.15,-219.92" fill="none" stroke="#bcbcbc" stroke-width="8" stroke-linecap="round" stroke-linejoin="round" /><polyline points="1167.53,362.91 1169.18,358.16 1209.70,310.49 1212.67,308.90 1219.71,299.27 1243.29,272.19 1250.62,265.44" fill="none" stroke="#bcbcbc" stroke-width="8" stroke-linecap="round" stroke-linejoin="round" /><polyline points="1202.94,716.70 1202.38,710.32 1201.94,705.38 1199.81,695.95 1197.26,689.79 1194.07,673.62 1193.78,667.77 1191.62,654.68 1181.98,649.64 1174.27,652.59 1160.47,655.89 1149.55,657.60 1139.08,660.13 1124.62,663.42 1118.02,664.93" fill="none" stroke="#bcbcbc" stroke-width="8" stroke-linecap="round" stroke-linejoin="round" /><polyline points="138.33,482.57 167.80,413.48 169.44,409.00" fill="none" stroke="#bcbcbc" stroke-width="8" stroke-linecap="round" stroke-linejoin="round" /><polyline points="914.99,355.89 929.19,350.39 936.62,347.51 942.36,341.70 966.04,335.86 973.99,337.88 991.13,333.47 1004.20,330.10 1007.32,328.36 1019.99,325.26 1084.82,309.37 1099.51,304.98" fill="none" stroke="#bcbcbc" stroke-width="8" stroke-linecap="round" stroke-linejoin="round" /><polyline points="317.04,940.91 347.63,929.80 357.86,926.67 368.15,923.53 387.16,917.73 401.94,915.60 452.43,910.07 462.58,909.52 507.76,909.91 535.28,910.14 545.63,909.61 562.20,911.29 567.39,912.03 577.95,913.54 609.87,920.55" fill="none" stroke="#bcbcbc" stroke-width="8" stroke-linecap="round" stroke-linejoin="round" /><polyline points="462.75,33.04 457.68,15.91 438.87,-47.71 416.01,-120.25 411.29,-133.20 406.50,-145.34 400.44,-162.83" fill="none" stroke="#bcbcbc" stroke-width="8" stroke-linecap="round" stroke-linejoin="round" /><polyline points="408.02,1058.84 412.04,1046.15 452.69,917.96 452.43,910.07" fill="none" stroke="#bcbcbc" stroke-width="8" stroke-linecap="round" stroke-linejoin="round" /><polyline points="462.58,909.52 470.63,801.58 471.43,792.78 472.66,782.54 472.68,782.08 473.21,769.56 475.90,735.59 477.41,719.76 479.48,701.78 481.37,688.84 483.06,680.71 485.20,674.57 489.38,660.73 498.01,631.91 508.99,594.71 521.10,556.67 523.57,548.91 525.55,543.29" fill="none" stroke="#bcbcbc" stroke-width="8" stroke-linecap="round" stroke-linejoin="round" /><polyline points="199.61,687.24 197.47,696.81 197.84,699.87 210.96,809.06 212.35,820.62 211.74,832.52 208.31,900.43 206.87,928.80 206.13,943.43 204.81,969.52 204.13,983.10 202.64,988.50" fill="none" stroke="#bcbcbc" stroke-width="8" stroke-linecap="round" stroke-linejoin="round" /><polyline points="138.33,482.57 90.64,468.39 84.58,464.51 54.91,455.86 46.57,455.95 9.28,444.71 3.26,440.27 -30.67,429.99 -72.31,418.64 -72.51,418.62 -79.42,418.03" fill="none" stroke="#bcbcbc" stroke-width="8" stroke-linecap="round" stroke-linejoin="round" /><polyline points="1007.32,328.36 1008.97,330.54 1015.89,340.84 1028.67,359.90 1040.70,371.95 1063.83,397.92 1059.92,421.91 1057.94,430.91 1055.18,434.72 1060.98,443.30 1069.95,461.76 1087.88,496.35 1096.71,513.38 1102.20,528.69 1104.67,535.80" fill="none" stroke="#bcbcbc" stroke-width="8" stroke-linecap="round" stroke-linejoin="round" /><polyline points="1128.08,377.79 1121.43,379.85 1077.65,393.48 1071.37,395.50 1063.83,397.92" fill="none" stroke="#bcbcbc" stroke-width="8" stroke-linecap="round" stroke-linejoin="round" /><polyline points="813.41,460.74 827.10,456.30 926.50,405.54 939.80,399.04 986.65,385.51 1032.07,372.74 1040.70,371.95" fill="none" stroke="#bcbcbc" stroke-width="8" stroke-linecap="round" stroke-linejoin="round" /><polyline points="824.24,523.57 938.83,470.24 943.65,467.05 954.86,463.79 1031.21,441.57 1042.79,437.14 1055.18,434.72" fill="none" stroke="#bcbcbc" stroke-width="8" stroke-linecap="round" stroke-linejoin="round" /><polyline points="800.86,-594.34 847.24,-588.61 851.90,-588.04 869.89,-583.62" fill="none" stroke="#bcbcbc" stroke-width="8" stroke-linecap="round" stroke-linejoin="round" /><polyline points="1197.24,-122.75 1205.47,-124.47 1236.21,-109.41 1240.26,-105.40 1297.95,-7.73 1299.47,4.11 1306.97,10.36 1305.78,14.68 1305.60,21.72 1306.64,31.56 1321.92,94.36 1323.27,137.86 1325.41,207.32 1329.01,300.80 1314.37,341.53 1304.95,366.37 1291.18,401.36 1287.20,411.49 1284.61,414.31 1280.45,441.40" fill="none" stroke="#bcbcbc" stroke-width="8" stroke-linecap="round" stroke-linejoin="round" /><polyline points="1303.92,606.37 1289.88,600.27 1254.82,575.80 1208.55,543.29 1183.11,522.71 1165.94,504.33" fill="none" stroke="#bcbcbc" stroke-width="8" stroke-linecap="round" stroke-linejoin="round" /><polyline points="736.18,1153.72 722.40,1149.35 700.03,1142.26 689.36,1138.87 676.83,1134.90 660.99,1129.88 646.67,1125.34 632.52,1120.85 569.39,1100.82 558.34,1097.31 544.60,1092.96 541.57,1092.00 505.47,1082.46 495.28,1080.00 482.50,1076.90 469.13,1073.66 420.94,1061.98 408.02,1058.84 394.13,1054.02 365.12,1043.95 354.18,1040.15 344.41,1036.97 298.98,1020.82 293.25,1017.41 290.50,1011.48" fill="none" stroke="#bcbcbc" stroke-width="8" stroke-linecap="round" stroke-linejoin="round" /><polyline points="943.65,467.05 940.31,455.06 930.33,419.30 926.50,405.54 920.95,395.26 920.44,393.36 917.17,381.25 920.98,375.89 916.40,360.63 914.99,355.89" fill="none" stroke="#bcbcbc" stroke-width="8" stroke-linecap="round" stroke-linejoin="round" /><polyline points="926.98,29.44 936.46,24.98 988.26,-3.58 1017.87,-22.63 1038.75,-36.87 1043.37,-40.31 1060.17,-51.99 1077.59,-64.86 1088.62,-72.89 1101.77,-82.50 1147.47,-103.12 1153.40,-102.81 1162.06,-106.91 1197.25,-122.75" fill="none" stroke="#bcbcbc" stroke-width="8" stroke-linecap="round" stroke-linejoin="round" /><polyline points="352.80,224.14 360.27,227.17 365.21,228.69 457.85,257.14 472.00,261.49" fill="none" stroke="#bcbcbc" stroke-width="8" stroke-linecap="round" stroke-linejoin="round" /><polyline points="-308.89,432.47 -375.08,412.43" fill="none" stroke="#bcbcbc" stroke-width="8" stroke-linecap="round" stroke-linejoin="round" /><polyline points="760.18,-500.87 776.59,-480.08 779.04,-476.97 787.32,-466.48 796.76,-465.37 816.17,-463.10 819.62,-460.71" fill="none" stroke="#bcbcbc" stroke-width="8" stroke-linecap="round" stroke-linejoin="round" /><polyline points="1330.01,423.75 1304.01,428.60 1277.34,443.09 1252.63,456.84 1229.25,468.53 1201.01,483.87 1180.55,496.29 1140.13,517.96 982.35,597.35 941.44,615.36 914.41,627.05 901.02,631.44 889.94,633.51 871.80,634.60 845.99,630.95 781.58,615.49 690.15,594.18 569.87,557.90 525.55,543.29 452.99,520.88 383.59,498.00 281.81,458.06 230.92,436.15 169.56,408.87 67.78,353.11 43.91,337.29 -16.47,299.30 -41.80,273.98 -79.78,224.79 -142.36,160.26 -166.95,138.59" fill="none" stroke="#bcbcbc" stroke-width="8" stroke-linecap="round" stroke-linejoin="round" /><polyline points="836.63,1185.47 837.70,1179.53 841.55,1169.81 877.64,1085.35 891.28,1053.70 907.35,1014.24 911.26,999.81" fill="none" stroke="#bcbcbc" stroke-width="8" stroke-linecap="round" stroke-linejoin="round" /><polyline points="144.22,828.90 103.22,809.05 9.93,763.90 -104.51,708.52 -114.72,703.57" fill="none" stroke="#bcbcbc" stroke-width="8" stroke-linecap="round" stroke-linejoin="round" /><polyline points="818.05,175.31 828.40,164.71 855.93,136.53 877.78,112.67" fill="none" stroke="#bcbcbc" stroke-width="8" stroke-linecap="round" stroke-linejoin="round" /><polyline points="23.19,238.09 11.81,223.03 -41.48,152.46 -117.56,90.90" fill="none" stroke="#bcbcbc" stroke-width="8" stroke-linecap="round" stroke-linejoin="round" /><polyline points="-306.97,1167.04 -296.57,1142.37 -263.49,1059.89 -259.48,1049.07 -255.03,1037.06 -253.35,1032.73 -252.90,1025.94 -248.66,961.83 -247.45,943.44" fill="none" stroke="#bcbcbc" stroke-width="8" stroke-linecap="round" stroke-linejoin="round" /><polyline points="-329.54,504.09 -308.89,432.47 -281.65,337.99 -278.27,326.30 -274.52,313.02 -266.13,283.27 -265.25,280.15 -262.84,270.58 -259.01,259.77 -258.08,257.15 -253.23,245.15 -243.73,224.18 -240.88,218.15" fill="none" stroke="#bcbcbc" stroke-width="8" stroke-linecap="round" stroke-linejoin="round" /><polyline points="-278.27,326.30 -236.49,336.99 -147.98,359.74 -97.55,375.44 -76.51,380.37" fill="none" stroke="#bcbcbc" stroke-width="8" stroke-linecap="round" stroke-linejoin="round" /><polyline points="581.84,1.31 583.26,-7.39 584.69,-16.42 590.82,-46.62 606.13,-116.91 618.71,-179.79 621.01,-192.84 624.13,-210.55 624.14,-210.57" fill="none" stroke="#bcbcbc" stroke-width="8" stroke-linecap="round" stroke-linejoin="round" /><polyline points="458.12,1354.96 476.78,1307.37 479.09,1298.82 553.14,1110.87 558.34,1097.31 562.54,1085.81 606.79,957.09 615.31,949.66" fill="none" stroke="#bcbcbc" stroke-width="8" stroke-linecap="round" stroke-linejoin="round" /><polyline points="711.91,-35.08 711.91,-35.09 709.29,-48.86 708.88,-50.53 702.48,-76.54 702.48,-76.63 698.12,-94.26 679.65,-157.58 677.32,-164.36 664.84,-198.28 660.79,-208.41 658.17,-214.94 654.78,-222.36 654.77,-222.37 654.77,-222.41 652.29,-249.68 652.05,-263.07" fill="none" stroke="#bcbcbc" stroke-width="8" stroke-linecap="round" stroke-linejoin="round" /><polyline points="684.22,1039.25 679.47,1044.38 672.39,1052.81 652.44,1109.05 646.67,1125.34" fill="none" stroke="#bcbcbc" stroke-width="8" stroke-linecap="round" stroke-linejoin="round" /><polyline points="352.80,224.14 355.53,216.76 356.14,215.04 369.09,178.86 373.95,163.62 413.65,46.88" fill="none" stroke="#bcbcbc" stroke-width="8" stroke-linecap="round" stroke-linejoin="round" /><polyline points="558.17,387.80 562.22,377.04 573.19,347.90 577.83,335.58 580.97,327.24 589.77,303.86 595.59,288.41 596.37,286.33 610.46,248.91 616.35,250.73 619.54,242.04 625.18,226.67 624.10,219.69 639.09,178.89 640.63,174.70 643.47,172.08 645.86,169.89 660.89,128.80 663.06,117.56 684.63,57.64 689.73,53.65 700.10,24.30 698.26,19.79 707.35,-7.62 702.63,-32.09" fill="none" stroke="#bcbcbc" stroke-width="8" stroke-linecap="round" stroke-linejoin="round" /><polyline points="943.91,-726.68 937.87,-736.60 906.12,-788.68" fill="none" stroke="#bcbcbc" stroke-width="8" stroke-linecap="round" stroke-linejoin="round" /><polyline points="1043.37,-40.31 1189.08,53.39 1189.12,53.45 1189.12,53.47 1216.07,56.97" fill="none" stroke="#bcbcbc" stroke-width="8" stroke-linecap="round" stroke-linejoin="round" /><polyline points="984.93,-236.04 1139.97,-158.22 1144.64,-154.74 1144.33,-129.26 1147.47,-103.12" fill="none" stroke="#bcbcbc" stroke-width="8" stroke-linecap="round" stroke-linejoin="round" /><polyline points="689.36,1138.87 683.79,1155.88 661.20,1224.78 622.78,1340.80 620.05,1349.03 617.29,1357.37 616.52,1366.25" fill="none" stroke="#bcbcbc" stroke-width="8" stroke-linecap="round" stroke-linejoin="round" /><polyline points="1125.80,720.37 1126.72,711.73 1126.92,703.66 1126.86,703.38 1121.36,679.64 1119.11,669.71 1118.02,664.93 1116.91,660.04 1110.88,633.47 1099.10,580.38 1090.54,548.45 1089.33,543.52" fill="none" stroke="#bcbcbc" stroke-width="8" stroke-linecap="round" stroke-linejoin="round" /><polyline points="356.11,1206.39 359.95,1195.46 403.12,1072.77 408.02,1058.84" fill="none" stroke="#bcbcbc" stroke-width="8" stroke-linecap="round" stroke-linejoin="round" /><polyline points="1325.41,207.32 1312.71,203.73 1226.46,71.37 1216.07,56.97" fill="none" stroke="#bcbcbc" stroke-width="8" stroke-linecap="round" stroke-linejoin="round" /><polyline points="-92.51,524.90 221.84,600.21 243.52,608.12" fill="none" stroke="#bcbcbc" stroke-width="8" stroke-linecap="round" stroke-linejoin="round" /><polyline points="898.97,-651.88 1021.42,-606.52 1038.66,-609.47" fill="none" stroke="#bcbcbc" stroke-width="8" stroke-linecap="round" stroke-linejoin="round" />
    <polyline points="352.80,224.14 351.11,227.90 347.40,233.31 340.41,241.92 299.16,294.03 277.34,352.80 167.20,311.40" fill="none" stroke="#ffffff" stroke-width="16" stroke-linecap="round" stroke-linejoin="round" />
    <polyline points="352.80,224.14 351.11,227.90 347.40,233.31 340.41,241.92 299.16,294.03 277.34,352.80 167.20,311.40" fill="none" stroke="#111111" stroke-width="9" stroke-linecap="round" stroke-linejoin="round" />
    
            <g transform="translate(352.80,224.14)">
              <circle r="19" fill="#ffffff" stroke="#111111" stroke-width="4" />
              <text text-anchor="middle" dominant-baseline="central" font-family="Helvetica, Arial, sans-serif"
                font-size="18" font-weight="700" fill="#111111">1</text>
            </g>
            
            <g transform="translate(167.20,311.40)">
              <circle r="19" fill="#ffffff" stroke="#111111" stroke-width="4" />
              <text text-anchor="middle" dominant-baseline="central" font-family="Helvetica, Arial, sans-serif"
                font-size="18" font-weight="700" fill="#111111">2</text>
            </g>
            
  </g>
</svg>
