<svg xmlns="http://www.w3.org/2000/svg" width="520" height="520" viewBox="0 0 520 520">
  <rect width="100%" height="100%" fill="#ffffff" />
  <g>
    <polyline points="817.03,108.56 818.74,117.62 829.72,194.44 828.04,213.64" fill="none" stroke="#bcbcbc" stroke-width="8" stroke-linecap="round" stroke-linejoin="round" /><polyline points="593.84,748.74 596.49,740.58 610.56,697.31 612.22,692.22 613.89,686.86 649.26,574.06 652.11,564.99 645.59,548.95" fill="none" stroke="#bcbcbc" stroke-width="8" stroke-linecap="round" stroke-linejoin="round" /><polyline points="349.52,648.41 348.94,641.93 360.51,577.16 362.13,569.06 363.34,564.82 366.52,548.39 370.10,528.29 374.00,510.58 377.86,492.92 380.30,487.94 381.89,484.88" fill="none" stroke="#bcbcbc" stroke-width="8" stroke-linecap="round" stroke-linejoin="round" /><polyline points="416.64,191.54 413.89,183.16 385.47,96.48 384.08,92.85" fill="none" stroke="#bcbcbc" stroke-width="8" stroke-linecap="round" stroke-linejoin="round" /><polyline points="270.82,954.36 271.67,946.09 272.01,942.30 275.11,908.07 278.49,877.94 279.28,870.91 280.02,862.46 280.10,861.75 282.02,844.97 283.68,827.91 285.50,811.45 286.73,798.63 287.24,790.72 287.69,783.42 288.50,775.19" fill="none" stroke="#bcbcbc" stroke-width="8" stroke-linecap="round" stroke-linejoin="round" /><polyline points="663.48,768.85 665.51,762.48 679.77,717.66 681.39,712.56 683.69,705.31 685.34,700.11 697.96,645.67" fill="none" stroke="#bcbcbc" stroke-width="8" stroke-linecap="round" stroke-linejoin="round" /><polyline points="608.05,-117.88 613.32,-117.07 758.43,-94.77" fill="none" stroke="#bcbcbc" stroke-width="8" stroke-linecap="round" stroke-linejoin="round" /><polyline points="235.52,758.28 220.42,757.58 211.21,757.15 206.20,756.92 201.81,756.72 167.61,755.12 120.04,752.91 97.36,749.70 89.77,748.62 83.19,747.46 38.59,739.59 32.36,738.49 30.97,738.25 23.27,736.93 17.36,735.92 -20.43,732.58 -27.63,731.94 -30.27,731.71 -38.44,731.14 -54.44,730.03" fill="none" stroke="#bcbcbc" stroke-width="8" stroke-linecap="round" stroke-linejoin="round" /><polyline points="454.95,714.46 457.88,706.14 484.24,633.05 515.96,540.87 517.99,535.09 519.40,531.05 520.55,527.74" fill="none" stroke="#bcbcbc" stroke-width="8" stroke-linecap="round" stroke-linejoin="round" /><polyline points="-30.27,731.71 -30.95,727.01 -31.11,721.90 -30.10,711.63 -27.81,692.86 -26.28,686.56 -23.79,663.79 -23.34,658.72 -22.61,652.20 -22.07,647.35 -21.05,641.86 -19.17,627.09 -17.85,615.80 -15.93,611.17" fill="none" stroke="#bcbcbc" stroke-width="8" stroke-linecap="round" stroke-linejoin="round" /><polyline points="-57.26,605.40 -22.09,610.31 -15.93,611.17 -12.11,611.78 3.65,614.29 39.97,620.08 46.20,621.12" fill="none" stroke="#bcbcbc" stroke-width="8" stroke-linecap="round" stroke-linejoin="round" /><polyline points="589.89,144.09 590.12,147.29 590.59,150.52 591.73,153.00 593.87,155.77 597.83,159.37 607.20,165.07 679.50,210.43 724.03,270.13 757.66,353.14 759.85,358.62" fill="none" stroke="#bcbcbc" stroke-width="8" stroke-linecap="round" stroke-linejoin="round" /><polyline points="578.31,386.29 579.81,388.77 580.20,389.41 581.44,395.68 589.93,436.70 592.62,449.72 594.54,458.99 597.55,477.78 598.95,486.45 599.92,491.74 600.98,496.52 602.24,499.30 604.10,502.53 605.09,504.05 623.88,530.95 634.04,546.95 636.69,550.77" fill="none" stroke="#bcbcbc" stroke-width="8" stroke-linecap="round" stroke-linejoin="round" /><polyline points="39.02,899.90 40.02,893.75 40.95,889.30 41.20,888.71 53.70,858.98 61.67,839.65 64.09,833.53 66.65,827.05 69.44,821.47 69.89,820.38 73.70,811.17 76.65,803.01 79.18,795.53 80.78,790.24 82.58,783.71 84.65,774.95 86.23,767.85 88.11,757.93 88.51,755.71 89.77,748.62" fill="none" stroke="#bcbcbc" stroke-width="8" stroke-linecap="round" stroke-linejoin="round" /><polyline points="644.81,69.64 684.68,97.50 690.05,98.64 693.98,103.14" fill="none" stroke="#bcbcbc" stroke-width="8" stroke-linecap="round" stroke-linejoin="round" /><polyline points="477.40,326.93 482.67,328.96 505.55,336.44 558.61,356.79 561.59,359.76 562.98,361.98" fill="none" stroke="#bcbcbc" stroke-width="8" stroke-linecap="round" stroke-linejoin="round" /><polyline points="576.28,849.85 579.90,840.44 597.73,792.04 610.35,755.47 612.96,754.27" fill="none" stroke="#bcbcbc" stroke-width="8" stroke-linecap="round" stroke-linejoin="round" /><polyline points="324.12,788.48 326.94,782.26 327.22,781.65 332.03,765.49 339.92,738.90 341.94,732.09 343.51,726.81 343.72,723.73 343.40,716.91" fill="none" stroke="#bcbcbc" stroke-width="8" stroke-linecap="round" stroke-linejoin="round" /><polyline points="652.01,388.42 647.48,389.35 637.23,387.52 635.65,383.30 617.89,376.53 613.69,377.62 597.67,371.74 595.28,373.41" fill="none" stroke="#bcbcbc" stroke-width="8" stroke-linecap="round" stroke-linejoin="round" /><polyline points="625.64,-160.89 633.68,-158.92 638.14,-158.15 743.99,-139.80" fill="none" stroke="#bcbcbc" stroke-width="8" stroke-linecap="round" stroke-linejoin="round" /><polyline points="543.36,820.38 547.77,807.97 556.32,783.84 561.85,773.56 569.81,751.28 572.99,742.39" fill="none" stroke="#bcbcbc" stroke-width="8" stroke-linecap="round" stroke-linejoin="round" /><polyline points="-36.63,338.54 -44.30,338.19 -46.22,340.52 -59.58,356.75 -106.27,410.69 -112.84,418.27" fill="none" stroke="#bcbcbc" stroke-width="8" stroke-linecap="round" stroke-linejoin="round" /><polyline points="372.91,384.73 369.53,392.23 369.12,393.13 357.36,423.80 345.51,457.55 342.35,466.55 340.55,471.20" fill="none" stroke="#bcbcbc" stroke-width="8" stroke-linecap="round" stroke-linejoin="round" /><polyline points="545.39,40.19 549.13,45.26 551.80,52.23 555.95,62.23 562.61,77.96 568.51,92.09 575.28,107.60 580.31,119.55 581.05,121.26 581.09,121.37 585.14,130.82 586.35,133.51 587.50,136.07 588.71,138.46 589.63,140.90 589.89,144.09" fill="none" stroke="#bcbcbc" stroke-width="8" stroke-linecap="round" stroke-linejoin="round" /><polyline points="259.42,535.89 261.37,534.82 264.11,532.65 265.48,529.83 283.65,460.94 284.19,457.06 286.41,449.96" fill="none" stroke="#bcbcbc" stroke-width="8" stroke-linecap="round" stroke-linejoin="round" /><polyline points="894.66,428.09 897.23,436.27 899.05,444.86 895.52,477.60 891.43,502.23 889.21,510.63 889.00,511.39 887.05,515.93 884.39,520.74 878.17,528.60 881.18,543.97 871.45,576.96 866.07,595.18 855.07,625.01 838.97,661.32 819.30,696.12 813.16,707.43 802.06,726.01 757.69,788.97 747.97,802.07 710.33,851.26 688.73,875.85 658.50,906.57 655.70,906.86 648.88,912.44" fill="none" stroke="#bcbcbc" stroke-width="8" stroke-linecap="round" stroke-linejoin="round" /><polyline points="347.26,966.69 359.64,928.28 361.66,921.94 364.42,917.94 370.33,900.19 372.26,894.16 396.69,817.67 399.14,809.97 401.17,803.21 430.00,712.47" fill="none" stroke="#bcbcbc" stroke-width="8" stroke-linecap="round" stroke-linejoin="round" /><polyline points="637.36,252.40 648.07,240.70 651.22,236.90 672.85,206.26" fill="none" stroke="#bcbcbc" stroke-width="8" stroke-linecap="round" stroke-linejoin="round" /><polyline points="423.39,257.03 452.87,267.30 454.50,269.94 462.87,272.75 467.84,274.45 491.60,282.48" fill="none" stroke="#bcbcbc" stroke-width="8" stroke-linecap="round" stroke-linejoin="round" /><polyline points="680.34,53.02 693.98,103.14 709.77,162.18 712.16,167.11 712.54,172.72 723.24,192.71 752.13,246.58 758.44,255.90 760.27,258.63 803.43,339.32 823.27,357.35 826.05,360.94 829.98,364.30 867.64,396.50 870.19,398.69 876.96,402.28" fill="none" stroke="#bcbcbc" stroke-width="8" stroke-linecap="round" stroke-linejoin="round" /><polyline points="533.87,974.84 627.80,920.28 644.52,911.73 648.88,912.44" fill="none" stroke="#bcbcbc" stroke-width="8" stroke-linecap="round" stroke-linejoin="round" /><polyline points="635.71,896.79 641.54,889.86 693.85,785.46 697.32,778.62 700.21,771.84 717.11,730.05 722.15,717.46 736.71,673.37 746.16,616.70 747.28,608.45" fill="none" stroke="#bcbcbc" stroke-width="8" stroke-linecap="round" stroke-linejoin="round" /><polyline points="595.33,282.83 594.42,283.77 593.16,288.16 593.03,288.60 587.35,310.47 588.84,316.17 587.60,321.29 585.98,327.99 581.83,332.80 577.11,351.90 571.56,356.10 565.63,360.16 562.98,361.98" fill="none" stroke="#bcbcbc" stroke-width="8" stroke-linecap="round" stroke-linejoin="round" /><polyline points="372.91,384.73 375.33,378.55 389.84,341.34 393.01,333.22 395.61,326.54 414.16,279.02 422.51,259.15 423.39,257.03 429.88,241.34 444.44,205.19 449.77,189.80 450.96,186.27 452.55,182.27" fill="none" stroke="#bcbcbc" stroke-width="8" stroke-linecap="round" stroke-linejoin="round" /><polyline points="535.33,159.17 538.14,167.53 630.25,246.21 680.52,289.95 755.59,355.21 762.14,360.45 765.08,362.29 778.11,374.11 795.51,388.95 834.97,422.60 847.71,433.56 856.17,443.68" fill="none" stroke="#bcbcbc" stroke-width="8" stroke-linecap="round" stroke-linejoin="round" /><polyline points="687.63,23.59 692.31,20.60 719.98,9.10 725.67,3.11" fill="none" stroke="#bcbcbc" stroke-width="8" stroke-linecap="round" stroke-linejoin="round" /><polyline points="719.60,723.82 681.39,712.56 612.22,692.22" fill="none" stroke="#bcbcbc" stroke-width="8" stroke-linecap="round" stroke-linejoin="round" /><polyline points="596.25,-89.03 601.47,-85.43 771.56,-47.58" fill="none" stroke="#bcbcbc" stroke-width="8" stroke-linecap="round" stroke-linejoin="round" /><polyline points="806.35,471.00 797.56,451.44 778.05,404.91 776.60,401.22 773.26,392.72 760.68,360.72 759.89,358.65" fill="none" stroke="#bcbcbc" stroke-width="8" stroke-linecap="round" stroke-linejoin="round" /><polyline points="545.39,40.19 535.95,37.50 529.01,35.44 514.91,31.25 507.74,29.20 503.64,28.06 498.28,26.53" fill="none" stroke="#bcbcbc" stroke-width="8" stroke-linecap="round" stroke-linejoin="round" /><polyline points="299.18,296.10 298.70,294.53 298.26,293.44 296.31,288.60 288.77,271.03 281.61,253.17 280.06,248.95 278.28,244.10 277.00,240.12 274.90,234.17 274.68,233.54 267.82,216.64 255.23,184.89 252.41,183.28 250.40,178.12 246.38,164.18 239.51,146.89 238.02,142.96" fill="none" stroke="#bcbcbc" stroke-width="8" stroke-linecap="round" stroke-linejoin="round" /><polyline points="359.64,928.28 366.79,930.47 389.91,937.52 397.15,939.72" fill="none" stroke="#bcbcbc" stroke-width="8" stroke-linecap="round" stroke-linejoin="round" /><polyline points="791.49,31.91 792.84,26.46 792.29,24.39 791.63,21.90 787.41,6.43 777.99,-26.27 773.03,-42.99 771.56,-47.58 758.43,-94.77 751.34,-120.22 743.99,-139.80 737.35,-157.45 730.74,-169.59 724.31,-176.00 674.99,-236.28 671.34,-240.57 668.92,-244.54" fill="none" stroke="#bcbcbc" stroke-width="8" stroke-linecap="round" stroke-linejoin="round" /><polyline points="589.89,144.09 587.35,145.06 582.64,146.36 582.17,146.49 562.53,151.52 539.94,157.88 535.33,159.17 533.28,159.83 527.85,161.57 523.21,162.86 502.95,168.50 469.64,177.96 457.22,181.10 452.55,182.27 430.35,187.72 416.64,191.54 387.60,199.65 358.89,207.74 355.57,208.67 331.58,215.32 320.52,218.40 314.93,221.04 304.35,226.28 283.34,236.94 281.88,237.68 277.00,240.12 274.03,241.61 269.88,243.79 255.12,251.53 228.23,266.62 205.76,278.38 202.55,280.07 198.26,280.34 195.68,281.71 195.16,281.98 170.79,295.34 165.69,295.31 159.83,298.38 157.79,299.45 156.06,300.35 151.99,302.48 148.78,309.80 134.98,317.19 130.60,319.54 125.85,322.12 106.66,332.57 96.74,337.96 91.74,339.41" fill="none" stroke="#bcbcbc" stroke-width="8" stroke-linecap="round" stroke-linejoin="round" /><polyline points="866.07,595.18 855.83,596.12 823.84,599.05 822.40,599.18 820.36,599.37 817.06,599.67 786.05,602.52 775.26,601.52 762.70,604.67 752.64,607.13 747.28,608.45 733.96,608.95 722.44,608.37 716.56,607.74 711.56,606.23 707.88,604.19 694.16,594.50 660.84,571.61 657.70,569.48 654.50,567.31 652.11,564.99" fill="none" stroke="#bcbcbc" stroke-width="8" stroke-linecap="round" stroke-linejoin="round" /><polyline points="111.36,208.78 123.45,232.45 125.28,239.21 135.47,258.65 139.68,264.21 156.70,297.33 157.79,299.45" fill="none" stroke="#bcbcbc" stroke-width="8" stroke-linecap="round" stroke-linejoin="round" /><polyline points="481.89,419.29 480.08,424.27 479.57,425.81 477.21,432.97 462.25,474.71 454.83,495.44 454.58,496.14 451.59,502.58 449.88,506.41" fill="none" stroke="#bcbcbc" stroke-width="8" stroke-linecap="round" stroke-linejoin="round" /><polyline points="680.34,53.02 678.69,49.47 674.33,48.90 660.23,52.13 657.36,51.76 655.12,48.75 651.13,30.40 672.74,27.06 682.74,24.10 687.63,23.59 692.90,42.33" fill="none" stroke="#bcbcbc" stroke-width="8" stroke-linecap="round" stroke-linejoin="round" /><polyline points="758.44,255.90 764.01,252.77 791.97,235.92 799.44,231.47 812.52,223.68 834.04,209.76 839.06,206.15 876.80,182.74" fill="none" stroke="#bcbcbc" stroke-width="8" stroke-linecap="round" stroke-linejoin="round" /><polyline points="890.38,366.49 880.83,363.65 875.29,359.10 854.09,340.75 853.36,340.11 848.24,335.53 845.23,330.19 791.97,235.92" fill="none" stroke="#bcbcbc" stroke-width="8" stroke-linecap="round" stroke-linejoin="round" /><polyline points="289.35,359.02 372.91,384.73 379.73,386.89 442.08,406.66 443.39,407.07 452.73,410.04 457.32,411.49 463.29,413.13 475.60,417.29 481.89,419.29 487.56,421.09 533.96,435.81 582.95,451.20 587.00,452.47 592.62,449.72" fill="none" stroke="#bcbcbc" stroke-width="8" stroke-linecap="round" stroke-linejoin="round" /><polyline points="535.04,-53.52 571.24,-86.77 577.37,-92.40" fill="none" stroke="#bcbcbc" stroke-width="8" stroke-linecap="round" stroke-linejoin="round" /><polyline points="-71.06,483.15 61.75,497.39" fill="none" stroke="#bcbcbc" stroke-width="8" stroke-linecap="round" stroke-linejoin="round" /><polyline points="329.60,112.44 357.51,102.46 386.31,92.05 404.20,85.09 458.82,65.22 474.67,59.74 477.98,58.60 481.95,57.23 486.41,55.70 486.96,55.51 495.95,51.89 499.87,50.32" fill="none" stroke="#bcbcbc" stroke-width="8" stroke-linecap="round" stroke-linejoin="round" /><polyline points="517.08,787.96 543.36,820.38 559.45,836.58 566.42,841.59 576.28,849.85 585.54,857.63 593.50,865.39 593.70,869.34" fill="none" stroke="#bcbcbc" stroke-width="8" stroke-linecap="round" stroke-linejoin="round" /><polyline points="545.39,40.19 555.69,14.37 572.37,-28.13 596.25,-89.03 608.05,-117.88 625.64,-160.89 640.06,-196.13 642.64,-200.80 655.32,-221.54 656.14,-222.88 660.78,-232.00 668.92,-244.54 673.46,-251.53 679.89,-261.43" fill="none" stroke="#bcbcbc" stroke-width="8" stroke-linecap="round" stroke-linejoin="round" /><polyline points="302.41,730.46 300.72,731.81 299.61,733.42 297.33,740.11 295.77,744.95 288.51,766.65 287.51,769.78 286.89,771.72 280.23,769.81 264.01,764.38 247.94,758.99 235.52,758.28" fill="none" stroke="#bcbcbc" stroke-width="8" stroke-linecap="round" stroke-linejoin="round" /><polyline points="-15.18,881.46 11.30,813.06 14.25,805.62 16.89,798.44 20.09,789.78 24.00,776.15 28.09,759.21 29.76,747.07 30.97,738.25 32.69,731.74 38.92,682.83 46.20,621.12 49.97,591.70 54.17,557.13 61.75,497.39 62.95,487.23 70.61,424.75 70.62,421.27 72.31,402.73 77.19,363.57 78.42,356.74 79.69,352.90 81.69,348.69 83.63,345.41 87.92,340.77 91.75,339.45" fill="none" stroke="#bcbcbc" stroke-width="8" stroke-linecap="round" stroke-linejoin="round" /><polyline points="562.98,361.98 564.43,364.27 569.29,371.86 576.56,383.51 578.31,386.29 581.21,384.09 595.28,373.41" fill="none" stroke="#bcbcbc" stroke-width="8" stroke-linecap="round" stroke-linejoin="round" /><polyline points="572.36,-28.13 715.46,-2.26 730.49,5.65 786.55,33.44 791.49,31.91" fill="none" stroke="#bcbcbc" stroke-width="8" stroke-linecap="round" stroke-linejoin="round" /><polyline points="299.18,296.10 296.64,299.80 273.81,310.94 257.04,332.25 238.95,343.46 226.58,352.80 214.77,362.43 208.72,367.95 198.03,381.51 186.07,398.65 184.10,401.82" fill="none" stroke="#bcbcbc" stroke-width="8" stroke-linecap="round" stroke-linejoin="round" /><polyline points="323.31,311.38 322.32,313.59 320.16,316.75 316.07,321.78 291.95,352.25 279.20,386.61 214.80,362.40" fill="none" stroke="#bcbcbc" stroke-width="8" stroke-linecap="round" stroke-linejoin="round" /><polyline points="621.12,-233.83 647.73,-233.13 648.97,-233.09 654.07,-232.95 660.78,-232.00" fill="none" stroke="#bcbcbc" stroke-width="8" stroke-linecap="round" stroke-linejoin="round" /><polyline points="484.24,633.05 475.16,632.94 398.22,643.27 392.67,643.86 386.33,644.53 349.52,648.41 299.91,653.65 273.62,656.42 259.07,657.96 247.26,659.39 241.20,660.13 234.36,660.96 201.36,664.97 193.46,665.93 169.09,668.60 38.92,682.83" fill="none" stroke="#bcbcbc" stroke-width="8" stroke-linecap="round" stroke-linejoin="round" /><polyline points="370.33,900.19 363.52,898.00 331.68,887.75 325.25,885.68 319.66,883.88 285.93,873.04 279.28,870.91 270.49,868.07 216.80,850.80 210.76,848.85" fill="none" stroke="#bcbcbc" stroke-width="8" stroke-linecap="round" stroke-linejoin="round" /><polyline points="503.44,255.64 521.96,261.41 589.68,282.32 590.31,282.52 595.33,282.83" fill="none" stroke="#bcbcbc" stroke-width="8" stroke-linecap="round" stroke-linejoin="round" /><polyline points="693.98,103.14 786.09,104.76" fill="none" stroke="#bcbcbc" stroke-width="8" stroke-linecap="round" stroke-linejoin="round" /><polyline points="648.88,912.44 635.71,896.79 630.18,890.36 625.44,885.92 619.11,881.20 606.20,873.45 593.70,869.34 568.26,861.49 547.46,854.88 559.45,836.58" fill="none" stroke="#bcbcbc" stroke-width="8" stroke-linecap="round" stroke-linejoin="round" /><polyline points="517.08,787.96 498.75,765.33 495.26,761.02 476.79,735.58 472.61,727.81 473.62,718.56 479.18,718.51 492.92,721.15 513.82,725.17" fill="none" stroke="#bcbcbc" stroke-width="8" stroke-linecap="round" stroke-linejoin="round" /><polyline points="277.22,606.62 280.60,613.90 299.91,653.65 328.63,712.76 332.29,720.30" fill="none" stroke="#bcbcbc" stroke-width="8" stroke-linecap="round" stroke-linejoin="round" /><polyline points="-32.07,786.68 -25.16,789.50 7.19,802.73 14.25,805.62 21.68,808.65 59.76,824.23 66.65,827.05" fill="none" stroke="#bcbcbc" stroke-width="8" stroke-linecap="round" stroke-linejoin="round" /><polyline points="293.12,547.68 360.51,577.16" fill="none" stroke="#bcbcbc" stroke-width="8" stroke-linecap="round" stroke-linejoin="round" /><polyline points="595.33,282.83 605.60,283.37 606.25,283.95 610.86,288.04 617.63,294.08 618.88,296.51 642.21,316.95 643.93,320.21 660.34,334.69 664.47,335.95 677.23,347.12 680.09,348.43 699.34,364.76 703.62,368.56 705.99,372.32" fill="none" stroke="#bcbcbc" stroke-width="8" stroke-linecap="round" stroke-linejoin="round" /><polyline points="-51.09,547.75 54.17,557.13" fill="none" stroke="#bcbcbc" stroke-width="8" stroke-linecap="round" stroke-linejoin="round" /><polyline points="183.94,939.72 187.20,932.78 188.04,929.69 192.61,912.83 209.17,854.44 210.76,848.85 212.43,842.72 219.93,815.29 232.60,768.96 235.52,758.28" fill="none" stroke="#bcbcbc" stroke-width="8" stroke-linecap="round" stroke-linejoin="round" /><polyline points="277.22,606.62 293.12,547.68 259.42,535.89 250.60,541.10 246.57,544.16 243.60,548.19 241.50,553.51 233.75,582.15 240.00,585.33 246.32,586.87 260.29,590.50 270.74,593.83 277.22,606.62" fill="none" stroke="#bcbcbc" stroke-width="8" stroke-linecap="round" stroke-linejoin="round" /><polyline points="233.75,582.15 226.37,581.12 54.17,557.13" fill="none" stroke="#bcbcbc" stroke-width="8" stroke-linecap="round" stroke-linejoin="round" /><polyline points="513.82,725.17 529.79,728.66 572.99,742.39 585.07,746.21 613.73,754.49 642.61,762.82 663.99,769.00 698.19,778.87 705.25,780.91 722.51,786.69 750.92,794.26 753.42,794.73" fill="none" stroke="#bcbcbc" stroke-width="8" stroke-linecap="round" stroke-linejoin="round" /><polyline points="534.08,974.72 528.25,976.18 521.95,993.74 512.18,990.97 467.75,975.83 462.40,974.69 450.51,973.83 396.70,974.05 384.84,972.54 358.06,968.44 347.26,966.69 270.63,954.33 240.95,949.59 184.36,939.79 175.22,937.98 47.51,902.28 39.45,900.03 -15.18,881.46 -28.62,876.69 -62.20,862.77 -81.33,855.54" fill="none" stroke="#bcbcbc" stroke-width="8" stroke-linecap="round" stroke-linejoin="round" /><polyline points="651.13,30.40 645.60,29.26 571.79,37.99 545.39,40.19" fill="none" stroke="#bcbcbc" stroke-width="8" stroke-linecap="round" stroke-linejoin="round" /><polyline points="513.82,725.17 516.41,720.84 531.90,681.06 549.20,620.90 553.62,607.95 555.98,604.42 572.69,550.79 573.52,544.38 574.15,540.20" fill="none" stroke="#bcbcbc" stroke-width="8" stroke-linecap="round" stroke-linejoin="round" /><polyline points="589.89,144.09 591.66,143.42 594.05,141.52 597.68,137.27 644.81,69.64 657.36,51.76" fill="none" stroke="#bcbcbc" stroke-width="8" stroke-linecap="round" stroke-linejoin="round" /><polyline points="799.66,392.52 800.62,389.74 824.31,361.87 826.05,360.94 830.17,355.31 843.95,339.48 848.24,335.53" fill="none" stroke="#bcbcbc" stroke-width="8" stroke-linecap="round" stroke-linejoin="round" /><polyline points="820.36,599.37 820.03,595.64 819.78,592.75 818.53,587.24 817.04,583.64 815.18,574.19 815.01,570.76 813.75,563.11 808.11,560.16 803.60,561.89 795.53,563.82 789.15,564.82 783.03,566.29 774.57,568.22 770.72,569.10" fill="none" stroke="#bcbcbc" stroke-width="8" stroke-linecap="round" stroke-linejoin="round" /><polyline points="197.92,462.48 215.15,422.09 216.11,419.47" fill="none" stroke="#bcbcbc" stroke-width="8" stroke-linecap="round" stroke-linejoin="round" /><polyline points="652.01,388.42 660.31,385.20 664.65,383.52 668.01,380.12 681.86,376.70 686.50,377.89 696.52,375.31 704.17,373.34 705.99,372.32 713.40,370.51 751.30,361.22 759.89,358.65" fill="none" stroke="#bcbcbc" stroke-width="8" stroke-linecap="round" stroke-linejoin="round" /><polyline points="302.41,730.46 320.29,723.97 326.27,722.14 332.29,720.30 343.40,716.91 352.05,715.66 381.57,712.43 387.50,712.11 413.91,712.34 430.00,712.47 436.05,712.16 445.74,713.14 448.78,713.58 454.95,714.46 473.62,718.56" fill="none" stroke="#bcbcbc" stroke-width="8" stroke-linecap="round" stroke-linejoin="round" /><polyline points="387.60,199.65 384.63,189.64 373.63,152.44 360.27,110.03 357.51,102.46 354.71,95.36 351.17,85.13" fill="none" stroke="#bcbcbc" stroke-width="8" stroke-linecap="round" stroke-linejoin="round" /><polyline points="355.60,799.41 357.95,791.99 381.72,717.04 381.57,712.43" fill="none" stroke="#bcbcbc" stroke-width="8" stroke-linecap="round" stroke-linejoin="round" /><polyline points="387.50,712.11 392.20,649.00 392.67,643.86 393.39,637.87 393.41,637.60 393.72,630.28 395.29,610.41 396.17,601.16 397.38,590.65 398.49,583.08 399.48,578.33 400.72,574.74 403.16,566.65 408.21,549.80 414.63,528.05 421.71,505.81 423.16,501.27 424.31,497.98" fill="none" stroke="#bcbcbc" stroke-width="8" stroke-linecap="round" stroke-linejoin="round" /><polyline points="233.75,582.15 232.50,587.74 232.71,589.53 240.38,653.37 241.20,660.13 240.84,667.09 238.83,706.79 237.99,723.38 237.56,731.94 236.79,747.19 236.39,755.13 235.52,758.28" fill="none" stroke="#bcbcbc" stroke-width="8" stroke-linecap="round" stroke-linejoin="round" /><polyline points="197.92,462.48 170.04,454.19 166.50,451.92 149.15,446.87 144.27,446.92 122.47,440.35 118.95,437.75 99.11,431.74 74.77,425.10 74.65,425.09 70.61,424.75" fill="none" stroke="#bcbcbc" stroke-width="8" stroke-linecap="round" stroke-linejoin="round" /><polyline points="705.99,372.32 706.96,373.59 711.00,379.62 718.47,390.76 725.51,397.81 739.03,412.99 736.74,427.02 735.58,432.28 733.97,434.50 737.36,439.52 742.61,450.31 753.09,470.54 758.25,480.50 761.46,489.45 762.91,493.61" fill="none" stroke="#bcbcbc" stroke-width="8" stroke-linecap="round" stroke-linejoin="round" /><polyline points="776.60,401.22 772.71,402.43 747.11,410.39 743.44,411.57 739.03,412.99" fill="none" stroke="#bcbcbc" stroke-width="8" stroke-linecap="round" stroke-linejoin="round" /><polyline points="592.62,449.72 600.62,447.12 658.74,417.45 666.51,413.65 693.90,405.74 720.46,398.27 725.51,397.81" fill="none" stroke="#bcbcbc" stroke-width="8" stroke-linecap="round" stroke-linejoin="round" /><polyline points="598.95,486.45 665.95,455.27 668.77,453.41 675.32,451.50 719.96,438.51 726.73,435.92 733.97,434.50" fill="none" stroke="#bcbcbc" stroke-width="8" stroke-linecap="round" stroke-linejoin="round" /><polyline points="585.28,-167.16 612.40,-163.81 615.12,-163.47 625.64,-160.89" fill="none" stroke="#bcbcbc" stroke-width="8" stroke-linecap="round" stroke-linejoin="round" /><polyline points="817.03,108.56 821.84,107.56 839.81,116.37 842.18,118.71 875.91,175.81 876.80,182.74 881.19,186.39 880.49,188.92 880.38,193.03 880.99,198.79 889.93,235.51 890.72,260.94 891.97,301.55 894.07,356.21 885.51,380.02 880.00,394.54 871.96,415.00 869.63,420.92 868.11,422.57 865.68,438.41" fill="none" stroke="#bcbcbc" stroke-width="8" stroke-linecap="round" stroke-linejoin="round" /><polyline points="879.40,534.87 871.20,531.30 850.69,516.99 823.65,497.98 808.77,485.95 798.73,475.20" fill="none" stroke="#bcbcbc" stroke-width="8" stroke-linecap="round" stroke-linejoin="round" /><polyline points="547.46,854.88 539.41,852.33 526.33,848.18 520.09,846.21 512.76,843.88 503.50,840.95 495.13,838.29 486.85,835.67 449.95,823.96 443.48,821.90 435.46,819.36 433.68,818.80 412.58,813.22 406.62,811.78 399.14,809.97 391.33,808.08 363.15,801.25 355.60,799.41 347.48,796.60 330.52,790.70 324.12,788.48 318.41,786.63 291.84,777.18 288.50,775.19 286.89,771.72" fill="none" stroke="#bcbcbc" stroke-width="8" stroke-linecap="round" stroke-linejoin="round" /><polyline points="668.77,453.41 666.81,446.40 660.98,425.49 658.74,417.45 655.49,411.44 655.19,410.32 653.28,403.24 655.51,400.11 652.83,391.19 652.01,388.42" fill="none" stroke="#bcbcbc" stroke-width="8" stroke-linecap="round" stroke-linejoin="round" /><polyline points="659.02,197.55 664.56,194.94 694.84,178.24 712.16,167.11 724.37,158.78 727.07,156.77 736.89,149.94 747.08,142.41 753.53,137.72 761.21,132.10 787.93,120.04 791.40,120.23 796.46,117.83 817.03,108.56" fill="none" stroke="#bcbcbc" stroke-width="8" stroke-linecap="round" stroke-linejoin="round" /><polyline points="323.31,311.38 327.68,313.16 330.57,314.04 384.73,330.68 393.01,333.22" fill="none" stroke="#bcbcbc" stroke-width="8" stroke-linecap="round" stroke-linejoin="round" /><polyline points="-63.56,433.19 -102.25,421.48" fill="none" stroke="#bcbcbc" stroke-width="8" stroke-linecap="round" stroke-linejoin="round" /><polyline points="561.50,-112.51 571.09,-100.35 572.52,-98.54 577.37,-92.40 582.88,-91.76 594.23,-90.42 596.25,-89.03" fill="none" stroke="#bcbcbc" stroke-width="8" stroke-linecap="round" stroke-linejoin="round" /><polyline points="894.66,428.09 879.45,430.93 863.86,439.40 849.41,447.44 835.75,454.27 819.23,463.24 807.27,470.50 783.64,483.18 691.39,529.59 667.47,540.12 651.67,546.96 643.84,549.52 637.36,550.73 626.76,551.37 611.67,549.24 574.01,540.20 520.55,527.74 450.22,506.52 424.31,497.98 381.89,484.88 341.32,471.50 281.81,448.15 252.05,435.34 216.18,419.39 156.67,386.79 142.72,377.54 107.41,355.33 92.61,340.52 70.40,311.76 33.81,274.04 19.43,261.37" fill="none" stroke="#bcbcbc" stroke-width="8" stroke-linecap="round" stroke-linejoin="round" /><polyline points="606.20,873.45 606.82,869.97 609.07,864.29 630.17,814.91 638.15,796.41 647.54,773.34 649.83,764.90" fill="none" stroke="#bcbcbc" stroke-width="8" stroke-linecap="round" stroke-linejoin="round" /><polyline points="201.36,664.97 177.39,653.37 122.85,626.97 55.94,594.59 49.97,591.70" fill="none" stroke="#bcbcbc" stroke-width="8" stroke-linecap="round" stroke-linejoin="round" /><polyline points="595.33,282.83 601.38,276.64 617.48,260.16 630.25,246.21" fill="none" stroke="#bcbcbc" stroke-width="8" stroke-linecap="round" stroke-linejoin="round" /><polyline points="130.60,319.54 123.95,310.74 92.79,269.48 48.31,233.48" fill="none" stroke="#bcbcbc" stroke-width="8" stroke-linecap="round" stroke-linejoin="round" /><polyline points="-62.44,862.67 -56.35,848.25 -37.01,800.03 -34.67,793.70 -32.07,786.68 -31.08,784.15 -30.82,780.18 -28.34,742.69 -27.63,731.94" fill="none" stroke="#bcbcbc" stroke-width="8" stroke-linecap="round" stroke-linejoin="round" /><polyline points="-75.63,475.06 -63.56,433.19 -47.63,377.95 -45.65,371.12 -43.46,363.35 -38.55,345.96 -38.04,344.13 -36.63,338.54 -34.39,332.22 -33.85,330.69 -31.01,323.67 -25.46,311.41 -23.79,307.88" fill="none" stroke="#bcbcbc" stroke-width="8" stroke-linecap="round" stroke-linejoin="round" /><polyline points="-45.65,371.12 -21.22,377.36 30.53,390.67 60.01,399.85 72.31,402.73" fill="none" stroke="#bcbcbc" stroke-width="8" stroke-linecap="round" stroke-linejoin="round" /><polyline points="457.22,181.10 458.06,176.02 458.89,170.74 462.47,153.08 471.43,111.98 478.78,75.21 480.13,67.59 481.95,57.23 481.96,57.22" fill="none" stroke="#bcbcbc" stroke-width="8" stroke-linecap="round" stroke-linejoin="round" /><polyline points="384.89,972.55 395.80,944.72 397.15,939.72 440.44,829.83 443.48,821.90 445.94,815.18 471.81,739.92 476.79,735.58" fill="none" stroke="#bcbcbc" stroke-width="8" stroke-linecap="round" stroke-linejoin="round" /><polyline points="533.28,159.83 533.27,159.82 531.74,151.77 531.50,150.79 527.76,135.58 527.76,135.53 525.21,125.22 514.41,88.20 513.05,84.24 505.75,64.40 503.38,58.48 501.85,54.66 499.87,50.33 499.87,50.32 499.86,50.30 498.42,34.36 498.28,26.53" fill="none" stroke="#bcbcbc" stroke-width="8" stroke-linecap="round" stroke-linejoin="round" /><polyline points="517.08,787.96 514.31,790.96 510.17,795.89 498.51,828.77 495.13,838.29" fill="none" stroke="#bcbcbc" stroke-width="8" stroke-linecap="round" stroke-linejoin="round" /><polyline points="323.31,311.38 324.91,307.07 325.27,306.06 332.84,284.91 335.68,276.00 358.89,207.74" fill="none" stroke="#bcbcbc" stroke-width="8" stroke-linecap="round" stroke-linejoin="round" /><polyline points="443.39,407.07 445.75,400.78 452.17,383.74 454.88,376.54 456.72,371.67 461.86,357.99 465.26,348.96 465.72,347.75 473.96,325.87 477.40,326.93 479.27,321.85 482.57,312.87 481.94,308.78 490.70,284.93 491.60,282.48 493.26,280.95 494.66,279.67 503.44,255.64 504.72,249.07 517.32,214.04 520.31,211.70 526.37,194.54 525.29,191.91 530.61,175.88 527.85,161.57" fill="none" stroke="#bcbcbc" stroke-width="8" stroke-linecap="round" stroke-linejoin="round" /><polyline points="668.92,-244.54 665.39,-250.33 646.82,-280.79" fill="none" stroke="#bcbcbc" stroke-width="8" stroke-linecap="round" stroke-linejoin="round" /><polyline points="727.07,156.77 812.26,211.55 812.28,211.59 812.28,211.60 828.04,213.64" fill="none" stroke="#bcbcbc" stroke-width="8" stroke-linecap="round" stroke-linejoin="round" /><polyline points="692.90,42.33 783.54,87.83 786.28,89.87 786.09,104.76 787.93,120.04" fill="none" stroke="#bcbcbc" stroke-width="8" stroke-linecap="round" stroke-linejoin="round" /><polyline points="520.09,846.21 516.83,856.15 503.62,896.43 481.16,964.27 479.57,969.08 477.95,973.96 477.50,979.15" fill="none" stroke="#bcbcbc" stroke-width="8" stroke-linecap="round" stroke-linejoin="round" /><polyline points="775.26,601.52 775.80,596.47 775.92,591.75 775.88,591.59 772.67,577.70 771.35,571.90 770.72,569.10 770.07,566.24 766.54,550.71 759.65,519.67 754.65,501.00 753.94,498.12" fill="none" stroke="#bcbcbc" stroke-width="8" stroke-linecap="round" stroke-linejoin="round" /><polyline points="325.25,885.68 327.49,879.29 352.73,807.56 355.60,799.41" fill="none" stroke="#bcbcbc" stroke-width="8" stroke-linecap="round" stroke-linejoin="round" /><polyline points="891.97,301.55 884.54,299.45 834.11,222.07 828.04,213.64" fill="none" stroke="#bcbcbc" stroke-width="8" stroke-linecap="round" stroke-linejoin="round" /><polyline points="62.95,487.23 246.75,531.26 259.42,535.89" fill="none" stroke="#bcbcbc" stroke-width="8" stroke-linecap="round" stroke-linejoin="round" /><polyline points="642.64,-200.80 714.23,-174.28 724.31,-176.00" fill="none" stroke="#bcbcbc" stroke-width="8" stroke-linecap="round" stroke-linejoin="round" />
    <polyline points="226.58,352.80 224.08,345.25 213.31,312.62 209.12,306.18 202.12,285.17 201.52,283.36 202.55,280.07 200.87,274.71 167.20,167.20" fill="none" stroke="#ffffff" stroke-width="16" stroke-linecap="round" stroke-linejoin="round" />
    <polyline points="226.58,352.80 224.08,345.25 213.31,312.62 209.12,306.18 202.12,285.17 201.52,283.36 202.55,280.07 200.87,274.71 167.20,167.20" fill="none" stroke="#111111" stroke-width="9" stroke-linecap="round" stroke-linejoin="round" />
    
            <g transform="translate(226.58,352.80)">
              <circle r="19" fill="#ffffff" stroke="#111111" stroke-width="4" />
              <text text-anchor="middle" dominant-baseline="central" font-family="Helvetica, Arial, sans-serif"
                font-size="18" font-weight="700" fill="#111111">1</text>
            </g>
            
            <g transform="translate(167.20,167.20)">
              <circle r="19" fill="#ffffff" stroke="#111111" stroke-width="4" />
              <text text-anchor="middle" dominant-baseline="central" font-family="Helvetica, Arial, sans-serif"
                font-size="18" font-weight="700" fill="#111111">2</text>
            </g>
            
  </g>
</svg>
