<svg xmlns="http://www.w3.org/2000/svg" width="520" height="520" viewBox="0 0 520 520">
  <rect width="100%" height="100%" fill="#ffffff" />
  <g>
    <polyline points="1014.71,1804.91 1022.01,1843.72 1069.07,2173.02 1061.88,2255.35" fill="none" stroke="#bcbcbc" stroke-width="8" stroke-linecap="round" stroke-linejoin="round" /><polyline points="58.06,4549.15 69.44,4514.16 129.73,4328.71 136.84,4306.85 144.03,4283.91 295.63,3800.37 307.82,3761.49 279.90,3692.70" fill="none" stroke="#bcbcbc" stroke-width="8" stroke-linecap="round" stroke-linejoin="round" /><polyline points="-989.13,4119.08 -991.58,4091.31 -942.01,3813.66 -935.06,3778.93 -929.87,3760.74 -916.23,3690.33 -900.90,3604.15 -884.19,3528.25 -867.62,3452.53 -857.19,3431.17 -850.37,3418.08" fill="none" stroke="#bcbcbc" stroke-width="8" stroke-linecap="round" stroke-linejoin="round" /><polyline points="-701.44,2160.61 -713.22,2124.67 -835.02,1753.13 -840.97,1737.55" fill="none" stroke="#bcbcbc" stroke-width="8" stroke-linecap="round" stroke-linejoin="round" /><polyline points="-1326.42,5430.59 -1322.79,5395.14 -1321.31,5378.87 -1308.05,5232.17 -1293.54,5103.01 -1290.15,5072.84 -1287.00,5036.66 -1286.65,5033.61 -1278.42,4961.67 -1271.33,4888.55 -1263.51,4817.98 -1258.24,4763.04 -1256.05,4729.13 -1254.11,4697.82 -1250.65,4662.54" fill="none" stroke="#bcbcbc" stroke-width="8" stroke-linecap="round" stroke-linejoin="round" /><polyline points="356.57,4635.35 365.25,4608.08 426.37,4415.91 433.32,4394.07 443.18,4362.97 450.26,4340.68 504.35,4107.32" fill="none" stroke="#bcbcbc" stroke-width="8" stroke-linecap="round" stroke-linejoin="round" /><polyline points="118.99,834.22 141.56,837.69 763.53,933.27" fill="none" stroke="#bcbcbc" stroke-width="8" stroke-linecap="round" stroke-linejoin="round" /><polyline points="-1477.73,4590.07 -1542.47,4587.06 -1581.94,4585.22 -1603.39,4584.22 -1622.20,4583.35 -1768.80,4576.53 -1972.71,4567.04 -2069.89,4553.26 -2102.42,4548.65 -2130.65,4543.66 -2321.80,4509.92 -2348.52,4505.20 -2354.44,4504.19 -2387.44,4498.53 -2412.81,4494.18 -2574.78,4479.87 -2605.63,4477.14 -2616.95,4476.14 -2651.97,4473.71 -2720.54,4468.95" fill="none" stroke="#bcbcbc" stroke-width="8" stroke-linecap="round" stroke-linejoin="round" /><polyline points="-537.21,4402.22 -524.67,4366.53 -411.67,4053.25 -275.74,3658.10 -267.03,3633.32 -260.96,3616.00 -256.04,3601.79" fill="none" stroke="#bcbcbc" stroke-width="8" stroke-linecap="round" stroke-linejoin="round" /><polyline points="-2616.95,4476.14 -2619.84,4455.99 -2620.52,4434.12 -2616.23,4390.06 -2606.39,4309.62 -2599.83,4282.61 -2589.18,4185.00 -2587.24,4163.26 -2584.12,4135.31 -2581.80,4114.55 -2577.44,4091.01 -2569.34,4027.70 -2563.72,3979.27 -2555.47,3959.45" fill="none" stroke="#bcbcbc" stroke-width="8" stroke-linecap="round" stroke-linejoin="round" /><polyline points="-2732.60,3934.70 -2581.88,3955.76 -2555.47,3959.45 -2539.10,3962.06 -2471.54,3972.83 -2315.88,3997.63 -2289.17,4002.09" fill="none" stroke="#bcbcbc" stroke-width="8" stroke-linecap="round" stroke-linejoin="round" /><polyline points="41.15,1957.21 42.13,1970.91 44.15,1984.78 49.05,1995.41 58.21,2007.26 75.16,2022.69 115.33,2047.13 425.22,2241.58 616.07,2497.50 760.22,2853.32 769.63,2876.83" fill="none" stroke="#bcbcbc" stroke-width="8" stroke-linecap="round" stroke-linejoin="round" /><polyline points="-8.47,2995.45 -2.05,3006.08 -0.38,3008.84 4.94,3035.68 41.30,3211.52 52.84,3267.33 61.09,3307.08 73.97,3387.65 79.98,3424.81 84.13,3447.48 88.67,3467.95 94.09,3479.90 102.05,3493.72 106.31,3500.25 186.82,3615.54 230.37,3684.13 241.73,3700.53" fill="none" stroke="#bcbcbc" stroke-width="8" stroke-linecap="round" stroke-linejoin="round" /><polyline points="-2319.95,5197.16 -2315.68,5170.77 -2311.69,5151.69 -2310.63,5149.16 -2257.04,5021.71 -2222.89,4938.88 -2212.51,4912.63 -2201.52,4884.83 -2189.58,4860.93 -2187.65,4856.26 -2171.31,4816.76 -2158.68,4781.81 -2147.84,4749.74 -2140.96,4727.07 -2133.25,4699.07 -2124.36,4661.52 -2117.61,4631.06 -2109.55,4588.54 -2107.85,4579.05 -2102.42,4548.65" fill="none" stroke="#bcbcbc" stroke-width="8" stroke-linecap="round" stroke-linejoin="round" /><polyline points="276.54,1638.07 447.42,1757.50 470.44,1762.38 487.29,1781.66" fill="none" stroke="#bcbcbc" stroke-width="8" stroke-linecap="round" stroke-linejoin="round" /><polyline points="-440.99,2741.00 -418.41,2749.68 -320.36,2781.76 -92.92,2869.00 -80.16,2881.72 -74.18,2891.22" fill="none" stroke="#bcbcbc" stroke-width="8" stroke-linecap="round" stroke-linejoin="round" /><polyline points="-17.18,4982.60 -1.69,4942.23 74.77,4734.76 128.83,4578.01 140.04,4572.85" fill="none" stroke="#bcbcbc" stroke-width="8" stroke-linecap="round" stroke-linejoin="round" /><polyline points="-1097.96,4719.53 -1085.90,4692.86 -1084.71,4690.22 -1064.06,4620.96 -1030.25,4506.97 -1021.59,4477.80 -1014.86,4455.13 -1013.96,4441.93 -1015.33,4412.70" fill="none" stroke="#bcbcbc" stroke-width="8" stroke-linecap="round" stroke-linejoin="round" /><polyline points="307.38,3004.55 287.99,3008.55 244.07,3000.74 237.27,2982.61 161.15,2953.59 143.15,2958.29 74.49,2933.08 64.24,2940.23" fill="none" stroke="#bcbcbc" stroke-width="8" stroke-linecap="round" stroke-linejoin="round" /><polyline points="194.37,649.83 228.86,658.28 247.94,661.59 701.65,740.27" fill="none" stroke="#bcbcbc" stroke-width="8" stroke-linecap="round" stroke-linejoin="round" /><polyline points="-158.27,4856.26 -139.40,4803.04 -102.72,4699.61 -79.02,4655.56 -44.91,4560.05 -31.29,4521.93" fill="none" stroke="#bcbcbc" stroke-width="8" stroke-linecap="round" stroke-linejoin="round" /><polyline points="-2644.21,2790.75 -2677.07,2789.24 -2685.31,2799.25 -2742.55,2868.82 -2942.68,3100.03 -2970.83,3132.54" fill="none" stroke="#bcbcbc" stroke-width="8" stroke-linecap="round" stroke-linejoin="round" /><polyline points="-888.85,2988.77 -903.35,3020.89 -905.11,3024.78 -955.51,3156.23 -1006.31,3300.92 -1019.86,3339.51 -1027.54,3359.44" fill="none" stroke="#bcbcbc" stroke-width="8" stroke-linecap="round" stroke-linejoin="round" /><polyline points="-149.57,1511.81 -133.56,1533.54 -122.12,1563.41 -104.33,1606.29 -75.78,1673.74 -50.49,1734.28 -21.47,1800.76 0.07,1851.99 3.25,1859.35 3.45,1859.80 20.78,1900.33 25.96,1911.84 30.89,1922.81 36.09,1933.08 40.02,1943.52 41.15,1957.21" fill="none" stroke="#bcbcbc" stroke-width="8" stroke-linecap="round" stroke-linejoin="round" /><polyline points="-1375.29,3636.73 -1366.91,3632.15 -1355.19,3622.84 -1349.32,3610.75 -1271.46,3315.45 -1269.11,3298.79 -1259.61,3268.37" fill="none" stroke="#bcbcbc" stroke-width="8" stroke-linecap="round" stroke-linejoin="round" /><polyline points="1347.41,3174.62 1358.46,3209.69 1366.23,3246.52 1351.10,3386.88 1333.60,3492.46 1324.05,3528.47 1323.19,3531.73 1314.82,3551.17 1303.41,3571.77 1276.77,3605.47 1289.67,3671.36 1247.94,3812.79 1224.89,3890.90 1177.76,4018.74 1108.73,4174.40 1024.44,4323.58 998.11,4372.06 950.52,4451.71 760.37,4721.63 718.72,4777.77 557.39,4988.63 464.77,5094.02 335.22,5225.72 323.23,5226.95 293.97,5250.88" fill="none" stroke="#bcbcbc" stroke-width="8" stroke-linecap="round" stroke-linejoin="round" /><polyline points="-998.82,5483.44 -945.74,5318.80 -937.06,5291.61 -925.26,5274.48 -899.91,5198.39 -891.66,5172.54 -786.94,4844.63 -776.41,4811.65 -767.73,4782.67 -644.16,4393.69" fill="none" stroke="#bcbcbc" stroke-width="8" stroke-linecap="round" stroke-linejoin="round" /><polyline points="244.60,2421.49 290.49,2371.35 304.03,2355.03 396.74,2223.70" fill="none" stroke="#bcbcbc" stroke-width="8" stroke-linecap="round" stroke-linejoin="round" /><polyline points="-672.51,2441.36 -546.15,2485.35 -539.17,2496.70 -503.29,2508.74 -481.99,2516.02 -380.14,2550.43" fill="none" stroke="#bcbcbc" stroke-width="8" stroke-linecap="round" stroke-linejoin="round" /><polyline points="428.85,1566.80 487.29,1781.66 554.95,2034.77 565.20,2055.87 566.83,2079.95 612.71,2165.62 736.53,2396.55 763.59,2436.49 771.43,2448.18 956.42,2794.09 1041.44,2871.39 1053.37,2886.79 1070.18,2901.17 1231.61,3039.22 1242.56,3048.59 1271.55,3063.98" fill="none" stroke="#bcbcbc" stroke-width="8" stroke-linecap="round" stroke-linejoin="round" /><polyline points="-198.96,5518.39 203.62,5284.50 275.28,5247.85 293.97,5250.88" fill="none" stroke="#bcbcbc" stroke-width="8" stroke-linecap="round" stroke-linejoin="round" /><polyline points="237.53,5183.79 262.51,5154.09 486.75,4706.57 501.61,4677.23 514.01,4648.18 586.45,4469.03 608.02,4415.05 670.45,4226.08 710.93,3983.13 715.73,3947.77" fill="none" stroke="#bcbcbc" stroke-width="8" stroke-linecap="round" stroke-linejoin="round" /><polyline points="64.47,2551.96 60.54,2555.98 55.14,2574.81 54.60,2576.69 30.27,2670.41 36.65,2694.87 31.34,2716.81 24.40,2745.52 6.59,2766.15 -13.62,2848.03 -37.43,2866.02 -62.84,2883.45 -74.18,2891.22" fill="none" stroke="#bcbcbc" stroke-width="8" stroke-linecap="round" stroke-linejoin="round" /><polyline points="-888.85,2988.77 -878.51,2962.24 -816.29,2802.73 -802.73,2767.95 -791.55,2739.30 -712.06,2535.61 -676.27,2450.45 -672.51,2441.36 -644.69,2374.10 -582.29,2219.13 -559.43,2153.15 -554.35,2138.02 -547.51,2120.86" fill="none" stroke="#bcbcbc" stroke-width="8" stroke-linecap="round" stroke-linejoin="round" /><polyline points="-192.71,2021.86 -180.68,2057.68 214.14,2394.97 429.58,2582.44 751.37,2862.22 779.45,2884.69 792.04,2892.56 847.87,2943.25 922.44,3006.86 1091.58,3151.10 1146.21,3198.09 1182.46,3241.45" fill="none" stroke="#bcbcbc" stroke-width="8" stroke-linecap="round" stroke-linejoin="round" /><polyline points="460.08,1440.67 480.12,1427.83 598.75,1378.52 623.12,1352.87" fill="none" stroke="#bcbcbc" stroke-width="8" stroke-linecap="round" stroke-linejoin="round" /><polyline points="597.11,4442.35 433.32,4394.08 136.84,4306.85" fill="none" stroke="#bcbcbc" stroke-width="8" stroke-linecap="round" stroke-linejoin="round" /><polyline points="68.40,957.88 90.77,973.31 819.80,1135.55" fill="none" stroke="#bcbcbc" stroke-width="8" stroke-linecap="round" stroke-linejoin="round" /><polyline points="968.91,3358.57 931.24,3274.73 847.62,3075.28 841.39,3059.43 827.09,3023.02 773.19,2885.85 769.80,2876.96" fill="none" stroke="#bcbcbc" stroke-width="8" stroke-linecap="round" stroke-linejoin="round" /><polyline points="-149.57,1511.81 -190.04,1500.29 -219.78,1491.43 -280.24,1473.48 -310.95,1464.72 -328.54,1459.83 -351.52,1453.25" fill="none" stroke="#bcbcbc" stroke-width="8" stroke-linecap="round" stroke-linejoin="round" /><polyline points="-1204.88,2608.81 -1206.93,2602.11 -1208.82,2597.42 -1217.16,2576.69 -1249.48,2501.34 -1280.19,2424.79 -1286.82,2406.72 -1294.46,2385.90 -1299.93,2368.87 -1308.95,2343.34 -1309.90,2340.65 -1339.28,2268.22 -1393.23,2132.09 -1405.35,2125.18 -1413.96,2103.10 -1431.17,2043.31 -1460.64,1969.21 -1466.99,1952.36" fill="none" stroke="#bcbcbc" stroke-width="8" stroke-linecap="round" stroke-linejoin="round" /><polyline points="-945.74,5318.80 -915.11,5328.18 -815.99,5358.39 -784.95,5367.85" fill="none" stroke="#bcbcbc" stroke-width="8" stroke-linecap="round" stroke-linejoin="round" /><polyline points="905.23,1476.32 911.00,1452.97 908.66,1444.09 905.83,1433.39 887.73,1367.08 847.39,1226.90 826.10,1155.24 819.80,1135.55 763.53,933.27 733.16,824.17 701.65,740.27 673.18,664.59 644.84,612.55 617.30,585.05 405.88,326.66 390.24,308.27 379.87,291.27" fill="none" stroke="#bcbcbc" stroke-width="8" stroke-linecap="round" stroke-linejoin="round" /><polyline points="41.15,1957.21 30.25,1961.38 10.09,1966.94 8.07,1967.50 -76.13,1989.04 -172.94,2016.30 -192.71,2021.87 -201.51,2024.66 -224.77,2032.14 -244.65,2037.67 -331.47,2061.83 -474.25,2102.40 -527.48,2115.85 -547.51,2120.86 -642.66,2144.23 -701.44,2160.61 -825.91,2195.39 -948.94,2230.07 -963.17,2234.02 -1066.00,2262.56 -1113.43,2275.73 -1137.37,2287.05 -1182.71,2309.53 -1272.75,2355.23 -1279.02,2358.41 -1299.93,2368.87 -1312.68,2375.26 -1330.47,2384.58 -1393.73,2417.76 -1508.99,2482.44 -1605.27,2532.88 -1619.05,2540.10 -1637.44,2541.25 -1648.50,2547.12 -1650.70,2548.29 -1755.16,2605.55 -1777.03,2605.45 -1802.14,2618.59 -1810.91,2623.17 -1818.30,2627.05 -1835.76,2636.18 -1849.52,2667.57 -1908.64,2699.24 -1927.43,2709.31 -1947.77,2720.38 -2030.02,2765.14 -2072.54,2788.29 -2093.97,2794.46" fill="none" stroke="#bcbcbc" stroke-width="8" stroke-linecap="round" stroke-linejoin="round" /><polyline points="1224.89,3890.90 1181.00,3894.92 1043.90,3907.48 1037.72,3908.05 1028.98,3908.85 1014.83,3910.15 881.90,3922.36 835.66,3918.07 781.83,3931.56 738.70,3942.13 715.73,3947.77 658.66,3949.93 609.25,3947.42 584.07,3944.74 562.64,3938.26 546.86,3929.53 488.07,3887.96 345.25,3789.85 331.79,3780.72 318.08,3771.41 307.82,3761.49" fill="none" stroke="#bcbcbc" stroke-width="8" stroke-linecap="round" stroke-linejoin="round" /><polyline points="-2009.88,2234.51 -1958.06,2335.98 -1950.21,2364.97 -1906.56,2448.29 -1888.53,2472.12 -1815.57,2614.11 -1810.91,2623.17" fill="none" stroke="#bcbcbc" stroke-width="8" stroke-linecap="round" stroke-linejoin="round" /><polyline points="-421.74,3136.91 -429.50,3158.24 -431.69,3164.87 -441.80,3195.56 -505.92,3374.47 -537.74,3463.31 -538.83,3466.35 -551.61,3493.96 -558.94,3510.37" fill="none" stroke="#bcbcbc" stroke-width="8" stroke-linecap="round" stroke-linejoin="round" /><polyline points="428.85,1566.80 421.74,1551.58 403.05,1549.13 342.62,1562.99 330.34,1561.40 320.72,1548.50 303.62,1469.85 396.24,1455.51 439.12,1442.85 460.08,1440.67 482.67,1520.98" fill="none" stroke="#bcbcbc" stroke-width="8" stroke-linecap="round" stroke-linejoin="round" /><polyline points="763.59,2436.49 787.45,2423.09 907.29,2350.87 939.31,2331.80 995.37,2298.37 1087.60,2238.72 1109.12,2223.24 1270.89,2122.88" fill="none" stroke="#bcbcbc" stroke-width="8" stroke-linecap="round" stroke-linejoin="round" /><polyline points="1329.07,2910.57 1288.17,2898.38 1264.39,2878.88 1173.53,2800.24 1170.43,2797.48 1148.46,2777.87 1135.55,2754.97 907.29,2350.87" fill="none" stroke="#bcbcbc" stroke-width="8" stroke-linecap="round" stroke-linejoin="round" /><polyline points="-1246.99,2878.55 -888.85,2988.77 -859.63,2998.03 -592.37,3082.77 -586.79,3084.54 -546.75,3097.24 -527.06,3103.48 -501.48,3110.48 -448.72,3128.35 -421.74,3136.91 -397.46,3144.61 -198.56,3207.71 11.40,3273.69 28.77,3279.14 52.84,3267.33" fill="none" stroke="#bcbcbc" stroke-width="8" stroke-linecap="round" stroke-linejoin="round" /><polyline points="-193.94,1110.13 -38.80,967.56 -12.54,943.42" fill="none" stroke="#bcbcbc" stroke-width="8" stroke-linecap="round" stroke-linejoin="round" /><polyline points="-2791.78,3410.66 -2222.52,3471.68" fill="none" stroke="#bcbcbc" stroke-width="8" stroke-linecap="round" stroke-linejoin="round" /><polyline points="-1074.51,1821.52 -954.86,1778.73 -831.44,1734.10 -754.76,1704.29 -520.64,1619.13 -452.69,1595.62 -438.51,1590.71 -421.49,1584.86 -402.38,1578.29 -400.04,1577.48 -361.47,1561.98 -344.71,1555.24" fill="none" stroke="#bcbcbc" stroke-width="8" stroke-linecap="round" stroke-linejoin="round" /><polyline points="-270.91,4717.28 -158.27,4856.26 -89.31,4925.70 -59.45,4947.20 -17.18,4982.60 22.51,5015.94 56.62,5049.22 57.46,5066.14" fill="none" stroke="#bcbcbc" stroke-width="8" stroke-linecap="round" stroke-linejoin="round" /><polyline points="-149.57,1511.81 -105.42,1401.14 -33.97,1218.93 68.40,957.88 118.99,834.22 194.37,649.83 256.18,498.78 267.24,478.74 321.60,389.85 325.11,384.11 345.00,345.00 379.87,291.27 399.35,261.29 426.91,218.87" fill="none" stroke="#bcbcbc" stroke-width="8" stroke-linecap="round" stroke-linejoin="round" /><polyline points="-1191.04,4470.80 -1198.27,4476.58 -1203.04,4483.47 -1212.78,4512.18 -1219.51,4532.91 -1250.61,4625.93 -1254.89,4639.36 -1257.55,4647.68 -1286.11,4639.49 -1355.62,4616.18 -1424.50,4593.08 -1477.73,4590.07" fill="none" stroke="#bcbcbc" stroke-width="8" stroke-linecap="round" stroke-linejoin="round" /><polyline points="-2552.27,5118.08 -2438.76,4824.89 -2426.12,4792.97 -2414.79,4762.22 -2401.11,4725.08 -2384.32,4666.64 -2366.82,4594.03 -2359.65,4541.99 -2354.44,4504.19 -2347.09,4476.29 -2320.38,4266.64 -2289.17,4002.09 -2273.02,3875.96 -2255.00,3727.79 -2222.52,3471.68 -2217.37,3428.14 -2184.55,3160.29 -2184.53,3145.38 -2177.28,3065.90 -2156.34,2898.03 -2151.09,2868.75 -2145.62,2852.33 -2137.06,2834.24 -2128.74,2820.20 -2110.36,2800.31 -2093.94,2794.67" fill="none" stroke="#bcbcbc" stroke-width="8" stroke-linecap="round" stroke-linejoin="round" /><polyline points="-74.18,2891.22 -67.97,2901.07 -47.15,2933.57 -15.98,2983.53 -8.47,2995.45 3.96,2986.01 64.24,2940.23" fill="none" stroke="#bcbcbc" stroke-width="8" stroke-linecap="round" stroke-linejoin="round" /><polyline points="-33.97,1218.93 579.36,1329.83 643.77,1363.74 884.07,1482.88 905.23,1476.32" fill="none" stroke="#bcbcbc" stroke-width="8" stroke-linecap="round" stroke-linejoin="round" /><polyline points="-1204.88,2608.81 -1215.76,2624.68 -1313.61,2672.45 -1385.48,2763.80 -1463.03,2811.82 -1516.07,2851.88 -1566.66,2893.16 -1592.61,2916.81 -1638.43,2974.95 -1689.67,3048.40 -1698.11,3062.02" fill="none" stroke="#bcbcbc" stroke-width="8" stroke-linecap="round" stroke-linejoin="round" /><polyline points="-1101.43,2674.34 -1105.67,2683.78 -1114.96,2697.34 -1132.49,2718.92 -1235.85,2849.50 -1290.53,2996.81 -1566.54,2893.05" fill="none" stroke="#bcbcbc" stroke-width="8" stroke-linecap="round" stroke-linejoin="round" /><polyline points="-1516.07,2851.88 -1526.75,2819.52 -1572.94,2679.66 -1590.86,2652.02 -1620.88,2561.97 -1623.47,2554.19 -1619.05,2540.10 -1626.24,2517.15 -1770.56,2056.27" fill="none" stroke="#bcbcbc" stroke-width="8" stroke-linecap="round" stroke-linejoin="round" /><polyline points="-411.67,4053.25 -450.61,4052.77 -780.38,4097.05 -804.15,4099.55 -831.33,4102.42 -989.13,4119.08 -1201.73,4141.54 -1314.43,4153.42 -1376.79,4160.00 -1427.41,4166.16 -1453.40,4169.32 -1482.68,4172.88 -1624.12,4190.07 -1658.02,4194.19 -1762.48,4205.61 -2320.38,4266.64" fill="none" stroke="#bcbcbc" stroke-width="8" stroke-linecap="round" stroke-linejoin="round" /><polyline points="-899.91,5198.39 -929.12,5188.98 -1065.57,5145.06 -1093.15,5136.18 -1117.10,5128.48 -1261.65,5082.01 -1290.15,5072.84 -1327.86,5060.71 -1557.97,4986.64 -1583.87,4978.31" fill="none" stroke="#bcbcbc" stroke-width="8" stroke-linecap="round" stroke-linejoin="round" /><polyline points="-329.37,2435.40 -250.00,2460.13 40.24,2549.77 42.95,2550.61 64.47,2551.96" fill="none" stroke="#bcbcbc" stroke-width="8" stroke-linecap="round" stroke-linejoin="round" /><polyline points="487.29,1781.66 882.10,1788.61" fill="none" stroke="#bcbcbc" stroke-width="8" stroke-linecap="round" stroke-linejoin="round" /><polyline points="293.97,5250.88 237.53,5183.79 213.85,5156.24 193.50,5137.22 166.41,5116.99 111.04,5083.76 57.46,5066.14 -51.55,5032.47 -140.70,5004.17 -89.31,4925.70" fill="none" stroke="#bcbcbc" stroke-width="8" stroke-linecap="round" stroke-linejoin="round" /><polyline points="-270.91,4717.28 -349.50,4620.26 -364.45,4601.80 -443.61,4492.73 -461.52,4459.43 -457.22,4419.78 -433.36,4419.55 -374.48,4430.88 -284.90,4448.12" fill="none" stroke="#bcbcbc" stroke-width="8" stroke-linecap="round" stroke-linejoin="round" /><polyline points="-1298.98,3939.94 -1284.49,3971.12 -1201.73,4141.54 -1078.65,4394.93 -1062.96,4427.24" fill="none" stroke="#bcbcbc" stroke-width="8" stroke-linecap="round" stroke-linejoin="round" /><polyline points="-2624.64,4711.80 -2595.04,4723.90 -2456.39,4780.59 -2426.12,4792.97 -2394.28,4805.99 -2231.05,4872.75 -2201.52,4884.83" fill="none" stroke="#bcbcbc" stroke-width="8" stroke-linecap="round" stroke-linejoin="round" /><polyline points="-1230.87,3687.27 -942.01,3813.66" fill="none" stroke="#bcbcbc" stroke-width="8" stroke-linecap="round" stroke-linejoin="round" /><polyline points="64.47,2551.96 108.46,2554.27 111.27,2556.76 131.02,2574.28 160.03,2600.18 165.38,2610.60 265.39,2698.19 272.79,2712.17 343.11,2774.24 360.80,2779.64 415.51,2827.55 427.76,2833.15 510.26,2903.15 528.62,2919.43 538.76,2935.56" fill="none" stroke="#bcbcbc" stroke-width="8" stroke-linecap="round" stroke-linejoin="round" /><polyline points="-2706.17,3687.56 -2255.00,3727.79" fill="none" stroke="#bcbcbc" stroke-width="8" stroke-linecap="round" stroke-linejoin="round" /><polyline points="-1698.80,5367.83 -1684.82,5338.06 -1681.23,5324.82 -1661.63,5252.57 -1590.66,5002.27 -1583.87,4978.31 -1576.69,4952.03 -1544.54,4834.43 -1490.24,4635.84 -1477.73,4590.07" fill="none" stroke="#bcbcbc" stroke-width="8" stroke-linecap="round" stroke-linejoin="round" /><polyline points="-1298.98,3939.94 -1230.87,3687.27 -1375.29,3636.73 -1413.11,3659.07 -1430.35,3672.18 -1443.11,3689.45 -1452.09,3712.25 -1485.31,3835.04 -1458.51,3848.68 -1431.44,3855.26 -1371.58,3870.84 -1326.78,3885.11 -1298.98,3939.94" fill="none" stroke="#bcbcbc" stroke-width="8" stroke-linecap="round" stroke-linejoin="round" /><polyline points="-1485.31,3835.04 -1516.94,3830.63 -2255.00,3727.79" fill="none" stroke="#bcbcbc" stroke-width="8" stroke-linecap="round" stroke-linejoin="round" /><polyline points="-284.90,4448.12 -216.44,4463.08 -31.29,4521.93 20.47,4538.30 143.35,4573.80 267.13,4609.50 358.77,4635.99 505.33,4678.30 535.60,4687.06 609.57,4711.86 731.33,4744.29 742.07,4746.30" fill="none" stroke="#bcbcbc" stroke-width="8" stroke-linecap="round" stroke-linejoin="round" /><polyline points="-198.05,5517.86 -223.04,5524.13 -250.05,5599.42 -291.92,5587.52 -482.35,5522.61 -505.27,5517.72 -556.26,5514.07 -786.87,5514.99 -837.71,5508.52 -952.51,5490.96 -998.82,5483.44 -1327.26,5430.46 -1454.44,5410.16 -1697.00,5368.14 -1736.16,5360.38 -2283.57,5207.35 -2318.10,5197.68 -2552.27,5118.08 -2609.88,5097.63 -2753.78,5037.99 -2835.80,5006.96" fill="none" stroke="#bcbcbc" stroke-width="8" stroke-linecap="round" stroke-linejoin="round" /><polyline points="303.62,1469.85 279.92,1464.97 -36.45,1502.38 -149.57,1511.81" fill="none" stroke="#bcbcbc" stroke-width="8" stroke-linecap="round" stroke-linejoin="round" /><polyline points="-284.89,4448.11 -273.81,4429.56 -207.42,4259.03 -133.24,4001.16 -114.32,3945.62 -104.19,3930.51 -32.57,3700.58 -29.01,3673.13 -26.31,3655.19" fill="none" stroke="#bcbcbc" stroke-width="8" stroke-linecap="round" stroke-linejoin="round" /><polyline points="41.15,1957.21 48.71,1954.32 58.96,1946.18 74.52,1927.97 276.54,1638.07 330.34,1561.40" fill="none" stroke="#bcbcbc" stroke-width="8" stroke-linecap="round" stroke-linejoin="round" /><polyline points="940.24,3022.14 944.37,3010.25 1045.92,2890.76 1053.37,2886.79 1071.01,2862.65 1130.09,2794.78 1148.46,2777.87" fill="none" stroke="#bcbcbc" stroke-width="8" stroke-linecap="round" stroke-linejoin="round" /><polyline points="1028.98,3908.85 1027.57,3892.86 1026.49,3880.49 1021.14,3856.85 1014.74,3841.42 1006.76,3800.90 1006.04,3786.22 1000.63,3753.42 976.46,3740.79 957.15,3748.18 922.57,3756.46 895.20,3760.74 868.95,3767.07 832.72,3775.33 816.19,3779.10" fill="none" stroke="#bcbcbc" stroke-width="8" stroke-linecap="round" stroke-linejoin="round" /><polyline points="-1638.89,3322.05 -1565.04,3148.90 -1560.93,3137.65" fill="none" stroke="#bcbcbc" stroke-width="8" stroke-linecap="round" stroke-linejoin="round" /><polyline points="307.38,3004.55 342.98,2990.76 361.59,2983.55 375.98,2968.98 435.32,2954.35 455.24,2959.42 498.19,2948.36 530.95,2939.92 538.76,2935.56 570.53,2927.78 732.98,2887.97 769.80,2876.96" fill="none" stroke="#bcbcbc" stroke-width="8" stroke-linecap="round" stroke-linejoin="round" /><polyline points="-1191.03,4470.80 -1114.40,4442.96 -1088.77,4435.13 -1062.96,4427.24 -1015.33,4412.70 -978.28,4407.37 -851.75,4393.52 -826.33,4392.13 -713.12,4393.10 -644.16,4393.69 -618.22,4392.36 -576.68,4396.57 -563.69,4398.43 -537.21,4402.22 -457.22,4419.78" fill="none" stroke="#bcbcbc" stroke-width="8" stroke-linecap="round" stroke-linejoin="round" /><polyline points="-825.91,2195.39 -838.61,2152.46 -885.76,1993.00 -943.03,1811.18 -954.86,1778.73 -966.87,1748.31 -982.04,1704.47" fill="none" stroke="#bcbcbc" stroke-width="8" stroke-linecap="round" stroke-linejoin="round" /><polyline points="-963.05,4766.38 -952.99,4734.57 -851.11,4413.28 -851.75,4393.52" fill="none" stroke="#bcbcbc" stroke-width="8" stroke-linecap="round" stroke-linejoin="round" /><polyline points="-826.33,4392.13 -806.16,4121.61 -804.15,4099.55 -801.06,4073.89 -801.01,4072.72 -799.68,4041.35 -792.95,3956.19 -789.16,3916.53 -783.97,3871.48 -779.24,3839.04 -774.99,3818.67 -769.65,3803.28 -759.18,3768.58 -737.54,3696.36 -710.02,3603.12 -679.68,3507.78 -673.50,3488.33 -668.53,3474.23" fill="none" stroke="#bcbcbc" stroke-width="8" stroke-linecap="round" stroke-linejoin="round" /><polyline points="-1485.31,3835.04 -1490.67,3859.01 -1489.75,3866.67 -1456.89,4140.34 -1453.40,4169.32 -1454.91,4199.13 -1463.52,4369.34 -1467.12,4440.46 -1468.98,4477.13 -1472.28,4542.51 -1474.00,4576.56 -1477.73,4590.07" fill="none" stroke="#bcbcbc" stroke-width="8" stroke-linecap="round" stroke-linejoin="round" /><polyline points="-1638.89,3322.05 -1758.38,3286.53 -1773.57,3276.78 -1847.94,3255.11 -1868.84,3255.33 -1962.28,3227.18 -1977.37,3216.04 -2062.40,3190.26 -2166.73,3161.82 -2167.24,3161.78 -2184.55,3160.29" fill="none" stroke="#bcbcbc" stroke-width="8" stroke-linecap="round" stroke-linejoin="round" /><polyline points="538.76,2935.56 542.91,2941.01 560.23,2966.84 592.27,3014.59 622.42,3044.80 680.38,3109.88 670.59,3170.03 665.61,3192.58 658.70,3202.12 673.23,3223.62 695.71,3269.90 740.64,3356.59 762.77,3399.28 776.53,3437.65 782.74,3455.47" fill="none" stroke="#bcbcbc" stroke-width="8" stroke-linecap="round" stroke-linejoin="round" /><polyline points="841.39,3059.43 824.73,3064.61 715.00,3098.76 699.27,3103.82 680.38,3109.88" fill="none" stroke="#bcbcbc" stroke-width="8" stroke-linecap="round" stroke-linejoin="round" /><polyline points="52.84,3267.33 87.15,3256.21 336.23,3129.00 369.57,3112.71 486.96,3078.80 600.79,3046.79 622.42,3044.80" fill="none" stroke="#bcbcbc" stroke-width="8" stroke-linecap="round" stroke-linejoin="round" /><polyline points="79.98,3424.81 367.13,3291.16 379.22,3283.16 407.30,3274.99 598.64,3219.30 627.66,3208.19 658.70,3202.12" fill="none" stroke="#bcbcbc" stroke-width="8" stroke-linecap="round" stroke-linejoin="round" /><polyline points="21.39,622.95 137.62,637.32 149.30,638.76 194.37,649.83" fill="none" stroke="#bcbcbc" stroke-width="8" stroke-linecap="round" stroke-linejoin="round" /><polyline points="1014.71,1804.91 1035.33,1800.61 1112.35,1838.37 1122.50,1848.41 1267.08,2093.19 1270.89,2122.88 1289.69,2138.54 1286.70,2149.36 1286.24,2167.01 1288.85,2191.68 1327.14,2349.08 1330.53,2458.11 1335.90,2632.18 1344.90,2866.48 1308.23,2968.57 1284.61,3030.82 1250.12,3118.53 1240.13,3143.90 1233.65,3150.98 1223.23,3218.86" fill="none" stroke="#bcbcbc" stroke-width="8" stroke-linecap="round" stroke-linejoin="round" /><polyline points="1282.03,3632.35 1246.86,3617.04 1158.99,3555.71 1043.05,3474.23 979.29,3422.66 936.27,3376.58" fill="none" stroke="#bcbcbc" stroke-width="8" stroke-linecap="round" stroke-linejoin="round" /><polyline points="-140.70,5004.17 -175.24,4993.22 -231.28,4975.45 -258.02,4966.97 -289.43,4957.01 -329.12,4944.42 -365.01,4933.04 -400.48,4921.79 -558.66,4871.58 -586.37,4862.79 -620.78,4851.89 -628.37,4849.49 -718.84,4825.58 -744.39,4819.40 -776.41,4811.65 -809.92,4803.52 -930.67,4774.24 -963.05,4766.38 -997.85,4754.30 -1070.56,4729.05 -1097.96,4719.53 -1122.47,4711.57 -1236.31,4671.09 -1250.65,4662.54 -1257.55,4647.68" fill="none" stroke="#bcbcbc" stroke-width="8" stroke-linecap="round" stroke-linejoin="round" /><polyline points="379.22,3283.16 370.83,3253.10 345.84,3163.47 336.23,3129.00 322.34,3103.24 321.05,3098.46 312.86,3068.12 322.39,3054.68 310.94,3016.43 307.38,3004.55" fill="none" stroke="#bcbcbc" stroke-width="8" stroke-linecap="round" stroke-linejoin="round" /><polyline points="337.43,2186.37 361.19,2175.18 491.00,2103.60 565.20,2055.87 617.54,2020.16 629.10,2011.55 671.22,1982.27 714.87,1950.02 742.51,1929.90 775.46,1905.80 889.98,1854.12 904.83,1854.90 926.54,1844.64 1014.71,1804.91" fill="none" stroke="#bcbcbc" stroke-width="8" stroke-linecap="round" stroke-linejoin="round" /><polyline points="-1101.43,2674.34 -1082.71,2681.94 -1070.33,2685.74 -838.18,2757.06 -802.73,2767.95" fill="none" stroke="#bcbcbc" stroke-width="8" stroke-linecap="round" stroke-linejoin="round" /><polyline points="-2759.61,3196.48 -2925.46,3146.27" fill="none" stroke="#bcbcbc" stroke-width="8" stroke-linecap="round" stroke-linejoin="round" /><polyline points="-80.56,857.24 -39.43,909.34 -33.30,917.12 -12.54,943.42 11.12,946.20 59.75,951.91 68.40,957.88" fill="none" stroke="#bcbcbc" stroke-width="8" stroke-linecap="round" stroke-linejoin="round" /><polyline points="1347.41,3174.62 1282.25,3186.78 1215.43,3223.10 1153.50,3257.57 1094.92,3286.87 1024.14,3325.32 972.88,3356.45 871.59,3410.76 476.19,3609.72 373.68,3654.88 305.94,3684.18 272.38,3695.17 244.62,3700.35 199.16,3703.10 134.48,3693.95 -26.92,3655.19 -256.04,3601.79 -557.48,3510.85 -668.53,3474.23 -850.37,3418.08 -1024.27,3360.72 -1279.33,3260.63 -1406.86,3205.70 -1560.63,3137.35 -1815.69,2997.59 -1875.49,2957.92 -2026.82,2862.72 -2090.28,2799.25 -2185.47,2675.97 -2342.28,2514.25 -2403.92,2459.94" fill="none" stroke="#bcbcbc" stroke-width="8" stroke-linecap="round" stroke-linejoin="round" /><polyline points="111.04,5083.76 113.71,5068.85 123.36,5044.50 213.80,4832.83 247.97,4753.48 288.25,4654.61 298.06,4618.42" fill="none" stroke="#bcbcbc" stroke-width="8" stroke-linecap="round" stroke-linejoin="round" /><polyline points="-1624.12,4190.07 -1726.87,4140.33 -1960.66,4027.16 -2247.42,3888.35 -2273.02,3875.96" fill="none" stroke="#bcbcbc" stroke-width="8" stroke-linecap="round" stroke-linejoin="round" /><polyline points="64.47,2551.96 90.41,2525.39 159.39,2454.76 214.14,2394.98" fill="none" stroke="#bcbcbc" stroke-width="8" stroke-linecap="round" stroke-linejoin="round" /><polyline points="-1927.43,2709.31 -1955.93,2671.56 -2089.49,2494.70 -2280.14,2340.40" fill="none" stroke="#bcbcbc" stroke-width="8" stroke-linecap="round" stroke-linejoin="round" /><polyline points="-2754.80,5037.56 -2728.73,4975.72 -2645.84,4769.02 -2635.79,4741.89 -2624.64,4711.80 -2620.41,4700.93 -2619.29,4683.93 -2608.68,4523.23 -2605.63,4477.14" fill="none" stroke="#bcbcbc" stroke-width="8" stroke-linecap="round" stroke-linejoin="round" /><polyline points="-2811.36,3375.99 -2759.61,3196.48 -2691.33,2959.70 -2682.88,2930.39 -2673.48,2897.10 -2652.44,2822.55 -2650.23,2814.72 -2644.21,2790.75 -2634.59,2763.65 -2632.27,2757.09 -2620.13,2727.00 -2596.31,2674.43 -2589.18,2659.34" fill="none" stroke="#bcbcbc" stroke-width="8" stroke-linecap="round" stroke-linejoin="round" /><polyline points="-2682.88,2930.39 -2578.17,2957.18 -2356.36,3014.20 -2229.99,3053.55 -2177.28,3065.90" fill="none" stroke="#bcbcbc" stroke-width="8" stroke-linecap="round" stroke-linejoin="round" /><polyline points="-527.48,2115.85 -523.91,2094.06 -520.33,2071.43 -504.97,1995.74 -466.59,1819.55 -435.07,1661.95 -429.31,1629.25 -421.49,1584.86 -421.47,1584.82" fill="none" stroke="#bcbcbc" stroke-width="8" stroke-linecap="round" stroke-linejoin="round" /><polyline points="-837.50,5508.55 -790.75,5389.28 -784.95,5367.85 -599.40,4896.78 -586.37,4862.79 -575.82,4833.96 -464.95,4511.36 -443.60,4492.73" fill="none" stroke="#bcbcbc" stroke-width="8" stroke-linecap="round" stroke-linejoin="round" /><polyline points="-201.51,2024.66 -201.52,2024.62 -208.09,1990.12 -209.12,1985.93 -225.15,1920.74 -225.14,1920.53 -236.07,1876.33 -282.37,1717.62 -288.20,1700.62 -319.47,1615.61 -329.63,1590.23 -336.19,1573.86 -344.70,1555.27 -344.71,1555.24 -344.72,1555.16 -350.92,1486.80 -351.52,1453.25" fill="none" stroke="#bcbcbc" stroke-width="8" stroke-linecap="round" stroke-linejoin="round" /><polyline points="-270.91,4717.28 -282.82,4730.14 -300.56,4751.26 -350.54,4892.23 -365.01,4933.04" fill="none" stroke="#bcbcbc" stroke-width="8" stroke-linecap="round" stroke-linejoin="round" /><polyline points="-1101.43,2674.34 -1094.60,2655.84 -1093.06,2651.54 -1060.60,2560.85 -1048.43,2522.65 -948.94,2230.07" fill="none" stroke="#bcbcbc" stroke-width="8" stroke-linecap="round" stroke-linejoin="round" /><polyline points="-586.79,3084.54 -576.64,3057.57 -549.15,2984.53 -537.52,2953.65 -529.65,2932.75 -507.59,2874.14 -493.02,2835.42 -491.06,2830.21 -455.75,2736.42 -440.99,2741.00 -432.99,2719.22 -418.85,2680.70 -421.56,2663.20 -384.00,2560.93 -380.14,2550.43 -373.02,2543.88 -367.04,2538.38 -329.37,2435.40 -323.92,2407.21 -269.88,2257.04 -257.10,2247.04 -231.10,2173.48 -235.72,2162.18 -212.95,2093.48 -224.77,2032.14" fill="none" stroke="#bcbcbc" stroke-width="8" stroke-linecap="round" stroke-linejoin="round" /><polyline points="379.87,291.27 364.73,266.43 285.17,135.87" fill="none" stroke="#bcbcbc" stroke-width="8" stroke-linecap="round" stroke-linejoin="round" /><polyline points="629.10,2011.55 994.24,2246.39 994.34,2246.55 994.34,2246.59 1061.88,2255.35" fill="none" stroke="#bcbcbc" stroke-width="8" stroke-linecap="round" stroke-linejoin="round" /><polyline points="482.67,1520.98 871.17,1716.01 882.89,1724.76 882.11,1788.61 889.98,1854.12" fill="none" stroke="#bcbcbc" stroke-width="8" stroke-linecap="round" stroke-linejoin="round" /><polyline points="-258.02,4966.97 -272.00,5009.60 -328.60,5182.27 -424.88,5473.06 -431.71,5493.69 -438.64,5514.59 -440.57,5536.85" fill="none" stroke="#bcbcbc" stroke-width="8" stroke-linecap="round" stroke-linejoin="round" /><polyline points="835.66,3918.07 837.99,3896.40 838.49,3876.19 838.33,3875.49 824.56,3815.97 818.91,3791.10 816.19,3779.10 813.41,3766.84 798.30,3700.25 768.77,3567.19 747.32,3487.19 744.28,3474.82" fill="none" stroke="#bcbcbc" stroke-width="8" stroke-linecap="round" stroke-linejoin="round" /><polyline points="-1093.15,5136.18 -1083.52,5108.80 -975.34,4801.29 -963.05,4766.38" fill="none" stroke="#bcbcbc" stroke-width="8" stroke-linecap="round" stroke-linejoin="round" /><polyline points="1335.90,2632.18 1304.07,2623.20 1087.92,2291.47 1061.88,2255.35" fill="none" stroke="#bcbcbc" stroke-width="8" stroke-linecap="round" stroke-linejoin="round" /><polyline points="-2217.37,3428.14 -1429.61,3616.90 -1375.29,3636.73" fill="none" stroke="#bcbcbc" stroke-width="8" stroke-linecap="round" stroke-linejoin="round" /><polyline points="267.24,478.74 574.10,592.43 617.30,585.05" fill="none" stroke="#bcbcbc" stroke-width="8" stroke-linecap="round" stroke-linejoin="round" />
    <polyline points="175.00,337.17 289.06,340.17 294.39,340.32 316.24,340.95 345.00,345.00" fill="none" stroke="#ffffff" stroke-width="16" stroke-linecap="round" stroke-linejoin="round" />
    <polyline points="175.00,337.17 289.06,340.17 294.39,340.32 316.24,340.95 345.00,345.00" fill="none" stroke="#111111" stroke-width="9" stroke-linecap="round" stroke-linejoin="round" />
    
            <g transform="translate(175.00,337.17)">
              <circle r="19" fill="#ffffff" stroke="#111111" stroke-width="4" />
              <text text-anchor="middle" dominant-baseline="central" font-family="Helvetica, Arial, sans-serif"
                font-size="18" font-weight="700" fill="#111111">1</text>
            </g>
            
            <g transform="translate(345.00,345.00)">
              <circle r="19" fill="#ffffff" stroke="#111111" stroke-width="4" />
              <text text-anchor="middle" dominant-baseline="central" font-family="Helvetica, Arial, sans-serif"
                font-size="18" font-weight="700" fill="#111111">2</text>
            </g>
            
  </g>
</svg>
