<svg xmlns="http://www.w3.org/2000/svg" width="520" height="520" viewBox="0 0 520 520">
  <rect width="100%" height="100%" fill="#ffffff" />
  <g>
    <polyline points="491.50,113.48 492.21,117.25 496.79,149.27 496.09,157.27" fill="none" stroke="#bcbcbc" stroke-width="8" stroke-linecap="round" stroke-linejoin="round" /><polyline points="398.48,380.26 399.58,376.86 405.45,358.83 406.14,356.71 406.84,354.48 421.58,307.47 422.76,303.69 420.05,297.00" fill="none" stroke="#bcbcbc" stroke-width="8" stroke-linecap="round" stroke-linejoin="round" /><polyline points="296.65,338.45 296.41,335.75 301.23,308.76 301.91,305.39 302.41,303.62 303.74,296.77 305.23,288.39 306.85,281.02 308.46,273.65 309.48,271.58 310.14,270.31" fill="none" stroke="#bcbcbc" stroke-width="8" stroke-linecap="round" stroke-linejoin="round" /><polyline points="324.62,148.06 323.48,144.56 311.63,108.44 311.06,106.93" fill="none" stroke="#bcbcbc" stroke-width="8" stroke-linecap="round" stroke-linejoin="round" /><polyline points="263.85,465.96 264.20,462.51 264.35,460.93 265.64,446.67 267.05,434.11 267.38,431.18 267.68,427.66 267.72,427.36 268.52,420.37 269.21,413.26 269.97,406.40 270.48,401.06 270.69,397.76 270.88,394.72 271.22,391.29" fill="none" stroke="#bcbcbc" stroke-width="8" stroke-linecap="round" stroke-linejoin="round" /><polyline points="427.50,388.64 428.35,385.99 434.29,367.31 434.97,365.19 435.93,362.16 436.61,360.00 441.87,337.31" fill="none" stroke="#bcbcbc" stroke-width="8" stroke-linecap="round" stroke-linejoin="round" /><polyline points="404.40,19.11 406.60,19.45 467.07,28.74" fill="none" stroke="#bcbcbc" stroke-width="8" stroke-linecap="round" stroke-linejoin="round" /><polyline points="249.14,384.24 242.84,383.95 239.00,383.77 236.92,383.67 235.09,383.59 220.83,382.93 201.01,382.00 191.56,380.66 188.39,380.22 185.65,379.73 167.06,376.45 164.46,375.99 163.89,375.89 160.68,375.34 158.21,374.92 142.46,373.53 139.46,373.26 138.36,373.17 134.96,372.93 128.29,372.47" fill="none" stroke="#bcbcbc" stroke-width="8" stroke-linecap="round" stroke-linejoin="round" /><polyline points="340.59,365.98 341.81,362.51 352.80,332.05 366.02,293.64 366.86,291.23 367.45,289.55 367.93,288.17" fill="none" stroke="#bcbcbc" stroke-width="8" stroke-linecap="round" stroke-linejoin="round" /><polyline points="138.36,373.17 138.08,371.21 138.01,369.08 138.43,364.80 139.39,356.98 140.03,354.35 141.06,344.86 141.25,342.75 141.55,340.03 141.78,338.01 142.20,335.73 142.99,329.57 143.54,324.86 144.34,322.94" fill="none" stroke="#bcbcbc" stroke-width="8" stroke-linecap="round" stroke-linejoin="round" /><polyline points="127.12,320.53 141.77,322.58 144.34,322.94 145.93,323.19 152.50,324.24 167.64,326.65 170.23,327.08" fill="none" stroke="#bcbcbc" stroke-width="8" stroke-linecap="round" stroke-linejoin="round" /><polyline points="396.83,128.28 396.93,129.62 397.12,130.97 397.60,132.00 398.49,133.15 400.14,134.65 404.05,137.03 434.18,155.93 452.74,180.81 466.75,215.40 467.67,217.69" fill="none" stroke="#bcbcbc" stroke-width="8" stroke-linecap="round" stroke-linejoin="round" /><polyline points="392.01,229.22 392.63,230.25 392.79,230.52 393.31,233.13 396.85,250.22 397.97,255.65 398.77,259.51 400.02,267.35 400.61,270.96 401.01,273.16 401.45,275.15 401.98,276.32 402.75,277.66 403.17,278.29 411.00,289.50 415.23,296.17 416.34,297.76" fill="none" stroke="#bcbcbc" stroke-width="8" stroke-linecap="round" stroke-linejoin="round" /><polyline points="167.24,443.26 167.66,440.70 168.04,438.84 168.15,438.60 173.36,426.21 176.68,418.15 177.69,415.60 178.76,412.90 179.92,410.58 180.11,410.12 181.69,406.28 182.92,402.88 183.98,399.76 184.65,397.56 185.40,394.84 186.26,391.19 186.92,388.23 187.70,384.09 187.87,383.17 188.39,380.22" fill="none" stroke="#bcbcbc" stroke-width="8" stroke-linecap="round" stroke-linejoin="round" /><polyline points="419.72,97.26 436.34,108.87 438.58,109.34 440.21,111.22" fill="none" stroke="#bcbcbc" stroke-width="8" stroke-linecap="round" stroke-linejoin="round" /><polyline points="349.95,204.48 352.14,205.33 361.68,208.45 383.79,216.93 385.04,218.16 385.62,219.09" fill="none" stroke="#bcbcbc" stroke-width="8" stroke-linecap="round" stroke-linejoin="round" /><polyline points="391.16,422.40 392.67,418.48 400.10,398.31 405.36,383.07 406.45,382.57" fill="none" stroke="#bcbcbc" stroke-width="8" stroke-linecap="round" stroke-linejoin="round" /><polyline points="286.07,396.83 287.24,394.24 287.35,393.98 289.36,387.25 292.65,376.16 293.49,373.33 294.15,371.12 294.23,369.84 294.10,367.00" fill="none" stroke="#bcbcbc" stroke-width="8" stroke-linecap="round" stroke-linejoin="round" /><polyline points="422.72,230.10 420.83,230.49 416.56,229.73 415.90,227.97 408.50,225.15 406.75,225.61 400.07,223.16 399.08,223.85" fill="none" stroke="#bcbcbc" stroke-width="8" stroke-linecap="round" stroke-linejoin="round" /><polyline points="411.73,1.19 415.08,2.01 416.94,2.33 461.06,9.98" fill="none" stroke="#bcbcbc" stroke-width="8" stroke-linecap="round" stroke-linejoin="round" /><polyline points="377.44,410.12 379.28,404.95 382.84,394.89 385.15,390.61 388.46,381.32 389.79,377.62" fill="none" stroke="#bcbcbc" stroke-width="8" stroke-linecap="round" stroke-linejoin="round" /><polyline points="135.71,209.32 132.52,209.17 131.71,210.14 126.15,216.91 106.69,239.39 103.95,242.55" fill="none" stroke="#bcbcbc" stroke-width="8" stroke-linecap="round" stroke-linejoin="round" /><polyline points="306.40,228.57 304.99,231.69 304.82,232.07 299.92,244.85 294.98,258.92 293.66,262.67 292.91,264.60" fill="none" stroke="#bcbcbc" stroke-width="8" stroke-linecap="round" stroke-linejoin="round" /><polyline points="378.29,84.98 379.84,87.10 380.96,90.00 382.69,94.17 385.46,100.73 387.92,106.61 390.74,113.08 392.84,118.06 393.15,118.77 393.17,118.82 394.85,122.75 395.35,123.87 395.83,124.94 396.34,125.94 396.72,126.95 396.83,128.28" fill="none" stroke="#bcbcbc" stroke-width="8" stroke-linecap="round" stroke-linejoin="round" /><polyline points="259.10,291.56 259.91,291.12 261.05,290.21 261.62,289.04 269.20,260.33 269.42,258.71 270.35,255.75" fill="none" stroke="#bcbcbc" stroke-width="8" stroke-linecap="round" stroke-linejoin="round" /><polyline points="523.85,246.64 524.93,250.05 525.68,253.63 524.21,267.27 522.51,277.54 521.58,281.04 521.50,281.35 520.68,283.24 519.57,285.25 516.98,288.52 518.24,294.93 514.18,308.68 511.94,316.27 507.35,328.70 500.64,343.83 492.45,358.34 489.89,363.05 485.26,370.79 466.77,397.03 462.72,402.49 447.03,422.99 438.02,433.24 425.43,446.04 424.26,446.16 421.42,448.48" fill="none" stroke="#bcbcbc" stroke-width="8" stroke-linecap="round" stroke-linejoin="round" /><polyline points="295.71,471.09 300.87,455.09 301.71,452.44 302.86,450.78 305.32,443.38 306.13,440.87 316.31,408.99 317.33,405.78 318.18,402.97 330.19,365.15" fill="none" stroke="#bcbcbc" stroke-width="8" stroke-linecap="round" stroke-linejoin="round" /><polyline points="416.62,173.42 421.08,168.55 422.39,166.96 431.41,154.19" fill="none" stroke="#bcbcbc" stroke-width="8" stroke-linecap="round" stroke-linejoin="round" /><polyline points="327.44,175.35 339.72,179.63 340.40,180.73 343.89,181.90 345.96,182.61 355.87,185.96" fill="none" stroke="#bcbcbc" stroke-width="8" stroke-linecap="round" stroke-linejoin="round" /><polyline points="434.53,90.33 440.21,111.22 446.79,135.83 447.79,137.88 447.95,140.22 452.41,148.55 464.45,171.00 467.08,174.88 467.84,176.02 485.83,209.64 494.10,217.16 495.26,218.66 496.89,220.05 512.59,233.47 513.66,234.38 516.47,235.88" fill="none" stroke="#bcbcbc" stroke-width="8" stroke-linecap="round" stroke-linejoin="round" /><polyline points="373.48,474.49 412.63,451.75 419.60,448.19 421.42,448.48" fill="none" stroke="#bcbcbc" stroke-width="8" stroke-linecap="round" stroke-linejoin="round" /><polyline points="415.93,441.96 418.36,439.07 440.16,395.57 441.61,392.72 442.81,389.89 449.86,372.48 451.95,367.23 458.02,348.86 461.96,325.24 462.43,321.80" fill="none" stroke="#bcbcbc" stroke-width="8" stroke-linecap="round" stroke-linejoin="round" /><polyline points="399.10,186.10 398.72,186.50 398.19,188.33 398.14,188.51 395.77,197.62 396.39,200.00 395.88,202.13 395.20,204.92 393.47,206.93 391.51,214.89 389.19,216.64 386.72,218.33 385.62,219.09" fill="none" stroke="#bcbcbc" stroke-width="8" stroke-linecap="round" stroke-linejoin="round" /><polyline points="306.40,228.57 307.41,225.99 313.46,210.48 314.77,207.10 315.86,204.32 323.59,184.52 327.07,176.24 327.44,175.35 330.14,168.81 336.21,153.75 338.43,147.33 338.93,145.86 339.59,144.19" fill="none" stroke="#bcbcbc" stroke-width="8" stroke-linecap="round" stroke-linejoin="round" /><polyline points="374.09,134.57 375.26,138.05 413.65,170.84 434.60,189.07 465.89,216.27 468.62,218.45 469.85,219.22 475.28,224.14 482.53,230.33 498.97,244.35 504.29,248.92 507.81,253.13" fill="none" stroke="#bcbcbc" stroke-width="8" stroke-linecap="round" stroke-linejoin="round" /><polyline points="437.57,78.07 439.52,76.82 451.05,72.03 453.42,69.53" fill="none" stroke="#bcbcbc" stroke-width="8" stroke-linecap="round" stroke-linejoin="round" /><polyline points="450.89,369.88 434.97,365.19 406.14,356.71" fill="none" stroke="#bcbcbc" stroke-width="8" stroke-linecap="round" stroke-linejoin="round" /><polyline points="399.48,31.13 401.66,32.63 472.55,48.41" fill="none" stroke="#bcbcbc" stroke-width="8" stroke-linecap="round" stroke-linejoin="round" /><polyline points="487.05,264.52 483.38,256.37 475.25,236.98 474.65,235.44 473.26,231.90 468.01,218.56 467.68,217.70" fill="none" stroke="#bcbcbc" stroke-width="8" stroke-linecap="round" stroke-linejoin="round" /><polyline points="378.29,84.98 374.35,83.86 371.46,83.00 365.58,81.26 362.59,80.41 360.88,79.93 358.65,79.29" fill="none" stroke="#bcbcbc" stroke-width="8" stroke-linecap="round" stroke-linejoin="round" /><polyline points="275.67,191.63 275.47,190.98 275.29,190.52 274.48,188.51 271.33,181.18 268.35,173.74 267.70,171.98 266.96,169.96 266.43,168.31 265.55,165.82 265.46,165.56 262.60,158.52 257.35,145.29 256.18,144.61 255.34,142.47 253.67,136.66 250.80,129.45 250.18,127.81" fill="none" stroke="#bcbcbc" stroke-width="8" stroke-linecap="round" stroke-linejoin="round" /><polyline points="300.87,455.09 303.85,456.00 313.48,458.94 316.50,459.86" fill="none" stroke="#bcbcbc" stroke-width="8" stroke-linecap="round" stroke-linejoin="round" /><polyline points="480.85,81.53 481.42,79.26 481.19,78.40 480.91,77.36 479.15,70.91 475.23,57.29 473.16,50.32 472.55,48.41 467.07,28.74 464.12,18.13 461.06,9.98 458.29,2.62 455.53,-2.44 452.86,-5.11 432.30,-30.23 430.78,-32.02 429.77,-33.67" fill="none" stroke="#bcbcbc" stroke-width="8" stroke-linecap="round" stroke-linejoin="round" /><polyline points="396.83,128.28 395.77,128.69 393.81,129.23 393.62,129.28 385.43,131.38 376.01,134.03 374.09,134.57 373.24,134.84 370.97,135.57 369.04,136.11 360.60,138.46 346.72,142.40 341.54,143.71 339.59,144.19 330.34,146.47 324.62,148.06 312.52,151.44 300.56,154.81 299.17,155.20 289.17,157.97 284.56,159.25 282.23,160.35 277.83,162.54 269.07,166.98 268.46,167.29 266.43,168.31 265.19,168.93 263.46,169.83 257.31,173.06 246.10,179.35 236.74,184.25 235.40,184.95 233.61,185.06 232.53,185.63 232.32,185.75 222.16,191.31 220.03,191.30 217.59,192.58 216.74,193.03 216.02,193.40 214.32,194.29 212.99,197.34 207.24,200.42 205.41,201.40 203.43,202.48 195.43,206.83 191.30,209.08 189.22,209.68" fill="none" stroke="#bcbcbc" stroke-width="8" stroke-linecap="round" stroke-linejoin="round" /><polyline points="511.94,316.27 507.67,316.66 494.34,317.88 493.74,317.94 492.89,318.02 491.51,318.14 478.59,319.33 474.09,318.91 468.85,320.22 464.66,321.25 462.43,321.80 456.88,322.01 452.07,321.77 449.62,321.51 447.54,320.88 446.01,320.03 440.29,315.99 426.40,306.45 425.09,305.56 423.76,304.66 422.76,303.69" fill="none" stroke="#bcbcbc" stroke-width="8" stroke-linecap="round" stroke-linejoin="round" /><polyline points="197.39,155.24 202.43,165.11 203.19,167.93 207.44,176.03 209.19,178.34 216.29,192.15 216.74,193.03" fill="none" stroke="#bcbcbc" stroke-width="8" stroke-linecap="round" stroke-linejoin="round" /><polyline points="351.82,242.97 351.07,245.05 350.85,245.69 349.87,248.67 343.64,266.07 340.54,274.70 340.44,275.00 339.19,277.68 338.48,279.28" fill="none" stroke="#bcbcbc" stroke-width="8" stroke-linecap="round" stroke-linejoin="round" /><polyline points="434.53,90.33 433.84,88.85 432.02,88.61 426.15,89.96 424.95,89.81 424.02,88.55 422.35,80.91 431.36,79.51 435.53,78.28 437.57,78.07 439.76,85.88" fill="none" stroke="#bcbcbc" stroke-width="8" stroke-linecap="round" stroke-linejoin="round" /><polyline points="467.08,174.88 469.40,173.58 481.05,166.56 484.17,164.70 489.62,161.45 498.59,155.65 500.68,154.15 516.41,144.39" fill="none" stroke="#bcbcbc" stroke-width="8" stroke-linecap="round" stroke-linejoin="round" /><polyline points="522.07,220.97 518.09,219.78 515.78,217.89 506.94,210.24 506.64,209.97 504.51,208.07 503.25,205.84 481.05,166.56" fill="none" stroke="#bcbcbc" stroke-width="8" stroke-linecap="round" stroke-linejoin="round" /><polyline points="271.57,217.85 306.40,228.57 309.24,229.47 335.23,237.71 335.77,237.88 339.67,239.11 341.58,239.72 344.07,240.40 349.20,242.14 351.82,242.97 354.18,243.72 373.52,249.85 393.94,256.27 395.63,256.80 397.97,255.65" fill="none" stroke="#bcbcbc" stroke-width="8" stroke-linecap="round" stroke-linejoin="round" /><polyline points="373.97,45.93 389.06,32.07 391.61,29.73" fill="none" stroke="#bcbcbc" stroke-width="8" stroke-linecap="round" stroke-linejoin="round" /><polyline points="121.36,269.58 176.71,275.52" fill="none" stroke="#bcbcbc" stroke-width="8" stroke-linecap="round" stroke-linejoin="round" /><polyline points="288.35,115.09 299.98,110.93 311.98,106.60 319.44,103.70 342.20,95.42 348.81,93.13 350.19,92.66 351.85,92.09 353.70,91.45 353.93,91.37 357.68,89.86 359.31,89.21" fill="none" stroke="#bcbcbc" stroke-width="8" stroke-linecap="round" stroke-linejoin="round" /><polyline points="366.49,396.61 377.44,410.12 384.15,416.87 387.05,418.96 391.16,422.40 395.02,425.64 398.34,428.88 398.42,430.52" fill="none" stroke="#bcbcbc" stroke-width="8" stroke-linecap="round" stroke-linejoin="round" /><polyline points="378.29,84.98 382.58,74.23 389.53,56.51 399.48,31.13 404.40,19.11 411.73,1.19 417.74,-13.50 418.82,-15.45 424.10,-24.09 424.44,-24.65 426.38,-28.45 429.77,-33.67 431.66,-36.59 434.34,-40.71" fill="none" stroke="#bcbcbc" stroke-width="8" stroke-linecap="round" stroke-linejoin="round" /><polyline points="277.02,372.65 276.31,373.21 275.85,373.88 274.90,376.67 274.25,378.69 271.22,387.73 270.81,389.03 270.55,389.84 267.77,389.05 261.01,386.78 254.31,384.54 249.14,384.24" fill="none" stroke="#bcbcbc" stroke-width="8" stroke-linecap="round" stroke-linejoin="round" /><polyline points="144.65,435.57 155.69,407.07 156.92,403.97 158.02,400.98 159.35,397.37 160.98,391.69 162.68,384.63 163.38,379.57 163.89,375.89 164.60,373.18 167.20,352.80 170.23,327.08 171.80,314.82 173.56,300.42 176.71,275.52 177.22,271.28 180.41,245.24 180.41,243.79 181.11,236.07 183.15,219.75 183.66,216.90 184.19,215.31 185.03,213.55 185.83,212.18 187.62,210.25 189.22,209.70" fill="none" stroke="#bcbcbc" stroke-width="8" stroke-linecap="round" stroke-linejoin="round" /><polyline points="385.62,219.09 386.22,220.04 388.25,223.20 391.28,228.06 392.01,229.22 393.22,228.30 399.08,223.85" fill="none" stroke="#bcbcbc" stroke-width="8" stroke-linecap="round" stroke-linejoin="round" /><polyline points="389.53,56.51 449.17,67.29 455.43,70.59 478.80,82.17 480.85,81.53" fill="none" stroke="#bcbcbc" stroke-width="8" stroke-linecap="round" stroke-linejoin="round" /><polyline points="275.67,191.63 274.61,193.17 265.10,197.82 258.11,206.70 250.57,211.37 245.41,215.26 240.49,219.28 237.97,221.57 233.51,227.23 228.53,234.37 227.71,235.69" fill="none" stroke="#bcbcbc" stroke-width="8" stroke-linecap="round" stroke-linejoin="round" /><polyline points="285.73,198.00 285.32,198.92 284.41,200.24 282.71,202.34 272.66,215.03 267.34,229.35 240.50,219.26" fill="none" stroke="#bcbcbc" stroke-width="8" stroke-linecap="round" stroke-linejoin="round" /><polyline points="245.41,215.26 244.37,212.12 239.88,198.52 238.14,195.83 235.22,187.08 234.97,186.32 235.40,184.95 234.70,182.72 220.66,137.92" fill="none" stroke="#bcbcbc" stroke-width="8" stroke-linecap="round" stroke-linejoin="round" /><polyline points="409.85,-29.21 420.94,-28.92 421.46,-28.90 423.58,-28.84 426.38,-28.45" fill="none" stroke="#bcbcbc" stroke-width="8" stroke-linecap="round" stroke-linejoin="round" /><polyline points="305.32,443.38 302.48,442.47 289.22,438.20 286.53,437.33 284.21,436.58 270.15,432.07 267.38,431.18 263.71,430.00 241.34,422.80 238.82,421.99" fill="none" stroke="#bcbcbc" stroke-width="8" stroke-linecap="round" stroke-linejoin="round" /><polyline points="360.80,174.77 368.52,177.18 396.74,185.89 397.01,185.97 399.10,186.10" fill="none" stroke="#bcbcbc" stroke-width="8" stroke-linecap="round" stroke-linejoin="round" /><polyline points="440.21,111.22 478.61,111.89" fill="none" stroke="#bcbcbc" stroke-width="8" stroke-linecap="round" stroke-linejoin="round" /><polyline points="421.42,448.48 415.93,441.96 413.62,439.28 411.65,437.43 409.01,435.47 403.63,432.24 398.42,430.52 387.82,427.25 379.15,424.50 384.15,416.87" fill="none" stroke="#bcbcbc" stroke-width="8" stroke-linecap="round" stroke-linejoin="round" /><polyline points="366.49,396.61 358.85,387.18 357.39,385.38 349.69,374.78 347.95,371.54 348.37,367.69 350.69,367.67 356.42,368.77 365.13,370.44" fill="none" stroke="#bcbcbc" stroke-width="8" stroke-linecap="round" stroke-linejoin="round" /><polyline points="266.52,321.04 267.93,324.07 275.98,340.64 287.94,365.27 289.47,368.41" fill="none" stroke="#bcbcbc" stroke-width="8" stroke-linecap="round" stroke-linejoin="round" /><polyline points="137.61,396.08 140.49,397.25 153.97,402.76 156.92,403.97 160.01,405.23 175.89,411.72 178.76,412.90" fill="none" stroke="#bcbcbc" stroke-width="8" stroke-linecap="round" stroke-linejoin="round" /><polyline points="273.14,296.48 301.23,308.76" fill="none" stroke="#bcbcbc" stroke-width="8" stroke-linecap="round" stroke-linejoin="round" /><polyline points="399.10,186.10 403.38,186.33 403.65,186.57 405.57,188.27 408.39,190.79 408.91,191.81 418.64,200.32 419.36,201.68 426.19,207.71 427.91,208.24 433.23,212.90 434.43,213.44 442.45,220.25 444.23,221.83 445.22,223.40" fill="none" stroke="#bcbcbc" stroke-width="8" stroke-linecap="round" stroke-linejoin="round" /><polyline points="129.69,296.50 173.56,300.42" fill="none" stroke="#bcbcbc" stroke-width="8" stroke-linecap="round" stroke-linejoin="round" /><polyline points="227.64,459.85 229.00,456.96 229.35,455.67 231.26,448.65 238.16,424.32 238.82,421.99 239.52,419.43 242.64,408.00 247.92,388.69 249.14,384.24" fill="none" stroke="#bcbcbc" stroke-width="8" stroke-linecap="round" stroke-linejoin="round" /><polyline points="266.52,321.04 273.14,296.48 259.10,291.56 255.42,293.73 253.75,295.01 252.50,296.69 251.63,298.90 248.40,310.84 251.01,312.17 253.64,312.81 259.46,314.32 263.82,315.71 266.52,321.04" fill="none" stroke="#bcbcbc" stroke-width="8" stroke-linecap="round" stroke-linejoin="round" /><polyline points="248.40,310.84 245.32,310.41 173.56,300.42" fill="none" stroke="#bcbcbc" stroke-width="8" stroke-linecap="round" stroke-linejoin="round" /><polyline points="365.13,370.44 371.78,371.90 389.79,377.62 394.82,379.21 406.77,382.66 418.81,386.13 427.72,388.71 441.97,392.82 444.91,393.67 452.10,396.08 463.94,399.24 464.99,399.43" fill="none" stroke="#bcbcbc" stroke-width="8" stroke-linecap="round" stroke-linejoin="round" /><polyline points="373.57,474.44 371.14,475.05 368.52,482.37 364.44,481.21 345.93,474.90 343.70,474.43 338.74,474.07 316.32,474.16 311.37,473.53 300.21,471.82 295.71,471.09 263.77,465.94 251.40,463.97 227.82,459.88 224.01,459.13 170.78,444.25 167.42,443.31 144.65,435.57 139.05,433.59 125.06,427.79 117.08,424.77" fill="none" stroke="#bcbcbc" stroke-width="8" stroke-linecap="round" stroke-linejoin="round" /><polyline points="422.35,80.91 420.05,80.43 389.29,84.07 378.29,84.98" fill="none" stroke="#bcbcbc" stroke-width="8" stroke-linecap="round" stroke-linejoin="round" /><polyline points="365.13,370.44 366.21,368.64 372.66,352.06 379.87,326.99 381.71,321.59 382.70,320.12 389.66,297.77 390.01,295.10 390.27,293.36" fill="none" stroke="#bcbcbc" stroke-width="8" stroke-linecap="round" stroke-linejoin="round" /><polyline points="396.83,128.28 397.57,128.00 398.56,127.21 400.08,125.44 419.72,97.26 424.95,89.81" fill="none" stroke="#bcbcbc" stroke-width="8" stroke-linecap="round" stroke-linejoin="round" /><polyline points="484.26,231.81 484.66,230.66 494.53,219.04 495.26,218.66 496.97,216.31 502.72,209.71 504.51,208.07" fill="none" stroke="#bcbcbc" stroke-width="8" stroke-linecap="round" stroke-linejoin="round" /><polyline points="492.89,318.02 492.75,316.46 492.64,315.26 492.12,312.96 491.50,311.46 490.73,307.52 490.66,306.10 490.13,302.91 487.78,301.68 485.90,302.40 482.54,303.20 479.88,303.62 477.33,304.23 473.80,305.04 472.20,305.40" fill="none" stroke="#bcbcbc" stroke-width="8" stroke-linecap="round" stroke-linejoin="round" /><polyline points="233.47,260.97 240.65,244.14 241.05,243.04" fill="none" stroke="#bcbcbc" stroke-width="8" stroke-linecap="round" stroke-linejoin="round" /><polyline points="422.72,230.10 426.18,228.76 427.99,228.06 429.39,226.65 435.16,225.22 437.10,225.72 441.27,224.64 444.46,223.82 445.22,223.40 448.31,222.64 464.10,218.77 467.68,217.70" fill="none" stroke="#bcbcbc" stroke-width="8" stroke-linecap="round" stroke-linejoin="round" /><polyline points="277.02,372.65 284.47,369.94 286.96,369.18 289.47,368.41 294.10,367.00 297.70,366.48 310.01,365.13 312.48,365.00 323.49,365.09 330.19,365.15 332.72,365.02 336.75,365.43 338.02,365.61 340.59,365.98 348.37,367.69" fill="none" stroke="#bcbcbc" stroke-width="8" stroke-linecap="round" stroke-linejoin="round" /><polyline points="312.52,151.44 311.29,147.27 306.70,131.76 301.13,114.09 299.98,110.93 298.81,107.98 297.34,103.71" fill="none" stroke="#bcbcbc" stroke-width="8" stroke-linecap="round" stroke-linejoin="round" /><polyline points="299.18,401.38 300.16,398.29 310.07,367.06 310.01,365.13" fill="none" stroke="#bcbcbc" stroke-width="8" stroke-linecap="round" stroke-linejoin="round" /><polyline points="312.48,365.00 314.44,338.70 314.64,336.56 314.94,334.06 314.94,333.95 315.07,330.90 315.72,322.62 316.09,318.76 316.60,314.38 317.06,311.23 317.47,309.25 317.99,307.75 319.01,304.38 321.11,297.36 323.79,288.29 326.74,279.03 327.34,277.14 327.82,275.76" fill="none" stroke="#bcbcbc" stroke-width="8" stroke-linecap="round" stroke-linejoin="round" /><polyline points="248.40,310.84 247.88,313.17 247.97,313.92 251.16,340.52 251.50,343.34 251.36,346.24 250.52,362.78 250.17,369.70 249.99,373.26 249.67,379.62 249.50,382.93 249.14,384.24" fill="none" stroke="#bcbcbc" stroke-width="8" stroke-linecap="round" stroke-linejoin="round" /><polyline points="233.47,260.97 221.85,257.52 220.37,256.57 213.14,254.46 211.11,254.48 202.02,251.75 200.55,250.66 192.29,248.16 182.14,245.39 182.09,245.39 180.41,245.24" fill="none" stroke="#bcbcbc" stroke-width="8" stroke-linecap="round" stroke-linejoin="round" /><polyline points="445.22,223.40 445.62,223.93 447.31,226.44 450.42,231.08 453.35,234.02 458.99,240.34 458.04,246.19 457.55,248.38 456.88,249.31 458.29,251.40 460.48,255.90 464.85,264.33 467.00,268.48 468.34,272.21 468.94,273.94" fill="none" stroke="#bcbcbc" stroke-width="8" stroke-linecap="round" stroke-linejoin="round" /><polyline points="474.65,235.44 473.03,235.94 462.36,239.26 460.83,239.75 458.99,240.34" fill="none" stroke="#bcbcbc" stroke-width="8" stroke-linecap="round" stroke-linejoin="round" /><polyline points="397.97,255.65 401.31,254.57 425.52,242.20 428.77,240.62 440.18,237.32 451.25,234.21 453.35,234.02" fill="none" stroke="#bcbcbc" stroke-width="8" stroke-linecap="round" stroke-linejoin="round" /><polyline points="400.61,270.96 428.53,257.97 429.70,257.19 432.44,256.39 451.04,250.98 453.86,249.90 456.88,249.31" fill="none" stroke="#bcbcbc" stroke-width="8" stroke-linecap="round" stroke-linejoin="round" /><polyline points="394.91,-1.43 406.21,-0.03 407.35,0.11 411.73,1.19" fill="none" stroke="#bcbcbc" stroke-width="8" stroke-linecap="round" stroke-linejoin="round" /><polyline points="491.50,113.48 493.50,113.06 500.99,116.73 501.98,117.71 516.04,141.50 516.41,144.39 518.24,145.91 517.95,146.97 517.90,148.68 518.16,151.08 521.88,166.38 522.21,176.98 522.73,193.90 523.61,216.68 520.04,226.61 517.74,232.66 514.39,241.18 513.42,243.65 512.79,244.34 511.78,250.94" fill="none" stroke="#bcbcbc" stroke-width="8" stroke-linecap="round" stroke-linejoin="round" /><polyline points="517.49,291.14 514.07,289.65 505.53,283.69 494.26,275.76 488.06,270.75 483.87,266.27" fill="none" stroke="#bcbcbc" stroke-width="8" stroke-linecap="round" stroke-linejoin="round" /><polyline points="379.15,424.50 375.79,423.44 370.34,421.71 367.74,420.88 364.69,419.92 360.83,418.69 357.34,417.59 353.89,416.49 338.51,411.61 335.81,410.76 332.47,409.70 331.73,409.46 322.93,407.14 320.45,406.54 317.33,405.78 314.07,404.99 302.33,402.15 299.18,401.38 295.80,400.21 288.73,397.75 286.07,396.83 283.68,396.05 272.61,392.12 271.22,391.29 270.55,389.84" fill="none" stroke="#bcbcbc" stroke-width="8" stroke-linecap="round" stroke-linejoin="round" /><polyline points="429.70,257.19 428.89,254.27 426.46,245.55 425.52,242.20 424.17,239.70 424.05,239.23 423.25,236.28 424.18,234.98 423.07,231.26 422.72,230.10" fill="none" stroke="#bcbcbc" stroke-width="8" stroke-linecap="round" stroke-linejoin="round" /><polyline points="425.64,150.56 427.95,149.48 440.57,142.52 447.79,137.88 452.88,134.40 454.00,133.57 458.10,130.72 462.34,127.59 465.03,125.63 468.24,123.29 479.37,118.26 480.82,118.34 482.93,117.34 491.50,113.48" fill="none" stroke="#bcbcbc" stroke-width="8" stroke-linecap="round" stroke-linejoin="round" /><polyline points="285.73,198.00 287.55,198.74 288.75,199.11 311.33,206.04 314.77,207.10" fill="none" stroke="#bcbcbc" stroke-width="8" stroke-linecap="round" stroke-linejoin="round" /><polyline points="124.49,248.76 108.36,243.88" fill="none" stroke="#bcbcbc" stroke-width="8" stroke-linecap="round" stroke-linejoin="round" /><polyline points="385.00,21.35 389.00,26.41 389.59,27.17 391.61,29.73 393.91,30.00 398.64,30.55 399.48,31.13" fill="none" stroke="#bcbcbc" stroke-width="8" stroke-linecap="round" stroke-linejoin="round" /><polyline points="523.85,246.64 517.51,247.82 511.02,251.35 505.00,254.70 499.30,257.55 492.42,261.29 487.43,264.31 477.58,269.59 439.13,288.94 429.17,293.33 422.58,296.18 419.32,297.24 416.62,297.75 412.20,298.01 405.91,297.12 390.21,293.36 367.93,288.17 338.62,279.32 327.82,275.76 310.14,270.31 293.23,264.73 268.43,255.00 256.03,249.66 241.08,243.01 216.27,229.43 210.46,225.57 195.75,216.32 189.57,210.15 180.32,198.16 165.07,182.44 159.08,177.16" fill="none" stroke="#bcbcbc" stroke-width="8" stroke-linecap="round" stroke-linejoin="round" /><polyline points="403.63,432.24 403.89,430.79 404.83,428.42 413.62,407.84 416.94,400.13 420.86,390.52 421.81,387.00" fill="none" stroke="#bcbcbc" stroke-width="8" stroke-linecap="round" stroke-linejoin="round" /><polyline points="234.90,345.36 224.91,340.52 202.18,329.52 174.29,316.02 171.80,314.82" fill="none" stroke="#bcbcbc" stroke-width="8" stroke-linecap="round" stroke-linejoin="round" /><polyline points="399.10,186.10 401.62,183.52 408.33,176.66 413.65,170.84" fill="none" stroke="#bcbcbc" stroke-width="8" stroke-linecap="round" stroke-linejoin="round" /><polyline points="205.41,201.40 202.64,197.73 189.65,180.54 171.11,165.54" fill="none" stroke="#bcbcbc" stroke-width="8" stroke-linecap="round" stroke-linejoin="round" /><polyline points="124.96,427.75 127.49,421.73 135.55,401.64 136.53,399.00 137.61,396.08 138.02,395.02 138.13,393.37 139.17,377.75 139.46,373.26" fill="none" stroke="#bcbcbc" stroke-width="8" stroke-linecap="round" stroke-linejoin="round" /><polyline points="119.46,266.21 124.49,248.76 131.13,225.74 131.95,222.89 132.86,219.66 134.91,212.41 135.13,211.65 135.71,209.32 136.65,206.68 136.87,206.05 138.05,203.12 140.37,198.01 141.06,196.54" fill="none" stroke="#bcbcbc" stroke-width="8" stroke-linecap="round" stroke-linejoin="round" /><polyline points="131.95,222.89 142.13,225.50 163.70,231.04 175.99,234.87 181.11,236.07" fill="none" stroke="#bcbcbc" stroke-width="8" stroke-linecap="round" stroke-linejoin="round" /><polyline points="341.54,143.71 341.89,141.59 342.23,139.39 343.73,132.03 347.46,114.90 350.52,99.58 351.08,96.40 351.85,92.09 351.85,92.08" fill="none" stroke="#bcbcbc" stroke-width="8" stroke-linecap="round" stroke-linejoin="round" /><polyline points="311.39,473.53 315.94,461.94 316.50,459.86 334.55,414.06 335.81,410.76 336.84,407.95 347.62,376.59 349.69,374.78" fill="none" stroke="#bcbcbc" stroke-width="8" stroke-linecap="round" stroke-linejoin="round" /><polyline points="373.24,134.84 373.24,134.84 372.60,131.48 372.50,131.08 370.94,124.74 370.94,124.72 369.88,120.42 365.37,104.99 364.81,103.34 361.77,95.08 360.78,92.61 360.14,91.02 359.31,89.21 359.31,89.21 359.31,89.20 358.71,82.55 358.65,79.29" fill="none" stroke="#bcbcbc" stroke-width="8" stroke-linecap="round" stroke-linejoin="round" /><polyline points="366.49,396.61 365.33,397.86 363.60,399.91 358.74,413.62 357.34,417.59" fill="none" stroke="#bcbcbc" stroke-width="8" stroke-linecap="round" stroke-linejoin="round" /><polyline points="285.73,198.00 286.39,196.20 286.54,195.79 289.70,186.97 290.88,183.26 300.56,154.81" fill="none" stroke="#bcbcbc" stroke-width="8" stroke-linecap="round" stroke-linejoin="round" /><polyline points="335.77,237.88 336.76,235.26 339.43,228.16 340.56,225.16 341.33,223.12 343.47,217.43 344.89,213.66 345.08,213.16 348.51,204.04 349.95,204.48 350.73,202.36 352.10,198.62 351.84,196.92 355.49,186.98 355.87,185.96 356.56,185.32 357.14,184.78 360.80,174.77 361.33,172.03 366.59,157.43 367.83,156.46 370.36,149.31 369.91,148.21 372.12,141.53 370.97,135.57" fill="none" stroke="#bcbcbc" stroke-width="8" stroke-linecap="round" stroke-linejoin="round" /><polyline points="429.77,-33.67 428.30,-36.09 420.56,-48.78" fill="none" stroke="#bcbcbc" stroke-width="8" stroke-linecap="round" stroke-linejoin="round" /><polyline points="454.00,133.57 489.51,156.40 489.52,156.41 489.52,156.42 496.09,157.27" fill="none" stroke="#bcbcbc" stroke-width="8" stroke-linecap="round" stroke-linejoin="round" /><polyline points="439.76,85.88 477.54,104.84 478.68,105.69 478.61,111.89 479.37,118.26" fill="none" stroke="#bcbcbc" stroke-width="8" stroke-linecap="round" stroke-linejoin="round" /><polyline points="367.74,420.88 366.38,425.03 360.88,441.81 351.52,470.08 350.85,472.09 350.18,474.12 349.99,476.29" fill="none" stroke="#bcbcbc" stroke-width="8" stroke-linecap="round" stroke-linejoin="round" /><polyline points="474.09,318.91 474.32,316.81 474.36,314.84 474.35,314.77 473.01,308.99 472.46,306.57 472.20,305.40 471.93,304.21 470.46,297.74 467.58,284.80 465.50,277.02 465.20,275.82" fill="none" stroke="#bcbcbc" stroke-width="8" stroke-linecap="round" stroke-linejoin="round" /><polyline points="286.53,437.33 287.47,434.67 297.99,404.78 299.18,401.38" fill="none" stroke="#bcbcbc" stroke-width="8" stroke-linecap="round" stroke-linejoin="round" /><polyline points="522.73,193.90 519.64,193.03 498.62,160.78 496.09,157.27" fill="none" stroke="#bcbcbc" stroke-width="8" stroke-linecap="round" stroke-linejoin="round" /><polyline points="177.22,271.28 253.82,289.63 259.10,291.56" fill="none" stroke="#bcbcbc" stroke-width="8" stroke-linecap="round" stroke-linejoin="round" /><polyline points="418.82,-15.45 448.65,-4.39 452.86,-5.11" fill="none" stroke="#bcbcbc" stroke-width="8" stroke-linecap="round" stroke-linejoin="round" />
    <polyline points="352.80,332.05 349.01,332.01 316.95,336.31 314.64,336.56 311.99,336.84 296.65,338.45 275.98,340.64 265.02,341.79 258.95,342.43 254.03,343.03 251.50,343.34 248.66,343.68 234.90,345.36 231.61,345.76 221.45,346.87 167.20,352.80" fill="none" stroke="#ffffff" stroke-width="16" stroke-linecap="round" stroke-linejoin="round" />
    <polyline points="352.80,332.05 349.01,332.01 316.95,336.31 314.64,336.56 311.99,336.84 296.65,338.45 275.98,340.64 265.02,341.79 258.95,342.43 254.03,343.03 251.50,343.34 248.66,343.68 234.90,345.36 231.61,345.76 221.45,346.87 167.20,352.80" fill="none" stroke="#111111" stroke-width="9" stroke-linecap="round" stroke-linejoin="round" />
    
            <g transform="translate(352.80,332.05)">
              <circle r="19" fill="#ffffff" stroke="#111111" stroke-width="4" />
              <text text-anchor="middle" dominant-baseline="central" font-family="Helvetica, Arial, sans-serif"
                font-size="18" font-weight="700" fill="#111111">1</text>
            </g>
            
            <g transform="translate(167.20,352.80)">
              <circle r="19" fill="#ffffff" stroke="#111111" stroke-width="4" />
              <text text-anchor="middle" dominant-baseline="central" font-family="Helvetica, Arial, sans-serif"
                font-size="18" font-weight="700" fill="#111111">2</text>
            </g>
            
  </g>
</svg>
