<svg xmlns="http://www.w3.org/2000/svg" width="520" height="520" viewBox="0 0 520 520">
  <rect width="100%" height="100%" fill="#ffffff" />
  <g>
    <polyline points="872.35,-567.79 874.33,-557.27 887.11,-467.93 885.15,-445.60" fill="none" stroke="#bcbcbc" stroke-width="8" stroke-linecap="round" stroke-linejoin="round" /><polyline points="612.76,176.67 615.84,167.18 632.21,116.87 634.13,110.94 636.09,104.72 677.22,-26.46 680.53,-37.01 672.96,-55.67" fill="none" stroke="#bcbcbc" stroke-width="8" stroke-linecap="round" stroke-linejoin="round" /><polyline points="328.59,60.00 327.93,52.47 341.38,-22.85 343.26,-32.27 344.67,-37.21 348.37,-56.31 352.53,-79.69 357.07,-100.28 361.56,-120.82 364.39,-126.62 366.24,-130.17" fill="none" stroke="#bcbcbc" stroke-width="8" stroke-linecap="round" stroke-linejoin="round" /><polyline points="406.66,-471.30 403.46,-481.05 370.41,-581.84 368.80,-586.07" fill="none" stroke="#bcbcbc" stroke-width="8" stroke-linecap="round" stroke-linejoin="round" /><polyline points="237.06,415.79 238.05,406.18 238.45,401.76 242.05,361.97 245.99,326.92 246.90,318.74 247.76,308.93 247.85,308.10 250.09,288.58 252.01,268.75 254.13,249.60 255.56,234.70 256.16,225.50 256.69,217.00 257.62,207.43" fill="none" stroke="#bcbcbc" stroke-width="8" stroke-linecap="round" stroke-linejoin="round" /><polyline points="693.76,200.06 696.12,192.66 712.70,140.53 714.59,134.60 717.26,126.16 719.18,120.12 733.86,56.81" fill="none" stroke="#bcbcbc" stroke-width="8" stroke-linecap="round" stroke-linejoin="round" /><polyline points="629.29,-831.13 635.41,-830.19 804.19,-804.26" fill="none" stroke="#bcbcbc" stroke-width="8" stroke-linecap="round" stroke-linejoin="round" /><polyline points="196.00,187.77 178.44,186.96 167.72,186.46 161.90,186.19 156.80,185.95 117.02,184.10 61.69,181.53 35.31,177.79 26.49,176.54 18.83,175.18 -33.04,166.03 -40.30,164.75 -41.90,164.48 -50.86,162.94 -57.74,161.76 -101.69,157.88 -110.07,157.14 -113.14,156.86 -122.64,156.21 -141.25,154.92" fill="none" stroke="#bcbcbc" stroke-width="8" stroke-linecap="round" stroke-linejoin="round" /><polyline points="451.22,136.81 454.63,127.13 485.29,42.14 522.18,-65.06 524.54,-71.78 526.19,-76.48 527.52,-80.33" fill="none" stroke="#bcbcbc" stroke-width="8" stroke-linecap="round" stroke-linejoin="round" /><polyline points="-113.14,156.86 -113.92,151.40 -114.11,145.47 -112.94,133.51 -110.27,111.69 -108.49,104.37 -105.60,77.88 -105.07,71.99 -104.23,64.40 -103.60,58.77 -102.41,52.39 -100.22,35.21 -98.69,22.07 -96.45,16.70" fill="none" stroke="#bcbcbc" stroke-width="8" stroke-linecap="round" stroke-linejoin="round" /><polyline points="-144.52,9.98 -103.62,15.70 -96.45,16.70 -92.01,17.40 -73.68,20.33 -31.44,27.06 -24.19,28.26" fill="none" stroke="#bcbcbc" stroke-width="8" stroke-linecap="round" stroke-linejoin="round" /><polyline points="608.17,-526.48 608.43,-522.76 608.98,-519.00 610.31,-516.11 612.80,-512.90 617.40,-508.71 628.30,-502.08 712.39,-449.33 764.18,-379.91 803.30,-283.38 805.85,-277.00" fill="none" stroke="#bcbcbc" stroke-width="8" stroke-linecap="round" stroke-linejoin="round" /><polyline points="594.70,-244.82 596.45,-241.94 596.90,-241.19 598.34,-233.91 608.21,-186.21 611.34,-171.06 613.58,-160.28 617.07,-138.42 618.70,-128.34 619.83,-122.19 621.06,-116.64 622.53,-113.40 624.69,-109.65 625.85,-107.88 647.70,-76.60 659.52,-57.99 662.60,-53.54" fill="none" stroke="#bcbcbc" stroke-width="8" stroke-linecap="round" stroke-linejoin="round" /><polyline points="-32.54,352.47 -31.38,345.31 -30.30,340.13 -30.01,339.44 -15.47,304.87 -6.20,282.40 -3.39,275.28 -0.41,267.74 2.83,261.25 3.36,259.99 7.79,249.27 11.22,239.79 14.16,231.09 16.03,224.94 18.12,217.34 20.53,207.16 22.36,198.89 24.55,187.36 25.01,184.78 26.49,176.54" fill="none" stroke="#bcbcbc" stroke-width="8" stroke-linecap="round" stroke-linejoin="round" /><polyline points="672.04,-613.06 718.41,-580.66 724.66,-579.33 729.23,-574.10" fill="none" stroke="#bcbcbc" stroke-width="8" stroke-linecap="round" stroke-linejoin="round" /><polyline points="477.33,-313.85 483.46,-311.49 510.07,-302.79 571.78,-279.12 575.25,-275.67 576.87,-273.10" fill="none" stroke="#bcbcbc" stroke-width="8" stroke-linecap="round" stroke-linejoin="round" /><polyline points="592.34,294.26 596.54,283.31 617.29,227.03 631.96,184.50 635.00,183.10" fill="none" stroke="#bcbcbc" stroke-width="8" stroke-linecap="round" stroke-linejoin="round" /><polyline points="299.06,222.89 302.33,215.66 302.65,214.94 308.26,196.15 317.43,165.23 319.78,157.32 321.61,151.17 321.85,147.59 321.48,139.66" fill="none" stroke="#bcbcbc" stroke-width="8" stroke-linecap="round" stroke-linejoin="round" /><polyline points="680.41,-242.35 675.15,-241.27 663.23,-243.39 661.39,-248.30 640.73,-256.18 635.85,-254.90 617.21,-261.74 614.43,-259.80" fill="none" stroke="#bcbcbc" stroke-width="8" stroke-linecap="round" stroke-linejoin="round" /><polyline points="649.74,-881.15 659.10,-878.86 664.28,-877.96 787.40,-856.61" fill="none" stroke="#bcbcbc" stroke-width="8" stroke-linecap="round" stroke-linejoin="round" /><polyline points="554.05,259.99 559.17,245.55 569.13,217.49 575.56,205.54 584.81,179.63 588.51,169.29" fill="none" stroke="#bcbcbc" stroke-width="8" stroke-linecap="round" stroke-linejoin="round" /><polyline points="-120.53,-300.35 -129.45,-300.76 -131.69,-298.05 -147.22,-279.17 -201.53,-216.45 -209.17,-207.63" fill="none" stroke="#bcbcbc" stroke-width="8" stroke-linecap="round" stroke-linejoin="round" /><polyline points="355.80,-246.63 351.87,-237.92 351.39,-236.86 337.71,-201.20 323.93,-161.95 320.25,-151.48 318.17,-146.08" fill="none" stroke="#bcbcbc" stroke-width="8" stroke-linecap="round" stroke-linejoin="round" /><polyline points="556.41,-647.31 560.76,-641.41 563.86,-633.31 568.69,-621.68 576.44,-603.38 583.30,-586.96 591.18,-568.92 597.02,-555.02 597.88,-553.03 597.94,-552.90 602.64,-541.91 604.04,-538.79 605.38,-535.81 606.80,-533.03 607.86,-530.19 608.17,-526.48" fill="none" stroke="#bcbcbc" stroke-width="8" stroke-linecap="round" stroke-linejoin="round" /><polyline points="223.80,-70.85 226.07,-72.09 229.26,-74.62 230.85,-77.90 251.98,-158.01 252.62,-162.53 255.19,-170.78" fill="none" stroke="#bcbcbc" stroke-width="8" stroke-linecap="round" stroke-linejoin="round" /><polyline points="962.64,-196.21 965.63,-186.70 967.74,-176.71 963.64,-138.63 958.89,-109.99 956.30,-100.22 956.06,-99.34 953.79,-94.06 950.70,-88.47 943.47,-79.33 946.97,-61.46 935.64,-23.09 929.39,-1.90 916.60,32.78 897.87,75.01 874.99,115.48 867.85,128.63 854.93,150.24 803.34,223.46 792.03,238.69 748.25,295.90 723.12,324.49 687.97,360.21 684.71,360.55 676.77,367.04" fill="none" stroke="#bcbcbc" stroke-width="8" stroke-linecap="round" stroke-linejoin="round" /><polyline points="325.96,430.13 340.36,385.46 342.72,378.09 345.92,373.44 352.80,352.80 355.04,345.79 383.46,256.83 386.31,247.88 388.67,240.02 422.20,134.50" fill="none" stroke="#bcbcbc" stroke-width="8" stroke-linecap="round" stroke-linejoin="round" /><polyline points="663.38,-400.53 675.83,-414.13 679.50,-418.56 704.66,-454.19" fill="none" stroke="#bcbcbc" stroke-width="8" stroke-linecap="round" stroke-linejoin="round" /><polyline points="414.51,-395.14 448.80,-383.20 450.69,-380.12 460.43,-376.86 466.21,-374.88 493.84,-365.55" fill="none" stroke="#bcbcbc" stroke-width="8" stroke-linecap="round" stroke-linejoin="round" /><polyline points="713.37,-632.39 729.23,-574.10 747.59,-505.44 750.38,-499.71 750.82,-493.18 763.27,-469.94 796.87,-407.29 804.21,-396.46 806.34,-393.29 856.54,-299.45 879.61,-278.48 882.84,-274.30 887.41,-270.40 931.21,-232.95 934.18,-230.41 942.05,-226.23" fill="none" stroke="#bcbcbc" stroke-width="8" stroke-linecap="round" stroke-linejoin="round" /><polyline points="543.01,439.61 652.26,376.16 671.70,366.22 676.77,367.04" fill="none" stroke="#bcbcbc" stroke-width="8" stroke-linecap="round" stroke-linejoin="round" /><polyline points="661.46,348.84 668.24,340.78 729.09,219.38 733.12,211.42 736.48,203.54 756.14,154.94 761.99,140.29 778.93,89.03 789.92,23.12 791.22,13.53" fill="none" stroke="#bcbcbc" stroke-width="8" stroke-linecap="round" stroke-linejoin="round" /><polyline points="614.49,-365.13 613.43,-364.04 611.96,-358.93 611.82,-358.42 605.21,-333.00 606.95,-326.36 605.51,-320.41 603.62,-312.62 598.79,-307.03 593.30,-284.81 586.84,-279.93 579.95,-275.21 576.87,-273.10" fill="none" stroke="#bcbcbc" stroke-width="8" stroke-linecap="round" stroke-linejoin="round" /><polyline points="355.80,-246.63 358.61,-253.83 375.49,-297.10 379.17,-306.54 382.21,-314.31 403.78,-369.57 413.49,-392.67 414.51,-395.14 422.06,-413.38 438.99,-455.42 445.19,-473.32 446.57,-477.43 448.43,-482.08" fill="none" stroke="#bcbcbc" stroke-width="8" stroke-linecap="round" stroke-linejoin="round" /><polyline points="544.71,-508.94 547.97,-499.22 655.11,-407.72 713.57,-356.86 800.89,-280.96 808.51,-274.87 811.93,-272.73 827.08,-258.98 847.32,-241.72 893.21,-202.60 908.04,-189.85 917.87,-178.08" fill="none" stroke="#bcbcbc" stroke-width="8" stroke-linecap="round" stroke-linejoin="round" /><polyline points="721.85,-666.61 727.29,-670.09 759.48,-683.47 766.09,-690.43" fill="none" stroke="#bcbcbc" stroke-width="8" stroke-linecap="round" stroke-linejoin="round" /><polyline points="759.03,147.70 714.59,134.60 634.13,110.94" fill="none" stroke="#bcbcbc" stroke-width="8" stroke-linecap="round" stroke-linejoin="round" /><polyline points="615.56,-797.58 621.63,-793.39 819.46,-749.38" fill="none" stroke="#bcbcbc" stroke-width="8" stroke-linecap="round" stroke-linejoin="round" /><polyline points="859.93,-146.31 849.70,-169.06 827.01,-223.16 825.32,-227.46 821.44,-237.34 806.81,-274.55 805.89,-276.97" fill="none" stroke="#bcbcbc" stroke-width="8" stroke-linecap="round" stroke-linejoin="round" /><polyline points="556.41,-647.31 545.43,-650.43 537.36,-652.84 520.96,-657.71 512.62,-660.08 507.85,-661.41 501.61,-663.20" fill="none" stroke="#bcbcbc" stroke-width="8" stroke-linecap="round" stroke-linejoin="round" /><polyline points="270.04,-349.71 269.49,-351.53 268.98,-352.80 266.71,-358.43 257.94,-378.87 249.61,-399.63 247.81,-404.53 245.74,-410.18 244.25,-414.80 241.80,-421.73 241.54,-422.46 233.57,-442.11 218.93,-479.04 215.64,-480.91 213.31,-486.90 208.64,-503.12 200.64,-523.22 198.92,-527.79" fill="none" stroke="#bcbcbc" stroke-width="8" stroke-linecap="round" stroke-linejoin="round" /><polyline points="340.36,385.46 348.68,388.01 375.57,396.21 384.00,398.77" fill="none" stroke="#bcbcbc" stroke-width="8" stroke-linecap="round" stroke-linejoin="round" /><polyline points="842.65,-656.93 844.21,-663.27 843.58,-665.68 842.81,-668.58 837.90,-686.57 826.95,-724.60 821.17,-744.04 819.46,-749.38 804.19,-804.26 795.95,-833.85 787.40,-856.61 779.68,-877.15 771.99,-891.26 764.51,-898.72 707.14,-968.82 702.90,-973.81 700.08,-978.42" fill="none" stroke="#bcbcbc" stroke-width="8" stroke-linecap="round" stroke-linejoin="round" /><polyline points="608.17,-526.48 605.21,-525.35 599.74,-523.84 599.19,-523.69 576.34,-517.84 550.07,-510.45 544.71,-508.94 542.32,-508.18 536.01,-506.15 530.61,-504.65 507.05,-498.10 468.31,-487.09 453.86,-483.44 448.43,-482.08 422.61,-475.74 406.66,-471.30 372.88,-461.87 339.50,-452.46 335.63,-451.39 307.73,-443.64 294.86,-440.07 288.36,-437.00 276.06,-430.90 251.63,-418.50 249.92,-417.64 244.25,-414.80 240.79,-413.07 235.96,-410.54 218.80,-401.54 187.52,-383.99 161.39,-370.31 157.66,-368.35 152.66,-368.04 149.66,-366.44 149.07,-366.13 120.72,-350.60 114.78,-350.62 107.97,-347.06 105.59,-345.81 103.58,-344.76 98.85,-342.28 95.11,-333.77 79.07,-325.18 73.97,-322.45 68.45,-319.44 46.13,-307.30 34.59,-301.02 28.78,-299.35" fill="none" stroke="#bcbcbc" stroke-width="8" stroke-linecap="round" stroke-linejoin="round" /><polyline points="929.39,-1.90 917.48,-0.81 880.28,2.60 878.60,2.75 876.23,2.97 872.39,3.32 836.31,6.63 823.77,5.47 809.16,9.13 797.46,12.00 791.22,13.53 775.73,14.11 762.33,13.43 755.50,12.71 749.68,10.95 745.40,8.58 729.45,-2.70 690.69,-29.31 687.04,-31.79 683.32,-34.31 680.53,-37.01" fill="none" stroke="#bcbcbc" stroke-width="8" stroke-linecap="round" stroke-linejoin="round" /><polyline points="51.60,-451.25 65.66,-423.72 67.79,-415.86 79.64,-393.26 84.53,-386.79 104.33,-348.27 105.59,-345.81" fill="none" stroke="#bcbcbc" stroke-width="8" stroke-linecap="round" stroke-linejoin="round" /><polyline points="482.56,-206.45 480.45,-200.66 479.86,-198.86 477.11,-190.53 459.71,-142.00 451.08,-117.90 450.78,-117.07 447.31,-109.58 445.33,-105.13" fill="none" stroke="#bcbcbc" stroke-width="8" stroke-linecap="round" stroke-linejoin="round" /><polyline points="713.37,-632.39 711.44,-636.52 706.37,-637.18 689.97,-633.42 686.64,-633.86 684.03,-637.35 679.39,-658.69 704.53,-662.58 716.16,-666.02 721.85,-666.61 727.98,-644.82" fill="none" stroke="#bcbcbc" stroke-width="8" stroke-linecap="round" stroke-linejoin="round" /><polyline points="804.21,-396.46 810.68,-400.09 843.20,-419.69 851.89,-424.86 867.11,-433.93 892.13,-450.11 897.97,-454.31 941.87,-481.54" fill="none" stroke="#bcbcbc" stroke-width="8" stroke-linecap="round" stroke-linejoin="round" /><polyline points="957.66,-267.85 946.56,-271.15 940.11,-276.44 915.45,-297.78 914.61,-298.53 908.65,-303.85 905.15,-310.06 843.20,-419.69" fill="none" stroke="#bcbcbc" stroke-width="8" stroke-linecap="round" stroke-linejoin="round" /><polyline points="258.62,-276.53 355.80,-246.63 363.73,-244.12 436.26,-221.13 437.77,-220.65 448.63,-217.21 453.98,-215.51 460.92,-213.62 475.24,-208.77 482.56,-206.45 489.15,-204.36 543.12,-187.24 600.09,-169.34 604.81,-167.86 611.34,-171.06" fill="none" stroke="#bcbcbc" stroke-width="8" stroke-linecap="round" stroke-linejoin="round" /><polyline points="544.37,-756.28 586.47,-794.96 593.60,-801.50" fill="none" stroke="#bcbcbc" stroke-width="8" stroke-linecap="round" stroke-linejoin="round" /><polyline points="-160.58,-132.18 -6.11,-115.63" fill="none" stroke="#bcbcbc" stroke-width="8" stroke-linecap="round" stroke-linejoin="round" /><polyline points="305.42,-563.29 337.89,-574.90 371.38,-587.00 392.19,-595.09 455.72,-618.19 474.16,-624.57 478.01,-625.90 482.63,-627.49 487.81,-629.27 488.45,-629.49 498.91,-633.70 503.46,-635.53" fill="none" stroke="#bcbcbc" stroke-width="8" stroke-linecap="round" stroke-linejoin="round" /><polyline points="523.49,222.28 554.05,259.99 572.77,278.83 580.87,284.66 592.34,294.26 603.11,303.31 612.37,312.33 612.59,316.92" fill="none" stroke="#bcbcbc" stroke-width="8" stroke-linecap="round" stroke-linejoin="round" /><polyline points="556.41,-647.31 568.39,-677.33 587.78,-726.76 615.56,-797.58 629.29,-831.13 649.74,-881.15 666.52,-922.13 669.52,-927.56 684.27,-951.68 685.22,-953.23 690.62,-963.85 700.08,-978.42 705.37,-986.55 712.85,-998.06" fill="none" stroke="#bcbcbc" stroke-width="8" stroke-linecap="round" stroke-linejoin="round" /><polyline points="273.80,155.42 271.84,156.99 270.54,158.85 267.90,166.64 266.07,172.27 257.63,197.50 256.47,201.14 255.75,203.40 248.00,201.18 229.14,194.86 210.45,188.59 196.00,187.77" fill="none" stroke="#bcbcbc" stroke-width="8" stroke-linecap="round" stroke-linejoin="round" /><polyline points="-95.58,331.01 -64.78,251.48 -61.35,242.82 -58.28,234.48 -54.57,224.40 -50.01,208.55 -45.26,188.85 -43.31,174.73 -41.90,164.48 -39.91,156.91 -32.66,100.03 -24.19,28.26 -19.81,-5.95 -14.92,-46.15 -6.11,-115.63 -4.71,-127.44 4.20,-200.10 4.21,-204.15 6.17,-225.71 11.85,-271.25 13.28,-279.19 14.76,-283.65 17.09,-288.55 19.34,-292.36 24.33,-297.76 28.79,-299.29" fill="none" stroke="#bcbcbc" stroke-width="8" stroke-linecap="round" stroke-linejoin="round" /><polyline points="576.87,-273.10 578.56,-270.43 584.21,-261.61 592.66,-248.05 594.70,-244.82 598.08,-247.38 614.43,-259.80" fill="none" stroke="#bcbcbc" stroke-width="8" stroke-linecap="round" stroke-linejoin="round" /><polyline points="587.78,-726.76 754.22,-696.68 771.70,-687.48 836.90,-655.16 842.65,-656.94" fill="none" stroke="#bcbcbc" stroke-width="8" stroke-linecap="round" stroke-linejoin="round" /><polyline points="270.04,-349.71 267.09,-345.40 240.54,-332.45 221.04,-307.66 199.99,-294.64 185.60,-283.77 171.87,-272.57 164.83,-266.16 152.40,-250.38 138.49,-230.46 136.20,-226.76" fill="none" stroke="#bcbcbc" stroke-width="8" stroke-linecap="round" stroke-linejoin="round" /><polyline points="298.11,-331.93 296.96,-329.37 294.45,-325.69 289.69,-319.84 261.64,-284.41 246.80,-244.45 171.90,-272.60" fill="none" stroke="#bcbcbc" stroke-width="8" stroke-linecap="round" stroke-linejoin="round" /><polyline points="185.60,-283.77 182.70,-292.55 170.17,-330.49 165.30,-337.99 157.16,-362.42 156.45,-364.53 157.66,-368.35 155.70,-374.58 116.54,-499.61" fill="none" stroke="#bcbcbc" stroke-width="8" stroke-linecap="round" stroke-linejoin="round" /><polyline points="644.49,-965.97 675.44,-965.15 676.89,-965.11 682.82,-964.94 690.62,-963.85" fill="none" stroke="#bcbcbc" stroke-width="8" stroke-linecap="round" stroke-linejoin="round" /><polyline points="485.29,42.14 474.72,42.01 385.24,54.02 378.79,54.70 371.41,55.48 328.59,60.00 270.90,66.09 240.31,69.32 223.40,71.10 209.66,72.77 202.60,73.63 194.66,74.60 156.28,79.26 147.08,80.38 118.73,83.48 -32.66,100.03" fill="none" stroke="#bcbcbc" stroke-width="8" stroke-linecap="round" stroke-linejoin="round" /><polyline points="507.62,-396.75 529.16,-390.04 607.92,-365.73 608.66,-365.50 614.49,-365.13" fill="none" stroke="#bcbcbc" stroke-width="8" stroke-linecap="round" stroke-linejoin="round" /><polyline points="729.23,-574.10 836.37,-572.22" fill="none" stroke="#bcbcbc" stroke-width="8" stroke-linecap="round" stroke-linejoin="round" /><polyline points="676.77,367.04 661.46,348.84 655.03,341.37 649.51,336.21 642.16,330.72 627.13,321.70 612.59,316.92 583.01,307.79 558.82,300.11 572.77,278.83" fill="none" stroke="#bcbcbc" stroke-width="8" stroke-linecap="round" stroke-linejoin="round" /><polyline points="523.49,222.28 502.16,195.96 498.10,190.96 476.62,161.37 471.76,152.33 472.93,141.58 479.40,141.51 495.38,144.59 519.69,149.26" fill="none" stroke="#bcbcbc" stroke-width="8" stroke-linecap="round" stroke-linejoin="round" /><polyline points="244.51,11.40 248.44,19.86 270.90,66.09 304.30,134.83 308.56,143.60" fill="none" stroke="#bcbcbc" stroke-width="8" stroke-linecap="round" stroke-linejoin="round" /><polyline points="-115.22,220.80 -107.19,224.08 -69.57,239.46 -61.35,242.82 -52.71,246.35 -8.42,264.46 -0.41,267.74" fill="none" stroke="#bcbcbc" stroke-width="8" stroke-linecap="round" stroke-linejoin="round" /><polyline points="262.99,-57.14 341.38,-22.85" fill="none" stroke="#bcbcbc" stroke-width="8" stroke-linecap="round" stroke-linejoin="round" /><polyline points="614.49,-365.13 626.43,-364.51 627.20,-363.83 632.55,-359.08 640.43,-352.05 641.88,-349.22 669.02,-325.46 671.02,-321.67 690.11,-304.83 694.91,-303.37 709.75,-290.37 713.08,-288.85 735.46,-269.86 740.45,-265.44 743.20,-261.07" fill="none" stroke="#bcbcbc" stroke-width="8" stroke-linecap="round" stroke-linejoin="round" /><polyline points="-137.35,-57.06 -14.92,-46.15" fill="none" stroke="#bcbcbc" stroke-width="8" stroke-linecap="round" stroke-linejoin="round" /><polyline points="136.01,398.77 139.81,390.69 140.78,387.10 146.10,367.50 165.36,299.60 167.20,293.10 169.15,285.97 177.87,254.06 192.61,200.19 196.00,187.77" fill="none" stroke="#bcbcbc" stroke-width="8" stroke-linecap="round" stroke-linejoin="round" /><polyline points="244.51,11.40 262.99,-57.14 223.80,-70.85 213.54,-64.79 208.86,-61.23 205.40,-56.55 202.96,-50.37 193.95,-17.05 201.22,-13.35 208.56,-11.57 224.81,-7.34 236.97,-3.47 244.51,11.40" fill="none" stroke="#bcbcbc" stroke-width="8" stroke-linecap="round" stroke-linejoin="round" /><polyline points="193.95,-17.05 185.36,-18.25 -14.92,-46.15" fill="none" stroke="#bcbcbc" stroke-width="8" stroke-linecap="round" stroke-linejoin="round" /><polyline points="519.69,149.26 538.27,153.32 588.51,169.29 602.56,173.73 635.90,183.36 669.49,193.04 694.36,200.23 734.13,211.71 742.34,214.08 762.41,220.81 795.46,229.61 798.37,230.16" fill="none" stroke="#bcbcbc" stroke-width="8" stroke-linecap="round" stroke-linejoin="round" /><polyline points="543.26,439.47 536.48,441.17 529.15,461.59 517.78,458.37 466.11,440.76 459.89,439.43 446.05,438.44 383.48,438.69 369.68,436.93 338.53,432.17 325.96,430.13 236.83,415.76 202.32,410.25 136.50,398.85 125.87,396.74 -22.67,355.23 -32.04,352.61 -95.58,331.01 -111.22,325.47 -150.27,309.29 -172.53,300.87" fill="none" stroke="#bcbcbc" stroke-width="8" stroke-linecap="round" stroke-linejoin="round" /><polyline points="679.39,-658.69 672.96,-660.02 587.11,-649.87 556.41,-647.31" fill="none" stroke="#bcbcbc" stroke-width="8" stroke-linecap="round" stroke-linejoin="round" /><polyline points="519.69,149.26 522.70,144.23 540.72,97.97 560.85,28.01 565.98,12.95 568.73,8.84 588.16,-53.53 589.13,-60.98 589.86,-65.84" fill="none" stroke="#bcbcbc" stroke-width="8" stroke-linecap="round" stroke-linejoin="round" /><polyline points="608.17,-526.48 610.22,-527.26 613.00,-529.47 617.22,-534.41 672.04,-613.06 686.64,-633.86" fill="none" stroke="#bcbcbc" stroke-width="8" stroke-linecap="round" stroke-linejoin="round" /><polyline points="852.15,-237.58 853.27,-240.81 880.82,-273.22 882.84,-274.30 887.63,-280.85 903.66,-299.26 908.65,-303.85" fill="none" stroke="#bcbcbc" stroke-width="8" stroke-linecap="round" stroke-linejoin="round" /><polyline points="876.23,2.97 875.84,-1.37 875.55,-4.72 874.10,-11.14 872.36,-15.32 870.20,-26.32 870.00,-30.30 868.53,-39.20 861.97,-42.62 856.73,-40.62 847.35,-38.37 839.92,-37.21 832.80,-35.49 822.97,-33.25 818.48,-32.23" fill="none" stroke="#bcbcbc" stroke-width="8" stroke-linecap="round" stroke-linejoin="round" /><polyline points="152.27,-156.22 172.31,-203.19 173.42,-206.24" fill="none" stroke="#bcbcbc" stroke-width="8" stroke-linecap="round" stroke-linejoin="round" /><polyline points="680.41,-242.35 690.07,-246.09 695.12,-248.05 699.03,-252.00 715.13,-255.97 720.53,-254.59 732.19,-257.60 741.08,-259.89 743.20,-261.07 751.82,-263.18 795.90,-273.98 805.89,-276.97" fill="none" stroke="#bcbcbc" stroke-width="8" stroke-linecap="round" stroke-linejoin="round" /><polyline points="273.80,155.42 294.60,147.87 301.55,145.74 308.56,143.60 321.48,139.66 331.53,138.21 365.87,134.45 372.77,134.08 403.49,134.34 422.20,134.50 429.24,134.14 440.51,135.28 444.04,135.78 451.22,136.81 472.93,141.58" fill="none" stroke="#bcbcbc" stroke-width="8" stroke-linecap="round" stroke-linejoin="round" /><polyline points="372.88,-461.87 369.44,-473.51 356.64,-516.77 341.10,-566.09 337.89,-574.90 334.63,-583.15 330.51,-595.04" fill="none" stroke="#bcbcbc" stroke-width="8" stroke-linecap="round" stroke-linejoin="round" /><polyline points="335.67,235.60 338.40,226.97 366.04,139.81 365.87,134.45" fill="none" stroke="#bcbcbc" stroke-width="8" stroke-linecap="round" stroke-linejoin="round" /><polyline points="372.77,134.08 378.24,60.69 378.79,54.70 379.62,47.74 379.64,47.43 380.00,38.91 381.82,15.81 382.85,5.05 384.26,-7.17 385.55,-15.97 386.70,-21.49 388.15,-25.67 390.99,-35.08 396.86,-54.67 404.33,-79.97 412.56,-105.84 414.24,-111.11 415.59,-114.93" fill="none" stroke="#bcbcbc" stroke-width="8" stroke-linecap="round" stroke-linejoin="round" /><polyline points="193.95,-17.05 192.49,-10.55 192.74,-8.47 201.66,65.77 202.60,73.63 202.19,81.72 199.86,127.89 198.88,147.19 198.38,157.14 197.48,174.87 197.01,184.11 196.00,187.77" fill="none" stroke="#bcbcbc" stroke-width="8" stroke-linecap="round" stroke-linejoin="round" /><polyline points="152.27,-156.22 119.84,-165.86 115.72,-168.50 95.54,-174.38 89.87,-174.32 64.52,-181.96 60.42,-184.98 37.35,-191.97 9.03,-199.69 8.90,-199.70 4.20,-200.10" fill="none" stroke="#bcbcbc" stroke-width="8" stroke-linecap="round" stroke-linejoin="round" /><polyline points="743.20,-261.07 744.32,-259.59 749.03,-252.58 757.72,-239.63 765.90,-231.43 781.63,-213.78 778.97,-197.46 777.62,-191.34 775.75,-188.75 779.69,-182.92 785.79,-170.37 797.98,-146.85 803.99,-135.27 807.72,-124.86 809.40,-120.03" fill="none" stroke="#bcbcbc" stroke-width="8" stroke-linecap="round" stroke-linejoin="round" /><polyline points="825.32,-227.46 820.80,-226.06 791.02,-216.79 786.75,-215.42 781.63,-213.78" fill="none" stroke="#bcbcbc" stroke-width="8" stroke-linecap="round" stroke-linejoin="round" /><polyline points="611.34,-171.06 620.65,-174.08 688.24,-208.59 697.29,-213.01 729.14,-222.21 760.03,-230.89 765.90,-231.43" fill="none" stroke="#bcbcbc" stroke-width="8" stroke-linecap="round" stroke-linejoin="round" /><polyline points="618.70,-128.34 696.63,-164.60 699.91,-166.77 707.53,-168.99 759.45,-184.09 767.32,-187.11 775.75,-188.75" fill="none" stroke="#bcbcbc" stroke-width="8" stroke-linecap="round" stroke-linejoin="round" /><polyline points="602.80,-888.44 634.35,-884.54 637.51,-884.15 649.74,-881.15" fill="none" stroke="#bcbcbc" stroke-width="8" stroke-linecap="round" stroke-linejoin="round" /><polyline points="872.35,-567.79 877.95,-568.96 898.85,-558.72 901.60,-555.99 940.84,-489.59 941.87,-481.54 946.97,-477.29 946.16,-474.35 946.04,-469.56 946.75,-462.87 957.14,-420.17 958.05,-390.59 959.51,-343.37 961.95,-279.81 952.00,-252.11 945.59,-235.23 936.23,-211.43 933.52,-204.55 931.76,-202.63 928.94,-184.21" fill="none" stroke="#bcbcbc" stroke-width="8" stroke-linecap="round" stroke-linejoin="round" /><polyline points="944.89,-72.04 935.35,-76.19 911.51,-92.83 880.04,-114.93 862.74,-128.93 851.07,-141.43" fill="none" stroke="#bcbcbc" stroke-width="8" stroke-linecap="round" stroke-linejoin="round" /><polyline points="558.82,300.11 549.45,297.14 534.24,292.32 526.98,290.02 518.46,287.32 507.69,283.90 497.95,280.82 488.33,277.76 445.40,264.14 437.88,261.76 428.55,258.80 426.48,258.15 401.93,251.66 395.00,249.99 386.31,247.88 377.22,245.68 344.45,237.74 335.67,235.60 326.22,232.33 306.49,225.48 299.06,222.89 292.41,220.73 261.51,209.75 257.62,207.43 255.75,203.40" fill="none" stroke="#bcbcbc" stroke-width="8" stroke-linecap="round" stroke-linejoin="round" /><polyline points="699.91,-166.77 697.63,-174.93 690.85,-199.24 688.24,-208.59 684.47,-215.58 684.12,-216.88 681.90,-225.11 684.49,-228.75 681.38,-239.13 680.41,-242.35" fill="none" stroke="#bcbcbc" stroke-width="8" stroke-linecap="round" stroke-linejoin="round" /><polyline points="688.57,-464.31 695.01,-467.35 730.24,-486.77 750.38,-499.71 764.58,-509.40 767.71,-511.74 779.14,-519.68 790.99,-528.43 798.49,-533.89 807.43,-540.42 838.51,-554.45 842.54,-554.23 848.43,-557.02 872.35,-567.79" fill="none" stroke="#bcbcbc" stroke-width="8" stroke-linecap="round" stroke-linejoin="round" /><polyline points="298.11,-331.93 303.20,-329.87 306.56,-328.84 369.55,-309.49 379.17,-306.54" fill="none" stroke="#bcbcbc" stroke-width="8" stroke-linecap="round" stroke-linejoin="round" /><polyline points="-151.85,-190.28 -196.86,-203.91" fill="none" stroke="#bcbcbc" stroke-width="8" stroke-linecap="round" stroke-linejoin="round" /><polyline points="575.14,-824.88 586.30,-810.75 587.97,-808.64 593.60,-801.50 600.02,-800.75 613.22,-799.20 615.56,-797.58" fill="none" stroke="#bcbcbc" stroke-width="8" stroke-linecap="round" stroke-linejoin="round" /><polyline points="962.64,-196.21 944.95,-192.92 926.82,-183.06 910.02,-173.71 894.12,-165.76 874.91,-155.33 861.00,-146.89 833.52,-132.15 726.22,-78.18 698.40,-65.93 680.02,-57.98 670.91,-55.00 663.38,-53.59 651.05,-52.85 633.49,-55.33 589.70,-65.84 527.52,-80.33 445.72,-105.00 415.59,-114.93 366.24,-130.17 319.05,-145.73 249.84,-172.88 215.23,-187.78 173.51,-206.33 104.29,-244.24 88.07,-255.00 47.00,-280.83 29.78,-298.05 3.95,-331.49 -38.60,-375.36 -55.33,-390.10" fill="none" stroke="#bcbcbc" stroke-width="8" stroke-linecap="round" stroke-linejoin="round" /><polyline points="627.13,321.70 627.86,317.66 630.48,311.05 655.02,253.63 664.29,232.10 675.22,205.28 677.88,195.46" fill="none" stroke="#bcbcbc" stroke-width="8" stroke-linecap="round" stroke-linejoin="round" /><polyline points="156.28,79.26 128.40,65.77 64.96,35.07 -12.86,-2.59 -19.81,-5.95" fill="none" stroke="#bcbcbc" stroke-width="8" stroke-linecap="round" stroke-linejoin="round" /><polyline points="614.49,-365.13 621.53,-372.34 640.25,-391.50 655.11,-407.72" fill="none" stroke="#bcbcbc" stroke-width="8" stroke-linecap="round" stroke-linejoin="round" /><polyline points="73.97,-322.45 66.24,-332.69 29.99,-380.67 -21.74,-422.53" fill="none" stroke="#bcbcbc" stroke-width="8" stroke-linecap="round" stroke-linejoin="round" /><polyline points="-150.55,309.17 -143.47,292.39 -120.98,236.32 -118.25,228.96 -115.22,220.80 -114.08,217.85 -113.77,213.24 -110.89,169.64 -110.07,157.14" fill="none" stroke="#bcbcbc" stroke-width="8" stroke-linecap="round" stroke-linejoin="round" /><polyline points="-165.89,-141.59 -151.85,-190.28 -133.32,-254.52 -131.03,-262.47 -128.48,-271.50 -122.77,-291.73 -122.17,-293.85 -120.53,-300.35 -117.92,-307.70 -117.29,-309.48 -114.00,-317.65 -107.54,-331.91 -105.60,-336.00" fill="none" stroke="#bcbcbc" stroke-width="8" stroke-linecap="round" stroke-linejoin="round" /><polyline points="-131.03,-262.47 -102.61,-255.20 -42.42,-239.73 -8.13,-229.06 6.17,-225.71" fill="none" stroke="#bcbcbc" stroke-width="8" stroke-linecap="round" stroke-linejoin="round" /><polyline points="453.86,-483.44 454.83,-489.35 455.80,-495.49 459.97,-516.03 470.39,-563.82 478.94,-606.58 480.50,-615.45 482.63,-627.49 482.63,-627.50" fill="none" stroke="#bcbcbc" stroke-width="8" stroke-linecap="round" stroke-linejoin="round" /><polyline points="369.73,436.94 382.42,404.59 384.00,398.77 434.35,270.98 437.88,261.76 440.75,253.94 470.83,166.42 476.62,161.37" fill="none" stroke="#bcbcbc" stroke-width="8" stroke-linecap="round" stroke-linejoin="round" /><polyline points="542.32,-508.18 542.32,-508.19 540.53,-517.55 540.25,-518.69 535.90,-536.37 535.91,-536.43 532.94,-548.42 520.38,-591.47 518.79,-596.09 510.31,-619.15 507.55,-626.03 505.77,-630.47 503.46,-635.52 503.46,-635.53 503.46,-635.55 501.78,-654.09 501.61,-663.20" fill="none" stroke="#bcbcbc" stroke-width="8" stroke-linecap="round" stroke-linejoin="round" /><polyline points="523.49,222.28 520.26,225.77 515.44,231.50 501.88,269.74 497.95,280.82" fill="none" stroke="#bcbcbc" stroke-width="8" stroke-linecap="round" stroke-linejoin="round" /><polyline points="298.11,-331.93 299.97,-336.95 300.39,-338.12 309.20,-362.72 312.50,-373.08 339.50,-452.46" fill="none" stroke="#bcbcbc" stroke-width="8" stroke-linecap="round" stroke-linejoin="round" /><polyline points="437.77,-220.65 440.52,-227.97 447.98,-247.78 451.14,-256.16 453.27,-261.83 459.26,-277.73 463.21,-288.23 463.75,-289.65 473.33,-315.09 477.33,-313.85 479.50,-319.76 483.34,-330.21 482.61,-334.96 492.80,-362.70 493.85,-365.55 495.78,-367.33 497.40,-368.82 507.62,-396.75 509.10,-404.40 523.77,-445.14 527.23,-447.85 534.29,-467.81 533.03,-470.87 539.21,-489.51 536.01,-506.15" fill="none" stroke="#bcbcbc" stroke-width="8" stroke-linecap="round" stroke-linejoin="round" /><polyline points="700.08,-978.42 695.97,-985.16 674.38,-1020.58" fill="none" stroke="#bcbcbc" stroke-width="8" stroke-linecap="round" stroke-linejoin="round" /><polyline points="767.71,-511.74 866.80,-448.03 866.83,-447.99 866.83,-447.97 885.15,-445.60" fill="none" stroke="#bcbcbc" stroke-width="8" stroke-linecap="round" stroke-linejoin="round" /><polyline points="727.98,-644.82 833.40,-591.91 836.58,-589.54 836.37,-572.22 838.51,-554.45" fill="none" stroke="#bcbcbc" stroke-width="8" stroke-linecap="round" stroke-linejoin="round" /><polyline points="526.98,290.02 523.19,301.59 507.83,348.43 481.70,427.31 479.85,432.91 477.97,438.58 477.45,444.62" fill="none" stroke="#bcbcbc" stroke-width="8" stroke-linecap="round" stroke-linejoin="round" /><polyline points="823.77,5.47 824.40,-0.41 824.53,-5.89 824.49,-6.08 820.75,-22.23 819.22,-28.97 818.48,-32.23 817.73,-35.56 813.63,-53.62 805.62,-89.72 799.79,-111.42 798.97,-114.77" fill="none" stroke="#bcbcbc" stroke-width="8" stroke-linecap="round" stroke-linejoin="round" /><polyline points="300.36,335.92 302.98,328.50 332.33,245.07 335.67,235.60" fill="none" stroke="#bcbcbc" stroke-width="8" stroke-linecap="round" stroke-linejoin="round" /><polyline points="959.51,-343.37 950.87,-345.81 892.22,-435.80 885.15,-445.60" fill="none" stroke="#bcbcbc" stroke-width="8" stroke-linecap="round" stroke-linejoin="round" /><polyline points="-4.71,-127.44 209.06,-76.23 223.80,-70.85" fill="none" stroke="#bcbcbc" stroke-width="8" stroke-linecap="round" stroke-linejoin="round" /><polyline points="669.52,-927.56 752.79,-896.72 764.51,-898.72" fill="none" stroke="#bcbcbc" stroke-width="8" stroke-linecap="round" stroke-linejoin="round" />
    <polyline points="352.80,352.80 344.87,350.25 307.85,338.33 300.36,335.92 293.86,333.83 254.64,321.23 246.90,318.74 236.67,315.45 174.23,295.36 167.20,293.10" fill="none" stroke="#ffffff" stroke-width="16" stroke-linecap="round" stroke-linejoin="round" />
    <polyline points="352.80,352.80 344.87,350.25 307.85,338.33 300.36,335.92 293.86,333.83 254.64,321.23 246.90,318.74 236.67,315.45 174.23,295.36 167.20,293.10" fill="none" stroke="#111111" stroke-width="9" stroke-linecap="round" stroke-linejoin="round" />
    
            <g transform="translate(352.80,352.80)">
              <circle r="19" fill="#ffffff" stroke="#111111" stroke-width="4" />
              <text text-anchor="middle" dominant-baseline="central" font-family="Helvetica, Arial, sans-serif"
                font-size="18" font-weight="700" fill="#111111">1</text>
            </g>
            
            <g transform="translate(167.20,293.10)">
              <circle r="19" fill="#ffffff" stroke="#111111" stroke-width="4" />
              <text text-anchor="middle" dominant-baseline="central" font-family="Helvetica, Arial, sans-serif"
                font-size="18" font-weight="700" fill="#111111">2</text>
            </g>
            
  </g>
</svg>
