<svg xmlns="http://www.w3.org/2000/svg" width="520" height="520" viewBox="0 0 520 520">
  <rect width="100%" height="100%" fill="#ffffff" />
  <g>
    <polyline points="800.61,0.79 804.05,19.08 826.23,174.25 822.84,213.04" fill="none" stroke="#bcbcbc" stroke-width="8" stroke-linecap="round" stroke-linejoin="round" /><polyline points="349.78,1293.88 355.14,1277.39 383.56,1190.01 386.91,1179.71 390.29,1168.90 461.74,941.06 467.48,922.73 454.33,890.32" fill="none" stroke="#bcbcbc" stroke-width="8" stroke-linecap="round" stroke-linejoin="round" /><polyline points="-143.72,1091.23 -144.87,1078.14 -121.52,947.32 -118.24,930.95 -115.79,922.38 -109.36,889.20 -102.14,848.59 -94.27,812.83 -86.46,777.15 -81.54,767.09 -78.33,760.92" fill="none" stroke="#bcbcbc" stroke-width="8" stroke-linecap="round" stroke-linejoin="round" /><polyline points="-8.14,168.39 -13.69,151.46 -71.10,-23.61 -73.90,-30.95" fill="none" stroke="#bcbcbc" stroke-width="8" stroke-linecap="round" stroke-linejoin="round" /><polyline points="-302.67,1709.22 -300.96,1692.51 -300.27,1684.85 -294.02,1615.72 -287.18,1554.86 -285.58,1540.64 -284.10,1523.59 -283.93,1522.16 -280.05,1488.26 -276.71,1453.80 -273.03,1420.55 -270.54,1394.66 -269.51,1378.69 -268.60,1363.93 -266.97,1347.31" fill="none" stroke="#bcbcbc" stroke-width="8" stroke-linecap="round" stroke-linejoin="round" /><polyline points="490.46,1334.50 494.55,1321.65 523.35,1231.10 526.62,1220.81 531.27,1206.15 534.61,1195.65 560.10,1085.69" fill="none" stroke="#bcbcbc" stroke-width="8" stroke-linecap="round" stroke-linejoin="round" /><polyline points="378.49,-456.60 389.13,-454.96 682.24,-409.93" fill="none" stroke="#bcbcbc" stroke-width="8" stroke-linecap="round" stroke-linejoin="round" /><polyline points="-373.98,1313.16 -404.49,1311.74 -423.09,1310.88 -433.20,1310.41 -442.06,1309.99 -511.15,1306.78 -607.24,1302.31 -653.04,1295.82 -668.37,1293.64 -681.67,1291.30 -771.76,1275.40 -784.35,1273.17 -787.14,1272.70 -802.69,1270.03 -814.65,1267.98 -890.98,1261.23 -905.52,1259.95 -910.85,1259.48 -927.35,1258.33 -959.67,1256.09" fill="none" stroke="#bcbcbc" stroke-width="8" stroke-linecap="round" stroke-linejoin="round" /><polyline points="69.25,1224.65 75.16,1207.83 128.41,1060.21 192.47,874.02 196.58,862.34 199.44,854.18 201.76,847.48" fill="none" stroke="#bcbcbc" stroke-width="8" stroke-linecap="round" stroke-linejoin="round" /><polyline points="-910.85,1259.48 -912.21,1249.98 -912.53,1239.68 -910.51,1218.92 -905.87,1181.01 -902.78,1168.29 -897.76,1122.29 -896.85,1112.05 -895.38,1098.88 -894.29,1089.09 -892.23,1078.01 -888.42,1048.17 -885.77,1025.35 -881.88,1016.01" fill="none" stroke="#bcbcbc" stroke-width="8" stroke-linecap="round" stroke-linejoin="round" /><polyline points="-965.35,1004.35 -894.33,1014.27 -881.88,1016.01 -874.16,1017.24 -842.33,1022.32 -768.97,1034.01 -756.38,1036.10" fill="none" stroke="#bcbcbc" stroke-width="8" stroke-linecap="round" stroke-linejoin="round" /><polyline points="341.81,72.55 342.27,79.01 343.23,85.55 345.54,90.56 349.85,96.14 357.84,103.41 376.77,114.93 522.81,206.55 612.75,327.14 680.68,494.80 685.12,505.88" fill="none" stroke="#bcbcbc" stroke-width="8" stroke-linecap="round" stroke-linejoin="round" /><polyline points="318.43,561.77 321.45,566.78 322.24,568.08 324.75,580.73 341.88,663.59 347.32,689.89 351.21,708.62 357.28,746.58 360.11,764.09 362.07,774.77 364.20,784.42 366.76,790.05 370.51,796.56 372.52,799.64 410.46,853.96 430.99,886.28 436.34,894.01" fill="none" stroke="#bcbcbc" stroke-width="8" stroke-linecap="round" stroke-linejoin="round" /><polyline points="-770.89,1599.22 -768.87,1586.79 -766.99,1577.80 -766.49,1576.60 -741.24,1516.55 -725.14,1477.52 -720.25,1465.15 -715.07,1452.05 -709.45,1440.79 -708.54,1438.59 -700.84,1419.98 -694.89,1403.51 -689.78,1388.40 -686.54,1377.72 -682.90,1364.52 -678.71,1346.83 -675.53,1332.47 -671.73,1312.44 -670.93,1307.97 -668.37,1293.64" fill="none" stroke="#bcbcbc" stroke-width="8" stroke-linecap="round" stroke-linejoin="round" /><polyline points="452.74,-77.82 533.27,-21.55 544.12,-19.25 552.06,-10.16" fill="none" stroke="#bcbcbc" stroke-width="8" stroke-linecap="round" stroke-linejoin="round" /><polyline points="114.60,441.88 125.24,445.97 171.45,461.09 278.63,502.19 284.64,508.18 287.46,512.66" fill="none" stroke="#bcbcbc" stroke-width="8" stroke-linecap="round" stroke-linejoin="round" /><polyline points="314.32,1498.12 321.62,1479.10 357.65,1381.34 383.13,1307.48 388.41,1305.05" fill="none" stroke="#bcbcbc" stroke-width="8" stroke-linecap="round" stroke-linejoin="round" /><polyline points="-195.01,1374.16 -189.33,1361.60 -188.76,1360.35 -179.03,1327.72 -163.10,1274.00 -159.02,1260.26 -155.85,1249.58 -155.42,1243.36 -156.07,1229.58" fill="none" stroke="#bcbcbc" stroke-width="8" stroke-linecap="round" stroke-linejoin="round" /><polyline points="467.28,566.06 458.14,567.95 437.44,564.27 434.23,555.73 398.36,542.05 389.88,544.27 357.52,532.39 352.69,535.76" fill="none" stroke="#bcbcbc" stroke-width="8" stroke-linecap="round" stroke-linejoin="round" /><polyline points="414.02,-543.49 430.27,-539.50 439.26,-537.94 653.08,-500.87" fill="none" stroke="#bcbcbc" stroke-width="8" stroke-linecap="round" stroke-linejoin="round" /><polyline points="247.83,1438.59 256.73,1413.51 274.01,1364.78 285.18,1344.02 301.25,1299.02 307.67,1281.05" fill="none" stroke="#bcbcbc" stroke-width="8" stroke-linecap="round" stroke-linejoin="round" /><polyline points="-923.70,465.32 -939.18,464.61 -943.07,469.32 -970.04,502.11 -1064.36,611.05 -1077.62,626.37" fill="none" stroke="#bcbcbc" stroke-width="8" stroke-linecap="round" stroke-linejoin="round" /><polyline points="-96.46,558.63 -103.30,573.76 -104.13,575.60 -127.88,637.53 -151.82,705.71 -158.20,723.90 -161.82,733.29" fill="none" stroke="#bcbcbc" stroke-width="8" stroke-linecap="round" stroke-linejoin="round" /><polyline points="251.93,-137.32 259.48,-127.08 264.87,-113.00 273.25,-92.80 286.71,-61.02 298.62,-32.49 312.30,-1.16 322.45,22.98 323.95,26.44 324.04,26.66 332.21,45.75 334.65,51.18 336.97,56.34 339.43,61.18 341.28,66.10 341.81,72.55" fill="none" stroke="#bcbcbc" stroke-width="8" stroke-linecap="round" stroke-linejoin="round" /><polyline points="-325.70,863.95 -321.76,861.79 -316.23,857.40 -313.47,851.70 -276.77,712.56 -275.66,704.71 -271.19,690.37" fill="none" stroke="#bcbcbc" stroke-width="8" stroke-linecap="round" stroke-linejoin="round" /><polyline points="957.40,646.20 962.61,662.72 966.27,680.08 959.14,746.22 950.90,795.96 946.39,812.93 945.99,814.47 942.04,823.63 936.67,833.34 924.11,849.22 930.19,880.27 910.53,946.91 899.66,983.71 877.45,1043.95 844.92,1117.30 805.20,1187.59 792.79,1210.44 770.36,1247.97 680.75,1375.15 661.12,1401.61 585.09,1500.96 541.45,1550.63 480.39,1612.68 474.74,1613.26 460.95,1624.53" fill="none" stroke="#bcbcbc" stroke-width="8" stroke-linecap="round" stroke-linejoin="round" /><polyline points="-148.29,1734.12 -123.27,1656.54 -119.18,1643.73 -113.62,1635.66 -101.68,1599.80 -97.79,1587.62 -48.44,1433.11 -43.47,1417.57 -39.38,1403.92 18.85,1220.63" fill="none" stroke="#bcbcbc" stroke-width="8" stroke-linecap="round" stroke-linejoin="round" /><polyline points="437.69,291.33 459.32,267.70 465.70,260.01 509.39,198.12" fill="none" stroke="#bcbcbc" stroke-width="8" stroke-linecap="round" stroke-linejoin="round" /><polyline points="5.49,300.69 65.04,321.42 68.33,326.76 85.24,332.43 95.27,335.87 143.27,352.08" fill="none" stroke="#bcbcbc" stroke-width="8" stroke-linecap="round" stroke-linejoin="round" /><polyline points="524.52,-111.41 552.06,-10.16 583.94,109.10 588.78,119.04 589.55,130.39 611.17,170.76 669.52,279.57 682.27,298.39 685.97,303.90 773.15,466.89 813.21,503.32 818.83,510.57 826.76,517.35 902.83,582.40 907.99,586.81 921.65,594.07" fill="none" stroke="#bcbcbc" stroke-width="8" stroke-linecap="round" stroke-linejoin="round" /><polyline points="228.66,1750.59 418.38,1640.38 452.15,1623.11 460.95,1624.53" fill="none" stroke="#bcbcbc" stroke-width="8" stroke-linecap="round" stroke-linejoin="round" /><polyline points="434.36,1592.92 446.13,1578.93 551.81,1368.06 558.81,1354.23 564.65,1340.54 598.79,1256.13 608.95,1230.69 638.38,1141.65 657.45,1027.17 659.71,1010.51" fill="none" stroke="#bcbcbc" stroke-width="8" stroke-linecap="round" stroke-linejoin="round" /><polyline points="352.80,352.80 350.95,354.70 348.41,363.57 348.15,364.45 336.68,408.61 339.69,420.14 337.19,430.48 333.92,444.01 325.52,453.73 316.00,492.31 304.78,500.79 292.80,509.00 287.46,512.66" fill="none" stroke="#bcbcbc" stroke-width="8" stroke-linecap="round" stroke-linejoin="round" /><polyline points="-96.46,558.63 -91.59,546.13 -62.27,470.97 -55.88,454.58 -50.61,441.08 -13.15,345.10 3.72,304.97 5.49,300.69 18.60,269.00 48.01,195.97 58.78,164.88 61.18,157.75 64.40,149.67" fill="none" stroke="#bcbcbc" stroke-width="8" stroke-linecap="round" stroke-linejoin="round" /><polyline points="231.60,103.02 237.27,119.89 423.33,278.83 524.86,367.16 676.51,499.00 689.75,509.58 695.68,513.29 721.99,537.18 757.13,567.15 836.84,635.12 862.58,657.26 879.67,677.69" fill="none" stroke="#bcbcbc" stroke-width="8" stroke-linecap="round" stroke-linejoin="round" /><polyline points="539.24,-170.84 548.68,-176.89 604.59,-200.12 616.07,-212.21" fill="none" stroke="#bcbcbc" stroke-width="8" stroke-linecap="round" stroke-linejoin="round" /><polyline points="603.81,1243.56 526.62,1220.81 386.91,1179.71" fill="none" stroke="#bcbcbc" stroke-width="8" stroke-linecap="round" stroke-linejoin="round" /><polyline points="354.65,-398.33 365.19,-391.06 708.76,-314.61" fill="none" stroke="#bcbcbc" stroke-width="8" stroke-linecap="round" stroke-linejoin="round" /><polyline points="779.03,732.88 761.28,693.37 721.87,599.39 718.93,591.92 712.19,574.77 686.79,510.13 685.20,505.94" fill="none" stroke="#bcbcbc" stroke-width="8" stroke-linecap="round" stroke-linejoin="round" /><polyline points="251.93,-137.32 232.86,-142.75 218.84,-146.92 190.35,-155.38 175.88,-159.51 167.59,-161.81 156.76,-164.91" fill="none" stroke="#bcbcbc" stroke-width="8" stroke-linecap="round" stroke-linejoin="round" /><polyline points="-245.40,379.59 -246.36,376.43 -247.25,374.22 -251.18,364.45 -266.41,328.95 -280.89,292.88 -284.01,284.36 -287.61,274.55 -290.19,266.53 -294.44,254.50 -294.89,253.23 -308.74,219.10 -334.16,154.96 -339.87,151.70 -343.93,141.30 -352.04,113.12 -365.93,78.21 -368.92,70.27" fill="none" stroke="#bcbcbc" stroke-width="8" stroke-linecap="round" stroke-linejoin="round" /><polyline points="-123.27,1656.54 -108.84,1660.96 -62.13,1675.19 -47.50,1679.65" fill="none" stroke="#bcbcbc" stroke-width="8" stroke-linecap="round" stroke-linejoin="round" /><polyline points="749.02,-154.04 751.74,-165.05 750.64,-169.23 749.30,-174.27 740.77,-205.51 721.76,-271.57 711.73,-305.33 708.76,-314.61 682.24,-409.93 667.93,-461.34 653.08,-500.87 639.66,-536.53 626.31,-561.05 613.33,-574.01 513.69,-695.76 506.32,-704.43 501.44,-712.44" fill="none" stroke="#bcbcbc" stroke-width="8" stroke-linecap="round" stroke-linejoin="round" /><polyline points="341.81,72.55 336.67,74.52 327.18,77.14 326.22,77.40 286.54,87.55 240.92,100.40 231.60,103.02 227.45,104.34 216.49,107.86 207.12,110.47 166.21,121.85 98.92,140.97 73.84,147.31 64.40,149.67 19.56,160.68 -8.14,168.39 -66.80,184.78 -124.78,201.12 -131.49,202.99 -179.95,216.44 -202.30,222.64 -213.58,227.97 -234.95,238.57 -277.38,260.10 -280.34,261.60 -290.19,266.53 -296.20,269.54 -304.58,273.93 -334.39,289.56 -388.71,320.04 -434.08,343.81 -440.58,347.21 -449.25,347.75 -454.46,350.52 -455.49,351.07 -504.72,378.05 -515.03,378.01 -526.86,384.20 -530.99,386.36 -534.48,388.18 -542.71,392.49 -549.19,407.28 -577.05,422.20 -585.91,426.94 -595.49,432.16 -634.25,453.25 -654.29,464.16 -664.39,467.07" fill="none" stroke="#bcbcbc" stroke-width="8" stroke-linecap="round" stroke-linejoin="round" /><polyline points="899.66,983.71 878.98,985.61 814.37,991.52 811.46,991.79 807.34,992.17 800.67,992.78 738.02,998.53 716.24,996.51 690.86,1002.87 670.54,1007.85 659.72,1010.51 632.82,1011.53 609.54,1010.34 597.67,1009.08 587.57,1006.03 580.13,1001.92 552.43,982.33 485.12,936.10 478.78,931.79 472.32,927.41 467.48,922.73" fill="none" stroke="#bcbcbc" stroke-width="8" stroke-linecap="round" stroke-linejoin="round" /><polyline points="-624.76,203.22 -600.34,251.03 -596.64,264.69 -576.07,303.95 -567.57,315.18 -533.19,382.09 -530.99,386.36" fill="none" stroke="#bcbcbc" stroke-width="8" stroke-linecap="round" stroke-linejoin="round" /><polyline points="123.67,628.43 120.01,638.48 118.98,641.60 114.21,656.07 84.00,740.37 69.00,782.23 68.49,783.66 62.46,796.67 59.01,804.40" fill="none" stroke="#bcbcbc" stroke-width="8" stroke-linecap="round" stroke-linejoin="round" /><polyline points="524.52,-111.41 521.17,-118.58 512.36,-119.73 483.88,-113.20 478.10,-113.95 473.56,-120.03 465.50,-157.09 509.15,-163.85 529.36,-169.81 539.24,-170.84 549.88,-133.00" fill="none" stroke="#bcbcbc" stroke-width="8" stroke-linecap="round" stroke-linejoin="round" /><polyline points="682.27,298.39 693.52,292.08 749.99,258.05 765.08,249.06 791.50,233.31 834.96,205.20 845.10,197.91 921.34,150.62" fill="none" stroke="#bcbcbc" stroke-width="8" stroke-linecap="round" stroke-linejoin="round" /><polyline points="948.76,521.78 929.48,516.04 918.28,506.85 875.46,469.79 874.00,468.49 863.65,459.25 857.56,448.46 749.99,258.05" fill="none" stroke="#bcbcbc" stroke-width="8" stroke-linecap="round" stroke-linejoin="round" /><polyline points="-265.24,506.69 -96.46,558.63 -82.69,562.99 43.26,602.92 45.89,603.75 64.76,609.74 74.03,612.68 86.09,615.98 110.95,624.40 123.67,628.43 135.11,632.06 228.84,661.79 327.79,692.88 335.98,695.45 347.32,689.89" fill="none" stroke="#bcbcbc" stroke-width="8" stroke-linecap="round" stroke-linejoin="round" /><polyline points="231.02,-326.59 304.13,-393.77 316.51,-405.14" fill="none" stroke="#bcbcbc" stroke-width="8" stroke-linecap="round" stroke-linejoin="round" /><polyline points="-993.24,757.42 -724.97,786.18" fill="none" stroke="#bcbcbc" stroke-width="8" stroke-linecap="round" stroke-linejoin="round" /><polyline points="-183.96,8.62 -127.57,-11.55 -69.41,-32.57 -33.27,-46.62 77.06,-86.75 109.08,-97.83 115.77,-100.14 123.79,-102.90 132.79,-105.99 133.89,-106.37 152.07,-113.68 159.97,-116.86" fill="none" stroke="#bcbcbc" stroke-width="8" stroke-linecap="round" stroke-linejoin="round" /><polyline points="194.75,1373.10 247.83,1438.59 280.33,1471.31 294.40,1481.44 314.32,1498.12 333.03,1513.83 349.10,1529.51 349.50,1537.49" fill="none" stroke="#bcbcbc" stroke-width="8" stroke-linecap="round" stroke-linejoin="round" /><polyline points="251.93,-137.32 272.74,-189.46 306.41,-275.32 354.65,-398.33 378.49,-456.60 414.02,-543.49 443.15,-614.66 448.36,-624.10 473.98,-665.99 475.63,-668.69 485.00,-687.12 501.44,-712.44 510.62,-726.56 523.60,-746.55" fill="none" stroke="#bcbcbc" stroke-width="8" stroke-linecap="round" stroke-linejoin="round" /><polyline points="-238.87,1256.96 -242.28,1259.68 -244.53,1262.93 -249.12,1276.46 -252.29,1286.23 -266.95,1330.06 -268.96,1336.39 -270.22,1340.31 -283.67,1336.45 -316.43,1325.47 -348.89,1314.58 -373.98,1313.16" fill="none" stroke="#bcbcbc" stroke-width="8" stroke-linecap="round" stroke-linejoin="round" /><polyline points="-880.37,1561.96 -826.88,1423.81 -820.92,1408.77 -815.58,1394.28 -809.13,1376.78 -801.22,1349.24 -792.97,1315.03 -789.59,1290.51 -787.14,1272.70 -783.68,1259.55 -771.09,1160.76 -756.38,1036.10 -748.77,976.67 -740.28,906.86 -724.97,786.18 -722.54,765.66 -707.08,639.45 -707.07,632.42 -703.65,594.97 -693.78,515.87 -691.31,502.07 -688.73,494.34 -684.70,485.81 -680.77,479.20 -672.12,469.83 -664.37,467.17" fill="none" stroke="#bcbcbc" stroke-width="8" stroke-linecap="round" stroke-linejoin="round" /><polyline points="287.46,512.66 290.39,517.30 300.20,532.61 314.89,556.16 318.43,561.77 324.28,557.32 352.69,535.76" fill="none" stroke="#bcbcbc" stroke-width="8" stroke-linecap="round" stroke-linejoin="round" /><polyline points="306.41,-275.32 595.45,-223.07 625.80,-207.09 739.05,-150.95 749.02,-154.04" fill="none" stroke="#bcbcbc" stroke-width="8" stroke-linecap="round" stroke-linejoin="round" /><polyline points="-245.40,379.59 -250.53,387.07 -296.64,409.58 -330.50,452.62 -367.05,475.25 -392.05,494.12 -415.89,513.58 -428.12,524.72 -449.71,552.11 -473.86,586.73 -477.84,593.14" fill="none" stroke="#bcbcbc" stroke-width="8" stroke-linecap="round" stroke-linejoin="round" /><polyline points="-196.65,410.47 -198.64,414.91 -203.02,421.30 -211.28,431.47 -259.99,493.00 -285.76,562.42 -415.83,513.52" fill="none" stroke="#bcbcbc" stroke-width="8" stroke-linecap="round" stroke-linejoin="round" /><polyline points="-392.05,494.12 -397.08,478.88 -418.85,412.97 -427.29,399.95 -441.44,357.52 -442.66,353.85 -440.58,347.21 -443.96,336.40 -511.98,119.23" fill="none" stroke="#bcbcbc" stroke-width="8" stroke-linecap="round" stroke-linejoin="round" /><polyline points="404.89,-690.81 458.64,-689.40 461.15,-689.32 471.45,-689.03 485.00,-687.12" fill="none" stroke="#bcbcbc" stroke-width="8" stroke-linecap="round" stroke-linejoin="round" /><polyline points="128.41,1060.21 110.06,1059.99 -45.34,1080.85 -56.54,1082.03 -69.35,1083.38 -143.72,1091.23 -243.91,1101.81 -297.02,1107.41 -326.41,1110.51 -350.26,1113.41 -362.51,1114.90 -376.31,1116.58 -442.97,1124.68 -458.94,1126.62 -508.17,1132.00 -771.09,1160.76" fill="none" stroke="#bcbcbc" stroke-width="8" stroke-linecap="round" stroke-linejoin="round" /><polyline points="-101.68,1599.80 -115.44,1595.37 -179.74,1574.67 -192.74,1570.49 -204.03,1566.86 -272.15,1544.96 -285.58,1540.64 -303.35,1534.93 -411.79,1500.03 -424.00,1496.10" fill="none" stroke="#bcbcbc" stroke-width="8" stroke-linecap="round" stroke-linejoin="round" /><polyline points="552.06,-10.16 738.12,-6.89" fill="none" stroke="#bcbcbc" stroke-width="8" stroke-linecap="round" stroke-linejoin="round" /><polyline points="460.95,1624.53 434.36,1592.92 423.20,1579.94 413.61,1570.98 400.84,1561.45 374.75,1545.79 349.50,1537.49 298.13,1521.62 256.11,1508.29 280.33,1471.31" fill="none" stroke="#bcbcbc" stroke-width="8" stroke-linecap="round" stroke-linejoin="round" /><polyline points="194.75,1373.10 157.71,1327.39 150.67,1318.69 113.36,1267.30 104.92,1251.60 106.95,1232.92 118.19,1232.81 145.94,1238.15 188.16,1246.27" fill="none" stroke="#bcbcbc" stroke-width="8" stroke-linecap="round" stroke-linejoin="round" /><polyline points="-289.74,1006.82 -282.91,1021.51 -243.91,1101.81 -185.91,1221.21 -178.51,1236.44" fill="none" stroke="#bcbcbc" stroke-width="8" stroke-linecap="round" stroke-linejoin="round" /><polyline points="-914.48,1370.52 -900.52,1376.22 -835.19,1402.94 -820.92,1408.77 -805.91,1414.90 -728.99,1446.36 -715.07,1452.05" fill="none" stroke="#bcbcbc" stroke-width="8" stroke-linecap="round" stroke-linejoin="round" /><polyline points="-257.64,887.76 -121.52,947.32" fill="none" stroke="#bcbcbc" stroke-width="8" stroke-linecap="round" stroke-linejoin="round" /><polyline points="352.80,352.80 373.53,353.89 374.86,355.06 384.16,363.32 397.83,375.52 400.36,380.43 447.49,421.71 450.97,428.29 484.11,457.54 492.45,460.08 518.23,482.66 524.01,485.30 562.88,518.28 571.54,525.95 576.31,533.56" fill="none" stroke="#bcbcbc" stroke-width="8" stroke-linecap="round" stroke-linejoin="round" /><polyline points="-952.90,887.90 -740.28,906.86" fill="none" stroke="#bcbcbc" stroke-width="8" stroke-linecap="round" stroke-linejoin="round" /><polyline points="-478.16,1679.64 -471.57,1665.62 -469.88,1659.38 -460.65,1625.33 -427.20,1507.39 -424.00,1496.10 -420.61,1483.72 -405.46,1428.30 -379.88,1334.73 -373.98,1313.16" fill="none" stroke="#bcbcbc" stroke-width="8" stroke-linecap="round" stroke-linejoin="round" /><polyline points="-289.74,1006.82 -257.64,887.76 -325.70,863.95 -343.53,874.47 -351.65,880.65 -357.67,888.79 -361.90,899.53 -377.55,957.39 -364.92,963.82 -352.17,966.92 -323.96,974.26 -302.84,980.98 -289.74,1006.82" fill="none" stroke="#bcbcbc" stroke-width="8" stroke-linecap="round" stroke-linejoin="round" /><polyline points="-377.55,957.39 -392.46,955.31 -740.28,906.86" fill="none" stroke="#bcbcbc" stroke-width="8" stroke-linecap="round" stroke-linejoin="round" /><polyline points="188.16,1246.27 220.42,1253.32 307.67,1281.05 332.07,1288.77 389.97,1305.50 448.31,1322.32 491.49,1334.80 560.56,1354.74 574.83,1358.86 609.68,1370.55 667.07,1385.83 672.13,1386.78" fill="none" stroke="#bcbcbc" stroke-width="8" stroke-linecap="round" stroke-linejoin="round" /><polyline points="229.08,1750.34 217.31,1753.29 204.58,1788.77 184.85,1783.16 95.11,1752.58 84.30,1750.27 60.27,1748.55 -48.40,1748.99 -72.36,1745.94 -126.46,1737.66 -148.29,1734.12 -303.07,1709.15 -363.01,1699.59 -477.31,1679.79 -495.77,1676.13 -753.74,1604.02 -770.02,1599.47 -880.37,1561.96 -907.52,1552.33 -975.33,1524.22 -1013.99,1509.60" fill="none" stroke="#bcbcbc" stroke-width="8" stroke-linecap="round" stroke-linejoin="round" /><polyline points="465.50,-157.09 454.33,-159.39 305.24,-141.76 251.93,-137.32" fill="none" stroke="#bcbcbc" stroke-width="8" stroke-linecap="round" stroke-linejoin="round" /><polyline points="188.16,1246.27 193.38,1237.53 224.67,1157.17 259.63,1035.67 268.55,1009.50 273.32,1002.37 307.07,894.03 308.75,881.10 310.02,872.64" fill="none" stroke="#bcbcbc" stroke-width="8" stroke-linecap="round" stroke-linejoin="round" /><polyline points="341.81,72.55 345.38,71.19 350.20,67.36 357.54,58.78 452.74,-77.82 478.10,-113.95" fill="none" stroke="#bcbcbc" stroke-width="8" stroke-linecap="round" stroke-linejoin="round" /><polyline points="765.52,574.35 767.47,568.75 815.32,512.44 818.83,510.57 827.15,499.20 854.99,467.22 863.65,459.25" fill="none" stroke="#bcbcbc" stroke-width="8" stroke-linecap="round" stroke-linejoin="round" /><polyline points="807.34,992.17 806.68,984.64 806.16,978.81 803.64,967.67 800.63,960.40 796.87,941.30 796.53,934.39 793.98,918.93 782.59,912.98 773.49,916.46 757.19,920.36 744.29,922.38 731.92,925.36 714.85,929.26 707.06,931.03" fill="none" stroke="#bcbcbc" stroke-width="8" stroke-linecap="round" stroke-linejoin="round" /><polyline points="-449.93,715.67 -415.12,634.08 -413.19,628.78" fill="none" stroke="#bcbcbc" stroke-width="8" stroke-linecap="round" stroke-linejoin="round" /><polyline points="467.28,566.06 484.05,559.57 492.82,556.17 499.61,549.30 527.57,542.41 536.95,544.80 557.20,539.58 572.64,535.61 576.31,533.56 591.29,529.89 667.84,511.13 685.20,505.94" fill="none" stroke="#bcbcbc" stroke-width="8" stroke-linecap="round" stroke-linejoin="round" /><polyline points="-238.87,1256.96 -202.76,1243.84 -190.68,1240.15 -178.51,1236.44 -156.07,1229.58 -138.61,1227.07 -78.98,1220.55 -67.00,1219.89 -13.65,1220.35 18.85,1220.63 31.07,1220.00 50.65,1221.98 56.77,1222.86 69.25,1224.65 106.95,1232.92" fill="none" stroke="#bcbcbc" stroke-width="8" stroke-linecap="round" stroke-linejoin="round" /><polyline points="-66.80,184.78 -72.78,164.56 -95.01,89.42 -122.00,3.75 -127.57,-11.55 -133.23,-25.88 -140.38,-46.54" fill="none" stroke="#bcbcbc" stroke-width="8" stroke-linecap="round" stroke-linejoin="round" /><polyline points="-131.43,1396.24 -126.69,1381.25 -78.68,1229.86 -78.98,1220.55" fill="none" stroke="#bcbcbc" stroke-width="8" stroke-linecap="round" stroke-linejoin="round" /><polyline points="-67.00,1219.89 -57.49,1092.42 -56.54,1082.03 -55.09,1069.94 -55.07,1069.39 -54.44,1054.60 -51.27,1014.48 -49.48,995.79 -47.04,974.56 -44.81,959.28 -42.81,949.68 -40.29,942.42 -35.35,926.08 -25.16,892.05 -12.19,848.11 2.11,803.18 5.02,794.02 7.37,787.38" fill="none" stroke="#bcbcbc" stroke-width="8" stroke-linecap="round" stroke-linejoin="round" /><polyline points="-377.55,957.39 -380.08,968.69 -379.65,972.30 -364.16,1101.25 -362.51,1114.90 -363.23,1128.95 -367.28,1209.16 -368.98,1242.66 -369.85,1259.95 -371.41,1290.75 -372.22,1306.79 -373.98,1313.16" fill="none" stroke="#bcbcbc" stroke-width="8" stroke-linecap="round" stroke-linejoin="round" /><polyline points="-449.93,715.67 -506.24,698.93 -513.40,694.34 -548.45,684.13 -558.29,684.23 -602.33,670.97 -609.44,665.72 -649.51,653.57 -698.68,640.17 -698.92,640.15 -707.08,639.45" fill="none" stroke="#bcbcbc" stroke-width="8" stroke-linecap="round" stroke-linejoin="round" /><polyline points="576.31,533.56 578.27,536.12 586.44,548.29 601.53,570.80 615.74,585.03 643.06,615.70 638.44,644.04 636.10,654.66 632.84,659.16 639.69,669.29 650.28,691.09 671.46,731.94 681.88,752.06 688.37,770.14 691.29,778.54" fill="none" stroke="#bcbcbc" stroke-width="8" stroke-linecap="round" stroke-linejoin="round" /><polyline points="718.93,591.92 711.08,594.37 659.37,610.46 651.96,612.84 643.06,615.70" fill="none" stroke="#bcbcbc" stroke-width="8" stroke-linecap="round" stroke-linejoin="round" /><polyline points="347.32,689.89 363.49,684.64 480.87,624.70 496.58,617.03 551.91,601.05 605.55,585.97 615.74,585.03" fill="none" stroke="#bcbcbc" stroke-width="8" stroke-linecap="round" stroke-linejoin="round" /><polyline points="360.11,764.09 495.43,701.11 501.13,697.34 514.36,693.49 604.53,667.25 618.21,662.02 632.84,659.16" fill="none" stroke="#bcbcbc" stroke-width="8" stroke-linecap="round" stroke-linejoin="round" /><polyline points="332.50,-556.15 387.28,-549.38 392.78,-548.70 414.02,-543.49" fill="none" stroke="#bcbcbc" stroke-width="8" stroke-linecap="round" stroke-linejoin="round" /><polyline points="800.61,0.79 810.33,-1.24 846.63,16.56 851.41,21.29 919.55,136.63 921.34,150.62 930.20,158.00 928.79,163.10 928.58,171.41 929.81,183.04 947.85,257.21 949.45,308.58 951.98,390.60 956.22,501.00 938.94,549.11 927.81,578.44 911.55,619.77 906.85,631.72 903.79,635.06 898.88,667.05" fill="none" stroke="#bcbcbc" stroke-width="8" stroke-linecap="round" stroke-linejoin="round" /><polyline points="926.59,861.88 910.02,854.67 868.61,825.77 813.97,787.38 783.92,763.08 763.65,741.37" fill="none" stroke="#bcbcbc" stroke-width="8" stroke-linecap="round" stroke-linejoin="round" /><polyline points="256.11,1508.29 239.84,1503.13 213.43,1494.75 200.82,1490.76 186.02,1486.06 167.32,1480.13 150.40,1474.77 133.69,1469.47 59.14,1445.81 46.08,1441.67 29.87,1436.53 26.29,1435.40 -16.35,1424.13 -28.38,1421.22 -43.47,1417.57 -59.27,1413.74 -116.17,1399.94 -131.43,1396.24 -147.83,1390.55 -182.09,1378.65 -195.01,1374.16 -206.56,1370.41 -260.21,1351.34 -266.97,1347.31 -270.22,1340.31" fill="none" stroke="#bcbcbc" stroke-width="8" stroke-linecap="round" stroke-linejoin="round" /><polyline points="501.13,697.34 497.18,683.18 485.40,640.95 480.87,624.70 474.32,612.57 473.72,610.31 469.86,596.02 474.35,589.68 468.95,571.66 467.28,566.06" fill="none" stroke="#bcbcbc" stroke-width="8" stroke-linecap="round" stroke-linejoin="round" /><polyline points="481.44,180.53 492.63,175.26 553.81,141.53 588.78,119.04 613.44,102.22 618.89,98.16 638.74,84.36 659.31,69.17 672.34,59.69 687.86,48.33 741.83,23.98 748.83,24.35 759.06,19.51 800.61,0.79" fill="none" stroke="#bcbcbc" stroke-width="8" stroke-linecap="round" stroke-linejoin="round" /><polyline points="-196.65,410.47 -187.82,414.05 -181.99,415.84 -72.59,449.44 -55.88,454.58" fill="none" stroke="#bcbcbc" stroke-width="8" stroke-linecap="round" stroke-linejoin="round" /><polyline points="-978.08,656.50 -1056.24,632.84" fill="none" stroke="#bcbcbc" stroke-width="8" stroke-linecap="round" stroke-linejoin="round" /><polyline points="284.46,-445.75 303.84,-421.20 306.73,-417.54 316.51,-405.14 327.66,-403.83 350.58,-401.14 354.65,-398.33" fill="none" stroke="#bcbcbc" stroke-width="8" stroke-linecap="round" stroke-linejoin="round" /><polyline points="957.40,646.20 926.69,651.93 895.21,669.04 866.02,685.29 838.41,699.09 805.06,717.21 780.90,731.88 733.17,757.47 546.83,851.22 498.52,872.50 466.60,886.30 450.78,891.48 437.70,893.93 416.28,895.22 385.79,890.91 309.73,872.64 201.76,847.48 59.70,804.63 7.37,787.38 -78.33,760.92 -160.28,733.89 -280.48,686.73 -340.58,660.84 -413.05,628.64 -533.25,562.78 -561.43,544.09 -632.74,499.23 -662.65,469.32 -707.51,411.24 -781.41,335.03 -810.46,309.44" fill="none" stroke="#bcbcbc" stroke-width="8" stroke-linecap="round" stroke-linejoin="round" /><polyline points="374.75,1545.79 376.01,1538.77 380.55,1527.29 423.18,1427.55 439.28,1390.16 458.26,1343.57 462.88,1326.52" fill="none" stroke="#bcbcbc" stroke-width="8" stroke-linecap="round" stroke-linejoin="round" /><polyline points="-442.97,1124.68 -491.39,1101.24 -601.57,1047.92 -736.71,982.51 -748.77,976.67" fill="none" stroke="#bcbcbc" stroke-width="8" stroke-linecap="round" stroke-linejoin="round" /><polyline points="352.80,352.80 365.03,340.28 397.53,307.00 423.33,278.83" fill="none" stroke="#bcbcbc" stroke-width="8" stroke-linecap="round" stroke-linejoin="round" /><polyline points="-585.91,426.94 -599.34,409.16 -662.28,325.82 -752.13,253.11" fill="none" stroke="#bcbcbc" stroke-width="8" stroke-linecap="round" stroke-linejoin="round" /><polyline points="-975.82,1524.02 -963.53,1494.88 -924.46,1397.48 -919.73,1384.70 -914.48,1370.52 -912.48,1365.40 -911.95,1357.39 -906.95,1281.67 -905.52,1259.95" fill="none" stroke="#bcbcbc" stroke-width="8" stroke-linecap="round" stroke-linejoin="round" /><polyline points="-1002.47,741.09 -978.08,656.50 -945.91,544.93 -941.92,531.12 -937.49,515.43 -927.58,480.30 -926.54,476.61 -923.70,465.32 -919.17,452.55 -918.07,449.46 -912.35,435.28 -901.12,410.51 -897.76,403.40" fill="none" stroke="#bcbcbc" stroke-width="8" stroke-linecap="round" stroke-linejoin="round" /><polyline points="-941.92,531.12 -892.57,543.74 -788.05,570.61 -728.49,589.15 -703.65,594.97" fill="none" stroke="#bcbcbc" stroke-width="8" stroke-linecap="round" stroke-linejoin="round" /><polyline points="73.84,147.31 75.52,137.04 77.21,126.38 84.44,90.71 102.53,7.69 117.39,-66.57 120.10,-81.98 123.79,-102.90 123.79,-102.92" fill="none" stroke="#bcbcbc" stroke-width="8" stroke-linecap="round" stroke-linejoin="round" /><polyline points="-72.27,1745.95 -50.23,1689.75 -47.50,1679.65 39.94,1457.68 46.08,1441.67 51.06,1428.09 103.30,1276.07 113.36,1267.30" fill="none" stroke="#bcbcbc" stroke-width="8" stroke-linecap="round" stroke-linejoin="round" /><polyline points="227.45,104.34 227.45,104.32 224.35,88.06 223.87,86.09 216.31,55.37 216.32,55.27 211.17,34.44 189.35,-40.34 186.60,-48.35 171.86,-88.41 167.07,-100.37 163.99,-108.08 159.98,-116.84 159.97,-116.86 159.97,-116.89 157.04,-149.10 156.76,-164.91" fill="none" stroke="#bcbcbc" stroke-width="8" stroke-linecap="round" stroke-linejoin="round" /><polyline points="194.75,1373.10 189.14,1379.16 180.78,1389.11 157.22,1455.54 150.40,1474.77" fill="none" stroke="#bcbcbc" stroke-width="8" stroke-linecap="round" stroke-linejoin="round" /><polyline points="-196.65,410.47 -193.43,401.75 -192.70,399.72 -177.40,356.99 -171.67,338.99 -124.78,201.12" fill="none" stroke="#bcbcbc" stroke-width="8" stroke-linecap="round" stroke-linejoin="round" /><polyline points="45.89,603.75 50.67,591.04 63.63,556.63 69.10,542.08 72.81,532.23 83.21,504.61 90.08,486.37 91.00,483.92 107.64,439.72 114.60,441.88 118.36,431.61 125.03,413.46 123.75,405.22 141.46,357.03 143.27,352.08 146.63,348.99 149.45,346.40 167.20,297.88 169.77,284.60 195.23,213.84 201.26,209.12 213.51,174.46 211.33,169.14 222.06,136.77 216.49,107.86" fill="none" stroke="#bcbcbc" stroke-width="8" stroke-linecap="round" stroke-linejoin="round" /><polyline points="501.44,-712.44 494.30,-724.14 456.81,-785.66" fill="none" stroke="#bcbcbc" stroke-width="8" stroke-linecap="round" stroke-linejoin="round" /><polyline points="618.89,98.16 790.97,208.82 791.01,208.89 791.02,208.91 822.84,213.04" fill="none" stroke="#bcbcbc" stroke-width="8" stroke-linecap="round" stroke-linejoin="round" /><polyline points="549.88,-133.00 732.97,-41.10 738.49,-36.98 738.12,-6.89 741.83,23.98" fill="none" stroke="#bcbcbc" stroke-width="8" stroke-linecap="round" stroke-linejoin="round" /><polyline points="200.82,1490.76 194.24,1510.85 167.56,1592.21 122.19,1729.23 118.97,1738.95 115.71,1748.80 114.80,1759.29" fill="none" stroke="#bcbcbc" stroke-width="8" stroke-linecap="round" stroke-linejoin="round" /><polyline points="716.24,996.51 717.33,986.31 717.57,976.78 717.49,976.45 711.00,948.41 708.34,936.69 707.06,931.03 705.75,925.26 698.63,893.88 684.71,831.18 674.60,793.48 673.17,787.66" fill="none" stroke="#bcbcbc" stroke-width="8" stroke-linecap="round" stroke-linejoin="round" /><polyline points="-192.74,1570.49 -188.20,1557.59 -137.22,1412.69 -131.43,1396.24" fill="none" stroke="#bcbcbc" stroke-width="8" stroke-linecap="round" stroke-linejoin="round" /><polyline points="951.98,390.60 936.98,386.37 835.11,230.06 822.84,213.04" fill="none" stroke="#bcbcbc" stroke-width="8" stroke-linecap="round" stroke-linejoin="round" /><polyline points="-722.54,765.66 -351.30,854.60 -325.70,863.95" fill="none" stroke="#bcbcbc" stroke-width="8" stroke-linecap="round" stroke-linejoin="round" /><polyline points="448.36,-624.10 592.97,-570.53 613.33,-574.01" fill="none" stroke="#bcbcbc" stroke-width="8" stroke-linecap="round" stroke-linejoin="round" />
    <polyline points="167.20,297.88 204.60,309.53 341.38,351.77 342.66,352.17 352.80,352.80" fill="none" stroke="#ffffff" stroke-width="16" stroke-linecap="round" stroke-linejoin="round" />
    <polyline points="167.20,297.88 204.60,309.53 341.38,351.77 342.66,352.17 352.80,352.80" fill="none" stroke="#111111" stroke-width="9" stroke-linecap="round" stroke-linejoin="round" />
    
            <g transform="translate(167.20,297.88)">
              <circle r="19" fill="#ffffff" stroke="#111111" stroke-width="4" />
              <text text-anchor="middle" dominant-baseline="central" font-family="Helvetica, Arial, sans-serif"
                font-size="18" font-weight="700" fill="#111111">1</text>
            </g>
            
            <g transform="translate(352.80,352.80)">
              <circle r="19" fill="#ffffff" stroke="#111111" stroke-width="4" />
              <text text-anchor="middle" dominant-baseline="central" font-family="Helvetica, Arial, sans-serif"
                font-size="18" font-weight="700" fill="#111111">2</text>
            </g>
            
  </g>
</svg>
