<svg xmlns="http://www.w3.org/2000/svg" width="520" height="520" viewBox="0 0 520 520">
  <rect width="100%" height="100%" fill="#ffffff" />
  <g>
    <polyline points="415.14,360.46 418.57,378.70 440.69,533.49 437.31,572.19" fill="none" stroke="#bcbcbc" stroke-width="8" stroke-linecap="round" stroke-linejoin="round" /><polyline points="-34.57,1650.39 -29.23,1633.95 -0.88,1546.77 2.46,1536.50 5.84,1525.72 77.10,1298.43 82.84,1280.15 69.71,1247.82" fill="none" stroke="#bcbcbc" stroke-width="8" stroke-linecap="round" stroke-linejoin="round" /><polyline points="-526.85,1448.24 -528.00,1435.18 -504.70,1304.68 -501.43,1288.35 -498.99,1279.80 -492.58,1246.70 -485.37,1206.20 -477.52,1170.52 -469.73,1134.92 -464.83,1124.89 -461.62,1118.74" fill="none" stroke="#bcbcbc" stroke-width="8" stroke-linecap="round" stroke-linejoin="round" /><polyline points="-391.61,527.66 -397.15,510.77 -454.41,336.12 -457.20,328.80" fill="none" stroke="#bcbcbc" stroke-width="8" stroke-linecap="round" stroke-linejoin="round" /><polyline points="-685.41,2064.72 -683.70,2048.05 -683.01,2040.40 -676.77,1971.45 -669.95,1910.73 -668.36,1896.56 -666.88,1879.55 -666.71,1878.12 -662.84,1844.30 -659.51,1809.93 -655.83,1776.76 -653.36,1750.93 -652.33,1734.99 -651.41,1720.28 -649.79,1703.69" fill="none" stroke="#bcbcbc" stroke-width="8" stroke-linecap="round" stroke-linejoin="round" /><polyline points="105.75,1690.91 109.83,1678.09 138.56,1587.76 141.83,1577.50 146.47,1562.88 149.79,1552.40 175.22,1442.71" fill="none" stroke="#bcbcbc" stroke-width="8" stroke-linecap="round" stroke-linejoin="round" /><polyline points="-5.93,-95.81 4.68,-94.18 297.06,-49.25" fill="none" stroke="#bcbcbc" stroke-width="8" stroke-linecap="round" stroke-linejoin="round" /><polyline points="-756.54,1669.63 -786.97,1668.21 -805.53,1667.35 -815.61,1666.88 -824.45,1666.47 -893.37,1663.26 -989.22,1658.81 -1034.91,1652.33 -1050.20,1650.16 -1063.47,1647.82 -1153.33,1631.95 -1165.89,1629.74 -1168.67,1629.26 -1184.19,1626.60 -1196.11,1624.56 -1272.25,1617.83 -1286.75,1616.55 -1292.07,1616.07 -1308.54,1614.93 -1340.77,1612.70" fill="none" stroke="#bcbcbc" stroke-width="8" stroke-linecap="round" stroke-linejoin="round" /><polyline points="-314.41,1581.33 -308.51,1564.55 -255.39,1417.29 -191.49,1231.55 -187.40,1219.91 -184.55,1211.77 -182.23,1205.09" fill="none" stroke="#bcbcbc" stroke-width="8" stroke-linecap="round" stroke-linejoin="round" /><polyline points="-1292.07,1616.07 -1293.43,1606.60 -1293.75,1596.32 -1291.74,1575.61 -1287.11,1537.80 -1284.02,1525.11 -1279.02,1479.23 -1278.11,1469.00 -1276.64,1455.87 -1275.55,1446.11 -1273.50,1435.05 -1269.70,1405.29 -1267.05,1382.52 -1263.17,1373.21" fill="none" stroke="#bcbcbc" stroke-width="8" stroke-linecap="round" stroke-linejoin="round" /><polyline points="-1346.44,1361.57 -1275.59,1371.47 -1263.17,1373.21 -1255.48,1374.43 -1223.72,1379.49 -1150.55,1391.15 -1137.99,1393.25" fill="none" stroke="#bcbcbc" stroke-width="8" stroke-linecap="round" stroke-linejoin="round" /><polyline points="-42.52,432.05 -42.06,438.49 -41.11,445.01 -38.81,450.01 -34.50,455.58 -26.54,462.83 -7.65,474.32 138.02,565.72 227.74,686.01 295.51,853.27 299.93,864.32" fill="none" stroke="#bcbcbc" stroke-width="8" stroke-linecap="round" stroke-linejoin="round" /><polyline points="-65.85,920.07 -62.83,925.07 -62.05,926.37 -59.55,938.99 -42.46,1021.64 -37.03,1047.87 -33.15,1066.56 -27.10,1104.43 -24.27,1121.90 -22.32,1132.55 -20.19,1142.18 -17.64,1147.79 -13.90,1154.29 -11.90,1157.36 25.95,1211.55 46.43,1243.79 51.77,1251.50" fill="none" stroke="#bcbcbc" stroke-width="8" stroke-linecap="round" stroke-linejoin="round" /><polyline points="-1152.46,1954.99 -1150.45,1942.59 -1148.57,1933.62 -1148.07,1932.43 -1122.88,1872.52 -1106.83,1833.59 -1101.95,1821.25 -1096.78,1808.18 -1091.17,1796.95 -1090.26,1794.75 -1082.58,1776.18 -1076.65,1759.75 -1071.55,1744.68 -1068.32,1734.02 -1064.69,1720.86 -1060.51,1703.21 -1057.34,1688.89 -1053.55,1668.91 -1052.75,1664.45 -1050.20,1650.16" fill="none" stroke="#bcbcbc" stroke-width="8" stroke-linecap="round" stroke-linejoin="round" /><polyline points="68.13,282.04 148.46,338.18 159.28,340.47 167.20,349.53" fill="none" stroke="#bcbcbc" stroke-width="8" stroke-linecap="round" stroke-linejoin="round" /><polyline points="-269.18,800.47 -258.56,804.55 -212.47,819.63 -105.55,860.64 -99.55,866.62 -96.74,871.08" fill="none" stroke="#bcbcbc" stroke-width="8" stroke-linecap="round" stroke-linejoin="round" /><polyline points="-69.95,1854.14 -62.66,1835.16 -26.72,1737.64 -1.31,1663.96 3.96,1661.53" fill="none" stroke="#bcbcbc" stroke-width="8" stroke-linecap="round" stroke-linejoin="round" /><polyline points="-578.01,1730.48 -572.34,1717.94 -571.78,1716.70 -562.08,1684.15 -546.18,1630.57 -542.11,1616.85 -538.95,1606.20 -538.52,1599.99 -539.17,1586.25" fill="none" stroke="#bcbcbc" stroke-width="8" stroke-linecap="round" stroke-linejoin="round" /><polyline points="82.63,924.36 73.51,926.24 52.86,922.56 49.67,914.04 13.89,900.40 5.43,902.61 -26.85,890.76 -31.67,894.12" fill="none" stroke="#bcbcbc" stroke-width="8" stroke-linecap="round" stroke-linejoin="round" /><polyline points="29.50,-182.49 45.71,-178.51 54.68,-176.96 267.97,-139.97" fill="none" stroke="#bcbcbc" stroke-width="8" stroke-linecap="round" stroke-linejoin="round" /><polyline points="-136.27,1794.75 -127.40,1769.74 -110.16,1721.12 -99.02,1700.41 -82.98,1655.52 -76.58,1637.60" fill="none" stroke="#bcbcbc" stroke-width="8" stroke-linecap="round" stroke-linejoin="round" /><polyline points="-1304.89,823.85 -1320.34,823.15 -1324.21,827.85 -1351.12,860.55 -1445.20,969.23 -1458.43,984.52" fill="none" stroke="#bcbcbc" stroke-width="8" stroke-linecap="round" stroke-linejoin="round" /><polyline points="-479.71,916.94 -486.53,932.03 -487.35,933.86 -511.05,995.65 -534.93,1063.66 -541.30,1081.80 -544.91,1091.17" fill="none" stroke="#bcbcbc" stroke-width="8" stroke-linecap="round" stroke-linejoin="round" /><polyline points="-132.18,222.69 -124.65,232.90 -119.28,246.95 -110.91,267.10 -97.49,298.80 -85.60,327.26 -71.96,358.51 -61.84,382.59 -60.34,386.05 -60.25,386.26 -52.10,405.31 -49.67,410.72 -47.35,415.88 -44.90,420.71 -43.06,425.61 -42.52,432.05" fill="none" stroke="#bcbcbc" stroke-width="8" stroke-linecap="round" stroke-linejoin="round" /><polyline points="-708.38,1221.51 -704.44,1219.36 -698.93,1214.98 -696.17,1209.30 -659.57,1070.49 -658.46,1062.66 -654.00,1048.36" fill="none" stroke="#bcbcbc" stroke-width="8" stroke-linecap="round" stroke-linejoin="round" /><polyline points="571.54,1004.30 576.73,1020.78 580.39,1038.09 573.27,1104.07 565.05,1153.69 560.56,1170.62 560.15,1172.15 556.21,1181.29 550.85,1190.98 538.33,1206.82 544.39,1237.79 524.78,1304.27 513.94,1340.98 491.78,1401.08 459.33,1474.24 419.71,1544.36 407.33,1567.15 384.96,1604.59 295.58,1731.47 275.99,1757.86 200.15,1856.97 156.62,1906.51 95.71,1968.41 90.08,1969.00 76.32,1980.24" fill="none" stroke="#bcbcbc" stroke-width="8" stroke-linecap="round" stroke-linejoin="round" /><polyline points="-531.40,2089.56 -506.45,2012.17 -502.37,1999.39 -496.83,1991.34 -484.91,1955.57 -481.03,1943.42 -431.80,1789.29 -426.85,1773.78 -422.77,1760.16 -364.68,1577.32" fill="none" stroke="#bcbcbc" stroke-width="8" stroke-linecap="round" stroke-linejoin="round" /><polyline points="53.12,650.29 74.69,626.72 81.05,619.05 124.63,557.31" fill="none" stroke="#bcbcbc" stroke-width="8" stroke-linecap="round" stroke-linejoin="round" /><polyline points="-378.01,659.63 -318.61,680.31 -315.33,685.64 -298.46,691.30 -288.45,694.72 -240.57,710.89" fill="none" stroke="#bcbcbc" stroke-width="8" stroke-linecap="round" stroke-linejoin="round" /><polyline points="139.73,248.54 167.20,349.53 199.01,468.51 203.83,478.42 204.59,489.74 226.16,530.01 284.37,638.56 297.09,657.34 300.78,662.83 387.74,825.43 427.70,861.76 433.31,869.00 441.22,875.76 517.10,940.65 522.25,945.05 535.88,952.29" fill="none" stroke="#bcbcbc" stroke-width="8" stroke-linecap="round" stroke-linejoin="round" /><polyline points="-155.40,2105.99 33.85,1996.04 67.54,1978.82 76.32,1980.24" fill="none" stroke="#bcbcbc" stroke-width="8" stroke-linecap="round" stroke-linejoin="round" /><polyline points="49.79,1948.70 61.53,1934.74 166.95,1724.39 173.93,1710.60 179.76,1696.94 213.81,1612.73 223.95,1587.36 253.30,1498.53 272.33,1384.33 274.59,1367.71" fill="none" stroke="#bcbcbc" stroke-width="8" stroke-linecap="round" stroke-linejoin="round" /><polyline points="-31.56,711.61 -33.41,713.50 -35.95,722.35 -36.20,723.24 -47.64,767.29 -44.64,778.79 -47.14,789.10 -50.40,802.60 -58.77,812.30 -68.27,850.78 -79.46,859.24 -91.41,867.43 -96.74,871.08" fill="none" stroke="#bcbcbc" stroke-width="8" stroke-linecap="round" stroke-linejoin="round" /><polyline points="-479.71,916.94 -474.85,904.47 -445.60,829.49 -439.22,813.14 -433.97,799.68 -396.60,703.93 -379.78,663.90 -378.01,659.63 -364.93,628.01 -335.60,555.16 -324.85,524.15 -322.46,517.04 -319.25,508.98" fill="none" stroke="#bcbcbc" stroke-width="8" stroke-linecap="round" stroke-linejoin="round" /><polyline points="-152.46,462.44 -146.80,479.28 38.79,637.82 140.07,725.94 291.34,857.45 304.54,868.01 310.46,871.71 336.71,895.54 371.76,925.44 451.27,993.24 476.95,1015.33 493.99,1035.71" fill="none" stroke="#bcbcbc" stroke-width="8" stroke-linecap="round" stroke-linejoin="round" /><polyline points="154.41,189.25 163.83,183.22 219.60,160.04 231.06,147.98" fill="none" stroke="#bcbcbc" stroke-width="8" stroke-linecap="round" stroke-linejoin="round" /><polyline points="218.82,1600.19 141.83,1577.50 2.46,1536.50" fill="none" stroke="#bcbcbc" stroke-width="8" stroke-linecap="round" stroke-linejoin="round" /><polyline points="-29.72,-37.68 -19.20,-30.43 323.51,45.83" fill="none" stroke="#bcbcbc" stroke-width="8" stroke-linecap="round" stroke-linejoin="round" /><polyline points="393.61,1090.76 375.90,1051.35 336.59,957.60 333.66,950.15 326.94,933.04 301.60,868.56 300.01,864.38" fill="none" stroke="#bcbcbc" stroke-width="8" stroke-linecap="round" stroke-linejoin="round" /><polyline points="-132.18,222.69 -151.21,217.28 -165.19,213.11 -193.61,204.67 -208.04,200.55 -216.31,198.26 -227.11,195.16" fill="none" stroke="#bcbcbc" stroke-width="8" stroke-linecap="round" stroke-linejoin="round" /><polyline points="-628.27,738.33 -629.24,735.19 -630.12,732.98 -634.05,723.24 -649.24,687.82 -663.67,651.84 -666.79,643.34 -670.38,633.56 -672.95,625.55 -677.20,613.55 -677.64,612.29 -691.45,578.24 -716.81,514.25 -722.51,511.00 -726.56,500.63 -734.65,472.52 -748.50,437.69 -751.49,429.77" fill="none" stroke="#bcbcbc" stroke-width="8" stroke-linecap="round" stroke-linejoin="round" /><polyline points="-506.45,2012.17 -492.05,2016.58 -445.46,2030.78 -430.87,2035.22" fill="none" stroke="#bcbcbc" stroke-width="8" stroke-linecap="round" stroke-linejoin="round" /><polyline points="363.67,206.01 366.39,195.03 365.28,190.86 363.95,185.83 355.45,154.66 336.48,88.77 326.47,55.09 323.51,45.83 297.06,-49.25 282.78,-100.54 267.97,-139.97 254.59,-175.55 241.27,-200.01 228.32,-212.93 128.93,-334.39 121.58,-343.03 116.70,-351.02" fill="none" stroke="#bcbcbc" stroke-width="8" stroke-linecap="round" stroke-linejoin="round" /><polyline points="-42.52,432.05 -47.65,434.01 -57.12,436.62 -58.07,436.89 -97.66,447.01 -143.17,459.83 -152.46,462.44 -156.60,463.76 -167.53,467.27 -176.88,469.87 -217.69,481.23 -284.81,500.30 -309.83,506.62 -319.25,508.98 -363.98,519.96 -391.61,527.66 -450.12,544.01 -507.96,560.31 -514.65,562.16 -562.99,575.58 -585.28,581.77 -596.54,587.09 -617.85,597.66 -660.18,619.14 -663.13,620.64 -672.95,625.55 -678.95,628.55 -687.31,632.94 -717.05,648.53 -771.23,678.93 -816.49,702.65 -822.97,706.04 -831.62,706.58 -836.81,709.34 -837.85,709.89 -886.95,736.80 -897.23,736.76 -909.04,742.93 -913.16,745.09 -916.64,746.91 -924.84,751.20 -931.31,765.95 -959.10,780.84 -967.94,785.57 -977.50,790.78 -1016.16,811.82 -1036.15,822.70 -1046.23,825.60" fill="none" stroke="#bcbcbc" stroke-width="8" stroke-linecap="round" stroke-linejoin="round" /><polyline points="513.94,1340.98 493.31,1342.87 428.86,1348.78 425.96,1349.04 421.85,1349.42 415.19,1350.03 352.70,1355.77 330.97,1353.75 305.66,1360.10 285.39,1365.07 274.59,1367.71 247.76,1368.73 224.54,1367.55 212.70,1366.29 202.62,1363.24 195.20,1359.14 167.57,1339.60 100.43,1293.48 94.10,1289.19 87.66,1284.82 82.84,1280.15" fill="none" stroke="#bcbcbc" stroke-width="8" stroke-linecap="round" stroke-linejoin="round" /><polyline points="-1006.70,562.39 -982.34,610.09 -978.65,623.72 -958.13,662.88 -949.65,674.08 -915.35,740.83 -913.16,745.09" fill="none" stroke="#bcbcbc" stroke-width="8" stroke-linecap="round" stroke-linejoin="round" /><polyline points="-260.13,986.57 -263.78,996.60 -264.80,999.71 -269.56,1014.14 -299.70,1098.23 -314.66,1140.00 -315.17,1141.42 -321.18,1154.40 -324.62,1162.11" fill="none" stroke="#bcbcbc" stroke-width="8" stroke-linecap="round" stroke-linejoin="round" /><polyline points="139.73,248.54 136.39,241.39 127.60,240.23 99.19,246.75 93.42,246.00 88.90,239.94 80.86,202.97 124.40,196.23 144.56,190.28 154.41,189.25 165.03,227.00" fill="none" stroke="#bcbcbc" stroke-width="8" stroke-linecap="round" stroke-linejoin="round" /><polyline points="297.09,657.34 308.31,651.04 364.64,617.09 379.69,608.13 406.05,592.41 449.40,564.37 459.52,557.10 535.56,509.92" fill="none" stroke="#bcbcbc" stroke-width="8" stroke-linecap="round" stroke-linejoin="round" /><polyline points="562.91,880.18 543.69,874.45 532.51,865.28 489.79,828.32 488.34,827.02 478.01,817.80 471.94,807.04 364.64,617.09" fill="none" stroke="#bcbcbc" stroke-width="8" stroke-linecap="round" stroke-linejoin="round" /><polyline points="-648.07,865.13 -479.71,916.94 -465.97,921.29 -340.34,961.12 -337.71,961.95 -318.89,967.92 -309.64,970.86 -297.61,974.14 -272.81,982.54 -260.13,986.57 -248.71,990.19 -155.21,1019.85 -56.51,1050.86 -48.35,1053.43 -37.03,1047.87" fill="none" stroke="#bcbcbc" stroke-width="8" stroke-linecap="round" stroke-linejoin="round" /><polyline points="-153.04,33.88 -80.11,-33.14 -67.76,-44.48" fill="none" stroke="#bcbcbc" stroke-width="8" stroke-linecap="round" stroke-linejoin="round" /><polyline points="-1374.26,1115.24 -1106.66,1143.93" fill="none" stroke="#bcbcbc" stroke-width="8" stroke-linecap="round" stroke-linejoin="round" /><polyline points="-566.99,368.27 -510.74,348.16 -452.72,327.18 -416.68,313.17 -306.62,273.13 -274.68,262.08 -268.01,259.78 -260.01,257.03 -251.02,253.94 -249.93,253.56 -231.80,246.27 -223.91,243.10" fill="none" stroke="#bcbcbc" stroke-width="8" stroke-linecap="round" stroke-linejoin="round" /><polyline points="-189.22,1729.42 -136.27,1794.75 -103.85,1827.39 -89.82,1837.50 -69.95,1854.14 -51.29,1869.81 -35.25,1885.45 -34.86,1893.41" fill="none" stroke="#bcbcbc" stroke-width="8" stroke-linecap="round" stroke-linejoin="round" /><polyline points="-132.18,222.69 -111.43,170.67 -77.84,85.02 -29.72,-37.68 -5.93,-95.81 29.50,-182.49 58.56,-253.48 63.76,-262.90 89.31,-304.69 90.96,-307.38 100.31,-325.77 116.70,-351.02 125.86,-365.12 138.82,-385.05" fill="none" stroke="#bcbcbc" stroke-width="8" stroke-linecap="round" stroke-linejoin="round" /><polyline points="-621.76,1613.56 -625.16,1616.28 -627.41,1619.52 -631.99,1633.02 -635.15,1642.76 -649.77,1686.49 -651.78,1692.80 -653.03,1696.71 -666.46,1692.86 -699.13,1681.90 -731.51,1671.04 -756.54,1669.63" fill="none" stroke="#bcbcbc" stroke-width="8" stroke-linecap="round" stroke-linejoin="round" /><polyline points="-1261.67,1917.82 -1208.31,1780.00 -1202.37,1765.00 -1197.04,1750.55 -1190.61,1733.09 -1182.72,1705.62 -1174.49,1671.49 -1171.12,1647.03 -1168.67,1629.26 -1165.22,1616.14 -1152.66,1517.60 -1137.99,1393.25 -1130.40,1333.96 -1121.93,1264.32 -1106.66,1143.93 -1104.24,1123.46 -1088.81,997.56 -1088.80,990.55 -1085.39,953.19 -1075.55,874.28 -1073.08,860.52 -1070.51,852.80 -1066.48,844.30 -1062.57,837.70 -1053.93,828.35 -1046.21,825.70" fill="none" stroke="#bcbcbc" stroke-width="8" stroke-linecap="round" stroke-linejoin="round" /><polyline points="-96.74,871.08 -93.82,875.71 -84.03,890.99 -69.38,914.47 -65.85,920.07 -60.01,915.64 -31.67,894.12" fill="none" stroke="#bcbcbc" stroke-width="8" stroke-linecap="round" stroke-linejoin="round" /><polyline points="-77.84,85.02 210.48,137.15 240.76,153.09 353.72,209.09 363.67,206.01" fill="none" stroke="#bcbcbc" stroke-width="8" stroke-linecap="round" stroke-linejoin="round" /><polyline points="-628.27,738.33 -633.39,745.80 -679.39,768.25 -713.17,811.19 -749.63,833.76 -774.56,852.59 -798.34,872.00 -810.54,883.11 -832.08,910.44 -856.17,944.97 -860.14,951.37" fill="none" stroke="#bcbcbc" stroke-width="8" stroke-linecap="round" stroke-linejoin="round" /><polyline points="-579.64,769.14 -581.64,773.57 -586.00,779.95 -594.24,790.09 -642.83,851.47 -668.54,920.72 -798.29,871.94" fill="none" stroke="#bcbcbc" stroke-width="8" stroke-linecap="round" stroke-linejoin="round" /><polyline points="-774.56,852.59 -779.58,837.38 -801.29,771.64 -809.72,758.65 -823.83,716.32 -825.05,712.66 -822.97,706.04 -826.35,695.25 -894.19,478.61" fill="none" stroke="#bcbcbc" stroke-width="8" stroke-linecap="round" stroke-linejoin="round" /><polyline points="20.40,-329.45 74.02,-328.04 76.52,-327.97 86.79,-327.67 100.31,-325.77" fill="none" stroke="#bcbcbc" stroke-width="8" stroke-linecap="round" stroke-linejoin="round" /><polyline points="-255.39,1417.29 -273.70,1417.07 -428.72,1437.88 -439.89,1439.06 -452.67,1440.41 -526.85,1448.24 -626.79,1458.79 -679.77,1464.38 -709.08,1467.47 -732.88,1470.37 -745.10,1471.85 -758.86,1473.53 -825.36,1481.61 -841.29,1483.54 -890.39,1488.91 -1152.66,1517.60" fill="none" stroke="#bcbcbc" stroke-width="8" stroke-linecap="round" stroke-linejoin="round" /><polyline points="-484.91,1955.57 -498.64,1951.15 -562.78,1930.50 -575.75,1926.33 -587.01,1922.71 -654.96,1900.86 -668.36,1896.56 -686.08,1890.85 -794.26,1856.04 -806.43,1852.12" fill="none" stroke="#bcbcbc" stroke-width="8" stroke-linecap="round" stroke-linejoin="round" /><polyline points="-216.70,656.82 -179.39,668.45 -42.95,710.58 -41.68,710.98 -31.56,711.61" fill="none" stroke="#bcbcbc" stroke-width="8" stroke-linecap="round" stroke-linejoin="round" /><polyline points="76.32,1980.24 49.79,1948.70 38.66,1935.76 29.09,1926.82 16.36,1917.31 -9.67,1901.69 -34.86,1893.41 -86.10,1877.58 -128.01,1864.28 -103.85,1827.39" fill="none" stroke="#bcbcbc" stroke-width="8" stroke-linecap="round" stroke-linejoin="round" /><polyline points="-189.22,1729.42 -226.16,1683.82 -233.19,1675.14 -270.40,1623.87 -278.83,1608.22 -276.80,1589.58 -265.59,1589.48 -237.91,1594.80 -195.80,1602.90" fill="none" stroke="#bcbcbc" stroke-width="8" stroke-linecap="round" stroke-linejoin="round" /><polyline points="-672.51,1364.03 -665.70,1378.69 -626.79,1458.79 -568.93,1577.90 -561.56,1593.09" fill="none" stroke="#bcbcbc" stroke-width="8" stroke-linecap="round" stroke-linejoin="round" /><polyline points="-1295.69,1726.85 -1281.77,1732.53 -1216.60,1759.18 -1202.37,1765.00 -1187.40,1771.12 -1110.66,1802.50 -1096.78,1808.18" fill="none" stroke="#bcbcbc" stroke-width="8" stroke-linecap="round" stroke-linejoin="round" /><polyline points="-640.49,1245.27 -504.70,1304.68" fill="none" stroke="#bcbcbc" stroke-width="8" stroke-linecap="round" stroke-linejoin="round" /><polyline points="-31.56,711.61 -10.88,712.70 -9.56,713.87 -0.28,722.10 13.36,734.28 15.88,739.18 62.89,780.35 66.36,786.92 99.42,816.10 107.74,818.63 133.46,841.16 139.22,843.79 178.00,876.69 186.63,884.34 191.40,891.93" fill="none" stroke="#bcbcbc" stroke-width="8" stroke-linecap="round" stroke-linejoin="round" /><polyline points="-1334.02,1245.40 -1121.93,1264.32" fill="none" stroke="#bcbcbc" stroke-width="8" stroke-linecap="round" stroke-linejoin="round" /><polyline points="-860.46,2035.21 -853.89,2021.22 -852.20,2015.00 -842.99,1981.04 -809.63,1863.38 -806.43,1852.12 -803.06,1839.77 -787.94,1784.49 -762.42,1691.14 -756.54,1669.63" fill="none" stroke="#bcbcbc" stroke-width="8" stroke-linecap="round" stroke-linejoin="round" /><polyline points="-672.51,1364.03 -640.49,1245.27 -708.38,1221.51 -726.16,1232.01 -734.26,1238.17 -740.26,1246.29 -744.48,1257.01 -760.10,1314.73 -747.50,1321.14 -734.78,1324.23 -706.64,1331.55 -685.58,1338.26 -672.51,1364.03" fill="none" stroke="#bcbcbc" stroke-width="8" stroke-linecap="round" stroke-linejoin="round" /><polyline points="-760.10,1314.73 -774.97,1312.65 -1121.93,1264.32" fill="none" stroke="#bcbcbc" stroke-width="8" stroke-linecap="round" stroke-linejoin="round" /><polyline points="-195.80,1602.90 -163.62,1609.94 -76.58,1637.60 -52.25,1645.29 5.52,1661.98 63.71,1678.76 106.78,1691.21 175.68,1711.10 189.91,1715.22 224.68,1726.87 281.92,1742.12 286.97,1743.07" fill="none" stroke="#bcbcbc" stroke-width="8" stroke-linecap="round" stroke-linejoin="round" /><polyline points="-154.97,2105.74 -166.72,2108.69 -179.41,2144.07 -199.10,2138.48 -288.62,2107.97 -299.39,2105.67 -323.36,2103.95 -431.77,2104.39 -455.67,2101.34 -509.64,2093.09 -531.40,2089.56 -685.80,2064.65 -745.59,2055.11 -859.61,2035.36 -878.02,2031.71 -1135.35,1959.78 -1151.59,1955.23 -1261.67,1917.82 -1288.75,1908.21 -1356.40,1880.17 -1394.96,1865.59" fill="none" stroke="#bcbcbc" stroke-width="8" stroke-linecap="round" stroke-linejoin="round" /><polyline points="80.86,202.97 69.72,200.67 -79.01,218.26 -132.18,222.69" fill="none" stroke="#bcbcbc" stroke-width="8" stroke-linecap="round" stroke-linejoin="round" /><polyline points="-195.80,1602.90 -190.58,1594.18 -159.37,1514.02 -124.50,1392.81 -115.61,1366.71 -110.85,1359.60 -77.18,1251.52 -75.51,1238.62 -74.24,1230.19" fill="none" stroke="#bcbcbc" stroke-width="8" stroke-linecap="round" stroke-linejoin="round" /><polyline points="-42.52,432.05 -38.97,430.69 -34.15,426.86 -26.84,418.31 68.13,282.04 93.42,246.00" fill="none" stroke="#bcbcbc" stroke-width="8" stroke-linecap="round" stroke-linejoin="round" /><polyline points="380.13,932.62 382.07,927.03 429.81,870.87 433.31,869.00 441.60,857.65 469.37,825.75 478.01,817.80" fill="none" stroke="#bcbcbc" stroke-width="8" stroke-linecap="round" stroke-linejoin="round" /><polyline points="421.85,1349.42 421.18,1341.91 420.67,1336.09 418.16,1324.98 415.15,1317.72 411.40,1298.68 411.06,1291.78 408.52,1276.36 397.16,1270.42 388.08,1273.90 371.82,1277.79 358.96,1279.80 346.62,1282.78 329.58,1286.66 321.81,1288.43" fill="none" stroke="#bcbcbc" stroke-width="8" stroke-linecap="round" stroke-linejoin="round" /><polyline points="-832.30,1073.59 -797.58,992.21 -795.65,986.92" fill="none" stroke="#bcbcbc" stroke-width="8" stroke-linecap="round" stroke-linejoin="round" /><polyline points="82.63,924.36 99.36,917.87 108.11,914.48 114.88,907.63 142.77,900.76 152.13,903.14 172.32,897.94 187.73,893.97 191.40,891.93 206.33,888.27 282.70,869.56 300.01,864.38" fill="none" stroke="#bcbcbc" stroke-width="8" stroke-linecap="round" stroke-linejoin="round" /><polyline points="-621.76,1613.56 -585.74,1600.48 -573.69,1596.80 -561.56,1593.09 -539.17,1586.25 -521.75,1583.75 -462.27,1577.24 -450.32,1576.59 -397.10,1577.04 -364.68,1577.32 -352.49,1576.70 -332.96,1578.67 -326.85,1579.55 -314.41,1581.33 -276.80,1589.58" fill="none" stroke="#bcbcbc" stroke-width="8" stroke-linecap="round" stroke-linejoin="round" /><polyline points="-450.12,544.01 -456.09,523.83 -478.26,448.88 -505.18,363.41 -510.74,348.16 -516.38,333.86 -523.52,313.25" fill="none" stroke="#bcbcbc" stroke-width="8" stroke-linecap="round" stroke-linejoin="round" /><polyline points="-514.59,1752.50 -509.86,1737.55 -461.97,1586.53 -462.27,1577.24" fill="none" stroke="#bcbcbc" stroke-width="8" stroke-linecap="round" stroke-linejoin="round" /><polyline points="-450.32,1576.59 -440.84,1449.43 -439.89,1439.06 -438.44,1427.00 -438.42,1426.45 -437.79,1411.70 -434.63,1371.67 -432.84,1353.03 -430.41,1331.85 -428.18,1316.61 -426.19,1307.03 -423.68,1299.80 -418.75,1283.49 -408.58,1249.54 -395.65,1205.71 -381.38,1160.90 -378.48,1151.76 -376.14,1145.13" fill="none" stroke="#bcbcbc" stroke-width="8" stroke-linecap="round" stroke-linejoin="round" /><polyline points="-760.10,1314.73 -762.62,1325.99 -762.19,1329.59 -746.74,1458.23 -745.10,1471.85 -745.81,1485.87 -749.86,1565.88 -751.55,1599.30 -752.42,1616.54 -753.98,1647.27 -754.79,1663.28 -756.54,1669.63" fill="none" stroke="#bcbcbc" stroke-width="8" stroke-linecap="round" stroke-linejoin="round" /><polyline points="-832.30,1073.59 -888.47,1056.90 -895.61,1052.32 -930.57,1042.13 -940.39,1042.23 -984.32,1029.00 -991.42,1023.76 -1031.39,1011.65 -1080.43,998.28 -1080.67,998.26 -1088.81,997.56" fill="none" stroke="#bcbcbc" stroke-width="8" stroke-linecap="round" stroke-linejoin="round" /><polyline points="191.40,891.93 193.35,894.49 201.49,906.63 216.55,929.07 230.72,943.27 257.97,973.87 253.37,1002.14 251.03,1012.74 247.78,1017.22 254.61,1027.33 265.18,1049.08 286.30,1089.83 296.70,1109.90 303.17,1127.93 306.09,1136.31" fill="none" stroke="#bcbcbc" stroke-width="8" stroke-linecap="round" stroke-linejoin="round" /><polyline points="333.66,950.15 325.83,952.59 274.25,968.64 266.85,971.01 257.97,973.87" fill="none" stroke="#bcbcbc" stroke-width="8" stroke-linecap="round" stroke-linejoin="round" /><polyline points="-37.03,1047.87 -20.90,1042.64 96.19,982.85 111.86,975.19 167.05,959.25 220.56,944.21 230.72,943.27" fill="none" stroke="#bcbcbc" stroke-width="8" stroke-linecap="round" stroke-linejoin="round" /><polyline points="-24.27,1121.90 110.71,1059.07 116.40,1055.31 129.60,1051.47 219.55,1025.30 233.19,1020.07 247.78,1017.22" fill="none" stroke="#bcbcbc" stroke-width="8" stroke-linecap="round" stroke-linejoin="round" /><polyline points="-51.82,-195.12 2.83,-188.36 8.31,-187.69 29.50,-182.49" fill="none" stroke="#bcbcbc" stroke-width="8" stroke-linecap="round" stroke-linejoin="round" /><polyline points="415.14,360.46 424.83,358.44 461.04,376.19 465.81,380.91 533.77,495.97 535.56,509.92 544.40,517.29 543.00,522.37 542.78,530.67 544.01,542.26 562.01,616.25 563.60,667.50 566.12,749.32 570.36,859.45 553.12,907.44 542.01,936.70 525.80,977.93 521.11,989.85 518.06,993.19 513.16,1025.09" fill="none" stroke="#bcbcbc" stroke-width="8" stroke-linecap="round" stroke-linejoin="round" /><polyline points="540.80,1219.45 524.27,1212.26 482.96,1183.43 428.46,1145.13 398.49,1120.89 378.26,1099.23" fill="none" stroke="#bcbcbc" stroke-width="8" stroke-linecap="round" stroke-linejoin="round" /><polyline points="-128.01,1864.28 -144.25,1859.13 -170.59,1850.78 -183.16,1846.79 -197.93,1842.11 -216.59,1836.19 -233.46,1830.84 -250.13,1825.55 -324.49,1801.95 -337.52,1797.82 -353.69,1792.70 -357.26,1791.57 -399.79,1780.33 -411.80,1777.42 -426.85,1773.78 -442.61,1769.96 -499.37,1756.20 -514.59,1752.50 -530.95,1746.82 -565.13,1734.95 -578.01,1730.48 -589.53,1726.74 -643.05,1707.71 -649.79,1703.69 -653.03,1696.71" fill="none" stroke="#bcbcbc" stroke-width="8" stroke-linecap="round" stroke-linejoin="round" /><polyline points="116.40,1055.31 112.46,1041.18 100.71,999.05 96.19,982.85 89.66,970.74 89.05,968.50 85.20,954.23 89.68,947.92 84.30,929.94 82.63,924.36" fill="none" stroke="#bcbcbc" stroke-width="8" stroke-linecap="round" stroke-linejoin="round" /><polyline points="96.75,539.77 107.92,534.51 168.94,500.86 203.83,478.42 228.43,461.64 233.86,457.59 253.66,443.83 274.19,428.67 287.18,419.21 302.67,407.89 356.50,383.59 363.48,383.96 373.69,379.14 415.14,360.46" fill="none" stroke="#bcbcbc" stroke-width="8" stroke-linecap="round" stroke-linejoin="round" /><polyline points="-579.64,769.14 -570.84,772.71 -565.02,774.50 -455.89,808.02 -439.22,813.14" fill="none" stroke="#bcbcbc" stroke-width="8" stroke-linecap="round" stroke-linejoin="round" /><polyline points="-1359.14,1014.57 -1437.10,990.97" fill="none" stroke="#bcbcbc" stroke-width="8" stroke-linecap="round" stroke-linejoin="round" /><polyline points="-99.74,-84.99 -80.41,-60.50 -77.52,-56.84 -67.76,-44.48 -56.64,-43.17 -33.78,-40.49 -29.72,-37.68" fill="none" stroke="#bcbcbc" stroke-width="8" stroke-linecap="round" stroke-linejoin="round" /><polyline points="571.54,1004.30 540.90,1010.01 509.50,1027.08 480.38,1043.29 452.84,1057.06 419.57,1075.13 395.47,1089.76 347.86,1115.29 161.98,1208.81 113.79,1230.04 81.95,1243.81 66.18,1248.98 53.12,1251.42 31.75,1252.71 1.35,1248.40 -74.52,1230.19 -182.23,1205.09 -323.93,1162.34 -376.14,1145.13 -461.62,1118.74 -543.37,1091.77 -663.27,1044.72 -723.22,1018.90 -795.51,986.78 -915.41,921.08 -943.52,902.44 -1014.66,857.69 -1044.49,827.85 -1089.24,769.91 -1162.96,693.89 -1191.93,668.36" fill="none" stroke="#bcbcbc" stroke-width="8" stroke-linecap="round" stroke-linejoin="round" /><polyline points="-9.67,1901.69 -8.41,1894.68 -3.88,1883.23 38.64,1783.74 54.70,1746.44 73.63,1699.96 78.25,1682.96" fill="none" stroke="#bcbcbc" stroke-width="8" stroke-linecap="round" stroke-linejoin="round" /><polyline points="-825.36,1481.61 -873.65,1458.23 -983.56,1405.03 -1118.36,1339.79 -1130.40,1333.96" fill="none" stroke="#bcbcbc" stroke-width="8" stroke-linecap="round" stroke-linejoin="round" /><polyline points="-31.56,711.61 -19.37,699.12 13.06,665.93 38.79,637.82" fill="none" stroke="#bcbcbc" stroke-width="8" stroke-linecap="round" stroke-linejoin="round" /><polyline points="-967.94,785.57 -981.34,767.83 -1044.12,684.70 -1133.74,612.17" fill="none" stroke="#bcbcbc" stroke-width="8" stroke-linecap="round" stroke-linejoin="round" /><polyline points="-1356.88,1879.97 -1344.62,1850.90 -1305.65,1753.74 -1300.93,1740.99 -1295.69,1726.85 -1293.70,1721.74 -1293.17,1713.75 -1288.19,1638.21 -1286.75,1616.55" fill="none" stroke="#bcbcbc" stroke-width="8" stroke-linecap="round" stroke-linejoin="round" /><polyline points="-1383.46,1098.95 -1359.14,1014.57 -1327.04,903.27 -1323.07,889.50 -1318.65,873.85 -1308.76,838.80 -1307.72,835.12 -1304.89,823.85 -1300.37,811.12 -1299.28,808.03 -1293.57,793.89 -1282.37,769.18 -1279.02,762.09" fill="none" stroke="#bcbcbc" stroke-width="8" stroke-linecap="round" stroke-linejoin="round" /><polyline points="-1323.07,889.50 -1273.84,902.09 -1169.57,928.89 -1110.17,947.39 -1085.39,953.19" fill="none" stroke="#bcbcbc" stroke-width="8" stroke-linecap="round" stroke-linejoin="round" /><polyline points="-309.83,506.62 -308.16,496.38 -306.47,485.74 -299.25,450.16 -281.21,367.35 -266.39,293.27 -263.68,277.89 -260.01,257.03 -260.00,257.01" fill="none" stroke="#bcbcbc" stroke-width="8" stroke-linecap="round" stroke-linejoin="round" /><polyline points="-455.57,2101.36 -433.59,2045.30 -430.87,2035.22 -343.64,1813.80 -337.52,1797.82 -332.56,1784.27 -280.44,1632.63 -270.40,1623.87" fill="none" stroke="#bcbcbc" stroke-width="8" stroke-linecap="round" stroke-linejoin="round" /><polyline points="-156.60,463.76 -156.60,463.74 -159.69,447.52 -160.18,445.55 -167.71,414.91 -167.70,414.81 -172.84,394.03 -194.61,319.43 -197.35,311.44 -212.05,271.48 -216.83,259.55 -219.91,251.86 -223.91,243.12 -223.91,243.10 -223.92,243.07 -226.83,210.94 -227.11,195.16" fill="none" stroke="#bcbcbc" stroke-width="8" stroke-linecap="round" stroke-linejoin="round" /><polyline points="-189.22,1729.42 -194.82,1735.47 -203.16,1745.39 -226.66,1811.66 -233.46,1830.84" fill="none" stroke="#bcbcbc" stroke-width="8" stroke-linecap="round" stroke-linejoin="round" /><polyline points="-579.64,769.14 -576.43,760.44 -575.71,758.42 -560.45,715.79 -554.73,697.84 -507.96,560.31" fill="none" stroke="#bcbcbc" stroke-width="8" stroke-linecap="round" stroke-linejoin="round" /><polyline points="-337.71,961.95 -332.94,949.27 -320.02,914.94 -314.55,900.43 -310.86,890.60 -300.48,863.06 -293.63,844.86 -292.71,842.41 -276.11,798.32 -269.18,800.47 -265.42,790.23 -258.77,772.13 -260.04,763.90 -242.38,715.83 -240.57,710.89 -237.22,707.81 -234.41,705.23 -216.70,656.82 -214.14,643.57 -188.74,572.99 -182.73,568.29 -170.51,533.71 -172.68,528.40 -161.98,496.11 -167.53,467.27" fill="none" stroke="#bcbcbc" stroke-width="8" stroke-linecap="round" stroke-linejoin="round" /><polyline points="116.70,-351.02 109.59,-362.70 72.18,-424.07" fill="none" stroke="#bcbcbc" stroke-width="8" stroke-linecap="round" stroke-linejoin="round" /><polyline points="233.86,457.59 405.51,567.98 405.56,568.05 405.56,568.07 437.31,572.19" fill="none" stroke="#bcbcbc" stroke-width="8" stroke-linecap="round" stroke-linejoin="round" /><polyline points="165.03,227.00 347.66,318.68 353.17,322.79 352.80,352.80 356.50,383.59" fill="none" stroke="#bcbcbc" stroke-width="8" stroke-linecap="round" stroke-linejoin="round" /><polyline points="-183.16,1846.79 -189.73,1866.83 -216.34,1947.99 -261.60,2084.68 -264.81,2094.37 -268.07,2104.20 -268.98,2114.66" fill="none" stroke="#bcbcbc" stroke-width="8" stroke-linecap="round" stroke-linejoin="round" /><polyline points="330.97,1353.75 332.06,1343.57 332.30,1334.07 332.22,1333.74 325.75,1305.76 323.09,1294.07 321.81,1288.43 320.51,1282.67 313.40,1251.37 299.52,1188.82 289.44,1151.22 288.01,1145.41" fill="none" stroke="#bcbcbc" stroke-width="8" stroke-linecap="round" stroke-linejoin="round" /><polyline points="-575.75,1926.33 -571.22,1913.46 -520.37,1768.91 -514.59,1752.50" fill="none" stroke="#bcbcbc" stroke-width="8" stroke-linecap="round" stroke-linejoin="round" /><polyline points="566.12,749.32 551.16,745.10 449.55,589.17 437.31,572.19" fill="none" stroke="#bcbcbc" stroke-width="8" stroke-linecap="round" stroke-linejoin="round" /><polyline points="-1104.24,1123.46 -733.92,1212.19 -708.38,1221.51" fill="none" stroke="#bcbcbc" stroke-width="8" stroke-linecap="round" stroke-linejoin="round" /><polyline points="63.76,-262.90 208.01,-209.46 228.32,-212.93" fill="none" stroke="#bcbcbc" stroke-width="8" stroke-linecap="round" stroke-linejoin="round" />
    <polyline points="167.20,349.53 352.80,352.80" fill="none" stroke="#ffffff" stroke-width="16" stroke-linecap="round" stroke-linejoin="round" />
    <polyline points="167.20,349.53 352.80,352.80" fill="none" stroke="#111111" stroke-width="9" stroke-linecap="round" stroke-linejoin="round" />
    
            <g transform="translate(167.20,349.53)">
              <circle r="19" fill="#ffffff" stroke="#111111" stroke-width="4" />
              <text text-anchor="middle" dominant-baseline="central" font-family="Helvetica, Arial, sans-serif"
                font-size="18" font-weight="700" fill="#111111">1</text>
            </g>
            
            <g transform="translate(352.80,352.80)">
              <circle r="19" fill="#ffffff" stroke="#111111" stroke-width="4" />
              <text text-anchor="middle" dominant-baseline="central" font-family="Helvetica, Arial, sans-serif"
                font-size="18" font-weight="700" fill="#111111">2</text>
            </g>
            
  </g>
</svg>
