<svg xmlns="http://www.w3.org/2000/svg" width="520" height="520" viewBox="0 0 520 520">
  <rect width="100%" height="100%" fill="#ffffff" />
  <g>
    <polyline points="660.55,-1118.17 663.67,-1101.61 683.76,-961.04 680.69,-925.89" fill="none" stroke="#bcbcbc" stroke-width="8" stroke-linecap="round" stroke-linejoin="round" /><polyline points="252.07,53.26 256.93,38.32 282.67,-40.85 285.71,-50.17 288.78,-59.97 353.51,-266.37 358.72,-282.97 346.79,-312.33" fill="none" stroke="#bcbcbc" stroke-width="8" stroke-linecap="round" stroke-linejoin="round" /><polyline points="-195.07,-130.33 -196.11,-142.18 -174.95,-260.70 -171.98,-275.53 -169.76,-283.29 -163.94,-313.35 -157.39,-350.13 -150.26,-382.53 -143.19,-414.86 -138.73,-423.97 -135.82,-429.56" fill="none" stroke="#bcbcbc" stroke-width="8" stroke-linecap="round" stroke-linejoin="round" /><polyline points="-72.23,-966.34 -77.26,-981.68 -129.27,-1140.28 -131.80,-1146.93" fill="none" stroke="#bcbcbc" stroke-width="8" stroke-linecap="round" stroke-linejoin="round" /><polyline points="-339.09,429.52 -337.54,414.38 -336.91,407.44 -331.25,344.82 -325.05,289.68 -323.60,276.80 -322.26,261.36 -322.11,260.06 -318.59,229.35 -315.56,198.13 -312.23,168.01 -309.98,144.56 -309.04,130.08 -308.21,116.72 -306.74,101.66" fill="none" stroke="#bcbcbc" stroke-width="8" stroke-linecap="round" stroke-linejoin="round" /><polyline points="379.53,90.05 383.24,78.41 409.34,-3.62 412.30,-12.94 416.51,-26.22 419.53,-35.73 442.63,-135.35" fill="none" stroke="#bcbcbc" stroke-width="8" stroke-linecap="round" stroke-linejoin="round" /><polyline points="278.09,-1532.53 287.72,-1531.05 553.30,-1490.25" fill="none" stroke="#bcbcbc" stroke-width="8" stroke-linecap="round" stroke-linejoin="round" /><polyline points="-403.70,70.72 -431.34,69.44 -448.19,68.65 -457.35,68.23 -465.38,67.85 -527.98,64.94 -615.05,60.89 -656.54,55.01 -670.43,53.04 -682.48,50.91 -764.10,36.51 -775.51,34.50 -778.04,34.06 -792.13,31.65 -802.96,29.79 -872.13,23.68 -885.30,22.52 -890.13,22.09 -905.08,21.05 -934.36,19.02" fill="none" stroke="#bcbcbc" stroke-width="8" stroke-linecap="round" stroke-linejoin="round" /><polyline points="-2.10,-9.46 3.25,-24.70 51.50,-158.43 109.54,-327.11 113.26,-337.68 115.85,-345.08 117.95,-351.14" fill="none" stroke="#bcbcbc" stroke-width="8" stroke-linecap="round" stroke-linejoin="round" /><polyline points="-890.13,22.09 -891.36,13.49 -891.65,4.15 -889.82,-14.65 -885.62,-48.99 -882.82,-60.52 -878.27,-102.19 -877.44,-111.47 -876.11,-123.40 -875.12,-132.26 -873.26,-142.31 -869.80,-169.33 -867.40,-190.01 -863.88,-198.47" fill="none" stroke="#bcbcbc" stroke-width="8" stroke-linecap="round" stroke-linejoin="round" /><polyline points="-939.51,-209.03 -875.16,-200.04 -863.88,-198.47 -856.89,-197.35 -828.04,-192.76 -761.58,-182.17 -750.17,-180.27" fill="none" stroke="#bcbcbc" stroke-width="8" stroke-linecap="round" stroke-linejoin="round" /><polyline points="244.85,-1053.16 245.27,-1047.31 246.13,-1041.39 248.22,-1036.85 252.14,-1031.80 259.37,-1025.21 276.52,-1014.78 408.84,-931.77 490.33,-822.53 551.89,-670.64 555.90,-660.61" fill="none" stroke="#bcbcbc" stroke-width="8" stroke-linecap="round" stroke-linejoin="round" /><polyline points="223.66,-609.97 226.40,-605.43 227.12,-604.25 229.39,-592.80 244.91,-517.74 249.84,-493.91 253.36,-476.94 258.86,-442.55 261.43,-426.69 263.20,-417.01 265.14,-408.27 267.46,-403.17 270.85,-397.27 272.67,-394.49 307.05,-345.27 325.65,-315.99 330.50,-308.99" fill="none" stroke="#bcbcbc" stroke-width="8" stroke-linecap="round" stroke-linejoin="round" /><polyline points="-763.32,329.87 -761.49,318.60 -759.79,310.46 -759.33,309.38 -736.45,254.98 -721.87,219.62 -717.44,208.41 -712.75,196.55 -707.65,186.35 -706.82,184.35 -699.85,167.49 -694.45,152.57 -689.83,138.88 -686.89,129.20 -683.60,117.25 -679.80,101.22 -676.92,88.22 -673.47,70.07 -672.75,66.02 -670.43,53.04" fill="none" stroke="#bcbcbc" stroke-width="8" stroke-linecap="round" stroke-linejoin="round" /><polyline points="345.36,-1189.39 418.32,-1138.41 428.15,-1136.32 435.35,-1128.10" fill="none" stroke="#bcbcbc" stroke-width="8" stroke-linecap="round" stroke-linejoin="round" /><polyline points="38.98,-718.59 48.62,-714.88 90.49,-701.18 187.60,-663.95 193.05,-658.52 195.61,-654.46" fill="none" stroke="#bcbcbc" stroke-width="8" stroke-linecap="round" stroke-linejoin="round" /><polyline points="219.94,238.28 226.56,221.05 259.20,132.49 282.29,65.57 287.07,63.37" fill="none" stroke="#bcbcbc" stroke-width="8" stroke-linecap="round" stroke-linejoin="round" /><polyline points="-241.54,125.99 -236.39,114.60 -235.88,113.47 -227.06,83.91 -212.63,35.25 -208.93,22.80 -206.06,13.12 -205.67,7.49 -206.26,-4.99" fill="none" stroke="#bcbcbc" stroke-width="8" stroke-linecap="round" stroke-linejoin="round" /><polyline points="358.53,-606.08 350.25,-604.38 331.49,-607.71 328.59,-615.45 296.09,-627.84 288.40,-625.83 259.08,-636.59 254.71,-633.54" fill="none" stroke="#bcbcbc" stroke-width="8" stroke-linecap="round" stroke-linejoin="round" /><polyline points="310.27,-1611.24 325.00,-1607.63 333.15,-1606.22 526.88,-1572.63" fill="none" stroke="#bcbcbc" stroke-width="8" stroke-linecap="round" stroke-linejoin="round" /><polyline points="159.70,184.35 167.76,161.63 183.42,117.48 193.54,98.68 208.10,57.91 213.92,41.64" fill="none" stroke="#bcbcbc" stroke-width="8" stroke-linecap="round" stroke-linejoin="round" /><polyline points="-901.77,-697.35 -915.80,-697.99 -919.32,-693.72 -943.76,-664.02 -1029.22,-565.33 -1041.23,-551.45" fill="none" stroke="#bcbcbc" stroke-width="8" stroke-linecap="round" stroke-linejoin="round" /><polyline points="-152.25,-612.82 -158.44,-599.11 -159.19,-597.45 -180.71,-541.34 -202.41,-479.57 -208.19,-463.10 -211.47,-454.60" fill="none" stroke="#bcbcbc" stroke-width="8" stroke-linecap="round" stroke-linejoin="round" /><polyline points="163.42,-1243.29 170.25,-1234.01 175.14,-1221.26 182.73,-1202.96 194.92,-1174.17 205.72,-1148.32 218.11,-1119.94 227.31,-1098.07 228.67,-1094.93 228.75,-1094.74 236.15,-1077.44 238.36,-1072.53 240.47,-1067.85 242.69,-1063.46 244.37,-1059.01 244.85,-1053.16" fill="none" stroke="#bcbcbc" stroke-width="8" stroke-linecap="round" stroke-linejoin="round" /><polyline points="-359.96,-336.23 -356.38,-338.18 -351.37,-342.16 -348.87,-347.32 -315.62,-473.37 -314.62,-480.48 -310.56,-493.47" fill="none" stroke="#bcbcbc" stroke-width="8" stroke-linecap="round" stroke-linejoin="round" /><polyline points="802.61,-533.49 807.33,-518.52 810.65,-502.79 804.18,-442.88 796.71,-397.81 792.63,-382.44 792.26,-381.05 788.69,-372.75 783.82,-363.96 772.45,-349.57 777.95,-321.44 760.14,-261.07 750.30,-227.73 730.17,-173.16 700.69,-106.71 664.70,-43.03 653.46,-22.34 633.14,11.66 551.95,126.88 534.16,150.85 465.28,240.86 425.73,285.84 370.41,342.06 365.29,342.59 352.80,352.80" fill="none" stroke="#bcbcbc" stroke-width="8" stroke-linecap="round" stroke-linejoin="round" /><polyline points="-199.20,452.07 -176.54,381.79 -172.83,370.19 -167.80,362.88 -156.97,330.39 -153.45,319.36 -108.74,179.39 -104.24,165.31 -100.53,152.94 -47.77,-13.10" fill="none" stroke="#bcbcbc" stroke-width="8" stroke-linecap="round" stroke-linejoin="round" /><polyline points="331.72,-854.97 351.32,-876.38 357.10,-883.34 396.68,-939.41" fill="none" stroke="#bcbcbc" stroke-width="8" stroke-linecap="round" stroke-linejoin="round" /><polyline points="-59.88,-846.49 -5.92,-827.71 -2.94,-822.87 12.38,-817.73 21.47,-814.62 64.96,-799.93" fill="none" stroke="#bcbcbc" stroke-width="8" stroke-linecap="round" stroke-linejoin="round" /><polyline points="410.39,-1219.81 435.35,-1128.10 464.24,-1020.05 468.62,-1011.05 469.31,-1000.77 488.90,-964.20 541.77,-865.62 553.32,-848.57 556.67,-843.58 635.66,-695.92 671.96,-662.93 677.06,-656.35 684.24,-650.21 753.16,-591.29 757.84,-587.29 770.22,-580.72" fill="none" stroke="#bcbcbc" stroke-width="8" stroke-linecap="round" stroke-linejoin="round" /><polyline points="142.32,466.99 314.22,367.15 344.82,351.51 352.80,352.80" fill="none" stroke="#bcbcbc" stroke-width="8" stroke-linecap="round" stroke-linejoin="round" /><polyline points="328.70,324.16 339.37,311.48 435.12,120.45 441.46,107.93 446.76,95.53 477.68,19.05 486.90,-3.99 513.55,-84.65 530.84,-188.36 532.89,-203.46" fill="none" stroke="#bcbcbc" stroke-width="8" stroke-linecap="round" stroke-linejoin="round" /><polyline points="254.81,-799.28 253.13,-797.56 250.82,-789.53 250.59,-788.73 240.20,-748.72 242.93,-738.28 240.66,-728.91 237.70,-716.66 230.09,-707.85 221.46,-672.90 211.30,-665.22 200.45,-657.78 195.61,-654.46" fill="none" stroke="#bcbcbc" stroke-width="8" stroke-linecap="round" stroke-linejoin="round" /><polyline points="-152.25,-612.82 -147.83,-624.14 -121.27,-692.23 -115.48,-707.08 -110.70,-719.31 -76.76,-806.26 -61.48,-842.61 -59.88,-846.49 -48.00,-875.20 -21.35,-941.36 -11.59,-969.52 -9.42,-975.98 -6.50,-983.30" fill="none" stroke="#bcbcbc" stroke-width="8" stroke-linecap="round" stroke-linejoin="round" /><polyline points="145.00,-1025.56 150.13,-1010.27 318.71,-866.29 410.71,-786.27 548.11,-666.84 560.10,-657.25 565.47,-653.89 589.31,-632.25 621.15,-605.10 693.37,-543.53 716.70,-523.47 732.18,-504.96" fill="none" stroke="#bcbcbc" stroke-width="8" stroke-linecap="round" stroke-linejoin="round" /><polyline points="423.73,-1273.65 432.28,-1279.14 482.94,-1300.18 493.35,-1311.13" fill="none" stroke="#bcbcbc" stroke-width="8" stroke-linecap="round" stroke-linejoin="round" /><polyline points="482.24,7.67 412.30,-12.94 285.71,-50.17" fill="none" stroke="#bcbcbc" stroke-width="8" stroke-linecap="round" stroke-linejoin="round" /><polyline points="256.48,-1479.74 266.04,-1473.15 577.32,-1403.90" fill="none" stroke="#bcbcbc" stroke-width="8" stroke-linecap="round" stroke-linejoin="round" /><polyline points="640.99,-454.96 624.91,-490.75 589.21,-575.89 586.54,-582.66 580.44,-598.20 557.42,-656.75 555.97,-660.55" fill="none" stroke="#bcbcbc" stroke-width="8" stroke-linecap="round" stroke-linejoin="round" /><polyline points="163.42,-1243.29 146.13,-1248.20 133.43,-1251.98 107.62,-1259.65 94.51,-1263.39 86.99,-1265.48 77.19,-1268.29" fill="none" stroke="#bcbcbc" stroke-width="8" stroke-linecap="round" stroke-linejoin="round" /><polyline points="-287.19,-775.01 -288.07,-777.87 -288.87,-779.88 -292.43,-788.73 -306.23,-820.89 -319.35,-853.57 -322.18,-861.28 -325.44,-870.17 -327.78,-877.44 -331.63,-888.33 -332.03,-889.48 -344.58,-920.40 -367.61,-978.51 -372.79,-981.46 -376.47,-990.89 -383.81,-1016.41 -396.40,-1048.04 -399.11,-1055.23" fill="none" stroke="#bcbcbc" stroke-width="8" stroke-linecap="round" stroke-linejoin="round" /><polyline points="-176.54,381.79 -163.46,385.80 -121.14,398.69 -107.88,402.73" fill="none" stroke="#bcbcbc" stroke-width="8" stroke-linecap="round" stroke-linejoin="round" /><polyline points="613.80,-1258.43 616.27,-1268.41 615.27,-1272.19 614.06,-1276.76 606.33,-1305.07 589.10,-1364.90 580.01,-1395.49 577.32,-1403.90 553.30,-1490.25 540.33,-1536.82 526.88,-1572.63 514.72,-1604.94 502.62,-1627.15 490.86,-1638.89 400.58,-1749.19 393.91,-1757.04 389.48,-1764.30" fill="none" stroke="#bcbcbc" stroke-width="8" stroke-linecap="round" stroke-linejoin="round" /><polyline points="244.85,-1053.16 240.20,-1051.38 231.59,-1049.01 230.73,-1048.77 194.77,-1039.57 153.43,-1027.94 145.00,-1025.56 141.24,-1024.37 131.31,-1021.18 122.82,-1018.81 85.75,-1008.50 24.78,-991.18 2.05,-985.44 -6.50,-983.30 -47.13,-973.33 -72.23,-966.34 -125.38,-951.49 -177.91,-936.69 -183.99,-935.00 -227.89,-922.82 -248.14,-917.20 -258.37,-912.36 -277.73,-902.77 -316.17,-883.26 -318.85,-881.90 -327.78,-877.44 -333.22,-874.71 -340.82,-870.73 -367.83,-856.57 -417.04,-828.96 -458.15,-807.42 -464.04,-804.34 -471.89,-803.85 -476.61,-801.35 -477.55,-800.85 -522.15,-776.41 -531.49,-776.45 -542.21,-770.84 -545.96,-768.88 -549.12,-767.23 -556.57,-763.33 -562.45,-749.93 -587.69,-736.41 -595.71,-732.11 -604.40,-727.39 -639.52,-708.28 -657.67,-698.40 -666.82,-695.76" fill="none" stroke="#bcbcbc" stroke-width="8" stroke-linecap="round" stroke-linejoin="round" /><polyline points="750.30,-227.73 731.55,-226.01 673.01,-220.65 670.38,-220.41 666.64,-220.07 660.60,-219.51 603.84,-214.30 584.10,-216.13 561.11,-210.37 542.70,-205.86 532.89,-203.46 508.52,-202.53 487.42,-203.60 476.67,-204.75 467.52,-207.51 460.78,-211.24 435.68,-228.98 374.70,-270.87 368.95,-274.76 363.10,-278.74 358.72,-282.97" fill="none" stroke="#bcbcbc" stroke-width="8" stroke-linecap="round" stroke-linejoin="round" /><polyline points="-630.92,-934.79 -608.79,-891.48 -605.44,-879.10 -586.80,-843.54 -579.10,-833.36 -547.95,-772.75 -545.96,-768.88" fill="none" stroke="#bcbcbc" stroke-width="8" stroke-linecap="round" stroke-linejoin="round" /><polyline points="47.20,-549.59 43.89,-540.48 42.95,-537.65 38.63,-524.55 11.26,-448.18 -2.33,-410.25 -2.79,-408.96 -8.25,-397.17 -11.38,-390.17" fill="none" stroke="#bcbcbc" stroke-width="8" stroke-linecap="round" stroke-linejoin="round" /><polyline points="410.39,-1219.81 407.36,-1226.31 399.38,-1227.36 373.57,-1221.44 368.33,-1222.12 364.22,-1227.63 356.92,-1261.20 396.47,-1267.32 414.78,-1272.72 423.73,-1273.65 433.37,-1239.37" fill="none" stroke="#bcbcbc" stroke-width="8" stroke-linecap="round" stroke-linejoin="round" /><polyline points="553.32,-848.57 563.51,-854.29 614.68,-885.12 628.36,-893.26 652.29,-907.53 691.67,-932.99 700.86,-939.60 769.93,-982.44" fill="none" stroke="#bcbcbc" stroke-width="8" stroke-linecap="round" stroke-linejoin="round" /><polyline points="794.78,-646.20 777.31,-651.40 767.16,-659.73 728.36,-693.30 727.04,-694.48 717.66,-702.85 712.15,-712.62 614.68,-885.12" fill="none" stroke="#bcbcbc" stroke-width="8" stroke-linecap="round" stroke-linejoin="round" /><polyline points="-305.17,-659.87 -152.25,-612.82 -139.77,-608.87 -25.66,-572.70 -23.27,-571.94 -6.18,-566.52 2.23,-563.85 13.15,-560.87 35.68,-553.24 47.20,-549.59 57.57,-546.30 142.49,-519.36 232.15,-491.20 239.56,-488.87 249.84,-493.91" fill="none" stroke="#bcbcbc" stroke-width="8" stroke-linecap="round" stroke-linejoin="round" /><polyline points="144.47,-1414.75 210.71,-1475.61 221.93,-1485.91" fill="none" stroke="#bcbcbc" stroke-width="8" stroke-linecap="round" stroke-linejoin="round" /><polyline points="-964.78,-432.73 -721.71,-406.68" fill="none" stroke="#bcbcbc" stroke-width="8" stroke-linecap="round" stroke-linejoin="round" /><polyline points="-231.52,-1111.08 -180.44,-1129.35 -127.74,-1148.40 -95.00,-1161.12 4.97,-1197.48 33.98,-1207.51 40.04,-1209.61 47.31,-1212.10 55.47,-1214.91 56.47,-1215.25 72.93,-1221.87 80.09,-1224.75" fill="none" stroke="#bcbcbc" stroke-width="8" stroke-linecap="round" stroke-linejoin="round" /><polyline points="111.60,125.02 159.70,184.35 189.15,213.99 201.89,223.17 219.94,238.28 236.89,252.51 251.45,266.72 251.81,273.94" fill="none" stroke="#bcbcbc" stroke-width="8" stroke-linecap="round" stroke-linejoin="round" /><polyline points="163.42,-1243.29 182.27,-1290.53 212.78,-1368.31 256.48,-1479.74 278.09,-1532.53 310.27,-1611.24 336.67,-1675.72 341.39,-1684.27 364.60,-1722.21 366.10,-1724.67 374.59,-1741.36 389.48,-1764.30 397.80,-1777.09 409.56,-1795.20" fill="none" stroke="#bcbcbc" stroke-width="8" stroke-linecap="round" stroke-linejoin="round" /><polyline points="-281.28,19.81 -284.37,22.28 -286.41,25.22 -290.57,37.48 -293.44,46.33 -306.72,86.03 -308.55,91.76 -309.68,95.32 -321.87,91.82 -351.55,81.87 -380.97,72.01 -403.70,70.72" fill="none" stroke="#bcbcbc" stroke-width="8" stroke-linecap="round" stroke-linejoin="round" /><polyline points="-862.51,296.11 -814.04,170.96 -808.65,157.33 -803.81,144.21 -797.97,128.35 -790.80,103.41 -783.33,72.41 -780.26,50.20 -778.04,34.06 -774.90,22.15 -763.50,-67.34 -750.17,-180.27 -743.28,-234.11 -735.58,-297.35 -721.71,-406.68 -719.51,-425.27 -705.50,-539.60 -705.49,-545.97 -702.39,-579.90 -693.46,-651.55 -691.21,-664.05 -688.88,-671.06 -685.22,-678.78 -681.67,-684.78 -673.82,-693.27 -666.81,-695.67" fill="none" stroke="#bcbcbc" stroke-width="8" stroke-linecap="round" stroke-linejoin="round" /><polyline points="195.61,-654.46 198.26,-650.26 207.15,-636.39 220.46,-615.06 223.66,-609.97 228.97,-614.00 254.71,-633.54" fill="none" stroke="#bcbcbc" stroke-width="8" stroke-linecap="round" stroke-linejoin="round" /><polyline points="212.78,-1368.31 474.66,-1320.97 502.16,-1306.49 604.77,-1255.64 613.80,-1258.43" fill="none" stroke="#bcbcbc" stroke-width="8" stroke-linecap="round" stroke-linejoin="round" /><polyline points="-287.19,-775.01 -291.84,-768.24 -333.62,-747.85 -364.30,-708.85 -397.42,-688.35 -420.06,-671.25 -441.67,-653.63 -452.75,-643.54 -472.31,-618.72 -494.19,-587.36 -497.80,-581.55" fill="none" stroke="#bcbcbc" stroke-width="8" stroke-linecap="round" stroke-linejoin="round" /><polyline points="-243.02,-747.04 -244.83,-743.01 -248.80,-737.22 -256.28,-728.01 -300.41,-672.27 -323.76,-609.39 -441.62,-653.68" fill="none" stroke="#bcbcbc" stroke-width="8" stroke-linecap="round" stroke-linejoin="round" /><polyline points="-420.06,-671.25 -424.63,-685.07 -444.35,-744.77 -452.00,-756.57 -464.82,-795.01 -465.93,-798.33 -464.04,-804.34 -467.11,-814.14 -528.73,-1010.88" fill="none" stroke="#bcbcbc" stroke-width="8" stroke-linecap="round" stroke-linejoin="round" /><polyline points="302.00,-1744.70 350.70,-1743.42 352.98,-1743.36 362.31,-1743.09 374.59,-1741.36" fill="none" stroke="#bcbcbc" stroke-width="8" stroke-linecap="round" stroke-linejoin="round" /><polyline points="51.50,-158.43 34.87,-158.63 -105.93,-139.73 -116.08,-138.66 -127.69,-137.44 -195.07,-130.33 -285.84,-120.74 -333.97,-115.67 -360.59,-112.86 -382.21,-110.23 -393.31,-108.88 -405.81,-107.36 -466.20,-100.02 -480.68,-98.27 -525.28,-93.39 -763.50,-67.34" fill="none" stroke="#bcbcbc" stroke-width="8" stroke-linecap="round" stroke-linejoin="round" /><polyline points="-156.97,330.39 -169.45,326.38 -227.71,307.63 -239.48,303.84 -249.71,300.55 -311.43,280.72 -323.60,276.80 -339.70,271.62 -437.96,240.01 -449.02,236.45" fill="none" stroke="#bcbcbc" stroke-width="8" stroke-linecap="round" stroke-linejoin="round" /><polyline points="86.64,-849.04 120.53,-838.48 244.46,-800.21 245.62,-799.86 254.81,-799.28" fill="none" stroke="#bcbcbc" stroke-width="8" stroke-linecap="round" stroke-linejoin="round" /><polyline points="435.35,-1128.10 603.93,-1125.13" fill="none" stroke="#bcbcbc" stroke-width="8" stroke-linecap="round" stroke-linejoin="round" /><polyline points="111.60,125.02 78.05,83.61 71.66,75.73 37.86,29.17 30.21,14.96 32.05,-1.97 42.24,-2.07 67.38,2.77 105.63,10.13" fill="none" stroke="#bcbcbc" stroke-width="8" stroke-linecap="round" stroke-linejoin="round" /><polyline points="-327.37,-206.80 -321.19,-193.49 -285.84,-120.74 -233.29,-12.58 -226.59,1.22" fill="none" stroke="#bcbcbc" stroke-width="8" stroke-linecap="round" stroke-linejoin="round" /><polyline points="-893.42,122.68 -880.77,127.85 -821.57,152.05 -808.65,157.33 -795.05,162.89 -725.35,191.39 -712.75,196.55" fill="none" stroke="#bcbcbc" stroke-width="8" stroke-linecap="round" stroke-linejoin="round" /><polyline points="-298.29,-314.65 -174.95,-260.70" fill="none" stroke="#bcbcbc" stroke-width="8" stroke-linecap="round" stroke-linejoin="round" /><polyline points="254.81,-799.28 273.59,-798.30 274.79,-797.23 283.22,-789.75 295.61,-778.70 297.90,-774.25 340.60,-736.86 343.76,-730.89 373.78,-704.40 381.34,-702.09 404.70,-681.64 409.93,-679.25 445.15,-649.37 453.00,-642.42 457.32,-635.53" fill="none" stroke="#bcbcbc" stroke-width="8" stroke-linecap="round" stroke-linejoin="round" /><polyline points="-928.23,-314.53 -735.58,-297.35" fill="none" stroke="#bcbcbc" stroke-width="8" stroke-linecap="round" stroke-linejoin="round" /><polyline points="-498.09,402.72 -492.12,390.02 -490.59,384.36 -482.22,353.52 -451.92,246.68 -449.02,236.45 -445.95,225.23 -432.22,175.03 -409.04,90.26 -403.70,70.72" fill="none" stroke="#bcbcbc" stroke-width="8" stroke-linecap="round" stroke-linejoin="round" /><polyline points="-327.37,-206.80 -298.29,-314.65 -359.96,-336.23 -376.10,-326.69 -383.46,-321.09 -388.91,-313.72 -392.75,-303.99 -406.93,-251.58 -395.49,-245.75 -383.93,-242.95 -358.37,-236.29 -339.24,-230.20 -327.37,-206.80" fill="none" stroke="#bcbcbc" stroke-width="8" stroke-linecap="round" stroke-linejoin="round" /><polyline points="-406.93,-251.58 -420.44,-253.46 -735.58,-297.35" fill="none" stroke="#bcbcbc" stroke-width="8" stroke-linecap="round" stroke-linejoin="round" /><polyline points="105.63,10.13 134.86,16.51 213.92,41.64 236.02,48.62 288.49,63.78 341.34,79.02 380.47,90.32 443.05,108.39 455.98,112.12 487.56,122.71 539.55,136.56 544.13,137.41" fill="none" stroke="#bcbcbc" stroke-width="8" stroke-linecap="round" stroke-linejoin="round" /><polyline points="142.71,466.77 132.04,469.44 120.51,501.58 102.63,496.50 21.32,468.79 11.53,466.71 -10.24,465.15 -108.71,465.54 -130.41,462.78 -179.43,455.28 -199.20,452.07 -339.45,429.46 -393.75,420.79 -497.32,402.86 -514.04,399.54 -747.78,334.22 -762.53,330.09 -862.51,296.11 -887.11,287.39 -948.56,261.93 -983.58,248.68" fill="none" stroke="#bcbcbc" stroke-width="8" stroke-linecap="round" stroke-linejoin="round" /><polyline points="356.92,-1261.20 346.80,-1263.28 211.71,-1247.31 163.42,-1243.29" fill="none" stroke="#bcbcbc" stroke-width="8" stroke-linecap="round" stroke-linejoin="round" /><polyline points="105.63,10.13 110.37,2.21 138.71,-70.59 170.39,-180.66 178.47,-204.37 182.79,-210.82 213.37,-308.97 214.89,-320.69 216.05,-328.35" fill="none" stroke="#bcbcbc" stroke-width="8" stroke-linecap="round" stroke-linejoin="round" /><polyline points="244.85,-1053.16 248.08,-1054.40 252.45,-1057.87 259.10,-1065.64 345.36,-1189.39 368.33,-1222.12" fill="none" stroke="#bcbcbc" stroke-width="8" stroke-linecap="round" stroke-linejoin="round" /><polyline points="628.75,-598.57 630.52,-603.65 673.88,-654.66 677.06,-656.35 684.59,-666.66 709.81,-695.63 717.66,-702.85" fill="none" stroke="#bcbcbc" stroke-width="8" stroke-linecap="round" stroke-linejoin="round" /><polyline points="666.64,-220.07 666.04,-226.89 665.58,-232.17 663.29,-242.27 660.56,-248.85 657.16,-266.15 656.85,-272.41 654.54,-286.42 644.22,-291.81 635.97,-288.65 621.21,-285.12 609.52,-283.29 598.31,-280.59 582.84,-277.06 575.78,-275.45" fill="none" stroke="#bcbcbc" stroke-width="8" stroke-linecap="round" stroke-linejoin="round" /><polyline points="-472.51,-470.55 -440.98,-544.46 -439.22,-549.27" fill="none" stroke="#bcbcbc" stroke-width="8" stroke-linecap="round" stroke-linejoin="round" /><polyline points="358.53,-606.08 373.73,-611.97 381.67,-615.05 387.82,-621.27 413.16,-627.51 421.66,-625.35 440.00,-630.07 453.99,-633.67 457.32,-635.53 470.89,-638.86 540.25,-655.85 555.97,-660.55" fill="none" stroke="#bcbcbc" stroke-width="8" stroke-linecap="round" stroke-linejoin="round" /><polyline points="-281.28,19.81 -248.56,7.93 -237.61,4.58 -226.59,1.22 -206.26,-4.99 -190.44,-7.27 -136.41,-13.18 -125.56,-13.77 -77.22,-13.36 -47.77,-13.10 -36.69,-13.67 -18.96,-11.88 -13.41,-11.08 -2.10,-9.46 32.05,-1.97" fill="none" stroke="#bcbcbc" stroke-width="8" stroke-linecap="round" stroke-linejoin="round" /><polyline points="-125.38,-951.49 -130.80,-969.82 -150.93,-1037.88 -175.39,-1115.49 -180.44,-1129.35 -185.56,-1142.33 -192.04,-1161.05" fill="none" stroke="#bcbcbc" stroke-width="8" stroke-linecap="round" stroke-linejoin="round" /><polyline points="-183.93,145.98 -179.64,132.40 -136.14,-4.74 -136.41,-13.18" fill="none" stroke="#bcbcbc" stroke-width="8" stroke-linecap="round" stroke-linejoin="round" /><polyline points="-125.56,-13.77 -116.94,-129.25 -116.08,-138.66 -114.76,-149.62 -114.74,-150.12 -114.18,-163.51 -111.30,-199.86 -109.68,-216.79 -107.47,-236.02 -105.45,-249.87 -103.64,-258.56 -101.36,-265.13 -96.88,-279.94 -87.64,-310.77 -75.89,-350.57 -62.94,-391.27 -60.30,-399.57 -58.18,-405.59" fill="none" stroke="#bcbcbc" stroke-width="8" stroke-linecap="round" stroke-linejoin="round" /><polyline points="-406.93,-251.58 -409.22,-241.34 -408.83,-238.07 -394.80,-121.25 -393.31,-108.88 -393.95,-96.15 -397.63,-23.50 -399.17,6.86 -399.96,22.51 -401.37,50.42 -402.11,64.95 -403.70,70.72" fill="none" stroke="#bcbcbc" stroke-width="8" stroke-linecap="round" stroke-linejoin="round" /><polyline points="-472.51,-470.55 -523.53,-485.72 -530.02,-489.88 -561.77,-499.13 -570.69,-499.03 -610.59,-511.05 -617.04,-515.81 -653.34,-526.81 -697.89,-538.95 -698.11,-538.97 -705.50,-539.60" fill="none" stroke="#bcbcbc" stroke-width="8" stroke-linecap="round" stroke-linejoin="round" /><polyline points="457.32,-635.53 459.09,-633.21 466.49,-622.18 480.17,-601.80 493.04,-588.90 517.79,-561.12 513.61,-535.45 511.49,-525.82 508.54,-521.75 514.74,-512.57 524.34,-492.82 543.53,-455.81 552.97,-437.59 558.85,-421.21 561.50,-413.60" fill="none" stroke="#bcbcbc" stroke-width="8" stroke-linecap="round" stroke-linejoin="round" /><polyline points="586.54,-582.66 579.43,-580.44 532.58,-565.87 525.86,-563.71 517.80,-561.12" fill="none" stroke="#bcbcbc" stroke-width="8" stroke-linecap="round" stroke-linejoin="round" /><polyline points="249.84,-493.91 264.49,-498.66 370.84,-552.96 385.08,-559.92 435.21,-574.39 483.81,-588.05 493.04,-588.90" fill="none" stroke="#bcbcbc" stroke-width="8" stroke-linecap="round" stroke-linejoin="round" /><polyline points="261.43,-426.69 384.04,-483.74 389.20,-487.15 401.19,-490.64 482.89,-514.41 495.28,-519.16 508.54,-521.75" fill="none" stroke="#bcbcbc" stroke-width="8" stroke-linecap="round" stroke-linejoin="round" /><polyline points="236.41,-1622.71 286.04,-1616.58 291.03,-1615.96 310.27,-1611.24" fill="none" stroke="#bcbcbc" stroke-width="8" stroke-linecap="round" stroke-linejoin="round" /><polyline points="660.55,-1118.17 669.35,-1120.01 702.24,-1103.89 706.57,-1099.60 768.31,-995.11 769.93,-982.44 777.96,-975.76 776.69,-971.14 776.49,-963.60 777.61,-953.07 793.96,-885.88 795.40,-839.34 797.69,-765.04 801.54,-665.02 785.88,-621.44 775.79,-594.87 761.07,-557.43 756.80,-546.60 754.03,-543.58 749.58,-514.60" fill="none" stroke="#bcbcbc" stroke-width="8" stroke-linecap="round" stroke-linejoin="round" /><polyline points="774.69,-338.10 759.67,-344.63 722.16,-370.81 672.65,-405.59 645.42,-427.61 627.06,-447.27" fill="none" stroke="#bcbcbc" stroke-width="8" stroke-linecap="round" stroke-linejoin="round" /><polyline points="167.20,247.49 152.45,242.81 128.53,235.23 117.11,231.61 103.70,227.36 86.75,221.98 71.42,217.13 56.28,212.32 -11.26,190.89 -23.09,187.14 -37.79,182.49 -41.03,181.46 -79.66,171.26 -90.57,168.62 -104.24,165.31 -118.55,161.84 -170.11,149.34 -183.93,145.98 -198.79,140.83 -229.84,130.05 -241.54,125.99 -252.00,122.59 -300.61,105.31 -306.74,101.66 -309.68,95.32" fill="none" stroke="#bcbcbc" stroke-width="8" stroke-linecap="round" stroke-linejoin="round" /><polyline points="389.20,-487.15 385.62,-499.99 374.95,-538.25 370.84,-552.96 364.91,-563.96 364.36,-566.00 360.87,-578.95 364.94,-584.69 360.05,-601.01 358.53,-606.08" fill="none" stroke="#bcbcbc" stroke-width="8" stroke-linecap="round" stroke-linejoin="round" /><polyline points="371.36,-955.34 381.50,-960.12 436.93,-990.67 468.62,-1011.05 490.96,-1026.29 495.90,-1029.97 513.88,-1042.46 532.52,-1056.23 544.32,-1064.82 558.39,-1075.10 607.29,-1097.17 613.63,-1096.83 622.90,-1101.21 660.55,-1118.17" fill="none" stroke="#bcbcbc" stroke-width="8" stroke-linecap="round" stroke-linejoin="round" /><polyline points="-243.02,-747.04 -235.02,-743.80 -229.74,-742.17 -130.62,-711.73 -115.48,-707.08" fill="none" stroke="#bcbcbc" stroke-width="8" stroke-linecap="round" stroke-linejoin="round" /><polyline points="-951.04,-524.16 -1021.86,-545.59" fill="none" stroke="#bcbcbc" stroke-width="8" stroke-linecap="round" stroke-linejoin="round" /><polyline points="192.88,-1522.70 210.44,-1500.46 213.06,-1497.14 221.93,-1485.91 232.03,-1484.73 252.79,-1482.29 256.48,-1479.74" fill="none" stroke="#bcbcbc" stroke-width="8" stroke-linecap="round" stroke-linejoin="round" /><polyline points="802.61,-533.49 774.79,-528.30 746.26,-512.79 719.81,-498.08 694.80,-485.57 664.57,-469.16 642.69,-455.87 599.44,-432.69 430.61,-347.76 386.83,-328.48 357.91,-315.97 343.58,-311.28 331.73,-309.07 312.32,-307.90 284.70,-311.80 215.79,-328.35 117.95,-351.14 -10.76,-389.96 -58.18,-405.59 -135.82,-429.56 -210.07,-454.05 -318.98,-496.77 -373.44,-520.22 -439.09,-549.40 -548.00,-609.06 -573.53,-625.99 -638.15,-666.63 -665.25,-693.72 -705.89,-746.34 -772.85,-815.38 -799.17,-838.56" fill="none" stroke="#bcbcbc" stroke-width="8" stroke-linecap="round" stroke-linejoin="round" /><polyline points="274.69,281.46 275.83,275.10 279.95,264.71 318.57,174.35 333.16,140.48 350.36,98.27 354.55,82.83" fill="none" stroke="#bcbcbc" stroke-width="8" stroke-linecap="round" stroke-linejoin="round" /><polyline points="-466.20,-100.02 -510.07,-121.26 -609.90,-169.56 -732.35,-228.82 -743.28,-234.11" fill="none" stroke="#bcbcbc" stroke-width="8" stroke-linecap="round" stroke-linejoin="round" /><polyline points="254.81,-799.28 265.88,-810.62 295.34,-840.77 318.71,-866.29" fill="none" stroke="#bcbcbc" stroke-width="8" stroke-linecap="round" stroke-linejoin="round" /><polyline points="-595.71,-732.11 -607.88,-748.23 -664.91,-823.72 -746.32,-889.59" fill="none" stroke="#bcbcbc" stroke-width="8" stroke-linecap="round" stroke-linejoin="round" /><polyline points="-948.99,261.74 -937.86,235.35 -902.46,147.11 -898.17,135.53 -893.42,122.68 -891.61,118.05 -891.13,110.79 -886.60,42.19 -885.30,22.52" fill="none" stroke="#bcbcbc" stroke-width="8" stroke-linecap="round" stroke-linejoin="round" /><polyline points="-973.14,-447.53 -951.04,-524.16 -921.89,-625.23 -918.28,-637.74 -914.27,-651.95 -905.28,-683.77 -904.34,-687.12 -901.77,-697.35 -897.66,-708.92 -896.67,-711.72 -891.49,-724.56 -881.32,-747.00 -878.27,-753.44" fill="none" stroke="#bcbcbc" stroke-width="8" stroke-linecap="round" stroke-linejoin="round" /><polyline points="-918.28,-637.74 -873.57,-626.31 -778.86,-601.96 -724.90,-585.17 -702.39,-579.90" fill="none" stroke="#bcbcbc" stroke-width="8" stroke-linecap="round" stroke-linejoin="round" /><polyline points="2.05,-985.44 3.57,-994.74 5.10,-1004.40 11.66,-1036.71 28.05,-1111.92 41.51,-1179.20 43.97,-1193.15 47.31,-1212.10 47.31,-1212.12" fill="none" stroke="#bcbcbc" stroke-width="8" stroke-linecap="round" stroke-linejoin="round" /><polyline points="-130.33,462.79 -110.36,411.88 -107.88,402.73 -28.66,201.65 -23.09,187.14 -18.59,174.83 28.75,37.12 37.86,29.17" fill="none" stroke="#bcbcbc" stroke-width="8" stroke-linecap="round" stroke-linejoin="round" /><polyline points="141.24,-1024.37 141.23,-1024.39 138.43,-1039.11 137.99,-1040.90 131.14,-1068.73 131.15,-1068.82 126.48,-1087.69 106.71,-1155.43 104.22,-1162.69 90.87,-1198.98 86.53,-1209.81 83.73,-1216.80 80.10,-1224.74 80.09,-1224.75 80.09,-1224.78 77.44,-1253.96 77.19,-1268.29" fill="none" stroke="#bcbcbc" stroke-width="8" stroke-linecap="round" stroke-linejoin="round" /><polyline points="111.60,125.02 106.52,130.52 98.94,139.53 77.60,199.70 71.42,217.13" fill="none" stroke="#bcbcbc" stroke-width="8" stroke-linecap="round" stroke-linejoin="round" /><polyline points="-243.02,-747.04 -240.10,-754.94 -239.45,-756.77 -225.59,-795.48 -220.39,-811.79 -177.91,-936.69" fill="none" stroke="#bcbcbc" stroke-width="8" stroke-linecap="round" stroke-linejoin="round" /><polyline points="-23.27,-571.94 -18.94,-583.45 -7.20,-614.63 -2.24,-627.81 1.12,-636.73 10.54,-661.75 16.77,-678.28 17.60,-680.50 32.68,-720.54 38.98,-718.59 42.40,-727.88 48.43,-744.33 47.28,-751.80 63.32,-795.45 64.96,-799.93 68.01,-802.73 70.56,-805.08 86.64,-849.04 88.97,-861.07 112.04,-925.17 117.50,-929.44 128.60,-960.84 126.63,-965.66 136.35,-994.99 131.31,-1021.18" fill="none" stroke="#bcbcbc" stroke-width="8" stroke-linecap="round" stroke-linejoin="round" /><polyline points="389.48,-1764.30 383.01,-1774.90 349.04,-1830.63" fill="none" stroke="#bcbcbc" stroke-width="8" stroke-linecap="round" stroke-linejoin="round" /><polyline points="495.90,-1029.97 651.81,-929.72 651.85,-929.65 651.85,-929.63 680.69,-925.89" fill="none" stroke="#bcbcbc" stroke-width="8" stroke-linecap="round" stroke-linejoin="round" /><polyline points="433.37,-1239.37 599.26,-1156.12 604.26,-1152.39 603.93,-1125.13 607.29,-1097.17" fill="none" stroke="#bcbcbc" stroke-width="8" stroke-linecap="round" stroke-linejoin="round" /><polyline points="117.11,231.61 111.14,249.81 86.97,323.51 45.86,447.64 42.94,456.45 39.99,465.37 39.16,474.87" fill="none" stroke="#bcbcbc" stroke-width="8" stroke-linecap="round" stroke-linejoin="round" /><polyline points="584.10,-216.13 585.09,-225.38 585.30,-234.01 585.24,-234.31 579.36,-259.71 576.95,-270.33 575.78,-275.45 574.59,-280.69 568.14,-309.11 555.54,-365.91 546.38,-400.06 545.08,-405.34" fill="none" stroke="#bcbcbc" stroke-width="8" stroke-linecap="round" stroke-linejoin="round" /><polyline points="-239.48,303.84 -235.37,292.15 -189.18,160.89 -183.93,145.98" fill="none" stroke="#bcbcbc" stroke-width="8" stroke-linecap="round" stroke-linejoin="round" /><polyline points="797.69,-765.04 784.10,-768.87 691.81,-910.48 680.69,-925.89" fill="none" stroke="#bcbcbc" stroke-width="8" stroke-linecap="round" stroke-linejoin="round" /><polyline points="-719.51,-425.27 -383.15,-344.69 -359.96,-336.23" fill="none" stroke="#bcbcbc" stroke-width="8" stroke-linecap="round" stroke-linejoin="round" /><polyline points="341.39,-1684.27 472.41,-1635.74 490.86,-1638.89" fill="none" stroke="#bcbcbc" stroke-width="8" stroke-linecap="round" stroke-linejoin="round" />
    <polyline points="352.80,352.80 328.70,324.16 318.59,312.40 309.90,304.28 298.33,295.65 274.69,281.46 251.81,273.94 205.27,259.57 167.20,247.49 189.15,213.99" fill="none" stroke="#ffffff" stroke-width="16" stroke-linecap="round" stroke-linejoin="round" />
    <polyline points="352.80,352.80 328.70,324.16 318.59,312.40 309.90,304.28 298.33,295.65 274.69,281.46 251.81,273.94 205.27,259.57 167.20,247.49 189.15,213.99" fill="none" stroke="#111111" stroke-width="9" stroke-linecap="round" stroke-linejoin="round" />
    
            <g transform="translate(352.80,352.80)">
              <circle r="19" fill="#ffffff" stroke="#111111" stroke-width="4" />
              <text text-anchor="middle" dominant-baseline="central" font-family="Helvetica, Arial, sans-serif"
                font-size="18" font-weight="700" fill="#111111">1</text>
            </g>
            
            <g transform="translate(189.15,213.99)">
              <circle r="19" fill="#ffffff" stroke="#111111" stroke-width="4" />
              <text text-anchor="middle" dominant-baseline="central" font-family="Helvetica, Arial, sans-serif"
                font-size="18" font-weight="700" fill="#111111">2</text>
            </g>
            
  </g>
</svg>
