<svg xmlns="http://www.w3.org/2000/svg" width="520" height="520" viewBox="0 0 520 520">
  <rect width="100%" height="100%" fill="#ffffff" />
  <g>
    <polyline points="1087.70,-1462.75 1092.25,-1438.56 1121.60,-1233.27 1117.11,-1181.95" fill="none" stroke="#bcbcbc" stroke-width="8" stroke-linecap="round" stroke-linejoin="round" /><polyline points="491.19,247.99 498.28,226.18 535.88,110.57 540.31,96.95 544.79,82.64 639.32,-218.79 646.92,-243.03 629.51,-285.91" fill="none" stroke="#bcbcbc" stroke-width="8" stroke-linecap="round" stroke-linejoin="round" /><polyline points="-161.79,-20.11 -163.32,-37.42 -132.41,-210.51 -128.08,-232.16 -124.84,-243.50 -116.33,-287.39 -106.77,-341.12 -96.36,-388.43 -86.03,-435.64 -79.52,-448.95 -75.27,-457.11" fill="none" stroke="#bcbcbc" stroke-width="8" stroke-linecap="round" stroke-linejoin="round" /><polyline points="17.60,-1241.01 10.25,-1263.41 -65.70,-1495.03 -69.40,-1504.74" fill="none" stroke="#bcbcbc" stroke-width="8" stroke-linecap="round" stroke-linejoin="round" /><polyline points="-372.11,797.48 -369.84,775.38 -368.92,765.24 -360.65,673.78 -351.60,593.26 -349.49,574.46 -347.53,551.90 -347.31,550.00 -342.18,505.15 -337.75,459.57 -332.88,415.58 -329.60,381.33 -328.23,360.19 -327.02,340.67 -324.86,318.68" fill="none" stroke="#bcbcbc" stroke-width="8" stroke-linecap="round" stroke-linejoin="round" /><polyline points="677.32,301.73 682.73,284.73 720.85,164.93 725.17,151.32 731.33,131.93 735.74,118.03 769.47,-27.44" fill="none" stroke="#bcbcbc" stroke-width="8" stroke-linecap="round" stroke-linejoin="round" /><polyline points="529.18,-2067.87 543.25,-2065.71 931.08,-2006.12" fill="none" stroke="#bcbcbc" stroke-width="8" stroke-linecap="round" stroke-linejoin="round" /><polyline points="-466.46,273.50 -506.82,271.62 -531.44,270.48 -544.81,269.86 -556.54,269.31 -647.95,265.06 -775.10,259.15 -835.70,250.56 -855.98,247.68 -873.58,244.57 -992.78,223.54 -1009.44,220.60 -1013.13,219.96 -1033.71,216.44 -1049.52,213.73 -1150.52,204.80 -1169.76,203.10 -1176.82,202.47 -1198.65,200.96 -1241.41,198.00" fill="none" stroke="#bcbcbc" stroke-width="8" stroke-linecap="round" stroke-linejoin="round" /><polyline points="120.00,156.40 127.83,134.14 198.28,-61.15 283.04,-307.48 288.47,-322.93 292.26,-333.73 295.33,-342.59" fill="none" stroke="#bcbcbc" stroke-width="8" stroke-linecap="round" stroke-linejoin="round" /><polyline points="-1176.82,202.47 -1178.62,189.92 -1179.04,176.28 -1176.37,148.82 -1170.23,98.67 -1166.14,81.83 -1159.50,20.98 -1158.29,7.43 -1156.34,-10.00 -1154.90,-22.94 -1152.18,-37.61 -1147.13,-77.08 -1143.63,-107.27 -1138.48,-119.62" fill="none" stroke="#bcbcbc" stroke-width="8" stroke-linecap="round" stroke-linejoin="round" /><polyline points="-1248.93,-135.05 -1154.95,-121.92 -1138.48,-119.62 -1128.27,-118.00 -1086.15,-111.28 -989.09,-95.82 -972.43,-93.04" fill="none" stroke="#bcbcbc" stroke-width="8" stroke-linecap="round" stroke-linejoin="round" /><polyline points="480.64,-1367.81 481.25,-1359.27 482.51,-1350.62 485.57,-1343.99 491.28,-1336.61 501.85,-1326.99 526.90,-1311.75 720.12,-1190.54 839.13,-1030.99 929.02,-809.18 934.88,-794.52" fill="none" stroke="#bcbcbc" stroke-width="8" stroke-linecap="round" stroke-linejoin="round" /><polyline points="449.70,-720.58 453.70,-713.95 454.74,-712.23 458.06,-695.50 480.73,-585.88 487.93,-551.09 493.07,-526.31 501.10,-476.08 504.85,-452.92 507.44,-438.78 510.27,-426.02 513.65,-418.57 518.61,-409.95 521.27,-405.89 571.47,-334.02 598.63,-291.25 605.71,-281.03" fill="none" stroke="#bcbcbc" stroke-width="8" stroke-linecap="round" stroke-linejoin="round" /><polyline points="-991.63,651.96 -988.96,635.51 -986.47,623.61 -985.81,622.03 -952.39,542.58 -931.10,490.95 -924.63,474.58 -917.78,457.25 -910.33,442.35 -909.13,439.44 -898.94,414.82 -891.06,393.03 -884.30,373.04 -880.02,358.91 -875.21,341.45 -869.66,318.04 -865.45,299.05 -860.42,272.55 -859.37,266.63 -855.98,247.68" fill="none" stroke="#bcbcbc" stroke-width="8" stroke-linecap="round" stroke-linejoin="round" /><polyline points="627.42,-1566.76 733.97,-1492.31 748.32,-1489.26 758.83,-1477.24" fill="none" stroke="#bcbcbc" stroke-width="8" stroke-linecap="round" stroke-linejoin="round" /><polyline points="180.00,-879.20 194.08,-873.78 255.22,-853.79 397.04,-799.40 404.99,-791.47 408.73,-785.55" fill="none" stroke="#bcbcbc" stroke-width="8" stroke-linecap="round" stroke-linejoin="round" /><polyline points="444.27,518.20 453.93,493.04 501.60,363.70 535.31,265.98 542.30,262.76" fill="none" stroke="#bcbcbc" stroke-width="8" stroke-linecap="round" stroke-linejoin="round" /><polyline points="-229.65,354.21 -222.13,337.58 -221.39,335.93 -208.51,292.76 -187.43,221.69 -182.03,203.51 -177.84,189.38 -177.27,181.15 -178.13,162.93" fill="none" stroke="#bcbcbc" stroke-width="8" stroke-linecap="round" stroke-linejoin="round" /><polyline points="646.65,-714.90 634.56,-712.41 607.17,-717.28 602.93,-728.58 555.47,-746.67 544.24,-743.74 501.43,-759.46 495.04,-755.00" fill="none" stroke="#bcbcbc" stroke-width="8" stroke-linecap="round" stroke-linejoin="round" /><polyline points="576.18,-2182.82 597.68,-2177.55 609.58,-2175.49 892.49,-2126.44" fill="none" stroke="#bcbcbc" stroke-width="8" stroke-linecap="round" stroke-linejoin="round" /><polyline points="356.29,439.44 368.06,406.27 390.93,341.79 405.71,314.32 426.98,254.79 435.47,231.02" fill="none" stroke="#bcbcbc" stroke-width="8" stroke-linecap="round" stroke-linejoin="round" /><polyline points="-1193.81,-848.19 -1214.30,-849.13 -1219.44,-842.89 -1255.14,-799.52 -1379.93,-655.38 -1397.48,-635.11" fill="none" stroke="#bcbcbc" stroke-width="8" stroke-linecap="round" stroke-linejoin="round" /><polyline points="-99.26,-724.74 -108.30,-704.72 -109.40,-702.29 -140.83,-620.35 -172.51,-530.14 -180.95,-506.09 -185.74,-493.67" fill="none" stroke="#bcbcbc" stroke-width="8" stroke-linecap="round" stroke-linejoin="round" /><polyline points="361.72,-1645.47 371.70,-1631.92 378.83,-1613.30 389.92,-1586.57 407.73,-1544.52 423.50,-1506.78 441.59,-1465.34 455.02,-1433.40 457.01,-1428.81 457.13,-1428.53 467.94,-1403.27 471.17,-1396.09 474.24,-1389.26 477.49,-1382.85 479.93,-1376.34 480.64,-1367.81" fill="none" stroke="#bcbcbc" stroke-width="8" stroke-linecap="round" stroke-linejoin="round" /><polyline points="-402.58,-320.80 -397.36,-323.66 -390.05,-329.47 -386.39,-337.00 -337.83,-521.09 -336.37,-531.47 -330.45,-550.44" fill="none" stroke="#bcbcbc" stroke-width="8" stroke-linecap="round" stroke-linejoin="round" /><polyline points="1295.16,-608.88 1302.05,-587.02 1306.90,-564.06 1297.46,-476.56 1286.55,-410.75 1280.59,-388.29 1280.05,-386.26 1274.83,-374.15 1267.72,-361.30 1251.11,-340.29 1259.15,-299.22 1233.13,-211.05 1218.76,-162.36 1189.37,-82.66 1146.33,14.38 1093.77,107.37 1077.35,137.60 1047.68,187.25 929.11,355.51 903.14,390.51 802.54,521.96 744.79,587.66 664.01,669.76 656.53,670.53 638.28,685.44" fill="none" stroke="#bcbcbc" stroke-width="8" stroke-linecap="round" stroke-linejoin="round" /><polyline points="-167.83,830.42 -134.74,727.78 -129.32,710.84 -121.96,700.16 -106.16,652.72 -101.01,636.61 -35.72,432.19 -29.15,411.63 -23.74,393.57 53.32,151.08" fill="none" stroke="#bcbcbc" stroke-width="8" stroke-linecap="round" stroke-linejoin="round" /><polyline points="607.50,-1078.38 636.12,-1109.64 644.56,-1119.81 702.37,-1201.68" fill="none" stroke="#bcbcbc" stroke-width="8" stroke-linecap="round" stroke-linejoin="round" /><polyline points="35.64,-1065.99 114.43,-1038.57 118.78,-1031.49 141.15,-1023.99 154.43,-1019.45 217.94,-998.00" fill="none" stroke="#bcbcbc" stroke-width="8" stroke-linecap="round" stroke-linejoin="round" /><polyline points="722.39,-1611.18 758.83,-1477.24 801.02,-1319.46 807.41,-1306.31 808.43,-1291.29 837.04,-1237.89 914.25,-1093.92 931.12,-1069.03 936.01,-1061.74 1051.36,-846.10 1104.37,-797.91 1111.81,-788.31 1122.29,-779.35 1222.95,-693.29 1229.78,-687.45 1247.86,-677.85" fill="none" stroke="#bcbcbc" stroke-width="8" stroke-linecap="round" stroke-linejoin="round" /><polyline points="330.92,852.21 581.95,706.40 626.63,683.55 638.28,685.44" fill="none" stroke="#bcbcbc" stroke-width="8" stroke-linecap="round" stroke-linejoin="round" /><polyline points="603.09,643.62 618.67,625.11 758.50,346.13 767.76,327.83 775.49,309.73 820.66,198.04 834.11,164.40 873.04,46.59 898.28,-104.86 901.27,-126.91" fill="none" stroke="#bcbcbc" stroke-width="8" stroke-linecap="round" stroke-linejoin="round" /><polyline points="495.18,-997.05 492.73,-994.54 489.37,-982.80 489.03,-981.63 473.85,-923.21 477.84,-907.95 474.52,-894.28 470.19,-876.38 459.09,-863.52 446.49,-812.48 431.64,-801.26 415.80,-790.40 408.73,-785.55" fill="none" stroke="#bcbcbc" stroke-width="8" stroke-linecap="round" stroke-linejoin="round" /><polyline points="-99.26,-724.74 -92.81,-741.28 -54.02,-840.71 -45.56,-862.40 -38.59,-880.25 10.98,-1007.24 33.29,-1060.33 35.64,-1065.99 52.98,-1107.92 91.90,-1204.53 106.15,-1245.66 109.32,-1255.09 113.58,-1265.79" fill="none" stroke="#bcbcbc" stroke-width="8" stroke-linecap="round" stroke-linejoin="round" /><polyline points="334.82,-1327.50 342.32,-1305.18 588.51,-1094.91 722.85,-978.04 923.50,-803.63 941.01,-789.62 948.85,-784.72 983.67,-753.12 1030.17,-713.46 1135.63,-623.54 1169.70,-594.25 1192.30,-567.22" fill="none" stroke="#bcbcbc" stroke-width="8" stroke-linecap="round" stroke-linejoin="round" /><polyline points="741.86,-1689.81 754.36,-1697.82 828.33,-1728.56 843.53,-1744.55" fill="none" stroke="#bcbcbc" stroke-width="8" stroke-linecap="round" stroke-linejoin="round" /><polyline points="827.31,181.41 725.17,151.32 540.31,96.95" fill="none" stroke="#bcbcbc" stroke-width="8" stroke-linecap="round" stroke-linejoin="round" /><polyline points="497.63,-1990.78 511.58,-1981.16 966.16,-1880.02" fill="none" stroke="#bcbcbc" stroke-width="8" stroke-linecap="round" stroke-linejoin="round" /><polyline points="1059.15,-494.21 1035.65,-546.48 983.52,-670.81 979.63,-680.69 970.71,-703.39 937.10,-788.90 934.99,-794.44" fill="none" stroke="#bcbcbc" stroke-width="8" stroke-linecap="round" stroke-linejoin="round" /><polyline points="361.72,-1645.47 336.48,-1652.65 317.93,-1658.17 280.24,-1669.36 261.09,-1674.82 250.12,-1677.87 235.79,-1681.97" fill="none" stroke="#bcbcbc" stroke-width="8" stroke-linecap="round" stroke-linejoin="round" /><polyline points="-296.32,-961.61 -297.60,-965.78 -298.78,-968.71 -303.98,-981.63 -324.13,-1028.60 -343.28,-1076.32 -347.41,-1087.59 -352.18,-1100.57 -355.59,-1111.18 -361.22,-1127.10 -361.81,-1128.77 -380.13,-1173.92 -413.77,-1258.79 -421.32,-1263.10 -426.69,-1276.86 -437.42,-1314.13 -455.80,-1360.33 -459.76,-1370.83" fill="none" stroke="#bcbcbc" stroke-width="8" stroke-linecap="round" stroke-linejoin="round" /><polyline points="-134.74,727.78 -115.63,733.64 -53.83,752.47 -34.47,758.36" fill="none" stroke="#bcbcbc" stroke-width="8" stroke-linecap="round" stroke-linejoin="round" /><polyline points="1019.44,-1667.59 1023.04,-1682.15 1021.57,-1687.68 1019.81,-1694.35 1008.52,-1735.69 983.37,-1823.08 970.09,-1867.75 966.16,-1880.02 931.08,-2006.12 912.14,-2074.14 892.49,-2126.44 874.74,-2173.62 857.07,-2206.06 839.90,-2223.20 708.07,-2384.28 698.31,-2395.75 691.85,-2406.34" fill="none" stroke="#bcbcbc" stroke-width="8" stroke-linecap="round" stroke-linejoin="round" /><polyline points="480.64,-1367.81 473.84,-1365.21 461.27,-1361.74 460.02,-1361.39 407.51,-1347.97 347.14,-1330.97 334.82,-1327.50 329.33,-1325.76 314.83,-1321.10 302.43,-1317.65 248.29,-1302.59 159.26,-1277.30 126.07,-1268.91 113.58,-1265.79 54.25,-1251.22 17.60,-1241.01 -60.02,-1219.33 -136.73,-1197.71 -145.61,-1195.25 -209.72,-1177.45 -239.30,-1169.25 -254.23,-1162.19 -282.50,-1148.18 -338.64,-1119.69 -342.55,-1117.70 -355.59,-1111.18 -363.54,-1107.20 -374.63,-1101.39 -414.08,-1080.71 -485.95,-1040.38 -545.98,-1008.94 -554.57,-1004.44 -566.05,-1003.72 -572.94,-1000.06 -574.31,-999.33 -639.44,-963.64 -653.08,-963.70 -668.74,-955.51 -674.21,-952.65 -678.82,-950.24 -689.71,-944.54 -698.29,-924.98 -735.15,-905.23 -746.87,-898.96 -759.55,-892.05 -810.84,-864.15 -837.35,-849.72 -850.71,-845.87" fill="none" stroke="#bcbcbc" stroke-width="8" stroke-linecap="round" stroke-linejoin="round" /><polyline points="1218.76,-162.36 1191.39,-159.85 1105.91,-152.02 1102.05,-151.67 1096.60,-151.17 1087.78,-150.36 1004.89,-142.75 976.06,-145.42 942.49,-137.01 915.60,-130.42 901.27,-126.91 865.68,-125.56 834.88,-127.12 819.18,-128.79 805.82,-132.83 795.97,-138.27 759.32,-164.19 670.26,-225.35 661.87,-231.05 653.32,-236.84 646.92,-243.03" fill="none" stroke="#bcbcbc" stroke-width="8" stroke-linecap="round" stroke-linejoin="round" /><polyline points="-798.28,-1194.94 -765.96,-1131.69 -761.07,-1113.61 -733.85,-1061.67 -722.61,-1046.82 -677.11,-958.30 -674.21,-952.65" fill="none" stroke="#bcbcbc" stroke-width="8" stroke-linecap="round" stroke-linejoin="round" /><polyline points="192.00,-632.39 187.16,-619.09 185.80,-614.96 179.50,-595.83 139.52,-484.30 119.67,-428.91 118.99,-427.02 111.02,-409.81 106.45,-399.58" fill="none" stroke="#bcbcbc" stroke-width="8" stroke-linecap="round" stroke-linejoin="round" /><polyline points="722.39,-1611.18 717.96,-1620.67 706.30,-1622.20 668.62,-1613.56 660.96,-1614.55 654.96,-1622.59 644.30,-1671.62 702.06,-1680.56 728.79,-1688.46 741.86,-1689.81 755.95,-1639.75" fill="none" stroke="#bcbcbc" stroke-width="8" stroke-linecap="round" stroke-linejoin="round" /><polyline points="931.12,-1069.03 946.00,-1077.38 1020.72,-1122.40 1040.69,-1134.29 1075.64,-1155.13 1133.15,-1192.32 1146.57,-1201.96 1247.44,-1264.53" fill="none" stroke="#bcbcbc" stroke-width="8" stroke-linecap="round" stroke-linejoin="round" /><polyline points="1283.72,-773.49 1258.22,-781.09 1243.39,-793.24 1186.73,-842.27 1184.80,-843.99 1171.10,-856.22 1163.05,-870.49 1020.72,-1122.40" fill="none" stroke="#bcbcbc" stroke-width="8" stroke-linecap="round" stroke-linejoin="round" /><polyline points="-322.58,-793.45 -99.26,-724.74 -81.04,-718.96 85.61,-666.14 89.09,-665.04 114.06,-657.12 126.33,-653.23 142.28,-648.87 175.18,-637.73 192.00,-632.39 207.14,-627.59 331.17,-588.25 462.09,-547.12 472.92,-543.72 487.93,-551.09" fill="none" stroke="#bcbcbc" stroke-width="8" stroke-linecap="round" stroke-linejoin="round" /><polyline points="334.05,-1895.87 430.79,-1984.75 447.16,-1999.80" fill="none" stroke="#bcbcbc" stroke-width="8" stroke-linecap="round" stroke-linejoin="round" /><polyline points="-1285.83,-461.74 -930.87,-423.69" fill="none" stroke="#bcbcbc" stroke-width="8" stroke-linecap="round" stroke-linejoin="round" /><polyline points="-215.03,-1452.39 -140.42,-1479.07 -63.46,-1506.89 -15.65,-1525.48 130.33,-1578.57 172.70,-1593.22 181.55,-1596.28 192.16,-1599.93 204.08,-1604.03 205.54,-1604.53 229.58,-1614.19 240.04,-1618.40" fill="none" stroke="#bcbcbc" stroke-width="8" stroke-linecap="round" stroke-linejoin="round" /><polyline points="286.06,352.80 356.29,439.44 399.29,482.73 417.91,496.13 444.27,518.20 469.02,538.99 490.29,559.73 490.81,570.28" fill="none" stroke="#bcbcbc" stroke-width="8" stroke-linecap="round" stroke-linejoin="round" /><polyline points="361.72,-1645.47 389.25,-1714.46 433.80,-1828.04 497.63,-1990.78 529.18,-2067.87 576.18,-2182.82 614.72,-2276.98 621.62,-2289.48 655.51,-2344.89 657.70,-2348.47 670.10,-2372.85 691.85,-2406.34 703.99,-2425.03 721.18,-2451.48" fill="none" stroke="#bcbcbc" stroke-width="8" stroke-linecap="round" stroke-linejoin="round" /><polyline points="-287.69,199.15 -292.20,202.75 -295.17,207.05 -301.25,224.95 -305.44,237.87 -324.84,295.86 -327.51,304.23 -329.16,309.42 -346.97,304.31 -390.31,289.78 -433.26,275.38 -466.46,273.50" fill="none" stroke="#bcbcbc" stroke-width="8" stroke-linecap="round" stroke-linejoin="round" /><polyline points="-1136.48,602.66 -1065.70,419.88 -1057.83,399.99 -1050.76,380.82 -1042.23,357.67 -1031.76,321.24 -1020.85,275.97 -1016.38,243.53 -1013.13,219.96 -1008.55,202.57 -991.89,71.88 -972.43,-93.04 -962.36,-171.67 -951.12,-264.04 -930.87,-423.69 -927.66,-450.84 -907.19,-617.81 -907.18,-627.11 -902.66,-676.66 -889.60,-781.31 -886.33,-799.56 -882.92,-809.80 -877.58,-821.07 -872.39,-829.82 -860.94,-842.22 -850.69,-845.74" fill="none" stroke="#bcbcbc" stroke-width="8" stroke-linecap="round" stroke-linejoin="round" /><polyline points="408.73,-785.55 412.60,-779.41 425.58,-759.15 445.02,-728.01 449.70,-720.58 457.45,-726.46 495.04,-755.00" fill="none" stroke="#bcbcbc" stroke-width="8" stroke-linecap="round" stroke-linejoin="round" /><polyline points="433.80,-1828.04 816.24,-1758.91 856.40,-1737.78 1006.24,-1663.50 1019.44,-1667.59" fill="none" stroke="#bcbcbc" stroke-width="8" stroke-linecap="round" stroke-linejoin="round" /><polyline points="-296.32,-961.61 -303.11,-951.71 -364.12,-921.93 -408.93,-864.98 -457.29,-835.05 -490.36,-810.08 -521.91,-784.34 -538.09,-769.60 -566.66,-733.36 -598.61,-687.56 -603.88,-679.08" fill="none" stroke="#bcbcbc" stroke-width="8" stroke-linecap="round" stroke-linejoin="round" /><polyline points="-231.82,-920.75 -234.46,-914.87 -240.25,-906.42 -251.18,-892.96 -315.63,-811.56 -349.73,-719.73 -521.83,-784.41" fill="none" stroke="#bcbcbc" stroke-width="8" stroke-linecap="round" stroke-linejoin="round" /><polyline points="-490.36,-810.08 -497.02,-830.25 -525.82,-917.44 -537.00,-934.66 -555.72,-990.81 -557.33,-995.65 -554.57,-1004.44 -559.06,-1018.75 -649.05,-1306.06" fill="none" stroke="#bcbcbc" stroke-width="8" stroke-linecap="round" stroke-linejoin="round" /><polyline points="564.10,-2377.73 635.22,-2375.86 638.54,-2375.76 652.17,-2375.38 670.10,-2372.85" fill="none" stroke="#bcbcbc" stroke-width="8" stroke-linecap="round" stroke-linejoin="round" /><polyline points="198.28,-61.15 174.00,-61.45 -31.62,-33.85 -46.44,-32.28 -63.39,-30.50 -161.79,-20.11 -294.35,-6.11 -364.63,1.30 -403.51,5.40 -435.08,9.24 -451.29,11.21 -469.54,13.43 -557.74,24.14 -578.88,26.71 -644.01,33.83 -991.89,71.88" fill="none" stroke="#bcbcbc" stroke-width="8" stroke-linecap="round" stroke-linejoin="round" /><polyline points="-106.16,652.72 -124.37,646.86 -209.45,619.48 -226.65,613.94 -241.58,609.14 -331.72,580.17 -349.49,574.46 -373.00,566.89 -516.49,520.72 -532.64,515.53" fill="none" stroke="#bcbcbc" stroke-width="8" stroke-linecap="round" stroke-linejoin="round" /><polyline points="249.60,-1069.71 299.09,-1054.29 480.07,-998.41 481.76,-997.89 495.18,-997.05" fill="none" stroke="#bcbcbc" stroke-width="8" stroke-linecap="round" stroke-linejoin="round" /><polyline points="758.83,-1477.24 1005.02,-1472.91" fill="none" stroke="#bcbcbc" stroke-width="8" stroke-linecap="round" stroke-linejoin="round" /><polyline points="638.28,685.44 603.09,643.62 588.33,626.45 575.64,614.59 558.74,601.98 524.22,581.27 490.81,570.28 422.84,549.29 367.24,531.65 399.29,482.73" fill="none" stroke="#bcbcbc" stroke-width="8" stroke-linecap="round" stroke-linejoin="round" /><polyline points="-355.00,-131.79 -345.96,-112.35 -294.35,-6.11 -217.61,151.85 -207.83,172.00" fill="none" stroke="#bcbcbc" stroke-width="8" stroke-linecap="round" stroke-linejoin="round" /><polyline points="-1181.61,349.38 -1163.15,356.93 -1076.70,392.27 -1057.83,399.99 -1037.97,408.11 -936.19,449.72 -917.78,457.25" fill="none" stroke="#bcbcbc" stroke-width="8" stroke-linecap="round" stroke-linejoin="round" /><polyline points="-312.53,-289.30 -132.41,-210.51" fill="none" stroke="#bcbcbc" stroke-width="8" stroke-linecap="round" stroke-linejoin="round" /><polyline points="495.18,-997.05 522.61,-995.61 524.36,-994.05 536.68,-983.13 554.77,-966.98 558.11,-960.49 620.47,-905.88 625.08,-897.17 668.93,-858.48 679.96,-855.11 714.07,-825.24 721.71,-821.75 773.15,-778.12 784.60,-767.97 790.92,-757.91" fill="none" stroke="#bcbcbc" stroke-width="8" stroke-linecap="round" stroke-linejoin="round" /><polyline points="-1232.45,-289.12 -951.12,-264.04" fill="none" stroke="#bcbcbc" stroke-width="8" stroke-linecap="round" stroke-linejoin="round" /><polyline points="-604.31,758.35 -595.59,739.80 -593.35,731.54 -581.13,686.50 -536.88,530.47 -532.64,515.53 -528.16,499.14 -508.11,425.83 -474.26,302.04 -466.46,273.50" fill="none" stroke="#bcbcbc" stroke-width="8" stroke-linecap="round" stroke-linejoin="round" /><polyline points="-355.00,-131.79 -312.53,-289.30 -402.58,-320.80 -426.16,-306.88 -436.91,-298.70 -444.87,-287.94 -450.47,-273.73 -471.18,-197.18 -454.48,-188.67 -437.59,-184.58 -400.27,-174.86 -372.33,-165.97 -355.00,-131.79" fill="none" stroke="#bcbcbc" stroke-width="8" stroke-linecap="round" stroke-linejoin="round" /><polyline points="-471.18,-197.18 -490.91,-199.93 -951.12,-264.04" fill="none" stroke="#bcbcbc" stroke-width="8" stroke-linecap="round" stroke-linejoin="round" /><polyline points="277.33,185.01 320.02,194.33 435.47,231.02 467.75,241.23 544.37,263.36 621.55,285.61 678.69,302.12 770.08,328.50 788.96,333.96 835.07,349.42 911.00,369.64 917.70,370.90" fill="none" stroke="#bcbcbc" stroke-width="8" stroke-linecap="round" stroke-linejoin="round" /><polyline points="331.48,851.88 315.91,855.79 299.07,902.72 272.95,895.30 154.21,854.84 139.92,851.79 108.13,849.52 -35.67,850.09 -67.37,846.06 -138.96,835.11 -167.83,830.42 -372.63,797.39 -451.94,784.74 -603.18,758.55 -627.60,753.70 -968.93,658.31 -990.47,652.28 -1136.48,602.66 -1172.41,589.91 -1262.14,552.73 -1313.28,533.39" fill="none" stroke="#bcbcbc" stroke-width="8" stroke-linecap="round" stroke-linejoin="round" /><polyline points="644.30,-1671.62 629.52,-1674.67 432.25,-1651.35 361.72,-1645.47" fill="none" stroke="#bcbcbc" stroke-width="8" stroke-linecap="round" stroke-linejoin="round" /><polyline points="277.34,185.01 284.25,173.44 325.65,67.13 371.90,-93.62 383.70,-128.24 390.01,-137.67 434.67,-281.00 436.89,-298.12 438.58,-309.30" fill="none" stroke="#bcbcbc" stroke-width="8" stroke-linecap="round" stroke-linejoin="round" /><polyline points="480.64,-1367.81 485.36,-1369.61 491.75,-1374.69 501.45,-1386.04 627.42,-1566.76 660.96,-1614.55" fill="none" stroke="#bcbcbc" stroke-width="8" stroke-linecap="round" stroke-linejoin="round" /><polyline points="1041.27,-703.93 1043.85,-711.35 1107.16,-785.84 1111.81,-788.31 1122.81,-803.36 1159.65,-845.67 1171.10,-856.22" fill="none" stroke="#bcbcbc" stroke-width="8" stroke-linecap="round" stroke-linejoin="round" /><polyline points="1096.60,-151.17 1095.72,-161.13 1095.05,-168.84 1091.71,-183.59 1087.72,-193.20 1082.75,-218.46 1082.30,-227.61 1078.92,-248.06 1063.85,-255.94 1051.81,-251.33 1030.25,-246.17 1013.18,-243.50 996.82,-239.55 974.22,-234.40 963.92,-232.05" fill="none" stroke="#bcbcbc" stroke-width="8" stroke-linecap="round" stroke-linejoin="round" /><polyline points="-566.95,-516.98 -520.90,-624.91 -518.34,-631.93" fill="none" stroke="#bcbcbc" stroke-width="8" stroke-linecap="round" stroke-linejoin="round" /><polyline points="646.65,-714.90 668.85,-723.50 680.45,-727.99 689.42,-737.08 726.43,-746.20 738.84,-743.03 765.63,-749.93 786.06,-755.19 790.92,-757.91 810.73,-762.76 912.03,-787.58 934.99,-794.44" fill="none" stroke="#bcbcbc" stroke-width="8" stroke-linecap="round" stroke-linejoin="round" /><polyline points="-287.69,199.15 -239.90,181.80 -223.92,176.91 -207.83,172.00 -178.13,162.93 -155.03,159.60 -76.13,150.97 -60.28,150.11 10.32,150.71 53.32,151.08 69.49,150.25 95.39,152.87 103.49,154.03 120.00,156.40 169.88,167.34" fill="none" stroke="#bcbcbc" stroke-width="8" stroke-linecap="round" stroke-linejoin="round" /><polyline points="-60.02,-1219.33 -67.93,-1246.09 -97.33,-1345.49 -133.05,-1458.84 -140.42,-1479.07 -147.91,-1498.04 -157.37,-1525.36" fill="none" stroke="#bcbcbc" stroke-width="8" stroke-linecap="round" stroke-linejoin="round" /><polyline points="-145.53,383.41 -139.25,363.58 -75.73,163.29 -76.13,150.97" fill="none" stroke="#bcbcbc" stroke-width="8" stroke-linecap="round" stroke-linejoin="round" /><polyline points="-60.28,150.11 -47.70,-18.53 -46.44,-32.28 -44.52,-48.28 -44.49,-49.01 -43.66,-68.57 -39.46,-121.65 -37.10,-146.38 -33.86,-174.46 -30.91,-194.68 -28.27,-207.38 -24.94,-216.98 -18.41,-238.61 -4.91,-283.63 12.25,-341.76 31.16,-401.19 35.02,-413.32 38.12,-422.10" fill="none" stroke="#bcbcbc" stroke-width="8" stroke-linecap="round" stroke-linejoin="round" /><polyline points="-471.18,-197.18 -474.53,-182.24 -473.95,-177.46 -453.46,-6.86 -451.29,11.21 -452.23,29.79 -457.60,135.90 -459.84,180.23 -461.00,203.10 -463.06,243.85 -464.13,265.08 -466.46,273.50" fill="none" stroke="#bcbcbc" stroke-width="8" stroke-linecap="round" stroke-linejoin="round" /><polyline points="-566.95,-516.98 -641.46,-539.12 -650.93,-545.19 -697.30,-558.70 -710.33,-558.57 -768.60,-576.12 -778.01,-583.06 -831.03,-599.13 -896.08,-616.86 -896.40,-616.89 -907.19,-617.81" fill="none" stroke="#bcbcbc" stroke-width="8" stroke-linecap="round" stroke-linejoin="round" /><polyline points="790.92,-757.91 793.51,-754.51 804.31,-738.41 824.29,-708.64 843.09,-689.81 879.23,-649.24 873.12,-611.75 870.02,-597.68 865.71,-591.74 874.77,-578.33 888.79,-549.49 916.81,-495.44 930.61,-468.83 939.18,-444.91 943.05,-433.80" fill="none" stroke="#bcbcbc" stroke-width="8" stroke-linecap="round" stroke-linejoin="round" /><polyline points="979.63,-680.69 969.24,-677.46 900.82,-656.17 891.01,-653.02 879.23,-649.24" fill="none" stroke="#bcbcbc" stroke-width="8" stroke-linecap="round" stroke-linejoin="round" /><polyline points="487.93,-551.09 509.33,-558.02 664.64,-637.32 685.42,-647.48 758.63,-668.62 829.60,-688.57 843.09,-689.81" fill="none" stroke="#bcbcbc" stroke-width="8" stroke-linecap="round" stroke-linejoin="round" /><polyline points="504.85,-452.92 683.90,-536.23 691.44,-541.22 708.95,-546.31 828.26,-581.03 846.36,-587.96 865.71,-591.74" fill="none" stroke="#bcbcbc" stroke-width="8" stroke-linecap="round" stroke-linejoin="round" /><polyline points="468.32,-2199.57 540.80,-2190.62 548.08,-2189.72 576.18,-2182.82" fill="none" stroke="#bcbcbc" stroke-width="8" stroke-linecap="round" stroke-linejoin="round" /><polyline points="1087.70,-1462.75 1100.56,-1465.43 1148.59,-1441.89 1154.91,-1435.63 1245.07,-1283.04 1247.44,-1264.53 1259.17,-1254.77 1257.30,-1248.02 1257.02,-1237.02 1258.64,-1221.64 1282.52,-1123.52 1284.63,-1055.55 1287.98,-947.03 1293.59,-800.97 1270.73,-737.33 1256.00,-698.53 1234.49,-643.85 1228.27,-628.03 1224.22,-623.62 1217.72,-581.30" fill="none" stroke="#bcbcbc" stroke-width="8" stroke-linecap="round" stroke-linejoin="round" /><polyline points="1254.39,-323.54 1232.46,-333.08 1177.67,-371.31 1105.38,-422.10 1065.62,-454.25 1038.79,-482.98" fill="none" stroke="#bcbcbc" stroke-width="8" stroke-linecap="round" stroke-linejoin="round" /><polyline points="367.24,531.65 345.71,524.82 310.77,513.74 294.09,508.46 274.51,502.25 249.76,494.40 227.38,487.31 205.26,480.29 106.63,448.99 89.35,443.51 67.89,436.72 63.16,435.22 6.75,420.32 -9.18,416.46 -29.15,411.63 -50.05,406.57 -125.34,388.31 -145.53,383.41 -167.23,375.88 -212.56,360.14 -229.65,354.21 -244.93,349.24 -315.92,324.01 -324.86,318.68 -329.16,309.42" fill="none" stroke="#bcbcbc" stroke-width="8" stroke-linecap="round" stroke-linejoin="round" /><polyline points="691.44,-541.22 686.21,-559.96 670.63,-615.83 664.64,-637.32 655.97,-653.38 655.17,-656.36 650.06,-675.27 656.01,-683.65 648.87,-707.50 646.65,-714.90" fill="none" stroke="#bcbcbc" stroke-width="8" stroke-linecap="round" stroke-linejoin="round" /><polyline points="665.38,-1224.95 680.20,-1231.93 761.14,-1276.55 807.41,-1306.31 840.05,-1328.57 847.25,-1333.93 873.52,-1352.19 900.74,-1372.29 917.97,-1384.83 938.52,-1399.85 1009.93,-1432.07 1019.19,-1431.58 1032.72,-1437.99 1087.70,-1462.75" fill="none" stroke="#bcbcbc" stroke-width="8" stroke-linecap="round" stroke-linejoin="round" /><polyline points="-231.82,-920.75 -220.14,-916.01 -212.42,-913.64 -67.67,-869.19 -45.56,-862.40" fill="none" stroke="#bcbcbc" stroke-width="8" stroke-linecap="round" stroke-linejoin="round" /><polyline points="-1265.77,-595.25 -1369.19,-626.55" fill="none" stroke="#bcbcbc" stroke-width="8" stroke-linecap="round" stroke-linejoin="round" /><polyline points="404.75,-2053.52 430.39,-2021.04 434.22,-2016.19 447.16,-1999.80 461.92,-1998.07 492.24,-1994.51 497.63,-1990.78" fill="none" stroke="#bcbcbc" stroke-width="8" stroke-linecap="round" stroke-linejoin="round" /><polyline points="1295.16,-608.88 1254.53,-601.30 1212.86,-578.66 1174.24,-557.17 1137.72,-538.91 1093.58,-514.94 1061.62,-495.53 998.46,-461.67 751.91,-337.64 687.99,-309.49 645.75,-291.23 624.82,-284.38 607.51,-281.14 579.17,-279.43 538.84,-285.14 438.20,-309.30 295.33,-342.59 107.37,-399.28 38.12,-422.10 -75.27,-457.11 -183.70,-492.87 -342.75,-555.27 -422.27,-589.51 -518.15,-632.12 -677.19,-719.24 -714.48,-743.97 -808.84,-803.32 -848.41,-842.89 -907.77,-919.74 -1005.55,-1020.55 -1043.98,-1054.41" fill="none" stroke="#bcbcbc" stroke-width="8" stroke-linecap="round" stroke-linejoin="round" /><polyline points="524.22,581.27 525.89,571.97 531.90,556.79 588.30,424.83 609.61,375.37 634.72,313.73 640.83,291.18" fill="none" stroke="#bcbcbc" stroke-width="8" stroke-linecap="round" stroke-linejoin="round" /><polyline points="-557.74,24.14 -621.81,-6.86 -767.59,-77.41 -946.40,-163.94 -962.36,-171.67" fill="none" stroke="#bcbcbc" stroke-width="8" stroke-linecap="round" stroke-linejoin="round" /><polyline points="495.18,-997.05 511.36,-1013.61 554.37,-1057.64 588.51,-1094.91" fill="none" stroke="#bcbcbc" stroke-width="8" stroke-linecap="round" stroke-linejoin="round" /><polyline points="-746.87,-898.96 -764.64,-922.48 -847.92,-1032.74 -966.80,-1128.93" fill="none" stroke="#bcbcbc" stroke-width="8" stroke-linecap="round" stroke-linejoin="round" /><polyline points="-1262.78,552.46 -1246.52,513.91 -1194.83,385.06 -1188.56,368.14 -1181.61,349.38 -1178.97,342.61 -1178.28,332.01 -1171.66,231.83 -1169.76,203.10" fill="none" stroke="#bcbcbc" stroke-width="8" stroke-linecap="round" stroke-linejoin="round" /><polyline points="-1298.04,-483.35 -1265.77,-595.25 -1223.20,-742.86 -1217.93,-761.13 -1212.07,-781.88 -1198.95,-828.36 -1197.57,-833.24 -1193.81,-848.19 -1187.82,-865.08 -1186.37,-869.17 -1178.80,-887.92 -1163.95,-920.69 -1159.50,-930.10" fill="none" stroke="#bcbcbc" stroke-width="8" stroke-linecap="round" stroke-linejoin="round" /><polyline points="-1217.93,-761.13 -1152.63,-744.43 -1014.33,-708.89 -935.53,-684.35 -902.66,-676.66" fill="none" stroke="#bcbcbc" stroke-width="8" stroke-linecap="round" stroke-linejoin="round" /><polyline points="126.07,-1268.91 128.30,-1282.50 130.53,-1296.60 140.11,-1343.79 164.04,-1453.62 183.69,-1551.87 187.28,-1572.25 192.16,-1599.93 192.17,-1599.95" fill="none" stroke="#bcbcbc" stroke-width="8" stroke-linecap="round" stroke-linejoin="round" /><polyline points="-67.24,846.07 -38.09,771.72 -34.47,758.36 81.22,464.70 89.35,443.51 95.93,425.54 165.06,224.43 178.37,212.82" fill="none" stroke="#bcbcbc" stroke-width="8" stroke-linecap="round" stroke-linejoin="round" /><polyline points="329.33,-1325.76 329.32,-1325.79 325.23,-1347.29 324.58,-1349.90 314.59,-1390.54 314.60,-1390.67 307.78,-1418.23 278.91,-1517.16 275.27,-1527.76 255.77,-1580.76 249.44,-1596.58 245.35,-1606.78 240.05,-1618.38 240.04,-1618.40 240.03,-1618.45 236.17,-1661.06 235.79,-1681.97" fill="none" stroke="#bcbcbc" stroke-width="8" stroke-linecap="round" stroke-linejoin="round" /><polyline points="286.06,352.80 278.63,360.82 267.57,373.98 236.40,461.86 227.38,487.31" fill="none" stroke="#bcbcbc" stroke-width="8" stroke-linecap="round" stroke-linejoin="round" /><polyline points="-231.82,-920.75 -227.56,-932.29 -226.60,-934.97 -206.36,-991.50 -198.77,-1015.31 -136.73,-1197.71" fill="none" stroke="#bcbcbc" stroke-width="8" stroke-linecap="round" stroke-linejoin="round" /><polyline points="89.09,-665.04 95.42,-681.85 112.56,-727.38 119.81,-746.63 124.72,-759.66 138.47,-796.20 147.56,-820.34 148.78,-823.58 170.80,-882.05 180.00,-879.20 184.99,-892.78 193.81,-916.79 192.12,-927.70 215.54,-991.45 217.94,-998.00 222.39,-1002.08 226.12,-1005.51 249.60,-1069.71 253.00,-1087.28 286.70,-1180.90 294.67,-1187.13 310.88,-1232.99 307.99,-1240.03 322.19,-1282.86 314.83,-1321.10" fill="none" stroke="#bcbcbc" stroke-width="8" stroke-linecap="round" stroke-linejoin="round" /><polyline points="691.85,-2406.34 682.41,-2421.83 632.80,-2503.22" fill="none" stroke="#bcbcbc" stroke-width="8" stroke-linecap="round" stroke-linejoin="round" /><polyline points="847.25,-1333.93 1074.94,-1187.54 1075.00,-1187.44 1075.00,-1187.41 1117.11,-1181.95" fill="none" stroke="#bcbcbc" stroke-width="8" stroke-linecap="round" stroke-linejoin="round" /><polyline points="755.95,-1639.75 998.20,-1518.17 1005.51,-1512.72 1005.02,-1472.91 1009.93,-1432.07" fill="none" stroke="#bcbcbc" stroke-width="8" stroke-linecap="round" stroke-linejoin="round" /><polyline points="294.09,508.46 285.38,535.04 250.08,642.68 190.04,823.95 185.79,836.81 181.47,849.84 180.26,863.72" fill="none" stroke="#bcbcbc" stroke-width="8" stroke-linecap="round" stroke-linejoin="round" /><polyline points="976.06,-145.42 977.51,-158.93 977.82,-171.53 977.72,-171.97 969.13,-209.07 965.61,-224.57 963.92,-232.05 962.18,-239.69 952.76,-281.21 934.35,-364.16 920.97,-414.03 919.08,-421.74" fill="none" stroke="#bcbcbc" stroke-width="8" stroke-linecap="round" stroke-linejoin="round" /><polyline points="-226.65,613.94 -220.65,596.88 -153.19,405.18 -145.53,383.41" fill="none" stroke="#bcbcbc" stroke-width="8" stroke-linecap="round" stroke-linejoin="round" /><polyline points="1287.98,-947.04 1268.13,-952.63 1133.35,-1159.43 1117.11,-1181.95" fill="none" stroke="#bcbcbc" stroke-width="8" stroke-linecap="round" stroke-linejoin="round" /><polyline points="-927.66,-450.84 -436.45,-333.17 -402.58,-320.80" fill="none" stroke="#bcbcbc" stroke-width="8" stroke-linecap="round" stroke-linejoin="round" /><polyline points="621.62,-2289.48 812.96,-2218.60 839.90,-2223.20" fill="none" stroke="#bcbcbc" stroke-width="8" stroke-linecap="round" stroke-linejoin="round" />
    <polyline points="286.06,352.80 237.05,292.32 227.73,280.81 178.37,212.82 167.20,192.06 169.88,167.34 184.76,167.20 221.47,174.26 277.33,185.01" fill="none" stroke="#ffffff" stroke-width="16" stroke-linecap="round" stroke-linejoin="round" />
    <polyline points="286.06,352.80 237.05,292.32 227.73,280.81 178.37,212.82 167.20,192.06 169.88,167.34 184.76,167.20 221.47,174.26 277.33,185.01" fill="none" stroke="#111111" stroke-width="9" stroke-linecap="round" stroke-linejoin="round" />
    
            <g transform="translate(286.06,352.80)">
              <circle r="19" fill="#ffffff" stroke="#111111" stroke-width="4" />
              <text text-anchor="middle" dominant-baseline="central" font-family="Helvetica, Arial, sans-serif"
                font-size="18" font-weight="700" fill="#111111">1</text>
            </g>
            
            <g transform="translate(277.33,185.01)">
              <circle r="19" fill="#ffffff" stroke="#111111" stroke-width="4" />
              <text text-anchor="middle" dominant-baseline="central" font-family="Helvetica, Arial, sans-serif"
                font-size="18" font-weight="700" fill="#111111">2</text>
            </g>
            
  </g>
</svg>
