<svg xmlns="http://www.w3.org/2000/svg" width="520" height="520" viewBox="0 0 520 520">
  <rect width="100%" height="100%" fill="#ffffff" />
  <g>
    <polyline points="1048.62,-645.97 1051.40,-631.19 1069.33,-505.77 1066.59,-474.41" fill="none" stroke="#bcbcbc" stroke-width="8" stroke-linecap="round" stroke-linejoin="round" /><polyline points="684.18,399.23 688.51,385.90 711.48,315.27 714.19,306.95 716.93,298.21 774.68,114.04 779.33,99.23 768.69,73.04" fill="none" stroke="#bcbcbc" stroke-width="8" stroke-linecap="round" stroke-linejoin="round" /><polyline points="285.24,235.43 284.31,224.85 303.19,119.11 305.84,105.88 307.82,98.95 313.01,72.13 318.85,39.31 325.22,10.40 331.53,-18.44 335.50,-26.57 338.10,-31.56" fill="none" stroke="#bcbcbc" stroke-width="8" stroke-linecap="round" stroke-linejoin="round" /><polyline points="394.84,-510.50 390.35,-524.18 343.95,-665.69 341.69,-671.63" fill="none" stroke="#bcbcbc" stroke-width="8" stroke-linecap="round" stroke-linejoin="round" /><polyline points="156.75,734.95 158.13,721.44 158.69,715.25 163.75,659.37 169.27,610.18 170.57,598.69 171.77,584.91 171.90,583.75 175.03,556.35 177.74,528.50 180.71,501.62 182.72,480.69 183.56,467.78 184.30,455.86 185.61,442.42" fill="none" stroke="#bcbcbc" stroke-width="8" stroke-linecap="round" stroke-linejoin="round" /><polyline points="797.90,432.06 801.20,421.67 824.49,348.48 827.13,340.17 830.89,328.32 833.59,319.83 854.20,230.95" fill="none" stroke="#bcbcbc" stroke-width="8" stroke-linecap="round" stroke-linejoin="round" /><polyline points="707.39,-1015.67 715.99,-1014.35 952.93,-977.95" fill="none" stroke="#bcbcbc" stroke-width="8" stroke-linecap="round" stroke-linejoin="round" /><polyline points="99.10,414.82 74.44,413.67 59.40,412.97 51.23,412.59 44.07,412.26 -11.78,409.66 -89.46,406.05 -126.48,400.80 -138.87,399.04 -149.63,397.14 -222.45,384.29 -232.63,382.49 -234.88,382.11 -247.46,379.95 -257.12,378.30 -318.83,372.84 -330.58,371.80 -334.89,371.42 -348.23,370.50 -374.35,368.69" fill="none" stroke="#bcbcbc" stroke-width="8" stroke-linecap="round" stroke-linejoin="round" /><polyline points="457.40,343.27 462.18,329.67 505.23,210.36 557.01,59.86 560.33,50.42 562.64,43.82 564.52,38.41" fill="none" stroke="#bcbcbc" stroke-width="8" stroke-linecap="round" stroke-linejoin="round" /><polyline points="-334.89,371.42 -335.99,363.75 -336.25,355.42 -334.62,338.64 -330.87,308.00 -328.37,297.72 -324.31,260.54 -323.57,252.26 -322.38,241.61 -321.50,233.70 -319.84,224.74 -316.75,200.63 -314.61,182.18 -311.47,174.63" fill="none" stroke="#bcbcbc" stroke-width="8" stroke-linecap="round" stroke-linejoin="round" /><polyline points="-378.95,165.21 -321.53,173.23 -311.47,174.63 -305.23,175.63 -279.50,179.73 -220.20,189.17 -210.02,190.87" fill="none" stroke="#bcbcbc" stroke-width="8" stroke-linecap="round" stroke-linejoin="round" /><polyline points="677.73,-587.96 678.11,-582.75 678.88,-577.46 680.74,-573.41 684.23,-568.90 690.69,-563.02 705.99,-553.71 824.05,-479.66 896.75,-382.18 951.67,-246.66 955.25,-237.71" fill="none" stroke="#bcbcbc" stroke-width="8" stroke-linecap="round" stroke-linejoin="round" /><polyline points="658.83,-192.53 661.28,-188.48 661.91,-187.43 663.94,-177.21 677.79,-110.23 682.19,-88.98 685.33,-73.84 690.24,-43.15 692.53,-29.00 694.11,-20.36 695.84,-12.57 697.90,-8.02 700.93,-2.75 702.56,-0.26 733.23,43.65 749.82,69.77 754.15,76.02" fill="none" stroke="#bcbcbc" stroke-width="8" stroke-linecap="round" stroke-linejoin="round" /><polyline points="-221.75,646.04 -220.12,635.99 -218.60,628.72 -218.19,627.76 -197.78,579.22 -184.77,547.67 -180.82,537.67 -176.63,527.08 -172.08,517.98 -171.34,516.20 -165.12,501.16 -160.31,487.84 -156.18,475.63 -153.56,467.00 -150.62,456.33 -147.24,442.03 -144.66,430.43 -141.59,414.23 -140.94,410.62 -138.87,399.04" fill="none" stroke="#bcbcbc" stroke-width="8" stroke-linecap="round" stroke-linejoin="round" /><polyline points="767.41,-709.51 832.50,-664.03 841.27,-662.17 847.69,-654.82" fill="none" stroke="#bcbcbc" stroke-width="8" stroke-linecap="round" stroke-linejoin="round" /><polyline points="494.06,-289.44 502.66,-286.13 540.01,-273.91 626.66,-240.69 631.52,-235.84 633.80,-232.23" fill="none" stroke="#bcbcbc" stroke-width="8" stroke-linecap="round" stroke-linejoin="round" /><polyline points="655.51,564.32 661.41,548.95 690.54,469.92 711.14,410.22 715.41,408.26" fill="none" stroke="#bcbcbc" stroke-width="8" stroke-linecap="round" stroke-linejoin="round" /><polyline points="243.78,464.12 248.38,453.96 248.83,452.96 256.69,426.58 269.58,383.16 272.88,372.05 275.44,363.42 275.78,358.39 275.26,347.26" fill="none" stroke="#bcbcbc" stroke-width="8" stroke-linecap="round" stroke-linejoin="round" /><polyline points="779.16,-189.06 771.77,-187.54 755.04,-190.51 752.45,-197.42 723.45,-208.47 716.59,-206.68 690.43,-216.28 686.53,-213.56" fill="none" stroke="#bcbcbc" stroke-width="8" stroke-linecap="round" stroke-linejoin="round" /><polyline points="736.10,-1085.91 749.24,-1082.69 756.51,-1081.43 929.36,-1051.46" fill="none" stroke="#bcbcbc" stroke-width="8" stroke-linecap="round" stroke-linejoin="round" /><polyline points="601.76,516.20 608.95,495.93 622.93,456.54 631.96,439.76 644.95,403.38 650.14,388.86" fill="none" stroke="#bcbcbc" stroke-width="8" stroke-linecap="round" stroke-linejoin="round" /><polyline points="-345.27,-270.49 -357.79,-271.07 -360.93,-267.26 -382.74,-240.76 -458.98,-152.70 -469.70,-140.31" fill="none" stroke="#bcbcbc" stroke-width="8" stroke-linecap="round" stroke-linejoin="round" /><polyline points="323.44,-195.07 317.92,-182.84 317.25,-181.36 298.05,-131.29 278.69,-76.18 273.53,-61.48 270.61,-53.90" fill="none" stroke="#bcbcbc" stroke-width="8" stroke-linecap="round" stroke-linejoin="round" /><polyline points="605.08,-757.60 611.18,-749.33 615.54,-737.95 622.31,-721.62 633.19,-695.93 642.82,-672.87 653.88,-647.55 662.08,-628.04 663.30,-625.23 663.37,-625.06 669.97,-609.63 671.95,-605.24 673.82,-601.07 675.81,-597.15 677.30,-593.18 677.74,-587.96" fill="none" stroke="#bcbcbc" stroke-width="8" stroke-linecap="round" stroke-linejoin="round" /><polyline points="138.13,51.72 141.32,49.97 145.79,46.43 148.02,41.82 177.69,-70.65 178.58,-76.99 182.20,-88.58" fill="none" stroke="#bcbcbc" stroke-width="8" stroke-linecap="round" stroke-linejoin="round" /><polyline points="1175.36,-124.29 1179.57,-110.93 1182.54,-96.90 1176.77,-43.44 1170.10,-3.23 1166.47,10.48 1166.14,11.73 1162.95,19.13 1158.60,26.98 1148.45,39.81 1153.37,64.91 1137.47,118.77 1128.69,148.52 1110.73,197.22 1084.44,256.50 1052.32,313.32 1042.30,331.78 1024.17,362.12 951.73,464.92 935.86,486.31 874.40,566.62 839.12,606.76 789.76,656.92 785.19,657.39 774.05,666.50" fill="none" stroke="#bcbcbc" stroke-width="8" stroke-linecap="round" stroke-linejoin="round" /><polyline points="281.55,755.07 301.77,692.37 305.08,682.01 309.57,675.49 319.23,646.51 322.37,636.66 362.27,511.77 366.28,499.21 369.58,488.17 416.66,340.02" fill="none" stroke="#bcbcbc" stroke-width="8" stroke-linecap="round" stroke-linejoin="round" /><polyline points="755.24,-411.13 772.72,-430.23 777.88,-436.44 813.20,-486.47" fill="none" stroke="#bcbcbc" stroke-width="8" stroke-linecap="round" stroke-linejoin="round" /><polyline points="405.86,-403.56 454.00,-386.81 456.66,-382.49 470.32,-377.90 478.44,-375.13 517.24,-362.02" fill="none" stroke="#bcbcbc" stroke-width="8" stroke-linecap="round" stroke-linejoin="round" /><polyline points="825.43,-736.66 847.69,-654.82 873.47,-558.42 877.38,-550.39 878.00,-541.21 895.48,-508.59 942.65,-420.63 952.95,-405.42 955.94,-400.97 1026.41,-269.22 1058.80,-239.78 1063.35,-233.91 1069.75,-228.44 1131.25,-175.86 1135.42,-172.29 1146.47,-166.43" fill="none" stroke="#bcbcbc" stroke-width="8" stroke-linecap="round" stroke-linejoin="round" /><polyline points="586.26,768.39 739.63,679.30 766.93,665.34 774.05,666.50" fill="none" stroke="#bcbcbc" stroke-width="8" stroke-linecap="round" stroke-linejoin="round" /><polyline points="752.55,640.94 762.06,629.63 847.49,459.19 853.15,448.01 857.87,436.95 885.47,368.71 893.69,348.16 917.47,276.18 932.89,183.65 934.72,170.18" fill="none" stroke="#bcbcbc" stroke-width="8" stroke-linecap="round" stroke-linejoin="round" /><polyline points="686.62,-361.44 685.12,-359.91 683.07,-352.74 682.86,-352.02 673.59,-316.33 676.02,-307.01 674.00,-298.65 671.35,-287.72 664.57,-279.86 656.87,-248.68 647.80,-241.82 638.12,-235.19 633.80,-232.23" fill="none" stroke="#bcbcbc" stroke-width="8" stroke-linecap="round" stroke-linejoin="round" /><polyline points="323.44,-195.07 327.38,-205.18 351.09,-265.93 356.25,-279.17 360.51,-290.09 390.79,-367.67 404.43,-400.10 405.86,-403.56 416.46,-429.18 440.23,-488.21 448.94,-513.33 450.88,-519.10 453.48,-525.63" fill="none" stroke="#bcbcbc" stroke-width="8" stroke-linecap="round" stroke-linejoin="round" /><polyline points="588.64,-563.34 593.23,-549.70 743.63,-421.23 825.71,-349.83 948.30,-243.27 959.00,-234.71 963.79,-231.72 985.06,-212.41 1013.47,-188.18 1077.90,-133.24 1098.72,-115.35 1112.52,-98.83" fill="none" stroke="#bcbcbc" stroke-width="8" stroke-linecap="round" stroke-linejoin="round" /><polyline points="837.33,-784.70 844.96,-789.59 890.15,-808.37 899.44,-818.14" fill="none" stroke="#bcbcbc" stroke-width="8" stroke-linecap="round" stroke-linejoin="round" /><polyline points="889.53,358.55 827.13,340.17 714.19,306.95" fill="none" stroke="#bcbcbc" stroke-width="8" stroke-linecap="round" stroke-linejoin="round" /><polyline points="688.11,-968.58 696.64,-962.70 974.37,-900.91" fill="none" stroke="#bcbcbc" stroke-width="8" stroke-linecap="round" stroke-linejoin="round" /><polyline points="1031.17,-54.22 1016.82,-86.16 984.97,-162.12 982.59,-168.16 977.14,-182.03 956.61,-234.27 955.32,-237.66" fill="none" stroke="#bcbcbc" stroke-width="8" stroke-linecap="round" stroke-linejoin="round" /><polyline points="605.08,-757.60 589.66,-761.99 578.33,-765.36 555.30,-772.20 543.60,-775.54 536.90,-777.40 528.15,-779.91" fill="none" stroke="#bcbcbc" stroke-width="8" stroke-linecap="round" stroke-linejoin="round" /><polyline points="203.05,-339.79 202.27,-342.34 201.55,-344.13 198.37,-352.02 186.06,-380.72 174.36,-409.88 171.83,-416.76 168.92,-424.69 166.84,-431.17 163.40,-440.90 163.04,-441.92 151.85,-469.51 131.30,-521.36 126.68,-523.99 123.40,-532.40 116.84,-555.17 105.62,-583.39 103.20,-589.81" fill="none" stroke="#bcbcbc" stroke-width="8" stroke-linecap="round" stroke-linejoin="round" /><polyline points="301.77,692.37 313.44,695.94 351.20,707.45 363.03,711.05" fill="none" stroke="#bcbcbc" stroke-width="8" stroke-linecap="round" stroke-linejoin="round" /><polyline points="1006.91,-771.12 1009.11,-780.01 1008.22,-783.39 1007.14,-787.47 1000.25,-812.72 984.88,-866.11 976.77,-893.41 974.37,-900.91 952.93,-977.95 941.36,-1019.50 929.36,-1051.46 918.51,-1080.28 907.72,-1100.10 897.22,-1110.58 816.68,-1208.99 810.72,-1216.00 806.77,-1222.47" fill="none" stroke="#bcbcbc" stroke-width="8" stroke-linecap="round" stroke-linejoin="round" /><polyline points="677.74,-587.96 673.58,-586.38 665.90,-584.26 665.13,-584.04 633.06,-575.84 596.17,-565.46 588.64,-563.34 585.29,-562.27 576.43,-559.42 568.86,-557.32 535.78,-548.12 481.39,-532.66 461.11,-527.54 453.48,-525.63 417.23,-516.73 394.84,-510.50 347.42,-497.25 300.55,-484.04 295.13,-482.53 255.96,-471.66 237.89,-466.65 228.77,-462.34 211.49,-453.78 177.19,-436.37 174.80,-435.16 166.84,-431.17 161.98,-428.74 155.21,-425.19 131.11,-412.55 87.20,-387.92 50.52,-368.71 45.27,-365.96 38.26,-365.52 34.05,-363.28 33.21,-362.84 -6.58,-341.03 -14.92,-341.07 -24.48,-336.06 -27.82,-334.32 -30.64,-332.84 -37.29,-329.36 -42.53,-317.41 -65.05,-305.35 -72.21,-301.51 -79.96,-297.29 -111.29,-280.24 -127.49,-271.43 -135.66,-269.08" fill="none" stroke="#bcbcbc" stroke-width="8" stroke-linecap="round" stroke-linejoin="round" /><polyline points="1128.69,148.52 1111.97,150.05 1059.74,154.84 1057.39,155.05 1054.06,155.36 1048.67,155.86 998.02,160.50 980.41,158.87 959.90,164.01 943.47,168.04 934.72,170.18 912.98,171.01 894.16,170.05 884.57,169.03 876.40,166.56 870.39,163.24 847.99,147.40 793.58,110.04 788.46,106.56 783.23,103.01 779.33,99.23" fill="none" stroke="#bcbcbc" stroke-width="8" stroke-linecap="round" stroke-linejoin="round" /><polyline points="-103.62,-482.35 -83.88,-443.70 -80.89,-432.66 -64.26,-400.93 -57.39,-391.85 -29.60,-337.77 -27.82,-334.32" fill="none" stroke="#bcbcbc" stroke-width="8" stroke-linecap="round" stroke-linejoin="round" /><polyline points="501.39,-138.65 498.43,-130.52 497.60,-128.00 493.75,-116.31 469.32,-48.17 457.20,-14.33 456.79,-13.18 451.92,-2.66 449.12,3.59" fill="none" stroke="#bcbcbc" stroke-width="8" stroke-linecap="round" stroke-linejoin="round" /><polyline points="825.43,-736.66 822.72,-742.45 815.60,-743.39 792.58,-738.11 787.90,-738.72 784.24,-743.63 777.72,-773.58 813.01,-779.05 829.34,-783.87 837.33,-784.70 845.93,-754.11" fill="none" stroke="#bcbcbc" stroke-width="8" stroke-linecap="round" stroke-linejoin="round" /><polyline points="952.95,-405.42 962.04,-410.52 1007.70,-438.03 1019.90,-445.29 1041.25,-458.03 1076.39,-480.74 1084.58,-486.64 1146.21,-524.87" fill="none" stroke="#bcbcbc" stroke-width="8" stroke-linecap="round" stroke-linejoin="round" /><polyline points="1168.38,-224.86 1152.80,-229.50 1143.74,-236.92 1109.12,-266.88 1107.94,-267.93 1099.57,-275.40 1094.66,-284.12 1007.70,-438.03" fill="none" stroke="#bcbcbc" stroke-width="8" stroke-linecap="round" stroke-linejoin="round" /><polyline points="187.01,-237.05 323.44,-195.07 334.58,-191.54 436.39,-159.27 438.52,-158.60 453.77,-153.76 461.27,-151.38 471.01,-148.72 491.11,-141.91 501.39,-138.65 510.64,-135.72 586.41,-111.68 666.40,-86.55 673.02,-84.48 682.19,-88.98" fill="none" stroke="#bcbcbc" stroke-width="8" stroke-linecap="round" stroke-linejoin="round" /><polyline points="588.17,-910.59 647.28,-964.89 657.28,-974.08" fill="none" stroke="#bcbcbc" stroke-width="8" stroke-linecap="round" stroke-linejoin="round" /><polyline points="-401.49,-34.39 -184.63,-11.14" fill="none" stroke="#bcbcbc" stroke-width="8" stroke-linecap="round" stroke-linejoin="round" /><polyline points="252.72,-639.64 298.30,-655.94 345.31,-672.94 374.52,-684.29 463.71,-716.73 489.60,-725.68 495.01,-727.55 501.49,-729.78 508.77,-732.28 509.66,-732.59 524.35,-738.50 530.74,-741.06" fill="none" stroke="#bcbcbc" stroke-width="8" stroke-linecap="round" stroke-linejoin="round" /><polyline points="558.85,463.27 601.76,516.20 628.04,542.65 639.41,550.84 655.51,564.32 670.63,577.02 683.63,589.69 683.95,596.14" fill="none" stroke="#bcbcbc" stroke-width="8" stroke-linecap="round" stroke-linejoin="round" /><polyline points="605.08,-757.60 621.90,-799.75 649.12,-869.15 688.11,-968.58 707.39,-1015.67 736.10,-1085.91 759.65,-1143.43 763.87,-1151.07 784.57,-1184.92 785.91,-1187.11 793.49,-1202.01 806.77,-1222.47 814.19,-1233.89 824.69,-1250.04" fill="none" stroke="#bcbcbc" stroke-width="8" stroke-linecap="round" stroke-linejoin="round" /><polyline points="208.32,369.39 205.57,371.59 203.75,374.21 200.04,385.15 197.48,393.05 185.63,428.48 184.00,433.59 182.99,436.76 172.11,433.64 145.62,424.76 119.38,415.96 99.10,414.82" fill="none" stroke="#bcbcbc" stroke-width="8" stroke-linecap="round" stroke-linejoin="round" /><polyline points="-310.25,615.92 -267.01,504.25 -262.19,492.09 -257.88,480.38 -252.66,466.24 -246.27,443.98 -239.60,416.32 -236.87,396.50 -234.88,382.11 -232.08,371.48 -221.91,291.63 -210.02,190.87 -203.87,142.83 -197.00,86.40 -184.63,-11.14 -182.67,-27.73 -170.16,-129.74 -170.16,-135.43 -167.39,-165.69 -159.42,-229.63 -157.42,-240.78 -155.33,-247.04 -152.07,-253.93 -148.90,-259.27 -141.90,-266.85 -135.64,-269.00" fill="none" stroke="#bcbcbc" stroke-width="8" stroke-linecap="round" stroke-linejoin="round" /><polyline points="633.80,-232.23 636.17,-228.48 644.10,-216.10 655.97,-197.07 658.83,-192.53 663.57,-196.12 686.53,-213.56" fill="none" stroke="#bcbcbc" stroke-width="8" stroke-linecap="round" stroke-linejoin="round" /><polyline points="649.12,-869.15 882.77,-826.91 907.31,-814.00 998.85,-768.62 1006.91,-771.12" fill="none" stroke="#bcbcbc" stroke-width="8" stroke-linecap="round" stroke-linejoin="round" /><polyline points="203.05,-339.79 198.90,-333.74 161.63,-315.55 134.25,-280.75 104.71,-262.47 84.50,-247.21 65.23,-231.49 55.34,-222.48 37.89,-200.34 18.37,-172.36 15.15,-167.17" fill="none" stroke="#bcbcbc" stroke-width="8" stroke-linecap="round" stroke-linejoin="round" /><polyline points="242.46,-314.83 240.84,-311.23 237.31,-306.07 230.63,-297.85 191.25,-248.11 170.42,-192.01 65.27,-231.53" fill="none" stroke="#bcbcbc" stroke-width="8" stroke-linecap="round" stroke-linejoin="round" /><polyline points="84.50,-247.21 80.43,-259.53 62.84,-312.80 56.01,-323.33 44.57,-357.63 43.58,-360.59 45.27,-365.96 42.53,-374.70 -12.45,-550.23" fill="none" stroke="#bcbcbc" stroke-width="8" stroke-linecap="round" stroke-linejoin="round" /><polyline points="728.73,-1204.99 772.18,-1203.84 774.21,-1203.79 782.53,-1203.55 793.49,-1202.01" fill="none" stroke="#bcbcbc" stroke-width="8" stroke-linecap="round" stroke-linejoin="round" /><polyline points="505.23,210.36 490.39,210.18 364.77,227.04 355.71,227.99 345.36,229.09 285.24,235.43 204.25,243.98 161.31,248.51 137.56,251.02 118.28,253.36 108.37,254.56 97.22,255.92 43.33,262.47 30.42,264.04 -9.37,268.39 -221.91,291.63" fill="none" stroke="#bcbcbc" stroke-width="8" stroke-linecap="round" stroke-linejoin="round" /><polyline points="319.23,646.51 308.10,642.92 256.12,626.19 245.61,622.81 236.49,619.88 181.42,602.18 170.57,598.69 156.20,594.07 68.54,565.86 58.67,562.68" fill="none" stroke="#bcbcbc" stroke-width="8" stroke-linecap="round" stroke-linejoin="round" /><polyline points="536.58,-405.83 566.82,-396.41 677.39,-362.27 678.42,-361.95 686.62,-361.44" fill="none" stroke="#bcbcbc" stroke-width="8" stroke-linecap="round" stroke-linejoin="round" /><polyline points="847.69,-654.82 998.10,-652.18" fill="none" stroke="#bcbcbc" stroke-width="8" stroke-linecap="round" stroke-linejoin="round" /><polyline points="774.05,666.50 752.55,640.94 743.52,630.45 735.77,623.21 725.45,615.50 704.36,602.85 683.95,596.14 642.42,583.31 608.46,572.53 628.04,542.65" fill="none" stroke="#bcbcbc" stroke-width="8" stroke-linecap="round" stroke-linejoin="round" /><polyline points="558.85,463.27 528.91,426.31 523.22,419.28 493.06,377.74 486.24,365.06 487.88,349.96 496.97,349.87 519.40,354.19 553.52,360.75" fill="none" stroke="#bcbcbc" stroke-width="8" stroke-linecap="round" stroke-linejoin="round" /><polyline points="-337.82,461.18 -326.54,465.79 -273.72,487.38 -262.19,492.09 -250.06,497.05 -187.88,522.48 -176.63,527.08" fill="none" stroke="#bcbcbc" stroke-width="8" stroke-linecap="round" stroke-linejoin="round" /><polyline points="193.15,70.97 303.19,119.11" fill="none" stroke="#bcbcbc" stroke-width="8" stroke-linecap="round" stroke-linejoin="round" /><polyline points="686.62,-361.44 703.38,-360.56 704.45,-359.61 711.97,-352.94 723.02,-343.07 725.06,-339.10 763.16,-305.74 765.98,-300.42 792.77,-276.78 799.51,-274.72 820.35,-256.48 825.02,-254.34 856.44,-227.68 863.44,-221.48 867.30,-215.34" fill="none" stroke="#bcbcbc" stroke-width="8" stroke-linecap="round" stroke-linejoin="round" /><polyline points="-368.88,71.08 -197.00,86.40" fill="none" stroke="#bcbcbc" stroke-width="8" stroke-linecap="round" stroke-linejoin="round" /><polyline points="14.89,711.04 20.21,699.71 21.58,694.66 29.05,667.14 56.08,571.81 58.67,562.68 61.41,552.68 73.65,507.89 94.34,432.25 99.10,414.82" fill="none" stroke="#bcbcbc" stroke-width="8" stroke-linecap="round" stroke-linejoin="round" /><polyline points="167.20,167.20 193.15,70.97 138.13,51.72 123.72,60.22 117.16,65.22 112.29,71.80 108.87,80.48 96.22,127.25 106.43,132.44 116.74,134.95 139.54,140.88 156.61,146.32 167.20,167.20" fill="none" stroke="#bcbcbc" stroke-width="8" stroke-linecap="round" stroke-linejoin="round" /><polyline points="96.22,127.25 84.17,125.57 -197.00,86.40" fill="none" stroke="#bcbcbc" stroke-width="8" stroke-linecap="round" stroke-linejoin="round" /><polyline points="553.52,360.75 579.60,366.45 650.14,388.86 669.86,395.10 716.67,408.62 763.82,422.22 798.73,432.30 854.57,448.42 866.10,451.76 894.28,461.20 940.66,473.56 944.75,474.32" fill="none" stroke="#bcbcbc" stroke-width="8" stroke-linecap="round" stroke-linejoin="round" /><polyline points="586.61,768.19 577.09,770.57 566.80,799.25 550.85,794.72 478.30,769.99 469.57,768.13 450.15,766.74 362.29,767.09 342.93,764.63 299.19,757.94 281.55,755.07 156.43,734.90 107.98,727.17 15.57,711.16 0.65,708.20 -207.88,649.92 -221.04,646.24 -310.25,615.92 -332.20,608.13 -387.02,585.42 -418.26,573.60" fill="none" stroke="#bcbcbc" stroke-width="8" stroke-linecap="round" stroke-linejoin="round" /><polyline points="777.72,-773.58 768.69,-775.44 648.17,-761.19 605.08,-757.60" fill="none" stroke="#bcbcbc" stroke-width="8" stroke-linecap="round" stroke-linejoin="round" /><polyline points="553.53,360.75 557.75,353.68 583.04,288.73 611.30,190.52 618.51,169.37 622.36,163.61 649.65,76.04 651.00,65.58 652.04,58.75" fill="none" stroke="#bcbcbc" stroke-width="8" stroke-linecap="round" stroke-linejoin="round" /><polyline points="677.74,-587.96 680.62,-589.06 684.52,-592.16 690.45,-599.10 767.41,-709.51 787.90,-738.72" fill="none" stroke="#bcbcbc" stroke-width="8" stroke-linecap="round" stroke-linejoin="round" /><polyline points="1020.25,-182.36 1021.82,-186.89 1060.51,-232.40 1063.35,-233.91 1070.07,-243.11 1092.57,-268.96 1099.57,-275.40" fill="none" stroke="#bcbcbc" stroke-width="8" stroke-linecap="round" stroke-linejoin="round" /><polyline points="1054.06,155.36 1053.52,149.27 1053.11,144.56 1051.07,135.55 1048.63,129.68 1045.59,114.24 1045.32,108.65 1043.26,96.16 1034.05,91.35 1026.69,94.16 1013.52,97.32 1003.09,98.95 993.09,101.36 979.29,104.51 972.99,105.94" fill="none" stroke="#bcbcbc" stroke-width="8" stroke-linecap="round" stroke-linejoin="round" /><polyline points="37.71,-68.14 65.84,-134.08 67.41,-138.37" fill="none" stroke="#bcbcbc" stroke-width="8" stroke-linecap="round" stroke-linejoin="round" /><polyline points="779.16,-189.06 792.72,-194.31 799.81,-197.06 805.29,-202.61 827.90,-208.18 835.48,-206.25 851.85,-210.46 864.33,-213.68 867.30,-215.34 879.41,-218.30 941.29,-233.46 955.32,-237.66" fill="none" stroke="#bcbcbc" stroke-width="8" stroke-linecap="round" stroke-linejoin="round" /><polyline points="208.32,369.39 237.52,358.79 247.28,355.80 257.12,352.80 275.26,347.26 289.37,345.23 337.58,339.96 347.26,339.43 390.39,339.80 416.66,340.02 426.54,339.52 442.37,341.12 447.32,341.83 457.40,343.27 487.88,349.96" fill="none" stroke="#bcbcbc" stroke-width="8" stroke-linecap="round" stroke-linejoin="round" /><polyline points="347.42,-497.25 342.58,-513.60 324.62,-574.33 302.80,-643.58 298.30,-655.94 293.72,-667.53 287.94,-684.22" fill="none" stroke="#bcbcbc" stroke-width="8" stroke-linecap="round" stroke-linejoin="round" /><polyline points="295.17,481.97 299.01,469.85 337.82,347.48 337.58,339.96" fill="none" stroke="#bcbcbc" stroke-width="8" stroke-linecap="round" stroke-linejoin="round" /><polyline points="347.26,339.43 354.94,236.39 355.71,227.99 356.89,218.22 356.91,217.77 357.41,205.82 359.98,173.39 361.42,158.29 363.40,141.13 365.20,128.77 366.82,121.01 368.85,115.15 372.84,101.94 381.09,74.43 391.57,38.92 403.13,2.60 405.48,-4.80 407.38,-10.17" fill="none" stroke="#bcbcbc" stroke-width="8" stroke-linecap="round" stroke-linejoin="round" /><polyline points="96.22,127.25 94.17,136.38 94.52,139.30 107.05,243.53 108.37,254.56 107.80,265.92 104.52,330.75 103.15,357.83 102.44,371.80 101.18,396.70 100.52,409.67 99.10,414.82" fill="none" stroke="#bcbcbc" stroke-width="8" stroke-linecap="round" stroke-linejoin="round" /><polyline points="37.71,-68.14 -7.81,-81.66 -13.60,-85.38 -41.93,-93.63 -49.89,-93.55 -85.49,-104.27 -91.24,-108.51 -123.63,-118.33 -163.38,-129.16 -163.57,-129.18 -170.16,-129.74" fill="none" stroke="#bcbcbc" stroke-width="8" stroke-linecap="round" stroke-linejoin="round" /><polyline points="867.30,-215.34 868.88,-213.26 875.48,-203.42 887.69,-185.24 899.17,-173.73 921.25,-148.94 917.52,-126.04 915.63,-117.45 912.99,-113.81 918.53,-105.62 927.09,-88.00 944.21,-54.98 952.64,-38.72 957.88,-24.11 960.25,-17.32" fill="none" stroke="#bcbcbc" stroke-width="8" stroke-linecap="round" stroke-linejoin="round" /><polyline points="982.59,-168.16 976.25,-166.18 934.44,-153.18 928.45,-151.25 921.25,-148.94" fill="none" stroke="#bcbcbc" stroke-width="8" stroke-linecap="round" stroke-linejoin="round" /><polyline points="682.19,-88.98 695.26,-93.21 790.15,-141.66 802.85,-147.87 847.57,-160.78 890.93,-172.97 899.17,-173.73" fill="none" stroke="#bcbcbc" stroke-width="8" stroke-linecap="round" stroke-linejoin="round" /><polyline points="692.53,-29.00 801.92,-79.90 806.52,-82.95 817.22,-86.06 890.11,-107.27 901.17,-111.50 912.99,-113.81" fill="none" stroke="#bcbcbc" stroke-width="8" stroke-linecap="round" stroke-linejoin="round" /><polyline points="670.20,-1096.14 714.49,-1090.67 718.93,-1090.12 736.10,-1085.91" fill="none" stroke="#bcbcbc" stroke-width="8" stroke-linecap="round" stroke-linejoin="round" /><polyline points="1048.62,-645.97 1056.47,-647.61 1085.82,-633.23 1089.68,-629.40 1144.76,-536.17 1146.21,-524.87 1153.38,-518.90 1152.24,-514.78 1152.06,-508.06 1153.06,-498.66 1167.64,-438.71 1168.93,-397.19 1170.98,-330.89 1174.41,-241.65 1160.44,-202.76 1151.44,-179.06 1138.30,-145.65 1134.50,-135.99 1132.03,-133.29 1128.06,-107.44" fill="none" stroke="#bcbcbc" stroke-width="8" stroke-linecap="round" stroke-linejoin="round" /><polyline points="1150.46,50.05 1137.06,44.22 1103.58,20.86 1059.42,-10.17 1035.13,-29.82 1018.74,-47.36" fill="none" stroke="#bcbcbc" stroke-width="8" stroke-linecap="round" stroke-linejoin="round" /><polyline points="608.46,572.53 595.30,568.36 573.95,561.60 563.76,558.37 551.80,554.57 536.68,549.78 523.00,545.44 509.49,541.16 449.23,522.04 438.68,518.69 425.57,514.54 422.67,513.62 388.21,504.52 378.48,502.16 366.28,499.21 353.51,496.11 307.51,484.96 295.17,481.97 281.92,477.37 254.22,467.75 243.78,464.12 234.44,461.09 191.07,445.67 185.61,442.42 182.99,436.76" fill="none" stroke="#bcbcbc" stroke-width="8" stroke-linecap="round" stroke-linejoin="round" /><polyline points="806.52,-82.95 803.33,-94.40 793.81,-128.53 790.15,-141.66 784.86,-151.47 784.36,-153.29 781.24,-164.85 784.88,-169.97 780.51,-184.54 779.16,-189.06" fill="none" stroke="#bcbcbc" stroke-width="8" stroke-linecap="round" stroke-linejoin="round" /><polyline points="790.60,-500.68 799.66,-504.94 849.11,-532.21 877.38,-550.39 897.31,-563.99 901.72,-567.27 917.76,-578.42 934.39,-590.70 944.92,-598.36 957.48,-607.54 1001.10,-627.23 1006.76,-626.93 1015.03,-630.84 1048.62,-645.97" fill="none" stroke="#bcbcbc" stroke-width="8" stroke-linecap="round" stroke-linejoin="round" /><polyline points="242.46,-314.83 249.59,-311.93 254.31,-310.49 342.75,-283.32 356.25,-279.17" fill="none" stroke="#bcbcbc" stroke-width="8" stroke-linecap="round" stroke-linejoin="round" /><polyline points="-389.24,-115.96 -452.42,-135.08" fill="none" stroke="#bcbcbc" stroke-width="8" stroke-linecap="round" stroke-linejoin="round" /><polyline points="631.37,-1006.91 647.04,-987.06 649.37,-984.10 657.28,-974.08 666.29,-973.03 684.82,-970.85 688.11,-968.58" fill="none" stroke="#bcbcbc" stroke-width="8" stroke-linecap="round" stroke-linejoin="round" /><polyline points="1175.36,-124.29 1150.54,-119.65 1125.09,-105.82 1101.49,-92.69 1079.18,-81.53 1052.21,-66.89 1032.69,-55.03 994.10,-34.35 843.46,41.43 804.41,58.63 778.61,69.79 765.82,73.97 755.25,75.95 737.93,77.00 713.29,73.51 651.80,58.75 564.52,38.41 449.68,3.77 407.38,-10.17 338.10,-31.56 271.85,-53.41 174.69,-91.53 126.10,-112.45 67.52,-138.48 -29.64,-191.71 -52.42,-206.82 -110.07,-243.08 -134.25,-267.25 -170.51,-314.21 -230.25,-375.80 -253.73,-396.49" fill="none" stroke="#bcbcbc" stroke-width="8" stroke-linecap="round" stroke-linejoin="round" /><polyline points="704.36,602.85 705.38,597.17 709.05,587.90 743.51,507.28 756.53,477.06 771.87,439.40 775.61,425.61" fill="none" stroke="#bcbcbc" stroke-width="8" stroke-linecap="round" stroke-linejoin="round" /><polyline points="43.33,262.47 4.19,243.52 -84.87,200.42 -194.12,147.55 -203.87,142.83" fill="none" stroke="#bcbcbc" stroke-width="8" stroke-linecap="round" stroke-linejoin="round" /><polyline points="686.62,-361.44 696.50,-371.56 722.78,-398.46 743.63,-421.23" fill="none" stroke="#bcbcbc" stroke-width="8" stroke-linecap="round" stroke-linejoin="round" /><polyline points="-72.21,-301.51 -83.07,-315.89 -133.95,-383.25 -206.58,-442.02" fill="none" stroke="#bcbcbc" stroke-width="8" stroke-linecap="round" stroke-linejoin="round" /><polyline points="-387.41,585.25 -377.47,561.70 -345.89,482.97 -342.07,472.64 -337.82,461.18 -336.21,457.04 -335.78,450.56 -331.74,389.36 -330.58,371.80" fill="none" stroke="#bcbcbc" stroke-width="8" stroke-linecap="round" stroke-linejoin="round" /><polyline points="-408.95,-47.59 -389.24,-115.96 -363.23,-206.14 -360.01,-217.31 -356.43,-229.99 -348.41,-258.38 -347.57,-261.36 -345.27,-270.49 -341.61,-280.81 -340.73,-283.31 -336.10,-294.77 -327.03,-314.79 -324.31,-320.54" fill="none" stroke="#bcbcbc" stroke-width="8" stroke-linecap="round" stroke-linejoin="round" /><polyline points="-360.01,-217.31 -320.12,-207.10 -235.62,-185.39 -187.48,-170.40 -167.39,-165.69" fill="none" stroke="#bcbcbc" stroke-width="8" stroke-linecap="round" stroke-linejoin="round" /><polyline points="461.11,-527.54 462.47,-535.84 463.83,-544.46 469.68,-573.29 484.31,-640.39 496.31,-700.42 498.51,-712.87 501.49,-729.78 501.49,-729.80" fill="none" stroke="#bcbcbc" stroke-width="8" stroke-linecap="round" stroke-linejoin="round" /><polyline points="343.00,764.64 360.82,719.21 363.03,711.05 433.71,531.63 438.68,518.69 442.69,507.71 484.93,384.84 493.06,377.74" fill="none" stroke="#bcbcbc" stroke-width="8" stroke-linecap="round" stroke-linejoin="round" /><polyline points="585.29,-562.27 585.29,-562.29 582.78,-575.43 582.39,-577.02 576.29,-601.85 576.29,-601.93 572.13,-618.77 554.49,-679.21 552.26,-685.69 540.35,-718.07 536.48,-727.73 533.98,-733.97 530.74,-741.05 530.74,-741.06 530.74,-741.09 528.37,-767.13 528.15,-779.91" fill="none" stroke="#bcbcbc" stroke-width="8" stroke-linecap="round" stroke-linejoin="round" /><polyline points="558.85,463.27 554.32,468.17 547.56,476.21 528.52,529.90 523.00,545.44" fill="none" stroke="#bcbcbc" stroke-width="8" stroke-linecap="round" stroke-linejoin="round" /><polyline points="242.46,-314.83 245.06,-321.88 245.65,-323.51 258.01,-358.05 262.65,-372.60 300.55,-484.04" fill="none" stroke="#bcbcbc" stroke-width="8" stroke-linecap="round" stroke-linejoin="round" /><polyline points="438.52,-158.60 442.38,-168.87 452.86,-196.69 457.28,-208.45 460.28,-216.41 468.69,-238.73 474.24,-253.48 474.99,-255.46 488.44,-291.18 494.06,-289.44 497.11,-297.74 502.49,-312.41 501.46,-319.07 515.77,-358.02 517.24,-362.02 519.95,-364.52 522.23,-366.61 536.58,-405.83 538.66,-416.57 559.24,-473.77 564.11,-477.57 574.02,-505.59 572.26,-509.89 580.93,-536.06 576.43,-559.42" fill="none" stroke="#bcbcbc" stroke-width="8" stroke-linecap="round" stroke-linejoin="round" /><polyline points="806.77,-1222.47 801.00,-1231.93 770.69,-1281.66" fill="none" stroke="#bcbcbc" stroke-width="8" stroke-linecap="round" stroke-linejoin="round" /><polyline points="901.72,-567.27 1040.82,-477.82 1040.86,-477.76 1040.86,-477.75 1066.59,-474.41" fill="none" stroke="#bcbcbc" stroke-width="8" stroke-linecap="round" stroke-linejoin="round" /><polyline points="845.93,-754.11 993.94,-679.83 998.40,-676.50 998.10,-652.18 1001.10,-627.23" fill="none" stroke="#bcbcbc" stroke-width="8" stroke-linecap="round" stroke-linejoin="round" /><polyline points="563.76,558.37 558.44,574.60 536.87,640.37 500.19,751.12 497.59,758.98 494.96,766.94 494.22,775.42" fill="none" stroke="#bcbcbc" stroke-width="8" stroke-linecap="round" stroke-linejoin="round" /><polyline points="980.41,158.87 981.30,150.62 981.49,142.92 981.42,142.65 976.18,119.98 974.03,110.51 972.99,105.94 971.93,101.27 966.17,75.91 954.93,25.23 946.76,-5.24 945.60,-9.95" fill="none" stroke="#bcbcbc" stroke-width="8" stroke-linecap="round" stroke-linejoin="round" /><polyline points="245.61,622.81 249.28,612.39 290.50,495.26 295.17,481.97" fill="none" stroke="#bcbcbc" stroke-width="8" stroke-linecap="round" stroke-linejoin="round" /><polyline points="1170.98,-330.89 1158.85,-334.31 1076.51,-460.65 1066.59,-474.41" fill="none" stroke="#bcbcbc" stroke-width="8" stroke-linecap="round" stroke-linejoin="round" /><polyline points="-182.67,-27.73 117.44,44.16 138.13,51.72" fill="none" stroke="#bcbcbc" stroke-width="8" stroke-linecap="round" stroke-linejoin="round" /><polyline points="763.87,-1151.07 880.76,-1107.77 897.22,-1110.58" fill="none" stroke="#bcbcbc" stroke-width="8" stroke-linecap="round" stroke-linejoin="round" />
    <polyline points="167.20,167.20 172.72,179.08 204.25,243.98 251.14,340.49 257.12,352.80" fill="none" stroke="#ffffff" stroke-width="16" stroke-linecap="round" stroke-linejoin="round" />
    <polyline points="167.20,167.20 172.72,179.08 204.25,243.98 251.14,340.49 257.12,352.80" fill="none" stroke="#111111" stroke-width="9" stroke-linecap="round" stroke-linejoin="round" />
    
            <g transform="translate(167.20,167.20)">
              <circle r="19" fill="#ffffff" stroke="#111111" stroke-width="4" />
              <text text-anchor="middle" dominant-baseline="central" font-family="Helvetica, Arial, sans-serif"
                font-size="18" font-weight="700" fill="#111111">1</text>
            </g>
            
            <g transform="translate(257.12,352.80)">
              <circle r="19" fill="#ffffff" stroke="#111111" stroke-width="4" />
              <text text-anchor="middle" dominant-baseline="central" font-family="Helvetica, Arial, sans-serif"
                font-size="18" font-weight="700" fill="#111111">2</text>
            </g>
            
  </g>
</svg>
