<svg xmlns="http://www.w3.org/2000/svg" width="520" height="520" viewBox="0 0 520 520">
  <rect width="100%" height="100%" fill="#ffffff" />
  <g>
    <polyline points="1763.58,-997.83 1766.78,-980.81 1787.42,-836.40 1784.27,-800.30" fill="none" stroke="#bcbcbc" stroke-width="8" stroke-linecap="round" stroke-linejoin="round" /><polyline points="1343.95,205.59 1348.94,190.25 1375.39,108.92 1378.51,99.34 1381.66,89.28 1448.16,-122.76 1453.51,-139.81 1441.26,-169.98" fill="none" stroke="#bcbcbc" stroke-width="8" stroke-linecap="round" stroke-linejoin="round" /><polyline points="884.61,17.00 883.53,4.82 905.27,-116.94 908.32,-132.17 910.60,-140.14 916.58,-171.02 923.31,-208.81 930.64,-242.10 937.90,-275.30 942.48,-284.67 945.47,-290.41" fill="none" stroke="#bcbcbc" stroke-width="8" stroke-linecap="round" stroke-linejoin="round" /><polyline points="1010.80,-841.85 1005.63,-857.60 952.21,-1020.54 949.60,-1027.37" fill="none" stroke="#bcbcbc" stroke-width="8" stroke-linecap="round" stroke-linejoin="round" /><polyline points="736.66,592.13 738.25,576.58 738.90,569.45 744.71,505.12 751.08,448.47 752.57,435.25 753.95,419.38 754.10,418.04 757.71,386.50 760.82,354.43 764.25,323.48 766.56,299.39 767.53,284.52 768.38,270.79 769.89,255.32" fill="none" stroke="#bcbcbc" stroke-width="8" stroke-linecap="round" stroke-linejoin="round" /><polyline points="1474.89,243.40 1478.70,231.44 1505.51,147.16 1508.55,137.59 1512.88,123.95 1515.98,114.17 1539.71,11.84" fill="none" stroke="#bcbcbc" stroke-width="8" stroke-linecap="round" stroke-linejoin="round" /><polyline points="1370.68,-1423.50 1380.58,-1421.98 1653.40,-1380.06" fill="none" stroke="#bcbcbc" stroke-width="8" stroke-linecap="round" stroke-linejoin="round" /><polyline points="670.29,223.54 641.89,222.22 624.57,221.41 615.17,220.98 606.91,220.59 542.61,217.60 453.17,213.44 410.54,207.40 396.27,205.37 383.89,203.19 300.04,188.39 288.32,186.32 285.72,185.88 271.25,183.40 260.12,181.49 189.07,175.21 175.54,174.02 170.57,173.58 155.21,172.51 125.14,170.43" fill="none" stroke="#bcbcbc" stroke-width="8" stroke-linecap="round" stroke-linejoin="round" /><polyline points="1082.84,141.16 1088.34,125.51 1137.91,-11.87 1197.53,-185.16 1201.35,-196.02 1204.01,-203.62 1206.17,-209.85" fill="none" stroke="#bcbcbc" stroke-width="8" stroke-linecap="round" stroke-linejoin="round" /><polyline points="170.57,173.58 169.31,164.74 169.01,155.15 170.89,135.83 175.21,100.55 178.09,88.71 182.76,45.91 183.61,36.37 184.98,24.11 185.99,15.01 187.91,4.69 191.46,-23.07 193.92,-44.31 197.54,-53.00" fill="none" stroke="#bcbcbc" stroke-width="8" stroke-linecap="round" stroke-linejoin="round" /><polyline points="119.84,-63.86 185.96,-54.62 197.54,-53.00 204.72,-51.86 234.36,-47.14 302.64,-36.26 314.35,-34.31" fill="none" stroke="#bcbcbc" stroke-width="8" stroke-linecap="round" stroke-linejoin="round" /><polyline points="1336.53,-931.04 1336.96,-925.03 1337.85,-918.95 1340.00,-914.29 1344.02,-909.09 1351.45,-902.32 1369.07,-891.61 1505.00,-806.34 1588.72,-694.11 1651.95,-538.07 1656.07,-527.76" fill="none" stroke="#bcbcbc" stroke-width="8" stroke-linecap="round" stroke-linejoin="round" /><polyline points="1314.77,-475.75 1317.58,-471.08 1318.32,-469.87 1320.65,-458.10 1336.60,-380.99 1341.66,-356.52 1345.28,-339.09 1350.93,-303.76 1353.56,-287.46 1355.38,-277.52 1357.37,-268.54 1359.75,-263.30 1363.24,-257.24 1365.11,-254.38 1400.43,-203.82 1419.53,-173.74 1424.52,-166.55" fill="none" stroke="#bcbcbc" stroke-width="8" stroke-linecap="round" stroke-linejoin="round" /><polyline points="300.85,489.76 302.73,478.19 304.47,469.82 304.94,468.71 328.45,412.82 343.43,376.50 347.98,364.99 352.80,352.80 358.04,342.32 358.88,340.27 366.05,322.95 371.59,307.62 376.35,293.56 379.36,283.62 382.75,271.34 386.64,254.87 389.61,241.51 393.14,222.87 393.89,218.71 396.27,205.37" fill="none" stroke="#bcbcbc" stroke-width="8" stroke-linecap="round" stroke-linejoin="round" /><polyline points="1439.78,-1070.99 1514.74,-1018.62 1524.84,-1016.48 1532.23,-1008.02" fill="none" stroke="#bcbcbc" stroke-width="8" stroke-linecap="round" stroke-linejoin="round" /><polyline points="1125.04,-587.33 1134.95,-583.52 1177.96,-569.45 1277.72,-531.20 1283.32,-525.62 1285.95,-521.45" fill="none" stroke="#bcbcbc" stroke-width="8" stroke-linecap="round" stroke-linejoin="round" /><polyline points="1310.95,395.68 1317.74,377.97 1351.28,286.99 1374.99,218.25 1379.91,215.99" fill="none" stroke="#bcbcbc" stroke-width="8" stroke-linecap="round" stroke-linejoin="round" /><polyline points="836.87,280.31 842.16,268.61 842.68,267.46 851.74,237.09 866.57,187.10 870.37,174.30 873.32,164.37 873.72,158.58 873.11,145.76" fill="none" stroke="#bcbcbc" stroke-width="8" stroke-linecap="round" stroke-linejoin="round" /><polyline points="1453.31,-471.75 1444.81,-470.00 1425.54,-473.43 1422.56,-481.37 1389.17,-494.10 1381.28,-492.04 1351.15,-503.09 1346.66,-499.96" fill="none" stroke="#bcbcbc" stroke-width="8" stroke-linecap="round" stroke-linejoin="round" /><polyline points="1403.74,-1504.36 1418.87,-1500.66 1427.24,-1499.20 1626.26,-1464.70" fill="none" stroke="#bcbcbc" stroke-width="8" stroke-linecap="round" stroke-linejoin="round" /><polyline points="1249.06,340.27 1257.34,316.93 1273.43,271.58 1283.82,252.26 1298.78,210.38 1304.76,193.66" fill="none" stroke="#bcbcbc" stroke-width="8" stroke-linecap="round" stroke-linejoin="round" /><polyline points="158.62,-565.51 144.20,-566.17 140.59,-561.78 115.48,-531.27 27.69,-429.88 15.35,-415.63" fill="none" stroke="#bcbcbc" stroke-width="8" stroke-linecap="round" stroke-linejoin="round" /><polyline points="928.59,-478.67 922.23,-464.59 921.46,-462.88 899.35,-405.24 877.07,-341.79 871.13,-324.86 867.76,-316.13" fill="none" stroke="#bcbcbc" stroke-width="8" stroke-linecap="round" stroke-linejoin="round" /><polyline points="1252.88,-1126.36 1259.90,-1116.83 1264.92,-1103.73 1272.72,-1084.93 1285.24,-1055.35 1296.33,-1028.80 1309.07,-999.65 1318.51,-977.18 1319.91,-973.95 1320.00,-973.76 1327.60,-955.99 1329.87,-950.94 1332.03,-946.13 1334.31,-941.62 1336.03,-937.04 1336.53,-931.04" fill="none" stroke="#bcbcbc" stroke-width="8" stroke-linecap="round" stroke-linejoin="round" /><polyline points="715.22,-194.52 718.89,-196.53 724.04,-200.62 726.61,-205.92 760.77,-335.42 761.80,-342.72 765.96,-356.06" fill="none" stroke="#bcbcbc" stroke-width="8" stroke-linecap="round" stroke-linejoin="round" /><polyline points="1909.51,-397.17 1914.36,-381.79 1917.77,-365.64 1911.13,-304.09 1903.46,-257.79 1899.27,-242.00 1898.89,-240.57 1895.22,-232.05 1890.21,-223.01 1878.53,-208.23 1884.19,-179.34 1865.88,-117.32 1855.77,-83.07 1835.10,-27.00 1804.82,41.26 1767.84,106.68 1756.30,127.94 1735.42,162.87 1652.02,281.23 1633.74,305.85 1562.98,398.32 1522.35,444.54 1465.52,502.29 1460.26,502.83 1447.43,513.32" fill="none" stroke="#bcbcbc" stroke-width="8" stroke-linecap="round" stroke-linejoin="round" /><polyline points="880.36,615.30 903.64,543.10 907.45,531.18 912.62,523.67 923.74,490.30 927.36,478.97 973.29,335.17 977.91,320.71 981.72,308.00 1035.93,137.42" fill="none" stroke="#bcbcbc" stroke-width="8" stroke-linecap="round" stroke-linejoin="round" /><polyline points="1425.78,-727.44 1445.90,-749.43 1451.84,-756.58 1492.51,-814.18" fill="none" stroke="#bcbcbc" stroke-width="8" stroke-linecap="round" stroke-linejoin="round" /><polyline points="1023.49,-718.73 1078.92,-699.43 1081.98,-694.46 1097.72,-689.18 1107.06,-685.99 1151.73,-670.90" fill="none" stroke="#bcbcbc" stroke-width="8" stroke-linecap="round" stroke-linejoin="round" /><polyline points="1506.59,-1102.24 1532.23,-1008.02 1561.91,-897.03 1566.41,-887.78 1567.12,-877.22 1587.24,-839.65 1641.56,-738.38 1653.43,-720.86 1656.87,-715.74 1738.01,-564.05 1775.30,-530.15 1780.54,-523.39 1787.91,-517.09 1858.72,-456.55 1863.52,-452.44 1876.24,-445.69" fill="none" stroke="#bcbcbc" stroke-width="8" stroke-linecap="round" stroke-linejoin="round" /><polyline points="1231.21,630.63 1407.80,528.06 1439.23,511.99 1447.43,513.32" fill="none" stroke="#bcbcbc" stroke-width="8" stroke-linecap="round" stroke-linejoin="round" /><polyline points="1422.67,483.90 1433.63,470.88 1531.99,274.63 1538.51,261.76 1543.95,249.02 1575.72,170.46 1585.18,146.79 1612.57,63.92 1630.33,-42.62 1632.43,-58.13" fill="none" stroke="#bcbcbc" stroke-width="8" stroke-linecap="round" stroke-linejoin="round" /><polyline points="1346.76,-670.23 1345.04,-668.46 1342.67,-660.21 1342.43,-659.38 1331.76,-618.28 1334.56,-607.55 1332.23,-597.94 1329.18,-585.34 1321.37,-576.30 1312.51,-540.39 1302.06,-532.50 1290.92,-524.86 1285.95,-521.45" fill="none" stroke="#bcbcbc" stroke-width="8" stroke-linecap="round" stroke-linejoin="round" /><polyline points="928.59,-478.67 933.13,-490.31 960.42,-560.26 966.37,-575.51 971.28,-588.07 1006.14,-677.40 1021.84,-714.74 1023.49,-718.73 1035.69,-748.22 1063.07,-816.18 1073.09,-845.12 1075.32,-851.75 1078.32,-859.27" fill="none" stroke="#bcbcbc" stroke-width="8" stroke-linecap="round" stroke-linejoin="round" /><polyline points="1233.95,-902.69 1239.23,-886.98 1412.41,-739.07 1506.92,-656.86 1648.06,-534.17 1660.38,-524.32 1665.90,-520.87 1690.40,-498.64 1723.10,-470.74 1797.30,-407.49 1821.26,-386.88 1837.16,-367.86" fill="none" stroke="#bcbcbc" stroke-width="8" stroke-linecap="round" stroke-linejoin="round" /><polyline points="1520.29,-1157.56 1529.08,-1163.19 1581.12,-1184.81 1591.81,-1196.06" fill="none" stroke="#bcbcbc" stroke-width="8" stroke-linecap="round" stroke-linejoin="round" /><polyline points="1580.40,158.76 1508.55,137.59 1378.51,99.34" fill="none" stroke="#bcbcbc" stroke-width="8" stroke-linecap="round" stroke-linejoin="round" /><polyline points="1348.48,-1369.27 1358.30,-1362.50 1678.08,-1291.36" fill="none" stroke="#bcbcbc" stroke-width="8" stroke-linecap="round" stroke-linejoin="round" /><polyline points="1743.49,-316.50 1726.96,-353.27 1690.29,-440.74 1687.55,-447.69 1681.28,-463.65 1657.64,-523.81 1656.15,-527.70" fill="none" stroke="#bcbcbc" stroke-width="8" stroke-linecap="round" stroke-linejoin="round" /><polyline points="1252.88,-1126.36 1235.12,-1131.41 1222.08,-1135.29 1195.56,-1143.17 1182.09,-1147.01 1174.37,-1149.15 1164.29,-1152.04" fill="none" stroke="#bcbcbc" stroke-width="8" stroke-linecap="round" stroke-linejoin="round" /><polyline points="789.97,-645.30 789.07,-648.23 788.24,-650.29 784.58,-659.38 770.41,-692.43 756.94,-725.99 754.03,-733.92 750.68,-743.05 748.28,-750.52 744.32,-761.71 743.90,-762.89 731.01,-794.65 707.35,-854.35 702.04,-857.38 698.26,-867.06 690.71,-893.28 677.78,-925.78 675.00,-933.16" fill="none" stroke="#bcbcbc" stroke-width="8" stroke-linecap="round" stroke-linejoin="round" /><polyline points="903.64,543.10 917.08,547.22 960.55,560.47 974.17,564.62" fill="none" stroke="#bcbcbc" stroke-width="8" stroke-linecap="round" stroke-linejoin="round" /><polyline points="1715.56,-1141.92 1718.09,-1152.16 1717.06,-1156.06 1715.82,-1160.75 1707.88,-1189.83 1690.18,-1251.30 1680.84,-1282.72 1678.08,-1291.36 1653.40,-1380.06 1640.08,-1427.91 1626.26,-1464.70 1613.77,-1497.89 1601.34,-1520.71 1589.26,-1532.77 1496.52,-1646.08 1489.66,-1654.14 1485.11,-1661.60" fill="none" stroke="#bcbcbc" stroke-width="8" stroke-linecap="round" stroke-linejoin="round" /><polyline points="1336.53,-931.04 1331.75,-929.21 1322.91,-926.77 1322.02,-926.53 1285.09,-917.08 1242.62,-905.13 1233.95,-902.69 1230.09,-901.46 1219.89,-898.18 1211.17,-895.76 1173.09,-885.16 1110.46,-867.37 1087.11,-861.47 1078.32,-859.27 1036.58,-849.02 1010.80,-841.85 956.20,-826.59 902.24,-811.39 895.99,-809.65 850.89,-797.14 830.09,-791.36 819.58,-786.40 799.69,-776.54 760.20,-756.50 757.45,-755.10 748.28,-750.52 742.68,-747.72 734.88,-743.62 707.13,-729.08 656.57,-700.71 614.34,-678.59 608.30,-675.43 600.23,-674.92 595.38,-672.35 594.41,-671.83 548.59,-646.73 539.00,-646.77 527.99,-641.01 524.14,-639.00 520.90,-637.30 513.24,-633.29 507.20,-619.53 481.27,-605.64 473.03,-601.23 464.10,-596.37 428.03,-576.74 409.38,-566.59 399.98,-563.88" fill="none" stroke="#bcbcbc" stroke-width="8" stroke-linecap="round" stroke-linejoin="round" /><polyline points="1855.77,-83.07 1836.52,-81.30 1776.38,-75.79 1773.67,-75.55 1769.84,-75.19 1763.63,-74.62 1705.32,-69.27 1685.04,-71.15 1661.42,-65.23 1642.51,-60.60 1632.43,-58.13 1607.40,-57.18 1585.73,-58.28 1574.68,-59.45 1565.28,-62.30 1558.36,-66.12 1532.57,-84.35 1469.92,-127.38 1464.02,-131.38 1458.01,-135.46 1453.51,-139.81" fill="none" stroke="#bcbcbc" stroke-width="8" stroke-linecap="round" stroke-linejoin="round" /><polyline points="436.86,-809.44 459.59,-764.94 463.03,-752.22 482.18,-715.69 490.09,-705.24 522.10,-642.97 524.14,-639.00" fill="none" stroke="#bcbcbc" stroke-width="8" stroke-linecap="round" stroke-linejoin="round" /><polyline points="1133.49,-413.71 1130.08,-404.36 1129.13,-401.45 1124.69,-387.99 1096.56,-309.53 1082.60,-270.57 1082.13,-269.24 1076.52,-257.13 1073.31,-249.94" fill="none" stroke="#bcbcbc" stroke-width="8" stroke-linecap="round" stroke-linejoin="round" /><polyline points="1506.59,-1102.24 1503.47,-1108.92 1495.28,-1109.99 1468.77,-1103.91 1463.38,-1104.61 1459.16,-1110.27 1451.66,-1144.76 1492.29,-1151.05 1511.10,-1156.60 1520.29,-1157.56 1530.20,-1122.34" fill="none" stroke="#bcbcbc" stroke-width="8" stroke-linecap="round" stroke-linejoin="round" /><polyline points="1653.43,-720.86 1663.89,-726.74 1716.46,-758.41 1730.50,-766.77 1755.10,-781.43 1795.55,-807.59 1804.99,-814.38 1875.95,-858.39" fill="none" stroke="#bcbcbc" stroke-width="8" stroke-linecap="round" stroke-linejoin="round" /><polyline points="1901.47,-512.97 1883.53,-518.31 1873.10,-526.86 1833.24,-561.35 1831.88,-562.56 1822.25,-571.16 1816.58,-581.20 1716.46,-758.41" fill="none" stroke="#bcbcbc" stroke-width="8" stroke-linecap="round" stroke-linejoin="round" /><polyline points="771.50,-527.01 928.59,-478.67 941.41,-474.61 1058.64,-437.45 1061.09,-436.68 1078.65,-431.11 1087.29,-428.37 1098.51,-425.30 1121.65,-417.47 1133.49,-413.71 1144.14,-410.33 1231.38,-382.66 1323.48,-353.73 1331.10,-351.34 1341.66,-356.52" fill="none" stroke="#bcbcbc" stroke-width="8" stroke-linecap="round" stroke-linejoin="round" /><polyline points="1233.41,-1302.51 1301.46,-1365.03 1312.98,-1375.61" fill="none" stroke="#bcbcbc" stroke-width="8" stroke-linecap="round" stroke-linejoin="round" /><polyline points="93.89,-293.66 343.59,-266.90" fill="none" stroke="#bcbcbc" stroke-width="8" stroke-linecap="round" stroke-linejoin="round" /><polyline points="847.16,-990.54 899.64,-1009.31 953.78,-1028.88 987.41,-1041.95 1090.10,-1079.30 1119.91,-1089.61 1126.13,-1091.76 1133.60,-1094.33 1141.98,-1097.21 1143.01,-1097.56 1159.92,-1104.36 1167.28,-1107.32" fill="none" stroke="#bcbcbc" stroke-width="8" stroke-linecap="round" stroke-linejoin="round" /><polyline points="1199.65,279.32 1249.06,340.27 1279.31,370.72 1292.40,380.15 1310.95,395.68 1328.36,410.29 1343.32,424.89 1343.69,432.31" fill="none" stroke="#bcbcbc" stroke-width="8" stroke-linecap="round" stroke-linejoin="round" /><polyline points="1252.88,-1126.36 1272.24,-1174.89 1303.58,-1254.79 1348.48,-1369.27 1370.68,-1423.50 1403.74,-1504.36 1430.85,-1570.60 1435.71,-1579.39 1459.55,-1618.37 1461.09,-1620.89 1469.81,-1638.04 1485.11,-1661.60 1493.65,-1674.75 1505.74,-1693.35" fill="none" stroke="#bcbcbc" stroke-width="8" stroke-linecap="round" stroke-linejoin="round" /><polyline points="796.04,171.23 792.87,173.77 790.78,176.79 786.50,189.38 783.55,198.47 769.91,239.27 768.03,245.15 766.87,248.80 754.34,245.21 723.85,234.99 693.64,224.86 670.29,223.54" fill="none" stroke="#bcbcbc" stroke-width="8" stroke-linecap="round" stroke-linejoin="round" /><polyline points="198.95,455.08 248.74,326.51 254.28,312.52 259.25,299.03 265.25,282.74 272.62,257.12 280.29,225.27 283.44,202.46 285.72,185.88 288.95,173.64 300.66,81.71 314.35,-34.31 321.44,-89.62 329.34,-154.59 343.59,-266.90 345.85,-286.00 360.24,-403.46 360.25,-410.00 363.43,-444.85 372.62,-518.47 374.92,-531.30 377.32,-538.51 381.08,-546.44 384.73,-552.59 392.78,-561.32 399.99,-563.79" fill="none" stroke="#bcbcbc" stroke-width="8" stroke-linecap="round" stroke-linejoin="round" /><polyline points="1285.95,-521.45 1288.67,-517.13 1297.80,-502.88 1311.47,-480.97 1314.77,-475.75 1320.22,-479.89 1346.66,-499.96" fill="none" stroke="#bcbcbc" stroke-width="8" stroke-linecap="round" stroke-linejoin="round" /><polyline points="1303.58,-1254.79 1572.61,-1206.16 1600.87,-1191.29 1706.27,-1139.05 1715.56,-1141.92" fill="none" stroke="#bcbcbc" stroke-width="8" stroke-linecap="round" stroke-linejoin="round" /><polyline points="789.97,-645.30 785.20,-638.33 742.27,-617.39 710.75,-577.33 676.73,-556.27 653.47,-538.70 631.28,-520.60 619.90,-510.23 599.80,-484.74 577.32,-452.52 573.62,-446.55" fill="none" stroke="#bcbcbc" stroke-width="8" stroke-linecap="round" stroke-linejoin="round" /><polyline points="835.35,-616.56 833.49,-612.42 829.41,-606.47 821.72,-597.01 776.39,-539.75 752.40,-475.15 631.33,-520.65" fill="none" stroke="#bcbcbc" stroke-width="8" stroke-linecap="round" stroke-linejoin="round" /><polyline points="653.47,-538.70 648.78,-552.89 628.52,-614.23 620.66,-626.35 607.49,-665.84 606.36,-669.25 608.30,-675.43 605.14,-685.49 541.84,-887.60" fill="none" stroke="#bcbcbc" stroke-width="8" stroke-linecap="round" stroke-linejoin="round" /><polyline points="1395.25,-1641.47 1445.28,-1640.15 1447.61,-1640.09 1457.20,-1639.81 1469.81,-1638.04" fill="none" stroke="#bcbcbc" stroke-width="8" stroke-linecap="round" stroke-linejoin="round" /><polyline points="1137.91,-11.87 1120.82,-12.08 976.17,7.34 965.75,8.43 953.83,9.69 884.61,17.00 791.35,26.84 741.91,32.06 714.56,34.94 692.36,37.64 680.96,39.03 668.11,40.59 606.07,48.13 591.20,49.93 545.38,54.94 300.66,81.71" fill="none" stroke="#bcbcbc" stroke-width="8" stroke-linecap="round" stroke-linejoin="round" /><polyline points="923.74,490.30 910.93,486.18 851.08,466.92 838.98,463.02 828.47,459.64 765.07,439.27 752.57,435.25 736.03,429.93 635.09,397.45 623.73,393.79" fill="none" stroke="#bcbcbc" stroke-width="8" stroke-linecap="round" stroke-linejoin="round" /><polyline points="1174.01,-721.34 1208.82,-710.49 1336.13,-671.19 1337.32,-670.82 1346.76,-670.23" fill="none" stroke="#bcbcbc" stroke-width="8" stroke-linecap="round" stroke-linejoin="round" /><polyline points="1532.23,-1008.02 1705.41,-1004.98" fill="none" stroke="#bcbcbc" stroke-width="8" stroke-linecap="round" stroke-linejoin="round" /><polyline points="1447.43,513.32 1422.67,483.90 1412.29,471.82 1403.36,463.48 1391.48,454.61 1367.19,440.04 1343.69,432.31 1295.87,417.54 1256.76,405.13 1279.31,370.72" fill="none" stroke="#bcbcbc" stroke-width="8" stroke-linecap="round" stroke-linejoin="round" /><polyline points="1199.65,279.32 1165.18,236.78 1158.62,228.68 1123.90,180.85 1116.04,166.25 1117.93,148.86 1128.39,148.76 1154.22,153.73 1193.51,161.29" fill="none" stroke="#bcbcbc" stroke-width="8" stroke-linecap="round" stroke-linejoin="round" /><polyline points="748.69,-61.56 755.05,-47.89 791.35,26.84 845.34,137.96 852.22,152.13" fill="none" stroke="#bcbcbc" stroke-width="8" stroke-linecap="round" stroke-linejoin="round" /><polyline points="778.57,-172.36 905.27,-116.94" fill="none" stroke="#bcbcbc" stroke-width="8" stroke-linecap="round" stroke-linejoin="round" /><polyline points="1346.76,-670.23 1366.06,-669.21 1367.29,-668.12 1375.95,-660.44 1388.68,-649.08 1391.03,-644.51 1434.89,-606.10 1438.14,-599.97 1468.98,-572.75 1476.75,-570.38 1500.74,-549.37 1506.12,-546.92 1542.30,-516.22 1550.36,-509.08 1554.80,-502.01" fill="none" stroke="#bcbcbc" stroke-width="8" stroke-linecap="round" stroke-linejoin="round" /><polyline points="131.44,-172.24 329.34,-154.59" fill="none" stroke="#bcbcbc" stroke-width="8" stroke-linecap="round" stroke-linejoin="round" /><polyline points="573.31,564.61 579.45,551.55 581.02,545.75 589.62,514.06 620.75,404.30 623.73,393.79 626.88,382.27 640.98,330.70 664.80,243.61 670.29,223.54" fill="none" stroke="#bcbcbc" stroke-width="8" stroke-linecap="round" stroke-linejoin="round" /><polyline points="748.69,-61.56 778.57,-172.36 715.22,-194.52 698.63,-184.73 691.07,-178.98 685.47,-171.41 681.53,-161.41 666.96,-107.56 678.71,-101.58 690.59,-98.70 716.85,-91.86 736.50,-85.61 748.69,-61.56" fill="none" stroke="#bcbcbc" stroke-width="8" stroke-linecap="round" stroke-linejoin="round" /><polyline points="666.96,-107.56 653.09,-109.50 329.34,-154.59" fill="none" stroke="#bcbcbc" stroke-width="8" stroke-linecap="round" stroke-linejoin="round" /><polyline points="1193.51,161.29 1223.54,167.85 1304.75,193.66 1327.46,200.84 1381.36,216.40 1435.66,232.06 1475.85,243.67 1540.14,262.23 1553.42,266.07 1585.86,276.95 1639.28,291.17 1643.98,292.05" fill="none" stroke="#bcbcbc" stroke-width="8" stroke-linecap="round" stroke-linejoin="round" /><polyline points="1231.61,630.40 1220.65,633.15 1208.80,666.16 1190.43,660.95 1106.90,632.48 1096.85,630.34 1074.48,628.74 973.33,629.14 951.03,626.30 900.67,618.60 880.36,615.31 736.29,592.07 680.50,583.17 574.10,564.74 556.93,561.34 316.81,494.23 301.66,489.99 198.95,455.08 173.68,446.12 110.55,419.96 74.58,406.36" fill="none" stroke="#bcbcbc" stroke-width="8" stroke-linecap="round" stroke-linejoin="round" /><polyline points="1451.66,-1144.76 1441.27,-1146.90 1302.49,-1130.50 1252.88,-1126.36" fill="none" stroke="#bcbcbc" stroke-width="8" stroke-linecap="round" stroke-linejoin="round" /><polyline points="1193.52,161.29 1198.38,153.15 1227.50,78.37 1260.04,-34.71 1268.34,-59.07 1272.78,-65.70 1304.19,-166.52 1305.75,-178.57 1306.94,-186.43" fill="none" stroke="#bcbcbc" stroke-width="8" stroke-linecap="round" stroke-linejoin="round" /><polyline points="1336.53,-931.04 1339.85,-932.31 1344.34,-935.88 1351.17,-943.86 1439.78,-1070.99 1463.38,-1104.61" fill="none" stroke="#bcbcbc" stroke-width="8" stroke-linecap="round" stroke-linejoin="round" /><polyline points="1730.91,-464.04 1732.73,-469.26 1777.27,-521.65 1780.54,-523.39 1788.27,-533.98 1814.19,-563.74 1822.25,-571.16" fill="none" stroke="#bcbcbc" stroke-width="8" stroke-linecap="round" stroke-linejoin="round" /><polyline points="1769.84,-75.19 1769.22,-82.20 1768.74,-87.63 1766.40,-98.00 1763.59,-104.77 1760.09,-122.53 1759.77,-128.97 1757.40,-143.36 1746.80,-148.89 1738.33,-145.65 1723.16,-142.02 1711.16,-140.15 1699.64,-137.37 1683.75,-133.75 1676.50,-132.09" fill="none" stroke="#bcbcbc" stroke-width="8" stroke-linecap="round" stroke-linejoin="round" /><polyline points="599.59,-332.52 631.99,-408.45 633.79,-413.38" fill="none" stroke="#bcbcbc" stroke-width="8" stroke-linecap="round" stroke-linejoin="round" /><polyline points="1453.31,-471.75 1468.93,-477.80 1477.09,-480.96 1483.40,-487.35 1509.43,-493.77 1518.17,-491.54 1537.01,-496.40 1551.38,-500.10 1554.80,-502.01 1568.74,-505.42 1640.00,-522.88 1656.15,-527.70" fill="none" stroke="#bcbcbc" stroke-width="8" stroke-linecap="round" stroke-linejoin="round" /><polyline points="796.04,171.23 829.66,159.03 840.90,155.59 852.22,152.13 873.11,145.76 889.36,143.42 944.87,137.35 956.02,136.74 1005.68,137.16 1035.93,137.42 1047.30,136.84 1065.53,138.68 1071.22,139.50 1082.84,141.16 1117.93,148.86" fill="none" stroke="#bcbcbc" stroke-width="8" stroke-linecap="round" stroke-linejoin="round" /><polyline points="956.20,-826.59 950.63,-845.42 929.95,-915.34 904.83,-995.08 899.64,-1009.31 894.37,-1022.65 887.71,-1041.87" fill="none" stroke="#bcbcbc" stroke-width="8" stroke-linecap="round" stroke-linejoin="round" /><polyline points="896.04,300.86 900.46,286.90 945.15,146.01 944.87,137.35" fill="none" stroke="#bcbcbc" stroke-width="8" stroke-linecap="round" stroke-linejoin="round" /><polyline points="956.02,136.74 964.86,18.11 965.75,8.43 967.10,-2.82 967.12,-3.33 967.71,-17.09 970.66,-54.43 972.32,-71.83 974.60,-91.58 976.68,-105.81 978.54,-114.74 980.88,-121.49 985.47,-136.70 994.96,-168.38 1007.03,-209.26 1020.34,-251.08 1023.06,-259.60 1025.24,-265.78" fill="none" stroke="#bcbcbc" stroke-width="8" stroke-linecap="round" stroke-linejoin="round" /><polyline points="666.96,-107.56 664.61,-97.05 665.01,-93.69 679.43,26.32 680.96,39.03 680.29,52.10 676.52,126.74 674.94,157.93 674.13,174.01 672.68,202.68 671.92,217.61 670.29,223.54" fill="none" stroke="#bcbcbc" stroke-width="8" stroke-linecap="round" stroke-linejoin="round" /><polyline points="599.59,-332.52 547.18,-348.10 540.52,-352.37 507.90,-361.87 498.73,-361.78 457.74,-374.12 451.12,-379.01 413.82,-390.31 368.06,-402.79 367.84,-402.81 360.24,-403.46" fill="none" stroke="#bcbcbc" stroke-width="8" stroke-linecap="round" stroke-linejoin="round" /><polyline points="1554.80,-502.01 1556.62,-499.62 1564.22,-488.29 1578.28,-467.35 1591.50,-454.10 1616.93,-425.56 1612.63,-399.19 1610.45,-389.30 1607.42,-385.11 1613.79,-375.68 1623.65,-355.39 1643.36,-317.37 1653.07,-298.65 1659.10,-281.83 1661.82,-274.01" fill="none" stroke="#bcbcbc" stroke-width="8" stroke-linecap="round" stroke-linejoin="round" /><polyline points="1687.55,-447.69 1680.25,-445.41 1632.11,-430.44 1625.21,-428.22 1616.93,-425.56" fill="none" stroke="#bcbcbc" stroke-width="8" stroke-linecap="round" stroke-linejoin="round" /><polyline points="1341.66,-356.52 1356.71,-361.40 1465.97,-417.18 1480.59,-424.32 1532.09,-439.19 1582.01,-453.23 1591.50,-454.10" fill="none" stroke="#bcbcbc" stroke-width="8" stroke-linecap="round" stroke-linejoin="round" /><polyline points="1353.56,-287.46 1479.52,-346.07 1484.82,-349.58 1497.14,-353.16 1581.07,-377.58 1593.80,-382.45 1607.42,-385.11" fill="none" stroke="#bcbcbc" stroke-width="8" stroke-linecap="round" stroke-linejoin="round" /><polyline points="1327.86,-1516.15 1378.85,-1509.85 1383.97,-1509.21 1403.74,-1504.36" fill="none" stroke="#bcbcbc" stroke-width="8" stroke-linecap="round" stroke-linejoin="round" /><polyline points="1763.58,-997.83 1772.62,-999.71 1806.41,-983.16 1810.86,-978.75 1874.28,-871.41 1875.95,-858.39 1884.20,-851.52 1882.89,-846.78 1882.68,-839.04 1883.83,-828.22 1900.62,-759.19 1902.11,-711.38 1904.46,-635.05 1908.41,-532.30 1892.33,-487.53 1881.97,-460.23 1866.84,-421.77 1862.46,-410.65 1859.61,-407.54 1855.04,-377.77" fill="none" stroke="#bcbcbc" stroke-width="8" stroke-linecap="round" stroke-linejoin="round" /><polyline points="1880.84,-196.45 1865.41,-203.16 1826.87,-230.06 1776.01,-265.78 1748.04,-288.40 1729.17,-308.61" fill="none" stroke="#bcbcbc" stroke-width="8" stroke-linecap="round" stroke-linejoin="round" /><polyline points="1256.76,405.13 1241.62,400.33 1217.03,392.54 1205.30,388.82 1191.52,384.45 1174.11,378.93 1158.37,373.94 1142.81,369.01 1073.43,346.99 1061.27,343.13 1046.18,338.36 1042.85,337.30 1003.17,326.82 991.96,324.11 977.91,320.71 963.21,317.14 910.25,304.30 896.04,300.86 880.78,295.56 848.89,284.48 836.87,280.31 826.12,276.82 776.18,259.07 769.89,255.32 766.87,248.80" fill="none" stroke="#bcbcbc" stroke-width="8" stroke-linecap="round" stroke-linejoin="round" /><polyline points="1484.82,-349.58 1481.15,-362.76 1470.18,-402.06 1465.97,-417.18 1459.87,-428.48 1459.31,-430.57 1455.72,-443.88 1459.90,-449.77 1454.87,-466.54 1453.31,-471.75" fill="none" stroke="#bcbcbc" stroke-width="8" stroke-linecap="round" stroke-linejoin="round" /><polyline points="1466.49,-830.55 1476.92,-835.46 1533.85,-866.84 1566.41,-887.78 1589.36,-903.44 1594.43,-907.21 1612.91,-920.05 1632.06,-934.19 1644.18,-943.02 1658.63,-953.58 1708.87,-976.25 1715.38,-975.90 1724.90,-980.41 1763.58,-997.83" fill="none" stroke="#bcbcbc" stroke-width="8" stroke-linecap="round" stroke-linejoin="round" /><polyline points="835.35,-616.56 843.56,-613.23 848.99,-611.56 950.82,-580.28 966.37,-575.51" fill="none" stroke="#bcbcbc" stroke-width="8" stroke-linecap="round" stroke-linejoin="round" /><polyline points="108.00,-387.59 35.25,-409.60" fill="none" stroke="#bcbcbc" stroke-width="8" stroke-linecap="round" stroke-linejoin="round" /><polyline points="1283.15,-1413.40 1301.18,-1390.56 1303.88,-1387.15 1312.98,-1375.61 1323.36,-1374.39 1344.69,-1371.89 1348.48,-1369.27" fill="none" stroke="#bcbcbc" stroke-width="8" stroke-linecap="round" stroke-linejoin="round" /><polyline points="1909.51,-397.17 1880.93,-391.84 1851.62,-375.92 1824.46,-360.80 1798.76,-347.95 1767.71,-331.09 1745.23,-317.44 1700.80,-293.62 1527.36,-206.37 1482.39,-186.57 1452.68,-173.72 1437.96,-168.90 1425.78,-166.63 1405.84,-165.42 1377.47,-169.43 1306.68,-186.43 1206.17,-209.85 1073.95,-249.73 1025.24,-265.78 945.47,-290.41 869.19,-315.56 757.31,-359.46 701.37,-383.54 633.92,-413.52 522.04,-474.81 495.81,-492.20 429.43,-533.95 401.60,-561.78 359.84,-615.84 291.05,-686.76 264.02,-710.58" fill="none" stroke="#bcbcbc" stroke-width="8" stroke-linecap="round" stroke-linejoin="round" /><polyline points="1367.19,440.04 1368.36,433.50 1372.59,422.82 1412.27,329.99 1427.25,295.20 1444.92,251.84 1449.22,235.97" fill="none" stroke="#bcbcbc" stroke-width="8" stroke-linecap="round" stroke-linejoin="round" /><polyline points="606.07,48.13 561.00,26.32 458.45,-23.31 332.66,-84.18 321.44,-89.62" fill="none" stroke="#bcbcbc" stroke-width="8" stroke-linecap="round" stroke-linejoin="round" /><polyline points="1346.76,-670.23 1358.14,-681.88 1388.40,-712.85 1412.41,-739.07" fill="none" stroke="#bcbcbc" stroke-width="8" stroke-linecap="round" stroke-linejoin="round" /><polyline points="473.03,-601.23 460.53,-617.78 401.94,-695.34 318.31,-763.00" fill="none" stroke="#bcbcbc" stroke-width="8" stroke-linecap="round" stroke-linejoin="round" /><polyline points="110.11,419.77 121.54,392.66 157.90,302.01 162.31,290.12 167.20,276.92 169.06,272.16 169.55,264.70 174.20,194.23 175.54,174.02" fill="none" stroke="#bcbcbc" stroke-width="8" stroke-linecap="round" stroke-linejoin="round" /><polyline points="85.30,-308.87 108.00,-387.59 137.95,-491.42 141.65,-504.27 145.78,-518.87 155.01,-551.57 155.98,-555.00 158.62,-565.51 162.83,-577.39 163.86,-580.27 169.18,-593.47 179.63,-616.52 182.75,-623.14" fill="none" stroke="#bcbcbc" stroke-width="8" stroke-linecap="round" stroke-linejoin="round" /><polyline points="141.65,-504.27 187.59,-492.53 284.88,-467.52 340.31,-450.26 363.43,-444.85" fill="none" stroke="#bcbcbc" stroke-width="8" stroke-linecap="round" stroke-linejoin="round" /><polyline points="1087.11,-861.47 1088.67,-871.03 1090.24,-880.95 1096.98,-914.14 1113.81,-991.41 1127.64,-1060.52 1130.17,-1074.86 1133.60,-1094.33 1133.61,-1094.34" fill="none" stroke="#bcbcbc" stroke-width="8" stroke-linecap="round" stroke-linejoin="round" /><polyline points="951.12,626.32 971.62,574.01 974.17,564.62 1055.56,358.04 1061.27,343.13 1065.90,330.49 1114.53,189.02 1123.90,180.85" fill="none" stroke="#bcbcbc" stroke-width="8" stroke-linecap="round" stroke-linejoin="round" /><polyline points="1230.09,-901.46 1230.09,-901.48 1227.20,-916.61 1226.75,-918.44 1219.72,-947.03 1219.73,-947.13 1214.93,-966.51 1194.62,-1036.10 1192.06,-1043.56 1178.35,-1080.84 1173.89,-1091.97 1171.02,-1099.15 1167.28,-1107.30 1167.28,-1107.32 1167.27,-1107.35 1164.55,-1137.33 1164.29,-1152.04" fill="none" stroke="#bcbcbc" stroke-width="8" stroke-linecap="round" stroke-linejoin="round" /><polyline points="1199.65,279.32 1194.43,284.97 1186.64,294.22 1164.72,356.04 1158.37,373.94" fill="none" stroke="#bcbcbc" stroke-width="8" stroke-linecap="round" stroke-linejoin="round" /><polyline points="835.35,-616.56 838.34,-624.67 839.02,-626.56 853.26,-666.33 858.60,-683.08 902.24,-811.39" fill="none" stroke="#bcbcbc" stroke-width="8" stroke-linecap="round" stroke-linejoin="round" /><polyline points="1061.09,-436.68 1065.54,-448.50 1077.60,-480.53 1082.70,-494.07 1086.15,-503.24 1095.83,-528.94 1102.22,-545.92 1103.08,-548.20 1118.57,-589.34 1125.04,-587.33 1128.55,-596.88 1134.76,-613.77 1133.57,-621.45 1150.04,-666.29 1151.74,-670.90 1154.86,-673.77 1157.48,-676.18 1174.01,-721.34 1176.40,-733.70 1200.10,-799.56 1205.71,-803.94 1217.11,-836.20 1215.08,-841.15 1225.07,-871.28 1219.89,-898.18" fill="none" stroke="#bcbcbc" stroke-width="8" stroke-linecap="round" stroke-linejoin="round" /><polyline points="1485.11,-1661.60 1478.47,-1672.49 1443.57,-1729.74" fill="none" stroke="#bcbcbc" stroke-width="8" stroke-linecap="round" stroke-linejoin="round" /><polyline points="1594.43,-907.21 1754.60,-804.23 1754.64,-804.16 1754.64,-804.14 1784.27,-800.30" fill="none" stroke="#bcbcbc" stroke-width="8" stroke-linecap="round" stroke-linejoin="round" /><polyline points="1530.20,-1122.34 1700.62,-1036.81 1705.76,-1032.98 1705.41,-1004.98 1708.87,-976.25" fill="none" stroke="#bcbcbc" stroke-width="8" stroke-linecap="round" stroke-linejoin="round" /><polyline points="1205.30,388.82 1199.17,407.52 1174.34,483.23 1132.11,610.75 1129.11,619.80 1126.08,628.97 1125.23,638.73" fill="none" stroke="#bcbcbc" stroke-width="8" stroke-linecap="round" stroke-linejoin="round" /><polyline points="1685.04,-71.15 1686.06,-80.65 1686.28,-89.52 1686.21,-89.82 1680.17,-115.92 1677.69,-126.83 1676.50,-132.09 1675.28,-137.47 1668.65,-166.67 1655.70,-225.02 1646.29,-260.11 1644.96,-265.53" fill="none" stroke="#bcbcbc" stroke-width="8" stroke-linecap="round" stroke-linejoin="round" /><polyline points="838.98,463.02 843.20,451.02 890.66,316.17 896.04,300.86" fill="none" stroke="#bcbcbc" stroke-width="8" stroke-linecap="round" stroke-linejoin="round" /><polyline points="1904.46,-635.05 1890.50,-638.99 1795.69,-784.46 1784.27,-800.30" fill="none" stroke="#bcbcbc" stroke-width="8" stroke-linecap="round" stroke-linejoin="round" /><polyline points="345.85,-286.00 691.39,-203.22 715.22,-194.52" fill="none" stroke="#bcbcbc" stroke-width="8" stroke-linecap="round" stroke-linejoin="round" /><polyline points="1435.71,-1579.39 1570.31,-1529.53 1589.26,-1532.77" fill="none" stroke="#bcbcbc" stroke-width="8" stroke-linecap="round" stroke-linejoin="round" />
    <polyline points="167.20,276.92 180.19,282.23 241.00,307.09 254.28,312.52 268.25,318.23 339.85,347.50 352.80,352.80" fill="none" stroke="#ffffff" stroke-width="16" stroke-linecap="round" stroke-linejoin="round" />
    <polyline points="167.20,276.92 180.19,282.23 241.00,307.09 254.28,312.52 268.25,318.23 339.85,347.50 352.80,352.80" fill="none" stroke="#111111" stroke-width="9" stroke-linecap="round" stroke-linejoin="round" />
    
            <g transform="translate(167.20,276.92)">
              <circle r="19" fill="#ffffff" stroke="#111111" stroke-width="4" />
              <text text-anchor="middle" dominant-baseline="central" font-family="Helvetica, Arial, sans-serif"
                font-size="18" font-weight="700" fill="#111111">1</text>
            </g>
            
            <g transform="translate(352.80,352.80)">
              <circle r="19" fill="#ffffff" stroke="#111111" stroke-width="4" />
              <text text-anchor="middle" dominant-baseline="central" font-family="Helvetica, Arial, sans-serif"
                font-size="18" font-weight="700" fill="#111111">2</text>
            </g>
            
  </g>
</svg>
