<svg xmlns="http://www.w3.org/2000/svg" width="520" height="520" viewBox="0 0 520 520">
  <rect width="100%" height="100%" fill="#ffffff" />
  <g>
    <polyline points="1610.07,-937.64 1614.76,-912.71 1645.00,-701.16 1640.38,-648.27" fill="none" stroke="#bcbcbc" stroke-width="8" stroke-linecap="round" stroke-linejoin="round" /><polyline points="995.39,825.28 1002.70,802.81 1041.44,683.67 1046.01,669.63 1050.63,654.89 1148.04,344.26 1155.87,319.28 1137.93,275.10" fill="none" stroke="#bcbcbc" stroke-width="8" stroke-linecap="round" stroke-linejoin="round" /><polyline points="322.53,549.00 320.95,531.16 352.80,352.80 357.27,330.49 360.60,318.81 369.37,273.57 379.22,218.21 389.95,169.45 400.60,120.80 407.30,107.09 411.69,98.68" fill="none" stroke="#bcbcbc" stroke-width="8" stroke-linecap="round" stroke-linejoin="round" /><polyline points="507.38,-709.14 499.81,-732.22 421.55,-970.91 417.73,-980.91" fill="none" stroke="#bcbcbc" stroke-width="8" stroke-linecap="round" stroke-linejoin="round" /><polyline points="105.80,1391.53 108.14,1368.76 109.08,1358.30 117.61,1264.07 126.93,1181.09 129.11,1161.71 131.13,1138.46 131.36,1136.51 136.65,1090.29 141.20,1043.32 146.23,997.98 149.61,962.69 151.02,940.91 152.27,920.79 154.49,898.13" fill="none" stroke="#bcbcbc" stroke-width="8" stroke-linecap="round" stroke-linejoin="round" /><polyline points="1187.19,880.66 1192.77,863.14 1232.04,739.69 1236.50,725.66 1242.84,705.68 1247.39,691.36 1282.15,541.45" fill="none" stroke="#bcbcbc" stroke-width="8" stroke-linecap="round" stroke-linejoin="round" /><polyline points="1034.54,-1561.22 1049.04,-1558.99 1448.68,-1497.59" fill="none" stroke="#bcbcbc" stroke-width="8" stroke-linecap="round" stroke-linejoin="round" /><polyline points="8.58,851.57 -33.02,849.64 -58.38,848.46 -72.16,847.82 -84.25,847.25 -178.44,842.87 -309.46,836.78 -371.91,827.93 -392.81,824.96 -410.94,821.76 -533.77,800.08 -550.94,797.05 -554.74,796.40 -575.95,792.77 -592.24,789.97 -696.32,780.77 -716.14,779.02 -723.41,778.38 -745.92,776.82 -789.97,773.77" fill="none" stroke="#bcbcbc" stroke-width="8" stroke-linecap="round" stroke-linejoin="round" /><polyline points="612.90,730.89 620.96,707.96 693.57,506.71 780.91,252.86 786.50,236.94 790.40,225.82 793.56,216.69" fill="none" stroke="#bcbcbc" stroke-width="8" stroke-linecap="round" stroke-linejoin="round" /><polyline points="-723.41,778.38 -725.27,765.44 -725.71,751.39 -722.95,723.08 -716.63,671.41 -712.41,654.06 -705.57,591.35 -704.32,577.38 -702.32,559.43 -700.83,546.09 -698.02,530.97 -692.83,490.30 -689.21,459.19 -683.91,446.46" fill="none" stroke="#bcbcbc" stroke-width="8" stroke-linecap="round" stroke-linejoin="round" /><polyline points="-797.72,430.56 -700.88,444.09 -683.91,446.46 -673.39,448.13 -629.98,455.05 -529.97,470.99 -512.80,473.85" fill="none" stroke="#bcbcbc" stroke-width="8" stroke-linecap="round" stroke-linejoin="round" /><polyline points="984.52,-839.80 985.15,-831.00 986.45,-822.09 989.60,-815.26 995.49,-807.65 1006.38,-797.73 1032.19,-782.03 1231.30,-657.12 1353.93,-492.71 1446.56,-264.13 1452.60,-249.03" fill="none" stroke="#bcbcbc" stroke-width="8" stroke-linecap="round" stroke-linejoin="round" /><polyline points="952.64,-172.83 956.76,-166.00 957.84,-164.23 961.25,-146.98 984.62,-34.02 992.03,1.83 997.33,27.37 1005.61,79.12 1009.47,103.00 1012.14,117.56 1015.05,130.71 1018.54,138.39 1023.65,147.27 1026.39,151.46 1078.12,225.52 1106.11,269.59 1113.40,280.12" fill="none" stroke="#bcbcbc" stroke-width="8" stroke-linecap="round" stroke-linejoin="round" /><polyline points="-532.58,1241.57 -529.83,1224.62 -527.27,1212.36 -526.59,1210.73 -492.15,1128.86 -470.21,1075.65 -463.55,1058.79 -456.48,1040.93 -448.81,1025.58 -447.57,1022.58 -437.07,997.20 -428.96,974.74 -421.99,954.14 -417.57,939.58 -412.62,921.59 -406.91,897.47 -402.57,877.90 -397.39,850.59 -396.30,844.49 -392.81,824.96" fill="none" stroke="#bcbcbc" stroke-width="8" stroke-linecap="round" stroke-linejoin="round" /><polyline points="1135.77,-1044.82 1245.56,-968.10 1260.36,-964.96 1271.18,-952.57" fill="none" stroke="#bcbcbc" stroke-width="8" stroke-linecap="round" stroke-linejoin="round" /><polyline points="674.73,-336.29 689.24,-330.71 752.24,-310.10 898.37,-254.06 906.57,-245.89 910.42,-239.78" fill="none" stroke="#bcbcbc" stroke-width="8" stroke-linecap="round" stroke-linejoin="round" /><polyline points="947.04,1103.74 956.99,1077.81 1006.12,944.52 1040.86,843.82 1048.06,840.51" fill="none" stroke="#bcbcbc" stroke-width="8" stroke-linecap="round" stroke-linejoin="round" /><polyline points="252.60,934.74 260.35,917.60 261.11,915.91 274.38,871.42 296.10,798.19 301.67,779.45 305.99,764.89 306.57,756.41 305.69,737.63" fill="none" stroke="#bcbcbc" stroke-width="8" stroke-linecap="round" stroke-linejoin="round" /><polyline points="1155.59,-166.98 1143.13,-164.41 1114.90,-169.43 1110.53,-181.07 1061.63,-199.72 1050.06,-196.70 1005.94,-212.89 999.36,-208.30" fill="none" stroke="#bcbcbc" stroke-width="8" stroke-linecap="round" stroke-linejoin="round" /><polyline points="1082.97,-1679.68 1105.13,-1674.25 1117.39,-1672.12 1408.92,-1621.57" fill="none" stroke="#bcbcbc" stroke-width="8" stroke-linecap="round" stroke-linejoin="round" /><polyline points="856.39,1022.57 868.51,988.39 892.08,921.94 907.31,893.64 929.22,832.29 937.97,807.80" fill="none" stroke="#bcbcbc" stroke-width="8" stroke-linecap="round" stroke-linejoin="round" /><polyline points="-740.93,-304.33 -762.04,-305.30 -767.34,-298.87 -804.12,-254.17 -932.71,-105.65 -950.79,-84.76" fill="none" stroke="#bcbcbc" stroke-width="8" stroke-linecap="round" stroke-linejoin="round" /><polyline points="386.96,-177.12 377.64,-156.48 376.51,-153.98 344.13,-69.54 311.48,23.41 302.78,48.20 297.85,61.00" fill="none" stroke="#bcbcbc" stroke-width="8" stroke-linecap="round" stroke-linejoin="round" /><polyline points="861.98,-1125.93 872.26,-1111.97 879.62,-1092.78 891.04,-1065.23 909.39,-1021.91 925.64,-983.01 944.29,-940.30 958.12,-907.39 960.17,-902.67 960.30,-902.38 971.43,-876.34 974.76,-868.95 977.93,-861.90 981.27,-855.31 983.79,-848.60 984.52,-839.80" fill="none" stroke="#bcbcbc" stroke-width="8" stroke-linecap="round" stroke-linejoin="round" /><polyline points="74.40,239.14 79.78,236.20 87.32,230.21 91.09,222.45 141.12,32.74 142.63,22.04 148.73,2.50" fill="none" stroke="#bcbcbc" stroke-width="8" stroke-linecap="round" stroke-linejoin="round" /><polyline points="1823.85,-57.72 1830.94,-35.20 1835.94,-11.54 1826.22,78.63 1814.97,146.45 1808.84,169.59 1808.28,171.68 1802.90,184.17 1795.57,197.41 1778.46,219.06 1786.74,261.39 1759.93,352.24 1745.12,402.42 1714.84,484.55 1670.48,584.54 1616.32,680.37 1599.41,711.52 1568.83,762.69 1446.65,936.08 1419.88,972.15 1316.22,1107.61 1256.71,1175.32 1173.47,1259.92 1165.77,1260.71 1146.97,1276.08" fill="none" stroke="#bcbcbc" stroke-width="8" stroke-linecap="round" stroke-linejoin="round" /><polyline points="316.30,1425.48 350.40,1319.71 355.98,1302.25 363.56,1291.24 379.85,1242.36 385.15,1225.76 452.44,1015.10 459.21,993.92 464.78,975.30 544.18,725.42" fill="none" stroke="#bcbcbc" stroke-width="8" stroke-linecap="round" stroke-linejoin="round" /><polyline points="1115.25,-541.54 1144.73,-573.76 1153.43,-584.24 1213.00,-668.61" fill="none" stroke="#bcbcbc" stroke-width="8" stroke-linecap="round" stroke-linejoin="round" /><polyline points="525.97,-528.78 607.16,-500.52 611.64,-493.23 634.70,-485.50 648.38,-480.82 713.82,-458.71" fill="none" stroke="#bcbcbc" stroke-width="8" stroke-linecap="round" stroke-linejoin="round" /><polyline points="1233.63,-1090.60 1271.18,-952.57 1314.66,-789.98 1321.25,-776.42 1322.29,-760.95 1351.77,-705.92 1431.33,-557.56 1448.72,-531.91 1453.76,-524.40 1572.62,-302.18 1627.25,-252.52 1634.91,-242.63 1645.72,-233.39 1749.44,-144.71 1756.48,-138.69 1775.10,-128.80" fill="none" stroke="#bcbcbc" stroke-width="8" stroke-linecap="round" stroke-linejoin="round" /><polyline points="830.24,1447.93 1088.91,1297.68 1134.96,1274.13 1146.97,1276.08" fill="none" stroke="#bcbcbc" stroke-width="8" stroke-linecap="round" stroke-linejoin="round" /><polyline points="1110.70,1232.98 1126.75,1213.90 1270.84,926.41 1280.38,907.56 1288.35,888.90 1334.90,773.81 1348.76,739.14 1388.87,617.74 1414.88,461.67 1417.96,438.95" fill="none" stroke="#bcbcbc" stroke-width="8" stroke-linecap="round" stroke-linejoin="round" /><polyline points="999.50,-457.73 996.98,-455.14 993.51,-443.05 993.17,-441.84 977.53,-381.64 981.63,-365.92 978.22,-351.83 973.76,-333.38 962.31,-320.13 949.33,-267.53 934.03,-255.97 917.70,-244.78 910.42,-239.78" fill="none" stroke="#bcbcbc" stroke-width="8" stroke-linecap="round" stroke-linejoin="round" /><polyline points="386.96,-177.12 393.61,-194.16 433.58,-296.63 442.30,-318.97 449.48,-337.38 500.56,-468.23 523.55,-522.94 525.97,-528.78 543.84,-571.99 583.94,-671.54 598.62,-713.93 601.89,-723.65 606.28,-734.67" fill="none" stroke="#bcbcbc" stroke-width="8" stroke-linecap="round" stroke-linejoin="round" /><polyline points="834.26,-798.27 841.99,-775.26 1095.67,-558.58 1234.10,-438.15 1440.86,-258.42 1458.91,-243.98 1466.99,-238.93 1502.87,-206.36 1550.79,-165.49 1659.46,-72.83 1694.57,-42.65 1717.86,-14.79" fill="none" stroke="#bcbcbc" stroke-width="8" stroke-linecap="round" stroke-linejoin="round" /><polyline points="1253.70,-1171.63 1266.57,-1179.88 1342.80,-1211.56 1358.46,-1228.04" fill="none" stroke="#bcbcbc" stroke-width="8" stroke-linecap="round" stroke-linejoin="round" /><polyline points="1341.74,756.68 1236.50,725.66 1046.01,669.63" fill="none" stroke="#bcbcbc" stroke-width="8" stroke-linecap="round" stroke-linejoin="round" /><polyline points="1002.03,-1481.78 1016.40,-1471.86 1484.83,-1367.64" fill="none" stroke="#bcbcbc" stroke-width="8" stroke-linecap="round" stroke-linejoin="round" /><polyline points="1580.65,60.45 1556.44,6.58 1502.71,-121.54 1498.71,-131.73 1489.52,-155.11 1454.89,-243.23 1452.71,-248.94" fill="none" stroke="#bcbcbc" stroke-width="8" stroke-linecap="round" stroke-linejoin="round" /><polyline points="861.98,-1125.93 835.97,-1133.33 816.86,-1139.02 778.02,-1150.55 758.29,-1156.18 746.98,-1159.32 732.22,-1163.55" fill="none" stroke="#bcbcbc" stroke-width="8" stroke-linecap="round" stroke-linejoin="round" /><polyline points="183.89,-421.21 182.58,-425.51 181.37,-428.53 176.01,-441.84 155.24,-490.25 135.51,-539.42 131.25,-551.03 126.34,-564.41 122.83,-575.35 117.03,-591.75 116.42,-593.47 97.54,-640.00 62.88,-727.46 55.09,-731.90 49.56,-746.08 38.50,-784.49 19.56,-832.09 15.48,-842.91" fill="none" stroke="#bcbcbc" stroke-width="8" stroke-linecap="round" stroke-linejoin="round" /><polyline points="350.40,1319.71 370.09,1325.74 433.77,1345.15 453.72,1351.22" fill="none" stroke="#bcbcbc" stroke-width="8" stroke-linecap="round" stroke-linejoin="round" /><polyline points="1539.73,-1148.73 1543.44,-1163.73 1541.93,-1169.43 1540.11,-1176.31 1528.48,-1218.90 1502.56,-1308.96 1488.88,-1354.99 1484.83,-1367.64 1448.68,-1497.59 1429.16,-1567.68 1408.92,-1621.57 1390.63,-1670.19 1372.42,-1703.62 1354.72,-1721.29 1218.87,-1887.28 1208.82,-1899.10 1202.16,-1910.02" fill="none" stroke="#bcbcbc" stroke-width="8" stroke-linecap="round" stroke-linejoin="round" /><polyline points="984.52,-839.80 977.52,-837.12 964.57,-833.55 963.27,-833.19 909.17,-819.36 846.96,-801.84 834.26,-798.27 828.60,-796.47 813.66,-791.67 800.88,-788.11 745.10,-772.59 653.36,-746.53 619.16,-737.89 606.28,-734.67 545.15,-719.66 507.38,-709.14 427.40,-686.79 348.35,-664.52 339.20,-661.98 273.14,-643.64 242.66,-635.18 227.27,-627.91 198.14,-613.47 140.29,-584.11 136.26,-582.07 122.83,-575.35 114.63,-571.24 103.20,-565.25 62.55,-543.94 -11.51,-502.39 -73.37,-469.98 -82.22,-465.35 -94.04,-464.61 -101.14,-460.84 -102.56,-460.08 -169.68,-423.30 -183.73,-423.37 -199.86,-414.93 -205.50,-411.98 -210.25,-409.49 -221.47,-403.62 -230.31,-383.46 -268.30,-363.12 -280.37,-356.65 -293.44,-349.54 -346.29,-320.78 -373.61,-305.91 -387.38,-301.94" fill="none" stroke="#bcbcbc" stroke-width="8" stroke-linecap="round" stroke-linejoin="round" /><polyline points="1745.12,402.42 1716.92,405.00 1628.83,413.07 1624.86,413.44 1619.24,413.95 1610.15,414.79 1524.74,422.63 1495.03,419.87 1460.44,428.54 1432.73,435.33 1417.97,438.95 1381.29,440.34 1349.55,438.73 1333.37,437.01 1319.60,432.84 1309.46,427.24 1271.69,400.53 1179.92,337.50 1171.27,331.64 1162.46,325.66 1155.87,319.28" fill="none" stroke="#bcbcbc" stroke-width="8" stroke-linecap="round" stroke-linejoin="round" /><polyline points="-333.35,-661.66 -300.05,-596.48 -295.01,-577.85 -266.96,-524.33 -255.37,-509.02 -208.49,-417.81 -205.50,-411.98" fill="none" stroke="#bcbcbc" stroke-width="8" stroke-linecap="round" stroke-linejoin="round" /><polyline points="687.09,-81.95 682.11,-68.25 680.71,-63.99 674.21,-44.27 633.01,70.66 612.56,127.73 611.86,129.68 603.65,147.42 598.94,157.96" fill="none" stroke="#bcbcbc" stroke-width="8" stroke-linecap="round" stroke-linejoin="round" /><polyline points="1233.63,-1090.60 1229.06,-1100.38 1217.06,-1101.95 1178.23,-1093.05 1170.34,-1094.07 1164.15,-1102.36 1153.17,-1152.88 1212.68,-1162.10 1240.23,-1170.23 1253.70,-1171.63 1268.21,-1120.04" fill="none" stroke="#bcbcbc" stroke-width="8" stroke-linecap="round" stroke-linejoin="round" /><polyline points="1448.72,-531.91 1464.05,-540.52 1541.05,-586.91 1561.63,-599.16 1597.65,-620.64 1656.91,-658.96 1670.73,-668.90 1774.68,-733.38" fill="none" stroke="#bcbcbc" stroke-width="8" stroke-linecap="round" stroke-linejoin="round" /><polyline points="1812.06,-227.36 1785.78,-235.18 1770.50,-247.71 1712.12,-298.23 1710.13,-300.01 1696.01,-312.60 1687.72,-327.31 1541.05,-586.91" fill="none" stroke="#bcbcbc" stroke-width="8" stroke-linecap="round" stroke-linejoin="round" /><polyline points="156.84,-247.93 386.96,-177.12 405.74,-171.17 577.46,-116.73 581.05,-115.60 606.77,-107.44 619.42,-103.42 635.86,-98.93 669.76,-87.45 687.09,-81.95 702.70,-77.01 830.50,-36.47 965.41,5.92 976.56,9.42 992.03,1.83" fill="none" stroke="#bcbcbc" stroke-width="8" stroke-linecap="round" stroke-linejoin="round" /><polyline points="833.47,-1383.97 933.15,-1475.56 950.03,-1491.07" fill="none" stroke="#bcbcbc" stroke-width="8" stroke-linecap="round" stroke-linejoin="round" /><polyline points="-835.75,93.91 -469.98,133.11" fill="none" stroke="#bcbcbc" stroke-width="8" stroke-linecap="round" stroke-linejoin="round" /><polyline points="267.67,-926.97 344.55,-954.46 423.85,-983.13 473.12,-1002.28 623.55,-1056.99 667.21,-1072.09 676.32,-1075.24 687.26,-1079.00 699.54,-1083.23 701.04,-1083.74 725.82,-1093.70 736.59,-1098.03" fill="none" stroke="#bcbcbc" stroke-width="8" stroke-linecap="round" stroke-linejoin="round" /><polyline points="784.01,933.29 856.39,1022.57 900.70,1067.19 919.88,1080.99 947.04,1103.74 972.55,1125.16 994.46,1146.53 995.00,1157.40" fill="none" stroke="#bcbcbc" stroke-width="8" stroke-linecap="round" stroke-linejoin="round" /><polyline points="861.98,-1125.93 890.34,-1197.02 936.26,-1314.08 1002.03,-1481.78 1034.54,-1561.22 1082.97,-1679.68 1122.69,-1776.71 1129.79,-1789.58 1164.72,-1846.68 1166.98,-1850.37 1179.76,-1875.50 1202.16,-1910.02 1214.68,-1929.27 1232.38,-1956.52" fill="none" stroke="#bcbcbc" stroke-width="8" stroke-linecap="round" stroke-linejoin="round" /><polyline points="192.79,774.95 188.15,778.66 185.08,783.09 178.82,801.54 174.50,814.85 154.51,874.61 151.76,883.23 150.06,888.58 131.71,883.32 87.04,868.35 42.79,853.51 8.58,851.57" fill="none" stroke="#bcbcbc" stroke-width="8" stroke-linecap="round" stroke-linejoin="round" /><polyline points="-681.85,1190.77 -608.92,1002.42 -600.80,981.92 -593.52,962.17 -584.73,938.30 -573.94,900.76 -562.69,854.11 -558.09,820.69 -554.74,796.40 -550.02,778.48 -532.85,643.80 -512.80,473.85 -502.43,392.82 -490.85,297.64 -469.98,133.11 -466.67,105.14 -445.58,-66.93 -445.57,-76.51 -440.91,-127.57 -427.45,-235.41 -424.08,-254.22 -420.57,-264.77 -415.06,-276.39 -409.72,-285.41 -397.91,-298.18 -387.36,-301.81" fill="none" stroke="#bcbcbc" stroke-width="8" stroke-linecap="round" stroke-linejoin="round" /><polyline points="910.42,-239.78 914.41,-233.46 927.79,-212.58 947.81,-180.48 952.64,-172.83 960.62,-178.89 999.36,-208.30" fill="none" stroke="#bcbcbc" stroke-width="8" stroke-linecap="round" stroke-linejoin="round" /><polyline points="936.26,-1314.08 1330.34,-1242.83 1371.73,-1221.05 1526.13,-1144.52 1539.73,-1148.73" fill="none" stroke="#bcbcbc" stroke-width="8" stroke-linecap="round" stroke-linejoin="round" /><polyline points="183.90,-421.21 176.90,-411.01 114.03,-380.33 67.86,-321.64 18.03,-290.79 -16.05,-265.06 -48.56,-238.54 -65.23,-223.35 -94.67,-186.00 -127.60,-138.81 -133.02,-130.06" fill="none" stroke="#bcbcbc" stroke-width="8" stroke-linecap="round" stroke-linejoin="round" /><polyline points="250.37,-379.11 247.64,-373.05 241.68,-364.34 230.41,-350.47 164.00,-266.58 128.86,-171.95 -48.48,-238.61" fill="none" stroke="#bcbcbc" stroke-width="8" stroke-linecap="round" stroke-linejoin="round" /><polyline points="-16.05,-265.06 -22.92,-285.85 -52.59,-375.69 -64.11,-393.45 -83.40,-451.30 -85.06,-456.29 -82.22,-465.35 -86.84,-480.09 -179.57,-776.17" fill="none" stroke="#bcbcbc" stroke-width="8" stroke-linecap="round" stroke-linejoin="round" /><polyline points="1070.53,-1880.53 1143.81,-1878.60 1147.23,-1878.50 1161.28,-1878.10 1179.76,-1875.50" fill="none" stroke="#bcbcbc" stroke-width="8" stroke-linecap="round" stroke-linejoin="round" /><polyline points="693.57,506.71 668.54,506.41 456.66,534.85 441.39,536.46 423.92,538.30 322.53,549.00 185.92,563.43 113.50,571.07 73.44,575.29 40.92,579.25 24.21,581.28 5.40,583.56 -85.48,594.61 -107.26,597.25 -174.38,604.59 -532.85,643.80" fill="none" stroke="#bcbcbc" stroke-width="8" stroke-linecap="round" stroke-linejoin="round" /><polyline points="379.85,1242.36 361.08,1236.32 273.41,1208.10 255.69,1202.40 240.30,1197.45 147.42,1167.60 129.11,1161.71 104.88,1153.91 -42.98,1106.33 -59.62,1100.98" fill="none" stroke="#bcbcbc" stroke-width="8" stroke-linecap="round" stroke-linejoin="round" /><polyline points="746.45,-532.61 797.44,-516.72 983.93,-459.13 985.68,-458.60 999.50,-457.73" fill="none" stroke="#bcbcbc" stroke-width="8" stroke-linecap="round" stroke-linejoin="round" /><polyline points="1271.18,-952.57 1524.87,-948.11" fill="none" stroke="#bcbcbc" stroke-width="8" stroke-linecap="round" stroke-linejoin="round" /><polyline points="1146.97,1276.08 1110.70,1232.98 1095.49,1215.28 1082.41,1203.07 1065.00,1190.07 1029.43,1168.72 995.00,1157.40 924.96,1135.77 867.67,1117.59 900.70,1067.19" fill="none" stroke="#bcbcbc" stroke-width="8" stroke-linecap="round" stroke-linejoin="round" /><polyline points="784.01,933.29 733.51,870.96 723.91,859.11 673.05,789.04 661.54,767.65 664.30,742.18 679.63,742.03 717.46,749.31 775.02,760.38" fill="none" stroke="#bcbcbc" stroke-width="8" stroke-linecap="round" stroke-linejoin="round" /><polyline points="123.43,433.92 132.74,453.95 185.92,563.43 265.00,726.21 275.09,746.97" fill="none" stroke="#bcbcbc" stroke-width="8" stroke-linecap="round" stroke-linejoin="round" /><polyline points="-728.36,929.77 -709.33,937.54 -620.25,973.96 -600.80,981.92 -580.34,990.28 -475.46,1033.17 -456.48,1040.93" fill="none" stroke="#bcbcbc" stroke-width="8" stroke-linecap="round" stroke-linejoin="round" /><polyline points="999.50,-457.73 1027.77,-456.25 1029.58,-454.64 1042.26,-443.39 1060.91,-426.75 1064.35,-420.06 1128.61,-363.79 1133.36,-354.81 1178.54,-314.94 1189.91,-311.47 1225.06,-280.69 1232.93,-277.09 1285.94,-232.12 1297.74,-221.66 1304.25,-211.30" fill="none" stroke="#bcbcbc" stroke-width="8" stroke-linecap="round" stroke-linejoin="round" /><polyline points="-780.74,271.79 -490.85,297.64" fill="none" stroke="#bcbcbc" stroke-width="8" stroke-linecap="round" stroke-linejoin="round" /><polyline points="-133.47,1351.21 -124.48,1332.09 -122.18,1323.58 -109.59,1277.17 -63.98,1116.37 -59.62,1100.98 -55.00,1084.10 -34.35,1008.55 0.54,880.98 8.58,851.57" fill="none" stroke="#bcbcbc" stroke-width="8" stroke-linecap="round" stroke-linejoin="round" /><polyline points="123.43,433.92 167.20,271.60 74.40,239.14 50.10,253.49 39.02,261.91 30.82,273.00 25.05,287.65 3.71,366.53 20.93,375.30 38.32,379.52 76.79,389.53 105.57,398.70 123.43,433.92" fill="none" stroke="#bcbcbc" stroke-width="8" stroke-linecap="round" stroke-linejoin="round" /><polyline points="3.71,366.53 -16.61,363.70 -490.85,297.64" fill="none" stroke="#bcbcbc" stroke-width="8" stroke-linecap="round" stroke-linejoin="round" /><polyline points="775.02,760.38 819.01,769.99 937.97,807.80 971.24,818.32 1050.19,841.12 1129.72,864.05 1188.60,881.07 1282.77,908.25 1302.23,913.88 1349.75,929.81 1427.99,950.65 1434.89,951.94" fill="none" stroke="#bcbcbc" stroke-width="8" stroke-linecap="round" stroke-linejoin="round" /><polyline points="830.82,1447.59 814.77,1451.62 797.42,1499.98 770.51,1492.34 648.15,1450.64 633.42,1447.50 600.66,1445.16 452.49,1445.75 419.82,1441.59 346.06,1430.31 316.30,1425.48 105.26,1391.45 23.54,1378.41 -132.31,1351.41 -157.47,1346.42 -509.20,1248.12 -531.39,1241.90 -681.85,1190.77 -718.87,1177.64 -811.33,1139.32 -864.04,1119.38" fill="none" stroke="#bcbcbc" stroke-width="8" stroke-linecap="round" stroke-linejoin="round" /><polyline points="1153.17,-1152.89 1137.94,-1156.02 934.66,-1131.99 861.98,-1125.93" fill="none" stroke="#bcbcbc" stroke-width="8" stroke-linecap="round" stroke-linejoin="round" /><polyline points="775.02,760.38 782.15,748.46 824.81,638.91 872.47,473.25 884.63,437.57 891.13,427.86 937.15,280.16 939.44,262.52 941.18,251.00" fill="none" stroke="#bcbcbc" stroke-width="8" stroke-linecap="round" stroke-linejoin="round" /><polyline points="984.52,-839.80 989.38,-841.66 995.97,-846.89 1005.96,-858.58 1135.77,-1044.82 1170.34,-1094.07" fill="none" stroke="#bcbcbc" stroke-width="8" stroke-linecap="round" stroke-linejoin="round" /><polyline points="1562.22,-155.68 1564.88,-163.32 1630.13,-240.08 1634.91,-242.63 1646.25,-258.14 1684.21,-301.74 1696.01,-312.60" fill="none" stroke="#bcbcbc" stroke-width="8" stroke-linecap="round" stroke-linejoin="round" /><polyline points="1619.24,413.95 1618.34,403.68 1617.64,395.73 1614.20,380.54 1610.09,370.63 1604.97,344.60 1604.50,335.17 1601.03,314.10 1585.50,305.98 1573.08,310.73 1550.87,316.05 1533.28,318.80 1516.42,322.87 1493.13,328.18 1482.52,330.60" fill="none" stroke="#bcbcbc" stroke-width="8" stroke-linecap="round" stroke-linejoin="round" /><polyline points="-94.97,36.98 -47.52,-74.25 -44.88,-81.47" fill="none" stroke="#bcbcbc" stroke-width="8" stroke-linecap="round" stroke-linejoin="round" /><polyline points="1155.59,-166.98 1178.46,-175.84 1190.42,-180.47 1199.66,-189.83 1237.79,-199.23 1250.59,-195.97 1278.19,-203.08 1299.24,-208.50 1304.25,-211.30 1324.67,-216.30 1429.05,-241.87 1452.71,-248.94" fill="none" stroke="#bcbcbc" stroke-width="8" stroke-linecap="round" stroke-linejoin="round" /><polyline points="192.79,774.95 242.03,757.07 258.51,752.03 275.09,746.97 305.69,737.63 329.49,734.20 410.79,725.31 427.13,724.42 499.87,725.04 544.18,725.42 560.85,724.56 587.54,727.27 595.89,728.46 612.90,730.89 664.30,742.18" fill="none" stroke="#bcbcbc" stroke-width="8" stroke-linecap="round" stroke-linejoin="round" /><polyline points="427.40,-686.79 419.24,-714.37 388.95,-816.81 352.14,-933.61 344.55,-954.46 336.83,-974.00 327.08,-1002.16" fill="none" stroke="#bcbcbc" stroke-width="8" stroke-linecap="round" stroke-linejoin="round" /><polyline points="339.28,964.84 345.75,944.40 411.21,738.00 410.79,725.31" fill="none" stroke="#bcbcbc" stroke-width="8" stroke-linecap="round" stroke-linejoin="round" /><polyline points="427.13,724.42 440.09,550.63 441.39,536.46 443.37,519.97 443.40,519.22 444.25,499.07 448.58,444.36 451.02,418.88 454.35,389.94 457.39,369.11 460.12,356.02 463.55,346.13 470.28,323.84 484.18,277.45 501.86,217.55 521.36,156.30 525.33,143.81 528.52,134.75" fill="none" stroke="#bcbcbc" stroke-width="8" stroke-linecap="round" stroke-linejoin="round" /><polyline points="3.71,366.53 0.26,381.93 0.86,386.85 21.97,562.66 24.21,581.28 23.24,600.43 17.71,709.78 15.40,755.46 14.21,779.02 12.08,821.02 10.97,842.89 8.58,851.57" fill="none" stroke="#bcbcbc" stroke-width="8" stroke-linecap="round" stroke-linejoin="round" /><polyline points="-94.97,36.98 -171.75,14.16 -181.51,7.91 -229.29,-6.02 -242.72,-5.87 -302.76,-23.96 -312.46,-31.12 -367.09,-47.68 -434.13,-65.95 -434.46,-65.98 -445.58,-66.93" fill="none" stroke="#bcbcbc" stroke-width="8" stroke-linecap="round" stroke-linejoin="round" /><polyline points="1304.25,-211.30 1306.92,-207.80 1318.05,-191.21 1338.64,-160.53 1358.01,-141.12 1395.25,-99.31 1388.96,-60.68 1385.76,-46.19 1381.32,-40.06 1390.66,-26.25 1405.10,3.48 1433.97,59.17 1448.19,86.60 1457.03,111.25 1461.02,122.69" fill="none" stroke="#bcbcbc" stroke-width="8" stroke-linecap="round" stroke-linejoin="round" /><polyline points="1498.71,-131.73 1488.00,-128.39 1417.50,-106.46 1407.39,-103.21 1395.25,-99.31" fill="none" stroke="#bcbcbc" stroke-width="8" stroke-linecap="round" stroke-linejoin="round" /><polyline points="992.03,1.83 1014.08,-5.31 1174.12,-87.03 1195.54,-97.50 1270.97,-119.28 1344.11,-139.85 1358.01,-141.12" fill="none" stroke="#bcbcbc" stroke-width="8" stroke-linecap="round" stroke-linejoin="round" /><polyline points="1009.47,103.00 1193.98,17.14 1201.74,12.00 1219.78,6.75 1342.73,-29.02 1361.38,-36.16 1381.32,-40.06" fill="none" stroke="#bcbcbc" stroke-width="8" stroke-linecap="round" stroke-linejoin="round" /><polyline points="971.82,-1696.94 1046.51,-1687.71 1054.01,-1686.78 1082.97,-1679.68" fill="none" stroke="#bcbcbc" stroke-width="8" stroke-linecap="round" stroke-linejoin="round" /><polyline points="1610.07,-937.64 1623.32,-940.40 1672.81,-916.15 1679.33,-909.69 1772.23,-752.44 1774.68,-733.38 1786.76,-723.31 1784.84,-716.36 1784.54,-705.02 1786.22,-689.18 1810.82,-588.06 1813.00,-518.02 1816.45,-406.19 1822.23,-255.68 1798.67,-190.09 1783.49,-150.11 1761.33,-93.76 1754.92,-77.46 1750.75,-72.91 1744.05,-29.31" fill="none" stroke="#bcbcbc" stroke-width="8" stroke-linecap="round" stroke-linejoin="round" /><polyline points="1781.84,236.32 1759.24,226.49 1702.78,187.09 1628.28,134.75 1587.31,101.62 1559.67,72.02" fill="none" stroke="#bcbcbc" stroke-width="8" stroke-linecap="round" stroke-linejoin="round" /><polyline points="867.67,1117.59 845.48,1110.56 809.48,1099.14 792.29,1093.70 772.11,1087.30 746.61,1079.21 723.55,1071.90 700.76,1064.67 599.12,1032.42 581.31,1026.77 559.20,1019.77 554.33,1018.23 496.19,1002.87 479.78,998.90 459.21,993.92 437.67,988.70 360.09,969.88 339.28,964.84 316.92,957.07 270.21,940.85 252.60,934.74 236.85,929.63 163.70,903.62 154.49,898.13 150.06,888.58" fill="none" stroke="#bcbcbc" stroke-width="8" stroke-linecap="round" stroke-linejoin="round" /><polyline points="1201.74,12.00 1196.36,-7.31 1180.30,-64.89 1174.12,-87.03 1165.20,-103.58 1164.37,-106.65 1159.11,-126.14 1165.23,-134.78 1157.87,-159.35 1155.59,-166.98" fill="none" stroke="#bcbcbc" stroke-width="8" stroke-linecap="round" stroke-linejoin="round" /><polyline points="1174.89,-692.59 1190.16,-699.78 1273.57,-745.76 1321.25,-776.42 1354.88,-799.36 1362.30,-804.89 1389.37,-823.70 1417.41,-844.42 1435.17,-857.34 1456.34,-872.83 1529.93,-906.03 1539.47,-905.52 1553.42,-912.12 1610.07,-937.64" fill="none" stroke="#bcbcbc" stroke-width="8" stroke-linecap="round" stroke-linejoin="round" /><polyline points="250.37,-379.11 262.40,-374.23 270.35,-371.78 419.51,-325.97 442.30,-318.97" fill="none" stroke="#bcbcbc" stroke-width="8" stroke-linecap="round" stroke-linejoin="round" /><polyline points="-815.08,-43.68 -921.65,-75.94" fill="none" stroke="#bcbcbc" stroke-width="8" stroke-linecap="round" stroke-linejoin="round" /><polyline points="906.32,-1546.43 932.74,-1512.96 936.69,-1507.96 950.03,-1491.07 965.23,-1489.28 996.47,-1485.62 1002.03,-1481.78" fill="none" stroke="#bcbcbc" stroke-width="8" stroke-linecap="round" stroke-linejoin="round" /><polyline points="1823.85,-57.72 1781.98,-49.91 1739.05,-26.58 1699.25,-4.44 1661.61,14.38 1616.13,39.08 1583.20,59.08 1518.11,93.97 1264.05,221.79 1198.18,250.80 1154.66,269.62 1133.10,276.68 1115.26,280.01 1086.05,281.77 1044.49,275.89 940.79,251.00 793.56,216.69 599.88,158.27 528.52,134.75 411.69,98.68 299.95,61.82 136.06,-2.48 54.12,-37.76 -44.69,-81.67 -208.57,-171.45 -246.99,-196.93 -344.23,-258.09 -385.00,-298.87 -446.17,-378.06 -546.93,-481.95 -586.53,-516.85" fill="none" stroke="#bcbcbc" stroke-width="8" stroke-linecap="round" stroke-linejoin="round" /><polyline points="1029.43,1168.72 1031.15,1159.15 1037.34,1143.50 1095.46,1007.52 1117.41,956.55 1143.29,893.03 1149.59,869.79" fill="none" stroke="#bcbcbc" stroke-width="8" stroke-linecap="round" stroke-linejoin="round" /><polyline points="-85.48,594.61 -151.50,562.66 -301.72,489.95 -485.98,400.78 -502.43,392.82" fill="none" stroke="#bcbcbc" stroke-width="8" stroke-linecap="round" stroke-linejoin="round" /><polyline points="999.50,-457.73 1016.17,-474.80 1060.50,-520.17 1095.67,-558.58" fill="none" stroke="#bcbcbc" stroke-width="8" stroke-linecap="round" stroke-linejoin="round" /><polyline points="-280.37,-356.65 -298.68,-380.89 -384.50,-494.51 -507.00,-593.64" fill="none" stroke="#bcbcbc" stroke-width="8" stroke-linecap="round" stroke-linejoin="round" /><polyline points="-811.99,1139.04 -795.24,1099.32 -741.97,966.53 -735.52,949.10 -728.36,929.77 -725.64,922.79 -724.92,911.87 -718.10,808.63 -716.14,779.02" fill="none" stroke="#bcbcbc" stroke-width="8" stroke-linecap="round" stroke-linejoin="round" /><polyline points="-848.33,71.64 -815.08,-43.68 -771.21,-195.79 -765.78,-214.62 -759.74,-236.01 -746.22,-283.90 -744.80,-288.93 -740.93,-304.33 -734.75,-321.74 -733.26,-325.95 -725.46,-345.28 -710.15,-379.05 -705.57,-388.75" fill="none" stroke="#bcbcbc" stroke-width="8" stroke-linecap="round" stroke-linejoin="round" /><polyline points="-765.78,-214.62 -698.49,-197.41 -555.98,-160.78 -474.78,-135.50 -440.91,-127.57" fill="none" stroke="#bcbcbc" stroke-width="8" stroke-linecap="round" stroke-linejoin="round" /><polyline points="619.16,-737.89 621.45,-751.89 623.75,-766.42 633.62,-815.05 658.28,-928.23 678.53,-1029.48 682.23,-1050.48 687.26,-1079.00 687.27,-1079.03" fill="none" stroke="#bcbcbc" stroke-width="8" stroke-linecap="round" stroke-linejoin="round" /><polyline points="419.95,1441.61 449.99,1364.99 453.72,1351.22 572.94,1048.60 581.31,1026.77 588.09,1008.25 659.33,801.01 673.05,789.04" fill="none" stroke="#bcbcbc" stroke-width="8" stroke-linecap="round" stroke-linejoin="round" /><polyline points="828.60,-796.47 828.60,-796.50 824.37,-818.66 823.71,-821.35 813.41,-863.23 813.42,-863.37 806.40,-891.76 776.65,-993.71 772.90,-1004.63 752.81,-1059.25 746.28,-1075.55 742.07,-1086.07 736.60,-1098.01 736.59,-1098.03 736.59,-1098.08 732.60,-1141.99 732.22,-1163.55" fill="none" stroke="#bcbcbc" stroke-width="8" stroke-linecap="round" stroke-linejoin="round" /><polyline points="784.01,933.29 776.36,941.56 764.96,955.12 732.84,1045.68 723.55,1071.90" fill="none" stroke="#bcbcbc" stroke-width="8" stroke-linecap="round" stroke-linejoin="round" /><polyline points="250.37,-379.11 254.76,-391.00 255.75,-393.76 276.60,-452.01 284.42,-476.56 348.35,-664.52" fill="none" stroke="#bcbcbc" stroke-width="8" stroke-linecap="round" stroke-linejoin="round" /><polyline points="581.05,-115.60 587.57,-132.92 605.23,-179.84 612.70,-199.68 617.76,-213.10 631.93,-250.76 641.30,-275.63 642.56,-278.98 665.24,-339.23 674.73,-336.29 679.86,-350.28 688.95,-375.03 687.21,-386.27 711.35,-451.97 713.82,-458.71 718.40,-462.92 722.25,-466.45 746.45,-532.61 749.95,-550.72 784.67,-647.19 792.88,-653.61 809.59,-700.87 806.62,-708.12 821.25,-752.26 813.66,-791.67" fill="none" stroke="#bcbcbc" stroke-width="8" stroke-linecap="round" stroke-linejoin="round" /><polyline points="1202.16,-1910.02 1192.43,-1925.98 1141.31,-2009.84" fill="none" stroke="#bcbcbc" stroke-width="8" stroke-linecap="round" stroke-linejoin="round" /><polyline points="1362.30,-804.89 1596.92,-654.03 1596.98,-653.93 1596.99,-653.90 1640.38,-648.27" fill="none" stroke="#bcbcbc" stroke-width="8" stroke-linecap="round" stroke-linejoin="round" /><polyline points="1268.21,-1120.04 1517.84,-994.75 1525.37,-989.13 1524.87,-948.11 1529.93,-906.03" fill="none" stroke="#bcbcbc" stroke-width="8" stroke-linecap="round" stroke-linejoin="round" /><polyline points="792.29,1093.70 783.31,1121.08 746.94,1232.01 685.08,1418.81 680.69,1432.06 676.24,1445.49 675.00,1459.79" fill="none" stroke="#bcbcbc" stroke-width="8" stroke-linecap="round" stroke-linejoin="round" /><polyline points="1495.03,419.87 1496.52,405.95 1496.84,392.97 1496.74,392.52 1487.89,354.28 1484.27,338.31 1482.52,330.60 1480.73,322.72 1471.02,279.95 1452.05,194.46 1438.26,143.07 1436.31,135.13" fill="none" stroke="#bcbcbc" stroke-width="8" stroke-linecap="round" stroke-linejoin="round" /><polyline points="255.69,1202.40 261.88,1184.81 331.39,987.26 339.28,964.84" fill="none" stroke="#bcbcbc" stroke-width="8" stroke-linecap="round" stroke-linejoin="round" /><polyline points="1816.45,-406.19 1796.00,-411.96 1657.11,-625.07 1640.38,-648.27" fill="none" stroke="#bcbcbc" stroke-width="8" stroke-linecap="round" stroke-linejoin="round" /><polyline points="-466.67,105.14 39.50,226.40 74.40,239.14" fill="none" stroke="#bcbcbc" stroke-width="8" stroke-linecap="round" stroke-linejoin="round" /><polyline points="1129.79,-1789.58 1326.96,-1716.55 1354.72,-1721.29" fill="none" stroke="#bcbcbc" stroke-width="8" stroke-linecap="round" stroke-linejoin="round" />
    <polyline points="167.20,271.60 352.80,352.80" fill="none" stroke="#ffffff" stroke-width="16" stroke-linecap="round" stroke-linejoin="round" />
    <polyline points="167.20,271.60 352.80,352.80" fill="none" stroke="#111111" stroke-width="9" stroke-linecap="round" stroke-linejoin="round" />
    
            <g transform="translate(167.20,271.60)">
              <circle r="19" fill="#ffffff" stroke="#111111" stroke-width="4" />
              <text text-anchor="middle" dominant-baseline="central" font-family="Helvetica, Arial, sans-serif"
                font-size="18" font-weight="700" fill="#111111">1</text>
            </g>
            
            <g transform="translate(352.80,352.80)">
              <circle r="19" fill="#ffffff" stroke="#111111" stroke-width="4" />
              <text text-anchor="middle" dominant-baseline="central" font-family="Helvetica, Arial, sans-serif"
                font-size="18" font-weight="700" fill="#111111">2</text>
            </g>
            
  </g>
</svg>
