<svg xmlns="http://www.w3.org/2000/svg" width="520" height="520" viewBox="0 0 520 520">
  <rect width="100%" height="100%" fill="#ffffff" />
  <g>
    <polyline points="539.05,-89.59 541.91,-74.40 560.32,54.44 557.51,86.66" fill="none" stroke="#bcbcbc" stroke-width="8" stroke-linecap="round" stroke-linejoin="round" /><polyline points="164.69,984.14 169.15,970.45 192.74,897.89 195.52,889.34 198.33,880.36 257.66,691.17 262.43,675.96 251.50,649.04" fill="none" stroke="#bcbcbc" stroke-width="8" stroke-linecap="round" stroke-linejoin="round" /><polyline points="-245.09,815.87 -246.05,805.00 -226.66,696.37 -223.94,682.78 -221.91,675.67 -216.57,648.11 -210.57,614.40 -204.03,584.70 -197.55,555.07 -193.47,546.72 -190.80,541.60" fill="none" stroke="#bcbcbc" stroke-width="8" stroke-linecap="round" stroke-linejoin="round" /><polyline points="-132.52,49.59 -137.13,35.52 -184.79,-109.85 -187.12,-115.94" fill="none" stroke="#bcbcbc" stroke-width="8" stroke-linecap="round" stroke-linejoin="round" /><polyline points="-377.09,1329.02 -375.66,1315.15 -375.09,1308.79 -369.90,1251.39 -364.22,1200.85 -362.89,1189.05 -361.66,1174.89 -361.52,1173.70 -358.30,1145.55 -355.53,1116.94 -352.47,1089.33 -350.41,1067.83 -349.55,1054.56 -348.79,1042.31 -347.44,1028.51" fill="none" stroke="#bcbcbc" stroke-width="8" stroke-linecap="round" stroke-linejoin="round" /><polyline points="281.51,1017.87 284.90,1007.20 308.82,932.01 311.54,923.47 315.40,911.30 318.17,902.57 339.34,811.27" fill="none" stroke="#bcbcbc" stroke-width="8" stroke-linecap="round" stroke-linejoin="round" /><polyline points="188.53,-469.38 197.37,-468.03 440.76,-430.63" fill="none" stroke="#bcbcbc" stroke-width="8" stroke-linecap="round" stroke-linejoin="round" /><polyline points="-436.30,1000.16 -461.63,998.98 -477.08,998.26 -485.47,997.87 -492.83,997.52 -550.20,994.86 -629.99,991.14 -668.02,985.75 -680.75,983.95 -691.80,982.00 -766.60,968.79 -777.06,966.95 -779.37,966.55 -792.29,964.34 -802.21,962.64 -865.60,957.03 -877.67,955.97 -882.10,955.57 -895.80,954.62 -922.64,952.77" fill="none" stroke="#bcbcbc" stroke-width="8" stroke-linecap="round" stroke-linejoin="round" /><polyline points="-68.25,926.65 -63.34,912.69 -19.12,790.11 34.07,635.50 37.48,625.81 39.85,619.03 41.78,613.47" fill="none" stroke="#bcbcbc" stroke-width="8" stroke-linecap="round" stroke-linejoin="round" /><polyline points="-882.10,955.57 -883.23,947.69 -883.50,939.13 -881.82,921.90 -877.97,890.42 -875.40,879.86 -871.23,841.66 -870.47,833.16 -869.25,822.22 -868.34,814.10 -866.64,804.89 -863.47,780.12 -861.27,761.17 -858.04,753.41" fill="none" stroke="#bcbcbc" stroke-width="8" stroke-linecap="round" stroke-linejoin="round" /><polyline points="-927.36,743.73 -868.38,751.97 -858.04,753.41 -851.64,754.44 -825.20,758.65 -764.28,768.35 -753.83,770.10" fill="none" stroke="#bcbcbc" stroke-width="8" stroke-linecap="round" stroke-linejoin="round" /><polyline points="158.08,-30.00 158.46,-24.64 159.25,-19.21 161.17,-15.05 164.75,-10.41 171.39,-4.38 187.10,5.19 308.37,81.27 383.05,181.40 439.47,320.62 443.15,329.82" fill="none" stroke="#bcbcbc" stroke-width="8" stroke-linecap="round" stroke-linejoin="round" /><polyline points="138.66,376.23 141.17,380.39 141.82,381.47 143.90,391.97 158.13,460.77 162.65,482.61 165.88,498.16 170.92,529.69 173.27,544.23 174.89,553.10 176.67,561.11 178.79,565.78 181.90,571.19 183.57,573.74 215.08,618.85 232.12,645.69 236.57,652.11" fill="none" stroke="#bcbcbc" stroke-width="8" stroke-linecap="round" stroke-linejoin="round" /><polyline points="-765.88,1237.69 -764.20,1227.36 -762.64,1219.90 -762.23,1218.91 -741.26,1169.04 -727.89,1136.63 -723.83,1126.36 -719.53,1115.48 -714.86,1106.13 -714.10,1104.31 -707.71,1088.85 -702.77,1075.17 -698.53,1062.63 -695.83,1053.76 -692.82,1042.80 -689.34,1028.11 -686.70,1016.19 -683.54,999.55 -682.88,995.84 -680.75,983.95" fill="none" stroke="#bcbcbc" stroke-width="8" stroke-linecap="round" stroke-linejoin="round" /><polyline points="250.19,-154.87 317.06,-108.14 326.06,-106.23 332.66,-98.68" fill="none" stroke="#bcbcbc" stroke-width="8" stroke-linecap="round" stroke-linejoin="round" /><polyline points="-30.60,276.67 -21.76,280.07 16.61,292.62 105.61,326.76 110.60,331.73 112.95,335.45" fill="none" stroke="#bcbcbc" stroke-width="8" stroke-linecap="round" stroke-linejoin="round" /><polyline points="135.25,1153.74 141.31,1137.94 171.23,1056.77 192.39,995.44 196.77,993.42" fill="none" stroke="#bcbcbc" stroke-width="8" stroke-linecap="round" stroke-linejoin="round" /><polyline points="-287.69,1050.81 -282.96,1040.37 -282.50,1039.34 -274.42,1012.24 -261.19,967.64 -257.80,956.22 -255.17,947.36 -254.81,942.19 -255.35,930.75" fill="none" stroke="#bcbcbc" stroke-width="8" stroke-linecap="round" stroke-linejoin="round" /><polyline points="262.26,379.79 254.67,381.36 237.48,378.30 234.82,371.21 205.04,359.85 197.99,361.69 171.12,351.83 167.11,354.63" fill="none" stroke="#bcbcbc" stroke-width="8" stroke-linecap="round" stroke-linejoin="round" /><polyline points="218.03,-541.53 231.53,-538.23 239.00,-536.93 416.54,-506.14" fill="none" stroke="#bcbcbc" stroke-width="8" stroke-linecap="round" stroke-linejoin="round" /><polyline points="80.04,1104.30 87.42,1083.48 101.78,1043.02 111.05,1025.78 124.40,988.41 129.73,973.49" fill="none" stroke="#bcbcbc" stroke-width="8" stroke-linecap="round" stroke-linejoin="round" /><polyline points="-892.77,296.14 -905.63,295.55 -908.85,299.46 -931.25,326.69 -1009.57,417.15 -1020.58,429.87" fill="none" stroke="#bcbcbc" stroke-width="8" stroke-linecap="round" stroke-linejoin="round" /><polyline points="-205.86,373.62 -211.53,386.19 -212.22,387.71 -231.94,439.14 -251.82,495.75 -257.12,510.85 -260.13,518.65" fill="none" stroke="#bcbcbc" stroke-width="8" stroke-linecap="round" stroke-linejoin="round" /><polyline points="83.44,-204.27 89.71,-195.77 94.18,-184.08 101.14,-167.30 112.32,-140.91 122.21,-117.22 133.57,-91.21 142.00,-71.17 143.25,-68.29 143.32,-68.11 150.10,-52.25 152.13,-47.75 154.06,-43.46 156.10,-39.44 157.63,-35.35 158.08,-30.00" fill="none" stroke="#bcbcbc" stroke-width="8" stroke-linecap="round" stroke-linejoin="round" /><polyline points="-396.21,627.15 -392.93,625.35 -388.34,621.71 -386.05,616.98 -355.58,501.44 -354.66,494.92 -350.94,483.02" fill="none" stroke="#bcbcbc" stroke-width="8" stroke-linecap="round" stroke-linejoin="round" /><polyline points="669.24,446.34 673.57,460.06 676.61,474.47 670.69,529.39 663.84,570.69 660.10,584.79 659.76,586.06 656.49,593.67 652.03,601.73 641.60,614.91 646.65,640.69 630.32,696.03 621.30,726.59 602.85,776.61 575.84,837.52 542.86,895.88 532.56,914.86 513.93,946.02 439.52,1051.63 423.22,1073.60 360.09,1156.10 323.85,1197.33 273.15,1248.86 268.46,1249.35 257.01,1258.71" fill="none" stroke="#bcbcbc" stroke-width="8" stroke-linecap="round" stroke-linejoin="round" /><polyline points="-248.89,1349.70 -228.12,1285.28 -224.72,1274.64 -220.10,1267.94 -210.18,1238.17 -206.95,1228.05 -165.98,1099.76 -161.86,1086.85 -158.46,1075.51 -110.10,923.32" fill="none" stroke="#bcbcbc" stroke-width="8" stroke-linecap="round" stroke-linejoin="round" /><polyline points="237.69,151.66 255.65,132.04 260.94,125.66 297.22,74.27" fill="none" stroke="#bcbcbc" stroke-width="8" stroke-linecap="round" stroke-linejoin="round" /><polyline points="-121.20,159.44 -71.75,176.65 -69.02,181.09 -54.98,185.80 -46.64,188.65 -6.79,202.11" fill="none" stroke="#bcbcbc" stroke-width="8" stroke-linecap="round" stroke-linejoin="round" /><polyline points="309.79,-182.75 332.66,-98.68 359.14,0.35 363.15,8.60 363.79,18.03 381.74,51.55 430.19,141.90 440.78,157.53 443.85,162.10 516.24,297.45 549.51,327.69 554.18,333.72 560.76,339.34 623.93,393.36 628.22,397.02 639.56,403.05" fill="none" stroke="#bcbcbc" stroke-width="8" stroke-linecap="round" stroke-linejoin="round" /><polyline points="64.11,1363.38 221.65,1271.86 249.70,1257.52 257.01,1258.71" fill="none" stroke="#bcbcbc" stroke-width="8" stroke-linecap="round" stroke-linejoin="round" /><polyline points="234.92,1232.46 244.70,1220.83 332.45,1045.74 338.26,1034.26 343.12,1022.89 371.46,952.79 379.90,931.68 404.33,857.74 420.17,762.68 422.05,748.84" fill="none" stroke="#bcbcbc" stroke-width="8" stroke-linecap="round" stroke-linejoin="round" /><polyline points="167.20,202.71 165.66,204.28 163.55,211.65 163.34,212.38 153.82,249.05 156.32,258.63 154.24,267.21 151.52,278.44 144.55,286.52 136.64,318.55 127.33,325.59 117.38,332.41 112.95,335.45" fill="none" stroke="#bcbcbc" stroke-width="8" stroke-linecap="round" stroke-linejoin="round" /><polyline points="-205.86,373.62 -201.81,363.24 -177.46,300.83 -172.15,287.22 -167.78,276.01 -136.67,196.31 -122.67,162.99 -121.20,159.44 -110.31,133.12 -85.89,72.48 -76.95,46.67 -74.96,40.75 -72.28,34.04" fill="none" stroke="#bcbcbc" stroke-width="8" stroke-linecap="round" stroke-linejoin="round" /><polyline points="66.56,-4.70 71.27,9.31 225.77,141.29 310.08,214.63 436.00,324.10 446.99,332.89 451.91,335.97 473.76,355.81 502.94,380.70 569.13,437.13 590.51,455.52 604.69,472.49" fill="none" stroke="#bcbcbc" stroke-width="8" stroke-linecap="round" stroke-linejoin="round" /><polyline points="322.01,-232.10 329.85,-237.13 376.27,-256.42 385.81,-266.46" fill="none" stroke="#bcbcbc" stroke-width="8" stroke-linecap="round" stroke-linejoin="round" /><polyline points="375.63,942.36 311.54,923.47 195.52,889.34" fill="none" stroke="#bcbcbc" stroke-width="8" stroke-linecap="round" stroke-linejoin="round" /><polyline points="168.74,-421.00 177.49,-414.96 462.78,-351.48" fill="none" stroke="#bcbcbc" stroke-width="8" stroke-linecap="round" stroke-linejoin="round" /><polyline points="521.13,518.31 506.39,485.50 473.67,407.47 471.23,401.27 465.63,387.02 444.54,333.35 443.21,329.87" fill="none" stroke="#bcbcbc" stroke-width="8" stroke-linecap="round" stroke-linejoin="round" /><polyline points="83.44,-204.27 67.60,-208.77 55.97,-212.24 32.31,-219.26 20.29,-222.69 13.41,-224.61 4.42,-227.18" fill="none" stroke="#bcbcbc" stroke-width="8" stroke-linecap="round" stroke-linejoin="round" /><polyline points="-329.53,224.95 -330.33,222.33 -331.06,220.50 -334.33,212.38 -346.98,182.90 -358.99,152.95 -361.59,145.88 -364.58,137.74 -366.72,131.07 -370.25,121.08 -370.62,120.03 -382.12,91.69 -403.23,38.43 -407.97,35.72 -411.34,27.08 -418.08,3.69 -429.61,-25.30 -432.09,-31.89" fill="none" stroke="#bcbcbc" stroke-width="8" stroke-linecap="round" stroke-linejoin="round" /><polyline points="-228.12,1285.28 -216.13,1288.95 -177.34,1300.77 -165.19,1304.47" fill="none" stroke="#bcbcbc" stroke-width="8" stroke-linecap="round" stroke-linejoin="round" /><polyline points="496.21,-218.15 498.47,-227.29 497.55,-230.76 496.44,-234.95 489.36,-260.89 473.57,-315.74 465.24,-343.78 462.78,-351.48 440.76,-430.63 428.87,-473.32 416.54,-506.14 405.40,-535.76 394.31,-556.12 383.54,-566.88 300.80,-667.98 294.68,-675.17 290.62,-681.82" fill="none" stroke="#bcbcbc" stroke-width="8" stroke-linecap="round" stroke-linejoin="round" /><polyline points="158.08,-30.00 153.81,-28.37 145.92,-26.19 145.13,-25.97 112.18,-17.54 74.30,-6.88 66.56,-4.70 63.12,-3.61 54.02,-0.68 46.23,1.48 12.26,10.94 -43.61,26.81 -64.44,32.08 -72.28,34.04 -109.52,43.18 -132.52,49.59 -181.23,63.19 -229.37,76.76 -234.94,78.31 -275.18,89.48 -293.74,94.63 -303.11,99.06 -320.85,107.85 -356.08,125.73 -358.54,126.98 -366.72,131.07 -371.71,133.57 -378.67,137.22 -403.43,150.20 -448.53,175.51 -486.21,195.24 -491.60,198.07 -498.80,198.52 -503.12,200.82 -503.98,201.27 -544.86,223.68 -553.42,223.64 -563.24,228.78 -566.68,230.57 -569.57,232.09 -576.40,235.66 -581.79,247.94 -604.92,260.33 -612.28,264.27 -620.23,268.60 -652.42,286.12 -669.06,295.18 -677.45,297.59" fill="none" stroke="#bcbcbc" stroke-width="8" stroke-linecap="round" stroke-linejoin="round" /><polyline points="621.30,726.59 604.13,728.16 550.48,733.08 548.06,733.30 544.64,733.62 539.10,734.12 487.08,738.90 468.99,737.22 447.92,742.50 431.04,746.64 422.05,748.84 399.72,749.69 380.39,748.71 370.53,747.66 362.15,745.12 355.97,741.71 332.97,725.44 277.08,687.05 271.81,683.48 266.44,679.84 262.43,675.96" fill="none" stroke="#bcbcbc" stroke-width="8" stroke-linecap="round" stroke-linejoin="round" /><polyline points="-644.54,78.50 -624.26,118.20 -621.19,129.55 -604.11,162.14 -597.05,171.47 -568.50,227.03 -566.68,230.57" fill="none" stroke="#bcbcbc" stroke-width="8" stroke-linecap="round" stroke-linejoin="round" /><polyline points="-23.06,431.58 -26.10,439.93 -26.96,442.52 -30.91,454.53 -56.00,524.53 -68.46,559.29 -68.88,560.48 -73.89,571.28 -76.75,577.70" fill="none" stroke="#bcbcbc" stroke-width="8" stroke-linecap="round" stroke-linejoin="round" /><polyline points="309.79,-182.75 307.01,-188.70 299.70,-189.66 276.05,-184.24 271.24,-184.86 267.48,-189.91 260.78,-220.68 297.03,-226.30 313.81,-231.25 322.01,-232.10 330.85,-200.68" fill="none" stroke="#bcbcbc" stroke-width="8" stroke-linecap="round" stroke-linejoin="round" /><polyline points="440.78,157.53 450.12,152.29 497.01,124.03 509.55,116.57 531.48,103.49 567.57,80.15 575.99,74.09 639.30,34.82" fill="none" stroke="#bcbcbc" stroke-width="8" stroke-linecap="round" stroke-linejoin="round" /><polyline points="662.07,343.02 646.06,338.25 636.76,330.62 601.20,299.85 599.99,298.77 591.39,291.10 586.34,282.14 497.01,124.03" fill="none" stroke="#bcbcbc" stroke-width="8" stroke-linecap="round" stroke-linejoin="round" /><polyline points="-346.00,330.49 -205.86,373.62 -194.42,377.24 -89.83,410.40 -87.65,411.09 -71.98,416.06 -64.28,418.50 -54.27,421.24 -33.62,428.23 -23.06,431.58 -13.56,434.59 64.27,459.28 146.43,485.10 153.23,487.23 162.65,482.61" fill="none" stroke="#bcbcbc" stroke-width="8" stroke-linecap="round" stroke-linejoin="round" /><polyline points="66.08,-361.43 126.79,-417.22 137.07,-426.66" fill="none" stroke="#bcbcbc" stroke-width="8" stroke-linecap="round" stroke-linejoin="round" /><polyline points="-950.52,538.69 -727.75,562.57" fill="none" stroke="#bcbcbc" stroke-width="8" stroke-linecap="round" stroke-linejoin="round" /><polyline points="-278.51,-83.09 -231.69,-99.83 -183.39,-117.29 -153.38,-128.96 -61.77,-162.28 -35.18,-171.48 -29.62,-173.40 -22.96,-175.69 -15.49,-178.26 -14.57,-178.57 0.52,-184.64 7.08,-187.28" fill="none" stroke="#bcbcbc" stroke-width="8" stroke-linecap="round" stroke-linejoin="round" /><polyline points="35.96,1049.93 80.04,1104.30 107.02,1131.48 118.71,1139.89 135.25,1153.74 150.78,1166.78 164.13,1179.80 164.46,1186.43" fill="none" stroke="#bcbcbc" stroke-width="8" stroke-linecap="round" stroke-linejoin="round" /><polyline points="83.44,-204.27 100.72,-247.57 128.68,-318.86 168.74,-421.00 188.53,-469.38 218.03,-541.53 242.22,-600.63 246.55,-608.47 267.82,-643.25 269.20,-645.50 276.98,-660.80 290.62,-681.82 298.25,-693.55 309.03,-710.15" fill="none" stroke="#bcbcbc" stroke-width="8" stroke-linecap="round" stroke-linejoin="round" /><polyline points="-324.11,953.49 -326.94,955.75 -328.80,958.44 -332.62,969.68 -335.25,977.79 -347.42,1014.19 -349.09,1019.44 -350.13,1022.70 -361.31,1019.49 -388.51,1010.37 -415.47,1001.33 -436.30,1000.15" fill="none" stroke="#bcbcbc" stroke-width="8" stroke-linecap="round" stroke-linejoin="round" /><polyline points="-856.79,1206.75 -812.37,1092.03 -807.42,1079.54 -802.99,1067.51 -797.63,1052.98 -791.07,1030.12 -784.22,1001.70 -781.41,981.34 -779.37,966.55 -776.50,955.63 -766.04,873.61 -753.83,770.10 -747.51,720.75 -740.46,662.77 -727.75,562.57 -725.73,545.53 -712.89,440.73 -712.88,434.89 -710.04,403.80 -701.85,338.12 -699.80,326.66 -697.66,320.23 -694.31,313.16 -691.05,307.66 -683.86,299.88 -677.43,297.67" fill="none" stroke="#bcbcbc" stroke-width="8" stroke-linecap="round" stroke-linejoin="round" /><polyline points="112.95,335.45 115.38,339.30 123.52,352.02 135.72,371.57 138.66,376.23 143.52,372.54 167.11,354.63" fill="none" stroke="#bcbcbc" stroke-width="8" stroke-linecap="round" stroke-linejoin="round" /><polyline points="128.68,-318.86 368.69,-275.47 393.89,-262.20 487.93,-215.59 496.21,-218.15" fill="none" stroke="#bcbcbc" stroke-width="8" stroke-linecap="round" stroke-linejoin="round" /><polyline points="-329.53,224.95 -333.78,231.16 -372.07,249.85 -400.20,285.60 -430.54,304.39 -451.30,320.06 -471.10,336.21 -481.25,345.46 -499.18,368.21 -519.23,396.95 -522.54,402.28" fill="none" stroke="#bcbcbc" stroke-width="8" stroke-linecap="round" stroke-linejoin="round" /><polyline points="-289.04,250.59 -290.70,254.29 -294.34,259.59 -301.20,268.03 -341.64,319.13 -363.04,376.76 -471.05,336.16" fill="none" stroke="#bcbcbc" stroke-width="8" stroke-linecap="round" stroke-linejoin="round" /><polyline points="-451.30,320.06 -455.48,307.40 -473.55,252.67 -480.57,241.86 -492.31,206.62 -493.33,203.58 -491.60,198.07 -494.41,189.09 -550.89,8.76" fill="none" stroke="#bcbcbc" stroke-width="8" stroke-linecap="round" stroke-linejoin="round" /><polyline points="210.45,-663.87 255.09,-662.69 257.17,-662.63 265.72,-662.39 276.98,-660.80" fill="none" stroke="#bcbcbc" stroke-width="8" stroke-linecap="round" stroke-linejoin="round" /><polyline points="-19.12,790.11 -34.36,789.93 -163.41,807.25 -172.71,808.23 -183.34,809.35 -245.09,815.87 -328.29,824.66 -372.40,829.31 -396.79,831.88 -416.60,834.29 -426.78,835.53 -438.23,836.92 -493.58,843.65 -506.85,845.26 -547.72,849.73 -766.04,873.61" fill="none" stroke="#bcbcbc" stroke-width="8" stroke-linecap="round" stroke-linejoin="round" /><polyline points="-210.18,1238.17 -221.61,1234.49 -275.01,1217.30 -285.80,1213.83 -295.17,1210.81 -351.74,1192.63 -362.89,1189.05 -377.65,1184.30 -467.70,1155.32 -477.83,1152.06" fill="none" stroke="#bcbcbc" stroke-width="8" stroke-linecap="round" stroke-linejoin="round" /><polyline points="13.08,157.10 44.14,166.78 157.72,201.85 158.78,202.18 167.20,202.71" fill="none" stroke="#bcbcbc" stroke-width="8" stroke-linecap="round" stroke-linejoin="round" /><polyline points="332.66,-98.68 487.16,-95.96" fill="none" stroke="#bcbcbc" stroke-width="8" stroke-linecap="round" stroke-linejoin="round" /><polyline points="257.01,1258.71 234.92,1232.46 225.66,1221.68 217.69,1214.24 207.09,1206.32 185.42,1193.32 164.46,1186.43 121.80,1173.25 86.91,1162.18 107.02,1131.48" fill="none" stroke="#bcbcbc" stroke-width="8" stroke-linecap="round" stroke-linejoin="round" /><polyline points="35.96,1049.93 5.21,1011.97 -0.64,1004.74 -31.62,962.07 -38.63,949.04 -36.95,933.53 -27.61,933.44 -4.57,937.87 30.49,944.61" fill="none" stroke="#bcbcbc" stroke-width="8" stroke-linecap="round" stroke-linejoin="round" /><polyline points="-366.35,745.78 -360.68,757.98 -328.29,824.66 -280.13,923.80 -273.99,936.44" fill="none" stroke="#bcbcbc" stroke-width="8" stroke-linecap="round" stroke-linejoin="round" /><polyline points="-885.11,1047.78 -873.52,1052.52 -819.27,1074.70 -807.42,1079.54 -794.96,1084.64 -731.09,1110.76 -719.53,1115.48" fill="none" stroke="#bcbcbc" stroke-width="8" stroke-linecap="round" stroke-linejoin="round" /><polyline points="-339.69,646.92 -226.66,696.37" fill="none" stroke="#bcbcbc" stroke-width="8" stroke-linecap="round" stroke-linejoin="round" /><polyline points="-917.01,647.03 -740.46,662.77" fill="none" stroke="#bcbcbc" stroke-width="8" stroke-linecap="round" stroke-linejoin="round" /><polyline points="-522.81,1304.46 -517.34,1292.82 -515.93,1287.64 -508.26,1259.37 -480.49,1161.44 -477.83,1152.06 -475.02,1141.78 -462.44,1095.76 -441.19,1018.06 -436.30,1000.16" fill="none" stroke="#bcbcbc" stroke-width="8" stroke-linecap="round" stroke-linejoin="round" /><polyline points="-366.35,745.78 -339.69,646.92 -396.21,627.15 -411.01,635.88 -417.76,641.01 -422.75,647.77 -426.26,656.69 -439.26,704.74 -428.78,710.07 -418.18,712.65 -394.76,718.74 -377.23,724.33 -366.35,745.78" fill="none" stroke="#bcbcbc" stroke-width="8" stroke-linecap="round" stroke-linejoin="round" /><polyline points="-439.26,704.74 -451.64,703.01 -740.46,662.77" fill="none" stroke="#bcbcbc" stroke-width="8" stroke-linecap="round" stroke-linejoin="round" /><polyline points="30.49,944.61 57.27,950.47 129.73,973.49 149.98,979.90 198.07,993.79 246.51,1007.76 282.37,1018.12 339.72,1034.68 351.57,1038.10 380.51,1047.80 428.16,1060.50 432.36,1061.28" fill="none" stroke="#bcbcbc" stroke-width="8" stroke-linecap="round" stroke-linejoin="round" /><polyline points="64.47,1363.17 54.69,1365.62 44.12,1395.08 27.74,1390.42 -46.78,1365.03 -55.75,1363.11 -75.70,1361.68 -165.95,1362.04 -185.84,1359.51 -230.77,1352.64 -248.89,1349.70 -377.41,1328.97 -427.18,1321.03 -522.10,1304.59 -537.43,1301.55 -751.64,1241.67 -765.15,1237.89 -856.79,1206.75 -879.33,1198.75 -935.64,1175.41 -967.74,1163.27" fill="none" stroke="#bcbcbc" stroke-width="8" stroke-linecap="round" stroke-linejoin="round" /><polyline points="260.78,-220.68 251.51,-222.59 127.71,-207.96 83.44,-204.27" fill="none" stroke="#bcbcbc" stroke-width="8" stroke-linecap="round" stroke-linejoin="round" /><polyline points="30.49,944.61 34.83,937.35 60.81,870.63 89.83,769.73 97.24,748.00 101.20,742.09 129.23,652.13 130.62,641.38 131.68,634.37" fill="none" stroke="#bcbcbc" stroke-width="8" stroke-linecap="round" stroke-linejoin="round" /><polyline points="158.08,-30.00 161.03,-31.13 165.04,-34.31 171.13,-41.44 250.19,-154.87 271.24,-184.87" fill="none" stroke="#bcbcbc" stroke-width="8" stroke-linecap="round" stroke-linejoin="round" /><polyline points="509.91,386.68 511.53,382.02 551.27,335.27 554.18,333.72 561.08,324.27 584.20,297.72 591.39,291.10" fill="none" stroke="#bcbcbc" stroke-width="8" stroke-linecap="round" stroke-linejoin="round" /><polyline points="544.64,733.62 544.09,727.36 543.66,722.52 541.57,713.27 539.06,707.23 535.94,691.38 535.66,685.63 533.54,672.80 524.08,667.86 516.52,670.75 502.99,673.99 492.29,675.66 482.01,678.14 467.83,681.37 461.37,682.85" fill="none" stroke="#bcbcbc" stroke-width="8" stroke-linecap="round" stroke-linejoin="round" /><polyline points="-499.36,504.02 -470.46,436.27 -468.86,431.87" fill="none" stroke="#bcbcbc" stroke-width="8" stroke-linecap="round" stroke-linejoin="round" /><polyline points="262.26,379.79 276.19,374.40 283.47,371.58 289.10,365.88 312.32,360.15 320.12,362.14 336.92,357.81 349.75,354.50 352.80,352.80 365.23,349.75 428.80,334.18 443.21,329.87" fill="none" stroke="#bcbcbc" stroke-width="8" stroke-linecap="round" stroke-linejoin="round" /><polyline points="-324.11,953.49 -294.12,942.60 -284.09,939.53 -273.99,936.44 -255.35,930.75 -240.85,928.67 -191.34,923.25 -181.39,922.71 -137.09,923.09 -110.10,923.32 -99.95,922.80 -83.70,924.44 -78.61,925.17 -68.25,926.65 -36.95,933.53" fill="none" stroke="#bcbcbc" stroke-width="8" stroke-linecap="round" stroke-linejoin="round" /><polyline points="-181.23,63.19 -186.19,46.40 -204.64,-15.99 -227.06,-87.13 -231.69,-99.83 -236.38,-111.73 -242.32,-128.88" fill="none" stroke="#bcbcbc" stroke-width="8" stroke-linecap="round" stroke-linejoin="round" /><polyline points="-234.89,1069.14 -230.95,1056.69 -191.09,930.98 -191.34,923.25" fill="none" stroke="#bcbcbc" stroke-width="8" stroke-linecap="round" stroke-linejoin="round" /><polyline points="-181.39,922.71 -173.50,816.86 -172.71,808.23 -171.50,798.19 -171.48,797.73 -170.96,785.46 -168.33,752.14 -166.84,736.62 -164.81,718.99 -162.96,706.30 -161.30,698.33 -159.21,692.31 -155.11,678.73 -146.64,650.48 -135.88,613.99 -124.00,576.69 -121.58,569.08 -119.64,563.56" fill="none" stroke="#bcbcbc" stroke-width="8" stroke-linecap="round" stroke-linejoin="round" /><polyline points="-439.26,704.74 -441.36,714.12 -441.00,717.11 -428.14,824.19 -426.78,835.53 -427.37,847.19 -430.74,913.79 -432.15,941.61 -432.87,955.97 -434.16,981.55 -434.84,994.87 -436.30,1000.16" fill="none" stroke="#bcbcbc" stroke-width="8" stroke-linecap="round" stroke-linejoin="round" /><polyline points="-499.36,504.02 -546.12,490.12 -552.07,486.31 -581.17,477.83 -589.35,477.92 -625.91,466.90 -631.82,462.54 -665.09,452.46 -705.92,441.33 -706.12,441.31 -712.89,440.73" fill="none" stroke="#bcbcbc" stroke-width="8" stroke-linecap="round" stroke-linejoin="round" /><polyline points="352.80,352.80 354.42,354.93 361.20,365.04 373.74,383.72 385.54,395.54 408.22,421.01 404.39,444.54 402.44,453.36 399.74,457.10 405.42,465.51 414.22,483.61 431.80,517.53 440.46,534.24 445.84,549.25 448.27,556.22" fill="none" stroke="#bcbcbc" stroke-width="8" stroke-linecap="round" stroke-linejoin="round" /><polyline points="471.23,401.27 464.71,403.29 421.77,416.65 415.61,418.63 408.22,421.01" fill="none" stroke="#bcbcbc" stroke-width="8" stroke-linecap="round" stroke-linejoin="round" /><polyline points="162.65,482.61 176.08,478.26 273.55,428.49 286.59,422.11 332.53,408.84 377.07,396.32 385.54,395.54" fill="none" stroke="#bcbcbc" stroke-width="8" stroke-linecap="round" stroke-linejoin="round" /><polyline points="173.27,544.23 285.64,491.93 290.37,488.80 301.36,485.61 376.23,463.82 387.59,459.47 399.74,457.10" fill="none" stroke="#bcbcbc" stroke-width="8" stroke-linecap="round" stroke-linejoin="round" /><polyline points="150.34,-552.05 195.83,-546.43 200.40,-545.86 218.03,-541.53" fill="none" stroke="#bcbcbc" stroke-width="8" stroke-linecap="round" stroke-linejoin="round" /><polyline points="539.05,-89.59 547.12,-91.27 577.26,-76.50 581.23,-72.57 637.81,23.21 639.30,34.82 646.66,40.95 645.49,45.19 645.31,52.09 646.33,61.74 661.31,123.33 662.64,165.99 664.74,234.10 668.26,325.77 653.91,365.72 644.67,390.07 631.17,424.39 627.26,434.31 624.73,437.09 620.65,463.65" fill="none" stroke="#bcbcbc" stroke-width="8" stroke-linecap="round" stroke-linejoin="round" /><polyline points="643.66,625.43 629.90,619.44 595.51,595.44 550.14,563.56 525.19,543.39 508.36,525.36" fill="none" stroke="#bcbcbc" stroke-width="8" stroke-linecap="round" stroke-linejoin="round" /><polyline points="86.91,1162.18 73.40,1157.89 51.47,1150.94 41.00,1147.62 28.71,1143.72 13.18,1138.80 -0.86,1134.35 -14.74,1129.94 -76.65,1110.30 -87.49,1106.86 -100.95,1102.60 -103.92,1101.66 -139.33,1092.30 -149.32,1089.88 -161.86,1086.85 -174.97,1083.67 -222.22,1072.21 -234.89,1069.14 -248.51,1064.41 -276.96,1054.53 -287.69,1050.81 -297.28,1047.69 -341.83,1031.85 -347.44,1028.51 -350.13,1022.70" fill="none" stroke="#bcbcbc" stroke-width="8" stroke-linecap="round" stroke-linejoin="round" /><polyline points="290.37,488.80 287.09,477.04 277.31,441.97 273.55,428.49 268.11,418.41 267.61,416.54 264.40,404.66 268.13,399.41 263.65,384.44 262.26,379.79" fill="none" stroke="#bcbcbc" stroke-width="8" stroke-linecap="round" stroke-linejoin="round" /><polyline points="274.02,59.66 283.31,55.29 334.11,27.28 363.15,8.60 383.63,-5.37 388.15,-8.74 404.64,-20.19 421.72,-32.81 432.53,-40.68 445.43,-50.11 490.24,-70.33 496.05,-70.03 504.55,-74.04 539.05,-89.59" fill="none" stroke="#bcbcbc" stroke-width="8" stroke-linecap="round" stroke-linejoin="round" /><polyline points="-289.04,250.59 -281.71,253.57 -276.87,255.05 -186.03,282.96 -172.15,287.22" fill="none" stroke="#bcbcbc" stroke-width="8" stroke-linecap="round" stroke-linejoin="round" /><polyline points="-937.92,454.89 -1002.83,435.24" fill="none" stroke="#bcbcbc" stroke-width="8" stroke-linecap="round" stroke-linejoin="round" /><polyline points="110.45,-460.38 126.54,-439.99 128.94,-436.95 137.07,-426.66 146.32,-425.57 165.36,-423.34 168.74,-421.00" fill="none" stroke="#bcbcbc" stroke-width="8" stroke-linecap="round" stroke-linejoin="round" /><polyline points="669.24,446.34 643.75,451.09 617.60,465.30 593.36,478.79 570.44,490.26 542.74,505.30 522.68,517.48 483.05,538.73 328.31,616.58 288.20,634.25 261.69,645.71 248.56,650.01 237.70,652.04 219.91,653.11 194.60,649.53 131.44,634.37 41.78,613.47 -76.18,577.89 -119.64,563.56 -190.80,541.60 -258.85,519.15 -358.66,479.99 -408.56,458.50 -468.74,431.75 -568.55,377.07 -591.95,361.55 -651.17,324.30 -676.00,299.47 -713.25,251.23 -774.62,187.96 -798.73,166.70" fill="none" stroke="#bcbcbc" stroke-width="8" stroke-linecap="round" stroke-linejoin="round" /><polyline points="185.42,1193.32 186.47,1187.49 190.24,1177.96 225.64,1095.14 239.01,1064.09 254.77,1025.40 258.61,1011.25" fill="none" stroke="#bcbcbc" stroke-width="8" stroke-linecap="round" stroke-linejoin="round" /><polyline points="-493.58,843.65 -533.79,824.19 -625.28,779.91 -737.50,725.60 -747.51,720.75" fill="none" stroke="#bcbcbc" stroke-width="8" stroke-linecap="round" stroke-linejoin="round" /><polyline points="167.20,202.71 177.35,192.31 204.35,164.68 225.77,141.29" fill="none" stroke="#bcbcbc" stroke-width="8" stroke-linecap="round" stroke-linejoin="round" /><polyline points="-612.28,264.27 -623.43,249.51 -675.69,180.31 -750.30,119.93" fill="none" stroke="#bcbcbc" stroke-width="8" stroke-linecap="round" stroke-linejoin="round" /><polyline points="-936.04,1175.24 -925.84,1151.05 -893.40,1070.17 -889.47,1059.56 -885.11,1047.78 -883.45,1043.53 -883.02,1036.88 -878.86,974.00 -877.67,955.97" fill="none" stroke="#bcbcbc" stroke-width="8" stroke-linecap="round" stroke-linejoin="round" /><polyline points="-958.18,525.13 -937.92,454.89 -911.21,362.25 -907.90,350.78 -904.22,337.75 -895.99,308.58 -895.12,305.52 -892.77,296.14 -889.00,285.54 -888.09,282.97 -883.34,271.20 -874.02,250.63 -871.23,244.72" fill="none" stroke="#bcbcbc" stroke-width="8" stroke-linecap="round" stroke-linejoin="round" /><polyline points="-907.90,350.78 -866.92,361.26 -780.13,383.57 -730.67,398.97 -710.05,403.80" fill="none" stroke="#bcbcbc" stroke-width="8" stroke-linecap="round" stroke-linejoin="round" /><polyline points="-64.44,32.08 -63.05,23.55 -61.65,14.70 -55.63,-14.92 -40.62,-83.86 -28.28,-145.52 -26.03,-158.32 -22.96,-175.69 -22.96,-175.70" fill="none" stroke="#bcbcbc" stroke-width="8" stroke-linecap="round" stroke-linejoin="round" /><polyline points="-185.76,1359.52 -167.47,1312.86 -165.19,1304.47 -92.59,1120.16 -87.49,1106.86 -83.36,1095.58 -39.97,969.36 -31.62,962.07" fill="none" stroke="#bcbcbc" stroke-width="8" stroke-linecap="round" stroke-linejoin="round" /><polyline points="63.12,-3.61 63.11,-3.62 60.54,-17.12 60.14,-18.76 53.87,-44.27 53.87,-44.35 49.59,-61.64 31.48,-123.74 29.19,-130.39 16.96,-163.65 12.98,-173.58 10.41,-179.99 7.09,-187.26 7.08,-187.28 7.08,-187.31 4.65,-214.05 4.42,-227.18" fill="none" stroke="#bcbcbc" stroke-width="8" stroke-linecap="round" stroke-linejoin="round" /><polyline points="35.96,1049.93 31.30,1054.96 24.36,1063.22 4.80,1118.38 -0.86,1134.35" fill="none" stroke="#bcbcbc" stroke-width="8" stroke-linecap="round" stroke-linejoin="round" /><polyline points="-289.04,250.59 -286.37,243.35 -285.77,241.67 -273.06,206.19 -268.30,191.24 -229.37,76.76" fill="none" stroke="#bcbcbc" stroke-width="8" stroke-linecap="round" stroke-linejoin="round" /><polyline points="-87.65,411.09 -83.68,400.54 -72.92,371.96 -68.37,359.88 -65.29,351.70 -56.66,328.77 -50.96,313.62 -50.19,311.58 -36.37,274.88 -30.60,276.67 -27.47,268.15 -21.93,253.08 -22.99,246.23 -8.29,206.22 -6.79,202.11 -4.00,199.55 -1.66,197.40 13.08,157.10 15.21,146.07 36.36,87.32 41.36,83.40 51.54,54.62 49.73,50.20 58.64,23.32 54.02,-0.68" fill="none" stroke="#bcbcbc" stroke-width="8" stroke-linecap="round" stroke-linejoin="round" /><polyline points="290.62,-681.82 284.70,-691.54 253.56,-742.62" fill="none" stroke="#bcbcbc" stroke-width="8" stroke-linecap="round" stroke-linejoin="round" /><polyline points="388.15,-8.74 531.04,83.15 531.08,83.21 531.08,83.23 557.51,86.66" fill="none" stroke="#bcbcbc" stroke-width="8" stroke-linecap="round" stroke-linejoin="round" /><polyline points="330.85,-200.68 482.88,-124.37 487.47,-120.95 487.16,-95.97 490.24,-70.33" fill="none" stroke="#bcbcbc" stroke-width="8" stroke-linecap="round" stroke-linejoin="round" /><polyline points="41.00,1147.62 35.53,1164.30 13.38,1231.86 -24.29,1345.64 -26.97,1353.71 -29.68,1361.89 -30.43,1370.60" fill="none" stroke="#bcbcbc" stroke-width="8" stroke-linecap="round" stroke-linejoin="round" /><polyline points="468.99,737.22 469.90,728.75 470.09,720.84 470.03,720.56 464.64,697.27 462.43,687.54 461.37,682.85 460.28,678.05 454.36,652.00 442.81,599.93 434.42,568.63 433.23,563.80" fill="none" stroke="#bcbcbc" stroke-width="8" stroke-linecap="round" stroke-linejoin="round" /><polyline points="-285.80,1213.83 -282.03,1203.12 -239.70,1082.80 -234.89,1069.14" fill="none" stroke="#bcbcbc" stroke-width="8" stroke-linecap="round" stroke-linejoin="round" /><polyline points="664.74,234.10 652.28,230.58 567.70,100.79 557.51,86.66" fill="none" stroke="#bcbcbc" stroke-width="8" stroke-linecap="round" stroke-linejoin="round" /><polyline points="-725.73,545.53 -417.47,619.38 -396.21,627.15" fill="none" stroke="#bcbcbc" stroke-width="8" stroke-linecap="round" stroke-linejoin="round" /><polyline points="246.55,-608.47 366.63,-563.99 383.54,-566.88" fill="none" stroke="#bcbcbc" stroke-width="8" stroke-linecap="round" stroke-linejoin="round" />
    <polyline points="167.20,202.71 184.42,203.61 185.51,204.59 193.24,211.44 204.59,221.58 206.69,225.65 245.83,259.92 248.72,265.39 276.24,289.68 283.16,291.79 304.57,310.54 309.36,312.73 341.65,340.12 348.83,346.49 352.80,352.80" fill="none" stroke="#ffffff" stroke-width="16" stroke-linecap="round" stroke-linejoin="round" />
    <polyline points="167.20,202.71 184.42,203.61 185.51,204.59 193.24,211.44 204.59,221.58 206.69,225.65 245.83,259.92 248.72,265.39 276.24,289.68 283.16,291.79 304.57,310.54 309.36,312.73 341.65,340.12 348.83,346.49 352.80,352.80" fill="none" stroke="#111111" stroke-width="9" stroke-linecap="round" stroke-linejoin="round" />
    
            <g transform="translate(167.20,202.71)">
              <circle r="19" fill="#ffffff" stroke="#111111" stroke-width="4" />
              <text text-anchor="middle" dominant-baseline="central" font-family="Helvetica, Arial, sans-serif"
                font-size="18" font-weight="700" fill="#111111">1</text>
            </g>
            
            <g transform="translate(352.80,352.80)">
              <circle r="19" fill="#ffffff" stroke="#111111" stroke-width="4" />
              <text text-anchor="middle" dominant-baseline="central" font-family="Helvetica, Arial, sans-serif"
                font-size="18" font-weight="700" fill="#111111">2</text>
            </g>
            
  </g>
</svg>
