<svg xmlns="http://www.w3.org/2000/svg" width="520" height="520" viewBox="0 0 520 520">
  <rect width="100%" height="100%" fill="#ffffff" />
  <g>
    <polyline points="1697.87,-438.06 1700.87,-422.10 1720.23,-286.66 1717.27,-252.80" fill="none" stroke="#bcbcbc" stroke-width="8" stroke-linecap="round" stroke-linejoin="round" /><polyline points="1304.33,690.61 1309.01,676.22 1333.82,599.95 1336.74,590.96 1339.70,581.52 1402.06,382.65 1407.08,366.66 1395.59,338.37" fill="none" stroke="#bcbcbc" stroke-width="8" stroke-linecap="round" stroke-linejoin="round" /><polyline points="873.55,513.73 872.54,502.31 892.93,388.12 895.79,373.83 897.92,366.35 903.54,337.39 909.84,301.95 916.71,270.73 923.53,239.58 927.82,230.80 930.63,225.42" fill="none" stroke="#bcbcbc" stroke-width="8" stroke-linecap="round" stroke-linejoin="round" /><polyline points="991.89,-291.77 987.05,-306.55 936.94,-459.36 934.50,-465.77" fill="none" stroke="#bcbcbc" stroke-width="8" stroke-linecap="round" stroke-linejoin="round" /><polyline points="734.79,1053.14 736.29,1038.56 736.89,1031.87 742.35,971.54 748.32,918.41 749.71,906.00 751.01,891.12 751.15,889.87 754.54,860.28 757.46,830.21 760.67,801.18 762.84,778.58 763.74,764.64 764.54,751.76 765.96,737.25" fill="none" stroke="#bcbcbc" stroke-width="8" stroke-linecap="round" stroke-linejoin="round" /><polyline points="1427.13,726.07 1430.70,714.85 1455.84,635.81 1458.70,626.83 1462.76,614.04 1465.67,604.87 1487.92,508.89" fill="none" stroke="#bcbcbc" stroke-width="8" stroke-linecap="round" stroke-linejoin="round" /><polyline points="1329.39,-837.30 1338.68,-835.87 1594.54,-796.56" fill="none" stroke="#bcbcbc" stroke-width="8" stroke-linecap="round" stroke-linejoin="round" /><polyline points="672.55,707.45 645.92,706.21 629.68,705.45 620.86,705.04 613.12,704.68 552.81,701.88 468.93,697.98 428.95,692.31 415.57,690.41 403.96,688.36 325.32,674.48 314.33,672.54 311.89,672.12 298.32,669.80 287.88,668.01 221.25,662.12 208.56,661.00 203.91,660.58 189.50,659.59 161.29,657.63" fill="none" stroke="#bcbcbc" stroke-width="8" stroke-linecap="round" stroke-linejoin="round" /><polyline points="1059.45,630.18 1064.61,615.50 1111.10,486.66 1167.01,324.13 1170.60,313.94 1173.09,306.82 1175.12,300.97" fill="none" stroke="#bcbcbc" stroke-width="8" stroke-linecap="round" stroke-linejoin="round" /><polyline points="203.91,660.58 202.72,652.30 202.44,643.30 204.20,625.18 208.25,592.10 210.95,580.99 215.33,540.84 216.13,531.90 217.41,520.41 218.36,511.87 220.16,502.19 223.49,476.15 225.80,456.23 229.20,448.08" fill="none" stroke="#bcbcbc" stroke-width="8" stroke-linecap="round" stroke-linejoin="round" /><polyline points="156.33,437.90 218.33,446.56 229.20,448.08 235.93,449.15 263.72,453.58 327.76,463.78 338.74,465.61" fill="none" stroke="#bcbcbc" stroke-width="8" stroke-linecap="round" stroke-linejoin="round" /><polyline points="1297.37,-375.42 1297.78,-369.79 1298.61,-364.08 1300.62,-359.71 1304.39,-354.84 1311.37,-348.49 1327.89,-338.44 1455.37,-258.47 1533.88,-153.21 1593.18,-6.86 1597.05,2.81" fill="none" stroke="#bcbcbc" stroke-width="8" stroke-linecap="round" stroke-linejoin="round" /><polyline points="1276.96,51.59 1279.60,55.96 1280.29,57.10 1282.48,68.14 1297.43,140.46 1302.18,163.42 1305.58,179.76 1310.87,212.90 1313.35,228.18 1315.05,237.51 1316.92,245.93 1319.15,250.84 1322.42,256.53 1324.18,259.21 1357.30,306.63 1375.22,334.84 1379.89,341.59" fill="none" stroke="#bcbcbc" stroke-width="8" stroke-linecap="round" stroke-linejoin="round" /><polyline points="326.08,957.13 327.84,946.28 329.48,938.43 329.92,937.39 351.96,884.97 366.01,850.91 370.28,840.11 374.80,828.68 379.71,818.85 380.51,816.93 387.23,800.68 392.42,786.30 396.88,773.11 399.71,763.79 402.89,752.27 406.54,736.83 409.32,724.30 412.64,706.81 413.33,702.91 415.57,690.41" fill="none" stroke="#bcbcbc" stroke-width="8" stroke-linecap="round" stroke-linejoin="round" /><polyline points="1394.21,-506.68 1464.50,-457.56 1473.97,-455.55 1480.90,-447.62" fill="none" stroke="#bcbcbc" stroke-width="8" stroke-linecap="round" stroke-linejoin="round" /><polyline points="1099.03,-53.06 1108.32,-49.49 1148.66,-36.29 1242.22,-0.41 1247.47,4.82 1249.93,8.73" fill="none" stroke="#bcbcbc" stroke-width="8" stroke-linecap="round" stroke-linejoin="round" /><polyline points="1273.38,868.89 1279.75,852.29 1311.20,766.96 1333.44,702.48 1338.05,700.36" fill="none" stroke="#bcbcbc" stroke-width="8" stroke-linecap="round" stroke-linejoin="round" /><polyline points="828.77,760.69 833.74,749.72 834.23,748.63 842.72,720.15 856.63,673.27 860.19,661.27 862.96,651.95 863.33,646.52 862.77,634.49" fill="none" stroke="#bcbcbc" stroke-width="8" stroke-linecap="round" stroke-linejoin="round" /><polyline points="1406.89,55.34 1398.92,56.98 1380.85,53.77 1378.05,46.31 1346.74,34.38 1339.34,36.31 1311.09,25.94 1306.87,28.88" fill="none" stroke="#bcbcbc" stroke-width="8" stroke-linecap="round" stroke-linejoin="round" /><polyline points="1360.40,-913.14 1374.59,-909.66 1382.44,-908.30 1569.08,-875.94" fill="none" stroke="#bcbcbc" stroke-width="8" stroke-linecap="round" stroke-linejoin="round" /><polyline points="1215.34,816.93 1223.10,795.04 1238.19,752.50 1247.94,734.38 1261.97,695.10 1267.57,679.42" fill="none" stroke="#bcbcbc" stroke-width="8" stroke-linecap="round" stroke-linejoin="round" /><polyline points="192.69,-32.60 179.17,-33.22 175.78,-29.10 152.23,-0.49 69.91,94.61 58.33,107.98" fill="none" stroke="#bcbcbc" stroke-width="8" stroke-linecap="round" stroke-linejoin="round" /><polyline points="914.80,48.85 908.83,62.06 908.11,63.66 887.38,117.72 866.48,177.23 860.90,193.10 857.74,201.30" fill="none" stroke="#bcbcbc" stroke-width="8" stroke-linecap="round" stroke-linejoin="round" /><polyline points="1218.92,-558.61 1225.50,-549.68 1230.21,-537.39 1237.53,-519.75 1249.27,-492.01 1259.68,-467.11 1271.61,-439.77 1280.47,-418.70 1281.78,-415.67 1281.87,-415.49 1289.00,-398.82 1291.12,-394.08 1293.15,-389.57 1295.29,-385.35 1296.91,-381.05 1297.38,-375.42" fill="none" stroke="#bcbcbc" stroke-width="8" stroke-linecap="round" stroke-linejoin="round" /><polyline points="714.69,315.35 718.14,313.46 722.96,309.63 725.37,304.66 757.40,183.21 758.37,176.36 762.28,163.84" fill="none" stroke="#bcbcbc" stroke-width="8" stroke-linecap="round" stroke-linejoin="round" /><polyline points="1834.73,125.29 1839.28,139.71 1842.48,154.86 1836.25,212.58 1829.05,256.01 1825.12,270.82 1824.77,272.16 1821.33,280.15 1816.63,288.63 1805.67,302.49 1810.98,329.59 1793.81,387.76 1784.33,419.88 1764.94,472.46 1736.55,536.49 1701.87,597.84 1691.04,617.78 1671.46,650.54 1593.24,761.55 1576.11,784.65 1509.74,871.37 1471.64,914.72 1418.35,968.88 1413.41,969.39 1401.38,979.23" fill="none" stroke="#bcbcbc" stroke-width="8" stroke-linecap="round" stroke-linejoin="round" /><polyline points="869.56,1074.88 891.39,1007.16 894.97,995.98 899.82,988.94 910.25,957.64 913.64,947.01 956.72,812.14 961.05,798.58 964.62,786.66 1015.46,626.68" fill="none" stroke="#bcbcbc" stroke-width="8" stroke-linecap="round" stroke-linejoin="round" /><polyline points="1381.07,-184.47 1399.95,-205.09 1405.51,-211.80 1443.65,-265.82" fill="none" stroke="#bcbcbc" stroke-width="8" stroke-linecap="round" stroke-linejoin="round" /><polyline points="1003.79,-176.30 1055.77,-158.20 1058.65,-153.54 1073.41,-148.59 1082.17,-145.59 1124.07,-131.44" fill="none" stroke="#bcbcbc" stroke-width="8" stroke-linecap="round" stroke-linejoin="round" /><polyline points="1456.86,-535.99 1480.90,-447.62 1508.74,-343.52 1512.96,-334.85 1513.63,-324.94 1532.50,-289.71 1583.44,-194.73 1594.57,-178.30 1597.79,-173.49 1673.89,-31.22 1708.87,0.57 1713.77,6.90 1720.69,12.82 1787.10,69.60 1791.60,73.45 1803.53,79.78" fill="none" stroke="#bcbcbc" stroke-width="8" stroke-linecap="round" stroke-linejoin="round" /><polyline points="1198.60,1089.25 1364.21,993.06 1393.69,977.98 1401.38,979.23" fill="none" stroke="#bcbcbc" stroke-width="8" stroke-linecap="round" stroke-linejoin="round" /><polyline points="1378.16,951.63 1388.43,939.42 1480.68,755.36 1486.79,743.29 1491.90,731.34 1521.69,657.66 1530.57,635.46 1556.25,557.74 1572.90,457.82 1574.88,443.27" fill="none" stroke="#bcbcbc" stroke-width="8" stroke-linecap="round" stroke-linejoin="round" /><polyline points="1306.97,-130.81 1305.35,-129.15 1303.13,-121.41 1302.91,-120.64 1292.90,-82.09 1295.52,-72.03 1293.34,-63.01 1290.48,-51.20 1283.16,-42.71 1274.84,-9.04 1265.05,-1.64 1254.60,5.53 1249.93,8.73" fill="none" stroke="#bcbcbc" stroke-width="8" stroke-linecap="round" stroke-linejoin="round" /><polyline points="914.80,48.85 919.05,37.94 944.65,-27.67 950.23,-41.97 954.83,-53.76 987.52,-137.53 1002.25,-172.56 1003.79,-176.30 1015.24,-203.96 1040.91,-267.70 1050.31,-294.84 1052.40,-301.06 1055.21,-308.11" fill="none" stroke="#bcbcbc" stroke-width="8" stroke-linecap="round" stroke-linejoin="round" /><polyline points="1201.17,-348.83 1206.12,-334.10 1368.54,-195.38 1457.16,-118.27 1589.54,-3.20 1601.09,6.04 1606.27,9.27 1629.24,30.12 1659.91,56.29 1729.49,115.61 1751.97,134.94 1766.88,152.77" fill="none" stroke="#bcbcbc" stroke-width="8" stroke-linecap="round" stroke-linejoin="round" /><polyline points="1469.71,-587.87 1477.95,-593.15 1526.75,-613.43 1536.78,-623.98" fill="none" stroke="#bcbcbc" stroke-width="8" stroke-linecap="round" stroke-linejoin="round" /><polyline points="1526.08,646.69 1458.70,626.83 1336.74,590.96" fill="none" stroke="#bcbcbc" stroke-width="8" stroke-linecap="round" stroke-linejoin="round" /><polyline points="1308.58,-786.44 1317.79,-780.09 1617.69,-713.36" fill="none" stroke="#bcbcbc" stroke-width="8" stroke-linecap="round" stroke-linejoin="round" /><polyline points="1679.03,200.94 1663.53,166.46 1629.14,84.43 1626.57,77.91 1620.69,62.93 1598.52,6.52 1597.12,2.86" fill="none" stroke="#bcbcbc" stroke-width="8" stroke-linecap="round" stroke-linejoin="round" /><polyline points="1218.92,-558.61 1202.27,-563.35 1190.03,-566.99 1165.16,-574.38 1152.53,-577.98 1145.29,-579.99 1135.84,-582.70" fill="none" stroke="#bcbcbc" stroke-width="8" stroke-linecap="round" stroke-linejoin="round" /><polyline points="784.79,-107.43 783.95,-110.18 783.17,-112.11 779.74,-120.64 766.45,-151.63 753.81,-183.11 751.08,-190.55 747.94,-199.11 745.69,-206.11 741.98,-216.61 741.59,-217.72 729.50,-247.51 707.31,-303.50 702.32,-306.34 698.78,-315.42 691.70,-340.01 679.58,-370.49 676.97,-377.42" fill="none" stroke="#bcbcbc" stroke-width="8" stroke-linecap="round" stroke-linejoin="round" /><polyline points="891.39,1007.16 904.00,1011.02 944.77,1023.45 957.54,1027.34" fill="none" stroke="#bcbcbc" stroke-width="8" stroke-linecap="round" stroke-linejoin="round" /><polyline points="1652.83,-573.21 1655.21,-582.81 1654.24,-586.46 1653.08,-590.87 1645.63,-618.14 1629.04,-675.79 1620.28,-705.26 1617.69,-713.36 1594.54,-796.56 1582.05,-841.43 1569.08,-875.94 1557.37,-907.07 1545.72,-928.47 1534.39,-939.78 1447.41,-1046.05 1440.98,-1053.62 1436.71,-1060.61" fill="none" stroke="#bcbcbc" stroke-width="8" stroke-linecap="round" stroke-linejoin="round" /><polyline points="1297.38,-375.42 1292.89,-373.71 1284.60,-371.42 1283.77,-371.19 1249.13,-362.33 1209.30,-351.12 1201.17,-348.83 1197.55,-347.68 1187.98,-344.61 1179.80,-342.33 1144.09,-332.39 1085.35,-315.71 1063.46,-310.17 1055.21,-308.11 1016.07,-298.50 991.89,-291.77 940.69,-277.46 890.08,-263.20 884.22,-261.58 841.92,-249.84 822.41,-244.42 812.56,-239.77 793.91,-230.52 756.87,-211.72 754.29,-210.41 745.69,-206.11 740.45,-203.49 733.13,-199.65 707.10,-186.01 659.69,-159.40 620.08,-138.66 614.41,-135.69 606.85,-135.21 602.30,-132.80 601.39,-132.32 558.42,-108.77 549.43,-108.81 539.10,-103.41 535.49,-101.52 532.45,-99.93 525.26,-96.17 519.60,-83.26 495.28,-70.24 487.55,-66.09 479.19,-61.54 445.35,-43.13 427.86,-33.61 419.04,-31.07" fill="none" stroke="#bcbcbc" stroke-width="8" stroke-linecap="round" stroke-linejoin="round" /><polyline points="1784.33,419.88 1766.28,421.54 1709.88,426.70 1707.34,426.94 1703.74,427.27 1697.92,427.80 1643.23,432.82 1624.22,431.06 1602.07,436.61 1584.33,440.96 1574.88,443.27 1551.40,444.16 1531.08,443.13 1520.72,442.03 1511.90,439.36 1505.41,435.77 1481.23,418.68 1422.47,378.32 1416.94,374.57 1411.30,370.74 1407.08,366.66" fill="none" stroke="#bcbcbc" stroke-width="8" stroke-linecap="round" stroke-linejoin="round" /><polyline points="453.64,-261.37 474.95,-219.64 478.18,-207.71 496.14,-173.45 503.56,-163.65 533.57,-105.25 535.49,-101.52" fill="none" stroke="#bcbcbc" stroke-width="8" stroke-linecap="round" stroke-linejoin="round" /><polyline points="1106.95,109.77 1103.76,118.55 1102.86,121.27 1098.70,133.90 1072.33,207.48 1059.23,244.02 1058.79,245.27 1053.53,256.63 1050.51,263.37" fill="none" stroke="#bcbcbc" stroke-width="8" stroke-linecap="round" stroke-linejoin="round" /><polyline points="1456.86,-535.99 1453.94,-542.25 1446.25,-543.26 1421.39,-537.56 1416.34,-538.22 1412.38,-543.52 1405.35,-575.87 1443.45,-581.77 1461.09,-586.97 1469.71,-587.87 1479.00,-554.84" fill="none" stroke="#bcbcbc" stroke-width="8" stroke-linecap="round" stroke-linejoin="round" /><polyline points="1594.57,-178.30 1604.38,-183.81 1653.68,-213.52 1666.85,-221.36 1689.91,-235.11 1727.85,-259.64 1736.71,-266.01 1803.25,-307.29" fill="none" stroke="#bcbcbc" stroke-width="8" stroke-linecap="round" stroke-linejoin="round" /><polyline points="1827.19,16.68 1810.36,11.67 1800.58,3.65 1763.20,-28.69 1761.93,-29.83 1752.89,-37.90 1747.58,-47.31 1653.68,-213.52" fill="none" stroke="#bcbcbc" stroke-width="8" stroke-linecap="round" stroke-linejoin="round" /><polyline points="767.47,3.51 914.80,48.85 926.82,52.66 1036.76,87.51 1039.06,88.23 1055.53,93.46 1063.63,96.03 1074.15,98.90 1095.85,106.25 1106.95,109.77 1116.94,112.94 1198.76,138.89 1285.14,166.03 1292.28,168.27 1302.18,163.42" fill="none" stroke="#bcbcbc" stroke-width="8" stroke-linecap="round" stroke-linejoin="round" /><polyline points="1200.66,-723.82 1264.49,-782.46 1275.29,-792.38" fill="none" stroke="#bcbcbc" stroke-width="8" stroke-linecap="round" stroke-linejoin="round" /><polyline points="131.98,222.37 366.16,247.46" fill="none" stroke="#bcbcbc" stroke-width="8" stroke-linecap="round" stroke-linejoin="round" /><polyline points="838.42,-431.23 887.64,-448.83 938.41,-467.19 969.96,-479.45 1066.27,-514.47 1094.22,-524.14 1100.06,-526.16 1107.06,-528.57 1114.92,-531.27 1115.88,-531.60 1131.75,-537.98 1138.64,-540.75" fill="none" stroke="#bcbcbc" stroke-width="8" stroke-linecap="round" stroke-linejoin="round" /><polyline points="1169.00,759.76 1215.34,816.92 1243.71,845.49 1255.99,854.33 1273.38,868.89 1289.71,882.60 1303.74,896.29 1304.08,903.25" fill="none" stroke="#bcbcbc" stroke-width="8" stroke-linecap="round" stroke-linejoin="round" /><polyline points="1218.92,-558.61 1237.08,-604.13 1266.47,-679.07 1308.58,-786.44 1329.39,-837.30 1360.40,-913.14 1385.83,-975.26 1390.38,-983.50 1412.74,-1020.06 1414.19,-1022.42 1422.37,-1038.51 1436.71,-1060.61 1444.73,-1072.94 1456.06,-1090.38" fill="none" stroke="#bcbcbc" stroke-width="8" stroke-linecap="round" stroke-linejoin="round" /><polyline points="790.49,658.39 787.51,660.77 785.55,663.60 781.54,675.41 778.77,683.94 765.98,722.20 764.22,727.72 763.13,731.14 751.38,727.77 722.78,718.19 694.45,708.68 672.55,707.45" fill="none" stroke="#bcbcbc" stroke-width="8" stroke-linecap="round" stroke-linejoin="round" /><polyline points="230.51,924.61 277.21,804.02 282.41,790.90 287.07,778.25 292.70,762.97 299.60,738.94 306.80,709.07 309.75,687.67 311.89,672.12 314.92,660.65 325.91,574.42 338.74,465.61 345.39,413.74 352.80,352.80 366.16,247.46 368.28,229.55 381.78,119.39 381.79,113.26 384.77,80.57 393.39,11.53 395.55,-0.52 397.80,-7.27 401.32,-14.71 404.74,-20.48 412.30,-28.66 419.06,-30.98" fill="none" stroke="#bcbcbc" stroke-width="8" stroke-linecap="round" stroke-linejoin="round" /><polyline points="1249.93,8.73 1252.49,12.78 1261.05,26.14 1273.87,46.69 1276.96,51.59 1282.07,47.71 1306.87,28.88" fill="none" stroke="#bcbcbc" stroke-width="8" stroke-linecap="round" stroke-linejoin="round" /><polyline points="1266.47,-679.07 1518.78,-633.46 1545.28,-619.51 1644.13,-570.51 1652.83,-573.21" fill="none" stroke="#bcbcbc" stroke-width="8" stroke-linecap="round" stroke-linejoin="round" /><polyline points="784.79,-107.43 780.31,-100.90 740.06,-81.25 710.50,-43.68 678.60,-23.93 656.78,-7.46 635.96,9.52 625.29,19.25 606.44,43.16 585.36,73.37 581.89,78.97" fill="none" stroke="#bcbcbc" stroke-width="8" stroke-linecap="round" stroke-linejoin="round" /><polyline points="827.35,-80.47 825.60,-76.59 821.78,-71.02 814.57,-62.14 772.05,-8.43 749.56,52.15 636.01,9.48" fill="none" stroke="#bcbcbc" stroke-width="8" stroke-linecap="round" stroke-linejoin="round" /><polyline points="656.78,-7.45 652.38,-20.76 633.38,-78.29 626.01,-89.65 613.66,-126.69 612.59,-129.89 614.41,-135.69 611.46,-145.13 552.09,-334.68" fill="none" stroke="#bcbcbc" stroke-width="8" stroke-linecap="round" stroke-linejoin="round" /><polyline points="1352.44,-1041.73 1399.36,-1040.49 1401.55,-1040.43 1410.54,-1040.18 1422.37,-1038.51" fill="none" stroke="#bcbcbc" stroke-width="8" stroke-linecap="round" stroke-linejoin="round" /><polyline points="1111.10,486.66 1095.08,486.46 959.42,504.67 949.64,505.70 938.46,506.88 873.55,513.73 786.09,522.97 739.72,527.86 714.07,530.56 693.25,533.09 682.56,534.39 670.51,535.86 612.33,542.93 598.38,544.62 555.41,549.32 325.91,574.42" fill="none" stroke="#bcbcbc" stroke-width="8" stroke-linecap="round" stroke-linejoin="round" /><polyline points="910.25,957.64 898.23,953.77 842.10,935.71 830.75,932.05 820.90,928.89 761.44,909.77 749.71,906.00 734.20,901.01 639.54,870.55 628.88,867.12" fill="none" stroke="#bcbcbc" stroke-width="8" stroke-linecap="round" stroke-linejoin="round" /><polyline points="1144.95,-178.75 1177.60,-168.58 1297.00,-131.71 1298.11,-131.36 1306.97,-130.81" fill="none" stroke="#bcbcbc" stroke-width="8" stroke-linecap="round" stroke-linejoin="round" /><polyline points="1480.90,-447.62 1643.32,-444.77" fill="none" stroke="#bcbcbc" stroke-width="8" stroke-linecap="round" stroke-linejoin="round" /><polyline points="1401.38,979.23 1378.16,951.63 1368.42,940.30 1360.05,932.48 1348.90,924.16 1326.12,910.50 1304.08,903.25 1259.24,889.40 1222.56,877.76 1243.71,845.49" fill="none" stroke="#bcbcbc" stroke-width="8" stroke-linecap="round" stroke-linejoin="round" /><polyline points="1169.00,759.76 1136.67,719.86 1130.52,712.27 1097.96,667.41 1090.59,653.71 1092.36,637.41 1102.18,637.31 1126.39,641.97 1163.25,649.06" fill="none" stroke="#bcbcbc" stroke-width="8" stroke-linecap="round" stroke-linejoin="round" /><polyline points="746.08,440.05 752.04,452.88 786.09,522.97 836.72,627.19 843.17,640.48" fill="none" stroke="#bcbcbc" stroke-width="8" stroke-linecap="round" stroke-linejoin="round" /><polyline points="200.74,757.51 212.92,762.49 269.95,785.80 282.41,790.90 295.51,796.25 362.65,823.71 374.80,828.68" fill="none" stroke="#bcbcbc" stroke-width="8" stroke-linecap="round" stroke-linejoin="round" /><polyline points="774.10,336.13 892.93,388.12" fill="none" stroke="#bcbcbc" stroke-width="8" stroke-linecap="round" stroke-linejoin="round" /><polyline points="1306.97,-130.81 1325.06,-129.86 1326.22,-128.83 1334.34,-121.63 1346.28,-110.98 1348.48,-106.69 1389.62,-70.67 1392.66,-64.92 1421.59,-39.39 1428.87,-37.17 1451.37,-17.46 1456.42,-15.16 1490.35,13.63 1497.91,20.33 1502.08,26.96" fill="none" stroke="#bcbcbc" stroke-width="8" stroke-linecap="round" stroke-linejoin="round" /><polyline points="581.60,1027.33 587.36,1015.09 588.83,1009.64 596.90,979.92 626.09,876.98 628.88,867.12 631.84,856.31 645.07,807.95 667.40,726.27 672.55,707.45" fill="none" stroke="#bcbcbc" stroke-width="8" stroke-linecap="round" stroke-linejoin="round" /><polyline points="746.08,440.05 774.10,336.13 714.69,315.35 699.13,324.53 692.04,329.93 686.79,337.03 683.10,346.41 669.43,396.91 680.45,402.52 691.59,405.22 716.22,411.63 734.65,417.50 746.08,440.05" fill="none" stroke="#bcbcbc" stroke-width="8" stroke-linecap="round" stroke-linejoin="round" /><polyline points="669.43,396.91 656.42,395.09 352.80,352.80" fill="none" stroke="#bcbcbc" stroke-width="8" stroke-linecap="round" stroke-linejoin="round" /><polyline points="1163.25,649.06 1191.41,655.21 1267.57,679.42 1288.87,686.15 1339.42,700.75 1390.34,715.44 1428.03,726.33 1488.32,743.73 1500.78,747.34 1531.20,757.53 1581.30,770.88 1585.71,771.70" fill="none" stroke="#bcbcbc" stroke-width="8" stroke-linecap="round" stroke-linejoin="round" /><polyline points="1198.97,1089.04 1188.69,1091.62 1177.58,1122.58 1160.36,1117.69 1082.02,1090.99 1072.59,1088.98 1051.62,1087.48 956.75,1087.86 935.84,1085.19 888.61,1077.97 869.56,1074.88 734.45,1053.09 682.13,1044.74 582.35,1027.46 566.24,1024.26 341.05,961.33 326.84,957.35 230.51,924.61 206.81,916.20 147.62,891.67 113.87,878.91" fill="none" stroke="#bcbcbc" stroke-width="8" stroke-linecap="round" stroke-linejoin="round" /><polyline points="1405.35,-575.87 1395.60,-577.88 1265.45,-562.49 1218.92,-558.61" fill="none" stroke="#bcbcbc" stroke-width="8" stroke-linecap="round" stroke-linejoin="round" /><polyline points="1163.25,649.06 1167.81,641.43 1195.12,571.29 1225.64,465.23 1233.42,442.39 1237.58,436.17 1267.05,341.61 1268.51,330.32 1269.62,322.94" fill="none" stroke="#bcbcbc" stroke-width="8" stroke-linecap="round" stroke-linejoin="round" /><polyline points="1297.38,-375.42 1300.48,-376.61 1304.70,-379.96 1311.10,-387.45 1394.21,-506.68 1416.34,-538.22" fill="none" stroke="#bcbcbc" stroke-width="8" stroke-linecap="round" stroke-linejoin="round" /><polyline points="1667.24,62.57 1668.94,57.68 1710.71,8.54 1713.77,6.90 1721.03,-3.03 1745.33,-30.94 1752.89,-37.90" fill="none" stroke="#bcbcbc" stroke-width="8" stroke-linecap="round" stroke-linejoin="round" /><polyline points="1703.74,427.27 1703.16,420.69 1702.71,415.60 1700.51,405.88 1697.88,399.53 1694.60,382.87 1694.30,376.83 1692.08,363.34 1682.14,358.14 1674.19,361.18 1659.97,364.59 1648.71,366.35 1637.91,368.95 1623.00,372.35 1616.20,373.90" fill="none" stroke="#bcbcbc" stroke-width="8" stroke-linecap="round" stroke-linejoin="round" /><polyline points="606.25,185.92 636.63,114.71 638.32,110.08" fill="none" stroke="#bcbcbc" stroke-width="8" stroke-linecap="round" stroke-linejoin="round" /><polyline points="1406.89,55.34 1421.54,49.67 1429.19,46.70 1435.12,40.71 1459.53,34.69 1467.72,36.78 1485.39,32.23 1498.87,28.75 1502.08,26.96 1515.15,23.76 1581.97,7.39 1597.12,2.86" fill="none" stroke="#bcbcbc" stroke-width="8" stroke-linecap="round" stroke-linejoin="round" /><polyline points="790.49,658.39 822.01,646.94 832.56,643.72 843.17,640.48 862.77,634.49 878.01,632.30 930.06,626.61 940.52,626.04 987.09,626.43 1015.46,626.68 1026.13,626.13 1043.22,627.86 1048.56,628.63 1059.45,630.18 1092.36,637.41" fill="none" stroke="#bcbcbc" stroke-width="8" stroke-linecap="round" stroke-linejoin="round" /><polyline points="940.69,-277.46 935.47,-295.12 916.07,-360.70 892.51,-435.48 887.64,-448.83 882.70,-461.34 876.46,-479.37" fill="none" stroke="#bcbcbc" stroke-width="8" stroke-linecap="round" stroke-linejoin="round" /><polyline points="884.27,779.96 888.41,766.88 930.32,634.73 930.06,626.61" fill="none" stroke="#bcbcbc" stroke-width="8" stroke-linecap="round" stroke-linejoin="round" /><polyline points="940.52,626.04 948.81,514.77 949.64,505.70 950.91,495.14 950.93,494.67 951.48,481.76 954.25,446.74 955.81,430.43 957.94,411.90 959.89,398.56 961.63,390.18 963.83,383.85 968.14,369.58 977.04,339.87 988.36,301.52 1000.84,262.31 1003.39,254.31 1005.43,248.51" fill="none" stroke="#bcbcbc" stroke-width="8" stroke-linecap="round" stroke-linejoin="round" /><polyline points="669.43,396.91 667.22,406.77 667.60,409.92 681.12,522.47 682.56,534.39 681.93,546.66 678.39,616.66 676.91,645.91 676.15,661.00 674.79,687.88 674.08,701.89 672.55,707.45" fill="none" stroke="#bcbcbc" stroke-width="8" stroke-linecap="round" stroke-linejoin="round" /><polyline points="606.25,185.92 557.10,171.31 550.85,167.30 520.25,158.39 511.66,158.48 473.22,146.90 467.01,142.32 432.03,131.72 389.11,120.02 388.90,120.00 381.78,119.39" fill="none" stroke="#bcbcbc" stroke-width="8" stroke-linecap="round" stroke-linejoin="round" /><polyline points="1502.08,26.96 1503.78,29.20 1510.91,39.83 1524.09,59.47 1536.49,71.89 1560.34,98.66 1556.31,123.40 1554.26,132.67 1551.42,136.60 1557.39,145.44 1566.64,164.47 1585.13,200.13 1594.23,217.69 1599.89,233.47 1602.44,240.80" fill="none" stroke="#bcbcbc" stroke-width="8" stroke-linecap="round" stroke-linejoin="round" /><polyline points="1626.57,77.91 1619.72,80.04 1574.58,94.09 1568.10,96.16 1560.34,98.66" fill="none" stroke="#bcbcbc" stroke-width="8" stroke-linecap="round" stroke-linejoin="round" /><polyline points="1302.18,163.42 1316.30,158.84 1418.76,106.52 1432.48,99.82 1480.77,85.87 1527.59,72.71 1536.49,71.89" fill="none" stroke="#bcbcbc" stroke-width="8" stroke-linecap="round" stroke-linejoin="round" /><polyline points="1313.35,228.18 1431.47,173.22 1436.45,169.93 1448.00,166.57 1526.71,143.66 1538.65,139.09 1551.42,136.60" fill="none" stroke="#bcbcbc" stroke-width="8" stroke-linecap="round" stroke-linejoin="round" /><polyline points="1289.24,-924.19 1337.06,-918.28 1341.86,-917.69 1360.40,-913.14" fill="none" stroke="#bcbcbc" stroke-width="8" stroke-linecap="round" stroke-linejoin="round" /><polyline points="1697.87,-438.06 1706.35,-439.83 1738.04,-424.30 1742.21,-420.17 1801.69,-319.49 1803.25,-307.29 1810.99,-300.84 1809.76,-296.39 1809.57,-289.14 1810.65,-278.99 1826.40,-214.25 1827.79,-169.41 1830.00,-97.81 1833.70,-1.45 1818.62,40.54 1808.90,66.14 1794.71,102.22 1790.60,112.65 1787.93,115.56 1783.65,143.48" fill="none" stroke="#bcbcbc" stroke-width="8" stroke-linecap="round" stroke-linejoin="round" /><polyline points="1807.84,313.54 1793.37,307.25 1757.22,282.02 1709.53,248.51 1683.30,227.30 1665.60,208.35" fill="none" stroke="#bcbcbc" stroke-width="8" stroke-linecap="round" stroke-linejoin="round" /><polyline points="1222.56,877.76 1208.36,873.26 1185.31,865.95 1174.30,862.46 1161.38,858.36 1145.05,853.19 1130.29,848.51 1115.70,843.88 1050.63,823.23 1039.23,819.61 1025.07,815.13 1021.95,814.14 984.73,804.31 974.22,801.77 961.05,798.58 947.27,795.24 897.59,783.19 884.27,779.96 869.96,774.99 840.05,764.61 828.77,760.69 818.69,757.42 771.86,740.77 765.96,737.25 763.13,731.14" fill="none" stroke="#bcbcbc" stroke-width="8" stroke-linecap="round" stroke-linejoin="round" /><polyline points="1436.45,169.93 1433.00,157.56 1422.72,120.70 1418.76,106.52 1413.05,95.93 1412.52,93.96 1409.15,81.48 1413.07,75.95 1408.36,60.22 1406.89,55.34" fill="none" stroke="#bcbcbc" stroke-width="8" stroke-linecap="round" stroke-linejoin="round" /><polyline points="1419.26,-281.17 1429.03,-285.78 1482.43,-315.22 1512.96,-334.85 1534.49,-349.53 1539.24,-353.08 1556.57,-365.12 1574.52,-378.38 1585.89,-386.65 1599.45,-396.57 1646.56,-417.82 1652.67,-417.50 1661.60,-421.72 1697.87,-438.06" fill="none" stroke="#bcbcbc" stroke-width="8" stroke-linecap="round" stroke-linejoin="round" /><polyline points="827.35,-80.47 835.05,-77.35 840.14,-75.78 935.64,-46.45 950.23,-41.97" fill="none" stroke="#bcbcbc" stroke-width="8" stroke-linecap="round" stroke-linejoin="round" /><polyline points="145.22,134.28 76.99,113.63" fill="none" stroke="#bcbcbc" stroke-width="8" stroke-linecap="round" stroke-linejoin="round" /><polyline points="1247.31,-827.83 1264.22,-806.40 1266.75,-803.20 1275.29,-792.38 1285.02,-791.24 1305.03,-788.89 1308.58,-786.44" fill="none" stroke="#bcbcbc" stroke-width="8" stroke-linecap="round" stroke-linejoin="round" /><polyline points="1834.73,125.29 1807.93,130.29 1780.44,145.22 1754.96,159.40 1730.87,171.45 1701.75,187.27 1680.66,200.07 1638.99,222.41 1476.34,304.24 1434.17,322.81 1406.30,334.86 1392.50,339.38 1381.08,341.51 1362.38,342.64 1335.77,338.88 1269.37,322.94 1175.12,300.97 1051.12,263.57 1005.43,248.51 930.63,225.42 859.09,201.83 754.16,160.66 701.70,138.07 638.45,109.96 533.52,52.47 508.92,36.16 446.67,-3.00 420.56,-29.10 381.40,-79.80 316.89,-146.32 291.54,-168.66" fill="none" stroke="#bcbcbc" stroke-width="8" stroke-linecap="round" stroke-linejoin="round" /><polyline points="1326.12,910.50 1327.22,904.36 1331.19,894.35 1368.40,807.29 1382.46,774.66 1399.02,733.99 1403.06,719.11" fill="none" stroke="#bcbcbc" stroke-width="8" stroke-linecap="round" stroke-linejoin="round" /><polyline points="612.33,542.93 570.06,522.47 473.89,475.93 355.92,418.84 345.39,413.74" fill="none" stroke="#bcbcbc" stroke-width="8" stroke-linecap="round" stroke-linejoin="round" /><polyline points="1306.97,-130.81 1317.64,-141.74 1346.02,-170.79 1368.54,-195.37" fill="none" stroke="#bcbcbc" stroke-width="8" stroke-linecap="round" stroke-linejoin="round" /><polyline points="487.55,-66.09 475.83,-81.62 420.89,-154.36 342.46,-217.82" fill="none" stroke="#bcbcbc" stroke-width="8" stroke-linecap="round" stroke-linejoin="round" /><polyline points="147.20,891.49 157.92,866.06 192.02,781.05 196.16,769.89 200.74,757.51 202.48,753.04 202.94,746.05 207.31,679.96 208.56,661.00" fill="none" stroke="#bcbcbc" stroke-width="8" stroke-linecap="round" stroke-linejoin="round" /><polyline points="123.93,208.11 145.22,134.28 173.31,36.89 176.78,24.84 180.65,11.14 189.30,-19.52 190.21,-22.74 192.69,-32.60 196.65,-43.74 197.60,-46.44 202.60,-58.82 212.40,-80.44 215.33,-86.64" fill="none" stroke="#bcbcbc" stroke-width="8" stroke-linecap="round" stroke-linejoin="round" /><polyline points="176.78,24.84 219.86,35.85 311.10,59.31 363.09,75.49 384.77,80.57" fill="none" stroke="#bcbcbc" stroke-width="8" stroke-linecap="round" stroke-linejoin="round" /><polyline points="1063.46,-310.17 1064.92,-319.14 1066.40,-328.44 1072.71,-359.58 1088.50,-432.04 1101.47,-496.86 1103.84,-510.31 1107.06,-528.57 1107.06,-528.58" fill="none" stroke="#bcbcbc" stroke-width="8" stroke-linecap="round" stroke-linejoin="round" /><polyline points="935.92,1085.21 955.15,1036.15 957.54,1027.34 1033.87,833.59 1039.23,819.61 1043.57,807.76 1089.18,675.07 1097.96,667.41" fill="none" stroke="#bcbcbc" stroke-width="8" stroke-linecap="round" stroke-linejoin="round" /><polyline points="1197.55,-347.68 1197.55,-347.70 1194.84,-361.89 1194.42,-363.61 1187.83,-390.42 1187.83,-390.51 1183.33,-408.69 1164.29,-473.96 1161.89,-480.95 1149.02,-515.92 1144.84,-526.36 1142.15,-533.09 1138.65,-540.74 1138.64,-540.75 1138.64,-540.78 1136.09,-568.90 1135.84,-582.70" fill="none" stroke="#bcbcbc" stroke-width="8" stroke-linecap="round" stroke-linejoin="round" /><polyline points="1169.00,759.76 1164.10,765.06 1156.81,773.74 1136.24,831.72 1130.29,848.51" fill="none" stroke="#bcbcbc" stroke-width="8" stroke-linecap="round" stroke-linejoin="round" /><polyline points="827.35,-80.47 830.16,-88.09 830.79,-89.85 844.14,-127.15 849.15,-142.86 890.08,-263.20" fill="none" stroke="#bcbcbc" stroke-width="8" stroke-linecap="round" stroke-linejoin="round" /><polyline points="1039.06,88.23 1043.23,77.14 1054.54,47.10 1059.32,34.40 1062.56,25.81 1071.64,1.70 1077.63,-14.22 1078.44,-16.37 1092.96,-54.94 1099.03,-53.06 1102.32,-62.02 1108.14,-77.86 1107.03,-85.06 1122.48,-127.12 1124.07,-131.44 1127.00,-134.13 1129.46,-136.39 1144.95,-178.75 1147.19,-190.34 1169.42,-252.11 1174.68,-256.22 1185.38,-286.48 1183.48,-291.12 1192.84,-319.38 1187.98,-344.61" fill="none" stroke="#bcbcbc" stroke-width="8" stroke-linecap="round" stroke-linejoin="round" /><polyline points="1436.71,-1060.61 1430.49,-1070.83 1397.76,-1124.52" fill="none" stroke="#bcbcbc" stroke-width="8" stroke-linecap="round" stroke-linejoin="round" /><polyline points="1539.24,-353.08 1689.45,-256.49 1689.49,-256.42 1689.49,-256.41 1717.27,-252.80" fill="none" stroke="#bcbcbc" stroke-width="8" stroke-linecap="round" stroke-linejoin="round" /><polyline points="1479.00,-554.84 1638.82,-474.62 1643.64,-471.03 1643.32,-444.77 1646.56,-417.82" fill="none" stroke="#bcbcbc" stroke-width="8" stroke-linecap="round" stroke-linejoin="round" /><polyline points="1174.30,862.46 1168.55,879.99 1145.27,951.01 1105.66,1070.61 1102.85,1079.09 1100.00,1087.69 1099.21,1096.85" fill="none" stroke="#bcbcbc" stroke-width="8" stroke-linecap="round" stroke-linejoin="round" /><polyline points="1624.22,431.06 1625.17,422.15 1625.38,413.83 1625.31,413.54 1619.65,389.07 1617.32,378.84 1616.20,373.90 1615.06,368.86 1608.84,341.47 1596.70,286.74 1587.87,253.84 1586.62,248.76" fill="none" stroke="#bcbcbc" stroke-width="8" stroke-linecap="round" stroke-linejoin="round" /><polyline points="830.75,932.05 834.72,920.79 879.22,794.32 884.27,779.96" fill="none" stroke="#bcbcbc" stroke-width="8" stroke-linecap="round" stroke-linejoin="round" /><polyline points="1830.00,-97.81 1816.90,-101.51 1727.99,-237.95 1717.27,-252.80" fill="none" stroke="#bcbcbc" stroke-width="8" stroke-linecap="round" stroke-linejoin="round" /><polyline points="368.28,229.55 692.34,307.19 714.69,315.35" fill="none" stroke="#bcbcbc" stroke-width="8" stroke-linecap="round" stroke-linejoin="round" /><polyline points="1390.38,-983.50 1516.61,-936.74 1534.39,-939.78" fill="none" stroke="#bcbcbc" stroke-width="8" stroke-linecap="round" stroke-linejoin="round" />
    <polyline points="167.20,336.25 352.80,352.80" fill="none" stroke="#ffffff" stroke-width="16" stroke-linecap="round" stroke-linejoin="round" />
    <polyline points="167.20,336.25 352.80,352.80" fill="none" stroke="#111111" stroke-width="9" stroke-linecap="round" stroke-linejoin="round" />
    
            <g transform="translate(167.20,336.25)">
              <circle r="19" fill="#ffffff" stroke="#111111" stroke-width="4" />
              <text text-anchor="middle" dominant-baseline="central" font-family="Helvetica, Arial, sans-serif"
                font-size="18" font-weight="700" fill="#111111">1</text>
            </g>
            
            <g transform="translate(352.80,352.80)">
              <circle r="19" fill="#ffffff" stroke="#111111" stroke-width="4" />
              <text text-anchor="middle" dominant-baseline="central" font-family="Helvetica, Arial, sans-serif"
                font-size="18" font-weight="700" fill="#111111">2</text>
            </g>
            
  </g>
</svg>
