<svg xmlns="http://www.w3.org/2000/svg" width="520" height="520" viewBox="0 0 520 520">
  <rect width="100%" height="100%" fill="#ffffff" />
  <g>
    <polyline points="814.92,-497.44 816.66,-488.18 827.90,-409.59 826.18,-389.95" fill="none" stroke="#bcbcbc" stroke-width="8" stroke-linecap="round" stroke-linejoin="round" /><polyline points="586.57,157.43 589.28,149.08 603.68,104.83 605.37,99.61 607.09,94.14 643.28,-21.25 646.19,-30.53 639.52,-46.94" fill="none" stroke="#bcbcbc" stroke-width="8" stroke-linecap="round" stroke-linejoin="round" /><polyline points="336.60,54.80 336.02,48.18 347.85,-18.08 349.51,-26.37 350.75,-30.71 354.00,-47.51 357.66,-68.08 361.65,-86.19 365.60,-104.26 368.09,-109.35 369.72,-112.48" fill="none" stroke="#bcbcbc" stroke-width="8" stroke-linecap="round" stroke-linejoin="round" /><polyline points="405.27,-412.56 402.46,-421.13 373.39,-509.80 371.97,-513.51" fill="none" stroke="#bcbcbc" stroke-width="8" stroke-linecap="round" stroke-linejoin="round" /><polyline points="256.09,367.78 256.96,359.32 257.31,355.44 260.47,320.43 263.94,289.60 264.75,282.41 265.50,273.77 265.58,273.04 267.55,255.88 269.24,238.43 271.11,221.59 272.36,208.48 272.89,200.38 273.35,192.91 274.17,184.49" fill="none" stroke="#bcbcbc" stroke-width="8" stroke-linecap="round" stroke-linejoin="round" /><polyline points="657.82,178.01 659.89,171.50 674.48,125.64 676.14,120.43 678.50,113.01 680.19,107.69 693.10,52.00" fill="none" stroke="#bcbcbc" stroke-width="8" stroke-linecap="round" stroke-linejoin="round" /><polyline points="601.11,-729.08 606.50,-728.25 754.96,-705.44" fill="none" stroke="#bcbcbc" stroke-width="8" stroke-linecap="round" stroke-linejoin="round" /><polyline points="219.97,167.20 204.52,166.48 195.09,166.04 189.98,165.80 185.48,165.60 150.49,163.97 101.82,161.70 78.62,158.42 70.86,157.31 64.12,156.13 18.49,148.07 12.11,146.95 10.70,146.71 2.82,145.35 -3.23,144.32 -41.90,140.90 -49.26,140.25 -51.96,140.01 -60.32,139.43 -76.69,138.30" fill="none" stroke="#bcbcbc" stroke-width="8" stroke-linecap="round" stroke-linejoin="round" /><polyline points="444.47,122.37 447.47,113.85 474.44,39.09 506.89,-55.20 508.97,-61.12 510.42,-65.25 511.59,-68.64" fill="none" stroke="#bcbcbc" stroke-width="8" stroke-linecap="round" stroke-linejoin="round" /><polyline points="-51.96,140.01 -52.65,135.20 -52.82,129.98 -51.79,119.47 -49.44,100.27 -47.88,93.83 -45.33,70.54 -44.87,65.35 -44.13,58.68 -43.57,53.72 -42.53,48.11 -40.60,33.00 -39.26,21.44 -37.29,16.71" fill="none" stroke="#bcbcbc" stroke-width="8" stroke-linecap="round" stroke-linejoin="round" /><polyline points="-79.57,10.81 -43.59,15.83 -37.29,16.71 -33.38,17.33 -17.25,19.90 19.90,25.82 26.28,26.89" fill="none" stroke="#bcbcbc" stroke-width="8" stroke-linecap="round" stroke-linejoin="round" /><polyline points="582.53,-461.10 582.76,-457.83 583.25,-454.51 584.42,-451.98 586.60,-449.15 590.65,-445.47 600.24,-439.64 674.21,-393.23 719.77,-332.16 754.18,-247.25 756.42,-241.64" fill="none" stroke="#bcbcbc" stroke-width="8" stroke-linecap="round" stroke-linejoin="round" /><polyline points="570.69,-213.33 572.22,-210.80 572.62,-210.14 573.89,-203.73 582.57,-161.77 585.32,-148.45 587.29,-138.97 590.36,-119.74 591.80,-110.87 592.79,-105.46 593.87,-100.58 595.17,-97.73 597.07,-94.43 598.08,-92.87 617.30,-65.36 627.70,-48.99 630.41,-45.08" fill="none" stroke="#bcbcbc" stroke-width="8" stroke-linecap="round" stroke-linejoin="round" /><polyline points="18.93,312.07 19.95,305.77 20.90,301.22 21.16,300.62 33.95,270.20 42.10,250.44 44.58,244.17 47.20,237.54 50.05,231.84 50.51,230.72 54.41,221.30 57.43,212.95 60.01,205.30 61.66,199.89 63.50,193.21 65.62,184.25 67.23,176.98 69.15,166.83 69.56,164.57 70.86,157.31" fill="none" stroke="#bcbcbc" stroke-width="8" stroke-linecap="round" stroke-linejoin="round" /><polyline points="638.72,-537.25 679.51,-508.75 685.00,-507.59 689.02,-502.99" fill="none" stroke="#bcbcbc" stroke-width="8" stroke-linecap="round" stroke-linejoin="round" /><polyline points="467.44,-274.06 472.83,-271.98 496.24,-264.33 550.53,-243.51 553.57,-240.47 555.00,-238.21" fill="none" stroke="#bcbcbc" stroke-width="8" stroke-linecap="round" stroke-linejoin="round" /><polyline points="568.61,260.87 572.30,251.24 590.56,201.73 603.46,164.32 606.14,163.09" fill="none" stroke="#bcbcbc" stroke-width="8" stroke-linecap="round" stroke-linejoin="round" /><polyline points="310.62,198.09 313.50,191.73 313.79,191.10 318.71,174.57 326.79,147.37 328.85,140.41 330.46,135.00 330.67,131.85 330.35,124.87" fill="none" stroke="#bcbcbc" stroke-width="8" stroke-linecap="round" stroke-linejoin="round" /><polyline points="646.08,-211.16 641.45,-210.21 630.97,-212.07 629.34,-216.40 611.18,-223.32 606.88,-222.20 590.49,-228.22 588.04,-226.51" fill="none" stroke="#bcbcbc" stroke-width="8" stroke-linecap="round" stroke-linejoin="round" /><polyline points="619.10,-773.08 627.34,-771.07 631.89,-770.28 740.19,-751.50" fill="none" stroke="#bcbcbc" stroke-width="8" stroke-linecap="round" stroke-linejoin="round" /><polyline points="534.93,230.72 539.43,218.02 548.19,193.34 553.85,182.83 561.99,160.04 565.24,150.94" fill="none" stroke="#bcbcbc" stroke-width="8" stroke-linecap="round" stroke-linejoin="round" /><polyline points="-58.47,-262.18 -66.31,-262.54 -68.28,-260.15 -81.95,-243.55 -129.72,-188.38 -136.43,-180.62" fill="none" stroke="#bcbcbc" stroke-width="8" stroke-linecap="round" stroke-linejoin="round" /><polyline points="360.54,-214.93 357.08,-207.26 356.66,-206.33 344.63,-174.97 332.50,-140.44 329.27,-131.23 327.43,-126.47" fill="none" stroke="#bcbcbc" stroke-width="8" stroke-linecap="round" stroke-linejoin="round" /><polyline points="537.01,-567.38 540.83,-562.20 543.56,-555.07 547.80,-544.84 554.62,-528.74 560.66,-514.29 567.58,-498.43 572.72,-486.20 573.49,-484.45 573.53,-484.34 577.67,-474.67 578.90,-471.92 580.08,-469.30 581.32,-466.85 582.26,-464.36 582.53,-461.09" fill="none" stroke="#bcbcbc" stroke-width="8" stroke-linecap="round" stroke-linejoin="round" /><polyline points="244.42,-60.30 246.42,-61.39 249.22,-63.62 250.62,-66.50 269.21,-136.97 269.77,-140.95 272.04,-148.21" fill="none" stroke="#bcbcbc" stroke-width="8" stroke-linecap="round" stroke-linejoin="round" /><polyline points="894.34,-170.58 896.98,-162.21 898.83,-153.42 895.22,-119.92 891.04,-94.73 888.76,-86.14 888.56,-85.36 886.56,-80.72 883.84,-75.80 877.48,-67.76 880.56,-52.04 870.59,-18.29 865.09,0.35 853.84,30.86 837.36,68.01 817.24,103.60 810.96,115.18 799.60,134.18 754.21,198.59 744.27,211.99 705.76,262.31 683.65,287.46 652.73,318.89 649.86,319.18 642.88,324.89" fill="none" stroke="#bcbcbc" stroke-width="8" stroke-linecap="round" stroke-linejoin="round" /><polyline points="334.29,380.39 346.96,341.10 349.03,334.61 351.85,330.52 357.90,312.37 359.87,306.20 384.86,227.95 387.38,220.08 389.45,213.16 418.95,120.34" fill="none" stroke="#bcbcbc" stroke-width="8" stroke-linecap="round" stroke-linejoin="round" /><polyline points="631.10,-350.30 642.05,-362.27 645.28,-366.16 667.41,-397.50" fill="none" stroke="#bcbcbc" stroke-width="8" stroke-linecap="round" stroke-linejoin="round" /><polyline points="412.18,-345.56 442.34,-335.06 444.01,-332.35 452.57,-329.48 457.66,-327.74 481.97,-319.53" fill="none" stroke="#bcbcbc" stroke-width="8" stroke-linecap="round" stroke-linejoin="round" /><polyline points="675.08,-554.26 689.02,-502.99 705.18,-442.59 707.62,-437.55 708.01,-431.80 718.96,-411.36 748.52,-356.25 754.98,-346.72 756.85,-343.93 801.01,-261.39 821.30,-242.94 824.15,-239.26 828.16,-235.83 866.70,-202.89 869.31,-200.65 876.23,-196.98" fill="none" stroke="#bcbcbc" stroke-width="8" stroke-linecap="round" stroke-linejoin="round" /><polyline points="525.22,388.73 621.31,332.91 638.42,324.17 642.88,324.89" fill="none" stroke="#bcbcbc" stroke-width="8" stroke-linecap="round" stroke-linejoin="round" /><polyline points="629.41,308.88 635.37,301.79 688.90,195.00 692.44,188.00 695.40,181.07 712.69,138.31 717.84,125.43 732.75,80.34 742.41,22.36 743.55,13.92" fill="none" stroke="#bcbcbc" stroke-width="8" stroke-linecap="round" stroke-linejoin="round" /><polyline points="588.10,-319.17 587.16,-318.21 585.87,-313.71 585.74,-313.27 579.93,-290.90 581.46,-285.06 580.19,-279.83 578.53,-272.98 574.28,-268.05 569.46,-248.51 563.77,-244.22 557.71,-240.06 555.00,-238.21" fill="none" stroke="#bcbcbc" stroke-width="8" stroke-linecap="round" stroke-linejoin="round" /><polyline points="360.54,-214.93 363.01,-221.26 377.86,-259.32 381.10,-267.62 383.76,-274.46 402.74,-323.07 411.28,-343.39 412.18,-345.56 418.82,-361.61 433.72,-398.59 439.17,-414.34 440.38,-417.95 442.02,-422.04" fill="none" stroke="#bcbcbc" stroke-width="8" stroke-linecap="round" stroke-linejoin="round" /><polyline points="526.71,-445.67 529.58,-437.12 623.82,-356.63 675.25,-311.89 752.06,-245.13 758.77,-239.77 761.77,-237.89 775.10,-225.79 792.90,-210.61 833.27,-176.19 846.31,-164.98 854.96,-154.63" fill="none" stroke="#bcbcbc" stroke-width="8" stroke-linecap="round" stroke-linejoin="round" /><polyline points="682.53,-584.36 687.31,-587.42 715.63,-599.19 721.45,-605.31" fill="none" stroke="#bcbcbc" stroke-width="8" stroke-linecap="round" stroke-linejoin="round" /><polyline points="715.24,131.95 676.14,120.43 605.37,99.61" fill="none" stroke="#bcbcbc" stroke-width="8" stroke-linecap="round" stroke-linejoin="round" /><polyline points="589.03,-699.57 594.37,-695.89 768.40,-657.17" fill="none" stroke="#bcbcbc" stroke-width="8" stroke-linecap="round" stroke-linejoin="round" /><polyline points="803.99,-126.68 795.00,-146.69 775.04,-194.28 773.55,-198.07 770.14,-206.75 757.27,-239.49 756.46,-241.61" fill="none" stroke="#bcbcbc" stroke-width="8" stroke-linecap="round" stroke-linejoin="round" /><polyline points="537.01,-567.38 527.34,-570.13 520.25,-572.24 505.82,-576.53 498.48,-578.62 494.28,-579.79 488.80,-581.36" fill="none" stroke="#bcbcbc" stroke-width="8" stroke-linecap="round" stroke-linejoin="round" /><polyline points="285.10,-305.60 284.61,-307.20 284.16,-308.32 282.17,-313.27 274.46,-331.25 267.12,-349.51 265.54,-353.83 263.72,-358.79 262.41,-362.86 260.26,-368.95 260.03,-369.59 253.02,-386.88 240.14,-419.36 237.25,-421.01 235.19,-426.28 231.08,-440.55 224.05,-458.23 222.53,-462.25" fill="none" stroke="#bcbcbc" stroke-width="8" stroke-linecap="round" stroke-linejoin="round" /><polyline points="346.96,341.10 354.27,343.34 377.93,350.55 385.34,352.81" fill="none" stroke="#bcbcbc" stroke-width="8" stroke-linecap="round" stroke-linejoin="round" /><polyline points="788.79,-575.85 790.17,-581.42 789.61,-583.54 788.93,-586.10 784.61,-601.92 774.98,-635.37 769.90,-652.47 768.40,-657.17 754.96,-705.44 747.72,-731.48 740.19,-751.50 733.40,-769.56 726.63,-781.98 720.06,-788.54 669.59,-850.20 665.86,-854.59 663.38,-858.65" fill="none" stroke="#bcbcbc" stroke-width="8" stroke-linecap="round" stroke-linejoin="round" /><polyline points="582.53,-461.09 579.93,-460.10 575.12,-458.77 574.64,-458.64 554.54,-453.50 531.43,-446.99 526.71,-445.67 524.61,-445.00 519.06,-443.21 514.31,-441.89 493.59,-436.13 459.50,-426.45 446.80,-423.24 442.02,-422.04 419.30,-416.46 405.27,-412.56 375.56,-404.26 346.19,-395.98 342.80,-395.04 318.25,-388.23 306.93,-385.08 301.21,-382.38 290.39,-377.02 268.90,-366.11 267.40,-365.35 262.41,-362.86 259.37,-361.33 255.12,-359.11 240.02,-351.19 212.51,-335.76 189.53,-323.72 186.24,-322.00 181.85,-321.72 179.21,-320.32 178.68,-320.04 153.75,-306.38 148.53,-306.40 142.53,-303.27 140.44,-302.17 138.68,-301.25 134.51,-299.07 131.22,-291.58 117.11,-284.02 112.63,-281.62 107.77,-278.98 88.14,-268.29 77.99,-262.77 72.87,-261.30" fill="none" stroke="#bcbcbc" stroke-width="8" stroke-linecap="round" stroke-linejoin="round" /><polyline points="865.09,0.35 854.62,1.31 821.89,4.31 820.42,4.45 818.33,4.64 814.95,4.95 783.22,7.86 772.18,6.84 759.33,10.06 749.04,12.58 743.55,13.92 729.93,14.44 718.14,13.84 712.13,13.20 707.01,11.65 703.24,9.57 689.21,-0.35 655.12,-23.76 651.91,-25.94 648.63,-28.16 646.19,-30.53" fill="none" stroke="#bcbcbc" stroke-width="8" stroke-linecap="round" stroke-linejoin="round" /><polyline points="92.94,-394.92 105.32,-370.71 107.19,-363.79 117.61,-343.91 121.91,-338.22 139.33,-304.34 140.44,-302.17" fill="none" stroke="#bcbcbc" stroke-width="8" stroke-linecap="round" stroke-linejoin="round" /><polyline points="472.04,-179.58 470.18,-174.49 469.66,-172.90 467.25,-165.58 451.94,-122.89 444.35,-101.68 444.09,-100.96 441.04,-94.37 439.29,-90.46" fill="none" stroke="#bcbcbc" stroke-width="8" stroke-linecap="round" stroke-linejoin="round" /><polyline points="675.08,-554.26 673.38,-557.89 668.92,-558.48 654.49,-555.17 651.56,-555.55 649.26,-558.63 645.18,-577.40 667.29,-580.82 677.53,-583.84 682.53,-584.36 687.92,-565.19" fill="none" stroke="#bcbcbc" stroke-width="8" stroke-linecap="round" stroke-linejoin="round" /><polyline points="754.98,-346.72 760.68,-349.92 789.28,-367.15 796.92,-371.70 810.31,-379.68 832.32,-393.92 837.46,-397.61 876.07,-421.56" fill="none" stroke="#bcbcbc" stroke-width="8" stroke-linecap="round" stroke-linejoin="round" /><polyline points="889.96,-233.59 880.20,-236.50 874.52,-241.15 852.83,-259.92 852.09,-260.58 846.85,-265.26 843.77,-270.72 789.28,-367.15" fill="none" stroke="#bcbcbc" stroke-width="8" stroke-linecap="round" stroke-linejoin="round" /><polyline points="275.05,-241.23 360.54,-214.93 367.51,-212.72 431.31,-192.50 432.64,-192.07 442.20,-189.04 446.90,-187.55 453.00,-185.88 465.60,-181.62 472.04,-179.58 477.83,-177.74 525.31,-162.68 575.43,-146.94 579.57,-145.63 585.32,-148.45" fill="none" stroke="#bcbcbc" stroke-width="8" stroke-linecap="round" stroke-linejoin="round" /><polyline points="526.41,-663.24 563.45,-697.26 569.72,-703.02" fill="none" stroke="#bcbcbc" stroke-width="8" stroke-linecap="round" stroke-linejoin="round" /><polyline points="-93.70,-114.25 42.19,-99.69" fill="none" stroke="#bcbcbc" stroke-width="8" stroke-linecap="round" stroke-linejoin="round" /><polyline points="316.22,-493.47 344.78,-503.69 374.24,-514.34 392.54,-521.45 448.43,-541.77 464.65,-547.38 468.04,-548.55 472.10,-549.95 476.66,-551.52 477.22,-551.71 486.42,-555.41 490.43,-557.02" fill="none" stroke="#bcbcbc" stroke-width="8" stroke-linecap="round" stroke-linejoin="round" /><polyline points="508.04,197.56 534.93,230.72 551.39,247.29 558.52,252.42 568.61,260.87 578.08,268.83 586.22,276.77 586.42,280.81" fill="none" stroke="#bcbcbc" stroke-width="8" stroke-linecap="round" stroke-linejoin="round" /><polyline points="537.01,-567.38 547.54,-593.79 564.60,-637.27 589.03,-699.57 601.11,-729.08 619.10,-773.08 633.86,-809.13 636.50,-813.91 649.47,-835.12 650.31,-836.49 655.06,-845.83 663.38,-858.65 668.03,-865.80 674.61,-875.92" fill="none" stroke="#bcbcbc" stroke-width="8" stroke-linecap="round" stroke-linejoin="round" /><polyline points="288.41,138.74 286.68,140.12 285.54,141.76 283.21,148.61 281.61,153.56 274.18,175.76 273.16,178.96 272.53,180.95 265.71,178.99 249.12,173.43 232.68,167.92 219.97,167.20" fill="none" stroke="#bcbcbc" stroke-width="8" stroke-linecap="round" stroke-linejoin="round" /><polyline points="-36.52,293.20 -9.43,223.23 -6.41,215.62 -3.71,208.28 -0.44,199.42 3.57,185.47 7.74,168.14 9.46,155.73 10.70,146.71 12.45,140.05 18.83,90.02 26.28,26.89 30.13,-3.21 34.43,-38.57 42.19,-99.69 43.42,-110.08 51.25,-174.00 51.26,-177.56 52.99,-196.52 57.98,-236.58 59.24,-243.57 60.54,-247.49 62.59,-251.80 64.57,-255.15 68.96,-259.90 72.88,-261.25" fill="none" stroke="#bcbcbc" stroke-width="8" stroke-linecap="round" stroke-linejoin="round" /><polyline points="555.00,-238.21 556.48,-235.86 561.45,-228.10 568.89,-216.18 570.69,-213.33 573.65,-215.59 588.04,-226.51" fill="none" stroke="#bcbcbc" stroke-width="8" stroke-linecap="round" stroke-linejoin="round" /><polyline points="564.60,-637.27 711.00,-610.81 726.38,-602.72 783.74,-574.29 788.79,-575.85" fill="none" stroke="#bcbcbc" stroke-width="8" stroke-linecap="round" stroke-linejoin="round" /><polyline points="285.10,-305.60 282.50,-301.81 259.15,-290.41 241.99,-268.61 223.48,-257.15 210.82,-247.59 198.74,-237.74 192.55,-232.10 181.61,-218.23 169.38,-200.70 167.37,-197.45" fill="none" stroke="#bcbcbc" stroke-width="8" stroke-linecap="round" stroke-linejoin="round" /><polyline points="309.79,-289.96 308.78,-287.71 306.57,-284.47 302.38,-279.32 277.71,-248.16 264.66,-213.01 198.77,-237.77" fill="none" stroke="#bcbcbc" stroke-width="8" stroke-linecap="round" stroke-linejoin="round" /><polyline points="210.82,-247.59 208.27,-255.32 197.24,-288.69 192.97,-295.29 185.80,-316.78 185.18,-318.63 186.24,-322.00 184.52,-327.47 150.07,-437.46" fill="none" stroke="#bcbcbc" stroke-width="8" stroke-linecap="round" stroke-linejoin="round" /><polyline points="614.48,-847.69 641.71,-846.98 642.98,-846.94 648.20,-846.79 655.06,-845.83" fill="none" stroke="#bcbcbc" stroke-width="8" stroke-linecap="round" stroke-linejoin="round" /><polyline points="474.44,39.09 465.15,38.98 386.43,49.55 380.76,50.14 374.27,50.83 336.60,54.80 285.85,60.16 258.95,63.00 244.07,64.57 231.98,66.04 225.78,66.79 218.79,67.64 185.03,71.74 176.94,72.73 152.00,75.45 18.83,90.02" fill="none" stroke="#bcbcbc" stroke-width="8" stroke-linecap="round" stroke-linejoin="round" /><polyline points="357.90,312.37 350.92,310.12 318.35,299.64 311.77,297.52 306.05,295.68 271.55,284.59 264.75,282.41 255.75,279.51 200.82,261.84 194.63,259.85" fill="none" stroke="#bcbcbc" stroke-width="8" stroke-linecap="round" stroke-linejoin="round" /><polyline points="494.09,-346.98 513.03,-341.08 582.31,-319.69 582.96,-319.49 588.10,-319.17" fill="none" stroke="#bcbcbc" stroke-width="8" stroke-linecap="round" stroke-linejoin="round" /><polyline points="689.02,-502.99 783.27,-501.33" fill="none" stroke="#bcbcbc" stroke-width="8" stroke-linecap="round" stroke-linejoin="round" /><polyline points="642.88,324.89 629.41,308.88 623.75,302.31 618.90,297.77 612.43,292.94 599.21,285.01 586.42,280.81 560.40,272.77 539.12,266.02 551.39,247.29" fill="none" stroke="#bcbcbc" stroke-width="8" stroke-linecap="round" stroke-linejoin="round" /><polyline points="508.04,197.56 489.28,174.40 485.71,170.00 466.82,143.97 462.54,136.02 463.57,126.56 469.27,126.51 483.32,129.21 504.70,133.32" fill="none" stroke="#bcbcbc" stroke-width="8" stroke-linecap="round" stroke-linejoin="round" /><polyline points="262.64,12.05 266.10,19.50 285.85,60.16 315.23,120.63 318.98,128.34" fill="none" stroke="#bcbcbc" stroke-width="8" stroke-linecap="round" stroke-linejoin="round" /><polyline points="-53.80,196.25 -46.73,199.14 -13.64,212.66 -6.41,215.62 1.19,218.73 40.15,234.66 47.20,237.54" fill="none" stroke="#bcbcbc" stroke-width="8" stroke-linecap="round" stroke-linejoin="round" /><polyline points="278.90,-48.24 347.85,-18.08" fill="none" stroke="#bcbcbc" stroke-width="8" stroke-linecap="round" stroke-linejoin="round" /><polyline points="588.10,-319.17 598.60,-318.62 599.27,-318.02 603.98,-313.84 610.91,-307.66 612.19,-305.17 636.06,-284.27 637.82,-280.93 654.61,-266.12 658.83,-264.83 671.89,-253.40 674.82,-252.06 694.51,-235.36 698.89,-231.47 701.31,-227.62" fill="none" stroke="#bcbcbc" stroke-width="8" stroke-linecap="round" stroke-linejoin="round" /><polyline points="-73.26,-48.17 34.43,-38.57" fill="none" stroke="#bcbcbc" stroke-width="8" stroke-linecap="round" stroke-linejoin="round" /><polyline points="262.64,12.05 278.90,-48.24 244.42,-60.30 235.40,-54.97 231.28,-51.84 228.23,-47.72 226.09,-42.28 218.16,-12.98 224.56,-9.72 231.02,-8.15 245.31,-4.43 256.00,-1.03 262.64,12.05" fill="none" stroke="#bcbcbc" stroke-width="8" stroke-linecap="round" stroke-linejoin="round" /><polyline points="218.16,-12.98 210.61,-14.03 34.43,-38.57" fill="none" stroke="#bcbcbc" stroke-width="8" stroke-linecap="round" stroke-linejoin="round" /><polyline points="504.70,133.32 521.04,136.89 565.24,150.94 577.60,154.85 606.93,163.32 636.47,171.84 658.35,178.16 693.33,188.25 700.56,190.34 718.21,196.26 747.28,204.00 749.84,204.48" fill="none" stroke="#bcbcbc" stroke-width="8" stroke-linecap="round" stroke-linejoin="round" /><polyline points="525.43,388.60 519.47,390.10 513.02,408.06 503.03,405.23 457.57,389.74 452.10,388.57 439.93,387.70 384.88,387.92 372.75,386.37 345.34,382.18 334.29,380.39 255.89,367.75 225.53,362.90 167.63,352.87 158.28,351.02 27.62,314.50 19.37,312.20 -36.52,293.20 -50.28,288.32 -84.63,274.09 -104.20,266.68" fill="none" stroke="#bcbcbc" stroke-width="8" stroke-linecap="round" stroke-linejoin="round" /><polyline points="645.18,-577.40 639.53,-578.56 564.01,-569.63 537.01,-567.38" fill="none" stroke="#bcbcbc" stroke-width="8" stroke-linecap="round" stroke-linejoin="round" /><polyline points="504.70,133.32 507.35,128.90 523.20,88.20 540.90,26.67 545.42,13.41 547.84,9.80 564.93,-45.06 565.78,-51.62 566.43,-55.90" fill="none" stroke="#bcbcbc" stroke-width="8" stroke-linecap="round" stroke-linejoin="round" /><polyline points="582.53,-461.09 584.34,-461.78 586.78,-463.73 590.50,-468.07 638.72,-537.25 651.56,-555.55" fill="none" stroke="#bcbcbc" stroke-width="8" stroke-linecap="round" stroke-linejoin="round" /><polyline points="797.15,-206.96 798.13,-209.80 822.37,-238.32 824.15,-239.26 828.36,-245.03 842.46,-261.22 846.85,-265.26" fill="none" stroke="#bcbcbc" stroke-width="8" stroke-linecap="round" stroke-linejoin="round" /><polyline points="818.33,4.64 817.99,0.82 817.73,-2.13 816.46,-7.77 814.93,-11.46 813.03,-21.13 812.85,-24.63 811.56,-32.46 805.79,-35.47 801.18,-33.71 792.93,-31.73 786.40,-30.71 780.13,-29.20 771.48,-27.23 767.53,-26.33" fill="none" stroke="#bcbcbc" stroke-width="8" stroke-linecap="round" stroke-linejoin="round" /><polyline points="181.50,-135.40 199.13,-176.71 200.11,-179.40" fill="none" stroke="#bcbcbc" stroke-width="8" stroke-linecap="round" stroke-linejoin="round" /><polyline points="646.08,-211.16 654.58,-214.45 659.02,-216.17 662.46,-219.65 676.62,-223.14 681.37,-221.93 691.63,-224.57 699.45,-226.59 701.31,-227.62 708.89,-229.48 747.67,-238.98 756.46,-241.61" fill="none" stroke="#bcbcbc" stroke-width="8" stroke-linecap="round" stroke-linejoin="round" /><polyline points="288.41,138.74 306.70,132.09 312.82,130.22 318.98,128.34 330.35,124.87 339.19,123.60 369.39,120.30 375.46,119.96 402.48,120.20 418.95,120.34 425.14,120.02 435.05,121.02 438.15,121.47 444.47,122.37 463.57,126.56" fill="none" stroke="#bcbcbc" stroke-width="8" stroke-linecap="round" stroke-linejoin="round" /><polyline points="375.56,-404.26 372.53,-414.50 361.28,-452.55 347.60,-495.94 344.78,-503.69 341.92,-510.95 338.29,-521.41" fill="none" stroke="#bcbcbc" stroke-width="8" stroke-linecap="round" stroke-linejoin="round" /><polyline points="342.82,209.27 345.23,201.68 369.55,125.01 369.39,120.30" fill="none" stroke="#bcbcbc" stroke-width="8" stroke-linecap="round" stroke-linejoin="round" /><polyline points="375.46,119.96 380.28,55.41 380.76,50.14 381.49,44.02 381.51,43.74 381.82,36.26 383.43,15.93 384.34,6.47 385.57,-4.28 386.70,-12.02 387.72,-16.88 388.99,-20.56 391.49,-28.84 396.66,-46.07 403.22,-68.32 410.47,-91.07 411.94,-95.71 413.13,-99.08" fill="none" stroke="#bcbcbc" stroke-width="8" stroke-linecap="round" stroke-linejoin="round" /><polyline points="218.16,-12.98 216.88,-7.26 217.10,-5.43 224.95,59.88 225.78,66.79 225.42,73.91 223.36,114.53 222.50,131.50 222.06,140.25 221.27,155.85 220.86,163.97 219.97,167.20" fill="none" stroke="#bcbcbc" stroke-width="8" stroke-linecap="round" stroke-linejoin="round" /><polyline points="181.50,-135.40 152.98,-143.87 149.35,-146.20 131.60,-151.37 126.61,-151.32 104.31,-158.03 100.70,-160.69 80.41,-166.84 55.50,-173.63 55.38,-173.64 51.25,-174.00" fill="none" stroke="#bcbcbc" stroke-width="8" stroke-linecap="round" stroke-linejoin="round" /><polyline points="701.31,-227.62 702.30,-226.33 706.44,-220.16 714.08,-208.77 721.28,-201.56 735.12,-186.03 732.78,-171.67 731.59,-166.29 729.94,-164.01 733.41,-158.88 738.78,-147.84 749.50,-127.15 754.78,-116.96 758.07,-107.81 759.55,-103.56" fill="none" stroke="#bcbcbc" stroke-width="8" stroke-linecap="round" stroke-linejoin="round" /><polyline points="773.55,-198.07 769.57,-196.83 743.38,-188.68 739.62,-187.47 735.12,-186.03" fill="none" stroke="#bcbcbc" stroke-width="8" stroke-linecap="round" stroke-linejoin="round" /><polyline points="585.32,-148.45 593.51,-151.11 652.97,-181.46 660.92,-185.35 688.95,-193.44 716.12,-201.08 721.28,-201.56" fill="none" stroke="#bcbcbc" stroke-width="8" stroke-linecap="round" stroke-linejoin="round" /><polyline points="591.80,-110.87 660.34,-142.77 663.23,-144.68 669.93,-146.63 715.60,-159.91 722.53,-162.57 729.94,-164.01" fill="none" stroke="#bcbcbc" stroke-width="8" stroke-linecap="round" stroke-linejoin="round" /><polyline points="577.81,-779.49 605.56,-776.07 608.35,-775.72 619.10,-773.08" fill="none" stroke="#bcbcbc" stroke-width="8" stroke-linecap="round" stroke-linejoin="round" /><polyline points="814.92,-497.44 819.84,-498.46 838.23,-489.45 840.65,-487.06 875.16,-428.64 876.07,-421.56 880.56,-417.82 879.85,-415.24 879.74,-411.03 880.36,-405.14 889.50,-367.58 890.31,-341.56 891.59,-300.02 893.74,-244.11 884.99,-219.75 879.35,-204.89 871.11,-183.96 868.73,-177.91 867.18,-176.22 864.70,-160.02" fill="none" stroke="#bcbcbc" stroke-width="8" stroke-linecap="round" stroke-linejoin="round" /><polyline points="878.73,-61.35 870.34,-65.00 849.36,-79.64 821.69,-99.08 806.47,-111.39 796.20,-122.38" fill="none" stroke="#bcbcbc" stroke-width="8" stroke-linecap="round" stroke-linejoin="round" /><polyline points="539.12,266.02 530.88,263.40 517.50,259.16 511.12,257.14 503.62,254.76 494.15,251.76 485.58,249.04 477.11,246.36 439.35,234.38 432.74,232.28 424.53,229.68 422.71,229.11 401.12,223.40 395.02,221.93 387.38,220.08 379.38,218.14 350.56,211.15 342.82,209.27 334.52,206.39 317.16,200.36 310.62,198.09 304.77,196.19 277.60,186.53 274.17,184.49 272.53,180.95" fill="none" stroke="#bcbcbc" stroke-width="8" stroke-linecap="round" stroke-linejoin="round" /><polyline points="663.23,-144.68 661.23,-151.85 655.26,-173.24 652.97,-181.46 649.65,-187.61 649.34,-188.75 647.39,-195.99 649.66,-199.20 646.93,-208.33 646.08,-211.16" fill="none" stroke="#bcbcbc" stroke-width="8" stroke-linecap="round" stroke-linejoin="round" /><polyline points="653.25,-406.41 658.93,-409.08 689.91,-426.16 707.62,-437.55 720.12,-446.07 722.88,-448.13 732.93,-455.12 743.35,-462.81 749.95,-467.61 757.81,-473.36 785.15,-485.70 788.69,-485.51 793.88,-487.96 814.92,-497.44" fill="none" stroke="#bcbcbc" stroke-width="8" stroke-linecap="round" stroke-linejoin="round" /><polyline points="309.79,-289.96 314.26,-288.15 317.22,-287.24 372.63,-270.22 381.10,-267.62" fill="none" stroke="#bcbcbc" stroke-width="8" stroke-linecap="round" stroke-linejoin="round" /><polyline points="-86.02,-165.36 -125.61,-177.34" fill="none" stroke="#bcbcbc" stroke-width="8" stroke-linecap="round" stroke-linejoin="round" /><polyline points="553.48,-723.59 563.30,-711.15 564.76,-709.30 569.72,-703.02 575.36,-702.36 586.97,-700.99 589.03,-699.57" fill="none" stroke="#bcbcbc" stroke-width="8" stroke-linecap="round" stroke-linejoin="round" /><polyline points="894.34,-170.58 878.78,-167.67 862.84,-159.01 848.05,-150.78 834.07,-143.79 817.17,-134.61 804.94,-127.19 780.76,-114.23 686.38,-66.75 661.91,-55.97 645.74,-48.98 637.73,-46.36 631.10,-45.12 620.25,-44.46 604.81,-46.65 566.28,-55.90 511.59,-68.64 439.64,-90.34 413.13,-99.08 369.72,-112.48 328.21,-126.17 267.33,-150.05 236.89,-163.16 200.18,-179.47 139.30,-212.82 125.02,-222.29 88.90,-245.01 73.75,-260.15 51.03,-289.57 13.60,-328.16 -1.11,-341.13" fill="none" stroke="#bcbcbc" stroke-width="8" stroke-linecap="round" stroke-linejoin="round" /><polyline points="599.21,285.01 599.85,281.45 602.15,275.64 623.74,225.13 631.90,206.20 641.51,182.60 643.86,173.97" fill="none" stroke="#bcbcbc" stroke-width="8" stroke-linecap="round" stroke-linejoin="round" /><polyline points="185.03,71.74 160.50,59.88 104.69,32.87 36.24,-0.26 30.13,-3.21" fill="none" stroke="#bcbcbc" stroke-width="8" stroke-linecap="round" stroke-linejoin="round" /><polyline points="588.10,-319.17 594.29,-325.51 610.76,-342.36 623.82,-356.63" fill="none" stroke="#bcbcbc" stroke-width="8" stroke-linecap="round" stroke-linejoin="round" /><polyline points="112.63,-281.62 105.82,-290.62 73.94,-332.83 28.43,-369.65" fill="none" stroke="#bcbcbc" stroke-width="8" stroke-linecap="round" stroke-linejoin="round" /><polyline points="-84.87,273.99 -78.65,259.23 -58.86,209.90 -56.46,203.43 -53.80,196.25 -52.79,193.66 -52.52,189.60 -49.99,151.25 -49.26,140.25" fill="none" stroke="#bcbcbc" stroke-width="8" stroke-linecap="round" stroke-linejoin="round" /><polyline points="-98.37,-122.52 -86.02,-165.36 -69.72,-221.86 -67.70,-228.86 -65.46,-236.80 -60.44,-254.59 -59.91,-256.46 -58.47,-262.18 -56.18,-268.65 -55.62,-270.22 -52.72,-277.39 -47.04,-289.94 -45.34,-293.54" fill="none" stroke="#bcbcbc" stroke-width="8" stroke-linecap="round" stroke-linejoin="round" /><polyline points="-67.70,-228.86 -42.71,-222.47 10.24,-208.86 40.40,-199.47 52.99,-196.52" fill="none" stroke="#bcbcbc" stroke-width="8" stroke-linecap="round" stroke-linejoin="round" /><polyline points="446.80,-423.24 447.65,-428.44 448.50,-433.84 452.17,-451.90 461.33,-493.94 468.86,-531.55 470.23,-539.36 472.10,-549.95 472.10,-549.96" fill="none" stroke="#bcbcbc" stroke-width="8" stroke-linecap="round" stroke-linejoin="round" /><polyline points="372.79,386.38 383.95,357.92 385.34,352.81 429.63,240.39 432.74,232.28 435.26,225.40 461.72,148.42 466.82,143.97" fill="none" stroke="#bcbcbc" stroke-width="8" stroke-linecap="round" stroke-linejoin="round" /><polyline points="524.61,-445.00 524.61,-445.01 523.04,-453.24 522.79,-454.24 518.96,-469.80 518.97,-469.85 516.36,-480.40 505.31,-518.27 503.91,-522.32 496.45,-542.61 494.02,-548.67 492.46,-552.57 490.43,-557.01 490.43,-557.02 490.42,-557.04 488.94,-573.35 488.80,-581.36" fill="none" stroke="#bcbcbc" stroke-width="8" stroke-linecap="round" stroke-linejoin="round" /><polyline points="508.04,197.56 505.20,200.63 500.96,205.66 489.03,239.30 485.58,249.04" fill="none" stroke="#bcbcbc" stroke-width="8" stroke-linecap="round" stroke-linejoin="round" /><polyline points="309.79,-289.96 311.42,-294.38 311.79,-295.40 319.54,-317.04 322.45,-326.16 346.19,-395.98" fill="none" stroke="#bcbcbc" stroke-width="8" stroke-linecap="round" stroke-linejoin="round" /><polyline points="432.64,-192.07 435.06,-198.51 441.63,-215.94 444.40,-223.31 446.28,-228.30 451.54,-242.28 455.02,-251.52 455.49,-252.76 463.92,-275.15 467.44,-274.06 469.35,-279.25 472.73,-288.44 472.08,-292.62 481.05,-317.03 481.97,-319.53 483.67,-321.09 485.10,-322.41 494.09,-346.98 495.39,-353.71 508.29,-389.54 511.34,-391.93 517.54,-409.49 516.44,-412.18 521.88,-428.58 519.06,-443.21" fill="none" stroke="#bcbcbc" stroke-width="8" stroke-linecap="round" stroke-linejoin="round" /><polyline points="663.38,-858.65 659.77,-864.58 640.78,-895.73" fill="none" stroke="#bcbcbc" stroke-width="8" stroke-linecap="round" stroke-linejoin="round" /><polyline points="722.88,-448.13 810.04,-392.09 810.06,-392.05 810.06,-392.04 826.18,-389.95" fill="none" stroke="#bcbcbc" stroke-width="8" stroke-linecap="round" stroke-linejoin="round" /><polyline points="687.92,-565.19 780.66,-518.65 783.46,-516.57 783.27,-501.33 785.15,-485.70" fill="none" stroke="#bcbcbc" stroke-width="8" stroke-linecap="round" stroke-linejoin="round" /><polyline points="511.12,257.14 507.78,267.31 494.27,308.52 471.29,377.91 469.66,382.83 468.00,387.82 467.54,393.14" fill="none" stroke="#bcbcbc" stroke-width="8" stroke-linecap="round" stroke-linejoin="round" /><polyline points="772.18,6.84 772.74,1.67 772.86,-3.16 772.82,-3.33 769.53,-17.53 768.18,-23.46 767.53,-26.33 766.87,-29.25 763.26,-45.14 756.22,-76.90 751.10,-95.99 750.37,-98.94" fill="none" stroke="#bcbcbc" stroke-width="8" stroke-linecap="round" stroke-linejoin="round" /><polyline points="311.77,297.52 314.07,290.99 339.89,217.60 342.82,209.27" fill="none" stroke="#bcbcbc" stroke-width="8" stroke-linecap="round" stroke-linejoin="round" /><polyline points="891.59,-300.02 883.99,-302.17 832.40,-381.33 826.18,-389.95" fill="none" stroke="#bcbcbc" stroke-width="8" stroke-linecap="round" stroke-linejoin="round" /><polyline points="43.42,-110.08 231.46,-65.03 244.42,-60.30" fill="none" stroke="#bcbcbc" stroke-width="8" stroke-linecap="round" stroke-linejoin="round" /><polyline points="636.50,-813.91 709.75,-786.78 720.06,-788.54" fill="none" stroke="#bcbcbc" stroke-width="8" stroke-linecap="round" stroke-linejoin="round" />
    <polyline points="167.20,352.80 170.54,345.70 171.39,342.54 176.07,325.30 193.01,265.57 194.63,259.85 196.35,253.58 204.02,225.51 216.98,178.12 219.97,167.20" fill="none" stroke="#ffffff" stroke-width="16" stroke-linecap="round" stroke-linejoin="round" />
    <polyline points="167.20,352.80 170.54,345.70 171.39,342.54 176.07,325.30 193.01,265.57 194.63,259.85 196.35,253.58 204.02,225.51 216.98,178.12 219.97,167.20" fill="none" stroke="#111111" stroke-width="9" stroke-linecap="round" stroke-linejoin="round" />
    
            <g transform="translate(167.20,352.80)">
              <circle r="19" fill="#ffffff" stroke="#111111" stroke-width="4" />
              <text text-anchor="middle" dominant-baseline="central" font-family="Helvetica, Arial, sans-serif"
                font-size="18" font-weight="700" fill="#111111">1</text>
            </g>
            
            <g transform="translate(219.97,167.20)">
              <circle r="19" fill="#ffffff" stroke="#111111" stroke-width="4" />
              <text text-anchor="middle" dominant-baseline="central" font-family="Helvetica, Arial, sans-serif"
                font-size="18" font-weight="700" fill="#111111">2</text>
            </g>
            
  </g>
</svg>
