<svg xmlns="http://www.w3.org/2000/svg" width="520" height="520" viewBox="0 0 520 520">
  <rect width="100%" height="100%" fill="#ffffff" />
  <g>
    <polyline points="1697.86,-954.11 1702.32,-930.36 1731.14,-728.78 1726.73,-678.39" fill="none" stroke="#bcbcbc" stroke-width="8" stroke-linecap="round" stroke-linejoin="round" /><polyline points="1112.14,725.72 1119.11,704.30 1156.02,590.78 1160.37,577.40 1164.77,563.35 1257.59,267.37 1265.06,243.57 1247.96,201.46" fill="none" stroke="#bcbcbc" stroke-width="8" stroke-linecap="round" stroke-linejoin="round" /><polyline points="470.99,462.46 469.49,445.46 499.84,275.50 504.09,254.24 507.27,243.11 515.62,200.01 525.01,147.25 535.24,100.80 545.38,54.44 551.77,41.37 555.95,33.36" fill="none" stroke="#bcbcbc" stroke-width="8" stroke-linecap="round" stroke-linejoin="round" /><polyline points="647.13,-736.38 639.92,-758.38 565.34,-985.81 561.70,-995.35" fill="none" stroke="#bcbcbc" stroke-width="8" stroke-linecap="round" stroke-linejoin="round" /><polyline points="264.48,1265.28 266.71,1243.57 267.61,1233.62 275.73,1143.82 284.61,1064.75 286.69,1046.29 288.62,1024.14 288.83,1022.27 293.87,978.23 298.21,933.47 303.00,890.27 306.22,856.64 307.57,835.89 308.76,816.72 310.87,795.13" fill="none" stroke="#bcbcbc" stroke-width="8" stroke-linecap="round" stroke-linejoin="round" /><polyline points="1294.90,778.49 1300.22,761.79 1337.64,644.16 1341.89,630.79 1347.93,611.75 1352.26,598.10 1385.39,455.26" fill="none" stroke="#bcbcbc" stroke-width="8" stroke-linecap="round" stroke-linejoin="round" /><polyline points="1149.44,-1548.30 1163.26,-1546.18 1544.07,-1487.67" fill="none" stroke="#bcbcbc" stroke-width="8" stroke-linecap="round" stroke-linejoin="round" /><polyline points="171.84,750.77 132.21,748.92 108.04,747.80 94.91,747.19 83.39,746.65 -6.37,742.48 -131.21,736.67 -190.71,728.23 -210.63,725.41 -227.91,722.36 -344.95,701.70 -361.31,698.82 -364.93,698.20 -385.14,694.73 -400.67,692.07 -499.84,683.31 -518.73,681.64 -525.65,681.02 -547.10,679.54 -589.08,676.63" fill="none" stroke="#bcbcbc" stroke-width="8" stroke-linecap="round" stroke-linejoin="round" /><polyline points="747.68,635.78 755.36,613.93 824.54,422.16 907.77,180.28 913.10,165.11 916.81,154.51 919.83,145.81" fill="none" stroke="#bcbcbc" stroke-width="8" stroke-linecap="round" stroke-linejoin="round" /><polyline points="-525.65,681.02 -527.42,668.69 -527.84,655.30 -525.21,628.33 -519.19,579.09 -515.17,562.56 -508.65,502.81 -507.46,489.50 -505.55,472.39 -504.13,459.68 -501.46,445.28 -496.51,406.52 -493.07,376.87 -488.01,364.75" fill="none" stroke="#bcbcbc" stroke-width="8" stroke-linecap="round" stroke-linejoin="round" /><polyline points="-596.46,349.60 -504.18,362.49 -488.01,364.75 -477.99,366.34 -436.63,372.93 -341.32,388.12 -324.97,390.84" fill="none" stroke="#bcbcbc" stroke-width="8" stroke-linecap="round" stroke-linejoin="round" /><polyline points="1101.79,-860.89 1102.39,-852.50 1103.62,-844.01 1106.62,-837.50 1112.23,-830.25 1122.61,-820.80 1147.20,-805.84 1336.93,-686.82 1453.78,-530.16 1542.04,-312.35 1547.80,-297.96" fill="none" stroke="#bcbcbc" stroke-width="8" stroke-linecap="round" stroke-linejoin="round" /><polyline points="1071.40,-225.35 1075.34,-218.84 1076.36,-217.15 1079.61,-200.73 1101.88,-93.09 1108.94,-58.92 1113.99,-34.59 1121.88,14.73 1125.56,37.47 1128.10,51.35 1130.88,63.88 1134.20,71.20 1139.07,79.66 1141.68,83.65 1190.97,154.23 1217.64,196.21 1224.59,206.25" fill="none" stroke="#bcbcbc" stroke-width="8" stroke-linecap="round" stroke-linejoin="round" /><polyline points="-343.82,1122.38 -341.20,1106.23 -338.76,1094.55 -338.11,1093.00 -305.29,1014.99 -284.39,964.28 -278.03,948.22 -271.30,931.20 -264.00,916.57 -262.81,913.71 -252.81,889.53 -245.08,868.13 -238.44,848.50 -234.23,834.63 -229.51,817.49 -224.06,794.50 -219.93,775.85 -214.99,749.83 -213.95,744.02 -210.63,725.41" fill="none" stroke="#bcbcbc" stroke-width="8" stroke-linecap="round" stroke-linejoin="round" /><polyline points="1245.90,-1056.24 1350.52,-983.14 1364.62,-980.15 1374.94,-968.35" fill="none" stroke="#bcbcbc" stroke-width="8" stroke-linecap="round" stroke-linejoin="round" /><polyline points="806.59,-381.11 820.42,-375.79 880.45,-356.15 1019.70,-302.75 1027.51,-294.97 1031.18,-289.15" fill="none" stroke="#bcbcbc" stroke-width="8" stroke-linecap="round" stroke-linejoin="round" /><polyline points="1066.07,991.05 1075.56,966.34 1122.37,839.34 1155.47,743.38 1162.33,740.22" fill="none" stroke="#bcbcbc" stroke-width="8" stroke-linecap="round" stroke-linejoin="round" /><polyline points="404.36,830.01 411.74,813.69 412.47,812.07 425.11,769.68 445.81,699.90 451.12,682.04 455.23,668.17 455.79,660.08 454.95,642.19" fill="none" stroke="#bcbcbc" stroke-width="8" stroke-linecap="round" stroke-linejoin="round" /><polyline points="1264.79,-219.78 1252.92,-217.33 1226.02,-222.11 1221.86,-233.21 1175.26,-250.97 1164.24,-248.09 1122.20,-263.53 1115.92,-259.15" fill="none" stroke="#bcbcbc" stroke-width="8" stroke-linecap="round" stroke-linejoin="round" /><polyline points="1195.59,-1661.18 1216.71,-1656.00 1228.39,-1653.98 1506.18,-1605.81" fill="none" stroke="#bcbcbc" stroke-width="8" stroke-linecap="round" stroke-linejoin="round" /><polyline points="979.69,913.71 991.24,881.13 1013.70,817.82 1028.21,790.85 1049.09,732.39 1057.43,709.06" fill="none" stroke="#bcbcbc" stroke-width="8" stroke-linecap="round" stroke-linejoin="round" /><polyline points="-542.34,-350.66 -562.46,-351.58 -567.51,-345.45 -602.56,-302.86 -725.09,-161.34 -742.32,-141.43" fill="none" stroke="#bcbcbc" stroke-width="8" stroke-linecap="round" stroke-linejoin="round" /><polyline points="532.39,-229.44 523.51,-209.78 522.43,-207.39 491.57,-126.93 460.47,-38.36 452.17,-14.74 447.47,-2.54" fill="none" stroke="#bcbcbc" stroke-width="8" stroke-linecap="round" stroke-linejoin="round" /><polyline points="985.02,-1133.53 994.82,-1120.23 1001.82,-1101.94 1012.71,-1075.70 1030.19,-1034.41 1045.68,-997.35 1063.45,-956.65 1076.63,-925.30 1078.58,-920.79 1078.70,-920.51 1089.31,-895.71 1092.48,-888.66 1095.50,-881.95 1098.69,-875.66 1101.09,-869.27 1101.79,-860.89" fill="none" stroke="#bcbcbc" stroke-width="8" stroke-linecap="round" stroke-linejoin="round" /><polyline points="234.56,167.20 239.69,164.40 246.87,158.69 250.46,151.29 298.13,-29.47 299.57,-39.66 305.39,-58.29" fill="none" stroke="#bcbcbc" stroke-width="8" stroke-linecap="round" stroke-linejoin="round" /><polyline points="1901.55,-115.67 1908.32,-94.21 1913.08,-71.66 1903.81,14.26 1893.10,78.88 1887.25,100.93 1886.72,102.92 1881.60,114.82 1874.61,127.44 1858.30,148.07 1866.20,188.40 1840.65,274.97 1826.54,322.78 1797.68,401.04 1755.42,496.32 1703.81,587.64 1687.69,617.32 1658.55,666.07 1542.14,831.30 1516.63,865.66 1417.85,994.74 1361.15,1059.25 1281.83,1139.87 1274.49,1140.62 1256.57,1155.27" fill="none" stroke="#bcbcbc" stroke-width="8" stroke-linecap="round" stroke-linejoin="round" /><polyline points="465.06,1297.62 497.55,1196.84 502.87,1180.20 510.09,1169.71 525.61,1123.14 530.67,1107.31 594.78,906.59 601.23,886.40 606.54,868.66 682.20,630.56" fill="none" stroke="#bcbcbc" stroke-width="8" stroke-linecap="round" stroke-linejoin="round" /><polyline points="1226.35,-576.69 1254.45,-607.38 1262.73,-617.37 1319.50,-697.76" fill="none" stroke="#bcbcbc" stroke-width="8" stroke-linecap="round" stroke-linejoin="round" /><polyline points="664.84,-564.52 742.21,-537.59 746.48,-530.65 768.45,-523.28 781.49,-518.83 843.85,-497.76" fill="none" stroke="#bcbcbc" stroke-width="8" stroke-linecap="round" stroke-linejoin="round" /><polyline points="1339.16,-1099.87 1374.94,-968.35 1416.36,-813.41 1422.64,-800.50 1423.64,-785.76 1451.73,-733.31 1527.54,-591.95 1544.11,-567.51 1548.91,-560.35 1662.17,-348.61 1714.22,-301.29 1721.52,-291.86 1731.82,-283.06 1830.65,-198.56 1837.36,-192.82 1855.11,-183.40" fill="none" stroke="#bcbcbc" stroke-width="8" stroke-linecap="round" stroke-linejoin="round" /><polyline points="954.78,1319.02 1201.26,1175.85 1245.13,1153.41 1256.57,1155.27" fill="none" stroke="#bcbcbc" stroke-width="8" stroke-linecap="round" stroke-linejoin="round" /><polyline points="1222.02,1114.20 1237.31,1096.02 1374.61,822.08 1383.70,804.12 1391.30,786.34 1435.65,676.67 1448.85,643.63 1487.08,527.96 1511.86,379.24 1514.80,357.59" fill="none" stroke="#bcbcbc" stroke-width="8" stroke-linecap="round" stroke-linejoin="round" /><polyline points="1116.06,-496.83 1113.66,-494.36 1110.35,-482.84 1110.02,-481.69 1095.12,-424.32 1099.03,-409.34 1095.78,-395.92 1091.53,-378.34 1080.63,-365.71 1068.25,-315.59 1053.68,-304.58 1038.12,-293.91 1031.18,-289.15" fill="none" stroke="#bcbcbc" stroke-width="8" stroke-linecap="round" stroke-linejoin="round" /><polyline points="532.39,-229.44 538.72,-245.68 576.81,-343.32 585.12,-364.61 591.96,-382.14 640.63,-506.83 662.54,-558.96 664.84,-564.52 681.87,-605.70 720.08,-700.56 734.07,-740.95 737.19,-750.21 741.37,-760.71" fill="none" stroke="#bcbcbc" stroke-width="8" stroke-linecap="round" stroke-linejoin="round" /><polyline points="958.60,-821.31 965.97,-799.39 1207.70,-592.92 1339.61,-478.17 1536.62,-306.91 1553.82,-293.15 1561.52,-288.33 1595.71,-257.30 1641.36,-218.36 1744.92,-130.07 1778.37,-101.31 1800.56,-74.76" fill="none" stroke="#bcbcbc" stroke-width="8" stroke-linecap="round" stroke-linejoin="round" /><polyline points="1358.28,-1177.08 1370.54,-1184.94 1443.18,-1215.12 1458.10,-1230.82" fill="none" stroke="#bcbcbc" stroke-width="8" stroke-linecap="round" stroke-linejoin="round" /><polyline points="1442.17,660.34 1341.89,630.79 1160.37,577.40" fill="none" stroke="#bcbcbc" stroke-width="8" stroke-linecap="round" stroke-linejoin="round" /><polyline points="1118.47,-1472.61 1132.16,-1463.16 1578.52,-1363.85" fill="none" stroke="#bcbcbc" stroke-width="8" stroke-linecap="round" stroke-linejoin="round" /><polyline points="1669.81,-3.07 1646.75,-54.40 1595.55,-176.48 1591.74,-186.19 1582.98,-208.47 1549.98,-292.44 1547.90,-297.88" fill="none" stroke="#bcbcbc" stroke-width="8" stroke-linecap="round" stroke-linejoin="round" /><polyline points="985.02,-1133.53 960.24,-1140.58 942.03,-1146.00 905.01,-1156.99 886.21,-1162.36 875.44,-1165.35 861.37,-1169.38" fill="none" stroke="#bcbcbc" stroke-width="8" stroke-linecap="round" stroke-linejoin="round" /><polyline points="338.89,-462.03 337.64,-466.13 336.48,-469.00 331.38,-481.69 311.59,-527.81 292.79,-574.67 288.73,-585.73 284.05,-598.47 280.70,-608.90 275.18,-624.53 274.60,-626.17 256.61,-670.51 223.58,-753.84 216.16,-758.07 210.88,-771.59 200.35,-808.18 182.30,-853.54 178.42,-863.85" fill="none" stroke="#bcbcbc" stroke-width="8" stroke-linecap="round" stroke-linejoin="round" /><polyline points="497.55,1196.84 516.31,1202.59 577.00,1221.08 596.00,1226.87" fill="none" stroke="#bcbcbc" stroke-width="8" stroke-linecap="round" stroke-linejoin="round" /><polyline points="1630.83,-1155.25 1634.36,-1169.55 1632.92,-1174.98 1631.19,-1181.53 1620.11,-1222.12 1595.41,-1307.93 1582.37,-1351.80 1578.52,-1363.85 1544.07,-1487.67 1525.47,-1554.46 1506.18,-1605.81 1488.75,-1652.14 1471.40,-1684.00 1454.54,-1700.83 1325.09,-1859.00 1315.51,-1870.26 1309.17,-1880.66" fill="none" stroke="#bcbcbc" stroke-width="8" stroke-linecap="round" stroke-linejoin="round" /><polyline points="1101.79,-860.89 1095.11,-858.34 1082.77,-854.93 1081.53,-854.59 1029.98,-841.41 970.70,-824.72 958.60,-821.31 953.21,-819.60 938.97,-815.02 926.80,-811.64 873.65,-796.85 786.23,-772.01 753.64,-763.78 741.37,-760.71 683.12,-746.40 647.13,-736.38 570.92,-715.09 495.60,-693.86 486.88,-691.45 423.93,-673.97 394.89,-665.91 380.23,-658.99 352.47,-645.22 297.34,-617.25 293.50,-615.30 280.70,-608.90 272.89,-604.99 262.00,-599.28 223.27,-578.97 152.70,-539.38 93.75,-508.50 85.32,-504.08 74.06,-503.38 67.29,-499.78 65.94,-499.07 1.99,-464.02 -11.41,-464.08 -26.78,-456.04 -32.15,-453.23 -36.68,-450.86 -47.37,-445.27 -55.79,-426.06 -91.99,-406.67 -103.49,-400.51 -115.95,-393.73 -166.30,-366.33 -192.34,-352.16 -205.46,-348.38" fill="none" stroke="#bcbcbc" stroke-width="8" stroke-linecap="round" stroke-linejoin="round" /><polyline points="1826.54,322.78 1799.67,325.24 1715.73,332.93 1711.94,333.28 1706.59,333.77 1697.93,334.57 1616.54,342.04 1588.23,339.41 1555.27,347.67 1528.87,354.14 1514.80,357.59 1479.86,358.92 1449.61,357.38 1434.19,355.74 1421.07,351.77 1411.41,346.43 1375.42,320.98 1287.97,260.93 1279.73,255.34 1271.34,249.64 1265.06,243.57" fill="none" stroke="#bcbcbc" stroke-width="8" stroke-linecap="round" stroke-linejoin="round" /><polyline points="-153.97,-691.15 -122.24,-629.03 -117.44,-611.28 -90.71,-560.29 -79.67,-545.70 -35.00,-458.78 -32.15,-453.23" fill="none" stroke="#bcbcbc" stroke-width="8" stroke-linecap="round" stroke-linejoin="round" /><polyline points="818.38,-138.76 813.62,-125.70 812.29,-121.64 806.10,-102.86 766.84,6.66 747.35,61.04 746.69,62.90 738.86,79.80 734.37,89.85" fill="none" stroke="#bcbcbc" stroke-width="8" stroke-linecap="round" stroke-linejoin="round" /><polyline points="1339.16,-1099.87 1334.80,-1109.18 1323.36,-1110.68 1286.36,-1102.20 1278.84,-1103.18 1272.95,-1111.07 1262.48,-1159.22 1319.19,-1167.99 1345.44,-1175.74 1358.28,-1177.08 1372.11,-1127.92" fill="none" stroke="#bcbcbc" stroke-width="8" stroke-linecap="round" stroke-linejoin="round" /><polyline points="1544.11,-567.51 1558.71,-575.71 1632.08,-619.92 1651.69,-631.59 1686.01,-652.06 1742.48,-688.57 1755.65,-698.04 1854.70,-759.48" fill="none" stroke="#bcbcbc" stroke-width="8" stroke-linecap="round" stroke-linejoin="round" /><polyline points="1890.32,-277.31 1865.28,-284.77 1850.72,-296.70 1795.09,-344.84 1793.20,-346.54 1779.74,-358.54 1771.84,-372.55 1632.08,-619.92" fill="none" stroke="#bcbcbc" stroke-width="8" stroke-linecap="round" stroke-linejoin="round" /><polyline points="313.11,-296.91 532.39,-229.44 550.28,-223.77 713.91,-171.90 717.33,-170.82 741.84,-163.04 753.89,-159.22 769.56,-154.94 801.86,-144.00 818.38,-138.76 833.24,-134.05 955.02,-95.42 1083.57,-55.03 1094.20,-51.69 1108.94,-58.92" fill="none" stroke="#bcbcbc" stroke-width="8" stroke-linecap="round" stroke-linejoin="round" /><polyline points="957.85,-1379.41 1052.84,-1466.68 1068.92,-1481.46" fill="none" stroke="#bcbcbc" stroke-width="8" stroke-linecap="round" stroke-linejoin="round" /><polyline points="-632.70,28.81 -284.16,66.17" fill="none" stroke="#bcbcbc" stroke-width="8" stroke-linecap="round" stroke-linejoin="round" /><polyline points="418.72,-943.95 491.97,-970.14 567.54,-997.46 614.48,-1015.71 757.82,-1067.84 799.43,-1082.23 808.11,-1085.23 818.53,-1088.82 830.23,-1092.84 831.66,-1093.33 855.28,-1102.82 865.54,-1106.95" fill="none" stroke="#bcbcbc" stroke-width="8" stroke-linecap="round" stroke-linejoin="round" /><polyline points="910.73,828.63 979.69,913.71 1021.91,956.22 1040.19,969.37 1066.07,991.05 1090.37,1011.45 1111.26,1031.82 1111.77,1042.18" fill="none" stroke="#bcbcbc" stroke-width="8" stroke-linecap="round" stroke-linejoin="round" /><polyline points="985.02,-1133.53 1012.05,-1201.27 1055.79,-1312.81 1118.47,-1472.61 1149.44,-1548.30 1195.59,-1661.18 1233.44,-1753.64 1240.21,-1765.90 1273.49,-1820.31 1275.64,-1823.83 1287.82,-1847.77 1309.17,-1880.66 1321.09,-1899.01 1337.97,-1924.98" fill="none" stroke="#bcbcbc" stroke-width="8" stroke-linecap="round" stroke-linejoin="round" /><polyline points="347.37,677.76 342.94,681.29 340.02,685.51 334.06,703.09 329.94,715.78 310.90,772.72 308.28,780.94 306.65,786.03 289.16,781.02 246.61,766.75 204.43,752.61 171.84,750.77" fill="none" stroke="#bcbcbc" stroke-width="8" stroke-linecap="round" stroke-linejoin="round" /><polyline points="-486.05,1073.98 -416.55,894.50 -408.82,874.97 -401.88,856.15 -393.50,833.41 -383.23,797.64 -372.51,753.19 -368.12,721.34 -364.93,698.20 -360.43,681.12 -344.07,552.78 -324.97,390.84 -315.08,313.64 -304.05,222.94 -284.16,66.17 -281.01,39.51 -260.91,-124.44 -260.90,-133.58 -256.46,-182.22 -243.64,-284.98 -240.43,-302.91 -237.08,-312.96 -231.84,-324.03 -226.74,-332.62 -215.49,-344.80 -205.44,-348.25" fill="none" stroke="#bcbcbc" stroke-width="8" stroke-linecap="round" stroke-linejoin="round" /><polyline points="1031.18,-289.15 1034.98,-283.12 1047.73,-263.23 1066.81,-232.65 1071.40,-225.35 1079.01,-231.13 1115.92,-259.15" fill="none" stroke="#bcbcbc" stroke-width="8" stroke-linecap="round" stroke-linejoin="round" /><polyline points="1055.79,-1312.81 1431.31,-1244.93 1470.74,-1224.17 1617.87,-1151.24 1630.83,-1155.25" fill="none" stroke="#bcbcbc" stroke-width="8" stroke-linecap="round" stroke-linejoin="round" /><polyline points="338.89,-462.03 332.23,-452.31 272.32,-423.07 228.32,-367.15 180.84,-337.75 148.37,-313.23 117.39,-287.96 101.51,-273.49 73.45,-237.90 42.08,-192.93 36.91,-184.60" fill="none" stroke="#bcbcbc" stroke-width="8" stroke-linecap="round" stroke-linejoin="round" /><polyline points="402.23,-421.91 399.63,-416.13 393.95,-407.83 383.22,-394.62 319.94,-314.69 286.46,-224.52 117.47,-288.03" fill="none" stroke="#bcbcbc" stroke-width="8" stroke-linecap="round" stroke-linejoin="round" /><polyline points="148.37,-313.23 141.83,-333.04 113.55,-418.66 102.57,-435.57 84.20,-490.70 82.61,-495.46 85.32,-504.08 80.92,-518.13 -7.44,-800.25" fill="none" stroke="#bcbcbc" stroke-width="8" stroke-linecap="round" stroke-linejoin="round" /><polyline points="1183.74,-1852.57 1253.57,-1850.73 1256.83,-1850.63 1270.21,-1850.25 1287.82,-1847.77" fill="none" stroke="#bcbcbc" stroke-width="8" stroke-linecap="round" stroke-linejoin="round" /><polyline points="824.54,422.16 800.70,421.87 598.80,448.97 584.25,450.51 567.61,452.26 470.99,462.46 340.83,476.20 271.82,483.48 233.64,487.51 202.65,491.28 186.74,493.21 168.81,495.39 82.21,505.91 61.46,508.44 -2.50,515.43 -344.07,552.78" fill="none" stroke="#bcbcbc" stroke-width="8" stroke-linecap="round" stroke-linejoin="round" /><polyline points="525.61,1123.14 507.73,1117.38 424.19,1090.49 407.30,1085.05 392.64,1080.34 304.14,1051.90 286.69,1046.29 263.60,1038.86 122.71,993.52 106.85,988.42" fill="none" stroke="#bcbcbc" stroke-width="8" stroke-linecap="round" stroke-linejoin="round" /><polyline points="874.93,-568.17 923.53,-553.03 1101.23,-498.16 1102.89,-497.65 1116.06,-496.83" fill="none" stroke="#bcbcbc" stroke-width="8" stroke-linecap="round" stroke-linejoin="round" /><polyline points="1374.94,-968.35 1616.66,-964.09" fill="none" stroke="#bcbcbc" stroke-width="8" stroke-linecap="round" stroke-linejoin="round" /><polyline points="1256.57,1155.27 1222.02,1114.20 1207.52,1097.33 1195.06,1085.69 1178.48,1073.31 1144.57,1052.97 1111.77,1042.18 1045.03,1021.57 990.44,1004.25 1021.91,956.22" fill="none" stroke="#bcbcbc" stroke-width="8" stroke-linecap="round" stroke-linejoin="round" /><polyline points="910.73,828.63 862.61,769.24 853.46,757.95 804.99,691.18 794.02,670.80 796.65,646.53 811.27,646.39 847.31,653.32 902.16,663.87" fill="none" stroke="#bcbcbc" stroke-width="8" stroke-linecap="round" stroke-linejoin="round" /><polyline points="281.28,352.80 290.15,371.89 340.83,476.20 416.18,631.31 425.79,651.09" fill="none" stroke="#bcbcbc" stroke-width="8" stroke-linecap="round" stroke-linejoin="round" /><polyline points="-530.36,825.28 -512.24,832.69 -427.35,867.39 -408.82,874.97 -389.32,882.94 -289.38,923.80 -271.30,931.20" fill="none" stroke="#bcbcbc" stroke-width="8" stroke-linecap="round" stroke-linejoin="round" /><polyline points="322.98,198.13 499.84,275.50" fill="none" stroke="#bcbcbc" stroke-width="8" stroke-linecap="round" stroke-linejoin="round" /><polyline points="1116.06,-496.83 1143.00,-495.41 1144.72,-493.88 1156.81,-483.16 1174.57,-467.31 1177.85,-460.93 1239.08,-407.31 1243.61,-398.76 1286.66,-360.76 1297.50,-357.45 1330.99,-328.13 1338.49,-324.70 1389.00,-281.85 1400.24,-271.88 1406.45,-262.01" fill="none" stroke="#bcbcbc" stroke-width="8" stroke-linecap="round" stroke-linejoin="round" /><polyline points="-580.28,198.31 -304.05,222.94" fill="none" stroke="#bcbcbc" stroke-width="8" stroke-linecap="round" stroke-linejoin="round" /><polyline points="36.49,1226.86 45.05,1208.64 47.25,1200.53 59.24,1156.30 102.70,1003.09 106.85,988.42 111.25,972.33 130.94,900.35 164.18,778.79 171.84,750.77" fill="none" stroke="#bcbcbc" stroke-width="8" stroke-linecap="round" stroke-linejoin="round" /><polyline points="167.20,288.59 147.83,285.89 -304.05,222.94" fill="none" stroke="#bcbcbc" stroke-width="8" stroke-linecap="round" stroke-linejoin="round" /><polyline points="902.16,663.87 944.07,673.03 1057.43,709.06 1089.13,719.08 1164.36,740.81 1240.14,762.66 1296.25,778.87 1385.98,804.78 1404.52,810.13 1449.80,825.31 1524.35,845.17 1530.93,846.40" fill="none" stroke="#bcbcbc" stroke-width="8" stroke-linecap="round" stroke-linejoin="round" /><polyline points="955.33,1318.70 940.04,1322.53 923.50,1368.62 897.86,1361.33 781.27,1321.60 767.23,1318.61 736.02,1316.37 594.83,1316.94 563.70,1312.98 493.41,1302.23 465.06,1297.62 263.97,1265.19 186.10,1252.77 37.59,1227.05 13.62,1222.29 -321.54,1128.62 -342.68,1122.70 -486.05,1073.98 -521.32,1061.46 -609.43,1024.95 -659.65,1005.96" fill="none" stroke="#bcbcbc" stroke-width="8" stroke-linecap="round" stroke-linejoin="round" /><polyline points="1262.48,-1159.22 1247.97,-1162.20 1054.27,-1139.30 985.02,-1133.53" fill="none" stroke="#bcbcbc" stroke-width="8" stroke-linecap="round" stroke-linejoin="round" /><polyline points="902.16,663.87 908.95,652.51 949.60,548.12 995.02,390.28 1006.60,356.28 1012.80,347.03 1056.65,206.28 1058.83,189.48 1060.49,178.50" fill="none" stroke="#bcbcbc" stroke-width="8" stroke-linecap="round" stroke-linejoin="round" /><polyline points="1101.79,-860.89 1106.42,-862.66 1112.69,-867.64 1122.22,-878.79 1245.90,-1056.24 1278.84,-1103.18" fill="none" stroke="#bcbcbc" stroke-width="8" stroke-linecap="round" stroke-linejoin="round" /><polyline points="1652.26,-209.01 1654.79,-216.29 1716.96,-289.43 1721.52,-291.86 1732.32,-306.64 1768.49,-348.19 1779.74,-358.54" fill="none" stroke="#bcbcbc" stroke-width="8" stroke-linecap="round" stroke-linejoin="round" /><polyline points="1706.59,333.77 1705.73,323.98 1705.06,316.41 1701.79,301.94 1697.87,292.49 1692.99,267.69 1692.55,258.70 1689.23,238.63 1674.44,230.89 1662.61,235.42 1641.44,240.49 1624.68,243.11 1608.61,246.98 1586.43,252.04 1576.31,254.35" fill="none" stroke="#bcbcbc" stroke-width="8" stroke-linecap="round" stroke-linejoin="round" /><polyline points="73.17,-25.43 118.39,-131.42 120.90,-138.30" fill="none" stroke="#bcbcbc" stroke-width="8" stroke-linecap="round" stroke-linejoin="round" /><polyline points="1264.79,-219.78 1286.58,-228.22 1297.98,-232.63 1306.79,-241.55 1343.12,-250.51 1355.31,-247.40 1381.61,-254.18 1401.67,-259.34 1406.45,-262.01 1425.90,-266.77 1525.36,-291.14 1547.90,-297.88" fill="none" stroke="#bcbcbc" stroke-width="8" stroke-linecap="round" stroke-linejoin="round" /><polyline points="347.37,677.75 394.29,660.72 409.99,655.92 425.79,651.09 454.95,642.19 477.63,638.93 555.10,630.45 570.66,629.60 639.98,630.20 682.20,630.56 698.08,629.74 723.52,632.32 731.47,633.46 747.68,635.78 796.65,646.53" fill="none" stroke="#bcbcbc" stroke-width="8" stroke-linecap="round" stroke-linejoin="round" /><polyline points="570.92,-715.09 563.15,-741.37 534.28,-838.98 499.21,-950.27 491.97,-970.14 484.62,-988.76 475.33,-1015.60" fill="none" stroke="#bcbcbc" stroke-width="8" stroke-linecap="round" stroke-linejoin="round" /><polyline points="486.95,858.69 493.12,839.22 555.49,642.55 555.10,630.45" fill="none" stroke="#bcbcbc" stroke-width="8" stroke-linecap="round" stroke-linejoin="round" /><polyline points="570.66,629.60 583.01,464.01 584.25,450.51 586.14,434.79 586.17,434.08 586.98,414.88 591.10,362.75 593.43,338.47 596.60,310.89 599.50,291.04 602.10,278.57 605.36,269.15 611.78,247.91 625.03,203.70 641.87,146.62 660.45,88.26 664.24,76.36 667.28,67.73" fill="none" stroke="#bcbcbc" stroke-width="8" stroke-linecap="round" stroke-linejoin="round" /><polyline points="167.20,288.59 163.92,303.26 164.48,307.95 184.60,475.47 186.74,493.21 185.81,511.46 180.54,615.65 178.34,659.18 177.20,681.63 175.18,721.65 174.12,742.49 171.84,750.77" fill="none" stroke="#bcbcbc" stroke-width="8" stroke-linecap="round" stroke-linejoin="round" /><polyline points="73.17,-25.43 0.01,-47.17 -9.29,-53.14 -54.82,-66.40 -67.62,-66.27 -124.83,-83.50 -134.07,-90.32 -186.13,-106.10 -250.00,-123.51 -250.32,-123.54 -260.91,-124.44" fill="none" stroke="#bcbcbc" stroke-width="8" stroke-linecap="round" stroke-linejoin="round" /><polyline points="1406.45,-262.01 1408.99,-258.67 1419.60,-242.86 1439.21,-213.63 1457.67,-195.14 1493.16,-155.30 1487.16,-118.49 1484.12,-104.68 1479.88,-98.84 1488.78,-85.68 1502.54,-57.35 1530.05,-4.28 1543.60,21.85 1552.02,45.34 1555.83,56.24" fill="none" stroke="#bcbcbc" stroke-width="8" stroke-linecap="round" stroke-linejoin="round" /><polyline points="1591.74,-186.19 1581.54,-183.01 1514.36,-162.11 1504.72,-159.01 1493.16,-155.30" fill="none" stroke="#bcbcbc" stroke-width="8" stroke-linecap="round" stroke-linejoin="round" /><polyline points="1108.94,-58.92 1129.95,-65.73 1282.45,-143.60 1302.86,-153.57 1374.74,-174.33 1444.43,-193.92 1457.67,-195.14" fill="none" stroke="#bcbcbc" stroke-width="8" stroke-linecap="round" stroke-linejoin="round" /><polyline points="1125.56,37.47 1301.37,-44.34 1308.77,-49.23 1325.96,-54.24 1443.11,-88.32 1460.88,-95.13 1479.88,-98.84" fill="none" stroke="#bcbcbc" stroke-width="8" stroke-linecap="round" stroke-linejoin="round" /><polyline points="1089.68,-1677.63 1160.85,-1668.83 1168.00,-1667.95 1195.59,-1661.18" fill="none" stroke="#bcbcbc" stroke-width="8" stroke-linecap="round" stroke-linejoin="round" /><polyline points="1697.86,-954.11 1710.48,-956.75 1757.64,-933.63 1763.85,-927.49 1852.37,-777.65 1854.70,-759.48 1866.21,-749.89 1864.38,-743.27 1864.10,-732.46 1865.70,-717.36 1889.14,-621.01 1891.22,-554.27 1894.50,-447.72 1900.02,-304.30 1877.56,-241.80 1863.10,-203.70 1841.98,-150.01 1835.87,-134.48 1831.90,-130.14 1825.52,-88.59" fill="none" stroke="#bcbcbc" stroke-width="8" stroke-linecap="round" stroke-linejoin="round" /><polyline points="1861.52,164.51 1839.99,155.15 1786.19,117.60 1715.21,67.73 1676.17,36.16 1649.83,7.95" fill="none" stroke="#bcbcbc" stroke-width="8" stroke-linecap="round" stroke-linejoin="round" /><polyline points="990.44,1004.25 969.30,997.54 934.99,986.67 918.62,981.48 899.38,975.38 875.08,967.68 853.11,960.71 831.40,953.82 734.54,923.09 717.58,917.71 696.51,911.04 691.87,909.56 636.47,894.93 620.83,891.15 601.23,886.40 580.71,881.43 506.78,863.50 486.95,858.69 465.65,851.30 421.14,835.84 404.36,830.01 389.35,825.14 319.65,800.36 310.87,795.13 306.65,786.03" fill="none" stroke="#bcbcbc" stroke-width="8" stroke-linecap="round" stroke-linejoin="round" /><polyline points="1308.77,-49.23 1303.64,-67.64 1288.33,-122.50 1282.45,-143.60 1273.94,-159.37 1273.15,-162.30 1268.14,-180.87 1273.98,-189.09 1266.96,-212.51 1264.79,-219.78" fill="none" stroke="#bcbcbc" stroke-width="8" stroke-linecap="round" stroke-linejoin="round" /><polyline points="1283.18,-720.61 1297.73,-727.46 1377.21,-771.28 1422.64,-800.50 1454.68,-822.36 1461.76,-827.63 1487.55,-845.55 1514.28,-865.29 1531.20,-877.60 1551.37,-892.36 1621.49,-923.99 1630.58,-923.51 1643.87,-929.80 1697.86,-954.11" fill="none" stroke="#bcbcbc" stroke-width="8" stroke-linecap="round" stroke-linejoin="round" /><polyline points="402.23,-421.91 413.70,-417.26 421.28,-414.93 563.41,-371.28 585.12,-364.61" fill="none" stroke="#bcbcbc" stroke-width="8" stroke-linecap="round" stroke-linejoin="round" /><polyline points="-613.00,-102.29 -714.54,-133.03" fill="none" stroke="#bcbcbc" stroke-width="8" stroke-linecap="round" stroke-linejoin="round" /><polyline points="1027.27,-1534.21 1052.45,-1502.32 1056.21,-1497.56 1068.92,-1481.46 1083.40,-1479.76 1113.18,-1476.26 1118.47,-1472.61" fill="none" stroke="#bcbcbc" stroke-width="8" stroke-linecap="round" stroke-linejoin="round" /><polyline points="1901.55,-115.67 1861.66,-108.23 1820.75,-86.00 1782.83,-64.90 1746.96,-46.96 1703.63,-23.43 1672.24,-4.37 1610.23,28.88 1368.14,150.66 1305.38,178.31 1263.91,196.24 1243.36,202.97 1226.36,206.14 1198.53,207.82 1158.93,202.22 1060.11,178.50 919.83,145.81 735.27,90.14 667.28,67.73 555.95,33.36 449.47,-1.76 293.31,-63.03 215.23,-96.65 121.09,-138.49 -35.08,-224.04 -71.69,-248.32 -164.34,-306.60 -203.19,-345.45 -261.48,-420.91 -357.49,-519.91 -395.22,-553.15" fill="none" stroke="#bcbcbc" stroke-width="8" stroke-linecap="round" stroke-linejoin="round" /><polyline points="1144.57,1052.97 1146.21,1043.84 1152.12,1028.94 1207.49,899.36 1228.41,850.80 1253.07,790.27 1259.08,768.12" fill="none" stroke="#bcbcbc" stroke-width="8" stroke-linecap="round" stroke-linejoin="round" /><polyline points="82.21,505.91 19.30,475.47 -123.83,406.19 -299.41,321.22 -315.08,313.64" fill="none" stroke="#bcbcbc" stroke-width="8" stroke-linecap="round" stroke-linejoin="round" /><polyline points="1116.06,-496.83 1131.95,-513.09 1174.18,-556.32 1207.70,-592.92" fill="none" stroke="#bcbcbc" stroke-width="8" stroke-linecap="round" stroke-linejoin="round" /><polyline points="-103.49,-400.51 -120.94,-423.61 -202.71,-531.87 -319.44,-626.33" fill="none" stroke="#bcbcbc" stroke-width="8" stroke-linecap="round" stroke-linejoin="round" /><polyline points="-610.06,1024.69 -594.09,986.83 -543.34,860.31 -537.19,843.70 -530.36,825.28 -527.77,818.63 -527.09,808.22 -520.59,709.85 -518.73,681.64" fill="none" stroke="#bcbcbc" stroke-width="8" stroke-linecap="round" stroke-linejoin="round" /><polyline points="-644.68,7.59 -613.00,-102.29 -571.20,-247.23 -566.02,-265.17 -560.27,-285.55 -547.38,-331.19 -546.03,-335.98 -542.34,-350.66 -536.46,-367.24 -535.03,-371.26 -527.60,-389.67 -513.02,-421.85 -508.65,-431.09" fill="none" stroke="#bcbcbc" stroke-width="8" stroke-linecap="round" stroke-linejoin="round" /><polyline points="-566.02,-265.17 -501.91,-248.78 -366.11,-213.87 -288.74,-189.78 -256.46,-182.22" fill="none" stroke="#bcbcbc" stroke-width="8" stroke-linecap="round" stroke-linejoin="round" /><polyline points="753.64,-763.78 755.82,-777.12 758.01,-790.97 767.42,-837.30 790.92,-945.15 810.22,-1041.62 813.74,-1061.64 818.53,-1088.82 818.54,-1088.84" fill="none" stroke="#bcbcbc" stroke-width="8" stroke-linecap="round" stroke-linejoin="round" /><polyline points="563.82,1312.99 592.45,1239.99 596.00,1226.87 709.60,938.51 717.58,917.71 724.04,900.06 791.92,702.59 804.99,691.18" fill="none" stroke="#bcbcbc" stroke-width="8" stroke-linecap="round" stroke-linejoin="round" /><polyline points="953.21,-819.60 953.21,-819.63 949.19,-840.74 948.55,-843.31 938.74,-883.21 938.75,-883.34 932.06,-910.40 903.71,-1007.55 900.14,-1017.95 880.99,-1069.99 874.77,-1085.53 870.76,-1095.55 865.55,-1106.93 865.54,-1106.95 865.54,-1107.00 861.74,-1148.84 861.37,-1169.38" fill="none" stroke="#bcbcbc" stroke-width="8" stroke-linecap="round" stroke-linejoin="round" /><polyline points="910.72,828.63 903.44,836.51 892.57,849.43 861.97,935.73 853.11,960.71" fill="none" stroke="#bcbcbc" stroke-width="8" stroke-linecap="round" stroke-linejoin="round" /><polyline points="402.23,-421.91 406.41,-433.24 407.36,-435.87 427.23,-491.38 434.68,-514.76 495.60,-693.86" fill="none" stroke="#bcbcbc" stroke-width="8" stroke-linecap="round" stroke-linejoin="round" /><polyline points="717.33,-170.82 723.54,-187.33 740.37,-232.03 747.49,-250.94 752.31,-263.73 765.81,-299.61 774.74,-323.31 775.94,-326.50 797.55,-383.91 806.59,-381.11 811.49,-394.44 820.15,-418.02 818.49,-428.73 841.49,-491.33 843.85,-497.76 848.21,-501.77 851.87,-505.14 874.93,-568.17 878.27,-585.43 911.35,-677.35 919.18,-683.47 935.10,-728.51 932.27,-735.42 946.21,-777.47 938.97,-815.02" fill="none" stroke="#bcbcbc" stroke-width="8" stroke-linecap="round" stroke-linejoin="round" /><polyline points="1309.17,-1880.66 1299.90,-1895.87 1251.18,-1975.78" fill="none" stroke="#bcbcbc" stroke-width="8" stroke-linecap="round" stroke-linejoin="round" /><polyline points="1461.76,-827.63 1685.32,-683.87 1685.38,-683.78 1685.38,-683.75 1726.73,-678.39" fill="none" stroke="#bcbcbc" stroke-width="8" stroke-linecap="round" stroke-linejoin="round" /><polyline points="1372.11,-1127.92 1609.97,-1008.53 1617.15,-1003.18 1616.67,-964.09 1621.49,-923.99" fill="none" stroke="#bcbcbc" stroke-width="8" stroke-linecap="round" stroke-linejoin="round" /><polyline points="918.62,981.48 910.06,1007.58 875.40,1113.27 816.45,1291.27 812.27,1303.90 808.03,1316.69 806.85,1330.32" fill="none" stroke="#bcbcbc" stroke-width="8" stroke-linecap="round" stroke-linejoin="round" /><polyline points="1588.23,339.41 1589.66,326.15 1589.96,313.78 1589.86,313.35 1581.43,276.92 1577.98,261.69 1576.31,254.35 1574.60,246.84 1565.35,206.08 1547.28,124.63 1534.14,75.66 1532.28,68.09" fill="none" stroke="#bcbcbc" stroke-width="8" stroke-linecap="round" stroke-linejoin="round" /><polyline points="407.30,1085.05 413.20,1068.30 479.43,880.06 486.95,858.69" fill="none" stroke="#bcbcbc" stroke-width="8" stroke-linecap="round" stroke-linejoin="round" /><polyline points="1894.50,-447.72 1875.02,-453.21 1742.68,-656.28 1726.73,-678.39" fill="none" stroke="#bcbcbc" stroke-width="8" stroke-linecap="round" stroke-linejoin="round" /><polyline points="-281.01,39.51 201.30,155.06 234.56,167.20" fill="none" stroke="#bcbcbc" stroke-width="8" stroke-linecap="round" stroke-linejoin="round" /><polyline points="1240.21,-1765.90 1428.09,-1696.31 1454.54,-1700.83" fill="none" stroke="#bcbcbc" stroke-width="8" stroke-linecap="round" stroke-linejoin="round" />
    <polyline points="281.28,352.80 322.98,198.13 234.56,167.20 211.41,180.87 200.85,188.90 193.04,199.47 187.54,213.42 167.20,288.59 183.61,296.94 200.18,300.96 236.83,310.50 264.26,319.24 281.28,352.80" fill="none" stroke="#ffffff" stroke-width="16" stroke-linecap="round" stroke-linejoin="round" />
    <polyline points="281.28,352.80 322.98,198.13 234.56,167.20 211.41,180.87 200.85,188.90 193.04,199.47 187.54,213.42 167.20,288.59 183.61,296.94 200.18,300.96 236.83,310.50 264.26,319.24 281.28,352.80" fill="none" stroke="#111111" stroke-width="9" stroke-linecap="round" stroke-linejoin="round" />
    
            <g transform="translate(281.28,352.80)">
              <circle r="19" fill="#ffffff" stroke="#111111" stroke-width="4" />
              <text text-anchor="middle" dominant-baseline="central" font-family="Helvetica, Arial, sans-serif"
                font-size="18" font-weight="700" fill="#111111">1</text>
            </g>
            
            <g transform="translate(281.28,352.80)">
              <circle r="19" fill="#ffffff" stroke="#111111" stroke-width="4" />
              <text text-anchor="middle" dominant-baseline="central" font-family="Helvetica, Arial, sans-serif"
                font-size="18" font-weight="700" fill="#111111">2</text>
            </g>
            
  </g>
</svg>
