<svg xmlns="http://www.w3.org/2000/svg" width="520" height="520" viewBox="0 0 520 520">
  <rect width="100%" height="100%" fill="#ffffff" />
  <g>
    <polyline points="955.64,-136.63 957.40,-127.28 968.75,-47.89 967.02,-28.04" fill="none" stroke="#bcbcbc" stroke-width="8" stroke-linecap="round" stroke-linejoin="round" /><polyline points="724.96,524.96 727.71,516.53 742.24,471.82 743.96,466.55 745.69,461.02 782.25,344.44 785.19,335.07 778.46,318.49" fill="none" stroke="#bcbcbc" stroke-width="8" stroke-linecap="round" stroke-linejoin="round" /><polyline points="472.45,421.28 471.86,414.58 483.81,347.65 485.48,339.27 486.74,334.89 490.03,317.91 493.72,297.14 497.75,278.84 501.75,260.58 504.26,255.43 505.91,252.28" fill="none" stroke="#bcbcbc" stroke-width="8" stroke-linecap="round" stroke-linejoin="round" /><polyline points="541.82,-50.88 538.98,-59.55 509.61,-149.12 508.17,-152.87" fill="none" stroke="#bcbcbc" stroke-width="8" stroke-linecap="round" stroke-linejoin="round" /><polyline points="391.11,737.47 391.99,728.92 392.35,725.00 395.54,689.63 399.04,658.49 399.86,651.22 400.62,642.49 400.70,641.76 402.69,624.41 404.40,606.79 406.28,589.77 407.55,576.53 408.08,568.35 408.55,560.80 409.38,552.30" fill="none" stroke="#bcbcbc" stroke-width="8" stroke-linecap="round" stroke-linejoin="round" /><polyline points="796.94,545.74 799.04,539.17 813.77,492.84 815.45,487.58 817.83,480.08 819.53,474.70 832.58,418.44" fill="none" stroke="#bcbcbc" stroke-width="8" stroke-linecap="round" stroke-linejoin="round" /><polyline points="739.65,-370.65 745.10,-369.82 895.07,-346.77" fill="none" stroke="#bcbcbc" stroke-width="8" stroke-linecap="round" stroke-linejoin="round" /><polyline points="354.63,534.83 339.02,534.10 329.50,533.66 324.33,533.42 319.79,533.21 284.44,531.56 235.27,529.28 211.84,525.95 203.99,524.84 197.19,523.64 151.09,515.50 144.65,514.37 143.22,514.12 135.26,512.76 129.15,511.71 90.09,508.26 82.65,507.60 79.92,507.36 71.48,506.77 54.94,505.63" fill="none" stroke="#bcbcbc" stroke-width="8" stroke-linecap="round" stroke-linejoin="round" /><polyline points="581.42,489.54 584.45,480.93 611.69,405.41 644.47,310.14 646.57,304.17 648.03,299.99 649.22,296.57" fill="none" stroke="#bcbcbc" stroke-width="8" stroke-linecap="round" stroke-linejoin="round" /><polyline points="79.92,507.36 79.23,502.50 79.06,497.23 80.09,486.61 82.47,467.21 84.05,460.70 86.62,437.17 87.09,431.93 87.84,425.19 88.40,420.19 89.45,414.51 91.40,399.25 92.76,387.57 94.75,382.79" fill="none" stroke="#bcbcbc" stroke-width="8" stroke-linecap="round" stroke-linejoin="round" /><polyline points="52.03,376.83 88.38,381.90 94.75,382.79 98.69,383.42 114.98,386.02 152.52,392.00 158.96,393.07" fill="none" stroke="#bcbcbc" stroke-width="8" stroke-linecap="round" stroke-linejoin="round" /><polyline points="720.88,-99.92 721.12,-96.61 721.61,-93.27 722.79,-90.71 725.00,-87.85 729.09,-84.13 738.77,-78.24 813.50,-31.36 859.52,30.34 894.28,116.12 896.55,121.79" fill="none" stroke="#bcbcbc" stroke-width="8" stroke-linecap="round" stroke-linejoin="round" /><polyline points="708.92,150.39 710.47,152.95 710.87,153.61 712.15,160.09 720.92,202.48 723.70,215.93 725.69,225.52 728.80,244.94 730.25,253.90 731.25,259.36 732.34,264.30 733.65,267.18 735.57,270.51 736.60,272.09 756.01,299.88 766.51,316.42 769.25,320.37" fill="none" stroke="#bcbcbc" stroke-width="8" stroke-linecap="round" stroke-linejoin="round" /><polyline points="151.54,681.19 152.57,674.83 153.53,670.22 153.79,669.61 166.71,638.89 174.94,618.92 177.45,612.59 180.10,605.89 182.98,600.13 183.44,599.00 187.38,589.48 190.43,581.05 193.04,573.32 194.70,567.86 196.56,561.10 198.70,552.05 200.33,544.71 202.27,534.46 202.68,532.17 203.99,524.84" fill="none" stroke="#bcbcbc" stroke-width="8" stroke-linecap="round" stroke-linejoin="round" /><polyline points="777.64,-176.86 818.85,-148.07 824.40,-146.89 828.46,-142.24" fill="none" stroke="#bcbcbc" stroke-width="8" stroke-linecap="round" stroke-linejoin="round" /><polyline points="604.62,89.04 610.07,91.14 633.71,98.87 688.55,119.90 691.63,122.97 693.07,125.26" fill="none" stroke="#bcbcbc" stroke-width="8" stroke-linecap="round" stroke-linejoin="round" /><polyline points="706.82,629.46 710.55,619.73 728.99,569.71 742.03,531.92 744.73,530.68" fill="none" stroke="#bcbcbc" stroke-width="8" stroke-linecap="round" stroke-linejoin="round" /><polyline points="446.20,566.04 449.11,559.61 449.40,558.97 454.38,542.27 462.53,514.79 464.62,507.76 466.24,502.30 466.46,499.11 466.13,492.07" fill="none" stroke="#bcbcbc" stroke-width="8" stroke-linecap="round" stroke-linejoin="round" /><polyline points="785.08,152.58 780.41,153.55 769.81,151.66 768.17,147.29 749.82,140.30 745.48,141.43 728.92,135.35 726.45,137.08" fill="none" stroke="#bcbcbc" stroke-width="8" stroke-linecap="round" stroke-linejoin="round" /><polyline points="757.83,-415.11 766.15,-413.07 770.75,-412.27 880.15,-393.30" fill="none" stroke="#bcbcbc" stroke-width="8" stroke-linecap="round" stroke-linejoin="round" /><polyline points="672.80,599.00 677.35,586.17 686.19,561.24 691.91,550.62 700.13,527.59 703.41,518.40" fill="none" stroke="#bcbcbc" stroke-width="8" stroke-linecap="round" stroke-linejoin="round" /><polyline points="73.35,101.04 65.42,100.67 63.44,103.09 49.63,119.86 1.38,175.60 -5.41,183.44" fill="none" stroke="#bcbcbc" stroke-width="8" stroke-linecap="round" stroke-linejoin="round" /><polyline points="496.63,148.78 493.13,156.52 492.71,157.46 480.55,189.15 468.30,224.03 465.04,233.34 463.18,238.14" fill="none" stroke="#bcbcbc" stroke-width="8" stroke-linecap="round" stroke-linejoin="round" /><polyline points="674.89,-207.30 678.76,-202.06 681.51,-194.86 685.80,-184.52 692.69,-168.26 698.79,-153.66 705.78,-137.63 710.98,-125.28 711.75,-123.51 711.79,-123.40 715.97,-113.63 717.22,-110.86 718.41,-108.21 719.66,-105.74 720.61,-103.22 720.88,-99.92" fill="none" stroke="#bcbcbc" stroke-width="8" stroke-linecap="round" stroke-linejoin="round" /><polyline points="379.33,304.99 381.35,303.89 384.18,301.64 385.59,298.73 404.37,227.53 404.93,223.52 407.22,216.18" fill="none" stroke="#bcbcbc" stroke-width="8" stroke-linecap="round" stroke-linejoin="round" /><polyline points="1035.87,193.58 1038.53,202.04 1040.41,210.92 1036.76,244.76 1032.54,270.21 1030.24,278.89 1030.03,279.68 1028.01,284.36 1025.26,289.33 1018.84,297.46 1021.95,313.34 1011.88,347.44 1006.33,366.27 994.96,397.09 978.31,434.62 957.99,470.58 951.64,482.27 940.16,501.47 894.31,566.54 884.27,580.08 845.37,630.91 823.03,656.32 791.79,688.07 788.90,688.37 781.85,694.14" fill="none" stroke="#bcbcbc" stroke-width="8" stroke-linecap="round" stroke-linejoin="round" /><polyline points="470.11,750.21 482.91,710.51 485.00,703.96 487.85,699.83 493.96,681.48 495.95,675.25 521.20,596.20 523.74,588.25 525.83,581.26 555.63,487.48" fill="none" stroke="#bcbcbc" stroke-width="8" stroke-linecap="round" stroke-linejoin="round" /><polyline points="769.94,12.01 781.01,-0.07 784.27,-4.01 806.63,-35.67" fill="none" stroke="#bcbcbc" stroke-width="8" stroke-linecap="round" stroke-linejoin="round" /><polyline points="548.79,16.80 579.26,27.41 580.95,30.15 589.60,33.05 594.74,34.80 619.29,43.10" fill="none" stroke="#bcbcbc" stroke-width="8" stroke-linecap="round" stroke-linejoin="round" /><polyline points="814.37,-194.04 828.46,-142.24 844.78,-81.22 847.25,-76.13 847.64,-70.33 858.71,-49.67 888.56,6.00 895.09,15.63 896.98,18.45 941.59,101.84 962.09,120.48 964.97,124.19 969.02,127.66 1007.95,160.94 1010.59,163.20 1017.58,166.91" fill="none" stroke="#bcbcbc" stroke-width="8" stroke-linecap="round" stroke-linejoin="round" /><polyline points="662.98,758.63 760.06,702.24 777.34,693.41 781.85,694.14" fill="none" stroke="#bcbcbc" stroke-width="8" stroke-linecap="round" stroke-linejoin="round" /><polyline points="768.24,677.96 774.26,670.80 828.33,562.91 831.92,555.84 834.91,548.84 852.37,505.65 857.57,492.63 872.63,447.07 882.39,388.50 883.55,379.98" fill="none" stroke="#bcbcbc" stroke-width="8" stroke-linecap="round" stroke-linejoin="round" /><polyline points="726.51,43.47 725.56,44.44 724.26,48.98 724.13,49.43 718.26,72.02 719.80,77.92 718.52,83.21 716.84,90.13 712.55,95.11 707.68,114.85 701.94,119.18 695.81,123.39 693.07,125.26" fill="none" stroke="#bcbcbc" stroke-width="8" stroke-linecap="round" stroke-linejoin="round" /><polyline points="496.63,148.78 499.12,142.38 514.12,103.93 517.39,95.54 520.09,88.63 539.26,39.53 547.89,19.00 548.79,16.80 555.50,0.59 570.55,-36.77 576.06,-52.68 577.29,-56.33 578.94,-60.46" fill="none" stroke="#bcbcbc" stroke-width="8" stroke-linecap="round" stroke-linejoin="round" /><polyline points="664.49,-84.33 667.39,-75.70 762.60,5.62 814.55,50.82 892.14,118.27 898.91,123.68 901.95,125.58 915.41,137.80 933.39,153.14 974.18,187.91 987.35,199.24 996.09,209.70" fill="none" stroke="#bcbcbc" stroke-width="8" stroke-linecap="round" stroke-linejoin="round" /><polyline points="821.90,-224.45 826.73,-227.54 855.34,-239.43 861.22,-245.62" fill="none" stroke="#bcbcbc" stroke-width="8" stroke-linecap="round" stroke-linejoin="round" /><polyline points="854.94,499.21 815.45,487.58 743.96,466.55" fill="none" stroke="#bcbcbc" stroke-width="8" stroke-linecap="round" stroke-linejoin="round" /><polyline points="727.45,-340.84 732.85,-337.12 908.64,-298.01" fill="none" stroke="#bcbcbc" stroke-width="8" stroke-linecap="round" stroke-linejoin="round" /><polyline points="944.60,237.93 935.52,217.72 915.35,169.63 913.85,165.81 910.40,157.03 897.40,123.96 896.59,121.82" fill="none" stroke="#bcbcbc" stroke-width="8" stroke-linecap="round" stroke-linejoin="round" /><polyline points="674.89,-207.30 665.13,-210.07 657.96,-212.21 643.39,-216.54 635.98,-218.65 631.74,-219.83 626.20,-221.42" fill="none" stroke="#bcbcbc" stroke-width="8" stroke-linecap="round" stroke-linejoin="round" /><polyline points="420.42,57.17 419.93,55.56 419.47,54.43 417.46,49.43 409.67,31.26 402.26,12.81 400.66,8.45 398.82,3.43 397.50,-0.67 395.33,-6.83 395.10,-7.47 388.01,-24.94 375.00,-57.76 372.08,-59.42 370.00,-64.75 365.86,-79.16 358.75,-97.02 357.22,-101.09" fill="none" stroke="#bcbcbc" stroke-width="8" stroke-linecap="round" stroke-linejoin="round" /><polyline points="482.91,710.51 490.30,712.78 514.20,720.06 521.68,722.34" fill="none" stroke="#bcbcbc" stroke-width="8" stroke-linecap="round" stroke-linejoin="round" /><polyline points="929.24,-215.85 930.64,-221.48 930.07,-223.62 929.39,-226.20 925.02,-242.19 915.30,-275.98 910.16,-293.26 908.64,-298.01 895.07,-346.77 887.75,-373.08 880.15,-393.30 873.29,-411.55 866.45,-424.10 859.81,-430.72 808.83,-493.02 805.06,-497.45 802.56,-501.55" fill="none" stroke="#bcbcbc" stroke-width="8" stroke-linecap="round" stroke-linejoin="round" /><polyline points="720.88,-99.92 718.26,-98.91 713.39,-97.57 712.91,-97.44 692.60,-92.24 669.26,-85.67 664.49,-84.33 662.37,-83.66 656.76,-81.85 651.97,-80.52 631.03,-74.69 596.60,-64.91 583.77,-61.67 578.94,-60.46 555.99,-54.83 541.82,-50.88 511.80,-42.50 482.14,-34.14 478.71,-33.18 453.91,-26.30 442.47,-23.13 436.70,-20.40 425.77,-14.98 404.05,-3.96 402.54,-3.19 397.50,-0.67 394.43,0.87 390.14,3.12 374.88,11.11 347.09,26.71 323.87,38.87 320.55,40.61 316.12,40.89 313.45,42.30 312.92,42.58 287.73,56.39 282.46,56.36 276.40,59.53 274.29,60.64 272.50,61.57 268.29,63.77 264.98,71.34 250.72,78.97 246.19,81.40 241.28,84.07 221.45,94.86 211.20,100.44 206.03,101.93" fill="none" stroke="#bcbcbc" stroke-width="8" stroke-linecap="round" stroke-linejoin="round" /><polyline points="1006.33,366.27 995.74,367.24 962.68,370.26 961.19,370.40 959.08,370.59 955.67,370.91 923.62,373.85 912.47,372.82 899.49,376.07 889.09,378.62 883.55,379.98 869.79,380.50 857.87,379.89 851.80,379.25 846.63,377.68 842.83,375.58 828.65,365.56 794.21,341.91 790.97,339.70 787.66,337.46 785.19,335.07" fill="none" stroke="#bcbcbc" stroke-width="8" stroke-linecap="round" stroke-linejoin="round" /><polyline points="226.31,-33.07 238.80,-8.60 240.70,-1.61 251.22,18.47 255.57,24.22 273.16,58.45 274.29,60.64" fill="none" stroke="#bcbcbc" stroke-width="8" stroke-linecap="round" stroke-linejoin="round" /><polyline points="609.26,184.49 607.39,189.63 606.87,191.23 604.43,198.63 588.97,241.76 581.29,263.18 581.03,263.91 577.95,270.57 576.18,274.53" fill="none" stroke="#bcbcbc" stroke-width="8" stroke-linecap="round" stroke-linejoin="round" /><polyline points="814.37,-194.04 812.66,-197.71 808.15,-198.30 793.58,-194.96 790.62,-195.34 788.30,-198.45 784.17,-217.41 806.51,-220.87 816.85,-223.92 821.90,-224.45 827.35,-205.09" fill="none" stroke="#bcbcbc" stroke-width="8" stroke-linecap="round" stroke-linejoin="round" /><polyline points="895.09,15.63 900.84,12.40 929.74,-5.01 937.46,-9.61 950.98,-17.67 973.22,-32.05 978.41,-35.78 1017.42,-59.98" fill="none" stroke="#bcbcbc" stroke-width="8" stroke-linecap="round" stroke-linejoin="round" /><polyline points="1031.45,129.92 1021.58,126.99 1015.85,122.29 993.94,103.32 993.19,102.66 987.90,97.93 984.78,92.41 929.74,-5.01" fill="none" stroke="#bcbcbc" stroke-width="8" stroke-linecap="round" stroke-linejoin="round" /><polyline points="410.27,122.20 496.63,148.78 503.67,151.01 568.12,171.44 569.47,171.86 579.12,174.93 583.87,176.43 590.04,178.12 602.76,182.43 609.26,184.49 615.12,186.35 663.08,201.56 713.71,217.47 717.90,218.78 723.70,215.93" fill="none" stroke="#bcbcbc" stroke-width="8" stroke-linecap="round" stroke-linejoin="round" /><polyline points="664.19,-304.14 701.61,-338.51 707.94,-344.33" fill="none" stroke="#bcbcbc" stroke-width="8" stroke-linecap="round" stroke-linejoin="round" /><polyline points="37.76,250.49 175.03,265.20" fill="none" stroke="#bcbcbc" stroke-width="8" stroke-linecap="round" stroke-linejoin="round" /><polyline points="451.86,-132.63 480.71,-142.95 510.47,-153.71 528.96,-160.89 585.41,-181.42 601.80,-187.09 605.22,-188.27 609.33,-189.69 613.93,-191.27 614.50,-191.46 623.80,-195.20 627.84,-196.83" fill="none" stroke="#bcbcbc" stroke-width="8" stroke-linecap="round" stroke-linejoin="round" /><polyline points="645.64,565.49 672.80,599.00 689.43,615.74 696.62,620.93 706.82,629.46 716.39,637.50 724.61,645.52 724.82,649.60" fill="none" stroke="#bcbcbc" stroke-width="8" stroke-linecap="round" stroke-linejoin="round" /><polyline points="674.89,-207.30 685.54,-233.98 702.77,-277.90 727.45,-340.84 739.65,-370.65 757.83,-415.11 772.73,-451.52 775.40,-456.35 788.51,-477.78 789.36,-479.17 794.15,-488.60 802.56,-501.55 807.26,-508.78 813.90,-519.00" fill="none" stroke="#bcbcbc" stroke-width="8" stroke-linecap="round" stroke-linejoin="round" /><polyline points="423.76,506.07 422.02,507.47 420.87,509.13 418.52,516.05 416.89,521.05 409.39,543.47 408.36,546.71 407.72,548.72 400.84,546.74 384.07,541.12 367.46,535.55 354.63,534.83" fill="none" stroke="#bcbcbc" stroke-width="8" stroke-linecap="round" stroke-linejoin="round" /><polyline points="95.52,662.12 122.89,591.44 125.94,583.74 128.67,576.33 131.97,567.38 136.02,553.29 140.24,535.78 141.97,523.24 143.22,514.12 144.99,507.40 151.44,456.85 158.96,393.07 162.86,362.67 167.20,326.95 175.03,265.20 176.27,254.70 184.19,190.13 184.19,186.53 185.94,167.37 190.99,126.90 192.26,119.84 193.58,115.88 195.64,111.52 197.65,108.14 202.08,103.34 206.04,101.98" fill="none" stroke="#bcbcbc" stroke-width="8" stroke-linecap="round" stroke-linejoin="round" /><polyline points="693.07,125.26 694.57,127.63 699.59,135.47 707.11,147.51 708.92,150.39 711.92,148.11 726.45,137.08" fill="none" stroke="#bcbcbc" stroke-width="8" stroke-linecap="round" stroke-linejoin="round" /><polyline points="702.77,-277.91 850.66,-251.17 866.20,-243.00 924.14,-214.27 929.24,-215.85" fill="none" stroke="#bcbcbc" stroke-width="8" stroke-linecap="round" stroke-linejoin="round" /><polyline points="420.42,57.17 417.80,61.00 394.20,72.52 376.87,94.54 358.17,106.12 345.38,115.77 333.18,125.73 326.93,131.43 315.88,145.44 303.52,163.15 301.49,166.44" fill="none" stroke="#bcbcbc" stroke-width="8" stroke-linecap="round" stroke-linejoin="round" /><polyline points="445.37,72.97 444.34,75.25 442.11,78.52 437.88,83.72 412.95,115.20 399.77,150.72 333.21,125.70" fill="none" stroke="#bcbcbc" stroke-width="8" stroke-linecap="round" stroke-linejoin="round" /><polyline points="345.38,115.77 342.81,107.97 331.67,74.25 327.35,67.59 320.11,45.88 319.48,44.01 320.55,40.61 318.82,35.08 284.02,-76.04" fill="none" stroke="#bcbcbc" stroke-width="8" stroke-linecap="round" stroke-linejoin="round" /><polyline points="753.16,-490.49 780.66,-489.76 781.95,-489.73 787.22,-489.57 794.15,-488.60" fill="none" stroke="#bcbcbc" stroke-width="8" stroke-linecap="round" stroke-linejoin="round" /><polyline points="611.69,405.41 602.30,405.29 522.78,415.97 517.05,416.57 510.50,417.26 472.45,421.28 421.18,426.69 394.00,429.56 378.97,431.14 366.76,432.63 360.49,433.39 353.43,434.25 319.33,438.39 311.15,439.39 285.97,442.14 151.44,456.85" fill="none" stroke="#bcbcbc" stroke-width="8" stroke-linecap="round" stroke-linejoin="round" /><polyline points="493.96,681.48 486.92,679.22 454.01,668.63 447.36,666.49 441.59,664.63 406.73,653.43 399.86,651.22 390.77,648.29 335.28,630.44 329.03,628.43" fill="none" stroke="#bcbcbc" stroke-width="8" stroke-linecap="round" stroke-linejoin="round" /><polyline points="631.54,15.37 650.68,21.33 720.66,42.94 721.32,43.14 726.51,43.47" fill="none" stroke="#bcbcbc" stroke-width="8" stroke-linecap="round" stroke-linejoin="round" /><polyline points="828.46,-142.24 923.67,-140.56" fill="none" stroke="#bcbcbc" stroke-width="8" stroke-linecap="round" stroke-linejoin="round" /><polyline points="781.85,694.14 768.24,677.96 762.53,671.32 757.62,666.74 751.09,661.86 737.74,653.85 724.82,649.60 698.53,641.48 677.03,634.66 689.43,615.74" fill="none" stroke="#bcbcbc" stroke-width="8" stroke-linecap="round" stroke-linejoin="round" /><polyline points="645.64,565.49 626.68,542.10 623.08,537.66 603.99,511.36 599.67,503.33 600.71,493.77 606.46,493.72 620.66,496.45 642.26,500.60" fill="none" stroke="#bcbcbc" stroke-width="8" stroke-linecap="round" stroke-linejoin="round" /><polyline points="397.73,378.09 401.22,385.61 421.18,426.69 450.86,487.78 454.64,495.57" fill="none" stroke="#bcbcbc" stroke-width="8" stroke-linecap="round" stroke-linejoin="round" /><polyline points="78.07,564.17 85.21,567.09 118.64,580.76 125.94,583.74 133.62,586.88 172.98,602.98 180.10,605.89" fill="none" stroke="#bcbcbc" stroke-width="8" stroke-linecap="round" stroke-linejoin="round" /><polyline points="414.16,317.17 483.81,347.65" fill="none" stroke="#bcbcbc" stroke-width="8" stroke-linecap="round" stroke-linejoin="round" /><polyline points="726.51,43.47 737.12,44.02 737.79,44.63 742.55,48.85 749.55,55.09 750.84,57.61 774.96,78.72 776.74,82.09 793.70,97.06 797.96,98.36 811.15,109.91 814.11,111.26 834.00,128.13 838.43,132.06 840.87,135.95" fill="none" stroke="#bcbcbc" stroke-width="8" stroke-linecap="round" stroke-linejoin="round" /><polyline points="58.41,317.24 167.20,326.95" fill="none" stroke="#bcbcbc" stroke-width="8" stroke-linecap="round" stroke-linejoin="round" /><polyline points="301.32,722.33 304.69,715.16 305.56,711.96 310.28,694.55 327.40,634.20 329.03,628.43 330.77,622.09 338.52,593.74 351.61,545.86 354.63,534.83" fill="none" stroke="#bcbcbc" stroke-width="8" stroke-linecap="round" stroke-linejoin="round" /><polyline points="397.73,378.09 414.16,317.17 379.33,304.99 370.21,310.38 366.05,313.54 362.98,317.70 360.81,323.20 352.80,352.80 359.26,356.09 365.79,357.67 380.22,361.43 391.03,364.87 397.73,378.09" fill="none" stroke="#bcbcbc" stroke-width="8" stroke-linecap="round" stroke-linejoin="round" /><polyline points="642.26,500.60 658.77,504.21 703.41,518.40 715.90,522.35 745.53,530.91 775.38,539.51 797.47,545.90 832.81,556.10 840.11,558.21 857.95,564.19 887.31,572.01 889.90,572.49" fill="none" stroke="#bcbcbc" stroke-width="8" stroke-linecap="round" stroke-linejoin="round" /><polyline points="663.20,758.50 657.18,760.02 650.67,778.17 640.57,775.30 594.65,759.65 589.12,758.47 576.83,757.59 521.22,757.81 508.96,756.25 481.28,752.02 470.11,750.21 390.91,737.43 360.24,732.54 301.75,722.41 292.31,720.54 160.31,683.64 151.98,681.31 95.52,662.12 81.63,657.19 46.93,642.81 27.15,635.33" fill="none" stroke="#bcbcbc" stroke-width="8" stroke-linecap="round" stroke-linejoin="round" /><polyline points="784.17,-217.41 778.46,-218.59 702.17,-209.57 674.89,-207.30" fill="none" stroke="#bcbcbc" stroke-width="8" stroke-linecap="round" stroke-linejoin="round" /><polyline points="642.26,500.60 644.94,496.13 660.95,455.02 678.83,392.85 683.40,379.46 685.84,375.82 703.11,320.38 703.96,313.77 704.62,309.44" fill="none" stroke="#bcbcbc" stroke-width="8" stroke-linecap="round" stroke-linejoin="round" /><polyline points="720.88,-99.92 722.71,-100.61 725.18,-102.58 728.93,-106.97 777.64,-176.86 790.62,-195.34" fill="none" stroke="#bcbcbc" stroke-width="8" stroke-linecap="round" stroke-linejoin="round" /><polyline points="937.69,156.82 938.68,153.95 963.17,125.15 964.97,124.19 969.22,118.37 983.46,102.01 987.90,97.93" fill="none" stroke="#bcbcbc" stroke-width="8" stroke-linecap="round" stroke-linejoin="round" /><polyline points="959.08,370.59 958.75,366.74 958.48,363.76 957.19,358.06 955.65,354.34 953.73,344.57 953.55,341.03 952.25,333.12 946.42,330.08 941.76,331.86 933.42,333.85 926.83,334.89 920.50,336.41 911.76,338.41 907.77,339.31" fill="none" stroke="#bcbcbc" stroke-width="8" stroke-linecap="round" stroke-linejoin="round" /><polyline points="315.77,229.13 333.57,187.38 334.56,184.67" fill="none" stroke="#bcbcbc" stroke-width="8" stroke-linecap="round" stroke-linejoin="round" /><polyline points="785.08,152.58 793.67,149.26 798.15,147.52 801.62,144.01 815.93,140.48 820.73,141.70 831.09,139.03 838.99,137.00 840.87,135.95 848.54,134.07 887.71,124.48 896.59,121.82" fill="none" stroke="#bcbcbc" stroke-width="8" stroke-linecap="round" stroke-linejoin="round" /><polyline points="423.76,506.07 442.24,499.36 448.42,497.47 454.64,495.57 466.13,492.07 475.06,490.78 505.57,487.44 511.70,487.11 539.00,487.34 555.63,487.48 561.89,487.16 571.90,488.18 575.04,488.63 581.42,489.54 600.71,493.77" fill="none" stroke="#bcbcbc" stroke-width="8" stroke-linecap="round" stroke-linejoin="round" /><polyline points="511.80,-42.50 508.74,-52.85 497.37,-91.29 483.56,-135.12 480.71,-142.95 477.82,-150.28 474.16,-160.85" fill="none" stroke="#bcbcbc" stroke-width="8" stroke-linecap="round" stroke-linejoin="round" /><polyline points="478.73,577.33 481.16,569.66 505.73,492.21 505.57,487.44" fill="none" stroke="#bcbcbc" stroke-width="8" stroke-linecap="round" stroke-linejoin="round" /><polyline points="511.70,487.11 516.57,421.89 517.05,416.57 517.80,410.38 517.81,410.10 518.13,402.54 519.75,382.01 520.67,372.45 521.92,361.59 523.06,353.77 524.08,348.85 525.37,345.14 527.90,336.78 533.11,319.37 539.75,296.89 547.06,273.90 548.56,269.21 549.75,265.82" fill="none" stroke="#bcbcbc" stroke-width="8" stroke-linecap="round" stroke-linejoin="round" /><polyline points="352.80,352.80 351.51,358.58 351.73,360.43 359.65,426.40 360.49,433.39 360.13,440.58 358.05,481.61 357.19,498.76 356.74,507.60 355.94,523.36 355.53,531.57 354.63,534.83" fill="none" stroke="#bcbcbc" stroke-width="8" stroke-linecap="round" stroke-linejoin="round" /><polyline points="315.77,229.13 286.95,220.56 283.29,218.21 265.36,212.99 260.32,213.04 237.79,206.25 234.15,203.57 213.64,197.35 188.49,190.50 188.36,190.49 184.19,190.13" fill="none" stroke="#bcbcbc" stroke-width="8" stroke-linecap="round" stroke-linejoin="round" /><polyline points="840.87,135.95 841.87,137.26 846.05,143.49 853.78,155.00 861.05,162.29 875.02,177.98 872.66,192.48 871.46,197.91 869.80,200.21 873.30,205.40 878.72,216.55 889.56,237.45 894.89,247.75 898.21,257.00 899.71,261.29" fill="none" stroke="#bcbcbc" stroke-width="8" stroke-linecap="round" stroke-linejoin="round" /><polyline points="913.85,165.81 909.83,167.06 883.37,175.29 879.58,176.51 875.03,177.98" fill="none" stroke="#bcbcbc" stroke-width="8" stroke-linecap="round" stroke-linejoin="round" /><polyline points="723.70,215.93 731.98,213.25 792.04,182.58 800.08,178.66 828.39,170.48 855.83,162.76 861.05,162.29" fill="none" stroke="#bcbcbc" stroke-width="8" stroke-linecap="round" stroke-linejoin="round" /><polyline points="730.25,253.90 799.49,221.68 802.40,219.75 809.17,217.78 855.31,204.36 862.31,201.68 869.80,200.21" fill="none" stroke="#bcbcbc" stroke-width="8" stroke-linecap="round" stroke-linejoin="round" /><polyline points="716.12,-421.59 744.15,-418.12 746.96,-417.78 757.83,-415.11" fill="none" stroke="#bcbcbc" stroke-width="8" stroke-linecap="round" stroke-linejoin="round" /><polyline points="955.64,-136.63 960.61,-137.67 979.19,-128.57 981.63,-126.15 1016.50,-67.13 1017.42,-59.98 1021.95,-56.20 1021.23,-53.59 1021.12,-49.34 1021.75,-43.39 1030.98,-5.44 1031.80,20.84 1033.09,62.81 1035.26,119.29 1026.42,143.91 1020.72,158.91 1012.41,180.06 1010.00,186.18 1008.44,187.88 1005.92,204.25" fill="none" stroke="#bcbcbc" stroke-width="8" stroke-linecap="round" stroke-linejoin="round" /><polyline points="1020.10,303.93 1011.62,300.24 990.43,285.46 962.48,265.82 947.10,253.38 936.73,242.27" fill="none" stroke="#bcbcbc" stroke-width="8" stroke-linecap="round" stroke-linejoin="round" /><polyline points="677.03,634.66 668.70,632.02 655.19,627.74 648.74,625.69 641.17,623.29 631.60,620.26 622.94,617.51 614.39,614.80 576.25,602.70 569.57,600.58 561.27,597.95 559.44,597.37 537.62,591.61 531.46,590.12 523.74,588.25 515.66,586.29 486.54,579.23 478.73,577.33 470.34,574.42 452.81,568.33 446.20,566.04 440.29,564.12 412.84,554.36 409.38,552.30 407.72,548.72" fill="none" stroke="#bcbcbc" stroke-width="8" stroke-linecap="round" stroke-linejoin="round" /><polyline points="802.40,219.75 800.38,212.50 794.36,190.89 792.04,182.58 788.69,176.37 788.38,175.22 786.40,167.91 788.70,164.67 785.94,155.45 785.08,152.58" fill="none" stroke="#bcbcbc" stroke-width="8" stroke-linecap="round" stroke-linejoin="round" /><polyline points="792.33,-44.67 798.06,-47.37 829.36,-64.63 847.25,-76.13 859.87,-84.74 862.66,-86.82 872.82,-93.88 883.34,-101.65 890.01,-106.50 897.95,-112.31 925.57,-124.77 929.15,-124.58 934.38,-127.06 955.64,-136.63" fill="none" stroke="#bcbcbc" stroke-width="8" stroke-linecap="round" stroke-linejoin="round" /><polyline points="445.37,72.97 449.88,74.81 452.87,75.72 508.85,92.91 517.39,95.54" fill="none" stroke="#bcbcbc" stroke-width="8" stroke-linecap="round" stroke-linejoin="round" /><polyline points="45.52,198.85 5.53,186.75" fill="none" stroke="#bcbcbc" stroke-width="8" stroke-linecap="round" stroke-linejoin="round" /><polyline points="691.54,-365.10 701.45,-352.54 702.93,-350.67 707.94,-344.33 713.64,-343.66 725.37,-342.28 727.45,-340.84" fill="none" stroke="#bcbcbc" stroke-width="8" stroke-linecap="round" stroke-linejoin="round" /><polyline points="1035.87,193.58 1020.16,196.51 1004.04,205.27 989.11,213.58 974.98,220.64 957.92,229.91 945.56,237.42 921.13,250.51 825.79,298.48 801.07,309.37 784.73,316.43 776.64,319.08 769.95,320.33 758.99,320.99 743.39,318.78 704.47,309.44 649.22,296.57 576.53,274.64 549.75,265.82 505.91,252.28 463.97,238.45 402.47,214.32 371.72,201.08 334.64,184.60 273.13,150.90 258.71,141.34 222.22,118.39 206.92,103.09 183.97,73.37 146.15,34.38 131.29,21.28" fill="none" stroke="#bcbcbc" stroke-width="8" stroke-linecap="round" stroke-linejoin="round" /><polyline points="737.74,653.85 738.38,650.26 740.71,644.38 762.52,593.35 770.76,574.22 780.47,550.39 782.83,541.66" fill="none" stroke="#bcbcbc" stroke-width="8" stroke-linecap="round" stroke-linejoin="round" /><polyline points="319.33,438.39 294.55,426.40 238.18,399.12 169.03,365.65 162.86,362.67" fill="none" stroke="#bcbcbc" stroke-width="8" stroke-linecap="round" stroke-linejoin="round" /><polyline points="726.51,43.47 732.76,37.06 749.40,20.04 762.60,5.62" fill="none" stroke="#bcbcbc" stroke-width="8" stroke-linecap="round" stroke-linejoin="round" /><polyline points="246.19,81.40 239.32,72.30 207.11,29.66 161.14,-7.54" fill="none" stroke="#bcbcbc" stroke-width="8" stroke-linecap="round" stroke-linejoin="round" /><polyline points="46.68,642.71 52.97,627.80 72.96,577.97 75.38,571.43 78.07,564.17 79.09,561.55 79.36,557.45 81.92,518.71 82.65,507.60" fill="none" stroke="#bcbcbc" stroke-width="8" stroke-linecap="round" stroke-linejoin="round" /><polyline points="33.04,242.13 45.52,198.85 61.99,141.77 64.02,134.70 66.29,126.68 71.36,108.70 71.90,106.82 73.35,101.04 75.67,94.50 76.23,92.92 79.15,85.67 84.90,73.00 86.62,69.36" fill="none" stroke="#bcbcbc" stroke-width="8" stroke-linecap="round" stroke-linejoin="round" /><polyline points="64.02,134.70 89.27,141.16 142.76,154.91 173.23,164.39 185.94,167.37" fill="none" stroke="#bcbcbc" stroke-width="8" stroke-linecap="round" stroke-linejoin="round" /><polyline points="583.77,-61.67 584.63,-66.92 585.49,-72.38 589.19,-90.63 598.45,-133.10 606.05,-171.10 607.44,-178.98 609.33,-189.69 609.33,-189.70" fill="none" stroke="#bcbcbc" stroke-width="8" stroke-linecap="round" stroke-linejoin="round" /><polyline points="509.01,756.26 520.28,727.50 521.68,722.34 566.42,608.77 569.57,600.58 572.11,593.63 598.84,515.85 603.99,511.36" fill="none" stroke="#bcbcbc" stroke-width="8" stroke-linecap="round" stroke-linejoin="round" /><polyline points="662.37,-83.66 662.37,-83.67 660.78,-91.98 660.53,-92.99 656.67,-108.71 656.67,-108.76 654.04,-119.42 642.87,-157.68 641.46,-161.78 633.92,-182.27 631.47,-188.39 629.89,-192.34 627.84,-196.82 627.84,-196.83 627.84,-196.85 626.34,-213.33 626.20,-221.42" fill="none" stroke="#bcbcbc" stroke-width="8" stroke-linecap="round" stroke-linejoin="round" /><polyline points="645.63,565.50 642.76,568.60 638.49,573.69 626.43,607.67 622.94,617.51" fill="none" stroke="#bcbcbc" stroke-width="8" stroke-linecap="round" stroke-linejoin="round" /><polyline points="445.37,72.97 447.01,68.51 447.38,67.48 455.21,45.61 458.15,36.40 482.14,-34.14" fill="none" stroke="#bcbcbc" stroke-width="8" stroke-linecap="round" stroke-linejoin="round" /><polyline points="569.47,171.86 571.91,165.36 578.54,147.76 581.35,140.31 583.24,135.27 588.56,121.14 592.08,111.81 592.55,110.55 601.06,87.94 604.62,89.04 606.55,83.79 609.96,74.50 609.31,70.29 618.37,45.63 619.30,43.10 621.01,41.52 622.46,40.19 631.54,15.37 632.85,8.57 645.88,-27.63 648.96,-30.04 655.23,-47.78 654.12,-50.50 659.61,-67.06 656.76,-81.85" fill="none" stroke="#bcbcbc" stroke-width="8" stroke-linecap="round" stroke-linejoin="round" /><polyline points="802.56,-501.55 798.91,-507.54 779.72,-539.01" fill="none" stroke="#bcbcbc" stroke-width="8" stroke-linecap="round" stroke-linejoin="round" /><polyline points="862.66,-86.82 950.71,-30.20 950.73,-30.16 950.73,-30.15 967.02,-28.04" fill="none" stroke="#bcbcbc" stroke-width="8" stroke-linecap="round" stroke-linejoin="round" /><polyline points="827.35,-205.09 921.03,-158.07 923.86,-155.96 923.67,-140.56 925.57,-124.77" fill="none" stroke="#bcbcbc" stroke-width="8" stroke-linecap="round" stroke-linejoin="round" /><polyline points="648.74,625.69 645.37,635.97 631.72,677.60 608.51,747.70 606.86,752.68 605.19,757.72 604.72,763.08" fill="none" stroke="#bcbcbc" stroke-width="8" stroke-linecap="round" stroke-linejoin="round" /><polyline points="912.47,372.82 913.03,367.59 913.15,362.72 913.11,362.55 909.79,348.20 908.43,342.21 907.77,339.31 907.10,336.36 903.46,320.31 896.34,288.23 891.17,268.94 890.43,265.96" fill="none" stroke="#bcbcbc" stroke-width="8" stroke-linecap="round" stroke-linejoin="round" /><polyline points="447.36,666.49 449.69,659.89 475.77,585.75 478.73,577.33" fill="none" stroke="#bcbcbc" stroke-width="8" stroke-linecap="round" stroke-linejoin="round" /><polyline points="1033.09,62.81 1025.42,60.64 973.30,-19.33 967.02,-28.04" fill="none" stroke="#bcbcbc" stroke-width="8" stroke-linecap="round" stroke-linejoin="round" /><polyline points="176.27,254.70 366.23,300.21 379.33,304.99" fill="none" stroke="#bcbcbc" stroke-width="8" stroke-linecap="round" stroke-linejoin="round" /><polyline points="775.40,-456.35 849.40,-428.95 859.81,-430.72" fill="none" stroke="#bcbcbc" stroke-width="8" stroke-linecap="round" stroke-linejoin="round" />
    <polyline points="352.80,352.80 345.17,351.74 167.20,326.95" fill="none" stroke="#ffffff" stroke-width="16" stroke-linecap="round" stroke-linejoin="round" />
    <polyline points="352.80,352.80 345.17,351.74 167.20,326.95" fill="none" stroke="#111111" stroke-width="9" stroke-linecap="round" stroke-linejoin="round" />
    
            <g transform="translate(352.80,352.80)">
              <circle r="19" fill="#ffffff" stroke="#111111" stroke-width="4" />
              <text text-anchor="middle" dominant-baseline="central" font-family="Helvetica, Arial, sans-serif"
                font-size="18" font-weight="700" fill="#111111">1</text>
            </g>
            
            <g transform="translate(167.20,326.95)">
              <circle r="19" fill="#ffffff" stroke="#111111" stroke-width="4" />
              <text text-anchor="middle" dominant-baseline="central" font-family="Helvetica, Arial, sans-serif"
                font-size="18" font-weight="700" fill="#111111">2</text>
            </g>
            
  </g>
</svg>
