<svg xmlns="http://www.w3.org/2000/svg" width="520" height="520" viewBox="0 0 520 520">
  <rect width="100%" height="100%" fill="#ffffff" />
  <g>
    <polyline points="402.07,-178.65 403.39,-171.64 411.90,-112.14 410.60,-97.27" fill="none" stroke="#bcbcbc" stroke-width="8" stroke-linecap="round" stroke-linejoin="round" /><polyline points="229.18,317.18 231.24,310.86 242.13,277.35 243.42,273.40 244.72,269.25 272.12,181.89 274.32,174.86 269.27,162.43" fill="none" stroke="#bcbcbc" stroke-width="8" stroke-linecap="round" stroke-linejoin="round" /><polyline points="39.93,239.47 39.48,234.45 48.44,184.29 49.70,178.01 50.64,174.73 53.10,162.01 55.87,146.43 58.89,132.72 61.88,119.04 63.77,115.18 65.00,112.82" fill="none" stroke="#bcbcbc" stroke-width="8" stroke-linecap="round" stroke-linejoin="round" /><polyline points="91.92,-114.39 89.79,-120.88 67.78,-188.01 66.70,-190.83" fill="none" stroke="#bcbcbc" stroke-width="8" stroke-linecap="round" stroke-linejoin="round" /><polyline points="-21.03,476.44 -20.38,470.03 -20.11,467.09 -17.71,440.59 -15.09,417.25 -14.48,411.80 -13.91,405.26 -13.84,404.71 -12.36,391.71 -11.08,378.50 -9.66,365.75 -8.71,355.82 -8.31,349.70 -7.96,344.04 -7.34,337.67" fill="none" stroke="#bcbcbc" stroke-width="8" stroke-linecap="round" stroke-linejoin="round" /><polyline points="283.13,332.75 284.70,327.83 295.75,293.10 297.00,289.16 298.78,283.54 300.06,279.51 309.84,237.35" fill="none" stroke="#bcbcbc" stroke-width="8" stroke-linecap="round" stroke-linejoin="round" /><polyline points="240.19,-354.04 244.27,-353.41 356.68,-336.14" fill="none" stroke="#bcbcbc" stroke-width="8" stroke-linecap="round" stroke-linejoin="round" /><polyline points="-48.38,324.57 -60.08,324.03 -67.21,323.70 -71.09,323.52 -74.49,323.36 -100.98,322.12 -137.83,320.41 -155.40,317.92 -161.28,317.09 -166.38,316.19 -200.92,310.09 -205.75,309.24 -206.82,309.05 -212.79,308.03 -217.37,307.25 -246.65,304.66 -252.22,304.17 -254.27,303.99 -260.60,303.55 -272.99,302.69" fill="none" stroke="#bcbcbc" stroke-width="8" stroke-linecap="round" stroke-linejoin="round" /><polyline points="121.60,290.63 123.87,284.18 144.29,227.58 168.85,156.18 170.43,151.70 171.53,148.58 172.41,146.01" fill="none" stroke="#bcbcbc" stroke-width="8" stroke-linecap="round" stroke-linejoin="round" /><polyline points="-254.27,303.99 -254.79,300.35 -254.91,296.39 -254.14,288.43 -252.36,273.90 -251.17,269.02 -249.25,251.38 -248.90,247.45 -248.33,242.40 -247.91,238.65 -247.13,234.40 -245.66,222.96 -244.65,214.21 -243.15,210.63" fill="none" stroke="#bcbcbc" stroke-width="8" stroke-linecap="round" stroke-linejoin="round" /><polyline points="-275.17,206.16 -247.93,209.96 -243.15,210.63 -240.20,211.10 -227.99,213.05 -199.86,217.53 -195.03,218.33" fill="none" stroke="#bcbcbc" stroke-width="8" stroke-linecap="round" stroke-linejoin="round" /><polyline points="226.13,-151.14 226.30,-148.66 226.67,-146.15 227.55,-144.23 229.21,-142.09 232.27,-139.31 239.53,-134.89 295.54,-99.76 330.03,-53.52 356.08,10.77 357.78,15.02" fill="none" stroke="#bcbcbc" stroke-width="8" stroke-linecap="round" stroke-linejoin="round" /><polyline points="217.16,36.45 218.32,38.37 218.62,38.87 219.58,43.72 226.15,75.49 228.24,85.58 229.73,92.76 232.06,107.32 233.14,114.03 233.89,118.13 234.71,121.83 235.69,123.98 237.13,126.48 237.90,127.66 252.45,148.49 260.32,160.89 262.38,163.85" fill="none" stroke="#bcbcbc" stroke-width="8" stroke-linecap="round" stroke-linejoin="round" /><polyline points="-200.59,434.26 -199.82,429.49 -199.10,426.05 -198.91,425.59 -189.22,402.56 -183.05,387.60 -181.17,382.85 -179.19,377.83 -177.03,373.51 -176.68,372.67 -173.73,365.53 -171.44,359.21 -169.49,353.42 -168.24,349.33 -166.85,344.27 -165.24,337.48 -164.02,331.98 -162.56,324.29 -162.26,322.58 -161.28,317.09" fill="none" stroke="#bcbcbc" stroke-width="8" stroke-linecap="round" stroke-linejoin="round" /><polyline points="268.67,-208.80 299.55,-187.22 303.71,-186.34 306.75,-182.85" fill="none" stroke="#bcbcbc" stroke-width="8" stroke-linecap="round" stroke-linejoin="round" /><polyline points="138.99,-9.52 143.07,-7.95 160.79,-2.16 201.89,13.61 204.20,15.90 205.28,17.62" fill="none" stroke="#bcbcbc" stroke-width="8" stroke-linecap="round" stroke-linejoin="round" /><polyline points="215.58,395.50 218.38,388.20 232.20,350.71 241.97,322.39 244.00,321.46" fill="none" stroke="#bcbcbc" stroke-width="8" stroke-linecap="round" stroke-linejoin="round" /><polyline points="20.26,347.96 22.44,343.14 22.65,342.67 26.38,330.15 32.49,309.56 34.06,304.29 35.27,300.19 35.44,297.81 35.19,292.52" fill="none" stroke="#bcbcbc" stroke-width="8" stroke-linecap="round" stroke-linejoin="round" /><polyline points="274.24,38.10 270.74,38.82 262.80,37.41 261.57,34.13 247.81,28.89 244.56,29.74 232.15,25.18 230.30,26.48" fill="none" stroke="#bcbcbc" stroke-width="8" stroke-linecap="round" stroke-linejoin="round" /><polyline points="253.82,-387.36 260.05,-385.83 263.50,-385.23 345.50,-371.01" fill="none" stroke="#bcbcbc" stroke-width="8" stroke-linecap="round" stroke-linejoin="round" /><polyline points="190.09,372.67 193.50,363.05 200.12,344.36 204.41,336.40 210.57,319.15 213.03,312.26" fill="none" stroke="#bcbcbc" stroke-width="8" stroke-linecap="round" stroke-linejoin="round" /><polyline points="-259.19,-0.53 -265.13,-0.80 -266.62,1.00 -276.97,13.57 -313.14,55.35 -318.22,61.22" fill="none" stroke="#bcbcbc" stroke-width="8" stroke-linecap="round" stroke-linejoin="round" /><polyline points="58.05,35.25 55.43,41.05 55.11,41.75 46.00,65.50 36.82,91.65 34.37,98.62 32.98,102.22" fill="none" stroke="#bcbcbc" stroke-width="8" stroke-linecap="round" stroke-linejoin="round" /><polyline points="191.66,-231.61 194.55,-227.69 196.62,-222.29 199.83,-214.54 204.99,-202.35 209.56,-191.42 214.81,-179.40 218.70,-170.15 219.28,-168.82 219.31,-168.74 222.44,-161.41 223.38,-159.33 224.27,-157.35 225.21,-155.50 225.92,-153.61 226.13,-151.14" fill="none" stroke="#bcbcbc" stroke-width="8" stroke-linecap="round" stroke-linejoin="round" /><polyline points="-29.86,152.32 -28.35,151.49 -26.23,149.81 -25.17,147.63 -11.10,94.27 -10.67,91.26 -8.96,85.76" fill="none" stroke="#bcbcbc" stroke-width="8" stroke-linecap="round" stroke-linejoin="round" /><polyline points="462.20,68.83 464.20,75.16 465.60,81.82 462.87,107.18 459.71,126.25 457.98,132.76 457.82,133.35 456.31,136.86 454.25,140.58 449.44,146.67 451.77,158.58 444.23,184.13 440.06,198.24 431.54,221.34 419.07,249.47 403.83,276.42 399.07,285.18 390.47,299.57 356.11,348.34 348.58,358.49 319.42,396.58 302.69,415.63 279.27,439.42 277.10,439.64 271.82,443.97" fill="none" stroke="#bcbcbc" stroke-width="8" stroke-linecap="round" stroke-linejoin="round" /><polyline points="38.17,485.99 47.77,456.24 49.34,451.33 51.47,448.23 56.05,434.48 57.54,429.81 76.47,370.57 78.37,364.61 79.94,359.37 102.27,289.09" fill="none" stroke="#bcbcbc" stroke-width="8" stroke-linecap="round" stroke-linejoin="round" /><polyline points="262.90,-67.25 271.19,-76.31 273.63,-79.26 290.39,-102.99" fill="none" stroke="#bcbcbc" stroke-width="8" stroke-linecap="round" stroke-linejoin="round" /><polyline points="97.15,-63.66 119.98,-55.71 121.25,-53.66 127.73,-51.49 131.58,-50.17 149.99,-43.95" fill="none" stroke="#bcbcbc" stroke-width="8" stroke-linecap="round" stroke-linejoin="round" /><polyline points="296.19,-221.68 306.75,-182.85 318.98,-137.12 320.84,-133.31 321.13,-128.96 329.42,-113.48 351.80,-71.76 356.69,-64.54 358.11,-62.43 391.54,0.07 406.91,14.04 409.06,16.82 412.10,19.42 441.27,44.36 443.25,46.05 448.49,48.84" fill="none" stroke="#bcbcbc" stroke-width="8" stroke-linecap="round" stroke-linejoin="round" /><polyline points="182.73,492.30 255.49,450.04 268.44,443.42 271.82,443.97" fill="none" stroke="#bcbcbc" stroke-width="8" stroke-linecap="round" stroke-linejoin="round" /><polyline points="261.62,431.84 266.13,426.48 306.66,345.62 309.34,340.32 311.58,335.07 324.68,302.70 328.57,292.95 339.86,258.81 347.17,214.91 348.04,208.52" fill="none" stroke="#bcbcbc" stroke-width="8" stroke-linecap="round" stroke-linejoin="round" /><polyline points="230.34,-43.68 229.63,-42.95 228.65,-39.55 228.56,-39.21 224.16,-22.28 225.31,-17.85 224.35,-13.89 223.10,-8.70 219.88,-4.98 216.23,9.82 211.92,13.07 207.33,16.22 205.28,17.62" fill="none" stroke="#bcbcbc" stroke-width="8" stroke-linecap="round" stroke-linejoin="round" /><polyline points="58.05,35.25 59.92,30.45 71.16,1.63 73.61,-4.65 75.63,-9.83 90.00,-46.63 96.47,-62.02 97.15,-63.66 102.17,-75.81 113.45,-103.81 117.58,-115.73 118.50,-118.47 119.74,-121.57" fill="none" stroke="#bcbcbc" stroke-width="8" stroke-linecap="round" stroke-linejoin="round" /><polyline points="183.86,-139.45 186.04,-132.98 257.39,-72.04 296.33,-38.17 354.48,12.38 359.56,16.44 361.83,17.86 371.92,27.02 385.40,38.52 415.97,64.58 425.84,73.07 432.39,80.90" fill="none" stroke="#bcbcbc" stroke-width="8" stroke-linecap="round" stroke-linejoin="round" /><polyline points="301.84,-244.47 305.46,-246.79 326.90,-255.70 331.30,-260.33" fill="none" stroke="#bcbcbc" stroke-width="8" stroke-linecap="round" stroke-linejoin="round" /><polyline points="326.60,297.88 297.00,289.16 243.42,273.40" fill="none" stroke="#bcbcbc" stroke-width="8" stroke-linecap="round" stroke-linejoin="round" /><polyline points="231.05,-331.70 235.09,-328.91 366.85,-299.59" fill="none" stroke="#bcbcbc" stroke-width="8" stroke-linecap="round" stroke-linejoin="round" /><polyline points="393.80,102.06 386.99,86.91 371.88,50.88 370.75,48.01 368.17,41.44 358.43,16.65 357.81,15.05" fill="none" stroke="#bcbcbc" stroke-width="8" stroke-linecap="round" stroke-linejoin="round" /><polyline points="191.66,-231.61 184.34,-233.69 178.97,-235.29 168.04,-238.54 162.49,-240.12 159.31,-241.00 155.16,-242.19" fill="none" stroke="#bcbcbc" stroke-width="8" stroke-linecap="round" stroke-linejoin="round" /><polyline points="0.93,-33.41 0.56,-34.62 0.22,-35.46 -1.29,-39.21 -7.13,-52.82 -12.68,-66.65 -13.88,-69.92 -15.26,-73.68 -16.24,-76.76 -17.88,-81.37 -18.05,-81.86 -23.36,-94.94 -33.11,-119.54 -35.30,-120.79 -36.85,-124.78 -39.96,-135.58 -45.29,-148.97 -46.44,-152.01" fill="none" stroke="#bcbcbc" stroke-width="8" stroke-linecap="round" stroke-linejoin="round" /><polyline points="47.77,456.24 53.30,457.93 71.22,463.39 76.83,465.10" fill="none" stroke="#bcbcbc" stroke-width="8" stroke-linecap="round" stroke-linejoin="round" /><polyline points="382.29,-238.02 383.33,-242.24 382.91,-243.85 382.40,-245.78 379.13,-257.76 371.83,-283.09 367.99,-296.04 366.85,-299.59 356.68,-336.14 351.19,-355.86 345.50,-371.01 340.35,-384.69 335.23,-394.09 330.25,-399.06 292.04,-445.75 289.21,-449.07 287.34,-452.14" fill="none" stroke="#bcbcbc" stroke-width="8" stroke-linecap="round" stroke-linejoin="round" /><polyline points="226.13,-151.14 224.16,-150.38 220.51,-149.38 220.15,-149.28 204.93,-145.39 187.43,-140.46 183.86,-139.45 182.27,-138.95 178.07,-137.60 174.47,-136.60 158.78,-132.23 132.98,-124.90 123.36,-122.47 119.74,-121.57 102.54,-117.34 91.92,-114.39 69.42,-108.10 47.19,-101.84 44.62,-101.12 26.03,-95.97 17.46,-93.59 13.13,-91.54 4.94,-87.48 -11.33,-79.22 -12.47,-78.65 -16.24,-76.76 -18.55,-75.60 -21.76,-73.92 -33.20,-67.92 -54.03,-56.24 -71.43,-47.12 -73.92,-45.82 -77.24,-45.61 -79.24,-44.55 -79.64,-44.34 -98.52,-33.99 -102.47,-34.01 -107.01,-31.64 -108.59,-30.81 -109.93,-30.11 -113.08,-28.46 -115.57,-22.79 -126.25,-17.07 -129.65,-15.25 -133.33,-13.25 -148.19,-5.16 -155.88,-0.98 -159.75,0.14" fill="none" stroke="#bcbcbc" stroke-width="8" stroke-linecap="round" stroke-linejoin="round" /><polyline points="440.06,198.24 432.13,198.97 407.35,201.24 406.23,201.34 404.65,201.49 402.10,201.72 378.07,203.93 369.72,203.15 359.99,205.59 352.19,207.50 348.04,208.52 337.73,208.91 328.80,208.46 324.25,207.97 320.37,206.80 317.52,205.22 306.90,197.71 281.08,179.99 278.65,178.34 276.17,176.66 274.32,174.86" fill="none" stroke="#bcbcbc" stroke-width="8" stroke-linecap="round" stroke-linejoin="round" /><polyline points="-144.55,-101.03 -135.19,-82.70 -133.77,-77.46 -125.88,-62.41 -122.62,-58.10 -109.43,-32.45 -108.59,-30.81" fill="none" stroke="#bcbcbc" stroke-width="8" stroke-linecap="round" stroke-linejoin="round" /><polyline points="142.47,62.01 141.07,65.87 140.67,67.06 138.84,72.61 127.26,104.94 121.50,120.99 121.31,121.54 119.00,126.53 117.67,129.49" fill="none" stroke="#bcbcbc" stroke-width="8" stroke-linecap="round" stroke-linejoin="round" /><polyline points="296.19,-221.68 294.91,-224.43 291.53,-224.87 280.61,-222.36 278.39,-222.65 276.65,-224.98 273.56,-239.19 290.30,-241.78 298.05,-244.07 301.84,-244.47 305.92,-229.96" fill="none" stroke="#bcbcbc" stroke-width="8" stroke-linecap="round" stroke-linejoin="round" /><polyline points="356.69,-64.54 361.00,-66.96 382.66,-80.01 388.45,-83.46 398.58,-89.50 415.25,-100.27 419.14,-103.07 448.37,-121.20" fill="none" stroke="#bcbcbc" stroke-width="8" stroke-linecap="round" stroke-linejoin="round" /><polyline points="458.89,21.12 451.50,18.92 447.20,15.39 430.78,1.18 430.22,0.68 426.25,-2.86 423.91,-7.00 382.66,-80.01" fill="none" stroke="#bcbcbc" stroke-width="8" stroke-linecap="round" stroke-linejoin="round" /><polyline points="-6.68,15.33 58.05,35.25 63.33,36.92 111.63,52.23 112.64,52.55 119.88,54.84 123.43,55.97 128.06,57.24 137.59,60.47 142.47,62.01 146.86,63.40 182.80,74.81 220.75,86.73 223.89,87.71 228.24,85.58" fill="none" stroke="#bcbcbc" stroke-width="8" stroke-linecap="round" stroke-linejoin="round" /><polyline points="183.64,-304.19 211.68,-329.95 216.42,-334.31" fill="none" stroke="#bcbcbc" stroke-width="8" stroke-linecap="round" stroke-linejoin="round" /><polyline points="-285.86,111.47 -182.98,122.50" fill="none" stroke="#bcbcbc" stroke-width="8" stroke-linecap="round" stroke-linejoin="round" /><polyline points="24.50,-175.65 46.12,-183.38 68.42,-191.45 82.28,-196.83 124.59,-212.22 136.87,-216.47 139.44,-217.36 142.51,-218.41 145.97,-219.60 146.39,-219.75 153.36,-222.55 156.39,-223.77" fill="none" stroke="#bcbcbc" stroke-width="8" stroke-linecap="round" stroke-linejoin="round" /><polyline points="169.73,347.56 190.09,372.67 202.55,385.21 207.94,389.10 215.58,395.50 222.76,401.52 228.92,407.53 229.07,410.59" fill="none" stroke="#bcbcbc" stroke-width="8" stroke-linecap="round" stroke-linejoin="round" /><polyline points="191.66,-231.61 199.64,-251.61 212.55,-284.53 231.05,-331.70 240.19,-354.04 253.82,-387.36 264.99,-414.65 266.99,-418.27 276.81,-434.33 277.44,-435.37 281.04,-442.43 287.34,-452.14 290.86,-457.56 295.84,-465.22" fill="none" stroke="#bcbcbc" stroke-width="8" stroke-linecap="round" stroke-linejoin="round" /><polyline points="3.44,303.02 2.13,304.07 1.27,305.31 -0.49,310.50 -1.71,314.24 -7.33,331.05 -8.10,333.48 -8.58,334.98 -13.75,333.50 -26.31,329.29 -38.76,325.12 -48.38,324.57" fill="none" stroke="#bcbcbc" stroke-width="8" stroke-linecap="round" stroke-linejoin="round" /><polyline points="-242.58,419.97 -222.06,367.00 -219.78,361.23 -217.73,355.68 -215.26,348.97 -212.22,338.41 -209.06,325.29 -207.76,315.88 -206.82,309.05 -205.50,304.01 -200.67,266.13 -195.03,218.33 -192.11,195.55 -188.85,168.77 -182.98,122.50 -182.05,114.63 -176.12,66.24 -176.12,63.54 -174.81,49.18 -171.02,18.85 -170.07,13.56 -169.08,10.59 -167.54,7.33 -166.03,4.79 -162.71,1.20 -159.74,0.18" fill="none" stroke="#bcbcbc" stroke-width="8" stroke-linecap="round" stroke-linejoin="round" /><polyline points="205.28,17.62 206.41,19.40 210.17,25.27 215.80,34.30 217.16,36.45 219.40,34.75 230.30,26.48" fill="none" stroke="#bcbcbc" stroke-width="8" stroke-linecap="round" stroke-linejoin="round" /><polyline points="212.55,-284.53 323.39,-264.49 335.04,-258.37 378.46,-236.84 382.29,-238.02" fill="none" stroke="#bcbcbc" stroke-width="8" stroke-linecap="round" stroke-linejoin="round" /><polyline points="0.93,-33.41 -1.03,-30.54 -18.72,-21.91 -31.71,-5.40 -45.72,3.28 -55.31,10.51 -64.45,17.97 -69.14,22.24 -77.42,32.75 -86.68,46.02 -88.21,48.48" fill="none" stroke="#bcbcbc" stroke-width="8" stroke-linecap="round" stroke-linejoin="round" /><polyline points="19.63,-21.56 18.86,-19.86 17.19,-17.41 14.02,-13.51 -4.66,10.08 -14.55,36.70 -64.43,17.95" fill="none" stroke="#bcbcbc" stroke-width="8" stroke-linecap="round" stroke-linejoin="round" /><polyline points="-55.31,10.51 -57.24,4.67 -65.58,-20.60 -68.82,-25.60 -74.25,-41.87 -74.72,-43.27 -73.92,-45.82 -75.22,-49.97 -101.30,-133.24" fill="none" stroke="#bcbcbc" stroke-width="8" stroke-linecap="round" stroke-linejoin="round" /><polyline points="250.32,-443.85 270.93,-443.31 271.89,-443.28 275.84,-443.17 281.04,-442.43" fill="none" stroke="#bcbcbc" stroke-width="8" stroke-linecap="round" stroke-linejoin="round" /><polyline points="144.29,227.58 137.25,227.49 77.65,235.49 73.36,235.94 68.44,236.46 39.93,239.47 1.50,243.53 -18.87,245.68 -30.13,246.87 -39.28,247.98 -43.98,248.55 -49.27,249.19 -74.84,252.30 -80.96,253.04 -99.84,255.11 -200.67,266.13" fill="none" stroke="#bcbcbc" stroke-width="8" stroke-linecap="round" stroke-linejoin="round" /><polyline points="56.05,434.48 50.77,432.78 26.11,424.85 21.13,423.24 16.80,421.85 -9.33,413.46 -14.48,411.80 -21.29,409.61 -62.88,396.23 -67.56,394.72" fill="none" stroke="#bcbcbc" stroke-width="8" stroke-linecap="round" stroke-linejoin="round" /><polyline points="159.16,-64.74 173.51,-60.27 225.96,-44.07 226.45,-43.92 230.34,-43.68" fill="none" stroke="#bcbcbc" stroke-width="8" stroke-linecap="round" stroke-linejoin="round" /><polyline points="306.75,-182.85 378.11,-181.60" fill="none" stroke="#bcbcbc" stroke-width="8" stroke-linecap="round" stroke-linejoin="round" /><polyline points="271.82,443.97 261.62,431.84 257.34,426.87 253.66,423.43 248.76,419.78 238.76,413.77 229.07,410.59 209.37,404.50 193.26,399.39 202.55,385.21" fill="none" stroke="#bcbcbc" stroke-width="8" stroke-linecap="round" stroke-linejoin="round" /><polyline points="169.73,347.56 155.52,330.03 152.82,326.69 138.52,306.98 135.28,300.97 136.06,293.80 140.37,293.76 151.01,295.81 167.20,298.92" fill="none" stroke="#bcbcbc" stroke-width="8" stroke-linecap="round" stroke-linejoin="round" /><polyline points="-16.07,207.11 -13.45,212.74 1.50,243.53 23.75,289.31 26.58,295.15" fill="none" stroke="#bcbcbc" stroke-width="8" stroke-linecap="round" stroke-linejoin="round" /><polyline points="-255.66,346.57 -250.31,348.75 -225.25,359.00 -219.78,361.23 -214.02,363.58 -184.52,375.65 -179.19,377.83" fill="none" stroke="#bcbcbc" stroke-width="8" stroke-linecap="round" stroke-linejoin="round" /><polyline points="-3.76,161.45 48.44,184.29" fill="none" stroke="#bcbcbc" stroke-width="8" stroke-linecap="round" stroke-linejoin="round" /><polyline points="230.34,-43.68 238.29,-43.26 238.80,-42.81 242.37,-39.64 247.61,-34.96 248.58,-33.08 266.65,-17.26 267.99,-14.73 280.70,-3.52 283.90,-2.54 293.78,6.12 296.00,7.13 310.91,19.78 314.23,22.72 316.06,25.63" fill="none" stroke="#bcbcbc" stroke-width="8" stroke-linecap="round" stroke-linejoin="round" /><polyline points="-270.39,161.50 -188.85,168.77" fill="none" stroke="#bcbcbc" stroke-width="8" stroke-linecap="round" stroke-linejoin="round" /><polyline points="-88.33,465.10 -85.81,459.72 -85.16,457.33 -81.61,444.27 -68.79,399.05 -67.56,394.72 -66.26,389.97 -60.45,368.72 -50.64,332.84 -48.38,324.57" fill="none" stroke="#bcbcbc" stroke-width="8" stroke-linecap="round" stroke-linejoin="round" /><polyline points="-16.07,207.11 -3.76,161.45 -29.86,152.32 -36.70,156.36 -39.81,158.73 -42.12,161.85 -43.74,165.97 -49.75,188.15 -44.91,190.62 -40.01,191.80 -29.19,194.62 -21.10,197.20 -16.07,207.11" fill="none" stroke="#bcbcbc" stroke-width="8" stroke-linecap="round" stroke-linejoin="round" /><polyline points="-49.75,188.15 -55.46,187.36 -188.85,168.77" fill="none" stroke="#bcbcbc" stroke-width="8" stroke-linecap="round" stroke-linejoin="round" /><polyline points="182.89,492.21 178.38,493.34 173.50,506.94 165.93,504.79 131.51,493.06 127.37,492.18 118.16,491.52 76.48,491.69 67.29,490.52 46.54,487.35 38.18,485.99 -21.18,476.41 -44.17,472.75 -88.01,465.15 -95.08,463.75 -194.01,436.10 -200.26,434.35 -242.58,419.97 -252.99,416.28 -279.00,405.50 -293.82,399.90" fill="none" stroke="#bcbcbc" stroke-width="8" stroke-linecap="round" stroke-linejoin="round" /><polyline points="273.56,-239.19 269.28,-240.08 212.10,-233.32 191.66,-231.61" fill="none" stroke="#bcbcbc" stroke-width="8" stroke-linecap="round" stroke-linejoin="round" /><polyline points="167.20,298.92 169.20,295.57 181.20,264.76 194.61,218.17 198.03,208.13 199.86,205.40 212.80,163.86 213.44,158.90 213.93,155.66" fill="none" stroke="#bcbcbc" stroke-width="8" stroke-linecap="round" stroke-linejoin="round" /><polyline points="226.13,-151.14 227.49,-151.66 229.34,-153.13 232.16,-156.42 268.67,-208.80 278.39,-222.65" fill="none" stroke="#bcbcbc" stroke-width="8" stroke-linecap="round" stroke-linejoin="round" /><polyline points="388.62,41.28 389.36,39.13 407.72,17.54 409.06,16.82 412.25,12.46 422.93,0.20 426.25,-2.86" fill="none" stroke="#bcbcbc" stroke-width="8" stroke-linecap="round" stroke-linejoin="round" /><polyline points="404.65,201.49 404.40,198.60 404.20,196.36 403.24,192.09 402.08,189.30 400.64,181.98 400.51,179.33 399.53,173.40 395.16,171.12 391.67,172.46 385.42,173.95 380.48,174.73 375.73,175.87 369.18,177.36 366.20,178.04" fill="none" stroke="#bcbcbc" stroke-width="8" stroke-linecap="round" stroke-linejoin="round" /><polyline points="-77.50,95.46 -64.16,64.18 -63.42,62.15" fill="none" stroke="#bcbcbc" stroke-width="8" stroke-linecap="round" stroke-linejoin="round" /><polyline points="274.24,38.10 280.67,35.61 284.04,34.30 286.64,31.67 297.36,29.03 300.96,29.94 308.72,27.94 314.65,26.42 316.06,25.63 321.80,24.23 351.16,17.03 357.81,15.05" fill="none" stroke="#bcbcbc" stroke-width="8" stroke-linecap="round" stroke-linejoin="round" /><polyline points="3.44,303.02 17.29,297.99 21.92,296.58 26.58,295.15 35.19,292.52 41.89,291.56 64.75,289.06 69.35,288.81 89.81,288.98 102.27,289.09 106.96,288.85 114.47,289.61 116.81,289.95 121.60,290.63 136.06,293.80" fill="none" stroke="#bcbcbc" stroke-width="8" stroke-linecap="round" stroke-linejoin="round" /><polyline points="69.42,-108.10 67.13,-115.86 58.61,-144.67 48.26,-177.52 46.12,-183.38 43.95,-188.88 41.21,-196.80" fill="none" stroke="#bcbcbc" stroke-width="8" stroke-linecap="round" stroke-linejoin="round" /><polyline points="44.64,356.43 46.46,350.68 64.87,292.63 64.75,289.06" fill="none" stroke="#bcbcbc" stroke-width="8" stroke-linecap="round" stroke-linejoin="round" /><polyline points="69.35,288.81 72.99,239.93 73.36,235.94 73.92,231.31 73.92,231.10 74.16,225.43 75.38,210.04 76.07,202.88 77.00,194.74 77.86,188.88 78.63,185.19 79.59,182.41 81.48,176.14 85.39,163.10 90.37,146.25 95.85,129.02 96.97,125.51 97.87,122.96" fill="none" stroke="#bcbcbc" stroke-width="8" stroke-linecap="round" stroke-linejoin="round" /><polyline points="-49.75,188.15 -50.72,192.48 -50.55,193.87 -44.61,243.31 -43.98,248.55 -44.25,253.94 -45.81,284.69 -46.46,297.54 -46.80,304.17 -47.39,315.98 -47.70,322.13 -48.38,324.57" fill="none" stroke="#bcbcbc" stroke-width="8" stroke-linecap="round" stroke-linejoin="round" /><polyline points="-77.50,95.46 -99.10,89.05 -101.84,87.29 -115.28,83.37 -119.06,83.41 -135.95,78.32 -138.68,76.31 -154.04,71.65 -172.90,66.51 -172.99,66.51 -176.12,66.24" fill="none" stroke="#bcbcbc" stroke-width="8" stroke-linecap="round" stroke-linejoin="round" /><polyline points="316.06,25.63 316.81,26.62 319.94,31.28 325.73,39.91 331.18,45.37 341.65,57.13 339.88,68.00 338.98,72.07 337.73,73.80 340.36,77.68 344.42,86.04 352.54,101.71 356.54,109.42 359.03,116.35 360.15,119.57" fill="none" stroke="#bcbcbc" stroke-width="8" stroke-linecap="round" stroke-linejoin="round" /><polyline points="370.75,48.01 367.74,48.95 347.91,55.12 345.06,56.03 341.65,57.13" fill="none" stroke="#bcbcbc" stroke-width="8" stroke-linecap="round" stroke-linejoin="round" /><polyline points="228.24,85.58 234.44,83.57 279.45,60.58 285.48,57.64 306.70,51.51 327.27,45.73 331.18,45.37" fill="none" stroke="#bcbcbc" stroke-width="8" stroke-linecap="round" stroke-linejoin="round" /><polyline points="233.14,114.03 285.04,89.88 287.22,88.44 292.30,86.96 326.88,76.90 332.12,74.89 337.73,73.80" fill="none" stroke="#bcbcbc" stroke-width="8" stroke-linecap="round" stroke-linejoin="round" /><polyline points="222.55,-392.21 243.56,-389.62 245.67,-389.36 253.82,-387.36" fill="none" stroke="#bcbcbc" stroke-width="8" stroke-linecap="round" stroke-linejoin="round" /><polyline points="402.07,-178.65 405.80,-179.43 419.72,-172.61 421.55,-170.79 447.68,-126.57 448.37,-121.20 451.77,-118.37 451.23,-116.42 451.15,-113.23 451.62,-108.77 458.54,-80.33 459.15,-60.63 460.12,-29.18 461.75,13.15 455.12,31.60 450.85,42.84 444.62,58.69 442.81,63.28 441.64,64.56 439.76,76.82" fill="none" stroke="#bcbcbc" stroke-width="8" stroke-linecap="round" stroke-linejoin="round" /><polyline points="450.39,151.53 444.03,148.76 428.15,137.68 407.20,122.96 395.67,113.64 387.90,105.32" fill="none" stroke="#bcbcbc" stroke-width="8" stroke-linecap="round" stroke-linejoin="round" /><polyline points="193.26,399.39 187.02,397.41 176.89,394.20 172.06,392.67 166.38,390.87 159.21,388.60 152.72,386.54 146.31,384.51 117.72,375.44 112.72,373.85 106.50,371.88 105.12,371.44 88.77,367.12 84.16,366.01 78.37,364.61 72.31,363.14 50.49,357.85 44.64,356.43 38.35,354.24 25.21,349.68 20.26,347.96 15.83,346.52 -4.75,339.21 -7.34,337.67 -8.58,334.98" fill="none" stroke="#bcbcbc" stroke-width="8" stroke-linecap="round" stroke-linejoin="round" /><polyline points="287.22,88.44 285.71,83.01 281.19,66.81 279.45,60.58 276.94,55.93 276.71,55.07 275.23,49.58 276.95,47.16 274.88,40.24 274.24,38.10" fill="none" stroke="#bcbcbc" stroke-width="8" stroke-linecap="round" stroke-linejoin="round" /><polyline points="279.67,-109.73 283.97,-111.75 307.42,-124.69 320.84,-133.31 330.29,-139.76 332.38,-141.32 340.00,-146.61 347.89,-152.44 352.88,-156.07 358.84,-160.43 379.53,-169.76 382.22,-169.62 386.14,-171.48 402.07,-178.65" fill="none" stroke="#bcbcbc" stroke-width="8" stroke-linecap="round" stroke-linejoin="round" /><polyline points="19.63,-21.56 23.01,-20.19 25.25,-19.50 67.21,-6.62 73.61,-4.65" fill="none" stroke="#bcbcbc" stroke-width="8" stroke-linecap="round" stroke-linejoin="round" /><polyline points="-280.05,72.78 -310.02,63.70" fill="none" stroke="#bcbcbc" stroke-width="8" stroke-linecap="round" stroke-linejoin="round" /><polyline points="204.13,-349.88 211.56,-340.47 212.67,-339.06 216.42,-334.31 220.70,-333.81 229.49,-332.78 231.05,-331.70" fill="none" stroke="#bcbcbc" stroke-width="8" stroke-linecap="round" stroke-linejoin="round" /><polyline points="462.20,68.83 450.43,71.02 438.35,77.59 427.16,83.81 416.57,89.11 403.78,96.06 394.51,101.68 376.21,111.49 304.75,147.44 286.22,155.60 273.98,160.89 267.92,162.88 262.90,163.82 254.68,164.31 242.99,162.66 213.82,155.66 172.41,146.01 117.94,129.58 97.87,122.96 65.00,112.82 33.57,102.45 -12.52,84.37 -35.57,74.44 -63.36,62.09 -109.46,36.84 -120.26,29.67 -147.61,12.47 -159.08,1.00 -176.29,-21.27 -204.63,-50.49 -215.76,-60.30" fill="none" stroke="#bcbcbc" stroke-width="8" stroke-linecap="round" stroke-linejoin="round" /><polyline points="238.76,413.77 239.24,411.08 240.98,406.68 257.33,368.43 263.50,354.10 270.78,336.23 272.56,329.69" fill="none" stroke="#bcbcbc" stroke-width="8" stroke-linecap="round" stroke-linejoin="round" /><polyline points="-74.84,252.30 -93.40,243.31 -135.66,222.86 -187.48,197.78 -192.11,195.55" fill="none" stroke="#bcbcbc" stroke-width="8" stroke-linecap="round" stroke-linejoin="round" /><polyline points="230.34,-43.68 235.03,-48.48 247.49,-61.24 257.39,-72.04" fill="none" stroke="#bcbcbc" stroke-width="8" stroke-linecap="round" stroke-linejoin="round" /><polyline points="-129.65,-15.25 -134.80,-22.07 -158.94,-54.02 -193.40,-81.90" fill="none" stroke="#bcbcbc" stroke-width="8" stroke-linecap="round" stroke-linejoin="round" /><polyline points="-279.18,405.42 -274.47,394.25 -259.49,356.90 -257.67,352.00 -255.66,346.57 -254.89,344.60 -254.69,341.53 -252.77,312.50 -252.22,304.17" fill="none" stroke="#bcbcbc" stroke-width="8" stroke-linecap="round" stroke-linejoin="round" /><polyline points="-289.40,105.21 -280.05,72.78 -267.71,30.00 -266.18,24.70 -264.48,18.68 -260.68,5.21 -260.28,3.80 -259.19,-0.53 -257.46,-5.43 -257.03,-6.61 -254.84,-12.05 -250.54,-21.55 -249.25,-24.27" fill="none" stroke="#bcbcbc" stroke-width="8" stroke-linecap="round" stroke-linejoin="round" /><polyline points="-266.18,24.70 -247.26,29.54 -207.17,39.84 -184.33,46.95 -174.81,49.18" fill="none" stroke="#bcbcbc" stroke-width="8" stroke-linecap="round" stroke-linejoin="round" /><polyline points="123.36,-122.47 124.00,-126.41 124.65,-130.50 127.43,-144.17 134.36,-176.01 140.06,-204.48 141.10,-210.39 142.51,-218.41 142.52,-218.42" fill="none" stroke="#bcbcbc" stroke-width="8" stroke-linecap="round" stroke-linejoin="round" /><polyline points="67.33,490.52 75.78,468.97 76.83,465.10 110.36,379.99 112.72,373.85 114.62,368.64 134.66,310.35 138.52,306.98" fill="none" stroke="#bcbcbc" stroke-width="8" stroke-linecap="round" stroke-linejoin="round" /><polyline points="182.27,-138.95 182.27,-138.96 181.08,-145.19 180.89,-145.95 178.00,-157.73 178.00,-157.76 176.02,-165.75 167.66,-194.43 166.60,-197.50 160.95,-212.86 159.11,-217.44 157.93,-220.40 156.39,-223.76 156.39,-223.77 156.39,-223.78 155.27,-236.13 155.16,-242.19" fill="none" stroke="#bcbcbc" stroke-width="8" stroke-linecap="round" stroke-linejoin="round" /><polyline points="169.73,347.56 167.58,349.88 164.37,353.70 155.34,379.17 152.72,386.54" fill="none" stroke="#bcbcbc" stroke-width="8" stroke-linecap="round" stroke-linejoin="round" /><polyline points="19.63,-21.56 20.86,-24.91 21.14,-25.68 27.01,-42.07 29.21,-48.97 47.19,-101.84" fill="none" stroke="#bcbcbc" stroke-width="8" stroke-linecap="round" stroke-linejoin="round" /><polyline points="112.64,52.55 114.47,47.68 119.44,34.48 121.54,28.90 122.97,25.13 126.95,14.54 129.59,7.54 129.94,6.60 136.32,-10.35 138.99,-9.52 140.43,-13.46 142.99,-20.42 142.50,-23.58 149.29,-42.06 149.99,-43.95 151.27,-45.14 152.36,-46.13 159.16,-64.74 160.15,-69.83 169.91,-96.96 172.22,-98.77 176.92,-112.06 176.09,-114.10 180.20,-126.52 178.07,-137.60" fill="none" stroke="#bcbcbc" stroke-width="8" stroke-linecap="round" stroke-linejoin="round" /><polyline points="287.34,-452.14 284.61,-456.63 270.23,-480.22" fill="none" stroke="#bcbcbc" stroke-width="8" stroke-linecap="round" stroke-linejoin="round" /><polyline points="332.38,-141.32 398.37,-98.89 398.39,-98.86 398.39,-98.85 410.60,-97.27" fill="none" stroke="#bcbcbc" stroke-width="8" stroke-linecap="round" stroke-linejoin="round" /><polyline points="305.92,-229.96 376.13,-194.72 378.25,-193.14 378.11,-181.60 379.53,-169.76" fill="none" stroke="#bcbcbc" stroke-width="8" stroke-linecap="round" stroke-linejoin="round" /><polyline points="172.06,392.67 169.53,400.37 159.30,431.57 141.90,484.11 140.67,487.84 139.41,491.62 139.07,495.64" fill="none" stroke="#bcbcbc" stroke-width="8" stroke-linecap="round" stroke-linejoin="round" /><polyline points="369.72,203.15 370.14,199.24 370.23,195.59 370.20,195.46 367.71,184.71 366.69,180.21 366.20,178.04 365.69,175.83 362.96,163.80 357.63,139.76 353.75,125.30 353.20,123.07" fill="none" stroke="#bcbcbc" stroke-width="8" stroke-linecap="round" stroke-linejoin="round" /><polyline points="21.13,423.24 22.87,418.30 42.42,362.74 44.64,356.43" fill="none" stroke="#bcbcbc" stroke-width="8" stroke-linecap="round" stroke-linejoin="round" /><polyline points="460.12,-29.18 454.37,-30.80 415.31,-90.74 410.60,-97.27" fill="none" stroke="#bcbcbc" stroke-width="8" stroke-linecap="round" stroke-linejoin="round" /><polyline points="-182.05,114.63 -39.68,148.74 -29.86,152.32" fill="none" stroke="#bcbcbc" stroke-width="8" stroke-linecap="round" stroke-linejoin="round" /><polyline points="266.99,-418.27 322.44,-397.73 330.25,-399.06" fill="none" stroke="#bcbcbc" stroke-width="8" stroke-linecap="round" stroke-linejoin="round" />
    <polyline points="167.20,298.92 179.57,301.63 213.03,312.26 222.39,315.22 244.60,321.63 266.97,328.08 283.53,332.87 310.02,340.51 315.49,342.10 328.85,346.58 350.86,352.44 352.80,352.80" fill="none" stroke="#ffffff" stroke-width="16" stroke-linecap="round" stroke-linejoin="round" />
    <polyline points="167.20,298.92 179.57,301.63 213.03,312.26 222.39,315.22 244.60,321.63 266.97,328.08 283.53,332.87 310.02,340.51 315.49,342.10 328.85,346.58 350.86,352.44 352.80,352.80" fill="none" stroke="#111111" stroke-width="9" stroke-linecap="round" stroke-linejoin="round" />
    
            <g transform="translate(167.20,298.92)">
              <circle r="19" fill="#ffffff" stroke="#111111" stroke-width="4" />
              <text text-anchor="middle" dominant-baseline="central" font-family="Helvetica, Arial, sans-serif"
                font-size="18" font-weight="700" fill="#111111">1</text>
            </g>
            
            <g transform="translate(352.80,352.80)">
              <circle r="19" fill="#ffffff" stroke="#111111" stroke-width="4" />
              <text text-anchor="middle" dominant-baseline="central" font-family="Helvetica, Arial, sans-serif"
                font-size="18" font-weight="700" fill="#111111">2</text>
            </g>
            
  </g>
</svg>
