<svg xmlns="http://www.w3.org/2000/svg" width="520" height="520" viewBox="0 0 520 520">
  <rect width="100%" height="100%" fill="#ffffff" />
  <g>
    <polyline points="438.13,85.89 438.65,88.62 441.96,111.78 441.45,117.57" fill="none" stroke="#bcbcbc" stroke-width="8" stroke-linecap="round" stroke-linejoin="round" /><polyline points="370.82,278.92 371.62,276.46 375.86,263.42 376.36,261.88 376.87,260.26 387.54,226.25 388.39,223.52 386.43,218.68" fill="none" stroke="#bcbcbc" stroke-width="8" stroke-linecap="round" stroke-linejoin="round" /><polyline points="297.14,248.67 296.97,246.72 300.45,227.19 300.94,224.74 301.31,223.46 302.27,218.51 303.35,212.45 304.52,207.11 305.69,201.78 306.42,200.28 306.90,199.36" fill="none" stroke="#bcbcbc" stroke-width="8" stroke-linecap="round" stroke-linejoin="round" /><polyline points="317.38,110.91 316.55,108.38 307.98,82.25 307.56,81.15" fill="none" stroke="#bcbcbc" stroke-width="8" stroke-linecap="round" stroke-linejoin="round" /><polyline points="273.40,340.92 273.66,338.43 273.76,337.29 274.70,326.97 275.72,317.88 275.96,315.76 276.18,313.21 276.20,313.00 276.78,307.94 277.28,302.80 277.83,297.83 278.20,293.97 278.36,291.58 278.49,289.38 278.74,286.90" fill="none" stroke="#bcbcbc" stroke-width="8" stroke-linecap="round" stroke-linejoin="round" /><polyline points="391.83,284.99 392.44,283.07 396.74,269.55 397.22,268.01 397.92,265.83 398.42,264.26 402.22,247.84" fill="none" stroke="#bcbcbc" stroke-width="8" stroke-linecap="round" stroke-linejoin="round" /><polyline points="375.11,17.61 376.70,17.85 420.46,24.58" fill="none" stroke="#bcbcbc" stroke-width="8" stroke-linecap="round" stroke-linejoin="round" /><polyline points="262.76,281.80 258.20,281.59 255.43,281.46 253.92,281.39 252.59,281.33 242.28,280.85 227.93,280.18 221.09,279.21 218.80,278.89 216.82,278.54 203.37,276.16 201.49,275.83 201.07,275.76 198.75,275.36 196.96,275.06 185.57,274.05 183.40,273.86 182.60,273.79 180.14,273.62 175.31,273.28" fill="none" stroke="#bcbcbc" stroke-width="8" stroke-linecap="round" stroke-linejoin="round" /><polyline points="328.94,268.59 329.82,266.08 337.77,244.04 347.33,216.24 347.95,214.50 348.37,213.28 348.72,212.28" fill="none" stroke="#bcbcbc" stroke-width="8" stroke-linecap="round" stroke-linejoin="round" /><polyline points="182.60,273.79 182.40,272.37 182.35,270.83 182.65,267.73 183.34,262.07 183.80,260.17 184.55,253.31 184.69,251.78 184.91,249.81 185.07,248.35 185.38,246.70 185.95,242.24 186.34,238.84 186.93,237.44" fill="none" stroke="#bcbcbc" stroke-width="8" stroke-linecap="round" stroke-linejoin="round" /><polyline points="174.46,235.70 185.07,237.18 186.93,237.44 188.08,237.63 192.83,238.38 203.78,240.13 205.66,240.44" fill="none" stroke="#bcbcbc" stroke-width="8" stroke-linecap="round" stroke-linejoin="round" /><polyline points="369.63,96.60 369.70,97.56 369.84,98.54 370.19,99.29 370.83,100.12 372.02,101.21 374.85,102.93 396.66,116.60 410.08,134.61 420.23,159.63 420.89,161.29" fill="none" stroke="#bcbcbc" stroke-width="8" stroke-linecap="round" stroke-linejoin="round" /><polyline points="366.14,169.63 366.59,170.38 366.71,170.57 367.08,172.46 369.64,184.83 370.45,188.76 371.03,191.55 371.94,197.22 372.36,199.83 372.66,201.43 372.97,202.87 373.36,203.71 373.92,204.68 374.22,205.14 379.88,213.25 382.95,218.08 383.74,219.23" fill="none" stroke="#bcbcbc" stroke-width="8" stroke-linecap="round" stroke-linejoin="round" /><polyline points="203.50,324.50 203.80,322.65 204.08,321.31 204.15,321.13 207.92,312.16 210.33,306.34 211.06,304.49 211.83,302.53 212.67,300.85 212.81,300.53 213.96,297.75 214.84,295.29 215.61,293.03 216.09,291.44 216.63,289.47 217.26,286.83 217.73,284.68 218.30,281.69 218.42,281.03 218.80,278.89" fill="none" stroke="#bcbcbc" stroke-width="8" stroke-linecap="round" stroke-linejoin="round" /><polyline points="386.19,74.15 398.22,82.55 399.84,82.90 401.02,84.25" fill="none" stroke="#bcbcbc" stroke-width="8" stroke-linecap="round" stroke-linejoin="round" /><polyline points="335.71,151.73 337.30,152.34 344.19,154.60 360.20,160.74 361.10,161.63 361.52,162.30" fill="none" stroke="#bcbcbc" stroke-width="8" stroke-linecap="round" stroke-linejoin="round" /><polyline points="365.53,309.41 366.62,306.57 372.00,291.98 375.80,280.95 376.59,280.59" fill="none" stroke="#bcbcbc" stroke-width="8" stroke-linecap="round" stroke-linejoin="round" /><polyline points="289.48,290.91 290.33,289.03 290.41,288.85 291.87,283.97 294.24,275.96 294.85,273.90 295.33,272.31 295.39,271.38 295.29,269.32" fill="none" stroke="#bcbcbc" stroke-width="8" stroke-linecap="round" stroke-linejoin="round" /><polyline points="388.36,170.27 387.00,170.55 383.91,170.00 383.43,168.73 378.07,166.69 376.81,167.02 371.98,165.25 371.26,165.75" fill="none" stroke="#bcbcbc" stroke-width="8" stroke-linecap="round" stroke-linejoin="round" /><polyline points="380.41,4.64 382.84,5.23 384.18,5.46 416.11,11.00" fill="none" stroke="#bcbcbc" stroke-width="8" stroke-linecap="round" stroke-linejoin="round" /><polyline points="355.60,300.52 356.93,296.78 359.51,289.51 361.18,286.41 363.58,279.69 364.53,277.01" fill="none" stroke="#bcbcbc" stroke-width="8" stroke-linecap="round" stroke-linejoin="round" /><polyline points="180.68,155.23 178.37,155.13 177.79,155.83 173.76,160.73 159.68,176.99 157.70,179.28" fill="none" stroke="#bcbcbc" stroke-width="8" stroke-linecap="round" stroke-linejoin="round" /><polyline points="304.19,169.16 303.17,171.42 303.05,171.70 299.50,180.94 295.93,191.12 294.98,193.83 294.43,195.24" fill="none" stroke="#bcbcbc" stroke-width="8" stroke-linecap="round" stroke-linejoin="round" /><polyline points="356.21,65.27 357.34,66.80 358.14,68.90 359.39,71.92 361.40,76.66 363.18,80.92 365.23,85.60 366.74,89.20 366.96,89.72 366.98,89.75 368.20,92.60 368.56,93.41 368.91,94.18 369.28,94.90 369.55,95.64 369.63,96.60" fill="none" stroke="#bcbcbc" stroke-width="8" stroke-linecap="round" stroke-linejoin="round" /><polyline points="269.97,214.74 270.56,214.42 271.38,213.76 271.79,212.91 277.27,192.14 277.44,190.97 278.11,188.83" fill="none" stroke="#bcbcbc" stroke-width="8" stroke-linecap="round" stroke-linejoin="round" /><polyline points="461.54,182.24 462.32,184.70 462.87,187.29 461.80,197.17 460.57,204.59 459.90,207.13 459.84,207.36 459.25,208.72 458.45,210.17 456.57,212.54 457.48,217.18 454.54,227.13 452.92,232.62 449.61,241.61 444.75,252.56 438.82,263.06 436.97,266.47 433.62,272.07 420.24,291.05 417.31,295.00 405.96,309.84 399.44,317.25 390.32,326.51 389.48,326.60 387.42,328.28" fill="none" stroke="#bcbcbc" stroke-width="8" stroke-linecap="round" stroke-linejoin="round" /><polyline points="296.46,344.64 300.19,333.06 300.80,331.15 301.63,329.94 303.42,324.59 304.00,322.77 311.36,299.71 312.10,297.39 312.72,295.35 321.41,267.99" fill="none" stroke="#bcbcbc" stroke-width="8" stroke-linecap="round" stroke-linejoin="round" /><polyline points="383.95,129.26 387.18,125.73 388.13,124.58 394.65,115.35" fill="none" stroke="#bcbcbc" stroke-width="8" stroke-linecap="round" stroke-linejoin="round" /><polyline points="319.42,130.66 328.31,133.75 328.80,134.55 331.32,135.40 332.82,135.91 339.99,138.33" fill="none" stroke="#bcbcbc" stroke-width="8" stroke-linecap="round" stroke-linejoin="round" /><polyline points="396.91,69.14 401.02,84.25 405.78,102.06 406.51,103.54 406.62,105.23 409.85,111.26 418.56,127.50 420.46,130.31 421.02,131.14 434.03,155.47 440.01,160.91 440.85,161.99 442.04,163.00 453.40,172.71 454.17,173.37 456.21,174.45" fill="none" stroke="#bcbcbc" stroke-width="8" stroke-linecap="round" stroke-linejoin="round" /><polyline points="352.74,347.10 381.06,330.65 386.11,328.07 387.42,328.28" fill="none" stroke="#bcbcbc" stroke-width="8" stroke-linecap="round" stroke-linejoin="round" /><polyline points="383.45,323.56 385.21,321.47 400.99,290.00 402.03,287.93 402.90,285.89 408.00,273.29 409.52,269.49 413.91,256.20 416.76,239.11 417.10,236.62" fill="none" stroke="#bcbcbc" stroke-width="8" stroke-linecap="round" stroke-linejoin="round" /><polyline points="371.27,138.44 371.00,138.72 370.62,140.04 370.58,140.18 368.87,146.77 369.31,148.49 368.94,150.03 368.45,152.05 367.20,153.50 365.78,159.26 364.10,160.53 362.31,161.75 361.52,162.30" fill="none" stroke="#bcbcbc" stroke-width="8" stroke-linecap="round" stroke-linejoin="round" /><polyline points="304.19,169.16 304.92,167.30 309.30,156.08 310.25,153.63 311.04,151.61 316.63,137.29 319.15,131.30 319.42,130.66 321.37,125.93 325.76,115.02 327.37,110.38 327.73,109.32 328.21,108.11" fill="none" stroke="#bcbcbc" stroke-width="8" stroke-linecap="round" stroke-linejoin="round" /><polyline points="353.18,101.15 354.02,103.67 381.80,127.39 396.96,140.58 419.60,160.26 421.58,161.84 422.47,162.39 426.39,165.96 431.64,170.44 443.54,180.58 447.39,183.89 449.94,186.94" fill="none" stroke="#bcbcbc" stroke-width="8" stroke-linecap="round" stroke-linejoin="round" /><polyline points="399.11,60.27 400.52,59.36 408.87,55.89 410.58,54.09" fill="none" stroke="#bcbcbc" stroke-width="8" stroke-linecap="round" stroke-linejoin="round" /><polyline points="408.75,271.41 397.22,268.01 376.36,261.88" fill="none" stroke="#bcbcbc" stroke-width="8" stroke-linecap="round" stroke-linejoin="round" /><polyline points="371.55,26.31 373.12,27.39 424.42,38.80" fill="none" stroke="#bcbcbc" stroke-width="8" stroke-linecap="round" stroke-linejoin="round" /><polyline points="434.91,195.18 432.26,189.28 426.38,175.25 425.94,174.13 424.93,171.57 421.14,161.92 420.90,161.30" fill="none" stroke="#bcbcbc" stroke-width="8" stroke-linecap="round" stroke-linejoin="round" /><polyline points="356.21,65.27 353.36,64.46 351.27,63.84 347.02,62.57 344.86,61.96 343.62,61.61 342.00,61.15" fill="none" stroke="#bcbcbc" stroke-width="8" stroke-linecap="round" stroke-linejoin="round" /><polyline points="281.96,142.44 281.81,141.96 281.68,141.63 281.09,140.18 278.82,134.88 276.66,129.49 276.19,128.22 275.65,126.76 275.27,125.56 274.63,123.76 274.57,123.57 272.50,118.48 268.70,108.90 267.85,108.42 267.25,106.86 266.03,102.66 263.96,97.44 263.51,96.26" fill="none" stroke="#bcbcbc" stroke-width="8" stroke-linecap="round" stroke-linejoin="round" /><polyline points="300.19,333.06 302.35,333.72 309.32,335.85 311.50,336.51" fill="none" stroke="#bcbcbc" stroke-width="8" stroke-linecap="round" stroke-linejoin="round" /><polyline points="430.43,62.77 430.84,61.13 430.67,60.51 430.47,59.75 429.20,55.09 426.36,45.23 424.86,40.19 424.42,38.80 420.46,24.58 418.32,16.90 416.11,11.00 414.10,5.68 412.11,2.02 410.17,0.08 395.29,-18.09 394.19,-19.39 393.46,-20.58" fill="none" stroke="#bcbcbc" stroke-width="8" stroke-linecap="round" stroke-linejoin="round" /><polyline points="369.63,96.60 368.86,96.89 367.45,97.29 367.30,97.32 361.38,98.84 354.57,100.76 353.18,101.15 352.56,101.35 350.92,101.87 349.52,102.26 343.41,103.96 333.37,106.81 329.62,107.76 328.21,108.11 321.52,109.76 317.38,110.91 308.62,113.35 299.97,115.79 298.96,116.07 291.73,118.08 288.39,119.01 286.71,119.80 283.52,121.38 277.18,124.60 276.74,124.82 275.27,125.56 274.37,126.01 273.12,126.66 268.67,129.00 260.56,133.55 253.78,137.09 252.81,137.60 251.52,137.68 250.74,138.10 250.59,138.18 243.24,142.21 241.70,142.20 239.93,143.12 239.31,143.45 238.79,143.72 237.57,144.36 236.60,146.57 232.44,148.80 231.12,149.50 229.68,150.28 223.90,153.43 220.91,155.06 219.40,155.49" fill="none" stroke="#bcbcbc" stroke-width="8" stroke-linecap="round" stroke-linejoin="round" /><polyline points="452.92,232.62 449.83,232.90 440.19,233.79 439.75,233.83 439.14,233.88 438.14,233.97 428.79,234.83 425.54,234.53 421.75,235.48 418.71,236.22 417.10,236.62 413.08,236.77 409.60,236.60 407.83,236.41 406.32,235.95 405.21,235.34 401.08,232.41 391.03,225.51 390.08,224.87 389.12,224.22 388.39,223.52" fill="none" stroke="#bcbcbc" stroke-width="8" stroke-linecap="round" stroke-linejoin="round" /><polyline points="225.31,116.11 228.96,123.24 229.51,125.28 232.58,131.14 233.85,132.82 238.99,142.81 239.31,143.45" fill="none" stroke="#bcbcbc" stroke-width="8" stroke-linecap="round" stroke-linejoin="round" /><polyline points="337.06,179.58 336.51,181.08 336.36,181.55 335.65,183.71 331.14,196.29 328.90,202.54 328.82,202.76 327.92,204.70 327.41,205.85" fill="none" stroke="#bcbcbc" stroke-width="8" stroke-linecap="round" stroke-linejoin="round" /><polyline points="396.91,69.14 396.41,68.07 395.10,67.90 390.84,68.87 389.98,68.76 389.30,67.85 388.10,62.32 394.62,61.31 397.63,60.42 399.11,60.27 400.70,65.92" fill="none" stroke="#bcbcbc" stroke-width="8" stroke-linecap="round" stroke-linejoin="round" /><polyline points="420.46,130.31 422.14,129.37 430.58,124.29 432.83,122.95 436.77,120.60 443.26,116.40 444.78,115.31 456.16,108.25" fill="none" stroke="#bcbcbc" stroke-width="8" stroke-linecap="round" stroke-linejoin="round" /><polyline points="460.25,163.66 457.38,162.80 455.70,161.43 449.31,155.90 449.09,155.71 447.54,154.33 446.64,152.72 430.58,124.29" fill="none" stroke="#bcbcbc" stroke-width="8" stroke-linecap="round" stroke-linejoin="round" /><polyline points="278.99,161.41 304.19,169.16 306.25,169.81 325.05,175.77 325.45,175.90 328.26,176.79 329.65,177.23 331.45,177.72 335.16,178.98 337.06,179.58 338.77,180.12 352.76,184.56 367.54,189.20 368.76,189.59 370.45,188.76" fill="none" stroke="#bcbcbc" stroke-width="8" stroke-linecap="round" stroke-linejoin="round" /><polyline points="353.09,37.02 364.01,26.99 365.85,25.29" fill="none" stroke="#bcbcbc" stroke-width="8" stroke-linecap="round" stroke-linejoin="round" /><polyline points="170.30,198.84 210.35,203.13" fill="none" stroke="#bcbcbc" stroke-width="8" stroke-linecap="round" stroke-linejoin="round" /><polyline points="291.13,87.06 299.55,84.05 308.23,80.91 313.63,78.81 330.10,72.82 334.88,71.17 335.88,70.82 337.08,70.41 338.42,69.95 338.59,69.89 341.30,68.80 342.48,68.33" fill="none" stroke="#bcbcbc" stroke-width="8" stroke-linecap="round" stroke-linejoin="round" /><polyline points="347.67,290.75 355.60,300.52 360.45,305.41 362.55,306.92 365.53,309.41 368.32,311.76 370.72,314.10 370.78,315.29" fill="none" stroke="#bcbcbc" stroke-width="8" stroke-linecap="round" stroke-linejoin="round" /><polyline points="356.21,65.27 359.32,57.49 364.35,44.67 371.55,26.31 375.11,17.61 380.41,4.64 384.76,-5.99 385.54,-7.40 389.36,-13.65 389.61,-14.05 391.01,-16.81 393.46,-20.58 394.83,-22.69 396.77,-25.68" fill="none" stroke="#bcbcbc" stroke-width="8" stroke-linecap="round" stroke-linejoin="round" /><polyline points="282.93,273.41 282.42,273.82 282.09,274.30 281.40,276.32 280.93,277.78 278.74,284.32 278.44,285.27 278.25,285.85 276.24,285.28 271.35,283.64 266.50,282.01 262.76,281.80" fill="none" stroke="#bcbcbc" stroke-width="8" stroke-linecap="round" stroke-linejoin="round" /><polyline points="187.15,318.94 195.14,298.32 196.03,296.07 196.82,293.91 197.79,291.30 198.97,287.19 200.20,282.08 200.70,278.42 201.07,275.76 201.59,273.80 203.47,259.05 205.66,240.44 206.80,231.57 208.07,221.15 210.35,203.13 210.71,200.07 213.02,181.23 213.03,180.18 213.54,174.59 215.01,162.78 215.38,160.72 215.76,159.57 216.37,158.29 216.95,157.31 218.24,155.91 219.40,155.51" fill="none" stroke="#bcbcbc" stroke-width="8" stroke-linecap="round" stroke-linejoin="round" /><polyline points="361.52,162.30 361.95,162.99 363.42,165.28 365.61,168.79 366.14,169.63 367.01,168.97 371.26,165.75" fill="none" stroke="#bcbcbc" stroke-width="8" stroke-linecap="round" stroke-linejoin="round" /><polyline points="364.35,44.67 407.50,52.47 412.03,54.85 428.94,63.24 430.43,62.77" fill="none" stroke="#bcbcbc" stroke-width="8" stroke-linecap="round" stroke-linejoin="round" /><polyline points="281.96,142.44 281.19,143.55 274.31,146.91 269.25,153.34 263.79,156.72 260.06,159.53 256.50,162.44 254.68,164.10 251.45,168.19 247.85,173.36 247.25,174.31" fill="none" stroke="#bcbcbc" stroke-width="8" stroke-linecap="round" stroke-linejoin="round" /><polyline points="289.24,147.05 288.94,147.71 288.28,148.66 287.05,150.18 279.78,159.37 275.93,169.73 256.51,162.43" fill="none" stroke="#bcbcbc" stroke-width="8" stroke-linecap="round" stroke-linejoin="round" /><polyline points="260.06,159.53 259.31,157.26 256.06,147.42 254.80,145.48 252.69,139.14 252.50,138.59 252.81,137.60 252.31,135.99 242.15,103.57" fill="none" stroke="#bcbcbc" stroke-width="8" stroke-linecap="round" stroke-linejoin="round" /><polyline points="379.05,-17.36 387.07,-17.14 387.45,-17.13 388.99,-17.09 391.01,-16.81" fill="none" stroke="#bcbcbc" stroke-width="8" stroke-linecap="round" stroke-linejoin="round" /><polyline points="337.77,244.04 335.03,244.01 311.83,247.12 310.15,247.30 308.24,247.50 297.14,248.67 282.18,250.25 274.25,251.09 269.86,251.55 266.30,251.98 264.47,252.20 262.41,252.45 252.46,253.66 250.07,253.95 242.72,254.76 203.47,259.05" fill="none" stroke="#bcbcbc" stroke-width="8" stroke-linecap="round" stroke-linejoin="round" /><polyline points="303.42,324.59 301.36,323.93 291.76,320.84 289.82,320.21 288.13,319.67 277.96,316.40 275.96,315.76 273.30,314.91 257.11,309.70 255.29,309.11" fill="none" stroke="#bcbcbc" stroke-width="8" stroke-linecap="round" stroke-linejoin="round" /><polyline points="343.56,130.24 349.14,131.98 369.57,138.28 369.76,138.34 371.27,138.44" fill="none" stroke="#bcbcbc" stroke-width="8" stroke-linecap="round" stroke-linejoin="round" /><polyline points="401.02,84.25 428.80,84.74" fill="none" stroke="#bcbcbc" stroke-width="8" stroke-linecap="round" stroke-linejoin="round" /><polyline points="387.42,328.28 383.45,323.56 381.78,321.63 380.35,320.29 378.44,318.87 374.55,316.53 370.78,315.29 363.11,312.92 356.84,310.93 360.45,305.41" fill="none" stroke="#bcbcbc" stroke-width="8" stroke-linecap="round" stroke-linejoin="round" /><polyline points="347.67,290.75 342.14,283.92 341.09,282.63 335.52,274.95 334.26,272.61 334.56,269.82 336.24,269.81 340.39,270.60 346.69,271.82" fill="none" stroke="#bcbcbc" stroke-width="8" stroke-linecap="round" stroke-linejoin="round" /><polyline points="275.34,236.07 276.35,238.26 282.18,250.25 290.84,268.07 291.94,270.35" fill="none" stroke="#bcbcbc" stroke-width="8" stroke-linecap="round" stroke-linejoin="round" /><polyline points="182.06,290.36 184.14,291.21 193.90,295.20 196.03,296.07 198.27,296.99 209.75,301.69 211.83,302.53" fill="none" stroke="#bcbcbc" stroke-width="8" stroke-linecap="round" stroke-linejoin="round" /><polyline points="280.13,218.30 300.45,227.19" fill="none" stroke="#bcbcbc" stroke-width="8" stroke-linecap="round" stroke-linejoin="round" /><polyline points="371.27,138.44 374.37,138.60 374.56,138.77 375.95,140.01 378.00,141.83 378.37,142.56 385.41,148.72 385.93,149.71 390.88,154.07 392.12,154.45 395.97,157.82 396.83,158.22 402.64,163.14 403.93,164.29 404.64,165.42" fill="none" stroke="#bcbcbc" stroke-width="8" stroke-linecap="round" stroke-linejoin="round" /><polyline points="176.32,218.32 208.07,221.15" fill="none" stroke="#bcbcbc" stroke-width="8" stroke-linecap="round" stroke-linejoin="round" /><polyline points="247.20,336.51 248.19,334.42 248.44,333.48 249.82,328.40 254.81,310.80 255.29,309.11 255.80,307.26 258.06,298.99 261.88,285.02 262.76,281.80" fill="none" stroke="#bcbcbc" stroke-width="8" stroke-linecap="round" stroke-linejoin="round" /><polyline points="275.34,236.07 280.13,218.30 269.97,214.74 267.31,216.31 266.09,217.23 265.19,218.45 264.56,220.05 262.22,228.69 264.11,229.65 266.02,230.11 270.23,231.21 273.38,232.21 275.34,236.07" fill="none" stroke="#bcbcbc" stroke-width="8" stroke-linecap="round" stroke-linejoin="round" /><polyline points="262.22,228.69 260.00,228.38 208.07,221.15" fill="none" stroke="#bcbcbc" stroke-width="8" stroke-linecap="round" stroke-linejoin="round" /><polyline points="346.69,271.82 351.51,272.87 364.53,277.01 368.18,278.16 376.82,280.66 385.53,283.17 391.98,285.03 402.29,288.01 404.42,288.62 409.63,290.37 418.19,292.65 418.95,292.79" fill="none" stroke="#bcbcbc" stroke-width="8" stroke-linecap="round" stroke-linejoin="round" /><polyline points="388.10,62.32 386.43,61.98 364.17,64.61 356.21,65.27" fill="none" stroke="#bcbcbc" stroke-width="8" stroke-linecap="round" stroke-linejoin="round" /><polyline points="346.69,271.82 347.47,270.51 352.14,258.51 357.36,240.38 358.69,236.47 359.40,235.41 364.44,219.23 364.69,217.30 364.88,216.04" fill="none" stroke="#bcbcbc" stroke-width="8" stroke-linecap="round" stroke-linejoin="round" /><polyline points="369.63,96.60 370.16,96.40 370.88,95.82 371.98,94.54 386.19,74.15 389.98,68.76" fill="none" stroke="#bcbcbc" stroke-width="8" stroke-linecap="round" stroke-linejoin="round" /><polyline points="432.89,171.51 433.18,170.67 440.33,162.27 440.85,161.99 442.10,160.29 446.25,155.52 447.54,154.33" fill="none" stroke="#bcbcbc" stroke-width="8" stroke-linecap="round" stroke-linejoin="round" /><polyline points="439.14,233.88 439.04,232.76 438.96,231.89 438.59,230.22 438.14,229.14 437.57,226.29 437.52,225.26 437.14,222.95 435.44,222.06 434.08,222.58 431.65,223.16 429.72,223.46 427.88,223.91 425.33,224.49 424.17,224.76" fill="none" stroke="#bcbcbc" stroke-width="8" stroke-linecap="round" stroke-linejoin="round" /><polyline points="251.42,192.61 256.61,180.43 256.90,179.64" fill="none" stroke="#bcbcbc" stroke-width="8" stroke-linecap="round" stroke-linejoin="round" /><polyline points="388.36,170.27 390.87,169.30 392.18,168.80 393.19,167.77 397.37,166.74 398.77,167.10 401.79,166.32 404.10,165.73 404.64,165.42 406.88,164.87 418.31,162.07 420.90,161.30" fill="none" stroke="#bcbcbc" stroke-width="8" stroke-linecap="round" stroke-linejoin="round" /><polyline points="282.93,273.41 288.32,271.45 290.13,270.90 291.94,270.35 295.29,269.32 297.90,268.95 306.80,267.98 308.59,267.88 316.56,267.95 321.41,267.99 323.24,267.89 326.16,268.19 327.07,268.32 328.94,268.59 334.56,269.82" fill="none" stroke="#bcbcbc" stroke-width="8" stroke-linecap="round" stroke-linejoin="round" /><polyline points="308.62,113.35 307.73,110.33 304.41,99.12 300.38,86.33 299.55,84.05 298.70,81.91 297.64,78.82" fill="none" stroke="#bcbcbc" stroke-width="8" stroke-linecap="round" stroke-linejoin="round" /><polyline points="298.97,294.20 299.68,291.97 306.85,269.37 306.80,267.98" fill="none" stroke="#bcbcbc" stroke-width="8" stroke-linecap="round" stroke-linejoin="round" /><polyline points="308.59,267.88 310.01,248.85 310.15,247.30 310.37,245.49 310.37,245.41 310.47,243.20 310.94,237.21 311.21,234.42 311.57,231.25 311.91,228.97 312.20,227.54 312.58,226.46 313.32,224.02 314.84,218.94 316.78,212.38 318.91,205.67 319.35,204.30 319.70,203.31" fill="none" stroke="#bcbcbc" stroke-width="8" stroke-linecap="round" stroke-linejoin="round" /><polyline points="262.22,228.69 261.85,230.38 261.91,230.92 264.22,250.17 264.47,252.20 264.36,254.30 263.76,266.27 263.50,271.28 263.37,273.86 263.14,278.46 263.02,280.85 262.76,281.80" fill="none" stroke="#bcbcbc" stroke-width="8" stroke-linecap="round" stroke-linejoin="round" /><polyline points="251.42,192.61 243.01,190.11 241.94,189.42 236.71,187.90 235.24,187.91 228.66,185.93 227.60,185.15 221.62,183.34 214.28,181.34 214.24,181.33 213.02,181.23" fill="none" stroke="#bcbcbc" stroke-width="8" stroke-linecap="round" stroke-linejoin="round" /><polyline points="404.64,165.42 404.94,165.80 406.16,167.62 408.41,170.98 410.53,173.10 414.61,177.68 413.92,181.91 413.57,183.50 413.08,184.17 414.11,185.68 415.69,188.94 418.85,195.04 420.41,198.04 421.37,200.74 421.81,201.99" fill="none" stroke="#bcbcbc" stroke-width="8" stroke-linecap="round" stroke-linejoin="round" /><polyline points="425.94,174.13 424.77,174.50 417.05,176.90 415.94,177.26 414.61,177.68" fill="none" stroke="#bcbcbc" stroke-width="8" stroke-linecap="round" stroke-linejoin="round" /><polyline points="370.45,188.76 372.87,187.97 390.39,179.03 392.74,177.88 401.00,175.50 409.01,173.24 410.53,173.10" fill="none" stroke="#bcbcbc" stroke-width="8" stroke-linecap="round" stroke-linejoin="round" /><polyline points="372.36,199.83 392.57,190.43 393.42,189.87 395.39,189.30 408.86,185.38 410.90,184.60 413.08,184.17" fill="none" stroke="#bcbcbc" stroke-width="8" stroke-linecap="round" stroke-linejoin="round" /><polyline points="368.24,2.75 376.42,3.76 377.24,3.86 380.41,4.64" fill="none" stroke="#bcbcbc" stroke-width="8" stroke-linecap="round" stroke-linejoin="round" /><polyline points="438.13,85.89 439.58,85.59 445.00,88.24 445.72,88.95 455.89,106.17 456.16,108.25 457.48,109.36 457.27,110.12 457.24,111.36 457.42,113.09 460.12,124.17 460.36,131.83 460.73,144.08 461.37,160.56 458.79,167.74 457.12,172.12 454.70,178.29 454.00,180.07 453.54,180.57 452.81,185.35" fill="none" stroke="#bcbcbc" stroke-width="8" stroke-linecap="round" stroke-linejoin="round" /><polyline points="456.94,214.43 454.47,213.36 448.29,209.04 440.13,203.31 435.64,199.68 432.61,196.44" fill="none" stroke="#bcbcbc" stroke-width="8" stroke-linecap="round" stroke-linejoin="round" /><polyline points="356.84,310.93 354.41,310.16 350.46,308.91 348.58,308.31 346.37,307.61 343.58,306.73 341.05,305.93 338.56,305.13 327.43,301.60 325.48,300.98 323.06,300.22 322.52,300.05 316.16,298.37 314.36,297.93 312.10,297.39 309.75,296.82 301.25,294.76 298.97,294.20 296.52,293.35 291.41,291.58 289.48,290.91 287.76,290.35 279.74,287.50 278.74,286.90 278.25,285.85" fill="none" stroke="#bcbcbc" stroke-width="8" stroke-linecap="round" stroke-linejoin="round" /><polyline points="393.42,189.87 392.83,187.76 391.07,181.45 390.39,179.03 389.42,177.21 389.33,176.88 388.75,174.74 389.42,173.80 388.61,171.11 388.36,170.27" fill="none" stroke="#bcbcbc" stroke-width="8" stroke-linecap="round" stroke-linejoin="round" /><polyline points="390.48,112.72 392.15,111.93 401.28,106.90 406.51,103.54 410.19,101.03 411.00,100.42 413.96,98.36 417.04,96.09 418.98,94.68 421.30,92.98 429.36,89.35 430.40,89.40 431.93,88.68 438.13,85.89" fill="none" stroke="#bcbcbc" stroke-width="8" stroke-linecap="round" stroke-linejoin="round" /><polyline points="289.24,147.05 290.55,147.58 291.42,147.85 307.76,152.86 310.25,153.63" fill="none" stroke="#bcbcbc" stroke-width="8" stroke-linecap="round" stroke-linejoin="round" /><polyline points="172.56,183.77 160.89,180.24" fill="none" stroke="#bcbcbc" stroke-width="8" stroke-linecap="round" stroke-linejoin="round" /><polyline points="361.07,19.23 363.96,22.89 364.39,23.44 365.85,25.29 367.52,25.48 370.94,25.89 371.55,26.31" fill="none" stroke="#bcbcbc" stroke-width="8" stroke-linecap="round" stroke-linejoin="round" /><polyline points="461.54,182.24 456.96,183.09 452.26,185.65 447.90,188.07 443.78,190.13 438.80,192.84 435.19,195.03 428.06,198.85 400.24,212.84 393.03,216.02 388.26,218.08 385.90,218.85 383.95,219.22 380.75,219.41 376.20,218.77 364.84,216.04 348.72,212.28 327.51,205.89 319.70,203.31 306.90,199.36 294.66,195.33 276.72,188.29 267.74,184.42 256.93,179.61 238.98,169.78 234.77,166.99 224.12,160.30 219.66,155.83 212.96,147.16 201.93,135.78 197.59,131.96" fill="none" stroke="#bcbcbc" stroke-width="8" stroke-linecap="round" stroke-linejoin="round" /><polyline points="374.55,316.53 374.74,315.48 375.42,313.77 381.78,298.88 384.18,293.30 387.02,286.34 387.71,283.80" fill="none" stroke="#bcbcbc" stroke-width="8" stroke-linecap="round" stroke-linejoin="round" /><polyline points="252.46,253.66 245.23,250.17 228.78,242.20 208.60,232.44 206.80,231.57" fill="none" stroke="#bcbcbc" stroke-width="8" stroke-linecap="round" stroke-linejoin="round" /><polyline points="371.27,138.44 373.10,136.57 377.95,131.60 381.80,127.39" fill="none" stroke="#bcbcbc" stroke-width="8" stroke-linecap="round" stroke-linejoin="round" /><polyline points="231.12,149.50 229.11,146.85 219.71,134.41 206.30,123.55" fill="none" stroke="#bcbcbc" stroke-width="8" stroke-linecap="round" stroke-linejoin="round" /><polyline points="172.90,313.28 174.73,308.93 180.57,294.39 181.27,292.48 182.06,290.36 182.36,289.60 182.43,288.40 183.18,277.10 183.40,273.86" fill="none" stroke="#bcbcbc" stroke-width="8" stroke-linecap="round" stroke-linejoin="round" /><polyline points="168.92,196.40 172.56,183.77 177.37,167.12 177.96,165.06 178.62,162.71 180.10,157.47 180.26,156.92 180.68,155.23 181.36,153.33 181.52,152.87 182.38,150.75 184.05,147.05 184.55,145.99" fill="none" stroke="#bcbcbc" stroke-width="8" stroke-linecap="round" stroke-linejoin="round" /><polyline points="177.96,165.06 185.33,166.94 200.94,170.95 209.83,173.72 213.54,174.59" fill="none" stroke="#bcbcbc" stroke-width="8" stroke-linecap="round" stroke-linejoin="round" /><polyline points="329.62,107.76 329.87,106.23 330.12,104.64 331.20,99.31 333.90,86.92 336.12,75.83 336.53,73.53 337.08,70.41 337.08,70.41" fill="none" stroke="#bcbcbc" stroke-width="8" stroke-linecap="round" stroke-linejoin="round" /><polyline points="307.81,346.41 311.10,338.02 311.50,336.51 324.56,303.38 325.48,300.98 326.22,298.96 334.02,276.26 335.52,274.95" fill="none" stroke="#bcbcbc" stroke-width="8" stroke-linecap="round" stroke-linejoin="round" /><polyline points="352.56,101.35 352.56,101.34 352.09,98.92 352.02,98.62 350.89,94.04 350.89,94.02 350.13,90.91 346.87,79.75 346.46,78.55 344.26,72.57 343.54,70.79 343.08,69.64 342.48,68.33 342.48,68.33 342.48,68.32 342.04,63.51 342.00,61.15" fill="none" stroke="#bcbcbc" stroke-width="8" stroke-linecap="round" stroke-linejoin="round" /><polyline points="347.67,290.75 346.84,291.65 345.59,293.14 342.07,303.06 341.05,305.93" fill="none" stroke="#bcbcbc" stroke-width="8" stroke-linecap="round" stroke-linejoin="round" /><polyline points="289.24,147.05 289.72,145.74 289.82,145.44 292.11,139.06 292.97,136.37 299.97,115.79" fill="none" stroke="#bcbcbc" stroke-width="8" stroke-linecap="round" stroke-linejoin="round" /><polyline points="325.45,175.90 326.16,174.00 328.10,168.86 328.91,166.69 329.47,165.22 331.02,161.10 332.05,158.38 332.18,158.01 334.67,151.41 335.71,151.73 336.27,150.20 337.26,147.49 337.07,146.26 339.72,139.07 339.99,138.33 340.49,137.87 340.91,137.48 343.56,130.24 343.94,128.25 347.75,117.69 348.65,116.99 350.47,111.81 350.15,111.02 351.75,106.19 350.92,101.87" fill="none" stroke="#bcbcbc" stroke-width="8" stroke-linecap="round" stroke-linejoin="round" /><polyline points="393.46,-20.58 392.40,-22.33 386.80,-31.52" fill="none" stroke="#bcbcbc" stroke-width="8" stroke-linecap="round" stroke-linejoin="round" /><polyline points="411.00,100.42 436.69,116.94 436.70,116.95 436.70,116.96 441.45,117.57" fill="none" stroke="#bcbcbc" stroke-width="8" stroke-linecap="round" stroke-linejoin="round" /><polyline points="400.70,65.92 428.03,79.63 428.86,80.25 428.80,84.74 429.36,89.35" fill="none" stroke="#bcbcbc" stroke-width="8" stroke-linecap="round" stroke-linejoin="round" /><polyline points="348.58,308.31 347.60,311.31 343.61,323.46 336.84,343.91 336.36,345.36 335.87,346.83 335.74,348.40" fill="none" stroke="#bcbcbc" stroke-width="8" stroke-linecap="round" stroke-linejoin="round" /><polyline points="425.54,234.53 425.70,233.01 425.73,231.59 425.72,231.54 424.75,227.35 424.36,225.60 424.17,224.76 423.97,223.89 422.91,219.21 420.83,209.85 419.32,204.22 419.11,203.35" fill="none" stroke="#bcbcbc" stroke-width="8" stroke-linecap="round" stroke-linejoin="round" /><polyline points="289.82,320.21 290.50,318.29 298.11,296.66 298.97,294.20" fill="none" stroke="#bcbcbc" stroke-width="8" stroke-linecap="round" stroke-linejoin="round" /><polyline points="460.73,144.08 458.49,143.45 443.28,120.11 441.45,117.57" fill="none" stroke="#bcbcbc" stroke-width="8" stroke-linecap="round" stroke-linejoin="round" /><polyline points="210.71,200.07 266.14,213.35 269.97,214.74" fill="none" stroke="#bcbcbc" stroke-width="8" stroke-linecap="round" stroke-linejoin="round" /><polyline points="385.54,-7.40 407.13,0.60 410.17,0.08" fill="none" stroke="#bcbcbc" stroke-width="8" stroke-linecap="round" stroke-linejoin="round" />
    <polyline points="352.80,347.06 351.04,347.50 349.14,352.80 346.20,351.96 332.80,347.40 331.18,347.05 327.60,346.80 311.37,346.86 307.79,346.41 299.71,345.17 296.46,344.64 273.35,340.92 264.40,339.49 247.33,336.53 244.57,335.99 206.06,325.22 203.63,324.54 187.15,318.94 183.10,317.50 172.97,313.31 167.20,311.13" fill="none" stroke="#ffffff" stroke-width="16" stroke-linecap="round" stroke-linejoin="round" />
    <polyline points="352.80,347.06 351.04,347.50 349.14,352.80 346.20,351.96 332.80,347.40 331.18,347.05 327.60,346.80 311.37,346.86 307.79,346.41 299.71,345.17 296.46,344.64 273.35,340.92 264.40,339.49 247.33,336.53 244.57,335.99 206.06,325.22 203.63,324.54 187.15,318.94 183.10,317.50 172.97,313.31 167.20,311.13" fill="none" stroke="#111111" stroke-width="9" stroke-linecap="round" stroke-linejoin="round" />
    
            <g transform="translate(352.80,347.06)">
              <circle r="19" fill="#ffffff" stroke="#111111" stroke-width="4" />
              <text text-anchor="middle" dominant-baseline="central" font-family="Helvetica, Arial, sans-serif"
                font-size="18" font-weight="700" fill="#111111">1</text>
            </g>
            
            <g transform="translate(167.20,311.13)">
              <circle r="19" fill="#ffffff" stroke="#111111" stroke-width="4" />
              <text text-anchor="middle" dominant-baseline="central" font-family="Helvetica, Arial, sans-serif"
                font-size="18" font-weight="700" fill="#111111">2</text>
            </g>
            
  </g>
</svg>
