<svg xmlns="http://www.w3.org/2000/svg" width="520" height="520" viewBox="0 0 520 520">
  <rect width="100%" height="100%" fill="#ffffff" />
  <g>
    <polyline points="644.03,472.83 647.01,488.72 666.29,623.58 663.34,657.29" fill="none" stroke="#bcbcbc" stroke-width="8" stroke-linecap="round" stroke-linejoin="round" /><polyline points="252.23,1596.64 256.89,1582.32 281.59,1506.37 284.50,1497.42 287.44,1488.02 349.53,1290.01 354.52,1274.08 343.09,1245.91" fill="none" stroke="#bcbcbc" stroke-width="8" stroke-linecap="round" stroke-linejoin="round" /><polyline points="-176.64,1420.52 -177.64,1409.15 -157.34,1295.45 -154.50,1281.23 -152.37,1273.78 -146.78,1244.94 -140.50,1209.65 -133.66,1178.57 -126.88,1147.56 -122.61,1138.81 -119.81,1133.45" fill="none" stroke="#bcbcbc" stroke-width="8" stroke-linecap="round" stroke-linejoin="round" /><polyline points="-58.82,618.49 -63.64,603.78 -113.53,451.62 -115.96,445.24" fill="none" stroke="#bcbcbc" stroke-width="8" stroke-linecap="round" stroke-linejoin="round" /><polyline points="-314.78,1957.61 -313.29,1943.09 -312.68,1936.43 -307.25,1876.36 -301.31,1823.46 -299.92,1811.11 -298.63,1796.29 -298.49,1795.04 -295.12,1765.58 -292.21,1735.63 -289.01,1706.73 -286.85,1684.24 -285.95,1670.35 -285.16,1657.53 -283.75,1643.08" fill="none" stroke="#bcbcbc" stroke-width="8" stroke-linecap="round" stroke-linejoin="round" /><polyline points="374.49,1631.95 378.04,1620.78 403.07,1542.08 405.92,1533.14 409.96,1520.40 412.86,1511.27 435.01,1415.71" fill="none" stroke="#bcbcbc" stroke-width="8" stroke-linecap="round" stroke-linejoin="round" /><polyline points="277.19,75.32 286.43,76.74 541.15,115.88" fill="none" stroke="#bcbcbc" stroke-width="8" stroke-linecap="round" stroke-linejoin="round" /><polyline points="-376.74,1613.40 -403.26,1612.17 -419.42,1611.42 -428.21,1611.01 -435.91,1610.65 -495.95,1607.86 -579.46,1603.97 -619.26,1598.33 -632.58,1596.44 -644.14,1594.40 -722.43,1580.58 -733.37,1578.65 -735.80,1578.23 -749.31,1575.92 -759.70,1574.14 -826.04,1568.27 -838.67,1567.16 -843.31,1566.74 -857.65,1565.75 -885.73,1563.80" fill="none" stroke="#bcbcbc" stroke-width="8" stroke-linecap="round" stroke-linejoin="round" /><polyline points="8.44,1536.47 13.58,1521.86 59.86,1393.56 115.53,1231.74 119.09,1221.59 121.58,1214.50 123.59,1208.68" fill="none" stroke="#bcbcbc" stroke-width="8" stroke-linecap="round" stroke-linejoin="round" /><polyline points="-843.31,1566.74 -844.49,1558.49 -844.77,1549.54 -843.01,1531.49 -838.98,1498.55 -836.29,1487.49 -831.93,1447.52 -831.14,1438.61 -829.86,1427.17 -828.91,1418.67 -827.12,1409.03 -823.81,1383.10 -821.51,1363.27 -818.13,1355.15" fill="none" stroke="#bcbcbc" stroke-width="8" stroke-linecap="round" stroke-linejoin="round" /><polyline points="-890.67,1345.02 -828.95,1353.64 -818.13,1355.15 -811.42,1356.22 -783.76,1360.63 -720.01,1370.79 -709.07,1372.61" fill="none" stroke="#bcbcbc" stroke-width="8" stroke-linecap="round" stroke-linejoin="round" /><polyline points="245.31,535.20 245.71,540.81 246.54,546.49 248.54,550.84 252.30,555.69 259.24,562.01 275.69,572.02 402.60,651.65 480.76,756.46 539.80,902.17 543.65,911.80" fill="none" stroke="#bcbcbc" stroke-width="8" stroke-linecap="round" stroke-linejoin="round" /><polyline points="224.99,960.38 227.62,964.73 228.30,965.86 230.48,976.85 245.37,1048.86 250.09,1071.72 253.47,1088.00 258.75,1120.99 261.21,1136.21 262.91,1145.49 264.77,1153.87 266.99,1158.77 270.25,1164.43 271.99,1167.10 304.97,1214.31 322.80,1242.40 327.46,1249.12" fill="none" stroke="#bcbcbc" stroke-width="8" stroke-linecap="round" stroke-linejoin="round" /><polyline points="-721.67,1862.02 -719.92,1851.21 -718.29,1843.39 -717.85,1842.36 -695.91,1790.17 -681.92,1756.25 -677.67,1745.50 -673.17,1734.11 -668.28,1724.33 -667.49,1722.41 -660.80,1706.24 -655.62,1691.92 -651.19,1678.79 -648.37,1669.51 -645.21,1658.04 -641.57,1642.66 -638.81,1630.19 -635.50,1612.77 -634.81,1608.89 -632.58,1596.44" fill="none" stroke="#bcbcbc" stroke-width="8" stroke-linecap="round" stroke-linejoin="round" /><polyline points="341.71,404.51 411.69,453.41 421.12,455.41 428.02,463.31" fill="none" stroke="#bcbcbc" stroke-width="8" stroke-linecap="round" stroke-linejoin="round" /><polyline points="47.85,856.17 57.10,859.73 97.25,872.87 190.40,908.59 195.62,913.80 198.08,917.69" fill="none" stroke="#bcbcbc" stroke-width="8" stroke-linecap="round" stroke-linejoin="round" /><polyline points="221.42,1774.15 227.76,1757.62 259.08,1672.66 281.22,1608.46 285.81,1606.35" fill="none" stroke="#bcbcbc" stroke-width="8" stroke-linecap="round" stroke-linejoin="round" /><polyline points="-221.21,1666.42 -216.27,1655.50 -215.78,1654.41 -207.33,1626.05 -193.48,1579.37 -189.93,1567.42 -187.18,1558.14 -186.81,1552.74 -187.37,1540.76" fill="none" stroke="#bcbcbc" stroke-width="8" stroke-linecap="round" stroke-linejoin="round" /><polyline points="354.34,964.10 346.40,965.74 328.41,962.54 325.63,955.12 294.45,943.23 287.08,945.16 258.96,934.84 254.76,937.76" fill="none" stroke="#bcbcbc" stroke-width="8" stroke-linecap="round" stroke-linejoin="round" /><polyline points="308.06,-0.20 322.18,3.26 330.00,4.62 515.81,36.84" fill="none" stroke="#bcbcbc" stroke-width="8" stroke-linecap="round" stroke-linejoin="round" /><polyline points="163.64,1722.41 171.37,1700.62 186.39,1658.26 196.09,1640.22 210.06,1601.11 215.64,1585.50" fill="none" stroke="#bcbcbc" stroke-width="8" stroke-linecap="round" stroke-linejoin="round" /><polyline points="-854.47,876.55 -867.93,875.93 -871.30,880.03 -894.75,908.52 -976.71,1003.20 -988.24,1016.52" fill="none" stroke="#bcbcbc" stroke-width="8" stroke-linecap="round" stroke-linejoin="round" /><polyline points="-135.57,957.64 -141.51,970.79 -142.23,972.39 -162.87,1026.22 -183.68,1085.47 -189.23,1101.28 -192.37,1109.44" fill="none" stroke="#bcbcbc" stroke-width="8" stroke-linecap="round" stroke-linejoin="round" /><polyline points="167.20,352.80 173.76,361.70 178.44,373.93 185.73,391.49 197.42,419.11 207.78,443.91 219.66,471.13 228.48,492.11 229.79,495.12 229.87,495.31 236.97,511.90 239.09,516.62 241.10,521.11 243.24,525.32 244.84,529.59 245.31,535.20" fill="none" stroke="#bcbcbc" stroke-width="8" stroke-linecap="round" stroke-linejoin="round" /><polyline points="-334.79,1222.99 -331.36,1221.12 -326.56,1217.30 -324.15,1212.35 -292.27,1091.42 -291.30,1084.60 -287.41,1072.14" fill="none" stroke="#bcbcbc" stroke-width="8" stroke-linecap="round" stroke-linejoin="round" /><polyline points="780.28,1033.75 784.81,1048.11 787.99,1063.19 781.79,1120.67 774.63,1163.91 770.71,1178.66 770.36,1179.99 766.93,1187.95 762.26,1196.39 751.35,1210.19 756.63,1237.18 739.54,1295.09 730.10,1327.08 710.80,1379.43 682.53,1443.18 648.01,1504.27 637.23,1524.12 617.74,1556.74 539.86,1667.28 522.80,1690.27 456.73,1776.62 418.80,1819.78 365.74,1873.71 360.83,1874.22 348.85,1884.01" fill="none" stroke="#bcbcbc" stroke-width="8" stroke-linecap="round" stroke-linejoin="round" /><polyline points="-180.61,1979.25 -158.87,1911.83 -155.31,1900.70 -150.48,1893.68 -140.10,1862.52 -136.72,1851.93 -93.84,1717.65 -89.52,1704.14 -85.97,1692.28 -35.36,1532.98" fill="none" stroke="#bcbcbc" stroke-width="8" stroke-linecap="round" stroke-linejoin="round" /><polyline points="328.63,725.33 347.42,704.80 352.97,698.11 390.94,644.33" fill="none" stroke="#bcbcbc" stroke-width="8" stroke-linecap="round" stroke-linejoin="round" /><polyline points="-46.97,733.47 4.78,751.48 7.64,756.13 22.33,761.06 31.06,764.04 72.77,778.13" fill="none" stroke="#bcbcbc" stroke-width="8" stroke-linecap="round" stroke-linejoin="round" /><polyline points="404.09,375.32 428.02,463.31 455.73,566.96 459.93,575.60 460.60,585.46 479.39,620.55 530.10,715.12 541.18,731.47 544.39,736.26 620.15,877.92 654.97,909.57 659.86,915.88 666.74,921.77 732.86,978.30 737.34,982.14 749.21,988.44" fill="none" stroke="#bcbcbc" stroke-width="8" stroke-linecap="round" stroke-linejoin="round" /><polyline points="146.97,1993.57 311.85,1897.78 341.19,1882.77 348.85,1884.01" fill="none" stroke="#bcbcbc" stroke-width="8" stroke-linecap="round" stroke-linejoin="round" /><polyline points="325.73,1856.54 335.96,1844.38 427.80,1661.11 433.89,1649.09 438.97,1637.20 468.63,1563.83 477.47,1541.73 503.03,1464.34 519.61,1364.85 521.58,1350.37" fill="none" stroke="#bcbcbc" stroke-width="8" stroke-linecap="round" stroke-linejoin="round" /><polyline points="254.86,778.76 253.25,780.41 251.04,788.12 250.82,788.89 240.85,827.27 243.47,837.29 241.29,846.27 238.45,858.03 231.15,866.48 222.87,900.00 213.13,907.37 202.72,914.51 198.08,917.69" fill="none" stroke="#bcbcbc" stroke-width="8" stroke-linecap="round" stroke-linejoin="round" /><polyline points="-135.57,957.64 -131.33,946.78 -105.85,881.46 -100.30,867.21 -95.72,855.48 -63.17,772.06 -48.51,737.19 -46.97,733.47 -35.58,705.92 -10.02,642.46 -0.66,615.44 1.42,609.24 4.22,602.22" fill="none" stroke="#bcbcbc" stroke-width="8" stroke-linecap="round" stroke-linejoin="round" /><polyline points="149.53,561.68 154.46,576.34 316.15,714.47 404.39,791.24 536.17,905.82 547.68,915.02 552.83,918.24 575.70,939.00 606.24,965.05 675.51,1024.12 697.88,1043.36 712.73,1061.12" fill="none" stroke="#bcbcbc" stroke-width="8" stroke-linecap="round" stroke-linejoin="round" /><polyline points="416.88,323.67 425.08,318.41 473.67,298.21 483.65,287.71" fill="none" stroke="#bcbcbc" stroke-width="8" stroke-linecap="round" stroke-linejoin="round" /><polyline points="473.00,1552.91 405.92,1533.14 284.50,1497.42" fill="none" stroke="#bcbcbc" stroke-width="8" stroke-linecap="round" stroke-linejoin="round" /><polyline points="256.47,125.96 265.63,132.28 564.20,198.72" fill="none" stroke="#bcbcbc" stroke-width="8" stroke-linecap="round" stroke-linejoin="round" /><polyline points="625.27,1109.08 609.84,1074.75 575.60,993.07 573.04,986.58 567.19,971.67 545.11,915.49 543.72,911.85" fill="none" stroke="#bcbcbc" stroke-width="8" stroke-linecap="round" stroke-linejoin="round" /><polyline points="167.20,352.80 150.62,348.08 138.44,344.46 113.68,337.10 101.11,333.51 93.90,331.51 84.49,328.82" fill="none" stroke="#bcbcbc" stroke-width="8" stroke-linecap="round" stroke-linejoin="round" /><polyline points="-265.00,802.04 -265.84,799.30 -266.61,797.38 -270.03,788.88 -283.26,758.03 -295.84,726.68 -298.56,719.28 -301.69,710.75 -303.93,703.78 -307.62,693.32 -308.01,692.23 -320.04,662.56 -342.14,606.81 -347.10,603.98 -350.63,594.94 -357.68,570.46 -369.75,540.11 -372.35,533.21" fill="none" stroke="#bcbcbc" stroke-width="8" stroke-linecap="round" stroke-linejoin="round" /><polyline points="-158.87,1911.83 -146.32,1915.67 -105.73,1928.04 -93.02,1931.92" fill="none" stroke="#bcbcbc" stroke-width="8" stroke-linecap="round" stroke-linejoin="round" /><polyline points="599.19,338.27 601.55,328.70 600.59,325.07 599.43,320.69 592.02,293.53 575.50,236.12 566.78,206.78 564.20,198.72 541.15,115.88 528.72,71.20 515.81,36.84 504.15,5.85 492.55,-15.46 481.27,-26.72 394.68,-132.54 388.27,-140.07 384.03,-147.03" fill="none" stroke="#bcbcbc" stroke-width="8" stroke-linecap="round" stroke-linejoin="round" /><polyline points="245.31,535.20 240.84,536.91 232.59,539.18 231.76,539.41 197.28,548.23 157.63,559.40 149.53,561.68 145.93,562.82 136.40,565.88 128.26,568.15 92.70,578.04 34.23,594.66 12.43,600.17 4.22,602.22 -34.74,611.79 -58.82,618.49 -109.79,632.74 -160.18,646.94 -166.01,648.56 -208.12,660.25 -227.54,665.64 -237.35,670.27 -255.92,679.48 -292.80,698.19 -295.36,699.50 -303.93,703.78 -309.15,706.40 -316.43,710.22 -342.34,723.80 -389.55,750.29 -428.98,770.95 -434.62,773.90 -442.15,774.37 -446.68,776.78 -447.58,777.26 -490.36,800.70 -499.32,800.66 -509.60,806.04 -513.19,807.92 -516.22,809.51 -523.37,813.25 -529.01,826.10 -553.22,839.07 -560.92,843.20 -569.25,847.73 -602.93,866.06 -620.35,875.54 -629.12,878.07" fill="none" stroke="#bcbcbc" stroke-width="8" stroke-linecap="round" stroke-linejoin="round" /><polyline points="730.10,1327.08 712.13,1328.73 655.98,1333.87 653.45,1334.10 649.87,1334.43 644.07,1334.96 589.63,1339.96 570.70,1338.20 548.65,1343.73 530.99,1348.06 521.58,1350.37 498.20,1351.25 477.97,1350.22 467.66,1349.13 458.88,1346.47 452.42,1342.90 428.34,1325.88 369.85,1285.70 364.34,1281.96 358.72,1278.15 354.52,1274.08" fill="none" stroke="#bcbcbc" stroke-width="8" stroke-linecap="round" stroke-linejoin="round" /><polyline points="-594.68,648.76 -573.46,690.31 -570.25,702.19 -552.37,736.30 -544.98,746.06 -515.10,804.21 -513.19,807.92" fill="none" stroke="#bcbcbc" stroke-width="8" stroke-linecap="round" stroke-linejoin="round" /><polyline points="55.73,1018.31 52.55,1027.04 51.66,1029.76 47.52,1042.33 21.26,1115.59 8.22,1151.98 7.78,1153.22 2.54,1164.53 -0.46,1171.24" fill="none" stroke="#bcbcbc" stroke-width="8" stroke-linecap="round" stroke-linejoin="round" /><polyline points="404.09,375.32 401.18,369.09 393.52,368.08 368.77,373.76 363.74,373.11 359.80,367.82 352.80,335.62 390.73,329.74 408.29,324.56 416.88,323.67 426.13,356.55" fill="none" stroke="#bcbcbc" stroke-width="8" stroke-linecap="round" stroke-linejoin="round" /><polyline points="541.18,731.47 550.95,725.98 600.03,696.41 613.15,688.60 636.11,674.91 673.88,650.48 682.69,644.14 748.94,603.04" fill="none" stroke="#bcbcbc" stroke-width="8" stroke-linecap="round" stroke-linejoin="round" /><polyline points="772.77,925.62 756.02,920.63 746.28,912.64 709.07,880.43 707.80,879.30 698.80,871.27 693.52,861.90 600.03,696.41" fill="none" stroke="#bcbcbc" stroke-width="8" stroke-linecap="round" stroke-linejoin="round" /><polyline points="-282.25,912.50 -135.57,957.64 -123.60,961.43 -14.15,996.13 -11.86,996.86 4.54,1002.06 12.60,1004.62 23.07,1007.48 44.68,1014.80 55.73,1018.31 65.68,1021.46 147.13,1047.30 233.12,1074.32 240.24,1076.55 250.09,1071.72" fill="none" stroke="#bcbcbc" stroke-width="8" stroke-linecap="round" stroke-linejoin="round" /><polyline points="149.03,188.30 212.56,129.92 223.32,120.03" fill="none" stroke="#bcbcbc" stroke-width="8" stroke-linecap="round" stroke-linejoin="round" /><polyline points="-914.91,1130.41 -681.77,1155.40" fill="none" stroke="#bcbcbc" stroke-width="8" stroke-linecap="round" stroke-linejoin="round" /><polyline points="-211.61,479.63 -162.60,462.11 -112.06,443.83 -80.66,431.62 15.23,396.75 43.06,387.12 48.87,385.11 55.84,382.71 63.66,380.02 64.62,379.69 80.41,373.34 87.28,370.58" fill="none" stroke="#bcbcbc" stroke-width="8" stroke-linecap="round" stroke-linejoin="round" /><polyline points="117.50,1665.50 163.64,1722.41 191.88,1750.85 204.11,1759.65 221.42,1774.15 237.67,1787.80 251.64,1801.43 251.99,1808.36" fill="none" stroke="#bcbcbc" stroke-width="8" stroke-linecap="round" stroke-linejoin="round" /><polyline points="167.20,352.80 185.28,307.48 214.54,232.86 256.47,125.96 277.19,75.32 308.06,-0.20 333.37,-62.05 337.90,-70.26 360.16,-106.66 361.60,-109.01 369.75,-125.03 384.03,-147.03 392.01,-159.31 403.29,-176.68" fill="none" stroke="#bcbcbc" stroke-width="8" stroke-linecap="round" stroke-linejoin="round" /><polyline points="-259.33,1564.56 -262.29,1566.93 -264.25,1569.75 -268.24,1581.51 -270.99,1590.00 -283.73,1628.09 -285.48,1633.59 -286.57,1637.00 -298.27,1633.64 -326.73,1624.10 -354.94,1614.64 -376.74,1613.40" fill="none" stroke="#bcbcbc" stroke-width="8" stroke-linecap="round" stroke-linejoin="round" /><polyline points="-816.82,1829.63 -770.33,1709.56 -765.15,1696.49 -760.51,1683.90 -754.91,1668.69 -748.04,1644.76 -740.87,1615.02 -737.93,1593.71 -735.80,1578.23 -732.79,1566.81 -721.85,1480.95 -709.07,1372.61 -702.45,1320.96 -695.07,1260.28 -681.77,1155.40 -679.66,1137.57 -666.22,1027.88 -666.21,1021.77 -663.24,989.23 -654.67,920.48 -652.52,908.49 -650.28,901.77 -646.77,894.36 -643.36,888.61 -635.84,880.46 -629.11,878.15" fill="none" stroke="#bcbcbc" stroke-width="8" stroke-linecap="round" stroke-linejoin="round" /><polyline points="198.08,917.69 200.62,921.72 209.15,935.03 221.91,955.50 224.99,960.38 230.08,956.51 254.76,937.76" fill="none" stroke="#bcbcbc" stroke-width="8" stroke-linecap="round" stroke-linejoin="round" /><polyline points="214.54,232.86 465.73,278.28 492.11,292.16 590.52,340.95 599.19,338.27" fill="none" stroke="#bcbcbc" stroke-width="8" stroke-linecap="round" stroke-linejoin="round" /><polyline points="-265.00,802.04 -269.46,808.54 -309.53,828.10 -338.96,865.51 -370.72,885.18 -392.44,901.58 -413.17,918.49 -423.79,928.17 -442.56,951.98 -463.54,982.06 -467.00,987.64" fill="none" stroke="#bcbcbc" stroke-width="8" stroke-linecap="round" stroke-linejoin="round" /><polyline points="-222.63,828.88 -224.37,832.74 -228.17,838.30 -235.35,847.13 -277.68,900.61 -300.08,960.93 -413.12,918.44" fill="none" stroke="#bcbcbc" stroke-width="8" stroke-linecap="round" stroke-linejoin="round" /><polyline points="-392.44,901.58 -396.82,888.33 -415.74,831.05 -423.08,819.74 -435.37,782.86 -436.43,779.67 -434.62,773.90 -437.56,764.50 -496.67,575.76" fill="none" stroke="#bcbcbc" stroke-width="8" stroke-linecap="round" stroke-linejoin="round" /><polyline points="300.13,-128.24 346.84,-127.01 349.02,-126.95 357.97,-126.69 369.75,-125.03" fill="none" stroke="#bcbcbc" stroke-width="8" stroke-linecap="round" stroke-linejoin="round" /><polyline points="59.86,1393.56 43.91,1393.37 -91.15,1411.50 -100.88,1412.53 -112.01,1413.70 -176.64,1420.52 -263.71,1429.72 -309.87,1434.59 -335.40,1437.28 -356.13,1439.80 -366.78,1441.10 -378.77,1442.55 -436.70,1449.59 -450.58,1451.28 -493.36,1455.96 -721.85,1480.95" fill="none" stroke="#bcbcbc" stroke-width="8" stroke-linecap="round" stroke-linejoin="round" /><polyline points="-140.10,1862.52 -152.06,1858.67 -207.94,1840.68 -219.24,1837.04 -229.05,1833.89 -288.25,1814.86 -299.92,1811.11 -315.36,1806.14 -409.61,1775.81 -420.21,1772.39" fill="none" stroke="#bcbcbc" stroke-width="8" stroke-linecap="round" stroke-linejoin="round" /><polyline points="93.56,731.03 126.07,741.15 244.93,777.86 246.04,778.21 254.86,778.76" fill="none" stroke="#bcbcbc" stroke-width="8" stroke-linecap="round" stroke-linejoin="round" /><polyline points="428.02,463.31 589.72,466.15" fill="none" stroke="#bcbcbc" stroke-width="8" stroke-linecap="round" stroke-linejoin="round" /><polyline points="348.85,1884.01 325.73,1856.54 316.04,1845.26 307.70,1837.47 296.61,1829.18 273.93,1815.58 251.99,1808.36 207.34,1794.57 170.83,1782.98 191.88,1750.85" fill="none" stroke="#bcbcbc" stroke-width="8" stroke-linecap="round" stroke-linejoin="round" /><polyline points="117.50,1665.50 85.32,1625.76 79.20,1618.21 46.78,1573.54 39.44,1559.90 41.20,1543.67 50.98,1543.57 75.09,1548.21 111.78,1555.27" fill="none" stroke="#bcbcbc" stroke-width="8" stroke-linecap="round" stroke-linejoin="round" /><polyline points="-303.54,1347.16 -297.60,1359.93 -263.71,1429.72 -213.30,1533.49 -206.88,1546.72" fill="none" stroke="#bcbcbc" stroke-width="8" stroke-linecap="round" stroke-linejoin="round" /><polyline points="-846.46,1663.25 -834.33,1668.21 -777.55,1691.42 -765.15,1696.49 -752.11,1701.83 -685.26,1729.17 -673.17,1734.11" fill="none" stroke="#bcbcbc" stroke-width="8" stroke-linecap="round" stroke-linejoin="round" /><polyline points="-275.64,1243.69 -157.34,1295.45" fill="none" stroke="#bcbcbc" stroke-width="8" stroke-linecap="round" stroke-linejoin="round" /><polyline points="254.86,778.76 272.88,779.70 274.02,780.73 282.11,787.90 293.99,798.51 296.19,802.77 337.14,838.64 340.17,844.37 368.97,869.79 376.22,872.00 398.62,891.62 403.64,893.91 437.43,922.58 444.95,929.24 449.10,935.85" fill="none" stroke="#bcbcbc" stroke-width="8" stroke-linecap="round" stroke-linejoin="round" /><polyline points="-879.85,1243.81 -695.07,1260.28" fill="none" stroke="#bcbcbc" stroke-width="8" stroke-linecap="round" stroke-linejoin="round" /><polyline points="-467.28,1931.91 -461.56,1919.72 -460.09,1914.30 -452.06,1884.71 -423.00,1782.21 -420.21,1772.39 -417.27,1761.63 -404.10,1713.47 -381.87,1632.15 -376.74,1613.40" fill="none" stroke="#bcbcbc" stroke-width="8" stroke-linecap="round" stroke-linejoin="round" /><polyline points="-303.54,1347.16 -275.64,1243.69 -334.79,1222.99 -350.28,1232.14 -357.34,1237.51 -362.57,1244.58 -366.24,1253.92 -379.85,1304.20 -368.87,1309.79 -357.79,1312.48 -333.27,1318.86 -314.92,1324.71 -303.54,1347.16" fill="none" stroke="#bcbcbc" stroke-width="8" stroke-linecap="round" stroke-linejoin="round" /><polyline points="-379.85,1304.20 -392.80,1302.40 -695.07,1260.28" fill="none" stroke="#bcbcbc" stroke-width="8" stroke-linecap="round" stroke-linejoin="round" /><polyline points="111.78,1555.27 139.81,1561.40 215.64,1585.50 236.84,1592.20 287.16,1606.74 337.86,1621.36 375.39,1632.21 435.41,1649.54 447.81,1653.12 478.10,1663.28 527.97,1676.56 532.36,1677.38" fill="none" stroke="#bcbcbc" stroke-width="8" stroke-linecap="round" stroke-linejoin="round" /><polyline points="147.34,1993.35 137.11,1995.92 126.05,2026.75 108.90,2021.88 30.91,1995.29 21.52,1993.29 0.64,1991.80 -93.80,1992.17 -114.62,1989.52 -161.64,1982.33 -180.61,1979.25 -315.12,1957.56 -367.21,1949.24 -466.54,1932.04 -482.58,1928.86 -706.77,1866.19 -720.92,1862.23 -816.82,1829.63 -840.41,1821.26 -899.35,1796.83 -932.94,1784.13" fill="none" stroke="#bcbcbc" stroke-width="8" stroke-linecap="round" stroke-linejoin="round" /><polyline points="111.78,1555.27 116.32,1547.67 143.51,1477.83 173.89,1372.23 181.64,1349.49 185.78,1343.30 215.11,1249.14 216.57,1237.90 217.68,1230.55" fill="none" stroke="#bcbcbc" stroke-width="8" stroke-linecap="round" stroke-linejoin="round" /><polyline points="245.31,535.20 248.40,534.01 252.60,530.68 258.97,523.22 341.71,404.51 363.74,373.11" fill="none" stroke="#bcbcbc" stroke-width="8" stroke-linecap="round" stroke-linejoin="round" /><polyline points="613.53,971.31 615.22,966.44 656.81,917.50 659.86,915.88 667.08,905.99 691.28,878.20 698.80,871.27" fill="none" stroke="#bcbcbc" stroke-width="8" stroke-linecap="round" stroke-linejoin="round" /><polyline points="649.87,1334.43 649.29,1327.88 648.85,1322.82 646.66,1313.13 644.04,1306.82 640.77,1290.22 640.47,1284.21 638.26,1270.78 628.36,1265.61 620.45,1268.63 606.29,1272.02 595.08,1273.78 584.33,1276.37 569.49,1279.75 562.72,1281.30" fill="none" stroke="#bcbcbc" stroke-width="8" stroke-linecap="round" stroke-linejoin="round" /><polyline points="-442.75,1094.13 -412.50,1023.22 -410.82,1018.61" fill="none" stroke="#bcbcbc" stroke-width="8" stroke-linecap="round" stroke-linejoin="round" /><polyline points="354.34,964.10 368.92,958.46 376.54,955.51 382.44,949.54 406.74,943.55 414.89,945.62 432.49,941.09 445.90,937.63 449.10,935.85 462.11,932.66 528.64,916.36 543.72,911.85" fill="none" stroke="#bcbcbc" stroke-width="8" stroke-linecap="round" stroke-linejoin="round" /><polyline points="-259.33,1564.56 -227.94,1553.16 -217.44,1549.95 -206.88,1546.72 -187.37,1540.76 -172.20,1538.58 -120.38,1532.91 -109.97,1532.34 -63.60,1532.74 -35.36,1532.98 -24.74,1532.44 -7.72,1534.16 -2.40,1534.92 8.44,1536.47 41.20,1543.67" fill="none" stroke="#bcbcbc" stroke-width="8" stroke-linecap="round" stroke-linejoin="round" /><polyline points="-109.79,632.74 -114.99,615.16 -134.30,549.86 -157.76,475.40 -162.60,462.11 -167.52,449.65 -173.74,431.70" fill="none" stroke="#bcbcbc" stroke-width="8" stroke-linecap="round" stroke-linejoin="round" /><polyline points="-165.96,1685.61 -161.84,1672.58 -120.12,1541.00 -120.38,1532.91" fill="none" stroke="#bcbcbc" stroke-width="8" stroke-linecap="round" stroke-linejoin="round" /><polyline points="-109.97,1532.34 -101.71,1421.56 -100.88,1412.53 -99.62,1402.02 -99.60,1401.54 -99.05,1388.69 -96.30,1353.82 -94.74,1337.58 -92.62,1319.13 -90.68,1305.84 -88.94,1297.50 -86.75,1291.20 -82.47,1276.99 -73.60,1247.41 -62.33,1209.23 -49.91,1170.18 -47.37,1162.22 -45.34,1156.45" fill="none" stroke="#bcbcbc" stroke-width="8" stroke-linecap="round" stroke-linejoin="round" /><polyline points="-379.85,1304.20 -382.05,1314.02 -381.67,1317.16 -368.21,1429.23 -366.78,1441.10 -367.40,1453.31 -370.93,1523.01 -372.40,1552.13 -373.16,1567.15 -374.51,1593.93 -375.22,1607.87 -376.74,1613.40" fill="none" stroke="#bcbcbc" stroke-width="8" stroke-linecap="round" stroke-linejoin="round" /><polyline points="-442.75,1094.13 -491.68,1079.58 -497.90,1075.59 -528.36,1066.71 -536.92,1066.80 -575.19,1055.27 -581.37,1050.71 -616.19,1040.16 -658.92,1028.51 -659.13,1028.49 -666.22,1027.88" fill="none" stroke="#bcbcbc" stroke-width="8" stroke-linecap="round" stroke-linejoin="round" /><polyline points="449.10,935.85 450.80,938.08 457.90,948.66 471.01,968.22 483.36,980.59 507.10,1007.24 503.09,1031.87 501.05,1041.11 498.22,1045.01 504.17,1053.82 513.38,1072.77 531.78,1108.27 540.84,1125.75 546.48,1141.47 549.02,1148.76" fill="none" stroke="#bcbcbc" stroke-width="8" stroke-linecap="round" stroke-linejoin="round" /><polyline points="573.04,986.58 566.22,988.70 521.28,1002.69 514.84,1004.75 507.10,1007.24" fill="none" stroke="#bcbcbc" stroke-width="8" stroke-linecap="round" stroke-linejoin="round" /><polyline points="250.09,1071.72 264.15,1067.16 366.16,1015.07 379.81,1008.40 427.89,994.51 474.50,981.40 483.36,980.59" fill="none" stroke="#bcbcbc" stroke-width="8" stroke-linecap="round" stroke-linejoin="round" /><polyline points="261.21,1136.21 378.81,1081.47 383.76,1078.20 395.26,1074.85 473.62,1052.05 485.51,1047.50 498.22,1045.01" fill="none" stroke="#bcbcbc" stroke-width="8" stroke-linecap="round" stroke-linejoin="round" /><polyline points="237.21,-11.20 284.82,-5.32 289.60,-4.73 308.06,-0.20" fill="none" stroke="#bcbcbc" stroke-width="8" stroke-linecap="round" stroke-linejoin="round" /><polyline points="644.03,472.83 652.47,471.07 684.01,486.53 688.17,490.64 747.38,590.89 748.94,603.04 756.64,609.46 755.42,613.89 755.23,621.12 756.30,631.22 771.98,695.68 773.37,740.32 775.57,811.61 779.25,907.56 764.24,949.37 754.56,974.86 740.44,1010.78 736.35,1021.17 733.69,1024.07 729.42,1051.87" fill="none" stroke="#bcbcbc" stroke-width="8" stroke-linecap="round" stroke-linejoin="round" /><polyline points="753.50,1221.20 739.10,1214.93 703.11,1189.81 655.63,1156.45 629.52,1135.33 611.90,1116.46" fill="none" stroke="#bcbcbc" stroke-width="8" stroke-linecap="round" stroke-linejoin="round" /><polyline points="170.83,1782.98 156.69,1778.50 133.74,1771.22 122.78,1767.75 109.92,1763.67 93.66,1758.52 78.97,1753.86 64.44,1749.25 -0.34,1728.69 -11.69,1725.09 -25.78,1720.62 -28.89,1719.64 -65.95,1709.85 -76.41,1707.32 -89.52,1704.14 -103.25,1700.82 -152.70,1688.82 -165.96,1685.61 -180.21,1680.66 -209.99,1670.32 -221.21,1666.42 -231.25,1663.16 -277.87,1646.58 -283.75,1643.08 -286.57,1637.00" fill="none" stroke="#bcbcbc" stroke-width="8" stroke-linecap="round" stroke-linejoin="round" /><polyline points="383.76,1078.20 380.33,1065.89 370.09,1029.18 366.16,1015.07 360.47,1004.52 359.94,1002.56 356.58,990.14 360.49,984.63 355.80,968.97 354.34,964.10" fill="none" stroke="#bcbcbc" stroke-width="8" stroke-linecap="round" stroke-linejoin="round" /><polyline points="366.65,629.04 376.38,624.46 429.54,595.15 459.93,575.60 481.37,560.98 486.10,557.45 503.35,545.46 521.23,532.25 532.55,524.02 546.04,514.15 592.94,492.98 599.02,493.30 607.92,489.10 644.03,472.83" fill="none" stroke="#bcbcbc" stroke-width="8" stroke-linecap="round" stroke-linejoin="round" /><polyline points="-222.63,828.88 -214.96,831.99 -209.89,833.55 -114.82,862.75 -100.30,867.21" fill="none" stroke="#bcbcbc" stroke-width="8" stroke-linecap="round" stroke-linejoin="round" /><polyline points="-901.73,1042.70 -969.66,1022.14" fill="none" stroke="#bcbcbc" stroke-width="8" stroke-linecap="round" stroke-linejoin="round" /><polyline points="195.46,84.74 212.30,106.08 214.82,109.26 223.32,120.03 233.01,121.17 252.93,123.51 256.47,125.96" fill="none" stroke="#bcbcbc" stroke-width="8" stroke-linecap="round" stroke-linejoin="round" /><polyline points="780.28,1033.75 753.59,1038.73 726.23,1053.60 700.87,1067.72 676.87,1079.72 647.89,1095.46 626.89,1108.21 585.41,1130.45 423.48,1211.93 381.49,1230.43 353.75,1242.42 340.01,1246.92 328.64,1249.05 310.02,1250.17 283.53,1246.42 217.43,1230.55 123.59,1208.68 0.14,1171.44 -45.34,1156.45 -119.81,1133.45 -191.03,1109.96 -295.49,1068.97 -347.72,1046.48 -410.70,1018.49 -515.15,961.25 -539.64,945.01 -601.62,906.02 -627.61,880.03 -666.59,829.54 -730.82,763.32 -756.06,741.07" fill="none" stroke="#bcbcbc" stroke-width="8" stroke-linecap="round" stroke-linejoin="round" /><polyline points="273.93,1815.58 275.02,1809.47 278.97,1799.50 316.02,1712.82 330.01,1680.32 346.51,1639.83 350.52,1625.01" fill="none" stroke="#bcbcbc" stroke-width="8" stroke-linecap="round" stroke-linejoin="round" /><polyline points="-436.70,1449.59 -478.78,1429.23 -574.52,1382.88 -691.97,1326.04 -702.45,1320.96" fill="none" stroke="#bcbcbc" stroke-width="8" stroke-linecap="round" stroke-linejoin="round" /><polyline points="254.86,778.76 265.48,767.88 293.73,738.96 316.15,714.47" fill="none" stroke="#bcbcbc" stroke-width="8" stroke-linecap="round" stroke-linejoin="round" /><polyline points="-560.92,843.20 -572.59,827.74 -627.29,755.31 -705.37,692.12" fill="none" stroke="#bcbcbc" stroke-width="8" stroke-linecap="round" stroke-linejoin="round" /><polyline points="-899.76,1796.66 -889.09,1771.33 -855.14,1686.69 -851.02,1675.57 -846.46,1663.25 -844.72,1658.80 -844.27,1651.84 -839.92,1586.03 -838.67,1567.16" fill="none" stroke="#bcbcbc" stroke-width="8" stroke-linecap="round" stroke-linejoin="round" /><polyline points="-922.93,1116.22 -901.73,1042.70 -873.77,945.74 -870.31,933.73 -866.46,920.10 -857.84,889.57 -856.94,886.36 -854.47,876.55 -850.53,865.45 -849.58,862.76 -844.61,850.44 -834.85,828.91 -831.93,822.73" fill="none" stroke="#bcbcbc" stroke-width="8" stroke-linecap="round" stroke-linejoin="round" /><polyline points="-870.31,933.74 -827.42,944.70 -736.58,968.06 -684.83,984.17 -663.24,989.23" fill="none" stroke="#bcbcbc" stroke-width="8" stroke-linecap="round" stroke-linejoin="round" /><polyline points="12.43,600.17 13.89,591.24 15.35,581.98 21.65,550.98 37.36,478.83 50.27,414.29 52.63,400.89 55.84,382.71 55.84,382.70" fill="none" stroke="#bcbcbc" stroke-width="8" stroke-linecap="round" stroke-linejoin="round" /><polyline points="-114.54,1989.54 -95.39,1940.69 -93.02,1931.92 -17.03,1739.00 -11.69,1725.09 -7.37,1713.28 38.04,1581.17 46.78,1573.54" fill="none" stroke="#bcbcbc" stroke-width="8" stroke-linecap="round" stroke-linejoin="round" /><polyline points="145.93,562.82 145.92,562.80 143.23,548.68 142.81,546.96 136.25,520.26 136.25,520.18 131.77,502.08 112.81,437.08 110.42,430.12 97.62,395.31 93.45,384.91 90.77,378.21 87.29,370.60 87.28,370.58 87.28,370.55 84.74,342.56 84.49,328.82" fill="none" stroke="#bcbcbc" stroke-width="8" stroke-linecap="round" stroke-linejoin="round" /><polyline points="117.50,1665.50 112.63,1670.76 105.36,1679.41 84.89,1737.14 78.97,1753.86" fill="none" stroke="#bcbcbc" stroke-width="8" stroke-linecap="round" stroke-linejoin="round" /><polyline points="-222.63,828.88 -219.84,821.30 -219.20,819.54 -205.91,782.40 -200.92,766.76 -160.18,646.94" fill="none" stroke="#bcbcbc" stroke-width="8" stroke-linecap="round" stroke-linejoin="round" /><polyline points="-11.86,996.86 -7.70,985.81 3.55,955.91 8.31,943.26 11.54,934.70 20.57,910.70 26.54,894.84 27.34,892.71 41.80,854.30 47.85,856.17 51.12,847.25 56.92,831.48 55.81,824.31 71.19,782.43 72.77,778.13 75.69,775.45 78.14,773.20 93.56,731.03 95.79,719.48 117.93,657.98 123.16,653.89 133.81,623.76 131.91,619.14 141.24,591.00 136.40,565.88" fill="none" stroke="#bcbcbc" stroke-width="8" stroke-linecap="round" stroke-linejoin="round" /><polyline points="384.03,-147.03 377.83,-157.21 345.24,-210.67" fill="none" stroke="#bcbcbc" stroke-width="8" stroke-linecap="round" stroke-linejoin="round" /><polyline points="486.10,557.45 635.64,653.62 635.68,653.69 635.68,653.70 663.34,657.29" fill="none" stroke="#bcbcbc" stroke-width="8" stroke-linecap="round" stroke-linejoin="round" /><polyline points="426.13,356.55 585.24,436.42 590.04,440.01 589.72,466.15 592.94,492.98" fill="none" stroke="#bcbcbc" stroke-width="8" stroke-linecap="round" stroke-linejoin="round" /><polyline points="122.78,1767.75 117.06,1785.21 93.88,1855.92 54.44,1975.00 51.65,1983.45 48.81,1992.01 48.02,2001.13" fill="none" stroke="#bcbcbc" stroke-width="8" stroke-linecap="round" stroke-linejoin="round" /><polyline points="570.70,1338.20 571.65,1329.33 571.85,1321.06 571.79,1320.77 566.15,1296.39 563.84,1286.21 562.72,1281.30 561.58,1276.28 555.39,1249.01 543.30,1194.51 534.52,1161.75 533.27,1156.69" fill="none" stroke="#bcbcbc" stroke-width="8" stroke-linecap="round" stroke-linejoin="round" /><polyline points="-219.24,1837.04 -215.30,1825.83 -170.99,1699.90 -165.96,1685.61" fill="none" stroke="#bcbcbc" stroke-width="8" stroke-linecap="round" stroke-linejoin="round" /><polyline points="775.57,811.61 762.53,807.93 674.01,672.08 663.34,657.29" fill="none" stroke="#bcbcbc" stroke-width="8" stroke-linecap="round" stroke-linejoin="round" /><polyline points="-679.66,1137.57 -357.04,1214.87 -334.79,1222.99" fill="none" stroke="#bcbcbc" stroke-width="8" stroke-linecap="round" stroke-linejoin="round" /><polyline points="337.90,-70.26 463.57,-23.70 481.27,-26.72" fill="none" stroke="#bcbcbc" stroke-width="8" stroke-linecap="round" stroke-linejoin="round" />
    <polyline points="352.80,335.62 343.09,333.62 213.53,348.94 167.20,352.80" fill="none" stroke="#ffffff" stroke-width="16" stroke-linecap="round" stroke-linejoin="round" />
    <polyline points="352.80,335.62 343.09,333.62 213.53,348.94 167.20,352.80" fill="none" stroke="#111111" stroke-width="9" stroke-linecap="round" stroke-linejoin="round" />
    
            <g transform="translate(352.80,335.62)">
              <circle r="19" fill="#ffffff" stroke="#111111" stroke-width="4" />
              <text text-anchor="middle" dominant-baseline="central" font-family="Helvetica, Arial, sans-serif"
                font-size="18" font-weight="700" fill="#111111">1</text>
            </g>
            
            <g transform="translate(167.20,352.80)">
              <circle r="19" fill="#ffffff" stroke="#111111" stroke-width="4" />
              <text text-anchor="middle" dominant-baseline="central" font-family="Helvetica, Arial, sans-serif"
                font-size="18" font-weight="700" fill="#111111">2</text>
            </g>
            
  </g>
</svg>
