<svg xmlns="http://www.w3.org/2000/svg" width="520" height="520" viewBox="0 0 520 520">
  <rect width="100%" height="100%" fill="#ffffff" />
  <g>
    <polyline points="471.47,-265.89 473.17,-256.81 484.19,-179.73 482.51,-160.46" fill="none" stroke="#bcbcbc" stroke-width="8" stroke-linecap="round" stroke-linejoin="round" /><polyline points="247.49,376.45 250.16,368.26 264.27,324.85 265.94,319.73 267.62,314.36 303.11,201.18 305.97,192.08 299.43,175.98" fill="none" stroke="#bcbcbc" stroke-width="8" stroke-linecap="round" stroke-linejoin="round" /><polyline points="2.32,275.78 1.75,269.28 13.35,204.29 14.98,196.16 16.20,191.91 19.39,175.43 22.98,155.25 26.89,137.49 30.77,119.76 33.21,114.76 34.81,111.70" fill="none" stroke="#bcbcbc" stroke-width="8" stroke-linecap="round" stroke-linejoin="round" /><polyline points="69.68,-182.64 66.92,-191.05 38.40,-278.01 37.01,-281.66" fill="none" stroke="#bcbcbc" stroke-width="8" stroke-linecap="round" stroke-linejoin="round" /><polyline points="-76.64,582.77 -75.79,574.47 -75.45,570.66 -72.34,536.32 -68.94,506.09 -68.15,499.03 -67.41,490.56 -67.33,489.85 -65.40,473.01 -63.74,455.89 -61.91,439.37 -60.68,426.51 -60.17,418.58 -59.71,411.25 -58.90,402.99" fill="none" stroke="#bcbcbc" stroke-width="8" stroke-linecap="round" stroke-linejoin="round" /><polyline points="317.38,396.63 319.41,390.24 333.72,345.26 335.35,340.15 337.66,332.87 339.31,327.65 351.98,273.03" fill="none" stroke="#bcbcbc" stroke-width="8" stroke-linecap="round" stroke-linejoin="round" /><polyline points="261.76,-493.10 267.04,-492.29 412.66,-469.92" fill="none" stroke="#bcbcbc" stroke-width="8" stroke-linecap="round" stroke-linejoin="round" /><polyline points="-112.07,386.03 -127.22,385.32 -136.47,384.89 -141.49,384.66 -145.89,384.45 -180.21,382.86 -227.95,380.64 -250.71,377.41 -258.32,376.33 -264.93,375.17 -309.68,367.27 -315.94,366.16 -317.32,365.93 -325.05,364.60 -330.99,363.58 -368.91,360.23 -376.13,359.59 -378.78,359.36 -386.98,358.79 -403.03,357.68" fill="none" stroke="#bcbcbc" stroke-width="8" stroke-linecap="round" stroke-linejoin="round" /><polyline points="108.13,342.06 111.06,333.70 137.52,260.37 169.34,167.88 171.38,162.08 172.80,158.03 173.95,154.70" fill="none" stroke="#bcbcbc" stroke-width="8" stroke-linecap="round" stroke-linejoin="round" /><polyline points="-378.78,359.36 -379.46,354.64 -379.62,349.52 -378.61,339.21 -376.31,320.38 -374.77,314.06 -372.28,291.21 -371.83,286.12 -371.10,279.58 -370.55,274.72 -369.53,269.21 -367.64,254.39 -366.32,243.06 -364.39,238.42" fill="none" stroke="#bcbcbc" stroke-width="8" stroke-linecap="round" stroke-linejoin="round" /><polyline points="-405.86,232.63 -370.57,237.55 -364.39,238.42 -360.56,239.03 -344.74,241.55 -308.30,247.36 -302.04,248.40" fill="none" stroke="#bcbcbc" stroke-width="8" stroke-linecap="round" stroke-linejoin="round" /><polyline points="243.53,-230.25 243.76,-227.04 244.24,-223.79 245.38,-221.30 247.53,-218.53 251.50,-214.92 260.90,-209.20 333.45,-163.68 378.13,-103.78 411.88,-20.49 414.09,-14.99" fill="none" stroke="#bcbcbc" stroke-width="8" stroke-linecap="round" stroke-linejoin="round" /><polyline points="231.92,12.77 233.42,15.26 233.81,15.91 235.06,22.19 243.57,63.35 246.27,76.41 248.20,85.72 251.22,104.58 252.62,113.27 253.60,118.58 254.66,123.37 255.93,126.17 257.79,129.41 258.79,130.93 277.64,157.92 287.84,173.97 290.49,177.81" fill="none" stroke="#bcbcbc" stroke-width="8" stroke-linecap="round" stroke-linejoin="round" /><polyline points="-309.25,528.13 -308.25,521.95 -307.32,517.48 -307.07,516.89 -294.52,487.06 -286.52,467.67 -284.10,461.53 -281.52,455.02 -278.73,449.43 -278.27,448.33 -274.45,439.09 -271.49,430.91 -268.95,423.40 -267.34,418.09 -265.54,411.54 -263.46,402.75 -261.88,395.62 -259.99,385.67 -259.59,383.45 -258.32,376.33" fill="none" stroke="#bcbcbc" stroke-width="8" stroke-linecap="round" stroke-linejoin="round" /><polyline points="298.64,-304.95 338.65,-276.99 344.04,-275.85 347.98,-271.34" fill="none" stroke="#bcbcbc" stroke-width="8" stroke-linecap="round" stroke-linejoin="round" /><polyline points="130.65,-46.78 135.94,-44.75 158.90,-37.24 212.14,-16.82 215.13,-13.85 216.53,-11.62" fill="none" stroke="#bcbcbc" stroke-width="8" stroke-linecap="round" stroke-linejoin="round" /><polyline points="229.88,477.91 233.50,468.46 251.40,419.90 264.06,383.20 266.69,382.00" fill="none" stroke="#bcbcbc" stroke-width="8" stroke-linecap="round" stroke-linejoin="round" /><polyline points="-23.16,416.33 -20.33,410.09 -20.05,409.47 -15.22,393.26 -7.30,366.58 -5.28,359.75 -3.70,354.44 -3.49,351.35 -3.81,344.51" fill="none" stroke="#bcbcbc" stroke-width="8" stroke-linecap="round" stroke-linejoin="round" /><polyline points="305.86,14.91 301.33,15.84 291.04,14.01 289.45,9.77 271.63,2.98 267.42,4.08 251.34,-1.82 248.94,-0.15" fill="none" stroke="#bcbcbc" stroke-width="8" stroke-linecap="round" stroke-linejoin="round" /><polyline points="279.41,-536.26 287.48,-534.29 291.95,-533.51 398.17,-515.09" fill="none" stroke="#bcbcbc" stroke-width="8" stroke-linecap="round" stroke-linejoin="round" /><polyline points="196.85,448.33 201.26,435.88 209.85,411.67 215.40,401.36 223.39,379.00 226.57,370.08" fill="none" stroke="#bcbcbc" stroke-width="8" stroke-linecap="round" stroke-linejoin="round" /><polyline points="-385.16,-35.14 -392.86,-35.49 -394.79,-33.15 -408.19,-16.86 -455.04,37.25 -461.63,44.86" fill="none" stroke="#bcbcbc" stroke-width="8" stroke-linecap="round" stroke-linejoin="round" /><polyline points="25.80,11.21 22.41,18.73 21.99,19.64 10.19,50.41 -1.70,84.28 -4.87,93.31 -6.67,97.97" fill="none" stroke="#bcbcbc" stroke-width="8" stroke-linecap="round" stroke-linejoin="round" /><polyline points="198.88,-334.50 202.63,-329.41 205.31,-322.42 209.47,-312.38 216.16,-296.60 222.08,-282.43 228.87,-266.86 233.92,-254.87 234.66,-253.15 234.71,-253.05 238.77,-243.56 239.98,-240.86 241.13,-238.30 242.35,-235.89 243.27,-233.45 243.53,-230.25" fill="none" stroke="#bcbcbc" stroke-width="8" stroke-linecap="round" stroke-linejoin="round" /><polyline points="-88.08,162.88 -86.12,161.81 -83.38,159.63 -82.00,156.80 -63.77,87.68 -63.22,83.78 -61.00,76.66" fill="none" stroke="#bcbcbc" stroke-width="8" stroke-linecap="round" stroke-linejoin="round" /><polyline points="549.36,54.71 551.94,62.92 553.76,71.54 550.22,104.40 546.12,129.11 543.89,137.54 543.68,138.30 541.73,142.85 539.06,147.68 532.82,155.56 535.84,170.99 526.07,204.09 520.67,222.37 509.64,252.30 493.48,288.73 473.74,323.65 467.58,335.00 456.44,353.64 411.92,416.82 402.17,429.96 364.40,479.32 342.71,503.99 312.38,534.81 309.57,535.10 302.72,540.70" fill="none" stroke="#bcbcbc" stroke-width="8" stroke-linecap="round" stroke-linejoin="round" /><polyline points="0.06,595.14 12.48,556.60 14.52,550.24 17.28,546.23 23.21,528.42 25.14,522.37 49.66,445.61 52.13,437.89 54.16,431.11 83.09,340.06" fill="none" stroke="#bcbcbc" stroke-width="8" stroke-linecap="round" stroke-linejoin="round" /><polyline points="291.17,-121.57 301.91,-133.31 305.08,-137.13 326.78,-167.87" fill="none" stroke="#bcbcbc" stroke-width="8" stroke-linecap="round" stroke-linejoin="round" /><polyline points="76.45,-116.92 106.03,-106.62 107.67,-103.97 116.07,-101.15 121.06,-99.45 144.90,-91.39" fill="none" stroke="#bcbcbc" stroke-width="8" stroke-linecap="round" stroke-linejoin="round" /><polyline points="334.30,-321.63 347.98,-271.34 363.82,-212.09 366.23,-207.15 366.61,-201.52 377.35,-181.46 406.34,-127.41 412.67,-118.06 414.51,-115.32 457.82,-34.36 477.72,-16.26 480.52,-12.66 484.45,-9.29 522.25,23.02 524.81,25.21 531.60,28.82" fill="none" stroke="#bcbcbc" stroke-width="8" stroke-linecap="round" stroke-linejoin="round" /><polyline points="187.32,603.32 281.57,548.57 298.35,539.99 302.72,540.70" fill="none" stroke="#bcbcbc" stroke-width="8" stroke-linecap="round" stroke-linejoin="round" /><polyline points="289.51,525.00 295.36,518.05 347.86,413.30 351.34,406.43 354.24,399.63 371.20,357.70 376.25,345.06 390.87,300.83 400.34,243.96 401.47,235.68" fill="none" stroke="#bcbcbc" stroke-width="8" stroke-linecap="round" stroke-linejoin="round" /><polyline points="248.99,-91.03 248.07,-90.09 246.81,-85.68 246.68,-85.24 240.99,-63.31 242.48,-57.58 241.24,-52.45 239.61,-45.73 235.44,-40.90 230.71,-21.73 225.14,-17.52 219.19,-13.44 216.53,-11.62" fill="none" stroke="#bcbcbc" stroke-width="8" stroke-linecap="round" stroke-linejoin="round" /><polyline points="25.80,11.21 28.22,5.00 42.79,-32.33 45.96,-40.48 48.58,-47.18 67.19,-94.86 75.57,-114.79 76.45,-116.92 82.96,-132.66 97.57,-168.94 102.92,-184.38 104.12,-187.92 105.72,-191.94" fill="none" stroke="#bcbcbc" stroke-width="8" stroke-linecap="round" stroke-linejoin="round" /><polyline points="188.78,-215.11 191.60,-206.73 284.03,-127.78 334.47,-83.90 409.81,-18.41 416.39,-13.15 419.33,-11.31 432.40,0.56 449.86,15.45 489.46,49.21 502.25,60.21 510.74,70.36" fill="none" stroke="#bcbcbc" stroke-width="8" stroke-linecap="round" stroke-linejoin="round" /><polyline points="341.61,-351.15 346.30,-354.16 374.08,-365.70 379.79,-371.70" fill="none" stroke="#bcbcbc" stroke-width="8" stroke-linecap="round" stroke-linejoin="round" /><polyline points="373.69,351.45 335.35,340.15 265.94,319.74" fill="none" stroke="#bcbcbc" stroke-width="8" stroke-linecap="round" stroke-linejoin="round" /><polyline points="249.91,-464.16 255.15,-460.55 425.83,-422.57" fill="none" stroke="#bcbcbc" stroke-width="8" stroke-linecap="round" stroke-linejoin="round" /><polyline points="460.74,97.77 451.92,78.15 432.35,31.46 430.89,27.75 427.54,19.23 414.92,-12.88 414.13,-14.96" fill="none" stroke="#bcbcbc" stroke-width="8" stroke-linecap="round" stroke-linejoin="round" /><polyline points="198.88,-334.50 189.41,-337.20 182.44,-339.27 168.29,-343.47 161.10,-345.52 156.98,-346.67 151.60,-348.21" fill="none" stroke="#bcbcbc" stroke-width="8" stroke-linecap="round" stroke-linejoin="round" /><polyline points="-48.19,-77.73 -48.67,-79.29 -49.11,-80.39 -51.06,-85.24 -58.63,-102.88 -65.82,-120.80 -67.37,-125.03 -69.16,-129.90 -70.44,-133.89 -72.55,-139.86 -72.78,-140.49 -79.65,-157.45 -92.28,-189.31 -95.12,-190.93 -97.14,-196.10 -101.17,-210.09 -108.07,-227.44 -109.55,-231.38" fill="none" stroke="#bcbcbc" stroke-width="8" stroke-linecap="round" stroke-linejoin="round" /><polyline points="12.48,556.60 19.65,558.80 42.86,565.87 50.13,568.08" fill="none" stroke="#bcbcbc" stroke-width="8" stroke-linecap="round" stroke-linejoin="round" /><polyline points="445.83,-342.81 447.18,-348.27 446.64,-350.35 445.97,-352.86 441.74,-368.38 432.29,-401.19 427.31,-417.96 425.83,-422.57 412.66,-469.92 405.55,-495.46 398.17,-515.09 391.51,-532.81 384.87,-544.99 378.42,-551.43 328.92,-611.91 325.26,-616.21 322.84,-620.19" fill="none" stroke="#bcbcbc" stroke-width="8" stroke-linecap="round" stroke-linejoin="round" /><polyline points="243.53,-230.25 240.98,-229.27 236.26,-227.97 235.79,-227.84 216.08,-222.80 193.41,-216.41 188.78,-215.11 186.72,-214.46 181.28,-212.71 176.62,-211.41 156.30,-205.76 122.87,-196.26 110.41,-193.11 105.72,-191.94 83.44,-186.47 69.68,-182.64 40.54,-174.50 11.73,-166.38 8.40,-165.45 -15.67,-158.77 -26.78,-155.69 -32.38,-153.04 -43.00,-147.78 -64.08,-137.08 -65.55,-136.34 -70.44,-133.89 -73.43,-132.39 -77.59,-130.21 -92.40,-122.45 -119.39,-107.31 -141.93,-95.50 -145.15,-93.81 -149.46,-93.54 -152.05,-92.16 -152.56,-91.89 -177.02,-78.49 -182.14,-78.51 -188.02,-75.44 -190.07,-74.36 -191.80,-73.46 -195.89,-71.32 -199.11,-63.97 -212.95,-56.56 -217.35,-54.20 -222.11,-51.61 -241.37,-41.13 -251.33,-35.72 -256.34,-34.27" fill="none" stroke="#bcbcbc" stroke-width="8" stroke-linecap="round" stroke-linejoin="round" /><polyline points="520.67,222.37 510.40,223.31 478.30,226.25 476.85,226.39 474.81,226.57 471.49,226.88 440.37,229.74 429.55,228.73 416.94,231.89 406.84,234.37 401.47,235.68 388.10,236.19 376.54,235.60 370.64,234.98 365.63,233.46 361.93,231.42 348.17,221.69 314.73,198.72 311.58,196.58 308.37,194.40 305.97,192.08" fill="none" stroke="#bcbcbc" stroke-width="8" stroke-linecap="round" stroke-linejoin="round" /><polyline points="-236.66,-165.34 -224.52,-141.59 -222.69,-134.80 -212.47,-115.30 -208.24,-109.72 -191.16,-76.49 -190.07,-74.36" fill="none" stroke="#bcbcbc" stroke-width="8" stroke-linecap="round" stroke-linejoin="round" /><polyline points="135.16,45.89 133.34,50.88 132.83,52.43 130.46,59.62 115.45,101.49 108.00,122.29 107.75,123.00 104.76,129.46 103.04,133.30" fill="none" stroke="#bcbcbc" stroke-width="8" stroke-linecap="round" stroke-linejoin="round" /><polyline points="334.30,-321.63 332.64,-325.19 328.26,-325.76 314.11,-322.52 311.24,-322.89 308.99,-325.91 304.98,-344.32 326.67,-347.68 336.71,-350.64 341.61,-351.15 346.90,-332.35" fill="none" stroke="#bcbcbc" stroke-width="8" stroke-linecap="round" stroke-linejoin="round" /><polyline points="412.67,-118.06 418.26,-121.20 446.32,-138.10 453.81,-142.57 466.94,-150.39 488.53,-164.35 493.57,-167.97 531.44,-191.47" fill="none" stroke="#bcbcbc" stroke-width="8" stroke-linecap="round" stroke-linejoin="round" /><polyline points="545.06,-7.09 535.49,-9.95 529.92,-14.51 508.65,-32.92 507.92,-33.56 502.78,-38.15 499.76,-43.51 446.32,-138.10" fill="none" stroke="#bcbcbc" stroke-width="8" stroke-linecap="round" stroke-linejoin="round" /><polyline points="-58.05,-14.59 25.80,11.21 32.64,13.38 95.21,33.21 96.52,33.63 105.89,36.60 110.50,38.06 116.49,39.70 128.84,43.88 135.16,45.89 140.85,47.69 187.41,62.46 236.57,77.90 240.63,79.18 246.27,76.41" fill="none" stroke="#bcbcbc" stroke-width="8" stroke-linecap="round" stroke-linejoin="round" /><polyline points="188.49,-428.52 224.82,-461.89 230.96,-467.54" fill="none" stroke="#bcbcbc" stroke-width="8" stroke-linecap="round" stroke-linejoin="round" /><polyline points="-419.71,109.96 -286.44,124.25" fill="none" stroke="#bcbcbc" stroke-width="8" stroke-linecap="round" stroke-linejoin="round" /><polyline points="-17.66,-262.01 10.35,-272.02 39.24,-282.47 57.19,-289.45 112.01,-309.38 127.91,-314.88 131.24,-316.03 135.22,-317.40 139.69,-318.94 140.24,-319.13 149.27,-322.76 153.20,-324.33" fill="none" stroke="#bcbcbc" stroke-width="8" stroke-linecap="round" stroke-linejoin="round" /><polyline points="170.47,415.80 196.85,448.33 212.99,464.59 219.98,469.62 229.88,477.91 239.17,485.71 247.16,493.50 247.35,497.46" fill="none" stroke="#bcbcbc" stroke-width="8" stroke-linecap="round" stroke-linejoin="round" /><polyline points="198.88,-334.50 209.22,-360.40 225.95,-403.05 249.91,-464.16 261.76,-493.10 279.41,-536.26 293.88,-571.62 296.47,-576.31 309.19,-597.12 310.02,-598.46 314.67,-607.61 322.84,-620.19 327.40,-627.21 333.85,-637.14" fill="none" stroke="#bcbcbc" stroke-width="8" stroke-linecap="round" stroke-linejoin="round" /><polyline points="-44.95,358.11 -46.64,359.46 -47.76,361.07 -50.04,367.80 -51.61,372.65 -58.89,394.42 -59.90,397.56 -60.52,399.51 -67.20,397.60 -83.48,392.14 -99.60,386.73 -112.07,386.03" fill="none" stroke="#bcbcbc" stroke-width="8" stroke-linecap="round" stroke-linejoin="round" /><polyline points="-363.64,509.62 -337.06,440.99 -334.11,433.52 -331.45,426.32 -328.25,417.63 -324.32,403.95 -320.22,386.95 -318.54,374.77 -317.32,365.93 -315.60,359.39 -309.35,310.32 -302.04,248.40 -298.26,218.88 -294.04,184.19 -286.44,124.25 -285.23,114.05 -277.55,51.36 -277.54,47.87 -275.85,29.27 -270.94,-10.03 -269.72,-16.88 -268.43,-20.72 -266.43,-24.96 -264.48,-28.24 -260.18,-32.90 -256.33,-34.22" fill="none" stroke="#bcbcbc" stroke-width="8" stroke-linecap="round" stroke-linejoin="round" /><polyline points="216.53,-11.62 217.99,-9.32 222.86,-1.71 230.16,9.99 231.92,12.77 234.83,10.56 248.94,-0.15" fill="none" stroke="#bcbcbc" stroke-width="8" stroke-linecap="round" stroke-linejoin="round" /><polyline points="225.95,-403.05 369.54,-377.10 384.62,-369.16 440.88,-341.27 445.83,-342.81" fill="none" stroke="#bcbcbc" stroke-width="8" stroke-linecap="round" stroke-linejoin="round" /><polyline points="-48.19,-77.73 -50.74,-74.01 -73.64,-62.83 -90.47,-41.45 -108.63,-30.21 -121.04,-20.83 -132.89,-11.17 -138.96,-5.63 -149.69,7.98 -161.69,25.17 -163.66,28.36" fill="none" stroke="#bcbcbc" stroke-width="8" stroke-linecap="round" stroke-linejoin="round" /><polyline points="-23.97,-62.39 -24.96,-60.18 -27.13,-57.00 -31.24,-51.95 -55.44,-21.39 -68.24,13.09 -132.86,-11.19" fill="none" stroke="#bcbcbc" stroke-width="8" stroke-linecap="round" stroke-linejoin="round" /><polyline points="-121.04,-20.83 -123.54,-28.40 -134.36,-61.14 -138.55,-67.61 -145.58,-88.69 -146.19,-90.51 -145.15,-93.81 -146.84,-99.18 -180.62,-207.06" fill="none" stroke="#bcbcbc" stroke-width="8" stroke-linecap="round" stroke-linejoin="round" /><polyline points="274.87,-609.45 301.57,-608.74 302.82,-608.71 307.94,-608.56 314.67,-607.61" fill="none" stroke="#bcbcbc" stroke-width="8" stroke-linecap="round" stroke-linejoin="round" /><polyline points="137.52,260.37 128.40,260.26 51.20,270.63 45.63,271.21 39.27,271.88 2.32,275.78 -47.45,281.04 -73.84,283.82 -88.43,285.36 -100.29,286.80 -106.37,287.54 -113.23,288.38 -146.34,292.40 -154.28,293.36 -178.73,296.04 -309.35,310.32" fill="none" stroke="#bcbcbc" stroke-width="8" stroke-linecap="round" stroke-linejoin="round" /><polyline points="23.21,528.42 16.37,526.21 -15.57,515.93 -22.03,513.85 -27.64,512.05 -61.48,501.17 -68.15,499.03 -76.98,496.19 -130.85,478.85 -136.92,476.90" fill="none" stroke="#bcbcbc" stroke-width="8" stroke-linecap="round" stroke-linejoin="round" /><polyline points="156.79,-118.32 175.37,-112.53 243.32,-91.54 243.95,-91.35 248.99,-91.03" fill="none" stroke="#bcbcbc" stroke-width="8" stroke-linecap="round" stroke-linejoin="round" /><polyline points="347.98,-271.34 440.42,-269.71" fill="none" stroke="#bcbcbc" stroke-width="8" stroke-linecap="round" stroke-linejoin="round" /><polyline points="302.72,540.70 289.51,525.00 283.97,518.55 279.20,514.10 272.86,509.36 259.90,501.59 247.35,497.46 221.83,489.58 200.96,482.96 212.99,464.59" fill="none" stroke="#bcbcbc" stroke-width="8" stroke-linecap="round" stroke-linejoin="round" /><polyline points="170.47,415.80 152.08,393.09 148.58,388.77 130.04,363.24 125.85,355.45 126.85,346.17 132.44,346.11 146.23,348.77 167.20,352.80" fill="none" stroke="#bcbcbc" stroke-width="8" stroke-linecap="round" stroke-linejoin="round" /><polyline points="-70.22,233.85 -66.83,241.15 -47.45,281.04 -18.64,340.35 -14.96,347.91" fill="none" stroke="#bcbcbc" stroke-width="8" stroke-linecap="round" stroke-linejoin="round" /><polyline points="-380.58,414.52 -373.65,417.35 -341.19,430.62 -334.11,433.52 -326.65,436.57 -288.43,452.19 -281.52,455.02" fill="none" stroke="#bcbcbc" stroke-width="8" stroke-linecap="round" stroke-linejoin="round" /><polyline points="-54.27,174.71 13.35,204.29" fill="none" stroke="#bcbcbc" stroke-width="8" stroke-linecap="round" stroke-linejoin="round" /><polyline points="248.99,-91.03 259.29,-90.49 259.95,-89.91 264.57,-85.81 271.37,-79.74 272.62,-77.31 296.03,-56.80 297.76,-53.53 314.23,-39.00 318.37,-37.74 331.18,-26.52 334.05,-25.21 353.36,-8.83 357.66,-5.02 360.03,-1.24" fill="none" stroke="#bcbcbc" stroke-width="8" stroke-linecap="round" stroke-linejoin="round" /><polyline points="-399.67,174.78 -294.04,184.19" fill="none" stroke="#bcbcbc" stroke-width="8" stroke-linecap="round" stroke-linejoin="round" /><polyline points="-163.83,568.08 -160.55,561.11 -159.71,558.01 -155.12,541.10 -138.51,482.51 -136.92,476.90 -135.24,470.75 -127.71,443.22 -115.00,396.74 -112.07,386.03" fill="none" stroke="#bcbcbc" stroke-width="8" stroke-linecap="round" stroke-linejoin="round" /><polyline points="-70.22,233.85 -54.27,174.71 -88.08,162.88 -96.94,168.11 -100.97,171.18 -103.96,175.22 -106.07,180.56 -113.84,209.30 -107.57,212.49 -101.23,214.03 -87.22,217.68 -76.73,221.02 -70.22,233.85" fill="none" stroke="#bcbcbc" stroke-width="8" stroke-linecap="round" stroke-linejoin="round" /><polyline points="-113.84,209.30 -121.25,208.27 -294.04,184.19" fill="none" stroke="#bcbcbc" stroke-width="8" stroke-linecap="round" stroke-linejoin="round" /><polyline points="167.20,352.80 183.23,356.30 226.57,370.08 238.69,373.91 267.46,382.22 296.44,390.58 317.89,396.77 352.21,406.68 359.30,408.73 376.61,414.53 405.12,422.13 407.63,422.60" fill="none" stroke="#bcbcbc" stroke-width="8" stroke-linecap="round" stroke-linejoin="round" /><polyline points="187.53,603.20 181.68,604.66 175.36,622.28 165.55,619.50 120.97,604.31 115.60,603.16 103.67,602.31 49.68,602.52 37.78,601.01 10.90,596.90 0.06,595.14 -76.84,582.74 -106.62,577.99 -163.40,568.15 -172.57,566.33 -300.73,530.51 -308.82,528.25 -363.64,509.62 -377.13,504.83 -410.82,490.87 -430.02,483.61" fill="none" stroke="#bcbcbc" stroke-width="8" stroke-linecap="round" stroke-linejoin="round" /><polyline points="304.98,-344.32 299.43,-345.46 225.37,-336.71 198.88,-334.50" fill="none" stroke="#bcbcbc" stroke-width="8" stroke-linecap="round" stroke-linejoin="round" /><polyline points="243.53,-230.25 245.30,-230.92 247.70,-232.83 251.35,-237.09 298.64,-304.95 311.24,-322.89" fill="none" stroke="#bcbcbc" stroke-width="8" stroke-linecap="round" stroke-linejoin="round" /><polyline points="454.03,19.02 455.00,16.24 478.77,-11.73 480.52,-12.66 484.65,-18.31 498.48,-34.20 502.78,-38.15" fill="none" stroke="#bcbcbc" stroke-width="8" stroke-linecap="round" stroke-linejoin="round" /><polyline points="474.81,226.57 474.48,222.83 474.22,219.94 472.97,214.40 471.47,210.79 469.60,201.31 469.43,197.87 468.17,190.19 462.51,187.24 457.99,188.97 449.89,190.90 443.49,191.91 437.34,193.39 428.86,195.32 424.99,196.20" fill="none" stroke="#bcbcbc" stroke-width="8" stroke-linecap="round" stroke-linejoin="round" /><polyline points="-149.80,89.22 -132.51,48.69 -131.55,46.06" fill="none" stroke="#bcbcbc" stroke-width="8" stroke-linecap="round" stroke-linejoin="round" /><polyline points="305.86,14.91 314.20,11.68 318.55,9.99 321.93,6.58 335.82,3.16 340.48,4.34 350.54,1.75 358.21,-0.22 360.03,-1.24 367.47,-3.06 405.51,-12.38 414.13,-14.96" fill="none" stroke="#bcbcbc" stroke-width="8" stroke-linecap="round" stroke-linejoin="round" /><polyline points="-44.95,358.11 -27.00,351.59 -21.00,349.76 -14.96,347.91 -3.81,344.51 4.86,343.26 34.49,340.02 40.44,339.70 66.94,339.92 83.09,340.06 89.16,339.75 98.89,340.73 101.93,341.17 108.13,342.06 126.85,346.17" fill="none" stroke="#bcbcbc" stroke-width="8" stroke-linecap="round" stroke-linejoin="round" /><polyline points="40.54,-174.50 37.56,-184.54 26.53,-221.87 13.12,-264.43 10.35,-272.02 7.54,-279.14 3.98,-289.40" fill="none" stroke="#bcbcbc" stroke-width="8" stroke-linecap="round" stroke-linejoin="round" /><polyline points="8.43,427.30 10.79,419.85 34.64,344.65 34.49,340.02" fill="none" stroke="#bcbcbc" stroke-width="8" stroke-linecap="round" stroke-linejoin="round" /><polyline points="40.44,339.70 45.16,276.37 45.63,271.21 46.36,265.20 46.37,264.93 46.68,257.59 48.25,237.66 49.14,228.37 50.36,217.83 51.46,210.23 52.46,205.47 53.71,201.86 56.16,193.74 61.23,176.84 67.67,155.01 74.77,132.70 76.22,128.14 77.38,124.84" fill="none" stroke="#bcbcbc" stroke-width="8" stroke-linecap="round" stroke-linejoin="round" /><polyline points="-113.84,209.30 -115.10,214.91 -114.88,216.70 -107.19,280.76 -106.37,287.54 -106.73,294.52 -108.74,334.36 -109.58,351.01 -110.02,359.59 -110.79,374.90 -111.20,382.86 -112.07,386.03" fill="none" stroke="#bcbcbc" stroke-width="8" stroke-linecap="round" stroke-linejoin="round" /><polyline points="-149.80,89.22 -177.77,80.91 -181.33,78.63 -198.74,73.55 -203.63,73.61 -225.51,67.02 -229.04,64.41 -248.95,58.38 -273.38,51.72 -273.50,51.71 -277.55,51.36" fill="none" stroke="#bcbcbc" stroke-width="8" stroke-linecap="round" stroke-linejoin="round" /><polyline points="360.03,-1.24 361.01,0.03 365.06,6.08 372.56,17.26 379.62,24.33 393.19,39.56 390.90,53.64 389.73,58.92 388.11,61.15 391.52,66.18 396.78,77.02 407.30,97.31 412.48,107.30 415.70,116.28 417.15,120.45" fill="none" stroke="#bcbcbc" stroke-width="8" stroke-linecap="round" stroke-linejoin="round" /><polyline points="430.89,27.75 426.99,28.96 401.30,36.96 397.61,38.14 393.19,39.56" fill="none" stroke="#bcbcbc" stroke-width="8" stroke-linecap="round" stroke-linejoin="round" /><polyline points="246.27,76.41 254.30,73.81 312.62,44.04 320.42,40.22 347.91,32.28 374.56,24.79 379.62,24.33" fill="none" stroke="#bcbcbc" stroke-width="8" stroke-linecap="round" stroke-linejoin="round" /><polyline points="252.62,113.27 319.85,81.99 322.68,80.12 329.26,78.21 374.05,65.17 380.85,62.57 388.11,61.15" fill="none" stroke="#bcbcbc" stroke-width="8" stroke-linecap="round" stroke-linejoin="round" /><polyline points="238.91,-542.55 266.12,-539.19 268.85,-538.85 279.41,-536.26" fill="none" stroke="#bcbcbc" stroke-width="8" stroke-linecap="round" stroke-linejoin="round" /><polyline points="471.47,-265.89 476.29,-266.90 494.32,-258.06 496.70,-255.71 530.55,-198.42 531.44,-191.47 535.84,-187.80 535.14,-185.27 535.04,-181.14 535.65,-175.36 544.61,-138.52 545.40,-113.00 546.66,-72.25 548.77,-17.41 540.18,6.48 534.65,21.05 526.58,41.58 524.24,47.52 522.72,49.18 520.28,65.07" fill="none" stroke="#bcbcbc" stroke-width="8" stroke-linecap="round" stroke-linejoin="round" /><polyline points="534.05,161.85 525.82,158.27 505.24,143.92 478.10,124.84 463.17,112.77 453.10,101.99" fill="none" stroke="#bcbcbc" stroke-width="8" stroke-linecap="round" stroke-linejoin="round" /><polyline points="200.96,482.96 192.87,480.39 179.75,476.23 173.49,474.25 166.14,471.92 156.85,468.97 148.44,466.31 140.14,463.67 103.10,451.92 96.62,449.86 88.56,447.31 86.78,446.75 65.60,441.15 59.62,439.71 52.13,437.89 44.28,435.99 16.01,429.14 8.43,427.30 0.28,424.47 -16.74,418.56 -23.16,416.33 -28.89,414.47 -55.55,404.99 -58.90,402.99 -60.52,399.51" fill="none" stroke="#bcbcbc" stroke-width="8" stroke-linecap="round" stroke-linejoin="round" /><polyline points="322.68,80.12 320.72,73.08 314.87,52.10 312.62,44.04 309.37,38.01 309.06,36.89 307.15,29.78 309.38,26.64 306.70,17.69 305.86,14.91" fill="none" stroke="#bcbcbc" stroke-width="8" stroke-linecap="round" stroke-linejoin="round" /><polyline points="312.90,-176.61 318.46,-179.23 348.85,-195.98 366.23,-207.15 378.48,-215.51 381.18,-217.53 391.05,-224.38 401.27,-231.93 407.74,-236.64 415.45,-242.28 442.26,-254.38 445.74,-254.19 450.82,-256.60 471.47,-265.89" fill="none" stroke="#bcbcbc" stroke-width="8" stroke-linecap="round" stroke-linejoin="round" /><polyline points="-23.97,-62.39 -19.58,-60.61 -16.69,-59.72 37.66,-43.02 45.96,-40.48" fill="none" stroke="#bcbcbc" stroke-width="8" stroke-linecap="round" stroke-linejoin="round" /><polyline points="-412.18,59.83 -451.01,48.08" fill="none" stroke="#bcbcbc" stroke-width="8" stroke-linecap="round" stroke-linejoin="round" /><polyline points="215.04,-487.71 224.67,-475.52 226.10,-473.70 230.96,-467.54 236.50,-466.89 247.89,-465.56 249.91,-464.16" fill="none" stroke="#bcbcbc" stroke-width="8" stroke-linecap="round" stroke-linejoin="round" /><polyline points="549.36,54.71 534.10,57.56 518.46,66.06 503.96,74.13 490.24,80.99 473.67,89.99 461.67,97.27 437.96,109.99 345.39,156.56 321.38,167.13 305.53,173.99 297.67,176.56 291.17,177.77 280.53,178.41 265.38,176.27 227.60,167.20 173.95,154.70 103.38,133.41 77.38,124.84 34.81,111.70 -5.90,98.27 -65.62,74.84 -95.48,61.99 -131.48,45.99 -191.19,13.28 -205.19,3.99 -240.62,-18.29 -255.48,-33.15 -277.76,-62.00 -314.48,-99.86 -328.91,-112.57" fill="none" stroke="#bcbcbc" stroke-width="8" stroke-linecap="round" stroke-linejoin="round" /><polyline points="259.90,501.59 260.52,498.10 262.78,492.40 283.96,442.85 291.96,424.28 301.38,401.13 303.68,392.66" fill="none" stroke="#bcbcbc" stroke-width="8" stroke-linecap="round" stroke-linejoin="round" /><polyline points="-146.34,292.40 -170.40,280.76 -225.13,254.27 -292.27,221.78 -298.26,218.88" fill="none" stroke="#bcbcbc" stroke-width="8" stroke-linecap="round" stroke-linejoin="round" /><polyline points="248.99,-91.03 255.07,-97.25 271.22,-113.78 284.03,-127.78" fill="none" stroke="#bcbcbc" stroke-width="8" stroke-linecap="round" stroke-linejoin="round" /><polyline points="-217.35,-54.20 -224.02,-63.04 -255.29,-104.43 -299.93,-140.55" fill="none" stroke="#bcbcbc" stroke-width="8" stroke-linecap="round" stroke-linejoin="round" /><polyline points="-411.06,490.77 -404.95,476.30 -385.55,427.91 -383.19,421.56 -380.58,414.52 -379.59,411.98 -379.33,408.00 -376.85,370.38 -376.13,359.59" fill="none" stroke="#bcbcbc" stroke-width="8" stroke-linecap="round" stroke-linejoin="round" /><polyline points="-424.30,101.85 -412.18,59.83 -396.20,4.41 -394.22,-2.45 -392.02,-10.25 -387.09,-27.70 -386.57,-29.53 -385.16,-35.14 -382.91,-41.48 -382.37,-43.02 -379.53,-50.06 -373.95,-62.36 -372.28,-65.90" fill="none" stroke="#bcbcbc" stroke-width="8" stroke-linecap="round" stroke-linejoin="round" /><polyline points="-394.22,-2.45 -369.70,3.82 -317.77,17.16 -288.19,26.38 -275.85,29.27" fill="none" stroke="#bcbcbc" stroke-width="8" stroke-linecap="round" stroke-linejoin="round" /><polyline points="110.41,-193.11 111.24,-198.21 112.08,-203.51 115.68,-221.23 124.66,-262.47 132.04,-299.36 133.39,-307.01 135.22,-317.40 135.22,-317.41" fill="none" stroke="#bcbcbc" stroke-width="8" stroke-linecap="round" stroke-linejoin="round" /><polyline points="37.82,601.02 48.77,573.10 50.13,568.08 93.57,457.82 96.62,449.86 99.09,443.12 125.04,367.60 130.04,363.24" fill="none" stroke="#bcbcbc" stroke-width="8" stroke-linecap="round" stroke-linejoin="round" /><polyline points="186.72,-214.46 186.72,-214.47 185.18,-222.54 184.94,-223.52 181.19,-238.78 181.19,-238.83 178.63,-249.18 167.79,-286.32 166.43,-290.30 159.10,-310.20 156.73,-316.14 155.19,-319.98 153.20,-324.33 153.20,-324.33 153.19,-324.35 151.74,-340.35 151.60,-348.21" fill="none" stroke="#bcbcbc" stroke-width="8" stroke-linecap="round" stroke-linejoin="round" /><polyline points="170.47,415.80 167.69,418.81 163.53,423.76 151.83,456.75 148.44,466.31" fill="none" stroke="#bcbcbc" stroke-width="8" stroke-linecap="round" stroke-linejoin="round" /><polyline points="-23.97,-62.39 -22.37,-66.72 -22.01,-67.72 -14.41,-88.95 -11.56,-97.89 11.73,-166.38" fill="none" stroke="#bcbcbc" stroke-width="8" stroke-linecap="round" stroke-linejoin="round" /><polyline points="96.52,33.63 98.90,27.31 105.33,10.22 108.05,2.99 109.90,-1.90 115.06,-15.62 118.47,-24.68 118.93,-25.90 127.20,-47.86 130.65,-46.78 132.53,-51.88 135.84,-60.90 135.20,-65.00 144.00,-88.93 144.90,-91.39 146.57,-92.92 147.97,-94.21 156.79,-118.32 158.06,-124.91 170.71,-160.06 173.71,-162.40 179.79,-179.62 178.71,-182.27 184.04,-198.35 181.28,-212.71" fill="none" stroke="#bcbcbc" stroke-width="8" stroke-linecap="round" stroke-linejoin="round" /><polyline points="322.84,-620.19 319.29,-626.01 300.66,-656.56" fill="none" stroke="#bcbcbc" stroke-width="8" stroke-linecap="round" stroke-linejoin="round" /><polyline points="381.18,-217.53 466.67,-162.56 466.70,-162.52 466.70,-162.51 482.51,-160.46" fill="none" stroke="#bcbcbc" stroke-width="8" stroke-linecap="round" stroke-linejoin="round" /><polyline points="346.90,-332.35 437.86,-286.70 440.60,-284.65 440.42,-269.71 442.26,-254.38" fill="none" stroke="#bcbcbc" stroke-width="8" stroke-linecap="round" stroke-linejoin="round" /><polyline points="173.49,474.25 170.22,484.23 156.97,524.64 134.43,592.71 132.83,597.54 131.21,602.43 130.75,607.64" fill="none" stroke="#bcbcbc" stroke-width="8" stroke-linecap="round" stroke-linejoin="round" /><polyline points="429.55,228.73 430.09,223.66 430.21,218.93 430.17,218.77 426.95,204.83 425.62,199.01 424.99,196.20 424.34,193.33 420.80,177.75 413.89,146.60 408.86,127.88 408.15,124.98" fill="none" stroke="#bcbcbc" stroke-width="8" stroke-linecap="round" stroke-linejoin="round" /><polyline points="-22.03,513.85 -19.77,507.45 5.55,435.47 8.43,427.30" fill="none" stroke="#bcbcbc" stroke-width="8" stroke-linecap="round" stroke-linejoin="round" /><polyline points="546.66,-72.25 539.21,-74.36 488.60,-152.01 482.51,-160.46" fill="none" stroke="#bcbcbc" stroke-width="8" stroke-linecap="round" stroke-linejoin="round" /><polyline points="-285.23,114.05 -100.80,158.24 -88.08,162.88" fill="none" stroke="#bcbcbc" stroke-width="8" stroke-linecap="round" stroke-linejoin="round" /><polyline points="296.47,-576.31 368.31,-549.70 378.42,-551.43" fill="none" stroke="#bcbcbc" stroke-width="8" stroke-linecap="round" stroke-linejoin="round" />
    <polyline points="167.20,352.80 169.80,348.46 185.34,308.54 202.71,248.18 207.14,235.18 209.51,231.64 226.27,177.83 227.11,171.40 227.74,167.20" fill="none" stroke="#ffffff" stroke-width="16" stroke-linecap="round" stroke-linejoin="round" />
    <polyline points="167.20,352.80 169.80,348.46 185.34,308.54 202.71,248.18 207.14,235.18 209.51,231.64 226.27,177.83 227.11,171.40 227.74,167.20" fill="none" stroke="#111111" stroke-width="9" stroke-linecap="round" stroke-linejoin="round" />
    
            <g transform="translate(167.20,352.80)">
              <circle r="19" fill="#ffffff" stroke="#111111" stroke-width="4" />
              <text text-anchor="middle" dominant-baseline="central" font-family="Helvetica, Arial, sans-serif"
                font-size="18" font-weight="700" fill="#111111">1</text>
            </g>
            
            <g transform="translate(227.74,167.20)">
              <circle r="19" fill="#ffffff" stroke="#111111" stroke-width="4" />
              <text text-anchor="middle" dominant-baseline="central" font-family="Helvetica, Arial, sans-serif"
                font-size="18" font-weight="700" fill="#111111">2</text>
            </g>
            
  </g>
</svg>
