<svg xmlns="http://www.w3.org/2000/svg" width="520" height="520" viewBox="0 0 520 520">
  <rect width="100%" height="100%" fill="#ffffff" />
  <g>
    <polyline points="623.75,281.39 627.18,299.58 649.25,454.00 645.87,492.60" fill="none" stroke="#bcbcbc" stroke-width="8" stroke-linecap="round" stroke-linejoin="round" /><polyline points="175.13,1568.19 180.47,1551.78 208.74,1464.82 212.07,1454.57 215.44,1443.81 286.54,1217.08 292.26,1198.85 279.16,1166.59" fill="none" stroke="#bcbcbc" stroke-width="8" stroke-linecap="round" stroke-linejoin="round" /><polyline points="-315.95,1366.52 -317.10,1353.50 -293.86,1223.31 -290.60,1207.03 -288.16,1198.50 -281.77,1165.48 -274.58,1125.07 -266.74,1089.48 -258.97,1053.97 -254.08,1043.96 -250.88,1037.82" fill="none" stroke="#bcbcbc" stroke-width="8" stroke-linecap="round" stroke-linejoin="round" /><polyline points="-181.04,448.18 -186.56,431.32 -243.68,257.10 -246.47,249.80" fill="none" stroke="#bcbcbc" stroke-width="8" stroke-linecap="round" stroke-linejoin="round" /><polyline points="-474.13,1981.51 -472.42,1964.88 -471.73,1957.26 -465.51,1888.47 -458.71,1827.90 -457.12,1813.76 -455.64,1796.79 -455.48,1795.36 -451.62,1761.63 -448.29,1727.34 -444.62,1694.25 -442.16,1668.48 -441.13,1652.59 -440.22,1637.90 -438.60,1621.36" fill="none" stroke="#bcbcbc" stroke-width="8" stroke-linecap="round" stroke-linejoin="round" /><polyline points="315.12,1608.61 319.19,1595.82 347.85,1505.71 351.11,1495.47 355.73,1480.89 359.05,1470.43 384.42,1361.01" fill="none" stroke="#bcbcbc" stroke-width="8" stroke-linecap="round" stroke-linejoin="round" /><polyline points="203.70,-173.78 214.29,-172.15 505.96,-127.33" fill="none" stroke="#bcbcbc" stroke-width="8" stroke-linecap="round" stroke-linejoin="round" /><polyline points="-545.08,1587.38 -575.44,1585.97 -593.95,1585.10 -604.01,1584.64 -612.83,1584.23 -681.58,1581.03 -777.20,1576.58 -822.78,1570.12 -838.03,1567.95 -851.27,1565.62 -940.91,1549.80 -953.44,1547.58 -956.22,1547.11 -971.70,1544.45 -983.59,1542.42 -1059.55,1535.70 -1074.02,1534.42 -1079.32,1533.95 -1095.75,1532.81 -1127.90,1530.59" fill="none" stroke="#bcbcbc" stroke-width="8" stroke-linecap="round" stroke-linejoin="round" /><polyline points="-104.03,1499.29 -98.14,1482.56 -45.15,1335.66 18.59,1150.37 22.68,1138.75 25.52,1130.63 27.83,1123.96" fill="none" stroke="#bcbcbc" stroke-width="8" stroke-linecap="round" stroke-linejoin="round" /><polyline points="-1079.32,1533.95 -1080.68,1524.51 -1081.00,1514.25 -1078.99,1493.59 -1074.37,1455.87 -1071.29,1443.21 -1066.30,1397.44 -1065.39,1387.24 -1063.93,1374.13 -1062.84,1364.40 -1060.79,1353.37 -1057.00,1323.68 -1054.36,1300.97 -1050.49,1291.67" fill="none" stroke="#bcbcbc" stroke-width="8" stroke-linecap="round" stroke-linejoin="round" /><polyline points="-1133.56,1280.07 -1062.88,1289.94 -1050.49,1291.67 -1042.82,1292.90 -1011.13,1297.95 -938.14,1309.58 -925.61,1311.67" fill="none" stroke="#bcbcbc" stroke-width="8" stroke-linecap="round" stroke-linejoin="round" /><polyline points="167.20,352.80 167.66,359.22 168.61,365.73 170.90,370.71 175.20,376.27 183.15,383.51 201.99,394.97 347.31,486.14 436.81,606.15 504.41,773.00 508.82,784.02" fill="none" stroke="#bcbcbc" stroke-width="8" stroke-linecap="round" stroke-linejoin="round" /><polyline points="143.93,839.64 146.94,844.63 147.72,845.92 150.22,858.51 167.27,940.96 172.68,967.13 176.55,985.77 182.59,1023.55 185.41,1040.97 187.35,1051.60 189.48,1061.20 192.03,1066.81 195.76,1073.29 197.75,1076.35 235.51,1130.41 255.94,1162.57 261.26,1170.26" fill="none" stroke="#bcbcbc" stroke-width="8" stroke-linecap="round" stroke-linejoin="round" /><polyline points="-940.05,1872.05 -938.04,1859.67 -936.17,1850.73 -935.67,1849.54 -910.54,1789.78 -894.53,1750.94 -889.66,1738.63 -884.51,1725.60 -878.91,1714.39 -878.00,1712.20 -870.34,1693.68 -864.42,1677.28 -859.33,1662.25 -856.11,1651.62 -852.49,1638.49 -848.32,1620.88 -845.16,1606.60 -841.38,1586.66 -840.58,1582.21 -838.03,1567.95" fill="none" stroke="#bcbcbc" stroke-width="8" stroke-linecap="round" stroke-linejoin="round" /><polyline points="277.58,203.15 357.72,259.15 368.51,261.45 376.42,270.48" fill="none" stroke="#bcbcbc" stroke-width="8" stroke-linecap="round" stroke-linejoin="round" /><polyline points="-58.90,720.33 -48.31,724.40 -2.33,739.44 104.32,780.35 110.31,786.31 113.12,790.77" fill="none" stroke="#bcbcbc" stroke-width="8" stroke-linecap="round" stroke-linejoin="round" /><polyline points="139.84,1771.44 147.11,1752.51 182.96,1655.23 208.32,1581.72 213.57,1579.30" fill="none" stroke="#bcbcbc" stroke-width="8" stroke-linecap="round" stroke-linejoin="round" /><polyline points="-366.99,1648.08 -361.33,1635.58 -360.77,1634.34 -351.09,1601.86 -335.24,1548.41 -331.18,1534.73 -328.02,1524.10 -327.60,1517.91 -328.24,1504.21" fill="none" stroke="#bcbcbc" stroke-width="8" stroke-linecap="round" stroke-linejoin="round" /><polyline points="292.05,843.91 282.96,845.79 262.36,842.12 259.17,833.62 223.47,820.01 215.03,822.22 182.83,810.40 178.03,813.75" fill="none" stroke="#bcbcbc" stroke-width="8" stroke-linecap="round" stroke-linejoin="round" /><polyline points="239.05,-260.25 255.22,-256.28 264.17,-254.73 476.94,-217.84" fill="none" stroke="#bcbcbc" stroke-width="8" stroke-linecap="round" stroke-linejoin="round" /><polyline points="73.68,1712.20 82.53,1687.24 99.73,1638.74 110.85,1618.09 126.84,1573.30 133.23,1555.43" fill="none" stroke="#bcbcbc" stroke-width="8" stroke-linecap="round" stroke-linejoin="round" /><polyline points="-1092.11,743.65 -1107.52,742.95 -1111.38,747.64 -1138.23,780.26 -1232.08,888.68 -1245.28,903.93" fill="none" stroke="#bcbcbc" stroke-width="8" stroke-linecap="round" stroke-linejoin="round" /><polyline points="-268.93,836.51 -275.73,851.57 -276.55,853.40 -300.19,915.03 -324.01,982.88 -330.36,1000.98 -333.97,1010.32" fill="none" stroke="#bcbcbc" stroke-width="8" stroke-linecap="round" stroke-linejoin="round" /><polyline points="77.76,143.95 85.27,154.14 90.63,168.14 98.97,188.25 112.36,219.88 124.22,248.27 137.83,279.44 147.93,303.46 149.43,306.91 149.52,307.13 157.65,326.13 160.07,331.53 162.39,336.67 164.83,341.48 166.67,346.38 167.20,352.80" fill="none" stroke="#bcbcbc" stroke-width="8" stroke-linecap="round" stroke-linejoin="round" /><polyline points="-497.05,1140.35 -493.12,1138.20 -487.62,1133.83 -484.87,1128.16 -448.35,989.69 -447.25,981.88 -442.80,967.62" fill="none" stroke="#bcbcbc" stroke-width="8" stroke-linecap="round" stroke-linejoin="round" /><polyline points="779.77,923.66 784.95,940.10 788.60,957.37 781.50,1023.19 773.30,1072.69 768.82,1089.58 768.41,1091.11 764.49,1100.22 759.14,1109.89 746.65,1125.69 752.69,1156.59 733.13,1222.90 722.32,1259.53 700.21,1319.48 667.84,1392.47 628.31,1462.42 615.97,1485.15 593.65,1522.50 504.48,1649.07 484.95,1675.39 409.29,1774.27 365.86,1823.69 305.10,1885.44 299.48,1886.02 285.76,1897.24" fill="none" stroke="#bcbcbc" stroke-width="8" stroke-linecap="round" stroke-linejoin="round" /><polyline points="-320.50,2006.29 -295.61,1929.09 -291.53,1916.34 -286.00,1908.31 -274.11,1872.62 -270.24,1860.50 -221.14,1706.74 -216.20,1691.28 -212.13,1677.69 -154.18,1495.29" fill="none" stroke="#bcbcbc" stroke-width="8" stroke-linecap="round" stroke-linejoin="round" /><polyline points="262.61,570.51 284.13,546.99 290.48,539.34 333.95,477.76" fill="none" stroke="#bcbcbc" stroke-width="8" stroke-linecap="round" stroke-linejoin="round" /><polyline points="-167.47,579.82 -108.22,600.45 -104.94,605.77 -88.12,611.42 -78.13,614.83 -30.37,630.97" fill="none" stroke="#bcbcbc" stroke-width="8" stroke-linecap="round" stroke-linejoin="round" /><polyline points="349.01,169.74 376.42,270.48 408.15,389.17 412.96,399.06 413.72,410.35 435.24,450.53 493.30,558.81 505.99,577.54 509.67,583.02 596.42,745.22 636.29,781.47 641.88,788.69 649.77,795.43 725.47,860.17 730.61,864.56 744.20,871.78" fill="none" stroke="#bcbcbc" stroke-width="8" stroke-linecap="round" stroke-linejoin="round" /><polyline points="54.60,2022.68 243.39,1913.00 277.00,1895.82 285.76,1897.24" fill="none" stroke="#bcbcbc" stroke-width="8" stroke-linecap="round" stroke-linejoin="round" /><polyline points="259.29,1865.78 271.00,1851.85 376.17,1642.01 383.13,1628.25 388.95,1614.63 422.92,1530.62 433.03,1505.31 462.31,1416.70 481.29,1302.78 483.54,1286.19" fill="none" stroke="#bcbcbc" stroke-width="8" stroke-linecap="round" stroke-linejoin="round" /><polyline points="178.13,631.68 176.29,633.57 173.76,642.40 173.51,643.28 162.10,687.23 165.09,698.70 162.60,708.98 159.34,722.45 150.99,732.12 141.51,770.51 130.35,778.95 118.43,787.12 113.12,790.77" fill="none" stroke="#bcbcbc" stroke-width="8" stroke-linecap="round" stroke-linejoin="round" /><polyline points="-268.93,836.51 -264.08,824.07 -234.90,749.28 -228.54,732.97 -223.30,719.53 -186.02,624.02 -169.24,584.09 -167.47,579.82 -154.43,548.29 -125.16,475.62 -114.45,444.68 -112.06,437.59 -108.86,429.54" fill="none" stroke="#bcbcbc" stroke-width="8" stroke-linecap="round" stroke-linejoin="round" /><polyline points="57.53,383.12 63.17,399.91 248.32,558.07 349.36,645.98 500.26,777.17 513.43,787.71 519.33,791.39 545.51,815.17 580.48,845.00 659.80,912.63 685.42,934.66 702.42,955.00" fill="none" stroke="#bcbcbc" stroke-width="8" stroke-linecap="round" stroke-linejoin="round" /><polyline points="363.66,110.59 373.05,104.57 428.68,81.45 440.12,69.42" fill="none" stroke="#bcbcbc" stroke-width="8" stroke-linecap="round" stroke-linejoin="round" /><polyline points="427.92,1518.11 351.11,1495.47 212.07,1454.57" fill="none" stroke="#bcbcbc" stroke-width="8" stroke-linecap="round" stroke-linejoin="round" /><polyline points="179.98,-115.79 190.47,-108.56 532.35,-32.48" fill="none" stroke="#bcbcbc" stroke-width="8" stroke-linecap="round" stroke-linejoin="round" /><polyline points="602.28,1009.92 584.61,970.60 545.40,877.08 542.47,869.64 535.77,852.57 510.49,788.25 508.90,784.08" fill="none" stroke="#bcbcbc" stroke-width="8" stroke-linecap="round" stroke-linejoin="round" /><polyline points="77.76,143.95 58.78,138.55 44.83,134.39 16.48,125.97 2.08,121.87 -6.17,119.57 -16.94,116.49" fill="none" stroke="#bcbcbc" stroke-width="8" stroke-linecap="round" stroke-linejoin="round" /><polyline points="-417.13,658.34 -418.09,655.20 -418.98,653.00 -422.89,643.28 -438.04,607.95 -452.45,572.05 -455.56,563.58 -459.14,553.82 -461.70,545.83 -465.94,533.86 -466.38,532.60 -480.16,498.64 -505.46,434.80 -511.14,431.56 -515.18,421.21 -523.25,393.17 -537.07,358.43 -540.05,350.53" fill="none" stroke="#bcbcbc" stroke-width="8" stroke-linecap="round" stroke-linejoin="round" /><polyline points="-295.61,1929.09 -281.24,1933.49 -234.76,1947.65 -220.20,1952.09" fill="none" stroke="#bcbcbc" stroke-width="8" stroke-linecap="round" stroke-linejoin="round" /><polyline points="572.41,127.31 575.12,116.36 574.02,112.19 572.69,107.18 564.21,76.08 545.29,10.35 535.30,-23.25 532.35,-32.48 505.96,-127.33 491.72,-178.49 476.94,-217.84 463.59,-253.32 450.30,-277.73 437.39,-290.62 338.24,-411.78 330.90,-420.41 326.04,-428.38" fill="none" stroke="#bcbcbc" stroke-width="8" stroke-linecap="round" stroke-linejoin="round" /><polyline points="167.20,352.80 162.09,354.75 152.63,357.36 151.69,357.62 112.20,367.72 66.80,380.51 57.53,383.12 53.40,384.43 42.50,387.94 33.17,390.53 -7.54,401.86 -74.50,420.88 -99.46,427.19 -108.86,429.54 -153.48,440.50 -181.04,448.18 -239.41,464.48 -297.11,480.75 -303.78,482.60 -352.00,495.98 -374.24,502.16 -385.47,507.46 -406.73,518.01 -448.96,539.44 -451.90,540.93 -461.70,545.83 -467.68,548.83 -476.03,553.20 -505.69,568.76 -559.74,599.09 -604.89,622.74 -611.35,626.13 -619.98,626.66 -625.17,629.42 -626.20,629.97 -675.18,656.81 -685.44,656.77 -697.22,662.93 -701.33,665.08 -704.80,666.89 -712.98,671.18 -719.44,685.90 -747.16,700.75 -755.97,705.47 -765.51,710.66 -804.08,731.65 -824.02,742.50 -834.07,745.40" fill="none" stroke="#bcbcbc" stroke-width="8" stroke-linecap="round" stroke-linejoin="round" /><polyline points="722.32,1259.53 701.74,1261.41 637.44,1267.30 634.54,1267.57 630.44,1267.95 623.81,1268.56 561.47,1274.28 539.79,1272.27 514.54,1278.60 494.32,1283.55 483.54,1286.19 456.78,1287.21 433.61,1286.03 421.80,1284.78 411.75,1281.74 404.35,1277.64 376.79,1258.15 309.81,1212.15 303.50,1207.86 297.07,1203.50 292.26,1198.85" fill="none" stroke="#bcbcbc" stroke-width="8" stroke-linecap="round" stroke-linejoin="round" /><polyline points="-794.64,482.83 -770.34,530.41 -766.66,544.01 -746.18,583.07 -737.73,594.25 -703.51,660.83 -701.33,665.08" fill="none" stroke="#bcbcbc" stroke-width="8" stroke-linecap="round" stroke-linejoin="round" /><polyline points="-49.88,905.97 -53.52,915.98 -54.54,919.08 -59.28,933.48 -89.35,1017.37 -104.28,1059.03 -104.78,1060.45 -110.78,1073.40 -114.22,1081.09" fill="none" stroke="#bcbcbc" stroke-width="8" stroke-linecap="round" stroke-linejoin="round" /><polyline points="349.01,169.74 345.68,162.60 336.91,161.45 308.57,167.95 302.82,167.20 298.30,161.15 290.28,124.27 333.72,117.55 353.83,111.61 363.66,110.59 374.25,148.25" fill="none" stroke="#bcbcbc" stroke-width="8" stroke-linecap="round" stroke-linejoin="round" /><polyline points="505.99,577.54 517.18,571.26 573.38,537.39 588.39,528.45 614.68,512.77 657.93,484.80 668.02,477.55 743.89,430.48" fill="none" stroke="#bcbcbc" stroke-width="8" stroke-linecap="round" stroke-linejoin="round" /><polyline points="771.17,799.84 751.99,794.13 740.84,784.98 698.23,748.11 696.78,746.81 686.48,737.62 680.42,726.88 573.38,537.39" fill="none" stroke="#bcbcbc" stroke-width="8" stroke-linecap="round" stroke-linejoin="round" /><polyline points="-436.88,784.83 -268.93,836.51 -255.22,840.85 -129.89,880.59 -127.27,881.42 -108.50,887.37 -99.27,890.30 -87.27,893.58 -62.53,901.96 -49.88,905.97 -38.49,909.58 54.78,939.17 153.25,970.11 161.39,972.67 172.68,967.13" fill="none" stroke="#bcbcbc" stroke-width="8" stroke-linecap="round" stroke-linejoin="round" /><polyline points="56.95,-44.41 129.71,-111.26 142.02,-122.58" fill="none" stroke="#bcbcbc" stroke-width="8" stroke-linecap="round" stroke-linejoin="round" /><polyline points="-1161.31,1034.34 -894.36,1062.95" fill="none" stroke="#bcbcbc" stroke-width="8" stroke-linecap="round" stroke-linejoin="round" /><polyline points="-355.99,289.18 -299.88,269.11 -242.01,248.18 -206.05,234.20 -96.26,194.27 -64.39,183.25 -57.74,180.95 -49.76,178.20 -40.80,175.12 -39.70,174.74 -21.61,167.47 -13.75,164.31" fill="none" stroke="#bcbcbc" stroke-width="8" stroke-linecap="round" stroke-linejoin="round" /><polyline points="20.86,1647.03 73.68,1712.20 106.02,1744.76 120.02,1754.84 139.84,1771.44 158.46,1787.07 174.45,1802.68 174.85,1810.61" fill="none" stroke="#bcbcbc" stroke-width="8" stroke-linecap="round" stroke-linejoin="round" /><polyline points="77.76,143.95 98.46,92.05 131.97,6.62 179.98,-115.79 203.70,-173.78 239.05,-260.25 268.04,-331.07 273.23,-340.47 298.72,-382.15 300.36,-384.84 309.69,-403.18 326.04,-428.38 335.18,-442.43 348.10,-462.32" fill="none" stroke="#bcbcbc" stroke-width="8" stroke-linecap="round" stroke-linejoin="round" /><polyline points="-410.64,1531.45 -414.03,1534.16 -416.27,1537.39 -420.84,1550.86 -423.99,1560.58 -438.58,1604.20 -440.58,1610.49 -441.83,1614.39 -455.22,1610.55 -487.82,1599.62 -520.12,1588.79 -545.08,1587.38" fill="none" stroke="#bcbcbc" stroke-width="8" stroke-linecap="round" stroke-linejoin="round" /><polyline points="-1048.99,1834.97 -995.76,1697.49 -989.84,1682.52 -984.52,1668.10 -978.10,1650.69 -970.23,1623.28 -962.02,1589.23 -958.66,1564.83 -956.22,1547.11 -952.77,1534.02 -940.24,1435.72 -925.61,1311.67 -918.04,1252.53 -909.59,1183.05 -894.36,1062.95 -891.94,1042.53 -876.55,916.94 -876.54,909.94 -873.14,872.68 -863.32,793.96 -860.86,780.23 -858.29,772.53 -854.28,764.05 -850.38,757.47 -841.76,748.14 -834.06,745.50" fill="none" stroke="#bcbcbc" stroke-width="8" stroke-linecap="round" stroke-linejoin="round" /><polyline points="113.12,790.77 116.03,795.39 125.79,810.62 140.41,834.05 143.93,839.64 149.76,835.21 178.03,813.75" fill="none" stroke="#bcbcbc" stroke-width="8" stroke-linecap="round" stroke-linejoin="round" /><polyline points="131.97,6.61 419.59,58.62 449.80,74.51 562.49,130.38 572.41,127.31" fill="none" stroke="#bcbcbc" stroke-width="8" stroke-linecap="round" stroke-linejoin="round" /><polyline points="-417.13,658.34 -422.23,665.79 -468.12,688.18 -501.82,731.02 -538.19,753.54 -563.06,772.32 -586.79,791.68 -598.96,802.77 -620.44,830.03 -644.47,864.47 -648.43,870.86" fill="none" stroke="#bcbcbc" stroke-width="8" stroke-linecap="round" stroke-linejoin="round" /><polyline points="-368.62,689.07 -370.61,693.50 -374.96,699.86 -383.18,709.97 -431.65,771.21 -457.30,840.28 -586.73,791.62" fill="none" stroke="#bcbcbc" stroke-width="8" stroke-linecap="round" stroke-linejoin="round" /><polyline points="-563.06,772.32 -568.07,757.15 -589.73,691.56 -598.14,678.61 -612.21,636.38 -613.43,632.73 -611.35,626.13 -614.73,615.36 -682.41,399.25" fill="none" stroke="#bcbcbc" stroke-width="8" stroke-linecap="round" stroke-linejoin="round" /><polyline points="229.97,-406.86 283.46,-405.45 285.95,-405.37 296.20,-405.08 309.69,-403.18" fill="none" stroke="#bcbcbc" stroke-width="8" stroke-linecap="round" stroke-linejoin="round" /><polyline points="-45.15,1335.66 -63.41,1335.43 -218.06,1356.19 -229.20,1357.37 -241.95,1358.71 -315.95,1366.52 -415.65,1377.06 -468.51,1382.63 -497.75,1385.71 -521.48,1388.60 -533.68,1390.08 -547.41,1391.75 -613.74,1399.81 -629.63,1401.75 -678.62,1407.10 -940.24,1435.72" fill="none" stroke="#bcbcbc" stroke-width="8" stroke-linecap="round" stroke-linejoin="round" /><polyline points="-274.11,1872.62 -287.81,1868.22 -351.80,1847.62 -364.73,1843.45 -375.96,1839.84 -443.75,1818.05 -457.12,1813.76 -474.80,1808.06 -582.71,1773.34 -594.86,1769.43" fill="none" stroke="#bcbcbc" stroke-width="8" stroke-linecap="round" stroke-linejoin="round" /><polyline points="-6.56,577.03 30.66,588.63 166.77,630.66 168.04,631.05 178.13,631.68" fill="none" stroke="#bcbcbc" stroke-width="8" stroke-linecap="round" stroke-linejoin="round" /><polyline points="376.42,270.48 561.57,273.74" fill="none" stroke="#bcbcbc" stroke-width="8" stroke-linecap="round" stroke-linejoin="round" /><polyline points="285.76,1897.24 259.29,1865.78 248.19,1852.86 238.64,1843.94 225.94,1834.46 199.97,1818.88 174.85,1810.61 123.73,1794.82 81.92,1781.55 106.02,1744.76" fill="none" stroke="#bcbcbc" stroke-width="8" stroke-linecap="round" stroke-linejoin="round" /><polyline points="20.86,1647.03 -16.00,1601.53 -23.01,1592.88 -60.13,1541.74 -68.53,1526.12 -66.51,1507.53 -55.32,1507.42 -27.71,1512.73 14.30,1520.81" fill="none" stroke="#bcbcbc" stroke-width="8" stroke-linecap="round" stroke-linejoin="round" /><polyline points="-461.26,1282.52 -454.47,1297.15 -415.65,1377.06 -357.94,1495.87 -350.58,1511.03" fill="none" stroke="#bcbcbc" stroke-width="8" stroke-linecap="round" stroke-linejoin="round" /><polyline points="-1082.93,1644.46 -1069.05,1650.13 -1004.03,1676.72 -989.84,1682.52 -974.90,1688.63 -898.35,1719.93 -884.51,1725.60" fill="none" stroke="#bcbcbc" stroke-width="8" stroke-linecap="round" stroke-linejoin="round" /><polyline points="-429.32,1164.04 -293.86,1223.31" fill="none" stroke="#bcbcbc" stroke-width="8" stroke-linecap="round" stroke-linejoin="round" /><polyline points="178.13,631.68 198.77,632.77 200.08,633.94 209.34,642.15 222.95,654.30 225.46,659.18 272.36,700.26 275.83,706.81 308.80,735.91 317.10,738.45 342.76,760.91 348.50,763.54 387.19,796.36 395.80,804.00 400.55,811.56" fill="none" stroke="#bcbcbc" stroke-width="8" stroke-linecap="round" stroke-linejoin="round" /><polyline points="-1121.17,1164.18 -909.59,1183.05" fill="none" stroke="#bcbcbc" stroke-width="8" stroke-linecap="round" stroke-linejoin="round" /><polyline points="-648.76,1952.08 -642.20,1938.12 -640.52,1931.91 -631.33,1898.03 -598.05,1780.66 -594.86,1769.43 -591.49,1757.10 -576.41,1701.96 -550.95,1608.84 -545.08,1587.38" fill="none" stroke="#bcbcbc" stroke-width="8" stroke-linecap="round" stroke-linejoin="round" /><polyline points="-461.26,1282.52 -429.32,1164.04 -497.05,1140.35 -514.78,1150.82 -522.86,1156.97 -528.85,1165.07 -533.06,1175.76 -548.64,1233.34 -536.07,1239.73 -523.38,1242.82 -495.30,1250.12 -474.30,1256.81 -461.26,1282.52" fill="none" stroke="#bcbcbc" stroke-width="8" stroke-linecap="round" stroke-linejoin="round" /><polyline points="-548.64,1233.34 -563.47,1231.27 -909.59,1183.05" fill="none" stroke="#bcbcbc" stroke-width="8" stroke-linecap="round" stroke-linejoin="round" /><polyline points="14.30,1520.81 46.40,1527.83 133.23,1555.43 157.50,1563.10 215.13,1579.75 273.17,1596.49 316.15,1608.91 384.88,1628.75 399.07,1632.86 433.76,1644.48 490.86,1659.70 495.90,1660.64" fill="none" stroke="#bcbcbc" stroke-width="8" stroke-linecap="round" stroke-linejoin="round" /><polyline points="55.02,2022.43 43.31,2025.37 30.64,2060.67 11.00,2055.09 -78.30,2024.66 -89.05,2022.36 -112.96,2020.65 -221.10,2021.08 -244.94,2018.05 -298.78,2009.81 -320.50,2006.29 -474.52,1981.45 -534.16,1971.93 -647.91,1952.22 -666.28,1948.58 -922.98,1876.83 -939.18,1872.29 -1048.99,1834.97 -1076.01,1825.38 -1143.49,1797.41 -1181.96,1782.86" fill="none" stroke="#bcbcbc" stroke-width="8" stroke-linecap="round" stroke-linejoin="round" /><polyline points="290.28,124.27 279.17,121.98 130.81,139.53 77.76,143.95" fill="none" stroke="#bcbcbc" stroke-width="8" stroke-linecap="round" stroke-linejoin="round" /><polyline points="14.30,1520.81 19.50,1512.11 50.63,1432.15 85.42,1311.23 94.29,1285.19 99.04,1278.10 132.63,1170.29 134.29,1157.41 135.57,1149.00" fill="none" stroke="#bcbcbc" stroke-width="8" stroke-linecap="round" stroke-linejoin="round" /><polyline points="588.83,852.16 590.77,846.58 638.39,790.55 641.88,788.69 650.16,777.37 677.86,745.55 686.48,737.62" fill="none" stroke="#bcbcbc" stroke-width="8" stroke-linecap="round" stroke-linejoin="round" /><polyline points="630.44,1267.95 629.79,1260.45 629.28,1254.65 626.77,1243.56 623.77,1236.33 620.03,1217.33 619.69,1210.44 617.15,1195.06 605.82,1189.14 596.76,1192.60 580.54,1196.49 567.71,1198.49 555.40,1201.46 538.41,1205.34 530.66,1207.11" fill="none" stroke="#bcbcbc" stroke-width="8" stroke-linecap="round" stroke-linejoin="round" /><polyline points="-620.66,992.79 -586.03,911.60 -584.10,906.32" fill="none" stroke="#bcbcbc" stroke-width="8" stroke-linecap="round" stroke-linejoin="round" /><polyline points="292.05,843.91 308.74,837.44 317.47,834.07 324.22,827.23 352.05,820.37 361.39,822.75 381.53,817.56 396.89,813.60 400.55,811.56 415.45,807.91 491.63,789.24 508.90,784.08" fill="none" stroke="#bcbcbc" stroke-width="8" stroke-linecap="round" stroke-linejoin="round" /><polyline points="-410.64,1531.45 -374.70,1518.40 -362.68,1514.72 -350.58,1511.03 -328.24,1504.21 -310.87,1501.71 -251.53,1495.21 -239.61,1494.56 -186.52,1495.02 -154.18,1495.29 -142.01,1494.67 -122.53,1496.64 -116.44,1497.52 -104.03,1499.29 -66.51,1507.53" fill="none" stroke="#bcbcbc" stroke-width="8" stroke-linecap="round" stroke-linejoin="round" /><polyline points="-239.41,464.48 -245.37,444.35 -267.48,369.59 -294.34,284.33 -299.88,269.11 -305.51,254.84 -312.63,234.29" fill="none" stroke="#bcbcbc" stroke-width="8" stroke-linecap="round" stroke-linejoin="round" /><polyline points="-303.73,1670.05 -299.01,1655.13 -251.23,1504.48 -251.53,1495.21" fill="none" stroke="#bcbcbc" stroke-width="8" stroke-linecap="round" stroke-linejoin="round" /><polyline points="-239.61,1494.56 -230.15,1367.71 -229.20,1357.37 -227.76,1345.33 -227.73,1344.79 -227.11,1330.08 -223.96,1290.15 -222.18,1271.55 -219.74,1250.42 -217.52,1235.21 -215.53,1225.66 -213.03,1218.44 -208.12,1202.17 -197.97,1168.31 -185.07,1124.59 -170.84,1079.88 -167.94,1070.76 -165.61,1064.15" fill="none" stroke="#bcbcbc" stroke-width="8" stroke-linecap="round" stroke-linejoin="round" /><polyline points="-548.64,1233.34 -551.15,1244.58 -550.72,1248.17 -535.31,1376.49 -533.68,1390.08 -534.38,1404.06 -538.42,1483.88 -540.11,1517.22 -540.98,1534.42 -542.53,1565.08 -543.34,1581.04 -545.08,1587.38" fill="none" stroke="#bcbcbc" stroke-width="8" stroke-linecap="round" stroke-linejoin="round" /><polyline points="-620.66,992.79 -676.70,976.13 -683.82,971.56 -718.69,961.40 -728.49,961.51 -772.31,948.30 -779.39,943.08 -819.27,930.99 -868.19,917.66 -868.43,917.64 -876.55,916.94" fill="none" stroke="#bcbcbc" stroke-width="8" stroke-linecap="round" stroke-linejoin="round" /><polyline points="400.55,811.56 402.50,814.12 410.62,826.23 425.65,848.62 439.79,862.79 466.97,893.30 462.37,921.50 460.04,932.08 456.80,936.55 463.61,946.64 474.16,968.33 495.23,1008.99 505.60,1029.01 512.06,1047.00 514.97,1055.35" fill="none" stroke="#bcbcbc" stroke-width="8" stroke-linecap="round" stroke-linejoin="round" /><polyline points="542.47,869.64 534.66,872.08 483.20,888.09 475.82,890.46 466.97,893.30" fill="none" stroke="#bcbcbc" stroke-width="8" stroke-linecap="round" stroke-linejoin="round" /><polyline points="172.68,967.13 188.77,961.91 305.58,902.27 321.21,894.63 376.26,878.73 429.64,863.72 439.79,862.79" fill="none" stroke="#bcbcbc" stroke-width="8" stroke-linecap="round" stroke-linejoin="round" /><polyline points="185.41,1040.97 320.07,978.30 325.74,974.55 338.90,970.72 428.63,944.61 442.25,939.40 456.80,936.55" fill="none" stroke="#bcbcbc" stroke-width="8" stroke-linecap="round" stroke-linejoin="round" /><polyline points="157.93,-272.85 212.44,-266.11 217.92,-265.43 239.05,-260.25" fill="none" stroke="#bcbcbc" stroke-width="8" stroke-linecap="round" stroke-linejoin="round" /><polyline points="623.75,281.39 633.42,279.37 669.54,297.07 674.30,301.78 742.10,416.57 743.89,430.48 752.71,437.83 751.30,442.90 751.09,451.18 752.31,462.75 770.27,536.56 771.86,587.68 774.37,669.30 778.60,779.17 761.40,827.04 750.32,856.23 734.15,897.36 729.47,909.25 726.42,912.57 721.54,944.40" fill="none" stroke="#bcbcbc" stroke-width="8" stroke-linecap="round" stroke-linejoin="round" /><polyline points="749.11,1138.29 732.62,1131.12 691.41,1102.36 637.04,1064.15 607.14,1039.97 586.97,1018.36" fill="none" stroke="#bcbcbc" stroke-width="8" stroke-linecap="round" stroke-linejoin="round" /><polyline points="81.92,1781.55 65.72,1776.42 39.44,1768.09 26.90,1764.11 12.17,1759.44 -6.44,1753.54 -23.27,1748.20 -39.90,1742.92 -114.09,1719.38 -127.08,1715.26 -143.22,1710.15 -146.78,1709.02 -189.20,1697.81 -201.18,1694.91 -216.20,1691.28 -231.91,1687.47 -288.54,1673.74 -303.73,1670.05 -320.04,1664.39 -354.14,1652.55 -366.99,1648.08 -378.48,1644.35 -431.87,1625.37 -438.60,1621.36 -441.83,1614.39" fill="none" stroke="#bcbcbc" stroke-width="8" stroke-linecap="round" stroke-linejoin="round" /><polyline points="325.74,974.55 321.80,960.46 310.08,918.43 305.58,902.27 299.06,890.19 298.46,887.94 294.62,873.72 299.09,867.42 293.72,849.48 292.05,843.91" fill="none" stroke="#bcbcbc" stroke-width="8" stroke-linecap="round" stroke-linejoin="round" /><polyline points="306.14,460.25 317.28,455.01 378.16,421.44 412.96,399.06 437.50,382.32 442.92,378.28 462.67,364.55 483.14,349.43 496.10,340.00 511.56,328.70 565.26,304.46 572.22,304.83 582.41,300.01 623.75,281.39" fill="none" stroke="#bcbcbc" stroke-width="8" stroke-linecap="round" stroke-linejoin="round" /><polyline points="-368.62,689.07 -359.84,692.64 -354.03,694.42 -245.17,727.86 -228.54,732.97" fill="none" stroke="#bcbcbc" stroke-width="8" stroke-linecap="round" stroke-linejoin="round" /><polyline points="-1146.22,933.91 -1224.00,910.37" fill="none" stroke="#bcbcbc" stroke-width="8" stroke-linecap="round" stroke-linejoin="round" /><polyline points="110.12,-162.99 129.41,-138.55 132.29,-134.91 142.02,-122.58 153.12,-121.27 175.92,-118.60 179.98,-115.79" fill="none" stroke="#bcbcbc" stroke-width="8" stroke-linecap="round" stroke-linejoin="round" /><polyline points="779.77,923.66 749.22,929.36 717.88,946.39 688.84,962.56 661.37,976.29 628.17,994.32 604.14,1008.92 556.64,1034.39 371.21,1127.68 323.14,1148.86 291.37,1162.60 275.64,1167.75 262.62,1170.18 241.30,1171.47 210.97,1167.18 135.28,1149.00 27.83,1123.96 -113.53,1081.32 -165.61,1064.15 -250.88,1037.82 -332.43,1010.92 -452.05,963.99 -511.85,938.23 -583.96,906.18 -703.57,840.65 -731.61,822.05 -802.58,777.40 -832.34,747.64 -876.98,689.84 -950.52,614.00 -979.42,588.53" fill="none" stroke="#bcbcbc" stroke-width="8" stroke-linecap="round" stroke-linejoin="round" /><polyline points="199.97,1818.88 201.23,1811.89 205.75,1800.47 248.17,1701.21 264.19,1664.00 283.08,1617.64 287.68,1600.67" fill="none" stroke="#bcbcbc" stroke-width="8" stroke-linecap="round" stroke-linejoin="round" /><polyline points="-613.74,1399.81 -661.92,1376.49 -771.55,1323.42 -906.03,1258.34 -918.04,1252.53" fill="none" stroke="#bcbcbc" stroke-width="8" stroke-linecap="round" stroke-linejoin="round" /><polyline points="178.13,631.68 190.30,619.23 222.65,586.11 248.32,558.07" fill="none" stroke="#bcbcbc" stroke-width="8" stroke-linecap="round" stroke-linejoin="round" /><polyline points="-755.97,705.47 -769.34,687.77 -831.97,604.84 -921.38,532.48" fill="none" stroke="#bcbcbc" stroke-width="8" stroke-linecap="round" stroke-linejoin="round" /><polyline points="-1143.97,1797.21 -1131.74,1768.21 -1092.87,1671.29 -1088.16,1658.57 -1082.93,1644.46 -1080.95,1639.36 -1080.42,1631.39 -1075.45,1556.04 -1074.02,1534.42" fill="none" stroke="#bcbcbc" stroke-width="8" stroke-linecap="round" stroke-linejoin="round" /><polyline points="-1170.49,1018.08 -1146.22,933.91 -1114.21,822.88 -1110.24,809.14 -1105.84,793.53 -1095.97,758.57 -1094.93,754.90 -1092.11,743.65 -1087.60,730.95 -1086.51,727.87 -1080.82,713.77 -1069.64,689.12 -1066.30,682.04" fill="none" stroke="#bcbcbc" stroke-width="8" stroke-linecap="round" stroke-linejoin="round" /><polyline points="-1110.24,809.14 -1061.14,821.70 -957.12,848.44 -897.86,866.89 -873.14,872.68" fill="none" stroke="#bcbcbc" stroke-width="8" stroke-linecap="round" stroke-linejoin="round" /><polyline points="-99.46,427.19 -97.79,416.97 -96.11,406.36 -88.91,370.87 -70.91,288.25 -56.13,214.35 -53.42,199.02 -49.76,178.20 -49.75,178.18" fill="none" stroke="#bcbcbc" stroke-width="8" stroke-linecap="round" stroke-linejoin="round" /><polyline points="-244.85,2018.06 -222.92,1962.14 -220.20,1952.09 -133.19,1731.20 -127.08,1715.26 -122.13,1701.74 -70.14,1550.47 -60.13,1541.73" fill="none" stroke="#bcbcbc" stroke-width="8" stroke-linecap="round" stroke-linejoin="round" /><polyline points="53.40,384.43 53.40,384.41 50.32,368.23 49.83,366.27 42.32,335.70 42.32,335.60 37.20,314.87 15.48,240.46 12.75,232.49 -1.92,192.62 -6.68,180.72 -9.76,173.04 -13.74,164.32 -13.75,164.31 -13.75,164.27 -16.66,132.22 -16.94,116.49" fill="none" stroke="#bcbcbc" stroke-width="8" stroke-linecap="round" stroke-linejoin="round" /><polyline points="20.86,1647.03 15.27,1653.06 6.95,1662.96 -16.49,1729.06 -23.27,1748.20" fill="none" stroke="#bcbcbc" stroke-width="8" stroke-linecap="round" stroke-linejoin="round" /><polyline points="-368.62,689.07 -365.42,680.39 -364.69,678.38 -349.47,635.86 -343.76,617.94 -297.11,480.75" fill="none" stroke="#bcbcbc" stroke-width="8" stroke-linecap="round" stroke-linejoin="round" /><polyline points="-127.27,881.42 -122.51,868.77 -109.62,834.52 -104.17,820.04 -100.48,810.24 -90.14,782.76 -83.30,764.60 -82.38,762.16 -65.82,718.18 -58.90,720.33 -55.15,710.11 -48.52,692.05 -49.79,683.85 -32.18,635.89 -30.37,630.97 -27.03,627.90 -24.22,625.32 -6.56,577.03 -4.00,563.81 21.34,493.39 27.33,488.71 39.53,454.21 37.36,448.92 48.04,416.70 42.50,387.94" fill="none" stroke="#bcbcbc" stroke-width="8" stroke-linecap="round" stroke-linejoin="round" /><polyline points="326.04,-428.38 318.94,-440.03 281.63,-501.24" fill="none" stroke="#bcbcbc" stroke-width="8" stroke-linecap="round" stroke-linejoin="round" /><polyline points="442.92,378.28 614.15,488.40 614.20,488.47 614.20,488.49 645.87,492.60" fill="none" stroke="#bcbcbc" stroke-width="8" stroke-linecap="round" stroke-linejoin="round" /><polyline points="374.25,148.25 556.44,239.70 561.94,243.80 561.57,273.74 565.26,304.46" fill="none" stroke="#bcbcbc" stroke-width="8" stroke-linecap="round" stroke-linejoin="round" /><polyline points="26.90,1764.11 20.35,1784.10 -6.20,1865.07 -51.35,2001.42 -54.55,2011.09 -57.80,2020.90 -58.70,2031.34" fill="none" stroke="#bcbcbc" stroke-width="8" stroke-linecap="round" stroke-linejoin="round" /><polyline points="539.79,1272.27 540.88,1262.11 541.11,1252.63 541.04,1252.30 534.58,1224.39 531.93,1212.73 530.66,1207.11 529.35,1201.36 522.26,1170.13 508.42,1107.74 498.36,1070.22 496.93,1064.43" fill="none" stroke="#bcbcbc" stroke-width="8" stroke-linecap="round" stroke-linejoin="round" /><polyline points="-364.73,1843.45 -360.22,1830.62 -309.49,1686.42 -303.73,1670.05" fill="none" stroke="#bcbcbc" stroke-width="8" stroke-linecap="round" stroke-linejoin="round" /><polyline points="774.37,669.30 759.45,665.09 658.08,509.54 645.87,492.60" fill="none" stroke="#bcbcbc" stroke-width="8" stroke-linecap="round" stroke-linejoin="round" /><polyline points="-891.94,1042.53 -522.52,1131.05 -497.05,1140.35" fill="none" stroke="#bcbcbc" stroke-width="8" stroke-linecap="round" stroke-linejoin="round" /><polyline points="273.23,-340.47 417.13,-287.16 437.39,-290.62" fill="none" stroke="#bcbcbc" stroke-width="8" stroke-linecap="round" stroke-linejoin="round" />
    <polyline points="167.20,352.80 170.75,351.44 175.55,347.63 182.85,339.09 277.58,203.15 302.81,167.20" fill="none" stroke="#ffffff" stroke-width="16" stroke-linecap="round" stroke-linejoin="round" />
    <polyline points="167.20,352.80 170.75,351.44 175.55,347.63 182.85,339.09 277.58,203.15 302.81,167.20" fill="none" stroke="#111111" stroke-width="9" stroke-linecap="round" stroke-linejoin="round" />
    
            <g transform="translate(167.20,352.80)">
              <circle r="19" fill="#ffffff" stroke="#111111" stroke-width="4" />
              <text text-anchor="middle" dominant-baseline="central" font-family="Helvetica, Arial, sans-serif"
                font-size="18" font-weight="700" fill="#111111">1</text>
            </g>
            
            <g transform="translate(302.81,167.20)">
              <circle r="19" fill="#ffffff" stroke="#111111" stroke-width="4" />
              <text text-anchor="middle" dominant-baseline="central" font-family="Helvetica, Arial, sans-serif"
                font-size="18" font-weight="700" fill="#111111">2</text>
            </g>
            
  </g>
</svg>
