<svg xmlns="http://www.w3.org/2000/svg" width="520" height="520" viewBox="0 0 520 520">
  <rect width="100%" height="100%" fill="#ffffff" />
  <g>
    <polyline points="223.79,-572.04 229.34,-542.56 265.10,-292.35 259.63,-229.80" fill="none" stroke="#bcbcbc" stroke-width="8" stroke-linecap="round" stroke-linejoin="round" /><polyline points="-503.17,1513.01 -494.53,1486.42 -448.71,1345.52 -443.31,1328.91 -437.85,1311.48 -322.64,944.09 -313.38,914.55 -334.60,862.29" fill="none" stroke="#bcbcbc" stroke-width="8" stroke-linecap="round" stroke-linejoin="round" /><polyline points="-1298.94,1186.24 -1300.80,1165.14 -1263.14,954.19 -1257.86,927.80 -1253.91,913.98 -1243.55,860.48 -1231.90,795.00 -1219.20,737.34 -1206.61,679.80 -1198.69,663.58 -1193.50,653.63" fill="none" stroke="#bcbcbc" stroke-width="8" stroke-linecap="round" stroke-linejoin="round" /><polyline points="-1080.32,-301.79 -1089.28,-329.09 -1181.84,-611.39 -1186.35,-623.23" fill="none" stroke="#bcbcbc" stroke-width="8" stroke-linecap="round" stroke-linejoin="round" /><polyline points="-1555.26,2182.72 -1552.49,2155.78 -1551.37,2143.42 -1541.30,2031.96 -1530.27,1933.82 -1527.69,1910.91 -1525.30,1883.41 -1525.03,1881.10 -1518.78,1826.44 -1513.39,1770.88 -1507.45,1717.26 -1503.45,1675.52 -1501.78,1649.76 -1500.30,1625.97 -1497.68,1599.16" fill="none" stroke="#bcbcbc" stroke-width="8" stroke-linecap="round" stroke-linejoin="round" /><polyline points="-276.33,1578.50 -269.74,1557.78 -223.29,1411.77 -218.02,1395.18 -210.52,1371.55 -205.14,1354.61 -164.03,1177.31" fill="none" stroke="#bcbcbc" stroke-width="8" stroke-linecap="round" stroke-linejoin="round" /><polyline points="-456.88,-1309.56 -439.73,-1306.93 32.91,-1234.31" fill="none" stroke="#bcbcbc" stroke-width="8" stroke-linecap="round" stroke-linejoin="round" /><polyline points="-1670.24,1544.10 -1719.43,1541.81 -1749.43,1540.41 -1765.72,1539.66 -1780.02,1538.99 -1891.42,1533.81 -2046.37,1526.60 -2120.23,1516.13 -2144.94,1512.63 -2166.39,1508.84 -2311.65,1483.20 -2331.96,1479.62 -2336.45,1478.85 -2361.53,1474.55 -2380.81,1471.25 -2503.90,1460.37 -2527.34,1458.30 -2535.94,1457.53 -2562.55,1455.69 -2614.66,1452.08" fill="none" stroke="#bcbcbc" stroke-width="8" stroke-linecap="round" stroke-linejoin="round" /><polyline points="-955.53,1401.37 -946.00,1374.25 -860.13,1136.23 -756.84,835.99 -750.22,817.16 -745.61,804.01 -741.87,793.21" fill="none" stroke="#bcbcbc" stroke-width="8" stroke-linecap="round" stroke-linejoin="round" /><polyline points="-2535.94,1457.53 -2538.13,1442.23 -2538.65,1425.61 -2535.39,1392.13 -2527.91,1331.01 -2522.93,1310.50 -2514.83,1236.33 -2513.36,1219.81 -2510.99,1198.57 -2509.23,1182.80 -2505.91,1164.92 -2499.76,1116.81 -2495.49,1080.01 -2489.22,1064.96" fill="none" stroke="#bcbcbc" stroke-width="8" stroke-linecap="round" stroke-linejoin="round" /><polyline points="-2623.82,1046.16 -2509.29,1062.16 -2489.22,1064.96 -2476.78,1066.94 -2425.44,1075.12 -2307.16,1093.97 -2286.86,1097.35" fill="none" stroke="#bcbcbc" stroke-width="8" stroke-linecap="round" stroke-linejoin="round" /><polyline points="-516.03,-456.33 -515.28,-445.92 -513.74,-435.38 -510.02,-427.30 -503.06,-418.30 -490.18,-406.58 -459.66,-388.01 -224.17,-240.27 -79.14,-45.82 30.40,224.53 37.55,242.39" fill="none" stroke="#bcbcbc" stroke-width="8" stroke-linecap="round" stroke-linejoin="round" /><polyline points="-553.73,332.52 -548.85,340.59 -547.59,342.69 -543.55,363.08 -515.91,496.69 -507.14,539.09 -500.87,569.29 -491.09,630.51 -486.52,658.74 -483.37,675.97 -479.92,691.52 -475.80,700.60 -469.75,711.10 -466.51,716.06 -405.33,803.66 -372.23,855.77 -363.60,868.23" fill="none" stroke="#bcbcbc" stroke-width="8" stroke-linecap="round" stroke-linejoin="round" /><polyline points="-2310.25,2005.36 -2307.00,1985.31 -2303.97,1970.81 -2303.16,1968.89 -2262.44,1872.06 -2236.49,1809.12 -2228.60,1789.18 -2220.25,1768.06 -2211.18,1749.90 -2209.71,1746.35 -2197.29,1716.34 -2187.70,1689.78 -2179.46,1665.41 -2174.23,1648.19 -2168.37,1626.91 -2161.62,1598.39 -2156.49,1575.24 -2150.36,1542.93 -2149.07,1535.73 -2144.94,1512.63" fill="none" stroke="#bcbcbc" stroke-width="8" stroke-linecap="round" stroke-linejoin="round" /><polyline points="-337.15,-698.81 -207.30,-608.07 -189.81,-604.36 -177.00,-589.71" fill="none" stroke="#bcbcbc" stroke-width="8" stroke-linecap="round" stroke-linejoin="round" /><polyline points="-882.41,139.19 -865.25,145.79 -790.74,170.16 -617.91,236.44 -608.21,246.11 -603.66,253.33" fill="none" stroke="#bcbcbc" stroke-width="8" stroke-linecap="round" stroke-linejoin="round" /><polyline points="-560.35,1842.34 -548.58,1811.67 -490.48,1654.03 -449.40,1534.94 -440.88,1531.01" fill="none" stroke="#bcbcbc" stroke-width="8" stroke-linecap="round" stroke-linejoin="round" /><polyline points="-1381.65,1642.46 -1372.48,1622.20 -1371.57,1620.19 -1355.89,1567.57 -1330.19,1480.96 -1323.61,1458.79 -1318.50,1441.57 -1317.81,1431.54 -1318.86,1409.33" fill="none" stroke="#bcbcbc" stroke-width="8" stroke-linecap="round" stroke-linejoin="round" /><polyline points="-313.71,339.44 -328.45,342.47 -361.83,336.53 -367.00,322.76 -424.83,300.71 -438.51,304.29 -490.69,285.13 -498.48,290.57" fill="none" stroke="#bcbcbc" stroke-width="8" stroke-linecap="round" stroke-linejoin="round" /><polyline points="-399.60,-1449.67 -373.39,-1443.25 -358.89,-1440.73 -14.11,-1380.95" fill="none" stroke="#bcbcbc" stroke-width="8" stroke-linecap="round" stroke-linejoin="round" /><polyline points="-667.56,1746.35 -653.22,1705.91 -625.35,1627.33 -607.34,1593.85 -581.42,1521.29 -571.08,1492.33" fill="none" stroke="#bcbcbc" stroke-width="8" stroke-linecap="round" stroke-linejoin="round" /><polyline points="-2556.65,176.99 -2581.62,175.84 -2587.88,183.44 -2631.39,236.31 -2783.47,411.97 -2804.85,436.68" fill="none" stroke="#bcbcbc" stroke-width="8" stroke-linecap="round" stroke-linejoin="round" /><polyline points="-1222.74,327.44 -1233.76,351.85 -1235.10,354.80 -1273.40,454.68 -1312.00,564.62 -1322.30,593.94 -1328.13,609.07" fill="none" stroke="#bcbcbc" stroke-width="8" stroke-linecap="round" stroke-linejoin="round" /><polyline points="-660.95,-794.74 -648.79,-778.23 -640.10,-755.53 -626.58,-722.95 -604.88,-671.71 -585.67,-625.71 -563.61,-575.20 -547.25,-536.27 -544.82,-530.68 -544.68,-530.34 -531.50,-499.55 -527.57,-490.80 -523.83,-482.47 -519.87,-474.67 -516.89,-466.73 -516.02,-456.33" fill="none" stroke="#bcbcbc" stroke-width="8" stroke-linecap="round" stroke-linejoin="round" /><polyline points="-1592.39,819.76 -1586.03,816.28 -1577.12,809.20 -1572.66,800.02 -1513.49,575.65 -1511.70,563.00 -1504.48,539.88" fill="none" stroke="#bcbcbc" stroke-width="8" stroke-linecap="round" stroke-linejoin="round" /><polyline points="476.61,468.65 485.01,495.30 490.92,523.28 479.41,629.92 466.12,710.14 458.86,737.50 458.20,739.98 451.84,754.75 443.18,770.40 422.93,796.01 432.73,846.07 401.02,953.53 383.51,1012.87 347.69,1110.01 295.23,1228.28 231.18,1341.62 211.18,1378.46 175.01,1438.98 30.52,1644.05 -1.14,1686.71 -123.73,1846.92 -194.11,1927.00 -292.56,2027.06 -301.67,2028.00 -323.91,2046.17" fill="none" stroke="#bcbcbc" stroke-width="8" stroke-linecap="round" stroke-linejoin="round" /><polyline points="-1306.31,2222.87 -1265.97,2097.78 -1259.37,2077.12 -1250.41,2064.11 -1231.15,2006.29 -1224.88,1986.65 -1145.30,1737.51 -1137.30,1712.45 -1130.70,1690.44 -1036.80,1394.89" fill="none" stroke="#bcbcbc" stroke-width="8" stroke-linecap="round" stroke-linejoin="round" /><polyline points="-361.42,-103.57 -326.55,-141.67 -316.26,-154.06 -245.81,-253.85" fill="none" stroke="#bcbcbc" stroke-width="8" stroke-linecap="round" stroke-linejoin="round" /><polyline points="-1058.34,-88.47 -962.32,-55.05 -957.01,-46.43 -929.75,-37.28 -913.57,-31.75 -836.17,-5.61" fill="none" stroke="#bcbcbc" stroke-width="8" stroke-linecap="round" stroke-linejoin="round" /><polyline points="-221.41,-752.96 -177.00,-589.71 -125.59,-397.40 -117.79,-381.37 -116.55,-363.07 -81.69,-297.98 12.40,-122.52 32.96,-92.18 38.92,-83.29 179.50,179.53 244.10,238.26 253.17,249.96 265.95,260.88 388.61,365.77 396.94,372.89 418.97,384.59" fill="none" stroke="#bcbcbc" stroke-width="8" stroke-linecap="round" stroke-linejoin="round" /><polyline points="-698.49,2249.43 -392.56,2071.72 -338.11,2043.87 -323.91,2046.17" fill="none" stroke="#bcbcbc" stroke-width="8" stroke-linecap="round" stroke-linejoin="round" /><polyline points="-366.80,1995.20 -347.82,1972.63 -177.41,1632.62 -166.12,1610.32 -156.69,1588.25 -101.65,1452.13 -85.26,1411.12 -37.82,1267.54 -7.06,1082.95 -3.41,1056.08" fill="none" stroke="#bcbcbc" stroke-width="8" stroke-linecap="round" stroke-linejoin="round" /><polyline points="-498.31,-4.44 -501.29,-1.39 -505.39,12.92 -505.80,14.34 -524.30,85.55 -519.44,104.14 -523.48,120.81 -528.76,142.62 -542.29,158.30 -557.65,220.51 -575.74,234.18 -595.05,247.42 -603.66,253.33" fill="none" stroke="#bcbcbc" stroke-width="8" stroke-linecap="round" stroke-linejoin="round" /><polyline points="-1222.74,327.44 -1214.88,307.29 -1167.60,186.09 -1157.30,159.67 -1148.80,137.90 -1088.40,-16.86 -1061.20,-81.57 -1058.34,-88.47 -1037.20,-139.58 -989.78,-257.33 -972.41,-307.45 -968.55,-318.95 -963.36,-331.99" fill="none" stroke="#bcbcbc" stroke-width="8" stroke-linecap="round" stroke-linejoin="round" /><polyline points="-693.74,-407.20 -684.59,-379.99 -384.57,-123.72 -220.85,18.72 23.67,231.29 45.02,248.36 54.58,254.34 97.01,292.86 153.67,341.19 282.20,450.78 323.72,486.48 351.26,519.43" fill="none" stroke="#bcbcbc" stroke-width="8" stroke-linecap="round" stroke-linejoin="round" /><polyline points="-197.68,-848.79 -182.45,-858.55 -92.30,-896.01 -73.78,-915.50" fill="none" stroke="#bcbcbc" stroke-width="8" stroke-linecap="round" stroke-linejoin="round" /><polyline points="-93.55,1431.86 -218.02,1395.18 -443.31,1328.91" fill="none" stroke="#bcbcbc" stroke-width="8" stroke-linecap="round" stroke-linejoin="round" /><polyline points="-495.32,-1215.61 -478.32,-1203.88 75.67,-1080.62" fill="none" stroke="#bcbcbc" stroke-width="8" stroke-linecap="round" stroke-linejoin="round" /><polyline points="188.99,608.42 160.36,544.71 96.82,393.17 92.08,381.13 81.21,353.47 40.26,249.25 37.68,242.49" fill="none" stroke="#bcbcbc" stroke-width="8" stroke-linecap="round" stroke-linejoin="round" /><polyline points="-660.95,-794.74 -691.71,-803.49 -714.31,-810.22 -760.25,-823.86 -783.59,-830.52 -796.96,-834.23 -814.42,-839.24" fill="none" stroke="#bcbcbc" stroke-width="8" stroke-linecap="round" stroke-linejoin="round" /><polyline points="-1462.90,38.75 -1464.45,33.66 -1465.89,30.10 -1472.23,14.34 -1496.78,-42.90 -1520.12,-101.07 -1525.16,-114.80 -1530.97,-130.61 -1535.12,-143.55 -1541.98,-162.95 -1542.70,-164.99 -1565.03,-220.02 -1606.02,-323.46 -1615.23,-328.71 -1621.78,-345.48 -1634.85,-390.91 -1657.25,-447.21 -1662.08,-460.01" fill="none" stroke="#bcbcbc" stroke-width="8" stroke-linecap="round" stroke-linejoin="round" /><polyline points="-1265.97,2097.78 -1242.70,2104.91 -1167.37,2127.86 -1143.78,2135.05" fill="none" stroke="#bcbcbc" stroke-width="8" stroke-linecap="round" stroke-linejoin="round" /><polyline points="140.60,-821.70 144.98,-839.45 143.20,-846.19 141.05,-854.32 127.30,-904.70 96.64,-1011.21 80.46,-1065.66 75.67,-1080.62 32.91,-1234.31 9.84,-1317.20 -14.11,-1380.95 -35.74,-1438.45 -57.28,-1477.99 -78.21,-1498.88 -238.87,-1695.21 -250.75,-1709.18 -258.63,-1722.10" fill="none" stroke="#bcbcbc" stroke-width="8" stroke-linecap="round" stroke-linejoin="round" /><polyline points="-516.02,-456.33 -524.31,-453.16 -539.63,-448.93 -541.16,-448.51 -605.15,-432.15 -678.72,-411.43 -693.74,-407.20 -700.43,-405.08 -718.10,-399.40 -733.21,-395.20 -799.18,-376.84 -907.68,-346.01 -948.13,-335.79 -963.36,-331.99 -1035.66,-314.23 -1080.32,-301.79 -1174.91,-275.36 -1268.40,-249.01 -1279.22,-246.01 -1357.36,-224.33 -1393.40,-214.32 -1411.60,-205.72 -1446.05,-188.64 -1514.47,-153.92 -1519.24,-151.50 -1535.12,-143.55 -1544.81,-138.70 -1558.33,-131.61 -1606.40,-106.41 -1693.99,-57.26 -1767.16,-18.94 -1777.62,-13.45 -1791.60,-12.58 -1800.00,-8.12 -1801.68,-7.23 -1881.05,36.27 -1897.68,36.20 -1916.76,46.18 -1923.42,49.67 -1929.04,52.61 -1942.31,59.55 -1952.76,83.40 -1997.69,107.46 -2011.97,115.11 -2027.42,123.52 -2089.93,157.53 -2122.24,175.12 -2138.52,179.81" fill="none" stroke="#bcbcbc" stroke-width="8" stroke-linecap="round" stroke-linejoin="round" /><polyline points="383.51,1012.87 350.16,1015.93 245.97,1025.47 241.28,1025.90 234.63,1026.51 223.88,1027.50 122.87,1036.78 87.73,1033.52 46.82,1043.77 14.05,1051.80 -3.41,1056.08 -46.78,1057.73 -84.32,1055.82 -103.45,1053.79 -119.74,1048.86 -131.74,1042.23 -176.41,1010.64 -284.94,936.10 -295.17,929.16 -305.59,922.09 -313.38,914.55" fill="none" stroke="#bcbcbc" stroke-width="8" stroke-linecap="round" stroke-linejoin="round" /><polyline points="-2074.62,-245.64 -2035.24,-168.54 -2029.28,-146.51 -1996.11,-83.21 -1982.41,-65.11 -1926.96,42.78 -1923.42,49.67" fill="none" stroke="#bcbcbc" stroke-width="8" stroke-linecap="round" stroke-linejoin="round" /><polyline points="-867.78,440.00 -873.68,456.21 -875.34,461.24 -883.02,484.56 -931.75,620.49 -955.93,688.00 -956.76,690.30 -966.47,711.28 -972.04,723.75" fill="none" stroke="#bcbcbc" stroke-width="8" stroke-linecap="round" stroke-linejoin="round" /><polyline points="-221.41,-752.96 -226.81,-764.52 -241.01,-766.38 -286.94,-755.85 -296.27,-757.06 -303.58,-766.86 -316.58,-826.62 -246.19,-837.52 -213.61,-847.13 -197.68,-848.79 -180.51,-787.77" fill="none" stroke="#bcbcbc" stroke-width="8" stroke-linecap="round" stroke-linejoin="round" /><polyline points="32.96,-92.18 51.10,-102.36 142.16,-157.23 166.49,-171.72 209.09,-197.12 279.18,-242.44 295.53,-254.20 418.46,-330.46" fill="none" stroke="#bcbcbc" stroke-width="8" stroke-linecap="round" stroke-linejoin="round" /><polyline points="462.67,268.03 431.59,258.77 413.52,243.95 344.48,184.20 342.12,182.10 325.43,167.20 315.62,149.80 142.16,-157.23" fill="none" stroke="#bcbcbc" stroke-width="8" stroke-linecap="round" stroke-linejoin="round" /><polyline points="-1494.90,243.70 -1222.74,327.44 -1200.54,334.48 -997.44,398.86 -993.20,400.21 -962.78,409.86 -947.82,414.60 -928.38,419.91 -888.28,433.49 -867.78,440.00 -849.33,445.85 -698.19,493.79 -538.63,543.92 -525.44,548.07 -507.14,539.09" fill="none" stroke="#bcbcbc" stroke-width="8" stroke-linecap="round" stroke-linejoin="round" /><polyline points="-694.67,-1099.93 -576.78,-1208.26 -556.82,-1226.60" fill="none" stroke="#bcbcbc" stroke-width="8" stroke-linecap="round" stroke-linejoin="round" /><polyline points="-2668.80,647.99 -2236.21,694.36" fill="none" stroke="#bcbcbc" stroke-width="8" stroke-linecap="round" stroke-linejoin="round" /><polyline points="-1363.82,-559.42 -1272.90,-591.94 -1179.12,-625.84 -1120.85,-648.50 -942.94,-713.20 -891.30,-731.06 -880.52,-734.79 -867.59,-739.24 -853.07,-744.23 -851.29,-744.84 -821.98,-756.62 -809.24,-761.74" fill="none" stroke="#bcbcbc" stroke-width="8" stroke-linecap="round" stroke-linejoin="round" /><polyline points="-753.16,1640.75 -667.56,1746.34 -615.16,1799.11 -592.47,1815.44 -560.35,1842.34 -530.19,1867.67 -504.27,1892.96 -503.63,1905.81" fill="none" stroke="#bcbcbc" stroke-width="8" stroke-linecap="round" stroke-linejoin="round" /><polyline points="-660.95,-794.74 -627.41,-878.82 -573.11,-1017.26 -495.32,-1215.61 -456.88,-1309.56 -399.60,-1449.67 -352.62,-1564.43 -344.22,-1579.66 -302.91,-1647.19 -300.24,-1651.56 -285.13,-1681.28 -258.63,-1722.10 -243.83,-1744.87 -222.89,-1777.10" fill="none" stroke="#bcbcbc" stroke-width="8" stroke-linecap="round" stroke-linejoin="round" /><polyline points="-1452.37,1453.48 -1457.87,1457.87 -1461.50,1463.10 -1468.90,1484.92 -1474.01,1500.67 -1497.65,1571.35 -1500.90,1581.55 -1502.92,1587.87 -1524.62,1581.65 -1577.44,1563.94 -1629.78,1546.39 -1670.24,1544.10" fill="none" stroke="#bcbcbc" stroke-width="8" stroke-linecap="round" stroke-linejoin="round" /><polyline points="-2486.79,1945.27 -2400.53,1722.51 -2390.93,1698.26 -2382.32,1674.90 -2371.92,1646.68 -2359.16,1602.28 -2345.86,1547.10 -2340.41,1507.57 -2336.45,1478.85 -2330.87,1457.65 -2310.57,1298.36 -2286.86,1097.35 -2274.58,1001.53 -2260.89,888.95 -2236.21,694.36 -2232.29,661.27 -2207.35,457.76 -2207.34,446.43 -2201.83,386.05 -2185.92,258.50 -2181.93,236.25 -2177.77,223.78 -2171.26,210.04 -2164.94,199.37 -2150.98,184.25 -2138.50,179.97" fill="none" stroke="#bcbcbc" stroke-width="8" stroke-linecap="round" stroke-linejoin="round" /><polyline points="-603.66,253.33 -598.94,260.81 -583.12,285.50 -559.44,323.46 -553.73,332.52 -544.29,325.34 -498.48,290.57" fill="none" stroke="#bcbcbc" stroke-width="8" stroke-linecap="round" stroke-linejoin="round" /><polyline points="-573.11,-1017.27 -107.04,-933.01 -58.09,-907.24 124.51,-816.72 140.60,-821.70" fill="none" stroke="#bcbcbc" stroke-width="8" stroke-linecap="round" stroke-linejoin="round" /><polyline points="-1462.90,38.75 -1471.17,50.81 -1545.52,87.10 -1600.13,156.52 -1659.06,193.00 -1699.37,223.43 -1737.82,254.80 -1757.53,272.77 -1792.35,316.94 -1831.29,372.75 -1837.71,383.09" fill="none" stroke="#bcbcbc" stroke-width="8" stroke-linecap="round" stroke-linejoin="round" /><polyline points="-1384.29,88.54 -1387.51,95.71 -1394.56,106.02 -1407.88,122.41 -1486.43,221.63 -1527.98,333.55 -1737.72,254.71" fill="none" stroke="#bcbcbc" stroke-width="8" stroke-linecap="round" stroke-linejoin="round" /><polyline points="-1699.37,223.44 -1707.49,198.85 -1742.58,92.58 -1756.21,71.59 -1779.02,3.16 -1780.99,-2.74 -1777.62,-13.45 -1783.09,-30.89 -1892.76,-381.06" fill="none" stroke="#bcbcbc" stroke-width="8" stroke-linecap="round" stroke-linejoin="round" /><polyline points="-414.31,-1687.22 -327.64,-1684.94 -323.59,-1684.83 -306.98,-1684.35 -285.13,-1681.28" fill="none" stroke="#bcbcbc" stroke-width="8" stroke-linecap="round" stroke-linejoin="round" /><polyline points="-860.13,1136.23 -889.72,1135.86 -1140.31,1169.50 -1158.37,1171.41 -1179.03,1173.59 -1298.94,1186.24 -1460.50,1203.31 -1546.15,1212.34 -1593.53,1217.34 -1631.99,1222.01 -1651.75,1224.42 -1674.00,1227.12 -1781.48,1240.18 -1807.24,1243.31 -1886.62,1251.99 -2310.57,1298.36" fill="none" stroke="#bcbcbc" stroke-width="8" stroke-linecap="round" stroke-linejoin="round" /><polyline points="-1231.15,2006.29 -1253.35,1999.15 -1357.03,1965.77 -1377.99,1959.03 -1396.19,1953.18 -1506.03,1917.87 -1527.69,1910.91 -1556.35,1901.68 -1731.21,1845.41 -1750.89,1839.08" fill="none" stroke="#bcbcbc" stroke-width="8" stroke-linecap="round" stroke-linejoin="round" /><polyline points="-797.59,-93.00 -737.27,-74.21 -516.72,-6.10 -514.66,-5.47 -498.31,-4.44" fill="none" stroke="#bcbcbc" stroke-width="8" stroke-linecap="round" stroke-linejoin="round" /><polyline points="-177.00,-589.71 123.02,-584.43" fill="none" stroke="#bcbcbc" stroke-width="8" stroke-linecap="round" stroke-linejoin="round" /><polyline points="-323.91,2046.17 -366.80,1995.20 -384.79,1974.27 -400.26,1959.82 -420.84,1944.45 -462.92,1919.20 -503.63,1905.81 -586.47,1880.23 -654.22,1858.73 -615.16,1799.11" fill="none" stroke="#bcbcbc" stroke-width="8" stroke-linecap="round" stroke-linejoin="round" /><polyline points="-753.16,1640.75 -812.88,1567.03 -824.24,1553.01 -884.40,1470.14 -898.01,1444.84 -894.74,1414.72 -876.61,1414.54 -831.87,1423.15 -763.79,1436.24" fill="none" stroke="#bcbcbc" stroke-width="8" stroke-linecap="round" stroke-linejoin="round" /><polyline points="-1534.40,1050.13 -1523.39,1073.83 -1460.50,1203.31 -1366.97,1395.83 -1355.05,1420.38" fill="none" stroke="#bcbcbc" stroke-width="8" stroke-linecap="round" stroke-linejoin="round" /><polyline points="-2541.78,1636.58 -2519.29,1645.78 -2413.93,1688.86 -2390.93,1698.26 -2366.73,1708.15 -2242.69,1758.88 -2220.25,1768.06" fill="none" stroke="#bcbcbc" stroke-width="8" stroke-linecap="round" stroke-linejoin="round" /><polyline points="-1482.64,858.16 -1263.14,954.19" fill="none" stroke="#bcbcbc" stroke-width="8" stroke-linecap="round" stroke-linejoin="round" /><polyline points="-498.31,-4.44 -464.87,-2.69 -462.74,-0.79 -447.74,12.52 -425.69,32.20 -421.62,40.11 -345.62,106.66 -340.00,117.28 -286.57,164.44 -273.12,168.55 -231.55,204.95 -222.24,209.20 -159.55,262.39 -145.59,274.76 -137.89,287.02" fill="none" stroke="#bcbcbc" stroke-width="8" stroke-linecap="round" stroke-linejoin="round" /><polyline points="-2603.74,858.38 -2260.89,888.95" fill="none" stroke="#bcbcbc" stroke-width="8" stroke-linecap="round" stroke-linejoin="round" /><polyline points="-1838.23,2135.03 -1827.61,2112.42 -1824.88,2102.36 -1809.99,2047.46 -1756.06,1857.29 -1750.89,1839.08 -1745.43,1819.11 -1721.00,1729.76 -1679.74,1578.88 -1670.24,1544.10" fill="none" stroke="#bcbcbc" stroke-width="8" stroke-linecap="round" stroke-linejoin="round" /><polyline points="-1534.40,1050.13 -1482.64,858.16 -1592.39,819.76 -1621.13,836.73 -1634.23,846.69 -1643.93,859.81 -1650.75,877.13 -1676.00,970.43 -1655.63,980.80 -1635.06,985.79 -1589.57,997.63 -1555.53,1008.47 -1534.40,1050.13" fill="none" stroke="#bcbcbc" stroke-width="8" stroke-linecap="round" stroke-linejoin="round" /><polyline points="-1676.00,970.43 -1700.03,967.08 -2260.89,888.95" fill="none" stroke="#bcbcbc" stroke-width="8" stroke-linecap="round" stroke-linejoin="round" /><polyline points="-763.79,1436.24 -711.77,1447.61 -571.08,1492.33 -531.74,1504.77 -438.36,1531.74 -344.30,1558.86 -274.67,1578.98 -163.29,1611.14 -140.29,1617.79 -84.08,1636.63 8.45,1661.28 16.61,1662.80" fill="none" stroke="#bcbcbc" stroke-width="8" stroke-linecap="round" stroke-linejoin="round" /><polyline points="-697.80,2249.03 -716.78,2253.79 -737.31,2310.99 -769.13,2301.95 -913.84,2252.64 -931.26,2248.92 -970.00,2246.15 -1145.25,2246.85 -1183.88,2241.93 -1271.12,2228.59 -1306.30,2222.87 -1555.89,2182.62 -1652.54,2167.20 -1836.86,2135.27 -1866.62,2129.37 -2282.60,2013.10 -2308.84,2005.75 -2486.79,1945.28 -2530.56,1929.74 -2639.92,1884.43 -2702.25,1860.85" fill="none" stroke="#bcbcbc" stroke-width="8" stroke-linecap="round" stroke-linejoin="round" /><polyline points="-316.58,-826.62 -334.58,-830.33 -575.00,-801.91 -660.95,-794.74" fill="none" stroke="#bcbcbc" stroke-width="8" stroke-linecap="round" stroke-linejoin="round" /><polyline points="-763.79,1436.24 -755.36,1422.15 -704.91,1292.57 -648.54,1096.65 -634.17,1054.45 -626.48,1042.97 -572.05,868.27 -569.35,847.41 -567.29,833.78" fill="none" stroke="#bcbcbc" stroke-width="8" stroke-linecap="round" stroke-linejoin="round" /><polyline points="-516.02,-456.33 -510.28,-458.53 -502.49,-464.71 -490.67,-478.54 -337.15,-698.81 -296.27,-757.06" fill="none" stroke="#bcbcbc" stroke-width="8" stroke-linecap="round" stroke-linejoin="round" /><polyline points="234.63,1026.51 233.57,1014.37 232.74,1004.97 228.68,987.00 223.81,975.28 217.75,944.49 217.20,933.34 213.09,908.42 194.72,898.82 180.05,904.43 153.77,910.72 132.97,913.98 113.03,918.79 85.49,925.07 72.93,927.93" fill="none" stroke="#bcbcbc" stroke-width="8" stroke-linecap="round" stroke-linejoin="round" /><polyline points="-1792.70,580.67 -1736.58,449.11 -1733.46,440.56" fill="none" stroke="#bcbcbc" stroke-width="8" stroke-linecap="round" stroke-linejoin="round" /><polyline points="-313.71,339.44 -286.66,328.96 -272.52,323.48 -261.58,312.41 -216.49,301.29 -201.36,305.15 -168.72,296.74 -143.82,290.32 -137.89,287.02 -113.75,281.10 9.70,250.86 37.68,242.49" fill="none" stroke="#bcbcbc" stroke-width="8" stroke-linecap="round" stroke-linejoin="round" /><polyline points="-1452.37,1453.48 -1394.14,1432.33 -1374.66,1426.37 -1355.05,1420.38 -1318.86,1409.33 -1290.70,1405.28 -1194.55,1394.76 -1175.23,1393.71 -1089.20,1394.44 -1036.80,1394.89 -1017.09,1393.88 -985.52,1397.08 -975.65,1398.49 -955.53,1401.37 -894.74,1414.72" fill="none" stroke="#bcbcbc" stroke-width="8" stroke-linecap="round" stroke-linejoin="round" /><polyline points="-1174.91,-275.36 -1184.56,-307.98 -1220.39,-429.13 -1263.92,-567.28 -1272.90,-591.94 -1282.03,-615.05 -1293.56,-648.36" fill="none" stroke="#bcbcbc" stroke-width="8" stroke-linecap="round" stroke-linejoin="round" /><polyline points="-1279.13,1678.06 -1271.48,1653.89 -1194.06,1409.77 -1194.55,1394.76" fill="none" stroke="#bcbcbc" stroke-width="8" stroke-linecap="round" stroke-linejoin="round" /><polyline points="-1175.23,1393.71 -1159.91,1188.17 -1158.37,1171.41 -1156.03,1151.91 -1155.99,1151.02 -1154.98,1127.18 -1149.87,1062.48 -1146.98,1032.35 -1143.04,998.12 -1139.44,973.47 -1136.22,958.00 -1132.16,946.30 -1124.21,919.94 -1107.76,865.07 -1086.85,794.22 -1063.79,721.78 -1059.10,707.01 -1055.32,696.30" fill="none" stroke="#bcbcbc" stroke-width="8" stroke-linecap="round" stroke-linejoin="round" /><polyline points="-1676.00,970.43 -1680.07,988.65 -1679.37,994.47 -1654.40,1202.39 -1651.75,1224.42 -1652.90,1247.07 -1659.44,1376.39 -1662.17,1430.42 -1663.58,1458.29 -1666.10,1507.96 -1667.41,1533.83 -1670.24,1544.10" fill="none" stroke="#bcbcbc" stroke-width="8" stroke-linecap="round" stroke-linejoin="round" /><polyline points="-1792.70,580.67 -1883.51,553.68 -1895.05,546.27 -1951.56,529.81 -1967.44,529.98 -2038.45,508.58 -2049.92,500.12 -2114.53,480.54 -2193.81,458.93 -2194.20,458.89 -2207.35,457.76" fill="none" stroke="#bcbcbc" stroke-width="8" stroke-linecap="round" stroke-linejoin="round" /><polyline points="-137.89,287.02 -134.74,291.15 -121.57,310.78 -97.23,347.06 -74.32,370.02 -30.27,419.46 -37.71,465.16 -41.49,482.30 -46.75,489.54 -35.70,505.88 -18.62,541.04 15.52,606.91 32.34,639.35 42.79,668.50 47.51,682.04" fill="none" stroke="#bcbcbc" stroke-width="8" stroke-linecap="round" stroke-linejoin="round" /><polyline points="92.08,381.13 79.42,385.07 -3.96,411.01 -15.92,414.86 -30.27,419.46" fill="none" stroke="#bcbcbc" stroke-width="8" stroke-linecap="round" stroke-linejoin="round" /><polyline points="-507.14,539.09 -481.07,530.64 -291.79,433.99 -266.46,421.61 -177.25,395.85 -90.75,371.53 -74.32,370.02" fill="none" stroke="#bcbcbc" stroke-width="8" stroke-linecap="round" stroke-linejoin="round" /><polyline points="-486.52,658.74 -268.31,557.20 -259.13,551.12 -237.79,544.91 -92.39,502.60 -70.33,494.16 -46.75,489.54" fill="none" stroke="#bcbcbc" stroke-width="8" stroke-linecap="round" stroke-linejoin="round" /><polyline points="-531.05,-1470.09 -442.72,-1459.17 -433.84,-1458.07 -399.60,-1449.67" fill="none" stroke="#bcbcbc" stroke-width="8" stroke-linecap="round" stroke-linejoin="round" /><polyline points="223.79,-572.04 239.46,-575.31 297.99,-546.62 305.70,-538.99 415.57,-353.01 418.46,-330.46 432.75,-318.55 430.48,-310.33 430.13,-296.92 432.11,-278.18 461.21,-158.58 463.78,-75.75 467.86,56.51 474.71,234.53 446.84,312.10 428.89,359.39 402.68,426.03 395.09,445.31 390.16,450.69 382.24,502.26" fill="none" stroke="#bcbcbc" stroke-width="8" stroke-linecap="round" stroke-linejoin="round" /><polyline points="426.93,816.43 400.20,804.80 333.43,758.20 245.33,696.30 196.87,657.11 164.18,622.10" fill="none" stroke="#bcbcbc" stroke-width="8" stroke-linecap="round" stroke-linejoin="round" /><polyline points="-654.22,1858.73 -680.46,1850.41 -723.05,1836.91 -743.37,1830.46 -767.24,1822.89 -797.40,1813.33 -824.67,1804.69 -851.62,1796.14 -971.83,1757.99 -992.88,1751.31 -1019.03,1743.03 -1024.80,1741.20 -1093.55,1723.04 -1112.97,1718.34 -1137.30,1712.45 -1162.76,1706.28 -1254.52,1684.03 -1279.13,1678.06 -1305.57,1668.88 -1360.82,1649.69 -1381.65,1642.46 -1400.27,1636.41 -1486.78,1605.65 -1497.68,1599.16 -1502.92,1587.87" fill="none" stroke="#bcbcbc" stroke-width="8" stroke-linecap="round" stroke-linejoin="round" /><polyline points="-259.13,551.12 -265.50,528.28 -284.49,460.18 -291.79,433.99 -302.35,414.42 -303.33,410.78 -309.55,387.73 -302.31,377.52 -311.01,348.46 -313.71,339.44" fill="none" stroke="#bcbcbc" stroke-width="8" stroke-linecap="round" stroke-linejoin="round" /><polyline points="-290.88,-282.22 -272.83,-290.72 -174.18,-345.10 -117.79,-381.37 -78.02,-408.50 -69.24,-415.04 -37.23,-437.29 -4.06,-461.79 16.94,-477.08 41.98,-495.39 129.01,-534.66 140.29,-534.06 156.79,-541.86 223.79,-572.04" fill="none" stroke="#bcbcbc" stroke-width="8" stroke-linecap="round" stroke-linejoin="round" /><polyline points="-1384.29,88.54 -1370.05,94.32 -1360.65,97.21 -1184.24,151.39 -1157.30,159.67" fill="none" stroke="#bcbcbc" stroke-width="8" stroke-linecap="round" stroke-linejoin="round" /><polyline points="-2644.35,485.26 -2770.38,447.11" fill="none" stroke="#bcbcbc" stroke-width="8" stroke-linecap="round" stroke-linejoin="round" /><polyline points="-608.51,-1292.07 -577.26,-1252.49 -572.60,-1246.58 -556.82,-1226.60 -538.85,-1224.49 -501.89,-1220.15 -495.32,-1215.61" fill="none" stroke="#bcbcbc" stroke-width="8" stroke-linecap="round" stroke-linejoin="round" /><polyline points="476.61,468.65 427.10,477.89 376.32,505.48 329.26,531.68 284.74,553.94 230.95,583.15 192.00,606.80 115.03,648.07 -185.44,799.24 -263.34,833.55 -314.81,855.81 -340.31,864.16 -361.41,868.10 -395.95,870.19 -445.10,863.23 -567.75,833.78 -741.87,793.21 -970.93,724.12 -1055.32,696.30 -1193.50,653.63 -1325.65,610.05 -1519.47,534.00 -1616.38,492.26 -1733.23,440.33 -1927.06,334.14 -1972.50,304.01 -2087.49,231.67 -2135.71,183.45 -2208.05,89.78 -2327.22,-33.09 -2374.05,-74.36" fill="none" stroke="#bcbcbc" stroke-width="8" stroke-linecap="round" stroke-linejoin="round" /><polyline points="-462.92,1919.20 -460.89,1907.88 -453.56,1889.37 -384.82,1728.54 -358.86,1668.26 -328.25,1593.13 -320.80,1565.64" fill="none" stroke="#bcbcbc" stroke-width="8" stroke-linecap="round" stroke-linejoin="round" /><polyline points="-1781.48,1240.18 -1859.56,1202.39 -2037.22,1116.40 -2255.13,1010.94 -2274.58,1001.53" fill="none" stroke="#bcbcbc" stroke-width="8" stroke-linecap="round" stroke-linejoin="round" /><polyline points="-498.31,-4.44 -478.59,-24.63 -426.17,-78.29 -384.57,-123.72" fill="none" stroke="#bcbcbc" stroke-width="8" stroke-linecap="round" stroke-linejoin="round" /><polyline points="-2011.97,115.11 -2033.63,86.43 -2135.12,-47.95 -2280.00,-165.19" fill="none" stroke="#bcbcbc" stroke-width="8" stroke-linecap="round" stroke-linejoin="round" /><polyline points="-2640.69,1884.10 -2620.88,1837.11 -2557.89,1680.06 -2550.25,1659.45 -2541.78,1636.58 -2538.57,1628.33 -2537.72,1615.41 -2529.65,1493.32 -2527.34,1458.30" fill="none" stroke="#bcbcbc" stroke-width="8" stroke-linecap="round" stroke-linejoin="round" /><polyline points="-2683.67,621.65 -2644.35,485.26 -2592.46,305.36 -2586.04,283.09 -2578.90,257.79 -2562.91,201.15 -2561.23,195.20 -2556.65,176.99 -2549.35,156.40 -2547.58,151.41 -2538.36,128.55 -2520.25,88.61 -2514.84,77.15" fill="none" stroke="#bcbcbc" stroke-width="8" stroke-linecap="round" stroke-linejoin="round" /><polyline points="-2586.04,283.09 -2506.47,303.44 -2337.92,346.77 -2241.89,376.66 -2201.83,386.05" fill="none" stroke="#bcbcbc" stroke-width="8" stroke-linecap="round" stroke-linejoin="round" /><polyline points="-948.13,-335.79 -945.42,-352.35 -942.70,-369.54 -931.03,-427.05 -901.86,-560.92 -877.91,-680.66 -873.53,-705.51 -867.59,-739.24 -867.58,-739.27" fill="none" stroke="#bcbcbc" stroke-width="8" stroke-linecap="round" stroke-linejoin="round" /><polyline points="-1183.72,2241.95 -1148.20,2151.33 -1143.78,2135.05 -1002.79,1777.13 -992.88,1751.31 -984.87,1729.41 -900.62,1484.30 -884.40,1470.14" fill="none" stroke="#bcbcbc" stroke-width="8" stroke-linecap="round" stroke-linejoin="round" /><polyline points="-700.43,-405.08 -700.43,-405.11 -705.43,-431.32 -706.21,-434.51 -718.39,-484.04 -718.38,-484.20 -726.69,-517.78 -761.87,-638.36 -766.30,-651.28 -790.07,-715.87 -797.79,-735.16 -802.77,-747.59 -809.23,-761.72 -809.24,-761.74 -809.25,-761.81 -813.96,-813.74 -814.42,-839.24" fill="none" stroke="#bcbcbc" stroke-width="8" stroke-linecap="round" stroke-linejoin="round" /><polyline points="-753.16,1640.75 -762.21,1650.53 -775.69,1666.57 -813.68,1773.68 -824.67,1804.69" fill="none" stroke="#bcbcbc" stroke-width="8" stroke-linecap="round" stroke-linejoin="round" /><polyline points="-1384.29,88.54 -1379.09,74.48 -1377.92,71.22 -1353.26,2.32 -1344.01,-26.71 -1268.40,-249.01" fill="none" stroke="#bcbcbc" stroke-width="8" stroke-linecap="round" stroke-linejoin="round" /><polyline points="-993.20,400.21 -985.49,379.71 -964.60,324.22 -955.76,300.76 -949.79,284.88 -933.02,240.35 -921.95,210.93 -920.46,206.97 -893.63,135.71 -882.41,139.19 -876.33,122.64 -865.58,93.37 -867.64,80.07 -839.10,2.37 -836.17,-5.61 -830.75,-10.58 -826.21,-14.76 -797.59,-93.00 -793.45,-114.42 -752.38,-228.52 -742.67,-236.12 -722.91,-292.01 -726.43,-300.59 -709.12,-352.79 -718.10,-399.40" fill="none" stroke="#bcbcbc" stroke-width="8" stroke-linecap="round" stroke-linejoin="round" /><polyline points="-258.63,-1722.10 -270.14,-1740.97 -330.60,-1840.16" fill="none" stroke="#bcbcbc" stroke-width="8" stroke-linecap="round" stroke-linejoin="round" /><polyline points="-69.24,-415.04 208.23,-236.61 208.31,-236.49 208.31,-236.46 259.63,-229.80" fill="none" stroke="#bcbcbc" stroke-width="8" stroke-linecap="round" stroke-linejoin="round" /><polyline points="-180.51,-787.77 114.71,-639.59 123.62,-632.94 123.02,-584.43 129.01,-534.66" fill="none" stroke="#bcbcbc" stroke-width="8" stroke-linecap="round" stroke-linejoin="round" /><polyline points="-743.37,1830.46 -753.99,1862.86 -797.00,1994.05 -870.17,2214.99 -875.36,2230.66 -880.62,2246.54 -882.09,2263.46" fill="none" stroke="#bcbcbc" stroke-width="8" stroke-linecap="round" stroke-linejoin="round" /><polyline points="87.73,1033.52 89.50,1017.06 89.88,1001.70 89.75,1001.16 79.29,955.94 75.00,937.05 72.93,927.93 70.82,918.62 59.33,868.02 36.90,766.92 20.60,706.14 18.29,696.74" fill="none" stroke="#bcbcbc" stroke-width="8" stroke-linecap="round" stroke-linejoin="round" /><polyline points="-1377.99,1959.03 -1370.67,1938.23 -1288.46,1704.58 -1279.13,1678.06" fill="none" stroke="#bcbcbc" stroke-width="8" stroke-linecap="round" stroke-linejoin="round" /><polyline points="467.86,56.51 443.68,49.69 279.42,-202.36 259.63,-229.80" fill="none" stroke="#bcbcbc" stroke-width="8" stroke-linecap="round" stroke-linejoin="round" /><polyline points="-2232.29,661.27 -1633.67,804.69 -1592.39,819.76" fill="none" stroke="#bcbcbc" stroke-width="8" stroke-linecap="round" stroke-linejoin="round" /><polyline points="-344.22,-1579.66 -111.04,-1493.28 -78.21,-1498.88" fill="none" stroke="#bcbcbc" stroke-width="8" stroke-linecap="round" stroke-linejoin="round" />
    <polyline points="167.20,352.80 170.34,343.76 247.51,252.98 253.17,249.96 266.57,231.62 311.47,180.05 325.43,167.20" fill="none" stroke="#ffffff" stroke-width="16" stroke-linecap="round" stroke-linejoin="round" />
    <polyline points="167.20,352.80 170.34,343.76 247.51,252.98 253.17,249.96 266.57,231.62 311.47,180.05 325.43,167.20" fill="none" stroke="#111111" stroke-width="9" stroke-linecap="round" stroke-linejoin="round" />
    
            <g transform="translate(167.20,352.80)">
              <circle r="19" fill="#ffffff" stroke="#111111" stroke-width="4" />
              <text text-anchor="middle" dominant-baseline="central" font-family="Helvetica, Arial, sans-serif"
                font-size="18" font-weight="700" fill="#111111">1</text>
            </g>
            
            <g transform="translate(325.43,167.20)">
              <circle r="19" fill="#ffffff" stroke="#111111" stroke-width="4" />
              <text text-anchor="middle" dominant-baseline="central" font-family="Helvetica, Arial, sans-serif"
                font-size="18" font-weight="700" fill="#111111">2</text>
            </g>
            
  </g>
</svg>
