<svg xmlns="http://www.w3.org/2000/svg" width="520" height="520" viewBox="0 0 520 520">
  <rect width="100%" height="100%" fill="#ffffff" />
  <g>
    <polyline points="340.35,-1481.92 346.72,-1448.08 387.77,-1160.91 381.49,-1089.11" fill="none" stroke="#bcbcbc" stroke-width="8" stroke-linecap="round" stroke-linejoin="round" /><polyline points="-494.05,911.17 -484.13,880.65 -431.54,718.93 -425.34,699.87 -419.07,679.86 -286.84,258.20 -276.21,224.30 -300.56,164.31" fill="none" stroke="#bcbcbc" stroke-width="8" stroke-linecap="round" stroke-linejoin="round" /><polyline points="-1407.43,536.12 -1409.57,511.91 -1366.34,269.79 -1360.28,239.51 -1355.75,223.65 -1343.85,162.24 -1330.48,87.09 -1315.91,20.91 -1301.46,-45.13 -1292.36,-63.75 -1286.41,-75.17" fill="none" stroke="#bcbcbc" stroke-width="8" stroke-linecap="round" stroke-linejoin="round" /><polyline points="-1156.51,-1171.74 -1166.78,-1203.08 -1273.02,-1527.08 -1278.20,-1540.66" fill="none" stroke="#bcbcbc" stroke-width="8" stroke-linecap="round" stroke-linejoin="round" /><polyline points="-1701.63,1679.82 -1698.46,1648.90 -1697.17,1634.72 -1685.61,1506.79 -1672.95,1394.15 -1669.99,1367.85 -1667.24,1336.29 -1666.94,1333.64 -1659.76,1270.90 -1653.57,1207.14 -1646.76,1145.59 -1642.16,1097.68 -1640.25,1068.12 -1638.56,1040.82 -1635.54,1010.05" fill="none" stroke="#bcbcbc" stroke-width="8" stroke-linecap="round" stroke-linejoin="round" /><polyline points="-233.69,986.34 -226.12,962.55 -172.81,794.97 -166.75,775.94 -158.14,748.81 -151.97,729.37 -104.79,525.87" fill="none" stroke="#bcbcbc" stroke-width="8" stroke-linecap="round" stroke-linejoin="round" /><polyline points="-440.91,-2328.40 -421.23,-2325.37 121.27,-2242.02" fill="none" stroke="#bcbcbc" stroke-width="8" stroke-linecap="round" stroke-linejoin="round" /><polyline points="-1833.60,946.85 -1890.07,944.22 -1924.50,942.62 -1943.21,941.75 -1959.62,940.99 -2087.48,935.04 -2265.33,926.77 -2350.10,914.75 -2378.47,910.73 -2403.09,906.38 -2569.82,876.96 -2593.12,872.84 -2598.29,871.96 -2627.07,867.03 -2649.20,863.23 -2790.48,850.75 -2817.38,848.37 -2827.25,847.49 -2857.80,845.38 -2917.61,841.23" fill="none" stroke="#bcbcbc" stroke-width="8" stroke-linecap="round" stroke-linejoin="round" /><polyline points="-1013.26,783.04 -1002.32,751.91 -903.77,478.72 -785.21,134.13 -777.61,112.52 -772.32,97.42 -768.02,85.03" fill="none" stroke="#bcbcbc" stroke-width="8" stroke-linecap="round" stroke-linejoin="round" /><polyline points="-2827.25,847.49 -2829.77,829.93 -2830.37,810.85 -2826.63,772.43 -2818.04,702.29 -2812.32,678.74 -2803.03,593.61 -2801.34,574.65 -2798.62,550.28 -2796.60,532.18 -2792.79,511.65 -2785.73,456.44 -2780.83,414.21 -2773.63,396.93" fill="none" stroke="#bcbcbc" stroke-width="8" stroke-linecap="round" stroke-linejoin="round" /><polyline points="-2928.13,375.35 -2796.67,393.71 -2773.63,396.93 -2759.35,399.20 -2700.43,408.59 -2564.66,430.22 -2541.36,434.11" fill="none" stroke="#bcbcbc" stroke-width="8" stroke-linecap="round" stroke-linejoin="round" /><polyline points="-508.80,-1349.11 -507.95,-1337.16 -506.19,-1325.06 -501.91,-1315.79 -493.92,-1305.46 -479.14,-1292.00 -444.10,-1270.69 -173.82,-1101.13 -7.35,-877.95 118.39,-567.66 126.59,-547.17" fill="none" stroke="#bcbcbc" stroke-width="8" stroke-linecap="round" stroke-linejoin="round" /><polyline points="-552.09,-443.72 -546.48,-434.45 -545.03,-432.05 -540.39,-408.64 -508.68,-255.30 -498.61,-206.63 -491.41,-171.97 -480.18,-101.71 -474.94,-69.30 -471.32,-49.54 -467.36,-31.68 -462.63,-21.26 -455.69,-9.21 -451.97,-3.52 -381.75,97.02 -343.76,156.84 -333.85,171.13" fill="none" stroke="#bcbcbc" stroke-width="8" stroke-linecap="round" stroke-linejoin="round" /><polyline points="-2568.21,1476.25 -2564.48,1453.24 -2561.00,1436.60 -2560.07,1434.40 -2513.33,1323.26 -2483.55,1251.03 -2474.49,1228.14 -2464.91,1203.90 -2454.50,1183.05 -2452.81,1178.98 -2438.56,1144.53 -2427.54,1114.05 -2418.09,1086.09 -2412.09,1066.32 -2405.36,1041.90 -2397.61,1009.16 -2391.72,982.59 -2384.69,945.51 -2383.21,937.24 -2378.47,910.73" fill="none" stroke="#bcbcbc" stroke-width="8" stroke-linecap="round" stroke-linejoin="round" /><polyline points="-303.50,-1627.41 -154.45,-1523.27 -134.37,-1519.00 -119.68,-1502.19" fill="none" stroke="#bcbcbc" stroke-width="8" stroke-linecap="round" stroke-linejoin="round" /><polyline points="-929.34,-665.62 -909.64,-658.04 -824.12,-630.06 -625.75,-553.99 -614.62,-542.90 -609.40,-534.61" fill="none" stroke="#bcbcbc" stroke-width="8" stroke-linecap="round" stroke-linejoin="round" /><polyline points="-559.68,1289.16 -546.17,1253.95 -479.48,1073.03 -432.33,936.33 -422.55,931.83" fill="none" stroke="#bcbcbc" stroke-width="8" stroke-linecap="round" stroke-linejoin="round" /><polyline points="-1502.36,1059.75 -1491.84,1036.49 -1490.80,1034.18 -1472.79,973.79 -1443.30,874.38 -1435.75,848.94 -1429.88,829.18 -1429.09,817.67 -1430.29,792.17" fill="none" stroke="#bcbcbc" stroke-width="8" stroke-linecap="round" stroke-linejoin="round" /><polyline points="-276.59,-435.78 -293.50,-432.29 -331.82,-439.11 -337.75,-454.92 -404.14,-480.22 -419.84,-476.12 -479.73,-498.11 -488.66,-491.87" fill="none" stroke="#bcbcbc" stroke-width="8" stroke-linecap="round" stroke-linejoin="round" /><polyline points="-375.17,-2489.20 -345.08,-2481.83 -328.44,-2478.94 67.29,-2410.33" fill="none" stroke="#bcbcbc" stroke-width="8" stroke-linecap="round" stroke-linejoin="round" /><polyline points="-682.74,1178.98 -666.28,1132.57 -634.29,1042.38 -613.62,1003.96 -583.87,920.67 -571.99,887.43" fill="none" stroke="#bcbcbc" stroke-width="8" stroke-linecap="round" stroke-linejoin="round" /><polyline points="-2851.03,-622.23 -2879.69,-623.55 -2886.88,-614.82 -2936.81,-554.15 -3111.37,-352.53 -3135.91,-324.17" fill="none" stroke="#bcbcbc" stroke-width="8" stroke-linecap="round" stroke-linejoin="round" /><polyline points="-1319.97,-449.55 -1332.62,-421.54 -1334.15,-418.14 -1378.11,-303.52 -1422.43,-177.34 -1434.24,-143.68 -1440.94,-126.31" fill="none" stroke="#bcbcbc" stroke-width="8" stroke-linecap="round" stroke-linejoin="round" /><polyline points="-675.15,-1737.51 -661.19,-1718.57 -651.21,-1692.51 -635.70,-1655.12 -610.80,-1596.31 -588.74,-1543.51 -563.42,-1485.54 -544.64,-1440.86 -541.86,-1434.45 -541.69,-1434.05 -526.57,-1398.71 -522.06,-1388.67 -517.76,-1379.11 -513.22,-1370.15 -509.80,-1361.05 -508.80,-1349.11" fill="none" stroke="#bcbcbc" stroke-width="8" stroke-linecap="round" stroke-linejoin="round" /><polyline points="-1744.26,115.50 -1736.95,111.51 -1726.72,103.38 -1721.60,92.84 -1653.69,-164.67 -1651.64,-179.20 -1643.35,-205.73" fill="none" stroke="#bcbcbc" stroke-width="8" stroke-linecap="round" stroke-linejoin="round" /><polyline points="630.54,-287.47 640.18,-256.90 646.96,-224.78 633.76,-102.38 618.50,-10.31 610.17,21.09 609.41,23.94 602.11,40.89 592.16,58.86 568.93,88.24 580.18,145.70 543.78,269.03 523.68,337.14 482.57,448.63 422.35,584.37 348.84,714.46 325.88,756.74 284.36,826.20 118.52,1061.57 82.18,1110.54 -58.53,1294.41 -139.32,1386.32 -252.31,1501.16 -262.77,1502.24 -288.29,1523.10" fill="none" stroke="#bcbcbc" stroke-width="8" stroke-linecap="round" stroke-linejoin="round" /><polyline points="-1415.89,1725.90 -1369.59,1582.33 -1362.02,1558.62 -1351.73,1543.68 -1329.62,1477.33 -1322.42,1454.79 -1231.09,1168.84 -1221.90,1140.08 -1214.33,1114.81 -1106.54,775.60" fill="none" stroke="#bcbcbc" stroke-width="8" stroke-linecap="round" stroke-linejoin="round" /><polyline points="-331.35,-944.24 -291.32,-987.96 -279.52,-1002.19 -198.66,-1116.72" fill="none" stroke="#bcbcbc" stroke-width="8" stroke-linecap="round" stroke-linejoin="round" /><polyline points="-1131.27,-926.91 -1021.06,-888.55 -1014.97,-878.65 -983.68,-868.16 -965.10,-861.81 -876.27,-831.80" fill="none" stroke="#bcbcbc" stroke-width="8" stroke-linecap="round" stroke-linejoin="round" /><polyline points="-170.65,-1689.56 -119.68,-1502.19 -60.66,-1281.47 -51.72,-1263.08 -50.29,-1242.07 -10.28,-1167.37 97.72,-965.98 121.32,-931.16 128.16,-920.96 289.51,-619.32 363.67,-551.91 374.07,-538.48 388.74,-525.94 529.54,-405.55 539.09,-397.39 564.38,-383.96" fill="none" stroke="#bcbcbc" stroke-width="8" stroke-linecap="round" stroke-linejoin="round" /><polyline points="-718.24,1756.38 -367.10,1552.42 -304.59,1520.46 -288.29,1523.10" fill="none" stroke="#bcbcbc" stroke-width="8" stroke-linecap="round" stroke-linejoin="round" /><polyline points="-337.52,1464.59 -315.73,1438.70 -120.14,1048.45 -107.19,1022.86 -96.37,997.52 -33.19,841.30 -14.37,794.23 40.08,629.44 75.39,417.57 79.58,386.74" fill="none" stroke="#bcbcbc" stroke-width="8" stroke-linecap="round" stroke-linejoin="round" /><polyline points="-488.47,-830.47 -491.89,-826.96 -496.60,-810.54 -497.07,-808.90 -518.30,-727.17 -512.73,-705.84 -517.36,-686.71 -523.42,-661.67 -538.95,-643.68 -556.58,-572.28 -577.34,-556.59 -599.51,-541.39 -609.40,-534.61" fill="none" stroke="#bcbcbc" stroke-width="8" stroke-linecap="round" stroke-linejoin="round" /><polyline points="-1319.97,-449.55 -1310.95,-472.68 -1256.68,-611.78 -1244.85,-642.11 -1235.10,-667.09 -1165.77,-844.72 -1134.55,-918.98 -1131.27,-926.91 -1107.01,-985.56 -1052.58,-1120.71 -1032.65,-1178.24 -1028.21,-1191.43 -1022.25,-1206.40" fill="none" stroke="#bcbcbc" stroke-width="8" stroke-linecap="round" stroke-linejoin="round" /><polyline points="-712.78,-1292.73 -702.29,-1261.50 -357.92,-967.36 -170.01,-803.88 110.66,-559.91 135.16,-540.31 146.13,-533.45 194.83,-489.24 259.87,-433.77 407.40,-307.99 455.05,-267.01 486.67,-229.20" fill="none" stroke="#bcbcbc" stroke-width="8" stroke-linecap="round" stroke-linejoin="round" /><polyline points="-143.40,-1799.55 -125.93,-1810.75 -22.46,-1853.75 -1.20,-1876.12" fill="none" stroke="#bcbcbc" stroke-width="8" stroke-linecap="round" stroke-linejoin="round" /><polyline points="-23.89,818.03 -166.75,775.94 -425.34,699.88" fill="none" stroke="#bcbcbc" stroke-width="8" stroke-linecap="round" stroke-linejoin="round" /><polyline points="-485.04,-2220.56 -465.53,-2207.10 170.35,-2065.62" fill="none" stroke="#bcbcbc" stroke-width="8" stroke-linecap="round" stroke-linejoin="round" /><polyline points="300.41,-127.06 267.55,-200.18 194.62,-374.11 189.18,-387.93 176.70,-419.68 129.70,-539.30 126.74,-547.05" fill="none" stroke="#bcbcbc" stroke-width="8" stroke-linecap="round" stroke-linejoin="round" /><polyline points="-675.15,-1737.51 -710.46,-1747.56 -736.40,-1755.28 -789.13,-1770.94 -815.91,-1778.58 -831.26,-1782.84 -851.30,-1788.58" fill="none" stroke="#bcbcbc" stroke-width="8" stroke-linecap="round" stroke-linejoin="round" /><polyline points="-1595.62,-780.89 -1597.41,-786.73 -1599.05,-790.82 -1606.33,-808.90 -1634.52,-874.61 -1661.30,-941.36 -1667.09,-957.12 -1673.75,-975.27 -1678.52,-990.12 -1686.39,-1012.39 -1687.22,-1014.73 -1712.85,-1077.89 -1759.90,-1196.61 -1770.47,-1202.63 -1777.98,-1221.89 -1792.99,-1274.03 -1818.70,-1338.64 -1824.24,-1353.33" fill="none" stroke="#bcbcbc" stroke-width="8" stroke-linecap="round" stroke-linejoin="round" /><polyline points="-1369.59,1582.33 -1342.87,1590.51 -1256.42,1616.86 -1229.34,1625.11" fill="none" stroke="#bcbcbc" stroke-width="8" stroke-linecap="round" stroke-linejoin="round" /><polyline points="244.86,-1768.46 249.90,-1788.83 247.85,-1796.57 245.38,-1805.90 229.60,-1863.72 194.41,-1985.96 175.84,-2048.46 170.35,-2065.62 121.27,-2242.02 94.78,-2337.16 67.29,-2410.33 42.47,-2476.33 17.75,-2521.70 -6.28,-2545.68 -190.68,-2771.01 -204.33,-2787.05 -213.37,-2801.87" fill="none" stroke="#bcbcbc" stroke-width="8" stroke-linecap="round" stroke-linejoin="round" /><polyline points="-508.80,-1349.11 -518.31,-1345.47 -535.89,-1340.62 -537.66,-1340.14 -611.10,-1321.35 -695.54,-1297.58 -712.78,-1292.73 -720.46,-1290.29 -740.75,-1283.77 -758.09,-1278.94 -833.81,-1257.87 -958.35,-1222.50 -1004.77,-1210.76 -1022.25,-1206.40 -1105.24,-1186.02 -1156.51,-1171.74 -1265.07,-1141.41 -1372.38,-1111.17 -1384.80,-1107.72 -1474.48,-1082.83 -1515.85,-1071.35 -1536.74,-1061.48 -1576.28,-1041.87 -1654.82,-1002.02 -1660.29,-999.24 -1678.52,-990.12 -1689.64,-984.56 -1705.16,-976.42 -1760.34,-947.49 -1860.87,-891.09 -1944.85,-847.10 -1956.86,-840.80 -1972.91,-839.80 -1982.55,-834.68 -1984.47,-833.66 -2075.58,-783.73 -2094.66,-783.82 -2116.56,-772.36 -2124.21,-768.36 -2130.66,-764.98 -2145.89,-757.02 -2157.89,-729.65 -2209.45,-702.03 -2225.84,-693.25 -2243.58,-683.60 -2315.32,-644.56 -2352.41,-624.38 -2371.10,-618.99" fill="none" stroke="#bcbcbc" stroke-width="8" stroke-linecap="round" stroke-linejoin="round" /><polyline points="523.68,337.14 485.40,340.65 365.82,351.61 360.43,352.10 352.80,352.80 340.46,353.93 224.51,364.58 184.18,360.84 137.23,372.60 99.61,381.83 79.58,386.74 29.79,388.63 -13.30,386.43 -35.26,384.10 -53.95,378.45 -67.72,370.84 -118.99,334.58 -243.56,249.03 -255.30,241.06 -267.26,232.95 -276.21,224.30" fill="none" stroke="#bcbcbc" stroke-width="8" stroke-linecap="round" stroke-linejoin="round" /><polyline points="-2297.76,-1107.29 -2252.56,-1018.81 -2245.71,-993.52 -2207.64,-920.87 -2191.91,-900.09 -2128.27,-776.27 -2124.21,-768.36" fill="none" stroke="#bcbcbc" stroke-width="8" stroke-linecap="round" stroke-linejoin="round" /><polyline points="-912.55,-320.37 -919.32,-301.76 -921.22,-295.98 -930.05,-269.22 -985.97,-113.20 -1013.73,-35.72 -1014.67,-33.08 -1025.83,-9.00 -1032.22,5.31" fill="none" stroke="#bcbcbc" stroke-width="8" stroke-linecap="round" stroke-linejoin="round" /><polyline points="-170.65,-1689.56 -176.85,-1702.83 -193.15,-1704.97 -245.86,-1692.88 -256.57,-1694.27 -264.96,-1705.52 -279.88,-1774.10 -199.09,-1786.61 -161.69,-1797.65 -143.40,-1799.55 -123.70,-1729.52" fill="none" stroke="#bcbcbc" stroke-width="8" stroke-linecap="round" stroke-linejoin="round" /><polyline points="121.32,-931.16 142.13,-942.84 246.66,-1005.82 274.59,-1022.45 323.49,-1051.61 403.93,-1103.62 422.70,-1117.12 563.80,-1204.64" fill="none" stroke="#bcbcbc" stroke-width="8" stroke-linecap="round" stroke-linejoin="round" /><polyline points="614.54,-517.74 578.87,-528.37 558.13,-545.37 478.88,-613.95 476.18,-616.36 457.01,-633.46 445.75,-653.43 246.66,-1005.82" fill="none" stroke="#bcbcbc" stroke-width="8" stroke-linecap="round" stroke-linejoin="round" /><polyline points="-1632.35,-545.66 -1319.97,-449.55 -1294.48,-441.47 -1061.37,-367.58 -1056.51,-366.04 -1021.58,-354.96 -1004.41,-349.51 -982.10,-343.41 -936.08,-327.83 -912.55,-320.37 -891.37,-313.65 -717.89,-258.62 -534.75,-201.09 -519.61,-196.33 -498.61,-206.63" fill="none" stroke="#bcbcbc" stroke-width="8" stroke-linecap="round" stroke-linejoin="round" /><polyline points="-713.86,-2087.80 -578.54,-2212.12 -555.63,-2233.17" fill="none" stroke="#bcbcbc" stroke-width="8" stroke-linecap="round" stroke-linejoin="round" /><polyline points="-2979.75,-81.64 -2483.23,-28.43" fill="none" stroke="#bcbcbc" stroke-width="8" stroke-linecap="round" stroke-linejoin="round" /><polyline points="-1481.90,-1467.43 -1377.55,-1504.75 -1269.90,-1543.67 -1203.02,-1569.67 -998.82,-1643.93 -939.55,-1664.43 -927.17,-1668.71 -912.33,-1673.81 -895.66,-1679.54 -893.62,-1680.25 -859.98,-1693.77 -845.36,-1699.64" fill="none" stroke="#bcbcbc" stroke-width="8" stroke-linecap="round" stroke-linejoin="round" /><polyline points="-780.99,1057.78 -682.74,1178.98 -622.59,1239.54 -596.55,1258.28 -559.68,1289.16 -525.06,1318.23 -495.31,1347.25 -494.58,1362.00" fill="none" stroke="#bcbcbc" stroke-width="8" stroke-linecap="round" stroke-linejoin="round" /><polyline points="-675.15,-1737.51 -636.65,-1834.02 -574.32,-1992.91 -485.04,-2220.56 -440.91,-2328.40 -375.17,-2489.20 -321.25,-2620.92 -311.60,-2638.39 -264.19,-2715.90 -261.13,-2720.91 -243.78,-2755.02 -213.37,-2801.87 -196.38,-2828.02 -172.34,-2865.01" fill="none" stroke="#bcbcbc" stroke-width="8" stroke-linecap="round" stroke-linejoin="round" /><polyline points="-1583.54,842.84 -1589.85,847.88 -1594.01,853.89 -1602.51,878.93 -1608.38,897.01 -1635.51,978.13 -1639.24,989.83 -1641.56,997.09 -1666.47,989.95 -1727.09,969.62 -1787.17,949.48 -1833.60,946.85" fill="none" stroke="#bcbcbc" stroke-width="8" stroke-linecap="round" stroke-linejoin="round" /><polyline points="-2770.84,1407.29 -2671.83,1151.62 -2660.81,1123.79 -2650.93,1096.98 -2638.99,1064.59 -2624.35,1013.63 -2609.08,950.30 -2602.83,904.92 -2598.29,871.96 -2591.88,847.63 -2568.58,664.81 -2541.36,434.11 -2527.27,324.12 -2511.56,194.91 -2483.23,-28.43 -2478.73,-66.40 -2450.10,-299.97 -2450.09,-312.98 -2443.76,-382.29 -2425.50,-528.67 -2420.93,-554.21 -2416.15,-568.53 -2408.68,-584.30 -2401.43,-596.54 -2385.40,-613.89 -2371.07,-618.81" fill="none" stroke="#bcbcbc" stroke-width="8" stroke-linecap="round" stroke-linejoin="round" /><polyline points="-609.40,-534.61 -603.98,-526.03 -585.82,-497.69 -558.64,-454.11 -552.09,-443.72 -541.24,-451.96 -488.66,-491.87" fill="none" stroke="#bcbcbc" stroke-width="8" stroke-linecap="round" stroke-linejoin="round" /><polyline points="-574.33,-1992.91 -39.37,-1896.21 16.81,-1866.64 226.40,-1762.75 244.86,-1768.46" fill="none" stroke="#bcbcbc" stroke-width="8" stroke-linecap="round" stroke-linejoin="round" /><polyline points="-1595.62,-780.89 -1605.11,-767.04 -1690.46,-725.39 -1753.14,-645.73 -1820.78,-603.85 -1867.04,-568.92 -1911.17,-532.92 -1933.80,-512.30 -1973.77,-461.60 -2018.46,-397.54 -2025.83,-385.67" fill="none" stroke="#bcbcbc" stroke-width="8" stroke-linecap="round" stroke-linejoin="round" /><polyline points="-1505.39,-723.74 -1509.09,-715.51 -1517.19,-703.69 -1532.48,-684.87 -1622.63,-570.99 -1670.32,-442.54 -1911.07,-533.02" fill="none" stroke="#bcbcbc" stroke-width="8" stroke-linecap="round" stroke-linejoin="round" /><polyline points="-1867.04,-568.92 -1876.36,-597.14 -1916.65,-719.10 -1932.28,-743.20 -1958.46,-821.74 -1960.72,-828.51 -1956.86,-840.80 -1963.13,-860.82 -2089.01,-1262.73" fill="none" stroke="#bcbcbc" stroke-width="8" stroke-linecap="round" stroke-linejoin="round" /><polyline points="-392.06,-2761.85 -292.57,-2759.23 -287.93,-2759.10 -268.87,-2758.55 -243.78,-2755.02" fill="none" stroke="#bcbcbc" stroke-width="8" stroke-linecap="round" stroke-linejoin="round" /><polyline points="-903.77,478.72 -937.73,478.31 -1225.36,516.92 -1246.09,519.10 -1269.80,521.60 -1407.43,536.12 -1592.87,555.71 -1691.17,566.08 -1745.56,571.81 -1789.71,577.18 -1812.38,579.94 -1837.92,583.04 -1961.29,598.03 -1990.86,601.63 -2081.96,611.59 -2568.58,664.81" fill="none" stroke="#bcbcbc" stroke-width="8" stroke-linecap="round" stroke-linejoin="round" /><polyline points="-1329.62,1477.33 -1355.10,1469.13 -1474.11,1430.82 -1498.17,1423.08 -1519.05,1416.36 -1645.13,1375.84 -1669.99,1367.85 -1702.88,1357.26 -1903.59,1292.68 -1926.18,1285.41" fill="none" stroke="#bcbcbc" stroke-width="8" stroke-linecap="round" stroke-linejoin="round" /><polyline points="-831.98,-932.11 -762.75,-910.54 -509.60,-832.37 -507.24,-831.64 -488.47,-830.47" fill="none" stroke="#bcbcbc" stroke-width="8" stroke-linecap="round" stroke-linejoin="round" /><polyline points="-119.68,-1502.19 224.69,-1496.13" fill="none" stroke="#bcbcbc" stroke-width="8" stroke-linecap="round" stroke-linejoin="round" /><polyline points="-288.29,1523.10 -337.52,1464.59 -358.18,1440.57 -375.92,1423.99 -399.55,1406.34 -447.85,1377.37 -494.58,1362.00 -589.66,1332.64 -667.42,1307.96 -622.59,1239.54" fill="none" stroke="#bcbcbc" stroke-width="8" stroke-linecap="round" stroke-linejoin="round" /><polyline points="-780.99,1057.78 -849.54,973.17 -862.58,957.08 -931.62,861.97 -947.25,832.93 -943.50,798.35 -922.68,798.15 -871.33,808.03 -793.19,823.06" fill="none" stroke="#bcbcbc" stroke-width="8" stroke-linecap="round" stroke-linejoin="round" /><polyline points="-1677.70,379.91 -1665.06,407.10 -1592.87,555.71 -1485.52,776.68 -1471.83,804.86" fill="none" stroke="#bcbcbc" stroke-width="8" stroke-linecap="round" stroke-linejoin="round" /><polyline points="-2833.96,1053.00 -2808.14,1063.56 -2687.21,1112.99 -2660.81,1123.79 -2633.04,1135.14 -2490.66,1193.36 -2464.91,1203.90" fill="none" stroke="#bcbcbc" stroke-width="8" stroke-linecap="round" stroke-linejoin="round" /><polyline points="-1618.28,159.57 -1366.34,269.79" fill="none" stroke="#bcbcbc" stroke-width="8" stroke-linecap="round" stroke-linejoin="round" /><polyline points="-488.47,-830.47 -450.09,-828.45 -447.65,-826.27 -430.42,-811.00 -405.12,-788.41 -400.45,-779.32 -313.22,-702.94 -306.77,-690.76 -245.43,-636.63 -230.00,-631.92 -182.28,-590.14 -171.60,-585.25 -99.64,-524.21 -83.62,-510.01 -74.78,-495.95" fill="none" stroke="#bcbcbc" stroke-width="8" stroke-linecap="round" stroke-linejoin="round" /><polyline points="-2905.08,159.82 -2511.56,194.91" fill="none" stroke="#bcbcbc" stroke-width="8" stroke-linecap="round" stroke-linejoin="round" /><polyline points="-2026.43,1625.09 -2014.23,1599.13 -2011.10,1587.58 -1994.01,1524.58 -1932.11,1306.31 -1926.18,1285.41 -1919.92,1262.49 -1891.88,1159.94 -1844.52,986.77 -1833.60,946.85" fill="none" stroke="#bcbcbc" stroke-width="8" stroke-linecap="round" stroke-linejoin="round" /><polyline points="-1677.70,379.91 -1618.28,159.57 -1744.26,115.50 -1777.24,134.98 -1792.28,146.42 -1803.41,161.47 -1811.24,181.35 -1840.22,288.43 -1816.84,300.33 -1793.23,306.06 -1741.02,319.65 -1701.94,332.10 -1677.70,379.91" fill="none" stroke="#bcbcbc" stroke-width="8" stroke-linecap="round" stroke-linejoin="round" /><polyline points="-1840.22,288.43 -1867.81,284.59 -2511.56,194.91" fill="none" stroke="#bcbcbc" stroke-width="8" stroke-linecap="round" stroke-linejoin="round" /><polyline points="-793.19,823.06 -733.48,836.11 -571.99,887.43 -526.84,901.71 -419.67,932.66 -311.70,963.80 -231.77,986.89 -103.94,1023.79 -77.53,1031.43 -13.02,1053.05 93.18,1081.34 102.55,1083.09" fill="none" stroke="#bcbcbc" stroke-width="8" stroke-linecap="round" stroke-linejoin="round" /><polyline points="-717.44,1755.92 -739.24,1761.39 -762.79,1827.04 -799.32,1816.67 -965.41,1760.06 -985.41,1755.80 -1029.88,1752.61 -1231.02,1753.42 -1275.36,1747.77 -1375.50,1732.46 -1415.88,1725.90 -1702.36,1679.70 -1813.29,1662.00 -2024.86,1625.36 -2059.01,1618.59 -2536.47,1485.14 -2566.60,1476.71 -2770.84,1407.29 -2821.09,1389.47 -2946.60,1337.46 -3018.14,1310.39" fill="none" stroke="#bcbcbc" stroke-width="8" stroke-linecap="round" stroke-linejoin="round" /><polyline points="-279.88,-1774.10 -300.55,-1778.36 -576.49,-1745.74 -675.15,-1737.51" fill="none" stroke="#bcbcbc" stroke-width="8" stroke-linecap="round" stroke-linejoin="round" /><polyline points="-793.19,823.06 -783.52,806.88 -725.61,658.17 -660.91,433.30 -644.41,384.87 -635.58,371.69 -573.11,171.18 -570.01,147.24 -567.64,131.60" fill="none" stroke="#bcbcbc" stroke-width="8" stroke-linecap="round" stroke-linejoin="round" /><polyline points="-508.80,-1349.11 -502.21,-1351.63 -493.27,-1358.73 -479.70,-1374.61 -303.50,-1627.41 -256.57,-1694.27" fill="none" stroke="#bcbcbc" stroke-width="8" stroke-linecap="round" stroke-linejoin="round" /><polyline points="275.40,-420.44 279.00,-430.82 367.58,-535.02 374.07,-538.48 389.46,-559.53 440.99,-618.71 457.01,-633.46" fill="none" stroke="#bcbcbc" stroke-width="8" stroke-linecap="round" stroke-linejoin="round" /><polyline points="-1974.17,-158.91 -1909.76,-309.90 -1906.18,-319.71" fill="none" stroke="#bcbcbc" stroke-width="8" stroke-linecap="round" stroke-linejoin="round" /><polyline points="-276.59,-435.78 -245.54,-447.81 -229.31,-454.09 -216.76,-466.80 -165.00,-479.56 -147.63,-475.14 -110.17,-484.79 -81.59,-492.15 -74.78,-495.95 -47.07,-502.73 94.62,-537.45 126.74,-547.05" fill="none" stroke="#bcbcbc" stroke-width="8" stroke-linecap="round" stroke-linejoin="round" /><polyline points="-1583.54,842.84 -1516.70,818.57 -1494.34,811.73 -1471.83,804.86 -1430.29,792.17 -1397.98,787.53 -1287.62,775.45 -1265.44,774.24 -1166.70,775.09 -1106.54,775.60 -1083.92,774.44 -1047.69,778.11 -1036.36,779.73 -1013.26,783.04 -943.50,798.35" fill="none" stroke="#bcbcbc" stroke-width="8" stroke-linecap="round" stroke-linejoin="round" /><polyline points="-1265.07,-1141.41 -1276.15,-1178.84 -1317.27,-1317.89 -1367.23,-1476.45 -1377.55,-1504.75 -1388.02,-1531.28 -1401.26,-1569.51" fill="none" stroke="#bcbcbc" stroke-width="8" stroke-linecap="round" stroke-linejoin="round" /><polyline points="-1384.69,1100.60 -1375.91,1072.86 -1287.06,792.68 -1287.62,775.45" fill="none" stroke="#bcbcbc" stroke-width="8" stroke-linecap="round" stroke-linejoin="round" /><polyline points="-1265.44,774.24 -1247.85,538.33 -1246.09,519.10 -1243.40,496.72 -1243.35,495.70 -1242.20,468.34 -1236.33,394.09 -1233.02,359.50 -1228.49,320.21 -1224.36,291.93 -1220.66,274.16 -1216.01,260.74 -1206.87,230.48 -1188.00,167.50 -1164.00,86.19 -1137.53,3.05 -1132.14,-13.91 -1127.80,-26.20" fill="none" stroke="#bcbcbc" stroke-width="8" stroke-linecap="round" stroke-linejoin="round" /><polyline points="-1840.22,288.43 -1844.89,309.34 -1844.09,316.02 -1815.42,554.67 -1812.38,579.94 -1813.70,605.94 -1821.21,754.37 -1824.35,816.38 -1825.97,848.36 -1828.85,905.38 -1830.35,935.07 -1833.60,946.85" fill="none" stroke="#bcbcbc" stroke-width="8" stroke-linecap="round" stroke-linejoin="round" /><polyline points="-1974.17,-158.91 -2078.40,-189.89 -2091.64,-198.39 -2156.51,-217.28 -2174.73,-217.09 -2256.24,-241.64 -2269.40,-251.36 -2343.57,-273.84 -2434.57,-298.64 -2435.01,-298.68 -2450.10,-299.97" fill="none" stroke="#bcbcbc" stroke-width="8" stroke-linecap="round" stroke-linejoin="round" /><polyline points="-74.78,-495.95 -71.16,-491.20 -56.05,-468.67 -28.11,-427.03 -1.81,-400.68 48.75,-343.93 40.20,-291.48 35.86,-271.82 29.83,-263.50 42.51,-244.75 62.11,-204.39 101.31,-128.79 120.61,-91.56 132.60,-58.10 138.02,-42.57" fill="none" stroke="#bcbcbc" stroke-width="8" stroke-linecap="round" stroke-linejoin="round" /><polyline points="189.18,-387.93 174.65,-383.41 78.94,-353.63 65.22,-349.22 48.75,-343.93" fill="none" stroke="#bcbcbc" stroke-width="8" stroke-linecap="round" stroke-linejoin="round" /><polyline points="-498.61,-206.63 -468.68,-216.33 -251.43,-327.26 -222.35,-341.47 -119.96,-371.04 -20.68,-398.95 -1.81,-400.68" fill="none" stroke="#bcbcbc" stroke-width="8" stroke-linecap="round" stroke-linejoin="round" /><polyline points="-474.94,-69.30 -224.48,-185.85 -213.94,-192.83 -189.45,-199.95 -22.55,-248.51 2.76,-258.20 29.83,-263.50" fill="none" stroke="#bcbcbc" stroke-width="8" stroke-linecap="round" stroke-linejoin="round" /><polyline points="-526.05,-2512.63 -424.66,-2500.11 -414.48,-2498.85 -375.17,-2489.20" fill="none" stroke="#bcbcbc" stroke-width="8" stroke-linecap="round" stroke-linejoin="round" /><polyline points="340.35,-1481.92 358.33,-1485.67 425.52,-1452.74 434.37,-1443.98 560.48,-1230.52 563.80,-1204.64 580.20,-1190.98 577.59,-1181.54 577.19,-1166.15 579.47,-1144.64 612.86,-1007.38 615.82,-912.31 620.50,-760.51 628.35,-556.19 596.37,-467.16 575.76,-412.88 545.68,-336.39 536.97,-314.27 531.31,-308.09 522.22,-248.90" fill="none" stroke="#bcbcbc" stroke-width="8" stroke-linecap="round" stroke-linejoin="round" /><polyline points="573.51,111.68 542.84,98.33 466.20,44.85 365.07,-26.20 309.46,-71.18 271.94,-111.36" fill="none" stroke="#bcbcbc" stroke-width="8" stroke-linecap="round" stroke-linejoin="round" /><polyline points="-667.42,1307.96 -697.54,1298.41 -746.42,1282.92 -769.75,1275.52 -797.15,1266.83 -831.77,1255.86 -863.07,1245.94 -894.00,1236.12 -1031.98,1192.34 -1056.14,1184.67 -1086.16,1175.17 -1092.78,1173.08 -1171.69,1152.23 -1193.97,1146.84 -1221.90,1140.08 -1251.13,1132.99 -1356.45,1107.45 -1384.69,1100.60 -1415.04,1090.07 -1478.46,1068.04 -1502.36,1059.75 -1523.74,1052.81 -1623.04,1017.50 -1635.54,1010.05 -1641.56,997.09" fill="none" stroke="#bcbcbc" stroke-width="8" stroke-linecap="round" stroke-linejoin="round" /><polyline points="-213.94,-192.83 -221.25,-219.04 -243.05,-297.20 -251.43,-327.26 -263.55,-349.72 -264.67,-353.89 -271.82,-380.35 -263.50,-392.07 -273.49,-425.42 -276.59,-435.78" fill="none" stroke="#bcbcbc" stroke-width="8" stroke-linecap="round" stroke-linejoin="round" /><polyline points="-250.38,-1149.27 -229.66,-1159.03 -116.44,-1221.45 -51.72,-1263.08 -6.07,-1294.22 4.01,-1301.72 40.75,-1327.26 78.83,-1355.38 102.93,-1372.92 131.67,-1393.94 231.56,-1439.01 244.51,-1438.32 263.45,-1447.28 340.36,-1481.92" fill="none" stroke="#bcbcbc" stroke-width="8" stroke-linecap="round" stroke-linejoin="round" /><polyline points="-1505.39,-723.74 -1489.06,-717.11 -1478.26,-713.80 -1275.78,-651.61 -1244.85,-642.11" fill="none" stroke="#bcbcbc" stroke-width="8" stroke-linecap="round" stroke-linejoin="round" /><polyline points="-2951.68,-268.42 -3096.35,-312.20" fill="none" stroke="#bcbcbc" stroke-width="8" stroke-linecap="round" stroke-linejoin="round" /><polyline points="-614.96,-2308.32 -579.09,-2262.89 -573.74,-2256.11 -555.63,-2233.17 -535.00,-2230.75 -492.58,-2225.77 -485.04,-2220.56" fill="none" stroke="#bcbcbc" stroke-width="8" stroke-linecap="round" stroke-linejoin="round" /><polyline points="630.54,-287.47 573.71,-276.87 515.43,-245.21 461.41,-215.14 410.31,-189.59 348.58,-156.06 303.87,-128.92 215.52,-81.55 -129.36,91.95 -218.77,131.33 -277.85,156.88 -307.12,166.46 -331.34,170.98 -370.99,173.38 -427.40,165.40 -568.17,131.60 -768.02,85.03 -1030.94,5.73 -1127.80,-26.20 -1286.41,-75.17 -1438.09,-125.19 -1660.56,-212.48 -1771.79,-260.37 -1905.91,-319.98 -2128.38,-441.85 -2180.54,-476.45 -2312.53,-559.47 -2367.88,-614.82 -2450.91,-722.32 -2587.69,-863.35 -2641.44,-910.71" fill="none" stroke="#bcbcbc" stroke-width="8" stroke-linecap="round" stroke-linejoin="round" /><polyline points="-447.85,1377.37 -445.52,1364.37 -437.10,1343.13 -358.21,1158.54 -328.41,1089.35 -293.28,1003.13 -284.73,971.58" fill="none" stroke="#bcbcbc" stroke-width="8" stroke-linecap="round" stroke-linejoin="round" /><polyline points="-1961.29,598.03 -2050.91,554.66 -2254.82,455.97 -2504.95,334.93 -2527.27,324.12" fill="none" stroke="#bcbcbc" stroke-width="8" stroke-linecap="round" stroke-linejoin="round" /><polyline points="-488.47,-830.47 -465.84,-853.63 -405.67,-915.22 -357.92,-967.36" fill="none" stroke="#bcbcbc" stroke-width="8" stroke-linecap="round" stroke-linejoin="round" /><polyline points="-2225.84,-693.25 -2250.70,-726.16 -2367.20,-880.39 -2533.48,-1014.95" fill="none" stroke="#bcbcbc" stroke-width="8" stroke-linecap="round" stroke-linejoin="round" /><polyline points="-2947.49,1337.08 -2924.75,1283.15 -2852.45,1102.90 -2843.69,1079.24 -2833.96,1053.00 -2830.27,1043.53 -2829.30,1028.70 -2820.04,888.57 -2817.38,848.37" fill="none" stroke="#bcbcbc" stroke-width="8" stroke-linecap="round" stroke-linejoin="round" /><polyline points="-2996.82,-111.87 -2951.68,-268.42 -2892.13,-474.89 -2884.76,-500.45 -2876.56,-529.48 -2858.21,-594.50 -2856.28,-601.33 -2851.03,-622.23 -2842.64,-645.86 -2840.62,-651.58 -2830.03,-677.82 -2809.25,-723.66 -2803.03,-736.82" fill="none" stroke="#bcbcbc" stroke-width="8" stroke-linecap="round" stroke-linejoin="round" /><polyline points="-2884.76,-500.45 -2793.43,-477.10 -2599.96,-427.37 -2489.74,-393.05 -2443.76,-382.28" fill="none" stroke="#bcbcbc" stroke-width="8" stroke-linecap="round" stroke-linejoin="round" /><polyline points="-1004.77,-1210.76 -1001.67,-1229.77 -998.54,-1249.50 -985.15,-1315.51 -951.67,-1469.15 -924.18,-1606.58 -919.15,-1635.10 -912.33,-1673.81 -912.32,-1673.85" fill="none" stroke="#bcbcbc" stroke-width="8" stroke-linecap="round" stroke-linejoin="round" /><polyline points="-1275.19,1747.80 -1234.41,1643.79 -1229.34,1625.11 -1067.51,1214.31 -1056.14,1184.67 -1046.94,1159.54 -950.24,878.21 -931.62,861.97" fill="none" stroke="#bcbcbc" stroke-width="8" stroke-linecap="round" stroke-linejoin="round" /><polyline points="-720.46,-1290.29 -720.47,-1290.32 -726.20,-1320.41 -727.10,-1324.06 -741.08,-1380.91 -741.07,-1381.10 -750.60,-1419.64 -790.98,-1558.04 -796.07,-1572.86 -823.35,-1647.00 -832.21,-1669.13 -837.93,-1683.40 -845.35,-1699.62 -845.36,-1699.64 -845.37,-1699.71 -850.78,-1759.32 -851.30,-1788.58" fill="none" stroke="#bcbcbc" stroke-width="8" stroke-linecap="round" stroke-linejoin="round" /><polyline points="-780.99,1057.78 -791.38,1069.00 -806.85,1087.41 -850.45,1210.34 -863.07,1245.94" fill="none" stroke="#bcbcbc" stroke-width="8" stroke-linecap="round" stroke-linejoin="round" /><polyline points="-1505.39,-723.74 -1499.43,-739.88 -1498.09,-743.63 -1469.77,-822.71 -1459.16,-856.02 -1372.38,-1111.17" fill="none" stroke="#bcbcbc" stroke-width="8" stroke-linecap="round" stroke-linejoin="round" /><polyline points="-1056.51,-366.04 -1047.65,-389.55 -1023.67,-453.24 -1013.54,-480.17 -1006.67,-498.40 -987.43,-549.51 -974.72,-583.27 -973.01,-587.81 -942.21,-669.61 -929.34,-665.62 -922.36,-684.61 -910.03,-718.20 -912.39,-733.46 -879.63,-822.64 -876.27,-831.80 -870.05,-837.51 -864.83,-842.31 -831.98,-932.11 -827.23,-956.69 -780.09,-1087.64 -768.95,-1096.36 -746.27,-1160.52 -750.30,-1170.36 -730.44,-1230.27 -740.75,-1283.77" fill="none" stroke="#bcbcbc" stroke-width="8" stroke-linecap="round" stroke-linejoin="round" /><polyline points="-213.37,-2801.87 -226.57,-2823.54 -295.97,-2937.38" fill="none" stroke="#bcbcbc" stroke-width="8" stroke-linecap="round" stroke-linejoin="round" /><polyline points="4.01,-1301.72 322.50,-1096.93 322.59,-1096.79 322.59,-1096.76 381.49,-1089.11" fill="none" stroke="#bcbcbc" stroke-width="8" stroke-linecap="round" stroke-linejoin="round" /><polyline points="-123.70,-1729.52 215.16,-1559.44 225.38,-1551.81 224.69,-1496.14 231.56,-1439.01" fill="none" stroke="#bcbcbc" stroke-width="8" stroke-linecap="round" stroke-linejoin="round" /><polyline points="-769.75,1275.52 -781.94,1312.70 -831.31,1463.27 -915.29,1716.85 -921.25,1734.84 -927.29,1753.07 -928.97,1772.48" fill="none" stroke="#bcbcbc" stroke-width="8" stroke-linecap="round" stroke-linejoin="round" /><polyline points="184.18,360.84 186.21,341.95 186.65,324.32 186.51,323.71 174.50,271.81 169.57,250.12 167.20,239.65 164.77,228.96 151.59,170.90 125.84,54.86 107.13,-14.91 104.48,-25.69" fill="none" stroke="#bcbcbc" stroke-width="8" stroke-linecap="round" stroke-linejoin="round" /><polyline points="-1498.17,1423.08 -1489.77,1399.21 -1395.41,1131.05 -1384.69,1100.60" fill="none" stroke="#bcbcbc" stroke-width="8" stroke-linecap="round" stroke-linejoin="round" /><polyline points="620.50,-760.51 592.74,-768.34 404.21,-1057.62 381.49,-1089.11" fill="none" stroke="#bcbcbc" stroke-width="8" stroke-linecap="round" stroke-linejoin="round" /><polyline points="-2478.73,-66.40 -1791.63,98.20 -1744.26,115.50" fill="none" stroke="#bcbcbc" stroke-width="8" stroke-linecap="round" stroke-linejoin="round" /><polyline points="-311.60,-2638.39 -43.96,-2539.25 -6.28,-2545.68" fill="none" stroke="#bcbcbc" stroke-width="8" stroke-linecap="round" stroke-linejoin="round" />
    <polyline points="352.80,352.80 351.57,338.86 350.62,328.07 345.96,307.45 340.38,294.00 333.42,258.66 332.79,245.86 328.07,217.26 306.99,206.24 290.14,212.69 259.98,219.91 236.12,223.64 213.22,229.16 181.61,236.37 167.20,239.65" fill="none" stroke="#ffffff" stroke-width="16" stroke-linecap="round" stroke-linejoin="round" />
    <polyline points="352.80,352.80 351.57,338.86 350.62,328.07 345.96,307.45 340.38,294.00 333.42,258.66 332.79,245.86 328.07,217.26 306.99,206.24 290.14,212.69 259.98,219.91 236.12,223.64 213.22,229.16 181.61,236.37 167.20,239.65" fill="none" stroke="#111111" stroke-width="9" stroke-linecap="round" stroke-linejoin="round" />
    
            <g transform="translate(352.80,352.80)">
              <circle r="19" fill="#ffffff" stroke="#111111" stroke-width="4" />
              <text text-anchor="middle" dominant-baseline="central" font-family="Helvetica, Arial, sans-serif"
                font-size="18" font-weight="700" fill="#111111">1</text>
            </g>
            
            <g transform="translate(167.20,239.65)">
              <circle r="19" fill="#ffffff" stroke="#111111" stroke-width="4" />
              <text text-anchor="middle" dominant-baseline="central" font-family="Helvetica, Arial, sans-serif"
                font-size="18" font-weight="700" fill="#111111">2</text>
            </g>
            
  </g>
</svg>
