<svg xmlns="http://www.w3.org/2000/svg" width="520" height="520" viewBox="0 0 520 520">
  <rect width="100%" height="100%" fill="#ffffff" />
  <g>
    <polyline points="2744.74,-1122.04 2751.82,-1084.41 2797.47,-765.01 2790.49,-685.16" fill="none" stroke="#bcbcbc" stroke-width="8" stroke-linecap="round" stroke-linejoin="round" /><polyline points="1816.73,1539.58 1827.77,1505.65 1886.25,1325.77 1893.15,1304.58 1900.12,1282.33 2047.19,813.35 2059.01,775.64 2031.93,708.92" fill="none" stroke="#bcbcbc" stroke-width="8" stroke-linecap="round" stroke-linejoin="round" /><polyline points="800.89,1122.45 798.51,1095.52 846.59,826.24 853.34,792.55 858.37,774.91 871.61,706.61 886.48,623.03 902.68,549.42 918.76,475.97 928.87,455.26 935.49,442.57" fill="none" stroke="#bcbcbc" stroke-width="8" stroke-linecap="round" stroke-linejoin="round" /><polyline points="1079.97,-777.06 1068.54,-811.91 950.38,-1172.27 944.62,-1187.38" fill="none" stroke="#bcbcbc" stroke-width="8" stroke-linecap="round" stroke-linejoin="round" /><polyline points="473.69,2394.49 477.22,2360.11 478.65,2344.33 491.51,2202.05 505.59,2076.77 508.88,2047.51 511.94,2012.41 512.27,2009.46 520.26,1939.69 527.14,1868.76 534.72,1800.32 539.83,1747.03 541.96,1714.15 543.84,1683.78 547.19,1649.56" fill="none" stroke="#bcbcbc" stroke-width="8" stroke-linecap="round" stroke-linejoin="round" /><polyline points="2106.30,1623.19 2114.72,1596.74 2174.01,1410.35 2180.75,1389.18 2190.32,1359.01 2197.18,1337.39 2249.66,1111.05" fill="none" stroke="#bcbcbc" stroke-width="8" stroke-linecap="round" stroke-linejoin="round" /><polyline points="1875.83,-2063.51 1897.72,-2060.15 2501.08,-1967.44" fill="none" stroke="#bcbcbc" stroke-width="8" stroke-linecap="round" stroke-linejoin="round" /><polyline points="326.91,1579.27 264.11,1576.35 225.82,1574.57 205.02,1573.60 186.77,1572.75 44.56,1566.14 -153.24,1556.94 -247.52,1543.57 -279.07,1539.10 -306.46,1534.26 -491.89,1501.54 -517.81,1496.96 -523.55,1495.98 -555.56,1490.49 -580.17,1486.27 -737.30,1472.38 -767.22,1469.74 -778.20,1468.77 -812.17,1466.41 -878.69,1461.80" fill="none" stroke="#bcbcbc" stroke-width="8" stroke-linecap="round" stroke-linejoin="round" /><polyline points="1239.28,1397.08 1251.45,1362.46 1361.06,1058.61 1492.92,675.36 1501.37,651.32 1507.25,634.53 1512.03,620.74" fill="none" stroke="#bcbcbc" stroke-width="8" stroke-linecap="round" stroke-linejoin="round" /><polyline points="-778.20,1468.77 -781.00,1449.23 -781.66,1428.01 -777.50,1385.28 -767.96,1307.26 -761.59,1281.07 -751.26,1186.40 -749.38,1165.31 -746.35,1138.20 -744.11,1118.06 -739.87,1095.24 -732.02,1033.83 -726.57,986.85 -718.56,967.64" fill="none" stroke="#bcbcbc" stroke-width="8" stroke-linecap="round" stroke-linejoin="round" /><polyline points="-890.39,943.63 -744.18,964.06 -718.56,967.64 -702.68,970.17 -637.15,980.61 -486.15,1004.67 -460.24,1008.99" fill="none" stroke="#bcbcbc" stroke-width="8" stroke-linecap="round" stroke-linejoin="round" /><polyline points="1800.32,-974.33 1801.27,-961.04 1803.24,-947.59 1807.99,-937.28 1816.88,-925.79 1833.32,-910.82 1872.28,-887.12 2172.89,-698.53 2358.03,-450.31 2497.87,-105.20 2506.99,-82.40" fill="none" stroke="#bcbcbc" stroke-width="8" stroke-linecap="round" stroke-linejoin="round" /><polyline points="1752.19,32.65 1758.42,42.96 1760.04,45.64 1765.19,71.67 1800.47,242.22 1811.66,296.35 1819.67,334.90 1832.16,413.05 1837.99,449.09 1842.01,471.07 1846.42,490.93 1851.68,502.52 1859.40,515.93 1863.53,522.26 1941.64,634.08 1983.88,700.61 1994.90,716.51" fill="none" stroke="#bcbcbc" stroke-width="8" stroke-linecap="round" stroke-linejoin="round" /><polyline points="-490.10,2168.08 -485.95,2142.49 -482.08,2123.98 -481.05,2121.53 -429.06,1997.92 -395.94,1917.58 -385.87,1892.12 -375.21,1865.16 -363.63,1841.98 -361.75,1837.45 -345.90,1799.14 -333.65,1765.23 -323.14,1734.13 -316.46,1712.15 -308.98,1684.99 -300.36,1648.57 -293.81,1619.02 -285.99,1577.78 -284.34,1568.59 -279.07,1539.10" fill="none" stroke="#bcbcbc" stroke-width="8" stroke-linecap="round" stroke-linejoin="round" /><polyline points="2028.66,-1283.86 2194.43,-1168.03 2216.76,-1163.29 2233.10,-1144.59" fill="none" stroke="#bcbcbc" stroke-width="8" stroke-linecap="round" stroke-linejoin="round" /><polyline points="1332.62,-214.14 1354.52,-205.71 1449.64,-174.60 1670.26,-89.99 1682.64,-77.65 1688.45,-68.44" fill="none" stroke="#bcbcbc" stroke-width="8" stroke-linecap="round" stroke-linejoin="round" /><polyline points="1743.74,1959.99 1758.76,1920.83 1832.93,1719.61 1885.38,1567.57 1896.25,1562.57" fill="none" stroke="#bcbcbc" stroke-width="8" stroke-linecap="round" stroke-linejoin="round" /><polyline points="695.31,1704.84 707.01,1678.96 708.17,1676.40 728.20,1609.23 761.00,1498.67 769.40,1470.38 775.92,1448.40 776.80,1435.59 775.47,1407.24" fill="none" stroke="#bcbcbc" stroke-width="8" stroke-linecap="round" stroke-linejoin="round" /><polyline points="2058.58,41.48 2039.78,45.36 1997.17,37.78 1990.57,20.20 1916.73,-7.94 1899.27,-3.38 1832.66,-27.84 1822.72,-20.90" fill="none" stroke="#bcbcbc" stroke-width="8" stroke-linecap="round" stroke-linejoin="round" /><polyline points="1948.95,-2242.36 1982.41,-2234.16 2000.92,-2230.95 2441.05,-2154.64" fill="none" stroke="#bcbcbc" stroke-width="8" stroke-linecap="round" stroke-linejoin="round" /><polyline points="1606.88,1837.45 1625.18,1785.83 1660.76,1685.52 1683.75,1642.79 1716.84,1550.16 1730.05,1513.18" fill="none" stroke="#bcbcbc" stroke-width="8" stroke-linecap="round" stroke-linejoin="round" /><polyline points="-804.64,-165.89 -836.52,-167.35 -844.51,-157.64 -900.05,-90.16 -1094.18,134.08 -1121.48,165.62" fill="none" stroke="#bcbcbc" stroke-width="8" stroke-linecap="round" stroke-linejoin="round" /><polyline points="898.16,26.17 884.10,57.33 882.39,61.10 833.50,188.59 784.22,328.93 771.08,366.36 763.63,385.68" fill="none" stroke="#bcbcbc" stroke-width="8" stroke-linecap="round" stroke-linejoin="round" /><polyline points="1615.32,-1406.32 1630.85,-1385.25 1641.94,-1356.27 1659.20,-1314.69 1686.89,-1249.27 1711.43,-1190.55 1739.58,-1126.07 1760.47,-1076.38 1763.56,-1069.25 1763.75,-1068.81 1780.56,-1029.50 1785.59,-1018.34 1790.37,-1007.70 1795.42,-997.74 1799.22,-987.61 1800.33,-974.33" fill="none" stroke="#bcbcbc" stroke-width="8" stroke-linecap="round" stroke-linejoin="round" /><polyline points="426.29,654.63 434.41,650.19 445.79,641.15 451.48,629.43 527.01,343.02 529.29,326.86 538.50,297.36" fill="none" stroke="#bcbcbc" stroke-width="8" stroke-linecap="round" stroke-linejoin="round" /><polyline points="3067.48,206.44 3078.19,240.44 3085.74,276.17 3071.06,412.30 3054.08,514.70 3044.82,549.63 3043.98,552.79 3035.86,571.64 3024.80,591.63 2998.95,624.32 3011.46,688.22 2970.98,825.39 2948.63,901.15 2902.90,1025.14 2835.94,1176.12 2754.17,1320.80 2728.64,1367.83 2682.47,1445.08 2498.02,1706.87 2457.60,1761.32 2301.11,1965.84 2211.26,2068.05 2085.59,2195.78 2073.95,2196.98 2045.57,2220.19" fill="none" stroke="#bcbcbc" stroke-width="8" stroke-linecap="round" stroke-linejoin="round" /><polyline points="791.49,2445.75 842.98,2286.06 851.40,2259.69 862.84,2243.08 887.43,2169.28 895.44,2144.21 997.02,1826.17 1007.24,1794.18 1015.66,1766.08 1135.53,1388.80" fill="none" stroke="#bcbcbc" stroke-width="8" stroke-linecap="round" stroke-linejoin="round" /><polyline points="1997.69,-524.03 2042.20,-572.66 2055.33,-588.48 2145.26,-715.87" fill="none" stroke="#bcbcbc" stroke-width="8" stroke-linecap="round" stroke-linejoin="round" /><polyline points="1108.03,-504.75 1230.60,-462.09 1237.38,-451.08 1272.18,-439.41 1292.84,-432.35 1391.64,-398.97" fill="none" stroke="#bcbcbc" stroke-width="8" stroke-linecap="round" stroke-linejoin="round" /><polyline points="2176.41,-1352.98 2233.10,-1144.59 2298.74,-899.11 2308.69,-878.64 2310.27,-855.29 2354.78,-772.20 2474.89,-548.21 2501.14,-509.48 2508.74,-498.14 2688.20,-162.65 2770.67,-87.67 2782.24,-72.74 2798.55,-58.79 2955.15,75.11 2965.77,84.19 2993.89,99.12" fill="none" stroke="#bcbcbc" stroke-width="8" stroke-linecap="round" stroke-linejoin="round" /><polyline points="1567.40,2479.65 1957.93,2252.79 2027.44,2217.25 2045.57,2220.19" fill="none" stroke="#bcbcbc" stroke-width="8" stroke-linecap="round" stroke-linejoin="round" /><polyline points="1990.82,2155.11 2015.05,2126.31 2232.59,1692.27 2247.00,1663.81 2259.03,1635.63 2329.29,1461.87 2350.22,1409.52 2410.78,1226.24 2450.05,990.60 2454.71,956.30" fill="none" stroke="#bcbcbc" stroke-width="8" stroke-linecap="round" stroke-linejoin="round" /><polyline points="1822.94,-397.49 1819.14,-393.58 1813.90,-375.32 1813.37,-373.50 1789.77,-282.60 1795.96,-258.87 1790.81,-237.60 1784.07,-209.75 1766.80,-189.74 1747.19,-110.33 1724.10,-92.88 1699.45,-75.98 1688.45,-68.44" fill="none" stroke="#bcbcbc" stroke-width="8" stroke-linecap="round" stroke-linejoin="round" /><polyline points="898.16,26.17 908.20,0.45 968.55,-154.26 981.71,-188.00 992.56,-215.78 1069.66,-413.34 1104.38,-495.94 1108.03,-504.75 1135.01,-569.99 1195.55,-720.30 1217.72,-784.29 1222.65,-798.96 1229.28,-815.60" fill="none" stroke="#bcbcbc" stroke-width="8" stroke-linecap="round" stroke-linejoin="round" /><polyline points="1573.47,-911.62 1585.14,-876.89 1968.13,-549.75 2177.13,-367.92 2489.28,-96.57 2516.52,-74.77 2528.73,-67.14 2582.90,-17.97 2655.23,43.73 2819.30,183.62 2872.30,229.19 2907.46,271.25" fill="none" stroke="#bcbcbc" stroke-width="8" stroke-linecap="round" stroke-linejoin="round" /><polyline points="2206.71,-1475.32 2226.15,-1487.77 2341.23,-1535.60 2364.87,-1560.48" fill="none" stroke="#bcbcbc" stroke-width="8" stroke-linecap="round" stroke-linejoin="round" /><polyline points="2339.63,1436.00 2180.75,1389.18 1893.15,1304.58" fill="none" stroke="#bcbcbc" stroke-width="8" stroke-linecap="round" stroke-linejoin="round" /><polyline points="1826.75,-1943.57 1848.46,-1928.61 2555.66,-1771.25" fill="none" stroke="#bcbcbc" stroke-width="8" stroke-linecap="round" stroke-linejoin="round" /><polyline points="2700.31,384.85 2663.76,303.52 2582.65,110.08 2576.61,94.71 2562.73,59.40 2510.45,-73.65 2507.16,-82.27" fill="none" stroke="#bcbcbc" stroke-width="8" stroke-linecap="round" stroke-linejoin="round" /><polyline points="1615.32,-1406.32 1576.05,-1417.50 1547.20,-1426.08 1488.56,-1443.50 1458.77,-1452.00 1441.70,-1456.74 1419.41,-1463.12" fill="none" stroke="#bcbcbc" stroke-width="8" stroke-linecap="round" stroke-linejoin="round" /><polyline points="591.59,-342.35 589.61,-348.85 587.78,-353.39 579.68,-373.50 548.33,-446.58 518.54,-520.83 512.11,-538.36 504.70,-558.55 499.39,-575.06 490.64,-599.83 489.72,-602.43 461.21,-672.68 408.89,-804.72 397.13,-811.42 388.77,-832.84 372.08,-890.82 343.49,-962.69 337.33,-979.03" fill="none" stroke="#bcbcbc" stroke-width="8" stroke-linecap="round" stroke-linejoin="round" /><polyline points="842.98,2286.06 872.69,2295.16 968.84,2324.46 998.96,2333.64" fill="none" stroke="#bcbcbc" stroke-width="8" stroke-linecap="round" stroke-linejoin="round" /><polyline points="2638.54,-1440.74 2644.14,-1463.40 2641.86,-1472.00 2639.11,-1482.38 2621.56,-1546.69 2582.42,-1682.65 2561.77,-1752.16 2555.66,-1771.25 2501.08,-1967.44 2471.62,-2073.26 2441.05,-2154.64 2413.43,-2228.04 2385.94,-2278.51 2359.22,-2305.18 2154.13,-2555.79 2138.96,-2573.63 2128.90,-2590.12" fill="none" stroke="#bcbcbc" stroke-width="8" stroke-linecap="round" stroke-linejoin="round" /><polyline points="1800.33,-974.33 1789.75,-970.29 1770.20,-964.89 1768.24,-964.35 1686.56,-943.46 1592.64,-917.02 1573.47,-911.62 1564.93,-908.91 1542.36,-901.66 1523.08,-896.29 1438.86,-872.86 1300.36,-833.51 1248.72,-820.46 1229.28,-815.60 1136.98,-792.94 1079.97,-777.06 959.22,-743.32 839.87,-709.69 826.07,-705.86 726.32,-678.17 680.31,-665.40 657.08,-654.42 613.10,-632.62 525.75,-588.29 519.67,-585.21 499.39,-575.06 487.02,-568.87 469.77,-559.82 408.40,-527.65 296.59,-464.91 203.19,-415.99 189.83,-408.99 171.98,-407.87 161.26,-402.18 159.12,-401.04 57.79,-345.51 36.58,-345.61 12.22,-332.86 3.71,-328.41 -3.46,-324.66 -20.40,-315.80 -33.75,-285.36 -91.09,-254.64 -109.33,-244.88 -129.06,-234.14 -208.84,-190.72 -250.09,-168.27 -270.88,-162.28" fill="none" stroke="#bcbcbc" stroke-width="8" stroke-linecap="round" stroke-linejoin="round" /><polyline points="2948.63,901.14 2906.05,905.05 2773.06,917.23 2767.06,917.78 2758.58,918.56 2744.85,919.82 2615.90,931.66 2571.05,927.50 2518.83,940.59 2476.99,950.84 2454.71,956.30 2399.34,958.40 2351.42,955.97 2326.99,953.37 2306.20,947.08 2290.89,938.62 2233.87,898.30 2095.32,803.14 2082.26,794.28 2068.96,785.26 2059.01,775.64" fill="none" stroke="#bcbcbc" stroke-width="8" stroke-linecap="round" stroke-linejoin="round" /><polyline points="-189.31,-705.38 -139.03,-606.96 -131.42,-578.84 -89.08,-498.04 -71.59,-474.93 -0.81,-337.21 3.71,-328.41" fill="none" stroke="#bcbcbc" stroke-width="8" stroke-linecap="round" stroke-linejoin="round" /><polyline points="1351.29,169.85 1343.76,190.55 1341.64,196.97 1331.83,226.74 1269.63,400.26 1238.76,486.43 1237.71,489.38 1225.31,516.16 1218.19,532.07" fill="none" stroke="#bcbcbc" stroke-width="8" stroke-linecap="round" stroke-linejoin="round" /><polyline points="2176.41,-1352.98 2169.52,-1367.75 2151.39,-1370.12 2092.77,-1356.68 2080.85,-1358.23 2071.52,-1370.74 2054.93,-1447.02 2144.78,-1460.93 2186.38,-1473.21 2206.71,-1475.32 2228.62,-1397.43" fill="none" stroke="#bcbcbc" stroke-width="8" stroke-linecap="round" stroke-linejoin="round" /><polyline points="2501.14,-509.48 2524.28,-522.48 2640.53,-592.52 2671.60,-611.02 2725.98,-643.44 2815.44,-701.30 2836.32,-716.31 2993.25,-813.65" fill="none" stroke="#bcbcbc" stroke-width="8" stroke-linecap="round" stroke-linejoin="round" /><polyline points="3049.68,-49.67 3010.01,-61.49 2986.94,-80.40 2898.80,-156.68 2895.80,-159.36 2874.49,-178.38 2861.96,-200.58 2640.53,-592.52" fill="none" stroke="#bcbcbc" stroke-width="8" stroke-linecap="round" stroke-linejoin="round" /><polyline points="550.74,-80.73 898.16,26.17 926.51,35.16 1185.77,117.34 1191.18,119.06 1230.02,131.38 1249.12,137.44 1273.94,144.22 1325.12,161.55 1351.29,169.85 1374.84,177.32 1567.79,238.52 1771.47,302.52 1788.31,307.81 1811.66,296.35" fill="none" stroke="#bcbcbc" stroke-width="8" stroke-linecap="round" stroke-linejoin="round" /><polyline points="1572.27,-1795.91 1722.77,-1934.19 1748.24,-1957.60" fill="none" stroke="#bcbcbc" stroke-width="8" stroke-linecap="round" stroke-linejoin="round" /><polyline points="-947.80,435.36 -395.58,494.55" fill="none" stroke="#bcbcbc" stroke-width="8" stroke-linecap="round" stroke-linejoin="round" /><polyline points="718.07,-1105.93 834.13,-1147.44 953.85,-1190.72 1028.24,-1219.64 1255.35,-1302.24 1321.26,-1325.04 1335.03,-1329.80 1351.54,-1335.47 1370.07,-1341.85 1372.34,-1342.63 1409.75,-1357.67 1426.02,-1364.20" fill="none" stroke="#bcbcbc" stroke-width="8" stroke-linecap="round" stroke-linejoin="round" /><polyline points="1497.61,1702.65 1606.88,1837.44 1673.77,1904.80 1702.73,1925.65 1743.74,1959.99 1782.24,1992.32 1815.33,2024.60 1816.15,2041.01" fill="none" stroke="#bcbcbc" stroke-width="8" stroke-linecap="round" stroke-linejoin="round" /><polyline points="1615.32,-1406.32 1658.14,-1513.66 1727.46,-1690.38 1826.75,-1943.57 1875.83,-2063.51 1948.95,-2242.36 2008.92,-2388.86 2019.65,-2408.29 2072.38,-2494.50 2075.78,-2500.07 2095.07,-2538.01 2128.90,-2590.12 2147.80,-2619.20 2174.53,-2660.34" fill="none" stroke="#bcbcbc" stroke-width="8" stroke-linecap="round" stroke-linejoin="round" /><polyline points="605.03,1463.59 598.01,1469.20 593.38,1475.88 583.93,1503.73 577.41,1523.84 547.23,1614.06 543.08,1627.07 540.51,1635.15 512.80,1627.21 445.37,1604.60 378.55,1582.19 326.91,1579.27" fill="none" stroke="#bcbcbc" stroke-width="8" stroke-linecap="round" stroke-linejoin="round" /><polyline points="-715.46,2091.38 -605.34,1807.02 -593.09,1776.06 -582.10,1746.24 -568.82,1710.22 -552.54,1653.54 -535.56,1583.11 -528.60,1532.64 -523.55,1495.98 -516.42,1468.91 -490.50,1265.58 -460.24,1008.99 -444.57,886.66 -427.09,742.95 -395.58,494.55 -390.58,452.32 -358.74,192.53 -358.73,178.07 -351.69,100.98 -331.38,-61.83 -326.29,-90.23 -320.98,-106.16 -312.68,-123.70 -304.60,-137.32 -286.78,-156.61 -270.84,-162.08" fill="none" stroke="#bcbcbc" stroke-width="8" stroke-linecap="round" stroke-linejoin="round" /><polyline points="1688.45,-68.44 1694.47,-58.89 1714.67,-27.37 1744.90,21.09 1752.19,32.65 1764.25,23.50 1822.72,-20.90" fill="none" stroke="#bcbcbc" stroke-width="8" stroke-linecap="round" stroke-linejoin="round" /><polyline points="1727.45,-1690.38 2322.42,-1582.82 2384.90,-1549.94 2618.01,-1434.39 2638.54,-1440.74" fill="none" stroke="#bcbcbc" stroke-width="8" stroke-linecap="round" stroke-linejoin="round" /><polyline points="591.59,-342.35 581.04,-326.95 486.12,-280.62 416.41,-192.02 341.18,-145.44 289.73,-106.59 240.64,-66.55 215.48,-43.62 171.03,12.77 121.32,84.02 113.13,97.22" fill="none" stroke="#bcbcbc" stroke-width="8" stroke-linecap="round" stroke-linejoin="round" /><polyline points="691.95,-278.79 687.83,-269.63 678.83,-256.48 661.82,-235.55 561.56,-108.90 508.51,33.97 240.76,-66.67" fill="none" stroke="#bcbcbc" stroke-width="8" stroke-linecap="round" stroke-linejoin="round" /><polyline points="289.73,-106.59 279.36,-137.98 234.56,-273.63 217.17,-300.43 188.05,-387.78 185.54,-395.32 189.83,-408.99 182.85,-431.25 42.85,-878.25" fill="none" stroke="#bcbcbc" stroke-width="8" stroke-linecap="round" stroke-linejoin="round" /><polyline points="1930.17,-2545.61 2040.81,-2542.69 2045.98,-2542.54 2067.18,-2541.94 2095.07,-2538.01" fill="none" stroke="#bcbcbc" stroke-width="8" stroke-linecap="round" stroke-linejoin="round" /><polyline points="1361.06,1058.61 1323.28,1058.15 1003.39,1101.09 980.33,1103.52 953.97,1106.30 800.89,1122.45 594.66,1144.24 485.32,1155.77 424.84,1162.15 375.73,1168.12 350.51,1171.19 322.11,1174.64 184.90,1191.31 152.02,1195.31 50.69,1206.39 -490.50,1265.58" fill="none" stroke="#bcbcbc" stroke-width="8" stroke-linecap="round" stroke-linejoin="round" /><polyline points="887.43,2169.28 859.10,2160.16 726.74,2117.55 699.98,2108.94 676.75,2101.47 536.53,2056.40 508.88,2047.51 472.30,2035.74 249.07,1963.91 223.95,1955.82" fill="none" stroke="#bcbcbc" stroke-width="8" stroke-linecap="round" stroke-linejoin="round" /><polyline points="1440.90,-510.53 1517.89,-486.55 1799.44,-399.61 1802.07,-398.79 1822.94,-397.49" fill="none" stroke="#bcbcbc" stroke-width="8" stroke-linecap="round" stroke-linejoin="round" /><polyline points="2233.10,-1144.59 2616.10,-1137.86" fill="none" stroke="#bcbcbc" stroke-width="8" stroke-linecap="round" stroke-linejoin="round" /><polyline points="2045.57,2220.19 1990.82,2155.11 1967.85,2128.39 1948.11,2109.95 1921.83,2090.33 1868.12,2058.10 1816.15,2041.01 1710.40,2008.35 1623.91,1980.90 1673.77,1904.80" fill="none" stroke="#bcbcbc" stroke-width="8" stroke-linecap="round" stroke-linejoin="round" /><polyline points="1497.61,1702.65 1421.37,1608.55 1406.87,1590.65 1330.08,1484.86 1312.70,1452.56 1316.87,1414.11 1340.02,1413.88 1397.13,1424.87 1484.04,1441.59" fill="none" stroke="#bcbcbc" stroke-width="8" stroke-linecap="round" stroke-linejoin="round" /><polyline points="500.31,948.71 514.37,978.95 594.66,1144.24 714.04,1390.00 729.27,1421.35" fill="none" stroke="#bcbcbc" stroke-width="8" stroke-linecap="round" stroke-linejoin="round" /><polyline points="-785.66,1697.33 -756.94,1709.07 -622.45,1764.06 -593.09,1776.06 -562.20,1788.69 -403.85,1853.44 -375.21,1865.16" fill="none" stroke="#bcbcbc" stroke-width="8" stroke-linecap="round" stroke-linejoin="round" /><polyline points="566.39,703.65 846.59,826.24" fill="none" stroke="#bcbcbc" stroke-width="8" stroke-linecap="round" stroke-linejoin="round" /><polyline points="1822.94,-397.49 1865.62,-395.25 1868.34,-392.83 1887.50,-375.84 1915.64,-350.71 1920.84,-340.61 2017.85,-255.66 2025.02,-242.10 2093.24,-181.90 2110.41,-176.66 2163.47,-130.19 2175.36,-124.76 2255.39,-56.87 2273.20,-41.08 2283.03,-25.43" fill="none" stroke="#bcbcbc" stroke-width="8" stroke-linecap="round" stroke-linejoin="round" /><polyline points="-864.75,703.93 -427.09,742.95" fill="none" stroke="#bcbcbc" stroke-width="8" stroke-linecap="round" stroke-linejoin="round" /><polyline points="112.46,2333.62 126.02,2304.75 129.51,2291.90 148.51,2221.83 217.36,1979.07 223.95,1955.82 230.92,1930.33 262.11,1816.28 314.78,1623.67 326.91,1579.27" fill="none" stroke="#bcbcbc" stroke-width="8" stroke-linecap="round" stroke-linejoin="round" /><polyline points="500.31,948.71 566.39,703.65 426.29,654.63 389.60,676.29 372.88,689.01 360.49,705.76 351.78,727.87 319.56,846.97 345.55,860.20 371.82,866.58 429.89,881.69 473.35,895.53 500.31,948.71" fill="none" stroke="#bcbcbc" stroke-width="8" stroke-linecap="round" stroke-linejoin="round" /><polyline points="319.56,846.97 288.88,842.69 -427.09,742.95" fill="none" stroke="#bcbcbc" stroke-width="8" stroke-linecap="round" stroke-linejoin="round" /><polyline points="1484.04,1441.59 1550.44,1456.10 1730.05,1513.18 1780.26,1529.06 1899.46,1563.49 2019.54,1598.12 2108.43,1623.80 2250.61,1664.85 2279.97,1673.34 2351.72,1697.39 2469.84,1728.85 2480.26,1730.80" fill="none" stroke="#bcbcbc" stroke-width="8" stroke-linecap="round" stroke-linejoin="round" /><polyline points="1568.28,2479.14 1544.05,2485.22 1517.85,2558.23 1477.22,2546.69 1292.50,2483.74 1270.26,2478.99 1220.80,2475.45 997.09,2476.35 947.78,2470.07 836.41,2453.04 791.49,2445.75 472.88,2394.36 349.50,2374.68 114.21,2333.92 76.22,2326.39 -454.80,2177.97 -488.30,2168.59 -715.45,2091.38 -771.34,2071.56 -910.94,2013.71 -990.50,1983.61" fill="none" stroke="#bcbcbc" stroke-width="8" stroke-linecap="round" stroke-linejoin="round" /><polyline points="2054.93,-1447.02 2031.94,-1451.75 1725.04,-1415.47 1615.32,-1406.32" fill="none" stroke="#bcbcbc" stroke-width="8" stroke-linecap="round" stroke-linejoin="round" /><polyline points="1484.04,1441.59 1494.79,1423.60 1559.20,1258.19 1631.16,1008.09 1649.51,954.22 1659.33,939.56 1728.81,716.56 1732.26,689.93 1734.89,672.53" fill="none" stroke="#bcbcbc" stroke-width="8" stroke-linecap="round" stroke-linejoin="round" /><polyline points="1800.33,-974.33 1807.66,-977.14 1817.60,-985.03 1832.70,-1002.69 2028.66,-1283.86 2080.85,-1358.23" fill="none" stroke="#bcbcbc" stroke-width="8" stroke-linecap="round" stroke-linejoin="round" /><polyline points="2672.50,58.54 2676.51,47.01 2775.01,-68.88 2782.24,-72.74 2799.35,-96.15 2856.66,-161.97 2874.49,-178.38" fill="none" stroke="#bcbcbc" stroke-width="8" stroke-linecap="round" stroke-linejoin="round" /><polyline points="2758.58,918.56 2757.22,903.05 2756.16,891.06 2750.97,868.12 2744.77,853.16 2737.03,813.85 2736.33,799.62 2731.08,767.81 2707.63,755.55 2688.90,762.72 2655.35,770.75 2628.81,774.90 2603.35,781.04 2568.19,789.06 2552.16,792.72" fill="none" stroke="#bcbcbc" stroke-width="8" stroke-linecap="round" stroke-linejoin="round" /><polyline points="2058.58,41.48 2093.12,28.11 2111.17,21.12 2125.13,6.98 2182.69,-7.21 2202.01,-2.29 2243.68,-13.02 2275.46,-21.21 2283.03,-25.43 2313.85,-32.98 2471.44,-71.59 2507.16,-82.27" fill="none" stroke="#bcbcbc" stroke-width="8" stroke-linecap="round" stroke-linejoin="round" /><polyline points="605.03,1463.59 679.37,1436.59 704.23,1428.99 729.27,1421.35 775.47,1407.24 811.41,1402.07 934.15,1388.64 958.81,1387.29 1068.63,1388.23 1135.53,1388.80 1160.69,1387.52 1200.99,1391.60 1213.59,1393.40 1239.28,1397.08 1316.87,1414.11" fill="none" stroke="#bcbcbc" stroke-width="8" stroke-linecap="round" stroke-linejoin="round" /><polyline points="959.22,-743.32 946.90,-784.96 901.16,-939.61 845.60,-1115.96 834.13,-1147.44 822.48,-1176.94 807.76,-1219.46" fill="none" stroke="#bcbcbc" stroke-width="8" stroke-linecap="round" stroke-linejoin="round" /><polyline points="826.18,1750.28 835.95,1719.42 934.77,1407.80 934.15,1388.64" fill="none" stroke="#bcbcbc" stroke-width="8" stroke-linecap="round" stroke-linejoin="round" /><polyline points="958.81,1387.29 978.38,1124.91 980.33,1103.52 983.33,1078.63 983.38,1077.50 984.66,1047.07 991.19,964.48 994.87,926.01 999.91,882.31 1004.50,850.85 1008.61,831.09 1013.79,816.16 1023.95,782.51 1044.94,712.47 1071.64,622.03 1101.07,529.56 1107.07,510.70 1111.89,497.03" fill="none" stroke="#bcbcbc" stroke-width="8" stroke-linecap="round" stroke-linejoin="round" /><polyline points="319.56,846.97 314.36,870.22 315.25,877.65 347.13,1143.08 350.51,1171.19 349.05,1200.10 340.70,1365.19 337.21,1434.16 335.41,1469.73 332.20,1533.14 330.53,1566.16 326.91,1579.27" fill="none" stroke="#bcbcbc" stroke-width="8" stroke-linecap="round" stroke-linejoin="round" /><polyline points="170.58,349.42 54.66,314.97 39.93,305.52 -32.21,284.50 -52.48,284.72 -143.13,257.41 -157.77,246.60 -240.25,221.60 -341.46,194.02 -341.95,193.97 -358.74,192.53" fill="none" stroke="#bcbcbc" stroke-width="8" stroke-linecap="round" stroke-linejoin="round" /><polyline points="2283.03,-25.43 2287.06,-20.15 2303.87,4.90 2334.94,51.22 2364.19,80.52 2420.42,143.64 2410.91,201.98 2406.09,223.85 2399.38,233.10 2413.48,253.96 2435.29,298.84 2478.87,382.92 2500.34,424.33 2513.68,461.54 2519.71,478.83" fill="none" stroke="#bcbcbc" stroke-width="8" stroke-linecap="round" stroke-linejoin="round" /><polyline points="2576.61,94.71 2560.45,99.74 2454.00,132.86 2438.74,137.76 2420.42,143.64" fill="none" stroke="#bcbcbc" stroke-width="8" stroke-linecap="round" stroke-linejoin="round" /><polyline points="1811.66,296.35 1844.95,285.56 2086.57,162.18 2118.91,146.38 2232.79,113.49 2343.21,82.45 2364.19,80.52" fill="none" stroke="#bcbcbc" stroke-width="8" stroke-linecap="round" stroke-linejoin="round" /><polyline points="1837.99,449.09 2116.54,319.46 2128.27,311.70 2155.51,303.78 2341.12,249.77 2369.28,238.99 2399.38,233.10" fill="none" stroke="#bcbcbc" stroke-width="8" stroke-linecap="round" stroke-linejoin="round" /><polyline points="1781.15,-2268.42 1893.91,-2254.49 1905.23,-2253.09 1948.95,-2242.36" fill="none" stroke="#bcbcbc" stroke-width="8" stroke-linecap="round" stroke-linejoin="round" /><polyline points="2744.74,-1122.04 2764.74,-1126.22 2839.46,-1089.60 2849.30,-1079.85 2989.55,-842.44 2993.25,-813.65 3011.49,-798.46 3008.59,-787.96 3008.14,-770.85 3010.67,-746.92 3047.82,-594.25 3051.10,-488.51 3056.31,-319.68 3065.04,-92.43 3029.47,6.59 3006.55,66.96 2973.10,152.03 2963.41,176.63 2957.12,183.51 2947.01,249.34" fill="none" stroke="#bcbcbc" stroke-width="8" stroke-linecap="round" stroke-linejoin="round" /><polyline points="3004.05,650.38 2969.94,635.54 2884.70,576.05 2772.23,497.03 2710.38,447.01 2668.65,402.32" fill="none" stroke="#bcbcbc" stroke-width="8" stroke-linecap="round" stroke-linejoin="round" /><polyline points="1623.91,1980.90 1590.41,1970.28 1536.05,1953.05 1510.11,1944.82 1479.64,1935.16 1441.13,1922.96 1406.32,1911.92 1371.92,1901.00 1218.47,1852.31 1191.59,1843.78 1158.21,1833.21 1150.84,1830.88 1063.08,1807.69 1038.30,1801.70 1007.24,1794.18 974.73,1786.30 857.60,1757.89 826.18,1750.28 792.43,1738.56 721.90,1714.07 695.31,1704.84 671.54,1697.12 561.10,1657.85 547.19,1649.56 540.51,1635.15" fill="none" stroke="#bcbcbc" stroke-width="8" stroke-linecap="round" stroke-linejoin="round" /><polyline points="2128.27,311.70 2120.14,282.55 2095.89,195.62 2086.57,162.18 2073.09,137.20 2071.84,132.56 2063.90,103.14 2073.15,90.10 2062.03,53.00 2058.58,41.48" fill="none" stroke="#bcbcbc" stroke-width="8" stroke-linecap="round" stroke-linejoin="round" /><polyline points="2087.73,-752.07 2110.78,-762.92 2236.70,-832.35 2308.69,-878.64 2359.46,-913.28 2370.67,-921.63 2411.53,-950.03 2453.88,-981.31 2480.69,-1000.82 2512.65,-1024.19 2623.74,-1074.32 2638.15,-1073.56 2659.21,-1083.52 2744.74,-1122.04" fill="none" stroke="#bcbcbc" stroke-width="8" stroke-linecap="round" stroke-linejoin="round" /><polyline points="691.95,-278.79 710.11,-271.42 722.12,-267.73 947.31,-198.56 981.71,-188.00" fill="none" stroke="#bcbcbc" stroke-width="8" stroke-linecap="round" stroke-linejoin="round" /><polyline points="-916.59,227.63 -1077.48,178.94" fill="none" stroke="#bcbcbc" stroke-width="8" stroke-linecap="round" stroke-linejoin="round" /><polyline points="1682.26,-2041.19 1722.15,-1990.65 1728.11,-1983.11 1748.24,-1957.60 1771.19,-1954.91 1818.37,-1949.37 1826.75,-1943.57" fill="none" stroke="#bcbcbc" stroke-width="8" stroke-linecap="round" stroke-linejoin="round" /><polyline points="3067.48,206.44 3004.27,218.23 2939.45,253.45 2879.37,286.89 2822.55,315.30 2753.88,352.59 2704.16,382.78 2605.90,435.46 2222.34,628.43 2122.89,672.24 2057.19,700.65 2024.63,711.31 1997.70,716.34 1953.60,719.00 1890.86,710.12 1734.30,672.53 1512.03,620.74 1219.62,532.54 1111.89,497.03 935.49,442.57 766.80,386.93 519.37,289.85 395.66,236.58 246.50,170.28 -0.93,34.73 -58.94,-3.74 -205.73,-96.08 -267.29,-157.64 -359.64,-277.21 -511.76,-434.06 -571.54,-486.74" fill="none" stroke="#bcbcbc" stroke-width="8" stroke-linecap="round" stroke-linejoin="round" /><polyline points="1868.12,2058.10 1870.71,2043.64 1880.07,2020.02 1967.81,1814.72 2000.96,1737.77 2040.02,1641.86 2049.54,1606.77" fill="none" stroke="#bcbcbc" stroke-width="8" stroke-linecap="round" stroke-linejoin="round" /><polyline points="184.90,1191.31 85.23,1143.07 -141.56,1033.31 -419.74,898.68 -444.57,886.66" fill="none" stroke="#bcbcbc" stroke-width="8" stroke-linecap="round" stroke-linejoin="round" /><polyline points="1822.94,-397.49 1848.11,-423.26 1915.02,-491.76 1968.13,-549.74" fill="none" stroke="#bcbcbc" stroke-width="8" stroke-linecap="round" stroke-linejoin="round" /><polyline points="-109.33,-244.88 -136.97,-281.48 -266.53,-453.02 -451.48,-602.68" fill="none" stroke="#bcbcbc" stroke-width="8" stroke-linecap="round" stroke-linejoin="round" /><polyline points="-911.93,2013.29 -886.64,1953.31 -806.22,1752.83 -796.47,1726.52 -785.66,1697.33 -781.56,1686.80 -780.47,1670.30 -770.18,1514.45 -767.22,1469.74" fill="none" stroke="#bcbcbc" stroke-width="8" stroke-linecap="round" stroke-linejoin="round" /><polyline points="-966.79,401.74 -916.59,227.63 -850.36,-2.02 -842.16,-30.44 -833.04,-62.73 -812.63,-135.04 -810.49,-142.64 -804.64,-165.89 -795.32,-192.17 -793.06,-198.53 -781.29,-227.71 -758.18,-278.70 -751.26,-293.34" fill="none" stroke="#bcbcbc" stroke-width="8" stroke-linecap="round" stroke-linejoin="round" /><polyline points="-842.16,-30.44 -740.58,-4.47 -525.41,50.84 -402.83,89.01 -351.69,100.99" fill="none" stroke="#bcbcbc" stroke-width="8" stroke-linecap="round" stroke-linejoin="round" /><polyline points="1248.72,-820.46 1252.18,-841.60 1255.65,-863.55 1270.55,-936.96 1307.78,-1107.84 1338.36,-1260.70 1343.95,-1292.42 1351.54,-1335.47 1351.55,-1335.51" fill="none" stroke="#bcbcbc" stroke-width="8" stroke-linecap="round" stroke-linejoin="round" /><polyline points="947.97,2470.10 993.33,2354.42 998.96,2333.64 1178.95,1876.75 1191.59,1843.78 1201.82,1815.82 1309.37,1502.93 1330.08,1484.86" fill="none" stroke="#bcbcbc" stroke-width="8" stroke-linecap="round" stroke-linejoin="round" /><polyline points="1564.93,-908.91 1564.92,-908.95 1558.54,-942.41 1557.54,-946.47 1542.00,-1009.71 1542.01,-1009.91 1531.41,-1052.78 1486.49,-1206.70 1480.83,-1223.19 1450.50,-1305.65 1440.64,-1330.26 1434.28,-1346.14 1426.03,-1364.18 1426.02,-1364.20 1426.01,-1364.28 1419.99,-1430.58 1419.41,-1463.12" fill="none" stroke="#bcbcbc" stroke-width="8" stroke-linecap="round" stroke-linejoin="round" /><polyline points="1497.61,1702.65 1486.06,1715.13 1468.85,1735.61 1420.36,1872.33 1406.32,1911.92" fill="none" stroke="#bcbcbc" stroke-width="8" stroke-linecap="round" stroke-linejoin="round" /><polyline points="691.95,-278.79 698.57,-296.73 700.07,-300.90 731.56,-388.86 743.36,-425.91 839.87,-709.69" fill="none" stroke="#bcbcbc" stroke-width="8" stroke-linecap="round" stroke-linejoin="round" /><polyline points="1191.18,119.06 1201.03,92.90 1227.70,22.06 1238.97,-7.89 1246.61,-28.16 1268.01,-85.00 1282.14,-122.56 1284.05,-127.61 1318.30,-218.58 1332.62,-214.14 1340.37,-235.26 1354.09,-272.62 1351.47,-289.60 1387.90,-388.78 1391.64,-398.97 1398.56,-405.32 1404.36,-410.66 1440.90,-510.53 1446.18,-537.88 1498.60,-683.53 1511.00,-693.22 1536.22,-764.58 1531.74,-775.53 1553.83,-842.16 1542.36,-901.66" fill="none" stroke="#bcbcbc" stroke-width="8" stroke-linecap="round" stroke-linejoin="round" /><polyline points="2128.90,-2590.12 2114.22,-2614.22 2037.03,-2740.84" fill="none" stroke="#bcbcbc" stroke-width="8" stroke-linecap="round" stroke-linejoin="round" /><polyline points="2370.67,-921.63 2724.88,-693.86 2724.98,-693.70 2724.98,-693.66 2790.49,-685.16" fill="none" stroke="#bcbcbc" stroke-width="8" stroke-linecap="round" stroke-linejoin="round" /><polyline points="2228.62,-1397.43 2605.50,-1208.27 2616.87,-1199.78 2616.10,-1137.86 2623.74,-1074.32" fill="none" stroke="#bcbcbc" stroke-width="8" stroke-linecap="round" stroke-linejoin="round" /><polyline points="1510.11,1944.82 1496.55,1986.18 1441.64,2153.64 1348.24,2435.68 1341.61,2455.69 1334.90,2475.96 1333.03,2497.55" fill="none" stroke="#bcbcbc" stroke-width="8" stroke-linecap="round" stroke-linejoin="round" /><polyline points="2571.05,927.50 2573.31,906.49 2573.79,886.88 2573.63,886.20 2560.28,828.48 2554.80,804.35 2552.16,792.72 2549.46,780.82 2534.80,716.24 2506.16,587.18 2485.35,509.59 2482.40,497.60" fill="none" stroke="#bcbcbc" stroke-width="8" stroke-linecap="round" stroke-linejoin="round" /><polyline points="699.98,2108.94 709.32,2082.39 814.27,1784.14 826.18,1750.28" fill="none" stroke="#bcbcbc" stroke-width="8" stroke-linecap="round" stroke-linejoin="round" /><polyline points="3056.31,-319.68 3025.43,-328.39 2815.76,-650.14 2790.49,-685.16" fill="none" stroke="#bcbcbc" stroke-width="8" stroke-linecap="round" stroke-linejoin="round" /><polyline points="-390.58,452.32 373.59,635.39 426.29,654.63" fill="none" stroke="#bcbcbc" stroke-width="8" stroke-linecap="round" stroke-linejoin="round" /><polyline points="2019.65,-2408.29 2317.31,-2298.02 2359.22,-2305.18" fill="none" stroke="#bcbcbc" stroke-width="8" stroke-linecap="round" stroke-linejoin="round" />
    <polyline points="170.58,349.42 242.22,181.49 246.20,170.58" fill="none" stroke="#ffffff" stroke-width="16" stroke-linecap="round" stroke-linejoin="round" />
    <polyline points="170.58,349.42 242.22,181.49 246.20,170.58" fill="none" stroke="#111111" stroke-width="9" stroke-linecap="round" stroke-linejoin="round" />
    
            <g transform="translate(170.58,349.42)">
              <circle r="19" fill="#ffffff" stroke="#111111" stroke-width="4" />
              <text text-anchor="middle" dominant-baseline="central" font-family="Helvetica, Arial, sans-serif"
                font-size="18" font-weight="700" fill="#111111">1</text>
            </g>
            
            <g transform="translate(246.20,170.58)">
              <circle r="19" fill="#ffffff" stroke="#111111" stroke-width="4" />
              <text text-anchor="middle" dominant-baseline="central" font-family="Helvetica, Arial, sans-serif"
                font-size="18" font-weight="700" fill="#111111">2</text>
            </g>
            
  </g>
</svg>
