<svg xmlns="http://www.w3.org/2000/svg" width="520" height="520" viewBox="0 0 520 520">
  <rect width="100%" height="100%" fill="#ffffff" />
  <g>
    <polyline points="451.10,-128.63 454.03,-113.05 472.92,19.10 470.03,52.14" fill="none" stroke="#bcbcbc" stroke-width="8" stroke-linecap="round" stroke-linejoin="round" /><polyline points="67.13,972.66 71.70,958.62 95.90,884.19 98.75,875.42 101.64,866.21 162.48,672.17 167.38,656.56 156.17,628.96" fill="none" stroke="#bcbcbc" stroke-width="8" stroke-linecap="round" stroke-linejoin="round" /><polyline points="-353.18,800.07 -354.16,788.92 -334.27,677.50 -331.48,663.56 -329.40,656.27 -323.92,628.01 -317.77,593.42 -311.06,562.97 -304.41,532.57 -300.23,524.01 -297.49,518.75" fill="none" stroke="#bcbcbc" stroke-width="8" stroke-linecap="round" stroke-linejoin="round" /><polyline points="-237.71,14.12 -242.44,-0.30 -291.33,-149.41 -293.71,-155.66" fill="none" stroke="#bcbcbc" stroke-width="8" stroke-linecap="round" stroke-linejoin="round" /><polyline points="-488.56,1326.39 -487.10,1312.16 -486.51,1305.63 -481.19,1246.76 -475.36,1194.93 -474.00,1182.82 -472.74,1168.30 -472.60,1167.08 -469.29,1138.21 -466.45,1108.86 -463.31,1080.54 -461.20,1058.49 -460.31,1044.89 -459.54,1032.32 -458.15,1018.16" fill="none" stroke="#bcbcbc" stroke-width="8" stroke-linecap="round" stroke-linejoin="round" /><polyline points="186.94,1007.25 190.43,996.31 214.96,919.19 217.75,910.43 221.71,897.94 224.55,889.00 246.26,795.35" fill="none" stroke="#bcbcbc" stroke-width="8" stroke-linecap="round" stroke-linejoin="round" /><polyline points="91.58,-518.17 100.64,-516.78 350.28,-478.42" fill="none" stroke="#bcbcbc" stroke-width="8" stroke-linecap="round" stroke-linejoin="round" /><polyline points="-549.29,989.08 -575.28,987.87 -591.12,987.13 -599.73,986.73 -607.28,986.38 -666.12,983.65 -747.96,979.84 -786.97,974.31 -800.02,972.46 -811.35,970.46 -888.08,956.92 -898.80,955.02 -901.18,954.62 -914.42,952.35 -924.60,950.60 -989.62,944.85 -1002.00,943.76 -1006.54,943.36 -1020.60,942.38 -1048.12,940.48" fill="none" stroke="#bcbcbc" stroke-width="8" stroke-linecap="round" stroke-linejoin="round" /><polyline points="-171.79,913.69 -166.76,899.37 -121.41,773.65 -66.85,615.07 -63.35,605.13 -60.92,598.18 -58.94,592.47" fill="none" stroke="#bcbcbc" stroke-width="8" stroke-linecap="round" stroke-linejoin="round" /><polyline points="-1006.54,943.36 -1007.70,935.27 -1007.97,926.49 -1006.25,908.82 -1002.30,876.53 -999.67,865.70 -995.39,826.52 -994.61,817.80 -993.36,806.58 -992.43,798.25 -990.68,788.81 -987.43,763.40 -985.18,743.96 -981.86,736.01" fill="none" stroke="#bcbcbc" stroke-width="8" stroke-linecap="round" stroke-linejoin="round" /><polyline points="-1052.96,726.08 -992.47,734.53 -981.86,736.01 -975.29,737.06 -948.18,741.38 -885.70,751.33 -874.98,753.12" fill="none" stroke="#bcbcbc" stroke-width="8" stroke-linecap="round" stroke-linejoin="round" /><polyline points="60.34,-67.51 60.74,-62.01 61.55,-56.44 63.51,-52.18 67.19,-47.42 73.99,-41.23 90.12,-31.42 214.50,46.61 291.10,149.31 348.96,292.11 352.73,301.54" fill="none" stroke="#bcbcbc" stroke-width="8" stroke-linecap="round" stroke-linejoin="round" /><polyline points="40.43,349.15 43.00,353.41 43.67,354.52 45.81,365.29 60.40,435.86 65.03,458.25 68.35,474.21 73.51,506.54 75.93,521.45 77.59,530.55 79.41,538.76 81.59,543.56 84.78,549.11 86.49,551.73 118.81,597.99 136.29,625.52 140.85,632.10" fill="none" stroke="#bcbcbc" stroke-width="8" stroke-linecap="round" stroke-linejoin="round" /><polyline points="-887.34,1232.71 -885.62,1222.12 -884.02,1214.46 -883.59,1213.45 -862.08,1162.30 -848.38,1129.06 -844.21,1118.53 -839.80,1107.37 -835.01,1097.78 -834.23,1095.91 -827.67,1080.05 -822.60,1066.03 -818.25,1053.16 -815.49,1044.06 -812.40,1032.82 -808.83,1017.75 -806.12,1005.53 -802.88,988.47 -802.20,984.66 -800.02,972.46" fill="none" stroke="#bcbcbc" stroke-width="8" stroke-linecap="round" stroke-linejoin="round" /><polyline points="154.82,-195.58 223.41,-147.65 232.65,-145.69 239.41,-137.96" fill="none" stroke="#bcbcbc" stroke-width="8" stroke-linecap="round" stroke-linejoin="round" /><polyline points="-133.18,247.03 -124.11,250.52 -84.76,263.39 6.53,298.40 11.65,303.51 14.05,307.32" fill="none" stroke="#bcbcbc" stroke-width="8" stroke-linecap="round" stroke-linejoin="round" /><polyline points="36.93,1146.61 43.15,1130.41 73.84,1047.15 95.53,984.24 100.03,982.17" fill="none" stroke="#bcbcbc" stroke-width="8" stroke-linecap="round" stroke-linejoin="round" /><polyline points="-396.86,1041.03 -392.02,1030.33 -391.54,1029.27 -383.26,1001.48 -369.69,955.73 -366.21,944.02 -363.51,934.93 -363.15,929.63 -363.70,917.90" fill="none" stroke="#bcbcbc" stroke-width="8" stroke-linecap="round" stroke-linejoin="round" /><polyline points="167.20,352.80 159.42,354.41 141.79,351.27 139.06,343.99 108.51,332.35 101.28,334.24 73.72,324.12 69.61,326.99" fill="none" stroke="#bcbcbc" stroke-width="8" stroke-linecap="round" stroke-linejoin="round" /><polyline points="121.84,-592.17 135.68,-588.78 143.34,-587.45 325.45,-555.88" fill="none" stroke="#bcbcbc" stroke-width="8" stroke-linecap="round" stroke-linejoin="round" /><polyline points="-19.70,1095.90 -12.12,1074.55 2.60,1033.04 12.11,1015.36 25.80,977.03 31.27,961.74" fill="none" stroke="#bcbcbc" stroke-width="8" stroke-linecap="round" stroke-linejoin="round" /><polyline points="-1017.48,267.00 -1030.67,266.39 -1033.98,270.41 -1056.96,298.33 -1137.28,391.11 -1148.58,404.16" fill="none" stroke="#bcbcbc" stroke-width="8" stroke-linecap="round" stroke-linejoin="round" /><polyline points="-312.93,346.46 -318.75,359.36 -319.46,360.92 -339.69,413.67 -360.08,471.74 -365.52,487.22 -368.60,495.22" fill="none" stroke="#bcbcbc" stroke-width="8" stroke-linecap="round" stroke-linejoin="round" /><polyline points="-16.21,-246.25 -9.78,-237.53 -5.19,-225.54 1.95,-208.33 13.41,-181.27 23.56,-156.97 35.21,-130.29 43.85,-109.73 45.13,-106.78 45.21,-106.60 52.17,-90.34 54.24,-85.71 56.22,-81.31 58.31,-77.19 59.89,-73.00 60.34,-67.51" fill="none" stroke="#bcbcbc" stroke-width="8" stroke-linecap="round" stroke-linejoin="round" /><polyline points="-508.18,606.50 -504.81,604.66 -500.11,600.92 -497.75,596.07 -466.50,477.56 -465.56,470.88 -461.74,458.67" fill="none" stroke="#bcbcbc" stroke-width="8" stroke-linecap="round" stroke-linejoin="round" /><polyline points="584.64,421.05 589.07,435.12 592.19,449.90 586.12,506.23 579.10,548.60 575.26,563.05 574.91,564.36 571.56,572.16 566.98,580.43 556.28,593.95 561.46,620.40 544.71,677.15 535.46,708.50 516.54,759.80 488.84,822.27 455.00,882.14 444.44,901.59 425.34,933.56 349.02,1041.88 332.30,1064.41 267.54,1149.03 230.37,1191.32 178.37,1244.17 173.56,1244.67 161.82,1254.27" fill="none" stroke="#bcbcbc" stroke-width="8" stroke-linecap="round" stroke-linejoin="round" /><polyline points="-357.07,1347.60 -335.77,1281.52 -332.28,1270.61 -327.55,1263.74 -317.37,1233.20 -314.06,1222.83 -272.03,1091.24 -267.80,1078.00 -264.32,1066.37 -214.72,910.27" fill="none" stroke="#bcbcbc" stroke-width="8" stroke-linecap="round" stroke-linejoin="round" /><polyline points="142.00,118.81 160.42,98.69 165.85,92.14 203.06,39.44" fill="none" stroke="#bcbcbc" stroke-width="8" stroke-linecap="round" stroke-linejoin="round" /><polyline points="-226.10,126.79 -175.38,144.44 -172.58,148.99 -158.18,153.82 -149.63,156.75 -108.75,170.56" fill="none" stroke="#bcbcbc" stroke-width="8" stroke-linecap="round" stroke-linejoin="round" /><polyline points="215.95,-224.18 239.41,-137.96 266.57,-36.38 270.68,-27.92 271.34,-18.25 289.75,16.13 339.45,108.80 350.31,124.83 353.46,129.52 427.71,268.34 461.83,299.36 466.62,305.54 473.37,311.31 538.16,366.71 542.55,370.47 554.19,376.65" fill="none" stroke="#bcbcbc" stroke-width="8" stroke-linecap="round" stroke-linejoin="round" /><polyline points="-36.03,1361.62 125.55,1267.76 154.32,1253.05 161.82,1254.27" fill="none" stroke="#bcbcbc" stroke-width="8" stroke-linecap="round" stroke-linejoin="round" /><polyline points="139.16,1227.34 149.19,1215.42 239.19,1035.83 245.16,1024.06 250.14,1012.40 279.21,940.51 287.87,918.84 312.92,843.01 329.17,745.51 331.10,731.32" fill="none" stroke="#bcbcbc" stroke-width="8" stroke-linecap="round" stroke-linejoin="round" /><polyline points="69.70,171.17 68.13,172.78 65.96,180.34 65.74,181.09 55.97,218.70 58.54,228.52 56.41,237.32 53.62,248.85 46.47,257.13 38.36,289.98 28.80,297.21 18.60,304.20 14.05,307.32" fill="none" stroke="#bcbcbc" stroke-width="8" stroke-linecap="round" stroke-linejoin="round" /><polyline points="-312.93,346.46 -308.78,335.82 -283.81,271.81 -278.37,257.85 -273.88,246.35 -241.97,164.61 -227.61,130.43 -226.10,126.79 -214.94,99.79 -189.89,37.60 -180.71,11.12 -178.67,5.05 -175.93,-1.83" fill="none" stroke="#bcbcbc" stroke-width="8" stroke-linecap="round" stroke-linejoin="round" /><polyline points="-33.52,-41.56 -28.69,-27.19 129.77,108.17 216.25,183.40 345.40,295.68 356.68,304.70 361.73,307.85 384.14,328.20 414.07,353.73 481.95,411.61 503.88,430.47 518.43,447.87" fill="none" stroke="#bcbcbc" stroke-width="8" stroke-linecap="round" stroke-linejoin="round" /><polyline points="228.49,-274.80 236.53,-279.95 284.14,-299.74 293.93,-310.03" fill="none" stroke="#bcbcbc" stroke-width="8" stroke-linecap="round" stroke-linejoin="round" /><polyline points="283.49,929.80 217.75,910.43 98.75,875.42" fill="none" stroke="#bcbcbc" stroke-width="8" stroke-linecap="round" stroke-linejoin="round" /><polyline points="71.28,-468.54 80.26,-462.35 372.87,-397.25" fill="none" stroke="#bcbcbc" stroke-width="8" stroke-linecap="round" stroke-linejoin="round" /><polyline points="432.72,494.87 417.60,461.22 384.04,381.18 381.54,374.82 375.79,360.21 354.16,305.16 352.80,301.60" fill="none" stroke="#bcbcbc" stroke-width="8" stroke-linecap="round" stroke-linejoin="round" /><polyline points="-16.21,-246.25 -32.45,-250.87 -44.39,-254.43 -68.65,-261.63 -80.98,-265.15 -88.04,-267.11 -97.26,-269.75" fill="none" stroke="#bcbcbc" stroke-width="8" stroke-linecap="round" stroke-linejoin="round" /><polyline points="-439.78,193.98 -440.60,191.30 -441.36,189.41 -444.71,181.09 -457.68,150.85 -470.00,120.14 -472.67,112.88 -475.73,104.53 -477.93,97.70 -481.55,87.45 -481.93,86.37 -493.72,57.30 -515.37,2.67 -520.24,-0.10 -523.70,-8.96 -530.60,-32.96 -542.43,-62.69 -544.98,-69.45" fill="none" stroke="#bcbcbc" stroke-width="8" stroke-linecap="round" stroke-linejoin="round" /><polyline points="-335.77,1281.52 -323.47,1285.29 -283.69,1297.41 -271.23,1301.21" fill="none" stroke="#bcbcbc" stroke-width="8" stroke-linecap="round" stroke-linejoin="round" /><polyline points="407.16,-260.49 409.48,-269.86 408.53,-273.43 407.40,-277.72 400.14,-304.33 383.94,-360.59 375.40,-389.34 372.87,-397.25 350.28,-478.42 338.09,-522.21 325.45,-555.88 314.02,-586.25 302.65,-607.13 291.59,-618.17 206.73,-721.86 200.45,-729.24 196.29,-736.06" fill="none" stroke="#bcbcbc" stroke-width="8" stroke-linecap="round" stroke-linejoin="round" /><polyline points="60.34,-67.51 55.97,-65.84 47.88,-63.60 47.07,-63.38 13.27,-54.74 -25.59,-43.80 -33.52,-41.56 -37.05,-40.44 -46.39,-37.44 -54.37,-35.22 -89.22,-25.52 -146.52,-9.24 -167.89,-3.84 -175.93,-1.83 -214.12,7.55 -237.71,14.12 -287.67,28.07 -337.05,41.99 -342.76,43.58 -384.03,55.03 -403.07,60.32 -412.68,64.86 -430.88,73.88 -467.02,92.22 -469.54,93.50 -477.93,97.70 -483.05,100.26 -490.19,104.00 -515.58,117.31 -561.84,143.27 -600.48,163.51 -606.01,166.41 -613.40,166.87 -617.83,169.23 -618.72,169.70 -660.64,192.67 -669.42,192.64 -679.50,197.91 -683.02,199.75 -685.99,201.30 -693.00,204.97 -698.52,217.56 -722.25,230.27 -729.79,234.31 -737.95,238.76 -770.97,256.72 -788.03,266.01 -796.63,268.49" fill="none" stroke="#bcbcbc" stroke-width="8" stroke-linecap="round" stroke-linejoin="round" /><polyline points="535.46,708.50 517.85,710.11 462.82,715.15 460.34,715.38 456.83,715.70 451.15,716.22 397.79,721.12 379.24,719.40 357.63,724.82 340.32,729.06 331.10,731.32 308.19,732.19 288.36,731.18 278.26,730.11 269.65,727.50 263.32,724.00 239.72,707.32 182.40,667.95 177.00,664.28 171.49,660.55 167.38,656.56" fill="none" stroke="#bcbcbc" stroke-width="8" stroke-linecap="round" stroke-linejoin="round" /><polyline points="-762.88,43.77 -742.08,84.50 -738.93,96.13 -721.41,129.56 -714.17,139.13 -684.89,196.11 -683.02,199.75" fill="none" stroke="#bcbcbc" stroke-width="8" stroke-linecap="round" stroke-linejoin="round" /><polyline points="-125.45,405.91 -128.56,414.48 -129.44,417.14 -133.50,429.45 -159.23,501.25 -172.01,536.90 -172.44,538.12 -177.58,549.20 -180.52,555.79" fill="none" stroke="#bcbcbc" stroke-width="8" stroke-linecap="round" stroke-linejoin="round" /><polyline points="215.95,-224.18 213.10,-230.29 205.60,-231.27 181.34,-225.71 176.41,-226.35 172.55,-231.53 165.69,-263.09 202.87,-268.84 220.07,-273.92 228.49,-274.80 237.55,-242.57" fill="none" stroke="#bcbcbc" stroke-width="8" stroke-linecap="round" stroke-linejoin="round" /><polyline points="350.31,124.83 359.89,119.45 407.99,90.47 420.84,82.82 443.34,69.40 480.36,45.46 488.99,39.25 553.92,-1.02" fill="none" stroke="#bcbcbc" stroke-width="8" stroke-linecap="round" stroke-linejoin="round" /><polyline points="577.27,315.08 560.86,310.19 551.32,302.37 514.84,270.81 513.60,269.70 504.79,261.83 499.60,252.64 407.99,90.47" fill="none" stroke="#bcbcbc" stroke-width="8" stroke-linecap="round" stroke-linejoin="round" /><polyline points="-456.68,302.23 -312.93,346.46 -301.20,350.18 -193.93,384.19 -191.69,384.90 -175.62,389.99 -167.72,392.50 -157.45,395.31 -136.28,402.48 -125.45,405.91 -115.70,409.00 -35.87,434.33 48.40,460.81 55.37,463.00 65.03,458.25" fill="none" stroke="#bcbcbc" stroke-width="8" stroke-linecap="round" stroke-linejoin="round" /><polyline points="-34.02,-407.45 28.25,-464.66 38.79,-474.35" fill="none" stroke="#bcbcbc" stroke-width="8" stroke-linecap="round" stroke-linejoin="round" /><polyline points="-1076.71,515.77 -848.23,540.26" fill="none" stroke="#bcbcbc" stroke-width="8" stroke-linecap="round" stroke-linejoin="round" /><polyline points="-387.45,-121.96 -339.43,-139.13 -289.89,-157.04 -259.11,-169.01 -165.15,-203.18 -137.87,-212.62 -132.18,-214.59 -125.35,-216.93 -117.68,-219.57 -116.74,-219.90 -101.26,-226.12 -94.53,-228.82" fill="none" stroke="#bcbcbc" stroke-width="8" stroke-linecap="round" stroke-linejoin="round" /><polyline points="-64.91,1040.13 -19.70,1095.90 7.98,1123.77 19.96,1132.40 36.93,1146.61 52.86,1159.99 66.55,1173.34 66.89,1180.13" fill="none" stroke="#bcbcbc" stroke-width="8" stroke-linecap="round" stroke-linejoin="round" /><polyline points="-16.21,-246.25 1.51,-290.66 30.19,-363.78 71.28,-468.54 91.58,-518.17 121.84,-592.17 146.65,-652.79 151.09,-660.83 172.91,-696.50 174.32,-698.80 182.30,-714.50 196.29,-736.06 204.11,-748.09 215.17,-765.12" fill="none" stroke="#bcbcbc" stroke-width="8" stroke-linecap="round" stroke-linejoin="round" /><polyline points="-434.22,941.22 -437.12,943.54 -439.04,946.30 -442.95,957.82 -445.65,966.14 -458.13,1003.47 -459.85,1008.86 -460.92,1012.20 -472.38,1008.91 -500.28,999.56 -527.93,990.29 -549.29,989.08" fill="none" stroke="#bcbcbc" stroke-width="8" stroke-linecap="round" stroke-linejoin="round" /><polyline points="-980.58,1200.97 -935.02,1083.31 -929.95,1070.51 -925.40,1058.17 -919.91,1043.26 -913.17,1019.81 -906.14,990.67 -903.27,969.79 -901.18,954.62 -898.23,943.42 -887.50,859.29 -874.98,753.12 -868.50,702.50 -861.27,643.04 -848.23,540.26 -846.16,522.79 -832.99,415.30 -832.98,409.31 -830.07,377.42 -821.67,310.05 -819.56,298.30 -817.36,291.71 -813.93,284.45 -810.59,278.82 -803.21,270.84 -796.62,268.57" fill="none" stroke="#bcbcbc" stroke-width="8" stroke-linecap="round" stroke-linejoin="round" /><polyline points="14.05,307.32 16.55,311.27 24.90,324.31 37.41,344.36 40.43,349.15 45.41,345.36 69.61,326.99" fill="none" stroke="#bcbcbc" stroke-width="8" stroke-linecap="round" stroke-linejoin="round" /><polyline points="30.19,-363.78 276.36,-319.28 302.22,-305.67 398.67,-257.86 407.16,-260.49" fill="none" stroke="#bcbcbc" stroke-width="8" stroke-linecap="round" stroke-linejoin="round" /><polyline points="-439.78,193.98 -444.15,200.36 -483.42,219.52 -512.26,256.18 -543.39,275.46 -564.68,291.53 -584.99,308.10 -595.40,317.59 -613.79,340.92 -634.36,370.40 -637.75,375.86" fill="none" stroke="#bcbcbc" stroke-width="8" stroke-linecap="round" stroke-linejoin="round" /><polyline points="-398.26,220.28 -399.96,224.07 -403.68,229.51 -410.72,238.17 -452.21,290.58 -474.15,349.69 -584.94,308.05" fill="none" stroke="#bcbcbc" stroke-width="8" stroke-linecap="round" stroke-linejoin="round" /><polyline points="-564.68,291.53 -568.97,278.54 -587.50,222.42 -594.70,211.33 -606.75,175.19 -607.79,172.07 -606.01,166.41 -608.90,157.20 -666.82,-27.75" fill="none" stroke="#bcbcbc" stroke-width="8" stroke-linecap="round" stroke-linejoin="round" /><polyline points="114.07,-717.64 159.85,-716.44 161.98,-716.38 170.76,-716.13 182.30,-714.50" fill="none" stroke="#bcbcbc" stroke-width="8" stroke-linecap="round" stroke-linejoin="round" /><polyline points="-121.41,773.65 -137.04,773.46 -269.39,791.23 -278.93,792.23 -289.84,793.38 -353.18,800.07 -438.51,809.08 -483.75,813.85 -508.78,816.49 -529.09,818.96 -539.53,820.23 -551.28,821.66 -608.05,828.56 -621.65,830.21 -663.58,834.79 -887.50,859.29" fill="none" stroke="#bcbcbc" stroke-width="8" stroke-linecap="round" stroke-linejoin="round" /><polyline points="-317.37,1233.20 -329.10,1229.43 -383.86,1211.80 -394.93,1208.24 -404.54,1205.15 -462.56,1186.50 -474.00,1182.82 -489.14,1177.95 -581.50,1148.23 -591.89,1144.88" fill="none" stroke="#bcbcbc" stroke-width="8" stroke-linecap="round" stroke-linejoin="round" /><polyline points="-88.37,124.39 -56.52,134.32 59.98,170.29 61.06,170.63 69.70,171.17" fill="none" stroke="#bcbcbc" stroke-width="8" stroke-linecap="round" stroke-linejoin="round" /><polyline points="239.41,-137.96 397.88,-135.17" fill="none" stroke="#bcbcbc" stroke-width="8" stroke-linecap="round" stroke-linejoin="round" /><polyline points="161.82,1254.27 139.16,1227.34 129.66,1216.29 121.49,1208.66 110.62,1200.54 88.39,1187.20 66.89,1180.13 23.14,1166.62 -12.65,1155.26 7.98,1123.77" fill="none" stroke="#bcbcbc" stroke-width="8" stroke-linecap="round" stroke-linejoin="round" /><polyline points="-64.91,1040.13 -96.45,1001.19 -102.45,993.79 -134.22,950.02 -141.41,936.65 -139.69,920.74 -130.11,920.65 -106.48,925.20 -70.52,932.11" fill="none" stroke="#bcbcbc" stroke-width="8" stroke-linecap="round" stroke-linejoin="round" /><polyline points="-477.55,728.18 -471.73,740.69 -438.51,809.08 -389.11,910.77 -382.81,923.74" fill="none" stroke="#bcbcbc" stroke-width="8" stroke-linecap="round" stroke-linejoin="round" /><polyline points="-1009.63,1037.93 -997.75,1042.79 -942.10,1065.54 -929.95,1070.51 -917.17,1075.73 -851.65,1102.52 -839.80,1107.37" fill="none" stroke="#bcbcbc" stroke-width="8" stroke-linecap="round" stroke-linejoin="round" /><polyline points="-450.21,626.78 -334.27,677.50" fill="none" stroke="#bcbcbc" stroke-width="8" stroke-linecap="round" stroke-linejoin="round" /><polyline points="69.70,171.17 87.36,172.10 88.49,173.10 96.41,180.13 108.06,190.52 110.21,194.70 150.35,229.85 153.31,235.46 181.54,260.37 188.64,262.54 210.60,281.77 215.52,284.01 248.63,312.10 256.00,318.64 260.07,325.11" fill="none" stroke="#bcbcbc" stroke-width="8" stroke-linecap="round" stroke-linejoin="round" /><polyline points="-1042.35,626.89 -861.27,643.04" fill="none" stroke="#bcbcbc" stroke-width="8" stroke-linecap="round" stroke-linejoin="round" /><polyline points="-638.02,1301.20 -632.41,1289.26 -630.97,1283.94 -623.11,1254.95 -594.62,1154.50 -591.89,1144.88 -589.01,1134.34 -576.11,1087.14 -554.31,1007.45 -549.29,989.08" fill="none" stroke="#bcbcbc" stroke-width="8" stroke-linecap="round" stroke-linejoin="round" /><polyline points="-477.55,728.18 -450.21,626.78 -508.18,606.50 -523.35,615.46 -530.27,620.72 -535.40,627.65 -539.00,636.80 -552.33,686.08 -541.58,691.56 -530.71,694.19 -506.69,700.45 -488.70,706.17 -477.55,728.18" fill="none" stroke="#bcbcbc" stroke-width="8" stroke-linecap="round" stroke-linejoin="round" /><polyline points="-552.33,686.08 -565.03,684.31 -861.27,643.04" fill="none" stroke="#bcbcbc" stroke-width="8" stroke-linecap="round" stroke-linejoin="round" /><polyline points="-70.52,932.11 -43.05,938.12 31.27,961.74 52.04,968.31 101.36,982.55 151.04,996.88 187.82,1007.51 246.65,1024.49 258.80,1028.00 288.49,1037.95 337.36,1050.97 341.67,1051.78" fill="none" stroke="#bcbcbc" stroke-width="8" stroke-linecap="round" stroke-linejoin="round" /><polyline points="-35.67,1361.41 -45.69,1363.93 -56.53,1394.14 -73.34,1389.37 -149.77,1363.32 -158.98,1361.35 -179.44,1359.89 -272.00,1360.26 -292.40,1357.66 -338.48,1350.61 -357.07,1347.60 -488.90,1326.34 -539.95,1318.19 -637.30,1301.33 -653.02,1298.21 -872.73,1236.80 -886.59,1232.92 -980.58,1200.97 -1003.70,1192.77 -1061.46,1168.83 -1094.38,1156.38" fill="none" stroke="#bcbcbc" stroke-width="8" stroke-linecap="round" stroke-linejoin="round" /><polyline points="165.69,-263.09 156.18,-265.05 29.19,-250.04 -16.21,-246.25" fill="none" stroke="#bcbcbc" stroke-width="8" stroke-linecap="round" stroke-linejoin="round" /><polyline points="-70.52,932.11 -66.07,924.67 -39.42,856.23 -9.65,752.75 -2.06,730.46 2.01,724.39 30.75,632.12 32.18,621.10 33.27,613.90" fill="none" stroke="#bcbcbc" stroke-width="8" stroke-linecap="round" stroke-linejoin="round" /><polyline points="60.34,-67.51 63.38,-68.67 67.49,-71.94 73.74,-79.24 154.82,-195.58 176.41,-226.35" fill="none" stroke="#bcbcbc" stroke-width="8" stroke-linecap="round" stroke-linejoin="round" /><polyline points="421.21,359.86 422.87,355.08 463.63,307.13 466.62,305.54 473.70,295.85 497.41,268.62 504.79,261.83" fill="none" stroke="#bcbcbc" stroke-width="8" stroke-linecap="round" stroke-linejoin="round" /><polyline points="456.83,715.70 456.26,709.29 455.83,704.32 453.68,694.83 451.11,688.64 447.91,672.38 447.62,666.49 445.45,653.33 435.75,648.26 428.00,651.22 414.12,654.54 403.13,656.26 392.60,658.80 378.05,662.12 371.42,663.63" fill="none" stroke="#bcbcbc" stroke-width="8" stroke-linecap="round" stroke-linejoin="round" /><polyline points="-613.98,480.21 -584.33,410.73 -582.69,406.21" fill="none" stroke="#bcbcbc" stroke-width="8" stroke-linecap="round" stroke-linejoin="round" /><polyline points="-434.22,941.21 -403.46,930.05 -393.17,926.90 -382.81,923.74 -363.70,917.90 -348.83,915.76 -298.04,910.20 -287.84,909.65 -242.40,910.04 -214.72,910.27 -204.31,909.74 -187.64,911.43 -182.42,912.17 -171.79,913.69 -139.69,920.74" fill="none" stroke="#bcbcbc" stroke-width="8" stroke-linecap="round" stroke-linejoin="round" /><polyline points="-287.67,28.07 -292.77,10.85 -311.69,-53.14 -334.68,-126.11 -339.43,-139.13 -344.25,-151.34 -350.34,-168.93" fill="none" stroke="#bcbcbc" stroke-width="8" stroke-linecap="round" stroke-linejoin="round" /><polyline points="-342.72,1059.84 -338.68,1047.07 -297.79,918.13 -298.04,910.20" fill="none" stroke="#bcbcbc" stroke-width="8" stroke-linecap="round" stroke-linejoin="round" /><polyline points="-287.84,909.65 -279.74,801.08 -278.93,792.23 -277.70,781.93 -277.68,781.47 -277.14,768.87 -274.44,734.70 -272.92,718.78 -270.84,700.70 -268.94,687.69 -267.23,679.51 -265.09,673.33 -260.89,659.41 -252.20,630.43 -241.16,593.01 -228.98,554.75 -226.50,546.94 -224.50,541.29" fill="none" stroke="#bcbcbc" stroke-width="8" stroke-linecap="round" stroke-linejoin="round" /><polyline points="-552.33,686.08 -554.49,695.70 -554.12,698.78 -540.93,808.60 -539.53,820.23 -540.13,832.19 -543.59,900.50 -545.03,929.04 -545.78,943.76 -547.11,969.99 -547.80,983.66 -549.29,989.08" fill="none" stroke="#bcbcbc" stroke-width="8" stroke-linecap="round" stroke-linejoin="round" /><polyline points="-613.98,480.21 -661.94,465.96 -668.03,462.05 -697.88,453.35 -706.27,453.44 -743.77,442.14 -749.83,437.67 -783.96,427.33 -825.84,415.91 -826.04,415.89 -832.99,415.30" fill="none" stroke="#bcbcbc" stroke-width="8" stroke-linecap="round" stroke-linejoin="round" /><polyline points="260.07,325.11 261.73,327.30 268.69,337.66 281.54,356.83 293.65,368.95 316.91,395.07 312.98,419.21 310.98,428.26 308.21,432.08 314.04,440.71 323.06,459.28 341.10,494.08 349.98,511.21 355.50,526.61 357.99,533.76" fill="none" stroke="#bcbcbc" stroke-width="8" stroke-linecap="round" stroke-linejoin="round" /><polyline points="381.54,374.82 374.85,376.90 330.81,390.61 324.49,392.64 316.91,395.07" fill="none" stroke="#bcbcbc" stroke-width="8" stroke-linecap="round" stroke-linejoin="round" /><polyline points="65.03,458.25 78.81,453.79 178.78,402.74 192.16,396.20 239.28,382.59 284.96,369.75 293.65,368.95" fill="none" stroke="#bcbcbc" stroke-width="8" stroke-linecap="round" stroke-linejoin="round" /><polyline points="75.93,521.45 191.18,467.82 196.03,464.61 207.30,461.33 284.10,438.98 295.75,434.52 308.21,432.08" fill="none" stroke="#bcbcbc" stroke-width="8" stroke-linecap="round" stroke-linejoin="round" /><polyline points="52.41,-602.95 99.06,-597.19 103.75,-596.61 121.84,-592.17" fill="none" stroke="#bcbcbc" stroke-width="8" stroke-linecap="round" stroke-linejoin="round" /><polyline points="451.10,-128.63 459.38,-130.35 490.29,-115.20 494.36,-111.17 552.39,-12.94 553.92,-1.02 561.47,5.26 560.27,9.60 560.09,16.69 561.13,26.59 576.50,89.76 577.86,133.51 580.02,203.36 583.63,297.39 568.91,338.36 559.43,363.34 545.59,398.54 541.58,408.72 538.98,411.56 534.79,438.80" fill="none" stroke="#bcbcbc" stroke-width="8" stroke-linecap="round" stroke-linejoin="round" /><polyline points="558.39,604.74 544.28,598.60 509.01,573.98 462.48,541.29 436.88,520.59 419.62,502.10" fill="none" stroke="#bcbcbc" stroke-width="8" stroke-linecap="round" stroke-linejoin="round" /><polyline points="-12.65,1155.26 -26.51,1150.87 -49.00,1143.74 -59.74,1140.33 -72.34,1136.34 -88.27,1131.29 -102.68,1126.72 -116.91,1122.20 -180.41,1102.05 -191.53,1098.53 -205.34,1094.15 -208.38,1093.19 -244.70,1083.59 -254.95,1081.11 -267.80,1078.00 -281.25,1074.74 -329.72,1062.99 -342.72,1059.84 -356.68,1054.99 -385.86,1044.85 -396.86,1041.03 -406.70,1037.84 -452.39,1021.59 -458.15,1018.16 -460.92,1012.20" fill="none" stroke="#bcbcbc" stroke-width="8" stroke-linecap="round" stroke-linejoin="round" /><polyline points="196.03,464.61 192.67,452.54 182.64,416.57 178.78,402.74 173.20,392.40 172.68,390.48 169.40,378.31 173.22,372.92 168.63,357.57 167.20,352.80" fill="none" stroke="#bcbcbc" stroke-width="8" stroke-linecap="round" stroke-linejoin="round" /><polyline points="179.26,24.45 188.80,19.96 240.90,-8.76 270.68,-27.92 291.69,-42.25 296.33,-45.70 313.23,-57.45 330.75,-70.39 341.85,-78.47 355.07,-88.14 401.04,-108.88 407.00,-108.56 415.71,-112.68 451.10,-128.63" fill="none" stroke="#bcbcbc" stroke-width="8" stroke-linecap="round" stroke-linejoin="round" /><polyline points="-398.26,220.28 -390.74,223.33 -385.77,224.86 -292.60,253.48 -278.37,257.85" fill="none" stroke="#bcbcbc" stroke-width="8" stroke-linecap="round" stroke-linejoin="round" /><polyline points="-1063.80,429.82 -1130.37,409.67" fill="none" stroke="#bcbcbc" stroke-width="8" stroke-linecap="round" stroke-linejoin="round" /><polyline points="11.49,-508.93 28.00,-488.02 30.46,-484.90 38.79,-474.35 48.29,-473.23 67.81,-470.94 71.28,-468.54" fill="none" stroke="#bcbcbc" stroke-width="8" stroke-linecap="round" stroke-linejoin="round" /><polyline points="584.64,421.05 558.48,425.93 531.67,440.50 506.81,454.34 483.29,466.10 454.88,481.53 434.31,494.02 393.66,515.81 234.95,595.66 193.81,613.78 166.62,625.54 153.15,629.95 142.01,632.03 123.76,633.13 97.80,629.46 33.02,613.90 -58.94,592.47 -179.93,555.98 -224.50,541.29 -297.49,518.75 -367.29,495.73 -469.66,455.56 -520.85,433.52 -582.57,406.09 -684.94,350.01 -708.94,334.09 -769.68,295.88 -795.15,270.41 -833.36,220.94 -896.30,156.04 -921.04,134.24" fill="none" stroke="#bcbcbc" stroke-width="8" stroke-linecap="round" stroke-linejoin="round" /><polyline points="88.39,1187.20 89.47,1181.22 93.34,1171.45 129.64,1086.50 143.36,1054.66 159.52,1014.98 163.46,1000.46" fill="none" stroke="#bcbcbc" stroke-width="8" stroke-linecap="round" stroke-linejoin="round" /><polyline points="-608.05,828.56 -649.29,808.60 -743.12,763.18 -858.22,707.48 -868.50,702.50" fill="none" stroke="#bcbcbc" stroke-width="8" stroke-linecap="round" stroke-linejoin="round" /><polyline points="69.70,171.17 80.11,160.51 107.80,132.16 129.77,108.17" fill="none" stroke="#bcbcbc" stroke-width="8" stroke-linecap="round" stroke-linejoin="round" /><polyline points="-729.79,234.31 -741.23,219.17 -794.83,148.19 -871.36,86.27" fill="none" stroke="#bcbcbc" stroke-width="8" stroke-linecap="round" stroke-linejoin="round" /><polyline points="-1061.87,1168.66 -1051.41,1143.85 -1018.14,1060.89 -1014.10,1050.01 -1009.63,1037.93 -1007.93,1033.57 -1007.48,1026.75 -1003.22,962.26 -1002.00,943.76" fill="none" stroke="#bcbcbc" stroke-width="8" stroke-linecap="round" stroke-linejoin="round" /><polyline points="-1084.57,501.86 -1063.80,429.82 -1036.40,334.80 -1033.00,323.04 -1029.23,309.68 -1020.79,279.76 -1019.90,276.62 -1017.48,267.00 -1013.62,256.12 -1012.69,253.49 -1007.82,241.42 -998.26,220.32 -995.40,214.26" fill="none" stroke="#bcbcbc" stroke-width="8" stroke-linecap="round" stroke-linejoin="round" /><polyline points="-1033.00,323.04 -990.98,333.79 -901.95,356.67 -851.23,372.46 -830.07,377.42" fill="none" stroke="#bcbcbc" stroke-width="8" stroke-linecap="round" stroke-linejoin="round" /><polyline points="-167.89,-3.84 -166.46,-12.59 -165.02,-21.67 -158.86,-52.04 -143.45,-122.75 -130.80,-186.00 -128.49,-199.12 -125.35,-216.93 -125.34,-216.95" fill="none" stroke="#bcbcbc" stroke-width="8" stroke-linecap="round" stroke-linejoin="round" /><polyline points="-292.32,1357.67 -273.56,1309.81 -271.23,1301.21 -196.76,1112.16 -191.53,1098.53 -187.29,1086.96 -142.79,957.49 -134.22,950.02" fill="none" stroke="#bcbcbc" stroke-width="8" stroke-linecap="round" stroke-linejoin="round" /><polyline points="-37.05,-40.44 -37.06,-40.46 -39.70,-54.30 -40.11,-55.98 -46.54,-82.14 -46.54,-82.23 -50.92,-99.97 -69.51,-163.66 -71.85,-170.48 -84.40,-204.59 -88.48,-214.78 -91.11,-221.35 -94.52,-228.81 -94.53,-228.82 -94.53,-228.85 -97.02,-256.29 -97.26,-269.75" fill="none" stroke="#bcbcbc" stroke-width="8" stroke-linecap="round" stroke-linejoin="round" /><polyline points="-64.91,1040.13 -69.69,1045.29 -76.81,1053.77 -96.87,1110.34 -102.68,1126.72" fill="none" stroke="#bcbcbc" stroke-width="8" stroke-linecap="round" stroke-linejoin="round" /><polyline points="-398.26,220.28 -395.52,212.86 -394.90,211.13 -381.87,174.74 -376.98,159.41 -337.05,41.99" fill="none" stroke="#bcbcbc" stroke-width="8" stroke-linecap="round" stroke-linejoin="round" /><polyline points="-191.69,384.90 -187.62,374.07 -176.58,344.76 -171.92,332.37 -168.76,323.99 -159.91,300.46 -154.06,284.93 -153.27,282.84 -139.10,245.20 -133.18,247.03 -129.97,238.29 -124.29,222.83 -125.38,215.81 -110.30,174.77 -108.75,170.56 -105.89,167.93 -103.49,165.72 -88.37,124.39 -86.19,113.08 -64.50,52.82 -59.37,48.80 -48.93,19.28 -50.79,14.75 -41.65,-12.82 -46.39,-37.44" fill="none" stroke="#bcbcbc" stroke-width="8" stroke-linecap="round" stroke-linejoin="round" /><polyline points="196.29,-736.06 190.22,-746.03 158.28,-798.42" fill="none" stroke="#bcbcbc" stroke-width="8" stroke-linecap="round" stroke-linejoin="round" /><polyline points="296.33,-45.70 442.88,48.54 442.93,48.61 442.93,48.62 470.03,52.14" fill="none" stroke="#bcbcbc" stroke-width="8" stroke-linecap="round" stroke-linejoin="round" /><polyline points="237.55,-242.57 393.49,-164.30 398.19,-160.79 397.88,-135.17 401.04,-108.88" fill="none" stroke="#bcbcbc" stroke-width="8" stroke-linecap="round" stroke-linejoin="round" /><polyline points="-59.74,1140.33 -65.35,1157.44 -88.07,1226.74 -126.71,1343.43 -129.45,1351.71 -132.23,1360.10 -133.01,1369.03" fill="none" stroke="#bcbcbc" stroke-width="8" stroke-linecap="round" stroke-linejoin="round" /><polyline points="379.24,719.40 380.17,710.71 380.37,702.60 380.31,702.31 374.78,678.43 372.51,668.45 371.42,663.63 370.30,658.71 364.24,631.99 352.39,578.59 343.78,546.48 342.56,541.52" fill="none" stroke="#bcbcbc" stroke-width="8" stroke-linecap="round" stroke-linejoin="round" /><polyline points="-394.93,1208.24 -391.07,1197.25 -347.65,1073.85 -342.72,1059.84" fill="none" stroke="#bcbcbc" stroke-width="8" stroke-linecap="round" stroke-linejoin="round" /><polyline points="580.02,203.36 567.24,199.76 480.48,66.63 470.03,52.14" fill="none" stroke="#bcbcbc" stroke-width="8" stroke-linecap="round" stroke-linejoin="round" /><polyline points="-846.16,522.79 -529.98,598.54 -508.18,606.50" fill="none" stroke="#bcbcbc" stroke-width="8" stroke-linecap="round" stroke-linejoin="round" /><polyline points="151.09,-660.83 274.25,-615.20 291.59,-618.17" fill="none" stroke="#bcbcbc" stroke-width="8" stroke-linecap="round" stroke-linejoin="round" />
    <polyline points="167.20,352.80 181.49,347.27 188.96,344.37 194.73,338.52 218.55,332.65 226.54,334.69 243.78,330.25 256.94,326.86 260.07,325.11 272.82,321.99 338.02,306.01 352.80,301.60" fill="none" stroke="#ffffff" stroke-width="16" stroke-linecap="round" stroke-linejoin="round" />
    <polyline points="167.20,352.80 181.49,347.27 188.96,344.37 194.73,338.52 218.55,332.65 226.54,334.69 243.78,330.25 256.94,326.86 260.07,325.11 272.82,321.99 338.02,306.01 352.80,301.60" fill="none" stroke="#111111" stroke-width="9" stroke-linecap="round" stroke-linejoin="round" />
    
            <g transform="translate(167.20,352.80)">
              <circle r="19" fill="#ffffff" stroke="#111111" stroke-width="4" />
              <text text-anchor="middle" dominant-baseline="central" font-family="Helvetica, Arial, sans-serif"
                font-size="18" font-weight="700" fill="#111111">1</text>
            </g>
            
            <g transform="translate(352.80,301.60)">
              <circle r="19" fill="#ffffff" stroke="#111111" stroke-width="4" />
              <text text-anchor="middle" dominant-baseline="central" font-family="Helvetica, Arial, sans-serif"
                font-size="18" font-weight="700" fill="#111111">2</text>
            </g>
            
  </g>
</svg>
