<svg xmlns="http://www.w3.org/2000/svg" width="520" height="520" viewBox="0 0 520 520">
  <rect width="100%" height="100%" fill="#ffffff" />
  <g>
    <polyline points="725.09,-321.30 726.93,-311.49 738.84,-228.22 737.02,-207.40" fill="none" stroke="#bcbcbc" stroke-width="8" stroke-linecap="round" stroke-linejoin="round" /><polyline points="483.13,372.61 486.01,363.77 501.26,316.87 503.05,311.34 504.87,305.54 543.22,183.27 546.30,173.44 539.24,156.05" fill="none" stroke="#bcbcbc" stroke-width="8" stroke-linecap="round" stroke-linejoin="round" /><polyline points="218.27,263.86 217.65,256.84 230.18,186.63 231.94,177.85 233.26,173.25 236.71,155.45 240.58,133.66 244.81,114.47 249.00,95.32 251.64,89.92 253.36,86.61" fill="none" stroke="#bcbcbc" stroke-width="8" stroke-linecap="round" stroke-linejoin="round" /><polyline points="291.03,-231.36 288.05,-240.45 257.24,-334.40 255.74,-338.34" fill="none" stroke="#bcbcbc" stroke-width="8" stroke-linecap="round" stroke-linejoin="round" /><polyline points="132.96,595.50 133.88,586.53 134.25,582.42 137.60,545.32 141.27,512.66 142.13,505.04 142.93,495.89 143.02,495.12 145.10,476.92 146.89,458.43 148.87,440.59 150.20,426.70 150.76,418.12 151.25,410.21 152.12,401.28" fill="none" stroke="#bcbcbc" stroke-width="8" stroke-linecap="round" stroke-linejoin="round" /><polyline points="558.63,394.41 560.82,387.51 576.28,338.92 578.04,333.40 580.54,325.53 582.32,319.90 596.01,260.89" fill="none" stroke="#bcbcbc" stroke-width="8" stroke-linecap="round" stroke-linejoin="round" /><polyline points="498.54,-566.76 504.25,-565.88 661.56,-541.71" fill="none" stroke="#bcbcbc" stroke-width="8" stroke-linecap="round" stroke-linejoin="round" /><polyline points="94.69,382.96 78.31,382.20 68.33,381.73 62.91,381.48 58.15,381.26 21.07,379.54 -30.50,377.14 -55.09,373.65 -63.31,372.49 -70.45,371.23 -118.80,362.69 -125.56,361.50 -127.05,361.24 -135.40,359.81 -141.82,358.71 -182.78,355.09 -190.59,354.40 -193.45,354.15 -202.31,353.54 -219.65,352.33" fill="none" stroke="#bcbcbc" stroke-width="8" stroke-linecap="round" stroke-linejoin="round" /><polyline points="332.57,335.46 335.74,326.43 364.32,247.22 398.70,147.30 400.90,141.03 402.44,136.65 403.68,133.06" fill="none" stroke="#bcbcbc" stroke-width="8" stroke-linecap="round" stroke-linejoin="round" /><polyline points="-193.45,354.15 -194.18,349.06 -194.35,343.52 -193.27,332.38 -190.78,312.04 -189.12,305.22 -186.43,280.53 -185.93,275.03 -185.15,267.97 -184.56,262.72 -183.46,256.77 -181.41,240.76 -179.99,228.51 -177.90,223.50" fill="none" stroke="#bcbcbc" stroke-width="8" stroke-linecap="round" stroke-linejoin="round" /><polyline points="-222.70,217.24 -184.58,222.57 -177.90,223.50 -173.76,224.16 -156.67,226.88 -117.30,233.15 -110.55,234.28" fill="none" stroke="#bcbcbc" stroke-width="8" stroke-linecap="round" stroke-linejoin="round" /><polyline points="478.85,-282.80 479.10,-279.33 479.61,-275.82 480.85,-273.13 483.17,-270.14 487.45,-266.24 497.61,-260.06 575.99,-210.89 624.26,-146.18 660.72,-56.20 663.10,-50.26" fill="none" stroke="#bcbcbc" stroke-width="8" stroke-linecap="round" stroke-linejoin="round" /><polyline points="466.30,-20.26 467.92,-17.57 468.35,-16.88 469.69,-10.09 478.89,34.37 481.81,48.49 483.89,58.54 487.15,78.91 488.67,88.31 489.72,94.04 490.87,99.22 492.24,102.24 494.25,105.73 495.33,107.38 515.70,136.54 526.71,153.88 529.58,158.03" fill="none" stroke="#bcbcbc" stroke-width="8" stroke-linecap="round" stroke-linejoin="round" /><polyline points="-118.33,536.47 -117.25,529.80 -116.24,524.97 -115.97,524.33 -102.42,492.11 -93.78,471.16 -91.16,464.52 -88.38,457.49 -85.36,451.45 -84.87,450.27 -80.74,440.28 -77.54,431.44 -74.80,423.33 -73.06,417.60 -71.11,410.52 -68.86,401.03 -67.15,393.32 -65.11,382.57 -64.69,380.17 -63.31,372.49" fill="none" stroke="#bcbcbc" stroke-width="8" stroke-linecap="round" stroke-linejoin="round" /><polyline points="538.39,-363.49 581.61,-333.29 587.43,-332.06 591.69,-327.18" fill="none" stroke="#bcbcbc" stroke-width="8" stroke-linecap="round" stroke-linejoin="round" /><polyline points="356.90,-84.60 362.62,-82.41 387.42,-74.29 444.94,-52.24 448.17,-49.02 449.68,-46.62" fill="none" stroke="#bcbcbc" stroke-width="8" stroke-linecap="round" stroke-linejoin="round" /><polyline points="464.10,482.22 468.01,472.01 487.35,419.55 501.03,379.91 503.86,378.61" fill="none" stroke="#bcbcbc" stroke-width="8" stroke-linecap="round" stroke-linejoin="round" /><polyline points="190.74,415.70 193.79,408.95 194.09,408.28 199.31,390.77 207.87,361.95 210.06,354.57 211.76,348.84 211.99,345.50 211.64,338.11" fill="none" stroke="#bcbcbc" stroke-width="8" stroke-linecap="round" stroke-linejoin="round" /><polyline points="546.19,-17.96 541.28,-16.95 530.17,-18.92 528.45,-23.51 509.20,-30.85 504.65,-29.66 487.28,-36.03 484.69,-34.22" fill="none" stroke="#bcbcbc" stroke-width="8" stroke-linecap="round" stroke-linejoin="round" /><polyline points="517.60,-613.38 526.33,-611.25 531.15,-610.41 645.91,-590.51" fill="none" stroke="#bcbcbc" stroke-width="8" stroke-linecap="round" stroke-linejoin="round" /><polyline points="428.41,450.27 433.19,436.81 442.46,410.66 448.46,399.52 457.08,375.37 460.53,365.73" fill="none" stroke="#bcbcbc" stroke-width="8" stroke-linecap="round" stroke-linejoin="round" /><polyline points="-200.34,-72.02 -208.66,-72.40 -210.74,-69.87 -225.22,-52.28 -275.84,6.18 -282.95,14.40" fill="none" stroke="#bcbcbc" stroke-width="8" stroke-linecap="round" stroke-linejoin="round" /><polyline points="243.63,-21.95 239.96,-13.83 239.52,-12.84 226.77,20.39 213.92,56.98 210.49,66.74 208.55,71.78" fill="none" stroke="#bcbcbc" stroke-width="8" stroke-linecap="round" stroke-linejoin="round" /><polyline points="430.61,-395.42 434.66,-389.93 437.56,-382.37 442.05,-371.53 449.28,-354.47 455.67,-339.16 463.01,-322.35 468.46,-309.40 469.27,-307.54 469.32,-307.43 473.70,-297.18 475.01,-294.27 476.25,-291.49 477.57,-288.90 478.56,-286.26 478.85,-282.79" fill="none" stroke="#bcbcbc" stroke-width="8" stroke-linecap="round" stroke-linejoin="round" /><polyline points="120.60,141.90 122.72,140.74 125.68,138.38 127.17,135.32 146.86,60.65 147.45,56.44 149.86,48.75" fill="none" stroke="#bcbcbc" stroke-width="8" stroke-linecap="round" stroke-linejoin="round" /><polyline points="809.24,25.05 812.03,33.91 814.00,43.23 810.17,78.72 805.74,105.41 803.33,114.52 803.11,115.34 800.99,120.26 798.11,125.47 791.37,133.99 794.63,150.65 784.08,186.41 778.25,206.16 766.33,238.49 748.87,277.85 727.55,315.57 720.89,327.83 708.85,347.97 660.76,416.23 650.22,430.42 609.42,483.74 586.00,510.39 553.23,543.69 550.19,544.00 542.79,550.05" fill="none" stroke="#bcbcbc" stroke-width="8" stroke-linecap="round" stroke-linejoin="round" /><polyline points="215.82,608.86 229.24,567.23 231.44,560.35 234.42,556.02 240.83,536.78 242.92,530.25 269.40,447.33 272.07,438.99 274.26,431.66 305.52,333.30" fill="none" stroke="#bcbcbc" stroke-width="8" stroke-linecap="round" stroke-linejoin="round" /><polyline points="530.31,-165.39 541.92,-178.07 545.34,-182.20 568.79,-215.41" fill="none" stroke="#bcbcbc" stroke-width="8" stroke-linecap="round" stroke-linejoin="round" /><polyline points="298.35,-160.37 330.31,-149.25 332.07,-146.38 341.15,-143.33 346.53,-141.49 372.29,-132.79" fill="none" stroke="#bcbcbc" stroke-width="8" stroke-linecap="round" stroke-linejoin="round" /><polyline points="576.91,-381.51 591.69,-327.18 608.80,-263.18 611.40,-257.85 611.81,-251.76 623.41,-230.10 654.73,-171.70 661.57,-161.60 663.56,-158.65 710.35,-71.18 731.85,-51.63 734.87,-47.74 739.12,-44.10 779.95,-9.19 782.72,-6.83 790.05,-2.93" fill="none" stroke="#bcbcbc" stroke-width="8" stroke-linecap="round" stroke-linejoin="round" /><polyline points="418.12,617.70 519.94,558.56 538.07,549.29 542.79,550.05" fill="none" stroke="#bcbcbc" stroke-width="8" stroke-linecap="round" stroke-linejoin="round" /><polyline points="528.52,533.09 534.84,525.58 591.56,412.42 595.31,405.00 598.45,397.65 616.77,352.35 622.23,338.70 638.02,290.92 648.25,229.49 649.47,220.54" fill="none" stroke="#bcbcbc" stroke-width="8" stroke-linecap="round" stroke-linejoin="round" /><polyline points="484.75,-132.40 483.76,-131.39 482.39,-126.63 482.25,-126.15 476.10,-102.45 477.71,-96.27 476.37,-90.72 474.61,-83.46 470.11,-78.24 465.00,-57.54 458.98,-52.99 452.55,-48.58 449.68,-46.62" fill="none" stroke="#bcbcbc" stroke-width="8" stroke-linecap="round" stroke-linejoin="round" /><polyline points="243.63,-21.95 246.25,-28.66 261.98,-68.99 265.41,-77.79 268.24,-85.03 288.35,-136.54 297.40,-158.07 298.35,-160.37 305.38,-177.38 321.17,-216.57 326.95,-233.25 328.23,-237.07 329.96,-241.41" fill="none" stroke="#bcbcbc" stroke-width="8" stroke-linecap="round" stroke-linejoin="round" /><polyline points="419.70,-266.45 422.74,-257.39 522.60,-172.10 577.09,-124.70 658.48,-53.95 665.59,-48.27 668.77,-46.28 682.89,-33.46 701.75,-17.38 744.53,19.10 758.35,30.98 767.52,41.94" fill="none" stroke="#bcbcbc" stroke-width="8" stroke-linecap="round" stroke-linejoin="round" /><polyline points="584.81,-413.41 589.88,-416.66 619.88,-429.12 626.05,-435.61" fill="none" stroke="#bcbcbc" stroke-width="8" stroke-linecap="round" stroke-linejoin="round" /><polyline points="619.47,345.61 578.04,333.40 503.05,311.35" fill="none" stroke="#bcbcbc" stroke-width="8" stroke-linecap="round" stroke-linejoin="round" /><polyline points="485.74,-535.49 491.40,-531.59 675.79,-490.56" fill="none" stroke="#bcbcbc" stroke-width="8" stroke-linecap="round" stroke-linejoin="round" /><polyline points="713.51,71.56 703.98,50.36 682.83,-0.07 681.25,-4.08 677.63,-13.29 664.00,-47.98 663.14,-50.22" fill="none" stroke="#bcbcbc" stroke-width="8" stroke-linecap="round" stroke-linejoin="round" /><polyline points="430.61,-395.42 420.38,-398.33 412.85,-400.57 397.56,-405.11 389.80,-407.33 385.35,-408.56 379.54,-410.23" fill="none" stroke="#bcbcbc" stroke-width="8" stroke-linecap="round" stroke-linejoin="round" /><polyline points="163.70,-118.03 163.18,-119.72 162.70,-120.91 160.59,-126.15 152.42,-145.20 144.65,-164.56 142.97,-169.13 141.04,-174.39 139.66,-178.70 137.38,-185.16 137.14,-185.84 129.70,-204.15 116.06,-238.57 113.00,-240.32 110.82,-245.90 106.46,-261.02 99.01,-279.76 97.40,-284.02" fill="none" stroke="#bcbcbc" stroke-width="8" stroke-linecap="round" stroke-linejoin="round" /><polyline points="229.24,567.23 236.99,569.60 262.06,577.24 269.91,579.63" fill="none" stroke="#bcbcbc" stroke-width="8" stroke-linecap="round" stroke-linejoin="round" /><polyline points="697.40,-404.39 698.86,-410.30 698.27,-412.54 697.55,-415.25 692.97,-432.02 682.77,-467.46 677.38,-485.58 675.79,-490.56 661.56,-541.71 653.88,-569.30 645.91,-590.51 638.71,-609.65 631.54,-622.81 624.57,-629.76 571.10,-695.10 567.14,-699.75 564.52,-704.05" fill="none" stroke="#bcbcbc" stroke-width="8" stroke-linecap="round" stroke-linejoin="round" /><polyline points="478.85,-282.79 476.09,-281.74 471.00,-280.33 470.48,-280.19 449.19,-274.75 424.70,-267.85 419.70,-266.45 417.48,-265.74 411.59,-263.85 406.56,-262.45 384.61,-256.34 348.49,-246.08 335.03,-242.68 329.96,-241.41 305.90,-235.50 291.03,-231.36 259.55,-222.57 228.43,-213.80 224.83,-212.80 198.83,-205.58 186.83,-202.25 180.77,-199.39 169.31,-193.71 146.53,-182.15 144.95,-181.35 139.66,-178.70 136.43,-177.09 131.93,-174.73 115.93,-166.34 86.78,-149.98 62.43,-137.23 58.95,-135.40 54.29,-135.11 51.50,-133.63 50.94,-133.33 24.52,-118.85 18.99,-118.88 12.64,-115.56 10.42,-114.40 8.55,-113.42 4.13,-111.11 0.65,-103.17 -14.30,-95.16 -19.05,-92.62 -24.20,-89.82 -45.00,-78.50 -55.75,-72.65 -61.18,-71.08" fill="none" stroke="#bcbcbc" stroke-width="8" stroke-linecap="round" stroke-linejoin="round" /><polyline points="778.25,206.16 767.15,207.18 732.47,210.36 730.91,210.50 728.70,210.70 725.12,211.03 691.50,214.12 679.80,213.03 666.19,216.45 655.28,219.12 649.47,220.54 635.03,221.09 622.54,220.46 616.17,219.78 610.75,218.14 606.76,215.93 591.89,205.42 555.77,180.61 552.36,178.30 548.89,175.95 546.30,173.44" fill="none" stroke="#bcbcbc" stroke-width="8" stroke-linecap="round" stroke-linejoin="round" /><polyline points="-39.91,-212.68 -26.80,-187.02 -24.82,-179.69 -13.77,-158.62 -9.21,-152.59 9.24,-116.69 10.42,-114.40" fill="none" stroke="#bcbcbc" stroke-width="8" stroke-linecap="round" stroke-linejoin="round" /><polyline points="361.77,15.51 359.81,20.90 359.26,22.58 356.70,30.34 340.48,75.58 332.43,98.04 332.16,98.81 328.93,105.79 327.07,109.94" fill="none" stroke="#bcbcbc" stroke-width="8" stroke-linecap="round" stroke-linejoin="round" /><polyline points="576.91,-381.51 575.11,-385.36 570.39,-385.98 555.10,-382.48 551.99,-382.88 549.56,-386.14 545.24,-406.03 568.66,-409.66 579.51,-412.86 584.81,-413.41 590.52,-393.10" fill="none" stroke="#bcbcbc" stroke-width="8" stroke-linecap="round" stroke-linejoin="round" /><polyline points="661.57,-161.60 667.61,-164.99 697.92,-183.25 706.02,-188.08 720.20,-196.53 743.52,-211.61 748.97,-215.52 789.88,-240.90" fill="none" stroke="#bcbcbc" stroke-width="8" stroke-linecap="round" stroke-linejoin="round" /><polyline points="804.60,-41.72 794.25,-44.81 788.24,-49.74 765.26,-69.62 764.47,-70.32 758.92,-75.28 755.65,-81.07 697.92,-183.25" fill="none" stroke="#bcbcbc" stroke-width="8" stroke-linecap="round" stroke-linejoin="round" /><polyline points="153.05,-49.82 243.63,-21.95 251.02,-19.61 318.62,1.82 320.03,2.27 330.16,5.48 335.14,7.06 341.61,8.82 354.95,13.34 361.77,15.51 367.91,17.46 418.22,33.41 471.33,50.09 475.72,51.47 481.81,48.49" fill="none" stroke="#bcbcbc" stroke-width="8" stroke-linecap="round" stroke-linejoin="round" /><polyline points="419.39,-496.99 458.63,-533.04 465.27,-539.14" fill="none" stroke="#bcbcbc" stroke-width="8" stroke-linecap="round" stroke-linejoin="round" /><polyline points="-237.67,84.73 -93.69,100.16" fill="none" stroke="#bcbcbc" stroke-width="8" stroke-linecap="round" stroke-linejoin="round" /><polyline points="196.67,-317.10 226.93,-327.93 258.15,-339.21 277.54,-346.75 336.76,-368.28 353.95,-374.23 357.53,-375.47 361.84,-376.95 366.67,-378.61 367.26,-378.81 377.02,-382.73 381.26,-384.44" fill="none" stroke="#bcbcbc" stroke-width="8" stroke-linecap="round" stroke-linejoin="round" /><polyline points="399.92,415.13 428.41,450.27 445.85,467.83 453.41,473.26 464.10,482.22 474.14,490.65 482.76,499.06 482.98,503.34" fill="none" stroke="#bcbcbc" stroke-width="8" stroke-linecap="round" stroke-linejoin="round" /><polyline points="430.61,-395.42 441.78,-423.40 459.85,-469.48 485.74,-535.49 498.54,-566.76 517.60,-613.38 533.24,-651.58 536.03,-656.65 549.78,-679.12 550.67,-680.57 555.70,-690.46 564.52,-704.05 569.45,-711.63 576.42,-722.36" fill="none" stroke="#bcbcbc" stroke-width="8" stroke-linecap="round" stroke-linejoin="round" /><polyline points="167.20,352.80 165.37,354.26 164.16,356.00 161.70,363.27 160.00,368.51 152.13,392.03 151.05,395.42 150.38,397.53 143.15,395.46 125.57,389.56 108.15,383.72 94.69,382.96" fill="none" stroke="#bcbcbc" stroke-width="8" stroke-linecap="round" stroke-linejoin="round" /><polyline points="-177.09,516.47 -148.38,442.34 -145.18,434.27 -142.32,426.49 -138.86,417.10 -134.61,402.32 -130.18,383.96 -128.37,370.80 -127.05,361.24 -125.20,354.19 -118.44,301.18 -110.55,234.28 -106.46,202.39 -101.90,164.92 -93.69,100.16 -92.39,89.15 -84.08,21.42 -84.08,17.65 -82.25,-2.45 -76.95,-44.90 -75.62,-52.30 -74.24,-56.45 -72.07,-61.02 -69.97,-64.57 -65.32,-69.60 -61.17,-71.03" fill="none" stroke="#bcbcbc" stroke-width="8" stroke-linecap="round" stroke-linejoin="round" /><polyline points="449.68,-46.62 451.25,-44.13 456.52,-35.91 464.40,-23.28 466.30,-20.26 469.44,-22.65 484.69,-34.22" fill="none" stroke="#bcbcbc" stroke-width="8" stroke-linecap="round" stroke-linejoin="round" /><polyline points="459.85,-469.48 614.98,-441.44 631.27,-432.86 692.05,-402.74 697.40,-404.39" fill="none" stroke="#bcbcbc" stroke-width="8" stroke-linecap="round" stroke-linejoin="round" /><polyline points="163.70,-118.03 160.95,-114.01 136.20,-101.94 118.02,-78.84 98.41,-66.69 84.99,-56.57 72.19,-46.13 65.63,-40.15 54.04,-25.45 41.08,-6.87 38.95,-3.43" fill="none" stroke="#bcbcbc" stroke-width="8" stroke-linecap="round" stroke-linejoin="round" /><polyline points="189.86,-101.46 188.79,-99.07 186.44,-95.64 182.01,-90.19 155.87,-57.17 142.04,-19.92 72.23,-46.16" fill="none" stroke="#bcbcbc" stroke-width="8" stroke-linecap="round" stroke-linejoin="round" /><polyline points="84.99,-56.56 82.29,-64.75 70.61,-100.11 66.07,-107.10 58.48,-129.87 57.83,-131.84 58.95,-135.40 57.13,-141.21 20.62,-257.75" fill="none" stroke="#bcbcbc" stroke-width="8" stroke-linecap="round" stroke-linejoin="round" /><polyline points="512.71,-692.44 541.55,-691.68 542.90,-691.65 548.43,-691.49 555.70,-690.46" fill="none" stroke="#bcbcbc" stroke-width="8" stroke-linecap="round" stroke-linejoin="round" /><polyline points="364.32,247.22 354.47,247.10 271.07,258.29 265.05,258.93 258.18,259.65 218.27,263.86 164.50,269.54 135.99,272.55 120.22,274.21 107.42,275.77 100.84,276.57 93.44,277.47 57.66,281.81 49.09,282.86 22.67,285.74 -118.44,301.18" fill="none" stroke="#bcbcbc" stroke-width="8" stroke-linecap="round" stroke-linejoin="round" /><polyline points="240.83,536.78 233.44,534.40 198.93,523.30 191.96,521.05 185.90,519.10 149.34,507.35 142.13,505.04 132.59,501.97 74.39,483.24 67.84,481.13" fill="none" stroke="#bcbcbc" stroke-width="8" stroke-linecap="round" stroke-linejoin="round" /><polyline points="385.14,-161.88 405.21,-155.62 478.62,-132.96 479.31,-132.75 484.75,-132.40" fill="none" stroke="#bcbcbc" stroke-width="8" stroke-linecap="round" stroke-linejoin="round" /><polyline points="591.69,-327.18 691.55,-325.43" fill="none" stroke="#bcbcbc" stroke-width="8" stroke-linecap="round" stroke-linejoin="round" /><polyline points="542.79,550.05 528.52,533.09 522.53,526.12 517.38,521.31 510.53,516.20 496.53,507.80 482.98,503.34 455.40,494.83 432.86,487.67 445.85,467.83" fill="none" stroke="#bcbcbc" stroke-width="8" stroke-linecap="round" stroke-linejoin="round" /><polyline points="399.92,415.13 380.05,390.59 376.27,385.93 356.24,358.35 351.71,349.93 352.80,339.90 358.84,339.84 373.73,342.71 396.39,347.06" fill="none" stroke="#bcbcbc" stroke-width="8" stroke-linecap="round" stroke-linejoin="round" /><polyline points="139.90,218.57 143.56,226.45 164.50,269.54 195.62,333.62 199.59,341.79" fill="none" stroke="#bcbcbc" stroke-width="8" stroke-linecap="round" stroke-linejoin="round" /><polyline points="-195.40,413.74 -187.91,416.80 -152.84,431.14 -145.18,434.27 -137.13,437.56 -95.85,454.44 -88.38,457.49" fill="none" stroke="#bcbcbc" stroke-width="8" stroke-linecap="round" stroke-linejoin="round" /><polyline points="157.13,154.67 230.18,186.63" fill="none" stroke="#bcbcbc" stroke-width="8" stroke-linecap="round" stroke-linejoin="round" /><polyline points="484.75,-132.40 495.88,-131.82 496.59,-131.19 501.58,-126.76 508.92,-120.21 510.27,-117.58 535.57,-95.43 537.44,-91.89 555.22,-76.20 559.70,-74.83 573.54,-62.72 576.63,-61.30 597.50,-43.60 602.15,-39.48 604.71,-35.40" fill="none" stroke="#bcbcbc" stroke-width="8" stroke-linecap="round" stroke-linejoin="round" /><polyline points="-216.02,154.75 -101.90,164.92" fill="none" stroke="#bcbcbc" stroke-width="8" stroke-linecap="round" stroke-linejoin="round" /><polyline points="38.77,579.63 42.31,572.10 43.22,568.75 48.17,550.48 66.12,487.19 67.84,481.13 69.66,474.49 77.79,444.75 91.52,394.53 94.69,382.96" fill="none" stroke="#bcbcbc" stroke-width="8" stroke-linecap="round" stroke-linejoin="round" /><polyline points="139.90,218.57 157.13,154.67 120.60,141.90 111.03,147.54 106.67,150.86 103.44,155.23 101.17,160.99 92.77,192.04 99.55,195.49 106.40,197.15 121.54,201.09 132.87,204.70 139.90,218.57" fill="none" stroke="#bcbcbc" stroke-width="8" stroke-linecap="round" stroke-linejoin="round" /><polyline points="92.77,192.04 84.77,190.93 -101.90,164.92" fill="none" stroke="#bcbcbc" stroke-width="8" stroke-linecap="round" stroke-linejoin="round" /><polyline points="396.39,347.06 413.70,350.85 460.53,365.73 473.62,369.87 504.70,378.85 536.01,387.87 559.18,394.57 596.25,405.27 603.91,407.48 622.62,413.76 653.41,421.96 656.13,422.47" fill="none" stroke="#bcbcbc" stroke-width="8" stroke-linecap="round" stroke-linejoin="round" /><polyline points="418.35,617.57 412.03,619.15 405.20,638.19 394.61,635.18 346.44,618.77 340.65,617.53 327.75,616.61 269.42,616.84 256.57,615.20 227.53,610.76 215.82,608.86 132.75,595.46 100.58,590.33 39.23,579.71 29.32,577.74 -109.13,539.05 -117.86,536.60 -177.09,516.47 -191.66,511.30 -228.06,496.22 -248.80,488.38" fill="none" stroke="#bcbcbc" stroke-width="8" stroke-linecap="round" stroke-linejoin="round" /><polyline points="545.24,-406.03 539.24,-407.26 459.22,-397.80 430.61,-395.42" fill="none" stroke="#bcbcbc" stroke-width="8" stroke-linecap="round" stroke-linejoin="round" /><polyline points="396.39,347.06 399.19,342.37 415.98,299.25 434.74,234.05 439.53,220.00 442.09,216.18 460.20,158.04 461.10,151.10 461.79,146.56" fill="none" stroke="#bcbcbc" stroke-width="8" stroke-linecap="round" stroke-linejoin="round" /><polyline points="478.85,-282.79 480.76,-283.53 483.36,-285.58 487.29,-290.19 538.39,-363.49 551.99,-382.88" fill="none" stroke="#bcbcbc" stroke-width="8" stroke-linecap="round" stroke-linejoin="round" /><polyline points="706.25,-13.51 707.30,-16.52 732.98,-46.73 734.87,-47.74 739.33,-53.84 754.27,-71.00 758.92,-75.28" fill="none" stroke="#bcbcbc" stroke-width="8" stroke-linecap="round" stroke-linejoin="round" /><polyline points="728.70,210.70 728.34,206.66 728.07,203.53 726.71,197.55 725.10,193.65 723.08,183.41 722.90,179.70 721.53,171.40 715.41,168.21 710.53,170.08 701.78,172.17 694.86,173.25 688.22,174.85 679.06,176.94 674.88,177.90" fill="none" stroke="#bcbcbc" stroke-width="8" stroke-linecap="round" stroke-linejoin="round" /><polyline points="53.93,62.32 72.61,18.54 73.64,15.70" fill="none" stroke="#bcbcbc" stroke-width="8" stroke-linecap="round" stroke-linejoin="round" /><polyline points="546.19,-17.96 555.19,-21.45 559.90,-23.27 563.54,-26.95 578.55,-30.65 583.58,-29.37 594.45,-32.17 602.73,-34.30 604.71,-35.40 612.74,-37.37 653.83,-47.44 663.14,-50.22" fill="none" stroke="#bcbcbc" stroke-width="8" stroke-linecap="round" stroke-linejoin="round" /><polyline points="259.55,-222.57 256.34,-233.42 244.41,-273.74 229.93,-319.72 226.93,-327.93 223.90,-335.62 220.06,-346.70" fill="none" stroke="#bcbcbc" stroke-width="8" stroke-linecap="round" stroke-linejoin="round" /><polyline points="224.86,427.54 227.41,419.50 253.17,338.26 253.01,333.26" fill="none" stroke="#bcbcbc" stroke-width="8" stroke-linecap="round" stroke-linejoin="round" /><polyline points="259.44,332.91 264.54,264.50 265.05,258.93 265.83,252.44 265.85,252.14 266.18,244.21 267.89,222.68 268.85,212.65 270.16,201.25 271.35,193.05 272.43,187.90 273.78,184.01 276.43,175.24 281.90,156.97 288.86,133.40 296.53,109.29 298.10,104.37 299.35,100.81" fill="none" stroke="#bcbcbc" stroke-width="8" stroke-linecap="round" stroke-linejoin="round" /><polyline points="92.77,192.04 91.41,198.10 91.65,200.04 99.96,269.24 100.84,276.57 100.46,284.11 98.28,327.15 97.37,345.13 96.90,354.40 96.07,370.93 95.63,379.54 94.69,382.96" fill="none" stroke="#bcbcbc" stroke-width="8" stroke-linecap="round" stroke-linejoin="round" /><polyline points="53.93,62.32 23.70,53.34 19.86,50.88 1.05,45.40 -4.23,45.45 -27.87,38.33 -31.69,35.52 -53.19,29.00 -79.58,21.81 -79.71,21.80 -84.08,21.42" fill="none" stroke="#bcbcbc" stroke-width="8" stroke-linecap="round" stroke-linejoin="round" /><polyline points="604.71,-35.40 605.76,-34.03 610.14,-27.50 618.24,-15.42 625.87,-7.78 640.53,8.67 638.05,23.88 636.79,29.59 635.04,32.00 638.72,37.44 644.41,49.14 655.77,71.06 661.37,81.85 664.85,91.56 666.42,96.06" fill="none" stroke="#bcbcbc" stroke-width="8" stroke-linecap="round" stroke-linejoin="round" /><polyline points="681.25,-4.08 677.04,-2.77 649.28,5.86 645.30,7.14 640.53,8.67" fill="none" stroke="#bcbcbc" stroke-width="8" stroke-linecap="round" stroke-linejoin="round" /><polyline points="481.81,48.49 490.49,45.67 553.48,13.51 561.92,9.39 591.61,0.81 620.40,-7.28 625.87,-7.78" fill="none" stroke="#bcbcbc" stroke-width="8" stroke-linecap="round" stroke-linejoin="round" /><polyline points="488.67,88.31 561.30,54.51 564.36,52.49 571.46,50.42 619.85,36.34 627.19,33.53 635.04,32.00" fill="none" stroke="#bcbcbc" stroke-width="8" stroke-linecap="round" stroke-linejoin="round" /><polyline points="473.85,-620.18 503.25,-616.55 506.20,-616.18 517.60,-613.38" fill="none" stroke="#bcbcbc" stroke-width="8" stroke-linecap="round" stroke-linejoin="round" /><polyline points="725.09,-321.30 730.30,-322.39 749.78,-312.85 752.35,-310.31 788.92,-248.41 789.88,-240.90 794.64,-236.94 793.88,-234.21 793.77,-229.74 794.43,-223.51 804.11,-183.70 804.97,-156.14 806.32,-112.12 808.60,-52.87 799.33,-27.06 793.35,-11.32 784.63,10.86 782.10,17.28 780.46,19.07 777.83,36.23" fill="none" stroke="#bcbcbc" stroke-width="8" stroke-linecap="round" stroke-linejoin="round" /><polyline points="792.70,140.79 783.80,136.92 761.58,121.41 732.26,100.81 716.13,87.76 705.25,76.11" fill="none" stroke="#bcbcbc" stroke-width="8" stroke-linecap="round" stroke-linejoin="round" /><polyline points="432.86,487.67 424.12,484.90 409.95,480.41 403.18,478.26 395.24,475.75 385.20,472.56 376.12,469.69 367.15,466.84 327.14,454.14 320.13,451.92 311.43,449.17 309.51,448.56 286.63,442.51 280.17,440.95 272.07,438.99 263.59,436.93 233.05,429.53 224.86,427.54 216.06,424.49 197.67,418.10 190.74,415.70 184.54,413.68 155.75,403.45 152.12,401.28 150.38,397.53" fill="none" stroke="#bcbcbc" stroke-width="8" stroke-linecap="round" stroke-linejoin="round" /><polyline points="564.36,52.49 562.24,44.89 555.91,22.22 553.48,13.51 549.97,6.99 549.64,5.79 547.57,-1.89 549.98,-5.28 547.09,-14.96 546.19,-17.96" fill="none" stroke="#bcbcbc" stroke-width="8" stroke-linecap="round" stroke-linejoin="round" /><polyline points="553.79,-224.85 559.80,-227.68 592.63,-245.78 611.40,-257.85 624.63,-266.88 627.56,-269.05 638.21,-276.46 649.25,-284.61 656.24,-289.70 664.58,-295.79 693.54,-308.86 697.30,-308.66 702.79,-311.26 725.09,-321.30" fill="none" stroke="#bcbcbc" stroke-width="8" stroke-linecap="round" stroke-linejoin="round" /><polyline points="189.86,-101.46 194.60,-99.54 197.73,-98.57 256.44,-80.54 265.41,-77.79" fill="none" stroke="#bcbcbc" stroke-width="8" stroke-linecap="round" stroke-linejoin="round" /><polyline points="-229.53,30.57 -271.48,17.88" fill="none" stroke="#bcbcbc" stroke-width="8" stroke-linecap="round" stroke-linejoin="round" /><polyline points="448.07,-560.94 458.47,-547.76 460.02,-545.79 465.27,-539.14 471.26,-538.44 483.56,-537.00 485.74,-535.49" fill="none" stroke="#bcbcbc" stroke-width="8" stroke-linecap="round" stroke-linejoin="round" /><polyline points="809.24,25.05 792.76,28.12 775.86,37.30 760.19,46.02 745.38,53.43 727.47,63.15 714.51,71.02 688.89,84.76 588.88,135.07 562.95,146.49 545.82,153.89 537.34,156.67 530.31,157.98 518.82,158.68 502.46,156.36 461.64,146.56 403.68,133.06 327.44,110.06 299.35,100.81 253.36,86.61 209.38,72.10 144.87,46.79 112.61,32.90 73.72,15.62 9.21,-19.72 -5.92,-29.75 -44.19,-53.82 -60.24,-69.87 -84.32,-101.05 -123.98,-141.94 -139.57,-155.67" fill="none" stroke="#bcbcbc" stroke-width="8" stroke-linecap="round" stroke-linejoin="round" /><polyline points="496.53,507.80 497.20,504.03 499.64,497.87 522.52,444.34 531.16,424.28 541.35,399.28 543.83,390.13" fill="none" stroke="#bcbcbc" stroke-width="8" stroke-linecap="round" stroke-linejoin="round" /><polyline points="57.66,281.81 31.67,269.24 -27.46,240.62 -99.99,205.52 -106.46,202.39" fill="none" stroke="#bcbcbc" stroke-width="8" stroke-linecap="round" stroke-linejoin="round" /><polyline points="484.75,-132.40 491.31,-139.12 508.76,-156.98 522.60,-172.10" fill="none" stroke="#bcbcbc" stroke-width="8" stroke-linecap="round" stroke-linejoin="round" /><polyline points="-19.05,-92.62 -26.26,-102.16 -60.04,-146.88 -108.26,-185.90" fill="none" stroke="#bcbcbc" stroke-width="8" stroke-linecap="round" stroke-linejoin="round" /><polyline points="-228.32,496.11 -221.72,480.48 -200.76,428.21 -198.21,421.35 -195.40,413.74 -194.33,410.99 -194.04,406.69 -191.36,366.06 -190.59,354.40" fill="none" stroke="#bcbcbc" stroke-width="8" stroke-linecap="round" stroke-linejoin="round" /><polyline points="-242.62,75.96 -229.53,30.57 -212.26,-29.30 -210.13,-36.71 -207.75,-45.13 -202.43,-63.98 -201.87,-65.96 -200.34,-72.02 -197.91,-78.87 -197.32,-80.53 -194.25,-88.14 -188.23,-101.43 -186.43,-105.25" fill="none" stroke="#bcbcbc" stroke-width="8" stroke-linecap="round" stroke-linejoin="round" /><polyline points="-210.12,-36.71 -183.64,-29.94 -127.54,-15.52 -95.58,-5.57 -82.25,-2.45" fill="none" stroke="#bcbcbc" stroke-width="8" stroke-linecap="round" stroke-linejoin="round" /><polyline points="335.03,-242.68 335.93,-248.19 336.84,-253.91 340.72,-273.05 350.43,-317.60 358.40,-357.45 359.86,-365.72 361.84,-376.95 361.84,-376.96" fill="none" stroke="#bcbcbc" stroke-width="8" stroke-linecap="round" stroke-linejoin="round" /><polyline points="256.62,615.21 268.44,585.05 269.91,579.63 316.84,460.52 320.13,451.92 322.80,444.63 350.84,363.06 356.24,358.35" fill="none" stroke="#bcbcbc" stroke-width="8" stroke-linecap="round" stroke-linejoin="round" /><polyline points="417.48,-265.74 417.47,-265.75 415.81,-274.47 415.55,-275.53 411.50,-292.02 411.50,-292.07 408.74,-303.25 397.02,-343.38 395.55,-347.68 387.64,-369.17 385.07,-375.59 383.41,-379.73 381.26,-384.43 381.26,-384.44 381.26,-384.46 379.69,-401.74 379.54,-410.23" fill="none" stroke="#bcbcbc" stroke-width="8" stroke-linecap="round" stroke-linejoin="round" /><polyline points="399.92,415.13 396.91,418.38 392.42,423.72 379.78,459.36 376.12,469.69" fill="none" stroke="#bcbcbc" stroke-width="8" stroke-linecap="round" stroke-linejoin="round" /><polyline points="189.86,-101.46 191.59,-106.14 191.98,-107.22 200.19,-130.15 203.27,-139.81 228.43,-213.80" fill="none" stroke="#bcbcbc" stroke-width="8" stroke-linecap="round" stroke-linejoin="round" /><polyline points="320.03,2.27 322.60,-4.55 329.55,-23.02 332.49,-30.83 334.48,-36.12 340.06,-50.94 343.75,-60.73 344.24,-62.04 353.17,-85.76 356.90,-84.60 358.93,-90.11 362.50,-99.85 361.82,-104.28 371.32,-130.14 372.30,-132.79 374.10,-134.45 375.61,-135.84 385.14,-161.88 386.51,-169.01 400.18,-206.98 403.42,-209.51 409.99,-228.11 408.82,-230.96 414.58,-248.34 411.59,-263.85" fill="none" stroke="#bcbcbc" stroke-width="8" stroke-linecap="round" stroke-linejoin="round" /><polyline points="564.52,-704.05 560.69,-710.33 540.57,-743.34" fill="none" stroke="#bcbcbc" stroke-width="8" stroke-linecap="round" stroke-linejoin="round" /><polyline points="627.56,-269.05 719.91,-209.67 719.94,-209.63 719.94,-209.62 737.02,-207.40" fill="none" stroke="#bcbcbc" stroke-width="8" stroke-linecap="round" stroke-linejoin="round" /><polyline points="590.52,-393.10 688.78,-343.78 691.75,-341.57 691.55,-325.43 693.54,-308.86" fill="none" stroke="#bcbcbc" stroke-width="8" stroke-linecap="round" stroke-linejoin="round" /><polyline points="403.18,478.26 399.65,489.04 385.33,532.71 360.98,606.24 359.25,611.45 357.50,616.74 357.01,622.37" fill="none" stroke="#bcbcbc" stroke-width="8" stroke-linecap="round" stroke-linejoin="round" /><polyline points="679.80,213.03 680.39,207.56 680.52,202.45 680.48,202.27 676.99,187.22 675.57,180.93 674.88,177.90 674.17,174.80 670.35,157.96 662.88,124.31 657.46,104.08 656.69,100.95" fill="none" stroke="#bcbcbc" stroke-width="8" stroke-linecap="round" stroke-linejoin="round" /><polyline points="191.96,521.05 194.39,514.13 221.76,436.37 224.86,427.54" fill="none" stroke="#bcbcbc" stroke-width="8" stroke-linecap="round" stroke-linejoin="round" /><polyline points="806.32,-112.12 798.27,-114.39 743.60,-198.27 737.02,-207.40" fill="none" stroke="#bcbcbc" stroke-width="8" stroke-linecap="round" stroke-linejoin="round" /><polyline points="-92.39,89.15 106.86,136.88 120.60,141.90" fill="none" stroke="#bcbcbc" stroke-width="8" stroke-linecap="round" stroke-linejoin="round" /><polyline points="536.03,-656.65 613.65,-627.90 624.57,-629.76" fill="none" stroke="#bcbcbc" stroke-width="8" stroke-linecap="round" stroke-linejoin="round" />
    <polyline points="167.20,352.80 186.58,345.76 193.07,343.78 199.59,341.79 211.64,338.11 221.01,336.76 253.01,333.26 259.44,332.91 288.08,333.15 305.52,333.30 312.08,332.97 322.59,334.03 325.87,334.50 332.57,335.46 352.80,339.90" fill="none" stroke="#ffffff" stroke-width="16" stroke-linecap="round" stroke-linejoin="round" />
    <polyline points="167.20,352.80 186.58,345.76 193.07,343.78 199.59,341.79 211.64,338.11 221.01,336.76 253.01,333.26 259.44,332.91 288.08,333.15 305.52,333.30 312.08,332.97 322.59,334.03 325.87,334.50 332.57,335.46 352.80,339.90" fill="none" stroke="#111111" stroke-width="9" stroke-linecap="round" stroke-linejoin="round" />
    
            <g transform="translate(167.20,352.80)">
              <circle r="19" fill="#ffffff" stroke="#111111" stroke-width="4" />
              <text text-anchor="middle" dominant-baseline="central" font-family="Helvetica, Arial, sans-serif"
                font-size="18" font-weight="700" fill="#111111">1</text>
            </g>
            
            <g transform="translate(352.80,339.90)">
              <circle r="19" fill="#ffffff" stroke="#111111" stroke-width="4" />
              <text text-anchor="middle" dominant-baseline="central" font-family="Helvetica, Arial, sans-serif"
                font-size="18" font-weight="700" fill="#111111">2</text>
            </g>
            
  </g>
</svg>
