<svg xmlns="http://www.w3.org/2000/svg" width="520" height="520" viewBox="0 0 520 520">
  <rect width="100%" height="100%" fill="#ffffff" />
  <g>
    <polyline points="922.18,205.17 924.94,219.85 942.74,344.35 940.02,375.47" fill="none" stroke="#bcbcbc" stroke-width="8" stroke-linecap="round" stroke-linejoin="round" /><polyline points="560.47,1242.69 564.77,1229.46 587.57,1159.34 590.26,1151.08 592.97,1142.41 650.30,959.60 654.91,944.90 644.35,918.89" fill="none" stroke="#bcbcbc" stroke-width="8" stroke-linecap="round" stroke-linejoin="round" /><polyline points="164.52,1080.09 163.60,1069.59 182.34,964.62 184.96,951.49 186.93,944.61 192.09,917.99 197.88,885.41 204.20,856.72 210.46,828.09 214.41,820.01 216.99,815.06" fill="none" stroke="#bcbcbc" stroke-width="8" stroke-linecap="round" stroke-linejoin="round" /><polyline points="273.30,339.65 268.84,326.06 222.79,185.60 220.54,179.70" fill="none" stroke="#bcbcbc" stroke-width="8" stroke-linecap="round" stroke-linejoin="round" /><polyline points="36.99,1575.93 38.36,1562.53 38.92,1556.38 43.93,1500.92 49.42,1452.08 50.70,1440.68 51.90,1427.00 52.03,1425.85 55.14,1398.65 57.82,1371.00 60.78,1344.32 62.77,1323.55 63.60,1310.73 64.33,1298.89 65.64,1285.55" fill="none" stroke="#bcbcbc" stroke-width="8" stroke-linecap="round" stroke-linejoin="round" /><polyline points="673.34,1275.28 676.62,1264.96 699.73,1192.31 702.35,1184.06 706.09,1172.30 708.76,1163.87 729.22,1075.64" fill="none" stroke="#bcbcbc" stroke-width="8" stroke-linecap="round" stroke-linejoin="round" /><polyline points="583.51,-161.81 592.04,-160.50 827.21,-124.37" fill="none" stroke="#bcbcbc" stroke-width="8" stroke-linecap="round" stroke-linejoin="round" /><polyline points="-20.22,1258.16 -44.70,1257.02 -59.62,1256.32 -67.73,1255.95 -74.85,1255.62 -130.28,1253.04 -207.37,1249.45 -244.12,1244.24 -256.42,1242.50 -267.09,1240.61 -339.37,1227.85 -349.47,1226.07 -351.71,1225.69 -364.19,1223.55 -373.78,1221.91 -435.02,1216.49 -446.69,1215.46 -450.97,1215.08 -464.21,1214.16 -490.13,1212.37" fill="none" stroke="#bcbcbc" stroke-width="8" stroke-linecap="round" stroke-linejoin="round" /><polyline points="335.39,1187.14 340.14,1173.64 382.86,1055.20 434.26,905.81 437.55,896.44 439.84,889.89 441.71,884.52" fill="none" stroke="#bcbcbc" stroke-width="8" stroke-linecap="round" stroke-linejoin="round" /><polyline points="-450.97,1215.08 -452.06,1207.47 -452.31,1199.19 -450.69,1182.54 -446.97,1152.13 -444.49,1141.92 -440.46,1105.01 -439.73,1096.79 -438.55,1086.22 -437.68,1078.38 -436.03,1069.48 -432.97,1045.54 -430.84,1027.23 -427.72,1019.74" fill="none" stroke="#bcbcbc" stroke-width="8" stroke-linecap="round" stroke-linejoin="round" /><polyline points="-494.69,1010.38 -437.71,1018.34 -427.72,1019.74 -421.53,1020.73 -395.99,1024.80 -337.13,1034.17 -327.03,1035.86" fill="none" stroke="#bcbcbc" stroke-width="8" stroke-linecap="round" stroke-linejoin="round" /><polyline points="554.08,262.75 554.45,267.93 555.21,273.18 557.06,277.20 560.53,281.67 566.94,287.51 582.12,296.75 699.29,370.26 771.45,467.02 825.96,601.54 829.52,610.43" fill="none" stroke="#bcbcbc" stroke-width="8" stroke-linecap="round" stroke-linejoin="round" /><polyline points="535.31,655.28 537.74,659.30 538.37,660.34 540.38,670.49 554.13,736.97 558.49,758.07 561.62,773.10 566.48,803.56 568.76,817.61 570.33,826.18 572.04,833.92 574.09,838.43 577.10,843.66 578.71,846.13 609.16,889.72 625.62,915.65 629.92,921.85" fill="none" stroke="#bcbcbc" stroke-width="8" stroke-linecap="round" stroke-linejoin="round" /><polyline points="-338.67,1487.68 -337.05,1477.70 -335.55,1470.49 -335.14,1469.53 -314.88,1421.35 -301.97,1390.03 -298.05,1380.11 -293.89,1369.60 -289.38,1360.56 -288.65,1358.80 -282.47,1343.86 -277.69,1330.65 -273.59,1318.52 -270.99,1309.95 -268.08,1299.36 -264.72,1285.17 -262.16,1273.65 -259.11,1257.58 -258.47,1253.99 -256.42,1242.50" fill="none" stroke="#bcbcbc" stroke-width="8" stroke-linecap="round" stroke-linejoin="round" /><polyline points="643.08,142.10 707.69,187.25 716.39,189.10 722.76,196.38" fill="none" stroke="#bcbcbc" stroke-width="8" stroke-linecap="round" stroke-linejoin="round" /><polyline points="371.77,559.08 380.31,562.36 417.39,574.49 503.38,607.47 508.21,612.28 510.47,615.87" fill="none" stroke="#bcbcbc" stroke-width="8" stroke-linecap="round" stroke-linejoin="round" /><polyline points="532.02,1406.56 537.88,1391.30 566.79,1312.86 587.23,1253.60 591.47,1251.65" fill="none" stroke="#bcbcbc" stroke-width="8" stroke-linecap="round" stroke-linejoin="round" /><polyline points="123.37,1307.10 127.93,1297.02 128.38,1296.02 136.19,1269.84 148.97,1226.74 152.25,1215.71 154.79,1207.14 155.13,1202.15 154.61,1191.10" fill="none" stroke="#bcbcbc" stroke-width="8" stroke-linecap="round" stroke-linejoin="round" /><polyline points="654.74,658.72 647.41,660.23 630.80,657.28 628.23,650.43 599.45,639.45 592.64,641.23 566.68,631.70 562.81,634.40" fill="none" stroke="#bcbcbc" stroke-width="8" stroke-linecap="round" stroke-linejoin="round" /><polyline points="612.01,-231.53 625.05,-228.33 632.26,-227.08 803.81,-197.33" fill="none" stroke="#bcbcbc" stroke-width="8" stroke-linecap="round" stroke-linejoin="round" /><polyline points="478.67,1358.79 485.81,1338.68 499.68,1299.57 508.64,1282.92 521.54,1246.81 526.68,1232.40" fill="none" stroke="#bcbcbc" stroke-width="8" stroke-linecap="round" stroke-linejoin="round" /><polyline points="-461.27,577.89 -473.70,577.32 -476.81,581.10 -498.46,607.40 -574.13,694.82 -584.77,707.11" fill="none" stroke="#bcbcbc" stroke-width="8" stroke-linecap="round" stroke-linejoin="round" /><polyline points="202.44,652.75 196.95,664.90 196.29,666.37 177.23,716.06 158.02,770.77 152.90,785.36 150.00,792.89" fill="none" stroke="#bcbcbc" stroke-width="8" stroke-linecap="round" stroke-linejoin="round" /><polyline points="481.96,94.36 488.02,102.57 492.34,113.87 499.07,130.08 509.86,155.58 519.43,178.47 530.40,203.60 538.54,222.97 539.75,225.75 539.82,225.93 546.37,241.25 548.33,245.60 550.19,249.75 552.16,253.63 553.65,257.58 554.08,262.75" fill="none" stroke="#bcbcbc" stroke-width="8" stroke-linecap="round" stroke-linejoin="round" /><polyline points="18.51,897.73 21.68,896.00 26.11,892.47 28.33,887.90 57.77,776.26 58.66,769.96 62.25,758.46" fill="none" stroke="#bcbcbc" stroke-width="8" stroke-linecap="round" stroke-linejoin="round" /><polyline points="1047.98,723.02 1052.16,736.28 1055.10,750.20 1049.37,803.27 1042.76,843.18 1039.15,856.80 1038.82,858.03 1035.66,865.38 1031.34,873.17 1021.27,885.91 1026.15,910.82 1010.37,964.29 1001.65,993.82 983.83,1042.16 957.73,1101.01 925.86,1157.40 915.91,1175.73 897.91,1205.85 826.02,1307.89 810.27,1329.12 749.27,1408.84 714.25,1448.69 665.26,1498.48 660.73,1498.94 649.67,1507.99" fill="none" stroke="#bcbcbc" stroke-width="8" stroke-linecap="round" stroke-linejoin="round" /><polyline points="160.86,1595.91 180.93,1533.67 184.21,1523.39 188.67,1516.91 198.25,1488.14 201.38,1478.37 240.97,1354.40 244.95,1341.93 248.23,1330.97 294.96,1183.91" fill="none" stroke="#bcbcbc" stroke-width="8" stroke-linecap="round" stroke-linejoin="round" /><polyline points="631.00,438.28 648.35,419.33 653.47,413.16 688.52,363.50" fill="none" stroke="#bcbcbc" stroke-width="8" stroke-linecap="round" stroke-linejoin="round" /><polyline points="284.24,445.80 332.01,462.43 334.65,466.72 348.22,471.27 356.27,474.02 394.78,487.03" fill="none" stroke="#bcbcbc" stroke-width="8" stroke-linecap="round" stroke-linejoin="round" /><polyline points="700.67,115.15 722.76,196.38 748.34,292.08 752.22,300.05 752.84,309.16 770.19,341.55 817.00,428.85 827.23,443.95 830.20,448.37 900.14,579.15 932.29,608.38 936.80,614.20 943.16,619.63 1004.19,671.83 1008.34,675.37 1019.30,681.19" fill="none" stroke="#bcbcbc" stroke-width="8" stroke-linecap="round" stroke-linejoin="round" /><polyline points="463.29,1609.13 615.51,1520.70 642.60,1506.84 649.67,1507.99" fill="none" stroke="#bcbcbc" stroke-width="8" stroke-linecap="round" stroke-linejoin="round" /><polyline points="628.33,1482.62 637.77,1471.39 722.56,1302.20 728.18,1291.11 732.87,1280.13 760.25,1212.39 768.41,1191.99 792.02,1120.54 807.32,1028.69 809.14,1015.32" fill="none" stroke="#bcbcbc" stroke-width="8" stroke-linecap="round" stroke-linejoin="round" /><polyline points="562.89,487.61 561.41,489.13 559.37,496.25 559.16,496.96 549.96,532.39 552.38,541.64 550.37,549.93 547.74,560.79 541.01,568.59 533.36,599.54 524.36,606.35 514.76,612.93 510.47,615.87" fill="none" stroke="#bcbcbc" stroke-width="8" stroke-linecap="round" stroke-linejoin="round" /><polyline points="202.44,652.75 206.35,642.72 229.87,582.42 235.00,569.27 239.23,558.44 269.28,481.43 282.82,449.23 284.24,445.80 294.75,420.37 318.35,361.78 326.99,336.83 328.92,331.11 331.50,324.63" fill="none" stroke="#bcbcbc" stroke-width="8" stroke-linecap="round" stroke-linejoin="round" /><polyline points="465.65,287.20 470.20,300.74 619.48,428.26 700.94,499.13 822.61,604.91 833.23,613.40 837.99,616.38 859.10,635.54 887.30,659.59 951.25,714.13 971.90,731.89 985.61,748.29" fill="none" stroke="#bcbcbc" stroke-width="8" stroke-linecap="round" stroke-linejoin="round" /><polyline points="712.48,67.47 720.05,62.61 764.90,43.97 774.12,34.27" fill="none" stroke="#bcbcbc" stroke-width="8" stroke-linecap="round" stroke-linejoin="round" /><polyline points="764.28,1202.31 702.35,1184.06 590.26,1151.08" fill="none" stroke="#bcbcbc" stroke-width="8" stroke-linecap="round" stroke-linejoin="round" /><polyline points="564.38,-115.06 572.84,-109.23 848.49,-47.89" fill="none" stroke="#bcbcbc" stroke-width="8" stroke-linecap="round" stroke-linejoin="round" /><polyline points="904.87,792.57 890.62,760.87 859.01,685.46 856.65,679.47 851.24,665.70 830.86,613.84 829.58,610.48" fill="none" stroke="#bcbcbc" stroke-width="8" stroke-linecap="round" stroke-linejoin="round" /><polyline points="481.96,94.36 466.66,90.01 455.41,86.66 432.56,79.87 420.95,76.56 414.29,74.71 405.61,72.22" fill="none" stroke="#bcbcbc" stroke-width="8" stroke-linecap="round" stroke-linejoin="round" /><polyline points="82.94,509.10 82.17,506.57 81.46,504.80 78.30,496.96 66.08,468.47 54.47,439.53 51.96,432.70 49.07,424.83 47.01,418.39 43.59,408.74 43.24,407.72 32.13,380.34 11.73,328.87 7.15,326.26 3.89,317.91 -2.62,295.30 -13.76,267.29 -16.16,260.92" fill="none" stroke="#bcbcbc" stroke-width="8" stroke-linecap="round" stroke-linejoin="round" /><polyline points="180.93,1533.67 192.51,1537.21 229.99,1548.63 241.72,1552.21" fill="none" stroke="#bcbcbc" stroke-width="8" stroke-linecap="round" stroke-linejoin="round" /><polyline points="880.79,80.94 882.97,72.11 882.08,68.76 881.01,64.71 874.17,39.64 858.92,-13.35 850.87,-40.45 848.49,-47.89 827.21,-124.37 815.73,-165.62 803.81,-197.33 793.05,-225.95 782.33,-245.62 771.92,-256.02 691.98,-353.71 686.07,-360.66 682.15,-367.09" fill="none" stroke="#bcbcbc" stroke-width="8" stroke-linecap="round" stroke-linejoin="round" /><polyline points="554.08,262.75 549.95,264.33 542.33,266.43 541.57,266.64 509.73,274.79 473.13,285.09 465.65,287.20 462.32,288.25 453.53,291.08 446.01,293.17 413.19,302.31 359.20,317.64 339.07,322.73 331.50,324.63 295.52,333.46 273.30,339.65 226.24,352.80 179.72,365.91 174.34,367.40 135.46,378.20 117.52,383.17 108.47,387.45 91.33,395.95 57.28,413.23 54.91,414.43 47.01,418.39 42.19,420.80 35.46,424.33 11.54,436.87 -32.04,461.33 -68.44,480.40 -73.65,483.13 -80.61,483.56 -84.79,485.78 -85.62,486.22 -125.12,507.87 -133.39,507.83 -142.88,512.80 -146.20,514.53 -148.99,516.00 -155.59,519.45 -160.80,531.32 -183.15,543.29 -190.26,547.10 -197.95,551.28 -229.05,568.21 -245.12,576.96 -253.22,579.29" fill="none" stroke="#bcbcbc" stroke-width="8" stroke-linecap="round" stroke-linejoin="round" /><polyline points="1001.65,993.82 985.06,995.34 933.22,1000.09 930.88,1000.31 927.58,1000.61 922.23,1001.10 871.97,1005.71 854.48,1004.09 834.13,1009.19 817.82,1013.19 809.14,1015.32 787.56,1016.14 768.88,1015.19 759.36,1014.18 751.25,1011.73 745.29,1008.43 723.06,992.71 669.06,955.62 663.97,952.16 658.78,948.65 654.91,944.90" fill="none" stroke="#bcbcbc" stroke-width="8" stroke-linecap="round" stroke-linejoin="round" /><polyline points="-221.43,367.59 -201.84,405.95 -198.87,416.92 -182.36,448.41 -175.55,457.42 -147.96,511.11 -146.20,514.53" fill="none" stroke="#bcbcbc" stroke-width="8" stroke-linecap="round" stroke-linejoin="round" /><polyline points="379.05,708.76 376.12,716.83 375.29,719.33 371.47,730.94 347.23,798.57 335.19,832.16 334.78,833.31 329.95,843.75 327.18,849.95" fill="none" stroke="#bcbcbc" stroke-width="8" stroke-linecap="round" stroke-linejoin="round" /><polyline points="700.67,115.15 697.98,109.40 690.91,108.47 668.06,113.71 663.42,113.11 659.78,108.23 653.32,78.50 688.34,73.08 704.55,68.29 712.48,67.47 721.02,97.83" fill="none" stroke="#bcbcbc" stroke-width="8" stroke-linecap="round" stroke-linejoin="round" /><polyline points="827.23,443.95 836.26,438.89 881.57,411.58 893.67,404.37 914.87,391.73 949.74,369.18 957.88,363.33 1019.05,325.39" fill="none" stroke="#bcbcbc" stroke-width="8" stroke-linecap="round" stroke-linejoin="round" /><polyline points="1041.04,623.19 1025.58,618.58 1016.59,611.21 982.23,581.48 981.06,580.43 972.76,573.02 967.87,564.36 881.57,411.58" fill="none" stroke="#bcbcbc" stroke-width="8" stroke-linecap="round" stroke-linejoin="round" /><polyline points="67.02,611.08 202.44,652.75 213.49,656.26 314.54,688.29 316.65,688.96 331.79,693.76 339.23,696.12 348.90,698.77 368.85,705.52 379.05,708.76 388.23,711.67 463.44,735.53 542.83,760.47 549.39,762.54 558.49,758.07" fill="none" stroke="#bcbcbc" stroke-width="8" stroke-linecap="round" stroke-linejoin="round" /><polyline points="465.19,-57.50 523.85,-111.41 533.78,-120.53" fill="none" stroke="#bcbcbc" stroke-width="8" stroke-linecap="round" stroke-linejoin="round" /><polyline points="-517.07,812.26 -301.83,835.33" fill="none" stroke="#bcbcbc" stroke-width="8" stroke-linecap="round" stroke-linejoin="round" /><polyline points="132.24,211.45 177.48,195.27 224.14,178.40 253.14,167.13 341.66,134.93 367.35,126.05 372.71,124.19 379.15,121.98 386.37,119.49 387.26,119.19 401.84,113.33 408.18,110.78" fill="none" stroke="#bcbcbc" stroke-width="8" stroke-linecap="round" stroke-linejoin="round" /><polyline points="436.08,1306.25 478.67,1358.79 504.75,1385.05 516.04,1393.18 532.02,1406.56 547.03,1419.17 559.92,1431.75 560.24,1438.14" fill="none" stroke="#bcbcbc" stroke-width="8" stroke-linecap="round" stroke-linejoin="round" /><polyline points="481.96,94.36 498.66,52.52 525.67,-16.37 564.38,-115.06 583.51,-161.81 612.01,-231.53 635.38,-288.63 639.56,-296.21 660.11,-329.82 661.44,-331.99 668.96,-346.78 682.15,-367.09 689.51,-378.42 699.93,-394.46" fill="none" stroke="#bcbcbc" stroke-width="8" stroke-linecap="round" stroke-linejoin="round" /><polyline points="88.18,1213.06 85.45,1215.25 83.64,1217.85 79.96,1228.71 77.41,1236.55 65.65,1271.72 64.04,1276.79 63.03,1279.94 52.23,1276.84 25.95,1268.03 -0.09,1259.30 -20.22,1258.16" fill="none" stroke="#bcbcbc" stroke-width="8" stroke-linecap="round" stroke-linejoin="round" /><polyline points="-426.51,1457.78 -383.59,1346.93 -378.81,1334.87 -374.53,1323.24 -369.35,1309.20 -363.01,1287.11 -356.39,1259.65 -353.68,1239.98 -351.71,1225.69 -348.93,1215.14 -338.83,1135.88 -327.03,1035.86 -320.92,988.17 -314.11,932.16 -301.83,835.33 -299.88,818.86 -287.47,717.60 -287.47,711.96 -284.72,681.91 -276.81,618.45 -274.82,607.38 -272.75,601.17 -269.52,594.33 -266.37,589.02 -259.42,581.50 -253.21,579.37" fill="none" stroke="#bcbcbc" stroke-width="8" stroke-linecap="round" stroke-linejoin="round" /><polyline points="510.47,615.87 512.82,619.60 520.69,631.88 532.47,650.77 535.31,655.28 540.01,651.71 562.81,634.40" fill="none" stroke="#bcbcbc" stroke-width="8" stroke-linecap="round" stroke-linejoin="round" /><polyline points="525.67,-16.37 757.57,25.56 781.93,38.38 872.79,83.42 880.79,80.94" fill="none" stroke="#bcbcbc" stroke-width="8" stroke-linecap="round" stroke-linejoin="round" /><polyline points="82.94,509.10 78.83,515.10 41.83,533.16 14.66,567.70 -14.66,585.86 -34.72,601.00 -53.85,616.61 -63.66,625.55 -80.98,647.53 -100.36,675.30 -103.55,680.45" fill="none" stroke="#bcbcbc" stroke-width="8" stroke-linecap="round" stroke-linejoin="round" /><polyline points="122.06,533.88 120.45,537.45 116.95,542.57 110.32,550.73 71.24,600.10 50.56,655.79 -53.80,616.56" fill="none" stroke="#bcbcbc" stroke-width="8" stroke-linecap="round" stroke-linejoin="round" /><polyline points="-34.72,601.00 -38.76,588.77 -56.22,535.89 -63.00,525.44 -74.35,491.39 -75.33,488.45 -73.65,483.13 -76.37,474.45 -130.94,300.20" fill="none" stroke="#bcbcbc" stroke-width="8" stroke-linecap="round" stroke-linejoin="round" /><polyline points="604.69,-349.74 647.81,-348.60 649.82,-348.54 658.09,-348.31 668.96,-346.78" fill="none" stroke="#bcbcbc" stroke-width="8" stroke-linecap="round" stroke-linejoin="round" /><polyline points="382.86,1055.20 368.14,1055.02 243.45,1071.76 234.46,1072.71 224.19,1073.79 164.52,1080.09 84.14,1088.58 41.52,1093.07 17.95,1095.56 -1.19,1097.89 -11.02,1099.08 -22.09,1100.43 -75.57,1106.93 -88.39,1108.49 -127.88,1112.80 -338.83,1135.88" fill="none" stroke="#bcbcbc" stroke-width="8" stroke-linecap="round" stroke-linejoin="round" /><polyline points="198.25,1488.14 187.21,1484.59 135.62,1467.98 125.19,1464.62 116.14,1461.71 61.48,1444.14 50.70,1440.68 36.45,1436.09 -50.56,1408.09 -60.35,1404.94" fill="none" stroke="#bcbcbc" stroke-width="8" stroke-linecap="round" stroke-linejoin="round" /><polyline points="413.98,443.54 443.99,452.89 553.73,486.78 554.75,487.10 562.89,487.61" fill="none" stroke="#bcbcbc" stroke-width="8" stroke-linecap="round" stroke-linejoin="round" /><polyline points="722.76,196.38 872.04,199.01" fill="none" stroke="#bcbcbc" stroke-width="8" stroke-linecap="round" stroke-linejoin="round" /><polyline points="649.67,1507.99 628.33,1482.62 619.37,1472.21 611.68,1465.02 601.44,1457.37 580.50,1444.81 560.24,1438.14 519.03,1425.41 485.32,1414.71 504.75,1385.05" fill="none" stroke="#bcbcbc" stroke-width="8" stroke-linecap="round" stroke-linejoin="round" /><polyline points="436.08,1306.25 406.37,1269.57 400.72,1262.59 370.79,1221.36 364.01,1208.77 365.64,1193.78 374.66,1193.69 396.92,1197.97 430.80,1204.49" fill="none" stroke="#bcbcbc" stroke-width="8" stroke-linecap="round" stroke-linejoin="round" /><polyline points="47.36,1012.36 52.84,1024.15 84.14,1088.58 130.67,1184.38 136.61,1196.60" fill="none" stroke="#bcbcbc" stroke-width="8" stroke-linecap="round" stroke-linejoin="round" /><polyline points="-453.87,1304.18 -442.68,1308.75 -390.26,1330.19 -378.81,1334.87 -366.77,1339.79 -305.05,1365.03 -293.89,1369.60" fill="none" stroke="#bcbcbc" stroke-width="8" stroke-linecap="round" stroke-linejoin="round" /><polyline points="73.12,916.84 182.34,964.62" fill="none" stroke="#bcbcbc" stroke-width="8" stroke-linecap="round" stroke-linejoin="round" /><polyline points="562.89,487.61 579.53,488.48 580.59,489.43 588.05,496.05 599.02,505.84 601.05,509.78 638.86,542.90 641.66,548.18 668.25,571.65 674.94,573.69 695.62,591.80 700.25,593.92 731.45,620.38 738.39,626.54 742.22,632.64" fill="none" stroke="#bcbcbc" stroke-width="8" stroke-linecap="round" stroke-linejoin="round" /><polyline points="-484.70,916.94 -314.11,932.16" fill="none" stroke="#bcbcbc" stroke-width="8" stroke-linecap="round" stroke-linejoin="round" /><polyline points="-103.81,1552.20 -98.52,1540.95 -97.17,1535.94 -89.76,1508.63 -62.92,1414.00 -60.35,1404.94 -57.64,1395.00 -45.48,1350.54 -24.95,1275.46 -20.22,1258.16" fill="none" stroke="#bcbcbc" stroke-width="8" stroke-linecap="round" stroke-linejoin="round" /><polyline points="47.36,1012.36 73.12,916.84 18.51,897.73 4.21,906.17 -2.31,911.13 -7.13,917.66 -10.53,926.28 -23.09,972.70 -12.96,977.86 -2.72,980.35 19.91,986.24 36.85,991.63 47.36,1012.36" fill="none" stroke="#bcbcbc" stroke-width="8" stroke-linecap="round" stroke-linejoin="round" /><polyline points="-23.09,972.70 -35.05,971.04 -314.11,932.16" fill="none" stroke="#bcbcbc" stroke-width="8" stroke-linecap="round" stroke-linejoin="round" /><polyline points="430.80,1204.49 456.68,1210.14 526.68,1232.40 546.26,1238.58 592.72,1252.01 639.52,1265.50 674.17,1275.52 729.58,1291.51 741.03,1294.82 769.00,1304.20 815.04,1316.46 819.09,1317.22" fill="none" stroke="#bcbcbc" stroke-width="8" stroke-linecap="round" stroke-linejoin="round" /><polyline points="463.63,1608.93 454.18,1611.30 443.97,1639.76 428.14,1635.26 356.14,1610.72 347.47,1608.87 328.19,1607.49 241.00,1607.84 221.78,1605.39 178.37,1598.75 160.86,1595.91 36.67,1575.88 -11.42,1568.21 -103.13,1552.32 -117.93,1549.39 -324.91,1491.53 -337.97,1487.87 -426.51,1457.78 -448.29,1450.05 -502.70,1427.50 -533.72,1415.77" fill="none" stroke="#bcbcbc" stroke-width="8" stroke-linecap="round" stroke-linejoin="round" /><polyline points="653.32,78.50 644.35,76.65 524.73,90.79 481.96,94.36" fill="none" stroke="#bcbcbc" stroke-width="8" stroke-linecap="round" stroke-linejoin="round" /><polyline points="430.80,1204.49 434.99,1197.47 460.09,1133.00 488.14,1035.51 495.29,1014.51 499.12,1008.80 526.20,921.87 527.55,911.49 528.57,904.71" fill="none" stroke="#bcbcbc" stroke-width="8" stroke-linecap="round" stroke-linejoin="round" /><polyline points="554.08,262.75 556.93,261.66 560.81,258.58 566.69,251.70 643.08,142.10 663.42,113.11" fill="none" stroke="#bcbcbc" stroke-width="8" stroke-linecap="round" stroke-linejoin="round" /><polyline points="894.03,665.37 895.59,660.87 933.98,615.70 936.80,614.20 943.47,605.07 965.81,579.41 972.76,573.02" fill="none" stroke="#bcbcbc" stroke-width="8" stroke-linecap="round" stroke-linejoin="round" /><polyline points="927.58,1000.61 927.05,994.56 926.64,989.89 924.61,980.95 922.19,975.11 919.18,959.79 918.90,954.25 916.86,941.84 907.72,937.07 900.42,939.86 887.34,942.99 877.00,944.61 867.07,947.00 853.37,950.13 847.12,951.55" fill="none" stroke="#bcbcbc" stroke-width="8" stroke-linecap="round" stroke-linejoin="round" /><polyline points="-81.16,778.76 -53.23,713.30 -51.68,709.04" fill="none" stroke="#bcbcbc" stroke-width="8" stroke-linecap="round" stroke-linejoin="round" /><polyline points="654.74,658.72 668.20,653.51 675.23,650.78 680.68,645.27 703.11,639.74 710.64,641.66 726.88,637.47 739.27,634.28 742.22,632.64 754.24,629.69 815.66,614.64 829.58,610.48" fill="none" stroke="#bcbcbc" stroke-width="8" stroke-linecap="round" stroke-linejoin="round" /><polyline points="88.18,1213.06 117.16,1202.54 126.85,1199.58 136.61,1196.60 154.61,1191.10 168.62,1189.08 216.46,1183.85 226.08,1183.32 268.88,1183.69 294.96,1183.91 304.76,1183.41 320.47,1185.00 325.38,1185.70 335.39,1187.14 365.64,1193.78" fill="none" stroke="#bcbcbc" stroke-width="8" stroke-linecap="round" stroke-linejoin="round" /><polyline points="174.38,1324.81 178.19,1312.79 216.71,1191.32 216.46,1183.85" fill="none" stroke="#bcbcbc" stroke-width="8" stroke-linecap="round" stroke-linejoin="round" /><polyline points="226.08,1183.32 233.70,1081.05 234.46,1072.71 235.63,1063.00 235.65,1062.56 236.15,1050.70 238.70,1018.51 240.13,1003.51 242.09,986.48 243.88,974.22 245.49,966.51 247.51,960.69 251.47,947.58 259.65,920.27 270.05,885.02 281.52,848.97 283.86,841.62 285.74,836.29" fill="none" stroke="#bcbcbc" stroke-width="8" stroke-linecap="round" stroke-linejoin="round" /><polyline points="-23.09,972.70 -25.12,981.77 -24.77,984.66 -12.34,1088.13 -11.02,1099.08 -11.59,1110.36 -14.85,1174.71 -16.21,1201.59 -16.91,1215.46 -18.16,1240.18 -18.81,1253.05 -20.22,1258.16" fill="none" stroke="#bcbcbc" stroke-width="8" stroke-linecap="round" stroke-linejoin="round" /><polyline points="-81.16,778.76 -126.34,765.33 -132.08,761.64 -160.20,753.45 -168.10,753.53 -203.43,742.89 -209.14,738.68 -241.29,728.93 -280.74,718.18 -280.93,718.16 -287.47,717.60" fill="none" stroke="#bcbcbc" stroke-width="8" stroke-linecap="round" stroke-linejoin="round" /><polyline points="742.22,632.64 743.79,634.70 750.34,644.46 762.45,662.52 773.86,673.94 795.77,698.54 792.07,721.28 790.19,729.81 787.57,733.41 793.07,741.54 801.57,759.04 818.56,791.82 826.92,807.96 832.12,822.46 834.47,829.20" fill="none" stroke="#bcbcbc" stroke-width="8" stroke-linecap="round" stroke-linejoin="round" /><polyline points="856.65,679.47 850.35,681.43 808.86,694.34 802.91,696.25 795.77,698.54" fill="none" stroke="#bcbcbc" stroke-width="8" stroke-linecap="round" stroke-linejoin="round" /><polyline points="558.49,758.07 571.47,753.86 665.65,705.77 678.25,699.61 722.64,686.79 765.68,674.69 773.86,673.94" fill="none" stroke="#bcbcbc" stroke-width="8" stroke-linecap="round" stroke-linejoin="round" /><polyline points="568.76,817.61 677.33,767.08 681.90,764.05 692.52,760.96 764.86,739.91 775.84,735.71 787.57,733.41" fill="none" stroke="#bcbcbc" stroke-width="8" stroke-linecap="round" stroke-linejoin="round" /><polyline points="546.60,-241.69 590.55,-236.26 594.97,-235.71 612.01,-231.53" fill="none" stroke="#bcbcbc" stroke-width="8" stroke-linecap="round" stroke-linejoin="round" /><polyline points="922.18,205.17 929.98,203.55 959.10,217.82 962.94,221.62 1017.61,314.16 1019.05,325.39 1026.15,331.31 1025.02,335.40 1024.85,342.07 1025.84,351.40 1040.32,410.91 1041.60,452.13 1043.63,517.94 1047.03,606.52 1033.16,645.12 1024.23,668.65 1011.19,701.81 1007.42,711.40 1004.96,714.08 1001.02,739.74" fill="none" stroke="#bcbcbc" stroke-width="8" stroke-linecap="round" stroke-linejoin="round" /><polyline points="1023.26,896.07 1009.96,890.29 976.74,867.10 932.90,836.29 908.79,816.80 892.53,799.37" fill="none" stroke="#bcbcbc" stroke-width="8" stroke-linecap="round" stroke-linejoin="round" /><polyline points="485.31,1414.71 472.26,1410.57 451.07,1403.86 440.96,1400.65 429.08,1396.88 414.07,1392.13 400.50,1387.82 387.09,1383.57 327.28,1364.59 316.81,1361.26 303.80,1357.14 300.92,1356.24 266.72,1347.20 257.06,1344.86 244.95,1341.93 232.28,1338.86 186.63,1327.78 174.38,1324.81 161.22,1320.25 133.73,1310.70 123.37,1307.10 114.10,1304.09 71.06,1288.79 65.64,1285.55 63.03,1279.94" fill="none" stroke="#bcbcbc" stroke-width="8" stroke-linecap="round" stroke-linejoin="round" /><polyline points="681.90,764.05 678.73,752.69 669.28,718.80 665.65,705.77 660.39,696.03 659.91,694.22 656.81,682.75 660.41,677.67 656.08,663.21 654.74,658.72" fill="none" stroke="#bcbcbc" stroke-width="8" stroke-linecap="round" stroke-linejoin="round" /><polyline points="666.10,349.39 675.08,345.16 724.16,318.10 752.22,300.05 772.01,286.55 776.38,283.30 792.31,272.23 808.81,260.03 819.26,252.43 831.72,243.32 875.02,223.78 880.64,224.07 888.85,220.19 922.18,205.17" fill="none" stroke="#bcbcbc" stroke-width="8" stroke-linecap="round" stroke-linejoin="round" /><polyline points="122.06,533.88 129.14,536.75 133.82,538.19 221.59,565.15 235.00,569.27" fill="none" stroke="#bcbcbc" stroke-width="8" stroke-linecap="round" stroke-linejoin="round" /><polyline points="-504.91,731.28 -567.62,712.30" fill="none" stroke="#bcbcbc" stroke-width="8" stroke-linecap="round" stroke-linejoin="round" /><polyline points="508.06,-153.11 523.61,-133.41 525.93,-130.47 533.78,-120.53 542.72,-119.48 561.11,-117.32 564.38,-115.06" fill="none" stroke="#bcbcbc" stroke-width="8" stroke-linecap="round" stroke-linejoin="round" /><polyline points="1047.98,723.02 1023.34,727.62 998.08,741.35 974.66,754.38 952.51,765.46 925.75,779.99 906.37,791.76 868.07,812.30 718.56,887.52 679.80,904.59 654.19,915.67 641.51,919.82 631.01,921.78 613.82,922.82 589.36,919.36 528.34,904.71 441.71,884.52 327.73,850.14 285.74,836.29 216.99,815.06 151.23,793.38 54.79,755.53 6.57,734.77 -51.57,708.93 -148.01,656.09 -170.62,641.09 -227.83,605.10 -251.83,581.10 -287.82,534.49 -347.11,473.35 -370.42,452.82" fill="none" stroke="#bcbcbc" stroke-width="8" stroke-linecap="round" stroke-linejoin="round" /><polyline points="580.50,1444.81 581.51,1439.17 585.16,1429.96 619.36,1349.94 632.28,1319.94 647.50,1282.56 651.21,1268.88" fill="none" stroke="#bcbcbc" stroke-width="8" stroke-linecap="round" stroke-linejoin="round" /><polyline points="-75.57,1106.93 -114.42,1088.12 -202.82,1045.34 -311.25,992.86 -320.92,988.17" fill="none" stroke="#bcbcbc" stroke-width="8" stroke-linecap="round" stroke-linejoin="round" /><polyline points="562.89,487.61 572.70,477.56 598.78,450.86 619.48,428.26" fill="none" stroke="#bcbcbc" stroke-width="8" stroke-linecap="round" stroke-linejoin="round" /><polyline points="-190.26,547.10 -201.03,532.83 -251.53,465.96 -323.62,407.62" fill="none" stroke="#bcbcbc" stroke-width="8" stroke-linecap="round" stroke-linejoin="round" /><polyline points="-503.09,1427.34 -493.23,1403.96 -461.89,1325.81 -458.09,1315.55 -453.87,1304.18 -452.27,1300.07 -451.85,1293.64 -447.84,1232.89 -446.69,1215.46" fill="none" stroke="#bcbcbc" stroke-width="8" stroke-linecap="round" stroke-linejoin="round" /><polyline points="-524.47,799.15 -504.91,731.28 -479.09,641.76 -475.89,630.68 -472.34,618.10 -464.39,589.91 -463.55,586.95 -461.27,577.89 -457.64,567.64 -456.76,565.16 -452.17,553.79 -443.16,533.91 -440.47,528.21" fill="none" stroke="#bcbcbc" stroke-width="8" stroke-linecap="round" stroke-linejoin="round" /><polyline points="-475.89,630.68 -436.30,640.81 -352.44,662.37 -304.66,677.25 -284.72,681.92" fill="none" stroke="#bcbcbc" stroke-width="8" stroke-linecap="round" stroke-linejoin="round" /><polyline points="339.07,322.73 340.42,314.49 341.78,305.94 347.58,277.32 362.10,210.71 374.01,151.12 376.19,138.76 379.15,121.98 379.15,121.96" fill="none" stroke="#bcbcbc" stroke-width="8" stroke-linecap="round" stroke-linejoin="round" /><polyline points="221.85,1605.41 239.53,1560.31 241.72,1552.21 311.88,1374.11 316.81,1361.26 320.79,1350.37 362.72,1228.40 370.79,1221.36" fill="none" stroke="#bcbcbc" stroke-width="8" stroke-linecap="round" stroke-linejoin="round" /><polyline points="462.32,288.25 462.32,288.24 459.84,275.19 459.45,273.61 453.39,248.96 453.39,248.88 449.26,232.17 431.75,172.17 429.55,165.75 417.72,133.60 413.88,124.01 411.40,117.82 408.18,110.79 408.18,110.78 408.18,110.75 405.83,84.91 405.61,72.22" fill="none" stroke="#bcbcbc" stroke-width="8" stroke-linecap="round" stroke-linejoin="round" /><polyline points="436.08,1306.25 431.58,1311.11 424.87,1319.10 405.97,1372.39 400.50,1387.82" fill="none" stroke="#bcbcbc" stroke-width="8" stroke-linecap="round" stroke-linejoin="round" /><polyline points="122.06,533.88 124.64,526.88 125.22,525.26 137.50,490.97 142.10,476.53 179.72,365.91" fill="none" stroke="#bcbcbc" stroke-width="8" stroke-linecap="round" stroke-linejoin="round" /><polyline points="316.65,688.96 320.49,678.76 330.88,651.15 335.28,639.48 338.25,631.57 346.59,609.42 352.10,594.78 352.84,592.81 366.19,557.35 371.77,559.08 374.80,550.84 380.15,536.28 379.12,529.66 393.32,491.00 394.78,487.03 397.48,484.55 399.74,482.47 413.98,443.54 416.04,432.88 436.47,376.11 441.31,372.33 451.14,344.52 449.39,340.25 458.00,314.27 453.53,291.08" fill="none" stroke="#bcbcbc" stroke-width="8" stroke-linecap="round" stroke-linejoin="round" /><polyline points="682.15,-367.09 676.42,-376.48 646.34,-425.84" fill="none" stroke="#bcbcbc" stroke-width="8" stroke-linecap="round" stroke-linejoin="round" /><polyline points="776.38,283.30 914.44,372.08 914.48,372.14 914.48,372.16 940.02,375.47" fill="none" stroke="#bcbcbc" stroke-width="8" stroke-linecap="round" stroke-linejoin="round" /><polyline points="721.02,97.83 867.91,171.56 872.34,174.87 872.04,199.01 875.02,223.78" fill="none" stroke="#bcbcbc" stroke-width="8" stroke-linecap="round" stroke-linejoin="round" /><polyline points="440.96,1400.65 435.67,1416.77 414.27,1482.05 377.86,1591.99 375.28,1599.79 372.67,1607.69 371.93,1616.11" fill="none" stroke="#bcbcbc" stroke-width="8" stroke-linecap="round" stroke-linejoin="round" /><polyline points="854.48,1004.09 855.36,995.90 855.55,988.26 855.49,987.99 850.28,965.49 848.15,956.09 847.12,951.55 846.07,946.92 840.36,921.74 829.19,871.44 821.08,841.19 819.93,836.52" fill="none" stroke="#bcbcbc" stroke-width="8" stroke-linecap="round" stroke-linejoin="round" /><polyline points="125.19,1464.62 128.83,1454.27 169.74,1338.01 174.38,1324.81" fill="none" stroke="#bcbcbc" stroke-width="8" stroke-linecap="round" stroke-linejoin="round" /><polyline points="1043.63,517.94 1031.59,514.54 949.86,389.12 940.02,375.47" fill="none" stroke="#bcbcbc" stroke-width="8" stroke-linecap="round" stroke-linejoin="round" /><polyline points="-299.88,818.86 -2.03,890.23 18.51,897.73" fill="none" stroke="#bcbcbc" stroke-width="8" stroke-linecap="round" stroke-linejoin="round" /><polyline points="639.56,-296.21 755.58,-253.23 771.92,-256.02" fill="none" stroke="#bcbcbc" stroke-width="8" stroke-linecap="round" stroke-linejoin="round" />
    <polyline points="226.24,352.80 221.43,336.57 203.61,276.29 181.95,207.54 177.48,195.27 172.94,183.77 167.20,167.20" fill="none" stroke="#ffffff" stroke-width="16" stroke-linecap="round" stroke-linejoin="round" />
    <polyline points="226.24,352.80 221.43,336.57 203.61,276.29 181.95,207.54 177.48,195.27 172.94,183.77 167.20,167.20" fill="none" stroke="#111111" stroke-width="9" stroke-linecap="round" stroke-linejoin="round" />
    
            <g transform="translate(226.24,352.80)">
              <circle r="19" fill="#ffffff" stroke="#111111" stroke-width="4" />
              <text text-anchor="middle" dominant-baseline="central" font-family="Helvetica, Arial, sans-serif"
                font-size="18" font-weight="700" fill="#111111">1</text>
            </g>
            
            <g transform="translate(167.20,167.20)">
              <circle r="19" fill="#ffffff" stroke="#111111" stroke-width="4" />
              <text text-anchor="middle" dominant-baseline="central" font-family="Helvetica, Arial, sans-serif"
                font-size="18" font-weight="700" fill="#111111">2</text>
            </g>
            
  </g>
</svg>
