<svg xmlns="http://www.w3.org/2000/svg" width="520" height="520" viewBox="0 0 520 520">
  <rect width="100%" height="100%" fill="#ffffff" />
  <g>
    <polyline points="1151.93,-1121.34 1155.56,-1102.02 1178.99,-938.10 1175.41,-897.12" fill="none" stroke="#bcbcbc" stroke-width="8" stroke-linecap="round" stroke-linejoin="round" /><polyline points="675.61,244.67 681.28,227.25 711.30,134.94 714.84,124.06 718.42,112.64 793.90,-128.05 799.97,-147.41 786.07,-181.65" fill="none" stroke="#bcbcbc" stroke-width="8" stroke-linecap="round" stroke-linejoin="round" /><polyline points="154.22,30.59 153.00,16.77 177.68,-121.44 181.14,-138.73 183.72,-147.78 190.51,-182.83 198.15,-225.73 206.47,-263.51 214.71,-301.20 219.91,-311.83 223.31,-318.35" fill="none" stroke="#bcbcbc" stroke-width="8" stroke-linecap="round" stroke-linejoin="round" /><polyline points="297.46,-944.29 291.59,-962.17 230.95,-1147.12 227.99,-1154.87" fill="none" stroke="#bcbcbc" stroke-width="8" stroke-linecap="round" stroke-linejoin="round" /><polyline points="-13.72,683.43 -11.91,665.78 -11.18,657.68 -4.57,584.66 2.65,520.36 4.34,505.35 5.91,487.34 6.08,485.82 10.18,450.01 13.71,413.61 17.60,378.48 20.22,351.14 21.32,334.26 22.28,318.67 24.00,301.11" fill="none" stroke="#bcbcbc" stroke-width="8" stroke-linecap="round" stroke-linejoin="round" /><polyline points="824.24,287.58 828.56,274.00 858.99,178.34 862.45,167.48 867.37,151.99 870.89,140.90 897.82,24.74" fill="none" stroke="#bcbcbc" stroke-width="8" stroke-linecap="round" stroke-linejoin="round" /><polyline points="705.95,-1604.52 717.19,-1602.80 1026.86,-1555.22" fill="none" stroke="#bcbcbc" stroke-width="8" stroke-linecap="round" stroke-linejoin="round" /><polyline points="-89.06,265.04 -121.29,263.54 -140.94,262.62 -151.62,262.13 -160.99,261.69 -233.98,258.30 -335.51,253.58 -383.89,246.71 -400.09,244.42 -414.14,241.94 -509.32,225.14 -522.62,222.79 -525.57,222.29 -542.00,219.47 -554.63,217.31 -635.28,210.18 -650.64,208.82 -656.27,208.32 -673.71,207.11 -707.85,204.75" fill="none" stroke="#bcbcbc" stroke-width="8" stroke-linecap="round" stroke-linejoin="round" /><polyline points="379.23,171.53 385.47,153.76 441.73,-2.18 509.41,-198.87 513.75,-211.21 516.77,-219.83 519.22,-226.90" fill="none" stroke="#bcbcbc" stroke-width="8" stroke-linecap="round" stroke-linejoin="round" /><polyline points="-656.27,208.32 -657.71,198.30 -658.05,187.41 -655.92,165.48 -651.02,125.44 -647.75,111.99 -642.45,63.40 -641.48,52.58 -639.93,38.67 -638.77,28.33 -636.60,16.62 -632.57,-14.90 -629.77,-39.01 -625.66,-48.87" fill="none" stroke="#bcbcbc" stroke-width="8" stroke-linecap="round" stroke-linejoin="round" /><polyline points="-713.86,-61.19 -638.81,-50.71 -625.66,-48.87 -617.51,-47.57 -583.87,-42.21 -506.37,-29.86 -493.07,-27.65" fill="none" stroke="#bcbcbc" stroke-width="8" stroke-linecap="round" stroke-linejoin="round" /><polyline points="667.19,-1045.53 667.68,-1038.71 668.69,-1031.80 671.13,-1026.51 675.69,-1020.62 684.13,-1012.93 704.13,-1000.77 858.42,-903.98 953.44,-776.59 1025.22,-599.47 1029.90,-587.77" fill="none" stroke="#bcbcbc" stroke-width="8" stroke-linecap="round" stroke-linejoin="round" /><polyline points="642.49,-528.72 645.68,-523.43 646.51,-522.06 649.16,-508.70 667.27,-421.17 673.01,-393.39 677.12,-373.60 683.53,-333.50 686.53,-315.00 688.59,-303.72 690.85,-293.52 693.55,-287.58 697.51,-280.69 699.63,-277.45 739.72,-220.06 761.41,-185.91 767.06,-177.75" fill="none" stroke="#bcbcbc" stroke-width="8" stroke-linecap="round" stroke-linejoin="round" /><polyline points="-508.40,567.23 -506.27,554.09 -504.29,544.59 -503.76,543.33 -477.07,479.90 -460.07,438.66 -454.90,425.60 -449.43,411.76 -443.49,399.86 -442.53,397.54 -434.39,377.88 -428.10,360.48 -422.70,344.51 -419.28,333.23 -415.44,319.29 -411.02,300.60 -407.65,285.44 -403.64,264.27 -402.79,259.55 -400.09,244.42" fill="none" stroke="#bcbcbc" stroke-width="8" stroke-linecap="round" stroke-linejoin="round" /><polyline points="784.39,-1204.39 869.47,-1144.94 880.93,-1142.51 889.32,-1132.91" fill="none" stroke="#bcbcbc" stroke-width="8" stroke-linecap="round" stroke-linejoin="round" /><polyline points="427.13,-655.38 438.38,-651.06 487.20,-635.09 600.44,-591.67 606.79,-585.33 609.77,-580.61" fill="none" stroke="#bcbcbc" stroke-width="8" stroke-linecap="round" stroke-linejoin="round" /><polyline points="638.15,460.43 645.86,440.33 683.93,337.06 710.85,259.03 716.43,256.46" fill="none" stroke="#bcbcbc" stroke-width="8" stroke-linecap="round" stroke-linejoin="round" /><polyline points="100.03,329.48 106.04,316.20 106.63,314.89 116.91,280.41 133.74,223.67 138.06,209.15 141.40,197.87 141.86,191.30 141.17,176.75" fill="none" stroke="#bcbcbc" stroke-width="8" stroke-linecap="round" stroke-linejoin="round" /><polyline points="799.75,-524.19 790.10,-522.20 768.23,-526.09 764.84,-535.11 726.94,-549.56 717.98,-547.22 683.79,-559.77 678.69,-556.21" fill="none" stroke="#bcbcbc" stroke-width="8" stroke-linecap="round" stroke-linejoin="round" /><polyline points="743.48,-1696.31 760.65,-1692.10 770.15,-1690.46 996.05,-1651.29" fill="none" stroke="#bcbcbc" stroke-width="8" stroke-linecap="round" stroke-linejoin="round" /><polyline points="567.90,397.54 577.30,371.05 595.56,319.56 607.36,297.63 624.34,250.09 631.12,231.12" fill="none" stroke="#bcbcbc" stroke-width="8" stroke-linecap="round" stroke-linejoin="round" /><polyline points="-669.84,-630.62 -686.21,-631.37 -690.31,-626.39 -718.81,-591.76 -818.46,-476.67 -832.47,-460.48" fill="none" stroke="#bcbcbc" stroke-width="8" stroke-linecap="round" stroke-linejoin="round" /><polyline points="204.15,-532.05 196.93,-516.06 196.05,-514.12 170.96,-448.69 145.66,-376.67 138.92,-357.46 135.09,-347.54" fill="none" stroke="#bcbcbc" stroke-width="8" stroke-linecap="round" stroke-linejoin="round" /><polyline points="572.23,-1267.24 580.21,-1256.42 585.90,-1241.55 594.76,-1220.21 608.97,-1186.64 621.56,-1156.50 636.02,-1123.41 646.74,-1097.91 648.32,-1094.24 648.42,-1094.02 657.05,-1073.85 659.63,-1068.11 662.08,-1062.66 664.67,-1057.54 666.63,-1052.35 667.19,-1045.53" fill="none" stroke="#bcbcbc" stroke-width="8" stroke-linecap="round" stroke-linejoin="round" /><polyline points="-38.05,-209.51 -33.88,-211.79 -28.04,-216.43 -25.12,-222.44 13.65,-369.44 14.82,-377.73 19.55,-392.87" fill="none" stroke="#bcbcbc" stroke-width="8" stroke-linecap="round" stroke-linejoin="round" /><polyline points="1317.58,-439.53 1323.08,-422.08 1326.95,-403.75 1319.42,-333.88 1310.70,-281.33 1305.95,-263.40 1305.52,-261.78 1301.35,-252.10 1295.67,-241.84 1282.41,-225.07 1288.83,-192.27 1268.05,-121.87 1256.58,-82.99 1233.11,-19.35 1198.74,58.13 1156.77,132.38 1143.66,156.52 1119.97,196.17 1025.29,330.52 1004.55,358.47 924.23,463.43 878.11,515.89 813.61,581.45 807.64,582.06 793.07,593.97" fill="none" stroke="#bcbcbc" stroke-width="8" stroke-linecap="round" stroke-linejoin="round" /><polyline points="149.39,709.73 175.82,627.78 180.14,614.24 186.02,605.72 198.64,567.84 202.75,554.97 254.89,391.75 260.13,375.33 264.45,360.91 325.98,167.28" fill="none" stroke="#bcbcbc" stroke-width="8" stroke-linecap="round" stroke-linejoin="round" /><polyline points="768.49,-814.42 791.34,-839.38 798.08,-847.50 844.24,-912.88" fill="none" stroke="#bcbcbc" stroke-width="8" stroke-linecap="round" stroke-linejoin="round" /><polyline points="311.86,-804.53 374.78,-782.63 378.25,-776.99 396.12,-771.00 406.72,-767.37 457.43,-750.24" fill="none" stroke="#bcbcbc" stroke-width="8" stroke-linecap="round" stroke-linejoin="round" /><polyline points="860.23,-1239.86 889.32,-1132.91 923.01,-1006.92 928.12,-996.42 928.93,-984.43 951.77,-941.79 1013.42,-826.84 1026.90,-806.96 1030.80,-801.14 1122.91,-628.95 1165.24,-590.48 1171.18,-582.81 1179.55,-575.65 1259.92,-506.94 1265.38,-502.27 1279.81,-494.61" fill="none" stroke="#bcbcbc" stroke-width="8" stroke-linecap="round" stroke-linejoin="round" /><polyline points="547.64,727.13 748.09,610.70 783.77,592.46 793.07,593.97" fill="none" stroke="#bcbcbc" stroke-width="8" stroke-linecap="round" stroke-linejoin="round" /><polyline points="764.97,560.57 777.41,545.79 889.06,323.03 896.45,308.42 902.63,293.96 938.69,204.79 949.43,177.92 980.52,83.85 1000.67,-37.08 1003.06,-54.68" fill="none" stroke="#bcbcbc" stroke-width="8" stroke-linecap="round" stroke-linejoin="round" /><polyline points="678.80,-749.48 676.85,-747.48 674.16,-738.11 673.89,-737.17 661.77,-690.52 664.95,-678.34 662.31,-667.42 658.85,-653.13 649.98,-642.86 639.92,-602.11 628.07,-593.15 615.42,-584.47 609.77,-580.61" fill="none" stroke="#bcbcbc" stroke-width="8" stroke-linecap="round" stroke-linejoin="round" /><polyline points="204.15,-532.05 209.30,-545.25 240.27,-624.65 247.03,-641.97 252.59,-656.22 292.17,-757.62 309.99,-800.01 311.86,-804.53 325.71,-838.01 356.78,-915.16 368.16,-948.00 370.70,-955.53 374.10,-964.07" fill="none" stroke="#bcbcbc" stroke-width="8" stroke-linecap="round" stroke-linejoin="round" /><polyline points="550.76,-1013.35 556.75,-995.52 753.32,-827.62 860.59,-734.31 1020.81,-595.04 1034.79,-583.86 1041.06,-579.94 1068.86,-554.71 1105.99,-523.04 1190.20,-451.24 1217.40,-427.86 1235.45,-406.27" fill="none" stroke="#bcbcbc" stroke-width="8" stroke-linecap="round" stroke-linejoin="round" /><polyline points="875.78,-1302.65 885.75,-1309.04 944.82,-1333.59 956.96,-1346.36" fill="none" stroke="#bcbcbc" stroke-width="8" stroke-linecap="round" stroke-linejoin="round" /><polyline points="944.00,191.51 862.45,167.48 714.84,124.06" fill="none" stroke="#bcbcbc" stroke-width="8" stroke-linecap="round" stroke-linejoin="round" /><polyline points="680.76,-1542.97 691.90,-1535.29 1054.88,-1454.53" fill="none" stroke="#bcbcbc" stroke-width="8" stroke-linecap="round" stroke-linejoin="round" /><polyline points="1129.13,-347.97 1110.37,-389.71 1068.74,-488.98 1065.63,-496.88 1058.51,-515.00 1031.68,-583.28 1029.99,-587.70" fill="none" stroke="#bcbcbc" stroke-width="8" stroke-linecap="round" stroke-linejoin="round" /><polyline points="572.23,-1267.24 552.08,-1272.97 537.27,-1277.38 507.17,-1286.32 491.88,-1290.68 483.12,-1293.11 471.68,-1296.39" fill="none" stroke="#bcbcbc" stroke-width="8" stroke-linecap="round" stroke-linejoin="round" /><polyline points="46.79,-721.18 45.77,-724.52 44.84,-726.85 40.68,-737.17 24.59,-774.68 9.30,-812.78 6.00,-821.78 2.19,-832.14 -0.53,-840.62 -5.02,-853.33 -5.49,-854.66 -20.12,-890.72 -46.98,-958.48 -53.02,-961.92 -57.31,-972.91 -65.87,-1002.67 -80.55,-1039.56 -83.71,-1047.94" fill="none" stroke="#bcbcbc" stroke-width="8" stroke-linecap="round" stroke-linejoin="round" /><polyline points="175.82,627.78 191.07,632.45 240.42,647.49 255.88,652.19" fill="none" stroke="#bcbcbc" stroke-width="8" stroke-linecap="round" stroke-linejoin="round" /><polyline points="1097.42,-1284.90 1100.29,-1296.53 1099.12,-1300.95 1097.71,-1306.27 1088.70,-1339.28 1068.62,-1409.06 1058.02,-1444.73 1054.88,-1454.53 1026.86,-1555.22 1011.74,-1609.53 996.05,-1651.29 981.88,-1688.96 967.77,-1714.87 954.06,-1728.55 848.79,-1857.17 841.00,-1866.33 835.84,-1874.79" fill="none" stroke="#bcbcbc" stroke-width="8" stroke-linecap="round" stroke-linejoin="round" /><polyline points="667.19,-1045.53 661.77,-1043.46 651.73,-1040.69 650.72,-1040.41 608.80,-1029.69 560.60,-1016.12 550.76,-1013.35 546.37,-1011.96 534.79,-1008.23 524.89,-1005.48 481.67,-993.45 410.58,-973.26 384.07,-966.56 374.10,-964.07 326.72,-952.44 297.46,-944.29 235.48,-926.97 174.23,-909.71 167.14,-907.74 115.94,-893.54 92.33,-886.98 80.41,-881.35 57.83,-870.16 13.00,-847.41 9.88,-845.82 -0.53,-840.62 -6.88,-837.44 -15.74,-832.80 -47.23,-816.28 -104.62,-784.09 -152.56,-758.98 -159.42,-755.38 -168.58,-754.81 -174.08,-751.89 -175.18,-751.31 -227.19,-722.81 -238.08,-722.85 -250.58,-716.31 -254.94,-714.03 -258.63,-712.10 -267.32,-707.56 -274.17,-691.93 -303.61,-676.17 -312.96,-671.16 -323.09,-665.65 -364.04,-643.36 -385.21,-631.84 -395.88,-628.77" fill="none" stroke="#bcbcbc" stroke-width="8" stroke-linecap="round" stroke-linejoin="round" /><polyline points="1256.58,-82.99 1234.72,-80.99 1166.46,-74.74 1163.39,-74.45 1159.03,-74.06 1151.99,-73.41 1085.80,-67.33 1062.78,-69.47 1035.97,-62.75 1014.50,-57.49 1003.07,-54.68 974.65,-53.61 950.05,-54.86 937.51,-56.19 926.84,-59.42 918.98,-63.76 889.72,-84.45 818.61,-133.29 811.90,-137.84 805.08,-142.47 799.97,-147.41" fill="none" stroke="#bcbcbc" stroke-width="8" stroke-linecap="round" stroke-linejoin="round" /><polyline points="-354.01,-907.50 -328.21,-856.99 -324.31,-842.56 -302.57,-801.09 -293.59,-789.22 -257.27,-718.55 -254.94,-714.03" fill="none" stroke="#bcbcbc" stroke-width="8" stroke-linecap="round" stroke-linejoin="round" /><polyline points="436.72,-458.31 432.85,-447.69 431.77,-444.39 426.73,-429.11 394.81,-340.06 378.96,-295.83 378.42,-294.32 372.06,-280.58 368.41,-272.41" fill="none" stroke="#bcbcbc" stroke-width="8" stroke-linecap="round" stroke-linejoin="round" /><polyline points="860.23,-1239.86 856.69,-1247.44 847.38,-1248.66 817.29,-1241.76 811.18,-1242.55 806.39,-1248.98 797.88,-1288.12 843.99,-1295.26 865.34,-1301.56 875.78,-1302.65 887.02,-1262.68" fill="none" stroke="#bcbcbc" stroke-width="8" stroke-linecap="round" stroke-linejoin="round" /><polyline points="1026.90,-806.96 1038.78,-813.63 1098.44,-849.58 1114.39,-859.07 1142.30,-875.71 1188.22,-905.40 1198.93,-913.11 1279.48,-963.07" fill="none" stroke="#bcbcbc" stroke-width="8" stroke-linecap="round" stroke-linejoin="round" /><polyline points="1308.45,-570.97 1288.08,-577.04 1276.24,-586.75 1231.00,-625.89 1229.46,-627.27 1218.52,-637.03 1212.09,-648.43 1098.44,-849.58" fill="none" stroke="#bcbcbc" stroke-width="8" stroke-linecap="round" stroke-linejoin="round" /><polyline points="25.83,-586.91 204.15,-532.05 218.70,-527.44 351.76,-485.26 354.54,-484.38 374.48,-478.06 384.28,-474.95 397.02,-471.47 423.29,-462.57 436.72,-458.31 448.81,-454.48 547.84,-423.07 652.38,-390.22 661.03,-387.51 673.01,-393.39" fill="none" stroke="#bcbcbc" stroke-width="8" stroke-linecap="round" stroke-linejoin="round" /><polyline points="550.14,-1467.19 627.39,-1538.15 640.46,-1550.17" fill="none" stroke="#bcbcbc" stroke-width="8" stroke-linecap="round" stroke-linejoin="round" /><polyline points="-743.32,-322.04 -459.89,-291.67" fill="none" stroke="#bcbcbc" stroke-width="8" stroke-linecap="round" stroke-linejoin="round" /><polyline points="111.71,-1113.07 171.28,-1134.37 232.73,-1156.59 270.91,-1171.43 387.48,-1213.82 421.31,-1225.52 428.37,-1227.96 436.85,-1230.88 446.36,-1234.15 447.52,-1234.55 466.73,-1242.27 475.07,-1245.62" fill="none" stroke="#bcbcbc" stroke-width="8" stroke-linecap="round" stroke-linejoin="round" /><polyline points="511.82,328.36 567.90,397.54 602.24,432.11 617.10,442.81 638.15,460.43 657.91,477.02 674.89,493.59 675.31,502.01" fill="none" stroke="#bcbcbc" stroke-width="8" stroke-linecap="round" stroke-linejoin="round" /><polyline points="572.23,-1267.24 594.21,-1322.33 629.79,-1413.02 680.76,-1542.97 705.95,-1604.52 743.48,-1696.31 774.26,-1771.50 779.76,-1781.47 806.83,-1825.72 808.58,-1828.58 818.48,-1848.05 835.84,-1874.79 845.54,-1889.71 859.26,-1910.83" fill="none" stroke="#bcbcbc" stroke-width="8" stroke-linecap="round" stroke-linejoin="round" /><polyline points="53.69,205.67 50.09,208.54 47.71,211.97 42.86,226.27 39.51,236.59 24.03,282.89 21.89,289.57 20.57,293.71 6.35,289.64 -28.26,278.04 -62.55,266.54 -89.06,265.04" fill="none" stroke="#bcbcbc" stroke-width="8" stroke-linecap="round" stroke-linejoin="round" /><polyline points="-624.07,527.86 -567.55,381.92 -561.26,366.03 -555.62,350.73 -548.81,332.24 -540.45,303.15 -531.73,267.01 -528.16,241.10 -525.57,222.29 -521.91,208.40 -508.61,104.04 -493.07,-27.65 -485.03,-90.43 -476.06,-164.18 -459.89,-291.67 -457.32,-313.34 -440.98,-446.67 -440.97,-454.09 -437.36,-493.65 -426.94,-577.22 -424.32,-591.79 -421.60,-599.96 -417.34,-608.97 -413.19,-615.95 -404.04,-625.86 -395.87,-628.66" fill="none" stroke="#bcbcbc" stroke-width="8" stroke-linecap="round" stroke-linejoin="round" /><polyline points="609.77,-580.61 612.86,-575.70 623.23,-559.53 638.75,-534.66 642.49,-528.72 648.68,-533.42 678.69,-556.21" fill="none" stroke="#bcbcbc" stroke-width="8" stroke-linecap="round" stroke-linejoin="round" /><polyline points="629.79,-1413.02 935.17,-1357.82 967.24,-1340.95 1086.88,-1281.64 1097.42,-1284.90" fill="none" stroke="#bcbcbc" stroke-width="8" stroke-linecap="round" stroke-linejoin="round" /><polyline points="46.79,-721.18 41.38,-713.28 -7.34,-689.50 -43.12,-644.03 -81.74,-620.13 -108.14,-600.19 -133.34,-579.64 -146.25,-567.87 -169.07,-538.93 -194.58,-502.36 -198.78,-495.59" fill="none" stroke="#bcbcbc" stroke-width="8" stroke-linecap="round" stroke-linejoin="round" /><polyline points="98.30,-688.56 96.19,-683.86 91.57,-677.11 82.84,-666.37 31.38,-601.37 4.15,-528.05 -133.28,-579.70" fill="none" stroke="#bcbcbc" stroke-width="8" stroke-linecap="round" stroke-linejoin="round" /><polyline points="-108.14,-600.19 -113.47,-616.30 -136.46,-685.92 -145.39,-699.67 -160.33,-744.50 -161.62,-748.37 -159.42,-755.38 -163.00,-766.81 -234.85,-996.22" fill="none" stroke="#bcbcbc" stroke-width="8" stroke-linecap="round" stroke-linejoin="round" /><polyline points="733.84,-1851.94 790.63,-1850.45 793.28,-1850.37 804.16,-1850.06 818.48,-1848.05" fill="none" stroke="#bcbcbc" stroke-width="8" stroke-linecap="round" stroke-linejoin="round" /><polyline points="441.73,-2.18 422.34,-2.42 258.15,19.62 246.32,20.87 232.79,22.30 154.22,30.59 48.37,41.77 -7.75,47.69 -38.80,50.96 -64.00,54.02 -76.94,55.60 -91.52,57.37 -161.95,65.93 -178.82,67.98 -230.83,73.66 -508.61,104.04" fill="none" stroke="#bcbcbc" stroke-width="8" stroke-linecap="round" stroke-linejoin="round" /><polyline points="198.64,567.84 184.09,563.16 116.16,541.29 102.43,536.87 90.50,533.04 18.53,509.91 4.34,505.35 -14.43,499.31 -129.01,462.44 -141.90,458.29" fill="none" stroke="#bcbcbc" stroke-width="8" stroke-linecap="round" stroke-linejoin="round" /><polyline points="482.71,-807.50 522.23,-795.19 666.74,-750.57 668.09,-750.15 678.80,-749.48" fill="none" stroke="#bcbcbc" stroke-width="8" stroke-linecap="round" stroke-linejoin="round" /><polyline points="889.32,-1132.91 1085.90,-1129.46" fill="none" stroke="#bcbcbc" stroke-width="8" stroke-linecap="round" stroke-linejoin="round" /><polyline points="793.07,593.97 764.97,560.57 753.18,546.86 743.05,537.39 729.56,527.32 701.99,510.78 675.31,502.01 621.04,485.25 576.65,471.16 602.24,432.11" fill="none" stroke="#bcbcbc" stroke-width="8" stroke-linecap="round" stroke-linejoin="round" /><polyline points="511.82,328.36 472.69,280.06 465.25,270.88 425.83,216.58 416.91,200.01 419.05,180.27 430.94,180.16 460.25,185.80 504.85,194.38" fill="none" stroke="#bcbcbc" stroke-width="8" stroke-linecap="round" stroke-linejoin="round" /><polyline points="-0.06,-58.58 7.16,-43.06 48.37,41.77 109.64,167.90 117.46,183.99" fill="none" stroke="#bcbcbc" stroke-width="8" stroke-linecap="round" stroke-linejoin="round" /><polyline points="-660.10,325.63 -645.36,331.65 -576.33,359.87 -561.26,366.03 -545.41,372.52 -464.13,405.75 -449.43,411.76" fill="none" stroke="#bcbcbc" stroke-width="8" stroke-linecap="round" stroke-linejoin="round" /><polyline points="33.86,-184.35 177.68,-121.44" fill="none" stroke="#bcbcbc" stroke-width="8" stroke-linecap="round" stroke-linejoin="round" /><polyline points="678.80,-749.48 700.71,-748.33 702.11,-747.09 711.94,-738.37 726.38,-725.48 729.05,-720.29 778.84,-676.69 782.52,-669.73 817.54,-638.84 826.35,-636.15 853.59,-612.30 859.69,-609.51 900.76,-574.67 909.91,-566.56 914.95,-558.53" fill="none" stroke="#bcbcbc" stroke-width="8" stroke-linecap="round" stroke-linejoin="round" /><polyline points="-700.70,-184.21 -476.06,-164.18" fill="none" stroke="#bcbcbc" stroke-width="8" stroke-linecap="round" stroke-linejoin="round" /><polyline points="-199.13,652.18 -192.17,637.37 -190.38,630.78 -180.62,594.81 -145.29,470.22 -141.90,458.29 -138.33,445.21 -122.32,386.67 -95.29,287.82 -89.06,265.04" fill="none" stroke="#bcbcbc" stroke-width="8" stroke-linecap="round" stroke-linejoin="round" /><polyline points="-0.06,-58.58 33.86,-184.35 -38.05,-209.51 -56.88,-198.39 -65.47,-191.86 -71.82,-183.27 -76.29,-171.92 -92.83,-110.80 -79.49,-104.01 -66.01,-100.73 -36.20,-92.98 -13.90,-85.87 -0.06,-58.58" fill="none" stroke="#bcbcbc" stroke-width="8" stroke-linecap="round" stroke-linejoin="round" /><polyline points="-92.83,-110.80 -108.58,-112.99 -476.06,-164.18" fill="none" stroke="#bcbcbc" stroke-width="8" stroke-linecap="round" stroke-linejoin="round" /><polyline points="504.85,194.38 538.94,201.82 631.12,231.12 656.90,239.27 718.08,256.94 779.71,274.71 825.33,287.89 898.31,308.96 913.38,313.31 950.21,325.66 1010.83,341.80 1016.18,342.80" fill="none" stroke="#bcbcbc" stroke-width="8" stroke-linecap="round" stroke-linejoin="round" /><polyline points="548.09,726.87 535.65,729.99 522.21,767.46 501.36,761.54 406.54,729.23 395.13,726.80 369.74,724.98 254.92,725.44 229.61,722.22 172.45,713.47 149.39,709.73 -14.14,683.36 -77.46,673.26 -198.23,652.34 -217.73,648.47 -490.28,572.30 -507.48,567.49 -624.07,527.86 -652.75,517.69 -724.40,488.00 -765.24,472.55" fill="none" stroke="#bcbcbc" stroke-width="8" stroke-linecap="round" stroke-linejoin="round" /><polyline points="797.88,-1288.12 786.07,-1290.55 628.55,-1271.93 572.23,-1267.24" fill="none" stroke="#bcbcbc" stroke-width="8" stroke-linecap="round" stroke-linejoin="round" /><polyline points="504.86,194.38 510.38,185.14 543.43,100.25 580.37,-28.11 589.79,-55.75 594.83,-63.28 630.49,-177.73 632.26,-191.39 633.61,-200.32" fill="none" stroke="#bcbcbc" stroke-width="8" stroke-linecap="round" stroke-linejoin="round" /><polyline points="667.19,-1045.53 670.96,-1046.97 676.06,-1051.02 683.81,-1060.09 784.39,-1204.39 811.18,-1242.56" fill="none" stroke="#bcbcbc" stroke-width="8" stroke-linecap="round" stroke-linejoin="round" /><polyline points="1114.85,-515.44 1116.91,-521.36 1167.47,-580.83 1171.18,-582.81 1179.96,-594.83 1209.37,-628.61 1218.52,-637.03" fill="none" stroke="#bcbcbc" stroke-width="8" stroke-linecap="round" stroke-linejoin="round" /><polyline points="1159.03,-74.06 1158.33,-82.01 1157.79,-88.17 1155.13,-99.94 1151.94,-107.62 1147.97,-127.79 1147.61,-135.10 1144.92,-151.43 1132.88,-157.71 1123.27,-154.04 1106.05,-149.91 1092.42,-147.78 1079.36,-144.63 1061.31,-140.52 1053.08,-138.64" fill="none" stroke="#bcbcbc" stroke-width="8" stroke-linecap="round" stroke-linejoin="round" /><polyline points="-169.30,-366.15 -132.53,-452.34 -130.48,-457.94" fill="none" stroke="#bcbcbc" stroke-width="8" stroke-linecap="round" stroke-linejoin="round" /><polyline points="799.75,-524.19 817.47,-531.06 826.74,-534.64 833.91,-541.90 863.45,-549.18 873.37,-546.66 894.75,-552.16 911.07,-556.37 914.95,-558.53 930.77,-562.41 1011.65,-582.22 1029.99,-587.70" fill="none" stroke="#bcbcbc" stroke-width="8" stroke-linecap="round" stroke-linejoin="round" /><polyline points="53.69,205.67 91.85,191.81 104.61,187.91 117.46,183.99 141.17,176.75 159.62,174.09 222.62,167.20 235.27,166.51 291.64,166.99 325.98,167.28 338.89,166.62 359.58,168.72 366.04,169.64 379.23,171.53 419.05,180.27" fill="none" stroke="#bcbcbc" stroke-width="8" stroke-linecap="round" stroke-linejoin="round" /><polyline points="235.48,-926.97 229.16,-948.34 205.69,-1027.71 177.17,-1118.22 171.28,-1134.37 165.30,-1149.52 157.74,-1171.34" fill="none" stroke="#bcbcbc" stroke-width="8" stroke-linecap="round" stroke-linejoin="round" /><polyline points="235.27,166.51 245.32,31.85 246.32,20.87 247.86,8.09 247.88,7.52 248.54,-8.10 251.89,-50.49 253.78,-70.23 256.37,-92.66 258.72,-108.80 260.83,-118.95 263.49,-126.61 268.71,-143.88 279.48,-179.83 293.18,-226.24 308.29,-273.70 311.37,-283.38 313.84,-290.40" fill="none" stroke="#bcbcbc" stroke-width="8" stroke-linecap="round" stroke-linejoin="round" /><polyline points="-92.83,-110.80 -95.50,-98.86 -95.04,-95.05 -78.68,41.17 -76.94,55.60 -77.70,70.44 -81.98,155.17 -83.77,190.56 -84.70,208.82 -86.34,241.36 -87.20,258.31 -89.06,265.04" fill="none" stroke="#bcbcbc" stroke-width="8" stroke-linecap="round" stroke-linejoin="round" /><polyline points="-169.30,-366.15 -228.79,-383.83 -236.36,-388.68 -273.38,-399.47 -283.79,-399.36 -330.31,-413.37 -337.83,-418.92 -380.16,-431.75 -432.11,-445.91 -432.36,-445.93 -440.98,-446.67" fill="none" stroke="#bcbcbc" stroke-width="8" stroke-linecap="round" stroke-linejoin="round" /><polyline points="914.95,-558.53 917.02,-555.82 925.64,-542.96 941.59,-519.19 956.61,-504.16 985.47,-471.76 980.59,-441.82 978.11,-430.60 974.67,-425.85 981.90,-415.14 993.10,-392.11 1015.47,-348.96 1026.49,-327.70 1033.34,-308.61 1036.43,-299.74" fill="none" stroke="#bcbcbc" stroke-width="8" stroke-linecap="round" stroke-linejoin="round" /><polyline points="1065.63,-496.87 1057.34,-494.29 1002.70,-477.30 994.87,-474.78 985.47,-471.76" fill="none" stroke="#bcbcbc" stroke-width="8" stroke-linecap="round" stroke-linejoin="round" /><polyline points="673.01,-393.39 690.10,-398.93 814.11,-462.24 830.71,-470.35 889.16,-487.23 945.84,-503.17 956.61,-504.16" fill="none" stroke="#bcbcbc" stroke-width="8" stroke-linecap="round" stroke-linejoin="round" /><polyline points="686.53,-315.00 829.50,-381.53 835.52,-385.51 849.50,-389.58 944.77,-417.29 959.22,-422.83 974.67,-425.85" fill="none" stroke="#bcbcbc" stroke-width="8" stroke-linecap="round" stroke-linejoin="round" /><polyline points="657.35,-1709.69 715.23,-1702.54 721.04,-1701.82 743.48,-1696.31" fill="none" stroke="#bcbcbc" stroke-width="8" stroke-linecap="round" stroke-linejoin="round" /><polyline points="1151.93,-1121.34 1162.19,-1123.48 1200.54,-1104.69 1205.59,-1099.69 1277.58,-977.84 1279.48,-963.07 1288.84,-955.27 1287.35,-949.88 1287.12,-941.10 1288.42,-928.82 1307.49,-850.47 1309.17,-796.20 1311.85,-709.55 1316.33,-592.92 1298.07,-542.10 1286.31,-511.12 1269.14,-467.46 1264.17,-454.83 1260.94,-451.30 1255.75,-417.51" fill="none" stroke="#bcbcbc" stroke-width="8" stroke-linecap="round" stroke-linejoin="round" /><polyline points="1285.03,-211.69 1267.51,-219.31 1223.76,-249.84 1166.04,-290.40 1134.29,-316.07 1112.87,-339.00" fill="none" stroke="#bcbcbc" stroke-width="8" stroke-linecap="round" stroke-linejoin="round" /><polyline points="576.65,471.16 559.45,465.71 531.55,456.87 518.24,452.65 502.60,447.69 482.83,441.42 464.97,435.76 447.31,430.16 368.55,405.17 354.75,400.79 337.62,395.37 333.84,394.17 288.79,382.27 276.07,379.19 260.13,375.33 243.44,371.29 183.32,356.71 167.20,352.80 149.87,346.79 113.67,334.22 100.03,329.48 87.83,325.52 31.14,305.36 24.00,301.11 20.57,293.71" fill="none" stroke="#bcbcbc" stroke-width="8" stroke-linecap="round" stroke-linejoin="round" /><polyline points="835.52,-385.51 831.34,-400.47 818.90,-445.09 814.11,-462.24 807.20,-475.07 806.55,-477.45 802.48,-492.55 807.22,-499.24 801.52,-518.28 799.75,-524.19" fill="none" stroke="#bcbcbc" stroke-width="8" stroke-linecap="round" stroke-linejoin="round" /><polyline points="814.71,-931.46 826.54,-937.03 891.17,-972.66 928.12,-996.42 954.18,-1014.20 959.93,-1018.48 980.90,-1033.06 1002.64,-1049.11 1016.40,-1059.12 1032.80,-1071.12 1089.83,-1096.85 1097.22,-1096.46 1108.03,-1101.57 1151.93,-1121.34" fill="none" stroke="#bcbcbc" stroke-width="8" stroke-linecap="round" stroke-linejoin="round" /><polyline points="98.30,-688.56 107.63,-684.78 113.79,-682.89 229.37,-647.39 247.03,-641.97" fill="none" stroke="#bcbcbc" stroke-width="8" stroke-linecap="round" stroke-linejoin="round" /><polyline points="-727.30,-428.66 -809.88,-453.65" fill="none" stroke="#bcbcbc" stroke-width="8" stroke-linecap="round" stroke-linejoin="round" /><polyline points="606.60,-1593.06 627.07,-1567.13 630.13,-1563.26 640.46,-1550.17 652.24,-1548.78 676.46,-1545.94 680.76,-1542.97" fill="none" stroke="#bcbcbc" stroke-width="8" stroke-linecap="round" stroke-linejoin="round" /><polyline points="1317.58,-439.53 1285.14,-433.48 1251.87,-415.41 1221.03,-398.24 1191.86,-383.66 1156.62,-364.52 1131.10,-349.03 1080.67,-321.99 883.80,-222.95 832.76,-200.47 799.03,-185.89 782.32,-180.42 768.50,-177.84 745.87,-176.47 713.66,-181.03 633.30,-200.32 519.22,-226.90 369.14,-272.17 313.84,-290.40 223.31,-318.35 136.72,-346.90 9.72,-396.72 -53.77,-424.07 -130.33,-458.09 -257.33,-527.66 -287.10,-547.40 -362.45,-594.79 -394.04,-626.39 -441.44,-687.75 -519.52,-768.25 -550.20,-795.29" fill="none" stroke="#bcbcbc" stroke-width="8" stroke-linecap="round" stroke-linejoin="round" /><polyline points="701.99,510.78 703.32,503.36 708.12,491.24 753.16,385.87 770.17,346.38 790.22,297.16 795.11,279.15" fill="none" stroke="#bcbcbc" stroke-width="8" stroke-linecap="round" stroke-linejoin="round" /><polyline points="-161.95,65.93 -213.10,41.17 -329.51,-15.16 -472.29,-84.26 -485.03,-90.43" fill="none" stroke="#bcbcbc" stroke-width="8" stroke-linecap="round" stroke-linejoin="round" /><polyline points="678.80,-749.48 691.72,-762.71 726.06,-797.86 753.32,-827.62" fill="none" stroke="#bcbcbc" stroke-width="8" stroke-linecap="round" stroke-linejoin="round" /><polyline points="-312.96,-671.16 -327.15,-689.94 -393.65,-777.98 -488.58,-854.79" fill="none" stroke="#bcbcbc" stroke-width="8" stroke-linecap="round" stroke-linejoin="round" /><polyline points="-724.91,487.78 -711.93,457.00 -670.66,354.11 -665.65,340.61 -660.10,325.63 -658.00,320.22 -657.44,311.76 -652.16,231.77 -650.64,208.82" fill="none" stroke="#bcbcbc" stroke-width="8" stroke-linecap="round" stroke-linejoin="round" /><polyline points="-753.07,-339.30 -727.30,-428.66 -693.31,-546.52 -689.10,-561.11 -684.42,-577.68 -673.94,-614.79 -672.84,-618.69 -669.85,-630.62 -665.06,-644.11 -663.90,-647.37 -657.86,-662.35 -646.00,-688.52 -642.45,-696.03" fill="none" stroke="#bcbcbc" stroke-width="8" stroke-linecap="round" stroke-linejoin="round" /><polyline points="-689.10,-561.11 -636.96,-547.77 -526.53,-519.39 -463.61,-499.80 -437.36,-493.65" fill="none" stroke="#bcbcbc" stroke-width="8" stroke-linecap="round" stroke-linejoin="round" /><polyline points="384.07,-966.56 385.85,-977.41 387.63,-988.67 395.28,-1026.35 414.39,-1114.05 430.08,-1192.50 432.95,-1208.78 436.85,-1230.88 436.85,-1230.90" fill="none" stroke="#bcbcbc" stroke-width="8" stroke-linecap="round" stroke-linejoin="round" /><polyline points="229.71,722.23 252.99,662.86 255.88,652.19 348.26,417.71 354.75,400.79 360.00,386.44 415.20,225.86 425.83,216.58" fill="none" stroke="#bcbcbc" stroke-width="8" stroke-linecap="round" stroke-linejoin="round" /><polyline points="546.37,-1011.96 546.37,-1011.98 543.10,-1029.15 542.58,-1031.23 534.60,-1063.69 534.61,-1063.79 529.17,-1085.79 506.11,-1164.79 503.21,-1173.25 487.64,-1215.57 482.58,-1228.20 479.32,-1236.35 475.08,-1245.61 475.07,-1245.62 475.07,-1245.66 471.98,-1279.69 471.68,-1296.39" fill="none" stroke="#bcbcbc" stroke-width="8" stroke-linecap="round" stroke-linejoin="round" /><polyline points="511.82,328.36 505.89,334.76 497.06,345.27 472.17,415.44 464.97,435.76" fill="none" stroke="#bcbcbc" stroke-width="8" stroke-linecap="round" stroke-linejoin="round" /><polyline points="98.30,-688.56 101.70,-697.77 102.47,-699.91 118.63,-745.05 124.69,-764.07 174.23,-909.71" fill="none" stroke="#bcbcbc" stroke-width="8" stroke-linecap="round" stroke-linejoin="round" /><polyline points="354.54,-484.38 359.60,-497.80 373.29,-534.16 379.07,-549.53 382.99,-559.93 393.97,-589.11 401.23,-608.38 402.21,-610.97 419.79,-657.66 427.13,-655.38 431.12,-666.22 438.16,-685.40 436.81,-694.11 455.51,-745.01 457.43,-750.24 460.98,-753.50 463.96,-756.24 482.71,-807.50 485.42,-821.53 512.33,-896.28 518.69,-901.26 531.64,-937.88 529.34,-943.50 540.67,-977.70 534.79,-1008.23" fill="none" stroke="#bcbcbc" stroke-width="8" stroke-linecap="round" stroke-linejoin="round" /><polyline points="835.84,-1874.79 828.30,-1887.16 788.69,-1952.14" fill="none" stroke="#bcbcbc" stroke-width="8" stroke-linecap="round" stroke-linejoin="round" /><polyline points="959.93,-1018.48 1141.74,-901.59 1141.79,-901.51 1141.79,-901.49 1175.41,-897.12" fill="none" stroke="#bcbcbc" stroke-width="8" stroke-linecap="round" stroke-linejoin="round" /><polyline points="887.02,-1262.68 1080.46,-1165.59 1086.30,-1161.24 1085.90,-1129.46 1089.83,-1096.85" fill="none" stroke="#bcbcbc" stroke-width="8" stroke-linecap="round" stroke-linejoin="round" /><polyline points="518.24,452.65 511.28,473.87 483.09,559.82 435.15,704.56 431.75,714.83 428.31,725.24 427.35,736.32" fill="none" stroke="#bcbcbc" stroke-width="8" stroke-linecap="round" stroke-linejoin="round" /><polyline points="1062.78,-69.47 1063.94,-80.25 1064.19,-90.31 1064.11,-90.66 1057.25,-120.29 1054.44,-132.67 1053.08,-138.64 1051.70,-144.74 1044.17,-177.89 1029.48,-244.13 1018.79,-283.95 1017.28,-290.10" fill="none" stroke="#bcbcbc" stroke-width="8" stroke-linecap="round" stroke-linejoin="round" /><polyline points="102.43,536.87 107.22,523.25 161.08,370.18 167.20,352.80" fill="none" stroke="#bcbcbc" stroke-width="8" stroke-linecap="round" stroke-linejoin="round" /><polyline points="1311.85,-709.55 1296.00,-714.02 1188.38,-879.15 1175.41,-897.12" fill="none" stroke="#bcbcbc" stroke-width="8" stroke-linecap="round" stroke-linejoin="round" /><polyline points="-457.32,-313.34 -65.10,-219.38 -38.05,-209.51" fill="none" stroke="#bcbcbc" stroke-width="8" stroke-linecap="round" stroke-linejoin="round" /><polyline points="779.76,-1781.47 932.55,-1724.88 954.06,-1728.55" fill="none" stroke="#bcbcbc" stroke-width="8" stroke-linecap="round" stroke-linejoin="round" />
    <polyline points="167.20,352.80 172.21,336.96 222.94,177.04 222.62,167.20" fill="none" stroke="#ffffff" stroke-width="16" stroke-linecap="round" stroke-linejoin="round" />
    <polyline points="167.20,352.80 172.21,336.96 222.94,177.04 222.62,167.20" fill="none" stroke="#111111" stroke-width="9" stroke-linecap="round" stroke-linejoin="round" />
    
            <g transform="translate(167.20,352.80)">
              <circle r="19" fill="#ffffff" stroke="#111111" stroke-width="4" />
              <text text-anchor="middle" dominant-baseline="central" font-family="Helvetica, Arial, sans-serif"
                font-size="18" font-weight="700" fill="#111111">1</text>
            </g>
            
            <g transform="translate(222.62,167.20)">
              <circle r="19" fill="#ffffff" stroke="#111111" stroke-width="4" />
              <text text-anchor="middle" dominant-baseline="central" font-family="Helvetica, Arial, sans-serif"
                font-size="18" font-weight="700" fill="#111111">2</text>
            </g>
            
  </g>
</svg>
