<svg xmlns="http://www.w3.org/2000/svg" width="520" height="520" viewBox="0 0 520 520">
  <rect width="100%" height="100%" fill="#ffffff" />
  <g>
    <polyline points="539.54,-170.34 541.02,-162.49 550.53,-95.91 549.08,-79.26" fill="none" stroke="#bcbcbc" stroke-width="8" stroke-linecap="round" stroke-linejoin="round" /><polyline points="346.06,384.55 348.36,377.47 360.56,339.97 362.00,335.56 363.45,330.92 394.11,233.15 396.58,225.28 390.93,211.37" fill="none" stroke="#bcbcbc" stroke-width="8" stroke-linecap="round" stroke-linejoin="round" /><polyline points="134.28,297.59 133.78,291.97 143.80,235.83 145.21,228.81 146.26,225.13 149.02,210.89 152.12,193.47 155.50,178.12 158.85,162.81 160.96,158.49 162.34,155.85" fill="none" stroke="#bcbcbc" stroke-width="8" stroke-linecap="round" stroke-linejoin="round" /><polyline points="192.46,-98.42 190.08,-105.68 165.44,-180.81 164.24,-183.96" fill="none" stroke="#bcbcbc" stroke-width="8" stroke-linecap="round" stroke-linejoin="round" /><polyline points="66.06,562.78 66.80,555.61 67.09,552.32 69.78,522.66 72.71,496.54 73.40,490.44 74.03,483.12 74.10,482.51 75.77,467.96 77.20,453.18 78.78,438.91 79.85,427.80 80.29,420.94 80.69,414.61 81.38,407.48" fill="none" stroke="#bcbcbc" stroke-width="8" stroke-linecap="round" stroke-linejoin="round" /><polyline points="406.43,401.98 408.19,396.46 420.55,357.61 421.96,353.19 423.95,346.90 425.38,342.40 436.32,295.21" fill="none" stroke="#bcbcbc" stroke-width="8" stroke-linecap="round" stroke-linejoin="round" /><polyline points="358.39,-366.61 362.95,-365.91 488.74,-346.58" fill="none" stroke="#bcbcbc" stroke-width="8" stroke-linecap="round" stroke-linejoin="round" /><polyline points="35.46,392.82 22.37,392.21 14.38,391.84 10.05,391.64 6.24,391.46 -23.41,390.08 -64.65,388.17 -84.30,385.38 -90.88,384.45 -96.59,383.44 -135.25,376.62 -140.65,375.66 -141.85,375.46 -148.52,374.31 -153.65,373.43 -186.41,370.54 -192.65,369.99 -194.94,369.79 -202.02,369.29 -215.89,368.33" fill="none" stroke="#bcbcbc" stroke-width="8" stroke-linecap="round" stroke-linejoin="round" /><polyline points="225.67,354.84 228.21,347.62 251.06,284.28 278.55,204.38 280.31,199.37 281.54,195.87 282.54,192.99" fill="none" stroke="#bcbcbc" stroke-width="8" stroke-linecap="round" stroke-linejoin="round" /><polyline points="-194.94,369.79 -195.52,365.71 -195.66,361.29 -194.80,352.38 -192.81,336.12 -191.48,330.66 -189.32,310.92 -188.93,306.52 -188.30,300.87 -187.83,296.67 -186.95,291.91 -185.31,279.11 -184.18,269.32 -182.51,265.31" fill="none" stroke="#bcbcbc" stroke-width="8" stroke-linecap="round" stroke-linejoin="round" /><polyline points="-218.33,260.31 -187.85,264.57 -182.51,265.31 -179.20,265.84 -165.53,268.02 -134.05,273.03 -128.65,273.93" fill="none" stroke="#bcbcbc" stroke-width="8" stroke-linecap="round" stroke-linejoin="round" /><polyline points="342.64,-139.54 342.84,-136.77 343.25,-133.97 344.24,-131.82 346.09,-129.42 349.52,-126.30 357.65,-121.36 420.32,-82.04 458.92,-30.30 488.07,41.65 489.97,46.40" fill="none" stroke="#bcbcbc" stroke-width="8" stroke-linecap="round" stroke-linejoin="round" /><polyline points="332.61,70.39 333.91,72.54 334.24,73.10 335.32,78.52 342.67,114.08 345.01,125.36 346.68,133.40 349.28,149.69 350.50,157.21 351.33,161.79 352.25,165.93 353.35,168.35 354.96,171.14 355.82,172.46 372.10,195.77 380.91,209.64 383.21,212.96" fill="none" stroke="#bcbcbc" stroke-width="8" stroke-linecap="round" stroke-linejoin="round" /><polyline points="-134.88,515.58 -134.01,510.24 -133.20,506.38 -132.99,505.87 -122.15,480.10 -115.24,463.35 -113.15,458.05 -110.92,452.42 -108.51,447.59 -108.12,446.65 -104.81,438.66 -102.26,431.59 -100.07,425.11 -98.68,420.52 -97.12,414.86 -95.32,407.27 -93.95,401.11 -92.32,392.51 -91.98,390.60 -90.88,384.45" fill="none" stroke="#bcbcbc" stroke-width="8" stroke-linecap="round" stroke-linejoin="round" /><polyline points="390.25,-204.07 424.81,-179.93 429.46,-178.94 432.87,-175.04" fill="none" stroke="#bcbcbc" stroke-width="8" stroke-linecap="round" stroke-linejoin="round" /><polyline points="245.13,18.94 249.70,20.70 269.53,27.18 315.53,44.82 318.11,47.39 319.32,49.31" fill="none" stroke="#bcbcbc" stroke-width="8" stroke-linecap="round" stroke-linejoin="round" /><polyline points="330.85,472.19 333.98,464.03 349.44,422.08 360.38,390.38 362.64,389.34" fill="none" stroke="#bcbcbc" stroke-width="8" stroke-linecap="round" stroke-linejoin="round" /><polyline points="112.26,419.00 114.70,413.61 114.95,413.07 119.12,399.07 125.96,376.02 127.71,370.12 129.07,365.54 129.25,362.87 128.98,356.96" fill="none" stroke="#bcbcbc" stroke-width="8" stroke-linecap="round" stroke-linejoin="round" /><polyline points="396.49,72.23 392.57,73.04 383.68,71.46 382.31,67.79 366.91,61.93 363.27,62.88 349.38,57.78 347.31,59.22" fill="none" stroke="#bcbcbc" stroke-width="8" stroke-linecap="round" stroke-linejoin="round" /><polyline points="373.63,-403.90 380.61,-402.19 384.46,-401.52 476.22,-385.61" fill="none" stroke="#bcbcbc" stroke-width="8" stroke-linecap="round" stroke-linejoin="round" /><polyline points="302.31,446.65 306.13,435.89 313.55,414.97 318.34,406.06 325.24,386.75 327.99,379.05" fill="none" stroke="#bcbcbc" stroke-width="8" stroke-linecap="round" stroke-linejoin="round" /><polyline points="-200.45,29.00 -207.10,28.69 -208.77,30.72 -220.34,44.78 -260.82,91.53 -266.51,98.11" fill="none" stroke="#bcbcbc" stroke-width="8" stroke-linecap="round" stroke-linejoin="round" /><polyline points="154.56,69.04 151.62,75.53 151.27,76.32 141.07,102.90 130.80,132.16 128.06,139.96 126.51,143.99" fill="none" stroke="#bcbcbc" stroke-width="8" stroke-linecap="round" stroke-linejoin="round" /><polyline points="304.07,-229.60 307.31,-225.21 309.62,-219.17 313.22,-210.50 318.99,-196.86 324.11,-184.62 329.98,-171.18 334.33,-160.82 334.98,-159.33 335.02,-159.24 338.52,-151.05 339.57,-148.72 340.57,-146.50 341.62,-144.42 342.41,-142.31 342.64,-139.54" fill="none" stroke="#bcbcbc" stroke-width="8" stroke-linecap="round" stroke-linejoin="round" /><polyline points="56.18,200.06 57.87,199.13 60.24,197.25 61.43,194.80 77.18,135.09 77.65,131.73 79.57,125.57" fill="none" stroke="#bcbcbc" stroke-width="8" stroke-linecap="round" stroke-linejoin="round" /><polyline points="606.83,106.62 609.06,113.71 610.63,121.16 607.57,149.54 604.03,170.88 602.10,178.17 601.93,178.83 600.23,182.76 597.93,186.92 592.54,193.74 595.15,207.06 586.71,235.66 582.05,251.45 572.51,277.30 558.55,308.78 541.51,338.94 536.18,348.74 526.56,364.85 488.10,419.42 479.68,430.78 447.05,473.41 428.32,494.72 402.12,521.35 399.69,521.60 393.77,526.44" fill="none" stroke="#bcbcbc" stroke-width="8" stroke-linecap="round" stroke-linejoin="round" /><polyline points="132.32,573.46 143.05,540.17 144.81,534.67 147.19,531.21 152.32,515.83 153.99,510.60 175.17,444.30 177.30,437.63 179.05,431.77 204.04,353.12" fill="none" stroke="#bcbcbc" stroke-width="8" stroke-linecap="round" stroke-linejoin="round" /><polyline points="383.79,-45.67 393.07,-55.80 395.81,-59.10 414.56,-85.66" fill="none" stroke="#bcbcbc" stroke-width="8" stroke-linecap="round" stroke-linejoin="round" /><polyline points="198.31,-41.65 223.86,-32.75 225.28,-30.46 232.53,-28.03 236.84,-26.55 257.44,-19.59" fill="none" stroke="#bcbcbc" stroke-width="8" stroke-linecap="round" stroke-linejoin="round" /><polyline points="421.05,-218.48 432.87,-175.04 446.56,-123.86 448.63,-119.60 448.96,-114.73 458.24,-97.40 483.28,-50.71 488.75,-42.63 490.34,-40.27 527.75,29.67 544.95,45.30 547.36,48.42 550.76,51.33 583.41,79.24 585.62,81.13 591.48,84.25" fill="none" stroke="#bcbcbc" stroke-width="8" stroke-linecap="round" stroke-linejoin="round" /><polyline points="294.08,580.53 375.50,533.24 389.99,525.83 393.77,526.44" fill="none" stroke="#bcbcbc" stroke-width="8" stroke-linecap="round" stroke-linejoin="round" /><polyline points="382.36,512.87 387.41,506.87 432.76,416.38 435.77,410.45 438.28,404.57 452.93,368.35 457.29,357.43 469.91,319.22 478.10,270.10 479.07,262.95" fill="none" stroke="#bcbcbc" stroke-width="8" stroke-linecap="round" stroke-linejoin="round" /><polyline points="347.36,-19.29 346.57,-18.47 345.47,-14.66 345.36,-14.29 340.44,4.66 341.73,9.61 340.66,14.05 339.25,19.85 335.65,24.03 331.57,40.58 326.75,44.22 321.61,47.74 319.32,49.31" fill="none" stroke="#bcbcbc" stroke-width="8" stroke-linecap="round" stroke-linejoin="round" /><polyline points="154.56,69.04 156.65,63.67 169.23,31.42 171.97,24.39 174.24,18.60 190.31,-22.59 197.55,-39.81 198.31,-41.65 203.94,-55.25 216.56,-86.58 221.18,-99.92 222.21,-102.98 223.59,-106.45" fill="none" stroke="#bcbcbc" stroke-width="8" stroke-linecap="round" stroke-linejoin="round" /><polyline points="295.35,-126.47 297.78,-119.23 377.63,-51.03 421.20,-13.12 486.28,43.45 491.96,47.99 494.50,49.58 505.80,59.83 520.88,72.70 555.09,101.86 566.13,111.36 573.47,120.13" fill="none" stroke="#bcbcbc" stroke-width="8" stroke-linecap="round" stroke-linejoin="round" /><polyline points="427.37,-243.99 431.42,-246.59 455.41,-256.56 460.34,-261.74" fill="none" stroke="#bcbcbc" stroke-width="8" stroke-linecap="round" stroke-linejoin="round" /><polyline points="455.08,362.95 421.96,353.19 362.00,335.56" fill="none" stroke="#bcbcbc" stroke-width="8" stroke-linecap="round" stroke-linejoin="round" /><polyline points="348.15,-341.61 352.68,-338.49 500.12,-305.68" fill="none" stroke="#bcbcbc" stroke-width="8" stroke-linecap="round" stroke-linejoin="round" /><polyline points="530.28,143.81 522.66,126.86 505.75,86.53 504.49,83.33 501.59,75.96 490.69,48.23 490.01,46.43" fill="none" stroke="#bcbcbc" stroke-width="8" stroke-linecap="round" stroke-linejoin="round" /><polyline points="304.07,-229.60 295.89,-231.93 289.87,-233.72 277.64,-237.35 271.43,-239.13 267.87,-240.11 263.23,-241.45" fill="none" stroke="#bcbcbc" stroke-width="8" stroke-linecap="round" stroke-linejoin="round" /><polyline points="90.64,-7.79 90.23,-9.14 89.84,-10.09 88.16,-14.29 81.62,-29.52 75.41,-45.00 74.07,-48.65 72.52,-52.86 71.42,-56.31 69.59,-61.47 69.40,-62.01 63.46,-76.66 52.55,-104.18 50.10,-105.58 48.36,-110.05 44.88,-122.13 38.92,-137.12 37.63,-140.52" fill="none" stroke="#bcbcbc" stroke-width="8" stroke-linecap="round" stroke-linejoin="round" /><polyline points="143.05,540.17 149.25,542.07 169.29,548.18 175.57,550.09" fill="none" stroke="#bcbcbc" stroke-width="8" stroke-linecap="round" stroke-linejoin="round" /><polyline points="517.40,-236.78 518.57,-241.50 518.09,-243.30 517.52,-245.46 513.86,-258.87 505.70,-287.21 501.39,-301.70 500.12,-305.68 488.74,-346.58 482.60,-368.65 476.22,-385.61 470.47,-400.91 464.74,-411.44 459.17,-417.00 416.41,-469.24 413.24,-472.96 411.15,-476.40" fill="none" stroke="#bcbcbc" stroke-width="8" stroke-linecap="round" stroke-linejoin="round" /><polyline points="342.64,-139.54 340.44,-138.70 336.36,-137.58 335.95,-137.46 318.92,-133.11 299.34,-127.60 295.35,-126.47 293.57,-125.91 288.86,-124.39 284.84,-123.27 267.28,-118.39 238.41,-110.19 227.64,-107.47 223.59,-106.45 204.35,-101.73 192.46,-98.42 167.29,-91.38 142.40,-84.37 139.52,-83.57 118.73,-77.80 109.14,-75.14 104.29,-72.85 95.12,-68.31 76.91,-59.06 75.65,-58.42 71.42,-56.31 68.84,-55.01 65.24,-53.13 52.45,-46.42 29.14,-33.34 9.66,-23.14 6.88,-21.68 3.16,-21.45 0.92,-20.26 0.48,-20.03 -20.65,-8.45 -25.07,-8.47 -30.15,-5.81 -31.92,-4.89 -33.42,-4.10 -36.95,-2.25 -39.73,4.09 -51.69,10.49 -55.49,12.53 -59.60,14.77 -76.24,23.82 -84.84,28.50 -89.17,29.75" fill="none" stroke="#bcbcbc" stroke-width="8" stroke-linecap="round" stroke-linejoin="round" /><polyline points="582.05,251.45 573.17,252.26 545.44,254.80 544.19,254.92 542.43,255.08 539.56,255.34 512.68,257.81 503.33,256.94 492.44,259.67 483.72,261.81 479.07,262.95 467.53,263.39 457.54,262.88 452.45,262.34 448.11,261.03 444.92,259.26 433.03,250.86 404.15,231.02 401.42,229.17 398.65,227.29 396.58,225.28" fill="none" stroke="#bcbcbc" stroke-width="8" stroke-linecap="round" stroke-linejoin="round" /><polyline points="-72.17,-83.47 -61.68,-62.96 -60.10,-57.09 -51.27,-40.25 -47.62,-35.43 -32.87,-6.72 -31.92,-4.89" fill="none" stroke="#bcbcbc" stroke-width="8" stroke-linecap="round" stroke-linejoin="round" /><polyline points="249.03,98.99 247.46,103.31 247.01,104.65 244.97,110.85 232.00,147.03 225.57,164.99 225.35,165.60 222.76,171.19 221.28,174.51" fill="none" stroke="#bcbcbc" stroke-width="8" stroke-linecap="round" stroke-linejoin="round" /><polyline points="421.05,-218.48 419.61,-221.56 415.84,-222.06 403.61,-219.25 401.13,-219.58 399.18,-222.19 395.73,-238.09 414.46,-240.99 423.13,-243.55 427.37,-243.99 431.94,-227.75" fill="none" stroke="#bcbcbc" stroke-width="8" stroke-linecap="round" stroke-linejoin="round" /><polyline points="488.75,-42.63 493.58,-45.34 517.81,-59.95 524.29,-63.80 535.63,-70.56 554.28,-82.62 558.63,-85.75 591.35,-106.05" fill="none" stroke="#bcbcbc" stroke-width="8" stroke-linecap="round" stroke-linejoin="round" /><polyline points="603.12,53.23 594.84,50.76 590.04,46.82 571.66,30.92 571.03,30.36 566.59,26.39 563.98,21.76 517.81,-59.95" fill="none" stroke="#bcbcbc" stroke-width="8" stroke-linecap="round" stroke-linejoin="round" /><polyline points="82.12,46.75 154.56,69.04 160.47,70.91 214.52,88.04 215.65,88.40 223.74,90.97 227.73,92.23 232.90,93.65 243.57,97.26 249.03,98.99 253.94,100.55 294.16,113.31 336.63,126.65 340.14,127.75 345.01,125.36" fill="none" stroke="#bcbcbc" stroke-width="8" stroke-linecap="round" stroke-linejoin="round" /><polyline points="295.10,-310.82 326.47,-339.65 331.78,-344.53" fill="none" stroke="#bcbcbc" stroke-width="8" stroke-linecap="round" stroke-linejoin="round" /><polyline points="-230.30,154.34 -115.17,166.68" fill="none" stroke="#bcbcbc" stroke-width="8" stroke-linecap="round" stroke-linejoin="round" /><polyline points="117.01,-166.98 141.21,-175.63 166.17,-184.66 181.67,-190.68 229.02,-207.90 242.77,-212.66 245.64,-213.65 249.08,-214.83 252.94,-216.16 253.41,-216.33 261.21,-219.46 264.61,-220.82" fill="none" stroke="#bcbcbc" stroke-width="8" stroke-linecap="round" stroke-linejoin="round" /><polyline points="279.53,418.54 302.31,446.65 316.26,460.69 322.30,465.03 330.85,472.19 338.87,478.93 345.77,485.66 345.94,489.09" fill="none" stroke="#bcbcbc" stroke-width="8" stroke-linecap="round" stroke-linejoin="round" /><polyline points="304.07,-229.60 313.00,-251.98 327.45,-288.82 348.15,-341.61 358.39,-366.61 373.63,-403.90 386.13,-434.44 388.37,-438.49 399.36,-456.46 400.07,-457.63 404.09,-465.54 411.15,-476.40 415.09,-482.46 420.66,-491.04" fill="none" stroke="#bcbcbc" stroke-width="8" stroke-linecap="round" stroke-linejoin="round" /><polyline points="93.44,368.71 91.98,369.88 91.01,371.27 89.04,377.07 87.68,381.27 81.39,400.07 80.53,402.79 79.99,404.47 74.21,402.82 60.16,398.10 46.23,393.43 35.46,392.82" fill="none" stroke="#bcbcbc" stroke-width="8" stroke-linecap="round" stroke-linejoin="round" /><polyline points="-181.86,499.59 -158.90,440.30 -156.35,433.85 -154.06,427.63 -151.29,420.12 -147.89,408.31 -144.35,393.62 -142.90,383.10 -141.85,375.46 -140.36,369.82 -134.96,327.43 -128.65,273.93 -125.38,248.43 -121.74,218.47 -115.17,166.68 -114.13,157.88 -107.49,103.72 -107.49,100.70 -106.02,84.63 -101.79,50.69 -100.72,44.77 -99.62,41.45 -97.89,37.79 -96.20,34.95 -92.49,30.93 -89.16,29.79" fill="none" stroke="#bcbcbc" stroke-width="8" stroke-linecap="round" stroke-linejoin="round" /><polyline points="319.32,49.31 320.57,51.30 324.79,57.88 331.09,67.98 332.61,70.39 335.12,68.48 347.31,59.22" fill="none" stroke="#bcbcbc" stroke-width="8" stroke-linecap="round" stroke-linejoin="round" /><polyline points="327.45,-288.82 451.49,-266.40 464.52,-259.54 513.12,-235.45 517.40,-236.78" fill="none" stroke="#bcbcbc" stroke-width="8" stroke-linecap="round" stroke-linejoin="round" /><polyline points="90.64,-7.79 88.44,-4.58 68.65,5.08 54.12,23.55 38.43,33.26 27.71,41.36 17.47,49.71 12.23,54.49 2.96,66.24 -7.40,81.10 -9.11,83.85" fill="none" stroke="#bcbcbc" stroke-width="8" stroke-linecap="round" stroke-linejoin="round" /><polyline points="111.56,5.46 110.70,7.37 108.83,10.11 105.28,14.47 84.38,40.88 73.32,70.66 17.50,49.68" fill="none" stroke="#bcbcbc" stroke-width="8" stroke-linecap="round" stroke-linejoin="round" /><polyline points="27.71,41.36 25.54,34.82 16.20,6.54 12.58,0.95 6.51,-17.26 5.98,-18.83 6.88,-21.68 5.42,-26.32 -23.76,-119.51" fill="none" stroke="#bcbcbc" stroke-width="8" stroke-linecap="round" stroke-linejoin="round" /><polyline points="369.71,-467.12 392.78,-466.51 393.86,-466.48 398.28,-466.35 404.09,-465.54" fill="none" stroke="#bcbcbc" stroke-width="8" stroke-linecap="round" stroke-linejoin="round" /><polyline points="251.06,284.28 243.19,284.18 176.49,293.13 171.69,293.64 166.19,294.22 134.28,297.59 91.28,302.13 68.48,304.53 55.87,305.86 45.64,307.11 40.38,307.75 34.46,308.47 5.85,311.94 -1.00,312.78 -22.13,315.09 -134.96,327.43" fill="none" stroke="#bcbcbc" stroke-width="8" stroke-linecap="round" stroke-linejoin="round" /><polyline points="152.32,515.83 146.41,513.92 118.82,505.04 113.24,503.25 108.39,501.69 79.16,492.29 73.40,490.44 65.77,487.99 19.23,473.01 13.99,471.33" fill="none" stroke="#bcbcbc" stroke-width="8" stroke-linecap="round" stroke-linejoin="round" /><polyline points="267.71,-42.85 283.76,-37.85 342.46,-19.73 343.01,-19.56 347.36,-19.29" fill="none" stroke="#bcbcbc" stroke-width="8" stroke-linecap="round" stroke-linejoin="round" /><polyline points="432.87,-175.04 512.72,-173.64" fill="none" stroke="#bcbcbc" stroke-width="8" stroke-linecap="round" stroke-linejoin="round" /><polyline points="393.77,526.44 382.36,512.87 377.57,507.30 373.45,503.46 367.98,499.37 356.78,492.65 345.94,489.09 323.90,482.28 305.86,476.55 316.26,460.69" fill="none" stroke="#bcbcbc" stroke-width="8" stroke-linecap="round" stroke-linejoin="round" /><polyline points="279.53,418.54 263.64,398.93 260.61,395.19 244.60,373.14 240.98,366.41 241.85,358.39 246.68,358.34 258.58,360.63 276.70,364.12" fill="none" stroke="#bcbcbc" stroke-width="8" stroke-linecap="round" stroke-linejoin="round" /><polyline points="71.61,261.37 74.54,267.67 91.28,302.13 116.17,353.37 119.34,359.90" fill="none" stroke="#bcbcbc" stroke-width="8" stroke-linecap="round" stroke-linejoin="round" /><polyline points="-196.50,417.44 -190.51,419.88 -162.47,431.35 -156.35,433.85 -149.91,436.48 -116.89,449.98 -110.92,452.42" fill="none" stroke="#bcbcbc" stroke-width="8" stroke-linecap="round" stroke-linejoin="round" /><polyline points="85.39,210.28 143.80,235.83" fill="none" stroke="#bcbcbc" stroke-width="8" stroke-linecap="round" stroke-linejoin="round" /><polyline points="347.36,-19.29 356.26,-18.82 356.82,-18.31 360.82,-14.77 366.69,-9.53 367.77,-7.43 387.99,10.28 389.49,13.11 403.71,25.66 407.29,26.75 418.35,36.44 420.83,37.57 437.52,51.73 441.23,55.02 443.28,58.28" fill="none" stroke="#bcbcbc" stroke-width="8" stroke-linecap="round" stroke-linejoin="round" /><polyline points="-212.99,210.33 -121.74,218.47" fill="none" stroke="#bcbcbc" stroke-width="8" stroke-linecap="round" stroke-linejoin="round" /><polyline points="-9.25,550.09 -6.42,544.07 -5.70,541.39 -1.73,526.78 12.62,476.17 13.99,471.33 15.45,466.01 21.95,442.23 32.93,402.08 35.46,392.82" fill="none" stroke="#bcbcbc" stroke-width="8" stroke-linecap="round" stroke-linejoin="round" /><polyline points="71.61,261.37 85.39,210.28 56.18,200.06 48.53,204.57 45.04,207.23 42.46,210.72 40.64,215.33 33.93,240.15 39.35,242.91 44.82,244.24 56.93,247.39 65.99,250.28 71.61,261.37" fill="none" stroke="#bcbcbc" stroke-width="8" stroke-linecap="round" stroke-linejoin="round" /><polyline points="33.93,240.15 27.53,239.26 -121.74,218.47" fill="none" stroke="#bcbcbc" stroke-width="8" stroke-linecap="round" stroke-linejoin="round" /><polyline points="276.70,364.12 290.55,367.15 327.99,379.05 338.46,382.36 363.31,389.53 388.35,396.75 406.88,402.11 436.52,410.66 442.64,412.43 457.60,417.45 482.23,424.01 484.40,424.41" fill="none" stroke="#bcbcbc" stroke-width="8" stroke-linecap="round" stroke-linejoin="round" /><polyline points="294.27,580.42 289.21,581.69 283.75,596.91 275.28,594.51 236.77,581.38 232.13,580.39 221.82,579.66 175.18,579.84 164.90,578.53 141.68,574.98 132.32,573.46 65.89,562.75 40.17,558.65 -8.89,550.15 -16.81,548.58 -127.52,517.64 -134.50,515.68 -181.86,499.59 -193.51,495.45 -222.61,483.39 -239.20,477.12" fill="none" stroke="#bcbcbc" stroke-width="8" stroke-linecap="round" stroke-linejoin="round" /><polyline points="395.73,-238.09 390.93,-239.08 326.95,-231.51 304.07,-229.60" fill="none" stroke="#bcbcbc" stroke-width="8" stroke-linecap="round" stroke-linejoin="round" /><polyline points="276.70,364.12 278.94,360.37 292.37,325.89 307.37,273.75 311.20,262.52 313.25,259.46 327.73,212.97 328.45,207.42 329.00,203.79" fill="none" stroke="#bcbcbc" stroke-width="8" stroke-linecap="round" stroke-linejoin="round" /><polyline points="342.64,-139.54 344.17,-140.13 346.24,-141.77 349.39,-145.46 390.25,-204.07 401.13,-219.58" fill="none" stroke="#bcbcbc" stroke-width="8" stroke-linecap="round" stroke-linejoin="round" /><polyline points="524.48,75.79 525.31,73.38 545.85,49.22 547.36,48.42 550.93,43.54 562.87,29.81 566.59,26.39" fill="none" stroke="#bcbcbc" stroke-width="8" stroke-linecap="round" stroke-linejoin="round" /><polyline points="542.43,255.08 542.14,251.85 541.92,249.35 540.84,244.56 539.55,241.44 537.93,233.25 537.79,230.28 536.69,223.65 531.80,221.10 527.90,222.59 520.90,224.27 515.37,225.13 510.06,226.41 502.73,228.08 499.39,228.84" fill="none" stroke="#bcbcbc" stroke-width="8" stroke-linecap="round" stroke-linejoin="round" /><polyline points="2.87,136.43 17.80,101.42 18.63,99.14" fill="none" stroke="#bcbcbc" stroke-width="8" stroke-linecap="round" stroke-linejoin="round" /><polyline points="396.49,72.23 403.69,69.44 407.45,67.98 410.36,65.04 422.36,62.08 426.39,63.10 435.08,60.87 441.70,59.16 443.28,58.28 449.71,56.71 482.56,48.66 490.01,46.43" fill="none" stroke="#bcbcbc" stroke-width="8" stroke-linecap="round" stroke-linejoin="round" /><polyline points="93.44,368.71 108.94,363.08 114.12,361.49 119.34,359.90 128.98,356.96 136.47,355.88 162.06,353.08 167.20,352.80 190.10,353.00 204.04,353.12 209.29,352.85 217.69,353.70 220.32,354.07 225.67,354.84 241.85,358.39" fill="none" stroke="#bcbcbc" stroke-width="8" stroke-linecap="round" stroke-linejoin="round" /><polyline points="167.29,-91.38 164.72,-100.06 155.18,-132.31 143.60,-169.07 141.21,-175.63 138.78,-181.78 135.71,-190.65" fill="none" stroke="#bcbcbc" stroke-width="8" stroke-linecap="round" stroke-linejoin="round" /><polyline points="139.55,428.47 141.58,422.04 162.19,357.08 162.06,353.08" fill="none" stroke="#bcbcbc" stroke-width="8" stroke-linecap="round" stroke-linejoin="round" /><polyline points="33.93,240.15 32.84,245.00 33.03,246.55 39.67,301.89 40.38,307.75 40.07,313.78 38.33,348.19 37.60,362.57 37.23,369.99 36.56,383.21 36.21,390.09 35.46,392.82" fill="none" stroke="#bcbcbc" stroke-width="8" stroke-linecap="round" stroke-linejoin="round" /><polyline points="2.87,136.43 -21.30,129.25 -24.37,127.28 -39.41,122.89 -43.64,122.94 -62.54,117.24 -65.59,114.99 -82.79,109.78 -103.89,104.03 -103.99,104.02 -107.49,103.72" fill="none" stroke="#bcbcbc" stroke-width="8" stroke-linecap="round" stroke-linejoin="round" /><polyline points="443.28,58.28 444.12,59.38 447.62,64.60 454.10,74.26 460.20,80.37 471.92,93.53 469.94,105.69 468.94,110.25 467.54,112.18 470.48,116.53 475.02,125.88 484.11,143.41 488.59,152.04 491.37,159.80 492.62,163.41" fill="none" stroke="#bcbcbc" stroke-width="8" stroke-linecap="round" stroke-linejoin="round" /><polyline points="504.49,83.33 501.12,84.37 478.93,91.28 475.74,92.30 471.92,93.53" fill="none" stroke="#bcbcbc" stroke-width="8" stroke-linecap="round" stroke-linejoin="round" /><polyline points="345.01,125.36 351.95,123.11 402.32,97.39 409.06,94.10 432.81,87.24 455.83,80.77 460.20,80.37" fill="none" stroke="#bcbcbc" stroke-width="8" stroke-linecap="round" stroke-linejoin="round" /><polyline points="350.50,157.21 408.57,130.18 411.01,128.56 416.69,126.91 455.39,115.65 461.26,113.41 467.54,112.18" fill="none" stroke="#bcbcbc" stroke-width="8" stroke-linecap="round" stroke-linejoin="round" /><polyline points="338.65,-409.33 362.15,-406.43 364.52,-406.14 373.63,-403.90" fill="none" stroke="#bcbcbc" stroke-width="8" stroke-linecap="round" stroke-linejoin="round" /><polyline points="539.54,-170.34 543.71,-171.21 559.29,-163.57 561.34,-161.54 590.58,-112.05 591.35,-106.05 595.15,-102.88 594.55,-100.69 594.46,-97.12 594.98,-92.13 602.73,-60.31 603.41,-38.26 604.50,-3.06 606.32,44.31 598.90,64.95 594.12,77.54 587.15,95.28 585.13,100.41 583.82,101.84 581.71,115.56" fill="none" stroke="#bcbcbc" stroke-width="8" stroke-linecap="round" stroke-linejoin="round" /><polyline points="593.60,199.17 586.49,196.08 568.72,183.67 545.27,167.20 532.38,156.77 523.68,147.45" fill="none" stroke="#bcbcbc" stroke-width="8" stroke-linecap="round" stroke-linejoin="round" /><polyline points="305.86,476.55 298.88,474.34 287.55,470.75 282.14,469.03 275.78,467.02 267.76,464.47 260.50,462.17 253.33,459.90 221.33,449.75 215.73,447.97 208.77,445.76 207.24,445.28 188.94,440.44 183.77,439.19 177.30,437.63 170.52,435.98 146.10,430.06 139.55,428.47 132.51,426.03 117.81,420.92 112.26,419.00 107.31,417.39 84.28,409.20 81.38,407.48 79.99,404.47" fill="none" stroke="#bcbcbc" stroke-width="8" stroke-linecap="round" stroke-linejoin="round" /><polyline points="411.01,128.56 409.32,122.49 404.26,104.36 402.32,97.39 399.51,92.18 399.25,91.22 397.59,85.08 399.52,82.37 397.21,74.63 396.49,72.23" fill="none" stroke="#bcbcbc" stroke-width="8" stroke-linecap="round" stroke-linejoin="round" /><polyline points="402.56,-93.21 407.37,-95.47 433.62,-109.94 448.63,-119.60 459.21,-126.82 461.55,-128.56 470.07,-134.48 478.90,-141.00 484.49,-145.07 491.15,-149.94 514.31,-160.39 517.32,-160.23 521.71,-162.31 539.54,-170.34" fill="none" stroke="#bcbcbc" stroke-width="8" stroke-linecap="round" stroke-linejoin="round" /><polyline points="111.56,5.46 115.35,7.00 117.85,7.77 164.80,22.19 171.97,24.39" fill="none" stroke="#bcbcbc" stroke-width="8" stroke-linecap="round" stroke-linejoin="round" /><polyline points="-223.79,111.04 -257.34,100.89" fill="none" stroke="#bcbcbc" stroke-width="8" stroke-linecap="round" stroke-linejoin="round" /><polyline points="318.03,-361.96 326.35,-351.42 327.59,-349.85 331.78,-344.53 336.57,-343.97 346.41,-342.82 348.15,-341.61" fill="none" stroke="#bcbcbc" stroke-width="8" stroke-linecap="round" stroke-linejoin="round" /><polyline points="606.83,106.62 593.65,109.08 580.13,116.42 567.61,123.39 555.76,129.31 541.45,137.09 531.08,143.38 510.59,154.37 430.63,194.60 409.89,203.73 396.20,209.65 389.41,211.87 383.79,212.92 374.60,213.48 361.52,211.63 328.88,203.79 282.54,192.99 221.57,174.60 199.11,167.20 162.34,155.85 127.17,144.25 75.58,124.01 49.79,112.90 18.69,99.08 -32.89,70.82 -44.99,62.80 -75.59,43.55 -88.42,30.72 -107.68,5.79 -139.39,-26.91 -151.86,-37.89" fill="none" stroke="#bcbcbc" stroke-width="8" stroke-linecap="round" stroke-linejoin="round" /><polyline points="356.78,492.65 357.32,489.63 359.27,484.71 377.56,441.91 384.47,425.87 392.62,405.87 394.60,398.56" fill="none" stroke="#bcbcbc" stroke-width="8" stroke-linecap="round" stroke-linejoin="round" /><polyline points="5.85,311.94 -14.93,301.89 -62.21,279.00 -120.21,250.94 -125.38,248.43" fill="none" stroke="#bcbcbc" stroke-width="8" stroke-linecap="round" stroke-linejoin="round" /><polyline points="347.36,-19.29 352.61,-24.66 366.56,-38.94 377.63,-51.03" fill="none" stroke="#bcbcbc" stroke-width="8" stroke-linecap="round" stroke-linejoin="round" /><polyline points="-55.49,12.53 -61.25,4.90 -88.27,-30.86 -126.82,-62.06" fill="none" stroke="#bcbcbc" stroke-width="8" stroke-linecap="round" stroke-linejoin="round" /><polyline points="-222.82,483.31 -217.55,470.80 -200.78,429.01 -198.75,423.52 -196.50,417.44 -195.64,415.24 -195.41,411.80 -193.27,379.31 -192.65,369.99" fill="none" stroke="#bcbcbc" stroke-width="8" stroke-linecap="round" stroke-linejoin="round" /><polyline points="-234.26,147.34 -223.79,111.04 -209.98,63.16 -208.27,57.23 -206.37,50.50 -202.12,35.43 -201.67,33.85 -200.45,29.00 -198.51,23.52 -198.04,22.19 -195.58,16.11 -190.77,5.48 -189.32,2.43" fill="none" stroke="#bcbcbc" stroke-width="8" stroke-linecap="round" stroke-linejoin="round" /><polyline points="-208.27,57.23 -187.10,62.65 -142.24,74.18 -116.68,82.14 -106.02,84.63" fill="none" stroke="#bcbcbc" stroke-width="8" stroke-linecap="round" stroke-linejoin="round" /><polyline points="227.64,-107.47 228.36,-111.87 229.09,-116.45 232.19,-131.75 239.96,-167.38 246.33,-199.25 247.50,-205.86 249.08,-214.83 249.08,-214.84" fill="none" stroke="#bcbcbc" stroke-width="8" stroke-linecap="round" stroke-linejoin="round" /><polyline points="164.94,578.54 174.40,554.42 175.57,550.09 213.10,454.84 215.73,447.97 217.86,442.14 240.29,376.91 244.60,373.14" fill="none" stroke="#bcbcbc" stroke-width="8" stroke-linecap="round" stroke-linejoin="round" /><polyline points="293.57,-125.91 293.56,-125.91 292.24,-132.89 292.03,-133.74 288.79,-146.92 288.79,-146.96 286.58,-155.90 277.21,-187.99 276.03,-191.43 269.71,-208.62 267.65,-213.75 266.33,-217.06 264.61,-220.82 264.61,-220.82 264.60,-220.84 263.35,-234.66 263.23,-241.45" fill="none" stroke="#bcbcbc" stroke-width="8" stroke-linecap="round" stroke-linejoin="round" /><polyline points="279.53,418.54 277.12,421.15 273.53,425.42 263.43,453.92 260.50,462.17" fill="none" stroke="#bcbcbc" stroke-width="8" stroke-linecap="round" stroke-linejoin="round" /><polyline points="111.56,5.46 112.94,1.72 113.26,0.85 119.82,-17.49 122.28,-25.21 142.40,-84.37" fill="none" stroke="#bcbcbc" stroke-width="8" stroke-linecap="round" stroke-linejoin="round" /><polyline points="215.65,88.40 217.70,82.95 223.26,68.18 225.61,61.94 227.20,57.71 231.66,45.86 234.61,38.03 235.01,36.98 242.15,18.01 245.13,18.94 246.75,14.53 249.61,6.75 249.06,3.21 256.66,-17.47 257.44,-19.59 258.88,-20.92 260.09,-22.03 267.71,-42.85 268.81,-48.55 279.74,-78.92 282.32,-80.94 287.58,-95.81 286.65,-98.10 291.25,-111.99 288.86,-124.39" fill="none" stroke="#bcbcbc" stroke-width="8" stroke-linecap="round" stroke-linejoin="round" /><polyline points="411.15,-476.40 408.08,-481.42 391.99,-507.82" fill="none" stroke="#bcbcbc" stroke-width="8" stroke-linecap="round" stroke-linejoin="round" /><polyline points="461.55,-128.56 535.40,-81.07 535.42,-81.04 535.42,-81.03 549.08,-79.26" fill="none" stroke="#bcbcbc" stroke-width="8" stroke-linecap="round" stroke-linejoin="round" /><polyline points="431.94,-227.75 510.51,-188.31 512.88,-186.55 512.72,-173.64 514.31,-160.39" fill="none" stroke="#bcbcbc" stroke-width="8" stroke-linecap="round" stroke-linejoin="round" /><polyline points="282.14,469.03 279.31,477.65 267.86,512.57 248.39,571.36 247.01,575.54 245.61,579.76 245.22,584.26" fill="none" stroke="#bcbcbc" stroke-width="8" stroke-linecap="round" stroke-linejoin="round" /><polyline points="503.33,256.94 503.80,252.56 503.90,248.48 503.87,248.33 501.08,236.30 499.94,231.27 499.39,228.84 498.83,226.37 495.77,212.90 489.80,186.00 485.46,169.82 484.85,167.32" fill="none" stroke="#bcbcbc" stroke-width="8" stroke-linecap="round" stroke-linejoin="round" /><polyline points="113.24,503.25 115.19,497.71 137.06,435.53 139.55,428.47" fill="none" stroke="#bcbcbc" stroke-width="8" stroke-linecap="round" stroke-linejoin="round" /><polyline points="604.50,-3.06 598.06,-4.88 554.35,-71.96 549.08,-79.26" fill="none" stroke="#bcbcbc" stroke-width="8" stroke-linecap="round" stroke-linejoin="round" /><polyline points="-114.13,157.88 45.19,196.05 56.18,200.06" fill="none" stroke="#bcbcbc" stroke-width="8" stroke-linecap="round" stroke-linejoin="round" /><polyline points="388.37,-438.49 450.43,-415.50 459.17,-417.00" fill="none" stroke="#bcbcbc" stroke-width="8" stroke-linecap="round" stroke-linejoin="round" />
    <polyline points="167.20,352.80 171.28,298.10 171.69,293.64 172.31,288.45 172.32,288.22 172.59,281.87 173.95,264.65 174.72,256.63 175.77,247.52 176.72,240.96 177.58,236.85 178.66,233.73 180.78,226.72 185.16,212.11 190.72,193.26 196.86,173.98 198.11,170.05 199.11,167.20" fill="none" stroke="#ffffff" stroke-width="16" stroke-linecap="round" stroke-linejoin="round" />
    <polyline points="167.20,352.80 171.28,298.10 171.69,293.64 172.31,288.45 172.32,288.22 172.59,281.87 173.95,264.65 174.72,256.63 175.77,247.52 176.72,240.96 177.58,236.85 178.66,233.73 180.78,226.72 185.16,212.11 190.72,193.26 196.86,173.98 198.11,170.05 199.11,167.20" fill="none" stroke="#111111" stroke-width="9" stroke-linecap="round" stroke-linejoin="round" />
    
            <g transform="translate(167.20,352.80)">
              <circle r="19" fill="#ffffff" stroke="#111111" stroke-width="4" />
              <text text-anchor="middle" dominant-baseline="central" font-family="Helvetica, Arial, sans-serif"
                font-size="18" font-weight="700" fill="#111111">1</text>
            </g>
            
            <g transform="translate(199.11,167.20)">
              <circle r="19" fill="#ffffff" stroke="#111111" stroke-width="4" />
              <text text-anchor="middle" dominant-baseline="central" font-family="Helvetica, Arial, sans-serif"
                font-size="18" font-weight="700" fill="#111111">2</text>
            </g>
            
  </g>
</svg>
