<svg xmlns="http://www.w3.org/2000/svg" width="520" height="520" viewBox="0 0 520 520">
  <rect width="100%" height="100%" fill="#ffffff" />
  <g>
    <polyline points="783.21,-331.84 785.00,-322.30 796.58,-241.35 794.81,-221.11" fill="none" stroke="#bcbcbc" stroke-width="8" stroke-linecap="round" stroke-linejoin="round" /><polyline points="547.99,342.74 550.79,334.14 565.62,288.55 567.36,283.18 569.13,277.54 606.41,158.68 609.40,149.12 602.54,132.21" fill="none" stroke="#bcbcbc" stroke-width="8" stroke-linecap="round" stroke-linejoin="round" /><polyline points="290.52,237.02 289.91,230.20 302.10,161.95 303.81,153.41 305.09,148.94 308.44,131.63 312.21,110.44 316.32,91.79 320.39,73.17 322.96,67.92 324.63,64.71" fill="none" stroke="#bcbcbc" stroke-width="8" stroke-linecap="round" stroke-linejoin="round" /><polyline points="361.25,-244.40 358.36,-253.24 328.41,-344.57 326.95,-348.40" fill="none" stroke="#bcbcbc" stroke-width="8" stroke-linecap="round" stroke-linejoin="round" /><polyline points="207.59,559.41 208.48,550.70 208.84,546.70 212.10,510.64 215.67,478.89 216.50,471.47 217.28,462.58 217.36,461.83 219.39,444.14 221.13,426.17 223.05,408.82 224.35,395.32 224.89,386.98 225.37,379.29 226.21,370.61" fill="none" stroke="#bcbcbc" stroke-width="8" stroke-linecap="round" stroke-linejoin="round" /><polyline points="621.39,363.93 623.52,357.23 638.55,309.99 640.26,304.62 642.69,296.97 644.42,291.49 657.73,234.13" fill="none" stroke="#bcbcbc" stroke-width="8" stroke-linecap="round" stroke-linejoin="round" /><polyline points="562.97,-570.45 568.52,-569.60 721.45,-546.10" fill="none" stroke="#bcbcbc" stroke-width="8" stroke-linecap="round" stroke-linejoin="round" /><polyline points="170.38,352.80 154.47,352.06 144.76,351.61 139.49,351.36 134.86,351.15 98.82,349.47 48.68,347.14 24.79,343.75 16.79,342.62 9.85,341.39 -37.15,333.10 -43.72,331.94 -45.18,331.69 -53.29,330.30 -59.53,329.23 -99.35,325.71 -106.94,325.04 -109.72,324.79 -118.33,324.20 -135.19,323.03" fill="none" stroke="#bcbcbc" stroke-width="8" stroke-linecap="round" stroke-linejoin="round" /><polyline points="401.63,306.62 404.72,297.85 432.50,220.84 465.92,123.71 468.06,117.61 469.55,113.36 470.76,109.86" fill="none" stroke="#bcbcbc" stroke-width="8" stroke-linecap="round" stroke-linejoin="round" /><polyline points="-109.72,324.79 -110.43,319.84 -110.60,314.46 -109.55,303.63 -107.13,283.86 -105.51,277.22 -102.89,253.23 -102.42,247.88 -101.65,241.01 -101.08,235.91 -100.01,230.12 -98.02,214.56 -96.63,202.65 -94.60,197.78" fill="none" stroke="#bcbcbc" stroke-width="8" stroke-linecap="round" stroke-linejoin="round" /><polyline points="-138.16,191.70 -101.10,196.88 -94.60,197.78 -90.58,198.42 -73.97,201.07 -35.70,207.17 -29.13,208.26" fill="none" stroke="#bcbcbc" stroke-width="8" stroke-linecap="round" stroke-linejoin="round" /><polyline points="543.84,-294.40 544.08,-291.03 544.57,-287.62 545.78,-285.01 548.03,-282.10 552.20,-278.30 562.08,-272.30 638.27,-224.50 685.19,-161.59 720.64,-74.12 722.95,-68.34" fill="none" stroke="#bcbcbc" stroke-width="8" stroke-linecap="round" stroke-linejoin="round" /><polyline points="531.64,-39.19 533.21,-36.57 533.62,-35.89 534.93,-29.30 543.87,13.93 546.71,27.65 548.74,37.42 551.90,57.22 553.38,66.36 554.40,71.93 555.52,76.96 556.85,79.90 558.81,83.30 559.86,84.90 579.65,113.24 590.36,130.10 593.15,134.14" fill="none" stroke="#bcbcbc" stroke-width="8" stroke-linecap="round" stroke-linejoin="round" /><polyline points="-36.70,502.03 -35.65,495.54 -34.67,490.85 -34.41,490.23 -21.23,458.90 -12.83,438.54 -10.28,432.09 -7.58,425.26 -4.64,419.38 -4.17,418.23 -0.15,408.52 2.95,399.93 5.62,392.05 7.31,386.48 9.21,379.59 11.39,370.36 13.05,362.87 15.04,352.42 15.45,350.09 16.79,342.62" fill="none" stroke="#bcbcbc" stroke-width="8" stroke-linecap="round" stroke-linejoin="round" /><polyline points="601.71,-372.85 643.73,-343.49 649.39,-342.29 653.53,-337.55" fill="none" stroke="#bcbcbc" stroke-width="8" stroke-linecap="round" stroke-linejoin="round" /><polyline points="425.29,-101.73 430.84,-99.60 454.95,-91.71 510.87,-70.27 514.01,-67.14 515.48,-64.81" fill="none" stroke="#bcbcbc" stroke-width="8" stroke-linecap="round" stroke-linejoin="round" /><polyline points="529.49,449.29 533.30,439.37 552.10,388.37 565.39,349.83 568.15,348.57" fill="none" stroke="#bcbcbc" stroke-width="8" stroke-linecap="round" stroke-linejoin="round" /><polyline points="263.76,384.62 266.72,378.07 267.02,377.42 272.09,360.39 280.41,332.37 282.54,325.20 284.19,319.63 284.41,316.38 284.07,309.20" fill="none" stroke="#bcbcbc" stroke-width="8" stroke-linecap="round" stroke-linejoin="round" /><polyline points="609.30,-36.95 604.53,-35.96 593.73,-37.89 592.06,-42.34 573.34,-49.47 568.92,-48.32 552.03,-54.52 549.51,-52.76" fill="none" stroke="#bcbcbc" stroke-width="8" stroke-linecap="round" stroke-linejoin="round" /><polyline points="581.51,-615.78 589.99,-613.70 594.68,-612.89 706.24,-593.55" fill="none" stroke="#bcbcbc" stroke-width="8" stroke-linecap="round" stroke-linejoin="round" /><polyline points="494.80,418.23 499.44,405.15 508.46,379.73 514.29,368.90 522.68,345.42 526.02,336.05" fill="none" stroke="#bcbcbc" stroke-width="8" stroke-linecap="round" stroke-linejoin="round" /><polyline points="-116.42,-89.50 -124.50,-89.87 -126.53,-87.41 -140.61,-70.31 -189.81,-13.48 -196.73,-5.49" fill="none" stroke="#bcbcbc" stroke-width="8" stroke-linecap="round" stroke-linejoin="round" /><polyline points="315.17,-40.83 311.61,-32.93 311.17,-31.97 298.78,0.34 286.29,35.91 282.96,45.39 281.07,50.29" fill="none" stroke="#bcbcbc" stroke-width="8" stroke-linecap="round" stroke-linejoin="round" /><polyline points="496.94,-403.89 500.88,-398.55 503.69,-391.20 508.07,-380.66 515.09,-364.08 521.30,-349.20 528.44,-332.86 533.73,-320.27 534.52,-318.46 534.57,-318.35 538.83,-308.38 540.10,-305.55 541.31,-302.86 542.59,-300.33 543.56,-297.77 543.84,-294.40" fill="none" stroke="#bcbcbc" stroke-width="8" stroke-linecap="round" stroke-linejoin="round" /><polyline points="195.57,118.45 197.63,117.33 200.51,115.04 201.95,112.07 221.10,39.48 221.68,35.38 224.01,27.90" fill="none" stroke="#bcbcbc" stroke-width="8" stroke-linecap="round" stroke-linejoin="round" /><polyline points="865.01,4.86 867.73,13.48 869.64,22.53 865.92,57.03 861.62,82.99 859.27,91.84 859.06,92.64 857.00,97.42 854.19,102.49 847.64,110.77 850.81,126.97 840.55,161.73 834.89,180.93 823.30,212.36 806.32,250.62 785.60,287.29 779.13,299.21 767.43,318.79 720.67,385.14 710.43,398.94 670.77,450.77 647.99,476.68 616.14,509.05 613.19,509.36 606.00,515.24" fill="none" stroke="#bcbcbc" stroke-width="8" stroke-linecap="round" stroke-linejoin="round" /><polyline points="288.14,572.40 301.18,531.93 303.32,525.25 306.22,521.04 312.45,502.33 314.48,495.98 340.23,415.37 342.82,407.27 344.95,400.14 375.34,304.53" fill="none" stroke="#bcbcbc" stroke-width="8" stroke-linecap="round" stroke-linejoin="round" /><polyline points="593.86,-180.27 605.14,-192.60 608.47,-196.61 631.27,-228.89" fill="none" stroke="#bcbcbc" stroke-width="8" stroke-linecap="round" stroke-linejoin="round" /><polyline points="368.37,-175.39 399.43,-164.57 401.15,-161.79 409.97,-158.83 415.21,-157.04 440.25,-148.58" fill="none" stroke="#bcbcbc" stroke-width="8" stroke-linecap="round" stroke-linejoin="round" /><polyline points="639.16,-390.37 653.53,-337.55 670.17,-275.34 672.69,-270.15 673.09,-264.23 684.37,-243.17 714.81,-186.40 721.47,-176.59 723.39,-173.71 768.88,-88.68 789.78,-69.68 792.71,-65.90 796.85,-62.36 836.54,-28.43 839.23,-26.12 846.36,-22.34" fill="none" stroke="#bcbcbc" stroke-width="8" stroke-linecap="round" stroke-linejoin="round" /><polyline points="484.80,581.00 583.78,523.50 601.40,514.49 606.00,515.24" fill="none" stroke="#bcbcbc" stroke-width="8" stroke-linecap="round" stroke-linejoin="round" /><polyline points="592.12,498.74 598.26,491.44 653.40,381.44 657.05,374.22 660.10,367.08 677.91,323.05 683.21,309.78 698.56,263.32 708.52,203.60 709.70,194.91" fill="none" stroke="#bcbcbc" stroke-width="8" stroke-linecap="round" stroke-linejoin="round" /><polyline points="549.57,-148.20 548.60,-147.21 547.28,-142.59 547.14,-142.12 541.16,-119.09 542.73,-113.07 541.42,-107.68 539.72,-100.62 535.34,-95.55 530.37,-75.42 524.52,-71.00 518.27,-66.72 515.48,-64.81" fill="none" stroke="#bcbcbc" stroke-width="8" stroke-linecap="round" stroke-linejoin="round" /><polyline points="315.17,-40.83 317.72,-47.35 333.01,-86.56 336.35,-95.11 339.10,-102.15 358.64,-152.22 367.44,-173.16 368.37,-175.39 375.20,-191.92 390.55,-230.02 396.17,-246.24 397.42,-249.96 399.10,-254.17" fill="none" stroke="#bcbcbc" stroke-width="8" stroke-linecap="round" stroke-linejoin="round" /><polyline points="486.34,-278.51 489.29,-269.71 586.37,-186.79 639.34,-140.71 718.46,-71.94 725.37,-66.41 728.46,-64.48 742.19,-52.02 760.52,-36.38 802.11,-0.92 815.54,10.63 824.45,21.29" fill="none" stroke="#bcbcbc" stroke-width="8" stroke-linecap="round" stroke-linejoin="round" /><polyline points="646.84,-421.38 651.77,-424.53 680.93,-436.65 686.93,-442.96" fill="none" stroke="#bcbcbc" stroke-width="8" stroke-linecap="round" stroke-linejoin="round" /><polyline points="680.53,316.49 640.26,304.62 567.36,283.18" fill="none" stroke="#bcbcbc" stroke-width="8" stroke-linecap="round" stroke-linejoin="round" /><polyline points="550.54,-540.05 556.04,-536.26 735.29,-496.38" fill="none" stroke="#bcbcbc" stroke-width="8" stroke-linecap="round" stroke-linejoin="round" /><polyline points="771.95,50.08 762.69,29.47 742.13,-19.56 740.59,-23.46 737.08,-32.41 723.83,-66.13 722.99,-68.31" fill="none" stroke="#bcbcbc" stroke-width="8" stroke-linecap="round" stroke-linejoin="round" /><polyline points="496.94,-403.89 486.99,-406.72 479.68,-408.90 464.82,-413.31 457.26,-415.46 452.94,-416.67 447.29,-418.28" fill="none" stroke="#bcbcbc" stroke-width="8" stroke-linecap="round" stroke-linejoin="round" /><polyline points="237.47,-134.23 236.97,-135.87 236.50,-137.03 234.45,-142.12 226.50,-160.65 218.95,-179.46 217.32,-183.91 215.44,-189.02 214.10,-193.21 211.88,-199.48 211.65,-200.14 204.42,-217.95 191.16,-251.41 188.18,-253.11 186.06,-258.54 181.83,-273.24 174.58,-291.45 173.02,-295.59" fill="none" stroke="#bcbcbc" stroke-width="8" stroke-linecap="round" stroke-linejoin="round" /><polyline points="301.18,531.93 308.72,534.24 333.09,541.67 340.72,543.99" fill="none" stroke="#bcbcbc" stroke-width="8" stroke-linecap="round" stroke-linejoin="round" /><polyline points="756.29,-412.61 757.71,-418.35 757.13,-420.53 756.44,-423.16 751.99,-439.46 742.07,-473.92 736.83,-491.54 735.29,-496.38 721.45,-546.10 713.98,-572.92 706.24,-593.55 699.24,-612.15 692.27,-624.94 685.50,-631.70 633.51,-695.22 629.67,-699.74 627.12,-703.92" fill="none" stroke="#bcbcbc" stroke-width="8" stroke-linecap="round" stroke-linejoin="round" /><polyline points="543.84,-294.40 541.16,-293.38 536.20,-292.01 535.70,-291.87 515.00,-286.58 491.20,-279.88 486.34,-278.51 484.17,-277.82 478.45,-275.98 473.56,-274.62 452.22,-268.68 417.11,-258.71 404.03,-255.40 399.10,-254.17 375.70,-248.43 361.25,-244.40 330.65,-235.85 300.40,-227.33 296.90,-226.36 271.62,-219.34 259.96,-216.10 254.07,-213.32 242.92,-207.80 220.78,-196.56 219.24,-195.78 214.10,-193.21 210.96,-191.64 206.59,-189.35 191.04,-181.19 162.70,-165.29 139.02,-152.89 135.64,-151.12 131.11,-150.83 128.40,-149.39 127.85,-149.10 102.17,-135.03 96.79,-135.05 90.62,-131.82 88.46,-130.70 86.64,-129.74 82.35,-127.50 78.97,-119.78 64.43,-112.00 59.81,-109.52 54.81,-106.80 34.59,-95.80 24.13,-90.11 18.86,-88.59" fill="none" stroke="#bcbcbc" stroke-width="8" stroke-linecap="round" stroke-linejoin="round" /><polyline points="834.89,180.93 824.10,181.92 790.39,185.01 788.87,185.15 786.72,185.34 783.24,185.66 750.55,188.66 739.19,187.61 725.95,190.93 715.35,193.53 709.70,194.91 695.66,195.44 683.52,194.82 677.33,194.17 672.06,192.57 668.18,190.43 653.72,180.21 618.61,156.09 615.30,153.85 611.93,151.56 609.40,149.12" fill="none" stroke="#bcbcbc" stroke-width="8" stroke-linecap="round" stroke-linejoin="round" /><polyline points="39.54,-226.24 52.28,-201.29 54.21,-194.17 64.94,-173.69 69.38,-167.83 87.32,-132.93 88.46,-130.70" fill="none" stroke="#bcbcbc" stroke-width="8" stroke-linecap="round" stroke-linejoin="round" /><polyline points="430.02,-4.41 428.11,0.83 427.58,2.46 425.09,10.01 409.33,53.98 401.50,75.82 401.23,76.57 398.09,83.36 396.29,87.39" fill="none" stroke="#bcbcbc" stroke-width="8" stroke-linecap="round" stroke-linejoin="round" /><polyline points="639.16,-390.37 637.41,-394.11 632.82,-394.71 617.96,-391.31 614.94,-391.70 612.57,-394.87 608.37,-414.20 631.14,-417.73 641.69,-420.84 646.84,-421.38 652.39,-401.63" fill="none" stroke="#bcbcbc" stroke-width="8" stroke-linecap="round" stroke-linejoin="round" /><polyline points="721.47,-176.59 727.33,-179.88 756.80,-197.63 764.67,-202.32 778.45,-210.54 801.13,-225.20 806.42,-229.01 846.20,-253.68" fill="none" stroke="#bcbcbc" stroke-width="8" stroke-linecap="round" stroke-linejoin="round" /><polyline points="860.50,-60.05 850.45,-63.05 844.60,-67.84 822.26,-87.17 821.50,-87.85 816.10,-92.67 812.92,-98.30 756.80,-197.63" fill="none" stroke="#bcbcbc" stroke-width="8" stroke-linecap="round" stroke-linejoin="round" /><polyline points="227.11,-67.92 315.17,-40.83 322.36,-38.55 388.07,-17.72 389.44,-17.29 399.29,-14.16 404.13,-12.63 410.42,-10.91 423.39,-6.52 430.02,-4.41 435.99,-2.52 484.90,12.99 536.52,29.21 540.79,30.55 546.71,27.65" fill="none" stroke="#bcbcbc" stroke-width="8" stroke-linecap="round" stroke-linejoin="round" /><polyline points="486.03,-502.63 524.18,-537.67 530.64,-543.61" fill="none" stroke="#bcbcbc" stroke-width="8" stroke-linecap="round" stroke-linejoin="round" /><polyline points="-152.71,62.88 -12.74,77.88" fill="none" stroke="#bcbcbc" stroke-width="8" stroke-linecap="round" stroke-linejoin="round" /><polyline points="269.52,-327.76 298.94,-338.27 329.29,-349.24 348.14,-356.57 405.71,-377.51 422.41,-383.29 425.90,-384.49 430.09,-385.93 434.78,-387.55 435.36,-387.74 444.84,-391.56 448.96,-393.21" fill="none" stroke="#bcbcbc" stroke-width="8" stroke-linecap="round" stroke-linejoin="round" /><polyline points="467.11,384.07 494.80,418.23 511.76,435.30 519.10,440.59 529.49,449.29 539.25,457.49 547.64,465.67 547.85,469.83" fill="none" stroke="#bcbcbc" stroke-width="8" stroke-linecap="round" stroke-linejoin="round" /><polyline points="496.94,-403.89 507.80,-431.09 525.37,-475.88 550.54,-540.05 562.97,-570.45 581.51,-615.78 596.71,-652.91 599.43,-657.83 612.79,-679.68 613.65,-681.10 618.54,-690.71 627.12,-703.92 631.91,-711.29 638.68,-721.71" fill="none" stroke="#bcbcbc" stroke-width="8" stroke-linecap="round" stroke-linejoin="round" /><polyline points="240.87,323.48 239.10,324.90 237.92,326.59 235.53,333.65 233.87,338.75 226.23,361.62 225.17,364.91 224.52,366.96 217.50,364.95 200.41,359.22 183.47,353.54 170.38,352.80" fill="none" stroke="#bcbcbc" stroke-width="8" stroke-linecap="round" stroke-linejoin="round" /><polyline points="-93.82,482.59 -65.91,410.52 -62.80,402.68 -60.02,395.12 -56.65,385.99 -52.53,371.62 -48.22,353.77 -46.46,340.98 -45.18,331.69 -43.37,324.83 -36.80,273.29 -29.13,208.26 -25.16,177.26 -20.73,140.84 -12.74,77.88 -11.48,67.18 -3.41,1.34 -3.40,-2.33 -1.62,-21.87 3.53,-63.13 4.82,-70.33 6.17,-74.37 8.27,-78.81 10.32,-82.26 14.83,-87.15 18.87,-88.54" fill="none" stroke="#bcbcbc" stroke-width="8" stroke-linecap="round" stroke-linejoin="round" /><polyline points="515.48,-64.81 517.01,-62.39 522.13,-54.40 529.79,-42.11 531.64,-39.19 534.69,-41.51 549.51,-52.76" fill="none" stroke="#bcbcbc" stroke-width="8" stroke-linecap="round" stroke-linejoin="round" /><polyline points="525.37,-475.88 676.17,-448.62 692.00,-440.29 751.09,-411.00 756.29,-412.61" fill="none" stroke="#bcbcbc" stroke-width="8" stroke-linecap="round" stroke-linejoin="round" /><polyline points="237.47,-134.23 234.79,-130.32 210.73,-118.58 193.07,-96.13 174.00,-84.32 160.96,-74.48 148.52,-64.33 142.14,-58.52 130.87,-44.22 118.27,-26.17 116.20,-22.82" fill="none" stroke="#bcbcbc" stroke-width="8" stroke-linecap="round" stroke-linejoin="round" /><polyline points="262.90,-118.12 261.86,-115.80 259.58,-112.47 255.27,-107.16 229.86,-75.06 216.41,-38.85 148.55,-64.36" fill="none" stroke="#bcbcbc" stroke-width="8" stroke-linecap="round" stroke-linejoin="round" /><polyline points="160.96,-74.48 158.33,-82.43 146.97,-116.81 142.57,-123.60 135.19,-145.74 134.55,-147.65 135.64,-151.12 133.87,-156.76 98.38,-270.05" fill="none" stroke="#bcbcbc" stroke-width="8" stroke-linecap="round" stroke-linejoin="round" /><polyline points="576.75,-692.63 604.79,-691.90 606.10,-691.86 611.47,-691.71 618.54,-690.71" fill="none" stroke="#bcbcbc" stroke-width="8" stroke-linecap="round" stroke-linejoin="round" /><polyline points="432.50,220.84 422.92,220.72 341.84,231.61 336.00,232.22 329.32,232.93 290.52,237.02 238.24,242.54 210.53,245.46 195.20,247.08 182.76,248.59 176.36,249.37 169.17,250.25 134.39,254.47 126.05,255.49 100.37,258.29 -36.80,273.29" fill="none" stroke="#bcbcbc" stroke-width="8" stroke-linecap="round" stroke-linejoin="round" /><polyline points="312.45,502.33 305.27,500.02 271.72,489.22 264.94,487.04 259.05,485.15 223.51,473.73 216.50,471.47 207.23,468.49 150.65,450.28 144.28,448.23" fill="none" stroke="#bcbcbc" stroke-width="8" stroke-linecap="round" stroke-linejoin="round" /><polyline points="452.74,-176.85 472.25,-170.77 543.61,-148.74 544.28,-148.53 549.57,-148.20" fill="none" stroke="#bcbcbc" stroke-width="8" stroke-linecap="round" stroke-linejoin="round" /><polyline points="653.53,-337.55 750.60,-335.85" fill="none" stroke="#bcbcbc" stroke-width="8" stroke-linecap="round" stroke-linejoin="round" /><polyline points="606.00,515.24 592.12,498.74 586.30,491.97 581.29,487.30 574.63,482.32 561.02,474.16 547.85,469.83 521.04,461.55 499.12,454.59 511.76,435.30" fill="none" stroke="#bcbcbc" stroke-width="8" stroke-linecap="round" stroke-linejoin="round" /><polyline points="467.11,384.07 447.79,360.22 444.11,355.68 424.65,328.87 420.24,320.69 421.30,310.94 427.17,310.88 441.64,313.67 463.67,317.90" fill="none" stroke="#bcbcbc" stroke-width="8" stroke-linecap="round" stroke-linejoin="round" /><polyline points="214.33,192.99 217.89,200.65 238.24,242.54 268.51,304.83 272.36,312.77" fill="none" stroke="#bcbcbc" stroke-width="8" stroke-linecap="round" stroke-linejoin="round" /><polyline points="-111.61,382.72 -104.33,385.70 -70.25,399.63 -62.80,402.68 -54.97,405.88 -14.84,422.29 -7.58,425.26" fill="none" stroke="#bcbcbc" stroke-width="8" stroke-linecap="round" stroke-linejoin="round" /><polyline points="231.08,130.88 302.10,161.95" fill="none" stroke="#bcbcbc" stroke-width="8" stroke-linecap="round" stroke-linejoin="round" /><polyline points="549.57,-148.20 560.39,-147.63 561.08,-147.02 565.93,-142.72 573.06,-136.35 574.38,-133.79 598.97,-112.26 600.79,-108.82 618.08,-93.56 622.43,-92.23 635.88,-80.46 638.89,-79.08 659.18,-61.87 663.69,-57.87 666.18,-53.91" fill="none" stroke="#bcbcbc" stroke-width="8" stroke-linecap="round" stroke-linejoin="round" /><polyline points="-131.66,130.95 -20.73,140.84" fill="none" stroke="#bcbcbc" stroke-width="8" stroke-linecap="round" stroke-linejoin="round" /><polyline points="116.03,543.99 119.46,536.67 120.35,533.41 125.17,515.65 142.61,454.13 144.28,448.23 146.05,441.77 153.96,412.87 167.31,364.05 170.38,352.80" fill="none" stroke="#bcbcbc" stroke-width="8" stroke-linecap="round" stroke-linejoin="round" /><polyline points="214.33,192.99 231.08,130.88 195.57,118.45 186.27,123.94 182.03,127.17 178.89,131.41 176.69,137.02 168.52,167.20 175.11,170.55 181.76,172.17 196.48,176.00 207.50,179.51 214.33,192.99" fill="none" stroke="#bcbcbc" stroke-width="8" stroke-linecap="round" stroke-linejoin="round" /><polyline points="168.52,167.20 160.74,166.12 -20.73,140.84" fill="none" stroke="#bcbcbc" stroke-width="8" stroke-linecap="round" stroke-linejoin="round" /><polyline points="463.67,317.90 480.50,321.58 526.02,336.05 538.75,340.07 568.96,348.80 599.40,357.58 621.93,364.09 657.97,374.49 665.41,376.64 683.59,382.74 713.53,390.71 716.17,391.20" fill="none" stroke="#bcbcbc" stroke-width="8" stroke-linecap="round" stroke-linejoin="round" /><polyline points="485.02,580.87 478.88,582.41 472.24,600.91 461.94,597.99 415.12,582.03 409.48,580.83 396.95,579.93 340.25,580.16 327.75,578.57 299.52,574.25 288.14,572.40 207.38,559.38 176.11,554.39 116.47,544.06 106.84,542.15 -27.75,504.54 -36.24,502.16 -93.82,482.59 -107.98,477.57 -143.37,462.91 -163.53,455.28" fill="none" stroke="#bcbcbc" stroke-width="8" stroke-linecap="round" stroke-linejoin="round" /><polyline points="608.37,-414.20 602.54,-415.40 524.76,-406.21 496.94,-403.89" fill="none" stroke="#bcbcbc" stroke-width="8" stroke-linecap="round" stroke-linejoin="round" /><polyline points="463.67,317.90 466.40,313.34 482.72,271.42 500.96,208.04 505.61,194.38 508.10,190.67 525.71,134.15 526.58,127.40 527.25,122.99" fill="none" stroke="#bcbcbc" stroke-width="8" stroke-linecap="round" stroke-linejoin="round" /><polyline points="543.84,-294.40 545.70,-295.11 548.21,-297.11 552.04,-301.59 601.71,-372.85 614.94,-391.70" fill="none" stroke="#bcbcbc" stroke-width="8" stroke-linecap="round" stroke-linejoin="round" /><polyline points="764.90,-32.62 765.92,-35.55 790.88,-64.92 792.71,-65.90 797.05,-71.83 811.58,-88.51 816.10,-92.67" fill="none" stroke="#bcbcbc" stroke-width="8" stroke-linecap="round" stroke-linejoin="round" /><polyline points="786.72,185.34 786.37,181.41 786.10,178.37 784.79,172.56 783.22,168.77 781.26,158.81 781.08,155.20 779.75,147.14 773.80,144.03 769.06,145.85 760.55,147.88 753.83,148.94 747.37,150.49 738.46,152.52 734.40,153.45" fill="none" stroke="#bcbcbc" stroke-width="8" stroke-linecap="round" stroke-linejoin="round" /><polyline points="130.76,41.10 148.92,-1.46 149.92,-4.23" fill="none" stroke="#bcbcbc" stroke-width="8" stroke-linecap="round" stroke-linejoin="round" /><polyline points="609.30,-36.95 618.05,-40.34 622.62,-42.11 626.16,-45.69 640.75,-49.29 645.65,-48.04 656.21,-50.76 664.27,-52.84 666.18,-53.91 674.00,-55.82 713.94,-65.60 722.99,-68.31" fill="none" stroke="#bcbcbc" stroke-width="8" stroke-linecap="round" stroke-linejoin="round" /><polyline points="240.87,323.48 259.72,316.64 266.02,314.71 272.36,312.77 284.07,309.20 293.18,307.89 324.29,304.48 330.54,304.14 358.38,304.38 375.34,304.53 381.71,304.20 391.93,305.23 395.12,305.69 401.63,306.62 421.30,310.94" fill="none" stroke="#bcbcbc" stroke-width="8" stroke-linecap="round" stroke-linejoin="round" /><polyline points="330.65,-235.85 327.53,-246.41 315.93,-285.60 301.85,-330.30 298.94,-338.27 295.99,-345.75 292.26,-356.53" fill="none" stroke="#bcbcbc" stroke-width="8" stroke-linecap="round" stroke-linejoin="round" /><polyline points="296.93,396.14 299.40,388.32 324.45,309.34 324.29,304.48" fill="none" stroke="#bcbcbc" stroke-width="8" stroke-linecap="round" stroke-linejoin="round" /><polyline points="330.54,304.14 335.50,237.64 336.00,232.22 336.76,225.91 336.77,225.63 337.10,217.91 338.75,196.98 339.69,187.23 340.96,176.16 342.12,168.18 343.17,163.18 344.48,159.39 347.06,150.86 352.38,133.11 359.14,110.19 366.60,86.75 368.12,81.97 369.34,78.51" fill="none" stroke="#bcbcbc" stroke-width="8" stroke-linecap="round" stroke-linejoin="round" /><polyline points="130.76,41.10 101.38,32.37 97.64,29.97 79.36,24.64 74.22,24.70 51.24,17.78 47.53,15.04 26.63,8.70 0.97,1.71 0.85,1.70 -3.41,1.34" fill="none" stroke="#bcbcbc" stroke-width="8" stroke-linecap="round" stroke-linejoin="round" /><polyline points="666.18,-53.91 667.20,-52.57 671.47,-46.22 679.34,-34.48 686.75,-27.05 701.01,-11.06 698.60,3.73 697.38,9.27 695.67,11.62 699.25,16.90 704.78,28.28 715.82,49.59 721.26,60.08 724.65,69.52 726.17,73.90" fill="none" stroke="#bcbcbc" stroke-width="8" stroke-linecap="round" stroke-linejoin="round" /><polyline points="740.59,-23.46 736.50,-22.18 709.52,-13.79 705.65,-12.55 701.01,-11.06" fill="none" stroke="#bcbcbc" stroke-width="8" stroke-linecap="round" stroke-linejoin="round" /><polyline points="546.71,27.65 555.15,24.91 616.39,-6.36 624.59,-10.36 653.45,-18.70 681.44,-26.56 686.75,-27.05" fill="none" stroke="#bcbcbc" stroke-width="8" stroke-linecap="round" stroke-linejoin="round" /><polyline points="553.38,66.36 623.99,33.51 626.96,31.54 633.86,29.53 680.91,15.84 688.04,13.11 695.67,11.62" fill="none" stroke="#bcbcbc" stroke-width="8" stroke-linecap="round" stroke-linejoin="round" /><polyline points="538.98,-622.38 567.56,-618.85 570.43,-618.50 581.51,-615.78" fill="none" stroke="#bcbcbc" stroke-width="8" stroke-linecap="round" stroke-linejoin="round" /><polyline points="783.21,-331.84 788.28,-332.90 807.22,-323.61 809.71,-321.15 845.26,-260.97 846.20,-253.68 850.82,-249.83 850.08,-247.17 849.97,-242.83 850.61,-236.77 860.03,-198.07 860.86,-171.27 862.18,-128.48 864.39,-70.89 855.38,-45.79 849.57,-30.49 841.09,-8.93 838.63,-2.69 837.04,-0.95 834.48,15.73" fill="none" stroke="#bcbcbc" stroke-width="8" stroke-linecap="round" stroke-linejoin="round" /><polyline points="848.94,117.38 840.29,113.61 818.68,98.54 790.18,78.51 774.50,65.83 763.92,54.50" fill="none" stroke="#bcbcbc" stroke-width="8" stroke-linecap="round" stroke-linejoin="round" /><polyline points="499.12,454.59 490.63,451.90 476.85,447.53 470.28,445.45 462.55,443.00 452.80,439.91 443.97,437.11 435.25,434.34 396.36,422.00 389.54,419.84 381.08,417.16 379.22,416.57 356.97,410.69 350.69,409.17 342.82,407.27 334.58,405.27 304.89,398.07 296.93,396.14 288.37,393.17 270.50,386.96 263.76,384.62 257.73,382.67 229.74,372.71 226.21,370.61 224.52,366.96" fill="none" stroke="#bcbcbc" stroke-width="8" stroke-linecap="round" stroke-linejoin="round" /><polyline points="626.96,31.54 624.90,24.15 618.75,2.12 616.39,-6.36 612.97,-12.69 612.66,-13.86 610.64,-21.32 612.99,-24.63 610.17,-34.03 609.30,-36.95" fill="none" stroke="#bcbcbc" stroke-width="8" stroke-linecap="round" stroke-linejoin="round" /><polyline points="616.68,-238.07 622.53,-240.82 654.44,-258.42 672.69,-270.15 685.56,-278.93 688.40,-281.04 698.75,-288.24 709.49,-296.17 716.28,-301.11 724.38,-307.04 752.54,-319.74 756.19,-319.55 761.53,-322.07 783.21,-331.84" fill="none" stroke="#bcbcbc" stroke-width="8" stroke-linecap="round" stroke-linejoin="round" /><polyline points="262.90,-118.12 267.51,-116.25 270.55,-115.32 327.63,-97.79 336.35,-95.11" fill="none" stroke="#bcbcbc" stroke-width="8" stroke-linecap="round" stroke-linejoin="round" /><polyline points="-144.80,10.23 -185.58,-2.11" fill="none" stroke="#bcbcbc" stroke-width="8" stroke-linecap="round" stroke-linejoin="round" /><polyline points="513.91,-564.79 524.02,-551.98 525.53,-550.07 530.64,-543.61 536.45,-542.92 548.41,-541.52 550.54,-540.05" fill="none" stroke="#bcbcbc" stroke-width="8" stroke-linecap="round" stroke-linejoin="round" /><polyline points="865.01,4.86 848.99,7.85 832.56,16.77 817.33,25.25 802.93,32.45 785.53,41.90 772.92,49.55 748.02,62.91 650.80,111.81 625.60,122.91 608.94,130.12 600.69,132.82 593.86,134.09 582.69,134.77 566.78,132.52 527.10,122.99 470.76,109.86 396.65,87.51 369.34,78.51 324.63,64.71 281.88,50.60 219.16,26.00 187.81,12.50 150.00,-4.30 87.29,-38.66 72.58,-48.41 35.38,-71.81 19.77,-87.41 -3.63,-117.72 -42.19,-157.47 -57.34,-170.82" fill="none" stroke="#bcbcbc" stroke-width="8" stroke-linecap="round" stroke-linejoin="round" /><polyline points="561.02,474.16 561.68,470.49 564.05,464.51 586.29,412.47 594.69,392.97 604.59,368.66 607.00,359.77" fill="none" stroke="#bcbcbc" stroke-width="8" stroke-linecap="round" stroke-linejoin="round" /><polyline points="134.39,254.47 109.13,242.25 51.64,214.43 -18.87,180.31 -25.16,177.26" fill="none" stroke="#bcbcbc" stroke-width="8" stroke-linecap="round" stroke-linejoin="round" /><polyline points="549.57,-148.20 555.95,-154.73 572.91,-172.09 586.37,-186.79" fill="none" stroke="#bcbcbc" stroke-width="8" stroke-linecap="round" stroke-linejoin="round" /><polyline points="59.81,-109.52 52.80,-118.80 19.97,-162.28 -26.91,-200.21" fill="none" stroke="#bcbcbc" stroke-width="8" stroke-linecap="round" stroke-linejoin="round" /><polyline points="-143.62,462.80 -137.21,447.60 -116.82,396.79 -114.35,390.12 -111.61,382.72 -110.57,380.05 -110.30,375.87 -107.69,336.37 -106.94,325.04" fill="none" stroke="#bcbcbc" stroke-width="8" stroke-linecap="round" stroke-linejoin="round" /><polyline points="-157.52,54.36 -144.80,10.23 -128.01,-47.97 -125.93,-55.18 -123.62,-63.36 -118.45,-81.69 -117.91,-83.61 -116.42,-89.50 -114.06,-96.16 -113.49,-97.78 -110.50,-105.17 -104.65,-118.10 -102.89,-121.81" fill="none" stroke="#bcbcbc" stroke-width="8" stroke-linecap="round" stroke-linejoin="round" /><polyline points="-125.93,-55.18 -100.19,-48.59 -45.65,-34.58 -14.58,-24.90 -1.62,-21.87" fill="none" stroke="#bcbcbc" stroke-width="8" stroke-linecap="round" stroke-linejoin="round" /><polyline points="404.03,-255.40 404.90,-260.76 405.78,-266.32 409.56,-284.93 419.00,-328.24 426.75,-366.98 428.16,-375.02 430.09,-385.93 430.09,-385.94" fill="none" stroke="#bcbcbc" stroke-width="8" stroke-linecap="round" stroke-linejoin="round" /><polyline points="327.80,578.58 339.29,549.26 340.72,543.99 386.34,428.19 389.54,419.84 392.14,412.75 419.40,333.45 424.65,328.87" fill="none" stroke="#bcbcbc" stroke-width="8" stroke-linecap="round" stroke-linejoin="round" /><polyline points="484.17,-277.82 484.17,-277.83 482.55,-286.31 482.30,-287.34 478.36,-303.37 478.36,-303.42 475.68,-314.28 464.29,-353.30 462.86,-357.47 455.17,-378.37 452.67,-384.61 451.06,-388.63 448.97,-393.21 448.96,-393.21 448.96,-393.23 447.44,-410.04 447.29,-418.28" fill="none" stroke="#bcbcbc" stroke-width="8" stroke-linecap="round" stroke-linejoin="round" /><polyline points="467.11,384.07 464.18,387.23 459.82,392.42 447.53,427.07 443.97,437.11" fill="none" stroke="#bcbcbc" stroke-width="8" stroke-linecap="round" stroke-linejoin="round" /><polyline points="262.90,-118.12 264.58,-122.67 264.96,-123.72 272.94,-146.02 275.94,-155.41 300.40,-227.33" fill="none" stroke="#bcbcbc" stroke-width="8" stroke-linecap="round" stroke-linejoin="round" /><polyline points="389.44,-17.29 391.94,-23.92 398.70,-41.87 401.56,-49.46 403.49,-54.60 408.91,-69.00 412.50,-78.52 412.98,-79.80 421.66,-102.86 425.29,-101.73 427.26,-107.09 430.73,-116.56 430.07,-120.86 439.30,-146.00 440.25,-148.58 442.00,-150.19 443.47,-151.54 452.74,-176.85 454.07,-183.78 467.36,-220.70 470.50,-223.16 476.90,-241.24 475.76,-244.02 481.36,-260.90 478.45,-275.98" fill="none" stroke="#bcbcbc" stroke-width="8" stroke-linecap="round" stroke-linejoin="round" /><polyline points="627.12,-703.92 623.40,-710.02 603.83,-742.12" fill="none" stroke="#bcbcbc" stroke-width="8" stroke-linecap="round" stroke-linejoin="round" /><polyline points="688.40,-281.04 778.18,-223.32 778.20,-223.28 778.20,-223.27 794.81,-221.11" fill="none" stroke="#bcbcbc" stroke-width="8" stroke-linecap="round" stroke-linejoin="round" /><polyline points="652.39,-401.63 747.92,-353.69 750.80,-351.54 750.61,-335.85 752.54,-319.74" fill="none" stroke="#bcbcbc" stroke-width="8" stroke-linecap="round" stroke-linejoin="round" /><polyline points="470.28,445.45 466.84,455.93 452.92,498.37 429.25,569.85 427.57,574.92 425.87,580.06 425.39,585.53" fill="none" stroke="#bcbcbc" stroke-width="8" stroke-linecap="round" stroke-linejoin="round" /><polyline points="739.19,187.61 739.76,182.28 739.88,177.32 739.84,177.14 736.46,162.51 735.07,156.40 734.40,153.45 733.71,150.44 730.00,134.07 722.74,101.36 717.47,81.69 716.72,78.65" fill="none" stroke="#bcbcbc" stroke-width="8" stroke-linecap="round" stroke-linejoin="round" /><polyline points="264.94,487.04 267.31,480.31 293.91,404.72 296.93,396.14" fill="none" stroke="#bcbcbc" stroke-width="8" stroke-linecap="round" stroke-linejoin="round" /><polyline points="862.18,-128.48 854.35,-130.69 801.21,-212.24 794.81,-221.11" fill="none" stroke="#bcbcbc" stroke-width="8" stroke-linecap="round" stroke-linejoin="round" /><polyline points="-11.48,67.18 182.21,113.58 195.57,118.45" fill="none" stroke="#bcbcbc" stroke-width="8" stroke-linecap="round" stroke-linejoin="round" /><polyline points="599.43,-657.83 674.87,-629.89 685.50,-631.70" fill="none" stroke="#bcbcbc" stroke-width="8" stroke-linecap="round" stroke-linejoin="round" />
    <polyline points="168.52,167.20 167.20,173.09 167.43,174.98 175.51,242.25 176.36,249.37 175.99,256.70 173.88,298.54 172.99,316.02 172.53,325.04 171.72,341.11 171.30,349.48 170.38,352.80" fill="none" stroke="#ffffff" stroke-width="16" stroke-linecap="round" stroke-linejoin="round" />
    <polyline points="168.52,167.20 167.20,173.09 167.43,174.98 175.51,242.25 176.36,249.37 175.99,256.70 173.88,298.54 172.99,316.02 172.53,325.04 171.72,341.11 171.30,349.48 170.38,352.80" fill="none" stroke="#111111" stroke-width="9" stroke-linecap="round" stroke-linejoin="round" />
    
            <g transform="translate(168.52,167.20)">
              <circle r="19" fill="#ffffff" stroke="#111111" stroke-width="4" />
              <text text-anchor="middle" dominant-baseline="central" font-family="Helvetica, Arial, sans-serif"
                font-size="18" font-weight="700" fill="#111111">1</text>
            </g>
            
            <g transform="translate(170.38,352.80)">
              <circle r="19" fill="#ffffff" stroke="#111111" stroke-width="4" />
              <text text-anchor="middle" dominant-baseline="central" font-family="Helvetica, Arial, sans-serif"
                font-size="18" font-weight="700" fill="#111111">2</text>
            </g>
            
  </g>
</svg>
