<svg xmlns="http://www.w3.org/2000/svg" width="520" height="520" viewBox="0 0 520 520">
  <rect width="100%" height="100%" fill="#ffffff" />
  <g>
    <polyline points="1255.40,-163.15 1257.88,-149.95 1273.89,-37.96 1271.44,-9.96" fill="none" stroke="#bcbcbc" stroke-width="8" stroke-linecap="round" stroke-linejoin="round" /><polyline points="930.00,770.11 933.87,758.22 954.38,695.15 956.80,687.71 959.24,679.91 1010.81,515.47 1014.96,502.25 1005.46,478.85" fill="none" stroke="#bcbcbc" stroke-width="8" stroke-linecap="round" stroke-linejoin="round" /><polyline points="573.81,623.85 572.98,614.41 589.84,519.99 592.20,508.18 593.97,501.99 598.61,478.04 603.82,448.74 609.50,422.93 615.14,397.17 618.69,389.91 621.01,385.46" fill="none" stroke="#bcbcbc" stroke-width="8" stroke-linecap="round" stroke-linejoin="round" /><polyline points="671.67,-42.19 667.66,-54.41 626.23,-180.76 624.21,-186.06" fill="none" stroke="#bcbcbc" stroke-width="8" stroke-linecap="round" stroke-linejoin="round" /><polyline points="459.08,1069.88 460.32,1057.82 460.82,1052.29 465.33,1002.40 470.27,958.47 471.42,948.21 472.49,935.91 472.61,934.87 475.41,910.41 477.82,885.54 480.48,861.54 482.27,842.85 483.02,831.32 483.68,820.68 484.86,808.68" fill="none" stroke="#bcbcbc" stroke-width="8" stroke-linecap="round" stroke-linejoin="round" /><polyline points="1031.54,799.43 1034.49,790.15 1055.28,724.80 1057.64,717.38 1061.00,706.80 1063.40,699.22 1081.81,619.86" fill="none" stroke="#bcbcbc" stroke-width="8" stroke-linecap="round" stroke-linejoin="round" /><polyline points="950.73,-493.26 958.40,-492.09 1169.96,-459.58" fill="none" stroke="#bcbcbc" stroke-width="8" stroke-linecap="round" stroke-linejoin="round" /><polyline points="407.62,784.03 385.60,783.01 372.17,782.38 364.88,782.04 358.48,781.74 308.61,779.43 239.26,776.20 206.20,771.51 195.14,769.94 185.53,768.25 120.51,756.77 111.43,755.17 109.41,754.82 98.19,752.90 89.56,751.42 34.47,746.55 23.97,745.63 20.12,745.28 8.21,744.46 -15.11,742.84" fill="none" stroke="#bcbcbc" stroke-width="8" stroke-linecap="round" stroke-linejoin="round" /><polyline points="727.53,720.15 731.79,708.01 770.23,601.47 816.46,467.08 819.43,458.66 821.49,452.77 823.16,447.93" fill="none" stroke="#bcbcbc" stroke-width="8" stroke-linecap="round" stroke-linejoin="round" /><polyline points="20.12,745.28 19.14,738.43 18.91,730.99 20.37,716.01 23.71,688.65 25.95,679.47 29.57,646.27 30.23,638.88 31.29,629.37 32.08,622.31 33.56,614.31 36.31,592.78 38.23,576.31 41.04,569.57" fill="none" stroke="#bcbcbc" stroke-width="8" stroke-linecap="round" stroke-linejoin="round" /><polyline points="-19.22,561.15 32.05,568.31 41.04,569.57 46.60,570.46 69.58,574.12 122.53,582.55 131.61,584.07" fill="none" stroke="#bcbcbc" stroke-width="8" stroke-linecap="round" stroke-linejoin="round" /><polyline points="924.25,-111.36 924.58,-106.70 925.27,-101.98 926.94,-98.37 930.05,-94.34 935.82,-89.09 949.48,-80.78 1054.89,-14.65 1119.80,72.39 1168.84,193.39 1172.04,201.39" fill="none" stroke="#bcbcbc" stroke-width="8" stroke-linecap="round" stroke-linejoin="round" /><polyline points="907.37,241.73 909.56,245.34 910.12,246.28 911.93,255.41 924.30,315.21 928.23,334.19 931.03,347.71 935.41,375.11 937.46,387.75 938.87,395.46 940.41,402.42 942.26,406.48 944.96,411.18 946.41,413.40 973.80,452.61 988.61,475.94 992.48,481.51" fill="none" stroke="#bcbcbc" stroke-width="8" stroke-linecap="round" stroke-linejoin="round" /><polyline points="121.14,990.49 122.60,981.52 123.95,975.03 124.32,974.17 142.54,930.82 154.16,902.65 157.69,893.73 161.43,884.27 165.49,876.15 166.14,874.56 171.70,861.12 176.00,849.24 179.69,838.33 182.02,830.62 184.65,821.10 187.67,808.33 189.97,797.97 192.71,783.51 193.29,780.28 195.14,769.94" fill="none" stroke="#bcbcbc" stroke-width="8" stroke-linecap="round" stroke-linejoin="round" /><polyline points="1004.32,-219.89 1062.44,-179.28 1070.27,-177.61 1076.00,-171.06" fill="none" stroke="#bcbcbc" stroke-width="8" stroke-linecap="round" stroke-linejoin="round" /><polyline points="760.25,155.19 767.94,158.15 801.29,169.06 878.65,198.73 882.99,203.05 885.02,206.28" fill="none" stroke="#bcbcbc" stroke-width="8" stroke-linecap="round" stroke-linejoin="round" /><polyline points="904.41,917.52 909.68,903.80 935.69,833.24 954.07,779.93 957.89,778.17" fill="none" stroke="#bcbcbc" stroke-width="8" stroke-linecap="round" stroke-linejoin="round" /><polyline points="536.79,828.06 540.89,818.99 541.30,818.09 548.32,794.54 559.82,755.77 562.77,745.85 565.06,738.14 565.37,733.65 564.90,723.71" fill="none" stroke="#bcbcbc" stroke-width="8" stroke-linecap="round" stroke-linejoin="round" /><polyline points="1014.81,244.83 1008.21,246.19 993.27,243.53 990.96,237.36 965.07,227.49 958.95,229.09 935.59,220.52 932.11,222.95" fill="none" stroke="#bcbcbc" stroke-width="8" stroke-linecap="round" stroke-linejoin="round" /><polyline points="976.37,-555.98 988.10,-553.10 994.59,-551.98 1148.91,-525.22" fill="none" stroke="#bcbcbc" stroke-width="8" stroke-linecap="round" stroke-linejoin="round" /><polyline points="856.42,874.56 862.84,856.46 875.32,821.29 883.38,806.30 894.98,773.82 899.61,760.86" fill="none" stroke="#bcbcbc" stroke-width="8" stroke-linecap="round" stroke-linejoin="round" /><polyline points="10.85,172.11 -0.33,171.60 -3.13,175.00 -22.60,198.66 -90.67,277.29 -100.25,288.35" fill="none" stroke="#bcbcbc" stroke-width="8" stroke-linecap="round" stroke-linejoin="round" /><polyline points="607.92,239.46 602.99,250.38 602.39,251.70 585.25,296.41 567.97,345.62 563.36,358.74 560.75,365.51" fill="none" stroke="#bcbcbc" stroke-width="8" stroke-linecap="round" stroke-linejoin="round" /><polyline points="859.38,-262.83 864.83,-255.44 868.72,-245.28 874.77,-230.70 884.48,-207.76 893.08,-187.17 902.95,-164.56 910.28,-147.14 911.36,-144.64 911.43,-144.48 917.32,-130.70 919.08,-126.79 920.76,-123.06 922.53,-119.57 923.86,-116.01 924.25,-111.36" fill="none" stroke="#bcbcbc" stroke-width="8" stroke-linecap="round" stroke-linejoin="round" /><polyline points="442.46,459.82 445.31,458.26 449.30,455.09 451.29,450.98 477.78,350.55 478.58,344.89 481.81,334.54" fill="none" stroke="#bcbcbc" stroke-width="8" stroke-linecap="round" stroke-linejoin="round" /><polyline points="1368.56,302.66 1372.32,314.59 1374.97,327.11 1369.82,374.85 1363.87,410.75 1360.62,423.00 1360.32,424.11 1357.48,430.72 1353.60,437.73 1344.54,449.19 1348.92,471.60 1334.73,519.69 1326.89,546.25 1310.86,589.73 1287.38,642.67 1258.71,693.40 1249.75,709.89 1233.56,736.98 1168.89,828.77 1154.72,847.87 1099.84,919.58 1068.34,955.42 1024.27,1000.20 1020.20,1000.62 1010.24,1008.76" fill="none" stroke="#bcbcbc" stroke-width="8" stroke-linecap="round" stroke-linejoin="round" /><polyline points="570.52,1087.85 588.57,1031.86 591.52,1022.61 595.53,1016.79 604.16,990.91 606.96,982.12 642.58,870.60 646.16,859.39 649.12,849.53 691.15,717.25" fill="none" stroke="#bcbcbc" stroke-width="8" stroke-linecap="round" stroke-linejoin="round" /><polyline points="993.45,46.54 1009.06,29.48 1013.67,23.94 1045.20,-20.73" fill="none" stroke="#bcbcbc" stroke-width="8" stroke-linecap="round" stroke-linejoin="round" /><polyline points="681.51,53.29 724.49,68.25 726.86,72.11 739.06,76.21 746.31,78.68 780.95,90.38" fill="none" stroke="#bcbcbc" stroke-width="8" stroke-linecap="round" stroke-linejoin="round" /><polyline points="1056.12,-244.13 1076.00,-171.06 1099.01,-84.98 1102.50,-77.81 1103.06,-69.62 1118.66,-40.48 1160.78,38.06 1169.98,51.64 1172.65,55.61 1235.57,173.25 1264.49,199.54 1268.55,204.78 1274.27,209.67 1329.18,256.61 1332.90,259.80 1342.76,265.04" fill="none" stroke="#bcbcbc" stroke-width="8" stroke-linecap="round" stroke-linejoin="round" /><polyline points="842.58,1099.74 979.51,1020.19 1003.89,1007.73 1010.24,1008.76" fill="none" stroke="#bcbcbc" stroke-width="8" stroke-linecap="round" stroke-linejoin="round" /><polyline points="991.05,985.94 999.54,975.84 1075.82,823.65 1080.87,813.67 1085.09,803.79 1109.73,742.87 1117.06,724.51 1138.30,660.24 1152.07,577.62 1153.70,565.59" fill="none" stroke="#bcbcbc" stroke-width="8" stroke-linecap="round" stroke-linejoin="round" /><polyline points="932.18,90.91 930.85,92.27 929.01,98.68 928.83,99.32 920.55,131.19 922.72,139.51 920.91,146.97 918.55,156.73 912.50,163.75 905.62,191.59 897.52,197.71 888.88,203.64 885.02,206.28" fill="none" stroke="#bcbcbc" stroke-width="8" stroke-linecap="round" stroke-linejoin="round" /><polyline points="607.92,239.46 611.44,230.44 632.60,176.19 637.21,164.36 641.02,154.62 668.05,85.35 680.23,56.38 681.51,53.29 690.97,30.42 712.19,-22.28 719.97,-44.72 721.70,-49.87 724.02,-55.70" fill="none" stroke="#bcbcbc" stroke-width="8" stroke-linecap="round" stroke-linejoin="round" /><polyline points="844.71,-89.37 848.80,-77.19 983.09,37.52 1056.37,101.27 1165.82,196.42 1175.38,204.06 1179.66,206.74 1198.65,223.98 1224.01,245.61 1281.54,294.66 1300.13,310.64 1312.46,325.39" fill="none" stroke="#bcbcbc" stroke-width="8" stroke-linecap="round" stroke-linejoin="round" /><polyline points="1066.75,-287.02 1073.56,-291.39 1113.91,-308.16 1122.20,-316.88" fill="none" stroke="#bcbcbc" stroke-width="8" stroke-linecap="round" stroke-linejoin="round" /><polyline points="1113.35,733.79 1057.64,717.38 956.80,687.71" fill="none" stroke="#bcbcbc" stroke-width="8" stroke-linecap="round" stroke-linejoin="round" /><polyline points="933.52,-451.21 941.13,-445.96 1189.10,-390.79" fill="none" stroke="#bcbcbc" stroke-width="8" stroke-linecap="round" stroke-linejoin="round" /><polyline points="1239.82,365.22 1227.01,336.71 1198.57,268.88 1196.44,263.49 1191.58,251.11 1173.25,204.46 1172.09,201.43" fill="none" stroke="#bcbcbc" stroke-width="8" stroke-linecap="round" stroke-linejoin="round" /><polyline points="859.38,-262.83 845.61,-266.75 835.50,-269.76 814.93,-275.87 804.49,-278.85 798.50,-280.51 790.69,-282.75" fill="none" stroke="#bcbcbc" stroke-width="8" stroke-linecap="round" stroke-linejoin="round" /><polyline points="500.42,110.24 499.73,107.96 499.09,106.37 496.25,99.31 485.26,73.69 474.81,47.66 472.55,41.51 469.96,34.43 468.10,28.64 465.03,19.96 464.70,19.04 454.71,-5.59 436.36,-51.89 432.24,-54.23 429.31,-61.74 423.45,-82.08 413.43,-107.28 411.27,-113.01" fill="none" stroke="#bcbcbc" stroke-width="8" stroke-linecap="round" stroke-linejoin="round" /><polyline points="588.57,1031.86 598.99,1035.05 632.70,1045.32 643.26,1048.54" fill="none" stroke="#bcbcbc" stroke-width="8" stroke-linecap="round" stroke-linejoin="round" /><polyline points="1218.16,-274.90 1220.12,-282.84 1219.33,-285.86 1218.36,-289.50 1212.21,-312.05 1198.48,-359.72 1191.24,-384.09 1189.10,-390.79 1169.96,-459.58 1159.63,-496.68 1148.91,-525.22 1139.23,-550.96 1129.59,-568.65 1120.22,-578.00 1048.31,-665.88 1042.99,-672.13 1039.46,-677.91" fill="none" stroke="#bcbcbc" stroke-width="8" stroke-linecap="round" stroke-linejoin="round" /><polyline points="924.25,-111.36 920.54,-109.94 913.69,-108.05 913.00,-107.86 884.36,-100.53 851.43,-91.26 844.71,-89.37 841.71,-88.42 833.80,-85.88 827.04,-83.99 797.51,-75.78 748.94,-61.98 730.84,-57.41 724.02,-55.70 691.66,-47.75 671.67,-42.19 629.33,-30.36 587.48,-18.56 582.64,-17.22 547.66,-7.51 531.53,-3.04 523.39,0.81 507.97,8.46 477.34,24.00 475.21,25.08 468.10,28.64 463.76,30.81 457.71,33.98 436.19,45.27 396.98,67.26 364.24,84.42 359.55,86.87 353.29,87.26 349.53,89.26 348.78,89.66 313.25,109.13 305.81,109.10 297.27,113.57 294.29,115.12 291.77,116.44 285.84,119.55 281.16,130.22 261.05,140.99 254.66,144.42 247.74,148.18 219.76,163.41 205.30,171.28 198.01,173.38" fill="none" stroke="#bcbcbc" stroke-width="8" stroke-linecap="round" stroke-linejoin="round" /><polyline points="1326.89,546.25 1311.96,547.62 1265.33,551.89 1263.23,552.09 1260.25,552.36 1255.44,552.80 1210.22,556.95 1194.50,555.49 1176.18,560.08 1161.52,563.68 1153.70,565.60 1134.29,566.33 1117.49,565.48 1108.92,564.57 1101.63,562.36 1096.26,559.39 1076.27,545.26 1027.69,511.89 1023.11,508.78 1018.45,505.62 1014.96,502.25" fill="none" stroke="#bcbcbc" stroke-width="8" stroke-linecap="round" stroke-linejoin="round" /><polyline points="226.61,-17.05 244.24,17.45 246.91,27.32 261.76,55.65 267.89,63.75 292.71,112.04 294.29,115.12" fill="none" stroke="#bcbcbc" stroke-width="8" stroke-linecap="round" stroke-linejoin="round" /><polyline points="766.80,289.84 764.16,297.09 763.42,299.35 759.98,309.78 738.17,370.63 727.34,400.84 726.98,401.87 722.63,411.26 720.13,416.84" fill="none" stroke="#bcbcbc" stroke-width="8" stroke-linecap="round" stroke-linejoin="round" /><polyline points="1056.12,-244.13 1053.70,-249.30 1047.35,-250.14 1026.79,-245.42 1022.62,-245.97 1019.34,-250.35 1013.53,-277.10 1045.03,-281.98 1059.62,-286.28 1066.75,-287.02 1074.43,-259.71" fill="none" stroke="#bcbcbc" stroke-width="8" stroke-linecap="round" stroke-linejoin="round" /><polyline points="1169.98,51.64 1178.10,47.08 1218.86,22.52 1229.75,16.03 1248.82,4.66 1280.19,-15.62 1287.51,-20.88 1342.53,-55.02" fill="none" stroke="#bcbcbc" stroke-width="8" stroke-linecap="round" stroke-linejoin="round" /><polyline points="1362.32,212.86 1348.41,208.72 1340.32,202.09 1309.42,175.34 1308.37,174.40 1300.89,167.73 1296.50,159.95 1218.86,22.52" fill="none" stroke="#bcbcbc" stroke-width="8" stroke-linecap="round" stroke-linejoin="round" /><polyline points="486.10,201.97 607.92,239.46 617.86,242.61 708.77,271.42 710.66,272.03 724.28,276.35 730.98,278.47 739.68,280.85 757.63,286.92 766.80,289.84 775.06,292.46 842.71,313.91 914.13,336.35 920.04,338.21 928.23,334.19" fill="none" stroke="#bcbcbc" stroke-width="8" stroke-linecap="round" stroke-linejoin="round" /><polyline points="844.29,-399.43 897.06,-447.92 905.99,-456.13" fill="none" stroke="#bcbcbc" stroke-width="8" stroke-linecap="round" stroke-linejoin="round" /><polyline points="-39.35,382.93 154.28,403.69" fill="none" stroke="#bcbcbc" stroke-width="8" stroke-linecap="round" stroke-linejoin="round" /><polyline points="544.77,-157.50 585.47,-172.06 627.45,-187.23 653.53,-197.37 733.16,-226.33 756.27,-234.33 761.10,-236.00 766.89,-237.99 773.39,-240.22 774.18,-240.50 787.30,-245.77 793.00,-248.06" fill="none" stroke="#bcbcbc" stroke-width="8" stroke-linecap="round" stroke-linejoin="round" /><polyline points="818.11,827.29 856.42,874.56 879.88,898.17 890.03,905.48 904.41,917.52 917.91,928.86 929.51,940.18 929.80,945.93" fill="none" stroke="#bcbcbc" stroke-width="8" stroke-linecap="round" stroke-linejoin="round" /><polyline points="859.38,-262.83 874.40,-300.47 898.70,-362.43 933.52,-451.21 950.73,-493.26 976.37,-555.98 997.39,-607.34 1001.15,-614.16 1019.64,-644.39 1020.84,-646.34 1027.60,-659.64 1039.46,-677.91 1046.09,-688.11 1055.46,-702.53" fill="none" stroke="#bcbcbc" stroke-width="8" stroke-linecap="round" stroke-linejoin="round" /><polyline points="505.13,743.47 502.67,745.43 501.05,747.78 497.74,757.54 495.45,764.59 484.87,796.23 483.41,800.79 482.51,803.62 472.80,800.84 449.15,792.91 425.72,785.06 407.62,784.03" fill="none" stroke="#bcbcbc" stroke-width="8" stroke-linecap="round" stroke-linejoin="round" /><polyline points="42.12,963.60 80.73,863.89 85.03,853.03 88.88,842.58 93.54,829.95 99.25,810.07 105.20,785.38 107.64,767.68 109.41,754.82 111.91,745.34 121.00,674.04 131.61,584.07 137.11,541.18 143.24,490.79 154.28,403.69 156.04,388.88 167.20,297.79 167.21,292.72 169.67,265.69 176.79,208.60 178.58,198.64 180.44,193.06 183.35,186.91 186.18,182.13 192.43,175.37 198.02,173.45" fill="none" stroke="#bcbcbc" stroke-width="8" stroke-linecap="round" stroke-linejoin="round" /><polyline points="885.02,206.28 887.14,209.63 894.22,220.68 904.82,237.68 907.37,241.73 911.60,238.52 932.11,222.95" fill="none" stroke="#bcbcbc" stroke-width="8" stroke-linecap="round" stroke-linejoin="round" /><polyline points="898.70,-362.43 1107.32,-324.72 1129.23,-313.19 1210.96,-272.67 1218.16,-274.90" fill="none" stroke="#bcbcbc" stroke-width="8" stroke-linecap="round" stroke-linejoin="round" /><polyline points="500.42,110.24 496.72,115.64 463.44,131.88 439.00,162.95 412.62,179.28 394.58,192.90 377.37,206.94 368.54,214.98 352.96,234.76 335.53,259.74 332.66,264.37" fill="none" stroke="#bcbcbc" stroke-width="8" stroke-linecap="round" stroke-linejoin="round" /><polyline points="535.61,132.53 534.17,135.74 531.01,140.35 525.05,147.69 489.89,192.10 471.29,242.19 377.41,206.90" fill="none" stroke="#bcbcbc" stroke-width="8" stroke-linecap="round" stroke-linejoin="round" /><polyline points="394.58,192.90 390.94,181.90 375.23,134.33 369.14,124.94 358.93,94.31 358.05,91.67 359.55,86.87 357.10,79.07 308.02,-77.67" fill="none" stroke="#bcbcbc" stroke-width="8" stroke-linecap="round" stroke-linejoin="round" /><polyline points="969.78,-662.31 1008.58,-661.28 1010.39,-661.23 1017.82,-661.02 1027.60,-659.64" fill="none" stroke="#bcbcbc" stroke-width="8" stroke-linecap="round" stroke-linejoin="round" /><polyline points="770.23,601.47 756.98,601.31 644.82,616.36 636.73,617.21 627.49,618.19 573.81,623.85 501.50,631.49 463.16,635.54 441.95,637.77 424.73,639.87 415.89,640.94 405.93,642.15 357.82,648.00 346.29,649.40 310.76,653.28 121.00,674.04" fill="none" stroke="#bcbcbc" stroke-width="8" stroke-linecap="round" stroke-linejoin="round" /><polyline points="604.16,990.91 594.22,987.71 547.81,972.77 538.43,969.75 530.28,967.13 481.12,951.33 471.42,948.21 458.60,944.09 380.32,918.90 371.51,916.06" fill="none" stroke="#bcbcbc" stroke-width="8" stroke-linecap="round" stroke-linejoin="round" /><polyline points="798.22,51.27 825.22,59.68 923.94,90.16 924.86,90.45 932.18,90.91" fill="none" stroke="#bcbcbc" stroke-width="8" stroke-linecap="round" stroke-linejoin="round" /><polyline points="1076.00,-171.06 1210.29,-168.70" fill="none" stroke="#bcbcbc" stroke-width="8" stroke-linecap="round" stroke-linejoin="round" /><polyline points="1010.24,1008.76 991.05,985.94 982.99,976.57 976.07,970.11 966.86,963.23 948.02,951.93 929.80,945.93 892.72,934.48 862.39,924.86 879.88,898.17" fill="none" stroke="#bcbcbc" stroke-width="8" stroke-linecap="round" stroke-linejoin="round" /><polyline points="818.11,827.29 791.38,794.30 786.29,788.02 759.37,750.93 753.27,739.60 754.73,726.12 762.85,726.04 782.88,729.89 813.35,735.75" fill="none" stroke="#bcbcbc" stroke-width="8" stroke-linecap="round" stroke-linejoin="round" /><polyline points="468.42,562.93 473.35,573.54 501.50,631.49 543.36,717.67 548.70,728.66" fill="none" stroke="#bcbcbc" stroke-width="8" stroke-linecap="round" stroke-linejoin="round" /><polyline points="17.51,825.43 27.58,829.54 74.73,848.82 85.03,853.03 95.86,857.46 151.38,880.17 161.43,884.27" fill="none" stroke="#bcbcbc" stroke-width="8" stroke-linecap="round" stroke-linejoin="round" /><polyline points="491.59,477.00 589.84,519.99" fill="none" stroke="#bcbcbc" stroke-width="8" stroke-linecap="round" stroke-linejoin="round" /><polyline points="932.18,90.91 947.15,91.69 948.10,92.54 954.82,98.50 964.69,107.31 966.51,110.85 1000.52,140.64 1003.04,145.39 1026.96,166.50 1032.98,168.34 1051.59,184.63 1055.75,186.53 1083.81,210.34 1090.06,215.88 1093.51,221.36" fill="none" stroke="#bcbcbc" stroke-width="8" stroke-linecap="round" stroke-linejoin="round" /><polyline points="-10.23,477.10 143.24,490.79" fill="none" stroke="#bcbcbc" stroke-width="8" stroke-linecap="round" stroke-linejoin="round" /><polyline points="332.42,1048.53 337.18,1038.41 338.40,1033.91 345.06,1009.34 369.20,924.21 371.51,916.06 373.96,907.13 384.89,867.13 403.36,799.60 407.62,784.03" fill="none" stroke="#bcbcbc" stroke-width="8" stroke-linecap="round" stroke-linejoin="round" /><polyline points="468.42,562.93 491.59,477.00 442.46,459.82 429.60,467.41 423.73,471.87 419.39,477.75 416.34,485.50 405.04,527.26 414.15,531.90 423.36,534.13 443.72,539.43 458.96,544.29 468.42,562.93" fill="none" stroke="#bcbcbc" stroke-width="8" stroke-linecap="round" stroke-linejoin="round" /><polyline points="405.04,527.26 394.28,525.76 143.24,490.79" fill="none" stroke="#bcbcbc" stroke-width="8" stroke-linecap="round" stroke-linejoin="round" /><polyline points="813.35,735.75 836.63,740.84 899.61,760.86 917.22,766.43 959.01,778.50 1001.12,790.64 1032.29,799.65 1082.14,814.04 1092.43,817.01 1117.59,825.45 1159.01,836.48 1162.66,837.16" fill="none" stroke="#bcbcbc" stroke-width="8" stroke-linecap="round" stroke-linejoin="round" /><polyline points="842.89,1099.56 834.39,1101.69 825.20,1127.29 810.96,1123.25 746.19,1101.17 738.39,1099.51 721.05,1098.27 642.61,1098.58 625.32,1096.38 586.27,1090.41 570.52,1087.85 458.80,1069.83 415.54,1062.93 333.04,1048.64 319.71,1046.00 133.52,993.96 121.77,990.67 42.12,963.60 22.53,956.64 -26.42,936.36 -54.32,925.81" fill="none" stroke="#bcbcbc" stroke-width="8" stroke-linecap="round" stroke-linejoin="round" /><polyline points="1013.53,-277.10 1005.47,-278.76 897.85,-266.04 859.38,-262.83" fill="none" stroke="#bcbcbc" stroke-width="8" stroke-linecap="round" stroke-linejoin="round" /><polyline points="813.35,735.75 817.12,729.45 839.70,671.45 864.93,583.75 871.37,564.87 874.81,559.73 899.17,481.53 900.38,472.19 901.31,466.09" fill="none" stroke="#bcbcbc" stroke-width="8" stroke-linecap="round" stroke-linejoin="round" /><polyline points="924.25,-111.36 926.82,-112.34 930.31,-115.11 935.60,-121.30 1004.32,-219.89 1022.62,-245.97" fill="none" stroke="#bcbcbc" stroke-width="8" stroke-linecap="round" stroke-linejoin="round" /><polyline points="1230.07,250.81 1231.47,246.76 1266.01,206.13 1268.55,204.78 1274.55,196.57 1294.64,173.48 1300.89,167.73" fill="none" stroke="#bcbcbc" stroke-width="8" stroke-linecap="round" stroke-linejoin="round" /><polyline points="1260.25,552.36 1259.77,546.92 1259.40,542.72 1257.58,534.68 1255.41,529.43 1252.70,515.65 1252.45,510.66 1250.61,499.50 1242.39,495.21 1235.82,497.72 1224.06,500.53 1214.75,501.99 1205.82,504.14 1193.49,506.95 1187.87,508.24" fill="none" stroke="#bcbcbc" stroke-width="8" stroke-linecap="round" stroke-linejoin="round" /><polyline points="352.80,352.80 377.92,293.92 379.32,290.09" fill="none" stroke="#bcbcbc" stroke-width="8" stroke-linecap="round" stroke-linejoin="round" /><polyline points="1014.81,244.83 1026.92,240.14 1033.24,237.68 1038.14,232.73 1058.32,227.75 1065.10,229.48 1079.71,225.71 1090.85,222.84 1093.51,221.36 1104.31,218.72 1159.57,205.18 1172.09,201.43" fill="none" stroke="#bcbcbc" stroke-width="8" stroke-linecap="round" stroke-linejoin="round" /><polyline points="505.13,743.47 531.20,734.00 539.92,731.34 548.70,728.66 564.90,723.71 577.50,721.90 620.54,717.19 629.18,716.72 667.69,717.05 691.15,717.25 699.97,716.79 714.10,718.23 718.52,718.86 727.53,720.15 754.73,726.12" fill="none" stroke="#bcbcbc" stroke-width="8" stroke-linecap="round" stroke-linejoin="round" /><polyline points="629.33,-30.36 625.01,-44.96 608.97,-99.18 589.49,-161.02 585.47,-172.06 581.38,-182.40 576.22,-197.31" fill="none" stroke="#bcbcbc" stroke-width="8" stroke-linecap="round" stroke-linejoin="round" /><polyline points="582.68,843.99 586.10,833.17 620.76,723.91 620.54,717.19" fill="none" stroke="#bcbcbc" stroke-width="8" stroke-linecap="round" stroke-linejoin="round" /><polyline points="629.18,716.72 636.05,624.72 636.73,617.21 637.78,608.49 637.80,608.09 638.25,597.42 640.54,568.46 641.83,554.97 643.59,539.65 645.20,528.62 646.65,521.69 648.46,516.46 652.03,504.66 659.39,480.10 668.75,448.39 679.07,415.96 681.17,409.35 682.86,404.56" fill="none" stroke="#bcbcbc" stroke-width="8" stroke-linecap="round" stroke-linejoin="round" /><polyline points="405.04,527.26 403.21,535.41 403.53,538.02 414.71,631.08 415.89,640.94 415.38,651.08 412.45,708.97 411.23,733.15 410.60,745.62 409.47,767.86 408.88,779.44 407.62,784.03" fill="none" stroke="#bcbcbc" stroke-width="8" stroke-linecap="round" stroke-linejoin="round" /><polyline points="1093.51,221.36 1094.92,223.21 1100.81,232.00 1111.71,248.24 1121.96,258.51 1141.68,280.65 1138.35,301.10 1136.66,308.77 1134.30,312.01 1139.25,319.33 1146.89,335.06 1162.18,364.55 1169.70,379.07 1174.38,392.11 1176.49,398.17" fill="none" stroke="#bcbcbc" stroke-width="8" stroke-linecap="round" stroke-linejoin="round" /><polyline points="1196.45,263.49 1190.78,265.25 1153.46,276.86 1148.10,278.58 1141.68,280.65" fill="none" stroke="#bcbcbc" stroke-width="8" stroke-linecap="round" stroke-linejoin="round" /><polyline points="928.23,334.19 939.90,330.41 1024.62,287.15 1035.96,281.61 1075.89,270.07 1114.61,259.19 1121.96,258.51" fill="none" stroke="#bcbcbc" stroke-width="8" stroke-linecap="round" stroke-linejoin="round" /><polyline points="937.46,387.75 1035.13,342.29 1039.24,339.57 1048.79,336.80 1113.88,317.86 1123.75,314.08 1134.30,312.01" fill="none" stroke="#bcbcbc" stroke-width="8" stroke-linecap="round" stroke-linejoin="round" /><polyline points="917.53,-565.11 957.06,-560.23 961.04,-559.74 976.37,-555.98" fill="none" stroke="#bcbcbc" stroke-width="8" stroke-linecap="round" stroke-linejoin="round" /><polyline points="1255.40,-163.15 1262.41,-164.61 1288.61,-151.77 1292.06,-148.36 1341.24,-65.11 1342.53,-55.02 1348.93,-49.69 1347.91,-46.01 1347.76,-40.01 1348.65,-31.62 1361.67,21.91 1362.82,58.99 1364.65,118.19 1367.71,197.87 1355.24,232.59 1347.20,253.76 1335.47,283.59 1332.07,292.21 1329.87,294.62 1326.32,317.71" fill="none" stroke="#bcbcbc" stroke-width="8" stroke-linecap="round" stroke-linejoin="round" /><polyline points="1346.32,458.33 1334.36,453.12 1304.47,432.26 1265.04,404.56 1243.35,387.02 1228.72,371.35" fill="none" stroke="#bcbcbc" stroke-width="8" stroke-linecap="round" stroke-linejoin="round" /><polyline points="862.39,924.86 850.65,921.13 831.59,915.09 822.49,912.21 811.81,908.82 798.31,904.54 786.10,900.67 774.03,896.84 720.23,879.77 710.81,876.78 699.10,873.07 696.52,872.26 665.75,864.12 657.06,862.02 646.16,859.39 634.77,856.62 593.70,846.66 582.68,843.99 570.84,839.88 546.11,831.29 536.79,828.06 528.46,825.35 489.73,811.58 484.86,808.68 482.51,803.62" fill="none" stroke="#bcbcbc" stroke-width="8" stroke-linecap="round" stroke-linejoin="round" /><polyline points="1039.24,339.57 1036.39,329.35 1027.89,298.87 1024.62,287.15 1019.89,278.39 1019.45,276.76 1016.67,266.44 1019.91,261.87 1016.02,248.86 1014.81,244.83" fill="none" stroke="#bcbcbc" stroke-width="8" stroke-linecap="round" stroke-linejoin="round" /><polyline points="1025.03,-33.43 1033.11,-37.23 1077.26,-61.57 1102.50,-77.81 1120.30,-89.95 1124.24,-92.88 1138.56,-102.84 1153.41,-113.80 1162.81,-120.64 1174.02,-128.84 1212.97,-146.42 1218.02,-146.15 1225.41,-149.64 1255.40,-163.15" fill="none" stroke="#bcbcbc" stroke-width="8" stroke-linecap="round" stroke-linejoin="round" /><polyline points="535.61,132.53 541.98,135.11 546.19,136.40 625.15,160.66 637.21,164.36" fill="none" stroke="#bcbcbc" stroke-width="8" stroke-linecap="round" stroke-linejoin="round" /><polyline points="-28.40,310.10 -84.82,293.02" fill="none" stroke="#bcbcbc" stroke-width="8" stroke-linecap="round" stroke-linejoin="round" /><polyline points="882.85,-485.44 896.84,-467.72 898.93,-465.07 905.99,-456.13 914.04,-455.18 930.58,-453.24 933.52,-451.21" fill="none" stroke="#bcbcbc" stroke-width="8" stroke-linecap="round" stroke-linejoin="round" /><polyline points="1368.56,302.66 1346.40,306.80 1323.67,319.15 1302.61,330.87 1282.68,340.84 1258.60,353.91 1241.17,364.50 1206.72,382.97 1072.22,450.63 1037.36,465.99 1014.32,475.95 1002.90,479.69 993.46,481.45 978.00,482.39 956.00,479.28 901.10,466.09 823.16,447.93 720.63,417.01 682.86,404.56 621.01,385.46 561.86,365.95 475.10,331.91 431.72,313.23 379.42,289.99 292.66,242.46 272.32,228.97 220.85,196.59 199.27,175.00 166.89,133.08 113.55,78.08 92.58,59.61" fill="none" stroke="#bcbcbc" stroke-width="8" stroke-linecap="round" stroke-linejoin="round" /><polyline points="948.02,951.93 948.93,946.86 952.21,938.58 982.98,866.59 994.60,839.61 1008.30,805.98 1011.64,793.67" fill="none" stroke="#bcbcbc" stroke-width="8" stroke-linecap="round" stroke-linejoin="round" /><polyline points="357.82,648.00 322.88,631.08 243.35,592.60 145.81,545.39 137.11,541.18" fill="none" stroke="#bcbcbc" stroke-width="8" stroke-linecap="round" stroke-linejoin="round" /><polyline points="932.18,90.91 941.01,81.87 964.47,57.85 983.09,37.52" fill="none" stroke="#bcbcbc" stroke-width="8" stroke-linecap="round" stroke-linejoin="round" /><polyline points="254.66,144.42 244.96,131.58 199.53,71.43 134.68,18.96" fill="none" stroke="#bcbcbc" stroke-width="8" stroke-linecap="round" stroke-linejoin="round" /><polyline points="-26.77,936.21 -17.90,915.18 10.30,844.89 13.71,835.66 17.51,825.43 18.94,821.73 19.33,815.95 22.94,761.30 23.97,745.63" fill="none" stroke="#bcbcbc" stroke-width="8" stroke-linecap="round" stroke-linejoin="round" /><polyline points="-46.00,371.15 -28.40,310.10 -5.18,229.57 -2.30,219.60 0.89,208.28 8.05,182.93 8.80,180.27 10.85,172.11 14.12,162.90 14.91,160.67 19.04,150.44 27.14,132.56 29.57,127.42" fill="none" stroke="#bcbcbc" stroke-width="8" stroke-linecap="round" stroke-linejoin="round" /><polyline points="-2.30,219.60 33.31,228.71 108.76,248.11 151.74,261.49 169.67,265.69" fill="none" stroke="#bcbcbc" stroke-width="8" stroke-linecap="round" stroke-linejoin="round" /><polyline points="730.84,-57.41 732.05,-64.82 733.27,-72.51 738.49,-98.25 751.55,-158.17 762.27,-211.77 764.23,-222.89 766.89,-237.99 766.89,-238.00" fill="none" stroke="#bcbcbc" stroke-width="8" stroke-linecap="round" stroke-linejoin="round" /><polyline points="625.38,1096.39 641.29,1055.83 643.26,1048.54 706.37,888.34 710.81,876.78 714.39,866.98 752.10,757.26 759.37,750.93" fill="none" stroke="#bcbcbc" stroke-width="8" stroke-linecap="round" stroke-linejoin="round" /><polyline points="841.71,-88.42 841.71,-88.43 839.47,-100.17 839.12,-101.59 833.67,-123.76 833.68,-123.83 829.96,-138.86 814.21,-192.84 812.22,-198.62 801.59,-227.53 798.13,-236.16 795.90,-241.73 793.01,-248.05 793.00,-248.06 793.00,-248.09 790.89,-271.33 790.69,-282.75" fill="none" stroke="#bcbcbc" stroke-width="8" stroke-linecap="round" stroke-linejoin="round" /><polyline points="818.11,827.29 814.06,831.67 808.02,838.85 791.02,886.79 786.10,900.67" fill="none" stroke="#bcbcbc" stroke-width="8" stroke-linecap="round" stroke-linejoin="round" /><polyline points="535.61,132.53 537.93,126.23 538.46,124.77 549.50,93.93 553.64,80.94 587.48,-18.56" fill="none" stroke="#bcbcbc" stroke-width="8" stroke-linecap="round" stroke-linejoin="round" /><polyline points="710.66,272.03 714.12,262.85 723.47,238.02 727.42,227.51 730.10,220.41 737.60,200.47 742.56,187.31 743.23,185.54 755.23,153.64 760.25,155.19 762.97,147.79 767.79,134.69 766.86,128.74 779.64,93.96 780.95,90.39 783.38,88.16 785.41,86.29 798.22,51.27 800.07,41.68 818.46,-9.39 822.80,-12.79 831.65,-37.81 830.07,-41.65 837.82,-65.01 833.80,-85.88" fill="none" stroke="#bcbcbc" stroke-width="8" stroke-linecap="round" stroke-linejoin="round" /><polyline points="1039.46,-677.91 1034.31,-686.36 1007.25,-730.76" fill="none" stroke="#bcbcbc" stroke-width="8" stroke-linecap="round" stroke-linejoin="round" /><polyline points="1124.24,-92.88 1248.44,-13.01 1248.47,-12.96 1248.47,-12.95 1271.44,-9.96" fill="none" stroke="#bcbcbc" stroke-width="8" stroke-linecap="round" stroke-linejoin="round" /><polyline points="1074.43,-259.71 1206.57,-193.38 1210.56,-190.41 1210.29,-168.70 1212.97,-146.42" fill="none" stroke="#bcbcbc" stroke-width="8" stroke-linecap="round" stroke-linejoin="round" /><polyline points="822.49,912.21 817.74,926.71 798.48,985.43 765.73,1084.32 763.41,1091.34 761.06,1098.44 760.40,1106.02" fill="none" stroke="#bcbcbc" stroke-width="8" stroke-linecap="round" stroke-linejoin="round" /><polyline points="1194.50,555.49 1195.29,548.13 1195.46,541.25 1195.40,541.01 1190.72,520.77 1188.80,512.32 1187.87,508.24 1186.93,504.07 1181.79,481.42 1171.74,436.17 1164.45,408.96 1163.41,404.76" fill="none" stroke="#bcbcbc" stroke-width="8" stroke-linecap="round" stroke-linejoin="round" /><polyline points="538.43,969.75 541.70,960.44 578.50,855.86 582.68,843.99" fill="none" stroke="#bcbcbc" stroke-width="8" stroke-linecap="round" stroke-linejoin="round" /><polyline points="1364.65,118.19 1353.82,115.13 1280.30,2.32 1271.44,-9.96" fill="none" stroke="#bcbcbc" stroke-width="8" stroke-linecap="round" stroke-linejoin="round" /><polyline points="156.04,388.88 423.98,453.07 442.46,459.82" fill="none" stroke="#bcbcbc" stroke-width="8" stroke-linecap="round" stroke-linejoin="round" /><polyline points="1001.15,-614.16 1105.53,-575.49 1120.22,-578.00" fill="none" stroke="#bcbcbc" stroke-width="8" stroke-linecap="round" stroke-linejoin="round" />
    <polyline points="352.80,352.80 312.16,340.72 306.99,337.41 281.69,330.04 274.59,330.11 242.80,320.54 237.67,316.75 208.75,307.98 173.26,298.31 173.09,298.29 167.20,297.79" fill="none" stroke="#ffffff" stroke-width="16" stroke-linecap="round" stroke-linejoin="round" />
    <polyline points="352.80,352.80 312.16,340.72 306.99,337.41 281.69,330.04 274.59,330.11 242.80,320.54 237.67,316.75 208.75,307.98 173.26,298.31 173.09,298.29 167.20,297.79" fill="none" stroke="#111111" stroke-width="9" stroke-linecap="round" stroke-linejoin="round" />
    
            <g transform="translate(352.80,352.80)">
              <circle r="19" fill="#ffffff" stroke="#111111" stroke-width="4" />
              <text text-anchor="middle" dominant-baseline="central" font-family="Helvetica, Arial, sans-serif"
                font-size="18" font-weight="700" fill="#111111">1</text>
            </g>
            
            <g transform="translate(167.20,297.79)">
              <circle r="19" fill="#ffffff" stroke="#111111" stroke-width="4" />
              <text text-anchor="middle" dominant-baseline="central" font-family="Helvetica, Arial, sans-serif"
                font-size="18" font-weight="700" fill="#111111">2</text>
            </g>
            
  </g>
</svg>
