<svg xmlns="http://www.w3.org/2000/svg" width="520" height="520" viewBox="0 0 520 520">
  <rect width="100%" height="100%" fill="#ffffff" />
  <g>
    <polyline points="337.14,-236.43 339.74,-222.57 356.55,-105.02 353.98,-75.63" fill="none" stroke="#bcbcbc" stroke-width="8" stroke-linecap="round" stroke-linejoin="round" /><polyline points="-4.43,743.23 -0.37,730.74 21.16,664.53 23.70,656.73 26.26,648.54 80.39,475.93 84.75,462.05 74.78,437.49" fill="none" stroke="#bcbcbc" stroke-width="8" stroke-linecap="round" stroke-linejoin="round" /><polyline points="-378.33,589.70 -379.20,579.79 -361.50,480.67 -359.02,468.27 -357.17,461.78 -352.30,436.64 -346.82,405.88 -340.86,378.78 -334.94,351.75 -331.22,344.13 -328.78,339.45" fill="none" stroke="#bcbcbc" stroke-width="8" stroke-linecap="round" stroke-linejoin="round" /><polyline points="-275.61,-109.45 -279.81,-122.28 -323.30,-254.91 -325.43,-260.48" fill="none" stroke="#bcbcbc" stroke-width="8" stroke-linecap="round" stroke-linejoin="round" /><polyline points="-498.76,1057.89 -497.46,1045.24 -496.93,1039.43 -492.20,987.06 -487.02,940.95 -485.81,930.18 -484.68,917.26 -484.56,916.18 -481.62,890.49 -479.08,864.39 -476.29,839.20 -474.41,819.58 -473.63,807.48 -472.94,796.30 -471.70,783.71" fill="none" stroke="#bcbcbc" stroke-width="8" stroke-linecap="round" stroke-linejoin="round" /><polyline points="102.15,774.00 105.25,764.26 127.07,695.66 129.55,687.87 133.08,676.77 135.60,668.81 154.92,585.50" fill="none" stroke="#bcbcbc" stroke-width="8" stroke-linecap="round" stroke-linejoin="round" /><polyline points="17.32,-582.95 25.38,-581.71 247.45,-547.59" fill="none" stroke="#bcbcbc" stroke-width="8" stroke-linecap="round" stroke-linejoin="round" /><polyline points="-552.78,757.84 -575.90,756.76 -589.99,756.11 -597.65,755.75 -604.36,755.44 -656.71,753.00 -729.51,749.62 -764.21,744.70 -775.82,743.05 -785.90,741.27 -854.15,729.23 -863.69,727.54 -865.81,727.18 -877.59,725.16 -886.65,723.61 -944.48,718.50 -955.50,717.52 -959.54,717.16 -972.04,716.30 -996.52,714.60" fill="none" stroke="#bcbcbc" stroke-width="8" stroke-linecap="round" stroke-linejoin="round" /><polyline points="-216.97,690.78 -212.49,678.03 -172.15,566.20 -123.61,425.14 -120.50,416.29 -118.34,410.11 -116.58,405.03" fill="none" stroke="#bcbcbc" stroke-width="8" stroke-linecap="round" stroke-linejoin="round" /><polyline points="-959.54,717.16 -960.57,709.97 -960.81,702.16 -959.28,686.44 -955.77,657.72 -953.42,648.08 -949.62,613.23 -948.93,605.47 -947.81,595.49 -946.99,588.08 -945.43,579.68 -942.54,557.08 -940.53,539.79 -937.58,532.71" fill="none" stroke="#bcbcbc" stroke-width="8" stroke-linecap="round" stroke-linejoin="round" /><polyline points="-1000.83,523.88 -947.02,531.40 -937.58,532.71 -931.74,533.65 -907.62,537.49 -852.04,546.35 -842.50,547.93" fill="none" stroke="#bcbcbc" stroke-width="8" stroke-linecap="round" stroke-linejoin="round" /><polyline points="-10.47,-182.06 -10.12,-177.17 -9.40,-172.21 -7.65,-168.42 -4.38,-164.19 1.68,-158.68 16.02,-149.96 126.66,-80.54 194.80,10.82 246.27,137.84 249.63,146.23" fill="none" stroke="#bcbcbc" stroke-width="8" stroke-linecap="round" stroke-linejoin="round" /><polyline points="-28.19,188.58 -25.89,192.37 -25.30,193.36 -23.40,202.94 -10.42,265.71 -6.30,285.64 -3.35,299.83 1.25,328.59 3.39,341.85 4.88,349.95 6.50,357.26 8.43,361.52 11.27,366.46 12.80,368.79 41.54,409.94 57.09,434.43 61.15,440.28" fill="none" stroke="#bcbcbc" stroke-width="8" stroke-linecap="round" stroke-linejoin="round" /><polyline points="-853.49,974.56 -851.97,965.14 -850.54,958.33 -850.16,957.42 -831.03,911.93 -818.84,882.36 -815.13,872.99 -811.21,863.06 -806.95,854.53 -806.26,852.86 -800.42,838.76 -795.91,826.28 -792.04,814.84 -789.59,806.74 -786.83,796.75 -783.66,783.34 -781.25,772.47 -778.37,757.29 -777.76,753.90 -775.82,743.05" fill="none" stroke="#bcbcbc" stroke-width="8" stroke-linecap="round" stroke-linejoin="round" /><polyline points="73.58,-295.99 134.59,-253.35 142.81,-251.61 148.82,-244.73" fill="none" stroke="#bcbcbc" stroke-width="8" stroke-linecap="round" stroke-linejoin="round" /><polyline points="-182.62,97.74 -174.55,100.84 -139.54,112.30 -58.34,143.44 -53.78,147.98 -51.65,151.37" fill="none" stroke="#bcbcbc" stroke-width="8" stroke-linecap="round" stroke-linejoin="round" /><polyline points="-31.30,897.97 -25.77,883.56 1.53,809.49 20.84,753.53 24.84,751.69" fill="none" stroke="#bcbcbc" stroke-width="8" stroke-linecap="round" stroke-linejoin="round" /><polyline points="-417.19,804.05 -412.88,794.53 -412.45,793.59 -405.08,768.87 -393.01,728.17 -389.92,717.76 -387.52,709.67 -387.19,704.95 -387.68,694.52" fill="none" stroke="#bcbcbc" stroke-width="8" stroke-linecap="round" stroke-linejoin="round" /><polyline points="84.59,191.83 77.67,193.26 61.98,190.47 59.55,184.00 32.38,173.64 25.95,175.32 1.43,166.31 -2.22,168.87" fill="none" stroke="#bcbcbc" stroke-width="8" stroke-linecap="round" stroke-linejoin="round" /><polyline points="44.24,-648.78 56.55,-645.76 63.36,-644.58 225.36,-616.49" fill="none" stroke="#bcbcbc" stroke-width="8" stroke-linecap="round" stroke-linejoin="round" /><polyline points="-81.67,852.86 -74.93,833.87 -61.84,796.94 -53.37,781.21 -41.20,747.12 -36.34,733.51" fill="none" stroke="#bcbcbc" stroke-width="8" stroke-linecap="round" stroke-linejoin="round" /><polyline points="-969.27,115.50 -981.00,114.96 -983.94,118.54 -1004.38,143.37 -1075.84,225.91 -1085.89,237.52" fill="none" stroke="#bcbcbc" stroke-width="8" stroke-linecap="round" stroke-linejoin="round" /><polyline points="-342.52,186.19 -347.70,197.66 -348.33,199.05 -366.32,245.97 -384.46,297.63 -389.30,311.41 -392.04,318.52" fill="none" stroke="#bcbcbc" stroke-width="8" stroke-linecap="round" stroke-linejoin="round" /><polyline points="-78.56,-341.06 -72.85,-333.30 -68.76,-322.64 -62.41,-307.33 -52.22,-283.25 -43.19,-261.64 -32.83,-237.91 -25.14,-219.62 -24.00,-216.99 -23.93,-216.83 -17.74,-202.37 -15.89,-198.25 -14.13,-194.34 -12.27,-190.67 -10.87,-186.95 -10.47,-182.06" fill="none" stroke="#bcbcbc" stroke-width="8" stroke-linecap="round" stroke-linejoin="round" /><polyline points="-516.21,417.51 -513.21,415.87 -509.03,412.55 -506.93,408.23 -479.13,302.81 -478.29,296.87 -474.90,286.01" fill="none" stroke="#bcbcbc" stroke-width="8" stroke-linecap="round" stroke-linejoin="round" /><polyline points="455.93,252.54 459.87,265.06 462.65,278.21 457.24,328.31 451.00,366.00 447.59,378.86 447.28,380.02 444.29,386.96 440.22,394.32 430.71,406.35 435.31,429.87 420.41,480.36 412.18,508.24 395.35,553.88 370.71,609.45 340.61,662.70 331.21,680.01 314.22,708.44 246.33,804.80 231.45,824.84 173.85,900.12 140.78,937.74 94.53,984.75 90.25,985.20 79.80,993.74" fill="none" stroke="#bcbcbc" stroke-width="8" stroke-linecap="round" stroke-linejoin="round" /><polyline points="-381.79,1076.76 -362.84,1017.98 -359.73,1008.28 -355.52,1002.16 -346.47,975.00 -343.53,965.77 -306.14,848.71 -302.38,836.94 -299.28,826.59 -255.16,687.73" fill="none" stroke="#bcbcbc" stroke-width="8" stroke-linecap="round" stroke-linejoin="round" /><polyline points="62.17,-16.32 78.56,-34.22 83.39,-40.04 116.49,-86.93" fill="none" stroke="#bcbcbc" stroke-width="8" stroke-linecap="round" stroke-linejoin="round" /><polyline points="-265.28,-9.22 -220.16,6.48 -217.67,10.53 -204.86,14.83 -197.26,17.43 -160.89,29.71" fill="none" stroke="#bcbcbc" stroke-width="8" stroke-linecap="round" stroke-linejoin="round" /><polyline points="127.96,-321.43 148.82,-244.73 172.98,-154.37 176.64,-146.84 177.23,-138.24 193.61,-107.66 237.82,-25.22 247.48,-10.96 250.28,-6.79 316.33,116.70 346.68,144.29 350.94,149.79 356.94,154.92 414.58,204.20 418.49,207.55 428.84,213.04" fill="none" stroke="#bcbcbc" stroke-width="8" stroke-linecap="round" stroke-linejoin="round" /><polyline points="-96.20,1089.23 47.54,1005.74 73.13,992.65 79.80,993.74" fill="none" stroke="#bcbcbc" stroke-width="8" stroke-linecap="round" stroke-linejoin="round" /><polyline points="59.65,969.79 68.57,959.18 148.63,799.43 153.94,788.95 158.37,778.58 184.23,714.63 191.93,695.36 214.22,627.90 228.67,541.17 230.39,528.54" fill="none" stroke="#bcbcbc" stroke-width="8" stroke-linecap="round" stroke-linejoin="round" /><polyline points="-2.14,30.26 -3.54,31.69 -5.47,38.42 -5.67,39.09 -14.35,72.54 -12.07,81.28 -13.97,89.11 -16.45,99.36 -22.81,106.72 -30.03,135.95 -38.53,142.37 -47.60,148.60 -51.65,151.37" fill="none" stroke="#bcbcbc" stroke-width="8" stroke-linecap="round" stroke-linejoin="round" /><polyline points="-342.52,186.19 -338.83,176.72 -316.62,119.78 -311.77,107.37 -307.78,97.14 -279.40,24.42 -266.62,-5.98 -265.28,-9.22 -255.35,-33.23 -233.07,-88.56 -224.91,-112.11 -223.09,-117.51 -220.65,-123.64" fill="none" stroke="#bcbcbc" stroke-width="8" stroke-linecap="round" stroke-linejoin="round" /><polyline points="-93.97,-158.98 -89.67,-146.19 51.30,-25.78 128.22,41.14 243.11,141.02 253.14,149.04 257.63,151.85 277.57,169.94 304.19,192.65 364.58,244.14 384.09,260.92 397.03,276.40" fill="none" stroke="#bcbcbc" stroke-width="8" stroke-linecap="round" stroke-linejoin="round" /><polyline points="139.11,-366.46 146.26,-371.04 188.62,-388.64 197.32,-397.80" fill="none" stroke="#bcbcbc" stroke-width="8" stroke-linecap="round" stroke-linejoin="round" /><polyline points="188.03,705.10 129.55,687.87 23.70,656.73" fill="none" stroke="#bcbcbc" stroke-width="8" stroke-linecap="round" stroke-linejoin="round" /><polyline points="-0.74,-538.80 7.25,-533.30 267.54,-475.38" fill="none" stroke="#bcbcbc" stroke-width="8" stroke-linecap="round" stroke-linejoin="round" /><polyline points="320.79,318.21 307.33,288.28 277.48,217.08 275.25,211.42 270.15,198.42 250.90,149.45 249.69,146.28" fill="none" stroke="#bcbcbc" stroke-width="8" stroke-linecap="round" stroke-linejoin="round" /><polyline points="-78.56,-341.06 -93.02,-345.17 -103.63,-348.33 -125.22,-354.74 -136.18,-357.87 -142.47,-359.62 -150.67,-361.97" fill="none" stroke="#bcbcbc" stroke-width="8" stroke-linecap="round" stroke-linejoin="round" /><polyline points="-455.36,50.55 -456.09,48.16 -456.77,46.49 -459.74,39.09 -471.28,12.19 -482.25,-15.14 -484.62,-21.59 -487.34,-29.02 -489.30,-35.10 -492.52,-44.22 -492.86,-45.17 -503.35,-71.03 -522.61,-119.63 -526.94,-122.10 -530.01,-129.98 -536.16,-151.32 -546.68,-177.77 -548.95,-183.79" fill="none" stroke="#bcbcbc" stroke-width="8" stroke-linecap="round" stroke-linejoin="round" /><polyline points="-362.84,1017.98 -351.90,1021.33 -316.51,1032.12 -305.42,1035.49" fill="none" stroke="#bcbcbc" stroke-width="8" stroke-linecap="round" stroke-linejoin="round" /><polyline points="298.05,-353.73 300.11,-362.07 299.27,-365.23 298.26,-369.06 291.80,-392.73 277.40,-442.77 269.79,-468.35 267.54,-475.38 247.45,-547.59 236.61,-586.54 225.36,-616.49 215.20,-643.51 205.08,-662.08 195.24,-671.90 119.76,-764.14 114.17,-770.71 110.47,-776.78" fill="none" stroke="#bcbcbc" stroke-width="8" stroke-linecap="round" stroke-linejoin="round" /><polyline points="-10.47,-182.06 -14.36,-180.57 -21.56,-178.58 -22.28,-178.39 -52.34,-170.70 -86.91,-160.97 -93.97,-158.98 -97.11,-157.98 -105.41,-155.31 -112.51,-153.34 -143.51,-144.71 -194.49,-130.23 -213.50,-125.42 -220.65,-123.64 -254.62,-115.29 -275.61,-109.45 -320.05,-97.03 -363.98,-84.65 -369.06,-83.24 -405.77,-73.05 -422.71,-68.35 -431.26,-64.31 -447.45,-56.29 -479.59,-39.97 -481.83,-38.83 -489.30,-35.10 -493.85,-32.82 -500.20,-29.49 -522.79,-17.65 -563.94,5.44 -598.32,23.45 -603.24,26.03 -609.81,26.44 -613.75,28.53 -614.54,28.95 -651.83,49.39 -659.64,49.35 -668.61,54.04 -671.74,55.68 -674.38,57.06 -680.62,60.33 -685.53,71.53 -706.64,82.83 -713.35,86.43 -720.61,90.38 -749.97,106.36 -765.16,114.62 -772.81,116.83" fill="none" stroke="#bcbcbc" stroke-width="8" stroke-linecap="round" stroke-linejoin="round" /><polyline points="412.18,508.24 396.51,509.68 347.56,514.16 345.35,514.36 342.23,514.65 337.18,515.12 289.72,519.47 273.21,517.94 253.99,522.76 238.59,526.53 230.39,528.54 210.01,529.32 192.37,528.42 183.38,527.46 175.73,525.15 170.09,522.03 149.10,507.19 98.11,472.17 93.30,468.91 88.41,465.59 84.75,462.05" fill="none" stroke="#bcbcbc" stroke-width="8" stroke-linecap="round" stroke-linejoin="round" /><polyline points="-742.78,-83.07 -724.28,-46.84 -721.48,-36.49 -705.89,-6.75 -699.46,1.76 -673.40,52.44 -671.74,55.68" fill="none" stroke="#bcbcbc" stroke-width="8" stroke-linecap="round" stroke-linejoin="round" /><polyline points="-175.74,239.08 -178.51,246.69 -179.29,249.06 -182.91,260.02 -205.80,323.88 -217.16,355.60 -217.55,356.68 -222.11,366.54 -224.73,372.40" fill="none" stroke="#bcbcbc" stroke-width="8" stroke-linecap="round" stroke-linejoin="round" /><polyline points="127.96,-321.43 125.42,-326.86 118.75,-327.74 97.17,-322.79 92.79,-323.36 89.35,-327.96 83.24,-356.04 116.31,-361.16 131.62,-365.68 139.11,-366.46 147.17,-337.79" fill="none" stroke="#bcbcbc" stroke-width="8" stroke-linecap="round" stroke-linejoin="round" /><polyline points="247.48,-10.96 256.00,-15.75 298.78,-41.53 310.22,-48.34 330.23,-60.27 363.16,-81.56 370.85,-87.09 428.61,-122.92" fill="none" stroke="#bcbcbc" stroke-width="8" stroke-linecap="round" stroke-linejoin="round" /><polyline points="449.38,158.28 434.78,153.93 426.29,146.97 393.84,118.89 392.74,117.91 384.89,110.90 380.28,102.73 298.78,-41.53" fill="none" stroke="#bcbcbc" stroke-width="8" stroke-linecap="round" stroke-linejoin="round" /><polyline points="-470.40,146.85 -342.52,186.19 -332.09,189.50 -236.67,219.75 -234.67,220.38 -220.38,224.92 -213.35,227.15 -204.21,229.64 -185.38,236.02 -175.74,239.08 -167.07,241.83 -96.06,264.35 -21.09,287.91 -14.89,289.85 -6.30,285.64" fill="none" stroke="#bcbcbc" stroke-width="8" stroke-linecap="round" stroke-linejoin="round" /><polyline points="-94.41,-484.46 -39.01,-535.35 -29.64,-543.97" fill="none" stroke="#bcbcbc" stroke-width="8" stroke-linecap="round" stroke-linejoin="round" /><polyline points="-1021.96,336.80 -818.71,358.59" fill="none" stroke="#bcbcbc" stroke-width="8" stroke-linecap="round" stroke-linejoin="round" /><polyline points="-408.81,-230.50 -366.09,-245.77 -322.03,-261.70 -294.65,-272.35 -211.06,-302.75 -186.79,-311.14 -181.73,-312.89 -175.65,-314.98 -168.83,-317.33 -168.00,-317.62 -154.23,-323.15 -148.24,-325.56" fill="none" stroke="#bcbcbc" stroke-width="8" stroke-linecap="round" stroke-linejoin="round" /><polyline points="-121.89,803.25 -81.67,852.86 -57.05,877.65 -46.39,885.33 -31.30,897.97 -17.12,909.87 -4.95,921.75 -4.65,927.79" fill="none" stroke="#bcbcbc" stroke-width="8" stroke-linecap="round" stroke-linejoin="round" /><polyline points="-78.56,-341.06 -62.80,-380.57 -37.29,-445.61 -0.74,-538.80 17.32,-582.95 44.24,-648.78 66.31,-702.70 70.26,-709.85 89.66,-741.58 90.92,-743.63 98.02,-757.60 110.47,-776.78 117.42,-787.48 127.26,-802.62" fill="none" stroke="#bcbcbc" stroke-width="8" stroke-linecap="round" stroke-linejoin="round" /><polyline points="-450.42,715.26 -453.00,717.32 -454.70,719.78 -458.18,730.03 -460.58,737.43 -471.69,770.64 -473.22,775.43 -474.16,778.40 -484.36,775.48 -509.18,767.16 -533.77,758.91 -552.78,757.84" fill="none" stroke="#bcbcbc" stroke-width="8" stroke-linecap="round" stroke-linejoin="round" /><polyline points="-936.44,946.33 -895.91,841.66 -891.40,830.27 -887.36,819.29 -882.47,806.03 -876.48,785.17 -870.23,759.25 -867.67,740.67 -865.81,727.18 -863.18,717.22 -853.64,642.38 -842.50,547.93 -836.74,502.91 -830.30,450.02 -818.71,358.59 -816.87,343.04 -805.15,247.43 -805.14,242.10 -802.55,213.73 -795.08,153.80 -793.20,143.35 -791.25,137.49 -788.19,131.03 -785.22,126.02 -778.66,118.92 -772.80,116.90" fill="none" stroke="#bcbcbc" stroke-width="8" stroke-linecap="round" stroke-linejoin="round" /><polyline points="-51.65,151.37 -49.43,154.89 -42.00,166.49 -30.87,184.32 -28.19,188.58 -23.75,185.21 -2.22,168.87" fill="none" stroke="#bcbcbc" stroke-width="8" stroke-linecap="round" stroke-linejoin="round" /><polyline points="-37.29,-445.61 181.70,-406.02 204.70,-393.92 290.49,-351.39 298.05,-353.73" fill="none" stroke="#bcbcbc" stroke-width="8" stroke-linecap="round" stroke-linejoin="round" /><polyline points="-455.36,50.55 -459.25,56.22 -494.18,73.27 -519.84,105.88 -547.53,123.03 -566.47,137.33 -584.53,152.06 -593.80,160.51 -610.16,181.26 -628.45,207.48 -631.47,212.34" fill="none" stroke="#bcbcbc" stroke-width="8" stroke-linecap="round" stroke-linejoin="round" /><polyline points="-418.43,73.95 -419.94,77.32 -423.25,82.16 -429.51,89.86 -466.42,136.48 -485.94,189.06 -584.49,152.02" fill="none" stroke="#bcbcbc" stroke-width="8" stroke-linecap="round" stroke-linejoin="round" /><polyline points="-566.47,137.33 -570.28,125.77 -586.77,75.85 -593.17,65.98 -603.89,33.83 -604.82,31.06 -603.24,26.03 -605.80,17.83 -657.33,-146.70" fill="none" stroke="#bcbcbc" stroke-width="8" stroke-linecap="round" stroke-linejoin="round" /><polyline points="37.32,-760.39 78.05,-759.32 79.95,-759.26 87.75,-759.04 98.02,-757.60" fill="none" stroke="#bcbcbc" stroke-width="8" stroke-linecap="round" stroke-linejoin="round" /><polyline points="-172.15,566.20 -186.05,566.03 -303.79,581.83 -312.28,582.73 -321.98,583.75 -378.33,589.70 -454.23,597.72 -494.48,601.96 -516.74,604.31 -534.81,606.51 -544.09,607.63 -554.55,608.91 -605.05,615.04 -617.15,616.51 -654.45,620.59 -853.64,642.38" fill="none" stroke="#bcbcbc" stroke-width="8" stroke-linecap="round" stroke-linejoin="round" /><polyline points="-346.47,975.00 -356.90,971.64 -405.62,955.96 -415.47,952.79 -424.02,950.04 -475.63,933.45 -485.81,930.18 -499.27,925.85 -581.43,899.41 -590.68,896.43" fill="none" stroke="#bcbcbc" stroke-width="8" stroke-linecap="round" stroke-linejoin="round" /><polyline points="-142.76,-11.35 -114.42,-2.52 -10.80,29.48 -9.83,29.78 -2.14,30.26" fill="none" stroke="#bcbcbc" stroke-width="8" stroke-linecap="round" stroke-linejoin="round" /><polyline points="148.82,-244.73 289.79,-242.25" fill="none" stroke="#bcbcbc" stroke-width="8" stroke-linecap="round" stroke-linejoin="round" /><polyline points="79.80,993.74 59.65,969.79 51.19,959.95 43.93,953.16 34.25,945.94 14.48,934.08 -4.65,927.79 -43.57,915.77 -75.40,905.66 -57.05,877.65" fill="none" stroke="#bcbcbc" stroke-width="8" stroke-linecap="round" stroke-linejoin="round" /><polyline points="-121.89,803.25 -149.95,768.61 -155.29,762.02 -183.55,723.09 -189.95,711.20 -188.41,697.05 -179.89,696.96 -158.87,701.01 -126.88,707.16" fill="none" stroke="#bcbcbc" stroke-width="8" stroke-linecap="round" stroke-linejoin="round" /><polyline points="-488.96,525.75 -483.79,536.88 -454.23,597.72 -410.29,688.17 -404.69,699.71" fill="none" stroke="#bcbcbc" stroke-width="8" stroke-linecap="round" stroke-linejoin="round" /><polyline points="-962.28,801.29 -951.71,805.61 -902.21,825.85 -891.40,830.27 -880.03,834.92 -821.75,858.75 -811.21,863.06" fill="none" stroke="#bcbcbc" stroke-width="8" stroke-linecap="round" stroke-linejoin="round" /><polyline points="-464.64,435.55 -361.50,480.67" fill="none" stroke="#bcbcbc" stroke-width="8" stroke-linecap="round" stroke-linejoin="round" /><polyline points="-2.14,30.26 13.56,31.08 14.57,31.97 21.62,38.23 31.98,47.47 33.89,51.19 69.60,82.46 72.24,87.45 97.34,109.61 103.66,111.54 123.19,128.64 127.57,130.64 157.02,155.63 163.58,161.44 167.20,167.20" fill="none" stroke="#bcbcbc" stroke-width="8" stroke-linecap="round" stroke-linejoin="round" /><polyline points="-991.39,435.65 -830.30,450.02" fill="none" stroke="#bcbcbc" stroke-width="8" stroke-linecap="round" stroke-linejoin="round" /><polyline points="-631.71,1035.49 -626.72,1024.86 -625.44,1020.13 -618.44,994.34 -593.10,904.99 -590.68,896.43 -588.11,887.05 -576.63,845.07 -557.25,774.18 -552.78,757.84" fill="none" stroke="#bcbcbc" stroke-width="8" stroke-linecap="round" stroke-linejoin="round" /><polyline points="-488.96,525.75 -464.64,435.55 -516.21,417.51 -529.71,425.48 -535.86,430.16 -540.42,436.33 -543.63,444.47 -555.49,488.30 -545.92,493.17 -536.25,495.52 -514.88,501.08 -498.88,506.18 -488.96,525.75" fill="none" stroke="#bcbcbc" stroke-width="8" stroke-linecap="round" stroke-linejoin="round" /><polyline points="-555.49,488.30 -566.78,486.73 -830.30,450.02" fill="none" stroke="#bcbcbc" stroke-width="8" stroke-linecap="round" stroke-linejoin="round" /><polyline points="-126.88,707.16 -102.44,712.50 -36.34,733.51 -17.85,739.36 26.02,752.03 70.22,764.77 102.94,774.23 155.26,789.33 166.07,792.46 192.48,801.31 235.96,812.89 239.79,813.61" fill="none" stroke="#bcbcbc" stroke-width="8" stroke-linecap="round" stroke-linejoin="round" /><polyline points="-95.88,1089.05 -104.80,1091.29 -114.44,1118.16 -129.39,1113.91 -197.38,1090.74 -205.57,1088.99 -223.77,1087.69 -306.11,1088.02 -324.26,1085.71 -365.25,1079.44 -381.79,1076.76 -499.06,1057.84 -544.47,1050.60 -631.07,1035.60 -645.05,1032.83 -840.50,978.20 -852.83,974.74 -936.44,946.33 -957.01,939.03 -1008.39,917.74 -1037.68,906.66" fill="none" stroke="#bcbcbc" stroke-width="8" stroke-linecap="round" stroke-linejoin="round" /><polyline points="83.24,-356.04 74.78,-357.78 -38.18,-344.43 -78.56,-341.06" fill="none" stroke="#bcbcbc" stroke-width="8" stroke-linecap="round" stroke-linejoin="round" /><polyline points="-126.88,707.16 -122.92,700.54 -99.22,639.66 -72.73,547.60 -65.98,527.78 -62.36,522.38 -36.79,440.30 -35.52,430.50 -34.55,424.10" fill="none" stroke="#bcbcbc" stroke-width="8" stroke-linecap="round" stroke-linejoin="round" /><polyline points="-10.47,-182.06 -7.77,-183.09 -4.11,-186.00 1.45,-192.50 73.58,-295.99 92.79,-323.36" fill="none" stroke="#bcbcbc" stroke-width="8" stroke-linecap="round" stroke-linejoin="round" /><polyline points="310.55,198.11 312.02,193.86 348.28,151.21 350.94,149.79 357.24,141.17 378.33,116.94 384.89,110.90" fill="none" stroke="#bcbcbc" stroke-width="8" stroke-linecap="round" stroke-linejoin="round" /><polyline points="342.23,514.65 341.73,508.94 341.34,504.53 339.43,496.09 337.15,490.58 334.30,476.11 334.04,470.87 332.11,459.16 323.48,454.65 316.58,457.29 304.24,460.25 294.47,461.78 285.10,464.04 272.16,466.99 266.26,468.33" fill="none" stroke="#bcbcbc" stroke-width="8" stroke-linecap="round" stroke-linejoin="round" /><polyline points="-610.32,305.17 -583.95,243.36 -582.49,239.34" fill="none" stroke="#bcbcbc" stroke-width="8" stroke-linecap="round" stroke-linejoin="round" /><polyline points="84.59,191.83 97.30,186.91 103.94,184.33 109.08,179.13 130.27,173.91 137.38,175.72 152.72,171.77 164.41,168.75 167.20,167.20 178.54,164.42 236.55,150.21 249.69,146.28" fill="none" stroke="#bcbcbc" stroke-width="8" stroke-linecap="round" stroke-linejoin="round" /><polyline points="-450.42,715.26 -423.05,705.32 -413.90,702.52 -404.69,699.71 -387.68,694.52 -374.46,692.61 -329.28,687.67 -320.20,687.18 -279.78,687.52 -255.16,687.73 -245.90,687.26 -231.06,688.76 -226.42,689.42 -216.97,690.78 -188.41,697.05" fill="none" stroke="#bcbcbc" stroke-width="8" stroke-linecap="round" stroke-linejoin="round" /><polyline points="-320.05,-97.03 -324.58,-112.36 -341.42,-169.28 -361.87,-234.19 -366.09,-245.77 -370.38,-256.63 -375.80,-272.28" fill="none" stroke="#bcbcbc" stroke-width="8" stroke-linecap="round" stroke-linejoin="round" /><polyline points="-369.02,820.78 -365.42,809.42 -329.05,694.73 -329.28,687.67" fill="none" stroke="#bcbcbc" stroke-width="8" stroke-linecap="round" stroke-linejoin="round" /><polyline points="-320.20,687.18 -313.00,590.60 -312.28,582.73 -311.18,573.57 -311.16,573.15 -310.69,561.95 -308.28,531.55 -306.93,517.39 -305.07,501.31 -303.39,489.73 -301.87,482.46 -299.96,476.96 -296.23,464.58 -288.50,438.80 -278.67,405.51 -267.84,371.47 -265.63,364.53 -263.86,359.50" fill="none" stroke="#bcbcbc" stroke-width="8" stroke-linecap="round" stroke-linejoin="round" /><polyline points="-555.49,488.30 -557.40,496.86 -557.07,499.59 -545.34,597.29 -544.09,607.63 -544.63,618.28 -547.71,679.04 -548.99,704.43 -549.66,717.52 -550.84,740.86 -551.45,753.01 -552.78,757.84" fill="none" stroke="#bcbcbc" stroke-width="8" stroke-linecap="round" stroke-linejoin="round" /><polyline points="-610.32,305.17 -652.99,292.49 -658.41,289.01 -684.96,281.28 -692.42,281.35 -725.79,271.30 -731.18,267.33 -761.54,258.12 -798.79,247.97 -798.97,247.96 -805.15,247.43" fill="none" stroke="#bcbcbc" stroke-width="8" stroke-linecap="round" stroke-linejoin="round" /><polyline points="275.25,211.42 269.31,213.27 230.13,225.46 224.51,227.26 217.77,229.43" fill="none" stroke="#bcbcbc" stroke-width="8" stroke-linecap="round" stroke-linejoin="round" /><polyline points="-6.30,285.64 5.96,281.67 94.89,236.25 106.79,230.44 148.71,218.33 189.35,206.91 197.07,206.20" fill="none" stroke="#bcbcbc" stroke-width="8" stroke-linecap="round" stroke-linejoin="round" /><polyline points="3.39,341.85 105.92,294.14 110.24,291.29 120.26,288.37 188.58,268.49 198.94,264.52 210.02,262.36" fill="none" stroke="#bcbcbc" stroke-width="8" stroke-linecap="round" stroke-linejoin="round" /><polyline points="-17.53,-658.37 23.98,-653.24 28.14,-652.73 44.24,-648.78" fill="none" stroke="#bcbcbc" stroke-width="8" stroke-linecap="round" stroke-linejoin="round" /><polyline points="337.14,-236.43 344.50,-237.96 372.00,-224.48 375.62,-220.90 427.25,-133.51 428.61,-122.92 435.32,-117.33 434.25,-113.46 434.09,-107.16 435.02,-98.36 448.69,-42.16 449.90,-3.25 451.82,58.90 455.03,142.54 441.94,178.99 433.50,201.20 421.19,232.52 417.62,241.57 415.31,244.10 411.59,268.33" fill="none" stroke="#bcbcbc" stroke-width="8" stroke-linecap="round" stroke-linejoin="round" /><polyline points="432.58,415.94 420.03,410.48 388.65,388.58 347.26,359.50 324.49,341.09 309.13,324.64" fill="none" stroke="#bcbcbc" stroke-width="8" stroke-linecap="round" stroke-linejoin="round" /><polyline points="-75.40,905.66 -87.73,901.76 -107.74,895.41 -117.29,892.38 -128.50,888.83 -142.67,884.34 -155.49,880.27 -168.15,876.26 -224.63,858.33 -234.52,855.19 -246.81,851.30 -249.52,850.45 -281.82,841.91 -290.94,839.70 -302.38,836.94 -314.34,834.04 -357.45,823.58 -369.02,820.78 -381.44,816.46 -407.40,807.45 -417.19,804.05 -425.94,801.21 -466.58,786.76 -471.70,783.71 -474.16,778.40" fill="none" stroke="#bcbcbc" stroke-width="8" stroke-linecap="round" stroke-linejoin="round" /><polyline points="110.24,291.29 107.24,280.56 98.32,248.56 94.89,236.25 89.93,227.06 89.47,225.35 86.54,214.52 89.95,209.72 85.86,196.07 84.59,191.83" fill="none" stroke="#bcbcbc" stroke-width="8" stroke-linecap="round" stroke-linejoin="round" /><polyline points="95.32,-100.25 103.80,-104.25 150.15,-129.80 176.64,-146.84 195.33,-159.59 199.46,-162.66 214.50,-173.11 230.08,-184.63 239.95,-191.81 251.71,-200.41 292.60,-218.86 297.91,-218.58 305.66,-222.25 337.14,-236.43" fill="none" stroke="#bcbcbc" stroke-width="8" stroke-linecap="round" stroke-linejoin="round" /><polyline points="-418.43,73.95 -411.74,76.66 -407.32,78.02 -324.43,103.48 -311.77,107.37" fill="none" stroke="#bcbcbc" stroke-width="8" stroke-linecap="round" stroke-linejoin="round" /><polyline points="-1010.47,260.34 -1069.69,242.42" fill="none" stroke="#bcbcbc" stroke-width="8" stroke-linecap="round" stroke-linejoin="round" /><polyline points="-53.92,-574.73 -39.24,-556.13 -37.05,-553.36 -29.64,-543.97 -21.19,-542.98 -3.83,-540.94 -0.74,-538.80" fill="none" stroke="#bcbcbc" stroke-width="8" stroke-linecap="round" stroke-linejoin="round" /><polyline points="455.93,252.54 432.66,256.88 408.81,269.85 386.69,282.15 365.78,292.61 340.50,306.34 322.20,317.45 286.04,336.84 144.86,407.87 108.26,423.99 84.07,434.45 72.09,438.37 62.18,440.22 45.95,441.20 22.85,437.93 -34.77,424.10 -116.58,405.03 -224.21,372.57 -263.86,359.50 -328.78,339.45 -390.88,318.97 -481.94,283.24 -527.48,263.64 -582.38,239.24 -673.45,189.34 -694.80,175.18 -748.83,141.20 -771.49,118.54 -805.48,74.53 -861.47,16.80 -883.47,-2.59" fill="none" stroke="#bcbcbc" stroke-width="8" stroke-linecap="round" stroke-linejoin="round" /><polyline points="14.48,934.08 15.44,928.76 18.88,920.06 51.18,844.50 63.38,816.17 77.76,780.88 81.26,767.96" fill="none" stroke="#bcbcbc" stroke-width="8" stroke-linecap="round" stroke-linejoin="round" /><polyline points="-605.05,615.04 -641.73,597.29 -725.21,556.89 -827.60,507.33 -836.74,502.91" fill="none" stroke="#bcbcbc" stroke-width="8" stroke-linecap="round" stroke-linejoin="round" /><polyline points="-2.14,30.26 7.12,20.77 31.75,-4.44 51.30,-25.78" fill="none" stroke="#bcbcbc" stroke-width="8" stroke-linecap="round" stroke-linejoin="round" /><polyline points="-713.35,86.43 -723.52,72.96 -771.21,9.82 -839.28,-45.27" fill="none" stroke="#bcbcbc" stroke-width="8" stroke-linecap="round" stroke-linejoin="round" /><polyline points="-1008.76,917.58 -999.45,895.51 -969.85,821.72 -966.26,812.03 -962.28,801.29 -960.77,797.41 -960.37,791.34 -956.58,733.98 -955.50,717.52" fill="none" stroke="#bcbcbc" stroke-width="8" stroke-linecap="round" stroke-linejoin="round" /><polyline points="-1028.95,324.43 -1010.47,260.34 -986.09,175.82 -983.08,165.35 -979.72,153.47 -972.21,126.86 -971.42,124.06 -969.27,115.50 -965.84,105.83 -965.01,103.49 -960.67,92.75 -952.17,73.98 -949.62,68.59" fill="none" stroke="#bcbcbc" stroke-width="8" stroke-linecap="round" stroke-linejoin="round" /><polyline points="-983.08,165.36 -945.69,174.92 -866.49,195.27 -821.37,209.32 -802.55,213.73" fill="none" stroke="#bcbcbc" stroke-width="8" stroke-linecap="round" stroke-linejoin="round" /><polyline points="-213.50,-125.42 -212.22,-133.20 -210.95,-141.28 -205.46,-168.30 -191.76,-231.20 -180.50,-287.46 -178.45,-299.13 -175.65,-314.98 -175.65,-315.00" fill="none" stroke="#bcbcbc" stroke-width="8" stroke-linecap="round" stroke-linejoin="round" /><polyline points="-324.19,1085.72 -307.50,1043.14 -305.42,1035.49 -239.18,867.33 -234.52,855.19 -230.76,844.90 -191.17,729.74 -183.55,723.09" fill="none" stroke="#bcbcbc" stroke-width="8" stroke-linecap="round" stroke-linejoin="round" /><polyline points="-97.11,-157.98 -97.11,-157.99 -99.46,-170.31 -99.83,-171.81 -105.55,-195.08 -105.55,-195.15 -109.45,-210.93 -125.98,-267.59 -128.06,-273.66 -139.23,-304.00 -142.86,-313.06 -145.20,-318.91 -148.23,-325.55 -148.24,-325.56 -148.24,-325.59 -150.46,-349.99 -150.67,-361.97" fill="none" stroke="#bcbcbc" stroke-width="8" stroke-linecap="round" stroke-linejoin="round" /><polyline points="-121.89,803.25 -126.14,807.84 -132.47,815.38 -150.32,865.70 -155.49,880.27" fill="none" stroke="#bcbcbc" stroke-width="8" stroke-linecap="round" stroke-linejoin="round" /><polyline points="-418.43,73.95 -415.99,67.34 -415.44,65.81 -403.85,33.43 -399.50,19.80 -363.98,-84.65" fill="none" stroke="#bcbcbc" stroke-width="8" stroke-linecap="round" stroke-linejoin="round" /><polyline points="-234.67,220.38 -231.05,210.75 -221.23,184.68 -217.08,173.66 -214.27,166.20 -206.40,145.27 -201.19,131.45 -200.49,129.59 -187.89,96.11 -182.62,97.74 -179.76,89.97 -174.71,76.22 -175.68,69.97 -162.27,33.46 -160.89,29.71 -158.35,27.37 -156.21,25.41 -142.76,-11.35 -140.82,-21.41 -121.52,-75.02 -116.96,-78.59 -107.68,-104.85 -109.33,-108.89 -101.20,-133.41 -105.41,-155.31" fill="none" stroke="#bcbcbc" stroke-width="8" stroke-linecap="round" stroke-linejoin="round" /><polyline points="110.47,-776.78 105.06,-785.65 76.66,-832.25" fill="none" stroke="#bcbcbc" stroke-width="8" stroke-linecap="round" stroke-linejoin="round" /><polyline points="199.46,-162.66 329.83,-78.83 329.87,-78.77 329.87,-78.75 353.98,-75.63" fill="none" stroke="#bcbcbc" stroke-width="8" stroke-linecap="round" stroke-linejoin="round" /><polyline points="147.17,-337.79 285.89,-268.16 290.07,-265.04 289.79,-242.25 292.60,-218.86" fill="none" stroke="#bcbcbc" stroke-width="8" stroke-linecap="round" stroke-linejoin="round" /><polyline points="-117.29,892.38 -122.28,907.60 -142.49,969.24 -176.87,1073.05 -179.30,1080.42 -181.78,1087.88 -182.47,1095.83" fill="none" stroke="#bcbcbc" stroke-width="8" stroke-linecap="round" stroke-linejoin="round" /><polyline points="273.21,517.94 274.04,510.21 274.22,502.99 274.16,502.74 269.24,481.49 267.23,472.62 266.26,468.33 265.26,463.96 259.87,440.18 249.33,392.68 241.67,364.12 240.58,359.71" fill="none" stroke="#bcbcbc" stroke-width="8" stroke-linecap="round" stroke-linejoin="round" /><polyline points="-415.47,952.79 -412.03,943.02 -373.40,833.24 -369.02,820.78" fill="none" stroke="#bcbcbc" stroke-width="8" stroke-linecap="round" stroke-linejoin="round" /><polyline points="451.82,58.90 440.45,55.69 363.28,-62.73 353.98,-75.63" fill="none" stroke="#bcbcbc" stroke-width="8" stroke-linecap="round" stroke-linejoin="round" /><polyline points="-816.87,343.04 -535.60,410.43 -516.21,417.51" fill="none" stroke="#bcbcbc" stroke-width="8" stroke-linecap="round" stroke-linejoin="round" /><polyline points="70.26,-709.85 179.82,-669.27 195.24,-671.90" fill="none" stroke="#bcbcbc" stroke-width="8" stroke-linecap="round" stroke-linejoin="round" />
    <polyline points="167.20,167.20 168.68,169.14 174.87,178.37 186.31,195.41 197.07,206.20 217.77,229.43 214.27,250.90 212.49,258.95 210.02,262.36 215.21,270.03 223.24,286.55 239.28,317.50 247.18,332.74 252.09,346.44 254.31,352.80" fill="none" stroke="#ffffff" stroke-width="16" stroke-linecap="round" stroke-linejoin="round" />
    <polyline points="167.20,167.20 168.68,169.14 174.87,178.37 186.31,195.41 197.07,206.20 217.77,229.43 214.27,250.90 212.49,258.95 210.02,262.36 215.21,270.03 223.24,286.55 239.28,317.50 247.18,332.74 252.09,346.44 254.31,352.80" fill="none" stroke="#111111" stroke-width="9" stroke-linecap="round" stroke-linejoin="round" />
    
            <g transform="translate(167.20,167.20)">
              <circle r="19" fill="#ffffff" stroke="#111111" stroke-width="4" />
              <text text-anchor="middle" dominant-baseline="central" font-family="Helvetica, Arial, sans-serif"
                font-size="18" font-weight="700" fill="#111111">1</text>
            </g>
            
            <g transform="translate(254.31,352.80)">
              <circle r="19" fill="#ffffff" stroke="#111111" stroke-width="4" />
              <text text-anchor="middle" dominant-baseline="central" font-family="Helvetica, Arial, sans-serif"
                font-size="18" font-weight="700" fill="#111111">2</text>
            </g>
            
  </g>
</svg>
