<svg xmlns="http://www.w3.org/2000/svg" width="520" height="520" viewBox="0 0 520 520">
  <rect width="100%" height="100%" fill="#ffffff" />
  <g>
    <polyline points="518.87,-988.56 526.31,-948.99 574.31,-613.20 566.97,-529.25" fill="none" stroke="#bcbcbc" stroke-width="8" stroke-linecap="round" stroke-linejoin="round" /><polyline points="-456.78,1809.71 -445.18,1774.03 -383.69,1584.92 -376.44,1562.64 -369.11,1539.24 -214.49,1046.19 -202.06,1006.54 -230.53,936.40" fill="none" stroke="#bcbcbc" stroke-width="8" stroke-linecap="round" stroke-linejoin="round" /><polyline points="-1524.76,1371.17 -1527.26,1342.85 -1476.71,1059.74 -1469.62,1024.33 -1464.33,1005.78 -1450.42,933.98 -1434.78,846.10 -1417.74,768.71 -1400.85,691.49 -1390.21,669.72 -1383.25,656.37" fill="none" stroke="#bcbcbc" stroke-width="8" stroke-linecap="round" stroke-linejoin="round" /><polyline points="-1231.36,-625.87 -1243.38,-662.51 -1367.60,-1041.37 -1373.66,-1057.26" fill="none" stroke="#bcbcbc" stroke-width="8" stroke-linecap="round" stroke-linejoin="round" /><polyline points="-1868.76,2708.51 -1865.05,2672.36 -1863.55,2655.77 -1850.02,2506.18 -1835.22,2374.47 -1831.76,2343.71 -1828.55,2306.81 -1828.20,2303.71 -1819.80,2230.35 -1812.57,2155.79 -1804.59,2083.83 -1799.23,2027.81 -1796.98,1993.23 -1795.01,1961.31 -1791.48,1925.33" fill="none" stroke="#bcbcbc" stroke-width="8" stroke-linecap="round" stroke-linejoin="round" /><polyline points="-152.34,1897.61 -143.49,1869.79 -81.16,1673.84 -74.08,1651.58 -64.01,1619.86 -56.80,1597.13 -1.63,1359.18" fill="none" stroke="#bcbcbc" stroke-width="8" stroke-linecap="round" stroke-linejoin="round" /><polyline points="-394.65,-1978.36 -371.63,-1974.83 262.69,-1877.36" fill="none" stroke="#bcbcbc" stroke-width="8" stroke-linecap="round" stroke-linejoin="round" /><polyline points="-2023.07,1851.44 -2089.09,1848.36 -2129.35,1846.49 -2151.22,1845.47 -2170.41,1844.58 -2319.92,1837.62 -2527.87,1827.96 -2626.99,1813.90 -2660.16,1809.20 -2688.95,1804.11 -2883.90,1769.71 -2911.15,1764.90 -2917.19,1763.86 -2950.85,1758.09 -2976.71,1753.66 -3141.91,1739.06 -3173.37,1736.28 -3184.91,1735.26 -3220.63,1732.78 -3290.56,1727.93" fill="none" stroke="#bcbcbc" stroke-width="8" stroke-linecap="round" stroke-linejoin="round" /><polyline points="-1063.87,1659.88 -1051.08,1623.49 -935.84,1304.04 -797.21,901.11 -788.33,875.84 -782.14,858.19 -777.12,843.69" fill="none" stroke="#bcbcbc" stroke-width="8" stroke-linecap="round" stroke-linejoin="round" /><polyline points="-3184.91,1735.26 -3187.85,1714.72 -3188.55,1692.41 -3184.18,1647.49 -3174.14,1565.46 -3167.45,1537.92 -3156.59,1438.39 -3154.61,1416.22 -3151.43,1387.72 -3149.07,1366.55 -3144.61,1342.55 -3136.36,1277.99 -3130.63,1228.60 -3122.21,1208.40" fill="none" stroke="#bcbcbc" stroke-width="8" stroke-linecap="round" stroke-linejoin="round" /><polyline points="-3302.86,1183.16 -3149.15,1204.64 -3122.21,1208.40 -3105.52,1211.06 -3036.61,1222.04 -2877.87,1247.33 -2850.62,1251.87" fill="none" stroke="#bcbcbc" stroke-width="8" stroke-linecap="round" stroke-linejoin="round" /><polyline points="-474.03,-833.27 -473.03,-819.30 -470.96,-805.15 -465.97,-794.31 -456.63,-782.23 -439.34,-766.49 -398.37,-741.57 -82.34,-543.30 112.31,-282.34 259.32,80.49 268.92,104.46" fill="none" stroke="#bcbcbc" stroke-width="8" stroke-linecap="round" stroke-linejoin="round" /><polyline points="-524.64,225.41 -518.08,236.25 -516.38,239.07 -510.96,266.44 -473.88,445.74 -462.11,502.65 -453.69,543.18 -440.56,625.34 -434.43,663.23 -430.20,686.34 -425.57,707.22 -420.04,719.40 -411.92,733.50 -407.58,740.15 -325.46,857.71 -281.05,927.66 -269.46,944.38" fill="none" stroke="#bcbcbc" stroke-width="8" stroke-linecap="round" stroke-linejoin="round" /><polyline points="-2882.02,2470.47 -2877.65,2443.57 -2873.59,2424.11 -2872.51,2421.53 -2817.85,2291.57 -2783.02,2207.11 -2772.44,2180.35 -2761.23,2152.00 -2749.06,2127.63 -2747.09,2122.87 -2730.42,2082.59 -2717.54,2046.94 -2706.49,2014.24 -2699.47,1991.13 -2691.61,1962.58 -2682.54,1924.29 -2675.66,1893.23 -2667.43,1849.87 -2665.70,1840.20 -2660.16,1809.20" fill="none" stroke="#bcbcbc" stroke-width="8" stroke-linecap="round" stroke-linejoin="round" /><polyline points="-233.97,-1158.69 -59.69,-1036.91 -36.22,-1031.93 -19.03,-1012.27" fill="none" stroke="#bcbcbc" stroke-width="8" stroke-linecap="round" stroke-linejoin="round" /><polyline points="-965.74,-34.05 -942.71,-25.19 -842.72,7.52 -610.77,96.48 -597.75,109.45 -591.64,119.13" fill="none" stroke="#bcbcbc" stroke-width="8" stroke-linecap="round" stroke-linejoin="round" /><polyline points="-533.52,2251.70 -517.72,2210.53 -439.74,1998.97 -384.61,1839.14 -373.18,1833.87" fill="none" stroke="#bcbcbc" stroke-width="8" stroke-linecap="round" stroke-linejoin="round" /><polyline points="-1635.76,1983.44 -1623.46,1956.24 -1622.24,1953.55 -1601.19,1882.93 -1566.70,1766.69 -1557.87,1736.95 -1551.01,1713.84 -1550.09,1700.38 -1551.49,1670.57" fill="none" stroke="#bcbcbc" stroke-width="8" stroke-linecap="round" stroke-linejoin="round" /><polyline points="-202.51,234.70 -222.28,238.78 -267.08,230.81 -274.02,212.33 -351.64,182.73 -370.00,187.53 -440.03,161.82 -450.48,169.11" fill="none" stroke="#bcbcbc" stroke-width="8" stroke-linecap="round" stroke-linejoin="round" /><polyline points="-317.77,-2166.39 -282.59,-2157.77 -263.13,-2154.40 199.58,-2074.17" fill="none" stroke="#bcbcbc" stroke-width="8" stroke-linecap="round" stroke-linejoin="round" /><polyline points="-677.41,2122.86 -658.16,2068.60 -620.75,1963.13 -596.58,1918.21 -561.80,1820.83 -547.91,1781.95" fill="none" stroke="#bcbcbc" stroke-width="8" stroke-linecap="round" stroke-linejoin="round" /><polyline points="-3212.71,16.68 -3246.23,15.15 -3254.62,25.35 -3313.01,96.29 -3517.11,332.05 -3545.81,365.21" fill="none" stroke="#bcbcbc" stroke-width="8" stroke-linecap="round" stroke-linejoin="round" /><polyline points="-1422.50,218.60 -1437.29,251.36 -1439.08,255.33 -1490.48,389.36 -1542.29,536.90 -1556.11,576.25 -1563.94,596.57" fill="none" stroke="#bcbcbc" stroke-width="8" stroke-linecap="round" stroke-linejoin="round" /><polyline points="-668.53,-1287.43 -652.21,-1265.28 -640.54,-1234.82 -622.40,-1191.09 -593.28,-1122.32 -567.49,-1060.58 -537.89,-992.79 -515.93,-940.56 -512.68,-933.05 -512.48,-932.59 -494.80,-891.27 -489.52,-879.53 -484.50,-868.35 -479.19,-857.88 -475.19,-847.23 -474.03,-833.27" fill="none" stroke="#bcbcbc" stroke-width="8" stroke-linecap="round" stroke-linejoin="round" /><polyline points="-1918.60,879.33 -1910.05,874.66 -1898.10,865.15 -1892.11,852.83 -1812.70,551.71 -1810.30,534.73 -1800.62,503.71" fill="none" stroke="#bcbcbc" stroke-width="8" stroke-linecap="round" stroke-linejoin="round" /><polyline points="858.17,408.12 869.44,443.87 877.37,481.43 861.93,624.55 844.09,732.21 834.35,768.93 833.46,772.25 824.93,792.07 813.30,813.09 786.13,847.45 799.28,914.64 756.72,1058.85 733.22,1138.49 685.15,1268.86 614.75,1427.58 528.78,1579.69 501.94,1629.13 453.40,1710.35 259.48,1985.58 216.99,2042.83 52.46,2257.84 -42.00,2365.31 -174.12,2499.60 -186.35,2500.86 -216.19,2525.25" fill="none" stroke="#bcbcbc" stroke-width="8" stroke-linecap="round" stroke-linejoin="round" /><polyline points="-1534.65,2762.39 -1480.52,2594.51 -1471.66,2566.79 -1459.63,2549.32 -1433.78,2471.73 -1425.36,2445.37 -1318.57,2111.01 -1307.82,2077.38 -1298.97,2047.83 -1172.94,1651.19" fill="none" stroke="#bcbcbc" stroke-width="8" stroke-linecap="round" stroke-linejoin="round" /><polyline points="-266.53,-359.84 -219.73,-410.97 -205.93,-427.61 -111.38,-561.53" fill="none" stroke="#bcbcbc" stroke-width="8" stroke-linecap="round" stroke-linejoin="round" /><polyline points="-1201.86,-339.58 -1072.99,-294.72 -1065.87,-283.15 -1029.28,-270.88 -1007.56,-263.46 -903.69,-228.37" fill="none" stroke="#bcbcbc" stroke-width="8" stroke-linecap="round" stroke-linejoin="round" /><polyline points="-78.63,-1231.36 -19.03,-1012.27 49.97,-754.18 60.43,-732.67 62.09,-708.11 108.88,-620.75 235.16,-385.27 262.76,-344.55 270.76,-332.63 459.42,20.09 546.13,98.91 558.29,114.62 575.44,129.28 740.07,270.05 751.24,279.60 780.81,295.30" fill="none" stroke="#bcbcbc" stroke-width="8" stroke-linecap="round" stroke-linejoin="round" /><polyline points="-718.91,2798.03 -308.33,2559.53 -235.25,2522.16 -216.19,2525.25" fill="none" stroke="#bcbcbc" stroke-width="8" stroke-linecap="round" stroke-linejoin="round" /><polyline points="-273.75,2456.84 -248.28,2426.56 -19.58,1970.23 -4.43,1940.31 8.22,1910.69 82.09,1728.01 104.09,1672.97 167.77,1480.28 209.05,1232.54 213.94,1196.48" fill="none" stroke="#bcbcbc" stroke-width="8" stroke-linecap="round" stroke-linejoin="round" /><polyline points="-450.25,-226.81 -454.25,-222.71 -459.76,-203.51 -460.31,-201.59 -485.13,-106.03 -478.61,-81.08 -484.03,-58.71 -491.12,-29.43 -509.28,-8.39 -529.89,75.09 -554.17,93.44 -580.08,111.21 -591.64,119.13" fill="none" stroke="#bcbcbc" stroke-width="8" stroke-linecap="round" stroke-linejoin="round" /><polyline points="-1422.50,218.60 -1411.95,191.56 -1348.50,28.91 -1334.66,-6.56 -1323.26,-35.77 -1242.19,-243.48 -1205.69,-330.32 -1201.86,-339.58 -1173.49,-408.17 -1109.84,-566.19 -1086.54,-633.47 -1081.35,-648.90 -1074.38,-666.39" fill="none" stroke="#bcbcbc" stroke-width="8" stroke-linecap="round" stroke-linejoin="round" /><polyline points="-712.53,-767.34 -700.26,-730.82 -297.61,-386.88 -77.88,-195.73 250.29,89.56 278.93,112.47 291.77,120.50 348.71,172.19 424.76,237.06 597.26,384.13 652.97,432.04 689.94,476.26" fill="none" stroke="#bcbcbc" stroke-width="8" stroke-linecap="round" stroke-linejoin="round" /><polyline points="-46.78,-1359.98 -26.35,-1373.07 94.64,-1423.35 119.50,-1449.51" fill="none" stroke="#bcbcbc" stroke-width="8" stroke-linecap="round" stroke-linejoin="round" /><polyline points="92.97,1700.81 -74.08,1651.58 -376.44,1562.64" fill="none" stroke="#bcbcbc" stroke-width="8" stroke-linecap="round" stroke-linejoin="round" /><polyline points="-446.24,-1852.27 -423.43,-1836.53 320.08,-1671.10" fill="none" stroke="#bcbcbc" stroke-width="8" stroke-linecap="round" stroke-linejoin="round" /><polyline points="472.16,595.69 433.73,510.19 348.46,306.82 342.10,290.65 327.52,253.53 272.55,113.66 269.09,104.59" fill="none" stroke="#bcbcbc" stroke-width="8" stroke-linecap="round" stroke-linejoin="round" /><polyline points="-668.53,-1287.43 -709.81,-1299.18 -740.14,-1308.21 -801.80,-1326.52 -833.12,-1335.46 -851.06,-1340.44 -874.49,-1347.15" fill="none" stroke="#bcbcbc" stroke-width="8" stroke-linecap="round" stroke-linejoin="round" /><polyline points="-1744.81,-168.84 -1746.89,-175.67 -1748.82,-180.45 -1757.32,-201.59 -1790.28,-278.43 -1821.60,-356.48 -1828.37,-374.91 -1836.16,-396.14 -1841.74,-413.50 -1850.94,-439.54 -1851.91,-442.27 -1881.87,-516.13 -1936.89,-654.95 -1949.25,-661.99 -1958.03,-684.51 -1975.58,-745.47 -2005.64,-821.03 -2012.12,-838.21" fill="none" stroke="#bcbcbc" stroke-width="8" stroke-linecap="round" stroke-linejoin="round" /><polyline points="-1480.52,2594.51 -1449.28,2604.08 -1348.19,2634.88 -1316.53,2644.53" fill="none" stroke="#bcbcbc" stroke-width="8" stroke-linecap="round" stroke-linejoin="round" /><polyline points="407.21,-1323.62 413.10,-1347.44 410.71,-1356.49 407.82,-1367.40 389.36,-1435.01 348.22,-1577.95 326.51,-1651.03 320.08,-1671.10 262.69,-1877.36 231.72,-1988.62 199.58,-2074.17 170.55,-2151.34 141.65,-2204.40 113.56,-2232.44 -102.06,-2495.92 -118.01,-2514.67 -128.58,-2532.01" fill="none" stroke="#bcbcbc" stroke-width="8" stroke-linecap="round" stroke-linejoin="round" /><polyline points="-474.03,-833.27 -485.15,-829.02 -505.70,-823.34 -507.76,-822.78 -593.64,-800.81 -692.37,-773.02 -712.53,-767.34 -721.51,-764.49 -745.23,-756.86 -765.51,-751.22 -854.05,-726.59 -999.66,-685.22 -1053.95,-671.50 -1074.38,-666.39 -1171.42,-642.56 -1231.36,-625.87 -1358.31,-590.40 -1483.78,-555.04 -1498.30,-551.01 -1603.16,-521.90 -1651.53,-508.48 -1675.96,-496.94 -1722.19,-474.01 -1814.02,-427.41 -1820.42,-424.16 -1841.74,-413.50 -1854.74,-406.99 -1872.88,-397.48 -1937.40,-363.65 -2054.95,-297.70 -2153.14,-246.26 -2167.19,-238.90 -2185.95,-237.73 -2197.23,-231.74 -2199.48,-230.55 -2306.00,-172.17 -2328.31,-172.26 -2353.92,-158.87 -2362.86,-154.19 -2370.41,-150.24 -2388.21,-140.92 -2402.24,-108.92 -2462.53,-76.63 -2481.70,-66.36 -2502.45,-55.07 -2586.33,-9.42 -2629.69,14.17 -2651.55,20.47" fill="none" stroke="#bcbcbc" stroke-width="8" stroke-linecap="round" stroke-linejoin="round" /><polyline points="733.22,1138.49 688.46,1142.60 548.64,1155.40 542.33,1155.98 533.42,1156.80 518.99,1158.13 383.41,1170.57 336.26,1166.20 281.35,1179.96 237.37,1190.74 213.95,1196.48 155.74,1198.69 105.36,1196.13 79.68,1193.40 57.82,1186.79 41.72,1177.89 -18.23,1135.50 -163.89,1035.46 -177.62,1026.14 -191.60,1016.66 -202.06,1006.54" fill="none" stroke="#bcbcbc" stroke-width="8" stroke-linecap="round" stroke-linejoin="round" /><polyline points="-2565.79,-550.51 -2512.94,-447.04 -2504.93,-417.47 -2460.41,-332.52 -2442.03,-308.22 -2367.61,-163.44 -2362.86,-154.19" fill="none" stroke="#bcbcbc" stroke-width="8" stroke-linecap="round" stroke-linejoin="round" /><polyline points="-946.11,369.66 -954.03,391.41 -956.25,398.17 -966.57,429.47 -1031.96,611.90 -1064.42,702.49 -1065.52,705.58 -1078.56,733.74 -1086.04,750.47" fill="none" stroke="#bcbcbc" stroke-width="8" stroke-linecap="round" stroke-linejoin="round" /><polyline points="-78.63,-1231.36 -85.88,-1246.88 -104.94,-1249.38 -166.57,-1235.24 -179.10,-1236.87 -188.91,-1250.02 -206.35,-1330.22 -111.89,-1344.84 -68.16,-1357.75 -46.78,-1359.98 -23.74,-1278.09" fill="none" stroke="#bcbcbc" stroke-width="8" stroke-linecap="round" stroke-linejoin="round" /><polyline points="262.76,-344.55 287.09,-358.21 409.31,-431.86 441.97,-451.31 499.14,-485.39 593.20,-546.22 615.14,-562.00 780.13,-664.34" fill="none" stroke="#bcbcbc" stroke-width="8" stroke-linecap="round" stroke-linejoin="round" /><polyline points="839.46,138.86 797.75,126.44 773.50,106.56 680.83,26.36 677.68,23.54 655.27,3.55 642.10,-19.80 409.31,-431.86" fill="none" stroke="#bcbcbc" stroke-width="8" stroke-linecap="round" stroke-linejoin="round" /><polyline points="-1787.75,106.21 -1422.50,218.60 -1392.69,228.05 -1120.13,314.45 -1114.43,316.26 -1073.60,329.21 -1053.52,335.58 -1027.44,342.71 -973.63,360.93 -946.11,369.66 -921.35,377.51 -718.50,441.85 -504.37,509.13 -486.66,514.70 -462.11,502.65" fill="none" stroke="#bcbcbc" stroke-width="8" stroke-linecap="round" stroke-linejoin="round" /><polyline points="-713.79,-1697.03 -555.56,-1842.41 -528.78,-1867.02" fill="none" stroke="#bcbcbc" stroke-width="8" stroke-linecap="round" stroke-linejoin="round" /><polyline points="-3363.22,648.80 -2782.65,711.03" fill="none" stroke="#bcbcbc" stroke-width="8" stroke-linecap="round" stroke-linejoin="round" /><polyline points="-1611.84,-971.62 -1489.82,-1015.26 -1363.95,-1060.77 -1285.75,-1091.17 -1046.98,-1178.01 -977.68,-1201.98 -963.21,-1206.98 -945.85,-1212.95 -926.37,-1219.65 -923.98,-1220.47 -884.65,-1236.28 -867.55,-1243.15" fill="none" stroke="#bcbcbc" stroke-width="8" stroke-linecap="round" stroke-linejoin="round" /><polyline points="-792.28,1981.14 -677.41,2122.86 -607.08,2193.68 -576.63,2215.59 -533.52,2251.70 -493.04,2285.69 -458.25,2319.62 -457.39,2336.88" fill="none" stroke="#bcbcbc" stroke-width="8" stroke-linecap="round" stroke-linejoin="round" /><polyline points="-668.53,-1287.43 -623.51,-1400.28 -550.64,-1586.08 -446.24,-1852.27 -394.65,-1978.36 -317.77,-2166.39 -254.73,-2320.41 -243.45,-2340.84 -188.01,-2431.48 -184.43,-2437.34 -164.15,-2477.22 -128.58,-2532.01 -108.72,-2562.58 -80.61,-2605.83" fill="none" stroke="#bcbcbc" stroke-width="8" stroke-linecap="round" stroke-linejoin="round" /><polyline points="-1730.68,1729.81 -1738.06,1735.71 -1742.93,1742.73 -1752.86,1772.01 -1759.72,1793.15 -1791.44,1888.00 -1795.81,1901.69 -1798.51,1910.18 -1827.64,1901.83 -1898.53,1878.06 -1968.78,1854.51 -2023.07,1851.43" fill="none" stroke="#bcbcbc" stroke-width="8" stroke-linecap="round" stroke-linejoin="round" /><polyline points="-3118.94,2389.84 -3003.18,2090.87 -2990.29,2058.33 -2978.74,2026.98 -2964.78,1989.10 -2947.66,1929.52 -2929.81,1855.47 -2922.50,1802.41 -2917.19,1763.86 -2909.69,1735.41 -2882.45,1521.64 -2850.62,1251.87 -2834.15,1123.27 -2815.78,972.18 -2782.65,711.03 -2777.40,666.62 -2743.92,393.50 -2743.90,378.29 -2736.51,297.25 -2715.16,126.08 -2709.80,96.22 -2704.22,79.48 -2695.49,61.04 -2687.00,46.72 -2668.27,26.44 -2651.51,20.68" fill="none" stroke="#bcbcbc" stroke-width="8" stroke-linecap="round" stroke-linejoin="round" /><polyline points="-591.64,119.13 -585.31,129.17 -564.08,162.31 -532.29,213.26 -524.64,225.41 -511.96,215.79 -450.48,169.11" fill="none" stroke="#bcbcbc" stroke-width="8" stroke-linecap="round" stroke-linejoin="round" /><polyline points="-550.64,-1586.08 74.86,-1473.00 140.56,-1438.43 385.63,-1316.94 407.21,-1323.62" fill="none" stroke="#bcbcbc" stroke-width="8" stroke-linecap="round" stroke-linejoin="round" /><polyline points="-1744.80,-168.84 -1755.90,-152.65 -1855.69,-103.95 -1928.98,-10.79 -2008.07,38.17 -2062.17,79.02 -2113.77,121.11 -2140.23,145.23 -2186.96,204.51 -2239.22,279.41 -2247.83,293.29" fill="none" stroke="#bcbcbc" stroke-width="8" stroke-linecap="round" stroke-linejoin="round" /><polyline points="-1639.30,-102.01 -1643.63,-92.39 -1653.09,-78.56 -1670.97,-56.56 -1776.38,76.60 -1832.15,226.80 -2113.64,121.00" fill="none" stroke="#bcbcbc" stroke-width="8" stroke-linecap="round" stroke-linejoin="round" /><polyline points="-2062.17,79.02 -2073.07,46.02 -2120.17,-96.59 -2138.45,-124.77 -2169.06,-216.60 -2171.70,-224.53 -2167.19,-238.90 -2174.52,-262.30 -2321.71,-732.26" fill="none" stroke="#bcbcbc" stroke-width="8" stroke-linecap="round" stroke-linejoin="round" /><polyline points="-337.52,-2485.21 -221.19,-2482.14 -215.77,-2481.99 -193.48,-2481.35 -164.15,-2477.22" fill="none" stroke="#bcbcbc" stroke-width="8" stroke-linecap="round" stroke-linejoin="round" /><polyline points="-935.84,1304.04 -975.56,1303.56 -1311.87,1348.70 -1336.11,1351.26 -1363.83,1354.18 -1524.76,1371.17 -1741.58,1394.07 -1856.53,1406.19 -1920.12,1412.90 -1971.75,1419.17 -1998.26,1422.40 -2028.12,1426.03 -2172.37,1443.56 -2206.94,1447.76 -2313.47,1459.41 -2882.45,1521.64" fill="none" stroke="#bcbcbc" stroke-width="8" stroke-linecap="round" stroke-linejoin="round" /><polyline points="-1433.78,2471.73 -1463.57,2462.14 -1602.72,2417.35 -1630.85,2408.29 -1655.28,2400.44 -1802.70,2353.06 -1831.76,2343.71 -1870.22,2331.34 -2104.91,2255.81 -2131.32,2247.32" fill="none" stroke="#bcbcbc" stroke-width="8" stroke-linecap="round" stroke-linejoin="round" /><polyline points="-851.90,-345.66 -770.96,-320.44 -474.96,-229.04 -472.20,-228.18 -450.25,-226.81" fill="none" stroke="#bcbcbc" stroke-width="8" stroke-linecap="round" stroke-linejoin="round" /><polyline points="-19.03,-1012.27 383.62,-1005.19" fill="none" stroke="#bcbcbc" stroke-width="8" stroke-linecap="round" stroke-linejoin="round" /><polyline points="-216.19,2525.25 -273.75,2456.84 -297.90,2428.75 -318.65,2409.36 -346.28,2388.73 -402.75,2354.85 -457.39,2336.88 -568.57,2302.54 -659.49,2273.69 -607.08,2193.68" fill="none" stroke="#bcbcbc" stroke-width="8" stroke-linecap="round" stroke-linejoin="round" /><polyline points="-792.28,1981.14 -872.43,1882.21 -887.68,1863.40 -968.41,1752.18 -986.68,1718.22 -982.30,1677.79 -957.96,1677.56 -897.92,1689.11 -806.55,1706.68" fill="none" stroke="#bcbcbc" stroke-width="8" stroke-linecap="round" stroke-linejoin="round" /><polyline points="-1840.77,1188.50 -1826.00,1220.30 -1741.58,1394.07 -1616.07,1652.45 -1600.06,1685.40" fill="none" stroke="#bcbcbc" stroke-width="8" stroke-linecap="round" stroke-linejoin="round" /><polyline points="-3192.76,1975.56 -3162.56,1987.90 -3021.16,2045.71 -2990.29,2058.33 -2957.82,2071.61 -2791.35,2139.68 -2761.23,2152.00" fill="none" stroke="#bcbcbc" stroke-width="8" stroke-linecap="round" stroke-linejoin="round" /><polyline points="-1771.30,930.86 -1476.71,1059.74" fill="none" stroke="#bcbcbc" stroke-width="8" stroke-linecap="round" stroke-linejoin="round" /><polyline points="-450.25,-226.81 -405.38,-224.45 -402.52,-221.91 -382.38,-204.05 -352.79,-177.63 -347.33,-167.01 -245.33,-77.70 -237.79,-63.44 -166.08,-0.15 -148.03,5.36 -92.24,54.21 -79.74,59.92 4.39,131.29 23.13,147.90 33.46,164.35" fill="none" stroke="#bcbcbc" stroke-width="8" stroke-linecap="round" stroke-linejoin="round" /><polyline points="-3275.91,931.15 -2815.78,972.18" fill="none" stroke="#bcbcbc" stroke-width="8" stroke-linecap="round" stroke-linejoin="round" /><polyline points="-2248.53,2644.51 -2234.27,2614.16 -2230.61,2600.65 -2210.63,2526.98 -2138.25,2271.75 -2131.32,2247.32 -2123.99,2220.52 -2091.20,2100.61 -2035.83,1898.11 -2023.07,1851.44" fill="none" stroke="#bcbcbc" stroke-width="8" stroke-linecap="round" stroke-linejoin="round" /><polyline points="-1840.77,1188.50 -1771.30,930.86 -1918.60,879.33 -1957.17,902.10 -1974.75,915.47 -1987.76,933.08 -1996.92,956.33 -2030.80,1081.54 -2003.47,1095.45 -1975.86,1102.15 -1914.81,1118.04 -1869.12,1132.59 -1840.77,1188.50" fill="none" stroke="#bcbcbc" stroke-width="8" stroke-linecap="round" stroke-linejoin="round" /><polyline points="-2030.80,1081.54 -2063.06,1077.04 -2815.78,972.18" fill="none" stroke="#bcbcbc" stroke-width="8" stroke-linecap="round" stroke-linejoin="round" /><polyline points="-806.55,1706.68 -736.73,1721.94 -547.91,1781.95 -495.12,1798.65 -369.80,1834.84 -243.56,1871.25 -150.10,1898.25 -0.63,1941.40 30.24,1950.33 105.67,1975.62 229.86,2008.69 240.81,2010.74" fill="none" stroke="#bcbcbc" stroke-width="8" stroke-linecap="round" stroke-linejoin="round" /><polyline points="-717.98,2797.50 -743.46,2803.89 -771.01,2880.65 -813.72,2868.52 -1007.92,2802.34 -1031.30,2797.35 -1083.30,2793.62 -1318.49,2794.57 -1370.34,2787.97 -1487.42,2770.06 -1534.64,2762.39 -1869.61,2708.37 -1999.32,2687.67 -2246.69,2644.83 -2286.63,2636.91 -2844.91,2480.87 -2880.13,2471.00 -3118.94,2389.84 -3177.70,2368.99 -3324.46,2308.17 -3408.11,2276.53" fill="none" stroke="#bcbcbc" stroke-width="8" stroke-linecap="round" stroke-linejoin="round" /><polyline points="-206.35,-1330.22 -230.52,-1335.20 -553.17,-1297.05 -668.53,-1287.43" fill="none" stroke="#bcbcbc" stroke-width="8" stroke-linecap="round" stroke-linejoin="round" /><polyline points="-806.55,1706.68 -795.24,1687.77 -727.53,1513.87 -651.88,1250.93 -632.58,1194.30 -622.26,1178.88 -549.22,944.43 -545.59,916.43 -542.82,898.14" fill="none" stroke="#bcbcbc" stroke-width="8" stroke-linecap="round" stroke-linejoin="round" /><polyline points="-474.03,-833.27 -466.32,-836.22 -455.86,-844.52 -439.99,-863.08 -233.97,-1158.69 -179.10,-1236.87" fill="none" stroke="#bcbcbc" stroke-width="8" stroke-linecap="round" stroke-linejoin="round" /><polyline points="442.92,252.64 447.13,240.50 550.69,118.66 558.29,114.62 576.28,90.00 636.53,20.79 655.27,3.55" fill="none" stroke="#bcbcbc" stroke-width="8" stroke-linecap="round" stroke-linejoin="round" /><polyline points="533.42,1156.80 531.98,1140.50 530.87,1127.89 525.42,1103.77 518.89,1088.04 510.76,1046.72 510.02,1031.76 504.50,998.31 479.86,985.43 460.16,992.96 424.89,1001.41 396.98,1005.77 370.21,1012.23 333.26,1020.65 316.40,1024.50" fill="none" stroke="#bcbcbc" stroke-width="8" stroke-linecap="round" stroke-linejoin="round" /><polyline points="-2187.43,558.45 -2112.11,381.89 -2107.93,370.42" fill="none" stroke="#bcbcbc" stroke-width="8" stroke-linecap="round" stroke-linejoin="round" /><polyline points="-202.51,234.70 -166.20,220.64 -147.23,213.29 -132.55,198.43 -72.03,183.51 -51.72,188.68 -7.91,177.40 25.50,168.79 33.46,164.35 65.86,156.41 231.54,115.82 269.09,104.59" fill="none" stroke="#bcbcbc" stroke-width="8" stroke-linecap="round" stroke-linejoin="round" /><polyline points="-1730.68,1729.81 -1652.52,1701.43 -1626.38,1693.44 -1600.06,1685.40 -1551.49,1670.57 -1513.71,1665.13 -1384.66,1651.02 -1358.74,1649.60 -1243.28,1650.59 -1172.94,1651.19 -1146.49,1649.83 -1104.13,1654.12 -1090.88,1656.02 -1063.87,1659.88 -982.30,1677.79" fill="none" stroke="#bcbcbc" stroke-width="8" stroke-linecap="round" stroke-linejoin="round" /><polyline points="-1358.31,-590.40 -1371.25,-634.18 -1419.34,-796.77 -1477.75,-982.17 -1489.82,-1015.26 -1502.06,-1046.28 -1517.54,-1090.98" fill="none" stroke="#bcbcbc" stroke-width="8" stroke-linecap="round" stroke-linejoin="round" /><polyline points="-1498.17,2031.22 -1487.91,1998.78 -1384.01,1671.16 -1384.66,1651.02" fill="none" stroke="#bcbcbc" stroke-width="8" stroke-linecap="round" stroke-linejoin="round" /><polyline points="-1358.74,1649.60 -1338.17,1373.75 -1336.11,1351.26 -1332.96,1325.09 -1332.91,1323.90 -1331.56,1291.91 -1324.69,1205.08 -1320.82,1164.63 -1315.53,1118.69 -1310.71,1085.62 -1306.38,1064.85 -1300.93,1049.15 -1290.25,1013.77 -1268.18,940.13 -1240.12,845.05 -1209.18,747.83 -1202.87,728.00 -1197.80,713.63" fill="none" stroke="#bcbcbc" stroke-width="8" stroke-linecap="round" stroke-linejoin="round" /><polyline points="-2030.80,1081.54 -2036.27,1105.98 -2035.33,1113.79 -2001.81,1392.84 -1998.26,1422.40 -1999.80,1452.80 -2008.58,1626.36 -2012.25,1698.87 -2014.14,1736.27 -2017.51,1802.94 -2019.27,1837.65 -2023.07,1851.44" fill="none" stroke="#bcbcbc" stroke-width="8" stroke-linecap="round" stroke-linejoin="round" /><polyline points="-2187.43,558.45 -2309.30,522.23 -2324.79,512.29 -2400.63,490.19 -2421.94,490.42 -2517.24,461.71 -2532.64,450.35 -2619.35,424.06 -2725.75,395.06 -2726.27,395.02 -2743.92,393.50" fill="none" stroke="#bcbcbc" stroke-width="8" stroke-linecap="round" stroke-linejoin="round" /><polyline points="33.46,164.35 37.69,169.90 55.36,196.24 88.03,244.94 118.78,275.74 177.90,342.10 167.91,403.43 162.84,426.43 155.78,436.15 170.60,458.08 193.53,505.27 239.35,593.67 261.92,637.20 275.95,676.32 282.28,694.49" fill="none" stroke="#bcbcbc" stroke-width="8" stroke-linecap="round" stroke-linejoin="round" /><polyline points="-462.11,502.65 -427.11,491.31 -173.09,361.60 -139.09,344.98 -19.36,310.40 96.72,277.77 118.78,275.74" fill="none" stroke="#bcbcbc" stroke-width="8" stroke-linecap="round" stroke-linejoin="round" /><polyline points="-434.43,663.23 -141.58,526.95 -129.25,518.79 -100.61,510.46 94.53,453.68 124.13,442.34 155.78,436.15" fill="none" stroke="#bcbcbc" stroke-width="8" stroke-linecap="round" stroke-linejoin="round" /><polyline points="-494.19,-2193.79 -375.64,-2179.15 -363.73,-2177.67 -317.77,-2166.39" fill="none" stroke="#bcbcbc" stroke-width="8" stroke-linecap="round" stroke-linejoin="round" /><polyline points="518.87,-988.56 539.89,-992.95 618.44,-954.45 628.79,-944.21 776.24,-694.60 780.13,-664.34 799.30,-648.36 796.26,-637.33 795.79,-619.34 798.45,-594.18 837.50,-433.68 840.96,-322.51 846.43,-145.00 855.61,93.91 818.21,198.01 794.12,261.48 758.95,350.92 748.76,376.79 742.15,384.01 731.52,453.23" fill="none" stroke="#bcbcbc" stroke-width="8" stroke-linecap="round" stroke-linejoin="round" /><polyline points="791.49,874.85 755.62,859.25 666.01,796.71 547.77,713.63 482.74,661.04 438.87,614.05" fill="none" stroke="#bcbcbc" stroke-width="8" stroke-linecap="round" stroke-linejoin="round" /><polyline points="-659.49,2273.69 -694.71,2262.52 -751.87,2244.40 -779.14,2235.75 -811.17,2225.60 -851.65,2212.76 -888.25,2201.16 -924.43,2189.68 -1085.75,2138.49 -1114.01,2129.52 -1149.10,2118.41 -1156.85,2115.96 -1249.11,2091.58 -1275.17,2085.28 -1307.82,2077.38 -1342.00,2069.09 -1465.15,2039.23 -1498.17,2031.22 -1533.66,2018.90 -1607.81,1993.15 -1635.76,1983.44 -1660.75,1975.33 -1776.86,1934.04 -1791.48,1925.33 -1798.51,1910.18" fill="none" stroke="#bcbcbc" stroke-width="8" stroke-linecap="round" stroke-linejoin="round" /><polyline points="-129.25,518.79 -137.80,488.14 -163.29,396.74 -173.09,361.60 -187.26,335.33 -188.57,330.45 -196.92,299.52 -187.20,285.81 -198.89,246.81 -202.51,234.70" fill="none" stroke="#bcbcbc" stroke-width="8" stroke-linecap="round" stroke-linejoin="round" /><polyline points="-171.87,-599.60 -147.63,-611.01 -15.25,-684.00 60.43,-732.67 113.81,-769.08 125.59,-777.86 168.55,-807.72 213.07,-840.60 241.26,-861.11 274.86,-885.69 391.66,-938.39 406.80,-937.59 428.94,-948.06 518.87,-988.56" fill="none" stroke="#bcbcbc" stroke-width="8" stroke-linecap="round" stroke-linejoin="round" /><polyline points="-1639.30,-102.01 -1620.20,-94.27 -1607.58,-90.39 -1370.82,-17.67 -1334.66,-6.56" fill="none" stroke="#bcbcbc" stroke-width="8" stroke-linecap="round" stroke-linejoin="round" /><polyline points="-3330.40,430.40 -3499.55,379.21" fill="none" stroke="#bcbcbc" stroke-width="8" stroke-linecap="round" stroke-linejoin="round" /><polyline points="-598.15,-1954.89 -556.21,-1901.76 -549.95,-1893.83 -528.78,-1867.02 -504.65,-1864.18 -455.06,-1858.36 -446.24,-1852.27" fill="none" stroke="#bcbcbc" stroke-width="8" stroke-linecap="round" stroke-linejoin="round" /><polyline points="858.17,408.12 791.72,420.52 723.57,457.54 660.41,492.70 600.67,522.57 528.48,561.78 476.21,593.52 372.90,648.91 -30.35,851.78 -134.90,897.83 -203.98,927.71 -238.20,938.91 -266.52,944.20 -312.88,947.00 -378.85,937.67 -543.45,898.14 -777.12,843.69 -1084.54,750.96 -1197.80,713.63 -1383.25,656.37 -1560.61,597.88 -1820.73,495.81 -1950.80,439.81 -2107.62,370.11 -2367.74,227.60 -2428.73,187.15 -2583.06,90.07 -2647.78,25.35 -2744.86,-100.35 -2904.79,-265.26 -2967.65,-320.64" fill="none" stroke="#bcbcbc" stroke-width="8" stroke-linecap="round" stroke-linejoin="round" /><polyline points="-402.75,2354.85 -400.03,2339.65 -390.19,2314.81 -297.95,2098.97 -263.10,2018.06 -222.02,1917.24 -212.02,1880.34" fill="none" stroke="#bcbcbc" stroke-width="8" stroke-linecap="round" stroke-linejoin="round" /><polyline points="-2172.37,1443.56 -2277.15,1392.84 -2515.59,1277.44 -2808.05,1135.90 -2834.15,1123.27" fill="none" stroke="#bcbcbc" stroke-width="8" stroke-linecap="round" stroke-linejoin="round" /><polyline points="-450.25,-226.81 -423.79,-253.90 -353.44,-325.92 -297.61,-386.88" fill="none" stroke="#bcbcbc" stroke-width="8" stroke-linecap="round" stroke-linejoin="round" /><polyline points="-2481.70,-66.36 -2510.77,-104.85 -2646.98,-285.19 -2841.42,-442.54" fill="none" stroke="#bcbcbc" stroke-width="8" stroke-linecap="round" stroke-linejoin="round" /><polyline points="-3325.50,2307.73 -3298.91,2244.68 -3214.37,2033.91 -3204.12,2006.24 -3192.76,1975.56 -3188.44,1964.48 -3187.30,1947.14 -3176.48,1783.28 -3173.37,1736.28" fill="none" stroke="#bcbcbc" stroke-width="8" stroke-linecap="round" stroke-linejoin="round" /><polyline points="-3383.18,613.45 -3330.40,430.40 -3260.77,188.97 -3252.15,159.08 -3242.57,125.13 -3221.11,49.11 -3218.85,41.13 -3212.71,16.68 -3202.91,-10.95 -3200.53,-17.64 -3188.16,-48.32 -3163.86,-101.92 -3156.59,-117.31" fill="none" stroke="#bcbcbc" stroke-width="8" stroke-linecap="round" stroke-linejoin="round" /><polyline points="-3252.15,159.08 -3145.36,186.39 -2919.15,244.54 -2790.27,284.66 -2736.51,297.26" fill="none" stroke="#bcbcbc" stroke-width="8" stroke-linecap="round" stroke-linejoin="round" /><polyline points="-1053.95,-671.50 -1050.31,-693.72 -1046.66,-716.79 -1031.00,-793.98 -991.85,-973.63 -959.71,-1134.34 -953.83,-1167.68 -945.85,-1212.95 -945.84,-1212.99" fill="none" stroke="#bcbcbc" stroke-width="8" stroke-linecap="round" stroke-linejoin="round" /><polyline points="-1370.13,2788.00 -1322.45,2666.38 -1316.53,2644.53 -1127.30,2164.18 -1114.01,2129.52 -1103.25,2100.13 -990.18,1771.18 -968.41,1752.18" fill="none" stroke="#bcbcbc" stroke-width="8" stroke-linecap="round" stroke-linejoin="round" /><polyline points="-721.51,-764.49 -721.52,-764.53 -728.22,-799.71 -729.27,-803.98 -745.62,-870.46 -745.60,-870.67 -756.75,-915.74 -803.97,-1077.57 -809.92,-1094.90 -841.81,-1181.59 -852.17,-1207.47 -858.86,-1224.16 -867.54,-1243.12 -867.55,-1243.15 -867.56,-1243.24 -873.88,-1312.94 -874.49,-1347.15" fill="none" stroke="#bcbcbc" stroke-width="8" stroke-linecap="round" stroke-linejoin="round" /><polyline points="-792.28,1981.15 -804.43,1994.27 -822.52,2015.79 -873.50,2159.54 -888.25,2201.16" fill="none" stroke="#bcbcbc" stroke-width="8" stroke-linecap="round" stroke-linejoin="round" /><polyline points="-1639.30,-102.01 -1632.33,-120.88 -1630.76,-125.27 -1597.66,-217.74 -1585.24,-256.69 -1483.78,-555.04" fill="none" stroke="#bcbcbc" stroke-width="8" stroke-linecap="round" stroke-linejoin="round" /><polyline points="-1114.43,316.26 -1104.08,288.76 -1076.05,214.28 -1064.19,182.79 -1056.17,161.48 -1033.67,101.72 -1018.81,62.24 -1016.80,56.93 -980.80,-38.71 -965.74,-34.05 -957.59,-56.26 -943.16,-95.54 -945.93,-113.38 -907.62,-217.66 -903.69,-228.37 -896.42,-235.05 -890.32,-240.65 -851.90,-345.66 -846.35,-374.41 -791.24,-527.53 -778.20,-537.73 -751.69,-612.74 -756.40,-624.26 -733.18,-694.31 -745.23,-756.86" fill="none" stroke="#bcbcbc" stroke-width="8" stroke-linecap="round" stroke-linejoin="round" /><polyline points="-128.58,-2532.01 -144.02,-2557.34 -225.17,-2690.46" fill="none" stroke="#bcbcbc" stroke-width="8" stroke-linecap="round" stroke-linejoin="round" /><polyline points="125.59,-777.86 497.99,-538.39 498.09,-538.23 498.09,-538.19 566.97,-529.25" fill="none" stroke="#bcbcbc" stroke-width="8" stroke-linecap="round" stroke-linejoin="round" /><polyline points="-23.74,-1278.09 372.47,-1079.21 384.43,-1070.29 383.63,-1005.19 391.66,-938.39" fill="none" stroke="#bcbcbc" stroke-width="8" stroke-linecap="round" stroke-linejoin="round" /><polyline points="-779.14,2235.75 -793.39,2279.23 -851.12,2455.29 -949.32,2751.81 -956.28,2772.84 -963.34,2794.16 -965.31,2816.86" fill="none" stroke="#bcbcbc" stroke-width="8" stroke-linecap="round" stroke-linejoin="round" /><polyline points="336.26,1166.20 338.63,1144.11 339.14,1123.50 338.98,1122.78 324.93,1062.09 319.18,1036.73 316.40,1024.50 313.56,1012.00 298.15,944.10 268.04,808.41 246.17,726.83 243.06,714.23" fill="none" stroke="#bcbcbc" stroke-width="8" stroke-linecap="round" stroke-linejoin="round" /><polyline points="-1630.85,2408.29 -1621.03,2380.38 -1510.70,2066.82 -1498.17,2031.22" fill="none" stroke="#bcbcbc" stroke-width="8" stroke-linecap="round" stroke-linejoin="round" /><polyline points="846.43,-145.01 813.97,-154.16 593.53,-492.43 566.97,-529.25" fill="none" stroke="#bcbcbc" stroke-width="8" stroke-linecap="round" stroke-linejoin="round" /><polyline points="-2777.40,666.62 -1974.00,859.10 -1918.60,879.33" fill="none" stroke="#bcbcbc" stroke-width="8" stroke-linecap="round" stroke-linejoin="round" /><polyline points="-243.45,-2340.84 69.50,-2224.92 113.56,-2232.44" fill="none" stroke="#bcbcbc" stroke-width="8" stroke-linecap="round" stroke-linejoin="round" />
    <polyline points="342.10,290.66 325.11,295.94 213.20,330.76 197.15,335.92 177.90,342.10" fill="none" stroke="#ffffff" stroke-width="16" stroke-linecap="round" stroke-linejoin="round" />
    <polyline points="342.10,290.66 325.11,295.94 213.20,330.76 197.15,335.92 177.90,342.10" fill="none" stroke="#111111" stroke-width="9" stroke-linecap="round" stroke-linejoin="round" />
    
            <g transform="translate(342.10,290.66)">
              <circle r="19" fill="#ffffff" stroke="#111111" stroke-width="4" />
              <text text-anchor="middle" dominant-baseline="central" font-family="Helvetica, Arial, sans-serif"
                font-size="18" font-weight="700" fill="#111111">1</text>
            </g>
            
            <g transform="translate(177.90,342.10)">
              <circle r="19" fill="#ffffff" stroke="#111111" stroke-width="4" />
              <text text-anchor="middle" dominant-baseline="central" font-family="Helvetica, Arial, sans-serif"
                font-size="18" font-weight="700" fill="#111111">2</text>
            </g>
            
  </g>
</svg>
