<svg xmlns="http://www.w3.org/2000/svg" width="520" height="520" viewBox="0 0 520 520">
  <rect width="100%" height="100%" fill="#ffffff" />
  <g>
    <polyline points="480.63,-123.65 483.01,-111.01 498.34,-3.72 496.00,23.10" fill="none" stroke="#bcbcbc" stroke-width="8" stroke-linecap="round" stroke-linejoin="round" /><polyline points="168.90,770.42 172.61,759.02 192.26,698.60 194.57,691.48 196.92,684.00 246.32,526.47 250.29,513.80 241.19,491.39" fill="none" stroke="#bcbcbc" stroke-width="8" stroke-linecap="round" stroke-linejoin="round" /><polyline points="-172.33,630.30 -173.13,621.25 -156.98,530.79 -154.71,519.48 -153.02,513.55 -148.57,490.61 -143.58,462.54 -138.13,437.81 -132.74,413.14 -129.34,406.18 -127.11,401.92" fill="none" stroke="#bcbcbc" stroke-width="8" stroke-linecap="round" stroke-linejoin="round" /><polyline points="-78.58,-7.77 -82.42,-19.48 -122.11,-140.53 -124.05,-145.60" fill="none" stroke="#bcbcbc" stroke-width="8" stroke-linecap="round" stroke-linejoin="round" /><polyline points="-282.24,1057.59 -281.05,1046.04 -280.57,1040.74 -276.25,992.94 -271.52,950.86 -270.42,941.03 -269.39,929.25 -269.28,928.25 -266.60,904.81 -264.28,880.99 -261.74,858.00 -260.02,840.10 -259.31,829.05 -258.67,818.85 -257.55,807.36" fill="none" stroke="#bcbcbc" stroke-width="8" stroke-linecap="round" stroke-linejoin="round" /><polyline points="266.17,798.50 269.00,789.61 288.92,727.01 291.18,719.89 294.40,709.76 296.70,702.50 314.33,626.47" fill="none" stroke="#bcbcbc" stroke-width="8" stroke-linecap="round" stroke-linejoin="round" /><polyline points="188.76,-439.91 196.11,-438.78 398.78,-407.63" fill="none" stroke="#bcbcbc" stroke-width="8" stroke-linecap="round" stroke-linejoin="round" /><polyline points="-331.54,783.75 -352.64,782.77 -365.50,782.17 -372.49,781.84 -378.62,781.56 -426.39,779.34 -492.83,776.25 -524.50,771.76 -535.10,770.25 -544.30,768.63 -606.59,757.64 -615.29,756.10 -617.22,755.77 -627.98,753.92 -636.24,752.51 -689.02,747.84 -699.07,746.95 -702.76,746.63 -714.17,745.84 -736.52,744.29" fill="none" stroke="#bcbcbc" stroke-width="8" stroke-linecap="round" stroke-linejoin="round" /><polyline points="-25.07,722.55 -20.98,710.92 15.84,608.85 60.13,480.11 62.97,472.04 64.95,466.40 66.55,461.77" fill="none" stroke="#bcbcbc" stroke-width="8" stroke-linecap="round" stroke-linejoin="round" /><polyline points="-702.76,746.63 -703.70,740.07 -703.92,732.94 -702.53,718.58 -699.32,692.38 -697.18,683.58 -693.71,651.78 -693.08,644.69 -692.06,635.59 -691.31,628.82 -689.89,621.16 -687.25,600.53 -685.42,584.75 -682.73,578.29" fill="none" stroke="#bcbcbc" stroke-width="8" stroke-linecap="round" stroke-linejoin="round" /><polyline points="-740.45,570.23 -691.33,577.09 -682.73,578.29 -677.39,579.14 -655.38,582.65 -604.66,590.73 -595.95,592.18" fill="none" stroke="#bcbcbc" stroke-width="8" stroke-linecap="round" stroke-linejoin="round" /><polyline points="163.39,-74.04 163.71,-69.57 164.37,-65.05 165.97,-61.59 168.95,-57.73 174.48,-52.70 187.56,-44.74 288.54,18.61 350.73,101.99 397.70,217.92 400.77,225.57" fill="none" stroke="#bcbcbc" stroke-width="8" stroke-linecap="round" stroke-linejoin="round" /><polyline points="147.22,264.22 149.32,267.68 149.86,268.58 151.59,277.33 163.44,334.62 167.20,352.80 169.89,365.75 174.08,392.00 176.04,404.11 177.40,411.49 178.87,418.16 180.64,422.05 183.23,426.56 184.62,428.68 210.86,466.25 225.05,488.59 228.75,493.94" fill="none" stroke="#bcbcbc" stroke-width="8" stroke-linecap="round" stroke-linejoin="round" /><polyline points="-605.98,981.54 -604.59,972.94 -603.29,966.72 -602.94,965.90 -585.48,924.38 -574.35,897.39 -570.97,888.84 -567.39,879.78 -563.50,871.99 -562.87,870.47 -557.55,857.60 -553.43,846.21 -549.90,835.77 -547.66,828.38 -545.15,819.26 -542.25,807.03 -540.05,797.10 -537.42,783.25 -536.87,780.16 -535.10,770.25" fill="none" stroke="#bcbcbc" stroke-width="8" stroke-linecap="round" stroke-linejoin="round" /><polyline points="240.09,-178.01 295.78,-139.10 303.28,-137.51 308.77,-131.23" fill="none" stroke="#bcbcbc" stroke-width="8" stroke-linecap="round" stroke-linejoin="round" /><polyline points="6.28,181.32 13.64,184.15 45.59,194.60 119.70,223.02 123.86,227.17 125.81,230.26" fill="none" stroke="#bcbcbc" stroke-width="8" stroke-linecap="round" stroke-linejoin="round" /><polyline points="144.38,911.64 149.43,898.48 174.35,830.89 191.96,779.82 195.61,778.14" fill="none" stroke="#bcbcbc" stroke-width="8" stroke-linecap="round" stroke-linejoin="round" /><polyline points="-207.79,825.93 -203.86,817.24 -203.47,816.38 -196.75,793.81 -185.73,756.67 -182.91,747.17 -180.71,739.79 -180.42,735.48 -180.87,725.96" fill="none" stroke="#bcbcbc" stroke-width="8" stroke-linecap="round" stroke-linejoin="round" /><polyline points="250.14,267.19 243.83,268.49 229.51,265.94 227.30,260.04 202.50,250.58 196.63,252.12 174.25,243.90 170.92,246.23" fill="none" stroke="#bcbcbc" stroke-width="8" stroke-linecap="round" stroke-linejoin="round" /><polyline points="213.32,-499.98 224.56,-497.23 230.77,-496.15 378.62,-470.52" fill="none" stroke="#bcbcbc" stroke-width="8" stroke-linecap="round" stroke-linejoin="round" /><polyline points="98.41,870.47 104.56,853.13 116.51,819.44 124.23,805.08 135.35,773.97 139.79,761.55" fill="none" stroke="#bcbcbc" stroke-width="8" stroke-linecap="round" stroke-linejoin="round" /><polyline points="-711.64,197.53 -722.35,197.04 -725.04,200.30 -743.69,222.97 -808.90,298.29 -818.07,308.89" fill="none" stroke="#bcbcbc" stroke-width="8" stroke-linecap="round" stroke-linejoin="round" /><polyline points="-139.65,262.04 -144.38,272.51 -144.95,273.78 -161.37,316.60 -177.93,363.74 -182.34,376.32 -184.85,382.81" fill="none" stroke="#bcbcbc" stroke-width="8" stroke-linecap="round" stroke-linejoin="round" /><polyline points="101.25,-219.15 106.46,-212.07 110.19,-202.34 115.99,-188.37 125.29,-166.39 133.53,-146.67 142.99,-125.01 150.00,-108.32 151.04,-105.92 151.11,-105.77 156.75,-92.57 158.44,-88.82 160.05,-85.25 161.74,-81.90 163.02,-78.50 163.39,-74.04" fill="none" stroke="#bcbcbc" stroke-width="8" stroke-linecap="round" stroke-linejoin="round" /><polyline points="-298.16,473.15 -295.43,471.66 -291.61,468.62 -289.70,464.68 -264.33,368.48 -263.56,363.05 -260.47,353.14" fill="none" stroke="#bcbcbc" stroke-width="8" stroke-linecap="round" stroke-linejoin="round" /><polyline points="589.04,322.60 592.64,334.02 595.18,346.02 590.24,391.75 584.54,426.15 581.43,437.88 581.15,438.94 578.42,445.27 574.70,451.99 566.02,462.97 570.23,484.43 556.63,530.51 549.12,555.96 533.76,597.61 511.26,648.32 483.80,696.92 475.22,712.72 459.71,738.67 397.75,826.61 384.18,844.90 331.61,913.60 301.43,947.94 259.21,990.84 255.31,991.24 245.77,999.04" fill="none" stroke="#bcbcbc" stroke-width="8" stroke-linecap="round" stroke-linejoin="round" /><polyline points="-175.49,1074.81 -158.19,1021.17 -155.36,1012.31 -151.52,1006.73 -143.26,981.94 -140.57,973.52 -106.45,866.68 -103.01,855.94 -100.19,846.50 -59.92,719.77" fill="none" stroke="#bcbcbc" stroke-width="8" stroke-linecap="round" stroke-linejoin="round" /><polyline points="229.69,77.23 244.64,60.89 249.05,55.57 279.26,12.78" fill="none" stroke="#bcbcbc" stroke-width="8" stroke-linecap="round" stroke-linejoin="round" /><polyline points="-69.16,83.70 -27.98,98.03 -25.71,101.73 -14.02,105.65 -7.08,108.02 26.11,119.23" fill="none" stroke="#bcbcbc" stroke-width="8" stroke-linecap="round" stroke-linejoin="round" /><polyline points="289.72,-201.23 308.77,-131.23 330.81,-48.77 334.16,-41.89 334.69,-34.05 349.64,-6.14 389.98,69.10 398.80,82.11 401.36,85.92 461.64,198.62 489.34,223.80 493.23,228.82 498.71,233.50 551.31,278.48 554.88,281.53 564.32,286.55" fill="none" stroke="#bcbcbc" stroke-width="8" stroke-linecap="round" stroke-linejoin="round" /><polyline points="85.15,1086.19 216.33,1009.99 239.68,998.05 245.77,999.04" fill="none" stroke="#bcbcbc" stroke-width="8" stroke-linecap="round" stroke-linejoin="round" /><polyline points="227.38,977.18 235.52,967.50 308.59,821.70 313.43,812.14 317.48,802.68 341.08,744.31 348.11,726.73 368.45,665.16 381.64,586.01 383.21,574.49" fill="none" stroke="#bcbcbc" stroke-width="8" stroke-linecap="round" stroke-linejoin="round" /><polyline points="170.99,119.73 169.71,121.04 167.95,127.18 167.78,127.79 159.85,158.32 161.93,166.29 160.20,173.44 157.93,182.79 152.13,189.52 145.54,216.19 137.79,222.05 129.51,227.73 125.81,230.26" fill="none" stroke="#bcbcbc" stroke-width="8" stroke-linecap="round" stroke-linejoin="round" /><polyline points="-139.65,262.04 -136.28,253.40 -116.01,201.43 -111.59,190.10 -107.95,180.77 -82.04,114.41 -70.38,86.66 -69.16,83.70 -60.09,61.79 -39.76,11.30 -32.31,-10.20 -30.65,-15.13 -28.43,-20.72" fill="none" stroke="#bcbcbc" stroke-width="8" stroke-linecap="round" stroke-linejoin="round" /><polyline points="87.19,-52.97 91.11,-41.30 219.76,68.59 289.96,129.66 394.82,220.81 403.97,228.13 408.07,230.70 426.27,247.21 450.56,267.94 505.68,314.93 523.48,330.24 535.29,344.37" fill="none" stroke="#bcbcbc" stroke-width="8" stroke-linecap="round" stroke-linejoin="round" /><polyline points="299.90,-242.32 306.43,-246.51 345.09,-262.57 353.03,-270.93" fill="none" stroke="#bcbcbc" stroke-width="8" stroke-linecap="round" stroke-linejoin="round" /><polyline points="344.55,735.62 291.18,719.89 194.57,691.48" fill="none" stroke="#bcbcbc" stroke-width="8" stroke-linecap="round" stroke-linejoin="round" /><polyline points="172.27,-399.62 179.56,-394.59 417.12,-341.73" fill="none" stroke="#bcbcbc" stroke-width="8" stroke-linecap="round" stroke-linejoin="round" /><polyline points="465.71,382.53 453.43,355.21 426.18,290.23 424.15,285.07 419.49,273.20 401.93,228.51 400.82,225.62" fill="none" stroke="#bcbcbc" stroke-width="8" stroke-linecap="round" stroke-linejoin="round" /><polyline points="101.25,-219.15 88.06,-222.90 78.37,-225.79 58.67,-231.64 48.66,-234.49 42.93,-236.08 35.44,-238.23" fill="none" stroke="#bcbcbc" stroke-width="8" stroke-linecap="round" stroke-linejoin="round" /><polyline points="-242.63,138.25 -243.30,136.07 -243.92,134.54 -246.63,127.79 -257.16,103.24 -267.17,78.30 -269.33,72.41 -271.82,65.63 -273.60,60.08 -276.54,51.76 -276.85,50.89 -286.43,27.29 -304.01,-17.06 -307.96,-19.31 -310.76,-26.51 -316.37,-45.99 -325.97,-70.13 -328.04,-75.62" fill="none" stroke="#bcbcbc" stroke-width="8" stroke-linecap="round" stroke-linejoin="round" /><polyline points="-158.19,1021.17 -148.21,1024.22 -115.91,1034.07 -105.80,1037.15" fill="none" stroke="#bcbcbc" stroke-width="8" stroke-linecap="round" stroke-linejoin="round" /><polyline points="444.96,-230.71 446.84,-238.32 446.07,-241.21 445.15,-244.70 439.25,-266.30 426.11,-311.97 419.17,-335.32 417.12,-341.73 398.78,-407.63 388.89,-443.18 378.62,-470.52 369.34,-495.17 360.11,-512.13 351.13,-521.08 282.24,-605.27 277.14,-611.26 273.76,-616.80" fill="none" stroke="#bcbcbc" stroke-width="8" stroke-linecap="round" stroke-linejoin="round" /><polyline points="163.39,-74.04 159.84,-72.68 153.27,-70.87 152.61,-70.69 125.18,-63.67 93.63,-54.79 87.19,-52.97 84.32,-52.06 76.74,-49.63 70.26,-47.82 41.97,-39.95 -4.55,-26.73 -21.90,-22.35 -28.43,-20.72 -59.43,-13.10 -78.58,-7.77 -119.14,3.56 -159.23,14.86 -163.87,16.15 -197.38,25.45 -212.83,29.74 -220.64,33.42 -235.41,40.75 -264.75,55.64 -266.79,56.67 -273.60,60.08 -277.76,62.16 -283.56,65.20 -304.17,76.01 -341.73,97.08 -373.10,113.52 -377.59,115.87 -383.58,116.24 -387.19,118.16 -387.90,118.54 -421.94,137.19 -429.07,137.16 -437.25,141.44 -440.11,142.93 -442.52,144.20 -448.21,147.17 -452.69,157.40 -471.95,167.71 -478.08,171.00 -484.71,174.60 -511.51,189.19 -525.36,196.73 -532.35,198.74" fill="none" stroke="#bcbcbc" stroke-width="8" stroke-linecap="round" stroke-linejoin="round" /><polyline points="549.12,555.96 534.82,557.27 490.14,561.36 488.13,561.55 485.28,561.81 480.67,562.23 437.35,566.21 422.29,564.81 404.74,569.21 390.69,572.65 383.21,574.49 364.61,575.19 348.51,574.37 340.31,573.50 333.32,571.39 328.18,568.54 309.02,555.00 262.48,523.04 258.10,520.06 253.63,517.03 250.29,513.80" fill="none" stroke="#bcbcbc" stroke-width="8" stroke-linecap="round" stroke-linejoin="round" /><polyline points="-504.95,16.31 -488.06,49.37 -485.50,58.81 -471.28,85.96 -465.40,93.72 -441.63,139.98 -440.11,142.93" fill="none" stroke="#bcbcbc" stroke-width="8" stroke-linecap="round" stroke-linejoin="round" /><polyline points="12.56,310.31 10.03,317.26 9.32,319.42 6.02,329.42 -14.87,387.71 -25.24,416.65 -25.60,417.64 -29.76,426.64 -32.15,431.98" fill="none" stroke="#bcbcbc" stroke-width="8" stroke-linecap="round" stroke-linejoin="round" /><polyline points="289.72,-201.23 287.41,-206.19 281.32,-206.99 261.63,-202.47 257.62,-202.99 254.49,-207.19 248.92,-232.82 279.10,-237.49 293.07,-241.61 299.90,-242.32 307.26,-216.16" fill="none" stroke="#bcbcbc" stroke-width="8" stroke-linecap="round" stroke-linejoin="round" /><polyline points="398.80,82.11 406.58,77.75 445.63,54.22 456.06,48.00 474.33,37.11 504.38,17.68 511.39,12.64 564.11,-20.06" fill="none" stroke="#bcbcbc" stroke-width="8" stroke-linecap="round" stroke-linejoin="round" /><polyline points="583.06,236.57 569.74,232.60 561.99,226.24 532.38,200.62 531.37,199.72 524.21,193.33 520.01,185.87 445.63,54.22" fill="none" stroke="#bcbcbc" stroke-width="8" stroke-linecap="round" stroke-linejoin="round" /><polyline points="-256.36,226.13 -139.65,262.04 -130.13,265.06 -43.04,292.67 -41.22,293.25 -28.18,297.38 -21.76,299.42 -13.43,301.70 3.76,307.52 12.56,310.31 20.47,312.82 85.28,333.38 153.70,354.87 159.36,356.65 167.20,352.80" fill="none" stroke="#bcbcbc" stroke-width="8" stroke-linecap="round" stroke-linejoin="round" /><polyline points="86.79,-350.02 137.34,-396.47 145.90,-404.33" fill="none" stroke="#bcbcbc" stroke-width="8" stroke-linecap="round" stroke-linejoin="round" /><polyline points="-759.73,399.50 -574.24,419.38" fill="none" stroke="#bcbcbc" stroke-width="8" stroke-linecap="round" stroke-linejoin="round" /><polyline points="-200.15,-118.24 -161.16,-132.19 -120.95,-146.73 -95.96,-156.44 -19.67,-184.18 2.47,-191.84 7.09,-193.44 12.64,-195.35 18.87,-197.49 19.63,-197.75 32.19,-202.80 37.66,-205.00" fill="none" stroke="#bcbcbc" stroke-width="8" stroke-linecap="round" stroke-linejoin="round" /><polyline points="61.71,825.19 98.41,870.47 120.88,893.10 130.61,900.10 144.38,911.63 157.32,922.50 168.43,933.34 168.71,938.85" fill="none" stroke="#bcbcbc" stroke-width="8" stroke-linecap="round" stroke-linejoin="round" /><polyline points="101.25,-219.15 115.63,-255.20 138.91,-314.57 172.27,-399.62 188.76,-439.91 213.32,-499.98 233.46,-549.19 237.06,-555.72 254.78,-584.68 255.92,-586.55 262.40,-599.30 273.76,-616.80 280.11,-626.57 289.09,-640.39" fill="none" stroke="#bcbcbc" stroke-width="8" stroke-linecap="round" stroke-linejoin="round" /><polyline points="-238.12,744.89 -240.48,746.77 -242.03,749.02 -245.21,758.37 -247.40,765.13 -257.53,795.43 -258.93,799.80 -259.79,802.52 -269.10,799.85 -291.75,792.26 -314.20,784.73 -331.54,783.75" fill="none" stroke="#bcbcbc" stroke-width="8" stroke-linecap="round" stroke-linejoin="round" /><polyline points="-681.68,955.77 -644.70,860.25 -640.58,849.85 -636.89,839.84 -632.43,827.73 -626.96,808.70 -621.25,785.04 -618.92,768.08 -617.22,755.77 -614.83,746.68 -606.12,678.37 -595.95,592.18 -590.69,551.09 -584.82,502.82 -574.24,419.38 -572.56,405.19 -561.86,317.93 -561.85,313.07 -559.49,287.17 -552.67,232.48 -550.96,222.94 -549.18,217.59 -546.39,211.70 -543.67,207.13 -537.69,200.65 -532.33,198.81" fill="none" stroke="#bcbcbc" stroke-width="8" stroke-linecap="round" stroke-linejoin="round" /><polyline points="125.81,230.26 127.84,233.47 134.62,244.06 144.78,260.34 147.22,264.22 151.27,261.14 170.92,246.23" fill="none" stroke="#bcbcbc" stroke-width="8" stroke-linecap="round" stroke-linejoin="round" /><polyline points="138.91,-314.57 338.77,-278.44 359.76,-267.39 438.06,-228.57 444.96,-230.71" fill="none" stroke="#bcbcbc" stroke-width="8" stroke-linecap="round" stroke-linejoin="round" /><polyline points="-242.63,138.25 -246.18,143.43 -278.06,158.99 -301.48,188.75 -326.75,204.40 -344.03,217.45 -360.52,230.90 -368.97,238.60 -383.91,257.54 -400.60,281.47 -403.35,285.91" fill="none" stroke="#bcbcbc" stroke-width="8" stroke-linecap="round" stroke-linejoin="round" /><polyline points="-208.92,159.60 -210.31,162.68 -213.33,167.10 -219.04,174.13 -252.72,216.67 -270.54,264.66 -360.48,230.86" fill="none" stroke="#bcbcbc" stroke-width="8" stroke-linecap="round" stroke-linejoin="round" /><polyline points="-344.03,217.45 -347.52,206.90 -362.57,161.34 -368.41,152.33 -378.19,122.99 -379.03,120.46 -377.59,115.87 -379.93,108.39 -426.96,-41.76" fill="none" stroke="#bcbcbc" stroke-width="8" stroke-linecap="round" stroke-linejoin="round" /><polyline points="207.01,-601.85 244.17,-600.87 245.91,-600.82 253.03,-600.61 262.40,-599.30" fill="none" stroke="#bcbcbc" stroke-width="8" stroke-linecap="round" stroke-linejoin="round" /><polyline points="15.84,608.85 3.15,608.70 -104.31,623.12 -112.05,623.94 -120.91,624.87 -172.33,630.30 -241.60,637.62 -278.33,641.49 -298.65,643.63 -315.14,645.64 -323.61,646.67 -333.16,647.83 -379.24,653.43 -390.29,654.77 -424.33,658.49 -606.12,678.37" fill="none" stroke="#bcbcbc" stroke-width="8" stroke-linecap="round" stroke-linejoin="round" /><polyline points="-143.26,981.94 -152.78,978.87 -197.24,964.56 -206.22,961.67 -214.03,959.16 -261.13,944.02 -270.42,941.03 -282.70,937.08 -357.69,912.95 -366.13,910.24" fill="none" stroke="#bcbcbc" stroke-width="8" stroke-linecap="round" stroke-linejoin="round" /><polyline points="42.66,81.76 68.52,89.82 163.09,119.02 163.98,119.29 170.99,119.73" fill="none" stroke="#bcbcbc" stroke-width="8" stroke-linecap="round" stroke-linejoin="round" /><polyline points="308.77,-131.23 437.42,-128.97" fill="none" stroke="#bcbcbc" stroke-width="8" stroke-linecap="round" stroke-linejoin="round" /><polyline points="245.77,999.04 227.38,977.18 219.67,968.20 213.03,962.01 204.21,955.42 186.16,944.59 168.71,938.85 133.19,927.88 104.13,918.66 120.88,893.10" fill="none" stroke="#bcbcbc" stroke-width="8" stroke-linecap="round" stroke-linejoin="round" /><polyline points="61.71,825.19 36.10,793.58 31.23,787.57 5.43,752.04 -0.41,741.19 1.00,728.27 8.77,728.19 27.96,731.88 57.15,737.50" fill="none" stroke="#bcbcbc" stroke-width="8" stroke-linecap="round" stroke-linejoin="round" /><polyline points="-273.30,571.93 -268.57,582.09 -241.60,637.62 -201.50,720.17 -196.39,730.70" fill="none" stroke="#bcbcbc" stroke-width="8" stroke-linecap="round" stroke-linejoin="round" /><polyline points="-705.27,823.41 -695.62,827.35 -650.44,845.82 -640.58,849.85 -630.20,854.09 -577.01,875.85 -567.39,879.78" fill="none" stroke="#bcbcbc" stroke-width="8" stroke-linecap="round" stroke-linejoin="round" /><polyline points="-251.10,489.62 -156.98,530.79" fill="none" stroke="#bcbcbc" stroke-width="8" stroke-linecap="round" stroke-linejoin="round" /><polyline points="170.99,119.73 185.33,120.48 186.24,121.30 192.67,127.00 202.13,135.44 203.87,138.84 236.46,167.37 238.87,171.93 261.79,192.15 267.55,193.91 285.38,209.52 289.37,211.34 316.25,234.15 322.24,239.45 325.54,244.71" fill="none" stroke="#bcbcbc" stroke-width="8" stroke-linecap="round" stroke-linejoin="round" /><polyline points="-731.84,489.71 -584.82,502.82" fill="none" stroke="#bcbcbc" stroke-width="8" stroke-linecap="round" stroke-linejoin="round" /><polyline points="-403.58,1037.14 -399.02,1027.44 -397.85,1023.13 -391.47,999.59 -368.34,918.04 -366.13,910.24 -363.79,901.67 -353.31,863.36 -335.62,798.66 -331.54,783.75" fill="none" stroke="#bcbcbc" stroke-width="8" stroke-linecap="round" stroke-linejoin="round" /><polyline points="-273.30,571.93 -251.10,489.62 -298.16,473.15 -310.48,480.43 -316.10,484.70 -320.26,490.33 -323.19,497.75 -334.01,537.76 -325.28,542.20 -316.46,544.35 -296.95,549.42 -282.35,554.07 -273.30,571.93" fill="none" stroke="#bcbcbc" stroke-width="8" stroke-linecap="round" stroke-linejoin="round" /><polyline points="-334.01,537.76 -344.32,536.32 -584.82,502.82" fill="none" stroke="#bcbcbc" stroke-width="8" stroke-linecap="round" stroke-linejoin="round" /><polyline points="57.15,737.50 79.45,742.37 139.79,761.55 156.65,766.88 196.69,778.45 237.03,790.08 266.89,798.71 314.65,812.49 324.51,815.35 348.61,823.43 388.29,833.99 391.79,834.65" fill="none" stroke="#bcbcbc" stroke-width="8" stroke-linecap="round" stroke-linejoin="round" /><polyline points="85.45,1086.02 77.31,1088.06 68.50,1112.59 54.86,1108.72 -7.19,1087.57 -14.66,1085.97 -31.28,1084.79 -106.42,1085.09 -122.99,1082.98 -160.40,1077.26 -175.49,1074.81 -282.51,1057.55 -323.95,1050.93 -402.99,1037.24 -415.75,1034.71 -594.13,984.86 -605.38,981.71 -681.68,955.77 -700.46,949.11 -747.35,929.68 -774.08,919.57" fill="none" stroke="#bcbcbc" stroke-width="8" stroke-linecap="round" stroke-linejoin="round" /><polyline points="248.92,-232.82 241.19,-234.41 138.10,-222.22 101.25,-219.15" fill="none" stroke="#bcbcbc" stroke-width="8" stroke-linecap="round" stroke-linejoin="round" /><polyline points="57.15,737.50 60.76,731.45 82.40,675.89 106.57,591.88 112.73,573.79 116.03,568.86 139.37,493.95 140.53,485.01 141.41,479.16" fill="none" stroke="#bcbcbc" stroke-width="8" stroke-linecap="round" stroke-linejoin="round" /><polyline points="163.39,-74.04 165.86,-74.98 169.20,-77.63 174.27,-83.56 240.09,-178.01 257.62,-202.99" fill="none" stroke="#bcbcbc" stroke-width="8" stroke-linecap="round" stroke-linejoin="round" /><polyline points="456.36,272.92 457.71,269.04 490.80,230.11 493.23,228.82 498.98,220.95 518.23,198.84 524.21,193.33" fill="none" stroke="#bcbcbc" stroke-width="8" stroke-linecap="round" stroke-linejoin="round" /><polyline points="485.28,561.81 484.82,556.60 484.47,552.57 482.72,544.86 480.64,539.84 478.04,526.64 477.80,521.85 476.04,511.17 468.17,507.05 461.87,509.46 450.60,512.16 441.69,513.55 433.13,515.61 421.33,518.31 415.94,519.53" fill="none" stroke="#bcbcbc" stroke-width="8" stroke-linecap="round" stroke-linejoin="round" /><polyline points="-384.06,370.63 -359.99,314.22 -358.65,310.55" fill="none" stroke="#bcbcbc" stroke-width="8" stroke-linecap="round" stroke-linejoin="round" /><polyline points="250.14,267.19 261.74,262.69 267.81,260.35 272.50,255.60 291.83,250.83 298.32,252.48 312.32,248.88 323.00,246.13 325.54,244.71 335.89,242.17 388.83,229.20 400.82,225.62" fill="none" stroke="#bcbcbc" stroke-width="8" stroke-linecap="round" stroke-linejoin="round" /><polyline points="-238.12,744.89 -213.15,735.82 -204.80,733.27 -196.39,730.70 -180.87,725.96 -168.80,724.22 -127.56,719.71 -119.28,719.26 -82.39,719.58 -59.92,719.77 -51.47,719.33 -37.93,720.71 -33.70,721.31 -25.07,722.55 1.00,728.27" fill="none" stroke="#bcbcbc" stroke-width="8" stroke-linecap="round" stroke-linejoin="round" /><polyline points="-119.14,3.56 -123.28,-10.43 -138.65,-62.38 -157.31,-121.61 -161.16,-132.19 -165.07,-142.10 -170.02,-156.38" fill="none" stroke="#bcbcbc" stroke-width="8" stroke-linecap="round" stroke-linejoin="round" /><polyline points="-163.83,841.19 -160.55,830.82 -127.36,726.15 -127.56,719.71" fill="none" stroke="#bcbcbc" stroke-width="8" stroke-linecap="round" stroke-linejoin="round" /><polyline points="-119.28,719.26 -112.71,631.12 -112.05,623.94 -111.05,615.58 -111.03,615.20 -110.60,604.97 -108.40,577.23 -107.17,564.31 -105.48,549.63 -103.93,539.06 -102.55,532.43 -100.81,527.41 -97.40,516.11 -90.35,492.58 -81.38,462.20 -71.50,431.14 -69.48,424.80 -67.86,420.21" fill="none" stroke="#bcbcbc" stroke-width="8" stroke-linecap="round" stroke-linejoin="round" /><polyline points="-334.01,537.76 -335.76,545.57 -335.46,548.06 -324.75,637.22 -323.61,646.67 -324.11,656.38 -326.91,711.84 -328.08,735.00 -328.69,746.95 -329.77,768.25 -330.33,779.34 -331.54,783.75" fill="none" stroke="#bcbcbc" stroke-width="8" stroke-linecap="round" stroke-linejoin="round" /><polyline points="-384.06,370.63 -422.99,359.05 -427.94,355.88 -452.18,348.82 -458.99,348.89 -489.43,339.72 -494.35,336.09 -522.06,327.69 -556.06,318.43 -556.22,318.41 -561.86,317.93" fill="none" stroke="#bcbcbc" stroke-width="8" stroke-linecap="round" stroke-linejoin="round" /><polyline points="325.54,244.71 326.89,246.48 332.54,254.90 342.97,270.46 352.80,280.30 371.69,301.50 368.50,321.10 366.88,328.45 364.62,331.55 369.36,338.56 376.68,353.64 391.32,381.88 398.53,395.79 403.02,408.29 405.04,414.10" fill="none" stroke="#bcbcbc" stroke-width="8" stroke-linecap="round" stroke-linejoin="round" /><polyline points="424.15,285.07 418.72,286.75 382.97,297.88 377.84,299.53 371.69,301.50" fill="none" stroke="#bcbcbc" stroke-width="8" stroke-linecap="round" stroke-linejoin="round" /><polyline points="176.04,404.11 269.61,360.56 273.55,357.96 282.70,355.29 345.05,337.15 354.51,333.53 364.62,331.55" fill="none" stroke="#bcbcbc" stroke-width="8" stroke-linecap="round" stroke-linejoin="round" /><polyline points="156.95,-508.74 194.83,-504.06 198.63,-503.59 213.32,-499.98" fill="none" stroke="#bcbcbc" stroke-width="8" stroke-linecap="round" stroke-linejoin="round" /><polyline points="480.63,-123.65 487.35,-125.06 512.45,-112.76 515.75,-109.48 562.87,-29.73 564.11,-20.06 570.23,-14.96 569.26,-11.43 569.11,-5.68 569.96,2.35 582.44,53.64 583.54,89.15 585.29,145.87 588.22,222.20 576.28,255.47 568.58,275.74 557.34,304.32 554.08,312.59 551.97,314.89 548.58,337.01" fill="none" stroke="#bcbcbc" stroke-width="8" stroke-linecap="round" stroke-linejoin="round" /><polyline points="567.74,471.72 556.28,466.74 527.64,446.75 489.87,420.21 469.09,403.41 455.07,388.39" fill="none" stroke="#bcbcbc" stroke-width="8" stroke-linecap="round" stroke-linejoin="round" /><polyline points="104.13,918.66 92.88,915.09 74.62,909.30 65.91,906.54 55.67,903.30 42.74,899.20 31.04,895.49 19.49,891.82 -32.06,875.46 -41.09,872.60 -52.30,869.05 -54.78,868.27 -84.26,860.48 -92.58,858.46 -103.01,855.94 -113.93,853.29 -153.28,843.75 -163.83,841.19 -175.17,837.25 -198.86,829.03 -207.79,825.93 -215.78,823.33 -252.88,810.14 -257.55,807.36 -259.79,802.52" fill="none" stroke="#bcbcbc" stroke-width="8" stroke-linecap="round" stroke-linejoin="round" /><polyline points="273.55,357.96 270.82,348.16 262.68,318.96 259.54,307.73 255.02,299.34 254.60,297.78 251.93,287.90 255.04,283.52 251.30,271.06 250.14,267.19" fill="none" stroke="#bcbcbc" stroke-width="8" stroke-linecap="round" stroke-linejoin="round" /><polyline points="259.94,0.62 267.68,-3.02 309.98,-26.34 334.16,-41.89 351.21,-53.53 354.98,-56.33 368.70,-65.87 382.93,-76.38 391.93,-82.93 402.67,-90.79 439.99,-107.62 444.83,-107.37 451.90,-110.71 480.63,-123.66" fill="none" stroke="#bcbcbc" stroke-width="8" stroke-linecap="round" stroke-linejoin="round" /><polyline points="-208.92,159.60 -202.82,162.08 -198.79,163.32 -123.14,186.55 -111.59,190.10" fill="none" stroke="#bcbcbc" stroke-width="8" stroke-linecap="round" stroke-linejoin="round" /><polyline points="-749.25,329.72 -803.29,313.36" fill="none" stroke="#bcbcbc" stroke-width="8" stroke-linecap="round" stroke-linejoin="round" /><polyline points="123.73,-432.41 137.13,-415.43 139.13,-412.90 145.90,-404.33 153.61,-403.42 169.45,-401.56 172.27,-399.62" fill="none" stroke="#bcbcbc" stroke-width="8" stroke-linecap="round" stroke-linejoin="round" /><polyline points="589.04,322.60 567.81,326.56 546.04,338.39 525.85,349.62 506.77,359.17 483.70,371.69 467.00,381.83 433.99,399.53 305.15,464.35 271.75,479.06 249.68,488.61 238.74,492.19 229.69,493.88 214.88,494.77 193.80,491.79 141.21,479.16 66.55,461.77 -31.67,432.14 -67.86,420.21 -127.11,401.92 -183.78,383.23 -266.89,350.62 -308.45,332.72 -358.55,310.45 -441.67,264.92 -461.15,252.00 -510.46,220.98 -531.14,200.30 -562.16,160.14 -613.26,107.45 -633.34,89.75" fill="none" stroke="#bcbcbc" stroke-width="8" stroke-linecap="round" stroke-linejoin="round" /><polyline points="186.16,944.59 187.04,939.74 190.18,931.80 219.65,862.84 230.79,836.99 243.91,804.77 247.11,792.98" fill="none" stroke="#bcbcbc" stroke-width="8" stroke-linecap="round" stroke-linejoin="round" /><polyline points="-379.24,653.43 -412.72,637.22 -488.91,600.35 -582.35,555.13 -590.69,551.09" fill="none" stroke="#bcbcbc" stroke-width="8" stroke-linecap="round" stroke-linejoin="round" /><polyline points="170.99,119.73 179.44,111.08 201.92,88.07 219.76,68.59" fill="none" stroke="#bcbcbc" stroke-width="8" stroke-linecap="round" stroke-linejoin="round" /><polyline points="-478.08,171.00 -487.37,158.70 -530.89,101.08 -593.01,50.80" fill="none" stroke="#bcbcbc" stroke-width="8" stroke-linecap="round" stroke-linejoin="round" /><polyline points="-747.68,929.54 -739.19,909.39 -712.17,842.05 -708.90,833.21 -705.27,823.41 -703.89,819.87 -703.52,814.33 -700.07,761.97 -699.07,746.95" fill="none" stroke="#bcbcbc" stroke-width="8" stroke-linecap="round" stroke-linejoin="round" /><polyline points="-766.11,388.20 -749.25,329.72 -727.00,252.57 -724.24,243.03 -721.18,232.18 -714.33,207.89 -713.61,205.34 -711.64,197.53 -708.51,188.70 -707.75,186.56 -703.80,176.76 -696.03,159.63 -693.71,154.72" fill="none" stroke="#bcbcbc" stroke-width="8" stroke-linecap="round" stroke-linejoin="round" /><polyline points="-724.24,243.03 -690.12,251.75 -617.85,270.33 -576.67,283.15 -559.49,287.17" fill="none" stroke="#bcbcbc" stroke-width="8" stroke-linecap="round" stroke-linejoin="round" /><polyline points="-21.90,-22.35 -20.74,-29.45 -19.57,-36.82 -14.56,-61.48 -2.06,-118.89 8.21,-170.23 10.09,-180.89 12.64,-195.35 12.64,-195.36" fill="none" stroke="#bcbcbc" stroke-width="8" stroke-linecap="round" stroke-linejoin="round" /><polyline points="-122.92,1082.99 -107.69,1044.13 -105.80,1037.15 -45.33,883.67 -41.09,872.60 -37.65,863.21 -1.52,758.10 5.43,752.03" fill="none" stroke="#bcbcbc" stroke-width="8" stroke-linecap="round" stroke-linejoin="round" /><polyline points="84.32,-52.06 84.32,-52.08 82.18,-63.32 81.84,-64.68 76.62,-85.92 76.62,-85.99 73.06,-100.39 57.97,-152.09 56.07,-157.63 45.88,-185.33 42.57,-193.60 40.43,-198.93 37.66,-204.99 37.66,-205.00 37.66,-205.03 35.63,-227.30 35.44,-238.23" fill="none" stroke="#bcbcbc" stroke-width="8" stroke-linecap="round" stroke-linejoin="round" /><polyline points="61.71,825.19 57.83,829.38 52.05,836.26 35.76,882.19 31.04,895.49" fill="none" stroke="#bcbcbc" stroke-width="8" stroke-linecap="round" stroke-linejoin="round" /><polyline points="-208.92,159.60 -206.70,153.58 -206.20,152.17 -195.62,122.63 -191.65,110.18 -159.23,14.86" fill="none" stroke="#bcbcbc" stroke-width="8" stroke-linecap="round" stroke-linejoin="round" /><polyline points="-41.22,293.25 -37.92,284.46 -28.96,260.66 -25.17,250.60 -22.61,243.79 -15.42,224.70 -10.67,212.08 -10.03,210.39 1.47,179.83 6.28,181.32 8.89,174.22 13.50,161.67 12.62,155.97 24.86,122.65 26.11,119.23 28.43,117.10 30.38,115.31 42.66,81.76 44.43,72.57 62.04,23.65 66.21,20.39 74.68,-3.58 73.17,-7.26 80.59,-29.64 76.74,-49.63" fill="none" stroke="#bcbcbc" stroke-width="8" stroke-linecap="round" stroke-linejoin="round" /><polyline points="273.76,-616.80 268.83,-624.89 242.90,-667.43" fill="none" stroke="#bcbcbc" stroke-width="8" stroke-linecap="round" stroke-linejoin="round" /><polyline points="354.98,-56.33 473.96,20.18 473.99,20.23 473.99,20.24 496.00,23.10" fill="none" stroke="#bcbcbc" stroke-width="8" stroke-linecap="round" stroke-linejoin="round" /><polyline points="307.26,-216.16 433.86,-152.62 437.68,-149.77 437.42,-128.97 439.99,-107.62" fill="none" stroke="#bcbcbc" stroke-width="8" stroke-linecap="round" stroke-linejoin="round" /><polyline points="65.91,906.54 61.35,920.43 42.91,976.69 11.53,1071.42 9.31,1078.15 7.05,1084.96 6.42,1092.21" fill="none" stroke="#bcbcbc" stroke-width="8" stroke-linecap="round" stroke-linejoin="round" /><polyline points="422.29,564.81 423.04,557.75 423.21,551.17 423.15,550.94 418.67,531.55 416.83,523.44 415.94,519.53 415.03,515.54 410.11,493.85 400.49,450.49 393.50,424.43 392.51,420.40" fill="none" stroke="#bcbcbc" stroke-width="8" stroke-linecap="round" stroke-linejoin="round" /><polyline points="-206.22,961.67 -203.09,952.75 -167.83,852.56 -163.83,841.19" fill="none" stroke="#bcbcbc" stroke-width="8" stroke-linecap="round" stroke-linejoin="round" /><polyline points="585.29,145.87 574.92,142.94 504.49,34.86 496.00,23.10" fill="none" stroke="#bcbcbc" stroke-width="8" stroke-linecap="round" stroke-linejoin="round" /><polyline points="-572.56,405.19 -315.86,466.69 -298.16,473.15" fill="none" stroke="#bcbcbc" stroke-width="8" stroke-linecap="round" stroke-linejoin="round" /><polyline points="237.06,-555.72 337.05,-518.68 351.13,-521.08" fill="none" stroke="#bcbcbc" stroke-width="8" stroke-linecap="round" stroke-linejoin="round" />
    <polyline points="167.20,352.80 178.38,349.18 259.54,307.73 270.41,302.42 308.66,291.38 345.75,280.95 352.80,280.30" fill="none" stroke="#ffffff" stroke-width="16" stroke-linecap="round" stroke-linejoin="round" />
    <polyline points="167.20,352.80 178.38,349.18 259.54,307.73 270.41,302.42 308.66,291.38 345.75,280.95 352.80,280.30" fill="none" stroke="#111111" stroke-width="9" stroke-linecap="round" stroke-linejoin="round" />
    
            <g transform="translate(167.20,352.80)">
              <circle r="19" fill="#ffffff" stroke="#111111" stroke-width="4" />
              <text text-anchor="middle" dominant-baseline="central" font-family="Helvetica, Arial, sans-serif"
                font-size="18" font-weight="700" fill="#111111">1</text>
            </g>
            
            <g transform="translate(352.80,280.30)">
              <circle r="19" fill="#ffffff" stroke="#111111" stroke-width="4" />
              <text text-anchor="middle" dominant-baseline="central" font-family="Helvetica, Arial, sans-serif"
                font-size="18" font-weight="700" fill="#111111">2</text>
            </g>
            
  </g>
</svg>
