<svg xmlns="http://www.w3.org/2000/svg" width="520" height="520" viewBox="0 0 520 520">
  <rect width="100%" height="100%" fill="#ffffff" />
  <g>
    <polyline points="466.98,-166.62 469.32,-154.18 484.41,-48.59 482.10,-22.19" fill="none" stroke="#bcbcbc" stroke-width="8" stroke-linecap="round" stroke-linejoin="round" /><polyline points="160.17,713.32 163.82,702.10 183.16,642.64 185.44,635.63 187.74,628.27 236.36,473.23 240.27,460.76 231.32,438.70" fill="none" stroke="#bcbcbc" stroke-width="8" stroke-linecap="round" stroke-linejoin="round" /><polyline points="-175.67,575.42 -176.46,566.51 -160.56,477.49 -158.33,466.35 -156.67,460.52 -152.29,437.94 -147.37,410.31 -142.02,385.97 -136.70,361.69 -133.36,354.84 -131.17,350.64" fill="none" stroke="#bcbcbc" stroke-width="8" stroke-linecap="round" stroke-linejoin="round" /><polyline points="-83.41,-52.57 -87.18,-64.09 -126.25,-183.23 -128.15,-188.22" fill="none" stroke="#bcbcbc" stroke-width="8" stroke-linecap="round" stroke-linejoin="round" /><polyline points="-283.84,995.96 -282.68,984.59 -282.21,979.38 -277.95,932.34 -273.30,890.92 -272.21,881.25 -271.20,869.64 -271.09,868.67 -268.45,845.60 -266.17,822.15 -263.67,799.52 -261.98,781.91 -261.27,771.03 -260.65,761.00 -259.54,749.68" fill="none" stroke="#bcbcbc" stroke-width="8" stroke-linecap="round" stroke-linejoin="round" /><polyline points="255.91,740.96 258.69,732.22 278.29,670.60 280.52,663.60 283.68,653.62 285.95,646.48 303.30,571.65" fill="none" stroke="#bcbcbc" stroke-width="8" stroke-linecap="round" stroke-linejoin="round" /><polyline points="179.71,-477.88 186.95,-476.76 386.42,-446.12" fill="none" stroke="#bcbcbc" stroke-width="8" stroke-linecap="round" stroke-linejoin="round" /><polyline points="-332.37,726.45 -353.13,725.48 -365.79,724.89 -372.67,724.57 -378.70,724.29 -425.72,722.10 -491.11,719.06 -522.28,714.64 -532.71,713.16 -541.77,711.56 -603.07,700.74 -611.64,699.23 -613.54,698.91 -624.12,697.09 -632.26,695.70 -684.20,691.11 -694.10,690.23 -697.73,689.91 -708.96,689.13 -730.95,687.61" fill="none" stroke="#bcbcbc" stroke-width="8" stroke-linecap="round" stroke-linejoin="round" /><polyline points="-30.74,666.21 -26.71,654.76 9.52,554.31 53.12,427.61 55.91,419.66 57.86,414.11 59.44,409.55" fill="none" stroke="#bcbcbc" stroke-width="8" stroke-linecap="round" stroke-linejoin="round" /><polyline points="-697.73,689.91 -698.65,683.45 -698.87,676.44 -697.50,662.31 -694.34,636.52 -692.24,627.86 -688.82,596.56 -688.20,589.59 -687.20,580.62 -686.46,573.97 -685.06,566.42 -682.46,546.12 -680.66,530.59 -678.01,524.24" fill="none" stroke="#bcbcbc" stroke-width="8" stroke-linecap="round" stroke-linejoin="round" /><polyline points="-734.82,516.30 -686.48,523.05 -678.01,524.24 -672.76,525.07 -651.09,528.52 -601.17,536.48 -592.61,537.91" fill="none" stroke="#bcbcbc" stroke-width="8" stroke-linecap="round" stroke-linejoin="round" /><polyline points="154.75,-117.79 155.06,-113.40 155.71,-108.95 157.28,-105.54 160.22,-101.74 165.66,-96.79 178.54,-88.95 277.92,-26.61 339.13,55.46 385.36,169.55 388.38,177.09" fill="none" stroke="#bcbcbc" stroke-width="8" stroke-linecap="round" stroke-linejoin="round" /><polyline points="138.83,215.12 140.89,218.53 141.43,219.42 143.13,228.02 154.79,284.41 158.50,302.31 161.14,315.05 165.27,340.88 167.20,352.80 168.53,360.07 169.99,366.63 171.73,370.47 174.28,374.90 175.64,376.99 201.47,413.96 215.43,435.95 219.08,441.21" fill="none" stroke="#bcbcbc" stroke-width="8" stroke-linecap="round" stroke-linejoin="round" /><polyline points="-602.48,921.11 -601.11,912.65 -599.83,906.53 -599.49,905.72 -582.30,864.85 -571.35,838.29 -568.02,829.87 -564.50,820.96 -560.67,813.30 -560.05,811.80 -554.81,799.13 -550.76,787.92 -547.28,777.64 -545.07,770.37 -542.60,761.39 -539.75,749.35 -537.59,739.59 -535.00,725.95 -534.46,722.91 -532.71,713.16" fill="none" stroke="#bcbcbc" stroke-width="8" stroke-linecap="round" stroke-linejoin="round" /><polyline points="230.24,-220.12 285.04,-181.83 292.42,-180.26 297.83,-174.08" fill="none" stroke="#bcbcbc" stroke-width="8" stroke-linecap="round" stroke-linejoin="round" /><polyline points="0.12,133.53 7.36,136.32 38.81,146.61 111.75,174.58 115.84,178.66 117.76,181.70" fill="none" stroke="#bcbcbc" stroke-width="8" stroke-linecap="round" stroke-linejoin="round" /><polyline points="136.04,852.31 141.01,839.37 165.53,772.84 182.87,722.58 186.46,720.92" fill="none" stroke="#bcbcbc" stroke-width="8" stroke-linecap="round" stroke-linejoin="round" /><polyline points="-210.58,767.96 -206.71,759.40 -206.32,758.56 -199.70,736.35 -188.86,699.80 -186.08,690.44 -183.92,683.18 -183.63,678.94 -184.08,669.57" fill="none" stroke="#bcbcbc" stroke-width="8" stroke-linecap="round" stroke-linejoin="round" /><polyline points="240.13,218.04 233.91,219.33 219.82,216.82 217.64,211.01 193.23,201.70 187.46,203.21 165.44,195.13 162.15,197.42" fill="none" stroke="#bcbcbc" stroke-width="8" stroke-linecap="round" stroke-linejoin="round" /><polyline points="203.89,-537.00 214.95,-534.29 221.07,-533.23 366.57,-508.00" fill="none" stroke="#bcbcbc" stroke-width="8" stroke-linecap="round" stroke-linejoin="round" /><polyline points="90.79,811.80 96.84,794.73 108.61,761.57 116.21,747.44 127.15,716.82 131.51,704.60" fill="none" stroke="#bcbcbc" stroke-width="8" stroke-linecap="round" stroke-linejoin="round" /><polyline points="-706.47,149.49 -717.01,149.00 -719.65,152.21 -738.01,174.52 -802.19,248.66 -811.22,259.08" fill="none" stroke="#bcbcbc" stroke-width="8" stroke-linecap="round" stroke-linejoin="round" /><polyline points="-143.51,212.98 -148.16,223.28 -148.73,224.53 -164.89,266.68 -181.18,313.08 -185.53,325.45 -187.99,331.84" fill="none" stroke="#bcbcbc" stroke-width="8" stroke-linecap="round" stroke-linejoin="round" /><polyline points="93.58,-260.61 98.72,-253.64 102.39,-244.06 108.09,-230.31 117.25,-208.68 125.36,-189.27 134.67,-167.95 141.57,-151.53 142.59,-149.17 142.66,-149.02 148.22,-136.03 149.88,-132.34 151.46,-128.82 153.13,-125.53 154.38,-122.18 154.75,-117.79" fill="none" stroke="#bcbcbc" stroke-width="8" stroke-linecap="round" stroke-linejoin="round" /><polyline points="-299.52,420.75 -296.83,419.29 -293.07,416.30 -291.19,412.42 -266.22,317.73 -265.46,312.39 -262.42,302.64" fill="none" stroke="#bcbcbc" stroke-width="8" stroke-linecap="round" stroke-linejoin="round" /><polyline points="573.68,272.58 577.22,283.82 579.71,295.63 574.86,340.64 569.25,374.49 566.18,386.04 565.91,387.08 563.22,393.32 559.57,399.92 551.02,410.73 555.16,431.86 541.77,477.21 534.38,502.25 519.27,543.25 497.13,593.16 470.10,640.99 461.65,656.54 446.39,682.08 385.41,768.63 372.05,786.63 320.31,854.24 290.61,888.04 249.06,930.27 245.21,930.66 235.83,938.33" fill="none" stroke="#bcbcbc" stroke-width="8" stroke-linecap="round" stroke-linejoin="round" /><polyline points="-178.78,1012.90 -161.76,960.11 -158.97,951.39 -155.19,945.90 -147.06,921.50 -144.41,913.21 -110.83,808.07 -107.45,797.49 -104.67,788.20 -65.04,663.47" fill="none" stroke="#bcbcbc" stroke-width="8" stroke-linecap="round" stroke-linejoin="round" /><polyline points="220.00,31.08 234.71,15.01 239.05,9.77 268.79,-32.34" fill="none" stroke="#bcbcbc" stroke-width="8" stroke-linecap="round" stroke-linejoin="round" /><polyline points="-74.13,37.46 -33.60,51.56 -31.37,55.20 -19.86,59.06 -13.03,61.39 19.64,72.43" fill="none" stroke="#bcbcbc" stroke-width="8" stroke-linecap="round" stroke-linejoin="round" /><polyline points="279.09,-242.97 297.83,-174.08 319.53,-92.92 322.82,-86.15 323.34,-78.43 338.05,-50.96 377.76,23.09 386.44,35.89 388.96,39.64 448.28,150.56 475.55,175.35 479.38,180.28 484.77,184.89 536.54,229.16 540.05,232.16 549.35,237.10" fill="none" stroke="#bcbcbc" stroke-width="8" stroke-linecap="round" stroke-linejoin="round" /><polyline points="77.74,1024.11 206.85,949.11 229.84,937.36 235.83,938.33" fill="none" stroke="#bcbcbc" stroke-width="8" stroke-linecap="round" stroke-linejoin="round" /><polyline points="217.73,916.82 225.74,907.30 297.66,763.80 302.42,754.39 306.40,745.08 329.63,687.63 336.55,670.32 356.57,609.73 369.55,531.83 371.09,520.49" fill="none" stroke="#bcbcbc" stroke-width="8" stroke-linecap="round" stroke-linejoin="round" /><polyline points="162.23,72.92 160.97,74.21 159.24,80.25 159.06,80.85 151.26,110.90 153.31,118.75 151.60,125.78 149.37,134.99 143.66,141.60 137.18,167.85 129.55,173.62 121.40,179.21 117.76,181.70" fill="none" stroke="#bcbcbc" stroke-width="8" stroke-linecap="round" stroke-linejoin="round" /><polyline points="-143.51,212.98 -140.19,204.48 -120.24,153.33 -115.89,142.18 -112.31,132.99 -86.81,67.68 -75.33,40.37 -74.13,37.46 -65.21,15.89 -45.19,-33.80 -37.86,-54.96 -36.23,-59.81 -34.04,-65.31" fill="none" stroke="#bcbcbc" stroke-width="8" stroke-linecap="round" stroke-linejoin="round" /><polyline points="79.75,-97.06 83.61,-85.57 210.23,22.58 279.32,82.69 382.52,172.40 391.53,179.61 395.56,182.13 413.47,198.39 437.38,218.79 491.63,265.04 509.15,280.10 520.77,294.01" fill="none" stroke="#bcbcbc" stroke-width="8" stroke-linecap="round" stroke-linejoin="round" /><polyline points="289.10,-283.42 295.53,-287.53 333.57,-303.35 341.39,-311.57" fill="none" stroke="#bcbcbc" stroke-width="8" stroke-linecap="round" stroke-linejoin="round" /><polyline points="333.05,679.08 280.52,663.60 185.44,635.63" fill="none" stroke="#bcbcbc" stroke-width="8" stroke-linecap="round" stroke-linejoin="round" /><polyline points="163.49,-438.22 170.66,-433.28 404.47,-381.25" fill="none" stroke="#bcbcbc" stroke-width="8" stroke-linecap="round" stroke-linejoin="round" /><polyline points="452.29,331.56 440.21,304.68 413.39,240.72 411.39,235.64 406.80,223.97 389.52,179.98 388.43,177.13" fill="none" stroke="#bcbcbc" stroke-width="8" stroke-linecap="round" stroke-linejoin="round" /><polyline points="93.58,-260.61 80.60,-264.30 71.06,-267.14 51.68,-272.90 41.83,-275.71 36.18,-277.27 28.82,-279.39" fill="none" stroke="#bcbcbc" stroke-width="8" stroke-linecap="round" stroke-linejoin="round" /><polyline points="-244.87,91.15 -245.52,89.00 -246.13,87.50 -248.80,80.85 -259.17,56.69 -269.02,32.14 -271.14,26.35 -273.59,19.67 -275.35,14.21 -278.24,6.02 -278.55,5.16 -287.97,-18.06 -305.27,-61.71 -309.16,-63.93 -311.92,-71.01 -317.44,-90.18 -326.89,-113.94 -328.93,-119.34" fill="none" stroke="#bcbcbc" stroke-width="8" stroke-linecap="round" stroke-linejoin="round" /><polyline points="-161.76,960.11 -151.93,963.12 -120.14,972.81 -110.19,975.84" fill="none" stroke="#bcbcbc" stroke-width="8" stroke-linecap="round" stroke-linejoin="round" /><polyline points="431.87,-271.99 433.72,-279.48 432.96,-282.32 432.06,-285.75 426.25,-307.01 413.31,-351.96 406.49,-374.94 404.47,-381.25 386.42,-446.12 376.68,-481.10 366.57,-508.00 357.45,-532.27 348.36,-548.96 339.52,-557.77 271.72,-640.63 266.70,-646.52 263.38,-651.98" fill="none" stroke="#bcbcbc" stroke-width="8" stroke-linecap="round" stroke-linejoin="round" /><polyline points="154.75,-117.79 151.25,-116.45 144.79,-114.67 144.14,-114.49 117.14,-107.58 86.09,-98.84 79.75,-97.06 76.92,-96.16 69.47,-93.76 63.09,-91.99 35.25,-84.24 -10.54,-71.23 -27.62,-66.92 -34.04,-65.31 -64.56,-57.82 -83.41,-52.57 -123.33,-41.42 -162.78,-30.30 -167.35,-29.03 -200.32,-19.88 -215.53,-15.65 -223.22,-12.03 -237.76,-4.82 -266.63,9.84 -268.64,10.86 -275.35,14.21 -279.44,16.26 -285.14,19.25 -305.43,29.89 -342.40,50.63 -373.27,66.80 -377.69,69.12 -383.59,69.49 -387.14,71.37 -387.84,71.74 -421.34,90.10 -428.36,90.07 -436.41,94.28 -439.22,95.75 -441.59,97.00 -447.19,99.93 -451.61,109.99 -470.57,120.14 -476.59,123.37 -483.12,126.92 -509.49,141.28 -523.13,148.70 -530.00,150.68" fill="none" stroke="#bcbcbc" stroke-width="8" stroke-linecap="round" stroke-linejoin="round" /><polyline points="534.38,502.25 520.31,503.54 476.34,507.57 474.36,507.75 471.55,508.01 467.01,508.43 424.38,512.34 409.55,510.96 392.29,515.29 378.46,518.68 371.09,520.49 352.79,521.18 336.94,520.38 328.87,519.52 321.99,517.44 316.93,514.64 298.08,501.31 252.28,469.85 247.96,466.92 243.56,463.94 240.27,460.76" fill="none" stroke="#bcbcbc" stroke-width="8" stroke-linecap="round" stroke-linejoin="round" /><polyline points="-503.04,-28.87 -486.42,3.66 -483.90,12.96 -469.90,39.68 -464.12,47.32 -440.72,92.85 -439.22,95.75" fill="none" stroke="#bcbcbc" stroke-width="8" stroke-linecap="round" stroke-linejoin="round" /><polyline points="6.29,260.48 3.80,267.33 3.11,269.45 -0.14,279.29 -20.70,336.66 -30.91,365.15 -31.26,366.12 -35.36,374.97 -37.71,380.23" fill="none" stroke="#bcbcbc" stroke-width="8" stroke-linecap="round" stroke-linejoin="round" /><polyline points="279.09,-242.97 276.81,-247.85 270.81,-248.64 251.43,-244.19 247.49,-244.71 244.41,-248.84 238.92,-274.06 268.63,-278.66 282.38,-282.72 289.10,-283.42 296.35,-257.67" fill="none" stroke="#bcbcbc" stroke-width="8" stroke-linecap="round" stroke-linejoin="round" /><polyline points="386.44,35.89 394.09,31.60 432.53,8.44 442.80,2.32 460.77,-8.40 490.35,-27.52 497.25,-32.48 549.13,-64.67" fill="none" stroke="#bcbcbc" stroke-width="8" stroke-linecap="round" stroke-linejoin="round" /><polyline points="567.79,187.91 554.68,184.00 547.05,177.75 517.91,152.53 516.92,151.64 509.87,145.36 505.73,138.02 432.53,8.44" fill="none" stroke="#bcbcbc" stroke-width="8" stroke-linecap="round" stroke-linejoin="round" /><polyline points="-258.37,177.64 -143.51,212.98 -134.14,215.95 -48.43,243.12 -46.64,243.69 -33.80,247.76 -27.48,249.77 -19.28,252.01 -2.36,257.74 6.29,260.48 14.08,262.95 77.87,283.19 145.21,304.34 150.78,306.09 158.50,302.31" fill="none" stroke="#bcbcbc" stroke-width="8" stroke-linecap="round" stroke-linejoin="round" /><polyline points="79.35,-389.41 129.11,-435.12 137.53,-442.86" fill="none" stroke="#bcbcbc" stroke-width="8" stroke-linecap="round" stroke-linejoin="round" /><polyline points="-753.80,348.26 -571.23,367.83" fill="none" stroke="#bcbcbc" stroke-width="8" stroke-linecap="round" stroke-linejoin="round" /><polyline points="-203.05,-161.30 -164.68,-175.02 -125.10,-189.33 -100.51,-198.89 -25.42,-226.20 -3.63,-233.73 0.92,-235.31 6.38,-237.18 12.50,-239.29 13.25,-239.55 25.62,-244.52 31.00,-246.68" fill="none" stroke="#bcbcbc" stroke-width="8" stroke-linecap="round" stroke-linejoin="round" /><polyline points="54.67,767.23 90.79,811.80 112.91,834.07 122.48,840.96 136.04,852.31 148.77,863.00 159.71,873.67 159.98,879.10" fill="none" stroke="#bcbcbc" stroke-width="8" stroke-linecap="round" stroke-linejoin="round" /><polyline points="93.58,-260.61 107.74,-296.09 130.66,-354.52 163.49,-438.22 179.71,-477.88 203.89,-537.00 223.71,-585.44 227.26,-591.86 244.69,-620.36 245.82,-622.21 252.19,-634.75 263.38,-651.98 269.62,-661.59 278.46,-675.19" fill="none" stroke="#bcbcbc" stroke-width="8" stroke-linecap="round" stroke-linejoin="round" /><polyline points="-240.42,688.20 -242.74,690.05 -244.27,692.26 -247.40,701.47 -249.56,708.12 -259.53,737.94 -260.90,742.25 -261.76,744.92 -270.91,742.29 -293.21,734.82 -315.30,727.41 -332.37,726.44" fill="none" stroke="#bcbcbc" stroke-width="8" stroke-linecap="round" stroke-linejoin="round" /><polyline points="-676.98,895.75 -640.58,801.74 -636.53,791.50 -632.89,781.65 -628.50,769.74 -623.12,751.00 -617.51,727.71 -615.21,711.03 -613.54,698.91 -611.18,689.96 -602.61,622.74 -592.61,537.91 -587.43,497.46 -581.65,449.95 -571.23,367.83 -569.58,353.87 -559.05,267.98 -559.05,263.20 -556.72,237.72 -550.01,183.89 -548.32,174.50 -546.57,169.23 -543.82,163.43 -541.15,158.93 -535.26,152.55 -529.99,150.75" fill="none" stroke="#bcbcbc" stroke-width="8" stroke-linecap="round" stroke-linejoin="round" /><polyline points="117.76,181.70 119.75,184.86 126.43,195.28 136.43,211.30 138.83,215.12 142.82,212.10 162.15,197.42" fill="none" stroke="#bcbcbc" stroke-width="8" stroke-linecap="round" stroke-linejoin="round" /><polyline points="130.66,-354.52 327.35,-318.96 348.01,-308.09 425.08,-269.88 431.87,-271.99" fill="none" stroke="#bcbcbc" stroke-width="8" stroke-linecap="round" stroke-linejoin="round" /><polyline points="-244.87,91.15 -248.36,96.24 -279.74,111.55 -302.78,140.85 -327.65,156.25 -344.66,169.09 -360.89,182.33 -369.21,189.91 -383.91,208.55 -400.34,232.11 -403.05,236.47" fill="none" stroke="#bcbcbc" stroke-width="8" stroke-linecap="round" stroke-linejoin="round" /><polyline points="-211.69,112.16 -213.05,115.19 -216.03,119.54 -221.65,126.46 -254.80,168.33 -272.33,215.56 -360.85,182.29" fill="none" stroke="#bcbcbc" stroke-width="8" stroke-linecap="round" stroke-linejoin="round" /><polyline points="-344.66,169.09 -348.09,158.71 -362.90,113.87 -368.65,105.01 -378.28,76.13 -379.11,73.64 -377.69,69.12 -380.00,61.76 -426.28,-86.02" fill="none" stroke="#bcbcbc" stroke-width="8" stroke-linecap="round" stroke-linejoin="round" /><polyline points="197.68,-637.26 234.25,-636.29 235.96,-636.25 242.97,-636.05 252.19,-634.75" fill="none" stroke="#bcbcbc" stroke-width="8" stroke-linecap="round" stroke-linejoin="round" /><polyline points="9.52,554.31 -2.96,554.16 -108.72,568.36 -116.35,569.16 -125.06,570.08 -175.67,575.42 -243.85,582.62 -280.00,586.43 -300.00,588.54 -316.23,590.52 -324.57,591.53 -333.96,592.67 -379.32,598.18 -390.19,599.50 -423.69,603.17 -602.61,622.74" fill="none" stroke="#bcbcbc" stroke-width="8" stroke-linecap="round" stroke-linejoin="round" /><polyline points="-147.06,921.50 -156.43,918.49 -200.19,904.40 -209.03,901.55 -216.71,899.09 -263.07,884.18 -272.21,881.25 -284.30,877.35 -358.10,853.61 -366.41,850.93" fill="none" stroke="#bcbcbc" stroke-width="8" stroke-linecap="round" stroke-linejoin="round" /><polyline points="35.92,35.54 61.37,43.48 154.45,72.22 155.32,72.49 162.23,72.92" fill="none" stroke="#bcbcbc" stroke-width="8" stroke-linecap="round" stroke-linejoin="round" /><polyline points="297.83,-174.08 424.45,-171.85" fill="none" stroke="#bcbcbc" stroke-width="8" stroke-linecap="round" stroke-linejoin="round" /><polyline points="235.83,938.33 217.73,916.82 210.13,907.99 203.61,901.89 194.92,895.40 177.16,884.75 159.98,879.10 125.02,868.30 96.43,859.23 112.91,834.07" fill="none" stroke="#bcbcbc" stroke-width="8" stroke-linecap="round" stroke-linejoin="round" /><polyline points="54.67,767.23 29.46,736.12 24.67,730.21 -0.72,695.23 -6.46,684.55 -5.08,671.84 2.57,671.77 21.45,675.40 50.18,680.93" fill="none" stroke="#bcbcbc" stroke-width="8" stroke-linecap="round" stroke-linejoin="round" /><polyline points="-275.04,517.98 -270.40,527.98 -243.85,582.62 -204.38,663.87 -199.35,674.23" fill="none" stroke="#bcbcbc" stroke-width="8" stroke-linecap="round" stroke-linejoin="round" /><polyline points="-700.19,765.48 -690.70,769.36 -646.24,787.54 -636.53,791.50 -626.31,795.68 -573.97,817.09 -564.50,820.96" fill="none" stroke="#bcbcbc" stroke-width="8" stroke-linecap="round" stroke-linejoin="round" /><polyline points="-253.20,436.96 -160.56,477.49" fill="none" stroke="#bcbcbc" stroke-width="8" stroke-linecap="round" stroke-linejoin="round" /><polyline points="162.23,72.92 176.34,73.66 177.24,74.46 183.57,80.08 192.87,88.38 194.59,91.72 226.66,119.81 229.03,124.29 251.59,144.19 257.26,145.93 274.81,161.29 278.74,163.08 305.19,185.53 311.08,190.75 314.33,195.92" fill="none" stroke="#bcbcbc" stroke-width="8" stroke-linecap="round" stroke-linejoin="round" /><polyline points="-726.34,437.05 -581.65,449.95" fill="none" stroke="#bcbcbc" stroke-width="8" stroke-linecap="round" stroke-linejoin="round" /><polyline points="-403.27,975.83 -398.79,966.29 -397.63,962.04 -391.35,938.88 -368.59,858.62 -366.41,850.93 -364.11,842.51 -353.80,804.80 -336.38,741.12 -332.37,726.45" fill="none" stroke="#bcbcbc" stroke-width="8" stroke-linecap="round" stroke-linejoin="round" /><polyline points="-275.04,517.98 -253.20,436.96 -299.52,420.75 -311.65,427.92 -317.17,432.12 -321.27,437.66 -324.15,444.97 -334.80,484.34 -326.21,488.72 -317.52,490.82 -298.33,495.82 -283.96,500.40 -275.04,517.98" fill="none" stroke="#bcbcbc" stroke-width="8" stroke-linecap="round" stroke-linejoin="round" /><polyline points="-334.80,484.34 -344.95,482.93 -581.65,449.95" fill="none" stroke="#bcbcbc" stroke-width="8" stroke-linecap="round" stroke-linejoin="round" /><polyline points="50.18,680.93 72.14,685.72 131.51,704.60 148.12,709.84 187.52,721.23 227.22,732.67 256.61,741.17 303.61,754.74 313.32,757.54 337.04,765.50 376.09,775.90 379.54,776.54" fill="none" stroke="#bcbcbc" stroke-width="8" stroke-linecap="round" stroke-linejoin="round" /><polyline points="78.03,1023.94 70.02,1025.95 61.36,1050.09 47.93,1046.28 -13.14,1025.47 -20.49,1023.90 -36.85,1022.73 -110.81,1023.02 -127.11,1020.95 -163.93,1015.32 -178.78,1012.90 -284.11,995.92 -324.90,989.41 -402.69,975.93 -415.25,973.44 -590.81,924.38 -601.88,921.27 -676.98,895.75 -695.46,889.20 -741.61,870.07 -767.92,860.12" fill="none" stroke="#bcbcbc" stroke-width="8" stroke-linecap="round" stroke-linejoin="round" /><polyline points="238.92,-274.06 231.32,-275.63 129.86,-263.63 93.58,-260.61" fill="none" stroke="#bcbcbc" stroke-width="8" stroke-linecap="round" stroke-linejoin="round" /><polyline points="50.18,680.93 53.74,674.98 75.03,620.29 98.82,537.61 104.89,519.80 108.13,514.95 131.10,441.23 132.25,432.42 133.11,426.67" fill="none" stroke="#bcbcbc" stroke-width="8" stroke-linecap="round" stroke-linejoin="round" /><polyline points="154.75,-117.79 157.17,-118.72 160.46,-121.33 165.45,-127.16 230.24,-220.12 247.49,-244.71" fill="none" stroke="#bcbcbc" stroke-width="8" stroke-linecap="round" stroke-linejoin="round" /><polyline points="443.09,223.69 444.42,219.87 476.99,181.56 479.38,180.28 485.03,172.54 503.98,150.78 509.87,145.36" fill="none" stroke="#bcbcbc" stroke-width="8" stroke-linecap="round" stroke-linejoin="round" /><polyline points="471.55,508.01 471.10,502.88 470.75,498.92 469.04,491.33 466.99,486.39 464.43,473.39 464.20,468.69 462.46,458.17 454.71,454.12 448.51,456.49 437.43,459.14 428.65,460.52 420.23,462.55 408.61,465.20 403.31,466.41" fill="none" stroke="#bcbcbc" stroke-width="8" stroke-linecap="round" stroke-linejoin="round" /><polyline points="-384.06,319.85 -360.37,264.33 -359.05,260.72" fill="none" stroke="#bcbcbc" stroke-width="8" stroke-linecap="round" stroke-linejoin="round" /><polyline points="240.13,218.04 251.55,213.62 257.51,211.31 262.13,206.64 281.16,201.95 287.55,203.57 301.32,200.03 311.83,197.32 314.33,195.92 324.52,193.43 376.62,180.66 388.43,177.13" fill="none" stroke="#bcbcbc" stroke-width="8" stroke-linecap="round" stroke-linejoin="round" /><polyline points="-240.42,688.20 -215.85,679.27 -207.63,676.76 -199.35,674.23 -184.08,669.57 -172.19,667.86 -131.61,663.42 -123.46,662.98 -87.15,663.29 -65.04,663.47 -56.72,663.05 -43.40,664.40 -39.23,664.99 -30.74,666.21 -5.08,671.84" fill="none" stroke="#bcbcbc" stroke-width="8" stroke-linecap="round" stroke-linejoin="round" /><polyline points="-123.33,-41.42 -127.40,-55.18 -142.52,-106.31 -160.89,-164.61 -164.68,-175.02 -168.53,-184.77 -173.40,-198.83" fill="none" stroke="#bcbcbc" stroke-width="8" stroke-linecap="round" stroke-linejoin="round" /><polyline points="-167.31,782.98 -164.08,772.78 -131.41,669.76 -131.61,663.42" fill="none" stroke="#bcbcbc" stroke-width="8" stroke-linecap="round" stroke-linejoin="round" /><polyline points="-123.46,662.98 -116.99,576.23 -116.35,569.16 -115.36,560.93 -115.34,560.56 -114.91,550.50 -112.76,523.19 -111.54,510.47 -109.87,496.03 -108.36,485.63 -107.00,479.09 -105.28,474.16 -101.93,463.03 -94.99,439.87 -86.16,409.98 -76.43,379.40 -74.45,373.17 -72.85,368.65" fill="none" stroke="#bcbcbc" stroke-width="8" stroke-linecap="round" stroke-linejoin="round" /><polyline points="-334.80,484.34 -336.52,492.03 -336.23,494.49 -325.68,582.24 -324.57,591.53 -325.05,601.09 -327.81,655.67 -328.97,678.47 -329.56,690.23 -330.62,711.19 -331.18,722.11 -332.37,726.45" fill="none" stroke="#bcbcbc" stroke-width="8" stroke-linecap="round" stroke-linejoin="round" /><polyline points="-384.06,319.85 -422.38,308.46 -427.25,305.34 -451.10,298.39 -457.80,298.46 -487.77,289.43 -492.61,285.86 -519.88,277.59 -553.34,268.47 -553.50,268.46 -559.05,267.98" fill="none" stroke="#bcbcbc" stroke-width="8" stroke-linecap="round" stroke-linejoin="round" /><polyline points="314.33,195.92 315.66,197.67 321.22,205.95 331.50,221.26 341.17,230.95 359.75,251.82 356.61,271.10 355.02,278.34 352.80,281.39 357.46,288.29 364.67,303.13 379.08,330.93 386.18,344.62 390.59,356.92 392.58,362.63" fill="none" stroke="#bcbcbc" stroke-width="8" stroke-linecap="round" stroke-linejoin="round" /><polyline points="411.39,235.64 406.05,237.30 370.86,248.25 365.81,249.87 359.75,251.82" fill="none" stroke="#bcbcbc" stroke-width="8" stroke-linecap="round" stroke-linejoin="round" /><polyline points="158.50,302.31 169.50,298.74 249.38,257.95 260.07,252.72 297.72,241.85 334.23,231.59 341.17,230.95" fill="none" stroke="#bcbcbc" stroke-width="8" stroke-linecap="round" stroke-linejoin="round" /><polyline points="148.41,-545.62 185.69,-541.01 189.43,-540.55 203.89,-537.00" fill="none" stroke="#bcbcbc" stroke-width="8" stroke-linecap="round" stroke-linejoin="round" /><polyline points="466.98,-166.62 473.59,-168.00 498.29,-155.89 501.54,-152.67 547.91,-74.18 549.13,-64.67 555.17,-59.64 554.21,-56.17 554.06,-50.52 554.90,-42.61 567.18,7.87 568.26,42.82 569.98,98.64 572.87,173.77 561.11,206.51 553.53,226.47 542.47,254.59 539.27,262.73 537.19,265.00 533.85,286.76" fill="none" stroke="#bcbcbc" stroke-width="8" stroke-linecap="round" stroke-linejoin="round" /><polyline points="552.71,419.35 541.43,414.44 513.25,394.77 476.07,368.65 455.62,352.11 441.82,337.34" fill="none" stroke="#bcbcbc" stroke-width="8" stroke-linecap="round" stroke-linejoin="round" /><polyline points="96.43,859.23 85.35,855.71 67.38,850.02 58.80,847.30 48.73,844.10 36.00,840.07 24.49,836.42 13.11,832.81 -37.62,816.71 -46.50,813.89 -57.54,810.40 -59.97,809.63 -88.99,801.96 -97.18,799.98 -107.45,797.49 -118.20,794.89 -156.92,785.50 -167.31,782.98 -178.47,779.10 -201.79,771.01 -210.58,767.96 -218.44,765.40 -254.95,752.42 -259.54,749.68 -261.76,744.92" fill="none" stroke="#bcbcbc" stroke-width="8" stroke-linecap="round" stroke-linejoin="round" /><polyline points="263.17,307.38 260.48,297.74 252.46,269.00 249.38,257.95 244.93,249.69 244.51,248.16 241.89,238.43 244.94,234.12 241.27,221.85 240.13,218.04" fill="none" stroke="#bcbcbc" stroke-width="8" stroke-linecap="round" stroke-linejoin="round" /><polyline points="249.77,-44.31 257.39,-47.90 299.02,-70.85 322.82,-86.15 339.60,-97.60 343.31,-100.37 356.82,-109.75 370.82,-120.09 379.68,-126.54 390.25,-134.27 426.97,-150.84 431.74,-150.59 438.70,-153.89 466.98,-166.62" fill="none" stroke="#bcbcbc" stroke-width="8" stroke-linecap="round" stroke-linejoin="round" /><polyline points="-211.69,112.16 -205.68,114.60 -201.71,115.82 -127.26,138.69 -115.89,142.18" fill="none" stroke="#bcbcbc" stroke-width="8" stroke-linecap="round" stroke-linejoin="round" /><polyline points="-743.48,279.59 -796.67,263.49" fill="none" stroke="#bcbcbc" stroke-width="8" stroke-linecap="round" stroke-linejoin="round" /><polyline points="115.72,-470.49 128.90,-453.79 130.87,-451.29 137.53,-442.86 145.12,-441.97 160.71,-440.14 163.49,-438.22" fill="none" stroke="#bcbcbc" stroke-width="8" stroke-linecap="round" stroke-linejoin="round" /><polyline points="573.68,272.58 552.78,276.48 531.35,288.12 511.49,299.18 492.70,308.57 470.00,320.90 453.56,330.88 421.08,348.30 294.27,412.09 261.39,426.57 239.67,435.97 228.91,439.49 220.00,441.15 205.42,442.04 184.68,439.10 132.92,426.67 59.44,409.55 -37.24,380.39 -72.85,368.65 -131.17,350.64 -186.94,332.25 -268.74,300.16 -309.64,282.54 -358.96,260.63 -440.76,215.81 -459.93,203.09 -508.47,172.57 -528.82,152.21 -559.35,112.68 -609.64,60.83 -629.41,43.41" fill="none" stroke="#bcbcbc" stroke-width="8" stroke-linecap="round" stroke-linejoin="round" /><polyline points="177.16,884.75 178.02,879.97 181.11,872.16 210.12,804.28 221.08,778.84 233.99,747.14 237.14,735.54" fill="none" stroke="#bcbcbc" stroke-width="8" stroke-linecap="round" stroke-linejoin="round" /><polyline points="-379.32,598.18 -412.27,582.23 -487.25,545.95 -579.22,501.44 -587.43,497.46" fill="none" stroke="#bcbcbc" stroke-width="8" stroke-linecap="round" stroke-linejoin="round" /><polyline points="162.23,72.92 170.55,64.40 192.67,41.75 210.23,22.58" fill="none" stroke="#bcbcbc" stroke-width="8" stroke-linecap="round" stroke-linejoin="round" /><polyline points="-476.59,123.37 -485.73,111.27 -528.57,54.56 -589.71,5.08" fill="none" stroke="#bcbcbc" stroke-width="8" stroke-linecap="round" stroke-linejoin="round" /><polyline points="-741.94,869.93 -733.58,850.10 -706.99,783.82 -703.77,775.13 -700.19,765.48 -698.84,761.99 -698.48,756.54 -695.07,705.01 -694.10,690.23" fill="none" stroke="#bcbcbc" stroke-width="8" stroke-linecap="round" stroke-linejoin="round" /><polyline points="-760.08,337.15 -743.48,279.59 -721.58,203.66 -718.87,194.27 -715.86,183.59 -709.11,159.68 -708.40,157.17 -706.47,149.49 -703.39,140.80 -702.64,138.69 -698.75,129.05 -691.11,112.19 -688.82,107.35" fill="none" stroke="#bcbcbc" stroke-width="8" stroke-linecap="round" stroke-linejoin="round" /><polyline points="-718.87,194.27 -685.29,202.85 -614.15,221.14 -573.63,233.76 -556.72,237.72" fill="none" stroke="#bcbcbc" stroke-width="8" stroke-linecap="round" stroke-linejoin="round" /><polyline points="-27.62,-66.92 -26.47,-73.91 -25.32,-81.16 -20.40,-105.43 -8.09,-161.93 2.02,-212.46 3.87,-222.95 6.38,-237.18 6.38,-237.20" fill="none" stroke="#bcbcbc" stroke-width="8" stroke-linecap="round" stroke-linejoin="round" /><polyline points="-127.04,1020.96 -112.05,982.71 -110.19,975.84 -50.68,824.79 -46.50,813.89 -43.12,804.65 -7.56,701.21 -0.72,695.23" fill="none" stroke="#bcbcbc" stroke-width="8" stroke-linecap="round" stroke-linejoin="round" /><polyline points="76.92,-96.16 76.92,-96.17 74.81,-107.24 74.48,-108.58 69.34,-129.48 69.35,-129.55 65.84,-143.72 50.99,-194.61 49.12,-200.06 39.09,-227.32 35.83,-235.46 33.73,-240.71 31.00,-246.67 31.00,-246.68 31.00,-246.71 29.01,-268.63 28.82,-279.39" fill="none" stroke="#bcbcbc" stroke-width="8" stroke-linecap="round" stroke-linejoin="round" /><polyline points="54.67,767.23 50.85,771.36 45.16,778.13 29.13,823.33 24.49,836.42" fill="none" stroke="#bcbcbc" stroke-width="8" stroke-linecap="round" stroke-linejoin="round" /><polyline points="-211.69,112.16 -209.50,106.23 -209.00,104.85 -198.59,75.77 -194.69,63.52 -162.78,-30.30" fill="none" stroke="#bcbcbc" stroke-width="8" stroke-linecap="round" stroke-linejoin="round" /><polyline points="-46.64,243.69 -43.38,235.04 -34.57,211.62 -30.84,201.72 -28.31,195.02 -21.24,176.23 -16.57,163.81 -15.94,162.14 -4.61,132.07 0.12,133.53 2.69,126.55 7.22,114.20 6.35,108.59 18.40,75.80 19.64,72.43 21.92,70.33 23.84,68.56 35.92,35.54 37.67,26.51 55.00,-21.65 59.10,-24.85 67.43,-48.44 65.95,-52.06 73.25,-74.09 69.47,-93.76" fill="none" stroke="#bcbcbc" stroke-width="8" stroke-linecap="round" stroke-linejoin="round" /><polyline points="263.38,-651.98 258.52,-659.94 233.01,-701.80" fill="none" stroke="#bcbcbc" stroke-width="8" stroke-linecap="round" stroke-linejoin="round" /><polyline points="343.31,-100.37 460.41,-25.06 460.44,-25.01 460.44,-25.00 482.10,-22.19" fill="none" stroke="#bcbcbc" stroke-width="8" stroke-linecap="round" stroke-linejoin="round" /><polyline points="296.35,-257.67 420.94,-195.13 424.70,-192.32 424.45,-171.85 426.97,-150.84" fill="none" stroke="#bcbcbc" stroke-width="8" stroke-linecap="round" stroke-linejoin="round" /><polyline points="58.80,847.30 54.32,860.97 36.17,916.33 5.29,1009.58 3.10,1016.19 0.88,1022.89 0.26,1030.03" fill="none" stroke="#bcbcbc" stroke-width="8" stroke-linecap="round" stroke-linejoin="round" /><polyline points="409.55,510.96 410.30,504.02 410.46,497.54 410.41,497.31 405.99,478.23 404.18,470.25 403.31,466.41 402.42,462.47 397.57,441.12 388.10,398.45 381.22,372.80 380.25,368.84" fill="none" stroke="#bcbcbc" stroke-width="8" stroke-linecap="round" stroke-linejoin="round" /><polyline points="-209.03,901.55 -205.94,892.78 -171.25,794.17 -167.31,782.98" fill="none" stroke="#bcbcbc" stroke-width="8" stroke-linecap="round" stroke-linejoin="round" /><polyline points="569.98,98.64 559.78,95.76 490.46,-10.61 482.10,-22.19" fill="none" stroke="#bcbcbc" stroke-width="8" stroke-linecap="round" stroke-linejoin="round" /><polyline points="-569.58,353.87 -316.94,414.39 -299.52,420.75" fill="none" stroke="#bcbcbc" stroke-width="8" stroke-linecap="round" stroke-linejoin="round" /><polyline points="227.26,-591.86 325.67,-555.41 339.52,-557.77" fill="none" stroke="#bcbcbc" stroke-width="8" stroke-linecap="round" stroke-linejoin="round" />
    <polyline points="167.20,352.80 259.29,309.95 263.17,307.38 272.17,304.76 333.54,286.90 342.85,283.34 352.80,281.39" fill="none" stroke="#ffffff" stroke-width="16" stroke-linecap="round" stroke-linejoin="round" />
    <polyline points="167.20,352.80 259.29,309.95 263.17,307.38 272.17,304.76 333.54,286.90 342.85,283.34 352.80,281.39" fill="none" stroke="#111111" stroke-width="9" stroke-linecap="round" stroke-linejoin="round" />
    
            <g transform="translate(167.20,352.80)">
              <circle r="19" fill="#ffffff" stroke="#111111" stroke-width="4" />
              <text text-anchor="middle" dominant-baseline="central" font-family="Helvetica, Arial, sans-serif"
                font-size="18" font-weight="700" fill="#111111">1</text>
            </g>
            
            <g transform="translate(352.80,281.39)">
              <circle r="19" fill="#ffffff" stroke="#111111" stroke-width="4" />
              <text text-anchor="middle" dominant-baseline="central" font-family="Helvetica, Arial, sans-serif"
                font-size="18" font-weight="700" fill="#111111">2</text>
            </g>
            
  </g>
</svg>
