<svg xmlns="http://www.w3.org/2000/svg" width="520" height="520" viewBox="0 0 520 520">
  <rect width="100%" height="100%" fill="#ffffff" />
  <g>
    <polyline points="1161.04,1493.63 1168.29,1532.18 1215.06,1859.38 1207.91,1941.18" fill="none" stroke="#bcbcbc" stroke-width="8" stroke-linecap="round" stroke-linejoin="round" /><polyline points="210.51,4220.29 221.81,4185.52 281.72,4001.26 288.78,3979.54 295.92,3956.74 446.56,3476.31 458.67,3437.67 430.93,3369.33" fill="none" stroke="#bcbcbc" stroke-width="8" stroke-linecap="round" stroke-linejoin="round" /><polyline points="-830.00,3792.97 -832.43,3765.38 -783.18,3489.51 -776.28,3455.00 -771.12,3436.93 -757.56,3366.97 -742.33,3281.34 -725.73,3205.93 -709.27,3130.69 -698.91,3109.47 -692.12,3096.47" fill="none" stroke="#bcbcbc" stroke-width="8" stroke-linecap="round" stroke-linejoin="round" /><polyline points="-544.14,1847.04 -555.85,1811.34 -676.88,1442.17 -682.78,1426.69" fill="none" stroke="#bcbcbc" stroke-width="8" stroke-linecap="round" stroke-linejoin="round" /><polyline points="-1165.14,5096.09 -1161.53,5060.86 -1160.06,5044.70 -1146.88,4898.94 -1132.46,4770.60 -1129.10,4740.63 -1125.97,4704.67 -1125.62,4701.65 -1117.44,4630.17 -1110.39,4557.51 -1102.63,4487.39 -1097.40,4432.81 -1095.21,4399.12 -1093.29,4368.01 -1089.85,4332.95" fill="none" stroke="#bcbcbc" stroke-width="8" stroke-linecap="round" stroke-linejoin="round" /><polyline points="507.11,4305.94 515.73,4278.84 576.46,4087.90 583.36,4066.21 593.17,4035.30 600.20,4013.15 653.95,3781.29" fill="none" stroke="#bcbcbc" stroke-width="8" stroke-linecap="round" stroke-linejoin="round" /><polyline points="271.04,529.16 293.47,532.60 911.46,627.57" fill="none" stroke="#bcbcbc" stroke-width="8" stroke-linecap="round" stroke-linejoin="round" /><polyline points="-1315.48,4260.95 -1379.80,4257.95 -1419.03,4256.13 -1440.33,4255.14 -1459.03,4254.27 -1604.69,4247.49 -1807.29,4238.07 -1903.86,4224.37 -1936.18,4219.79 -1964.23,4214.84 -2154.16,4181.31 -2180.71,4176.62 -2186.59,4175.62 -2219.38,4169.99 -2244.58,4165.67 -2405.52,4151.45 -2436.18,4148.74 -2447.42,4147.74 -2482.22,4145.33 -2550.35,4140.61" fill="none" stroke="#bcbcbc" stroke-width="8" stroke-linecap="round" stroke-linejoin="round" /><polyline points="-380.97,4074.30 -368.50,4038.83 -256.23,3727.56 -121.17,3334.94 -112.51,3310.32 -106.48,3293.12 -101.59,3278.99" fill="none" stroke="#bcbcbc" stroke-width="8" stroke-linecap="round" stroke-linejoin="round" /><polyline points="-2447.42,4147.74 -2450.29,4127.73 -2450.97,4105.99 -2446.71,4062.22 -2436.93,3982.29 -2430.41,3955.46 -2419.83,3858.47 -2417.90,3836.87 -2414.80,3809.10 -2412.50,3788.47 -2408.16,3765.09 -2400.12,3702.18 -2394.54,3654.05 -2386.33,3634.37" fill="none" stroke="#bcbcbc" stroke-width="8" stroke-linecap="round" stroke-linejoin="round" /><polyline points="-2562.34,3609.78 -2412.58,3630.70 -2386.33,3634.37 -2370.07,3636.96 -2302.94,3647.66 -2148.28,3672.30 -2121.74,3676.73" fill="none" stroke="#bcbcbc" stroke-width="8" stroke-linecap="round" stroke-linejoin="round" /><polyline points="193.70,1644.95 194.67,1658.56 196.69,1672.35 201.55,1682.91 210.65,1694.68 227.50,1710.01 267.41,1734.29 575.31,1927.49 764.95,2181.78 908.18,2535.32 917.53,2558.68" fill="none" stroke="#bcbcbc" stroke-width="8" stroke-linecap="round" stroke-linejoin="round" /><polyline points="144.40,2676.54 150.78,2687.10 152.43,2689.84 157.72,2716.51 193.85,2891.22 205.31,2946.68 213.51,2986.17 226.31,3066.22 232.28,3103.15 236.40,3125.67 240.91,3146.01 246.30,3157.89 254.21,3171.62 258.44,3178.10 338.44,3292.66 381.72,3360.81 393.00,3377.10" fill="none" stroke="#bcbcbc" stroke-width="8" stroke-linecap="round" stroke-linejoin="round" /><polyline points="-2152.32,4864.14 -2148.07,4837.93 -2144.11,4818.96 -2143.06,4816.45 -2089.81,4689.82 -2055.88,4607.52 -2045.57,4581.44 -2034.65,4553.82 -2022.78,4530.07 -2020.87,4525.43 -2004.63,4486.18 -1992.08,4451.45 -1981.31,4419.59 -1974.48,4397.07 -1966.81,4369.24 -1957.98,4331.94 -1951.27,4301.67 -1943.26,4259.42 -1941.58,4250.00 -1936.18,4219.79" fill="none" stroke="#bcbcbc" stroke-width="8" stroke-linecap="round" stroke-linejoin="round" /><polyline points="427.58,1327.85 597.37,1446.51 620.25,1451.37 636.99,1470.53" fill="none" stroke="#bcbcbc" stroke-width="8" stroke-linecap="round" stroke-linejoin="round" /><polyline points="-285.36,2423.71 -262.92,2432.35 -165.50,2464.22 60.48,2550.90 73.16,2563.54 79.11,2572.98" fill="none" stroke="#bcbcbc" stroke-width="8" stroke-linecap="round" stroke-linejoin="round" /><polyline points="135.74,4650.97 151.13,4610.86 227.10,4404.71 280.82,4248.96 291.96,4243.83" fill="none" stroke="#bcbcbc" stroke-width="8" stroke-linecap="round" stroke-linejoin="round" /><polyline points="-938.14,4389.58 -926.15,4363.08 -924.97,4360.45 -904.45,4291.64 -870.86,4178.38 -862.25,4149.39 -855.57,4126.87 -854.67,4113.75 -856.03,4084.71" fill="none" stroke="#bcbcbc" stroke-width="8" stroke-linecap="round" stroke-linejoin="round" /><polyline points="458.23,2685.58 438.97,2689.56 395.32,2681.79 388.56,2663.78 312.94,2634.95 295.05,2639.62 226.82,2614.57 216.65,2621.68" fill="none" stroke="#bcbcbc" stroke-width="8" stroke-linecap="round" stroke-linejoin="round" /><polyline points="345.94,345.94 380.21,354.34 399.17,357.62 849.98,435.80" fill="none" stroke="#bcbcbc" stroke-width="8" stroke-linecap="round" stroke-linejoin="round" /><polyline points="-4.44,4525.43 14.31,4472.56 50.75,4369.79 74.30,4326.01 108.19,4231.12 121.72,4193.24" fill="none" stroke="#bcbcbc" stroke-width="8" stroke-linecap="round" stroke-linejoin="round" /><polyline points="-2474.51,2473.15 -2507.16,2471.65 -2515.34,2481.59 -2572.23,2550.72 -2771.08,2780.45 -2799.04,2812.75" fill="none" stroke="#bcbcbc" stroke-width="8" stroke-linecap="round" stroke-linejoin="round" /><polyline points="-730.36,2669.90 -744.77,2701.81 -746.52,2705.68 -796.59,2836.29 -847.07,2980.06 -860.53,3018.40 -868.16,3038.19" fill="none" stroke="#bcbcbc" stroke-width="8" stroke-linecap="round" stroke-linejoin="round" /><polyline points="4.20,1202.40 20.11,1223.99 31.47,1253.67 49.15,1296.28 77.52,1363.29 102.64,1423.45 131.48,1489.50 152.88,1540.40 156.05,1547.71 156.24,1548.16 173.46,1588.43 178.60,1599.87 183.50,1610.76 188.67,1620.97 192.57,1631.34 193.70,1644.95" fill="none" stroke="#bcbcbc" stroke-width="8" stroke-linecap="round" stroke-linejoin="round" /><polyline points="-1213.70,3313.72 -1205.37,3309.17 -1193.72,3299.91 -1187.89,3287.90 -1110.52,2994.49 -1108.19,2977.94 -1098.75,2947.71" fill="none" stroke="#bcbcbc" stroke-width="8" stroke-linecap="round" stroke-linejoin="round" /><polyline points="1491.62,2854.57 1502.59,2889.41 1510.32,2926.00 1495.28,3065.46 1477.90,3170.36 1468.41,3206.15 1467.55,3209.38 1459.23,3228.70 1447.90,3249.17 1421.43,3282.66 1434.24,3348.12 1392.78,3488.64 1369.88,3566.25 1323.05,3693.28 1254.46,3847.94 1170.71,3996.16 1144.55,4044.34 1097.26,4123.47 908.33,4391.66 866.94,4447.45 706.64,4656.96 614.62,4761.67 485.89,4892.52 473.97,4893.75 444.90,4917.52" fill="none" stroke="#bcbcbc" stroke-width="8" stroke-linecap="round" stroke-linejoin="round" /><polyline points="-839.62,5148.59 -786.89,4985.01 -778.26,4957.99 -766.54,4940.97 -741.35,4865.37 -733.15,4839.69 -629.11,4513.88 -618.64,4481.11 -610.02,4452.32 -487.23,4065.83" fill="none" stroke="#bcbcbc" stroke-width="8" stroke-linecap="round" stroke-linejoin="round" /><polyline points="395.86,2106.26 441.45,2056.43 454.90,2040.22 547.01,1909.73" fill="none" stroke="#bcbcbc" stroke-width="8" stroke-linecap="round" stroke-linejoin="round" /><polyline points="-515.40,2126.00 -389.85,2169.71 -382.91,2180.98 -347.26,2192.94 -326.10,2200.18 -224.90,2234.37" fill="none" stroke="#bcbcbc" stroke-width="8" stroke-linecap="round" stroke-linejoin="round" /><polyline points="578.92,1257.04 636.99,1470.53 704.22,1722.01 714.41,1742.97 716.03,1766.90 761.61,1852.02 884.64,2081.48 911.53,2121.16 919.32,2132.78 1103.13,2476.47 1187.60,2553.27 1199.46,2568.57 1216.16,2582.86 1376.56,2720.03 1387.44,2729.33 1416.24,2744.63" fill="none" stroke="#bcbcbc" stroke-width="8" stroke-linecap="round" stroke-linejoin="round" /><polyline points="-44.88,5183.32 355.13,4950.93 426.34,4914.51 444.90,4917.52" fill="none" stroke="#bcbcbc" stroke-width="8" stroke-linecap="round" stroke-linejoin="round" /><polyline points="388.82,4850.86 413.64,4821.35 636.46,4376.70 651.22,4347.55 663.54,4318.68 735.51,4140.68 756.95,4087.05 818.98,3899.29 859.20,3657.89 863.97,3622.76" fill="none" stroke="#bcbcbc" stroke-width="8" stroke-linecap="round" stroke-linejoin="round" /><polyline points="216.87,2235.89 212.97,2239.89 207.60,2258.59 207.07,2260.46 182.89,2353.58 189.23,2377.89 183.96,2399.68 177.05,2428.21 159.36,2448.71 139.28,2530.06 115.62,2547.94 90.37,2565.25 79.11,2572.98" fill="none" stroke="#bcbcbc" stroke-width="8" stroke-linecap="round" stroke-linejoin="round" /><polyline points="-730.36,2669.90 -720.08,2643.54 -658.26,2485.06 -644.79,2450.50 -633.68,2422.03 -554.70,2219.64 -519.14,2135.03 -515.40,2126.00 -487.76,2059.17 -425.75,1905.19 -403.05,1839.63 -397.99,1824.60 -391.20,1807.55" fill="none" stroke="#bcbcbc" stroke-width="8" stroke-linecap="round" stroke-linejoin="round" /><polyline points="-38.66,1709.19 -26.71,1744.77 365.58,2079.91 579.65,2266.17 899.38,2544.16 927.29,2566.49 939.79,2574.30 995.27,2624.67 1069.36,2687.88 1237.42,2831.19 1291.70,2877.88 1327.72,2920.97" fill="none" stroke="#bcbcbc" stroke-width="8" stroke-linecap="round" stroke-linejoin="round" /><polyline points="609.96,1131.72 629.86,1118.96 747.73,1069.97 771.96,1044.48" fill="none" stroke="#bcbcbc" stroke-width="8" stroke-linecap="round" stroke-linejoin="round" /><polyline points="746.10,4114.17 583.36,4066.21 288.78,3979.54" fill="none" stroke="#bcbcbc" stroke-width="8" stroke-linecap="round" stroke-linejoin="round" /><polyline points="220.77,652.02 243.00,667.35 967.37,828.55" fill="none" stroke="#bcbcbc" stroke-width="8" stroke-linecap="round" stroke-linejoin="round" /><polyline points="1115.54,3037.34 1078.10,2954.03 995.02,2755.86 988.83,2740.11 974.62,2703.93 921.07,2567.64 917.69,2558.81" fill="none" stroke="#bcbcbc" stroke-width="8" stroke-linecap="round" stroke-linejoin="round" /><polyline points="4.20,1202.40 -36.02,1190.96 -65.57,1182.16 -125.63,1164.32 -156.15,1155.61 -173.63,1150.75 -196.46,1144.21" fill="none" stroke="#bcbcbc" stroke-width="8" stroke-linecap="round" stroke-linejoin="round" /><polyline points="-1044.38,2292.37 -1046.41,2285.72 -1048.28,2281.06 -1056.57,2260.46 -1088.68,2185.59 -1119.20,2109.53 -1125.79,2091.58 -1133.38,2070.89 -1138.81,2053.97 -1147.78,2028.60 -1148.72,2025.94 -1177.92,1953.97 -1231.52,1818.70 -1243.56,1811.84 -1252.12,1789.90 -1269.22,1730.50 -1298.50,1656.87 -1304.81,1640.13" fill="none" stroke="#bcbcbc" stroke-width="8" stroke-linecap="round" stroke-linejoin="round" /><polyline points="-786.89,4985.01 -756.45,4994.33 -657.97,5024.35 -627.12,5033.74" fill="none" stroke="#bcbcbc" stroke-width="8" stroke-linecap="round" stroke-linejoin="round" /><polyline points="1052.26,1167.14 1058.00,1143.93 1055.67,1135.12 1052.85,1124.48 1034.87,1058.60 994.79,919.32 973.63,848.12 967.37,828.55 911.46,627.57 881.29,519.17 849.98,435.80 821.70,360.60 793.54,308.90 766.17,281.58 556.10,24.84 540.56,6.57 530.26,-10.32" fill="none" stroke="#bcbcbc" stroke-width="8" stroke-linecap="round" stroke-linejoin="round" /><polyline points="193.70,1644.95 182.87,1649.09 162.84,1654.62 160.83,1655.17 77.17,1676.57 -19.03,1703.66 -38.66,1709.19 -47.41,1711.97 -70.52,1719.40 -90.28,1724.89 -176.54,1748.90 -318.41,1789.21 -371.29,1802.58 -391.20,1807.55 -485.74,1830.77 -544.14,1847.04 -667.82,1881.60 -790.07,1916.06 -804.21,1919.98 -906.38,1948.34 -953.50,1961.43 -977.30,1972.67 -1022.34,1995.01 -1111.81,2040.42 -1118.04,2043.58 -1138.81,2053.97 -1151.48,2060.32 -1169.16,2069.59 -1232.01,2102.54 -1346.54,2166.81 -1442.21,2216.93 -1455.89,2224.11 -1474.17,2225.25 -1485.15,2231.08 -1487.35,2232.25 -1591.13,2289.13 -1612.87,2289.03 -1637.81,2302.09 -1646.53,2306.65 -1653.88,2310.49 -1671.22,2319.57 -1684.89,2350.76 -1743.63,2382.22 -1762.31,2392.23 -1782.52,2403.23 -1864.24,2447.71 -1906.49,2470.70 -1927.78,2476.84" fill="none" stroke="#bcbcbc" stroke-width="8" stroke-linecap="round" stroke-linejoin="round" /><polyline points="1369.88,3566.25 1326.27,3570.25 1190.05,3582.73 1183.91,3583.29 1175.22,3584.09 1161.16,3585.38 1029.08,3597.51 983.14,3593.25 929.65,3606.65 886.80,3617.16 863.97,3622.76 807.26,3624.91 758.17,3622.41 733.16,3619.75 711.86,3613.31 696.18,3604.64 637.77,3563.33 495.86,3465.85 482.48,3456.78 468.86,3447.53 458.67,3437.67" fill="none" stroke="#bcbcbc" stroke-width="8" stroke-linecap="round" stroke-linejoin="round" /><polyline points="-1844.23,1920.47 -1792.74,2021.29 -1784.94,2050.10 -1741.57,2132.88 -1723.65,2156.56 -1651.16,2297.64 -1646.53,2306.65" fill="none" stroke="#bcbcbc" stroke-width="8" stroke-linecap="round" stroke-linejoin="round" /><polyline points="-266.24,2817.09 -273.95,2838.29 -276.12,2844.87 -286.17,2875.37 -349.87,3053.13 -381.50,3141.41 -382.57,3144.42 -395.28,3171.86 -402.56,3188.16" fill="none" stroke="#bcbcbc" stroke-width="8" stroke-linecap="round" stroke-linejoin="round" /><polyline points="578.92,1257.04 571.86,1241.92 553.29,1239.48 493.24,1253.26 481.04,1251.67 471.48,1238.86 454.49,1160.71 546.52,1146.46 589.12,1133.88 609.96,1131.72 632.40,1211.51" fill="none" stroke="#bcbcbc" stroke-width="8" stroke-linecap="round" stroke-linejoin="round" /><polyline points="911.53,2121.16 935.24,2107.84 1054.31,2036.09 1086.13,2017.14 1141.83,1983.92 1233.46,1924.65 1254.85,1909.28 1415.58,1809.55" fill="none" stroke="#bcbcbc" stroke-width="8" stroke-linecap="round" stroke-linejoin="round" /><polyline points="1473.39,2592.20 1432.75,2580.09 1409.13,2560.72 1318.84,2482.58 1315.77,2479.83 1293.94,2460.35 1281.11,2437.60 1054.31,2036.09" fill="none" stroke="#bcbcbc" stroke-width="8" stroke-linecap="round" stroke-linejoin="round" /><polyline points="-1086.22,2560.39 -730.36,2669.90 -701.33,2679.11 -435.77,2763.30 -430.23,2765.05 -390.44,2777.67 -370.88,2783.88 -345.47,2790.83 -293.04,2808.58 -266.24,2817.09 -242.11,2824.74 -44.48,2887.44 164.14,2952.99 181.40,2958.42 205.31,2946.68" fill="none" stroke="#bcbcbc" stroke-width="8" stroke-linecap="round" stroke-linejoin="round" /><polyline points="-39.89,803.29 114.26,661.63 140.36,637.65" fill="none" stroke="#bcbcbc" stroke-width="8" stroke-linecap="round" stroke-linejoin="round" /><polyline points="-2621.14,3089.09 -2055.52,3149.72" fill="none" stroke="#bcbcbc" stroke-width="8" stroke-linecap="round" stroke-linejoin="round" /><polyline points="-914.83,1510.13 -795.95,1467.61 -673.32,1423.27 -597.13,1393.65 -364.51,1309.03 -296.99,1285.67 -282.89,1280.80 -265.98,1274.98 -247.00,1268.45 -244.67,1267.65 -206.35,1252.25 -189.69,1245.55" fill="none" stroke="#bcbcbc" stroke-width="8" stroke-linecap="round" stroke-linejoin="round" /><polyline points="-116.37,4387.34 -4.44,4525.43 64.08,4594.43 93.74,4615.79 135.74,4650.97 175.18,4684.09 209.07,4717.15 209.91,4733.97" fill="none" stroke="#bcbcbc" stroke-width="8" stroke-linecap="round" stroke-linejoin="round" /><polyline points="4.20,1202.40 48.06,1092.44 119.06,911.40 220.77,652.02 271.04,529.16 345.94,345.94 407.36,195.86 418.35,175.95 472.36,87.63 475.85,81.93 495.61,43.06 530.26,-10.32 549.61,-40.11 576.99,-82.25" fill="none" stroke="#bcbcbc" stroke-width="8" stroke-linecap="round" stroke-linejoin="round" /><polyline points="-1030.62,4142.44 -1037.80,4148.18 -1042.54,4155.03 -1052.22,4183.56 -1058.90,4204.16 -1089.81,4296.58 -1094.06,4309.92 -1096.70,4318.19 -1125.08,4310.05 -1194.15,4286.89 -1262.59,4263.94 -1315.48,4260.95" fill="none" stroke="#bcbcbc" stroke-width="8" stroke-linecap="round" stroke-linejoin="round" /><polyline points="-2383.15,4785.57 -2270.37,4494.26 -2257.81,4462.54 -2246.56,4432.00 -2232.96,4395.09 -2216.28,4337.03 -2198.89,4264.88 -2191.76,4213.18 -2186.59,4175.62 -2179.29,4147.89 -2152.74,3939.59 -2121.74,3676.73 -2105.69,3551.41 -2087.79,3404.19 -2055.52,3149.72 -2050.39,3106.45 -2017.78,2840.33 -2017.76,2825.50 -2010.56,2746.54 -1989.76,2579.74 -1984.54,2550.65 -1979.10,2534.34 -1970.60,2516.36 -1962.33,2502.42 -1944.07,2482.65 -1927.75,2477.05" fill="none" stroke="#bcbcbc" stroke-width="8" stroke-linecap="round" stroke-linejoin="round" /><polyline points="79.11,2572.98 85.28,2582.76 105.97,2615.05 136.93,2664.70 144.40,2676.54 156.75,2667.16 216.65,2621.68" fill="none" stroke="#bcbcbc" stroke-width="8" stroke-linecap="round" stroke-linejoin="round" /><polyline points="119.06,911.40 728.47,1021.59 792.47,1055.28 1031.23,1173.65 1052.26,1167.14" fill="none" stroke="#bcbcbc" stroke-width="8" stroke-linecap="round" stroke-linejoin="round" /><polyline points="-1044.37,2292.37 -1055.19,2308.15 -1152.41,2355.61 -1223.81,2446.38 -1300.87,2494.09 -1353.57,2533.89 -1403.84,2574.91 -1429.62,2598.40 -1475.15,2656.17 -1526.06,2729.15 -1534.45,2742.68" fill="none" stroke="#bcbcbc" stroke-width="8" stroke-linecap="round" stroke-linejoin="round" /><polyline points="-941.59,2357.49 -945.80,2366.86 -955.02,2380.34 -972.44,2401.78 -1075.14,2531.53 -1129.47,2677.89 -1403.72,2574.79" fill="none" stroke="#bcbcbc" stroke-width="8" stroke-linecap="round" stroke-linejoin="round" /><polyline points="-1353.57,2533.89 -1364.19,2501.73 -1410.08,2362.77 -1427.89,2335.31 -1457.71,2245.83 -1460.29,2238.11 -1455.89,2224.11 -1463.04,2201.30 -1606.44,1743.37" fill="none" stroke="#bcbcbc" stroke-width="8" stroke-linecap="round" stroke-linejoin="round" /><polyline points="326.70,35.28 440.03,38.27 445.32,38.42 467.03,39.04 495.61,43.06" fill="none" stroke="#bcbcbc" stroke-width="8" stroke-linecap="round" stroke-linejoin="round" /><polyline points="-256.23,3727.56 -294.92,3727.09 -622.58,3771.08 -646.20,3773.57 -673.20,3776.42 -830.00,3792.97 -1041.24,3815.28 -1153.23,3827.10 -1215.18,3833.63 -1265.48,3839.75 -1291.31,3842.89 -1320.40,3846.43 -1460.94,3863.51 -1494.62,3867.60 -1598.41,3878.95 -2152.74,3939.59" fill="none" stroke="#bcbcbc" stroke-width="8" stroke-linecap="round" stroke-linejoin="round" /><polyline points="-741.35,4865.37 -770.38,4856.02 -905.95,4812.38 -933.36,4803.56 -957.15,4795.90 -1100.78,4749.73 -1129.10,4740.63 -1166.56,4728.57 -1395.21,4654.98 -1420.94,4646.70" fill="none" stroke="#bcbcbc" stroke-width="8" stroke-linecap="round" stroke-linejoin="round" /><polyline points="-174.45,2120.08 -95.59,2144.65 192.79,2233.71 195.49,2234.55 216.87,2235.89" fill="none" stroke="#bcbcbc" stroke-width="8" stroke-linecap="round" stroke-linejoin="round" /><polyline points="636.99,1470.53 1029.28,1477.43" fill="none" stroke="#bcbcbc" stroke-width="8" stroke-linecap="round" stroke-linejoin="round" /><polyline points="444.90,4917.52 388.82,4850.86 365.29,4823.49 345.08,4804.59 318.16,4784.49 263.14,4751.48 209.91,4733.97 101.59,4700.51 13.01,4672.39 64.08,4594.43" fill="none" stroke="#bcbcbc" stroke-width="8" stroke-linecap="round" stroke-linejoin="round" /><polyline points="-116.37,4387.34 -194.45,4290.94 -209.31,4272.60 -287.96,4164.23 -305.76,4131.14 -301.49,4091.75 -277.78,4091.52 -219.28,4102.78 -130.26,4119.90" fill="none" stroke="#bcbcbc" stroke-width="8" stroke-linecap="round" stroke-linejoin="round" /><polyline points="-1137.87,3614.98 -1123.48,3645.96 -1041.24,3815.28 -918.95,4067.05 -903.36,4099.16" fill="none" stroke="#bcbcbc" stroke-width="8" stroke-linecap="round" stroke-linejoin="round" /><polyline points="-2455.07,4381.89 -2425.65,4393.92 -2287.89,4450.25 -2257.81,4462.54 -2226.17,4475.49 -2063.98,4541.82 -2034.65,4553.82" fill="none" stroke="#bcbcbc" stroke-width="8" stroke-linecap="round" stroke-linejoin="round" /><polyline points="-1070.19,3363.93 -783.18,3489.51" fill="none" stroke="#bcbcbc" stroke-width="8" stroke-linecap="round" stroke-linejoin="round" /><polyline points="216.87,2235.89 260.58,2238.18 263.37,2240.66 282.99,2258.06 311.82,2283.80 317.14,2294.16 416.51,2381.18 423.86,2395.07 493.73,2456.74 511.31,2462.11 565.67,2509.72 577.84,2515.28 659.81,2584.83 678.06,2601.01 688.13,2617.03" fill="none" stroke="#bcbcbc" stroke-width="8" stroke-linecap="round" stroke-linejoin="round" /><polyline points="-2536.08,3364.21 -2087.79,3404.19" fill="none" stroke="#bcbcbc" stroke-width="8" stroke-linecap="round" stroke-linejoin="round" /><polyline points="-1535.14,5033.72 -1521.25,5004.15 -1517.68,4990.99 -1498.21,4919.20 -1427.69,4670.51 -1420.94,4646.70 -1413.80,4620.59 -1381.86,4503.74 -1327.91,4306.43 -1315.48,4260.95" fill="none" stroke="#bcbcbc" stroke-width="8" stroke-linecap="round" stroke-linejoin="round" /><polyline points="-1137.87,3614.98 -1070.19,3363.93 -1213.70,3313.72 -1251.27,3335.91 -1268.40,3348.94 -1281.08,3366.09 -1290.00,3388.74 -1323.01,3510.75 -1296.39,3524.31 -1269.48,3530.84 -1210.01,3546.32 -1165.49,3560.50 -1137.87,3614.98" fill="none" stroke="#bcbcbc" stroke-width="8" stroke-linecap="round" stroke-linejoin="round" /><polyline points="-1323.01,3510.75 -1354.44,3506.37 -2087.79,3404.19" fill="none" stroke="#bcbcbc" stroke-width="8" stroke-linecap="round" stroke-linejoin="round" /><polyline points="-130.26,4119.90 -62.24,4134.77 121.72,4193.24 173.15,4209.51 295.25,4244.78 418.24,4280.25 509.29,4306.57 654.91,4348.61 685.00,4357.31 758.48,4381.95 879.47,4414.18 890.14,4416.18" fill="none" stroke="#bcbcbc" stroke-width="8" stroke-linecap="round" stroke-linejoin="round" /><polyline points="-43.98,5182.80 -68.80,5189.03 -95.64,5263.83 -137.25,5252.01 -326.45,5187.52 -349.23,5182.65 -399.89,5179.03 -629.03,5179.94 -679.54,5173.51 -793.61,5156.06 -839.62,5148.59 -1165.97,5095.95 -1292.34,5075.79 -1533.35,5034.04 -1572.26,5026.32 -2116.17,4874.27 -2150.49,4864.66 -2383.15,4785.57 -2440.40,4765.26 -2583.38,4706.00 -2664.88,4675.16" fill="none" stroke="#bcbcbc" stroke-width="8" stroke-linecap="round" stroke-linejoin="round" /><polyline points="454.49,1160.71 430.94,1155.86 116.59,1193.03 4.20,1202.40" fill="none" stroke="#bcbcbc" stroke-width="8" stroke-linecap="round" stroke-linejoin="round" /><polyline points="-130.26,4119.90 -119.25,4101.47 -53.28,3932.02 20.43,3675.81 39.23,3620.63 49.28,3605.61 120.45,3377.16 123.98,3349.87 126.68,3332.05" fill="none" stroke="#bcbcbc" stroke-width="8" stroke-linecap="round" stroke-linejoin="round" /><polyline points="193.70,1644.95 201.21,1642.07 211.40,1633.99 226.86,1615.90 427.58,1327.85 481.04,1251.67" fill="none" stroke="#bcbcbc" stroke-width="8" stroke-linecap="round" stroke-linejoin="round" /><polyline points="1087.05,2703.06 1091.16,2691.24 1192.05,2572.52 1199.46,2568.57 1216.98,2544.59 1275.68,2477.15 1293.94,2460.35" fill="none" stroke="#bcbcbc" stroke-width="8" stroke-linecap="round" stroke-linejoin="round" /><polyline points="1175.22,3584.09 1173.82,3568.20 1172.74,3555.92 1167.43,3532.42 1161.07,3517.09 1153.15,3476.83 1152.43,3462.24 1147.05,3429.65 1123.04,3417.10 1103.84,3424.44 1069.49,3432.67 1042.30,3436.93 1016.22,3443.22 980.21,3451.42 963.79,3455.17" fill="none" stroke="#bcbcbc" stroke-width="8" stroke-linecap="round" stroke-linejoin="round" /><polyline points="-1475.61,3001.05 -1402.23,2829.01 -1398.15,2817.83" fill="none" stroke="#bcbcbc" stroke-width="8" stroke-linecap="round" stroke-linejoin="round" /><polyline points="458.23,2685.58 493.60,2671.88 512.09,2664.72 526.39,2650.24 585.35,2635.70 605.14,2640.74 647.82,2629.75 680.38,2621.36 688.13,2617.03 719.70,2609.30 881.11,2569.75 917.69,2558.81" fill="none" stroke="#bcbcbc" stroke-width="8" stroke-linecap="round" stroke-linejoin="round" /><polyline points="-1030.62,4142.44 -954.47,4114.78 -929.00,4107.00 -903.36,4099.16 -856.03,4084.71 -819.22,4079.41 -693.50,4065.66 -668.24,4064.28 -555.75,4065.24 -487.23,4065.83 -461.46,4064.50 -420.18,4068.69 -407.28,4070.53 -380.97,4074.30 -301.49,4091.75" fill="none" stroke="#bcbcbc" stroke-width="8" stroke-linecap="round" stroke-linejoin="round" /><polyline points="-667.82,1881.60 -680.44,1838.95 -727.29,1680.51 -784.20,1499.86 -795.95,1467.61 -807.88,1437.39 -822.96,1393.83" fill="none" stroke="#bcbcbc" stroke-width="8" stroke-linecap="round" stroke-linejoin="round" /><polyline points="-804.09,4436.13 -794.09,4404.52 -692.86,4085.29 -693.50,4065.66" fill="none" stroke="#bcbcbc" stroke-width="8" stroke-linecap="round" stroke-linejoin="round" /><polyline points="-668.24,4064.28 -648.20,3795.49 -646.20,3773.57 -643.13,3748.07 -643.08,3746.91 -641.76,3715.74 -635.07,3631.13 -631.30,3591.72 -626.15,3546.96 -621.45,3514.73 -617.23,3494.49 -611.93,3479.19 -601.52,3444.72 -580.02,3372.96 -552.68,3280.32 -522.53,3185.58 -516.39,3166.26 -511.45,3152.26" fill="none" stroke="#bcbcbc" stroke-width="8" stroke-linecap="round" stroke-linejoin="round" /><polyline points="-1323.01,3510.75 -1328.34,3534.57 -1327.42,3542.18 -1294.77,3814.09 -1291.31,3842.89 -1292.81,3872.51 -1301.36,4041.63 -1304.94,4112.29 -1306.78,4148.73 -1310.07,4213.69 -1311.78,4247.52 -1315.48,4260.95" fill="none" stroke="#bcbcbc" stroke-width="8" stroke-linecap="round" stroke-linejoin="round" /><polyline points="-1475.61,3001.05 -1594.34,2965.75 -1609.43,2956.07 -1683.32,2934.54 -1704.09,2934.76 -1796.93,2906.78 -1811.93,2895.72 -1896.41,2870.10 -2000.08,2841.85 -2000.58,2841.80 -2017.78,2840.33" fill="none" stroke="#bcbcbc" stroke-width="8" stroke-linecap="round" stroke-linejoin="round" /><polyline points="688.13,2617.03 692.25,2622.45 709.47,2648.11 741.30,2695.56 771.26,2725.58 828.85,2790.24 819.12,2850.00 814.18,2872.41 807.30,2881.88 821.74,2903.25 844.08,2949.23 888.72,3035.37 910.71,3077.79 924.38,3115.91 930.55,3133.61" fill="none" stroke="#bcbcbc" stroke-width="8" stroke-linecap="round" stroke-linejoin="round" /><polyline points="988.83,2740.11 972.28,2745.26 863.25,2779.19 847.61,2784.21 828.85,2790.24" fill="none" stroke="#bcbcbc" stroke-width="8" stroke-linecap="round" stroke-linejoin="round" /><polyline points="205.31,2946.68 239.41,2935.62 486.89,2809.23 520.02,2793.05 636.67,2759.35 749.76,2727.55 771.26,2725.58" fill="none" stroke="#bcbcbc" stroke-width="8" stroke-linecap="round" stroke-linejoin="round" /><polyline points="232.28,3103.15 517.60,2970.35 529.61,2962.41 557.51,2954.29 747.63,2898.96 776.47,2887.92 807.30,2881.88" fill="none" stroke="#bcbcbc" stroke-width="8" stroke-linecap="round" stroke-linejoin="round" /><polyline points="1161.04,1493.63 1181.53,1489.35 1258.06,1526.87 1268.14,1536.85 1411.80,1780.06 1415.58,1809.55 1434.27,1825.12 1431.30,1835.87 1430.84,1853.40 1433.43,1877.91 1471.48,2034.31 1474.85,2142.64 1480.18,2315.60 1489.12,2548.40 1452.69,2649.84 1429.21,2711.68 1394.95,2798.83 1385.03,2824.04 1378.58,2831.08 1368.23,2898.52" fill="none" stroke="#bcbcbc" stroke-width="8" stroke-linecap="round" stroke-linejoin="round" /><polyline points="1426.65,3309.36 1391.71,3294.15 1304.40,3233.21 1189.20,3152.26 1125.85,3101.01 1083.10,3055.23" fill="none" stroke="#bcbcbc" stroke-width="8" stroke-linecap="round" stroke-linejoin="round" /><polyline points="13.01,4672.39 -21.31,4661.51 -76.99,4643.86 -103.56,4635.43 -134.77,4625.53 -174.21,4613.03 -209.87,4601.72 -245.11,4590.54 -402.28,4540.66 -429.81,4531.92 -464.00,4521.09 -471.55,4518.70 -561.44,4494.95 -586.82,4488.81 -618.64,4481.11 -651.94,4473.03 -771.91,4443.93 -804.09,4436.13 -838.67,4424.12 -910.91,4399.03 -938.14,4389.58 -962.49,4381.67 -1075.61,4341.44 -1089.85,4332.95 -1096.70,4318.19" fill="none" stroke="#bcbcbc" stroke-width="8" stroke-linecap="round" stroke-linejoin="round" /><polyline points="529.61,2962.41 521.28,2932.54 496.45,2843.48 486.89,2809.23 473.09,2783.64 471.81,2778.89 463.67,2748.74 473.15,2735.39 461.76,2697.39 458.23,2685.58" fill="none" stroke="#bcbcbc" stroke-width="8" stroke-linecap="round" stroke-linejoin="round" /><polyline points="488.09,1872.64 511.70,1861.52 640.67,1790.40 714.41,1742.97 766.41,1707.49 777.89,1698.94 819.74,1669.84 863.12,1637.80 890.58,1617.82 923.32,1593.87 1037.11,1542.52 1051.87,1543.30 1073.44,1533.09 1161.04,1493.63" fill="none" stroke="#bcbcbc" stroke-width="8" stroke-linecap="round" stroke-linejoin="round" /><polyline points="-941.59,2357.49 -922.98,2365.04 -910.68,2368.82 -680.02,2439.68 -644.79,2450.50" fill="none" stroke="#bcbcbc" stroke-width="8" stroke-linecap="round" stroke-linejoin="round" /><polyline points="-2589.17,2876.28 -2753.97,2826.40" fill="none" stroke="#bcbcbc" stroke-width="8" stroke-linecap="round" stroke-linejoin="round" /><polyline points="72.77,552.03 113.63,603.79 119.73,611.52 140.36,637.65 163.86,640.41 212.18,646.09 220.77,652.02" fill="none" stroke="#bcbcbc" stroke-width="8" stroke-linecap="round" stroke-linejoin="round" /><polyline points="1491.62,2854.57 1426.87,2866.65 1360.48,2902.73 1298.94,2936.98 1240.74,2966.09 1170.41,3004.30 1119.48,3035.22 1018.84,3089.19 625.96,3286.88 524.10,3331.75 456.80,3360.86 423.46,3371.77 395.87,3376.93 350.70,3379.66 286.43,3370.56 126.07,3332.05 -101.59,3278.99 -401.10,3188.64 -511.45,3152.26 -692.12,3096.47 -864.92,3039.47 -1118.35,2940.02 -1245.06,2885.44 -1397.85,2817.53 -1651.28,2678.67 -1710.70,2639.25 -1861.06,2544.66 -1924.11,2481.59 -2018.70,2359.11 -2174.51,2198.42 -2235.75,2144.45" fill="none" stroke="#bcbcbc" stroke-width="8" stroke-linecap="round" stroke-linejoin="round" /><polyline points="263.14,4751.48 265.80,4736.66 275.38,4712.47 365.25,4502.15 399.20,4423.31 439.22,4325.07 448.97,4289.12" fill="none" stroke="#bcbcbc" stroke-width="8" stroke-linecap="round" stroke-linejoin="round" /><polyline points="-1460.94,3863.51 -1563.03,3814.09 -1795.32,3701.64 -2080.26,3563.72 -2105.69,3551.41" fill="none" stroke="#bcbcbc" stroke-width="8" stroke-linecap="round" stroke-linejoin="round" /><polyline points="216.87,2235.89 242.65,2209.49 311.19,2139.31 365.58,2079.91" fill="none" stroke="#bcbcbc" stroke-width="8" stroke-linecap="round" stroke-linejoin="round" /><polyline points="-1762.31,2392.23 -1790.63,2354.73 -1923.33,2179.00 -2112.77,2025.68" fill="none" stroke="#bcbcbc" stroke-width="8" stroke-linecap="round" stroke-linejoin="round" /><polyline points="-2584.40,4705.57 -2558.49,4644.13 -2476.13,4438.75 -2466.14,4411.79 -2455.07,4381.89 -2450.86,4371.10 -2449.75,4354.20 -2439.20,4194.54 -2436.18,4148.74" fill="none" stroke="#bcbcbc" stroke-width="8" stroke-linecap="round" stroke-linejoin="round" /><polyline points="-2640.59,3054.65 -2589.17,2876.28 -2521.33,2641.02 -2512.93,2611.90 -2503.59,2578.82 -2482.69,2504.75 -2480.49,2496.97 -2474.51,2473.15 -2464.95,2446.22 -2462.64,2439.70 -2450.58,2409.81 -2426.91,2357.58 -2419.83,2342.58" fill="none" stroke="#bcbcbc" stroke-width="8" stroke-linecap="round" stroke-linejoin="round" /><polyline points="-2512.93,2611.90 -2408.89,2638.51 -2188.50,2695.17 -2062.94,2734.27 -2010.56,2746.54" fill="none" stroke="#bcbcbc" stroke-width="8" stroke-linecap="round" stroke-linejoin="round" /><polyline points="-371.29,1802.58 -367.75,1780.92 -364.20,1758.44 -348.93,1683.23 -310.80,1508.17 -279.48,1351.58 -273.76,1319.09 -265.98,1274.98 -265.97,1274.94" fill="none" stroke="#bcbcbc" stroke-width="8" stroke-linecap="round" stroke-linejoin="round" /><polyline points="-679.34,5173.54 -632.89,5055.04 -627.12,5033.74 -442.76,4565.69 -429.81,4531.92 -419.33,4503.28 -309.17,4182.74 -287.96,4164.23" fill="none" stroke="#bcbcbc" stroke-width="8" stroke-linecap="round" stroke-linejoin="round" /><polyline points="-47.41,1711.97 -47.42,1711.93 -53.95,1677.65 -54.97,1673.49 -70.90,1608.71 -70.89,1608.50 -81.75,1564.58 -127.75,1406.90 -133.55,1390.01 -164.62,1305.54 -174.72,1280.32 -181.23,1264.06 -189.68,1245.58 -189.69,1245.55 -189.70,1245.47 -195.87,1177.55 -196.46,1144.21" fill="none" stroke="#bcbcbc" stroke-width="8" stroke-linecap="round" stroke-linejoin="round" /><polyline points="-116.37,4387.34 -128.20,4400.12 -145.82,4421.10 -195.49,4561.17 -209.87,4601.72" fill="none" stroke="#bcbcbc" stroke-width="8" stroke-linecap="round" stroke-linejoin="round" /><polyline points="-941.59,2357.49 -934.80,2339.10 -933.27,2334.83 -901.01,2244.73 -888.92,2206.77 -790.07,1916.06" fill="none" stroke="#bcbcbc" stroke-width="8" stroke-linecap="round" stroke-linejoin="round" /><polyline points="-430.23,2765.05 -420.14,2738.26 -392.83,2665.69 -381.28,2635.01 -373.46,2614.24 -351.54,2556.01 -337.06,2517.54 -335.11,2512.36 -300.03,2419.17 -285.36,2423.71 -277.42,2402.07 -263.36,2363.80 -266.05,2346.41 -228.73,2244.80 -224.90,2234.37 -217.82,2227.86 -211.88,2222.40 -174.45,2120.08 -169.04,2092.07 -115.35,1942.86 -102.65,1932.92 -76.81,1859.83 -81.41,1848.61 -58.78,1780.35 -70.52,1719.40" fill="none" stroke="#bcbcbc" stroke-width="8" stroke-linecap="round" stroke-linejoin="round" /><polyline points="530.26,-10.32 515.21,-35.01 436.16,-164.72" fill="none" stroke="#bcbcbc" stroke-width="8" stroke-linecap="round" stroke-linejoin="round" /><polyline points="777.89,1698.94 1140.70,1932.27 1140.80,1932.43 1140.80,1932.47 1207.91,1941.18" fill="none" stroke="#bcbcbc" stroke-width="8" stroke-linecap="round" stroke-linejoin="round" /><polyline points="632.40,1211.51 1018.42,1405.30 1030.07,1413.99 1029.28,1477.43 1037.11,1542.52" fill="none" stroke="#bcbcbc" stroke-width="8" stroke-linecap="round" stroke-linejoin="round" /><polyline points="-103.56,4635.43 -117.45,4677.79 -173.69,4849.35 -269.36,5138.28 -276.14,5158.78 -283.02,5179.54 -284.94,5201.67" fill="none" stroke="#bcbcbc" stroke-width="8" stroke-linecap="round" stroke-linejoin="round" /><polyline points="983.14,3593.25 985.45,3571.72 985.95,3551.64 985.78,3550.94 972.10,3491.81 966.50,3467.09 963.79,3455.17 961.02,3442.99 946.01,3376.83 916.68,3244.62 895.36,3165.12 892.34,3152.84" fill="none" stroke="#bcbcbc" stroke-width="8" stroke-linecap="round" stroke-linejoin="round" /><polyline points="-933.36,4803.56 -923.79,4776.36 -816.29,4470.82 -804.09,4436.13" fill="none" stroke="#bcbcbc" stroke-width="8" stroke-linecap="round" stroke-linejoin="round" /><polyline points="1480.18,2315.60 1448.55,2306.67 1233.78,1977.06 1207.91,1941.18" fill="none" stroke="#bcbcbc" stroke-width="8" stroke-linecap="round" stroke-linejoin="round" /><polyline points="-2050.39,3106.45 -1267.67,3294.00 -1213.70,3313.72" fill="none" stroke="#bcbcbc" stroke-width="8" stroke-linecap="round" stroke-linejoin="round" /><polyline points="418.35,175.95 723.24,288.91 766.17,281.58" fill="none" stroke="#bcbcbc" stroke-width="8" stroke-linecap="round" stroke-linejoin="round" />
    <polyline points="174.06,319.24 289.56,333.51 301.16,334.95 345.94,345.94" fill="none" stroke="#ffffff" stroke-width="16" stroke-linecap="round" stroke-linejoin="round" />
    <polyline points="174.06,319.24 289.56,333.51 301.16,334.95 345.94,345.94" fill="none" stroke="#111111" stroke-width="9" stroke-linecap="round" stroke-linejoin="round" />
    
            <g transform="translate(174.06,319.24)">
              <circle r="19" fill="#ffffff" stroke="#111111" stroke-width="4" />
              <text text-anchor="middle" dominant-baseline="central" font-family="Helvetica, Arial, sans-serif"
                font-size="18" font-weight="700" fill="#111111">1</text>
            </g>
            
            <g transform="translate(345.94,345.94)">
              <circle r="19" fill="#ffffff" stroke="#111111" stroke-width="4" />
              <text text-anchor="middle" dominant-baseline="central" font-family="Helvetica, Arial, sans-serif"
                font-size="18" font-weight="700" fill="#111111">2</text>
            </g>
            
  </g>
</svg>
