<svg xmlns="http://www.w3.org/2000/svg" width="520" height="520" viewBox="0 0 520 520">
  <rect width="100%" height="100%" fill="#ffffff" />
  <g>
    <polyline points="167.20,167.76 168.15,172.84 174.31,215.94 173.37,226.71" fill="none" stroke="#bcbcbc" stroke-width="8" stroke-linecap="round" stroke-linejoin="round" /><polyline points="41.99,526.89 43.48,522.31 51.37,498.04 52.30,495.18 53.24,492.18 73.09,428.90 74.68,423.81 71.03,414.81" fill="none" stroke="#bcbcbc" stroke-width="8" stroke-linecap="round" stroke-linejoin="round" /><polyline points="-95.07,470.61 -95.39,466.97 -88.90,430.64 -87.99,426.09 -87.31,423.71 -85.53,414.50 -83.52,403.22 -81.33,393.29 -79.16,383.38 -77.80,380.58 -76.91,378.87" fill="none" stroke="#bcbcbc" stroke-width="8" stroke-linecap="round" stroke-linejoin="round" /><polyline points="-57.41,214.31 -58.95,209.61 -74.90,160.99 -75.67,158.95" fill="none" stroke="#bcbcbc" stroke-width="8" stroke-linecap="round" stroke-linejoin="round" /><polyline points="-139.21,642.24 -138.74,637.60 -138.54,635.47 -136.81,616.27 -134.91,599.37 -134.46,595.42 -134.05,590.69 -134.01,590.29 -132.93,580.87 -132.00,571.30 -130.98,562.07 -130.29,554.88 -130.00,550.44 -129.75,546.35 -129.30,541.73" fill="none" stroke="#bcbcbc" stroke-width="8" stroke-linecap="round" stroke-linejoin="round" /><polyline points="81.06,538.17 82.20,534.60 90.20,509.45 91.11,506.59 92.40,502.52 93.32,499.61 100.40,469.07" fill="none" stroke="#bcbcbc" stroke-width="8" stroke-linecap="round" stroke-linejoin="round" /><polyline points="49.97,40.73 52.92,41.19 134.32,53.70" fill="none" stroke="#bcbcbc" stroke-width="8" stroke-linecap="round" stroke-linejoin="round" /><polyline points="-159.02,532.24 -167.49,531.85 -172.66,531.61 -175.46,531.48 -177.92,531.36 -197.11,530.47 -223.80,529.23 -236.52,527.43 -240.78,526.82 -244.47,526.17 -269.49,521.76 -272.99,521.14 -273.76,521.01 -278.08,520.26 -281.40,519.70 -302.60,517.82 -306.64,517.47 -308.12,517.33 -312.70,517.02 -321.68,516.39" fill="none" stroke="#bcbcbc" stroke-width="8" stroke-linecap="round" stroke-linejoin="round" /><polyline points="-35.92,507.66 -34.28,502.99 -19.49,461.99 -1.70,410.28 -0.56,407.04 0.24,404.77 0.88,402.91" fill="none" stroke="#bcbcbc" stroke-width="8" stroke-linecap="round" stroke-linejoin="round" /><polyline points="-308.12,517.33 -308.50,514.70 -308.59,511.83 -308.03,506.07 -306.74,495.54 -305.88,492.01 -304.48,479.23 -304.23,476.39 -303.82,472.73 -303.52,470.01 -302.95,466.93 -301.89,458.65 -301.15,452.31 -300.07,449.72" fill="none" stroke="#bcbcbc" stroke-width="8" stroke-linecap="round" stroke-linejoin="round" /><polyline points="-323.26,446.48 -303.53,449.23 -300.07,449.72 -297.93,450.06 -289.09,451.47 -268.71,454.71 -265.22,455.30" fill="none" stroke="#bcbcbc" stroke-width="8" stroke-linecap="round" stroke-linejoin="round" /><polyline points="39.78,187.69 39.91,189.49 40.17,191.30 40.81,192.69 42.01,194.24 44.23,196.26 49.49,199.46 90.05,224.91 115.02,258.40 133.89,304.96 135.12,308.04" fill="none" stroke="#bcbcbc" stroke-width="8" stroke-linecap="round" stroke-linejoin="round" /><polyline points="33.28,323.56 34.12,324.95 34.34,325.32 35.04,328.83 39.80,351.84 41.31,359.14 42.39,364.35 44.07,374.89 44.86,379.75 45.40,382.72 46.00,385.40 46.71,386.96 47.75,388.77 48.31,389.62 58.84,404.71 64.54,413.69 66.03,415.83" fill="none" stroke="#bcbcbc" stroke-width="8" stroke-linecap="round" stroke-linejoin="round" /><polyline points="-269.25,611.69 -268.69,608.24 -268.17,605.74 -268.03,605.41 -261.01,588.73 -256.54,577.89 -255.19,574.46 -253.75,570.82 -252.18,567.69 -251.93,567.08 -249.79,561.91 -248.14,557.34 -246.72,553.14 -245.82,550.17 -244.81,546.51 -243.65,541.59 -242.76,537.61 -241.71,532.04 -241.49,530.80 -240.78,526.82" fill="none" stroke="#bcbcbc" stroke-width="8" stroke-linecap="round" stroke-linejoin="round" /><polyline points="70.59,145.93 92.95,161.56 95.96,162.20 98.17,164.72" fill="none" stroke="#bcbcbc" stroke-width="8" stroke-linecap="round" stroke-linejoin="round" /><polyline points="-23.33,290.26 -20.37,291.40 -7.54,295.60 22.23,307.02 23.90,308.68 24.68,309.92" fill="none" stroke="#bcbcbc" stroke-width="8" stroke-linecap="round" stroke-linejoin="round" /><polyline points="32.14,583.61 34.17,578.33 44.18,551.18 51.25,530.67 52.72,529.99" fill="none" stroke="#bcbcbc" stroke-width="8" stroke-linecap="round" stroke-linejoin="round" /><polyline points="-109.31,549.19 -107.73,545.70 -107.58,545.35 -104.87,536.29 -100.45,521.37 -99.32,517.55 -98.43,514.59 -98.32,512.86 -98.50,509.03" fill="none" stroke="#bcbcbc" stroke-width="8" stroke-linecap="round" stroke-linejoin="round" /><polyline points="74.62,324.75 72.09,325.28 66.34,324.26 65.45,321.88 55.48,318.09 53.13,318.70 44.14,315.40 42.80,316.34" fill="none" stroke="#bcbcbc" stroke-width="8" stroke-linecap="round" stroke-linejoin="round" /><polyline points="59.83,16.60 64.35,17.71 66.84,18.14 126.23,28.44" fill="none" stroke="#bcbcbc" stroke-width="8" stroke-linecap="round" stroke-linejoin="round" /><polyline points="13.68,567.08 16.15,560.11 20.95,546.58 24.05,540.81 28.51,528.32 30.30,523.33" fill="none" stroke="#bcbcbc" stroke-width="8" stroke-linecap="round" stroke-linejoin="round" /><polyline points="-311.69,296.77 -315.99,296.58 -317.07,297.89 -324.56,306.99 -350.75,337.25 -354.44,341.50" fill="none" stroke="#bcbcbc" stroke-width="8" stroke-linecap="round" stroke-linejoin="round" /><polyline points="-81.94,322.69 -83.84,326.89 -84.07,327.40 -90.67,344.60 -97.32,363.54 -99.09,368.59 -100.09,371.20" fill="none" stroke="#bcbcbc" stroke-width="8" stroke-linecap="round" stroke-linejoin="round" /><polyline points="14.82,129.41 16.91,132.25 18.41,136.16 20.74,141.77 24.47,150.60 27.78,158.52 31.58,167.22 34.40,173.92 34.82,174.89 34.84,174.95 37.11,180.25 37.79,181.76 38.43,183.19 39.12,184.54 39.63,185.90 39.78,187.69" fill="none" stroke="#bcbcbc" stroke-width="8" stroke-linecap="round" stroke-linejoin="round" /><polyline points="-145.61,407.49 -144.51,406.89 -142.98,405.67 -142.21,404.08 -132.02,365.44 -131.71,363.26 -130.47,359.28" fill="none" stroke="#bcbcbc" stroke-width="8" stroke-linecap="round" stroke-linejoin="round" /><polyline points="210.74,347.01 212.19,351.60 213.21,356.42 211.23,374.79 208.94,388.60 207.69,393.32 207.57,393.74 206.48,396.29 204.99,398.98 201.50,403.39 203.19,412.02 197.73,430.52 194.71,440.75 188.54,457.48 179.50,477.85 168.47,497.37 165.03,503.71 158.80,514.14 133.91,549.46 128.46,556.81 107.34,584.40 95.22,598.19 78.27,615.43 76.70,615.59 72.87,618.72" fill="none" stroke="#bcbcbc" stroke-width="8" stroke-linecap="round" stroke-linejoin="round" /><polyline points="-96.33,649.15 -89.39,627.61 -88.25,624.05 -86.71,621.81 -83.39,611.85 -82.31,608.47 -68.60,565.56 -67.23,561.24 -66.09,557.45 -49.92,506.54" fill="none" stroke="#bcbcbc" stroke-width="8" stroke-linecap="round" stroke-linejoin="round" /><polyline points="66.41,248.45 72.41,241.89 74.18,239.75 86.32,222.57" fill="none" stroke="#bcbcbc" stroke-width="8" stroke-linecap="round" stroke-linejoin="round" /><polyline points="-53.63,251.05 -37.09,256.81 -36.17,258.29 -31.48,259.87 -28.69,260.82 -15.36,265.33" fill="none" stroke="#bcbcbc" stroke-width="8" stroke-linecap="round" stroke-linejoin="round" /><polyline points="90.52,136.60 98.17,164.72 107.03,197.84 108.37,200.60 108.58,203.76 114.59,214.97 130.79,245.19 134.33,250.41 135.36,251.95 159.57,297.21 170.70,307.33 172.26,309.34 174.46,311.23 195.59,329.29 197.02,330.52 200.82,332.53" fill="none" stroke="#bcbcbc" stroke-width="8" stroke-linecap="round" stroke-linejoin="round" /><polyline points="8.35,653.73 61.04,623.12 70.42,618.32 72.87,618.72" fill="none" stroke="#bcbcbc" stroke-width="8" stroke-linecap="round" stroke-linejoin="round" /><polyline points="65.48,609.94 68.75,606.05 98.10,547.49 100.04,543.65 101.67,539.85 111.15,516.40 113.97,509.34 122.14,484.61 127.44,452.82 128.07,448.19" fill="none" stroke="#bcbcbc" stroke-width="8" stroke-linecap="round" stroke-linejoin="round" /><polyline points="42.83,265.53 42.32,266.05 41.61,268.52 41.54,268.76 38.35,281.03 39.19,284.23 38.49,287.10 37.59,290.86 35.25,293.56 32.61,304.27 29.49,306.63 26.17,308.91 24.68,309.92" fill="none" stroke="#bcbcbc" stroke-width="8" stroke-linecap="round" stroke-linejoin="round" /><polyline points="-81.94,322.69 -80.59,319.22 -72.45,298.34 -70.67,293.79 -69.21,290.04 -58.80,263.39 -54.12,252.24 -53.63,251.05 -49.99,242.25 -41.82,221.97 -38.83,213.34 -38.16,211.36 -37.27,209.11" fill="none" stroke="#bcbcbc" stroke-width="8" stroke-linecap="round" stroke-linejoin="round" /><polyline points="9.17,196.15 10.75,200.84 62.42,244.98 90.62,269.51 132.73,306.13 136.41,309.07 138.06,310.10 145.36,316.73 155.12,325.06 177.26,343.93 184.41,350.08 189.15,355.76" fill="none" stroke="#bcbcbc" stroke-width="8" stroke-linecap="round" stroke-linejoin="round" /><polyline points="94.61,120.10 97.23,118.42 112.76,111.96 115.95,108.61" fill="none" stroke="#bcbcbc" stroke-width="8" stroke-linecap="round" stroke-linejoin="round" /><polyline points="112.54,512.91 91.11,506.60 52.30,495.18" fill="none" stroke="#bcbcbc" stroke-width="8" stroke-linecap="round" stroke-linejoin="round" /><polyline points="43.34,56.92 46.27,58.94 141.69,80.17" fill="none" stroke="#bcbcbc" stroke-width="8" stroke-linecap="round" stroke-linejoin="round" /><polyline points="161.21,371.08 156.27,360.11 145.33,334.01 144.52,331.94 142.64,327.17 135.59,309.22 135.15,308.06" fill="none" stroke="#bcbcbc" stroke-width="8" stroke-linecap="round" stroke-linejoin="round" /><polyline points="14.82,129.41 9.52,127.90 5.63,126.74 -2.29,124.39 -6.30,123.24 -8.61,122.60 -11.61,121.74" fill="none" stroke="#bcbcbc" stroke-width="8" stroke-linecap="round" stroke-linejoin="round" /><polyline points="-123.31,272.97 -123.57,272.09 -123.82,271.47 -124.91,268.76 -129.14,258.90 -133.16,248.88 -134.03,246.52 -135.03,243.79 -135.74,241.57 -136.93,238.22 -137.05,237.87 -140.90,228.39 -147.96,210.58 -149.54,209.67 -150.67,206.79 -152.92,198.96 -156.78,189.26 -157.61,187.06" fill="none" stroke="#bcbcbc" stroke-width="8" stroke-linecap="round" stroke-linejoin="round" /><polyline points="-89.39,627.61 -85.38,628.84 -72.41,632.79 -68.34,634.03" fill="none" stroke="#bcbcbc" stroke-width="8" stroke-linecap="round" stroke-linejoin="round" /><polyline points="152.87,124.76 153.63,121.71 153.32,120.54 152.95,119.14 150.58,110.47 145.30,92.12 142.51,82.74 141.69,80.17 134.32,53.70 130.35,39.42 126.23,28.44 122.50,18.53 118.79,11.72 115.19,8.13 87.51,-25.69 85.47,-28.10 84.11,-30.32" fill="none" stroke="#bcbcbc" stroke-width="8" stroke-linecap="round" stroke-linejoin="round" /><polyline points="39.78,187.69 38.35,188.24 35.71,188.97 35.45,189.04 24.43,191.86 11.76,195.43 9.17,196.15 8.02,196.52 4.97,197.50 2.37,198.22 -8.99,201.38 -27.68,206.69 -34.64,208.45 -37.27,209.11 -49.72,212.17 -57.41,214.31 -73.70,218.86 -89.81,223.40 -91.67,223.92 -105.13,227.65 -111.33,229.38 -114.47,230.86 -120.40,233.80 -132.19,239.78 -133.01,240.20 -135.74,241.57 -137.41,242.40 -139.74,243.62 -148.02,247.96 -163.11,256.43 -175.71,263.03 -177.51,263.97 -179.92,264.12 -181.37,264.89 -181.65,265.05 -195.33,272.54 -198.19,272.53 -201.47,274.25 -202.62,274.85 -203.59,275.35 -205.88,276.55 -207.68,280.65 -215.41,284.80 -217.87,286.12 -220.54,287.57 -231.30,293.42 -236.87,296.45 -239.67,297.26" fill="none" stroke="#bcbcbc" stroke-width="8" stroke-linecap="round" stroke-linejoin="round" /><polyline points="194.71,440.75 188.96,441.27 171.02,442.92 170.21,442.99 169.07,443.10 167.22,443.27 149.82,444.86 143.77,444.30 136.72,446.07 131.08,447.45 128.07,448.19 120.60,448.47 114.13,448.14 110.84,447.79 108.03,446.94 105.97,445.80 98.27,440.36 79.58,427.52 77.82,426.33 76.02,425.11 74.68,423.81" fill="none" stroke="#bcbcbc" stroke-width="8" stroke-linecap="round" stroke-linejoin="round" /><polyline points="-228.66,223.98 -221.88,237.26 -220.86,241.06 -215.14,251.96 -212.78,255.08 -203.23,273.66 -202.62,274.85" fill="none" stroke="#bcbcbc" stroke-width="8" stroke-linecap="round" stroke-linejoin="round" /><polyline points="-20.81,342.07 -21.82,344.87 -22.11,345.73 -23.43,349.75 -31.82,373.16 -35.99,384.79 -36.13,385.19 -37.80,388.80 -38.76,390.95" fill="none" stroke="#bcbcbc" stroke-width="8" stroke-linecap="round" stroke-linejoin="round" /><polyline points="90.52,136.60 89.59,134.61 87.14,134.29 79.24,136.10 77.63,135.90 76.37,134.21 74.13,123.92 86.25,122.04 91.86,120.38 94.61,120.10 97.57,130.61" fill="none" stroke="#bcbcbc" stroke-width="8" stroke-linecap="round" stroke-linejoin="round" /><polyline points="134.33,250.41 137.46,248.66 153.14,239.21 157.33,236.71 164.67,232.34 176.74,224.53 179.56,222.51 200.73,209.37" fill="none" stroke="#bcbcbc" stroke-width="8" stroke-linecap="round" stroke-linejoin="round" /><polyline points="208.34,312.46 202.99,310.86 199.88,308.31 187.99,298.02 187.58,297.66 184.71,295.09 183.02,292.09 153.14,239.21" fill="none" stroke="#bcbcbc" stroke-width="8" stroke-linecap="round" stroke-linejoin="round" /><polyline points="-128.82,308.26 -81.94,322.69 -78.12,323.90 -43.14,334.99 -42.41,335.22 -37.17,336.88 -34.59,337.70 -31.24,338.62 -24.34,340.95 -20.81,342.07 -17.63,343.08 8.40,351.34 35.88,359.97 38.16,360.69 41.31,359.14" fill="none" stroke="#bcbcbc" stroke-width="8" stroke-linecap="round" stroke-linejoin="round" /><polyline points="9.01,76.84 29.31,58.18 32.75,55.02" fill="none" stroke="#bcbcbc" stroke-width="8" stroke-linecap="round" stroke-linejoin="round" /><polyline points="-331.00,377.90 -256.50,385.89" fill="none" stroke="#bcbcbc" stroke-width="8" stroke-linecap="round" stroke-linejoin="round" /><polyline points="-106.24,169.94 -90.58,164.34 -74.43,158.50 -64.39,154.59 -33.75,143.45 -24.86,140.37 -23.00,139.73 -20.77,138.97 -18.27,138.11 -17.97,138.00 -12.92,135.97 -10.72,135.09" fill="none" stroke="#bcbcbc" stroke-width="8" stroke-linecap="round" stroke-linejoin="round" /><polyline points="-1.06,548.89 13.68,567.08 22.70,576.17 26.61,578.98 32.14,583.61 37.34,587.98 41.80,592.33 41.91,594.55" fill="none" stroke="#bcbcbc" stroke-width="8" stroke-linecap="round" stroke-linejoin="round" /><polyline points="14.82,129.41 20.59,114.92 29.95,91.08 43.34,56.92 49.97,40.73 59.83,16.60 67.92,-3.16 69.37,-5.79 76.48,-17.42 76.94,-18.17 79.55,-23.29 84.11,-30.32 86.66,-34.24 90.27,-39.79" fill="none" stroke="#bcbcbc" stroke-width="8" stroke-linecap="round" stroke-linejoin="round" /><polyline points="-121.49,516.64 -122.44,517.39 -123.06,518.29 -124.34,522.05 -125.22,524.76 -129.29,536.94 -129.85,538.69 -130.20,539.78 -133.94,538.71 -143.03,535.66 -152.05,532.64 -159.02,532.24" fill="none" stroke="#bcbcbc" stroke-width="8" stroke-linecap="round" stroke-linejoin="round" /><polyline points="-299.65,601.34 -284.80,562.97 -283.14,558.80 -281.66,554.77 -279.87,549.91 -277.67,542.26 -275.38,532.76 -274.44,525.95 -273.76,521.01 -272.80,517.35 -269.30,489.92 -265.22,455.30 -263.10,438.79 -260.75,419.40 -256.50,385.89 -255.82,380.19 -251.53,345.14 -251.52,343.18 -250.57,332.78 -247.83,310.81 -247.15,306.98 -246.43,304.83 -245.31,302.47 -244.22,300.63 -241.82,298.03 -239.67,297.29" fill="none" stroke="#bcbcbc" stroke-width="8" stroke-linecap="round" stroke-linejoin="round" /><polyline points="24.68,309.92 25.50,311.21 28.22,315.46 32.30,322.00 33.28,323.56 34.91,322.33 42.80,316.34" fill="none" stroke="#bcbcbc" stroke-width="8" stroke-linecap="round" stroke-linejoin="round" /><polyline points="29.95,91.08 110.22,105.59 118.65,110.03 150.10,125.62 152.87,124.76" fill="none" stroke="#bcbcbc" stroke-width="8" stroke-linecap="round" stroke-linejoin="round" /><polyline points="-123.31,272.97 -124.73,275.04 -137.54,281.29 -146.94,293.25 -157.09,299.53 -164.03,304.77 -170.66,310.18 -174.05,313.27 -180.05,320.88 -186.75,330.49 -187.86,332.27" fill="none" stroke="#bcbcbc" stroke-width="8" stroke-linecap="round" stroke-linejoin="round" /><polyline points="-109.77,281.54 -110.32,282.78 -111.54,284.55 -113.83,287.37 -127.36,304.46 -134.51,323.74 -170.64,310.16" fill="none" stroke="#bcbcbc" stroke-width="8" stroke-linecap="round" stroke-linejoin="round" /><polyline points="-164.03,304.78 -165.43,300.54 -171.48,282.24 -173.82,278.62 -177.75,266.84 -178.09,265.82 -177.51,263.97 -178.45,260.97 -197.34,200.66" fill="none" stroke="#bcbcbc" stroke-width="8" stroke-linecap="round" stroke-linejoin="round" /><polyline points="57.30,-24.31 72.23,-23.92 72.92,-23.90 75.78,-23.82 79.55,-23.29" fill="none" stroke="#bcbcbc" stroke-width="8" stroke-linecap="round" stroke-linejoin="round" /><polyline points="-19.49,461.99 -24.58,461.93 -67.74,467.72 -70.86,468.05 -74.41,468.43 -95.07,470.61 -122.89,473.55 -137.64,475.10 -145.80,475.96 -152.43,476.77 -155.83,477.18 -159.66,477.65 -178.18,479.90 -182.61,480.44 -196.28,481.93 -269.30,489.92" fill="none" stroke="#bcbcbc" stroke-width="8" stroke-linecap="round" stroke-linejoin="round" /><polyline points="-83.39,611.85 -87.21,610.62 -105.07,604.87 -108.68,603.71 -111.82,602.70 -130.73,596.62 -134.46,595.42 -139.40,593.83 -169.52,584.14 -172.91,583.05" fill="none" stroke="#bcbcbc" stroke-width="8" stroke-linecap="round" stroke-linejoin="round" /><polyline points="-8.72,250.27 1.67,253.51 39.66,265.24 40.01,265.35 42.83,265.53" fill="none" stroke="#bcbcbc" stroke-width="8" stroke-linecap="round" stroke-linejoin="round" /><polyline points="98.17,164.72 149.84,165.63" fill="none" stroke="#bcbcbc" stroke-width="8" stroke-linecap="round" stroke-linejoin="round" /><polyline points="72.87,618.72 65.48,609.94 62.38,606.34 59.72,603.85 56.17,601.20 48.93,596.85 41.91,594.55 27.65,590.14 15.98,586.44 22.70,576.17" fill="none" stroke="#bcbcbc" stroke-width="8" stroke-linecap="round" stroke-linejoin="round" /><polyline points="-1.06,548.89 -11.35,536.19 -13.31,533.78 -23.67,519.51 -26.01,515.15 -25.45,509.96 -22.33,509.93 -14.62,511.41 -2.90,513.67" fill="none" stroke="#bcbcbc" stroke-width="8" stroke-linecap="round" stroke-linejoin="round" /><polyline points="-135.62,447.16 -133.72,451.24 -122.89,473.55 -106.78,506.71 -104.73,510.94" fill="none" stroke="#bcbcbc" stroke-width="8" stroke-linecap="round" stroke-linejoin="round" /><polyline points="-309.13,548.17 -305.25,549.76 -287.10,557.18 -283.14,558.80 -278.98,560.50 -257.61,569.24 -253.75,570.82" fill="none" stroke="#bcbcbc" stroke-width="8" stroke-linecap="round" stroke-linejoin="round" /><polyline points="-126.71,414.10 -88.90,430.64" fill="none" stroke="#bcbcbc" stroke-width="8" stroke-linecap="round" stroke-linejoin="round" /><polyline points="42.83,265.53 48.59,265.83 48.96,266.15 51.54,268.45 55.34,271.84 56.04,273.20 69.13,284.66 70.10,286.49 79.30,294.61 81.62,295.32 88.78,301.59 90.38,302.32 101.18,311.48 103.58,313.61 104.91,315.73" fill="none" stroke="#bcbcbc" stroke-width="8" stroke-linecap="round" stroke-linejoin="round" /><polyline points="-319.80,414.14 -260.75,419.40" fill="none" stroke="#bcbcbc" stroke-width="8" stroke-linecap="round" stroke-linejoin="round" /><polyline points="-187.95,634.03 -186.12,630.13 -185.65,628.40 -183.09,618.94 -173.80,586.19 -172.91,583.05 -171.97,579.61 -167.76,564.22 -160.65,538.23 -159.02,532.24" fill="none" stroke="#bcbcbc" stroke-width="8" stroke-linecap="round" stroke-linejoin="round" /><polyline points="-135.62,447.16 -126.71,414.10 -145.61,407.49 -150.56,410.41 -152.81,412.12 -154.48,414.38 -155.66,417.37 -160.01,433.44 -156.50,435.22 -152.96,436.08 -145.12,438.12 -139.26,439.99 -135.62,447.16" fill="none" stroke="#bcbcbc" stroke-width="8" stroke-linecap="round" stroke-linejoin="round" /><polyline points="-160.01,433.44 -164.15,432.86 -260.75,419.40" fill="none" stroke="#bcbcbc" stroke-width="8" stroke-linecap="round" stroke-linejoin="round" /><polyline points="-2.90,513.67 6.06,515.63 30.30,523.33 37.07,525.47 53.15,530.11 69.36,534.79 81.35,538.25 100.53,543.79 104.49,544.94 114.17,548.18 130.11,552.43 131.52,552.69" fill="none" stroke="#bcbcbc" stroke-width="8" stroke-linecap="round" stroke-linejoin="round" /><polyline points="8.47,653.66 5.20,654.48 1.67,664.33 -3.81,662.78 -28.74,654.28 -31.74,653.64 -38.41,653.16 -68.59,653.28 -75.25,652.44 -90.27,650.14 -96.33,649.16 -139.32,642.22 -155.97,639.57 -187.71,634.07 -192.84,633.05 -264.49,613.02 -269.01,611.76 -299.65,601.34 -307.19,598.67 -326.03,590.86 -336.76,586.80" fill="none" stroke="#bcbcbc" stroke-width="8" stroke-linecap="round" stroke-linejoin="round" /><polyline points="74.13,123.92 71.03,123.28 29.62,128.17 14.82,129.41" fill="none" stroke="#bcbcbc" stroke-width="8" stroke-linecap="round" stroke-linejoin="round" /><polyline points="-2.90,513.67 -1.44,511.24 7.25,488.92 16.95,455.18 19.43,447.91 20.76,445.93 30.13,415.84 30.59,412.25 30.95,409.90" fill="none" stroke="#bcbcbc" stroke-width="8" stroke-linecap="round" stroke-linejoin="round" /><polyline points="39.78,187.69 40.77,187.31 42.11,186.25 44.15,183.87 70.59,145.93 77.63,135.90" fill="none" stroke="#bcbcbc" stroke-width="8" stroke-linecap="round" stroke-linejoin="round" /><polyline points="157.45,327.06 157.99,325.50 171.28,309.86 172.26,309.34 174.57,306.18 182.30,297.30 184.71,295.09" fill="none" stroke="#bcbcbc" stroke-width="8" stroke-linecap="round" stroke-linejoin="round" /><polyline points="169.07,443.10 168.88,441.00 168.74,439.39 168.04,436.29 167.20,434.27 166.16,428.97 166.06,427.05 165.36,422.76 162.19,421.10 159.67,422.07 155.14,423.15 151.56,423.71 148.12,424.54 143.38,425.62 141.22,426.12" fill="none" stroke="#bcbcbc" stroke-width="8" stroke-linecap="round" stroke-linejoin="round" /><polyline points="-180.11,366.30 -170.44,343.65 -169.91,342.17" fill="none" stroke="#bcbcbc" stroke-width="8" stroke-linecap="round" stroke-linejoin="round" /><polyline points="74.62,324.75 79.28,322.95 81.72,322.01 83.60,320.10 91.37,318.18 93.97,318.85 99.60,317.40 103.88,316.30 104.91,315.73 109.06,314.71 130.33,309.50 135.15,308.06" fill="none" stroke="#bcbcbc" stroke-width="8" stroke-linecap="round" stroke-linejoin="round" /><polyline points="-121.49,516.64 -111.46,512.99 -108.11,511.97 -104.73,510.94 -98.50,509.03 -93.65,508.33 -77.09,506.52 -73.76,506.34 -58.94,506.47 -49.92,506.54 -46.52,506.37 -41.08,506.92 -39.38,507.16 -35.92,507.66 -25.45,509.96" fill="none" stroke="#bcbcbc" stroke-width="8" stroke-linecap="round" stroke-linejoin="round" /><polyline points="-73.70,218.86 -75.37,213.24 -81.54,192.38 -89.03,168.58 -90.58,164.34 -92.15,160.36 -94.14,154.62" fill="none" stroke="#bcbcbc" stroke-width="8" stroke-linecap="round" stroke-linejoin="round" /><polyline points="-91.65,555.32 -90.34,551.15 -77.00,509.11 -77.09,506.52" fill="none" stroke="#bcbcbc" stroke-width="8" stroke-linecap="round" stroke-linejoin="round" /><polyline points="-73.76,506.34 -71.12,470.94 -70.86,468.05 -70.45,464.69 -70.45,464.54 -70.27,460.44 -69.39,449.29 -68.89,444.10 -68.21,438.21 -67.60,433.96 -67.04,431.29 -66.34,429.28 -64.97,424.74 -62.14,415.29 -58.54,403.09 -54.57,390.61 -53.76,388.06 -53.11,386.22" fill="none" stroke="#bcbcbc" stroke-width="8" stroke-linecap="round" stroke-linejoin="round" /><polyline points="-160.01,433.44 -160.71,436.57 -160.59,437.58 -156.29,473.39 -155.83,477.18 -156.03,481.08 -157.16,503.36 -157.63,512.66 -157.87,517.46 -158.30,526.02 -158.53,530.48 -159.02,532.24" fill="none" stroke="#bcbcbc" stroke-width="8" stroke-linecap="round" stroke-linejoin="round" /><polyline points="-180.11,366.30 -195.75,361.66 -197.74,360.38 -207.47,357.54 -210.20,357.57 -222.43,353.89 -224.41,352.43 -235.54,349.06 -249.19,345.34 -249.26,345.33 -251.53,345.14" fill="none" stroke="#bcbcbc" stroke-width="8" stroke-linecap="round" stroke-linejoin="round" /><polyline points="104.91,315.73 105.45,316.44 107.72,319.82 111.91,326.07 115.86,330.02 123.44,338.54 122.16,346.41 121.51,349.36 120.60,350.61 122.51,353.42 125.45,359.48 131.33,370.82 134.23,376.41 136.03,381.43 136.84,383.76" fill="none" stroke="#bcbcbc" stroke-width="8" stroke-linecap="round" stroke-linejoin="round" /><polyline points="144.52,331.94 142.34,332.61 127.97,337.08 125.91,337.74 123.44,338.54" fill="none" stroke="#bcbcbc" stroke-width="8" stroke-linecap="round" stroke-linejoin="round" /><polyline points="41.31,359.14 45.80,357.69 78.40,341.04 82.76,338.91 98.13,334.47 113.02,330.28 115.86,330.02" fill="none" stroke="#bcbcbc" stroke-width="8" stroke-linecap="round" stroke-linejoin="round" /><polyline points="44.86,379.75 82.44,362.26 84.03,361.21 87.70,360.15 112.74,352.86 116.54,351.40 120.60,350.61" fill="none" stroke="#bcbcbc" stroke-width="8" stroke-linecap="round" stroke-linejoin="round" /><polyline points="37.19,13.09 52.40,14.97 53.93,15.15 59.83,16.60" fill="none" stroke="#bcbcbc" stroke-width="8" stroke-linecap="round" stroke-linejoin="round" /><polyline points="202.19,406.91 197.58,404.91 186.08,396.88 170.91,386.22 162.56,379.47 156.93,373.44" fill="none" stroke="#bcbcbc" stroke-width="8" stroke-linecap="round" stroke-linejoin="round" /><polyline points="15.98,586.44 11.46,585.00 4.12,582.68 0.62,581.57 -3.49,580.26 -8.68,578.62 -13.38,577.13 -18.02,575.65 -38.73,569.08 -42.35,567.93 -46.86,566.51 -47.85,566.19 -59.69,563.06 -63.03,562.26 -67.23,561.24 -71.61,560.18 -87.42,556.35 -91.65,555.32 -96.21,553.74 -105.72,550.43 -109.31,549.19 -112.52,548.14 -127.42,542.85 -129.30,541.73 -130.20,539.78" fill="none" stroke="#bcbcbc" stroke-width="8" stroke-linecap="round" stroke-linejoin="round" /><polyline points="84.03,361.21 82.93,357.28 79.66,345.55 78.40,341.04 76.58,337.67 76.41,337.04 75.34,333.07 76.59,331.31 75.09,326.31 74.62,324.75" fill="none" stroke="#bcbcbc" stroke-width="8" stroke-linecap="round" stroke-linejoin="round" /><polyline points="78.56,217.68 81.67,216.22 98.66,206.85 108.37,200.60 115.22,195.93 116.73,194.80 122.24,190.97 127.96,186.75 131.57,184.12 135.89,180.97 150.87,174.20 152.82,174.31 155.66,172.96 167.20,167.76" fill="none" stroke="#bcbcbc" stroke-width="8" stroke-linecap="round" stroke-linejoin="round" /><polyline points="-109.77,281.54 -107.31,282.54 -105.69,283.03 -75.31,292.37 -70.67,293.79" fill="none" stroke="#bcbcbc" stroke-width="8" stroke-linecap="round" stroke-linejoin="round" /><polyline points="-326.79,349.87 -348.50,343.30" fill="none" stroke="#bcbcbc" stroke-width="8" stroke-linecap="round" stroke-linejoin="round" /><polyline points="23.85,43.75 29.23,50.56 30.03,51.58 32.75,55.02 35.85,55.39 42.21,56.13 43.34,56.92" fill="none" stroke="#bcbcbc" stroke-width="8" stroke-linecap="round" stroke-linejoin="round" /><polyline points="210.74,347.01 202.22,348.60 193.47,353.35 185.36,357.87 177.70,361.70 168.43,366.73 161.73,370.81 148.47,377.91 96.72,403.95 83.30,409.86 74.43,413.69 70.04,415.13 66.41,415.81 60.46,416.17 51.99,414.97 30.87,409.90 0.88,402.91 -38.57,391.01 -53.11,386.22 -76.91,378.87 -99.67,371.36 -133.05,358.27 -149.74,351.08 -169.87,342.13 -203.25,323.84 -211.08,318.65 -230.88,306.19 -239.19,297.89 -251.65,281.75 -272.17,260.59 -280.24,253.48" fill="none" stroke="#bcbcbc" stroke-width="8" stroke-linecap="round" stroke-linejoin="round" /><polyline points="48.93,596.85 49.28,594.90 50.54,591.71 62.38,564.01 66.85,553.63 72.12,540.69 73.40,535.95" fill="none" stroke="#bcbcbc" stroke-width="8" stroke-linecap="round" stroke-linejoin="round" /><polyline points="-178.18,479.90 -191.62,473.39 -222.22,458.58 -259.75,440.41 -263.10,438.79" fill="none" stroke="#bcbcbc" stroke-width="8" stroke-linecap="round" stroke-linejoin="round" /><polyline points="42.83,265.53 46.23,262.05 55.25,252.81 62.42,244.98" fill="none" stroke="#bcbcbc" stroke-width="8" stroke-linecap="round" stroke-linejoin="round" /><polyline points="-217.87,286.12 -221.60,281.18 -239.08,258.03 -264.04,237.84" fill="none" stroke="#bcbcbc" stroke-width="8" stroke-linecap="round" stroke-linejoin="round" /><polyline points="-326.16,590.80 -322.75,582.71 -311.90,555.66 -310.58,552.11 -309.13,548.17 -308.57,546.75 -308.43,544.53 -307.04,523.50 -306.64,517.47" fill="none" stroke="#bcbcbc" stroke-width="8" stroke-linecap="round" stroke-linejoin="round" /><polyline points="-333.56,373.36 -326.79,349.87 -317.85,318.89 -316.75,315.05 -315.52,310.69 -312.76,300.94 -312.48,299.91 -311.69,296.77 -310.43,293.23 -310.12,292.37 -308.54,288.43 -305.42,281.55 -304.48,279.58" fill="none" stroke="#bcbcbc" stroke-width="8" stroke-linecap="round" stroke-linejoin="round" /><polyline points="-316.75,315.05 -303.04,318.55 -274.01,326.02 -257.47,331.17 -250.57,332.78" fill="none" stroke="#bcbcbc" stroke-width="8" stroke-linecap="round" stroke-linejoin="round" /><polyline points="-34.64,208.45 -34.18,205.60 -33.71,202.64 -31.70,192.74 -26.68,169.68 -22.55,149.05 -21.80,144.78 -20.77,138.97 -20.77,138.96" fill="none" stroke="#bcbcbc" stroke-width="8" stroke-linecap="round" stroke-linejoin="round" /><polyline points="-75.22,652.44 -69.10,636.83 -68.34,634.03 -44.06,572.38 -42.35,567.93 -40.97,564.16 -26.46,521.94 -23.67,519.51" fill="none" stroke="#bcbcbc" stroke-width="8" stroke-linecap="round" stroke-linejoin="round" /><polyline points="8.02,196.52 8.02,196.52 7.16,192.00 7.02,191.45 4.92,182.92 4.93,182.89 3.50,177.11 -2.56,156.34 -3.33,154.12 -7.42,142.99 -8.75,139.67 -9.61,137.53 -10.72,135.09 -10.72,135.09 -10.72,135.08 -11.54,126.13 -11.61,121.74" fill="none" stroke="#bcbcbc" stroke-width="8" stroke-linecap="round" stroke-linejoin="round" /><polyline points="-1.06,548.89 -2.62,550.57 -4.94,553.34 -11.49,571.79 -13.38,577.13" fill="none" stroke="#bcbcbc" stroke-width="8" stroke-linecap="round" stroke-linejoin="round" /><polyline points="-109.77,281.54 -108.87,279.12 -108.67,278.56 -104.42,266.69 -102.83,261.69 -89.81,223.40" fill="none" stroke="#bcbcbc" stroke-width="8" stroke-linecap="round" stroke-linejoin="round" /><polyline points="-42.41,335.22 -41.08,331.69 -37.48,322.13 -35.96,318.09 -34.93,315.36 -32.04,307.69 -30.13,302.62 -29.88,301.94 -25.26,289.67 -23.33,290.26 -22.28,287.41 -20.43,282.37 -20.78,280.08 -15.87,266.70 -15.36,265.33 -14.43,264.47 -13.65,263.75 -8.72,250.27 -8.00,246.58 -0.93,226.93 0.74,225.62 4.15,216.00 3.54,214.52 6.52,205.53 4.97,197.50" fill="none" stroke="#bcbcbc" stroke-width="8" stroke-linecap="round" stroke-linejoin="round" /><polyline points="84.11,-30.32 82.13,-33.57 71.72,-50.66" fill="none" stroke="#bcbcbc" stroke-width="8" stroke-linecap="round" stroke-linejoin="round" /><polyline points="116.73,194.80 164.52,225.54 164.53,225.56 164.53,225.56 173.37,226.71" fill="none" stroke="#bcbcbc" stroke-width="8" stroke-linecap="round" stroke-linejoin="round" /><polyline points="97.57,130.61 148.41,156.13 149.95,157.27 149.84,165.63 150.87,174.20" fill="none" stroke="#bcbcbc" stroke-width="8" stroke-linecap="round" stroke-linejoin="round" /><polyline points="0.62,581.57 -1.21,587.15 -8.62,609.74 -21.22,647.80 -22.11,650.50 -23.02,653.23 -23.27,656.15" fill="none" stroke="#bcbcbc" stroke-width="8" stroke-linecap="round" stroke-linejoin="round" /><polyline points="143.77,444.30 144.07,441.47 144.14,438.82 144.11,438.73 142.31,430.94 141.57,427.69 141.22,426.12 140.85,424.51 138.87,415.80 135.01,398.38 132.20,387.91 131.81,386.30" fill="none" stroke="#bcbcbc" stroke-width="8" stroke-linecap="round" stroke-linejoin="round" /><polyline points="-108.68,603.71 -107.42,600.13 -93.26,559.89 -91.65,555.32" fill="none" stroke="#bcbcbc" stroke-width="8" stroke-linecap="round" stroke-linejoin="round" /><polyline points="209.24,276.02 205.07,274.85 176.78,231.44 173.37,226.71" fill="none" stroke="#bcbcbc" stroke-width="8" stroke-linecap="round" stroke-linejoin="round" /><polyline points="-255.82,380.19 -152.72,404.89 -145.61,407.49" fill="none" stroke="#bcbcbc" stroke-width="8" stroke-linecap="round" stroke-linejoin="round" /><polyline points="69.37,-5.79 109.53,9.09 115.19,8.13" fill="none" stroke="#bcbcbc" stroke-width="8" stroke-linecap="round" stroke-linejoin="round" />
    <polyline points="167.20,167.76 169.90,167.20 179.98,172.14 181.31,173.46 200.23,205.49 200.73,209.37 203.19,211.42 202.80,212.84 202.74,215.15 203.08,218.38 208.09,238.98 208.53,253.24 209.24,276.02 210.42,306.69 205.62,320.05 202.52,328.19 198.01,339.67 196.70,342.99 195.85,343.92 194.49,352.80" fill="none" stroke="#ffffff" stroke-width="16" stroke-linecap="round" stroke-linejoin="round" />
    <polyline points="167.20,167.76 169.90,167.20 179.98,172.14 181.31,173.46 200.23,205.49 200.73,209.37 203.19,211.42 202.80,212.84 202.74,215.15 203.08,218.38 208.09,238.98 208.53,253.24 209.24,276.02 210.42,306.69 205.62,320.05 202.52,328.19 198.01,339.67 196.70,342.99 195.85,343.92 194.49,352.80" fill="none" stroke="#111111" stroke-width="9" stroke-linecap="round" stroke-linejoin="round" />
    
            <g transform="translate(167.20,167.76)">
              <circle r="19" fill="#ffffff" stroke="#111111" stroke-width="4" />
              <text text-anchor="middle" dominant-baseline="central" font-family="Helvetica, Arial, sans-serif"
                font-size="18" font-weight="700" fill="#111111">1</text>
            </g>
            
            <g transform="translate(194.49,352.80)">
              <circle r="19" fill="#ffffff" stroke="#111111" stroke-width="4" />
              <text text-anchor="middle" dominant-baseline="central" font-family="Helvetica, Arial, sans-serif"
                font-size="18" font-weight="700" fill="#111111">2</text>
            </g>
            
  </g>
</svg>
