<svg xmlns="http://www.w3.org/2000/svg" width="520" height="520" viewBox="0 0 520 520">
  <rect width="100%" height="100%" fill="#ffffff" />
  <g>
    <polyline points="209.31,-627.97 213.22,-607.14 238.49,-430.41 234.62,-386.22" fill="none" stroke="#bcbcbc" stroke-width="8" stroke-linecap="round" stroke-linejoin="round" /><polyline points="-304.22,844.84 -298.11,826.06 -265.74,726.53 -261.93,714.80 -258.07,702.49 -176.69,442.98 -170.15,422.11 -185.13,385.19" fill="none" stroke="#bcbcbc" stroke-width="8" stroke-linecap="round" stroke-linejoin="round" /><polyline points="-866.34,614.02 -867.66,599.12 -841.05,450.11 -837.32,431.47 -834.53,421.71 -827.21,383.92 -818.98,337.67 -810.01,296.93 -801.12,256.29 -795.52,244.83 -791.86,237.81" fill="none" stroke="#bcbcbc" stroke-width="8" stroke-linecap="round" stroke-linejoin="round" /><polyline points="-711.91,-437.07 -718.23,-456.36 -783.62,-655.76 -786.81,-664.12" fill="none" stroke="#bcbcbc" stroke-width="8" stroke-linecap="round" stroke-linejoin="round" /><polyline points="-1047.40,1317.90 -1045.45,1298.88 -1044.66,1290.14 -1037.54,1211.41 -1029.75,1142.09 -1027.93,1125.90 -1026.24,1106.48 -1026.05,1104.85 -1021.63,1066.24 -1017.82,1026.99 -1013.63,989.12 -1010.80,959.63 -1009.62,941.43 -1008.58,924.63 -1006.73,905.69" fill="none" stroke="#bcbcbc" stroke-width="8" stroke-linecap="round" stroke-linejoin="round" /><polyline points="-143.98,891.10 -139.32,876.47 -106.51,773.33 -102.78,761.61 -97.49,744.92 -93.69,732.95 -64.65,607.71" fill="none" stroke="#bcbcbc" stroke-width="8" stroke-linecap="round" stroke-linejoin="round" /><polyline points="-271.51,-1148.93 -259.40,-1147.07 74.47,-1095.77" fill="none" stroke="#bcbcbc" stroke-width="8" stroke-linecap="round" stroke-linejoin="round" /><polyline points="-1128.62,866.80 -1163.37,865.18 -1184.56,864.20 -1196.07,863.66 -1206.17,863.19 -1284.86,859.53 -1394.32,854.44 -1446.49,847.05 -1463.95,844.57 -1479.10,841.90 -1581.71,823.79 -1596.05,821.25 -1599.23,820.71 -1616.95,817.67 -1630.56,815.34 -1717.51,807.66 -1734.07,806.19 -1740.14,805.65 -1758.94,804.35 -1795.75,801.80" fill="none" stroke="#bcbcbc" stroke-width="8" stroke-linecap="round" stroke-linejoin="round" /><polyline points="-623.76,765.98 -617.02,746.83 -556.37,578.69 -483.40,366.62 -478.73,353.32 -475.47,344.03 -472.83,336.40" fill="none" stroke="#bcbcbc" stroke-width="8" stroke-linecap="round" stroke-linejoin="round" /><polyline points="-1740.14,805.65 -1741.69,794.84 -1742.06,783.10 -1739.76,759.46 -1734.48,716.29 -1730.95,701.79 -1725.24,649.40 -1724.20,637.73 -1722.52,622.73 -1721.28,611.59 -1718.93,598.96 -1714.59,564.98 -1711.57,538.99 -1707.14,528.35" fill="none" stroke="#bcbcbc" stroke-width="8" stroke-linecap="round" stroke-linejoin="round" /><polyline points="-1802.23,515.07 -1721.32,526.37 -1707.14,528.35 -1698.36,529.75 -1662.09,535.53 -1578.53,548.85 -1564.20,551.24" fill="none" stroke="#bcbcbc" stroke-width="8" stroke-linecap="round" stroke-linejoin="round" /><polyline points="-313.29,-546.23 -312.77,-538.88 -311.68,-531.43 -309.05,-525.73 -304.14,-519.37 -295.04,-511.09 -273.48,-497.97 -107.13,-393.62 -4.68,-256.26 72.70,-65.30 77.75,-52.68" fill="none" stroke="#bcbcbc" stroke-width="8" stroke-linecap="round" stroke-linejoin="round" /><polyline points="-339.93,10.98 -336.48,16.69 -335.59,18.17 -332.73,32.57 -313.22,126.94 -307.02,156.90 -302.59,178.23 -295.68,221.47 -292.45,241.41 -290.23,253.58 -287.79,264.57 -284.88,270.98 -280.61,278.40 -278.32,281.90 -235.10,343.78 -211.72,380.59 -205.62,389.39" fill="none" stroke="#bcbcbc" stroke-width="8" stroke-linecap="round" stroke-linejoin="round" /><polyline points="-1580.72,1192.62 -1578.42,1178.46 -1576.28,1168.22 -1575.71,1166.86 -1546.95,1098.46 -1528.62,1054.00 -1523.05,1039.92 -1517.15,1025.00 -1510.74,1012.17 -1509.70,1009.66 -1500.93,988.46 -1494.15,969.70 -1488.33,952.49 -1484.64,940.33 -1480.50,925.30 -1475.73,905.15 -1472.10,888.80 -1467.77,865.98 -1466.86,860.89 -1463.95,844.57" fill="none" stroke="#bcbcbc" stroke-width="8" stroke-linecap="round" stroke-linejoin="round" /><polyline points="-186.94,-717.51 -95.21,-653.42 -82.86,-650.79 -73.81,-640.45" fill="none" stroke="#bcbcbc" stroke-width="8" stroke-linecap="round" stroke-linejoin="round" /><polyline points="-572.11,-125.58 -559.98,-120.92 -507.35,-103.70 -385.27,-56.88 -378.42,-50.06 -375.20,-44.96" fill="none" stroke="#bcbcbc" stroke-width="8" stroke-linecap="round" stroke-linejoin="round" /><polyline points="-344.61,1077.47 -336.29,1055.81 -295.25,944.46 -266.23,860.33 -260.21,857.56" fill="none" stroke="#bcbcbc" stroke-width="8" stroke-linecap="round" stroke-linejoin="round" /><polyline points="-924.76,936.28 -918.29,921.97 -917.65,920.55 -906.57,883.38 -888.41,822.20 -883.77,806.54 -880.16,794.38 -879.67,787.30 -880.41,771.61" fill="none" stroke="#bcbcbc" stroke-width="8" stroke-linecap="round" stroke-linejoin="round" /><polyline points="-170.38,15.87 -180.79,18.02 -204.37,13.82 -208.02,4.09 -248.88,-11.48 -258.54,-8.96 -295.40,-22.49 -300.90,-18.65" fill="none" stroke="#bcbcbc" stroke-width="8" stroke-linecap="round" stroke-linejoin="round" /><polyline points="-231.05,-1247.89 -212.54,-1243.36 -202.29,-1241.58 41.26,-1199.35" fill="none" stroke="#bcbcbc" stroke-width="8" stroke-linecap="round" stroke-linejoin="round" /><polyline points="-420.34,1009.66 -410.21,981.10 -390.52,925.59 -377.80,901.95 -359.49,850.69 -352.18,830.23" fill="none" stroke="#bcbcbc" stroke-width="8" stroke-linecap="round" stroke-linejoin="round" /><polyline points="-1754.78,-98.88 -1772.42,-99.69 -1776.84,-94.32 -1807.57,-56.98 -1915.00,67.11 -1930.10,84.56" fill="none" stroke="#bcbcbc" stroke-width="8" stroke-linecap="round" stroke-linejoin="round" /><polyline points="-812.51,7.40 -820.30,24.64 -821.24,26.72 -848.30,97.27 -875.57,174.93 -882.84,195.64 -886.96,206.33" fill="none" stroke="#bcbcbc" stroke-width="8" stroke-linecap="round" stroke-linejoin="round" /><polyline points="-415.67,-785.27 -407.08,-773.61 -400.94,-757.58 -391.39,-734.57 -376.06,-698.37 -362.49,-665.88 -346.91,-630.20 -335.35,-602.70 -333.64,-598.75 -333.53,-598.51 -324.23,-576.76 -321.45,-570.58 -318.80,-564.70 -316.01,-559.18 -313.90,-553.58 -313.29,-546.23" fill="none" stroke="#bcbcbc" stroke-width="8" stroke-linecap="round" stroke-linejoin="round" /><polyline points="-1073.63,355.15 -1069.13,352.70 -1062.84,347.70 -1059.69,341.21 -1017.89,182.72 -1016.63,173.78 -1011.53,157.45" fill="none" stroke="#bcbcbc" stroke-width="8" stroke-linecap="round" stroke-linejoin="round" /><polyline points="387.90,107.14 393.83,125.96 398.00,145.73 389.88,221.06 380.49,277.72 375.36,297.05 374.89,298.80 370.40,309.23 364.28,320.29 349.98,338.38 356.90,373.74 334.50,449.64 322.13,491.56 296.83,560.18 259.77,643.72 214.53,723.78 200.40,749.80 174.85,792.55 72.78,937.41 50.42,967.54 -36.18,1080.71 -85.90,1137.27 -155.44,1207.95 -161.88,1208.61 -177.58,1221.45" fill="none" stroke="#bcbcbc" stroke-width="8" stroke-linecap="round" stroke-linejoin="round" /><polyline points="-871.54,1346.26 -843.05,1257.90 -838.39,1243.31 -832.06,1234.12 -818.45,1193.28 -814.02,1179.41 -757.81,1003.42 -752.16,985.72 -747.50,970.17 -681.16,761.41" fill="none" stroke="#bcbcbc" stroke-width="8" stroke-linecap="round" stroke-linejoin="round" /><polyline points="-204.08,-297.06 -179.45,-323.97 -172.18,-332.72 -122.42,-403.21" fill="none" stroke="#bcbcbc" stroke-width="8" stroke-linecap="round" stroke-linejoin="round" /><polyline points="-696.38,-286.39 -628.55,-262.78 -624.81,-256.69 -605.55,-250.23 -594.11,-246.32 -539.44,-227.86" fill="none" stroke="#bcbcbc" stroke-width="8" stroke-linecap="round" stroke-linejoin="round" /><polyline points="-105.18,-755.76 -73.81,-640.45 -37.49,-504.61 -31.99,-493.28 -31.11,-480.36 -6.48,-434.38 59.98,-310.44 74.51,-289.01 78.72,-282.73 178.02,-97.09 223.65,-55.60 230.06,-47.33 239.08,-39.62 325.74,34.47 331.62,39.50 347.18,47.76" fill="none" stroke="#bcbcbc" stroke-width="8" stroke-linecap="round" stroke-linejoin="round" /><polyline points="-442.19,1365.02 -226.08,1239.49 -187.62,1219.82 -177.58,1221.45" fill="none" stroke="#bcbcbc" stroke-width="8" stroke-linecap="round" stroke-linejoin="round" /><polyline points="-207.88,1185.44 -194.47,1169.50 -74.10,929.33 -66.12,913.58 -59.47,897.99 -20.58,801.84 -9.01,772.87 24.51,671.45 46.24,541.06 48.81,522.08" fill="none" stroke="#bcbcbc" stroke-width="8" stroke-linecap="round" stroke-linejoin="round" /><polyline points="-300.78,-227.04 -302.88,-224.88 -305.78,-214.77 -306.07,-213.76 -319.14,-163.47 -315.71,-150.33 -318.56,-138.56 -322.29,-123.15 -331.85,-112.08 -342.70,-68.14 -355.48,-58.48 -369.12,-49.13 -375.20,-44.96" fill="none" stroke="#bcbcbc" stroke-width="8" stroke-linecap="round" stroke-linejoin="round" /><polyline points="-812.51,7.40 -806.96,-6.84 -773.56,-92.45 -766.28,-111.11 -760.28,-126.49 -717.61,-235.81 -698.40,-281.52 -696.38,-286.39 -681.45,-322.49 -647.95,-405.66 -635.68,-441.07 -632.95,-449.19 -629.28,-458.40" fill="none" stroke="#bcbcbc" stroke-width="8" stroke-linecap="round" stroke-linejoin="round" /><polyline points="-438.83,-511.53 -432.37,-492.31 -220.44,-311.29 -104.79,-210.68 67.94,-60.52 83.02,-48.46 89.77,-44.24 119.75,-17.03 159.78,17.11 250.57,94.52 279.89,119.74 299.35,143.01" fill="none" stroke="#bcbcbc" stroke-width="8" stroke-linecap="round" stroke-linejoin="round" /><polyline points="-88.42,-823.45 -77.66,-830.35 -13.98,-856.81 -0.90,-870.58" fill="none" stroke="#bcbcbc" stroke-width="8" stroke-linecap="round" stroke-linejoin="round" /><polyline points="-14.86,787.52 -102.78,761.61 -261.93,714.80" fill="none" stroke="#bcbcbc" stroke-width="8" stroke-linecap="round" stroke-linejoin="round" /><polyline points="-298.67,-1082.56 -286.66,-1074.28 104.68,-987.21" fill="none" stroke="#bcbcbc" stroke-width="8" stroke-linecap="round" stroke-linejoin="round" /><polyline points="184.72,205.87 164.50,160.87 119.61,53.83 116.27,45.32 108.59,25.78 79.66,-47.84 77.84,-52.61" fill="none" stroke="#bcbcbc" stroke-width="8" stroke-linecap="round" stroke-linejoin="round" /><polyline points="-415.67,-785.27 -437.40,-791.46 -453.36,-796.21 -485.81,-805.85 -502.30,-810.55 -511.74,-813.17 -524.08,-816.70" fill="none" stroke="#bcbcbc" stroke-width="8" stroke-linecap="round" stroke-linejoin="round" /><polyline points="-982.16,-196.53 -983.26,-200.12 -984.27,-202.64 -988.75,-213.76 -1006.09,-254.20 -1022.58,-295.29 -1026.14,-304.99 -1030.24,-316.16 -1033.18,-325.30 -1038.02,-339.00 -1038.53,-340.44 -1054.30,-379.31 -1083.26,-452.38 -1089.76,-456.09 -1094.39,-467.94 -1103.63,-500.02 -1119.45,-539.79 -1122.86,-548.83" fill="none" stroke="#bcbcbc" stroke-width="8" stroke-linecap="round" stroke-linejoin="round" /><polyline points="-843.05,1257.90 -826.61,1262.94 -773.40,1279.15 -756.74,1284.23" fill="none" stroke="#bcbcbc" stroke-width="8" stroke-linecap="round" stroke-linejoin="round" /><polyline points="150.54,-804.32 153.64,-816.86 152.38,-821.62 150.86,-827.36 141.14,-862.95 119.49,-938.18 108.06,-976.64 104.68,-987.21 74.47,-1095.77 58.17,-1154.32 41.26,-1199.35 25.98,-1239.97 10.76,-1267.90 -4.02,-1282.66 -117.51,-1421.33 -125.91,-1431.20 -131.47,-1440.33" fill="none" stroke="#bcbcbc" stroke-width="8" stroke-linecap="round" stroke-linejoin="round" /><polyline points="-313.29,-546.23 -319.15,-544.00 -329.97,-541.01 -331.05,-540.71 -376.25,-529.15 -428.22,-514.52 -438.83,-511.53 -443.55,-510.03 -456.04,-506.02 -466.71,-503.05 -513.31,-490.08 -589.96,-468.31 -618.53,-461.09 -629.28,-458.40 -680.36,-445.86 -711.91,-437.07 -778.73,-418.40 -844.77,-399.79 -852.41,-397.67 -907.60,-382.35 -933.06,-375.29 -945.92,-369.21 -970.26,-357.15 -1018.59,-332.62 -1021.96,-330.91 -1033.18,-325.30 -1040.02,-321.87 -1049.57,-316.86 -1083.53,-299.06 -1145.40,-264.35 -1197.08,-237.27 -1204.48,-233.40 -1214.35,-232.78 -1220.29,-229.63 -1221.47,-229.00 -1277.54,-198.28 -1289.28,-198.33 -1302.76,-191.28 -1307.47,-188.81 -1311.44,-186.74 -1320.81,-181.83 -1328.19,-164.99 -1359.93,-147.99 -1370.02,-142.59 -1380.94,-136.65 -1425.09,-112.62 -1447.91,-100.20 -1459.41,-96.89" fill="none" stroke="#bcbcbc" stroke-width="8" stroke-linecap="round" stroke-linejoin="round" /><polyline points="322.13,491.56 298.57,493.72 224.98,500.46 221.66,500.77 216.97,501.20 209.37,501.90 138.01,508.45 113.19,506.14 84.29,513.39 61.15,519.06 48.81,522.08 18.18,523.25 -8.34,521.90 -21.86,520.46 -33.36,516.98 -41.84,512.30 -73.39,489.99 -150.06,437.33 -157.28,432.43 -164.64,427.44 -170.15,422.11" fill="none" stroke="#bcbcbc" stroke-width="8" stroke-linecap="round" stroke-linejoin="round" /><polyline points="-1414.28,-397.41 -1386.46,-342.95 -1382.25,-327.39 -1358.81,-282.68 -1349.13,-269.89 -1309.97,-193.68 -1307.47,-188.81" fill="none" stroke="#bcbcbc" stroke-width="8" stroke-linecap="round" stroke-linejoin="round" /><polyline points="-561.77,86.90 -565.94,98.35 -567.11,101.91 -572.54,118.38 -606.96,214.40 -624.04,262.08 -624.62,263.71 -631.49,278.53 -635.42,287.33" fill="none" stroke="#bcbcbc" stroke-width="8" stroke-linecap="round" stroke-linejoin="round" /><polyline points="-105.18,-755.76 -109.00,-763.93 -119.03,-765.24 -151.47,-757.80 -158.06,-758.66 -163.23,-765.58 -172.40,-807.79 -122.69,-815.49 -99.67,-822.28 -88.42,-823.45 -76.29,-780.35" fill="none" stroke="#bcbcbc" stroke-width="8" stroke-linecap="round" stroke-linejoin="round" /><polyline points="74.51,-289.01 87.31,-296.20 151.64,-334.96 168.83,-345.19 198.92,-363.14 248.43,-395.15 259.98,-403.45 346.82,-457.32" fill="none" stroke="#bcbcbc" stroke-width="8" stroke-linecap="round" stroke-linejoin="round" /><polyline points="378.05,-34.57 356.10,-41.11 343.33,-51.58 294.56,-93.79 292.90,-95.27 281.10,-105.79 274.17,-118.08 151.64,-334.96" fill="none" stroke="#bcbcbc" stroke-width="8" stroke-linecap="round" stroke-linejoin="round" /><polyline points="-1004.76,-51.76 -812.51,7.40 -796.83,12.37 -653.36,57.84 -650.37,58.79 -628.88,65.61 -618.31,68.96 -604.58,72.72 -576.26,82.31 -561.77,86.90 -548.74,91.03 -441.97,124.90 -329.26,160.31 -319.94,163.24 -307.02,156.90" fill="none" stroke="#bcbcbc" stroke-width="8" stroke-linecap="round" stroke-linejoin="round" /><polyline points="-439.49,-1000.85 -356.21,-1077.37 -342.11,-1090.32" fill="none" stroke="#bcbcbc" stroke-width="8" stroke-linecap="round" stroke-linejoin="round" /><polyline points="-1833.99,233.82 -1528.42,266.57" fill="none" stroke="#bcbcbc" stroke-width="8" stroke-linecap="round" stroke-linejoin="round" /><polyline points="-912.17,-619.05 -847.95,-642.02 -781.70,-665.97 -740.54,-681.97 -614.86,-727.68 -578.39,-740.30 -570.77,-742.93 -561.64,-746.07 -551.38,-749.60 -550.12,-750.03 -529.42,-758.35 -520.42,-761.97" fill="none" stroke="#bcbcbc" stroke-width="8" stroke-linecap="round" stroke-linejoin="round" /><polyline points="-480.81,935.07 -420.34,1009.66 -383.32,1046.93 -367.30,1058.47 -344.61,1077.47 -323.30,1095.36 -304.99,1113.22 -304.54,1122.30" fill="none" stroke="#bcbcbc" stroke-width="8" stroke-linecap="round" stroke-linejoin="round" /><polyline points="-415.67,-785.27 -391.97,-844.67 -353.62,-942.46 -298.67,-1082.56 -271.51,-1148.93 -231.05,-1247.89 -197.87,-1328.96 -191.93,-1339.71 -162.75,-1387.42 -160.87,-1390.50 -150.19,-1411.49 -131.47,-1440.33 -121.02,-1456.42 -106.22,-1479.18" fill="none" stroke="#bcbcbc" stroke-width="8" stroke-linecap="round" stroke-linejoin="round" /><polyline points="-974.72,802.79 -978.60,805.89 -981.17,809.59 -986.40,825.00 -990.01,836.13 -1006.70,886.05 -1009.00,893.25 -1010.43,897.72 -1025.76,893.33 -1063.07,880.82 -1100.04,868.42 -1128.62,866.80" fill="none" stroke="#bcbcbc" stroke-width="8" stroke-linecap="round" stroke-linejoin="round" /><polyline points="-1705.42,1150.18 -1644.49,992.83 -1637.71,975.70 -1631.63,959.20 -1624.28,939.26 -1615.27,907.90 -1605.88,868.92 -1602.03,841.00 -1599.23,820.71 -1595.29,805.74 -1580.95,693.22 -1564.20,551.24 -1555.53,483.55 -1545.85,404.03 -1528.42,266.57 -1525.65,243.20 -1508.03,99.45 -1508.02,91.45 -1504.13,48.79 -1492.89,-41.30 -1490.08,-57.01 -1487.14,-65.83 -1482.54,-75.54 -1478.08,-83.07 -1468.21,-93.75 -1459.40,-96.77" fill="none" stroke="#bcbcbc" stroke-width="8" stroke-linecap="round" stroke-linejoin="round" /><polyline points="-375.20,-44.96 -371.87,-39.67 -360.69,-22.23 -343.96,4.59 -339.93,10.98 -333.26,5.91 -300.90,-18.65" fill="none" stroke="#bcbcbc" stroke-width="8" stroke-linecap="round" stroke-linejoin="round" /><polyline points="-353.62,-942.46 -24.39,-882.94 10.19,-864.74 139.18,-800.80 150.54,-804.32" fill="none" stroke="#bcbcbc" stroke-width="8" stroke-linecap="round" stroke-linejoin="round" /><polyline points="-982.16,-196.52 -988.00,-188.00 -1040.52,-162.37 -1079.10,-113.34 -1120.73,-87.57 -1149.20,-66.07 -1176.36,-43.91 -1190.28,-31.22 -1214.88,-0.02 -1242.39,39.40 -1246.92,46.71" fill="none" stroke="#bcbcbc" stroke-width="8" stroke-linecap="round" stroke-linejoin="round" /><polyline points="-926.63,-161.35 -928.90,-156.29 -933.89,-149.01 -943.30,-137.43 -998.78,-67.35 -1028.13,11.71 -1176.29,-43.98" fill="none" stroke="#bcbcbc" stroke-width="8" stroke-linecap="round" stroke-linejoin="round" /><polyline points="-1149.20,-66.07 -1154.93,-83.44 -1179.73,-158.50 -1189.35,-173.33 -1205.46,-221.66 -1206.85,-225.84 -1204.48,-233.40 -1208.34,-245.72 -1285.81,-493.07" fill="none" stroke="#bcbcbc" stroke-width="8" stroke-linecap="round" stroke-linejoin="round" /><polyline points="-241.44,-1415.70 -180.22,-1414.08 -177.36,-1414.00 -165.63,-1413.67 -150.19,-1411.49" fill="none" stroke="#bcbcbc" stroke-width="8" stroke-linecap="round" stroke-linejoin="round" /><polyline points="-556.37,578.69 -577.27,578.44 -754.29,602.20 -767.04,603.55 -781.63,605.08 -866.34,614.02 -980.46,626.08 -1040.96,632.46 -1074.43,635.99 -1101.61,639.29 -1115.56,640.99 -1131.28,642.90 -1207.20,652.12 -1225.40,654.34 -1281.47,660.47 -1580.95,693.22" fill="none" stroke="#bcbcbc" stroke-width="8" stroke-linecap="round" stroke-linejoin="round" /><polyline points="-818.45,1193.28 -834.13,1188.23 -907.37,1164.66 -922.18,1159.89 -935.03,1155.76 -1012.63,1130.82 -1027.93,1125.90 -1048.17,1119.39 -1171.69,1079.64 -1185.60,1075.17" fill="none" stroke="#bcbcbc" stroke-width="8" stroke-linecap="round" stroke-linejoin="round" /><polyline points="-512.19,-289.59 -469.58,-276.32 -313.79,-228.21 -312.33,-227.76 -300.78,-227.04" fill="none" stroke="#bcbcbc" stroke-width="8" stroke-linecap="round" stroke-linejoin="round" /><polyline points="-73.81,-640.45 138.12,-636.72" fill="none" stroke="#bcbcbc" stroke-width="8" stroke-linecap="round" stroke-linejoin="round" /><polyline points="-177.58,1221.45 -207.88,1185.44 -220.59,1170.66 -231.52,1160.45 -246.06,1149.59 -275.78,1131.76 -304.54,1122.30 -363.06,1104.23 -410.91,1089.04 -383.32,1046.93" fill="none" stroke="#bcbcbc" stroke-width="8" stroke-linecap="round" stroke-linejoin="round" /><polyline points="-480.81,935.07 -522.99,883.00 -531.02,873.10 -573.51,814.56 -583.13,796.69 -580.82,775.41 -568.01,775.28 -536.40,781.37 -488.31,790.62" fill="none" stroke="#bcbcbc" stroke-width="8" stroke-linecap="round" stroke-linejoin="round" /><polyline points="-1032.67,517.88 -1024.89,534.62 -980.46,626.08 -914.40,762.07 -905.97,779.41" fill="none" stroke="#bcbcbc" stroke-width="8" stroke-linecap="round" stroke-linejoin="round" /><polyline points="-1744.27,932.13 -1728.38,938.63 -1653.96,969.05 -1637.71,975.70 -1620.62,982.69 -1533.00,1018.51 -1517.15,1025.00" fill="none" stroke="#bcbcbc" stroke-width="8" stroke-linecap="round" stroke-linejoin="round" /><polyline points="-996.11,382.28 -841.05,450.11" fill="none" stroke="#bcbcbc" stroke-width="8" stroke-linecap="round" stroke-linejoin="round" /><polyline points="-300.78,-227.04 -277.16,-225.80 -275.66,-224.46 -265.06,-215.06 -249.48,-201.15 -246.61,-195.56 -192.92,-148.55 -188.95,-141.05 -151.21,-107.74 -141.71,-104.84 -112.34,-79.13 -105.77,-76.12 -61.48,-38.56 -51.62,-29.82 -46.18,-21.16" fill="none" stroke="#bcbcbc" stroke-width="8" stroke-linecap="round" stroke-linejoin="round" /><polyline points="-1788.04,382.43 -1545.85,404.03" fill="none" stroke="#bcbcbc" stroke-width="8" stroke-linecap="round" stroke-linejoin="round" /><polyline points="-1247.29,1284.22 -1239.79,1268.24 -1237.86,1261.14 -1227.34,1222.36 -1189.24,1088.03 -1185.60,1075.17 -1181.74,1061.06 -1164.48,997.95 -1135.34,891.37 -1128.62,866.80" fill="none" stroke="#bcbcbc" stroke-width="8" stroke-linecap="round" stroke-linejoin="round" /><polyline points="-1032.67,517.88 -996.11,382.28 -1073.63,355.15 -1093.93,367.14 -1103.19,374.18 -1110.04,383.45 -1114.86,395.68 -1132.69,461.58 -1118.31,468.91 -1103.77,472.43 -1071.64,480.80 -1047.59,488.45 -1032.67,517.88" fill="none" stroke="#bcbcbc" stroke-width="8" stroke-linecap="round" stroke-linejoin="round" /><polyline points="-1132.69,461.58 -1149.67,459.22 -1545.85,404.03" fill="none" stroke="#bcbcbc" stroke-width="8" stroke-linecap="round" stroke-linejoin="round" /><polyline points="-488.31,790.62 -451.57,798.65 -352.18,830.23 -324.40,839.02 -258.44,858.07 -191.99,877.23 -142.80,891.44 -64.13,914.16 -47.88,918.85 -8.17,932.16 57.19,949.57 62.95,950.65" fill="none" stroke="#bcbcbc" stroke-width="8" stroke-linecap="round" stroke-linejoin="round" /><polyline points="-441.70,1364.74 -455.11,1368.11 -469.61,1408.51 -492.09,1402.12 -594.31,1367.29 -606.61,1364.66 -633.98,1362.70 -757.77,1363.20 -785.06,1359.72 -846.68,1350.30 -871.54,1346.26 -1047.85,1317.83 -1116.12,1306.94 -1246.32,1284.39 -1267.34,1280.22 -1561.19,1198.09 -1579.73,1192.90 -1705.42,1150.18 -1736.35,1139.21 -1813.59,1107.20 -1857.62,1090.54" fill="none" stroke="#bcbcbc" stroke-width="8" stroke-linecap="round" stroke-linejoin="round" /><polyline points="-172.40,-807.79 -185.13,-810.41 -354.95,-790.34 -415.67,-785.27" fill="none" stroke="#bcbcbc" stroke-width="8" stroke-linecap="round" stroke-linejoin="round" /><polyline points="-488.31,790.62 -482.36,780.66 -446.72,689.13 -406.91,550.74 -396.75,520.93 -391.32,512.82 -352.87,389.42 -350.96,374.69 -349.50,365.06" fill="none" stroke="#bcbcbc" stroke-width="8" stroke-linecap="round" stroke-linejoin="round" /><polyline points="-313.29,-546.23 -309.24,-547.78 -303.73,-552.15 -295.38,-561.92 -186.94,-717.51 -158.06,-758.66" fill="none" stroke="#bcbcbc" stroke-width="8" stroke-linecap="round" stroke-linejoin="round" /><polyline points="169.33,25.31 171.55,18.92 226.06,-45.20 230.06,-47.33 239.53,-60.29 271.24,-96.72 281.10,-105.79" fill="none" stroke="#bcbcbc" stroke-width="8" stroke-linecap="round" stroke-linejoin="round" /><polyline points="216.97,501.20 216.21,492.62 215.63,485.98 212.76,473.29 209.32,465.01 205.04,443.26 204.65,435.38 201.75,417.78 188.77,411.00 178.40,414.96 159.84,419.41 145.15,421.71 131.06,425.10 111.61,429.54 102.74,431.56" fill="none" stroke="#bcbcbc" stroke-width="8" stroke-linecap="round" stroke-linejoin="round" /><polyline points="-1215.13,186.27 -1175.49,93.34 -1173.28,87.30" fill="none" stroke="#bcbcbc" stroke-width="8" stroke-linecap="round" stroke-linejoin="round" /><polyline points="-170.38,15.87 -151.27,8.47 -141.29,4.60 -133.56,-3.22 -101.71,-11.08 -91.02,-8.35 -67.96,-14.29 -50.37,-18.82 -46.18,-21.16 -29.13,-25.34 58.07,-46.70 77.84,-52.61" fill="none" stroke="#bcbcbc" stroke-width="8" stroke-linecap="round" stroke-linejoin="round" /><polyline points="-974.72,802.79 -933.59,787.85 -919.83,783.64 -905.97,779.41 -880.41,771.61 -860.52,768.75 -792.60,761.32 -778.95,760.57 -718.18,761.09 -681.16,761.41 -667.24,760.69 -644.94,762.95 -637.97,763.95 -623.76,765.98 -580.82,775.41" fill="none" stroke="#bcbcbc" stroke-width="8" stroke-linecap="round" stroke-linejoin="round" /><polyline points="-778.73,-418.40 -785.54,-441.44 -810.85,-527.02 -841.60,-624.60 -847.95,-642.02 -854.39,-658.35 -862.54,-681.87" fill="none" stroke="#bcbcbc" stroke-width="8" stroke-linecap="round" stroke-linejoin="round" /><polyline points="-852.35,961.43 -846.94,944.35 -792.26,771.92 -792.60,761.32" fill="none" stroke="#bcbcbc" stroke-width="8" stroke-linecap="round" stroke-linejoin="round" /><polyline points="-778.95,760.57 -768.13,615.38 -767.04,603.55 -765.39,589.77 -765.36,589.15 -764.65,572.31 -761.04,526.61 -759.00,505.32 -756.21,481.14 -753.67,463.73 -751.40,452.80 -748.53,444.54 -742.91,425.92 -731.29,387.16 -716.52,337.11 -700.23,285.94 -696.91,275.51 -694.25,267.94" fill="none" stroke="#bcbcbc" stroke-width="8" stroke-linecap="round" stroke-linejoin="round" /><polyline points="-1132.69,461.58 -1135.57,474.45 -1135.07,478.56 -1117.43,625.43 -1115.56,640.99 -1116.37,656.99 -1120.99,748.34 -1122.92,786.50 -1123.92,806.19 -1125.70,841.28 -1126.62,859.55 -1128.62,866.80" fill="none" stroke="#bcbcbc" stroke-width="8" stroke-linecap="round" stroke-linejoin="round" /><polyline points="-1215.13,186.27 -1279.27,167.20 -1287.43,161.97 -1327.35,150.34 -1338.56,150.46 -1388.72,135.35 -1396.83,129.37 -1442.47,115.54 -1498.47,100.27 -1498.74,100.25 -1508.03,99.45" fill="none" stroke="#bcbcbc" stroke-width="8" stroke-linecap="round" stroke-linejoin="round" /><polyline points="-46.18,-21.16 -43.96,-18.24 -34.65,-4.37 -17.46,21.26 -1.27,37.47 29.84,72.40 24.58,104.68 21.91,116.78 18.20,121.90 26.00,133.44 38.07,158.28 62.19,204.80 74.07,227.72 81.45,248.31 84.78,257.87" fill="none" stroke="#bcbcbc" stroke-width="8" stroke-linecap="round" stroke-linejoin="round" /><polyline points="116.27,45.32 107.33,48.10 48.42,66.43 39.98,69.14 29.84,72.40" fill="none" stroke="#bcbcbc" stroke-width="8" stroke-linecap="round" stroke-linejoin="round" /><polyline points="-307.02,156.90 -288.60,150.93 -154.90,82.66 -137.00,73.91 -73.99,55.71 -12.89,38.54 -1.27,37.47" fill="none" stroke="#bcbcbc" stroke-width="8" stroke-linecap="round" stroke-linejoin="round" /><polyline points="-292.45,241.41 -138.31,169.69 -131.82,165.39 -116.75,161.01 -14.04,131.12 1.54,125.16 18.20,121.90" fill="none" stroke="#bcbcbc" stroke-width="8" stroke-linecap="round" stroke-linejoin="round" /><polyline points="-323.90,-1262.31 -261.51,-1254.61 -255.24,-1253.83 -231.05,-1247.89" fill="none" stroke="#bcbcbc" stroke-width="8" stroke-linecap="round" stroke-linejoin="round" /><polyline points="209.31,-627.97 220.37,-630.28 261.72,-610.01 267.16,-604.62 344.78,-473.25 346.82,-457.32 356.91,-448.91 355.31,-443.10 355.06,-433.63 356.46,-420.40 377.02,-335.92 378.84,-277.41 381.72,-183.98 386.55,-58.23 366.87,-3.44 354.18,29.96 335.67,77.04 330.31,90.65 326.83,94.46 321.23,130.89" fill="none" stroke="#bcbcbc" stroke-width="8" stroke-linecap="round" stroke-linejoin="round" /><polyline points="-410.91,1089.04 -429.45,1083.17 -459.53,1073.63 -473.89,1069.08 -490.75,1063.73 -512.06,1056.98 -531.32,1050.87 -550.36,1044.83 -635.27,1017.89 -650.14,1013.17 -668.62,1007.32 -672.69,1006.03 -721.26,993.20 -734.97,989.88 -752.16,985.72 -770.15,981.36 -834.96,965.64 -852.35,961.43 -871.02,954.94 -910.05,941.39 -924.76,936.28 -937.92,932.01 -999.03,910.28 -1006.73,905.69 -1010.43,897.72" fill="none" stroke="#bcbcbc" stroke-width="8" stroke-linecap="round" stroke-linejoin="round" /><polyline points="-131.82,165.39 -136.32,149.26 -149.74,101.16 -154.90,82.66 -162.36,68.83 -163.05,66.27 -167.44,49.98 -162.33,42.77 -168.48,22.24 -170.38,15.87" fill="none" stroke="#bcbcbc" stroke-width="8" stroke-linecap="round" stroke-linejoin="round" /><polyline points="-154.25,-423.25 -141.50,-429.25 -71.82,-467.67 -31.99,-493.28 -3.89,-512.45 2.31,-517.07 24.92,-532.78 48.35,-550.09 63.19,-560.89 80.88,-573.82 142.35,-601.56 150.32,-601.14 161.98,-606.65 209.31,-627.97" fill="none" stroke="#bcbcbc" stroke-width="8" stroke-linecap="round" stroke-linejoin="round" /><polyline points="-926.63,-161.35 -916.57,-157.27 -909.93,-155.23 -785.32,-116.96 -766.28,-111.11" fill="none" stroke="#bcbcbc" stroke-width="8" stroke-linecap="round" stroke-linejoin="round" /><polyline points="-1816.72,118.87 -1905.75,91.93" fill="none" stroke="#bcbcbc" stroke-width="8" stroke-linecap="round" stroke-linejoin="round" /><polyline points="-378.63,-1136.57 -356.55,-1108.61 -353.26,-1104.44 -342.11,-1090.32 -329.41,-1088.83 -303.31,-1085.77 -298.67,-1082.56" fill="none" stroke="#bcbcbc" stroke-width="8" stroke-linecap="round" stroke-linejoin="round" /><polyline points="387.90,107.14 352.92,113.67 317.05,133.16 283.81,151.66 252.36,167.39 214.37,188.02 186.85,204.73 132.48,233.88 -79.77,340.66 -134.80,364.89 -171.16,380.62 -189.17,386.51 -204.07,389.30 -228.48,390.77 -263.20,385.86 -349.83,365.06 -472.83,336.40 -634.63,287.59 -694.25,267.94 -791.86,237.81 -885.21,207.02 -1022.12,153.30 -1090.58,123.82 -1173.12,87.14 -1310.03,12.13 -1342.13,-9.16 -1423.37,-60.25 -1457.43,-94.32 -1508.53,-160.48 -1592.71,-247.27 -1625.79,-276.42" fill="none" stroke="#bcbcbc" stroke-width="8" stroke-linecap="round" stroke-linejoin="round" /><polyline points="-275.78,1131.76 -274.34,1123.76 -269.17,1110.69 -220.62,997.09 -202.27,954.50 -180.65,901.44 -175.39,882.02" fill="none" stroke="#bcbcbc" stroke-width="8" stroke-linecap="round" stroke-linejoin="round" /><polyline points="-1207.20,652.12 -1262.36,625.43 -1387.85,564.69 -1541.79,490.20 -1555.53,483.55" fill="none" stroke="#bcbcbc" stroke-width="8" stroke-linecap="round" stroke-linejoin="round" /><polyline points="-300.78,-227.04 -286.85,-241.30 -249.82,-279.20 -220.44,-311.29" fill="none" stroke="#bcbcbc" stroke-width="8" stroke-linecap="round" stroke-linejoin="round" /><polyline points="-1370.02,-142.59 -1385.32,-162.84 -1457.01,-257.76 -1559.35,-340.58" fill="none" stroke="#bcbcbc" stroke-width="8" stroke-linecap="round" stroke-linejoin="round" /><polyline points="-1814.14,1106.97 -1800.15,1073.78 -1755.65,962.84 -1750.26,948.28 -1744.27,932.13 -1742.00,926.30 -1741.40,917.17 -1735.71,830.93 -1734.07,806.19" fill="none" stroke="#bcbcbc" stroke-width="8" stroke-linecap="round" stroke-linejoin="round" /><polyline points="-1844.50,215.22 -1816.72,118.87 -1780.07,-8.20 -1775.54,-23.93 -1770.49,-41.80 -1759.20,-81.81 -1758.01,-86.01 -1754.78,-98.88 -1749.62,-113.42 -1748.37,-116.94 -1741.85,-133.09 -1729.06,-161.30 -1725.24,-169.40" fill="none" stroke="#bcbcbc" stroke-width="8" stroke-linecap="round" stroke-linejoin="round" /><polyline points="-1775.54,-23.93 -1719.33,-9.56 -1600.26,21.05 -1532.43,42.17 -1504.13,48.79" fill="none" stroke="#bcbcbc" stroke-width="8" stroke-linecap="round" stroke-linejoin="round" /><polyline points="-618.53,-461.09 -616.62,-472.79 -614.70,-484.93 -606.45,-525.55 -585.85,-620.11 -568.93,-704.69 -565.84,-722.24 -561.64,-746.07 -561.63,-746.09" fill="none" stroke="#bcbcbc" stroke-width="8" stroke-linecap="round" stroke-linejoin="round" /><polyline points="-784.95,1359.74 -759.85,1295.73 -756.74,1284.23 -657.14,1031.41 -650.14,1013.17 -644.48,997.70 -584.97,824.56 -573.51,814.56" fill="none" stroke="#bcbcbc" stroke-width="8" stroke-linecap="round" stroke-linejoin="round" /><polyline points="-443.55,-510.03 -443.56,-510.05 -447.09,-528.57 -447.64,-530.82 -456.24,-565.81 -456.24,-565.92 -462.10,-589.64 -486.96,-674.82 -490.09,-683.94 -506.87,-729.57 -512.33,-743.19 -515.85,-751.97 -520.41,-761.95 -520.42,-761.97 -520.43,-762.01 -523.76,-798.69 -524.08,-816.70" fill="none" stroke="#bcbcbc" stroke-width="8" stroke-linecap="round" stroke-linejoin="round" /><polyline points="-480.81,935.07 -487.20,941.98 -496.72,953.31 -523.55,1028.97 -531.32,1050.87" fill="none" stroke="#bcbcbc" stroke-width="8" stroke-linecap="round" stroke-linejoin="round" /><polyline points="-926.63,-161.35 -922.96,-171.28 -922.13,-173.59 -904.71,-222.26 -898.17,-242.76 -844.77,-399.79" fill="none" stroke="#bcbcbc" stroke-width="8" stroke-linecap="round" stroke-linejoin="round" /><polyline points="-650.37,58.79 -644.92,44.32 -630.16,5.12 -623.92,-11.45 -619.70,-22.67 -607.86,-54.12 -600.03,-74.90 -598.98,-77.70 -580.03,-128.04 -572.11,-125.58 -567.81,-137.27 -560.22,-157.94 -561.67,-167.33 -541.51,-222.22 -539.44,-227.86 -535.62,-231.37 -532.41,-234.32 -512.19,-289.59 -509.26,-304.72 -480.25,-385.32 -473.39,-390.68 -459.44,-430.16 -461.92,-436.22 -449.70,-473.10 -456.04,-506.02" fill="none" stroke="#bcbcbc" stroke-width="8" stroke-linecap="round" stroke-linejoin="round" /><polyline points="-131.47,-1440.33 -139.60,-1453.66 -182.31,-1523.73" fill="none" stroke="#bcbcbc" stroke-width="8" stroke-linecap="round" stroke-linejoin="round" /><polyline points="2.31,-517.07 198.32,-391.03 198.37,-390.95 198.37,-390.93 234.62,-386.22" fill="none" stroke="#bcbcbc" stroke-width="8" stroke-linecap="round" stroke-linejoin="round" /><polyline points="-76.29,-780.35 132.25,-675.68 138.55,-670.99 138.12,-636.72 142.35,-601.56" fill="none" stroke="#bcbcbc" stroke-width="8" stroke-linecap="round" stroke-linejoin="round" /><polyline points="-473.89,1069.08 -481.39,1091.96 -511.78,1184.63 -563.46,1340.69 -567.13,1351.77 -570.84,1362.98 -571.88,1374.93" fill="none" stroke="#bcbcbc" stroke-width="8" stroke-linecap="round" stroke-linejoin="round" /><polyline points="113.19,506.14 114.44,494.52 114.71,483.67 114.62,483.29 107.23,451.35 104.20,438.00 102.74,431.56 101.25,424.98 93.14,389.24 77.29,317.83 65.77,274.89 64.14,268.26" fill="none" stroke="#bcbcbc" stroke-width="8" stroke-linecap="round" stroke-linejoin="round" /><polyline points="-922.18,1159.89 -917.01,1145.20 -858.94,980.16 -852.35,961.43" fill="none" stroke="#bcbcbc" stroke-width="8" stroke-linecap="round" stroke-linejoin="round" /><polyline points="381.72,-183.98 364.63,-188.80 248.60,-366.84 234.62,-386.22" fill="none" stroke="#bcbcbc" stroke-width="8" stroke-linecap="round" stroke-linejoin="round" /><polyline points="-1525.65,243.20 -1102.79,344.51 -1073.63,355.15" fill="none" stroke="#bcbcbc" stroke-width="8" stroke-linecap="round" stroke-linejoin="round" /><polyline points="-191.93,-1339.71 -27.21,-1278.70 -4.02,-1282.66" fill="none" stroke="#bcbcbc" stroke-width="8" stroke-linecap="round" stroke-linejoin="round" />
    <polyline points="352.80,352.80 333.92,344.59 286.75,311.67 224.52,267.94 190.29,240.26 167.20,215.53" fill="none" stroke="#ffffff" stroke-width="16" stroke-linecap="round" stroke-linejoin="round" />
    <polyline points="352.80,352.80 333.92,344.59 286.75,311.67 224.52,267.94 190.29,240.26 167.20,215.53" fill="none" stroke="#111111" stroke-width="9" stroke-linecap="round" stroke-linejoin="round" />
    
            <g transform="translate(352.80,352.80)">
              <circle r="19" fill="#ffffff" stroke="#111111" stroke-width="4" />
              <text text-anchor="middle" dominant-baseline="central" font-family="Helvetica, Arial, sans-serif"
                font-size="18" font-weight="700" fill="#111111">1</text>
            </g>
            
            <g transform="translate(167.20,215.53)">
              <circle r="19" fill="#ffffff" stroke="#111111" stroke-width="4" />
              <text text-anchor="middle" dominant-baseline="central" font-family="Helvetica, Arial, sans-serif"
                font-size="18" font-weight="700" fill="#111111">2</text>
            </g>
            
  </g>
</svg>
