<svg xmlns="http://www.w3.org/2000/svg" width="520" height="520" viewBox="0 0 520 520">
  <rect width="100%" height="100%" fill="#ffffff" />
  <g>
    <polyline points="544.81,-178.72 546.02,-172.27 553.84,-117.56 552.65,-103.88" fill="none" stroke="#bcbcbc" stroke-width="8" stroke-linecap="round" stroke-linejoin="round" /><polyline points="385.83,277.20 387.72,271.39 397.74,240.58 398.92,236.95 400.12,233.14 425.31,152.80 427.34,146.34 422.70,134.92" fill="none" stroke="#bcbcbc" stroke-width="8" stroke-linecap="round" stroke-linejoin="round" /><polyline points="211.81,205.75 211.40,201.14 219.64,155.01 220.79,149.24 221.65,146.22 223.92,134.52 226.47,120.20 229.25,107.59 232.00,95.01 233.73,91.47 234.87,89.29" fill="none" stroke="#bcbcbc" stroke-width="8" stroke-linecap="round" stroke-linejoin="round" /><polyline points="259.62,-119.62 257.66,-125.59 237.42,-187.32 236.43,-189.91" fill="none" stroke="#bcbcbc" stroke-width="8" stroke-linecap="round" stroke-linejoin="round" /><polyline points="155.75,423.65 156.36,417.76 156.60,415.05 158.81,390.68 161.22,369.22 161.78,364.21 162.31,358.20 162.36,357.69 163.73,345.74 164.91,333.59 166.21,321.87 167.08,312.74 167.45,307.11 167.77,301.90 168.35,296.04" fill="none" stroke="#bcbcbc" stroke-width="8" stroke-linecap="round" stroke-linejoin="round" /><polyline points="435.44,291.53 436.88,286.99 447.04,255.07 448.19,251.44 449.83,246.27 451.01,242.57 460.00,203.80" fill="none" stroke="#bcbcbc" stroke-width="8" stroke-linecap="round" stroke-linejoin="round" /><polyline points="395.96,-339.99 399.71,-339.41 503.07,-323.53" fill="none" stroke="#bcbcbc" stroke-width="8" stroke-linecap="round" stroke-linejoin="round" /><polyline points="130.61,284.00 119.85,283.50 113.29,283.20 109.73,283.03 106.60,282.89 82.24,281.75 48.35,280.18 32.20,277.89 26.80,277.12 22.11,276.29 -9.66,270.69 -14.10,269.90 -15.08,269.73 -20.57,268.79 -24.78,268.07 -51.70,265.69 -56.83,265.24 -58.71,265.07 -64.53,264.67 -75.92,263.88" fill="none" stroke="#bcbcbc" stroke-width="8" stroke-linecap="round" stroke-linejoin="round" /><polyline points="286.91,252.79 288.99,246.86 307.77,194.82 330.36,129.17 331.81,125.05 332.81,122.17 333.63,119.81" fill="none" stroke="#bcbcbc" stroke-width="8" stroke-linecap="round" stroke-linejoin="round" /><polyline points="-58.71,265.07 -59.19,261.73 -59.30,258.09 -58.59,250.77 -56.95,237.41 -55.86,232.92 -54.09,216.71 -53.77,213.09 -53.25,208.45 -52.87,205.00 -52.14,201.09 -50.80,190.57 -49.86,182.52 -48.49,179.23" fill="none" stroke="#bcbcbc" stroke-width="8" stroke-linecap="round" stroke-linejoin="round" /><polyline points="-77.93,175.12 -52.88,178.62 -48.49,179.23 -45.77,179.67 -34.55,181.45 -8.68,185.58 -4.24,186.32" fill="none" stroke="#bcbcbc" stroke-width="8" stroke-linecap="round" stroke-linejoin="round" /><polyline points="383.02,-153.42 383.18,-151.14 383.52,-148.84 384.33,-147.07 385.86,-145.10 388.67,-142.54 395.35,-138.48 446.85,-106.17 478.56,-63.65 502.52,-4.54 504.08,-0.63" fill="none" stroke="#bcbcbc" stroke-width="8" stroke-linecap="round" stroke-linejoin="round" /><polyline points="374.77,19.07 375.84,20.84 376.12,21.30 377.00,25.76 383.05,54.97 384.96,64.24 386.34,70.85 388.47,84.23 389.47,90.41 390.16,94.17 390.92,97.58 391.82,99.56 393.14,101.86 393.85,102.94 407.23,122.10 414.47,133.49 416.35,136.22" fill="none" stroke="#bcbcbc" stroke-width="8" stroke-linecap="round" stroke-linejoin="round" /><polyline points="-9.35,384.86 -8.64,380.48 -7.98,377.31 -7.80,376.89 1.10,355.71 6.78,341.95 8.50,337.59 10.33,332.97 12.31,329.00 12.63,328.23 15.35,321.66 17.45,315.86 19.25,310.53 20.39,306.76 21.67,302.11 23.15,295.87 24.27,290.81 25.61,283.75 25.89,282.17 26.80,277.12" fill="none" stroke="#bcbcbc" stroke-width="8" stroke-linecap="round" stroke-linejoin="round" /><polyline points="422.14,-206.44 450.54,-186.60 454.36,-185.78 457.16,-182.58" fill="none" stroke="#bcbcbc" stroke-width="8" stroke-linecap="round" stroke-linejoin="round" /><polyline points="302.90,-23.20 306.65,-21.76 322.94,-16.43 360.74,-1.93 362.86,0.18 363.86,1.76" fill="none" stroke="#bcbcbc" stroke-width="8" stroke-linecap="round" stroke-linejoin="round" /><polyline points="373.33,349.22 375.90,342.51 388.61,308.04 397.59,282.00 399.45,281.14" fill="none" stroke="#bcbcbc" stroke-width="8" stroke-linecap="round" stroke-linejoin="round" /><polyline points="193.72,305.51 195.72,301.08 195.92,300.64 199.35,289.13 204.97,270.20 206.41,265.35 207.53,261.58 207.68,259.39 207.45,254.53" fill="none" stroke="#bcbcbc" stroke-width="8" stroke-linecap="round" stroke-linejoin="round" /><polyline points="427.26,20.59 424.04,21.25 416.74,19.95 415.61,16.94 402.96,12.12 399.97,12.90 388.56,8.71 386.86,9.90" fill="none" stroke="#bcbcbc" stroke-width="8" stroke-linecap="round" stroke-linejoin="round" /><polyline points="408.48,-370.62 414.21,-369.22 417.39,-368.67 492.78,-355.60" fill="none" stroke="#bcbcbc" stroke-width="8" stroke-linecap="round" stroke-linejoin="round" /><polyline points="349.88,328.23 353.02,319.39 359.11,302.20 363.05,294.88 368.72,279.02 370.98,272.68" fill="none" stroke="#bcbcbc" stroke-width="8" stroke-linecap="round" stroke-linejoin="round" /><polyline points="-63.24,-14.93 -68.70,-15.18 -70.07,-13.52 -79.58,-1.96 -112.84,36.45 -117.52,41.85" fill="none" stroke="#bcbcbc" stroke-width="8" stroke-linecap="round" stroke-linejoin="round" /><polyline points="228.47,17.96 226.06,23.30 225.77,23.95 217.39,45.79 208.95,69.83 206.70,76.24 205.42,79.55" fill="none" stroke="#bcbcbc" stroke-width="8" stroke-linecap="round" stroke-linejoin="round" /><polyline points="351.33,-227.41 353.99,-223.80 355.89,-218.84 358.84,-211.72 363.59,-200.51 367.79,-190.45 372.62,-179.41 376.19,-170.90 376.72,-169.67 376.76,-169.60 379.64,-162.87 380.50,-160.95 381.32,-159.13 382.18,-157.43 382.83,-155.69 383.02,-153.42" fill="none" stroke="#bcbcbc" stroke-width="8" stroke-linecap="round" stroke-linejoin="round" /><polyline points="147.63,125.62 149.02,124.86 150.97,123.31 151.95,121.30 164.89,72.24 165.28,69.47 166.86,64.42" fill="none" stroke="#bcbcbc" stroke-width="8" stroke-linecap="round" stroke-linejoin="round" /><polyline points="600.10,48.84 601.94,54.67 603.23,60.79 600.71,84.11 597.80,101.65 596.22,107.63 596.07,108.17 594.68,111.40 592.79,114.82 588.36,120.42 590.50,131.37 583.57,154.87 579.74,167.84 571.91,189.08 560.43,214.94 546.43,239.73 542.05,247.78 534.14,261.02 502.54,305.86 495.62,315.19 468.81,350.22 453.42,367.73 431.89,389.61 429.90,389.81 425.04,393.79" fill="none" stroke="#bcbcbc" stroke-width="8" stroke-linecap="round" stroke-linejoin="round" /><polyline points="210.20,432.43 219.02,405.07 220.46,400.55 222.42,397.71 226.63,385.07 228.00,380.77 245.41,326.29 247.16,320.82 248.60,316.00 269.13,251.38" fill="none" stroke="#bcbcbc" stroke-width="8" stroke-linecap="round" stroke-linejoin="round" /><polyline points="416.83,-76.28 424.46,-84.61 426.71,-87.32 442.11,-109.14" fill="none" stroke="#bcbcbc" stroke-width="8" stroke-linecap="round" stroke-linejoin="round" /><polyline points="264.42,-72.98 285.42,-65.67 286.58,-63.79 292.54,-61.79 296.08,-60.58 313.01,-54.86" fill="none" stroke="#bcbcbc" stroke-width="8" stroke-linecap="round" stroke-linejoin="round" /><polyline points="447.45,-218.28 457.16,-182.58 468.41,-140.53 470.11,-137.03 470.38,-133.02 478.01,-118.79 498.58,-80.42 503.08,-73.79 504.38,-71.85 535.12,-14.38 549.25,-1.54 551.23,1.02 554.03,3.41 580.86,26.35 582.68,27.90 587.49,30.46" fill="none" stroke="#bcbcbc" stroke-width="8" stroke-linecap="round" stroke-linejoin="round" /><polyline points="343.12,438.23 410.02,399.37 421.93,393.28 425.04,393.79" fill="none" stroke="#bcbcbc" stroke-width="8" stroke-linecap="round" stroke-linejoin="round" /><polyline points="415.66,382.64 419.81,377.71 457.07,303.36 459.54,298.48 461.60,293.66 473.64,263.89 477.22,254.93 487.60,223.53 494.33,183.17 495.12,177.29" fill="none" stroke="#bcbcbc" stroke-width="8" stroke-linecap="round" stroke-linejoin="round" /><polyline points="386.90,-54.61 386.24,-53.94 385.35,-50.81 385.26,-50.50 381.21,-34.93 382.27,-30.86 381.39,-27.22 380.24,-22.45 377.28,-19.02 373.92,-5.42 369.96,-2.43 365.74,0.47 363.86,1.76" fill="none" stroke="#bcbcbc" stroke-width="8" stroke-linecap="round" stroke-linejoin="round" /><polyline points="228.47,17.96 230.19,13.56 240.53,-12.94 242.78,-18.72 244.64,-23.48 257.85,-57.32 263.80,-71.47 264.42,-72.98 269.05,-84.15 279.42,-109.90 283.21,-120.86 284.06,-123.38 285.20,-126.23" fill="none" stroke="#bcbcbc" stroke-width="8" stroke-linecap="round" stroke-linejoin="round" /><polyline points="344.16,-142.67 346.16,-136.72 411.77,-80.69 447.57,-49.54 501.05,-3.06 505.71,0.67 507.81,1.98 517.08,10.40 529.48,20.97 557.58,44.93 566.66,52.74 572.69,59.95" fill="none" stroke="#bcbcbc" stroke-width="8" stroke-linecap="round" stroke-linejoin="round" /><polyline points="452.64,-239.23 455.97,-241.37 475.68,-249.56 479.74,-253.82" fill="none" stroke="#bcbcbc" stroke-width="8" stroke-linecap="round" stroke-linejoin="round" /><polyline points="475.41,259.46 448.19,251.44 398.92,236.95" fill="none" stroke="#bcbcbc" stroke-width="8" stroke-linecap="round" stroke-linejoin="round" /><polyline points="387.55,-319.44 391.27,-316.88 512.42,-289.92" fill="none" stroke="#bcbcbc" stroke-width="8" stroke-linecap="round" stroke-linejoin="round" /><polyline points="537.20,79.40 530.94,65.47 517.04,32.34 516.01,29.70 513.63,23.66 504.67,0.87 504.11,-0.61" fill="none" stroke="#bcbcbc" stroke-width="8" stroke-linecap="round" stroke-linejoin="round" /><polyline points="351.33,-227.41 344.60,-229.33 339.66,-230.80 329.61,-233.78 324.51,-235.24 321.58,-236.05 317.77,-237.14" fill="none" stroke="#bcbcbc" stroke-width="8" stroke-linecap="round" stroke-linejoin="round" /><polyline points="175.95,-45.16 175.61,-46.27 175.30,-47.05 173.91,-50.50 168.54,-63.02 163.44,-75.73 162.34,-78.74 161.07,-82.19 160.16,-85.02 158.66,-89.27 158.50,-89.71 153.62,-101.75 144.65,-124.36 142.64,-125.51 141.21,-129.18 138.35,-139.11 133.45,-151.42 132.39,-154.22" fill="none" stroke="#bcbcbc" stroke-width="8" stroke-linecap="round" stroke-linejoin="round" /><polyline points="219.02,405.07 224.11,406.63 240.58,411.65 245.74,413.22" fill="none" stroke="#bcbcbc" stroke-width="8" stroke-linecap="round" stroke-linejoin="round" /><polyline points="526.62,-233.31 527.58,-237.19 527.19,-238.66 526.72,-240.44 523.71,-251.46 517.00,-274.75 513.47,-286.65 512.42,-289.92 503.07,-323.53 498.02,-341.66 492.78,-355.60 488.05,-368.17 483.34,-376.82 478.77,-381.38 443.63,-424.31 441.03,-427.37 439.31,-430.19" fill="none" stroke="#bcbcbc" stroke-width="8" stroke-linecap="round" stroke-linejoin="round" /><polyline points="383.02,-153.42 381.21,-152.72 377.86,-151.80 377.52,-151.71 363.53,-148.13 347.44,-143.60 344.16,-142.67 342.70,-142.21 338.83,-140.97 335.53,-140.05 321.10,-136.03 297.37,-129.29 288.53,-127.06 285.20,-126.23 269.38,-122.34 259.62,-119.62 238.93,-113.85 218.48,-108.08 216.12,-107.43 199.03,-102.69 191.15,-100.50 187.17,-98.62 179.64,-94.88 164.67,-87.29 163.63,-86.76 160.16,-85.02 158.04,-83.96 155.08,-82.41 144.57,-76.90 125.41,-66.16 109.41,-57.78 107.12,-56.58 104.07,-56.39 102.23,-55.41 101.86,-55.21 84.51,-45.70 80.87,-45.72 76.70,-43.54 75.24,-42.77 74.01,-42.13 71.11,-40.61 68.82,-35.40 59.00,-30.14 55.88,-28.46 52.50,-26.63 38.83,-19.19 31.76,-15.34 28.20,-14.32" fill="none" stroke="#bcbcbc" stroke-width="8" stroke-linecap="round" stroke-linejoin="round" /><polyline points="579.74,167.84 572.45,168.51 549.66,170.60 548.63,170.69 547.18,170.83 544.83,171.04 522.74,173.07 515.06,172.36 506.11,174.60 498.94,176.36 495.12,177.29 485.64,177.65 477.43,177.23 473.25,176.79 469.68,175.71 467.06,174.26 457.29,167.36 433.56,151.05 431.32,149.54 429.04,147.99 427.34,146.34" fill="none" stroke="#bcbcbc" stroke-width="8" stroke-linecap="round" stroke-linejoin="round" /><polyline points="42.17,-107.35 50.79,-90.49 52.09,-85.67 59.35,-71.83 62.34,-67.87 74.47,-44.28 75.24,-42.77" fill="none" stroke="#bcbcbc" stroke-width="8" stroke-linecap="round" stroke-linejoin="round" /><polyline points="306.10,42.58 304.81,46.12 304.44,47.22 302.76,52.32 292.11,82.04 286.82,96.81 286.64,97.31 284.51,101.90 283.30,104.62" fill="none" stroke="#bcbcbc" stroke-width="8" stroke-linecap="round" stroke-linejoin="round" /><polyline points="447.45,-218.28 446.27,-220.81 443.16,-221.21 433.12,-218.91 431.08,-219.18 429.48,-221.32 426.64,-234.39 442.03,-236.77 449.16,-238.87 452.64,-239.23 456.39,-225.89" fill="none" stroke="#bcbcbc" stroke-width="8" stroke-linecap="round" stroke-linejoin="round" /><polyline points="503.08,-73.79 507.04,-76.02 526.96,-88.01 532.28,-91.18 541.60,-96.74 556.92,-106.65 560.50,-109.22 587.38,-125.89" fill="none" stroke="#bcbcbc" stroke-width="8" stroke-linecap="round" stroke-linejoin="round" /><polyline points="597.05,4.97 590.25,2.95 586.30,-0.29 571.20,-13.36 570.69,-13.82 567.04,-17.07 564.89,-20.88 526.96,-88.01" fill="none" stroke="#bcbcbc" stroke-width="8" stroke-linecap="round" stroke-linejoin="round" /><polyline points="168.95,-0.35 228.47,17.96 233.33,19.50 277.74,33.58 278.67,33.88 285.32,35.99 288.59,37.02 292.84,38.19 301.61,41.15 306.10,42.58 310.13,43.86 343.18,54.34 378.08,65.30 380.96,66.21 384.96,64.24" fill="none" stroke="#bcbcbc" stroke-width="8" stroke-linecap="round" stroke-linejoin="round" /><polyline points="343.95,-294.15 369.73,-317.84 374.10,-321.85" fill="none" stroke="#bcbcbc" stroke-width="8" stroke-linecap="round" stroke-linejoin="round" /><polyline points="-87.76,88.06 6.84,98.20" fill="none" stroke="#bcbcbc" stroke-width="8" stroke-linecap="round" stroke-linejoin="round" /><polyline points="197.62,-175.96 217.50,-183.07 238.01,-190.48 250.75,-195.44 289.66,-209.58 300.95,-213.49 303.31,-214.31 306.14,-215.28 309.31,-216.37 309.70,-216.50 316.11,-219.08 318.90,-220.20" fill="none" stroke="#bcbcbc" stroke-width="8" stroke-linecap="round" stroke-linejoin="round" /><polyline points="331.16,305.14 349.88,328.23 361.34,339.76 366.30,343.33 373.33,349.22 379.92,354.76 385.59,360.28 385.73,363.10" fill="none" stroke="#bcbcbc" stroke-width="8" stroke-linecap="round" stroke-linejoin="round" /><polyline points="351.33,-227.41 358.66,-245.80 370.54,-276.07 387.55,-319.44 395.96,-339.99 408.48,-370.62 418.76,-395.72 420.59,-399.05 429.63,-413.81 430.21,-414.77 433.52,-421.27 439.31,-430.19 442.55,-435.17 447.13,-442.22" fill="none" stroke="#bcbcbc" stroke-width="8" stroke-linecap="round" stroke-linejoin="round" /><polyline points="178.25,264.19 177.05,265.15 176.26,266.29 174.64,271.06 173.52,274.51 168.35,289.96 167.64,292.19 167.20,293.57 162.45,292.21 150.90,288.34 139.46,284.50 130.61,284.00" fill="none" stroke="#bcbcbc" stroke-width="8" stroke-linecap="round" stroke-linejoin="round" /><polyline points="-47.96,371.72 -29.10,323.01 -27.00,317.71 -25.11,312.60 -22.84,306.43 -20.05,296.72 -17.14,284.66 -15.95,276.01 -15.08,269.73 -13.86,265.10 -9.42,230.27 -4.24,186.32 -1.55,165.36 1.44,140.75 6.84,98.20 7.69,90.96 13.15,46.46 13.15,43.98 14.36,30.78 17.84,2.89 18.71,-1.97 19.62,-4.70 21.04,-7.71 22.42,-10.04 25.48,-13.34 28.21,-14.28" fill="none" stroke="#bcbcbc" stroke-width="8" stroke-linecap="round" stroke-linejoin="round" /><polyline points="363.86,1.76 364.89,3.39 368.35,8.79 373.53,17.09 374.77,19.07 376.84,17.51 386.86,9.90" fill="none" stroke="#bcbcbc" stroke-width="8" stroke-linecap="round" stroke-linejoin="round" /><polyline points="370.54,-276.07 472.46,-257.65 483.17,-252.01 523.10,-232.22 526.62,-233.31" fill="none" stroke="#bcbcbc" stroke-width="8" stroke-linecap="round" stroke-linejoin="round" /><polyline points="175.95,-45.16 174.14,-42.52 157.88,-34.59 145.94,-19.41 133.05,-11.43 124.24,-4.78 115.83,2.08 111.52,6.01 103.90,15.67 95.39,27.87 93.99,30.13" fill="none" stroke="#bcbcbc" stroke-width="8" stroke-linecap="round" stroke-linejoin="round" /><polyline points="193.14,-34.27 192.44,-32.71 190.90,-30.45 187.98,-26.87 170.81,-5.17 161.72,19.30 115.85,2.06" fill="none" stroke="#bcbcbc" stroke-width="8" stroke-linecap="round" stroke-linejoin="round" /><polyline points="124.24,-4.78 122.46,-10.15 114.79,-33.39 111.81,-37.98 106.82,-52.94 106.39,-54.23 107.12,-56.58 105.93,-60.39 81.95,-136.96" fill="none" stroke="#bcbcbc" stroke-width="8" stroke-linecap="round" stroke-linejoin="round" /><polyline points="405.27,-422.57 424.22,-422.07 425.10,-422.04 428.74,-421.94 433.52,-421.27" fill="none" stroke="#bcbcbc" stroke-width="8" stroke-linecap="round" stroke-linejoin="round" /><polyline points="307.77,194.82 301.30,194.74 246.50,202.09 242.55,202.51 238.03,202.99 211.81,205.75 176.48,209.48 157.75,211.46 147.38,212.55 138.97,213.57 134.65,214.10 129.79,214.69 106.28,217.55 100.65,218.23 83.29,220.13 -9.42,230.27" fill="none" stroke="#bcbcbc" stroke-width="8" stroke-linecap="round" stroke-linejoin="round" /><polyline points="226.63,385.07 221.78,383.50 199.10,376.21 194.52,374.73 190.54,373.45 166.52,365.73 161.78,364.21 155.52,362.19 117.27,349.89 112.97,348.50" fill="none" stroke="#bcbcbc" stroke-width="8" stroke-linecap="round" stroke-linejoin="round" /><polyline points="321.45,-73.97 334.64,-69.86 382.87,-54.97 383.32,-54.83 386.90,-54.61" fill="none" stroke="#bcbcbc" stroke-width="8" stroke-linecap="round" stroke-linejoin="round" /><polyline points="457.16,-182.58 522.77,-181.43" fill="none" stroke="#bcbcbc" stroke-width="8" stroke-linecap="round" stroke-linejoin="round" /><polyline points="425.04,393.79 415.66,382.64 411.72,378.06 408.34,374.91 403.84,371.54 394.64,366.02 385.73,363.10 367.62,357.50 352.80,352.80 361.34,339.76" fill="none" stroke="#bcbcbc" stroke-width="8" stroke-linecap="round" stroke-linejoin="round" /><polyline points="331.16,305.14 318.10,289.02 315.62,285.95 302.46,267.83 299.49,262.30 300.20,255.71 304.17,255.67 313.95,257.55 328.84,260.42" fill="none" stroke="#bcbcbc" stroke-width="8" stroke-linecap="round" stroke-linejoin="round" /><polyline points="160.31,175.99 162.72,181.17 176.48,209.48 196.93,251.58 199.54,256.95" fill="none" stroke="#bcbcbc" stroke-width="8" stroke-linecap="round" stroke-linejoin="round" /><polyline points="-59.99,304.23 -55.07,306.24 -32.03,315.66 -27.00,317.71 -21.71,319.88 5.42,330.97 10.33,332.97" fill="none" stroke="#bcbcbc" stroke-width="8" stroke-linecap="round" stroke-linejoin="round" /><polyline points="171.63,134.01 219.64,155.01" fill="none" stroke="#bcbcbc" stroke-width="8" stroke-linecap="round" stroke-linejoin="round" /><polyline points="386.90,-54.61 394.21,-54.22 394.67,-53.81 397.96,-50.90 402.78,-46.59 403.67,-44.86 420.29,-30.31 421.51,-27.99 433.20,-17.68 436.14,-16.78 445.23,-8.82 447.27,-7.89 460.98,3.74 464.03,6.45 465.71,9.13" fill="none" stroke="#bcbcbc" stroke-width="8" stroke-linecap="round" stroke-linejoin="round" /><polyline points="-73.54,134.06 1.44,140.75" fill="none" stroke="#bcbcbc" stroke-width="8" stroke-linecap="round" stroke-linejoin="round" /><polyline points="93.87,413.22 96.19,408.27 96.79,406.07 100.05,394.07 111.84,352.49 112.97,348.50 114.16,344.14 119.51,324.60 128.53,291.61 130.61,284.00" fill="none" stroke="#bcbcbc" stroke-width="8" stroke-linecap="round" stroke-linejoin="round" /><polyline points="160.31,175.99 171.63,134.01 147.63,125.62 141.35,129.33 138.48,131.51 136.36,134.37 134.87,138.16 129.35,158.56 133.80,160.83 138.30,161.92 148.25,164.51 155.69,166.88 160.31,175.99" fill="none" stroke="#bcbcbc" stroke-width="8" stroke-linecap="round" stroke-linejoin="round" /><polyline points="129.35,158.56 124.09,157.83 1.44,140.75" fill="none" stroke="#bcbcbc" stroke-width="8" stroke-linecap="round" stroke-linejoin="round" /><polyline points="328.84,260.42 340.21,262.90 370.98,272.68 379.58,275.40 400.00,281.30 420.58,287.23 435.80,291.63 460.16,298.66 465.19,300.12 477.48,304.24 497.72,309.62 499.50,309.96" fill="none" stroke="#bcbcbc" stroke-width="8" stroke-linecap="round" stroke-linejoin="round" /><polyline points="343.27,438.14 339.12,439.19 334.63,451.69 327.67,449.72 296.02,438.93 292.21,438.12 283.74,437.51 245.42,437.67 236.97,436.59 217.89,433.67 210.20,432.43 155.61,423.62 134.48,420.25 94.17,413.27 87.66,411.98 -3.31,386.56 -9.05,384.95 -47.96,371.72 -57.53,368.33 -81.45,358.42 -95.08,353.26" fill="none" stroke="#bcbcbc" stroke-width="8" stroke-linecap="round" stroke-linejoin="round" /><polyline points="426.64,-234.39 422.70,-235.20 370.12,-228.98 351.33,-227.41" fill="none" stroke="#bcbcbc" stroke-width="8" stroke-linecap="round" stroke-linejoin="round" /><polyline points="328.84,260.42 330.68,257.34 341.71,229.00 354.04,186.16 357.19,176.94 358.87,174.42 370.77,136.22 371.36,131.66 371.81,128.68" fill="none" stroke="#bcbcbc" stroke-width="8" stroke-linecap="round" stroke-linejoin="round" /><polyline points="383.02,-153.42 384.28,-153.90 385.98,-155.25 388.57,-158.27 422.14,-206.44 431.08,-219.18" fill="none" stroke="#bcbcbc" stroke-width="8" stroke-linecap="round" stroke-linejoin="round" /><polyline points="532.43,23.51 533.12,21.53 550.00,1.68 551.23,1.02 554.17,-2.99 563.98,-14.26 567.04,-17.07" fill="none" stroke="#bcbcbc" stroke-width="8" stroke-linecap="round" stroke-linejoin="round" /><polyline points="547.18,170.83 546.95,168.17 546.77,166.11 545.88,162.19 544.82,159.62 543.49,152.89 543.37,150.45 542.47,145.00 538.45,142.90 535.24,144.13 529.50,145.51 524.95,146.22 520.59,147.27 514.57,148.64 511.82,149.27" fill="none" stroke="#bcbcbc" stroke-width="8" stroke-linecap="round" stroke-linejoin="round" /><polyline points="103.83,73.34 116.10,44.57 116.78,42.70" fill="none" stroke="#bcbcbc" stroke-width="8" stroke-linecap="round" stroke-linejoin="round" /><polyline points="427.26,20.59 433.18,18.30 436.27,17.10 438.66,14.68 448.53,12.25 451.84,13.09 458.97,11.25 464.42,9.85 465.71,9.13 470.99,7.83 497.99,1.22 504.11,-0.61" fill="none" stroke="#bcbcbc" stroke-width="8" stroke-linecap="round" stroke-linejoin="round" /><polyline points="178.25,264.19 190.99,259.56 195.25,258.26 199.54,256.95 207.45,254.53 213.61,253.65 234.64,251.35 238.86,251.12 257.67,251.28 269.13,251.38 273.45,251.16 280.35,251.85 282.51,252.16 286.91,252.79 300.20,255.71" fill="none" stroke="#bcbcbc" stroke-width="8" stroke-linecap="round" stroke-linejoin="round" /><polyline points="238.93,-113.85 236.82,-120.98 228.98,-147.47 219.47,-177.68 217.50,-183.07 215.51,-188.12 212.98,-195.41" fill="none" stroke="#bcbcbc" stroke-width="8" stroke-linecap="round" stroke-linejoin="round" /><polyline points="216.14,313.29 217.81,308.01 234.74,254.63 234.64,251.35" fill="none" stroke="#bcbcbc" stroke-width="8" stroke-linecap="round" stroke-linejoin="round" /><polyline points="238.86,251.12 242.21,206.17 242.55,202.51 243.06,198.24 243.07,198.05 243.29,192.84 244.41,178.69 245.04,172.10 245.90,164.62 246.69,159.23 247.39,155.84 248.28,153.29 250.02,147.52 253.62,135.52 258.19,120.03 263.23,104.19 264.26,100.96 265.08,98.62" fill="none" stroke="#bcbcbc" stroke-width="8" stroke-linecap="round" stroke-linejoin="round" /><polyline points="129.35,158.56 128.46,162.55 128.61,163.82 134.07,209.28 134.65,214.10 134.40,219.05 132.97,247.33 132.37,259.15 132.06,265.24 131.51,276.10 131.23,281.76 130.61,284.00" fill="none" stroke="#bcbcbc" stroke-width="8" stroke-linecap="round" stroke-linejoin="round" /><polyline points="103.83,73.34 83.97,67.43 81.45,65.82 69.09,62.22 65.61,62.25 50.09,57.57 47.58,55.72 33.45,51.44 16.11,46.72 16.02,46.71 13.15,46.46" fill="none" stroke="#bcbcbc" stroke-width="8" stroke-linecap="round" stroke-linejoin="round" /><polyline points="465.71,9.13 466.40,10.03 469.28,14.32 474.61,22.26 479.62,27.27 489.25,38.09 487.62,48.08 486.80,51.83 485.65,53.41 488.06,56.98 491.80,64.67 499.26,79.07 502.94,86.17 505.23,92.54 506.26,95.50" fill="none" stroke="#bcbcbc" stroke-width="8" stroke-linecap="round" stroke-linejoin="round" /><polyline points="516.01,29.70 513.24,30.57 495.00,36.24 492.39,37.08 489.25,38.09" fill="none" stroke="#bcbcbc" stroke-width="8" stroke-linecap="round" stroke-linejoin="round" /><polyline points="384.96,64.24 390.67,62.40 432.06,41.26 437.60,38.56 457.11,32.92 476.02,27.60 479.62,27.27" fill="none" stroke="#bcbcbc" stroke-width="8" stroke-linecap="round" stroke-linejoin="round" /><polyline points="389.47,90.41 437.19,68.20 439.20,66.87 443.87,65.52 475.67,56.27 480.49,54.42 485.65,53.41" fill="none" stroke="#bcbcbc" stroke-width="8" stroke-linecap="round" stroke-linejoin="round" /><polyline points="379.74,-375.09 399.05,-372.70 400.99,-372.46 408.48,-370.62" fill="none" stroke="#bcbcbc" stroke-width="8" stroke-linecap="round" stroke-linejoin="round" /><polyline points="544.81,-178.72 548.24,-179.43 561.04,-173.16 562.72,-171.49 586.75,-130.82 587.38,-125.89 590.51,-123.29 590.01,-121.49 589.93,-118.56 590.37,-114.46 596.73,-88.31 597.29,-70.20 598.19,-41.28 599.68,-2.35 593.59,14.61 589.66,24.95 583.93,39.52 582.27,43.74 581.19,44.92 579.46,56.19" fill="none" stroke="#bcbcbc" stroke-width="8" stroke-linecap="round" stroke-linejoin="round" /><polyline points="589.23,124.89 583.39,122.35 568.79,112.16 549.52,98.62 538.92,90.05 531.78,82.40" fill="none" stroke="#bcbcbc" stroke-width="8" stroke-linecap="round" stroke-linejoin="round" /><polyline points="439.20,66.87 437.81,61.88 433.66,46.99 432.06,41.26 429.75,36.98 429.54,36.19 428.17,31.15 429.76,28.92 427.85,22.56 427.26,20.59" fill="none" stroke="#bcbcbc" stroke-width="8" stroke-linecap="round" stroke-linejoin="round" /><polyline points="432.26,-115.34 436.21,-117.20 457.78,-129.10 470.11,-137.03 478.81,-142.96 480.73,-144.39 487.73,-149.25 494.98,-154.61 499.58,-157.95 505.05,-161.96 524.08,-170.54 526.55,-170.41 530.16,-172.12 544.81,-178.72" fill="none" stroke="#bcbcbc" stroke-width="8" stroke-linecap="round" stroke-linejoin="round" /><polyline points="193.14,-34.27 196.26,-33.01 198.31,-32.38 236.89,-20.53 242.78,-18.72" fill="none" stroke="#bcbcbc" stroke-width="8" stroke-linecap="round" stroke-linejoin="round" /><polyline points="-82.42,52.47 -109.98,44.13" fill="none" stroke="#bcbcbc" stroke-width="8" stroke-linecap="round" stroke-linejoin="round" /><polyline points="362.80,-336.16 369.63,-327.51 370.65,-326.21 374.10,-321.85 378.03,-321.38 386.11,-320.44 387.55,-319.44" fill="none" stroke="#bcbcbc" stroke-width="8" stroke-linecap="round" stroke-linejoin="round" /><polyline points="600.10,48.84 589.27,50.86 578.17,56.90 567.87,62.62 558.14,67.49 546.38,73.88 537.86,79.05 521.03,88.07 455.32,121.13 438.28,128.63 427.03,133.50 421.45,135.32 416.83,136.19 409.28,136.64 398.53,135.12 371.71,128.68 333.63,119.81 283.54,104.70 265.08,98.62 234.87,89.29 205.97,79.76 163.58,63.13 142.39,54.01 116.83,42.65 74.45,19.43 64.51,12.84 39.36,-2.98 28.81,-13.52 13.00,-34.00 -13.06,-60.87 -23.31,-69.89" fill="none" stroke="#bcbcbc" stroke-width="8" stroke-linecap="round" stroke-linejoin="round" /><polyline points="394.64,366.02 395.08,363.55 396.68,359.50 411.71,324.33 417.39,311.15 424.08,294.72 425.71,288.71" fill="none" stroke="#bcbcbc" stroke-width="8" stroke-linecap="round" stroke-linejoin="round" /><polyline points="106.28,217.55 89.21,209.28 50.36,190.48 2.70,167.42 -1.55,165.36" fill="none" stroke="#bcbcbc" stroke-width="8" stroke-linecap="round" stroke-linejoin="round" /><polyline points="386.90,-54.61 391.21,-59.02 402.67,-70.75 411.77,-80.69" fill="none" stroke="#bcbcbc" stroke-width="8" stroke-linecap="round" stroke-linejoin="round" /><polyline points="55.88,-28.46 51.14,-34.73 28.94,-64.12 -2.74,-89.75" fill="none" stroke="#bcbcbc" stroke-width="8" stroke-linecap="round" stroke-linejoin="round" /><polyline points="-81.62,358.35 -77.29,348.07 -63.51,313.73 -61.84,309.23 -59.99,304.23 -59.28,302.42 -59.10,299.60 -57.34,272.90 -56.83,265.24" fill="none" stroke="#bcbcbc" stroke-width="8" stroke-linecap="round" stroke-linejoin="round" /><polyline points="-91.02,82.30 -82.42,52.47 -71.07,13.14 -69.67,8.27 -68.10,2.74 -64.61,-9.65 -64.24,-10.95 -63.24,-14.93 -61.64,-19.44 -61.26,-20.53 -59.24,-25.52 -55.28,-34.26 -54.09,-36.77" fill="none" stroke="#bcbcbc" stroke-width="8" stroke-linecap="round" stroke-linejoin="round" /><polyline points="-69.67,8.27 -52.26,12.72 -15.40,22.19 5.60,28.73 14.36,30.78" fill="none" stroke="#bcbcbc" stroke-width="8" stroke-linecap="round" stroke-linejoin="round" /><polyline points="288.53,-127.06 289.12,-130.68 289.71,-134.44 292.26,-147.01 298.64,-176.29 303.88,-202.47 304.84,-207.90 306.14,-215.28 306.14,-215.28" fill="none" stroke="#bcbcbc" stroke-width="8" stroke-linecap="round" stroke-linejoin="round" /><polyline points="237.00,436.60 244.77,416.78 245.74,413.22 276.57,334.96 278.74,329.31 280.49,324.52 298.92,270.93 302.46,267.83" fill="none" stroke="#bcbcbc" stroke-width="8" stroke-linecap="round" stroke-linejoin="round" /><polyline points="342.70,-142.21 342.69,-142.22 341.60,-147.95 341.43,-148.64 338.77,-159.48 338.77,-159.51 336.95,-166.85 329.26,-193.22 328.29,-196.04 323.09,-210.17 321.40,-214.39 320.31,-217.11 318.90,-220.19 318.90,-220.20 318.90,-220.21 317.87,-231.57 317.77,-237.14" fill="none" stroke="#bcbcbc" stroke-width="8" stroke-linecap="round" stroke-linejoin="round" /><polyline points="331.16,305.14 329.18,307.27 326.24,310.78 317.93,334.20 315.52,340.98" fill="none" stroke="#bcbcbc" stroke-width="8" stroke-linecap="round" stroke-linejoin="round" /><polyline points="193.14,-34.27 194.28,-37.35 194.53,-38.06 199.93,-53.13 201.95,-59.47 218.48,-108.08" fill="none" stroke="#bcbcbc" stroke-width="8" stroke-linecap="round" stroke-linejoin="round" /><polyline points="278.67,33.88 280.36,29.39 284.92,17.26 286.86,12.13 288.16,8.66 291.83,-1.08 294.25,-7.51 294.58,-8.38 300.44,-23.96 302.90,-23.20 304.23,-26.82 306.58,-33.22 306.13,-36.12 312.37,-53.12 313.01,-54.86 314.19,-55.95 315.19,-56.86 321.45,-73.97 322.35,-78.65 331.33,-103.60 333.46,-105.26 337.78,-117.49 337.01,-119.36 340.79,-130.78 338.83,-140.97" fill="none" stroke="#bcbcbc" stroke-width="8" stroke-linecap="round" stroke-linejoin="round" /><polyline points="439.31,-430.19 436.79,-434.32 423.57,-456.01" fill="none" stroke="#bcbcbc" stroke-width="8" stroke-linecap="round" stroke-linejoin="round" /><polyline points="480.73,-144.39 541.41,-105.37 541.43,-105.35 541.43,-105.34 552.65,-103.88" fill="none" stroke="#bcbcbc" stroke-width="8" stroke-linecap="round" stroke-linejoin="round" /><polyline points="456.39,-225.89 520.96,-193.49 522.90,-192.04 522.77,-181.43 524.08,-170.54" fill="none" stroke="#bcbcbc" stroke-width="8" stroke-linecap="round" stroke-linejoin="round" /><polyline points="333.30,346.62 330.98,353.70 321.57,382.39 305.57,430.70 304.44,434.13 303.29,437.60 302.97,441.30" fill="none" stroke="#bcbcbc" stroke-width="8" stroke-linecap="round" stroke-linejoin="round" /><polyline points="515.06,172.36 515.44,168.76 515.53,165.40 515.50,165.28 513.21,155.40 512.27,151.26 511.82,149.27 511.36,147.23 508.85,136.17 503.94,114.06 500.37,100.77 499.87,98.72" fill="none" stroke="#bcbcbc" stroke-width="8" stroke-linecap="round" stroke-linejoin="round" /><polyline points="194.52,374.73 196.12,370.18 214.10,319.09 216.14,313.29" fill="none" stroke="#bcbcbc" stroke-width="8" stroke-linecap="round" stroke-linejoin="round" /><polyline points="598.19,-41.28 592.90,-42.77 556.98,-97.88 552.65,-103.88" fill="none" stroke="#bcbcbc" stroke-width="8" stroke-linecap="round" stroke-linejoin="round" /><polyline points="7.69,90.96 138.61,122.32 147.63,125.62" fill="none" stroke="#bcbcbc" stroke-width="8" stroke-linecap="round" stroke-linejoin="round" /><polyline points="420.59,-399.05 471.59,-380.16 478.77,-381.38" fill="none" stroke="#bcbcbc" stroke-width="8" stroke-linecap="round" stroke-linejoin="round" />
    <polyline points="352.80,352.80 347.06,350.98 337.75,348.03 333.30,346.62 328.08,344.96 321.49,342.87 315.52,340.98 309.63,339.11 283.34,330.77 278.74,329.31 273.02,327.50 271.76,327.10 256.72,323.13 252.48,322.10 247.16,320.82 241.59,319.47 221.52,314.60 216.14,313.29 210.36,311.29 198.27,307.09 193.72,305.51 189.65,304.19 170.73,297.46 168.35,296.04 167.20,293.57" fill="none" stroke="#ffffff" stroke-width="16" stroke-linecap="round" stroke-linejoin="round" />
    <polyline points="352.80,352.80 347.06,350.98 337.75,348.03 333.30,346.62 328.08,344.96 321.49,342.87 315.52,340.98 309.63,339.11 283.34,330.77 278.74,329.31 273.02,327.50 271.76,327.10 256.72,323.13 252.48,322.10 247.16,320.82 241.59,319.47 221.52,314.60 216.14,313.29 210.36,311.29 198.27,307.09 193.72,305.51 189.65,304.19 170.73,297.46 168.35,296.04 167.20,293.57" fill="none" stroke="#111111" stroke-width="9" stroke-linecap="round" stroke-linejoin="round" />
    
            <g transform="translate(352.80,352.80)">
              <circle r="19" fill="#ffffff" stroke="#111111" stroke-width="4" />
              <text text-anchor="middle" dominant-baseline="central" font-family="Helvetica, Arial, sans-serif"
                font-size="18" font-weight="700" fill="#111111">1</text>
            </g>
            
            <g transform="translate(167.20,293.57)">
              <circle r="19" fill="#ffffff" stroke="#111111" stroke-width="4" />
              <text text-anchor="middle" dominant-baseline="central" font-family="Helvetica, Arial, sans-serif"
                font-size="18" font-weight="700" fill="#111111">2</text>
            </g>
            
  </g>
</svg>
