<svg xmlns="http://www.w3.org/2000/svg" width="520" height="520" viewBox="0 0 520 520">
  <rect width="100%" height="100%" fill="#ffffff" />
  <g>
    <polyline points="638.48,-631.97 643.34,-606.12 674.70,-386.74 669.91,-331.90" fill="none" stroke="#bcbcbc" stroke-width="8" stroke-linecap="round" stroke-linejoin="round" /><polyline points="1.08,1196.17 8.66,1172.86 48.84,1049.31 53.57,1034.76 58.36,1019.47 159.37,697.35 167.49,671.45 148.89,625.63" fill="none" stroke="#bcbcbc" stroke-width="8" stroke-linecap="round" stroke-linejoin="round" /><polyline points="-696.64,909.66 -698.28,891.17 -665.25,706.21 -660.62,683.07 -657.16,670.95 -648.07,624.04 -637.86,566.64 -626.73,516.08 -615.69,465.63 -608.74,451.40 -604.19,442.68" fill="none" stroke="#bcbcbc" stroke-width="8" stroke-linecap="round" stroke-linejoin="round" /><polyline points="-504.96,-395.02 -512.81,-418.96 -593.97,-666.47 -597.93,-676.85" fill="none" stroke="#bcbcbc" stroke-width="8" stroke-linecap="round" stroke-linejoin="round" /><polyline points="-921.38,1783.36 -918.96,1759.75 -917.97,1748.91 -909.14,1651.18 -899.47,1565.13 -897.21,1545.04 -895.11,1520.93 -894.88,1518.91 -889.39,1470.98 -884.67,1422.27 -879.46,1375.25 -875.95,1338.66 -874.49,1316.07 -873.20,1295.21 -870.89,1271.71" fill="none" stroke="#bcbcbc" stroke-width="8" stroke-linecap="round" stroke-linejoin="round" /><polyline points="199.97,1253.60 205.76,1235.42 246.48,1107.41 251.11,1092.86 257.68,1072.14 262.40,1057.29 298.44,901.83" fill="none" stroke="#bcbcbc" stroke-width="8" stroke-linecap="round" stroke-linejoin="round" /><polyline points="41.68,-1278.62 56.71,-1276.31 471.12,-1212.63" fill="none" stroke="#bcbcbc" stroke-width="8" stroke-linecap="round" stroke-linejoin="round" /><polyline points="-1022.19,1223.43 -1065.33,1221.42 -1091.63,1220.20 -1105.92,1219.53 -1118.45,1218.95 -1216.13,1214.41 -1351.99,1208.09 -1416.74,1198.91 -1438.41,1195.83 -1457.22,1192.52 -1584.58,1170.04 -1602.38,1166.89 -1606.33,1166.22 -1628.32,1162.45 -1645.22,1159.55 -1753.14,1150.01 -1773.70,1148.20 -1781.24,1147.53 -1804.57,1145.91 -1850.26,1142.75" fill="none" stroke="#bcbcbc" stroke-width="8" stroke-linecap="round" stroke-linejoin="round" /><polyline points="-395.54,1098.29 -387.18,1074.51 -311.89,865.81 -221.33,602.57 -215.52,586.06 -211.48,574.53 -208.20,565.06" fill="none" stroke="#bcbcbc" stroke-width="8" stroke-linecap="round" stroke-linejoin="round" /><polyline points="-1781.24,1147.53 -1783.16,1134.11 -1783.61,1119.54 -1780.76,1090.19 -1774.20,1036.60 -1769.83,1018.61 -1762.73,953.58 -1761.44,939.10 -1759.36,920.48 -1757.82,906.65 -1754.91,890.97 -1749.52,848.79 -1745.77,816.53 -1740.27,803.33" fill="none" stroke="#bcbcbc" stroke-width="8" stroke-linecap="round" stroke-linejoin="round" /><polyline points="-1858.29,786.84 -1757.87,800.87 -1740.27,803.33 -1729.37,805.07 -1684.35,812.24 -1580.64,828.76 -1562.84,831.73" fill="none" stroke="#bcbcbc" stroke-width="8" stroke-linecap="round" stroke-linejoin="round" /><polyline points="-10.19,-530.51 -9.53,-521.39 -8.18,-512.14 -4.92,-505.06 1.18,-497.17 12.48,-486.89 39.24,-470.61 245.71,-341.08 372.87,-170.59 468.92,66.45 475.19,82.11" fill="none" stroke="#bcbcbc" stroke-width="8" stroke-linecap="round" stroke-linejoin="round" /><polyline points="-43.25,161.13 -38.97,168.21 -37.86,170.05 -34.31,187.93 -10.09,305.07 -2.40,342.26 3.10,368.74 11.68,422.41 15.68,447.16 18.45,462.26 21.47,475.90 25.09,483.86 30.39,493.07 33.23,497.42 86.87,574.22 115.89,619.92 123.46,630.84" fill="none" stroke="#bcbcbc" stroke-width="8" stroke-linecap="round" stroke-linejoin="round" /><polyline points="-1583.35,1627.85 -1580.50,1610.28 -1577.85,1597.56 -1577.14,1595.88 -1541.43,1510.98 -1518.68,1455.80 -1511.76,1438.31 -1504.44,1419.79 -1496.49,1403.87 -1495.20,1400.76 -1484.31,1374.44 -1475.90,1351.16 -1468.68,1329.79 -1464.09,1314.69 -1458.95,1296.04 -1453.03,1271.03 -1448.54,1250.73 -1443.16,1222.41 -1442.03,1216.09 -1438.41,1195.83" fill="none" stroke="#bcbcbc" stroke-width="8" stroke-linecap="round" stroke-linejoin="round" /><polyline points="146.65,-743.11 260.50,-663.56 275.84,-660.30 287.07,-647.46" fill="none" stroke="#bcbcbc" stroke-width="8" stroke-linecap="round" stroke-linejoin="round" /><polyline points="-331.43,-8.38 -316.38,-2.59 -251.05,18.78 -99.52,76.90 -91.02,85.37 -87.03,91.70" fill="none" stroke="#bcbcbc" stroke-width="8" stroke-linecap="round" stroke-linejoin="round" /><polyline points="-49.05,1484.93 -38.73,1458.03 12.21,1319.82 48.23,1215.39 55.70,1211.96" fill="none" stroke="#bcbcbc" stroke-width="8" stroke-linecap="round" stroke-linejoin="round" /><polyline points="-769.16,1309.67 -761.12,1291.90 -760.33,1290.14 -746.57,1244.01 -724.04,1168.07 -718.27,1148.63 -713.79,1133.54 -713.19,1124.74 -714.10,1105.27" fill="none" stroke="#bcbcbc" stroke-width="8" stroke-linecap="round" stroke-linejoin="round" /><polyline points="167.20,167.20 154.28,169.86 125.01,164.66 120.48,152.58 69.77,133.25 57.78,136.38 12.03,119.59 5.20,124.35" fill="none" stroke="#bcbcbc" stroke-width="8" stroke-linecap="round" stroke-linejoin="round" /><polyline points="91.90,-1401.46 114.88,-1395.83 127.59,-1393.62 429.89,-1341.21" fill="none" stroke="#bcbcbc" stroke-width="8" stroke-linecap="round" stroke-linejoin="round" /><polyline points="-143.05,1400.76 -130.48,1365.31 -106.04,1296.40 -90.25,1267.05 -67.53,1203.43 -58.45,1178.04" fill="none" stroke="#bcbcbc" stroke-width="8" stroke-linecap="round" stroke-linejoin="round" /><polyline points="-1799.40,24.77 -1821.29,23.76 -1826.78,30.43 -1864.92,76.78 -1998.27,230.80 -2017.02,252.46" fill="none" stroke="#bcbcbc" stroke-width="8" stroke-linecap="round" stroke-linejoin="round" /><polyline points="-629.83,156.68 -639.49,178.08 -640.66,180.68 -674.24,268.24 -708.09,364.63 -717.12,390.34 -722.24,403.61" fill="none" stroke="#bcbcbc" stroke-width="8" stroke-linecap="round" stroke-linejoin="round" /><polyline points="-137.26,-827.23 -126.59,-812.75 -118.97,-792.85 -107.12,-764.29 -88.10,-719.35 -71.24,-679.02 -51.91,-634.73 -37.56,-600.61 -35.44,-595.70 -35.31,-595.40 -23.76,-568.41 -20.31,-560.74 -17.02,-553.43 -13.56,-546.59 -10.94,-539.63 -10.18,-530.51" fill="none" stroke="#bcbcbc" stroke-width="8" stroke-linecap="round" stroke-linejoin="round" /><polyline points="-953.94,588.34 -948.36,585.29 -940.55,579.08 -936.64,571.03 -884.76,374.31 -883.19,363.21 -876.86,342.95" fill="none" stroke="#bcbcbc" stroke-width="8" stroke-linecap="round" stroke-linejoin="round" /><polyline points="860.16,280.50 867.52,303.86 872.70,328.39 862.61,421.89 850.96,492.23 844.59,516.22 844.01,518.39 838.44,531.34 830.84,545.07 813.09,567.52 821.68,611.41 793.88,705.62 778.52,757.66 747.12,842.83 701.12,946.52 644.96,1045.90 627.42,1078.20 595.71,1131.26 469.02,1311.07 441.27,1348.47 333.77,1488.94 272.07,1559.15 185.75,1646.88 177.76,1647.70 158.26,1663.64" fill="none" stroke="#bcbcbc" stroke-width="8" stroke-linecap="round" stroke-linejoin="round" /><polyline points="-703.10,1818.57 -667.74,1708.89 -661.95,1690.78 -654.09,1679.37 -637.20,1628.67 -631.70,1611.45 -561.93,1393.01 -554.91,1371.04 -549.13,1351.74 -466.80,1092.61" fill="none" stroke="#bcbcbc" stroke-width="8" stroke-linecap="round" stroke-linejoin="round" /><polyline points="125.37,-221.22 155.95,-254.63 164.96,-265.49 226.74,-352.99" fill="none" stroke="#bcbcbc" stroke-width="8" stroke-linecap="round" stroke-linejoin="round" /><polyline points="-485.69,-207.98 -401.50,-178.68 -396.84,-171.12 -372.94,-163.10 -358.75,-158.25 -290.89,-135.33" fill="none" stroke="#bcbcbc" stroke-width="8" stroke-linecap="round" stroke-linejoin="round" /><polyline points="248.13,-790.59 287.07,-647.46 332.15,-478.84 338.98,-464.79 340.07,-448.75 370.64,-391.68 453.14,-237.83 471.17,-211.23 476.39,-203.44 599.65,26.99 656.29,78.49 664.24,88.75 675.44,98.33 783.00,190.29 790.30,196.53 809.61,206.79" fill="none" stroke="#bcbcbc" stroke-width="8" stroke-linecap="round" stroke-linejoin="round" /><polyline points="-170.17,1841.85 98.06,1686.04 145.81,1661.62 158.26,1663.64" fill="none" stroke="#bcbcbc" stroke-width="8" stroke-linecap="round" stroke-linejoin="round" /><polyline points="120.66,1618.95 137.30,1599.16 286.71,1301.04 296.61,1281.49 304.87,1262.14 353.14,1142.79 367.51,1106.84 409.11,980.95 436.08,819.10 439.27,795.54" fill="none" stroke="#bcbcbc" stroke-width="8" stroke-linecap="round" stroke-linejoin="round" /><polyline points="5.35,-134.31 2.74,-131.63 -0.86,-119.08 -1.22,-117.83 -17.44,-55.40 -13.18,-39.10 -16.72,-24.49 -21.35,-5.36 -33.21,8.38 -46.68,62.93 -62.54,74.91 -79.47,86.52 -87.03,91.70" fill="none" stroke="#bcbcbc" stroke-width="8" stroke-linecap="round" stroke-linejoin="round" /><polyline points="-629.83,156.68 -622.94,139.01 -581.49,32.75 -572.45,9.58 -565.00,-9.50 -512.04,-145.20 -488.19,-201.93 -485.69,-207.98 -467.15,-252.79 -425.57,-356.03 -410.34,-399.98 -406.96,-410.06 -402.40,-421.49" fill="none" stroke="#bcbcbc" stroke-width="8" stroke-linecap="round" stroke-linejoin="round" /><polyline points="-166.00,-487.44 -157.99,-463.58 105.07,-238.89 248.62,-114.00 463.02,72.38 481.73,87.35 490.12,92.59 527.32,126.36 577.00,168.74 689.70,264.83 726.10,296.13 750.25,325.02" fill="none" stroke="#bcbcbc" stroke-width="8" stroke-linecap="round" stroke-linejoin="round" /><polyline points="268.94,-874.62 282.29,-883.17 361.33,-916.02 377.57,-933.11" fill="none" stroke="#bcbcbc" stroke-width="8" stroke-linecap="round" stroke-linejoin="round" /><polyline points="360.24,1125.02 251.11,1092.86 53.57,1034.76" fill="none" stroke="#bcbcbc" stroke-width="8" stroke-linecap="round" stroke-linejoin="round" /><polyline points="7.97,-1196.24 22.87,-1185.96 508.61,-1077.88" fill="none" stroke="#bcbcbc" stroke-width="8" stroke-linecap="round" stroke-linejoin="round" /><polyline points="607.97,403.04 582.87,347.18 527.15,214.32 523.00,203.76 513.47,179.50 477.56,88.12 475.30,82.20" fill="none" stroke="#bcbcbc" stroke-width="8" stroke-linecap="round" stroke-linejoin="round" /><polyline points="-137.26,-827.22 -164.23,-834.90 -184.04,-840.80 -224.32,-852.76 -244.78,-858.60 -256.51,-861.86 -271.81,-866.24" fill="none" stroke="#bcbcbc" stroke-width="8" stroke-linecap="round" stroke-linejoin="round" /><polyline points="-840.40,-96.44 -841.76,-100.90 -843.02,-104.02 -848.58,-117.83 -870.11,-168.03 -890.57,-219.02 -894.99,-231.06 -900.08,-244.93 -903.72,-256.28 -909.74,-273.29 -910.37,-275.07 -929.95,-323.32 -965.89,-414.02 -973.96,-418.62 -979.70,-433.33 -991.17,-473.16 -1010.81,-522.52 -1015.04,-533.74" fill="none" stroke="#bcbcbc" stroke-width="8" stroke-linecap="round" stroke-linejoin="round" /><polyline points="-667.74,1708.89 -647.33,1715.14 -581.29,1735.26 -560.60,1741.57" fill="none" stroke="#bcbcbc" stroke-width="8" stroke-linecap="round" stroke-linejoin="round" /><polyline points="565.54,-850.87 569.38,-866.43 567.82,-872.34 565.93,-879.47 553.88,-923.64 527.00,-1017.02 512.81,-1064.76 508.61,-1077.88 471.12,-1212.63 450.89,-1285.31 429.89,-1341.21 410.93,-1391.62 392.04,-1426.29 373.69,-1444.61 232.83,-1616.74 222.40,-1628.99 215.50,-1640.32" fill="none" stroke="#bcbcbc" stroke-width="8" stroke-linecap="round" stroke-linejoin="round" /><polyline points="-10.18,-530.51 -17.45,-527.74 -30.88,-524.03 -32.22,-523.66 -88.33,-509.31 -152.83,-491.15 -166.00,-487.44 -171.87,-485.58 -187.36,-480.60 -200.61,-476.91 -258.46,-460.82 -353.59,-433.79 -389.05,-424.83 -402.40,-421.49 -465.80,-405.92 -504.96,-395.02 -587.90,-371.85 -669.87,-348.74 -679.35,-346.11 -747.86,-327.10 -779.46,-318.32 -795.42,-310.79 -825.63,-295.81 -885.62,-265.36 -889.80,-263.24 -903.72,-256.28 -912.22,-252.02 -924.07,-245.81 -966.22,-223.71 -1043.02,-180.62 -1107.17,-147.01 -1116.35,-142.21 -1128.61,-141.44 -1135.97,-137.53 -1137.44,-136.75 -1207.04,-98.61 -1221.61,-98.67 -1238.34,-89.92 -1244.18,-86.87 -1249.11,-84.29 -1260.74,-78.20 -1269.91,-57.29 -1309.30,-36.19 -1321.82,-29.49 -1335.37,-22.11 -1390.18,7.71 -1418.50,23.13 -1432.78,27.24" fill="none" stroke="#bcbcbc" stroke-width="8" stroke-linecap="round" stroke-linejoin="round" /><polyline points="778.52,757.66 749.28,760.34 657.93,768.71 653.81,769.08 647.99,769.62 638.56,770.49 549.99,778.62 519.19,775.76 483.31,784.75 454.58,791.79 439.28,795.54 401.25,796.99 368.33,795.31 351.55,793.53 337.28,789.21 326.76,783.40 287.59,755.70 192.43,690.34 183.46,684.26 174.33,678.06 167.49,671.45" fill="none" stroke="#bcbcbc" stroke-width="8" stroke-linecap="round" stroke-linejoin="round" /><polyline points="-1376.76,-345.79 -1342.23,-278.19 -1337.00,-258.87 -1307.91,-203.37 -1295.90,-187.50 -1247.29,-92.91 -1244.18,-86.87" fill="none" stroke="#bcbcbc" stroke-width="8" stroke-linecap="round" stroke-linejoin="round" /><polyline points="-318.60,255.37 -323.78,269.58 -325.23,274.00 -331.97,294.44 -374.69,413.63 -395.89,472.81 -396.62,474.83 -405.13,493.23 -410.02,504.16" fill="none" stroke="#bcbcbc" stroke-width="8" stroke-linecap="round" stroke-linejoin="round" /><polyline points="248.13,-790.59 243.39,-800.73 230.94,-802.36 190.68,-793.13 182.50,-794.19 176.08,-802.78 164.69,-855.18 226.40,-864.73 254.97,-873.17 268.94,-874.62 283.99,-821.12" fill="none" stroke="#bcbcbc" stroke-width="8" stroke-linecap="round" stroke-linejoin="round" /><polyline points="471.17,-211.23 487.06,-220.16 566.91,-268.27 588.24,-280.97 625.60,-303.24 687.05,-342.98 701.38,-353.29 809.17,-420.15" fill="none" stroke="#bcbcbc" stroke-width="8" stroke-linecap="round" stroke-linejoin="round" /><polyline points="847.93,104.59 820.68,96.47 804.84,83.48 744.30,31.09 742.24,29.25 727.60,16.19 719.00,0.93 566.91,-268.27" fill="none" stroke="#bcbcbc" stroke-width="8" stroke-linecap="round" stroke-linejoin="round" /><polyline points="-868.46,83.26 -629.83,156.68 -610.36,162.86 -432.29,219.30 -428.57,220.48 -401.89,228.94 -388.78,233.10 -371.73,237.76 -336.58,249.67 -318.60,255.37 -302.43,260.50 -169.90,302.54 -30.01,346.49 -18.44,350.12 -2.40,342.26" fill="none" stroke="#bcbcbc" stroke-width="8" stroke-linecap="round" stroke-linejoin="round" /><polyline points="-166.82,-1094.82 -63.45,-1189.79 -45.96,-1205.87" fill="none" stroke="#bcbcbc" stroke-width="8" stroke-linecap="round" stroke-linejoin="round" /><polyline points="-1897.72,437.74 -1518.44,478.39" fill="none" stroke="#bcbcbc" stroke-width="8" stroke-linecap="round" stroke-linejoin="round" /><polyline points="-753.53,-620.90 -673.81,-649.41 -591.58,-679.14 -540.49,-699.00 -384.50,-755.73 -339.23,-771.40 -329.77,-774.66 -318.43,-778.56 -305.70,-782.94 -304.15,-783.48 -278.45,-793.81 -267.28,-798.30" fill="none" stroke="#bcbcbc" stroke-width="8" stroke-linecap="round" stroke-linejoin="round" /><polyline points="-218.11,1308.17 -143.05,1400.76 -97.11,1447.02 -77.22,1461.34 -49.05,1484.92 -22.60,1507.13 0.12,1529.30 0.68,1540.58" fill="none" stroke="#bcbcbc" stroke-width="8" stroke-linecap="round" stroke-linejoin="round" /><polyline points="-137.26,-827.23 -107.84,-900.95 -60.24,-1022.33 7.97,-1196.24 41.68,-1278.62 91.90,-1401.46 133.08,-1502.08 140.46,-1515.43 176.67,-1574.64 179.01,-1578.47 192.26,-1604.53 215.50,-1640.32 228.47,-1660.29 246.84,-1688.55" fill="none" stroke="#bcbcbc" stroke-width="8" stroke-linecap="round" stroke-linejoin="round" /><polyline points="-831.17,1143.97 -835.99,1147.82 -839.17,1152.41 -845.66,1171.54 -850.14,1185.35 -870.87,1247.32 -873.72,1256.26 -875.49,1261.81 -894.52,1256.35 -940.83,1240.83 -986.72,1225.44 -1022.19,1223.43" fill="none" stroke="#bcbcbc" stroke-width="8" stroke-linecap="round" stroke-linejoin="round" /><polyline points="-1738.14,1575.17 -1662.51,1379.86 -1654.09,1358.59 -1646.54,1338.11 -1637.42,1313.37 -1626.24,1274.44 -1614.58,1226.06 -1609.80,1191.40 -1606.33,1166.22 -1601.43,1147.63 -1583.63,1007.97 -1562.84,831.73 -1552.08,747.71 -1540.08,649.00 -1518.44,478.39 -1515.00,449.38 -1493.13,270.95 -1493.12,261.01 -1488.29,208.07 -1474.34,96.24 -1470.84,76.73 -1467.20,65.79 -1461.49,53.74 -1455.95,44.39 -1443.71,31.14 -1432.76,27.38" fill="none" stroke="#bcbcbc" stroke-width="8" stroke-linecap="round" stroke-linejoin="round" /><polyline points="-87.03,91.70 -82.89,98.26 -69.02,119.91 -48.25,153.20 -43.25,161.13 -34.97,154.84 5.20,124.35" fill="none" stroke="#bcbcbc" stroke-width="8" stroke-linecap="round" stroke-linejoin="round" /><polyline points="-60.24,-1022.33 348.41,-948.46 391.33,-925.87 551.44,-846.50 565.54,-850.87" fill="none" stroke="#bcbcbc" stroke-width="8" stroke-linecap="round" stroke-linejoin="round" /><polyline points="-840.40,-96.44 -847.65,-85.86 -912.84,-54.04 -960.72,6.82 -1012.40,38.81 -1047.73,65.49 -1081.45,92.99 -1098.73,108.75 -1129.26,147.48 -1163.40,196.41 -1169.03,205.48" fill="none" stroke="#bcbcbc" stroke-width="8" stroke-linecap="round" stroke-linejoin="round" /><polyline points="-771.47,-52.78 -774.30,-46.49 -780.48,-37.46 -792.16,-23.08 -861.03,63.91 -897.46,162.04 -1081.36,92.92" fill="none" stroke="#bcbcbc" stroke-width="8" stroke-linecap="round" stroke-linejoin="round" /><polyline points="-1047.73,65.49 -1054.86,43.93 -1085.63,-49.24 -1097.57,-67.65 -1117.57,-127.64 -1119.30,-132.82 -1116.35,-142.21 -1121.14,-157.50 -1217.30,-464.52" fill="none" stroke="#bcbcbc" stroke-width="8" stroke-linecap="round" stroke-linejoin="round" /><polyline points="79.00,-1609.74 154.99,-1607.74 158.54,-1607.64 173.10,-1607.22 192.26,-1604.53" fill="none" stroke="#bcbcbc" stroke-width="8" stroke-linecap="round" stroke-linejoin="round" /><polyline points="-311.89,865.81 -337.84,865.49 -557.56,894.99 -573.39,896.66 -591.50,898.57 -696.64,909.66 -838.29,924.63 -913.39,932.55 -954.93,936.93 -988.66,941.03 -1005.98,943.14 -1025.49,945.51 -1119.73,956.96 -1142.32,959.70 -1211.91,967.31 -1583.63,1007.97" fill="none" stroke="#bcbcbc" stroke-width="8" stroke-linecap="round" stroke-linejoin="round" /><polyline points="-637.20,1628.67 -656.66,1622.41 -747.58,1593.15 -765.95,1587.23 -781.91,1582.10 -878.22,1551.14 -897.21,1545.04 -922.33,1536.95 -1075.66,1487.62 -1092.91,1482.06" fill="none" stroke="#bcbcbc" stroke-width="8" stroke-linecap="round" stroke-linejoin="round" /><polyline points="-257.06,-211.95 -204.18,-195.48 -10.80,-135.76 -8.99,-135.21 5.35,-134.31" fill="none" stroke="#bcbcbc" stroke-width="8" stroke-linecap="round" stroke-linejoin="round" /><polyline points="287.07,-647.46 550.13,-642.83" fill="none" stroke="#bcbcbc" stroke-width="8" stroke-linecap="round" stroke-linejoin="round" /><polyline points="158.26,1663.64 120.66,1618.95 104.88,1600.59 91.32,1587.93 73.27,1574.45 36.38,1552.31 0.68,1540.58 -71.95,1518.14 -131.35,1499.29 -97.11,1447.02" fill="none" stroke="#bcbcbc" stroke-width="8" stroke-linecap="round" stroke-linejoin="round" /><polyline points="-218.11,1308.17 -270.47,1243.54 -280.43,1231.24 -333.17,1158.59 -345.11,1136.40 -342.24,1109.99 -326.34,1109.83 -287.12,1117.38 -227.42,1128.86" fill="none" stroke="#bcbcbc" stroke-width="8" stroke-linecap="round" stroke-linejoin="round" /><polyline points="-903.10,790.33 -893.44,811.10 -838.29,924.63 -756.29,1093.43 -745.84,1114.96" fill="none" stroke="#bcbcbc" stroke-width="8" stroke-linecap="round" stroke-linejoin="round" /><polyline points="-1786.36,1304.52 -1766.64,1312.58 -1674.26,1350.35 -1654.09,1358.59 -1632.87,1367.27 -1524.12,1411.75 -1504.44,1419.79" fill="none" stroke="#bcbcbc" stroke-width="8" stroke-linecap="round" stroke-linejoin="round" /><polyline points="-857.71,622.01 -665.25,706.21" fill="none" stroke="#bcbcbc" stroke-width="8" stroke-linecap="round" stroke-linejoin="round" /><polyline points="5.35,-134.31 34.66,-132.77 36.53,-131.11 49.69,-119.44 69.02,-102.18 72.59,-95.24 139.22,-36.89 144.15,-27.58 191.00,13.77 202.79,17.37 239.24,49.29 247.41,53.02 302.37,99.64 314.61,110.49 321.36,121.24" fill="none" stroke="#bcbcbc" stroke-width="8" stroke-linecap="round" stroke-linejoin="round" /><polyline points="-1840.69,622.20 -1540.08,649.00" fill="none" stroke="#bcbcbc" stroke-width="8" stroke-linecap="round" stroke-linejoin="round" /><polyline points="-1169.49,1741.55 -1160.17,1721.72 -1157.78,1712.90 -1144.72,1664.77 -1097.44,1498.03 -1092.91,1482.06 -1088.13,1464.56 -1066.71,1386.22 -1030.53,1253.92 -1022.19,1223.43" fill="none" stroke="#bcbcbc" stroke-width="8" stroke-linecap="round" stroke-linejoin="round" /><polyline points="-903.10,790.33 -857.71,622.01 -953.94,588.34 -979.14,603.22 -990.62,611.96 -999.13,623.46 -1005.11,638.65 -1027.24,720.45 -1009.39,729.54 -991.35,733.91 -951.47,744.30 -921.62,753.80 -903.10,790.33" fill="none" stroke="#bcbcbc" stroke-width="8" stroke-linecap="round" stroke-linejoin="round" /><polyline points="-1027.24,720.45 -1048.32,717.51 -1540.08,649.00" fill="none" stroke="#bcbcbc" stroke-width="8" stroke-linecap="round" stroke-linejoin="round" /><polyline points="-227.42,1128.86 -181.81,1138.83 -58.45,1178.04 -23.96,1188.94 57.91,1212.59 140.38,1236.37 201.44,1254.02 299.09,1282.21 319.26,1288.04 368.54,1304.56 449.67,1326.17 456.82,1327.51" fill="none" stroke="#bcbcbc" stroke-width="8" stroke-linecap="round" stroke-linejoin="round" /><polyline points="-169.56,1841.50 -186.21,1845.68 -204.20,1895.83 -232.11,1887.90 -358.98,1844.66 -374.26,1841.40 -408.23,1838.97 -561.88,1839.59 -595.75,1835.27 -672.25,1823.58 -703.10,1818.57 -921.94,1783.27 -1006.68,1769.75 -1168.29,1741.76 -1194.38,1736.59 -1559.11,1634.64 -1582.12,1628.20 -1738.14,1575.17 -1776.52,1561.56 -1872.40,1521.82 -1927.06,1501.15" fill="none" stroke="#bcbcbc" stroke-width="8" stroke-linecap="round" stroke-linejoin="round" /><polyline points="164.69,-855.18 148.90,-858.43 -61.89,-833.51 -137.26,-827.23" fill="none" stroke="#bcbcbc" stroke-width="8" stroke-linecap="round" stroke-linejoin="round" /><polyline points="-227.42,1128.86 -220.04,1116.50 -175.80,1002.90 -126.38,831.11 -113.77,794.12 -107.03,784.05 -59.31,630.88 -56.94,612.58 -55.13,600.64" fill="none" stroke="#bcbcbc" stroke-width="8" stroke-linecap="round" stroke-linejoin="round" /><polyline points="-10.18,-530.51 -5.15,-532.44 1.68,-537.86 12.05,-549.99 146.65,-743.11 182.50,-794.19" fill="none" stroke="#bcbcbc" stroke-width="8" stroke-linecap="round" stroke-linejoin="round" /><polyline points="588.86,178.92 591.62,170.99 659.28,91.39 664.24,88.75 675.99,72.67 715.36,27.45 727.60,16.19" fill="none" stroke="#bcbcbc" stroke-width="8" stroke-linecap="round" stroke-linejoin="round" /><polyline points="647.99,769.62 647.05,758.97 646.33,750.73 642.76,734.98 638.50,724.70 633.19,697.70 632.70,687.93 629.10,666.07 613.00,657.66 600.13,662.58 577.09,668.10 558.86,670.95 541.37,675.17 517.22,680.67 506.21,683.18" fill="none" stroke="#bcbcbc" stroke-width="8" stroke-linecap="round" stroke-linejoin="round" /><polyline points="-1129.57,378.71 -1080.36,263.36 -1077.63,255.87" fill="none" stroke="#bcbcbc" stroke-width="8" stroke-linecap="round" stroke-linejoin="round" /><polyline points="167.20,167.20 190.92,158.01 203.32,153.21 212.91,143.50 252.44,133.76 265.71,137.14 294.33,129.76 316.16,124.14 321.36,121.24 342.53,116.05 450.77,89.54 475.30,82.20" fill="none" stroke="#bcbcbc" stroke-width="8" stroke-linecap="round" stroke-linejoin="round" /><polyline points="-831.17,1143.97 -780.11,1125.43 -763.03,1120.21 -745.84,1114.96 -714.10,1105.27 -689.42,1101.72 -605.11,1092.49 -588.18,1091.57 -512.74,1092.21 -466.80,1092.61 -449.51,1091.72 -421.84,1094.52 -413.18,1095.76 -395.54,1098.29 -342.24,1109.99" fill="none" stroke="#bcbcbc" stroke-width="8" stroke-linecap="round" stroke-linejoin="round" /><polyline points="-587.90,-371.85 -596.35,-400.44 -627.77,-506.67 -665.93,-627.79 -673.81,-649.41 -681.81,-669.68 -691.92,-698.88" fill="none" stroke="#bcbcbc" stroke-width="8" stroke-linecap="round" stroke-linejoin="round" /><polyline points="-679.27,1340.88 -672.57,1319.69 -604.69,1105.66 -605.11,1092.49" fill="none" stroke="#bcbcbc" stroke-width="8" stroke-linecap="round" stroke-linejoin="round" /><polyline points="-588.18,1091.57 -574.74,911.35 -573.39,896.66 -571.34,879.56 -571.30,878.79 -570.42,857.89 -565.94,801.16 -563.41,774.74 -559.95,744.72 -556.80,723.11 -553.97,709.54 -550.41,699.29 -543.43,676.18 -529.02,628.06 -510.68,565.95 -490.47,502.43 -486.35,489.48 -483.03,480.09" fill="none" stroke="#bcbcbc" stroke-width="8" stroke-linecap="round" stroke-linejoin="round" /><polyline points="-1027.24,720.45 -1030.82,736.42 -1030.20,741.52 -1008.30,923.83 -1005.98,943.14 -1006.99,963.00 -1012.73,1076.39 -1015.12,1123.76 -1016.36,1148.19 -1018.56,1191.75 -1019.71,1214.43 -1022.19,1223.43" fill="none" stroke="#bcbcbc" stroke-width="8" stroke-linecap="round" stroke-linejoin="round" /><polyline points="-1129.57,378.71 -1209.19,355.04 -1219.31,348.55 -1268.86,334.12 -1282.78,334.26 -1345.04,315.51 -1355.10,308.09 -1411.75,290.91 -1481.26,271.97 -1481.60,271.94 -1493.13,270.95" fill="none" stroke="#bcbcbc" stroke-width="8" stroke-linecap="round" stroke-linejoin="round" /><polyline points="321.36,121.24 324.13,124.87 335.67,142.07 357.01,173.89 377.10,194.01 415.72,237.37 409.20,277.43 405.88,292.46 401.28,298.81 410.96,313.14 425.94,343.96 455.87,401.72 470.62,430.16 479.78,455.72 483.92,467.59" fill="none" stroke="#bcbcbc" stroke-width="8" stroke-linecap="round" stroke-linejoin="round" /><polyline points="523.00,203.76 511.90,207.21 438.79,229.96 428.31,233.33 415.72,237.37" fill="none" stroke="#bcbcbc" stroke-width="8" stroke-linecap="round" stroke-linejoin="round" /><polyline points="-2.40,342.26 20.47,334.84 186.42,250.10 208.63,239.25 286.85,216.66 362.69,195.34 377.10,194.01" fill="none" stroke="#bcbcbc" stroke-width="8" stroke-linecap="round" stroke-linejoin="round" /><polyline points="15.68,447.16 207.01,358.13 215.06,352.80 233.77,347.36 361.26,310.26 380.60,302.86 401.28,298.81" fill="none" stroke="#bcbcbc" stroke-width="8" stroke-linecap="round" stroke-linejoin="round" /><polyline points="-23.36,-1419.36 54.09,-1409.79 61.87,-1408.83 91.90,-1401.46" fill="none" stroke="#bcbcbc" stroke-width="8" stroke-linecap="round" stroke-linejoin="round" /><polyline points="638.48,-631.97 652.22,-634.84 703.54,-609.68 710.30,-602.99 806.63,-439.92 809.17,-420.15 821.70,-409.71 819.71,-402.51 819.40,-390.75 821.14,-374.32 846.65,-269.46 848.91,-196.83 852.48,-80.86 858.48,75.22 834.05,143.23 818.31,184.70 795.33,243.13 788.68,260.03 784.36,264.75 777.41,309.97" fill="none" stroke="#bcbcbc" stroke-width="8" stroke-linecap="round" stroke-linejoin="round" /><polyline points="816.59,585.42 793.16,575.22 734.61,534.37 657.37,480.09 614.88,445.73 586.22,415.04" fill="none" stroke="#bcbcbc" stroke-width="8" stroke-linecap="round" stroke-linejoin="round" /><polyline points="-131.35,1499.29 -154.36,1492.00 -191.70,1480.16 -209.52,1474.51 -230.45,1467.87 -256.89,1459.49 -280.80,1451.91 -304.44,1444.41 -409.83,1410.97 -428.29,1405.11 -451.22,1397.85 -456.28,1396.25 -516.56,1380.32 -533.58,1376.20 -554.91,1371.04 -577.24,1365.63 -657.69,1346.12 -679.27,1340.88 -702.46,1332.83 -750.90,1316.01 -769.16,1309.67 -785.49,1304.37 -861.34,1277.40 -870.89,1271.71 -875.49,1261.81" fill="none" stroke="#bcbcbc" stroke-width="8" stroke-linecap="round" stroke-linejoin="round" /><polyline points="187.22,-377.85 203.05,-385.31 289.54,-432.99 338.98,-464.79 373.85,-488.58 381.55,-494.32 409.62,-513.82 438.70,-535.30 457.12,-548.70 479.07,-564.76 555.38,-599.19 565.27,-598.67 579.74,-605.51 638.48,-631.97" fill="none" stroke="#bcbcbc" stroke-width="8" stroke-linecap="round" stroke-linejoin="round" /><polyline points="-771.47,-52.78 -758.99,-47.72 -750.75,-45.18 -596.07,2.33 -572.45,9.58" fill="none" stroke="#bcbcbc" stroke-width="8" stroke-linecap="round" stroke-linejoin="round" /><polyline points="-1876.29,295.06 -1986.79,261.61" fill="none" stroke="#bcbcbc" stroke-width="8" stroke-linecap="round" stroke-linejoin="round" /><polyline points="-91.28,-1263.28 -63.88,-1228.57 -59.79,-1223.39 -45.96,-1205.87 -30.19,-1204.02 2.21,-1200.22 7.97,-1196.24" fill="none" stroke="#bcbcbc" stroke-width="8" stroke-linecap="round" stroke-linejoin="round" /><polyline points="860.16,280.50 816.74,288.60 772.22,312.79 730.95,335.76 691.92,355.27 644.76,380.89 610.61,401.62 543.12,437.81 279.67,570.35 211.37,600.43 166.24,619.95 143.88,627.27 125.38,630.72 95.09,632.55 52.00,626.46 -55.54,600.64 -208.20,565.06 -409.04,504.48 -483.03,480.09 -604.19,442.68 -720.06,404.47 -890.00,337.79 -974.97,301.20 -1077.43,255.66 -1247.37,162.56 -1287.21,136.14 -1388.04,72.71 -1430.32,30.43 -1493.75,-51.69 -1598.23,-159.43 -1639.29,-195.61" fill="none" stroke="#bcbcbc" stroke-width="8" stroke-linecap="round" stroke-linejoin="round" /><polyline points="36.38,1552.31 38.16,1542.38 44.59,1526.16 104.85,1385.15 127.62,1332.29 154.45,1266.42 160.99,1242.32" fill="none" stroke="#bcbcbc" stroke-width="8" stroke-linecap="round" stroke-linejoin="round" /><polyline points="-1119.73,956.96 -1188.19,923.83 -1343.96,848.43 -1535.03,755.96 -1552.08,747.71" fill="none" stroke="#bcbcbc" stroke-width="8" stroke-linecap="round" stroke-linejoin="round" /><polyline points="5.35,-134.31 22.64,-152.01 68.60,-199.06 105.07,-238.89" fill="none" stroke="#bcbcbc" stroke-width="8" stroke-linecap="round" stroke-linejoin="round" /><polyline points="-1321.82,-29.49 -1340.81,-54.63 -1429.80,-172.45 -1556.83,-275.24" fill="none" stroke="#bcbcbc" stroke-width="8" stroke-linecap="round" stroke-linejoin="round" /><polyline points="-1873.09,1521.53 -1855.71,1480.34 -1800.48,1342.64 -1793.79,1324.57 -1786.36,1304.52 -1783.54,1297.28 -1782.80,1285.95 -1775.73,1178.90 -1773.70,1148.20" fill="none" stroke="#bcbcbc" stroke-width="8" stroke-linecap="round" stroke-linejoin="round" /><polyline points="-1910.77,414.64 -1876.29,295.06 -1830.80,137.32 -1825.16,117.80 -1818.90,95.62 -1804.88,45.95 -1803.41,40.74 -1799.40,24.77 -1792.99,6.72 -1791.44,2.34 -1783.36,-17.70 -1767.48,-52.72 -1762.73,-62.77" fill="none" stroke="#bcbcbc" stroke-width="8" stroke-linecap="round" stroke-linejoin="round" /><polyline points="-1825.16,117.80 -1755.40,135.64 -1607.61,173.63 -1523.41,199.84 -1488.29,208.07" fill="none" stroke="#bcbcbc" stroke-width="8" stroke-linecap="round" stroke-linejoin="round" /><polyline points="-389.05,-424.83 -386.68,-439.35 -384.29,-454.42 -374.06,-504.84 -348.49,-622.22 -327.49,-727.21 -323.65,-748.99 -318.43,-778.56 -318.43,-778.59" fill="none" stroke="#bcbcbc" stroke-width="8" stroke-linecap="round" stroke-linejoin="round" /><polyline points="-595.62,1835.30 -564.47,1755.84 -560.60,1741.57 -436.98,1427.75 -428.29,1405.11 -421.26,1385.91 -347.39,1171.00 -333.17,1158.58" fill="none" stroke="#bcbcbc" stroke-width="8" stroke-linecap="round" stroke-linejoin="round" /><polyline points="-171.87,-485.58 -171.87,-485.61 -176.25,-508.59 -176.94,-511.38 -187.62,-554.81 -187.61,-554.95 -194.89,-584.40 -225.74,-690.12 -229.63,-701.44 -250.46,-758.08 -257.23,-774.98 -261.60,-785.89 -267.27,-798.28 -267.28,-798.30 -267.28,-798.35 -271.42,-843.89 -271.81,-866.24" fill="none" stroke="#bcbcbc" stroke-width="8" stroke-linecap="round" stroke-linejoin="round" /><polyline points="-218.11,1308.17 -226.04,1316.74 -237.86,1330.81 -271.16,1424.72 -280.80,1451.91" fill="none" stroke="#bcbcbc" stroke-width="8" stroke-linecap="round" stroke-linejoin="round" /><polyline points="-771.47,-52.78 -766.92,-65.11 -765.89,-67.97 -744.26,-128.38 -736.15,-153.83 -669.87,-348.74" fill="none" stroke="#bcbcbc" stroke-width="8" stroke-linecap="round" stroke-linejoin="round" /><polyline points="-428.57,220.48 -421.81,202.52 -403.49,153.86 -395.75,133.29 -390.50,119.37 -375.81,80.32 -366.09,54.53 -364.79,51.06 -341.26,-11.42 -331.43,-8.38 -326.10,-22.88 -316.68,-48.55 -318.48,-60.20 -293.46,-128.33 -290.89,-135.33 -286.14,-139.69 -282.15,-143.35 -257.06,-211.95 -253.43,-230.73 -217.42,-330.77 -208.91,-337.44 -191.58,-386.44 -194.66,-393.97 -179.49,-439.73 -187.36,-480.60" fill="none" stroke="#bcbcbc" stroke-width="8" stroke-linecap="round" stroke-linejoin="round" /><polyline points="215.50,-1640.32 205.41,-1656.87 152.40,-1743.84" fill="none" stroke="#bcbcbc" stroke-width="8" stroke-linecap="round" stroke-linejoin="round" /><polyline points="381.55,-494.32 624.84,-337.87 624.91,-337.76 624.91,-337.74 669.91,-331.90" fill="none" stroke="#bcbcbc" stroke-width="8" stroke-linecap="round" stroke-linejoin="round" /><polyline points="283.99,-821.12 542.84,-691.19 550.65,-685.36 550.13,-642.83 555.38,-599.19" fill="none" stroke="#bcbcbc" stroke-width="8" stroke-linecap="round" stroke-linejoin="round" /><polyline points="-209.52,1474.51 -218.83,1502.91 -256.55,1617.94 -320.70,1811.65 -325.25,1825.40 -329.86,1839.32 -331.15,1854.15" fill="none" stroke="#bcbcbc" stroke-width="8" stroke-linecap="round" stroke-linejoin="round" /><polyline points="519.19,775.76 520.74,761.33 521.07,747.86 520.96,747.39 511.79,707.74 508.03,691.18 506.21,683.18 504.36,675.02 494.29,630.66 474.62,542.01 460.32,488.72 458.30,480.48" fill="none" stroke="#bcbcbc" stroke-width="8" stroke-linecap="round" stroke-linejoin="round" /><polyline points="-765.95,1587.23 -759.54,1569.00 -687.46,1364.14 -679.27,1340.88" fill="none" stroke="#bcbcbc" stroke-width="8" stroke-linecap="round" stroke-linejoin="round" /><polyline points="852.48,-80.87 831.28,-86.85 687.26,-307.84 669.91,-331.90" fill="none" stroke="#bcbcbc" stroke-width="8" stroke-linecap="round" stroke-linejoin="round" /><polyline points="-1515.00,449.38 -990.13,575.13 -953.94,588.34" fill="none" stroke="#bcbcbc" stroke-width="8" stroke-linecap="round" stroke-linejoin="round" /><polyline points="140.46,-1515.43 344.91,-1439.69 373.69,-1444.61" fill="none" stroke="#bcbcbc" stroke-width="8" stroke-linecap="round" stroke-linejoin="round" />
    <polyline points="215.06,352.80 209.48,332.77 192.82,273.06 186.42,250.10 177.16,232.94 176.30,229.76 170.85,209.54 177.20,200.59 169.57,175.11 167.20,167.20" fill="none" stroke="#ffffff" stroke-width="16" stroke-linecap="round" stroke-linejoin="round" />
    <polyline points="215.06,352.80 209.48,332.77 192.82,273.06 186.42,250.10 177.16,232.94 176.30,229.76 170.85,209.54 177.20,200.59 169.57,175.11 167.20,167.20" fill="none" stroke="#111111" stroke-width="9" stroke-linecap="round" stroke-linejoin="round" />
    
            <g transform="translate(215.06,352.80)">
              <circle r="19" fill="#ffffff" stroke="#111111" stroke-width="4" />
              <text text-anchor="middle" dominant-baseline="central" font-family="Helvetica, Arial, sans-serif"
                font-size="18" font-weight="700" fill="#111111">1</text>
            </g>
            
            <g transform="translate(167.20,167.20)">
              <circle r="19" fill="#ffffff" stroke="#111111" stroke-width="4" />
              <text text-anchor="middle" dominant-baseline="central" font-family="Helvetica, Arial, sans-serif"
                font-size="18" font-weight="700" fill="#111111">2</text>
            </g>
            
  </g>
</svg>
