<svg xmlns="http://www.w3.org/2000/svg" width="520" height="520" viewBox="0 0 520 520">
  <rect width="100%" height="100%" fill="#ffffff" />
  <g>
    <polyline points="352.80,248.28 354.80,258.91 367.70,349.14 365.72,371.70" fill="none" stroke="#bcbcbc" stroke-width="8" stroke-linecap="round" stroke-linejoin="round" /><polyline points="90.64,1000.22 93.76,990.64 110.28,939.82 112.23,933.83 114.20,927.55 155.75,795.05 159.09,784.40 151.44,765.55" fill="none" stroke="#bcbcbc" stroke-width="8" stroke-linecap="round" stroke-linejoin="round" /><polyline points="-196.32,882.38 -197.00,874.77 -183.41,798.69 -181.51,789.18 -180.09,784.19 -176.35,764.90 -172.15,741.29 -167.57,720.49 -163.03,699.74 -160.17,693.89 -158.30,690.30" fill="none" stroke="#bcbcbc" stroke-width="8" stroke-linecap="round" stroke-linejoin="round" /><polyline points="-117.49,345.74 -120.72,335.89 -154.09,234.09 -155.72,229.82" fill="none" stroke="#bcbcbc" stroke-width="8" stroke-linecap="round" stroke-linejoin="round" /><polyline points="-288.76,1241.75 -287.76,1232.03 -287.36,1227.58 -283.72,1187.38 -279.74,1151.99 -278.82,1143.72 -277.95,1133.81 -277.86,1132.97 -275.60,1113.26 -273.66,1093.22 -271.51,1073.89 -270.07,1058.83 -269.47,1049.54 -268.94,1040.96 -267.99,1031.29" fill="none" stroke="#bcbcbc" stroke-width="8" stroke-linecap="round" stroke-linejoin="round" /><polyline points="172.45,1023.84 174.82,1016.37 191.57,963.71 193.48,957.73 196.18,949.21 198.12,943.10 212.94,879.16" fill="none" stroke="#bcbcbc" stroke-width="8" stroke-linecap="round" stroke-linejoin="round" /><polyline points="107.34,-17.70 113.52,-16.75 283.97,9.44" fill="none" stroke="#bcbcbc" stroke-width="8" stroke-linecap="round" stroke-linejoin="round" /><polyline points="-330.22,1011.44 -347.96,1010.61 -358.78,1010.11 -364.65,1009.83 -369.81,1009.59 -409.98,1007.73 -465.86,1005.13 -492.49,1001.35 -501.41,1000.09 -509.14,998.72 -561.52,989.48 -568.85,988.18 -570.47,987.91 -579.51,986.35 -586.46,985.16 -630.85,981.24 -639.31,980.49 -642.41,980.22 -652.00,979.55 -670.79,978.25" fill="none" stroke="#bcbcbc" stroke-width="8" stroke-linecap="round" stroke-linejoin="round" /><polyline points="-72.48,959.96 -69.05,950.18 -38.08,864.34 -0.83,756.07 1.56,749.28 3.22,744.53 4.57,740.64" fill="none" stroke="#bcbcbc" stroke-width="8" stroke-linecap="round" stroke-linejoin="round" /><polyline points="-642.41,980.22 -643.20,974.70 -643.38,968.70 -642.21,956.63 -639.51,934.59 -637.71,927.19 -634.80,900.44 -634.26,894.49 -633.41,886.83 -632.77,881.14 -631.58,874.69 -629.36,857.34 -627.82,844.07 -625.56,838.64" fill="none" stroke="#bcbcbc" stroke-width="8" stroke-linecap="round" stroke-linejoin="round" /><polyline points="-674.10,831.86 -632.80,837.63 -625.56,838.64 -621.07,839.36 -602.56,842.31 -559.90,849.10 -552.58,850.32" fill="none" stroke="#bcbcbc" stroke-width="8" stroke-linecap="round" stroke-linejoin="round" /><polyline points="86.01,290.01 86.28,293.76 86.83,297.56 88.17,300.48 90.68,303.72 95.33,307.95 106.34,314.65 191.26,367.93 243.56,438.05 283.06,535.55 285.64,541.99" fill="none" stroke="#bcbcbc" stroke-width="8" stroke-linecap="round" stroke-linejoin="round" /><polyline points="72.41,574.50 74.17,577.41 74.63,578.16 76.08,585.52 86.05,633.70 89.21,648.99 91.47,659.89 95.00,681.96 96.65,692.14 97.79,698.36 99.03,703.97 100.52,707.24 102.70,711.03 103.86,712.82 125.93,744.41 137.86,763.20 140.98,767.69" fill="none" stroke="#bcbcbc" stroke-width="8" stroke-linecap="round" stroke-linejoin="round" /><polyline points="-561.02,1177.78 -559.85,1170.55 -558.75,1165.32 -558.46,1164.63 -543.78,1129.71 -534.42,1107.01 -531.58,1099.82 -528.56,1092.20 -525.29,1085.66 -524.76,1084.38 -520.29,1073.55 -516.82,1063.97 -513.85,1055.19 -511.97,1048.98 -509.86,1041.30 -507.42,1031.01 -505.57,1022.67 -503.36,1011.02 -502.90,1008.42 -501.41,1000.09" fill="none" stroke="#bcbcbc" stroke-width="8" stroke-linecap="round" stroke-linejoin="round" /><polyline points="150.51,202.56 197.34,235.29 203.65,236.63 208.27,241.91" fill="none" stroke="#bcbcbc" stroke-width="8" stroke-linecap="round" stroke-linejoin="round" /><polyline points="-46.12,504.77 -39.93,507.15 -13.06,515.94 49.27,539.85 52.76,543.33 54.41,545.94" fill="none" stroke="#bcbcbc" stroke-width="8" stroke-linecap="round" stroke-linejoin="round" /><polyline points="70.02,1118.99 74.27,1107.93 95.22,1051.08 110.04,1008.13 113.11,1006.72" fill="none" stroke="#bcbcbc" stroke-width="8" stroke-linecap="round" stroke-linejoin="round" /><polyline points="-226.15,1046.91 -222.84,1039.60 -222.52,1038.88 -216.86,1019.90 -207.59,988.67 -205.22,980.67 -203.38,974.46 -203.13,970.85 -203.51,962.84" fill="none" stroke="#bcbcbc" stroke-width="8" stroke-linecap="round" stroke-linejoin="round" /><polyline points="158.97,576.99 153.65,578.09 141.62,575.94 139.75,570.98 118.89,563.03 113.96,564.32 95.14,557.41 92.34,559.37" fill="none" stroke="#bcbcbc" stroke-width="8" stroke-linecap="round" stroke-linejoin="round" /><polyline points="128.00,-68.23 137.45,-65.91 142.68,-65.00 267.01,-43.44" fill="none" stroke="#bcbcbc" stroke-width="8" stroke-linecap="round" stroke-linejoin="round" /><polyline points="31.36,1084.37 36.53,1069.79 46.58,1041.45 53.08,1029.38 62.43,1003.21 66.16,992.77" fill="none" stroke="#bcbcbc" stroke-width="8" stroke-linecap="round" stroke-linejoin="round" /><polyline points="-649.88,518.41 -658.88,517.99 -661.14,520.73 -676.83,539.80 -731.67,603.15 -739.38,612.06" fill="none" stroke="#bcbcbc" stroke-width="8" stroke-linecap="round" stroke-linejoin="round" /><polyline points="-168.85,572.67 -172.82,581.47 -173.30,582.53 -187.11,618.55 -201.03,658.20 -204.75,668.77 -206.85,674.23" fill="none" stroke="#bcbcbc" stroke-width="8" stroke-linecap="round" stroke-linejoin="round" /><polyline points="33.75,167.97 38.13,173.92 41.27,182.10 46.14,193.85 53.97,212.34 60.90,228.92 68.85,247.14 74.75,261.18 75.62,263.19 75.68,263.32 80.43,274.42 81.85,277.58 83.20,280.58 84.62,283.40 85.70,286.26 86.01,290.01" fill="none" stroke="#bcbcbc" stroke-width="8" stroke-linecap="round" stroke-linejoin="round" /><polyline points="-302.15,750.21 -299.85,748.96 -296.64,746.41 -295.03,743.09 -273.69,662.18 -273.05,657.61 -270.45,649.28" fill="none" stroke="#bcbcbc" stroke-width="8" stroke-linecap="round" stroke-linejoin="round" /><polyline points="443.97,623.59 447.00,633.20 449.13,643.29 444.98,681.75 440.19,710.68 437.57,720.55 437.33,721.44 435.04,726.77 431.91,732.41 424.61,741.65 428.15,759.70 416.71,798.45 410.40,819.86 397.48,854.89 378.56,897.54 355.46,938.42 348.25,951.70 335.21,973.53 283.10,1047.48 271.69,1062.87 227.48,1120.65 202.10,1149.52 166.59,1185.61 163.31,1185.95 155.29,1192.50" fill="none" stroke="#bcbcbc" stroke-width="8" stroke-linecap="round" stroke-linejoin="round" /><polyline points="-198.98,1256.23 -184.44,1211.11 -182.06,1203.67 -178.82,1198.97 -171.88,1178.12 -169.61,1171.04 -140.92,1081.19 -138.03,1072.15 -135.65,1064.21 -101.79,957.63" fill="none" stroke="#bcbcbc" stroke-width="8" stroke-linecap="round" stroke-linejoin="round" /><polyline points="141.76,417.23 154.34,403.49 158.05,399.02 183.45,363.03" fill="none" stroke="#bcbcbc" stroke-width="8" stroke-linecap="round" stroke-linejoin="round" /><polyline points="-109.56,422.67 -74.93,434.73 -73.02,437.83 -63.19,441.13 -57.35,443.13 -29.44,452.56" fill="none" stroke="#bcbcbc" stroke-width="8" stroke-linecap="round" stroke-linejoin="round" /><polyline points="192.25,183.03 208.27,241.91 226.81,311.26 229.62,317.04 230.07,323.64 242.64,347.11 276.57,410.39 283.98,421.34 286.13,424.54 336.83,519.32 360.12,540.50 363.39,544.72 368.00,548.66 412.24,586.49 415.24,589.06 423.18,593.27" fill="none" stroke="#bcbcbc" stroke-width="8" stroke-linecap="round" stroke-linejoin="round" /><polyline points="20.21,1265.81 130.53,1201.72 150.17,1191.67 155.29,1192.50" fill="none" stroke="#bcbcbc" stroke-width="8" stroke-linecap="round" stroke-linejoin="round" /><polyline points="139.82,1174.12 146.67,1165.98 208.12,1043.36 212.19,1035.32 215.59,1027.36 235.44,978.27 241.35,963.48 258.46,911.70 269.55,845.13 270.87,835.44" fill="none" stroke="#bcbcbc" stroke-width="8" stroke-linecap="round" stroke-linejoin="round" /><polyline points="92.40,452.98 91.32,454.08 89.84,459.24 89.70,459.75 83.03,485.43 84.78,492.14 83.32,498.15 81.42,506.01 76.54,511.67 71.00,534.10 64.48,539.03 57.51,543.81 54.41,545.94" fill="none" stroke="#bcbcbc" stroke-width="8" stroke-linecap="round" stroke-linejoin="round" /><polyline points="-168.85,572.67 -166.01,565.40 -148.96,521.69 -145.24,512.16 -142.18,504.31 -120.40,448.50 -110.59,425.16 -109.56,422.67 -101.94,404.24 -84.84,361.78 -78.57,343.70 -77.18,339.55 -75.31,334.85" fill="none" stroke="#bcbcbc" stroke-width="8" stroke-linecap="round" stroke-linejoin="round" /><polyline points="21.92,307.72 25.22,317.54 133.41,409.96 192.45,461.33 280.63,537.99 288.33,544.15 291.78,546.30 307.08,560.19 327.51,577.62 373.86,617.15 388.83,630.02 398.77,641.90" fill="none" stroke="#bcbcbc" stroke-width="8" stroke-linecap="round" stroke-linejoin="round" /><polyline points="200.81,148.47 206.30,144.95 238.81,131.44 245.49,124.41" fill="none" stroke="#bcbcbc" stroke-width="8" stroke-linecap="round" stroke-linejoin="round" /><polyline points="238.36,970.96 193.48,957.73 112.23,933.83" fill="none" stroke="#bcbcbc" stroke-width="8" stroke-linecap="round" stroke-linejoin="round" /><polyline points="93.48,16.18 99.61,20.41 299.39,64.87" fill="none" stroke="#bcbcbc" stroke-width="8" stroke-linecap="round" stroke-linejoin="round" /><polyline points="340.25,674.00 329.92,651.02 307.01,596.37 305.30,592.03 301.38,582.05 286.61,544.46 285.68,542.03" fill="none" stroke="#bcbcbc" stroke-width="8" stroke-linecap="round" stroke-linejoin="round" /><polyline points="33.75,167.97 22.65,164.81 14.50,162.38 -2.06,157.46 -10.48,155.06 -15.30,153.72 -21.60,151.92" fill="none" stroke="#bcbcbc" stroke-width="8" stroke-linecap="round" stroke-linejoin="round" /><polyline points="-255.45,468.55 -256.01,466.72 -256.53,465.43 -258.81,459.75 -267.67,439.10 -276.09,418.13 -277.90,413.18 -280.00,407.47 -281.49,402.81 -283.97,395.81 -284.23,395.08 -292.28,375.23 -307.06,337.93 -310.38,336.03 -312.74,329.98 -317.46,313.60 -325.54,293.30 -327.28,288.68" fill="none" stroke="#bcbcbc" stroke-width="8" stroke-linecap="round" stroke-linejoin="round" /><polyline points="-184.44,1211.11 -176.04,1213.69 -148.88,1221.96 -140.37,1224.56" fill="none" stroke="#bcbcbc" stroke-width="8" stroke-linecap="round" stroke-linejoin="round" /><polyline points="322.80,158.24 324.38,151.84 323.74,149.41 322.96,146.48 318.00,128.31 306.95,89.90 301.11,70.26 299.39,64.87 283.97,9.44 275.64,-20.45 267.01,-43.44 259.21,-64.18 251.44,-78.44 243.89,-85.97 185.96,-156.78 181.67,-161.82 178.83,-166.47" fill="none" stroke="#bcbcbc" stroke-width="8" stroke-linecap="round" stroke-linejoin="round" /><polyline points="86.01,290.01 83.02,291.15 77.50,292.68 76.94,292.83 53.87,298.73 27.34,306.20 21.92,307.73 19.51,308.49 13.14,310.54 7.69,312.06 -16.10,318.68 -55.23,329.79 -69.82,333.48 -75.31,334.85 -101.38,341.26 -117.49,345.74 -151.60,355.27 -185.31,364.77 -189.21,365.86 -217.39,373.68 -230.39,377.29 -236.95,380.39 -249.37,386.55 -274.05,399.07 -275.77,399.94 -281.49,402.81 -284.99,404.56 -289.86,407.11 -307.20,416.20 -338.79,433.93 -365.17,447.75 -368.94,449.73 -373.99,450.04 -377.02,451.65 -377.62,451.97 -406.24,467.66 -412.24,467.63 -419.12,471.23 -421.52,472.49 -423.55,473.55 -428.33,476.05 -432.10,484.65 -448.30,493.33 -453.45,496.09 -459.03,499.12 -481.57,511.39 -493.22,517.73 -499.09,519.42" fill="none" stroke="#bcbcbc" stroke-width="8" stroke-linecap="round" stroke-linejoin="round" /><polyline points="410.40,819.86 398.37,820.96 360.80,824.40 359.11,824.56 356.71,824.78 352.83,825.13 316.40,828.48 303.73,827.30 288.98,831.00 277.16,833.90 270.87,835.44 255.23,836.03 241.69,835.34 234.79,834.61 228.92,832.83 224.59,830.44 208.48,819.05 169.34,792.17 165.65,789.67 161.90,787.12 159.09,784.40" fill="none" stroke="#bcbcbc" stroke-width="8" stroke-linecap="round" stroke-linejoin="round" /><polyline points="-476.05,365.99 -461.85,393.79 -459.70,401.74 -447.73,424.57 -442.79,431.10 -422.80,470.00 -421.52,472.49" fill="none" stroke="#bcbcbc" stroke-width="8" stroke-linecap="round" stroke-linejoin="round" /><polyline points="-40.84,613.26 -42.97,619.10 -43.57,620.92 -46.34,629.33 -63.91,678.35 -72.63,702.70 -72.93,703.53 -76.43,711.09 -78.44,715.59" fill="none" stroke="#bcbcbc" stroke-width="8" stroke-linecap="round" stroke-linejoin="round" /><polyline points="192.25,183.03 190.30,178.86 185.18,178.19 168.62,181.99 165.26,181.55 162.62,178.02 157.93,156.47 183.32,152.54 195.07,149.07 200.81,148.47 207.00,170.48" fill="none" stroke="#bcbcbc" stroke-width="8" stroke-linecap="round" stroke-linejoin="round" /><polyline points="283.98,421.34 290.52,417.66 323.36,397.88 332.14,392.65 347.50,383.49 372.77,367.14 378.67,362.90 423.00,335.40" fill="none" stroke="#bcbcbc" stroke-width="8" stroke-linecap="round" stroke-linejoin="round" /><polyline points="438.94,551.24 427.74,547.90 421.22,542.56 396.32,521.01 395.47,520.25 389.45,514.88 385.91,508.60 323.36,397.88" fill="none" stroke="#bcbcbc" stroke-width="8" stroke-linecap="round" stroke-linejoin="round" /><polyline points="-266.99,542.46 -168.85,572.67 -160.84,575.20 -87.60,598.42 -86.07,598.91 -75.10,602.39 -69.70,604.10 -62.69,606.01 -48.23,610.91 -40.84,613.26 -34.19,615.37 20.32,632.66 77.86,650.74 82.62,652.23 89.21,648.99" fill="none" stroke="#bcbcbc" stroke-width="8" stroke-linecap="round" stroke-linejoin="round" /><polyline points="21.59,57.90 64.10,18.83 71.30,12.22" fill="none" stroke="#bcbcbc" stroke-width="8" stroke-linecap="round" stroke-linejoin="round" /><polyline points="-690.32,688.27 -534.32,704.99" fill="none" stroke="#bcbcbc" stroke-width="8" stroke-linecap="round" stroke-linejoin="round" /><polyline points="-219.72,252.83 -186.93,241.10 -153.11,228.88 -132.10,220.71 -67.94,197.37 -49.32,190.93 -45.43,189.58 -40.77,187.98 -35.53,186.18 -34.89,185.96 -24.32,181.71 -19.73,179.86" fill="none" stroke="#bcbcbc" stroke-width="8" stroke-linecap="round" stroke-linejoin="round" /><polyline points="0.49,1046.29 31.36,1084.37 50.26,1103.40 58.44,1109.29 70.02,1118.99 80.90,1128.13 90.25,1137.25 90.48,1141.88" fill="none" stroke="#bcbcbc" stroke-width="8" stroke-linecap="round" stroke-linejoin="round" /><polyline points="33.75,167.97 45.84,137.64 65.42,87.71 93.48,16.18 107.34,-17.70 128.00,-68.23 144.93,-109.61 147.97,-115.10 162.86,-139.46 163.82,-141.03 169.27,-151.75 178.83,-166.47 184.17,-174.69 191.72,-186.31" fill="none" stroke="#bcbcbc" stroke-width="8" stroke-linecap="round" stroke-linejoin="round" /><polyline points="-251.65,978.75 -253.64,980.34 -254.94,982.23 -257.61,990.10 -259.46,995.78 -267.98,1021.26 -269.15,1024.94 -269.88,1027.22 -277.71,1024.98 -296.76,1018.59 -315.63,1012.26 -330.22,1011.44" fill="none" stroke="#bcbcbc" stroke-width="8" stroke-linecap="round" stroke-linejoin="round" /><polyline points="-624.68,1156.12 -593.58,1075.78 -590.11,1067.03 -587.01,1058.61 -583.26,1048.43 -578.66,1032.42 -573.86,1012.52 -571.90,998.26 -570.47,987.91 -568.46,980.26 -561.13,922.81 -552.58,850.32 -548.16,815.77 -543.22,775.17 -534.32,704.99 -532.91,693.06 -523.91,619.66 -523.91,615.58 -521.92,593.80 -516.18,547.80 -514.75,539.78 -513.24,535.28 -510.90,530.32 -508.62,526.48 -503.58,521.03 -499.08,519.48" fill="none" stroke="#bcbcbc" stroke-width="8" stroke-linecap="round" stroke-linejoin="round" /><polyline points="54.41,545.94 56.11,548.63 61.81,557.54 70.35,571.23 72.41,574.50 75.82,571.91 92.34,559.37" fill="none" stroke="#bcbcbc" stroke-width="8" stroke-linecap="round" stroke-linejoin="round" /><polyline points="65.42,87.71 233.50,118.10 251.15,127.39 317.00,160.04 322.80,158.24" fill="none" stroke="#bcbcbc" stroke-width="8" stroke-linecap="round" stroke-linejoin="round" /><polyline points="-255.45,468.55 -258.43,472.90 -285.25,485.99 -304.94,511.02 -326.19,524.18 -340.72,535.16 -354.59,546.47 -361.70,552.95 -374.26,568.88 -388.30,589.01 -390.61,592.74" fill="none" stroke="#bcbcbc" stroke-width="8" stroke-linecap="round" stroke-linejoin="round" /><polyline points="-227.10,486.51 -228.26,489.10 -230.81,492.81 -235.61,498.72 -263.93,534.51 -278.92,574.87 -354.56,546.44" fill="none" stroke="#bcbcbc" stroke-width="8" stroke-linecap="round" stroke-linejoin="round" /><polyline points="-340.72,535.16 -343.65,526.29 -356.31,487.97 -361.22,480.39 -369.45,455.72 -370.16,453.59 -368.94,449.73 -370.91,443.44 -410.46,317.15" fill="none" stroke="#bcbcbc" stroke-width="8" stroke-linecap="round" stroke-linejoin="round" /><polyline points="122.69,-153.90 153.95,-153.07 155.40,-153.03 161.39,-152.86 169.27,-151.75" fill="none" stroke="#bcbcbc" stroke-width="8" stroke-linecap="round" stroke-linejoin="round" /><polyline points="-38.08,864.34 -48.75,864.21 -139.12,876.34 -145.63,877.03 -153.08,877.82 -196.32,882.38 -254.58,888.53 -285.47,891.79 -302.56,893.59 -316.43,895.28 -323.55,896.15 -331.58,897.12 -370.34,901.83 -379.62,902.96 -408.25,906.09 -561.13,922.81" fill="none" stroke="#bcbcbc" stroke-width="8" stroke-linecap="round" stroke-linejoin="round" /><polyline points="-171.88,1178.12 -179.88,1175.54 -217.27,1163.51 -224.83,1161.08 -231.39,1158.97 -271.01,1146.23 -278.82,1143.72 -289.15,1140.40 -352.21,1120.10 -359.31,1117.82" fill="none" stroke="#bcbcbc" stroke-width="8" stroke-linecap="round" stroke-linejoin="round" /><polyline points="-15.53,421.04 6.22,427.81 85.76,452.38 86.50,452.61 92.40,452.98" fill="none" stroke="#bcbcbc" stroke-width="8" stroke-linecap="round" stroke-linejoin="round" /><polyline points="208.27,241.91 316.46,243.81" fill="none" stroke="#bcbcbc" stroke-width="8" stroke-linecap="round" stroke-linejoin="round" /><polyline points="155.29,1192.50 139.82,1174.12 133.33,1166.57 127.76,1161.36 120.33,1155.82 105.16,1146.71 90.48,1141.88 60.61,1132.66 36.17,1124.90 50.26,1103.40" fill="none" stroke="#bcbcbc" stroke-width="8" stroke-linecap="round" stroke-linejoin="round" /><polyline points="0.49,1046.29 -21.04,1019.71 -25.14,1014.65 -46.83,984.77 -51.74,975.64 -50.56,964.78 -44.02,964.71 -27.89,967.82 -3.34,972.54" fill="none" stroke="#bcbcbc" stroke-width="8" stroke-linecap="round" stroke-linejoin="round" /><polyline points="-281.24,833.29 -277.27,841.84 -254.58,888.53 -220.86,957.97 -216.56,966.82" fill="none" stroke="#bcbcbc" stroke-width="8" stroke-linecap="round" stroke-linejoin="round" /><polyline points="-644.51,1044.79 -636.40,1048.11 -598.41,1063.64 -590.11,1067.03 -581.39,1070.60 -536.66,1088.89 -528.56,1092.20" fill="none" stroke="#bcbcbc" stroke-width="8" stroke-linecap="round" stroke-linejoin="round" /><polyline points="-262.57,764.06 -183.41,798.69" fill="none" stroke="#bcbcbc" stroke-width="8" stroke-linecap="round" stroke-linejoin="round" /><polyline points="92.40,452.98 104.45,453.61 105.22,454.29 110.64,459.09 118.59,466.19 120.05,469.04 147.46,493.04 149.49,496.87 168.76,513.88 173.61,515.36 188.60,528.49 191.95,530.02 214.56,549.20 219.59,553.67 222.37,558.09" fill="none" stroke="#bcbcbc" stroke-width="8" stroke-linecap="round" stroke-linejoin="round" /><polyline points="-666.86,764.14 -543.22,775.17" fill="none" stroke="#bcbcbc" stroke-width="8" stroke-linecap="round" stroke-linejoin="round" /><polyline points="-390.80,1224.55 -386.97,1216.39 -385.99,1212.77 -380.62,1192.97 -361.17,1124.38 -359.31,1117.82 -357.34,1110.62 -348.53,1078.39 -333.65,1023.98 -330.22,1011.44" fill="none" stroke="#bcbcbc" stroke-width="8" stroke-linecap="round" stroke-linejoin="round" /><polyline points="-281.24,833.29 -262.57,764.06 -302.15,750.21 -312.51,756.33 -317.24,759.93 -320.73,764.66 -323.19,770.91 -332.30,804.55 -324.95,808.29 -317.53,810.09 -301.13,814.36 -288.85,818.27 -281.24,833.29" fill="none" stroke="#bcbcbc" stroke-width="8" stroke-linecap="round" stroke-linejoin="round" /><polyline points="-332.30,804.55 -340.96,803.34 -543.22,775.17" fill="none" stroke="#bcbcbc" stroke-width="8" stroke-linecap="round" stroke-linejoin="round" /><polyline points="-3.34,972.54 15.42,976.64 66.16,992.77 80.34,997.25 114.01,1006.98 147.94,1016.76 173.05,1024.02 213.21,1035.61 221.51,1038.01 241.77,1044.81 275.14,1053.70 278.08,1054.25" fill="none" stroke="#bcbcbc" stroke-width="8" stroke-linecap="round" stroke-linejoin="round" /><polyline points="20.46,1265.66 13.61,1267.38 6.21,1288.01 -5.27,1284.75 -57.45,1266.96 -63.73,1265.62 -77.70,1264.62 -140.90,1264.87 -154.83,1263.10 -186.29,1258.29 -198.98,1256.23 -288.98,1241.71 -323.84,1236.15 -390.31,1224.64 -401.04,1222.51 -551.05,1180.58 -560.51,1177.93 -624.68,1156.12 -640.47,1150.51 -679.90,1134.17 -702.38,1125.67" fill="none" stroke="#bcbcbc" stroke-width="8" stroke-linecap="round" stroke-linejoin="round" /><polyline points="157.93,156.47 151.44,155.13 64.74,165.38 33.75,167.97" fill="none" stroke="#bcbcbc" stroke-width="8" stroke-linecap="round" stroke-linejoin="round" /><polyline points="-3.34,972.54 -0.30,967.46 17.89,920.73 38.22,850.07 43.41,834.85 46.18,830.71 65.81,767.71 66.78,760.19 67.52,755.27" fill="none" stroke="#bcbcbc" stroke-width="8" stroke-linecap="round" stroke-linejoin="round" /><polyline points="86.01,290.01 88.08,289.22 90.89,286.99 95.15,282.00 150.51,202.56 165.26,181.55" fill="none" stroke="#bcbcbc" stroke-width="8" stroke-linecap="round" stroke-linejoin="round" /><polyline points="332.39,581.81 333.52,578.55 361.35,545.81 363.39,544.72 368.23,538.11 384.42,519.51 389.45,514.88" fill="none" stroke="#bcbcbc" stroke-width="8" stroke-linecap="round" stroke-linejoin="round" /><polyline points="356.71,824.78 356.32,820.40 356.03,817.01 354.56,810.53 352.81,806.30 350.62,795.20 350.42,791.17 348.94,782.19 342.32,778.73 337.02,780.75 327.55,783.02 320.05,784.19 312.86,785.93 302.93,788.19 298.40,789.22" fill="none" stroke="#bcbcbc" stroke-width="8" stroke-linecap="round" stroke-linejoin="round" /><polyline points="-374.38,663.99 -354.14,616.54 -353.02,613.46" fill="none" stroke="#bcbcbc" stroke-width="8" stroke-linecap="round" stroke-linejoin="round" /><polyline points="158.97,576.99 168.72,573.21 173.82,571.24 177.76,567.24 194.03,563.23 199.48,564.62 211.25,561.59 220.23,559.28 222.37,558.09 231.08,555.95 275.59,545.05 285.68,542.03" fill="none" stroke="#bcbcbc" stroke-width="8" stroke-linecap="round" stroke-linejoin="round" /><polyline points="-251.65,978.75 -230.65,971.13 -223.63,968.98 -216.56,966.82 -203.51,962.84 -193.35,961.37 -158.68,957.58 -151.71,957.20 -120.69,957.47 -101.79,957.63 -94.68,957.26 -83.30,958.42 -79.74,958.93 -72.48,959.96 -50.56,964.78" fill="none" stroke="#bcbcbc" stroke-width="8" stroke-linecap="round" stroke-linejoin="round" /><polyline points="-151.60,355.27 -155.08,343.51 -168.00,299.82 -183.69,250.00 -186.93,241.10 -190.22,232.77 -194.38,220.76" fill="none" stroke="#bcbcbc" stroke-width="8" stroke-linecap="round" stroke-linejoin="round" /><polyline points="-189.18,1059.75 -186.42,1051.03 -158.50,962.99 -158.68,957.58" fill="none" stroke="#bcbcbc" stroke-width="8" stroke-linecap="round" stroke-linejoin="round" /><polyline points="-151.71,957.20 -146.19,883.07 -145.63,877.03 -144.79,870.00 -144.77,869.68 -144.41,861.08 -142.57,837.75 -141.52,826.88 -140.10,814.54 -138.81,805.65 -137.64,800.07 -136.18,795.85 -133.31,786.34 -127.38,766.55 -119.84,741.00 -111.53,714.88 -109.83,709.55 -108.47,705.69" fill="none" stroke="#bcbcbc" stroke-width="8" stroke-linecap="round" stroke-linejoin="round" /><polyline points="-332.30,804.55 -333.77,811.12 -333.51,813.22 -324.51,888.21 -323.55,896.15 -323.97,904.32 -326.33,950.96 -327.31,970.44 -327.82,980.49 -328.73,998.41 -329.20,1007.73 -330.22,1011.44" fill="none" stroke="#bcbcbc" stroke-width="8" stroke-linecap="round" stroke-linejoin="round" /><polyline points="-374.38,663.99 -407.13,654.25 -411.29,651.58 -431.67,645.65 -437.40,645.71 -463.00,637.99 -467.14,634.94 -490.44,627.88 -519.03,620.08 -519.17,620.07 -523.91,619.66" fill="none" stroke="#bcbcbc" stroke-width="8" stroke-linecap="round" stroke-linejoin="round" /><polyline points="222.37,558.09 223.51,559.58 228.26,566.66 237.03,579.74 245.30,588.02 261.18,605.85 258.50,622.33 257.13,628.51 255.24,631.13 259.22,637.02 265.38,649.70 277.69,673.45 283.76,685.15 287.53,695.66 289.23,700.55" fill="none" stroke="#bcbcbc" stroke-width="8" stroke-linecap="round" stroke-linejoin="round" /><polyline points="305.30,592.03 300.74,593.45 270.67,602.80 266.36,604.19 261.18,605.85" fill="none" stroke="#bcbcbc" stroke-width="8" stroke-linecap="round" stroke-linejoin="round" /><polyline points="89.21,648.99 98.62,645.95 166.87,611.09 176.01,606.63 208.18,597.33 239.37,588.56 245.30,588.02" fill="none" stroke="#bcbcbc" stroke-width="8" stroke-linecap="round" stroke-linejoin="round" /><polyline points="96.65,692.14 175.34,655.52 178.65,653.33 186.35,651.09 238.78,635.83 246.73,632.79 255.24,631.13" fill="none" stroke="#bcbcbc" stroke-width="8" stroke-linecap="round" stroke-linejoin="round" /><polyline points="80.59,-75.59 112.45,-71.65 115.65,-71.26 128.00,-68.23" fill="none" stroke="#bcbcbc" stroke-width="8" stroke-linecap="round" stroke-linejoin="round" /><polyline points="352.80,248.28 358.45,247.10 379.56,257.45 382.34,260.20 421.96,327.27 423.00,335.40 428.15,339.70 427.33,342.66 427.21,347.50 427.92,354.26 438.42,397.39 439.35,427.26 440.82,474.96 443.28,539.16 433.23,567.13 426.76,584.19 417.31,608.22 414.57,615.17 412.80,617.11 409.94,635.71" fill="none" stroke="#bcbcbc" stroke-width="8" stroke-linecap="round" stroke-linejoin="round" /><polyline points="426.05,749.01 416.42,744.82 392.34,728.01 360.57,705.69 343.09,691.56 331.30,678.93" fill="none" stroke="#bcbcbc" stroke-width="8" stroke-linecap="round" stroke-linejoin="round" /><polyline points="36.17,1124.90 26.71,1121.90 11.35,1117.03 4.03,1114.71 -4.58,1111.98 -15.46,1108.53 -25.29,1105.41 -35.01,1102.33 -78.36,1088.57 -85.95,1086.17 -95.38,1083.18 -97.46,1082.52 -122.26,1075.97 -129.26,1074.28 -138.03,1072.15 -147.22,1069.93 -180.30,1061.90 -189.18,1059.75 -198.72,1056.44 -218.64,1049.52 -226.15,1046.91 -232.87,1044.73 -264.06,1033.64 -267.99,1031.29 -269.88,1027.22" fill="none" stroke="#bcbcbc" stroke-width="8" stroke-linecap="round" stroke-linejoin="round" /><polyline points="178.65,653.33 176.35,645.09 169.51,620.53 166.87,611.09 163.06,604.03 162.71,602.72 160.47,594.41 163.08,590.73 159.94,580.25 158.97,576.99" fill="none" stroke="#bcbcbc" stroke-width="8" stroke-linecap="round" stroke-linejoin="round" /><polyline points="-227.10,486.51 -221.97,488.59 -218.58,489.63 -154.96,509.18 -145.24,512.16" fill="none" stroke="#bcbcbc" stroke-width="8" stroke-linecap="round" stroke-linejoin="round" /><polyline points="-681.50,629.58 -726.95,615.82" fill="none" stroke="#bcbcbc" stroke-width="8" stroke-linecap="round" stroke-linejoin="round" /><polyline points="52.66,-11.39 63.93,2.88 65.61,5.02 71.30,12.22 77.78,12.98 91.11,14.55 93.48,16.18" fill="none" stroke="#bcbcbc" stroke-width="8" stroke-linecap="round" stroke-linejoin="round" /><polyline points="443.97,623.59 426.11,626.92 407.80,636.87 390.83,646.32 374.78,654.35 355.38,664.88 341.34,673.41 313.58,688.30 205.22,742.81 177.13,755.19 158.57,763.21 149.37,766.23 141.77,767.65 129.31,768.40 111.58,765.89 67.36,755.27 4.57,740.64 -78.04,715.72 -108.47,705.69 -158.30,690.30 -205.96,674.58 -275.85,647.16 -310.80,632.11 -352.94,613.38 -422.83,575.08 -439.22,564.21 -480.69,538.13 -498.08,520.74 -524.16,486.96 -567.14,442.64 -584.03,427.76" fill="none" stroke="#bcbcbc" stroke-width="8" stroke-linecap="round" stroke-linejoin="round" /><polyline points="105.16,1146.71 105.89,1142.63 108.54,1135.96 133.32,1077.95 142.69,1056.21 153.72,1029.12 156.41,1019.21" fill="none" stroke="#bcbcbc" stroke-width="8" stroke-linecap="round" stroke-linejoin="round" /><polyline points="-370.34,901.83 -398.49,888.20 -462.56,857.19 -541.14,819.16 -548.16,815.77" fill="none" stroke="#bcbcbc" stroke-width="8" stroke-linecap="round" stroke-linejoin="round" /><polyline points="92.40,452.98 99.51,445.70 118.41,426.34 133.41,409.96" fill="none" stroke="#bcbcbc" stroke-width="8" stroke-linecap="round" stroke-linejoin="round" /><polyline points="-453.45,496.09 -461.26,485.75 -497.86,437.29 -550.11,395.01" fill="none" stroke="#bcbcbc" stroke-width="8" stroke-linecap="round" stroke-linejoin="round" /><polyline points="-680.18,1134.05 -673.04,1117.11 -650.32,1060.47 -647.57,1053.04 -644.51,1044.79 -643.36,1041.81 -643.05,1037.15 -640.14,993.12 -639.31,980.49" fill="none" stroke="#bcbcbc" stroke-width="8" stroke-linecap="round" stroke-linejoin="round" /><polyline points="-695.68,678.77 -681.50,629.58 -662.79,564.70 -660.47,556.67 -657.90,547.55 -652.13,527.12 -651.53,524.97 -649.88,518.41 -647.24,510.98 -646.60,509.18 -643.28,500.94 -636.75,486.53 -634.80,482.40" fill="none" stroke="#bcbcbc" stroke-width="8" stroke-linecap="round" stroke-linejoin="round" /><polyline points="-660.47,556.67 -631.78,564.01 -571.00,579.63 -536.37,590.42 -521.92,593.80" fill="none" stroke="#bcbcbc" stroke-width="8" stroke-linecap="round" stroke-linejoin="round" /><polyline points="-69.82,333.48 -68.84,327.51 -67.86,321.31 -63.65,300.57 -53.13,252.29 -44.49,209.11 -42.91,200.15 -40.77,187.98 -40.77,187.97" fill="none" stroke="#bcbcbc" stroke-width="8" stroke-linecap="round" stroke-linejoin="round" /><polyline points="-154.77,1263.11 -141.96,1230.43 -140.37,1224.56 -89.53,1095.48 -85.95,1086.17 -83.06,1078.27 -52.68,989.87 -46.83,984.77" fill="none" stroke="#bcbcbc" stroke-width="8" stroke-linecap="round" stroke-linejoin="round" /><polyline points="19.51,308.49 19.51,308.48 17.71,299.03 17.43,297.88 13.03,280.01 13.04,279.96 10.04,267.85 -2.65,224.36 -4.25,219.70 -12.81,196.41 -15.60,189.45 -17.40,184.97 -19.73,179.87 -19.73,179.86 -19.73,179.84 -21.43,161.11 -21.60,151.92" fill="none" stroke="#bcbcbc" stroke-width="8" stroke-linecap="round" stroke-linejoin="round" /><polyline points="0.49,1046.29 -2.77,1049.82 -7.63,1055.60 -21.33,1094.23 -25.29,1105.41" fill="none" stroke="#bcbcbc" stroke-width="8" stroke-linecap="round" stroke-linejoin="round" /><polyline points="-227.10,486.51 -225.23,481.44 -224.81,480.26 -215.91,455.41 -212.57,444.95 -185.31,364.77" fill="none" stroke="#bcbcbc" stroke-width="8" stroke-linecap="round" stroke-linejoin="round" /><polyline points="-86.07,598.91 -83.29,591.52 -75.75,571.50 -72.57,563.04 -70.41,557.32 -64.37,541.26 -60.37,530.65 -59.84,529.22 -50.16,503.52 -46.12,504.77 -43.92,498.81 -40.05,488.25 -40.79,483.46 -30.50,455.43 -29.44,452.56 -27.49,450.76 -25.85,449.25 -15.53,421.04 -14.03,413.31 0.77,372.17 4.28,369.43 11.40,349.27 10.14,346.17 16.37,327.35 13.14,310.54" fill="none" stroke="#bcbcbc" stroke-width="8" stroke-linecap="round" stroke-linejoin="round" /><polyline points="178.83,-166.47 174.68,-173.28 152.88,-209.05" fill="none" stroke="#bcbcbc" stroke-width="8" stroke-linecap="round" stroke-linejoin="round" /><polyline points="247.13,304.90 347.19,369.25 347.22,369.29 347.22,369.30 365.72,371.70" fill="none" stroke="#bcbcbc" stroke-width="8" stroke-linecap="round" stroke-linejoin="round" /><polyline points="207.00,170.48 313.46,223.92 316.68,226.32 316.46,243.81 318.62,261.76" fill="none" stroke="#bcbcbc" stroke-width="8" stroke-linecap="round" stroke-linejoin="round" /><polyline points="4.03,1114.71 0.20,1126.39 -15.32,1173.71 -41.70,1253.38 -43.57,1259.04 -45.47,1264.76 -46.00,1270.86" fill="none" stroke="#bcbcbc" stroke-width="8" stroke-linecap="round" stroke-linejoin="round" /><polyline points="303.73,827.30 304.37,821.37 304.51,815.83 304.46,815.63 300.69,799.33 299.14,792.51 298.40,789.22 297.63,785.86 293.49,767.62 285.40,731.16 279.53,709.24 278.69,705.85" fill="none" stroke="#bcbcbc" stroke-width="8" stroke-linecap="round" stroke-linejoin="round" /><polyline points="-224.83,1161.08 -222.19,1153.57 -192.55,1069.31 -189.18,1059.75" fill="none" stroke="#bcbcbc" stroke-width="8" stroke-linecap="round" stroke-linejoin="round" /><polyline points="440.82,474.96 432.09,472.50 372.86,381.60 365.72,371.70" fill="none" stroke="#bcbcbc" stroke-width="8" stroke-linecap="round" stroke-linejoin="round" /><polyline points="-532.91,693.06 -317.03,744.78 -302.15,750.21" fill="none" stroke="#bcbcbc" stroke-width="8" stroke-linecap="round" stroke-linejoin="round" /><polyline points="147.97,-115.10 232.06,-83.95 243.89,-85.97" fill="none" stroke="#bcbcbc" stroke-width="8" stroke-linecap="round" stroke-linejoin="round" />
    <polyline points="167.20,352.80 173.71,349.73 209.28,330.12 229.62,317.04 243.96,307.26 247.13,304.90 258.67,296.87 270.63,288.04 278.21,282.53 287.24,275.92 318.62,261.76 322.69,261.98 328.64,259.16 352.80,248.28" fill="none" stroke="#ffffff" stroke-width="16" stroke-linecap="round" stroke-linejoin="round" />
    <polyline points="167.20,352.80 173.71,349.73 209.28,330.12 229.62,317.04 243.96,307.26 247.13,304.90 258.67,296.87 270.63,288.04 278.21,282.53 287.24,275.92 318.62,261.76 322.69,261.98 328.64,259.16 352.80,248.28" fill="none" stroke="#111111" stroke-width="9" stroke-linecap="round" stroke-linejoin="round" />
    
            <g transform="translate(167.20,352.80)">
              <circle r="19" fill="#ffffff" stroke="#111111" stroke-width="4" />
              <text text-anchor="middle" dominant-baseline="central" font-family="Helvetica, Arial, sans-serif"
                font-size="18" font-weight="700" fill="#111111">1</text>
            </g>
            
            <g transform="translate(352.80,248.28)">
              <circle r="19" fill="#ffffff" stroke="#111111" stroke-width="4" />
              <text text-anchor="middle" dominant-baseline="central" font-family="Helvetica, Arial, sans-serif"
                font-size="18" font-weight="700" fill="#111111">2</text>
            </g>
            
  </g>
</svg>
