<svg xmlns="http://www.w3.org/2000/svg" width="520" height="520" viewBox="0 0 520 520">
  <rect width="100%" height="100%" fill="#ffffff" />
  <g>
    <polyline points="1482.06,-245.49 1486.59,-221.39 1515.84,-16.80 1511.36,34.34" fill="none" stroke="#bcbcbc" stroke-width="8" stroke-linecap="round" stroke-linejoin="round" /><polyline points="887.65,1459.38 894.72,1437.65 932.18,1322.43 936.60,1308.85 941.06,1294.60 1035.26,994.20 1042.84,970.04 1025.49,927.31" fill="none" stroke="#bcbcbc" stroke-width="8" stroke-linecap="round" stroke-linejoin="round" /><polyline points="236.98,1192.20 235.46,1174.95 266.26,1002.46 270.57,980.88 273.80,969.58 282.28,925.83 291.80,872.30 302.18,825.14 312.48,778.10 318.96,764.83 323.20,756.70" fill="none" stroke="#bcbcbc" stroke-width="8" stroke-linecap="round" stroke-linejoin="round" /><polyline points="415.74,-24.52 408.42,-46.84 332.73,-277.67 329.04,-287.35" fill="none" stroke="#bcbcbc" stroke-width="8" stroke-linecap="round" stroke-linejoin="round" /><polyline points="27.40,2006.99 29.66,1984.96 30.58,1974.85 38.82,1883.72 47.84,1803.47 49.94,1784.73 51.90,1762.25 52.12,1760.36 57.23,1715.67 61.64,1670.24 66.50,1626.39 69.77,1592.26 71.13,1571.20 72.34,1551.75 74.48,1529.83" fill="none" stroke="#bcbcbc" stroke-width="8" stroke-linecap="round" stroke-linejoin="round" /><polyline points="1073.13,1512.94 1078.52,1495.99 1116.50,1376.61 1120.81,1363.04 1126.94,1343.72 1131.34,1329.87 1164.95,1184.89" fill="none" stroke="#bcbcbc" stroke-width="8" stroke-linecap="round" stroke-linejoin="round" /><polyline points="925.50,-848.54 939.53,-846.39 1325.99,-787.01" fill="none" stroke="#bcbcbc" stroke-width="8" stroke-linecap="round" stroke-linejoin="round" /><polyline points="-66.61,1484.81 -106.83,1482.93 -131.36,1481.79 -144.69,1481.17 -156.38,1480.63 -247.47,1476.39 -374.16,1470.50 -434.55,1461.94 -454.76,1459.07 -472.30,1455.98 -591.07,1435.01 -607.67,1432.08 -611.35,1431.45 -631.86,1427.94 -647.62,1425.24 -748.26,1416.34 -767.43,1414.65 -774.46,1414.02 -796.22,1412.51 -838.82,1409.56" fill="none" stroke="#bcbcbc" stroke-width="8" stroke-linecap="round" stroke-linejoin="round" /><polyline points="517.78,1368.10 525.57,1345.93 595.78,1151.30 680.24,905.81 685.65,890.41 689.42,879.66 692.48,870.83" fill="none" stroke="#bcbcbc" stroke-width="8" stroke-linecap="round" stroke-linejoin="round" /><polyline points="-774.46,1414.02 -776.25,1401.51 -776.68,1387.92 -774.01,1360.55 -767.90,1310.57 -763.82,1293.80 -757.20,1233.15 -756.00,1219.64 -754.06,1202.28 -752.62,1189.38 -749.91,1174.76 -744.88,1135.43 -741.39,1105.34 -736.26,1093.03" fill="none" stroke="#bcbcbc" stroke-width="8" stroke-linecap="round" stroke-linejoin="round" /><polyline points="-846.32,1077.65 -752.67,1090.74 -736.26,1093.03 -726.09,1094.65 -684.11,1101.34 -587.39,1116.75 -570.80,1119.52" fill="none" stroke="#bcbcbc" stroke-width="8" stroke-linecap="round" stroke-linejoin="round" /><polyline points="877.14,-150.88 877.75,-142.37 879.01,-133.75 882.05,-127.15 887.74,-119.79 898.27,-110.20 923.23,-95.01 1115.78,25.79 1234.36,184.78 1323.93,405.84 1329.78,420.44" fill="none" stroke="#bcbcbc" stroke-width="8" stroke-linecap="round" stroke-linejoin="round" /><polyline points="846.31,494.13 850.30,500.74 851.33,502.45 854.64,519.13 877.23,628.37 884.40,663.04 889.53,687.74 897.53,737.79 901.27,760.88 903.84,774.96 906.66,787.68 910.03,795.10 914.98,803.69 917.62,807.75 967.65,879.37 994.71,921.98 1001.77,932.17" fill="none" stroke="#bcbcbc" stroke-width="8" stroke-linecap="round" stroke-linejoin="round" /><polyline points="-589.92,1861.96 -587.26,1845.57 -584.79,1833.71 -584.13,1832.14 -550.83,1752.96 -529.61,1701.51 -523.16,1685.20 -516.33,1667.93 -508.92,1653.08 -507.72,1650.18 -497.56,1625.64 -489.72,1603.92 -482.98,1584.00 -478.71,1569.92 -473.92,1552.52 -468.39,1529.19 -464.20,1510.27 -459.19,1483.85 -458.13,1477.96 -454.76,1459.07" fill="none" stroke="#bcbcbc" stroke-width="8" stroke-linecap="round" stroke-linejoin="round" /><polyline points="1023.40,-349.15 1129.57,-274.95 1143.88,-271.92 1154.35,-259.94" fill="none" stroke="#bcbcbc" stroke-width="8" stroke-linecap="round" stroke-linejoin="round" /><polyline points="577.56,336.05 591.59,341.45 652.52,361.38 793.83,415.58 801.76,423.48 805.48,429.38" fill="none" stroke="#bcbcbc" stroke-width="8" stroke-linecap="round" stroke-linejoin="round" /><polyline points="840.90,1728.67 850.52,1703.59 898.03,1574.70 931.62,1477.31 938.58,1474.11" fill="none" stroke="#bcbcbc" stroke-width="8" stroke-linecap="round" stroke-linejoin="round" /><polyline points="169.36,1565.23 176.85,1548.66 177.59,1547.02 190.42,1504.00 211.43,1433.18 216.81,1415.05 220.99,1400.97 221.55,1392.77 220.70,1374.61" fill="none" stroke="#bcbcbc" stroke-width="8" stroke-linecap="round" stroke-linejoin="round" /><polyline points="1042.56,499.79 1030.52,502.28 1003.22,497.42 999.00,486.16 951.70,468.13 940.52,471.05 897.85,455.39 891.49,459.83" fill="none" stroke="#bcbcbc" stroke-width="8" stroke-linecap="round" stroke-linejoin="round" /><polyline points="972.34,-963.10 993.77,-957.85 1005.63,-955.79 1287.54,-906.91" fill="none" stroke="#bcbcbc" stroke-width="8" stroke-linecap="round" stroke-linejoin="round" /><polyline points="753.23,1650.18 764.96,1617.12 787.75,1552.86 802.47,1525.49 823.67,1466.16 832.13,1442.47" fill="none" stroke="#bcbcbc" stroke-width="8" stroke-linecap="round" stroke-linejoin="round" /><polyline points="-791.40,366.96 -811.82,366.03 -816.93,372.24 -852.50,415.47 -976.85,559.10 -994.34,579.31" fill="none" stroke="#bcbcbc" stroke-width="8" stroke-linecap="round" stroke-linejoin="round" /><polyline points="299.29,489.98 290.28,509.94 289.18,512.36 257.87,594.02 226.30,683.91 217.89,707.89 213.11,720.26" fill="none" stroke="#bcbcbc" stroke-width="8" stroke-linecap="round" stroke-linejoin="round" /><polyline points="758.64,-427.59 768.59,-414.09 775.69,-395.53 786.75,-368.89 804.48,-326.99 820.20,-289.38 838.23,-248.07 851.61,-216.25 853.59,-211.68 853.71,-211.39 864.48,-186.22 867.70,-179.07 870.76,-172.25 874.00,-165.87 876.43,-159.39 877.14,-150.88" fill="none" stroke="#bcbcbc" stroke-width="8" stroke-linecap="round" stroke-linejoin="round" /><polyline points="-2.96,892.54 2.24,889.69 9.53,883.90 13.18,876.39 61.56,692.94 63.02,682.59 68.92,663.69" fill="none" stroke="#bcbcbc" stroke-width="8" stroke-linecap="round" stroke-linejoin="round" /><polyline points="1688.78,605.45 1695.64,627.23 1700.48,650.12 1691.07,737.31 1680.20,802.90 1674.27,825.28 1673.73,827.30 1668.53,839.38 1661.44,852.18 1644.89,873.12 1652.90,914.05 1626.97,1001.91 1612.65,1050.44 1583.37,1129.86 1540.47,1226.57 1488.10,1319.25 1471.74,1349.37 1442.17,1398.85 1324.03,1566.54 1298.14,1601.42 1197.90,1732.42 1140.35,1797.89 1059.86,1879.71 1052.41,1880.47 1034.23,1895.34" fill="none" stroke="#bcbcbc" stroke-width="8" stroke-linecap="round" stroke-linejoin="round" /><polyline points="230.96,2039.82 263.94,1937.53 269.34,1920.64 276.66,1910.00 292.41,1862.73 297.54,1846.67 362.61,1642.95 369.15,1622.47 374.54,1604.46 451.33,1362.80" fill="none" stroke="#bcbcbc" stroke-width="8" stroke-linecap="round" stroke-linejoin="round" /><polyline points="1003.56,137.56 1032.07,106.41 1040.48,96.27 1098.08,14.68" fill="none" stroke="#bcbcbc" stroke-width="8" stroke-linecap="round" stroke-linejoin="round" /><polyline points="433.71,149.90 512.22,177.23 516.56,184.28 538.85,191.76 552.09,196.28 615.37,217.66" fill="none" stroke="#bcbcbc" stroke-width="8" stroke-linecap="round" stroke-linejoin="round" /><polyline points="1118.03,-393.42 1154.35,-259.94 1196.39,-102.69 1202.76,-89.59 1203.77,-74.63 1232.28,-21.40 1309.21,122.07 1326.03,146.88 1330.90,154.14 1445.84,369.04 1498.67,417.06 1506.08,426.63 1516.53,435.56 1616.83,521.33 1623.63,527.15 1641.65,536.71" fill="none" stroke="#bcbcbc" stroke-width="8" stroke-linecap="round" stroke-linejoin="round" /><polyline points="727.95,2061.53 978.09,1916.22 1022.62,1893.45 1034.23,1895.34" fill="none" stroke="#bcbcbc" stroke-width="8" stroke-linecap="round" stroke-linejoin="round" /><polyline points="999.16,1853.66 1014.68,1835.21 1154.01,1557.18 1163.24,1538.95 1170.95,1520.91 1215.96,1409.61 1229.36,1376.08 1268.15,1258.67 1293.30,1107.74 1296.29,1085.77" fill="none" stroke="#bcbcbc" stroke-width="8" stroke-linecap="round" stroke-linejoin="round" /><polyline points="891.63,218.61 889.19,221.11 885.83,232.81 885.50,233.97 870.38,292.20 874.35,307.40 871.05,321.03 866.73,338.86 855.67,351.68 843.11,402.55 828.32,413.73 812.53,424.55 805.48,429.38" fill="none" stroke="#bcbcbc" stroke-width="8" stroke-linecap="round" stroke-linejoin="round" /><polyline points="299.29,489.98 305.72,473.51 344.37,374.41 352.80,352.80 359.75,335.00 409.14,208.46 431.37,155.55 433.71,149.90 450.99,108.12 489.77,11.84 503.97,-29.15 507.13,-38.55 511.38,-49.21" fill="none" stroke="#bcbcbc" stroke-width="8" stroke-linecap="round" stroke-linejoin="round" /><polyline points="731.83,-110.71 739.31,-88.46 984.62,121.08 1118.49,237.55 1318.43,411.36 1335.88,425.32 1343.70,430.21 1378.39,461.71 1424.73,501.23 1529.82,590.83 1563.76,620.02 1586.29,646.97" fill="none" stroke="#bcbcbc" stroke-width="8" stroke-linecap="round" stroke-linejoin="round" /><polyline points="1137.44,-471.78 1149.89,-479.76 1223.60,-510.39 1238.75,-526.33" fill="none" stroke="#bcbcbc" stroke-width="8" stroke-linecap="round" stroke-linejoin="round" /><polyline points="1222.58,1393.03 1120.81,1363.04 936.60,1308.86" fill="none" stroke="#bcbcbc" stroke-width="8" stroke-linecap="round" stroke-linejoin="round" /><polyline points="894.07,-771.72 907.97,-762.13 1360.95,-661.34" fill="none" stroke="#bcbcbc" stroke-width="8" stroke-linecap="round" stroke-linejoin="round" /><polyline points="1453.60,719.73 1430.19,667.64 1378.24,543.73 1374.37,533.88 1365.48,511.26 1331.99,426.05 1329.88,420.52" fill="none" stroke="#bcbcbc" stroke-width="8" stroke-linecap="round" stroke-linejoin="round" /><polyline points="758.64,-427.59 733.49,-434.74 715.01,-440.25 677.45,-451.40 658.37,-456.84 647.43,-459.88 633.16,-463.97" fill="none" stroke="#bcbcbc" stroke-width="8" stroke-linecap="round" stroke-linejoin="round" /><polyline points="102.92,253.93 101.65,249.77 100.48,246.86 95.29,233.97 75.21,187.16 56.13,139.61 52.01,128.38 47.26,115.45 43.87,104.87 38.26,89.01 37.67,87.34 19.41,42.34 -14.11,-42.24 -21.64,-46.53 -26.99,-60.25 -37.68,-97.39 -55.99,-143.42 -59.94,-153.89" fill="none" stroke="#bcbcbc" stroke-width="8" stroke-linecap="round" stroke-linejoin="round" /><polyline points="263.94,1937.53 282.97,1943.36 344.56,1962.13 363.85,1968.01" fill="none" stroke="#bcbcbc" stroke-width="8" stroke-linecap="round" stroke-linejoin="round" /><polyline points="1414.03,-449.63 1417.62,-464.15 1416.16,-469.66 1414.40,-476.31 1403.16,-517.50 1378.09,-604.59 1364.86,-649.11 1360.95,-661.34 1325.99,-787.01 1307.12,-854.79 1287.54,-906.91 1269.85,-953.93 1252.24,-986.26 1235.13,-1003.34 1103.76,-1163.87 1094.04,-1175.30 1087.60,-1185.86" fill="none" stroke="#bcbcbc" stroke-width="8" stroke-linecap="round" stroke-linejoin="round" /><polyline points="877.14,-150.88 870.37,-148.29 857.84,-144.83 856.59,-144.49 804.27,-131.11 744.11,-114.17 731.83,-110.71 726.36,-108.97 711.91,-104.33 699.56,-100.89 645.61,-85.88 556.90,-60.68 523.83,-52.32 511.38,-49.21 452.26,-34.69 415.74,-24.52 338.39,-2.91 261.95,18.63 253.11,21.09 189.22,38.82 159.75,47.00 144.87,54.03 116.70,68.00 60.75,96.39 56.85,98.37 43.87,104.87 35.94,108.83 24.89,114.63 -14.42,135.24 -86.03,175.42 -145.86,206.76 -154.42,211.25 -165.85,211.96 -172.72,215.61 -174.09,216.34 -238.99,251.90 -252.58,251.84 -268.18,260.01 -273.63,262.86 -278.22,265.26 -289.07,270.94 -297.62,290.44 -334.35,310.11 -346.03,316.37 -358.67,323.24 -409.77,351.06 -436.19,365.43 -449.51,369.27" fill="none" stroke="#bcbcbc" stroke-width="8" stroke-linecap="round" stroke-linejoin="round" /><polyline points="1612.65,1050.44 1585.38,1052.94 1500.20,1060.74 1496.36,1061.09 1490.92,1061.59 1482.13,1062.40 1399.54,1069.98 1370.81,1067.32 1337.36,1075.70 1310.56,1082.27 1296.29,1085.77 1260.82,1087.11 1230.13,1085.55 1214.48,1083.89 1201.17,1079.86 1191.36,1074.44 1154.83,1048.62 1066.09,987.66 1057.73,981.99 1049.21,976.21 1042.84,970.04" fill="none" stroke="#bcbcbc" stroke-width="8" stroke-linecap="round" stroke-linejoin="round" /><polyline points="-397.26,21.39 -365.06,84.43 -360.19,102.45 -333.06,154.20 -321.86,169.01 -276.52,257.22 -273.63,262.86" fill="none" stroke="#bcbcbc" stroke-width="8" stroke-linecap="round" stroke-linejoin="round" /><polyline points="589.52,582.02 584.70,595.27 583.35,599.39 577.06,618.46 537.22,729.60 517.45,784.80 516.77,786.68 508.83,803.84 504.27,814.03" fill="none" stroke="#bcbcbc" stroke-width="8" stroke-linecap="round" stroke-linejoin="round" /><polyline points="1118.03,-393.42 1113.62,-402.88 1102.01,-404.40 1064.46,-395.79 1056.83,-396.78 1050.85,-404.79 1040.22,-453.66 1097.77,-462.56 1124.41,-470.43 1137.44,-471.78 1151.48,-421.89" fill="none" stroke="#bcbcbc" stroke-width="8" stroke-linecap="round" stroke-linejoin="round" /><polyline points="1326.03,146.88 1340.85,138.55 1415.31,93.68 1435.21,81.83 1470.04,61.07 1527.35,24.01 1540.72,14.40 1641.23,-47.96" fill="none" stroke="#bcbcbc" stroke-width="8" stroke-linecap="round" stroke-linejoin="round" /><polyline points="1677.38,441.40 1651.97,433.83 1637.20,421.72 1580.74,372.86 1578.81,371.14 1565.16,358.96 1557.14,344.74 1415.31,93.68" fill="none" stroke="#bcbcbc" stroke-width="8" stroke-linecap="round" stroke-linejoin="round" /><polyline points="76.76,421.51 299.29,489.98 317.44,495.74 483.51,548.38 486.97,549.48 511.85,557.37 524.08,561.25 539.98,565.60 572.76,576.70 589.52,582.02 604.61,586.80 728.19,626.00 858.66,666.99 869.44,670.38 884.40,663.04" fill="none" stroke="#bcbcbc" stroke-width="8" stroke-linecap="round" stroke-linejoin="round" /><polyline points="731.07,-677.14 827.46,-765.71 843.78,-780.70" fill="none" stroke="#bcbcbc" stroke-width="8" stroke-linecap="round" stroke-linejoin="round" /><polyline points="-883.09,752.09 -529.39,790.00" fill="none" stroke="#bcbcbc" stroke-width="8" stroke-linecap="round" stroke-linejoin="round" /><polyline points="183.93,-235.18 258.27,-261.76 334.96,-289.49 382.60,-308.01 528.07,-360.92 570.29,-375.52 579.11,-378.57 589.68,-382.21 601.55,-386.29 603.01,-386.79 626.97,-396.42 637.39,-400.61" fill="none" stroke="#bcbcbc" stroke-width="8" stroke-linecap="round" stroke-linejoin="round" /><polyline points="683.24,1563.83 753.23,1650.18 796.08,1693.32 814.63,1706.67 840.90,1728.67 865.56,1749.38 886.75,1770.05 887.27,1780.57" fill="none" stroke="#bcbcbc" stroke-width="8" stroke-linecap="round" stroke-linejoin="round" /><polyline points="758.64,-427.59 786.07,-496.34 830.47,-609.54 894.07,-771.72 925.50,-848.54 972.34,-963.10 1010.75,-1056.94 1017.62,-1069.39 1051.40,-1124.61 1053.58,-1128.18 1065.93,-1152.48 1087.60,-1185.86 1099.70,-1204.48 1116.83,-1230.83" fill="none" stroke="#bcbcbc" stroke-width="8" stroke-linecap="round" stroke-linejoin="round" /><polyline points="111.53,1410.71 107.03,1414.30 104.07,1418.58 98.01,1436.42 93.84,1449.30 74.51,1507.09 71.85,1515.42 70.20,1520.60 52.45,1515.51 9.26,1501.03 -33.53,1486.68 -66.61,1484.81" fill="none" stroke="#bcbcbc" stroke-width="8" stroke-linecap="round" stroke-linejoin="round" /><polyline points="-734.27,1812.83 -663.74,1630.69 -655.89,1610.86 -648.85,1591.76 -640.35,1568.68 -629.92,1532.38 -619.04,1487.26 -614.59,1454.94 -611.35,1431.45 -606.78,1414.12 -590.18,1283.87 -570.80,1119.52 -560.76,1041.16 -549.57,949.11 -529.39,790.00 -526.18,762.95 -505.79,596.55 -505.78,587.28 -501.27,537.90 -488.26,433.61 -485.00,415.42 -481.60,405.22 -476.28,393.98 -471.11,385.26 -459.69,372.90 -449.49,369.40" fill="none" stroke="#bcbcbc" stroke-width="8" stroke-linecap="round" stroke-linejoin="round" /><polyline points="805.48,429.38 809.34,435.50 822.28,455.69 841.64,486.73 846.31,494.13 854.03,488.27 891.49,459.83" fill="none" stroke="#bcbcbc" stroke-width="8" stroke-linecap="round" stroke-linejoin="round" /><polyline points="830.47,-609.54 1211.55,-540.64 1251.58,-519.58 1400.88,-445.56 1414.03,-449.63" fill="none" stroke="#bcbcbc" stroke-width="8" stroke-linecap="round" stroke-linejoin="round" /><polyline points="102.92,253.93 96.16,263.79 35.36,293.47 -9.29,350.22 -57.47,380.06 -90.43,404.94 -121.87,430.59 -137.99,445.28 -166.46,481.40 -198.30,527.03 -203.54,535.49" fill="none" stroke="#bcbcbc" stroke-width="8" stroke-linecap="round" stroke-linejoin="round" /><polyline points="167.20,294.65 164.56,300.51 158.80,308.93 147.90,322.34 83.68,403.46 49.71,494.98 -121.79,430.52" fill="none" stroke="#bcbcbc" stroke-width="8" stroke-linecap="round" stroke-linejoin="round" /><polyline points="-90.43,404.94 -97.07,384.84 -125.77,297.95 -136.90,280.78 -155.56,224.83 -157.17,220.00 -154.42,211.25 -158.88,196.99 -248.56,-89.34" fill="none" stroke="#bcbcbc" stroke-width="8" stroke-linecap="round" stroke-linejoin="round" /><polyline points="960.31,-1157.34 1031.18,-1155.48 1034.49,-1155.38 1048.07,-1155.00 1065.93,-1152.48" fill="none" stroke="#bcbcbc" stroke-width="8" stroke-linecap="round" stroke-linejoin="round" /><polyline points="595.78,1151.30 571.59,1151.00 366.69,1178.51 351.92,1180.07 335.03,1181.85 236.98,1192.20 104.88,1206.15 34.85,1213.54 -3.89,1217.62 -35.34,1221.45 -51.49,1223.41 -69.69,1225.62 -157.57,1236.30 -178.63,1238.86 -243.54,1245.96 -590.18,1283.87" fill="none" stroke="#bcbcbc" stroke-width="8" stroke-linecap="round" stroke-linejoin="round" /><polyline points="292.41,1862.73 274.26,1856.89 189.48,1829.60 172.35,1824.08 157.47,1819.29 67.65,1790.43 49.94,1784.73 26.51,1777.19 -116.47,1731.18 -132.56,1726.00" fill="none" stroke="#bcbcbc" stroke-width="8" stroke-linecap="round" stroke-linejoin="round" /><polyline points="646.92,146.20 696.23,161.57 876.57,217.25 878.26,217.77 891.63,218.61" fill="none" stroke="#bcbcbc" stroke-width="8" stroke-linecap="round" stroke-linejoin="round" /><polyline points="1154.35,-259.94 1399.66,-255.62" fill="none" stroke="#bcbcbc" stroke-width="8" stroke-linecap="round" stroke-linejoin="round" /><polyline points="1034.23,1895.34 999.16,1853.66 984.44,1836.54 971.80,1824.73 954.97,1812.16 920.56,1791.52 887.27,1780.57 819.54,1759.65 764.15,1742.07 796.08,1693.32" fill="none" stroke="#bcbcbc" stroke-width="8" stroke-linecap="round" stroke-linejoin="round" /><polyline points="683.24,1563.83 634.41,1503.56 625.12,1492.09 575.94,1424.33 564.81,1403.64 567.48,1379.01 582.31,1378.87 618.89,1385.91 674.55,1396.62" fill="none" stroke="#bcbcbc" stroke-width="8" stroke-linecap="round" stroke-linejoin="round" /><polyline points="44.45,1080.91 53.46,1100.28 104.88,1206.15 181.35,1363.57 191.11,1383.65" fill="none" stroke="#bcbcbc" stroke-width="8" stroke-linecap="round" stroke-linejoin="round" /><polyline points="-779.24,1560.43 -760.84,1567.95 -674.70,1603.17 -655.89,1610.86 -636.10,1618.95 -534.68,1660.42 -516.33,1667.93" fill="none" stroke="#bcbcbc" stroke-width="8" stroke-linecap="round" stroke-linejoin="round" /><polyline points="86.78,923.93 266.26,1002.46" fill="none" stroke="#bcbcbc" stroke-width="8" stroke-linecap="round" stroke-linejoin="round" /><polyline points="891.63,218.61 918.96,220.05 920.71,221.60 932.98,232.48 951.00,248.57 954.33,255.05 1016.47,309.46 1021.07,318.14 1064.76,356.71 1075.76,360.06 1109.75,389.83 1117.36,393.31 1168.62,436.79 1180.03,446.91 1186.33,456.93" fill="none" stroke="#bcbcbc" stroke-width="8" stroke-linecap="round" stroke-linejoin="round" /><polyline points="-829.90,924.11 -549.57,949.11" fill="none" stroke="#bcbcbc" stroke-width="8" stroke-linecap="round" stroke-linejoin="round" /><polyline points="-203.97,1967.99 -195.29,1949.50 -193.05,1941.28 -180.88,1896.39 -136.78,1740.89 -132.56,1726.00 -128.10,1709.67 -108.12,1636.62 -74.38,1513.24 -66.61,1484.81" fill="none" stroke="#bcbcbc" stroke-width="8" stroke-linecap="round" stroke-linejoin="round" /><polyline points="44.45,1080.91 86.78,923.93 -2.96,892.54 -26.46,906.41 -37.17,914.56 -45.10,925.29 -50.68,939.45 -71.32,1015.74 -54.67,1024.21 -37.85,1028.30 -0.65,1037.98 27.18,1046.84 44.45,1080.91" fill="none" stroke="#bcbcbc" stroke-width="8" stroke-linecap="round" stroke-linejoin="round" /><polyline points="-71.32,1015.74 -90.97,1013.00 -549.57,949.11" fill="none" stroke="#bcbcbc" stroke-width="8" stroke-linecap="round" stroke-linejoin="round" /><polyline points="674.55,1396.62 717.09,1405.91 832.13,1442.47 864.29,1452.64 940.64,1474.70 1017.55,1496.88 1074.49,1513.33 1165.56,1539.62 1184.37,1545.06 1230.32,1560.47 1305.98,1580.62 1312.65,1581.87" fill="none" stroke="#bcbcbc" stroke-width="8" stroke-linecap="round" stroke-linejoin="round" /><polyline points="728.51,2061.20 712.99,2065.10 696.21,2111.87 670.19,2104.48 551.87,2064.15 537.62,2061.11 505.94,2058.85 362.65,2059.42 331.07,2055.40 259.73,2044.49 230.96,2039.82 26.88,2006.90 -52.14,1994.29 -202.85,1968.19 -227.19,1963.36 -567.31,1868.29 -588.77,1862.29 -734.27,1812.83 -770.07,1800.13 -859.48,1763.08 -910.44,1743.80" fill="none" stroke="#bcbcbc" stroke-width="8" stroke-linecap="round" stroke-linejoin="round" /><polyline points="1040.22,-453.66 1025.50,-456.69 828.92,-433.45 758.64,-427.59" fill="none" stroke="#bcbcbc" stroke-width="8" stroke-linecap="round" stroke-linejoin="round" /><polyline points="674.55,1396.61 681.44,1385.09 722.69,1279.14 768.78,1118.94 780.54,1084.44 786.83,1075.05 831.33,932.21 833.54,915.15 835.23,904.00" fill="none" stroke="#bcbcbc" stroke-width="8" stroke-linecap="round" stroke-linejoin="round" /><polyline points="877.14,-150.88 881.84,-152.68 888.21,-157.73 897.88,-169.04 1023.40,-349.15 1056.83,-396.78" fill="none" stroke="#bcbcbc" stroke-width="8" stroke-linecap="round" stroke-linejoin="round" /><polyline points="1435.79,510.72 1438.35,503.33 1501.45,429.10 1506.08,426.63 1517.04,411.63 1553.75,369.47 1565.16,358.96" fill="none" stroke="#bcbcbc" stroke-width="8" stroke-linecap="round" stroke-linejoin="round" /><polyline points="1490.92,1061.59 1490.05,1051.66 1489.37,1043.98 1486.05,1029.29 1482.08,1019.70 1477.12,994.53 1476.67,985.41 1473.31,965.03 1458.29,957.18 1446.29,961.77 1424.80,966.92 1407.80,969.58 1391.49,973.51 1368.98,978.64 1358.71,980.98" fill="none" stroke="#bcbcbc" stroke-width="8" stroke-linecap="round" stroke-linejoin="round" /><polyline points="-166.75,697.04 -120.86,589.47 -118.31,582.48" fill="none" stroke="#bcbcbc" stroke-width="8" stroke-linecap="round" stroke-linejoin="round" /><polyline points="1042.56,499.79 1064.68,491.22 1076.24,486.75 1085.19,477.69 1122.06,468.60 1134.43,471.75 1161.12,464.88 1181.48,459.63 1186.33,456.93 1206.07,452.09 1307.00,427.36 1329.88,420.52" fill="none" stroke="#bcbcbc" stroke-width="8" stroke-linecap="round" stroke-linejoin="round" /><polyline points="111.53,1410.71 159.14,1393.41 175.07,1388.55 191.11,1383.65 220.70,1374.61 243.72,1371.30 322.34,1362.70 338.13,1361.84 408.48,1362.44 451.33,1362.80 467.44,1361.98 493.25,1364.59 501.33,1365.75 517.78,1368.10 567.48,1379.01" fill="none" stroke="#bcbcbc" stroke-width="8" stroke-linecap="round" stroke-linejoin="round" /><polyline points="338.39,-2.91 330.51,-29.58 301.21,-128.64 265.62,-241.60 258.27,-261.76 250.81,-280.66 241.38,-307.90" fill="none" stroke="#bcbcbc" stroke-width="8" stroke-linecap="round" stroke-linejoin="round" /><polyline points="253.18,1594.34 259.44,1574.58 322.74,1374.97 322.34,1362.70" fill="none" stroke="#bcbcbc" stroke-width="8" stroke-linecap="round" stroke-linejoin="round" /><polyline points="338.13,1361.84 350.67,1193.77 351.92,1180.07 353.84,1164.12 353.87,1163.40 354.69,1143.91 358.87,1091.01 361.23,1066.36 364.46,1038.38 367.40,1018.22 370.03,1005.57 373.35,996.00 379.86,974.45 393.30,929.58 410.40,871.66 429.25,812.42 433.09,800.34 436.18,791.58" fill="none" stroke="#bcbcbc" stroke-width="8" stroke-linecap="round" stroke-linejoin="round" /><polyline points="-71.32,1015.74 -74.65,1030.63 -74.08,1035.39 -53.66,1205.40 -51.49,1223.41 -52.43,1241.93 -57.78,1347.68 -60.02,1391.86 -61.17,1414.64 -63.23,1455.26 -64.30,1476.41 -66.61,1484.81" fill="none" stroke="#bcbcbc" stroke-width="8" stroke-linecap="round" stroke-linejoin="round" /><polyline points="-166.75,697.04 -240.99,674.97 -250.43,668.92 -296.64,655.45 -309.62,655.59 -367.68,638.10 -377.06,631.18 -429.89,615.16 -494.72,597.50 -495.03,597.47 -505.79,596.55" fill="none" stroke="#bcbcbc" stroke-width="8" stroke-linecap="round" stroke-linejoin="round" /><polyline points="1186.33,456.93 1188.90,460.31 1199.67,476.36 1219.57,506.03 1238.31,524.80 1274.32,565.23 1268.24,602.59 1265.15,616.60 1260.85,622.53 1269.88,635.89 1283.85,664.64 1311.77,718.50 1325.52,745.02 1334.06,768.86 1337.92,779.93" fill="none" stroke="#bcbcbc" stroke-width="8" stroke-linecap="round" stroke-linejoin="round" /><polyline points="1374.37,533.88 1364.02,537.10 1295.84,558.32 1286.06,561.46 1274.32,565.23" fill="none" stroke="#bcbcbc" stroke-width="8" stroke-linecap="round" stroke-linejoin="round" /><polyline points="884.40,663.04 905.72,656.13 1060.49,577.10 1081.20,566.98 1154.14,545.92 1224.87,526.03 1238.31,524.80" fill="none" stroke="#bcbcbc" stroke-width="8" stroke-linecap="round" stroke-linejoin="round" /><polyline points="901.27,760.88 1079.69,677.85 1087.20,672.88 1104.64,667.80 1223.53,633.21 1241.57,626.30 1260.85,622.53" fill="none" stroke="#bcbcbc" stroke-width="8" stroke-linecap="round" stroke-linejoin="round" /><polyline points="864.86,-979.80 937.08,-970.87 944.34,-969.97 972.34,-963.10" fill="none" stroke="#bcbcbc" stroke-width="8" stroke-linecap="round" stroke-linejoin="round" /><polyline points="1482.06,-245.49 1494.87,-248.17 1542.73,-224.71 1549.03,-218.47 1638.87,-66.40 1641.23,-47.96 1652.92,-38.23 1651.06,-31.50 1650.77,-20.54 1652.40,-5.21 1676.19,92.58 1678.29,160.31 1681.63,268.45 1687.22,414.01 1664.44,477.44 1649.76,516.11 1628.33,570.60 1622.12,586.36 1618.09,590.76 1611.62,632.93" fill="none" stroke="#bcbcbc" stroke-width="8" stroke-linecap="round" stroke-linejoin="round" /><polyline points="1648.15,889.81 1626.30,880.31 1571.71,842.20 1499.67,791.58 1460.05,759.54 1433.32,730.92" fill="none" stroke="#bcbcbc" stroke-width="8" stroke-linecap="round" stroke-linejoin="round" /><polyline points="764.15,1742.07 742.69,1735.26 707.87,1724.22 691.25,1718.96 671.73,1712.77 647.07,1704.95 624.77,1697.88 602.74,1690.89 504.45,1659.70 487.23,1654.24 465.85,1647.47 461.13,1645.97 404.92,1631.12 389.05,1627.28 369.15,1622.47 348.33,1617.42 273.30,1599.22 253.18,1594.34 231.56,1586.83 186.39,1571.15 169.36,1565.23 154.13,1560.29 83.39,1535.14 74.48,1529.83 70.20,1520.60" fill="none" stroke="#bcbcbc" stroke-width="8" stroke-linecap="round" stroke-linejoin="round" /><polyline points="1087.20,672.88 1081.99,654.20 1066.46,598.52 1060.49,577.10 1051.85,561.10 1051.05,558.13 1045.96,539.28 1051.89,530.93 1044.77,507.17 1042.56,499.79" fill="none" stroke="#bcbcbc" stroke-width="8" stroke-linecap="round" stroke-linejoin="round" /><polyline points="1061.23,-8.51 1076.00,-15.47 1156.65,-59.93 1202.76,-89.59 1235.28,-111.77 1242.46,-117.12 1268.63,-135.31 1295.75,-155.35 1312.93,-167.84 1333.40,-182.82 1404.56,-214.93 1413.78,-214.44 1427.27,-220.82 1482.06,-245.49" fill="none" stroke="#bcbcbc" stroke-width="8" stroke-linecap="round" stroke-linejoin="round" /><polyline points="-863.10,619.03 -966.15,587.84" fill="none" stroke="#bcbcbc" stroke-width="8" stroke-linecap="round" stroke-linejoin="round" /><polyline points="801.52,-834.24 827.07,-801.87 830.88,-797.04 843.78,-780.70 858.48,-778.98 888.70,-775.43 894.07,-771.72" fill="none" stroke="#bcbcbc" stroke-width="8" stroke-linecap="round" stroke-linejoin="round" /><polyline points="1688.78,605.45 1648.29,613.00 1606.78,635.56 1568.29,656.98 1531.90,675.18 1487.91,699.07 1456.07,718.41 1393.13,752.15 1147.45,875.76 1083.75,903.81 1041.67,922.01 1020.82,928.84 1003.56,932.06 975.32,933.77 935.13,928.08 834.85,904.00 692.48,870.83 505.19,814.33 436.18,791.58 323.20,756.70 215.14,721.06 56.66,658.88 -22.58,624.75 -118.12,582.29 -276.60,495.47 -313.76,470.82 -407.78,411.67 -447.21,372.24 -506.36,295.66 -603.80,195.19 -642.09,161.44" fill="none" stroke="#bcbcbc" stroke-width="8" stroke-linecap="round" stroke-linejoin="round" /><polyline points="920.56,1791.52 922.23,1782.25 928.22,1767.12 984.42,1635.62 1005.65,1586.33 1030.67,1524.90 1036.77,1502.42" fill="none" stroke="#bcbcbc" stroke-width="8" stroke-linecap="round" stroke-linejoin="round" /><polyline points="-157.57,1236.30 -221.41,1205.40 -366.68,1135.09 -544.86,1048.86 -560.76,1041.16" fill="none" stroke="#bcbcbc" stroke-width="8" stroke-linecap="round" stroke-linejoin="round" /><polyline points="891.63,218.61 907.75,202.11 950.61,158.23 984.62,121.09" fill="none" stroke="#bcbcbc" stroke-width="8" stroke-linecap="round" stroke-linejoin="round" /><polyline points="-346.03,316.37 -363.74,292.92 -446.73,183.04 -565.19,87.18" fill="none" stroke="#bcbcbc" stroke-width="8" stroke-linecap="round" stroke-linejoin="round" /><polyline points="-860.11,1762.81 -843.91,1724.39 -792.41,1595.98 -786.16,1579.12 -779.24,1560.43 -776.61,1553.68 -775.91,1543.11 -769.32,1443.28 -767.43,1414.65" fill="none" stroke="#bcbcbc" stroke-width="8" stroke-linecap="round" stroke-linejoin="round" /><polyline points="-895.25,730.55 -863.10,619.03 -820.68,471.93 -815.43,453.72 -809.59,433.04 -796.51,386.72 -795.14,381.85 -791.40,366.96 -785.42,350.13 -783.98,346.05 -776.44,327.36 -761.63,294.70 -757.21,285.32" fill="none" stroke="#bcbcbc" stroke-width="8" stroke-linecap="round" stroke-linejoin="round" /><polyline points="-815.42,453.72 -750.36,470.36 -612.54,505.78 -534.03,530.23 -501.27,537.90" fill="none" stroke="#bcbcbc" stroke-width="8" stroke-linecap="round" stroke-linejoin="round" /><polyline points="523.83,-52.32 526.04,-65.86 528.26,-79.92 537.81,-126.94 561.66,-236.40 581.24,-334.31 584.82,-354.63 589.68,-382.21 589.69,-382.23" fill="none" stroke="#bcbcbc" stroke-width="8" stroke-linecap="round" stroke-linejoin="round" /><polyline points="331.19,2055.42 360.24,1981.32 363.85,1968.01 479.14,1675.35 487.23,1654.24 493.79,1636.33 562.68,1435.91 575.94,1424.33" fill="none" stroke="#bcbcbc" stroke-width="8" stroke-linecap="round" stroke-linejoin="round" /><polyline points="726.36,-108.97 726.36,-109.00 722.27,-130.43 721.63,-133.04 711.68,-173.54 711.68,-173.67 704.89,-201.13 676.12,-299.72 672.50,-310.29 653.07,-363.10 646.75,-378.87 642.68,-389.04 637.40,-400.59 637.39,-400.61 637.38,-400.66 633.53,-443.12 633.16,-463.97" fill="none" stroke="#bcbcbc" stroke-width="8" stroke-linecap="round" stroke-linejoin="round" /><polyline points="683.24,1563.83 675.84,1571.83 664.82,1584.94 633.76,1672.52 624.77,1697.88" fill="none" stroke="#bcbcbc" stroke-width="8" stroke-linecap="round" stroke-linejoin="round" /><polyline points="167.20,294.65 171.44,283.15 172.40,280.48 192.57,224.14 200.14,200.41 261.95,18.63" fill="none" stroke="#bcbcbc" stroke-width="8" stroke-linecap="round" stroke-linejoin="round" /><polyline points="486.97,549.48 493.28,532.73 510.36,487.35 517.58,468.17 522.47,455.18 536.18,418.77 545.24,394.72 546.45,391.48 568.39,333.21 577.56,336.05 582.53,322.52 591.32,298.59 589.64,287.72 612.98,224.19 615.37,217.66 619.80,213.59 623.52,210.18 646.92,146.20 650.30,128.69 683.88,35.39 691.82,29.18 707.98,-16.52 705.10,-23.54 719.25,-66.22 711.91,-104.33" fill="none" stroke="#bcbcbc" stroke-width="8" stroke-linecap="round" stroke-linejoin="round" /><polyline points="1087.60,-1185.86 1078.19,-1201.29 1028.76,-1282.40" fill="none" stroke="#bcbcbc" stroke-width="8" stroke-linecap="round" stroke-linejoin="round" /><polyline points="1242.46,-117.12 1469.34,28.77 1469.40,28.87 1469.40,28.90 1511.36,34.34" fill="none" stroke="#bcbcbc" stroke-width="8" stroke-linecap="round" stroke-linejoin="round" /><polyline points="1151.48,-421.89 1392.87,-300.72 1400.15,-295.29 1399.66,-255.62 1404.56,-214.93" fill="none" stroke="#bcbcbc" stroke-width="8" stroke-linecap="round" stroke-linejoin="round" /><polyline points="691.25,1718.96 682.57,1745.44 647.40,1852.71 587.57,2033.37 583.33,2046.18 579.03,2059.17 577.83,2073.00" fill="none" stroke="#bcbcbc" stroke-width="8" stroke-linecap="round" stroke-linejoin="round" /><polyline points="1370.81,1067.32 1372.25,1053.86 1372.56,1041.30 1372.46,1040.86 1363.91,1003.89 1360.40,988.44 1358.71,980.98 1356.98,973.37 1347.59,932.00 1329.25,849.33 1315.92,799.63 1314.03,791.95" fill="none" stroke="#bcbcbc" stroke-width="8" stroke-linecap="round" stroke-linejoin="round" /><polyline points="172.35,1824.08 178.33,1807.07 245.55,1616.03 253.18,1594.34" fill="none" stroke="#bcbcbc" stroke-width="8" stroke-linecap="round" stroke-linejoin="round" /><polyline points="1681.63,268.45 1661.85,262.87 1527.55,56.78 1511.36,34.34" fill="none" stroke="#bcbcbc" stroke-width="8" stroke-linecap="round" stroke-linejoin="round" /><polyline points="-526.18,762.95 -36.71,880.21 -2.96,892.54" fill="none" stroke="#bcbcbc" stroke-width="8" stroke-linecap="round" stroke-linejoin="round" /><polyline points="1017.62,-1069.39 1208.28,-998.76 1235.13,-1003.34" fill="none" stroke="#bcbcbc" stroke-width="8" stroke-linecap="round" stroke-linejoin="round" />
    <polyline points="167.20,294.65 178.84,299.37 186.53,301.73 330.77,346.03 352.80,352.80" fill="none" stroke="#ffffff" stroke-width="16" stroke-linecap="round" stroke-linejoin="round" />
    <polyline points="167.20,294.65 178.84,299.37 186.53,301.73 330.77,346.03 352.80,352.80" fill="none" stroke="#111111" stroke-width="9" stroke-linecap="round" stroke-linejoin="round" />
    
            <g transform="translate(167.20,294.65)">
              <circle r="19" fill="#ffffff" stroke="#111111" stroke-width="4" />
              <text text-anchor="middle" dominant-baseline="central" font-family="Helvetica, Arial, sans-serif"
                font-size="18" font-weight="700" fill="#111111">1</text>
            </g>
            
            <g transform="translate(352.80,352.80)">
              <circle r="19" fill="#ffffff" stroke="#111111" stroke-width="4" />
              <text text-anchor="middle" dominant-baseline="central" font-family="Helvetica, Arial, sans-serif"
                font-size="18" font-weight="700" fill="#111111">2</text>
            </g>
            
  </g>
</svg>
