<svg xmlns="http://www.w3.org/2000/svg" width="520" height="520" viewBox="0 0 520 520">
  <rect width="100%" height="100%" fill="#ffffff" />
  <g>
    <polyline points="4152.38,-1060.32 4159.74,-1021.17 4207.24,-688.92 4199.97,-605.85" fill="none" stroke="#bcbcbc" stroke-width="8" stroke-linecap="round" stroke-linejoin="round" /><polyline points="3187.02,1708.44 3198.50,1673.14 3259.34,1486.03 3266.51,1463.98 3273.77,1440.83 3426.75,952.98 3439.05,913.74 3410.88,844.34" fill="none" stroke="#bcbcbc" stroke-width="8" stroke-linecap="round" stroke-linejoin="round" /><polyline points="2130.29,1274.52 2127.82,1246.51 2177.83,966.38 2184.85,931.34 2190.09,912.99 2203.85,841.95 2219.32,755.00 2236.18,678.42 2252.90,602.02 2263.43,580.47 2270.31,567.27" fill="none" stroke="#bcbcbc" stroke-width="8" stroke-linecap="round" stroke-linejoin="round" /><polyline points="2420.60,-701.45 2408.71,-737.71 2285.80,-1112.57 2279.80,-1128.29" fill="none" stroke="#bcbcbc" stroke-width="8" stroke-linecap="round" stroke-linejoin="round" /><polyline points="1789.92,2597.76 1793.59,2561.99 1795.08,2545.58 1808.46,2397.57 1823.11,2267.25 1826.53,2236.82 1829.71,2200.31 1830.06,2197.24 1838.36,2124.65 1845.52,2050.87 1853.41,1979.67 1858.72,1924.24 1860.94,1890.03 1862.90,1858.44 1866.38,1822.84" fill="none" stroke="#bcbcbc" stroke-width="8" stroke-linecap="round" stroke-linejoin="round" /><polyline points="3488.25,1795.42 3497.00,1767.90 3558.68,1574.01 3565.69,1551.98 3575.65,1520.60 3582.79,1498.11 3637.37,1262.66" fill="none" stroke="#bcbcbc" stroke-width="8" stroke-linecap="round" stroke-linejoin="round" /><polyline points="3248.50,-2039.68 3271.27,-2036.19 3898.91,-1939.75" fill="none" stroke="#bcbcbc" stroke-width="8" stroke-linecap="round" stroke-linejoin="round" /><polyline points="1637.24,1749.73 1571.91,1746.69 1532.08,1744.84 1510.44,1743.83 1491.45,1742.95 1343.52,1736.07 1137.75,1726.50 1039.68,1712.59 1006.86,1707.94 978.37,1702.91 785.48,1668.86 758.52,1664.10 752.54,1663.08 719.24,1657.37 693.64,1652.99 530.19,1638.54 499.06,1635.79 487.64,1634.78 452.30,1632.33 383.11,1627.53" fill="none" stroke="#bcbcbc" stroke-width="8" stroke-linecap="round" stroke-linejoin="round" /><polyline points="2586.32,1560.20 2598.98,1524.19 2713.01,1208.11 2850.17,809.43 2858.96,784.42 2865.09,766.95 2870.05,752.61" fill="none" stroke="#bcbcbc" stroke-width="8" stroke-linecap="round" stroke-linejoin="round" /><polyline points="487.64,1634.78 484.73,1614.45 484.04,1592.38 488.37,1547.93 498.30,1466.77 504.92,1439.52 515.67,1341.04 517.63,1319.10 520.77,1290.90 523.11,1269.96 527.51,1246.21 535.68,1182.33 541.35,1133.47 549.69,1113.47" fill="none" stroke="#bcbcbc" stroke-width="8" stroke-linecap="round" stroke-linejoin="round" /><polyline points="370.94,1088.51 523.03,1109.75 549.69,1113.47 566.20,1116.11 634.37,1126.97 791.45,1152.00 818.40,1156.49" fill="none" stroke="#bcbcbc" stroke-width="8" stroke-linecap="round" stroke-linejoin="round" /><polyline points="3169.95,-906.66 3170.94,-892.84 3172.98,-878.84 3177.93,-868.12 3187.17,-856.17 3204.28,-840.59 3244.81,-815.94 3557.52,-619.75 3750.11,-361.54 3895.57,-2.54 3905.07,21.17" fill="none" stroke="#bcbcbc" stroke-width="8" stroke-linecap="round" stroke-linejoin="round" /><polyline points="3119.88,140.85 3126.36,151.58 3128.04,154.36 3133.41,181.44 3170.10,358.86 3181.75,415.17 3190.07,455.27 3203.07,536.56 3209.13,574.05 3213.32,596.92 3217.90,617.58 3223.38,629.64 3231.40,643.58 3235.70,650.17 3316.95,766.49 3360.90,835.69 3372.36,852.24" fill="none" stroke="#bcbcbc" stroke-width="8" stroke-linecap="round" stroke-linejoin="round" /><polyline points="787.34,2362.24 791.66,2335.62 795.68,2316.36 796.75,2313.81 850.83,2185.23 885.29,2101.66 895.76,2075.17 906.86,2047.12 918.90,2023.01 920.85,2018.30 937.34,1978.44 950.09,1943.18 961.02,1910.82 967.96,1887.95 975.75,1859.70 984.71,1821.82 991.53,1791.08 999.67,1748.18 1001.38,1738.61 1006.86,1707.94" fill="none" stroke="#bcbcbc" stroke-width="8" stroke-linecap="round" stroke-linejoin="round" /><polyline points="3407.48,-1228.65 3579.92,-1108.16 3603.15,-1103.23 3620.15,-1083.78" fill="none" stroke="#bcbcbc" stroke-width="8" stroke-linecap="round" stroke-linejoin="round" /><polyline points="2683.42,-115.87 2706.21,-107.11 2805.15,-74.74 3034.66,13.28 3047.53,26.11 3053.58,35.70" fill="none" stroke="#bcbcbc" stroke-width="8" stroke-linecap="round" stroke-linejoin="round" /><polyline points="3111.09,2145.77 3126.72,2105.04 3203.87,1895.71 3258.43,1737.56 3269.74,1732.35" fill="none" stroke="#bcbcbc" stroke-width="8" stroke-linecap="round" stroke-linejoin="round" /><polyline points="2020.46,1880.35 2032.64,1853.43 2033.84,1850.77 2054.67,1780.90 2088.79,1665.88 2097.53,1636.45 2104.32,1613.59 2105.23,1600.26 2103.85,1570.77" fill="none" stroke="#bcbcbc" stroke-width="8" stroke-linecap="round" stroke-linejoin="round" /><polyline points="3438.61,150.04 3419.04,154.08 3374.72,146.19 3367.85,127.90 3291.05,98.62 3272.88,103.37 3203.59,77.93 3193.25,85.15" fill="none" stroke="#bcbcbc" stroke-width="8" stroke-linecap="round" stroke-linejoin="round" /><polyline points="3324.56,-2225.73 3359.37,-2217.20 3378.62,-2213.86 3836.47,-2134.48" fill="none" stroke="#bcbcbc" stroke-width="8" stroke-linecap="round" stroke-linejoin="round" /><polyline points="2968.72,2018.30 2987.76,1964.61 3024.77,1860.25 3048.69,1815.80 3083.11,1719.44 3096.85,1680.98" fill="none" stroke="#bcbcbc" stroke-width="8" stroke-linecap="round" stroke-linejoin="round" /><polyline points="460.14,-65.68 426.97,-67.20 418.66,-57.10 360.89,13.09 158.94,246.37 130.54,279.17" fill="none" stroke="#bcbcbc" stroke-width="8" stroke-linecap="round" stroke-linejoin="round" /><polyline points="2231.48,134.12 2216.85,166.52 2215.07,170.45 2164.21,303.07 2112.95,449.06 2099.28,488.00 2091.53,508.10" fill="none" stroke="#bcbcbc" stroke-width="8" stroke-linecap="round" stroke-linejoin="round" /><polyline points="2977.50,-1356.04 2993.65,-1334.12 3005.20,-1303.98 3023.14,-1260.72 3051.95,-1192.67 3077.48,-1131.58 3106.76,-1064.51 3128.49,-1012.82 3131.71,-1005.40 3131.91,-1004.94 3149.40,-964.05 3154.62,-952.44 3159.59,-941.37 3164.85,-931.01 3168.81,-920.48 3169.95,-906.66" fill="none" stroke="#bcbcbc" stroke-width="8" stroke-linecap="round" stroke-linejoin="round" /><polyline points="1740.61,787.87 1749.06,783.25 1760.89,773.85 1766.81,761.65 1845.39,463.71 1847.76,446.91 1857.34,416.21" fill="none" stroke="#bcbcbc" stroke-width="8" stroke-linecap="round" stroke-linejoin="round" /><polyline points="4488.11,321.63 4499.26,357.01 4507.10,394.17 4491.83,535.78 4474.18,642.30 4464.54,678.64 4463.66,681.93 4455.22,701.54 4443.71,722.33 4416.82,756.33 4429.84,822.81 4387.73,965.50 4364.48,1044.31 4316.91,1173.30 4247.25,1330.35 4162.19,1480.85 4135.63,1529.77 4087.60,1610.13 3895.73,1882.46 3853.69,1939.11 3690.89,2151.85 3597.43,2258.19 3466.70,2391.06 3454.60,2392.30 3425.07,2416.44" fill="none" stroke="#bcbcbc" stroke-width="8" stroke-linecap="round" stroke-linejoin="round" /><polyline points="2120.51,2651.08 2174.07,2484.97 2182.84,2457.54 2194.74,2440.26 2220.32,2363.48 2228.65,2337.40 2334.31,2006.57 2344.94,1973.29 2353.70,1944.05 2478.40,1551.59" fill="none" stroke="#bcbcbc" stroke-width="8" stroke-linecap="round" stroke-linejoin="round" /><polyline points="3375.26,-438.23 3421.57,-488.82 3435.22,-505.28 3528.78,-637.79" fill="none" stroke="#bcbcbc" stroke-width="8" stroke-linecap="round" stroke-linejoin="round" /><polyline points="2449.79,-418.18 2577.30,-373.80 2584.35,-362.35 2620.55,-350.21 2642.04,-342.86 2744.82,-308.14" fill="none" stroke="#bcbcbc" stroke-width="8" stroke-linecap="round" stroke-linejoin="round" /><polyline points="3561.18,-1300.56 3620.15,-1083.78 3688.43,-828.41 3698.78,-807.12 3700.42,-782.83 3746.72,-696.39 3871.67,-463.39 3898.97,-423.10 3906.89,-411.30 4093.56,-62.30 4179.35,15.69 4191.39,31.22 4208.36,45.73 4371.26,185.02 4382.31,194.47 4411.56,210.00" fill="none" stroke="#bcbcbc" stroke-width="8" stroke-linecap="round" stroke-linejoin="round" /><polyline points="2927.65,2686.35 3333.90,2450.36 3406.21,2413.38 3425.07,2416.44" fill="none" stroke="#bcbcbc" stroke-width="8" stroke-linecap="round" stroke-linejoin="round" /><polyline points="3368.12,2348.75 3393.32,2318.79 3619.61,1867.27 3634.60,1837.67 3647.12,1808.36 3720.21,1627.60 3741.98,1573.15 3804.98,1382.49 3845.83,1137.36 3850.67,1101.68" fill="none" stroke="#bcbcbc" stroke-width="8" stroke-linecap="round" stroke-linejoin="round" /><polyline points="3193.48,-306.60 3189.52,-302.54 3184.07,-283.54 3183.53,-281.65 3158.97,-187.09 3165.41,-162.41 3160.05,-140.28 3153.04,-111.31 3135.08,-90.49 3114.68,-7.88 3090.66,10.27 3065.01,27.85 3053.58,35.70" fill="none" stroke="#bcbcbc" stroke-width="8" stroke-linecap="round" stroke-linejoin="round" /><polyline points="2231.48,134.12 2241.92,107.35 2304.70,-53.58 2318.39,-88.67 2329.67,-117.58 2409.88,-323.09 2446.00,-409.02 2449.79,-418.18 2477.86,-486.04 2540.84,-642.40 2563.90,-708.97 2569.03,-724.23 2575.93,-741.55" fill="none" stroke="#bcbcbc" stroke-width="8" stroke-linecap="round" stroke-linejoin="round" /><polyline points="2933.96,-841.43 2946.10,-805.30 3344.51,-464.99 3561.92,-275.84 3886.64,6.43 3914.98,29.10 3927.68,37.04 3984.02,88.19 4059.27,152.37 4229.95,297.90 4285.08,345.30 4321.65,389.06" fill="none" stroke="#bcbcbc" stroke-width="8" stroke-linecap="round" stroke-linejoin="round" /><polyline points="3592.70,-1427.82 3612.92,-1440.77 3732.63,-1490.52 3757.23,-1516.40" fill="none" stroke="#bcbcbc" stroke-width="8" stroke-linecap="round" stroke-linejoin="round" /><polyline points="3730.97,1600.69 3565.69,1551.98 3266.51,1463.98" fill="none" stroke="#bcbcbc" stroke-width="8" stroke-linecap="round" stroke-linejoin="round" /><polyline points="3197.45,-1914.92 3220.02,-1899.35 3955.69,-1735.66" fill="none" stroke="#bcbcbc" stroke-width="8" stroke-linecap="round" stroke-linejoin="round" /><polyline points="4106.16,507.23 4068.15,422.63 3983.77,221.40 3977.48,205.41 3963.05,168.67 3908.66,30.28 3905.24,21.31" fill="none" stroke="#bcbcbc" stroke-width="8" stroke-linecap="round" stroke-linejoin="round" /><polyline points="2977.50,-1356.04 2936.65,-1367.66 2906.64,-1376.60 2845.64,-1394.72 2814.65,-1403.56 2796.89,-1408.49 2773.71,-1415.13" fill="none" stroke="#bcbcbc" stroke-width="8" stroke-linecap="round" stroke-linejoin="round" /><polyline points="1912.57,-249.24 1910.50,-256.00 1908.60,-260.73 1900.18,-281.65 1867.57,-357.67 1836.58,-434.91 1829.89,-453.14 1822.18,-474.14 1816.66,-491.32 1807.55,-517.08 1806.59,-519.79 1776.94,-592.87 1722.51,-730.22 1710.28,-737.19 1701.59,-759.47 1684.22,-819.79 1654.48,-894.55 1648.07,-911.55" fill="none" stroke="#bcbcbc" stroke-width="8" stroke-linecap="round" stroke-linejoin="round" /><polyline points="2174.07,2484.97 2204.98,2494.44 2305.00,2524.92 2336.33,2534.46" fill="none" stroke="#bcbcbc" stroke-width="8" stroke-linecap="round" stroke-linejoin="round" /><polyline points="4041.90,-1391.84 4047.73,-1415.41 4045.36,-1424.37 4042.50,-1435.16 4024.24,-1502.06 3983.53,-1643.50 3962.05,-1715.80 3955.69,-1735.66 3898.91,-1939.75 3868.26,-2049.83 3836.47,-2134.48 3807.74,-2210.84 3779.14,-2263.34 3751.35,-2291.08 3538.00,-2551.78 3522.22,-2570.34 3511.76,-2587.49" fill="none" stroke="#bcbcbc" stroke-width="8" stroke-linecap="round" stroke-linejoin="round" /><polyline points="3169.95,-906.66 3158.95,-902.46 3138.61,-896.84 3136.57,-896.28 3051.60,-874.55 2953.91,-847.05 2933.96,-841.43 2925.08,-838.61 2901.61,-831.06 2881.55,-825.48 2793.94,-801.11 2649.86,-760.17 2596.15,-746.60 2575.93,-741.55 2479.91,-717.97 2420.60,-701.45 2294.99,-666.36 2170.84,-631.37 2156.48,-627.38 2052.72,-598.58 2004.86,-585.30 1980.69,-573.88 1934.94,-551.20 1844.08,-505.09 1837.75,-501.87 1816.66,-491.32 1803.79,-484.88 1785.84,-475.47 1722.00,-442.00 1605.69,-376.74 1508.53,-325.84 1494.63,-318.56 1476.07,-317.40 1464.92,-311.48 1462.69,-310.30 1357.29,-252.53 1335.21,-252.63 1309.88,-239.37 1301.03,-234.75 1293.56,-230.84 1275.94,-221.62 1262.06,-189.96 1202.40,-158.00 1183.44,-147.84 1162.91,-136.68 1079.92,-91.51 1037.01,-68.16 1015.38,-61.93" fill="none" stroke="#bcbcbc" stroke-width="8" stroke-linecap="round" stroke-linejoin="round" /><polyline points="4364.48,1044.31 4320.19,1048.36 4181.84,1061.04 4175.60,1061.61 4166.78,1062.42 4152.50,1063.73 4018.36,1076.05 3971.70,1071.72 3917.37,1085.33 3873.86,1096.00 3850.67,1101.68 3793.08,1103.87 3743.23,1101.33 3717.82,1098.64 3696.19,1092.09 3680.26,1083.29 3620.95,1041.35 3476.82,942.35 3463.24,933.14 3449.40,923.76 3439.05,913.74" fill="none" stroke="#bcbcbc" stroke-width="8" stroke-linecap="round" stroke-linejoin="round" /><polyline points="1100.24,-626.89 1152.53,-524.51 1160.45,-495.25 1204.50,-411.20 1222.70,-387.15 1296.32,-243.89 1301.03,-234.75" fill="none" stroke="#bcbcbc" stroke-width="8" stroke-linecap="round" stroke-linejoin="round" /><polyline points="2702.84,283.58 2695.01,305.10 2692.81,311.79 2682.60,342.76 2617.90,523.26 2585.78,612.90 2584.69,615.96 2571.79,643.82 2564.39,660.38" fill="none" stroke="#bcbcbc" stroke-width="8" stroke-linecap="round" stroke-linejoin="round" /><polyline points="3561.18,-1300.56 3554.01,-1315.91 3535.15,-1318.39 3474.17,-1304.40 3461.77,-1306.01 3452.06,-1319.02 3434.81,-1398.38 3528.28,-1412.85 3571.54,-1425.62 3592.70,-1427.82 3615.49,-1346.79" fill="none" stroke="#bcbcbc" stroke-width="8" stroke-linecap="round" stroke-linejoin="round" /><polyline points="3898.97,-423.10 3923.05,-436.62 4043.98,-509.49 4076.29,-528.73 4132.86,-562.46 4225.93,-622.64 4247.64,-638.25 4410.89,-739.52" fill="none" stroke="#bcbcbc" stroke-width="8" stroke-linecap="round" stroke-linejoin="round" /><polyline points="4469.60,55.22 4428.33,42.92 4404.33,23.25 4312.64,-56.10 4309.52,-58.89 4287.35,-78.67 4274.32,-101.77 4043.98,-509.49" fill="none" stroke="#bcbcbc" stroke-width="8" stroke-linecap="round" stroke-linejoin="round" /><polyline points="1870.07,22.91 2231.48,134.12 2260.97,143.46 2530.66,228.95 2536.29,230.74 2576.70,243.55 2596.56,249.86 2622.38,256.91 2675.62,274.94 2702.84,283.58 2727.35,291.35 2928.05,355.01 3139.93,421.58 3157.45,427.09 3181.75,415.17" fill="none" stroke="#bcbcbc" stroke-width="8" stroke-linecap="round" stroke-linejoin="round" /><polyline points="2932.72,-1761.31 3089.27,-1905.16 3115.78,-1929.51" fill="none" stroke="#bcbcbc" stroke-width="8" stroke-linecap="round" stroke-linejoin="round" /><polyline points="311.22,559.78 885.66,621.35" fill="none" stroke="#bcbcbc" stroke-width="8" stroke-linecap="round" stroke-linejoin="round" /><polyline points="2044.13,-1043.56 2164.87,-1086.74 2289.41,-1131.76 2366.79,-1161.84 2603.04,-1247.77 2671.61,-1271.49 2685.93,-1276.44 2703.10,-1282.34 2722.38,-1288.97 2724.74,-1289.78 2763.66,-1305.43 2780.58,-1312.23" fill="none" stroke="#bcbcbc" stroke-width="8" stroke-linecap="round" stroke-linejoin="round" /><polyline points="2855.05,1878.07 2968.72,2018.29 3038.31,2088.36 3068.43,2110.05 3111.09,2145.77 3151.14,2179.41 3185.56,2212.98 3186.41,2230.05" fill="none" stroke="#bcbcbc" stroke-width="8" stroke-linecap="round" stroke-linejoin="round" /><polyline points="2977.50,-1356.04 3022.04,-1467.70 3094.15,-1651.54 3197.45,-1914.92 3248.50,-2039.68 3324.56,-2225.73 3386.94,-2378.12 3398.10,-2398.34 3452.95,-2488.03 3456.50,-2493.82 3476.57,-2533.28 3511.76,-2587.49 3531.41,-2617.74 3559.22,-2660.53" fill="none" stroke="#bcbcbc" stroke-width="8" stroke-linecap="round" stroke-linejoin="round" /><polyline points="1926.54,1629.39 1919.25,1635.22 1914.43,1642.17 1904.60,1671.15 1897.81,1692.06 1866.43,1785.91 1862.11,1799.46 1859.43,1807.86 1830.61,1799.59 1760.46,1776.08 1690.96,1752.77 1637.24,1749.73" fill="none" stroke="#bcbcbc" stroke-width="8" stroke-linecap="round" stroke-linejoin="round" /><polyline points="552.91,2282.45 667.46,1986.64 680.21,1954.44 691.64,1923.42 705.45,1885.95 722.39,1826.99 740.05,1753.72 747.29,1701.22 752.54,1663.08 759.96,1634.93 786.92,1423.41 818.40,1156.49 834.70,1029.24 852.89,879.75 885.66,621.35 890.86,577.41 923.98,307.17 924.00,292.12 931.32,211.94 952.45,42.57 957.74,13.03 963.26,-3.54 971.90,-21.79 980.30,-35.95 998.84,-56.02 1015.42,-61.72" fill="none" stroke="#bcbcbc" stroke-width="8" stroke-linecap="round" stroke-linejoin="round" /><polyline points="3053.58,35.70 3059.84,45.63 3080.85,78.42 3112.30,128.83 3119.88,140.85 3132.42,131.33 3193.25,85.15" fill="none" stroke="#bcbcbc" stroke-width="8" stroke-linecap="round" stroke-linejoin="round" /><polyline points="3094.15,-1651.54 3713.06,-1539.65 3778.06,-1505.44 4020.55,-1385.23 4041.90,-1391.85" fill="none" stroke="#bcbcbc" stroke-width="8" stroke-linecap="round" stroke-linejoin="round" /><polyline points="1912.57,-249.24 1901.59,-233.22 1802.85,-185.03 1730.33,-92.86 1652.07,-44.41 1598.55,-4.00 1547.49,37.65 1521.31,61.51 1475.08,120.17 1423.37,194.29 1414.85,208.02" fill="none" stroke="#bcbcbc" stroke-width="8" stroke-linecap="round" stroke-linejoin="round" /><polyline points="2016.96,-183.12 2012.68,-173.60 2003.32,-159.92 1985.62,-138.15 1881.33,-6.39 1826.14,142.23 1547.62,37.54" fill="none" stroke="#bcbcbc" stroke-width="8" stroke-linecap="round" stroke-linejoin="round" /><polyline points="1598.55,-4.00 1587.77,-36.65 1541.16,-177.76 1523.07,-205.64 1492.78,-296.50 1490.17,-304.34 1494.63,-318.56 1487.38,-341.72 1341.74,-806.72" fill="none" stroke="#bcbcbc" stroke-width="8" stroke-linecap="round" stroke-linejoin="round" /><polyline points="3305.02,-2541.18 3420.12,-2538.15 3425.49,-2538.00 3447.55,-2537.37 3476.57,-2533.28" fill="none" stroke="#bcbcbc" stroke-width="8" stroke-linecap="round" stroke-linejoin="round" /><polyline points="2713.01,1208.11 2673.71,1207.63 2340.94,1252.30 2316.96,1254.83 2289.53,1257.72 2130.29,1274.52 1915.76,1297.19 1802.02,1309.18 1739.10,1315.82 1688.02,1322.03 1661.79,1325.22 1632.24,1328.81 1489.51,1346.15 1455.31,1350.31 1349.90,1361.83 786.92,1423.41" fill="none" stroke="#bcbcbc" stroke-width="8" stroke-linecap="round" stroke-linejoin="round" /><polyline points="2220.32,2363.48 2190.84,2353.99 2053.15,2309.68 2025.32,2300.72 2001.15,2292.95 1855.29,2246.06 1826.53,2236.82 1788.48,2224.57 1556.26,2149.85 1530.13,2141.44" fill="none" stroke="#bcbcbc" stroke-width="8" stroke-linecap="round" stroke-linejoin="round" /><polyline points="2796.06,-424.20 2876.15,-399.24 3169.03,-308.80 3171.76,-307.96 3193.48,-306.60" fill="none" stroke="#bcbcbc" stroke-width="8" stroke-linecap="round" stroke-linejoin="round" /><polyline points="3620.15,-1083.78 4018.56,-1076.77" fill="none" stroke="#bcbcbc" stroke-width="8" stroke-linecap="round" stroke-linejoin="round" /><polyline points="3425.07,2416.44 3368.12,2348.75 3344.22,2320.96 3323.69,2301.77 3296.35,2281.36 3240.48,2247.83 3186.41,2230.05 3076.41,2196.08 2986.44,2167.53 3038.31,2088.36" fill="none" stroke="#bcbcbc" stroke-width="8" stroke-linecap="round" stroke-linejoin="round" /><polyline points="2855.05,1878.07 2775.75,1780.19 2760.66,1761.56 2680.78,1651.52 2662.70,1617.92 2667.04,1577.92 2691.12,1577.68 2750.53,1589.12 2840.94,1606.51" fill="none" stroke="#bcbcbc" stroke-width="8" stroke-linecap="round" stroke-linejoin="round" /><polyline points="1817.61,1093.79 1832.23,1125.25 1915.76,1297.19 2039.95,1552.84 2055.79,1585.45" fill="none" stroke="#bcbcbc" stroke-width="8" stroke-linecap="round" stroke-linejoin="round" /><polyline points="479.88,1872.54 509.75,1884.75 649.66,1941.95 680.21,1954.44 712.34,1967.58 877.06,2034.94 906.86,2047.12" fill="none" stroke="#bcbcbc" stroke-width="8" stroke-linecap="round" stroke-linejoin="round" /><polyline points="1886.35,838.86 2177.83,966.38" fill="none" stroke="#bcbcbc" stroke-width="8" stroke-linecap="round" stroke-linejoin="round" /><polyline points="3193.48,-306.60 3237.88,-304.27 3240.71,-301.75 3260.64,-284.08 3289.91,-257.94 3295.32,-247.43 3396.24,-159.06 3403.70,-144.96 3474.66,-82.33 3492.52,-76.88 3547.72,-28.54 3560.08,-22.89 3643.33,47.73 3661.87,64.16 3672.09,80.43" fill="none" stroke="#bcbcbc" stroke-width="8" stroke-linecap="round" stroke-linejoin="round" /><polyline points="397.60,839.15 852.89,879.75" fill="none" stroke="#bcbcbc" stroke-width="8" stroke-linecap="round" stroke-linejoin="round" /><polyline points="1414.15,2534.44 1428.26,2504.41 1431.88,2491.05 1451.66,2418.15 1523.27,2165.62 1530.13,2141.44 1537.38,2114.92 1569.82,1996.27 1624.61,1795.91 1637.24,1749.73" fill="none" stroke="#bcbcbc" stroke-width="8" stroke-linecap="round" stroke-linejoin="round" /><polyline points="1817.61,1093.79 1886.35,838.86 1740.61,787.87 1702.45,810.40 1685.05,823.64 1672.17,841.06 1663.11,864.06 1629.59,987.95 1656.63,1001.72 1683.95,1008.35 1744.35,1024.07 1789.56,1038.47 1817.61,1093.79" fill="none" stroke="#bcbcbc" stroke-width="8" stroke-linecap="round" stroke-linejoin="round" /><polyline points="1629.59,987.95 1597.67,983.50 852.89,879.75" fill="none" stroke="#bcbcbc" stroke-width="8" stroke-linecap="round" stroke-linejoin="round" /><polyline points="2840.94,1606.51 2910.02,1621.60 3096.85,1680.98 3149.09,1697.50 3273.08,1733.31 3397.99,1769.33 3490.46,1796.05 3638.36,1838.75 3668.91,1847.58 3743.54,1872.60 3866.42,1905.33 3877.25,1907.36" fill="none" stroke="#bcbcbc" stroke-width="8" stroke-linecap="round" stroke-linejoin="round" /><polyline points="2928.57,2685.81 2903.36,2692.14 2876.10,2768.09 2833.85,2756.09 2641.69,2690.60 2618.55,2685.67 2567.10,2681.98 2334.39,2682.92 2283.09,2676.38 2167.24,2658.67 2120.51,2651.08 1789.08,2597.63 1660.74,2577.15 1415.97,2534.75 1376.45,2526.92 824.06,2372.52 789.21,2362.76 552.91,2282.46 494.78,2261.83 349.56,2201.65 266.79,2170.34" fill="none" stroke="#bcbcbc" stroke-width="8" stroke-linecap="round" stroke-linejoin="round" /><polyline points="3434.81,-1398.38 3410.89,-1403.30 3091.64,-1365.56 2977.50,-1356.04" fill="none" stroke="#bcbcbc" stroke-width="8" stroke-linecap="round" stroke-linejoin="round" /><polyline points="2840.94,1606.50 2852.13,1587.79 2919.12,1415.73 2993.98,1155.56 3013.07,1099.52 3023.28,1084.27 3095.56,852.29 3099.15,824.59 3101.88,806.49" fill="none" stroke="#bcbcbc" stroke-width="8" stroke-linecap="round" stroke-linejoin="round" /><polyline points="3169.95,-906.66 3177.58,-909.58 3187.92,-917.79 3203.63,-936.16 3407.48,-1228.65 3461.77,-1306.01" fill="none" stroke="#bcbcbc" stroke-width="8" stroke-linecap="round" stroke-linejoin="round" /><polyline points="4077.23,167.79 4081.40,155.79 4183.87,35.23 4191.39,31.22 4209.19,6.87 4268.81,-61.61 4287.35,-78.67" fill="none" stroke="#bcbcbc" stroke-width="8" stroke-linecap="round" stroke-linejoin="round" /><polyline points="4166.78,1062.42 4165.36,1046.29 4164.26,1033.81 4158.87,1009.95 4152.41,994.38 4144.36,953.50 4143.63,938.69 4138.17,905.60 4113.78,892.86 4094.29,900.31 4059.40,908.66 4031.78,912.98 4005.30,919.37 3968.73,927.71 3952.05,931.51" fill="none" stroke="#bcbcbc" stroke-width="8" stroke-linecap="round" stroke-linejoin="round" /><polyline points="1474.61,470.38 1549.13,295.68 1553.28,284.33" fill="none" stroke="#bcbcbc" stroke-width="8" stroke-linecap="round" stroke-linejoin="round" /><polyline points="3438.61,150.04 3474.53,136.13 3493.31,128.86 3507.83,114.15 3567.71,99.39 3587.81,104.51 3631.15,93.34 3664.22,84.83 3672.09,80.43 3704.15,72.58 3868.08,32.42 3905.24,21.31" fill="none" stroke="#bcbcbc" stroke-width="8" stroke-linecap="round" stroke-linejoin="round" /><polyline points="1926.54,1629.39 2003.88,1601.31 2029.74,1593.40 2055.79,1585.45 2103.85,1570.77 2141.23,1565.39 2268.91,1551.42 2294.57,1550.02 2408.81,1551.00 2478.40,1551.59 2504.58,1550.25 2546.49,1554.50 2559.60,1556.38 2586.32,1560.20 2667.04,1577.92" fill="none" stroke="#bcbcbc" stroke-width="8" stroke-linecap="round" stroke-linejoin="round" /><polyline points="2294.99,-666.36 2282.18,-709.67 2234.60,-870.55 2176.80,-1053.99 2164.87,-1086.74 2152.75,-1117.43 2137.44,-1161.66" fill="none" stroke="#bcbcbc" stroke-width="8" stroke-linecap="round" stroke-linejoin="round" /><polyline points="2156.60,1927.62 2166.76,1895.52 2269.56,1571.36 2268.91,1551.42" fill="none" stroke="#bcbcbc" stroke-width="8" stroke-linecap="round" stroke-linejoin="round" /><polyline points="2294.57,1550.02 2314.92,1277.08 2316.96,1254.83 2320.07,1228.93 2320.12,1227.76 2321.46,1196.10 2328.25,1110.19 2332.08,1070.17 2337.32,1024.72 2342.09,991.99 2346.37,971.43 2351.76,955.90 2362.33,920.90 2384.17,848.03 2411.93,753.96 2442.55,657.76 2448.79,638.14 2453.81,623.92" fill="none" stroke="#bcbcbc" stroke-width="8" stroke-linecap="round" stroke-linejoin="round" /><polyline points="1629.59,987.95 1624.18,1012.14 1625.11,1019.87 1658.27,1295.98 1661.79,1325.22 1660.26,1355.30 1651.57,1527.03 1647.94,1598.78 1646.07,1635.78 1642.73,1701.74 1641.00,1736.09 1637.24,1749.73" fill="none" stroke="#bcbcbc" stroke-width="8" stroke-linecap="round" stroke-linejoin="round" /><polyline points="1474.61,470.38 1354.03,434.54 1338.70,424.71 1263.66,402.84 1242.57,403.06 1148.28,374.66 1133.04,363.42 1047.24,337.41 941.96,308.72 941.45,308.67 923.98,307.17" fill="none" stroke="#bcbcbc" stroke-width="8" stroke-linecap="round" stroke-linejoin="round" /><polyline points="3672.09,80.43 3676.28,85.93 3693.76,111.99 3726.09,160.17 3756.51,190.65 3815.01,256.31 3805.12,316.99 3800.10,339.75 3793.12,349.37 3807.79,371.07 3830.47,417.76 3875.81,505.22 3898.14,548.30 3912.02,587.01 3918.29,604.99" fill="none" stroke="#bcbcbc" stroke-width="8" stroke-linecap="round" stroke-linejoin="round" /><polyline points="3977.48,205.41 3960.67,210.64 3849.94,245.09 3834.06,250.19 3815.01,256.31" fill="none" stroke="#bcbcbc" stroke-width="8" stroke-linecap="round" stroke-linejoin="round" /><polyline points="3181.75,415.17 3216.37,403.94 3467.72,275.60 3501.36,259.16 3619.83,224.95 3734.69,192.66 3756.51,190.65" fill="none" stroke="#bcbcbc" stroke-width="8" stroke-linecap="round" stroke-linejoin="round" /><polyline points="3209.13,574.05 3498.90,439.21 3511.10,431.14 3539.43,422.89 3732.52,366.71 3761.81,355.50 3793.12,349.37" fill="none" stroke="#bcbcbc" stroke-width="8" stroke-linecap="round" stroke-linejoin="round" /><polyline points="3150.01,-2252.84 3267.30,-2238.35 3279.08,-2236.89 3324.56,-2225.73" fill="none" stroke="#bcbcbc" stroke-width="8" stroke-linecap="round" stroke-linejoin="round" /><polyline points="4152.38,-1060.32 4173.18,-1064.66 4250.91,-1026.57 4261.15,-1016.43 4407.05,-769.46 4410.89,-739.52 4429.86,-723.71 4426.85,-712.79 4426.39,-694.99 4429.02,-670.10 4467.66,-511.28 4471.08,-401.29 4476.49,-225.66 4485.58,10.74 4448.57,113.74 4424.73,176.54 4389.93,265.04 4379.85,290.63 4373.31,297.78 4362.79,366.26" fill="none" stroke="#bcbcbc" stroke-width="8" stroke-linecap="round" stroke-linejoin="round" /><polyline points="4422.13,783.45 4386.64,768.01 4297.97,706.12 4180.98,623.92 4116.63,571.89 4073.23,525.40" fill="none" stroke="#bcbcbc" stroke-width="8" stroke-linecap="round" stroke-linejoin="round" /><polyline points="2986.44,2167.53 2951.59,2156.48 2895.04,2138.55 2868.06,2130.00 2836.36,2119.95 2796.31,2107.25 2760.09,2095.77 2724.30,2084.41 2564.67,2033.76 2536.72,2024.89 2501.99,2013.89 2494.33,2011.47 2403.03,1987.34 2377.26,1981.11 2344.94,1973.29 2311.13,1965.09 2189.28,1935.54 2156.60,1927.62 2121.49,1915.43 2048.12,1889.95 2020.46,1880.35 1995.73,1872.32 1880.85,1831.47 1866.38,1822.84 1859.43,1807.86" fill="none" stroke="#bcbcbc" stroke-width="8" stroke-linecap="round" stroke-linejoin="round" /><polyline points="3511.10,431.14 3502.64,400.81 3477.42,310.38 3467.72,275.60 3453.70,249.61 3452.40,244.79 3444.13,214.17 3453.75,200.62 3442.19,162.03 3438.61,150.04" fill="none" stroke="#bcbcbc" stroke-width="8" stroke-linecap="round" stroke-linejoin="round" /><polyline points="3468.93,-675.46 3492.91,-686.75 3623.90,-758.97 3698.78,-807.12 3751.59,-843.15 3763.25,-851.84 3805.76,-881.38 3849.81,-913.92 3877.70,-934.21 3910.95,-958.53 4026.51,-1010.67 4041.50,-1009.88 4063.41,-1020.24 4152.38,-1060.32" fill="none" stroke="#bcbcbc" stroke-width="8" stroke-linecap="round" stroke-linejoin="round" /><polyline points="2016.96,-183.12 2035.86,-175.45 2048.35,-171.62 2282.61,-99.66 2318.39,-88.67" fill="none" stroke="#bcbcbc" stroke-width="8" stroke-linecap="round" stroke-linejoin="round" /><polyline points="3047.14,-2016.46 3088.63,-1963.89 3094.83,-1956.05 3115.78,-1929.51 3139.65,-1926.71 3188.72,-1920.95 3197.45,-1914.92" fill="none" stroke="#bcbcbc" stroke-width="8" stroke-linecap="round" stroke-linejoin="round" /><polyline points="4488.11,321.63 4422.35,333.90 4354.93,370.54 4292.43,405.32 4233.32,434.88 4161.89,473.67 4110.17,505.08 4007.96,559.88 3608.95,760.62 3505.51,806.18 3437.16,835.74 3403.29,846.83 3375.27,852.06 3329.40,854.83 3264.13,845.60 3101.27,806.49 2870.05,752.61 2565.87,660.86 2453.81,623.92 2270.31,567.27 2094.83,509.39 1837.44,408.40 1708.75,352.99 1553.58,284.02 1296.20,143.02 1235.86,103.00 1083.15,6.94 1019.11,-57.10 923.05,-181.48 764.81,-344.64 702.62,-399.44" fill="none" stroke="#bcbcbc" stroke-width="8" stroke-linecap="round" stroke-linejoin="round" /><polyline points="3240.48,2247.83 3243.17,2232.79 3252.91,2208.22 3344.18,1994.65 3378.66,1914.60 3419.30,1814.84 3429.20,1778.33" fill="none" stroke="#bcbcbc" stroke-width="8" stroke-linecap="round" stroke-linejoin="round" /><polyline points="1489.51,1346.15 1385.83,1295.97 1149.91,1181.79 860.53,1041.74 834.70,1029.24" fill="none" stroke="#bcbcbc" stroke-width="8" stroke-linecap="round" stroke-linejoin="round" /><polyline points="3193.48,-306.60 3219.66,-333.41 3289.27,-404.66 3344.51,-464.98" fill="none" stroke="#bcbcbc" stroke-width="8" stroke-linecap="round" stroke-linejoin="round" /><polyline points="1183.44,-147.84 1154.68,-185.92 1019.90,-364.37 827.52,-520.05" fill="none" stroke="#bcbcbc" stroke-width="8" stroke-linecap="round" stroke-linejoin="round" /><polyline points="348.53,2201.22 374.84,2138.83 458.49,1930.28 468.63,1902.90 479.88,1872.54 484.15,1861.58 485.28,1844.42 495.99,1682.29 499.06,1635.79" fill="none" stroke="#bcbcbc" stroke-width="8" stroke-linecap="round" stroke-linejoin="round" /><polyline points="291.46,524.80 343.68,343.68 412.58,104.79 421.11,75.22 430.59,41.63 451.83,-33.59 454.06,-41.49 460.13,-65.68 469.84,-93.01 472.18,-99.64 484.43,-129.99 508.47,-183.03 515.66,-198.26" fill="none" stroke="#bcbcbc" stroke-width="8" stroke-linecap="round" stroke-linejoin="round" /><polyline points="421.11,75.22 526.78,102.24 750.60,159.78 878.12,199.48 931.32,211.94" fill="none" stroke="#bcbcbc" stroke-width="8" stroke-linecap="round" stroke-linejoin="round" /><polyline points="2596.15,-746.60 2599.74,-768.59 2603.35,-791.42 2618.85,-867.79 2657.58,-1045.55 2689.39,-1204.56 2695.21,-1237.55 2703.10,-1282.34 2703.11,-1282.38" fill="none" stroke="#bcbcbc" stroke-width="8" stroke-linecap="round" stroke-linejoin="round" /><polyline points="2283.29,2676.42 2330.47,2556.08 2336.33,2534.46 2523.57,2059.18 2536.72,2024.89 2547.36,1995.80 2659.24,1670.32 2680.78,1651.52" fill="none" stroke="#bcbcbc" stroke-width="8" stroke-linecap="round" stroke-linejoin="round" /><polyline points="2925.08,-838.61 2925.07,-838.65 2918.44,-873.46 2917.40,-877.68 2901.23,-943.46 2901.24,-943.67 2890.21,-988.27 2843.49,-1148.39 2837.60,-1165.54 2806.04,-1251.31 2795.79,-1276.92 2789.18,-1293.44 2780.59,-1312.20 2780.58,-1312.23 2780.57,-1312.31 2774.31,-1381.27 2773.71,-1415.13" fill="none" stroke="#bcbcbc" stroke-width="8" stroke-linecap="round" stroke-linejoin="round" /><polyline points="2855.05,1878.07 2843.04,1891.05 2825.13,1912.36 2774.69,2054.59 2760.09,2095.77" fill="none" stroke="#bcbcbc" stroke-width="8" stroke-linecap="round" stroke-linejoin="round" /><polyline points="2016.96,-183.12 2023.85,-201.79 2025.41,-206.13 2058.17,-297.62 2070.45,-336.17 2170.84,-631.37" fill="none" stroke="#bcbcbc" stroke-width="8" stroke-linecap="round" stroke-linejoin="round" /><polyline points="2536.29,230.74 2546.54,203.53 2574.28,129.84 2586.01,98.68 2593.95,77.60 2616.21,18.47 2630.92,-20.60 2632.90,-25.86 2668.52,-120.49 2683.42,-115.87 2691.49,-137.85 2705.76,-176.71 2703.03,-194.37 2740.93,-297.55 2744.82,-308.14 2752.01,-314.75 2758.05,-320.30 2796.06,-424.20 2801.55,-452.64 2856.09,-604.15 2868.98,-614.24 2895.22,-688.46 2890.55,-699.86 2913.53,-769.17 2901.61,-831.06" fill="none" stroke="#bcbcbc" stroke-width="8" stroke-linecap="round" stroke-linejoin="round" /><polyline points="3511.76,-2587.49 3496.48,-2612.56 3416.19,-2744.27" fill="none" stroke="#bcbcbc" stroke-width="8" stroke-linecap="round" stroke-linejoin="round" /><polyline points="3763.25,-851.84 4131.72,-614.90 4131.82,-614.74 4131.83,-614.70 4199.97,-605.85" fill="none" stroke="#bcbcbc" stroke-width="8" stroke-linecap="round" stroke-linejoin="round" /><polyline points="3615.49,-1346.79 4007.53,-1150.01 4019.36,-1141.19 4018.57,-1076.77 4026.51,-1010.67" fill="none" stroke="#bcbcbc" stroke-width="8" stroke-linecap="round" stroke-linejoin="round" /><polyline points="2868.06,2130.00 2853.95,2173.01 2796.83,2347.22 2699.67,2640.61 2692.78,2661.42 2685.80,2682.51 2683.85,2704.97" fill="none" stroke="#bcbcbc" stroke-width="8" stroke-linecap="round" stroke-linejoin="round" /><polyline points="3971.70,1071.72 3974.05,1049.86 3974.55,1029.47 3974.39,1028.76 3960.49,968.71 3954.80,943.62 3952.05,931.51 3949.24,919.14 3933.99,851.96 3904.20,717.71 3882.55,636.99 3879.48,624.51" fill="none" stroke="#bcbcbc" stroke-width="8" stroke-linecap="round" stroke-linejoin="round" /><polyline points="2025.32,2300.72 2035.04,2273.10 2144.21,1962.84 2156.60,1927.62" fill="none" stroke="#bcbcbc" stroke-width="8" stroke-linecap="round" stroke-linejoin="round" /><polyline points="4476.49,-225.66 4444.37,-234.72 4226.25,-569.42 4199.97,-605.85" fill="none" stroke="#bcbcbc" stroke-width="8" stroke-linecap="round" stroke-linejoin="round" /><polyline points="890.86,577.41 1685.79,767.86 1740.61,787.87" fill="none" stroke="#bcbcbc" stroke-width="8" stroke-linecap="round" stroke-linejoin="round" /><polyline points="3398.10,-2398.34 3707.75,-2283.64 3751.35,-2291.08" fill="none" stroke="#bcbcbc" stroke-width="8" stroke-linecap="round" stroke-linejoin="round" />
    <polyline points="343.68,343.68 176.32,293.03" fill="none" stroke="#ffffff" stroke-width="16" stroke-linecap="round" stroke-linejoin="round" />
    <polyline points="343.68,343.68 176.32,293.03" fill="none" stroke="#111111" stroke-width="9" stroke-linecap="round" stroke-linejoin="round" />
    
            <g transform="translate(343.68,343.68)">
              <circle r="19" fill="#ffffff" stroke="#111111" stroke-width="4" />
              <text text-anchor="middle" dominant-baseline="central" font-family="Helvetica, Arial, sans-serif"
                font-size="18" font-weight="700" fill="#111111">1</text>
            </g>
            
            <g transform="translate(176.32,293.03)">
              <circle r="19" fill="#ffffff" stroke="#111111" stroke-width="4" />
              <text text-anchor="middle" dominant-baseline="central" font-family="Helvetica, Arial, sans-serif"
                font-size="18" font-weight="700" fill="#111111">2</text>
            </g>
            
  </g>
</svg>
