<svg xmlns="http://www.w3.org/2000/svg" width="520" height="520" viewBox="0 0 520 520">
  <rect width="100%" height="100%" fill="#ffffff" />
  <g>
    <polyline points="1329.31,1225.27 1336.95,1265.92 1386.25,1610.87 1378.72,1697.11" fill="none" stroke="#bcbcbc" stroke-width="8" stroke-linecap="round" stroke-linejoin="round" /><polyline points="327.19,4099.84 339.11,4063.19 402.27,3868.93 409.71,3846.04 417.24,3822.00 576.05,3315.51 588.82,3274.78 559.58,3202.72" fill="none" stroke="#bcbcbc" stroke-width="8" stroke-linecap="round" stroke-linejoin="round" /><polyline points="-769.77,3649.34 -772.34,3620.26 -720.42,3329.42 -713.14,3293.05 -707.70,3273.99 -693.41,3200.23 -677.35,3109.96 -659.85,3030.46 -642.49,2951.14 -631.57,2928.77 -624.42,2915.06" fill="none" stroke="#bcbcbc" stroke-width="8" stroke-linecap="round" stroke-linejoin="round" /><polyline points="-468.41,1597.86 -480.75,1560.22 -608.34,1171.03 -614.57,1154.71" fill="none" stroke="#bcbcbc" stroke-width="8" stroke-linecap="round" stroke-linejoin="round" /><polyline points="-1123.10,5023.15 -1119.29,4986.01 -1117.75,4968.97 -1103.86,4815.31 -1088.65,4680.00 -1085.10,4648.41 -1081.80,4610.50 -1081.44,4607.32 -1072.82,4531.96 -1065.38,4455.36 -1057.20,4381.44 -1051.68,4323.89 -1049.38,4288.37 -1047.35,4255.58 -1043.73,4218.62" fill="none" stroke="#bcbcbc" stroke-width="8" stroke-linecap="round" stroke-linejoin="round" /><polyline points="639.89,4190.14 648.98,4161.57 713.01,3960.27 720.28,3937.40 730.62,3904.82 738.03,3881.47 794.70,3637.03" fill="none" stroke="#bcbcbc" stroke-width="8" stroke-linecap="round" stroke-linejoin="round" /><polyline points="391.01,208.48 414.65,212.11 1066.19,312.24" fill="none" stroke="#bcbcbc" stroke-width="8" stroke-linecap="round" stroke-linejoin="round" /><polyline points="-1281.60,4142.71 -1349.41,4139.55 -1390.76,4137.63 -1413.23,4136.58 -1432.94,4135.67 -1586.50,4128.52 -1800.10,4118.59 -1901.91,4104.15 -1935.98,4099.32 -1965.55,4094.10 -2165.79,4058.75 -2193.78,4053.81 -2199.98,4052.75 -2234.55,4046.82 -2261.12,4042.27 -2430.80,4027.27 -2463.11,4024.41 -2474.97,4023.36 -2511.65,4020.82 -2583.48,4015.84" fill="none" stroke="#bcbcbc" stroke-width="8" stroke-linecap="round" stroke-linejoin="round" /><polyline points="-296.38,3945.94 -283.24,3908.55 -164.87,3580.39 -22.48,3166.47 -13.36,3140.51 -7.00,3122.38 -1.84,3107.49" fill="none" stroke="#bcbcbc" stroke-width="8" stroke-linecap="round" stroke-linejoin="round" /><polyline points="-2474.97,4023.36 -2477.99,4002.26 -2478.70,3979.35 -2474.21,3933.20 -2463.90,3848.94 -2457.03,3820.65 -2445.87,3718.40 -2443.84,3695.62 -2440.57,3666.35 -2438.15,3644.60 -2433.58,3619.95 -2425.10,3553.63 -2419.21,3502.89 -2410.56,3482.14" fill="none" stroke="#bcbcbc" stroke-width="8" stroke-linecap="round" stroke-linejoin="round" /><polyline points="-2596.12,3456.22 -2438.23,3478.27 -2410.56,3482.14 -2393.42,3484.87 -2322.65,3496.15 -2159.59,3522.13 -2131.61,3526.80" fill="none" stroke="#bcbcbc" stroke-width="8" stroke-linecap="round" stroke-linejoin="round" /><polyline points="309.48,1384.80 310.50,1399.15 312.62,1413.69 317.75,1424.82 327.35,1437.23 345.11,1453.40 387.18,1478.99 711.80,1682.67 911.72,1950.75 1062.73,2323.47 1072.58,2348.10" fill="none" stroke="#bcbcbc" stroke-width="8" stroke-linecap="round" stroke-linejoin="round" /><polyline points="257.49,2472.35 264.22,2483.48 265.97,2486.38 271.54,2514.49 309.63,2698.68 321.72,2757.15 330.36,2798.78 343.85,2883.18 350.15,2922.10 354.49,2945.85 359.25,2967.29 364.93,2979.81 373.26,2994.29 377.73,3001.13 462.07,3121.89 507.69,3193.74 519.59,3210.92" fill="none" stroke="#bcbcbc" stroke-width="8" stroke-linecap="round" stroke-linejoin="round" /><polyline points="-2163.86,4778.63 -2159.37,4750.99 -2155.20,4731.00 -2154.08,4728.35 -2097.95,4594.85 -2062.18,4508.08 -2051.30,4480.59 -2039.79,4451.47 -2027.29,4426.43 -2025.26,4421.54 -2008.15,4380.16 -1994.91,4343.55 -1983.56,4309.96 -1976.36,4286.21 -1968.28,4256.88 -1958.97,4217.55 -1951.90,4185.64 -1943.45,4141.10 -1941.67,4131.17 -1935.98,4099.32" fill="none" stroke="#bcbcbc" stroke-width="8" stroke-linecap="round" stroke-linejoin="round" /><polyline points="556.05,1050.51 735.05,1175.60 759.17,1180.72 776.82,1200.92" fill="none" stroke="#bcbcbc" stroke-width="8" stroke-linecap="round" stroke-linejoin="round" /><polyline points="-195.58,2205.81 -171.93,2214.91 -69.22,2248.52 169.03,2339.90 182.39,2353.22 188.67,2363.17" fill="none" stroke="#bcbcbc" stroke-width="8" stroke-linecap="round" stroke-linejoin="round" /><polyline points="248.37,4553.88 264.60,4511.60 344.69,4294.27 401.32,4130.07 413.06,4124.67" fill="none" stroke="#bcbcbc" stroke-width="8" stroke-linecap="round" stroke-linejoin="round" /><polyline points="-883.78,4278.32 -871.15,4250.38 -869.89,4247.61 -848.27,4175.07 -812.85,4055.66 -803.78,4025.10 -796.73,4001.36 -795.78,3987.53 -797.22,3956.91" fill="none" stroke="#bcbcbc" stroke-width="8" stroke-linecap="round" stroke-linejoin="round" /><polyline points="588.36,2481.89 568.05,2486.08 522.04,2477.89 514.91,2458.91 435.18,2428.51 416.33,2433.43 344.39,2407.02 333.66,2414.51" fill="none" stroke="#bcbcbc" stroke-width="8" stroke-linecap="round" stroke-linejoin="round" /><polyline points="469.97,15.33 506.10,24.18 526.09,27.65 1001.37,110.07" fill="none" stroke="#bcbcbc" stroke-width="8" stroke-linecap="round" stroke-linejoin="round" /><polyline points="100.58,4421.54 120.35,4365.80 158.77,4257.45 183.59,4211.30 219.32,4111.26 233.59,4071.33" fill="none" stroke="#bcbcbc" stroke-width="8" stroke-linecap="round" stroke-linejoin="round" /><polyline points="-2503.52,2257.93 -2537.95,2256.35 -2546.57,2266.83 -2606.54,2339.71 -2816.18,2581.90 -2845.66,2615.96" fill="none" stroke="#bcbcbc" stroke-width="8" stroke-linecap="round" stroke-linejoin="round" /><polyline points="-664.73,2465.35 -679.92,2499.00 -681.76,2503.08 -734.56,2640.77 -787.78,2792.33 -801.97,2832.76 -810.01,2853.63" fill="none" stroke="#bcbcbc" stroke-width="8" stroke-linecap="round" stroke-linejoin="round" /><polyline points="109.69,918.25 126.46,941.01 138.45,972.30 157.08,1017.22 186.98,1087.87 213.48,1151.29 243.88,1220.92 266.44,1274.59 269.78,1282.29 269.98,1282.77 288.14,1325.22 293.56,1337.28 298.72,1348.76 304.18,1359.52 308.29,1370.46 309.48,1384.80" fill="none" stroke="#bcbcbc" stroke-width="8" stroke-linecap="round" stroke-linejoin="round" /><polyline points="-1174.29,3144.09 -1165.52,3139.30 -1153.24,3129.54 -1147.09,3116.87 -1065.52,2807.55 -1063.06,2790.10 -1053.11,2758.23" fill="none" stroke="#bcbcbc" stroke-width="8" stroke-linecap="round" stroke-linejoin="round" /><polyline points="1677.82,2660.04 1689.39,2696.77 1697.54,2735.35 1681.69,2882.37 1663.36,2992.96 1653.35,3030.69 1652.45,3034.10 1643.68,3054.46 1631.73,3076.05 1603.82,3111.35 1617.34,3180.37 1573.62,3328.51 1549.48,3410.33 1500.10,3544.25 1427.79,3707.30 1339.50,3863.56 1311.92,3914.35 1262.07,3997.78 1062.88,4280.51 1019.24,4339.33 850.25,4560.20 753.23,4670.60 617.52,4808.54 604.96,4809.84 574.31,4834.90" fill="none" stroke="#bcbcbc" stroke-width="8" stroke-linecap="round" stroke-linejoin="round" /><polyline points="-779.92,5078.51 -724.33,4906.04 -715.23,4877.57 -702.87,4859.62 -676.32,4779.92 -667.67,4752.84 -557.98,4409.36 -546.95,4374.81 -537.85,4344.46 -408.41,3937.00" fill="none" stroke="#bcbcbc" stroke-width="8" stroke-linecap="round" stroke-linejoin="round" /><polyline points="522.60,1871.14 570.67,1818.61 584.85,1801.52 681.96,1663.95" fill="none" stroke="#bcbcbc" stroke-width="8" stroke-linecap="round" stroke-linejoin="round" /><polyline points="-438.11,1891.95 -305.74,1938.03 -298.43,1949.91 -260.85,1962.52 -238.53,1970.15 -131.84,2006.19" fill="none" stroke="#bcbcbc" stroke-width="8" stroke-linecap="round" stroke-linejoin="round" /><polyline points="715.60,975.85 776.82,1200.92 847.69,1466.05 858.44,1488.14 860.15,1513.37 908.20,1603.11 1037.91,1845.01 1066.25,1886.84 1074.47,1899.09 1268.25,2261.43 1357.31,2342.40 1369.81,2358.53 1387.42,2373.59 1556.52,2518.20 1567.99,2528.01 1598.36,2544.14" fill="none" stroke="#bcbcbc" stroke-width="8" stroke-linecap="round" stroke-linejoin="round" /><polyline points="57.95,5115.12 479.67,4870.11 554.73,4831.72 574.31,4834.90" fill="none" stroke="#bcbcbc" stroke-width="8" stroke-linecap="round" stroke-linejoin="round" /><polyline points="515.18,4764.62 541.35,4733.51 776.26,4264.74 791.82,4234.00 804.81,4203.58 880.69,4015.92 903.28,3959.38 968.68,3761.43 1011.09,3506.94 1016.12,3469.90" fill="none" stroke="#bcbcbc" stroke-width="8" stroke-linecap="round" stroke-linejoin="round" /><polyline points="333.90,2007.80 329.79,2012.01 324.13,2031.73 323.57,2033.70 298.07,2131.87 304.77,2157.50 299.20,2180.47 291.92,2210.55 273.27,2232.17 252.10,2317.93 227.16,2336.78 200.54,2355.03 188.67,2363.17" fill="none" stroke="#bcbcbc" stroke-width="8" stroke-linecap="round" stroke-linejoin="round" /><polyline points="-664.73,2465.35 -653.89,2437.57 -588.72,2270.48 -574.51,2234.05 -562.80,2204.04 -479.53,1990.67 -442.04,1901.47 -438.11,1891.95 -408.97,1821.49 -343.59,1659.16 -319.65,1590.05 -314.33,1574.20 -307.17,1556.23" fill="none" stroke="#bcbcbc" stroke-width="8" stroke-linecap="round" stroke-linejoin="round" /><polyline points="64.50,1452.53 77.10,1490.04 490.68,1843.36 716.37,2039.73 1053.45,2332.79 1082.87,2356.33 1096.05,2364.57 1154.54,2417.67 1232.65,2484.31 1409.83,2635.40 1467.06,2684.61 1505.03,2730.04" fill="none" stroke="#bcbcbc" stroke-width="8" stroke-linecap="round" stroke-linejoin="round" /><polyline points="748.32,843.73 769.30,830.28 893.57,778.63 919.11,751.76" fill="none" stroke="#bcbcbc" stroke-width="8" stroke-linecap="round" stroke-linejoin="round" /><polyline points="891.85,3987.97 720.28,3937.40 409.71,3846.04" fill="none" stroke="#bcbcbc" stroke-width="8" stroke-linecap="round" stroke-linejoin="round" /><polyline points="338.02,338.02 361.45,354.18 1125.13,524.12" fill="none" stroke="#bcbcbc" stroke-width="8" stroke-linecap="round" stroke-linejoin="round" /><polyline points="1281.33,2852.72 1241.87,2764.89 1154.28,2555.98 1147.75,2539.37 1132.77,2501.23 1076.31,2357.55 1072.75,2348.24" fill="none" stroke="#bcbcbc" stroke-width="8" stroke-linecap="round" stroke-linejoin="round" /><polyline points="109.69,918.25 67.29,906.18 36.14,896.91 -27.19,878.10 -59.36,868.92 -77.79,863.80 -101.85,856.90" fill="none" stroke="#bcbcbc" stroke-width="8" stroke-linecap="round" stroke-linejoin="round" /><polyline points="-995.78,2067.35 -997.93,2060.33 -999.90,2055.42 -1008.64,2033.70 -1042.50,1954.77 -1074.67,1874.59 -1081.61,1855.66 -1089.62,1833.85 -1095.35,1816.01 -1104.80,1789.27 -1105.79,1786.46 -1136.57,1710.59 -1193.08,1567.98 -1205.78,1560.75 -1214.80,1537.62 -1232.83,1474.99 -1263.70,1397.37 -1270.35,1379.73" fill="none" stroke="#bcbcbc" stroke-width="8" stroke-linecap="round" stroke-linejoin="round" /><polyline points="-724.33,4906.04 -692.24,4915.88 -588.41,4947.52 -555.89,4957.43" fill="none" stroke="#bcbcbc" stroke-width="8" stroke-linecap="round" stroke-linejoin="round" /><polyline points="1214.63,881.08 1220.67,856.61 1218.22,847.31 1215.25,836.10 1196.29,766.65 1154.03,619.81 1131.73,544.74 1125.13,524.12 1066.19,312.24 1034.38,197.95 1001.37,110.07 971.55,30.79 941.86,-23.72 913.01,-52.52 691.54,-323.19 675.15,-342.45 664.29,-360.26" fill="none" stroke="#bcbcbc" stroke-width="8" stroke-linecap="round" stroke-linejoin="round" /><polyline points="309.48,1384.80 298.06,1389.17 276.94,1395.00 274.83,1395.58 186.62,1418.14 85.20,1446.70 64.50,1452.53 55.28,1455.46 30.92,1463.29 10.09,1469.08 -80.85,1494.39 -230.42,1536.89 -286.18,1550.98 -307.17,1556.23 -406.84,1580.71 -468.41,1597.86 -598.80,1634.29 -727.68,1670.62 -742.59,1674.76 -850.30,1704.66 -899.98,1718.45 -925.07,1730.30 -972.56,1753.85 -1066.88,1801.72 -1073.45,1805.06 -1095.35,1816.01 -1108.70,1822.70 -1127.34,1832.47 -1193.61,1867.22 -1314.35,1934.98 -1415.20,1987.82 -1429.63,1995.38 -1448.90,1996.58 -1460.48,2002.73 -1462.79,2003.96 -1572.21,2063.93 -1595.12,2063.83 -1621.42,2077.59 -1630.61,2082.40 -1638.36,2086.45 -1656.65,2096.02 -1671.06,2128.90 -1732.99,2162.07 -1752.68,2172.62 -1773.98,2184.21 -1860.14,2231.11 -1904.68,2255.35 -1927.13,2261.82" fill="none" stroke="#bcbcbc" stroke-width="8" stroke-linecap="round" stroke-linejoin="round" /><polyline points="1549.48,3410.33 1503.50,3414.54 1359.89,3427.70 1353.41,3428.30 1344.26,3429.13 1329.43,3430.50 1190.18,3443.28 1141.75,3438.79 1085.35,3452.92 1040.18,3464.00 1016.12,3469.90 956.33,3472.17 904.58,3469.53 878.20,3466.73 855.75,3459.94 839.22,3450.80 777.64,3407.25 628.03,3304.48 613.93,3294.91 599.57,3285.17 588.82,3274.78" fill="none" stroke="#bcbcbc" stroke-width="8" stroke-linecap="round" stroke-linejoin="round" /><polyline points="-1839.05,1675.27 -1784.76,1781.56 -1776.54,1811.93 -1730.81,1899.20 -1711.92,1924.16 -1635.49,2072.90 -1630.61,2082.40" fill="none" stroke="#bcbcbc" stroke-width="8" stroke-linecap="round" stroke-linejoin="round" /><polyline points="-175.42,2620.53 -183.55,2642.88 -185.84,2649.82 -196.43,2681.97 -263.60,2869.37 -296.94,2962.44 -298.07,2965.61 -311.46,2994.54 -319.14,3011.72" fill="none" stroke="#bcbcbc" stroke-width="8" stroke-linecap="round" stroke-linejoin="round" /><polyline points="715.60,975.85 708.15,959.91 688.58,957.34 625.27,971.86 612.41,970.19 602.33,956.68 584.42,874.30 681.44,859.27 726.36,846.01 748.32,843.73 771.98,927.85" fill="none" stroke="#bcbcbc" stroke-width="8" stroke-linecap="round" stroke-linejoin="round" /><polyline points="1066.25,1886.84 1091.25,1872.81 1216.78,1797.16 1250.33,1777.18 1309.05,1742.16 1405.66,1679.68 1428.20,1663.47 1597.66,1558.34" fill="none" stroke="#bcbcbc" stroke-width="8" stroke-linecap="round" stroke-linejoin="round" /><polyline points="1658.61,2383.44 1615.77,2370.68 1590.86,2350.25 1495.67,2267.87 1492.43,2264.98 1469.42,2244.43 1455.89,2220.45 1216.78,1797.16" fill="none" stroke="#bcbcbc" stroke-width="8" stroke-linecap="round" stroke-linejoin="round" /><polyline points="-1039.90,2349.90 -664.73,2465.35 -634.12,2475.06 -354.16,2563.82 -348.31,2565.67 -306.37,2578.97 -285.75,2585.52 -258.95,2592.84 -203.68,2611.56 -175.42,2620.53 -149.98,2628.59 58.37,2694.69 278.31,2763.80 296.50,2769.52 321.72,2757.15" fill="none" stroke="#bcbcbc" stroke-width="8" stroke-linecap="round" stroke-linejoin="round" /><polyline points="63.21,497.49 225.73,348.15 253.24,322.86" fill="none" stroke="#bcbcbc" stroke-width="8" stroke-linecap="round" stroke-linejoin="round" /><polyline points="-2658.11,2907.28 -2061.79,2971.20" fill="none" stroke="#bcbcbc" stroke-width="8" stroke-linecap="round" stroke-linejoin="round" /><polyline points="-859.21,1242.67 -733.88,1197.85 -604.59,1151.10 -524.27,1119.87 -279.02,1030.66 -207.84,1006.04 -192.98,1000.90 -175.15,994.77 -155.14,987.88 -152.69,987.04 -112.29,970.80 -94.72,963.74" fill="none" stroke="#bcbcbc" stroke-width="8" stroke-linecap="round" stroke-linejoin="round" /><polyline points="-17.42,4275.95 100.58,4421.54 172.82,4494.28 204.09,4516.80 248.37,4553.88 289.95,4588.81 325.68,4623.66 326.56,4641.39" fill="none" stroke="#bcbcbc" stroke-width="8" stroke-linecap="round" stroke-linejoin="round" /><polyline points="109.69,918.25 155.94,802.33 230.79,611.46 338.02,338.02 391.01,208.48 469.97,15.33 534.72,-142.89 546.31,-163.88 603.25,-256.99 606.93,-263.01 627.76,-303.98 664.29,-360.26 684.70,-391.66 713.56,-436.09" fill="none" stroke="#bcbcbc" stroke-width="8" stroke-linecap="round" stroke-linejoin="round" /><polyline points="-981.28,4017.77 -988.85,4023.83 -993.85,4031.04 -1004.06,4061.12 -1011.10,4082.84 -1043.68,4180.27 -1048.17,4194.33 -1050.95,4203.06 -1080.87,4194.48 -1153.68,4170.06 -1225.84,4145.86 -1281.60,4142.71" fill="none" stroke="#bcbcbc" stroke-width="8" stroke-linecap="round" stroke-linejoin="round" /><polyline points="-2407.21,4695.79 -2288.30,4388.68 -2275.07,4355.24 -2263.20,4323.04 -2248.86,4284.13 -2231.28,4222.92 -2212.94,4146.85 -2205.43,4092.35 -2199.98,4052.75 -2192.28,4023.52 -2164.30,3803.92 -2131.61,3526.80 -2114.69,3394.68 -2095.82,3239.48 -2061.79,2971.20 -2056.39,2925.59 -2022.01,2645.02 -2021.99,2629.40 -2014.39,2546.15 -1992.47,2370.31 -1986.97,2339.64 -1981.23,2322.44 -1972.27,2303.49 -1963.55,2288.78 -1944.30,2267.95 -1927.09,2262.04" fill="none" stroke="#bcbcbc" stroke-width="8" stroke-linecap="round" stroke-linejoin="round" /><polyline points="188.67,2363.17 195.17,2373.49 216.98,2407.53 249.63,2459.87 257.49,2472.35 270.52,2462.46 333.66,2414.51" fill="none" stroke="#bcbcbc" stroke-width="8" stroke-linecap="round" stroke-linejoin="round" /><polyline points="230.79,611.46 873.26,727.63 940.74,763.14 1192.46,887.94 1214.63,881.08" fill="none" stroke="#bcbcbc" stroke-width="8" stroke-linecap="round" stroke-linejoin="round" /><polyline points="-995.78,2067.35 -1007.18,2083.98 -1109.68,2134.01 -1184.96,2229.70 -1266.20,2280.01 -1321.76,2321.96 -1374.76,2365.21 -1401.94,2389.98 -1449.94,2450.87 -1503.61,2527.82 -1512.46,2542.08" fill="none" stroke="#bcbcbc" stroke-width="8" stroke-linecap="round" stroke-linejoin="round" /><polyline points="-887.42,2136.00 -891.86,2145.88 -901.58,2160.08 -919.95,2182.69 -1028.22,2319.47 -1085.50,2473.78 -1374.63,2365.08" fill="none" stroke="#bcbcbc" stroke-width="8" stroke-linecap="round" stroke-linejoin="round" /><polyline points="-1321.76,2321.96 -1332.95,2288.07 -1381.33,2141.56 -1400.11,2112.62 -1431.55,2018.28 -1434.27,2010.14 -1429.63,1995.38 -1437.16,1971.33 -1588.34,1488.57" fill="none" stroke="#bcbcbc" stroke-width="8" stroke-linecap="round" stroke-linejoin="round" /><polyline points="449.69,-312.18 569.17,-309.03 574.75,-308.88 597.64,-308.22 627.76,-303.98" fill="none" stroke="#bcbcbc" stroke-width="8" stroke-linecap="round" stroke-linejoin="round" /><polyline points="-164.87,3580.39 -205.66,3579.89 -551.10,3626.27 -576.00,3628.89 -604.47,3631.90 -769.77,3649.34 -992.48,3672.87 -1110.54,3685.32 -1175.86,3692.21 -1228.88,3698.66 -1256.11,3701.97 -1286.79,3705.70 -1434.95,3723.71 -1470.46,3728.02 -1579.88,3739.99 -2164.30,3803.92" fill="none" stroke="#bcbcbc" stroke-width="8" stroke-linecap="round" stroke-linejoin="round" /><polyline points="-676.32,4779.92 -706.92,4770.07 -849.85,4724.05 -878.74,4714.75 -903.83,4706.68 -1055.25,4658.01 -1085.10,4648.41 -1124.60,4635.70 -1365.66,4558.11 -1392.79,4549.38" fill="none" stroke="#bcbcbc" stroke-width="8" stroke-linecap="round" stroke-linejoin="round" /><polyline points="-78.65,1885.70 4.48,1911.61 308.52,2005.51 311.36,2006.39 333.90,2007.80" fill="none" stroke="#bcbcbc" stroke-width="8" stroke-linecap="round" stroke-linejoin="round" /><polyline points="776.82,1200.92 1190.40,1208.19" fill="none" stroke="#bcbcbc" stroke-width="8" stroke-linecap="round" stroke-linejoin="round" /><polyline points="574.31,4834.90 515.18,4764.62 490.38,4735.76 469.06,4715.84 440.69,4694.65 382.68,4659.85 326.56,4641.39 212.37,4606.12 118.98,4576.47 172.82,4494.28" fill="none" stroke="#bcbcbc" stroke-width="8" stroke-linecap="round" stroke-linejoin="round" /><polyline points="-17.42,4275.95 -99.74,4174.33 -115.40,4154.99 -198.32,4040.75 -217.09,4005.86 -212.58,3964.33 -187.59,3964.09 -125.91,3975.96 -32.07,3994.01" fill="none" stroke="#bcbcbc" stroke-width="8" stroke-linecap="round" stroke-linejoin="round" /><polyline points="-1094.36,3461.70 -1079.18,3494.36 -992.48,3672.87 -863.55,3938.30 -847.11,3972.15" fill="none" stroke="#bcbcbc" stroke-width="8" stroke-linecap="round" stroke-linejoin="round" /><polyline points="-2483.03,4270.21 -2452.01,4282.89 -2306.78,4342.28 -2275.07,4355.24 -2241.71,4368.88 -2070.72,4438.82 -2039.79,4451.47" fill="none" stroke="#bcbcbc" stroke-width="8" stroke-linecap="round" stroke-linejoin="round" /><polyline points="-1023.00,3197.03 -720.42,3329.42" fill="none" stroke="#bcbcbc" stroke-width="8" stroke-linecap="round" stroke-linejoin="round" /><polyline points="333.90,2007.80 379.99,2010.22 382.93,2012.83 403.61,2031.18 434.00,2058.31 439.61,2069.23 544.37,2160.98 552.12,2175.62 625.78,2240.63 644.32,2246.29 701.63,2296.48 714.46,2302.34 800.88,2375.66 820.12,2392.72 830.73,2409.62" fill="none" stroke="#bcbcbc" stroke-width="8" stroke-linecap="round" stroke-linejoin="round" /><polyline points="-2568.43,3197.33 -2095.82,3239.48" fill="none" stroke="#bcbcbc" stroke-width="8" stroke-linecap="round" stroke-linejoin="round" /><polyline points="-1513.18,4957.40 -1498.53,4926.23 -1494.77,4912.35 -1474.24,4836.67 -1399.90,4574.49 -1392.79,4549.38 -1385.26,4521.86 -1351.58,4398.67 -1294.71,4190.65 -1281.60,4142.71" fill="none" stroke="#bcbcbc" stroke-width="8" stroke-linecap="round" stroke-linejoin="round" /><polyline points="-1094.36,3461.70 -1023.00,3197.03 -1174.29,3144.09 -1213.91,3167.49 -1231.97,3181.23 -1245.34,3199.31 -1254.74,3223.19 -1289.54,3351.82 -1261.47,3366.11 -1233.11,3372.99 -1170.40,3389.32 -1123.47,3404.26 -1094.36,3461.70" fill="none" stroke="#bcbcbc" stroke-width="8" stroke-linecap="round" stroke-linejoin="round" /><polyline points="-1289.54,3351.82 -1322.67,3347.20 -2095.82,3239.48" fill="none" stroke="#bcbcbc" stroke-width="8" stroke-linecap="round" stroke-linejoin="round" /><polyline points="-32.07,3994.01 39.64,4009.68 233.59,4071.33 287.81,4088.48 416.53,4125.67 546.20,4163.06 642.19,4190.80 795.72,4235.13 827.43,4244.30 904.91,4270.28 1032.46,4304.26 1043.70,4306.36" fill="none" stroke="#bcbcbc" stroke-width="8" stroke-linecap="round" stroke-linejoin="round" /><polyline points="58.90,5114.57 32.73,5121.13 4.44,5199.99 -39.43,5187.53 -238.91,5119.54 -262.92,5114.41 -316.33,5110.59 -557.90,5111.56 -611.15,5104.78 -731.41,5086.38 -779.92,5078.51 -1123.98,5023.01 -1257.21,5001.75 -1511.29,4957.73 -1552.31,4949.60 -2125.74,4789.30 -2161.92,4779.17 -2407.21,4695.79 -2467.56,4674.38 -2618.30,4611.90 -2704.22,4579.40" fill="none" stroke="#bcbcbc" stroke-width="8" stroke-linecap="round" stroke-linejoin="round" /><polyline points="584.42,874.30 559.59,869.18 228.18,908.37 109.69,918.25" fill="none" stroke="#bcbcbc" stroke-width="8" stroke-linecap="round" stroke-linejoin="round" /><polyline points="-32.07,3994.01 -20.45,3974.58 49.09,3795.94 126.80,3525.83 146.62,3467.65 157.22,3451.82 232.25,3210.98 235.97,3182.21 238.81,3163.42" fill="none" stroke="#bcbcbc" stroke-width="8" stroke-linecap="round" stroke-linejoin="round" /><polyline points="309.48,1384.80 317.40,1381.77 328.13,1373.25 344.43,1354.17 556.05,1050.51 612.41,970.19" fill="none" stroke="#bcbcbc" stroke-width="8" stroke-linecap="round" stroke-linejoin="round" /><polyline points="1251.30,2500.31 1255.63,2487.85 1362.00,2362.69 1369.81,2358.53 1388.29,2333.24 1450.17,2262.15 1469.42,2244.43" fill="none" stroke="#bcbcbc" stroke-width="8" stroke-linecap="round" stroke-linejoin="round" /><polyline points="1344.26,3429.13 1342.78,3412.39 1341.64,3399.43 1336.04,3374.66 1329.34,3358.50 1320.98,3316.05 1320.23,3300.68 1314.56,3266.32 1289.24,3253.09 1269.01,3260.83 1232.79,3269.50 1204.12,3273.99 1176.63,3280.62 1138.66,3289.27 1121.35,3293.22" fill="none" stroke="#bcbcbc" stroke-width="8" stroke-linecap="round" stroke-linejoin="round" /><polyline points="-1450.42,2814.46 -1373.06,2633.10 -1368.76,2621.31" fill="none" stroke="#bcbcbc" stroke-width="8" stroke-linecap="round" stroke-linejoin="round" /><polyline points="588.36,2481.89 625.65,2467.44 645.14,2459.89 660.22,2444.63 722.38,2429.30 743.24,2434.62 788.24,2423.02 822.56,2414.18 830.73,2409.62 864.01,2401.47 1034.18,2359.77 1072.75,2348.24" fill="none" stroke="#bcbcbc" stroke-width="8" stroke-linecap="round" stroke-linejoin="round" /><polyline points="-981.28,4017.77 -901.00,3988.61 -874.15,3980.41 -847.11,3972.15 -797.22,3956.91 -758.42,3951.33 -625.87,3936.82 -599.24,3935.37 -480.65,3936.38 -408.41,3937.00 -381.24,3935.61 -337.72,3940.02 -324.11,3941.97 -296.38,3945.94 -212.58,3964.33" fill="none" stroke="#bcbcbc" stroke-width="8" stroke-linecap="round" stroke-linejoin="round" /><polyline points="-598.80,1634.29 -612.10,1589.32 -661.49,1422.30 -721.49,1231.84 -733.88,1197.85 -746.45,1165.98 -762.35,1120.06" fill="none" stroke="#bcbcbc" stroke-width="8" stroke-linecap="round" stroke-linejoin="round" /><polyline points="-742.46,4327.39 -731.92,4294.07 -625.20,3957.52 -625.87,3936.82" fill="none" stroke="#bcbcbc" stroke-width="8" stroke-linecap="round" stroke-linejoin="round" /><polyline points="-599.24,3935.37 -578.11,3652.00 -576.00,3628.89 -572.77,3602.01 -572.71,3600.79 -571.32,3567.93 -564.27,3478.73 -560.30,3437.18 -554.86,3389.99 -549.91,3356.01 -545.46,3334.67 -539.87,3318.55 -528.90,3282.21 -506.23,3206.55 -477.40,3108.88 -445.62,3009.01 -439.14,2988.64 -433.94,2973.88" fill="none" stroke="#bcbcbc" stroke-width="8" stroke-linecap="round" stroke-linejoin="round" /><polyline points="-1289.54,3351.82 -1295.16,3376.93 -1294.19,3384.95 -1259.76,3671.61 -1256.11,3701.97 -1257.70,3733.20 -1266.72,3911.50 -1270.49,3985.99 -1272.43,4024.41 -1275.89,4092.89 -1277.70,4128.55 -1281.60,4142.71" fill="none" stroke="#bcbcbc" stroke-width="8" stroke-linecap="round" stroke-linejoin="round" /><polyline points="-1450.42,2814.46 -1575.59,2777.25 -1591.50,2767.05 -1669.40,2744.35 -1691.29,2744.58 -1789.18,2715.09 -1804.99,2703.42 -1894.06,2676.42 -2003.35,2646.63 -2003.88,2646.58 -2022.01,2645.02" fill="none" stroke="#bcbcbc" stroke-width="8" stroke-linecap="round" stroke-linejoin="round" /><polyline points="830.73,2409.62 835.08,2415.33 853.23,2442.38 886.79,2492.40 918.37,2524.05 979.09,2592.22 968.83,2655.22 963.62,2678.85 956.37,2688.84 971.60,2711.36 995.14,2759.83 1042.21,2850.64 1065.39,2895.37 1079.80,2935.56 1086.31,2954.22" fill="none" stroke="#bcbcbc" stroke-width="8" stroke-linecap="round" stroke-linejoin="round" /><polyline points="1147.75,2539.37 1130.30,2544.80 1015.36,2580.57 998.87,2585.87 979.09,2592.22" fill="none" stroke="#bcbcbc" stroke-width="8" stroke-linecap="round" stroke-linejoin="round" /><polyline points="321.72,2757.15 357.67,2745.49 618.58,2612.25 653.50,2595.18 776.48,2559.66 895.71,2526.13 918.37,2524.05" fill="none" stroke="#bcbcbc" stroke-width="8" stroke-linecap="round" stroke-linejoin="round" /><polyline points="350.15,2922.10 650.95,2782.11 663.61,2773.73 693.02,2765.17 893.46,2706.84 923.86,2695.20 956.37,2688.84" fill="none" stroke="#bcbcbc" stroke-width="8" stroke-linecap="round" stroke-linejoin="round" /><polyline points="288.77,-12.82 410.53,2.22 422.76,3.74 469.97,15.33" fill="none" stroke="#bcbcbc" stroke-width="8" stroke-linecap="round" stroke-linejoin="round" /><polyline points="1329.31,1225.27 1350.90,1220.76 1431.59,1260.32 1442.22,1270.84 1593.67,1527.25 1597.66,1558.34 1617.36,1574.75 1614.23,1586.08 1613.75,1604.57 1616.48,1630.41 1656.59,1795.29 1660.14,1909.49 1665.76,2091.83 1675.19,2337.26 1636.78,2444.20 1612.03,2509.40 1575.91,2601.28 1565.45,2627.85 1558.65,2635.27 1547.73,2706.37" fill="none" stroke="#bcbcbc" stroke-width="8" stroke-linecap="round" stroke-linejoin="round" /><polyline points="1609.33,3139.50 1572.49,3123.47 1480.45,3059.22 1359.00,2973.88 1292.20,2919.85 1247.14,2871.59" fill="none" stroke="#bcbcbc" stroke-width="8" stroke-linecap="round" stroke-linejoin="round" /><polyline points="118.98,4576.47 82.80,4565.00 24.10,4546.39 -3.91,4537.51 -36.82,4527.07 -78.40,4513.89 -115.99,4501.97 -153.15,4490.18 -318.85,4437.59 -347.87,4428.38 -383.92,4416.97 -391.87,4414.45 -486.64,4389.40 -513.40,4382.93 -546.95,4374.81 -582.05,4366.30 -708.54,4335.62 -742.46,4327.39 -778.91,4314.74 -855.07,4288.29 -883.78,4278.32 -909.45,4269.98 -1028.71,4227.57 -1043.73,4218.62 -1050.95,4203.06" fill="none" stroke="#bcbcbc" stroke-width="8" stroke-linecap="round" stroke-linejoin="round" /><polyline points="663.61,2773.73 654.83,2742.24 628.65,2648.35 618.58,2612.25 604.03,2585.26 602.67,2580.25 594.10,2548.47 604.08,2534.39 592.08,2494.33 588.36,2481.89" fill="none" stroke="#bcbcbc" stroke-width="8" stroke-linecap="round" stroke-linejoin="round" /><polyline points="619.84,1624.84 644.73,1613.12 780.70,1538.14 858.44,1488.14 913.26,1450.74 925.37,1441.72 969.49,1411.05 1015.22,1377.27 1044.17,1356.20 1078.69,1330.95 1198.65,1276.81 1214.21,1277.64 1236.95,1266.88 1329.31,1225.27" fill="none" stroke="#bcbcbc" stroke-width="8" stroke-linecap="round" stroke-linejoin="round" /><polyline points="-887.42,2136.00 -867.80,2143.95 -854.83,2147.94 -611.65,2222.64 -574.51,2234.05" fill="none" stroke="#bcbcbc" stroke-width="8" stroke-linecap="round" stroke-linejoin="round" /><polyline points="-2624.41,2682.93 -2798.15,2630.34" fill="none" stroke="#bcbcbc" stroke-width="8" stroke-linecap="round" stroke-linejoin="round" /><polyline points="1677.82,2660.04 1609.56,2672.77 1539.57,2710.81 1474.69,2746.93 1413.33,2777.61 1339.18,2817.89 1285.49,2850.49 1179.39,2907.39 765.19,3115.80 657.80,3163.10 586.85,3193.79 551.70,3205.30 522.61,3210.74 475.00,3213.61 407.24,3204.02 238.17,3163.42 -1.84,3107.49 -317.60,3012.23 -433.94,2973.88 -624.42,2915.06 -806.59,2854.97 -1073.77,2750.12 -1207.36,2692.59 -1368.44,2620.99 -1635.62,2474.59 -1698.26,2433.04 -1856.78,2333.32 -1923.26,2266.83 -2022.98,2137.70 -2187.25,1968.30 -2251.81,1911.40" fill="none" stroke="#bcbcbc" stroke-width="8" stroke-linecap="round" stroke-linejoin="round" /><polyline points="382.68,4659.85 385.48,4644.23 395.59,4618.72 490.34,4396.99 526.13,4313.88 568.32,4210.31 578.59,4172.41" fill="none" stroke="#bcbcbc" stroke-width="8" stroke-linecap="round" stroke-linejoin="round" /><polyline points="-1434.95,3723.71 -1542.58,3671.61 -1787.48,3553.06 -2087.88,3407.66 -2114.69,3394.68" fill="none" stroke="#bcbcbc" stroke-width="8" stroke-linecap="round" stroke-linejoin="round" /><polyline points="333.90,2007.80 361.08,1979.97 433.34,1905.99 490.68,1843.36" fill="none" stroke="#bcbcbc" stroke-width="8" stroke-linecap="round" stroke-linejoin="round" /><polyline points="-1752.68,2172.62 -1782.53,2133.08 -1922.44,1947.82 -2122.15,1786.19" fill="none" stroke="#bcbcbc" stroke-width="8" stroke-linecap="round" stroke-linejoin="round" /><polyline points="-2619.37,4611.45 -2592.06,4546.67 -2505.23,4330.16 -2494.70,4301.74 -2483.03,4270.21 -2478.59,4258.84 -2477.42,4241.02 -2466.30,4072.70 -2463.11,4024.41" fill="none" stroke="#bcbcbc" stroke-width="8" stroke-linecap="round" stroke-linejoin="round" /><polyline points="-2678.62,2870.97 -2624.41,2682.93 -2552.89,2434.91 -2544.03,2404.21 -2534.19,2369.33 -2512.15,2291.24 -2509.83,2283.04 -2503.52,2257.93 -2493.45,2229.54 -2491.01,2222.67 -2478.30,2191.16 -2453.34,2136.09 -2445.88,2120.28" fill="none" stroke="#bcbcbc" stroke-width="8" stroke-linecap="round" stroke-linejoin="round" /><polyline points="-2544.03,2404.21 -2434.34,2432.26 -2201.99,2491.99 -2069.62,2533.21 -2014.40,2546.15" fill="none" stroke="#bcbcbc" stroke-width="8" stroke-linecap="round" stroke-linejoin="round" /><polyline points="-286.18,1550.98 -282.45,1528.15 -278.70,1504.45 -262.61,1425.16 -222.40,1240.61 -189.38,1075.52 -183.35,1041.27 -175.15,994.77 -175.14,994.72" fill="none" stroke="#bcbcbc" stroke-width="8" stroke-linecap="round" stroke-linejoin="round" /><polyline points="-610.94,5104.81 -561.97,4979.87 -555.89,4957.43 -361.52,4463.98 -347.87,4428.38 -336.82,4398.19 -220.68,4060.26 -198.32,4040.75" fill="none" stroke="#bcbcbc" stroke-width="8" stroke-linecap="round" stroke-linejoin="round" /><polyline points="55.28,1455.46 55.27,1455.41 48.39,1419.27 47.31,1414.89 30.52,1346.60 30.53,1346.38 19.08,1300.08 -29.42,1133.84 -35.53,1116.03 -68.29,1026.98 -78.93,1000.40 -85.80,983.25 -94.71,963.77 -94.72,963.74 -94.73,963.65 -101.23,892.05 -101.85,856.90" fill="none" stroke="#bcbcbc" stroke-width="8" stroke-linecap="round" stroke-linejoin="round" /><polyline points="-17.42,4275.96 -29.89,4289.43 -48.47,4311.55 -100.83,4459.22 -115.99,4501.97" fill="none" stroke="#bcbcbc" stroke-width="8" stroke-linecap="round" stroke-linejoin="round" /><polyline points="-887.42,2136.00 -880.26,2116.61 -878.65,2112.11 -844.64,2017.12 -831.89,1977.10 -727.68,1670.62" fill="none" stroke="#bcbcbc" stroke-width="8" stroke-linecap="round" stroke-linejoin="round" /><polyline points="-348.31,2565.67 -337.68,2537.42 -308.88,2460.92 -296.70,2428.57 -288.46,2406.68 -265.35,2345.28 -250.08,2304.73 -248.03,2299.27 -211.05,2201.02 -195.58,2205.81 -187.21,2183.00 -172.39,2142.65 -175.23,2124.32 -135.88,2017.20 -131.84,2006.19 -124.38,1999.33 -118.11,1993.57 -78.65,1885.70 -72.95,1856.17 -16.34,1698.87 -2.95,1688.40 24.28,1611.34 19.44,1599.51 43.29,1527.55 30.92,1463.29" fill="none" stroke="#bcbcbc" stroke-width="8" stroke-linecap="round" stroke-linejoin="round" /><polyline points="664.29,-360.26 648.43,-386.28 565.09,-523.04" fill="none" stroke="#bcbcbc" stroke-width="8" stroke-linecap="round" stroke-linejoin="round" /><polyline points="925.37,1441.72 1307.87,1687.71 1307.97,1687.88 1307.97,1687.92 1378.72,1697.11" fill="none" stroke="#bcbcbc" stroke-width="8" stroke-linecap="round" stroke-linejoin="round" /><polyline points="771.98,927.85 1178.95,1132.15 1191.22,1141.31 1190.40,1208.19 1198.65,1276.81" fill="none" stroke="#bcbcbc" stroke-width="8" stroke-linecap="round" stroke-linejoin="round" /><polyline points="-3.91,4537.51 -18.56,4582.17 -77.85,4763.03 -178.71,5067.63 -185.87,5089.24 -193.12,5111.14 -195.14,5134.46" fill="none" stroke="#bcbcbc" stroke-width="8" stroke-linecap="round" stroke-linejoin="round" /><polyline points="1141.75,3438.79 1144.19,3416.10 1144.71,3394.92 1144.54,3394.19 1130.12,3331.84 1124.20,3305.79 1121.35,3293.22 1118.44,3280.38 1102.61,3210.63 1071.68,3071.25 1049.21,2987.44 1046.02,2974.49" fill="none" stroke="#bcbcbc" stroke-width="8" stroke-linecap="round" stroke-linejoin="round" /><polyline points="-878.74,4714.75 -868.65,4686.08 -755.33,4363.96 -742.46,4327.39" fill="none" stroke="#bcbcbc" stroke-width="8" stroke-linecap="round" stroke-linejoin="round" /><polyline points="1665.76,2091.83 1632.42,2082.42 1406.00,1734.93 1378.72,1697.11" fill="none" stroke="#bcbcbc" stroke-width="8" stroke-linecap="round" stroke-linejoin="round" /><polyline points="-2056.39,2925.59 -1231.19,3123.31 -1174.29,3144.09" fill="none" stroke="#bcbcbc" stroke-width="8" stroke-linecap="round" stroke-linejoin="round" /><polyline points="546.31,-163.88 867.75,-44.79 913.01,-52.52" fill="none" stroke="#bcbcbc" stroke-width="8" stroke-linecap="round" stroke-linejoin="round" />
    <polyline points="181.98,232.59 225.06,287.17 231.49,295.32 253.24,322.86 278.02,325.78 328.96,331.75 338.02,338.02" fill="none" stroke="#ffffff" stroke-width="16" stroke-linecap="round" stroke-linejoin="round" />
    <polyline points="181.98,232.59 225.06,287.17 231.49,295.32 253.24,322.86 278.02,325.78 328.96,331.75 338.02,338.02" fill="none" stroke="#111111" stroke-width="9" stroke-linecap="round" stroke-linejoin="round" />
    
            <g transform="translate(181.98,232.59)">
              <circle r="19" fill="#ffffff" stroke="#111111" stroke-width="4" />
              <text text-anchor="middle" dominant-baseline="central" font-family="Helvetica, Arial, sans-serif"
                font-size="18" font-weight="700" fill="#111111">1</text>
            </g>
            
            <g transform="translate(338.02,338.02)">
              <circle r="19" fill="#ffffff" stroke="#111111" stroke-width="4" />
              <text text-anchor="middle" dominant-baseline="central" font-family="Helvetica, Arial, sans-serif"
                font-size="18" font-weight="700" fill="#111111">2</text>
            </g>
            
  </g>
</svg>
