<svg xmlns="http://www.w3.org/2000/svg" width="520" height="520" viewBox="0 0 520 520">
  <rect width="100%" height="100%" fill="#ffffff" />
  <g>
    <polyline points="336.34,258.90 336.70,260.82 339.03,277.11 338.67,281.18" fill="none" stroke="#bcbcbc" stroke-width="8" stroke-linecap="round" stroke-linejoin="round" /><polyline points="289.01,394.65 289.57,392.92 292.55,383.75 292.91,382.67 293.26,381.53 300.76,357.61 301.37,355.69 299.98,352.29" fill="none" stroke="#bcbcbc" stroke-width="8" stroke-linecap="round" stroke-linejoin="round" /><polyline points="237.20,373.38 237.08,372.00 239.53,358.27 239.87,356.55 240.13,355.65 240.80,352.17 241.56,347.91 242.39,344.15 243.21,340.40 243.73,339.35 244.06,338.70" fill="none" stroke="#bcbcbc" stroke-width="8" stroke-linecap="round" stroke-linejoin="round" /><polyline points="251.43,276.50 250.85,274.72 244.82,256.34 244.53,255.57" fill="none" stroke="#bcbcbc" stroke-width="8" stroke-linecap="round" stroke-linejoin="round" /><polyline points="220.51,438.25 220.69,436.50 220.76,435.70 221.42,428.44 222.14,422.05 222.30,420.56 222.46,418.77 222.48,418.62 222.88,415.06 223.24,411.44 223.62,407.95 223.88,405.23 223.99,403.55 224.09,402.01 224.26,400.26" fill="none" stroke="#bcbcbc" stroke-width="8" stroke-linecap="round" stroke-linejoin="round" /><polyline points="303.78,398.92 304.21,397.57 307.23,388.06 307.57,386.98 308.06,385.44 308.41,384.34 311.09,372.80" fill="none" stroke="#bcbcbc" stroke-width="8" stroke-linecap="round" stroke-linejoin="round" /><polyline points="292.02,210.88 293.14,211.06 323.91,215.78" fill="none" stroke="#bcbcbc" stroke-width="8" stroke-linecap="round" stroke-linejoin="round" /><polyline points="213.02,396.68 209.82,396.53 207.87,396.44 206.81,396.39 205.88,396.34 198.62,396.01 188.53,395.54 183.73,394.86 182.12,394.63 180.72,394.38 171.26,392.71 169.94,392.48 169.65,392.43 168.01,392.15 166.76,391.93 158.75,391.22 157.22,391.09 156.66,391.04 154.93,390.92 151.53,390.68" fill="none" stroke="#bcbcbc" stroke-width="8" stroke-linecap="round" stroke-linejoin="round" /><polyline points="259.56,387.38 260.18,385.62 265.77,370.12 272.49,350.57 272.92,349.35 273.22,348.49 273.47,347.79" fill="none" stroke="#bcbcbc" stroke-width="8" stroke-linecap="round" stroke-linejoin="round" /><polyline points="156.66,391.04 156.52,390.04 156.48,388.96 156.70,386.78 157.18,382.80 157.51,381.47 158.03,376.64 158.13,375.56 158.28,374.18 158.40,373.15 158.61,371.99 159.02,368.86 159.29,366.46 159.70,365.48" fill="none" stroke="#bcbcbc" stroke-width="8" stroke-linecap="round" stroke-linejoin="round" /><polyline points="150.94,364.26 158.39,365.30 159.70,365.48 160.51,365.61 163.85,366.14 171.56,367.37 172.88,367.59" fill="none" stroke="#bcbcbc" stroke-width="8" stroke-linecap="round" stroke-linejoin="round" /><polyline points="288.17,266.44 288.22,267.11 288.32,267.80 288.56,268.33 289.02,268.91 289.85,269.68 291.84,270.88 307.17,280.50 316.62,293.16 323.75,310.76 324.21,311.93" fill="none" stroke="#bcbcbc" stroke-width="8" stroke-linecap="round" stroke-linejoin="round" /><polyline points="285.72,317.79 286.03,318.32 286.12,318.46 286.38,319.78 288.18,328.48 288.75,331.24 289.16,333.21 289.80,337.20 290.09,339.03 290.30,340.16 290.52,341.17 290.79,341.76 291.18,342.44 291.40,342.77 295.38,348.47 297.53,351.86 298.10,352.67" fill="none" stroke="#bcbcbc" stroke-width="8" stroke-linecap="round" stroke-linejoin="round" /><polyline points="171.35,426.71 171.57,425.40 171.76,424.46 171.82,424.33 174.47,418.03 176.16,413.93 176.67,412.63 177.21,411.26 177.80,410.07 177.90,409.84 178.71,407.89 179.33,406.16 179.87,404.57 180.21,403.45 180.59,402.07 181.03,400.21 181.37,398.70 181.76,396.60 181.85,396.13 182.12,394.63" fill="none" stroke="#bcbcbc" stroke-width="8" stroke-linecap="round" stroke-linejoin="round" /><polyline points="299.82,250.65 308.27,256.56 309.41,256.80 310.24,257.75" fill="none" stroke="#bcbcbc" stroke-width="8" stroke-linecap="round" stroke-linejoin="round" /><polyline points="264.32,305.21 265.43,305.64 270.29,307.22 281.54,311.54 282.17,312.17 282.47,312.64" fill="none" stroke="#bcbcbc" stroke-width="8" stroke-linecap="round" stroke-linejoin="round" /><polyline points="285.29,416.09 286.05,414.10 289.83,403.83 292.51,396.08 293.06,395.82" fill="none" stroke="#bcbcbc" stroke-width="8" stroke-linecap="round" stroke-linejoin="round" /><polyline points="231.81,403.08 232.41,401.76 232.47,401.63 233.49,398.20 235.16,392.56 235.59,391.12 235.92,390.00 235.97,389.35 235.90,387.90" fill="none" stroke="#bcbcbc" stroke-width="8" stroke-linecap="round" stroke-linejoin="round" /><polyline points="301.34,318.24 300.38,318.44 298.21,318.06 297.87,317.16 294.11,315.72 293.22,315.96 289.82,314.71 289.31,315.06" fill="none" stroke="#bcbcbc" stroke-width="8" stroke-linecap="round" stroke-linejoin="round" /><polyline points="295.75,201.76 297.46,202.18 298.40,202.35 320.85,206.24" fill="none" stroke="#bcbcbc" stroke-width="8" stroke-linecap="round" stroke-linejoin="round" /><polyline points="278.31,409.84 279.24,407.21 281.05,402.09 282.23,399.92 283.91,395.19 284.59,393.31" fill="none" stroke="#bcbcbc" stroke-width="8" stroke-linecap="round" stroke-linejoin="round" /><polyline points="155.31,307.67 153.69,307.59 153.28,308.09 150.45,311.53 140.54,322.97 139.15,324.58" fill="none" stroke="#bcbcbc" stroke-width="8" stroke-linecap="round" stroke-linejoin="round" /><polyline points="242.16,317.46 241.44,319.05 241.35,319.25 238.86,325.75 236.35,332.91 235.68,334.81 235.30,335.80" fill="none" stroke="#bcbcbc" stroke-width="8" stroke-linecap="round" stroke-linejoin="round" /><polyline points="278.74,244.40 279.53,245.48 280.09,246.96 280.97,249.08 282.39,252.41 283.64,255.41 285.07,258.70 286.14,261.23 286.30,261.59 286.31,261.62 287.16,263.62 287.42,264.19 287.66,264.73 287.92,265.24 288.12,265.76 288.17,266.44" fill="none" stroke="#bcbcbc" stroke-width="8" stroke-linecap="round" stroke-linejoin="round" /><polyline points="218.09,349.52 218.51,349.29 219.09,348.83 219.38,348.23 223.23,333.62 223.35,332.80 223.82,331.29" fill="none" stroke="#bcbcbc" stroke-width="8" stroke-linecap="round" stroke-linejoin="round" /><polyline points="352.80,326.66 353.35,328.39 353.73,330.21 352.98,337.16 352.12,342.38 351.64,344.16 351.60,344.32 351.19,345.28 350.62,346.30 349.30,347.97 349.94,351.23 347.88,358.23 346.74,362.09 344.41,368.41 340.99,376.11 336.82,383.49 335.52,385.89 333.16,389.83 323.76,403.18 321.69,405.96 313.71,416.39 309.13,421.61 302.72,428.12 302.13,428.18 300.68,429.36" fill="none" stroke="#bcbcbc" stroke-width="8" stroke-linecap="round" stroke-linejoin="round" /><polyline points="236.72,440.87 239.34,432.72 239.77,431.38 240.36,430.53 241.61,426.77 242.02,425.49 247.20,409.27 247.72,407.64 248.15,406.20 254.27,386.96" fill="none" stroke="#bcbcbc" stroke-width="8" stroke-linecap="round" stroke-linejoin="round" /><polyline points="298.24,289.40 300.51,286.92 301.18,286.12 305.76,279.62" fill="none" stroke="#bcbcbc" stroke-width="8" stroke-linecap="round" stroke-linejoin="round" /><polyline points="252.86,290.39 259.11,292.56 259.46,293.12 261.23,293.72 262.29,294.08 267.33,295.78" fill="none" stroke="#bcbcbc" stroke-width="8" stroke-linecap="round" stroke-linejoin="round" /><polyline points="307.35,247.12 310.24,257.75 313.59,270.27 314.10,271.32 314.18,272.51 316.45,276.75 322.58,288.17 323.92,290.14 324.30,290.72 333.46,307.83 337.66,311.66 338.25,312.42 339.08,313.13 347.07,319.96 347.61,320.42 349.05,321.18" fill="none" stroke="#bcbcbc" stroke-width="8" stroke-linecap="round" stroke-linejoin="round" /><polyline points="276.29,442.60 296.21,431.03 299.76,429.21 300.68,429.36" fill="none" stroke="#bcbcbc" stroke-width="8" stroke-linecap="round" stroke-linejoin="round" /><polyline points="297.89,426.05 299.12,424.58 310.22,402.44 310.95,400.99 311.57,399.55 315.15,390.69 316.22,388.02 319.31,378.67 321.31,366.65 321.55,364.90" fill="none" stroke="#bcbcbc" stroke-width="8" stroke-linecap="round" stroke-linejoin="round" /><polyline points="289.33,295.86 289.13,296.06 288.86,296.99 288.84,297.08 287.63,301.72 287.95,302.93 287.69,304.01 287.34,305.43 286.46,306.45 285.46,310.50 284.28,311.39 283.03,312.25 282.47,312.64" fill="none" stroke="#bcbcbc" stroke-width="8" stroke-linecap="round" stroke-linejoin="round" /><polyline points="242.16,317.46 242.67,316.15 245.75,308.26 246.42,306.54 246.97,305.12 250.91,295.05 252.68,290.83 252.86,290.39 254.24,287.06 257.33,279.39 258.46,276.13 258.71,275.38 259.05,274.53" fill="none" stroke="#bcbcbc" stroke-width="8" stroke-linecap="round" stroke-linejoin="round" /><polyline points="276.60,269.63 277.20,271.41 296.73,288.09 307.39,297.36 323.31,311.20 324.70,312.32 325.32,312.70 328.08,315.21 331.77,318.36 340.14,325.49 342.85,327.82 344.64,329.96" fill="none" stroke="#bcbcbc" stroke-width="8" stroke-linecap="round" stroke-linejoin="round" /><polyline points="308.90,240.88 309.89,240.25 315.76,237.81 316.97,236.54" fill="none" stroke="#bcbcbc" stroke-width="8" stroke-linecap="round" stroke-linejoin="round" /><polyline points="315.68,389.37 307.57,386.98 292.91,382.67" fill="none" stroke="#bcbcbc" stroke-width="8" stroke-linecap="round" stroke-linejoin="round" /><polyline points="289.52,217.00 290.63,217.77 326.70,225.79" fill="none" stroke="#bcbcbc" stroke-width="8" stroke-linecap="round" stroke-linejoin="round" /><polyline points="334.07,335.76 332.21,331.61 328.07,321.74 327.76,320.96 327.06,319.16 324.39,312.37 324.22,311.93" fill="none" stroke="#bcbcbc" stroke-width="8" stroke-linecap="round" stroke-linejoin="round" /><polyline points="278.74,244.40 276.73,243.83 275.26,243.40 272.27,242.51 270.75,242.07 269.88,241.83 268.74,241.51" fill="none" stroke="#bcbcbc" stroke-width="8" stroke-linecap="round" stroke-linejoin="round" /><polyline points="226.52,298.67 226.42,298.34 226.33,298.11 225.92,297.08 224.32,293.35 222.80,289.57 222.47,288.67 222.09,287.64 221.82,286.80 221.37,285.54 221.33,285.40 219.87,281.82 217.20,275.09 216.60,274.74 216.18,273.65 215.33,270.69 213.87,267.03 213.56,266.20" fill="none" stroke="#bcbcbc" stroke-width="8" stroke-linecap="round" stroke-linejoin="round" /><polyline points="239.34,432.72 240.86,433.19 245.76,434.68 247.30,435.15" fill="none" stroke="#bcbcbc" stroke-width="8" stroke-linecap="round" stroke-linejoin="round" /><polyline points="330.92,242.65 331.21,241.49 331.09,241.05 330.95,240.52 330.06,237.24 328.06,230.31 327.01,226.76 326.70,225.79 323.91,215.78 322.41,210.39 320.85,206.24 319.44,202.49 318.04,199.92 316.68,198.56 306.22,185.78 305.44,184.87 304.93,184.03" fill="none" stroke="#bcbcbc" stroke-width="8" stroke-linecap="round" stroke-linejoin="round" /><polyline points="288.17,266.44 287.63,266.64 286.64,266.92 286.54,266.94 282.37,268.01 277.58,269.36 276.60,269.63 276.17,269.77 275.02,270.14 274.03,270.42 269.74,271.61 262.67,273.62 260.04,274.28 259.05,274.53 254.34,275.69 251.43,276.50 245.27,278.22 239.19,279.93 238.48,280.13 233.39,281.54 231.05,282.19 229.86,282.75 227.62,283.86 223.17,286.12 222.85,286.28 221.82,286.80 221.19,287.12 220.31,287.58 217.18,289.22 211.48,292.42 206.71,294.91 206.03,295.27 205.12,295.33 204.57,295.62 204.47,295.68 199.30,298.51 198.22,298.50 196.97,299.15 196.54,299.38 196.17,299.57 195.31,300.02 194.63,301.58 191.70,303.14 190.77,303.64 189.77,304.19 185.70,306.40 183.60,307.55 182.53,307.85" fill="none" stroke="#bcbcbc" stroke-width="8" stroke-linecap="round" stroke-linejoin="round" /><polyline points="346.74,362.09 344.57,362.29 337.78,362.91 337.48,362.94 337.05,362.98 336.35,363.04 329.77,363.65 327.48,363.43 324.82,364.10 322.68,364.62 321.55,364.90 318.72,365.01 316.28,364.89 315.03,364.75 313.97,364.43 313.19,364.00 310.28,361.94 303.22,357.09 302.55,356.64 301.87,356.18 301.37,355.69" fill="none" stroke="#bcbcbc" stroke-width="8" stroke-linecap="round" stroke-linejoin="round" /><polyline points="186.70,280.15 189.26,285.17 189.65,286.61 191.81,290.73 192.70,291.91 196.31,298.93 196.54,299.38" fill="none" stroke="#bcbcbc" stroke-width="8" stroke-linecap="round" stroke-linejoin="round" /><polyline points="265.27,324.79 264.89,325.85 264.78,326.18 264.28,327.69 261.10,336.54 259.53,340.94 259.48,341.09 258.84,342.45 258.48,343.27" fill="none" stroke="#bcbcbc" stroke-width="8" stroke-linecap="round" stroke-linejoin="round" /><polyline points="307.35,247.12 307.00,246.37 306.08,246.25 303.09,246.94 302.48,246.86 302.00,246.22 301.16,242.33 305.74,241.62 307.86,240.99 308.90,240.88 310.02,244.86" fill="none" stroke="#bcbcbc" stroke-width="8" stroke-linecap="round" stroke-linejoin="round" /><polyline points="323.92,290.14 325.10,289.48 331.02,285.91 332.61,284.97 335.38,283.31 339.95,280.36 341.01,279.60 349.01,274.63" fill="none" stroke="#bcbcbc" stroke-width="8" stroke-linecap="round" stroke-linejoin="round" /><polyline points="351.89,313.60 349.87,312.99 348.69,312.03 344.20,308.14 344.04,308.00 342.96,307.03 342.32,305.90 331.02,285.91" fill="none" stroke="#bcbcbc" stroke-width="8" stroke-linecap="round" stroke-linejoin="round" /><polyline points="224.44,312.01 242.16,317.46 243.60,317.92 256.83,322.11 257.10,322.20 259.08,322.83 260.06,323.14 261.32,323.48 263.93,324.37 265.27,324.79 266.47,325.17 276.31,328.29 286.70,331.56 287.56,331.83 288.75,331.24" fill="none" stroke="#bcbcbc" stroke-width="8" stroke-linecap="round" stroke-linejoin="round" /><polyline points="276.54,224.53 284.22,217.48 285.52,216.29" fill="none" stroke="#bcbcbc" stroke-width="8" stroke-linecap="round" stroke-linejoin="round" /><polyline points="148.01,338.33 176.17,341.35" fill="none" stroke="#bcbcbc" stroke-width="8" stroke-linecap="round" stroke-linejoin="round" /><polyline points="232.97,259.72 238.89,257.61 245.00,255.40 248.79,253.92 260.38,249.71 263.74,248.55 264.44,248.31 265.28,248.02 266.23,247.69 266.34,247.65 268.25,246.88 269.08,246.55" fill="none" stroke="#bcbcbc" stroke-width="8" stroke-linecap="round" stroke-linejoin="round" /><polyline points="272.73,402.97 278.31,409.84 281.72,413.28 283.19,414.34 285.29,416.09 287.25,417.74 288.94,419.39 288.98,420.23" fill="none" stroke="#bcbcbc" stroke-width="8" stroke-linecap="round" stroke-linejoin="round" /><polyline points="278.74,244.40 280.92,238.93 284.46,229.92 289.52,217.00 292.02,210.88 295.75,201.76 298.81,194.29 299.36,193.30 302.05,188.90 302.22,188.62 303.20,186.68 304.93,184.03 305.89,182.54 307.26,180.45" fill="none" stroke="#bcbcbc" stroke-width="8" stroke-linecap="round" stroke-linejoin="round" /><polyline points="227.21,390.78 226.85,391.06 226.61,391.40 226.13,392.82 225.80,393.85 224.26,398.45 224.05,399.11 223.92,399.53 222.50,399.12 219.07,397.97 215.66,396.82 213.02,396.68" fill="none" stroke="#bcbcbc" stroke-width="8" stroke-linecap="round" stroke-linejoin="round" /><polyline points="159.86,422.79 165.48,408.29 166.10,406.71 166.66,405.19 167.34,403.35 168.17,400.46 169.04,396.87 169.39,394.30 169.65,392.43 170.01,391.05 171.33,380.68 172.88,367.59 173.68,361.35 174.57,354.02 176.17,341.35 176.43,339.20 178.05,325.95 178.05,325.21 178.41,321.28 179.45,312.98 179.71,311.53 179.98,310.71 180.40,309.82 180.81,309.13 181.72,308.14 182.54,307.86" fill="none" stroke="#bcbcbc" stroke-width="8" stroke-linecap="round" stroke-linejoin="round" /><polyline points="282.47,312.64 282.77,313.13 283.80,314.73 285.35,317.21 285.72,317.79 286.33,317.33 289.31,315.06" fill="none" stroke="#bcbcbc" stroke-width="8" stroke-linecap="round" stroke-linejoin="round" /><polyline points="284.46,229.92 314.80,235.40 317.99,237.08 329.88,242.97 330.92,242.65" fill="none" stroke="#bcbcbc" stroke-width="8" stroke-linecap="round" stroke-linejoin="round" /><polyline points="226.52,298.67 225.98,299.45 221.14,301.82 217.59,306.34 213.75,308.71 211.13,310.69 208.62,312.73 207.34,313.90 205.07,316.78 202.54,320.41 202.12,321.09" fill="none" stroke="#bcbcbc" stroke-width="8" stroke-linecap="round" stroke-linejoin="round" /><polyline points="231.64,301.91 231.43,302.38 230.97,303.05 230.10,304.12 224.99,310.58 222.29,317.86 208.63,312.73" fill="none" stroke="#bcbcbc" stroke-width="8" stroke-linecap="round" stroke-linejoin="round" /><polyline points="211.13,310.69 210.60,309.09 208.31,302.17 207.43,300.81 205.94,296.35 205.81,295.97 206.03,295.27 205.68,294.13 198.54,271.34" fill="none" stroke="#bcbcbc" stroke-width="8" stroke-linecap="round" stroke-linejoin="round" /><polyline points="294.79,186.30 300.44,186.45 300.70,186.45 301.78,186.48 303.20,186.68" fill="none" stroke="#bcbcbc" stroke-width="8" stroke-linecap="round" stroke-linejoin="round" /><polyline points="265.77,370.12 263.84,370.10 247.53,372.29 246.35,372.41 245.01,372.55 237.20,373.38 226.68,374.49 221.10,375.08 218.02,375.40 215.51,375.71 214.23,375.86 212.78,376.04 205.78,376.89 204.10,377.09 198.94,377.66 171.33,380.68" fill="none" stroke="#bcbcbc" stroke-width="8" stroke-linecap="round" stroke-linejoin="round" /><polyline points="241.61,426.77 240.17,426.30 233.42,424.13 232.05,423.69 230.87,423.31 223.71,421.01 222.30,420.56 220.44,419.96 209.05,416.29 207.77,415.88" fill="none" stroke="#bcbcbc" stroke-width="8" stroke-linecap="round" stroke-linejoin="round" /><polyline points="269.84,290.09 273.77,291.31 288.13,295.75 288.26,295.79 289.33,295.86" fill="none" stroke="#bcbcbc" stroke-width="8" stroke-linecap="round" stroke-linejoin="round" /><polyline points="310.24,257.75 329.78,258.10" fill="none" stroke="#bcbcbc" stroke-width="8" stroke-linecap="round" stroke-linejoin="round" /><polyline points="300.68,429.36 297.89,426.05 296.72,424.68 295.71,423.74 294.37,422.74 291.63,421.10 288.98,420.23 283.59,418.56 279.17,417.16 281.72,413.28" fill="none" stroke="#bcbcbc" stroke-width="8" stroke-linecap="round" stroke-linejoin="round" /><polyline points="272.73,402.97 268.84,398.17 268.10,397.26 264.19,391.86 263.30,390.21 263.51,388.25 264.70,388.24 267.61,388.80 272.04,389.65" fill="none" stroke="#bcbcbc" stroke-width="8" stroke-linecap="round" stroke-linejoin="round" /><polyline points="221.87,364.52 222.58,366.06 226.68,374.49 232.77,387.02 233.54,388.62" fill="none" stroke="#bcbcbc" stroke-width="8" stroke-linecap="round" stroke-linejoin="round" /><polyline points="156.28,402.70 157.74,403.30 164.60,406.10 166.10,406.71 167.68,407.36 175.75,410.66 177.21,411.26" fill="none" stroke="#bcbcbc" stroke-width="8" stroke-linecap="round" stroke-linejoin="round" /><polyline points="225.24,352.02 239.53,358.27" fill="none" stroke="#bcbcbc" stroke-width="8" stroke-linecap="round" stroke-linejoin="round" /><polyline points="289.33,295.86 291.50,295.97 291.64,296.09 292.62,296.96 294.05,298.24 294.32,298.76 299.27,303.09 299.63,303.78 303.11,306.85 303.99,307.12 306.69,309.49 307.30,309.77 311.38,313.23 312.29,314.03 312.79,314.83" fill="none" stroke="#bcbcbc" stroke-width="8" stroke-linecap="round" stroke-linejoin="round" /><polyline points="152.25,352.03 174.57,354.02" fill="none" stroke="#bcbcbc" stroke-width="8" stroke-linecap="round" stroke-linejoin="round" /><polyline points="202.09,435.15 202.78,433.68 202.96,433.02 203.92,429.45 207.44,417.07 207.77,415.88 208.13,414.58 209.72,408.76 212.40,398.94 213.02,396.68" fill="none" stroke="#bcbcbc" stroke-width="8" stroke-linecap="round" stroke-linejoin="round" /><polyline points="221.87,364.52 225.24,352.02 218.09,349.52 216.22,350.62 215.37,351.27 214.74,352.12 214.29,353.25 212.65,359.33 213.97,360.00 215.31,360.33 218.28,361.10 220.49,361.80 221.87,364.52" fill="none" stroke="#bcbcbc" stroke-width="8" stroke-linecap="round" stroke-linejoin="round" /><polyline points="212.65,359.33 211.08,359.11 174.57,354.02" fill="none" stroke="#bcbcbc" stroke-width="8" stroke-linecap="round" stroke-linejoin="round" /><polyline points="272.04,389.65 275.43,390.39 284.59,393.31 287.15,394.12 293.23,395.87 299.35,397.64 303.89,398.95 311.14,401.04 312.64,401.47 316.29,402.70 322.32,404.30 322.85,404.40" fill="none" stroke="#bcbcbc" stroke-width="8" stroke-linecap="round" stroke-linejoin="round" /><polyline points="276.34,442.57 275.10,442.88 273.76,446.61 271.69,446.02 262.27,442.81 261.14,442.56 258.61,442.38 247.20,442.43 244.69,442.11 239.01,441.24 236.72,440.87 220.47,438.25 214.18,437.24 202.18,435.16 200.24,434.78 173.15,427.21 171.45,426.73 159.86,422.79 157.01,421.78 149.89,418.83 145.83,417.30" fill="none" stroke="#bcbcbc" stroke-width="8" stroke-linecap="round" stroke-linejoin="round" /><polyline points="301.16,242.33 299.98,242.09 284.33,243.94 278.74,244.40" fill="none" stroke="#bcbcbc" stroke-width="8" stroke-linecap="round" stroke-linejoin="round" /><polyline points="272.04,389.65 272.59,388.74 275.87,380.30 279.54,367.54 280.48,364.80 280.98,364.05 284.52,352.68 284.70,351.32 284.83,350.43" fill="none" stroke="#bcbcbc" stroke-width="8" stroke-linecap="round" stroke-linejoin="round" /><polyline points="288.17,266.44 288.55,266.29 289.05,265.89 289.82,264.99 299.82,250.65 302.48,246.86" fill="none" stroke="#bcbcbc" stroke-width="8" stroke-linecap="round" stroke-linejoin="round" /><polyline points="332.65,319.12 332.86,318.53 337.88,312.62 338.25,312.42 339.12,311.23 342.05,307.87 342.96,307.03" fill="none" stroke="#bcbcbc" stroke-width="8" stroke-linecap="round" stroke-linejoin="round" /><polyline points="337.05,362.98 336.98,362.19 336.92,361.58 336.66,360.41 336.34,359.64 335.95,357.64 335.91,356.91 335.64,355.29 334.45,354.66 333.49,355.03 331.78,355.44 330.43,355.65 329.13,355.96 327.34,356.37 326.52,356.56" fill="none" stroke="#bcbcbc" stroke-width="8" stroke-linecap="round" stroke-linejoin="round" /><polyline points="205.05,333.95 208.70,325.39 208.91,324.83" fill="none" stroke="#bcbcbc" stroke-width="8" stroke-linecap="round" stroke-linejoin="round" /><polyline points="301.34,318.24 303.10,317.56 304.03,317.21 304.74,316.49 307.67,315.76 308.66,316.01 310.78,315.46 312.41,315.05 312.79,314.83 314.36,314.45 322.40,312.48 324.22,311.93" fill="none" stroke="#bcbcbc" stroke-width="8" stroke-linecap="round" stroke-linejoin="round" /><polyline points="227.21,390.78 231.00,389.40 232.27,389.01 233.54,388.62 235.90,387.90 237.73,387.64 243.99,386.95 245.25,386.88 250.85,386.93 254.27,386.96 255.55,386.90 257.60,387.10 258.25,387.20 259.56,387.38 263.51,388.25" fill="none" stroke="#bcbcbc" stroke-width="8" stroke-linecap="round" stroke-linejoin="round" /><polyline points="245.27,278.22 244.64,276.09 242.31,268.21 239.48,259.21 238.89,257.61 238.30,256.10 237.55,253.93" fill="none" stroke="#bcbcbc" stroke-width="8" stroke-linecap="round" stroke-linejoin="round" /><polyline points="238.49,405.40 238.99,403.82 244.03,387.93 243.99,386.95" fill="none" stroke="#bcbcbc" stroke-width="8" stroke-linecap="round" stroke-linejoin="round" /><polyline points="245.25,386.88 246.25,373.50 246.35,372.41 246.50,371.14 246.51,371.08 246.57,369.53 246.90,365.32 247.09,363.36 247.35,361.13 247.58,359.52 247.79,358.52 248.06,357.76 248.57,356.04 249.65,352.47 251.01,347.85 252.51,343.14 252.81,342.18 253.06,341.48" fill="none" stroke="#bcbcbc" stroke-width="8" stroke-linecap="round" stroke-linejoin="round" /><polyline points="212.65,359.33 212.38,360.51 212.43,360.89 214.06,374.43 214.23,375.86 214.15,377.34 213.73,385.76 213.55,389.27 213.46,391.09 213.29,394.32 213.21,396.01 213.02,396.68" fill="none" stroke="#bcbcbc" stroke-width="8" stroke-linecap="round" stroke-linejoin="round" /><polyline points="205.05,333.95 199.14,332.19 198.39,331.71 194.71,330.64 193.67,330.65 189.05,329.26 188.30,328.71 184.10,327.43 178.93,326.02 178.91,326.02 178.05,325.95" fill="none" stroke="#bcbcbc" stroke-width="8" stroke-linecap="round" stroke-linejoin="round" /><polyline points="312.79,314.83 313.00,315.10 313.85,316.38 315.44,318.74 316.93,320.24 319.80,323.46 319.31,326.43 319.07,327.55 318.73,328.02 319.44,329.08 320.56,331.37 322.78,335.66 323.87,337.77 324.55,339.67 324.86,340.55" fill="none" stroke="#bcbcbc" stroke-width="8" stroke-linecap="round" stroke-linejoin="round" /><polyline points="327.76,320.96 326.94,321.22 321.51,322.91 320.73,323.16 319.80,323.46" fill="none" stroke="#bcbcbc" stroke-width="8" stroke-linecap="round" stroke-linejoin="round" /><polyline points="288.75,331.24 290.45,330.69 302.77,324.40 304.42,323.60 310.23,321.92 315.86,320.33 316.93,320.24" fill="none" stroke="#bcbcbc" stroke-width="8" stroke-linecap="round" stroke-linejoin="round" /><polyline points="290.09,339.03 304.30,332.42 304.90,332.03 306.29,331.62 315.75,328.87 317.19,328.32 318.73,328.02" fill="none" stroke="#bcbcbc" stroke-width="8" stroke-linecap="round" stroke-linejoin="round" /><polyline points="287.19,200.43 292.94,201.14 293.52,201.22 295.75,201.76" fill="none" stroke="#bcbcbc" stroke-width="8" stroke-linecap="round" stroke-linejoin="round" /><polyline points="336.34,258.90 337.36,258.69 341.17,260.56 341.67,261.05 348.83,273.16 349.01,274.63 349.94,275.41 349.80,275.94 349.77,276.81 349.90,278.03 351.80,285.82 351.96,291.21 352.23,299.82 352.68,311.41 350.86,316.47 349.69,319.54 347.99,323.88 347.49,325.14 347.17,325.49 346.66,328.85" fill="none" stroke="#bcbcbc" stroke-width="8" stroke-linecap="round" stroke-linejoin="round" /><polyline points="349.57,349.30 347.83,348.54 343.48,345.51 337.74,341.48 334.59,338.93 332.46,336.65" fill="none" stroke="#bcbcbc" stroke-width="8" stroke-linecap="round" stroke-linejoin="round" /><polyline points="279.17,417.16 277.47,416.62 274.69,415.74 273.37,415.32 271.82,414.83 269.85,414.20 268.08,413.64 266.32,413.08 258.50,410.60 257.12,410.17 255.42,409.63 255.05,409.51 250.57,408.33 249.31,408.02 247.72,407.64 246.06,407.23 240.09,405.79 238.49,405.40 236.77,404.80 233.17,403.55 231.81,403.08 230.60,402.69 224.97,400.68 224.26,400.26 223.92,399.53" fill="none" stroke="#bcbcbc" stroke-width="8" stroke-linecap="round" stroke-linejoin="round" /><polyline points="304.90,332.03 304.48,330.54 303.25,326.11 302.77,324.40 302.08,323.13 302.02,322.89 301.61,321.39 302.09,320.72 301.52,318.83 301.34,318.24" fill="none" stroke="#bcbcbc" stroke-width="8" stroke-linecap="round" stroke-linejoin="round" /><polyline points="302.83,277.77 304.01,277.22 310.43,273.68 314.10,271.32 316.69,269.55 317.26,269.12 319.34,267.68 321.50,266.08 322.87,265.09 324.50,263.89 330.17,261.34 330.90,261.38 331.98,260.87 336.34,258.90" fill="none" stroke="#bcbcbc" stroke-width="8" stroke-linecap="round" stroke-linejoin="round" /><polyline points="231.64,301.91 232.57,302.29 233.18,302.47 244.67,306.00 246.42,306.54" fill="none" stroke="#bcbcbc" stroke-width="8" stroke-linecap="round" stroke-linejoin="round" /><polyline points="149.60,327.74 141.40,325.26" fill="none" stroke="#bcbcbc" stroke-width="8" stroke-linecap="round" stroke-linejoin="round" /><polyline points="282.15,212.02 284.18,214.60 284.49,214.99 285.52,216.29 286.69,216.42 289.09,216.71 289.52,217.00" fill="none" stroke="#bcbcbc" stroke-width="8" stroke-linecap="round" stroke-linejoin="round" /><polyline points="291.63,421.10 291.76,420.36 292.24,419.16 296.71,408.68 298.40,404.76 300.40,399.87 300.88,398.08" fill="none" stroke="#bcbcbc" stroke-width="8" stroke-linecap="round" stroke-linejoin="round" /><polyline points="205.78,376.89 200.70,374.43 189.13,368.83 174.94,361.96 173.68,361.35" fill="none" stroke="#bcbcbc" stroke-width="8" stroke-linecap="round" stroke-linejoin="round" /><polyline points="289.33,295.86 290.61,294.54 294.02,291.05 296.73,288.09" fill="none" stroke="#bcbcbc" stroke-width="8" stroke-linecap="round" stroke-linejoin="round" /><polyline points="190.77,303.64 189.36,301.77 182.76,293.02 173.32,285.39" fill="none" stroke="#bcbcbc" stroke-width="8" stroke-linecap="round" stroke-linejoin="round" /><polyline points="149.84,418.81 151.13,415.75 155.23,405.53 155.73,404.19 156.28,402.70 156.49,402.16 156.54,401.32 157.07,393.37 157.22,391.09" fill="none" stroke="#bcbcbc" stroke-width="8" stroke-linecap="round" stroke-linejoin="round" /><polyline points="147.04,336.62 149.60,327.74 152.98,316.03 153.40,314.58 153.86,312.93 154.90,309.24 155.01,308.85 155.31,307.67 155.79,306.33 155.90,306.00 156.50,304.52 157.68,301.91 158.03,301.17" fill="none" stroke="#bcbcbc" stroke-width="8" stroke-linecap="round" stroke-linejoin="round" /><polyline points="153.40,314.58 158.58,315.90 169.55,318.72 175.80,320.67 178.41,321.28" fill="none" stroke="#bcbcbc" stroke-width="8" stroke-linecap="round" stroke-linejoin="round" /><polyline points="260.04,274.28 260.21,273.21 260.39,272.09 261.15,268.34 263.05,259.63 264.61,251.83 264.90,250.21 265.28,248.02 265.28,248.01" fill="none" stroke="#bcbcbc" stroke-width="8" stroke-linecap="round" stroke-linejoin="round" /><polyline points="244.70,442.11 247.01,436.21 247.30,435.15 256.48,411.85 257.12,410.17 257.65,408.74 263.13,392.78 264.19,391.86" fill="none" stroke="#bcbcbc" stroke-width="8" stroke-linecap="round" stroke-linejoin="round" /><polyline points="276.17,269.77 276.17,269.77 275.84,268.06 275.79,267.86 275.00,264.63 275.00,264.62 274.46,262.43 272.17,254.58 271.88,253.74 270.33,249.54 269.83,248.28 269.50,247.47 269.08,246.55 269.08,246.55 269.08,246.55 268.77,243.17 268.74,241.51" fill="none" stroke="#bcbcbc" stroke-width="8" stroke-linecap="round" stroke-linejoin="round" /><polyline points="272.73,402.97 272.14,403.60 271.27,404.65 268.79,411.62 268.08,413.64" fill="none" stroke="#bcbcbc" stroke-width="8" stroke-linecap="round" stroke-linejoin="round" /><polyline points="231.64,301.91 231.98,300.99 232.06,300.78 233.66,296.30 234.26,294.41 239.19,279.93" fill="none" stroke="#bcbcbc" stroke-width="8" stroke-linecap="round" stroke-linejoin="round" /><polyline points="257.10,322.20 257.61,320.87 258.97,317.25 259.54,315.73 259.93,314.69 261.02,311.79 261.74,309.88 261.84,309.62 263.59,304.98 264.32,305.21 264.71,304.13 265.41,302.22 265.28,301.36 267.14,296.30 267.33,295.78 267.68,295.46 267.98,295.18 269.84,290.09 270.11,288.70 272.78,281.27 273.42,280.77 274.70,277.13 274.47,276.58 275.60,273.18 275.02,270.14" fill="none" stroke="#bcbcbc" stroke-width="8" stroke-linecap="round" stroke-linejoin="round" /><polyline points="304.93,184.03 304.18,182.80 300.24,176.34" fill="none" stroke="#bcbcbc" stroke-width="8" stroke-linecap="round" stroke-linejoin="round" /><polyline points="317.26,269.12 335.33,280.74 335.33,280.75 335.33,280.75 338.67,281.18" fill="none" stroke="#bcbcbc" stroke-width="8" stroke-linecap="round" stroke-linejoin="round" /><polyline points="310.02,244.86 329.24,254.50 329.82,254.94 329.78,258.10 330.17,261.34" fill="none" stroke="#bcbcbc" stroke-width="8" stroke-linecap="round" stroke-linejoin="round" /><polyline points="273.37,415.32 272.68,417.43 269.88,425.97 265.11,440.35 264.78,441.38 264.43,442.41 264.34,443.51" fill="none" stroke="#bcbcbc" stroke-width="8" stroke-linecap="round" stroke-linejoin="round" /><polyline points="327.48,363.43 327.60,362.36 327.62,361.36 327.61,361.33 326.93,358.38 326.65,357.15 326.52,356.56 326.38,355.95 325.63,352.66 324.17,346.08 323.11,342.12 322.96,341.51" fill="none" stroke="#bcbcbc" stroke-width="8" stroke-linecap="round" stroke-linejoin="round" /><polyline points="232.05,423.69 232.53,422.34 237.88,407.12 238.49,405.40" fill="none" stroke="#bcbcbc" stroke-width="8" stroke-linecap="round" stroke-linejoin="round" /><polyline points="352.23,299.82 350.66,299.38 339.96,282.97 338.67,281.18" fill="none" stroke="#bcbcbc" stroke-width="8" stroke-linecap="round" stroke-linejoin="round" /><polyline points="176.43,339.20 215.40,348.54 218.09,349.52" fill="none" stroke="#bcbcbc" stroke-width="8" stroke-linecap="round" stroke-linejoin="round" /><polyline points="299.36,193.30 314.54,198.92 316.68,198.56" fill="none" stroke="#bcbcbc" stroke-width="8" stroke-linecap="round" stroke-linejoin="round" />
    <polyline points="352.80,326.66 349.58,327.26 346.27,329.06 343.21,330.76 340.31,332.21 336.81,334.11 334.27,335.65 329.26,338.34 309.70,348.18 304.62,350.41 301.27,351.86 299.61,352.41 298.24,352.66 295.99,352.80 292.79,352.35 284.80,350.43 273.47,347.79 258.55,343.29 253.06,341.48 244.06,338.70 235.46,335.86 222.84,330.91 216.53,328.20 208.92,324.81 196.30,317.90 193.34,315.94 185.86,311.23 182.72,308.09 178.01,301.99 170.25,293.99 167.20,291.30" fill="none" stroke="#ffffff" stroke-width="16" stroke-linecap="round" stroke-linejoin="round" />
    <polyline points="352.80,326.66 349.58,327.26 346.27,329.06 343.21,330.76 340.31,332.21 336.81,334.11 334.27,335.65 329.26,338.34 309.70,348.18 304.62,350.41 301.27,351.86 299.61,352.41 298.24,352.66 295.99,352.80 292.79,352.35 284.80,350.43 273.47,347.79 258.55,343.29 253.06,341.48 244.06,338.70 235.46,335.86 222.84,330.91 216.53,328.20 208.92,324.81 196.30,317.90 193.34,315.94 185.86,311.23 182.72,308.09 178.01,301.99 170.25,293.99 167.20,291.30" fill="none" stroke="#111111" stroke-width="9" stroke-linecap="round" stroke-linejoin="round" />
    
            <g transform="translate(352.80,326.66)">
              <circle r="19" fill="#ffffff" stroke="#111111" stroke-width="4" />
              <text text-anchor="middle" dominant-baseline="central" font-family="Helvetica, Arial, sans-serif"
                font-size="18" font-weight="700" fill="#111111">1</text>
            </g>
            
            <g transform="translate(167.20,291.30)">
              <circle r="19" fill="#ffffff" stroke="#111111" stroke-width="4" />
              <text text-anchor="middle" dominant-baseline="central" font-family="Helvetica, Arial, sans-serif"
                font-size="18" font-weight="700" fill="#111111">2</text>
            </g>
            
  </g>
</svg>
