<svg xmlns="http://www.w3.org/2000/svg" width="520" height="520" viewBox="0 0 520 520">
  <rect width="100%" height="100%" fill="#ffffff" />
  <g>
    <polyline points="527.73,-954.96 530.64,-939.49 549.41,-808.14 546.54,-775.31" fill="none" stroke="#bcbcbc" stroke-width="8" stroke-linecap="round" stroke-linejoin="round" /><polyline points="146.07,139.57 150.60,125.62 174.66,51.65 177.49,42.93 180.36,33.78 240.85,-159.08 245.71,-174.59 234.57,-202.02" fill="none" stroke="#bcbcbc" stroke-width="8" stroke-linecap="round" stroke-linejoin="round" /><polyline points="-271.72,-31.96 -272.69,-43.04 -252.92,-153.78 -250.15,-167.63 -248.08,-174.88 -242.63,-202.97 -236.52,-237.34 -229.85,-267.61 -223.24,-297.82 -219.08,-306.33 -216.36,-311.55" fill="none" stroke="#bcbcbc" stroke-width="8" stroke-linecap="round" stroke-linejoin="round" /><polyline points="-156.94,-813.10 -161.64,-827.43 -210.24,-975.62 -212.61,-981.83" fill="none" stroke="#bcbcbc" stroke-width="8" stroke-linecap="round" stroke-linejoin="round" /><polyline points="-406.28,491.13 -404.83,476.99 -404.25,470.50 -398.95,411.99 -393.16,360.47 -391.81,348.44 -390.55,334.01 -390.42,332.80 -387.13,304.10 -384.30,274.94 -381.18,246.79 -379.08,224.88 -378.21,211.36 -377.43,198.87 -376.05,184.80" fill="none" stroke="#bcbcbc" stroke-width="8" stroke-linecap="round" stroke-linejoin="round" /><polyline points="265.16,173.95 268.62,163.07 293.00,86.43 295.77,77.72 299.71,65.31 302.53,56.42 324.12,-36.65" fill="none" stroke="#bcbcbc" stroke-width="8" stroke-linecap="round" stroke-linejoin="round" /><polyline points="170.37,-1342.12 179.38,-1340.74 427.52,-1302.61" fill="none" stroke="#bcbcbc" stroke-width="8" stroke-linecap="round" stroke-linejoin="round" /><polyline points="-466.65,155.89 -492.48,154.69 -508.22,153.96 -516.78,153.56 -524.29,153.21 -582.77,150.49 -664.12,146.71 -702.90,141.21 -715.87,139.37 -727.13,137.38 -803.40,123.92 -814.05,122.04 -816.42,121.64 -829.58,119.38 -839.70,117.65 -904.32,111.94 -916.63,110.85 -921.15,110.45 -935.12,109.48 -962.47,107.59" fill="none" stroke="#bcbcbc" stroke-width="8" stroke-linecap="round" stroke-linejoin="round" /><polyline points="-91.42,80.97 -86.42,66.73 -41.34,-58.22 12.89,-215.82 16.37,-225.71 18.79,-232.61 20.75,-238.28" fill="none" stroke="#bcbcbc" stroke-width="8" stroke-linecap="round" stroke-linejoin="round" /><polyline points="-921.15,110.45 -922.30,102.42 -922.57,93.69 -920.86,76.12 -916.93,44.03 -914.31,33.26 -910.07,-5.67 -909.29,-14.34 -908.05,-25.49 -907.12,-33.77 -905.38,-43.16 -902.15,-68.41 -899.91,-87.73 -896.62,-95.63" fill="none" stroke="#bcbcbc" stroke-width="8" stroke-linecap="round" stroke-linejoin="round" /><polyline points="-967.29,-105.50 -907.16,-97.10 -896.62,-95.63 -890.09,-94.59 -863.14,-90.29 -801.03,-80.40 -790.38,-78.62" fill="none" stroke="#bcbcbc" stroke-width="8" stroke-linecap="round" stroke-linejoin="round" /><polyline points="139.32,-894.22 139.71,-888.76 140.52,-883.22 142.47,-878.98 146.13,-874.26 152.89,-868.10 168.91,-858.35 292.54,-780.80 368.69,-678.73 426.20,-536.81 429.95,-527.43" fill="none" stroke="#bcbcbc" stroke-width="8" stroke-linecap="round" stroke-linejoin="round" /><polyline points="119.52,-480.12 122.08,-475.88 122.75,-474.78 124.87,-464.07 139.38,-393.94 143.98,-371.68 147.27,-355.83 152.41,-323.69 154.81,-308.87 156.46,-299.83 158.27,-291.66 160.44,-286.90 163.61,-281.38 165.31,-278.78 197.44,-232.80 214.81,-205.44 219.34,-198.90" fill="none" stroke="#bcbcbc" stroke-width="8" stroke-linecap="round" stroke-linejoin="round" /><polyline points="-802.66,398.03 -800.95,387.50 -799.36,379.89 -798.94,378.88 -777.56,328.05 -763.93,295.01 -759.79,284.54 -755.41,273.46 -750.65,263.92 -749.88,262.06 -743.36,246.31 -738.32,232.37 -733.99,219.57 -731.25,210.53 -728.17,199.36 -724.63,184.39 -721.93,172.24 -718.71,155.28 -718.04,151.50 -715.87,139.37" fill="none" stroke="#bcbcbc" stroke-width="8" stroke-linecap="round" stroke-linejoin="round" /><polyline points="233.23,-1021.51 301.40,-973.88 310.58,-971.93 317.31,-964.24" fill="none" stroke="#bcbcbc" stroke-width="8" stroke-linecap="round" stroke-linejoin="round" /><polyline points="-53.04,-581.61 -44.03,-578.14 -4.91,-565.35 85.83,-530.55 90.92,-525.48 93.31,-521.69" fill="none" stroke="#bcbcbc" stroke-width="8" stroke-linecap="round" stroke-linejoin="round" /><polyline points="116.05,312.45 122.23,296.35 152.73,213.60 174.30,151.08 178.77,149.02" fill="none" stroke="#bcbcbc" stroke-width="8" stroke-linecap="round" stroke-linejoin="round" /><polyline points="-315.14,207.53 -310.33,196.89 -309.85,195.84 -301.61,168.21 -288.12,122.75 -284.67,111.11 -281.98,102.07 -281.62,96.81 -282.17,85.15" fill="none" stroke="#bcbcbc" stroke-width="8" stroke-linecap="round" stroke-linejoin="round" /><polyline points="245.53,-476.49 237.80,-474.89 220.27,-478.01 217.56,-485.24 187.19,-496.81 180.01,-494.94 152.62,-505.00 148.53,-502.14" fill="none" stroke="#bcbcbc" stroke-width="8" stroke-linecap="round" stroke-linejoin="round" /><polyline points="200.45,-1415.67 214.20,-1412.30 221.82,-1410.98 402.83,-1379.59" fill="none" stroke="#bcbcbc" stroke-width="8" stroke-linecap="round" stroke-linejoin="round" /><polyline points="59.76,262.06 67.29,240.84 81.92,199.58 91.38,182.01 104.98,143.92 110.42,128.71" fill="none" stroke="#bcbcbc" stroke-width="8" stroke-linecap="round" stroke-linejoin="round" /><polyline points="-932.02,-561.77 -945.13,-562.37 -948.42,-558.37 -971.26,-530.63 -1051.10,-438.41 -1062.33,-425.44" fill="none" stroke="#bcbcbc" stroke-width="8" stroke-linecap="round" stroke-linejoin="round" /><polyline points="-231.71,-482.78 -237.50,-469.97 -238.20,-468.42 -258.31,-415.99 -278.57,-358.28 -283.98,-342.89 -287.04,-334.94" fill="none" stroke="#bcbcbc" stroke-width="8" stroke-linecap="round" stroke-linejoin="round" /><polyline points="63.23,-1071.87 69.62,-1063.20 74.18,-1051.28 81.28,-1034.18 92.67,-1007.28 102.76,-983.13 114.34,-956.62 122.93,-936.19 124.20,-933.25 124.28,-933.07 131.19,-916.91 133.26,-912.32 135.22,-907.94 137.30,-903.85 138.87,-899.68 139.32,-894.22" fill="none" stroke="#bcbcbc" stroke-width="8" stroke-linecap="round" stroke-linejoin="round" /><polyline points="-425.78,-224.34 -422.44,-226.17 -417.76,-229.89 -415.42,-234.71 -384.35,-352.49 -383.42,-359.13 -379.63,-371.27" fill="none" stroke="#bcbcbc" stroke-width="8" stroke-linecap="round" stroke-linejoin="round" /><polyline points="660.46,-408.66 664.87,-394.67 667.97,-379.98 661.93,-324.00 654.95,-281.89 651.14,-267.53 650.79,-266.23 647.46,-258.47 642.90,-250.25 632.28,-236.81 637.42,-210.53 620.77,-154.13 611.58,-122.97 592.77,-71.98 565.23,-9.90 531.61,49.60 521.10,68.94 502.12,100.71 426.26,208.36 409.64,230.76 345.27,314.86 308.32,356.89 256.64,409.42 251.85,409.91 240.18,419.45" fill="none" stroke="#bcbcbc" stroke-width="8" stroke-linecap="round" stroke-linejoin="round" /><polyline points="-275.58,512.21 -254.41,446.54 -250.94,435.70 -246.24,428.87 -236.12,398.52 -232.83,388.21 -191.06,257.42 -186.85,244.27 -183.39,232.71 -134.09,77.57" fill="none" stroke="#bcbcbc" stroke-width="8" stroke-linecap="round" stroke-linejoin="round" /><polyline points="220.49,-709.04 238.79,-729.04 244.19,-735.55 281.18,-787.93" fill="none" stroke="#bcbcbc" stroke-width="8" stroke-linecap="round" stroke-linejoin="round" /><polyline points="-145.40,-701.12 -94.99,-683.57 -92.20,-679.05 -77.89,-674.24 -69.39,-671.34 -28.76,-657.62" fill="none" stroke="#bcbcbc" stroke-width="8" stroke-linecap="round" stroke-linejoin="round" /><polyline points="293.99,-1049.93 317.31,-964.24 344.30,-863.28 348.39,-854.87 349.04,-845.27 367.35,-811.10 416.74,-718.99 427.54,-703.06 430.67,-698.40 504.47,-560.43 538.39,-529.60 543.15,-523.46 549.86,-517.72 614.26,-462.66 618.63,-458.93 630.19,-452.79" fill="none" stroke="#bcbcbc" stroke-width="8" stroke-linecap="round" stroke-linejoin="round" /><polyline points="43.52,526.15 204.14,432.86 232.73,418.24 240.18,419.45" fill="none" stroke="#bcbcbc" stroke-width="8" stroke-linecap="round" stroke-linejoin="round" /><polyline points="217.66,392.69 227.63,380.85 317.09,202.36 323.02,190.65 327.97,179.07 356.87,107.61 365.47,86.09 390.38,10.71 406.53,-86.19 408.45,-100.29" fill="none" stroke="#bcbcbc" stroke-width="8" stroke-linecap="round" stroke-linejoin="round" /><polyline points="148.62,-657.01 147.06,-655.40 144.90,-647.89 144.69,-647.14 134.98,-609.76 137.52,-600.00 135.41,-591.26 132.63,-579.80 125.53,-571.57 117.47,-538.92 107.97,-531.74 97.83,-524.79 93.31,-521.69" fill="none" stroke="#bcbcbc" stroke-width="8" stroke-linecap="round" stroke-linejoin="round" /><polyline points="-231.71,-482.78 -227.58,-493.36 -202.76,-556.98 -197.35,-570.86 -192.89,-582.28 -161.18,-663.53 -146.90,-697.49 -145.40,-701.12 -134.30,-727.94 -109.41,-789.75 -100.29,-816.07 -98.26,-822.10 -95.53,-828.95" fill="none" stroke="#bcbcbc" stroke-width="8" stroke-linecap="round" stroke-linejoin="round" /><polyline points="46.02,-868.43 50.82,-854.15 208.33,-719.62 294.29,-644.85 422.66,-533.26 433.87,-524.30 438.89,-521.16 461.17,-500.94 490.91,-475.57 558.39,-418.04 580.19,-399.30 594.65,-382.00" fill="none" stroke="#bcbcbc" stroke-width="8" stroke-linecap="round" stroke-linejoin="round" /><polyline points="306.45,-1100.24 314.45,-1105.36 361.77,-1125.03 371.50,-1135.26" fill="none" stroke="#bcbcbc" stroke-width="8" stroke-linecap="round" stroke-linejoin="round" /><polyline points="361.12,96.97 295.77,77.72 177.49,42.93" fill="none" stroke="#bcbcbc" stroke-width="8" stroke-linecap="round" stroke-linejoin="round" /><polyline points="150.19,-1292.80 159.11,-1286.64 449.96,-1221.94" fill="none" stroke="#bcbcbc" stroke-width="8" stroke-linecap="round" stroke-linejoin="round" /><polyline points="509.45,-335.29 494.42,-368.73 461.07,-448.28 458.58,-454.60 452.87,-469.12 431.37,-523.83 430.02,-527.38" fill="none" stroke="#bcbcbc" stroke-width="8" stroke-linecap="round" stroke-linejoin="round" /><polyline points="63.23,-1071.87 47.08,-1076.46 35.22,-1079.99 11.10,-1087.15 -1.15,-1090.65 -8.17,-1092.60 -17.34,-1095.22" fill="none" stroke="#bcbcbc" stroke-width="8" stroke-linecap="round" stroke-linejoin="round" /><polyline points="-357.79,-634.33 -358.61,-637.00 -359.36,-638.87 -362.69,-647.14 -375.58,-677.20 -387.84,-707.73 -390.48,-714.93 -393.53,-723.24 -395.71,-730.03 -399.31,-740.21 -399.69,-741.28 -411.41,-770.17 -432.94,-824.47 -437.77,-827.23 -441.21,-836.03 -448.07,-859.88 -459.83,-889.43 -462.36,-896.15" fill="none" stroke="#bcbcbc" stroke-width="8" stroke-linecap="round" stroke-linejoin="round" /><polyline points="-254.41,446.54 -242.19,450.29 -202.64,462.33 -190.26,466.11" fill="none" stroke="#bcbcbc" stroke-width="8" stroke-linecap="round" stroke-linejoin="round" /><polyline points="484.05,-1086.02 486.35,-1095.34 485.42,-1098.88 484.29,-1103.14 477.07,-1129.59 460.97,-1185.50 452.48,-1214.08 449.96,-1221.94 427.52,-1302.61 415.40,-1346.13 402.83,-1379.59 391.47,-1409.78 380.16,-1430.53 369.18,-1441.50 284.83,-1544.56 278.59,-1551.90 274.45,-1558.68" fill="none" stroke="#bcbcbc" stroke-width="8" stroke-linecap="round" stroke-linejoin="round" /><polyline points="139.32,-894.22 134.97,-892.56 126.93,-890.34 126.12,-890.12 92.53,-881.53 53.90,-870.65 46.02,-868.43 42.51,-867.32 33.23,-864.33 25.30,-862.13 -9.34,-852.49 -66.30,-836.31 -87.54,-830.94 -95.53,-828.95 -133.49,-819.63 -156.94,-813.10 -206.60,-799.22 -255.68,-785.39 -261.36,-783.82 -302.39,-772.43 -321.31,-767.18 -330.86,-762.67 -348.95,-753.70 -384.87,-735.47 -387.37,-734.20 -395.71,-730.03 -400.80,-727.48 -407.90,-723.76 -433.14,-710.53 -479.12,-684.73 -517.53,-664.61 -523.03,-661.73 -530.37,-661.28 -534.78,-658.93 -535.66,-658.47 -577.33,-635.63 -586.06,-635.67 -596.07,-630.43 -599.57,-628.60 -602.52,-627.06 -609.49,-623.41 -614.98,-610.89 -638.56,-598.26 -646.06,-594.25 -654.17,-589.83 -686.99,-571.98 -703.95,-562.75 -712.50,-560.28" fill="none" stroke="#bcbcbc" stroke-width="8" stroke-linecap="round" stroke-linejoin="round" /><polyline points="611.58,-122.97 594.07,-121.37 539.37,-116.36 536.91,-116.13 533.42,-115.81 527.77,-115.29 474.74,-110.42 456.29,-112.14 434.82,-106.75 417.61,-102.54 408.45,-100.29 385.68,-99.43 365.97,-100.43 355.92,-101.50 347.37,-104.08 341.07,-107.56 317.62,-124.14 260.64,-163.28 255.27,-166.92 249.80,-170.63 245.71,-174.59" fill="none" stroke="#bcbcbc" stroke-width="8" stroke-linecap="round" stroke-linejoin="round" /><polyline points="-678.95,-783.62 -658.28,-743.15 -655.15,-731.58 -637.73,-698.36 -630.54,-688.85 -601.43,-632.22 -599.57,-628.60" fill="none" stroke="#bcbcbc" stroke-width="8" stroke-linecap="round" stroke-linejoin="round" /><polyline points="-45.36,-423.70 -48.45,-415.19 -49.32,-412.55 -53.36,-400.31 -78.94,-328.95 -91.64,-293.51 -92.07,-292.30 -97.17,-281.29 -100.09,-274.75" fill="none" stroke="#bcbcbc" stroke-width="8" stroke-linecap="round" stroke-linejoin="round" /><polyline points="293.99,-1049.93 291.16,-1056.00 283.70,-1056.98 259.59,-1051.45 254.69,-1052.09 250.85,-1057.23 244.03,-1088.60 280.98,-1094.32 298.09,-1099.37 306.45,-1100.24 315.46,-1068.21" fill="none" stroke="#bcbcbc" stroke-width="8" stroke-linecap="round" stroke-linejoin="round" /><polyline points="427.54,-703.06 437.06,-708.40 484.87,-737.21 497.65,-744.82 520.01,-758.15 556.80,-781.94 565.39,-788.11 629.93,-828.14" fill="none" stroke="#bcbcbc" stroke-width="8" stroke-linecap="round" stroke-linejoin="round" /><polyline points="653.14,-513.97 636.82,-518.83 627.34,-526.61 591.09,-557.98 589.85,-559.08 581.09,-566.90 575.94,-576.03 484.87,-737.21" fill="none" stroke="#bcbcbc" stroke-width="8" stroke-linecap="round" stroke-linejoin="round" /><polyline points="-374.59,-526.75 -231.71,-482.78 -220.05,-479.09 -113.43,-445.29 -111.20,-444.59 -95.23,-439.52 -87.37,-437.03 -77.17,-434.24 -56.12,-427.11 -45.36,-423.70 -35.67,-420.63 43.68,-395.46 127.45,-369.14 134.38,-366.97 143.98,-371.68" fill="none" stroke="#bcbcbc" stroke-width="8" stroke-linecap="round" stroke-linejoin="round" /><polyline points="45.53,-1232.08 107.42,-1288.94 117.90,-1298.57" fill="none" stroke="#bcbcbc" stroke-width="8" stroke-linecap="round" stroke-linejoin="round" /><polyline points="-990.90,-314.51 -763.79,-290.17" fill="none" stroke="#bcbcbc" stroke-width="8" stroke-linecap="round" stroke-linejoin="round" /><polyline points="-305.78,-948.34 -258.05,-965.41 -208.81,-983.21 -178.22,-995.10 -84.81,-1029.06 -57.70,-1038.44 -52.04,-1040.40 -45.25,-1042.73 -37.63,-1045.35 -36.70,-1045.67 -21.31,-1051.86 -14.62,-1054.55" fill="none" stroke="#bcbcbc" stroke-width="8" stroke-linecap="round" stroke-linejoin="round" /><polyline points="14.82,206.63 59.76,262.06 87.27,289.76 99.18,298.33 116.05,312.45 131.88,325.75 145.49,339.02 145.83,345.77" fill="none" stroke="#bcbcbc" stroke-width="8" stroke-linecap="round" stroke-linejoin="round" /><polyline points="63.23,-1071.87 80.84,-1116.01 109.35,-1188.68 150.19,-1292.80 170.37,-1342.12 200.45,-1415.67 225.11,-1475.91 229.52,-1483.90 251.20,-1519.36 252.61,-1521.65 260.54,-1537.25 274.45,-1558.68 282.22,-1570.63 293.22,-1587.55" fill="none" stroke="#bcbcbc" stroke-width="8" stroke-linecap="round" stroke-linejoin="round" /><polyline points="-352.27,108.32 -355.15,110.63 -357.06,113.37 -360.95,124.83 -363.63,133.10 -376.04,170.20 -377.75,175.55 -378.80,178.87 -390.20,175.60 -417.93,166.31 -445.41,157.09 -466.65,155.89" fill="none" stroke="#bcbcbc" stroke-width="8" stroke-linecap="round" stroke-linejoin="round" /><polyline points="-895.34,366.49 -850.06,249.55 -845.02,236.82 -840.50,224.56 -835.03,209.74 -828.34,186.43 -821.35,157.47 -818.49,136.72 -816.42,121.64 -813.48,110.51 -802.83,26.89 -790.38,-78.62 -783.93,-128.93 -776.75,-188.03 -763.79,-290.17 -761.73,-307.54 -748.64,-414.37 -748.63,-420.32 -745.74,-452.02 -737.38,-518.97 -735.29,-530.65 -733.11,-537.20 -729.69,-544.42 -726.37,-550.02 -719.04,-557.95 -712.49,-560.20" fill="none" stroke="#bcbcbc" stroke-width="8" stroke-linecap="round" stroke-linejoin="round" /><polyline points="93.31,-521.69 95.79,-517.76 104.09,-504.80 116.53,-484.87 119.52,-480.12 124.48,-483.89 148.53,-502.14" fill="none" stroke="#bcbcbc" stroke-width="8" stroke-linecap="round" stroke-linejoin="round" /><polyline points="109.35,-1188.68 354.04,-1144.45 379.74,-1130.93 475.61,-1083.41 484.05,-1086.02" fill="none" stroke="#bcbcbc" stroke-width="8" stroke-linecap="round" stroke-linejoin="round" /><polyline points="-357.79,-634.33 -362.14,-628.00 -401.17,-608.95 -429.84,-572.51 -460.78,-553.36 -481.94,-537.38 -502.13,-520.92 -512.48,-511.49 -530.76,-488.30 -551.20,-459.00 -554.57,-453.57" fill="none" stroke="#bcbcbc" stroke-width="8" stroke-linecap="round" stroke-linejoin="round" /><polyline points="-316.52,-608.19 -318.21,-604.43 -321.92,-599.02 -328.91,-590.41 -370.15,-538.33 -391.96,-479.58 -502.08,-520.96" fill="none" stroke="#bcbcbc" stroke-width="8" stroke-linecap="round" stroke-linejoin="round" /><polyline points="-481.94,-537.38 -486.21,-550.29 -504.63,-606.07 -511.78,-617.09 -523.76,-653.01 -524.79,-656.11 -523.03,-661.73 -525.90,-670.89 -583.47,-854.71" fill="none" stroke="#bcbcbc" stroke-width="8" stroke-linecap="round" stroke-linejoin="round" /><polyline points="192.72,-1540.37 238.22,-1539.17 240.35,-1539.11 249.07,-1538.86 260.54,-1537.25" fill="none" stroke="#bcbcbc" stroke-width="8" stroke-linecap="round" stroke-linejoin="round" /><polyline points="-41.34,-58.22 -56.87,-58.41 -188.44,-40.75 -197.92,-39.75 -208.76,-38.61 -271.72,-31.96 -356.53,-23.01 -401.50,-18.26 -426.38,-15.64 -446.57,-13.19 -456.94,-11.92 -468.62,-10.50 -525.05,-3.65 -538.58,-2.00 -580.25,2.55 -802.83,26.89" fill="none" stroke="#bcbcbc" stroke-width="8" stroke-linecap="round" stroke-linejoin="round" /><polyline points="-236.12,398.52 -247.78,394.77 -302.21,377.25 -313.22,373.71 -322.77,370.63 -380.44,352.10 -391.81,348.44 -406.86,343.60 -498.66,314.06 -508.99,310.74" fill="none" stroke="#bcbcbc" stroke-width="8" stroke-linecap="round" stroke-linejoin="round" /><polyline points="-8.50,-703.49 23.16,-693.63 138.95,-657.88 140.04,-657.54 148.62,-657.01" fill="none" stroke="#bcbcbc" stroke-width="8" stroke-linecap="round" stroke-linejoin="round" /><polyline points="317.31,-964.24 474.82,-961.47" fill="none" stroke="#bcbcbc" stroke-width="8" stroke-linecap="round" stroke-linejoin="round" /><polyline points="240.18,419.45 217.66,392.69 208.22,381.71 200.10,374.12 189.29,366.05 167.20,352.80 145.83,345.77 102.34,332.34 66.77,321.05 87.27,289.76" fill="none" stroke="#bcbcbc" stroke-width="8" stroke-linecap="round" stroke-linejoin="round" /><polyline points="14.82,206.63 -16.53,167.93 -22.50,160.57 -54.08,117.07 -61.23,103.79 -59.51,87.97 -49.99,87.88 -26.50,92.40 9.24,99.27" fill="none" stroke="#bcbcbc" stroke-width="8" stroke-linecap="round" stroke-linejoin="round" /><polyline points="-395.34,-103.41 -389.56,-90.97 -356.53,-23.01 -307.43,78.06 -301.17,90.95" fill="none" stroke="#bcbcbc" stroke-width="8" stroke-linecap="round" stroke-linejoin="round" /><polyline points="-924.22,204.44 -912.40,209.27 -857.09,231.88 -845.02,236.82 -832.31,242.01 -767.19,268.64 -755.41,273.46" fill="none" stroke="#bcbcbc" stroke-width="8" stroke-linecap="round" stroke-linejoin="round" /><polyline points="-368.16,-204.19 -252.92,-153.78" fill="none" stroke="#bcbcbc" stroke-width="8" stroke-linecap="round" stroke-linejoin="round" /><polyline points="148.62,-657.01 166.17,-656.08 167.29,-655.09 175.17,-648.10 186.75,-637.77 188.88,-633.62 228.78,-598.68 231.73,-593.11 259.79,-568.35 266.85,-566.20 288.67,-547.09 293.56,-544.85 326.47,-516.94 333.80,-510.44 337.84,-504.01" fill="none" stroke="#bcbcbc" stroke-width="8" stroke-linecap="round" stroke-linejoin="round" /><polyline points="-956.74,-204.07 -776.75,-188.03" fill="none" stroke="#bcbcbc" stroke-width="8" stroke-linecap="round" stroke-linejoin="round" /><polyline points="-554.85,466.10 -549.27,454.23 -547.84,448.95 -540.02,420.13 -511.70,320.30 -508.99,310.74 -506.13,300.26 -493.30,253.35 -471.64,174.15 -466.65,155.89" fill="none" stroke="#bcbcbc" stroke-width="8" stroke-linecap="round" stroke-linejoin="round" /><polyline points="-395.34,-103.41 -368.16,-204.19 -425.78,-224.34 -440.87,-215.44 -447.75,-210.21 -452.84,-203.32 -456.42,-194.23 -469.67,-145.25 -458.98,-139.81 -448.18,-137.19 -424.30,-130.97 -406.43,-125.28 -395.34,-103.41" fill="none" stroke="#bcbcbc" stroke-width="8" stroke-linecap="round" stroke-linejoin="round" /><polyline points="-469.67,-145.25 -482.29,-147.01 -776.75,-188.03" fill="none" stroke="#bcbcbc" stroke-width="8" stroke-linecap="round" stroke-linejoin="round" /><polyline points="9.24,99.27 36.55,105.24 110.42,128.71 131.07,135.24 180.09,149.40 229.47,163.64 266.03,174.20 324.51,191.08 336.58,194.57 366.09,204.47 414.67,217.40 418.95,218.20" fill="none" stroke="#bcbcbc" stroke-width="8" stroke-linecap="round" stroke-linejoin="round" /><polyline points="43.89,525.94 33.92,528.44 23.14,558.47 6.44,553.72 -69.53,527.83 -78.68,525.88 -99.02,524.43 -191.03,524.79 -211.31,522.21 -257.11,515.21 -275.58,512.21 -406.62,491.08 -457.36,482.98 -554.13,466.22 -569.75,463.13 -788.14,402.09 -801.92,398.23 -895.34,366.49 -918.33,358.33 -975.74,334.54 -1008.46,322.17" fill="none" stroke="#bcbcbc" stroke-width="8" stroke-linecap="round" stroke-linejoin="round" /><polyline points="244.03,-1088.60 234.58,-1090.55 108.36,-1075.63 63.23,-1071.87" fill="none" stroke="#bcbcbc" stroke-width="8" stroke-linecap="round" stroke-linejoin="round" /><polyline points="9.24,99.27 13.66,91.87 40.15,23.86 69.75,-78.99 77.29,-101.14 81.33,-107.17 109.91,-198.88 111.33,-209.83 112.41,-216.98" fill="none" stroke="#bcbcbc" stroke-width="8" stroke-linecap="round" stroke-linejoin="round" /><polyline points="139.32,-894.22 142.33,-895.37 146.42,-898.62 152.63,-905.88 233.23,-1021.51 254.69,-1052.09" fill="none" stroke="#bcbcbc" stroke-width="8" stroke-linecap="round" stroke-linejoin="round" /><polyline points="498.02,-469.47 499.66,-474.22 540.18,-521.88 543.15,-523.46 550.19,-533.09 573.76,-560.16 581.09,-566.90" fill="none" stroke="#bcbcbc" stroke-width="8" stroke-linecap="round" stroke-linejoin="round" /><polyline points="533.42,-115.81 532.86,-122.19 532.42,-127.12 530.29,-136.55 527.74,-142.71 524.56,-158.87 524.27,-164.72 522.11,-177.81 512.47,-182.84 504.76,-179.90 490.96,-176.59 480.05,-174.89 469.58,-172.36 455.12,-169.07 448.53,-167.56" fill="none" stroke="#bcbcbc" stroke-width="8" stroke-linecap="round" stroke-linejoin="round" /><polyline points="-530.94,-349.86 -501.48,-418.91 -499.84,-423.40" fill="none" stroke="#bcbcbc" stroke-width="8" stroke-linecap="round" stroke-linejoin="round" /><polyline points="245.53,-476.49 259.74,-481.99 267.16,-484.86 272.90,-490.68 296.58,-496.51 304.52,-494.49 321.66,-498.90 334.73,-502.27 337.84,-504.01 350.52,-507.11 415.33,-522.99 430.02,-527.38" fill="none" stroke="#bcbcbc" stroke-width="8" stroke-linecap="round" stroke-linejoin="round" /><polyline points="-352.27,108.32 -321.70,97.22 -311.47,94.09 -301.17,90.95 -282.17,85.15 -267.39,83.02 -216.91,77.50 -206.77,76.95 -161.60,77.33 -134.09,77.57 -123.74,77.04 -107.17,78.71 -101.99,79.46 -91.42,80.97 -59.51,87.97" fill="none" stroke="#bcbcbc" stroke-width="8" stroke-linecap="round" stroke-linejoin="round" /><polyline points="-206.60,-799.22 -211.67,-816.35 -230.48,-879.94 -253.33,-952.46 -258.05,-965.41 -262.84,-977.54 -268.89,-995.02" fill="none" stroke="#bcbcbc" stroke-width="8" stroke-linecap="round" stroke-linejoin="round" /><polyline points="-261.32,226.21 -257.30,213.52 -216.66,85.38 -216.91,77.50" fill="none" stroke="#bcbcbc" stroke-width="8" stroke-linecap="round" stroke-linejoin="round" /><polyline points="-206.77,76.95 -198.72,-30.95 -197.92,-39.75 -196.69,-49.99 -196.67,-50.45 -196.14,-62.96 -193.45,-96.93 -191.94,-112.75 -189.87,-130.72 -187.98,-143.65 -186.29,-151.78 -184.16,-157.92 -179.98,-171.76 -171.35,-200.56 -160.37,-237.75 -148.26,-275.78 -145.80,-283.53 -143.81,-289.16" fill="none" stroke="#bcbcbc" stroke-width="8" stroke-linecap="round" stroke-linejoin="round" /><polyline points="-469.67,-145.25 -471.81,-135.69 -471.44,-132.63 -458.33,-23.48 -456.94,-11.92 -457.55,-0.03 -460.98,67.86 -462.42,96.22 -463.16,110.85 -464.47,136.92 -465.16,150.50 -466.65,155.89" fill="none" stroke="#bcbcbc" stroke-width="8" stroke-linecap="round" stroke-linejoin="round" /><polyline points="-530.94,-349.86 -578.62,-364.02 -584.68,-367.91 -614.35,-376.55 -622.68,-376.47 -659.96,-387.69 -665.98,-392.14 -699.91,-402.42 -741.53,-413.76 -741.73,-413.78 -748.64,-414.37" fill="none" stroke="#bcbcbc" stroke-width="8" stroke-linecap="round" stroke-linejoin="round" /><polyline points="337.84,-504.01 339.50,-501.83 346.41,-491.53 359.19,-472.48 371.22,-460.43 394.34,-434.48 390.44,-410.49 388.45,-401.49 385.69,-397.69 391.49,-389.11 400.46,-370.66 418.38,-336.08 427.21,-319.05 432.70,-303.75 435.18,-296.64" fill="none" stroke="#bcbcbc" stroke-width="8" stroke-linecap="round" stroke-linejoin="round" /><polyline points="458.58,-454.60 451.93,-452.53 408.16,-438.91 401.88,-436.90 394.34,-434.48" fill="none" stroke="#bcbcbc" stroke-width="8" stroke-linecap="round" stroke-linejoin="round" /><polyline points="143.98,-371.68 157.67,-376.12 257.04,-426.85 270.34,-433.35 317.18,-446.88 362.59,-459.64 371.22,-460.43" fill="none" stroke="#bcbcbc" stroke-width="8" stroke-linecap="round" stroke-linejoin="round" /><polyline points="154.81,-308.87 269.37,-362.18 274.19,-365.37 285.39,-368.63 361.73,-390.84 373.31,-395.27 385.69,-397.69" fill="none" stroke="#bcbcbc" stroke-width="8" stroke-linecap="round" stroke-linejoin="round" /><polyline points="131.43,-1426.38 177.81,-1420.66 182.46,-1420.08 200.45,-1415.67" fill="none" stroke="#bcbcbc" stroke-width="8" stroke-linecap="round" stroke-linejoin="round" /><polyline points="527.73,-954.96 535.95,-956.68 566.68,-941.62 570.73,-937.61 628.41,-839.98 629.93,-828.14 637.43,-821.90 636.24,-817.58 636.06,-810.54 637.10,-800.70 652.37,-737.92 653.72,-694.44 655.87,-625.01 659.46,-531.56 644.83,-490.84 635.40,-466.01 621.64,-431.03 617.66,-420.91 615.07,-418.08 610.91,-391.01" fill="none" stroke="#bcbcbc" stroke-width="8" stroke-linecap="round" stroke-linejoin="round" /><polyline points="634.37,-226.09 620.34,-232.20 585.29,-256.66 539.03,-289.16 513.59,-309.73 496.43,-328.10" fill="none" stroke="#bcbcbc" stroke-width="8" stroke-linecap="round" stroke-linejoin="round" /><polyline points="66.77,321.05 52.99,316.69 30.63,309.60 19.96,306.22 7.43,302.24 -8.40,297.22 -22.72,292.69 -36.87,288.20 -99.98,268.17 -111.03,264.67 -124.76,260.32 -127.79,259.36 -163.89,249.82 -174.08,247.36 -186.85,244.27 -200.22,241.03 -248.40,229.35 -261.32,226.21 -275.20,221.39 -304.20,211.32 -315.14,207.53 -324.92,204.35 -370.33,188.20 -376.05,184.80 -378.80,178.87" fill="none" stroke="#bcbcbc" stroke-width="8" stroke-linecap="round" stroke-linejoin="round" /><polyline points="274.19,-365.37 270.85,-377.36 260.88,-413.11 257.04,-426.85 251.50,-437.13 250.98,-439.03 247.72,-451.14 251.52,-456.50 246.95,-471.75 245.53,-476.49" fill="none" stroke="#bcbcbc" stroke-width="8" stroke-linecap="round" stroke-linejoin="round" /><polyline points="257.52,-802.82 267.00,-807.28 318.79,-835.83 348.39,-854.87 369.27,-869.11 373.88,-872.55 390.69,-884.23 408.10,-897.09 419.13,-905.11 432.27,-914.72 477.96,-935.34 483.89,-935.02 492.55,-939.12 527.73,-954.96" fill="none" stroke="#bcbcbc" stroke-width="8" stroke-linecap="round" stroke-linejoin="round" /><polyline points="-316.52,-608.19 -309.05,-605.16 -304.11,-603.65 -211.50,-575.20 -197.35,-570.86" fill="none" stroke="#bcbcbc" stroke-width="8" stroke-linecap="round" stroke-linejoin="round" /><polyline points="-978.06,-399.94 -1044.23,-419.96" fill="none" stroke="#bcbcbc" stroke-width="8" stroke-linecap="round" stroke-linejoin="round" /><polyline points="90.76,-1332.94 107.17,-1312.16 109.62,-1309.06 117.90,-1298.57 127.34,-1297.46 146.74,-1295.18 150.19,-1292.80" fill="none" stroke="#bcbcbc" stroke-width="8" stroke-linecap="round" stroke-linejoin="round" /><polyline points="660.46,-408.66 634.46,-403.81 607.81,-389.32 583.10,-375.57 559.73,-363.89 531.49,-348.55 511.04,-336.14 470.63,-314.47 312.88,-235.12 271.98,-217.11 244.96,-205.42 231.57,-201.04 220.49,-198.97 202.36,-197.87 176.55,-201.53 112.16,-216.98 20.75,-238.28 -99.51,-274.55 -143.81,-289.16 -216.36,-311.55 -285.74,-334.43 -387.50,-374.35 -438.38,-396.26 -499.72,-423.52 -601.48,-479.27 -625.34,-495.09 -685.71,-533.06 -711.03,-558.37 -749.00,-607.54 -811.57,-672.04 -836.16,-693.71" fill="none" stroke="#bcbcbc" stroke-width="8" stroke-linecap="round" stroke-linejoin="round" /><polyline points="-525.05,-3.65 -566.04,-23.49 -659.31,-68.62 -773.72,-123.99 -783.93,-128.93" fill="none" stroke="#bcbcbc" stroke-width="8" stroke-linecap="round" stroke-linejoin="round" /><polyline points="148.62,-657.01 158.97,-667.60 186.49,-695.77 208.33,-719.62" fill="none" stroke="#bcbcbc" stroke-width="8" stroke-linecap="round" stroke-linejoin="round" /><polyline points="-646.06,-594.25 -657.43,-609.30 -710.71,-679.84 -786.78,-741.39" fill="none" stroke="#bcbcbc" stroke-width="8" stroke-linecap="round" stroke-linejoin="round" /><polyline points="-976.14,334.37 -965.74,309.71 -932.67,227.27 -928.66,216.44 -924.22,204.44 -922.53,200.11 -922.08,193.33 -917.85,129.23 -916.63,110.85" fill="none" stroke="#bcbcbc" stroke-width="8" stroke-linecap="round" stroke-linejoin="round" /><polyline points="-998.71,-328.34 -978.06,-399.94 -950.82,-494.38 -947.45,-506.07 -943.70,-519.35 -935.31,-549.08 -934.42,-552.20 -932.02,-561.77 -928.19,-572.57 -927.26,-575.19 -922.42,-587.19 -912.91,-608.16 -910.07,-614.18" fill="none" stroke="#bcbcbc" stroke-width="8" stroke-linecap="round" stroke-linejoin="round" /><polyline points="-947.45,-506.07 -905.67,-495.38 -817.18,-472.64 -766.77,-456.95 -745.74,-452.02" fill="none" stroke="#bcbcbc" stroke-width="8" stroke-linecap="round" stroke-linejoin="round" /><polyline points="-87.54,-830.94 -86.12,-839.64 -84.69,-848.66 -78.56,-878.85 -63.25,-949.12 -50.67,-1011.98 -48.38,-1025.02 -45.25,-1042.73 -45.25,-1042.75" fill="none" stroke="#bcbcbc" stroke-width="8" stroke-linecap="round" stroke-linejoin="round" /><polyline points="-211.23,522.22 -192.57,474.65 -190.26,466.11 -116.23,278.22 -111.03,264.67 -106.83,253.17 -62.59,124.50 -54.08,117.07" fill="none" stroke="#bcbcbc" stroke-width="8" stroke-linecap="round" stroke-linejoin="round" /><polyline points="42.51,-867.32 42.50,-867.33 39.88,-881.09 39.47,-882.76 33.08,-908.77 33.08,-908.85 28.72,-926.48 10.25,-989.78 7.92,-996.56 -4.55,-1030.47 -8.61,-1040.59 -11.22,-1047.12 -14.62,-1054.53 -14.62,-1054.55 -14.63,-1054.58 -17.10,-1081.84 -17.34,-1095.22" fill="none" stroke="#bcbcbc" stroke-width="8" stroke-linecap="round" stroke-linejoin="round" /><polyline points="14.82,206.63 10.07,211.76 2.99,220.18 -16.95,276.41 -22.72,292.69" fill="none" stroke="#bcbcbc" stroke-width="8" stroke-linecap="round" stroke-linejoin="round" /><polyline points="-316.52,-608.19 -313.80,-615.57 -313.18,-617.29 -300.23,-653.46 -295.38,-668.69 -255.68,-785.39" fill="none" stroke="#bcbcbc" stroke-width="8" stroke-linecap="round" stroke-linejoin="round" /><polyline points="-111.20,-444.59 -107.15,-455.34 -96.18,-484.47 -91.55,-496.79 -88.41,-505.13 -79.61,-528.50 -73.79,-543.95 -73.01,-546.02 -58.92,-583.43 -53.04,-581.61 -49.84,-590.29 -44.20,-605.66 -45.28,-612.64 -30.30,-653.43 -28.76,-657.62 -25.92,-660.23 -23.53,-662.42 -8.50,-703.49 -6.33,-714.74 15.23,-774.63 20.33,-778.62 30.70,-807.96 28.86,-812.47 37.94,-839.87 33.23,-864.33" fill="none" stroke="#bcbcbc" stroke-width="8" stroke-linecap="round" stroke-linejoin="round" /><polyline points="274.45,-1558.68 268.41,-1568.59 236.67,-1620.66" fill="none" stroke="#bcbcbc" stroke-width="8" stroke-linecap="round" stroke-linejoin="round" /><polyline points="373.88,-872.55 519.56,-778.88 519.60,-778.82 519.60,-778.80 546.54,-775.31" fill="none" stroke="#bcbcbc" stroke-width="8" stroke-linecap="round" stroke-linejoin="round" /><polyline points="315.46,-1068.21 470.46,-990.42 475.14,-986.93 474.82,-961.47 477.96,-935.34" fill="none" stroke="#bcbcbc" stroke-width="8" stroke-linecap="round" stroke-linejoin="round" /><polyline points="19.96,306.22 14.39,323.22 -8.20,392.09 -46.61,508.07 -49.33,516.30 -52.10,524.63 -52.87,533.51" fill="none" stroke="#bcbcbc" stroke-width="8" stroke-linecap="round" stroke-linejoin="round" /><polyline points="456.29,-112.14 457.22,-120.78 457.42,-128.84 457.36,-129.12 451.86,-152.86 449.61,-162.78 448.53,-167.56 447.41,-172.45 441.39,-199.01 429.61,-252.08 421.05,-283.99 419.84,-288.92" fill="none" stroke="#bcbcbc" stroke-width="8" stroke-linecap="round" stroke-linejoin="round" /><polyline points="-313.22,373.71 -309.38,362.79 -266.22,240.14 -261.32,226.21" fill="none" stroke="#bcbcbc" stroke-width="8" stroke-linecap="round" stroke-linejoin="round" /><polyline points="655.87,-625.01 643.17,-628.59 556.93,-760.90 546.54,-775.31" fill="none" stroke="#bcbcbc" stroke-width="8" stroke-linecap="round" stroke-linejoin="round" /><polyline points="-761.73,-307.54 -447.45,-232.26 -425.78,-224.34" fill="none" stroke="#bcbcbc" stroke-width="8" stroke-linecap="round" stroke-linejoin="round" /><polyline points="229.52,-1483.90 351.94,-1438.56 369.18,-1441.50" fill="none" stroke="#bcbcbc" stroke-width="8" stroke-linecap="round" stroke-linejoin="round" />
    <polyline points="167.20,352.80 168.27,346.85 172.11,337.14 208.20,252.71 221.83,221.07 237.90,181.63 241.81,167.20" fill="none" stroke="#ffffff" stroke-width="16" stroke-linecap="round" stroke-linejoin="round" />
    <polyline points="167.20,352.80 168.27,346.85 172.11,337.14 208.20,252.71 221.83,221.07 237.90,181.63 241.81,167.20" fill="none" stroke="#111111" stroke-width="9" stroke-linecap="round" stroke-linejoin="round" />
    
            <g transform="translate(167.20,352.80)">
              <circle r="19" fill="#ffffff" stroke="#111111" stroke-width="4" />
              <text text-anchor="middle" dominant-baseline="central" font-family="Helvetica, Arial, sans-serif"
                font-size="18" font-weight="700" fill="#111111">1</text>
            </g>
            
            <g transform="translate(241.81,167.20)">
              <circle r="19" fill="#ffffff" stroke="#111111" stroke-width="4" />
              <text text-anchor="middle" dominant-baseline="central" font-family="Helvetica, Arial, sans-serif"
                font-size="18" font-weight="700" fill="#111111">2</text>
            </g>
            
  </g>
</svg>
