<svg xmlns="http://www.w3.org/2000/svg" width="520" height="520" viewBox="0 0 520 520">
  <rect width="100%" height="100%" fill="#ffffff" />
  <g>
    <polyline points="1107.57,-329.26 1109.66,-318.17 1123.12,-224.00 1121.06,-200.45" fill="none" stroke="#bcbcbc" stroke-width="8" stroke-linecap="round" stroke-linejoin="round" /><polyline points="833.95,455.48 837.20,445.48 854.45,392.44 856.48,386.20 858.54,379.63 901.90,241.36 905.38,230.24 897.40,210.57" fill="none" stroke="#bcbcbc" stroke-width="8" stroke-linecap="round" stroke-linejoin="round" /><polyline points="534.43,332.50 533.72,324.56 547.90,245.16 549.89,235.23 551.37,230.03 555.28,209.89 559.66,185.25 564.44,163.55 569.18,141.89 572.16,135.78 574.11,132.04" fill="none" stroke="#bcbcbc" stroke-width="8" stroke-linecap="round" stroke-linejoin="round" /><polyline points="616.71,-227.55 613.34,-237.82 578.50,-344.07 576.80,-348.53" fill="none" stroke="#bcbcbc" stroke-width="8" stroke-linecap="round" stroke-linejoin="round" /><polyline points="437.95,707.54 438.99,697.40 439.41,692.75 443.20,650.80 447.36,613.86 448.32,605.24 449.23,594.89 449.33,594.02 451.68,573.45 453.71,552.54 455.94,532.36 457.45,516.65 458.08,506.95 458.63,498.00 459.62,487.91" fill="none" stroke="#bcbcbc" stroke-width="8" stroke-linecap="round" stroke-linejoin="round" /><polyline points="919.33,480.13 921.81,472.33 939.29,417.38 941.28,411.14 944.10,402.24 946.12,395.87 961.60,329.14" fill="none" stroke="#bcbcbc" stroke-width="8" stroke-linecap="round" stroke-linejoin="round" /><polyline points="851.37,-606.84 857.83,-605.85 1035.73,-578.52" fill="none" stroke="#bcbcbc" stroke-width="8" stroke-linecap="round" stroke-linejoin="round" /><polyline points="394.67,467.19 376.16,466.32 364.87,465.80 358.73,465.51 353.35,465.26 311.42,463.31 253.10,460.60 225.30,456.66 216.00,455.34 207.92,453.91 153.25,444.27 145.61,442.92 143.91,442.63 134.47,441.01 127.22,439.77 80.89,435.67 72.06,434.89 68.83,434.60 58.81,433.91 39.20,432.55" fill="none" stroke="#bcbcbc" stroke-width="8" stroke-linecap="round" stroke-linejoin="round" /><polyline points="663.68,413.47 667.27,403.26 699.59,313.67 738.47,200.68 740.96,193.59 742.70,188.64 744.10,184.57" fill="none" stroke="#bcbcbc" stroke-width="8" stroke-linecap="round" stroke-linejoin="round" /><polyline points="68.83,434.60 68.00,428.84 67.81,422.59 69.03,409.99 71.85,386.99 73.73,379.26 76.77,351.35 77.33,345.13 78.22,337.14 78.88,331.20 80.13,324.47 82.44,306.37 84.05,292.52 86.41,286.85" fill="none" stroke="#bcbcbc" stroke-width="8" stroke-linecap="round" stroke-linejoin="round" /><polyline points="35.75,279.78 78.86,285.80 86.41,286.85 91.09,287.60 110.42,290.68 154.94,297.77 162.58,299.04" fill="none" stroke="#bcbcbc" stroke-width="8" stroke-linecap="round" stroke-linejoin="round" /><polyline points="829.11,-285.71 829.39,-281.79 829.97,-277.83 831.37,-274.79 833.99,-271.40 838.84,-266.99 850.33,-260.00 938.96,-204.39 993.55,-131.21 1034.78,-29.46 1037.47,-22.74" fill="none" stroke="#bcbcbc" stroke-width="8" stroke-linecap="round" stroke-linejoin="round" /><polyline points="814.92,11.18 816.75,14.22 817.23,15.01 818.75,22.69 829.15,72.97 832.45,88.93 834.81,100.30 838.50,123.34 840.21,133.96 841.40,140.45 842.70,146.30 844.25,149.72 846.53,153.67 847.75,155.54 870.78,188.51 883.23,208.12 886.48,212.81" fill="none" stroke="#bcbcbc" stroke-width="8" stroke-linecap="round" stroke-linejoin="round" /><polyline points="153.78,640.79 155.00,633.24 156.14,627.79 156.44,627.06 171.77,590.62 181.54,566.93 184.51,559.42 187.65,551.48 191.07,544.64 191.62,543.31 196.29,532.01 199.90,522.01 203.00,512.84 204.97,506.36 207.18,498.35 209.72,487.62 211.65,478.91 213.96,466.75 214.44,464.03 216.00,455.34" fill="none" stroke="#bcbcbc" stroke-width="8" stroke-linecap="round" stroke-linejoin="round" /><polyline points="896.44,-376.97 945.31,-342.82 951.90,-341.42 956.72,-335.91" fill="none" stroke="#bcbcbc" stroke-width="8" stroke-linecap="round" stroke-linejoin="round" /><polyline points="691.20,-61.58 697.66,-59.09 725.71,-49.92 790.76,-24.97 794.41,-21.34 796.12,-18.62" fill="none" stroke="#bcbcbc" stroke-width="8" stroke-linecap="round" stroke-linejoin="round" /><polyline points="812.43,579.43 816.86,567.89 838.72,508.56 854.19,463.74 857.39,462.26" fill="none" stroke="#bcbcbc" stroke-width="8" stroke-linecap="round" stroke-linejoin="round" /><polyline points="503.29,504.21 506.75,496.58 507.09,495.82 512.99,476.02 522.66,443.42 525.14,435.08 527.06,428.60 527.32,424.82 526.93,416.46" fill="none" stroke="#bcbcbc" stroke-width="8" stroke-linecap="round" stroke-linejoin="round" /><polyline points="905.26,13.79 899.71,14.93 887.15,12.70 885.20,7.51 863.43,-0.79 858.28,0.56 838.64,-6.65 835.71,-4.60" fill="none" stroke="#bcbcbc" stroke-width="8" stroke-linecap="round" stroke-linejoin="round" /><polyline points="872.93,-659.57 882.80,-657.16 888.26,-656.21 1018.03,-633.71" fill="none" stroke="#bcbcbc" stroke-width="8" stroke-linecap="round" stroke-linejoin="round" /><polyline points="772.07,543.30 777.47,528.09 787.96,498.51 794.74,485.91 804.49,458.60 808.39,447.70" fill="none" stroke="#bcbcbc" stroke-width="8" stroke-linecap="round" stroke-linejoin="round" /><polyline points="61.03,-47.35 51.63,-47.78 49.28,-44.92 32.90,-25.03 -24.34,41.09 -32.39,50.39" fill="none" stroke="#bcbcbc" stroke-width="8" stroke-linecap="round" stroke-linejoin="round" /><polyline points="563.11,9.27 558.96,18.46 558.46,19.57 544.04,57.16 529.51,98.54 525.63,109.57 523.44,115.27" fill="none" stroke="#bcbcbc" stroke-width="8" stroke-linecap="round" stroke-linejoin="round" /><polyline points="774.56,-413.08 779.14,-406.87 782.41,-398.32 787.50,-386.06 795.66,-366.77 802.90,-349.46 811.20,-330.45 817.36,-315.80 818.27,-313.70 818.33,-313.57 823.28,-301.98 824.76,-298.69 826.17,-295.55 827.66,-292.61 828.78,-289.63 829.11,-285.71" fill="none" stroke="#bcbcbc" stroke-width="8" stroke-linecap="round" stroke-linejoin="round" /><polyline points="423.97,194.57 426.37,193.26 429.72,190.59 431.40,187.14 453.67,102.69 454.34,97.93 457.06,89.23" fill="none" stroke="#bcbcbc" stroke-width="8" stroke-linecap="round" stroke-linejoin="round" /><polyline points="1202.73,62.42 1205.89,72.45 1208.12,82.98 1203.79,123.12 1198.78,153.31 1196.05,163.61 1195.80,164.54 1193.41,170.10 1190.15,175.99 1182.53,185.63 1186.22,204.47 1174.28,244.91 1167.69,267.25 1154.21,303.81 1134.46,348.32 1110.35,390.98 1102.82,404.84 1089.21,427.62 1034.82,504.81 1022.91,520.86 976.77,581.16 950.28,611.30 913.22,648.96 909.79,649.31 901.42,656.15" fill="none" stroke="#bcbcbc" stroke-width="8" stroke-linecap="round" stroke-linejoin="round" /><polyline points="531.65,722.65 546.83,675.57 549.32,667.80 552.69,662.90 559.94,641.14 562.30,633.75 592.25,539.98 595.27,530.55 597.75,522.26 633.09,411.03" fill="none" stroke="#bcbcbc" stroke-width="8" stroke-linecap="round" stroke-linejoin="round" /><polyline points="887.30,-152.94 900.43,-167.28 904.30,-171.95 930.82,-209.51" fill="none" stroke="#bcbcbc" stroke-width="8" stroke-linecap="round" stroke-linejoin="round" /><polyline points="624.99,-147.26 661.13,-134.68 663.12,-131.44 673.39,-128.00 679.48,-125.91 708.61,-116.07" fill="none" stroke="#bcbcbc" stroke-width="8" stroke-linecap="round" stroke-linejoin="round" /><polyline points="940.00,-397.35 956.72,-335.91 976.07,-263.53 979.00,-257.50 979.47,-250.61 992.59,-226.11 1028.01,-160.08 1035.75,-148.66 1037.99,-145.31 1090.90,-46.40 1115.22,-24.29 1118.63,-19.89 1123.44,-15.78 1169.61,23.70 1172.74,26.38 1181.03,30.78" fill="none" stroke="#bcbcbc" stroke-width="8" stroke-linecap="round" stroke-linejoin="round" /><polyline points="760.43,732.65 875.58,665.76 896.08,655.28 901.42,656.15" fill="none" stroke="#bcbcbc" stroke-width="8" stroke-linecap="round" stroke-linejoin="round" /><polyline points="885.28,636.96 892.42,628.47 956.56,500.50 960.81,492.11 964.36,483.80 985.08,432.57 991.25,417.14 1009.10,363.10 1020.68,293.62 1022.06,283.51" fill="none" stroke="#bcbcbc" stroke-width="8" stroke-linecap="round" stroke-linejoin="round" /><polyline points="835.78,-115.64 834.66,-114.49 833.11,-109.10 832.96,-108.57 826.00,-81.77 827.82,-74.77 826.30,-68.50 824.32,-60.29 819.22,-54.38 813.44,-30.97 806.63,-25.83 799.37,-20.84 796.12,-18.62" fill="none" stroke="#bcbcbc" stroke-width="8" stroke-linecap="round" stroke-linejoin="round" /><polyline points="563.11,9.27 566.07,1.69 583.86,-43.92 587.74,-53.87 590.94,-62.06 613.67,-120.31 623.91,-144.66 624.99,-147.26 632.94,-166.50 650.79,-210.81 657.33,-229.68 658.78,-234.01 660.74,-238.91" fill="none" stroke="#bcbcbc" stroke-width="8" stroke-linecap="round" stroke-linejoin="round" /><polyline points="762.22,-267.22 765.66,-256.98 878.59,-160.53 940.21,-106.92 1032.25,-26.91 1040.28,-20.49 1043.88,-18.24 1059.85,-3.74 1081.18,14.45 1129.56,55.70 1145.18,69.13 1155.55,81.53" fill="none" stroke="#bcbcbc" stroke-width="8" stroke-linecap="round" stroke-linejoin="round" /><polyline points="948.93,-433.42 954.66,-437.09 988.60,-451.19 995.57,-458.53" fill="none" stroke="#bcbcbc" stroke-width="8" stroke-linecap="round" stroke-linejoin="round" /><polyline points="988.13,424.94 941.28,411.14 856.48,386.20" fill="none" stroke="#bcbcbc" stroke-width="8" stroke-linecap="round" stroke-linejoin="round" /><polyline points="836.90,-571.48 843.30,-567.07 1051.82,-520.67" fill="none" stroke="#bcbcbc" stroke-width="8" stroke-linecap="round" stroke-linejoin="round" /><polyline points="1094.47,115.02 1083.70,91.05 1059.78,34.01 1058.00,29.48 1053.91,19.07 1038.49,-20.16 1037.52,-22.70" fill="none" stroke="#bcbcbc" stroke-width="8" stroke-linecap="round" stroke-linejoin="round" /><polyline points="774.56,-413.08 762.98,-416.37 754.48,-418.91 737.18,-424.04 728.40,-426.55 723.37,-427.94 716.80,-429.83" fill="none" stroke="#bcbcbc" stroke-width="8" stroke-linecap="round" stroke-linejoin="round" /><polyline points="472.71,-99.38 472.13,-101.30 471.59,-102.64 469.20,-108.57 459.96,-130.11 451.17,-152.00 449.28,-157.17 447.09,-163.12 445.53,-167.99 442.95,-175.29 442.68,-176.06 434.27,-196.77 418.84,-235.70 415.38,-237.68 412.91,-243.99 407.99,-261.09 399.56,-282.28 397.74,-287.10" fill="none" stroke="#bcbcbc" stroke-width="8" stroke-linecap="round" stroke-linejoin="round" /><polyline points="546.83,675.57 555.60,678.26 583.95,686.89 592.83,689.60" fill="none" stroke="#bcbcbc" stroke-width="8" stroke-linecap="round" stroke-linejoin="round" /><polyline points="1076.26,-423.23 1077.91,-429.91 1077.24,-432.44 1076.43,-435.50 1071.25,-454.47 1059.71,-494.55 1053.62,-515.04 1051.82,-520.67 1035.73,-578.52 1027.04,-609.72 1018.03,-633.71 1009.89,-655.35 1001.78,-670.23 993.90,-678.10 933.43,-751.99 928.96,-757.25 925.99,-762.11" fill="none" stroke="#bcbcbc" stroke-width="8" stroke-linecap="round" stroke-linejoin="round" /><polyline points="829.11,-285.71 825.99,-284.52 820.23,-282.93 819.65,-282.77 795.56,-276.61 767.87,-268.81 762.22,-267.22 759.70,-266.42 753.05,-264.28 747.36,-262.70 722.53,-255.79 681.69,-244.19 666.47,-240.35 660.74,-238.91 633.52,-232.23 616.71,-227.55 581.11,-217.60 545.92,-207.69 541.85,-206.56 512.44,-198.39 498.87,-194.63 492.02,-191.39 479.05,-184.96 453.30,-171.89 451.51,-170.98 445.53,-167.99 441.88,-166.17 436.79,-163.50 418.70,-154.01 385.73,-135.52 358.19,-121.09 354.25,-119.03 348.99,-118.70 345.83,-117.02 345.20,-116.68 315.32,-100.31 309.07,-100.34 301.88,-96.58 299.38,-95.27 297.26,-94.16 292.27,-91.55 288.33,-82.58 271.42,-73.52 266.05,-70.64 260.23,-67.48 236.70,-54.67 224.54,-48.06 218.41,-46.29" fill="none" stroke="#bcbcbc" stroke-width="8" stroke-linecap="round" stroke-linejoin="round" /><polyline points="1167.69,267.25 1155.13,268.40 1115.92,271.99 1114.15,272.15 1111.65,272.38 1107.61,272.75 1069.58,276.24 1056.36,275.02 1040.96,278.88 1028.63,281.90 1022.06,283.51 1005.73,284.13 991.60,283.41 984.40,282.65 978.27,280.79 973.75,278.30 956.94,266.41 916.09,238.35 912.24,235.74 908.32,233.08 905.38,230.24" fill="none" stroke="#bcbcbc" stroke-width="8" stroke-linecap="round" stroke-linejoin="round" /><polyline points="242.46,-206.42 257.29,-177.40 259.53,-169.11 272.02,-145.28 277.17,-138.47 298.04,-97.86 299.38,-95.27" fill="none" stroke="#bcbcbc" stroke-width="8" stroke-linecap="round" stroke-linejoin="round" /><polyline points="696.71,51.64 694.49,57.74 693.87,59.63 690.97,68.41 672.63,119.57 663.53,144.98 663.22,145.84 659.56,153.74 657.47,158.43" fill="none" stroke="#bcbcbc" stroke-width="8" stroke-linecap="round" stroke-linejoin="round" /><polyline points="940.00,-397.35 937.97,-401.70 932.62,-402.41 915.34,-398.44 911.82,-398.90 909.07,-402.59 904.18,-425.08 930.67,-429.18 942.94,-432.80 948.93,-433.42 955.39,-410.46" fill="none" stroke="#bcbcbc" stroke-width="8" stroke-linecap="round" stroke-linejoin="round" /><polyline points="1035.75,-148.66 1042.57,-152.49 1076.85,-173.14 1086.01,-178.59 1102.04,-188.15 1128.42,-205.21 1134.57,-209.64 1180.84,-238.34" fill="none" stroke="#bcbcbc" stroke-width="8" stroke-linecap="round" stroke-linejoin="round" /><polyline points="1197.48,-13.09 1185.79,-16.57 1178.99,-22.15 1153.00,-44.64 1152.11,-45.43 1145.83,-51.04 1142.13,-57.58 1076.85,-173.14" fill="none" stroke="#bcbcbc" stroke-width="8" stroke-linecap="round" stroke-linejoin="round" /><polyline points="460.67,-22.24 563.11,9.27 571.46,11.92 647.91,36.15 649.50,36.66 660.96,40.29 666.59,42.08 673.90,44.08 688.99,49.19 696.71,51.64 703.66,53.84 760.55,71.88 820.60,90.75 825.57,92.31 832.45,88.93" fill="none" stroke="#bcbcbc" stroke-width="8" stroke-linecap="round" stroke-linejoin="round" /><polyline points="761.87,-527.94 806.24,-568.71 813.75,-575.62" fill="none" stroke="#bcbcbc" stroke-width="8" stroke-linecap="round" stroke-linejoin="round" /><polyline points="18.82,129.92 181.64,147.37" fill="none" stroke="#bcbcbc" stroke-width="8" stroke-linecap="round" stroke-linejoin="round" /><polyline points="510.00,-324.51 544.23,-336.75 579.53,-349.51 601.46,-358.04 668.42,-382.39 687.86,-389.11 691.92,-390.52 696.78,-392.19 702.25,-394.07 702.92,-394.30 713.95,-398.73 718.74,-400.66" fill="none" stroke="#bcbcbc" stroke-width="8" stroke-linecap="round" stroke-linejoin="round" /><polyline points="739.85,503.56 772.07,543.30 791.80,563.16 800.33,569.31 812.43,579.43 823.78,588.97 833.53,598.48 833.77,603.32" fill="none" stroke="#bcbcbc" stroke-width="8" stroke-linecap="round" stroke-linejoin="round" /><polyline points="774.56,-413.08 787.19,-444.73 807.62,-496.83 836.90,-571.48 851.37,-606.84 872.93,-659.57 890.61,-702.77 893.78,-708.50 909.32,-733.91 910.33,-735.56 916.02,-746.74 925.99,-762.11 931.56,-770.68 939.44,-782.81" fill="none" stroke="#bcbcbc" stroke-width="8" stroke-linecap="round" stroke-linejoin="round" /><polyline points="476.67,433.08 474.61,434.73 473.24,436.70 470.45,444.91 468.53,450.84 459.63,477.44 458.41,481.28 457.65,483.66 449.48,481.32 429.60,474.65 409.90,468.05 394.67,467.19" fill="none" stroke="#bcbcbc" stroke-width="8" stroke-linecap="round" stroke-linejoin="round" /><polyline points="87.33,618.17 119.80,534.33 123.41,525.21 126.65,516.41 130.56,505.79 135.36,489.08 140.37,468.32 142.42,453.44 143.91,442.63 146.01,434.65 153.66,374.70 162.58,299.04 167.20,262.98 172.35,220.61 181.64,147.37 183.12,134.92 192.51,58.32 192.51,54.06 194.59,31.33 200.57,-16.67 202.07,-25.05 203.64,-29.74 206.09,-34.91 208.47,-38.93 213.72,-44.62 218.42,-46.23" fill="none" stroke="#bcbcbc" stroke-width="8" stroke-linecap="round" stroke-linejoin="round" /><polyline points="796.12,-18.62 797.90,-15.80 803.85,-6.51 812.77,7.78 814.92,11.18 818.47,8.48 835.71,-4.60" fill="none" stroke="#bcbcbc" stroke-width="8" stroke-linecap="round" stroke-linejoin="round" /><polyline points="807.62,-496.83 983.05,-465.12 1001.47,-455.42 1070.20,-421.35 1076.26,-423.23" fill="none" stroke="#bcbcbc" stroke-width="8" stroke-linecap="round" stroke-linejoin="round" /><polyline points="472.71,-99.38 469.60,-94.84 441.61,-81.18 421.06,-55.06 398.88,-41.32 383.71,-29.87 369.24,-18.07 361.81,-11.30 348.71,5.32 334.05,26.33 331.64,30.22" fill="none" stroke="#bcbcbc" stroke-width="8" stroke-linecap="round" stroke-linejoin="round" /><polyline points="502.30,-80.64 501.09,-77.94 498.43,-74.06 493.42,-67.89 463.86,-30.55 448.22,11.57 369.27,-18.10" fill="none" stroke="#bcbcbc" stroke-width="8" stroke-linecap="round" stroke-linejoin="round" /><polyline points="383.71,-29.87 380.65,-39.12 367.44,-79.12 362.31,-87.02 353.73,-112.77 352.99,-115.00 354.25,-119.03 352.20,-125.59 310.92,-257.38" fill="none" stroke="#bcbcbc" stroke-width="8" stroke-linecap="round" stroke-linejoin="round" /><polyline points="867.39,-748.98 900.02,-748.12 901.54,-748.08 907.79,-747.90 916.02,-746.74" fill="none" stroke="#bcbcbc" stroke-width="8" stroke-linecap="round" stroke-linejoin="round" /><polyline points="699.59,313.67 688.45,313.54 594.13,326.20 587.33,326.92 579.56,327.74 534.43,332.50 473.62,338.92 441.38,342.32 423.54,344.20 409.07,345.96 401.63,346.87 393.26,347.88 352.80,352.80 343.11,353.98 313.23,357.24 153.66,374.70" fill="none" stroke="#bcbcbc" stroke-width="8" stroke-linecap="round" stroke-linejoin="round" /><polyline points="559.94,641.14 551.59,638.45 512.56,625.89 504.67,623.35 497.82,621.15 456.48,607.86 448.32,605.24 437.54,601.77 371.72,580.59 364.31,578.21" fill="none" stroke="#bcbcbc" stroke-width="8" stroke-linecap="round" stroke-linejoin="round" /><polyline points="723.13,-148.97 745.83,-141.89 828.85,-116.26 829.62,-116.02 835.78,-115.64" fill="none" stroke="#bcbcbc" stroke-width="8" stroke-linecap="round" stroke-linejoin="round" /><polyline points="956.72,-335.91 1069.64,-333.92" fill="none" stroke="#bcbcbc" stroke-width="8" stroke-linecap="round" stroke-linejoin="round" /><polyline points="901.42,656.15 885.28,636.96 878.51,629.09 872.68,623.65 864.94,617.86 849.10,608.36 833.77,603.32 802.60,593.69 777.09,585.60 791.80,563.16" fill="none" stroke="#bcbcbc" stroke-width="8" stroke-linecap="round" stroke-linejoin="round" /><polyline points="739.85,503.56 717.37,475.82 713.10,470.54 690.46,439.35 685.33,429.83 686.56,418.49 693.39,418.42 710.23,421.66 735.85,426.59" fill="none" stroke="#bcbcbc" stroke-width="8" stroke-linecap="round" stroke-linejoin="round" /><polyline points="445.80,281.27 449.94,290.19 473.62,338.92 508.82,411.38 513.31,420.62" fill="none" stroke="#bcbcbc" stroke-width="8" stroke-linecap="round" stroke-linejoin="round" /><polyline points="66.63,501.99 75.10,505.45 114.75,521.67 123.41,525.21 132.52,528.93 179.21,548.02 187.65,551.48" fill="none" stroke="#bcbcbc" stroke-width="8" stroke-linecap="round" stroke-linejoin="round" /><polyline points="465.28,209.02 547.90,245.16" fill="none" stroke="#bcbcbc" stroke-width="8" stroke-linecap="round" stroke-linejoin="round" /><polyline points="835.78,-115.64 848.36,-114.98 849.17,-114.26 854.81,-109.25 863.11,-101.85 864.64,-98.87 893.25,-73.82 895.36,-69.82 915.48,-52.07 920.54,-50.53 936.18,-36.83 939.69,-35.23 963.29,-15.21 968.54,-10.55 971.44,-5.94" fill="none" stroke="#bcbcbc" stroke-width="8" stroke-linecap="round" stroke-linejoin="round" /><polyline points="43.31,209.10 172.35,220.61" fill="none" stroke="#bcbcbc" stroke-width="8" stroke-linecap="round" stroke-linejoin="round" /><polyline points="331.44,689.59 335.44,681.08 336.47,677.30 342.07,656.63 362.37,585.06 364.31,578.21 366.37,570.69 375.56,537.06 391.09,480.27 394.67,467.19" fill="none" stroke="#bcbcbc" stroke-width="8" stroke-linecap="round" stroke-linejoin="round" /><polyline points="445.80,281.27 465.28,209.02 423.97,194.57 413.16,200.95 408.22,204.70 404.57,209.64 402.01,216.16 392.50,251.27 400.17,255.18 407.91,257.06 425.03,261.51 437.85,265.59 445.80,281.27" fill="none" stroke="#bcbcbc" stroke-width="8" stroke-linecap="round" stroke-linejoin="round" /><polyline points="392.50,251.27 383.46,250.01 172.35,220.61" fill="none" stroke="#bcbcbc" stroke-width="8" stroke-linecap="round" stroke-linejoin="round" /><polyline points="735.85,426.59 755.43,430.87 808.39,447.70 823.19,452.38 858.34,462.53 893.75,472.74 919.96,480.31 961.88,492.42 970.54,494.92 991.69,502.01 1026.52,511.29 1029.59,511.86" fill="none" stroke="#bcbcbc" stroke-width="8" stroke-linecap="round" stroke-linejoin="round" /><polyline points="760.69,732.50 753.55,734.29 745.82,755.82 733.84,752.42 679.38,733.86 672.82,732.46 658.24,731.41 592.28,731.68 577.74,729.83 544.90,724.80 531.65,722.65 437.71,707.50 401.33,701.70 331.96,689.68 320.75,687.46 164.18,643.70 154.30,640.94 87.33,618.17 70.85,612.33 29.69,595.27 6.23,586.40" fill="none" stroke="#bcbcbc" stroke-width="8" stroke-linecap="round" stroke-linejoin="round" /><polyline points="904.18,-425.08 897.40,-426.47 806.91,-415.78 774.56,-413.08" fill="none" stroke="#bcbcbc" stroke-width="8" stroke-linecap="round" stroke-linejoin="round" /><polyline points="735.85,426.59 739.02,421.29 758.01,372.52 779.23,298.78 784.64,282.90 787.54,278.58 808.02,212.83 809.04,204.97 809.82,199.84" fill="none" stroke="#bcbcbc" stroke-width="8" stroke-linecap="round" stroke-linejoin="round" /><polyline points="829.11,-285.71 831.27,-286.54 834.20,-288.87 838.65,-294.07 896.44,-376.97 911.82,-398.90" fill="none" stroke="#bcbcbc" stroke-width="8" stroke-linecap="round" stroke-linejoin="round" /><polyline points="1086.27,18.82 1087.45,15.42 1116.50,-18.75 1118.63,-19.89 1123.67,-26.79 1140.57,-46.20 1145.83,-51.04" fill="none" stroke="#bcbcbc" stroke-width="8" stroke-linecap="round" stroke-linejoin="round" /><polyline points="1111.65,272.38 1111.25,267.81 1110.94,264.27 1109.41,257.51 1107.58,253.10 1105.30,241.51 1105.09,237.31 1103.54,227.93 1096.63,224.32 1091.11,226.44 1081.22,228.80 1073.39,230.03 1065.88,231.84 1055.52,234.20 1050.79,235.28" fill="none" stroke="#bcbcbc" stroke-width="8" stroke-linecap="round" stroke-linejoin="round" /><polyline points="348.58,104.58 369.70,55.07 370.87,51.85" fill="none" stroke="#bcbcbc" stroke-width="8" stroke-linecap="round" stroke-linejoin="round" /><polyline points="905.26,13.79 915.44,9.84 920.76,7.78 924.88,3.62 941.85,-0.57 947.55,0.88 959.83,-2.28 969.21,-4.70 971.44,-5.94 980.52,-8.17 1026.99,-19.55 1037.52,-22.70" fill="none" stroke="#bcbcbc" stroke-width="8" stroke-linecap="round" stroke-linejoin="round" /><polyline points="476.67,433.08 498.59,425.12 505.93,422.88 513.31,420.62 526.93,416.46 537.53,414.94 573.72,410.98 580.99,410.58 613.37,410.86 633.09,411.03 640.51,410.65 652.39,411.85 656.11,412.38 663.68,413.47 686.56,418.49" fill="none" stroke="#bcbcbc" stroke-width="8" stroke-linecap="round" stroke-linejoin="round" /><polyline points="581.11,-217.60 577.48,-229.88 563.99,-275.48 547.61,-327.47 544.23,-336.75 540.79,-345.45 536.45,-357.99" fill="none" stroke="#bcbcbc" stroke-width="8" stroke-linecap="round" stroke-linejoin="round" /><polyline points="541.88,517.60 544.76,508.51 573.90,416.63 573.72,410.98" fill="none" stroke="#bcbcbc" stroke-width="8" stroke-linecap="round" stroke-linejoin="round" /><polyline points="580.99,410.58 586.76,333.22 587.33,326.92 588.22,319.58 588.23,319.24 588.61,310.27 590.54,285.92 591.62,274.58 593.11,261.70 594.46,252.42 595.67,246.59 597.20,242.19 600.19,232.27 606.38,211.62 614.25,184.96 622.93,157.69 624.70,152.13 626.12,148.10" fill="none" stroke="#bcbcbc" stroke-width="8" stroke-linecap="round" stroke-linejoin="round" /><polyline points="392.50,251.27 390.97,258.13 391.23,260.32 400.63,338.58 401.63,346.87 401.20,355.39 398.74,404.07 397.71,424.40 397.18,434.89 396.23,453.58 395.74,463.32 394.67,467.19" fill="none" stroke="#bcbcbc" stroke-width="8" stroke-linecap="round" stroke-linejoin="round" /><polyline points="348.58,104.58 314.40,94.42 310.05,91.64 288.78,85.44 282.81,85.50 256.08,77.45 251.76,74.27 227.44,66.89 197.60,58.76 197.46,58.75 192.51,58.32" fill="none" stroke="#bcbcbc" stroke-width="8" stroke-linecap="round" stroke-linejoin="round" /><polyline points="971.44,-5.94 972.62,-4.38 977.58,3.00 986.74,16.66 995.37,25.30 1011.95,43.91 1009.14,61.11 1007.72,67.56 1005.74,70.28 1009.90,76.43 1016.33,89.67 1029.18,114.46 1035.51,126.67 1039.44,137.64 1041.22,142.73" fill="none" stroke="#bcbcbc" stroke-width="8" stroke-linecap="round" stroke-linejoin="round" /><polyline points="1058.00,29.48 1053.23,30.96 1021.85,40.73 1017.35,42.17 1011.95,43.91" fill="none" stroke="#bcbcbc" stroke-width="8" stroke-linecap="round" stroke-linejoin="round" /><polyline points="832.45,88.93 842.27,85.75 913.51,49.38 923.04,44.72 956.62,35.02 989.18,25.87 995.37,25.30" fill="none" stroke="#bcbcbc" stroke-width="8" stroke-linecap="round" stroke-linejoin="round" /><polyline points="840.21,133.96 922.35,95.75 925.80,93.46 933.84,91.12 988.56,75.20 996.87,72.02 1005.74,70.28" fill="none" stroke="#bcbcbc" stroke-width="8" stroke-linecap="round" stroke-linejoin="round" /><polyline points="823.46,-667.26 856.70,-663.15 860.04,-662.74 872.93,-659.57" fill="none" stroke="#bcbcbc" stroke-width="8" stroke-linecap="round" stroke-linejoin="round" /><polyline points="1107.57,-329.26 1113.47,-330.49 1135.50,-319.70 1138.40,-316.82 1179.76,-246.83 1180.84,-238.34 1186.22,-233.86 1185.37,-230.76 1185.24,-225.72 1185.98,-218.66 1196.93,-173.65 1197.90,-142.47 1199.44,-92.70 1202.01,-25.70 1191.53,3.50 1184.77,21.30 1174.90,46.38 1172.05,53.64 1170.19,55.66 1167.21,75.07" fill="none" stroke="#bcbcbc" stroke-width="8" stroke-linecap="round" stroke-linejoin="round" /><polyline points="1184.03,193.31 1173.97,188.94 1148.84,171.40 1115.68,148.10 1097.44,133.35 1085.14,120.17" fill="none" stroke="#bcbcbc" stroke-width="8" stroke-linecap="round" stroke-linejoin="round" /><polyline points="777.09,585.60 767.22,582.47 751.19,577.39 743.54,574.96 734.55,572.11 723.20,568.52 712.94,565.26 702.79,562.04 657.55,547.69 649.62,545.17 639.78,542.06 637.61,541.37 611.73,534.53 604.43,532.76 595.27,530.55 585.68,528.22 551.15,519.85 541.88,517.60 531.93,514.15 511.13,506.93 503.29,504.21 496.29,501.93 463.72,490.35 459.62,487.91 457.65,483.66" fill="none" stroke="#bcbcbc" stroke-width="8" stroke-linecap="round" stroke-linejoin="round" /><polyline points="925.80,93.46 923.41,84.86 916.26,59.23 913.51,49.38 909.54,42.01 909.17,40.64 906.82,31.97 909.55,28.12 906.27,17.18 905.26,13.79" fill="none" stroke="#bcbcbc" stroke-width="8" stroke-linecap="round" stroke-linejoin="round" /><polyline points="913.85,-220.18 920.65,-223.38 957.78,-243.85 979.00,-257.50 993.97,-267.71 997.28,-270.17 1009.32,-278.55 1021.81,-287.77 1029.72,-293.52 1039.14,-300.41 1071.90,-315.19 1076.14,-314.97 1082.35,-317.90 1107.57,-329.26" fill="none" stroke="#bcbcbc" stroke-width="8" stroke-linecap="round" stroke-linejoin="round" /><polyline points="502.30,-80.64 507.66,-78.47 511.20,-77.38 577.60,-56.99 587.74,-53.87" fill="none" stroke="#bcbcbc" stroke-width="8" stroke-linecap="round" stroke-linejoin="round" /><polyline points="28.02,68.67 -19.42,54.31" fill="none" stroke="#bcbcbc" stroke-width="8" stroke-linecap="round" stroke-linejoin="round" /><polyline points="794.30,-600.26 806.06,-585.36 807.82,-583.14 813.75,-575.62 820.52,-574.82 834.43,-573.19 836.90,-571.48" fill="none" stroke="#bcbcbc" stroke-width="8" stroke-linecap="round" stroke-linejoin="round" /><polyline points="1202.73,62.42 1184.09,65.90 1164.98,76.28 1147.27,86.14 1130.51,94.52 1110.27,105.52 1095.61,114.42 1066.64,129.95 953.54,186.84 924.22,199.76 904.85,208.13 895.25,211.28 887.31,212.76 874.30,213.55 855.80,210.93 809.64,199.84 744.10,184.57 657.89,158.57 626.12,148.10 574.11,132.04 524.37,115.64 451.42,87.02 414.94,71.31 370.96,51.76 298.01,11.80 280.90,0.45 237.62,-26.77 219.47,-44.92 192.24,-80.17 147.39,-126.42 129.76,-141.95" fill="none" stroke="#bcbcbc" stroke-width="8" stroke-linecap="round" stroke-linejoin="round" /><polyline points="849.10,608.36 849.86,604.10 852.62,597.13 878.49,536.60 888.27,513.91 899.79,485.64 902.59,475.29" fill="none" stroke="#bcbcbc" stroke-width="8" stroke-linecap="round" stroke-linejoin="round" /><polyline points="835.78,-115.64 843.20,-123.23 862.93,-143.43 878.59,-160.53" fill="none" stroke="#bcbcbc" stroke-width="8" stroke-linecap="round" stroke-linejoin="round" /><polyline points="266.05,-70.64 257.89,-81.43 219.69,-132.01 165.16,-176.14" fill="none" stroke="#bcbcbc" stroke-width="8" stroke-linecap="round" stroke-linejoin="round" /><polyline points="29.40,595.15 36.86,577.47 60.57,518.36 63.44,510.60 66.63,501.99 67.84,498.89 68.16,494.02 71.19,448.07 72.06,434.89" fill="none" stroke="#bcbcbc" stroke-width="8" stroke-linecap="round" stroke-linejoin="round" /><polyline points="13.22,120.01 28.02,68.67 47.55,0.96 49.97,-7.42 52.66,-16.94 58.68,-38.26 59.31,-40.50 61.03,-47.35 63.78,-55.10 64.45,-56.98 67.92,-65.58 74.73,-80.61 76.77,-84.93" fill="none" stroke="#bcbcbc" stroke-width="8" stroke-linecap="round" stroke-linejoin="round" /><polyline points="49.97,-7.42 79.92,0.24 143.36,16.55 179.51,27.80 194.58,31.33" fill="none" stroke="#bcbcbc" stroke-width="8" stroke-linecap="round" stroke-linejoin="round" /><polyline points="666.47,-240.35 667.49,-246.58 668.51,-253.05 672.90,-274.69 683.88,-325.08 692.90,-370.14 694.55,-379.49 696.78,-392.19 696.79,-392.20" fill="none" stroke="#bcbcbc" stroke-width="8" stroke-linecap="round" stroke-linejoin="round" /><polyline points="577.79,729.83 591.17,695.73 592.83,689.60 645.90,554.89 649.62,545.17 652.64,536.93 684.35,444.68 690.46,439.35" fill="none" stroke="#bcbcbc" stroke-width="8" stroke-linecap="round" stroke-linejoin="round" /><polyline points="759.70,-266.42 759.70,-266.44 757.82,-276.30 757.53,-277.50 752.94,-296.14 752.94,-296.20 749.82,-308.84 736.58,-354.22 734.91,-359.09 725.96,-383.40 723.06,-390.65 721.18,-395.33 718.75,-400.65 718.74,-400.66 718.74,-400.68 716.97,-420.23 716.80,-429.83" fill="none" stroke="#bcbcbc" stroke-width="8" stroke-linecap="round" stroke-linejoin="round" /><polyline points="739.85,503.56 736.45,507.24 731.37,513.28 717.08,553.59 712.94,565.26" fill="none" stroke="#bcbcbc" stroke-width="8" stroke-linecap="round" stroke-linejoin="round" /><polyline points="502.30,-80.64 504.26,-85.93 504.70,-87.16 513.98,-113.09 517.46,-124.02 545.92,-207.69" fill="none" stroke="#bcbcbc" stroke-width="8" stroke-linecap="round" stroke-linejoin="round" /><polyline points="649.50,36.66 652.41,28.95 660.27,8.06 663.59,-0.77 665.85,-6.74 672.15,-23.50 676.32,-34.58 676.88,-36.07 686.98,-62.89 691.20,-61.58 693.49,-67.81 697.54,-78.82 696.76,-83.83 707.51,-113.07 708.61,-116.07 710.65,-117.95 712.36,-119.52 723.13,-148.97 724.69,-157.03 740.15,-199.97 743.80,-202.83 751.24,-223.87 749.92,-227.10 756.43,-246.74 753.05,-264.28" fill="none" stroke="#bcbcbc" stroke-width="8" stroke-linecap="round" stroke-linejoin="round" /><polyline points="925.99,-762.11 921.66,-769.21 898.90,-806.54" fill="none" stroke="#bcbcbc" stroke-width="8" stroke-linecap="round" stroke-linejoin="round" /><polyline points="997.28,-270.17 1101.72,-203.02 1101.75,-202.97 1101.75,-202.96 1121.06,-200.45" fill="none" stroke="#bcbcbc" stroke-width="8" stroke-linecap="round" stroke-linejoin="round" /><polyline points="955.39,-410.46 1066.52,-354.68 1069.87,-352.18 1069.64,-333.93 1071.90,-315.19" fill="none" stroke="#bcbcbc" stroke-width="8" stroke-linecap="round" stroke-linejoin="round" /><polyline points="743.54,574.96 739.54,587.16 723.35,636.53 695.81,719.69 693.86,725.58 691.88,731.56 691.33,737.93" fill="none" stroke="#bcbcbc" stroke-width="8" stroke-linecap="round" stroke-linejoin="round" /><polyline points="1056.36,275.02 1057.02,268.82 1057.17,263.04 1057.12,262.84 1053.18,245.82 1051.57,238.71 1050.79,235.28 1049.99,231.77 1045.67,212.73 1037.23,174.68 1031.09,151.80 1030.22,148.27" fill="none" stroke="#bcbcbc" stroke-width="8" stroke-linecap="round" stroke-linejoin="round" /><polyline points="504.67,623.35 507.43,615.52 538.37,527.59 541.88,517.60" fill="none" stroke="#bcbcbc" stroke-width="8" stroke-linecap="round" stroke-linejoin="round" /><polyline points="1199.44,-92.70 1190.33,-95.26 1128.51,-190.13 1121.06,-200.45" fill="none" stroke="#bcbcbc" stroke-width="8" stroke-linecap="round" stroke-linejoin="round" /><polyline points="183.12,134.92 408.44,188.89 423.97,194.57" fill="none" stroke="#bcbcbc" stroke-width="8" stroke-linecap="round" stroke-linejoin="round" /><polyline points="893.78,-708.50 981.54,-675.99 993.90,-678.10" fill="none" stroke="#bcbcbc" stroke-width="8" stroke-linecap="round" stroke-linejoin="round" />
    <polyline points="352.80,352.80 323.41,338.58 256.54,306.21 174.52,266.52 167.20,262.98" fill="none" stroke="#ffffff" stroke-width="16" stroke-linecap="round" stroke-linejoin="round" />
    <polyline points="352.80,352.80 323.41,338.58 256.54,306.21 174.52,266.52 167.20,262.98" fill="none" stroke="#111111" stroke-width="9" stroke-linecap="round" stroke-linejoin="round" />
    
            <g transform="translate(352.80,352.80)">
              <circle r="19" fill="#ffffff" stroke="#111111" stroke-width="4" />
              <text text-anchor="middle" dominant-baseline="central" font-family="Helvetica, Arial, sans-serif"
                font-size="18" font-weight="700" fill="#111111">1</text>
            </g>
            
            <g transform="translate(167.20,262.98)">
              <circle r="19" fill="#ffffff" stroke="#111111" stroke-width="4" />
              <text text-anchor="middle" dominant-baseline="central" font-family="Helvetica, Arial, sans-serif"
                font-size="18" font-weight="700" fill="#111111">2</text>
            </g>
            
  </g>
</svg>
