<svg xmlns="http://www.w3.org/2000/svg" width="520" height="520" viewBox="0 0 520 520">
  <rect width="100%" height="100%" fill="#ffffff" />
  <g>
    <polyline points="1157.03,-427.84 1164.54,-387.92 1212.97,-49.11 1205.57,35.59" fill="none" stroke="#bcbcbc" stroke-width="8" stroke-linecap="round" stroke-linejoin="round" /><polyline points="172.66,2395.58 184.36,2359.58 246.40,2168.77 253.71,2146.29 261.11,2122.68 417.11,1625.20 429.65,1585.19 400.93,1514.42" fill="none" stroke="#bcbcbc" stroke-width="8" stroke-linecap="round" stroke-linejoin="round" /><polyline points="-904.89,1953.09 -907.41,1924.53 -856.41,1638.87 -849.26,1603.14 -843.91,1584.42 -829.88,1511.98 -814.10,1423.31 -796.91,1345.23 -779.87,1267.31 -769.13,1245.34 -762.11,1231.88" fill="none" stroke="#bcbcbc" stroke-width="8" stroke-linecap="round" stroke-linejoin="round" /><polyline points="-608.86,-61.89 -620.98,-98.86 -746.32,-481.12 -752.43,-497.15" fill="none" stroke="#bcbcbc" stroke-width="8" stroke-linecap="round" stroke-linejoin="round" /><polyline points="-1251.96,3302.46 -1248.22,3265.98 -1246.71,3249.24 -1233.06,3098.31 -1218.13,2965.42 -1214.64,2934.38 -1211.40,2897.15 -1211.04,2894.02 -1202.57,2820.00 -1195.27,2744.77 -1187.23,2672.16 -1181.81,2615.64 -1179.55,2580.76 -1177.55,2548.54 -1174.00,2512.24" fill="none" stroke="#bcbcbc" stroke-width="8" stroke-linecap="round" stroke-linejoin="round" /><polyline points="479.82,2484.27 488.74,2456.21 551.64,2258.49 558.78,2236.03 568.94,2204.03 576.22,2181.09 631.88,1941.00" fill="none" stroke="#bcbcbc" stroke-width="8" stroke-linecap="round" stroke-linejoin="round" /><polyline points="235.35,-1426.54 258.57,-1422.98 898.57,-1324.64" fill="none" stroke="#bcbcbc" stroke-width="8" stroke-linecap="round" stroke-linejoin="round" /><polyline points="-1407.66,2437.68 -1474.27,2434.58 -1514.89,2432.69 -1536.96,2431.66 -1556.32,2430.76 -1707.16,2423.75 -1916.98,2413.99 -2016.99,2399.81 -2050.45,2395.06 -2079.50,2389.94 -2276.20,2355.22 -2303.69,2350.37 -2309.78,2349.32 -2343.74,2343.50 -2369.84,2339.03 -2536.51,2324.30 -2568.26,2321.49 -2579.90,2320.46 -2615.94,2317.96 -2686.49,2313.07" fill="none" stroke="#bcbcbc" stroke-width="8" stroke-linecap="round" stroke-linejoin="round" /><polyline points="-439.88,2244.41 -426.97,2207.68 -310.70,1885.37 -170.83,1478.82 -161.86,1453.32 -155.62,1435.50 -150.56,1420.88" fill="none" stroke="#bcbcbc" stroke-width="8" stroke-linecap="round" stroke-linejoin="round" /><polyline points="-2579.90,2320.46 -2582.87,2299.73 -2583.57,2277.23 -2579.16,2231.90 -2569.03,2149.14 -2562.28,2121.35 -2551.32,2020.92 -2549.33,1998.55 -2546.12,1969.79 -2543.73,1948.44 -2539.24,1924.22 -2530.92,1859.08 -2525.13,1809.25 -2516.63,1788.87" fill="none" stroke="#bcbcbc" stroke-width="8" stroke-linecap="round" stroke-linejoin="round" /><polyline points="-2698.90,1763.40 -2543.82,1785.07 -2516.63,1788.87 -2499.80,1791.55 -2430.28,1802.63 -2270.11,1828.15 -2242.62,1832.73" fill="none" stroke="#bcbcbc" stroke-width="8" stroke-linecap="round" stroke-linejoin="round" /><polyline points="155.25,-271.16 156.26,-257.06 158.34,-242.78 163.38,-231.85 172.81,-219.66 190.25,-203.78 231.58,-178.64 550.45,21.42 746.84,284.73 895.17,650.82 904.85,675.00" fill="none" stroke="#bcbcbc" stroke-width="8" stroke-linecap="round" stroke-linejoin="round" /><polyline points="104.19,797.04 110.80,807.98 112.52,810.82 117.99,838.43 155.40,1019.35 167.28,1076.77 175.77,1117.67 189.02,1200.56 195.20,1238.79 199.47,1262.12 204.14,1283.18 209.73,1295.47 217.91,1309.70 222.30,1316.41 305.15,1435.03 349.96,1505.60 361.65,1522.47" fill="none" stroke="#bcbcbc" stroke-width="8" stroke-linecap="round" stroke-linejoin="round" /><polyline points="-2274.30,3062.28 -2269.89,3035.14 -2265.79,3015.50 -2264.70,3012.90 -2209.55,2881.77 -2174.42,2796.55 -2163.74,2769.55 -2152.43,2740.95 -2140.14,2716.36 -2138.16,2711.55 -2121.34,2670.91 -2108.35,2634.95 -2097.19,2601.95 -2090.12,2578.63 -2082.18,2549.82 -2073.04,2511.19 -2066.09,2479.85 -2057.79,2436.10 -2056.04,2426.35 -2050.45,2395.06" fill="none" stroke="#bcbcbc" stroke-width="8" stroke-linecap="round" stroke-linejoin="round" /><polyline points="397.46,-599.50 573.29,-476.63 596.98,-471.60 614.32,-451.77" fill="none" stroke="#bcbcbc" stroke-width="8" stroke-linecap="round" stroke-linejoin="round" /><polyline points="-340.87,535.25 -317.63,544.19 -216.74,577.20 17.29,666.95 30.42,680.03 36.58,689.81" fill="none" stroke="#bcbcbc" stroke-width="8" stroke-linecap="round" stroke-linejoin="round" /><polyline points="95.23,2841.54 111.17,2800.01 189.84,2586.55 245.47,2425.27 257.01,2419.96" fill="none" stroke="#bcbcbc" stroke-width="8" stroke-linecap="round" stroke-linejoin="round" /><polyline points="-1016.88,2570.88 -1004.47,2543.43 -1003.24,2540.72 -982.00,2469.46 -947.21,2352.18 -938.29,2322.17 -931.37,2298.85 -930.44,2285.27 -931.86,2255.19" fill="none" stroke="#bcbcbc" stroke-width="8" stroke-linecap="round" stroke-linejoin="round" /><polyline points="429.20,806.41 409.25,810.53 364.05,802.48 357.05,783.84 278.73,753.98 260.21,758.82 189.55,732.88 179.01,740.24" fill="none" stroke="#bcbcbc" stroke-width="8" stroke-linecap="round" stroke-linejoin="round" /><polyline points="312.91,-1616.26 348.40,-1607.57 368.03,-1604.16 834.89,-1523.21" fill="none" stroke="#bcbcbc" stroke-width="8" stroke-linecap="round" stroke-linejoin="round" /><polyline points="-49.95,2711.55 -30.53,2656.80 7.21,2550.39 31.60,2505.06 66.70,2406.80 80.71,2367.57" fill="none" stroke="#bcbcbc" stroke-width="8" stroke-linecap="round" stroke-linejoin="round" /><polyline points="-2607.95,586.43 -2641.76,584.89 -2650.24,595.18 -2709.15,666.76 -2915.08,904.64 -2944.03,938.09" fill="none" stroke="#bcbcbc" stroke-width="8" stroke-linecap="round" stroke-linejoin="round" /><polyline points="-801.71,790.17 -816.63,823.22 -818.44,827.22 -870.30,962.46 -922.58,1111.33 -936.52,1151.04 -944.42,1171.53" fill="none" stroke="#bcbcbc" stroke-width="8" stroke-linecap="round" stroke-linejoin="round" /><polyline points="-40.99,-729.40 -24.52,-707.05 -12.75,-676.31 5.55,-632.20 34.93,-562.80 60.95,-500.51 90.82,-432.12 112.98,-379.41 116.26,-371.84 116.46,-371.37 134.29,-329.68 139.62,-317.83 144.69,-306.55 150.05,-295.98 154.08,-285.24 155.25,-271.15" fill="none" stroke="#bcbcbc" stroke-width="8" stroke-linecap="round" stroke-linejoin="round" /><polyline points="-1302.25,1456.84 -1293.63,1452.12 -1281.57,1442.54 -1275.53,1430.10 -1195.40,1126.28 -1192.99,1109.14 -1183.21,1077.84" fill="none" stroke="#bcbcbc" stroke-width="8" stroke-linecap="round" stroke-linejoin="round" /><polyline points="1499.38,981.39 1510.74,1017.47 1518.75,1055.36 1503.17,1199.77 1485.17,1308.39 1475.34,1345.45 1474.45,1348.80 1465.84,1368.80 1454.10,1390.00 1426.69,1424.67 1439.96,1492.46 1397.02,1637.97 1373.31,1718.33 1324.80,1849.87 1253.77,2010.02 1167.04,2163.50 1139.95,2213.38 1090.98,2295.33 895.32,2573.03 852.46,2630.80 686.45,2847.74 591.15,2956.18 457.84,3091.67 445.50,3092.94 415.40,3117.55" fill="none" stroke="#bcbcbc" stroke-width="8" stroke-linecap="round" stroke-linejoin="round" /><polyline points="-914.86,3356.83 -860.25,3187.43 -851.31,3159.46 -839.17,3141.84 -813.09,3063.55 -804.60,3036.96 -696.85,2699.59 -686.01,2665.66 -677.08,2635.84 -549.92,2235.63" fill="none" stroke="#bcbcbc" stroke-width="8" stroke-linecap="round" stroke-linejoin="round" /><polyline points="364.60,206.53 411.82,154.94 425.75,138.15 521.14,3.02" fill="none" stroke="#bcbcbc" stroke-width="8" stroke-linecap="round" stroke-linejoin="round" /><polyline points="-579.10,226.97 -449.07,272.23 -441.89,283.90 -404.97,296.29 -383.06,303.78 -278.25,339.18" fill="none" stroke="#bcbcbc" stroke-width="8" stroke-linecap="round" stroke-linejoin="round" /><polyline points="554.19,-672.82 614.32,-451.77 683.94,-191.35 694.50,-169.65 696.17,-144.87 743.38,-56.73 870.79,180.87 898.64,221.95 906.70,233.99 1097.06,589.87 1184.54,669.41 1196.81,685.25 1214.11,700.05 1380.22,842.08 1391.49,851.71 1421.32,867.55" fill="none" stroke="#bcbcbc" stroke-width="8" stroke-linecap="round" stroke-linejoin="round" /><polyline points="-91.82,3392.79 322.43,3152.14 396.17,3114.44 415.40,3117.55" fill="none" stroke="#bcbcbc" stroke-width="8" stroke-linecap="round" stroke-linejoin="round" /><polyline points="357.32,3048.53 383.02,3017.97 613.77,2557.55 629.06,2527.35 641.82,2497.47 716.35,2313.15 738.55,2257.61 802.79,2063.19 844.44,1813.22 849.38,1776.84" fill="none" stroke="#bcbcbc" stroke-width="8" stroke-linecap="round" stroke-linejoin="round" /><polyline points="179.24,340.76 175.21,344.90 169.65,364.27 169.10,366.20 144.05,462.62 150.63,487.80 145.16,510.36 138.01,539.91 119.69,561.13 98.89,645.37 74.39,663.88 48.25,681.81 36.58,689.81" fill="none" stroke="#bcbcbc" stroke-width="8" stroke-linecap="round" stroke-linejoin="round" /><polyline points="-801.71,790.17 -791.06,762.88 -727.04,598.77 -713.09,562.98 -701.58,533.51 -619.79,323.94 -582.96,236.32 -579.10,226.97 -550.47,157.77 -486.26,-1.68 -462.74,-69.56 -457.51,-85.12 -450.47,-102.78" fill="none" stroke="#bcbcbc" stroke-width="8" stroke-linecap="round" stroke-linejoin="round" /><polyline points="-85.39,-204.63 -73.01,-167.79 333.25,179.24 554.94,372.12 886.06,659.97 914.95,683.09 927.90,691.18 985.36,743.34 1062.09,808.79 1236.13,957.19 1292.34,1005.53 1329.64,1050.15" fill="none" stroke="#bcbcbc" stroke-width="8" stroke-linecap="round" stroke-linejoin="round" /><polyline points="586.33,-802.60 606.94,-815.81 729.01,-866.54 754.09,-892.93" fill="none" stroke="#bcbcbc" stroke-width="8" stroke-linecap="round" stroke-linejoin="round" /><polyline points="727.32,2285.70 558.78,2236.03 253.71,2146.29" fill="none" stroke="#bcbcbc" stroke-width="8" stroke-linecap="round" stroke-linejoin="round" /><polyline points="183.29,-1299.31 206.31,-1283.44 956.47,-1116.52" fill="none" stroke="#bcbcbc" stroke-width="8" stroke-linecap="round" stroke-linejoin="round" /><polyline points="1109.91,1170.65 1071.14,1084.38 985.10,879.18 978.69,862.87 963.97,825.41 908.51,684.28 905.02,675.14" fill="none" stroke="#bcbcbc" stroke-width="8" stroke-linecap="round" stroke-linejoin="round" /><polyline points="-40.99,-729.40 -82.64,-741.26 -113.25,-750.37 -175.45,-768.84 -207.05,-777.86 -225.16,-782.89 -248.80,-789.66" fill="none" stroke="#bcbcbc" stroke-width="8" stroke-linecap="round" stroke-linejoin="round" /><polyline points="-1126.90,399.25 -1129.01,392.36 -1130.95,387.53 -1139.53,366.20 -1172.79,288.68 -1204.39,209.92 -1211.21,191.33 -1219.07,169.91 -1224.70,152.39 -1233.99,126.12 -1234.96,123.35 -1265.20,48.83 -1320.71,-91.23 -1333.18,-98.34 -1342.04,-121.06 -1359.75,-182.57 -1390.07,-258.81 -1396.61,-276.14" fill="none" stroke="#bcbcbc" stroke-width="8" stroke-linecap="round" stroke-linejoin="round" /><polyline points="-860.25,3187.43 -828.73,3197.09 -726.74,3228.17 -694.79,3237.90" fill="none" stroke="#bcbcbc" stroke-width="8" stroke-linecap="round" stroke-linejoin="round" /><polyline points="1044.38,-765.91 1050.32,-789.95 1047.91,-799.08 1044.99,-810.09 1026.37,-878.31 984.86,-1022.53 962.95,-1096.26 956.47,-1116.52 898.57,-1324.64 867.32,-1436.89 834.89,-1523.21 805.60,-1601.08 776.44,-1654.61 748.10,-1682.90 530.55,-1948.75 514.45,-1967.68 503.79,-1985.16" fill="none" stroke="#bcbcbc" stroke-width="8" stroke-linecap="round" stroke-linejoin="round" /><polyline points="155.25,-271.15 144.03,-266.87 123.29,-261.14 121.22,-260.57 34.57,-238.41 -65.05,-210.36 -85.38,-204.63 -94.44,-201.76 -118.38,-194.06 -138.84,-188.37 -228.17,-163.51 -375.09,-121.77 -429.86,-107.93 -450.47,-102.78 -548.38,-78.73 -608.86,-61.89 -736.94,-26.10 -863.54,9.58 -878.19,13.64 -983.99,43.01 -1032.79,56.56 -1057.44,68.20 -1104.09,91.33 -1196.74,138.35 -1203.19,141.63 -1224.70,152.39 -1237.82,158.96 -1256.13,168.55 -1321.22,202.68 -1439.82,269.23 -1538.90,321.13 -1553.07,328.56 -1572.00,329.74 -1583.37,335.78 -1585.64,336.99 -1693.12,395.89 -1715.63,395.79 -1741.47,409.31 -1750.49,414.03 -1758.10,418.01 -1776.07,427.41 -1790.22,459.70 -1851.06,492.28 -1870.40,502.64 -1891.33,514.03 -1975.96,560.09 -2019.71,583.90 -2041.76,590.26" fill="none" stroke="#bcbcbc" stroke-width="8" stroke-linecap="round" stroke-linejoin="round" /><polyline points="1373.31,1718.33 1328.14,1722.47 1187.07,1735.39 1180.71,1735.98 1171.72,1736.80 1157.16,1738.14 1020.37,1750.70 972.80,1746.29 917.40,1760.17 873.02,1771.05 849.38,1776.84 790.66,1779.07 739.82,1776.48 713.91,1773.73 691.86,1767.06 675.62,1758.08 615.13,1715.31 468.17,1614.37 454.32,1604.97 440.21,1595.40 429.65,1585.19" fill="none" stroke="#bcbcbc" stroke-width="8" stroke-linecap="round" stroke-linejoin="round" /><polyline points="-1955.24,14.14 -1901.91,118.55 -1893.84,148.38 -1848.92,234.09 -1830.36,258.61 -1755.29,404.70 -1750.49,414.03" fill="none" stroke="#bcbcbc" stroke-width="8" stroke-linecap="round" stroke-linejoin="round" /><polyline points="-321.06,942.58 -329.05,964.54 -331.29,971.35 -341.70,1002.93 -407.68,1187.00 -440.42,1278.41 -441.54,1281.53 -454.69,1309.94 -462.24,1326.82" fill="none" stroke="#bcbcbc" stroke-width="8" stroke-linecap="round" stroke-linejoin="round" /><polyline points="554.19,-672.82 546.87,-688.48 527.65,-691.01 465.46,-676.74 452.82,-678.39 442.92,-691.66 425.33,-772.58 520.63,-787.33 564.75,-800.35 586.33,-802.60 609.57,-719.97" fill="none" stroke="#bcbcbc" stroke-width="8" stroke-linecap="round" stroke-linejoin="round" /><polyline points="898.64,221.95 923.19,208.17 1046.50,133.87 1079.45,114.24 1137.13,79.85 1232.03,18.48 1254.17,2.56 1420.64,-100.71" fill="none" stroke="#bcbcbc" stroke-width="8" stroke-linecap="round" stroke-linejoin="round" /><polyline points="1480.50,709.72 1438.42,697.18 1413.95,677.12 1320.45,596.20 1317.27,593.36 1294.66,573.18 1281.38,549.63 1046.50,133.87" fill="none" stroke="#bcbcbc" stroke-width="8" stroke-linecap="round" stroke-linejoin="round" /><polyline points="-1170.23,676.77 -801.71,790.17 -771.64,799.71 -496.63,886.88 -490.89,888.70 -449.69,901.77 -429.43,908.20 -403.11,915.39 -348.82,933.78 -321.06,942.58 -296.07,950.51 -91.41,1015.43 124.64,1083.31 142.51,1088.93 167.28,1076.77" fill="none" stroke="#bcbcbc" stroke-width="8" stroke-linecap="round" stroke-linejoin="round" /><polyline points="-86.65,-1142.68 72.98,-1289.36 100.01,-1314.20" fill="none" stroke="#bcbcbc" stroke-width="8" stroke-linecap="round" stroke-linejoin="round" /><polyline points="-2759.80,1224.24 -2174.04,1287.02" fill="none" stroke="#bcbcbc" stroke-width="8" stroke-linecap="round" stroke-linejoin="round" /><polyline points="-992.75,-410.75 -869.63,-454.78 -742.64,-500.70 -663.73,-531.37 -422.83,-618.99 -352.91,-643.18 -338.31,-648.23 -320.80,-654.25 -301.14,-661.01 -298.73,-661.84 -259.04,-677.79 -241.79,-684.73" fill="none" stroke="#bcbcbc" stroke-width="8" stroke-linecap="round" stroke-linejoin="round" /><polyline points="-165.85,2568.56 -49.95,2711.55 21.01,2783.00 51.73,2805.11 95.23,2841.54 136.07,2875.84 171.17,2910.08 172.03,2927.49" fill="none" stroke="#bcbcbc" stroke-width="8" stroke-linecap="round" stroke-linejoin="round" /><polyline points="-40.99,-729.40 4.43,-843.27 77.96,-1030.73 183.29,-1299.31 235.35,-1426.54 312.91,-1616.26 376.51,-1771.67 387.90,-1792.28 443.83,-1883.74 447.44,-1889.64 467.91,-1929.89 503.79,-1985.16 523.83,-2016.01 552.19,-2059.65" fill="none" stroke="#bcbcbc" stroke-width="8" stroke-linecap="round" stroke-linejoin="round" /><polyline points="-1112.65,2314.97 -1120.09,2320.91 -1125.01,2328.00 -1135.03,2357.55 -1141.95,2378.88 -1173.95,2474.58 -1178.36,2488.39 -1181.09,2496.95 -1210.48,2488.53 -1282.01,2464.55 -1352.88,2440.78 -1407.66,2437.68" fill="none" stroke="#bcbcbc" stroke-width="8" stroke-linecap="round" stroke-linejoin="round" /><polyline points="-2513.34,2980.92 -2396.54,2679.27 -2383.54,2646.43 -2371.88,2614.80 -2357.80,2576.59 -2340.53,2516.46 -2322.52,2441.75 -2315.14,2388.21 -2309.78,2349.32 -2302.22,2320.61 -2274.73,2104.92 -2242.62,1832.73 -2226.00,1702.97 -2207.46,1550.52 -2174.04,1287.02 -2168.74,1242.22 -2134.96,966.65 -2134.95,951.30 -2127.48,869.53 -2105.94,696.82 -2100.54,666.69 -2094.91,649.80 -2086.10,631.19 -2077.54,616.74 -2058.63,596.28 -2041.73,590.47" fill="none" stroke="#bcbcbc" stroke-width="8" stroke-linecap="round" stroke-linejoin="round" /><polyline points="36.58,689.81 42.97,699.94 64.39,733.38 96.46,784.78 104.19,797.04 116.98,787.33 179.01,740.24" fill="none" stroke="#bcbcbc" stroke-width="8" stroke-linecap="round" stroke-linejoin="round" /><polyline points="77.96,-1030.73 709.06,-916.63 775.34,-881.75 1022.60,-759.17 1044.38,-765.92" fill="none" stroke="#bcbcbc" stroke-width="8" stroke-linecap="round" stroke-linejoin="round" /><polyline points="-1126.90,399.25 -1138.10,415.58 -1238.78,464.72 -1312.73,558.72 -1392.53,608.12 -1447.10,649.33 -1499.17,691.81 -1525.86,716.14 -1573.01,775.95 -1625.74,851.53 -1634.43,865.53" fill="none" stroke="#bcbcbc" stroke-width="8" stroke-linecap="round" stroke-linejoin="round" /><polyline points="-1020.45,466.67 -1024.82,476.38 -1034.37,490.33 -1052.41,512.53 -1158.76,646.89 -1215.03,798.45 -1499.04,691.69" fill="none" stroke="#bcbcbc" stroke-width="8" stroke-linecap="round" stroke-linejoin="round" /><polyline points="-1447.10,649.33 -1458.10,616.04 -1505.62,472.14 -1524.07,443.71 -1554.96,351.05 -1557.62,343.06 -1553.07,328.56 -1560.47,304.94 -1708.97,-169.24" fill="none" stroke="#bcbcbc" stroke-width="8" stroke-linecap="round" stroke-linejoin="round" /><polyline points="292.98,-1937.94 410.35,-1934.85 415.83,-1934.69 438.32,-1934.05 467.91,-1929.89" fill="none" stroke="#bcbcbc" stroke-width="8" stroke-linecap="round" stroke-linejoin="round" /><polyline points="-310.70,1885.37 -350.77,1884.88 -690.09,1930.43 -714.55,1933.01 -742.52,1935.96 -904.89,1953.09 -1123.65,1976.20 -1239.63,1988.43 -1303.79,1995.20 -1355.88,2001.53 -1382.62,2004.79 -1412.75,2008.45 -1558.30,2026.14 -1593.17,2030.38 -1700.66,2042.13 -2274.73,2104.92" fill="none" stroke="#bcbcbc" stroke-width="8" stroke-linecap="round" stroke-linejoin="round" /><polyline points="-813.09,3063.55 -843.15,3053.88 -983.55,3008.68 -1011.93,2999.55 -1036.57,2991.62 -1185.31,2943.81 -1214.64,2934.38 -1253.44,2921.90 -1490.23,2845.70 -1516.88,2837.12" fill="none" stroke="#bcbcbc" stroke-width="8" stroke-linecap="round" stroke-linejoin="round" /><polyline points="-226.01,220.84 -144.34,246.28 154.31,338.51 157.10,339.37 179.24,340.76" fill="none" stroke="#bcbcbc" stroke-width="8" stroke-linecap="round" stroke-linejoin="round" /><polyline points="614.32,-451.77 1020.58,-444.62" fill="none" stroke="#bcbcbc" stroke-width="8" stroke-linecap="round" stroke-linejoin="round" /><polyline points="415.40,3117.55 357.32,3048.53 332.95,3020.18 312.02,3000.62 284.14,2979.80 227.16,2945.62 172.03,2927.49 59.87,2892.84 -31.87,2863.73 21.01,2783.00" fill="none" stroke="#bcbcbc" stroke-width="8" stroke-linecap="round" stroke-linejoin="round" /><polyline points="-165.85,2568.56 -246.72,2468.74 -262.10,2449.75 -343.56,2337.53 -361.99,2303.27 -357.57,2262.48 -333.01,2262.24 -272.43,2273.90 -180.25,2291.63" fill="none" stroke="#bcbcbc" stroke-width="8" stroke-linecap="round" stroke-linejoin="round" /><polyline points="-1223.73,1768.79 -1208.82,1800.87 -1123.65,1976.20 -997.01,2236.91 -980.86,2270.15" fill="none" stroke="#bcbcbc" stroke-width="8" stroke-linecap="round" stroke-linejoin="round" /><polyline points="-2587.82,2562.92 -2557.35,2575.37 -2414.69,2633.70 -2383.54,2646.43 -2350.77,2659.83 -2182.81,2728.52 -2152.43,2740.95" fill="none" stroke="#bcbcbc" stroke-width="8" stroke-linecap="round" stroke-linejoin="round" /><polyline points="-1153.64,1508.83 -856.41,1638.87" fill="none" stroke="#bcbcbc" stroke-width="8" stroke-linecap="round" stroke-linejoin="round" /><polyline points="179.24,340.76 224.52,343.13 227.40,345.70 247.72,363.72 277.58,390.37 283.09,401.09 385.99,491.21 393.60,505.59 465.96,569.45 484.17,575.01 540.46,624.30 553.07,630.06 637.96,702.08 656.86,718.83 667.28,735.43" fill="none" stroke="#bcbcbc" stroke-width="8" stroke-linecap="round" stroke-linejoin="round" /><polyline points="-2671.71,1509.12 -2207.46,1550.52" fill="none" stroke="#bcbcbc" stroke-width="8" stroke-linecap="round" stroke-linejoin="round" /><polyline points="-1635.14,3237.88 -1620.75,3207.26 -1617.06,3193.63 -1596.89,3119.30 -1523.87,2861.78 -1516.88,2837.12 -1509.48,2810.08 -1476.40,2689.09 -1420.53,2484.77 -1407.66,2437.68" fill="none" stroke="#bcbcbc" stroke-width="8" stroke-linecap="round" stroke-linejoin="round" /><polyline points="-1223.73,1768.79 -1153.64,1508.83 -1302.25,1456.84 -1341.16,1479.81 -1358.90,1493.31 -1372.04,1511.07 -1381.28,1534.53 -1415.46,1660.86 -1387.89,1674.90 -1360.03,1681.66 -1298.43,1697.69 -1252.33,1712.38 -1223.73,1768.79" fill="none" stroke="#bcbcbc" stroke-width="8" stroke-linecap="round" stroke-linejoin="round" /><polyline points="-1415.46,1660.86 -1448.01,1656.33 -2207.46,1550.52" fill="none" stroke="#bcbcbc" stroke-width="8" stroke-linecap="round" stroke-linejoin="round" /><polyline points="-180.25,2291.63 -109.81,2307.02 80.71,2367.57 133.97,2384.42 260.41,2420.94 387.78,2457.67 482.08,2484.92 632.89,2528.46 664.04,2537.47 740.14,2562.98 865.44,2596.35 876.48,2598.42" fill="none" stroke="#bcbcbc" stroke-width="8" stroke-linecap="round" stroke-linejoin="round" /><polyline points="-90.89,3392.25 -116.59,3398.70 -144.39,3476.15 -187.48,3463.91 -383.42,3397.13 -407.01,3392.10 -459.48,3388.34 -696.77,3389.29 -749.08,3382.63 -867.21,3364.56 -914.86,3356.83 -1252.83,3302.32 -1383.70,3281.44 -1633.28,3238.20 -1673.58,3230.21 -2236.85,3072.77 -2272.39,3062.82 -2513.34,2980.92 -2572.62,2959.89 -2720.70,2898.53 -2805.10,2866.60" fill="none" stroke="#bcbcbc" stroke-width="8" stroke-linecap="round" stroke-linejoin="round" /><polyline points="425.33,-772.58 400.94,-777.60 75.40,-739.11 -40.99,-729.40" fill="none" stroke="#bcbcbc" stroke-width="8" stroke-linecap="round" stroke-linejoin="round" /><polyline points="-180.24,2291.63 -168.84,2272.54 -100.52,2097.08 -24.19,1831.78 -4.72,1774.64 5.69,1759.09 79.39,1522.53 83.05,1494.28 85.84,1475.82" fill="none" stroke="#bcbcbc" stroke-width="8" stroke-linecap="round" stroke-linejoin="round" /><polyline points="155.25,-271.15 163.03,-274.13 173.58,-282.50 189.59,-301.24 397.46,-599.50 452.82,-678.39" fill="none" stroke="#bcbcbc" stroke-width="8" stroke-linecap="round" stroke-linejoin="round" /><polyline points="1080.40,824.51 1084.66,812.27 1189.15,689.33 1196.81,685.25 1214.97,660.41 1275.75,590.59 1294.66,573.18" fill="none" stroke="#bcbcbc" stroke-width="8" stroke-linecap="round" stroke-linejoin="round" /><polyline points="1171.72,1736.80 1170.27,1720.36 1169.15,1707.63 1163.65,1683.30 1157.06,1667.42 1148.86,1625.73 1148.11,1610.63 1142.54,1576.89 1117.68,1563.89 1097.80,1571.49 1062.22,1580.01 1034.06,1584.42 1007.05,1590.93 969.76,1599.43 952.76,1603.31" fill="none" stroke="#bcbcbc" stroke-width="8" stroke-linecap="round" stroke-linejoin="round" /><polyline points="-1573.49,1133.07 -1497.50,954.93 -1493.27,943.35" fill="none" stroke="#bcbcbc" stroke-width="8" stroke-linecap="round" stroke-linejoin="round" /><polyline points="429.20,806.41 465.83,792.22 484.98,784.81 499.79,769.81 560.85,754.76 581.34,759.98 625.54,748.59 659.25,739.91 667.28,735.43 699.97,727.42 867.13,686.47 905.02,675.14" fill="none" stroke="#bcbcbc" stroke-width="8" stroke-linecap="round" stroke-linejoin="round" /><polyline points="-1112.65,2314.96 -1033.80,2286.33 -1007.42,2278.27 -980.86,2270.15 -931.86,2255.19 -893.73,2249.70 -763.54,2235.46 -737.38,2234.03 -620.88,2235.03 -549.92,2235.63 -523.23,2234.27 -480.49,2238.60 -467.12,2240.51 -439.88,2244.41 -357.57,2262.48" fill="none" stroke="#bcbcbc" stroke-width="8" stroke-linecap="round" stroke-linejoin="round" /><polyline points="-736.94,-26.10 -750.01,-70.27 -798.53,-234.33 -857.46,-421.39 -869.63,-454.78 -881.98,-486.08 -897.60,-531.18" fill="none" stroke="#bcbcbc" stroke-width="8" stroke-linecap="round" stroke-linejoin="round" /><polyline points="-878.06,2619.08 -867.71,2586.35 -762.88,2255.79 -763.54,2235.46" fill="none" stroke="#bcbcbc" stroke-width="8" stroke-linecap="round" stroke-linejoin="round" /><polyline points="-737.38,2234.03 -716.62,1955.70 -714.55,1933.01 -711.37,1906.60 -711.32,1905.41 -709.95,1873.13 -703.03,1785.51 -699.12,1744.71 -693.78,1698.35 -688.92,1664.98 -684.55,1644.02 -679.06,1628.18 -668.28,1592.49 -646.01,1518.18 -617.70,1422.25 -586.48,1324.16 -580.12,1304.15 -575.00,1289.65" fill="none" stroke="#bcbcbc" stroke-width="8" stroke-linecap="round" stroke-linejoin="round" /><polyline points="-1415.46,1660.86 -1420.98,1685.53 -1420.03,1693.41 -1386.21,1974.97 -1382.62,2004.79 -1384.18,2035.46 -1393.04,2210.59 -1396.74,2283.75 -1398.65,2321.48 -1402.05,2388.75 -1403.82,2423.78 -1407.66,2437.68" fill="none" stroke="#bcbcbc" stroke-width="8" stroke-linecap="round" stroke-linejoin="round" /><polyline points="-1573.49,1133.07 -1696.45,1096.52 -1712.08,1086.50 -1788.60,1064.20 -1810.10,1064.43 -1906.25,1035.46 -1921.79,1024.00 -2009.28,997.48 -2116.63,968.22 -2117.15,968.17 -2134.96,966.65" fill="none" stroke="#bcbcbc" stroke-width="8" stroke-linecap="round" stroke-linejoin="round" /><polyline points="667.28,735.43 671.55,741.03 689.38,767.61 722.34,816.74 753.37,847.82 813.01,914.78 802.93,976.66 797.82,999.87 790.70,1009.68 805.65,1031.80 828.78,1079.41 875.02,1168.61 897.79,1212.53 911.94,1252.01 918.33,1270.34" fill="none" stroke="#bcbcbc" stroke-width="8" stroke-linecap="round" stroke-linejoin="round" /><polyline points="978.69,862.87 961.55,868.21 848.64,903.34 832.44,908.54 813.01,914.78" fill="none" stroke="#bcbcbc" stroke-width="8" stroke-linecap="round" stroke-linejoin="round" /><polyline points="167.28,1076.77 202.59,1065.33 458.88,934.45 493.19,917.69 613.99,882.80 731.11,849.87 753.37,847.82" fill="none" stroke="#bcbcbc" stroke-width="8" stroke-linecap="round" stroke-linejoin="round" /><polyline points="195.20,1238.79 490.68,1101.29 503.12,1093.06 532.01,1084.65 728.90,1027.36 758.77,1015.92 790.70,1009.68" fill="none" stroke="#bcbcbc" stroke-width="8" stroke-linecap="round" stroke-linejoin="round" /><polyline points="134.91,-1643.91 254.52,-1629.13 266.53,-1627.64 312.91,-1616.26" fill="none" stroke="#bcbcbc" stroke-width="8" stroke-linecap="round" stroke-linejoin="round" /><polyline points="1157.03,-427.84 1178.25,-432.27 1257.50,-393.42 1267.94,-383.09 1416.72,-131.24 1420.64,-100.71 1439.98,-84.59 1436.91,-73.46 1436.44,-55.30 1439.12,-29.92 1478.52,132.03 1482.01,244.20 1487.53,423.30 1496.80,664.36 1459.06,769.40 1434.75,833.43 1399.26,923.68 1388.99,949.78 1382.32,957.07 1371.59,1026.90" fill="none" stroke="#bcbcbc" stroke-width="8" stroke-linecap="round" stroke-linejoin="round" /><polyline points="1432.10,1452.32 1395.91,1436.58 1305.49,1373.47 1186.20,1289.65 1120.58,1236.59 1076.32,1189.18" fill="none" stroke="#bcbcbc" stroke-width="8" stroke-linecap="round" stroke-linejoin="round" /><polyline points="-31.87,2863.73 -67.41,2852.46 -125.07,2834.18 -152.59,2825.46 -184.91,2815.21 -225.76,2802.26 -262.68,2790.55 -299.18,2778.97 -461.95,2727.32 -490.46,2718.27 -525.87,2707.06 -533.68,2704.59 -626.77,2679.99 -653.06,2673.63 -686.01,2665.66 -720.49,2657.29 -844.74,2627.16 -878.06,2619.08 -913.87,2606.65 -988.68,2580.67 -1016.88,2570.88 -1042.10,2562.69 -1159.24,2521.03 -1174.00,2512.24 -1181.09,2496.95" fill="none" stroke="#bcbcbc" stroke-width="8" stroke-linecap="round" stroke-linejoin="round" /><polyline points="503.12,1093.06 494.49,1062.13 468.77,969.91 458.88,934.45 444.59,907.95 443.26,903.03 434.84,871.81 444.65,857.98 432.86,818.63 429.20,806.41" fill="none" stroke="#bcbcbc" stroke-width="8" stroke-linecap="round" stroke-linejoin="round" /><polyline points="460.12,-35.38 484.57,-46.90 618.14,-120.54 694.50,-169.65 748.35,-206.39 760.24,-215.25 803.58,-245.37 848.50,-278.55 876.94,-299.25 910.85,-324.04 1028.69,-377.22 1043.97,-376.41 1066.31,-386.98 1157.03,-427.84" fill="none" stroke="#bcbcbc" stroke-width="8" stroke-linecap="round" stroke-linejoin="round" /><polyline points="-1020.45,466.67 -1001.18,474.49 -988.44,478.40 -749.57,551.78 -713.09,562.98" fill="none" stroke="#bcbcbc" stroke-width="8" stroke-linecap="round" stroke-linejoin="round" /><polyline points="-2726.69,1003.88 -2897.36,952.22" fill="none" stroke="#bcbcbc" stroke-width="8" stroke-linecap="round" stroke-linejoin="round" /><polyline points="30.02,-1402.86 72.33,-1349.25 78.65,-1341.25 100.01,-1314.20 124.35,-1311.34 174.39,-1305.46 183.29,-1299.31" fill="none" stroke="#bcbcbc" stroke-width="8" stroke-linecap="round" stroke-linejoin="round" /><polyline points="1499.38,981.39 1432.33,993.90 1363.57,1031.26 1299.84,1066.73 1239.57,1096.88 1166.73,1136.43 1113.99,1168.46 1009.76,1224.34 602.90,1429.04 497.42,1475.51 427.72,1505.65 393.19,1516.95 364.62,1522.29 317.84,1525.12 251.29,1515.70 85.21,1475.82 -150.56,1420.88 -460.73,1327.32 -575.00,1289.65 -762.11,1231.88 -941.06,1172.85 -1203.51,1069.87 -1334.74,1013.36 -1492.96,943.04 -1755.41,799.25 -1816.95,758.44 -1972.66,660.48 -2037.96,595.18 -2135.91,468.35 -2297.27,301.96 -2360.69,246.08" fill="none" stroke="#bcbcbc" stroke-width="8" stroke-linecap="round" stroke-linejoin="round" /><polyline points="227.16,2945.62 229.92,2930.28 239.84,2905.22 332.91,2687.44 368.07,2605.81 409.51,2504.08 419.61,2466.85" fill="none" stroke="#bcbcbc" stroke-width="8" stroke-linecap="round" stroke-linejoin="round" /><polyline points="-1558.30,2026.14 -1664.02,1974.97 -1904.58,1858.53 -2199.66,1715.71 -2226.00,1702.97" fill="none" stroke="#bcbcbc" stroke-width="8" stroke-linecap="round" stroke-linejoin="round" /><polyline points="-1870.40,502.64 -1899.72,463.81 -2037.15,281.85 -2233.33,123.09" fill="none" stroke="#bcbcbc" stroke-width="8" stroke-linecap="round" stroke-linejoin="round" /><polyline points="-2721.75,2898.08 -2694.92,2834.46 -2609.62,2621.79 -2599.28,2593.88 -2587.82,2562.92 -2583.46,2551.74 -2582.31,2534.24 -2571.39,2368.91 -2568.26,2321.49" fill="none" stroke="#bcbcbc" stroke-width="8" stroke-linecap="round" stroke-linejoin="round" /><polyline points="-2779.94,1188.57 -2726.69,1003.88 -2656.44,760.27 -2647.74,730.11 -2638.07,695.86 -2616.42,619.16 -2614.15,611.10 -2607.95,586.44 -2598.06,558.56 -2595.66,551.81 -2583.17,520.85 -2558.66,466.77 -2551.33,451.24" fill="none" stroke="#bcbcbc" stroke-width="8" stroke-linecap="round" stroke-linejoin="round" /><polyline points="-2647.74,730.11 -2539.99,757.67 -2311.76,816.34 -2181.73,856.82 -2127.48,869.53" fill="none" stroke="#bcbcbc" stroke-width="8" stroke-linecap="round" stroke-linejoin="round" /><polyline points="-429.86,-107.93 -426.19,-130.35 -422.51,-153.63 -406.70,-231.51 -367.21,-412.78 -334.78,-574.93 -328.85,-608.57 -320.80,-654.25 -320.78,-654.29" fill="none" stroke="#bcbcbc" stroke-width="8" stroke-linecap="round" stroke-linejoin="round" /><polyline points="-748.87,3382.66 -700.76,3259.95 -694.79,3237.90 -503.87,2753.24 -490.46,2718.27 -479.61,2688.61 -365.52,2356.70 -343.56,2337.53" fill="none" stroke="#bcbcbc" stroke-width="8" stroke-linecap="round" stroke-linejoin="round" /><polyline points="-94.44,-201.76 -94.45,-201.80 -101.21,-237.30 -102.28,-241.60 -118.77,-308.68 -118.76,-308.89 -130.00,-354.37 -177.64,-517.65 -183.65,-535.14 -215.82,-622.61 -226.28,-648.72 -233.03,-665.56 -241.78,-684.70 -241.79,-684.73 -241.80,-684.81 -248.18,-755.13 -248.80,-789.66" fill="none" stroke="#bcbcbc" stroke-width="8" stroke-linecap="round" stroke-linejoin="round" /><polyline points="-165.85,2568.56 -178.11,2581.80 -196.36,2603.52 -247.79,2748.56 -262.68,2790.55" fill="none" stroke="#bcbcbc" stroke-width="8" stroke-linecap="round" stroke-linejoin="round" /><polyline points="-1020.45,466.67 -1013.42,447.63 -1011.84,443.21 -978.44,349.91 -965.91,310.60 -863.54,9.58" fill="none" stroke="#bcbcbc" stroke-width="8" stroke-linecap="round" stroke-linejoin="round" /><polyline points="-490.89,888.70 -480.44,860.96 -452.16,785.81 -440.20,754.04 -432.10,732.54 -409.40,672.24 -394.40,632.40 -392.38,627.04 -356.05,530.54 -340.87,535.25 -332.64,512.84 -318.08,473.21 -320.87,455.21 -282.22,349.99 -278.25,339.18 -270.92,332.44 -264.77,326.79 -226.01,220.84 -220.41,191.83 -164.80,37.33 -151.64,27.04 -124.89,-48.65 -129.65,-60.27 -106.22,-130.95 -118.38,-194.06" fill="none" stroke="#bcbcbc" stroke-width="8" stroke-linecap="round" stroke-linejoin="round" /><polyline points="503.79,-1985.16 488.21,-2010.73 406.34,-2145.04" fill="none" stroke="#bcbcbc" stroke-width="8" stroke-linecap="round" stroke-linejoin="round" /><polyline points="760.24,-215.25 1135.97,26.37 1136.07,26.53 1136.07,26.58 1205.57,35.59" fill="none" stroke="#bcbcbc" stroke-width="8" stroke-linecap="round" stroke-linejoin="round" /><polyline points="609.57,-719.97 1009.33,-519.31 1021.39,-510.31 1020.58,-444.62 1028.69,-377.22" fill="none" stroke="#bcbcbc" stroke-width="8" stroke-linecap="round" stroke-linejoin="round" /><polyline points="-152.59,2825.46 -166.97,2869.32 -225.22,3046.97 -324.29,3346.15 -331.32,3367.37 -338.44,3388.88 -340.43,3411.78" fill="none" stroke="#bcbcbc" stroke-width="8" stroke-linecap="round" stroke-linejoin="round" /><polyline points="972.80,1746.29 975.19,1724.00 975.70,1703.20 975.54,1702.48 961.37,1641.24 955.56,1615.65 952.76,1603.31 949.89,1590.70 934.34,1522.19 903.97,1385.28 881.89,1302.97 878.76,1290.25" fill="none" stroke="#bcbcbc" stroke-width="8" stroke-linecap="round" stroke-linejoin="round" /><polyline points="-1011.93,2999.55 -1002.02,2971.38 -890.70,2655.00 -878.06,2619.08" fill="none" stroke="#bcbcbc" stroke-width="8" stroke-linecap="round" stroke-linejoin="round" /><polyline points="1487.53,423.29 1454.78,414.06 1232.36,72.75 1205.57,35.59" fill="none" stroke="#bcbcbc" stroke-width="8" stroke-linecap="round" stroke-linejoin="round" /><polyline points="-2168.74,1242.22 -1358.14,1436.42 -1302.25,1456.84" fill="none" stroke="#bcbcbc" stroke-width="8" stroke-linecap="round" stroke-linejoin="round" /><polyline points="387.90,-1792.28 703.65,-1675.31 748.10,-1682.90" fill="none" stroke="#bcbcbc" stroke-width="8" stroke-linecap="round" stroke-linejoin="round" />
    <polyline points="179.24,340.76 205.94,313.42 276.92,240.76 333.25,179.24" fill="none" stroke="#ffffff" stroke-width="16" stroke-linecap="round" stroke-linejoin="round" />
    <polyline points="179.24,340.76 205.94,313.42 276.92,240.76 333.25,179.24" fill="none" stroke="#111111" stroke-width="9" stroke-linecap="round" stroke-linejoin="round" />
    
            <g transform="translate(179.24,340.76)">
              <circle r="19" fill="#ffffff" stroke="#111111" stroke-width="4" />
              <text text-anchor="middle" dominant-baseline="central" font-family="Helvetica, Arial, sans-serif"
                font-size="18" font-weight="700" fill="#111111">1</text>
            </g>
            
            <g transform="translate(333.25,179.24)">
              <circle r="19" fill="#ffffff" stroke="#111111" stroke-width="4" />
              <text text-anchor="middle" dominant-baseline="central" font-family="Helvetica, Arial, sans-serif"
                font-size="18" font-weight="700" fill="#111111">2</text>
            </g>
            
  </g>
</svg>
