<svg xmlns="http://www.w3.org/2000/svg" width="520" height="520" viewBox="0 0 520 520">
  <rect width="100%" height="100%" fill="#ffffff" />
  <g>
    <polyline points="1825.07,-102.20 1828.75,-82.68 1852.43,82.99 1848.81,124.41" fill="none" stroke="#bcbcbc" stroke-width="8" stroke-linecap="round" stroke-linejoin="round" /><polyline points="1343.72,1278.43 1349.44,1260.83 1379.78,1167.53 1383.35,1156.53 1386.97,1144.99 1463.25,901.72 1469.39,882.16 1455.34,847.55" fill="none" stroke="#bcbcbc" stroke-width="8" stroke-linecap="round" stroke-linejoin="round" /><polyline points="816.80,1062.06 815.57,1048.09 840.51,908.41 844.01,890.93 846.62,881.78 853.48,846.36 861.20,803.00 869.60,764.82 877.94,726.72 883.19,715.97 886.62,709.39" fill="none" stroke="#bcbcbc" stroke-width="8" stroke-linecap="round" stroke-linejoin="round" /><polyline points="961.56,76.75 955.63,58.67 894.34,-128.26 891.35,-136.10" fill="none" stroke="#bcbcbc" stroke-width="8" stroke-linecap="round" stroke-linejoin="round" /><polyline points="647.08,1721.89 648.91,1704.05 649.65,1695.87 656.33,1622.07 663.63,1557.08 665.34,1541.91 666.92,1523.70 667.10,1522.17 671.24,1485.97 674.81,1449.19 678.74,1413.68 681.39,1386.04 682.50,1368.98 683.47,1353.23 685.21,1335.48" fill="none" stroke="#bcbcbc" stroke-width="8" stroke-linecap="round" stroke-linejoin="round" /><polyline points="1493.92,1321.80 1498.28,1308.08 1529.04,1211.40 1532.53,1200.41 1537.50,1184.77 1541.06,1173.55 1568.28,1056.15" fill="none" stroke="#bcbcbc" stroke-width="8" stroke-linecap="round" stroke-linejoin="round" /><polyline points="1374.37,-590.56 1385.73,-588.82 1698.69,-540.73" fill="none" stroke="#bcbcbc" stroke-width="8" stroke-linecap="round" stroke-linejoin="round" /><polyline points="570.95,1299.02 538.38,1297.51 518.51,1296.58 507.72,1296.08 498.26,1295.64 424.49,1292.21 321.89,1287.44 272.99,1280.50 256.63,1278.18 242.42,1275.67 146.24,1258.70 132.79,1256.32 129.82,1255.81 113.21,1252.97 100.45,1250.78 18.95,1243.58 3.42,1242.21 -2.27,1241.70 -19.89,1240.48 -54.39,1238.09" fill="none" stroke="#bcbcbc" stroke-width="8" stroke-linecap="round" stroke-linejoin="round" /><polyline points="1044.19,1204.51 1050.50,1186.55 1107.36,1028.94 1175.76,830.14 1180.14,817.67 1183.19,808.96 1185.67,801.81" fill="none" stroke="#bcbcbc" stroke-width="8" stroke-linecap="round" stroke-linejoin="round" /><polyline points="-2.27,1241.70 -3.72,1231.57 -4.07,1220.56 -1.91,1198.40 3.04,1157.92 6.34,1144.34 11.70,1095.23 12.68,1084.29 14.25,1070.23 15.41,1059.78 17.61,1047.94 21.68,1016.09 24.51,991.72 28.67,981.75" fill="none" stroke="#bcbcbc" stroke-width="8" stroke-linecap="round" stroke-linejoin="round" /><polyline points="-60.46,969.30 15.37,979.90 28.67,981.75 36.90,983.07 70.89,988.48 149.22,1000.96 162.66,1003.20" fill="none" stroke="#bcbcbc" stroke-width="8" stroke-linecap="round" stroke-linejoin="round" /><polyline points="1335.21,-25.58 1335.70,-18.69 1336.72,-11.71 1339.18,-6.36 1343.79,-0.40 1352.32,7.36 1372.53,19.66 1528.46,117.48 1624.49,246.24 1697.02,425.25 1701.76,437.08" fill="none" stroke="#bcbcbc" stroke-width="8" stroke-linecap="round" stroke-linejoin="round" /><polyline points="1310.24,496.76 1313.47,502.11 1314.31,503.50 1316.99,517.00 1335.28,605.47 1341.09,633.55 1345.24,653.54 1351.72,694.08 1354.74,712.77 1356.83,724.18 1359.12,734.48 1361.85,740.49 1365.85,747.44 1367.99,750.73 1408.51,808.73 1430.42,843.24 1436.13,851.49" fill="none" stroke="#bcbcbc" stroke-width="8" stroke-linecap="round" stroke-linejoin="round" /><polyline points="147.17,1604.45 149.32,1591.17 151.33,1581.57 151.86,1580.30 178.83,1516.18 196.01,1474.51 201.23,1461.30 206.76,1447.32 212.77,1435.29 213.74,1432.94 221.96,1413.07 228.32,1395.48 233.77,1379.35 237.23,1367.95 241.11,1353.86 245.58,1334.97 248.98,1319.64 253.04,1298.25 253.89,1293.48 256.63,1278.18" fill="none" stroke="#bcbcbc" stroke-width="8" stroke-linecap="round" stroke-linejoin="round" /><polyline points="1453.65,-186.14 1539.63,-126.06 1551.21,-123.60 1559.69,-113.90" fill="none" stroke="#bcbcbc" stroke-width="8" stroke-linecap="round" stroke-linejoin="round" /><polyline points="1092.61,368.74 1103.97,373.11 1153.31,389.25 1267.74,433.14 1274.17,439.54 1277.18,444.32" fill="none" stroke="#bcbcbc" stroke-width="8" stroke-linecap="round" stroke-linejoin="round" /><polyline points="1305.86,1496.51 1313.65,1476.20 1352.12,1371.82 1379.32,1292.95 1384.96,1290.36" fill="none" stroke="#bcbcbc" stroke-width="8" stroke-linecap="round" stroke-linejoin="round" /><polyline points="762.04,1364.15 768.11,1350.73 768.71,1349.41 779.10,1314.56 796.11,1257.21 800.47,1242.53 803.85,1231.13 804.31,1224.49 803.62,1209.78" fill="none" stroke="#bcbcbc" stroke-width="8" stroke-linecap="round" stroke-linejoin="round" /><polyline points="1469.17,501.34 1459.41,503.35 1437.31,499.42 1433.89,490.30 1395.59,475.70 1386.53,478.07 1351.98,465.38 1346.83,468.98" fill="none" stroke="#bcbcbc" stroke-width="8" stroke-linecap="round" stroke-linejoin="round" /><polyline points="1412.30,-683.33 1429.66,-679.08 1439.26,-677.42 1667.55,-637.83" fill="none" stroke="#bcbcbc" stroke-width="8" stroke-linecap="round" stroke-linejoin="round" /><polyline points="1234.87,1432.94 1244.36,1406.17 1262.82,1354.13 1274.74,1331.97 1291.90,1283.92 1298.75,1264.74" fill="none" stroke="#bcbcbc" stroke-width="8" stroke-linecap="round" stroke-linejoin="round" /><polyline points="-15.99,393.77 -32.52,393.02 -36.67,398.05 -65.47,433.05 -166.17,549.37 -180.33,565.73" fill="none" stroke="#bcbcbc" stroke-width="8" stroke-linecap="round" stroke-linejoin="round" /><polyline points="867.26,493.40 859.96,509.56 859.08,511.52 833.72,577.65 808.15,650.45 801.34,669.86 797.47,679.88" fill="none" stroke="#bcbcbc" stroke-width="8" stroke-linecap="round" stroke-linejoin="round" /><polyline points="1239.24,-249.66 1247.30,-238.73 1253.05,-223.70 1262.00,-202.13 1276.37,-168.20 1289.10,-137.74 1303.70,-104.29 1314.54,-78.52 1316.14,-74.82 1316.24,-74.59 1324.96,-54.20 1327.56,-48.41 1330.04,-42.89 1332.66,-37.72 1334.64,-32.47 1335.21,-25.58" fill="none" stroke="#bcbcbc" stroke-width="8" stroke-linecap="round" stroke-linejoin="round" /><polyline points="622.49,819.39 626.71,817.09 632.61,812.40 635.56,806.32 674.74,657.75 675.92,649.37 680.70,634.07" fill="none" stroke="#bcbcbc" stroke-width="8" stroke-linecap="round" stroke-linejoin="round" /><polyline points="1992.48,586.90 1998.04,604.54 2001.95,623.08 1994.33,693.69 1985.53,746.81 1980.73,764.93 1980.29,766.56 1976.08,776.34 1970.34,786.71 1956.93,803.67 1963.42,836.82 1942.43,907.97 1930.83,947.26 1907.11,1011.58 1872.38,1089.90 1829.97,1164.95 1816.72,1189.34 1792.78,1229.41 1697.10,1365.21 1676.14,1393.46 1594.96,1499.54 1548.36,1552.56 1483.17,1618.82 1477.14,1619.44 1462.42,1631.48" fill="none" stroke="#bcbcbc" stroke-width="8" stroke-linecap="round" stroke-linejoin="round" /><polyline points="811.93,1748.48 838.63,1665.65 843.00,1651.97 848.94,1643.35 861.69,1605.07 865.84,1592.06 918.53,1427.09 923.83,1410.50 928.20,1395.92 990.38,1200.22" fill="none" stroke="#bcbcbc" stroke-width="8" stroke-linecap="round" stroke-linejoin="round" /><polyline points="1437.58,208.00 1460.67,182.77 1467.48,174.56 1514.13,108.49" fill="none" stroke="#bcbcbc" stroke-width="8" stroke-linecap="round" stroke-linejoin="round" /><polyline points="976.11,218.00 1039.69,240.13 1043.21,245.84 1061.26,251.89 1071.98,255.56 1123.22,272.87" fill="none" stroke="#bcbcbc" stroke-width="8" stroke-linecap="round" stroke-linejoin="round" /><polyline points="1530.28,-222.00 1559.69,-113.90 1593.73,13.44 1598.90,24.05 1599.72,36.17 1622.80,79.27 1685.10,195.45 1698.72,215.54 1702.66,221.43 1795.75,395.45 1838.52,434.35 1844.53,442.09 1852.99,449.33 1934.21,518.78 1939.72,523.49 1954.31,531.24" fill="none" stroke="#bcbcbc" stroke-width="8" stroke-linecap="round" stroke-linejoin="round" /><polyline points="1214.39,1766.06 1416.96,1648.39 1453.01,1629.95 1462.42,1631.48" fill="none" stroke="#bcbcbc" stroke-width="8" stroke-linecap="round" stroke-linejoin="round" /><polyline points="1434.02,1597.72 1446.59,1582.78 1559.42,1357.63 1566.90,1342.87 1573.14,1328.26 1609.58,1238.12 1620.44,1210.97 1651.85,1115.90 1672.22,993.67 1674.63,975.87" fill="none" stroke="#bcbcbc" stroke-width="8" stroke-linecap="round" stroke-linejoin="round" /><polyline points="1346.94,273.64 1344.96,275.66 1342.25,285.13 1341.98,286.08 1329.73,333.23 1332.94,345.54 1330.27,356.57 1326.78,371.02 1317.82,381.40 1307.65,422.59 1295.67,431.64 1282.88,440.41 1277.18,444.32" fill="none" stroke="#bcbcbc" stroke-width="8" stroke-linecap="round" stroke-linejoin="round" /><polyline points="867.26,493.40 872.46,480.05 903.77,399.80 910.59,382.30 916.22,367.89 956.21,265.41 974.22,222.57 976.11,218.00 990.11,184.16 1021.51,106.19 1033.01,73.00 1035.57,65.38 1039.01,56.75" fill="none" stroke="#bcbcbc" stroke-width="8" stroke-linecap="round" stroke-linejoin="round" /><polyline points="1217.54,6.95 1223.59,24.96 1422.25,194.66 1530.65,288.97 1692.57,429.73 1706.70,441.04 1713.03,444.99 1741.13,470.50 1778.65,502.50 1863.75,575.07 1891.24,598.71 1909.48,620.53" fill="none" stroke="#bcbcbc" stroke-width="8" stroke-linecap="round" stroke-linejoin="round" /><polyline points="1546.00,-285.46 1556.08,-291.92 1615.77,-316.72 1628.04,-329.63" fill="none" stroke="#bcbcbc" stroke-width="8" stroke-linecap="round" stroke-linejoin="round" /><polyline points="1614.95,1224.70 1532.53,1200.42 1383.35,1156.53" fill="none" stroke="#bcbcbc" stroke-width="8" stroke-linecap="round" stroke-linejoin="round" /><polyline points="1348.92,-528.35 1360.17,-520.58 1727.00,-438.96" fill="none" stroke="#bcbcbc" stroke-width="8" stroke-linecap="round" stroke-linejoin="round" /><polyline points="1802.03,679.45 1783.07,637.27 1741.00,536.92 1737.86,528.95 1730.67,510.63 1703.55,441.62 1701.84,437.15" fill="none" stroke="#bcbcbc" stroke-width="8" stroke-linecap="round" stroke-linejoin="round" /><polyline points="1239.24,-249.66 1218.88,-255.46 1203.91,-259.92 1173.49,-268.95 1158.04,-273.36 1149.19,-275.82 1137.63,-279.13" fill="none" stroke="#bcbcbc" stroke-width="8" stroke-linecap="round" stroke-linejoin="round" /><polyline points="708.24,302.24 707.21,298.87 706.26,296.51 702.06,286.08 685.80,248.17 670.35,209.66 667.01,200.57 663.17,190.09 660.42,181.53 655.87,168.68 655.40,167.33 640.61,130.89 613.47,62.40 607.37,58.92 603.04,47.81 594.38,17.73 579.55,-19.55 576.35,-28.02" fill="none" stroke="#bcbcbc" stroke-width="8" stroke-linecap="round" stroke-linejoin="round" /><polyline points="838.63,1665.65 854.04,1670.37 903.92,1685.57 919.54,1690.32" fill="none" stroke="#bcbcbc" stroke-width="8" stroke-linecap="round" stroke-linejoin="round" /><polyline points="1769.99,-267.52 1772.89,-279.27 1771.71,-283.73 1770.29,-289.12 1761.18,-322.48 1740.88,-393.00 1730.17,-429.06 1727.00,-438.96 1698.69,-540.73 1683.41,-595.62 1667.55,-637.83 1653.23,-675.91 1638.97,-702.09 1625.11,-715.92 1518.73,-845.92 1510.86,-855.17 1505.64,-863.72" fill="none" stroke="#bcbcbc" stroke-width="8" stroke-linecap="round" stroke-linejoin="round" /><polyline points="1335.21,-25.58 1329.72,-23.49 1319.58,-20.69 1318.56,-20.41 1276.20,-9.57 1227.48,4.14 1217.54,6.95 1213.11,8.35 1201.40,12.11 1191.40,14.90 1147.72,27.05 1075.87,47.46 1049.09,54.23 1039.01,56.75 991.13,68.51 961.56,76.75 898.93,94.25 837.02,111.69 829.86,113.68 778.12,128.04 754.26,134.67 742.21,140.36 719.40,151.67 674.09,174.66 670.93,176.26 660.42,181.53 654.00,184.74 645.05,189.43 613.22,206.12 555.22,238.66 506.78,264.04 499.84,267.67 490.59,268.25 485.03,271.21 483.92,271.79 431.36,300.60 420.35,300.55 407.72,307.16 403.31,309.47 399.58,311.42 390.80,316.01 383.88,331.80 354.13,347.73 344.67,352.80 334.44,358.37 293.05,380.89 271.66,392.54 260.88,395.64" fill="none" stroke="#bcbcbc" stroke-width="8" stroke-linecap="round" stroke-linejoin="round" /><polyline points="1930.83,947.26 1908.75,949.29 1839.76,955.61 1836.65,955.89 1832.25,956.30 1825.13,956.95 1758.25,963.09 1734.98,960.93 1707.89,967.72 1686.19,973.04 1674.64,975.87 1645.92,976.96 1621.06,975.70 1608.39,974.35 1597.61,971.09 1589.66,966.70 1560.09,945.79 1488.22,896.43 1481.45,891.83 1474.55,887.15 1469.39,882.16" fill="none" stroke="#bcbcbc" stroke-width="8" stroke-linecap="round" stroke-linejoin="round" /><polyline points="303.19,113.93 329.26,164.98 333.21,179.57 355.18,221.48 364.25,233.47 400.96,304.90 403.31,309.47" fill="none" stroke="#bcbcbc" stroke-width="8" stroke-linecap="round" stroke-linejoin="round" /><polyline points="1102.29,567.93 1098.39,578.66 1097.29,582.00 1092.20,597.44 1059.94,687.45 1043.92,732.15 1043.38,733.67 1036.95,747.56 1033.26,755.82" fill="none" stroke="#bcbcbc" stroke-width="8" stroke-linecap="round" stroke-linejoin="round" /><polyline points="1530.28,-222.00 1526.71,-229.65 1517.31,-230.89 1486.90,-223.91 1480.72,-224.72 1475.88,-231.21 1467.27,-270.77 1513.88,-277.99 1535.45,-284.36 1546.00,-285.46 1557.37,-245.05" fill="none" stroke="#bcbcbc" stroke-width="8" stroke-linecap="round" stroke-linejoin="round" /><polyline points="1698.72,215.54 1710.72,208.80 1771.02,172.47 1787.14,162.87 1815.34,146.05 1861.75,116.04 1872.58,108.26 1953.98,57.76" fill="none" stroke="#bcbcbc" stroke-width="8" stroke-linecap="round" stroke-linejoin="round" /><polyline points="1983.25,454.06 1962.67,447.93 1950.71,438.12 1904.99,398.55 1903.43,397.16 1892.37,387.29 1885.88,375.77 1771.02,172.47" fill="none" stroke="#bcbcbc" stroke-width="8" stroke-linecap="round" stroke-linejoin="round" /><polyline points="687.05,437.95 867.26,493.40 881.96,498.06 1016.44,540.69 1019.25,541.58 1039.39,547.97 1049.30,551.11 1062.17,554.63 1088.72,563.62 1102.29,567.93 1114.51,571.80 1214.59,603.55 1320.24,636.74 1328.98,639.49 1341.09,633.55" fill="none" stroke="#bcbcbc" stroke-width="8" stroke-linecap="round" stroke-linejoin="round" /><polyline points="1216.92,-451.75 1294.98,-523.48 1308.19,-535.62" fill="none" stroke="#bcbcbc" stroke-width="8" stroke-linecap="round" stroke-linejoin="round" /><polyline points="-90.24,705.65 196.19,736.36" fill="none" stroke="#bcbcbc" stroke-width="8" stroke-linecap="round" stroke-linejoin="round" /><polyline points="773.84,-93.85 834.04,-115.38 896.14,-137.83 934.73,-152.83 1052.53,-195.67 1086.72,-207.50 1093.86,-209.97 1102.42,-212.91 1112.04,-216.22 1113.21,-216.63 1132.62,-224.43 1141.05,-227.82" fill="none" stroke="#bcbcbc" stroke-width="8" stroke-linecap="round" stroke-linejoin="round" /><polyline points="1178.19,1363.02 1234.87,1432.94 1269.57,1467.88 1284.59,1478.69 1305.86,1496.51 1325.83,1513.28 1342.99,1530.02 1343.41,1538.53" fill="none" stroke="#bcbcbc" stroke-width="8" stroke-linecap="round" stroke-linejoin="round" /><polyline points="1239.24,-249.66 1261.46,-305.34 1297.41,-397.01 1348.92,-528.35 1374.37,-590.56 1412.30,-683.33 1443.40,-759.32 1448.97,-769.41 1476.32,-814.13 1478.09,-817.01 1488.09,-836.69 1505.64,-863.72 1515.44,-878.81 1529.31,-900.15" fill="none" stroke="#bcbcbc" stroke-width="8" stroke-linecap="round" stroke-linejoin="round" /><polyline points="715.21,1239.01 711.57,1241.92 709.17,1245.39 704.26,1259.84 700.88,1270.27 685.23,1317.06 683.08,1323.82 681.74,1328.01 667.37,1323.89 632.39,1312.16 597.74,1300.54 570.95,1299.02" fill="none" stroke="#bcbcbc" stroke-width="8" stroke-linecap="round" stroke-linejoin="round" /><polyline points="30.27,1564.66 87.39,1417.16 93.75,1401.10 99.45,1385.63 106.33,1366.94 114.78,1337.55 123.59,1301.01 127.20,1274.83 129.82,1255.81 133.51,1241.78 146.96,1136.30 162.66,1003.20 170.78,939.75 179.85,865.21 196.19,736.36 198.79,714.45 215.30,579.69 215.31,572.19 218.96,532.20 229.49,447.75 232.13,433.02 234.89,424.76 239.20,415.66 243.38,408.59 252.63,398.59 260.89,395.75" fill="none" stroke="#bcbcbc" stroke-width="8" stroke-linecap="round" stroke-linejoin="round" /><polyline points="1277.18,444.32 1280.30,449.28 1290.78,465.63 1306.46,490.76 1310.24,496.76 1316.49,492.01 1346.83,468.98" fill="none" stroke="#bcbcbc" stroke-width="8" stroke-linecap="round" stroke-linejoin="round" /><polyline points="1297.41,-397.01 1606.02,-341.22 1638.43,-324.16 1759.34,-264.22 1769.99,-267.52" fill="none" stroke="#bcbcbc" stroke-width="8" stroke-linecap="round" stroke-linejoin="round" /><polyline points="708.24,302.24 702.76,310.23 653.53,334.26 617.37,380.22 578.35,404.38 551.66,424.53 526.20,445.30 513.15,457.20 490.09,486.44 464.31,523.40 460.06,530.25" fill="none" stroke="#bcbcbc" stroke-width="8" stroke-linecap="round" stroke-linejoin="round" /><polyline points="760.29,335.21 758.16,339.96 753.49,346.78 744.67,357.64 692.66,423.33 665.14,497.44 526.26,445.24" fill="none" stroke="#bcbcbc" stroke-width="8" stroke-linecap="round" stroke-linejoin="round" /><polyline points="551.66,424.53 546.28,408.25 523.05,337.88 514.03,323.98 498.92,278.67 497.62,274.76 499.84,267.67 496.23,256.12 423.61,24.25" fill="none" stroke="#bcbcbc" stroke-width="8" stroke-linecap="round" stroke-linejoin="round" /><polyline points="1402.56,-840.63 1459.95,-839.12 1462.63,-839.04 1473.62,-838.73 1488.09,-836.69" fill="none" stroke="#bcbcbc" stroke-width="8" stroke-linecap="round" stroke-linejoin="round" /><polyline points="1107.36,1028.94 1087.77,1028.70 921.84,1050.98 909.88,1052.24 896.20,1053.68 816.80,1062.06 709.83,1073.36 653.12,1079.34 621.74,1082.65 596.27,1085.75 583.19,1087.34 568.46,1089.13 497.29,1097.78 480.23,1099.85 427.67,1105.60 146.96,1136.30" fill="none" stroke="#bcbcbc" stroke-width="8" stroke-linecap="round" stroke-linejoin="round" /><polyline points="861.69,1605.07 846.99,1600.34 778.34,1578.24 764.46,1573.77 752.41,1569.90 679.68,1546.52 665.34,1541.91 646.36,1535.80 530.57,1498.54 517.54,1494.34" fill="none" stroke="#bcbcbc" stroke-width="8" stroke-linecap="round" stroke-linejoin="round" /><polyline points="1148.77,215.00 1188.71,227.44 1334.75,272.54 1336.11,272.96 1346.94,273.64" fill="none" stroke="#bcbcbc" stroke-width="8" stroke-linecap="round" stroke-linejoin="round" /><polyline points="1559.69,-113.90 1758.35,-110.41" fill="none" stroke="#bcbcbc" stroke-width="8" stroke-linecap="round" stroke-linejoin="round" /><polyline points="1462.42,1631.48 1434.02,1597.72 1422.10,1583.86 1411.86,1574.29 1398.23,1564.12 1370.37,1547.40 1343.41,1538.53 1288.56,1521.59 1243.70,1507.36 1269.57,1467.88" fill="none" stroke="#bcbcbc" stroke-width="8" stroke-linecap="round" stroke-linejoin="round" /><polyline points="1178.19,1363.02 1138.64,1314.21 1131.12,1304.92 1091.29,1250.05 1082.28,1233.30 1084.44,1213.35 1096.45,1213.23 1126.07,1218.93 1171.15,1227.60" fill="none" stroke="#bcbcbc" stroke-width="8" stroke-linecap="round" stroke-linejoin="round" /><polyline points="660.89,971.94 668.18,987.62 709.83,1073.36 771.75,1200.84 779.65,1217.10" fill="none" stroke="#bcbcbc" stroke-width="8" stroke-linecap="round" stroke-linejoin="round" /><polyline points="-6.14,1360.26 8.75,1366.35 78.52,1394.87 93.75,1401.10 109.77,1407.65 191.90,1441.24 206.76,1447.32" fill="none" stroke="#bcbcbc" stroke-width="8" stroke-linecap="round" stroke-linejoin="round" /><polyline points="695.16,844.82 840.51,908.41" fill="none" stroke="#bcbcbc" stroke-width="8" stroke-linecap="round" stroke-linejoin="round" /><polyline points="1346.94,273.64 1369.08,274.80 1370.49,276.05 1380.43,284.87 1395.02,297.90 1397.72,303.14 1448.04,347.21 1451.76,354.24 1487.14,385.47 1496.05,388.19 1523.57,412.29 1529.74,415.11 1571.25,450.32 1580.49,458.51 1585.59,466.63" fill="none" stroke="#bcbcbc" stroke-width="8" stroke-linecap="round" stroke-linejoin="round" /><polyline points="-47.17,844.96 179.85,865.21" fill="none" stroke="#bcbcbc" stroke-width="8" stroke-linecap="round" stroke-linejoin="round" /><polyline points="459.71,1690.31 466.75,1675.34 468.56,1668.68 478.41,1632.33 514.13,1506.40 517.54,1494.34 521.16,1481.12 537.33,1421.96 564.65,1322.05 570.95,1299.02" fill="none" stroke="#bcbcbc" stroke-width="8" stroke-linecap="round" stroke-linejoin="round" /><polyline points="660.89,971.94 695.16,844.82 622.49,819.39 603.47,830.63 594.79,837.23 588.37,845.91 583.85,857.38 567.14,919.16 580.62,926.03 594.24,929.33 624.36,937.17 646.90,944.35 660.89,971.94" fill="none" stroke="#bcbcbc" stroke-width="8" stroke-linecap="round" stroke-linejoin="round" /><polyline points="567.14,919.16 551.22,916.94 179.85,865.21" fill="none" stroke="#bcbcbc" stroke-width="8" stroke-linecap="round" stroke-linejoin="round" /><polyline points="1171.15,1227.60 1205.60,1235.13 1298.75,1264.74 1324.80,1272.98 1386.63,1290.84 1448.91,1308.80 1495.02,1322.12 1568.77,1343.41 1584.00,1347.82 1621.22,1360.29 1682.49,1376.61 1687.89,1377.62" fill="none" stroke="#bcbcbc" stroke-width="8" stroke-linecap="round" stroke-linejoin="round" /><polyline points="1214.85,1765.80 1202.28,1768.95 1188.69,1806.83 1167.61,1800.84 1071.80,1768.19 1060.26,1765.72 1034.61,1763.89 918.57,1764.35 892.99,1761.10 835.23,1752.26 811.93,1748.48 646.66,1721.82 582.67,1711.61 460.62,1690.47 440.92,1686.56 165.48,1609.58 148.10,1604.71 30.27,1564.66 1.29,1554.38 -71.12,1524.37 -112.39,1508.76" fill="none" stroke="#bcbcbc" stroke-width="8" stroke-linecap="round" stroke-linejoin="round" /><polyline points="1467.27,-270.78 1455.35,-273.23 1296.16,-254.41 1239.24,-249.66" fill="none" stroke="#bcbcbc" stroke-width="8" stroke-linecap="round" stroke-linejoin="round" /><polyline points="1171.15,1227.60 1176.73,1218.27 1210.14,1132.47 1247.46,1002.74 1256.98,974.80 1262.07,967.19 1298.11,851.52 1299.90,837.70 1301.26,828.68" fill="none" stroke="#bcbcbc" stroke-width="8" stroke-linecap="round" stroke-linejoin="round" /><polyline points="1335.21,-25.58 1339.01,-27.04 1344.17,-31.13 1352.00,-40.29 1453.65,-186.14 1480.72,-224.72" fill="none" stroke="#bcbcbc" stroke-width="8" stroke-linecap="round" stroke-linejoin="round" /><polyline points="1787.60,510.19 1789.68,504.20 1840.78,444.09 1844.53,442.09 1853.40,429.95 1883.13,395.80 1892.37,387.29" fill="none" stroke="#bcbcbc" stroke-width="8" stroke-linecap="round" stroke-linejoin="round" /><polyline points="1832.25,956.30 1831.55,948.25 1831.00,942.03 1828.31,930.13 1825.09,922.37 1821.08,901.98 1820.71,894.60 1817.99,878.10 1805.83,871.74 1796.11,875.46 1778.71,879.63 1764.94,881.78 1751.73,884.96 1733.50,889.12 1725.18,891.02" fill="none" stroke="#bcbcbc" stroke-width="8" stroke-linecap="round" stroke-linejoin="round" /><polyline points="489.86,661.07 527.02,573.96 529.08,568.30" fill="none" stroke="#bcbcbc" stroke-width="8" stroke-linecap="round" stroke-linejoin="round" /><polyline points="1469.17,501.34 1487.08,494.40 1496.44,490.78 1503.68,483.44 1533.54,476.08 1543.56,478.64 1565.18,473.07 1581.66,468.82 1585.59,466.63 1601.57,462.71 1683.31,442.69 1701.84,437.15" fill="none" stroke="#bcbcbc" stroke-width="8" stroke-linecap="round" stroke-linejoin="round" /><polyline points="715.21,1239.01 753.77,1225.01 766.67,1221.07 779.65,1217.10 803.62,1209.78 822.26,1207.10 885.92,1200.14 898.71,1199.44 955.68,1199.92 990.38,1200.22 1003.43,1199.55 1024.33,1201.67 1030.87,1202.61 1044.19,1204.51 1084.44,1213.35" fill="none" stroke="#bcbcbc" stroke-width="8" stroke-linecap="round" stroke-linejoin="round" /><polyline points="898.93,94.25 892.54,72.65 868.81,-7.57 839.99,-99.05 834.04,-115.38 828.00,-130.68 820.36,-152.74" fill="none" stroke="#bcbcbc" stroke-width="8" stroke-linecap="round" stroke-linejoin="round" /><polyline points="829.92,1387.72 834.98,1371.72 886.25,1210.08 885.92,1200.14" fill="none" stroke="#bcbcbc" stroke-width="8" stroke-linecap="round" stroke-linejoin="round" /><polyline points="898.71,1199.44 908.86,1063.34 909.88,1052.24 911.43,1039.33 911.46,1038.74 912.12,1022.96 915.51,980.12 917.42,960.16 920.03,937.49 922.41,921.18 924.55,910.93 927.23,903.18 932.50,885.73 943.39,849.39 957.24,802.48 972.50,754.51 975.62,744.73 978.12,737.64" fill="none" stroke="#bcbcbc" stroke-width="8" stroke-linecap="round" stroke-linejoin="round" /><polyline points="567.14,919.16 564.44,931.22 564.90,935.08 581.44,1072.76 583.19,1087.34 582.43,1102.34 578.10,1187.97 576.29,1223.75 575.36,1242.20 573.69,1275.09 572.82,1292.22 570.95,1299.02" fill="none" stroke="#bcbcbc" stroke-width="8" stroke-linecap="round" stroke-linejoin="round" /><polyline points="489.86,661.07 429.73,643.20 422.09,638.30 384.67,627.40 374.16,627.51 327.14,613.34 319.54,607.74 276.76,594.77 224.26,580.46 224.01,580.44 215.30,579.69" fill="none" stroke="#bcbcbc" stroke-width="8" stroke-linecap="round" stroke-linejoin="round" /><polyline points="1585.59,466.63 1587.68,469.37 1596.39,482.37 1612.51,506.39 1627.68,521.59 1656.85,554.33 1651.92,584.59 1649.42,595.94 1645.94,600.74 1653.25,611.56 1664.56,634.84 1687.17,678.45 1698.30,699.93 1705.23,719.23 1708.35,728.20" fill="none" stroke="#bcbcbc" stroke-width="8" stroke-linecap="round" stroke-linejoin="round" /><polyline points="1737.86,528.95 1729.48,531.56 1674.27,548.74 1666.35,551.28 1656.85,554.33" fill="none" stroke="#bcbcbc" stroke-width="8" stroke-linecap="round" stroke-linejoin="round" /><polyline points="1341.09,633.55 1358.35,627.95 1483.68,563.95 1500.46,555.75 1559.53,538.69 1616.80,522.59 1627.68,521.59" fill="none" stroke="#bcbcbc" stroke-width="8" stroke-linecap="round" stroke-linejoin="round" /><polyline points="1354.74,712.77 1499.23,645.53 1505.31,641.51 1519.44,637.40 1615.72,609.38 1630.32,603.79 1645.94,600.74" fill="none" stroke="#bcbcbc" stroke-width="8" stroke-linecap="round" stroke-linejoin="round" /><polyline points="1325.26,-696.85 1383.75,-689.63 1389.62,-688.90 1412.30,-683.33" fill="none" stroke="#bcbcbc" stroke-width="8" stroke-linecap="round" stroke-linejoin="round" /><polyline points="1825.07,-102.20 1835.45,-104.37 1874.20,-85.37 1879.31,-80.32 1952.06,42.83 1953.98,57.76 1963.44,65.65 1961.93,71.09 1961.70,79.97 1963.01,92.38 1982.28,171.57 1983.99,226.42 1986.69,314.00 1991.22,431.88 1972.77,483.24 1960.88,514.55 1943.52,558.68 1938.50,571.45 1935.24,575.01 1929.99,609.16" fill="none" stroke="#bcbcbc" stroke-width="8" stroke-linecap="round" stroke-linejoin="round" /><polyline points="1959.58,817.19 1941.88,809.49 1897.67,778.63 1839.34,737.64 1807.25,711.69 1785.61,688.51" fill="none" stroke="#bcbcbc" stroke-width="8" stroke-linecap="round" stroke-linejoin="round" /><polyline points="1243.70,1507.36 1226.33,1501.85 1198.13,1492.91 1184.67,1488.64 1168.87,1483.63 1148.90,1477.30 1130.84,1471.57 1112.99,1465.91 1033.40,1440.65 1019.46,1436.23 1002.14,1430.75 998.32,1429.54 952.80,1417.51 939.95,1414.40 923.83,1410.50 906.97,1406.41 846.22,1391.68 829.92,1387.72 812.41,1381.65 775.83,1368.94 762.04,1364.15 749.71,1360.15 692.42,1339.78 685.21,1335.48 681.74,1328.01" fill="none" stroke="#bcbcbc" stroke-width="8" stroke-linecap="round" stroke-linejoin="round" /><polyline points="1505.31,641.51 1501.09,626.38 1488.52,581.29 1483.68,563.95 1476.69,550.99 1476.04,548.58 1471.92,533.32 1476.72,526.56 1470.96,507.32 1469.17,501.34" fill="none" stroke="#bcbcbc" stroke-width="8" stroke-linecap="round" stroke-linejoin="round" /><polyline points="1484.29,89.71 1496.24,84.08 1561.56,48.07 1598.90,24.05 1625.23,6.09 1631.05,1.75 1652.24,-12.98 1674.20,-29.20 1688.11,-39.32 1704.69,-51.45 1762.31,-77.45 1769.79,-77.05 1780.71,-82.22 1825.08,-102.20" fill="none" stroke="#bcbcbc" stroke-width="8" stroke-linecap="round" stroke-linejoin="round" /><polyline points="760.29,335.21 769.72,339.03 775.94,340.95 892.75,376.83 910.59,382.30" fill="none" stroke="#bcbcbc" stroke-width="8" stroke-linecap="round" stroke-linejoin="round" /><polyline points="-74.05,597.90 -157.51,572.64" fill="none" stroke="#bcbcbc" stroke-width="8" stroke-linecap="round" stroke-linejoin="round" /><polyline points="1273.97,-578.98 1294.66,-552.77 1297.75,-548.86 1308.19,-535.62 1320.10,-534.23 1344.57,-531.35 1348.92,-528.35" fill="none" stroke="#bcbcbc" stroke-width="8" stroke-linecap="round" stroke-linejoin="round" /><polyline points="1992.48,586.90 1959.69,593.02 1926.07,611.29 1894.91,628.64 1865.43,643.38 1829.82,662.72 1804.03,678.38 1753.06,705.71 1554.10,805.80 1502.52,828.52 1468.44,843.26 1451.56,848.79 1437.59,851.40 1414.71,852.78 1382.17,848.18 1300.96,828.68 1185.67,801.81 1034.00,756.06 978.12,737.64 886.62,709.39 799.12,680.53 670.78,630.17 606.61,602.54 529.24,568.15 400.90,497.84 370.81,477.88 294.67,429.98 262.74,398.05 214.84,336.03 135.93,254.67 104.92,227.34" fill="none" stroke="#bcbcbc" stroke-width="8" stroke-linecap="round" stroke-linejoin="round" /><polyline points="1370.37,1547.40 1371.72,1539.90 1376.57,1527.65 1422.08,1421.15 1439.27,1381.23 1459.54,1331.49 1464.48,1313.28" fill="none" stroke="#bcbcbc" stroke-width="8" stroke-linecap="round" stroke-linejoin="round" /><polyline points="497.29,1097.78 445.59,1072.76 327.96,1015.82 183.66,945.98 170.78,939.75" fill="none" stroke="#bcbcbc" stroke-width="8" stroke-linecap="round" stroke-linejoin="round" /><polyline points="1346.94,273.64 1359.99,260.27 1394.70,224.74 1422.25,194.66" fill="none" stroke="#bcbcbc" stroke-width="8" stroke-linecap="round" stroke-linejoin="round" /><polyline points="-71.64,1524.15 -58.52,1493.04 -16.81,1389.05 -11.75,1375.40 -6.14,1360.26 -4.01,1354.80 -3.45,1346.24 1.89,1265.39 3.42,1242.21" fill="none" stroke="#bcbcbc" stroke-width="8" stroke-linecap="round" stroke-linejoin="round" /><polyline points="-100.09,688.21 -74.05,597.90 -39.70,478.78 -35.45,464.03 -30.72,447.28 -20.13,409.77 -19.02,405.83 -15.99,393.77 -11.15,380.14 -9.98,376.84 -3.87,361.70 8.11,335.26 11.70,327.66" fill="none" stroke="#bcbcbc" stroke-width="8" stroke-linecap="round" stroke-linejoin="round" /><polyline points="-35.45,464.03 17.24,477.50 128.85,506.19 192.43,525.99 218.96,532.21" fill="none" stroke="#bcbcbc" stroke-width="8" stroke-linecap="round" stroke-linejoin="round" /><polyline points="1049.09,54.23 1050.88,43.27 1052.68,31.88 1060.41,-6.20 1079.73,-94.84 1095.59,-174.13 1098.48,-190.58 1102.42,-212.91 1102.43,-212.93" fill="none" stroke="#bcbcbc" stroke-width="8" stroke-linecap="round" stroke-linejoin="round" /><polyline points="893.09,1761.11 916.62,1701.11 919.54,1690.32 1012.90,1453.33 1019.46,1436.23 1024.76,1421.73 1080.55,1259.42 1091.29,1250.05" fill="none" stroke="#bcbcbc" stroke-width="8" stroke-linecap="round" stroke-linejoin="round" /><polyline points="1213.11,8.35 1213.10,8.33 1209.80,-9.03 1209.28,-11.13 1201.21,-43.93 1201.22,-44.04 1195.72,-66.28 1172.42,-146.12 1169.49,-154.67 1153.75,-197.44 1148.64,-210.21 1145.34,-218.45 1141.06,-227.80 1141.05,-227.82 1141.05,-227.86 1137.93,-262.25 1137.63,-279.13" fill="none" stroke="#bcbcbc" stroke-width="8" stroke-linecap="round" stroke-linejoin="round" /><polyline points="1178.19,1363.02 1172.20,1369.49 1163.27,1380.11 1138.12,1451.04 1130.84,1471.57" fill="none" stroke="#bcbcbc" stroke-width="8" stroke-linecap="round" stroke-linejoin="round" /><polyline points="760.29,335.21 763.73,325.90 764.50,323.74 780.84,278.11 786.96,258.89 837.02,111.69" fill="none" stroke="#bcbcbc" stroke-width="8" stroke-linecap="round" stroke-linejoin="round" /><polyline points="1019.25,541.58 1024.35,528.01 1038.19,491.27 1044.04,475.73 1047.99,465.22 1059.09,435.73 1066.43,416.25 1067.42,413.63 1085.18,366.44 1092.61,368.74 1096.63,357.79 1103.75,338.41 1102.38,329.60 1121.28,278.15 1123.22,272.87 1126.81,269.57 1129.82,266.81 1148.77,215.00 1151.51,200.81 1178.70,125.26 1185.14,120.23 1198.22,83.22 1195.89,77.54 1207.35,42.98 1201.40,12.11" fill="none" stroke="#bcbcbc" stroke-width="8" stroke-linecap="round" stroke-linejoin="round" /><polyline points="1505.64,-863.72 1498.02,-876.22 1457.99,-941.90" fill="none" stroke="#bcbcbc" stroke-width="8" stroke-linecap="round" stroke-linejoin="round" /><polyline points="1631.05,1.75 1814.77,119.90 1814.82,119.98 1814.83,120.00 1848.81,124.41" fill="none" stroke="#bcbcbc" stroke-width="8" stroke-linecap="round" stroke-linejoin="round" /><polyline points="1557.37,-245.05 1752.85,-146.93 1758.75,-142.53 1758.35,-110.41 1762.31,-77.45" fill="none" stroke="#bcbcbc" stroke-width="8" stroke-linecap="round" stroke-linejoin="round" /><polyline points="1184.67,1488.64 1177.64,1510.09 1149.16,1596.96 1100.71,1743.26 1097.27,1753.63 1093.79,1764.15 1092.82,1775.35" fill="none" stroke="#bcbcbc" stroke-width="8" stroke-linecap="round" stroke-linejoin="round" /><polyline points="1734.98,960.93 1736.15,950.03 1736.40,939.87 1736.32,939.51 1729.39,909.57 1726.55,897.06 1725.18,891.02 1723.78,884.85 1716.18,851.35 1701.33,784.40 1690.53,744.15 1689.00,737.94" fill="none" stroke="#bcbcbc" stroke-width="8" stroke-linecap="round" stroke-linejoin="round" /><polyline points="764.46,1573.77 769.31,1560.00 823.74,1405.29 829.92,1387.72" fill="none" stroke="#bcbcbc" stroke-width="8" stroke-linecap="round" stroke-linejoin="round" /><polyline points="1986.69,314.00 1970.67,309.48 1861.91,142.58 1848.81,124.41" fill="none" stroke="#bcbcbc" stroke-width="8" stroke-linecap="round" stroke-linejoin="round" /><polyline points="198.79,714.45 595.16,809.41 622.49,819.39" fill="none" stroke="#bcbcbc" stroke-width="8" stroke-linecap="round" stroke-linejoin="round" /><polyline points="1448.97,-769.41 1603.37,-712.21 1625.11,-715.92" fill="none" stroke="#bcbcbc" stroke-width="8" stroke-linecap="round" stroke-linejoin="round" />
    <polyline points="344.67,352.80 330.33,333.81 263.13,244.83 167.20,167.20" fill="none" stroke="#ffffff" stroke-width="16" stroke-linecap="round" stroke-linejoin="round" />
    <polyline points="344.67,352.80 330.33,333.81 263.13,244.83 167.20,167.20" fill="none" stroke="#111111" stroke-width="9" stroke-linecap="round" stroke-linejoin="round" />
    
            <g transform="translate(344.67,352.80)">
              <circle r="19" fill="#ffffff" stroke="#111111" stroke-width="4" />
              <text text-anchor="middle" dominant-baseline="central" font-family="Helvetica, Arial, sans-serif"
                font-size="18" font-weight="700" fill="#111111">1</text>
            </g>
            
            <g transform="translate(167.20,167.20)">
              <circle r="19" fill="#ffffff" stroke="#111111" stroke-width="4" />
              <text text-anchor="middle" dominant-baseline="central" font-family="Helvetica, Arial, sans-serif"
                font-size="18" font-weight="700" fill="#111111">2</text>
            </g>
            
  </g>
</svg>
