<svg xmlns="http://www.w3.org/2000/svg" width="520" height="520" viewBox="0 0 520 520">
  <rect width="100%" height="100%" fill="#ffffff" />
  <g>
    <polyline points="1415.92,-717.79 1418.34,-704.94 1433.93,-595.88 1431.54,-568.61" fill="none" stroke="#bcbcbc" stroke-width="8" stroke-linecap="round" stroke-linejoin="round" /><polyline points="1099.01,191.05 1102.78,179.46 1122.75,118.04 1125.11,110.80 1127.49,103.21 1177.71,-56.93 1181.75,-69.81 1172.50,-92.59" fill="none" stroke="#bcbcbc" stroke-width="8" stroke-linecap="round" stroke-linejoin="round" /><polyline points="752.11,48.62 751.30,39.42 767.72,-52.53 770.02,-64.03 771.74,-70.06 776.26,-93.38 781.34,-121.92 786.87,-147.05 792.36,-172.13 795.82,-179.20 798.08,-183.54" fill="none" stroke="#bcbcbc" stroke-width="8" stroke-linecap="round" stroke-linejoin="round" /><polyline points="847.41,-599.99 843.51,-611.89 803.16,-734.94 801.19,-740.10" fill="none" stroke="#bcbcbc" stroke-width="8" stroke-linecap="round" stroke-linejoin="round" /><polyline points="640.38,482.97 641.58,471.22 642.07,465.84 646.46,417.25 651.27,374.47 652.39,364.49 653.44,352.50 653.55,351.49 656.28,327.67 658.63,303.45 661.22,280.08 662.96,261.88 663.69,250.65 664.33,240.29 665.48,228.60" fill="none" stroke="#bcbcbc" stroke-width="8" stroke-linecap="round" stroke-linejoin="round" /><polyline points="1197.90,219.60 1200.77,210.56 1221.02,146.92 1223.32,139.69 1226.59,129.39 1228.93,122.01 1246.85,44.72" fill="none" stroke="#bcbcbc" stroke-width="8" stroke-linecap="round" stroke-linejoin="round" /><polyline points="1119.19,-1039.26 1126.67,-1038.11 1332.71,-1006.46" fill="none" stroke="#bcbcbc" stroke-width="8" stroke-linecap="round" stroke-linejoin="round" /><polyline points="590.25,204.60 568.81,203.60 555.73,202.99 548.63,202.66 542.39,202.37 493.83,200.12 426.28,196.97 394.09,192.41 383.31,190.88 373.96,189.23 310.64,178.06 301.79,176.49 299.83,176.16 288.89,174.28 280.49,172.84 226.84,168.10 216.62,167.20 212.87,166.87 201.27,166.06 178.55,164.49" fill="none" stroke="#bcbcbc" stroke-width="8" stroke-linecap="round" stroke-linejoin="round" /><polyline points="901.82,142.39 905.97,130.57 943.40,26.82 988.43,-104.05 991.32,-112.26 993.33,-117.99 994.96,-122.70" fill="none" stroke="#bcbcbc" stroke-width="8" stroke-linecap="round" stroke-linejoin="round" /><polyline points="212.87,166.87 211.91,160.20 211.68,152.95 213.10,138.36 216.36,111.72 218.54,102.78 222.07,70.45 222.71,63.25 223.74,53.99 224.51,47.12 225.96,39.32 228.64,18.35 230.50,2.31 233.23,-4.25" fill="none" stroke="#bcbcbc" stroke-width="8" stroke-linecap="round" stroke-linejoin="round" /><polyline points="174.55,-12.44 224.48,-5.47 233.23,-4.25 238.66,-3.38 261.04,0.18 312.60,8.40 321.45,9.87" fill="none" stroke="#bcbcbc" stroke-width="8" stroke-linecap="round" stroke-linejoin="round" /><polyline points="1093.41,-667.35 1093.73,-662.82 1094.40,-658.22 1096.03,-654.70 1099.06,-650.78 1104.68,-645.67 1117.98,-637.57 1220.64,-573.18 1283.86,-488.42 1331.61,-370.58 1334.73,-362.79" fill="none" stroke="#bcbcbc" stroke-width="8" stroke-linecap="round" stroke-linejoin="round" /><polyline points="1076.97,-323.51 1079.10,-319.99 1079.65,-319.07 1081.41,-310.18 1093.46,-251.95 1097.28,-233.47 1100.02,-220.30 1104.28,-193.62 1106.27,-181.31 1107.65,-173.80 1109.15,-167.02 1110.95,-163.07 1113.58,-158.49 1114.99,-156.33 1141.67,-118.15 1156.09,-95.43 1159.86,-90.00" fill="none" stroke="#bcbcbc" stroke-width="8" stroke-linecap="round" stroke-linejoin="round" /><polyline points="311.25,405.66 312.67,396.92 313.99,390.60 314.34,389.76 332.09,347.55 343.41,320.12 346.84,311.43 350.48,302.22 354.44,294.30 355.08,292.76 360.49,279.68 364.68,268.10 368.27,257.48 370.55,249.97 373.10,240.70 376.04,228.26 378.28,218.17 380.95,204.09 381.51,200.95 383.31,190.88" fill="none" stroke="#bcbcbc" stroke-width="8" stroke-linecap="round" stroke-linejoin="round" /><polyline points="1171.39,-773.04 1227.99,-733.49 1235.62,-731.87 1241.20,-725.49" fill="none" stroke="#bcbcbc" stroke-width="8" stroke-linecap="round" stroke-linejoin="round" /><polyline points="933.69,-407.78 941.17,-404.90 973.65,-394.28 1048.99,-365.38 1053.22,-361.17 1055.21,-358.03" fill="none" stroke="#bcbcbc" stroke-width="8" stroke-linecap="round" stroke-linejoin="round" /><polyline points="1074.09,334.60 1079.22,321.23 1104.55,252.52 1122.45,200.61 1126.17,198.90" fill="none" stroke="#bcbcbc" stroke-width="8" stroke-linecap="round" stroke-linejoin="round" /><polyline points="716.06,247.48 720.05,238.64 720.45,237.77 727.29,214.83 738.49,177.08 741.36,167.42 743.59,159.91 743.89,155.54 743.43,145.86" fill="none" stroke="#bcbcbc" stroke-width="8" stroke-linecap="round" stroke-linejoin="round" /><polyline points="1181.60,-320.49 1175.18,-319.17 1160.63,-321.76 1158.38,-327.76 1133.16,-337.37 1127.20,-335.81 1104.45,-344.16 1101.06,-341.79" fill="none" stroke="#bcbcbc" stroke-width="8" stroke-linecap="round" stroke-linejoin="round" /><polyline points="1144.16,-1100.33 1155.59,-1097.53 1161.91,-1096.44 1312.21,-1070.38" fill="none" stroke="#bcbcbc" stroke-width="8" stroke-linecap="round" stroke-linejoin="round" /><polyline points="1027.35,292.76 1033.60,275.13 1045.75,240.88 1053.60,226.29 1064.90,194.66 1069.41,182.03" fill="none" stroke="#bcbcbc" stroke-width="8" stroke-linecap="round" stroke-linejoin="round" /><polyline points="203.84,-391.30 192.95,-391.80 190.22,-388.49 171.26,-365.44 104.96,-288.87 95.64,-278.10" fill="none" stroke="#bcbcbc" stroke-width="8" stroke-linecap="round" stroke-linejoin="round" /><polyline points="785.33,-325.72 780.53,-315.08 779.94,-313.79 763.25,-270.26 746.42,-222.34 741.93,-209.56 739.39,-202.96" fill="none" stroke="#bcbcbc" stroke-width="8" stroke-linecap="round" stroke-linejoin="round" /><polyline points="1030.23,-814.86 1035.53,-807.66 1039.32,-797.77 1045.22,-783.57 1054.67,-761.23 1063.05,-741.18 1072.67,-719.16 1079.80,-702.20 1080.86,-699.76 1080.92,-699.61 1086.66,-686.19 1088.38,-682.38 1090.01,-678.75 1091.73,-675.34 1093.03,-671.89 1093.41,-667.35" fill="none" stroke="#bcbcbc" stroke-width="8" stroke-linecap="round" stroke-linejoin="round" /><polyline points="624.19,-111.13 626.96,-112.64 630.85,-115.73 632.79,-119.73 658.58,-217.53 659.36,-223.05 662.51,-233.12" fill="none" stroke="#bcbcbc" stroke-width="8" stroke-linecap="round" stroke-linejoin="round" /><polyline points="1526.13,-264.17 1529.79,-252.56 1532.37,-240.36 1527.35,-193.87 1521.56,-158.91 1518.39,-146.98 1518.11,-145.90 1515.33,-139.46 1511.56,-132.64 1502.73,-121.48 1507.00,-99.66 1493.18,-52.82 1485.54,-26.95 1469.93,15.39 1447.06,66.94 1419.14,116.34 1410.42,132.40 1394.65,158.78 1331.66,248.17 1317.86,266.76 1264.42,336.60 1233.74,371.50 1190.82,415.11 1186.85,415.52 1177.16,423.45" fill="none" stroke="#bcbcbc" stroke-width="8" stroke-linecap="round" stroke-linejoin="round" /><polyline points="748.90,500.47 766.48,445.94 769.36,436.94 773.27,431.26 781.67,406.06 784.40,397.50 819.09,288.91 822.58,277.98 825.45,268.39 866.39,139.56" fill="none" stroke="#bcbcbc" stroke-width="8" stroke-linecap="round" stroke-linejoin="round" /><polyline points="1160.81,-513.59 1176.01,-530.20 1180.49,-535.60 1211.20,-579.10" fill="none" stroke="#bcbcbc" stroke-width="8" stroke-linecap="round" stroke-linejoin="round" /><polyline points="857.00,-507.01 898.86,-492.44 901.17,-488.68 913.05,-484.70 920.11,-482.29 953.85,-470.89" fill="none" stroke="#bcbcbc" stroke-width="8" stroke-linecap="round" stroke-linejoin="round" /><polyline points="1221.84,-796.65 1241.20,-725.49 1263.61,-641.67 1267.01,-634.68 1267.55,-626.70 1282.75,-598.33 1323.77,-521.85 1332.73,-508.62 1335.33,-504.75 1396.61,-390.19 1424.77,-364.59 1428.72,-359.49 1434.29,-354.73 1487.77,-309.01 1491.40,-305.91 1501.00,-300.81" fill="none" stroke="#bcbcbc" stroke-width="8" stroke-linecap="round" stroke-linejoin="round" /><polyline points="1013.87,512.04 1147.23,434.58 1170.97,422.44 1177.16,423.45" fill="none" stroke="#bcbcbc" stroke-width="8" stroke-linecap="round" stroke-linejoin="round" /><polyline points="1158.46,401.23 1166.74,391.39 1241.02,243.18 1245.94,233.47 1250.05,223.84 1274.05,164.51 1281.19,146.64 1301.87,84.05 1315.28,3.59 1316.87,-8.12" fill="none" stroke="#bcbcbc" stroke-width="8" stroke-linecap="round" stroke-linejoin="round" /><polyline points="1101.13,-470.38 1099.83,-469.05 1098.04,-462.82 1097.87,-462.19 1089.80,-431.16 1091.92,-423.05 1090.16,-415.79 1087.86,-406.28 1081.96,-399.45 1075.26,-372.33 1067.38,-366.37 1058.96,-360.60 1055.21,-358.03" fill="none" stroke="#bcbcbc" stroke-width="8" stroke-linecap="round" stroke-linejoin="round" /><polyline points="785.33,-325.72 788.76,-334.50 809.37,-387.33 813.86,-398.85 817.56,-408.34 843.90,-475.80 855.75,-504.00 857.00,-507.01 866.21,-529.29 886.88,-580.61 894.46,-602.46 896.14,-607.47 898.40,-613.15" fill="none" stroke="#bcbcbc" stroke-width="8" stroke-linecap="round" stroke-linejoin="round" /><polyline points="1015.94,-645.94 1019.92,-634.08 1150.71,-522.37 1222.08,-460.29 1328.68,-367.63 1337.98,-360.19 1342.15,-357.58 1360.65,-340.79 1385.35,-319.73 1441.38,-271.96 1459.48,-256.40 1471.49,-242.04" fill="none" stroke="#bcbcbc" stroke-width="8" stroke-linecap="round" stroke-linejoin="round" /><polyline points="1232.19,-838.42 1238.82,-842.67 1278.12,-859.00 1286.20,-867.50" fill="none" stroke="#bcbcbc" stroke-width="8" stroke-linecap="round" stroke-linejoin="round" /><polyline points="1277.58,155.68 1223.32,139.69 1125.11,110.80" fill="none" stroke="#bcbcbc" stroke-width="8" stroke-linecap="round" stroke-linejoin="round" /><polyline points="1102.43,-998.31 1109.85,-993.20 1351.35,-939.47" fill="none" stroke="#bcbcbc" stroke-width="8" stroke-linecap="round" stroke-linejoin="round" /><polyline points="1400.75,-203.25 1388.27,-231.02 1360.57,-297.07 1358.50,-302.32 1353.76,-314.38 1335.91,-359.80 1334.79,-362.75" fill="none" stroke="#bcbcbc" stroke-width="8" stroke-linecap="round" stroke-linejoin="round" /><polyline points="1030.23,-814.86 1016.82,-818.67 1006.97,-821.61 986.94,-827.55 976.77,-830.46 970.94,-832.07 963.33,-834.25" fill="none" stroke="#bcbcbc" stroke-width="8" stroke-linecap="round" stroke-linejoin="round" /><polyline points="680.64,-451.56 679.96,-453.77 679.34,-455.33 676.57,-462.19 665.87,-487.15 655.69,-512.50 653.50,-518.48 650.96,-525.38 649.15,-531.02 646.16,-539.47 645.85,-540.36 636.12,-564.35 618.25,-609.44 614.23,-611.72 611.38,-619.04 605.68,-638.84 595.91,-663.38 593.81,-668.96" fill="none" stroke="#bcbcbc" stroke-width="8" stroke-linecap="round" stroke-linejoin="round" /><polyline points="766.48,445.94 776.63,449.05 809.47,459.05 819.75,462.19" fill="none" stroke="#bcbcbc" stroke-width="8" stroke-linecap="round" stroke-linejoin="round" /><polyline points="1379.65,-826.61 1381.56,-834.35 1380.79,-837.29 1379.85,-840.83 1373.85,-862.79 1360.49,-909.22 1353.44,-932.95 1351.35,-939.47 1332.71,-1006.46 1322.65,-1042.59 1312.21,-1070.38 1302.78,-1095.44 1293.39,-1112.68 1284.27,-1121.78 1214.23,-1207.36 1209.05,-1213.45 1205.62,-1219.08" fill="none" stroke="#bcbcbc" stroke-width="8" stroke-linecap="round" stroke-linejoin="round" /><polyline points="1093.41,-667.35 1089.80,-665.97 1083.12,-664.13 1082.45,-663.94 1054.56,-656.81 1022.49,-647.78 1015.94,-645.94 1013.02,-645.01 1005.32,-642.54 998.73,-640.70 969.97,-632.70 922.67,-619.27 905.04,-614.81 898.40,-613.15 866.88,-605.41 847.41,-599.99 806.18,-588.47 765.42,-576.99 760.71,-575.68 726.65,-566.23 710.94,-561.86 703.00,-558.12 687.98,-550.67 658.16,-535.54 656.08,-534.48 649.15,-531.02 644.93,-528.90 639.04,-525.81 618.08,-514.83 579.90,-493.41 548.00,-476.70 543.44,-474.31 537.35,-473.93 533.68,-471.98 532.95,-471.60 498.35,-452.64 491.11,-452.67 482.79,-448.32 479.88,-446.80 477.43,-445.52 471.65,-442.49 467.09,-432.10 447.51,-421.61 441.28,-418.27 434.54,-414.61 407.30,-399.78 393.21,-392.12 386.11,-390.07" fill="none" stroke="#bcbcbc" stroke-width="8" stroke-linecap="round" stroke-linejoin="round" /><polyline points="1485.54,-26.95 1471.01,-25.62 1425.59,-21.46 1423.54,-21.27 1420.65,-21.01 1415.96,-20.58 1371.92,-16.53 1356.61,-17.95 1338.77,-13.49 1324.48,-9.98 1316.88,-8.12 1297.97,-7.40 1281.60,-8.23 1273.26,-9.12 1266.16,-11.27 1260.93,-14.16 1241.46,-27.92 1194.15,-60.42 1189.69,-63.44 1185.15,-66.52 1181.75,-69.81" fill="none" stroke="#bcbcbc" stroke-width="8" stroke-linecap="round" stroke-linejoin="round" /><polyline points="413.97,-575.52 431.14,-541.91 433.73,-532.31 448.20,-504.72 454.17,-496.83 478.34,-449.80 479.88,-446.80" fill="none" stroke="#bcbcbc" stroke-width="8" stroke-linecap="round" stroke-linejoin="round" /><polyline points="940.07,-276.66 937.50,-269.59 936.77,-267.40 933.42,-257.23 912.18,-197.98 901.64,-168.56 901.28,-167.56 897.05,-158.41 894.62,-152.98" fill="none" stroke="#bcbcbc" stroke-width="8" stroke-linecap="round" stroke-linejoin="round" /><polyline points="1221.84,-796.65 1219.49,-801.69 1213.30,-802.50 1193.28,-797.91 1189.21,-798.44 1186.02,-802.71 1180.36,-828.76 1211.04,-833.51 1225.24,-837.70 1232.19,-838.42 1239.67,-811.82" fill="none" stroke="#bcbcbc" stroke-width="8" stroke-linecap="round" stroke-linejoin="round" /><polyline points="1332.73,-508.62 1340.63,-513.06 1380.33,-536.98 1390.94,-543.30 1409.51,-554.37 1440.06,-574.12 1447.19,-579.25 1500.78,-612.49" fill="none" stroke="#bcbcbc" stroke-width="8" stroke-linecap="round" stroke-linejoin="round" /><polyline points="1520.05,-351.62 1506.51,-355.65 1498.63,-362.11 1468.53,-388.16 1467.50,-389.07 1460.23,-395.57 1455.95,-403.15 1380.33,-536.98" fill="none" stroke="#bcbcbc" stroke-width="8" stroke-linecap="round" stroke-linejoin="round" /><polyline points="666.69,-362.22 785.33,-325.72 795.01,-322.65 883.54,-294.59 885.39,-294.00 898.66,-289.80 905.18,-287.73 913.65,-285.41 931.13,-279.49 940.07,-276.66 948.11,-274.11 1014.00,-253.21 1083.55,-231.36 1089.31,-229.55 1097.28,-233.47" fill="none" stroke="#bcbcbc" stroke-width="8" stroke-linecap="round" stroke-linejoin="round" /><polyline points="1015.53,-947.89 1066.92,-995.11 1075.62,-1003.10" fill="none" stroke="#bcbcbc" stroke-width="8" stroke-linecap="round" stroke-linejoin="round" /><polyline points="154.95,-186.00 343.53,-165.79" fill="none" stroke="#bcbcbc" stroke-width="8" stroke-linecap="round" stroke-linejoin="round" /><polyline points="723.83,-712.29 763.46,-726.46 804.35,-741.24 829.75,-751.11 907.30,-779.32 929.81,-787.10 934.51,-788.73 940.15,-790.67 946.48,-792.84 947.26,-793.11 960.03,-798.25 965.59,-800.48" fill="none" stroke="#bcbcbc" stroke-width="8" stroke-linecap="round" stroke-linejoin="round" /><polyline points="990.03,246.73 1027.35,292.76 1050.19,315.76 1060.08,322.87 1074.09,334.60 1087.23,345.64 1098.53,356.66 1098.81,362.27" fill="none" stroke="#bcbcbc" stroke-width="8" stroke-linecap="round" stroke-linejoin="round" /><polyline points="1030.23,-814.86 1044.85,-851.51 1068.53,-911.85 1102.43,-998.31 1119.19,-1039.26 1144.16,-1100.33 1164.64,-1150.35 1168.31,-1156.99 1186.31,-1186.43 1187.48,-1188.33 1194.06,-1201.29 1205.62,-1219.08 1212.07,-1229.01 1221.20,-1243.05" fill="none" stroke="#bcbcbc" stroke-width="8" stroke-linecap="round" stroke-linejoin="round" /><polyline points="685.23,165.10 682.83,167.01 681.25,169.30 678.02,178.81 675.79,185.67 665.49,216.48 664.07,220.92 663.19,223.68 653.73,220.97 630.71,213.25 607.89,205.60 590.25,204.60" fill="none" stroke="#bcbcbc" stroke-width="8" stroke-linecap="round" stroke-linejoin="round" /><polyline points="234.29,379.47 271.90,282.37 276.08,271.80 279.83,261.61 284.37,249.31 289.93,229.96 295.73,205.91 298.10,188.68 299.83,176.16 302.26,166.92 311.11,97.49 321.45,9.87 326.80,-31.90 332.77,-80.97 343.53,-165.79 345.23,-180.21 356.11,-268.91 356.11,-273.85 358.52,-300.17 365.45,-355.77 367.19,-365.47 369.00,-370.91 371.84,-376.90 374.60,-381.54 380.68,-388.13 386.12,-390.00" fill="none" stroke="#bcbcbc" stroke-width="8" stroke-linecap="round" stroke-linejoin="round" /><polyline points="1055.21,-358.03 1057.26,-354.76 1064.16,-344.00 1074.48,-327.45 1076.97,-323.51 1081.09,-326.63 1101.06,-341.79" fill="none" stroke="#bcbcbc" stroke-width="8" stroke-linecap="round" stroke-linejoin="round" /><polyline points="1068.52,-911.85 1271.70,-875.13 1293.04,-863.90 1372.64,-824.44 1379.65,-826.61" fill="none" stroke="#bcbcbc" stroke-width="8" stroke-linecap="round" stroke-linejoin="round" /><polyline points="680.64,-451.56 677.03,-446.30 644.62,-430.48 620.81,-400.22 595.12,-384.32 577.55,-371.05 560.79,-357.38 552.20,-349.55 537.02,-330.30 520.05,-305.97 517.25,-301.46" fill="none" stroke="#bcbcbc" stroke-width="8" stroke-linecap="round" stroke-linejoin="round" /><polyline points="714.91,-429.85 713.50,-426.73 710.43,-422.24 704.62,-415.09 670.38,-371.84 652.27,-323.06 560.83,-357.42" fill="none" stroke="#bcbcbc" stroke-width="8" stroke-linecap="round" stroke-linejoin="round" /><polyline points="577.55,-371.05 574.01,-381.77 558.71,-428.09 552.78,-437.24 542.83,-467.07 541.97,-469.64 543.44,-474.31 541.06,-481.91 493.25,-634.55" fill="none" stroke="#bcbcbc" stroke-width="8" stroke-linecap="round" stroke-linejoin="round" /><polyline points="1137.75,-1203.88 1175.53,-1202.88 1177.30,-1202.83 1184.54,-1202.63 1194.06,-1201.29" fill="none" stroke="#bcbcbc" stroke-width="8" stroke-linecap="round" stroke-linejoin="round" /><polyline points="943.40,26.82 930.50,26.66 821.26,41.32 813.39,42.15 804.39,43.10 752.11,48.62 681.68,56.05 644.35,59.99 623.69,62.17 606.92,64.21 598.31,65.26 588.61,66.43 541.76,72.13 530.53,73.49 495.93,77.28 311.11,97.49" fill="none" stroke="#bcbcbc" stroke-width="8" stroke-linecap="round" stroke-linejoin="round" /><polyline points="781.67,406.06 771.99,402.95 726.79,388.40 717.65,385.46 709.72,382.91 661.83,367.52 652.39,364.49 639.90,360.47 563.67,335.94 555.09,333.18" fill="none" stroke="#bcbcbc" stroke-width="8" stroke-linecap="round" stroke-linejoin="round" /><polyline points="970.67,-508.98 996.96,-500.79 1093.11,-471.11 1094.00,-470.83 1101.13,-470.38" fill="none" stroke="#bcbcbc" stroke-width="8" stroke-linecap="round" stroke-linejoin="round" /><polyline points="1241.20,-725.49 1371.99,-723.19" fill="none" stroke="#bcbcbc" stroke-width="8" stroke-linecap="round" stroke-linejoin="round" /><polyline points="1177.16,423.45 1158.46,401.23 1150.62,392.10 1143.88,385.81 1134.90,379.11 1116.56,368.10 1098.81,362.27 1062.70,351.11 1033.17,341.74 1050.19,315.76" fill="none" stroke="#bcbcbc" stroke-width="8" stroke-linecap="round" stroke-linejoin="round" /><polyline points="990.03,246.73 964.00,214.60 959.05,208.49 932.83,172.36 926.89,161.34 928.31,148.20 936.22,148.13 955.72,151.88 985.40,157.59" fill="none" stroke="#bcbcbc" stroke-width="8" stroke-linecap="round" stroke-linejoin="round" /><polyline points="649.47,-10.71 654.27,-0.38 681.68,56.05 722.45,139.97 727.65,150.67" fill="none" stroke="#bcbcbc" stroke-width="8" stroke-linecap="round" stroke-linejoin="round" /><polyline points="210.32,244.91 220.13,248.92 266.05,267.70 276.08,271.80 286.63,276.11 340.70,298.22 350.48,302.22" fill="none" stroke="#bcbcbc" stroke-width="8" stroke-linecap="round" stroke-linejoin="round" /><polyline points="672.03,-94.39 767.72,-52.53" fill="none" stroke="#bcbcbc" stroke-width="8" stroke-linecap="round" stroke-linejoin="round" /><polyline points="1101.13,-470.38 1115.71,-469.62 1116.64,-468.79 1123.18,-462.99 1132.79,-454.41 1134.56,-450.96 1167.69,-421.95 1170.14,-417.32 1193.44,-396.77 1199.30,-394.98 1217.42,-379.11 1221.48,-377.26 1248.81,-354.08 1254.89,-348.68 1258.25,-343.34" fill="none" stroke="#bcbcbc" stroke-width="8" stroke-linecap="round" stroke-linejoin="round" /><polyline points="183.31,-94.29 332.77,-80.97" fill="none" stroke="#bcbcbc" stroke-width="8" stroke-linecap="round" stroke-linejoin="round" /><polyline points="517.02,462.18 521.65,452.32 522.84,447.94 529.33,424.01 552.84,341.11 555.09,333.18 557.47,324.47 568.12,285.53 586.11,219.76 590.25,204.60" fill="none" stroke="#bcbcbc" stroke-width="8" stroke-linecap="round" stroke-linejoin="round" /><polyline points="649.47,-10.71 672.03,-94.39 624.19,-111.13 611.66,-103.73 605.95,-99.39 601.72,-93.67 598.75,-86.12 587.74,-45.45 596.62,-40.93 605.59,-38.76 625.42,-33.60 640.26,-28.87 649.47,-10.71" fill="none" stroke="#bcbcbc" stroke-width="8" stroke-linecap="round" stroke-linejoin="round" /><polyline points="587.74,-45.45 577.26,-46.91 332.77,-80.97" fill="none" stroke="#bcbcbc" stroke-width="8" stroke-linecap="round" stroke-linejoin="round" /><polyline points="985.40,157.59 1008.08,162.54 1069.41,182.03 1086.56,187.46 1127.26,199.21 1168.27,211.04 1198.63,219.81 1247.18,233.82 1257.21,236.72 1281.71,244.93 1322.04,255.68 1325.60,256.34" fill="none" stroke="#bcbcbc" stroke-width="8" stroke-linecap="round" stroke-linejoin="round" /><polyline points="1014.17,511.87 1005.89,513.94 996.95,538.88 983.07,534.94 919.99,513.44 912.40,511.82 895.51,510.61 819.11,510.92 802.27,508.77 764.24,502.96 748.90,500.47 640.10,482.92 597.97,476.20 517.62,462.28 504.64,459.71 323.31,409.03 311.86,405.83 234.29,379.47 215.21,372.70 167.54,352.94 140.37,342.67" fill="none" stroke="#bcbcbc" stroke-width="8" stroke-linecap="round" stroke-linejoin="round" /><polyline points="1180.36,-828.76 1172.50,-830.37 1067.70,-817.98 1030.23,-814.86" fill="none" stroke="#bcbcbc" stroke-width="8" stroke-linecap="round" stroke-linejoin="round" /><polyline points="985.40,157.59 989.07,151.44 1011.07,94.96 1035.64,9.57 1041.91,-8.83 1045.26,-13.83 1068.99,-89.98 1070.17,-99.07 1071.06,-105.01" fill="none" stroke="#bcbcbc" stroke-width="8" stroke-linecap="round" stroke-linejoin="round" /><polyline points="1093.41,-667.35 1095.91,-668.31 1099.31,-671.01 1104.46,-677.04 1171.39,-773.04 1189.21,-798.44" fill="none" stroke="#bcbcbc" stroke-width="8" stroke-linecap="round" stroke-linejoin="round" /><polyline points="1391.25,-314.67 1392.62,-318.61 1426.26,-358.18 1428.72,-359.49 1434.57,-367.49 1454.14,-389.97 1460.23,-395.57" fill="none" stroke="#bcbcbc" stroke-width="8" stroke-linecap="round" stroke-linejoin="round" /><polyline points="1420.65,-21.01 1420.18,-26.30 1419.82,-30.40 1418.05,-38.23 1415.93,-43.34 1413.29,-56.76 1413.05,-61.62 1411.25,-72.48 1403.25,-76.67 1396.85,-74.22 1385.39,-71.48 1376.33,-70.06 1367.63,-67.96 1355.63,-65.23 1350.15,-63.98" fill="none" stroke="#bcbcbc" stroke-width="8" stroke-linecap="round" stroke-linejoin="round" /><polyline points="536.87,-215.34 561.33,-272.69 562.69,-276.41" fill="none" stroke="#bcbcbc" stroke-width="8" stroke-linecap="round" stroke-linejoin="round" /><polyline points="1181.60,-320.49 1193.40,-325.06 1199.56,-327.45 1204.33,-332.27 1223.99,-337.12 1230.58,-335.44 1244.81,-339.10 1255.67,-341.90 1258.25,-343.34 1268.77,-345.92 1322.59,-359.10 1334.79,-362.75" fill="none" stroke="#bcbcbc" stroke-width="8" stroke-linecap="round" stroke-linejoin="round" /><polyline points="685.23,165.10 710.61,155.88 719.10,153.29 727.65,150.67 743.43,145.86 755.70,144.09 797.62,139.51 806.04,139.05 843.54,139.37 866.39,139.56 874.98,139.12 888.74,140.52 893.05,141.13 901.82,142.39 928.31,148.20" fill="none" stroke="#bcbcbc" stroke-width="8" stroke-linecap="round" stroke-linejoin="round" /><polyline points="806.18,-588.47 801.97,-602.69 786.35,-655.50 767.38,-715.71 763.46,-726.46 759.49,-736.54 754.46,-751.05" fill="none" stroke="#bcbcbc" stroke-width="8" stroke-linecap="round" stroke-linejoin="round" /><polyline points="760.75,262.99 764.08,252.45 797.83,146.05 797.62,139.51" fill="none" stroke="#bcbcbc" stroke-width="8" stroke-linecap="round" stroke-linejoin="round" /><polyline points="806.04,139.05 812.72,49.46 813.39,42.15 814.41,33.65 814.43,33.27 814.87,22.87 817.10,-5.33 818.36,-18.46 820.07,-33.38 821.64,-44.13 823.05,-50.87 824.82,-55.97 828.28,-67.46 835.45,-91.38 844.57,-122.26 854.62,-153.83 856.67,-160.27 858.31,-164.94" fill="none" stroke="#bcbcbc" stroke-width="8" stroke-linecap="round" stroke-linejoin="round" /><polyline points="587.74,-45.45 585.97,-37.51 586.27,-34.97 597.16,55.66 598.31,65.26 597.81,75.13 594.96,131.50 593.77,155.05 593.15,167.20 592.06,188.85 591.49,200.12 590.25,204.60" fill="none" stroke="#bcbcbc" stroke-width="8" stroke-linecap="round" stroke-linejoin="round" /><polyline points="536.87,-215.34 497.28,-227.11 492.25,-230.33 467.61,-237.51 460.69,-237.44 429.74,-246.76 424.74,-250.45 396.57,-258.99 362.01,-268.41 361.84,-268.42 356.11,-268.91" fill="none" stroke="#bcbcbc" stroke-width="8" stroke-linecap="round" stroke-linejoin="round" /><polyline points="1258.25,-343.34 1259.62,-341.54 1265.36,-332.98 1275.98,-317.17 1285.96,-307.16 1305.17,-285.61 1301.92,-265.69 1300.27,-258.22 1297.98,-255.06 1302.80,-247.94 1310.24,-232.62 1325.13,-203.90 1332.46,-189.76 1337.01,-177.06 1339.07,-171.16" fill="none" stroke="#bcbcbc" stroke-width="8" stroke-linecap="round" stroke-linejoin="round" /><polyline points="1358.50,-302.32 1352.98,-300.60 1316.63,-289.29 1311.42,-287.62 1305.17,-285.61" fill="none" stroke="#bcbcbc" stroke-width="8" stroke-linecap="round" stroke-linejoin="round" /><polyline points="1097.28,-233.47 1108.65,-237.15 1191.16,-279.28 1202.20,-284.67 1241.09,-295.90 1278.80,-306.50 1285.96,-307.16" fill="none" stroke="#bcbcbc" stroke-width="8" stroke-linecap="round" stroke-linejoin="round" /><polyline points="1106.27,-181.31 1201.40,-225.57 1205.40,-228.22 1214.70,-230.93 1278.09,-249.37 1287.70,-253.05 1297.98,-255.06" fill="none" stroke="#bcbcbc" stroke-width="8" stroke-linecap="round" stroke-linejoin="round" /><polyline points="1086.86,-1109.23 1125.37,-1104.47 1129.23,-1104.00 1144.16,-1100.33" fill="none" stroke="#bcbcbc" stroke-width="8" stroke-linecap="round" stroke-linejoin="round" /><polyline points="1415.92,-717.79 1422.75,-719.21 1448.26,-706.71 1451.62,-703.38 1499.52,-622.32 1500.78,-612.49 1507.01,-607.30 1506.02,-603.71 1505.87,-597.87 1506.73,-589.70 1519.42,-537.57 1520.54,-501.47 1522.32,-443.81 1525.30,-366.22 1513.15,-332.41 1505.33,-311.79 1493.90,-282.75 1490.59,-274.34 1488.44,-272.00 1484.99,-249.52" fill="none" stroke="#bcbcbc" stroke-width="8" stroke-linecap="round" stroke-linejoin="round" /><polyline points="1504.47,-112.58 1492.82,-117.65 1463.71,-137.96 1425.31,-164.94 1404.18,-182.02 1389.93,-197.28" fill="none" stroke="#bcbcbc" stroke-width="8" stroke-linecap="round" stroke-linejoin="round" /><polyline points="1033.17,341.74 1021.73,338.11 1003.16,332.23 994.30,329.42 983.90,326.12 970.75,321.95 958.86,318.19 947.11,314.46 894.71,297.83 885.53,294.92 874.13,291.31 871.62,290.52 841.65,282.60 833.18,280.55 822.58,277.98 811.48,275.29 771.48,265.59 760.75,262.99 749.22,258.99 725.14,250.63 716.06,247.48 707.94,244.84 670.23,231.43 665.48,228.60 663.19,223.68" fill="none" stroke="#bcbcbc" stroke-width="8" stroke-linecap="round" stroke-linejoin="round" /><polyline points="1205.40,-228.22 1202.62,-238.18 1194.34,-267.86 1191.16,-279.28 1186.56,-287.81 1186.13,-289.39 1183.42,-299.44 1186.58,-303.89 1182.78,-316.56 1181.60,-320.49" fill="none" stroke="#bcbcbc" stroke-width="8" stroke-linecap="round" stroke-linejoin="round" /><polyline points="1191.56,-591.46 1199.43,-595.17 1242.43,-618.87 1267.01,-634.68 1284.35,-646.50 1288.18,-649.36 1302.13,-659.05 1316.59,-669.73 1325.75,-676.40 1336.66,-684.38 1374.60,-701.49 1379.52,-701.23 1386.71,-704.63 1415.92,-717.79" fill="none" stroke="#bcbcbc" stroke-width="8" stroke-linecap="round" stroke-linejoin="round" /><polyline points="714.91,-429.85 721.11,-427.33 725.21,-426.08 802.11,-402.46 813.86,-398.85" fill="none" stroke="#bcbcbc" stroke-width="8" stroke-linecap="round" stroke-linejoin="round" /><polyline points="165.61,-256.93 110.67,-273.56" fill="none" stroke="#bcbcbc" stroke-width="8" stroke-linecap="round" stroke-linejoin="round" /><polyline points="1053.09,-1031.64 1066.71,-1014.38 1068.75,-1011.81 1075.62,-1003.10 1083.46,-1002.18 1099.57,-1000.29 1102.43,-998.31" fill="none" stroke="#bcbcbc" stroke-width="8" stroke-linecap="round" stroke-linejoin="round" /><polyline points="1526.13,-264.17 1504.54,-260.14 1482.41,-248.12 1461.89,-236.70 1442.49,-226.99 1419.04,-214.26 1402.06,-203.95 1368.51,-185.96 1237.52,-120.07 1203.56,-105.12 1181.13,-95.41 1170.01,-91.77 1160.81,-90.06 1145.75,-89.15 1124.33,-92.18 1070.86,-105.01 994.96,-122.70 895.10,-152.82 858.31,-164.94 798.08,-183.54 740.47,-202.54 655.98,-235.69 613.73,-253.88 562.79,-276.51 478.30,-322.80 458.49,-335.93 408.36,-367.47 387.34,-388.48 355.80,-429.31 303.85,-482.87 283.44,-500.86" fill="none" stroke="#bcbcbc" stroke-width="8" stroke-linecap="round" stroke-linejoin="round" /><polyline points="1116.56,368.10 1117.45,363.16 1120.64,355.10 1150.60,285.00 1161.92,258.72 1175.26,225.97 1178.51,213.99" fill="none" stroke="#bcbcbc" stroke-width="8" stroke-linecap="round" stroke-linejoin="round" /><polyline points="541.76,72.13 507.72,55.66 430.28,18.18 335.28,-27.79 326.80,-31.90" fill="none" stroke="#bcbcbc" stroke-width="8" stroke-linecap="round" stroke-linejoin="round" /><polyline points="1101.13,-470.38 1109.73,-479.18 1132.58,-502.57 1150.71,-522.37" fill="none" stroke="#bcbcbc" stroke-width="8" stroke-linecap="round" stroke-linejoin="round" /><polyline points="441.28,-418.27 431.84,-430.77 387.60,-489.35 324.44,-540.45" fill="none" stroke="#bcbcbc" stroke-width="8" stroke-linecap="round" stroke-linejoin="round" /><polyline points="148.47,-197.48 165.61,-256.93 188.23,-335.35 191.03,-345.05 194.14,-356.08 201.11,-380.77 201.84,-383.36 203.84,-391.30 207.02,-400.27 207.79,-402.45 211.81,-412.41 219.70,-429.82 222.07,-434.82" fill="none" stroke="#bcbcbc" stroke-width="8" stroke-linecap="round" stroke-linejoin="round" /><polyline points="191.03,-345.05 225.71,-336.18 299.19,-317.30 341.05,-304.26 358.52,-300.17" fill="none" stroke="#bcbcbc" stroke-width="8" stroke-linecap="round" stroke-linejoin="round" /><polyline points="905.04,-614.81 906.22,-622.03 907.41,-629.52 912.50,-654.59 925.21,-712.94 935.65,-765.14 937.56,-775.96 940.15,-790.67 940.16,-790.68" fill="none" stroke="#bcbcbc" stroke-width="8" stroke-linecap="round" stroke-linejoin="round" /><polyline points="802.34,508.78 817.83,469.28 819.75,462.19 881.22,306.18 885.53,294.92 889.03,285.37 925.75,178.53 932.83,172.36" fill="none" stroke="#bcbcbc" stroke-width="8" stroke-linecap="round" stroke-linejoin="round" /><polyline points="1013.02,-645.01 1013.02,-645.03 1010.84,-656.45 1010.50,-657.84 1005.19,-679.43 1005.20,-679.50 1001.58,-694.14 986.24,-746.70 984.30,-752.33 973.95,-780.48 970.58,-788.89 968.41,-794.31 965.59,-800.47 965.59,-800.48 965.58,-800.50 963.53,-823.14 963.33,-834.25" fill="none" stroke="#bcbcbc" stroke-width="8" stroke-linecap="round" stroke-linejoin="round" /><polyline points="990.03,246.73 986.09,250.99 980.21,257.98 963.65,304.67 958.86,318.19" fill="none" stroke="#bcbcbc" stroke-width="8" stroke-linecap="round" stroke-linejoin="round" /><polyline points="714.91,-429.85 717.17,-435.98 717.68,-437.40 728.43,-467.44 732.47,-480.09 765.42,-576.99" fill="none" stroke="#bcbcbc" stroke-width="8" stroke-linecap="round" stroke-linejoin="round" /><polyline points="885.39,-294.00 888.76,-302.94 897.86,-327.12 901.71,-337.35 904.32,-344.27 911.63,-363.68 916.46,-376.50 917.11,-378.23 928.80,-409.29 933.69,-407.78 936.34,-414.99 941.03,-427.75 940.13,-433.54 952.57,-467.41 953.85,-470.89 956.21,-473.06 958.19,-474.88 970.67,-508.98 972.47,-518.32 990.37,-568.05 994.61,-571.37 1003.22,-595.73 1001.69,-599.47 1009.23,-622.22 1005.32,-642.54" fill="none" stroke="#bcbcbc" stroke-width="8" stroke-linecap="round" stroke-linejoin="round" /><polyline points="1205.62,-1219.08 1200.60,-1227.31 1174.24,-1270.54" fill="none" stroke="#bcbcbc" stroke-width="8" stroke-linecap="round" stroke-linejoin="round" /><polyline points="1288.18,-649.36 1409.14,-571.58 1409.17,-571.53 1409.17,-571.52 1431.54,-568.61" fill="none" stroke="#bcbcbc" stroke-width="8" stroke-linecap="round" stroke-linejoin="round" /><polyline points="1239.67,-811.82 1368.37,-747.23 1372.25,-744.33 1371.99,-723.19 1374.60,-701.49" fill="none" stroke="#bcbcbc" stroke-width="8" stroke-linecap="round" stroke-linejoin="round" /><polyline points="994.30,329.42 989.67,343.54 970.92,400.73 939.03,497.03 936.76,503.86 934.47,510.78 933.83,518.16" fill="none" stroke="#bcbcbc" stroke-width="8" stroke-linecap="round" stroke-linejoin="round" /><polyline points="1356.61,-17.95 1357.38,-25.13 1357.54,-31.82 1357.49,-32.06 1352.93,-51.77 1351.06,-60.00 1350.15,-63.98 1349.23,-68.04 1344.23,-90.09 1334.45,-134.16 1327.34,-160.65 1326.33,-164.75" fill="none" stroke="#bcbcbc" stroke-width="8" stroke-linecap="round" stroke-linejoin="round" /><polyline points="717.65,385.46 720.84,376.39 756.68,274.55 760.75,262.99" fill="none" stroke="#bcbcbc" stroke-width="8" stroke-linecap="round" stroke-linejoin="round" /><polyline points="1522.32,-443.81 1511.77,-446.79 1440.17,-556.65 1431.54,-568.61" fill="none" stroke="#bcbcbc" stroke-width="8" stroke-linecap="round" stroke-linejoin="round" /><polyline points="345.23,-180.21 606.19,-117.70 624.19,-111.13" fill="none" stroke="#bcbcbc" stroke-width="8" stroke-linecap="round" stroke-linejoin="round" /><polyline points="1168.31,-1156.99 1269.96,-1119.34 1284.27,-1121.78" fill="none" stroke="#bcbcbc" stroke-width="8" stroke-linecap="round" stroke-linejoin="round" />
    <polyline points="167.20,352.80 175.84,332.32 203.30,263.86 206.63,254.88 210.32,244.91 211.72,241.32 212.09,235.68 215.61,182.46 216.62,167.20" fill="none" stroke="#ffffff" stroke-width="16" stroke-linecap="round" stroke-linejoin="round" />
    <polyline points="167.20,352.80 175.84,332.32 203.30,263.86 206.63,254.88 210.32,244.91 211.72,241.32 212.09,235.68 215.61,182.46 216.62,167.20" fill="none" stroke="#111111" stroke-width="9" stroke-linecap="round" stroke-linejoin="round" />
    
            <g transform="translate(167.20,352.80)">
              <circle r="19" fill="#ffffff" stroke="#111111" stroke-width="4" />
              <text text-anchor="middle" dominant-baseline="central" font-family="Helvetica, Arial, sans-serif"
                font-size="18" font-weight="700" fill="#111111">1</text>
            </g>
            
            <g transform="translate(216.62,167.20)">
              <circle r="19" fill="#ffffff" stroke="#111111" stroke-width="4" />
              <text text-anchor="middle" dominant-baseline="central" font-family="Helvetica, Arial, sans-serif"
                font-size="18" font-weight="700" fill="#111111">2</text>
            </g>
            
  </g>
</svg>
