<svg xmlns="http://www.w3.org/2000/svg" width="520" height="520" viewBox="0 0 520 520">
  <rect width="100%" height="100%" fill="#ffffff" />
  <g>
    <polyline points="1158.23,-54.08 1160.12,-44.03 1172.31,41.25 1170.45,62.57" fill="none" stroke="#bcbcbc" stroke-width="8" stroke-linecap="round" stroke-linejoin="round" /><polyline points="910.44,656.63 913.39,647.56 929.00,599.53 930.84,593.88 932.71,587.93 971.98,462.71 975.13,452.64 967.90,434.82" fill="none" stroke="#bcbcbc" stroke-width="8" stroke-linecap="round" stroke-linejoin="round" /><polyline points="639.20,545.24 638.56,538.05 651.40,466.15 653.20,457.15 654.55,452.44 658.08,434.21 662.05,411.89 666.38,392.23 670.67,372.62 673.37,367.09 675.14,363.70" fill="none" stroke="#bcbcbc" stroke-width="8" stroke-linecap="round" stroke-linejoin="round" /><polyline points="713.71,38.04 710.66,28.73 679.11,-67.49 677.57,-71.53" fill="none" stroke="#bcbcbc" stroke-width="8" stroke-linecap="round" stroke-linejoin="round" /><polyline points="551.83,884.90 552.77,875.72 553.15,871.51 556.59,833.52 560.35,800.06 561.22,792.25 562.04,782.88 562.13,782.09 564.26,763.46 566.10,744.52 568.13,726.25 569.49,712.02 570.06,703.24 570.56,695.13 571.46,685.99" fill="none" stroke="#bcbcbc" stroke-width="8" stroke-linecap="round" stroke-linejoin="round" /><polyline points="987.76,678.95 990.01,671.89 1005.84,622.12 1007.64,616.46 1010.19,608.41 1012.03,602.64 1026.04,542.20" fill="none" stroke="#bcbcbc" stroke-width="8" stroke-linecap="round" stroke-linejoin="round" /><polyline points="926.22,-305.47 932.07,-304.57 1093.17,-279.82" fill="none" stroke="#bcbcbc" stroke-width="8" stroke-linecap="round" stroke-linejoin="round" /><polyline points="512.64,667.22 495.87,666.44 485.64,665.97 480.09,665.71 475.22,665.48 437.24,663.72 384.43,661.26 359.26,657.69 350.83,656.50 343.52,655.21 294.01,646.47 287.09,645.24 285.55,644.98 277.00,643.52 270.43,642.39 228.48,638.68 220.49,637.98 217.56,637.72 208.48,637.09 190.72,635.86" fill="none" stroke="#bcbcbc" stroke-width="8" stroke-linecap="round" stroke-linejoin="round" /><polyline points="756.25,618.57 759.50,609.33 788.77,528.20 823.98,425.86 826.23,419.44 827.81,414.96 829.08,411.28" fill="none" stroke="#bcbcbc" stroke-width="8" stroke-linecap="round" stroke-linejoin="round" /><polyline points="217.56,637.72 216.81,632.50 216.63,626.83 217.74,615.42 220.29,594.59 221.99,587.60 224.75,562.32 225.25,556.69 226.06,549.45 226.66,544.07 227.79,537.98 229.89,521.58 231.34,509.04 233.48,503.91" fill="none" stroke="#bcbcbc" stroke-width="8" stroke-linecap="round" stroke-linejoin="round" /><polyline points="187.60,497.50 226.64,502.95 233.48,503.91 237.72,504.58 255.22,507.37 295.54,513.79 302.46,514.95" fill="none" stroke="#bcbcbc" stroke-width="8" stroke-linecap="round" stroke-linejoin="round" /><polyline points="906.06,-14.64 906.31,-11.09 906.84,-7.50 908.11,-4.75 910.48,-1.68 914.87,2.32 925.27,8.65 1005.54,59.01 1054.98,125.29 1092.31,217.44 1094.75,223.52" fill="none" stroke="#bcbcbc" stroke-width="8" stroke-linecap="round" stroke-linejoin="round" /><polyline points="893.21,254.25 894.87,257.00 895.30,257.71 896.68,264.66 906.10,310.20 909.09,324.66 911.22,334.95 914.56,355.82 916.12,365.44 917.19,371.31 918.37,376.62 919.77,379.71 921.83,383.29 922.94,384.98 943.79,414.84 955.07,432.60 958.01,436.85" fill="none" stroke="#bcbcbc" stroke-width="8" stroke-linecap="round" stroke-linejoin="round" /><polyline points="294.48,824.45 295.59,817.61 296.62,812.67 296.90,812.02 310.78,779.01 319.63,757.56 322.31,750.76 325.16,743.56 328.25,737.37 328.75,736.16 332.99,725.93 336.26,716.88 339.06,708.57 340.85,702.70 342.84,695.45 345.15,685.73 346.89,677.84 348.98,666.83 349.42,664.37 350.83,656.50" fill="none" stroke="#bcbcbc" stroke-width="8" stroke-linecap="round" stroke-linejoin="round" /><polyline points="967.03,-97.29 1011.29,-66.36 1017.25,-65.10 1021.62,-60.10" fill="none" stroke="#bcbcbc" stroke-width="8" stroke-linecap="round" stroke-linejoin="round" /><polyline points="781.17,188.35 787.02,190.60 812.42,198.91 871.33,221.50 874.64,224.79 876.19,227.25" fill="none" stroke="#bcbcbc" stroke-width="8" stroke-linecap="round" stroke-linejoin="round" /><polyline points="890.95,768.88 894.96,758.43 914.77,704.70 928.77,664.10 931.67,662.76" fill="none" stroke="#bcbcbc" stroke-width="8" stroke-linecap="round" stroke-linejoin="round" /><polyline points="611.01,700.75 614.13,693.84 614.44,693.16 619.79,675.22 628.54,645.70 630.79,638.15 632.53,632.28 632.76,628.86 632.41,621.29" fill="none" stroke="#bcbcbc" stroke-width="8" stroke-linecap="round" stroke-linejoin="round" /><polyline points="975.02,256.60 970.00,257.64 958.62,255.62 956.86,250.92 937.14,243.41 932.48,244.62 914.69,238.09 912.04,239.95" fill="none" stroke="#bcbcbc" stroke-width="8" stroke-linecap="round" stroke-linejoin="round" /><polyline points="945.75,-353.23 954.68,-351.04 959.62,-350.18 1077.14,-329.80" fill="none" stroke="#bcbcbc" stroke-width="8" stroke-linecap="round" stroke-linejoin="round" /><polyline points="854.41,736.16 859.29,722.38 868.79,695.59 874.93,684.18 883.77,659.45 887.29,649.58" fill="none" stroke="#bcbcbc" stroke-width="8" stroke-linecap="round" stroke-linejoin="round" /><polyline points="210.50,201.23 201.98,200.84 199.85,203.43 185.02,221.45 133.18,281.33 125.89,289.75" fill="none" stroke="#bcbcbc" stroke-width="8" stroke-linecap="round" stroke-linejoin="round" /><polyline points="665.17,252.52 661.41,260.83 660.96,261.84 647.90,295.88 634.74,333.36 631.24,343.35 629.25,348.51" fill="none" stroke="#bcbcbc" stroke-width="8" stroke-linecap="round" stroke-linejoin="round" /><polyline points="856.66,-129.99 860.81,-124.36 863.77,-116.63 868.38,-105.52 875.77,-88.05 882.32,-72.37 889.84,-55.16 895.42,-41.89 896.24,-39.98 896.29,-39.87 900.78,-29.37 902.12,-26.39 903.40,-23.55 904.75,-20.89 905.77,-18.19 906.06,-14.64" fill="none" stroke="#bcbcbc" stroke-width="8" stroke-linecap="round" stroke-linejoin="round" /><polyline points="539.17,420.33 541.34,419.14 544.38,416.73 545.90,413.60 566.07,337.12 566.68,332.81 569.14,324.93" fill="none" stroke="#bcbcbc" stroke-width="8" stroke-linecap="round" stroke-linejoin="round" /><polyline points="1244.41,300.65 1247.27,309.73 1249.28,319.27 1245.36,355.62 1240.83,382.96 1238.36,392.29 1238.13,393.13 1235.97,398.17 1233.01,403.50 1226.11,412.23 1229.45,429.30 1218.64,465.92 1212.67,486.15 1200.46,519.26 1182.58,559.57 1160.75,598.21 1153.93,610.76 1141.61,631.39 1092.35,701.29 1081.56,715.84 1039.78,770.44 1015.79,797.74 982.23,831.84 979.12,832.16 971.54,838.36" fill="none" stroke="#bcbcbc" stroke-width="8" stroke-linecap="round" stroke-linejoin="round" /><polyline points="636.69,898.59 650.43,855.95 652.68,848.91 655.74,844.47 662.30,824.77 664.44,818.07 691.57,733.15 694.29,724.61 696.54,717.10 728.55,616.37" fill="none" stroke="#bcbcbc" stroke-width="8" stroke-linecap="round" stroke-linejoin="round" /><polyline points="958.76,105.60 970.64,92.62 974.15,88.39 998.16,54.38" fill="none" stroke="#bcbcbc" stroke-width="8" stroke-linecap="round" stroke-linejoin="round" /><polyline points="721.21,110.75 753.94,122.14 755.74,125.08 765.04,128.20 770.55,130.08 796.94,138.99" fill="none" stroke="#bcbcbc" stroke-width="8" stroke-linecap="round" stroke-linejoin="round" /><polyline points="1006.48,-115.75 1021.62,-60.10 1039.14,5.45 1041.80,10.91 1042.22,17.15 1054.11,39.33 1086.18,99.14 1093.19,109.49 1095.22,112.51 1143.13,202.10 1165.16,222.12 1168.25,226.10 1172.60,229.83 1214.41,265.58 1217.25,268.01 1224.76,271.99" fill="none" stroke="#bcbcbc" stroke-width="8" stroke-linecap="round" stroke-linejoin="round" /><polyline points="843.87,907.64 948.14,847.07 966.70,837.58 971.54,838.36" fill="none" stroke="#bcbcbc" stroke-width="8" stroke-linecap="round" stroke-linejoin="round" /><polyline points="956.92,820.98 963.40,813.29 1021.48,697.40 1025.33,689.80 1028.54,682.27 1047.30,635.88 1052.89,621.90 1069.06,572.96 1079.55,510.04 1080.79,500.88" fill="none" stroke="#bcbcbc" stroke-width="8" stroke-linecap="round" stroke-linejoin="round" /><polyline points="912.10,139.39 911.08,140.43 909.68,145.31 909.54,145.79 903.24,170.07 904.89,176.40 903.52,182.08 901.72,189.52 897.11,194.86 891.87,216.07 885.71,220.73 879.12,225.24 876.19,227.25" fill="none" stroke="#bcbcbc" stroke-width="8" stroke-linecap="round" stroke-linejoin="round" /><polyline points="665.17,252.52 667.85,245.65 683.96,204.34 687.48,195.33 690.37,187.91 710.96,135.16 720.23,113.10 721.21,110.75 728.41,93.33 744.58,53.19 750.50,36.11 751.81,32.19 753.58,27.74" fill="none" stroke="#bcbcbc" stroke-width="8" stroke-linecap="round" stroke-linejoin="round" /><polyline points="845.49,2.11 848.60,11.38 950.87,98.73 1006.67,147.28 1090.02,219.74 1097.30,225.56 1100.55,227.60 1115.02,240.73 1134.33,257.20 1178.14,294.56 1192.29,306.73 1201.68,317.96" fill="none" stroke="#bcbcbc" stroke-width="8" stroke-linecap="round" stroke-linejoin="round" /><polyline points="1014.57,-148.41 1019.76,-151.74 1050.49,-164.51 1056.80,-171.15" fill="none" stroke="#bcbcbc" stroke-width="8" stroke-linecap="round" stroke-linejoin="round" /><polyline points="1050.06,628.97 1007.64,616.46 930.84,593.88" fill="none" stroke="#bcbcbc" stroke-width="8" stroke-linecap="round" stroke-linejoin="round" /><polyline points="913.12,-273.45 918.91,-269.45 1107.75,-227.43" fill="none" stroke="#bcbcbc" stroke-width="8" stroke-linecap="round" stroke-linejoin="round" /><polyline points="1146.37,348.29 1136.61,326.57 1114.95,274.92 1113.34,270.82 1109.63,261.39 1095.67,225.86 1094.79,223.56" fill="none" stroke="#bcbcbc" stroke-width="8" stroke-linecap="round" stroke-linejoin="round" /><polyline points="856.66,-129.99 846.18,-132.97 838.47,-135.27 822.81,-139.92 814.86,-142.19 810.30,-143.45 804.35,-145.16" fill="none" stroke="#bcbcbc" stroke-width="8" stroke-linecap="round" stroke-linejoin="round" /><polyline points="583.31,154.11 582.78,152.38 582.29,151.16 580.13,145.79 571.76,126.28 563.81,106.46 562.09,101.78 560.11,96.38 558.69,91.97 556.35,85.36 556.11,84.67 548.50,65.91 534.53,30.65 531.39,28.86 529.16,23.14 524.70,7.66 517.06,-11.53 515.42,-15.89" fill="none" stroke="#bcbcbc" stroke-width="8" stroke-linecap="round" stroke-linejoin="round" /><polyline points="650.43,855.95 658.37,858.38 684.04,866.20 692.08,868.65" fill="none" stroke="#bcbcbc" stroke-width="8" stroke-linecap="round" stroke-linejoin="round" /><polyline points="1129.87,-139.18 1131.37,-145.23 1130.76,-147.53 1130.03,-150.30 1125.34,-167.47 1114.89,-203.78 1109.38,-222.33 1107.75,-227.43 1093.17,-279.82 1085.30,-308.08 1077.14,-329.80 1069.77,-349.40 1062.43,-362.88 1055.29,-370.00 1000.53,-436.92 996.48,-441.68 993.80,-446.09" fill="none" stroke="#bcbcbc" stroke-width="8" stroke-linecap="round" stroke-linejoin="round" /><polyline points="906.06,-14.64 903.24,-13.56 898.01,-12.12 897.49,-11.97 875.68,-6.40 850.60,0.66 845.49,2.11 843.21,2.83 837.18,4.77 832.03,6.20 809.54,12.46 772.56,22.96 758.77,26.45 753.58,27.74 728.94,33.80 713.71,38.04 681.47,47.04 649.61,56.03 645.92,57.05 619.28,64.44 607.00,67.85 600.80,70.78 589.05,76.60 565.73,88.44 564.11,89.26 558.69,91.97 555.39,93.63 550.78,96.04 534.40,104.63 504.54,121.39 479.60,134.45 476.03,136.32 471.27,136.62 468.41,138.14 467.83,138.44 440.78,153.27 435.11,153.24 428.61,156.65 426.34,157.83 424.42,158.84 419.90,161.20 416.34,169.33 401.02,177.53 396.16,180.14 390.89,183.01 369.58,194.60 358.57,200.59 353.02,202.19" fill="none" stroke="#bcbcbc" stroke-width="8" stroke-linecap="round" stroke-linejoin="round" /><polyline points="1212.67,486.15 1201.31,487.19 1165.79,490.45 1164.19,490.59 1161.93,490.80 1158.26,491.14 1123.83,494.30 1111.85,493.19 1097.91,496.68 1086.74,499.42 1080.79,500.88 1066.01,501.44 1053.21,500.79 1046.69,500.10 1041.14,498.42 1037.05,496.16 1021.82,485.39 984.83,459.98 981.34,457.62 977.79,455.21 975.13,452.64" fill="none" stroke="#bcbcbc" stroke-width="8" stroke-linecap="round" stroke-linejoin="round" /><polyline points="374.80,57.18 388.22,83.46 390.25,90.96 401.56,112.54 406.23,118.71 425.13,155.49 426.34,157.83" fill="none" stroke="#bcbcbc" stroke-width="8" stroke-linecap="round" stroke-linejoin="round" /><polyline points="786.16,290.88 784.15,296.41 783.59,298.12 780.96,306.07 764.36,352.40 756.11,375.41 755.83,376.20 752.52,383.35 750.62,387.60" fill="none" stroke="#bcbcbc" stroke-width="8" stroke-linecap="round" stroke-linejoin="round" /><polyline points="1006.48,-115.75 1004.64,-119.69 999.80,-120.32 984.15,-116.73 980.97,-117.15 978.47,-120.49 974.04,-140.86 998.04,-144.57 1009.14,-147.85 1014.57,-148.41 1020.42,-127.62" fill="none" stroke="#bcbcbc" stroke-width="8" stroke-linecap="round" stroke-linejoin="round" /><polyline points="1093.19,109.49 1099.37,106.02 1130.41,87.31 1138.70,82.37 1153.22,73.71 1177.11,58.27 1182.68,54.26 1224.59,28.27" fill="none" stroke="#bcbcbc" stroke-width="8" stroke-linecap="round" stroke-linejoin="round" /><polyline points="1239.66,232.26 1229.06,229.11 1222.90,224.06 1199.37,203.69 1198.57,202.97 1192.88,197.90 1189.53,191.97 1130.41,87.31" fill="none" stroke="#bcbcbc" stroke-width="8" stroke-linecap="round" stroke-linejoin="round" /><polyline points="572.40,223.97 665.17,252.52 672.74,254.92 741.96,276.86 743.41,277.32 753.78,280.61 758.88,282.22 765.51,284.04 779.17,288.66 786.16,290.88 792.45,292.88 843.97,309.22 898.35,326.30 902.85,327.72 909.09,324.66" fill="none" stroke="#bcbcbc" stroke-width="8" stroke-linecap="round" stroke-linejoin="round" /><polyline points="845.17,-234.02 885.35,-270.94 892.15,-277.19" fill="none" stroke="#bcbcbc" stroke-width="8" stroke-linecap="round" stroke-linejoin="round" /><polyline points="172.27,361.78 319.72,377.58" fill="none" stroke="#bcbcbc" stroke-width="8" stroke-linecap="round" stroke-linejoin="round" /><polyline points="617.08,-49.78 648.07,-60.86 680.04,-72.42 699.90,-80.14 760.54,-102.20 778.14,-108.28 781.82,-109.56 786.23,-111.07 791.18,-112.77 791.78,-112.98 801.77,-117.00 806.11,-118.74" fill="none" stroke="#bcbcbc" stroke-width="8" stroke-linecap="round" stroke-linejoin="round" /><polyline points="825.23,700.17 854.41,736.16 872.27,754.15 880.00,759.71 890.95,768.88 901.23,777.52 910.07,786.13 910.28,790.52" fill="none" stroke="#bcbcbc" stroke-width="8" stroke-linecap="round" stroke-linejoin="round" /><polyline points="856.66,-129.99 868.09,-158.65 886.60,-205.84 913.12,-273.45 926.22,-305.47 945.75,-353.23 961.76,-392.35 964.62,-397.54 978.70,-420.56 979.61,-422.04 984.76,-432.17 993.80,-446.09 998.84,-453.85 1005.98,-464.84" fill="none" stroke="#bcbcbc" stroke-width="8" stroke-linecap="round" stroke-linejoin="round" /><polyline points="586.90,636.33 585.02,637.83 583.79,639.62 581.26,647.05 579.52,652.42 571.47,676.51 570.36,679.99 569.67,682.14 562.27,680.02 544.27,673.99 526.43,668.00 512.64,667.22" fill="none" stroke="#bcbcbc" stroke-width="8" stroke-linecap="round" stroke-linejoin="round" /><polyline points="234.31,803.97 263.71,728.04 266.98,719.77 269.92,711.81 273.46,702.19 277.81,687.05 282.35,668.25 284.20,654.77 285.55,644.98 287.45,637.76 294.37,583.46 302.46,514.95 306.64,482.28 311.31,443.91 319.72,377.58 321.06,366.30 329.56,296.94 329.56,293.07 331.44,272.49 336.86,229.02 338.22,221.43 339.64,217.18 341.86,212.50 344.01,208.86 348.77,203.71 353.03,202.25" fill="none" stroke="#bcbcbc" stroke-width="8" stroke-linecap="round" stroke-linejoin="round" /><polyline points="876.19,227.25 877.80,229.80 883.19,238.22 891.26,251.16 893.21,254.25 896.43,251.80 912.04,239.95" fill="none" stroke="#bcbcbc" stroke-width="8" stroke-linecap="round" stroke-linejoin="round" /><polyline points="886.60,-205.84 1045.47,-177.12 1062.15,-168.34 1124.39,-137.48 1129.87,-139.18" fill="none" stroke="#bcbcbc" stroke-width="8" stroke-linecap="round" stroke-linejoin="round" /><polyline points="583.31,154.11 580.49,158.22 555.15,170.59 536.53,194.25 516.45,206.69 502.71,217.06 489.60,227.76 482.88,233.88 471.01,248.94 457.74,267.96 455.55,271.49" fill="none" stroke="#bcbcbc" stroke-width="8" stroke-linecap="round" stroke-linejoin="round" /><polyline points="610.11,171.09 609.01,173.53 606.60,177.04 602.06,182.63 575.29,216.45 561.13,254.60 489.63,227.73" fill="none" stroke="#bcbcbc" stroke-width="8" stroke-linecap="round" stroke-linejoin="round" /><polyline points="502.71,217.06 499.94,208.68 487.98,172.46 483.33,165.31 475.56,141.98 474.89,139.97 476.03,136.32 474.17,130.37 436.79,11.02" fill="none" stroke="#bcbcbc" stroke-width="8" stroke-linecap="round" stroke-linejoin="round" /><polyline points="940.73,-434.20 970.27,-433.42 971.65,-433.38 977.31,-433.22 984.76,-432.17" fill="none" stroke="#bcbcbc" stroke-width="8" stroke-linecap="round" stroke-linejoin="round" /><polyline points="788.77,528.20 778.68,528.07 693.27,539.54 687.11,540.19 680.07,540.93 639.20,545.24 584.13,551.06 554.93,554.14 538.78,555.84 525.67,557.44 518.94,558.26 511.35,559.18 474.72,563.63 465.94,564.70 438.88,567.66 294.37,583.46" fill="none" stroke="#bcbcbc" stroke-width="8" stroke-linecap="round" stroke-linejoin="round" /><polyline points="662.30,824.77 654.74,822.33 619.40,810.95 612.25,808.66 606.05,806.66 568.61,794.63 561.22,792.25 551.46,789.11 491.85,769.93 485.14,767.77" fill="none" stroke="#bcbcbc" stroke-width="8" stroke-linecap="round" stroke-linejoin="round" /><polyline points="810.09,109.20 830.65,115.61 905.82,138.82 906.52,139.04 912.10,139.39" fill="none" stroke="#bcbcbc" stroke-width="8" stroke-linecap="round" stroke-linejoin="round" /><polyline points="1021.62,-60.10 1123.88,-58.30" fill="none" stroke="#bcbcbc" stroke-width="8" stroke-linecap="round" stroke-linejoin="round" /><polyline points="971.54,838.36 956.92,820.98 950.79,813.85 945.52,808.93 938.50,803.69 924.16,795.08 910.28,790.52 882.05,781.80 858.96,774.47 872.27,754.15" fill="none" stroke="#bcbcbc" stroke-width="8" stroke-linecap="round" stroke-linejoin="round" /><polyline points="825.23,700.17 804.87,675.04 801.00,670.26 780.50,642.02 775.86,633.39 776.97,623.12 783.15,623.06 798.40,626.00 821.61,630.46" fill="none" stroke="#bcbcbc" stroke-width="8" stroke-linecap="round" stroke-linejoin="round" /><polyline points="558.94,498.85 562.69,506.93 584.13,551.06 616.01,616.69 620.07,625.05" fill="none" stroke="#bcbcbc" stroke-width="8" stroke-linecap="round" stroke-linejoin="round" /><polyline points="215.56,698.75 223.23,701.88 259.14,716.57 266.98,719.77 275.23,723.14 317.51,740.43 325.16,743.56" fill="none" stroke="#bcbcbc" stroke-width="8" stroke-linecap="round" stroke-linejoin="round" /><polyline points="576.58,433.41 651.40,466.15" fill="none" stroke="#bcbcbc" stroke-width="8" stroke-linecap="round" stroke-linejoin="round" /><polyline points="912.10,139.39 923.49,139.99 924.22,140.63 929.34,145.17 936.85,151.88 938.24,154.58 964.14,177.26 966.06,180.88 984.27,196.96 988.86,198.36 1003.03,210.76 1006.20,212.21 1027.57,230.34 1032.33,234.56 1034.95,238.74" fill="none" stroke="#bcbcbc" stroke-width="8" stroke-linecap="round" stroke-linejoin="round" /><polyline points="194.44,433.49 311.31,443.91" fill="none" stroke="#bcbcbc" stroke-width="8" stroke-linecap="round" stroke-linejoin="round" /><polyline points="455.37,868.65 459.00,860.94 459.93,857.51 465.00,838.80 483.39,773.98 485.14,767.77 487.01,760.96 495.33,730.51 509.40,679.08 512.64,667.22" fill="none" stroke="#bcbcbc" stroke-width="8" stroke-linecap="round" stroke-linejoin="round" /><polyline points="558.94,498.85 576.58,433.41 539.17,420.33 529.38,426.11 524.91,429.51 521.60,433.98 519.28,439.88 510.67,471.68 517.61,475.22 524.63,476.92 540.13,480.96 551.74,484.65 558.94,498.85" fill="none" stroke="#bcbcbc" stroke-width="8" stroke-linecap="round" stroke-linejoin="round" /><polyline points="510.67,471.68 502.48,470.54 311.31,443.91" fill="none" stroke="#bcbcbc" stroke-width="8" stroke-linecap="round" stroke-linejoin="round" /><polyline points="821.61,630.46 839.34,634.33 887.29,649.58 900.70,653.82 932.53,663.01 964.59,672.26 988.33,679.11 1026.29,690.07 1034.13,692.34 1053.29,698.76 1084.83,707.16 1087.61,707.68" fill="none" stroke="#bcbcbc" stroke-width="8" stroke-linecap="round" stroke-linejoin="round" /><polyline points="844.10,907.51 837.63,909.13 830.63,928.63 819.79,925.54 770.46,908.73 764.52,907.47 751.32,906.52 691.59,906.76 678.42,905.08 648.68,900.54 636.69,898.59 551.61,884.87 518.67,879.61 455.84,868.73 445.70,866.72 303.91,827.09 294.96,824.58 234.31,803.97 219.39,798.67 182.11,783.23 160.87,775.19" fill="none" stroke="#bcbcbc" stroke-width="8" stroke-linecap="round" stroke-linejoin="round" /><polyline points="974.04,-140.86 967.91,-142.12 885.96,-132.43 856.66,-129.99" fill="none" stroke="#bcbcbc" stroke-width="8" stroke-linecap="round" stroke-linejoin="round" /><polyline points="821.61,630.46 824.48,625.66 841.68,581.49 860.89,514.71 865.79,500.32 868.41,496.41 886.96,436.86 887.89,429.75 888.59,425.11" fill="none" stroke="#bcbcbc" stroke-width="8" stroke-linecap="round" stroke-linejoin="round" /><polyline points="906.06,-14.64 908.02,-15.39 910.67,-17.50 914.70,-22.21 967.03,-97.29 980.97,-117.15" fill="none" stroke="#bcbcbc" stroke-width="8" stroke-linecap="round" stroke-linejoin="round" /><polyline points="1138.94,261.16 1140.01,258.08 1166.32,227.13 1168.25,226.10 1172.82,219.85 1188.12,202.28 1192.88,197.90" fill="none" stroke="#bcbcbc" stroke-width="8" stroke-linecap="round" stroke-linejoin="round" /><polyline points="1161.93,490.80 1161.56,486.66 1161.28,483.46 1159.90,477.33 1158.24,473.34 1156.17,462.84 1155.99,459.04 1154.58,450.55 1148.32,447.27 1143.32,449.19 1134.36,451.33 1127.28,452.44 1120.48,454.08 1111.09,456.22 1106.81,457.20" fill="none" stroke="#bcbcbc" stroke-width="8" stroke-linecap="round" stroke-linejoin="round" /><polyline points="470.89,338.83 490.02,293.99 491.09,291.07" fill="none" stroke="#bcbcbc" stroke-width="8" stroke-linecap="round" stroke-linejoin="round" /><polyline points="975.02,256.60 984.24,253.03 989.06,251.17 992.79,247.39 1008.16,243.60 1013.32,244.92 1024.44,242.05 1032.93,239.86 1034.95,238.74 1043.18,236.72 1085.26,226.41 1094.79,223.56" fill="none" stroke="#bcbcbc" stroke-width="8" stroke-linecap="round" stroke-linejoin="round" /><polyline points="586.90,636.33 606.75,629.13 613.39,627.10 620.07,625.05 632.41,621.29 642.00,619.91 674.78,616.32 681.36,615.96 710.69,616.21 728.55,616.37 735.27,616.02 746.03,617.11 749.39,617.59 756.25,618.57 776.97,623.12" fill="none" stroke="#bcbcbc" stroke-width="8" stroke-linecap="round" stroke-linejoin="round" /><polyline points="681.47,47.04 678.18,35.93 665.97,-5.37 651.14,-52.46 648.07,-60.86 644.96,-68.74 641.03,-80.09" fill="none" stroke="#bcbcbc" stroke-width="8" stroke-linecap="round" stroke-linejoin="round" /><polyline points="645.95,712.89 648.56,704.65 674.94,621.44 674.78,616.32" fill="none" stroke="#bcbcbc" stroke-width="8" stroke-linecap="round" stroke-linejoin="round" /><polyline points="681.36,615.96 686.59,545.90 687.11,540.19 687.91,533.54 687.92,533.24 688.27,525.11 690.01,503.06 690.99,492.79 692.34,481.12 693.56,472.72 694.66,467.45 696.04,463.46 698.76,454.47 704.36,435.77 711.49,411.62 719.35,386.93 720.95,381.89 722.24,378.24" fill="none" stroke="#bcbcbc" stroke-width="8" stroke-linecap="round" stroke-linejoin="round" /><polyline points="510.67,471.68 509.28,477.89 509.52,479.88 518.04,550.75 518.94,558.26 518.55,565.98 516.32,610.06 515.39,628.48 514.91,637.97 514.05,654.91 513.60,663.72 512.64,667.22" fill="none" stroke="#bcbcbc" stroke-width="8" stroke-linecap="round" stroke-linejoin="round" /><polyline points="470.89,338.83 439.94,329.63 436.01,327.11 416.75,321.49 411.33,321.55 387.13,314.26 383.22,311.37 361.20,304.70 334.17,297.33 334.04,297.32 329.56,296.94" fill="none" stroke="#bcbcbc" stroke-width="8" stroke-linecap="round" stroke-linejoin="round" /><polyline points="1034.95,238.74 1036.02,240.15 1040.51,246.84 1048.81,259.20 1056.62,267.03 1071.63,283.88 1069.10,299.46 1067.81,305.30 1066.02,307.77 1069.78,313.34 1075.60,325.32 1087.24,347.77 1092.97,358.83 1096.54,368.77 1098.15,373.38" fill="none" stroke="#bcbcbc" stroke-width="8" stroke-linecap="round" stroke-linejoin="round" /><polyline points="1113.34,270.82 1109.02,272.16 1080.60,281.00 1076.52,282.31 1071.63,283.88" fill="none" stroke="#bcbcbc" stroke-width="8" stroke-linecap="round" stroke-linejoin="round" /><polyline points="909.09,324.66 917.98,321.78 982.49,288.83 991.13,284.61 1021.53,275.83 1051.02,267.54 1056.62,267.03" fill="none" stroke="#bcbcbc" stroke-width="8" stroke-linecap="round" stroke-linejoin="round" /><polyline points="916.12,365.44 990.49,330.83 993.63,328.76 1000.90,326.64 1050.46,312.22 1057.98,309.34 1066.02,307.77" fill="none" stroke="#bcbcbc" stroke-width="8" stroke-linecap="round" stroke-linejoin="round" /><polyline points="900.94,-360.19 931.05,-356.47 934.07,-356.09 945.75,-353.23" fill="none" stroke="#bcbcbc" stroke-width="8" stroke-linecap="round" stroke-linejoin="round" /><polyline points="1158.23,-54.08 1163.57,-55.20 1183.52,-45.42 1186.15,-42.82 1223.60,20.58 1224.59,28.27 1229.46,32.32 1228.68,35.13 1228.56,39.70 1229.24,46.08 1239.16,86.85 1240.04,115.08 1241.43,160.17 1243.76,220.85 1234.26,247.29 1228.14,263.41 1219.21,286.12 1216.62,292.69 1214.94,294.53 1212.24,312.11" fill="none" stroke="#bcbcbc" stroke-width="8" stroke-linecap="round" stroke-linejoin="round" /><polyline points="1227.47,419.19 1218.36,415.23 1195.60,399.34 1165.57,378.24 1149.06,364.89 1137.91,352.95" fill="none" stroke="#bcbcbc" stroke-width="8" stroke-linecap="round" stroke-linejoin="round" /><polyline points="858.96,774.47 850.01,771.63 835.50,767.03 828.57,764.83 820.43,762.25 810.15,758.99 800.86,756.05 791.67,753.13 750.69,740.13 743.52,737.85 734.61,735.03 732.64,734.41 709.20,728.22 702.59,726.62 694.29,724.61 685.61,722.50 654.34,714.92 645.95,712.89 636.94,709.76 618.10,703.22 611.01,700.75 604.66,698.69 575.17,688.21 571.46,685.99 569.67,682.14" fill="none" stroke="#bcbcbc" stroke-width="8" stroke-linecap="round" stroke-linejoin="round" /><polyline points="993.63,328.76 991.45,320.97 984.98,297.76 982.49,288.83 978.89,282.16 978.56,280.92 976.44,273.07 978.91,269.59 975.94,259.68 975.02,256.60" fill="none" stroke="#bcbcbc" stroke-width="8" stroke-linecap="round" stroke-linejoin="round" /><polyline points="982.80,44.71 988.96,41.81 1022.58,23.27 1041.80,10.91 1055.36,1.66 1058.35,-0.57 1069.26,-8.15 1080.57,-16.50 1087.73,-21.71 1096.26,-27.95 1125.92,-41.34 1129.77,-41.13 1135.39,-43.79 1158.23,-54.08" fill="none" stroke="#bcbcbc" stroke-width="8" stroke-linecap="round" stroke-linejoin="round" /><polyline points="610.11,171.09 614.96,173.05 618.16,174.04 678.29,192.51 687.48,195.33" fill="none" stroke="#bcbcbc" stroke-width="8" stroke-linecap="round" stroke-linejoin="round" /><polyline points="180.60,306.31 137.64,293.31" fill="none" stroke="#bcbcbc" stroke-width="8" stroke-linecap="round" stroke-linejoin="round" /><polyline points="874.54,-299.51 885.19,-286.02 886.78,-284.00 892.15,-277.19 898.28,-276.47 910.88,-274.99 913.12,-273.45" fill="none" stroke="#bcbcbc" stroke-width="8" stroke-linecap="round" stroke-linejoin="round" /><polyline points="1244.41,300.65 1227.53,303.80 1210.22,313.20 1194.18,322.13 1179.01,329.72 1160.67,339.68 1147.40,347.74 1121.16,361.80 1018.74,413.33 992.19,425.03 974.65,432.61 965.95,435.46 958.76,436.80 946.99,437.51 930.23,435.14 888.43,425.11 829.08,411.28 751.00,387.73 722.24,378.24 675.14,363.70 630.09,348.84 564.03,322.92 530.99,308.70 491.16,291.00 425.10,254.80 409.61,244.53 370.41,219.87 353.98,203.43 329.32,171.51 288.70,129.62 272.74,115.56" fill="none" stroke="#bcbcbc" stroke-width="8" stroke-linecap="round" stroke-linejoin="round" /><polyline points="924.16,795.08 924.85,791.22 927.35,784.91 950.78,730.09 959.63,709.54 970.06,683.94 972.60,674.57" fill="none" stroke="#bcbcbc" stroke-width="8" stroke-linecap="round" stroke-linejoin="round" /><polyline points="474.72,563.63 448.11,550.75 387.55,521.44 313.27,485.49 306.64,482.28" fill="none" stroke="#bcbcbc" stroke-width="8" stroke-linecap="round" stroke-linejoin="round" /><polyline points="912.10,139.39 918.82,132.51 936.69,114.22 950.87,98.73" fill="none" stroke="#bcbcbc" stroke-width="8" stroke-linecap="round" stroke-linejoin="round" /><polyline points="396.16,180.14 388.77,170.37 354.18,124.56 304.80,84.60" fill="none" stroke="#bcbcbc" stroke-width="8" stroke-linecap="round" stroke-linejoin="round" /><polyline points="181.85,783.12 188.60,767.10 210.07,713.57 212.68,706.54 215.56,698.75 216.66,695.94 216.95,691.53 219.70,649.91 220.49,637.98" fill="none" stroke="#bcbcbc" stroke-width="8" stroke-linecap="round" stroke-linejoin="round" /><polyline points="200.48,237.40 227.60,244.33 285.05,259.10 317.79,269.29 331.44,272.49" fill="none" stroke="#bcbcbc" stroke-width="8" stroke-linecap="round" stroke-linejoin="round" /><polyline points="758.77,26.45 759.70,20.80 760.62,14.94 764.60,-4.66 774.54,-50.29 782.71,-91.11 784.20,-99.57 786.23,-111.07 786.23,-111.08" fill="none" stroke="#bcbcbc" stroke-width="8" stroke-linecap="round" stroke-linejoin="round" /><polyline points="678.47,905.09 690.58,874.20 692.08,868.65 740.14,746.66 743.52,737.85 746.25,730.39 774.97,646.84 780.50,642.01" fill="none" stroke="#bcbcbc" stroke-width="8" stroke-linecap="round" stroke-linejoin="round" /><polyline points="843.21,2.83 843.20,2.82 841.50,-6.12 841.23,-7.20 837.08,-24.09 837.09,-24.14 834.25,-35.59 822.26,-76.69 820.75,-81.09 812.65,-103.11 810.02,-109.68 808.32,-113.92 806.12,-118.74 806.11,-118.74 806.11,-118.76 804.51,-136.47 804.35,-145.16" fill="none" stroke="#bcbcbc" stroke-width="8" stroke-linecap="round" stroke-linejoin="round" /><polyline points="825.23,700.17 822.15,703.50 817.55,708.97 804.60,745.48 800.86,756.05" fill="none" stroke="#bcbcbc" stroke-width="8" stroke-linecap="round" stroke-linejoin="round" /><polyline points="610.11,171.09 611.88,166.29 612.27,165.18 620.68,141.69 623.84,131.80 649.61,56.03" fill="none" stroke="#bcbcbc" stroke-width="8" stroke-linecap="round" stroke-linejoin="round" /><polyline points="743.41,277.32 746.04,270.33 753.16,251.42 756.17,243.42 758.21,238.01 763.92,222.83 767.70,212.80 768.21,211.45 777.35,187.16 781.17,188.35 783.25,182.71 786.91,172.73 786.21,168.20 795.94,141.71 796.94,138.99 798.78,137.30 800.33,135.87 810.09,109.20 811.50,101.90 825.50,63.01 828.81,60.42 835.54,41.37 834.34,38.45 840.24,20.65 837.18,4.77" fill="none" stroke="#bcbcbc" stroke-width="8" stroke-linecap="round" stroke-linejoin="round" /><polyline points="993.80,-446.09 989.87,-452.52 969.26,-486.33" fill="none" stroke="#bcbcbc" stroke-width="8" stroke-linecap="round" stroke-linejoin="round" /><polyline points="1058.35,-0.57 1152.93,60.25 1152.96,60.29 1152.96,60.30 1170.45,62.57" fill="none" stroke="#bcbcbc" stroke-width="8" stroke-linecap="round" stroke-linejoin="round" /><polyline points="1020.42,-127.62 1121.05,-77.10 1124.09,-74.84 1123.88,-58.30 1125.92,-41.34" fill="none" stroke="#bcbcbc" stroke-width="8" stroke-linecap="round" stroke-linejoin="round" /><polyline points="828.57,764.83 824.95,775.88 810.29,820.59 785.35,895.90 783.58,901.24 781.78,906.66 781.28,912.42" fill="none" stroke="#bcbcbc" stroke-width="8" stroke-linecap="round" stroke-linejoin="round" /><polyline points="1111.85,493.19 1112.46,487.58 1112.59,482.34 1112.54,482.16 1108.98,466.75 1107.52,460.30 1106.81,457.20 1106.09,454.02 1102.18,436.78 1094.53,402.32 1088.97,381.60 1088.18,378.40" fill="none" stroke="#bcbcbc" stroke-width="8" stroke-linecap="round" stroke-linejoin="round" /><polyline points="612.25,808.66 614.75,801.57 642.77,721.93 645.95,712.89" fill="none" stroke="#bcbcbc" stroke-width="8" stroke-linecap="round" stroke-linejoin="round" /><polyline points="1241.43,160.17 1233.18,157.84 1177.19,71.93 1170.45,62.57" fill="none" stroke="#bcbcbc" stroke-width="8" stroke-linecap="round" stroke-linejoin="round" /><polyline points="321.06,366.30 525.10,415.19 539.17,420.33" fill="none" stroke="#bcbcbc" stroke-width="8" stroke-linecap="round" stroke-linejoin="round" /><polyline points="964.62,-397.54 1044.10,-368.09 1055.29,-370.00" fill="none" stroke="#bcbcbc" stroke-width="8" stroke-linecap="round" stroke-linejoin="round" />
    <polyline points="167.20,352.80 180.60,306.31 198.29,244.99 200.48,237.40 202.91,228.78 208.36,209.47 208.94,207.44 210.50,201.23 212.99,194.21 213.59,192.51 216.73,184.72 222.90,171.11 224.75,167.20" fill="none" stroke="#ffffff" stroke-width="16" stroke-linecap="round" stroke-linejoin="round" />
    <polyline points="167.20,352.80 180.60,306.31 198.29,244.99 200.48,237.40 202.91,228.78 208.36,209.47 208.94,207.44 210.50,201.23 212.99,194.21 213.59,192.51 216.73,184.72 222.90,171.11 224.75,167.20" fill="none" stroke="#111111" stroke-width="9" stroke-linecap="round" stroke-linejoin="round" />
    
            <g transform="translate(167.20,352.80)">
              <circle r="19" fill="#ffffff" stroke="#111111" stroke-width="4" />
              <text text-anchor="middle" dominant-baseline="central" font-family="Helvetica, Arial, sans-serif"
                font-size="18" font-weight="700" fill="#111111">1</text>
            </g>
            
            <g transform="translate(224.75,167.20)">
              <circle r="19" fill="#ffffff" stroke="#111111" stroke-width="4" />
              <text text-anchor="middle" dominant-baseline="central" font-family="Helvetica, Arial, sans-serif"
                font-size="18" font-weight="700" fill="#111111">2</text>
            </g>
            
  </g>
</svg>
