<svg xmlns="http://www.w3.org/2000/svg" width="520" height="520" viewBox="0 0 520 520">
  <rect width="100%" height="100%" fill="#ffffff" />
  <g>
    <polyline points="1524.54,-110.02 1527.22,-95.78 1544.49,25.09 1541.85,55.31" fill="none" stroke="#bcbcbc" stroke-width="8" stroke-linecap="round" stroke-linejoin="round" /><polyline points="1173.36,897.19 1177.54,884.35 1199.67,816.28 1202.28,808.26 1204.92,799.84 1260.57,622.37 1265.05,608.10 1254.80,582.85" fill="none" stroke="#bcbcbc" stroke-width="8" stroke-linecap="round" stroke-linejoin="round" /><polyline points="788.95,739.34 788.05,729.15 806.25,627.25 808.80,614.50 810.71,607.83 815.71,581.98 821.34,550.35 827.48,522.50 833.56,494.70 837.39,486.86 839.89,482.06" fill="none" stroke="#bcbcbc" stroke-width="8" stroke-linecap="round" stroke-linejoin="round" /><polyline points="894.56,20.53 890.24,7.34 845.52,-129.03 843.34,-134.74" fill="none" stroke="#bcbcbc" stroke-width="8" stroke-linecap="round" stroke-linejoin="round" /><polyline points="665.14,1220.71 666.47,1207.70 667.01,1201.73 671.88,1147.88 677.21,1100.47 678.45,1089.40 679.61,1076.12 679.74,1075.01 682.76,1048.60 685.36,1021.76 688.23,995.86 690.16,975.70 690.97,963.25 691.68,951.76 692.95,938.81" fill="none" stroke="#bcbcbc" stroke-width="8" stroke-linecap="round" stroke-linejoin="round" /><polyline points="1282.94,928.83 1286.13,918.82 1308.57,848.29 1311.11,840.28 1314.74,828.86 1317.33,820.68 1337.19,735.03" fill="none" stroke="#bcbcbc" stroke-width="8" stroke-linecap="round" stroke-linejoin="round" /><polyline points="1195.73,-466.29 1204.01,-465.02 1432.33,-429.94" fill="none" stroke="#bcbcbc" stroke-width="8" stroke-linecap="round" stroke-linejoin="round" /><polyline points="609.59,912.21 585.83,911.11 571.34,910.43 563.47,910.07 556.56,909.75 502.75,907.24 427.90,903.76 392.22,898.70 380.28,897.01 369.92,895.18 299.75,882.80 289.94,881.06 287.77,880.69 275.65,878.62 266.34,877.02 206.88,871.76 195.56,870.76 191.40,870.40 178.55,869.50 153.38,867.76" fill="none" stroke="#bcbcbc" stroke-width="8" stroke-linecap="round" stroke-linejoin="round" /><polyline points="954.85,843.27 959.45,830.17 1000.93,715.18 1050.83,570.15 1054.03,561.06 1056.25,554.70 1058.06,549.49" fill="none" stroke="#bcbcbc" stroke-width="8" stroke-linecap="round" stroke-linejoin="round" /><polyline points="191.40,870.40 190.34,863.00 190.09,854.97 191.67,838.80 195.28,809.28 197.69,799.37 201.60,763.54 202.31,755.56 203.45,745.30 204.30,737.68 205.91,729.05 208.88,705.81 210.94,688.03 213.97,680.76" fill="none" stroke="#bcbcbc" stroke-width="8" stroke-linecap="round" stroke-linejoin="round" /><polyline points="148.95,671.68 204.27,679.40 213.97,680.76 219.98,681.72 244.78,685.67 301.92,694.77 311.72,696.41" fill="none" stroke="#bcbcbc" stroke-width="8" stroke-linecap="round" stroke-linejoin="round" /><polyline points="1167.16,-54.12 1167.52,-49.09 1168.26,-44.00 1170.06,-40.10 1173.42,-35.75 1179.64,-30.09 1194.39,-21.12 1308.14,50.25 1378.20,144.18 1431.12,274.78 1434.57,283.40" fill="none" stroke="#bcbcbc" stroke-width="8" stroke-linecap="round" stroke-linejoin="round" /><polyline points="1148.94,326.94 1151.30,330.84 1151.91,331.86 1153.86,341.71 1167.21,406.25 1171.45,426.73 1174.48,441.32 1179.20,470.89 1181.41,484.53 1182.93,492.85 1184.60,500.36 1186.59,504.75 1189.51,509.82 1191.07,512.22 1220.63,554.53 1236.62,579.71 1240.79,585.73" fill="none" stroke="#bcbcbc" stroke-width="8" stroke-linecap="round" stroke-linejoin="round" /><polyline points="300.42,1135.03 302.00,1125.35 303.46,1118.34 303.85,1117.41 323.52,1070.64 336.06,1040.24 339.87,1030.60 343.90,1020.40 348.28,1011.63 348.99,1009.91 354.99,995.41 359.63,982.59 363.61,970.82 366.13,962.50 368.96,952.22 372.22,938.44 374.70,927.26 377.66,911.65 378.29,908.17 380.28,897.01" fill="none" stroke="#bcbcbc" stroke-width="8" stroke-linecap="round" stroke-linejoin="round" /><polyline points="1253.56,-171.25 1316.29,-127.42 1324.74,-125.63 1330.93,-118.55" fill="none" stroke="#bcbcbc" stroke-width="8" stroke-linecap="round" stroke-linejoin="round" /><polyline points="990.17,233.55 998.46,236.74 1034.45,248.51 1117.94,280.53 1122.62,285.20 1124.82,288.69" fill="none" stroke="#bcbcbc" stroke-width="8" stroke-linecap="round" stroke-linejoin="round" /><polyline points="1145.74,1056.28 1151.43,1041.47 1179.50,965.32 1199.34,907.79 1203.46,905.89" fill="none" stroke="#bcbcbc" stroke-width="8" stroke-linecap="round" stroke-linejoin="round" /><polyline points="749.00,959.73 753.43,949.94 753.87,948.97 761.45,923.55 773.86,881.71 777.04,871.01 779.51,862.69 779.84,857.84 779.33,847.11" fill="none" stroke="#bcbcbc" stroke-width="8" stroke-linecap="round" stroke-linejoin="round" /><polyline points="1264.89,330.28 1257.77,331.75 1241.64,328.88 1239.15,322.23 1211.21,311.58 1204.60,313.30 1179.39,304.05 1175.63,306.68" fill="none" stroke="#bcbcbc" stroke-width="8" stroke-linecap="round" stroke-linejoin="round" /><polyline points="1223.40,-533.97 1236.06,-530.87 1243.06,-529.65 1409.62,-500.77" fill="none" stroke="#bcbcbc" stroke-width="8" stroke-linecap="round" stroke-linejoin="round" /><polyline points="1093.95,1009.91 1100.88,990.38 1114.34,952.42 1123.04,936.25 1135.56,901.20 1140.56,887.20" fill="none" stroke="#bcbcbc" stroke-width="8" stroke-linecap="round" stroke-linejoin="round" /><polyline points="181.40,251.81 169.33,251.26 166.31,254.93 145.29,280.47 71.83,365.32 61.50,377.26" fill="none" stroke="#bcbcbc" stroke-width="8" stroke-linecap="round" stroke-linejoin="round" /><polyline points="825.76,324.49 820.44,336.28 819.80,337.71 801.29,385.95 782.65,439.06 777.67,453.22 774.85,460.54" fill="none" stroke="#bcbcbc" stroke-width="8" stroke-linecap="round" stroke-linejoin="round" /><polyline points="1097.15,-217.60 1103.02,-209.62 1107.22,-198.66 1113.75,-182.92 1124.23,-158.16 1133.52,-135.94 1144.17,-111.54 1152.07,-92.74 1153.24,-90.04 1153.32,-89.87 1159.68,-75.00 1161.58,-70.77 1163.39,-66.75 1165.30,-62.98 1166.74,-59.15 1167.16,-54.12" fill="none" stroke="#bcbcbc" stroke-width="8" stroke-linecap="round" stroke-linejoin="round" /><polyline points="647.20,562.31 650.27,560.63 654.58,557.21 656.73,552.77 685.31,444.39 686.18,438.28 689.66,427.11" fill="none" stroke="#bcbcbc" stroke-width="8" stroke-linecap="round" stroke-linejoin="round" /><polyline points="1646.67,392.70 1650.72,405.57 1653.58,419.09 1648.02,470.61 1641.60,509.36 1638.09,522.58 1637.77,523.77 1634.70,530.91 1630.52,538.47 1620.74,550.84 1625.47,575.02 1610.15,626.93 1601.69,655.60 1584.39,702.52 1559.05,759.65 1528.11,814.40 1518.44,832.20 1500.97,861.43 1431.17,960.50 1415.88,981.11 1356.66,1058.50 1322.66,1097.18 1275.10,1145.51 1270.70,1145.97 1259.96,1154.75" fill="none" stroke="#bcbcbc" stroke-width="8" stroke-linecap="round" stroke-linejoin="round" /><polyline points="785.40,1240.10 804.88,1179.68 808.07,1169.70 812.40,1163.41 821.70,1135.48 824.73,1126.00 863.17,1005.64 867.04,993.54 870.23,982.90 915.59,840.14" fill="none" stroke="#bcbcbc" stroke-width="8" stroke-linecap="round" stroke-linejoin="round" /><polyline points="1241.84,116.28 1258.69,97.88 1263.65,91.89 1297.69,43.69" fill="none" stroke="#bcbcbc" stroke-width="8" stroke-linecap="round" stroke-linejoin="round" /><polyline points="905.18,123.58 951.57,139.72 954.13,143.89 967.30,148.30 975.12,150.98 1012.50,163.61" fill="none" stroke="#bcbcbc" stroke-width="8" stroke-linecap="round" stroke-linejoin="round" /><polyline points="1309.47,-197.41 1330.93,-118.55 1355.76,-25.65 1359.53,-17.91 1360.13,-9.07 1376.97,22.37 1422.42,107.13 1432.35,121.79 1435.23,126.08 1503.14,253.04 1534.35,281.41 1538.73,287.06 1544.90,292.34 1604.16,343.01 1608.18,346.44 1618.82,352.09" fill="none" stroke="#bcbcbc" stroke-width="8" stroke-linecap="round" stroke-linejoin="round" /><polyline points="1079.01,1252.93 1226.80,1167.09 1253.10,1153.64 1259.96,1154.75" fill="none" stroke="#bcbcbc" stroke-width="8" stroke-linecap="round" stroke-linejoin="round" /><polyline points="1239.24,1130.12 1248.41,1119.22 1330.73,954.97 1336.18,944.20 1340.74,933.54 1367.33,867.79 1375.24,847.98 1398.16,778.62 1413.02,689.45 1414.78,676.47" fill="none" stroke="#bcbcbc" stroke-width="8" stroke-linecap="round" stroke-linejoin="round" /><polyline points="1175.72,164.17 1174.27,165.64 1172.29,172.55 1172.09,173.24 1163.16,207.64 1165.51,216.62 1163.56,224.67 1161.01,235.21 1154.47,242.78 1147.05,272.83 1138.31,279.44 1128.98,285.83 1124.82,288.69" fill="none" stroke="#bcbcbc" stroke-width="8" stroke-linecap="round" stroke-linejoin="round" /><polyline points="825.76,324.49 829.56,314.75 852.40,256.21 857.38,243.44 861.48,232.93 890.66,158.17 903.80,126.91 905.18,123.58 915.39,98.89 938.30,42.01 946.69,17.79 948.56,12.24 951.07,5.94" fill="none" stroke="#bcbcbc" stroke-width="8" stroke-linecap="round" stroke-linejoin="round" /><polyline points="1081.31,-30.39 1085.73,-17.25 1230.66,106.55 1309.74,175.36 1427.87,278.04 1438.18,286.29 1442.80,289.18 1463.29,307.78 1490.67,331.13 1552.75,384.07 1572.81,401.32 1586.12,417.23" fill="none" stroke="#bcbcbc" stroke-width="8" stroke-linecap="round" stroke-linejoin="round" /><polyline points="1320.94,-243.71 1328.29,-248.42 1371.84,-266.52 1380.79,-275.93" fill="none" stroke="#bcbcbc" stroke-width="8" stroke-linecap="round" stroke-linejoin="round" /><polyline points="1371.24,858.00 1311.11,840.28 1202.28,808.26" fill="none" stroke="#bcbcbc" stroke-width="8" stroke-linecap="round" stroke-linejoin="round" /><polyline points="1177.16,-420.90 1185.37,-415.24 1452.99,-355.69" fill="none" stroke="#bcbcbc" stroke-width="8" stroke-linecap="round" stroke-linejoin="round" /><polyline points="1507.73,460.22 1493.90,429.44 1463.20,356.24 1460.91,350.42 1455.66,337.06 1435.88,286.72 1434.63,283.45" fill="none" stroke="#bcbcbc" stroke-width="8" stroke-linecap="round" stroke-linejoin="round" /><polyline points="1097.15,-217.60 1082.29,-221.82 1071.37,-225.07 1049.18,-231.66 1037.91,-234.88 1031.45,-236.67 1023.01,-239.09" fill="none" stroke="#bcbcbc" stroke-width="8" stroke-linecap="round" stroke-linejoin="round" /><polyline points="709.75,185.03 709.00,182.57 708.31,180.85 705.25,173.24 693.38,145.59 682.11,117.49 679.68,110.86 676.87,103.22 674.86,96.97 671.55,87.60 671.20,86.61 660.42,60.03 640.61,10.06 636.17,7.53 633.00,-0.58 626.69,-22.52 615.87,-49.72 613.54,-55.90" fill="none" stroke="#bcbcbc" stroke-width="8" stroke-linecap="round" stroke-linejoin="round" /><polyline points="804.88,1179.68 816.13,1183.12 852.51,1194.21 863.91,1197.68" fill="none" stroke="#bcbcbc" stroke-width="8" stroke-linecap="round" stroke-linejoin="round" /><polyline points="1484.35,-230.62 1486.47,-239.19 1485.61,-242.45 1484.57,-246.38 1477.92,-270.71 1463.11,-322.17 1455.30,-348.47 1452.99,-355.69 1432.33,-429.94 1421.18,-469.98 1409.62,-500.77 1399.17,-528.55 1388.76,-547.65 1378.65,-557.74 1301.04,-652.58 1295.30,-659.33 1291.50,-665.57" fill="none" stroke="#bcbcbc" stroke-width="8" stroke-linecap="round" stroke-linejoin="round" /><polyline points="1167.16,-54.12 1163.15,-52.59 1155.75,-50.55 1155.01,-50.35 1124.10,-42.44 1088.56,-32.43 1081.31,-30.39 1078.08,-29.37 1069.54,-26.62 1062.24,-24.59 1030.37,-15.72 977.96,-0.83 958.42,4.11 951.07,5.94 916.14,14.52 894.56,20.53 848.87,33.30 803.71,46.02 798.48,47.47 760.74,57.95 743.33,62.78 734.53,66.94 717.89,75.19 684.84,91.96 682.54,93.13 674.86,96.97 670.18,99.31 663.65,102.74 640.43,114.91 598.12,138.65 562.78,157.17 557.72,159.82 550.97,160.24 546.91,162.39 546.10,162.82 507.76,183.84 499.73,183.80 490.51,188.62 487.29,190.31 484.57,191.73 478.17,195.08 473.12,206.60 451.41,218.22 444.51,221.92 437.05,225.98 406.86,242.41 391.25,250.91 383.38,253.17" fill="none" stroke="#bcbcbc" stroke-width="8" stroke-linecap="round" stroke-linejoin="round" /><polyline points="1601.69,655.60 1585.58,657.07 1535.25,661.68 1532.98,661.89 1529.78,662.19 1524.58,662.66 1475.78,667.14 1458.81,665.57 1439.05,670.52 1423.22,674.40 1414.78,676.47 1393.83,677.26 1375.70,676.34 1366.46,675.36 1358.59,672.98 1352.79,669.78 1331.22,654.52 1278.79,618.51 1273.85,615.16 1268.81,611.74 1265.05,608.10" fill="none" stroke="#bcbcbc" stroke-width="8" stroke-linecap="round" stroke-linejoin="round" /><polyline points="414.25,47.65 433.27,84.90 436.15,95.54 452.18,126.12 458.80,134.86 485.58,186.98 487.29,190.31" fill="none" stroke="#bcbcbc" stroke-width="8" stroke-linecap="round" stroke-linejoin="round" /><polyline points="997.23,378.86 994.38,386.69 993.58,389.12 989.87,400.39 966.33,466.05 954.65,498.66 954.25,499.77 949.56,509.91 946.87,515.93" fill="none" stroke="#bcbcbc" stroke-width="8" stroke-linecap="round" stroke-linejoin="round" /><polyline points="1309.47,-197.41 1306.86,-203.00 1300.01,-203.90 1277.82,-198.81 1273.31,-199.40 1269.78,-204.13 1263.50,-233.00 1297.50,-238.26 1313.24,-242.91 1320.94,-243.71 1329.23,-214.23" fill="none" stroke="#bcbcbc" stroke-width="8" stroke-linecap="round" stroke-linejoin="round" /><polyline points="1432.35,121.79 1441.11,116.87 1485.10,90.36 1496.86,83.36 1517.44,71.09 1551.29,49.20 1559.19,43.52 1618.58,6.68" fill="none" stroke="#bcbcbc" stroke-width="8" stroke-linecap="round" stroke-linejoin="round" /><polyline points="1639.93,295.79 1624.92,291.32 1616.19,284.16 1582.84,255.29 1581.70,254.28 1573.64,247.08 1568.90,238.68 1485.10,90.36" fill="none" stroke="#bcbcbc" stroke-width="8" stroke-linecap="round" stroke-linejoin="round" /><polyline points="694.29,284.04 825.76,324.49 836.49,327.89 934.60,358.99 936.65,359.64 951.35,364.30 958.57,366.59 967.96,369.16 987.33,375.72 997.23,378.86 1006.15,381.69 1079.16,404.85 1156.24,429.06 1162.61,431.07 1171.45,426.73" fill="none" stroke="#bcbcbc" stroke-width="8" stroke-linecap="round" stroke-linejoin="round" /><polyline points="1080.86,-365.02 1137.81,-417.35 1147.45,-426.21" fill="none" stroke="#bcbcbc" stroke-width="8" stroke-linecap="round" stroke-linejoin="round" /><polyline points="127.22,479.34 336.19,501.73" fill="none" stroke="#bcbcbc" stroke-width="8" stroke-linecap="round" stroke-linejoin="round" /><polyline points="757.61,-103.92 801.53,-119.63 846.84,-136.01 874.99,-146.95 960.93,-178.21 985.87,-186.84 991.08,-188.64 997.33,-190.78 1004.34,-193.20 1005.20,-193.49 1019.36,-199.18 1025.51,-201.66" fill="none" stroke="#bcbcbc" stroke-width="8" stroke-linecap="round" stroke-linejoin="round" /><polyline points="1052.60,958.90 1093.95,1009.91 1119.27,1035.40 1130.23,1043.29 1145.74,1056.28 1160.31,1068.52 1172.83,1080.73 1173.14,1086.94" fill="none" stroke="#bcbcbc" stroke-width="8" stroke-linecap="round" stroke-linejoin="round" /><polyline points="1097.15,-217.60 1113.35,-258.21 1139.58,-325.09 1177.16,-420.90 1195.73,-466.29 1223.40,-533.97 1246.09,-589.41 1250.15,-596.76 1270.10,-629.39 1271.39,-631.49 1278.69,-645.85 1291.50,-665.57 1298.65,-676.57 1308.76,-692.14" fill="none" stroke="#bcbcbc" stroke-width="8" stroke-linecap="round" stroke-linejoin="round" /><polyline points="714.84,868.44 712.18,870.56 710.43,873.09 706.85,883.63 704.39,891.24 692.97,925.38 691.40,930.30 690.42,933.36 679.94,930.35 654.42,921.80 629.14,913.32 609.59,912.21" fill="none" stroke="#bcbcbc" stroke-width="8" stroke-linecap="round" stroke-linejoin="round" /><polyline points="215.15,1106.01 256.81,998.40 261.45,986.68 265.61,975.40 270.64,961.77 276.80,940.32 283.22,913.67 285.85,894.57 287.77,880.69 290.46,870.45 300.27,793.51 311.72,696.41 317.65,650.12 324.27,595.73 336.19,501.73 338.08,485.75 350.13,387.44 350.14,381.97 352.80,352.80 360.49,291.19 362.41,280.44 364.42,274.41 367.56,267.77 370.62,262.62 377.36,255.32 383.39,253.25" fill="none" stroke="#bcbcbc" stroke-width="8" stroke-linecap="round" stroke-linejoin="round" /><polyline points="1124.82,288.69 1127.10,292.30 1134.74,304.23 1146.18,322.57 1148.94,326.94 1153.50,323.48 1175.63,306.68" fill="none" stroke="#bcbcbc" stroke-width="8" stroke-linecap="round" stroke-linejoin="round" /><polyline points="1139.58,-325.09 1364.72,-284.39 1388.37,-271.94 1476.58,-228.22 1484.35,-230.62" fill="none" stroke="#bcbcbc" stroke-width="8" stroke-linecap="round" stroke-linejoin="round" /><polyline points="709.75,185.03 705.76,190.86 669.84,208.39 643.46,241.92 614.99,259.55 595.52,274.25 576.95,289.40 567.42,298.08 550.60,319.42 531.80,346.38 528.70,351.37" fill="none" stroke="#bcbcbc" stroke-width="8" stroke-linecap="round" stroke-linejoin="round" /><polyline points="747.73,209.09 746.17,212.55 742.76,217.53 736.33,225.45 698.39,273.38 678.31,327.44 576.99,289.36" fill="none" stroke="#bcbcbc" stroke-width="8" stroke-linecap="round" stroke-linejoin="round" /><polyline points="595.52,274.25 591.60,262.37 574.65,211.04 568.07,200.90 557.05,167.84 556.10,164.99 557.72,159.82 555.08,151.39 502.10,-17.76" fill="none" stroke="#bcbcbc" stroke-width="8" stroke-linecap="round" stroke-linejoin="round" /><polyline points="1216.29,-648.72 1258.16,-647.62 1260.11,-647.56 1268.14,-647.34 1278.69,-645.85" fill="none" stroke="#bcbcbc" stroke-width="8" stroke-linecap="round" stroke-linejoin="round" /><polyline points="1000.93,715.18 986.64,715.01 865.58,731.26 856.86,732.18 846.88,733.23 788.95,739.34 710.91,747.59 669.54,751.95 646.65,754.37 628.07,756.62 618.53,757.79 607.78,759.09 555.86,765.40 543.41,766.91 505.07,771.11 300.27,793.51" fill="none" stroke="#bcbcbc" stroke-width="8" stroke-linecap="round" stroke-linejoin="round" /><polyline points="821.70,1135.48 810.98,1132.03 760.89,1115.91 750.77,1112.65 741.98,1109.82 688.91,1092.77 678.45,1089.40 664.61,1084.95 580.14,1057.77 570.63,1054.71" fill="none" stroke="#bcbcbc" stroke-width="8" stroke-linecap="round" stroke-linejoin="round" /><polyline points="1031.14,121.39 1060.28,130.47 1166.82,163.37 1167.82,163.67 1175.72,164.17" fill="none" stroke="#bcbcbc" stroke-width="8" stroke-linecap="round" stroke-linejoin="round" /><polyline points="1330.93,-118.55 1475.86,-116.00" fill="none" stroke="#bcbcbc" stroke-width="8" stroke-linecap="round" stroke-linejoin="round" /><polyline points="1259.96,1154.75 1239.24,1130.12 1230.55,1120.01 1223.08,1113.03 1213.14,1105.61 1192.81,1093.41 1173.14,1086.94 1133.13,1074.59 1100.40,1064.20 1119.27,1035.40" fill="none" stroke="#bcbcbc" stroke-width="8" stroke-linecap="round" stroke-linejoin="round" /><polyline points="1052.60,958.90 1023.75,923.29 1018.27,916.52 989.21,876.49 982.63,864.26 984.21,849.71 992.97,849.63 1014.58,853.79 1047.47,860.11" fill="none" stroke="#bcbcbc" stroke-width="8" stroke-linecap="round" stroke-linejoin="round" /><polyline points="675.21,673.60 680.53,685.04 710.91,747.59 756.09,840.59 761.85,852.45" fill="none" stroke="#bcbcbc" stroke-width="8" stroke-linecap="round" stroke-linejoin="round" /><polyline points="188.58,956.89 199.45,961.33 250.34,982.14 261.45,986.68 273.14,991.46 333.06,1015.97 343.90,1020.40" fill="none" stroke="#bcbcbc" stroke-width="8" stroke-linecap="round" stroke-linejoin="round" /><polyline points="700.21,580.86 806.25,627.25" fill="none" stroke="#bcbcbc" stroke-width="8" stroke-linecap="round" stroke-linejoin="round" /><polyline points="1175.72,164.17 1191.87,165.02 1192.90,165.93 1200.14,172.36 1210.79,181.87 1212.76,185.69 1249.47,217.84 1252.19,222.97 1278.00,245.75 1284.50,247.73 1304.58,265.32 1309.08,267.37 1339.36,293.06 1346.10,299.04 1349.82,304.96" fill="none" stroke="#bcbcbc" stroke-width="8" stroke-linecap="round" stroke-linejoin="round" /><polyline points="158.65,580.96 324.27,595.73" fill="none" stroke="#bcbcbc" stroke-width="8" stroke-linecap="round" stroke-linejoin="round" /><polyline points="528.44,1197.67 533.57,1186.75 534.89,1181.89 542.09,1155.37 568.14,1063.50 570.63,1054.71 573.27,1045.06 585.07,1001.90 605.00,929.01 609.59,912.21" fill="none" stroke="#bcbcbc" stroke-width="8" stroke-linecap="round" stroke-linejoin="round" /><polyline points="675.21,673.60 700.21,580.86 647.20,562.31 633.32,570.51 626.99,575.32 622.30,581.66 619.01,590.03 606.81,635.09 616.65,640.10 626.59,642.52 648.56,648.23 665.01,653.47 675.21,673.60" fill="none" stroke="#bcbcbc" stroke-width="8" stroke-linecap="round" stroke-linejoin="round" /><polyline points="606.81,635.09 595.20,633.48 324.27,595.73" fill="none" stroke="#bcbcbc" stroke-width="8" stroke-linecap="round" stroke-linejoin="round" /><polyline points="1047.47,860.11 1072.60,865.60 1140.56,887.20 1159.57,893.21 1204.67,906.24 1250.11,919.34 1283.75,929.07 1337.55,944.60 1348.66,947.81 1375.81,956.91 1420.51,968.82 1424.45,969.55" fill="none" stroke="#bcbcbc" stroke-width="8" stroke-linecap="round" stroke-linejoin="round" /><polyline points="1079.35,1252.74 1070.18,1255.04 1060.26,1282.67 1044.89,1278.31 974.99,1254.48 966.57,1252.69 947.85,1251.35 863.20,1251.69 844.54,1249.31 802.40,1242.86 785.40,1240.10 664.83,1220.66 618.14,1213.21 529.10,1197.79 514.73,1194.94 313.78,1138.77 301.10,1135.22 215.15,1106.01 194.00,1098.50 141.17,1076.61 111.06,1065.22" fill="none" stroke="#bcbcbc" stroke-width="8" stroke-linecap="round" stroke-linejoin="round" /><polyline points="1263.50,-233.00 1254.80,-234.79 1138.67,-221.06 1097.15,-217.60" fill="none" stroke="#bcbcbc" stroke-width="8" stroke-linecap="round" stroke-linejoin="round" /><polyline points="1047.47,860.11 1051.54,853.30 1075.91,790.71 1103.14,696.07 1110.09,675.68 1113.80,670.13 1140.09,585.75 1141.40,575.67 1142.39,569.08" fill="none" stroke="#bcbcbc" stroke-width="8" stroke-linecap="round" stroke-linejoin="round" /><polyline points="1167.16,-54.12 1169.93,-55.18 1173.69,-58.17 1179.41,-64.85 1253.56,-171.25 1273.31,-199.40" fill="none" stroke="#bcbcbc" stroke-width="8" stroke-linecap="round" stroke-linejoin="round" /><polyline points="1497.20,336.74 1498.72,332.37 1535.99,288.52 1538.73,287.06 1545.20,278.20 1566.89,253.29 1573.64,247.08" fill="none" stroke="#bcbcbc" stroke-width="8" stroke-linecap="round" stroke-linejoin="round" /><polyline points="1529.78,662.19 1529.26,656.32 1528.86,651.78 1526.90,643.10 1524.55,637.44 1521.62,622.56 1521.35,617.18 1519.37,605.14 1510.50,600.50 1503.41,603.21 1490.71,606.25 1480.67,607.82 1471.03,610.15 1457.73,613.18 1451.66,614.56" fill="none" stroke="#bcbcbc" stroke-width="8" stroke-linecap="round" stroke-linejoin="round" /><polyline points="550.43,446.81 577.54,383.26 579.05,379.13" fill="none" stroke="#bcbcbc" stroke-width="8" stroke-linecap="round" stroke-linejoin="round" /><polyline points="1264.89,330.28 1277.95,325.22 1284.78,322.58 1290.07,317.23 1311.85,311.86 1319.16,313.72 1334.93,309.66 1346.96,306.56 1349.82,304.96 1361.48,302.10 1421.12,287.49 1434.63,283.45" fill="none" stroke="#bcbcbc" stroke-width="8" stroke-linecap="round" stroke-linejoin="round" /><polyline points="714.84,868.44 742.97,858.22 752.38,855.34 761.85,852.45 779.33,847.11 792.93,845.16 839.38,840.07 848.71,839.56 890.27,839.92 915.59,840.14 925.11,839.65 940.36,841.19 945.13,841.88 954.85,843.27 984.21,849.71" fill="none" stroke="#bcbcbc" stroke-width="8" stroke-linecap="round" stroke-linejoin="round" /><polyline points="848.87,33.30 844.21,17.54 826.90,-40.98 805.87,-107.72 801.53,-119.63 797.13,-130.79 791.55,-146.88" fill="none" stroke="#bcbcbc" stroke-width="8" stroke-linecap="round" stroke-linejoin="round" /><polyline points="798.53,976.92 802.22,965.25 839.62,847.33 839.38,840.07" fill="none" stroke="#bcbcbc" stroke-width="8" stroke-linecap="round" stroke-linejoin="round" /><polyline points="848.71,839.56 856.12,740.27 856.86,732.18 857.99,722.76 858.01,722.33 858.50,710.82 860.97,679.56 862.36,665.01 864.27,648.47 866.00,636.56 867.56,629.09 869.52,623.44 873.36,610.70 881.31,584.20 891.41,549.97 902.55,514.98 904.82,507.84 906.64,502.67" fill="none" stroke="#bcbcbc" stroke-width="8" stroke-linecap="round" stroke-linejoin="round" /><polyline points="606.81,635.09 604.84,643.89 605.18,646.71 617.25,747.15 618.53,757.79 617.97,768.73 614.81,831.20 613.49,857.30 612.81,870.76 611.59,894.76 610.96,907.25 609.59,912.21" fill="none" stroke="#bcbcbc" stroke-width="8" stroke-linecap="round" stroke-linejoin="round" /><polyline points="550.43,446.81 506.57,433.78 500.99,430.20 473.70,422.25 466.02,422.33 431.72,411.99 426.18,407.90 394.97,398.44 356.67,388.01 356.48,387.99 350.13,387.44" fill="none" stroke="#bcbcbc" stroke-width="8" stroke-linecap="round" stroke-linejoin="round" /><polyline points="1349.82,304.96 1351.34,306.96 1357.70,316.44 1369.46,333.97 1380.53,345.06 1401.81,368.94 1398.21,391.02 1396.39,399.29 1393.85,402.80 1399.18,410.69 1407.44,427.67 1423.93,459.49 1432.05,475.16 1437.10,489.24 1439.38,495.78" fill="none" stroke="#bcbcbc" stroke-width="8" stroke-linecap="round" stroke-linejoin="round" /><polyline points="1460.91,350.42 1454.80,352.33 1414.52,364.86 1408.74,366.72 1401.81,368.94" fill="none" stroke="#bcbcbc" stroke-width="8" stroke-linecap="round" stroke-linejoin="round" /><polyline points="1171.45,426.73 1184.04,422.65 1275.47,375.96 1287.71,369.98 1330.81,357.53 1372.59,345.79 1380.53,345.06" fill="none" stroke="#bcbcbc" stroke-width="8" stroke-linecap="round" stroke-linejoin="round" /><polyline points="1181.41,484.53 1286.82,435.48 1291.26,432.54 1301.56,429.54 1371.80,409.10 1382.46,405.02 1393.85,402.80" fill="none" stroke="#bcbcbc" stroke-width="8" stroke-linecap="round" stroke-linejoin="round" /><polyline points="1159.90,-543.83 1202.57,-538.56 1206.86,-538.03 1223.40,-533.97" fill="none" stroke="#bcbcbc" stroke-width="8" stroke-linecap="round" stroke-linejoin="round" /><polyline points="1524.54,-110.02 1532.10,-111.60 1560.38,-97.74 1564.10,-94.05 1617.18,-4.21 1618.58,6.68 1625.48,12.43 1624.38,16.40 1624.21,22.88 1625.17,31.93 1639.23,89.71 1640.47,129.72 1642.44,193.61 1645.75,279.61 1632.28,317.08 1623.61,339.92 1610.95,372.12 1607.29,381.43 1604.91,384.03 1601.08,408.94" fill="none" stroke="#bcbcbc" stroke-width="8" stroke-linecap="round" stroke-linejoin="round" /><polyline points="1622.67,560.70 1609.76,555.08 1577.50,532.57 1534.94,502.67 1511.53,483.74 1495.74,466.83" fill="none" stroke="#bcbcbc" stroke-width="8" stroke-linecap="round" stroke-linejoin="round" /><polyline points="1100.40,1064.20 1087.72,1060.18 1067.15,1053.66 1057.33,1050.55 1045.80,1046.89 1031.23,1042.27 1018.06,1038.09 1005.04,1033.96 946.97,1015.54 936.80,1012.31 924.17,1008.31 921.38,1007.43 888.17,998.65 878.79,996.38 867.04,993.54 854.74,990.56 810.41,979.81 798.53,976.92 785.75,972.49 759.06,963.22 749.00,959.73 740.01,956.81 698.22,941.95 692.95,938.81 690.42,933.36" fill="none" stroke="#bcbcbc" stroke-width="8" stroke-linecap="round" stroke-linejoin="round" /><polyline points="1291.26,432.54 1288.18,421.51 1279.00,388.61 1275.47,375.96 1270.38,366.50 1269.90,364.75 1266.90,353.61 1270.40,348.68 1266.19,334.64 1264.89,330.28" fill="none" stroke="#bcbcbc" stroke-width="8" stroke-linecap="round" stroke-linejoin="round" /><polyline points="1275.92,29.99 1284.64,25.88 1332.29,-0.39 1359.53,-17.91 1378.74,-31.02 1382.98,-34.18 1398.45,-44.93 1414.47,-56.76 1424.62,-64.14 1436.71,-72.99 1478.75,-91.96 1484.20,-91.67 1492.17,-95.44 1524.54,-110.02" fill="none" stroke="#bcbcbc" stroke-width="8" stroke-linecap="round" stroke-linejoin="round" /><polyline points="747.73,209.09 754.60,211.88 759.15,213.27 844.36,239.45 857.38,243.44" fill="none" stroke="#bcbcbc" stroke-width="8" stroke-linecap="round" stroke-linejoin="round" /><polyline points="139.03,400.73 78.15,382.30" fill="none" stroke="#bcbcbc" stroke-width="8" stroke-linecap="round" stroke-linejoin="round" /><polyline points="1122.48,-457.84 1137.57,-438.72 1139.83,-435.86 1147.45,-426.21 1156.13,-425.19 1173.98,-423.10 1177.16,-420.90" fill="none" stroke="#bcbcbc" stroke-width="8" stroke-linecap="round" stroke-linejoin="round" /><polyline points="1646.67,392.70 1622.75,397.17 1598.22,410.49 1575.48,423.15 1553.98,433.90 1528.00,448.01 1509.18,459.44 1472.00,479.37 1326.85,552.40 1289.22,568.97 1264.36,579.73 1252.04,583.76 1241.85,585.66 1225.16,586.67 1201.42,583.31 1142.17,569.08 1058.06,549.49 947.41,516.11 906.64,502.67 839.89,482.06 776.05,461.01 682.42,424.27 635.61,404.11 579.16,379.02 485.53,327.73 463.58,313.17 408.03,278.23 384.74,254.93 349.79,209.68 292.23,150.33 269.60,130.39" fill="none" stroke="#bcbcbc" stroke-width="8" stroke-linecap="round" stroke-linejoin="round" /><polyline points="1192.81,1093.41 1193.79,1087.94 1197.33,1079.00 1230.53,1001.31 1243.08,972.19 1257.86,935.90 1261.46,922.62" fill="none" stroke="#bcbcbc" stroke-width="8" stroke-linecap="round" stroke-linejoin="round" /><polyline points="555.86,765.40 518.14,747.15 432.32,705.61 327.05,654.66 317.65,650.12" fill="none" stroke="#bcbcbc" stroke-width="8" stroke-linecap="round" stroke-linejoin="round" /><polyline points="1175.72,164.17 1185.24,154.42 1210.56,128.49 1230.66,106.55" fill="none" stroke="#bcbcbc" stroke-width="8" stroke-linecap="round" stroke-linejoin="round" /><polyline points="444.51,221.92 434.05,208.07 385.02,143.15 315.04,86.52" fill="none" stroke="#bcbcbc" stroke-width="8" stroke-linecap="round" stroke-linejoin="round" /><polyline points="140.80,1076.45 150.37,1053.76 180.80,977.89 184.49,967.94 188.58,956.89 190.13,952.90 190.54,946.66 194.44,887.68 195.56,870.76" fill="none" stroke="#bcbcbc" stroke-width="8" stroke-linecap="round" stroke-linejoin="round" /><polyline points="120.04,466.61 139.03,400.73 164.10,313.82 167.20,303.06 170.65,290.85 178.37,263.48 179.18,260.61 181.40,251.81 184.92,241.87 185.78,239.46 190.23,228.41 198.98,209.12 201.60,203.58" fill="none" stroke="#bcbcbc" stroke-width="8" stroke-linecap="round" stroke-linejoin="round" /><polyline points="958.42,4.11 959.73,-3.89 961.04,-12.20 966.68,-39.98 980.77,-104.65 992.34,-162.49 994.46,-174.49 997.33,-190.78 997.33,-190.80" fill="none" stroke="#bcbcbc" stroke-width="8" stroke-linecap="round" stroke-linejoin="round" /><polyline points="844.61,1249.32 861.78,1205.55 863.91,1197.68 932.02,1024.78 936.80,1012.31 940.67,1001.73 981.37,883.32 989.21,876.49" fill="none" stroke="#bcbcbc" stroke-width="8" stroke-linecap="round" stroke-linejoin="round" /><polyline points="1078.08,-29.37 1078.08,-29.38 1075.66,-42.04 1075.28,-43.58 1069.40,-67.51 1069.40,-67.58 1065.39,-83.81 1048.40,-142.06 1046.25,-148.30 1034.78,-179.50 1031.05,-188.81 1028.64,-194.82 1025.52,-201.65 1025.51,-201.66 1025.51,-201.69 1023.23,-226.77 1023.01,-239.09" fill="none" stroke="#bcbcbc" stroke-width="8" stroke-linecap="round" stroke-linejoin="round" /><polyline points="1052.60,958.90 1048.23,963.62 1041.72,971.37 1023.37,1023.11 1018.06,1038.09" fill="none" stroke="#bcbcbc" stroke-width="8" stroke-linecap="round" stroke-linejoin="round" /><polyline points="747.73,209.09 750.24,202.29 750.80,200.72 762.72,167.43 767.19,153.41 803.71,46.02" fill="none" stroke="#bcbcbc" stroke-width="8" stroke-linecap="round" stroke-linejoin="round" /><polyline points="936.65,359.64 940.37,349.74 950.47,322.93 954.73,311.60 957.62,303.93 965.72,282.42 971.07,268.21 971.79,266.30 984.75,231.87 990.17,233.55 993.10,225.56 998.30,211.42 997.30,205.00 1011.09,167.46 1012.50,163.61 1015.12,161.20 1017.32,159.18 1031.14,121.39 1033.14,111.04 1052.98,55.92 1057.67,52.25 1067.22,25.25 1065.52,21.11 1073.88,-4.11 1069.54,-26.62" fill="none" stroke="#bcbcbc" stroke-width="8" stroke-linecap="round" stroke-linejoin="round" /><polyline points="1291.50,-665.57 1285.94,-674.69 1256.73,-722.60" fill="none" stroke="#bcbcbc" stroke-width="8" stroke-linecap="round" stroke-linejoin="round" /><polyline points="1382.98,-34.18 1517.02,52.02 1517.06,52.07 1517.06,52.09 1541.85,55.31" fill="none" stroke="#bcbcbc" stroke-width="8" stroke-linecap="round" stroke-linejoin="round" /><polyline points="1329.23,-214.23 1471.85,-142.65 1476.15,-139.44 1475.86,-116.00 1478.75,-91.96" fill="none" stroke="#bcbcbc" stroke-width="8" stroke-linecap="round" stroke-linejoin="round" /><polyline points="1057.33,1050.55 1052.20,1066.19 1031.42,1129.57 996.08,1236.30 993.57,1243.87 991.03,1251.54 990.32,1259.71" fill="none" stroke="#bcbcbc" stroke-width="8" stroke-linecap="round" stroke-linejoin="round" /><polyline points="1458.81,665.57 1459.66,657.62 1459.85,650.20 1459.79,649.94 1454.73,628.10 1452.66,618.97 1451.66,614.56 1450.64,610.06 1445.09,585.62 1434.26,536.79 1426.38,507.42 1425.27,502.89" fill="none" stroke="#bcbcbc" stroke-width="8" stroke-linecap="round" stroke-linejoin="round" /><polyline points="750.77,1112.65 754.30,1102.60 794.02,989.74 798.53,976.92" fill="none" stroke="#bcbcbc" stroke-width="8" stroke-linecap="round" stroke-linejoin="round" /><polyline points="1642.44,193.61 1630.76,190.32 1551.41,68.56 1541.85,55.31" fill="none" stroke="#bcbcbc" stroke-width="8" stroke-linecap="round" stroke-linejoin="round" /><polyline points="338.08,485.75 627.26,555.03 647.20,562.31" fill="none" stroke="#bcbcbc" stroke-width="8" stroke-linecap="round" stroke-linejoin="round" /><polyline points="1250.15,-596.76 1362.79,-555.03 1378.65,-557.74" fill="none" stroke="#bcbcbc" stroke-width="8" stroke-linecap="round" stroke-linejoin="round" />
    <polyline points="167.20,303.06 205.64,312.89 287.06,333.82 333.45,348.27 352.80,352.80" fill="none" stroke="#ffffff" stroke-width="16" stroke-linecap="round" stroke-linejoin="round" />
    <polyline points="167.20,303.06 205.64,312.89 287.06,333.82 333.45,348.27 352.80,352.80" fill="none" stroke="#111111" stroke-width="9" stroke-linecap="round" stroke-linejoin="round" />
    
            <g transform="translate(167.20,303.06)">
              <circle r="19" fill="#ffffff" stroke="#111111" stroke-width="4" />
              <text text-anchor="middle" dominant-baseline="central" font-family="Helvetica, Arial, sans-serif"
                font-size="18" font-weight="700" fill="#111111">1</text>
            </g>
            
            <g transform="translate(352.80,352.80)">
              <circle r="19" fill="#ffffff" stroke="#111111" stroke-width="4" />
              <text text-anchor="middle" dominant-baseline="central" font-family="Helvetica, Arial, sans-serif"
                font-size="18" font-weight="700" fill="#111111">2</text>
            </g>
            
  </g>
</svg>
