<svg xmlns="http://www.w3.org/2000/svg" width="520" height="520" viewBox="0 0 520 520">
  <rect width="100%" height="100%" fill="#ffffff" />
  <g>
    <polyline points="706.25,244.12 708.80,257.69 725.25,372.78 722.74,401.56" fill="none" stroke="#bcbcbc" stroke-width="8" stroke-linecap="round" stroke-linejoin="round" /><polyline points="371.87,1203.25 375.84,1191.02 396.92,1126.20 399.40,1118.57 401.92,1110.55 454.91,941.55 459.17,927.96 449.41,903.92" fill="none" stroke="#bcbcbc" stroke-width="8" stroke-linecap="round" stroke-linejoin="round" /><polyline points="5.84,1052.94 4.98,1043.23 22.30,946.19 24.73,934.06 26.55,927.70 31.32,903.09 36.68,872.97 42.52,846.44 48.31,819.97 51.95,812.51 54.34,807.94" fill="none" stroke="#bcbcbc" stroke-width="8" stroke-linecap="round" stroke-linejoin="round" /><polyline points="106.39,368.44 102.28,355.88 59.70,226.02 57.62,220.58" fill="none" stroke="#bcbcbc" stroke-width="8" stroke-linecap="round" stroke-linejoin="round" /><polyline points="-112.06,1511.32 -110.79,1498.93 -110.28,1493.24 -105.64,1441.97 -100.57,1396.83 -99.38,1386.28 -98.28,1373.64 -98.16,1372.57 -95.28,1347.43 -92.80,1321.87 -90.07,1297.21 -88.23,1278.01 -87.46,1266.16 -86.78,1255.21 -85.58,1242.88" fill="none" stroke="#bcbcbc" stroke-width="8" stroke-linecap="round" stroke-linejoin="round" /><polyline points="476.21,1233.38 479.24,1223.85 500.61,1156.68 503.03,1149.05 506.48,1138.18 508.95,1130.39 527.86,1048.83" fill="none" stroke="#bcbcbc" stroke-width="8" stroke-linecap="round" stroke-linejoin="round" /><polyline points="393.16,-95.14 401.05,-93.93 618.45,-60.52" fill="none" stroke="#bcbcbc" stroke-width="8" stroke-linecap="round" stroke-linejoin="round" /><polyline points="-164.95,1217.55 -187.58,1216.50 -201.38,1215.86 -208.87,1215.51 -215.45,1215.20 -266.69,1212.82 -337.96,1209.51 -371.93,1204.69 -383.30,1203.08 -393.17,1201.33 -459.98,1189.54 -469.32,1187.89 -471.39,1187.54 -482.93,1185.56 -491.79,1184.04 -548.41,1179.04 -559.19,1178.08 -563.15,1177.73 -575.39,1176.88 -599.36,1175.22" fill="none" stroke="#bcbcbc" stroke-width="8" stroke-linecap="round" stroke-linejoin="round" /><polyline points="163.80,1151.90 168.18,1139.42 207.68,1029.93 255.19,891.82 258.23,883.16 260.36,877.11 262.08,872.14" fill="none" stroke="#bcbcbc" stroke-width="8" stroke-linecap="round" stroke-linejoin="round" /><polyline points="-563.15,1177.73 -564.16,1170.69 -564.40,1163.05 -562.90,1147.65 -559.46,1119.53 -557.16,1110.09 -553.44,1075.98 -552.76,1068.38 -551.67,1058.61 -550.86,1051.35 -549.34,1043.13 -546.51,1021.00 -544.54,1004.07 -541.66,997.15" fill="none" stroke="#bcbcbc" stroke-width="8" stroke-linecap="round" stroke-linejoin="round" /><polyline points="-603.57,988.50 -550.89,995.86 -541.66,997.15 -535.94,998.06 -512.32,1001.82 -457.91,1010.49 -448.58,1012.05" fill="none" stroke="#bcbcbc" stroke-width="8" stroke-linecap="round" stroke-linejoin="round" /><polyline points="365.96,297.35 366.30,302.14 367.01,306.99 368.72,310.71 371.92,314.85 377.85,320.24 391.88,328.78 500.20,396.74 566.91,486.19 617.30,610.55 620.59,618.76" fill="none" stroke="#bcbcbc" stroke-width="8" stroke-linecap="round" stroke-linejoin="round" /><polyline points="348.61,660.22 350.86,663.94 351.44,664.90 353.30,674.28 366.01,735.74 370.04,755.25 372.93,769.14 377.43,797.30 379.53,810.29 380.98,818.21 382.56,825.37 384.46,829.54 387.24,834.37 388.73,836.65 416.87,876.95 432.10,900.92 436.07,906.65" fill="none" stroke="#bcbcbc" stroke-width="8" stroke-linecap="round" stroke-linejoin="round" /><polyline points="-459.34,1429.73 -457.84,1420.51 -456.45,1413.84 -456.08,1412.96 -437.35,1368.41 -425.41,1339.46 -421.78,1330.29 -417.94,1320.57 -413.77,1312.22 -413.09,1310.59 -407.38,1296.78 -402.97,1284.57 -399.18,1273.36 -396.77,1265.43 -394.08,1255.65 -390.97,1242.52 -388.61,1231.88 -385.79,1217.02 -385.20,1213.70 -383.30,1203.08" fill="none" stroke="#bcbcbc" stroke-width="8" stroke-linecap="round" stroke-linejoin="round" /><polyline points="448.23,185.81 507.96,227.55 516.01,229.26 521.90,236.00" fill="none" stroke="#bcbcbc" stroke-width="8" stroke-linecap="round" stroke-linejoin="round" /><polyline points="197.43,571.29 205.32,574.33 239.59,585.54 319.09,616.03 323.55,620.47 325.65,623.79" fill="none" stroke="#bcbcbc" stroke-width="8" stroke-linecap="round" stroke-linejoin="round" /><polyline points="345.57,1354.75 350.98,1340.64 377.71,1268.12 396.60,1213.34 400.52,1211.53" fill="none" stroke="#bcbcbc" stroke-width="8" stroke-linecap="round" stroke-linejoin="round" /><polyline points="-32.21,1262.80 -27.99,1253.48 -27.57,1252.55 -20.36,1228.35 -8.54,1188.51 -5.51,1178.31 -3.16,1170.39 -2.84,1165.78 -3.32,1155.56" fill="none" stroke="#bcbcbc" stroke-width="8" stroke-linecap="round" stroke-linejoin="round" /><polyline points="459.01,663.41 452.24,664.80 436.88,662.07 434.51,655.74 407.90,645.59 401.61,647.24 377.61,638.43 374.03,640.93" fill="none" stroke="#bcbcbc" stroke-width="8" stroke-linecap="round" stroke-linejoin="round" /><polyline points="419.51,-159.58 431.57,-156.63 438.24,-155.47 596.82,-127.97" fill="none" stroke="#bcbcbc" stroke-width="8" stroke-linecap="round" stroke-linejoin="round" /><polyline points="296.25,1310.59 302.85,1291.99 315.67,1255.84 323.95,1240.44 335.87,1207.06 340.63,1193.74" fill="none" stroke="#bcbcbc" stroke-width="8" stroke-linecap="round" stroke-linejoin="round" /><polyline points="-572.68,588.68 -584.16,588.15 -587.04,591.65 -607.05,615.97 -677.00,696.77 -686.84,708.14" fill="none" stroke="#bcbcbc" stroke-width="8" stroke-linecap="round" stroke-linejoin="round" /><polyline points="40.89,657.89 35.82,669.11 35.20,670.48 17.59,716.42 -0.17,766.99 -4.91,780.48 -7.59,787.44" fill="none" stroke="#bcbcbc" stroke-width="8" stroke-linecap="round" stroke-linejoin="round" /><polyline points="299.29,141.68 304.89,149.28 308.89,159.72 315.10,174.71 325.08,198.28 333.92,219.44 344.07,242.67 351.60,260.58 352.71,263.15 352.78,263.31 358.84,277.47 360.65,281.50 362.37,285.33 364.19,288.92 365.56,292.57 365.96,297.35" fill="none" stroke="#bcbcbc" stroke-width="8" stroke-linecap="round" stroke-linejoin="round" /><polyline points="-129.14,884.36 -126.21,882.76 -122.12,879.50 -120.07,875.27 -92.85,772.06 -92.03,766.24 -88.71,755.61" fill="none" stroke="#bcbcbc" stroke-width="8" stroke-linecap="round" stroke-linejoin="round" /><polyline points="822.54,722.85 826.40,735.10 829.12,747.97 823.83,797.03 817.72,833.93 814.38,846.52 814.07,847.66 811.15,854.45 807.16,861.65 797.85,873.43 802.36,896.46 787.77,945.89 779.72,973.19 763.24,1017.87 739.11,1072.28 709.65,1124.41 700.45,1141.36 683.81,1169.20 617.35,1263.53 602.79,1283.16 546.40,1356.85 514.03,1393.69 468.74,1439.72 464.55,1440.15 454.32,1448.51" fill="none" stroke="#bcbcbc" stroke-width="8" stroke-linecap="round" stroke-linejoin="round" /><polyline points="2.45,1529.79 21.00,1472.25 24.04,1462.74 28.16,1456.76 37.02,1430.16 39.90,1421.13 76.51,1306.52 80.19,1295.00 83.22,1284.87 126.42,1148.92" fill="none" stroke="#bcbcbc" stroke-width="8" stroke-linecap="round" stroke-linejoin="round" /><polyline points="437.07,459.62 453.11,442.10 457.84,436.39 490.25,390.49" fill="none" stroke="#bcbcbc" stroke-width="8" stroke-linecap="round" stroke-linejoin="round" /><polyline points="116.51,466.57 160.67,481.94 163.11,485.91 175.65,490.11 183.10,492.66 218.70,504.69" fill="none" stroke="#bcbcbc" stroke-width="8" stroke-linecap="round" stroke-linejoin="round" /><polyline points="501.47,160.90 521.90,236.00 545.55,324.46 549.13,331.83 549.70,340.25 565.74,370.19 609.02,450.91 618.48,464.86 621.22,468.95 685.88,589.85 715.59,616.86 719.76,622.25 725.64,627.27 782.07,675.52 785.89,678.79 796.03,684.18" fill="none" stroke="#bcbcbc" stroke-width="8" stroke-linecap="round" stroke-linejoin="round" /><polyline points="282.03,1542.01 422.75,1460.26 447.79,1447.45 454.32,1448.51" fill="none" stroke="#bcbcbc" stroke-width="8" stroke-linecap="round" stroke-linejoin="round" /><polyline points="434.60,1425.06 443.33,1414.68 521.71,1258.27 526.90,1248.01 531.24,1237.86 556.56,1175.25 564.10,1156.38 585.92,1090.34 600.07,1005.42 601.75,993.06" fill="none" stroke="#bcbcbc" stroke-width="8" stroke-linecap="round" stroke-linejoin="round" /><polyline points="374.11,505.22 372.73,506.63 370.85,513.21 370.66,513.86 362.15,546.62 364.38,555.17 362.53,562.84 360.10,572.87 353.88,580.08 346.81,608.70 338.49,614.99 329.61,621.08 325.65,623.79" fill="none" stroke="#bcbcbc" stroke-width="8" stroke-linecap="round" stroke-linejoin="round" /><polyline points="40.89,657.89 44.50,648.62 66.25,592.87 70.99,580.71 74.90,570.70 102.68,499.51 115.19,469.74 116.51,466.57 126.23,443.06 148.04,388.89 156.03,365.83 157.81,360.55 160.20,354.55" fill="none" stroke="#bcbcbc" stroke-width="8" stroke-linecap="round" stroke-linejoin="round" /><polyline points="284.21,319.95 288.42,332.47 426.42,450.35 501.73,515.87 614.20,613.66 624.02,621.51 628.42,624.26 647.94,641.98 674.00,664.21 733.12,714.62 752.22,731.05 764.89,746.20" fill="none" stroke="#bcbcbc" stroke-width="8" stroke-linecap="round" stroke-linejoin="round" /><polyline points="512.39,116.82 519.39,112.33 560.86,95.10 569.38,86.13" fill="none" stroke="#bcbcbc" stroke-width="8" stroke-linecap="round" stroke-linejoin="round" /><polyline points="560.28,1165.92 503.03,1149.05 399.40,1118.57" fill="none" stroke="#bcbcbc" stroke-width="8" stroke-linecap="round" stroke-linejoin="round" /><polyline points="375.48,-51.92 383.30,-46.52 638.12,10.18" fill="none" stroke="#bcbcbc" stroke-width="8" stroke-linecap="round" stroke-linejoin="round" /><polyline points="690.24,787.14 677.07,757.83 647.85,688.13 645.67,682.58 640.67,669.86 621.83,621.92 620.65,618.81" fill="none" stroke="#bcbcbc" stroke-width="8" stroke-linecap="round" stroke-linejoin="round" /><polyline points="299.29,141.68 285.15,137.66 274.75,134.56 253.62,128.29 242.89,125.22 236.73,123.52 228.70,121.21" fill="none" stroke="#bcbcbc" stroke-width="8" stroke-linecap="round" stroke-linejoin="round" /><polyline points="-69.58,525.09 -70.29,522.75 -70.95,521.11 -73.87,513.86 -85.17,487.53 -95.90,460.77 -98.22,454.46 -100.89,447.18 -102.80,441.23 -105.96,432.31 -106.29,431.37 -116.56,406.05 -135.41,358.47 -139.65,356.06 -142.66,348.34 -148.67,327.44 -158.98,301.55 -161.20,295.66" fill="none" stroke="#bcbcbc" stroke-width="8" stroke-linecap="round" stroke-linejoin="round" /><polyline points="21.00,1472.25 31.71,1475.53 66.35,1486.08 77.20,1489.39" fill="none" stroke="#bcbcbc" stroke-width="8" stroke-linecap="round" stroke-linejoin="round" /><polyline points="667.98,129.28 670.00,121.12 669.18,118.02 668.19,114.27 661.87,91.10 647.77,42.11 640.32,17.06 638.12,10.18 618.45,-60.52 607.84,-98.65 596.82,-127.97 586.87,-154.43 576.97,-172.61 567.34,-182.22 493.44,-272.53 487.97,-278.96 484.35,-284.90" fill="none" stroke="#bcbcbc" stroke-width="8" stroke-linecap="round" stroke-linejoin="round" /><polyline points="365.96,297.35 362.15,298.81 355.10,300.75 354.39,300.95 324.96,308.48 291.12,318.00 284.21,319.95 281.14,320.93 273.01,323.54 266.06,325.47 235.71,333.92 185.81,348.10 167.20,352.80 160.20,354.55 126.94,362.72 106.39,368.44 62.89,380.60 19.88,392.72 14.91,394.10 -21.03,404.07 -37.61,408.68 -45.98,412.63 -61.83,420.49 -93.30,436.46 -95.49,437.58 -102.80,441.23 -107.26,443.46 -113.48,446.72 -135.59,458.32 -175.88,480.92 -209.53,498.55 -214.34,501.08 -220.77,501.48 -224.64,503.53 -225.41,503.94 -261.92,523.95 -269.56,523.92 -278.34,528.51 -281.41,530.11 -283.99,531.46 -290.09,534.66 -294.90,545.63 -315.57,556.70 -322.14,560.21 -329.25,564.08 -358.00,579.73 -372.86,587.82 -380.35,589.98" fill="none" stroke="#bcbcbc" stroke-width="8" stroke-linecap="round" stroke-linejoin="round" /><polyline points="779.72,973.19 764.38,974.59 716.46,978.98 714.30,979.18 711.24,979.46 706.29,979.92 659.83,984.18 643.67,982.68 624.85,987.40 609.78,991.10 601.75,993.06 581.80,993.82 564.53,992.94 555.73,992.01 548.24,989.74 542.72,986.69 522.17,972.16 472.25,937.87 467.55,934.68 462.75,931.43 459.17,927.96" fill="none" stroke="#bcbcbc" stroke-width="8" stroke-linecap="round" stroke-linejoin="round" /><polyline points="-350.96,394.27 -332.84,429.73 -330.10,439.87 -314.84,468.99 -308.54,477.32 -283.04,526.94 -281.41,530.11" fill="none" stroke="#bcbcbc" stroke-width="8" stroke-linecap="round" stroke-linejoin="round" /><polyline points="204.16,709.66 201.44,717.12 200.68,719.44 197.15,730.16 174.74,792.69 163.61,823.75 163.23,824.80 158.76,834.46 156.20,840.19" fill="none" stroke="#bcbcbc" stroke-width="8" stroke-linecap="round" stroke-linejoin="round" /><polyline points="501.47,160.90 498.99,155.58 492.45,154.73 471.33,159.57 467.04,159.01 463.67,154.51 457.70,127.02 490.07,122.01 505.06,117.58 512.39,116.82 520.28,144.89" fill="none" stroke="#bcbcbc" stroke-width="8" stroke-linecap="round" stroke-linejoin="round" /><polyline points="618.48,464.86 626.82,460.18 668.70,434.94 679.90,428.27 699.49,416.59 731.73,395.74 739.25,390.33 795.80,355.25" fill="none" stroke="#bcbcbc" stroke-width="8" stroke-linecap="round" stroke-linejoin="round" /><polyline points="816.13,630.56 801.84,626.30 793.52,619.48 761.76,592.00 760.68,591.03 753.00,584.18 748.49,576.18 668.70,434.94" fill="none" stroke="#bcbcbc" stroke-width="8" stroke-linecap="round" stroke-linejoin="round" /><polyline points="-84.30,619.37 40.89,657.89 51.10,661.13 144.52,690.74 146.47,691.36 160.46,695.80 167.34,697.98 176.29,700.43 194.73,706.67 204.16,709.66 212.65,712.36 282.17,734.41 355.56,757.47 361.63,759.38 370.04,755.25" fill="none" stroke="#bcbcbc" stroke-width="8" stroke-linecap="round" stroke-linejoin="round" /><polyline points="283.78,1.29 338.01,-48.54 347.19,-56.97" fill="none" stroke="#bcbcbc" stroke-width="8" stroke-linecap="round" stroke-linejoin="round" /><polyline points="-624.26,805.34 -425.28,826.67" fill="none" stroke="#bcbcbc" stroke-width="8" stroke-linecap="round" stroke-linejoin="round" /><polyline points="-24.01,249.93 17.81,234.97 60.95,219.38 87.75,208.96 169.59,179.19 193.34,170.97 198.30,169.26 204.25,167.21 210.93,164.92 211.74,164.64 225.22,159.22 231.08,156.86" fill="none" stroke="#bcbcbc" stroke-width="8" stroke-linecap="round" stroke-linejoin="round" /><polyline points="256.88,1262.01 296.25,1310.59 320.36,1334.86 330.79,1342.37 345.57,1354.75 359.44,1366.40 371.36,1378.03 371.66,1383.94" fill="none" stroke="#bcbcbc" stroke-width="8" stroke-linecap="round" stroke-linejoin="round" /><polyline points="299.29,141.68 314.72,103.00 339.70,39.32 375.48,-51.92 393.16,-95.14 419.51,-159.58 441.12,-212.38 444.98,-219.38 463.98,-250.45 465.21,-252.45 472.16,-266.12 484.35,-284.90 491.16,-295.38 500.79,-310.21" fill="none" stroke="#bcbcbc" stroke-width="8" stroke-linecap="round" stroke-linejoin="round" /><polyline points="-64.74,1175.87 -67.27,1177.89 -68.93,1180.29 -72.34,1190.33 -74.69,1197.58 -85.56,1230.09 -87.06,1234.78 -87.99,1237.69 -97.97,1234.83 -122.27,1226.68 -146.34,1218.61 -164.95,1217.55" fill="none" stroke="#bcbcbc" stroke-width="8" stroke-linecap="round" stroke-linejoin="round" /><polyline points="-540.54,1402.09 -500.86,1299.62 -496.45,1288.47 -492.49,1277.72 -487.70,1264.74 -481.84,1244.32 -475.72,1218.94 -473.21,1200.75 -471.39,1187.54 -468.82,1177.78 -459.48,1104.51 -448.58,1012.05 -442.93,967.97 -436.63,916.18 -425.28,826.67 -423.48,811.45 -412.01,717.84 -412.00,712.62 -409.47,684.85 -402.15,626.18 -400.31,615.94 -398.40,610.20 -395.41,603.88 -392.50,598.97 -386.08,592.02 -380.34,590.05" fill="none" stroke="#bcbcbc" stroke-width="8" stroke-linecap="round" stroke-linejoin="round" /><polyline points="325.65,623.79 327.82,627.24 335.09,638.59 345.99,656.06 348.61,660.22 352.96,656.92 374.03,640.93" fill="none" stroke="#bcbcbc" stroke-width="8" stroke-linecap="round" stroke-linejoin="round" /><polyline points="339.70,39.32 554.08,78.08 576.59,89.93 660.59,131.57 667.98,129.28" fill="none" stroke="#bcbcbc" stroke-width="8" stroke-linecap="round" stroke-linejoin="round" /><polyline points="-69.58,525.09 -73.38,530.64 -107.58,547.33 -132.70,579.26 -159.81,596.05 -178.35,610.04 -196.03,624.47 -205.10,632.74 -221.12,653.06 -239.03,678.73 -241.98,683.49" fill="none" stroke="#bcbcbc" stroke-width="8" stroke-linecap="round" stroke-linejoin="round" /><polyline points="-33.42,548.00 -34.90,551.29 -38.15,556.03 -44.27,563.57 -80.40,609.21 -99.52,660.70 -195.99,624.43" fill="none" stroke="#bcbcbc" stroke-width="8" stroke-linecap="round" stroke-linejoin="round" /><polyline points="-178.35,610.05 -182.08,598.73 -198.23,549.85 -204.49,540.19 -214.98,508.72 -215.89,506.00 -214.34,501.08 -216.86,493.05 -267.30,331.97" fill="none" stroke="#bcbcbc" stroke-width="8" stroke-linecap="round" stroke-linejoin="round" /><polyline points="412.74,-268.86 452.61,-267.81 454.47,-267.76 462.11,-267.54 472.16,-266.12" fill="none" stroke="#bcbcbc" stroke-width="8" stroke-linecap="round" stroke-linejoin="round" /><polyline points="207.68,1029.93 194.07,1029.76 78.80,1045.24 70.49,1046.11 60.99,1047.12 5.84,1052.94 -68.48,1060.79 -107.87,1064.94 -129.67,1067.24 -147.36,1069.39 -156.45,1070.50 -166.68,1071.74 -216.12,1077.75 -227.97,1079.19 -264.48,1083.18 -459.48,1104.51" fill="none" stroke="#bcbcbc" stroke-width="8" stroke-linecap="round" stroke-linejoin="round" /><polyline points="37.02,1430.16 26.81,1426.88 -20.88,1411.52 -30.52,1408.42 -38.89,1405.73 -89.42,1389.49 -99.38,1386.28 -112.56,1382.04 -193.00,1356.16 -202.05,1353.24" fill="none" stroke="#bcbcbc" stroke-width="8" stroke-linecap="round" stroke-linejoin="round" /><polyline points="236.45,464.48 264.19,473.13 365.64,504.46 366.58,504.75 374.11,505.22" fill="none" stroke="#bcbcbc" stroke-width="8" stroke-linecap="round" stroke-linejoin="round" /><polyline points="521.90,236.00 659.90,238.43" fill="none" stroke="#bcbcbc" stroke-width="8" stroke-linecap="round" stroke-linejoin="round" /><polyline points="454.32,1448.51 434.60,1425.06 426.32,1415.43 419.21,1408.79 409.74,1401.71 390.38,1390.10 371.66,1383.94 333.55,1372.17 302.39,1362.28 320.36,1334.86" fill="none" stroke="#bcbcbc" stroke-width="8" stroke-linecap="round" stroke-linejoin="round" /><polyline points="256.88,1262.01 229.41,1228.10 224.19,1221.65 196.52,1183.53 190.25,1171.89 191.76,1158.04 200.10,1157.95 220.68,1161.91 251.99,1167.94" fill="none" stroke="#bcbcbc" stroke-width="8" stroke-linecap="round" stroke-linejoin="round" /><polyline points="-102.47,990.33 -97.41,1001.23 -68.48,1060.79 -25.46,1149.35 -19.97,1160.64" fill="none" stroke="#bcbcbc" stroke-width="8" stroke-linecap="round" stroke-linejoin="round" /><polyline points="-565.84,1260.10 -555.49,1264.33 -507.03,1284.14 -496.45,1288.47 -485.32,1293.02 -428.26,1316.35 -417.94,1320.57" fill="none" stroke="#bcbcbc" stroke-width="8" stroke-linecap="round" stroke-linejoin="round" /><polyline points="-78.66,902.02 22.30,946.19" fill="none" stroke="#bcbcbc" stroke-width="8" stroke-linecap="round" stroke-linejoin="round" /><polyline points="374.11,505.22 389.48,506.03 390.47,506.90 397.37,513.02 407.51,522.08 409.38,525.72 444.34,556.33 446.92,561.21 471.50,582.91 477.69,584.80 496.81,601.54 501.09,603.50 529.93,627.96 536.35,633.65 539.89,639.29" fill="none" stroke="#bcbcbc" stroke-width="8" stroke-linecap="round" stroke-linejoin="round" /><polyline points="-594.34,902.12 -436.63,916.18" fill="none" stroke="#bcbcbc" stroke-width="8" stroke-linecap="round" stroke-linejoin="round" /><polyline points="-242.22,1489.38 -237.34,1478.98 -236.08,1474.35 -229.23,1449.10 -204.42,1361.62 -202.05,1353.24 -199.54,1344.06 -188.30,1302.96 -169.32,1233.55 -164.95,1217.55" fill="none" stroke="#bcbcbc" stroke-width="8" stroke-linecap="round" stroke-linejoin="round" /><polyline points="-102.47,990.33 -78.66,902.02 -129.14,884.36 -142.36,892.16 -148.39,896.75 -152.85,902.78 -155.99,910.75 -167.60,953.66 -158.23,958.43 -148.77,960.73 -127.85,966.18 -112.19,971.16 -102.47,990.33" fill="none" stroke="#bcbcbc" stroke-width="8" stroke-linecap="round" stroke-linejoin="round" /><polyline points="-167.60,953.66 -178.66,952.12 -436.63,916.18" fill="none" stroke="#bcbcbc" stroke-width="8" stroke-linecap="round" stroke-linejoin="round" /><polyline points="251.99,1167.94 275.92,1173.17 340.63,1193.74 358.73,1199.46 401.68,1211.87 444.94,1224.34 476.97,1233.60 528.20,1248.39 538.79,1251.45 564.64,1260.12 607.20,1271.45 610.95,1272.16" fill="none" stroke="#bcbcbc" stroke-width="8" stroke-linecap="round" stroke-linejoin="round" /><polyline points="282.35,1541.82 273.61,1544.01 264.17,1570.32 249.53,1566.17 182.97,1543.48 174.96,1541.77 157.14,1540.50 76.53,1540.82 58.76,1538.56 18.64,1532.42 2.45,1529.79 -112.35,1511.27 -156.81,1504.18 -241.59,1489.49 -255.28,1486.78 -446.62,1433.30 -458.69,1429.91 -540.54,1402.09 -560.68,1394.95 -610.98,1374.10 -639.65,1363.26" fill="none" stroke="#bcbcbc" stroke-width="8" stroke-linecap="round" stroke-linejoin="round" /><polyline points="457.70,127.02 449.41,125.31 338.83,138.39 299.29,141.68" fill="none" stroke="#bcbcbc" stroke-width="8" stroke-linecap="round" stroke-linejoin="round" /><polyline points="251.99,1167.94 255.87,1161.45 279.07,1101.85 305.00,1011.73 311.61,992.31 315.15,987.03 340.19,906.67 341.43,897.08 342.38,890.81" fill="none" stroke="#bcbcbc" stroke-width="8" stroke-linecap="round" stroke-linejoin="round" /><polyline points="365.96,297.35 368.60,296.34 372.18,293.50 377.62,287.13 448.23,185.81 467.04,159.01" fill="none" stroke="#bcbcbc" stroke-width="8" stroke-linecap="round" stroke-linejoin="round" /><polyline points="680.22,669.55 681.67,665.40 717.16,623.63 719.76,622.25 725.93,613.81 746.58,590.09 753.00,584.18" fill="none" stroke="#bcbcbc" stroke-width="8" stroke-linecap="round" stroke-linejoin="round" /><polyline points="711.24,979.46 710.75,973.87 710.37,969.55 708.50,961.29 706.26,955.89 703.47,941.73 703.22,936.60 701.33,925.14 692.88,920.72 686.13,923.31 674.04,926.20 664.48,927.70 655.30,929.91 642.64,932.80 636.86,934.11" fill="none" stroke="#bcbcbc" stroke-width="8" stroke-linecap="round" stroke-linejoin="round" /><polyline points="-221.28,774.37 -195.47,713.86 -194.03,709.92" fill="none" stroke="#bcbcbc" stroke-width="8" stroke-linecap="round" stroke-linejoin="round" /><polyline points="459.01,663.41 471.46,658.59 477.96,656.07 482.99,650.97 503.73,645.86 510.69,647.63 525.71,643.76 537.16,640.81 539.89,639.29 550.99,636.57 607.78,622.66 620.65,618.81" fill="none" stroke="#bcbcbc" stroke-width="8" stroke-linecap="round" stroke-linejoin="round" /><polyline points="-64.74,1175.87 -37.95,1166.14 -28.99,1163.40 -19.97,1160.64 -3.32,1155.56 9.63,1153.70 53.85,1148.86 62.74,1148.37 102.31,1148.71 126.42,1148.92 135.48,1148.45 150.00,1149.92 154.54,1150.57 163.80,1151.90 191.76,1158.04" fill="none" stroke="#bcbcbc" stroke-width="8" stroke-linecap="round" stroke-linejoin="round" /><polyline points="62.89,380.60 58.45,365.59 41.97,309.86 21.95,246.32 17.81,234.97 13.62,224.34 8.31,209.02" fill="none" stroke="#bcbcbc" stroke-width="8" stroke-linecap="round" stroke-linejoin="round" /><polyline points="14.95,1279.17 18.47,1268.06 54.08,1155.76 53.85,1148.86" fill="none" stroke="#bcbcbc" stroke-width="8" stroke-linecap="round" stroke-linejoin="round" /><polyline points="62.74,1148.37 69.79,1053.82 70.49,1046.11 71.57,1037.14 71.59,1036.74 72.05,1025.77 74.41,996.01 75.73,982.15 77.55,966.40 79.20,955.06 80.68,947.94 82.55,942.56 86.21,930.44 93.77,905.20 103.39,872.61 114.00,839.28 116.16,832.49 117.90,827.56" fill="none" stroke="#bcbcbc" stroke-width="8" stroke-linecap="round" stroke-linejoin="round" /><polyline points="-167.60,953.66 -169.47,962.04 -169.15,964.72 -157.66,1060.37 -156.45,1070.50 -156.97,1080.92 -159.98,1140.41 -161.24,1165.26 -161.89,1178.08 -163.04,1200.93 -163.65,1212.83 -164.95,1217.55" fill="none" stroke="#bcbcbc" stroke-width="8" stroke-linecap="round" stroke-linejoin="round" /><polyline points="-221.28,774.37 -263.05,761.96 -268.36,758.55 -294.35,750.98 -301.66,751.05 -334.32,741.21 -339.59,737.32 -369.31,728.31 -405.78,718.37 -405.96,718.36 -412.01,717.84" fill="none" stroke="#bcbcbc" stroke-width="8" stroke-linecap="round" stroke-linejoin="round" /><polyline points="539.89,639.29 541.34,641.20 547.39,650.22 558.59,666.91 569.13,677.47 589.39,700.22 585.97,721.24 584.23,729.12 581.81,732.46 586.89,739.97 594.75,756.14 610.45,786.44 618.19,801.37 623.00,814.78 625.17,821.00" fill="none" stroke="#bcbcbc" stroke-width="8" stroke-linecap="round" stroke-linejoin="round" /><polyline points="645.67,682.59 639.85,684.40 601.49,696.33 595.99,698.10 589.39,700.22" fill="none" stroke="#bcbcbc" stroke-width="8" stroke-linecap="round" stroke-linejoin="round" /><polyline points="370.04,755.25 382.04,751.36 469.10,706.90 480.75,701.21 521.78,689.35 561.57,678.17 569.13,677.47" fill="none" stroke="#bcbcbc" stroke-width="8" stroke-linecap="round" stroke-linejoin="round" /><polyline points="379.53,810.29 479.90,763.58 484.12,760.78 493.94,757.92 560.82,738.46 570.96,734.58 581.81,732.46" fill="none" stroke="#bcbcbc" stroke-width="8" stroke-linecap="round" stroke-linejoin="round" /><polyline points="359.05,-168.98 399.68,-163.96 403.76,-163.45 419.51,-159.58" fill="none" stroke="#bcbcbc" stroke-width="8" stroke-linecap="round" stroke-linejoin="round" /><polyline points="706.25,244.12 713.46,242.62 740.38,255.82 743.93,259.33 794.46,344.88 795.80,355.25 802.37,360.73 801.32,364.51 801.16,370.68 802.07,379.30 815.46,434.32 816.64,472.42 818.52,533.26 821.67,615.15 808.85,650.83 800.59,672.58 788.54,703.24 785.04,712.11 782.78,714.58 779.14,738.31" fill="none" stroke="#bcbcbc" stroke-width="8" stroke-linecap="round" stroke-linejoin="round" /><polyline points="799.69,882.82 787.40,877.47 756.68,856.04 716.16,827.56 693.87,809.54 678.83,793.43" fill="none" stroke="#bcbcbc" stroke-width="8" stroke-linecap="round" stroke-linejoin="round" /><polyline points="302.39,1362.28 290.32,1358.45 270.73,1352.24 261.39,1349.28 250.41,1345.80 236.53,1341.40 223.99,1337.42 211.59,1333.49 156.30,1315.94 146.61,1312.87 134.59,1309.06 131.93,1308.22 100.31,1299.87 91.38,1297.70 80.19,1295.00 68.47,1292.16 26.27,1281.92 14.95,1279.17 2.79,1274.95 -22.63,1266.13 -32.21,1262.80 -40.77,1260.02 -80.57,1245.87 -85.58,1242.88 -87.99,1237.69" fill="none" stroke="#bcbcbc" stroke-width="8" stroke-linecap="round" stroke-linejoin="round" /><polyline points="484.12,760.78 481.19,750.27 472.46,718.95 469.10,706.90 464.24,697.90 463.79,696.23 460.93,685.62 464.26,680.92 460.26,667.56 459.01,663.41" fill="none" stroke="#bcbcbc" stroke-width="8" stroke-linecap="round" stroke-linejoin="round" /><polyline points="469.52,377.44 477.82,373.53 523.19,348.52 549.13,331.83 567.43,319.35 571.47,316.34 586.19,306.11 601.45,294.84 611.11,287.81 622.62,279.39 662.65,261.32 667.84,261.60 675.43,258.01 706.25,244.12" fill="none" stroke="#bcbcbc" stroke-width="8" stroke-linecap="round" stroke-linejoin="round" /><polyline points="-33.42,548.00 -26.87,550.65 -22.55,551.98 58.60,576.90 70.99,580.71" fill="none" stroke="#bcbcbc" stroke-width="8" stroke-linecap="round" stroke-linejoin="round" /><polyline points="-613.01,730.48 -670.99,712.94" fill="none" stroke="#bcbcbc" stroke-width="8" stroke-linecap="round" stroke-linejoin="round" /><polyline points="323.42,-87.09 337.79,-68.88 339.93,-66.16 347.19,-56.97 355.46,-56.00 372.46,-54.01 375.48,-51.92" fill="none" stroke="#bcbcbc" stroke-width="8" stroke-linecap="round" stroke-linejoin="round" /><polyline points="822.54,722.85 799.77,727.10 776.41,739.79 754.76,751.84 734.29,762.08 709.55,775.52 691.63,786.39 656.23,805.38 518.02,874.92 482.19,890.70 458.51,900.94 446.78,904.78 437.08,906.59 421.19,907.55 398.58,904.35 342.16,890.81 262.08,872.14 156.71,840.36 117.90,827.56 54.34,807.94 -6.45,787.89 -95.60,752.90 -140.18,733.71 -193.93,709.82 -283.08,660.97 -303.98,647.11 -356.87,613.83 -379.06,591.65 -412.33,548.56 -467.14,492.04 -488.68,473.06" fill="none" stroke="#bcbcbc" stroke-width="8" stroke-linecap="round" stroke-linejoin="round" /><polyline points="390.38,1390.10 391.32,1384.89 394.69,1376.38 426.31,1302.40 438.25,1274.67 452.33,1240.11 455.75,1227.46" fill="none" stroke="#bcbcbc" stroke-width="8" stroke-linecap="round" stroke-linejoin="round" /><polyline points="-216.12,1077.75 -252.03,1060.37 -333.75,1020.81 -433.99,972.30 -442.93,967.97" fill="none" stroke="#bcbcbc" stroke-width="8" stroke-linecap="round" stroke-linejoin="round" /><polyline points="374.11,505.22 383.17,495.93 407.29,471.25 426.42,450.35" fill="none" stroke="#bcbcbc" stroke-width="8" stroke-linecap="round" stroke-linejoin="round" /><polyline points="-322.14,560.21 -332.10,547.02 -378.78,485.21 -445.42,431.28" fill="none" stroke="#bcbcbc" stroke-width="8" stroke-linecap="round" stroke-linejoin="round" /><polyline points="-611.33,1373.95 -602.22,1352.34 -573.25,1280.10 -569.73,1270.61 -565.84,1260.10 -564.36,1256.30 -563.97,1250.36 -560.26,1194.19 -559.19,1178.08" fill="none" stroke="#bcbcbc" stroke-width="8" stroke-linecap="round" stroke-linejoin="round" /><polyline points="-631.10,793.23 -613.01,730.48 -589.15,647.73 -586.19,637.49 -582.91,625.85 -575.55,599.79 -574.78,597.06 -572.68,588.68 -569.32,579.21 -568.50,576.91 -564.26,566.40 -555.93,548.03 -553.44,542.75" fill="none" stroke="#bcbcbc" stroke-width="8" stroke-linecap="round" stroke-linejoin="round" /><polyline points="-586.19,637.49 -549.59,646.85 -472.06,666.78 -427.89,680.53 -409.47,684.85" fill="none" stroke="#bcbcbc" stroke-width="8" stroke-linecap="round" stroke-linejoin="round" /><polyline points="58.83,1538.57 75.18,1496.88 77.20,1489.39 142.06,1324.75 146.61,1312.87 150.30,1302.80 189.05,1190.04 196.52,1183.53" fill="none" stroke="#bcbcbc" stroke-width="8" stroke-linecap="round" stroke-linejoin="round" /><polyline points="281.14,320.93 281.13,320.91 278.84,308.85 278.48,307.39 272.87,284.61 272.88,284.53 269.06,269.08 252.87,213.62 250.83,207.67 239.91,177.96 236.35,169.09 234.06,163.37 231.09,156.87 231.08,156.86 231.08,156.83 228.91,132.94 228.70,121.21" fill="none" stroke="#bcbcbc" stroke-width="8" stroke-linecap="round" stroke-linejoin="round" /><polyline points="256.88,1262.01 252.72,1266.51 246.52,1273.89 229.05,1323.16 223.99,1337.42" fill="none" stroke="#bcbcbc" stroke-width="8" stroke-linecap="round" stroke-linejoin="round" /><polyline points="-33.42,548.00 -31.03,541.53 -30.49,540.02 -19.15,508.33 -14.89,494.98 19.88,392.72" fill="none" stroke="#bcbcbc" stroke-width="8" stroke-linecap="round" stroke-linejoin="round" /><polyline points="146.47,691.36 150.02,681.93 159.63,656.41 163.69,645.61 166.44,638.31 174.15,617.83 179.24,604.29 179.93,602.47 192.27,569.69 197.43,571.29 200.22,563.68 205.17,550.22 204.22,544.10 217.35,508.36 218.70,504.69 221.19,502.40 223.28,500.47 236.45,464.48 238.35,454.63 257.24,402.15 261.71,398.65 270.79,372.94 269.18,368.99 277.14,344.98 273.01,323.54" fill="none" stroke="#bcbcbc" stroke-width="8" stroke-linecap="round" stroke-linejoin="round" /><polyline points="484.35,-284.90 479.06,-293.59 451.25,-339.21" fill="none" stroke="#bcbcbc" stroke-width="8" stroke-linecap="round" stroke-linejoin="round" /><polyline points="571.47,316.34 699.10,398.42 699.13,398.48 699.13,398.49 722.74,401.56" fill="none" stroke="#bcbcbc" stroke-width="8" stroke-linecap="round" stroke-linejoin="round" /><polyline points="520.28,144.89 656.08,213.05 660.18,216.11 659.90,238.43 662.65,261.32" fill="none" stroke="#bcbcbc" stroke-width="8" stroke-linecap="round" stroke-linejoin="round" /><polyline points="261.39,1349.28 256.50,1364.18 236.71,1424.53 203.06,1526.16 200.67,1533.37 198.25,1540.68 197.58,1548.46" fill="none" stroke="#bcbcbc" stroke-width="8" stroke-linecap="round" stroke-linejoin="round" /><polyline points="643.67,982.68 644.48,975.11 644.66,968.05 644.60,967.80 639.79,947.00 637.81,938.31 636.86,934.11 635.89,929.83 630.61,906.56 620.29,860.05 612.79,832.09 611.73,827.77" fill="none" stroke="#bcbcbc" stroke-width="8" stroke-linecap="round" stroke-linejoin="round" /><polyline points="-30.52,1408.42 -27.16,1398.85 10.66,1291.38 14.95,1279.17" fill="none" stroke="#bcbcbc" stroke-width="8" stroke-linecap="round" stroke-linejoin="round" /><polyline points="818.52,533.26 807.39,530.12 731.84,414.18 722.74,401.56" fill="none" stroke="#bcbcbc" stroke-width="8" stroke-linecap="round" stroke-linejoin="round" /><polyline points="-423.48,811.45 -148.13,877.42 -129.14,884.36" fill="none" stroke="#bcbcbc" stroke-width="8" stroke-linecap="round" stroke-linejoin="round" /><polyline points="444.98,-219.38 552.24,-179.64 567.34,-182.22" fill="none" stroke="#bcbcbc" stroke-width="8" stroke-linecap="round" stroke-linejoin="round" />
    <polyline points="167.20,352.80 168.45,345.18 169.70,337.28 175.07,310.82 188.48,249.24 199.50,194.16 201.51,182.73 204.25,167.21 204.25,167.20" fill="none" stroke="#ffffff" stroke-width="16" stroke-linecap="round" stroke-linejoin="round" />
    <polyline points="167.20,352.80 168.45,345.18 169.70,337.28 175.07,310.82 188.48,249.24 199.50,194.16 201.51,182.73 204.25,167.21 204.25,167.20" fill="none" stroke="#111111" stroke-width="9" stroke-linecap="round" stroke-linejoin="round" />
    
            <g transform="translate(167.20,352.80)">
              <circle r="19" fill="#ffffff" stroke="#111111" stroke-width="4" />
              <text text-anchor="middle" dominant-baseline="central" font-family="Helvetica, Arial, sans-serif"
                font-size="18" font-weight="700" fill="#111111">1</text>
            </g>
            
            <g transform="translate(204.25,167.20)">
              <circle r="19" fill="#ffffff" stroke="#111111" stroke-width="4" />
              <text text-anchor="middle" dominant-baseline="central" font-family="Helvetica, Arial, sans-serif"
                font-size="18" font-weight="700" fill="#111111">2</text>
            </g>
            
  </g>
</svg>
