<svg xmlns="http://www.w3.org/2000/svg" width="520" height="520" viewBox="0 0 520 520">
  <rect width="100%" height="100%" fill="#ffffff" />
  <g>
    <polyline points="505.71,-323.89 507.05,-316.80 515.65,-256.63 514.33,-241.59" fill="none" stroke="#bcbcbc" stroke-width="8" stroke-linecap="round" stroke-linejoin="round" /><polyline points="330.87,177.51 332.95,171.12 343.97,137.23 345.27,133.24 346.59,129.05 374.29,40.70 376.52,33.59 371.42,21.03" fill="none" stroke="#bcbcbc" stroke-width="8" stroke-linecap="round" stroke-linejoin="round" /><polyline points="139.49,98.93 139.04,93.86 148.10,43.13 149.37,36.78 150.32,33.46 152.81,20.59 155.61,4.85 158.67,-9.02 161.70,-22.86 163.60,-26.76 164.85,-29.15" fill="none" stroke="#bcbcbc" stroke-width="8" stroke-linecap="round" stroke-linejoin="round" /><polyline points="192.07,-258.90 189.91,-265.47 167.65,-333.35 166.57,-336.20" fill="none" stroke="#bcbcbc" stroke-width="8" stroke-linecap="round" stroke-linejoin="round" /><polyline points="77.85,338.56 78.51,332.08 78.78,329.11 81.20,302.30 83.85,278.70 84.47,273.19 85.05,266.58 85.11,266.02 86.62,252.88 87.91,239.52 89.34,226.63 90.31,216.59 90.71,210.39 91.06,204.67 91.69,198.23" fill="none" stroke="#bcbcbc" stroke-width="8" stroke-linecap="round" stroke-linejoin="round" /><polyline points="385.43,193.26 387.02,188.27 398.19,153.16 399.46,149.17 401.26,143.49 402.55,139.42 412.44,96.78" fill="none" stroke="#bcbcbc" stroke-width="8" stroke-linecap="round" stroke-linejoin="round" /><polyline points="342.01,-501.25 346.13,-500.61 459.81,-483.15" fill="none" stroke="#bcbcbc" stroke-width="8" stroke-linecap="round" stroke-linejoin="round" /><polyline points="50.19,184.99 38.36,184.43 31.15,184.10 27.23,183.92 23.79,183.76 -3.00,182.51 -40.27,180.78 -58.03,178.26 -63.98,177.42 -69.14,176.51 -104.07,170.34 -108.95,169.48 -110.04,169.29 -116.07,168.26 -120.70,167.47 -150.31,164.85 -155.94,164.35 -158.01,164.17 -164.41,163.72 -176.94,162.86" fill="none" stroke="#bcbcbc" stroke-width="8" stroke-linecap="round" stroke-linejoin="round" /><polyline points="222.08,150.66 224.37,144.14 245.03,86.90 269.87,14.70 271.46,10.18 272.57,7.01 273.47,4.42" fill="none" stroke="#bcbcbc" stroke-width="8" stroke-linecap="round" stroke-linejoin="round" /><polyline points="-158.01,164.17 -158.54,160.49 -158.66,156.49 -157.88,148.44 -156.08,133.74 -154.88,128.81 -152.94,110.97 -152.58,107.00 -152.01,101.89 -151.59,98.10 -150.79,93.80 -149.31,82.23 -148.28,73.38 -146.78,69.76" fill="none" stroke="#bcbcbc" stroke-width="8" stroke-linecap="round" stroke-linejoin="round" /><polyline points="-179.15,65.24 -151.60,69.09 -146.78,69.76 -143.79,70.24 -131.44,72.21 -102.99,76.74 -98.11,77.55" fill="none" stroke="#bcbcbc" stroke-width="8" stroke-linecap="round" stroke-linejoin="round" /><polyline points="327.78,-296.07 327.96,-293.56 328.33,-291.03 329.23,-289.09 330.90,-286.92 334.00,-284.10 341.34,-279.64 397.98,-244.11 432.86,-197.35 459.20,-132.34 460.92,-128.04" fill="none" stroke="#bcbcbc" stroke-width="8" stroke-linecap="round" stroke-linejoin="round" /><polyline points="318.71,-106.37 319.89,-104.43 320.19,-103.92 321.17,-99.02 327.81,-66.89 329.92,-56.69 331.43,-49.43 333.78,-34.71 334.88,-27.92 335.64,-23.78 336.47,-20.04 337.46,-17.85 338.91,-15.33 339.69,-14.14 354.41,6.93 362.37,19.46 364.44,22.46" fill="none" stroke="#bcbcbc" stroke-width="8" stroke-linecap="round" stroke-linejoin="round" /><polyline points="-103.73,295.91 -102.95,291.08 -102.22,287.60 -102.03,287.14 -92.23,263.85 -85.99,248.72 -84.10,243.92 -82.09,238.84 -79.91,234.47 -79.55,233.62 -76.57,226.40 -74.26,220.02 -72.28,214.16 -71.02,210.02 -69.61,204.90 -67.99,198.04 -66.75,192.47 -65.28,184.70 -64.97,182.97 -63.98,177.42" fill="none" stroke="#bcbcbc" stroke-width="8" stroke-linecap="round" stroke-linejoin="round" /><polyline points="370.80,-354.38 402.03,-332.56 406.24,-331.66 409.32,-328.14" fill="none" stroke="#bcbcbc" stroke-width="8" stroke-linecap="round" stroke-linejoin="round" /><polyline points="239.67,-152.86 243.79,-151.27 261.71,-145.41 303.28,-129.47 305.61,-127.15 306.71,-125.41" fill="none" stroke="#bcbcbc" stroke-width="8" stroke-linecap="round" stroke-linejoin="round" /><polyline points="317.12,256.70 319.95,249.33 333.93,211.42 343.81,182.78 345.86,181.84" fill="none" stroke="#bcbcbc" stroke-width="8" stroke-linecap="round" stroke-linejoin="round" /><polyline points="119.60,208.64 121.80,203.77 122.02,203.28 125.79,190.63 131.97,169.80 133.56,164.47 134.79,160.33 134.95,157.92 134.70,152.58" fill="none" stroke="#bcbcbc" stroke-width="8" stroke-linecap="round" stroke-linejoin="round" /><polyline points="376.44,-104.71 372.90,-103.97 364.87,-105.40 363.63,-108.71 349.72,-114.02 346.43,-113.16 333.88,-117.76 332.00,-116.46" fill="none" stroke="#bcbcbc" stroke-width="8" stroke-linecap="round" stroke-linejoin="round" /><polyline points="355.79,-534.94 362.09,-533.39 365.58,-532.79 448.50,-518.41" fill="none" stroke="#bcbcbc" stroke-width="8" stroke-linecap="round" stroke-linejoin="round" /><polyline points="291.34,233.62 294.79,223.90 301.49,205.00 305.82,196.95 312.06,179.50 314.54,172.54" fill="none" stroke="#bcbcbc" stroke-width="8" stroke-linecap="round" stroke-linejoin="round" /><polyline points="-162.99,-143.77 -169.00,-144.05 -170.51,-142.22 -180.97,-129.51 -217.54,-87.26 -222.69,-81.32" fill="none" stroke="#bcbcbc" stroke-width="8" stroke-linecap="round" stroke-linejoin="round" /><polyline points="157.82,-107.59 155.17,-101.72 154.84,-101.01 145.63,-76.99 136.35,-50.56 133.87,-43.50 132.47,-39.86" fill="none" stroke="#bcbcbc" stroke-width="8" stroke-linecap="round" stroke-linejoin="round" /><polyline points="292.93,-377.44 295.85,-373.47 297.94,-368.02 301.20,-360.18 306.41,-347.86 311.04,-336.80 316.34,-324.65 320.28,-315.29 320.86,-313.95 320.89,-313.86 324.06,-306.46 325.01,-304.35 325.91,-302.35 326.86,-300.48 327.58,-298.57 327.78,-296.07" fill="none" stroke="#bcbcbc" stroke-width="8" stroke-linecap="round" stroke-linejoin="round" /><polyline points="68.91,10.80 70.44,9.96 72.59,8.26 73.66,6.05 87.89,-47.90 88.32,-50.94 90.06,-56.50" fill="none" stroke="#bcbcbc" stroke-width="8" stroke-linecap="round" stroke-linejoin="round" /><polyline points="566.52,-73.63 568.54,-67.22 569.96,-60.50 567.19,-34.85 563.99,-15.56 562.25,-8.98 562.09,-8.38 560.56,-4.83 558.48,-1.07 553.61,5.09 555.96,17.13 548.34,42.97 544.13,57.24 535.51,80.60 522.89,109.04 507.49,136.29 502.68,145.15 493.98,159.71 459.23,209.02 451.62,219.28 422.13,257.81 405.21,277.06 381.53,301.12 379.34,301.35 373.99,305.72" fill="none" stroke="#bcbcbc" stroke-width="8" stroke-linecap="round" stroke-linejoin="round" /><polyline points="137.72,348.21 147.42,318.13 149.01,313.16 151.16,310.03 155.79,296.13 157.30,291.41 176.44,231.50 178.37,225.47 179.95,220.18 202.54,149.10" fill="none" stroke="#bcbcbc" stroke-width="8" stroke-linecap="round" stroke-linejoin="round" /><polyline points="364.97,-211.24 373.35,-220.40 375.83,-223.38 392.77,-247.38" fill="none" stroke="#bcbcbc" stroke-width="8" stroke-linecap="round" stroke-linejoin="round" /><polyline points="197.35,-207.61 220.45,-199.57 221.72,-197.50 228.28,-195.30 232.17,-193.97 250.79,-187.68" fill="none" stroke="#bcbcbc" stroke-width="8" stroke-linecap="round" stroke-linejoin="round" /><polyline points="398.64,-367.40 409.32,-328.14 421.69,-281.89 423.56,-278.04 423.86,-273.64 432.24,-257.99 454.87,-215.79 459.82,-208.50 461.25,-206.36 495.06,-143.16 510.60,-129.04 512.78,-126.22 515.85,-123.59 545.35,-98.37 547.36,-96.66 552.65,-93.85" fill="none" stroke="#bcbcbc" stroke-width="8" stroke-linecap="round" stroke-linejoin="round" /><polyline points="283.90,354.60 357.48,311.86 370.57,305.17 373.99,305.72" fill="none" stroke="#bcbcbc" stroke-width="8" stroke-linecap="round" stroke-linejoin="round" /><polyline points="363.67,293.46 368.24,288.04 409.22,206.27 411.94,200.91 414.20,195.60 427.44,162.87 431.38,153.01 442.79,118.48 450.19,74.09 451.07,67.63" fill="none" stroke="#bcbcbc" stroke-width="8" stroke-linecap="round" stroke-linejoin="round" /><polyline points="332.05,-187.40 331.33,-186.66 330.34,-183.22 330.24,-182.88 325.79,-165.76 326.96,-161.29 325.99,-157.28 324.72,-152.03 321.47,-148.26 317.77,-133.30 313.42,-130.02 308.78,-126.83 306.71,-125.41" fill="none" stroke="#bcbcbc" stroke-width="8" stroke-linecap="round" stroke-linejoin="round" /><polyline points="157.82,-107.59 159.71,-112.44 171.08,-141.58 173.56,-147.93 175.60,-153.17 190.13,-190.39 196.67,-205.95 197.35,-207.61 202.44,-219.89 213.84,-248.21 218.02,-260.27 218.95,-263.03 220.20,-266.16" fill="none" stroke="#bcbcbc" stroke-width="8" stroke-linecap="round" stroke-linejoin="round" /><polyline points="285.04,-284.25 287.24,-277.71 359.40,-216.08 398.77,-181.83 457.58,-130.71 462.72,-126.61 465.02,-125.17 475.22,-115.91 488.85,-104.28 519.76,-77.93 529.75,-69.34 536.37,-61.42" fill="none" stroke="#bcbcbc" stroke-width="8" stroke-linecap="round" stroke-linejoin="round" /><polyline points="404.35,-390.44 408.01,-392.79 429.69,-401.80 434.15,-406.48" fill="none" stroke="#bcbcbc" stroke-width="8" stroke-linecap="round" stroke-linejoin="round" /><polyline points="429.39,158.00 399.46,149.17 345.27,133.24" fill="none" stroke="#bcbcbc" stroke-width="8" stroke-linecap="round" stroke-linejoin="round" /><polyline points="332.76,-478.65 336.85,-475.83 470.09,-446.19" fill="none" stroke="#bcbcbc" stroke-width="8" stroke-linecap="round" stroke-linejoin="round" /><polyline points="497.34,-40.02 490.46,-55.34 475.18,-91.78 474.04,-94.68 471.42,-101.33 461.57,-126.39 460.95,-128.02" fill="none" stroke="#bcbcbc" stroke-width="8" stroke-linecap="round" stroke-linejoin="round" /><polyline points="292.93,-377.44 285.53,-379.55 280.10,-381.17 269.05,-384.45 263.43,-386.05 260.22,-386.94 256.02,-388.14" fill="none" stroke="#bcbcbc" stroke-width="8" stroke-linecap="round" stroke-linejoin="round" /><polyline points="100.06,-177.01 99.68,-178.24 99.34,-179.09 97.81,-182.88 91.91,-196.65 86.30,-210.63 85.08,-213.94 83.69,-217.74 82.69,-220.85 81.04,-225.52 80.86,-226.01 75.49,-239.24 65.64,-264.11 63.42,-265.38 61.85,-269.41 58.70,-280.33 53.32,-293.87 52.15,-296.95" fill="none" stroke="#bcbcbc" stroke-width="8" stroke-linecap="round" stroke-linejoin="round" /><polyline points="147.42,318.13 153.02,319.85 171.13,325.36 176.81,327.09" fill="none" stroke="#bcbcbc" stroke-width="8" stroke-linecap="round" stroke-linejoin="round" /><polyline points="485.70,-383.93 486.76,-388.20 486.33,-389.82 485.81,-391.77 482.51,-403.89 475.13,-429.50 471.24,-442.59 470.09,-446.19 459.81,-483.15 454.26,-503.08 448.50,-518.41 443.29,-532.24 438.11,-541.75 433.08,-546.77 394.44,-593.98 391.58,-597.34 389.69,-600.45" fill="none" stroke="#bcbcbc" stroke-width="8" stroke-linecap="round" stroke-linejoin="round" /><polyline points="327.78,-296.07 325.79,-295.30 322.11,-294.29 321.74,-294.19 306.35,-290.25 288.66,-285.27 285.04,-284.25 283.43,-283.74 279.18,-282.38 275.55,-281.36 259.68,-276.95 233.59,-269.54 223.86,-267.08 220.20,-266.16 202.81,-261.89 192.07,-258.90 169.32,-252.55 146.83,-246.21 144.23,-245.49 125.44,-240.27 116.77,-237.87 112.40,-235.80 104.11,-231.69 87.65,-223.34 86.51,-222.76 82.69,-220.85 80.36,-219.68 77.11,-217.98 65.54,-211.92 44.48,-200.10 26.88,-190.88 24.36,-189.57 21.00,-189.36 18.98,-188.28 18.58,-188.07 -0.51,-177.61 -4.51,-177.63 -9.10,-175.22 -10.70,-174.39 -12.05,-173.68 -15.24,-172.01 -17.76,-166.28 -28.56,-160.49 -32.00,-158.65 -35.71,-156.63 -50.75,-148.45 -58.52,-144.22 -62.43,-143.09" fill="none" stroke="#bcbcbc" stroke-width="8" stroke-linecap="round" stroke-linejoin="round" /><polyline points="544.13,57.24 536.10,57.97 511.05,60.27 509.92,60.37 508.32,60.52 505.73,60.76 481.44,62.99 472.99,62.20 463.15,64.67 455.27,66.60 451.07,67.63 440.64,68.03 431.61,67.57 427.01,67.08 423.09,65.89 420.21,64.30 409.46,56.70 383.36,38.78 380.90,37.11 378.40,35.41 376.52,33.59" fill="none" stroke="#bcbcbc" stroke-width="8" stroke-linecap="round" stroke-linejoin="round" /><polyline points="-47.06,-245.40 -37.59,-226.86 -36.16,-221.56 -28.18,-206.34 -24.89,-201.99 -11.55,-176.04 -10.70,-174.39" fill="none" stroke="#bcbcbc" stroke-width="8" stroke-linecap="round" stroke-linejoin="round" /><polyline points="243.19,-80.52 241.77,-76.62 241.37,-75.41 239.52,-69.81 227.80,-37.12 221.98,-20.88 221.79,-20.33 219.45,-15.29 218.11,-12.29" fill="none" stroke="#bcbcbc" stroke-width="8" stroke-linecap="round" stroke-linejoin="round" /><polyline points="398.64,-367.40 397.34,-370.18 393.93,-370.63 382.88,-368.09 380.64,-368.38 378.88,-370.74 375.75,-385.11 392.68,-387.73 400.52,-390.04 404.35,-390.44 408.48,-375.77" fill="none" stroke="#bcbcbc" stroke-width="8" stroke-linecap="round" stroke-linejoin="round" /><polyline points="459.82,-208.50 464.18,-210.94 486.08,-224.14 491.93,-227.62 502.18,-233.73 519.03,-244.63 522.97,-247.46 552.53,-265.80" fill="none" stroke="#bcbcbc" stroke-width="8" stroke-linecap="round" stroke-linejoin="round" /><polyline points="563.16,-121.88 555.69,-124.10 551.34,-127.67 534.74,-142.04 534.17,-142.54 530.16,-146.12 527.80,-150.31 486.08,-224.14" fill="none" stroke="#bcbcbc" stroke-width="8" stroke-linecap="round" stroke-linejoin="round" /><polyline points="92.36,-127.73 157.82,-107.59 163.16,-105.90 212.00,-90.41 213.02,-90.09 220.34,-87.77 223.94,-86.63 228.61,-85.35 238.25,-82.09 243.19,-80.52 247.62,-79.12 283.97,-67.59 322.35,-55.53 325.52,-54.53 329.92,-56.69" fill="none" stroke="#bcbcbc" stroke-width="8" stroke-linecap="round" stroke-linejoin="round" /><polyline points="284.82,-450.84 313.17,-476.89 317.97,-481.29" fill="none" stroke="#bcbcbc" stroke-width="8" stroke-linecap="round" stroke-linejoin="round" /><polyline points="-189.97,-30.51 -85.93,-19.36" fill="none" stroke="#bcbcbc" stroke-width="8" stroke-linecap="round" stroke-linejoin="round" /><polyline points="123.89,-320.86 145.75,-328.68 168.31,-336.83 182.32,-342.28 225.11,-357.84 237.53,-362.13 240.12,-363.03 243.23,-364.10 246.72,-365.30 247.15,-365.45 254.20,-368.28 257.26,-369.51" fill="none" stroke="#bcbcbc" stroke-width="8" stroke-linecap="round" stroke-linejoin="round" /><polyline points="270.75,208.23 291.34,233.62 303.94,246.31 309.40,250.24 317.12,256.70 324.38,262.80 330.61,268.88 330.76,271.97" fill="none" stroke="#bcbcbc" stroke-width="8" stroke-linecap="round" stroke-linejoin="round" /><polyline points="292.93,-377.44 301.00,-397.66 314.06,-430.96 332.76,-478.65 342.01,-501.25 355.79,-534.94 367.08,-562.53 369.10,-566.20 379.04,-582.44 379.68,-583.49 383.32,-590.63 389.69,-600.45 393.25,-605.93 398.28,-613.68" fill="none" stroke="#bcbcbc" stroke-width="8" stroke-linecap="round" stroke-linejoin="round" /><polyline points="102.59,163.19 101.27,164.25 100.39,165.51 98.61,170.75 97.39,174.54 91.70,191.54 90.92,193.99 90.43,195.51 85.21,194.02 72.51,189.76 59.92,185.54 50.19,184.98" fill="none" stroke="#bcbcbc" stroke-width="8" stroke-linecap="round" stroke-linejoin="round" /><polyline points="-146.19,281.46 -125.45,227.89 -123.14,222.06 -121.07,216.44 -118.57,209.65 -115.50,198.98 -112.30,185.71 -110.99,176.20 -110.04,169.29 -108.69,164.20 -103.81,125.89 -98.11,77.55 -95.16,54.51 -91.86,27.44 -85.93,-19.36 -84.99,-27.31 -78.99,-76.25 -78.98,-78.98 -77.66,-93.50 -73.83,-124.17 -72.87,-129.52 -71.87,-132.52 -70.31,-135.82 -68.79,-138.39 -65.43,-142.02 -62.43,-143.05" fill="none" stroke="#bcbcbc" stroke-width="8" stroke-linecap="round" stroke-linejoin="round" /><polyline points="306.71,-125.41 307.84,-123.61 311.65,-117.68 317.34,-108.55 318.71,-106.37 320.99,-108.09 332.00,-116.46" fill="none" stroke="#bcbcbc" stroke-width="8" stroke-linecap="round" stroke-linejoin="round" /><polyline points="314.06,-430.96 426.15,-410.69 437.92,-404.50 481.84,-382.73 485.70,-383.93" fill="none" stroke="#bcbcbc" stroke-width="8" stroke-linecap="round" stroke-linejoin="round" /><polyline points="100.06,-177.01 98.07,-174.11 80.19,-165.38 67.05,-148.69 52.88,-139.92 43.19,-132.60 33.94,-125.06 29.20,-120.74 20.82,-110.11 11.46,-96.69 9.91,-94.21" fill="none" stroke="#bcbcbc" stroke-width="8" stroke-linecap="round" stroke-linejoin="round" /><polyline points="118.96,-165.04 118.19,-163.31 116.49,-160.84 113.29,-156.89 94.40,-133.03 84.40,-106.12 33.96,-125.08" fill="none" stroke="#bcbcbc" stroke-width="8" stroke-linecap="round" stroke-linejoin="round" /><polyline points="43.19,-132.60 41.23,-138.51 32.79,-164.07 29.52,-169.12 24.03,-185.57 23.56,-186.99 24.36,-189.57 23.05,-193.76 -3.33,-277.97" fill="none" stroke="#bcbcbc" stroke-width="8" stroke-linecap="round" stroke-linejoin="round" /><polyline points="352.25,-592.06 373.09,-591.51 374.07,-591.49 378.06,-591.37 383.32,-590.63" fill="none" stroke="#bcbcbc" stroke-width="8" stroke-linecap="round" stroke-linejoin="round" /><polyline points="245.03,86.90 237.91,86.81 177.64,94.90 173.30,95.36 168.33,95.89 139.49,98.93 100.63,103.03 80.04,105.21 68.64,106.41 59.39,107.53 54.64,108.11 49.29,108.76 23.44,111.90 17.24,112.65 -1.85,114.74 -103.81,125.89" fill="none" stroke="#bcbcbc" stroke-width="8" stroke-linecap="round" stroke-linejoin="round" /><polyline points="155.79,296.13 150.46,294.41 125.52,286.39 120.48,284.76 116.10,283.36 89.68,274.87 84.47,273.19 77.58,270.97 35.53,257.44 30.79,255.92" fill="none" stroke="#bcbcbc" stroke-width="8" stroke-linecap="round" stroke-linejoin="round" /><polyline points="260.07,-208.70 274.57,-204.18 327.62,-187.80 328.11,-187.65 332.05,-187.40" fill="none" stroke="#bcbcbc" stroke-width="8" stroke-linecap="round" stroke-linejoin="round" /><polyline points="409.32,-328.14 481.48,-326.87" fill="none" stroke="#bcbcbc" stroke-width="8" stroke-linecap="round" stroke-linejoin="round" /><polyline points="373.99,305.72 363.67,293.46 359.35,288.43 355.63,284.95 350.68,281.26 340.56,275.19 330.76,271.97 310.84,265.82 294.55,260.64 303.94,246.31" fill="none" stroke="#bcbcbc" stroke-width="8" stroke-linecap="round" stroke-linejoin="round" /><polyline points="270.75,208.23 256.39,190.50 253.66,187.13 239.19,167.20 235.92,161.12 236.70,153.87 241.06,153.83 251.82,155.90 268.20,159.05" fill="none" stroke="#bcbcbc" stroke-width="8" stroke-linecap="round" stroke-linejoin="round" /><polyline points="82.86,66.20 85.51,71.90 100.63,103.03 123.13,149.33 126.00,155.23" fill="none" stroke="#bcbcbc" stroke-width="8" stroke-linecap="round" stroke-linejoin="round" /><polyline points="-159.42,207.23 -154.01,209.44 -128.67,219.80 -123.14,222.06 -117.32,224.44 -87.48,236.63 -82.09,238.84" fill="none" stroke="#bcbcbc" stroke-width="8" stroke-linecap="round" stroke-linejoin="round" /><polyline points="95.31,20.03 148.10,43.13" fill="none" stroke="#bcbcbc" stroke-width="8" stroke-linecap="round" stroke-linejoin="round" /><polyline points="332.05,-187.40 340.09,-186.98 340.60,-186.52 344.21,-183.32 349.51,-178.59 350.49,-176.68 368.77,-160.68 370.12,-158.13 382.97,-146.79 386.20,-145.80 396.20,-137.05 398.44,-136.02 413.52,-123.23 416.87,-120.26 418.73,-117.31" fill="none" stroke="#bcbcbc" stroke-width="8" stroke-linecap="round" stroke-linejoin="round" /><polyline points="-174.32,20.09 -91.86,27.44" fill="none" stroke="#bcbcbc" stroke-width="8" stroke-linecap="round" stroke-linejoin="round" /><polyline points="9.79,327.09 12.34,321.65 13.00,319.23 16.58,306.03 29.55,260.30 30.79,255.92 32.11,251.12 37.98,229.63 47.91,193.35 50.19,184.99" fill="none" stroke="#bcbcbc" stroke-width="8" stroke-linecap="round" stroke-linejoin="round" /><polyline points="82.86,66.20 95.31,20.03 68.91,10.80 62.00,14.88 58.85,17.28 56.52,20.43 54.88,24.60 48.81,47.03 53.70,49.53 58.65,50.73 69.59,53.57 77.78,56.18 82.86,66.20" fill="none" stroke="#bcbcbc" stroke-width="8" stroke-linecap="round" stroke-linejoin="round" /><polyline points="48.81,47.03 43.03,46.23 -91.86,27.44" fill="none" stroke="#bcbcbc" stroke-width="8" stroke-linecap="round" stroke-linejoin="round" /><polyline points="268.20,159.05 280.71,161.78 314.54,172.53 324.00,175.53 346.46,182.01 369.08,188.54 385.83,193.37 412.62,201.11 418.15,202.71 431.67,207.24 453.92,213.16 455.88,213.53" fill="none" stroke="#bcbcbc" stroke-width="8" stroke-linecap="round" stroke-linejoin="round" /><polyline points="284.07,354.50 279.50,355.65 274.56,369.40 266.91,367.23 232.11,355.37 227.92,354.48 218.60,353.81 176.45,353.98 167.16,352.79 146.18,349.59 137.72,348.21 77.69,338.53 54.45,334.82 10.12,327.15 2.96,325.73 -97.08,297.77 -103.40,296.00 -146.19,281.46 -156.72,277.72 -183.02,266.82 -198.01,261.15" fill="none" stroke="#bcbcbc" stroke-width="8" stroke-linecap="round" stroke-linejoin="round" /><polyline points="375.75,-385.11 371.42,-386.00 313.60,-379.17 292.93,-377.44" fill="none" stroke="#bcbcbc" stroke-width="8" stroke-linecap="round" stroke-linejoin="round" /><polyline points="268.20,159.05 270.22,155.66 282.36,124.50 295.91,77.39 299.37,67.24 301.22,64.48 314.31,22.47 314.96,17.45 315.46,14.17" fill="none" stroke="#bcbcbc" stroke-width="8" stroke-linecap="round" stroke-linejoin="round" /><polyline points="327.78,-296.07 329.17,-296.59 331.04,-298.08 333.88,-301.41 370.80,-354.38 380.64,-368.38" fill="none" stroke="#bcbcbc" stroke-width="8" stroke-linecap="round" stroke-linejoin="round" /><polyline points="492.10,-101.49 492.86,-103.66 511.42,-125.50 512.78,-126.22 516.00,-130.63 526.80,-143.03 530.16,-146.12" fill="none" stroke="#bcbcbc" stroke-width="8" stroke-linecap="round" stroke-linejoin="round" /><polyline points="508.32,60.52 508.06,57.60 507.86,55.34 506.89,51.02 505.72,48.20 504.26,40.79 504.13,38.11 503.14,32.12 498.72,29.81 495.19,31.16 488.87,32.68 483.87,33.46 479.07,34.61 472.45,36.12 469.43,36.81" fill="none" stroke="#bcbcbc" stroke-width="8" stroke-linecap="round" stroke-linejoin="round" /><polyline points="20.74,-46.70 34.24,-78.33 34.99,-80.39" fill="none" stroke="#bcbcbc" stroke-width="8" stroke-linecap="round" stroke-linejoin="round" /><polyline points="376.44,-104.71 382.95,-107.22 386.35,-108.54 388.98,-111.20 399.82,-113.88 403.46,-112.95 411.31,-114.97 417.30,-116.51 418.73,-117.31 424.53,-118.73 454.22,-126.01 460.95,-128.02" fill="none" stroke="#bcbcbc" stroke-width="8" stroke-linecap="round" stroke-linejoin="round" /><polyline points="102.59,163.19 116.59,158.11 121.28,156.68 126.00,155.23 134.70,152.58 141.47,151.60 164.60,149.07 169.24,148.82 189.93,149.00 202.54,149.10 207.28,148.86 214.87,149.63 217.24,149.97 222.08,150.66 236.70,153.87" fill="none" stroke="#bcbcbc" stroke-width="8" stroke-linecap="round" stroke-linejoin="round" /><polyline points="169.32,-252.55 167.00,-260.39 158.38,-289.53 147.91,-322.75 145.75,-328.68 143.56,-334.23 140.78,-342.24" fill="none" stroke="#bcbcbc" stroke-width="8" stroke-linecap="round" stroke-linejoin="round" /><polyline points="144.25,217.20 146.09,211.39 164.71,152.68 164.60,149.07" fill="none" stroke="#bcbcbc" stroke-width="8" stroke-linecap="round" stroke-linejoin="round" /><polyline points="169.24,148.82 172.93,99.39 173.30,95.36 173.86,90.67 173.87,90.46 174.11,84.73 175.34,69.17 176.04,61.92 176.98,53.69 177.85,47.76 178.62,44.04 179.60,41.23 181.51,34.89 185.47,21.70 190.50,4.66 196.04,-12.76 197.17,-16.31 198.08,-18.89" fill="none" stroke="#bcbcbc" stroke-width="8" stroke-linecap="round" stroke-linejoin="round" /><polyline points="48.81,47.03 47.83,51.41 47.99,52.81 54.00,102.81 54.64,108.11 54.36,113.56 52.79,144.66 52.13,157.65 51.79,164.35 51.19,176.30 50.87,182.52 50.19,184.99" fill="none" stroke="#bcbcbc" stroke-width="8" stroke-linecap="round" stroke-linejoin="round" /><polyline points="20.74,-46.70 -1.10,-53.19 -3.88,-54.97 -17.47,-58.93 -21.29,-58.89 -38.36,-64.03 -41.12,-66.06 -56.66,-70.77 -75.73,-75.97 -75.82,-75.98 -78.99,-76.25" fill="none" stroke="#bcbcbc" stroke-width="8" stroke-linecap="round" stroke-linejoin="round" /><polyline points="418.73,-117.31 419.48,-116.32 422.65,-111.60 428.51,-102.87 434.02,-97.35 444.61,-85.46 442.82,-74.47 441.91,-70.35 440.65,-68.61 443.30,-64.68 447.41,-56.22 455.62,-40.38 459.67,-32.58 462.18,-25.57 463.32,-22.32" fill="none" stroke="#bcbcbc" stroke-width="8" stroke-linecap="round" stroke-linejoin="round" /><polyline points="474.04,-94.68 470.99,-93.73 450.94,-87.49 448.06,-86.57 444.61,-85.46" fill="none" stroke="#bcbcbc" stroke-width="8" stroke-linecap="round" stroke-linejoin="round" /><polyline points="329.92,-56.69 336.19,-58.73 381.71,-81.97 387.81,-84.94 409.26,-91.14 430.06,-96.99 434.02,-97.35" fill="none" stroke="#bcbcbc" stroke-width="8" stroke-linecap="round" stroke-linejoin="round" /><polyline points="334.88,-27.92 387.36,-52.34 389.57,-53.80 394.70,-55.29 429.67,-65.47 434.98,-67.50 440.65,-68.61" fill="none" stroke="#bcbcbc" stroke-width="8" stroke-linecap="round" stroke-linejoin="round" /><polyline points="324.17,-539.85 345.42,-537.22 347.55,-536.96 355.79,-534.94" fill="none" stroke="#bcbcbc" stroke-width="8" stroke-linecap="round" stroke-linejoin="round" /><polyline points="505.71,-323.89 509.48,-324.68 523.56,-317.78 525.41,-315.94 551.84,-271.22 552.53,-265.80 555.97,-262.93 555.42,-260.96 555.34,-257.73 555.82,-253.23 562.81,-224.47 563.43,-204.55 564.41,-172.74 566.06,-129.93 559.36,-111.28 555.04,-99.91 548.74,-83.88 546.91,-79.25 545.73,-77.95 543.82,-65.55" fill="none" stroke="#bcbcbc" stroke-width="8" stroke-linecap="round" stroke-linejoin="round" /><polyline points="554.57,10.00 548.14,7.20 532.08,-4.00 510.89,-18.89 499.24,-28.31 491.38,-36.73" fill="none" stroke="#bcbcbc" stroke-width="8" stroke-linecap="round" stroke-linejoin="round" /><polyline points="294.55,260.64 288.24,258.64 277.99,255.40 273.11,253.85 267.37,252.03 260.11,249.73 253.55,247.65 247.07,245.59 218.16,236.42 213.10,234.81 206.81,232.82 205.42,232.38 188.89,228.02 184.22,226.89 178.37,225.47 172.24,223.98 150.17,218.63 144.25,217.20 137.89,214.99 124.61,210.38 119.60,208.64 115.12,207.18 94.31,199.79 91.69,198.23 90.43,195.51" fill="none" stroke="#bcbcbc" stroke-width="8" stroke-linecap="round" stroke-linejoin="round" /><polyline points="389.57,-53.80 388.04,-59.29 383.47,-75.67 381.71,-81.97 379.17,-86.67 378.94,-87.55 377.44,-93.09 379.18,-95.55 377.09,-102.53 376.44,-104.71" fill="none" stroke="#bcbcbc" stroke-width="8" stroke-linecap="round" stroke-linejoin="round" /><polyline points="381.93,-254.20 386.27,-256.24 410.00,-269.32 423.56,-278.04 433.13,-284.56 435.24,-286.14 442.94,-291.49 450.91,-297.38 455.96,-301.05 461.99,-305.46 482.92,-314.90 485.63,-314.76 489.60,-316.63 505.71,-323.89" fill="none" stroke="#bcbcbc" stroke-width="8" stroke-linecap="round" stroke-linejoin="round" /><polyline points="118.96,-165.04 122.39,-163.65 124.65,-162.95 167.08,-149.92 173.56,-147.93" fill="none" stroke="#bcbcbc" stroke-width="8" stroke-linecap="round" stroke-linejoin="round" /><polyline points="-184.09,-69.64 -214.40,-78.81" fill="none" stroke="#bcbcbc" stroke-width="8" stroke-linecap="round" stroke-linejoin="round" /><polyline points="305.54,-497.04 313.06,-487.52 314.18,-486.10 317.97,-481.29 322.30,-480.79 331.18,-479.74 332.76,-478.65" fill="none" stroke="#bcbcbc" stroke-width="8" stroke-linecap="round" stroke-linejoin="round" /><polyline points="566.52,-73.63 554.61,-71.41 542.40,-64.78 531.08,-58.48 520.37,-53.12 507.44,-46.10 498.07,-40.41 479.56,-30.49 407.29,5.87 388.56,14.12 376.18,19.47 370.04,21.48 364.97,22.42 356.66,22.93 344.84,21.25 315.34,14.17 273.47,4.42 218.38,-12.20 198.08,-18.89 164.85,-29.15 133.07,-39.63 86.45,-57.92 63.14,-67.95 35.04,-80.44 -11.57,-105.98 -22.50,-113.22 -50.16,-130.62 -61.76,-142.22 -79.15,-164.74 -107.81,-194.29 -119.08,-204.21" fill="none" stroke="#bcbcbc" stroke-width="8" stroke-linecap="round" stroke-linejoin="round" /><polyline points="340.56,275.19 341.05,272.46 342.81,268.01 359.34,229.34 365.58,214.84 372.94,196.78 374.74,190.17" fill="none" stroke="#bcbcbc" stroke-width="8" stroke-linecap="round" stroke-linejoin="round" /><polyline points="23.44,111.90 4.66,102.81 -38.07,82.14 -90.48,56.77 -95.16,54.51" fill="none" stroke="#bcbcbc" stroke-width="8" stroke-linecap="round" stroke-linejoin="round" /><polyline points="332.05,-187.40 336.79,-192.25 349.39,-205.16 359.40,-216.08" fill="none" stroke="#bcbcbc" stroke-width="8" stroke-linecap="round" stroke-linejoin="round" /><polyline points="-32.00,-158.65 -37.20,-165.55 -61.61,-197.86 -96.46,-226.05" fill="none" stroke="#bcbcbc" stroke-width="8" stroke-linecap="round" stroke-linejoin="round" /><polyline points="-183.21,266.75 -178.44,255.45 -163.29,217.68 -161.46,212.72 -159.42,207.23 -158.65,205.24 -158.44,202.13 -156.50,172.77 -155.94,164.35" fill="none" stroke="#bcbcbc" stroke-width="8" stroke-linecap="round" stroke-linejoin="round" /><polyline points="-193.54,-36.84 -184.09,-69.64 -171.61,-112.90 -170.06,-118.25 -168.34,-124.34 -164.50,-137.96 -164.10,-139.39 -162.99,-143.77 -161.24,-148.72 -160.81,-149.92 -158.59,-155.42 -154.24,-165.02 -152.94,-167.78" fill="none" stroke="#bcbcbc" stroke-width="8" stroke-linecap="round" stroke-linejoin="round" /><polyline points="-170.06,-118.25 -150.92,-113.36 -110.39,-102.94 -87.29,-95.75 -77.66,-93.50" fill="none" stroke="#bcbcbc" stroke-width="8" stroke-linecap="round" stroke-linejoin="round" /><polyline points="223.86,-267.08 224.51,-271.06 225.17,-275.20 227.97,-289.03 234.99,-321.22 240.75,-350.01 241.80,-355.99 243.23,-364.10 243.23,-364.11" fill="none" stroke="#bcbcbc" stroke-width="8" stroke-linecap="round" stroke-linejoin="round" /><polyline points="283.43,-283.74 283.43,-283.75 282.23,-290.05 282.04,-290.82 279.11,-302.73 279.12,-302.77 277.12,-310.84 268.66,-339.84 267.59,-342.95 261.88,-358.48 260.02,-363.12 258.82,-366.11 257.27,-369.50 257.26,-369.51 257.26,-369.52 256.13,-382.01 256.02,-388.14" fill="none" stroke="#bcbcbc" stroke-width="8" stroke-linecap="round" stroke-linejoin="round" /><polyline points="270.75,208.23 268.58,210.58 265.33,214.44 256.20,240.19 253.55,247.65" fill="none" stroke="#bcbcbc" stroke-width="8" stroke-linecap="round" stroke-linejoin="round" /><polyline points="118.96,-165.04 120.21,-168.42 120.49,-169.20 126.43,-185.77 128.65,-192.75 146.83,-246.21" fill="none" stroke="#bcbcbc" stroke-width="8" stroke-linecap="round" stroke-linejoin="round" /><polyline points="213.02,-90.09 214.88,-95.02 219.90,-108.36 222.03,-114.01 223.46,-117.82 227.49,-128.53 230.16,-135.61 230.52,-136.56 236.97,-153.70 239.67,-152.86 241.13,-156.84 243.71,-163.88 243.22,-167.07 250.08,-185.76 250.79,-187.68 252.09,-188.88 253.18,-189.88 260.07,-208.70 261.06,-213.85 270.94,-241.28 273.28,-243.11 278.03,-256.55 277.18,-258.61 281.34,-271.17 279.18,-282.38" fill="none" stroke="#bcbcbc" stroke-width="8" stroke-linecap="round" stroke-linejoin="round" /><polyline points="389.69,-600.45 386.92,-604.99 372.38,-628.84" fill="none" stroke="#bcbcbc" stroke-width="8" stroke-linecap="round" stroke-linejoin="round" /><polyline points="435.24,-286.14 501.97,-243.23 501.99,-243.20 501.99,-243.19 514.33,-241.59" fill="none" stroke="#bcbcbc" stroke-width="8" stroke-linecap="round" stroke-linejoin="round" /><polyline points="408.48,-375.77 479.48,-340.13 481.62,-338.54 481.48,-326.87 482.92,-314.90" fill="none" stroke="#bcbcbc" stroke-width="8" stroke-linecap="round" stroke-linejoin="round" /><polyline points="273.11,253.85 270.55,261.64 260.21,293.19 242.61,346.32 241.36,350.08 240.10,353.90 239.74,357.97" fill="none" stroke="#bcbcbc" stroke-width="8" stroke-linecap="round" stroke-linejoin="round" /><polyline points="472.99,62.20 473.41,58.25 473.51,54.55 473.48,54.42 470.96,43.55 469.93,39.00 469.43,36.81 468.92,34.57 466.16,22.41 460.76,-1.91 456.84,-16.52 456.29,-18.78" fill="none" stroke="#bcbcbc" stroke-width="8" stroke-linecap="round" stroke-linejoin="round" /><polyline points="120.48,284.76 122.24,279.76 142.01,223.58 144.25,217.20" fill="none" stroke="#bcbcbc" stroke-width="8" stroke-linecap="round" stroke-linejoin="round" /><polyline points="564.41,-172.74 558.60,-174.38 519.09,-234.99 514.33,-241.59" fill="none" stroke="#bcbcbc" stroke-width="8" stroke-linecap="round" stroke-linejoin="round" /><polyline points="-84.99,-27.31 58.99,7.18 68.91,10.80" fill="none" stroke="#bcbcbc" stroke-width="8" stroke-linecap="round" stroke-linejoin="round" /><polyline points="369.10,-566.20 425.19,-545.42 433.08,-546.77" fill="none" stroke="#bcbcbc" stroke-width="8" stroke-linecap="round" stroke-linejoin="round" />
    <polyline points="167.20,352.80 175.74,331.01 176.81,327.09 210.72,241.02 213.10,234.81 215.03,229.55 235.29,170.60 239.19,167.20" fill="none" stroke="#ffffff" stroke-width="16" stroke-linecap="round" stroke-linejoin="round" />
    <polyline points="167.20,352.80 175.74,331.01 176.81,327.09 210.72,241.02 213.10,234.81 215.03,229.55 235.29,170.60 239.19,167.20" fill="none" stroke="#111111" stroke-width="9" stroke-linecap="round" stroke-linejoin="round" />
    
            <g transform="translate(167.20,352.80)">
              <circle r="19" fill="#ffffff" stroke="#111111" stroke-width="4" />
              <text text-anchor="middle" dominant-baseline="central" font-family="Helvetica, Arial, sans-serif"
                font-size="18" font-weight="700" fill="#111111">1</text>
            </g>
            
            <g transform="translate(239.19,167.20)">
              <circle r="19" fill="#ffffff" stroke="#111111" stroke-width="4" />
              <text text-anchor="middle" dominant-baseline="central" font-family="Helvetica, Arial, sans-serif"
                font-size="18" font-weight="700" fill="#111111">2</text>
            </g>
            
  </g>
</svg>
