<svg xmlns="http://www.w3.org/2000/svg" width="520" height="520" viewBox="0 0 520 520">
  <rect width="100%" height="100%" fill="#ffffff" />
  <g>
    <polyline points="611.00,281.42 613.37,294.03 628.66,400.99 626.32,427.73" fill="none" stroke="#bcbcbc" stroke-width="8" stroke-linecap="round" stroke-linejoin="round" /><polyline points="300.25,1172.77 303.94,1161.41 323.53,1101.17 325.83,1094.07 328.17,1086.62 377.42,929.57 381.38,916.94 372.31,894.59" fill="none" stroke="#bcbcbc" stroke-width="8" stroke-linecap="round" stroke-linejoin="round" /><polyline points="-39.92,1033.08 -40.71,1024.06 -24.61,933.88 -22.36,922.60 -20.67,916.69 -16.24,893.82 -11.26,865.83 -5.83,841.18 -0.45,816.58 2.94,809.65 5.16,805.40" fill="none" stroke="#bcbcbc" stroke-width="8" stroke-linecap="round" stroke-linejoin="round" /><polyline points="53.53,396.96 49.71,385.28 10.14,264.60 8.21,259.54" fill="none" stroke="#bcbcbc" stroke-width="8" stroke-linecap="round" stroke-linejoin="round" /><polyline points="-149.48,1459.08 -148.30,1447.56 -147.83,1442.28 -143.52,1394.63 -138.80,1352.67 -137.70,1342.87 -136.68,1331.12 -136.57,1330.13 -133.89,1306.77 -131.59,1283.01 -129.05,1260.09 -127.34,1242.25 -126.62,1231.23 -125.99,1221.07 -124.87,1209.60" fill="none" stroke="#bcbcbc" stroke-width="8" stroke-linecap="round" stroke-linejoin="round" /><polyline points="397.21,1200.77 400.03,1191.91 419.89,1129.50 422.14,1122.41 425.35,1112.30 427.64,1105.06 445.22,1029.26" fill="none" stroke="#bcbcbc" stroke-width="8" stroke-linecap="round" stroke-linejoin="round" /><polyline points="320.04,-33.86 327.37,-32.74 529.41,-1.69" fill="none" stroke="#bcbcbc" stroke-width="8" stroke-linecap="round" stroke-linejoin="round" /><polyline points="-198.63,1186.07 -219.66,1185.09 -232.49,1184.49 -239.45,1184.17 -245.56,1183.88 -293.18,1181.67 -359.42,1178.59 -390.99,1174.11 -401.56,1172.61 -410.72,1170.99 -472.82,1160.03 -481.50,1158.50 -483.42,1158.17 -494.14,1156.33 -502.38,1154.92 -555.00,1150.27 -565.02,1149.39 -568.69,1149.06 -580.07,1148.27 -602.34,1146.73" fill="none" stroke="#bcbcbc" stroke-width="8" stroke-linecap="round" stroke-linejoin="round" /><polyline points="106.88,1125.05 110.95,1113.46 147.66,1011.70 191.81,883.35 194.64,875.30 196.61,869.68 198.21,865.06" fill="none" stroke="#bcbcbc" stroke-width="8" stroke-linecap="round" stroke-linejoin="round" /><polyline points="-568.69,1149.06 -569.63,1142.52 -569.85,1135.41 -568.46,1121.10 -565.26,1094.97 -563.13,1086.20 -559.67,1054.50 -559.04,1047.43 -558.03,1038.36 -557.28,1031.61 -555.86,1023.97 -553.23,1003.40 -551.40,987.67 -548.72,981.24" fill="none" stroke="#bcbcbc" stroke-width="8" stroke-linecap="round" stroke-linejoin="round" /><polyline points="-606.26,973.20 -557.30,980.04 -548.72,981.24 -543.41,982.08 -521.46,985.58 -470.90,993.64 -462.22,995.08" fill="none" stroke="#bcbcbc" stroke-width="8" stroke-linecap="round" stroke-linejoin="round" /><polyline points="294.75,330.89 295.07,335.34 295.73,339.85 297.32,343.30 300.29,347.15 305.80,352.16 318.85,360.10 419.51,423.26 481.51,506.38 528.33,621.96 531.39,629.59" fill="none" stroke="#bcbcbc" stroke-width="8" stroke-linecap="round" stroke-linejoin="round" /><polyline points="278.63,668.12 280.72,671.57 281.26,672.47 282.99,681.19 294.80,738.30 298.55,756.43 301.23,769.34 305.41,795.51 307.36,807.58 308.71,814.94 310.19,821.59 311.95,825.47 314.53,829.96 315.92,832.08 342.07,869.53 356.22,891.81 359.91,897.14" fill="none" stroke="#bcbcbc" stroke-width="8" stroke-linecap="round" stroke-linejoin="round" /><polyline points="-472.22,1383.25 -470.83,1374.68 -469.53,1368.48 -469.19,1367.66 -451.78,1326.27 -440.69,1299.36 -437.32,1290.84 -433.75,1281.81 -429.87,1274.04 -429.24,1272.53 -423.93,1259.70 -419.83,1248.34 -416.31,1237.93 -414.08,1230.56 -411.57,1221.47 -408.68,1209.27 -406.49,1199.38 -403.87,1185.57 -403.32,1182.49 -401.56,1172.61" fill="none" stroke="#bcbcbc" stroke-width="8" stroke-linecap="round" stroke-linejoin="round" /><polyline points="371.21,227.23 426.72,266.02 434.20,267.61 439.67,273.87" fill="none" stroke="#bcbcbc" stroke-width="8" stroke-linecap="round" stroke-linejoin="round" /><polyline points="138.13,585.47 145.47,588.29 177.32,598.71 251.20,627.05 255.34,631.18 257.29,634.27" fill="none" stroke="#bcbcbc" stroke-width="8" stroke-linecap="round" stroke-linejoin="round" /><polyline points="275.80,1313.56 280.84,1300.45 305.67,1233.06 323.23,1182.15 326.87,1180.47" fill="none" stroke="#bcbcbc" stroke-width="8" stroke-linecap="round" stroke-linejoin="round" /><polyline points="-75.27,1228.12 -71.35,1219.45 -70.97,1218.59 -64.26,1196.10 -53.28,1159.07 -50.46,1149.60 -48.28,1142.24 -47.98,1137.95 -48.43,1128.45" fill="none" stroke="#bcbcbc" stroke-width="8" stroke-linecap="round" stroke-linejoin="round" /><polyline points="381.23,671.08 374.94,672.38 360.67,669.84 358.46,663.95 333.73,654.52 327.89,656.05 305.58,647.86 302.25,650.19" fill="none" stroke="#bcbcbc" stroke-width="8" stroke-linecap="round" stroke-linejoin="round" /><polyline points="344.52,-93.76 355.73,-91.01 361.92,-89.94 509.30,-64.38" fill="none" stroke="#bcbcbc" stroke-width="8" stroke-linecap="round" stroke-linejoin="round" /><polyline points="229.97,1272.53 236.10,1255.24 248.02,1221.65 255.72,1207.34 266.80,1176.32 271.22,1163.93" fill="none" stroke="#bcbcbc" stroke-width="8" stroke-linecap="round" stroke-linejoin="round" /><polyline points="-577.55,601.63 -588.22,601.14 -590.90,604.39 -609.49,626.99 -674.50,702.09 -683.65,712.65" fill="none" stroke="#bcbcbc" stroke-width="8" stroke-linecap="round" stroke-linejoin="round" /><polyline points="-7.35,665.95 -12.06,676.38 -12.63,677.65 -29.00,720.34 -45.50,767.34 -49.90,779.87 -52.40,786.35" fill="none" stroke="#bcbcbc" stroke-width="8" stroke-linecap="round" stroke-linejoin="round" /><polyline points="232.80,186.22 238.00,193.28 241.72,202.98 247.49,216.91 256.77,238.82 264.98,258.48 274.41,280.08 281.41,296.72 282.44,299.11 282.50,299.25 288.14,312.41 289.82,316.15 291.42,319.72 293.11,323.05 294.38,326.44 294.75,330.89" fill="none" stroke="#bcbcbc" stroke-width="8" stroke-linecap="round" stroke-linejoin="round" /><polyline points="-165.36,876.41 -162.64,874.93 -158.83,871.90 -156.92,867.97 -131.63,772.06 -130.87,766.65 -127.78,756.77" fill="none" stroke="#bcbcbc" stroke-width="8" stroke-linecap="round" stroke-linejoin="round" /><polyline points="719.07,726.32 722.66,737.71 725.19,749.67 720.27,795.26 714.59,829.55 711.48,841.25 711.20,842.31 708.48,848.62 704.78,855.31 696.12,866.26 700.31,887.66 686.76,933.60 679.27,958.97 663.96,1000.49 641.54,1051.05 614.16,1099.51 605.61,1115.26 590.15,1141.13 528.38,1228.80 514.85,1247.03 462.44,1315.52 432.36,1349.75 390.27,1392.53 386.38,1392.93 376.88,1400.70" fill="none" stroke="#bcbcbc" stroke-width="8" stroke-linecap="round" stroke-linejoin="round" /><polyline points="-43.07,1476.24 -25.83,1422.76 -23.00,1413.93 -19.17,1408.37 -10.94,1383.65 -8.26,1375.26 25.76,1268.75 29.18,1258.04 32.00,1248.63 72.14,1122.28" fill="none" stroke="#bcbcbc" stroke-width="8" stroke-linecap="round" stroke-linejoin="round" /><polyline points="360.84,481.69 375.75,465.41 380.14,460.11 410.26,417.45" fill="none" stroke="#bcbcbc" stroke-width="8" stroke-linecap="round" stroke-linejoin="round" /><polyline points="62.93,488.15 103.98,502.44 106.24,506.12 117.90,510.03 124.82,512.40 157.90,523.57" fill="none" stroke="#bcbcbc" stroke-width="8" stroke-linecap="round" stroke-linejoin="round" /><polyline points="420.69,204.08 439.67,273.87 461.65,356.08 464.98,362.94 465.51,370.76 480.42,398.58 520.64,473.59 529.43,486.56 531.97,490.36 592.06,602.72 619.68,627.82 623.56,632.83 629.02,637.50 681.46,682.34 685.01,685.38 694.43,690.38" fill="none" stroke="#bcbcbc" stroke-width="8" stroke-linecap="round" stroke-linejoin="round" /><polyline points="216.76,1487.59 347.53,1411.62 370.81,1399.72 376.88,1400.70" fill="none" stroke="#bcbcbc" stroke-width="8" stroke-linecap="round" stroke-linejoin="round" /><polyline points="358.54,1378.91 366.66,1369.26 439.50,1223.91 444.32,1214.38 448.35,1204.94 471.88,1146.75 478.89,1129.22 499.17,1067.84 512.32,988.93 513.88,977.44" fill="none" stroke="#bcbcbc" stroke-width="8" stroke-linecap="round" stroke-linejoin="round" /><polyline points="302.33,524.07 301.05,525.38 299.30,531.49 299.12,532.10 291.22,562.54 293.29,570.49 291.57,577.61 289.31,586.94 283.52,593.64 276.96,620.24 269.23,626.08 260.97,631.74 257.29,634.27" fill="none" stroke="#bcbcbc" stroke-width="8" stroke-linecap="round" stroke-linejoin="round" /><polyline points="-7.35,665.95 -3.99,657.33 16.22,605.52 20.63,594.23 24.26,584.92 50.08,518.76 61.71,491.10 62.93,488.15 71.97,466.30 92.24,415.96 99.66,394.53 101.31,389.62 103.53,384.05" fill="none" stroke="#bcbcbc" stroke-width="8" stroke-linecap="round" stroke-linejoin="round" /><polyline points="218.79,351.89 222.69,363.52 350.94,473.08 420.93,533.97 525.46,624.85 534.58,632.14 538.67,634.70 556.80,651.17 581.03,671.83 635.97,718.68 653.71,733.94 665.49,748.02" fill="none" stroke="#bcbcbc" stroke-width="8" stroke-linecap="round" stroke-linejoin="round" /><polyline points="430.84,163.12 437.34,158.94 475.88,142.93 483.80,134.60" fill="none" stroke="#bcbcbc" stroke-width="8" stroke-linecap="round" stroke-linejoin="round" /><polyline points="475.35,1138.09 422.14,1122.41 325.83,1094.08" fill="none" stroke="#bcbcbc" stroke-width="8" stroke-linecap="round" stroke-linejoin="round" /><polyline points="303.60,6.30 310.87,11.31 547.68,64.01" fill="none" stroke="#bcbcbc" stroke-width="8" stroke-linecap="round" stroke-linejoin="round" /><polyline points="596.12,786.07 583.88,758.83 556.72,694.05 554.70,688.90 550.05,677.08 532.54,632.52 531.44,629.63" fill="none" stroke="#bcbcbc" stroke-width="8" stroke-linecap="round" stroke-linejoin="round" /><polyline points="232.80,186.22 219.65,182.48 209.99,179.60 190.35,173.77 180.38,170.93 174.66,169.34 167.20,167.20" fill="none" stroke="#bcbcbc" stroke-width="8" stroke-linecap="round" stroke-linejoin="round" /><polyline points="-110.00,542.54 -110.67,540.36 -111.28,538.84 -113.99,532.10 -124.49,507.63 -134.47,482.76 -136.62,476.89 -139.10,470.13 -140.88,464.60 -143.81,456.31 -144.12,455.44 -153.66,431.91 -171.19,387.69 -175.12,385.45 -177.92,378.28 -183.51,358.86 -193.08,334.79 -195.15,329.32" fill="none" stroke="#bcbcbc" stroke-width="8" stroke-linecap="round" stroke-linejoin="round" /><polyline points="-25.83,1422.76 -15.88,1425.81 16.32,1435.62 26.41,1438.70" fill="none" stroke="#bcbcbc" stroke-width="8" stroke-linecap="round" stroke-linejoin="round" /><polyline points="575.44,174.70 577.31,167.11 576.55,164.23 575.63,160.75 569.75,139.21 556.65,93.68 549.73,70.41 547.68,64.01 529.41,-1.69 519.54,-37.13 509.30,-64.38 500.06,-88.96 490.85,-105.87 481.91,-114.80 413.23,-198.72 408.15,-204.70 404.78,-210.22" fill="none" stroke="#bcbcbc" stroke-width="8" stroke-linecap="round" stroke-linejoin="round" /><polyline points="294.75,330.89 291.21,332.24 284.66,334.05 284.01,334.23 256.66,341.23 225.21,350.08 218.79,351.89 215.93,352.80 208.37,355.23 201.91,357.03 173.71,364.87 127.33,378.05 110.04,382.42 103.53,384.05 72.63,391.64 53.53,396.96 13.10,408.25 -26.87,419.52 -31.49,420.80 -64.89,430.07 -80.30,434.35 -88.07,438.02 -102.80,445.33 -132.05,460.17 -134.09,461.21 -140.88,464.60 -145.02,466.68 -150.80,469.71 -171.35,480.48 -208.79,501.49 -240.06,517.87 -244.54,520.22 -250.52,520.59 -254.11,522.50 -254.82,522.88 -288.75,541.48 -295.86,541.44 -304.01,545.71 -306.86,547.20 -309.26,548.46 -314.94,551.43 -319.40,561.62 -338.61,571.91 -344.71,575.18 -351.32,578.77 -378.04,593.32 -391.85,600.83 -398.81,602.84" fill="none" stroke="#bcbcbc" stroke-width="8" stroke-linecap="round" stroke-linejoin="round" /><polyline points="679.27,958.97 665.02,960.28 620.48,964.36 618.47,964.54 615.63,964.80 611.04,965.22 567.86,969.19 552.84,967.79 535.35,972.18 521.34,975.61 513.88,977.44 495.34,978.14 479.29,977.33 471.11,976.46 464.15,974.35 459.02,971.52 439.93,958.02 393.53,926.15 389.16,923.18 384.71,920.16 381.38,916.94" fill="none" stroke="#bcbcbc" stroke-width="8" stroke-linecap="round" stroke-linejoin="round" /><polyline points="-371.50,420.96 -354.66,453.92 -352.11,463.34 -337.93,490.40 -332.08,498.14 -308.38,544.26 -306.86,547.20" fill="none" stroke="#bcbcbc" stroke-width="8" stroke-linecap="round" stroke-linejoin="round" /><polyline points="144.39,714.07 141.87,721.00 141.16,723.15 137.87,733.12 117.04,791.23 106.71,820.09 106.35,821.07 102.20,830.04 99.82,835.37" fill="none" stroke="#bcbcbc" stroke-width="8" stroke-linecap="round" stroke-linejoin="round" /><polyline points="420.69,204.08 418.38,199.14 412.31,198.34 392.68,202.85 388.69,202.33 385.56,198.14 380.01,172.59 410.10,167.94 424.03,163.82 430.84,163.12 438.17,189.20" fill="none" stroke="#bcbcbc" stroke-width="8" stroke-linecap="round" stroke-linejoin="round" /><polyline points="529.43,486.56 537.18,482.21 576.10,458.75 586.51,452.56 604.72,441.70 634.67,422.33 641.66,417.30 694.21,384.70" fill="none" stroke="#bcbcbc" stroke-width="8" stroke-linecap="round" stroke-linejoin="round" /><polyline points="713.11,640.55 699.83,636.59 692.10,630.26 662.59,604.71 661.58,603.82 654.45,597.45 650.25,590.01 576.10,458.75" fill="none" stroke="#bcbcbc" stroke-width="8" stroke-linecap="round" stroke-linejoin="round" /><polyline points="-123.68,630.15 -7.35,665.95 2.15,668.96 88.96,696.48 90.78,697.06 103.78,701.18 110.18,703.21 118.49,705.48 135.62,711.29 144.39,714.07 152.28,716.57 216.88,737.06 285.09,758.49 290.73,760.27 298.55,756.43" fill="none" stroke="#bcbcbc" stroke-width="8" stroke-linecap="round" stroke-linejoin="round" /><polyline points="218.39,55.75 268.78,9.44 277.31,1.60" fill="none" stroke="#bcbcbc" stroke-width="8" stroke-linecap="round" stroke-linejoin="round" /><polyline points="-625.49,802.98 -440.57,822.80" fill="none" stroke="#bcbcbc" stroke-width="8" stroke-linecap="round" stroke-linejoin="round" /><polyline points="-67.65,286.82 -28.79,272.92 11.30,258.42 36.21,248.74 112.26,221.08 134.33,213.44 138.94,211.85 144.47,209.95 150.68,207.81 151.44,207.55 163.96,202.52 169.41,200.33" fill="none" stroke="#bcbcbc" stroke-width="8" stroke-linecap="round" stroke-linejoin="round" /><polyline points="193.38,1227.38 229.97,1272.53 252.37,1295.08 262.07,1302.06 275.80,1313.56 288.70,1324.39 299.78,1335.20 300.05,1340.70" fill="none" stroke="#bcbcbc" stroke-width="8" stroke-linecap="round" stroke-linejoin="round" /><polyline points="232.80,186.22 247.14,150.28 270.35,91.09 303.60,6.30 320.04,-33.86 344.52,-93.76 364.60,-142.82 368.19,-149.33 385.85,-178.20 386.99,-180.06 393.45,-192.77 404.78,-210.22 411.11,-219.96 420.06,-233.73" fill="none" stroke="#bcbcbc" stroke-width="8" stroke-linecap="round" stroke-linejoin="round" /><polyline points="-105.51,1147.33 -107.85,1149.20 -109.41,1151.44 -112.57,1160.77 -114.75,1167.50 -124.86,1197.72 -126.25,1202.07 -127.11,1204.78 -136.39,1202.12 -158.97,1194.55 -181.34,1187.04 -198.63,1186.07" fill="none" stroke="#bcbcbc" stroke-width="8" stroke-linecap="round" stroke-linejoin="round" /><polyline points="-547.68,1357.57 -510.81,1262.34 -506.71,1251.97 -503.03,1241.98 -498.58,1229.92 -493.13,1210.94 -487.44,1187.35 -485.11,1170.45 -483.42,1158.17 -481.03,1149.11 -472.36,1081.01 -462.22,995.08 -456.97,954.12 -451.12,905.99 -440.57,822.80 -438.90,808.66 -428.23,721.66 -428.23,716.82 -425.87,691.00 -419.07,636.48 -417.37,626.97 -415.59,621.63 -412.81,615.76 -410.10,611.20 -404.14,604.74 -398.80,602.91" fill="none" stroke="#bcbcbc" stroke-width="8" stroke-linecap="round" stroke-linejoin="round" /><polyline points="257.29,634.27 259.31,637.46 266.07,648.02 276.19,664.25 278.63,668.12 282.67,665.05 302.25,650.19" fill="none" stroke="#bcbcbc" stroke-width="8" stroke-linecap="round" stroke-linejoin="round" /><polyline points="270.35,91.09 469.58,127.11 490.50,138.13 568.56,176.82 575.44,174.70" fill="none" stroke="#bcbcbc" stroke-width="8" stroke-linecap="round" stroke-linejoin="round" /><polyline points="-110.00,542.54 -113.54,547.69 -145.32,563.21 -168.67,592.88 -193.86,608.48 -211.09,621.49 -227.52,634.90 -235.95,642.58 -250.84,661.46 -267.48,685.32 -270.22,689.74" fill="none" stroke="#bcbcbc" stroke-width="8" stroke-linecap="round" stroke-linejoin="round" /><polyline points="-76.40,563.82 -77.78,566.89 -80.79,571.29 -86.49,578.30 -120.06,620.72 -137.82,668.56 -227.48,634.86" fill="none" stroke="#bcbcbc" stroke-width="8" stroke-linecap="round" stroke-linejoin="round" /><polyline points="-211.09,621.49 -214.56,610.98 -229.56,565.55 -235.38,556.57 -245.13,527.32 -245.98,524.80 -244.54,520.22 -246.87,512.76 -293.75,363.07" fill="none" stroke="#bcbcbc" stroke-width="8" stroke-linecap="round" stroke-linejoin="round" /><polyline points="338.23,-195.31 375.28,-194.34 377.01,-194.29 384.11,-194.08 393.45,-192.77" fill="none" stroke="#bcbcbc" stroke-width="8" stroke-linecap="round" stroke-linejoin="round" /><polyline points="147.66,1011.70 135.01,1011.55 27.89,1025.93 20.17,1026.74 11.34,1027.67 -39.92,1033.08 -108.98,1040.38 -145.59,1044.24 -165.84,1046.38 -182.29,1048.38 -190.73,1049.40 -200.24,1050.56 -246.19,1056.14 -257.20,1057.48 -291.13,1061.19 -472.36,1081.01" fill="none" stroke="#bcbcbc" stroke-width="8" stroke-linecap="round" stroke-linejoin="round" /><polyline points="-10.94,1383.65 -20.43,1380.60 -64.75,1366.33 -73.71,1363.45 -81.49,1360.94 -128.44,1345.85 -137.70,1342.87 -149.95,1338.93 -224.70,1314.88 -233.11,1312.17" fill="none" stroke="#bcbcbc" stroke-width="8" stroke-linecap="round" stroke-linejoin="round" /><polyline points="174.39,486.21 200.18,494.25 294.45,523.36 295.34,523.63 302.33,524.07" fill="none" stroke="#bcbcbc" stroke-width="8" stroke-linecap="round" stroke-linejoin="round" /><polyline points="439.67,273.87 567.92,276.13" fill="none" stroke="#bcbcbc" stroke-width="8" stroke-linecap="round" stroke-linejoin="round" /><polyline points="376.88,1400.70 358.54,1378.91 350.85,1369.96 344.24,1363.79 335.44,1357.21 317.45,1346.42 300.05,1340.70 264.64,1329.76 235.68,1320.57 252.37,1295.08" fill="none" stroke="#bcbcbc" stroke-width="8" stroke-linecap="round" stroke-linejoin="round" /><polyline points="193.38,1227.38 167.86,1195.87 163.00,1189.88 137.29,1154.45 131.47,1143.63 132.86,1130.76 140.61,1130.68 159.74,1134.36 188.84,1139.96" fill="none" stroke="#bcbcbc" stroke-width="8" stroke-linecap="round" stroke-linejoin="round" /><polyline points="-140.57,974.90 -135.86,985.03 -108.98,1040.38 -69.00,1122.68 -63.90,1133.18" fill="none" stroke="#bcbcbc" stroke-width="8" stroke-linecap="round" stroke-linejoin="round" /><polyline points="-571.19,1225.60 -561.58,1229.54 -516.54,1247.95 -506.71,1251.97 -496.36,1256.20 -443.34,1277.88 -433.75,1281.81" fill="none" stroke="#bcbcbc" stroke-width="8" stroke-linecap="round" stroke-linejoin="round" /><polyline points="-118.44,892.83 -24.61,933.88" fill="none" stroke="#bcbcbc" stroke-width="8" stroke-linecap="round" stroke-linejoin="round" /><polyline points="302.33,524.07 316.62,524.82 317.53,525.63 323.94,531.32 333.37,539.73 335.11,543.12 367.59,571.57 369.99,576.11 392.84,596.27 398.59,598.02 416.36,613.59 420.34,615.40 447.13,638.14 453.10,643.43 456.39,648.67" fill="none" stroke="#bcbcbc" stroke-width="8" stroke-linecap="round" stroke-linejoin="round" /><polyline points="-597.68,892.92 -451.12,905.99" fill="none" stroke="#bcbcbc" stroke-width="8" stroke-linecap="round" stroke-linejoin="round" /><polyline points="-270.45,1438.69 -265.91,1429.02 -264.74,1424.72 -258.37,1401.25 -235.32,1319.95 -233.11,1312.17 -230.78,1303.63 -220.34,1265.44 -202.70,1200.93 -198.63,1186.07" fill="none" stroke="#bcbcbc" stroke-width="8" stroke-linecap="round" stroke-linejoin="round" /><polyline points="-140.57,974.90 -118.44,892.83 -165.36,876.41 -177.64,883.67 -183.24,887.93 -187.39,893.54 -190.31,900.94 -201.10,940.83 -192.39,945.26 -183.60,947.39 -164.15,952.45 -149.60,957.09 -140.57,974.90" fill="none" stroke="#bcbcbc" stroke-width="8" stroke-linecap="round" stroke-linejoin="round" /><polyline points="-201.10,940.83 -211.37,939.39 -451.12,905.99" fill="none" stroke="#bcbcbc" stroke-width="8" stroke-linecap="round" stroke-linejoin="round" /><polyline points="188.84,1139.96 211.08,1144.82 271.22,1163.93 288.03,1169.25 327.95,1180.78 368.16,1192.38 397.92,1200.98 445.53,1214.72 455.37,1217.57 479.39,1225.62 518.95,1236.16 522.43,1236.81" fill="none" stroke="#bcbcbc" stroke-width="8" stroke-linecap="round" stroke-linejoin="round" /><polyline points="217.05,1487.42 208.93,1489.46 200.16,1513.91 186.56,1510.05 124.70,1488.96 117.25,1487.37 100.69,1486.19 25.78,1486.49 9.27,1484.39 -28.02,1478.68 -43.07,1476.24 -149.76,1459.03 -191.07,1452.44 -269.86,1438.79 -282.58,1436.27 -460.40,1386.56 -471.62,1383.42 -547.68,1357.57 -566.40,1350.93 -613.14,1331.55 -639.79,1321.47" fill="none" stroke="#bcbcbc" stroke-width="8" stroke-linecap="round" stroke-linejoin="round" /><polyline points="380.01,172.59 372.31,171.01 269.54,183.16 232.80,186.22" fill="none" stroke="#bcbcbc" stroke-width="8" stroke-linecap="round" stroke-linejoin="round" /><polyline points="188.84,1139.96 192.44,1133.93 214.01,1078.54 238.10,994.78 244.25,976.74 247.54,971.83 270.80,897.15 271.96,888.23 272.84,882.41" fill="none" stroke="#bcbcbc" stroke-width="8" stroke-linecap="round" stroke-linejoin="round" /><polyline points="294.75,330.89 297.21,329.95 300.54,327.31 305.59,321.39 371.21,227.23 388.69,202.33" fill="none" stroke="#bcbcbc" stroke-width="8" stroke-linecap="round" stroke-linejoin="round" /><polyline points="586.81,676.79 588.15,672.93 621.14,634.12 623.56,632.83 629.29,624.98 648.48,602.94 654.45,597.45" fill="none" stroke="#bcbcbc" stroke-width="8" stroke-linecap="round" stroke-linejoin="round" /><polyline points="615.63,964.80 615.18,959.61 614.82,955.59 613.09,947.91 611.01,942.90 608.42,929.74 608.18,924.97 606.42,914.31 598.57,910.21 592.30,912.61 581.07,915.30 572.18,916.69 563.65,918.75 551.88,921.43 546.51,922.66" fill="none" stroke="#bcbcbc" stroke-width="8" stroke-linecap="round" stroke-linejoin="round" /><polyline points="-250.99,774.20 -227.00,717.96 -225.66,714.31" fill="none" stroke="#bcbcbc" stroke-width="8" stroke-linecap="round" stroke-linejoin="round" /><polyline points="381.23,671.08 392.80,666.60 398.84,664.26 403.52,659.52 422.79,654.77 429.26,656.42 443.21,652.82 453.86,650.08 456.39,648.67 466.71,646.14 519.48,633.21 531.44,629.63" fill="none" stroke="#bcbcbc" stroke-width="8" stroke-linecap="round" stroke-linejoin="round" /><polyline points="-105.51,1147.32 -80.61,1138.28 -72.28,1135.74 -63.90,1133.18 -48.43,1128.45 -36.40,1126.72 4.70,1122.23 12.96,1121.77 49.74,1122.09 72.14,1122.28 80.56,1121.85 94.06,1123.22 98.28,1123.82 106.88,1125.05 132.86,1130.76" fill="none" stroke="#bcbcbc" stroke-width="8" stroke-linecap="round" stroke-linejoin="round" /><polyline points="13.10,408.25 8.98,394.31 -6.34,342.52 -24.95,283.46 -28.79,272.92 -32.69,263.04 -37.62,248.80" fill="none" stroke="#bcbcbc" stroke-width="8" stroke-linecap="round" stroke-linejoin="round" /><polyline points="-31.45,1243.33 -28.18,1233.00 4.91,1128.64 4.70,1122.23" fill="none" stroke="#bcbcbc" stroke-width="8" stroke-linecap="round" stroke-linejoin="round" /><polyline points="12.96,1121.77 19.51,1033.91 20.17,1026.74 21.17,1018.41 21.19,1018.03 21.62,1007.84 23.81,980.18 25.04,967.30 26.72,952.66 28.26,942.13 29.64,935.51 31.37,930.51 34.78,919.24 41.80,895.78 50.74,865.50 60.60,834.53 62.61,828.21 64.22,823.63" fill="none" stroke="#bcbcbc" stroke-width="8" stroke-linecap="round" stroke-linejoin="round" /><polyline points="-201.10,940.83 -202.84,948.61 -202.54,951.10 -191.86,1039.99 -190.73,1049.40 -191.22,1059.09 -194.02,1114.37 -195.19,1137.47 -195.79,1149.38 -196.86,1170.62 -197.42,1181.68 -198.63,1186.07" fill="none" stroke="#bcbcbc" stroke-width="8" stroke-linecap="round" stroke-linejoin="round" /><polyline points="-250.99,774.20 -289.80,762.66 -294.73,759.50 -318.89,752.46 -325.68,752.53 -356.03,743.39 -360.94,739.77 -388.56,731.40 -422.45,722.16 -422.61,722.14 -428.23,721.66" fill="none" stroke="#bcbcbc" stroke-width="8" stroke-linecap="round" stroke-linejoin="round" /><polyline points="456.39,648.67 457.74,650.44 463.37,658.83 473.77,674.34 483.57,684.15 502.40,705.29 499.21,724.82 497.60,732.15 495.35,735.25 500.07,742.23 507.38,757.26 521.97,785.42 529.16,799.29 533.63,811.75 535.64,817.54" fill="none" stroke="#bcbcbc" stroke-width="8" stroke-linecap="round" stroke-linejoin="round" /><polyline points="554.70,688.90 549.29,690.59 513.64,701.68 508.53,703.32 502.40,705.29" fill="none" stroke="#bcbcbc" stroke-width="8" stroke-linecap="round" stroke-linejoin="round" /><polyline points="298.55,756.43 309.70,752.82 390.60,711.50 401.43,706.21 439.57,695.19 476.54,684.80 483.57,684.15" fill="none" stroke="#bcbcbc" stroke-width="8" stroke-linecap="round" stroke-linejoin="round" /><polyline points="307.36,807.58 400.64,764.17 404.57,761.57 413.69,758.92 475.84,740.83 485.27,737.22 495.35,735.25" fill="none" stroke="#bcbcbc" stroke-width="8" stroke-linecap="round" stroke-linejoin="round" /><polyline points="288.33,-102.49 326.09,-97.82 329.88,-97.35 344.52,-93.76" fill="none" stroke="#bcbcbc" stroke-width="8" stroke-linecap="round" stroke-linejoin="round" /><polyline points="611.00,281.42 617.70,280.03 642.72,292.29 646.01,295.55 692.98,375.06 694.21,384.70 700.32,389.79 699.35,393.30 699.20,399.04 700.05,407.05 712.49,458.18 713.59,493.59 715.33,550.13 718.26,626.23 706.34,659.39 698.67,679.61 687.47,708.10 684.22,716.34 682.12,718.64 678.73,740.69" fill="none" stroke="#bcbcbc" stroke-width="8" stroke-linecap="round" stroke-linejoin="round" /><polyline points="697.83,874.99 686.41,870.02 657.87,850.10 620.21,823.63 599.49,806.88 585.52,791.92" fill="none" stroke="#bcbcbc" stroke-width="8" stroke-linecap="round" stroke-linejoin="round" /><polyline points="235.68,1320.57 224.46,1317.01 206.26,1311.24 197.57,1308.49 187.37,1305.25 174.47,1301.16 162.82,1297.47 151.29,1293.81 99.91,1277.50 90.91,1274.65 79.73,1271.11 77.27,1270.33 47.88,1262.56 39.58,1260.55 29.18,1258.04 18.29,1255.40 -20.93,1245.89 -31.45,1243.33 -42.75,1239.41 -66.37,1231.21 -75.27,1228.12 -83.23,1225.53 -120.21,1212.38 -124.87,1209.60 -127.11,1204.78" fill="none" stroke="#bcbcbc" stroke-width="8" stroke-linecap="round" stroke-linejoin="round" /><polyline points="404.57,761.57 401.84,751.81 393.73,722.69 390.60,711.50 386.09,703.13 385.67,701.58 383.01,691.72 386.11,687.36 382.39,674.94 381.23,671.08" fill="none" stroke="#bcbcbc" stroke-width="8" stroke-linecap="round" stroke-linejoin="round" /><polyline points="390.99,405.32 398.71,401.69 440.88,378.44 464.98,362.94 481.98,351.34 485.74,348.54 499.42,339.03 513.60,328.56 522.58,322.02 533.28,314.19 570.48,297.41 575.31,297.66 582.36,294.33 611.00,281.42" fill="none" stroke="#bcbcbc" stroke-width="8" stroke-linecap="round" stroke-linejoin="round" /><polyline points="-76.40,563.82 -70.32,566.29 -66.30,567.53 9.11,590.69 20.63,594.23" fill="none" stroke="#bcbcbc" stroke-width="8" stroke-linecap="round" stroke-linejoin="round" /><polyline points="-615.03,733.42 -668.91,717.11" fill="none" stroke="#bcbcbc" stroke-width="8" stroke-linecap="round" stroke-linejoin="round" /><polyline points="255.22,-26.39 268.58,-9.46 270.57,-6.94 277.31,1.60 285.00,2.51 300.79,4.36 303.60,6.30" fill="none" stroke="#bcbcbc" stroke-width="8" stroke-linecap="round" stroke-linejoin="round" /><polyline points="719.07,726.32 697.90,730.27 676.20,742.06 656.08,753.26 637.05,762.78 614.06,775.26 597.41,785.37 564.51,803.02 436.07,867.64 402.77,882.31 380.77,891.83 369.86,895.39 360.85,897.08 346.08,897.97 325.07,895.00 272.64,882.41 198.21,865.06 100.30,835.53 64.22,823.63 5.16,805.40 -51.34,786.76 -134.19,754.25 -175.61,736.41 -225.56,714.21 -308.42,668.82 -327.84,655.93 -377.00,625.01 -397.61,604.39 -428.53,564.35 -479.47,511.82 -499.49,494.18" fill="none" stroke="#bcbcbc" stroke-width="8" stroke-linecap="round" stroke-linejoin="round" /><polyline points="317.45,1346.42 318.32,1341.58 321.46,1333.67 350.84,1264.92 361.94,1239.14 375.02,1207.03 378.20,1195.28" fill="none" stroke="#bcbcbc" stroke-width="8" stroke-linecap="round" stroke-linejoin="round" /><polyline points="-246.19,1056.14 -279.56,1039.99 -355.51,1003.23 -448.66,958.14 -456.97,954.12" fill="none" stroke="#bcbcbc" stroke-width="8" stroke-linecap="round" stroke-linejoin="round" /><polyline points="302.33,524.07 310.75,515.44 333.16,492.50 350.94,473.08" fill="none" stroke="#bcbcbc" stroke-width="8" stroke-linecap="round" stroke-linejoin="round" /><polyline points="-344.71,575.18 -353.97,562.92 -397.36,505.47 -459.29,455.35" fill="none" stroke="#bcbcbc" stroke-width="8" stroke-linecap="round" stroke-linejoin="round" /><polyline points="-613.47,1331.41 -605.00,1311.33 -578.08,1244.19 -574.81,1235.38 -571.19,1225.60 -569.82,1222.08 -569.45,1216.55 -566.01,1164.36 -565.02,1149.39" fill="none" stroke="#bcbcbc" stroke-width="8" stroke-linecap="round" stroke-linejoin="round" /><polyline points="-631.84,791.72 -615.03,733.42 -592.86,656.51 -590.11,646.99 -587.06,636.18 -580.22,611.96 -579.50,609.42 -577.55,601.63 -574.43,592.83 -573.67,590.70 -569.73,580.93 -561.99,563.85 -559.67,558.95" fill="none" stroke="#bcbcbc" stroke-width="8" stroke-linecap="round" stroke-linejoin="round" /><polyline points="-590.11,646.99 -556.10,655.69 -484.05,674.21 -443.00,686.99 -425.87,691.00" fill="none" stroke="#bcbcbc" stroke-width="8" stroke-linecap="round" stroke-linejoin="round" /><polyline points="110.04,382.42 111.20,375.34 112.36,367.99 117.35,343.41 129.82,286.18 140.06,234.99 141.93,224.37 144.47,209.95 144.47,209.94" fill="none" stroke="#bcbcbc" stroke-width="8" stroke-linecap="round" stroke-linejoin="round" /><polyline points="9.33,1484.40 24.52,1445.66 26.41,1438.70 86.68,1285.69 90.91,1274.65 94.34,1265.29 130.35,1160.50 137.29,1154.45" fill="none" stroke="#bcbcbc" stroke-width="8" stroke-linecap="round" stroke-linejoin="round" /><polyline points="193.38,1227.38 189.52,1231.56 183.75,1238.42 167.52,1284.21 162.82,1297.47" fill="none" stroke="#bcbcbc" stroke-width="8" stroke-linecap="round" stroke-linejoin="round" /><polyline points="-76.40,563.82 -74.18,557.81 -73.68,556.42 -63.14,526.96 -59.18,514.55 -26.87,419.52" fill="none" stroke="#bcbcbc" stroke-width="8" stroke-linecap="round" stroke-linejoin="round" /><polyline points="90.78,697.06 94.07,688.30 103.00,664.57 106.78,654.54 109.33,647.76 116.50,628.72 121.23,616.14 121.87,614.45 133.34,583.99 138.13,585.47 140.73,578.40 145.33,565.89 144.45,560.20 156.65,526.98 157.90,523.57 160.22,521.45 162.16,519.66 174.39,486.21 176.16,477.06 193.72,428.28 197.87,425.03 206.31,401.14 204.81,397.47 212.21,375.15 208.37,355.23" fill="none" stroke="#bcbcbc" stroke-width="8" stroke-linecap="round" stroke-linejoin="round" /><polyline points="404.78,-210.22 399.86,-218.29 374.02,-260.69" fill="none" stroke="#bcbcbc" stroke-width="8" stroke-linecap="round" stroke-linejoin="round" /><polyline points="485.74,348.54 604.35,424.82 604.38,424.87 604.38,424.88 626.32,427.73" fill="none" stroke="#bcbcbc" stroke-width="8" stroke-linecap="round" stroke-linejoin="round" /><polyline points="438.17,189.20 564.37,252.55 568.18,255.39 567.92,276.13 570.48,297.41" fill="none" stroke="#bcbcbc" stroke-width="8" stroke-linecap="round" stroke-linejoin="round" /><polyline points="197.57,1308.49 193.03,1322.33 174.64,1378.42 143.37,1472.87 141.15,1479.57 138.90,1486.36 138.27,1493.59" fill="none" stroke="#bcbcbc" stroke-width="8" stroke-linecap="round" stroke-linejoin="round" /><polyline points="552.84,967.79 553.59,960.76 553.76,954.19 553.70,953.96 549.23,934.63 547.40,926.55 546.51,922.66 545.61,918.67 540.70,897.05 531.11,853.83 524.14,827.84 523.15,823.82" fill="none" stroke="#bcbcbc" stroke-width="8" stroke-linecap="round" stroke-linejoin="round" /><polyline points="-73.71,1363.45 -70.58,1354.55 -35.44,1254.67 -31.45,1243.33" fill="none" stroke="#bcbcbc" stroke-width="8" stroke-linecap="round" stroke-linejoin="round" /><polyline points="715.33,550.13 704.99,547.21 634.78,439.46 626.32,427.73" fill="none" stroke="#bcbcbc" stroke-width="8" stroke-linecap="round" stroke-linejoin="round" /><polyline points="-438.90,808.66 -183.00,869.97 -165.36,876.41" fill="none" stroke="#bcbcbc" stroke-width="8" stroke-linecap="round" stroke-linejoin="round" /><polyline points="368.19,-149.33 467.87,-112.40 481.91,-114.80" fill="none" stroke="#bcbcbc" stroke-width="8" stroke-linecap="round" stroke-linejoin="round" />
    <polyline points="215.93,352.80 215.92,352.79 213.79,341.58 213.45,340.22 208.25,319.04 208.25,318.98 204.70,304.62 189.66,253.07 187.77,247.55 177.61,219.94 174.31,211.69 172.18,206.38 169.42,200.34 169.41,200.33 169.41,200.30 167.39,178.10 167.20,167.20" fill="none" stroke="#ffffff" stroke-width="16" stroke-linecap="round" stroke-linejoin="round" />
    <polyline points="215.93,352.80 215.92,352.79 213.79,341.58 213.45,340.22 208.25,319.04 208.25,318.98 204.70,304.62 189.66,253.07 187.77,247.55 177.61,219.94 174.31,211.69 172.18,206.38 169.42,200.34 169.41,200.33 169.41,200.30 167.39,178.10 167.20,167.20" fill="none" stroke="#111111" stroke-width="9" stroke-linecap="round" stroke-linejoin="round" />
    
            <g transform="translate(215.93,352.80)">
              <circle r="19" fill="#ffffff" stroke="#111111" stroke-width="4" />
              <text text-anchor="middle" dominant-baseline="central" font-family="Helvetica, Arial, sans-serif"
                font-size="18" font-weight="700" fill="#111111">1</text>
            </g>
            
            <g transform="translate(167.20,167.20)">
              <circle r="19" fill="#ffffff" stroke="#111111" stroke-width="4" />
              <text text-anchor="middle" dominant-baseline="central" font-family="Helvetica, Arial, sans-serif"
                font-size="18" font-weight="700" fill="#111111">2</text>
            </g>
            
  </g>
</svg>
