<svg xmlns="http://www.w3.org/2000/svg" width="520" height="520" viewBox="0 0 520 520">
  <rect width="100%" height="100%" fill="#ffffff" />
  <g>
    <polyline points="1354.34,-2337.99 1360.62,-2304.61 1401.12,-2021.35 1394.93,-1950.53" fill="none" stroke="#bcbcbc" stroke-width="8" stroke-linecap="round" stroke-linejoin="round" /><polyline points="531.22,22.58 541.01,-7.52 592.89,-167.05 599.00,-185.84 605.19,-205.58 735.63,-621.51 746.12,-654.96 722.10,-714.13" fill="none" stroke="#bcbcbc" stroke-width="8" stroke-linecap="round" stroke-linejoin="round" /><polyline points="-369.80,-347.37 -371.91,-371.25 -329.27,-610.08 -323.28,-639.96 -318.82,-655.60 -307.08,-716.17 -293.89,-790.30 -279.51,-855.59 -265.26,-920.73 -256.29,-939.10 -250.41,-950.36" fill="none" stroke="#bcbcbc" stroke-width="8" stroke-linecap="round" stroke-linejoin="round" /><polyline points="-122.27,-2032.03 -132.40,-2062.94 -237.21,-2382.54 -242.32,-2395.94" fill="none" stroke="#bcbcbc" stroke-width="8" stroke-linecap="round" stroke-linejoin="round" /><polyline points="-660.02,780.79 -656.89,750.29 -655.62,736.30 -644.21,610.11 -631.73,499.00 -628.81,473.06 -626.10,441.93 -625.80,439.31 -618.72,377.43 -612.61,314.53 -605.89,253.82 -601.36,206.56 -599.47,177.40 -597.80,150.47 -594.83,120.11" fill="none" stroke="#bcbcbc" stroke-width="8" stroke-linecap="round" stroke-linejoin="round" /><polyline points="788.07,96.73 795.53,73.27 848.12,-92.04 854.10,-110.82 862.59,-137.57 868.68,-156.75 915.22,-357.48" fill="none" stroke="#bcbcbc" stroke-width="8" stroke-linecap="round" stroke-linejoin="round" /><polyline points="583.64,-3172.97 603.06,-3169.99 1138.22,-3087.77" fill="none" stroke="#bcbcbc" stroke-width="8" stroke-linecap="round" stroke-linejoin="round" /><polyline points="-790.21,57.78 -845.91,55.19 -879.88,53.61 -898.33,52.75 -914.52,52.00 -1040.65,46.13 -1216.10,37.97 -1299.72,26.12 -1327.70,22.15 -1351.99,17.86 -1516.47,-11.17 -1539.45,-15.22 -1544.55,-16.10 -1572.95,-20.96 -1594.77,-24.70 -1734.14,-37.02 -1760.68,-39.36 -1770.42,-40.23 -1800.55,-42.32 -1859.55,-46.41" fill="none" stroke="#bcbcbc" stroke-width="8" stroke-linecap="round" stroke-linejoin="round" /><polyline points="19.04,-103.81 29.83,-134.51 127.05,-403.99 244.01,-743.90 251.50,-765.22 256.72,-780.11 260.96,-792.34" fill="none" stroke="#bcbcbc" stroke-width="8" stroke-linecap="round" stroke-linejoin="round" /><polyline points="-1770.42,-40.23 -1772.90,-57.56 -1773.49,-76.37 -1769.80,-114.27 -1761.33,-183.46 -1755.69,-206.69 -1746.52,-290.66 -1744.85,-309.36 -1742.17,-333.41 -1740.18,-351.26 -1736.42,-371.51 -1729.46,-425.97 -1724.62,-467.63 -1717.52,-484.68" fill="none" stroke="#bcbcbc" stroke-width="8" stroke-linecap="round" stroke-linejoin="round" /><polyline points="-1869.93,-505.96 -1740.25,-487.85 -1717.52,-484.68 -1703.44,-482.43 -1645.31,-473.17 -1511.37,-451.83 -1488.39,-448.00" fill="none" stroke="#bcbcbc" stroke-width="8" stroke-linecap="round" stroke-linejoin="round" /><polyline points="516.67,-2206.99 517.51,-2195.21 519.25,-2183.27 523.47,-2174.13 531.35,-2163.94 545.94,-2150.66 580.50,-2129.64 847.13,-1962.38 1011.34,-1742.24 1135.38,-1436.16 1143.47,-1415.94" fill="none" stroke="#bcbcbc" stroke-width="8" stroke-linecap="round" stroke-linejoin="round" /><polyline points="473.97,-1313.91 479.50,-1304.76 480.94,-1302.39 485.51,-1279.30 516.80,-1128.04 526.73,-1080.03 533.83,-1045.84 544.91,-976.54 550.08,-944.57 553.65,-925.07 557.55,-907.46 562.22,-897.18 569.07,-885.29 572.73,-879.68 642.01,-780.51 679.48,-721.50 689.26,-707.40" fill="none" stroke="#bcbcbc" stroke-width="8" stroke-linecap="round" stroke-linejoin="round" /><polyline points="-1514.88,579.99 -1511.20,557.29 -1507.77,540.88 -1506.85,538.70 -1460.74,429.07 -1431.36,357.82 -1422.43,335.24 -1412.97,311.33 -1402.70,290.77 -1401.04,286.75 -1386.98,252.77 -1376.11,222.71 -1366.79,195.12 -1360.87,175.62 -1354.23,151.53 -1346.59,119.24 -1340.78,93.03 -1333.84,56.46 -1332.38,48.30 -1327.70,22.15" fill="none" stroke="#bcbcbc" stroke-width="8" stroke-linecap="round" stroke-linejoin="round" /><polyline points="719.20,-2481.51 866.23,-2378.78 886.04,-2374.58 900.54,-2358.00" fill="none" stroke="#bcbcbc" stroke-width="8" stroke-linecap="round" stroke-linejoin="round" /><polyline points="101.82,-1532.78 121.25,-1525.31 205.62,-1497.71 401.31,-1422.68 412.29,-1411.73 417.44,-1403.56" fill="none" stroke="#bcbcbc" stroke-width="8" stroke-linecap="round" stroke-linejoin="round" /><polyline points="466.48,395.43 479.81,360.71 545.59,182.24 592.11,47.40 601.76,42.96" fill="none" stroke="#bcbcbc" stroke-width="8" stroke-linecap="round" stroke-linejoin="round" /><polyline points="-463.45,169.14 -453.07,146.19 -452.04,143.92 -434.28,84.35 -405.19,-13.71 -397.73,-38.80 -391.95,-58.29 -391.17,-69.65 -392.35,-94.80" fill="none" stroke="#bcbcbc" stroke-width="8" stroke-linecap="round" stroke-linejoin="round" /><polyline points="745.74,-1306.07 729.06,-1302.63 691.26,-1309.36 685.41,-1324.95 619.92,-1349.91 604.44,-1345.86 545.35,-1367.55 536.54,-1361.40" fill="none" stroke="#bcbcbc" stroke-width="8" stroke-linecap="round" stroke-linejoin="round" /><polyline points="648.50,-3331.59 678.18,-3324.32 694.60,-3321.48 1084.98,-3253.79" fill="none" stroke="#bcbcbc" stroke-width="8" stroke-linecap="round" stroke-linejoin="round" /><polyline points="345.09,286.75 361.32,240.98 392.88,152.01 413.27,114.11 442.62,31.96 454.34,-0.84" fill="none" stroke="#bcbcbc" stroke-width="8" stroke-linecap="round" stroke-linejoin="round" /><polyline points="-1793.87,-1489.99 -1822.15,-1491.28 -1829.23,-1482.68 -1878.49,-1422.83 -2050.69,-1223.95 -2074.90,-1195.98" fill="none" stroke="#bcbcbc" stroke-width="8" stroke-linecap="round" stroke-linejoin="round" /><polyline points="-283.52,-1319.65 -296.00,-1292.02 -297.51,-1288.67 -340.88,-1175.60 -384.59,-1051.14 -396.25,-1017.94 -402.85,-1000.81" fill="none" stroke="#bcbcbc" stroke-width="8" stroke-linecap="round" stroke-linejoin="round" /><polyline points="352.57,-2590.12 366.35,-2571.43 376.19,-2545.73 391.49,-2508.85 416.06,-2450.83 437.82,-2398.75 462.79,-2341.57 481.32,-2297.50 484.06,-2291.17 484.23,-2290.78 499.14,-2255.92 503.60,-2246.02 507.84,-2236.58 512.32,-2227.75 515.69,-2218.77 516.67,-2206.99" fill="none" stroke="#bcbcbc" stroke-width="8" stroke-linecap="round" stroke-linejoin="round" /><polyline points="-702.07,-762.28 -694.86,-766.21 -684.77,-774.23 -679.72,-784.63 -612.73,-1038.64 -610.70,-1052.97 -602.53,-1079.14" fill="none" stroke="#bcbcbc" stroke-width="8" stroke-linecap="round" stroke-linejoin="round" /><polyline points="1640.61,-1159.78 1650.11,-1129.62 1656.80,-1097.93 1643.78,-977.20 1628.73,-886.38 1620.51,-855.40 1619.76,-852.60 1612.56,-835.88 1602.75,-818.15 1579.82,-789.16 1590.92,-732.49 1555.02,-610.83 1535.19,-543.65 1494.63,-433.67 1435.24,-299.78 1362.71,-171.46 1340.06,-129.75 1299.11,-61.24 1135.51,170.94 1099.66,219.24 960.85,400.62 881.16,491.28 769.69,604.56 759.37,605.62 734.20,626.20" fill="none" stroke="#bcbcbc" stroke-width="8" stroke-linecap="round" stroke-linejoin="round" /><polyline points="-378.14,826.25 -332.47,684.62 -325.00,661.24 -314.85,646.50 -293.04,581.05 -285.94,558.81 -195.84,276.75 -186.78,248.38 -179.31,223.45 -72.98,-111.15" fill="none" stroke="#bcbcbc" stroke-width="8" stroke-linecap="round" stroke-linejoin="round" /><polyline points="691.73,-1807.62 731.21,-1850.75 742.85,-1864.79 822.62,-1977.76" fill="none" stroke="#bcbcbc" stroke-width="8" stroke-linecap="round" stroke-linejoin="round" /><polyline points="-97.38,-1790.53 11.34,-1752.68 17.35,-1742.93 48.22,-1732.57 66.55,-1726.31 154.18,-1696.71" fill="none" stroke="#bcbcbc" stroke-width="8" stroke-linecap="round" stroke-linejoin="round" /><polyline points="850.25,-2542.81 900.54,-2358.00 958.75,-2140.27 967.58,-2122.13 968.98,-2101.41 1008.46,-2027.72 1114.99,-1829.07 1138.28,-1794.72 1145.02,-1784.66 1304.19,-1487.11 1377.34,-1420.62 1387.61,-1407.37 1402.07,-1395.00 1540.97,-1276.25 1550.39,-1268.20 1575.34,-1254.95" fill="none" stroke="#bcbcbc" stroke-width="8" stroke-linecap="round" stroke-linejoin="round" /><polyline points="310.07,856.31 656.46,655.12 718.12,623.59 734.20,626.20" fill="none" stroke="#bcbcbc" stroke-width="8" stroke-linecap="round" stroke-linejoin="round" /><polyline points="685.64,568.49 707.13,542.94 900.08,157.99 912.86,132.75 923.53,107.76 985.85,-46.34 1004.41,-92.77 1058.13,-255.32 1092.96,-464.31 1097.09,-494.73" fill="none" stroke="#bcbcbc" stroke-width="8" stroke-linecap="round" stroke-linejoin="round" /><polyline points="536.73,-1695.39 533.36,-1691.93 528.71,-1675.74 528.25,-1674.12 507.31,-1593.50 512.80,-1572.46 508.23,-1553.59 502.25,-1528.89 486.93,-1511.14 469.54,-1440.72 449.06,-1425.24 427.19,-1410.25 417.44,-1403.56" fill="none" stroke="#bcbcbc" stroke-width="8" stroke-linecap="round" stroke-linejoin="round" /><polyline points="-283.52,-1319.65 -274.62,-1342.47 -221.09,-1479.68 -209.42,-1509.60 -199.80,-1534.24 -131.41,-1709.45 -100.61,-1782.71 -97.38,-1790.53 -73.45,-1848.38 -19.75,-1981.69 -0.09,-2038.44 4.29,-2051.46 10.17,-2066.22" fill="none" stroke="#bcbcbc" stroke-width="8" stroke-linecap="round" stroke-linejoin="round" /><polyline points="315.45,-2151.37 325.80,-2120.57 665.51,-1830.43 850.89,-1669.17 1127.76,-1428.51 1151.92,-1409.18 1162.75,-1402.41 1210.79,-1358.81 1274.95,-1304.09 1420.48,-1180.01 1467.49,-1139.60 1498.68,-1102.29" fill="none" stroke="#bcbcbc" stroke-width="8" stroke-linecap="round" stroke-linejoin="round" /><polyline points="877.13,-2651.31 894.37,-2662.36 996.44,-2704.77 1017.41,-2726.84" fill="none" stroke="#bcbcbc" stroke-width="8" stroke-linecap="round" stroke-linejoin="round" /><polyline points="995.03,-69.29 854.10,-110.82 599.00,-185.84" fill="none" stroke="#bcbcbc" stroke-width="8" stroke-linecap="round" stroke-linejoin="round" /><polyline points="540.11,-3066.60 559.36,-3053.33 1186.64,-2913.77" fill="none" stroke="#bcbcbc" stroke-width="8" stroke-linecap="round" stroke-linejoin="round" /><polyline points="1314.94,-1001.55 1282.52,-1073.67 1210.58,-1245.23 1205.21,-1258.87 1192.91,-1290.19 1146.53,-1408.18 1143.61,-1415.83" fill="none" stroke="#bcbcbc" stroke-width="8" stroke-linecap="round" stroke-linejoin="round" /><polyline points="352.57,-2590.12 317.75,-2600.03 292.16,-2607.65 240.14,-2623.09 213.72,-2630.63 198.58,-2634.83 178.81,-2640.50" fill="none" stroke="#bcbcbc" stroke-width="8" stroke-linecap="round" stroke-linejoin="round" /><polyline points="-555.45,-1646.49 -557.21,-1652.25 -558.83,-1656.29 -566.01,-1674.12 -593.81,-1738.94 -620.24,-1804.78 -625.95,-1820.33 -632.52,-1838.23 -637.22,-1852.88 -644.99,-1874.85 -645.81,-1877.16 -671.09,-1939.46 -717.50,-2056.56 -727.93,-2062.51 -735.34,-2081.50 -750.15,-2132.93 -775.50,-2196.67 -780.97,-2211.16" fill="none" stroke="#bcbcbc" stroke-width="8" stroke-linecap="round" stroke-linejoin="round" /><polyline points="-332.47,684.62 -306.12,692.70 -220.83,718.68 -194.12,726.82" fill="none" stroke="#bcbcbc" stroke-width="8" stroke-linecap="round" stroke-linejoin="round" /><polyline points="1260.15,-2620.64 1265.11,-2640.74 1263.09,-2648.37 1260.66,-2657.58 1245.09,-2714.61 1210.37,-2835.20 1192.06,-2896.84 1186.64,-2913.77 1138.22,-3087.77 1112.09,-3181.62 1084.98,-3253.79 1060.48,-3318.90 1036.10,-3363.66 1012.40,-3387.31 830.49,-3609.58 817.03,-3625.40 808.11,-3640.02" fill="none" stroke="#bcbcbc" stroke-width="8" stroke-linecap="round" stroke-linejoin="round" /><polyline points="516.67,-2206.99 507.29,-2203.41 489.95,-2198.62 488.21,-2198.14 415.76,-2179.61 332.46,-2156.16 315.45,-2151.37 307.88,-2148.97 287.87,-2142.54 270.76,-2137.78 196.06,-2117.00 73.21,-2082.10 27.41,-2070.53 10.17,-2066.22 -71.70,-2046.11 -122.27,-2032.03 -229.37,-2002.11 -335.23,-1972.28 -347.47,-1968.88 -435.94,-1944.33 -476.75,-1933.00 -497.36,-1923.27 -536.37,-1903.93 -613.84,-1864.62 -619.24,-1861.88 -637.22,-1852.88 -648.20,-1847.39 -663.50,-1839.37 -717.93,-1810.83 -817.11,-1755.19 -899.95,-1711.80 -911.80,-1705.59 -927.63,-1704.60 -937.14,-1699.55 -939.04,-1698.54 -1028.91,-1649.30 -1047.73,-1649.38 -1069.34,-1638.08 -1076.88,-1634.13 -1083.25,-1630.80 -1098.27,-1622.94 -1110.10,-1595.95 -1160.97,-1568.70 -1177.14,-1560.04 -1194.64,-1550.52 -1265.41,-1512.01 -1302.00,-1492.10 -1320.44,-1486.79" fill="none" stroke="#bcbcbc" stroke-width="8" stroke-linecap="round" stroke-linejoin="round" /><polyline points="1535.19,-543.65 1497.42,-540.19 1379.46,-529.38 1374.14,-528.89 1366.62,-528.20 1354.45,-527.08 1240.07,-516.58 1200.29,-520.27 1153.96,-508.67 1116.86,-499.57 1097.09,-494.73 1047.99,-492.86 1005.48,-495.03 983.81,-497.33 965.37,-502.91 951.79,-510.41 901.21,-546.17 778.33,-630.57 766.74,-638.42 754.95,-646.43 746.12,-654.96" fill="none" stroke="#bcbcbc" stroke-width="8" stroke-linecap="round" stroke-linejoin="round" /><polyline points="-1248.08,-1968.46 -1203.49,-1881.18 -1196.74,-1856.23 -1159.18,-1784.57 -1143.67,-1764.07 -1080.89,-1641.93 -1076.88,-1634.13" fill="none" stroke="#bcbcbc" stroke-width="8" stroke-linecap="round" stroke-linejoin="round" /><polyline points="118.39,-1192.22 111.71,-1173.87 109.83,-1168.17 101.13,-1141.77 45.96,-987.87 18.58,-911.45 17.64,-908.84 6.64,-885.09 0.34,-870.98" fill="none" stroke="#bcbcbc" stroke-width="8" stroke-linecap="round" stroke-linejoin="round" /><polyline points="850.25,-2542.81 844.14,-2555.91 828.06,-2558.02 776.06,-2546.09 765.49,-2547.46 757.22,-2558.56 742.50,-2626.21 822.20,-2638.55 859.09,-2649.44 877.13,-2651.31 896.56,-2582.23" fill="none" stroke="#bcbcbc" stroke-width="8" stroke-linecap="round" stroke-linejoin="round" /><polyline points="1138.28,-1794.72 1158.81,-1806.24 1261.92,-1868.37 1289.47,-1884.77 1337.70,-1913.53 1417.06,-1964.84 1435.57,-1978.15 1574.76,-2064.49" fill="none" stroke="#bcbcbc" stroke-width="8" stroke-linecap="round" stroke-linejoin="round" /><polyline points="1624.82,-1386.92 1589.63,-1397.40 1569.17,-1414.17 1490.99,-1481.82 1488.33,-1484.20 1469.43,-1501.07 1458.32,-1520.76 1261.92,-1868.37" fill="none" stroke="#bcbcbc" stroke-width="8" stroke-linecap="round" stroke-linejoin="round" /><polyline points="-591.68,-1414.46 -283.52,-1319.65 -258.38,-1311.68 -28.42,-1238.79 -23.62,-1237.27 10.83,-1226.35 27.77,-1220.97 49.78,-1214.96 95.17,-1199.59 118.39,-1192.22 139.28,-1185.60 310.41,-1131.32 491.07,-1074.57 506.01,-1069.87 526.73,-1080.03" fill="none" stroke="#bcbcbc" stroke-width="8" stroke-linecap="round" stroke-linejoin="round" /><polyline points="314.39,-2935.64 447.88,-3058.28 470.48,-3079.04" fill="none" stroke="#bcbcbc" stroke-width="8" stroke-linecap="round" stroke-linejoin="round" /><polyline points="-1920.85,-956.74 -1431.05,-904.25" fill="none" stroke="#bcbcbc" stroke-width="8" stroke-linecap="round" stroke-linejoin="round" /><polyline points="-443.27,-2323.71 -340.32,-2360.52 -234.13,-2398.91 -168.15,-2424.55 33.29,-2497.81 91.76,-2518.03 103.96,-2522.25 118.61,-2527.28 135.05,-2532.94 137.06,-2533.63 170.24,-2546.97 184.67,-2552.76" fill="none" stroke="#bcbcbc" stroke-width="8" stroke-linecap="round" stroke-linejoin="round" /><polyline points="248.17,167.20 345.09,286.75 404.42,346.49 430.11,364.98 466.48,395.43 500.63,424.11 529.98,452.73 530.70,467.29" fill="none" stroke="#bcbcbc" stroke-width="8" stroke-linecap="round" stroke-linejoin="round" /><polyline points="352.57,-2590.12 390.56,-2685.32 452.04,-2842.05 540.11,-3066.60 583.64,-3172.97 648.50,-3331.59 701.69,-3461.52 711.20,-3478.76 757.97,-3555.22 761.00,-3560.16 778.11,-3593.80 808.11,-3640.02 824.87,-3665.81 848.58,-3702.29" fill="none" stroke="#bcbcbc" stroke-width="8" stroke-linecap="round" stroke-linejoin="round" /><polyline points="-543.53,-44.82 -549.75,-39.85 -553.86,-33.92 -562.24,-9.22 -568.03,8.61 -594.79,88.63 -598.47,100.17 -600.76,107.33 -625.33,100.29 -685.14,80.24 -744.41,60.37 -790.21,57.78" fill="none" stroke="#bcbcbc" stroke-width="8" stroke-linecap="round" stroke-linejoin="round" /><polyline points="-1714.77,511.97 -1617.10,259.76 -1606.23,232.31 -1596.48,205.86 -1584.70,173.91 -1570.26,123.65 -1555.20,61.18 -1549.03,16.42 -1544.55,-16.10 -1538.23,-40.10 -1515.24,-220.43 -1488.39,-448.00 -1474.49,-556.49 -1458.99,-683.95 -1431.05,-904.25 -1426.61,-941.71 -1398.37,-1172.11 -1398.36,-1184.94 -1392.11,-1253.30 -1374.10,-1397.70 -1369.59,-1422.89 -1364.88,-1437.01 -1357.51,-1452.57 -1350.35,-1464.65 -1334.54,-1481.76 -1320.41,-1486.61" fill="none" stroke="#bcbcbc" stroke-width="8" stroke-linecap="round" stroke-linejoin="round" /><polyline points="417.44,-1403.56 422.78,-1395.09 440.70,-1367.14 467.51,-1324.16 473.97,-1313.91 484.67,-1322.03 536.54,-1361.40" fill="none" stroke="#bcbcbc" stroke-width="8" stroke-linecap="round" stroke-linejoin="round" /><polyline points="452.04,-2842.05 979.75,-2746.66 1035.18,-2717.49 1241.94,-2615.01 1260.15,-2620.65" fill="none" stroke="#bcbcbc" stroke-width="8" stroke-linecap="round" stroke-linejoin="round" /><polyline points="-555.45,-1646.49 -564.81,-1632.83 -649.00,-1591.75 -710.83,-1513.16 -777.56,-1471.86 -823.19,-1437.40 -866.73,-1401.89 -889.05,-1381.55 -928.48,-1331.54 -972.56,-1268.35 -979.83,-1256.64" fill="none" stroke="#bcbcbc" stroke-width="8" stroke-linecap="round" stroke-linejoin="round" /><polyline points="-466.43,-1590.12 -470.08,-1582.00 -478.07,-1570.34 -493.15,-1551.77 -582.09,-1439.45 -629.14,-1312.73 -866.62,-1401.99" fill="none" stroke="#bcbcbc" stroke-width="8" stroke-linecap="round" stroke-linejoin="round" /><polyline points="-823.19,-1437.40 -832.39,-1465.24 -872.13,-1585.55 -887.55,-1609.32 -913.38,-1686.78 -915.61,-1693.47 -911.80,-1705.59 -917.99,-1725.34 -1042.16,-2121.78" fill="none" stroke="#bcbcbc" stroke-width="8" stroke-linecap="round" stroke-linejoin="round" /><polyline points="631.84,-3600.54 729.98,-3597.95 734.56,-3597.82 753.36,-3597.29 778.11,-3593.80" fill="none" stroke="#bcbcbc" stroke-width="8" stroke-linecap="round" stroke-linejoin="round" /><polyline points="127.05,-403.99 93.55,-404.40 -190.19,-366.32 -210.64,-364.16 -234.03,-361.70 -369.80,-347.37 -552.73,-328.05 -649.71,-317.82 -703.35,-312.17 -746.91,-306.87 -769.28,-304.15 -794.47,-301.09 -916.17,-286.30 -945.33,-282.76 -1035.21,-272.93 -1515.24,-220.43" fill="none" stroke="#bcbcbc" stroke-width="8" stroke-linecap="round" stroke-linejoin="round" /><polyline points="-293.04,581.05 -318.18,572.96 -435.58,535.17 -459.31,527.53 -479.91,520.91 -604.29,480.94 -628.81,473.06 -661.25,462.62 -859.25,398.91 -881.54,391.74" fill="none" stroke="#bcbcbc" stroke-width="8" stroke-linecap="round" stroke-linejoin="round" /><polyline points="197.87,-1795.65 266.16,-1774.38 515.88,-1697.27 518.22,-1696.55 536.73,-1695.39" fill="none" stroke="#bcbcbc" stroke-width="8" stroke-linecap="round" stroke-linejoin="round" /><polyline points="900.54,-2358.00 1240.25,-2352.02" fill="none" stroke="#bcbcbc" stroke-width="8" stroke-linecap="round" stroke-linejoin="round" /><polyline points="734.20,626.20 685.64,568.49 665.26,544.79 647.75,528.43 624.44,511.03 576.80,482.45 530.70,467.29 436.91,438.33 360.20,413.98 404.42,346.49" fill="none" stroke="#bcbcbc" stroke-width="8" stroke-linecap="round" stroke-linejoin="round" /><polyline points="248.17,167.20 180.55,83.74 167.69,67.87 99.58,-25.95 84.16,-54.60 87.86,-88.70 108.39,-88.90 159.05,-79.16 236.13,-64.33" fill="none" stroke="#bcbcbc" stroke-width="8" stroke-linecap="round" stroke-linejoin="round" /><polyline points="-636.41,-501.46 -623.94,-474.64 -552.73,-328.05 -446.83,-110.08 -433.33,-82.29" fill="none" stroke="#bcbcbc" stroke-width="8" stroke-linecap="round" stroke-linejoin="round" /><polyline points="-1777.04,162.48 -1751.56,172.90 -1632.27,221.66 -1606.23,232.31 -1578.83,243.51 -1438.38,300.94 -1412.97,311.33" fill="none" stroke="#bcbcbc" stroke-width="8" stroke-linecap="round" stroke-linejoin="round" /><polyline points="-577.80,-718.81 -329.27,-610.08" fill="none" stroke="#bcbcbc" stroke-width="8" stroke-linecap="round" stroke-linejoin="round" /><polyline points="536.73,-1695.39 574.59,-1693.40 577.00,-1691.26 593.99,-1676.19 618.96,-1653.91 623.56,-1644.95 709.61,-1569.60 715.97,-1557.58 776.48,-1504.19 791.71,-1499.54 838.78,-1458.33 849.32,-1453.51 920.30,-1393.30 936.10,-1379.30 944.82,-1365.42" fill="none" stroke="#bcbcbc" stroke-width="8" stroke-linecap="round" stroke-linejoin="round" /><polyline points="-1847.19,-718.56 -1458.99,-683.95" fill="none" stroke="#bcbcbc" stroke-width="8" stroke-linecap="round" stroke-linejoin="round" /><polyline points="-980.43,726.80 -968.40,701.20 -965.30,689.80 -948.44,627.66 -887.38,412.35 -881.54,391.74 -875.35,369.13 -847.69,267.97 -800.97,97.15 -790.21,57.78" fill="none" stroke="#bcbcbc" stroke-width="8" stroke-linecap="round" stroke-linejoin="round" /><polyline points="-636.41,-501.46 -577.80,-718.81 -702.07,-762.28 -734.61,-743.06 -749.44,-731.78 -760.42,-716.93 -768.15,-697.32 -796.73,-591.70 -773.68,-579.96 -750.38,-574.31 -698.87,-560.90 -660.33,-548.63 -636.41,-501.46" fill="none" stroke="#bcbcbc" stroke-width="8" stroke-linecap="round" stroke-linejoin="round" /><polyline points="-796.73,-591.70 -823.95,-595.49 -1458.99,-683.95" fill="none" stroke="#bcbcbc" stroke-width="8" stroke-linecap="round" stroke-linejoin="round" /><polyline points="236.13,-64.33 295.03,-51.46 454.34,-0.84 498.88,13.25 604.60,43.78 711.11,74.49 789.95,97.27 916.06,133.67 942.11,141.21 1005.75,162.54 1110.52,190.44 1119.75,192.17" fill="none" stroke="#bcbcbc" stroke-width="8" stroke-linecap="round" stroke-linejoin="round" /><polyline points="310.85,855.86 289.36,861.25 266.12,926.01 230.09,915.78 66.24,859.94 46.52,855.73 2.65,852.59 -195.78,853.39 -239.52,847.82 -338.30,832.72 -378.14,826.25 -660.74,780.67 -770.17,763.21 -978.87,727.07 -1012.57,720.39 -1483.57,588.76 -1513.29,580.44 -1714.76,511.97 -1764.33,494.38 -1888.15,443.08 -1958.73,416.38" fill="none" stroke="#bcbcbc" stroke-width="8" stroke-linecap="round" stroke-linejoin="round" /><polyline points="742.50,-2626.21 722.11,-2630.41 449.90,-2598.23 352.57,-2590.12" fill="none" stroke="#bcbcbc" stroke-width="8" stroke-linecap="round" stroke-linejoin="round" /><polyline points="236.13,-64.33 245.67,-80.29 302.80,-226.98 366.62,-448.80 382.90,-496.57 391.61,-509.57 453.24,-707.35 456.30,-730.97 458.63,-746.40" fill="none" stroke="#bcbcbc" stroke-width="8" stroke-linecap="round" stroke-linejoin="round" /><polyline points="516.67,-2206.99 523.18,-2209.48 531.99,-2216.48 545.38,-2232.14 719.20,-2481.51 765.49,-2547.47" fill="none" stroke="#bcbcbc" stroke-width="8" stroke-linecap="round" stroke-linejoin="round" /><polyline points="1290.27,-1290.94 1293.82,-1301.18 1381.20,-1403.96 1387.61,-1407.37 1402.79,-1428.14 1453.62,-1486.52 1469.43,-1501.07" fill="none" stroke="#bcbcbc" stroke-width="8" stroke-linecap="round" stroke-linejoin="round" /><polyline points="1366.62,-528.20 1365.41,-541.95 1364.48,-552.59 1359.87,-572.94 1354.37,-586.21 1347.51,-621.06 1346.88,-633.69 1342.23,-661.91 1321.43,-672.77 1304.81,-666.41 1275.06,-659.29 1251.52,-655.61 1228.93,-650.16 1197.75,-643.06 1183.53,-639.81" fill="none" stroke="#bcbcbc" stroke-width="8" stroke-linecap="round" stroke-linejoin="round" /><polyline points="-928.88,-1032.96 -865.33,-1181.90 -861.80,-1191.58" fill="none" stroke="#bcbcbc" stroke-width="8" stroke-linecap="round" stroke-linejoin="round" /><polyline points="745.74,-1306.07 776.37,-1317.94 792.38,-1324.14 804.77,-1336.67 855.82,-1349.26 872.96,-1344.89 909.92,-1354.41 938.11,-1361.67 944.82,-1365.42 972.16,-1372.11 1111.93,-1406.36 1143.61,-1415.83" fill="none" stroke="#bcbcbc" stroke-width="8" stroke-linecap="round" stroke-linejoin="round" /><polyline points="-543.53,-44.82 -477.59,-68.76 -455.53,-75.50 -433.33,-82.29 -392.35,-94.80 -360.47,-99.38 -251.61,-111.29 -229.73,-112.49 -132.32,-111.65 -72.98,-111.15 -50.67,-112.29 -14.92,-108.67 -3.75,-107.07 19.04,-103.81 87.86,-88.70" fill="none" stroke="#bcbcbc" stroke-width="8" stroke-linecap="round" stroke-linejoin="round" /><polyline points="-229.37,-2002.11 -240.29,-2039.04 -280.86,-2176.20 -330.14,-2332.60 -340.32,-2360.52 -350.65,-2386.69 -363.71,-2424.39" fill="none" stroke="#bcbcbc" stroke-width="8" stroke-linecap="round" stroke-linejoin="round" /><polyline points="-347.37,209.44 -338.71,182.07 -251.05,-94.30 -251.61,-111.29" fill="none" stroke="#bcbcbc" stroke-width="8" stroke-linecap="round" stroke-linejoin="round" /><polyline points="-229.73,-112.49 -212.38,-345.19 -210.64,-364.16 -207.99,-386.24 -207.94,-387.24 -206.80,-414.23 -201.01,-487.48 -197.74,-521.60 -193.28,-560.35 -189.21,-588.25 -185.56,-605.78 -180.96,-619.02 -171.95,-648.86 -153.34,-710.98 -129.66,-791.19 -103.55,-873.20 -98.23,-889.93 -93.96,-902.06" fill="none" stroke="#bcbcbc" stroke-width="8" stroke-linecap="round" stroke-linejoin="round" /><polyline points="-796.73,-591.70 -801.35,-571.07 -800.55,-564.48 -772.27,-329.08 -769.28,-304.15 -770.58,-278.50 -777.98,-132.09 -781.08,-70.92 -782.68,-39.37 -785.52,16.87 -787.00,46.15 -790.21,57.78" fill="none" stroke="#bcbcbc" stroke-width="8" stroke-linecap="round" stroke-linejoin="round" /><polyline points="-928.88,-1032.96 -1031.69,-1063.52 -1044.76,-1071.90 -1108.75,-1090.54 -1126.73,-1090.35 -1207.12,-1114.57 -1220.11,-1124.15 -1293.27,-1146.33 -1383.04,-1170.79 -1383.48,-1170.83 -1398.37,-1172.11" fill="none" stroke="#bcbcbc" stroke-width="8" stroke-linecap="round" stroke-linejoin="round" /><polyline points="944.82,-1365.42 948.39,-1360.73 963.30,-1338.52 990.86,-1297.44 1016.81,-1271.45 1066.68,-1215.47 1058.25,-1163.73 1053.97,-1144.33 1048.02,-1136.13 1060.52,-1117.63 1079.87,-1077.83 1118.53,-1003.25 1137.57,-966.53 1149.40,-933.52 1154.75,-918.20" fill="none" stroke="#bcbcbc" stroke-width="8" stroke-linecap="round" stroke-linejoin="round" /><polyline points="1205.22,-1258.87 1190.88,-1254.41 1096.47,-1225.03 1082.93,-1220.69 1066.68,-1215.47" fill="none" stroke="#bcbcbc" stroke-width="8" stroke-linecap="round" stroke-linejoin="round" /><polyline points="526.73,-1080.03 556.25,-1089.60 770.56,-1199.02 799.25,-1213.04 900.26,-1242.21 998.19,-1269.74 1016.81,-1271.45" fill="none" stroke="#bcbcbc" stroke-width="8" stroke-linecap="round" stroke-linejoin="round" /><polyline points="550.08,-944.57 797.15,-1059.54 807.55,-1066.42 831.71,-1073.45 996.35,-1121.35 1021.32,-1130.91 1048.02,-1136.13" fill="none" stroke="#bcbcbc" stroke-width="8" stroke-linecap="round" stroke-linejoin="round" /><polyline points="499.66,-3354.71 599.68,-3342.35 609.72,-3341.11 648.50,-3331.59" fill="none" stroke="#bcbcbc" stroke-width="8" stroke-linecap="round" stroke-linejoin="round" /><polyline points="1354.34,-2337.99 1372.08,-2341.70 1438.36,-2309.22 1447.09,-2300.58 1571.49,-2090.02 1574.76,-2064.49 1590.94,-2051.01 1588.37,-2041.70 1587.98,-2026.52 1590.22,-2005.30 1623.17,-1869.90 1626.08,-1776.12 1630.70,-1626.38 1638.45,-1424.84 1606.90,-1337.02 1586.57,-1283.48 1556.89,-1208.03 1548.30,-1186.21 1542.72,-1180.11 1533.75,-1121.73" fill="none" stroke="#bcbcbc" stroke-width="8" stroke-linecap="round" stroke-linejoin="round" /><polyline points="1584.35,-766.05 1554.09,-779.21 1478.48,-831.97 1378.73,-902.06 1323.87,-946.42 1286.85,-986.05" fill="none" stroke="#bcbcbc" stroke-width="8" stroke-linecap="round" stroke-linejoin="round" /><polyline points="360.20,413.98 330.49,404.56 282.27,389.28 259.26,381.98 232.23,373.41 198.08,362.59 167.20,352.80 136.68,343.12 0.58,299.93 -23.26,292.37 -52.87,283.00 -59.40,280.93 -137.25,260.36 -159.23,255.05 -186.78,248.38 -215.61,241.39 -319.51,216.20 -347.37,209.44 -377.31,199.05 -439.87,177.32 -463.45,169.14 -484.54,162.29 -582.49,127.47 -594.83,120.11 -600.76,107.33" fill="none" stroke="#bcbcbc" stroke-width="8" stroke-linecap="round" stroke-linejoin="round" /><polyline points="807.55,-1066.42 800.34,-1092.28 778.83,-1169.38 770.56,-1199.02 758.61,-1221.18 757.50,-1225.30 750.45,-1251.39 758.66,-1262.95 748.80,-1295.86 745.74,-1306.07" fill="none" stroke="#bcbcbc" stroke-width="8" stroke-linecap="round" stroke-linejoin="round" /><polyline points="771.60,-2009.87 792.04,-2019.50 903.73,-2081.07 967.58,-2122.13 1012.61,-2152.84 1022.55,-2160.25 1058.80,-2185.44 1096.36,-2213.18 1120.14,-2230.48 1148.49,-2251.21 1247.02,-2295.67 1259.80,-2294.99 1278.48,-2303.83 1354.35,-2337.99" fill="none" stroke="#bcbcbc" stroke-width="8" stroke-linecap="round" stroke-linejoin="round" /><polyline points="-466.43,-1590.12 -450.32,-1583.58 -439.67,-1580.31 -239.93,-1518.97 -209.42,-1509.60" fill="none" stroke="#bcbcbc" stroke-width="8" stroke-linecap="round" stroke-linejoin="round" /><polyline points="-1893.17,-1140.98 -2035.87,-1184.17" fill="none" stroke="#bcbcbc" stroke-width="8" stroke-linecap="round" stroke-linejoin="round" /><polyline points="411.95,-3153.17 447.33,-3108.36 452.61,-3101.67 470.48,-3079.04 490.83,-3076.65 532.68,-3071.74 540.11,-3066.60" fill="none" stroke="#bcbcbc" stroke-width="8" stroke-linecap="round" stroke-linejoin="round" /><polyline points="1640.61,-1159.78 1584.54,-1149.32 1527.05,-1118.08 1473.76,-1088.43 1423.36,-1063.23 1362.45,-1030.15 1318.35,-1003.38 1231.20,-956.66 890.99,-785.51 802.78,-746.66 744.50,-721.46 715.63,-712.01 691.74,-707.55 652.63,-705.19 596.97,-713.06 458.10,-746.40 260.96,-792.34 1.60,-870.56 -93.96,-902.06 -250.41,-950.36 -400.04,-999.70 -619.50,-1085.80 -729.23,-1133.05 -861.54,-1191.84 -1081.00,-1312.06 -1132.45,-1346.18 -1262.65,-1428.08 -1317.26,-1482.67 -1399.16,-1588.72 -1534.09,-1727.83 -1587.12,-1774.55" fill="none" stroke="#bcbcbc" stroke-width="8" stroke-linecap="round" stroke-linejoin="round" /><polyline points="576.80,482.45 579.10,469.62 587.40,448.68 665.23,266.59 694.63,198.34 729.28,113.29 737.72,82.17" fill="none" stroke="#bcbcbc" stroke-width="8" stroke-linecap="round" stroke-linejoin="round" /><polyline points="-916.17,-286.30 -1004.57,-329.08 -1205.73,-426.43 -1452.47,-545.83 -1474.49,-556.49" fill="none" stroke="#bcbcbc" stroke-width="8" stroke-linecap="round" stroke-linejoin="round" /><polyline points="536.73,-1695.39 559.05,-1718.25 618.41,-1779.00 665.51,-1830.43" fill="none" stroke="#bcbcbc" stroke-width="8" stroke-linecap="round" stroke-linejoin="round" /><polyline points="-1177.14,-1560.04 -1201.67,-1592.51 -1316.58,-1744.64 -1480.62,-1877.38" fill="none" stroke="#bcbcbc" stroke-width="8" stroke-linecap="round" stroke-linejoin="round" /><polyline points="-1889.03,442.70 -1866.60,389.51 -1795.27,211.71 -1786.63,188.37 -1777.04,162.48 -1773.40,153.14 -1772.43,138.51 -1763.30,0.28 -1760.68,-39.36" fill="none" stroke="#bcbcbc" stroke-width="8" stroke-linecap="round" stroke-linejoin="round" /><polyline points="-1937.69,-986.56 -1893.17,-1140.98 -1834.42,-1344.65 -1827.15,-1369.86 -1819.06,-1398.50 -1800.96,-1462.63 -1799.06,-1469.37 -1793.87,-1489.99 -1785.60,-1513.30 -1783.60,-1518.94 -1773.16,-1544.82 -1752.66,-1590.04 -1746.53,-1603.02" fill="none" stroke="#bcbcbc" stroke-width="8" stroke-linecap="round" stroke-linejoin="round" /><polyline points="-1827.15,-1369.86 -1737.05,-1346.83 -1546.20,-1297.77 -1437.47,-1263.92 -1392.11,-1253.30" fill="none" stroke="#bcbcbc" stroke-width="8" stroke-linecap="round" stroke-linejoin="round" /><polyline points="27.41,-2070.53 30.48,-2089.27 33.56,-2108.74 46.77,-2173.85 79.80,-2325.40 106.92,-2460.97 111.87,-2489.10 118.61,-2527.28 118.62,-2527.32" fill="none" stroke="#bcbcbc" stroke-width="8" stroke-linecap="round" stroke-linejoin="round" /><polyline points="-239.34,847.85 -199.12,745.25 -194.12,726.82 -34.47,321.60 -23.26,292.37 -14.19,267.57 81.21,-9.93 99.58,-25.95" fill="none" stroke="#bcbcbc" stroke-width="8" stroke-linecap="round" stroke-linejoin="round" /><polyline points="307.88,-2148.97 307.87,-2149.01 302.22,-2178.68 301.33,-2182.28 287.54,-2238.36 287.55,-2238.54 278.15,-2276.57 238.31,-2413.08 233.29,-2427.70 206.38,-2500.83 197.64,-2522.66 192.00,-2536.74 184.68,-2552.74 184.67,-2552.76 184.66,-2552.83 179.32,-2611.63 178.81,-2640.50" fill="none" stroke="#bcbcbc" stroke-width="8" stroke-linecap="round" stroke-linejoin="round" /><polyline points="-466.43,-1590.12 -460.56,-1606.04 -459.23,-1609.73 -431.30,-1687.74 -420.83,-1720.60 -335.23,-1972.28" fill="none" stroke="#bcbcbc" stroke-width="8" stroke-linecap="round" stroke-linejoin="round" /><polyline points="-23.62,-1237.27 -14.89,-1260.47 8.77,-1323.30 18.77,-1349.86 25.54,-1367.84 44.52,-1418.25 57.06,-1451.56 58.75,-1456.04 89.12,-1536.72 101.82,-1532.78 108.71,-1551.52 120.88,-1584.65 118.54,-1599.71 150.86,-1687.67 154.18,-1696.71 160.31,-1702.34 165.46,-1707.07 197.87,-1795.65 202.55,-1819.90 249.05,-1949.08 260.05,-1957.68 282.42,-2020.96 278.44,-2030.67 298.03,-2089.77 287.87,-2142.54" fill="none" stroke="#bcbcbc" stroke-width="8" stroke-linecap="round" stroke-linejoin="round" /><polyline points="808.11,-3640.02 795.09,-3661.39 726.63,-3773.69" fill="none" stroke="#bcbcbc" stroke-width="8" stroke-linecap="round" stroke-linejoin="round" /><polyline points="1022.55,-2160.25 1336.73,-1958.24 1336.82,-1958.10 1336.82,-1958.07 1394.93,-1950.53" fill="none" stroke="#bcbcbc" stroke-width="8" stroke-linecap="round" stroke-linejoin="round" /><polyline points="896.56,-2582.23 1230.84,-2414.47 1240.92,-2406.94 1240.25,-2352.02 1247.02,-2295.67" fill="none" stroke="#bcbcbc" stroke-width="8" stroke-linecap="round" stroke-linejoin="round" /><polyline points="259.26,381.98 247.23,418.66 198.53,567.18 115.68,817.32 109.81,835.06 103.85,853.04 102.19,872.19" fill="none" stroke="#bcbcbc" stroke-width="8" stroke-linecap="round" stroke-linejoin="round" /><polyline points="1200.29,-520.27 1202.29,-538.91 1202.72,-556.30 1202.58,-556.90 1190.73,-608.10 1185.87,-629.49 1183.53,-639.81 1181.14,-650.36 1168.13,-707.64 1142.73,-822.10 1124.28,-890.92 1121.66,-901.55" fill="none" stroke="#bcbcbc" stroke-width="8" stroke-linecap="round" stroke-linejoin="round" /><polyline points="-459.31,527.53 -451.02,503.99 -357.94,239.47 -347.37,209.44" fill="none" stroke="#bcbcbc" stroke-width="8" stroke-linecap="round" stroke-linejoin="round" /><polyline points="1630.70,-1626.39 1603.31,-1634.11 1417.33,-1919.47 1394.93,-1950.53" fill="none" stroke="#bcbcbc" stroke-width="8" stroke-linecap="round" stroke-linejoin="round" /><polyline points="-1426.61,-941.71 -748.81,-779.34 -702.07,-762.28" fill="none" stroke="#bcbcbc" stroke-width="8" stroke-linecap="round" stroke-linejoin="round" /><polyline points="711.20,-3478.76 975.23,-3380.96 1012.40,-3387.31" fill="none" stroke="#bcbcbc" stroke-width="8" stroke-linecap="round" stroke-linejoin="round" />
    <polyline points="248.17,167.20 237.92,178.27 222.66,196.43 179.65,317.69 167.20,352.80" fill="none" stroke="#ffffff" stroke-width="16" stroke-linecap="round" stroke-linejoin="round" />
    <polyline points="248.17,167.20 237.92,178.27 222.66,196.43 179.65,317.69 167.20,352.80" fill="none" stroke="#111111" stroke-width="9" stroke-linecap="round" stroke-linejoin="round" />
    
            <g transform="translate(248.17,167.20)">
              <circle r="19" fill="#ffffff" stroke="#111111" stroke-width="4" />
              <text text-anchor="middle" dominant-baseline="central" font-family="Helvetica, Arial, sans-serif"
                font-size="18" font-weight="700" fill="#111111">1</text>
            </g>
            
            <g transform="translate(167.20,352.80)">
              <circle r="19" fill="#ffffff" stroke="#111111" stroke-width="4" />
              <text text-anchor="middle" dominant-baseline="central" font-family="Helvetica, Arial, sans-serif"
                font-size="18" font-weight="700" fill="#111111">2</text>
            </g>
            
  </g>
</svg>
