<svg xmlns="http://www.w3.org/2000/svg" width="520" height="520" viewBox="0 0 520 520">
  <rect width="100%" height="100%" fill="#ffffff" />
  <g>
    <polyline points="1051.35,-10.41 1054.40,5.80 1074.06,143.37 1071.06,177.76" fill="none" stroke="#bcbcbc" stroke-width="8" stroke-linecap="round" stroke-linejoin="round" /><polyline points="651.65,1136.01 656.41,1121.40 681.60,1043.92 684.57,1034.79 687.57,1025.21 750.91,823.21 756.00,806.96 744.34,778.23" fill="none" stroke="#bcbcbc" stroke-width="8" stroke-linecap="round" stroke-linejoin="round" /><polyline points="214.12,956.35 213.10,944.75 233.81,828.76 236.71,814.25 238.88,806.65 244.58,777.23 250.99,741.23 257.97,709.53 264.89,677.89 269.25,668.97 272.10,663.50" fill="none" stroke="#bcbcbc" stroke-width="8" stroke-linecap="round" stroke-linejoin="round" /><polyline points="334.32,138.18 329.40,123.17 278.51,-32.04 276.03,-38.55" fill="none" stroke="#bcbcbc" stroke-width="8" stroke-linecap="round" stroke-linejoin="round" /><polyline points="73.20,1504.24 74.72,1489.43 75.33,1482.64 80.87,1421.35 86.94,1367.39 88.35,1354.79 89.67,1339.67 89.81,1338.40 93.25,1308.35 96.22,1277.80 99.48,1248.32 101.68,1225.37 102.60,1211.20 103.41,1198.12 104.85,1183.38" fill="none" stroke="#bcbcbc" stroke-width="8" stroke-linecap="round" stroke-linejoin="round" /><polyline points="776.37,1172.03 780.00,1160.63 805.54,1080.35 808.44,1071.23 812.56,1058.24 815.52,1048.92 838.12,951.44" fill="none" stroke="#bcbcbc" stroke-width="8" stroke-linecap="round" stroke-linejoin="round" /><polyline points="677.11,-415.92 686.54,-414.47 946.40,-374.54" fill="none" stroke="#bcbcbc" stroke-width="8" stroke-linecap="round" stroke-linejoin="round" /><polyline points="9.98,1153.11 -17.07,1151.85 -33.56,1151.08 -42.52,1150.67 -50.38,1150.30 -111.63,1147.45 -196.83,1143.49 -237.43,1137.73 -251.02,1135.80 -262.82,1133.72 -342.68,1119.63 -353.85,1117.65 -356.32,1117.23 -370.11,1114.87 -380.71,1113.05 -448.38,1107.07 -461.27,1105.93 -466.00,1105.51 -480.63,1104.50 -509.28,1102.51" fill="none" stroke="#bcbcbc" stroke-width="8" stroke-linecap="round" stroke-linejoin="round" /><polyline points="402.94,1074.63 408.18,1059.72 455.39,928.85 512.18,763.77 515.82,753.42 518.36,746.18 520.41,740.25" fill="none" stroke="#bcbcbc" stroke-width="8" stroke-linecap="round" stroke-linejoin="round" /><polyline points="-466.00,1105.51 -467.21,1097.10 -467.49,1087.96 -465.70,1069.55 -461.59,1035.95 -458.85,1024.67 -454.40,983.89 -453.59,974.80 -452.28,963.13 -451.32,954.45 -449.49,944.62 -446.11,918.17 -443.76,897.94 -440.31,889.66" fill="none" stroke="#bcbcbc" stroke-width="8" stroke-linecap="round" stroke-linejoin="round" /><polyline points="-514.32,879.32 -451.35,888.12 -440.31,889.66 -433.47,890.75 -405.25,895.25 -340.21,905.61 -329.05,907.47" fill="none" stroke="#bcbcbc" stroke-width="8" stroke-linecap="round" stroke-linejoin="round" /><polyline points="644.59,53.21 644.99,58.94 645.84,64.73 647.89,69.17 651.71,74.12 658.80,80.57 675.58,90.78 805.05,172.01 884.79,278.92 945.02,427.57 948.95,437.39" fill="none" stroke="#bcbcbc" stroke-width="8" stroke-linecap="round" stroke-linejoin="round" /><polyline points="623.85,486.94 626.54,491.38 627.23,492.54 629.45,503.75 644.65,577.21 649.47,600.52 652.92,617.13 658.30,650.79 660.81,666.31 662.54,675.78 664.44,684.33 666.70,689.33 670.03,695.10 671.81,697.83 705.45,745.99 723.65,774.65 728.39,781.50" fill="none" stroke="#bcbcbc" stroke-width="8" stroke-linecap="round" stroke-linejoin="round" /><polyline points="-341.91,1406.72 -340.12,1395.70 -338.46,1387.73 -338.02,1386.67 -315.62,1333.43 -301.36,1298.83 -297.02,1287.86 -292.43,1276.25 -287.44,1266.26 -286.63,1264.31 -279.81,1247.81 -274.53,1233.21 -270.00,1219.81 -267.13,1210.34 -263.91,1198.64 -260.19,1182.96 -257.37,1170.23 -254.00,1152.47 -253.29,1148.51 -251.02,1135.80" fill="none" stroke="#bcbcbc" stroke-width="8" stroke-linecap="round" stroke-linejoin="round" /><polyline points="742.93,-80.11 814.33,-30.22 823.95,-28.18 830.99,-20.12" fill="none" stroke="#bcbcbc" stroke-width="8" stroke-linecap="round" stroke-linejoin="round" /><polyline points="443.14,380.64 452.58,384.27 493.54,397.68 588.57,434.12 593.90,439.43 596.40,443.40" fill="none" stroke="#bcbcbc" stroke-width="8" stroke-linecap="round" stroke-linejoin="round" /><polyline points="620.21,1317.09 626.69,1300.23 658.63,1213.55 681.22,1148.07 685.90,1145.91" fill="none" stroke="#bcbcbc" stroke-width="8" stroke-linecap="round" stroke-linejoin="round" /><polyline points="168.65,1207.19 173.69,1196.05 174.19,1194.95 182.81,1166.01 196.94,1118.39 200.56,1106.20 203.37,1096.74 203.75,1091.22 203.17,1079.01" fill="none" stroke="#bcbcbc" stroke-width="8" stroke-linecap="round" stroke-linejoin="round" /><polyline points="755.82,490.75 747.72,492.42 729.37,489.15 726.53,481.58 694.72,469.46 687.20,471.42 658.51,460.89 654.23,463.88" fill="none" stroke="#bcbcbc" stroke-width="8" stroke-linecap="round" stroke-linejoin="round" /><polyline points="708.60,-492.96 723.01,-489.43 730.98,-488.04 920.55,-455.17" fill="none" stroke="#bcbcbc" stroke-width="8" stroke-linecap="round" stroke-linejoin="round" /><polyline points="561.27,1264.31 569.15,1242.08 584.48,1198.87 594.38,1180.47 608.63,1140.57 614.32,1124.64" fill="none" stroke="#bcbcbc" stroke-width="8" stroke-linecap="round" stroke-linejoin="round" /><polyline points="-477.39,401.43 -491.12,400.80 -494.56,404.98 -518.48,434.04 -602.10,530.63 -613.85,544.22" fill="none" stroke="#bcbcbc" stroke-width="8" stroke-linecap="round" stroke-linejoin="round" /><polyline points="256.02,484.15 249.96,497.57 249.23,499.20 228.17,554.11 206.94,614.56 201.28,630.68 198.07,639.00" fill="none" stroke="#bcbcbc" stroke-width="8" stroke-linecap="round" stroke-linejoin="round" /><polyline points="564.90,-132.86 571.59,-123.78 576.37,-111.30 583.80,-93.39 595.73,-65.21 606.30,-39.92 618.42,-12.14 627.42,9.26 628.75,12.33 628.83,12.52 636.07,29.45 638.24,34.26 640.30,38.84 642.47,43.13 644.11,47.49 644.59,53.21" fill="none" stroke="#bcbcbc" stroke-width="8" stroke-linecap="round" stroke-linejoin="round" /><polyline points="52.78,754.85 56.28,752.93 61.18,749.04 63.63,743.99 96.16,620.63 97.14,613.67 101.11,600.96" fill="none" stroke="#bcbcbc" stroke-width="8" stroke-linecap="round" stroke-linejoin="round" /><polyline points="1190.36,561.80 1194.97,576.44 1198.22,591.83 1191.90,650.47 1184.59,694.57 1180.60,709.62 1180.23,710.98 1176.74,719.10 1171.97,727.71 1160.84,741.79 1166.23,769.31 1148.80,828.39 1139.17,861.02 1119.47,914.43 1090.63,979.46 1055.41,1041.78 1044.42,1062.03 1024.53,1095.31 945.09,1208.07 927.68,1231.52 860.28,1319.61 821.58,1363.64 767.45,1418.65 762.44,1419.17 750.22,1429.16" fill="none" stroke="#bcbcbc" stroke-width="8" stroke-linecap="round" stroke-linejoin="round" /><polyline points="210.07,1526.32 232.25,1457.54 235.88,1446.18 240.81,1439.03 251.40,1407.24 254.85,1396.44 298.60,1259.45 303.00,1245.68 306.62,1233.57 358.26,1071.07" fill="none" stroke="#bcbcbc" stroke-width="8" stroke-linecap="round" stroke-linejoin="round" /><polyline points="729.59,247.17 748.76,226.22 754.42,219.41 793.15,164.54" fill="none" stroke="#bcbcbc" stroke-width="8" stroke-linecap="round" stroke-linejoin="round" /><polyline points="346.41,255.47 399.20,273.85 402.12,278.59 417.11,283.62 426.01,286.66 468.56,301.03" fill="none" stroke="#bcbcbc" stroke-width="8" stroke-linecap="round" stroke-linejoin="round" /><polyline points="806.57,-109.88 830.99,-20.12 859.26,85.61 863.54,94.43 864.22,104.49 883.39,140.28 935.12,236.75 946.43,253.43 949.71,258.32 1027.00,402.82 1062.52,435.12 1067.50,441.55 1074.53,447.56 1141.97,505.23 1146.55,509.14 1158.66,515.57" fill="none" stroke="#bcbcbc" stroke-width="8" stroke-linecap="round" stroke-linejoin="round" /><polyline points="544.26,1540.92 712.47,1443.21 742.41,1427.90 750.22,1429.16" fill="none" stroke="#bcbcbc" stroke-width="8" stroke-linecap="round" stroke-linejoin="round" /><polyline points="726.63,1401.14 737.07,1388.73 830.76,1201.78 836.97,1189.52 842.15,1177.38 872.42,1102.54 881.43,1079.99 907.51,1001.05 924.43,899.55 926.43,884.78" fill="none" stroke="#bcbcbc" stroke-width="8" stroke-linecap="round" stroke-linejoin="round" /><polyline points="654.33,301.67 652.69,303.35 650.43,311.22 650.21,312.00 640.04,351.16 642.71,361.38 640.49,370.54 637.59,382.53 630.15,391.15 621.70,425.36 611.75,432.87 601.14,440.15 596.40,443.40" fill="none" stroke="#bcbcbc" stroke-width="8" stroke-linecap="round" stroke-linejoin="round" /><polyline points="256.02,484.15 260.34,473.07 286.34,406.44 292.00,391.91 296.67,379.94 329.89,294.84 344.84,259.27 346.41,255.47 358.03,227.37 384.11,162.63 393.65,135.07 395.78,128.75 398.64,121.58" fill="none" stroke="#bcbcbc" stroke-width="8" stroke-linecap="round" stroke-linejoin="round" /><polyline points="546.88,80.22 551.90,95.18 716.86,236.09 806.88,314.41 941.32,431.29 953.06,440.67 958.31,443.96 981.64,465.14 1012.80,491.71 1083.47,551.97 1106.29,571.60 1121.44,589.71" fill="none" stroke="#bcbcbc" stroke-width="8" stroke-linecap="round" stroke-linejoin="round" /><polyline points="819.62,-162.57 827.99,-167.94 877.56,-188.54 887.74,-199.26" fill="none" stroke="#bcbcbc" stroke-width="8" stroke-linecap="round" stroke-linejoin="round" /><polyline points="876.87,1091.40 808.44,1071.23 684.56,1034.79" fill="none" stroke="#bcbcbc" stroke-width="8" stroke-linecap="round" stroke-linejoin="round" /><polyline points="655.97,-364.26 665.32,-357.82 969.91,-290.04" fill="none" stroke="#bcbcbc" stroke-width="8" stroke-linecap="round" stroke-linejoin="round" /><polyline points="1032.22,638.64 1016.47,603.61 981.54,520.29 978.94,513.67 972.96,498.46 950.44,441.16 949.02,437.44" fill="none" stroke="#bcbcbc" stroke-width="8" stroke-linecap="round" stroke-linejoin="round" /><polyline points="564.90,-132.86 547.99,-137.67 535.56,-141.37 510.31,-148.87 497.48,-152.53 490.12,-154.57 480.52,-157.32" fill="none" stroke="#bcbcbc" stroke-width="8" stroke-linecap="round" stroke-linejoin="round" /><polyline points="123.98,325.42 123.12,322.62 122.33,320.66 118.85,312.00 105.35,280.53 92.51,248.55 89.74,241.00 86.55,232.30 84.27,225.19 80.50,214.52 80.10,213.40 67.82,183.14 45.28,126.27 40.22,123.38 36.62,114.16 29.43,89.18 17.12,58.23 14.47,51.19" fill="none" stroke="#bcbcbc" stroke-width="8" stroke-linecap="round" stroke-linejoin="round" /><polyline points="232.25,1457.54 245.05,1461.46 286.46,1474.08 299.43,1478.03" fill="none" stroke="#bcbcbc" stroke-width="8" stroke-linecap="round" stroke-linejoin="round" /><polyline points="1005.61,-147.68 1008.02,-157.44 1007.04,-161.15 1005.86,-165.62 998.30,-193.32 981.44,-251.88 972.55,-281.82 969.91,-290.04 946.40,-374.54 933.71,-420.12 920.55,-455.17 908.66,-486.79 896.81,-508.53 885.31,-520.02 796.97,-627.96 790.44,-635.64 786.11,-642.74" fill="none" stroke="#bcbcbc" stroke-width="8" stroke-linecap="round" stroke-linejoin="round" /><polyline points="644.59,53.21 640.03,54.95 631.61,57.28 630.77,57.51 595.58,66.51 555.13,77.90 546.88,80.22 543.20,81.39 533.48,84.51 525.17,86.83 488.90,96.92 429.25,113.87 407.01,119.49 398.64,121.58 358.88,131.34 334.32,138.18 282.32,152.71 230.91,167.20 224.97,168.85 182.01,180.77 162.19,186.28 152.18,191.00 133.24,200.40 95.62,219.49 93.00,220.82 84.27,225.19 78.94,227.85 71.51,231.75 45.08,245.61 -3.08,272.63 -43.31,293.70 -49.06,296.72 -56.75,297.20 -61.37,299.65 -62.29,300.14 -105.93,324.06 -115.07,324.02 -125.56,329.51 -129.23,331.42 -132.32,333.04 -139.61,336.86 -145.36,349.97 -170.06,363.20 -177.91,367.41 -186.41,372.03 -220.78,390.73 -238.54,400.40 -247.49,402.98" fill="none" stroke="#bcbcbc" stroke-width="8" stroke-linecap="round" stroke-linejoin="round" /><polyline points="1139.17,861.02 1120.83,862.70 1063.55,867.95 1060.97,868.19 1057.31,868.52 1051.40,869.07 995.86,874.17 976.54,872.37 954.05,878.01 936.03,882.43 926.43,884.78 902.59,885.69 881.95,884.64 871.42,883.52 862.47,880.81 855.88,877.16 831.32,859.80 771.64,818.81 766.02,814.99 760.29,811.11 756.00,806.96" fill="none" stroke="#bcbcbc" stroke-width="8" stroke-linecap="round" stroke-linejoin="round" /><polyline points="-212.36,169.05 -190.71,211.45 -187.43,223.56 -169.19,258.36 -161.66,268.32 -131.17,327.64 -129.23,331.42" fill="none" stroke="#bcbcbc" stroke-width="8" stroke-linecap="round" stroke-linejoin="round" /><polyline points="451.18,546.04 447.94,554.95 447.03,557.72 442.80,570.54 416.01,645.28 402.72,682.40 402.26,683.66 396.92,695.20 393.86,702.05" fill="none" stroke="#bcbcbc" stroke-width="8" stroke-linecap="round" stroke-linejoin="round" /><polyline points="806.57,-109.88 803.60,-116.24 795.79,-117.26 770.54,-111.47 765.41,-112.14 761.39,-117.53 754.25,-150.39 792.95,-156.38 810.86,-161.66 819.62,-162.57 829.06,-129.03" fill="none" stroke="#bcbcbc" stroke-width="8" stroke-linecap="round" stroke-linejoin="round" /><polyline points="946.43,253.43 956.40,247.84 1006.47,217.67 1019.85,209.70 1043.27,195.73 1081.80,170.81 1090.79,164.35 1158.38,122.42" fill="none" stroke="#bcbcbc" stroke-width="8" stroke-linecap="round" stroke-linejoin="round" /><polyline points="1182.69,451.48 1165.60,446.39 1155.67,438.25 1117.71,405.39 1116.41,404.24 1107.23,396.05 1101.84,386.48 1006.47,217.67" fill="none" stroke="#bcbcbc" stroke-width="8" stroke-linecap="round" stroke-linejoin="round" /><polyline points="106.38,438.11 256.02,484.15 268.23,488.02 379.89,523.42 382.23,524.16 398.95,529.47 407.18,532.08 417.87,535.00 439.91,542.46 451.18,546.04 461.33,549.26 544.43,575.62 632.16,603.18 639.41,605.46 649.47,600.52" fill="none" stroke="#bcbcbc" stroke-width="8" stroke-linecap="round" stroke-linejoin="round" /><polyline points="546.36,-300.66 611.18,-360.22 622.15,-370.30" fill="none" stroke="#bcbcbc" stroke-width="8" stroke-linecap="round" stroke-linejoin="round" /><polyline points="-539.05,660.40 -301.21,685.89" fill="none" stroke="#bcbcbc" stroke-width="8" stroke-linecap="round" stroke-linejoin="round" /><polyline points="178.45,-3.47 228.44,-21.35 280.01,-39.99 312.04,-52.45 409.86,-88.02 438.25,-97.85 444.18,-99.89 451.29,-102.34 459.27,-105.09 460.25,-105.42 476.36,-111.90 483.37,-114.71" fill="none" stroke="#bcbcbc" stroke-width="8" stroke-linecap="round" stroke-linejoin="round" /><polyline points="514.20,1206.25 561.27,1264.31 590.08,1293.32 602.55,1302.30 620.21,1317.09 636.80,1331.02 651.05,1344.92 651.40,1351.99" fill="none" stroke="#bcbcbc" stroke-width="8" stroke-linecap="round" stroke-linejoin="round" /><polyline points="564.90,-132.86 583.35,-179.09 613.20,-255.21 655.97,-364.26 677.11,-415.92 708.60,-492.96 734.43,-556.06 739.05,-564.43 761.76,-601.56 763.23,-603.96 771.54,-620.30 786.11,-642.74 794.24,-655.27 805.76,-672.99" fill="none" stroke="#bcbcbc" stroke-width="8" stroke-linecap="round" stroke-linejoin="round" /><polyline points="129.76,1103.28 126.74,1105.70 124.75,1108.57 120.68,1120.57 117.87,1129.23 104.87,1168.09 103.08,1173.70 101.97,1177.18 90.04,1173.76 61.00,1164.02 32.22,1154.37 9.98,1153.11" fill="none" stroke="#bcbcbc" stroke-width="8" stroke-linecap="round" stroke-linejoin="round" /><polyline points="-438.98,1373.69 -391.55,1251.20 -386.27,1237.87 -381.54,1225.03 -375.82,1209.51 -368.81,1185.10 -361.49,1154.76 -358.50,1133.02 -356.32,1117.23 -353.25,1105.57 -342.09,1017.99 -329.05,907.47 -322.30,854.78 -314.77,792.89 -301.21,685.89 -299.05,667.70 -285.34,555.81 -285.33,549.58 -282.30,516.38 -273.55,446.25 -271.36,434.02 -269.07,427.16 -265.50,419.60 -262.02,413.73 -254.34,405.42 -247.48,403.07" fill="none" stroke="#bcbcbc" stroke-width="8" stroke-linecap="round" stroke-linejoin="round" /><polyline points="596.40,443.40 599.00,447.52 607.69,461.09 620.72,481.97 623.85,486.94 629.05,483.00 654.23,463.88" fill="none" stroke="#bcbcbc" stroke-width="8" stroke-linecap="round" stroke-linejoin="round" /><polyline points="613.20,-255.21 869.45,-208.88 896.37,-194.72 996.77,-144.94 1005.61,-147.68" fill="none" stroke="#bcbcbc" stroke-width="8" stroke-linecap="round" stroke-linejoin="round" /><polyline points="123.98,325.42 119.43,332.05 78.55,352.01 48.52,390.17 16.12,410.23 -6.04,426.97 -27.18,444.21 -38.02,454.09 -57.16,478.38 -78.57,509.07 -82.10,514.75" fill="none" stroke="#bcbcbc" stroke-width="8" stroke-linecap="round" stroke-linejoin="round" /><polyline points="167.20,352.80 165.43,356.74 161.55,362.41 154.23,371.42 111.04,425.97 88.19,487.51 -27.13,444.16" fill="none" stroke="#bcbcbc" stroke-width="8" stroke-linecap="round" stroke-linejoin="round" /><polyline points="-6.04,426.97 -10.50,413.45 -29.80,355.02 -37.29,343.48 -49.83,305.85 -50.91,302.61 -49.06,296.72 -52.07,287.13 -112.37,94.59" fill="none" stroke="#bcbcbc" stroke-width="8" stroke-linecap="round" stroke-linejoin="round" /><polyline points="700.51,-623.57 748.17,-622.32 750.39,-622.25 759.52,-621.99 771.54,-620.30" fill="none" stroke="#bcbcbc" stroke-width="8" stroke-linecap="round" stroke-linejoin="round" /><polyline points="455.39,928.85 439.12,928.65 301.34,947.14 291.41,948.19 280.05,949.39 214.12,956.35 125.30,965.73 78.21,970.70 52.15,973.44 31.00,976.02 20.14,977.34 7.91,978.82 -51.19,986.00 -65.35,987.73 -108.99,992.50 -342.09,1017.99" fill="none" stroke="#bcbcbc" stroke-width="8" stroke-linecap="round" stroke-linejoin="round" /><polyline points="251.40,1407.24 239.19,1403.31 182.18,1384.96 170.66,1381.25 160.66,1378.03 100.26,1358.62 88.35,1354.79 72.60,1349.72 -23.55,1318.78 -34.37,1315.30" fill="none" stroke="#bcbcbc" stroke-width="8" stroke-linecap="round" stroke-linejoin="round" /><polyline points="489.78,252.98 522.94,263.31 644.20,300.76 645.34,301.11 654.33,301.67" fill="none" stroke="#bcbcbc" stroke-width="8" stroke-linecap="round" stroke-linejoin="round" /><polyline points="830.99,-20.12 995.95,-17.22" fill="none" stroke="#bcbcbc" stroke-width="8" stroke-linecap="round" stroke-linejoin="round" /><polyline points="750.22,1429.16 726.63,1401.14 716.74,1389.63 708.24,1381.68 696.92,1373.23 673.79,1359.35 651.40,1351.99 605.85,1337.92 568.60,1326.10 590.08,1293.32" fill="none" stroke="#bcbcbc" stroke-width="8" stroke-linecap="round" stroke-linejoin="round" /><polyline points="514.20,1206.25 481.37,1165.72 475.12,1158.01 442.05,1112.44 434.56,1098.53 436.36,1081.97 446.33,1081.87 470.93,1086.61 508.36,1093.81" fill="none" stroke="#bcbcbc" stroke-width="8" stroke-linecap="round" stroke-linejoin="round" /><polyline points="84.66,881.51 90.72,894.54 125.30,965.73 176.72,1071.59 183.28,1085.09" fill="none" stroke="#bcbcbc" stroke-width="8" stroke-linecap="round" stroke-linejoin="round" /><polyline points="-469.22,1203.96 -456.85,1209.02 -398.92,1232.70 -386.27,1237.87 -372.97,1243.31 -304.77,1271.20 -292.43,1276.25" fill="none" stroke="#bcbcbc" stroke-width="8" stroke-linecap="round" stroke-linejoin="round" /><polyline points="113.12,775.96 233.81,828.76" fill="none" stroke="#bcbcbc" stroke-width="8" stroke-linecap="round" stroke-linejoin="round" /><polyline points="654.33,301.67 672.71,302.64 673.88,303.68 682.13,311.00 694.25,321.82 696.49,326.17 738.28,362.76 741.37,368.60 770.75,394.53 778.14,396.79 801.00,416.80 806.12,419.14 840.58,448.38 848.26,455.19 852.49,461.93" fill="none" stroke="#bcbcbc" stroke-width="8" stroke-linecap="round" stroke-linejoin="round" /><polyline points="-503.28,776.08 -314.77,792.89" fill="none" stroke="#bcbcbc" stroke-width="8" stroke-linecap="round" stroke-linejoin="round" /><polyline points="-82.39,1478.02 -76.55,1465.59 -75.05,1460.06 -66.86,1429.87 -37.21,1325.31 -34.37,1315.30 -31.37,1304.32 -17.93,1255.19 4.75,1172.23 9.98,1153.11" fill="none" stroke="#bcbcbc" stroke-width="8" stroke-linecap="round" stroke-linejoin="round" /><polyline points="84.66,881.51 113.12,775.96 52.78,754.85 36.98,764.17 29.78,769.65 24.44,776.87 20.69,786.39 6.81,837.69 18.01,843.39 29.32,846.13 54.33,852.64 73.05,858.61 84.66,881.51" fill="none" stroke="#bcbcbc" stroke-width="8" stroke-linecap="round" stroke-linejoin="round" /><polyline points="6.81,837.69 -6.40,835.85 -314.77,792.89" fill="none" stroke="#bcbcbc" stroke-width="8" stroke-linecap="round" stroke-linejoin="round" /><polyline points="508.36,1093.81 536.96,1100.06 614.32,1124.64 635.95,1131.48 687.29,1146.31 739.00,1161.23 777.29,1172.29 838.52,1189.97 851.17,1193.62 882.08,1203.98 932.95,1217.54 937.44,1218.37" fill="none" stroke="#bcbcbc" stroke-width="8" stroke-linecap="round" stroke-linejoin="round" /><polyline points="544.64,1540.70 534.20,1543.32 522.92,1574.77 505.42,1569.80 425.86,1542.68 416.28,1540.64 394.98,1539.11 298.63,1539.50 277.39,1536.80 229.42,1529.46 210.08,1526.32 72.85,1504.19 19.71,1495.71 -81.63,1478.15 -98.00,1474.91 -326.71,1410.98 -341.14,1406.94 -438.98,1373.69 -463.05,1365.15 -523.17,1340.23 -557.44,1327.27" fill="none" stroke="#bcbcbc" stroke-width="8" stroke-linecap="round" stroke-linejoin="round" /><polyline points="754.25,-150.39 744.35,-152.42 612.16,-136.80 564.90,-132.86" fill="none" stroke="#bcbcbc" stroke-width="8" stroke-linecap="round" stroke-linejoin="round" /><polyline points="508.36,1093.81 512.99,1086.05 540.73,1014.81 571.72,907.09 579.63,883.89 583.86,877.57 613.78,781.52 615.27,770.05 616.40,762.55" fill="none" stroke="#bcbcbc" stroke-width="8" stroke-linecap="round" stroke-linejoin="round" /><polyline points="644.59,53.21 647.74,52.00 652.03,48.60 658.53,41.00 742.93,-80.11 765.41,-112.14" fill="none" stroke="#bcbcbc" stroke-width="8" stroke-linecap="round" stroke-linejoin="round" /><polyline points="1020.24,498.10 1021.96,493.13 1064.39,443.21 1067.50,441.55 1074.87,431.47 1099.56,403.11 1107.23,396.05" fill="none" stroke="#bcbcbc" stroke-width="8" stroke-linecap="round" stroke-linejoin="round" /><polyline points="1057.31,868.52 1056.73,861.85 1056.27,856.68 1054.04,846.80 1051.36,840.35 1048.03,823.43 1047.73,817.29 1045.47,803.59 1035.37,798.31 1027.30,801.40 1012.85,804.86 1001.42,806.65 990.45,809.29 975.31,812.74 968.41,814.32" fill="none" stroke="#bcbcbc" stroke-width="8" stroke-linecap="round" stroke-linejoin="round" /><polyline points="-57.36,623.38 -26.50,551.05 -24.79,546.35" fill="none" stroke="#bcbcbc" stroke-width="8" stroke-linecap="round" stroke-linejoin="round" /><polyline points="755.82,490.75 770.69,484.99 778.47,481.97 784.48,475.89 809.28,469.77 817.60,471.89 835.54,467.27 849.23,463.74 852.49,461.93 865.77,458.67 933.64,442.04 949.02,437.44" fill="none" stroke="#bcbcbc" stroke-width="8" stroke-linecap="round" stroke-linejoin="round" /><polyline points="129.76,1103.28 161.78,1091.65 172.49,1088.38 183.28,1085.09 203.17,1079.01 218.65,1076.78 271.52,1071.00 282.14,1070.42 329.44,1070.82 358.26,1071.07 369.09,1070.51 386.45,1072.27 391.88,1073.05 402.94,1074.63 436.36,1081.97" fill="none" stroke="#bcbcbc" stroke-width="8" stroke-linecap="round" stroke-linejoin="round" /><polyline points="282.32,152.71 277.01,134.78 257.31,68.17 233.38,-7.79 228.44,-21.35 223.42,-34.06 217.08,-52.37" fill="none" stroke="#bcbcbc" stroke-width="8" stroke-linecap="round" stroke-linejoin="round" /><polyline points="225.02,1226.76 229.22,1213.47 271.79,1079.25 271.52,1071.00" fill="none" stroke="#bcbcbc" stroke-width="8" stroke-linecap="round" stroke-linejoin="round" /><polyline points="282.14,1070.42 290.57,957.41 291.41,948.19 292.70,937.47 292.72,936.98 293.28,923.88 296.09,888.30 297.67,871.73 299.84,852.91 301.82,839.36 303.59,830.85 305.82,824.42 310.20,809.93 319.24,779.76 330.74,740.80 343.41,700.97 346.00,692.85 348.07,686.96" fill="none" stroke="#bcbcbc" stroke-width="8" stroke-linecap="round" stroke-linejoin="round" /><polyline points="6.81,837.69 4.57,847.70 4.96,850.90 18.69,965.23 20.14,977.34 19.51,989.79 15.91,1060.90 14.41,1090.61 13.64,1105.93 12.25,1133.24 11.54,1147.46 9.98,1153.11" fill="none" stroke="#bcbcbc" stroke-width="8" stroke-linecap="round" stroke-linejoin="round" /><polyline points="-57.36,623.38 -107.28,608.54 -113.63,604.47 -144.70,595.42 -153.43,595.51 -192.47,583.75 -198.78,579.10 -234.30,568.33 -277.89,556.45 -278.11,556.43 -285.34,555.81" fill="none" stroke="#bcbcbc" stroke-width="8" stroke-linecap="round" stroke-linejoin="round" /><polyline points="852.49,461.93 854.22,464.20 861.46,474.99 874.85,494.94 887.45,507.56 911.66,534.75 907.57,559.88 905.49,569.30 902.60,573.28 908.68,582.27 918.07,601.60 936.84,637.81 946.09,655.65 951.83,671.68 954.43,679.12" fill="none" stroke="#bcbcbc" stroke-width="8" stroke-linecap="round" stroke-linejoin="round" /><polyline points="978.94,513.67 971.98,515.84 926.13,530.10 919.55,532.22 911.66,534.75" fill="none" stroke="#bcbcbc" stroke-width="8" stroke-linecap="round" stroke-linejoin="round" /><polyline points="649.47,600.52 663.81,595.88 767.87,542.74 781.80,535.93 830.85,521.76 878.41,508.39 887.45,507.56" fill="none" stroke="#bcbcbc" stroke-width="8" stroke-linecap="round" stroke-linejoin="round" /><polyline points="660.81,666.31 780.78,610.48 785.83,607.14 797.57,603.72 877.51,580.46 889.64,575.82 902.60,573.28" fill="none" stroke="#bcbcbc" stroke-width="8" stroke-linecap="round" stroke-linejoin="round" /><polyline points="636.33,-504.18 684.89,-498.18 689.77,-497.58 708.60,-492.96" fill="none" stroke="#bcbcbc" stroke-width="8" stroke-linecap="round" stroke-linejoin="round" /><polyline points="1051.35,-10.41 1059.96,-12.21 1092.15,3.57 1096.39,7.76 1156.79,110.02 1158.38,122.42 1166.24,128.97 1164.99,133.49 1164.80,140.86 1165.89,151.16 1181.89,216.92 1183.30,262.46 1185.55,335.19 1189.31,433.07 1173.99,475.72 1164.12,501.72 1149.71,538.36 1145.53,548.96 1142.82,551.92 1138.47,580.28" fill="none" stroke="#bcbcbc" stroke-width="8" stroke-linecap="round" stroke-linejoin="round" /><polyline points="1163.04,753.01 1148.34,746.62 1111.63,721.00 1063.19,686.96 1036.55,665.42 1018.58,646.17" fill="none" stroke="#bcbcbc" stroke-width="8" stroke-linecap="round" stroke-linejoin="round" /><polyline points="568.60,1326.10 554.18,1321.53 530.76,1314.10 519.59,1310.56 506.46,1306.40 489.88,1301.14 474.89,1296.39 460.07,1291.69 393.98,1270.71 382.40,1267.04 368.02,1262.49 364.85,1261.48 327.05,1251.49 316.38,1248.91 303.00,1245.68 289.00,1242.28 238.55,1230.05 225.02,1226.76 210.48,1221.72 180.10,1211.17 168.65,1207.19 158.41,1203.87 110.85,1186.95 104.85,1183.38 101.97,1177.18" fill="none" stroke="#bcbcbc" stroke-width="8" stroke-linecap="round" stroke-linejoin="round" /><polyline points="785.83,607.14 782.33,594.58 771.89,557.14 767.87,542.74 762.07,531.97 761.53,529.98 758.11,517.30 762.09,511.69 757.31,495.71 755.82,490.75" fill="none" stroke="#bcbcbc" stroke-width="8" stroke-linecap="round" stroke-linejoin="round" /><polyline points="768.37,148.94 778.30,144.27 832.54,114.37 863.54,94.43 885.41,79.51 890.24,75.91 907.84,63.68 926.07,50.21 937.62,41.80 951.39,31.74 999.24,10.15 1005.44,10.47 1014.51,6.18 1051.35,-10.41" fill="none" stroke="#bcbcbc" stroke-width="8" stroke-linecap="round" stroke-linejoin="round" /><polyline points="167.20,352.80 175.02,355.97 180.20,357.56 277.19,387.36 292.00,391.91" fill="none" stroke="#bcbcbc" stroke-width="8" stroke-linecap="round" stroke-linejoin="round" /><polyline points="-525.61,570.93 -594.90,549.95" fill="none" stroke="#bcbcbc" stroke-width="8" stroke-linecap="round" stroke-linejoin="round" /><polyline points="593.74,-406.31 610.92,-384.54 613.48,-381.29 622.15,-370.30 632.04,-369.14 652.36,-366.76 655.97,-364.26" fill="none" stroke="#bcbcbc" stroke-width="8" stroke-linecap="round" stroke-linejoin="round" /><polyline points="1190.36,561.80 1163.13,566.87 1135.22,582.04 1109.34,596.45 1084.86,608.69 1055.29,624.75 1033.87,637.75 991.55,660.44 826.35,743.56 783.52,762.43 755.22,774.67 741.20,779.26 729.60,781.42 710.60,782.57 683.58,778.75 616.15,762.55 520.41,740.25 394.47,702.26 348.07,686.96 272.10,663.50 199.44,639.54 92.87,597.72 39.59,574.78 -24.66,546.22 -131.23,487.84 -156.21,471.27 -219.44,431.49 -245.95,404.98 -285.72,353.48 -351.24,285.92 -376.99,263.23" fill="none" stroke="#bcbcbc" stroke-width="8" stroke-linecap="round" stroke-linejoin="round" /><polyline points="673.78,1359.35 674.90,1353.12 678.93,1342.95 716.72,1254.52 731.00,1221.38 747.83,1180.07 751.92,1164.95" fill="none" stroke="#bcbcbc" stroke-width="8" stroke-linecap="round" stroke-linejoin="round" /><polyline points="-51.19,986.00 -94.11,965.23 -191.79,917.95 -311.61,859.96 -322.30,854.78" fill="none" stroke="#bcbcbc" stroke-width="8" stroke-linecap="round" stroke-linejoin="round" /><polyline points="654.33,301.67 665.17,290.57 693.99,261.07 716.86,236.09" fill="none" stroke="#bcbcbc" stroke-width="8" stroke-linecap="round" stroke-linejoin="round" /><polyline points="-177.91,367.41 -189.82,351.64 -245.62,277.75 -325.28,213.29" fill="none" stroke="#bcbcbc" stroke-width="8" stroke-linecap="round" stroke-linejoin="round" /><polyline points="-523.60,1340.05 -512.70,1314.22 -478.07,1227.87 -473.87,1216.53 -469.22,1203.96 -467.45,1199.42 -466.98,1192.32 -462.55,1125.19 -461.27,1105.93" fill="none" stroke="#bcbcbc" stroke-width="8" stroke-linecap="round" stroke-linejoin="round" /><polyline points="-547.23,645.92 -525.61,570.93 -497.08,472.01 -493.55,459.77 -489.62,445.86 -480.83,414.71 -479.91,411.44 -477.39,401.43 -473.37,390.11 -472.40,387.37 -467.33,374.80 -457.38,352.84 -454.40,346.53" fill="none" stroke="#bcbcbc" stroke-width="8" stroke-linecap="round" stroke-linejoin="round" /><polyline points="-493.55,459.77 -449.80,470.96 -357.12,494.78 -304.33,511.22 -282.30,516.38" fill="none" stroke="#bcbcbc" stroke-width="8" stroke-linecap="round" stroke-linejoin="round" /><polyline points="407.01,119.49 408.49,110.38 409.99,100.93 416.41,69.31 432.44,-4.29 445.61,-70.13 448.02,-83.79 451.29,-102.34 451.30,-102.36" fill="none" stroke="#bcbcbc" stroke-width="8" stroke-linecap="round" stroke-linejoin="round" /><polyline points="277.47,1536.81 297.01,1486.98 299.43,1478.03 376.96,1281.24 382.40,1267.04 386.81,1255.00 433.13,1120.23 442.05,1112.44" fill="none" stroke="#bcbcbc" stroke-width="8" stroke-linecap="round" stroke-linejoin="round" /><polyline points="543.20,81.39 543.20,81.37 540.45,66.96 540.02,65.21 533.32,37.98 533.33,37.89 528.76,19.42 509.42,-46.88 506.98,-53.98 493.91,-89.49 489.67,-100.09 486.93,-106.93 483.37,-114.70 483.37,-114.71 483.37,-114.75 480.77,-143.30 480.52,-157.32" fill="none" stroke="#bcbcbc" stroke-width="8" stroke-linecap="round" stroke-linejoin="round" /><polyline points="514.20,1206.25 509.23,1211.62 501.82,1220.44 480.93,1279.34 474.89,1296.39" fill="none" stroke="#bcbcbc" stroke-width="8" stroke-linecap="round" stroke-linejoin="round" /><polyline points="382.23,524.16 386.47,512.89 397.95,482.38 402.81,469.48 406.10,460.75 415.31,436.27 421.40,420.09 422.22,417.92 436.97,378.73 443.14,380.64 446.48,371.55 452.39,355.45 451.26,348.14 466.95,305.42 468.56,301.03 471.54,298.30 474.04,296.00 489.78,252.98 492.05,241.20 514.63,178.47 519.97,174.29 530.83,143.56 528.90,138.84 538.42,110.14 533.48,84.51" fill="none" stroke="#bcbcbc" stroke-width="8" stroke-linecap="round" stroke-linejoin="round" /><polyline points="786.11,-642.74 779.78,-653.12 746.54,-707.66" fill="none" stroke="#bcbcbc" stroke-width="8" stroke-linecap="round" stroke-linejoin="round" /><polyline points="890.24,75.91 1042.80,174.02 1042.84,174.09 1042.84,174.10 1071.06,177.76" fill="none" stroke="#bcbcbc" stroke-width="8" stroke-linecap="round" stroke-linejoin="round" /><polyline points="829.06,-129.03 991.38,-47.55 996.28,-43.89 995.95,-17.22 999.24,10.15" fill="none" stroke="#bcbcbc" stroke-width="8" stroke-linecap="round" stroke-linejoin="round" /><polyline points="519.59,1310.56 513.75,1328.37 490.10,1400.50 449.87,1521.98 447.02,1530.60 444.12,1539.33 443.32,1548.63" fill="none" stroke="#bcbcbc" stroke-width="8" stroke-linecap="round" stroke-linejoin="round" /><polyline points="976.54,872.37 977.51,863.32 977.72,854.88 977.65,854.59 971.90,829.72 969.54,819.33 968.41,814.32 967.24,809.20 960.93,781.38 948.59,725.79 939.63,692.37 938.36,687.21" fill="none" stroke="#bcbcbc" stroke-width="8" stroke-linecap="round" stroke-linejoin="round" /><polyline points="170.66,1381.25 174.68,1369.81 219.88,1241.35 225.02,1226.76" fill="none" stroke="#bcbcbc" stroke-width="8" stroke-linecap="round" stroke-linejoin="round" /><polyline points="1185.55,335.19 1172.25,331.43 1081.94,192.85 1071.06,177.76" fill="none" stroke="#bcbcbc" stroke-width="8" stroke-linecap="round" stroke-linejoin="round" /><polyline points="-299.05,667.70 30.08,746.56 52.78,754.85" fill="none" stroke="#bcbcbc" stroke-width="8" stroke-linecap="round" stroke-linejoin="round" /><polyline points="739.05,-564.43 867.26,-516.93 885.31,-520.02" fill="none" stroke="#bcbcbc" stroke-width="8" stroke-linecap="round" stroke-linejoin="round" />
    <polyline points="167.20,352.80 170.05,345.07 170.70,343.27 184.26,305.39 189.35,289.43 230.91,167.20" fill="none" stroke="#ffffff" stroke-width="16" stroke-linecap="round" stroke-linejoin="round" />
    <polyline points="167.20,352.80 170.05,345.07 170.70,343.27 184.26,305.39 189.35,289.43 230.91,167.20" fill="none" stroke="#111111" stroke-width="9" stroke-linecap="round" stroke-linejoin="round" />
    
            <g transform="translate(167.20,352.80)">
              <circle r="19" fill="#ffffff" stroke="#111111" stroke-width="4" />
              <text text-anchor="middle" dominant-baseline="central" font-family="Helvetica, Arial, sans-serif"
                font-size="18" font-weight="700" fill="#111111">1</text>
            </g>
            
            <g transform="translate(230.91,167.20)">
              <circle r="19" fill="#ffffff" stroke="#111111" stroke-width="4" />
              <text text-anchor="middle" dominant-baseline="central" font-family="Helvetica, Arial, sans-serif"
                font-size="18" font-weight="700" fill="#111111">2</text>
            </g>
            
  </g>
</svg>
