<svg xmlns="http://www.w3.org/2000/svg" width="520" height="520" viewBox="0 0 520 520">
  <rect width="100%" height="100%" fill="#ffffff" />
  <g>
    <polyline points="449.68,127.13 450.96,133.97 459.27,192.05 458.00,206.57" fill="none" stroke="#bcbcbc" stroke-width="8" stroke-linecap="round" stroke-linejoin="round" /><polyline points="280.94,611.10 282.95,604.93 293.58,572.22 294.84,568.37 296.10,564.32 322.84,479.04 324.99,472.19 320.07,460.06" fill="none" stroke="#bcbcbc" stroke-width="8" stroke-linecap="round" stroke-linejoin="round" /><polyline points="96.23,535.25 95.80,530.35 104.54,481.39 105.77,475.26 106.69,472.06 109.09,459.64 111.80,444.44 114.74,431.05 117.67,417.70 119.50,413.93 120.71,411.62" fill="none" stroke="#bcbcbc" stroke-width="8" stroke-linecap="round" stroke-linejoin="round" /><polyline points="146.98,189.86 144.90,183.52 123.42,117.99 122.37,115.25" fill="none" stroke="#bcbcbc" stroke-width="8" stroke-linecap="round" stroke-linejoin="round" /><polyline points="36.74,766.55 37.38,760.30 37.64,757.43 39.98,731.56 42.54,708.78 43.14,703.46 43.69,697.07 43.76,696.54 45.21,683.85 46.46,670.95 47.84,658.51 48.77,648.82 49.15,642.84 49.50,637.32 50.11,631.10" fill="none" stroke="#bcbcbc" stroke-width="8" stroke-linecap="round" stroke-linejoin="round" /><polyline points="333.59,626.30 335.12,621.49 345.90,587.60 347.13,583.75 348.87,578.26 350.12,574.33 359.66,533.18" fill="none" stroke="#bcbcbc" stroke-width="8" stroke-linecap="round" stroke-linejoin="round" /><polyline points="291.69,-44.06 295.67,-43.45 405.37,-26.60" fill="none" stroke="#bcbcbc" stroke-width="8" stroke-linecap="round" stroke-linejoin="round" /><polyline points="10.05,618.32 -1.37,617.78 -8.33,617.46 -12.11,617.28 -15.43,617.13 -41.29,615.93 -77.25,614.25 -94.39,611.82 -100.13,611.01 -105.11,610.13 -138.83,604.18 -143.54,603.35 -144.58,603.17 -150.41,602.17 -154.88,601.40 -183.45,598.88 -188.89,598.40 -190.89,598.22 -197.06,597.79 -209.16,596.96" fill="none" stroke="#bcbcbc" stroke-width="8" stroke-linecap="round" stroke-linejoin="round" /><polyline points="175.94,585.19 178.16,578.89 198.09,523.64 222.06,453.95 223.60,449.58 224.67,446.53 225.54,444.02" fill="none" stroke="#bcbcbc" stroke-width="8" stroke-linecap="round" stroke-linejoin="round" /><polyline points="-190.89,598.22 -191.40,594.67 -191.52,590.81 -190.76,583.04 -189.02,568.86 -187.87,564.09 -185.99,546.88 -185.65,543.04 -185.10,538.11 -184.69,534.45 -183.92,530.30 -182.49,519.14 -181.50,510.59 -180.04,507.10" fill="none" stroke="#bcbcbc" stroke-width="8" stroke-linecap="round" stroke-linejoin="round" /><polyline points="-211.29,502.74 -184.70,506.45 -180.04,507.10 -177.16,507.56 -165.24,509.46 -137.78,513.83 -133.07,514.62" fill="none" stroke="#bcbcbc" stroke-width="8" stroke-linecap="round" stroke-linejoin="round" /><polyline points="277.96,153.99 278.13,156.40 278.49,158.85 279.35,160.72 280.97,162.81 283.96,165.53 291.04,169.84 345.70,204.14 379.36,249.27 404.79,312.02 406.45,316.17" fill="none" stroke="#bcbcbc" stroke-width="8" stroke-linecap="round" stroke-linejoin="round" /><polyline points="269.21,337.09 270.34,338.96 270.63,339.45 271.57,344.18 277.98,375.19 280.02,385.04 281.47,392.05 283.75,406.26 284.81,412.81 285.54,416.81 286.34,420.42 287.30,422.53 288.70,424.96 289.45,426.11 303.65,446.45 311.33,458.54 313.34,461.44" fill="none" stroke="#bcbcbc" stroke-width="8" stroke-linecap="round" stroke-linejoin="round" /><polyline points="-138.50,725.38 -137.75,720.73 -137.04,717.36 -136.86,716.92 -127.40,694.44 -121.38,679.83 -119.55,675.20 -117.61,670.30 -115.51,666.08 -115.17,665.26 -112.28,658.29 -110.06,652.13 -108.14,646.47 -106.93,642.48 -105.57,637.54 -104.00,630.92 -102.81,625.54 -101.39,618.04 -101.09,616.37 -100.13,611.01" fill="none" stroke="#bcbcbc" stroke-width="8" stroke-linecap="round" stroke-linejoin="round" /><polyline points="319.48,97.70 349.62,118.76 353.68,119.63 356.65,123.03" fill="none" stroke="#bcbcbc" stroke-width="8" stroke-linecap="round" stroke-linejoin="round" /><polyline points="192.92,292.21 196.90,293.75 214.19,299.40 254.31,314.79 256.56,317.03 257.62,318.71" fill="none" stroke="#bcbcbc" stroke-width="8" stroke-linecap="round" stroke-linejoin="round" /><polyline points="267.67,687.54 270.40,680.42 283.89,643.83 293.42,616.19 295.40,615.28" fill="none" stroke="#bcbcbc" stroke-width="8" stroke-linecap="round" stroke-linejoin="round" /><polyline points="77.04,641.15 79.16,636.44 79.38,635.98 83.02,623.76 88.98,603.66 90.51,598.51 91.69,594.52 91.85,592.19 91.61,587.03" fill="none" stroke="#bcbcbc" stroke-width="8" stroke-linecap="round" stroke-linejoin="round" /><polyline points="324.92,338.69 321.50,339.40 313.75,338.02 312.55,334.82 299.12,329.71 295.95,330.54 283.84,326.09 282.03,327.35" fill="none" stroke="#bcbcbc" stroke-width="8" stroke-linecap="round" stroke-linejoin="round" /><polyline points="304.98,-76.58 311.07,-75.09 314.43,-74.51 394.46,-60.63" fill="none" stroke="#bcbcbc" stroke-width="8" stroke-linecap="round" stroke-linejoin="round" /><polyline points="242.78,665.26 246.11,655.87 252.58,637.63 256.76,629.86 262.78,613.02 265.18,606.30" fill="none" stroke="#bcbcbc" stroke-width="8" stroke-linecap="round" stroke-linejoin="round" /><polyline points="-195.69,300.99 -201.49,300.72 -202.94,302.49 -213.04,314.76 -248.34,355.53 -253.30,361.27" fill="none" stroke="#bcbcbc" stroke-width="8" stroke-linecap="round" stroke-linejoin="round" /><polyline points="113.92,335.91 111.36,341.58 111.05,342.26 102.16,365.44 93.20,390.96 90.81,397.77 89.46,401.28" fill="none" stroke="#bcbcbc" stroke-width="8" stroke-linecap="round" stroke-linejoin="round" /><polyline points="244.32,75.44 247.14,79.27 249.16,84.54 252.30,92.10 257.33,103.99 261.79,114.67 266.91,126.39 270.71,135.43 271.27,136.73 271.31,136.81 274.36,143.95 275.28,145.98 276.15,147.92 277.07,149.73 277.76,151.57 277.96,153.99" fill="none" stroke="#bcbcbc" stroke-width="8" stroke-linecap="round" stroke-linejoin="round" /><polyline points="28.12,450.19 29.60,449.38 31.67,447.73 32.70,445.60 46.44,393.52 46.85,390.59 48.53,385.22" fill="none" stroke="#bcbcbc" stroke-width="8" stroke-linecap="round" stroke-linejoin="round" /><polyline points="508.36,368.69 510.31,374.87 511.68,381.37 509.01,406.12 505.92,424.74 504.24,431.09 504.09,431.67 502.61,435.09 500.60,438.73 495.90,444.67 498.18,456.29 490.81,481.23 486.75,495.01 478.44,517.56 466.26,545.01 451.39,571.32 446.75,579.87 438.36,593.91 404.82,641.52 397.47,651.42 369.01,688.61 352.68,707.19 329.83,730.42 327.71,730.64 322.55,734.85" fill="none" stroke="#bcbcbc" stroke-width="8" stroke-linecap="round" stroke-linejoin="round" /><polyline points="94.53,775.87 103.89,746.83 105.42,742.04 107.50,739.02 111.97,725.60 113.43,721.04 131.90,663.21 133.75,657.39 135.28,652.28 157.08,583.68" fill="none" stroke="#bcbcbc" stroke-width="8" stroke-linecap="round" stroke-linejoin="round" /><polyline points="313.84,235.87 321.94,227.02 324.32,224.15 340.68,200.98" fill="none" stroke="#bcbcbc" stroke-width="8" stroke-linecap="round" stroke-linejoin="round" /><polyline points="152.08,239.37 174.37,247.13 175.60,249.13 181.93,251.25 185.68,252.54 203.65,258.60" fill="none" stroke="#bcbcbc" stroke-width="8" stroke-linecap="round" stroke-linejoin="round" /><polyline points="346.34,85.13 356.65,123.03 368.58,167.66 370.39,171.38 370.68,175.63 378.77,190.74 400.61,231.47 405.38,238.51 406.77,240.57 439.40,301.58 454.39,315.21 456.50,317.93 459.46,320.46 487.93,344.81 489.87,346.46 494.98,349.17" fill="none" stroke="#bcbcbc" stroke-width="8" stroke-linecap="round" stroke-linejoin="round" /><polyline points="235.61,782.03 306.61,740.78 319.25,734.32 322.55,734.85" fill="none" stroke="#bcbcbc" stroke-width="8" stroke-linecap="round" stroke-linejoin="round" /><polyline points="312.59,723.02 317.00,717.78 356.55,638.86 359.17,633.69 361.36,628.56 374.14,596.97 377.94,587.45 388.96,554.12 396.10,511.28 396.94,505.04" fill="none" stroke="#bcbcbc" stroke-width="8" stroke-linecap="round" stroke-linejoin="round" /><polyline points="282.07,258.87 281.38,259.58 280.43,262.90 280.33,263.24 276.04,279.76 277.16,284.08 276.23,287.95 275.00,293.01 271.86,296.65 268.30,311.09 264.10,314.26 259.62,317.34 257.62,318.71" fill="none" stroke="#bcbcbc" stroke-width="8" stroke-linecap="round" stroke-linejoin="round" /><polyline points="113.92,335.91 115.75,331.23 126.72,303.10 129.11,296.97 131.08,291.92 145.10,255.99 151.42,240.97 152.08,239.37 156.99,227.51 167.99,200.18 172.02,188.54 172.92,185.87 174.13,182.85" fill="none" stroke="#bcbcbc" stroke-width="8" stroke-linecap="round" stroke-linejoin="round" /><polyline points="236.71,165.39 238.83,171.70 308.47,231.19 346.47,264.25 403.23,313.59 408.18,317.55 410.40,318.94 420.25,327.88 433.40,339.10 463.24,364.54 472.87,372.83 479.27,380.47" fill="none" stroke="#bcbcbc" stroke-width="8" stroke-linecap="round" stroke-linejoin="round" /><polyline points="351.85,62.89 355.38,60.62 376.31,51.93 380.61,47.40" fill="none" stroke="#bcbcbc" stroke-width="8" stroke-linecap="round" stroke-linejoin="round" /><polyline points="376.02,592.26 347.13,583.75 294.84,568.37" fill="none" stroke="#bcbcbc" stroke-width="8" stroke-linecap="round" stroke-linejoin="round" /><polyline points="282.76,-22.25 286.71,-19.53 415.30,9.08" fill="none" stroke="#bcbcbc" stroke-width="8" stroke-linecap="round" stroke-linejoin="round" /><polyline points="441.60,401.13 434.95,386.34 420.21,351.17 419.11,348.37 416.58,341.95 407.08,317.76 406.48,316.19" fill="none" stroke="#bcbcbc" stroke-width="8" stroke-linecap="round" stroke-linejoin="round" /><polyline points="244.32,75.44 237.18,73.40 231.93,71.84 221.27,68.68 215.85,67.13 212.75,66.27 208.70,65.11" fill="none" stroke="#bcbcbc" stroke-width="8" stroke-linecap="round" stroke-linejoin="round" /><polyline points="58.18,268.90 57.82,267.72 57.48,266.89 56.01,263.24 50.31,249.95 44.90,236.45 43.73,233.26 42.38,229.59 41.41,226.59 39.82,222.08 39.65,221.61 34.47,208.84 24.96,184.83 22.82,183.61 21.30,179.71 18.27,169.17 13.07,156.10 11.95,153.13" fill="none" stroke="#bcbcbc" stroke-width="8" stroke-linecap="round" stroke-linejoin="round" /><polyline points="103.89,746.83 109.29,748.49 126.77,753.82 132.25,755.48" fill="none" stroke="#bcbcbc" stroke-width="8" stroke-linecap="round" stroke-linejoin="round" /><polyline points="430.37,69.18 431.39,65.06 430.97,63.49 430.47,61.61 427.28,49.91 420.16,25.19 416.41,12.55 415.30,9.08 405.37,-26.60 400.02,-45.84 394.46,-60.63 389.44,-73.98 384.44,-83.16 379.58,-88.01 342.29,-133.58 339.53,-136.82 337.70,-139.82" fill="none" stroke="#bcbcbc" stroke-width="8" stroke-linecap="round" stroke-linejoin="round" /><polyline points="277.96,153.99 276.03,154.72 272.48,155.70 272.12,155.80 257.27,159.60 240.19,164.41 236.71,165.39 235.16,165.88 231.05,167.20 227.55,168.18 212.23,172.44 187.05,179.59 177.66,181.96 174.13,182.85 157.34,186.97 146.98,189.86 125.02,195.99 103.32,202.11 100.81,202.80 82.68,207.84 74.31,210.16 70.09,212.16 62.09,216.12 46.21,224.18 45.10,224.74 41.41,226.59 39.16,227.71 36.03,229.36 24.87,235.21 4.54,246.61 -12.44,255.51 -14.87,256.78 -18.12,256.99 -20.07,258.02 -20.46,258.23 -38.88,268.33 -42.74,268.31 -47.17,270.63 -48.71,271.43 -50.02,272.12 -53.10,273.73 -55.52,279.26 -65.95,284.85 -69.27,286.62 -72.85,288.58 -87.36,296.47 -94.86,300.55 -98.64,301.64" fill="none" stroke="#bcbcbc" stroke-width="8" stroke-linecap="round" stroke-linejoin="round" /><polyline points="486.75,495.01 479.01,495.72 454.83,497.93 453.74,498.03 452.19,498.18 449.70,498.41 426.25,500.56 418.10,499.80 408.60,502.18 400.99,504.05 396.94,505.04 386.88,505.42 378.16,504.98 373.72,504.51 369.94,503.36 367.16,501.82 356.79,494.49 331.60,477.19 329.22,475.58 326.80,473.94 324.99,472.19" fill="none" stroke="#bcbcbc" stroke-width="8" stroke-linecap="round" stroke-linejoin="round" /><polyline points="-83.81,202.89 -74.67,220.78 -73.29,225.90 -65.59,240.59 -62.41,244.79 -49.54,269.84 -48.71,271.43" fill="none" stroke="#bcbcbc" stroke-width="8" stroke-linecap="round" stroke-linejoin="round" /><polyline points="196.31,362.04 194.94,365.80 194.56,366.97 192.77,372.38 181.46,403.93 175.85,419.60 175.66,420.14 173.40,425.01 172.11,427.90" fill="none" stroke="#bcbcbc" stroke-width="8" stroke-linecap="round" stroke-linejoin="round" /><polyline points="346.34,85.13 345.09,82.45 341.79,82.02 331.13,84.46 328.97,84.18 327.27,81.91 324.25,68.04 340.59,65.51 348.15,63.27 351.85,62.89 355.83,77.05" fill="none" stroke="#bcbcbc" stroke-width="8" stroke-linecap="round" stroke-linejoin="round" /><polyline points="405.38,238.51 409.59,236.15 430.73,223.41 436.38,220.05 446.27,214.15 462.53,203.63 466.33,200.90 494.86,183.20" fill="none" stroke="#bcbcbc" stroke-width="8" stroke-linecap="round" stroke-linejoin="round" /><polyline points="505.12,322.12 497.91,319.97 493.72,316.53 477.69,302.66 477.14,302.17 473.27,298.72 470.99,294.68 430.73,223.41" fill="none" stroke="#bcbcbc" stroke-width="8" stroke-linecap="round" stroke-linejoin="round" /><polyline points="50.75,316.47 113.92,335.91 119.08,337.54 166.22,352.49 167.20,352.80 174.26,355.04 177.73,356.14 182.25,357.37 191.55,360.53 196.31,362.04 200.59,363.39 235.68,374.52 272.71,386.16 275.77,387.12 280.02,385.04" fill="none" stroke="#bcbcbc" stroke-width="8" stroke-linecap="round" stroke-linejoin="round" /><polyline points="236.49,4.59 263.86,-20.55 268.49,-24.81" fill="none" stroke="#bcbcbc" stroke-width="8" stroke-linecap="round" stroke-linejoin="round" /><polyline points="-221.72,410.31 -121.32,421.08" fill="none" stroke="#bcbcbc" stroke-width="8" stroke-linecap="round" stroke-linejoin="round" /><polyline points="81.17,130.06 102.28,122.51 124.05,114.64 137.57,109.38 178.87,94.36 190.85,90.22 193.35,89.35 196.36,88.32 199.73,87.16 200.14,87.02 206.94,84.28 209.90,83.09" fill="none" stroke="#bcbcbc" stroke-width="8" stroke-linecap="round" stroke-linejoin="round" /><polyline points="222.92,640.75 242.78,665.26 254.95,677.51 260.21,681.30 267.67,687.54 274.67,693.42 280.69,699.29 280.83,702.27" fill="none" stroke="#bcbcbc" stroke-width="8" stroke-linecap="round" stroke-linejoin="round" /><polyline points="244.32,75.44 252.10,55.92 264.71,23.78 282.76,-22.25 291.69,-44.06 304.98,-76.58 315.89,-103.22 317.84,-106.76 327.42,-122.43 328.04,-123.44 331.55,-130.34 337.70,-139.82 341.14,-145.11 346.00,-152.59" fill="none" stroke="#bcbcbc" stroke-width="8" stroke-linecap="round" stroke-linejoin="round" /><polyline points="60.62,597.28 59.35,598.30 58.50,599.51 56.79,604.58 55.60,608.24 50.11,624.64 49.36,627.01 48.89,628.48 43.85,627.03 31.59,622.92 19.44,618.85 10.05,618.32" fill="none" stroke="#bcbcbc" stroke-width="8" stroke-linecap="round" stroke-linejoin="round" /><polyline points="-179.48,711.43 -159.46,659.73 -157.23,654.10 -155.23,648.68 -152.82,642.13 -149.86,631.82 -146.77,619.01 -145.50,609.84 -144.58,603.17 -143.29,598.25 -138.58,561.28 -133.07,514.62 -130.22,492.38 -127.05,466.24 -121.32,421.08 -120.41,413.40 -114.62,366.16 -114.61,363.53 -113.34,349.51 -109.64,319.91 -108.72,314.74 -107.75,311.85 -106.24,308.66 -104.77,306.18 -101.53,302.67 -98.64,301.68" fill="none" stroke="#bcbcbc" stroke-width="8" stroke-linecap="round" stroke-linejoin="round" /><polyline points="257.62,318.71 258.71,320.44 262.38,326.18 267.88,334.99 269.21,337.09 271.40,335.42 282.03,327.35" fill="none" stroke="#bcbcbc" stroke-width="8" stroke-linecap="round" stroke-linejoin="round" /><polyline points="264.71,23.78 372.89,43.34 384.25,49.32 426.63,70.33 430.37,69.18" fill="none" stroke="#bcbcbc" stroke-width="8" stroke-linecap="round" stroke-linejoin="round" /><polyline points="58.18,268.90 56.26,271.70 39.00,280.12 26.32,296.24 12.65,304.70 3.29,311.77 -5.63,319.05 -10.21,323.22 -18.29,333.47 -27.33,346.43 -28.82,348.83" fill="none" stroke="#bcbcbc" stroke-width="8" stroke-linecap="round" stroke-linejoin="round" /><polyline points="76.43,280.46 75.68,282.12 74.04,284.51 70.95,288.32 52.72,311.35 43.07,337.33 -5.61,319.03" fill="none" stroke="#bcbcbc" stroke-width="8" stroke-linecap="round" stroke-linejoin="round" /><polyline points="3.29,311.77 1.41,306.06 -6.74,281.40 -9.90,276.52 -15.20,260.64 -15.65,259.27 -14.87,256.78 -16.14,252.74 -41.60,171.46" fill="none" stroke="#bcbcbc" stroke-width="8" stroke-linecap="round" stroke-linejoin="round" /><polyline points="301.57,-131.72 321.68,-131.19 322.62,-131.17 326.48,-131.06 331.55,-130.34" fill="none" stroke="#bcbcbc" stroke-width="8" stroke-linecap="round" stroke-linejoin="round" /><polyline points="198.09,523.64 191.22,523.56 133.05,531.37 128.86,531.81 124.07,532.31 96.23,535.25 58.74,539.21 38.86,541.31 27.86,542.47 18.93,543.55 14.34,544.11 9.18,544.74 -15.77,547.77 -21.75,548.50 -40.17,550.51 -138.58,561.28" fill="none" stroke="#bcbcbc" stroke-width="8" stroke-linecap="round" stroke-linejoin="round" /><polyline points="111.97,725.60 106.82,723.94 82.75,716.19 77.89,714.63 73.66,713.27 48.17,705.07 43.14,703.46 36.49,701.32 -4.10,688.25 -8.67,686.78" fill="none" stroke="#bcbcbc" stroke-width="8" stroke-linecap="round" stroke-linejoin="round" /><polyline points="212.60,238.32 226.60,242.68 277.80,258.49 278.27,258.64 282.07,258.87" fill="none" stroke="#bcbcbc" stroke-width="8" stroke-linecap="round" stroke-linejoin="round" /><polyline points="356.65,123.03 426.29,124.25" fill="none" stroke="#bcbcbc" stroke-width="8" stroke-linecap="round" stroke-linejoin="round" /><polyline points="322.55,734.85 312.59,723.02 308.42,718.16 304.83,714.81 300.05,711.24 290.28,705.38 280.83,702.27 261.61,696.34 245.88,691.35 254.95,677.51" fill="none" stroke="#bcbcbc" stroke-width="8" stroke-linecap="round" stroke-linejoin="round" /><polyline points="222.92,640.75 209.05,623.64 206.42,620.38 192.45,601.15 189.29,595.28 190.05,588.28 194.26,588.24 204.65,590.24 220.45,593.28" fill="none" stroke="#bcbcbc" stroke-width="8" stroke-linecap="round" stroke-linejoin="round" /><polyline points="41.58,503.66 44.14,509.16 58.74,539.21 80.44,583.90 83.21,589.60" fill="none" stroke="#bcbcbc" stroke-width="8" stroke-linecap="round" stroke-linejoin="round" /><polyline points="-192.24,639.78 -187.02,641.92 -162.57,651.92 -157.23,654.10 -151.61,656.40 -122.82,668.17 -117.61,670.30" fill="none" stroke="#bcbcbc" stroke-width="8" stroke-linecap="round" stroke-linejoin="round" /><polyline points="53.60,459.10 104.54,481.39" fill="none" stroke="#bcbcbc" stroke-width="8" stroke-linecap="round" stroke-linejoin="round" /><polyline points="282.07,258.87 289.83,259.28 290.33,259.72 293.81,262.81 298.93,267.38 299.87,269.22 317.51,284.66 318.81,287.13 331.22,298.08 334.34,299.03 343.99,307.48 346.15,308.47 360.70,320.81 363.94,323.68 365.73,326.53" fill="none" stroke="#bcbcbc" stroke-width="8" stroke-linecap="round" stroke-linejoin="round" /><polyline points="-206.62,459.15 -127.05,466.24" fill="none" stroke="#bcbcbc" stroke-width="8" stroke-linecap="round" stroke-linejoin="round" /><polyline points="-28.94,755.48 -26.47,750.23 -25.84,747.90 -22.39,735.15 -9.87,691.01 -8.67,686.78 -7.40,682.15 -1.73,661.41 7.85,626.39 10.05,618.32" fill="none" stroke="#bcbcbc" stroke-width="8" stroke-linecap="round" stroke-linejoin="round" /><polyline points="41.58,503.66 53.60,459.10 28.12,450.19 21.45,454.12 18.41,456.44 16.16,459.48 14.57,463.50 8.72,485.16 13.44,487.56 18.22,488.72 28.78,491.47 36.68,493.99 41.58,503.66" fill="none" stroke="#bcbcbc" stroke-width="8" stroke-linecap="round" stroke-linejoin="round" /><polyline points="8.72,485.16 3.14,484.38 -127.05,466.24" fill="none" stroke="#bcbcbc" stroke-width="8" stroke-linecap="round" stroke-linejoin="round" /><polyline points="220.45,593.28 232.52,595.92 265.18,606.30 274.31,609.19 295.98,615.45 317.82,621.74 333.98,626.41 359.83,633.88 365.17,635.42 378.22,639.79 399.69,645.51 401.59,645.87" fill="none" stroke="#bcbcbc" stroke-width="8" stroke-linecap="round" stroke-linejoin="round" /><polyline points="235.77,781.94 231.36,783.05 226.60,796.32 219.21,794.22 185.62,782.78 181.58,781.91 172.58,781.27 131.91,781.43 122.94,780.29 102.69,777.20 94.53,775.87 36.59,766.53 14.16,762.95 -28.62,755.54 -35.53,754.17 -132.08,727.18 -138.18,725.47 -179.48,711.43 -189.64,707.83 -215.02,697.31 -229.49,691.84" fill="none" stroke="#bcbcbc" stroke-width="8" stroke-linecap="round" stroke-linejoin="round" /><polyline points="324.25,68.04 320.07,67.17 264.27,73.77 244.32,75.44" fill="none" stroke="#bcbcbc" stroke-width="8" stroke-linecap="round" stroke-linejoin="round" /><polyline points="220.45,593.28 222.40,590.01 234.11,559.93 247.20,514.46 250.54,504.66 252.32,502.00 264.95,461.45 265.58,456.60 266.06,453.44" fill="none" stroke="#bcbcbc" stroke-width="8" stroke-linecap="round" stroke-linejoin="round" /><polyline points="277.96,153.99 279.29,153.48 281.10,152.04 283.84,148.83 319.48,97.70 328.97,84.18" fill="none" stroke="#bcbcbc" stroke-width="8" stroke-linecap="round" stroke-linejoin="round" /><polyline points="436.54,341.80 437.27,339.70 455.18,318.63 456.50,317.93 459.61,313.67 470.03,301.70 473.27,298.72" fill="none" stroke="#bcbcbc" stroke-width="8" stroke-linecap="round" stroke-linejoin="round" /><polyline points="452.19,498.18 451.95,495.36 451.75,493.17 450.81,489.00 449.68,486.28 448.28,479.14 448.15,476.55 447.19,470.76 442.93,468.54 439.52,469.84 433.42,471.30 428.60,472.05 423.97,473.17 417.58,474.63 414.66,475.29" fill="none" stroke="#bcbcbc" stroke-width="8" stroke-linecap="round" stroke-linejoin="round" /><polyline points="-18.37,394.69 -5.35,364.15 -4.62,362.17" fill="none" stroke="#bcbcbc" stroke-width="8" stroke-linecap="round" stroke-linejoin="round" /><polyline points="324.92,338.69 331.20,336.26 334.48,334.99 337.02,332.42 347.48,329.84 351.00,330.74 358.57,328.78 364.35,327.30 365.73,326.53 371.33,325.15 399.98,318.13 406.48,316.19" fill="none" stroke="#bcbcbc" stroke-width="8" stroke-linecap="round" stroke-linejoin="round" /><polyline points="60.62,597.28 74.14,592.37 78.66,590.99 83.21,589.60 91.61,587.03 98.15,586.09 120.46,583.65 124.95,583.41 144.92,583.58 157.08,583.68 161.66,583.45 168.98,584.19 171.27,584.52 175.94,585.19 190.05,588.28" fill="none" stroke="#bcbcbc" stroke-width="8" stroke-linecap="round" stroke-linejoin="round" /><polyline points="125.02,195.99 122.78,188.42 114.47,160.30 104.36,128.23 102.28,122.51 100.16,117.14 97.48,109.41" fill="none" stroke="#bcbcbc" stroke-width="8" stroke-linecap="round" stroke-linejoin="round" /><polyline points="100.83,649.41 102.61,643.80 120.58,587.14 120.46,583.65" fill="none" stroke="#bcbcbc" stroke-width="8" stroke-linecap="round" stroke-linejoin="round" /><polyline points="124.95,583.41 128.51,535.70 128.86,531.81 129.41,527.28 129.41,527.08 129.65,521.54 130.84,506.53 131.51,499.53 132.42,491.58 133.26,485.86 134.00,482.27 134.95,479.56 136.79,473.44 140.61,460.70 145.46,444.26 150.81,427.44 151.91,424.01 152.78,421.53" fill="none" stroke="#bcbcbc" stroke-width="8" stroke-linecap="round" stroke-linejoin="round" /><polyline points="8.72,485.16 7.77,489.39 7.93,490.74 13.73,539.00 14.34,544.11 14.08,549.37 12.56,579.39 11.92,591.93 11.60,598.40 11.01,609.93 10.71,615.93 10.05,618.32" fill="none" stroke="#bcbcbc" stroke-width="8" stroke-linecap="round" stroke-linejoin="round" /><polyline points="-18.37,394.69 -39.45,388.42 -42.13,386.70 -55.25,382.88 -58.93,382.92 -75.41,377.96 -78.08,375.99 -93.07,371.45 -111.48,366.43 -111.57,366.42 -114.62,366.16" fill="none" stroke="#bcbcbc" stroke-width="8" stroke-linecap="round" stroke-linejoin="round" /><polyline points="365.73,326.53 366.46,327.49 369.52,332.04 375.17,340.47 380.48,345.79 390.71,357.27 388.98,367.88 388.10,371.85 386.88,373.54 389.45,377.33 393.41,385.49 401.34,400.78 405.24,408.31 407.67,415.08 408.76,418.22" fill="none" stroke="#bcbcbc" stroke-width="8" stroke-linecap="round" stroke-linejoin="round" /><polyline points="419.11,348.37 416.17,349.29 396.81,355.31 394.04,356.20 390.71,357.27" fill="none" stroke="#bcbcbc" stroke-width="8" stroke-linecap="round" stroke-linejoin="round" /><polyline points="280.02,385.04 286.07,383.08 330.00,360.64 335.88,357.77 356.59,351.79 376.67,346.14 380.48,345.79" fill="none" stroke="#bcbcbc" stroke-width="8" stroke-linecap="round" stroke-linejoin="round" /><polyline points="284.81,412.81 335.45,389.24 337.59,387.83 342.54,386.39 376.29,376.57 381.41,374.61 386.88,373.54" fill="none" stroke="#bcbcbc" stroke-width="8" stroke-linecap="round" stroke-linejoin="round" /><polyline points="274.47,-81.32 294.97,-78.79 297.03,-78.53 304.98,-76.58" fill="none" stroke="#bcbcbc" stroke-width="8" stroke-linecap="round" stroke-linejoin="round" /><polyline points="449.68,127.13 453.31,126.37 466.90,133.03 468.69,134.80 494.19,177.97 494.86,183.20 498.18,185.97 497.65,187.87 497.57,190.99 498.03,195.34 504.79,223.10 505.38,242.32 506.33,273.02 507.92,314.34 501.45,332.35 497.28,343.33 491.20,358.80 489.44,363.27 488.29,364.52 486.46,376.49" fill="none" stroke="#bcbcbc" stroke-width="8" stroke-linecap="round" stroke-linejoin="round" /><polyline points="496.83,449.41 490.62,446.71 475.13,435.90 454.68,421.53 443.43,412.43 435.84,404.31" fill="none" stroke="#bcbcbc" stroke-width="8" stroke-linecap="round" stroke-linejoin="round" /><polyline points="245.88,691.35 239.79,689.41 229.91,686.28 225.19,684.78 219.65,683.03 212.65,680.81 206.32,678.80 200.06,676.82 172.16,667.96 167.27,666.41 161.20,664.49 159.86,664.07 143.91,659.85 139.40,658.76 133.75,657.39 127.84,655.96 106.54,650.79 100.83,649.41 94.70,647.28 81.87,642.83 77.04,641.15 72.71,639.74 52.63,632.60 50.11,631.10 48.89,628.48" fill="none" stroke="#bcbcbc" stroke-width="8" stroke-linecap="round" stroke-linejoin="round" /><polyline points="337.59,387.83 336.11,382.53 331.70,366.72 330.00,360.64 327.55,356.10 327.33,355.26 325.88,349.90 327.56,347.53 325.54,340.79 324.92,338.69" fill="none" stroke="#bcbcbc" stroke-width="8" stroke-linecap="round" stroke-linejoin="round" /><polyline points="330.22,194.40 334.41,192.43 357.30,179.80 370.39,171.38 379.62,165.09 381.66,163.57 389.09,158.40 396.79,152.72 401.67,149.17 407.48,144.92 427.68,135.80 430.30,135.94 434.13,134.13 449.68,127.13" fill="none" stroke="#bcbcbc" stroke-width="8" stroke-linecap="round" stroke-linejoin="round" /><polyline points="76.43,280.46 79.73,281.80 81.91,282.47 122.86,295.05 129.11,296.97" fill="none" stroke="#bcbcbc" stroke-width="8" stroke-linecap="round" stroke-linejoin="round" /><polyline points="-216.05,372.54 -245.30,363.69" fill="none" stroke="#bcbcbc" stroke-width="8" stroke-linecap="round" stroke-linejoin="round" /><polyline points="256.49,-40.00 263.74,-30.82 264.83,-29.44 268.49,-24.81 272.66,-24.32 281.24,-23.31 282.76,-22.25" fill="none" stroke="#bcbcbc" stroke-width="8" stroke-linecap="round" stroke-linejoin="round" /><polyline points="508.36,368.69 496.87,370.83 485.08,377.24 474.16,383.32 463.82,388.48 451.34,395.26 442.30,400.75 424.43,410.33 354.69,445.42 336.61,453.39 324.66,458.55 318.74,460.49 313.85,461.41 305.83,461.89 294.42,460.28 265.95,453.44 225.54,444.02 172.37,427.98 152.78,421.53 120.71,411.62 90.03,401.51 45.05,383.86 22.55,374.17 -4.57,362.11 -49.56,337.47 -60.11,330.47 -86.80,313.68 -97.99,302.49 -114.78,280.75 -142.44,252.23 -153.31,242.65" fill="none" stroke="#bcbcbc" stroke-width="8" stroke-linecap="round" stroke-linejoin="round" /><polyline points="290.28,705.38 290.76,702.75 292.46,698.46 308.41,661.13 314.44,647.13 321.54,629.70 323.27,623.32" fill="none" stroke="#bcbcbc" stroke-width="8" stroke-linecap="round" stroke-linejoin="round" /><polyline points="-15.77,547.77 -33.89,539.00 -75.13,519.04 -125.71,494.56 -130.22,492.38" fill="none" stroke="#bcbcbc" stroke-width="8" stroke-linecap="round" stroke-linejoin="round" /><polyline points="282.07,258.87 286.65,254.19 298.81,241.73 308.47,231.19" fill="none" stroke="#bcbcbc" stroke-width="8" stroke-linecap="round" stroke-linejoin="round" /><polyline points="-69.27,286.62 -74.29,279.97 -97.85,248.78 -131.48,221.56" fill="none" stroke="#bcbcbc" stroke-width="8" stroke-linecap="round" stroke-linejoin="round" /><polyline points="-215.20,697.23 -210.60,686.33 -195.98,649.87 -194.21,645.09 -192.24,639.78 -191.50,637.87 -191.30,634.87 -189.43,606.53 -188.89,598.40" fill="none" stroke="#bcbcbc" stroke-width="8" stroke-linecap="round" stroke-linejoin="round" /><polyline points="-225.18,404.20 -216.05,372.54 -204.01,330.78 -202.52,325.62 -200.86,319.74 -197.15,306.60 -196.76,305.22 -195.69,300.99 -194.00,296.21 -193.59,295.05 -191.45,289.75 -187.25,280.47 -185.99,277.81" fill="none" stroke="#bcbcbc" stroke-width="8" stroke-linecap="round" stroke-linejoin="round" /><polyline points="-202.52,325.62 -184.05,330.34 -144.92,340.40 -122.63,347.34 -113.34,349.51" fill="none" stroke="#bcbcbc" stroke-width="8" stroke-linecap="round" stroke-linejoin="round" /><polyline points="177.66,181.96 178.29,178.12 178.92,174.13 181.63,160.78 188.40,129.71 193.96,101.91 194.98,96.15 196.36,88.32 196.36,88.31" fill="none" stroke="#bcbcbc" stroke-width="8" stroke-linecap="round" stroke-linejoin="round" /><polyline points="122.98,780.30 131.22,759.26 132.25,755.48 164.98,672.41 167.27,666.41 169.13,661.33 188.69,604.43 192.45,601.15" fill="none" stroke="#bcbcbc" stroke-width="8" stroke-linecap="round" stroke-linejoin="round" /><polyline points="235.16,165.88 235.15,165.87 234.00,159.79 233.81,159.05 230.99,147.55 230.99,147.52 229.06,139.72 220.89,111.73 219.87,108.73 214.35,93.74 212.56,89.27 211.40,86.38 209.90,83.10 209.90,83.09 209.90,83.08 208.80,71.03 208.70,65.11" fill="none" stroke="#bcbcbc" stroke-width="8" stroke-linecap="round" stroke-linejoin="round" /><polyline points="222.92,640.75 220.82,643.02 217.69,646.74 208.87,671.60 206.32,678.80" fill="none" stroke="#bcbcbc" stroke-width="8" stroke-linecap="round" stroke-linejoin="round" /><polyline points="76.43,280.46 77.63,277.20 77.90,276.44 83.63,260.44 85.77,253.71 103.32,202.11" fill="none" stroke="#bcbcbc" stroke-width="8" stroke-linecap="round" stroke-linejoin="round" /><polyline points="337.70,-139.82 335.03,-144.20 321.00,-167.22" fill="none" stroke="#bcbcbc" stroke-width="8" stroke-linecap="round" stroke-linejoin="round" /><polyline points="381.66,163.57 446.07,204.98 446.08,205.01 446.08,205.02 458.00,206.57" fill="none" stroke="#bcbcbc" stroke-width="8" stroke-linecap="round" stroke-linejoin="round" /><polyline points="355.83,77.05 424.36,111.45 426.43,112.99 426.29,124.25 427.68,135.80" fill="none" stroke="#bcbcbc" stroke-width="8" stroke-linecap="round" stroke-linejoin="round" /><polyline points="225.19,684.78 222.72,692.30 212.74,722.76 195.76,774.04 194.55,777.68 193.33,781.36 192.99,785.29" fill="none" stroke="#bcbcbc" stroke-width="8" stroke-linecap="round" stroke-linejoin="round" /><polyline points="418.10,499.80 418.51,495.98 418.59,492.42 418.57,492.29 416.14,481.80 415.14,477.41 414.66,475.29 414.17,473.13 411.51,461.39 406.30,437.92 402.51,423.81 401.98,421.63" fill="none" stroke="#bcbcbc" stroke-width="8" stroke-linecap="round" stroke-linejoin="round" /><polyline points="77.89,714.63 79.58,709.80 98.67,655.57 100.83,649.41" fill="none" stroke="#bcbcbc" stroke-width="8" stroke-linecap="round" stroke-linejoin="round" /><polyline points="506.33,273.02 500.72,271.44 462.59,212.93 458.00,206.57" fill="none" stroke="#bcbcbc" stroke-width="8" stroke-linecap="round" stroke-linejoin="round" /><polyline points="-120.41,413.40 18.54,446.69 28.12,450.19" fill="none" stroke="#bcbcbc" stroke-width="8" stroke-linecap="round" stroke-linejoin="round" /><polyline points="317.84,-106.76 371.96,-86.71 379.58,-88.01" fill="none" stroke="#bcbcbc" stroke-width="8" stroke-linecap="round" stroke-linejoin="round" />
    <polyline points="167.20,352.80 168.99,348.04 173.84,335.16 175.89,329.72 177.28,326.03 181.17,315.70 183.74,308.87 184.09,307.95 190.31,291.41 192.92,292.21 194.33,288.37 196.82,281.58 196.34,278.49 202.97,260.46 203.65,258.61 204.91,257.45 205.96,256.48 212.60,238.32 213.56,233.35 223.10,206.86 225.35,205.10 229.94,192.13 229.12,190.13 233.14,178.02 231.05,167.20" fill="none" stroke="#ffffff" stroke-width="16" stroke-linecap="round" stroke-linejoin="round" />
    <polyline points="167.20,352.80 168.99,348.04 173.84,335.16 175.89,329.72 177.28,326.03 181.17,315.70 183.74,308.87 184.09,307.95 190.31,291.41 192.92,292.21 194.33,288.37 196.82,281.58 196.34,278.49 202.97,260.46 203.65,258.61 204.91,257.45 205.96,256.48 212.60,238.32 213.56,233.35 223.10,206.86 225.35,205.10 229.94,192.13 229.12,190.13 233.14,178.02 231.05,167.20" fill="none" stroke="#111111" stroke-width="9" stroke-linecap="round" stroke-linejoin="round" />
    
            <g transform="translate(167.20,352.80)">
              <circle r="19" fill="#ffffff" stroke="#111111" stroke-width="4" />
              <text text-anchor="middle" dominant-baseline="central" font-family="Helvetica, Arial, sans-serif"
                font-size="18" font-weight="700" fill="#111111">1</text>
            </g>
            
            <g transform="translate(231.05,167.20)">
              <circle r="19" fill="#ffffff" stroke="#111111" stroke-width="4" />
              <text text-anchor="middle" dominant-baseline="central" font-family="Helvetica, Arial, sans-serif"
                font-size="18" font-weight="700" fill="#111111">2</text>
            </g>
            
  </g>
</svg>
