<svg xmlns="http://www.w3.org/2000/svg" width="520" height="520" viewBox="0 0 520 520">
  <rect width="100%" height="100%" fill="#ffffff" />
  <g>
    <polyline points="933.02,1903.04 940.55,1943.10 989.15,2283.10 981.72,2368.11" fill="none" stroke="#bcbcbc" stroke-width="8" stroke-linecap="round" stroke-linejoin="round" /><polyline points="-54.70,4736.42 -42.95,4700.29 19.30,4508.81 26.63,4486.25 34.06,4462.56 190.58,3963.32 203.17,3923.17 174.35,3852.15" fill="none" stroke="#bcbcbc" stroke-width="8" stroke-linecap="round" stroke-linejoin="round" /><polyline points="-1135.90,4292.37 -1138.43,4263.70 -1087.26,3977.04 -1080.08,3941.18 -1074.72,3922.40 -1060.63,3849.70 -1044.80,3760.72 -1027.56,3682.36 -1010.45,3604.17 -999.68,3582.12 -992.63,3568.61" fill="none" stroke="#bcbcbc" stroke-width="8" stroke-linecap="round" stroke-linejoin="round" /><polyline points="-838.87,2270.28 -851.03,2233.18 -976.79,1849.57 -982.93,1833.48" fill="none" stroke="#bcbcbc" stroke-width="8" stroke-linecap="round" stroke-linejoin="round" /><polyline points="-1484.15,5646.50 -1480.40,5609.89 -1478.88,5593.09 -1465.18,5441.63 -1450.20,5308.26 -1446.70,5277.12 -1443.45,5239.76 -1443.09,5236.62 -1434.59,5162.34 -1427.26,5086.84 -1419.19,5013.98 -1413.76,4957.25 -1411.49,4922.25 -1409.49,4889.92 -1405.92,4853.49" fill="none" stroke="#bcbcbc" stroke-width="8" stroke-linecap="round" stroke-linejoin="round" /><polyline points="253.50,4825.42 262.46,4797.26 325.57,4598.85 332.74,4576.30 342.93,4544.19 350.23,4521.17 406.09,4280.23" fill="none" stroke="#bcbcbc" stroke-width="8" stroke-linecap="round" stroke-linejoin="round" /><polyline points="8.20,900.81 31.51,904.39 673.68,1003.08" fill="none" stroke="#bcbcbc" stroke-width="8" stroke-linecap="round" stroke-linejoin="round" /><polyline points="-1640.37,4778.67 -1707.21,4775.56 -1747.97,4773.66 -1770.11,4772.63 -1789.54,4771.73 -1940.90,4764.68 -2151.42,4754.89 -2251.77,4740.66 -2285.35,4735.90 -2314.49,4730.75 -2511.86,4695.91 -2539.44,4691.04 -2545.56,4690.00 -2579.63,4684.15 -2605.82,4679.67 -2773.05,4664.88 -2804.91,4662.07 -2816.59,4661.03 -2852.75,4658.52 -2923.54,4653.62" fill="none" stroke="#bcbcbc" stroke-width="8" stroke-linecap="round" stroke-linejoin="round" /><polyline points="-669.31,4584.71 -656.36,4547.86 -539.69,4224.41 -399.35,3816.42 -390.35,3790.83 -384.09,3772.96 -379.01,3758.28" fill="none" stroke="#bcbcbc" stroke-width="8" stroke-linecap="round" stroke-linejoin="round" /><polyline points="-2816.59,4661.03 -2819.57,4640.23 -2820.28,4617.65 -2815.85,4572.16 -2805.69,4489.11 -2798.91,4461.22 -2787.92,4360.44 -2785.91,4337.99 -2782.69,4309.13 -2780.30,4287.70 -2775.79,4263.40 -2767.44,4198.03 -2761.64,4148.02 -2753.11,4127.56" fill="none" stroke="#bcbcbc" stroke-width="8" stroke-linecap="round" stroke-linejoin="round" /><polyline points="-2936.00,4102.01 -2780.39,4123.75 -2753.11,4127.56 -2736.21,4130.26 -2666.46,4141.37 -2505.75,4166.99 -2478.17,4171.58" fill="none" stroke="#bcbcbc" stroke-width="8" stroke-linecap="round" stroke-linejoin="round" /><polyline points="-72.16,2060.28 -71.15,2074.42 -69.06,2088.75 -64.00,2099.72 -54.54,2111.95 -37.04,2127.89 4.43,2153.12 324.38,2353.88 521.43,2618.12 670.27,2985.50 679.98,3009.77" fill="none" stroke="#bcbcbc" stroke-width="8" stroke-linecap="round" stroke-linejoin="round" /><polyline points="-123.40,3132.24 -116.76,3143.22 -115.04,3146.07 -109.55,3173.78 -72.01,3355.33 -60.09,3412.96 -51.57,3454.00 -38.28,3537.18 -32.07,3575.55 -27.79,3598.96 -23.10,3620.10 -17.50,3632.43 -9.29,3646.71 -4.89,3653.44 78.24,3772.48 123.21,3843.30 134.93,3860.23" fill="none" stroke="#bcbcbc" stroke-width="8" stroke-linecap="round" stroke-linejoin="round" /><polyline points="-2509.95,5405.47 -2505.53,5378.23 -2501.42,5358.53 -2500.32,5355.91 -2444.99,5224.33 -2409.73,5138.81 -2399.02,5111.71 -2387.67,5083.00 -2375.34,5058.33 -2373.35,5053.51 -2356.48,5012.72 -2343.44,4976.63 -2332.25,4943.52 -2325.15,4920.12 -2317.18,4891.20 -2308.01,4852.44 -2301.04,4820.98 -2292.71,4777.08 -2290.96,4767.29 -2285.35,4735.90" fill="none" stroke="#bcbcbc" stroke-width="8" stroke-linecap="round" stroke-linejoin="round" /><polyline points="170.87,1730.77 347.30,1854.08 371.07,1859.12 388.46,1879.03" fill="none" stroke="#bcbcbc" stroke-width="8" stroke-linecap="round" stroke-linejoin="round" /><polyline points="-569.96,2869.53 -546.65,2878.50 -445.41,2911.62 -210.59,3001.69 -197.42,3014.82 -191.23,3024.63" fill="none" stroke="#bcbcbc" stroke-width="8" stroke-linecap="round" stroke-linejoin="round" /><polyline points="-132.39,5183.95 -116.40,5142.27 -37.45,4928.06 18.36,4766.21 29.94,4760.89" fill="none" stroke="#bcbcbc" stroke-width="8" stroke-linecap="round" stroke-linejoin="round" /><polyline points="-1248.27,4912.33 -1235.82,4884.79 -1234.58,4882.07 -1213.27,4810.56 -1178.36,4692.86 -1169.42,4662.75 -1162.47,4639.35 -1161.54,4625.71 -1162.96,4595.53" fill="none" stroke="#bcbcbc" stroke-width="8" stroke-linecap="round" stroke-linejoin="round" /><polyline points="202.72,3141.65 182.70,3145.78 137.35,3137.70 130.32,3118.99 51.74,3089.03 33.15,3093.88 -37.74,3067.85 -48.32,3075.24" fill="none" stroke="#bcbcbc" stroke-width="8" stroke-linecap="round" stroke-linejoin="round" /><polyline points="86.03,710.43 121.64,719.15 141.34,722.57 609.79,803.81" fill="none" stroke="#bcbcbc" stroke-width="8" stroke-linecap="round" stroke-linejoin="round" /><polyline points="-278.06,5053.50 -258.57,4998.56 -220.70,4891.77 -196.23,4846.28 -161.02,4747.67 -146.96,4708.31" fill="none" stroke="#bcbcbc" stroke-width="8" stroke-linecap="round" stroke-linejoin="round" /><polyline points="-2844.73,2920.89 -2878.67,2919.34 -2887.17,2929.67 -2946.28,3001.50 -3152.90,3240.22 -3181.96,3273.79" fill="none" stroke="#bcbcbc" stroke-width="8" stroke-linecap="round" stroke-linejoin="round" /><polyline points="-1032.37,3125.35 -1047.34,3158.51 -1049.16,3162.53 -1101.19,3298.25 -1153.65,3447.64 -1167.63,3487.49 -1175.56,3508.06" fill="none" stroke="#bcbcbc" stroke-width="8" stroke-linecap="round" stroke-linejoin="round" /><polyline points="-269.07,1600.41 -252.54,1622.84 -240.73,1653.69 -222.37,1697.96 -192.89,1767.60 -166.78,1830.11 -136.81,1898.75 -114.58,1951.64 -111.29,1959.24 -111.09,1959.71 -93.19,2001.55 -87.85,2013.43 -82.76,2024.76 -77.38,2035.36 -73.33,2046.14 -72.16,2060.28" fill="none" stroke="#bcbcbc" stroke-width="8" stroke-linecap="round" stroke-linejoin="round" /><polyline points="-1534.61,3794.36 -1525.96,3789.63 -1513.85,3780.01 -1507.79,3767.53 -1427.40,3462.64 -1424.97,3445.44 -1415.17,3414.03" fill="none" stroke="#bcbcbc" stroke-width="8" stroke-linecap="round" stroke-linejoin="round" /><polyline points="1276.52,3317.24 1287.93,3353.44 1295.96,3391.47 1280.33,3536.39 1262.27,3645.40 1252.41,3682.58 1251.51,3685.95 1242.87,3706.01 1231.09,3727.29 1203.59,3762.09 1216.91,3830.12 1173.82,3976.14 1150.03,4056.78 1101.36,4188.78 1030.09,4349.50 943.06,4503.52 915.88,4553.58 866.74,4635.81 670.42,4914.50 627.41,4972.47 460.84,5190.18 365.22,5298.99 231.46,5434.96 219.07,5436.24 188.87,5460.94" fill="none" stroke="#bcbcbc" stroke-width="8" stroke-linecap="round" stroke-linejoin="round" /><polyline points="-1145.90,5701.06 -1091.11,5531.07 -1082.14,5503.00 -1069.96,5485.31 -1043.79,5406.75 -1035.27,5380.06 -927.15,5041.50 -916.28,5007.45 -907.32,4977.53 -779.73,4575.91" fill="none" stroke="#bcbcbc" stroke-width="8" stroke-linecap="round" stroke-linejoin="round" /><polyline points="137.90,2539.64 185.28,2487.87 199.25,2471.03 294.97,2335.42" fill="none" stroke="#bcbcbc" stroke-width="8" stroke-linecap="round" stroke-linejoin="round" /><polyline points="-809.00,2560.16 -678.54,2605.58 -671.33,2617.29 -634.29,2629.72 -612.30,2637.24 -507.14,2672.77" fill="none" stroke="#bcbcbc" stroke-width="8" stroke-linecap="round" stroke-linejoin="round" /><polyline points="328.13,1657.19 388.46,1879.03 458.32,2140.36 468.91,2162.14 470.60,2187.00 517.96,2275.46 645.80,2513.89 673.74,2555.13 681.84,2567.20 872.84,2924.34 960.62,3004.16 972.93,3020.05 990.29,3034.90 1156.96,3177.44 1168.27,3187.11 1198.20,3203.00" fill="none" stroke="#bcbcbc" stroke-width="8" stroke-linecap="round" stroke-linejoin="round" /><polyline points="-320.07,5737.14 95.58,5495.65 169.57,5457.81 188.87,5460.94" fill="none" stroke="#bcbcbc" stroke-width="8" stroke-linecap="round" stroke-linejoin="round" /><polyline points="130.59,5391.67 156.38,5361.01 387.91,4898.96 403.25,4868.66 416.06,4838.66 490.84,4653.69 513.11,4597.96 577.57,4402.85 619.37,4152.01 624.33,4115.50" fill="none" stroke="#bcbcbc" stroke-width="8" stroke-linecap="round" stroke-linejoin="round" /><polyline points="-48.09,2674.35 -52.14,2678.50 -57.71,2697.94 -58.27,2699.88 -83.40,2796.64 -76.80,2821.91 -82.29,2844.55 -89.46,2874.20 -107.85,2895.50 -128.71,2980.03 -153.29,2998.61 -179.53,3016.60 -191.23,3024.63" fill="none" stroke="#bcbcbc" stroke-width="8" stroke-linecap="round" stroke-linejoin="round" /><polyline points="-1032.37,3125.35 -1021.69,3097.96 -957.45,2933.27 -943.45,2897.36 -931.90,2867.78 -849.83,2657.47 -812.88,2569.54 -809.00,2560.16 -780.28,2490.71 -715.85,2330.70 -692.25,2262.58 -687.00,2246.96 -679.94,2229.25" fill="none" stroke="#bcbcbc" stroke-width="8" stroke-linecap="round" stroke-linejoin="round" /><polyline points="-313.61,2127.03 -301.19,2164.01 106.44,2512.26 328.89,2705.82 661.12,2994.68 690.12,3017.89 703.11,3026.01 760.76,3078.35 837.75,3144.03 1012.38,3292.95 1068.79,3341.46 1106.21,3386.24" fill="none" stroke="#bcbcbc" stroke-width="8" stroke-linecap="round" stroke-linejoin="round" /><polyline points="360.38,1526.96 381.06,1513.70 503.54,1462.79 528.71,1436.31" fill="none" stroke="#bcbcbc" stroke-width="8" stroke-linecap="round" stroke-linejoin="round" /><polyline points="501.85,4626.15 332.74,4576.31 26.63,4486.25" fill="none" stroke="#bcbcbc" stroke-width="8" stroke-linecap="round" stroke-linejoin="round" /><polyline points="-44.03,1028.49 -20.93,1044.42 731.77,1211.93" fill="none" stroke="#bcbcbc" stroke-width="8" stroke-linecap="round" stroke-linejoin="round" /><polyline points="885.73,3507.17 846.83,3420.60 760.50,3214.67 754.07,3198.30 739.30,3160.71 683.65,3019.09 680.15,3009.91" fill="none" stroke="#bcbcbc" stroke-width="8" stroke-linecap="round" stroke-linejoin="round" /><polyline points="-269.07,1600.41 -310.86,1588.52 -341.57,1579.37 -403.99,1560.83 -435.69,1551.79 -453.86,1546.74 -477.58,1539.94" fill="none" stroke="#bcbcbc" stroke-width="8" stroke-linecap="round" stroke-linejoin="round" /><polyline points="-1358.66,2733.04 -1360.78,2726.13 -1362.73,2721.28 -1371.34,2699.88 -1404.71,2622.08 -1436.41,2543.05 -1443.26,2524.39 -1451.15,2502.89 -1456.79,2485.31 -1466.11,2458.95 -1467.09,2456.18 -1497.43,2381.39 -1553.13,2240.84 -1565.64,2233.70 -1574.53,2210.91 -1592.30,2149.17 -1622.73,2072.67 -1629.29,2055.28" fill="none" stroke="#bcbcbc" stroke-width="8" stroke-linecap="round" stroke-linejoin="round" /><polyline points="-1091.11,5531.07 -1059.48,5540.76 -957.14,5571.95 -925.09,5581.71" fill="none" stroke="#bcbcbc" stroke-width="8" stroke-linecap="round" stroke-linejoin="round" /><polyline points="819.98,1563.77 825.94,1539.65 823.52,1530.49 820.60,1519.44 801.91,1450.98 760.26,1306.25 738.28,1232.26 731.77,1211.93 673.68,1003.08 642.32,890.43 609.79,803.81 580.40,725.66 551.14,671.94 522.70,643.55 304.41,376.76 288.26,357.77 277.56,340.22" fill="none" stroke="#bcbcbc" stroke-width="8" stroke-linecap="round" stroke-linejoin="round" /><polyline points="-72.16,2060.28 -83.42,2064.58 -104.23,2070.33 -106.31,2070.90 -193.25,2093.14 -293.21,2121.29 -313.61,2127.03 -322.70,2129.92 -346.72,2137.64 -367.25,2143.35 -456.88,2168.30 -604.30,2210.19 -659.26,2224.08 -679.94,2229.25 -778.18,2253.38 -838.87,2270.28 -967.38,2306.19 -1094.41,2342.00 -1109.10,2346.08 -1215.27,2375.55 -1264.24,2389.14 -1288.96,2400.83 -1335.77,2424.04 -1428.74,2471.23 -1435.21,2474.51 -1456.79,2485.31 -1469.96,2491.90 -1488.33,2501.54 -1553.64,2535.79 -1672.65,2602.57 -1772.06,2654.65 -1786.28,2662.11 -1805.27,2663.29 -1816.68,2669.35 -1818.96,2670.56 -1926.81,2729.68 -1949.39,2729.57 -1975.31,2743.14 -1984.37,2747.88 -1992.01,2751.87 -2010.03,2761.31 -2024.24,2793.71 -2085.28,2826.41 -2104.68,2836.81 -2125.68,2848.24 -2210.60,2894.46 -2254.50,2918.35 -2276.63,2924.73" fill="none" stroke="#bcbcbc" stroke-width="8" stroke-linecap="round" stroke-linejoin="round" /><polyline points="1150.03,4056.78 1104.71,4060.93 963.16,4073.90 956.78,4074.49 947.75,4075.32 933.14,4076.66 795.89,4089.26 748.16,4084.83 692.57,4098.77 648.04,4109.68 624.33,4115.50 565.40,4117.73 514.39,4115.14 488.39,4112.38 466.27,4105.68 449.97,4096.67 389.28,4053.75 241.82,3952.45 227.92,3943.02 213.76,3933.42 203.17,3923.17" fill="none" stroke="#bcbcbc" stroke-width="8" stroke-linecap="round" stroke-linejoin="round" /><polyline points="-2189.81,2346.58 -2136.30,2451.35 -2128.20,2481.29 -2083.13,2567.31 -2064.51,2591.91 -1989.18,2738.51 -1984.37,2747.88" fill="none" stroke="#bcbcbc" stroke-width="8" stroke-linecap="round" stroke-linejoin="round" /><polyline points="-550.09,3278.30 -558.10,3300.33 -560.35,3307.17 -570.80,3338.86 -637.00,3523.58 -669.86,3615.31 -670.98,3618.44 -684.18,3646.95 -691.75,3663.89" fill="none" stroke="#bcbcbc" stroke-width="8" stroke-linecap="round" stroke-linejoin="round" /><polyline points="328.13,1657.19 320.79,1641.48 301.50,1638.94 239.10,1653.26 226.42,1651.61 216.48,1638.29 198.83,1557.09 294.46,1542.28 338.73,1529.21 360.38,1526.96 383.70,1609.88" fill="none" stroke="#bcbcbc" stroke-width="8" stroke-linecap="round" stroke-linejoin="round" /><polyline points="673.74,2555.13 698.38,2541.29 822.11,2466.73 855.17,2447.03 913.05,2412.52 1008.27,2350.93 1030.49,2334.95 1197.52,2231.33" fill="none" stroke="#bcbcbc" stroke-width="8" stroke-linecap="round" stroke-linejoin="round" /><polyline points="1257.58,3044.61 1215.36,3032.03 1190.81,3011.89 1096.99,2930.69 1093.80,2927.84 1071.11,2907.59 1057.78,2883.96 822.11,2466.73" fill="none" stroke="#bcbcbc" stroke-width="8" stroke-linecap="round" stroke-linejoin="round" /><polyline points="-1402.14,3011.55 -1032.37,3125.35 -1002.20,3134.91 -726.26,3222.40 -720.49,3224.23 -679.15,3237.34 -658.83,3243.79 -632.42,3251.01 -577.94,3269.46 -550.09,3278.30 -525.02,3286.25 -319.66,3351.40 -102.88,3419.52 -84.95,3425.16 -60.09,3412.96" fill="none" stroke="#bcbcbc" stroke-width="8" stroke-linecap="round" stroke-linejoin="round" /><polyline points="-314.89,1185.68 -154.71,1038.48 -127.59,1013.56" fill="none" stroke="#bcbcbc" stroke-width="8" stroke-linecap="round" stroke-linejoin="round" /><polyline points="-2997.10,3560.94 -2409.36,3623.95" fill="none" stroke="#bcbcbc" stroke-width="8" stroke-linecap="round" stroke-linejoin="round" /><polyline points="-1224.05,1920.18 -1100.52,1876.00 -973.09,1829.92 -893.92,1799.14 -652.20,1711.21 -582.05,1686.94 -567.40,1681.87 -549.82,1675.83 -530.10,1669.05 -527.68,1668.21 -487.86,1652.21 -470.55,1645.25" fill="none" stroke="#bcbcbc" stroke-width="8" stroke-linecap="round" stroke-linejoin="round" /><polyline points="-394.36,4910.00 -278.06,5053.50 -206.85,5125.20 -176.03,5147.40 -132.39,5183.95 -91.40,5218.37 -56.19,5252.73 -55.32,5270.20" fill="none" stroke="#bcbcbc" stroke-width="8" stroke-linecap="round" stroke-linejoin="round" /><polyline points="-269.07,1600.41 -223.49,1486.15 -149.72,1298.02 -44.03,1028.49 8.20,900.81 86.03,710.43 149.85,554.47 161.27,533.78 217.40,442.01 221.02,436.08 241.55,395.69 277.56,340.22 297.67,309.27 326.12,265.47" fill="none" stroke="#bcbcbc" stroke-width="8" stroke-linecap="round" stroke-linejoin="round" /><polyline points="-1344.37,4655.52 -1351.83,4661.49 -1356.76,4668.60 -1366.82,4698.25 -1373.76,4719.66 -1405.88,4815.70 -1410.30,4829.55 -1413.04,4838.15 -1442.52,4829.70 -1514.29,4805.63 -1585.41,4781.78 -1640.37,4778.67" fill="none" stroke="#bcbcbc" stroke-width="8" stroke-linecap="round" stroke-linejoin="round" /><polyline points="-2749.81,5323.83 -2632.61,5021.11 -2619.57,4988.16 -2607.87,4956.41 -2593.74,4918.06 -2576.41,4857.73 -2558.33,4782.75 -2550.93,4729.03 -2545.56,4690.00 -2537.97,4661.19 -2510.39,4444.73 -2478.17,4171.58 -2461.49,4041.36 -2442.89,3888.38 -2409.36,3623.95 -2404.03,3578.99 -2370.15,3302.44 -2370.13,3287.04 -2362.64,3204.99 -2341.02,3031.66 -2335.61,3001.43 -2329.95,2984.48 -2321.11,2965.80 -2312.52,2951.31 -2293.55,2930.77 -2276.59,2924.95" fill="none" stroke="#bcbcbc" stroke-width="8" stroke-linecap="round" stroke-linejoin="round" /><polyline points="-191.23,3024.63 -184.82,3034.80 -163.33,3068.35 -131.15,3119.94 -123.40,3132.24 -110.56,3122.50 -48.32,3075.24" fill="none" stroke="#bcbcbc" stroke-width="8" stroke-linecap="round" stroke-linejoin="round" /><polyline points="-149.72,1298.02 483.52,1412.52 550.03,1447.53 798.13,1570.54 819.98,1563.77" fill="none" stroke="#bcbcbc" stroke-width="8" stroke-linecap="round" stroke-linejoin="round" /><polyline points="-1358.66,2733.04 -1369.90,2749.44 -1470.92,2798.75 -1545.12,2893.07 -1625.19,2942.66 -1679.95,2984.01 -1732.19,3026.63 -1758.98,3051.05 -1806.29,3111.08 -1859.19,3186.92 -1867.91,3200.97" fill="none" stroke="#bcbcbc" stroke-width="8" stroke-linecap="round" stroke-linejoin="round" /><polyline points="-1251.85,2800.71 -1256.23,2810.45 -1265.82,2824.45 -1283.92,2846.73 -1390.63,2981.56 -1447.09,3133.65 -1732.07,3026.51" fill="none" stroke="#bcbcbc" stroke-width="8" stroke-linecap="round" stroke-linejoin="round" /><polyline points="-1679.95,2984.01 -1690.99,2950.60 -1738.67,2806.20 -1757.18,2777.66 -1788.17,2684.68 -1790.85,2676.66 -1786.28,2662.11 -1793.70,2638.41 -1942.71,2162.55" fill="none" stroke="#bcbcbc" stroke-width="8" stroke-linecap="round" stroke-linejoin="round" /><polyline points="66.04,387.61 183.80,390.71 189.30,390.87 211.86,391.51 241.55,395.69" fill="none" stroke="#bcbcbc" stroke-width="8" stroke-linecap="round" stroke-linejoin="round" /><polyline points="-539.69,4224.41 -579.90,4223.91 -920.37,4269.63 -944.91,4272.22 -972.97,4275.18 -1135.90,4292.37 -1355.40,4315.56 -1471.77,4327.84 -1536.15,4334.63 -1588.41,4340.98 -1615.25,4344.25 -1645.49,4347.92 -1791.52,4365.67 -1826.52,4369.93 -1934.37,4381.72 -2510.39,4444.73" fill="none" stroke="#bcbcbc" stroke-width="8" stroke-linecap="round" stroke-linejoin="round" /><polyline points="-1043.79,5406.75 -1073.95,5397.04 -1214.82,5351.68 -1243.30,5342.51 -1268.03,5334.56 -1417.27,5286.58 -1446.70,5277.12 -1485.63,5264.59 -1723.22,5188.12 -1749.96,5179.52" fill="none" stroke="#bcbcbc" stroke-width="8" stroke-linecap="round" stroke-linejoin="round" /><polyline points="-454.71,2554.00 -372.77,2579.54 -73.11,2672.09 -70.31,2672.96 -48.09,2674.35" fill="none" stroke="#bcbcbc" stroke-width="8" stroke-linecap="round" stroke-linejoin="round" /><polyline points="388.46,1879.03 796.10,1886.20" fill="none" stroke="#bcbcbc" stroke-width="8" stroke-linecap="round" stroke-linejoin="round" /><polyline points="188.87,5460.94 130.59,5391.67 106.14,5363.23 85.13,5343.59 57.16,5322.70 -0.00,5288.40 -55.32,5270.20 -167.87,5235.44 -259.92,5206.22 -206.85,5125.20" fill="none" stroke="#bcbcbc" stroke-width="8" stroke-linecap="round" stroke-linejoin="round" /><polyline points="-394.36,4910.00 -475.50,4809.83 -490.93,4790.78 -572.66,4678.17 -591.16,4643.78 -586.72,4602.85 -562.08,4602.61 -501.29,4614.31 -408.80,4632.10" fill="none" stroke="#bcbcbc" stroke-width="8" stroke-linecap="round" stroke-linejoin="round" /><polyline points="-1455.82,4107.41 -1440.86,4139.61 -1355.40,4315.56 -1228.33,4577.19 -1212.13,4610.55" fill="none" stroke="#bcbcbc" stroke-width="8" stroke-linecap="round" stroke-linejoin="round" /><polyline points="-2824.53,4904.35 -2793.97,4916.84 -2650.82,4975.38 -2619.57,4988.16 -2586.69,5001.60 -2418.16,5070.53 -2387.67,5083.00" fill="none" stroke="#bcbcbc" stroke-width="8" stroke-linecap="round" stroke-linejoin="round" /><polyline points="-1385.49,3846.54 -1087.26,3977.04" fill="none" stroke="#bcbcbc" stroke-width="8" stroke-linecap="round" stroke-linejoin="round" /><polyline points="-48.09,2674.35 -2.66,2676.73 0.24,2679.31 20.62,2697.39 50.58,2724.14 56.11,2734.90 159.36,2825.33 167.00,2839.76 239.60,2903.85 257.87,2909.42 314.35,2958.89 327.01,2964.67 412.18,3036.94 431.14,3053.76 441.61,3070.41" fill="none" stroke="#bcbcbc" stroke-width="8" stroke-linecap="round" stroke-linejoin="round" /><polyline points="-2908.71,3846.84 -2442.89,3888.38" fill="none" stroke="#bcbcbc" stroke-width="8" stroke-linecap="round" stroke-linejoin="round" /><polyline points="-1868.63,5581.69 -1854.19,5550.96 -1850.48,5537.29 -1830.25,5462.69 -1756.97,5204.26 -1749.96,5179.52 -1742.54,5152.38 -1709.35,5030.97 -1653.29,4825.93 -1640.37,4778.67" fill="none" stroke="#bcbcbc" stroke-width="8" stroke-linecap="round" stroke-linejoin="round" /><polyline points="-1455.82,4107.41 -1385.49,3846.54 -1534.61,3794.36 -1573.65,3817.42 -1591.45,3830.96 -1604.63,3848.79 -1613.90,3872.33 -1648.20,3999.11 -1620.53,4013.20 -1592.58,4019.98 -1530.77,4036.07 -1484.52,4050.80 -1455.82,4107.41" fill="none" stroke="#bcbcbc" stroke-width="8" stroke-linecap="round" stroke-linejoin="round" /><polyline points="-1648.20,3999.11 -1680.86,3994.56 -2442.89,3888.38" fill="none" stroke="#bcbcbc" stroke-width="8" stroke-linecap="round" stroke-linejoin="round" /><polyline points="-408.80,4632.10 -338.12,4647.55 -146.96,4708.31 -93.51,4725.22 33.36,4761.87 161.16,4798.73 255.77,4826.07 407.09,4869.77 438.35,4878.80 514.71,4904.41 640.43,4937.90 651.52,4939.97" fill="none" stroke="#bcbcbc" stroke-width="8" stroke-linecap="round" stroke-linejoin="round" /><polyline points="-319.13,5736.60 -344.93,5743.07 -372.81,5820.80 -416.05,5808.52 -612.66,5741.50 -636.33,5736.45 -688.97,5732.68 -927.07,5733.63 -979.56,5726.95 -1098.09,5708.82 -1145.90,5701.06 -1485.02,5646.36 -1616.33,5625.40 -1866.76,5582.01 -1907.20,5574.00 -2472.38,5416.00 -2508.04,5406.01 -2749.81,5323.83 -2809.29,5302.72 -2957.87,5241.14 -3042.55,5209.10" fill="none" stroke="#bcbcbc" stroke-width="8" stroke-linecap="round" stroke-linejoin="round" /><polyline points="198.83,1557.09 174.36,1552.05 -152.29,1590.67 -269.07,1600.41" fill="none" stroke="#bcbcbc" stroke-width="8" stroke-linecap="round" stroke-linejoin="round" /><polyline points="-408.80,4632.10 -397.35,4612.95 -328.80,4436.87 -252.21,4170.63 -232.68,4113.29 -222.23,4097.68 -148.28,3860.29 -144.61,3831.94 -141.81,3813.42" fill="none" stroke="#bcbcbc" stroke-width="8" stroke-linecap="round" stroke-linejoin="round" /><polyline points="-72.16,2060.28 -64.35,2057.29 -53.77,2048.89 -37.71,2030.09 170.87,1730.77 226.42,1651.61" fill="none" stroke="#bcbcbc" stroke-width="8" stroke-linecap="round" stroke-linejoin="round" /><polyline points="856.13,3159.81 860.40,3147.52 965.24,3024.15 972.93,3020.05 991.15,2995.13 1052.14,2925.06 1071.11,2907.59" fill="none" stroke="#bcbcbc" stroke-width="8" stroke-linecap="round" stroke-linejoin="round" /><polyline points="947.75,4075.32 946.30,4058.81 945.18,4046.04 939.65,4021.63 933.05,4005.69 924.81,3963.86 924.07,3948.70 918.48,3914.84 893.53,3901.79 873.58,3909.42 837.88,3917.97 809.63,3922.39 782.53,3928.93 745.11,3937.46 728.05,3941.35" fill="none" stroke="#bcbcbc" stroke-width="8" stroke-linecap="round" stroke-linejoin="round" /><polyline points="-1806.77,3469.46 -1730.52,3290.69 -1726.28,3279.07" fill="none" stroke="#bcbcbc" stroke-width="8" stroke-linecap="round" stroke-linejoin="round" /><polyline points="202.72,3141.65 239.47,3127.41 258.68,3119.96 273.55,3104.92 334.81,3089.81 355.37,3095.05 399.72,3083.62 433.55,3074.91 441.61,3070.41 474.41,3062.38 642.13,3021.28 680.15,3009.91" fill="none" stroke="#bcbcbc" stroke-width="8" stroke-linecap="round" stroke-linejoin="round" /><polyline points="-1344.37,4655.52 -1265.24,4626.78 -1238.77,4618.69 -1212.13,4610.55 -1162.96,4595.53 -1124.71,4590.03 -994.07,4575.73 -967.82,4574.30 -850.93,4575.30 -779.73,4575.91 -752.95,4574.54 -710.06,4578.88 -696.64,4580.80 -669.31,4584.71 -586.72,4602.85" fill="none" stroke="#bcbcbc" stroke-width="8" stroke-linecap="round" stroke-linejoin="round" /><polyline points="-967.38,2306.19 -980.49,2261.87 -1029.17,2097.24 -1088.31,1909.51 -1100.52,1876.00 -1112.92,1844.59 -1128.59,1799.33" fill="none" stroke="#bcbcbc" stroke-width="8" stroke-linecap="round" stroke-linejoin="round" /><polyline points="-1108.98,4960.71 -1098.59,4927.86 -993.40,4596.13 -994.07,4575.73" fill="none" stroke="#bcbcbc" stroke-width="8" stroke-linecap="round" stroke-linejoin="round" /><polyline points="-967.82,4574.30 -946.99,4294.99 -944.91,4272.22 -941.72,4245.72 -941.67,4244.52 -940.30,4212.12 -933.35,4124.20 -929.43,4083.25 -924.08,4036.73 -919.19,4003.24 -914.81,3982.21 -909.30,3966.32 -898.49,3930.49 -876.15,3855.93 -847.73,3759.66 -816.41,3661.21 -810.02,3641.14 -804.89,3626.58" fill="none" stroke="#bcbcbc" stroke-width="8" stroke-linecap="round" stroke-linejoin="round" /><polyline points="-1648.20,3999.11 -1653.74,4023.86 -1652.79,4031.77 -1618.85,4314.32 -1615.25,4344.25 -1616.81,4375.03 -1625.70,4550.77 -1629.42,4624.19 -1631.33,4662.06 -1634.75,4729.56 -1636.53,4764.71 -1640.37,4778.67" fill="none" stroke="#bcbcbc" stroke-width="8" stroke-linecap="round" stroke-linejoin="round" /><polyline points="-1806.77,3469.46 -1930.14,3432.78 -1945.82,3422.72 -2022.61,3400.34 -2044.18,3400.57 -2140.66,3371.50 -2156.24,3360.00 -2244.03,3333.39 -2351.75,3304.02 -2352.28,3303.97 -2370.15,3302.44" fill="none" stroke="#bcbcbc" stroke-width="8" stroke-linecap="round" stroke-linejoin="round" /><polyline points="441.61,3070.41 445.89,3076.04 463.78,3102.70 496.85,3152.01 527.98,3183.20 587.83,3250.40 577.72,3312.49 572.58,3335.78 565.44,3345.63 580.45,3367.83 603.66,3415.61 650.05,3505.12 672.89,3549.20 687.10,3588.81 693.51,3607.21" fill="none" stroke="#bcbcbc" stroke-width="8" stroke-linecap="round" stroke-linejoin="round" /><polyline points="754.07,3198.30 736.87,3203.66 623.58,3238.91 607.33,3244.13 587.83,3250.40" fill="none" stroke="#bcbcbc" stroke-width="8" stroke-linecap="round" stroke-linejoin="round" /><polyline points="-60.09,3412.96 -24.66,3401.47 232.50,3270.13 266.92,3253.31 388.13,3218.30 505.65,3185.25 527.98,3183.20" fill="none" stroke="#bcbcbc" stroke-width="8" stroke-linecap="round" stroke-linejoin="round" /><polyline points="-32.07,3575.55 264.40,3437.56 276.88,3429.30 305.88,3420.87 503.43,3363.37 533.40,3351.90 565.44,3345.63" fill="none" stroke="#bcbcbc" stroke-width="8" stroke-linecap="round" stroke-linejoin="round" /><polyline points="-92.57,682.68 27.44,697.51 39.50,699.00 86.03,710.43" fill="none" stroke="#bcbcbc" stroke-width="8" stroke-linecap="round" stroke-linejoin="round" /><polyline points="933.02,1903.04 954.30,1898.59 1033.83,1937.58 1044.31,1947.95 1193.58,2200.68 1197.52,2231.33 1216.93,2247.50 1213.84,2258.67 1213.37,2276.89 1216.06,2302.36 1255.60,2464.88 1259.10,2577.45 1264.64,2757.18 1273.93,2999.09 1236.07,3104.50 1211.68,3168.76 1176.07,3259.32 1165.76,3285.52 1159.07,3292.83 1148.31,3362.91" fill="none" stroke="#bcbcbc" stroke-width="8" stroke-linecap="round" stroke-linejoin="round" /><polyline points="1209.02,3789.83 1172.71,3774.03 1081.98,3710.71 962.28,3626.58 896.45,3573.34 852.03,3525.76" fill="none" stroke="#bcbcbc" stroke-width="8" stroke-linecap="round" stroke-linejoin="round" /><polyline points="-259.92,5206.22 -295.58,5194.91 -353.44,5176.56 -381.05,5167.81 -413.48,5157.52 -454.46,5144.53 -491.51,5132.78 -528.13,5121.16 -691.46,5069.33 -720.06,5060.25 -755.59,5049.00 -763.43,5046.51 -856.84,5021.83 -883.22,5015.45 -916.28,5007.45 -950.88,4999.05 -1075.54,4968.82 -1108.98,4960.71 -1144.91,4948.23 -1219.98,4922.16 -1248.27,4912.33 -1273.57,4904.12 -1391.12,4862.31 -1405.92,4853.49 -1413.04,4838.15" fill="none" stroke="#bcbcbc" stroke-width="8" stroke-linecap="round" stroke-linejoin="round" /><polyline points="276.88,3429.30 268.23,3398.26 242.42,3305.72 232.50,3270.13 218.16,3243.54 216.83,3238.60 208.37,3207.27 218.21,3193.40 206.39,3153.91 202.72,3141.65" fill="none" stroke="#bcbcbc" stroke-width="8" stroke-linecap="round" stroke-linejoin="round" /><polyline points="233.74,2296.88 258.27,2285.33 392.29,2211.42 468.91,2162.14 522.95,2125.27 534.88,2116.38 578.37,2086.15 623.44,2052.85 651.98,2032.08 686.00,2007.20 804.24,1953.84 819.57,1954.65 841.98,1944.05 933.02,1903.03" fill="none" stroke="#bcbcbc" stroke-width="8" stroke-linecap="round" stroke-linejoin="round" /><polyline points="-1251.85,2800.71 -1232.52,2808.55 -1219.74,2812.48 -980.05,2886.11 -943.45,2897.36" fill="none" stroke="#bcbcbc" stroke-width="8" stroke-linecap="round" stroke-linejoin="round" /><polyline points="-2963.88,3339.81 -3135.13,3287.97" fill="none" stroke="#bcbcbc" stroke-width="8" stroke-linecap="round" stroke-linejoin="round" /><polyline points="-197.82,924.58 -155.36,978.37 -149.03,986.40 -127.59,1013.56 -103.17,1016.43 -52.95,1022.32 -44.03,1028.49" fill="none" stroke="#bcbcbc" stroke-width="8" stroke-linecap="round" stroke-linejoin="round" /><polyline points="1276.52,3317.24 1209.25,3329.79 1140.26,3367.29 1076.31,3402.89 1015.83,3433.13 942.75,3472.83 889.83,3504.97 785.25,3561.05 377.00,3766.47 271.16,3813.10 201.23,3843.35 166.58,3854.69 137.92,3860.05 90.98,3862.88 24.20,3853.43 -142.44,3813.42 -379.01,3758.28 -690.23,3664.39 -804.89,3626.58 -992.63,3568.61 -1172.19,3509.38 -1435.53,3406.04 -1567.20,3349.33 -1725.96,3278.75 -1989.31,3134.46 -2051.05,3093.50 -2207.29,2995.20 -2272.81,2929.67 -2371.10,2802.39 -2533.01,2635.42 -2596.64,2579.34" fill="none" stroke="#bcbcbc" stroke-width="8" stroke-linecap="round" stroke-linejoin="round" /><polyline points="-0.00,5288.40 2.76,5273.00 12.71,5247.86 106.10,5029.31 141.38,4947.39 182.96,4845.30 193.09,4807.94" fill="none" stroke="#bcbcbc" stroke-width="8" stroke-linecap="round" stroke-linejoin="round" /><polyline points="-1791.52,4365.67 -1897.60,4314.32 -2138.98,4197.47 -2435.06,4054.15 -2461.49,4041.36" fill="none" stroke="#bcbcbc" stroke-width="8" stroke-linecap="round" stroke-linejoin="round" /><polyline points="-48.09,2674.35 -21.30,2646.91 49.92,2573.99 106.44,2512.26" fill="none" stroke="#bcbcbc" stroke-width="8" stroke-linecap="round" stroke-linejoin="round" /><polyline points="-2104.68,2836.81 -2134.11,2797.84 -2272.00,2615.23 -2468.85,2455.91" fill="none" stroke="#bcbcbc" stroke-width="8" stroke-linecap="round" stroke-linejoin="round" /><polyline points="-2958.92,5240.69 -2932.00,5176.85 -2846.42,4963.43 -2836.04,4935.42 -2824.53,4904.35 -2820.17,4893.13 -2819.01,4875.57 -2808.05,4709.66 -2804.91,4662.07" fill="none" stroke="#bcbcbc" stroke-width="8" stroke-linecap="round" stroke-linejoin="round" /><polyline points="-3017.31,3525.15 -2963.88,3339.81 -2893.39,3095.34 -2884.66,3065.08 -2874.96,3030.70 -2853.24,2953.73 -2850.95,2945.64 -2844.74,2920.89 -2834.81,2892.92 -2832.41,2886.14 -2819.88,2855.08 -2795.28,2800.80 -2787.92,2785.22" fill="none" stroke="#bcbcbc" stroke-width="8" stroke-linecap="round" stroke-linejoin="round" /><polyline points="-2884.66,3065.08 -2776.55,3092.73 -2547.54,3151.61 -2417.07,3192.24 -2362.64,3204.99" fill="none" stroke="#bcbcbc" stroke-width="8" stroke-linecap="round" stroke-linejoin="round" /><polyline points="-659.26,2224.08 -655.58,2201.57 -651.88,2178.21 -636.02,2100.06 -596.39,1918.15 -563.85,1755.43 -557.90,1721.67 -549.82,1675.83 -549.81,1675.79" fill="none" stroke="#bcbcbc" stroke-width="8" stroke-linecap="round" stroke-linejoin="round" /><polyline points="-979.35,5726.98 -931.08,5603.84 -925.09,5581.71 -733.52,5095.34 -720.06,5060.25 -709.17,5030.48 -594.70,4697.40 -572.66,4678.17" fill="none" stroke="#bcbcbc" stroke-width="8" stroke-linecap="round" stroke-linejoin="round" /><polyline points="-322.70,2129.92 -322.71,2129.88 -329.50,2094.26 -330.56,2089.93 -347.11,2022.62 -347.10,2022.41 -358.38,1976.77 -406.19,1812.91 -412.21,1795.36 -444.50,1707.58 -454.99,1681.38 -461.76,1664.48 -470.54,1645.28 -470.55,1645.25 -470.56,1645.16 -476.96,1574.59 -477.58,1539.94" fill="none" stroke="#bcbcbc" stroke-width="8" stroke-linecap="round" stroke-linejoin="round" /><polyline points="-394.36,4910.01 -406.65,4923.29 -424.97,4945.09 -476.57,5090.64 -491.51,5132.78" fill="none" stroke="#bcbcbc" stroke-width="8" stroke-linecap="round" stroke-linejoin="round" /><polyline points="-1251.85,2800.71 -1244.80,2781.60 -1243.21,2777.16 -1209.69,2683.53 -1197.13,2644.09 -1094.41,2342.00" fill="none" stroke="#bcbcbc" stroke-width="8" stroke-linecap="round" stroke-linejoin="round" /><polyline points="-720.49,3224.23 -710.01,3196.38 -681.63,3120.97 -669.63,3089.09 -661.51,3067.51 -638.73,3007.00 -623.68,2967.02 -621.65,2961.64 -585.20,2864.80 -569.96,2869.53 -561.71,2847.04 -547.10,2807.27 -549.90,2789.20 -511.12,2683.61 -507.14,2672.77 -499.78,2666.00 -493.60,2660.33 -454.71,2554.00 -449.09,2524.90 -393.30,2369.85 -380.10,2359.52 -353.26,2283.57 -358.03,2271.91 -334.52,2200.98 -346.72,2137.64" fill="none" stroke="#bcbcbc" stroke-width="8" stroke-linecap="round" stroke-linejoin="round" /><polyline points="534.88,2116.38 911.88,2358.85 911.99,2359.01 911.99,2359.06 981.72,2368.11" fill="none" stroke="#bcbcbc" stroke-width="8" stroke-linecap="round" stroke-linejoin="round" /><polyline points="383.70,1609.88 784.82,1811.25 796.92,1820.28 796.11,1886.20 804.24,1953.84" fill="none" stroke="#bcbcbc" stroke-width="8" stroke-linecap="round" stroke-linejoin="round" /><polyline points="-381.05,5167.81 -395.48,5211.83 -453.92,5390.11 -553.33,5690.34 -560.38,5711.64 -567.53,5733.22 -569.53,5756.21" fill="none" stroke="#bcbcbc" stroke-width="8" stroke-linecap="round" stroke-linejoin="round" /><polyline points="748.16,4084.83 750.56,4062.47 751.07,4041.60 750.90,4040.87 736.69,3979.42 730.86,3953.74 728.05,3941.35 725.18,3928.70 709.57,3859.94 679.09,3722.56 656.94,3639.95 653.80,3627.19" fill="none" stroke="#bcbcbc" stroke-width="8" stroke-linecap="round" stroke-linejoin="round" /><polyline points="-1243.30,5342.51 -1233.36,5314.25 -1121.66,4996.75 -1108.98,4960.71" fill="none" stroke="#bcbcbc" stroke-width="8" stroke-linecap="round" stroke-linejoin="round" /><polyline points="1264.64,2757.18 1231.77,2747.90 1008.60,2405.39 981.72,2368.11" fill="none" stroke="#bcbcbc" stroke-width="8" stroke-linecap="round" stroke-linejoin="round" /><polyline points="-2404.03,3578.99 -1590.69,3773.88 -1534.61,3794.36" fill="none" stroke="#bcbcbc" stroke-width="8" stroke-linecap="round" stroke-linejoin="round" /><polyline points="161.27,533.78 478.09,651.17 522.70,643.55" fill="none" stroke="#bcbcbc" stroke-width="8" stroke-linecap="round" stroke-linejoin="round" />
    <polyline points="277.56,340.22 261.93,314.57 179.78,179.78" fill="none" stroke="#ffffff" stroke-width="16" stroke-linecap="round" stroke-linejoin="round" />
    <polyline points="277.56,340.22 261.93,314.57 179.78,179.78" fill="none" stroke="#111111" stroke-width="9" stroke-linecap="round" stroke-linejoin="round" />
    
            <g transform="translate(277.56,340.22)">
              <circle r="19" fill="#ffffff" stroke="#111111" stroke-width="4" />
              <text text-anchor="middle" dominant-baseline="central" font-family="Helvetica, Arial, sans-serif"
                font-size="18" font-weight="700" fill="#111111">1</text>
            </g>
            
            <g transform="translate(179.78,179.78)">
              <circle r="19" fill="#ffffff" stroke="#111111" stroke-width="4" />
              <text text-anchor="middle" dominant-baseline="central" font-family="Helvetica, Arial, sans-serif"
                font-size="18" font-weight="700" fill="#111111">2</text>
            </g>
            
  </g>
</svg>
