<svg xmlns="http://www.w3.org/2000/svg" width="520" height="520" viewBox="0 0 520 520">
  <rect width="100%" height="100%" fill="#ffffff" />
  <g>
    <polyline points="332.57,159.65 335.70,176.29 355.89,317.50 352.80,352.80" fill="none" stroke="#bcbcbc" stroke-width="8" stroke-linecap="round" stroke-linejoin="round" /><polyline points="-77.69,1336.40 -72.81,1321.40 -46.96,1241.87 -43.91,1232.50 -40.82,1222.66 24.19,1015.32 29.42,998.65 17.45,969.15" fill="none" stroke="#bcbcbc" stroke-width="8" stroke-linecap="round" stroke-linejoin="round" /><polyline points="-526.79,1151.98 -527.84,1140.07 -506.58,1021.02 -503.60,1006.12 -501.37,998.33 -495.52,968.13 -488.95,931.18 -481.78,898.63 -474.68,866.16 -470.21,857.00 -467.28,851.39" fill="none" stroke="#bcbcbc" stroke-width="8" stroke-linecap="round" stroke-linejoin="round" /><polyline points="-403.41,312.17 -408.46,296.76 -460.70,137.44 -463.25,130.76" fill="none" stroke="#bcbcbc" stroke-width="8" stroke-linecap="round" stroke-linejoin="round" /><polyline points="-671.44,1714.37 -669.88,1699.17 -669.25,1692.19 -663.56,1629.29 -657.34,1573.90 -655.88,1560.97 -654.53,1545.45 -654.38,1544.14 -650.85,1513.29 -647.81,1481.94 -644.46,1451.68 -642.20,1428.12 -641.26,1413.58 -640.43,1400.15 -638.94,1385.02" fill="none" stroke="#bcbcbc" stroke-width="8" stroke-linecap="round" stroke-linejoin="round" /><polyline points="50.33,1373.37 54.05,1361.67 80.26,1279.27 83.24,1269.90 87.47,1256.56 90.50,1247.01 113.70,1146.94" fill="none" stroke="#bcbcbc" stroke-width="8" stroke-linecap="round" stroke-linejoin="round" /><polyline points="-51.56,-256.59 -41.89,-255.11 224.85,-214.12" fill="none" stroke="#bcbcbc" stroke-width="8" stroke-linecap="round" stroke-linejoin="round" /><polyline points="-736.33,1353.95 -764.09,1352.66 -781.02,1351.87 -790.22,1351.44 -798.29,1351.07 -861.16,1348.14 -948.60,1344.07 -990.28,1338.16 -1004.23,1336.19 -1016.34,1334.05 -1098.31,1319.58 -1109.77,1317.56 -1112.31,1317.12 -1126.46,1314.70 -1137.34,1312.83 -1206.81,1306.69 -1220.04,1305.52 -1224.89,1305.09 -1239.91,1304.05 -1269.31,1302.01" fill="none" stroke="#bcbcbc" stroke-width="8" stroke-linecap="round" stroke-linejoin="round" /><polyline points="-332.98,1273.40 -327.60,1258.09 -279.14,1123.75 -220.85,954.31 -217.11,943.68 -214.51,936.26 -212.40,930.16" fill="none" stroke="#bcbcbc" stroke-width="8" stroke-linecap="round" stroke-linejoin="round" /><polyline points="-1224.89,1305.09 -1226.13,1296.45 -1226.42,1287.07 -1224.58,1268.18 -1220.36,1233.69 -1217.55,1222.11 -1212.98,1180.25 -1212.15,1170.93 -1210.81,1158.94 -1209.82,1150.04 -1207.94,1139.95 -1204.47,1112.80 -1202.06,1092.03 -1198.52,1083.53" fill="none" stroke="#bcbcbc" stroke-width="8" stroke-linecap="round" stroke-linejoin="round" /><polyline points="-1274.49,1072.92 -1209.85,1081.95 -1198.52,1083.53 -1191.50,1084.65 -1162.53,1089.27 -1095.78,1099.91 -1084.32,1101.82" fill="none" stroke="#bcbcbc" stroke-width="8" stroke-linecap="round" stroke-linejoin="round" /><polyline points="-84.95,224.95 -84.53,230.83 -83.66,236.78 -81.56,241.34 -77.63,246.41 -70.36,253.03 -53.13,263.51 79.76,346.89 161.61,456.63 223.43,609.21 227.47,619.29" fill="none" stroke="#bcbcbc" stroke-width="8" stroke-linecap="round" stroke-linejoin="round" /><polyline points="-106.23,670.16 -103.47,674.72 -102.76,675.90 -100.48,687.41 -84.88,762.81 -79.93,786.75 -76.39,803.79 -70.87,838.34 -68.29,854.27 -66.51,863.99 -64.57,872.77 -62.24,877.90 -58.83,883.82 -57.00,886.62 -22.47,936.06 -3.80,965.47 1.08,972.50" fill="none" stroke="#bcbcbc" stroke-width="8" stroke-linecap="round" stroke-linejoin="round" /><polyline points="-1097.52,1614.27 -1095.69,1602.96 -1093.98,1594.77 -1093.52,1593.69 -1070.54,1539.04 -1055.89,1503.52 -1051.44,1492.26 -1046.73,1480.34 -1041.61,1470.10 -1040.78,1468.09 -1033.77,1451.15 -1028.36,1436.17 -1023.71,1422.41 -1020.76,1412.69 -1017.45,1400.69 -1013.64,1384.59 -1010.75,1371.52 -1007.29,1353.29 -1006.56,1349.22 -1004.23,1336.19" fill="none" stroke="#bcbcbc" stroke-width="8" stroke-linecap="round" stroke-linejoin="round" /><polyline points="16.00,88.10 89.28,139.31 99.16,141.41 106.38,149.68" fill="none" stroke="#bcbcbc" stroke-width="8" stroke-linecap="round" stroke-linejoin="round" /><polyline points="-291.72,561.05 -282.03,564.77 -239.98,578.53 -142.44,615.94 -136.97,621.39 -134.40,625.47" fill="none" stroke="#bcbcbc" stroke-width="8" stroke-linecap="round" stroke-linejoin="round" /><polyline points="-109.96,1522.27 -103.32,1504.96 -70.53,1415.99 -47.34,1348.78 -42.54,1346.56" fill="none" stroke="#bcbcbc" stroke-width="8" stroke-linecap="round" stroke-linejoin="round" /><polyline points="-573.46,1409.46 -568.29,1398.02 -567.78,1396.89 -558.92,1367.19 -544.42,1318.31 -540.71,1305.80 -537.82,1296.09 -537.44,1290.42 -538.03,1277.89" fill="none" stroke="#bcbcbc" stroke-width="8" stroke-linecap="round" stroke-linejoin="round" /><polyline points="29.23,674.06 20.92,675.78 2.08,672.43 -0.84,664.66 -33.48,652.21 -41.20,654.23 -70.65,643.42 -75.04,646.48" fill="none" stroke="#bcbcbc" stroke-width="8" stroke-linecap="round" stroke-linejoin="round" /><polyline points="-19.24,-335.66 -4.45,-332.04 3.74,-330.62 198.31,-296.88" fill="none" stroke="#bcbcbc" stroke-width="8" stroke-linecap="round" stroke-linejoin="round" /><polyline points="-170.47,1468.09 -162.37,1445.27 -146.64,1400.92 -136.48,1382.03 -121.85,1341.08 -116.01,1324.73" fill="none" stroke="#bcbcbc" stroke-width="8" stroke-linecap="round" stroke-linejoin="round" /><polyline points="-1236.58,582.38 -1250.67,581.74 -1254.21,586.03 -1278.76,615.86 -1364.58,715.00 -1376.65,728.95" fill="none" stroke="#bcbcbc" stroke-width="8" stroke-linecap="round" stroke-linejoin="round" /><polyline points="-483.78,667.29 -490.00,681.07 -490.76,682.74 -512.37,739.10 -534.16,801.15 -539.97,817.70 -543.26,826.24" fill="none" stroke="#bcbcbc" stroke-width="8" stroke-linecap="round" stroke-linejoin="round" /><polyline points="-166.74,33.96 -159.87,43.28 -154.96,56.09 -147.34,74.48 -135.09,103.40 -124.25,129.36 -111.80,157.87 -102.56,179.83 -101.20,182.99 -101.11,183.18 -93.68,200.56 -91.46,205.50 -89.35,210.20 -87.11,214.60 -85.43,219.08 -84.94,224.95" fill="none" stroke="#bcbcbc" stroke-width="8" stroke-linecap="round" stroke-linejoin="round" /><polyline points="-692.40,945.15 -688.80,943.19 -683.78,939.19 -681.26,934.01 -647.87,807.38 -646.86,800.24 -642.79,787.19" fill="none" stroke="#bcbcbc" stroke-width="8" stroke-linecap="round" stroke-linejoin="round" /><polyline points="475.25,746.99 479.99,762.03 483.33,777.82 476.83,838.01 469.33,883.28 465.24,898.72 464.86,900.12 461.28,908.46 456.38,917.29 444.96,931.74 450.49,960.00 432.59,1020.64 422.71,1054.14 402.50,1108.96 372.89,1175.71 336.74,1239.67 325.45,1260.46 305.04,1294.62 223.50,1410.36 205.63,1434.44 136.45,1524.86 96.73,1570.05 41.17,1626.52 36.02,1627.05 23.48,1637.31" fill="none" stroke="#bcbcbc" stroke-width="8" stroke-linecap="round" stroke-linejoin="round" /><polyline points="-530.94,1737.03 -508.18,1666.43 -504.46,1654.77 -499.40,1647.43 -488.53,1614.80 -484.99,1603.72 -440.08,1463.11 -435.56,1448.96 -431.84,1436.54 -378.84,1269.74" fill="none" stroke="#bcbcbc" stroke-width="8" stroke-linecap="round" stroke-linejoin="round" /><polyline points="2.31,424.04 21.99,402.54 27.79,395.54 67.55,339.23" fill="none" stroke="#bcbcbc" stroke-width="8" stroke-linecap="round" stroke-linejoin="round" /><polyline points="-391.00,432.56 -336.81,451.43 -333.82,456.29 -318.43,461.45 -309.30,464.57 -265.62,479.33" fill="none" stroke="#bcbcbc" stroke-width="8" stroke-linecap="round" stroke-linejoin="round" /><polyline points="81.32,57.54 106.38,149.68 135.40,258.21 139.80,267.26 140.50,277.58 160.17,314.32 213.27,413.35 224.88,430.47 228.24,435.49 307.58,583.81 344.04,616.96 349.15,623.57 356.36,629.73 425.59,688.93 430.29,692.94 442.72,699.55" fill="none" stroke="#bcbcbc" stroke-width="8" stroke-linecap="round" stroke-linejoin="round" /><polyline points="-187.92,1752.02 -15.27,1651.72 15.46,1636.01 23.48,1637.31" fill="none" stroke="#bcbcbc" stroke-width="8" stroke-linecap="round" stroke-linejoin="round" /><polyline points="-0.73,1608.54 9.98,1595.80 106.15,1403.91 112.52,1391.32 117.84,1378.87 148.91,1302.04 158.16,1278.90 184.93,1197.87 202.29,1093.69 204.35,1078.52" fill="none" stroke="#bcbcbc" stroke-width="8" stroke-linecap="round" stroke-linejoin="round" /><polyline points="-74.95,479.99 -76.63,481.71 -78.94,489.79 -79.18,490.59 -89.61,530.78 -86.87,541.27 -89.15,550.67 -92.13,562.99 -99.77,571.84 -108.44,606.94 -118.64,614.66 -129.54,622.13 -134.40,625.47" fill="none" stroke="#bcbcbc" stroke-width="8" stroke-linecap="round" stroke-linejoin="round" /><polyline points="-483.78,667.29 -479.35,655.92 -452.66,587.52 -446.85,572.61 -442.05,560.32 -407.96,472.98 -392.62,436.46 -391.00,432.56 -379.07,403.72 -352.31,337.27 -342.51,308.97 -340.33,302.49 -337.40,295.13" fill="none" stroke="#bcbcbc" stroke-width="8" stroke-linecap="round" stroke-linejoin="round" /><polyline points="-185.24,252.68 -180.08,268.03 -10.76,412.67 81.64,493.06 219.64,613.03 231.68,622.66 237.08,626.04 261.02,647.78 293.00,675.05 365.54,736.90 388.97,757.05 404.51,775.65" fill="none" stroke="#bcbcbc" stroke-width="8" stroke-linecap="round" stroke-linejoin="round" /><polyline points="94.72,3.46 103.31,-2.05 154.18,-23.19 164.64,-34.19" fill="none" stroke="#bcbcbc" stroke-width="8" stroke-linecap="round" stroke-linejoin="round" /><polyline points="153.48,1290.60 83.24,1269.90 -43.91,1232.50" fill="none" stroke="#bcbcbc" stroke-width="8" stroke-linecap="round" stroke-linejoin="round" /><polyline points="-73.26,-203.57 -63.67,-196.95 248.98,-127.38" fill="none" stroke="#bcbcbc" stroke-width="8" stroke-linecap="round" stroke-linejoin="round" /><polyline points="312.93,825.87 296.77,789.92 260.92,704.39 258.24,697.59 252.11,681.98 229.00,623.16 227.54,619.35" fill="none" stroke="#bcbcbc" stroke-width="8" stroke-linecap="round" stroke-linejoin="round" /><polyline points="-166.74,33.96 -184.09,29.02 -196.85,25.22 -222.77,17.53 -235.94,13.77 -243.49,11.67 -253.34,8.85" fill="none" stroke="#bcbcbc" stroke-width="8" stroke-linecap="round" stroke-linejoin="round" /><polyline points="-619.32,504.36 -620.19,501.49 -621.00,499.48 -624.58,490.59 -638.44,458.28 -651.61,425.46 -654.45,417.71 -657.73,408.78 -660.08,401.48 -663.95,390.53 -664.35,389.38 -676.95,358.32 -700.09,299.94 -705.29,296.98 -708.98,287.51 -716.36,261.87 -729.00,230.10 -731.72,222.88" fill="none" stroke="#bcbcbc" stroke-width="8" stroke-linecap="round" stroke-linejoin="round" /><polyline points="-508.18,1666.43 -495.04,1670.46 -452.54,1683.41 -439.22,1687.47" fill="none" stroke="#bcbcbc" stroke-width="8" stroke-linecap="round" stroke-linejoin="round" /><polyline points="285.62,18.75 288.10,8.73 287.09,4.92 285.88,0.33 278.12,-28.10 260.81,-88.21 251.68,-118.94 248.98,-127.38 224.85,-214.12 211.83,-260.90 198.31,-296.88 186.11,-329.34 173.95,-351.65 162.14,-363.44 71.47,-474.24 64.76,-482.13 60.32,-489.42" fill="none" stroke="#bcbcbc" stroke-width="8" stroke-linecap="round" stroke-linejoin="round" /><polyline points="-84.94,224.95 -89.62,226.74 -98.26,229.13 -99.13,229.36 -135.24,238.60 -176.76,250.29 -185.24,252.68 -189.01,253.88 -198.99,257.08 -207.51,259.46 -244.75,269.82 -305.98,287.21 -328.80,292.98 -337.40,295.13 -378.20,305.15 -403.41,312.17 -456.79,327.09 -509.55,341.96 -515.66,343.65 -559.75,355.89 -580.09,361.54 -590.36,366.39 -609.81,376.03 -648.42,395.63 -651.11,396.99 -660.08,401.48 -665.54,404.22 -673.17,408.22 -700.30,422.44 -749.73,450.18 -791.02,471.81 -796.93,474.90 -804.82,475.39 -809.56,477.91 -810.51,478.42 -855.30,502.97 -864.68,502.92 -875.45,508.56 -879.21,510.52 -882.38,512.19 -889.87,516.10 -895.77,529.56 -921.13,543.14 -929.19,547.46 -937.91,552.21 -973.18,571.40 -991.42,581.33 -1000.61,583.97" fill="none" stroke="#bcbcbc" stroke-width="8" stroke-linecap="round" stroke-linejoin="round" /><polyline points="422.71,1054.14 403.89,1055.86 345.09,1061.25 342.44,1061.49 338.69,1061.83 332.62,1062.39 275.62,1067.63 255.79,1065.79 232.70,1071.57 214.20,1076.11 204.35,1078.52 179.88,1079.45 158.69,1078.37 147.89,1077.23 138.70,1074.45 131.93,1070.70 106.72,1052.88 45.47,1010.81 39.70,1006.89 33.82,1002.90 29.42,998.65" fill="none" stroke="#bcbcbc" stroke-width="8" stroke-linecap="round" stroke-linejoin="round" /><polyline points="-964.55,343.86 -942.32,387.37 -938.96,399.81 -920.23,435.53 -912.50,445.75 -881.21,506.64 -879.21,510.52" fill="none" stroke="#bcbcbc" stroke-width="8" stroke-linecap="round" stroke-linejoin="round" /><polyline points="-283.46,730.82 -286.79,739.97 -287.72,742.81 -292.06,755.97 -319.56,832.69 -333.21,870.78 -333.67,872.08 -339.16,883.93 -342.30,890.96" fill="none" stroke="#bcbcbc" stroke-width="8" stroke-linecap="round" stroke-linejoin="round" /><polyline points="81.32,57.54 78.27,51.02 70.26,49.97 44.34,55.91 39.08,55.23 34.95,49.69 27.62,15.97 67.34,9.82 85.72,4.39 94.72,3.46 104.40,37.89" fill="none" stroke="#bcbcbc" stroke-width="8" stroke-linecap="round" stroke-linejoin="round" /><polyline points="224.88,430.47 235.11,424.73 286.50,393.76 300.24,385.58 324.28,371.24 363.83,345.67 373.06,339.03 442.44,295.99" fill="none" stroke="#bcbcbc" stroke-width="8" stroke-linecap="round" stroke-linejoin="round" /><polyline points="467.39,633.76 449.85,628.54 439.65,620.18 400.68,586.45 399.35,585.27 389.93,576.86 384.40,567.04 286.50,393.76" fill="none" stroke="#bcbcbc" stroke-width="8" stroke-linecap="round" stroke-linejoin="round" /><polyline points="-637.38,620.03 -483.78,667.29 -471.25,671.27 -356.63,707.60 -354.24,708.36 -337.07,713.81 -328.63,716.49 -317.66,719.48 -295.03,727.15 -283.46,730.82 -273.05,734.12 -187.75,761.18 -97.70,789.47 -90.26,791.81 -79.93,786.75" fill="none" stroke="#bcbcbc" stroke-width="8" stroke-linecap="round" stroke-linejoin="round" /><polyline points="-185.77,-138.28 -119.23,-199.42 -107.97,-209.77" fill="none" stroke="#bcbcbc" stroke-width="8" stroke-linecap="round" stroke-linejoin="round" /><polyline points="-1299.87,848.21 -1055.74,874.37" fill="none" stroke="#bcbcbc" stroke-width="8" stroke-linecap="round" stroke-linejoin="round" /><polyline points="-563.40,166.77 -512.09,148.42 -459.16,129.28 -426.28,116.50 -325.88,79.98 -296.73,69.90 -290.65,67.80 -283.35,65.29 -275.16,62.47 -274.15,62.12 -257.61,55.47 -250.42,52.58" fill="none" stroke="#bcbcbc" stroke-width="8" stroke-linecap="round" stroke-linejoin="round" /><polyline points="-218.77,1408.49 -170.47,1468.09 -140.89,1497.87 -128.09,1507.09 -109.96,1522.27 -92.94,1536.57 -78.31,1550.83 -77.95,1558.09" fill="none" stroke="#bcbcbc" stroke-width="8" stroke-linecap="round" stroke-linejoin="round" /><polyline points="-166.74,33.96 -147.80,-13.49 -117.16,-91.63 -73.26,-203.57 -51.56,-256.59 -19.24,-335.66 7.27,-400.43 12.02,-409.03 35.33,-447.14 36.83,-449.61 45.36,-466.38 60.32,-489.42 68.67,-502.27 80.49,-520.46" fill="none" stroke="#bcbcbc" stroke-width="8" stroke-linecap="round" stroke-linejoin="round" /><polyline points="-613.38,1302.80 -616.48,1305.28 -618.53,1308.24 -622.70,1320.55 -625.59,1329.44 -638.93,1369.33 -640.76,1375.08 -641.90,1378.65 -654.15,1375.14 -683.96,1365.15 -713.50,1355.24 -736.33,1353.95" fill="none" stroke="#bcbcbc" stroke-width="8" stroke-linecap="round" stroke-linejoin="round" /><polyline points="-1197.15,1580.36 -1148.47,1454.64 -1143.05,1440.95 -1138.19,1427.77 -1132.32,1411.84 -1125.13,1386.78 -1117.62,1355.64 -1114.54,1333.33 -1112.31,1317.12 -1109.16,1305.16 -1097.70,1215.26 -1084.32,1101.82 -1077.39,1047.73 -1069.67,984.20 -1055.74,874.37 -1053.53,855.70 -1039.45,740.85 -1039.44,734.45 -1036.33,700.37 -1027.36,628.39 -1025.10,615.83 -1022.76,608.79 -1019.09,601.03 -1015.52,595.01 -1007.64,586.48 -1000.59,584.06" fill="none" stroke="#bcbcbc" stroke-width="8" stroke-linecap="round" stroke-linejoin="round" /><polyline points="-134.40,625.47 -131.74,629.69 -122.81,643.62 -109.45,665.05 -106.23,670.16 -100.90,666.11 -75.04,646.48" fill="none" stroke="#bcbcbc" stroke-width="8" stroke-linecap="round" stroke-linejoin="round" /><polyline points="-117.16,-91.63 145.87,-44.07 173.49,-29.53 276.55,21.55 285.62,18.74" fill="none" stroke="#bcbcbc" stroke-width="8" stroke-linecap="round" stroke-linejoin="round" /><polyline points="-619.32,504.36 -623.98,511.17 -665.94,531.65 -696.76,570.83 -730.02,591.42 -752.77,608.60 -774.47,626.30 -785.59,636.44 -805.24,661.37 -827.22,692.87 -830.84,698.70" fill="none" stroke="#bcbcbc" stroke-width="8" stroke-linecap="round" stroke-linejoin="round" /><polyline points="-574.95,532.47 -576.77,536.51 -580.75,542.33 -588.27,551.58 -632.59,607.58 -656.05,670.74 -774.41,626.25" fill="none" stroke="#bcbcbc" stroke-width="8" stroke-linecap="round" stroke-linejoin="round" /><polyline points="-752.77,608.60 -757.35,594.72 -777.16,534.75 -784.85,522.90 -797.72,484.28 -798.83,480.95 -796.93,474.90 -800.02,465.06 -861.91,267.43" fill="none" stroke="#bcbcbc" stroke-width="8" stroke-linecap="round" stroke-linejoin="round" /><polyline points="-27.54,-469.74 21.37,-468.45 23.66,-468.38 33.03,-468.12 45.36,-466.38" fill="none" stroke="#bcbcbc" stroke-width="8" stroke-linecap="round" stroke-linejoin="round" /><polyline points="-279.14,1123.75 -295.84,1123.55 -437.26,1142.54 -447.46,1143.61 -459.11,1144.84 -526.79,1151.98 -617.96,1161.61 -666.30,1166.71 -693.04,1169.53 -714.75,1172.17 -725.89,1173.53 -738.45,1175.05 -799.11,1182.42 -813.65,1184.19 -858.44,1189.09 -1097.70,1215.26" fill="none" stroke="#bcbcbc" stroke-width="8" stroke-linecap="round" stroke-linejoin="round" /><polyline points="-488.53,1614.80 -501.05,1610.77 -559.57,1591.93 -571.40,1588.12 -581.67,1584.82 -643.66,1564.89 -655.88,1560.97 -672.05,1555.76 -770.74,1524.00 -781.85,1520.43" fill="none" stroke="#bcbcbc" stroke-width="8" stroke-linecap="round" stroke-linejoin="round" /><polyline points="-243.84,430.01 -209.81,440.61 -85.34,479.05 -84.17,479.41 -74.95,479.99" fill="none" stroke="#bcbcbc" stroke-width="8" stroke-linecap="round" stroke-linejoin="round" /><polyline points="106.38,149.68 275.70,152.66" fill="none" stroke="#bcbcbc" stroke-width="8" stroke-linecap="round" stroke-linejoin="round" /><polyline points="23.48,1637.31 -0.73,1608.54 -10.88,1596.73 -19.61,1588.57 -31.23,1579.90 -54.97,1565.65 -77.95,1558.09 -124.70,1543.65 -162.94,1531.52 -140.89,1497.87" fill="none" stroke="#bcbcbc" stroke-width="8" stroke-linecap="round" stroke-linejoin="round" /><polyline points="-218.77,1408.49 -252.48,1366.89 -258.89,1358.98 -292.84,1312.21 -300.52,1297.93 -298.68,1280.93 -288.44,1280.83 -263.19,1285.69 -224.77,1293.08" fill="none" stroke="#bcbcbc" stroke-width="8" stroke-linecap="round" stroke-linejoin="round" /><polyline points="-659.67,1075.17 -653.46,1088.54 -617.96,1161.61 -565.18,1270.27 -558.45,1284.13" fill="none" stroke="#bcbcbc" stroke-width="8" stroke-linecap="round" stroke-linejoin="round" /><polyline points="-1228.19,1406.14 -1215.49,1411.34 -1156.03,1435.65 -1143.05,1440.95 -1129.40,1446.54 -1059.39,1475.16 -1046.73,1480.34" fill="none" stroke="#bcbcbc" stroke-width="8" stroke-linecap="round" stroke-linejoin="round" /><polyline points="-630.46,966.82 -506.58,1021.02" fill="none" stroke="#bcbcbc" stroke-width="8" stroke-linecap="round" stroke-linejoin="round" /><polyline points="-74.95,479.99 -56.08,480.98 -54.87,482.05 -46.41,489.56 -33.96,500.67 -31.67,505.13 11.22,542.69 14.39,548.69 44.55,575.30 52.14,577.62 75.60,598.16 80.86,600.56 116.23,630.58 124.11,637.56 128.46,644.48" fill="none" stroke="#bcbcbc" stroke-width="8" stroke-linecap="round" stroke-linejoin="round" /><polyline points="-1263.15,966.94 -1069.67,984.20" fill="none" stroke="#bcbcbc" stroke-width="8" stroke-linecap="round" stroke-linejoin="round" /><polyline points="-831.14,1687.46 -825.14,1674.69 -823.60,1669.02 -815.20,1638.03 -784.76,1530.70 -781.85,1520.43 -778.77,1509.16 -764.98,1458.73 -741.69,1373.58 -736.33,1353.95" fill="none" stroke="#bcbcbc" stroke-width="8" stroke-linecap="round" stroke-linejoin="round" /><polyline points="-659.67,1075.17 -630.46,966.82 -692.40,945.15 -708.61,954.73 -716.01,960.35 -721.48,967.75 -725.33,977.53 -739.58,1030.18 -728.09,1036.03 -716.48,1038.85 -690.80,1045.53 -671.59,1051.65 -659.67,1075.17" fill="none" stroke="#bcbcbc" stroke-width="8" stroke-linecap="round" stroke-linejoin="round" /><polyline points="-739.58,1030.18 -753.14,1028.29 -1069.67,984.20" fill="none" stroke="#bcbcbc" stroke-width="8" stroke-linecap="round" stroke-linejoin="round" /><polyline points="-224.77,1293.08 -195.41,1299.49 -116.01,1324.73 -93.81,1331.75 -41.12,1346.97 11.97,1362.28 51.27,1373.64 114.12,1391.78 127.10,1395.54 158.82,1406.17 211.04,1420.08 215.65,1420.94" fill="none" stroke="#bcbcbc" stroke-width="8" stroke-linecap="round" stroke-linejoin="round" /><polyline points="-187.53,1751.79 -198.24,1754.48 -209.83,1786.76 -227.79,1781.66 -309.45,1753.83 -319.28,1751.73 -341.15,1750.17 -440.05,1750.56 -461.85,1747.79 -511.08,1740.26 -530.94,1737.03 -671.80,1714.31 -726.34,1705.61 -830.36,1687.59 -847.16,1684.26 -1081.92,1618.64 -1096.73,1614.49 -1197.15,1580.36 -1221.86,1571.60 -1283.57,1546.02 -1318.75,1532.71" fill="none" stroke="#bcbcbc" stroke-width="8" stroke-linecap="round" stroke-linejoin="round" /><polyline points="27.62,15.97 17.45,13.88 -118.23,29.92 -166.74,33.96" fill="none" stroke="#bcbcbc" stroke-width="8" stroke-linecap="round" stroke-linejoin="round" /><polyline points="-224.77,1293.08 -220.02,1285.12 -191.55,1211.99 -159.73,1101.42 -151.62,1077.60 -147.28,1071.12 -116.56,972.53 -115.04,960.75 -113.87,953.06" fill="none" stroke="#bcbcbc" stroke-width="8" stroke-linecap="round" stroke-linejoin="round" /><polyline points="-84.94,224.95 -81.70,223.71 -77.31,220.22 -70.63,212.42 16.00,88.10 39.07,55.23" fill="none" stroke="#bcbcbc" stroke-width="8" stroke-linecap="round" stroke-linejoin="round" /><polyline points="300.64,681.61 302.41,676.51 345.96,625.27 349.15,623.57 356.72,613.21 382.05,584.11 389.93,576.86" fill="none" stroke="#bcbcbc" stroke-width="8" stroke-linecap="round" stroke-linejoin="round" /><polyline points="338.69,1061.83 338.09,1054.98 337.62,1049.68 335.33,1039.54 332.59,1032.92 329.16,1015.54 328.85,1009.25 326.53,995.18 316.17,989.77 307.89,992.94 293.06,996.49 281.32,998.32 270.06,1001.04 254.52,1004.58 247.44,1006.20" fill="none" stroke="#bcbcbc" stroke-width="8" stroke-linecap="round" stroke-linejoin="round" /><polyline points="-805.44,810.21 -773.77,735.96 -772.01,731.14" fill="none" stroke="#bcbcbc" stroke-width="8" stroke-linecap="round" stroke-linejoin="round" /><polyline points="29.23,674.06 44.50,668.15 52.48,665.06 58.65,658.81 84.10,652.54 92.64,654.71 111.06,649.97 125.11,646.35 128.46,644.48 142.08,641.14 211.75,624.07 227.54,619.35" fill="none" stroke="#bcbcbc" stroke-width="8" stroke-linecap="round" stroke-linejoin="round" /><polyline points="-613.38,1302.80 -580.51,1290.87 -569.52,1287.51 -558.45,1284.13 -538.03,1277.89 -522.14,1275.60 -467.87,1269.67 -456.97,1269.07 -408.42,1269.49 -378.84,1269.74 -367.72,1269.17 -349.91,1270.97 -344.33,1271.77 -332.98,1273.40 -298.68,1280.93" fill="none" stroke="#bcbcbc" stroke-width="8" stroke-linecap="round" stroke-linejoin="round" /><polyline points="-456.79,327.09 -462.24,308.68 -482.46,240.30 -507.02,162.34 -512.09,148.42 -517.24,135.37 -523.75,116.58" fill="none" stroke="#bcbcbc" stroke-width="8" stroke-linecap="round" stroke-linejoin="round" /><polyline points="-515.61,1429.55 -511.29,1415.91 -467.60,1278.14 -467.87,1269.67" fill="none" stroke="#bcbcbc" stroke-width="8" stroke-linecap="round" stroke-linejoin="round" /><polyline points="-456.97,1269.07 -448.32,1153.07 -447.46,1143.61 -446.13,1132.60 -446.11,1132.11 -445.54,1118.65 -442.66,1082.14 -441.03,1065.13 -438.80,1045.81 -436.77,1031.90 -434.96,1023.16 -432.66,1016.56 -428.17,1001.69 -418.89,970.72 -407.09,930.73 -394.08,889.85 -391.43,881.51 -389.30,875.47" fill="none" stroke="#bcbcbc" stroke-width="8" stroke-linecap="round" stroke-linejoin="round" /><polyline points="-739.58,1030.18 -741.88,1040.46 -741.48,1043.75 -727.39,1161.10 -725.89,1173.53 -726.54,1186.31 -730.24,1259.30 -731.78,1289.79 -732.57,1305.52 -733.99,1333.55 -734.73,1348.15 -736.33,1353.95" fill="none" stroke="#bcbcbc" stroke-width="8" stroke-linecap="round" stroke-linejoin="round" /><polyline points="-805.44,810.21 -856.69,794.98 -863.20,790.80 -895.09,781.51 -904.06,781.60 -944.13,769.53 -950.60,764.75 -987.07,753.70 -1031.81,741.50 -1032.03,741.48 -1039.45,740.85" fill="none" stroke="#bcbcbc" stroke-width="8" stroke-linecap="round" stroke-linejoin="round" /><polyline points="128.46,644.48 130.24,646.82 137.67,657.89 151.40,678.37 164.34,691.32 189.19,719.23 184.99,745.02 182.86,754.69 179.89,758.78 186.13,768.00 195.77,787.85 215.04,825.02 224.53,843.33 230.42,859.78 233.09,867.42" fill="none" stroke="#bcbcbc" stroke-width="8" stroke-linecap="round" stroke-linejoin="round" /><polyline points="258.24,697.60 251.10,699.82 204.04,714.46 197.29,716.63 189.19,719.23" fill="none" stroke="#bcbcbc" stroke-width="8" stroke-linecap="round" stroke-linejoin="round" /><polyline points="-79.93,786.75 -65.22,781.97 41.60,727.43 55.90,720.44 106.24,705.90 155.06,692.18 164.34,691.32" fill="none" stroke="#bcbcbc" stroke-width="8" stroke-linecap="round" stroke-linejoin="round" /><polyline points="-68.29,854.27 54.85,796.96 60.04,793.53 72.08,790.03 154.14,766.15 166.58,761.38 179.89,758.78" fill="none" stroke="#bcbcbc" stroke-width="8" stroke-linecap="round" stroke-linejoin="round" /><polyline points="-93.42,-347.19 -43.57,-341.03 -38.57,-340.41 -19.24,-335.66" fill="none" stroke="#bcbcbc" stroke-width="8" stroke-linecap="round" stroke-linejoin="round" /><polyline points="332.57,159.65 341.41,157.80 374.45,173.99 378.80,178.30 440.80,283.26 442.44,295.99 450.50,302.71 449.22,307.35 449.02,314.92 450.14,325.49 466.56,392.99 468.01,439.74 470.32,514.39 474.18,614.86 458.45,658.64 448.32,685.33 433.53,722.94 429.25,733.82 426.47,736.85 422.00,765.96" fill="none" stroke="#bcbcbc" stroke-width="8" stroke-linecap="round" stroke-linejoin="round" /><polyline points="447.21,943.27 432.13,936.71 394.45,910.40 344.73,875.47 317.38,853.35 298.93,833.59" fill="none" stroke="#bcbcbc" stroke-width="8" stroke-linecap="round" stroke-linejoin="round" /><polyline points="-162.94,1531.52 -177.75,1526.82 -201.78,1519.20 -213.25,1515.57 -226.72,1511.29 -243.74,1505.90 -259.13,1501.02 -274.34,1496.19 -342.18,1474.66 -354.06,1470.89 -368.82,1466.22 -372.08,1465.19 -410.87,1454.94 -421.83,1452.29 -435.56,1448.96 -449.93,1445.48 -501.72,1432.92 -515.61,1429.55 -530.53,1424.37 -561.71,1413.54 -573.46,1409.46 -583.97,1406.05 -632.79,1388.69 -638.94,1385.02 -641.90,1378.65" fill="none" stroke="#bcbcbc" stroke-width="8" stroke-linecap="round" stroke-linejoin="round" /><polyline points="60.04,793.53 56.44,780.64 45.72,742.21 41.60,727.43 35.64,716.38 35.09,714.33 31.58,701.32 35.67,695.56 30.75,679.16 29.23,674.06" fill="none" stroke="#bcbcbc" stroke-width="8" stroke-linecap="round" stroke-linejoin="round" /><polyline points="42.12,323.22 52.31,318.42 107.97,287.73 139.80,267.26 162.24,251.95 167.20,248.25 185.26,235.70 203.98,221.87 215.84,213.24 229.97,202.91 279.08,180.75 285.45,181.08 294.76,176.68 332.57,159.65" fill="none" stroke="#bcbcbc" stroke-width="8" stroke-linecap="round" stroke-linejoin="round" /><polyline points="-574.95,532.47 -566.92,535.72 -561.61,537.36 -462.05,567.94 -446.85,572.61" fill="none" stroke="#bcbcbc" stroke-width="8" stroke-linecap="round" stroke-linejoin="round" /><polyline points="-1286.07,756.36 -1357.20,734.83" fill="none" stroke="#bcbcbc" stroke-width="8" stroke-linecap="round" stroke-linejoin="round" /><polyline points="-137.14,-246.72 -119.50,-224.38 -116.87,-221.05 -107.97,-209.77 -97.82,-208.58 -76.97,-206.13 -73.26,-203.57" fill="none" stroke="#bcbcbc" stroke-width="8" stroke-linecap="round" stroke-linejoin="round" /><polyline points="475.25,746.99 447.31,752.21 418.65,767.78 392.09,782.56 366.97,795.12 336.62,811.61 314.63,824.96 271.19,848.25 101.62,933.57 57.66,952.93 28.61,965.49 14.22,970.21 2.31,972.43 -17.18,973.61 -44.92,969.68 -114.14,953.06 -212.40,930.16 -341.67,891.17 -389.30,875.47 -467.28,851.39 -541.86,826.79 -651.24,783.87 -705.94,760.32 -771.88,731.01 -881.26,671.08 -906.91,654.07 -971.81,613.24 -999.02,586.03 -1039.85,533.16 -1107.10,463.82 -1133.53,440.53" fill="none" stroke="#bcbcbc" stroke-width="8" stroke-linecap="round" stroke-linejoin="round" /><polyline points="-54.97,1565.65 -53.83,1559.26 -49.69,1548.81 -10.90,1458.04 3.75,1424.02 21.02,1381.62 25.23,1366.11" fill="none" stroke="#bcbcbc" stroke-width="8" stroke-linecap="round" stroke-linejoin="round" /><polyline points="-799.11,1182.42 -843.17,1161.10 -943.43,1112.57 -1066.42,1053.05 -1077.39,1047.73" fill="none" stroke="#bcbcbc" stroke-width="8" stroke-linecap="round" stroke-linejoin="round" /><polyline points="-74.95,479.99 -63.82,468.59 -34.24,438.31 -10.76,412.67" fill="none" stroke="#bcbcbc" stroke-width="8" stroke-linecap="round" stroke-linejoin="round" /><polyline points="-929.19,547.46 -941.41,531.27 -998.69,455.43 -1080.45,389.27" fill="none" stroke="#bcbcbc" stroke-width="8" stroke-linecap="round" stroke-linejoin="round" /><polyline points="-1284.01,1545.84 -1272.83,1519.32 -1237.28,1430.68 -1232.97,1419.05 -1228.19,1406.14 -1226.37,1401.49 -1225.89,1394.19 -1221.34,1325.29 -1220.04,1305.52" fill="none" stroke="#bcbcbc" stroke-width="8" stroke-linecap="round" stroke-linejoin="round" /><polyline points="-1308.26,833.34 -1286.07,756.36 -1256.79,654.83 -1253.16,642.26 -1249.13,627.99 -1240.11,596.02 -1239.16,592.66 -1236.58,582.38 -1232.46,570.76 -1231.46,567.95 -1226.25,555.05 -1216.04,532.51 -1212.98,526.03" fill="none" stroke="#bcbcbc" stroke-width="8" stroke-linecap="round" stroke-linejoin="round" /><polyline points="-1253.16,642.26 -1208.26,653.75 -1113.14,678.20 -1058.94,695.07 -1036.33,700.37" fill="none" stroke="#bcbcbc" stroke-width="8" stroke-linecap="round" stroke-linejoin="round" /><polyline points="-328.80,292.98 -327.28,283.64 -325.74,273.93 -319.15,241.48 -302.69,165.92 -289.18,98.34 -286.71,84.32 -283.35,65.29 -283.35,65.27" fill="none" stroke="#bcbcbc" stroke-width="8" stroke-linecap="round" stroke-linejoin="round" /><polyline points="-461.76,1747.80 -441.71,1696.66 -439.22,1687.47 -359.65,1485.47 -354.06,1470.89 -349.54,1458.53 -301.99,1320.20 -292.84,1312.21" fill="none" stroke="#bcbcbc" stroke-width="8" stroke-linecap="round" stroke-linejoin="round" /><polyline points="-189.01,253.88 -189.02,253.86 -191.83,239.06 -192.28,237.27 -199.15,209.31 -199.15,209.22 -203.83,190.27 -223.69,122.22 -226.19,114.93 -239.60,78.47 -243.96,67.59 -246.77,60.57 -250.42,52.60 -250.42,52.58 -250.43,52.55 -253.09,23.24 -253.34,8.85" fill="none" stroke="#bcbcbc" stroke-width="8" stroke-linecap="round" stroke-linejoin="round" /><polyline points="-218.77,1408.50 -223.88,1414.01 -231.49,1423.07 -252.93,1483.52 -259.13,1501.02" fill="none" stroke="#bcbcbc" stroke-width="8" stroke-linecap="round" stroke-linejoin="round" /><polyline points="-574.95,532.47 -572.02,524.53 -571.36,522.69 -557.44,483.80 -552.22,467.42 -509.55,341.96" fill="none" stroke="#bcbcbc" stroke-width="8" stroke-linecap="round" stroke-linejoin="round" /><polyline points="-354.24,708.36 -349.89,696.80 -338.10,665.48 -333.11,652.24 -329.74,643.27 -320.28,618.14 -314.03,601.54 -313.19,599.31 -298.05,559.09 -291.72,561.05 -288.29,551.71 -282.22,535.19 -283.38,527.69 -267.27,483.83 -265.62,479.33 -262.56,476.52 -260.00,474.16 -243.84,430.01 -241.51,417.92 -218.33,353.52 -212.85,349.24 -201.70,317.69 -203.69,312.85 -193.92,283.39 -198.99,257.08" fill="none" stroke="#bcbcbc" stroke-width="8" stroke-linecap="round" stroke-linejoin="round" /><polyline points="60.32,-489.42 53.82,-500.07 19.70,-556.05" fill="none" stroke="#bcbcbc" stroke-width="8" stroke-linecap="round" stroke-linejoin="round" /><polyline points="104.40,37.89 271.01,121.53 276.04,125.28 275.70,152.66 279.08,180.75" fill="none" stroke="#bcbcbc" stroke-width="8" stroke-linecap="round" stroke-linejoin="round" /><polyline points="-213.25,1515.57 -219.24,1533.85 -243.52,1607.89 -284.81,1732.58 -287.74,1741.43 -290.71,1750.39 -291.53,1759.94" fill="none" stroke="#bcbcbc" stroke-width="8" stroke-linecap="round" stroke-linejoin="round" /><polyline points="255.79,1065.79 256.78,1056.50 257.00,1047.83 256.93,1047.53 251.02,1022.01 248.60,1011.34 247.44,1006.20 246.24,1000.94 239.76,972.39 227.10,915.33 217.90,881.02 216.60,875.72" fill="none" stroke="#bcbcbc" stroke-width="8" stroke-linecap="round" stroke-linejoin="round" /><polyline points="-571.40,1588.12 -567.27,1576.39 -520.87,1444.52 -515.61,1429.55" fill="none" stroke="#bcbcbc" stroke-width="8" stroke-linecap="round" stroke-linejoin="round" /><polyline points="470.32,514.39 456.67,510.54 363.97,368.29 352.80,352.80" fill="none" stroke="#bcbcbc" stroke-width="8" stroke-linecap="round" stroke-linejoin="round" /><polyline points="-1053.53,855.70 -715.69,936.64 -692.40,945.15" fill="none" stroke="#bcbcbc" stroke-width="8" stroke-linecap="round" stroke-linejoin="round" /><polyline points="12.02,-409.03 143.61,-360.28 162.14,-363.44" fill="none" stroke="#bcbcbc" stroke-width="8" stroke-linecap="round" stroke-linejoin="round" />
    <polyline points="167.20,248.25 323.79,348.96 323.84,349.02 323.84,349.04 352.80,352.80" fill="none" stroke="#ffffff" stroke-width="16" stroke-linecap="round" stroke-linejoin="round" />
    <polyline points="167.20,248.25 323.79,348.96 323.84,349.02 323.84,349.04 352.80,352.80" fill="none" stroke="#111111" stroke-width="9" stroke-linecap="round" stroke-linejoin="round" />
    
            <g transform="translate(167.20,248.25)">
              <circle r="19" fill="#ffffff" stroke="#111111" stroke-width="4" />
              <text text-anchor="middle" dominant-baseline="central" font-family="Helvetica, Arial, sans-serif"
                font-size="18" font-weight="700" fill="#111111">1</text>
            </g>
            
            <g transform="translate(352.80,352.80)">
              <circle r="19" fill="#ffffff" stroke="#111111" stroke-width="4" />
              <text text-anchor="middle" dominant-baseline="central" font-family="Helvetica, Arial, sans-serif"
                font-size="18" font-weight="700" fill="#111111">2</text>
            </g>
            
  </g>
</svg>
