<svg xmlns="http://www.w3.org/2000/svg" width="520" height="520" viewBox="0 0 520 520">
  <rect width="100%" height="100%" fill="#ffffff" />
  <g>
    <polyline points="409.64,330.38 412.96,348.06 434.41,498.10 431.13,535.62" fill="none" stroke="#bcbcbc" stroke-width="8" stroke-linecap="round" stroke-linejoin="round" /><polyline points="-26.28,1580.74 -21.10,1564.80 6.38,1480.30 9.62,1470.34 12.89,1459.89 81.97,1239.58 87.53,1221.86 74.81,1190.52" fill="none" stroke="#bcbcbc" stroke-width="8" stroke-linecap="round" stroke-linejoin="round" /><polyline points="-503.45,1384.79 -504.57,1372.13 -481.98,1245.63 -478.82,1229.81 -476.45,1221.52 -470.23,1189.44 -463.25,1150.17 -455.64,1115.59 -448.09,1081.09 -443.33,1071.36 -440.22,1065.39" fill="none" stroke="#bcbcbc" stroke-width="8" stroke-linecap="round" stroke-linejoin="round" /><polyline points="-372.36,492.45 -377.73,476.07 -433.23,306.79 -435.94,299.69" fill="none" stroke="#bcbcbc" stroke-width="8" stroke-linecap="round" stroke-linejoin="round" /><polyline points="-657.15,1982.36 -655.49,1966.20 -654.82,1958.79 -648.78,1891.95 -642.16,1833.10 -640.62,1819.35 -639.18,1802.87 -639.02,1801.48 -635.27,1768.70 -632.04,1735.38 -628.48,1703.23 -626.08,1678.20 -625.08,1662.75 -624.20,1648.48 -622.62,1632.41" fill="none" stroke="#bcbcbc" stroke-width="8" stroke-linecap="round" stroke-linejoin="round" /><polyline points="109.74,1620.02 113.70,1607.59 141.55,1520.03 144.71,1510.08 149.21,1495.91 152.43,1485.75 177.08,1379.43" fill="none" stroke="#bcbcbc" stroke-width="8" stroke-linecap="round" stroke-linejoin="round" /><polyline points="1.48,-111.90 11.77,-110.32 295.18,-66.77" fill="none" stroke="#bcbcbc" stroke-width="8" stroke-linecap="round" stroke-linejoin="round" /><polyline points="-726.09,1599.39 -755.59,1598.01 -773.58,1597.18 -783.35,1596.72 -791.93,1596.32 -858.73,1593.22 -951.64,1588.90 -995.92,1582.62 -1010.74,1580.51 -1023.61,1578.24 -1110.71,1562.87 -1122.89,1560.72 -1125.58,1560.26 -1140.62,1557.68 -1152.18,1555.70 -1225.99,1549.17 -1240.04,1547.93 -1245.20,1547.47 -1261.16,1546.37 -1292.40,1544.20" fill="none" stroke="#bcbcbc" stroke-width="8" stroke-linecap="round" stroke-linejoin="round" /><polyline points="-297.53,1513.80 -291.81,1497.53 -240.32,1354.79 -178.38,1174.75 -174.42,1163.46 -171.65,1155.57 -169.41,1149.09" fill="none" stroke="#bcbcbc" stroke-width="8" stroke-linecap="round" stroke-linejoin="round" /><polyline points="-1245.20,1547.47 -1246.52,1538.30 -1246.83,1528.33 -1244.87,1508.26 -1240.39,1471.60 -1237.40,1459.30 -1232.55,1414.82 -1231.66,1404.92 -1230.24,1392.18 -1229.19,1382.72 -1227.20,1372.00 -1223.51,1343.15 -1220.95,1321.08 -1217.18,1312.06" fill="none" stroke="#bcbcbc" stroke-width="8" stroke-linecap="round" stroke-linejoin="round" /><polyline points="-1297.90,1300.78 -1229.22,1310.38 -1217.18,1312.06 -1209.73,1313.25 -1178.94,1318.15 -1108.01,1329.45 -1095.84,1331.48" fill="none" stroke="#bcbcbc" stroke-width="8" stroke-linecap="round" stroke-linejoin="round" /><polyline points="-33.99,399.77 -33.54,406.01 -32.62,412.34 -30.39,417.18 -26.21,422.58 -18.49,429.61 -0.18,440.74 141.02,529.34 227.99,645.94 293.67,808.07 297.96,818.78" fill="none" stroke="#bcbcbc" stroke-width="8" stroke-linecap="round" stroke-linejoin="round" /><polyline points="-56.60,872.83 -53.67,877.67 -52.91,878.93 -50.49,891.16 -33.92,971.27 -28.66,996.70 -24.90,1014.82 -19.03,1051.52 -16.29,1068.46 -14.40,1078.79 -12.33,1088.11 -9.86,1093.56 -6.24,1099.86 -4.30,1102.83 32.39,1155.36 52.24,1186.61 57.41,1194.08" fill="none" stroke="#bcbcbc" stroke-width="8" stroke-linecap="round" stroke-linejoin="round" /><polyline points="-1109.87,1875.99 -1107.92,1863.97 -1106.10,1855.28 -1105.62,1854.12 -1081.20,1796.06 -1065.64,1758.32 -1060.91,1746.36 -1055.90,1733.69 -1050.46,1722.80 -1049.58,1720.67 -1042.14,1702.67 -1036.38,1686.75 -1031.44,1672.14 -1028.31,1661.81 -1024.79,1649.05 -1020.74,1631.94 -1017.67,1618.06 -1013.99,1598.69 -1013.22,1594.37 -1010.74,1580.51" fill="none" stroke="#bcbcbc" stroke-width="8" stroke-linecap="round" stroke-linejoin="round" /><polyline points="73.27,254.36 151.14,308.78 161.63,311.00 169.30,319.79" fill="none" stroke="#bcbcbc" stroke-width="8" stroke-linecap="round" stroke-linejoin="round" /><polyline points="-253.68,756.89 -243.39,760.85 -198.72,775.47 -95.08,815.21 -89.27,821.01 -86.54,825.34" fill="none" stroke="#bcbcbc" stroke-width="8" stroke-linecap="round" stroke-linejoin="round" /><polyline points="-60.57,1778.24 -53.51,1759.84 -18.67,1665.31 5.97,1593.89 11.07,1591.54" fill="none" stroke="#bcbcbc" stroke-width="8" stroke-linecap="round" stroke-linejoin="round" /><polyline points="-553.05,1658.37 -547.55,1646.22 -547.00,1645.02 -537.60,1613.46 -522.19,1561.52 -518.24,1548.23 -515.18,1537.90 -514.77,1531.89 -515.39,1518.57" fill="none" stroke="#bcbcbc" stroke-width="8" stroke-linecap="round" stroke-linejoin="round" /><polyline points="87.33,876.97 78.49,878.80 58.48,875.24 55.38,866.98 20.70,853.75 12.49,855.90 -18.80,844.41 -23.46,847.67" fill="none" stroke="#bcbcbc" stroke-width="8" stroke-linecap="round" stroke-linejoin="round" /><polyline points="35.83,-195.91 51.55,-192.06 60.24,-190.56 266.98,-154.70" fill="none" stroke="#bcbcbc" stroke-width="8" stroke-linecap="round" stroke-linejoin="round" /><polyline points="-124.85,1720.67 -116.26,1696.42 -99.54,1649.30 -88.74,1629.22 -73.20,1585.71 -67.00,1568.34" fill="none" stroke="#bcbcbc" stroke-width="8" stroke-linecap="round" stroke-linejoin="round" /><polyline points="-1257.62,779.56 -1272.60,778.87 -1276.35,783.43 -1302.44,815.13 -1393.63,920.48 -1406.45,935.29" fill="none" stroke="#bcbcbc" stroke-width="8" stroke-linecap="round" stroke-linejoin="round" /><polyline points="-457.76,869.78 -464.37,884.42 -465.17,886.19 -488.13,946.08 -511.28,1012.01 -517.46,1029.59 -520.96,1038.67" fill="none" stroke="#bcbcbc" stroke-width="8" stroke-linecap="round" stroke-linejoin="round" /><polyline points="-120.89,196.83 -113.60,206.73 -108.38,220.35 -100.28,239.88 -87.27,270.61 -75.74,298.20 -62.52,328.49 -52.71,351.83 -51.25,355.18 -51.17,355.39 -43.27,373.85 -40.91,379.10 -38.66,384.10 -36.29,388.78 -34.50,393.53 -33.99,399.77" fill="none" stroke="#bcbcbc" stroke-width="8" stroke-linecap="round" stroke-linejoin="round" /><polyline points="-679.42,1165.02 -675.60,1162.93 -670.26,1158.68 -667.58,1153.18 -632.10,1018.63 -631.03,1011.04 -626.70,997.18" fill="none" stroke="#bcbcbc" stroke-width="8" stroke-linecap="round" stroke-linejoin="round" /><polyline points="561.24,954.46 566.27,970.44 569.81,987.22 562.92,1051.17 554.95,1099.28 550.59,1115.69 550.20,1117.17 546.39,1126.03 541.19,1135.42 529.05,1150.77 534.93,1180.79 515.91,1245.23 505.41,1280.82 483.93,1339.07 452.47,1410.00 414.07,1477.96 402.07,1500.06 380.39,1536.35 293.74,1659.33 274.76,1684.91 201.25,1780.98 159.04,1829.00 100.01,1889.01 94.55,1889.57 81.21,1900.47" fill="none" stroke="#bcbcbc" stroke-width="8" stroke-linecap="round" stroke-linejoin="round" /><polyline points="-507.87,2006.43 -483.68,1931.42 -479.73,1919.03 -474.35,1911.23 -462.80,1876.56 -459.04,1864.78 -411.32,1715.37 -406.52,1700.35 -402.57,1687.14 -346.26,1509.91" fill="none" stroke="#bcbcbc" stroke-width="8" stroke-linecap="round" stroke-linejoin="round" /><polyline points="58.72,611.31 79.63,588.47 85.80,581.03 128.04,521.19" fill="none" stroke="#bcbcbc" stroke-width="8" stroke-linecap="round" stroke-linejoin="round" /><polyline points="-359.18,620.37 -301.60,640.41 -298.42,645.58 -282.07,651.06 -272.37,654.38 -225.96,670.06" fill="none" stroke="#bcbcbc" stroke-width="8" stroke-linecap="round" stroke-linejoin="round" /><polyline points="142.68,221.89 169.30,319.79 200.14,435.11 204.81,444.72 205.55,455.70 226.46,494.73 282.88,599.95 295.21,618.15 298.78,623.47 383.08,781.08 421.82,816.30 427.25,823.32 434.91,829.87 508.47,892.77 513.46,897.04 526.67,904.05" fill="none" stroke="#bcbcbc" stroke-width="8" stroke-linecap="round" stroke-linejoin="round" /><polyline points="-143.40,2022.36 40.05,1915.79 72.70,1899.09 81.21,1900.47" fill="none" stroke="#bcbcbc" stroke-width="8" stroke-linecap="round" stroke-linejoin="round" /><polyline points="55.50,1869.90 66.88,1856.37 169.06,1652.47 175.83,1639.10 181.48,1625.86 214.49,1544.24 224.32,1519.64 252.77,1433.54 271.21,1322.84 273.40,1306.73" fill="none" stroke="#bcbcbc" stroke-width="8" stroke-linecap="round" stroke-linejoin="round" /><polyline points="-23.36,670.76 -25.15,672.59 -27.61,681.17 -27.86,682.02 -38.95,724.73 -36.03,735.87 -38.46,745.87 -41.62,758.95 -49.73,768.35 -58.95,805.66 -69.79,813.85 -81.37,821.79 -86.54,825.34" fill="none" stroke="#bcbcbc" stroke-width="8" stroke-linecap="round" stroke-linejoin="round" /><polyline points="-457.76,869.78 -453.05,857.70 -424.70,785.02 -418.52,769.17 -413.42,756.12 -377.20,663.31 -360.89,624.51 -359.18,620.37 -346.50,589.72 -318.07,519.11 -307.65,489.05 -305.34,482.16 -302.22,474.34" fill="none" stroke="#bcbcbc" stroke-width="8" stroke-linecap="round" stroke-linejoin="round" /><polyline points="-140.55,429.23 -135.07,445.55 44.84,599.23 143.01,684.65 289.64,812.12 302.44,822.36 308.17,825.94 333.61,849.04 367.59,878.03 444.66,943.75 469.56,965.15 486.07,984.91" fill="none" stroke="#bcbcbc" stroke-width="8" stroke-linecap="round" stroke-linejoin="round" /><polyline points="156.91,164.42 166.04,158.57 220.09,136.10 231.20,124.41" fill="none" stroke="#bcbcbc" stroke-width="8" stroke-linecap="round" stroke-linejoin="round" /><polyline points="219.35,1532.08 144.71,1510.09 9.62,1470.34" fill="none" stroke="#bcbcbc" stroke-width="8" stroke-linecap="round" stroke-linejoin="round" /><polyline points="-21.57,-55.55 -11.38,-48.52 320.82,25.40" fill="none" stroke="#bcbcbc" stroke-width="8" stroke-linecap="round" stroke-linejoin="round" /><polyline points="388.77,1038.28 371.60,1000.07 333.50,909.20 330.66,901.98 324.14,885.39 299.58,822.89 298.04,818.84" fill="none" stroke="#bcbcbc" stroke-width="8" stroke-linecap="round" stroke-linejoin="round" /><polyline points="-120.89,196.83 -139.33,191.58 -152.89,187.55 -180.43,179.37 -194.43,175.38 -202.44,173.15 -212.91,170.15" fill="none" stroke="#bcbcbc" stroke-width="8" stroke-linecap="round" stroke-linejoin="round" /><polyline points="-601.77,696.66 -602.70,693.61 -603.56,691.47 -607.36,682.02 -622.09,647.69 -636.08,612.82 -639.10,604.58 -642.58,595.10 -645.07,587.34 -649.19,575.70 -649.62,574.48 -663.01,541.48 -687.59,479.45 -693.11,476.30 -697.04,466.24 -704.88,439.00 -718.31,405.24 -721.20,397.56" fill="none" stroke="#bcbcbc" stroke-width="8" stroke-linecap="round" stroke-linejoin="round" /><polyline points="-483.68,1931.42 -469.72,1935.69 -424.56,1949.46 -410.41,1953.77" fill="none" stroke="#bcbcbc" stroke-width="8" stroke-linecap="round" stroke-linejoin="round" /><polyline points="359.75,180.67 362.38,170.02 361.31,165.98 360.02,161.10 351.77,130.89 333.39,67.02 323.69,34.37 320.82,25.40 295.18,-66.77 281.34,-116.48 266.98,-154.70 254.01,-189.19 241.10,-212.90 228.55,-225.43 132.21,-343.16 125.08,-351.54 120.36,-359.28" fill="none" stroke="#bcbcbc" stroke-width="8" stroke-linecap="round" stroke-linejoin="round" /><polyline points="-33.99,399.77 -38.95,401.67 -48.14,404.21 -49.06,404.46 -87.43,414.27 -131.54,426.69 -140.55,429.23 -144.56,430.50 -155.16,433.91 -164.22,436.43 -203.78,447.44 -268.84,465.92 -293.09,472.06 -302.22,474.34 -345.58,484.99 -372.36,492.45 -429.08,508.29 -485.14,524.09 -491.63,525.89 -538.48,538.90 -560.09,544.90 -571.00,550.06 -591.66,560.30 -632.69,581.12 -635.55,582.57 -645.07,587.34 -650.89,590.25 -658.99,594.50 -687.82,609.61 -740.34,639.08 -784.21,662.07 -790.49,665.36 -798.87,665.88 -803.91,668.55 -804.91,669.09 -852.51,695.17 -862.47,695.13 -873.92,701.12 -877.91,703.21 -881.28,704.97 -889.24,709.13 -895.51,723.43 -922.45,737.86 -931.01,742.45 -940.28,747.49 -977.76,767.89 -997.13,778.44 -1006.90,781.25" fill="none" stroke="#bcbcbc" stroke-width="8" stroke-linecap="round" stroke-linejoin="round" /><polyline points="505.41,1280.82 485.41,1282.65 422.94,1288.38 420.12,1288.64 416.14,1289.00 409.69,1289.59 349.12,1295.16 328.05,1293.20 303.52,1299.35 283.87,1304.17 273.40,1306.73 247.39,1307.72 224.88,1306.57 213.41,1305.36 203.64,1302.40 196.45,1298.42 169.66,1279.48 104.58,1234.78 98.45,1230.62 92.20,1226.38 87.53,1221.86" fill="none" stroke="#bcbcbc" stroke-width="8" stroke-linecap="round" stroke-linejoin="round" /><polyline points="-968.58,526.12 -944.96,572.35 -941.39,585.56 -921.50,623.52 -913.28,634.38 -880.04,699.07 -877.91,703.21" fill="none" stroke="#bcbcbc" stroke-width="8" stroke-linecap="round" stroke-linejoin="round" /><polyline points="-244.91,937.28 -248.45,947.00 -249.44,950.02 -254.05,964.00 -283.27,1045.52 -297.77,1086.00 -298.26,1087.38 -304.09,1099.96 -307.43,1107.44" fill="none" stroke="#bcbcbc" stroke-width="8" stroke-linecap="round" stroke-linejoin="round" /><polyline points="142.68,221.89 139.44,214.96 130.92,213.84 103.38,220.15 97.79,219.43 93.40,213.55 85.61,177.72 127.82,171.18 147.35,165.41 156.91,164.42 167.20,201.01" fill="none" stroke="#bcbcbc" stroke-width="8" stroke-linecap="round" stroke-linejoin="round" /><polyline points="295.21,618.15 306.08,612.04 360.69,579.14 375.28,570.44 400.82,555.21 442.85,528.04 452.65,520.98 526.37,475.25" fill="none" stroke="#bcbcbc" stroke-width="8" stroke-linecap="round" stroke-linejoin="round" /><polyline points="552.88,834.15 534.24,828.60 523.41,819.72 482.00,783.88 480.59,782.62 470.58,773.69 464.70,763.26 360.69,579.14" fill="none" stroke="#bcbcbc" stroke-width="8" stroke-linecap="round" stroke-linejoin="round" /><polyline points="-620.95,819.56 -457.76,869.78 -444.44,874.00 -322.66,912.61 -320.12,913.42 -301.87,919.20 -292.90,922.05 -281.25,925.24 -257.21,933.38 -244.91,937.28 -233.85,940.79 -143.22,969.54 -47.54,999.60 -39.63,1002.09 -28.66,996.70" fill="none" stroke="#bcbcbc" stroke-width="8" stroke-linecap="round" stroke-linejoin="round" /><polyline points="-141.11,13.81 -70.42,-51.15 -58.45,-62.14" fill="none" stroke="#bcbcbc" stroke-width="8" stroke-linecap="round" stroke-linejoin="round" /><polyline points="-1324.87,1062.01 -1065.47,1089.81" fill="none" stroke="#bcbcbc" stroke-width="8" stroke-linecap="round" stroke-linejoin="round" /><polyline points="-542.36,337.95 -487.84,318.45 -431.60,298.12 -396.66,284.53 -289.98,245.73 -259.02,235.02 -252.55,232.78 -244.80,230.12 -236.09,227.12 -235.02,226.76 -217.45,219.69 -209.81,216.62" fill="none" stroke="#bcbcbc" stroke-width="8" stroke-linecap="round" stroke-linejoin="round" /><polyline points="-176.18,1657.35 -124.85,1720.67 -93.43,1752.31 -79.83,1762.11 -60.57,1778.24 -42.48,1793.43 -26.94,1808.59 -26.55,1816.30" fill="none" stroke="#bcbcbc" stroke-width="8" stroke-linecap="round" stroke-linejoin="round" /><polyline points="-120.89,196.83 -100.77,146.41 -68.21,63.39 -21.57,-55.55 1.48,-111.90 35.83,-195.91 64.00,-264.73 69.04,-273.87 93.81,-314.37 95.41,-316.98 104.47,-334.80 120.36,-359.28 129.23,-372.94 141.79,-392.27" fill="none" stroke="#bcbcbc" stroke-width="8" stroke-linecap="round" stroke-linejoin="round" /><polyline points="-595.46,1545.04 -598.75,1547.68 -600.93,1550.81 -605.36,1563.90 -608.43,1573.34 -622.60,1615.73 -624.55,1621.84 -625.76,1625.64 -638.78,1621.91 -670.45,1611.29 -701.84,1600.76 -726.09,1599.39" fill="none" stroke="#bcbcbc" stroke-width="8" stroke-linecap="round" stroke-linejoin="round" /><polyline points="-1215.73,1839.96 -1164.00,1706.38 -1158.25,1691.83 -1153.09,1677.83 -1146.85,1660.90 -1139.20,1634.28 -1131.22,1601.19 -1127.96,1577.48 -1125.58,1560.26 -1122.23,1547.54 -1110.06,1452.02 -1095.84,1331.48 -1088.48,1274.02 -1080.27,1206.51 -1065.47,1089.81 -1063.12,1069.97 -1048.17,947.93 -1048.16,941.14 -1044.86,904.93 -1035.32,828.44 -1032.92,815.10 -1030.43,807.62 -1026.53,799.38 -1022.74,792.98 -1014.37,783.92 -1006.88,781.35" fill="none" stroke="#bcbcbc" stroke-width="8" stroke-linecap="round" stroke-linejoin="round" /><polyline points="-86.54,825.34 -83.71,829.82 -74.22,844.63 -60.02,867.40 -56.60,872.83 -50.93,868.52 -23.46,847.67" fill="none" stroke="#bcbcbc" stroke-width="8" stroke-linecap="round" stroke-linejoin="round" /><polyline points="-68.22,63.39 211.26,113.92 240.61,129.37 350.11,183.65 359.75,180.66" fill="none" stroke="#bcbcbc" stroke-width="8" stroke-linecap="round" stroke-linejoin="round" /><polyline points="-601.77,696.66 -606.72,703.89 -651.31,725.66 -684.06,767.28 -719.39,789.16 -743.56,807.41 -766.62,826.22 -778.44,837.00 -799.32,863.48 -822.67,896.95 -826.51,903.16" fill="none" stroke="#bcbcbc" stroke-width="8" stroke-linecap="round" stroke-linejoin="round" /><polyline points="-554.63,726.52 -556.56,730.82 -560.79,737.00 -568.78,746.83 -615.87,806.33 -640.79,873.45 -766.56,826.17" fill="none" stroke="#bcbcbc" stroke-width="8" stroke-linecap="round" stroke-linejoin="round" /><polyline points="-743.56,807.41 -748.43,792.67 -769.48,728.94 -777.64,716.35 -791.32,675.32 -792.50,671.78 -790.49,665.36 -793.76,654.90 -859.53,444.91" fill="none" stroke="#bcbcbc" stroke-width="8" stroke-linecap="round" stroke-linejoin="round" /><polyline points="27.01,-338.37 78.98,-337.00 81.41,-336.93 91.36,-336.65 104.47,-334.80" fill="none" stroke="#bcbcbc" stroke-width="8" stroke-linecap="round" stroke-linejoin="round" /><polyline points="-240.32,1354.79 -258.07,1354.58 -408.33,1374.75 -419.16,1375.89 -431.55,1377.20 -503.45,1384.79 -600.33,1395.02 -651.68,1400.44 -680.10,1403.43 -703.16,1406.24 -715.01,1407.68 -728.35,1409.30 -792.80,1417.13 -808.25,1419.01 -855.84,1424.22 -1110.06,1452.02" fill="none" stroke="#bcbcbc" stroke-width="8" stroke-linecap="round" stroke-linejoin="round" /><polyline points="-462.80,1876.56 -476.11,1872.27 -538.28,1852.26 -550.85,1848.21 -561.76,1844.70 -627.63,1823.53 -640.62,1819.35 -657.80,1813.82 -762.66,1780.08 -774.46,1776.28" fill="none" stroke="#bcbcbc" stroke-width="8" stroke-linecap="round" stroke-linejoin="round" /><polyline points="-202.82,617.65 -166.66,628.92 -34.40,669.76 -33.17,670.14 -23.36,670.76" fill="none" stroke="#bcbcbc" stroke-width="8" stroke-linecap="round" stroke-linejoin="round" /><polyline points="169.30,319.79 349.21,322.95" fill="none" stroke="#bcbcbc" stroke-width="8" stroke-linecap="round" stroke-linejoin="round" /><polyline points="81.21,1900.47 55.50,1869.90 44.71,1857.35 35.43,1848.69 23.09,1839.47 -2.14,1824.33 -26.55,1816.30 -76.23,1800.96 -116.85,1788.06 -93.43,1752.31" fill="none" stroke="#bcbcbc" stroke-width="8" stroke-linecap="round" stroke-linejoin="round" /><polyline points="-176.18,1657.35 -211.99,1613.14 -218.80,1604.73 -254.87,1555.04 -263.04,1539.86 -261.08,1521.80 -250.20,1521.69 -223.38,1526.85 -182.56,1534.71" fill="none" stroke="#bcbcbc" stroke-width="8" stroke-linecap="round" stroke-linejoin="round" /><polyline points="-644.64,1303.17 -638.04,1317.37 -600.33,1395.02 -544.25,1510.47 -537.09,1525.20" fill="none" stroke="#bcbcbc" stroke-width="8" stroke-linecap="round" stroke-linejoin="round" /><polyline points="-1248.71,1654.85 -1235.22,1660.36 -1172.04,1686.19 -1158.25,1691.83 -1143.74,1697.77 -1069.36,1728.19 -1055.90,1733.69" fill="none" stroke="#bcbcbc" stroke-width="8" stroke-linecap="round" stroke-linejoin="round" /><polyline points="-613.61,1188.04 -481.98,1245.63" fill="none" stroke="#bcbcbc" stroke-width="8" stroke-linecap="round" stroke-linejoin="round" /><polyline points="-23.36,670.76 -3.31,671.81 -2.03,672.95 6.96,680.93 20.18,692.73 22.62,697.48 68.19,737.39 71.56,743.75 103.61,772.04 111.67,774.50 136.60,796.33 142.18,798.88 179.77,830.77 188.14,838.19 192.76,845.54" fill="none" stroke="#bcbcbc" stroke-width="8" stroke-linecap="round" stroke-linejoin="round" /><polyline points="-1285.86,1188.17 -1080.27,1206.51" fill="none" stroke="#bcbcbc" stroke-width="8" stroke-linecap="round" stroke-linejoin="round" /><polyline points="-826.83,1953.76 -820.46,1940.20 -818.82,1934.16 -809.89,1901.24 -777.55,1787.20 -774.46,1776.28 -771.19,1764.31 -756.54,1710.73 -731.79,1620.24 -726.09,1599.39" fill="none" stroke="#bcbcbc" stroke-width="8" stroke-linecap="round" stroke-linejoin="round" /><polyline points="-644.64,1303.17 -613.61,1188.04 -679.42,1165.02 -696.65,1175.19 -704.50,1181.17 -710.32,1189.03 -714.41,1199.42 -729.55,1255.37 -717.34,1261.59 -705.00,1264.58 -677.72,1271.68 -657.31,1278.18 -644.64,1303.17" fill="none" stroke="#bcbcbc" stroke-width="8" stroke-linecap="round" stroke-linejoin="round" /><polyline points="-729.55,1255.37 -743.96,1253.36 -1080.27,1206.51" fill="none" stroke="#bcbcbc" stroke-width="8" stroke-linecap="round" stroke-linejoin="round" /><polyline points="-182.56,1534.71 -151.36,1541.52 -67.00,1568.34 -43.41,1575.80 12.58,1591.97 68.99,1608.24 110.74,1620.31 177.53,1639.59 191.32,1643.58 225.02,1654.88 280.51,1669.66 285.40,1670.57" fill="none" stroke="#bcbcbc" stroke-width="8" stroke-linecap="round" stroke-linejoin="round" /><polyline points="-142.98,2022.12 -154.37,2024.98 -166.68,2059.28 -185.76,2053.86 -272.53,2024.28 -282.97,2022.05 -306.21,2020.39 -411.29,2020.81 -434.45,2017.86 -486.77,2009.86 -507.87,2006.43 -657.53,1982.30 -715.48,1973.05 -826.01,1953.90 -843.85,1950.36 -1093.29,1880.64 -1109.03,1876.23 -1215.73,1839.96 -1241.98,1830.65 -1307.55,1803.47 -1344.93,1789.33" fill="none" stroke="#bcbcbc" stroke-width="8" stroke-linecap="round" stroke-linejoin="round" /><polyline points="85.61,177.72 74.81,175.49 -69.35,192.54 -120.89,196.83" fill="none" stroke="#bcbcbc" stroke-width="8" stroke-linecap="round" stroke-linejoin="round" /><polyline points="-182.55,1534.71 -177.50,1526.25 -147.25,1448.55 -113.45,1331.06 -104.83,1305.76 -100.22,1298.87 -67.58,1194.11 -65.96,1181.60 -64.72,1173.42" fill="none" stroke="#bcbcbc" stroke-width="8" stroke-linecap="round" stroke-linejoin="round" /><polyline points="-33.99,399.77 -30.54,398.45 -25.87,394.74 -18.78,386.45 73.27,254.36 97.79,219.43" fill="none" stroke="#bcbcbc" stroke-width="8" stroke-linecap="round" stroke-linejoin="round" /><polyline points="375.70,884.99 377.59,879.57 423.86,825.13 427.25,823.32 435.29,812.32 462.21,781.40 470.58,773.69" fill="none" stroke="#bcbcbc" stroke-width="8" stroke-linecap="round" stroke-linejoin="round" /><polyline points="416.14,1289.00 415.50,1281.72 415.00,1276.08 412.56,1265.31 409.65,1258.28 406.01,1239.81 405.68,1233.13 403.22,1218.18 392.21,1212.43 383.40,1215.79 367.65,1219.57 355.18,1221.52 343.22,1224.40 326.71,1228.17 319.18,1229.88" fill="none" stroke="#bcbcbc" stroke-width="8" stroke-linecap="round" stroke-linejoin="round" /><polyline points="-799.53,1021.64 -765.88,942.75 -764.01,937.62" fill="none" stroke="#bcbcbc" stroke-width="8" stroke-linecap="round" stroke-linejoin="round" /><polyline points="87.33,876.97 103.55,870.69 112.03,867.41 118.59,860.77 145.63,854.10 154.70,856.41 174.27,851.37 189.20,847.52 192.76,845.54 207.24,841.99 281.26,823.86 298.04,818.84" fill="none" stroke="#bcbcbc" stroke-width="8" stroke-linecap="round" stroke-linejoin="round" /><polyline points="-595.46,1545.04 -560.54,1532.36 -548.85,1528.79 -537.09,1525.20 -515.39,1518.57 -498.51,1516.14 -440.86,1509.83 -429.27,1509.20 -377.68,1509.64 -346.26,1509.91 -334.44,1509.30 -315.51,1511.22 -309.59,1512.07 -297.53,1513.80 -261.08,1521.80" fill="none" stroke="#bcbcbc" stroke-width="8" stroke-linecap="round" stroke-linejoin="round" /><polyline points="-429.08,508.29 -434.86,488.73 -456.35,416.08 -482.45,333.24 -487.84,318.45 -493.31,304.59 -500.22,284.62" fill="none" stroke="#bcbcbc" stroke-width="8" stroke-linecap="round" stroke-linejoin="round" /><polyline points="-491.57,1679.72 -486.99,1665.22 -440.56,1518.84 -440.86,1509.83" fill="none" stroke="#bcbcbc" stroke-width="8" stroke-linecap="round" stroke-linejoin="round" /><polyline points="-429.27,1509.20 -420.08,1385.94 -419.16,1375.89 -417.76,1364.20 -417.73,1363.67 -417.13,1349.37 -414.06,1310.57 -412.33,1292.50 -409.97,1271.97 -407.81,1257.19 -405.88,1247.91 -403.45,1240.90 -398.67,1225.09 -388.81,1192.19 -376.27,1149.70 -362.45,1106.26 -359.63,1097.40 -357.37,1090.98" fill="none" stroke="#bcbcbc" stroke-width="8" stroke-linecap="round" stroke-linejoin="round" /><polyline points="-729.55,1255.37 -731.99,1266.29 -731.57,1269.78 -716.60,1394.47 -715.01,1407.68 -715.70,1421.26 -719.62,1498.82 -721.26,1531.22 -722.10,1547.93 -723.61,1577.72 -724.40,1593.23 -726.09,1599.39" fill="none" stroke="#bcbcbc" stroke-width="8" stroke-linecap="round" stroke-linejoin="round" /><polyline points="-799.53,1021.64 -853.98,1005.45 -860.90,1001.01 -894.79,991.14 -904.31,991.24 -946.89,978.41 -953.77,973.33 -992.51,961.59 -1040.05,948.63 -1040.28,948.61 -1048.17,947.93" fill="none" stroke="#bcbcbc" stroke-width="8" stroke-linecap="round" stroke-linejoin="round" /><polyline points="192.76,845.54 194.65,848.02 202.54,859.79 217.14,881.55 230.88,895.31 257.29,924.97 252.83,952.37 250.56,962.65 247.41,966.99 254.03,976.79 264.28,997.87 284.75,1037.37 294.83,1056.83 301.10,1074.31 303.93,1082.43" fill="none" stroke="#bcbcbc" stroke-width="8" stroke-linecap="round" stroke-linejoin="round" /><polyline points="330.66,901.98 323.07,904.34 273.07,919.90 265.90,922.20 257.29,924.97" fill="none" stroke="#bcbcbc" stroke-width="8" stroke-linecap="round" stroke-linejoin="round" /><polyline points="-28.66,996.70 -13.02,991.64 100.47,933.68 115.66,926.25 169.16,910.80 221.02,896.22 230.88,895.31" fill="none" stroke="#bcbcbc" stroke-width="8" stroke-linecap="round" stroke-linejoin="round" /><polyline points="-16.29,1068.46 114.55,1007.56 120.06,1003.92 132.86,1000.19 220.04,974.82 233.27,969.76 247.41,966.99" fill="none" stroke="#bcbcbc" stroke-width="8" stroke-linecap="round" stroke-linejoin="round" /><polyline points="-42.99,-208.16 9.97,-201.61 15.29,-200.95 35.83,-195.91" fill="none" stroke="#bcbcbc" stroke-width="8" stroke-linecap="round" stroke-linejoin="round" /><polyline points="409.64,330.38 419.03,328.42 454.13,345.62 458.75,350.20 524.63,461.73 526.37,475.25 534.94,482.39 533.57,487.32 533.37,495.36 534.55,506.60 552.00,578.32 553.55,628.00 555.99,707.31 560.09,814.06 543.38,860.58 532.62,888.94 516.90,928.91 512.35,940.46 509.40,943.69 504.65,974.62" fill="none" stroke="#bcbcbc" stroke-width="8" stroke-linecap="round" stroke-linejoin="round" /><polyline points="531.44,1163.02 515.42,1156.04 475.38,1128.10 422.55,1090.98 393.49,1067.48 373.89,1046.48" fill="none" stroke="#bcbcbc" stroke-width="8" stroke-linecap="round" stroke-linejoin="round" /><polyline points="-116.85,1788.06 -132.59,1783.07 -158.12,1774.98 -170.31,1771.11 -184.62,1766.57 -202.71,1760.84 -219.06,1755.66 -235.22,1750.53 -307.30,1727.65 -319.93,1723.65 -335.61,1718.68 -339.07,1717.59 -380.29,1706.69 -391.93,1703.88 -406.52,1700.35 -421.79,1696.64 -476.81,1683.30 -491.57,1679.72 -507.43,1674.21 -540.56,1662.71 -553.05,1658.37 -564.21,1654.75 -616.09,1636.30 -622.62,1632.41 -625.76,1625.64" fill="none" stroke="#bcbcbc" stroke-width="8" stroke-linecap="round" stroke-linejoin="round" /><polyline points="120.06,1003.92 116.24,990.22 104.85,949.38 100.47,933.68 94.14,921.94 93.55,919.76 89.82,905.94 94.17,899.81 88.95,882.39 87.33,876.97" fill="none" stroke="#bcbcbc" stroke-width="8" stroke-linecap="round" stroke-linejoin="round" /><polyline points="101.02,504.18 111.85,499.08 171.00,466.47 204.81,444.72 228.66,428.45 233.92,424.53 253.12,411.19 273.01,396.50 285.60,387.33 300.62,376.35 352.80,352.80 359.57,353.16 369.46,348.48 409.64,330.38" fill="none" stroke="#bcbcbc" stroke-width="8" stroke-linecap="round" stroke-linejoin="round" /><polyline points="-554.63,726.52 -546.09,729.98 -540.45,731.71 -434.67,764.21 -418.52,769.17" fill="none" stroke="#bcbcbc" stroke-width="8" stroke-linecap="round" stroke-linejoin="round" /><polyline points="-1310.21,964.42 -1385.78,941.55" fill="none" stroke="#bcbcbc" stroke-width="8" stroke-linecap="round" stroke-linejoin="round" /><polyline points="-89.44,-101.41 -70.71,-77.67 -67.91,-74.13 -58.45,-62.14 -47.67,-60.88 -25.51,-58.28 -21.57,-55.55" fill="none" stroke="#bcbcbc" stroke-width="8" stroke-linecap="round" stroke-linejoin="round" /><polyline points="561.24,954.46 531.54,960.00 501.10,976.55 472.88,992.26 446.18,1005.61 413.93,1023.13 390.58,1037.31 344.42,1062.06 164.25,1152.71 117.54,1173.29 86.67,1186.63 71.38,1191.64 58.73,1194.00 38.01,1195.25 8.54,1191.08 -65.00,1173.42 -169.41,1149.09 -306.76,1107.66 -357.37,1090.98 -440.22,1065.39 -519.47,1039.25 -635.69,993.65 -693.80,968.62 -763.87,937.48 -880.09,873.80 -907.34,855.73 -976.30,812.35 -1005.21,783.43 -1048.59,727.26 -1120.04,653.58 -1148.13,628.83" fill="none" stroke="#bcbcbc" stroke-width="8" stroke-linecap="round" stroke-linejoin="round" /><polyline points="-2.14,1824.33 -0.92,1817.54 3.47,1806.44 44.69,1709.99 60.26,1673.84 78.61,1628.79 83.08,1612.30" fill="none" stroke="#bcbcbc" stroke-width="8" stroke-linecap="round" stroke-linejoin="round" /><polyline points="-792.80,1417.13 -839.62,1394.47 -946.15,1342.91 -1076.82,1279.66 -1088.48,1274.02" fill="none" stroke="#bcbcbc" stroke-width="8" stroke-linecap="round" stroke-linejoin="round" /><polyline points="-23.36,670.76 -11.54,658.65 19.89,626.47 44.84,599.23" fill="none" stroke="#bcbcbc" stroke-width="8" stroke-linecap="round" stroke-linejoin="round" /><polyline points="-931.01,742.45 -944.00,725.25 -1004.85,644.67 -1091.73,574.36" fill="none" stroke="#bcbcbc" stroke-width="8" stroke-linecap="round" stroke-linejoin="round" /><polyline points="-1308.02,1803.28 -1296.14,1775.10 -1258.36,1680.92 -1253.79,1668.56 -1248.71,1654.85 -1246.78,1649.90 -1246.27,1642.15 -1241.43,1568.93 -1240.04,1547.93" fill="none" stroke="#bcbcbc" stroke-width="8" stroke-linecap="round" stroke-linejoin="round" /><polyline points="-1333.79,1046.21 -1310.21,964.42 -1279.10,856.54 -1275.24,843.19 -1270.96,828.02 -1261.37,794.05 -1260.37,790.48 -1257.62,779.56 -1253.24,767.21 -1252.18,764.22 -1246.65,750.51 -1235.80,726.56 -1232.55,719.68" fill="none" stroke="#bcbcbc" stroke-width="8" stroke-linecap="round" stroke-linejoin="round" /><polyline points="-1275.24,843.19 -1227.53,855.39 -1126.46,881.37 -1068.88,899.30 -1044.86,904.93" fill="none" stroke="#bcbcbc" stroke-width="8" stroke-linecap="round" stroke-linejoin="round" /><polyline points="-293.09,472.06 -291.47,462.13 -289.84,451.82 -282.84,417.33 -265.35,337.05 -250.99,265.24 -248.36,250.34 -244.80,230.12 -244.79,230.10" fill="none" stroke="#bcbcbc" stroke-width="8" stroke-linecap="round" stroke-linejoin="round" /><polyline points="-434.36,2017.87 -413.06,1963.53 -410.41,1953.77 -325.87,1739.13 -319.93,1723.65 -315.12,1710.51 -264.60,1563.52 -254.87,1555.04" fill="none" stroke="#bcbcbc" stroke-width="8" stroke-linecap="round" stroke-linejoin="round" /><polyline points="-144.56,430.50 -144.56,430.49 -147.56,414.77 -148.03,412.86 -155.33,383.15 -155.33,383.06 -160.31,362.92 -181.40,290.61 -184.06,282.86 -198.31,244.13 -202.94,232.57 -205.93,225.11 -209.80,216.63 -209.81,216.62 -209.81,216.58 -212.64,185.44 -212.91,170.15" fill="none" stroke="#bcbcbc" stroke-width="8" stroke-linecap="round" stroke-linejoin="round" /><polyline points="-176.18,1657.35 -181.61,1663.21 -189.69,1672.83 -212.47,1737.06 -219.06,1755.66" fill="none" stroke="#bcbcbc" stroke-width="8" stroke-linecap="round" stroke-linejoin="round" /><polyline points="-554.63,726.52 -551.51,718.09 -550.81,716.13 -536.02,674.81 -530.47,657.40 -485.14,524.09" fill="none" stroke="#bcbcbc" stroke-width="8" stroke-linecap="round" stroke-linejoin="round" /><polyline points="-320.12,913.42 -315.49,901.13 -302.97,867.85 -297.67,853.78 -294.08,844.26 -284.03,817.56 -277.39,799.91 -276.50,797.54 -260.41,754.80 -253.68,756.89 -250.04,746.97 -243.59,729.41 -244.83,721.44 -227.71,674.85 -225.96,670.06 -222.71,667.08 -219.98,664.57 -202.82,617.65 -200.34,604.81 -175.71,536.38 -169.89,531.83 -158.04,498.31 -160.15,493.16 -149.77,461.86 -155.16,433.91" fill="none" stroke="#bcbcbc" stroke-width="8" stroke-linecap="round" stroke-linejoin="round" /><polyline points="120.36,-359.28 113.46,-370.60 77.20,-430.09" fill="none" stroke="#bcbcbc" stroke-width="8" stroke-linecap="round" stroke-linejoin="round" /><polyline points="233.92,424.53 400.31,531.53 400.35,531.60 400.35,531.62 431.13,535.62" fill="none" stroke="#bcbcbc" stroke-width="8" stroke-linecap="round" stroke-linejoin="round" /><polyline points="-170.31,1771.11 -176.68,1790.54 -202.47,1869.21 -246.34,2001.70 -249.46,2011.10 -252.61,2020.63 -253.49,2030.77" fill="none" stroke="#bcbcbc" stroke-width="8" stroke-linecap="round" stroke-linejoin="round" /><polyline points="328.05,1293.20 329.11,1283.33 329.34,1274.12 329.26,1273.80 322.99,1246.68 320.42,1235.35 319.18,1229.88 317.91,1224.30 311.02,1193.96 297.57,1133.33 287.79,1096.88 286.41,1091.24" fill="none" stroke="#bcbcbc" stroke-width="8" stroke-linecap="round" stroke-linejoin="round" /><polyline points="-550.85,1848.21 -546.46,1835.74 -497.17,1695.63 -491.57,1679.72" fill="none" stroke="#bcbcbc" stroke-width="8" stroke-linecap="round" stroke-linejoin="round" /><polyline points="555.99,707.31 541.49,703.22 442.99,552.07 431.13,535.62" fill="none" stroke="#bcbcbc" stroke-width="8" stroke-linecap="round" stroke-linejoin="round" /><polyline points="-1063.12,1069.97 -704.17,1155.98 -679.42,1165.02" fill="none" stroke="#bcbcbc" stroke-width="8" stroke-linecap="round" stroke-linejoin="round" /><polyline points="69.04,-273.87 208.86,-222.06 228.55,-225.43" fill="none" stroke="#bcbcbc" stroke-width="8" stroke-linecap="round" stroke-linejoin="round" />
    <polyline points="167.20,201.01 344.23,289.87 349.57,293.86 349.21,322.95 352.80,352.80" fill="none" stroke="#ffffff" stroke-width="16" stroke-linecap="round" stroke-linejoin="round" />
    <polyline points="167.20,201.01 344.23,289.87 349.57,293.86 349.21,322.95 352.80,352.80" fill="none" stroke="#111111" stroke-width="9" stroke-linecap="round" stroke-linejoin="round" />
    
            <g transform="translate(167.20,201.01)">
              <circle r="19" fill="#ffffff" stroke="#111111" stroke-width="4" />
              <text text-anchor="middle" dominant-baseline="central" font-family="Helvetica, Arial, sans-serif"
                font-size="18" font-weight="700" fill="#111111">1</text>
            </g>
            
            <g transform="translate(352.80,352.80)">
              <circle r="19" fill="#ffffff" stroke="#111111" stroke-width="4" />
              <text text-anchor="middle" dominant-baseline="central" font-family="Helvetica, Arial, sans-serif"
                font-size="18" font-weight="700" fill="#111111">2</text>
            </g>
            
  </g>
</svg>
