<svg xmlns="http://www.w3.org/2000/svg" width="520" height="520" viewBox="0 0 520 520">
  <rect width="100%" height="100%" fill="#ffffff" />
  <g>
    <polyline points="641.30,-862.62 643.67,-849.98 659.01,-742.73 656.66,-715.92" fill="none" stroke="#bcbcbc" stroke-width="8" stroke-linecap="round" stroke-linejoin="round" /><polyline points="329.64,31.12 333.35,19.73 352.99,-40.67 355.31,-47.79 357.65,-55.26 407.04,-212.74 411.01,-225.40 401.91,-247.80" fill="none" stroke="#bcbcbc" stroke-width="8" stroke-linecap="round" stroke-linejoin="round" /><polyline points="-11.51,-108.94 -12.31,-117.99 3.84,-208.41 6.11,-219.72 7.80,-225.64 12.24,-248.58 17.24,-276.64 22.68,-301.36 28.08,-326.02 31.47,-332.98 33.70,-337.24" fill="none" stroke="#bcbcbc" stroke-width="8" stroke-linecap="round" stroke-linejoin="round" /><polyline points="82.21,-746.78 78.38,-758.48 38.70,-879.48 36.76,-884.56" fill="none" stroke="#bcbcbc" stroke-width="8" stroke-linecap="round" stroke-linejoin="round" /><polyline points="-121.39,318.19 -120.21,306.65 -119.73,301.35 -115.41,253.57 -110.68,211.50 -109.57,201.68 -108.55,189.90 -108.43,188.90 -105.75,165.47 -103.44,141.66 -100.89,118.68 -99.18,100.78 -98.46,89.74 -97.83,79.54 -96.71,68.05" fill="none" stroke="#bcbcbc" stroke-width="8" stroke-linecap="round" stroke-linejoin="round" /><polyline points="426.89,59.20 429.72,50.32 449.63,-12.27 451.89,-19.38 455.11,-29.51 457.41,-36.77 475.03,-112.77" fill="none" stroke="#bcbcbc" stroke-width="8" stroke-linecap="round" stroke-linejoin="round" /><polyline points="349.49,-1178.75 356.84,-1177.62 559.47,-1146.49" fill="none" stroke="#bcbcbc" stroke-width="8" stroke-linecap="round" stroke-linejoin="round" /><polyline points="-170.68,44.45 -191.77,43.47 -204.63,42.87 -211.62,42.55 -217.75,42.26 -265.51,40.04 -331.93,36.95 -363.60,32.46 -374.19,30.96 -383.39,29.34 -445.66,18.35 -454.37,16.81 -456.29,16.48 -467.05,14.64 -475.31,13.22 -528.08,8.56 -538.13,7.67 -541.81,7.35 -553.22,6.55 -575.56,5.01" fill="none" stroke="#bcbcbc" stroke-width="8" stroke-linecap="round" stroke-linejoin="round" /><polyline points="135.72,-16.73 139.80,-28.35 176.61,-130.38 220.90,-259.07 223.73,-267.14 225.71,-272.78 227.31,-277.41" fill="none" stroke="#bcbcbc" stroke-width="8" stroke-linecap="round" stroke-linejoin="round" /><polyline points="-541.81,7.35 -542.75,0.79 -542.98,-6.34 -541.58,-20.69 -538.37,-46.89 -536.24,-55.68 -532.77,-87.47 -532.13,-94.55 -531.12,-103.66 -530.36,-110.42 -528.94,-118.08 -526.31,-138.70 -524.47,-154.48 -521.78,-160.93" fill="none" stroke="#bcbcbc" stroke-width="8" stroke-linecap="round" stroke-linejoin="round" /><polyline points="-579.49,-168.99 -530.39,-162.13 -521.78,-160.93 -516.45,-160.08 -494.44,-156.57 -443.73,-148.49 -435.03,-147.04" fill="none" stroke="#bcbcbc" stroke-width="8" stroke-linecap="round" stroke-linejoin="round" /><polyline points="324.13,-813.02 324.45,-808.56 325.11,-804.04 326.71,-800.58 329.69,-796.72 335.21,-791.69 348.30,-783.73 449.25,-720.41 511.43,-637.06 558.39,-521.17 561.45,-513.52" fill="none" stroke="#bcbcbc" stroke-width="8" stroke-linecap="round" stroke-linejoin="round" /><polyline points="307.97,-474.89 310.06,-471.42 310.60,-470.52 312.34,-461.78 324.18,-404.52 327.94,-386.34 330.63,-373.39 334.82,-347.15 336.78,-335.05 338.13,-327.67 339.61,-321.00 341.38,-317.11 343.97,-312.61 345.36,-310.48 371.59,-272.93 385.78,-250.59 389.48,-245.25" fill="none" stroke="#bcbcbc" stroke-width="8" stroke-linecap="round" stroke-linejoin="round" /><polyline points="-445.06,242.17 -443.67,233.57 -442.37,227.36 -442.02,226.53 -424.56,185.03 -413.44,158.05 -410.06,149.50 -406.48,140.45 -402.59,132.67 -401.96,131.14 -396.64,118.28 -392.52,106.90 -388.99,96.45 -386.75,89.07 -384.24,79.95 -381.34,67.72 -379.14,57.80 -376.51,43.95 -375.96,40.86 -374.19,30.96" fill="none" stroke="#bcbcbc" stroke-width="8" stroke-linecap="round" stroke-linejoin="round" /><polyline points="400.82,-916.96 456.48,-878.06 463.98,-876.47 469.47,-870.19" fill="none" stroke="#bcbcbc" stroke-width="8" stroke-linecap="round" stroke-linejoin="round" /><polyline points="167.06,-557.75 174.42,-554.93 206.36,-544.48 280.45,-516.07 284.61,-511.92 286.56,-508.83" fill="none" stroke="#bcbcbc" stroke-width="8" stroke-linecap="round" stroke-linejoin="round" /><polyline points="305.13,172.29 310.18,159.14 335.08,91.57 352.70,40.52 356.35,38.84" fill="none" stroke="#bcbcbc" stroke-width="8" stroke-linecap="round" stroke-linejoin="round" /><polyline points="-46.96,86.61 -43.03,77.93 -42.65,77.07 -35.92,54.51 -24.90,17.39 -22.08,7.89 -19.89,0.51 -19.60,-3.79 -20.04,-13.32" fill="none" stroke="#bcbcbc" stroke-width="8" stroke-linecap="round" stroke-linejoin="round" /><polyline points="410.86,-471.92 404.55,-470.62 390.24,-473.16 388.02,-479.07 363.23,-488.52 357.36,-486.99 334.99,-495.20 331.66,-492.87" fill="none" stroke="#bcbcbc" stroke-width="8" stroke-linecap="round" stroke-linejoin="round" /><polyline points="374.05,-1238.81 385.28,-1236.05 391.50,-1234.98 539.31,-1209.35" fill="none" stroke="#bcbcbc" stroke-width="8" stroke-linecap="round" stroke-linejoin="round" /><polyline points="259.17,131.14 265.31,113.81 277.26,80.13 284.98,65.78 296.10,34.68 300.53,22.26" fill="none" stroke="#bcbcbc" stroke-width="8" stroke-linecap="round" stroke-linejoin="round" /><polyline points="-550.69,-541.55 -561.40,-542.04 -564.08,-538.78 -582.73,-516.13 -647.93,-440.83 -657.10,-430.24" fill="none" stroke="#bcbcbc" stroke-width="8" stroke-linecap="round" stroke-linejoin="round" /><polyline points="21.16,-477.06 16.44,-466.60 15.86,-465.33 -0.56,-422.52 -17.11,-375.40 -21.52,-362.83 -24.02,-356.34" fill="none" stroke="#bcbcbc" stroke-width="8" stroke-linecap="round" stroke-linejoin="round" /><polyline points="262.00,-958.08 267.22,-951.00 270.94,-941.27 276.74,-927.30 286.04,-905.34 294.28,-885.62 303.73,-863.97 310.75,-847.29 311.79,-844.89 311.85,-844.74 317.50,-831.54 319.18,-827.79 320.79,-824.22 322.49,-820.88 323.76,-817.48 324.13,-813.02" fill="none" stroke="#bcbcbc" stroke-width="8" stroke-linecap="round" stroke-linejoin="round" /><polyline points="-137.31,-266.03 -134.58,-267.52 -130.76,-270.56 -128.85,-274.49 -103.48,-370.67 -102.72,-376.09 -99.62,-386.00" fill="none" stroke="#bcbcbc" stroke-width="8" stroke-linecap="round" stroke-linejoin="round" /><polyline points="749.68,-416.53 753.28,-405.11 755.81,-393.12 750.88,-347.40 745.18,-313.02 742.07,-301.29 741.79,-300.23 739.06,-293.90 735.35,-287.19 726.67,-276.21 730.87,-254.75 717.28,-208.69 709.77,-183.26 694.41,-141.62 671.92,-90.92 644.46,-42.34 635.89,-26.55 620.38,-0.61 558.44,87.30 544.87,105.58 492.31,174.26 462.14,208.58 419.93,251.47 416.03,251.87 406.49,259.66" fill="none" stroke="#bcbcbc" stroke-width="8" stroke-linecap="round" stroke-linejoin="round" /><polyline points="-14.66,335.40 2.63,281.78 5.46,272.93 9.30,267.35 17.56,242.57 20.25,234.15 54.36,127.36 57.79,116.62 60.62,107.18 100.88,-19.51" fill="none" stroke="#bcbcbc" stroke-width="8" stroke-linecap="round" stroke-linejoin="round" /><polyline points="390.41,-661.81 405.36,-678.14 409.77,-683.45 439.97,-726.23" fill="none" stroke="#bcbcbc" stroke-width="8" stroke-linecap="round" stroke-linejoin="round" /><polyline points="91.64,-655.34 132.80,-641.01 135.08,-637.32 146.77,-633.40 153.70,-631.03 186.89,-619.82" fill="none" stroke="#bcbcbc" stroke-width="8" stroke-linecap="round" stroke-linejoin="round" /><polyline points="450.44,-940.17 469.47,-870.19 491.52,-787.76 494.86,-780.89 495.39,-773.04 510.33,-745.14 550.67,-669.93 559.49,-656.93 562.04,-653.12 622.31,-540.46 650.00,-515.29 653.89,-510.27 659.37,-505.59 711.96,-460.63 715.53,-457.58 724.97,-452.57" fill="none" stroke="#bcbcbc" stroke-width="8" stroke-linecap="round" stroke-linejoin="round" /><polyline points="245.91,346.79 377.06,270.61 400.41,258.68 406.49,259.66" fill="none" stroke="#bcbcbc" stroke-width="8" stroke-linecap="round" stroke-linejoin="round" /><polyline points="388.11,237.81 396.25,228.14 469.30,82.39 474.14,72.84 478.18,63.38 501.78,5.03 508.80,-12.55 529.14,-74.09 542.33,-153.22 543.89,-164.73" fill="none" stroke="#bcbcbc" stroke-width="8" stroke-linecap="round" stroke-linejoin="round" /><polyline points="331.73,-619.32 330.45,-618.01 328.69,-611.88 328.52,-611.27 320.59,-580.74 322.67,-572.78 320.94,-565.63 318.67,-556.28 312.87,-549.56 306.29,-522.90 298.53,-517.04 290.25,-511.36 286.56,-508.83" fill="none" stroke="#bcbcbc" stroke-width="8" stroke-linecap="round" stroke-linejoin="round" /><polyline points="21.16,-477.06 24.53,-485.70 44.80,-537.65 49.22,-548.98 52.86,-558.31 78.75,-624.64 90.41,-652.38 91.64,-655.34 100.70,-677.24 121.03,-727.72 128.48,-749.20 130.13,-754.13 132.36,-759.72" fill="none" stroke="#bcbcbc" stroke-width="8" stroke-linecap="round" stroke-linejoin="round" /><polyline points="247.95,-791.96 251.87,-780.30 380.49,-670.45 450.67,-609.39 555.51,-518.28 564.65,-510.96 568.75,-508.40 586.94,-491.88 611.24,-471.17 666.34,-424.19 684.14,-408.89 695.94,-394.77" fill="none" stroke="#bcbcbc" stroke-width="8" stroke-linecap="round" stroke-linejoin="round" /><polyline points="460.61,-981.24 467.14,-985.43 505.78,-1001.49 513.73,-1009.84" fill="none" stroke="#bcbcbc" stroke-width="8" stroke-linecap="round" stroke-linejoin="round" /><polyline points="505.25,-3.66 451.89,-19.38 355.31,-47.79" fill="none" stroke="#bcbcbc" stroke-width="8" stroke-linecap="round" stroke-linejoin="round" /><polyline points="333.01,-1138.48 340.30,-1133.45 577.80,-1080.62" fill="none" stroke="#bcbcbc" stroke-width="8" stroke-linecap="round" stroke-linejoin="round" /><polyline points="626.38,-356.62 614.10,-383.93 586.86,-448.88 584.83,-454.05 580.17,-465.90 562.61,-510.58 561.51,-513.47" fill="none" stroke="#bcbcbc" stroke-width="8" stroke-linecap="round" stroke-linejoin="round" /><polyline points="262.00,-958.08 248.82,-961.83 239.13,-964.71 219.43,-970.56 209.43,-973.41 203.70,-975.01 196.21,-977.15" fill="none" stroke="#bcbcbc" stroke-width="8" stroke-linecap="round" stroke-linejoin="round" /><polyline points="-81.80,-600.81 -82.46,-602.99 -83.08,-604.51 -85.80,-611.27 -96.32,-635.81 -106.33,-660.74 -108.49,-666.62 -110.98,-673.40 -112.76,-678.95 -115.70,-687.26 -116.01,-688.14 -125.58,-711.73 -143.15,-756.06 -147.10,-758.31 -149.91,-765.51 -155.51,-784.98 -165.12,-809.11 -167.18,-814.60" fill="none" stroke="#bcbcbc" stroke-width="8" stroke-linecap="round" stroke-linejoin="round" /><polyline points="2.63,281.78 12.61,284.84 44.90,294.68 55.01,297.76" fill="none" stroke="#bcbcbc" stroke-width="8" stroke-linecap="round" stroke-linejoin="round" /><polyline points="605.63,-969.63 607.51,-977.24 606.75,-980.13 605.82,-983.62 599.93,-1005.21 586.79,-1050.86 579.85,-1074.20 577.80,-1080.62 559.47,-1146.49 549.57,-1182.03 539.31,-1209.35 530.03,-1234.00 520.80,-1250.95 511.83,-1259.90 442.95,-1344.05 437.86,-1350.05 434.48,-1355.58" fill="none" stroke="#bcbcbc" stroke-width="8" stroke-linecap="round" stroke-linejoin="round" /><polyline points="324.13,-813.02 320.58,-811.66 314.01,-809.85 313.36,-809.67 285.93,-802.65 254.39,-793.77 247.95,-791.96 245.08,-791.05 237.50,-788.62 231.02,-786.81 202.74,-778.95 156.23,-765.73 138.89,-761.35 132.36,-759.72 101.36,-752.11 82.21,-746.78 41.66,-735.45 1.58,-724.15 -3.05,-722.87 -36.55,-713.57 -52.00,-709.28 -59.80,-705.60 -74.57,-698.28 -103.91,-683.39 -105.95,-682.35 -112.76,-678.95 -116.91,-676.87 -122.71,-673.83 -143.32,-663.03 -180.87,-641.96 -212.23,-625.53 -216.72,-623.18 -222.71,-622.81 -226.31,-620.90 -227.03,-620.51 -261.06,-601.87 -268.19,-601.90 -276.37,-597.62 -279.22,-596.13 -281.63,-594.87 -287.32,-591.89 -291.80,-581.67 -311.06,-571.36 -317.19,-568.08 -323.81,-564.47 -350.61,-549.89 -364.46,-542.35 -371.44,-540.34" fill="none" stroke="#bcbcbc" stroke-width="8" stroke-linecap="round" stroke-linejoin="round" /><polyline points="709.77,-183.26 695.47,-181.95 650.81,-177.85 648.79,-177.67 645.94,-177.41 641.33,-176.98 598.03,-173.01 582.97,-174.41 565.43,-170.01 551.38,-166.57 543.89,-164.73 525.30,-164.03 509.21,-164.85 501.00,-165.72 494.02,-167.83 488.88,-170.67 469.73,-184.21 423.20,-216.16 418.82,-219.14 414.35,-222.17 411.01,-225.40" fill="none" stroke="#bcbcbc" stroke-width="8" stroke-linecap="round" stroke-linejoin="round" /><polyline points="-344.05,-722.71 -327.16,-689.66 -324.61,-680.22 -310.39,-653.08 -304.51,-645.32 -280.74,-599.08 -279.22,-596.13" fill="none" stroke="#bcbcbc" stroke-width="8" stroke-linecap="round" stroke-linejoin="round" /><polyline points="173.33,-428.81 170.80,-421.87 170.09,-419.71 166.80,-409.71 145.91,-351.45 135.54,-322.51 135.19,-321.52 131.02,-312.53 128.64,-307.19" fill="none" stroke="#bcbcbc" stroke-width="8" stroke-linecap="round" stroke-linejoin="round" /><polyline points="450.44,-940.17 448.12,-945.12 442.03,-945.92 422.34,-941.41 418.34,-941.93 415.21,-946.13 409.64,-971.74 439.81,-976.41 453.78,-980.53 460.61,-981.24 467.97,-955.09" fill="none" stroke="#bcbcbc" stroke-width="8" stroke-linecap="round" stroke-linejoin="round" /><polyline points="559.49,-656.93 567.26,-661.29 606.30,-684.81 616.73,-691.02 635.00,-701.91 665.04,-721.34 672.05,-726.38 724.75,-759.06" fill="none" stroke="#bcbcbc" stroke-width="8" stroke-linecap="round" stroke-linejoin="round" /><polyline points="743.71,-502.53 730.38,-506.50 722.64,-512.85 693.03,-538.46 692.03,-539.36 684.87,-545.75 680.66,-553.20 606.30,-684.81" fill="none" stroke="#bcbcbc" stroke-width="8" stroke-linecap="round" stroke-linejoin="round" /><polyline points="-95.51,-512.96 21.16,-477.06 30.68,-474.04 117.75,-446.45 119.57,-445.87 132.61,-441.73 139.02,-439.70 147.36,-437.42 164.54,-431.60 173.33,-428.81 181.24,-426.31 246.04,-405.76 314.44,-384.27 320.10,-382.49 327.94,-386.34" fill="none" stroke="#bcbcbc" stroke-width="8" stroke-linecap="round" stroke-linejoin="round" /><polyline points="247.55,-1088.90 298.09,-1135.33 306.64,-1143.19" fill="none" stroke="#bcbcbc" stroke-width="8" stroke-linecap="round" stroke-linejoin="round" /><polyline points="-598.77,-339.66 -413.32,-319.78" fill="none" stroke="#bcbcbc" stroke-width="8" stroke-linecap="round" stroke-linejoin="round" /><polyline points="-39.32,-857.21 -0.34,-871.15 39.86,-885.68 64.84,-895.39 141.11,-923.12 163.25,-930.78 167.87,-932.38 173.42,-934.29 179.64,-936.43 180.40,-936.69 192.97,-941.74 198.43,-943.93" fill="none" stroke="#bcbcbc" stroke-width="8" stroke-linecap="round" stroke-linejoin="round" /><polyline points="222.47,85.88 259.17,131.14 281.63,153.76 291.36,160.76 305.13,172.29 318.06,183.15 329.17,193.99 329.45,199.50" fill="none" stroke="#bcbcbc" stroke-width="8" stroke-linecap="round" stroke-linejoin="round" /><polyline points="262.00,-958.08 276.38,-994.12 299.66,-1053.46 333.01,-1138.48 349.49,-1178.75 374.05,-1238.81 394.18,-1288.00 397.79,-1294.53 415.50,-1323.47 416.64,-1325.34 423.12,-1338.08 434.48,-1355.58 440.82,-1365.34 449.80,-1379.16" fill="none" stroke="#bcbcbc" stroke-width="8" stroke-linecap="round" stroke-linejoin="round" /><polyline points="-77.28,5.61 -79.64,7.49 -81.20,9.73 -84.37,19.09 -86.56,25.84 -96.69,56.13 -98.09,60.50 -98.95,63.21 -108.26,60.55 -130.90,52.96 -153.34,45.43 -170.68,44.45" fill="none" stroke="#bcbcbc" stroke-width="8" stroke-linecap="round" stroke-linejoin="round" /><polyline points="-520.74,216.41 -483.76,120.93 -479.65,110.53 -475.96,100.52 -471.50,88.42 -466.03,69.39 -460.33,45.74 -457.99,28.79 -456.29,16.48 -453.90,7.39 -445.20,-60.88 -435.03,-147.04 -429.77,-188.12 -423.90,-236.37 -413.32,-319.78 -411.64,-333.97 -400.95,-421.20 -400.94,-426.06 -398.58,-451.94 -391.76,-506.61 -390.05,-516.15 -388.27,-521.50 -385.48,-527.39 -382.77,-531.96 -376.78,-538.44 -371.43,-540.27" fill="none" stroke="#bcbcbc" stroke-width="8" stroke-linecap="round" stroke-linejoin="round" /><polyline points="286.56,-508.83 288.59,-505.62 295.37,-495.04 305.52,-478.77 307.97,-474.89 312.02,-477.96 331.66,-492.87" fill="none" stroke="#bcbcbc" stroke-width="8" stroke-linecap="round" stroke-linejoin="round" /><polyline points="299.66,-1053.46 499.47,-1017.34 520.45,-1006.30 598.74,-967.50 605.63,-969.63" fill="none" stroke="#bcbcbc" stroke-width="8" stroke-linecap="round" stroke-linejoin="round" /><polyline points="-81.80,-600.81 -85.34,-595.63 -117.22,-580.08 -140.63,-550.33 -165.89,-534.69 -183.17,-521.64 -199.66,-508.20 -208.11,-500.50 -223.03,-481.56 -239.73,-457.64 -242.48,-453.21" fill="none" stroke="#bcbcbc" stroke-width="8" stroke-linecap="round" stroke-linejoin="round" /><polyline points="-48.09,-579.46 -49.48,-576.39 -52.50,-571.97 -58.21,-564.95 -91.88,-522.42 -109.70,-474.44 -199.62,-508.24" fill="none" stroke="#bcbcbc" stroke-width="8" stroke-linecap="round" stroke-linejoin="round" /><polyline points="-183.17,-521.64 -186.65,-532.18 -201.70,-577.73 -207.54,-586.73 -217.32,-616.06 -218.16,-618.59 -216.72,-623.18 -219.06,-630.66 -266.08,-780.76" fill="none" stroke="#bcbcbc" stroke-width="8" stroke-linecap="round" stroke-linejoin="round" /><polyline points="367.74,-1340.63 404.90,-1339.65 406.63,-1339.61 413.75,-1339.40 423.12,-1338.08" fill="none" stroke="#bcbcbc" stroke-width="8" stroke-linecap="round" stroke-linejoin="round" /><polyline points="176.61,-130.38 163.93,-130.54 56.50,-116.12 48.75,-115.30 39.90,-114.37 -11.51,-108.94 -80.77,-101.63 -117.49,-97.76 -137.80,-95.61 -154.29,-93.61 -162.76,-92.58 -172.30,-91.42 -218.37,-85.82 -229.42,-84.48 -263.45,-80.76 -445.20,-60.88" fill="none" stroke="#bcbcbc" stroke-width="8" stroke-linecap="round" stroke-linejoin="round" /><polyline points="17.56,242.57 8.04,239.51 -36.41,225.20 -45.40,222.31 -53.20,219.80 -100.29,204.67 -109.57,201.68 -121.86,197.73 -196.82,173.61 -205.26,170.89" fill="none" stroke="#bcbcbc" stroke-width="8" stroke-linecap="round" stroke-linejoin="round" /><polyline points="203.43,-657.28 229.28,-649.23 323.83,-620.03 324.72,-619.76 331.73,-619.32" fill="none" stroke="#bcbcbc" stroke-width="8" stroke-linecap="round" stroke-linejoin="round" /><polyline points="469.47,-870.19 598.10,-867.93" fill="none" stroke="#bcbcbc" stroke-width="8" stroke-linecap="round" stroke-linejoin="round" /><polyline points="406.49,259.66 388.11,237.81 380.39,228.84 373.76,222.65 364.94,216.06 346.90,205.24 329.45,199.50 293.93,188.53 264.89,179.32 281.63,153.76" fill="none" stroke="#bcbcbc" stroke-width="8" stroke-linecap="round" stroke-linejoin="round" /><polyline points="222.47,85.88 196.87,54.28 192.00,48.27 166.21,12.75 160.37,1.90 161.77,-11.01 169.55,-11.08 188.73,-7.39 217.91,-1.78" fill="none" stroke="#bcbcbc" stroke-width="8" stroke-linecap="round" stroke-linejoin="round" /><polyline points="-112.45,-167.28 -107.73,-157.13 -80.77,-101.63 -40.67,-19.10 -35.56,-8.58" fill="none" stroke="#bcbcbc" stroke-width="8" stroke-linecap="round" stroke-linejoin="round" /><polyline points="-544.32,84.09 -534.68,88.04 -489.51,106.50 -479.65,110.53 -469.27,114.77 -416.10,136.52 -406.48,140.45" fill="none" stroke="#bcbcbc" stroke-width="8" stroke-linecap="round" stroke-linejoin="round" /><polyline points="-90.26,-249.57 3.84,-208.41" fill="none" stroke="#bcbcbc" stroke-width="8" stroke-linecap="round" stroke-linejoin="round" /><polyline points="331.73,-619.32 346.06,-618.57 346.98,-617.76 353.41,-612.05 362.86,-603.62 364.61,-600.22 397.19,-571.70 399.59,-567.14 422.50,-546.93 428.27,-545.17 446.09,-529.57 450.08,-527.74 476.96,-504.95 482.94,-499.64 486.24,-494.39" fill="none" stroke="#bcbcbc" stroke-width="8" stroke-linecap="round" stroke-linejoin="round" /><polyline points="-570.88,-249.48 -423.90,-236.37" fill="none" stroke="#bcbcbc" stroke-width="8" stroke-linecap="round" stroke-linejoin="round" /><polyline points="-242.70,297.75 -238.15,288.06 -236.98,283.74 -230.59,260.21 -207.47,178.70 -205.26,170.89 -202.92,162.33 -192.45,124.03 -174.76,59.36 -170.68,44.45" fill="none" stroke="#bcbcbc" stroke-width="8" stroke-linecap="round" stroke-linejoin="round" /><polyline points="-112.45,-167.28 -90.26,-249.57 -137.31,-266.03 -149.63,-258.76 -155.25,-254.49 -159.41,-248.86 -162.33,-241.44 -173.15,-201.45 -164.42,-197.00 -155.60,-194.86 -136.10,-189.79 -121.51,-185.14 -112.45,-167.28" fill="none" stroke="#bcbcbc" stroke-width="8" stroke-linecap="round" stroke-linejoin="round" /><polyline points="-173.15,-201.45 -183.46,-202.88 -423.90,-236.37" fill="none" stroke="#bcbcbc" stroke-width="8" stroke-linecap="round" stroke-linejoin="round" /><polyline points="217.91,-1.78 240.22,3.09 300.53,22.26 317.40,27.59 357.43,39.15 397.75,50.78 427.60,59.41 475.35,73.19 485.21,76.04 509.31,84.11 548.98,94.68 552.47,95.33" fill="none" stroke="#bcbcbc" stroke-width="8" stroke-linecap="round" stroke-linejoin="round" /><polyline points="246.21,346.62 238.07,348.66 229.27,373.17 215.63,369.30 153.59,348.16 146.12,346.57 129.51,345.38 54.38,345.68 37.82,343.57 0.42,337.85 -14.66,335.40 -121.66,318.15 -163.10,311.54 -242.12,297.85 -254.87,295.32 -433.21,245.49 -444.46,242.34 -520.74,216.41 -539.51,209.76 -586.39,190.33 -613.11,180.22" fill="none" stroke="#bcbcbc" stroke-width="8" stroke-linecap="round" stroke-linejoin="round" /><polyline points="409.64,-971.74 401.92,-973.33 298.85,-961.15 262.00,-958.08" fill="none" stroke="#bcbcbc" stroke-width="8" stroke-linecap="round" stroke-linejoin="round" /><polyline points="217.91,-1.78 221.53,-7.82 243.16,-63.36 267.32,-147.34 273.49,-165.43 276.78,-170.35 300.12,-245.24 301.27,-254.18 302.16,-260.02" fill="none" stroke="#bcbcbc" stroke-width="8" stroke-linecap="round" stroke-linejoin="round" /><polyline points="324.13,-813.02 326.60,-813.96 329.93,-816.61 335.00,-822.54 400.82,-916.96 418.34,-941.93" fill="none" stroke="#bcbcbc" stroke-width="8" stroke-linecap="round" stroke-linejoin="round" /><polyline points="617.04,-466.19 618.38,-470.07 651.46,-508.98 653.89,-510.27 659.64,-518.14 678.88,-540.24 684.87,-545.75" fill="none" stroke="#bcbcbc" stroke-width="8" stroke-linecap="round" stroke-linejoin="round" /><polyline points="645.94,-177.41 645.49,-182.61 645.13,-186.64 643.39,-194.34 641.31,-199.37 638.71,-212.57 638.47,-217.35 636.71,-228.03 628.84,-232.14 622.54,-229.74 611.28,-227.04 602.36,-225.65 593.81,-223.58 582.01,-220.89 576.62,-219.66" fill="none" stroke="#bcbcbc" stroke-width="8" stroke-linecap="round" stroke-linejoin="round" /><polyline points="-223.19,-368.52 -199.13,-424.91 -197.79,-428.57" fill="none" stroke="#bcbcbc" stroke-width="8" stroke-linecap="round" stroke-linejoin="round" /><polyline points="410.86,-471.92 422.46,-476.41 428.52,-478.76 433.21,-483.50 452.54,-488.27 459.03,-486.62 473.03,-490.22 483.70,-492.97 486.24,-494.39 496.59,-496.92 549.51,-509.89 561.51,-513.47" fill="none" stroke="#bcbcbc" stroke-width="8" stroke-linecap="round" stroke-linejoin="round" /><polyline points="-77.28,5.61 -52.32,-3.46 -43.97,-6.01 -35.56,-8.58 -20.04,-13.32 -7.98,-15.05 33.25,-19.56 41.53,-20.01 78.41,-19.70 100.88,-19.51 109.33,-19.94 122.86,-18.57 127.09,-17.96 135.72,-16.73 161.77,-11.01" fill="none" stroke="#bcbcbc" stroke-width="8" stroke-linecap="round" stroke-linejoin="round" /><polyline points="41.66,-735.45 37.53,-749.43 22.17,-801.36 3.51,-860.58 -0.34,-871.15 -4.26,-881.05 -9.20,-895.33" fill="none" stroke="#bcbcbc" stroke-width="8" stroke-linecap="round" stroke-linejoin="round" /><polyline points="-3.01,101.87 0.27,91.51 33.45,-13.13 33.25,-19.56" fill="none" stroke="#bcbcbc" stroke-width="8" stroke-linecap="round" stroke-linejoin="round" /><polyline points="41.53,-20.01 48.10,-108.12 48.75,-115.30 49.76,-123.66 49.78,-124.04 50.21,-134.26 52.40,-161.99 53.64,-174.91 55.33,-189.58 56.87,-200.14 58.25,-206.78 59.99,-211.79 63.40,-223.09 70.45,-246.61 79.42,-276.98 89.30,-308.03 91.32,-314.36 92.94,-318.95" fill="none" stroke="#bcbcbc" stroke-width="8" stroke-linecap="round" stroke-linejoin="round" /><polyline points="-173.15,-201.45 -174.90,-193.64 -174.60,-191.14 -163.89,-102.02 -162.76,-92.58 -163.25,-82.87 -166.05,-27.43 -167.23,-4.28 -167.83,7.67 -168.91,28.96 -169.47,40.05 -170.68,44.45" fill="none" stroke="#bcbcbc" stroke-width="8" stroke-linecap="round" stroke-linejoin="round" /><polyline points="-223.19,-368.52 -262.11,-380.09 -267.06,-383.26 -291.29,-390.32 -298.10,-390.25 -328.54,-399.41 -333.46,-403.04 -361.16,-411.44 -395.14,-420.70 -395.31,-420.72 -400.95,-421.20" fill="none" stroke="#bcbcbc" stroke-width="8" stroke-linecap="round" stroke-linejoin="round" /><polyline points="486.24,-494.39 487.59,-492.61 493.24,-484.20 503.67,-468.65 513.50,-458.81 532.38,-437.62 529.19,-418.03 527.57,-410.68 525.32,-407.58 530.05,-400.57 537.37,-385.50 552.01,-357.27 559.22,-343.36 563.70,-330.87 565.72,-325.07" fill="none" stroke="#bcbcbc" stroke-width="8" stroke-linecap="round" stroke-linejoin="round" /><polyline points="584.83,-454.05 579.41,-452.36 543.66,-441.24 538.53,-439.59 532.38,-437.62" fill="none" stroke="#bcbcbc" stroke-width="8" stroke-linecap="round" stroke-linejoin="round" /><polyline points="327.94,-386.34 339.12,-389.96 420.26,-431.39 431.12,-436.70 469.37,-447.74 506.45,-458.16 513.50,-458.81" fill="none" stroke="#bcbcbc" stroke-width="8" stroke-linecap="round" stroke-linejoin="round" /><polyline points="336.78,-335.05 430.33,-378.58 434.27,-381.18 443.41,-383.84 505.75,-401.98 515.20,-405.60 525.32,-407.58" fill="none" stroke="#bcbcbc" stroke-width="8" stroke-linecap="round" stroke-linejoin="round" /><polyline points="317.69,-1247.56 355.56,-1242.88 359.36,-1242.41 374.05,-1238.81" fill="none" stroke="#bcbcbc" stroke-width="8" stroke-linecap="round" stroke-linejoin="round" /><polyline points="641.30,-862.62 648.01,-864.02 673.10,-851.72 676.41,-848.45 723.51,-768.73 724.75,-759.06 730.88,-753.96 729.90,-750.44 729.76,-744.69 730.61,-736.66 743.08,-685.39 744.18,-649.89 745.93,-593.19 748.86,-516.89 736.92,-483.64 729.22,-463.37 717.99,-434.80 714.73,-426.54 712.62,-424.23 709.23,-402.12" fill="none" stroke="#bcbcbc" stroke-width="8" stroke-linecap="round" stroke-linejoin="round" /><polyline points="728.38,-267.46 716.92,-272.44 688.30,-292.42 650.53,-318.95 629.76,-335.75 615.74,-350.76" fill="none" stroke="#bcbcbc" stroke-width="8" stroke-linecap="round" stroke-linejoin="round" /><polyline points="264.89,179.31 253.64,175.75 235.38,169.96 226.67,167.20 216.44,163.96 203.51,159.86 191.81,156.15 180.26,152.49 128.73,136.13 119.70,133.27 108.49,129.72 106.02,128.94 76.54,121.15 68.22,119.14 57.79,116.62 46.87,113.97 7.54,104.43 -3.01,101.87 -14.35,97.94 -38.04,89.71 -46.96,86.61 -54.95,84.02 -92.04,70.84 -96.71,68.05 -98.95,63.21" fill="none" stroke="#bcbcbc" stroke-width="8" stroke-linecap="round" stroke-linejoin="round" /><polyline points="434.27,-381.18 431.54,-390.97 423.39,-420.16 420.26,-431.39 415.74,-439.78 415.32,-441.34 412.65,-451.22 415.75,-455.59 412.02,-468.05 410.86,-471.92" fill="none" stroke="#bcbcbc" stroke-width="8" stroke-linecap="round" stroke-linejoin="round" /><polyline points="420.65,-738.39 428.39,-742.03 470.68,-765.34 494.86,-780.89 511.91,-792.52 515.67,-795.32 529.39,-804.86 543.62,-815.36 552.62,-821.91 563.35,-829.76 600.66,-846.59 605.50,-846.34 612.57,-849.68 641.30,-862.62" fill="none" stroke="#bcbcbc" stroke-width="8" stroke-linecap="round" stroke-linejoin="round" /><polyline points="-48.09,-579.46 -41.99,-576.99 -37.96,-575.75 37.67,-552.52 49.22,-548.98" fill="none" stroke="#bcbcbc" stroke-width="8" stroke-linecap="round" stroke-linejoin="round" /><polyline points="-588.29,-409.41 -642.32,-425.76" fill="none" stroke="#bcbcbc" stroke-width="8" stroke-linecap="round" stroke-linejoin="round" /><polyline points="284.48,-1171.26 297.88,-1154.29 299.88,-1151.75 306.64,-1143.19 314.35,-1142.28 330.19,-1140.42 333.01,-1138.48" fill="none" stroke="#bcbcbc" stroke-width="8" stroke-linecap="round" stroke-linejoin="round" /><polyline points="749.68,-416.53 728.45,-412.57 706.69,-400.74 686.51,-389.52 667.43,-379.97 644.37,-367.45 627.67,-357.32 594.67,-339.63 465.86,-274.83 432.46,-260.12 410.40,-250.58 399.46,-247.00 390.42,-245.31 375.61,-244.42 354.54,-247.40 301.96,-260.02 227.31,-277.41 129.11,-307.03 92.94,-318.95 33.70,-337.24 -22.96,-355.92 -106.05,-388.52 -147.60,-406.41 -197.69,-428.67 -280.78,-474.19 -300.26,-487.11 -349.56,-518.11 -370.24,-538.78 -401.25,-578.93 -452.33,-631.60 -472.41,-649.29" fill="none" stroke="#bcbcbc" stroke-width="8" stroke-linecap="round" stroke-linejoin="round" /><polyline points="346.90,205.24 347.77,200.38 350.91,192.45 380.38,123.51 391.51,97.67 404.63,65.47 407.83,53.69" fill="none" stroke="#bcbcbc" stroke-width="8" stroke-linecap="round" stroke-linejoin="round" /><polyline points="-218.37,-85.82 -251.85,-102.02 -328.01,-138.88 -421.43,-184.08 -429.77,-188.12" fill="none" stroke="#bcbcbc" stroke-width="8" stroke-linecap="round" stroke-linejoin="round" /><polyline points="331.73,-619.32 340.18,-627.97 362.65,-650.98 380.49,-670.45" fill="none" stroke="#bcbcbc" stroke-width="8" stroke-linecap="round" stroke-linejoin="round" /><polyline points="-317.19,-568.08 -326.47,-580.37 -369.98,-637.97 -432.09,-688.22" fill="none" stroke="#bcbcbc" stroke-width="8" stroke-linecap="round" stroke-linejoin="round" /><polyline points="-586.72,190.19 -578.23,170.05 -551.23,102.73 -547.95,93.90 -544.32,84.09 -542.94,80.56 -542.58,75.02 -539.12,22.68 -538.13,7.67" fill="none" stroke="#bcbcbc" stroke-width="8" stroke-linecap="round" stroke-linejoin="round" /><polyline points="-605.15,-350.95 -588.29,-409.41 -566.05,-486.53 -563.29,-496.07 -560.23,-506.91 -553.38,-531.19 -552.66,-533.74 -550.69,-541.55 -547.56,-550.38 -546.80,-552.51 -542.85,-562.31 -535.09,-579.43 -532.77,-584.35" fill="none" stroke="#bcbcbc" stroke-width="8" stroke-linecap="round" stroke-linejoin="round" /><polyline points="-563.29,-496.07 -529.18,-487.35 -456.92,-468.78 -415.75,-455.96 -398.58,-451.94" fill="none" stroke="#bcbcbc" stroke-width="8" stroke-linecap="round" stroke-linejoin="round" /><polyline points="138.89,-761.35 140.05,-768.45 141.21,-775.82 146.22,-800.47 158.72,-857.85 168.99,-909.18 170.87,-919.83 173.42,-934.29 173.42,-934.30" fill="none" stroke="#bcbcbc" stroke-width="8" stroke-linecap="round" stroke-linejoin="round" /><polyline points="37.89,343.58 53.12,304.74 55.01,297.76 115.46,144.34 119.70,133.27 123.14,123.88 159.26,18.82 166.21,12.75" fill="none" stroke="#bcbcbc" stroke-width="8" stroke-linecap="round" stroke-linejoin="round" /><polyline points="245.08,-791.05 245.08,-791.06 242.94,-802.30 242.60,-803.66 237.38,-824.90 237.38,-824.96 233.82,-839.36 218.74,-891.05 216.84,-896.58 206.65,-924.27 203.34,-932.54 201.20,-937.87 198.43,-943.92 198.43,-943.93 198.43,-943.96 196.41,-966.22 196.21,-977.15" fill="none" stroke="#bcbcbc" stroke-width="8" stroke-linecap="round" stroke-linejoin="round" /><polyline points="222.47,85.88 218.59,90.07 212.81,96.95 196.53,142.86 191.81,156.15" fill="none" stroke="#bcbcbc" stroke-width="8" stroke-linecap="round" stroke-linejoin="round" /><polyline points="-48.09,-579.46 -45.87,-585.49 -45.37,-586.89 -34.79,-616.42 -30.83,-628.87 1.58,-724.15" fill="none" stroke="#bcbcbc" stroke-width="8" stroke-linecap="round" stroke-linejoin="round" /><polyline points="119.57,-445.87 122.87,-454.65 131.83,-478.44 135.61,-488.50 138.18,-495.30 145.36,-514.39 150.11,-527.00 150.75,-528.70 162.25,-559.25 167.06,-557.75 169.67,-564.85 174.28,-577.39 173.39,-583.09 185.63,-616.40 186.89,-619.82 189.21,-621.95 191.16,-623.74 203.43,-657.28 205.20,-666.46 222.81,-715.37 226.97,-718.63 235.44,-742.58 233.93,-746.26 241.35,-768.64 237.50,-788.62" fill="none" stroke="#bcbcbc" stroke-width="8" stroke-linecap="round" stroke-linejoin="round" /><polyline points="434.48,-1355.58 429.55,-1363.67 403.63,-1406.19" fill="none" stroke="#bcbcbc" stroke-width="8" stroke-linecap="round" stroke-linejoin="round" /><polyline points="515.67,-795.32 634.63,-718.84 634.66,-718.79 634.66,-718.77 656.66,-715.92" fill="none" stroke="#bcbcbc" stroke-width="8" stroke-linecap="round" stroke-linejoin="round" /><polyline points="467.97,-955.09 594.53,-891.57 598.35,-888.72 598.10,-867.93 600.66,-846.59" fill="none" stroke="#bcbcbc" stroke-width="8" stroke-linecap="round" stroke-linejoin="round" /><polyline points="582.97,-174.41 583.72,-181.46 583.89,-188.04 583.83,-188.27 579.35,-207.66 577.51,-215.76 576.62,-219.66 575.72,-223.66 570.79,-245.34 561.18,-288.68 554.19,-314.74 553.20,-318.76" fill="none" stroke="#bcbcbc" stroke-width="8" stroke-linecap="round" stroke-linejoin="round" /><polyline points="-45.40,222.31 -42.26,213.39 -7.01,113.24 -3.01,101.87" fill="none" stroke="#bcbcbc" stroke-width="8" stroke-linecap="round" stroke-linejoin="round" /><polyline points="745.93,-593.19 735.56,-596.12 665.15,-704.16 656.66,-715.92" fill="none" stroke="#bcbcbc" stroke-width="8" stroke-linecap="round" stroke-linejoin="round" /><polyline points="-411.64,-333.97 -155.01,-272.49 -137.31,-266.03" fill="none" stroke="#bcbcbc" stroke-width="8" stroke-linecap="round" stroke-linejoin="round" /><polyline points="397.79,-1294.53 497.75,-1257.50 511.83,-1259.90" fill="none" stroke="#bcbcbc" stroke-width="8" stroke-linecap="round" stroke-linejoin="round" />
    <polyline points="226.67,167.20 222.12,181.09 203.68,237.32 172.31,332.02 170.08,338.74 167.83,345.55 167.20,352.80" fill="none" stroke="#ffffff" stroke-width="16" stroke-linecap="round" stroke-linejoin="round" />
    <polyline points="226.67,167.20 222.12,181.09 203.68,237.32 172.31,332.02 170.08,338.74 167.83,345.55 167.20,352.80" fill="none" stroke="#111111" stroke-width="9" stroke-linecap="round" stroke-linejoin="round" />
    
            <g transform="translate(226.67,167.20)">
              <circle r="19" fill="#ffffff" stroke="#111111" stroke-width="4" />
              <text text-anchor="middle" dominant-baseline="central" font-family="Helvetica, Arial, sans-serif"
                font-size="18" font-weight="700" fill="#111111">1</text>
            </g>
            
            <g transform="translate(167.20,352.80)">
              <circle r="19" fill="#ffffff" stroke="#111111" stroke-width="4" />
              <text text-anchor="middle" dominant-baseline="central" font-family="Helvetica, Arial, sans-serif"
                font-size="18" font-weight="700" fill="#111111">2</text>
            </g>
            
  </g>
</svg>
