<svg xmlns="http://www.w3.org/2000/svg" width="520" height="520" viewBox="0 0 520 520">
  <rect width="100%" height="100%" fill="#ffffff" />
  <g>
    <polyline points="280.46,-532.04 283.52,-515.79 303.23,-377.90 300.22,-343.43" fill="none" stroke="#bcbcbc" stroke-width="8" stroke-linecap="round" stroke-linejoin="round" /><polyline points="-120.20,617.05 -115.43,602.40 -90.18,524.75 -87.21,515.60 -84.19,505.99 -20.70,303.52 -15.59,287.24 -27.29,258.43" fill="none" stroke="#bcbcbc" stroke-width="8" stroke-linecap="round" stroke-linejoin="round" /><polyline points="-558.78,436.97 -559.81,425.34 -539.05,309.08 -536.14,294.54 -533.96,286.92 -528.25,257.44 -521.83,221.35 -514.83,189.57 -507.89,157.86 -503.52,148.92 -500.66,143.44" fill="none" stroke="#bcbcbc" stroke-width="8" stroke-linecap="round" stroke-linejoin="round" /><polyline points="-438.29,-383.10 -443.22,-398.15 -494.24,-553.73 -496.73,-560.25" fill="none" stroke="#bcbcbc" stroke-width="8" stroke-linecap="round" stroke-linejoin="round" /><polyline points="-700.04,986.14 -698.52,971.30 -697.90,964.48 -692.35,903.06 -686.27,848.97 -684.85,836.34 -683.53,821.19 -683.39,819.91 -679.94,789.79 -676.97,759.17 -673.69,729.62 -671.49,706.62 -670.57,692.42 -669.76,679.31 -668.31,664.53" fill="none" stroke="#bcbcbc" stroke-width="8" stroke-linecap="round" stroke-linejoin="round" /><polyline points="4.82,653.15 8.46,641.73 34.06,561.26 36.96,552.12 41.10,539.09 44.06,529.76 66.72,432.05" fill="none" stroke="#bcbcbc" stroke-width="8" stroke-linecap="round" stroke-linejoin="round" /><polyline points="-94.68,-938.50 -85.23,-937.05 175.26,-897.03" fill="none" stroke="#bcbcbc" stroke-width="8" stroke-linecap="round" stroke-linejoin="round" /><polyline points="-763.41,634.19 -790.53,632.93 -807.06,632.16 -816.04,631.74 -823.92,631.37 -885.32,628.52 -970.72,624.55 -1011.42,618.78 -1025.04,616.84 -1036.87,614.76 -1116.92,600.63 -1128.11,598.65 -1130.59,598.23 -1144.42,595.86 -1155.04,594.04 -1222.88,588.04 -1235.80,586.90 -1240.54,586.48 -1255.20,585.46 -1283.92,583.47" fill="none" stroke="#bcbcbc" stroke-width="8" stroke-linecap="round" stroke-linejoin="round" /><polyline points="-369.51,555.53 -364.26,540.58 -316.93,409.40 -260.00,243.94 -256.35,233.57 -253.81,226.32 -251.75,220.36" fill="none" stroke="#bcbcbc" stroke-width="8" stroke-linecap="round" stroke-linejoin="round" /><polyline points="-1240.54,586.48 -1241.75,578.05 -1242.03,568.89 -1240.24,550.44 -1236.12,516.76 -1233.37,505.45 -1228.91,464.57 -1228.09,455.47 -1226.79,443.76 -1225.82,435.07 -1223.99,425.22 -1220.60,398.71 -1218.25,378.43 -1214.79,370.13" fill="none" stroke="#bcbcbc" stroke-width="8" stroke-linecap="round" stroke-linejoin="round" /><polyline points="-1288.97,359.77 -1225.85,368.58 -1214.79,370.13 -1207.93,371.22 -1179.64,375.73 -1114.45,386.12 -1103.26,387.98" fill="none" stroke="#bcbcbc" stroke-width="8" stroke-linecap="round" stroke-linejoin="round" /><polyline points="-127.28,-468.27 -126.87,-462.54 -126.02,-456.73 -123.97,-452.28 -120.14,-447.32 -113.04,-440.85 -96.21,-430.62 33.57,-349.20 113.50,-242.04 173.88,-93.04 177.82,-83.20" fill="none" stroke="#bcbcbc" stroke-width="8" stroke-linecap="round" stroke-linejoin="round" /><polyline points="-148.06,-33.53 -145.37,-29.08 -144.68,-27.92 -142.45,-16.68 -127.22,56.95 -122.39,80.32 -118.93,96.96 -113.54,130.70 -111.02,146.26 -109.28,155.75 -107.38,164.32 -105.11,169.33 -101.78,175.11 -99.99,177.85 -66.27,226.12 -48.03,254.84 -43.27,261.71" fill="none" stroke="#bcbcbc" stroke-width="8" stroke-linecap="round" stroke-linejoin="round" /><polyline points="-1116.15,888.39 -1114.36,877.35 -1112.69,869.35 -1112.24,868.30 -1089.80,814.93 -1075.50,780.25 -1071.15,769.25 -1066.55,757.61 -1061.55,747.61 -1060.74,745.65 -1053.90,729.11 -1048.61,714.47 -1044.07,701.05 -1041.19,691.55 -1037.96,679.83 -1034.23,664.11 -1031.41,651.35 -1028.03,633.55 -1027.32,629.58 -1025.04,616.84" fill="none" stroke="#bcbcbc" stroke-width="8" stroke-linecap="round" stroke-linejoin="round" /><polyline points="-28.70,-601.91 42.87,-551.90 52.51,-549.85 59.57,-541.78" fill="none" stroke="#bcbcbc" stroke-width="8" stroke-linecap="round" stroke-linejoin="round" /><polyline points="-329.21,-140.08 -319.75,-136.44 -278.69,-123.01 -183.43,-86.48 -178.09,-81.15 -175.58,-77.17" fill="none" stroke="#bcbcbc" stroke-width="8" stroke-linecap="round" stroke-linejoin="round" /><polyline points="-151.71,798.55 -145.22,781.65 -113.20,694.78 -90.56,629.14 -85.87,626.98" fill="none" stroke="#bcbcbc" stroke-width="8" stroke-linecap="round" stroke-linejoin="round" /><polyline points="-604.36,688.40 -599.31,677.23 -598.81,676.12 -590.16,647.12 -576.00,599.39 -572.37,587.18 -569.56,577.69 -569.18,572.16 -569.75,559.92" fill="none" stroke="#bcbcbc" stroke-width="8" stroke-linecap="round" stroke-linejoin="round" /><polyline points="-15.78,-29.72 -23.90,-28.04 -42.30,-31.32 -45.15,-38.90 -77.02,-51.06 -84.56,-49.09 -113.32,-59.64 -117.61,-56.65" fill="none" stroke="#bcbcbc" stroke-width="8" stroke-linecap="round" stroke-linejoin="round" /><polyline points="-63.11,-1015.71 -48.67,-1012.18 -40.68,-1010.79 149.35,-977.84" fill="none" stroke="#bcbcbc" stroke-width="8" stroke-linecap="round" stroke-linejoin="round" /><polyline points="-210.80,745.65 -202.90,723.37 -187.54,680.06 -177.61,661.61 -163.33,621.62 -157.62,605.66" fill="none" stroke="#bcbcbc" stroke-width="8" stroke-linecap="round" stroke-linejoin="round" /><polyline points="-1251.95,-119.24 -1265.72,-119.88 -1269.17,-115.69 -1293.14,-86.55 -1376.96,10.26 -1388.75,23.88" fill="none" stroke="#bcbcbc" stroke-width="8" stroke-linecap="round" stroke-linejoin="round" /><polyline points="-516.78,-36.33 -522.86,-22.88 -523.59,-21.25 -544.70,33.79 -565.98,94.38 -571.65,110.54 -574.87,118.88" fill="none" stroke="#bcbcbc" stroke-width="8" stroke-linecap="round" stroke-linejoin="round" /><polyline points="-207.16,-654.77 -200.45,-645.68 -195.66,-633.17 -188.21,-615.21 -176.25,-586.97 -165.66,-561.62 -153.51,-533.78 -144.49,-512.33 -143.15,-509.25 -143.07,-509.06 -135.81,-492.09 -133.64,-487.27 -131.58,-482.68 -129.40,-478.38 -127.76,-474.01 -127.28,-468.27" fill="none" stroke="#bcbcbc" stroke-width="8" stroke-linecap="round" stroke-linejoin="round" /><polyline points="-720.51,235.00 -717.00,233.08 -712.09,229.18 -709.63,224.12 -677.02,100.46 -676.04,93.49 -672.06,80.75" fill="none" stroke="#bcbcbc" stroke-width="8" stroke-linecap="round" stroke-linejoin="round" /><polyline points="419.80,41.50 424.43,56.18 427.68,71.60 421.35,130.37 414.02,174.58 410.02,189.66 409.66,191.03 406.15,199.17 401.37,207.80 390.22,221.91 395.62,249.50 378.14,308.72 368.49,341.42 348.75,394.96 319.84,460.14 284.53,522.60 273.51,542.90 253.58,576.25 173.94,689.28 156.49,712.79 88.93,801.08 50.14,845.21 -4.12,900.35 -9.14,900.87 -21.40,910.89" fill="none" stroke="#bcbcbc" stroke-width="8" stroke-linecap="round" stroke-linejoin="round" /><polyline points="-562.84,1008.27 -540.61,939.33 -536.97,927.94 -532.03,920.77 -521.41,888.91 -517.96,878.09 -474.10,740.78 -469.69,726.97 -466.06,714.84 -414.30,551.96" fill="none" stroke="#bcbcbc" stroke-width="8" stroke-linecap="round" stroke-linejoin="round" /><polyline points="-42.07,-273.86 -22.85,-294.86 -17.18,-301.69 21.64,-356.69" fill="none" stroke="#bcbcbc" stroke-width="8" stroke-linecap="round" stroke-linejoin="round" /><polyline points="-426.17,-265.54 -373.25,-247.12 -370.33,-242.37 -355.30,-237.33 -346.38,-234.28 -303.73,-219.87" fill="none" stroke="#bcbcbc" stroke-width="8" stroke-linecap="round" stroke-linejoin="round" /><polyline points="35.09,-631.75 59.57,-541.78 87.90,-435.80 92.20,-426.96 92.88,-416.88 112.10,-381.00 163.96,-284.31 175.29,-267.58 178.57,-262.69 256.05,-117.84 291.66,-85.48 296.65,-79.03 303.69,-73.01 371.30,-15.20 375.89,-11.28 388.03,-4.83" fill="none" stroke="#bcbcbc" stroke-width="8" stroke-linecap="round" stroke-linejoin="round" /><polyline points="-227.84,1022.91 -59.24,924.97 -29.22,909.62 -21.40,910.89" fill="none" stroke="#bcbcbc" stroke-width="8" stroke-linecap="round" stroke-linejoin="round" /><polyline points="-45.04,882.80 -34.57,870.36 59.34,682.97 65.57,670.68 70.76,658.52 101.10,583.50 110.13,560.90 136.28,481.77 153.23,380.04 155.24,365.24" fill="none" stroke="#bcbcbc" stroke-width="8" stroke-linecap="round" stroke-linejoin="round" /><polyline points="-117.52,-219.23 -119.16,-217.55 -121.42,-209.66 -121.65,-208.88 -131.84,-169.63 -129.16,-159.39 -131.39,-150.21 -134.30,-138.18 -141.76,-129.54 -150.22,-95.26 -160.19,-87.72 -170.84,-80.43 -175.58,-77.17" fill="none" stroke="#bcbcbc" stroke-width="8" stroke-linecap="round" stroke-linejoin="round" /><polyline points="-516.78,-36.33 -512.45,-47.43 -486.39,-114.22 -480.71,-128.79 -476.03,-140.78 -442.74,-226.08 -427.75,-261.74 -426.17,-265.54 -414.52,-293.71 -388.39,-358.60 -378.82,-386.23 -376.69,-392.56 -373.82,-399.75" fill="none" stroke="#bcbcbc" stroke-width="8" stroke-linecap="round" stroke-linejoin="round" /><polyline points="-225.23,-441.20 -220.19,-426.20 -54.83,-284.97 35.40,-206.47 170.17,-89.32 181.93,-79.91 187.20,-76.61 210.59,-55.39 241.82,-28.75 312.65,31.65 335.53,51.32 350.72,69.48" fill="none" stroke="#bcbcbc" stroke-width="8" stroke-linecap="round" stroke-linejoin="round" /><polyline points="48.17,-684.56 56.56,-689.94 106.25,-710.59 116.46,-721.33" fill="none" stroke="#bcbcbc" stroke-width="8" stroke-linecap="round" stroke-linejoin="round" /><polyline points="105.56,572.33 36.96,552.12 -87.21,515.60" fill="none" stroke="#bcbcbc" stroke-width="8" stroke-linecap="round" stroke-linejoin="round" /><polyline points="-115.87,-886.72 -106.50,-880.26 198.83,-812.33" fill="none" stroke="#bcbcbc" stroke-width="8" stroke-linecap="round" stroke-linejoin="round" /><polyline points="261.28,118.52 245.50,83.41 210.48,-0.10 207.87,-6.74 201.88,-21.98 179.31,-79.42 177.89,-83.14" fill="none" stroke="#bcbcbc" stroke-width="8" stroke-linecap="round" stroke-linejoin="round" /><polyline points="-207.16,-654.77 -224.11,-659.60 -236.57,-663.31 -261.88,-670.82 -274.75,-674.49 -282.12,-676.54 -291.74,-679.30" fill="none" stroke="#bcbcbc" stroke-width="8" stroke-linecap="round" stroke-linejoin="round" /><polyline points="-649.14,-195.43 -650.00,-198.23 -650.79,-200.20 -654.28,-208.88 -667.82,-240.43 -680.68,-272.48 -683.46,-280.05 -686.66,-288.77 -688.95,-295.90 -692.73,-306.59 -693.12,-307.71 -705.43,-338.04 -728.02,-395.05 -733.10,-397.94 -736.71,-407.18 -743.91,-432.22 -756.26,-463.25 -758.92,-470.30" fill="none" stroke="#bcbcbc" stroke-width="8" stroke-linecap="round" stroke-linejoin="round" /><polyline points="-540.61,939.33 -527.78,943.26 -486.27,955.91 -473.26,959.87" fill="none" stroke="#bcbcbc" stroke-width="8" stroke-linecap="round" stroke-linejoin="round" /><polyline points="234.61,-669.63 237.03,-679.41 236.04,-683.13 234.86,-687.61 227.28,-715.38 210.38,-774.07 201.47,-804.08 198.83,-812.33 175.26,-897.03 162.54,-942.71 149.35,-977.84 137.42,-1009.53 125.55,-1031.32 114.02,-1042.84 25.47,-1151.03 18.92,-1158.73 14.58,-1165.85" fill="none" stroke="#bcbcbc" stroke-width="8" stroke-linecap="round" stroke-linejoin="round" /><polyline points="-127.28,-468.27 -131.85,-466.53 -140.29,-464.20 -141.13,-463.96 -176.40,-454.95 -216.95,-443.53 -225.23,-441.20 -228.91,-440.03 -238.65,-436.90 -246.98,-434.58 -283.34,-424.46 -343.14,-407.48 -365.43,-401.84 -373.82,-399.75 -413.67,-389.96 -438.29,-383.10 -490.42,-368.54 -541.95,-354.02 -547.91,-352.36 -590.97,-340.41 -610.84,-334.90 -620.87,-330.16 -639.86,-320.75 -677.57,-301.61 -680.19,-300.28 -688.95,-295.90 -694.29,-293.22 -701.74,-289.32 -728.23,-275.43 -776.51,-248.34 -816.83,-227.22 -822.60,-224.20 -830.30,-223.72 -834.93,-221.26 -835.86,-220.77 -879.60,-196.79 -888.77,-196.83 -899.28,-191.33 -902.95,-189.41 -906.05,-187.79 -913.36,-183.96 -919.13,-170.82 -943.89,-157.56 -951.76,-153.35 -960.28,-148.71 -994.72,-129.96 -1012.53,-120.27 -1021.51,-117.69" fill="none" stroke="#bcbcbc" stroke-width="8" stroke-linecap="round" stroke-linejoin="round" /><polyline points="368.49,341.42 350.11,343.11 292.69,348.37 290.10,348.61 286.44,348.94 280.51,349.49 224.84,354.60 205.47,352.80 182.93,358.45 164.86,362.88 155.24,365.24 131.34,366.14 110.65,365.09 100.10,363.97 91.13,361.25 84.52,357.60 59.90,340.19 0.08,299.11 -5.56,295.29 -11.30,291.39 -15.59,287.24" fill="none" stroke="#bcbcbc" stroke-width="8" stroke-linecap="round" stroke-linejoin="round" /><polyline points="-986.29,-352.16 -964.58,-309.67 -961.30,-297.53 -943.01,-262.64 -935.46,-252.67 -904.91,-193.21 -902.95,-189.41" fill="none" stroke="#bcbcbc" stroke-width="8" stroke-linecap="round" stroke-linejoin="round" /><polyline points="-321.15,25.70 -324.40,34.64 -325.31,37.41 -329.55,50.26 -356.40,125.18 -369.73,162.38 -370.19,163.65 -375.54,175.21 -378.61,182.08" fill="none" stroke="#bcbcbc" stroke-width="8" stroke-linecap="round" stroke-linejoin="round" /><polyline points="35.09,-631.75 32.11,-638.12 24.29,-639.15 -1.02,-633.34 -6.16,-634.01 -10.20,-639.41 -17.36,-672.34 21.44,-678.35 39.39,-683.65 48.17,-684.56 57.63,-650.94" fill="none" stroke="#bcbcbc" stroke-width="8" stroke-linecap="round" stroke-linejoin="round" /><polyline points="175.29,-267.58 185.28,-273.19 235.47,-303.43 248.88,-311.42 272.36,-325.42 310.99,-350.40 320.00,-356.88 387.75,-398.90" fill="none" stroke="#bcbcbc" stroke-width="8" stroke-linecap="round" stroke-linejoin="round" /><polyline points="412.12,-69.07 394.99,-74.17 385.03,-82.34 346.98,-115.27 345.68,-116.43 336.48,-124.64 331.07,-134.22 235.47,-303.43" fill="none" stroke="#bcbcbc" stroke-width="8" stroke-linecap="round" stroke-linejoin="round" /><polyline points="-666.78,-82.48 -516.78,-36.33 -504.54,-32.45 -392.61,3.03 -390.27,3.77 -373.50,9.09 -365.26,11.71 -354.55,14.64 -332.45,22.12 -321.15,25.70 -310.98,28.93 -227.68,55.35 -139.74,82.98 -132.47,85.26 -122.39,80.32" fill="none" stroke="#bcbcbc" stroke-width="8" stroke-linecap="round" stroke-linejoin="round" /><polyline points="-225.74,-822.97 -160.77,-882.67 -149.77,-892.78" fill="none" stroke="#bcbcbc" stroke-width="8" stroke-linecap="round" stroke-linejoin="round" /><polyline points="-1313.76,140.33 -1075.35,165.89" fill="none" stroke="#bcbcbc" stroke-width="8" stroke-linecap="round" stroke-linejoin="round" /><polyline points="-594.54,-525.09 -544.43,-543.01 -492.74,-561.69 -460.62,-574.18 -362.57,-609.84 -334.11,-619.68 -328.17,-621.74 -321.04,-624.19 -313.04,-626.94 -312.06,-627.28 -295.91,-633.77 -288.89,-636.59" fill="none" stroke="#bcbcbc" stroke-width="8" stroke-linecap="round" stroke-linejoin="round" /><polyline points="-257.98,687.45 -210.80,745.65 -181.92,774.73 -169.42,783.73 -151.71,798.55 -135.09,812.51 -120.80,826.45 -120.45,833.53" fill="none" stroke="#bcbcbc" stroke-width="8" stroke-linecap="round" stroke-linejoin="round" /><polyline points="-207.16,-654.77 -188.67,-701.11 -158.74,-777.41 -115.87,-886.72 -94.68,-938.50 -63.11,-1015.71 -37.22,-1078.96 -32.59,-1087.35 -9.83,-1124.57 -8.35,-1126.98 -0.03,-1143.36 14.58,-1165.85 22.74,-1178.41 34.28,-1196.17" fill="none" stroke="#bcbcbc" stroke-width="8" stroke-linecap="round" stroke-linejoin="round" /><polyline points="-643.34,584.25 -646.37,586.67 -648.37,589.55 -652.45,601.58 -655.27,610.26 -668.29,649.21 -670.09,654.83 -671.20,658.31 -683.16,654.88 -712.27,645.12 -741.12,635.45 -763.41,634.19" fill="none" stroke="#bcbcbc" stroke-width="8" stroke-linecap="round" stroke-linejoin="round" /><polyline points="-1213.45,855.28 -1165.91,732.51 -1160.62,719.15 -1155.87,706.28 -1150.14,690.72 -1143.11,666.25 -1135.78,635.85 -1132.78,614.06 -1130.59,598.23 -1127.52,586.54 -1116.33,498.76 -1103.26,387.98 -1096.49,335.17 -1088.95,273.13 -1075.35,165.89 -1073.19,147.65 -1059.44,35.50 -1059.43,29.25 -1056.40,-4.03 -1047.63,-74.32 -1045.43,-86.58 -1043.14,-93.46 -1039.55,-101.03 -1036.07,-106.91 -1028.37,-115.24 -1021.49,-117.60" fill="none" stroke="#bcbcbc" stroke-width="8" stroke-linecap="round" stroke-linejoin="round" /><polyline points="-175.58,-77.17 -172.98,-73.05 -164.26,-59.44 -151.21,-38.52 -148.06,-33.53 -142.86,-37.48 -117.61,-56.65" fill="none" stroke="#bcbcbc" stroke-width="8" stroke-linecap="round" stroke-linejoin="round" /><polyline points="-158.74,-777.41 98.13,-730.97 125.11,-716.78 225.75,-666.89 234.61,-669.63" fill="none" stroke="#bcbcbc" stroke-width="8" stroke-linecap="round" stroke-linejoin="round" /><polyline points="-649.14,-195.43 -653.70,-188.78 -694.68,-168.78 -724.78,-130.53 -757.26,-110.42 -779.47,-93.65 -800.66,-76.36 -811.53,-66.46 -830.72,-42.11 -852.18,-11.35 -855.71,-5.66" fill="none" stroke="#bcbcbc" stroke-width="8" stroke-linecap="round" stroke-linejoin="round" /><polyline points="-605.81,-167.99 -607.59,-164.03 -611.48,-158.36 -618.82,-149.32 -662.11,-94.64 -685.01,-32.96 -800.61,-76.41" fill="none" stroke="#bcbcbc" stroke-width="8" stroke-linecap="round" stroke-linejoin="round" /><polyline points="-779.47,-93.65 -783.95,-107.20 -803.29,-165.76 -810.80,-177.33 -823.37,-215.04 -824.45,-218.30 -822.60,-224.20 -825.61,-233.81 -886.05,-426.79" fill="none" stroke="#bcbcbc" stroke-width="8" stroke-linecap="round" stroke-linejoin="round" /><polyline points="-71.22,-1146.63 -23.45,-1145.38 -21.22,-1145.31 -12.07,-1145.05 -0.03,-1143.36" fill="none" stroke="#bcbcbc" stroke-width="8" stroke-linecap="round" stroke-linejoin="round" /><polyline points="-316.93,409.40 -333.24,409.20 -471.35,427.74 -481.31,428.79 -492.69,429.99 -558.78,436.97 -647.82,446.37 -695.02,451.35 -721.14,454.11 -742.34,456.68 -753.22,458.01 -765.49,459.50 -824.73,466.70 -838.92,468.42 -882.67,473.20 -1116.33,498.76" fill="none" stroke="#bcbcbc" stroke-width="8" stroke-linecap="round" stroke-linejoin="round" /><polyline points="-521.41,888.91 -533.65,884.97 -590.79,866.58 -602.35,862.86 -612.37,859.64 -672.92,840.18 -684.85,836.34 -700.64,831.26 -797.02,800.25 -807.87,796.76" fill="none" stroke="#bcbcbc" stroke-width="8" stroke-linecap="round" stroke-linejoin="round" /><polyline points="-282.46,-268.04 -249.22,-257.68 -127.66,-220.15 -126.53,-219.80 -117.52,-219.23" fill="none" stroke="#bcbcbc" stroke-width="8" stroke-linecap="round" stroke-linejoin="round" /><polyline points="59.57,-541.78 224.92,-538.87" fill="none" stroke="#bcbcbc" stroke-width="8" stroke-linecap="round" stroke-linejoin="round" /><polyline points="-21.40,910.89 -45.04,882.80 -54.95,871.26 -63.48,863.30 -74.82,854.83 -98.01,840.91 -120.45,833.53 -166.11,819.43 -203.45,807.58 -181.92,774.73" fill="none" stroke="#bcbcbc" stroke-width="8" stroke-linecap="round" stroke-linejoin="round" /><polyline points="-257.98,687.45 -290.89,646.83 -297.15,639.10 -330.31,593.43 -337.81,579.49 -336.01,562.88 -326.01,562.79 -301.36,567.53 -263.84,574.75" fill="none" stroke="#bcbcbc" stroke-width="8" stroke-linecap="round" stroke-linejoin="round" /><polyline points="-688.55,361.96 -682.48,375.02 -647.82,446.37 -596.27,552.48 -589.70,566.01" fill="none" stroke="#bcbcbc" stroke-width="8" stroke-linecap="round" stroke-linejoin="round" /><polyline points="-1243.76,685.16 -1231.36,690.23 -1173.29,713.97 -1160.62,719.15 -1147.28,724.60 -1078.92,752.56 -1066.55,757.61" fill="none" stroke="#bcbcbc" stroke-width="8" stroke-linecap="round" stroke-linejoin="round" /><polyline points="-660.02,256.16 -539.05,309.08" fill="none" stroke="#bcbcbc" stroke-width="8" stroke-linecap="round" stroke-linejoin="round" /><polyline points="-117.52,-219.23 -99.09,-218.27 -97.91,-217.22 -89.64,-209.89 -77.49,-199.04 -75.25,-194.68 -33.37,-158.00 -30.27,-152.15 -0.82,-126.16 6.59,-123.90 29.51,-103.83 34.64,-101.49 69.19,-72.18 76.88,-65.36 81.12,-58.61" fill="none" stroke="#bcbcbc" stroke-width="8" stroke-linecap="round" stroke-linejoin="round" /><polyline points="-1277.91,256.28 -1088.95,273.13" fill="none" stroke="#bcbcbc" stroke-width="8" stroke-linecap="round" stroke-linejoin="round" /><polyline points="-856.00,959.86 -850.15,947.40 -848.64,941.85 -840.44,911.60 -810.71,806.79 -807.87,796.76 -804.86,785.75 -791.39,736.51 -768.65,653.36 -763.41,634.19" fill="none" stroke="#bcbcbc" stroke-width="8" stroke-linecap="round" stroke-linejoin="round" /><polyline points="-688.55,361.96 -660.02,256.16 -720.51,235.00 -736.35,244.35 -743.57,249.84 -748.92,257.07 -752.68,266.62 -766.59,318.03 -755.37,323.75 -744.03,326.50 -718.96,333.02 -700.19,339.00 -688.55,361.96" fill="none" stroke="#bcbcbc" stroke-width="8" stroke-linecap="round" stroke-linejoin="round" /><polyline points="-766.59,318.03 -779.84,316.19 -1088.95,273.13" fill="none" stroke="#bcbcbc" stroke-width="8" stroke-linecap="round" stroke-linejoin="round" /><polyline points="-263.84,574.75 -235.16,581.01 -157.62,605.66 -135.94,612.51 -84.48,627.38 -32.64,642.32 5.74,653.41 67.12,671.13 79.80,674.80 110.78,685.18 161.78,698.77 166.27,699.61" fill="none" stroke="#bcbcbc" stroke-width="8" stroke-linecap="round" stroke-linejoin="round" /><polyline points="-227.46,1022.68 -237.93,1025.31 -249.24,1056.83 -266.78,1051.85 -346.53,1024.67 -356.13,1022.62 -377.49,1021.10 -474.07,1021.48 -495.36,1018.77 -543.44,1011.42 -562.84,1008.27 -700.39,986.09 -753.66,977.59 -855.25,959.99 -871.65,956.74 -1100.91,892.66 -1115.38,888.61 -1213.45,855.28 -1237.58,846.72 -1297.84,821.75 -1332.20,808.75" fill="none" stroke="#bcbcbc" stroke-width="8" stroke-linecap="round" stroke-linejoin="round" /><polyline points="-17.36,-672.34 -27.28,-674.39 -159.78,-658.72 -207.16,-654.77" fill="none" stroke="#bcbcbc" stroke-width="8" stroke-linecap="round" stroke-linejoin="round" /><polyline points="-263.83,574.75 -259.19,566.98 -231.39,495.57 -200.32,387.59 -192.39,364.34 -188.15,358.01 -158.16,261.73 -156.67,250.24 -155.53,242.72" fill="none" stroke="#bcbcbc" stroke-width="8" stroke-linecap="round" stroke-linejoin="round" /><polyline points="-127.28,-468.27 -124.11,-469.48 -119.82,-472.89 -113.31,-480.52 -28.70,-601.91 -6.16,-634.01" fill="none" stroke="#bcbcbc" stroke-width="8" stroke-linecap="round" stroke-linejoin="round" /><polyline points="249.27,-22.35 251.00,-27.33 293.53,-77.37 296.65,-79.03 304.04,-89.14 328.78,-117.56 336.48,-124.64" fill="none" stroke="#bcbcbc" stroke-width="8" stroke-linecap="round" stroke-linejoin="round" /><polyline points="286.44,348.94 285.85,342.25 285.39,337.07 283.15,327.17 280.47,320.70 277.13,303.74 276.83,297.59 274.56,283.86 264.44,278.57 256.35,281.66 241.87,285.13 230.41,286.92 219.42,289.57 204.24,293.03 197.32,294.61" fill="none" stroke="#bcbcbc" stroke-width="8" stroke-linecap="round" stroke-linejoin="round" /><polyline points="-830.91,103.23 -799.98,30.73 -798.26,26.02" fill="none" stroke="#bcbcbc" stroke-width="8" stroke-linecap="round" stroke-linejoin="round" /><polyline points="-15.78,-29.72 -0.87,-35.49 6.92,-38.51 12.95,-44.61 37.80,-50.74 46.14,-48.61 64.13,-53.25 77.86,-56.78 81.12,-58.61 94.43,-61.87 162.47,-78.53 177.89,-83.14" fill="none" stroke="#bcbcbc" stroke-width="8" stroke-linecap="round" stroke-linejoin="round" /><polyline points="-643.34,584.24 -611.25,572.59 -600.51,569.31 -589.70,566.01 -569.75,559.92 -554.24,557.68 -501.25,551.89 -490.60,551.31 -443.18,551.71 -414.30,551.96 -403.44,551.40 -386.04,553.16 -380.60,553.94 -369.51,555.53 -336.01,562.88" fill="none" stroke="#bcbcbc" stroke-width="8" stroke-linecap="round" stroke-linejoin="round" /><polyline points="-490.42,-368.54 -495.74,-386.52 -515.49,-453.28 -539.47,-529.42 -544.43,-543.01 -549.46,-555.75 -555.81,-574.10" fill="none" stroke="#bcbcbc" stroke-width="8" stroke-linecap="round" stroke-linejoin="round" /><polyline points="-547.86,708.02 -543.64,694.69 -500.98,560.16 -501.25,551.89" fill="none" stroke="#bcbcbc" stroke-width="8" stroke-linecap="round" stroke-linejoin="round" /><polyline points="-490.60,551.31 -482.15,438.03 -481.31,428.79 -480.01,418.05 -479.99,417.56 -479.44,404.42 -476.62,368.77 -475.03,352.16 -472.85,333.29 -470.87,319.71 -469.10,311.18 -466.86,304.73 -462.47,290.21 -453.41,259.97 -441.89,220.92 -429.18,181.00 -426.59,172.86 -424.51,166.95" fill="none" stroke="#bcbcbc" stroke-width="8" stroke-linecap="round" stroke-linejoin="round" /><polyline points="-766.59,318.03 -768.83,328.07 -768.45,331.28 -754.68,445.87 -753.22,458.01 -753.86,470.49 -757.46,541.76 -758.97,571.54 -759.75,586.90 -761.13,614.27 -761.85,628.53 -763.41,634.19" fill="none" stroke="#bcbcbc" stroke-width="8" stroke-linecap="round" stroke-linejoin="round" /><polyline points="-830.91,103.23 -880.96,88.35 -887.32,84.27 -918.46,75.20 -927.22,75.29 -966.35,63.50 -972.67,58.84 -1008.28,48.05 -1051.98,36.14 -1052.19,36.12 -1059.44,35.50" fill="none" stroke="#bcbcbc" stroke-width="8" stroke-linecap="round" stroke-linejoin="round" /><polyline points="81.12,-58.61 82.86,-56.32 90.12,-45.51 103.53,-25.51 116.16,-12.86 140.44,14.39 136.34,39.57 134.25,49.02 131.36,53.01 137.44,62.01 146.86,81.39 165.68,117.69 174.94,135.57 180.71,151.64 183.31,159.10" fill="none" stroke="#bcbcbc" stroke-width="8" stroke-linecap="round" stroke-linejoin="round" /><polyline points="207.87,-6.74 200.90,-4.57 154.94,9.73 148.35,11.85 140.44,14.39" fill="none" stroke="#bcbcbc" stroke-width="8" stroke-linecap="round" stroke-linejoin="round" /><polyline points="-122.39,80.32 -108.01,75.66 -3.70,22.39 10.26,15.57 59.43,1.37 107.10,-12.03 116.16,-12.86" fill="none" stroke="#bcbcbc" stroke-width="8" stroke-linecap="round" stroke-linejoin="round" /><polyline points="-111.02,146.26 9.24,90.29 14.31,86.94 26.07,83.52 106.20,60.21 118.36,55.55 131.36,53.01" fill="none" stroke="#bcbcbc" stroke-width="8" stroke-linecap="round" stroke-linejoin="round" /><polyline points="-135.56,-1026.97 -86.88,-1020.95 -81.99,-1020.35 -63.11,-1015.71" fill="none" stroke="#bcbcbc" stroke-width="8" stroke-linecap="round" stroke-linejoin="round" /><polyline points="280.46,-532.04 289.10,-533.85 321.35,-518.03 325.60,-513.83 386.16,-411.33 387.75,-398.90 395.63,-392.34 394.38,-387.81 394.18,-380.42 395.28,-370.09 411.31,-304.18 412.73,-258.53 414.98,-185.64 418.75,-87.53 403.39,-44.78 393.50,-18.72 379.05,18.01 374.87,28.63 372.16,31.60 367.79,60.02" fill="none" stroke="#bcbcbc" stroke-width="8" stroke-linecap="round" stroke-linejoin="round" /><polyline points="392.42,233.16 377.69,226.75 340.89,201.07 292.33,166.95 265.63,145.36 247.61,126.06" fill="none" stroke="#bcbcbc" stroke-width="8" stroke-linecap="round" stroke-linejoin="round" /><polyline points="-203.45,807.58 -217.91,803.00 -241.38,795.56 -252.58,792.01 -265.73,787.84 -282.36,782.57 -297.39,777.80 -312.24,773.09 -378.49,752.07 -390.10,748.39 -404.51,743.82 -407.69,742.82 -445.58,732.80 -456.28,730.22 -469.69,726.97 -483.73,723.57 -534.30,711.31 -547.86,708.02 -562.43,702.96 -592.88,692.38 -604.36,688.40 -614.63,685.07 -662.30,668.11 -668.31,664.53 -671.20,658.31" fill="none" stroke="#bcbcbc" stroke-width="8" stroke-linecap="round" stroke-linejoin="round" /><polyline points="14.31,86.94 10.79,74.36 0.33,36.83 -3.70,22.39 -9.52,11.61 -10.06,9.60 -13.49,-3.10 -9.49,-8.73 -14.29,-24.74 -15.78,-29.72" fill="none" stroke="#bcbcbc" stroke-width="8" stroke-linecap="round" stroke-linejoin="round" /><polyline points="-3.20,-372.32 6.76,-377.00 61.12,-406.97 92.20,-426.96 114.12,-441.91 118.96,-445.52 136.60,-457.78 154.88,-471.28 166.46,-479.71 180.26,-489.80 228.22,-511.44 234.44,-511.11 243.53,-515.41 280.46,-532.04" fill="none" stroke="#bcbcbc" stroke-width="8" stroke-linecap="round" stroke-linejoin="round" /><polyline points="-605.81,-167.99 -597.97,-164.80 -592.79,-163.21 -495.56,-133.35 -480.71,-128.79" fill="none" stroke="#bcbcbc" stroke-width="8" stroke-linecap="round" stroke-linejoin="round" /><polyline points="-1300.29,50.65 -1369.75,29.63" fill="none" stroke="#bcbcbc" stroke-width="8" stroke-linecap="round" stroke-linejoin="round" /><polyline points="-178.25,-928.86 -161.03,-907.05 -158.46,-903.79 -149.77,-892.78 -139.86,-891.61 -119.49,-889.22 -115.87,-886.72" fill="none" stroke="#bcbcbc" stroke-width="8" stroke-linecap="round" stroke-linejoin="round" /><polyline points="419.80,41.50 392.51,46.59 364.53,61.79 338.59,76.23 314.05,88.50 284.41,104.60 262.94,117.63 220.52,140.38 54.92,223.69 11.98,242.60 -16.38,254.86 -30.44,259.46 -42.07,261.64 -61.10,262.79 -88.19,258.95 -155.79,242.72 -251.75,220.36 -378.00,182.29 -424.51,166.95 -500.66,143.44 -573.50,119.42 -680.32,77.51 -733.73,54.51 -798.13,25.89 -904.96,-32.63 -930.00,-49.24 -993.38,-89.11 -1019.96,-115.68 -1059.83,-167.30 -1125.50,-235.02 -1151.32,-257.76" fill="none" stroke="#bcbcbc" stroke-width="8" stroke-linecap="round" stroke-linejoin="round" /><polyline points="-98.01,840.91 -96.89,834.67 -92.85,824.47 -54.97,735.84 -40.66,702.61 -23.79,661.21 -19.68,646.06" fill="none" stroke="#bcbcbc" stroke-width="8" stroke-linecap="round" stroke-linejoin="round" /><polyline points="-824.73,466.70 -867.76,445.87 -965.67,398.48 -1085.77,340.36 -1096.49,335.17" fill="none" stroke="#bcbcbc" stroke-width="8" stroke-linecap="round" stroke-linejoin="round" /><polyline points="-117.52,-219.23 -106.65,-230.36 -77.76,-259.93 -54.83,-284.97" fill="none" stroke="#bcbcbc" stroke-width="8" stroke-linecap="round" stroke-linejoin="round" /><polyline points="-951.76,-153.35 -963.69,-169.15 -1019.63,-243.21 -1099.48,-307.82" fill="none" stroke="#bcbcbc" stroke-width="8" stroke-linecap="round" stroke-linejoin="round" /><polyline points="-1298.27,821.57 -1287.35,795.67 -1252.64,709.12 -1248.43,697.76 -1243.76,685.16 -1241.99,680.61 -1241.52,673.49 -1237.07,606.20 -1235.80,586.90" fill="none" stroke="#bcbcbc" stroke-width="8" stroke-linecap="round" stroke-linejoin="round" /><polyline points="-1321.96,125.82 -1300.29,50.65 -1271.69,-48.50 -1268.15,-60.77 -1264.21,-74.71 -1255.40,-105.93 -1254.48,-109.21 -1251.95,-119.24 -1247.93,-130.59 -1246.95,-133.34 -1241.87,-145.94 -1231.89,-167.95 -1228.91,-174.27" fill="none" stroke="#bcbcbc" stroke-width="8" stroke-linecap="round" stroke-linejoin="round" /><polyline points="-1268.15,-60.77 -1224.30,-49.55 -1131.40,-25.68 -1078.47,-9.20 -1056.40,-4.03" fill="none" stroke="#bcbcbc" stroke-width="8" stroke-linecap="round" stroke-linejoin="round" /><polyline points="-365.43,-401.84 -363.94,-410.97 -362.44,-420.44 -356.01,-452.14 -339.93,-525.91 -326.73,-591.91 -324.32,-605.60 -321.04,-624.19 -321.04,-624.20" fill="none" stroke="#bcbcbc" stroke-width="8" stroke-linecap="round" stroke-linejoin="round" /><polyline points="-495.28,1018.78 -475.70,968.84 -473.26,959.87 -395.56,762.62 -390.10,748.39 -385.68,736.31 -339.25,601.23 -330.31,593.43" fill="none" stroke="#bcbcbc" stroke-width="8" stroke-linecap="round" stroke-linejoin="round" /><polyline points="-228.91,-440.03 -228.92,-440.05 -231.67,-454.49 -232.10,-456.25 -238.81,-483.54 -238.81,-483.63 -243.38,-502.14 -262.78,-568.59 -265.22,-575.71 -278.32,-611.31 -282.57,-621.94 -285.32,-628.79 -288.88,-636.58 -288.89,-636.59 -288.89,-636.62 -291.49,-665.25 -291.74,-679.30" fill="none" stroke="#bcbcbc" stroke-width="8" stroke-linecap="round" stroke-linejoin="round" /><polyline points="-257.98,687.45 -262.96,692.84 -270.39,701.68 -291.33,760.71 -297.39,777.80" fill="none" stroke="#bcbcbc" stroke-width="8" stroke-linecap="round" stroke-linejoin="round" /><polyline points="-605.81,-167.99 -602.95,-175.73 -602.31,-177.53 -588.71,-215.51 -583.61,-231.50 -541.95,-354.02" fill="none" stroke="#bcbcbc" stroke-width="8" stroke-linecap="round" stroke-linejoin="round" /><polyline points="-390.27,3.77 -386.02,-7.52 -374.51,-38.10 -369.64,-51.03 -366.34,-59.78 -357.11,-84.32 -351.00,-100.54 -350.18,-102.72 -335.39,-141.99 -329.21,-140.08 -325.86,-149.20 -319.94,-165.33 -321.07,-172.65 -305.34,-215.48 -303.73,-219.87 -300.74,-222.62 -298.24,-224.92 -282.46,-268.04 -280.18,-279.84 -257.55,-342.72 -252.19,-346.91 -241.31,-377.71 -243.24,-382.44 -233.70,-411.21 -238.65,-436.90" fill="none" stroke="#bcbcbc" stroke-width="8" stroke-linecap="round" stroke-linejoin="round" /><polyline points="14.58,-1165.85 8.24,-1176.26 -25.08,-1230.92" fill="none" stroke="#bcbcbc" stroke-width="8" stroke-linecap="round" stroke-linejoin="round" /><polyline points="118.96,-445.52 271.89,-347.18 271.93,-347.12 271.93,-347.10 300.22,-343.43" fill="none" stroke="#bcbcbc" stroke-width="8" stroke-linecap="round" stroke-linejoin="round" /><polyline points="57.63,-650.94 220.34,-569.27 225.25,-565.61 224.92,-538.87 228.22,-511.44" fill="none" stroke="#bcbcbc" stroke-width="8" stroke-linecap="round" stroke-linejoin="round" /><polyline points="-252.58,792.01 -258.43,809.86 -282.14,882.16 -322.47,1003.92 -325.33,1012.56 -328.22,1021.31 -329.03,1030.64" fill="none" stroke="#bcbcbc" stroke-width="8" stroke-linecap="round" stroke-linejoin="round" /><polyline points="-602.35,862.86 -598.31,851.40 -553.00,722.63 -547.86,708.02" fill="none" stroke="#bcbcbc" stroke-width="8" stroke-linecap="round" stroke-linejoin="round" /><polyline points="414.98,-185.64 401.65,-189.40 311.12,-328.31 300.22,-343.43" fill="none" stroke="#bcbcbc" stroke-width="8" stroke-linecap="round" stroke-linejoin="round" /><polyline points="-1073.19,147.65 -743.26,226.69 -720.51,235.00" fill="none" stroke="#bcbcbc" stroke-width="8" stroke-linecap="round" stroke-linejoin="round" /><polyline points="-32.59,-1087.35 95.92,-1039.75 114.02,-1042.84" fill="none" stroke="#bcbcbc" stroke-width="8" stroke-linecap="round" stroke-linejoin="round" />
    <polyline points="205.47,352.80 206.45,343.73 206.66,335.27 206.59,334.97 200.82,310.05 198.46,299.63 197.32,294.61 196.15,289.48 189.82,261.59 177.46,205.88 168.47,172.38 167.20,167.20" fill="none" stroke="#ffffff" stroke-width="16" stroke-linecap="round" stroke-linejoin="round" />
    <polyline points="205.47,352.80 206.45,343.73 206.66,335.27 206.59,334.97 200.82,310.05 198.46,299.63 197.32,294.61 196.15,289.48 189.82,261.59 177.46,205.88 168.47,172.38 167.20,167.20" fill="none" stroke="#111111" stroke-width="9" stroke-linecap="round" stroke-linejoin="round" />
    
            <g transform="translate(205.47,352.80)">
              <circle r="19" fill="#ffffff" stroke="#111111" stroke-width="4" />
              <text text-anchor="middle" dominant-baseline="central" font-family="Helvetica, Arial, sans-serif"
                font-size="18" font-weight="700" fill="#111111">1</text>
            </g>
            
            <g transform="translate(167.20,167.20)">
              <circle r="19" fill="#ffffff" stroke="#111111" stroke-width="4" />
              <text text-anchor="middle" dominant-baseline="central" font-family="Helvetica, Arial, sans-serif"
                font-size="18" font-weight="700" fill="#111111">2</text>
            </g>
            
  </g>
</svg>
