<svg xmlns="http://www.w3.org/2000/svg" width="520" height="520" viewBox="0 0 520 520">
  <rect width="100%" height="100%" fill="#ffffff" />
  <g>
    <polyline points="1225.43,-1319.16 1229.09,-1299.68 1252.72,-1134.40 1249.10,-1093.08" fill="none" stroke="#bcbcbc" stroke-width="8" stroke-linecap="round" stroke-linejoin="round" /><polyline points="745.15,58.17 750.86,40.61 781.13,-52.47 784.70,-63.44 788.31,-74.95 864.42,-317.64 870.54,-337.15 856.53,-371.68" fill="none" stroke="#bcbcbc" stroke-width="8" stroke-linecap="round" stroke-linejoin="round" /><polyline points="219.42,-157.68 218.19,-171.62 243.08,-310.97 246.57,-328.40 249.17,-337.53 256.02,-372.87 263.72,-416.12 272.11,-454.22 280.42,-492.22 285.66,-502.94 289.09,-509.51" fill="none" stroke="#bcbcbc" stroke-width="8" stroke-linecap="round" stroke-linejoin="round" /><polyline points="363.85,-1140.64 357.94,-1158.67 296.79,-1345.15 293.81,-1352.97" fill="none" stroke="#bcbcbc" stroke-width="8" stroke-linecap="round" stroke-linejoin="round" /><polyline points="50.09,500.57 51.91,482.77 52.65,474.61 59.31,400.98 66.60,336.15 68.30,321.01 69.88,302.85 70.06,301.32 74.19,265.22 77.75,228.51 81.67,193.09 84.32,165.52 85.42,148.50 86.39,132.79 88.13,115.08" fill="none" stroke="#bcbcbc" stroke-width="8" stroke-linecap="round" stroke-linejoin="round" /><polyline points="895.02,101.44 899.37,87.75 930.06,-8.70 933.54,-19.66 938.50,-35.27 942.05,-46.46 969.21,-163.58" fill="none" stroke="#bcbcbc" stroke-width="8" stroke-linecap="round" stroke-linejoin="round" /><polyline points="775.74,-1806.35 787.07,-1804.61 1099.32,-1756.63" fill="none" stroke="#bcbcbc" stroke-width="8" stroke-linecap="round" stroke-linejoin="round" /><polyline points="-25.87,78.71 -58.37,77.20 -78.19,76.28 -88.96,75.77 -98.40,75.34 -172.00,71.91 -274.37,67.15 -323.16,60.24 -339.49,57.92 -353.66,55.42 -449.63,38.48 -463.04,36.12 -466.01,35.61 -482.58,32.77 -495.32,30.58 -576.64,23.40 -592.12,22.03 -597.80,21.53 -615.39,20.31 -649.81,17.92" fill="none" stroke="#bcbcbc" stroke-width="8" stroke-linecap="round" stroke-linejoin="round" /><polyline points="446.30,-15.57 452.60,-33.49 509.33,-190.72 577.57,-389.05 581.94,-401.48 584.99,-410.18 587.46,-417.31" fill="none" stroke="#bcbcbc" stroke-width="8" stroke-linecap="round" stroke-linejoin="round" /><polyline points="-597.80,21.53 -599.25,11.42 -599.60,0.44 -597.44,-21.68 -592.50,-62.05 -589.21,-75.60 -583.86,-124.59 -582.89,-135.51 -581.32,-149.54 -580.16,-159.96 -577.97,-171.77 -573.90,-203.54 -571.08,-227.85 -566.94,-237.80" fill="none" stroke="#bcbcbc" stroke-width="8" stroke-linecap="round" stroke-linejoin="round" /><polyline points="-655.87,-250.22 -580.20,-239.65 -566.94,-237.80 -558.72,-236.49 -524.80,-231.08 -446.66,-218.63 -433.25,-216.40" fill="none" stroke="#bcbcbc" stroke-width="8" stroke-linecap="round" stroke-linejoin="round" /><polyline points="736.66,-1242.72 737.15,-1235.85 738.17,-1228.88 740.63,-1223.55 745.23,-1217.60 753.74,-1209.86 773.90,-1197.59 929.48,-1100.00 1025.29,-971.55 1097.66,-792.96 1102.39,-781.17" fill="none" stroke="#bcbcbc" stroke-width="8" stroke-linecap="round" stroke-linejoin="round" /><polyline points="711.75,-721.63 714.97,-716.30 715.81,-714.91 718.48,-701.44 736.74,-613.18 742.53,-585.17 746.67,-565.22 753.14,-524.79 756.15,-506.14 758.24,-494.76 760.52,-484.48 763.24,-478.48 767.23,-471.55 769.37,-468.27 809.80,-410.41 831.66,-375.98 837.36,-367.75" fill="none" stroke="#bcbcbc" stroke-width="8" stroke-linecap="round" stroke-linejoin="round" /><polyline points="-448.70,383.41 -446.55,370.16 -444.55,360.58 -444.02,359.31 -417.11,295.35 -399.97,253.78 -394.76,240.60 -389.24,226.65 -383.25,214.65 -382.28,212.31 -374.08,192.48 -367.74,174.94 -362.29,158.85 -358.84,147.47 -354.97,133.41 -350.51,114.57 -347.12,99.28 -343.07,77.94 -342.22,73.18 -339.49,57.92" fill="none" stroke="#bcbcbc" stroke-width="8" stroke-linecap="round" stroke-linejoin="round" /><polyline points="854.84,-1402.90 940.62,-1342.96 952.18,-1340.50 960.64,-1330.83" fill="none" stroke="#bcbcbc" stroke-width="8" stroke-linecap="round" stroke-linejoin="round" /><polyline points="494.61,-849.34 505.95,-844.98 555.17,-828.88 669.35,-785.09 675.76,-778.71 678.76,-773.94" fill="none" stroke="#bcbcbc" stroke-width="8" stroke-linecap="round" stroke-linejoin="round" /><polyline points="707.38,275.72 715.15,255.46 753.54,151.33 780.68,72.66 786.31,70.07" fill="none" stroke="#bcbcbc" stroke-width="8" stroke-linecap="round" stroke-linejoin="round" /><polyline points="164.78,143.69 170.84,130.30 171.44,128.97 181.80,94.21 198.78,37.00 203.13,22.36 206.50,10.98 206.96,4.36 206.27,-10.31" fill="none" stroke="#bcbcbc" stroke-width="8" stroke-linecap="round" stroke-linejoin="round" /><polyline points="870.32,-717.06 860.59,-715.05 838.53,-718.98 835.12,-728.07 796.91,-742.64 787.87,-740.28 753.40,-752.93 748.26,-749.34" fill="none" stroke="#bcbcbc" stroke-width="8" stroke-linecap="round" stroke-linejoin="round" /><polyline points="813.58,-1898.90 830.90,-1894.65 840.48,-1892.99 1068.26,-1853.50" fill="none" stroke="#bcbcbc" stroke-width="8" stroke-linecap="round" stroke-linejoin="round" /><polyline points="636.55,212.31 646.02,185.60 664.43,133.69 676.33,111.58 693.46,63.64 700.29,44.51" fill="none" stroke="#bcbcbc" stroke-width="8" stroke-linecap="round" stroke-linejoin="round" /><polyline points="-611.49,-824.37 -627.99,-825.13 -632.12,-820.10 -660.86,-785.19 -761.34,-669.14 -775.46,-652.82" fill="none" stroke="#bcbcbc" stroke-width="8" stroke-linecap="round" stroke-linejoin="round" /><polyline points="269.77,-724.98 262.49,-708.86 261.60,-706.91 236.30,-640.94 210.80,-568.31 203.99,-548.94 200.14,-538.95" fill="none" stroke="#bcbcbc" stroke-width="8" stroke-linecap="round" stroke-linejoin="round" /><polyline points="640.91,-1466.27 648.95,-1455.36 654.69,-1440.37 663.62,-1418.85 677.96,-1385.00 690.65,-1354.61 705.23,-1321.24 716.04,-1295.53 717.64,-1291.84 717.73,-1291.61 726.44,-1271.27 729.03,-1265.49 731.51,-1259.99 734.12,-1254.83 736.09,-1249.59 736.66,-1242.72" fill="none" stroke="#bcbcbc" stroke-width="8" stroke-linecap="round" stroke-linejoin="round" /><polyline points="25.55,-399.77 29.76,-402.07 35.65,-406.75 38.59,-412.81 77.68,-561.02 78.86,-569.38 83.63,-584.65" fill="none" stroke="#bcbcbc" stroke-width="8" stroke-linecap="round" stroke-linejoin="round" /><polyline points="1392.45,-631.70 1398.00,-614.10 1401.90,-595.62 1394.31,-525.17 1385.52,-472.18 1380.73,-454.11 1380.29,-452.47 1376.09,-442.72 1370.36,-432.37 1356.99,-415.46 1363.46,-382.39 1342.52,-311.41 1330.95,-272.21 1307.28,-208.04 1272.62,-129.91 1230.31,-55.04 1217.09,-30.71 1193.20,9.27 1097.74,144.74 1076.83,172.92 995.83,278.75 949.34,331.64 884.29,397.74 878.27,398.36 863.59,410.37" fill="none" stroke="#bcbcbc" stroke-width="8" stroke-linecap="round" stroke-linejoin="round" /><polyline points="214.56,527.09 241.20,444.46 245.57,430.81 251.49,422.21 264.21,384.02 268.36,371.05 320.93,206.47 326.21,189.92 330.57,175.38 392.61,-19.85" fill="none" stroke="#bcbcbc" stroke-width="8" stroke-linecap="round" stroke-linejoin="round" /><polyline points="838.80,-1009.70 861.84,-1034.87 868.64,-1043.05 915.18,-1108.97" fill="none" stroke="#bcbcbc" stroke-width="8" stroke-linecap="round" stroke-linejoin="round" /><polyline points="378.38,-999.73 441.81,-977.65 445.32,-971.95 463.33,-965.91 474.02,-962.26 525.16,-944.99" fill="none" stroke="#bcbcbc" stroke-width="8" stroke-linecap="round" stroke-linejoin="round" /><polyline points="931.30,-1438.67 960.64,-1330.83 994.61,-1203.79 999.76,-1193.21 1000.58,-1181.12 1023.61,-1138.12 1085.77,-1022.22 1099.36,-1002.17 1103.29,-996.30 1196.16,-822.69 1238.85,-783.90 1244.83,-776.17 1253.28,-768.95 1334.32,-699.66 1339.82,-694.96 1354.37,-687.23" fill="none" stroke="#bcbcbc" stroke-width="8" stroke-linecap="round" stroke-linejoin="round" /><polyline points="616.12,544.63 818.23,427.24 854.20,408.85 863.59,410.37" fill="none" stroke="#bcbcbc" stroke-width="8" stroke-linecap="round" stroke-linejoin="round" /><polyline points="835.25,376.69 847.79,361.79 960.37,137.18 967.83,122.45 974.06,107.87 1010.42,17.96 1021.25,-9.13 1052.59,-103.98 1072.92,-225.91 1075.33,-243.66" fill="none" stroke="#bcbcbc" stroke-width="8" stroke-linecap="round" stroke-linejoin="round" /><polyline points="748.37,-944.22 746.40,-942.20 743.69,-932.75 743.42,-931.81 731.20,-884.77 734.40,-872.49 731.74,-861.48 728.25,-847.07 719.31,-836.71 709.16,-795.62 697.21,-786.59 684.45,-777.84 678.76,-773.94" fill="none" stroke="#bcbcbc" stroke-width="8" stroke-linecap="round" stroke-linejoin="round" /><polyline points="269.77,-724.98 274.96,-738.30 306.19,-818.35 313.00,-835.81 318.62,-850.19 358.52,-952.42 376.49,-995.17 378.38,-999.73 392.34,-1033.48 423.67,-1111.27 435.15,-1144.38 437.70,-1151.97 441.13,-1160.58" fill="none" stroke="#bcbcbc" stroke-width="8" stroke-linecap="round" stroke-linejoin="round" /><polyline points="619.26,-1210.27 625.30,-1192.30 823.51,-1023.01 931.67,-928.92 1093.22,-788.50 1107.32,-777.22 1113.63,-773.27 1141.67,-747.83 1179.10,-715.90 1264.02,-643.51 1291.44,-619.93 1309.64,-598.16" fill="none" stroke="#bcbcbc" stroke-width="8" stroke-linecap="round" stroke-linejoin="round" /><polyline points="946.98,-1501.97 957.04,-1508.42 1016.60,-1533.17 1028.83,-1546.04" fill="none" stroke="#bcbcbc" stroke-width="8" stroke-linecap="round" stroke-linejoin="round" /><polyline points="1015.77,4.57 933.54,-19.66 784.70,-63.44" fill="none" stroke="#bcbcbc" stroke-width="8" stroke-linecap="round" stroke-linejoin="round" /><polyline points="750.34,-1744.28 761.57,-1736.54 1127.57,-1655.11" fill="none" stroke="#bcbcbc" stroke-width="8" stroke-linecap="round" stroke-linejoin="round" /><polyline points="1202.43,-539.38 1183.52,-581.46 1141.54,-681.56 1138.41,-689.52 1131.23,-707.79 1104.17,-776.64 1102.47,-781.10" fill="none" stroke="#bcbcbc" stroke-width="8" stroke-linecap="round" stroke-linejoin="round" /><polyline points="640.91,-1466.27 620.59,-1472.05 605.66,-1476.49 575.31,-1485.51 559.90,-1489.90 551.06,-1492.36 539.53,-1495.66" fill="none" stroke="#bcbcbc" stroke-width="8" stroke-linecap="round" stroke-linejoin="round" /><polyline points="111.11,-915.69 110.08,-919.05 109.13,-921.40 104.94,-931.81 88.72,-969.62 73.30,-1008.04 69.97,-1017.11 66.14,-1027.56 63.39,-1036.11 58.86,-1048.92 58.38,-1050.27 43.63,-1086.62 16.55,-1154.95 10.47,-1158.42 6.14,-1169.50 -2.50,-1199.51 -17.29,-1236.70 -20.48,-1245.15" fill="none" stroke="#bcbcbc" stroke-width="8" stroke-linecap="round" stroke-linejoin="round" /><polyline points="241.20,444.46 256.58,449.17 306.35,464.33 321.93,469.08" fill="none" stroke="#bcbcbc" stroke-width="8" stroke-linecap="round" stroke-linejoin="round" /><polyline points="1170.46,-1484.08 1173.36,-1495.80 1172.18,-1500.25 1170.76,-1505.63 1161.68,-1538.91 1141.42,-1609.26 1130.73,-1645.23 1127.57,-1655.11 1099.32,-1756.63 1084.08,-1811.39 1068.26,-1853.50 1053.97,-1891.49 1039.74,-1917.61 1025.91,-1931.41 919.77,-2061.09 911.92,-2070.32 906.71,-2078.85" fill="none" stroke="#bcbcbc" stroke-width="8" stroke-linecap="round" stroke-linejoin="round" /><polyline points="736.66,-1242.72 731.19,-1240.63 721.07,-1237.84 720.06,-1237.56 677.78,-1226.75 629.18,-1213.07 619.26,-1210.27 614.84,-1208.87 603.16,-1205.11 593.18,-1202.34 549.59,-1190.21 477.91,-1169.85 451.19,-1163.10 441.13,-1160.58 393.36,-1148.85 363.85,-1140.64 301.36,-1123.18 239.60,-1105.78 232.45,-1103.79 180.83,-1089.47 157.02,-1082.86 145.00,-1077.18 122.24,-1065.89 77.03,-1042.96 73.88,-1041.36 63.39,-1036.11 56.99,-1032.90 48.06,-1028.22 16.30,-1011.57 -41.57,-979.11 -89.90,-953.79 -96.82,-950.17 -106.06,-949.59 -111.60,-946.64 -112.71,-946.06 -165.15,-917.32 -176.13,-917.37 -188.74,-910.78 -193.14,-908.47 -196.85,-906.53 -205.62,-901.95 -212.53,-886.19 -242.21,-870.30 -251.64,-865.25 -261.85,-859.69 -303.14,-837.22 -324.49,-825.60 -335.25,-822.51" fill="none" stroke="#bcbcbc" stroke-width="8" stroke-linecap="round" stroke-linejoin="round" /><polyline points="1330.95,-272.21 1308.91,-270.19 1240.08,-263.88 1236.98,-263.60 1232.59,-263.19 1225.49,-262.54 1158.75,-256.42 1135.54,-258.57 1108.51,-251.80 1086.86,-246.49 1075.33,-243.66 1046.67,-242.58 1021.87,-243.84 1009.23,-245.18 998.47,-248.43 990.55,-252.81 961.03,-273.68 889.33,-322.92 882.57,-327.51 875.69,-332.17 870.54,-337.15" fill="none" stroke="#bcbcbc" stroke-width="8" stroke-linecap="round" stroke-linejoin="round" /><polyline points="-293.03,-1103.55 -267.02,-1052.62 -263.08,-1038.06 -241.16,-996.25 -232.11,-984.29 -195.48,-913.03 -193.14,-908.47" fill="none" stroke="#bcbcbc" stroke-width="8" stroke-linecap="round" stroke-linejoin="round" /><polyline points="504.27,-650.63 500.38,-639.92 499.28,-636.60 494.20,-621.19 462.01,-531.40 446.03,-486.81 445.49,-485.29 439.07,-471.43 435.39,-463.19" fill="none" stroke="#bcbcbc" stroke-width="8" stroke-linecap="round" stroke-linejoin="round" /><polyline points="931.30,-1438.67 927.73,-1446.30 918.35,-1447.54 888.01,-1440.58 881.85,-1441.38 877.01,-1447.85 868.43,-1487.33 914.93,-1494.52 936.46,-1500.88 946.98,-1501.97 958.32,-1461.67" fill="none" stroke="#bcbcbc" stroke-width="8" stroke-linecap="round" stroke-linejoin="round" /><polyline points="1099.36,-1002.17 1111.33,-1008.90 1171.50,-1045.14 1187.57,-1054.72 1215.72,-1071.50 1262.02,-1101.43 1272.82,-1109.20 1354.04,-1159.57" fill="none" stroke="#bcbcbc" stroke-width="8" stroke-linecap="round" stroke-linejoin="round" /><polyline points="1383.24,-764.23 1362.71,-770.35 1350.77,-780.13 1305.16,-819.61 1303.60,-820.99 1292.57,-830.83 1286.09,-842.33 1171.50,-1045.14" fill="none" stroke="#bcbcbc" stroke-width="8" stroke-linecap="round" stroke-linejoin="round" /><polyline points="89.96,-780.30 269.77,-724.98 284.44,-720.33 418.61,-677.81 421.41,-676.92 441.51,-670.54 451.40,-667.41 464.24,-663.90 490.73,-654.93 504.27,-650.63 516.46,-646.77 616.32,-615.10 721.73,-581.98 730.44,-579.24 742.53,-585.17" fill="none" stroke="#bcbcbc" stroke-width="8" stroke-linecap="round" stroke-linejoin="round" /><polyline points="618.64,-1667.87 696.52,-1739.43 709.71,-1751.54" fill="none" stroke="#bcbcbc" stroke-width="8" stroke-linecap="round" stroke-linejoin="round" /><polyline points="-685.58,-513.24 -399.79,-482.61" fill="none" stroke="#bcbcbc" stroke-width="8" stroke-linecap="round" stroke-linejoin="round" /><polyline points="176.56,-1310.82 236.63,-1332.30 298.59,-1354.70 337.08,-1369.66 454.62,-1412.40 488.73,-1424.20 495.86,-1426.67 504.40,-1429.60 513.99,-1432.90 515.17,-1433.31 534.53,-1441.09 542.95,-1444.47" fill="none" stroke="#bcbcbc" stroke-width="8" stroke-linecap="round" stroke-linejoin="round" /><polyline points="580.00,142.55 636.55,212.31 671.17,247.16 686.16,257.95 707.38,275.72 727.31,292.45 744.43,309.16 744.85,317.65" fill="none" stroke="#bcbcbc" stroke-width="8" stroke-linecap="round" stroke-linejoin="round" /><polyline points="640.91,-1466.27 663.08,-1521.81 698.95,-1613.26 750.34,-1744.28 775.74,-1806.35 813.58,-1898.90 844.61,-1974.71 850.17,-1984.76 877.46,-2029.38 879.22,-2032.26 889.20,-2051.89 906.71,-2078.85 916.49,-2093.90 930.33,-2115.19" fill="none" stroke="#bcbcbc" stroke-width="8" stroke-linecap="round" stroke-linejoin="round" /><polyline points="118.06,18.85 114.43,21.75 112.03,25.20 107.14,39.62 103.76,50.02 88.15,96.71 86.00,103.45 84.67,107.62 70.33,103.52 35.43,91.82 0.85,80.22 -25.87,78.71" fill="none" stroke="#bcbcbc" stroke-width="8" stroke-linecap="round" stroke-linejoin="round" /><polyline points="-565.33,343.72 -508.35,196.56 -502.00,180.54 -496.31,165.11 -489.44,146.47 -481.02,117.14 -472.23,80.69 -468.63,54.58 -466.01,35.61 -462.33,21.60 -448.91,-83.62 -433.25,-216.40 -425.14,-279.70 -416.09,-354.07 -399.79,-482.61 -397.20,-504.46 -380.72,-638.90 -380.71,-646.38 -377.07,-686.27 -366.56,-770.52 -363.93,-785.22 -361.18,-793.46 -356.88,-802.54 -352.70,-809.59 -343.48,-819.57 -335.23,-822.40" fill="none" stroke="#bcbcbc" stroke-width="8" stroke-linecap="round" stroke-linejoin="round" /><polyline points="678.76,-773.94 681.88,-769.00 692.33,-752.69 707.98,-727.61 711.75,-721.63 717.99,-726.37 748.26,-749.34" fill="none" stroke="#bcbcbc" stroke-width="8" stroke-linecap="round" stroke-linejoin="round" /><polyline points="698.95,-1613.26 1006.86,-1557.60 1039.20,-1540.59 1159.84,-1480.79 1170.46,-1484.08" fill="none" stroke="#bcbcbc" stroke-width="8" stroke-linecap="round" stroke-linejoin="round" /><polyline points="111.11,-915.68 105.64,-907.72 56.52,-883.74 20.44,-837.89 -18.49,-813.79 -45.12,-793.69 -70.52,-772.97 -83.55,-761.10 -106.55,-731.92 -132.27,-695.05 -136.51,-688.22" fill="none" stroke="#bcbcbc" stroke-width="8" stroke-linecap="round" stroke-linejoin="round" /><polyline points="163.04,-882.79 160.91,-878.06 156.25,-871.25 147.45,-860.42 95.56,-794.88 68.11,-720.95 -70.46,-773.03" fill="none" stroke="#bcbcbc" stroke-width="8" stroke-linecap="round" stroke-linejoin="round" /><polyline points="-45.12,-793.69 -50.48,-809.93 -73.67,-880.12 -82.67,-893.99 -97.74,-939.19 -99.04,-943.10 -96.82,-950.17 -100.43,-961.69 -172.88,-1193.00" fill="none" stroke="#bcbcbc" stroke-width="8" stroke-linecap="round" stroke-linejoin="round" /><polyline points="803.86,-2055.82 861.12,-2054.31 863.80,-2054.24 874.77,-2053.92 889.20,-2051.89" fill="none" stroke="#bcbcbc" stroke-width="8" stroke-linecap="round" stroke-linejoin="round" /><polyline points="509.33,-190.72 489.78,-190.96 324.22,-168.74 312.29,-167.48 298.65,-166.04 219.42,-157.68 112.69,-146.41 56.11,-140.44 24.80,-137.14 -0.61,-134.05 -13.66,-132.47 -28.36,-130.68 -99.37,-122.05 -116.39,-119.98 -168.83,-114.25 -448.91,-83.62" fill="none" stroke="#bcbcbc" stroke-width="8" stroke-linecap="round" stroke-linejoin="round" /><polyline points="264.21,384.02 249.55,379.30 181.05,357.26 167.20,352.80 155.18,348.93 82.61,325.61 68.30,321.01 49.37,314.92 -66.16,277.75 -79.16,273.57" fill="none" stroke="#bcbcbc" stroke-width="8" stroke-linecap="round" stroke-linejoin="round" /><polyline points="550.65,-1002.72 590.49,-990.30 736.20,-945.32 737.56,-944.89 748.37,-944.22" fill="none" stroke="#bcbcbc" stroke-width="8" stroke-linecap="round" stroke-linejoin="round" /><polyline points="960.64,-1330.83 1158.85,-1327.34" fill="none" stroke="#bcbcbc" stroke-width="8" stroke-linecap="round" stroke-linejoin="round" /><polyline points="863.59,410.37 835.25,376.69 823.36,362.87 813.15,353.32 799.55,343.17 771.75,326.49 744.85,317.65 690.12,300.75 645.36,286.54 671.17,247.16" fill="none" stroke="#bcbcbc" stroke-width="8" stroke-linecap="round" stroke-linejoin="round" /><polyline points="580.00,142.55 540.54,93.86 533.04,84.60 493.30,29.86 484.30,13.14 486.46,-6.76 498.44,-6.87 528.00,-1.19 572.97,7.46" fill="none" stroke="#bcbcbc" stroke-width="8" stroke-linecap="round" stroke-linejoin="round" /><polyline points="63.86,-247.59 71.14,-231.94 112.69,-146.41 174.48,-19.23 182.36,-3.01" fill="none" stroke="#bcbcbc" stroke-width="8" stroke-linecap="round" stroke-linejoin="round" /><polyline points="-601.67,139.80 -586.80,145.88 -517.20,174.33 -502.00,180.54 -486.01,187.08 -404.07,220.59 -389.24,226.65" fill="none" stroke="#bcbcbc" stroke-width="8" stroke-linecap="round" stroke-linejoin="round" /><polyline points="98.06,-374.41 243.08,-310.97" fill="none" stroke="#bcbcbc" stroke-width="8" stroke-linecap="round" stroke-linejoin="round" /><polyline points="748.37,-944.22 770.46,-943.06 771.86,-941.81 781.78,-933.02 796.34,-920.01 799.03,-914.78 849.24,-870.82 852.95,-863.81 888.26,-832.66 897.14,-829.94 924.60,-805.90 930.76,-803.09 972.17,-767.96 981.39,-759.78 986.48,-751.69" fill="none" stroke="#bcbcbc" stroke-width="8" stroke-linecap="round" stroke-linejoin="round" /><polyline points="-642.60,-374.26 -416.09,-354.07" fill="none" stroke="#bcbcbc" stroke-width="8" stroke-linecap="round" stroke-linejoin="round" /><polyline points="-136.86,469.07 -129.84,454.13 -128.04,447.48 -118.20,411.22 -82.57,285.59 -79.16,273.57 -75.55,260.38 -59.41,201.35 -32.15,101.68 -25.87,78.71" fill="none" stroke="#bcbcbc" stroke-width="8" stroke-linecap="round" stroke-linejoin="round" /><polyline points="63.86,-247.59 98.06,-374.41 25.55,-399.77 6.57,-388.56 -2.09,-381.98 -8.49,-373.31 -13.00,-361.87 -29.68,-300.24 -16.23,-293.39 -2.63,-290.09 27.42,-282.27 49.91,-275.11 63.86,-247.59" fill="none" stroke="#bcbcbc" stroke-width="8" stroke-linecap="round" stroke-linejoin="round" /><polyline points="-29.68,-300.24 -45.56,-302.45 -416.09,-354.07" fill="none" stroke="#bcbcbc" stroke-width="8" stroke-linecap="round" stroke-linejoin="round" /><polyline points="572.97,7.46 607.34,14.97 700.29,44.51 726.28,52.73 787.97,70.54 850.11,88.46 896.12,101.75 969.70,122.99 984.90,127.39 1022.03,139.83 1083.16,156.11 1088.55,157.12" fill="none" stroke="#bcbcbc" stroke-width="8" stroke-linecap="round" stroke-linejoin="round" /><polyline points="616.57,544.37 604.03,547.51 590.47,585.30 569.45,579.33 473.85,546.75 462.34,544.30 436.74,542.46 320.96,542.93 295.44,539.68 237.81,530.86 214.56,527.09 49.67,500.50 -14.18,490.31 -135.95,469.22 -155.62,465.33 -430.43,388.52 -447.77,383.67 -565.33,343.72 -594.25,333.46 -666.50,303.52 -707.68,287.95" fill="none" stroke="#bcbcbc" stroke-width="8" stroke-linecap="round" stroke-linejoin="round" /><polyline points="868.43,-1487.33 856.53,-1489.78 697.70,-1471.00 640.91,-1466.27" fill="none" stroke="#bcbcbc" stroke-width="8" stroke-linecap="round" stroke-linejoin="round" /><polyline points="572.98,7.46 578.54,-1.85 611.87,-87.44 649.11,-216.86 658.61,-244.74 663.69,-252.32 699.65,-367.72 701.44,-381.50 702.80,-390.51" fill="none" stroke="#bcbcbc" stroke-width="8" stroke-linecap="round" stroke-linejoin="round" /><polyline points="736.66,-1242.72 740.46,-1244.17 745.60,-1248.26 753.42,-1257.40 854.84,-1402.90 881.85,-1441.38" fill="none" stroke="#bcbcbc" stroke-width="8" stroke-linecap="round" stroke-linejoin="round" /><polyline points="1188.04,-708.23 1190.11,-714.20 1241.09,-774.17 1244.83,-776.17 1253.69,-788.28 1283.35,-822.35 1292.57,-830.83" fill="none" stroke="#bcbcbc" stroke-width="8" stroke-linecap="round" stroke-linejoin="round" /><polyline points="1232.59,-263.19 1231.88,-271.22 1231.34,-277.43 1228.65,-289.29 1225.44,-297.04 1221.44,-317.38 1221.07,-324.74 1218.36,-341.21 1206.22,-347.55 1196.53,-343.84 1179.17,-339.68 1165.43,-337.53 1152.25,-334.36 1134.06,-330.21 1125.76,-328.32" fill="none" stroke="#bcbcbc" stroke-width="8" stroke-linecap="round" stroke-linejoin="round" /><polyline points="-106.78,-557.71 -69.71,-644.61 -67.65,-650.26" fill="none" stroke="#bcbcbc" stroke-width="8" stroke-linecap="round" stroke-linejoin="round" /><polyline points="870.32,-717.06 888.19,-723.98 897.53,-727.60 904.76,-734.91 934.55,-742.26 944.55,-739.71 966.11,-745.27 982.56,-749.50 986.48,-751.69 1002.43,-755.59 1083.99,-775.57 1102.47,-781.10" fill="none" stroke="#bcbcbc" stroke-width="8" stroke-linecap="round" stroke-linejoin="round" /><polyline points="118.06,18.85 156.53,4.88 169.40,0.94 182.36,-3.01 206.27,-10.31 224.87,-12.99 288.39,-19.94 301.15,-20.64 357.99,-20.15 392.61,-19.85 405.63,-20.52 426.49,-18.41 433.01,-17.47 446.30,-15.57 486.46,-6.76" fill="none" stroke="#bcbcbc" stroke-width="8" stroke-linecap="round" stroke-linejoin="round" /><polyline points="301.36,-1123.18 294.99,-1144.73 271.32,-1224.76 242.56,-1316.01 236.63,-1332.30 230.60,-1347.57 222.98,-1369.57" fill="none" stroke="#bcbcbc" stroke-width="8" stroke-linecap="round" stroke-linejoin="round" /><polyline points="232.51,167.20 237.57,151.23 288.71,-10.02 288.39,-19.94" fill="none" stroke="#bcbcbc" stroke-width="8" stroke-linecap="round" stroke-linejoin="round" /><polyline points="301.15,-20.64 311.28,-156.41 312.29,-167.48 313.84,-180.36 313.87,-180.95 314.53,-196.69 317.91,-239.43 319.82,-259.34 322.42,-281.95 324.80,-298.23 326.93,-308.46 329.61,-316.18 334.86,-333.59 345.73,-369.84 359.54,-416.64 374.78,-464.49 377.88,-474.25 380.38,-481.33" fill="none" stroke="#bcbcbc" stroke-width="8" stroke-linecap="round" stroke-linejoin="round" /><polyline points="-29.68,-300.24 -32.37,-288.21 -31.91,-284.36 -15.41,-147.01 -13.66,-132.47 -14.42,-117.50 -18.74,-32.07 -20.55,3.62 -21.48,22.03 -23.14,54.84 -24.00,71.93 -25.87,78.71" fill="none" stroke="#bcbcbc" stroke-width="8" stroke-linecap="round" stroke-linejoin="round" /><polyline points="-106.78,-557.71 -166.77,-575.54 -174.40,-580.43 -211.73,-591.30 -222.22,-591.19 -269.13,-605.33 -276.71,-610.92 -319.40,-623.85 -371.78,-638.13 -372.03,-638.15 -380.72,-638.90" fill="none" stroke="#bcbcbc" stroke-width="8" stroke-linecap="round" stroke-linejoin="round" /><polyline points="986.48,-751.69 988.56,-748.95 997.26,-735.99 1013.34,-712.02 1028.48,-696.86 1057.58,-664.20 1052.66,-634.01 1050.17,-622.69 1046.69,-617.90 1053.99,-607.11 1065.28,-583.88 1087.83,-540.37 1098.94,-518.95 1105.85,-499.69 1108.97,-490.75" fill="none" stroke="#bcbcbc" stroke-width="8" stroke-linecap="round" stroke-linejoin="round" /><polyline points="1138.41,-689.52 1130.05,-686.92 1074.96,-669.78 1067.06,-667.24 1057.58,-664.20" fill="none" stroke="#bcbcbc" stroke-width="8" stroke-linecap="round" stroke-linejoin="round" /><polyline points="742.53,-585.17 759.76,-590.76 884.80,-654.60 901.54,-662.78 960.48,-679.80 1017.62,-695.86 1028.48,-696.86" fill="none" stroke="#bcbcbc" stroke-width="8" stroke-linecap="round" stroke-linejoin="round" /><polyline points="756.15,-506.14 900.32,-573.21 906.38,-577.23 920.48,-581.33 1016.54,-609.28 1031.11,-614.86 1046.69,-617.90" fill="none" stroke="#bcbcbc" stroke-width="8" stroke-linecap="round" stroke-linejoin="round" /><polyline points="726.74,-1912.38 785.09,-1905.17 790.96,-1904.45 813.58,-1898.90" fill="none" stroke="#bcbcbc" stroke-width="8" stroke-linecap="round" stroke-linejoin="round" /><polyline points="1225.43,-1319.16 1235.78,-1321.32 1274.45,-1302.37 1279.54,-1297.33 1352.12,-1174.47 1354.04,-1159.57 1363.48,-1151.71 1361.98,-1146.28 1361.75,-1137.42 1363.06,-1125.04 1382.28,-1046.04 1383.98,-991.32 1386.67,-903.95 1391.19,-786.36 1372.78,-735.12 1360.92,-703.88 1343.61,-659.86 1338.60,-647.12 1335.34,-643.57 1330.11,-609.50" fill="none" stroke="#bcbcbc" stroke-width="8" stroke-linecap="round" stroke-linejoin="round" /><polyline points="1359.63,-401.97 1341.97,-409.65 1297.86,-440.44 1239.66,-481.33 1207.64,-507.21 1186.05,-530.34" fill="none" stroke="#bcbcbc" stroke-width="8" stroke-linecap="round" stroke-linejoin="round" /><polyline points="645.36,286.54 628.03,281.05 599.89,272.13 586.47,267.87 570.70,262.87 550.77,256.56 532.75,250.85 514.95,245.20 435.53,220.00 421.62,215.59 404.35,210.12 400.54,208.91 355.12,196.91 342.29,193.81 326.21,189.92 309.39,185.84 248.77,171.14 232.51,167.20 215.04,161.14 178.54,148.46 164.78,143.69 152.48,139.69 95.33,119.37 88.13,115.08 84.67,107.62" fill="none" stroke="#bcbcbc" stroke-width="8" stroke-linecap="round" stroke-linejoin="round" /><polyline points="906.38,-577.23 902.17,-592.32 889.63,-637.30 884.80,-654.60 877.83,-667.53 877.18,-669.93 873.07,-685.16 877.86,-691.90 872.10,-711.10 870.32,-717.06" fill="none" stroke="#bcbcbc" stroke-width="8" stroke-linecap="round" stroke-linejoin="round" /><polyline points="885.41,-1127.71 897.33,-1133.32 962.50,-1169.25 999.76,-1193.21 1026.03,-1211.13 1031.83,-1215.45 1052.98,-1230.15 1074.90,-1246.33 1088.77,-1256.43 1105.31,-1268.52 1162.81,-1294.46 1170.26,-1294.07 1181.16,-1299.22 1225.43,-1319.16" fill="none" stroke="#bcbcbc" stroke-width="8" stroke-linecap="round" stroke-linejoin="round" /><polyline points="163.04,-882.79 172.44,-878.98 178.66,-877.07 295.20,-841.28 313.00,-835.81" fill="none" stroke="#bcbcbc" stroke-width="8" stroke-linecap="round" stroke-linejoin="round" /><polyline points="-669.42,-620.73 -752.69,-645.93" fill="none" stroke="#bcbcbc" stroke-width="8" stroke-linecap="round" stroke-linejoin="round" /><polyline points="675.56,-1794.79 696.21,-1768.64 699.29,-1764.74 709.71,-1751.54 721.59,-1750.15 746.00,-1747.28 750.34,-1744.28" fill="none" stroke="#bcbcbc" stroke-width="8" stroke-linecap="round" stroke-linejoin="round" /><polyline points="1392.45,-631.70 1359.74,-625.60 1326.20,-607.37 1295.10,-590.07 1265.69,-575.37 1230.16,-556.07 1204.43,-540.45 1153.57,-513.18 955.07,-413.33 903.60,-390.66 869.60,-375.96 852.75,-370.44 838.81,-367.84 815.99,-366.46 783.52,-371.05 702.49,-390.51 587.46,-417.31 436.13,-462.95 380.38,-481.33 289.09,-509.51 201.78,-538.30 73.73,-588.54 9.70,-616.11 -67.49,-650.41 -195.54,-720.56 -225.56,-740.46 -301.54,-788.25 -333.39,-820.10 -381.18,-881.98 -459.91,-963.14 -490.85,-990.40" fill="none" stroke="#bcbcbc" stroke-width="8" stroke-linecap="round" stroke-linejoin="round" /><polyline points="771.75,326.49 773.09,319.01 777.93,306.79 823.34,200.55 840.50,160.73 860.71,111.10 865.64,92.94" fill="none" stroke="#bcbcbc" stroke-width="8" stroke-linecap="round" stroke-linejoin="round" /><polyline points="-99.37,-122.05 -150.95,-147.01 -268.32,-203.81 -412.29,-273.48 -425.14,-279.70" fill="none" stroke="#bcbcbc" stroke-width="8" stroke-linecap="round" stroke-linejoin="round" /><polyline points="748.37,-944.22 761.39,-957.55 796.02,-993.00 823.51,-1023.01" fill="none" stroke="#bcbcbc" stroke-width="8" stroke-linecap="round" stroke-linejoin="round" /><polyline points="-251.64,-865.25 -265.95,-884.19 -333.00,-972.95 -428.71,-1050.40" fill="none" stroke="#bcbcbc" stroke-width="8" stroke-linecap="round" stroke-linejoin="round" /><polyline points="-667.01,303.30 -653.92,272.27 -612.31,168.52 -607.26,154.91 -601.67,139.80 -599.54,134.35 -598.98,125.82 -593.65,45.16 -592.12,22.03" fill="none" stroke="#bcbcbc" stroke-width="8" stroke-linecap="round" stroke-linejoin="round" /><polyline points="-695.40,-530.63 -669.42,-620.73 -635.15,-739.57 -630.90,-754.28 -626.19,-770.99 -615.62,-808.41 -614.51,-812.34 -611.49,-824.37 -606.66,-837.97 -605.49,-841.26 -599.40,-856.36 -587.44,-882.75 -583.86,-890.32" fill="none" stroke="#bcbcbc" stroke-width="8" stroke-linecap="round" stroke-linejoin="round" /><polyline points="-630.90,-754.28 -578.33,-740.84 -466.98,-712.22 -403.54,-692.47 -377.07,-686.27" fill="none" stroke="#bcbcbc" stroke-width="8" stroke-linecap="round" stroke-linejoin="round" /><polyline points="451.19,-1163.10 452.98,-1174.04 454.78,-1185.39 462.49,-1223.38 481.76,-1311.81 497.58,-1390.91 500.47,-1407.32 504.40,-1429.60 504.41,-1429.62" fill="none" stroke="#bcbcbc" stroke-width="8" stroke-linecap="round" stroke-linejoin="round" /><polyline points="295.54,539.69 319.02,479.83 321.93,469.08 415.08,232.65 421.62,215.59 426.92,201.12 482.58,39.21 493.30,29.85" fill="none" stroke="#bcbcbc" stroke-width="8" stroke-linecap="round" stroke-linejoin="round" /><polyline points="614.84,-1208.87 614.83,-1208.89 611.53,-1226.20 611.02,-1228.31 602.97,-1261.03 602.98,-1261.13 597.49,-1283.32 574.24,-1362.97 571.31,-1371.50 555.62,-1414.17 550.51,-1426.91 547.22,-1435.12 542.95,-1444.46 542.95,-1444.47 542.94,-1444.51 539.83,-1478.82 539.53,-1495.66" fill="none" stroke="#bcbcbc" stroke-width="8" stroke-linecap="round" stroke-linejoin="round" /><polyline points="580.00,142.55 574.02,149.01 565.11,159.61 540.02,230.36 532.75,250.85" fill="none" stroke="#bcbcbc" stroke-width="8" stroke-linecap="round" stroke-linejoin="round" /><polyline points="163.04,-882.79 166.47,-892.08 167.24,-894.24 183.54,-939.75 189.65,-958.93 239.60,-1105.78" fill="none" stroke="#bcbcbc" stroke-width="8" stroke-linecap="round" stroke-linejoin="round" /><polyline points="421.41,-676.92 426.51,-690.45 440.31,-727.11 446.15,-742.61 450.10,-753.10 461.17,-782.51 468.49,-801.95 469.47,-804.56 487.20,-851.64 494.61,-849.34 498.62,-860.27 505.72,-879.60 504.36,-888.39 523.22,-939.71 525.16,-944.99 528.74,-948.27 531.74,-951.03 550.65,-1002.72 553.38,-1016.87 580.51,-1092.24 586.93,-1097.26 599.98,-1134.18 597.66,-1139.85 609.09,-1174.33 603.16,-1205.11" fill="none" stroke="#bcbcbc" stroke-width="8" stroke-linecap="round" stroke-linejoin="round" /><polyline points="906.71,-2078.85 899.11,-2091.32 859.17,-2156.85" fill="none" stroke="#bcbcbc" stroke-width="8" stroke-linecap="round" stroke-linejoin="round" /><polyline points="1031.83,-1215.45 1215.15,-1097.58 1215.20,-1097.50 1215.20,-1097.48 1249.10,-1093.08" fill="none" stroke="#bcbcbc" stroke-width="8" stroke-linecap="round" stroke-linejoin="round" /><polyline points="958.32,-1461.67 1153.36,-1363.78 1159.25,-1359.39 1158.85,-1327.34 1162.81,-1294.46" fill="none" stroke="#bcbcbc" stroke-width="8" stroke-linecap="round" stroke-linejoin="round" /><polyline points="586.47,267.87 579.45,289.27 551.03,375.93 502.69,521.88 499.27,532.23 495.79,542.72 494.82,553.90" fill="none" stroke="#bcbcbc" stroke-width="8" stroke-linecap="round" stroke-linejoin="round" /><polyline points="1135.54,-258.57 1136.71,-269.44 1136.96,-279.59 1136.87,-279.94 1129.96,-309.81 1127.13,-322.29 1125.76,-328.32 1124.36,-334.47 1116.78,-367.89 1101.96,-434.67 1091.19,-474.83 1089.66,-481.03" fill="none" stroke="#bcbcbc" stroke-width="8" stroke-linecap="round" stroke-linejoin="round" /><polyline points="1386.67,-903.95 1370.69,-908.46 1262.18,-1074.96 1249.10,-1093.08" fill="none" stroke="#bcbcbc" stroke-width="8" stroke-linecap="round" stroke-linejoin="round" /><polyline points="-397.20,-504.46 -1.72,-409.73 25.55,-399.77" fill="none" stroke="#bcbcbc" stroke-width="8" stroke-linecap="round" stroke-linejoin="round" /><polyline points="850.17,-1984.76 1004.22,-1927.70 1025.91,-1931.41" fill="none" stroke="#bcbcbc" stroke-width="8" stroke-linecap="round" stroke-linejoin="round" />
    <polyline points="167.20,352.80 172.04,339.06 226.35,184.72 232.51,167.20" fill="none" stroke="#ffffff" stroke-width="16" stroke-linecap="round" stroke-linejoin="round" />
    <polyline points="167.20,352.80 172.04,339.06 226.35,184.72 232.51,167.20" fill="none" stroke="#111111" stroke-width="9" stroke-linecap="round" stroke-linejoin="round" />
    
            <g transform="translate(167.20,352.80)">
              <circle r="19" fill="#ffffff" stroke="#111111" stroke-width="4" />
              <text text-anchor="middle" dominant-baseline="central" font-family="Helvetica, Arial, sans-serif"
                font-size="18" font-weight="700" fill="#111111">1</text>
            </g>
            
            <g transform="translate(232.51,167.20)">
              <circle r="19" fill="#ffffff" stroke="#111111" stroke-width="4" />
              <text text-anchor="middle" dominant-baseline="central" font-family="Helvetica, Arial, sans-serif"
                font-size="18" font-weight="700" fill="#111111">2</text>
            </g>
            
  </g>
</svg>
