<svg xmlns="http://www.w3.org/2000/svg" width="520" height="520" viewBox="0 0 520 520">
  <rect width="100%" height="100%" fill="#ffffff" />
  <g>
    <polyline points="143.97,-54.66 147.56,-35.54 170.74,126.65 167.20,167.20" fill="none" stroke="#bcbcbc" stroke-width="8" stroke-linecap="round" stroke-linejoin="round" /><polyline points="-327.27,1296.97 -321.67,1279.74 -291.97,1188.40 -288.47,1177.63 -284.93,1166.33 -210.25,928.18 -204.24,909.02 -218.00,875.14" fill="none" stroke="#bcbcbc" stroke-width="8" stroke-linecap="round" stroke-linejoin="round" /><polyline points="-843.12,1085.15 -844.32,1071.47 -819.91,934.72 -816.48,917.61 -813.93,908.66 -807.21,873.97 -799.65,831.53 -791.42,794.15 -783.26,756.85 -778.13,746.33 -774.76,739.88" fill="none" stroke="#bcbcbc" stroke-width="8" stroke-linecap="round" stroke-linejoin="round" /><polyline points="-701.40,120.53 -707.20,102.83 -767.20,-80.16 -770.13,-87.84" fill="none" stroke="#bcbcbc" stroke-width="8" stroke-linecap="round" stroke-linejoin="round" /><polyline points="-1009.27,1731.11 -1007.48,1713.65 -1006.75,1705.64 -1000.22,1633.38 -993.07,1569.76 -991.40,1554.91 -989.85,1537.09 -989.68,1535.59 -985.62,1500.15 -982.13,1464.14 -978.28,1429.38 -975.68,1402.32 -974.60,1385.62 -973.64,1370.20 -971.94,1352.82" fill="none" stroke="#bcbcbc" stroke-width="8" stroke-linecap="round" stroke-linejoin="round" /><polyline points="-180.23,1339.43 -175.96,1326.00 -145.85,1231.35 -142.43,1220.59 -137.57,1205.27 -134.08,1194.29 -107.43,1079.36" fill="none" stroke="#bcbcbc" stroke-width="8" stroke-linecap="round" stroke-linejoin="round" /><polyline points="-297.26,-532.75 -286.15,-531.05 20.23,-483.97" fill="none" stroke="#bcbcbc" stroke-width="8" stroke-linecap="round" stroke-linejoin="round" /><polyline points="-1083.80,1317.13 -1115.69,1315.64 -1135.13,1314.74 -1145.70,1314.25 -1154.97,1313.82 -1227.18,1310.46 -1327.62,1305.79 -1375.50,1299.00 -1391.52,1296.72 -1405.42,1294.27 -1499.59,1277.65 -1512.75,1275.33 -1515.66,1274.83 -1531.92,1272.04 -1544.42,1269.90 -1624.20,1262.85 -1639.40,1261.50 -1644.97,1261.01 -1662.23,1259.81 -1696.00,1257.47" fill="none" stroke="#bcbcbc" stroke-width="8" stroke-linecap="round" stroke-linejoin="round" /><polyline points="-620.50,1224.60 -614.32,1207.02 -558.66,1052.72 -491.71,858.10 -487.42,845.89 -484.43,837.36 -482.00,830.36" fill="none" stroke="#bcbcbc" stroke-width="8" stroke-linecap="round" stroke-linejoin="round" /><polyline points="-1644.97,1261.01 -1646.40,1251.09 -1646.73,1240.31 -1644.62,1218.62 -1639.77,1179.00 -1636.54,1165.69 -1631.29,1117.62 -1630.34,1106.91 -1628.80,1093.14 -1627.66,1082.92 -1625.51,1071.32 -1621.52,1040.14 -1618.76,1016.29 -1614.69,1006.53" fill="none" stroke="#bcbcbc" stroke-width="8" stroke-linecap="round" stroke-linejoin="round" /><polyline points="-1701.94,994.34 -1627.70,1004.71 -1614.69,1006.53 -1606.63,1007.81 -1573.35,1013.11 -1496.67,1025.33 -1483.51,1027.53" fill="none" stroke="#bcbcbc" stroke-width="8" stroke-linecap="round" stroke-linejoin="round" /><polyline points="-335.61,20.35 -335.12,27.10 -334.13,33.94 -331.71,39.17 -327.20,45.00 -318.85,52.61 -299.06,64.64 -146.42,160.41 -52.40,286.46 18.61,461.72 23.24,473.30" fill="none" stroke="#bcbcbc" stroke-width="8" stroke-linecap="round" stroke-linejoin="round" /><polyline points="-360.05,531.72 -356.89,536.96 -356.06,538.32 -353.44,551.54 -335.53,638.14 -329.85,665.63 -325.78,685.21 -319.44,724.89 -316.48,743.20 -314.44,754.36 -312.20,764.44 -309.53,770.33 -305.61,777.14 -303.51,780.35 -263.85,837.14 -242.39,870.92 -236.80,879.00" fill="none" stroke="#bcbcbc" stroke-width="8" stroke-linecap="round" stroke-linejoin="round" /><polyline points="-1498.68,1616.14 -1496.57,1603.14 -1494.61,1593.74 -1494.08,1592.50 -1467.68,1529.72 -1450.86,1488.93 -1445.75,1476.00 -1440.34,1462.31 -1434.46,1450.54 -1433.50,1448.24 -1425.46,1428.78 -1419.23,1411.56 -1413.89,1395.77 -1410.51,1384.60 -1406.71,1370.81 -1402.33,1352.32 -1399.00,1337.31 -1395.03,1316.37 -1394.20,1311.70 -1391.52,1296.72" fill="none" stroke="#bcbcbc" stroke-width="8" stroke-linecap="round" stroke-linejoin="round" /><polyline points="-219.65,-136.83 -135.48,-78.01 -124.14,-75.60 -115.84,-66.11" fill="none" stroke="#bcbcbc" stroke-width="8" stroke-linecap="round" stroke-linejoin="round" /><polyline points="-573.11,406.40 -561.98,410.67 -513.68,426.48 -401.65,469.44 -395.36,475.71 -392.41,480.39" fill="none" stroke="#bcbcbc" stroke-width="8" stroke-linecap="round" stroke-linejoin="round" /><polyline points="-364.34,1510.46 -356.71,1490.58 -319.05,1388.39 -292.42,1311.19 -286.89,1308.64" fill="none" stroke="#bcbcbc" stroke-width="8" stroke-linecap="round" stroke-linejoin="round" /><polyline points="-896.73,1380.89 -890.79,1367.75 -890.20,1366.45 -880.03,1332.34 -863.37,1276.20 -859.11,1261.83 -855.79,1250.67 -855.35,1244.16 -856.02,1229.76" fill="none" stroke="#bcbcbc" stroke-width="8" stroke-linecap="round" stroke-linejoin="round" /><polyline points="-204.46,536.21 -214.01,538.18 -235.65,534.33 -239.00,525.40 -276.49,511.11 -285.36,513.42 -319.18,501.00 -324.23,504.53" fill="none" stroke="#bcbcbc" stroke-width="8" stroke-linecap="round" stroke-linejoin="round" /><polyline points="-260.13,-623.58 -243.14,-619.41 -233.74,-617.78 -10.25,-579.03" fill="none" stroke="#bcbcbc" stroke-width="8" stroke-linecap="round" stroke-linejoin="round" /><polyline points="-433.84,1448.23 -424.54,1422.02 -406.47,1371.08 -394.80,1349.38 -378.00,1302.34 -371.29,1283.57" fill="none" stroke="#bcbcbc" stroke-width="8" stroke-linecap="round" stroke-linejoin="round" /><polyline points="-1658.40,430.90 -1674.59,430.16 -1678.65,435.09 -1706.85,469.35 -1805.43,583.23 -1819.29,599.25" fill="none" stroke="#bcbcbc" stroke-width="8" stroke-linecap="round" stroke-linejoin="round" /><polyline points="-793.72,528.43 -800.86,544.25 -801.73,546.17 -826.56,610.91 -851.58,682.18 -858.26,701.19 -862.04,711.00" fill="none" stroke="#bcbcbc" stroke-width="8" stroke-linecap="round" stroke-linejoin="round" /><polyline points="-429.55,-199.02 -421.67,-188.32 -416.03,-173.60 -407.27,-152.48 -393.21,-119.27 -380.75,-89.45 -366.45,-56.70 -355.84,-31.47 -354.27,-27.85 -354.18,-27.62 -345.64,-7.66 -343.09,-1.99 -340.66,3.41 -338.10,8.47 -336.16,13.61 -335.60,20.35" fill="none" stroke="#bcbcbc" stroke-width="8" stroke-linecap="round" stroke-linejoin="round" /><polyline points="-1033.34,847.58 -1029.21,845.32 -1023.44,840.73 -1020.55,834.78 -982.19,689.33 -981.03,681.13 -976.35,666.14" fill="none" stroke="#bcbcbc" stroke-width="8" stroke-linecap="round" stroke-linejoin="round" /><polyline points="307.85,619.97 313.29,637.24 317.13,655.38 309.67,724.51 301.05,776.51 296.35,794.25 295.92,795.86 291.80,805.43 286.18,815.58 273.06,832.18 279.41,864.63 258.85,934.29 247.50,972.76 224.28,1035.73 190.28,1112.40 148.76,1185.87 135.79,1209.75 112.35,1248.98 18.68,1381.92 -1.84,1409.58 -81.31,1513.43 -126.93,1565.34 -190.75,1630.20 -196.66,1630.81 -211.07,1642.60" fill="none" stroke="#bcbcbc" stroke-width="8" stroke-linecap="round" stroke-linejoin="round" /><polyline points="-847.89,1757.14 -821.74,1676.05 -817.47,1662.66 -811.66,1654.22 -799.17,1616.74 -795.10,1604.01 -743.52,1442.51 -738.33,1426.26 -734.06,1411.99 -673.19,1220.40" fill="none" stroke="#bcbcbc" stroke-width="8" stroke-linecap="round" stroke-linejoin="round" /><polyline points="-235.38,249.03 -212.78,224.33 -206.11,216.30 -160.45,151.61" fill="none" stroke="#bcbcbc" stroke-width="8" stroke-linecap="round" stroke-linejoin="round" /><polyline points="-687.15,258.82 -624.91,280.48 -621.47,286.07 -603.80,292.00 -593.30,295.59 -543.13,312.53" fill="none" stroke="#bcbcbc" stroke-width="8" stroke-linecap="round" stroke-linejoin="round" /><polyline points="-144.63,-171.93 -115.84,-66.11 -82.51,58.56 -77.46,68.95 -76.66,80.81 -54.06,123.00 6.94,236.75 20.27,256.41 24.13,262.18 115.25,432.55 157.13,470.62 163.01,478.20 171.29,485.29 250.81,553.28 256.21,557.89 270.49,565.48" fill="none" stroke="#bcbcbc" stroke-width="8" stroke-linecap="round" stroke-linejoin="round" /><polyline points="-453.88,1774.36 -255.57,1659.16 -220.27,1641.10 -211.07,1642.60" fill="none" stroke="#bcbcbc" stroke-width="8" stroke-linecap="round" stroke-linejoin="round" /><polyline points="-238.87,1609.55 -226.57,1594.92 -116.10,1374.51 -108.79,1360.05 -102.68,1345.75 -67.00,1257.51 -56.37,1230.93 -25.62,1137.85 -5.68,1018.19 -3.31,1000.77" fill="none" stroke="#bcbcbc" stroke-width="8" stroke-linecap="round" stroke-linejoin="round" /><polyline points="-324.12,313.29 -326.05,315.27 -328.71,324.54 -328.98,325.47 -340.97,371.63 -337.82,383.68 -340.44,394.48 -343.86,408.62 -352.63,418.79 -362.59,459.11 -374.31,467.97 -386.83,476.56 -392.41,480.39" fill="none" stroke="#bcbcbc" stroke-width="8" stroke-linecap="round" stroke-linejoin="round" /><polyline points="-793.72,528.43 -788.62,515.37 -757.98,436.80 -751.30,419.67 -745.79,405.56 -706.63,305.24 -689.00,263.29 -687.15,258.82 -673.45,225.69 -642.71,149.36 -631.45,116.86 -628.94,109.41 -625.58,100.96" fill="none" stroke="#bcbcbc" stroke-width="8" stroke-linecap="round" stroke-linejoin="round" /><polyline points="-450.80,52.20 -444.88,69.84 -250.39,235.97 -144.27,328.30 14.24,466.10 28.08,477.17 34.28,481.04 61.78,506.01 98.51,537.34 181.83,608.39 208.74,631.53 226.60,652.89" fill="none" stroke="#bcbcbc" stroke-width="8" stroke-linecap="round" stroke-linejoin="round" /><polyline points="-129.24,-234.06 -119.37,-240.38 -60.94,-264.67 -48.93,-277.30" fill="none" stroke="#bcbcbc" stroke-width="8" stroke-linecap="round" stroke-linejoin="round" /><polyline points="-61.74,1244.37 -142.43,1220.59 -288.47,1177.63" fill="none" stroke="#bcbcbc" stroke-width="8" stroke-linecap="round" stroke-linejoin="round" /><polyline points="-322.18,-471.85 -311.16,-464.25 47.95,-384.34" fill="none" stroke="#bcbcbc" stroke-width="8" stroke-linecap="round" stroke-linejoin="round" /><polyline points="121.41,710.57 102.85,669.28 61.66,571.04 58.59,563.23 51.54,545.30 24.99,477.74 23.32,473.36" fill="none" stroke="#bcbcbc" stroke-width="8" stroke-linecap="round" stroke-linejoin="round" /><polyline points="-429.55,-199.02 -449.49,-204.69 -464.14,-209.06 -493.92,-217.90 -509.05,-222.21 -517.71,-224.62 -529.03,-227.86" fill="none" stroke="#bcbcbc" stroke-width="8" stroke-linecap="round" stroke-linejoin="round" /><polyline points="-949.40,341.29 -950.40,337.99 -951.33,335.68 -955.44,325.47 -971.36,288.35 -986.49,250.65 -989.76,241.75 -993.52,231.50 -996.21,223.11 -1000.66,210.53 -1001.13,209.21 -1015.60,173.54 -1042.17,106.49 -1048.14,103.08 -1052.39,92.21 -1060.86,62.76 -1075.38,26.26 -1078.51,17.97" fill="none" stroke="#bcbcbc" stroke-width="8" stroke-linecap="round" stroke-linejoin="round" /><polyline points="-821.74,1676.05 -806.66,1680.67 -757.83,1695.55 -742.54,1700.21" fill="none" stroke="#bcbcbc" stroke-width="8" stroke-linecap="round" stroke-linejoin="round" /><polyline points="90.04,-216.50 92.88,-228.00 91.73,-232.37 90.33,-237.64 81.42,-270.30 61.54,-339.35 51.06,-374.64 47.95,-384.34 20.23,-483.97 5.28,-537.71 -10.25,-579.03 -24.27,-616.31 -38.23,-641.94 -51.80,-655.48 -155.94,-782.75 -163.65,-791.81 -168.75,-800.18" fill="none" stroke="#bcbcbc" stroke-width="8" stroke-linecap="round" stroke-linejoin="round" /><polyline points="-335.60,20.35 -340.98,22.41 -350.90,25.15 -351.90,25.42 -393.38,36.03 -441.07,49.46 -450.80,52.20 -455.14,53.58 -466.60,57.26 -476.39,59.98 -519.16,71.88 -589.49,91.87 -615.71,98.49 -625.58,100.96 -672.45,112.47 -701.40,120.53 -762.72,137.66 -823.32,154.74 -830.33,156.69 -880.98,170.75 -904.35,177.24 -916.14,182.81 -938.47,193.88 -982.83,216.39 -985.92,217.96 -996.21,223.11 -1002.50,226.26 -1011.26,230.85 -1042.42,247.19 -1099.20,279.05 -1146.63,303.89 -1153.41,307.45 -1162.47,308.01 -1167.92,310.91 -1169.00,311.48 -1220.46,339.68 -1231.23,339.63 -1243.60,346.11 -1247.92,348.36 -1251.56,350.27 -1260.17,354.77 -1266.94,370.23 -1296.06,385.83 -1305.32,390.79 -1315.34,396.24 -1355.86,418.29 -1376.80,429.69 -1387.36,432.73" fill="none" stroke="#bcbcbc" stroke-width="8" stroke-linecap="round" stroke-linejoin="round" /><polyline points="247.50,972.76 225.88,974.74 158.35,980.93 155.30,981.21 151.00,981.60 144.03,982.24 78.54,988.26 55.77,986.14 29.25,992.79 8.00,998.00 -3.31,1000.77 -31.43,1001.84 -55.76,1000.60 -68.16,999.28 -78.72,996.09 -86.50,991.79 -115.45,971.31 -185.81,922.99 -192.44,918.49 -199.19,913.91 -204.24,909.02" fill="none" stroke="#bcbcbc" stroke-width="8" stroke-linecap="round" stroke-linejoin="round" /><polyline points="-1345.94,156.93 -1320.41,206.91 -1316.54,221.19 -1295.04,262.23 -1286.16,273.96 -1250.22,343.90 -1247.92,348.36" fill="none" stroke="#bcbcbc" stroke-width="8" stroke-linecap="round" stroke-linejoin="round" /><polyline points="-563.62,601.39 -567.45,611.90 -568.52,615.17 -573.51,630.28 -605.09,718.40 -620.77,762.16 -621.30,763.65 -627.60,777.26 -631.21,785.34" fill="none" stroke="#bcbcbc" stroke-width="8" stroke-linecap="round" stroke-linejoin="round" /><polyline points="-144.63,-171.93 -148.13,-179.43 -157.33,-180.64 -187.10,-173.81 -193.15,-174.60 -197.89,-180.95 -206.32,-219.69 -160.69,-226.75 -139.57,-232.99 -129.24,-234.06 -118.12,-194.51" fill="none" stroke="#bcbcbc" stroke-width="8" stroke-linecap="round" stroke-linejoin="round" /><polyline points="20.27,256.41 32.02,249.82 91.05,214.24 106.83,204.85 134.44,188.39 179.87,159.01 190.47,151.38 270.16,101.95" fill="none" stroke="#bcbcbc" stroke-width="8" stroke-linecap="round" stroke-linejoin="round" /><polyline points="298.82,489.92 278.67,483.91 266.96,474.31 222.20,435.57 220.67,434.21 209.85,424.56 203.49,413.28 91.05,214.24" fill="none" stroke="#bcbcbc" stroke-width="8" stroke-linecap="round" stroke-linejoin="round" /><polyline points="-970.14,474.14 -793.72,528.43 -779.33,533.00 -647.67,574.73 -644.93,575.60 -625.20,581.86 -615.50,584.93 -602.90,588.38 -576.91,597.18 -563.62,601.39 -551.66,605.19 -453.69,636.27 -350.26,668.76 -341.71,671.45 -329.85,665.63" fill="none" stroke="#bcbcbc" stroke-width="8" stroke-linecap="round" stroke-linejoin="round" /><polyline points="-451.41,-396.86 -374.99,-467.08 -362.05,-478.97" fill="none" stroke="#bcbcbc" stroke-width="8" stroke-linecap="round" stroke-linejoin="round" /><polyline points="-1731.10,736.23 -1450.68,766.28" fill="none" stroke="#bcbcbc" stroke-width="8" stroke-linecap="round" stroke-linejoin="round" /><polyline points="-885.17,-46.48 -826.24,-67.55 -765.44,-89.53 -727.67,-104.22 -612.34,-146.16 -578.87,-157.74 -571.88,-160.16 -563.50,-163.04 -554.09,-166.28 -552.94,-166.67 -533.94,-174.31 -525.68,-177.63" fill="none" stroke="#bcbcbc" stroke-width="8" stroke-linecap="round" stroke-linejoin="round" /><polyline points="-489.32,1379.78 -433.84,1448.23 -399.87,1482.44 -385.16,1493.02 -364.34,1510.46 -344.79,1526.88 -327.99,1543.27 -327.57,1551.61" fill="none" stroke="#bcbcbc" stroke-width="8" stroke-linecap="round" stroke-linejoin="round" /><polyline points="-429.55,-199.02 -407.81,-253.53 -372.61,-343.27 -322.18,-471.85 -297.26,-532.75 -260.13,-623.58 -229.68,-697.97 -224.23,-707.84 -197.46,-751.62 -195.73,-754.45 -185.93,-773.72 -168.75,-800.18 -159.16,-814.94 -145.58,-835.83" fill="none" stroke="#bcbcbc" stroke-width="8" stroke-linecap="round" stroke-linejoin="round" /><polyline points="-942.58,1258.38 -946.14,1261.23 -948.49,1264.62 -953.29,1278.77 -956.60,1288.98 -971.92,1334.79 -974.03,1341.40 -975.34,1345.50 -989.41,1341.47 -1023.65,1329.99 -1057.58,1318.61 -1083.80,1317.13" fill="none" stroke="#bcbcbc" stroke-width="8" stroke-linecap="round" stroke-linejoin="round" /><polyline points="-1613.11,1577.19 -1557.20,1432.78 -1550.97,1417.06 -1545.39,1401.92 -1538.65,1383.62 -1530.38,1354.84 -1521.76,1319.08 -1518.23,1293.45 -1515.66,1274.83 -1512.04,1261.08 -1498.88,1157.83 -1483.51,1027.53 -1475.56,965.41 -1466.68,892.43 -1450.68,766.28 -1448.14,744.84 -1431.98,612.91 -1431.97,605.57 -1428.39,566.42 -1418.08,483.74 -1415.50,469.32 -1412.80,461.23 -1408.58,452.32 -1404.48,445.41 -1395.43,435.61 -1387.34,432.83" fill="none" stroke="#bcbcbc" stroke-width="8" stroke-linecap="round" stroke-linejoin="round" /><polyline points="-392.41,480.39 -389.36,485.24 -379.10,501.24 -363.75,525.85 -360.05,531.72 -353.93,527.07 -324.23,504.53" fill="none" stroke="#bcbcbc" stroke-width="8" stroke-linecap="round" stroke-linejoin="round" /><polyline points="-372.61,-343.27 -70.49,-288.65 -38.76,-271.95 79.61,-213.27 90.04,-216.50" fill="none" stroke="#bcbcbc" stroke-width="8" stroke-linecap="round" stroke-linejoin="round" /><polyline points="-949.40,341.29 -954.76,349.11 -1002.96,372.63 -1038.36,417.63 -1076.56,441.28 -1102.68,461.01 -1127.61,481.34 -1140.39,492.99 -1162.96,521.62 -1188.20,557.80 -1192.36,564.51" fill="none" stroke="#bcbcbc" stroke-width="8" stroke-linecap="round" stroke-linejoin="round" /><polyline points="-898.44,373.57 -900.53,378.21 -905.10,384.89 -913.73,395.52 -964.65,459.84 -991.59,532.39 -1127.55,481.28" fill="none" stroke="#bcbcbc" stroke-width="8" stroke-linecap="round" stroke-linejoin="round" /><polyline points="-1102.68,461.01 -1107.95,445.07 -1130.70,376.18 -1139.53,362.57 -1154.31,318.22 -1155.59,314.39 -1153.41,307.45 -1156.95,296.14 -1228.05,69.14" fill="none" stroke="#bcbcbc" stroke-width="8" stroke-linecap="round" stroke-linejoin="round" /><polyline points="-269.67,-777.57 -213.49,-776.09 -210.86,-776.02 -200.10,-775.71 -185.93,-773.72" fill="none" stroke="#bcbcbc" stroke-width="8" stroke-linecap="round" stroke-linejoin="round" /><polyline points="-558.66,1052.72 -577.85,1052.49 -740.29,1074.30 -752.00,1075.53 -765.38,1076.94 -843.12,1085.15 -947.84,1096.21 -1003.36,1102.06 -1034.08,1105.30 -1059.01,1108.33 -1071.82,1109.89 -1086.24,1111.65 -1155.91,1120.11 -1172.61,1122.14 -1224.06,1127.77 -1498.88,1157.83" fill="none" stroke="#bcbcbc" stroke-width="8" stroke-linecap="round" stroke-linejoin="round" /><polyline points="-799.17,1616.74 -813.56,1612.11 -880.77,1590.48 -894.36,1586.10 -906.15,1582.31 -977.36,1559.42 -991.40,1554.91 -1009.97,1548.93 -1123.33,1512.45 -1136.09,1508.35" fill="none" stroke="#bcbcbc" stroke-width="8" stroke-linecap="round" stroke-linejoin="round" /><polyline points="-518.12,255.88 -479.03,268.06 -336.06,312.21 -334.72,312.62 -324.12,313.29" fill="none" stroke="#bcbcbc" stroke-width="8" stroke-linecap="round" stroke-linejoin="round" /><polyline points="-115.84,-66.11 78.64,-62.69" fill="none" stroke="#bcbcbc" stroke-width="8" stroke-linecap="round" stroke-linejoin="round" /><polyline points="-211.07,1642.60 -238.87,1609.55 -250.54,1595.98 -260.56,1586.62 -273.90,1576.65 -301.18,1560.29 -327.57,1551.61 -381.27,1535.02 -425.19,1521.08 -399.87,1482.44" fill="none" stroke="#bcbcbc" stroke-width="8" stroke-linecap="round" stroke-linejoin="round" /><polyline points="-489.32,1379.78 -528.04,1331.99 -535.40,1322.90 -574.39,1269.18 -583.22,1252.78 -581.10,1233.25 -569.35,1233.14 -540.35,1238.72 -496.21,1247.21" fill="none" stroke="#bcbcbc" stroke-width="8" stroke-linecap="round" stroke-linejoin="round" /><polyline points="-995.75,996.91 -988.61,1012.27 -947.84,1096.21 -887.22,1221.01 -879.48,1236.93" fill="none" stroke="#bcbcbc" stroke-width="8" stroke-linecap="round" stroke-linejoin="round" /><polyline points="-1648.76,1377.08 -1634.18,1383.04 -1565.88,1410.97 -1550.97,1417.06 -1535.29,1423.48 -1454.88,1456.36 -1440.34,1462.31" fill="none" stroke="#bcbcbc" stroke-width="8" stroke-linecap="round" stroke-linejoin="round" /><polyline points="-962.20,872.47 -819.91,934.72" fill="none" stroke="#bcbcbc" stroke-width="8" stroke-linecap="round" stroke-linejoin="round" /><polyline points="-324.12,313.29 -302.45,314.43 -301.06,315.65 -291.34,324.28 -277.05,337.04 -274.41,342.17 -225.15,385.31 -221.50,392.20 -186.86,422.77 -178.15,425.43 -151.20,449.03 -145.16,451.78 -104.53,486.26 -95.48,494.28 -90.49,502.23" fill="none" stroke="#bcbcbc" stroke-width="8" stroke-linecap="round" stroke-linejoin="round" /><polyline points="-1688.93,872.61 -1466.68,892.43" fill="none" stroke="#bcbcbc" stroke-width="8" stroke-linecap="round" stroke-linejoin="round" /><polyline points="-1192.70,1700.20 -1185.81,1685.54 -1184.04,1679.02 -1174.39,1643.43 -1139.43,1520.15 -1136.09,1508.35 -1132.55,1495.40 -1116.71,1437.48 -1089.96,1339.67 -1083.80,1317.13" fill="none" stroke="#bcbcbc" stroke-width="8" stroke-linecap="round" stroke-linejoin="round" /><polyline points="-995.75,996.91 -962.20,872.47 -1033.34,847.58 -1051.97,858.58 -1060.46,865.04 -1066.75,873.54 -1071.17,884.77 -1087.53,945.25 -1074.33,951.97 -1061.00,955.21 -1031.51,962.88 -1009.44,969.91 -995.75,996.91" fill="none" stroke="#bcbcbc" stroke-width="8" stroke-linecap="round" stroke-linejoin="round" /><polyline points="-1087.53,945.25 -1103.12,943.08 -1466.68,892.43" fill="none" stroke="#bcbcbc" stroke-width="8" stroke-linecap="round" stroke-linejoin="round" /><polyline points="-496.21,1247.21 -462.49,1254.58 -371.29,1283.57 -345.79,1291.63 -285.26,1309.11 -224.29,1326.70 -179.15,1339.74 -106.95,1360.58 -92.04,1364.90 -55.61,1377.11 4.37,1393.09 9.66,1394.08" fill="none" stroke="#bcbcbc" stroke-width="8" stroke-linecap="round" stroke-linejoin="round" /><polyline points="-453.44,1774.10 -465.74,1777.18 -479.05,1814.26 -499.68,1808.40 -593.48,1776.43 -604.77,1774.02 -629.89,1772.23 -743.48,1772.68 -768.53,1769.49 -825.08,1760.84 -847.89,1757.14 -1009.68,1731.05 -1072.33,1721.05 -1191.81,1700.35 -1211.10,1696.53 -1480.75,1621.16 -1497.76,1616.39 -1613.11,1577.19 -1641.49,1567.12 -1712.38,1537.74 -1752.78,1522.46" fill="none" stroke="#bcbcbc" stroke-width="8" stroke-linecap="round" stroke-linejoin="round" /><polyline points="-206.32,-219.69 -217.99,-222.09 -373.83,-203.67 -429.55,-199.02" fill="none" stroke="#bcbcbc" stroke-width="8" stroke-linecap="round" stroke-linejoin="round" /><polyline points="-496.21,1247.21 -490.75,1238.07 -458.05,1154.08 -421.51,1027.07 -412.19,999.72 -407.20,992.27 -371.92,879.02 -370.17,865.50 -368.83,856.67" fill="none" stroke="#bcbcbc" stroke-width="8" stroke-linecap="round" stroke-linejoin="round" /><polyline points="-335.60,20.35 -331.88,18.93 -326.83,14.92 -319.17,5.95 -219.65,-136.83 -193.15,-174.60" fill="none" stroke="#bcbcbc" stroke-width="8" stroke-linecap="round" stroke-linejoin="round" /><polyline points="107.28,544.87 109.32,539.01 159.34,480.16 163.01,478.20 171.70,466.31 200.80,432.89 209.85,424.56" fill="none" stroke="#bcbcbc" stroke-width="8" stroke-linecap="round" stroke-linejoin="round" /><polyline points="151.00,981.60 150.30,973.73 149.77,967.64 147.13,955.99 143.98,948.39 140.05,928.43 139.69,921.20 137.03,905.05 125.13,898.83 115.61,902.47 98.58,906.54 85.10,908.65 72.17,911.77 54.32,915.84 46.18,917.70" fill="none" stroke="#bcbcbc" stroke-width="8" stroke-linecap="round" stroke-linejoin="round" /><polyline points="-1163.19,692.58 -1126.81,607.30 -1124.79,601.76" fill="none" stroke="#bcbcbc" stroke-width="8" stroke-linecap="round" stroke-linejoin="round" /><polyline points="-204.46,536.21 -186.93,529.41 -177.76,525.86 -170.67,518.69 -141.44,511.48 -131.63,513.98 -110.47,508.53 -94.33,504.37 -90.49,502.23 -74.84,498.39 5.19,478.79 23.32,473.36" fill="none" stroke="#bcbcbc" stroke-width="8" stroke-linecap="round" stroke-linejoin="round" /><polyline points="-942.58,1258.38 -904.83,1244.67 -892.20,1240.81 -879.48,1236.93 -856.02,1229.76 -837.78,1227.14 -775.45,1220.32 -762.92,1219.64 -707.16,1220.11 -673.19,1220.40 -660.41,1219.75 -639.95,1221.82 -633.55,1222.74 -620.50,1224.60 -581.10,1233.25" fill="none" stroke="#bcbcbc" stroke-width="8" stroke-linecap="round" stroke-linejoin="round" /><polyline points="-762.72,137.66 -768.97,116.52 -792.20,37.98 -820.41,-51.57 -826.24,-67.55 -832.15,-82.54 -839.63,-104.13" fill="none" stroke="#bcbcbc" stroke-width="8" stroke-linecap="round" stroke-linejoin="round" /><polyline points="-830.27,1403.97 -825.31,1388.30 -775.13,1230.05 -775.45,1220.32" fill="none" stroke="#bcbcbc" stroke-width="8" stroke-linecap="round" stroke-linejoin="round" /><polyline points="-762.92,1219.64 -752.99,1086.39 -752.00,1075.53 -750.47,1062.89 -750.45,1062.32 -749.80,1046.86 -746.48,1004.92 -744.61,985.39 -742.06,963.20 -739.72,947.22 -737.64,937.19 -735.00,929.60 -729.85,912.52 -719.19,876.95 -705.63,831.02 -690.69,784.06 -687.64,774.48 -685.19,767.54" fill="none" stroke="#bcbcbc" stroke-width="8" stroke-linecap="round" stroke-linejoin="round" /><polyline points="-1087.53,945.25 -1090.18,957.06 -1089.72,960.83 -1073.53,1095.62 -1071.82,1109.89 -1072.56,1124.58 -1076.80,1208.41 -1078.57,1243.44 -1079.49,1261.50 -1081.12,1293.70 -1081.97,1310.47 -1083.80,1317.13" fill="none" stroke="#bcbcbc" stroke-width="8" stroke-linecap="round" stroke-linejoin="round" /><polyline points="-1163.19,692.58 -1222.05,675.09 -1229.53,670.29 -1266.16,659.62 -1276.46,659.72 -1322.49,645.86 -1329.92,640.37 -1371.81,627.67 -1423.20,613.67 -1423.45,613.64 -1431.98,612.91" fill="none" stroke="#bcbcbc" stroke-width="8" stroke-linecap="round" stroke-linejoin="round" /><polyline points="-90.49,502.23 -88.44,504.91 -79.91,517.63 -64.13,541.15 -49.28,556.03 -20.72,588.08 -25.55,617.71 -28.00,628.82 -31.40,633.51 -24.25,644.11 -13.17,666.90 8.96,709.60 19.86,730.62 26.64,749.52 29.70,758.30" fill="none" stroke="#bcbcbc" stroke-width="8" stroke-linecap="round" stroke-linejoin="round" /><polyline points="58.59,563.23 50.38,565.79 -3.67,582.61 -11.42,585.10 -20.72,588.08" fill="none" stroke="#bcbcbc" stroke-width="8" stroke-linecap="round" stroke-linejoin="round" /><polyline points="-329.85,665.63 -312.94,660.15 -190.25,597.50 -173.83,589.48 -116.00,572.77 -59.93,557.01 -49.28,556.03" fill="none" stroke="#bcbcbc" stroke-width="8" stroke-linecap="round" stroke-linejoin="round" /><polyline points="-316.48,743.20 -175.03,677.37 -169.08,673.43 -155.24,669.41 -60.99,641.98 -46.69,636.50 -31.40,633.51" fill="none" stroke="#bcbcbc" stroke-width="8" stroke-linecap="round" stroke-linejoin="round" /><polyline points="-345.34,-636.81 -288.08,-629.74 -282.33,-629.03 -260.13,-623.58" fill="none" stroke="#bcbcbc" stroke-width="8" stroke-linecap="round" stroke-linejoin="round" /><polyline points="143.97,-54.66 154.12,-56.78 192.06,-38.18 197.06,-33.23 268.28,87.33 270.16,101.95 279.42,109.67 277.95,115.00 277.72,123.69 279.01,135.84 297.87,213.37 299.54,267.06 302.18,352.80 306.62,468.20 288.55,518.49 276.92,549.14 259.93,592.34 255.01,604.84 251.81,608.33 246.68,641.76" fill="none" stroke="#bcbcbc" stroke-width="8" stroke-linecap="round" stroke-linejoin="round" /><polyline points="275.65,845.42 258.32,837.88 215.04,807.67 157.93,767.54 126.52,742.14 105.33,719.44" fill="none" stroke="#bcbcbc" stroke-width="8" stroke-linecap="round" stroke-linejoin="round" /><polyline points="-425.19,1521.08 -442.20,1515.69 -469.80,1506.94 -482.98,1502.76 -498.45,1497.86 -518.00,1491.66 -535.68,1486.05 -553.15,1480.51 -631.07,1455.78 -644.72,1451.45 -661.67,1446.08 -665.41,1444.90 -709.98,1433.12 -722.56,1430.08 -738.33,1426.26 -754.84,1422.26 -814.32,1407.84 -830.27,1403.97 -847.41,1398.02 -883.23,1385.58 -896.73,1380.89 -908.80,1376.97 -964.88,1357.03 -971.94,1352.82 -975.34,1345.50" fill="none" stroke="#bcbcbc" stroke-width="8" stroke-linecap="round" stroke-linejoin="round" /><polyline points="-169.08,673.43 -173.21,658.62 -185.52,614.48 -190.25,597.50 -197.09,584.81 -197.73,582.46 -201.76,567.51 -197.07,560.89 -202.71,542.06 -204.46,536.21" fill="none" stroke="#bcbcbc" stroke-width="8" stroke-linecap="round" stroke-linejoin="round" /><polyline points="-189.66,133.22 -177.96,127.71 -114.01,92.46 -77.46,68.95 -51.68,51.36 -45.98,47.12 -25.24,32.70 -3.73,16.81 9.88,6.90 26.11,-4.97 82.52,-30.42 89.84,-30.03 100.53,-35.09 143.97,-54.66" fill="none" stroke="#bcbcbc" stroke-width="8" stroke-linecap="round" stroke-linejoin="round" /><polyline points="-898.44,373.57 -889.21,377.31 -883.11,379.18 -768.76,414.31 -751.30,419.67" fill="none" stroke="#bcbcbc" stroke-width="8" stroke-linecap="round" stroke-linejoin="round" /><polyline points="-1715.25,630.74 -1796.95,606.01" fill="none" stroke="#bcbcbc" stroke-width="8" stroke-linecap="round" stroke-linejoin="round" /><polyline points="-395.56,-521.42 -375.30,-495.75 -372.28,-491.92 -362.05,-478.97 -350.40,-477.60 -326.44,-474.79 -322.18,-471.85" fill="none" stroke="#bcbcbc" stroke-width="8" stroke-linecap="round" stroke-linejoin="round" /><polyline points="307.85,619.97 275.75,625.96 242.84,643.85 212.33,660.83 183.48,675.26 148.61,694.19 123.36,709.53 73.47,736.28 -121.31,834.27 -171.81,856.52 -205.17,870.94 -221.70,876.36 -235.38,878.91 -257.77,880.26 -289.63,875.76 -369.13,856.67 -482.00,830.36 -630.49,785.57 -685.19,767.54 -774.76,739.88 -860.43,711.63 -986.07,662.33 -1048.89,635.28 -1124.64,601.61 -1250.28,532.78 -1279.73,513.24 -1354.28,466.35 -1385.54,435.09 -1432.43,374.37 -1509.68,294.72 -1540.03,267.96" fill="none" stroke="#bcbcbc" stroke-width="8" stroke-linecap="round" stroke-linejoin="round" /><polyline points="-301.18,1560.29 -299.86,1552.94 -295.11,1540.95 -250.56,1436.69 -233.72,1397.61 -213.89,1348.91 -209.05,1331.09" fill="none" stroke="#bcbcbc" stroke-width="8" stroke-linecap="round" stroke-linejoin="round" /><polyline points="-1155.91,1120.11 -1206.52,1095.62 -1321.69,1039.87 -1462.95,971.51 -1475.56,965.41" fill="none" stroke="#bcbcbc" stroke-width="8" stroke-linecap="round" stroke-linejoin="round" /><polyline points="-324.12,313.29 -311.34,300.20 -277.36,265.42 -250.39,235.97" fill="none" stroke="#bcbcbc" stroke-width="8" stroke-linecap="round" stroke-linejoin="round" /><polyline points="-1305.32,390.79 -1319.36,372.20 -1385.15,285.09 -1479.06,209.09" fill="none" stroke="#bcbcbc" stroke-width="8" stroke-linecap="round" stroke-linejoin="round" /><polyline points="-1712.88,1537.53 -1700.04,1507.07 -1659.20,1405.27 -1654.25,1391.90 -1648.76,1377.08 -1646.68,1371.73 -1646.13,1363.35 -1640.90,1284.21 -1639.40,1261.50" fill="none" stroke="#bcbcbc" stroke-width="8" stroke-linecap="round" stroke-linejoin="round" /><polyline points="-1740.74,719.15 -1715.25,630.74 -1681.62,514.12 -1677.45,499.68 -1672.82,483.28 -1662.46,446.56 -1661.37,442.71 -1658.40,430.90 -1653.67,417.55 -1652.52,414.32 -1646.54,399.50 -1634.81,373.61 -1631.30,366.18" fill="none" stroke="#bcbcbc" stroke-width="8" stroke-linecap="round" stroke-linejoin="round" /><polyline points="-1677.45,499.68 -1625.87,512.87 -1516.61,540.96 -1454.36,560.34 -1428.39,566.42" fill="none" stroke="#bcbcbc" stroke-width="8" stroke-linecap="round" stroke-linejoin="round" /><polyline points="-615.71,98.49 -613.95,87.76 -612.19,76.61 -604.62,39.33 -585.72,-47.45 -570.19,-125.07 -567.35,-141.18 -563.50,-163.04 -563.49,-163.06" fill="none" stroke="#bcbcbc" stroke-width="8" stroke-linecap="round" stroke-linejoin="round" /><polyline points="-768.43,1769.51 -745.40,1710.76 -742.54,1700.21 -651.14,1468.19 -644.72,1451.45 -639.52,1437.25 -584.91,1278.36 -574.39,1269.18" fill="none" stroke="#bcbcbc" stroke-width="8" stroke-linecap="round" stroke-linejoin="round" /><polyline points="-455.14,53.58 -455.14,53.56 -458.38,36.56 -458.89,34.50 -466.78,2.39 -466.78,2.29 -472.16,-19.48 -494.97,-97.65 -497.84,-106.02 -513.25,-147.89 -518.25,-160.39 -521.48,-168.46 -525.67,-177.62 -525.68,-177.63 -525.68,-177.67 -528.74,-211.34 -529.03,-227.86" fill="none" stroke="#bcbcbc" stroke-width="8" stroke-linecap="round" stroke-linejoin="round" /><polyline points="-489.33,1379.78 -495.19,1386.12 -503.93,1396.52 -528.55,1465.95 -535.68,1486.05" fill="none" stroke="#bcbcbc" stroke-width="8" stroke-linecap="round" stroke-linejoin="round" /><polyline points="-898.44,373.57 -895.07,364.45 -894.31,362.33 -878.32,317.67 -872.33,298.85 -823.32,154.74" fill="none" stroke="#bcbcbc" stroke-width="8" stroke-linecap="round" stroke-linejoin="round" /><polyline points="-644.93,575.60 -639.92,562.32 -626.38,526.34 -620.66,511.13 -616.78,500.84 -605.91,471.97 -598.74,452.90 -597.77,450.34 -580.38,404.14 -573.11,406.40 -569.17,395.67 -562.20,376.70 -563.53,368.08 -545.03,317.71 -543.13,312.53 -539.62,309.31 -536.68,306.60 -518.12,255.88 -515.44,241.99 -488.82,168.03 -482.52,163.11 -469.72,126.87 -471.99,121.31 -460.78,87.47 -466.60,57.26" fill="none" stroke="#bcbcbc" stroke-width="8" stroke-linecap="round" stroke-linejoin="round" /><polyline points="-168.75,-800.18 -176.21,-812.41 -215.41,-876.71" fill="none" stroke="#bcbcbc" stroke-width="8" stroke-linecap="round" stroke-linejoin="round" /><polyline points="-45.98,47.12 133.88,162.78 133.93,162.86 133.93,162.88 167.20,167.20" fill="none" stroke="#bcbcbc" stroke-width="8" stroke-linecap="round" stroke-linejoin="round" /><polyline points="-118.12,-194.51 73.26,-98.44 79.03,-94.14 78.65,-62.69 82.52,-30.42" fill="none" stroke="#bcbcbc" stroke-width="8" stroke-linecap="round" stroke-linejoin="round" /><polyline points="-482.98,1502.76 -489.86,1523.76 -517.74,1608.81 -565.17,1752.03 -568.54,1762.19 -571.95,1772.48 -572.90,1783.45" fill="none" stroke="#bcbcbc" stroke-width="8" stroke-linecap="round" stroke-linejoin="round" /><polyline points="55.77,986.14 56.91,975.47 57.16,965.52 57.08,965.17 50.30,935.86 47.52,923.61 46.18,917.70 44.80,911.66 37.36,878.86 22.82,813.32 12.25,773.92 10.75,767.83" fill="none" stroke="#bcbcbc" stroke-width="8" stroke-linecap="round" stroke-linejoin="round" /><polyline points="-894.36,1586.10 -889.61,1572.62 -836.32,1421.16 -830.27,1403.97" fill="none" stroke="#bcbcbc" stroke-width="8" stroke-linecap="round" stroke-linejoin="round" /><polyline points="-1448.14,744.84 -1060.10,837.81 -1033.34,847.58" fill="none" stroke="#bcbcbc" stroke-width="8" stroke-linecap="round" stroke-linejoin="round" /><polyline points="-224.23,-707.84 -73.08,-651.85 -51.80,-655.48" fill="none" stroke="#bcbcbc" stroke-width="8" stroke-linecap="round" stroke-linejoin="round" />
    <polyline points="302.18,352.80 286.50,348.38 180.03,184.99 167.20,167.20" fill="none" stroke="#ffffff" stroke-width="16" stroke-linecap="round" stroke-linejoin="round" />
    <polyline points="302.18,352.80 286.50,348.38 180.03,184.99 167.20,167.20" fill="none" stroke="#111111" stroke-width="9" stroke-linecap="round" stroke-linejoin="round" />
    
            <g transform="translate(302.18,352.80)">
              <circle r="19" fill="#ffffff" stroke="#111111" stroke-width="4" />
              <text text-anchor="middle" dominant-baseline="central" font-family="Helvetica, Arial, sans-serif"
                font-size="18" font-weight="700" fill="#111111">1</text>
            </g>
            
            <g transform="translate(167.20,167.20)">
              <circle r="19" fill="#ffffff" stroke="#111111" stroke-width="4" />
              <text text-anchor="middle" dominant-baseline="central" font-family="Helvetica, Arial, sans-serif"
                font-size="18" font-weight="700" fill="#111111">2</text>
            </g>
            
  </g>
</svg>
