<svg xmlns="http://www.w3.org/2000/svg" width="520" height="520" viewBox="0 0 520 520">
  <rect width="100%" height="100%" fill="#ffffff" />
  <g>
    <polyline points="879.57,-50.87 881.18,-42.32 891.56,30.25 889.97,48.39" fill="none" stroke="#bcbcbc" stroke-width="8" stroke-linecap="round" stroke-linejoin="round" /><polyline points="668.72,553.86 671.23,546.15 684.52,505.29 686.08,500.47 687.67,495.41 721.08,388.86 723.77,380.29 717.62,365.13" fill="none" stroke="#bcbcbc" stroke-width="8" stroke-linecap="round" stroke-linejoin="round" /><polyline points="437.91,459.09 437.37,452.97 448.30,391.79 449.83,384.14 450.97,380.13 453.98,364.61 457.36,345.62 461.04,328.89 464.69,312.21 466.99,307.50 468.50,304.62" fill="none" stroke="#bcbcbc" stroke-width="8" stroke-linecap="round" stroke-linejoin="round" /><polyline points="501.32,27.51 498.73,19.59 471.88,-62.28 470.57,-65.71" fill="none" stroke="#bcbcbc" stroke-width="8" stroke-linecap="round" stroke-linejoin="round" /><polyline points="363.57,748.10 364.37,740.29 364.70,736.71 367.62,704.38 370.82,675.91 371.57,669.27 372.26,661.29 372.34,660.62 374.15,644.77 375.71,628.66 377.44,613.10 378.60,601.00 379.08,593.53 379.51,586.63 380.27,578.85" fill="none" stroke="#bcbcbc" stroke-width="8" stroke-linecap="round" stroke-linejoin="round" /><polyline points="734.52,572.86 736.43,566.85 749.90,524.50 751.43,519.69 753.61,512.84 755.16,507.92 767.09,456.50" fill="none" stroke="#bcbcbc" stroke-width="8" stroke-linecap="round" stroke-linejoin="round" /><polyline points="682.15,-264.77 687.12,-264.01 824.21,-242.95" fill="none" stroke="#bcbcbc" stroke-width="8" stroke-linecap="round" stroke-linejoin="round" /><polyline points="330.22,562.88 315.95,562.22 307.25,561.81 302.53,561.59 298.38,561.40 266.07,559.90 221.13,557.81 199.71,554.77 192.54,553.75 186.31,552.66 144.18,545.22 138.29,544.18 136.99,543.96 129.71,542.71 124.12,541.75 88.42,538.60 81.62,538.00 79.13,537.77 71.41,537.24 56.30,536.19" fill="none" stroke="#bcbcbc" stroke-width="8" stroke-linecap="round" stroke-linejoin="round" /><polyline points="537.52,521.49 540.28,513.62 565.19,444.58 595.15,357.51 597.07,352.05 598.41,348.23 599.49,345.10" fill="none" stroke="#bcbcbc" stroke-width="8" stroke-linecap="round" stroke-linejoin="round" /><polyline points="79.13,537.77 78.49,533.34 78.34,528.51 79.29,518.81 81.46,501.08 82.90,495.13 85.25,473.62 85.68,468.83 86.37,462.67 86.88,458.09 87.84,452.91 89.62,438.96 90.86,428.28 92.68,423.92" fill="none" stroke="#bcbcbc" stroke-width="8" stroke-linecap="round" stroke-linejoin="round" /><polyline points="53.64,418.46 86.86,423.10 92.68,423.92 96.29,424.49 111.18,426.86 145.49,432.33 151.37,433.31" fill="none" stroke="#bcbcbc" stroke-width="8" stroke-linecap="round" stroke-linejoin="round" /><polyline points="664.99,-17.31 665.21,-14.29 665.66,-11.23 666.74,-8.89 668.75,-6.28 672.49,-2.88 681.34,2.51 749.65,45.36 791.71,101.75 823.48,180.16 825.56,185.34" fill="none" stroke="#bcbcbc" stroke-width="8" stroke-linecap="round" stroke-linejoin="round" /><polyline points="654.06,211.48 655.47,213.83 655.84,214.43 657.01,220.35 665.03,259.10 667.57,271.40 669.39,280.16 672.23,297.91 673.55,306.10 674.47,311.09 675.47,315.61 676.66,318.24 678.42,321.29 679.36,322.72 697.10,348.13 706.70,363.24 709.20,366.86" fill="none" stroke="#bcbcbc" stroke-width="8" stroke-linecap="round" stroke-linejoin="round" /><polyline points="144.59,696.66 145.53,690.85 146.41,686.64 146.65,686.08 158.46,658.00 165.98,639.75 168.27,633.96 170.69,627.84 173.32,622.57 173.75,621.54 177.35,612.84 180.14,605.13 182.52,598.07 184.04,593.07 185.74,586.90 187.70,578.63 189.19,571.91 190.97,562.54 191.34,560.45 192.54,553.75" fill="none" stroke="#bcbcbc" stroke-width="8" stroke-linecap="round" stroke-linejoin="round" /><polyline points="716.88,-87.63 754.54,-61.32 759.61,-60.24 763.33,-55.99" fill="none" stroke="#bcbcbc" stroke-width="8" stroke-linecap="round" stroke-linejoin="round" /><polyline points="558.73,155.41 563.70,157.33 585.31,164.39 635.44,183.62 638.26,186.42 639.58,188.52" fill="none" stroke="#bcbcbc" stroke-width="8" stroke-linecap="round" stroke-linejoin="round" /><polyline points="652.14,649.38 655.55,640.49 672.40,594.77 684.32,560.22 686.79,559.09" fill="none" stroke="#bcbcbc" stroke-width="8" stroke-linecap="round" stroke-linejoin="round" /><polyline points="413.93,591.41 416.58,585.53 416.85,584.95 421.40,569.69 428.85,544.57 430.76,538.14 432.24,533.15 432.44,530.24 432.14,523.79" fill="none" stroke="#bcbcbc" stroke-width="8" stroke-linecap="round" stroke-linejoin="round" /><polyline points="723.67,213.49 719.40,214.37 709.72,212.65 708.22,208.65 691.44,202.26 687.48,203.30 672.34,197.74 670.08,199.32" fill="none" stroke="#bcbcbc" stroke-width="8" stroke-linecap="round" stroke-linejoin="round" /><polyline points="698.76,-305.41 706.37,-303.55 710.57,-302.82 810.57,-285.48" fill="none" stroke="#bcbcbc" stroke-width="8" stroke-linecap="round" stroke-linejoin="round" /><polyline points="621.04,621.54 625.20,609.81 633.28,587.02 638.51,577.31 646.03,556.27 649.03,547.87" fill="none" stroke="#bcbcbc" stroke-width="8" stroke-linecap="round" stroke-linejoin="round" /><polyline points="73.12,166.37 65.88,166.04 64.06,168.25 51.45,183.58 7.34,234.53 1.13,241.69" fill="none" stroke="#bcbcbc" stroke-width="8" stroke-linecap="round" stroke-linejoin="round" /><polyline points="460.02,210.01 456.82,217.09 456.43,217.95 445.32,246.91 434.13,278.80 431.14,287.30 429.45,291.69" fill="none" stroke="#bcbcbc" stroke-width="8" stroke-linecap="round" stroke-linejoin="round" /><polyline points="622.96,-115.46 626.49,-110.67 629.01,-104.09 632.93,-94.64 639.22,-79.78 644.80,-66.43 651.19,-51.78 655.94,-40.49 656.64,-38.87 656.68,-38.77 660.50,-29.84 661.65,-27.31 662.73,-24.89 663.88,-22.63 664.74,-20.33 664.99,-17.31" fill="none" stroke="#bcbcbc" stroke-width="8" stroke-linecap="round" stroke-linejoin="round" /><polyline points="352.80,352.80 354.65,351.79 357.23,349.74 358.52,347.07 375.69,282.00 376.20,278.33 378.30,271.62" fill="none" stroke="#bcbcbc" stroke-width="8" stroke-linecap="round" stroke-linejoin="round" /><polyline points="952.90,250.97 955.34,258.69 957.05,266.81 953.72,297.74 949.86,321.01 947.75,328.94 947.56,329.66 945.72,333.94 943.21,338.48 937.33,345.91 940.18,360.43 930.98,391.60 925.90,408.81 915.51,436.98 900.30,471.28 881.72,504.16 875.92,514.84 865.43,532.39 823.52,591.87 814.33,604.24 778.78,650.71 758.36,673.94 729.81,702.96 727.17,703.23 720.72,708.50" fill="none" stroke="#bcbcbc" stroke-width="8" stroke-linecap="round" stroke-linejoin="round" /><polyline points="435.78,759.75 447.48,723.47 449.39,717.48 451.99,713.70 457.58,696.93 459.40,691.24 482.48,618.98 484.80,611.71 486.71,605.32 513.95,519.61" fill="none" stroke="#bcbcbc" stroke-width="8" stroke-linecap="round" stroke-linejoin="round" /><polyline points="709.84,85.00 719.95,73.95 722.93,70.36 743.37,41.42" fill="none" stroke="#bcbcbc" stroke-width="8" stroke-linecap="round" stroke-linejoin="round" /><polyline points="507.70,89.38 535.55,99.08 537.09,101.58 545.00,104.23 549.69,105.83 572.14,113.42" fill="none" stroke="#bcbcbc" stroke-width="8" stroke-linecap="round" stroke-linejoin="round" /><polyline points="750.45,-103.34 763.33,-55.99 778.24,-0.22 780.50,4.43 780.86,9.74 790.97,28.62 818.26,79.51 824.23,88.31 825.95,90.89 866.73,167.11 885.47,184.15 888.09,187.54 891.80,190.71 927.38,221.13 929.79,223.19 936.18,226.59" fill="none" stroke="#bcbcbc" stroke-width="8" stroke-linecap="round" stroke-linejoin="round" /><polyline points="612.07,767.45 700.80,715.91 716.60,707.83 720.72,708.50" fill="none" stroke="#bcbcbc" stroke-width="8" stroke-linecap="round" stroke-linejoin="round" /><polyline points="708.28,693.72 713.78,687.17 763.21,588.56 766.48,582.09 769.22,575.69 785.18,536.21 789.94,524.31 803.70,482.67 812.62,429.13 813.68,421.34" fill="none" stroke="#bcbcbc" stroke-width="8" stroke-linecap="round" stroke-linejoin="round" /><polyline points="670.13,113.75 669.27,114.64 668.08,118.79 667.96,119.20 662.60,139.86 664.00,145.25 662.83,150.08 661.30,156.41 657.38,160.95 652.92,179.00 647.67,182.96 642.07,186.80 639.58,188.52" fill="none" stroke="#bcbcbc" stroke-width="8" stroke-linecap="round" stroke-linejoin="round" /><polyline points="460.02,210.01 462.30,204.17 476.01,169.02 479.00,161.35 481.46,155.04 498.98,110.15 506.87,91.38 507.70,89.38 513.83,74.56 527.58,40.41 532.62,25.87 533.74,22.54 535.25,18.76" fill="none" stroke="#bcbcbc" stroke-width="8" stroke-linecap="round" stroke-linejoin="round" /><polyline points="613.45,-3.06 616.10,4.83 703.12,79.16 750.61,120.47 821.53,182.12 827.72,187.08 830.49,188.81 842.80,199.98 859.24,214.00 896.52,245.78 908.56,256.14 916.55,265.69" fill="none" stroke="#bcbcbc" stroke-width="8" stroke-linecap="round" stroke-linejoin="round" /><polyline points="757.33,-131.13 761.75,-133.96 787.89,-144.83 793.27,-150.48" fill="none" stroke="#bcbcbc" stroke-width="8" stroke-linecap="round" stroke-linejoin="round" /><polyline points="787.53,530.33 751.43,519.69 686.08,500.47" fill="none" stroke="#bcbcbc" stroke-width="8" stroke-linecap="round" stroke-linejoin="round" /><polyline points="671.00,-237.52 675.93,-234.12 836.61,-198.37" fill="none" stroke="#bcbcbc" stroke-width="8" stroke-linecap="round" stroke-linejoin="round" /><polyline points="869.48,291.50 861.18,273.03 842.75,229.08 841.37,225.58 838.22,217.56 826.34,187.33 825.59,185.37" fill="none" stroke="#bcbcbc" stroke-width="8" stroke-linecap="round" stroke-linejoin="round" /><polyline points="622.96,-115.46 614.04,-118.00 607.48,-119.95 594.16,-123.91 587.39,-125.84 583.51,-126.91 578.45,-128.36" fill="none" stroke="#bcbcbc" stroke-width="8" stroke-linecap="round" stroke-linejoin="round" /><polyline points="390.36,126.28 389.91,124.81 389.49,123.77 387.65,119.20 380.53,102.60 373.76,85.73 372.30,81.75 370.62,77.16 369.41,73.41 367.42,67.78 367.21,67.19 360.74,51.23 348.85,21.23 346.18,19.71 344.28,14.84 340.48,1.67 333.99,-14.66 332.59,-18.38" fill="none" stroke="#bcbcbc" stroke-width="8" stroke-linecap="round" stroke-linejoin="round" /><polyline points="447.48,723.47 454.23,725.54 476.07,732.19 482.92,734.28" fill="none" stroke="#bcbcbc" stroke-width="8" stroke-linecap="round" stroke-linejoin="round" /><polyline points="855.44,-123.28 856.72,-128.43 856.20,-130.38 855.57,-132.74 851.59,-147.35 842.69,-178.24 838.00,-194.03 836.61,-198.37 824.21,-242.95 817.52,-266.99 810.57,-285.48 804.30,-302.16 798.05,-313.62 791.98,-319.68 745.38,-376.62 741.93,-380.68 739.65,-384.42" fill="none" stroke="#bcbcbc" stroke-width="8" stroke-linecap="round" stroke-linejoin="round" /><polyline points="664.99,-17.31 662.59,-16.39 658.15,-15.16 657.70,-15.04 639.14,-10.29 617.81,-4.29 613.45,-3.06 611.51,-2.44 606.38,-0.80 602.00,0.42 582.87,5.75 551.40,14.69 539.66,17.65 535.25,18.76 514.28,23.91 501.32,27.51 473.89,35.18 446.77,42.82 443.63,43.69 420.97,49.98 410.52,52.88 405.24,55.38 395.25,60.33 375.40,70.40 374.02,71.10 369.41,73.41 366.60,74.81 362.68,76.87 348.74,84.18 323.33,98.43 302.11,109.55 299.07,111.14 295.02,111.39 292.58,112.69 292.10,112.95 269.08,125.56 264.25,125.54 258.72,128.44 256.79,129.45 255.16,130.30 251.31,132.31 248.28,139.23 235.25,146.21 231.10,148.43 226.62,150.87 208.49,160.73 199.12,165.83 194.40,167.19" fill="none" stroke="#bcbcbc" stroke-width="8" stroke-linecap="round" stroke-linejoin="round" /><polyline points="925.90,408.81 916.23,409.69 886.01,412.46 884.65,412.59 882.72,412.76 879.60,413.05 850.30,415.74 840.11,414.80 828.24,417.77 818.74,420.10 813.68,421.34 801.10,421.82 790.21,421.26 784.66,420.67 779.93,419.25 776.46,417.32 763.50,408.16 732.02,386.54 729.05,384.53 726.03,382.48 723.77,380.29" fill="none" stroke="#bcbcbc" stroke-width="8" stroke-linecap="round" stroke-linejoin="round" /><polyline points="212.93,43.80 224.35,66.16 226.08,72.55 235.70,90.91 239.68,96.16 255.76,127.45 256.79,129.45" fill="none" stroke="#bcbcbc" stroke-width="8" stroke-linecap="round" stroke-linejoin="round" /><polyline points="562.97,242.66 561.26,247.36 560.78,248.82 558.55,255.58 544.42,295.01 537.40,314.58 537.16,315.25 534.34,321.34 532.73,324.95" fill="none" stroke="#bcbcbc" stroke-width="8" stroke-linecap="round" stroke-linejoin="round" /><polyline points="750.45,-103.34 748.88,-106.69 744.76,-107.23 731.44,-104.18 728.73,-104.53 726.61,-107.37 722.84,-124.70 743.26,-127.86 752.71,-130.65 757.33,-131.13 762.31,-113.44" fill="none" stroke="#bcbcbc" stroke-width="8" stroke-linecap="round" stroke-linejoin="round" /><polyline points="824.23,88.31 829.48,85.36 855.90,69.44 862.96,65.24 875.31,57.87 895.64,44.73 900.38,41.32 936.04,19.20" fill="none" stroke="#bcbcbc" stroke-width="8" stroke-linecap="round" stroke-linejoin="round" /><polyline points="948.86,192.78 939.85,190.09 934.61,185.80 914.58,168.47 913.90,167.86 909.05,163.54 906.21,158.49 855.90,69.44" fill="none" stroke="#bcbcbc" stroke-width="8" stroke-linecap="round" stroke-linejoin="round" /><polyline points="381.08,185.72 460.02,210.01 466.46,212.05 525.36,230.72 526.59,231.11 535.42,233.91 539.76,235.29 545.39,236.83 557.02,240.77 562.97,242.66 568.32,244.35 612.16,258.26 658.44,272.80 662.26,274.00 667.57,271.40" fill="none" stroke="#bcbcbc" stroke-width="8" stroke-linecap="round" stroke-linejoin="round" /><polyline points="613.18,-203.97 647.37,-235.39 653.16,-240.71" fill="none" stroke="#bcbcbc" stroke-width="8" stroke-linecap="round" stroke-linejoin="round" /><polyline points="40.60,302.98 166.06,316.43" fill="none" stroke="#bcbcbc" stroke-width="8" stroke-linecap="round" stroke-linejoin="round" /><polyline points="419.10,-47.21 445.47,-56.64 472.67,-66.47 489.57,-73.04 541.17,-91.81 556.15,-96.99 559.27,-98.07 563.03,-99.36 567.24,-100.81 567.75,-100.99 576.25,-104.40 579.95,-105.89" fill="none" stroke="#bcbcbc" stroke-width="8" stroke-linecap="round" stroke-linejoin="round" /><polyline points="596.21,590.91 621.04,621.54 636.24,636.84 642.82,641.58 652.14,649.38 660.89,656.73 668.40,664.06 668.59,667.79" fill="none" stroke="#bcbcbc" stroke-width="8" stroke-linecap="round" stroke-linejoin="round" /><polyline points="622.96,-115.46 632.69,-139.85 648.44,-180.00 671.00,-237.52 682.15,-264.77 698.76,-305.41 712.39,-338.69 714.83,-343.11 726.81,-362.70 727.58,-363.96 731.96,-372.58 739.65,-384.42 743.94,-391.03 750.02,-400.38" fill="none" stroke="#bcbcbc" stroke-width="8" stroke-linecap="round" stroke-linejoin="round" /><polyline points="393.41,536.60 391.82,537.87 390.77,539.39 388.62,545.72 387.14,550.29 380.28,570.78 379.34,573.74 378.75,575.58 372.46,573.77 357.14,568.64 341.96,563.55 330.22,562.88" fill="none" stroke="#bcbcbc" stroke-width="8" stroke-linecap="round" stroke-linejoin="round" /><polyline points="93.39,679.24 118.40,614.63 121.19,607.59 123.69,600.82 126.70,592.63 130.40,579.76 134.26,563.75 135.84,552.29 136.99,543.96 138.61,537.81 144.50,491.61 151.37,433.31 154.93,405.52 158.91,372.87 166.06,316.43 167.20,306.83 174.43,247.81 174.44,244.52 176.04,227.01 180.65,190.02 181.81,183.56 183.01,179.94 184.90,175.96 186.74,172.87 190.78,168.48 194.41,167.24" fill="none" stroke="#bcbcbc" stroke-width="8" stroke-linecap="round" stroke-linejoin="round" /><polyline points="639.58,188.52 640.94,190.68 645.53,197.85 652.40,208.86 654.06,211.48 656.80,209.40 670.08,199.32" fill="none" stroke="#bcbcbc" stroke-width="8" stroke-linecap="round" stroke-linejoin="round" /><polyline points="648.44,-180.00 783.62,-155.56 797.82,-148.09 850.78,-121.83 855.44,-123.28" fill="none" stroke="#bcbcbc" stroke-width="8" stroke-linecap="round" stroke-linejoin="round" /><polyline points="390.36,126.28 387.96,129.78 366.39,140.31 350.56,160.44 333.46,171.02 321.77,179.85 310.62,188.94 304.90,194.15 294.80,206.97 283.51,223.15 281.65,226.15" fill="none" stroke="#bcbcbc" stroke-width="8" stroke-linecap="round" stroke-linejoin="round" /><polyline points="413.16,140.72 412.23,142.80 410.18,145.79 406.32,150.55 383.54,179.32 371.48,211.78 310.65,188.92" fill="none" stroke="#bcbcbc" stroke-width="8" stroke-linecap="round" stroke-linejoin="round" /><polyline points="321.77,179.85 319.42,172.71 309.24,141.89 305.29,135.80 298.67,115.96 298.10,114.25 299.07,111.14 297.49,106.08 265.68,4.52" fill="none" stroke="#bcbcbc" stroke-width="8" stroke-linecap="round" stroke-linejoin="round" /><polyline points="694.50,-374.31 719.64,-373.65 720.81,-373.61 725.63,-373.48 731.96,-372.58" fill="none" stroke="#bcbcbc" stroke-width="8" stroke-linecap="round" stroke-linejoin="round" /><polyline points="565.19,444.58 556.61,444.48 483.92,454.24 478.68,454.79 472.69,455.42 437.91,459.09 391.06,464.04 366.21,466.66 352.47,468.11 341.31,469.47 335.58,470.16 329.13,470.95 297.96,474.74 290.48,475.64 267.46,478.16 144.50,491.61" fill="none" stroke="#bcbcbc" stroke-width="8" stroke-linecap="round" stroke-linejoin="round" /><polyline points="457.58,696.93 451.14,694.86 421.07,685.18 414.99,683.22 409.71,681.53 377.85,671.29 371.57,669.27 363.26,666.59 312.54,650.27 306.83,648.44" fill="none" stroke="#bcbcbc" stroke-width="8" stroke-linecap="round" stroke-linejoin="round" /><polyline points="583.33,88.07 600.82,93.52 664.79,113.27 665.39,113.46 670.13,113.75" fill="none" stroke="#bcbcbc" stroke-width="8" stroke-linecap="round" stroke-linejoin="round" /><polyline points="763.33,-55.99 850.35,-54.46" fill="none" stroke="#bcbcbc" stroke-width="8" stroke-linecap="round" stroke-linejoin="round" /><polyline points="720.72,708.50 708.28,693.72 703.06,687.64 698.57,683.45 692.60,679.00 680.40,671.67 668.59,667.79 644.56,660.37 624.91,654.13 636.24,636.84" fill="none" stroke="#bcbcbc" stroke-width="8" stroke-linecap="round" stroke-linejoin="round" /><polyline points="596.21,590.91 578.89,569.53 575.60,565.47 558.15,541.43 554.20,534.09 555.15,525.36 560.41,525.31 573.39,527.80 593.13,531.60" fill="none" stroke="#bcbcbc" stroke-width="8" stroke-linecap="round" stroke-linejoin="round" /><polyline points="369.62,419.62 372.81,426.49 391.06,464.04 418.18,519.88 421.64,527.00" fill="none" stroke="#bcbcbc" stroke-width="8" stroke-linecap="round" stroke-linejoin="round" /><polyline points="77.43,589.71 83.96,592.37 114.52,604.87 121.19,607.59 128.21,610.46 164.19,625.17 170.69,627.84" fill="none" stroke="#bcbcbc" stroke-width="8" stroke-linecap="round" stroke-linejoin="round" /><polyline points="384.63,363.94 448.30,391.79" fill="none" stroke="#bcbcbc" stroke-width="8" stroke-linecap="round" stroke-linejoin="round" /><polyline points="670.13,113.75 679.83,114.26 680.45,114.81 684.80,118.67 691.20,124.38 692.38,126.68 714.42,145.98 716.05,149.06 731.55,162.74 735.45,163.93 747.51,174.48 750.21,175.72 768.39,191.14 772.44,194.73 774.67,198.29" fill="none" stroke="#bcbcbc" stroke-width="8" stroke-linecap="round" stroke-linejoin="round" /><polyline points="59.46,364.00 158.91,372.87" fill="none" stroke="#bcbcbc" stroke-width="8" stroke-linecap="round" stroke-linejoin="round" /><polyline points="281.50,734.27 284.58,727.71 285.37,724.79 289.69,708.87 305.33,653.72 306.83,648.44 308.41,642.64 315.50,616.73 327.46,572.97 330.22,562.88" fill="none" stroke="#bcbcbc" stroke-width="8" stroke-linecap="round" stroke-linejoin="round" /><polyline points="369.62,419.62 384.63,363.94 352.80,352.80 344.46,357.72 340.67,360.61 337.85,364.42 335.87,369.44 328.55,396.50 334.46,399.51 340.42,400.95 353.62,404.39 363.49,407.53 369.62,419.62" fill="none" stroke="#bcbcbc" stroke-width="8" stroke-linecap="round" stroke-linejoin="round" /><polyline points="328.55,396.50 321.58,395.53 158.91,372.87" fill="none" stroke="#bcbcbc" stroke-width="8" stroke-linecap="round" stroke-linejoin="round" /><polyline points="593.13,531.60 608.22,534.90 649.03,547.87 660.44,551.47 687.52,559.30 714.80,567.16 735.00,573.00 767.30,582.33 773.98,584.25 790.28,589.72 817.11,596.87 819.48,597.31" fill="none" stroke="#bcbcbc" stroke-width="8" stroke-linecap="round" stroke-linejoin="round" /><polyline points="612.27,767.33 606.77,768.72 600.81,785.31 591.58,782.68 549.61,768.38 544.56,767.30 533.32,766.50 482.49,766.70 471.29,765.28 445.98,761.41 435.78,759.75 363.39,748.07 335.35,743.60 281.89,734.34 273.26,732.63 152.61,698.91 145.00,696.78 93.39,679.24 80.69,674.73 48.97,661.59 30.89,654.75" fill="none" stroke="#bcbcbc" stroke-width="8" stroke-linecap="round" stroke-linejoin="round" /><polyline points="722.84,-124.70 717.62,-125.78 647.89,-117.54 622.96,-115.46" fill="none" stroke="#bcbcbc" stroke-width="8" stroke-linecap="round" stroke-linejoin="round" /><polyline points="593.13,531.60 595.58,527.51 610.21,489.93 626.56,433.11 630.73,420.87 632.96,417.54 648.74,366.87 649.53,360.82 650.13,356.87" fill="none" stroke="#bcbcbc" stroke-width="8" stroke-linecap="round" stroke-linejoin="round" /><polyline points="664.99,-17.31 666.66,-17.95 668.92,-19.74 672.35,-23.75 716.88,-87.63 728.73,-104.53" fill="none" stroke="#bcbcbc" stroke-width="8" stroke-linecap="round" stroke-linejoin="round" /><polyline points="863.16,217.37 864.07,214.74 886.45,188.41 888.09,187.54 891.98,182.22 905.00,167.26 909.05,163.54" fill="none" stroke="#bcbcbc" stroke-width="8" stroke-linecap="round" stroke-linejoin="round" /><polyline points="882.72,412.76 882.41,409.24 882.17,406.52 880.99,401.31 879.58,397.90 877.82,388.98 877.66,385.74 876.47,378.51 871.14,375.73 866.89,377.36 859.26,379.18 853.23,380.13 847.45,381.52 839.46,383.34 835.82,384.17" fill="none" stroke="#bcbcbc" stroke-width="8" stroke-linecap="round" stroke-linejoin="round" /><polyline points="294.70,283.45 310.98,245.30 311.88,242.82" fill="none" stroke="#bcbcbc" stroke-width="8" stroke-linecap="round" stroke-linejoin="round" /><polyline points="723.67,213.49 731.52,210.45 735.62,208.86 738.79,205.65 751.87,202.43 756.26,203.54 765.73,201.11 772.95,199.25 774.67,198.29 781.67,196.57 817.48,187.80 825.59,185.37" fill="none" stroke="#bcbcbc" stroke-width="8" stroke-linecap="round" stroke-linejoin="round" /><polyline points="393.41,536.60 410.30,530.46 415.95,528.74 421.64,527.00 432.14,523.79 440.30,522.62 468.19,519.57 473.79,519.26 498.75,519.48 513.95,519.61 519.66,519.31 528.82,520.24 531.68,520.65 537.52,521.49 555.15,525.36" fill="none" stroke="#bcbcbc" stroke-width="8" stroke-linecap="round" stroke-linejoin="round" /><polyline points="473.89,35.18 471.09,25.72 460.70,-9.42 448.07,-49.49 445.47,-56.64 442.82,-63.34 439.47,-73.00" fill="none" stroke="#bcbcbc" stroke-width="8" stroke-linecap="round" stroke-linejoin="round" /><polyline points="443.66,601.73 445.88,594.72 468.33,523.92 468.19,519.57" fill="none" stroke="#bcbcbc" stroke-width="8" stroke-linecap="round" stroke-linejoin="round" /><polyline points="473.79,519.26 478.24,459.65 478.68,454.79 479.37,449.13 479.38,448.88 479.67,441.96 481.15,423.20 481.99,414.46 483.13,404.53 484.18,397.38 485.11,392.89 486.29,389.50 488.60,381.86 493.36,365.94 499.43,345.39 506.12,324.38 507.48,320.10 508.58,316.99" fill="none" stroke="#bcbcbc" stroke-width="8" stroke-linecap="round" stroke-linejoin="round" /><polyline points="328.55,396.50 327.37,401.78 327.57,403.47 334.82,463.78 335.58,470.16 335.25,476.73 333.35,514.24 332.56,529.91 332.15,537.99 331.42,552.40 331.04,559.90 330.22,562.88" fill="none" stroke="#bcbcbc" stroke-width="8" stroke-linecap="round" stroke-linejoin="round" /><polyline points="294.70,283.45 268.36,275.63 265.02,273.48 248.63,268.70 244.02,268.75 223.42,262.55 220.10,260.09 201.36,254.41 178.36,248.15 178.25,248.14 174.43,247.81" fill="none" stroke="#bcbcbc" stroke-width="8" stroke-linecap="round" stroke-linejoin="round" /><polyline points="774.67,198.29 775.58,199.49 779.40,205.18 786.46,215.70 793.11,222.36 805.89,236.70 803.73,249.95 802.63,254.92 801.11,257.03 804.31,261.76 809.26,271.96 819.17,291.07 824.04,300.47 827.08,308.93 828.44,312.86" fill="none" stroke="#bcbcbc" stroke-width="8" stroke-linecap="round" stroke-linejoin="round" /><polyline points="841.37,225.58 837.70,226.72 813.52,234.25 810.05,235.36 805.89,236.70" fill="none" stroke="#bcbcbc" stroke-width="8" stroke-linecap="round" stroke-linejoin="round" /><polyline points="667.57,271.40 675.13,268.94 730.03,240.91 737.38,237.32 763.25,229.85 788.34,222.80 793.11,222.36" fill="none" stroke="#bcbcbc" stroke-width="8" stroke-linecap="round" stroke-linejoin="round" /><polyline points="673.55,306.10 736.84,276.65 739.51,274.88 745.70,273.08 787.87,260.81 794.27,258.36 801.11,257.03" fill="none" stroke="#bcbcbc" stroke-width="8" stroke-linecap="round" stroke-linejoin="round" /><polyline points="660.64,-311.33 686.26,-308.17 688.83,-307.85 698.76,-305.41" fill="none" stroke="#bcbcbc" stroke-width="8" stroke-linecap="round" stroke-linejoin="round" /><polyline points="879.57,-50.87 884.12,-51.82 901.09,-43.50 903.33,-41.28 935.20,12.66 936.04,19.20 940.18,22.65 939.52,25.04 939.42,28.92 940.00,34.36 948.44,69.05 949.18,93.07 950.37,131.43 952.35,183.06 944.27,205.56 939.06,219.28 931.46,238.61 929.26,244.20 927.83,245.76 925.53,260.72" fill="none" stroke="#bcbcbc" stroke-width="8" stroke-linecap="round" stroke-linejoin="round" /><polyline points="938.49,351.83 930.74,348.46 911.37,334.95 885.82,316.99 871.77,305.63 862.29,295.47" fill="none" stroke="#bcbcbc" stroke-width="8" stroke-linecap="round" stroke-linejoin="round" /><polyline points="624.91,654.13 617.30,651.72 604.95,647.81 599.06,645.94 592.13,643.74 583.38,640.97 575.47,638.46 567.66,635.98 532.79,624.92 526.68,622.98 519.10,620.58 517.43,620.05 497.49,614.78 491.86,613.42 484.80,611.71 477.41,609.92 450.80,603.47 443.66,601.73 435.99,599.07 419.97,593.51 413.93,591.41 408.52,589.66 383.43,580.73 380.27,578.85 378.75,575.58" fill="none" stroke="#bcbcbc" stroke-width="8" stroke-linecap="round" stroke-linejoin="round" /><polyline points="739.51,274.88 737.66,268.26 732.15,248.51 730.03,240.91 726.97,235.24 726.69,234.18 724.88,227.50 726.98,224.54 724.46,216.11 723.67,213.49" fill="none" stroke="#bcbcbc" stroke-width="8" stroke-linecap="round" stroke-linejoin="round" /><polyline points="730.30,33.19 735.53,30.72 764.14,14.95 780.50,4.43 792.03,-3.44 794.58,-5.33 803.87,-11.79 813.49,-18.89 819.58,-23.33 826.84,-28.64 852.08,-40.03 855.36,-39.85 860.14,-42.12 879.57,-50.87" fill="none" stroke="#bcbcbc" stroke-width="8" stroke-linecap="round" stroke-linejoin="round" /><polyline points="413.16,140.72 417.29,142.40 420.02,143.24 471.18,158.95 479.00,161.35" fill="none" stroke="#bcbcbc" stroke-width="8" stroke-linecap="round" stroke-linejoin="round" /><polyline points="47.69,255.78 11.13,244.72" fill="none" stroke="#bcbcbc" stroke-width="8" stroke-linecap="round" stroke-linejoin="round" /><polyline points="638.17,-259.70 647.23,-248.22 648.59,-246.51 653.16,-240.71 658.38,-240.10 669.09,-238.84 671.00,-237.52" fill="none" stroke="#bcbcbc" stroke-width="8" stroke-linecap="round" stroke-linejoin="round" /><polyline points="952.90,250.97 938.54,253.65 923.81,261.65 910.16,269.25 897.25,275.70 881.65,284.18 870.35,291.03 848.03,303.00 760.88,346.85 738.28,356.80 723.36,363.26 715.96,365.68 709.84,366.82 699.82,367.42 685.56,365.41 649.99,356.87 599.49,345.10 533.05,325.06 508.58,316.99 468.50,304.62 430.17,291.98 373.95,269.92 345.84,257.82 311.95,242.75 255.73,211.96 242.55,203.21 209.20,182.23 195.21,168.25 174.23,141.08 139.67,105.44 126.08,93.48" fill="none" stroke="#bcbcbc" stroke-width="8" stroke-linecap="round" stroke-linejoin="round" /><polyline points="680.40,671.67 680.99,668.39 683.11,663.02 703.05,616.38 710.58,598.89 719.46,577.10 721.62,569.13" fill="none" stroke="#bcbcbc" stroke-width="8" stroke-linecap="round" stroke-linejoin="round" /><polyline points="297.96,474.74 275.31,463.78 223.78,438.84 160.58,408.25 154.93,405.52" fill="none" stroke="#bcbcbc" stroke-width="8" stroke-linecap="round" stroke-linejoin="round" /><polyline points="670.13,113.75 675.85,107.90 691.06,92.34 703.12,79.16" fill="none" stroke="#bcbcbc" stroke-width="8" stroke-linecap="round" stroke-linejoin="round" /><polyline points="231.10,148.43 224.82,140.11 195.39,101.14 153.36,67.13" fill="none" stroke="#bcbcbc" stroke-width="8" stroke-linecap="round" stroke-linejoin="round" /><polyline points="48.75,661.49 54.49,647.87 72.76,602.32 74.98,596.34 77.43,589.71 78.37,587.31 78.61,583.56 80.95,548.15 81.62,538.00" fill="none" stroke="#bcbcbc" stroke-width="8" stroke-linecap="round" stroke-linejoin="round" /><polyline points="36.28,295.34 47.69,255.78 62.74,203.61 64.60,197.15 66.67,189.81 71.31,173.38 71.79,171.66 73.12,166.37 75.24,160.40 75.75,158.96 78.43,152.33 83.68,140.74 85.25,137.42" fill="none" stroke="#bcbcbc" stroke-width="8" stroke-linecap="round" stroke-linejoin="round" /><polyline points="64.60,197.15 87.68,203.05 136.57,215.62 164.42,224.29 176.04,227.01" fill="none" stroke="#bcbcbc" stroke-width="8" stroke-linecap="round" stroke-linejoin="round" /><polyline points="539.66,17.65 540.45,12.85 541.24,7.86 544.62,-8.82 553.08,-47.64 560.03,-82.37 561.30,-89.58 563.03,-99.36 563.03,-99.37" fill="none" stroke="#bcbcbc" stroke-width="8" stroke-linecap="round" stroke-linejoin="round" /><polyline points="471.33,765.28 481.64,739.00 482.92,734.28 523.81,630.47 526.68,622.98 529.01,616.63 553.45,545.54 558.15,541.43" fill="none" stroke="#bcbcbc" stroke-width="8" stroke-linecap="round" stroke-linejoin="round" /><polyline points="611.51,-2.44 611.51,-2.45 610.06,-10.06 609.83,-10.98 606.30,-25.35 606.30,-25.39 603.89,-35.13 593.69,-70.10 592.40,-73.85 585.51,-92.58 583.27,-98.18 581.83,-101.78 579.95,-105.88 579.95,-105.89 579.95,-105.91 578.58,-120.97 578.45,-128.36" fill="none" stroke="#bcbcbc" stroke-width="8" stroke-linecap="round" stroke-linejoin="round" /><polyline points="596.21,590.91 593.59,593.75 589.68,598.40 578.66,629.47 575.47,638.46" fill="none" stroke="#bcbcbc" stroke-width="8" stroke-linecap="round" stroke-linejoin="round" /><polyline points="413.16,140.72 414.67,136.64 415.01,135.70 422.16,115.71 424.84,107.30 446.77,42.82" fill="none" stroke="#bcbcbc" stroke-width="8" stroke-linecap="round" stroke-linejoin="round" /><polyline points="526.59,231.11 528.83,225.17 534.89,209.08 537.45,202.27 539.18,197.67 544.05,184.75 547.26,176.22 547.69,175.07 555.47,154.40 558.73,155.41 560.49,150.61 563.61,142.12 563.01,138.27 571.29,115.73 572.14,113.42 573.71,111.97 575.03,110.76 583.33,88.07 584.53,81.86 596.44,48.76 599.26,46.56 604.99,30.35 603.97,27.86 608.99,12.72 606.38,-0.80" fill="none" stroke="#bcbcbc" stroke-width="8" stroke-linecap="round" stroke-linejoin="round" /><polyline points="739.65,-384.42 736.31,-389.90 718.78,-418.67" fill="none" stroke="#bcbcbc" stroke-width="8" stroke-linecap="round" stroke-linejoin="round" /><polyline points="794.58,-5.33 875.06,46.42 875.08,46.45 875.08,46.46 889.97,48.39" fill="none" stroke="#bcbcbc" stroke-width="8" stroke-linecap="round" stroke-linejoin="round" /><polyline points="762.31,-113.44 847.94,-70.46 850.52,-68.53 850.35,-54.46 852.08,-40.03" fill="none" stroke="#bcbcbc" stroke-width="8" stroke-linecap="round" stroke-linejoin="round" /><polyline points="599.06,645.94 595.97,655.33 583.50,693.38 562.28,757.46 560.77,762.01 559.25,766.61 558.82,771.52" fill="none" stroke="#bcbcbc" stroke-width="8" stroke-linecap="round" stroke-linejoin="round" /><polyline points="840.11,414.80 840.62,410.02 840.73,405.57 840.70,405.41 837.66,392.30 836.42,386.82 835.82,384.17 835.20,381.47 831.87,366.80 825.37,337.47 820.64,319.84 819.97,317.12" fill="none" stroke="#bcbcbc" stroke-width="8" stroke-linecap="round" stroke-linejoin="round" /><polyline points="414.99,683.22 417.11,677.19 440.95,609.43 443.66,601.73" fill="none" stroke="#bcbcbc" stroke-width="8" stroke-linecap="round" stroke-linejoin="round" /><polyline points="950.37,131.43 943.35,129.45 895.71,56.35 889.97,48.39" fill="none" stroke="#bcbcbc" stroke-width="8" stroke-linecap="round" stroke-linejoin="round" /><polyline points="714.83,-343.11 782.46,-318.06 791.98,-319.68" fill="none" stroke="#bcbcbc" stroke-width="8" stroke-linecap="round" stroke-linejoin="round" />
    <polyline points="167.20,306.83 340.83,348.43 352.80,352.80" fill="none" stroke="#ffffff" stroke-width="16" stroke-linecap="round" stroke-linejoin="round" />
    <polyline points="167.20,306.83 340.83,348.43 352.80,352.80" fill="none" stroke="#111111" stroke-width="9" stroke-linecap="round" stroke-linejoin="round" />
    
            <g transform="translate(167.20,306.83)">
              <circle r="19" fill="#ffffff" stroke="#111111" stroke-width="4" />
              <text text-anchor="middle" dominant-baseline="central" font-family="Helvetica, Arial, sans-serif"
                font-size="18" font-weight="700" fill="#111111">1</text>
            </g>
            
            <g transform="translate(352.80,352.80)">
              <circle r="19" fill="#ffffff" stroke="#111111" stroke-width="4" />
              <text text-anchor="middle" dominant-baseline="central" font-family="Helvetica, Arial, sans-serif"
                font-size="18" font-weight="700" fill="#111111">2</text>
            </g>
            
  </g>
</svg>
