<svg xmlns="http://www.w3.org/2000/svg" width="520" height="520" viewBox="0 0 520 520">
  <rect width="100%" height="100%" fill="#ffffff" />
  <g>
    <polyline points="563.51,995.65 567.38,1016.22 592.33,1190.82 588.51,1234.47" fill="none" stroke="#bcbcbc" stroke-width="8" stroke-linecap="round" stroke-linejoin="round" /><polyline points="56.29,2450.62 62.33,2432.07 94.29,2333.74 98.06,2322.15 101.87,2309.99 182.25,2053.62 188.72,2033.01 173.91,1996.54" fill="none" stroke="#bcbcbc" stroke-width="8" stroke-linecap="round" stroke-linejoin="round" /><polyline points="-498.92,2222.60 -500.22,2207.87 -473.94,2060.67 -470.26,2042.26 -467.51,2032.61 -460.27,1995.28 -452.14,1949.59 -443.29,1909.35 -434.50,1869.20 -428.97,1857.88 -425.35,1850.94" fill="none" stroke="#bcbcbc" stroke-width="8" stroke-linecap="round" stroke-linejoin="round" /><polyline points="-346.39,1184.23 -352.64,1165.18 -417.22,968.19 -420.37,959.93" fill="none" stroke="#bcbcbc" stroke-width="8" stroke-linecap="round" stroke-linejoin="round" /><polyline points="-677.76,2917.95 -675.83,2899.15 -675.05,2890.53 -668.02,2812.75 -660.32,2744.27 -658.53,2728.28 -656.86,2709.09 -656.67,2707.48 -652.31,2669.33 -648.55,2630.56 -644.40,2593.15 -641.61,2564.02 -640.44,2546.04 -639.42,2529.44 -637.58,2510.74" fill="none" stroke="#bcbcbc" stroke-width="8" stroke-linecap="round" stroke-linejoin="round" /><polyline points="214.56,2496.32 219.16,2481.86 251.57,2379.97 255.25,2368.40 260.48,2351.91 264.24,2340.09 292.92,2216.36" fill="none" stroke="#bcbcbc" stroke-width="8" stroke-linecap="round" stroke-linejoin="round" /><polyline points="88.60,481.00 100.56,482.83 430.33,533.51" fill="none" stroke="#bcbcbc" stroke-width="8" stroke-linecap="round" stroke-linejoin="round" /><polyline points="-757.98,2472.32 -792.30,2470.72 -813.23,2469.74 -824.60,2469.21 -834.58,2468.75 -912.31,2465.13 -1020.42,2460.11 -1071.94,2452.80 -1089.19,2450.35 -1104.16,2447.71 -1205.51,2429.82 -1219.67,2427.32 -1222.81,2426.78 -1240.31,2423.78 -1253.76,2421.48 -1339.64,2413.88 -1355.99,2412.44 -1361.99,2411.91 -1380.56,2410.62 -1416.92,2408.10" fill="none" stroke="#bcbcbc" stroke-width="8" stroke-linecap="round" stroke-linejoin="round" /><polyline points="-259.32,2372.72 -252.67,2353.79 -192.76,2187.70 -120.69,1978.19 -116.07,1965.05 -112.85,1955.87 -110.24,1948.33" fill="none" stroke="#bcbcbc" stroke-width="8" stroke-linecap="round" stroke-linejoin="round" /><polyline points="-1361.99,2411.91 -1363.52,2401.23 -1363.88,2389.63 -1361.61,2366.27 -1356.39,2323.62 -1352.91,2309.30 -1347.27,2257.55 -1346.24,2246.02 -1344.59,2231.20 -1343.36,2220.20 -1341.04,2207.72 -1336.75,2174.15 -1333.77,2148.47 -1329.39,2137.97" fill="none" stroke="#bcbcbc" stroke-width="8" stroke-linecap="round" stroke-linejoin="round" /><polyline points="-1423.31,2124.84 -1343.40,2136.01 -1329.39,2137.97 -1320.72,2139.35 -1284.90,2145.06 -1202.37,2158.21 -1188.21,2160.57" fill="none" stroke="#bcbcbc" stroke-width="8" stroke-linecap="round" stroke-linejoin="round" /><polyline points="47.33,1076.39 47.85,1083.66 48.92,1091.01 51.52,1096.65 56.37,1102.93 65.36,1111.11 86.66,1124.07 250.96,1227.16 352.15,1362.85 428.58,1551.50 433.56,1563.97" fill="none" stroke="#bcbcbc" stroke-width="8" stroke-linecap="round" stroke-linejoin="round" /><polyline points="21.02,1626.86 24.42,1632.49 25.31,1633.96 28.13,1648.19 47.41,1741.42 53.52,1771.01 57.90,1792.08 64.73,1834.80 67.91,1854.50 70.11,1866.52 72.52,1877.38 75.40,1883.71 79.61,1891.04 81.87,1894.50 124.56,1955.63 147.65,1991.99 153.68,2000.69" fill="none" stroke="#bcbcbc" stroke-width="8" stroke-linecap="round" stroke-linejoin="round" /><polyline points="-1204.53,2794.19 -1202.26,2780.20 -1200.15,2770.08 -1199.58,2768.74 -1171.17,2701.17 -1153.06,2657.25 -1147.56,2643.33 -1141.73,2628.59 -1135.40,2615.92 -1134.38,2613.45 -1125.72,2592.50 -1119.02,2573.97 -1113.27,2556.97 -1109.63,2544.95 -1105.54,2530.10 -1100.82,2510.20 -1097.25,2494.04 -1092.97,2471.50 -1092.07,2466.47 -1089.19,2450.35" fill="none" stroke="#bcbcbc" stroke-width="8" stroke-linecap="round" stroke-linejoin="round" /><polyline points="172.13,907.19 262.73,970.51 274.93,973.10 283.87,983.32" fill="none" stroke="#bcbcbc" stroke-width="8" stroke-linecap="round" stroke-linejoin="round" /><polyline points="-208.30,1491.95 -196.33,1496.56 -144.34,1513.57 -23.76,1559.82 -16.99,1566.56 -13.82,1571.60" fill="none" stroke="#bcbcbc" stroke-width="8" stroke-linecap="round" stroke-linejoin="round" /><polyline points="16.40,2680.43 24.61,2659.03 65.15,2549.03 93.81,2465.92 99.76,2463.18" fill="none" stroke="#bcbcbc" stroke-width="8" stroke-linecap="round" stroke-linejoin="round" /><polyline points="-556.63,2540.95 -550.23,2526.81 -549.60,2525.41 -538.65,2488.69 -520.73,2428.25 -516.14,2412.79 -512.57,2400.77 -512.09,2393.77 -512.82,2378.27" fill="none" stroke="#bcbcbc" stroke-width="8" stroke-linecap="round" stroke-linejoin="round" /><polyline points="188.48,1631.69 178.20,1633.81 154.91,1629.66 151.31,1620.05 110.95,1604.67 101.41,1607.16 65.00,1593.79 59.57,1597.58" fill="none" stroke="#bcbcbc" stroke-width="8" stroke-linecap="round" stroke-linejoin="round" /><polyline points="128.56,383.23 146.85,387.71 156.97,389.47 397.52,431.18" fill="none" stroke="#bcbcbc" stroke-width="8" stroke-linecap="round" stroke-linejoin="round" /><polyline points="-58.40,2613.44 -48.40,2585.23 -28.95,2530.39 -16.39,2507.03 1.70,2456.40 8.92,2436.19" fill="none" stroke="#bcbcbc" stroke-width="8" stroke-linecap="round" stroke-linejoin="round" /><polyline points="-1376.44,1518.33 -1393.87,1517.53 -1398.24,1522.83 -1428.59,1559.72 -1534.70,1682.30 -1549.62,1699.54" fill="none" stroke="#bcbcbc" stroke-width="8" stroke-linecap="round" stroke-linejoin="round" /><polyline points="-445.76,1623.32 -453.45,1640.35 -454.38,1642.41 -481.10,1712.10 -508.04,1788.82 -515.22,1809.28 -519.29,1819.84" fill="none" stroke="#bcbcbc" stroke-width="8" stroke-linecap="round" stroke-linejoin="round" /><polyline points="-53.79,840.25 -45.30,851.77 -39.24,867.61 -29.81,890.34 -14.67,926.10 -1.26,958.20 14.13,993.45 25.54,1020.61 27.23,1024.51 27.34,1024.75 36.53,1046.23 39.27,1052.34 41.88,1058.15 44.65,1063.60 46.73,1069.13 47.33,1076.39" fill="none" stroke="#bcbcbc" stroke-width="8" stroke-linecap="round" stroke-linejoin="round" /><polyline points="-703.67,1966.86 -699.23,1964.44 -693.01,1959.49 -689.90,1953.08 -648.61,1796.52 -647.37,1787.69 -642.33,1771.56" fill="none" stroke="#bcbcbc" stroke-width="8" stroke-linecap="round" stroke-linejoin="round" /><polyline points="739.90,1721.86 745.76,1740.45 749.88,1759.98 741.86,1834.39 732.58,1890.37 727.52,1909.46 727.06,1911.19 722.62,1921.50 716.58,1932.42 702.45,1950.29 709.29,1985.22 687.16,2060.21 674.95,2101.62 649.95,2169.40 613.35,2251.93 568.66,2331.02 554.71,2356.73 529.47,2398.96 428.66,2542.06 406.57,2571.83 321.03,2683.63 271.93,2739.51 203.24,2809.33 196.88,2809.98 181.37,2822.67" fill="none" stroke="#bcbcbc" stroke-width="8" stroke-linecap="round" stroke-linejoin="round" /><polyline points="-504.06,2945.97 -475.92,2858.68 -471.32,2844.26 -465.06,2835.18 -451.62,2794.84 -447.25,2781.13 -391.73,2607.28 -386.14,2589.79 -381.54,2574.43 -316.02,2368.20" fill="none" stroke="#bcbcbc" stroke-width="8" stroke-linecap="round" stroke-linejoin="round" /><polyline points="155.20,1322.55 179.53,1295.97 186.70,1287.32 235.86,1217.68" fill="none" stroke="#bcbcbc" stroke-width="8" stroke-linecap="round" stroke-linejoin="round" /><polyline points="-331.05,1333.09 -264.06,1356.41 -260.36,1362.43 -241.34,1368.81 -230.04,1372.67 -176.04,1390.91" fill="none" stroke="#bcbcbc" stroke-width="8" stroke-linecap="round" stroke-linejoin="round" /><polyline points="252.88,869.40 283.87,983.32 319.74,1117.52 325.18,1128.70 326.04,1141.47 350.37,1186.89 416.02,1309.33 430.36,1330.50 434.52,1336.70 532.60,1520.10 577.68,1561.08 584.00,1569.25 592.92,1576.87 678.51,1650.07 684.31,1655.03 699.68,1663.19" fill="none" stroke="#bcbcbc" stroke-width="8" stroke-linecap="round" stroke-linejoin="round" /><polyline points="-79.98,2964.50 133.47,2840.49 171.46,2821.06 181.37,2822.67" fill="none" stroke="#bcbcbc" stroke-width="8" stroke-linecap="round" stroke-linejoin="round" /><polyline points="151.44,2787.10 164.69,2771.35 283.59,2534.08 291.46,2518.52 298.04,2503.12 336.44,2408.14 347.88,2379.52 380.98,2279.33 402.44,2150.52 404.99,2131.77" fill="none" stroke="#bcbcbc" stroke-width="8" stroke-linecap="round" stroke-linejoin="round" /><polyline points="59.69,1391.72 57.61,1393.86 54.75,1403.84 54.46,1404.83 41.56,1454.52 44.94,1467.50 42.13,1479.12 38.44,1494.35 29.00,1505.29 18.29,1548.70 5.66,1558.24 -7.81,1567.48 -13.82,1571.60" fill="none" stroke="#bcbcbc" stroke-width="8" stroke-linecap="round" stroke-linejoin="round" /><polyline points="-445.76,1623.32 -440.27,1609.25 -407.29,1524.68 -400.10,1506.24 -394.17,1491.05 -352.02,1383.06 -333.05,1337.90 -331.05,1333.09 -316.31,1297.43 -283.22,1215.26 -271.10,1180.28 -268.40,1172.26 -264.78,1163.16" fill="none" stroke="#bcbcbc" stroke-width="8" stroke-linecap="round" stroke-linejoin="round" /><polyline points="-76.66,1110.67 -70.29,1129.66 139.04,1308.49 253.27,1407.89 423.88,1556.22 438.77,1568.13 445.44,1572.31 475.05,1599.18 514.59,1632.91 604.26,1709.38 633.23,1734.30 652.45,1757.29" fill="none" stroke="#bcbcbc" stroke-width="8" stroke-linecap="round" stroke-linejoin="round" /><polyline points="269.44,802.53 280.07,795.72 342.96,769.58 355.89,755.98" fill="none" stroke="#bcbcbc" stroke-width="8" stroke-linecap="round" stroke-linejoin="round" /><polyline points="342.09,2393.99 255.25,2368.40 98.06,2322.15" fill="none" stroke="#bcbcbc" stroke-width="8" stroke-linecap="round" stroke-linejoin="round" /><polyline points="61.77,546.56 73.63,554.74 460.16,640.76" fill="none" stroke="#bcbcbc" stroke-width="8" stroke-linecap="round" stroke-linejoin="round" /><polyline points="539.22,1819.39 519.25,1774.93 474.92,1669.19 471.61,1660.78 464.03,1641.48 435.45,1568.75 433.65,1564.04" fill="none" stroke="#bcbcbc" stroke-width="8" stroke-linecap="round" stroke-linejoin="round" /><polyline points="-53.79,840.25 -75.25,834.14 -91.02,829.44 -123.07,819.92 -139.35,815.28 -148.68,812.69 -160.86,809.20" fill="none" stroke="#bcbcbc" stroke-width="8" stroke-linecap="round" stroke-linejoin="round" /><polyline points="-613.32,1421.87 -614.40,1418.31 -615.40,1415.83 -619.83,1404.83 -636.96,1364.88 -653.24,1324.30 -656.76,1314.72 -660.81,1303.68 -663.71,1294.65 -668.50,1281.11 -669.00,1279.69 -684.58,1241.29 -713.18,1169.11 -719.60,1165.45 -724.17,1153.74 -733.29,1122.04 -748.92,1082.76 -752.29,1073.82" fill="none" stroke="#bcbcbc" stroke-width="8" stroke-linecap="round" stroke-linejoin="round" /><polyline points="-475.92,2858.68 -459.68,2863.65 -407.13,2879.67 -390.67,2884.69" fill="none" stroke="#bcbcbc" stroke-width="8" stroke-linecap="round" stroke-linejoin="round" /><polyline points="505.46,821.43 508.52,809.05 507.28,804.34 505.78,798.67 496.18,763.51 474.79,689.19 463.50,651.20 460.16,640.76 430.33,533.51 414.23,475.67 397.52,431.18 382.43,391.06 367.40,363.47 352.80,348.89 240.70,211.89 232.41,202.14 226.92,193.13" fill="none" stroke="#bcbcbc" stroke-width="8" stroke-linecap="round" stroke-linejoin="round" /><polyline points="47.33,1076.39 41.55,1078.60 30.86,1081.55 29.79,1081.85 -14.85,1093.27 -66.19,1107.72 -76.66,1110.67 -81.33,1112.16 -93.66,1116.12 -104.21,1119.05 -150.23,1131.86 -225.94,1153.37 -254.16,1160.51 -264.78,1163.16 -315.23,1175.55 -346.39,1184.23 -412.39,1202.67 -477.62,1221.06 -485.16,1223.15 -539.68,1238.29 -564.83,1245.27 -577.52,1251.27 -601.56,1263.19 -649.30,1287.42 -652.63,1289.11 -663.71,1294.65 -670.47,1298.04 -679.90,1302.98 -713.44,1320.57 -774.56,1354.87 -825.60,1381.61 -832.91,1385.44 -842.66,1386.05 -848.52,1389.16 -849.69,1389.78 -905.07,1420.14 -916.67,1420.08 -929.98,1427.05 -934.63,1429.48 -938.55,1431.54 -947.81,1436.38 -955.10,1453.02 -986.45,1469.81 -996.41,1475.15 -1007.20,1481.02 -1050.80,1504.75 -1073.35,1517.02 -1084.71,1520.30" fill="none" stroke="#bcbcbc" stroke-width="8" stroke-linecap="round" stroke-linejoin="round" /><polyline points="674.95,2101.62 651.67,2103.75 578.98,2110.41 575.71,2110.71 571.07,2111.14 563.57,2111.83 493.09,2118.30 468.58,2116.02 440.03,2123.18 417.17,2128.78 404.99,2131.77 374.73,2132.92 348.53,2131.58 335.18,2130.17 323.82,2126.73 315.45,2122.10 284.29,2100.06 208.56,2048.04 201.42,2043.20 194.15,2038.27 188.72,2033.01" fill="none" stroke="#bcbcbc" stroke-width="8" stroke-linecap="round" stroke-linejoin="round" /><polyline points="-1040.13,1223.41 -1012.65,1277.21 -1008.49,1292.59 -985.35,1336.76 -975.79,1349.39 -937.10,1424.67 -934.63,1429.48" fill="none" stroke="#bcbcbc" stroke-width="8" stroke-linecap="round" stroke-linejoin="round" /><polyline points="-198.10,1701.86 -202.21,1713.17 -203.37,1716.68 -208.73,1732.96 -242.73,1827.81 -259.60,1874.92 -260.18,1876.52 -266.96,1891.17 -270.84,1899.86" fill="none" stroke="#bcbcbc" stroke-width="8" stroke-linecap="round" stroke-linejoin="round" /><polyline points="252.88,869.40 249.11,861.33 239.21,860.03 207.17,867.38 200.65,866.54 195.55,859.70 186.49,818.00 235.59,810.40 258.33,803.68 269.44,802.53 281.42,845.11" fill="none" stroke="#bcbcbc" stroke-width="8" stroke-linecap="round" stroke-linejoin="round" /><polyline points="430.36,1330.50 443.02,1323.40 506.55,1285.11 523.53,1275.00 553.25,1257.27 602.15,1225.65 613.56,1217.44 699.33,1164.23" fill="none" stroke="#bcbcbc" stroke-width="8" stroke-linecap="round" stroke-linejoin="round" /><polyline points="730.18,1581.86 708.49,1575.40 695.89,1565.06 647.71,1523.36 646.07,1521.90 634.42,1511.50 627.58,1499.36 506.55,1285.11" fill="none" stroke="#bcbcbc" stroke-width="8" stroke-linecap="round" stroke-linejoin="round" /><polyline points="-635.64,1564.88 -445.76,1623.32 -430.26,1628.23 -288.56,1673.15 -285.60,1674.09 -264.38,1680.83 -253.94,1684.14 -240.38,1687.85 -212.40,1697.32 -198.10,1701.86 -185.22,1705.94 -79.77,1739.40 31.55,1774.38 40.76,1777.27 53.52,1771.01" fill="none" stroke="#bcbcbc" stroke-width="8" stroke-linecap="round" stroke-linejoin="round" /><polyline points="-77.32,627.28 4.94,551.69 18.86,538.89" fill="none" stroke="#bcbcbc" stroke-width="8" stroke-linecap="round" stroke-linejoin="round" /><polyline points="-1454.69,1847.00 -1152.87,1879.35" fill="none" stroke="#bcbcbc" stroke-width="8" stroke-linecap="round" stroke-linejoin="round" /><polyline points="-544.19,1004.45 -480.76,981.77 -415.32,958.10 -374.66,942.30 -250.54,897.15 -214.51,884.68 -206.99,882.08 -197.96,878.98 -187.83,875.49 -186.59,875.06 -166.14,866.84 -157.25,863.27" fill="none" stroke="#bcbcbc" stroke-width="8" stroke-linecap="round" stroke-linejoin="round" /><polyline points="-118.13,2539.76 -58.40,2613.44 -21.84,2650.26 -6.01,2661.66 16.40,2680.43 37.45,2698.11 55.53,2715.75 55.97,2724.72" fill="none" stroke="#bcbcbc" stroke-width="8" stroke-linecap="round" stroke-linejoin="round" /><polyline points="-53.79,840.25 -30.39,781.57 7.50,684.97 61.77,546.56 88.60,481.00 128.56,383.23 161.34,303.15 167.20,292.52 196.02,245.40 197.88,242.35 208.43,221.61 226.92,193.13 237.24,177.23 251.85,154.74" fill="none" stroke="#bcbcbc" stroke-width="8" stroke-linecap="round" stroke-linejoin="round" /><polyline points="-605.98,2409.08 -609.81,2412.14 -612.34,2415.79 -617.51,2431.02 -621.07,2442.01 -637.56,2491.33 -639.83,2498.44 -641.24,2502.86 -656.38,2498.52 -693.24,2486.16 -729.76,2473.91 -757.98,2472.31" fill="none" stroke="#bcbcbc" stroke-width="8" stroke-linecap="round" stroke-linejoin="round" /><polyline points="-1327.70,2752.26 -1267.52,2596.81 -1260.82,2579.89 -1254.81,2563.59 -1247.55,2543.89 -1238.65,2512.91 -1229.37,2474.41 -1225.57,2446.82 -1222.81,2426.78 -1218.91,2411.99 -1204.75,2300.83 -1188.21,2160.57 -1179.64,2093.70 -1170.09,2015.14 -1152.87,1879.35 -1150.14,1856.27 -1132.73,1714.26 -1132.72,1706.35 -1128.88,1664.21 -1117.78,1575.21 -1115.00,1559.69 -1112.09,1550.98 -1107.56,1541.39 -1103.14,1533.95 -1093.40,1523.40 -1084.69,1520.41" fill="none" stroke="#bcbcbc" stroke-width="8" stroke-linecap="round" stroke-linejoin="round" /><polyline points="-13.82,1571.60 -10.53,1576.82 0.51,1594.05 17.04,1620.54 21.02,1626.86 27.61,1621.85 59.57,1597.58" fill="none" stroke="#bcbcbc" stroke-width="8" stroke-linecap="round" stroke-linejoin="round" /><polyline points="7.50,684.97 332.68,743.76 366.84,761.74 494.24,824.91 505.46,821.43" fill="none" stroke="#bcbcbc" stroke-width="8" stroke-linecap="round" stroke-linejoin="round" /><polyline points="-613.32,1421.87 -619.09,1430.28 -670.97,1455.61 -709.07,1504.04 -750.19,1529.50 -778.31,1550.74 -805.13,1572.63 -818.89,1585.16 -843.18,1615.99 -870.35,1654.94 -874.83,1662.15" fill="none" stroke="#bcbcbc" stroke-width="8" stroke-linecap="round" stroke-linejoin="round" /><polyline points="-558.47,1456.61 -560.72,1461.61 -565.64,1468.80 -574.93,1480.24 -629.73,1549.48 -658.73,1627.58 -805.07,1572.57" fill="none" stroke="#bcbcbc" stroke-width="8" stroke-linecap="round" stroke-linejoin="round" /><polyline points="-778.31,1550.74 -783.97,1533.58 -808.46,1459.43 -817.96,1444.78 -833.88,1397.03 -835.25,1392.91 -832.91,1385.44 -836.72,1373.27 -913.24,1128.91" fill="none" stroke="#bcbcbc" stroke-width="8" stroke-linecap="round" stroke-linejoin="round" /><polyline points="118.30,217.46 178.77,219.05 181.59,219.13 193.18,219.46 208.43,221.61" fill="none" stroke="#bcbcbc" stroke-width="8" stroke-linecap="round" stroke-linejoin="round" /><polyline points="-192.76,2187.70 -213.40,2187.44 -388.25,2210.92 -400.85,2212.25 -415.26,2213.77 -498.92,2222.60 -611.64,2234.50 -671.40,2240.81 -704.46,2244.29 -731.30,2247.56 -745.08,2249.24 -760.61,2251.12 -835.60,2260.24 -853.57,2262.42 -908.95,2268.48 -1204.75,2300.83" fill="none" stroke="#bcbcbc" stroke-width="8" stroke-linecap="round" stroke-linejoin="round" /><polyline points="-451.62,2794.84 -467.11,2789.85 -539.45,2766.56 -554.08,2761.85 -566.77,2757.77 -643.42,2733.13 -658.53,2728.28 -678.52,2721.84 -800.53,2682.57 -814.26,2678.15" fill="none" stroke="#bcbcbc" stroke-width="8" stroke-linecap="round" stroke-linejoin="round" /><polyline points="-149.12,1329.93 -107.04,1343.04 46.84,1390.56 48.28,1391.01 59.69,1391.72" fill="none" stroke="#bcbcbc" stroke-width="8" stroke-linecap="round" stroke-linejoin="round" /><polyline points="283.87,983.32 493.20,987.00" fill="none" stroke="#bcbcbc" stroke-width="8" stroke-linecap="round" stroke-linejoin="round" /><polyline points="181.37,2822.67 151.44,2787.10 138.89,2772.49 128.10,2762.41 113.74,2751.68 84.38,2734.07 55.97,2724.72 -1.82,2706.87 -49.09,2691.87 -21.84,2650.26" fill="none" stroke="#bcbcbc" stroke-width="8" stroke-linecap="round" stroke-linejoin="round" /><polyline points="-118.13,2539.76 -159.79,2488.32 -167.72,2478.53 -209.69,2420.71 -219.19,2403.05 -216.91,2382.03 -204.26,2381.91 -173.04,2387.91 -125.54,2397.05" fill="none" stroke="#bcbcbc" stroke-width="8" stroke-linecap="round" stroke-linejoin="round" /><polyline points="-663.21,2127.62 -655.53,2144.15 -611.64,2234.50 -546.39,2368.85 -538.07,2385.98" fill="none" stroke="#bcbcbc" stroke-width="8" stroke-linecap="round" stroke-linejoin="round" /><polyline points="-1366.07,2536.85 -1350.37,2543.27 -1276.87,2573.33 -1260.82,2579.89 -1243.93,2586.79 -1157.39,2622.19 -1141.73,2628.59" fill="none" stroke="#bcbcbc" stroke-width="8" stroke-linecap="round" stroke-linejoin="round" /><polyline points="-627.09,1993.66 -473.94,2060.67" fill="none" stroke="#bcbcbc" stroke-width="8" stroke-linecap="round" stroke-linejoin="round" /><polyline points="59.69,1391.72 83.02,1392.95 84.50,1394.27 94.97,1403.56 110.36,1417.29 113.20,1422.82 166.22,1469.26 170.14,1476.67 207.42,1509.57 216.81,1512.44 245.81,1537.84 252.31,1540.81 296.05,1577.92 305.78,1586.55 311.16,1595.11" fill="none" stroke="#bcbcbc" stroke-width="8" stroke-linecap="round" stroke-linejoin="round" /><polyline points="-1409.30,1993.81 -1170.09,2015.14" fill="none" stroke="#bcbcbc" stroke-width="8" stroke-linecap="round" stroke-linejoin="round" /><polyline points="-875.19,2884.67 -867.78,2868.89 -865.88,2861.87 -855.49,2823.57 -817.86,2690.86 -814.26,2678.15 -810.45,2664.22 -793.40,2601.87 -764.61,2496.58 -757.98,2472.32" fill="none" stroke="#bcbcbc" stroke-width="8" stroke-linecap="round" stroke-linejoin="round" /><polyline points="-663.21,2127.62 -627.09,1993.66 -703.67,1966.86 -723.72,1978.70 -732.86,1985.66 -739.63,1994.81 -744.39,2006.90 -762.00,2072.00 -747.79,2079.24 -733.44,2082.72 -701.70,2090.98 -677.95,2098.55 -663.21,2127.62" fill="none" stroke="#bcbcbc" stroke-width="8" stroke-linecap="round" stroke-linejoin="round" /><polyline points="-762.00,2072.00 -778.77,2069.66 -1170.09,2015.14" fill="none" stroke="#bcbcbc" stroke-width="8" stroke-linecap="round" stroke-linejoin="round" /><polyline points="-125.54,2397.05 -89.25,2404.98 8.92,2436.19 36.36,2444.87 101.51,2463.69 167.14,2482.62 215.73,2496.66 293.43,2519.09 309.49,2523.74 348.70,2536.88 413.26,2554.08 418.95,2555.15" fill="none" stroke="#bcbcbc" stroke-width="8" stroke-linecap="round" stroke-linejoin="round" /><polyline points="-79.50,2964.22 -92.74,2967.55 -107.06,3007.46 -129.27,3001.15 -230.23,2966.74 -242.39,2964.14 -269.42,2962.21 -391.69,2962.70 -418.64,2959.27 -479.51,2949.96 -504.06,2945.97 -678.20,2917.88 -745.63,2907.12 -874.24,2884.84 -895.00,2880.72 -1185.23,2799.59 -1203.55,2794.46 -1327.70,2752.26 -1358.24,2741.42 -1434.54,2709.80 -1478.03,2693.34" fill="none" stroke="#bcbcbc" stroke-width="8" stroke-linecap="round" stroke-linejoin="round" /><polyline points="186.49,818.00 173.92,815.41 6.18,835.25 -53.79,840.25" fill="none" stroke="#bcbcbc" stroke-width="8" stroke-linecap="round" stroke-linejoin="round" /><polyline points="-125.54,2397.05 -119.66,2387.21 -84.46,2296.80 -45.13,2160.08 -35.10,2130.63 -29.73,2122.62 8.24,2000.72 10.13,1986.16 11.56,1976.65" fill="none" stroke="#bcbcbc" stroke-width="8" stroke-linecap="round" stroke-linejoin="round" /><polyline points="47.33,1076.39 51.34,1074.86 56.77,1070.54 65.02,1060.89 172.13,907.19 200.65,866.54" fill="none" stroke="#bcbcbc" stroke-width="8" stroke-linecap="round" stroke-linejoin="round" /><polyline points="524.02,1641.01 526.21,1634.70 580.05,1571.35 584.00,1569.25 593.36,1556.45 624.68,1520.47 634.42,1511.50" fill="none" stroke="#bcbcbc" stroke-width="8" stroke-linecap="round" stroke-linejoin="round" /><polyline points="571.07,2111.14 570.33,2102.66 569.75,2096.10 566.92,2083.57 563.52,2075.38 559.29,2053.90 558.91,2046.12 556.04,2028.73 543.23,2022.03 532.99,2025.95 514.65,2030.34 500.14,2032.61 486.23,2035.96 467.01,2040.35 458.25,2042.34" fill="none" stroke="#bcbcbc" stroke-width="8" stroke-linecap="round" stroke-linejoin="round" /><polyline points="-843.43,1800.02 -804.27,1708.22 -802.10,1702.25" fill="none" stroke="#bcbcbc" stroke-width="8" stroke-linecap="round" stroke-linejoin="round" /><polyline points="188.48,1631.69 207.36,1624.37 217.22,1620.55 224.85,1612.83 256.32,1605.07 266.87,1607.76 289.65,1601.89 307.02,1597.42 311.16,1595.11 328.00,1590.98 414.13,1569.88 433.65,1564.04" fill="none" stroke="#bcbcbc" stroke-width="8" stroke-linecap="round" stroke-linejoin="round" /><polyline points="-605.98,2409.08 -565.34,2394.32 -551.75,2390.16 -538.07,2385.98 -512.82,2378.27 -493.18,2375.45 -426.09,2368.11 -412.61,2367.37 -352.59,2367.88 -316.02,2368.20 -302.27,2367.49 -280.25,2369.72 -273.36,2370.71 -259.32,2372.72 -216.91,2382.03" fill="none" stroke="#bcbcbc" stroke-width="8" stroke-linecap="round" stroke-linejoin="round" /><polyline points="-412.39,1202.67 -419.12,1179.91 -444.12,1095.37 -474.49,998.97 -480.76,981.77 -487.12,965.64 -495.17,942.39" fill="none" stroke="#bcbcbc" stroke-width="8" stroke-linecap="round" stroke-linejoin="round" /><polyline points="-485.10,2565.79 -479.76,2548.92 -425.75,2378.58 -426.09,2368.11" fill="none" stroke="#bcbcbc" stroke-width="8" stroke-linecap="round" stroke-linejoin="round" /><polyline points="-412.61,2367.37 -401.92,2223.94 -400.85,2212.25 -399.21,2198.64 -399.18,2198.02 -398.48,2181.39 -394.91,2136.24 -392.90,2115.21 -390.15,2091.32 -387.64,2074.13 -385.39,2063.32 -382.56,2055.16 -377.01,2036.77 -365.53,1998.48 -350.94,1949.04 -334.86,1898.49 -331.58,1888.18 -328.94,1880.71" fill="none" stroke="#bcbcbc" stroke-width="8" stroke-linecap="round" stroke-linejoin="round" /><polyline points="-762.00,2072.00 -764.84,2084.71 -764.36,2088.77 -746.93,2233.87 -745.08,2249.24 -745.88,2265.04 -750.45,2355.29 -752.36,2392.99 -753.34,2412.43 -755.09,2447.10 -756.01,2465.15 -757.98,2472.32" fill="none" stroke="#bcbcbc" stroke-width="8" stroke-linecap="round" stroke-linejoin="round" /><polyline points="-843.43,1800.02 -906.78,1781.19 -914.84,1776.02 -954.27,1764.53 -965.34,1764.65 -1014.89,1749.72 -1022.89,1743.81 -1067.97,1730.15 -1123.29,1715.07 -1123.56,1715.04 -1132.73,1714.26" fill="none" stroke="#bcbcbc" stroke-width="8" stroke-linecap="round" stroke-linejoin="round" /><polyline points="311.16,1595.11 313.36,1598.00 322.54,1611.69 339.53,1637.01 355.51,1653.03 386.25,1687.53 381.05,1719.42 378.42,1731.38 374.75,1736.43 382.45,1747.83 394.37,1772.37 418.20,1818.33 429.93,1840.97 437.22,1861.31 440.51,1870.76" fill="none" stroke="#bcbcbc" stroke-width="8" stroke-linecap="round" stroke-linejoin="round" /><polyline points="471.61,1660.78 462.78,1663.53 404.60,1681.64 396.26,1684.32 386.25,1687.53" fill="none" stroke="#bcbcbc" stroke-width="8" stroke-linecap="round" stroke-linejoin="round" /><polyline points="53.52,1771.01 71.72,1765.11 203.78,1697.67 221.45,1689.03 283.70,1671.05 344.05,1654.08 355.51,1653.03" fill="none" stroke="#bcbcbc" stroke-width="8" stroke-linecap="round" stroke-linejoin="round" /><polyline points="67.91,1854.50 220.16,1783.64 226.57,1779.40 241.46,1775.07 342.91,1745.54 358.29,1739.65 374.75,1736.43" fill="none" stroke="#bcbcbc" stroke-width="8" stroke-linecap="round" stroke-linejoin="round" /><polyline points="36.85,368.98 98.48,376.60 104.67,377.36 128.56,383.23" fill="none" stroke="#bcbcbc" stroke-width="8" stroke-linecap="round" stroke-linejoin="round" /><polyline points="563.51,995.65 574.44,993.37 615.28,1013.38 620.66,1018.71 697.31,1148.49 699.33,1164.23 709.30,1172.53 707.72,1178.27 707.47,1187.63 708.86,1200.71 729.16,1284.16 730.95,1341.96 733.80,1434.26 738.57,1558.48 719.13,1612.61 706.61,1645.61 688.32,1692.11 683.03,1705.57 679.59,1709.32 674.06,1745.31" fill="none" stroke="#bcbcbc" stroke-width="8" stroke-linecap="round" stroke-linejoin="round" /><polyline points="705.24,1964.54 686.59,1956.42 640.00,1923.90 578.53,1880.71 544.73,1853.36 521.92,1828.93" fill="none" stroke="#bcbcbc" stroke-width="8" stroke-linecap="round" stroke-linejoin="round" /><polyline points="-49.09,2691.87 -67.40,2686.06 -97.11,2676.64 -111.29,2672.14 -127.95,2666.86 -148.99,2660.19 -168.02,2654.15 -186.82,2648.19 -270.69,2621.57 -285.38,2616.91 -303.63,2611.13 -307.65,2609.86 -355.62,2597.18 -369.17,2593.90 -386.14,2589.79 -403.91,2585.49 -467.93,2569.96 -485.10,2565.79 -503.55,2559.39 -542.10,2546.00 -556.63,2540.95 -569.62,2536.73 -629.98,2515.27 -637.58,2510.74 -641.24,2502.86" fill="none" stroke="#bcbcbc" stroke-width="8" stroke-linecap="round" stroke-linejoin="round" /><polyline points="226.57,1779.40 222.12,1763.46 208.87,1715.94 203.78,1697.67 196.41,1684.01 195.73,1681.47 191.39,1665.39 196.44,1658.26 190.37,1637.98 188.48,1631.69" fill="none" stroke="#bcbcbc" stroke-width="8" stroke-linecap="round" stroke-linejoin="round" /><polyline points="204.41,1197.89 217.01,1191.96 285.83,1154.01 325.18,1128.70 352.93,1109.77 359.06,1105.20 381.39,1089.68 404.53,1072.58 419.19,1061.92 436.66,1049.14 497.38,1021.74 505.25,1022.15 516.76,1016.71 563.51,995.65" fill="none" stroke="#bcbcbc" stroke-width="8" stroke-linecap="round" stroke-linejoin="round" /><polyline points="-558.47,1456.61 -548.54,1460.64 -541.98,1462.66 -418.89,1500.47 -400.10,1506.24" fill="none" stroke="#bcbcbc" stroke-width="8" stroke-linecap="round" stroke-linejoin="round" /><polyline points="-1437.63,1733.44 -1525.57,1706.82" fill="none" stroke="#bcbcbc" stroke-width="8" stroke-linecap="round" stroke-linejoin="round" /><polyline points="-17.20,493.20 4.60,520.82 7.86,524.95 18.86,538.89 31.41,540.36 57.19,543.39 61.77,546.56" fill="none" stroke="#bcbcbc" stroke-width="8" stroke-linecap="round" stroke-linejoin="round" /><polyline points="739.90,1721.86 705.36,1728.30 669.93,1747.56 637.09,1765.84 606.03,1781.37 568.50,1801.75 541.33,1818.26 487.62,1847.05 277.98,1952.54 223.63,1976.49 187.72,1992.02 169.93,1997.84 155.21,2000.59 131.10,2002.05 96.81,1997.20 11.24,1976.65 -110.24,1948.33 -270.06,1900.12 -328.94,1880.71 -425.35,1850.94 -517.56,1820.52 -652.79,1767.45 -720.41,1738.33 -801.93,1702.09 -937.17,1627.99 -968.87,1606.96 -1049.11,1556.49 -1082.75,1522.84 -1133.22,1457.47 -1216.37,1371.73 -1249.04,1342.93" fill="none" stroke="#bcbcbc" stroke-width="8" stroke-linecap="round" stroke-linejoin="round" /><polyline points="84.38,2734.07 85.80,2726.16 90.91,2713.25 138.87,2601.02 156.98,2558.95 178.34,2506.53 183.54,2487.35" fill="none" stroke="#bcbcbc" stroke-width="8" stroke-linecap="round" stroke-linejoin="round" /><polyline points="-835.60,2260.24 -890.07,2233.87 -1014.03,2173.86 -1166.07,2100.27 -1179.64,2093.70" fill="none" stroke="#bcbcbc" stroke-width="8" stroke-linecap="round" stroke-linejoin="round" /><polyline points="59.69,1391.72 73.44,1377.64 110.02,1340.19 139.04,1308.49" fill="none" stroke="#bcbcbc" stroke-width="8" stroke-linecap="round" stroke-linejoin="round" /><polyline points="-996.41,1475.15 -1011.52,1455.14 -1082.34,1361.37 -1183.42,1279.56" fill="none" stroke="#bcbcbc" stroke-width="8" stroke-linecap="round" stroke-linejoin="round" /><polyline points="-1435.08,2709.57 -1421.26,2676.78 -1377.31,2567.19 -1371.98,2552.81 -1366.07,2536.85 -1363.83,2531.09 -1363.23,2522.08 -1357.61,2436.88 -1355.99,2412.44" fill="none" stroke="#bcbcbc" stroke-width="8" stroke-linecap="round" stroke-linejoin="round" /><polyline points="-1465.07,1828.62 -1437.63,1733.44 -1401.43,1607.91 -1396.95,1592.37 -1391.97,1574.72 -1380.81,1535.19 -1379.64,1531.04 -1376.45,1518.33 -1371.35,1503.96 -1370.11,1500.48 -1363.68,1484.53 -1351.05,1456.66 -1347.27,1448.66" fill="none" stroke="#bcbcbc" stroke-width="8" stroke-linecap="round" stroke-linejoin="round" /><polyline points="-1396.95,1592.37 -1341.43,1606.57 -1223.83,1636.80 -1156.83,1657.66 -1128.88,1664.21" fill="none" stroke="#bcbcbc" stroke-width="8" stroke-linecap="round" stroke-linejoin="round" /><polyline points="-254.16,1160.51 -252.27,1148.95 -250.37,1136.95 -242.23,1096.82 -221.88,1003.41 -205.17,919.85 -202.11,902.51 -197.96,878.98 -197.96,878.95" fill="none" stroke="#bcbcbc" stroke-width="8" stroke-linecap="round" stroke-linejoin="round" /><polyline points="-418.53,2959.28 -393.75,2896.05 -390.67,2884.69 -292.29,2634.93 -285.38,2616.91 -279.79,2601.62 -221.01,2430.58 -209.69,2420.71" fill="none" stroke="#bcbcbc" stroke-width="8" stroke-linecap="round" stroke-linejoin="round" /><polyline points="-81.33,1112.16 -81.34,1112.13 -84.82,1093.84 -85.37,1091.62 -93.86,1057.06 -93.86,1056.95 -99.65,1033.51 -124.20,949.37 -127.30,940.35 -143.87,895.28 -149.26,881.83 -152.74,873.15 -157.25,863.29 -157.25,863.27 -157.26,863.23 -160.55,826.99 -160.86,809.20" fill="none" stroke="#bcbcbc" stroke-width="8" stroke-linecap="round" stroke-linejoin="round" /><polyline points="-118.13,2539.76 -124.44,2546.58 -133.85,2557.77 -160.35,2632.51 -168.02,2654.15" fill="none" stroke="#bcbcbc" stroke-width="8" stroke-linecap="round" stroke-linejoin="round" /><polyline points="-558.47,1456.61 -554.85,1446.80 -554.03,1444.52 -536.82,1396.44 -530.37,1376.19 -477.62,1221.06" fill="none" stroke="#bcbcbc" stroke-width="8" stroke-linecap="round" stroke-linejoin="round" /><polyline points="-285.60,1674.09 -280.22,1659.79 -265.65,1621.07 -259.48,1604.70 -255.31,1593.62 -243.62,1562.54 -235.89,1542.01 -234.85,1539.25 -216.13,1489.52 -208.30,1491.95 -204.06,1480.40 -196.56,1459.98 -198.00,1450.70 -178.09,1396.48 -176.04,1390.91 -172.26,1387.44 -169.09,1384.52 -149.12,1329.93 -146.23,1314.98 -117.58,1235.36 -110.81,1230.06 -97.02,1191.06 -99.47,1185.07 -87.40,1148.64 -93.66,1116.12" fill="none" stroke="#bcbcbc" stroke-width="8" stroke-linecap="round" stroke-linejoin="round" /><polyline points="226.92,193.13 218.89,179.95 176.70,110.74" fill="none" stroke="#bcbcbc" stroke-width="8" stroke-linecap="round" stroke-linejoin="round" /><polyline points="359.06,1105.20 552.65,1229.71 552.71,1229.80 552.71,1229.82 588.51,1234.47" fill="none" stroke="#bcbcbc" stroke-width="8" stroke-linecap="round" stroke-linejoin="round" /><polyline points="281.42,845.11 487.40,948.51 493.62,953.15 493.20,987.00 497.38,1021.74" fill="none" stroke="#bcbcbc" stroke-width="8" stroke-linecap="round" stroke-linejoin="round" /><polyline points="-111.29,2672.14 -118.70,2694.75 -148.71,2786.29 -199.76,2940.47 -203.39,2951.40 -207.05,2962.49 -208.08,2974.29" fill="none" stroke="#bcbcbc" stroke-width="8" stroke-linecap="round" stroke-linejoin="round" /><polyline points="468.58,2116.02 469.81,2104.54 470.07,2093.82 469.99,2093.45 462.69,2061.89 459.70,2048.71 458.25,2042.34 456.78,2035.84 448.76,2000.54 433.11,1929.99 421.74,1887.57 420.12,1881.02" fill="none" stroke="#bcbcbc" stroke-width="8" stroke-linecap="round" stroke-linejoin="round" /><polyline points="-554.08,2761.85 -548.97,2747.34 -491.61,2584.30 -485.10,2565.79" fill="none" stroke="#bcbcbc" stroke-width="8" stroke-linecap="round" stroke-linejoin="round" /><polyline points="733.80,1434.26 716.92,1429.50 602.32,1253.61 588.51,1234.47" fill="none" stroke="#bcbcbc" stroke-width="8" stroke-linecap="round" stroke-linejoin="round" /><polyline points="-1150.14,1856.27 -732.47,1956.34 -703.67,1966.86" fill="none" stroke="#bcbcbc" stroke-width="8" stroke-linecap="round" stroke-linejoin="round" />
    <polyline points="167.20,292.52 329.89,352.80 352.80,348.89" fill="none" stroke="#ffffff" stroke-width="16" stroke-linecap="round" stroke-linejoin="round" />
    <polyline points="167.20,292.52 329.89,352.80 352.80,348.89" fill="none" stroke="#111111" stroke-width="9" stroke-linecap="round" stroke-linejoin="round" />
    
            <g transform="translate(167.20,292.52)">
              <circle r="19" fill="#ffffff" stroke="#111111" stroke-width="4" />
              <text text-anchor="middle" dominant-baseline="central" font-family="Helvetica, Arial, sans-serif"
                font-size="18" font-weight="700" fill="#111111">1</text>
            </g>
            
            <g transform="translate(352.80,348.89)">
              <circle r="19" fill="#ffffff" stroke="#111111" stroke-width="4" />
              <text text-anchor="middle" dominant-baseline="central" font-family="Helvetica, Arial, sans-serif"
                font-size="18" font-weight="700" fill="#111111">2</text>
            </g>
            
  </g>
</svg>
